<svg xmlns="http://www.w3.org/2000/svg" width="24" height="24" viewBox="0 0 24 24" fill="none" stroke="currentColor" stroke-width="2" stroke-linecap="round" stroke-linejoin="round" class="icon icon-tabler icons-tabler-outline icon-tabler-http-put"><path d="M2.614 7.056 C 2.376 7.133,2.212 7.262,2.109 7.453 L 2.020 7.620 2.009 11.913 C 2.002 14.727,2.013 16.258,2.039 16.357 C 2.144 16.747,2.434 16.961,2.896 16.991 C 3.381 17.022,3.699 16.882,3.880 16.558 L 3.980 16.380 3.992 14.695 L 4.004 13.009 4.792 12.990 C 5.464 12.974,5.621 12.958,5.860 12.882 C 6.835 12.570,7.582 11.817,7.886 10.840 C 8.021 10.406,8.021 9.594,7.886 9.160 C 7.581 8.182,6.825 7.421,5.861 7.124 C 5.550 7.028,5.498 7.024,4.160 7.013 C 3.090 7.005,2.743 7.014,2.614 7.056 M9.614 7.057 C 9.377 7.131,9.212 7.261,9.109 7.453 L 9.020 7.620 9.020 11.080 L 9.020 14.540 9.114 14.840 C 9.422 15.827,10.174 16.579,11.160 16.886 C 11.594 17.021,12.406 17.021,12.840 16.886 C 13.826 16.579,14.578 15.827,14.886 14.840 L 14.980 14.540 14.980 11.080 L 14.980 7.620 14.889 7.450 C 14.724 7.140,14.329 6.970,13.874 7.011 C 13.439 7.051,13.141 7.274,13.041 7.635 C 13.015 7.727,13.000 8.948,13.000 10.944 C 13.000 14.376,13.003 14.324,12.779 14.618 C 12.718 14.698,12.585 14.813,12.484 14.872 C 12.328 14.963,12.254 14.980,12.000 14.980 C 11.746 14.980,11.672 14.963,11.516 14.872 C 11.328 14.761,11.158 14.572,11.070 14.373 C 11.032 14.287,11.015 13.475,11.000 10.940 L 10.980 7.620 10.891 7.453 C 10.842 7.362,10.746 7.247,10.678 7.199 C 10.414 7.010,9.957 6.950,9.614 7.057 M16.614 7.057 C 16.377 7.131,16.212 7.261,16.109 7.453 C 16.035 7.592,16.020 7.684,16.020 8.000 C 16.020 8.331,16.033 8.403,16.120 8.558 C 16.230 8.755,16.414 8.898,16.635 8.959 C 16.715 8.981,17.055 9.000,17.390 9.000 L 18.000 9.000 18.000 12.610 C 18.000 14.905,18.015 16.273,18.041 16.365 C 18.148 16.750,18.437 16.962,18.896 16.991 C 19.381 17.022,19.699 16.882,19.880 16.558 L 19.980 16.380 19.991 12.690 L 20.002 9.000 20.611 9.000 C 20.946 9.000,21.285 8.981,21.365 8.959 C 21.586 8.898,21.770 8.755,21.880 8.558 C 21.967 8.402,21.980 8.332,21.979 8.000 C 21.978 7.567,21.898 7.355,21.678 7.199 C 21.406 7.005,21.336 7.000,18.984 7.003 C 17.293 7.005,16.741 7.017,16.614 7.057 M5.310 9.061 C 5.688 9.173,6.000 9.598,6.000 10.001 C 6.000 10.331,5.784 10.696,5.484 10.872 C 5.308 10.975,5.272 10.981,4.650 10.993 L 4.000 11.007 4.000 10.003 L 4.000 9.000 4.553 9.000 C 4.931 9.000,5.170 9.019,5.310 9.061 " stroke="none" fill="black" fill-rule="evenodd"></path></svg>