<svg xmlns="http://www.w3.org/2000/svg" width="24" height="24" viewBox="0 0 24 24" fill="none" stroke="currentColor" stroke-width="2" stroke-linecap="round" stroke-linejoin="round" class="icon icon-tabler icons-tabler-outline icon-tabler-fingerprint-off"><path d="M2.626 2.045 C 2.257 2.239,1.951 2.673,1.951 3.000 C 1.951 3.333,2.057 3.468,3.331 4.747 L 4.532 5.955 4.350 6.247 C 3.628 7.412,3.167 8.800,3.038 10.201 C 2.969 10.941,3.010 14.277,3.097 15.040 C 3.247 16.357,3.485 17.622,3.802 18.777 C 4.048 19.675,4.188 19.891,4.595 19.999 C 4.738 20.037,4.824 20.034,5.064 19.980 C 5.605 19.860,5.920 19.544,5.920 19.121 C 5.920 19.021,5.856 18.705,5.777 18.420 C 5.459 17.260,5.230 16.062,5.098 14.860 C 5.011 14.076,4.971 11.147,5.036 10.410 C 5.127 9.392,5.372 8.552,5.830 7.691 L 5.983 7.403 6.717 8.137 C 7.278 8.699,7.446 8.890,7.428 8.946 C 7.416 8.987,7.358 9.146,7.299 9.300 C 7.067 9.912,6.931 10.965,7.035 11.344 C 7.146 11.749,7.428 11.961,7.896 11.991 C 8.369 12.021,8.698 11.882,8.867 11.581 C 8.955 11.424,8.974 11.321,9.023 10.765 L 9.049 10.470 10.019 11.439 L 10.989 12.408 11.012 13.314 C 11.024 13.812,11.063 14.454,11.097 14.740 C 11.353 16.864,12.043 18.892,13.123 20.700 C 13.772 21.786,14.019 22.040,14.427 22.040 C 15.007 22.040,15.613 21.465,15.546 20.979 C 15.517 20.769,15.419 20.565,15.161 20.180 C 14.186 18.726,13.438 16.822,13.181 15.140 C 13.148 14.920,13.111 14.686,13.099 14.620 C 13.082 14.523,13.796 15.217,16.769 18.186 C 19.390 20.804,20.511 21.898,20.637 21.961 C 20.990 22.137,21.355 22.048,21.701 21.701 C 22.048 21.355,22.137 20.990,21.961 20.637 C 21.885 20.486,18.837 17.395,12.747 11.293 C 8.533 7.070,3.506 2.111,3.372 2.044 C 3.152 1.934,2.835 1.935,2.626 2.045 M11.120 2.023 C 11.065 2.032,10.867 2.059,10.680 2.083 C 10.221 2.142,9.431 2.336,8.963 2.504 C 8.441 2.692,7.496 3.163,7.295 3.336 C 6.979 3.607,6.909 3.973,7.094 4.378 C 7.305 4.838,7.692 5.117,8.052 5.067 C 8.147 5.054,8.502 4.909,8.842 4.744 C 9.551 4.401,10.004 4.242,10.647 4.112 C 11.040 4.032,11.220 4.020,12.000 4.020 C 12.774 4.020,12.962 4.033,13.342 4.110 C 13.987 4.240,14.462 4.407,15.149 4.742 C 15.808 5.063,15.980 5.118,16.208 5.079 C 16.615 5.009,17.033 4.449,17.038 3.968 C 17.042 3.615,16.832 3.371,16.255 3.056 C 15.460 2.623,14.591 2.316,13.640 2.134 C 13.173 2.044,12.973 2.029,12.160 2.018 C 11.643 2.012,11.175 2.014,11.120 2.023 M18.487 6.102 C 17.999 6.346,17.778 6.711,17.877 7.105 C 17.903 7.208,18.039 7.510,18.179 7.776 C 18.584 8.543,18.789 9.127,18.947 9.960 C 19.010 10.292,19.017 10.531,19.007 11.860 C 18.993 13.801,19.039 14.240,19.362 15.211 C 19.664 16.123,20.100 16.849,20.428 16.986 C 20.743 17.118,21.190 16.993,21.537 16.675 C 21.919 16.326,21.934 16.046,21.605 15.383 C 21.338 14.843,21.213 14.507,21.107 14.040 C 21.026 13.683,21.021 13.554,21.020 11.920 C 21.019 9.975,20.992 9.712,20.700 8.686 C 20.452 7.817,19.946 6.700,19.616 6.294 C 19.324 5.934,18.949 5.871,18.487 6.102 M11.580 6.026 C 10.676 6.131,10.349 6.272,10.158 6.640 C 10.011 6.923,10.152 7.587,10.418 7.864 C 10.641 8.096,10.837 8.147,11.260 8.082 C 11.813 7.999,12.111 7.988,12.430 8.039 C 13.749 8.252,14.755 9.251,14.955 10.548 C 14.980 10.706,15.000 11.147,15.000 11.528 C 15.000 11.908,15.019 12.285,15.041 12.365 C 15.148 12.750,15.437 12.962,15.896 12.991 C 16.381 13.022,16.699 12.882,16.880 12.558 C 16.976 12.388,16.981 12.346,16.994 11.581 C 17.002 11.118,16.988 10.624,16.961 10.409 C 16.741 8.663,15.678 7.213,14.066 6.460 C 13.335 6.118,12.317 5.940,11.580 6.026 M7.709 14.044 C 7.176 14.169,6.968 14.484,7.013 15.097 C 7.084 16.075,7.464 17.763,7.897 19.028 C 8.268 20.109,8.846 21.425,9.082 21.722 C 9.325 22.029,9.683 22.114,10.088 21.959 C 10.402 21.840,10.655 21.637,10.760 21.420 C 10.902 21.127,10.861 20.923,10.506 20.152 C 9.727 18.458,9.303 17.032,9.042 15.226 C 8.926 14.421,8.795 14.179,8.404 14.046 C 8.248 13.993,7.928 13.992,7.709 14.044 " stroke="none" fill="black" fill-rule="evenodd"></path></svg>