<svg xmlns="http://www.w3.org/2000/svg" width="24" height="24" viewBox="0 0 24 24" fill="none" stroke="currentColor" stroke-width="2" stroke-linecap="round" stroke-linejoin="round" class="icon icon-tabler icons-tabler-outline icon-tabler-circle-half-2"><path d="M11.080 2.045 C 9.507 2.184,7.883 2.751,6.540 3.630 C 5.905 4.045,5.499 4.378,4.919 4.958 C 2.953 6.926,1.919 9.544,2.013 12.320 C 2.084 14.439,2.752 16.328,4.033 18.040 C 4.430 18.570,5.305 19.464,5.800 19.847 C 7.242 20.961,8.787 21.624,10.600 21.907 C 11.247 22.008,12.753 22.008,13.400 21.907 C 15.638 21.557,17.504 20.620,19.062 19.062 C 20.620 17.504,21.557 15.638,21.907 13.400 C 22.008 12.753,22.008 11.247,21.907 10.600 C 21.624 8.786,20.959 7.238,19.847 5.800 C 19.510 5.365,18.639 4.494,18.200 4.154 C 16.133 2.555,13.646 1.818,11.080 2.045 M10.985 6.510 C 10.975 7.847,10.970 9.003,10.973 9.080 C 10.977 9.157,10.979 10.251,10.977 11.510 C 10.976 12.770,10.975 13.890,10.975 14.000 C 10.975 14.110,10.976 15.230,10.977 16.490 C 10.979 17.750,10.975 18.843,10.968 18.920 C 10.961 18.997,10.968 19.253,10.983 19.490 L 11.010 19.920 10.903 19.920 C 10.704 19.920,9.984 19.753,9.500 19.595 C 8.382 19.229,7.352 18.612,6.504 17.801 C 4.495 15.878,3.630 13.155,4.161 10.422 C 4.391 9.239,5.007 7.919,5.759 7.000 C 6.946 5.549,8.573 4.546,10.340 4.177 C 10.582 4.127,10.830 4.084,10.891 4.083 L 11.003 4.080 10.985 6.510 M13.566 4.159 C 13.960 4.236,14.609 4.420,14.872 4.531 L 14.997 4.584 13.999 5.581 L 13.000 6.579 13.000 5.330 C 13.000 4.114,13.002 4.080,13.079 4.080 C 13.122 4.080,13.341 4.116,13.566 4.159 M17.659 6.358 L 17.939 6.641 15.469 9.110 L 13.000 11.580 13.000 10.500 L 13.000 9.420 14.907 7.513 L 16.814 5.606 17.097 5.841 C 17.253 5.970,17.506 6.203,17.659 6.358 M19.577 9.440 L 19.718 9.860 16.369 13.210 L 13.020 16.560 13.009 15.491 L 12.999 14.422 16.049 11.369 L 19.100 8.317 19.268 8.669 C 19.360 8.862,19.499 9.209,19.577 9.440 M19.953 12.790 C 19.819 14.316,19.158 15.898,18.153 17.100 C 17.388 18.015,16.523 18.693,15.471 19.200 C 14.751 19.549,13.528 19.920,13.102 19.920 C 13.003 19.920,13.000 19.911,13.000 19.670 L 13.000 19.420 16.490 15.930 C 18.409 14.011,19.981 12.440,19.982 12.440 C 19.983 12.440,19.969 12.598,19.953 12.790 " stroke="none" fill="black" fill-rule="evenodd"></path></svg>