<svg xmlns="http://www.w3.org/2000/svg" width="24" height="24" viewBox="0 0 24 24" fill="none" stroke="currentColor" stroke-width="2" stroke-linecap="round" stroke-linejoin="round" class="icon icon-tabler icons-tabler-outline icon-tabler-tex"><path d="M15.755 6.015 C 15.442 6.127,15.087 6.432,14.998 6.665 C 14.938 6.823,14.955 7.125,15.035 7.300 C 15.075 7.388,15.605 8.256,16.214 9.230 L 17.320 11.000 16.214 12.770 C 15.605 13.743,15.075 14.612,15.035 14.700 C 14.944 14.898,14.939 15.205,15.024 15.382 C 15.111 15.567,15.402 15.826,15.652 15.942 C 16.029 16.118,16.383 16.052,16.667 15.754 C 16.737 15.680,17.175 15.008,17.642 14.260 C 18.109 13.512,18.493 12.897,18.495 12.893 C 18.498 12.890,18.878 13.493,19.340 14.233 C 19.802 14.974,20.242 15.649,20.317 15.733 C 20.602 16.050,20.961 16.123,21.348 15.942 C 21.598 15.826,21.889 15.567,21.976 15.382 C 22.061 15.205,22.056 14.898,21.965 14.700 C 21.925 14.612,21.395 13.743,20.786 12.770 L 19.680 11.000 20.786 9.230 C 21.395 8.256,21.925 7.388,21.965 7.300 C 22.056 7.102,22.061 6.795,21.976 6.618 C 21.896 6.449,21.621 6.193,21.397 6.078 C 21.303 6.030,21.125 5.982,21.001 5.971 C 20.738 5.947,20.540 6.029,20.333 6.246 C 20.263 6.320,19.825 6.992,19.358 7.740 C 18.891 8.488,18.507 9.103,18.505 9.107 C 18.502 9.110,18.122 8.507,17.660 7.767 C 17.198 7.026,16.758 6.351,16.683 6.267 C 16.426 5.982,16.099 5.893,15.755 6.015 M2.614 6.057 C 2.377 6.131,2.212 6.261,2.109 6.453 C 2.027 6.606,2.019 6.684,2.007 7.405 C 1.999 7.880,2.011 8.252,2.037 8.349 C 2.144 8.748,2.430 8.961,2.896 8.991 C 3.533 9.031,3.915 8.757,3.983 8.210 L 4.009 8.000 4.505 8.000 L 5.000 8.000 5.000 11.610 C 5.000 13.905,5.015 15.273,5.041 15.365 C 5.148 15.750,5.437 15.962,5.896 15.991 C 6.381 16.022,6.699 15.882,6.880 15.558 L 6.980 15.380 6.991 11.690 L 7.002 8.000 7.495 8.000 L 7.989 8.000 8.013 8.203 C 8.074 8.715,8.426 9.000,9.000 9.000 C 9.428 9.000,9.713 8.856,9.880 8.558 C 9.978 8.383,9.980 8.364,9.980 7.500 C 9.980 6.667,9.975 6.611,9.891 6.453 C 9.785 6.256,9.622 6.131,9.371 6.055 C 9.109 5.977,2.866 5.979,2.614 6.057 M9.614 10.057 C 9.377 10.131,9.212 10.261,9.109 10.453 L 9.020 10.620 9.009 14.913 C 9.002 17.727,9.013 19.258,9.039 19.357 C 9.100 19.584,9.242 19.768,9.442 19.880 L 9.620 19.980 11.911 19.991 C 13.392 19.999,14.256 19.988,14.355 19.961 C 14.583 19.900,14.768 19.758,14.880 19.558 C 14.967 19.402,14.980 19.332,14.979 19.000 C 14.978 18.567,14.898 18.355,14.678 18.199 C 14.416 18.012,14.290 18.000,12.594 18.000 L 11.000 18.000 11.000 17.000 L 11.000 16.000 12.110 16.000 C 12.730 16.000,13.284 15.982,13.365 15.959 C 13.586 15.898,13.770 15.755,13.880 15.558 C 13.967 15.402,13.980 15.332,13.979 15.000 C 13.978 14.567,13.898 14.355,13.678 14.199 C 13.430 14.022,13.256 14.000,12.094 14.000 L 11.000 14.000 11.000 13.000 L 11.000 12.000 12.610 12.000 C 13.565 12.000,14.279 11.983,14.365 11.959 C 14.586 11.898,14.770 11.755,14.880 11.558 C 14.967 11.402,14.980 11.332,14.979 11.000 C 14.978 10.567,14.898 10.355,14.678 10.199 C 14.406 10.005,14.336 10.000,11.984 10.003 C 10.293 10.005,9.741 10.017,9.614 10.057 " stroke="none" fill="black" fill-rule="evenodd"></path></svg>