<svg xmlns="http://www.w3.org/2000/svg" width="24" height="24" viewBox="0 0 24 24" fill="none" stroke="currentColor" stroke-width="2" stroke-linecap="round" stroke-linejoin="round" class="icon icon-tabler icons-tabler-outline icon-tabler-player-record"><path d="M11.207 4.043 C 9.656 4.193,8.096 4.846,6.900 5.847 C 5.985 6.612,5.307 7.477,4.800 8.529 C 3.734 10.734,3.735 13.267,4.801 15.474 C 5.225 16.352,5.730 17.049,6.446 17.741 C 7.114 18.389,7.706 18.803,8.529 19.200 C 11.259 20.519,14.467 20.184,16.900 18.326 C 17.239 18.067,17.925 17.394,18.211 17.040 C 20.163 14.625,20.547 11.317,19.200 8.529 C 18.693 7.477,18.015 6.612,17.100 5.847 C 15.483 4.494,13.337 3.837,11.207 4.043 M12.564 6.039 C 14.921 6.269,16.913 7.837,17.671 10.060 C 18.168 11.517,18.068 13.251,17.410 14.580 C 16.550 16.316,15.056 17.478,13.160 17.885 C 12.554 18.015,11.446 18.015,10.840 17.885 C 8.941 17.478,7.451 16.319,6.590 14.580 C 5.932 13.251,5.832 11.517,6.329 10.060 C 6.618 9.212,7.080 8.470,7.731 7.805 C 9.008 6.503,10.757 5.864,12.564 6.039 " stroke="none" fill="black" fill-rule="evenodd"></path></svg>