<svg xmlns="http://www.w3.org/2000/svg" width="24" height="24" viewBox="0 0 24 24" fill="none" stroke="currentColor" stroke-width="2" stroke-linecap="round" stroke-linejoin="round" class="icon icon-tabler icons-tabler-outline icon-tabler-brand-ansible"><path d="M11.080 2.045 C 9.507 2.184,7.883 2.751,6.540 3.630 C 5.905 4.045,5.499 4.378,4.919 4.958 C 2.953 6.926,1.919 9.544,2.013 12.320 C 2.084 14.439,2.752 16.328,4.033 18.040 C 4.430 18.570,5.305 19.464,5.800 19.847 C 7.242 20.961,8.787 21.624,10.600 21.907 C 11.247 22.008,12.753 22.008,13.400 21.907 C 15.638 21.557,17.504 20.620,19.062 19.062 C 20.620 17.504,21.557 15.638,21.907 13.400 C 22.008 12.753,22.008 11.247,21.907 10.600 C 21.624 8.786,20.959 7.238,19.847 5.800 C 19.510 5.365,18.639 4.494,18.200 4.154 C 16.133 2.555,13.646 1.818,11.080 2.045 M12.734 4.041 C 14.574 4.216,16.228 4.976,17.554 6.256 C 20.043 8.658,20.702 12.394,19.183 15.499 C 18.749 16.387,18.223 17.105,17.496 17.801 C 16.876 18.394,16.262 18.819,15.471 19.200 C 13.267 20.265,10.733 20.265,8.529 19.200 C 7.477 18.693,6.612 18.015,5.847 17.100 C 3.848 14.711,3.440 11.302,4.816 8.500 C 6.162 5.760,8.867 4.049,11.920 4.005 C 12.129 4.003,12.495 4.019,12.734 4.041 M11.811 6.022 C 11.534 6.096,11.303 6.247,11.183 6.430 C 11.077 6.593,7.131 15.458,7.025 15.771 C 6.850 16.287,7.077 16.711,7.640 16.926 C 8.112 17.105,8.441 17.052,8.697 16.753 C 8.788 16.646,9.045 16.118,9.465 15.174 C 9.949 14.085,10.110 13.759,10.158 13.771 C 10.192 13.780,11.417 14.486,12.880 15.341 C 14.343 16.195,15.626 16.927,15.730 16.967 C 16.121 17.117,16.399 17.046,16.687 16.726 C 16.979 16.401,17.067 16.039,16.940 15.680 C 16.907 15.586,15.970 13.464,14.859 10.963 C 13.560 8.041,12.793 6.361,12.712 6.263 C 12.571 6.091,12.321 5.961,12.140 5.964 C 12.074 5.964,11.926 5.991,11.811 6.022 M12.913 11.525 C 13.403 12.627,13.798 13.534,13.792 13.540 C 13.771 13.559,10.956 11.901,10.953 11.868 C 10.948 11.819,11.973 9.520,12.000 9.520 C 12.013 9.520,12.424 10.422,12.913 11.525 " stroke="none" fill="black" fill-rule="evenodd"></path></svg>