<svg xmlns="http://www.w3.org/2000/svg" width="24" height="24" viewBox="0 0 24 24" fill="none" stroke="currentColor" stroke-width="2" stroke-linecap="round" stroke-linejoin="round" class="icon icon-tabler icons-tabler-outline icon-tabler-number-4-small"><path d="M9.614 7.057 C 9.377 7.131,9.212 7.261,9.109 7.453 C 9.021 7.618,9.020 7.646,9.008 9.416 C 8.996 11.353,9.004 11.460,9.202 11.877 C 9.348 12.186,9.771 12.623,10.070 12.775 C 10.472 12.979,10.642 13.000,11.868 13.000 L 13.000 13.000 13.000 14.610 C 13.000 15.565,13.017 16.279,13.041 16.365 C 13.148 16.750,13.437 16.962,13.896 16.991 C 14.381 17.022,14.699 16.882,14.880 16.558 L 14.980 16.380 14.980 12.000 L 14.980 7.620 14.889 7.450 C 14.724 7.140,14.329 6.970,13.874 7.011 C 13.439 7.051,13.141 7.274,13.041 7.635 C 13.017 7.721,13.000 8.435,13.000 9.390 L 13.000 11.000 12.002 11.000 L 11.004 11.000 10.992 9.310 C 10.980 7.651,10.978 7.617,10.891 7.453 C 10.842 7.362,10.746 7.247,10.678 7.199 C 10.414 7.010,9.957 6.950,9.614 7.057 " stroke="none" fill="black" fill-rule="evenodd"></path></svg>