<svg xmlns="http://www.w3.org/2000/svg" width="24" height="24" viewBox="0 0 24 24" fill="none" stroke="currentColor" stroke-width="2" stroke-linecap="round" stroke-linejoin="round" class="icon icon-tabler icons-tabler-outline icon-tabler-snowflake-off"><path d="M11.614 1.057 C 11.377 1.131,11.212 1.261,11.109 1.453 C 11.026 1.608,11.019 1.680,11.007 2.490 C 11.000 2.969,10.988 3.360,10.981 3.360 C 10.973 3.360,10.798 3.278,10.590 3.178 C 10.112 2.946,9.849 2.910,9.584 3.038 C 9.367 3.143,9.221 3.306,9.091 3.590 C 8.946 3.905,8.928 4.190,9.040 4.420 C 9.161 4.670,9.317 4.777,10.230 5.234 L 11.000 5.619 11.000 6.920 C 11.000 7.667,11.018 8.282,11.041 8.365 C 11.148 8.750,11.437 8.962,11.896 8.991 L 12.180 9.009 12.166 9.221 C 12.139 9.657,12.305 9.829,13.300 10.400 L 13.980 10.790 14.004 11.086 C 14.046 11.589,14.219 11.825,14.633 11.946 C 15.076 12.074,15.605 11.953,15.801 11.678 C 15.914 11.519,16.000 11.234,16.000 11.017 L 16.000 10.847 16.990 10.277 C 17.535 9.964,17.992 9.701,18.008 9.693 C 18.023 9.685,18.374 9.902,18.788 10.176 C 19.618 10.725,19.845 10.826,20.115 10.766 C 20.616 10.653,21.057 9.994,20.954 9.510 C 20.903 9.269,20.718 9.061,20.323 8.802 C 20.145 8.685,20.000 8.578,20.000 8.563 C 20.000 8.549,20.283 8.376,20.628 8.178 C 20.989 7.973,21.335 7.743,21.441 7.640 C 21.779 7.307,21.793 6.927,21.482 6.450 C 21.305 6.178,21.227 6.104,21.030 6.022 C 20.690 5.880,20.488 5.942,19.603 6.458 C 19.318 6.625,19.059 6.771,19.028 6.782 C 18.983 6.800,18.966 6.728,18.943 6.421 C 18.907 5.925,18.835 5.689,18.671 5.531 C 18.485 5.351,18.287 5.280,17.971 5.280 C 17.500 5.281,17.215 5.411,17.052 5.701 C 16.925 5.929,16.911 6.155,16.969 7.100 L 17.021 7.940 16.680 8.141 C 16.493 8.252,16.048 8.511,15.691 8.717 L 15.041 9.090 14.365 8.705 C 13.525 8.227,13.383 8.162,13.170 8.161 L 13.000 8.160 13.000 6.890 L 13.000 5.619 13.770 5.234 C 14.683 4.777,14.839 4.670,14.960 4.420 C 15.072 4.190,15.054 3.905,14.909 3.590 C 14.779 3.306,14.633 3.143,14.416 3.038 C 14.151 2.910,13.888 2.946,13.410 3.178 C 13.202 3.278,13.027 3.360,13.020 3.360 C 13.013 3.360,13.001 2.969,12.993 2.490 C 12.980 1.683,12.973 1.608,12.891 1.453 C 12.842 1.362,12.746 1.247,12.678 1.199 C 12.414 1.010,11.957 0.950,11.614 1.057 M2.626 2.045 C 2.420 2.154,2.146 2.433,2.038 2.644 C 1.924 2.868,1.924 3.133,2.040 3.363 C 2.100 3.482,2.609 4.022,3.585 5.001 L 5.040 6.462 5.040 6.635 C 5.040 6.764,5.026 6.803,4.986 6.788 C 4.957 6.777,4.648 6.604,4.300 6.404 C 3.494 5.940,3.299 5.884,2.970 6.022 C 2.773 6.104,2.695 6.178,2.518 6.450 C 2.207 6.927,2.221 7.307,2.559 7.640 C 2.665 7.743,3.011 7.973,3.372 8.178 C 3.717 8.376,4.000 8.549,4.000 8.563 C 4.000 8.578,3.857 8.683,3.682 8.796 C 3.292 9.050,3.098 9.268,3.046 9.510 C 2.940 10.005,3.416 10.695,3.918 10.775 C 4.174 10.816,4.406 10.708,5.215 10.174 L 5.969 9.675 6.575 10.025 C 6.908 10.218,7.355 10.475,7.570 10.598 L 7.959 10.820 7.960 12.001 L 7.960 13.182 6.964 13.754 L 5.968 14.327 5.312 13.888 C 4.392 13.273,4.282 13.222,3.897 13.236 C 3.603 13.246,3.164 13.705,3.058 14.113 C 2.949 14.534,3.128 14.845,3.695 15.220 C 3.861 15.330,3.998 15.431,3.999 15.445 C 3.999 15.458,3.717 15.629,3.372 15.825 C 3.007 16.031,2.667 16.256,2.560 16.360 C 2.242 16.672,2.210 17.033,2.462 17.466 C 2.691 17.860,2.940 18.040,3.252 18.040 C 3.505 18.040,3.625 17.989,4.349 17.573 C 4.705 17.368,5.004 17.200,5.013 17.200 C 5.022 17.200,5.042 17.372,5.057 17.581 C 5.105 18.240,5.241 18.505,5.609 18.658 C 5.778 18.729,6.226 18.740,6.445 18.679 C 6.790 18.584,7.017 18.311,7.060 17.940 C 7.073 17.830,7.059 17.362,7.029 16.900 C 6.999 16.438,6.976 16.058,6.977 16.056 C 6.979 16.053,7.425 15.795,7.970 15.482 L 8.959 14.913 9.970 15.491 L 10.980 16.069 10.991 17.225 L 11.001 18.380 10.231 18.766 C 9.807 18.978,9.386 19.206,9.295 19.272 C 9.061 19.444,8.943 19.703,8.972 19.984 C 9.017 20.421,9.303 20.861,9.621 20.983 C 9.887 21.084,10.131 21.044,10.582 20.826 C 10.794 20.724,10.975 20.640,10.984 20.640 C 10.993 20.640,11.000 20.996,11.000 21.430 C 11.000 21.864,11.019 22.285,11.041 22.365 C 11.148 22.750,11.437 22.962,11.896 22.991 C 12.381 23.022,12.699 22.882,12.880 22.558 C 12.977 22.386,12.980 22.351,12.993 21.510 C 13.001 21.032,13.013 20.640,13.020 20.640 C 13.027 20.640,13.206 20.724,13.418 20.826 C 14.037 21.126,14.406 21.102,14.699 20.743 C 15.011 20.363,15.115 19.900,14.960 19.580 C 14.839 19.330,14.683 19.223,13.770 18.766 L 13.000 18.381 13.000 17.235 L 13.000 16.088 13.527 15.782 L 14.054 15.476 17.257 18.674 C 19.520 20.933,20.512 21.898,20.637 21.961 C 20.990 22.137,21.355 22.048,21.701 21.701 C 22.047 21.355,22.136 20.990,21.961 20.637 C 21.839 20.392,3.616 2.165,3.372 2.044 C 3.152 1.934,2.834 1.935,2.626 2.045 M12.560 14.006 C 12.560 14.021,12.436 14.105,12.284 14.192 L 12.007 14.352 10.984 13.768 L 9.960 13.184 9.960 12.282 L 9.960 11.380 11.260 12.680 C 11.975 13.395,12.560 13.992,12.560 14.006 M19.840 13.241 C 19.637 13.277,19.413 13.402,18.751 13.848 C 18.106 14.282,17.942 14.445,17.886 14.708 C 17.776 15.226,18.246 15.896,18.780 15.981 C 18.893 15.999,19.000 15.984,19.140 15.931 C 19.431 15.820,20.606 15.033,20.773 14.838 C 21.045 14.519,21.035 14.126,20.743 13.702 C 20.496 13.343,20.179 13.181,19.840 13.241 " stroke="none" fill="black" fill-rule="evenodd"></path></svg>