<svg xmlns="http://www.w3.org/2000/svg" width="24" height="24" viewBox="0 0 24 24" fill="none" stroke="currentColor" stroke-width="2" stroke-linecap="round" stroke-linejoin="round" class="icon icon-tabler icons-tabler-outline icon-tabler-emergency-bed"><path d="M11.614 3.057 C 11.377 3.131,11.212 3.261,11.109 3.453 C 11.029 3.603,11.019 3.689,11.007 4.310 L 10.993 5.000 10.403 5.000 C 9.577 5.000,9.299 5.097,9.109 5.453 C 9.035 5.592,9.020 5.684,9.020 6.000 C 9.020 6.331,9.033 6.403,9.120 6.558 C 9.230 6.755,9.414 6.898,9.635 6.959 C 9.715 6.981,10.055 7.000,10.390 7.000 L 11.000 7.000 11.000 7.610 C 11.000 7.946,11.019 8.285,11.041 8.365 C 11.148 8.750,11.437 8.962,11.896 8.991 C 12.381 9.022,12.699 8.882,12.880 8.558 C 12.974 8.391,12.981 8.338,12.994 7.690 L 13.008 7.000 13.614 7.000 C 13.947 7.000,14.285 6.981,14.365 6.959 C 14.586 6.898,14.770 6.755,14.880 6.558 C 14.967 6.402,14.980 6.332,14.979 6.000 C 14.978 5.687,14.962 5.591,14.890 5.453 C 14.702 5.098,14.423 5.000,13.598 5.000 L 13.008 5.000 12.993 4.310 C 12.976 3.541,12.930 3.378,12.678 3.199 C 12.414 3.010,11.957 2.950,11.614 3.057 M3.654 7.057 C 3.399 7.176,3.138 7.407,3.037 7.606 C 2.944 7.788,2.937 8.094,3.020 8.295 C 3.102 8.491,5.312 11.435,5.617 11.755 C 6.223 12.390,6.972 12.787,7.856 12.943 C 8.096 12.985,8.547 13.000,9.590 13.000 L 11.000 13.000 11.000 13.290 L 11.000 13.581 10.150 14.428 L 9.300 15.275 9.017 15.179 C 7.359 14.616,5.633 15.491,5.114 17.160 C 4.979 17.594,4.979 18.406,5.114 18.840 C 5.421 19.826,6.174 20.579,7.160 20.886 C 7.412 20.964,7.547 20.979,8.000 20.979 C 8.453 20.979,8.588 20.964,8.840 20.886 C 9.826 20.579,10.578 19.827,10.886 18.840 C 10.966 18.583,10.980 18.459,10.978 17.980 C 10.976 17.459,10.967 17.395,10.851 17.060 L 10.726 16.700 11.363 16.060 L 12.000 15.420 12.637 16.060 L 13.274 16.700 13.149 17.060 C 13.033 17.395,13.024 17.459,13.022 17.980 C 13.020 18.459,13.034 18.583,13.114 18.840 C 13.422 19.827,14.174 20.579,15.160 20.886 C 15.412 20.964,15.547 20.979,16.000 20.979 C 16.453 20.979,16.588 20.964,16.840 20.886 C 17.826 20.579,18.579 19.826,18.886 18.840 C 18.964 18.588,18.979 18.453,18.979 18.000 C 18.979 17.547,18.964 17.412,18.886 17.160 C 18.705 16.579,18.391 16.107,17.911 15.695 C 17.133 15.028,16.011 14.830,14.983 15.179 L 14.700 15.275 13.850 14.428 L 13.000 13.581 13.000 13.290 L 13.000 13.000 16.610 13.000 C 18.905 13.000,20.273 12.985,20.365 12.959 C 20.586 12.898,20.770 12.755,20.880 12.558 C 20.967 12.402,20.980 12.332,20.979 12.000 C 20.977 11.469,20.852 11.247,20.455 11.071 C 20.364 11.031,19.054 11.016,14.200 11.000 L 8.060 10.980 7.826 10.886 C 7.266 10.660,7.204 10.595,5.880 8.838 C 4.521 7.035,4.448 6.960,4.065 6.960 C 3.933 6.961,3.787 6.995,3.654 7.057 M8.310 17.061 C 8.688 17.173,9.000 17.598,9.000 18.001 C 9.000 18.331,8.784 18.696,8.484 18.872 C 8.328 18.963,8.254 18.980,8.000 18.980 C 7.746 18.980,7.672 18.963,7.516 18.872 C 6.935 18.530,6.833 17.774,7.304 17.303 C 7.583 17.024,7.916 16.944,8.310 17.061 M16.310 17.061 C 16.688 17.173,17.000 17.598,17.000 18.001 C 17.000 18.331,16.784 18.696,16.484 18.872 C 16.328 18.963,16.254 18.980,16.000 18.980 C 15.746 18.980,15.672 18.963,15.516 18.872 C 14.932 18.528,14.831 17.775,15.307 17.299 C 15.582 17.024,15.918 16.944,16.310 17.061 " stroke="none" fill="black" fill-rule="evenodd"></path></svg>