<svg xmlns="http://www.w3.org/2000/svg" width="24" height="24" viewBox="0 0 24 24" fill="none" stroke="currentColor" stroke-width="2" stroke-linecap="round" stroke-linejoin="round" class="icon icon-tabler icons-tabler-outline icon-tabler-text-decrease"><path d="M6.900 4.045 C 6.211 4.131,5.422 4.450,4.857 4.871 C 3.880 5.598,3.269 6.586,3.062 7.775 C 3.008 8.084,3.000 8.849,3.000 13.675 C 3.000 17.266,3.015 19.271,3.041 19.365 C 3.148 19.750,3.437 19.962,3.896 19.991 C 4.381 20.022,4.699 19.882,4.880 19.558 L 4.980 19.380 4.991 16.690 L 5.003 14.000 7.501 14.000 L 10.000 14.000 10.000 16.610 C 10.000 18.235,10.016 19.275,10.041 19.365 C 10.148 19.750,10.437 19.962,10.896 19.991 C 11.381 20.022,11.699 19.882,11.880 19.558 L 11.980 19.380 11.992 13.800 C 12.000 9.822,11.991 8.129,11.959 7.904 C 11.608 5.436,9.378 3.736,6.900 4.045 M8.020 6.060 C 8.741 6.211,9.395 6.713,9.715 7.362 C 9.989 7.918,9.999 8.012,9.999 10.130 L 10.000 12.000 7.500 12.000 L 5.000 12.000 5.001 10.130 C 5.001 8.012,5.011 7.918,5.285 7.362 C 5.774 6.371,6.914 5.828,8.020 6.060 M14.614 11.057 C 14.377 11.131,14.212 11.261,14.109 11.453 C 14.035 11.592,14.020 11.684,14.020 12.000 C 14.020 12.331,14.033 12.403,14.120 12.558 C 14.230 12.755,14.414 12.898,14.635 12.959 C 14.832 13.014,21.168 13.014,21.365 12.959 C 21.586 12.898,21.770 12.755,21.880 12.558 C 21.967 12.402,21.980 12.332,21.979 12.000 C 21.978 11.567,21.898 11.355,21.678 11.199 C 21.398 10.999,21.411 11.000,17.984 11.003 C 15.472 11.005,14.744 11.017,14.614 11.057 " stroke="none" fill="black" fill-rule="evenodd"></path></svg>