<svg xmlns="http://www.w3.org/2000/svg" width="24" height="24" viewBox="0 0 24 24" fill="none" stroke="currentColor" stroke-width="2" stroke-linecap="round" stroke-linejoin="round" class="icon icon-tabler icons-tabler-outline icon-tabler-arrow-autofit-height"><path d="M17.530 2.083 C 17.393 2.150,17.249 2.252,17.210 2.310 C 17.172 2.369,16.463 3.101,15.635 3.938 C 14.635 4.949,14.099 5.520,14.040 5.637 C 13.863 5.989,13.952 6.354,14.299 6.701 C 14.646 7.048,15.012 7.137,15.363 6.959 C 15.469 6.905,15.832 6.580,16.270 6.147 L 17.000 5.425 17.000 7.822 C 17.000 9.305,17.016 10.275,17.041 10.365 C 17.148 10.750,17.437 10.962,17.896 10.991 C 18.381 11.022,18.699 10.882,18.880 10.558 L 18.980 10.380 18.991 7.904 L 19.003 5.428 19.731 6.148 C 20.168 6.581,20.531 6.905,20.637 6.959 C 20.988 7.137,21.354 7.048,21.701 6.701 C 22.048 6.354,22.137 5.989,21.960 5.637 C 21.901 5.520,21.365 4.949,20.365 3.938 C 19.537 3.101,18.828 2.369,18.789 2.310 C 18.751 2.252,18.604 2.149,18.464 2.082 C 18.120 1.918,17.871 1.918,17.530 2.083 M5.499 3.043 C 4.383 3.230,3.461 4.048,3.114 5.160 L 3.020 5.460 3.020 12.000 L 3.020 18.540 3.114 18.840 C 3.418 19.816,4.150 20.555,5.140 20.886 L 5.420 20.979 8.810 20.991 C 11.058 20.999,12.252 20.989,12.354 20.962 C 12.583 20.900,12.768 20.758,12.880 20.558 C 12.967 20.402,12.980 20.332,12.979 20.000 C 12.977 19.469,12.852 19.247,12.455 19.071 C 12.366 19.032,11.588 19.015,9.020 19.000 L 5.700 18.980 5.516 18.872 C 5.415 18.813,5.284 18.700,5.225 18.623 C 4.987 18.311,5.000 18.701,5.000 12.022 C 5.000 5.123,4.977 5.629,5.303 5.303 C 5.618 4.988,5.468 5.000,9.057 5.000 C 11.053 5.000,12.273 4.985,12.365 4.959 C 12.586 4.898,12.770 4.755,12.880 4.558 C 12.967 4.402,12.980 4.332,12.979 4.000 C 12.978 3.567,12.898 3.355,12.678 3.199 C 12.397 2.999,12.415 3.000,8.944 3.005 C 7.160 3.007,5.609 3.025,5.499 3.043 M17.614 13.057 C 17.377 13.131,17.212 13.261,17.109 13.453 C 17.020 13.620,17.020 13.623,17.009 16.096 L 16.998 18.573 16.269 17.852 C 15.856 17.443,15.467 17.094,15.372 17.045 C 15.021 16.868,14.640 16.958,14.299 17.299 C 13.952 17.646,13.863 18.011,14.040 18.363 C 14.099 18.480,14.635 19.051,15.635 20.062 C 16.463 20.899,17.174 21.634,17.216 21.697 C 17.318 21.850,17.762 22.049,18.000 22.049 C 18.238 22.049,18.682 21.850,18.784 21.697 C 18.826 21.634,19.537 20.899,20.365 20.062 C 21.365 19.051,21.901 18.480,21.960 18.363 C 22.137 18.011,22.048 17.646,21.701 17.299 C 21.360 16.958,20.979 16.868,20.628 17.045 C 20.533 17.094,20.144 17.443,19.731 17.852 L 19.003 18.572 18.991 16.096 C 18.980 13.623,18.980 13.620,18.891 13.453 C 18.842 13.362,18.746 13.247,18.678 13.199 C 18.414 13.010,17.957 12.950,17.614 13.057 " stroke="none" fill="black" fill-rule="evenodd"></path></svg>