<svg xmlns="http://www.w3.org/2000/svg" width="24" height="24" viewBox="0 0 24 24" fill="none" stroke="currentColor" stroke-width="2" stroke-linecap="round" stroke-linejoin="round" class="icon icon-tabler icons-tabler-outline icon-tabler-brand-netease-music"><path d="M14.394 2.060 C 13.250 2.277,12.464 3.059,12.132 4.308 C 12.040 4.658,12.028 4.775,12.028 5.400 C 12.027 5.979,12.041 6.154,12.109 6.413 C 12.166 6.631,12.177 6.730,12.145 6.739 C 11.398 6.948,10.688 7.290,10.083 7.730 C 9.778 7.953,9.178 8.564,8.951 8.884 C 8.376 9.697,8.056 10.676,8.011 11.763 C 7.927 13.816,9.026 15.353,10.952 15.870 C 11.296 15.962,11.415 15.974,12.000 15.974 C 12.585 15.974,12.704 15.962,13.048 15.870 C 14.629 15.445,15.668 14.322,15.939 12.745 C 16.111 11.746,15.900 10.084,15.460 8.961 C 15.408 8.828,15.384 8.720,15.406 8.720 C 15.428 8.720,15.630 8.792,15.855 8.880 C 16.863 9.274,17.799 10.001,18.330 10.802 C 18.791 11.497,18.971 12.107,18.975 12.980 C 18.977 13.573,18.932 13.899,18.777 14.423 C 18.317 15.979,17.006 17.411,15.300 18.223 C 13.166 19.239,10.917 19.251,8.811 18.258 C 8.108 17.927,7.576 17.562,6.981 17.002 C 5.344 15.463,4.705 13.389,5.141 11.032 C 5.633 8.369,7.262 5.991,9.288 4.977 C 10.022 4.610,10.191 4.233,9.909 3.597 C 9.781 3.308,9.637 3.145,9.416 3.038 C 9.150 2.909,8.889 2.946,8.424 3.177 C 5.581 4.588,3.485 7.811,3.062 11.420 C 2.794 13.707,3.412 15.884,4.828 17.640 C 5.161 18.053,5.903 18.762,6.360 19.106 C 7.574 20.017,8.952 20.602,10.547 20.886 C 11.220 21.005,12.611 21.016,13.300 20.907 C 16.048 20.473,18.416 19.016,19.811 16.900 C 20.980 15.127,21.307 12.944,20.682 11.081 C 20.076 9.272,18.469 7.721,16.400 6.948 C 15.769 6.713,14.900 6.520,14.467 6.520 C 14.256 6.520,14.233 6.496,14.122 6.167 C 13.885 5.462,14.032 4.473,14.418 4.179 C 14.722 3.947,15.287 3.954,15.777 4.196 C 15.978 4.294,16.050 4.358,16.172 4.548 C 16.425 4.938,16.725 5.085,17.094 4.998 C 17.383 4.930,17.639 4.793,17.813 4.613 C 18.088 4.331,18.102 3.988,17.860 3.494 C 17.552 2.866,16.826 2.358,15.896 2.119 C 15.476 2.010,14.795 1.984,14.394 2.060 M13.335 9.116 C 13.728 9.923,13.887 10.515,13.966 11.467 C 14.002 11.901,14.002 12.111,13.966 12.365 C 13.862 13.103,13.437 13.629,12.737 13.887 C 12.394 14.012,11.606 14.012,11.263 13.887 C 10.373 13.560,9.941 12.813,10.016 11.734 C 10.076 10.867,10.377 10.186,10.947 9.628 C 11.379 9.206,11.794 8.961,12.452 8.739 C 13.082 8.527,13.039 8.508,13.335 9.116 " stroke="none" fill="black" fill-rule="evenodd"></path></svg>