<svg xmlns="http://www.w3.org/2000/svg" width="24" height="24" viewBox="0 0 24 24" fill="none" stroke="currentColor" stroke-width="2" stroke-linecap="round" stroke-linejoin="round" class="icon icon-tabler icons-tabler-outline icon-tabler-droplet-x"><path d="M11.491 2.060 C 10.998 2.168,10.492 2.465,10.176 2.833 C 10.103 2.920,8.915 4.662,7.537 6.705 C 5.491 9.740,4.986 10.515,4.779 10.940 C 4.004 12.530,3.807 14.240,4.202 15.952 C 4.858 18.799,7.181 21.093,10.102 21.780 C 10.984 21.987,12.106 22.053,12.950 21.946 C 13.639 21.859,13.884 21.742,14.052 21.420 C 14.231 21.076,14.107 20.377,13.821 20.127 C 13.608 19.939,13.445 19.904,12.983 19.944 C 12.249 20.009,11.269 19.983,10.820 19.887 C 9.017 19.501,7.539 18.444,6.713 16.950 C 5.819 15.335,5.778 13.395,6.604 11.753 C 6.828 11.307,11.656 4.155,11.790 4.070 C 11.850 4.032,11.945 4.000,12.000 4.000 C 12.055 4.000,12.150 4.032,12.211 4.070 C 12.328 4.144,17.048 11.113,17.324 11.621 C 17.635 12.191,17.806 12.720,17.972 13.624 C 18.079 14.209,18.344 14.458,18.860 14.459 C 19.252 14.460,19.499 14.379,19.703 14.183 C 19.918 13.976,19.978 13.769,19.944 13.360 C 19.884 12.641,19.594 11.677,19.202 10.900 C 18.852 10.205,14.023 3.020,13.673 2.673 C 13.139 2.144,12.253 1.895,11.491 2.060 M16.626 16.045 C 16.257 16.239,15.951 16.673,15.951 17.000 C 15.951 17.323,16.068 17.478,17.103 18.520 L 18.077 19.500 17.103 20.480 C 16.068 21.522,15.951 21.677,15.951 22.000 C 15.951 22.477,16.523 23.049,17.000 23.049 C 17.323 23.049,17.478 22.932,18.520 21.897 L 19.500 20.923 20.480 21.897 C 21.522 22.932,21.677 23.049,22.000 23.049 C 22.477 23.049,23.049 22.477,23.049 22.000 C 23.049 21.677,22.932 21.522,21.897 20.480 L 20.923 19.500 21.897 18.520 C 22.518 17.895,22.903 17.476,22.960 17.363 C 23.137 17.011,23.048 16.646,22.701 16.299 C 22.360 15.958,21.979 15.868,21.628 16.045 C 21.527 16.096,21.072 16.515,20.480 17.103 L 19.500 18.077 18.520 17.103 C 17.927 16.514,17.474 16.096,17.372 16.045 C 17.152 15.934,16.835 15.934,16.626 16.045 " stroke="none" fill="black" fill-rule="evenodd"></path></svg>