<svg xmlns="http://www.w3.org/2000/svg" width="24" height="24" viewBox="0 0 24 24" fill="none" stroke="currentColor" stroke-width="2" stroke-linecap="round" stroke-linejoin="round" class="icon icon-tabler icons-tabler-outline icon-tabler-chess"><path d="M11.358 2.061 C 10.230 2.237,9.143 2.974,8.569 3.953 C 7.937 5.031,7.836 6.260,8.274 7.548 L 8.428 8.000 8.121 8.000 C 7.595 8.000,7.274 8.144,7.109 8.453 C 7.035 8.592,7.020 8.684,7.020 9.000 C 7.020 9.331,7.033 9.403,7.120 9.558 C 7.230 9.755,7.414 9.898,7.635 9.959 C 7.715 9.981,8.109 10.000,8.510 10.000 C 8.912 10.000,9.241 10.014,9.242 10.030 C 9.243 10.046,8.995 11.223,8.692 12.644 L 8.141 15.228 7.260 15.519 C 6.132 15.893,5.928 15.991,5.597 16.319 C 5.320 16.594,5.157 16.875,5.058 17.245 C 4.976 17.555,4.977 19.174,5.060 19.492 C 5.153 19.852,5.310 20.118,5.596 20.404 C 5.882 20.690,6.148 20.847,6.508 20.940 C 6.852 21.030,17.148 21.030,17.492 20.940 C 17.852 20.847,18.118 20.690,18.404 20.404 C 18.914 19.895,19.000 19.596,19.000 18.354 C 18.999 17.384,18.974 17.210,18.773 16.805 C 18.617 16.491,18.205 16.089,17.880 15.935 C 17.737 15.867,17.223 15.679,16.738 15.519 L 15.856 15.227 15.306 12.643 C 15.004 11.222,14.758 10.046,14.758 10.030 C 14.759 10.014,15.088 10.000,15.490 10.000 C 15.892 10.000,16.285 9.981,16.365 9.959 C 16.586 9.898,16.770 9.755,16.880 9.558 C 16.967 9.402,16.980 9.332,16.979 9.000 C 16.978 8.687,16.962 8.591,16.890 8.453 C 16.727 8.144,16.405 8.000,15.879 8.000 L 15.572 8.000 15.726 7.548 C 16.090 6.479,16.083 5.451,15.705 4.516 C 15.172 3.197,14.001 2.269,12.605 2.058 C 12.144 1.989,11.816 1.990,11.358 2.061 M12.523 4.073 C 13.238 4.260,13.833 4.908,13.962 5.640 C 14.014 5.930,13.988 6.351,13.898 6.707 C 13.820 7.018,13.521 7.619,13.340 7.830 L 13.194 8.000 12.000 8.000 L 10.806 8.000 10.660 7.830 C 10.478 7.618,10.181 7.019,10.099 6.700 C 10.065 6.568,10.027 6.323,10.013 6.156 C 9.904 4.784,11.182 3.723,12.523 4.073 M13.226 12.500 C 13.518 13.864,13.758 14.985,13.759 14.990 C 13.759 14.995,12.967 15.000,11.997 15.000 C 10.338 15.000,10.236 14.996,10.255 14.930 C 10.266 14.892,10.502 13.789,10.779 12.480 C 11.056 11.171,11.291 10.077,11.301 10.049 C 11.314 10.010,11.477 10.001,12.006 10.009 L 12.693 10.020 13.226 12.500 M15.910 17.363 L 17.000 17.727 17.000 18.363 L 17.000 19.000 12.000 19.000 L 7.000 19.000 7.000 18.363 L 7.000 17.727 8.070 17.366 L 9.140 17.006 11.980 17.003 L 14.820 17.000 15.910 17.363 " stroke="none" fill="black" fill-rule="evenodd"></path></svg>