<svg xmlns="http://www.w3.org/2000/svg" width="24" height="24" viewBox="0 0 24 24" fill="none" stroke="currentColor" stroke-width="2" stroke-linecap="round" stroke-linejoin="round" class="icon icon-tabler icons-tabler-outline icon-tabler-cooker"><path d="M6.499 2.043 C 5.379 2.233,4.461 3.048,4.114 4.160 L 4.020 4.460 4.020 12.000 L 4.020 19.540 4.114 19.840 C 4.422 20.827,5.173 21.578,6.160 21.886 L 6.460 21.980 12.000 21.980 L 17.540 21.980 17.840 21.886 C 18.827 21.578,19.578 20.827,19.886 19.840 L 19.980 19.540 19.980 12.000 L 19.980 4.460 19.886 4.160 C 19.581 3.182,18.832 2.428,17.861 2.121 L 17.540 2.020 12.120 2.014 C 9.139 2.011,6.609 2.024,6.499 2.043 M17.310 4.061 C 17.452 4.103,17.571 4.178,17.697 4.303 C 18.007 4.614,18.000 4.538,18.000 7.447 L 18.000 10.000 12.000 10.000 L 6.000 10.000 6.000 7.447 C 6.000 4.538,5.993 4.614,6.304 4.303 C 6.621 3.985,6.234 4.006,11.983 4.003 C 16.458 4.000,17.131 4.008,17.310 4.061 M8.614 6.055 C 8.220 6.184,8.039 6.437,8.009 6.900 C 7.978 7.381,8.119 7.699,8.442 7.880 C 8.597 7.967,8.669 7.980,9.000 7.980 C 9.312 7.980,9.408 7.964,9.540 7.894 C 9.866 7.718,10.000 7.459,10.000 7.000 C 10.000 6.357,9.713 6.048,9.083 6.016 C 8.893 6.006,8.718 6.021,8.614 6.055 M11.614 6.055 C 11.220 6.184,11.039 6.437,11.009 6.900 C 10.978 7.381,11.119 7.699,11.442 7.880 C 11.597 7.967,11.669 7.980,12.000 7.980 C 12.312 7.980,12.408 7.964,12.540 7.894 C 12.866 7.718,13.000 7.459,13.000 7.000 C 13.000 6.357,12.713 6.048,12.083 6.016 C 11.893 6.006,11.718 6.021,11.614 6.055 M14.614 6.055 C 14.220 6.184,14.039 6.437,14.009 6.900 C 13.978 7.381,14.119 7.699,14.442 7.880 C 14.597 7.967,14.669 7.980,15.000 7.980 C 15.312 7.980,15.408 7.964,15.540 7.894 C 15.866 7.718,16.000 7.459,16.000 7.000 C 16.000 6.357,15.713 6.048,15.083 6.016 C 14.893 6.006,14.718 6.021,14.614 6.055 M18.000 15.554 C 18.000 19.410,18.005 19.322,17.779 19.618 C 17.718 19.698,17.585 19.813,17.484 19.872 L 17.300 19.980 12.000 19.980 L 6.700 19.980 6.516 19.872 C 6.415 19.813,6.284 19.700,6.225 19.623 C 5.992 19.317,6.000 19.464,6.000 15.575 L 6.000 12.000 12.000 12.000 L 18.000 12.000 18.000 15.554 M8.614 14.057 C 8.377 14.131,8.212 14.261,8.109 14.453 C 8.035 14.592,8.020 14.684,8.020 15.000 C 8.020 15.331,8.033 15.403,8.120 15.558 C 8.230 15.755,8.414 15.898,8.635 15.959 C 8.832 16.014,15.168 16.014,15.365 15.959 C 15.586 15.898,15.770 15.755,15.880 15.558 C 15.967 15.402,15.980 15.332,15.979 15.000 C 15.978 14.567,15.898 14.355,15.678 14.199 C 15.398 13.999,15.411 14.000,11.984 14.003 C 9.472 14.005,8.744 14.017,8.614 14.057 " stroke="none" fill="black" fill-rule="evenodd"></path></svg>