<svg xmlns="http://www.w3.org/2000/svg" width="24" height="24" viewBox="0 0 24 24" fill="none" stroke="currentColor" stroke-width="2" stroke-linecap="round" stroke-linejoin="round" class="icon icon-tabler icons-tabler-outline icon-tabler-photo-video"><path d="M5.358 2.061 C 3.731 2.315,2.417 3.584,2.083 5.227 C 2.003 5.615,2.000 5.760,1.999 8.666 C 1.999 10.335,1.983 11.766,1.964 11.847 C 1.917 12.048,2.120 13.067,2.287 13.475 C 2.715 14.516,3.488 15.291,4.512 15.704 C 5.139 15.957,5.476 16.000,6.816 16.000 L 8.000 16.000 8.000 17.184 C 8.000 18.222,8.010 18.417,8.083 18.773 C 8.311 19.892,8.985 20.851,9.956 21.436 C 10.285 21.635,10.810 21.832,11.243 21.921 C 11.613 21.996,11.798 22.000,15.000 22.000 C 18.202 22.000,18.387 21.996,18.757 21.921 C 20.117 21.643,21.193 20.755,21.704 19.488 C 21.779 19.300,21.877 18.972,21.921 18.757 C 21.996 18.387,22.000 18.202,22.000 15.000 C 22.000 11.798,21.996 11.613,21.921 11.243 C 21.628 9.806,20.637 8.680,19.245 8.204 C 18.784 8.046,18.304 8.000,17.110 8.000 L 16.000 8.000 16.000 6.816 C 16.000 5.478,15.956 5.138,15.705 4.516 C 15.172 3.197,14.001 2.269,12.605 2.058 C 12.068 1.978,5.880 1.980,5.358 2.061 M12.523 4.073 C 13.022 4.203,13.516 4.599,13.772 5.071 C 13.964 5.426,13.999 5.705,13.999 6.910 L 14.000 8.000 12.890 8.000 C 11.368 8.001,10.942 8.070,10.200 8.441 C 10.035 8.524,9.786 8.675,9.647 8.778 C 9.479 8.902,9.378 8.952,9.347 8.928 C 9.321 8.908,9.201 8.813,9.080 8.716 C 8.780 8.476,8.368 8.266,7.939 8.136 C 7.619 8.038,7.517 8.026,7.000 8.026 C 6.483 8.026,6.381 8.038,6.060 8.136 C 5.659 8.257,5.193 8.493,4.920 8.712 C 4.821 8.791,4.574 9.018,4.370 9.215 L 4.000 9.575 4.000 7.685 C 4.000 5.569,4.013 5.433,4.265 5.014 C 4.546 4.543,4.988 4.201,5.477 4.073 C 5.715 4.011,6.047 4.005,9.000 4.005 C 11.953 4.005,12.285 4.011,12.523 4.073 M6.614 5.057 C 6.221 5.180,6.039 5.435,6.009 5.906 C 5.962 6.621,6.306 7.000,7.000 7.000 C 7.698 7.000,8.043 6.616,7.989 5.900 C 7.963 5.563,7.859 5.327,7.678 5.199 C 7.414 5.010,6.957 4.950,6.614 5.057 M7.582 10.136 C 7.702 10.191,7.896 10.326,8.013 10.437 L 8.225 10.638 8.125 11.009 C 8.030 11.362,8.024 11.443,8.010 12.690 L 7.994 14.000 6.865 14.000 C 5.653 14.000,5.470 13.978,5.088 13.784 C 4.661 13.568,4.223 13.048,4.094 12.607 L 4.031 12.389 5.066 11.352 C 5.635 10.782,6.180 10.267,6.277 10.209 C 6.670 9.976,7.171 9.948,7.582 10.136 M18.523 10.073 C 19.212 10.253,19.795 10.860,19.941 11.549 C 20.026 11.950,20.026 18.050,19.941 18.451 C 19.863 18.821,19.710 19.091,19.400 19.404 C 19.119 19.690,18.854 19.846,18.492 19.940 C 18.150 20.029,11.850 20.029,11.508 19.940 C 10.823 19.762,10.249 19.194,10.073 18.523 C 10.011 18.285,10.004 17.950,10.002 15.028 C 10.000 11.431,9.998 11.459,10.265 11.014 C 10.546 10.543,10.988 10.201,11.477 10.073 C 11.715 10.011,12.047 10.005,15.000 10.005 C 17.953 10.005,18.285 10.011,18.523 10.073 M13.780 12.478 C 13.477 12.551,13.243 12.768,13.081 13.126 C 13.006 13.290,13.002 13.394,13.001 15.003 C 13.000 16.901,13.011 17.001,13.249 17.226 C 13.428 17.396,13.528 17.442,13.806 17.481 C 13.967 17.504,14.104 17.499,14.232 17.466 C 14.494 17.397,17.092 15.836,17.303 15.620 C 17.647 15.267,17.621 14.781,17.235 14.340 C 17.116 14.205,14.609 12.665,14.311 12.543 C 14.128 12.469,13.921 12.443,13.780 12.478 " stroke="none" fill="black" fill-rule="evenodd"></path></svg>