<svg xmlns="http://www.w3.org/2000/svg" width="24" height="24" viewBox="0 0 24 24" fill="none" stroke="currentColor" stroke-width="2" stroke-linecap="round" stroke-linejoin="round" class="icon icon-tabler icons-tabler-outline icon-tabler-basket-share"><path d="M8.780 2.989 C 8.562 3.028,8.511 3.050,8.378 3.167 C 8.299 3.236,8.193 3.375,8.143 3.476 C 8.092 3.577,7.802 4.410,7.497 5.327 L 6.943 6.994 5.721 7.010 C 4.375 7.027,4.276 7.042,3.730 7.299 C 3.346 7.480,3.148 7.620,2.862 7.915 C 2.529 8.256,2.314 8.609,2.159 9.067 C 2.037 9.427,2.026 9.501,2.024 9.960 C 2.023 10.432,2.059 10.664,2.673 14.140 C 3.329 17.851,3.379 18.106,3.548 18.538 C 3.919 19.493,4.860 20.394,5.866 20.758 C 6.522 20.995,6.603 21.000,9.798 21.000 C 13.015 21.000,12.986 21.002,13.229 20.751 C 13.417 20.557,13.486 20.355,13.486 20.000 C 13.486 19.656,13.418 19.445,13.248 19.267 C 13.003 19.010,13.159 19.022,9.840 18.999 L 6.820 18.978 6.565 18.884 C 5.980 18.667,5.482 18.122,5.322 17.526 C 5.261 17.298,4.000 10.084,4.000 9.962 C 4.000 9.759,4.126 9.481,4.300 9.302 C 4.551 9.044,4.736 9.000,5.585 9.000 L 6.275 9.000 6.159 9.344 C 5.986 9.855,5.944 10.110,5.998 10.313 C 6.089 10.649,6.427 10.906,6.903 11.000 C 7.205 11.059,7.422 11.008,7.623 10.832 C 7.814 10.664,7.893 10.498,8.160 9.700 L 8.387 9.020 12.000 9.020 L 15.613 9.020 15.840 9.700 C 16.107 10.498,16.186 10.664,16.377 10.832 C 16.571 11.002,16.799 11.059,17.067 11.005 C 17.569 10.905,17.911 10.652,18.002 10.314 C 18.057 10.110,18.015 9.856,17.840 9.341 L 17.723 8.994 18.492 9.007 C 19.203 9.019,19.274 9.027,19.451 9.114 C 19.698 9.236,19.901 9.500,19.964 9.782 C 20.009 9.985,19.996 10.092,19.763 11.421 C 19.455 13.181,19.452 13.206,19.547 13.458 C 19.685 13.825,20.049 14.019,20.607 14.019 C 20.883 14.020,20.930 14.008,21.084 13.900 C 21.378 13.693,21.420 13.562,21.712 11.952 C 21.946 10.656,21.974 10.444,21.975 9.980 C 21.976 9.494,21.967 9.435,21.842 9.067 C 21.685 8.608,21.470 8.256,21.138 7.915 C 20.852 7.620,20.654 7.480,20.270 7.299 C 19.724 7.042,19.625 7.027,18.279 7.010 L 17.057 6.994 16.503 5.327 C 16.198 4.410,15.914 3.588,15.870 3.500 C 15.693 3.141,15.465 2.990,15.103 2.992 C 14.591 2.995,14.102 3.300,14.000 3.679 C 13.932 3.933,13.975 4.106,14.480 5.621 C 14.722 6.346,14.920 6.952,14.920 6.969 C 14.920 6.986,13.606 7.000,12.000 7.000 C 10.394 7.000,9.080 6.986,9.080 6.969 C 9.080 6.952,9.278 6.346,9.520 5.621 C 9.761 4.897,9.979 4.203,10.003 4.080 C 10.065 3.768,10.001 3.550,9.786 3.337 C 9.558 3.110,9.062 2.939,8.780 2.989 M11.499 11.040 C 10.363 11.246,9.460 12.049,9.114 13.160 C 8.979 13.594,8.979 14.406,9.114 14.840 C 9.238 15.239,9.437 15.609,9.679 15.891 C 10.267 16.578,10.961 16.937,11.800 16.987 C 12.387 17.022,12.687 16.903,12.880 16.558 C 12.967 16.402,12.980 16.332,12.979 16.000 C 12.978 15.687,12.962 15.591,12.890 15.453 C 12.737 15.164,12.521 15.052,12.007 14.999 C 11.626 14.959,11.398 14.849,11.225 14.623 C 10.906 14.204,10.938 13.669,11.303 13.303 C 11.486 13.120,11.763 13.000,12.000 13.000 C 12.223 13.000,12.510 13.120,12.679 13.283 C 12.892 13.491,12.958 13.650,13.001 14.067 C 13.068 14.718,13.370 15.000,14.000 15.000 C 14.428 15.000,14.713 14.856,14.880 14.558 C 14.971 14.396,14.980 14.338,14.979 13.920 C 14.978 13.555,14.959 13.398,14.885 13.160 C 14.583 12.182,13.811 11.407,12.861 11.129 C 12.500 11.023,11.832 10.980,11.499 11.040 M18.460 15.999 C 15.916 16.022,15.992 16.015,15.752 16.267 C 15.584 16.443,15.513 16.658,15.512 16.997 C 15.510 17.348,15.582 17.556,15.771 17.751 C 15.988 17.976,16.151 18.000,17.436 18.000 L 18.578 18.000 16.853 19.730 C 15.679 20.908,15.100 21.517,15.040 21.637 C 14.863 21.989,14.952 22.354,15.299 22.701 C 15.646 23.048,16.011 23.137,16.363 22.960 C 16.483 22.900,17.092 22.321,18.270 21.147 L 20.000 19.422 20.000 20.564 C 20.000 21.849,20.024 22.012,20.249 22.229 C 20.442 22.416,20.647 22.487,20.997 22.488 C 21.336 22.490,21.552 22.419,21.735 22.248 C 21.985 22.013,21.977 22.088,22.007 19.460 C 22.022 18.140,22.036 17.001,22.037 16.929 C 22.041 16.740,21.834 16.310,21.690 16.207 C 21.467 16.048,21.205 15.959,20.987 15.969 C 20.873 15.974,19.736 15.987,18.460 15.999 " stroke="none" fill="black" fill-rule="evenodd"></path></svg>