<svg xmlns="http://www.w3.org/2000/svg" width="24" height="24" viewBox="0 0 24 24" fill="none" stroke="currentColor" stroke-width="2" stroke-linecap="round" stroke-linejoin="round" class="icon icon-tabler icons-tabler-outline icon-tabler-temperature-snow"><path d="M5.499 2.040 C 4.374 2.244,3.488 3.024,3.114 4.140 L 3.020 4.420 3.009 8.700 L 2.998 12.980 2.861 13.074 C 2.655 13.215,2.079 13.827,1.889 14.106 C 0.930 15.519,0.741 17.283,1.379 18.865 C 1.651 19.541,1.988 20.029,2.554 20.567 C 3.143 21.129,3.767 21.503,4.500 21.734 C 5.061 21.911,5.267 21.939,6.000 21.939 C 6.733 21.939,6.939 21.911,7.500 21.734 C 8.251 21.497,8.867 21.123,9.488 20.526 C 11.231 18.853,11.492 16.141,10.106 14.100 C 9.921 13.826,9.343 13.213,9.139 13.074 L 9.002 12.980 8.991 8.700 L 8.980 4.420 8.886 4.140 C 8.555 3.154,7.800 2.403,6.861 2.129 C 6.500 2.023,5.832 1.980,5.499 2.040 M14.540 3.016 C 14.180 3.130,13.921 3.323,13.793 3.573 C 13.726 3.705,13.714 3.784,13.731 3.992 C 13.749 4.216,13.804 4.354,14.176 5.107 C 14.409 5.580,14.600 5.984,14.600 6.006 C 14.600 6.028,14.337 6.485,14.016 7.020 L 13.433 7.994 12.523 8.007 L 11.613 8.020 11.417 8.142 C 11.151 8.306,11.033 8.525,11.009 8.896 C 10.978 9.381,11.118 9.699,11.442 9.880 C 11.615 9.977,11.645 9.980,12.546 9.993 L 13.471 10.006 14.136 11.003 L 14.800 12.000 14.134 13.000 L 13.467 14.000 13.140 14.000 C 12.386 14.000,12.050 14.267,12.009 14.900 C 11.978 15.381,12.119 15.700,12.442 15.879 C 12.591 15.962,12.687 15.981,13.027 15.993 L 13.434 16.009 14.017 16.981 C 14.338 17.516,14.600 17.972,14.600 17.994 C 14.600 18.016,14.409 18.421,14.175 18.895 C 13.784 19.686,13.748 19.778,13.733 20.028 C 13.719 20.258,13.730 20.324,13.808 20.458 C 13.925 20.659,14.175 20.850,14.460 20.957 C 15.010 21.162,15.360 20.991,15.700 20.348 L 15.857 20.051 16.031 20.335 C 16.367 20.882,16.621 21.064,17.001 21.029 C 17.272 21.005,17.506 20.892,17.750 20.667 C 18.143 20.306,18.141 19.954,17.741 19.295 L 17.562 19.000 17.891 19.000 C 18.433 18.999,18.700 18.880,18.880 18.558 C 18.967 18.402,18.980 18.332,18.979 18.000 C 18.978 17.567,18.898 17.355,18.678 17.199 C 18.437 17.027,18.245 17.000,17.276 17.000 L 16.365 17.000 15.803 16.065 C 15.494 15.550,15.231 15.102,15.218 15.069 C 15.203 15.031,15.448 14.627,15.864 14.003 L 16.534 12.999 17.495 13.009 L 18.455 13.020 18.970 13.840 C 19.254 14.291,19.534 14.711,19.593 14.774 C 19.856 15.052,20.221 15.113,20.591 14.941 C 21.356 14.585,21.481 14.092,21.003 13.320 L 20.804 13.000 21.512 13.000 C 21.901 13.000,22.285 12.981,22.365 12.959 C 22.586 12.898,22.770 12.755,22.880 12.558 C 22.967 12.402,22.980 12.332,22.979 12.000 C 22.978 11.687,22.962 11.591,22.890 11.453 C 22.696 11.086,22.432 11.000,21.496 11.000 L 20.804 11.000 21.003 10.680 C 21.411 10.021,21.378 9.569,20.896 9.237 C 20.487 8.956,20.167 8.894,19.860 9.036 C 19.627 9.144,19.539 9.254,18.970 10.160 L 18.455 10.980 17.495 10.991 L 16.534 11.001 15.864 9.997 C 15.448 9.373,15.203 8.969,15.218 8.931 C 15.231 8.898,15.494 8.450,15.803 7.935 L 16.365 7.000 17.292 7.000 C 17.803 7.000,18.285 6.981,18.365 6.959 C 18.586 6.898,18.770 6.755,18.880 6.558 C 18.967 6.402,18.980 6.332,18.979 6.000 C 18.978 5.687,18.962 5.591,18.890 5.453 C 18.726 5.143,18.405 5.000,17.875 5.000 L 17.562 5.000 17.741 4.705 C 18.036 4.218,18.105 3.914,17.986 3.628 C 17.907 3.439,17.552 3.138,17.297 3.042 C 16.766 2.843,16.436 3.006,16.031 3.665 L 15.857 3.949 15.700 3.652 C 15.376 3.040,15.043 2.857,14.540 3.016 M6.310 4.061 C 6.452 4.103,6.571 4.178,6.697 4.303 C 6.993 4.599,7.000 4.650,7.000 6.447 L 7.000 8.000 6.000 8.000 L 5.000 8.000 5.000 6.447 C 5.000 4.649,5.007 4.599,5.304 4.303 C 5.583 4.024,5.916 3.944,6.310 4.061 M7.000 11.830 C 7.000 12.897,7.016 13.717,7.039 13.796 C 7.104 14.022,7.247 14.195,7.520 14.376 C 7.871 14.609,8.085 14.793,8.304 15.047 C 8.512 15.289,8.846 15.952,8.926 16.280 C 9.004 16.599,8.992 17.397,8.905 17.720 C 8.631 18.730,7.852 19.533,6.840 19.847 C 6.588 19.925,6.453 19.940,6.000 19.940 C 5.547 19.940,5.412 19.925,5.160 19.847 C 4.148 19.533,3.370 18.732,3.095 17.720 C 3.010 17.408,2.997 16.556,3.073 16.280 C 3.300 15.456,3.872 14.683,4.440 14.434 C 4.663 14.336,4.822 14.189,4.931 13.980 C 5.013 13.823,5.014 13.780,5.004 11.910 L 4.993 10.000 5.996 10.000 L 7.000 10.000 7.000 11.830 " stroke="none" fill="black" fill-rule="evenodd"></path></svg>