<svg xmlns="http://www.w3.org/2000/svg" width="24" height="24" viewBox="0 0 24 24" fill="none" stroke="currentColor" stroke-width="2" stroke-linecap="round" stroke-linejoin="round" class="icon icon-tabler icons-tabler-outline icon-tabler-clubs"><path d="M11.340 2.046 C 9.761 2.247,8.304 3.276,7.568 4.709 C 7.145 5.531,6.972 6.306,7.015 7.176 C 7.030 7.464,7.052 7.768,7.065 7.850 L 7.089 8.000 6.913 8.000 C 6.051 8.000,4.977 8.346,4.176 8.880 C 3.785 9.142,3.124 9.803,2.868 10.189 C 2.320 11.014,2.056 11.829,2.014 12.820 C 1.969 13.885,2.285 14.966,2.901 15.860 C 3.159 16.235,3.789 16.857,4.166 17.111 C 5.066 17.717,5.923 17.980,7.000 17.980 C 7.649 17.980,8.045 17.921,8.531 17.753 C 8.660 17.708,8.772 17.679,8.780 17.687 C 8.788 17.695,8.614 18.421,8.394 19.301 C 8.044 20.697,7.995 20.931,8.011 21.147 C 8.043 21.567,8.266 21.857,8.635 21.959 C 8.727 21.985,9.954 22.000,11.964 22.000 C 15.022 22.000,15.156 21.997,15.375 21.922 C 15.649 21.827,15.790 21.724,15.910 21.527 C 16.073 21.260,16.042 21.035,15.601 19.281 C 15.383 18.412,15.212 17.695,15.220 17.687 C 15.228 17.679,15.340 17.708,15.469 17.753 C 15.955 17.921,16.351 17.980,17.000 17.980 C 17.664 17.980,17.984 17.931,18.580 17.737 C 19.768 17.351,20.847 16.432,21.431 15.308 C 22.280 13.673,22.161 11.735,21.116 10.171 C 20.851 9.774,20.232 9.157,19.822 8.881 C 19.034 8.350,17.947 8.000,17.087 8.000 L 16.911 8.000 16.935 7.850 C 16.948 7.768,16.970 7.464,16.985 7.176 C 17.037 6.129,16.752 5.129,16.133 4.185 C 15.886 3.810,15.220 3.146,14.824 2.881 C 13.782 2.183,12.560 1.890,11.340 2.046 M12.743 4.101 C 12.873 4.133,13.150 4.244,13.358 4.346 C 13.670 4.499,13.796 4.591,14.082 4.876 C 14.479 5.271,14.674 5.582,14.850 6.098 C 14.961 6.424,14.973 6.510,14.975 6.960 C 14.978 7.677,14.821 8.180,14.400 8.800 C 14.185 9.116,14.120 9.278,14.121 9.489 C 14.122 9.720,14.234 9.950,14.432 10.128 C 14.833 10.490,15.152 10.534,15.690 10.303 C 16.245 10.065,16.632 9.985,17.100 10.013 C 17.600 10.043,17.931 10.126,18.340 10.324 C 18.935 10.612,19.390 11.075,19.700 11.708 C 19.922 12.163,19.979 12.429,19.977 13.000 C 19.975 13.584,19.913 13.863,19.678 14.340 C 19.327 15.055,18.681 15.610,17.900 15.869 C 17.620 15.962,17.513 15.975,17.040 15.977 C 16.594 15.979,16.446 15.964,16.188 15.889 C 15.630 15.728,15.201 15.460,14.792 15.016 C 14.307 14.490,13.781 14.466,13.298 14.949 C 13.032 15.215,13.000 15.359,13.000 16.308 L 13.000 17.122 13.342 18.491 C 13.530 19.244,13.693 19.892,13.704 19.930 C 13.724 19.996,13.625 20.000,12.000 20.000 C 10.375 20.000,10.276 19.996,10.296 19.930 C 10.307 19.892,10.472 19.239,10.661 18.480 L 11.006 17.100 10.993 16.177 L 10.980 15.253 10.860 15.059 C 10.687 14.780,10.452 14.666,10.047 14.665 C 9.675 14.663,9.507 14.734,9.220 15.014 C 8.706 15.517,8.364 15.730,7.812 15.889 C 7.554 15.964,7.406 15.979,6.960 15.977 C 6.487 15.975,6.380 15.962,6.099 15.869 C 5.124 15.546,4.362 14.744,4.095 13.760 C 3.998 13.402,3.995 12.594,4.090 12.248 C 4.248 11.673,4.659 11.030,5.095 10.677 C 5.387 10.441,5.881 10.192,6.240 10.101 C 6.383 10.065,6.673 10.025,6.884 10.012 C 7.366 9.983,7.743 10.060,8.306 10.304 C 8.773 10.507,9.022 10.532,9.277 10.402 C 9.545 10.265,9.788 9.894,9.827 9.562 C 9.862 9.271,9.817 9.113,9.615 8.819 C 9.177 8.180,9.021 7.684,9.027 6.960 C 9.030 6.517,9.045 6.419,9.151 6.099 C 9.322 5.587,9.519 5.272,9.916 4.879 C 10.384 4.415,10.919 4.139,11.541 4.042 C 11.845 3.994,12.436 4.023,12.743 4.101 " stroke="none" fill="black" fill-rule="evenodd"></path></svg>