<svg xmlns="http://www.w3.org/2000/svg" width="24" height="24" viewBox="0 0 24 24" fill="none" stroke="currentColor" stroke-width="2" stroke-linecap="round" stroke-linejoin="round" class="icon icon-tabler icons-tabler-outline icon-tabler-bolt-off"><path d="M2.626 2.045 C 2.420 2.154,2.146 2.433,2.038 2.644 C 1.924 2.868,1.924 3.132,2.040 3.363 C 2.102 3.487,2.930 4.344,4.802 6.220 L 7.475 8.900 5.779 11.232 C 4.586 12.870,4.069 13.613,4.037 13.732 C 4.012 13.824,4.000 14.011,4.011 14.147 C 4.044 14.567,4.267 14.857,4.635 14.959 C 4.725 14.984,5.765 15.000,7.390 15.000 L 10.000 15.000 10.000 18.102 L 10.000 21.205 10.102 21.421 C 10.218 21.666,10.373 21.812,10.660 21.946 C 11.029 22.118,11.389 22.049,11.665 21.754 C 11.733 21.680,12.542 20.585,13.461 19.320 C 14.381 18.055,15.178 16.960,15.233 16.887 L 15.333 16.755 17.897 19.313 C 19.688 21.102,20.513 21.898,20.637 21.960 C 20.990 22.137,21.354 22.048,21.701 21.701 C 22.047 21.355,22.136 20.990,21.961 20.637 C 21.839 20.392,3.616 2.165,3.372 2.044 C 3.152 1.934,2.834 1.935,2.626 2.045 M12.558 2.074 C 12.460 2.137,12.342 2.232,12.295 2.284 C 12.076 2.529,9.579 6.001,9.508 6.160 C 9.345 6.520,9.440 6.895,9.769 7.180 C 10.123 7.489,10.503 7.590,10.816 7.459 C 11.019 7.374,11.203 7.178,11.620 6.599 L 11.980 6.100 12.000 7.740 C 12.018 9.243,12.026 9.392,12.095 9.520 C 12.247 9.805,12.462 9.947,12.798 9.987 L 12.990 10.010 13.013 10.208 C 13.058 10.583,13.290 10.863,13.635 10.959 C 13.721 10.983,14.441 11.000,15.409 11.000 L 17.038 11.000 16.535 11.690 C 15.908 12.550,15.865 12.630,15.862 12.946 C 15.860 13.158,15.877 13.217,15.982 13.366 C 16.238 13.732,16.740 13.997,17.061 13.937 C 17.398 13.874,17.514 13.744,18.746 12.049 C 19.554 10.938,19.932 10.386,19.963 10.269 C 20.024 10.047,19.984 9.644,19.883 9.445 C 19.838 9.358,19.746 9.247,19.678 9.199 C 19.403 9.003,19.363 9.000,16.594 9.000 L 14.000 9.000 14.000 5.927 C 14.000 2.478,14.011 2.611,13.711 2.311 C 13.359 1.959,12.887 1.863,12.558 2.074 M11.415 12.835 C 13.293 14.713,13.881 15.324,13.855 15.368 C 13.836 15.400,13.415 15.983,12.920 16.663 L 12.020 17.899 12.000 15.759 C 11.980 13.643,11.979 13.618,11.891 13.453 C 11.842 13.362,11.746 13.247,11.678 13.199 C 11.408 13.006,11.327 13.000,9.075 13.000 L 6.962 13.000 7.924 11.680 C 8.453 10.954,8.899 10.360,8.913 10.360 C 8.928 10.360,10.054 11.474,11.415 12.835 " stroke="none" fill="black" fill-rule="evenodd"></path></svg>