<svg xmlns="http://www.w3.org/2000/svg" width="24" height="24" viewBox="0 0 24 24" fill="none" stroke="currentColor" stroke-width="2" stroke-linecap="round" stroke-linejoin="round" class="icon icon-tabler icons-tabler-outline icon-tabler-math-lower"><path d="M18.820 5.020 C 18.624 5.073,4.988 10.899,4.567 11.110 C 4.325 11.231,4.182 11.382,4.076 11.630 C 3.890 12.063,3.951 12.444,4.248 12.697 C 4.371 12.803,6.090 13.556,11.555 15.898 C 15.486 17.582,18.803 18.982,18.927 19.008 C 19.346 19.095,19.663 18.914,19.877 18.466 C 20.115 17.969,20.073 17.577,19.752 17.303 C 19.630 17.198,18.159 16.551,13.596 14.595 C 10.298 13.182,7.600 12.014,7.600 12.000 C 7.600 11.986,10.298 10.818,13.596 9.405 C 18.159 7.449,19.630 6.802,19.752 6.697 C 20.059 6.434,20.112 6.054,19.905 5.587 C 19.782 5.312,19.619 5.125,19.422 5.035 C 19.232 4.949,19.093 4.945,18.820 5.020 " stroke="none" fill="black" fill-rule="evenodd"></path></svg>