<svg xmlns="http://www.w3.org/2000/svg" width="24" height="24" viewBox="0 0 24 24" fill="none" stroke="currentColor" stroke-width="2" stroke-linecap="round" stroke-linejoin="round" class="icon icon-tabler icons-tabler-outline icon-tabler-arrows-diagonal-2"><path d="M3.597 3.050 C 3.507 3.088,3.378 3.159,3.311 3.207 C 3.166 3.310,2.959 3.739,2.963 3.929 C 2.964 4.001,2.977 5.032,2.993 6.220 L 3.020 8.380 3.120 8.558 C 3.287 8.856,3.572 9.000,4.000 9.000 C 4.428 9.000,4.713 8.856,4.880 8.558 C 4.978 8.384,4.980 8.359,4.993 7.404 L 5.006 6.428 7.233 8.650 C 8.777 10.190,9.514 10.899,9.637 10.960 C 9.990 11.137,10.354 11.048,10.701 10.701 C 11.048 10.354,11.137 9.990,10.960 9.637 C 10.899 9.514,10.189 8.776,8.647 7.230 L 6.422 5.000 7.321 5.000 C 7.815 5.000,8.285 4.981,8.365 4.959 C 8.586 4.898,8.770 4.755,8.880 4.558 C 8.967 4.402,8.980 4.332,8.979 4.000 C 8.978 3.685,8.963 3.591,8.888 3.450 C 8.783 3.252,8.574 3.102,8.320 3.043 C 8.211 3.018,7.278 2.997,5.951 2.991 C 3.941 2.981,3.748 2.986,3.597 3.050 M13.626 13.045 C 13.420 13.154,13.146 13.433,13.038 13.644 C 12.924 13.868,12.924 14.132,13.040 14.363 C 13.101 14.486,13.811 15.224,15.353 16.770 L 17.578 19.000 16.696 19.000 C 15.757 19.000,15.561 19.028,15.322 19.199 C 15.139 19.329,15.030 19.573,15.009 19.900 C 14.978 20.381,15.119 20.699,15.442 20.880 L 15.620 20.980 17.780 21.007 C 18.968 21.023,19.999 21.036,20.071 21.037 C 20.224 21.040,20.669 20.847,20.768 20.735 C 20.878 20.611,21.041 20.209,21.038 20.069 C 21.036 19.998,21.023 18.968,21.008 17.780 C 20.980 15.637,20.979 15.619,20.889 15.450 C 20.724 15.140,20.329 14.970,19.874 15.011 C 19.439 15.051,19.141 15.274,19.041 15.635 C 19.019 15.715,19.000 16.185,19.000 16.679 L 19.000 17.578 16.770 15.353 C 15.295 13.881,14.483 13.100,14.372 13.044 C 14.152 12.934,13.835 12.935,13.626 13.045 " stroke="none" fill="black" fill-rule="evenodd"></path></svg>