<svg xmlns="http://www.w3.org/2000/svg" width="24" height="24" viewBox="0 0 24 24" fill="none" stroke="currentColor" stroke-width="2" stroke-linecap="round" stroke-linejoin="round" class="icon icon-tabler icons-tabler-outline icon-tabler-filter-star"><path d="M3.614 3.057 C 3.377 3.131,3.212 3.261,3.109 3.453 C 3.022 3.615,3.020 3.659,3.008 5.058 C 2.998 6.259,3.007 6.550,3.061 6.816 C 3.145 7.230,3.272 7.538,3.496 7.871 C 3.596 8.019,4.650 9.208,5.838 10.513 L 7.999 12.886 8.009 17.093 L 8.020 21.300 8.127 21.504 C 8.328 21.884,8.658 22.076,9.015 22.019 C 9.241 21.984,11.336 21.292,11.564 21.177 C 11.958 20.979,12.124 20.648,12.040 20.223 C 11.961 19.820,11.764 19.508,11.503 19.372 C 11.270 19.250,10.720 19.332,10.050 19.589 C 10.010 19.605,10.000 18.868,10.000 15.954 L 9.999 12.300 9.905 12.100 C 9.837 11.957,9.158 11.182,7.503 9.363 C 6.233 7.968,5.155 6.753,5.107 6.663 C 5.028 6.515,5.019 6.430,5.007 5.750 L 4.994 5.000 12.000 5.000 L 19.006 5.000 18.993 5.730 C 18.982 6.347,18.968 6.482,18.906 6.600 C 18.865 6.677,17.774 7.802,16.480 9.100 C 14.847 10.739,14.101 11.514,14.040 11.637 C 13.863 11.990,13.952 12.354,14.299 12.701 C 14.645 13.047,15.010 13.136,15.363 12.961 C 15.488 12.899,16.260 12.151,17.981 10.426 C 20.510 7.891,20.564 7.831,20.787 7.278 C 20.987 6.783,21.006 6.580,20.992 5.042 C 20.980 3.660,20.977 3.615,20.891 3.453 C 20.785 3.256,20.622 3.131,20.371 3.055 C 20.106 2.976,3.868 2.978,3.614 3.057 M17.372 13.072 C 17.112 13.165,16.870 13.331,16.723 13.517 C 16.661 13.596,16.403 14.074,16.150 14.580 L 15.689 15.501 14.657 15.651 C 13.546 15.812,13.351 15.870,13.063 16.122 C 12.745 16.402,12.575 16.831,12.611 17.267 C 12.646 17.710,12.753 17.864,13.623 18.726 C 14.233 19.330,14.399 19.517,14.384 19.580 C 14.373 19.624,14.289 20.107,14.197 20.653 L 14.030 21.645 14.095 21.913 C 14.262 22.595,14.870 23.044,15.552 22.989 C 15.821 22.968,16.039 22.871,17.330 22.198 L 17.800 21.953 18.270 22.198 C 19.561 22.871,19.779 22.968,20.048 22.989 C 20.724 23.043,21.333 22.598,21.503 21.925 C 21.576 21.635,21.580 21.680,21.357 20.400 L 21.200 19.500 21.979 18.726 C 22.844 17.867,22.944 17.722,22.986 17.276 C 23.027 16.835,22.860 16.406,22.537 16.122 C 22.249 15.870,22.054 15.812,20.943 15.651 L 19.911 15.501 19.434 14.548 C 18.905 13.491,18.773 13.315,18.370 13.130 C 18.069 12.992,17.662 12.969,17.372 13.072 M18.121 16.405 C 18.445 17.059,18.612 17.261,18.907 17.352 C 18.991 17.378,19.336 17.439,19.672 17.487 L 20.285 17.574 19.787 18.077 C 19.512 18.354,19.259 18.638,19.223 18.709 C 19.109 18.939,19.107 19.150,19.216 19.772 C 19.273 20.097,19.320 20.390,19.320 20.423 C 19.320 20.465,19.131 20.386,18.690 20.158 C 18.091 19.848,18.047 19.832,17.800 19.832 C 17.553 19.832,17.509 19.848,16.910 20.158 C 16.417 20.412,16.280 20.468,16.280 20.415 C 16.280 20.378,16.327 20.084,16.384 19.763 C 16.493 19.150,16.492 18.939,16.377 18.709 C 16.341 18.638,16.088 18.354,15.813 18.077 L 15.315 17.574 15.928 17.487 C 16.264 17.439,16.609 17.378,16.693 17.352 C 16.988 17.261,17.155 17.059,17.479 16.405 C 17.643 16.072,17.788 15.800,17.800 15.800 C 17.812 15.800,17.957 16.072,18.121 16.405 " stroke="none" fill="black" fill-rule="evenodd"></path></svg>