<svg xmlns="http://www.w3.org/2000/svg" width="24" height="24" viewBox="0 0 24 24" fill="none" stroke="currentColor" stroke-width="2" stroke-linecap="round" stroke-linejoin="round" class="icon icon-tabler icons-tabler-outline icon-tabler-shadow-off"><path d="M2.626 2.045 C 2.257 2.239,1.951 2.673,1.951 3.000 C 1.951 3.327,2.064 3.474,3.189 4.606 L 4.249 5.672 3.943 6.097 C 2.054 8.720,1.549 12.019,2.565 15.100 C 3.264 17.221,4.684 19.067,6.583 20.320 C 7.749 21.091,9.202 21.634,10.720 21.866 C 11.353 21.963,12.714 21.962,13.380 21.865 C 14.564 21.692,15.688 21.334,16.680 20.814 C 17.057 20.616,17.924 20.060,18.210 19.832 L 18.321 19.744 19.390 20.807 C 20.081 21.493,20.523 21.902,20.637 21.960 C 20.989 22.137,21.354 22.048,21.701 21.701 C 22.048 21.354,22.137 20.990,21.960 20.637 C 21.888 20.493,18.846 17.386,15.747 14.293 C 7.596 6.155,3.514 2.115,3.372 2.044 C 3.152 1.934,2.835 1.935,2.626 2.045 M11.080 2.043 C 9.917 2.160,8.789 2.468,7.760 2.951 C 7.321 3.157,7.102 3.320,7.001 3.518 C 6.788 3.935,7.060 4.664,7.520 4.910 C 7.788 5.054,8.029 5.021,8.598 4.761 C 10.289 3.988,11.965 3.807,13.780 4.201 C 16.607 4.815,18.970 7.075,19.715 9.880 C 20.125 11.424,20.090 13.002,19.614 14.460 C 19.556 14.636,19.402 15.023,19.271 15.320 C 18.985 15.969,18.948 16.187,19.078 16.456 C 19.303 16.921,20.057 17.216,20.477 17.002 C 20.696 16.890,20.827 16.717,21.051 16.240 C 22.189 13.822,22.306 11.060,21.376 8.520 C 21.184 7.995,20.739 7.103,20.420 6.600 C 18.877 4.178,16.240 2.495,13.360 2.096 C 12.828 2.023,11.576 1.993,11.080 2.043 M12.614 5.057 C 12.377 5.131,12.212 5.261,12.109 5.453 C 12.035 5.592,12.020 5.684,12.020 6.000 C 12.020 6.331,12.033 6.403,12.120 6.558 C 12.230 6.755,12.414 6.898,12.635 6.959 C 12.823 7.012,14.177 7.012,14.365 6.959 C 14.586 6.898,14.770 6.755,14.880 6.558 C 14.967 6.402,14.980 6.332,14.979 6.000 C 14.978 5.687,14.962 5.591,14.890 5.453 C 14.786 5.256,14.623 5.131,14.371 5.055 C 14.126 4.982,12.851 4.983,12.614 5.057 M9.158 10.578 C 11.060 12.480,12.608 14.042,12.598 14.048 C 12.588 14.055,12.508 14.098,12.420 14.145 C 12.117 14.306,11.979 14.627,12.009 15.104 C 12.038 15.563,12.250 15.852,12.635 15.959 C 12.715 15.981,13.185 16.000,13.680 16.000 L 14.581 16.000 15.740 17.161 C 16.402 17.823,16.883 18.335,16.860 18.352 C 15.017 19.714,12.644 20.240,10.421 19.779 C 8.031 19.284,6.001 17.722,4.910 15.540 C 4.409 14.537,4.166 13.649,4.080 12.505 C 3.971 11.037,4.281 9.545,4.968 8.240 C 5.170 7.856,5.637 7.120,5.678 7.120 C 5.690 7.120,7.256 8.676,9.158 10.578 M12.614 8.057 C 12.377 8.131,12.212 8.261,12.109 8.453 C 12.035 8.592,12.020 8.684,12.020 9.000 C 12.020 9.331,12.033 9.403,12.120 9.558 C 12.230 9.755,12.414 9.898,12.635 9.959 C 12.831 10.014,17.169 10.014,17.365 9.959 C 17.586 9.898,17.770 9.755,17.880 9.558 C 17.967 9.402,17.980 9.332,17.979 9.000 C 17.978 8.567,17.898 8.355,17.678 8.199 C 17.406 8.005,17.336 8.000,14.984 8.003 C 13.293 8.005,12.741 8.017,12.614 8.057 M15.614 11.057 C 15.377 11.131,15.212 11.261,15.109 11.453 C 15.035 11.592,15.020 11.684,15.020 12.000 C 15.020 12.331,15.033 12.403,15.120 12.558 C 15.230 12.755,15.414 12.898,15.635 12.959 C 15.826 13.012,18.174 13.012,18.365 12.959 C 18.586 12.898,18.770 12.755,18.880 12.558 C 18.967 12.402,18.980 12.332,18.979 12.000 C 18.978 11.687,18.962 11.591,18.890 11.453 C 18.786 11.256,18.623 11.131,18.371 11.055 C 18.117 10.979,15.859 10.981,15.614 11.057 M12.614 17.057 C 12.377 17.131,12.212 17.261,12.109 17.453 C 12.035 17.592,12.020 17.684,12.020 18.000 C 12.020 18.331,12.033 18.403,12.120 18.558 C 12.230 18.755,12.414 18.898,12.635 18.959 C 12.823 19.012,14.177 19.012,14.365 18.959 C 14.586 18.898,14.770 18.755,14.880 18.558 C 14.967 18.402,14.980 18.332,14.979 18.000 C 14.978 17.687,14.962 17.591,14.890 17.453 C 14.786 17.256,14.623 17.131,14.371 17.055 C 14.126 16.982,12.851 16.983,12.614 17.057 " stroke="none" fill="black" fill-rule="evenodd"></path></svg>