<svg xmlns="http://www.w3.org/2000/svg" width="24" height="24" viewBox="0 0 24 24" fill="none" stroke="currentColor" stroke-width="2" stroke-linecap="round" stroke-linejoin="round" class="icon icon-tabler icons-tabler-outline icon-tabler-pig"><path d="M15.676 2.059 C 15.597 2.088,14.560 2.760,13.373 3.552 L 11.214 4.991 9.697 5.012 C 8.397 5.029,8.117 5.044,7.737 5.114 C 6.209 5.397,4.767 6.219,3.721 7.404 C 2.951 8.276,2.380 9.445,2.116 10.688 C 1.998 11.245,1.971 12.325,2.059 12.920 C 2.278 14.391,2.807 15.545,3.765 16.641 L 3.993 16.903 4.008 17.961 C 4.022 18.993,4.025 19.028,4.130 19.319 C 4.393 20.047,5.007 20.648,5.727 20.884 C 5.975 20.965,6.096 20.980,6.520 20.978 C 6.960 20.976,7.056 20.962,7.320 20.867 C 8.104 20.583,8.755 19.878,8.917 19.140 L 8.943 19.020 10.987 19.010 L 13.030 18.999 13.122 19.288 C 13.353 20.004,13.997 20.645,14.727 20.884 C 14.975 20.965,15.096 20.980,15.520 20.978 C 15.960 20.976,16.056 20.962,16.320 20.867 C 17.156 20.564,17.751 19.887,17.944 19.020 C 17.980 18.859,17.998 18.473,17.999 17.848 L 18.000 16.915 18.284 16.588 C 18.615 16.205,18.989 15.658,19.184 15.272 L 19.321 15.000 19.791 14.998 C 20.099 14.996,20.350 14.972,20.523 14.927 C 21.199 14.750,21.785 14.150,21.938 13.478 C 22.032 13.064,22.024 10.849,21.927 10.477 C 21.837 10.134,21.634 9.802,21.358 9.546 C 20.922 9.142,20.509 9.002,19.751 9.001 L 19.321 9.000 19.200 8.759 C 18.798 7.964,18.014 7.026,17.300 6.486 L 17.020 6.274 17.000 4.447 C 16.980 2.654,16.978 2.617,16.891 2.453 C 16.842 2.362,16.746 2.247,16.678 2.199 C 16.416 2.012,15.971 1.950,15.676 2.059 M15.056 7.180 C 15.143 7.376,15.311 7.537,15.711 7.809 C 16.662 8.454,17.203 9.129,17.700 10.291 C 17.873 10.694,18.056 10.884,18.340 10.956 C 18.437 10.980,18.849 11.000,19.258 11.000 L 20.000 11.000 20.000 11.997 L 20.000 12.994 19.170 13.007 C 18.411 13.019,18.326 13.027,18.180 13.106 C 17.943 13.234,17.857 13.346,17.682 13.756 C 17.337 14.562,17.070 14.971,16.516 15.540 C 15.988 16.082,16.002 16.030,16.001 17.440 C 16.000 18.539,15.994 18.629,15.922 18.748 C 15.707 19.100,15.191 19.063,15.046 18.686 C 15.023 18.628,14.998 18.346,14.990 18.060 C 14.971 17.388,14.893 17.214,14.520 17.015 C 14.401 16.951,14.314 16.943,13.940 16.957 C 13.355 16.979,8.625 16.979,8.038 16.957 C 7.584 16.940,7.572 16.942,7.404 17.053 C 7.125 17.237,7.028 17.498,7.001 18.142 C 6.985 18.547,6.964 18.688,6.910 18.771 C 6.707 19.080,6.252 19.063,6.066 18.740 C 6.035 18.687,6.013 18.252,6.000 17.420 C 5.977 15.966,6.008 16.080,5.479 15.540 C 4.737 14.782,4.315 13.996,4.093 12.960 C 4.037 12.700,4.021 12.460,4.024 11.940 C 4.029 11.315,4.039 11.221,4.154 10.780 C 4.306 10.198,4.647 9.478,4.989 9.018 C 5.722 8.033,6.848 7.330,8.100 7.076 C 8.253 7.045,8.961 7.019,10.060 7.004 C 11.733 6.981,11.784 6.978,11.940 6.892 C 12.028 6.844,12.748 6.372,13.540 5.842 L 14.980 4.880 15.000 5.990 C 15.012 6.600,15.037 7.136,15.056 7.180 M14.614 10.057 C 14.221 10.180,14.039 10.435,14.009 10.906 C 13.962 11.621,14.306 12.000,15.000 12.000 C 15.698 12.000,16.043 11.616,15.989 10.900 C 15.963 10.563,15.859 10.327,15.678 10.199 C 15.414 10.010,14.957 9.950,14.614 10.057 " stroke="none" fill="black" fill-rule="evenodd"></path></svg>