<svg xmlns="http://www.w3.org/2000/svg" width="24" height="24" viewBox="0 0 24 24" fill="none" stroke="currentColor" stroke-width="2" stroke-linecap="round" stroke-linejoin="round" class="icon icon-tabler icons-tabler-outline icon-tabler-player-eject"><path d="M11.654 3.040 C 11.563 3.086,11.424 3.182,11.346 3.252 C 11.030 3.536,4.105 11.506,4.032 11.669 C 3.946 11.864,3.932 12.127,3.998 12.299 C 4.072 12.487,4.308 12.750,4.512 12.870 L 4.700 12.980 11.954 12.990 C 16.738 12.997,19.259 12.987,19.358 12.961 C 19.584 12.900,19.769 12.757,19.879 12.558 C 19.963 12.408,19.979 12.327,19.979 12.040 C 19.980 11.787,19.961 11.666,19.908 11.567 C 19.794 11.359,12.625 3.192,12.459 3.082 C 12.250 2.943,11.883 2.924,11.654 3.040 M14.397 8.260 C 15.697 9.744,16.760 10.968,16.760 10.980 C 16.760 10.991,14.618 11.000,12.000 11.000 C 9.382 11.000,7.240 10.991,7.240 10.980 C 7.240 10.941,11.966 5.560,12.000 5.560 C 12.019 5.560,13.098 6.775,14.397 8.260 M5.477 15.073 C 4.806 15.249,4.238 15.823,4.060 16.508 C 4.013 16.687,4.000 17.009,4.000 18.000 C 4.000 19.368,4.018 19.521,4.225 19.930 C 4.361 20.199,4.801 20.639,5.070 20.775 C 5.538 21.012,5.172 21.000,12.000 21.000 C 18.828 21.000,18.462 21.012,18.930 20.775 C 19.196 20.640,19.638 20.200,19.771 19.937 C 19.979 19.527,20.000 19.352,19.999 18.014 C 19.999 16.682,19.974 16.463,19.781 16.083 C 19.646 15.816,19.297 15.449,19.017 15.281 C 18.528 14.987,18.983 15.005,12.000 15.005 C 6.211 15.005,5.720 15.010,5.477 15.073 M18.000 18.000 L 18.000 19.000 12.000 19.000 L 6.000 19.000 6.000 18.000 L 6.000 17.000 12.000 17.000 L 18.000 17.000 18.000 18.000 " stroke="none" fill="black" fill-rule="evenodd"></path></svg>