<svg xmlns="http://www.w3.org/2000/svg" width="24" height="24" viewBox="0 0 24 24" fill="none" stroke="currentColor" stroke-width="2" stroke-linecap="round" stroke-linejoin="round" class="icon icon-tabler icons-tabler-outline icon-tabler-database-edit"><path d="M10.920 2.023 C 8.675 2.170,7.174 2.468,5.740 3.051 C 4.888 3.397,4.317 3.758,3.797 4.277 C 3.497 4.577,3.383 4.725,3.268 4.960 C 2.981 5.546,3.000 5.057,3.000 12.000 C 3.000 18.931,2.982 18.455,3.262 19.029 C 3.437 19.386,3.894 19.882,4.354 20.213 C 5.181 20.809,6.533 21.328,8.060 21.636 C 9.330 21.893,11.004 22.034,11.394 21.917 C 11.607 21.853,11.819 21.639,11.898 21.408 C 11.971 21.194,11.979 20.749,11.914 20.556 C 11.772 20.137,11.535 20.021,10.700 19.961 C 9.001 19.838,7.787 19.597,6.589 19.143 C 5.929 18.893,5.293 18.493,5.098 18.206 L 5.000 18.061 5.000 16.346 C 5.000 14.990,5.010 14.636,5.050 14.653 C 5.077 14.665,5.285 14.756,5.510 14.855 C 7.125 15.566,9.106 15.936,11.560 15.986 C 13.718 16.030,14.195 15.919,14.355 15.340 C 14.455 14.979,14.373 14.476,14.174 14.240 C 13.955 13.980,13.988 13.984,12.180 13.980 C 10.464 13.975,9.961 13.941,8.888 13.758 C 7.122 13.456,5.495 12.790,5.098 12.206 L 5.000 12.061 5.000 10.346 C 5.000 8.990,5.010 8.636,5.050 8.653 C 5.077 8.665,5.285 8.756,5.510 8.855 C 6.726 9.390,8.195 9.735,10.080 9.928 C 10.745 9.996,13.255 9.996,13.920 9.928 C 15.805 9.735,17.274 9.390,18.490 8.855 C 18.715 8.756,18.922 8.665,18.950 8.653 C 18.990 8.636,19.000 9.006,19.000 10.426 C 19.000 11.504,19.016 12.278,19.041 12.365 C 19.148 12.750,19.437 12.962,19.896 12.991 C 20.381 13.022,20.699 12.882,20.880 12.558 L 20.980 12.380 20.991 9.065 C 21.003 5.380,21.013 5.534,20.732 4.960 C 20.618 4.725,20.503 4.577,20.203 4.277 C 19.992 4.067,19.712 3.825,19.581 3.739 C 18.248 2.872,16.465 2.340,14.080 2.098 C 13.533 2.042,11.398 1.992,10.920 2.023 M13.993 4.098 C 15.623 4.269,16.937 4.603,17.940 5.102 C 18.442 5.352,18.824 5.639,18.939 5.853 C 19.018 5.999,19.018 6.001,18.940 6.146 C 18.598 6.780,16.682 7.543,14.740 7.817 C 13.773 7.953,13.353 7.978,12.000 7.978 C 10.647 7.978,10.227 7.953,9.260 7.817 C 7.318 7.543,5.402 6.780,5.060 6.146 C 4.982 6.001,4.982 5.999,5.061 5.853 C 5.313 5.384,6.529 4.787,7.936 4.441 C 8.751 4.240,9.579 4.127,10.980 4.023 C 11.416 3.991,13.453 4.042,13.993 4.098 M19.351 14.039 C 18.947 14.112,18.514 14.292,18.160 14.533 C 17.879 14.725,14.247 18.313,14.126 18.520 L 14.020 18.700 14.008 20.450 C 14.001 21.570,14.012 22.255,14.038 22.354 C 14.100 22.583,14.242 22.768,14.442 22.880 L 14.620 22.980 16.460 22.980 L 18.300 22.980 18.481 22.874 C 18.746 22.718,22.383 19.000,22.554 18.710 C 22.855 18.201,22.998 17.685,22.999 17.108 C 23.001 16.205,22.675 15.462,21.996 14.824 C 21.652 14.500,21.154 14.216,20.720 14.097 C 20.460 14.025,19.620 13.989,19.351 14.039 M20.385 16.112 C 20.594 16.219,20.778 16.402,20.891 16.615 C 21.016 16.850,21.016 17.350,20.891 17.586 C 20.840 17.682,20.129 18.433,19.197 19.376 L 17.591 21.000 16.795 21.000 L 16.000 21.000 16.000 20.205 L 16.000 19.410 17.602 17.825 C 18.483 16.953,19.248 16.211,19.302 16.175 C 19.599 15.980,20.073 15.953,20.385 16.112 " stroke="none" fill="black" fill-rule="evenodd"></path></svg>