<svg xmlns="http://www.w3.org/2000/svg" width="24" height="24" viewBox="0 0 24 24" fill="none" stroke="currentColor" stroke-width="2" stroke-linecap="round" stroke-linejoin="round" class="icon icon-tabler icons-tabler-outline icon-tabler-infinity"><path d="M6.480 7.027 C 6.182 7.058,5.689 7.171,5.373 7.280 C 3.700 7.860,2.476 9.251,2.094 11.008 C 1.993 11.472,1.993 12.528,2.094 12.992 C 2.303 13.951,2.717 14.737,3.386 15.440 C 4.087 16.176,4.883 16.629,5.920 16.884 C 6.425 17.007,7.437 17.019,7.960 16.907 C 8.725 16.743,9.402 16.444,9.964 16.021 C 10.512 15.609,11.590 14.498,11.927 13.999 L 11.994 13.900 12.065 13.998 C 12.485 14.579,13.488 15.608,14.036 16.021 C 14.598 16.444,15.274 16.743,16.040 16.907 C 16.565 17.020,17.576 17.008,18.080 16.883 C 19.615 16.503,20.773 15.594,21.480 14.217 C 21.831 13.531,21.980 12.871,21.980 12.000 C 21.980 11.327,21.937 11.031,21.756 10.460 C 21.539 9.775,21.152 9.129,20.626 8.571 C 19.557 7.440,18.004 6.865,16.480 7.037 C 15.522 7.145,14.750 7.451,13.973 8.029 C 13.591 8.314,12.650 9.261,12.300 9.713 C 12.146 9.912,12.011 10.074,12.000 10.074 C 11.989 10.074,11.854 9.912,11.700 9.713 C 11.146 8.997,10.128 8.046,9.540 7.696 C 8.672 7.179,7.497 6.922,6.480 7.027 M7.804 9.115 C 8.108 9.203,8.477 9.379,8.749 9.566 C 9.250 9.910,10.303 11.094,10.715 11.777 L 10.850 12.000 10.715 12.223 C 10.280 12.944,9.239 14.100,8.690 14.473 C 8.228 14.787,7.734 14.953,7.159 14.988 C 6.631 15.020,6.217 14.933,5.697 14.681 C 4.533 14.116,3.873 12.908,4.036 11.638 C 4.089 11.227,4.155 11.005,4.328 10.660 C 4.747 9.826,5.576 9.208,6.503 9.040 C 6.796 8.987,7.500 9.027,7.804 9.115 M17.760 9.097 C 17.881 9.130,18.144 9.239,18.345 9.338 C 19.473 9.896,20.124 11.113,19.964 12.362 C 19.867 13.121,19.585 13.663,19.000 14.214 C 18.646 14.549,18.064 14.843,17.561 14.943 C 16.803 15.094,15.968 14.920,15.310 14.473 C 14.761 14.100,13.720 12.944,13.285 12.223 L 13.150 12.000 13.285 11.777 C 13.697 11.094,14.750 9.910,15.251 9.566 C 15.630 9.306,16.100 9.117,16.600 9.024 C 16.786 8.989,17.538 9.037,17.760 9.097 " stroke="none" fill="black" fill-rule="evenodd"></path></svg>