<svg xmlns="http://www.w3.org/2000/svg" width="24" height="24" viewBox="0 0 24 24" fill="none" stroke="currentColor" stroke-width="2" stroke-linecap="round" stroke-linejoin="round" class="icon icon-tabler icons-tabler-outline icon-tabler-arrows-shuffle"><path d="M17.626 3.045 C 17.257 3.239,16.951 3.673,16.951 4.000 C 16.951 4.307,17.079 4.488,17.849 5.266 L 18.568 5.993 16.894 6.011 C 15.143 6.031,14.924 6.051,14.256 6.252 C 13.585 6.455,12.649 6.959,12.246 7.335 C 11.863 7.694,11.864 8.191,12.248 8.657 C 12.446 8.897,12.700 9.040,12.929 9.040 C 13.175 9.040,13.328 8.975,13.795 8.672 C 14.002 8.538,14.319 8.368,14.498 8.295 C 15.117 8.043,15.219 8.031,16.980 8.012 L 18.580 7.994 17.855 8.727 C 17.421 9.166,17.095 9.531,17.041 9.637 C 16.863 9.988,16.952 10.354,17.299 10.701 C 17.646 11.048,18.011 11.137,18.363 10.960 C 18.480 10.901,19.051 10.365,20.062 9.365 C 20.899 8.537,21.634 7.826,21.697 7.784 C 21.850 7.682,22.049 7.238,22.049 7.000 C 22.049 6.745,21.851 6.321,21.676 6.201 C 21.601 6.150,20.865 5.438,20.040 4.618 C 19.085 3.670,18.479 3.098,18.372 3.044 C 18.152 2.934,17.835 2.934,17.626 3.045 M2.614 6.057 C 2.377 6.131,2.212 6.261,2.109 6.453 C 2.035 6.592,2.020 6.684,2.020 7.000 C 2.020 7.331,2.033 7.403,2.120 7.558 C 2.230 7.755,2.414 7.898,2.635 7.959 C 2.722 7.983,3.472 8.000,4.500 8.000 C 6.726 8.001,7.012 8.040,7.840 8.464 C 8.706 8.907,9.396 9.690,9.757 10.640 C 9.893 10.997,9.963 11.419,10.000 12.101 C 10.057 13.153,10.247 13.900,10.672 14.736 C 11.483 16.336,12.990 17.479,14.820 17.883 C 15.188 17.965,15.352 17.973,16.894 17.989 L 18.569 18.007 17.850 18.733 C 17.419 19.169,17.095 19.531,17.041 19.637 C 16.863 19.988,16.952 20.354,17.299 20.701 C 17.646 21.048,18.011 21.137,18.363 20.960 C 18.480 20.901,19.051 20.365,20.062 19.365 C 20.899 18.537,21.634 17.826,21.697 17.784 C 21.850 17.682,22.049 17.238,22.049 17.000 C 22.049 16.745,21.851 16.321,21.676 16.201 C 21.601 16.150,20.865 15.438,20.040 14.618 C 19.085 13.670,18.479 13.098,18.372 13.044 C 18.020 12.868,17.639 12.959,17.299 13.299 C 16.952 13.646,16.863 14.012,17.041 14.363 C 17.095 14.469,17.420 14.832,17.853 15.270 L 18.575 16.000 17.104 16.000 C 15.775 16.000,15.593 15.992,15.227 15.917 C 13.840 15.635,12.741 14.689,12.238 13.344 C 12.104 12.986,12.042 12.612,12.001 11.908 C 11.939 10.863,11.756 10.115,11.374 9.351 C 11.065 8.732,10.761 8.306,10.269 7.805 C 9.258 6.775,8.009 6.180,6.564 6.039 C 5.953 5.980,2.815 5.994,2.614 6.057 M8.698 15.035 C 8.609 15.076,8.387 15.209,8.205 15.332 C 7.839 15.578,7.436 15.760,6.967 15.890 C 6.679 15.970,6.538 15.976,4.659 15.998 L 2.658 16.020 2.459 16.122 C 2.119 16.297,1.978 16.606,2.009 17.104 C 2.038 17.563,2.250 17.852,2.635 17.959 C 2.828 18.013,6.278 18.013,6.721 17.959 C 7.676 17.843,8.636 17.476,9.420 16.927 C 9.883 16.602,10.040 16.377,10.040 16.040 C 10.040 15.699,9.790 15.293,9.443 15.073 C 9.228 14.937,8.947 14.922,8.698 15.035 " stroke="none" fill="black" fill-rule="evenodd"></path></svg>