<svg xmlns="http://www.w3.org/2000/svg" width="24" height="24" viewBox="0 0 24 24" fill="none" stroke="currentColor" stroke-width="2" stroke-linecap="round" stroke-linejoin="round" class="icon icon-tabler icons-tabler-outline icon-tabler-square-chevrons-up"><path d="M4.499 2.043 C 3.380 2.232,2.461 3.048,2.114 4.160 L 2.020 4.460 2.020 12.000 L 2.020 19.540 2.114 19.840 C 2.422 20.827,3.173 21.578,4.160 21.886 L 4.460 21.980 12.000 21.980 L 19.540 21.980 19.840 21.886 C 20.827 21.578,21.578 20.827,21.886 19.840 L 21.980 19.540 21.980 12.000 L 21.980 4.460 21.886 4.160 C 21.581 3.182,20.832 2.428,19.861 2.121 L 19.540 2.020 12.120 2.014 C 8.039 2.011,4.609 2.024,4.499 2.043 M19.310 4.061 C 19.589 4.144,19.856 4.411,19.939 4.690 C 19.993 4.870,20.000 5.755,20.000 12.001 C 20.000 17.907,19.991 19.138,19.945 19.290 C 19.872 19.533,19.707 19.740,19.484 19.872 L 19.300 19.980 12.000 19.980 L 4.700 19.980 4.516 19.872 C 4.415 19.813,4.284 19.700,4.225 19.623 C 3.986 19.309,4.000 19.795,4.000 12.022 C 4.000 5.758,4.007 4.870,4.061 4.690 C 4.140 4.421,4.412 4.143,4.673 4.063 C 4.964 3.974,19.009 3.971,19.310 4.061 M11.620 7.046 C 11.387 7.166,8.154 10.409,8.039 10.637 C 7.863 10.990,7.952 11.355,8.299 11.701 C 8.646 12.048,9.011 12.137,9.363 11.960 C 9.479 11.901,9.961 11.452,10.770 10.647 L 12.000 9.423 13.230 10.647 C 14.039 11.452,14.521 11.901,14.637 11.960 C 14.989 12.137,15.354 12.048,15.701 11.701 C 16.048 11.355,16.137 10.990,15.961 10.637 C 15.841 10.397,12.611 7.163,12.372 7.044 C 12.151 6.934,11.836 6.935,11.620 7.046 M11.620 12.046 C 11.387 12.166,8.154 15.409,8.039 15.637 C 7.863 15.990,7.952 16.355,8.299 16.701 C 8.646 17.048,9.011 17.137,9.363 16.960 C 9.479 16.901,9.961 16.452,10.770 15.647 L 12.000 14.423 13.230 15.647 C 14.039 16.452,14.521 16.901,14.637 16.960 C 14.989 17.137,15.354 17.048,15.701 16.701 C 16.048 16.355,16.137 15.990,15.961 15.637 C 15.841 15.397,12.611 12.163,12.372 12.044 C 12.151 11.934,11.836 11.935,11.620 12.046 " stroke="none" fill="black" fill-rule="evenodd"></path></svg>