<svg xmlns="http://www.w3.org/2000/svg" width="24" height="24" viewBox="0 0 24 24" fill="none" stroke="currentColor" stroke-width="2" stroke-linecap="round" stroke-linejoin="round" class="icon icon-tabler icons-tabler-outline icon-tabler-map-south"><path d="M11.080 2.045 C 9.507 2.184,7.883 2.751,6.540 3.630 C 5.905 4.045,5.499 4.378,4.919 4.958 C 2.953 6.926,1.919 9.544,2.013 12.320 C 2.084 14.439,2.752 16.328,4.033 18.040 C 4.430 18.570,5.305 19.464,5.800 19.847 C 7.242 20.961,8.787 21.624,10.600 21.907 C 11.247 22.008,12.753 22.008,13.400 21.907 C 15.638 21.557,17.504 20.620,19.062 19.062 C 20.620 17.504,21.557 15.638,21.907 13.400 C 22.008 12.753,22.008 11.247,21.907 10.600 C 21.624 8.786,20.959 7.238,19.847 5.800 C 19.510 5.365,18.639 4.494,18.200 4.154 C 16.133 2.555,13.646 1.818,11.080 2.045 M12.734 4.041 C 14.574 4.216,16.228 4.976,17.554 6.256 C 20.043 8.658,20.702 12.394,19.183 15.499 C 18.749 16.387,18.223 17.105,17.496 17.801 C 16.876 18.394,16.262 18.819,15.471 19.200 C 13.267 20.265,10.733 20.265,8.529 19.200 C 7.477 18.693,6.612 18.015,5.847 17.100 C 3.848 14.711,3.440 11.302,4.816 8.500 C 6.162 5.760,8.867 4.049,11.920 4.005 C 12.129 4.003,12.495 4.019,12.734 4.041 M10.477 8.073 C 9.806 8.249,9.238 8.823,9.060 9.508 C 9.017 9.672,9.000 9.953,9.000 10.500 C 9.000 11.329,9.036 11.556,9.225 11.930 C 9.361 12.199,9.801 12.639,10.070 12.775 C 10.472 12.979,10.642 13.000,11.868 13.000 L 13.000 13.000 13.000 13.500 L 13.000 14.000 11.988 14.000 L 10.977 14.000 10.929 13.823 C 10.835 13.470,10.495 13.267,10.000 13.267 C 9.492 13.267,9.176 13.463,9.061 13.848 C 8.897 14.400,9.076 15.032,9.522 15.478 C 9.763 15.719,9.999 15.857,10.307 15.937 C 10.655 16.027,13.149 16.030,13.492 15.940 C 13.852 15.847,14.118 15.690,14.404 15.404 C 14.895 14.913,15.000 14.579,14.999 13.514 C 14.999 12.716,14.954 12.424,14.781 12.083 C 14.646 11.816,14.297 11.449,14.017 11.281 C 13.609 11.035,13.405 11.005,12.130 11.002 L 11.000 11.000 11.000 10.500 L 11.000 10.000 12.015 10.000 L 13.030 10.000 13.056 10.129 C 13.147 10.584,13.695 10.849,14.283 10.723 C 14.727 10.628,14.955 10.345,14.990 9.846 C 15.049 8.997,14.426 8.200,13.581 8.044 C 13.440 8.018,12.821 8.001,12.043 8.002 C 10.945 8.004,10.699 8.015,10.477 8.073 " stroke="none" fill="black" fill-rule="evenodd"></path></svg>