<svg xmlns="http://www.w3.org/2000/svg" width="24" height="24" viewBox="0 0 24 24" fill="none" stroke="currentColor" stroke-width="2" stroke-linecap="round" stroke-linejoin="round" class="icon icon-tabler icons-tabler-outline icon-tabler-navigation-pause"><path d="M11.731 2.036 C 11.481 2.129,11.311 2.244,11.205 2.394 C 11.094 2.549,3.206 19.639,3.088 19.980 C 2.808 20.787,3.255 21.654,4.091 21.923 C 4.581 22.081,4.511 22.100,8.451 20.761 L 12.003 19.554 12.491 19.717 C 12.791 19.817,13.054 19.880,13.172 19.880 C 13.572 19.880,13.870 19.611,14.016 19.120 C 14.146 18.683,14.051 18.335,13.737 18.098 C 13.487 17.910,12.292 17.518,11.980 17.522 C 11.776 17.525,11.274 17.684,8.600 18.594 C 6.873 19.182,5.455 19.651,5.449 19.638 C 5.434 19.606,11.971 5.440,12.000 5.440 C 12.012 5.440,12.812 7.154,13.778 9.250 C 15.850 13.744,15.849 13.743,16.010 13.910 C 16.278 14.188,16.624 14.221,17.085 14.015 C 17.541 13.810,17.769 13.436,17.682 13.033 C 17.638 12.825,12.949 2.615,12.777 2.350 C 12.552 2.005,12.144 1.883,11.731 2.036 M16.614 16.057 C 16.377 16.131,16.212 16.261,16.109 16.453 L 16.020 16.620 16.009 19.412 C 16.002 21.226,16.012 22.257,16.039 22.356 C 16.144 22.747,16.433 22.961,16.896 22.991 C 17.381 23.022,17.699 22.882,17.880 22.558 L 17.980 22.380 17.980 19.500 L 17.980 16.620 17.891 16.453 C 17.842 16.362,17.746 16.247,17.678 16.199 C 17.414 16.010,16.957 15.950,16.614 16.057 M20.614 16.057 C 20.377 16.131,20.212 16.261,20.109 16.453 L 20.020 16.620 20.009 19.412 C 20.002 21.226,20.012 22.257,20.039 22.356 C 20.144 22.747,20.433 22.961,20.896 22.991 C 21.381 23.022,21.699 22.882,21.880 22.558 L 21.980 22.380 21.980 19.500 L 21.980 16.620 21.891 16.453 C 21.842 16.362,21.746 16.247,21.678 16.199 C 21.414 16.010,20.957 15.950,20.614 16.057 " stroke="none" fill="black" fill-rule="evenodd"></path></svg>