<svg xmlns="http://www.w3.org/2000/svg" width="24" height="24" viewBox="0 0 24 24" fill="none" stroke="currentColor" stroke-width="2" stroke-linecap="round" stroke-linejoin="round" class="icon icon-tabler icons-tabler-outline icon-tabler-disc-golf"><path d="M11.614 2.057 C 11.377 2.131,11.212 2.261,11.109 2.453 C 11.029 2.603,11.019 2.689,11.007 3.310 L 10.993 4.000 7.903 4.000 C 4.599 4.000,4.601 4.000,4.322 4.199 C 4.139 4.329,4.030 4.573,4.009 4.900 C 3.967 5.552,4.261 5.937,4.842 5.990 L 5.080 6.011 5.080 6.156 C 5.080 6.659,5.335 8.267,5.560 9.180 C 6.387 12.546,8.032 14.631,10.640 15.622 C 10.958 15.743,10.981 15.760,10.993 15.876 L 11.005 16.000 10.069 16.000 C 9.268 16.000,9.088 15.989,8.824 15.921 C 8.425 15.819,8.128 15.658,7.780 15.356 C 7.420 15.044,7.255 14.960,7.000 14.960 C 6.749 14.960,6.534 15.064,6.299 15.299 C 5.951 15.647,5.863 16.012,6.041 16.363 C 6.091 16.460,6.250 16.654,6.396 16.794 C 6.918 17.295,7.585 17.661,8.360 17.871 C 8.716 17.967,8.811 17.974,9.870 17.990 L 11.000 18.007 11.000 18.995 L 11.000 19.982 10.756 20.028 C 10.450 20.086,10.227 20.232,10.111 20.450 C 10.035 20.592,10.020 20.682,10.020 21.000 C 10.020 21.331,10.033 21.403,10.120 21.558 C 10.230 21.755,10.414 21.898,10.635 21.959 C 10.826 22.012,13.174 22.012,13.365 21.959 C 13.586 21.898,13.770 21.755,13.880 21.558 C 13.967 21.402,13.980 21.332,13.979 21.000 C 13.978 20.685,13.963 20.591,13.888 20.450 C 13.773 20.232,13.551 20.086,13.244 20.028 L 13.000 19.982 13.000 18.995 L 13.000 18.007 14.130 17.990 C 15.189 17.974,15.284 17.967,15.640 17.871 C 16.415 17.661,17.082 17.295,17.604 16.794 C 17.750 16.654,17.909 16.460,17.959 16.363 C 18.137 16.012,18.049 15.647,17.701 15.299 C 17.466 15.064,17.251 14.960,17.000 14.960 C 16.745 14.960,16.580 15.044,16.220 15.356 C 15.872 15.658,15.575 15.819,15.176 15.921 C 14.912 15.989,14.732 16.000,13.931 16.000 L 12.995 16.000 13.007 15.875 C 13.019 15.758,13.041 15.742,13.340 15.632 C 15.563 14.816,17.174 13.057,18.060 10.477 C 18.474 9.273,18.809 7.640,18.904 6.375 L 18.931 6.010 19.159 5.989 C 19.520 5.957,19.746 5.818,19.893 5.540 C 19.962 5.410,19.978 5.310,19.978 5.000 C 19.978 4.567,19.899 4.356,19.678 4.199 C 19.399 4.000,19.401 4.000,16.098 4.000 L 13.008 4.000 12.993 3.310 C 12.976 2.541,12.930 2.378,12.678 2.199 C 12.414 2.010,11.957 1.950,11.614 2.057 M9.018 6.590 C 9.136 9.293,9.374 10.889,9.902 12.520 C 9.983 12.773,10.060 13.007,10.073 13.040 C 10.085 13.073,10.006 13.030,9.898 12.944 C 8.567 11.890,7.732 10.204,7.281 7.660 C 7.233 7.386,7.080 6.182,7.080 6.072 C 7.080 6.005,7.141 6.000,8.036 6.000 L 8.992 6.000 9.018 6.590 M12.982 6.210 C 12.971 6.325,12.953 6.718,12.941 7.082 C 12.901 8.286,12.744 9.681,12.542 10.620 C 12.454 11.026,12.282 11.642,12.075 12.290 C 11.994 12.542,12.007 12.566,11.720 11.620 C 11.307 10.260,11.121 8.868,11.025 6.430 L 11.009 6.000 12.005 6.000 L 13.001 6.000 12.982 6.210 M16.920 6.078 C 16.920 6.279,16.742 7.525,16.635 8.076 C 16.190 10.358,15.365 11.944,14.102 12.944 C 13.994 13.030,13.915 13.073,13.927 13.040 C 13.940 13.007,14.017 12.773,14.098 12.520 C 14.626 10.889,14.864 9.293,14.982 6.590 L 15.008 6.000 15.964 6.000 C 16.883 6.000,16.920 6.003,16.920 6.078 " stroke="none" fill="black" fill-rule="evenodd"></path></svg>