<svg xmlns="http://www.w3.org/2000/svg" width="24" height="24" viewBox="0 0 24 24" fill="none" stroke="currentColor" stroke-width="2" stroke-linecap="round" stroke-linejoin="round" class="icon icon-tabler icons-tabler-outline icon-tabler-tag-starred"><path d="M5.358 2.060 C 3.727 2.319,2.417 3.584,2.083 5.227 C 2.004 5.615,2.000 5.758,2.001 8.566 C 2.001 11.743,2.002 11.749,2.223 12.306 C 2.283 12.457,2.404 12.688,2.491 12.820 C 2.664 13.081,10.434 20.896,10.863 21.241 C 11.195 21.507,11.629 21.734,12.060 21.865 C 12.382 21.963,12.482 21.975,13.000 21.975 C 13.518 21.975,13.618 21.963,13.940 21.865 C 14.370 21.734,14.805 21.507,15.137 21.241 C 15.548 20.911,21.253 15.161,21.408 14.920 C 21.627 14.581,21.749 14.317,21.867 13.932 C 21.963 13.619,21.975 13.516,21.975 13.000 C 21.975 12.482,21.963 12.382,21.865 12.060 C 21.734 11.629,21.507 11.195,21.241 10.863 C 20.957 10.510,13.094 2.673,12.880 2.531 C 12.622 2.359,12.341 2.223,12.020 2.115 L 11.740 2.021 8.720 2.014 C 6.348 2.008,5.627 2.018,5.358 2.060 M11.620 4.107 C 11.713 4.158,13.457 5.875,15.784 8.207 C 20.291 12.724,19.975 12.363,19.978 13.001 C 19.982 13.633,20.143 13.442,16.752 16.824 C 13.396 20.170,13.622 19.980,13.000 19.980 C 12.369 19.980,12.724 20.291,8.207 15.784 C 5.875 13.457,4.158 11.713,4.107 11.620 C 4.020 11.460,4.020 11.451,4.009 8.640 C 3.999 6.191,4.005 5.782,4.060 5.535 C 4.211 4.854,4.794 4.252,5.477 4.073 C 5.716 4.010,6.000 4.004,8.600 4.012 C 11.455 4.020,11.460 4.020,11.620 4.107 M6.940 5.574 C 6.489 5.723,6.042 6.063,5.800 6.441 C 5.412 7.045,5.410 7.953,5.797 8.555 C 6.179 9.151,6.799 9.492,7.500 9.492 C 8.052 9.492,8.469 9.326,8.869 8.948 C 9.299 8.541,9.488 8.100,9.488 7.500 C 9.488 6.690,9.071 6.043,8.320 5.684 C 8.036 5.548,7.996 5.540,7.560 5.531 C 7.262 5.525,7.044 5.540,6.940 5.574 M12.183 9.205 C 11.819 9.290,11.671 9.511,11.376 10.410 L 11.182 11.000 10.538 11.000 C 9.752 11.000,9.550 11.048,9.305 11.293 C 8.868 11.730,8.844 12.289,9.246 12.664 C 9.320 12.733,9.601 12.954,9.870 13.156 C 10.139 13.357,10.360 13.541,10.360 13.563 C 10.360 13.586,10.279 13.886,10.180 14.231 C 10.081 14.576,10.000 14.923,10.000 15.002 C 10.000 15.346,10.221 15.713,10.555 15.926 C 10.697 16.016,10.782 16.040,10.955 16.040 C 11.246 16.040,11.395 15.962,11.992 15.499 C 12.286 15.272,12.503 15.129,12.532 15.146 C 12.558 15.162,12.797 15.340,13.063 15.541 C 13.329 15.743,13.606 15.928,13.679 15.954 C 14.102 16.101,14.747 15.852,14.949 15.464 C 15.058 15.252,15.028 14.955,14.824 14.245 C 14.721 13.885,14.643 13.571,14.651 13.548 C 14.659 13.524,14.915 13.315,15.221 13.082 C 15.703 12.717,15.793 12.630,15.891 12.440 C 15.993 12.242,16.002 12.190,15.986 11.917 C 15.966 11.565,15.866 11.332,15.678 11.199 C 15.451 11.037,15.232 11.000,14.503 11.000 L 13.818 11.000 13.609 10.370 C 13.495 10.024,13.360 9.683,13.310 9.613 C 13.094 9.308,12.563 9.116,12.183 9.205 " stroke="none" fill="black" fill-rule="evenodd"></path></svg>