<svg xmlns="http://www.w3.org/2000/svg" width="24" height="24" viewBox="0 0 24 24" fill="none" stroke="currentColor" stroke-width="2" stroke-linecap="round" stroke-linejoin="round" class="icon icon-tabler icons-tabler-outline icon-tabler-prompt"><path d="M4.626 6.045 C 4.420 6.154,4.146 6.433,4.038 6.644 C 3.924 6.868,3.924 7.132,4.040 7.363 C 4.101 7.486,4.811 8.224,6.353 9.770 L 8.578 12.000 6.353 14.230 C 4.811 15.776,4.101 16.514,4.040 16.637 C 3.863 16.990,3.952 17.354,4.299 17.701 C 4.645 18.047,5.010 18.137,5.363 17.961 C 5.613 17.836,10.836 12.613,10.961 12.363 C 11.076 12.132,11.076 11.868,10.961 11.637 C 10.840 11.395,5.613 6.164,5.372 6.044 C 5.152 5.934,4.834 5.935,4.626 6.045 M12.614 16.057 C 12.377 16.131,12.212 16.261,12.109 16.453 C 12.035 16.592,12.020 16.684,12.020 17.000 C 12.020 17.331,12.033 17.403,12.120 17.558 C 12.230 17.755,12.414 17.898,12.635 17.959 C 12.832 18.014,19.168 18.014,19.365 17.959 C 19.586 17.898,19.770 17.755,19.880 17.558 C 19.967 17.402,19.980 17.332,19.979 17.000 C 19.978 16.567,19.898 16.355,19.678 16.199 C 19.398 15.999,19.411 16.000,15.984 16.003 C 13.472 16.005,12.744 16.017,12.614 16.057 " stroke="none" fill="black" fill-rule="evenodd"></path></svg>