<svg xmlns="http://www.w3.org/2000/svg" width="24" height="24" viewBox="0 0 24 24" fill="none" stroke="currentColor" stroke-width="2" stroke-linecap="round" stroke-linejoin="round" class="icon icon-tabler icons-tabler-outline icon-tabler-device-projector"><path d="M12.380 3.043 C 11.040 3.175,9.756 3.780,8.796 4.733 L 8.531 4.995 6.496 5.009 L 4.460 5.023 4.139 5.123 C 3.172 5.424,2.419 6.181,2.114 7.160 L 2.020 7.460 2.020 12.000 L 2.020 16.540 2.114 16.840 C 2.419 17.819,3.175 18.579,4.140 18.879 C 4.327 18.937,4.576 18.974,4.890 18.989 C 5.149 19.002,5.360 19.017,5.360 19.022 C 5.360 19.028,5.278 19.202,5.178 19.410 C 4.863 20.061,4.902 20.439,5.315 20.743 C 5.843 21.131,6.397 21.128,6.708 20.735 C 6.775 20.650,7.008 20.225,7.225 19.790 L 7.619 19.000 12.500 19.000 L 17.381 19.000 17.786 19.812 C 18.009 20.259,18.242 20.684,18.304 20.758 C 18.445 20.924,18.688 21.038,18.908 21.039 C 19.290 21.041,19.807 20.737,19.960 20.420 C 20.094 20.144,20.056 19.891,19.803 19.371 C 19.668 19.093,19.618 18.952,19.651 18.942 C 19.678 18.933,19.799 18.896,19.920 18.858 C 20.824 18.579,21.588 17.794,21.886 16.840 L 21.980 16.540 21.980 12.000 L 21.980 7.460 21.886 7.160 C 21.580 6.180,20.822 5.418,19.861 5.125 C 19.564 5.034,19.461 5.026,18.501 5.009 L 17.462 4.992 17.161 4.698 C 15.895 3.460,14.177 2.865,12.380 3.043 M13.605 5.058 C 13.816 5.090,14.104 5.156,14.245 5.204 C 15.027 5.472,15.875 6.081,16.114 6.548 C 16.157 6.632,16.241 6.745,16.300 6.800 C 16.425 6.916,16.670 7.387,16.796 7.755 C 16.897 8.049,17.000 8.678,17.000 9.000 C 17.000 9.322,16.897 9.951,16.796 10.245 C 16.321 11.632,15.195 12.628,13.773 12.917 C 11.815 13.316,9.865 12.176,9.204 10.245 C 9.103 9.951,9.000 9.322,9.000 9.000 C 9.000 8.678,9.103 8.049,9.204 7.755 C 9.330 7.387,9.575 6.916,9.700 6.800 C 9.759 6.745,9.843 6.632,9.886 6.548 C 9.999 6.328,10.209 6.109,10.572 5.836 C 11.472 5.158,12.505 4.893,13.605 5.058 M7.276 7.211 C 7.092 7.756,7.025 8.232,7.024 9.000 C 7.024 9.622,7.038 9.807,7.114 10.160 C 7.639 12.588,9.417 14.365,11.840 14.885 C 12.190 14.960,12.383 14.975,13.000 14.975 C 13.617 14.975,13.810 14.960,14.160 14.885 C 15.369 14.626,16.340 14.109,17.195 13.269 C 18.068 12.412,18.620 11.397,18.885 10.160 C 18.960 9.810,18.975 9.617,18.975 9.000 C 18.975 8.232,18.909 7.759,18.724 7.211 L 18.652 7.000 18.879 7.000 C 19.234 7.000,19.488 7.094,19.697 7.303 C 20.017 7.623,20.000 7.359,20.000 12.001 C 20.000 16.458,20.007 16.319,19.779 16.618 C 19.718 16.698,19.585 16.813,19.484 16.872 L 19.300 16.980 12.000 16.980 L 4.700 16.980 4.516 16.872 C 4.415 16.813,4.284 16.700,4.225 16.623 C 3.990 16.315,4.000 16.515,4.000 12.022 C 4.000 7.356,3.983 7.624,4.304 7.303 C 4.588 7.019,4.663 7.006,6.104 7.003 L 7.348 7.000 7.276 7.211 M5.614 14.057 C 5.377 14.131,5.212 14.261,5.109 14.453 C 5.035 14.592,5.020 14.684,5.020 15.000 C 5.020 15.331,5.033 15.403,5.120 15.558 C 5.230 15.755,5.414 15.898,5.635 15.959 C 5.823 16.012,7.177 16.012,7.365 15.959 C 7.586 15.898,7.770 15.755,7.880 15.558 C 7.967 15.402,7.980 15.332,7.979 15.000 C 7.978 14.687,7.962 14.591,7.890 14.453 C 7.786 14.256,7.623 14.131,7.371 14.055 C 7.126 13.982,5.851 13.983,5.614 14.057 " stroke="none" fill="black" fill-rule="evenodd"></path></svg>