<svg xmlns="http://www.w3.org/2000/svg" width="24" height="24" viewBox="0 0 24 24" fill="none" stroke="currentColor" stroke-width="2" stroke-linecap="round" stroke-linejoin="round" class="icon icon-tabler icons-tabler-outline icon-tabler-brand-intercom"><path d="M5.499 3.043 C 4.380 3.233,3.461 4.048,3.114 5.160 L 3.020 5.460 3.020 12.000 L 3.020 18.540 3.114 18.840 C 3.422 19.827,4.173 20.578,5.160 20.886 L 5.460 20.980 12.000 20.980 L 18.540 20.980 18.840 20.886 C 19.827 20.578,20.578 19.827,20.886 18.840 L 20.980 18.540 20.980 12.000 L 20.980 5.460 20.886 5.160 C 20.581 4.182,19.832 3.428,18.861 3.121 L 18.540 3.020 12.120 3.014 C 8.589 3.011,5.609 3.024,5.499 3.043 M18.310 5.061 C 18.589 5.144,18.856 5.411,18.939 5.690 C 18.992 5.869,19.000 6.651,19.000 12.001 C 19.000 17.059,18.991 18.139,18.945 18.290 C 18.872 18.533,18.707 18.740,18.484 18.872 L 18.300 18.980 12.000 18.980 L 5.700 18.980 5.516 18.872 C 5.303 18.747,5.141 18.550,5.058 18.316 C 4.968 18.060,4.971 5.993,5.061 5.690 C 5.140 5.421,5.412 5.143,5.673 5.063 C 5.963 4.974,18.010 4.972,18.310 5.061 M9.614 6.057 C 9.377 6.131,9.212 6.261,9.109 6.453 L 9.020 6.620 9.009 9.912 C 9.002 12.060,9.012 13.257,9.039 13.356 C 9.144 13.747,9.434 13.961,9.896 13.991 C 10.381 14.022,10.699 13.882,10.880 13.558 L 10.980 13.380 10.980 10.000 L 10.980 6.620 10.891 6.453 C 10.842 6.362,10.746 6.247,10.678 6.199 C 10.414 6.010,9.957 5.950,9.614 6.057 M13.614 6.057 C 13.377 6.131,13.212 6.261,13.109 6.453 L 13.020 6.620 13.009 9.912 C 13.002 12.060,13.012 13.257,13.039 13.356 C 13.144 13.747,13.434 13.961,13.896 13.991 C 14.381 14.022,14.699 13.882,14.880 13.558 L 14.980 13.380 14.980 10.000 L 14.980 6.620 14.891 6.453 C 14.842 6.362,14.746 6.247,14.678 6.199 C 14.414 6.010,13.957 5.950,13.614 6.057 M6.614 7.057 C 6.377 7.131,6.212 7.261,6.109 7.453 C 6.021 7.618,6.020 7.647,6.008 9.410 C 6.001 10.557,6.012 11.255,6.038 11.354 C 6.144 11.747,6.433 11.961,6.896 11.991 C 7.381 12.022,7.699 11.882,7.880 11.558 L 7.980 11.380 7.980 9.500 C 7.980 7.633,7.979 7.619,7.891 7.453 C 7.842 7.362,7.746 7.247,7.678 7.199 C 7.414 7.010,6.957 6.950,6.614 7.057 M16.614 7.057 C 16.377 7.131,16.212 7.261,16.109 7.453 C 16.021 7.618,16.020 7.647,16.008 9.410 C 16.001 10.557,16.012 11.255,16.038 11.354 C 16.144 11.747,16.433 11.961,16.896 11.991 C 17.381 12.022,17.699 11.882,17.880 11.558 L 17.980 11.380 17.980 9.500 C 17.980 7.633,17.979 7.619,17.891 7.453 C 17.842 7.362,17.746 7.247,17.678 7.199 C 17.414 7.010,16.957 6.950,16.614 7.057 M6.597 14.039 C 6.270 14.212,5.961 14.701,5.960 15.047 C 5.959 15.497,6.154 15.684,7.420 16.451 C 8.451 17.075,9.512 17.548,10.440 17.797 C 10.823 17.900,11.593 18.000,12.000 18.000 C 13.313 18.000,14.801 17.506,16.460 16.520 C 17.533 15.882,17.902 15.598,18.003 15.333 C 18.113 15.042,17.985 14.601,17.697 14.282 C 17.499 14.062,17.292 13.960,17.047 13.960 C 16.813 13.960,16.649 14.040,15.860 14.541 C 13.984 15.731,12.629 16.150,11.335 15.941 C 10.496 15.804,9.320 15.291,8.160 14.554 C 7.337 14.032,7.190 13.960,6.944 13.962 C 6.824 13.963,6.681 13.995,6.597 14.039 " stroke="none" fill="black" fill-rule="evenodd"></path></svg>