<svg xmlns="http://www.w3.org/2000/svg" width="24" height="24" viewBox="0 0 24 24" fill="none" stroke="currentColor" stroke-width="2" stroke-linecap="round" stroke-linejoin="round" class="icon icon-tabler icons-tabler-outline icon-tabler-letter-h"><path d="M6.614 3.057 C 6.377 3.131,6.212 3.261,6.109 3.453 L 6.020 3.620 6.010 11.914 C 6.003 17.391,6.013 20.260,6.040 20.358 C 6.144 20.747,6.434 20.962,6.896 20.991 C 7.381 21.022,7.699 20.882,7.880 20.558 L 7.980 20.380 7.991 16.690 L 8.002 13.000 12.001 13.000 L 16.000 13.000 16.000 16.610 C 16.000 18.905,16.015 20.273,16.041 20.365 C 16.148 20.750,16.437 20.962,16.896 20.991 C 17.381 21.022,17.699 20.882,17.880 20.558 L 17.980 20.380 17.980 12.000 L 17.980 3.620 17.889 3.450 C 17.724 3.140,17.329 2.970,16.874 3.011 C 16.439 3.051,16.141 3.274,16.041 3.635 C 16.015 3.727,16.000 5.095,16.000 7.390 L 16.000 11.000 12.001 11.000 L 8.002 11.000 7.991 7.310 L 7.980 3.620 7.891 3.453 C 7.842 3.362,7.746 3.247,7.678 3.199 C 7.414 3.010,6.957 2.950,6.614 3.057 " stroke="none" fill="black" fill-rule="evenodd"></path></svg>