<svg xmlns="http://www.w3.org/2000/svg" width="24" height="24" viewBox="0 0 24 24" fill="none" stroke="currentColor" stroke-width="2" stroke-linecap="round" stroke-linejoin="round" class="icon icon-tabler icons-tabler-outline icon-tabler-help-off"><path d="M2.626 2.045 C 2.257 2.239,1.951 2.673,1.951 3.000 C 1.951 3.327,2.064 3.474,3.188 4.605 L 4.247 5.670 3.965 6.051 C 2.992 7.362,2.353 8.914,2.093 10.600 C 1.993 11.245,1.993 12.755,2.093 13.400 C 2.436 15.617,3.387 17.510,4.939 19.061 C 6.490 20.613,8.383 21.564,10.600 21.907 C 11.245 22.007,12.755 22.007,13.400 21.907 C 15.086 21.647,16.638 21.008,17.949 20.035 L 18.330 19.753 19.395 20.812 C 20.082 21.494,20.523 21.902,20.637 21.960 C 20.989 22.137,21.354 22.048,21.701 21.701 C 22.047 21.355,22.136 20.990,21.961 20.637 C 21.839 20.392,3.616 2.165,3.372 2.044 C 3.152 1.934,2.834 1.935,2.626 2.045 M11.080 2.043 C 9.894 2.163,8.747 2.480,7.708 2.977 C 6.941 3.343,6.770 3.706,7.059 4.350 C 7.185 4.632,7.438 4.891,7.655 4.960 C 7.884 5.033,8.106 4.986,8.606 4.757 C 10.426 3.926,12.295 3.778,14.226 4.313 C 16.354 4.903,18.236 6.496,19.219 8.540 C 19.970 10.102,20.191 11.987,19.824 13.704 C 19.727 14.160,19.528 14.741,19.271 15.320 C 18.981 15.974,18.945 16.204,19.087 16.480 C 19.256 16.807,19.733 17.081,20.134 17.080 C 20.535 17.080,20.750 16.883,21.051 16.241 C 22.196 13.799,22.307 11.074,21.369 8.500 C 21.190 8.010,20.695 7.019,20.399 6.560 C 18.850 4.157,16.203 2.483,13.340 2.096 C 12.786 2.021,11.580 1.993,11.080 2.043 M11.640 6.003 C 11.475 6.020,11.193 6.081,11.014 6.138 C 10.220 6.389,9.974 6.795,10.215 7.458 C 10.440 8.079,10.824 8.279,11.437 8.097 C 11.799 7.990,12.063 7.962,12.324 8.004 C 12.990 8.111,13.517 8.636,13.639 9.315 C 13.690 9.594,13.673 9.763,13.557 10.164 C 13.366 10.823,13.555 11.217,14.168 11.432 C 14.839 11.668,15.240 11.444,15.477 10.702 C 15.754 9.835,15.732 9.065,15.405 8.219 C 15.027 7.243,14.087 6.398,13.072 6.121 C 12.807 6.049,12.147 5.953,12.000 5.966 C 11.967 5.968,11.805 5.985,11.640 6.003 M8.415 9.835 L 11.129 12.549 11.064 12.832 C 10.880 13.644,11.095 14.303,11.590 14.444 C 11.962 14.549,12.453 14.485,12.671 14.302 L 12.785 14.205 14.833 16.253 C 15.959 17.379,16.880 18.313,16.880 18.328 C 16.880 18.392,15.944 18.973,15.480 19.197 C 13.265 20.265,10.737 20.267,8.529 19.200 C 7.738 18.819,7.124 18.394,6.504 17.801 C 5.777 17.105,5.251 16.387,4.817 15.499 C 3.736 13.290,3.736 10.714,4.817 8.499 C 5.052 8.016,5.608 7.120,5.672 7.120 C 5.688 7.120,6.922 8.342,8.415 9.835 M11.614 16.057 C 11.221 16.180,11.039 16.435,11.009 16.906 C 10.962 17.621,11.306 18.000,12.000 18.000 C 12.698 18.000,13.043 17.616,12.989 16.900 C 12.963 16.563,12.859 16.327,12.678 16.199 C 12.414 16.010,11.957 15.950,11.614 16.057 " stroke="none" fill="black" fill-rule="evenodd"></path></svg>