<svg xmlns="http://www.w3.org/2000/svg" width="24" height="24" viewBox="0 0 24 24" fill="none" stroke="currentColor" stroke-width="2" stroke-linecap="round" stroke-linejoin="round" class="icon icon-tabler icons-tabler-outline icon-tabler-phone-x"><path d="M15.626 3.045 C 15.257 3.239,14.951 3.673,14.951 4.000 C 14.951 4.307,15.079 4.487,15.853 5.270 L 16.575 6.000 15.853 6.730 C 15.079 7.513,14.951 7.693,14.951 8.000 C 14.951 8.477,15.523 9.049,16.000 9.049 C 16.307 9.049,16.487 8.921,17.270 8.147 L 18.000 7.425 18.730 8.147 C 19.513 8.921,19.693 9.049,20.000 9.049 C 20.477 9.049,21.049 8.477,21.049 8.000 C 21.049 7.693,20.921 7.513,20.147 6.730 L 19.425 6.000 20.147 5.270 C 20.580 4.832,20.905 4.469,20.959 4.363 C 21.137 4.012,21.048 3.646,20.701 3.299 C 20.360 2.958,19.979 2.868,19.628 3.045 C 19.533 3.094,19.144 3.444,18.730 3.853 L 18.000 4.575 17.270 3.853 C 16.856 3.444,16.467 3.094,16.372 3.045 C 16.152 2.934,15.836 2.934,15.626 3.045 M4.499 3.043 C 3.383 3.230,2.461 4.048,2.114 5.160 C 2.032 5.421,2.021 5.536,2.025 6.040 C 2.036 7.459,2.448 9.403,3.102 11.122 C 4.798 15.580,8.420 19.202,12.878 20.898 C 14.597 21.552,16.541 21.964,17.960 21.975 C 18.464 21.979,18.579 21.968,18.840 21.886 C 19.816 21.581,20.557 20.847,20.885 19.860 C 20.978 19.582,20.978 19.567,20.991 17.207 C 21.006 14.494,21.013 14.564,20.695 14.284 C 20.540 14.148,20.148 13.979,17.888 13.074 C 15.561 12.144,15.230 12.021,14.997 12.007 C 14.699 11.990,14.504 12.064,14.310 12.268 C 14.250 12.332,13.960 12.783,13.667 13.270 L 13.133 14.156 12.797 13.931 C 11.752 13.234,10.772 12.253,10.069 11.202 C 9.944 11.016,9.846 10.861,9.851 10.856 C 9.856 10.852,10.256 10.611,10.740 10.321 C 11.224 10.031,11.688 9.727,11.772 9.647 C 11.974 9.451,12.060 9.169,12.000 8.895 C 11.976 8.788,11.487 7.521,10.913 6.080 C 9.896 3.530,9.863 3.455,9.681 3.276 C 9.551 3.149,9.438 3.079,9.309 3.046 C 9.091 2.992,4.824 2.989,4.499 3.043 M9.040 6.799 C 9.672 8.381,9.744 8.583,9.686 8.623 C 9.650 8.647,9.234 8.898,8.763 9.180 C 7.590 9.882,7.480 9.992,7.480 10.459 C 7.480 10.655,7.512 10.745,7.752 11.212 C 8.052 11.799,8.567 12.597,8.984 13.120 C 9.332 13.558,10.442 14.668,10.880 15.016 C 11.403 15.433,12.201 15.948,12.788 16.248 C 13.255 16.488,13.345 16.520,13.541 16.520 C 13.805 16.520,14.015 16.425,14.189 16.226 C 14.256 16.150,14.541 15.704,14.822 15.234 C 15.103 14.764,15.353 14.350,15.377 14.314 C 15.417 14.256,15.619 14.328,17.201 14.960 L 18.980 15.672 18.992 17.346 C 19.000 18.454,18.990 19.089,18.961 19.224 C 18.905 19.484,18.724 19.731,18.486 19.871 C 18.317 19.970,18.266 19.980,17.920 19.976 C 17.711 19.973,17.369 19.949,17.160 19.923 C 14.143 19.536,11.371 18.301,9.120 16.340 C 6.378 13.952,4.546 10.533,4.106 6.980 C 3.960 5.804,3.981 5.625,4.303 5.303 C 4.601 5.005,4.608 5.004,6.594 5.013 L 8.328 5.020 9.040 6.799 " stroke="none" fill="black" fill-rule="evenodd"></path></svg>