<svg xmlns="http://www.w3.org/2000/svg" width="24" height="24" viewBox="0 0 24 24" fill="none" stroke="currentColor" stroke-width="2" stroke-linecap="round" stroke-linejoin="round" class="icon icon-tabler icons-tabler-outline icon-tabler-grill-off"><path d="M2.626 2.045 C 2.420 2.154,2.146 2.433,2.038 2.644 C 1.924 2.868,1.924 3.133,2.040 3.363 C 2.100 3.483,2.679 4.092,3.853 5.270 L 5.578 7.000 5.195 7.000 C 4.593 7.000,4.282 7.130,4.109 7.453 C 4.029 7.603,4.020 7.675,4.023 8.160 C 4.030 9.390,4.375 10.574,5.046 11.670 C 5.611 12.592,6.523 13.485,7.470 14.039 C 7.630 14.133,7.760 14.216,7.760 14.225 C 7.760 14.238,6.433 16.874,6.142 17.440 C 6.091 17.539,5.812 18.106,5.522 18.700 C 4.920 19.935,4.878 20.085,5.040 20.420 C 5.145 20.637,5.398 20.840,5.712 20.959 C 6.110 21.111,6.475 21.029,6.708 20.735 C 6.775 20.650,7.008 20.225,7.225 19.790 L 7.619 19.000 10.890 19.000 L 14.161 19.000 14.257 19.217 C 14.546 19.871,15.203 20.508,15.864 20.777 C 16.391 20.991,17.094 21.057,17.592 20.939 C 17.967 20.851,18.431 20.656,18.680 20.482 L 18.900 20.329 19.680 21.099 C 20.153 21.566,20.530 21.905,20.637 21.959 C 20.988 22.137,21.354 22.048,21.701 21.701 C 22.116 21.287,22.159 20.870,21.833 20.440 C 21.771 20.358,20.251 18.826,14.640 13.189 C 14.607 13.156,13.293 11.841,11.720 10.268 C 10.147 8.694,8.815 7.361,8.760 7.305 C 8.705 7.250,7.508 6.062,6.100 4.667 C 4.415 2.996,3.482 2.100,3.372 2.044 C 3.152 1.934,2.835 1.935,2.626 2.045 M8.614 3.057 C 8.377 3.131,8.212 3.261,8.109 3.453 C 8.027 3.606,8.019 3.684,8.007 4.405 C 7.999 4.880,8.011 5.252,8.037 5.349 C 8.144 5.748,8.430 5.961,8.896 5.991 C 9.381 6.022,9.699 5.882,9.880 5.558 C 9.978 5.383,9.980 5.364,9.980 4.500 C 9.980 3.667,9.975 3.611,9.891 3.453 C 9.842 3.362,9.746 3.247,9.678 3.199 C 9.414 3.010,8.957 2.950,8.614 3.057 M11.614 3.057 C 11.377 3.131,11.212 3.261,11.109 3.453 C 11.027 3.606,11.019 3.684,11.007 4.405 C 10.999 4.880,11.011 5.252,11.037 5.349 C 11.144 5.748,11.430 5.961,11.896 5.991 C 12.381 6.022,12.699 5.882,12.880 5.558 C 12.978 5.383,12.980 5.364,12.980 4.500 C 12.980 3.667,12.975 3.611,12.891 3.453 C 12.842 3.362,12.746 3.247,12.678 3.199 C 12.414 3.010,11.957 2.950,11.614 3.057 M14.614 3.057 C 14.377 3.131,14.212 3.261,14.109 3.453 C 14.027 3.606,14.019 3.684,14.007 4.405 C 13.999 4.880,14.011 5.252,14.037 5.349 C 14.144 5.748,14.430 5.961,14.896 5.991 C 15.381 6.022,15.699 5.882,15.880 5.558 C 15.978 5.383,15.980 5.364,15.980 4.500 C 15.980 3.667,15.975 3.611,15.891 3.453 C 15.842 3.362,15.746 3.247,15.678 3.199 C 15.414 3.010,14.957 2.950,14.614 3.057 M11.654 7.038 C 11.201 7.146,10.972 7.524,11.009 8.104 C 11.038 8.563,11.250 8.852,11.635 8.959 C 11.726 8.985,12.910 9.000,14.830 9.000 C 17.334 9.000,17.880 9.009,17.880 9.053 C 17.880 9.202,17.654 9.832,17.461 10.220 C 17.158 10.830,16.925 11.135,16.285 11.760 C 15.806 12.228,15.725 12.325,15.682 12.486 C 15.640 12.643,15.642 12.706,15.696 12.892 C 15.775 13.162,16.021 13.484,16.273 13.646 C 16.439 13.752,16.488 13.764,16.704 13.751 C 17.055 13.731,17.316 13.561,17.919 12.960 C 18.537 12.344,18.873 11.878,19.259 11.100 C 19.718 10.175,19.937 9.342,19.987 8.340 C 20.017 7.750,19.954 7.476,19.739 7.262 C 19.469 6.991,19.602 7.000,15.483 7.004 C 13.446 7.006,11.723 7.022,11.654 7.038 M9.580 11.004 L 11.580 13.008 10.940 12.987 C 10.059 12.958,9.495 12.824,8.785 12.474 C 7.831 12.005,7.023 11.201,6.541 10.240 C 6.362 9.883,6.185 9.404,6.139 9.150 L 6.111 9.000 6.846 9.000 L 7.580 9.000 9.580 11.004 M10.300 14.959 C 10.498 14.981,11.317 14.999,12.119 15.000 L 13.579 15.000 14.126 15.546 L 14.673 16.092 14.517 16.320 C 14.431 16.446,14.316 16.651,14.261 16.775 L 14.161 17.000 11.401 17.000 C 9.882 17.000,8.640 16.991,8.640 16.980 C 8.640 16.969,8.875 16.490,9.162 15.916 L 9.684 14.872 9.812 14.895 C 9.882 14.908,10.102 14.937,10.300 14.959 M16.790 18.210 C 17.147 18.567,17.440 18.871,17.440 18.885 C 17.440 18.920,17.112 19.000,16.969 19.000 C 16.512 19.000,16.082 18.596,16.014 18.104 C 15.991 17.932,16.059 17.560,16.115 17.560 C 16.128 17.560,16.432 17.852,16.790 18.210 " stroke="none" fill="black" fill-rule="evenodd"></path></svg>