<svg xmlns="http://www.w3.org/2000/svg" width="24" height="24" viewBox="0 0 24 24" fill="none" stroke="currentColor" stroke-width="2" stroke-linecap="round" stroke-linejoin="round" class="icon icon-tabler icons-tabler-outline icon-tabler-box-align-top"><path d="M4.580 3.047 C 4.093 3.140,3.537 3.548,3.262 4.015 C 2.998 4.462,2.996 4.497,3.009 7.600 L 3.020 10.380 3.120 10.558 C 3.230 10.755,3.414 10.898,3.635 10.959 C 3.835 11.015,20.165 11.015,20.365 10.959 C 20.586 10.898,20.770 10.755,20.880 10.558 L 20.980 10.380 20.991 7.600 C 21.001 5.188,20.995 4.782,20.940 4.535 C 20.780 3.814,20.116 3.177,19.383 3.043 C 19.076 2.987,4.875 2.991,4.580 3.047 M19.000 7.000 L 19.000 9.000 12.000 9.000 L 5.000 9.000 5.000 7.000 L 5.000 5.000 12.000 5.000 L 19.000 5.000 19.000 7.000 M3.582 14.057 C 3.212 14.195,3.037 14.451,3.009 14.896 C 2.966 15.578,3.268 15.951,3.896 15.991 C 4.578 16.034,4.951 15.732,4.991 15.104 C 5.022 14.619,4.881 14.300,4.560 14.122 C 4.338 14.000,3.829 13.966,3.582 14.057 M19.582 14.057 C 19.212 14.195,19.037 14.451,19.009 14.896 C 18.966 15.578,19.268 15.951,19.896 15.991 C 20.578 16.034,20.951 15.732,20.991 15.104 C 21.022 14.619,20.881 14.300,20.560 14.122 C 20.338 14.000,19.829 13.966,19.582 14.057 M3.582 19.057 C 3.212 19.195,3.037 19.451,3.009 19.896 C 2.966 20.578,3.268 20.951,3.896 20.991 C 4.578 21.034,4.951 20.732,4.991 20.104 C 5.022 19.619,4.881 19.300,4.560 19.122 C 4.338 19.000,3.829 18.966,3.582 19.057 M8.582 19.057 C 8.212 19.195,8.037 19.451,8.009 19.896 C 7.966 20.578,8.268 20.951,8.896 20.991 C 9.578 21.034,9.951 20.732,9.991 20.104 C 10.022 19.619,9.881 19.300,9.560 19.122 C 9.338 19.000,8.829 18.966,8.582 19.057 M14.582 19.057 C 14.212 19.195,14.037 19.451,14.009 19.896 C 13.966 20.578,14.268 20.951,14.896 20.991 C 15.578 21.034,15.951 20.732,15.991 20.104 C 16.022 19.619,15.881 19.300,15.560 19.122 C 15.338 19.000,14.829 18.966,14.582 19.057 M19.582 19.057 C 19.212 19.195,19.037 19.451,19.009 19.896 C 18.966 20.578,19.268 20.951,19.896 20.991 C 20.578 21.034,20.951 20.732,20.991 20.104 C 21.022 19.619,20.881 19.300,20.560 19.122 C 20.338 19.000,19.829 18.966,19.582 19.057 " stroke="none" fill="black" fill-rule="evenodd"></path></svg>