<svg xmlns="http://www.w3.org/2000/svg" width="24" height="24" viewBox="0 0 24 24" fill="none" stroke="currentColor" stroke-width="2" stroke-linecap="round" stroke-linejoin="round" class="icon icon-tabler icons-tabler-outline icon-tabler-devices-heart"><path d="M3.477 3.073 C 2.806 3.249,2.238 3.823,2.060 4.508 C 2.008 4.706,2.000 5.577,2.000 11.000 C 2.000 17.828,1.988 17.462,2.225 17.930 C 2.361 18.199,2.801 18.639,3.070 18.775 C 3.522 19.004,3.455 19.000,6.978 19.000 C 9.027 19.000,10.273 18.985,10.365 18.959 C 10.586 18.898,10.770 18.755,10.880 18.558 C 10.967 18.402,10.980 18.332,10.979 18.000 C 10.978 17.567,10.898 17.355,10.678 17.199 C 10.399 17.000,10.401 17.000,7.094 17.000 L 4.000 17.000 4.000 11.000 L 4.000 5.000 10.500 5.000 L 17.000 5.000 17.000 6.000 L 17.000 7.000 15.370 7.002 C 13.545 7.005,13.417 7.020,12.983 7.281 C 12.703 7.449,12.354 7.816,12.219 8.083 C 12.010 8.495,12.000 8.600,12.000 10.478 C 12.000 11.522,12.017 12.278,12.041 12.365 C 12.148 12.750,12.437 12.962,12.896 12.991 C 13.381 13.022,13.699 12.882,13.880 12.558 L 13.980 12.380 13.992 10.690 L 14.004 9.000 14.496 9.000 L 14.989 9.000 15.013 9.203 C 15.058 9.583,15.288 9.863,15.635 9.959 C 15.826 10.012,18.174 10.012,18.365 9.959 C 18.712 9.863,18.935 9.593,18.983 9.210 L 19.009 9.000 19.505 9.000 L 20.000 9.000 20.000 10.110 C 20.000 10.730,20.018 11.284,20.041 11.365 C 20.148 11.750,20.437 11.962,20.896 11.991 C 21.381 12.022,21.699 11.882,21.880 11.558 L 21.980 11.380 21.992 10.097 C 22.006 8.700,21.983 8.481,21.782 8.083 C 21.646 7.816,21.297 7.449,21.017 7.281 C 20.658 7.065,20.361 7.005,19.630 7.002 L 19.000 7.000 18.999 5.890 C 18.999 4.691,18.970 4.456,18.781 4.083 C 18.646 3.816,18.297 3.449,18.017 3.281 C 17.527 2.986,18.042 3.005,10.500 3.005 C 4.239 3.005,3.721 3.010,3.477 3.073 M15.699 14.037 C 14.670 14.202,13.737 14.905,13.305 15.840 C 13.072 16.345,13.021 16.592,13.024 17.200 C 13.026 17.692,13.037 17.773,13.149 18.111 C 13.314 18.608,13.546 18.985,13.936 19.393 C 14.114 19.578,14.984 20.440,15.868 21.306 C 17.563 22.967,17.651 23.038,18.000 23.038 C 18.345 23.038,18.445 22.958,19.971 21.466 C 22.507 18.986,22.575 18.908,22.818 18.213 C 23.020 17.636,23.050 16.947,22.900 16.380 C 22.746 15.802,22.353 15.189,21.871 14.775 C 20.903 13.943,19.453 13.773,18.325 14.360 L 18.013 14.522 17.697 14.363 C 17.245 14.135,16.862 14.039,16.340 14.020 C 16.098 14.012,15.810 14.019,15.699 14.037 M16.753 16.136 C 16.861 16.191,17.080 16.356,17.239 16.502 C 17.843 17.056,18.170 17.055,18.773 16.497 C 19.226 16.077,19.559 15.955,20.020 16.041 C 20.841 16.193,21.259 17.127,20.806 17.797 C 20.748 17.883,20.101 18.542,19.368 19.262 C 18.242 20.369,18.025 20.565,17.961 20.535 C 17.919 20.516,17.278 19.898,16.537 19.163 C 15.024 17.661,15.020 17.657,15.023 17.160 C 15.025 16.915,15.045 16.822,15.133 16.651 C 15.292 16.341,15.584 16.126,15.980 16.025 C 16.156 15.980,16.559 16.038,16.753 16.136 " stroke="none" fill="black" fill-rule="evenodd"></path></svg>