<svg xmlns="http://www.w3.org/2000/svg" width="24" height="24" viewBox="0 0 24 24" fill="none" stroke="currentColor" stroke-width="2" stroke-linecap="round" stroke-linejoin="round" class="icon icon-tabler icons-tabler-outline icon-tabler-brand-superhuman"><path d="M11.597 2.091 C 11.411 2.186,3.478 8.119,3.246 8.335 C 2.881 8.677,2.861 9.133,3.192 9.580 C 3.265 9.678,3.890 10.172,4.814 10.860 C 5.640 11.476,6.317 11.989,6.317 12.000 C 6.317 12.011,5.641 12.524,4.815 13.140 C 3.989 13.756,3.261 14.326,3.196 14.406 C 2.862 14.824,2.871 15.246,3.225 15.628 C 3.506 15.933,11.468 22.865,11.626 22.943 C 11.829 23.043,12.171 23.044,12.374 22.943 C 12.459 22.901,14.295 21.320,16.454 19.429 C 18.613 17.538,20.434 15.961,20.499 15.925 C 20.823 15.747,21.041 15.354,21.039 14.948 C 21.037 14.627,20.845 14.298,20.560 14.130 C 20.330 13.995,17.683 12.035,17.683 12.000 C 17.683 11.989,18.335 11.494,19.131 10.900 C 19.927 10.306,20.648 9.758,20.732 9.683 C 21.074 9.378,21.135 8.995,20.908 8.580 C 20.778 8.343,20.719 8.297,16.638 5.231 C 14.362 3.521,12.432 2.095,12.349 2.061 C 12.125 1.970,11.807 1.983,11.597 2.091 M15.193 6.640 C 16.911 7.927,18.317 8.989,18.317 9.000 C 18.317 9.018,16.581 10.326,15.742 10.940 C 15.562 11.072,14.655 11.752,13.728 12.450 C 12.800 13.148,12.023 13.720,12.000 13.720 C 11.977 13.720,11.200 13.148,10.272 12.450 C 9.345 11.752,8.438 11.072,8.258 10.940 C 7.419 10.326,5.683 9.018,5.683 9.000 C 5.684 8.950,11.947 4.285,12.004 4.292 C 12.040 4.296,13.474 5.353,15.193 6.640 M9.571 14.425 C 10.412 15.055,11.142 15.623,11.194 15.686 C 11.292 15.808,11.455 15.906,11.658 15.966 C 11.726 15.987,13.001 16.002,14.559 16.000 C 16.253 15.999,17.323 16.012,17.299 16.034 C 17.278 16.055,16.083 17.100,14.645 18.358 C 13.141 19.673,12.007 20.636,11.977 20.624 C 11.865 20.581,5.599 15.065,5.628 15.036 C 5.742 14.924,7.950 13.285,7.991 13.283 C 8.018 13.281,8.729 13.795,9.571 14.425 M16.508 13.630 L 16.974 13.980 16.487 13.991 C 16.219 13.997,15.781 13.997,15.513 13.991 L 15.026 13.980 15.483 13.633 C 15.734 13.442,15.963 13.284,15.991 13.283 C 16.019 13.281,16.251 13.438,16.508 13.630 " stroke="none" fill="black" fill-rule="evenodd"></path></svg>