<svg xmlns="http://www.w3.org/2000/svg" width="24" height="24" viewBox="0 0 24 24" fill="none" stroke="currentColor" stroke-width="2" stroke-linecap="round" stroke-linejoin="round" class="icon icon-tabler icons-tabler-outline icon-tabler-brand-paypay"><path d="M4.499 2.043 C 3.380 2.232,2.461 3.048,2.114 4.160 L 2.020 4.460 2.020 12.000 L 2.020 19.540 2.114 19.840 C 2.419 20.818,3.166 21.570,4.140 21.882 C 4.390 21.962,4.533 21.974,5.480 21.996 C 6.063 22.009,9.474 22.011,13.060 22.000 L 19.580 21.980 19.860 21.886 C 20.851 21.554,21.582 20.816,21.886 19.840 L 21.980 19.540 21.980 12.000 L 21.980 4.460 21.886 4.160 C 21.581 3.182,20.832 2.428,19.861 2.121 L 19.540 2.020 12.120 2.014 C 8.039 2.011,4.609 2.024,4.499 2.043 M19.310 4.061 C 19.589 4.144,19.856 4.411,19.939 4.690 C 19.993 4.870,20.000 5.755,20.000 12.001 C 20.000 17.907,19.991 19.138,19.945 19.290 C 19.872 19.533,19.707 19.740,19.484 19.872 L 19.300 19.980 13.510 19.991 C 8.866 19.999,7.720 19.991,7.721 19.951 C 7.724 19.816,8.280 17.985,8.326 17.955 C 8.356 17.937,8.443 17.921,8.520 17.921 C 8.716 17.920,9.951 17.774,10.599 17.676 C 15.066 16.999,18.021 15.426,18.798 13.312 C 19.005 12.746,19.066 12.285,19.002 11.759 C 18.699 9.266,15.860 7.131,11.260 5.940 C 9.317 5.436,6.416 5.045,4.580 5.040 C 4.140 5.039,4.000 5.015,4.000 4.943 C 4.000 4.916,4.027 4.802,4.061 4.690 C 4.140 4.421,4.412 4.143,4.673 4.063 C 4.964 3.974,19.009 3.971,19.310 4.061 M6.440 7.158 C 7.553 7.263,9.089 7.476,9.147 7.534 C 9.168 7.555,6.740 16.088,6.635 16.360 C 6.589 16.481,6.529 16.689,6.503 16.822 C 6.477 16.955,6.268 17.726,6.038 18.535 L 5.620 20.007 5.160 19.993 C 4.745 19.981,4.682 19.969,4.516 19.872 C 4.415 19.813,4.284 19.700,4.225 19.623 C 3.987 19.311,4.000 19.695,4.000 13.089 L 4.000 7.027 4.810 7.054 C 5.255 7.069,5.989 7.116,6.440 7.158 M12.540 8.423 C 14.726 9.209,16.285 10.284,16.828 11.380 C 17.053 11.834,17.058 12.351,16.840 12.779 C 16.228 13.987,14.093 15.007,10.986 15.579 C 10.359 15.694,8.921 15.894,8.896 15.870 C 8.885 15.858,10.849 8.883,11.103 8.034 C 11.121 7.976,11.173 7.983,11.571 8.102 C 11.818 8.176,12.254 8.320,12.540 8.423 " stroke="none" fill="black" fill-rule="evenodd"></path></svg>