<svg xmlns="http://www.w3.org/2000/svg" width="24" height="24" viewBox="0 0 24 24" fill="none" stroke="currentColor" stroke-width="2" stroke-linecap="round" stroke-linejoin="round" class="icon icon-tabler icons-tabler-outline icon-tabler-solar-panel"><path d="M5.331 5.061 C 4.822 5.171,4.273 5.582,4.025 6.038 C 3.946 6.183,3.783 6.750,3.492 7.893 C 3.261 8.799,3.040 9.684,2.999 9.860 C 2.959 10.036,2.781 10.762,2.603 11.474 C 2.270 12.809,2.241 13.009,2.324 13.408 C 2.481 14.158,3.122 14.799,3.872 14.956 C 4.017 14.986,5.172 15.000,7.542 15.000 L 11.000 15.000 11.000 16.000 L 11.000 17.000 8.906 17.000 C 6.674 17.000,6.592 17.006,6.322 17.199 C 6.100 17.357,6.020 17.568,6.020 18.000 C 6.020 18.331,6.033 18.403,6.120 18.558 C 6.230 18.755,6.414 18.898,6.635 18.959 C 6.834 19.015,17.166 19.015,17.365 18.959 C 17.586 18.898,17.770 18.755,17.880 18.558 C 17.967 18.402,17.980 18.332,17.979 18.000 C 17.978 17.567,17.898 17.355,17.678 17.199 C 17.408 17.006,17.326 17.000,15.094 17.000 L 13.000 17.000 13.000 16.000 L 13.000 15.000 16.458 15.000 C 18.828 15.000,19.983 14.986,20.128 14.956 C 20.878 14.799,21.519 14.158,21.676 13.408 C 21.759 13.009,21.730 12.809,21.397 11.474 C 21.219 10.762,21.041 10.036,21.001 9.860 C 20.960 9.684,20.738 8.798,20.508 7.892 C 20.043 6.069,20.001 5.961,19.613 5.581 C 19.342 5.317,19.005 5.134,18.651 5.059 C 18.259 4.976,5.713 4.977,5.331 5.061 M8.742 7.990 L 8.619 8.980 6.945 8.990 C 5.611 8.999,5.275 8.991,5.289 8.950 C 5.300 8.923,5.414 8.473,5.543 7.950 L 5.778 7.000 7.321 7.000 L 8.864 7.000 8.742 7.990 M13.120 7.030 C 13.120 7.046,13.174 7.483,13.240 8.000 C 13.306 8.517,13.360 8.954,13.360 8.970 C 13.360 8.986,12.748 9.000,12.000 9.000 C 11.252 9.000,10.640 8.986,10.640 8.970 C 10.640 8.954,10.694 8.517,10.760 8.000 C 10.826 7.483,10.880 7.046,10.880 7.030 C 10.880 7.014,11.384 7.000,12.000 7.000 C 12.616 7.000,13.120 7.014,13.120 7.030 M18.457 7.950 C 18.586 8.473,18.700 8.923,18.711 8.950 C 18.725 8.991,18.389 8.999,17.055 8.990 L 15.381 8.980 15.258 7.990 L 15.136 7.000 16.679 7.000 L 18.222 7.000 18.457 7.950 M8.360 11.030 C 8.360 11.047,8.306 11.483,8.240 12.000 C 8.174 12.517,8.120 12.954,8.120 12.970 C 8.120 12.987,7.254 13.000,6.196 13.000 C 4.673 13.000,4.275 12.990,4.290 12.950 C 4.300 12.922,4.414 12.473,4.543 11.950 L 4.778 11.000 6.569 11.000 C 7.554 11.000,8.360 11.013,8.360 11.030 M13.742 12.010 L 13.864 13.000 12.000 13.000 L 10.136 13.000 10.263 12.010 C 10.333 11.466,10.393 11.015,10.395 11.010 C 10.398 11.004,11.124 11.004,12.009 11.010 L 13.619 11.020 13.742 12.010 M19.457 11.950 C 19.586 12.473,19.700 12.922,19.710 12.950 C 19.725 12.990,19.327 13.000,17.804 13.000 C 16.746 13.000,15.880 12.987,15.880 12.970 C 15.880 12.954,15.826 12.517,15.760 12.000 C 15.694 11.483,15.640 11.047,15.640 11.030 C 15.640 11.013,16.446 11.000,17.431 11.000 L 19.222 11.000 19.457 11.950 " stroke="none" fill="black" fill-rule="evenodd"></path></svg>