<svg xmlns="http://www.w3.org/2000/svg" width="24" height="24" viewBox="0 0 24 24" fill="none" stroke="currentColor" stroke-width="2" stroke-linecap="round" stroke-linejoin="round" class="icon icon-tabler icons-tabler-outline icon-tabler-message-language"><path d="M6.358 4.061 C 5.725 4.160,5.119 4.424,4.562 4.843 C 3.860 5.373,3.356 6.140,3.108 7.060 C 3.022 7.380,3.022 7.383,2.995 14.160 C 2.980 17.889,2.966 20.999,2.964 21.071 C 2.959 21.223,3.152 21.668,3.265 21.768 C 3.407 21.894,3.813 22.049,4.001 22.049 C 4.239 22.049,4.682 21.850,4.784 21.696 C 4.826 21.633,5.661 20.776,6.639 19.791 L 8.419 18.000 12.893 18.000 C 17.200 18.000,17.382 17.997,17.757 17.921 C 19.117 17.643,20.193 16.755,20.704 15.488 C 20.779 15.300,20.877 14.972,20.921 14.757 C 20.996 14.387,21.000 14.202,21.000 11.000 C 21.000 7.798,20.996 7.613,20.921 7.243 C 20.628 5.806,19.637 4.680,18.245 4.204 C 17.654 4.002,17.609 4.000,11.960 4.004 C 7.792 4.007,6.629 4.019,6.358 4.061 M17.523 6.073 C 18.022 6.203,18.516 6.599,18.772 7.071 C 18.996 7.485,18.999 7.533,18.999 11.000 C 18.999 14.465,18.996 14.512,18.772 14.931 C 18.625 15.208,18.191 15.643,17.930 15.775 C 17.468 16.009,17.679 16.000,12.579 16.000 C 8.393 16.000,7.871 16.007,7.677 16.064 C 7.472 16.125,7.390 16.199,6.230 17.352 L 5.000 18.576 5.000 13.186 C 5.000 7.201,4.988 7.475,5.265 7.014 C 5.546 6.543,5.988 6.201,6.477 6.073 C 6.719 6.010,7.157 6.005,12.000 6.005 C 16.843 6.005,17.281 6.010,17.523 6.073 M11.499 7.040 C 10.374 7.244,9.485 8.027,9.115 9.140 C 9.022 9.419,9.022 9.432,9.009 11.808 C 9.000 13.389,9.010 14.249,9.038 14.352 C 9.144 14.747,9.432 14.961,9.896 14.991 C 10.381 15.022,10.699 14.882,10.880 14.558 C 10.974 14.391,10.981 14.338,10.994 13.690 L 11.008 13.000 12.004 13.000 L 13.000 13.000 13.000 13.610 C 13.000 13.945,13.019 14.285,13.041 14.365 C 13.148 14.750,13.437 14.962,13.896 14.991 C 14.381 15.022,14.699 14.882,14.880 14.558 L 14.980 14.380 14.980 11.920 L 14.980 9.460 14.886 9.160 C 14.580 8.178,13.810 7.407,12.861 7.129 C 12.500 7.023,11.832 6.980,11.499 7.040 M12.310 9.061 C 12.452 9.103,12.571 9.178,12.697 9.303 C 12.948 9.554,13.000 9.751,13.000 10.447 L 13.000 11.000 12.000 11.000 L 11.000 11.000 11.000 10.447 C 11.000 9.750,11.052 9.554,11.304 9.303 C 11.583 9.024,11.916 8.944,12.310 9.061 " stroke="none" fill="black" fill-rule="evenodd"></path></svg>