<svg xmlns="http://www.w3.org/2000/svg" width="24" height="24" viewBox="0 0 24 24" fill="none" stroke="currentColor" stroke-width="2" stroke-linecap="round" stroke-linejoin="round" class="icon icon-tabler icons-tabler-outline icon-tabler-shield"><path d="M11.660 2.021 C 11.594 2.054,11.333 2.253,11.080 2.464 C 9.775 3.550,8.320 4.281,6.632 4.697 C 5.770 4.909,5.293 4.968,4.180 4.998 C 3.619 5.014,3.135 5.045,3.078 5.069 C 2.911 5.139,2.722 5.319,2.635 5.490 C 2.590 5.578,2.484 5.926,2.399 6.264 C 1.692 9.077,1.966 12.080,3.174 14.745 C 3.846 16.230,4.635 17.360,5.838 18.561 C 7.486 20.206,9.255 21.252,11.460 21.885 C 11.957 22.028,12.043 22.028,12.540 21.885 C 15.328 21.085,17.714 19.430,19.450 17.092 C 21.456 14.390,22.339 10.892,21.858 7.560 C 21.743 6.770,21.500 5.754,21.358 5.476 C 21.277 5.318,21.085 5.138,20.922 5.069 C 20.865 5.045,20.381 5.014,19.820 4.998 C 18.684 4.967,18.185 4.904,17.300 4.680 C 15.658 4.264,14.187 3.520,12.920 2.464 C 12.667 2.253,12.403 2.053,12.334 2.020 C 12.173 1.944,11.816 1.944,11.660 2.021 M12.205 4.455 C 12.842 4.941,13.849 5.527,14.654 5.880 C 16.185 6.552,18.103 7.000,19.444 7.000 C 19.733 7.000,19.720 6.991,19.775 7.242 C 19.994 8.236,20.030 9.866,19.859 11.008 C 19.379 14.201,17.538 17.007,14.800 18.717 C 14.031 19.197,13.338 19.522,12.450 19.819 L 12.000 19.969 11.610 19.840 C 10.338 19.419,9.275 18.852,8.221 18.032 C 6.268 16.513,4.807 14.194,4.281 11.776 C 3.973 10.360,3.944 8.703,4.203 7.360 C 4.277 6.977,4.255 7.000,4.556 7.000 C 5.192 7.000,6.307 6.843,7.140 6.637 C 8.791 6.227,10.558 5.399,11.796 4.454 C 11.892 4.380,11.984 4.320,12.000 4.320 C 12.016 4.320,12.108 4.381,12.205 4.455 " stroke="none" fill="black" fill-rule="evenodd"></path></svg>