<svg xmlns="http://www.w3.org/2000/svg" width="24" height="24" viewBox="0 0 24 24" fill="none" stroke="currentColor" stroke-width="2" stroke-linecap="round" stroke-linejoin="round" class="icon icon-tabler icons-tabler-outline icon-tabler-waterpolo"><path d="M6.174 3.039 C 5.750 3.129,5.329 3.477,5.132 3.900 C 5.035 4.107,5.020 4.190,5.020 4.500 C 5.020 4.811,5.035 4.894,5.133 5.104 C 5.276 5.413,5.585 5.721,5.900 5.868 C 6.107 5.965,6.190 5.980,6.500 5.980 C 6.810 5.980,6.893 5.965,7.100 5.868 C 7.415 5.721,7.724 5.413,7.867 5.104 C 7.965 4.894,7.980 4.811,7.980 4.500 C 7.980 4.189,7.965 4.106,7.867 3.896 C 7.727 3.592,7.415 3.278,7.119 3.143 C 6.870 3.030,6.441 2.982,6.174 3.039 M4.654 7.057 C 4.399 7.176,4.138 7.407,4.037 7.606 C 3.935 7.805,3.937 8.112,4.041 8.330 C 4.085 8.424,4.846 9.463,5.731 10.639 C 7.155 12.532,7.361 12.789,7.520 12.869 C 7.630 12.925,8.404 13.116,9.520 13.364 C 10.521 13.587,11.344 13.772,11.349 13.776 C 11.353 13.780,11.277 14.260,11.179 14.842 C 10.980 16.024,10.966 16.261,11.079 16.509 C 11.278 16.948,12.158 17.157,12.592 16.870 C 12.870 16.686,12.932 16.495,13.161 15.122 C 13.272 14.451,13.367 13.900,13.372 13.897 C 13.376 13.894,14.941 13.684,16.848 13.429 C 20.727 12.913,20.647 12.929,20.867 12.596 C 20.970 12.441,20.980 12.394,20.980 12.063 C 20.980 11.397,20.719 11.050,20.191 11.014 C 20.014 11.002,18.856 11.142,16.244 11.492 L 12.549 11.988 10.564 11.548 L 8.580 11.107 7.120 9.164 C 5.500 7.007,5.456 6.960,5.065 6.960 C 4.933 6.961,4.787 6.995,4.654 7.057 M12.477 7.073 C 11.806 7.249,11.238 7.823,11.060 8.508 C 10.941 8.962,11.003 9.492,11.225 9.930 C 11.361 10.199,11.801 10.639,12.070 10.775 C 12.659 11.073,13.341 11.073,13.930 10.775 C 14.196 10.640,14.638 10.200,14.771 9.937 C 14.994 9.498,15.052 9.007,14.940 8.529 C 14.858 8.182,14.720 7.927,14.465 7.653 C 14.074 7.232,13.560 7.005,13.000 7.005 C 12.857 7.005,12.622 7.036,12.477 7.073 M7.360 16.060 C 6.823 16.152,6.250 16.413,5.797 16.773 C 5.675 16.870,5.440 17.109,5.276 17.304 C 4.923 17.722,4.748 17.851,4.411 17.943 C 4.099 18.029,3.817 18.004,3.474 17.860 C 3.325 17.798,3.112 17.746,2.960 17.735 C 2.740 17.719,2.676 17.730,2.542 17.808 C 2.126 18.051,1.850 18.741,2.014 19.131 C 2.265 19.727,3.612 20.143,4.646 19.943 C 5.480 19.783,6.153 19.379,6.721 18.698 C 7.144 18.192,7.496 18.000,8.000 18.000 C 8.504 18.000,8.856 18.192,9.278 18.697 C 9.995 19.556,10.924 20.000,12.004 20.000 C 13.073 20.000,14.008 19.552,14.721 18.698 C 15.144 18.192,15.496 18.000,16.000 18.000 C 16.504 18.000,16.856 18.192,17.278 18.697 C 17.857 19.390,18.563 19.807,19.417 19.958 C 20.416 20.135,21.744 19.708,21.986 19.131 C 22.150 18.741,21.874 18.051,21.458 17.808 C 21.324 17.730,21.260 17.719,21.040 17.735 C 20.888 17.746,20.675 17.798,20.526 17.860 C 20.183 18.004,19.901 18.029,19.589 17.943 C 19.252 17.851,19.077 17.722,18.724 17.304 C 18.560 17.109,18.325 16.870,18.203 16.773 C 16.912 15.748,15.088 15.748,13.797 16.773 C 13.675 16.870,13.440 17.109,13.276 17.304 C 13.111 17.499,12.905 17.707,12.818 17.767 C 12.373 18.070,11.627 18.070,11.182 17.767 C 11.095 17.707,10.889 17.499,10.724 17.304 C 10.560 17.109,10.325 16.870,10.203 16.773 C 9.405 16.140,8.385 15.884,7.360 16.060 " stroke="none" fill="black" fill-rule="evenodd"></path></svg>