<svg xmlns="http://www.w3.org/2000/svg" width="24" height="24" viewBox="0 0 24 24" fill="none" stroke="currentColor" stroke-width="2" stroke-linecap="round" stroke-linejoin="round" class="icon icon-tabler icons-tabler-outline icon-tabler-square-rounded-letter-g"><path d="M10.349 2.044 C 7.535 2.178,5.738 2.713,4.406 3.814 C 3.787 4.326,3.247 5.075,2.885 5.924 C 2.566 6.671,2.342 7.527,2.205 8.520 C 2.051 9.633,2.021 10.208,2.021 12.000 C 2.021 13.792,2.051 14.367,2.205 15.480 C 2.744 19.396,4.610 21.251,8.560 21.800 C 9.623 21.948,10.220 21.979,12.000 21.979 C 13.780 21.979,14.377 21.948,15.440 21.800 C 16.241 21.689,16.753 21.574,17.401 21.361 C 20.018 20.502,21.344 18.717,21.800 15.440 C 21.948 14.377,21.979 13.780,21.979 12.000 C 21.979 10.220,21.948 9.623,21.800 8.560 C 21.494 6.357,20.759 4.778,19.594 3.814 C 18.657 3.040,17.469 2.539,15.960 2.283 C 14.520 2.039,12.378 1.947,10.349 2.044 M13.500 4.041 C 16.040 4.168,17.512 4.591,18.435 5.458 C 19.509 6.468,19.999 8.517,19.999 12.000 C 19.999 15.490,19.511 17.527,18.430 18.548 C 17.356 19.562,15.410 20.000,11.992 20.000 C 8.581 19.999,6.644 19.561,5.570 18.548 C 4.489 17.527,4.001 15.490,4.001 12.000 C 4.001 10.005,4.176 8.385,4.505 7.320 C 5.052 5.555,6.056 4.719,8.129 4.302 C 9.412 4.045,11.521 3.942,13.500 4.041 M11.499 7.043 C 10.383 7.230,9.461 8.048,9.114 9.160 L 9.020 9.460 9.020 12.000 L 9.020 14.540 9.114 14.840 C 9.419 15.817,10.158 16.562,11.140 16.884 C 11.405 16.971,11.492 16.976,12.804 16.991 C 13.715 17.001,14.243 16.992,14.348 16.963 C 14.583 16.900,14.767 16.760,14.880 16.558 L 14.980 16.380 14.980 14.000 L 14.980 11.620 14.891 11.453 C 14.785 11.256,14.622 11.131,14.371 11.055 C 14.117 10.979,12.883 10.979,12.629 11.055 C 12.224 11.177,12.040 11.428,12.009 11.900 C 11.968 12.532,12.251 12.922,12.797 12.987 L 13.000 13.011 13.000 14.009 L 13.000 15.007 12.350 14.993 C 11.728 14.981,11.692 14.975,11.516 14.872 C 11.415 14.813,11.284 14.700,11.225 14.623 C 11.000 14.327,11.000 14.332,11.000 12.022 C 11.000 9.586,10.997 9.609,11.303 9.303 C 11.588 9.018,11.692 9.000,13.057 9.000 C 13.713 9.000,14.283 8.982,14.365 8.959 C 14.586 8.898,14.770 8.755,14.880 8.558 C 14.967 8.402,14.980 8.332,14.979 8.000 C 14.978 7.567,14.898 7.355,14.678 7.199 C 14.423 7.017,14.269 7.000,12.944 7.005 C 12.260 7.007,11.609 7.025,11.499 7.043 " stroke="none" fill="black" fill-rule="evenodd"></path></svg>