<svg xmlns="http://www.w3.org/2000/svg" width="24" height="24" viewBox="0 0 24 24" fill="none" stroke="currentColor" stroke-width="2" stroke-linecap="round" stroke-linejoin="round" class="icon icon-tabler icons-tabler-outline icon-tabler-world-star"><path d="M11.040 2.026 C 10.919 2.052,10.577 2.113,10.280 2.161 C 7.548 2.603,4.990 4.327,3.509 6.724 C 2.549 8.277,2.070 9.885,2.013 11.740 C 1.942 14.087,2.671 16.284,4.155 18.200 C 4.499 18.644,5.369 19.516,5.800 19.848 C 7.280 20.988,8.834 21.644,10.708 21.918 C 11.269 22.000,11.497 21.953,11.745 21.705 C 12.078 21.373,12.135 20.658,11.858 20.294 C 11.719 20.112,11.476 20.011,11.004 19.941 C 10.059 19.799,9.321 19.581,8.580 19.225 C 7.256 18.589,6.172 17.651,5.339 16.420 L 5.068 16.020 6.701 16.010 C 7.600 16.004,8.347 16.013,8.361 16.030 C 8.376 16.046,8.447 16.294,8.520 16.580 C 8.734 17.420,8.909 17.700,9.286 17.802 C 9.645 17.898,10.269 17.685,10.481 17.392 C 10.659 17.146,10.672 16.942,10.540 16.403 C 10.465 16.094,10.443 15.939,10.472 15.929 C 10.605 15.885,10.792 15.715,10.880 15.558 C 10.967 15.402,10.980 15.332,10.979 15.000 C 10.978 14.686,10.962 14.591,10.889 14.451 C 10.776 14.238,10.562 14.092,10.275 14.032 L 10.049 13.986 10.025 13.783 C 9.909 12.822,9.901 11.407,10.007 10.430 L 10.053 10.000 12.007 10.000 L 13.960 10.000 13.961 10.090 C 13.963 10.303,14.082 11.313,14.122 11.453 C 14.178 11.649,14.432 11.903,14.627 11.957 C 14.826 12.012,15.198 12.012,15.420 11.956 C 15.655 11.897,15.897 11.683,15.983 11.458 C 16.041 11.305,16.048 11.197,16.026 10.764 C 16.012 10.482,15.989 10.195,15.975 10.126 L 15.950 10.000 17.852 10.000 L 19.753 10.000 19.798 10.207 C 19.896 10.664,19.959 11.171,19.992 11.764 C 20.023 12.309,20.039 12.410,20.124 12.562 C 20.301 12.883,20.625 13.024,21.105 12.988 C 21.526 12.957,21.738 12.833,21.905 12.520 C 21.970 12.399,21.980 12.291,21.977 11.720 C 21.969 9.666,21.178 7.481,19.828 5.783 C 18.315 3.879,16.064 2.542,13.740 2.164 C 13.454 2.118,13.121 2.060,13.000 2.035 C 12.697 1.974,11.315 1.968,11.040 2.026 M12.332 4.750 C 12.807 5.681,13.177 6.609,13.445 7.540 C 13.508 7.760,13.560 7.953,13.560 7.970 C 13.560 7.986,12.858 8.000,12.000 8.000 C 11.142 8.000,10.440 7.990,10.440 7.978 C 10.440 7.859,10.806 6.733,11.058 6.080 C 11.240 5.607,11.946 4.160,11.994 4.160 C 12.014 4.160,12.166 4.426,12.332 4.750 M15.420 4.777 C 16.810 5.436,18.080 6.575,18.824 7.830 L 18.925 8.000 17.281 8.000 C 16.000 8.000,15.634 7.989,15.624 7.950 C 15.616 7.923,15.552 7.675,15.480 7.400 C 15.297 6.691,14.950 5.679,14.654 4.986 C 14.514 4.660,14.400 4.386,14.400 4.377 C 14.400 4.343,15.004 4.580,15.420 4.777 M9.535 4.550 C 9.114 5.503,8.711 6.649,8.498 7.500 C 8.437 7.742,8.376 7.954,8.361 7.970 C 8.347 7.987,7.601 7.996,6.704 7.990 L 5.074 7.980 5.282 7.660 C 6.027 6.516,7.063 5.569,8.266 4.932 C 8.712 4.696,9.410 4.403,9.531 4.401 C 9.597 4.400,9.597 4.408,9.535 4.550 M8.025 10.130 C 7.897 10.820,7.896 13.290,8.023 13.890 L 8.046 14.000 6.146 14.000 L 4.247 14.000 4.202 13.793 C 4.059 13.124,4.025 12.791,4.024 12.020 C 4.023 11.241,4.051 10.951,4.186 10.310 L 4.252 10.000 6.150 10.000 L 8.049 10.000 8.025 10.130 M17.372 13.072 C 17.112 13.165,16.870 13.331,16.723 13.517 C 16.661 13.596,16.403 14.074,16.150 14.580 L 15.689 15.501 14.657 15.651 C 13.546 15.812,13.351 15.870,13.063 16.122 C 12.745 16.402,12.575 16.831,12.611 17.267 C 12.646 17.710,12.753 17.864,13.623 18.726 C 14.233 19.330,14.399 19.517,14.384 19.580 C 14.373 19.624,14.289 20.107,14.197 20.653 L 14.030 21.645 14.095 21.913 C 14.262 22.595,14.870 23.044,15.552 22.989 C 15.821 22.968,16.039 22.871,17.330 22.198 L 17.800 21.953 18.270 22.198 C 19.561 22.871,19.779 22.968,20.048 22.989 C 20.724 23.043,21.333 22.598,21.503 21.925 C 21.576 21.635,21.580 21.680,21.357 20.400 L 21.200 19.500 21.979 18.726 C 22.844 17.867,22.944 17.722,22.986 17.276 C 23.027 16.835,22.860 16.406,22.537 16.122 C 22.249 15.870,22.054 15.812,20.943 15.651 L 19.911 15.501 19.434 14.548 C 18.905 13.491,18.773 13.315,18.370 13.130 C 18.069 12.992,17.662 12.969,17.372 13.072 M18.121 16.405 C 18.445 17.059,18.612 17.261,18.907 17.352 C 18.991 17.378,19.336 17.439,19.672 17.487 L 20.285 17.574 19.787 18.077 C 19.512 18.354,19.259 18.638,19.223 18.709 C 19.109 18.939,19.107 19.150,19.216 19.772 C 19.273 20.097,19.320 20.390,19.320 20.423 C 19.320 20.465,19.131 20.386,18.690 20.158 C 18.091 19.848,18.047 19.832,17.800 19.832 C 17.553 19.832,17.509 19.848,16.910 20.158 C 16.417 20.412,16.280 20.468,16.280 20.415 C 16.280 20.378,16.327 20.084,16.384 19.763 C 16.493 19.150,16.492 18.939,16.377 18.709 C 16.341 18.638,16.088 18.354,15.813 18.077 L 15.315 17.574 15.928 17.487 C 16.264 17.439,16.609 17.378,16.693 17.352 C 16.988 17.261,17.155 17.059,17.479 16.405 C 17.643 16.072,17.788 15.800,17.800 15.800 C 17.812 15.800,17.957 16.072,18.121 16.405 " stroke="none" fill="black" fill-rule="evenodd"></path></svg>