<svg xmlns="http://www.w3.org/2000/svg" width="24" height="24" viewBox="0 0 24 24" fill="none" stroke="currentColor" stroke-width="2" stroke-linecap="round" stroke-linejoin="round" class="icon icon-tabler icons-tabler-outline icon-tabler-servicemark"><path d="M18.535 8.090 C 18.380 8.193,18.103 8.537,17.180 9.768 C 16.542 10.620,16.011 11.316,16.000 11.316 C 15.989 11.316,15.458 10.620,14.820 9.769 C 13.486 7.990,13.518 8.020,12.960 8.020 C 12.471 8.020,12.152 8.233,12.041 8.635 C 11.986 8.832,11.986 15.168,12.041 15.365 C 12.148 15.750,12.437 15.962,12.896 15.991 C 13.381 16.022,13.699 15.882,13.880 15.558 L 13.980 15.380 14.000 13.704 L 14.020 12.028 14.680 12.904 C 15.438 13.911,15.582 14.040,15.941 14.040 C 16.102 14.040,16.214 14.008,16.407 13.910 C 16.649 13.785,16.688 13.742,17.320 12.903 L 17.980 12.028 18.000 13.704 L 18.020 15.380 18.120 15.558 C 18.287 15.856,18.572 16.000,19.000 16.000 C 19.428 16.000,19.713 15.856,19.880 15.558 L 19.980 15.380 19.991 12.090 L 20.002 8.800 19.899 8.582 C 19.782 8.334,19.628 8.189,19.340 8.054 C 19.040 7.914,18.780 7.926,18.535 8.090 M5.960 8.062 C 5.605 8.138,5.107 8.393,4.832 8.639 C 4.532 8.907,4.239 9.352,4.118 9.722 C 4.034 9.976,4.020 10.094,4.022 10.520 C 4.024 10.959,4.038 11.056,4.133 11.320 C 4.391 12.037,4.962 12.607,5.680 12.866 C 5.961 12.968,6.031 12.976,6.800 12.992 C 7.702 13.010,7.786 13.030,7.922 13.252 C 8.068 13.492,7.977 13.807,7.724 13.938 C 7.622 13.991,7.390 14.000,6.208 14.000 C 4.724 14.000,4.580 14.015,4.322 14.199 C 4.100 14.357,4.020 14.568,4.020 15.000 C 4.020 15.331,4.033 15.403,4.120 15.558 C 4.233 15.759,4.417 15.900,4.649 15.963 C 4.752 15.990,5.368 16.000,6.413 15.992 L 8.020 15.979 8.320 15.869 C 9.040 15.605,9.606 15.039,9.867 14.320 C 9.965 14.051,9.976 13.966,9.976 13.500 C 9.976 13.035,9.965 12.948,9.868 12.680 C 9.646 12.068,9.195 11.561,8.620 11.277 C 8.172 11.055,7.869 11.002,7.068 11.001 C 6.319 11.000,6.216 10.974,6.078 10.748 C 5.935 10.513,6.009 10.226,6.252 10.078 C 6.373 10.005,6.462 10.000,7.800 10.000 C 8.627 10.000,9.280 9.983,9.365 9.959 C 9.586 9.898,9.770 9.755,9.880 9.558 C 9.967 9.402,9.980 9.332,9.979 9.000 C 9.978 8.687,9.962 8.591,9.890 8.453 C 9.786 8.256,9.623 8.131,9.371 8.055 C 9.108 7.976,6.335 7.982,5.960 8.062 " stroke="none" fill="black" fill-rule="evenodd"></path></svg>