<svg xmlns="http://www.w3.org/2000/svg" width="24" height="24" viewBox="0 0 24 24" fill="none" stroke="currentColor" stroke-width="2" stroke-linecap="round" stroke-linejoin="round" class="icon icon-tabler icons-tabler-outline icon-tabler-teapot"><path d="M9.860 2.027 C 9.416 2.093,8.885 2.312,8.520 2.580 C 8.254 2.776,7.876 3.187,7.711 3.460 C 7.523 3.771,7.367 4.241,7.310 4.664 L 7.265 5.000 5.495 5.000 C 4.345 5.000,3.650 5.016,3.512 5.045 C 2.875 5.179,2.332 5.654,2.112 6.268 C 2.007 6.562,1.975 7.008,2.040 7.286 C 2.150 7.759,2.261 7.912,3.883 9.820 C 4.743 10.832,5.662 11.915,5.925 12.227 L 6.403 12.794 6.082 15.707 C 5.905 17.309,5.751 18.713,5.738 18.826 C 5.687 19.289,5.877 20.061,6.163 20.546 C 6.238 20.674,6.444 20.924,6.621 21.103 C 6.980 21.467,7.349 21.695,7.860 21.870 L 8.180 21.980 12.000 21.980 L 15.820 21.980 16.140 21.870 C 16.650 21.695,17.020 21.466,17.379 21.103 C 17.877 20.601,18.143 20.058,18.243 19.337 C 18.287 19.022,18.279 18.922,18.078 17.127 C 18.013 16.548,17.960 16.033,17.960 15.982 C 17.960 15.905,18.002 15.877,18.230 15.800 C 19.651 15.324,20.655 14.168,20.937 12.685 C 21.027 12.207,21.030 8.860,20.940 8.344 C 20.762 7.327,20.229 6.440,19.436 5.842 C 19.080 5.574,18.646 5.341,18.245 5.204 C 17.944 5.101,17.320 5.001,16.977 5.000 L 16.735 5.000 16.690 4.664 C 16.598 3.979,16.342 3.428,15.902 2.966 C 15.605 2.655,15.385 2.490,15.020 2.308 C 14.448 2.021,14.499 2.026,12.120 2.018 C 10.943 2.013,9.926 2.018,9.860 2.027 M14.104 4.096 C 14.424 4.245,14.635 4.514,14.696 4.850 L 14.724 5.000 12.000 5.000 L 9.276 5.000 9.304 4.850 C 9.365 4.514,9.576 4.245,9.896 4.096 L 10.100 4.001 12.000 4.001 L 13.900 4.001 14.104 4.096 M7.040 7.035 C 7.040 7.091,6.718 9.977,6.708 10.012 C 6.703 10.030,6.267 9.535,5.739 8.913 C 5.212 8.290,4.630 7.605,4.448 7.390 L 4.115 7.000 5.578 7.000 C 6.382 7.000,7.040 7.016,7.040 7.035 M15.427 11.400 C 15.696 13.809,15.917 15.830,15.918 15.890 L 15.920 16.000 12.000 16.000 C 8.191 16.000,8.080 15.998,8.080 15.925 C 8.080 15.641,8.413 12.949,8.465 12.813 C 8.506 12.706,8.521 12.577,8.509 12.453 C 8.492 12.292,9.013 7.210,9.062 7.050 C 9.074 7.010,9.683 7.002,12.008 7.010 L 14.938 7.020 15.427 11.400 M17.523 7.073 C 18.022 7.203,18.516 7.599,18.772 8.071 C 18.979 8.454,18.999 8.661,18.999 10.500 C 18.999 12.338,18.980 12.543,18.772 12.931 C 18.630 13.199,18.199 13.629,17.933 13.772 L 17.725 13.882 17.701 13.711 C 17.674 13.519,16.960 7.083,16.960 7.032 C 16.960 6.979,17.242 7.000,17.523 7.073 M16.176 18.150 C 16.190 18.233,16.213 18.516,16.227 18.781 C 16.249 19.218,16.244 19.276,16.167 19.426 C 16.059 19.637,15.769 19.893,15.568 19.953 C 15.344 20.020,8.656 20.020,8.432 19.953 C 8.231 19.893,7.941 19.637,7.833 19.426 C 7.756 19.276,7.751 19.218,7.773 18.781 C 7.787 18.516,7.810 18.233,7.824 18.150 L 7.850 18.000 12.000 18.000 L 16.150 18.000 16.176 18.150 " stroke="none" fill="black" fill-rule="evenodd"></path></svg>