<svg xmlns="http://www.w3.org/2000/svg" width="24" height="24" viewBox="0 0 24 24" fill="none" stroke="currentColor" stroke-width="2" stroke-linecap="round" stroke-linejoin="round" class="icon icon-tabler icons-tabler-outline icon-tabler-letter-k"><path d="M16.620 3.046 C 16.520 3.097,14.981 4.606,12.520 7.064 L 8.579 11.000 8.291 11.000 L 8.002 11.000 7.991 7.310 L 7.980 3.620 7.889 3.450 C 7.724 3.140,7.329 2.970,6.874 3.011 C 6.439 3.051,6.141 3.274,6.041 3.635 C 5.985 3.835,5.985 20.165,6.041 20.365 C 6.148 20.750,6.437 20.962,6.896 20.991 C 7.381 21.022,7.699 20.882,7.880 20.558 L 7.980 20.380 7.991 16.690 L 8.002 13.000 8.291 13.000 L 8.579 13.000 12.520 16.936 C 15.325 19.738,16.511 20.898,16.637 20.961 C 16.990 21.137,17.355 21.048,17.701 20.701 C 18.048 20.355,18.137 19.990,17.961 19.637 C 17.898 19.511,16.794 18.380,14.147 15.730 L 10.421 12.000 14.147 8.270 C 16.794 5.620,17.898 4.489,17.961 4.363 C 18.137 4.010,18.048 3.645,17.701 3.299 C 17.361 2.959,16.968 2.867,16.620 3.046 " stroke="none" fill="black" fill-rule="evenodd"></path></svg>