<svg xmlns="http://www.w3.org/2000/svg" width="24" height="24" viewBox="0 0 24 24" fill="none" stroke="currentColor" stroke-width="2" stroke-linecap="round" stroke-linejoin="round" class="icon icon-tabler icons-tabler-outline icon-tabler-device-ipad-horizontal-off"><path d="M2.626 2.045 C 2.420 2.154,2.146 2.433,2.038 2.644 C 1.894 2.926,1.938 3.286,2.144 3.523 C 2.192 3.577,2.171 3.612,1.981 3.792 C 1.533 4.217,1.290 4.601,1.114 5.161 L 1.020 5.460 1.020 12.000 L 1.020 18.540 1.114 18.840 C 1.418 19.816,2.149 20.554,3.140 20.886 L 3.420 20.980 11.497 20.991 L 19.575 21.001 20.019 21.436 C 20.264 21.675,20.543 21.910,20.639 21.960 C 20.988 22.137,21.354 22.048,21.701 21.701 C 22.048 21.354,22.137 20.988,21.960 20.640 C 21.888 20.499,21.175 19.705,20.750 19.293 C 20.604 19.152,4.870 3.416,4.760 3.302 C 4.372 2.898,3.502 2.113,3.367 2.044 C 3.153 1.934,2.835 1.935,2.626 2.045 M7.614 3.057 C 7.377 3.132,7.212 3.261,7.109 3.453 C 7.035 3.592,7.020 3.684,7.020 4.000 C 7.020 4.331,7.033 4.403,7.120 4.558 C 7.230 4.755,7.414 4.898,7.635 4.959 C 7.729 4.985,9.938 5.000,13.943 5.000 C 20.881 5.000,20.371 4.977,20.697 5.303 C 21.023 5.629,21.000 5.119,21.000 12.057 C 21.000 16.062,21.015 18.271,21.041 18.365 C 21.148 18.750,21.437 18.962,21.896 18.991 C 22.381 19.022,22.699 18.882,22.880 18.558 L 22.980 18.380 22.980 11.920 L 22.980 5.460 22.886 5.160 C 22.581 4.182,21.832 3.428,20.861 3.121 L 20.540 3.020 14.160 3.012 C 8.990 3.006,7.748 3.014,7.614 3.057 M9.120 10.540 L 14.580 16.000 11.696 16.000 C 8.615 16.000,8.600 16.001,8.322 16.199 C 8.100 16.357,8.020 16.568,8.020 17.000 C 8.020 17.331,8.033 17.403,8.120 17.558 C 8.232 17.758,8.416 17.900,8.644 17.961 C 8.743 17.988,9.940 17.998,12.088 17.991 L 15.380 17.980 15.558 17.880 C 15.716 17.792,15.791 17.710,15.940 17.463 C 15.974 17.408,16.109 17.526,16.780 18.199 L 17.580 19.001 10.640 18.990 L 3.700 18.980 3.516 18.872 C 3.415 18.813,3.284 18.700,3.225 18.623 C 2.987 18.311,3.000 18.701,3.000 12.021 C 3.000 5.447,2.993 5.676,3.198 5.412 C 3.297 5.283,3.554 5.080,3.617 5.080 C 3.641 5.080,6.117 7.537,9.120 10.540 " stroke="none" fill="black" fill-rule="evenodd"></path></svg>