<svg xmlns="http://www.w3.org/2000/svg" width="24" height="24" viewBox="0 0 24 24" fill="none" stroke="currentColor" stroke-width="2" stroke-linecap="round" stroke-linejoin="round" class="icon icon-tabler icons-tabler-outline icon-tabler-armchair-2"><path d="M7.358 2.061 C 6.023 2.269,4.857 3.186,4.316 4.455 C 4.035 5.113,4.027 5.184,4.003 7.253 L 3.980 9.126 3.720 9.217 C 2.350 9.697,1.370 10.816,1.083 12.227 C 0.700 14.105,1.756 16.031,3.540 16.711 C 3.716 16.778,3.891 16.843,3.930 16.855 C 3.995 16.876,4.000 16.969,4.000 18.049 C 4.000 18.710,4.018 19.283,4.041 19.365 C 4.102 19.586,4.245 19.770,4.442 19.880 C 4.609 19.974,4.661 19.981,5.310 19.993 L 6.000 20.007 6.000 20.613 C 6.000 20.947,6.019 21.285,6.041 21.365 C 6.148 21.750,6.437 21.962,6.896 21.991 C 7.381 22.022,7.699 21.882,7.880 21.558 C 7.974 21.391,7.981 21.338,7.994 20.690 L 8.008 20.000 12.004 20.000 L 16.000 20.000 16.000 20.610 C 16.000 20.946,16.019 21.285,16.041 21.365 C 16.148 21.750,16.437 21.962,16.896 21.991 C 17.381 22.022,17.699 21.882,17.880 21.558 C 17.974 21.391,17.981 21.338,17.994 20.690 L 18.008 20.000 18.614 20.000 C 18.947 20.000,19.285 19.981,19.365 19.959 C 19.586 19.898,19.770 19.755,19.880 19.558 C 19.980 19.380,19.980 19.378,19.993 18.128 C 20.004 16.995,20.012 16.873,20.073 16.854 C 21.336 16.455,22.238 15.644,22.704 14.488 C 23.560 12.365,22.464 9.982,20.280 9.217 L 20.020 9.126 19.997 7.253 C 19.972 5.207,19.971 5.199,19.714 4.540 C 19.199 3.220,18.007 2.270,16.605 2.058 C 16.063 1.977,7.884 1.979,7.358 2.061 M16.523 4.073 C 17.240 4.260,17.841 4.916,17.960 5.640 C 17.987 5.803,17.999 6.502,17.991 7.513 L 17.980 9.126 17.720 9.217 C 17.317 9.359,16.922 9.572,16.562 9.844 C 16.228 10.095,15.785 10.573,15.630 10.849 L 15.545 11.000 12.000 11.000 L 8.455 11.000 8.370 10.849 C 8.215 10.573,7.772 10.095,7.438 9.844 C 7.078 9.572,6.683 9.359,6.280 9.217 L 6.020 9.126 6.009 7.473 C 6.000 6.090,6.008 5.773,6.061 5.535 C 6.210 4.854,6.795 4.251,7.477 4.073 C 7.718 4.010,8.102 4.005,12.000 4.005 C 15.898 4.005,16.282 4.010,16.523 4.073 M5.523 11.073 C 6.022 11.203,6.516 11.599,6.772 12.071 C 6.968 12.433,6.999 12.698,7.000 14.020 C 7.000 14.698,7.018 15.283,7.041 15.365 C 7.148 15.750,7.437 15.962,7.896 15.991 C 8.381 16.022,8.699 15.882,8.880 15.558 C 8.979 15.381,8.980 15.374,8.993 14.190 L 9.005 13.000 12.003 13.000 L 15.000 13.000 15.000 14.110 C 15.000 14.730,15.018 15.284,15.041 15.365 C 15.148 15.750,15.437 15.962,15.896 15.991 C 16.381 16.022,16.699 15.882,16.880 15.558 C 16.980 15.380,16.980 15.379,17.003 13.980 C 17.028 12.416,17.037 12.360,17.314 11.937 C 17.810 11.181,18.661 10.848,19.523 11.073 C 20.943 11.444,21.470 13.249,20.477 14.336 C 20.083 14.766,19.693 14.948,19.047 14.999 C 18.429 15.049,18.156 15.222,18.041 15.635 C 18.018 15.716,18.000 16.270,18.000 16.890 L 18.000 18.000 12.003 18.000 L 6.005 18.000 5.993 16.810 C 5.981 15.669,5.976 15.613,5.891 15.453 C 5.735 15.162,5.403 15.000,4.962 15.000 C 4.111 15.000,3.292 14.359,3.073 13.523 C 2.740 12.246,3.690 11.005,5.000 11.005 C 5.143 11.005,5.378 11.036,5.523 11.073 " stroke="none" fill="black" fill-rule="evenodd"></path></svg>