<svg xmlns="http://www.w3.org/2000/svg" width="24" height="24" viewBox="0 0 24 24" fill="none" stroke="currentColor" stroke-width="2" stroke-linecap="round" stroke-linejoin="round" class="icon icon-tabler icons-tabler-outline icon-tabler-arrow-ramp-right"><path d="M6.530 2.083 C 6.393 2.150,6.249 2.252,6.210 2.311 C 6.172 2.369,5.237 3.327,4.134 4.439 C 2.766 5.818,2.101 6.516,2.040 6.637 C 1.863 6.989,1.952 7.354,2.299 7.701 C 2.646 8.048,3.011 8.137,3.363 7.960 C 3.479 7.901,3.961 7.452,4.770 6.647 L 6.000 5.423 6.000 8.664 C 6.000 12.270,5.994 12.180,6.261 12.448 C 6.602 12.788,7.398 12.788,7.739 12.448 C 8.006 12.180,8.000 12.270,8.000 8.664 L 8.000 5.423 9.230 6.647 C 10.039 7.452,10.521 7.901,10.637 7.960 C 10.989 8.137,11.354 8.048,11.701 7.701 C 12.048 7.354,12.137 6.989,11.960 6.637 C 11.899 6.516,11.234 5.818,9.866 4.439 C 8.763 3.327,7.828 2.369,7.789 2.310 C 7.751 2.252,7.604 2.149,7.464 2.082 C 7.120 1.918,6.871 1.918,6.530 2.083 M16.626 5.045 C 16.257 5.239,15.951 5.673,15.951 6.000 C 15.951 6.333,16.057 6.467,17.347 7.764 L 18.565 8.988 17.752 9.013 C 16.220 9.062,15.038 9.292,13.690 9.803 C 9.800 11.280,6.883 14.829,6.180 18.940 C 6.016 19.904,5.950 21.039,6.041 21.365 C 6.148 21.750,6.437 21.962,6.896 21.991 C 7.378 22.021,7.700 21.881,7.875 21.565 C 7.957 21.416,7.974 21.314,8.003 20.767 C 8.047 19.957,8.068 19.769,8.183 19.134 C 8.538 17.183,9.491 15.388,10.940 13.940 C 12.859 12.020,15.337 11.003,18.099 11.000 L 18.577 11.000 17.353 12.230 C 16.548 13.039,16.099 13.521,16.040 13.637 C 15.863 13.989,15.952 14.354,16.299 14.701 C 16.646 15.048,17.011 15.137,17.363 14.960 C 17.484 14.899,18.182 14.234,19.561 12.866 C 20.673 11.763,21.634 10.826,21.696 10.784 C 21.850 10.682,22.049 10.239,22.049 10.000 C 22.049 9.745,21.851 9.321,21.676 9.201 C 21.601 9.150,20.640 8.213,19.540 7.118 C 18.232 5.817,17.482 5.099,17.372 5.044 C 17.152 4.934,16.835 4.935,16.626 5.045 " stroke="none" fill="black" fill-rule="evenodd"></path></svg>