<svg xmlns="http://www.w3.org/2000/svg" width="24" height="24" viewBox="0 0 24 24" fill="none" stroke="currentColor" stroke-width="2" stroke-linecap="round" stroke-linejoin="round" class="icon icon-tabler icons-tabler-outline icon-tabler-layout-align-center"><path d="M11.614 3.057 C 11.377 3.131,11.212 3.261,11.109 3.453 C 11.021 3.619,11.020 3.633,11.009 5.807 L 10.997 7.995 9.229 8.009 C 7.477 8.023,7.457 8.024,7.139 8.123 C 6.173 8.423,5.419 9.181,5.114 10.160 C 5.022 10.453,5.020 10.497,5.020 12.000 C 5.020 13.503,5.022 13.547,5.114 13.840 C 5.419 14.817,6.155 15.560,7.140 15.884 C 7.413 15.974,7.467 15.977,9.210 15.991 L 11.000 16.005 11.000 18.113 C 11.000 19.401,11.016 20.276,11.041 20.365 C 11.148 20.750,11.437 20.962,11.896 20.991 C 12.381 21.022,12.699 20.882,12.880 20.558 L 12.980 20.380 12.992 18.193 L 13.003 16.005 14.792 15.991 L 16.580 15.978 16.887 15.874 C 17.858 15.546,18.584 14.807,18.886 13.840 C 18.978 13.547,18.980 13.503,18.980 12.000 C 18.980 10.497,18.978 10.453,18.886 10.160 C 18.581 9.181,17.827 8.423,16.861 8.123 C 16.543 8.024,16.523 8.023,14.772 8.009 L 13.003 7.995 12.992 5.807 C 12.980 3.633,12.979 3.619,12.891 3.453 C 12.842 3.362,12.746 3.247,12.678 3.199 C 12.414 3.010,11.957 2.950,11.614 3.057 M16.310 10.061 C 16.589 10.144,16.856 10.411,16.939 10.690 C 17.023 10.972,17.028 13.015,16.945 13.290 C 16.872 13.533,16.707 13.740,16.484 13.872 L 16.300 13.980 12.000 13.980 L 7.700 13.980 7.516 13.872 C 7.303 13.747,7.141 13.550,7.058 13.316 C 6.972 13.071,6.974 10.982,7.061 10.690 C 7.140 10.421,7.412 10.143,7.673 10.063 C 7.962 9.974,16.011 9.972,16.310 10.061 " stroke="none" fill="black" fill-rule="evenodd"></path></svg>