<svg xmlns="http://www.w3.org/2000/svg" width="24" height="24" viewBox="0 0 24 24" fill="none" stroke="currentColor" stroke-width="2" stroke-linecap="round" stroke-linejoin="round" class="icon icon-tabler icons-tabler-outline icon-tabler-home-off"><path d="M2.626 2.045 C 2.420 2.154,2.146 2.433,2.038 2.644 C 1.924 2.868,1.924 3.132,2.040 3.363 C 2.101 3.485,2.745 4.158,4.104 5.521 L 6.079 7.501 4.157 9.421 C 3.100 10.476,2.187 11.421,2.127 11.520 C 2.033 11.678,2.020 11.742,2.020 12.040 C 2.020 12.328,2.035 12.407,2.120 12.558 C 2.230 12.755,2.414 12.898,2.635 12.959 C 2.715 12.981,3.054 13.000,3.388 13.000 L 3.997 13.000 4.009 16.290 L 4.021 19.580 4.114 19.860 C 4.445 20.850,5.184 21.582,6.160 21.886 L 6.460 21.980 12.000 21.980 L 17.540 21.980 17.839 21.886 C 18.394 21.712,18.773 21.473,19.196 21.033 L 19.397 20.823 19.928 21.346 C 20.221 21.633,20.540 21.909,20.637 21.959 C 20.988 22.137,21.353 22.049,21.701 21.701 C 22.048 21.354,22.137 20.989,21.959 20.637 C 21.888 20.496,20.669 19.203,19.748 18.293 C 19.610 18.156,15.872 14.418,15.760 14.305 C 15.705 14.249,15.255 13.799,14.760 13.305 C 14.265 12.811,13.815 12.361,13.760 12.306 C 13.705 12.251,11.383 9.938,8.600 7.167 C 5.152 3.733,3.486 2.101,3.372 2.044 C 3.152 1.934,2.835 1.935,2.626 2.045 M11.620 2.046 C 11.526 2.094,10.868 2.719,10.032 3.554 C 8.529 5.055,8.442 5.162,8.442 5.500 C 8.442 5.972,9.030 6.562,9.498 6.559 C 9.821 6.557,9.966 6.447,11.009 5.409 L 12.002 4.422 15.307 7.727 L 18.612 11.032 18.456 11.112 C 18.245 11.220,18.140 11.343,18.064 11.571 C 18.009 11.735,18.000 12.012,18.000 13.491 C 18.000 14.526,18.017 15.278,18.041 15.365 C 18.148 15.750,18.437 15.962,18.896 15.991 C 19.381 16.022,19.699 15.882,19.880 15.558 C 19.979 15.381,19.980 15.374,19.993 14.190 L 20.005 13.000 20.576 13.000 C 21.257 13.000,21.439 12.951,21.697 12.701 C 22.059 12.349,22.142 11.979,21.942 11.611 C 21.796 11.342,12.617 2.166,12.372 2.044 C 12.151 1.934,11.836 1.935,11.620 2.046 M10.236 12.105 C 9.252 12.354,8.455 13.118,8.115 14.140 L 8.021 14.420 8.009 17.213 L 7.996 20.007 7.348 19.993 C 6.728 19.981,6.692 19.975,6.516 19.872 C 6.415 19.813,6.284 19.700,6.225 19.623 C 5.991 19.317,6.000 19.474,6.000 15.465 C 6.000 13.120,5.985 11.727,5.959 11.635 C 5.898 11.415,5.755 11.230,5.564 11.125 L 5.391 11.029 6.445 9.975 L 7.500 8.920 9.047 10.467 L 10.595 12.014 10.236 12.105 M13.290 14.710 L 14.000 15.421 14.000 17.710 L 14.000 20.000 12.000 20.000 L 10.000 20.000 10.000 17.447 C 10.000 14.538,9.993 14.614,10.304 14.303 C 10.573 14.033,10.701 14.006,11.720 14.003 L 12.581 14.000 13.290 14.710 M17.920 19.382 C 17.920 19.476,17.661 19.768,17.486 19.871 C 17.307 19.976,17.274 19.981,16.650 19.993 L 16.000 20.007 16.000 18.714 L 16.000 17.421 16.960 18.380 C 17.488 18.908,17.920 19.358,17.920 19.382 " stroke="none" fill="black" fill-rule="evenodd"></path></svg>