<svg xmlns="http://www.w3.org/2000/svg" width="24" height="24" viewBox="0 0 24 24" fill="none" stroke="currentColor" stroke-width="2" stroke-linecap="round" stroke-linejoin="round" class="icon icon-tabler icons-tabler-outline icon-tabler-globe"><path d="M14.618 1.035 C 14.287 1.186,13.960 1.704,13.960 2.079 C 13.960 2.433,14.098 2.595,14.800 3.060 C 15.953 3.824,16.652 4.607,17.260 5.814 C 17.581 6.451,17.743 6.906,17.887 7.565 C 17.966 7.931,17.977 8.093,17.977 8.940 C 17.977 9.788,17.966 9.949,17.886 10.320 C 17.594 11.673,16.987 12.828,16.060 13.795 C 14.944 14.958,13.599 15.646,11.941 15.902 C 11.404 15.985,10.381 15.965,9.800 15.860 C 8.694 15.661,7.688 15.224,6.819 14.565 C 6.085 14.008,6.046 13.986,5.796 13.967 C 5.505 13.946,5.276 14.048,5.040 14.305 C 4.547 14.840,4.587 15.303,5.169 15.810 C 6.395 16.876,8.023 17.622,9.632 17.854 L 9.980 17.904 9.991 18.952 L 10.001 20.000 8.407 20.000 C 6.710 20.000,6.584 20.012,6.322 20.199 C 6.100 20.357,6.020 20.568,6.020 21.000 C 6.020 21.331,6.033 21.403,6.120 21.558 C 6.230 21.755,6.414 21.898,6.635 21.959 C 6.833 22.014,15.167 22.014,15.365 21.959 C 15.586 21.898,15.770 21.755,15.880 21.558 C 15.967 21.402,15.980 21.332,15.979 21.000 C 15.978 20.567,15.898 20.355,15.678 20.199 C 15.416 20.012,15.290 20.000,13.594 20.000 L 12.000 20.000 12.000 18.962 L 12.000 17.924 12.150 17.900 C 13.621 17.663,14.892 17.185,15.994 16.452 C 17.038 15.759,17.862 14.921,18.587 13.816 C 19.941 11.755,20.366 9.056,19.718 6.640 C 19.551 6.016,19.383 5.580,19.058 4.927 C 18.290 3.380,17.190 2.178,15.714 1.268 C 15.200 0.951,14.930 0.894,14.618 1.035 M10.400 4.044 C 8.761 4.229,7.261 5.290,6.526 6.785 C 6.158 7.533,6.020 8.136,6.020 9.000 C 6.020 9.670,6.078 10.044,6.268 10.600 C 6.846 12.291,8.253 13.525,10.040 13.907 C 10.511 14.008,11.489 14.008,11.960 13.907 C 13.488 13.580,14.748 12.630,15.433 11.288 C 15.838 10.494,15.980 9.899,15.980 9.000 C 15.980 8.101,15.838 7.506,15.433 6.713 C 14.794 5.461,13.604 4.510,12.240 4.162 C 11.669 4.016,11.019 3.974,10.400 4.044 M11.861 6.129 C 12.804 6.405,13.584 7.183,13.875 8.139 C 13.958 8.412,13.973 8.542,13.973 9.000 C 13.973 9.458,13.958 9.588,13.875 9.861 C 13.582 10.822,12.819 11.581,11.840 11.886 C 11.406 12.021,10.594 12.021,10.160 11.886 C 9.181 11.581,8.418 10.822,8.125 9.861 C 8.042 9.588,8.027 9.458,8.027 9.000 C 8.027 8.542,8.042 8.412,8.125 8.139 C 8.456 7.054,9.371 6.245,10.499 6.040 C 10.832 5.980,11.500 6.023,11.861 6.129 " stroke="none" fill="black" fill-rule="evenodd"></path></svg>