<svg xmlns="http://www.w3.org/2000/svg" width="24" height="24" viewBox="0 0 24 24" fill="none" stroke="currentColor" stroke-width="2" stroke-linecap="round" stroke-linejoin="round" class="icon icon-tabler icons-tabler-outline icon-tabler-world-www"><path d="M11.153 2.010 C 11.102 2.029,10.916 2.062,10.740 2.084 C 8.114 2.407,5.625 3.845,4.038 5.955 C 3.366 6.847,3.308 7.241,3.786 7.681 C 4.259 8.117,4.815 8.154,5.164 7.774 C 5.222 7.711,5.401 7.480,5.563 7.260 C 6.333 6.216,7.334 5.385,8.500 4.819 C 8.959 4.597,9.600 4.338,9.600 4.375 C 9.600 4.383,9.493 4.642,9.362 4.953 C 9.089 5.597,8.704 6.698,8.661 6.951 C 8.574 7.473,8.923 7.870,9.584 8.000 C 9.884 8.059,10.102 8.008,10.303 7.832 C 10.485 7.672,10.518 7.605,10.774 6.871 C 10.892 6.535,11.082 6.035,11.198 5.760 C 11.433 5.198,11.954 4.160,12.000 4.160 C 12.051 4.160,12.618 5.304,12.853 5.880 C 12.974 6.177,13.155 6.657,13.254 6.946 C 13.473 7.586,13.517 7.674,13.697 7.832 C 13.898 8.008,14.116 8.059,14.416 8.000 C 15.011 7.883,15.348 7.563,15.357 7.107 C 15.361 6.907,15.018 5.866,14.690 5.080 C 14.548 4.739,14.423 4.438,14.412 4.412 C 14.379 4.329,14.964 4.549,15.550 4.840 C 16.806 5.464,17.628 6.160,18.536 7.369 C 18.723 7.617,18.939 7.863,19.017 7.915 C 19.320 8.117,19.730 8.064,20.127 7.772 C 20.384 7.582,20.560 7.293,20.559 7.060 C 20.556 6.500,19.281 4.958,18.060 4.038 C 17.547 3.651,17.061 3.353,16.437 3.044 C 15.410 2.534,14.503 2.255,13.366 2.097 C 13.110 2.062,12.883 2.022,12.861 2.008 C 12.799 1.970,11.257 1.972,11.153 2.010 M4.161 9.006 C 3.828 9.104,3.702 9.280,3.417 10.040 C 3.314 10.315,3.218 10.553,3.203 10.570 C 3.189 10.586,3.117 10.357,3.045 10.061 C 2.888 9.424,2.769 9.210,2.496 9.078 C 2.076 8.875,1.319 9.083,1.096 9.463 C 0.921 9.761,0.940 9.881,1.544 12.297 C 2.141 14.682,2.159 14.735,2.482 14.916 C 2.777 15.082,3.310 15.019,3.623 14.780 C 3.814 14.635,3.884 14.497,4.197 13.663 C 4.353 13.246,4.487 12.899,4.495 12.892 C 4.503 12.884,4.632 13.207,4.781 13.609 C 5.184 14.690,5.273 14.838,5.609 14.978 C 5.805 15.060,5.939 15.056,6.246 14.961 C 6.551 14.867,6.764 14.700,6.874 14.470 C 6.919 14.377,7.191 13.360,7.478 12.211 C 8.057 9.893,8.077 9.759,7.900 9.456 C 7.681 9.083,6.919 8.877,6.504 9.078 C 6.231 9.210,6.112 9.424,5.955 10.061 C 5.883 10.357,5.811 10.586,5.797 10.570 C 5.782 10.553,5.683 10.306,5.576 10.020 C 5.356 9.430,5.203 9.222,4.889 9.089 C 4.652 8.988,4.342 8.953,4.161 9.006 M11.625 9.017 C 11.306 9.134,11.173 9.333,10.880 10.130 C 10.785 10.389,10.700 10.594,10.692 10.585 C 10.683 10.576,10.613 10.328,10.538 10.034 C 10.384 9.439,10.273 9.237,10.018 9.088 C 9.881 9.008,9.818 8.998,9.540 9.011 C 8.872 9.043,8.481 9.373,8.480 9.908 C 8.480 10.049,9.528 14.287,9.614 14.492 C 9.694 14.683,9.879 14.884,10.035 14.949 C 10.111 14.981,10.291 15.006,10.435 15.005 C 10.757 15.002,11.123 14.836,11.286 14.619 C 11.344 14.541,11.522 14.128,11.682 13.699 C 11.842 13.271,11.985 12.920,12.000 12.920 C 12.015 12.920,12.158 13.270,12.317 13.699 C 12.477 14.127,12.658 14.556,12.719 14.652 C 12.886 14.915,13.082 15.021,13.400 15.018 C 13.855 15.014,14.277 14.753,14.413 14.391 C 14.448 14.297,14.713 13.275,15.002 12.120 C 15.561 9.881,15.577 9.783,15.422 9.484 C 15.216 9.086,14.389 8.860,13.982 9.091 C 13.728 9.235,13.616 9.438,13.462 10.034 C 13.387 10.328,13.317 10.576,13.308 10.585 C 13.300 10.594,13.215 10.389,13.121 10.130 C 12.914 9.563,12.801 9.355,12.626 9.222 C 12.359 9.018,11.888 8.922,11.625 9.017 M19.161 9.006 C 18.828 9.104,18.702 9.280,18.417 10.040 C 18.314 10.315,18.218 10.553,18.203 10.570 C 18.189 10.586,18.117 10.357,18.045 10.061 C 17.888 9.424,17.769 9.210,17.496 9.078 C 17.076 8.875,16.319 9.083,16.096 9.463 C 15.921 9.761,15.940 9.881,16.544 12.297 C 17.141 14.682,17.159 14.735,17.482 14.916 C 17.777 15.082,18.310 15.019,18.623 14.780 C 18.814 14.635,18.884 14.497,19.197 13.663 C 19.353 13.246,19.487 12.899,19.495 12.892 C 19.503 12.884,19.632 13.207,19.781 13.609 C 20.184 14.690,20.273 14.838,20.609 14.978 C 20.805 15.060,20.939 15.056,21.246 14.961 C 21.551 14.867,21.764 14.700,21.874 14.470 C 21.919 14.377,22.191 13.360,22.478 12.211 C 23.057 9.893,23.077 9.759,22.900 9.456 C 22.681 9.083,21.919 8.877,21.504 9.078 C 21.231 9.210,21.112 9.424,20.955 10.061 C 20.883 10.357,20.811 10.586,20.797 10.570 C 20.782 10.553,20.683 10.306,20.576 10.020 C 20.356 9.430,20.203 9.222,19.889 9.089 C 19.652 8.988,19.342 8.953,19.161 9.006 M4.172 16.058 C 3.922 16.174,3.631 16.433,3.544 16.618 C 3.390 16.942,3.490 17.292,3.898 17.857 C 5.311 19.815,7.447 21.226,9.800 21.755 C 10.672 21.951,11.143 22.005,12.000 22.004 C 12.829 22.004,13.324 21.951,14.116 21.780 C 15.517 21.476,16.959 20.806,18.120 19.919 C 19.304 19.015,20.556 17.485,20.559 16.940 C 20.560 16.753,20.387 16.428,20.215 16.292 C 19.922 16.060,19.723 15.980,19.437 15.980 C 19.081 15.980,18.959 16.068,18.536 16.631 C 18.350 16.879,18.058 17.238,17.889 17.429 C 17.325 18.062,16.406 18.753,15.586 19.158 C 15.201 19.348,14.438 19.652,14.412 19.625 C 14.405 19.618,14.509 19.353,14.643 19.036 C 14.950 18.310,15.360 17.103,15.360 16.925 C 15.360 16.417,14.948 16.049,14.333 16.009 C 13.974 15.985,13.878 16.009,13.699 16.167 C 13.517 16.326,13.473 16.413,13.254 17.054 C 13.155 17.343,12.974 17.823,12.853 18.120 C 12.618 18.696,12.051 19.840,12.000 19.840 C 11.954 19.840,11.433 18.802,11.198 18.240 C 11.082 17.965,10.892 17.465,10.774 17.129 C 10.518 16.395,10.485 16.328,10.301 16.167 C 10.122 16.009,10.026 15.985,9.667 16.009 C 8.999 16.052,8.569 16.497,8.661 17.049 C 8.704 17.303,9.089 18.403,9.362 19.048 C 9.493 19.359,9.596 19.618,9.590 19.624 C 9.563 19.651,8.732 19.309,8.361 19.118 C 7.263 18.555,6.293 17.730,5.563 16.740 C 5.401 16.520,5.222 16.289,5.164 16.226 C 4.910 15.950,4.540 15.886,4.172 16.058 " stroke="none" fill="black" fill-rule="evenodd"></path></svg>