<svg xmlns="http://www.w3.org/2000/svg" width="24" height="24" viewBox="0 0 24 24" fill="none" stroke="currentColor" stroke-width="2" stroke-linecap="round" stroke-linejoin="round" class="icon icon-tabler icons-tabler-outline icon-tabler-chef-hat-off"><path d="M2.626 2.045 C 2.257 2.239,1.951 2.673,1.951 3.000 C 1.951 3.328,2.063 3.473,3.215 4.634 L 4.300 5.727 4.201 5.794 C 3.297 6.402,2.586 7.308,2.226 8.310 C 1.739 9.666,1.890 11.304,2.612 12.497 C 3.123 13.341,4.002 14.154,4.770 14.494 L 4.998 14.595 5.009 17.987 L 5.020 21.380 5.120 21.558 C 5.230 21.755,5.414 21.898,5.635 21.959 C 5.834 22.015,18.166 22.015,18.365 21.959 C 18.587 21.898,18.770 21.755,18.878 21.559 C 18.963 21.406,18.979 21.317,18.993 20.908 L 19.010 20.435 19.735 21.152 C 20.169 21.582,20.531 21.905,20.637 21.959 C 20.988 22.137,21.354 22.048,21.701 21.701 C 22.048 21.354,22.137 20.989,21.960 20.637 C 21.901 20.520,21.356 19.937,20.353 18.920 C 19.519 18.073,18.796 17.340,18.748 17.290 C 18.700 17.241,18.480 17.022,18.260 16.803 C 18.040 16.585,17.812 16.358,17.753 16.299 C 17.253 15.800,6.829 5.376,6.773 5.319 C 5.717 4.243,3.502 2.110,3.372 2.045 C 3.152 1.934,2.835 1.934,2.626 2.045 M11.460 2.027 C 10.348 2.167,9.327 2.647,8.546 3.397 C 7.472 4.428,7.401 5.095,8.308 5.627 C 8.466 5.720,8.547 5.740,8.763 5.740 C 9.097 5.740,9.257 5.641,9.582 5.233 C 10.036 4.665,10.532 4.322,11.200 4.114 C 11.610 3.987,12.361 3.984,12.783 4.108 C 13.325 4.267,13.753 4.521,14.130 4.906 C 14.532 5.317,14.735 5.682,14.936 6.360 C 14.992 6.547,15.082 6.766,15.137 6.846 C 15.340 7.142,15.720 7.226,16.268 7.095 C 16.627 7.009,17.299 7.008,17.649 7.093 C 19.362 7.509,20.355 9.308,19.794 10.980 C 19.592 11.579,19.042 12.271,18.527 12.573 C 18.389 12.654,18.114 12.776,17.917 12.845 C 17.214 13.091,17.040 13.285,17.009 13.860 C 16.980 14.386,17.111 14.695,17.442 14.880 C 17.597 14.967,17.669 14.980,18.000 14.980 C 18.406 14.980,18.550 14.934,18.764 14.733 C 18.822 14.680,18.981 14.582,19.119 14.517 C 19.780 14.205,20.510 13.599,20.970 12.982 C 21.452 12.335,21.815 11.422,21.919 10.592 C 22.101 9.137,21.578 7.601,20.540 6.541 C 20.128 6.121,19.764 5.852,19.237 5.581 C 18.511 5.208,17.863 5.043,17.057 5.026 L 16.606 5.016 16.447 4.709 C 15.806 3.469,14.586 2.496,13.260 2.166 C 12.705 2.028,11.931 1.968,11.460 2.027 M10.180 11.600 L 14.580 16.000 10.792 16.000 L 7.004 16.000 6.992 14.770 C 6.980 13.584,6.977 13.534,6.890 13.372 C 6.761 13.131,6.595 13.023,6.111 12.866 C 5.876 12.790,5.581 12.669,5.457 12.598 C 4.770 12.205,4.234 11.500,4.037 10.729 C 3.931 10.312,3.932 9.643,4.040 9.220 C 4.233 8.464,4.808 7.730,5.504 7.351 C 5.656 7.269,5.780 7.201,5.780 7.201 C 5.780 7.200,7.760 9.180,10.180 11.600 M16.789 18.209 L 17.000 18.417 17.000 19.209 L 17.000 20.000 12.000 20.000 L 7.000 20.000 7.000 19.000 L 7.000 18.000 11.789 18.000 L 16.577 18.000 16.789 18.209 " stroke="none" fill="black" fill-rule="evenodd"></path></svg>