<svg xmlns="http://www.w3.org/2000/svg" width="24" height="24" viewBox="0 0 24 24" fill="none" stroke="currentColor" stroke-width="2" stroke-linecap="round" stroke-linejoin="round" class="icon icon-tabler icons-tabler-outline icon-tabler-currency-yuan"><path d="M6.654 4.057 C 6.053 4.337,5.818 4.839,6.056 5.340 C 6.108 5.450,7.186 6.989,8.452 8.760 L 10.754 11.980 9.206 12.000 L 7.658 12.020 7.459 12.122 C 7.119 12.297,6.978 12.606,7.009 13.104 C 7.038 13.563,7.250 13.852,7.635 13.959 C 7.721 13.983,8.435 14.000,9.390 14.000 L 11.000 14.000 11.000 16.610 C 11.000 18.235,11.016 19.275,11.041 19.365 C 11.148 19.750,11.437 19.962,11.896 19.991 C 12.381 20.022,12.699 19.882,12.880 19.558 L 12.980 19.380 12.991 16.690 L 13.003 14.000 14.611 14.000 C 15.566 14.000,16.279 13.983,16.365 13.959 C 16.586 13.898,16.770 13.755,16.880 13.558 C 16.967 13.402,16.980 13.332,16.979 13.000 C 16.977 12.469,16.852 12.246,16.455 12.071 C 16.371 12.034,15.918 12.015,14.793 12.000 L 13.246 11.980 15.548 8.760 C 16.814 6.989,17.892 5.450,17.944 5.340 C 18.126 4.957,18.049 4.602,17.718 4.303 C 17.232 3.864,16.691 3.850,16.317 4.267 C 16.242 4.352,15.245 5.730,14.103 7.330 C 12.961 8.931,12.014 10.240,12.000 10.240 C 11.986 10.240,11.039 8.931,9.897 7.331 C 8.755 5.732,7.775 4.370,7.721 4.305 C 7.434 3.963,7.048 3.873,6.654 4.057 " stroke="none" fill="black" fill-rule="evenodd"></path></svg>