<svg xmlns="http://www.w3.org/2000/svg" width="24" height="24" viewBox="0 0 24 24" fill="none" stroke="currentColor" stroke-width="2" stroke-linecap="round" stroke-linejoin="round" class="icon icon-tabler icons-tabler-outline icon-tabler-brand-powershell"><path d="M6.681 3.061 C 5.774 3.226,4.863 4.029,4.550 4.940 C 4.483 5.136,3.970 7.640,3.232 11.380 C 2.034 17.452,2.025 17.504,2.022 18.020 C 2.020 18.458,2.035 18.587,2.114 18.839 C 2.292 19.407,2.544 19.827,2.934 20.207 C 3.345 20.609,3.843 20.857,4.442 20.959 C 4.625 20.990,6.540 21.000,11.000 20.992 L 17.300 20.980 17.620 20.867 C 18.043 20.718,18.354 20.523,18.704 20.191 C 19.148 19.769,19.431 19.274,19.563 18.689 C 19.586 18.585,20.138 15.800,20.790 12.500 C 21.965 6.552,21.975 6.495,21.977 5.980 C 21.980 5.542,21.965 5.413,21.886 5.160 C 21.620 4.309,21.103 3.675,20.380 3.316 C 19.734 2.996,20.370 3.023,13.300 3.014 C 8.108 3.008,6.927 3.016,6.681 3.061 M19.539 5.140 C 19.673 5.223,19.769 5.327,19.856 5.480 C 19.963 5.670,19.980 5.738,19.978 5.980 C 19.976 6.177,19.623 8.048,18.785 12.300 C 17.506 18.786,17.551 18.595,17.261 18.816 C 17.192 18.869,17.065 18.933,16.978 18.958 C 16.862 18.992,15.215 19.000,10.737 18.992 L 4.654 18.980 4.461 18.860 C 4.327 18.777,4.231 18.673,4.144 18.520 C 4.037 18.330,4.020 18.262,4.022 18.020 C 4.025 17.686,6.366 5.743,6.467 5.544 C 6.591 5.302,6.683 5.206,6.889 5.103 L 7.097 4.999 13.222 5.010 L 19.346 5.020 19.539 5.140 M8.626 7.045 C 8.420 7.154,8.146 7.433,8.038 7.644 C 7.924 7.868,7.924 8.133,8.040 8.363 C 8.100 8.483,8.658 9.071,9.773 10.190 C 10.783 11.203,11.402 11.853,11.378 11.875 C 11.357 11.894,10.206 12.666,8.820 13.589 C 7.369 14.555,6.243 15.331,6.167 15.418 C 6.002 15.606,5.960 15.715,5.960 15.953 C 5.961 16.304,6.274 16.794,6.606 16.963 C 6.797 17.060,7.090 17.061,7.302 16.965 C 7.617 16.821,13.698 12.737,13.805 12.596 C 14.070 12.247,14.118 11.953,13.961 11.637 C 13.840 11.396,9.612 7.164,9.372 7.044 C 9.152 6.934,8.835 6.935,8.626 7.045 M11.614 15.057 C 11.377 15.131,11.212 15.261,11.109 15.453 C 11.035 15.592,11.020 15.684,11.020 16.000 C 11.020 16.331,11.033 16.403,11.120 16.558 C 11.230 16.755,11.414 16.898,11.635 16.959 C 11.722 16.983,12.470 17.000,13.500 17.000 C 14.530 17.000,15.278 16.983,15.365 16.959 C 15.586 16.898,15.770 16.755,15.880 16.558 C 15.967 16.402,15.980 16.332,15.979 16.000 C 15.978 15.687,15.962 15.591,15.890 15.453 C 15.786 15.256,15.623 15.131,15.371 15.055 C 15.114 14.978,11.862 14.980,11.614 15.057 " stroke="none" fill="black" fill-rule="evenodd"></path></svg>