<svg xmlns="http://www.w3.org/2000/svg" width="24" height="24" viewBox="0 0 24 24" fill="none" stroke="currentColor" stroke-width="2" stroke-linecap="round" stroke-linejoin="round" class="icon icon-tabler icons-tabler-outline icon-tabler-antenna-off"><path d="M2.626 2.045 C 2.257 2.239,1.951 2.673,1.951 3.000 C 1.951 3.309,2.078 3.487,2.872 4.289 C 3.281 4.702,3.607 5.044,3.597 5.049 C 3.588 5.055,3.508 5.098,3.420 5.145 C 3.240 5.240,3.100 5.421,3.041 5.635 C 2.986 5.831,2.986 10.169,3.041 10.365 C 3.148 10.750,3.437 10.962,3.896 10.991 C 4.381 11.022,4.699 10.882,4.880 10.558 C 4.974 10.391,4.981 10.338,4.994 9.690 L 5.008 9.000 6.004 9.000 L 7.000 9.000 7.000 9.853 C 7.000 10.825,7.036 11.023,7.249 11.229 C 7.442 11.416,7.647 11.487,7.997 11.488 C 8.348 11.490,8.556 11.418,8.751 11.229 C 8.892 11.093,9.000 10.803,9.000 10.563 C 9.000 10.423,9.014 10.435,10.000 11.420 L 11.000 12.419 11.000 16.820 C 11.000 19.644,11.015 21.272,11.041 21.365 C 11.148 21.750,11.437 21.962,11.896 21.991 C 12.381 22.022,12.699 21.882,12.880 21.558 L 12.980 21.380 12.991 17.902 L 13.002 14.423 16.731 18.148 C 19.381 20.794,20.511 21.898,20.637 21.961 C 20.990 22.137,21.355 22.048,21.701 21.701 C 22.048 21.355,22.137 20.990,21.961 20.637 C 21.898 20.511,20.566 19.148,17.353 15.920 C 11.989 10.531,13.033 11.578,10.760 9.305 C 9.715 8.260,8.806 7.351,8.740 7.285 C 6.556 5.089,3.505 2.111,3.372 2.044 C 3.152 1.934,2.835 1.935,2.626 2.045 M19.614 3.057 C 19.377 3.131,19.212 3.261,19.109 3.453 C 19.022 3.617,19.020 3.650,19.008 5.310 L 18.997 7.000 17.998 7.000 L 17.000 7.000 17.000 5.647 C 17.000 4.091,16.984 3.984,16.723 3.747 C 16.536 3.578,16.351 3.520,16.000 3.520 C 15.649 3.520,15.464 3.578,15.277 3.747 C 15.016 3.984,15.000 4.091,15.000 5.647 L 15.000 7.000 14.003 7.000 L 13.005 7.000 12.993 5.810 C 12.980 4.662,12.977 4.614,12.889 4.450 C 12.724 4.140,12.329 3.970,11.874 4.011 C 11.439 4.051,11.141 4.274,11.041 4.635 C 11.017 4.722,11.000 5.473,11.000 6.505 C 11.000 8.421,11.011 8.521,11.255 8.753 C 11.503 8.989,11.596 9.000,13.381 9.000 L 15.000 9.000 15.000 10.353 C 15.000 11.867,15.018 12.006,15.249 12.229 C 15.442 12.416,15.647 12.487,15.997 12.488 C 16.348 12.490,16.556 12.418,16.751 12.229 C 16.982 12.006,17.000 11.867,17.000 10.353 L 17.000 9.000 18.000 9.000 L 19.000 9.000 19.000 10.610 C 19.000 11.565,19.017 12.279,19.041 12.365 C 19.148 12.750,19.437 12.962,19.896 12.991 C 20.381 13.022,20.699 12.882,20.880 12.558 L 20.980 12.380 20.980 8.000 L 20.980 3.620 20.891 3.453 C 20.842 3.362,20.746 3.247,20.678 3.199 C 20.414 3.010,19.957 2.950,19.614 3.057 M5.300 6.720 L 5.578 7.000 5.289 7.000 L 5.000 7.000 5.000 6.720 C 5.000 6.566,5.005 6.440,5.011 6.440 C 5.017 6.440,5.147 6.566,5.300 6.720 " stroke="none" fill="black" fill-rule="evenodd"></path></svg>