<svg xmlns="http://www.w3.org/2000/svg" width="24" height="24" viewBox="0 0 24 24" fill="none" stroke="currentColor" stroke-width="2" stroke-linecap="round" stroke-linejoin="round" class="icon icon-tabler icons-tabler-outline icon-tabler-password-fingerprint"><path d="M11.400 4.026 C 10.411 4.123,9.672 4.327,8.809 4.740 C 6.886 5.661,5.545 7.344,5.115 9.372 C 5.041 9.722,5.026 9.949,5.010 10.980 C 4.998 11.785,5.006 12.234,5.036 12.344 C 5.144 12.748,5.428 12.961,5.896 12.991 C 6.381 13.022,6.699 12.882,6.880 12.558 C 6.978 12.382,6.980 12.363,7.005 11.160 C 7.029 10.019,7.037 9.914,7.135 9.540 C 7.258 9.069,7.591 8.376,7.876 7.999 C 8.468 7.215,9.372 6.580,10.340 6.267 C 10.950 6.070,11.250 6.027,12.000 6.026 C 12.967 6.026,13.487 6.144,14.434 6.579 C 14.923 6.803,15.096 6.835,15.333 6.745 C 15.829 6.555,16.186 5.762,15.967 5.333 C 15.848 5.100,15.683 4.977,15.140 4.717 C 14.342 4.335,13.617 4.132,12.726 4.042 C 12.338 4.003,11.718 3.995,11.400 4.026 M16.601 7.082 C 16.179 7.314,15.960 7.609,15.960 7.943 C 15.960 8.205,15.999 8.293,16.326 8.783 C 16.866 9.589,16.961 9.956,16.996 11.360 C 17.020 12.350,17.023 12.385,17.120 12.558 C 17.287 12.856,17.572 13.000,18.000 13.000 C 18.428 13.000,18.713 12.856,18.880 12.558 C 18.980 12.381,18.980 12.375,18.980 11.340 C 18.980 10.493,18.966 10.226,18.905 9.900 C 18.809 9.387,18.611 8.780,18.407 8.375 C 18.192 7.947,17.795 7.359,17.613 7.200 C 17.299 6.923,16.960 6.884,16.601 7.082 M11.380 7.059 C 9.715 7.322,8.360 8.668,8.057 10.360 C 7.867 11.418,8.137 11.943,8.896 11.991 C 9.374 12.021,9.700 11.881,9.871 11.573 C 9.937 11.453,9.972 11.295,10.001 10.988 C 10.062 10.343,10.181 10.069,10.586 9.639 C 11.201 8.988,12.071 8.826,12.862 9.217 C 13.391 9.478,13.853 10.076,13.959 10.636 C 13.982 10.754,14.000 11.384,14.000 12.035 C 14.000 12.706,14.018 13.283,14.041 13.365 C 14.148 13.750,14.437 13.962,14.896 13.991 C 15.381 14.022,15.699 13.882,15.880 13.558 L 15.980 13.380 15.993 12.080 C 16.007 10.640,15.982 10.352,15.793 9.782 C 15.173 7.912,13.299 6.755,11.380 7.059 M11.614 10.057 C 11.377 10.131,11.212 10.261,11.109 10.453 C 11.023 10.614,11.020 10.665,11.008 11.908 C 11.000 12.720,11.011 13.254,11.038 13.352 C 11.144 13.747,11.432 13.961,11.896 13.991 C 12.381 14.022,12.699 13.882,12.880 13.558 L 12.980 13.380 12.980 12.000 C 12.980 10.650,12.978 10.616,12.891 10.453 C 12.842 10.362,12.746 10.247,12.678 10.199 C 12.414 10.010,11.957 9.950,11.614 10.057 M4.614 16.057 C 4.193 16.189,4.034 16.433,4.008 16.990 C 3.998 17.194,3.985 17.360,3.979 17.360 C 3.972 17.360,3.790 17.275,3.574 17.170 C 3.228 17.003,3.150 16.980,2.918 16.980 C 2.696 16.980,2.628 16.998,2.485 17.092 C 2.283 17.225,2.101 17.499,2.014 17.796 C 1.883 18.246,2.029 18.580,2.468 18.836 C 2.605 18.915,2.717 18.989,2.717 19.000 C 2.717 19.011,2.605 19.085,2.468 19.164 C 2.320 19.251,2.172 19.377,2.100 19.478 C 1.995 19.626,1.980 19.681,1.981 19.914 C 1.983 20.373,2.267 20.847,2.621 20.983 C 2.887 21.084,3.131 21.044,3.582 20.826 C 3.794 20.724,3.975 20.640,3.984 20.640 C 3.993 20.640,4.000 20.771,4.000 20.930 C 4.001 21.623,4.278 21.952,4.896 21.991 C 5.379 22.022,5.700 21.881,5.876 21.563 C 5.951 21.426,5.976 21.311,5.991 21.015 C 6.002 20.809,6.016 20.640,6.022 20.640 C 6.028 20.640,6.206 20.724,6.418 20.826 C 6.870 21.045,7.113 21.084,7.381 20.982 C 7.729 20.849,8.015 20.369,8.018 19.914 C 8.020 19.680,8.005 19.626,7.900 19.478 C 7.828 19.377,7.680 19.251,7.532 19.164 C 7.395 19.085,7.283 19.011,7.283 19.000 C 7.283 18.989,7.395 18.915,7.532 18.836 C 7.971 18.580,8.117 18.246,7.986 17.796 C 7.899 17.499,7.717 17.225,7.515 17.092 C 7.372 16.998,7.304 16.980,7.082 16.980 C 6.850 16.980,6.772 17.003,6.426 17.170 C 6.210 17.275,6.028 17.360,6.022 17.360 C 6.016 17.360,6.002 17.194,5.991 16.990 C 5.969 16.568,5.880 16.342,5.678 16.199 C 5.414 16.010,4.957 15.950,4.614 16.057 M11.614 16.057 C 11.193 16.189,11.034 16.433,11.008 16.990 C 10.998 17.194,10.985 17.360,10.979 17.360 C 10.972 17.360,10.790 17.275,10.574 17.170 C 10.228 17.003,10.150 16.980,9.918 16.980 C 9.696 16.980,9.628 16.998,9.485 17.092 C 9.283 17.225,9.101 17.499,9.014 17.796 C 8.883 18.246,9.029 18.580,9.468 18.836 C 9.605 18.915,9.717 18.989,9.717 19.000 C 9.717 19.011,9.605 19.085,9.468 19.164 C 9.320 19.251,9.172 19.377,9.100 19.478 C 8.995 19.626,8.980 19.681,8.981 19.914 C 8.983 20.373,9.267 20.847,9.621 20.983 C 9.887 21.084,10.131 21.044,10.582 20.826 C 10.794 20.724,10.975 20.640,10.984 20.640 C 10.993 20.640,11.000 20.771,11.000 20.930 C 11.001 21.623,11.278 21.952,11.896 21.991 C 12.379 22.022,12.700 21.881,12.876 21.563 C 12.951 21.426,12.976 21.311,12.991 21.015 C 13.002 20.809,13.016 20.640,13.022 20.640 C 13.028 20.640,13.206 20.724,13.418 20.826 C 13.870 21.045,14.113 21.084,14.381 20.982 C 14.729 20.849,15.015 20.369,15.018 19.914 C 15.020 19.680,15.005 19.626,14.900 19.478 C 14.828 19.377,14.680 19.251,14.532 19.164 C 14.395 19.085,14.283 19.011,14.283 19.000 C 14.283 18.989,14.395 18.915,14.532 18.836 C 14.971 18.580,15.117 18.246,14.986 17.796 C 14.899 17.499,14.717 17.225,14.515 17.092 C 14.372 16.998,14.304 16.980,14.082 16.980 C 13.850 16.980,13.772 17.003,13.426 17.170 C 13.210 17.275,13.028 17.360,13.022 17.360 C 13.016 17.360,13.002 17.194,12.991 16.990 C 12.969 16.568,12.880 16.342,12.678 16.199 C 12.414 16.010,11.957 15.950,11.614 16.057 M18.614 16.057 C 18.193 16.189,18.034 16.433,18.008 16.990 C 17.998 17.194,17.985 17.360,17.979 17.360 C 17.972 17.360,17.790 17.275,17.574 17.170 C 17.228 17.003,17.150 16.980,16.918 16.980 C 16.696 16.980,16.628 16.998,16.485 17.092 C 16.283 17.225,16.101 17.499,16.014 17.796 C 15.883 18.246,16.029 18.580,16.468 18.836 C 16.605 18.915,16.717 18.989,16.717 19.000 C 16.717 19.011,16.605 19.085,16.468 19.164 C 16.320 19.251,16.172 19.377,16.100 19.478 C 15.995 19.626,15.980 19.681,15.981 19.914 C 15.983 20.373,16.267 20.847,16.621 20.983 C 16.887 21.084,17.131 21.044,17.582 20.826 C 17.794 20.724,17.975 20.640,17.984 20.640 C 17.993 20.640,18.000 20.771,18.000 20.930 C 18.001 21.623,18.278 21.952,18.896 21.991 C 19.379 22.022,19.700 21.881,19.876 21.563 C 19.951 21.426,19.976 21.311,19.991 21.015 C 20.002 20.809,20.016 20.640,20.022 20.640 C 20.028 20.640,20.206 20.724,20.418 20.826 C 20.870 21.045,21.113 21.084,21.381 20.982 C 21.729 20.849,22.015 20.369,22.018 19.914 C 22.020 19.680,22.005 19.626,21.900 19.478 C 21.828 19.377,21.680 19.251,21.532 19.164 C 21.395 19.085,21.283 19.011,21.283 19.000 C 21.283 18.989,21.395 18.915,21.532 18.836 C 21.971 18.580,22.117 18.246,21.986 17.796 C 21.899 17.499,21.717 17.225,21.515 17.092 C 21.372 16.998,21.304 16.980,21.082 16.980 C 20.850 16.980,20.772 17.003,20.426 17.170 C 20.210 17.275,20.028 17.360,20.022 17.360 C 20.016 17.360,20.002 17.194,19.991 16.990 C 19.969 16.568,19.880 16.342,19.678 16.199 C 19.414 16.010,18.957 15.950,18.614 16.057 " stroke="none" fill="black" fill-rule="evenodd"></path></svg>