<svg xmlns="http://www.w3.org/2000/svg" width="24" height="24" viewBox="0 0 24 24" fill="none" stroke="currentColor" stroke-width="2" stroke-linecap="round" stroke-linejoin="round" class="icon icon-tabler icons-tabler-outline icon-tabler-text-grammar"><path d="M6.358 3.061 C 4.731 3.315,3.417 4.584,3.083 6.227 C 3.004 6.614,3.000 6.760,3.000 9.426 C 3.000 11.174,3.015 12.274,3.041 12.365 C 3.148 12.750,3.437 12.962,3.896 12.991 C 4.381 13.022,4.699 12.882,4.880 12.558 C 4.979 12.381,4.980 12.374,4.993 11.190 L 5.005 10.000 7.003 10.000 L 9.000 10.000 9.000 11.110 C 9.000 11.730,9.018 12.284,9.041 12.365 C 9.148 12.750,9.437 12.962,9.896 12.991 C 10.381 13.022,10.699 12.882,10.880 12.558 L 10.980 12.380 10.991 9.512 C 11.002 6.769,10.999 6.628,10.922 6.249 C 10.721 5.264,10.198 4.416,9.438 3.843 C 8.866 3.412,8.276 3.160,7.605 3.058 C 7.144 2.989,6.816 2.990,6.358 3.061 M7.523 5.073 C 7.866 5.163,8.198 5.366,8.454 5.642 C 8.883 6.105,8.998 6.479,8.999 7.410 L 9.000 8.000 7.000 8.000 L 5.000 8.000 5.000 7.398 C 5.000 6.682,5.064 6.350,5.265 6.014 C 5.646 5.378,6.288 5.005,7.000 5.005 C 7.143 5.005,7.378 5.036,7.523 5.073 M16.358 5.061 C 15.230 5.237,14.143 5.974,13.569 6.953 C 12.320 9.083,13.233 11.785,15.512 12.704 C 16.473 13.091,17.529 13.090,18.494 12.701 C 18.684 12.625,18.888 12.530,18.947 12.492 C 19.022 12.442,19.059 12.436,19.070 12.469 C 19.115 12.605,19.283 12.791,19.438 12.876 C 19.560 12.944,19.697 12.978,19.896 12.991 C 20.381 13.022,20.699 12.882,20.880 12.558 L 20.980 12.380 20.980 9.000 L 20.980 5.620 20.889 5.450 C 20.724 5.140,20.329 4.970,19.874 5.011 C 19.496 5.045,19.159 5.262,19.071 5.527 C 19.063 5.552,18.942 5.512,18.778 5.430 C 18.379 5.231,18.044 5.125,17.605 5.058 C 17.144 4.989,16.816 4.990,16.358 5.061 M17.523 7.073 C 18.262 7.266,18.850 7.924,18.967 8.690 C 19.067 9.343,18.873 9.933,18.403 10.404 C 18.002 10.807,17.547 11.000,17.000 11.000 C 16.485 11.000,16.038 10.822,15.653 10.465 C 14.323 9.229,15.189 7.005,17.000 7.005 C 17.143 7.005,17.378 7.036,17.523 7.073 M3.614 15.057 C 3.377 15.131,3.212 15.261,3.109 15.453 C 3.035 15.592,3.020 15.684,3.020 16.000 C 3.020 16.331,3.033 16.403,3.120 16.558 C 3.230 16.755,3.414 16.898,3.635 16.959 C 3.834 17.015,16.166 17.015,16.365 16.959 C 16.586 16.898,16.770 16.755,16.880 16.558 C 16.967 16.402,16.980 16.332,16.979 16.000 C 16.978 15.567,16.898 15.355,16.678 15.199 C 16.388 14.992,16.642 15.000,9.984 15.003 C 5.009 15.005,3.747 15.016,3.614 15.057 M20.620 16.046 C 20.523 16.096,19.578 17.008,18.231 18.353 L 16.002 20.577 15.271 19.854 C 14.856 19.444,14.467 19.094,14.372 19.045 C 14.021 18.868,13.640 18.958,13.299 19.299 C 12.952 19.646,12.863 20.010,13.040 20.363 C 13.162 20.607,15.393 22.838,15.637 22.960 C 15.868 23.076,16.132 23.076,16.363 22.961 C 16.613 22.836,21.836 17.613,21.961 17.363 C 22.137 17.010,22.047 16.645,21.701 16.299 C 21.361 15.959,20.967 15.867,20.620 16.046 M3.614 19.057 C 3.377 19.131,3.212 19.261,3.109 19.453 C 3.035 19.592,3.020 19.684,3.020 20.000 C 3.020 20.331,3.033 20.403,3.120 20.558 C 3.230 20.755,3.414 20.898,3.635 20.959 C 3.832 21.014,10.168 21.014,10.365 20.959 C 10.586 20.898,10.770 20.755,10.880 20.558 C 10.967 20.402,10.980 20.332,10.979 20.000 C 10.978 19.567,10.898 19.355,10.678 19.199 C 10.398 18.999,10.411 19.000,6.984 19.003 C 4.472 19.005,3.744 19.017,3.614 19.057 " stroke="none" fill="black" fill-rule="evenodd"></path></svg>