<svg xmlns="http://www.w3.org/2000/svg" width="24" height="24" viewBox="0 0 24 24" fill="none" stroke="currentColor" stroke-width="2" stroke-linecap="round" stroke-linejoin="round" class="icon icon-tabler icons-tabler-outline icon-tabler-bookmark-off"><path d="M2.626 2.045 C 2.420 2.154,2.146 2.433,2.038 2.644 C 1.924 2.868,1.924 3.133,2.040 3.363 C 2.100 3.481,2.604 4.017,3.565 4.982 L 5.002 6.424 5.000 13.784 C 4.999 22.009,4.975 21.344,5.288 21.699 C 5.580 22.031,5.945 22.127,6.302 21.965 C 6.391 21.924,7.709 21.061,9.232 20.046 L 12.000 18.200 14.765 20.043 C 16.286 21.058,17.602 21.913,17.690 21.944 C 18.146 22.104,18.671 21.935,18.878 21.559 C 18.963 21.406,18.979 21.317,18.993 20.908 L 19.010 20.435 19.735 21.152 C 20.169 21.582,20.531 21.905,20.637 21.959 C 20.988 22.137,21.354 22.048,21.701 21.701 C 22.048 21.354,22.137 20.989,21.960 20.637 C 21.888 20.495,20.064 18.595,18.741 17.287 C 18.554 17.101,6.922 5.476,6.892 5.443 C 6.874 5.425,6.113 4.672,5.200 3.770 C 4.150 2.732,3.478 2.099,3.372 2.045 C 3.152 1.934,2.836 1.934,2.626 2.045 M9.460 2.026 C 8.193 2.177,6.840 2.885,6.680 3.481 C 6.599 3.783,6.748 4.174,7.066 4.495 C 7.431 4.863,7.801 4.855,8.403 4.469 C 8.671 4.298,9.035 4.145,9.350 4.073 C 9.527 4.032,10.144 4.020,12.040 4.020 C 14.488 4.020,14.502 4.020,14.822 4.112 C 15.783 4.388,16.572 5.165,16.878 6.139 L 16.979 6.460 16.999 10.420 L 17.020 14.380 17.120 14.558 C 17.287 14.856,17.572 15.000,18.000 15.000 C 18.428 15.000,18.713 14.856,18.880 14.558 L 18.980 14.380 18.980 10.380 C 18.980 6.663,18.975 6.356,18.907 6.040 C 18.625 4.721,17.863 3.576,16.800 2.874 C 16.046 2.375,15.396 2.135,14.552 2.043 C 14.198 2.004,9.768 1.990,9.460 2.026 M16.992 18.772 L 16.980 19.120 14.722 17.615 C 13.480 16.787,12.406 16.085,12.334 16.055 C 12.165 15.984,11.834 15.985,11.666 16.055 C 11.594 16.085,10.537 16.775,9.317 17.587 C 8.098 18.400,7.078 19.078,7.050 19.095 C 7.010 19.119,7.000 18.044,7.000 13.772 L 7.000 8.420 12.002 13.422 L 17.003 18.423 16.992 18.772 " stroke="none" fill="black" fill-rule="evenodd"></path></svg>