<svg xmlns="http://www.w3.org/2000/svg" width="24" height="24" viewBox="0 0 24 24" fill="none" stroke="currentColor" stroke-width="2" stroke-linecap="round" stroke-linejoin="round" class="icon icon-tabler icons-tabler-outline icon-tabler-layout-off"><path d="M2.626 2.045 C 2.257 2.239,1.951 2.673,1.951 3.000 C 1.951 3.293,2.085 3.492,2.702 4.120 L 3.273 4.700 3.146 5.060 L 3.020 5.420 3.020 6.480 C 3.020 7.480,3.025 7.557,3.114 7.840 C 3.418 8.816,4.152 9.556,5.140 9.885 C 5.412 9.976,5.463 9.979,6.997 9.987 L 8.575 9.995 10.785 12.205 L 12.995 14.415 13.009 16.498 C 13.022 18.550,13.024 18.584,13.115 18.860 C 13.442 19.846,14.184 20.581,15.160 20.886 C 15.453 20.978,15.496 20.980,17.020 20.980 L 18.580 20.980 18.940 20.854 L 19.300 20.727 19.880 21.298 C 20.205 21.617,20.538 21.908,20.637 21.959 C 20.988 22.137,21.353 22.049,21.701 21.701 C 22.048 21.354,22.137 20.990,21.961 20.637 C 21.886 20.487,19.273 17.828,14.747 13.293 C 12.590 11.131,3.630 2.221,3.560 2.168 C 3.264 1.942,2.910 1.895,2.626 2.045 M7.614 3.055 C 7.220 3.184,7.039 3.437,7.009 3.900 C 6.965 4.591,7.248 4.929,7.933 4.999 C 8.340 5.041,8.503 5.105,8.699 5.301 C 8.895 5.497,8.959 5.660,9.001 6.067 C 9.068 6.718,9.370 7.000,10.000 7.000 C 10.428 7.000,10.713 6.856,10.880 6.558 C 10.971 6.396,10.980 6.338,10.979 5.920 C 10.978 5.555,10.959 5.398,10.885 5.160 C 10.583 4.181,9.809 3.405,8.861 3.129 C 8.459 3.013,7.851 2.976,7.614 3.055 M15.499 3.042 C 14.382 3.237,13.485 4.027,13.115 5.140 C 13.022 5.419,13.022 5.432,13.009 7.808 C 13.000 9.389,13.010 10.249,13.038 10.352 C 13.144 10.747,13.432 10.961,13.896 10.991 C 14.381 11.022,14.699 10.882,14.880 10.558 L 14.980 10.380 15.000 8.060 C 15.022 5.460,15.008 5.588,15.321 5.283 C 15.591 5.022,15.720 5.000,17.000 5.000 C 18.303 5.000,18.414 5.020,18.697 5.303 C 19.021 5.627,19.000 5.236,19.000 11.057 C 19.000 14.392,19.015 16.271,19.041 16.365 C 19.148 16.750,19.437 16.962,19.896 16.991 C 20.381 17.022,20.699 16.882,20.880 16.558 L 20.980 16.380 20.980 10.920 L 20.980 5.460 20.886 5.160 C 20.581 4.181,19.825 3.421,18.861 3.124 C 18.548 3.027,18.504 3.024,17.120 3.015 C 16.339 3.010,15.609 3.022,15.499 3.042 M6.493 7.994 C 6.455 8.002,6.261 8.002,6.060 7.993 C 5.755 7.980,5.666 7.960,5.514 7.870 C 5.147 7.655,5.000 7.344,5.000 6.785 L 5.000 6.421 5.781 7.200 C 6.338 7.756,6.542 7.984,6.493 7.994 M5.499 12.042 C 4.372 12.239,3.461 13.048,3.114 14.160 C 3.021 14.458,3.020 14.473,3.020 16.500 C 3.020 18.527,3.021 18.542,3.114 18.840 C 3.422 19.827,4.173 20.578,5.160 20.886 C 5.453 20.978,5.497 20.980,7.000 20.980 C 8.503 20.980,8.547 20.978,8.840 20.886 C 9.240 20.762,9.609 20.563,9.891 20.321 C 10.391 19.893,10.702 19.430,10.886 18.840 C 10.979 18.542,10.980 18.527,10.980 16.500 C 10.980 14.473,10.979 14.458,10.886 14.160 C 10.581 13.181,9.825 12.421,8.861 12.124 C 8.548 12.027,8.504 12.024,7.120 12.015 C 6.339 12.010,5.609 12.022,5.499 12.042 M8.310 14.061 C 8.589 14.144,8.856 14.411,8.939 14.690 C 9.024 14.976,9.029 18.010,8.945 18.290 C 8.872 18.533,8.707 18.740,8.484 18.872 L 8.300 18.980 7.000 18.980 L 5.700 18.980 5.516 18.872 C 5.303 18.747,5.141 18.550,5.058 18.316 C 4.971 18.067,4.973 14.986,5.061 14.690 C 5.140 14.421,5.412 14.143,5.673 14.063 C 5.952 13.977,8.023 13.975,8.310 14.061 M17.371 18.993 C 17.266 19.000,16.847 19.000,16.440 18.993 C 15.719 18.980,15.695 18.977,15.516 18.872 C 15.415 18.813,15.284 18.700,15.225 18.623 C 15.022 18.357,15.000 18.224,15.000 17.285 L 15.000 16.420 16.281 17.700 L 17.561 18.980 17.371 18.993 " stroke="none" fill="black" fill-rule="evenodd"></path></svg>