<svg xmlns="http://www.w3.org/2000/svg" width="24" height="24" viewBox="0 0 24 24" fill="none" stroke="currentColor" stroke-width="2" stroke-linecap="round" stroke-linejoin="round" class="icon icon-tabler icons-tabler-outline icon-tabler-map-pin"><path d="M11.340 2.024 C 10.023 2.160,9.086 2.416,8.060 2.919 C 6.233 3.816,4.826 5.216,3.939 7.020 C 2.390 10.171,2.777 13.802,4.959 16.607 C 5.234 16.961,9.426 21.204,9.999 21.708 C 11.173 22.743,12.827 22.743,14.001 21.708 C 14.574 21.204,18.766 16.961,19.041 16.607 C 19.691 15.772,20.222 14.787,20.535 13.840 C 21.289 11.554,21.123 9.172,20.060 7.020 C 19.163 5.204,17.760 3.808,15.940 2.921 C 15.062 2.493,14.267 2.244,13.320 2.101 C 12.911 2.039,11.662 1.991,11.340 2.024 M13.102 4.098 C 15.352 4.438,17.348 5.938,18.320 8.020 C 18.792 9.031,18.975 9.863,18.975 11.000 C 18.975 12.137,18.792 12.969,18.320 13.980 C 17.837 15.014,17.644 15.241,14.964 17.931 C 12.418 20.487,12.425 20.480,12.000 20.480 C 11.575 20.480,11.582 20.487,9.036 17.931 C 6.356 15.241,6.163 15.014,5.680 13.980 C 5.208 12.969,5.025 12.137,5.025 11.000 C 5.025 9.863,5.208 9.031,5.680 8.020 C 6.365 6.553,7.553 5.365,9.020 4.680 C 9.867 4.284,10.478 4.125,11.540 4.023 C 11.813 3.997,12.726 4.041,13.102 4.098 M11.358 7.061 C 10.230 7.237,9.143 7.974,8.569 8.953 C 7.320 11.083,8.233 13.785,10.512 14.704 C 12.558 15.528,14.877 14.538,15.704 12.488 C 16.090 11.530,16.090 10.469,15.705 9.516 C 15.172 8.197,14.001 7.269,12.605 7.058 C 12.144 6.989,11.816 6.990,11.358 7.061 M12.523 9.073 C 13.262 9.266,13.850 9.924,13.967 10.690 C 14.067 11.343,13.873 11.933,13.403 12.404 C 13.002 12.807,12.547 13.000,12.000 13.000 C 11.485 13.000,11.038 12.822,10.653 12.465 C 9.323 11.229,10.189 9.005,12.000 9.005 C 12.143 9.005,12.378 9.036,12.523 9.073 " stroke="none" fill="black" fill-rule="evenodd"></path></svg>