<svg xmlns="http://www.w3.org/2000/svg" width="24" height="24" viewBox="0 0 24 24" fill="none" stroke="currentColor" stroke-width="2" stroke-linecap="round" stroke-linejoin="round" class="icon icon-tabler icons-tabler-outline icon-tabler-file-type-pdf"><path d="M6.499 2.043 C 5.393 2.228,4.488 3.024,4.114 4.140 L 4.020 4.420 4.009 8.311 C 4.001 10.892,4.011 12.253,4.039 12.355 C 4.144 12.747,4.433 12.961,4.896 12.991 C 5.381 13.022,5.699 12.882,5.880 12.558 L 5.980 12.380 6.000 8.560 C 6.022 4.280,5.999 4.597,6.321 4.283 C 6.622 3.992,6.514 4.000,9.947 4.000 L 13.000 4.000 13.000 5.632 C 13.000 7.399,13.010 7.507,13.225 7.930 C 13.361 8.199,13.801 8.639,14.070 8.775 C 14.493 8.990,14.601 9.000,16.368 9.000 L 18.000 9.000 18.000 10.610 C 18.000 11.565,18.017 12.279,18.041 12.365 C 18.148 12.750,18.437 12.962,18.896 12.991 C 19.381 13.022,19.699 12.882,19.880 12.558 L 19.980 12.380 19.980 10.000 L 19.980 7.620 19.890 7.452 C 19.841 7.360,19.724 7.231,19.630 7.165 C 19.498 7.073,15.263 2.838,14.719 2.254 C 14.473 1.991,14.626 2.000,10.463 2.005 C 8.393 2.007,6.609 2.025,6.499 2.043 M15.800 6.220 L 16.579 7.000 15.790 7.000 L 15.000 7.000 15.000 6.220 C 15.000 5.791,15.005 5.440,15.010 5.440 C 15.016 5.440,15.371 5.791,15.800 6.220 M4.614 14.057 C 4.377 14.131,4.212 14.261,4.109 14.453 L 4.020 14.620 4.009 17.912 C 4.002 20.060,4.012 21.257,4.039 21.356 C 4.144 21.747,4.434 21.961,4.896 21.991 C 5.381 22.022,5.699 21.882,5.880 21.558 C 5.979 21.381,5.980 21.374,5.993 20.195 L 6.005 19.010 6.513 18.991 C 6.925 18.975,7.076 18.951,7.320 18.865 C 8.031 18.614,8.605 18.041,8.867 17.320 C 8.965 17.051,8.976 16.966,8.976 16.500 C 8.976 16.035,8.965 15.948,8.868 15.680 C 8.732 15.306,8.458 14.898,8.165 14.636 C 7.887 14.387,7.390 14.137,7.020 14.060 C 6.647 13.982,4.861 13.980,4.614 14.057 M10.614 14.055 C 10.375 14.133,10.211 14.262,10.109 14.453 L 10.020 14.620 10.009 17.912 C 10.002 20.060,10.012 21.257,10.039 21.356 C 10.100 21.584,10.242 21.768,10.442 21.880 C 10.618 21.979,10.630 21.980,11.580 21.980 C 12.475 21.980,12.560 21.974,12.840 21.886 C 13.240 21.762,13.609 21.563,13.891 21.321 C 14.391 20.893,14.702 20.430,14.886 19.840 C 14.978 19.547,14.980 19.503,14.980 18.000 C 14.980 16.497,14.978 16.453,14.886 16.160 C 14.580 15.180,13.820 14.416,12.861 14.125 C 12.571 14.037,12.455 14.027,11.660 14.014 C 10.997 14.004,10.739 14.014,10.614 14.055 M16.614 14.057 C 16.377 14.131,16.212 14.261,16.109 14.453 L 16.020 14.620 16.009 17.912 C 16.002 20.060,16.012 21.257,16.039 21.356 C 16.144 21.747,16.434 21.961,16.896 21.991 C 17.381 22.022,17.699 21.882,17.880 21.558 C 17.979 21.381,17.980 21.374,17.993 20.190 L 18.005 19.000 18.613 19.000 C 18.947 19.000,19.285 18.981,19.365 18.959 C 19.586 18.898,19.770 18.755,19.880 18.558 C 19.967 18.402,19.980 18.332,19.979 18.000 C 19.978 17.687,19.962 17.591,19.890 17.453 C 19.702 17.097,19.424 17.000,18.594 17.000 L 18.000 17.000 18.000 16.500 L 18.000 16.000 19.110 16.000 C 19.730 16.000,20.284 15.982,20.365 15.959 C 20.586 15.898,20.770 15.755,20.880 15.558 C 20.967 15.402,20.980 15.332,20.979 15.000 C 20.978 14.687,20.962 14.591,20.890 14.453 C 20.786 14.256,20.623 14.131,20.371 14.055 C 20.114 13.978,16.862 13.980,16.614 14.057 M6.748 16.078 C 7.076 16.278,7.076 16.722,6.748 16.922 C 6.650 16.981,6.547 17.000,6.310 17.000 L 6.000 17.000 6.000 16.500 L 6.000 16.000 6.310 16.000 C 6.547 16.000,6.650 16.019,6.748 16.078 M12.334 16.064 C 12.596 16.153,12.861 16.427,12.939 16.690 C 13.023 16.972,13.028 19.015,12.945 19.290 C 12.837 19.648,12.527 19.926,12.170 19.983 L 12.000 20.010 12.000 18.005 C 12.000 15.736,11.965 15.938,12.334 16.064 " stroke="none" fill="black" fill-rule="evenodd"></path></svg>