<svg xmlns="http://www.w3.org/2000/svg" width="24" height="24" viewBox="0 0 24 24" fill="none" stroke="currentColor" stroke-width="2" stroke-linecap="round" stroke-linejoin="round" class="icon icon-tabler icons-tabler-outline icon-tabler-plane"><path d="M8.653 2.073 C 8.366 2.173,8.180 2.310,8.075 2.498 C 7.904 2.802,7.920 2.878,8.832 6.060 L 9.668 8.980 8.547 8.991 L 7.426 9.001 6.483 8.065 C 5.607 7.196,5.523 7.124,5.322 7.064 C 5.011 6.972,1.998 6.968,1.697 7.060 C 1.415 7.147,1.148 7.358,1.040 7.580 C 0.864 7.944,0.880 7.991,1.937 10.110 L 2.879 12.000 1.950 13.862 L 1.020 15.725 1.020 16.052 C 1.020 16.328,1.036 16.409,1.120 16.558 C 1.232 16.758,1.417 16.900,1.646 16.962 C 1.745 16.988,2.430 16.999,3.550 16.992 C 5.168 16.981,5.311 16.974,5.440 16.905 C 5.517 16.864,5.995 16.419,6.502 15.915 L 7.423 14.999 8.546 15.009 L 9.668 15.020 8.832 17.940 C 8.047 20.681,7.996 20.876,8.012 21.125 C 8.040 21.563,8.257 21.854,8.635 21.959 C 8.722 21.983,9.468 21.999,10.500 21.999 C 12.144 21.998,12.228 21.995,12.400 21.917 C 12.499 21.872,12.628 21.790,12.686 21.734 C 12.745 21.678,13.645 20.141,14.686 18.318 L 16.580 15.005 18.580 14.991 C 20.545 14.978,20.585 14.976,20.860 14.885 C 21.846 14.558,22.582 13.815,22.886 12.840 C 23.021 12.406,23.021 11.594,22.886 11.160 C 22.582 10.182,21.828 9.424,20.861 9.123 L 20.540 9.023 18.560 9.009 L 16.580 8.995 14.686 5.682 C 13.645 3.859,12.745 2.323,12.686 2.268 C 12.415 2.015,12.464 2.021,10.580 2.010 C 9.008 2.002,8.842 2.007,8.653 2.073 M13.314 7.317 C 14.355 9.140,15.255 10.678,15.314 10.734 C 15.372 10.790,15.501 10.872,15.600 10.917 C 15.774 10.995,15.853 10.998,17.943 10.999 C 20.417 11.000,20.391 10.997,20.697 11.303 C 20.970 11.577,21.057 11.919,20.945 12.290 C 20.872 12.533,20.707 12.740,20.484 12.872 L 20.300 12.980 18.000 13.000 C 15.474 13.022,15.590 13.010,15.314 13.268 C 15.255 13.323,14.355 14.860,13.314 16.683 L 11.420 19.999 10.873 19.999 L 10.326 20.000 10.363 19.870 C 12.128 13.718,12.100 13.827,11.950 13.540 C 11.859 13.366,11.688 13.217,11.460 13.112 C 11.260 13.020,11.260 13.020,9.085 13.009 C 7.173 12.999,6.882 13.005,6.686 13.062 C 6.475 13.124,6.408 13.181,5.519 14.064 L 4.575 15.000 4.108 15.000 C 3.850 15.000,3.640 14.992,3.640 14.981 C 3.640 14.971,3.942 14.358,4.310 13.618 L 4.980 12.274 4.980 12.000 L 4.980 11.726 4.310 10.382 C 3.942 9.642,3.640 9.029,3.640 9.019 C 3.640 9.008,3.852 9.000,4.110 9.000 L 4.581 9.000 5.460 9.883 C 5.944 10.368,6.421 10.814,6.520 10.873 L 6.700 10.980 8.951 10.991 C 10.405 10.999,11.256 10.988,11.355 10.961 C 11.730 10.860,11.946 10.584,11.986 10.151 C 12.011 9.888,11.953 9.674,10.363 4.130 L 10.326 4.000 10.873 4.001 L 11.420 4.001 13.314 7.317 " stroke="none" fill="black" fill-rule="evenodd"></path></svg>