<svg xmlns="http://www.w3.org/2000/svg" width="24" height="24" viewBox="0 0 24 24" fill="none" stroke="currentColor" stroke-width="2" stroke-linecap="round" stroke-linejoin="round" class="icon icon-tabler icons-tabler-outline icon-tabler-arrows-join"><path d="M2.614 6.057 C 2.377 6.131,2.212 6.261,2.109 6.453 C 2.035 6.592,2.020 6.684,2.020 7.000 C 2.020 7.331,2.033 7.403,2.120 7.558 C 2.230 7.755,2.414 7.898,2.635 7.959 C 2.725 7.984,3.678 8.000,5.128 8.000 L 7.476 8.000 8.875 9.999 L 10.275 11.998 8.876 13.999 L 7.477 16.000 5.145 16.000 C 2.656 16.000,2.595 16.004,2.322 16.199 C 2.100 16.357,2.020 16.568,2.020 17.000 C 2.020 17.331,2.033 17.403,2.120 17.558 C 2.230 17.755,2.414 17.898,2.635 17.959 C 2.726 17.984,3.789 18.000,5.463 18.000 C 8.460 18.000,8.396 18.006,8.676 17.723 C 8.755 17.643,9.540 16.547,10.419 15.289 L 12.018 13.000 15.297 13.000 L 18.575 13.000 17.853 13.730 C 17.420 14.168,17.095 14.531,17.041 14.637 C 16.863 14.988,16.952 15.354,17.299 15.701 C 17.646 16.048,18.011 16.137,18.363 15.960 C 18.480 15.901,19.051 15.365,20.062 14.365 C 20.899 13.537,21.634 12.826,21.697 12.784 C 21.850 12.682,22.049 12.238,22.049 12.000 C 22.049 11.745,21.851 11.321,21.676 11.201 C 21.601 11.150,20.865 10.438,20.040 9.618 C 19.085 8.670,18.479 8.098,18.372 8.044 C 18.020 7.868,17.639 7.959,17.299 8.299 C 16.952 8.646,16.863 9.012,17.041 9.363 C 17.095 9.469,17.420 9.832,17.853 10.270 L 18.575 11.000 15.298 10.999 L 12.020 10.999 10.420 8.710 C 9.540 7.451,8.753 6.354,8.672 6.273 C 8.397 5.997,8.431 6.000,5.443 6.003 C 3.375 6.005,2.743 6.017,2.614 6.057 " stroke="none" fill="black" fill-rule="evenodd"></path></svg>