<svg xmlns="http://www.w3.org/2000/svg" width="24" height="24" viewBox="0 0 24 24" fill="none" stroke="currentColor" stroke-width="2" stroke-linecap="round" stroke-linejoin="round" class="icon icon-tabler icons-tabler-outline icon-tabler-brand-nodejs"><path d="M11.160 1.102 C 10.873 1.164,10.506 1.291,10.260 1.412 C 10.019 1.531,3.979 5.225,3.680 5.436 C 2.826 6.039,2.245 6.970,2.059 8.035 C 1.972 8.532,1.972 15.468,2.059 15.965 C 2.244 17.025,2.833 17.969,3.680 18.566 C 4.045 18.823,5.585 19.703,5.878 19.822 C 7.478 20.472,9.288 19.626,9.850 17.966 L 9.980 17.580 9.980 13.100 L 9.980 8.620 9.889 8.450 C 9.724 8.140,9.329 7.970,8.874 8.011 C 8.439 8.051,8.141 8.274,8.041 8.635 C 8.015 8.728,8.000 10.291,8.000 12.983 C 8.000 17.675,8.016 17.411,7.719 17.716 C 7.634 17.804,7.507 17.905,7.438 17.941 C 7.270 18.028,6.937 18.059,6.746 18.007 C 6.516 17.943,4.898 17.005,4.673 16.805 C 4.426 16.585,4.283 16.376,4.136 16.020 L 4.020 15.740 4.020 12.000 L 4.020 8.260 4.136 7.980 C 4.282 7.627,4.428 7.413,4.661 7.207 C 4.957 6.947,11.056 3.236,11.360 3.132 C 11.723 3.006,12.277 3.006,12.640 3.132 C 12.986 3.251,19.080 6.973,19.385 7.251 C 19.633 7.478,19.895 7.964,19.960 8.315 C 20.015 8.610,20.014 15.396,19.959 15.685 C 19.937 15.803,19.857 16.030,19.782 16.189 C 19.522 16.738,19.516 16.742,16.040 18.863 C 13.767 20.251,12.823 20.806,12.620 20.875 C 12.078 21.059,11.546 20.997,10.912 20.674 C 10.376 20.400,10.004 20.467,9.682 20.893 C 9.492 21.145,9.400 21.384,9.400 21.629 C 9.400 22.004,9.648 22.279,10.253 22.575 C 10.692 22.790,11.083 22.902,11.610 22.963 C 12.297 23.044,13.114 22.896,13.739 22.580 C 14.105 22.395,19.928 18.844,20.312 18.571 C 21.170 17.964,21.755 17.027,21.941 15.965 C 22.028 15.468,22.028 8.532,21.941 8.035 C 21.755 6.974,21.170 6.035,20.320 5.436 C 20.063 5.255,14.017 1.552,13.775 1.427 C 13.541 1.307,13.119 1.163,12.821 1.101 C 12.446 1.024,11.521 1.025,11.160 1.102 M12.960 8.062 C 12.605 8.138,12.107 8.393,11.832 8.639 C 11.532 8.907,11.239 9.352,11.118 9.722 C 11.034 9.976,11.020 10.094,11.022 10.520 C 11.024 10.959,11.038 11.056,11.133 11.320 C 11.391 12.036,11.959 12.604,12.680 12.868 C 12.979 12.977,12.984 12.977,14.320 12.999 C 15.775 13.022,15.782 13.023,15.922 13.253 C 16.021 13.415,16.021 13.585,15.922 13.748 C 15.766 14.004,15.801 14.000,13.708 14.000 C 11.688 14.000,11.589 14.008,11.322 14.199 C 11.100 14.357,11.020 14.568,11.020 15.000 C 11.020 15.331,11.033 15.403,11.120 15.558 C 11.232 15.759,11.417 15.900,11.648 15.962 C 11.749 15.989,12.531 16.000,13.912 15.992 L 16.020 15.980 16.320 15.869 C 17.041 15.604,17.606 15.039,17.867 14.320 C 17.965 14.051,17.976 13.966,17.976 13.500 C 17.976 13.035,17.965 12.948,17.868 12.680 C 17.646 12.068,17.195 11.561,16.620 11.277 C 16.120 11.030,15.911 11.001,14.568 11.001 C 13.272 11.000,13.227 10.992,13.078 10.748 C 12.935 10.513,13.009 10.226,13.252 10.078 C 13.374 10.004,13.466 10.000,15.300 10.000 C 16.462 10.000,17.277 9.984,17.365 9.959 C 17.586 9.898,17.770 9.755,17.880 9.558 C 17.967 9.402,17.980 9.332,17.979 9.000 C 17.978 8.687,17.962 8.591,17.890 8.453 C 17.786 8.256,17.623 8.131,17.371 8.055 C 17.104 7.975,13.338 7.981,12.960 8.062 " stroke="none" fill="black" fill-rule="evenodd"></path></svg>