<svg xmlns="http://www.w3.org/2000/svg" width="24" height="24" viewBox="0 0 24 24" fill="none" stroke="currentColor" stroke-width="2" stroke-linecap="round" stroke-linejoin="round" class="icon icon-tabler icons-tabler-outline icon-tabler-arrow-down-rhombus"><path d="M11.620 2.046 C 11.526 2.094,10.868 2.719,10.032 3.554 C 8.529 5.055,8.442 5.162,8.442 5.500 C 8.442 5.829,8.544 5.958,9.802 7.221 L 11.000 8.423 11.000 13.499 L 11.000 18.575 10.270 17.853 C 9.856 17.444,9.467 17.094,9.372 17.045 C 9.021 16.868,8.640 16.958,8.299 17.299 C 7.952 17.646,7.863 18.011,8.040 18.363 C 8.099 18.480,8.635 19.051,9.635 20.062 C 10.463 20.899,11.174 21.634,11.216 21.697 C 11.318 21.850,11.762 22.049,12.000 22.049 C 12.238 22.049,12.682 21.850,12.784 21.697 C 12.826 21.634,13.537 20.899,14.365 20.062 C 15.365 19.051,15.901 18.480,15.960 18.363 C 16.137 18.011,16.048 17.646,15.701 17.299 C 15.360 16.958,14.979 16.868,14.628 17.045 C 14.533 17.094,14.144 17.444,13.730 17.853 L 13.000 18.575 13.000 13.499 L 13.000 8.423 14.194 7.221 C 15.504 5.903,15.585 5.796,15.551 5.440 C 15.539 5.315,15.488 5.178,15.408 5.053 C 15.228 4.773,12.579 2.149,12.372 2.045 C 12.151 1.934,11.836 1.935,11.620 2.046 M12.551 4.971 L 13.080 5.501 12.540 6.040 L 12.000 6.579 11.460 6.040 L 10.920 5.501 11.449 4.971 C 11.741 4.679,11.988 4.440,12.000 4.440 C 12.012 4.440,12.259 4.679,12.551 4.971 " stroke="none" fill="black" fill-rule="evenodd"></path></svg>