<svg xmlns="http://www.w3.org/2000/svg" width="24" height="24" viewBox="0 0 24 24" fill="none" stroke="currentColor" stroke-width="2" stroke-linecap="round" stroke-linejoin="round" class="icon icon-tabler icons-tabler-outline icon-tabler-git-branch"><path d="M6.499 3.040 C 5.363 3.246,4.460 4.049,4.114 5.160 C 3.979 5.594,3.979 6.406,4.114 6.840 C 4.365 7.645,4.931 8.318,5.670 8.688 L 6.000 8.853 6.000 11.999 L 6.000 15.145 5.670 15.313 C 4.922 15.693,4.365 16.355,4.114 17.160 C 3.979 17.594,3.979 18.406,4.114 18.840 C 4.421 19.826,5.174 20.579,6.160 20.886 C 6.594 21.021,7.406 21.021,7.840 20.886 C 8.640 20.637,9.314 20.072,9.684 19.340 L 9.845 19.020 12.713 18.999 L 15.580 18.979 15.860 18.885 C 16.838 18.560,17.564 17.833,17.884 16.860 C 17.973 16.591,17.977 16.520,17.991 15.005 L 18.006 13.430 18.733 14.150 C 19.169 14.581,19.531 14.905,19.637 14.959 C 19.988 15.137,20.354 15.048,20.701 14.701 C 21.048 14.354,21.137 13.989,20.960 13.637 C 20.901 13.520,20.365 12.949,19.365 11.938 C 18.537 11.101,17.828 10.369,17.789 10.310 C 17.684 10.150,17.255 9.960,17.000 9.960 C 16.745 9.960,16.316 10.150,16.211 10.310 C 16.172 10.369,15.463 11.101,14.635 11.938 C 13.635 12.949,13.099 13.520,13.040 13.637 C 12.863 13.989,12.952 14.354,13.299 14.701 C 13.646 15.048,14.012 15.137,14.363 14.959 C 14.469 14.905,14.832 14.580,15.270 14.147 L 16.000 13.425 16.000 14.766 C 16.000 16.225,15.985 16.347,15.779 16.618 C 15.718 16.698,15.585 16.813,15.484 16.872 L 15.300 16.980 12.577 16.991 L 9.854 17.002 9.688 16.671 C 9.403 16.102,8.909 15.607,8.330 15.313 L 8.000 15.145 8.000 11.999 L 8.000 8.853 8.330 8.688 C 9.069 8.318,9.635 7.645,9.886 6.840 C 10.021 6.406,10.021 5.594,9.886 5.160 C 9.581 4.179,8.810 3.407,7.861 3.129 C 7.500 3.023,6.832 2.980,6.499 3.040 M16.499 3.040 C 15.363 3.246,14.460 4.049,14.114 5.160 C 13.979 5.594,13.979 6.406,14.114 6.840 C 14.421 7.826,15.174 8.579,16.160 8.886 C 16.594 9.021,17.406 9.021,17.840 8.886 C 18.826 8.579,19.579 7.826,19.886 6.840 C 20.021 6.406,20.021 5.594,19.886 5.160 C 19.581 4.179,18.810 3.407,17.861 3.129 C 17.500 3.023,16.832 2.980,16.499 3.040 M7.310 5.061 C 7.688 5.173,8.000 5.598,8.000 6.001 C 8.000 6.331,7.784 6.696,7.484 6.872 C 7.328 6.963,7.254 6.980,7.000 6.980 C 6.746 6.980,6.672 6.963,6.516 6.872 C 5.935 6.530,5.833 5.774,6.304 5.303 C 6.583 5.024,6.916 4.944,7.310 5.061 M17.310 5.061 C 17.688 5.173,18.000 5.598,18.000 6.001 C 18.000 6.331,17.784 6.696,17.484 6.872 C 17.328 6.963,17.254 6.980,17.000 6.980 C 16.746 6.980,16.672 6.963,16.516 6.872 C 15.932 6.528,15.831 5.775,16.307 5.299 C 16.582 5.024,16.918 4.944,17.310 5.061 M7.310 17.061 C 7.688 17.173,8.000 17.598,8.000 18.001 C 8.000 18.331,7.784 18.696,7.484 18.872 C 7.328 18.963,7.254 18.980,7.000 18.980 C 6.746 18.980,6.672 18.963,6.516 18.872 C 5.935 18.530,5.833 17.774,6.304 17.303 C 6.583 17.024,6.916 16.944,7.310 17.061 " stroke="none" fill="black" fill-rule="evenodd"></path></svg>