<svg xmlns="http://www.w3.org/2000/svg" width="24" height="24" viewBox="0 0 24 24" fill="none" stroke="currentColor" stroke-width="2" stroke-linecap="round" stroke-linejoin="round" class="icon icon-tabler icons-tabler-outline icon-tabler-mood-look-down"><path d="M11.080 2.045 C 9.507 2.184,7.883 2.751,6.540 3.630 C 5.905 4.045,5.499 4.378,4.919 4.958 C 2.953 6.926,1.919 9.544,2.013 12.320 C 2.084 14.439,2.752 16.328,4.033 18.040 C 4.430 18.570,5.305 19.464,5.800 19.847 C 7.242 20.961,8.787 21.624,10.600 21.907 C 11.247 22.008,12.753 22.008,13.400 21.907 C 15.638 21.557,17.504 20.620,19.062 19.062 C 20.620 17.504,21.557 15.638,21.907 13.400 C 22.008 12.753,22.008 11.247,21.907 10.600 C 21.624 8.786,20.959 7.238,19.847 5.800 C 19.510 5.365,18.639 4.494,18.200 4.154 C 16.133 2.555,13.646 1.818,11.080 2.045 M12.734 4.041 C 14.574 4.216,16.228 4.976,17.554 6.256 C 20.043 8.658,20.702 12.394,19.183 15.499 C 18.749 16.387,18.223 17.105,17.496 17.801 C 16.876 18.394,16.262 18.819,15.471 19.200 C 13.267 20.265,10.733 20.265,8.529 19.200 C 7.477 18.693,6.612 18.015,5.847 17.100 C 3.848 14.711,3.440 11.302,4.816 8.500 C 6.162 5.760,8.867 4.049,11.920 4.005 C 12.129 4.003,12.495 4.019,12.734 4.041 M8.614 12.055 C 8.220 12.184,8.039 12.437,8.009 12.900 C 7.978 13.381,8.119 13.699,8.442 13.880 C 8.597 13.967,8.669 13.980,9.000 13.980 C 9.312 13.980,9.408 13.964,9.540 13.894 C 9.866 13.718,10.000 13.459,10.000 13.000 C 10.000 12.357,9.713 12.048,9.083 12.016 C 8.893 12.006,8.718 12.021,8.614 12.055 M14.614 12.055 C 14.220 12.184,14.039 12.437,14.009 12.900 C 13.978 13.381,14.119 13.699,14.442 13.880 C 14.597 13.967,14.669 13.980,15.000 13.980 C 15.312 13.980,15.408 13.964,15.540 13.894 C 15.866 13.718,16.000 13.459,16.000 13.000 C 16.000 12.357,15.713 12.048,15.083 12.016 C 14.893 12.006,14.718 12.021,14.614 12.055 M10.614 16.057 C 10.377 16.131,10.212 16.261,10.109 16.453 C 10.035 16.592,10.020 16.684,10.020 17.000 C 10.020 17.331,10.033 17.403,10.120 17.558 C 10.230 17.755,10.414 17.898,10.635 17.959 C 10.826 18.012,13.174 18.012,13.365 17.959 C 13.586 17.898,13.770 17.755,13.880 17.558 C 13.967 17.402,13.980 17.332,13.979 17.000 C 13.978 16.687,13.962 16.591,13.890 16.453 C 13.786 16.256,13.623 16.131,13.371 16.055 C 13.117 15.979,10.859 15.981,10.614 16.057 " stroke="none" fill="black" fill-rule="evenodd"></path></svg>