<svg xmlns="http://www.w3.org/2000/svg" width="24" height="24" viewBox="0 0 24 24" fill="none" stroke="currentColor" stroke-width="2" stroke-linecap="round" stroke-linejoin="round" class="icon icon-tabler icons-tabler-outline icon-tabler-direction-arrows"><path d="M11.080 2.045 C 9.507 2.184,7.883 2.751,6.540 3.630 C 5.905 4.045,5.499 4.378,4.919 4.958 C 2.953 6.926,1.919 9.544,2.013 12.320 C 2.084 14.439,2.752 16.328,4.033 18.040 C 4.430 18.570,5.305 19.464,5.800 19.847 C 7.242 20.961,8.787 21.624,10.600 21.907 C 11.247 22.008,12.753 22.008,13.400 21.907 C 15.638 21.557,17.504 20.620,19.062 19.062 C 20.620 17.504,21.557 15.638,21.907 13.400 C 22.008 12.753,22.008 11.247,21.907 10.600 C 21.624 8.786,20.959 7.238,19.847 5.800 C 19.510 5.365,18.639 4.494,18.200 4.154 C 16.133 2.555,13.646 1.818,11.080 2.045 M12.734 4.041 C 14.574 4.216,16.228 4.976,17.554 6.256 C 20.043 8.658,20.702 12.394,19.183 15.499 C 18.749 16.387,18.223 17.105,17.496 17.801 C 16.876 18.394,16.262 18.819,15.471 19.200 C 13.267 20.265,10.733 20.265,8.529 19.200 C 7.477 18.693,6.612 18.015,5.847 17.100 C 3.848 14.711,3.440 11.302,4.816 8.500 C 6.162 5.760,8.867 4.049,11.920 4.005 C 12.129 4.003,12.495 4.019,12.734 4.041 M11.620 6.046 C 11.396 6.163,10.151 7.416,10.040 7.637 C 9.863 7.989,9.952 8.354,10.299 8.701 C 10.641 9.043,11.013 9.137,11.349 8.965 C 11.440 8.919,11.623 8.780,11.757 8.656 L 12.000 8.431 12.243 8.656 C 12.377 8.780,12.560 8.919,12.651 8.965 C 12.987 9.137,13.359 9.043,13.701 8.701 C 14.048 8.354,14.137 7.989,13.960 7.637 C 13.844 7.407,12.600 6.159,12.372 6.045 C 12.151 5.934,11.836 5.935,11.620 6.046 M7.620 10.046 C 7.396 10.163,6.151 11.416,6.040 11.637 C 5.986 11.745,5.951 11.888,5.951 12.000 C 5.951 12.307,6.078 12.489,6.795 13.205 C 7.511 13.922,7.693 14.049,8.000 14.049 C 8.477 14.049,9.049 13.477,9.049 13.000 C 9.049 12.760,8.939 12.549,8.656 12.243 L 8.431 12.000 8.656 11.757 C 9.055 11.326,9.144 11.002,8.962 10.644 C 8.852 10.428,8.576 10.150,8.365 10.043 C 8.152 9.934,7.835 9.935,7.620 10.046 M15.626 10.045 C 15.420 10.154,15.146 10.433,15.038 10.644 C 14.856 11.002,14.945 11.326,15.344 11.757 L 15.569 12.000 15.344 12.243 C 15.061 12.549,14.951 12.760,14.951 13.000 C 14.951 13.477,15.523 14.049,16.000 14.049 C 16.307 14.049,16.489 13.922,17.205 13.205 C 17.922 12.489,18.049 12.307,18.049 12.000 C 18.049 11.888,18.014 11.745,17.960 11.637 C 17.844 11.407,16.600 10.159,16.372 10.045 C 16.152 9.934,15.835 9.934,15.626 10.045 M10.626 15.045 C 10.420 15.154,10.146 15.433,10.038 15.644 C 9.924 15.868,9.924 16.133,10.040 16.363 C 10.159 16.600,11.400 17.841,11.637 17.960 C 11.869 18.076,12.131 18.076,12.363 17.960 C 12.600 17.841,13.841 16.600,13.960 16.363 C 14.137 16.011,14.048 15.646,13.701 15.299 C 13.466 15.064,13.251 14.960,13.000 14.960 C 12.742 14.960,12.555 15.055,12.243 15.344 L 12.000 15.569 11.757 15.344 C 11.623 15.220,11.444 15.083,11.358 15.039 C 11.153 14.934,10.831 14.937,10.626 15.045 " stroke="none" fill="black" fill-rule="evenodd"></path></svg>