<svg xmlns="http://www.w3.org/2000/svg" width="24" height="24" viewBox="0 0 24 24" fill="none" stroke="currentColor" stroke-width="2" stroke-linecap="round" stroke-linejoin="round" class="icon icon-tabler icons-tabler-outline icon-tabler-step-out"><path d="M11.771 1.977 C 11.524 2.056,11.249 2.228,11.173 2.352 C 11.136 2.411,10.211 3.360,9.117 4.460 C 7.754 5.831,7.101 6.516,7.040 6.637 C 6.863 6.990,6.952 7.354,7.299 7.701 C 7.646 8.048,8.011 8.137,8.363 7.960 C 8.479 7.901,8.961 7.452,9.770 6.647 L 11.000 5.423 11.000 10.321 C 11.000 13.480,11.015 15.271,11.041 15.365 C 11.148 15.750,11.437 15.962,11.896 15.991 C 12.381 16.022,12.699 15.882,12.880 15.558 L 12.980 15.380 12.991 10.402 L 13.002 5.424 14.231 6.648 C 15.039 7.452,15.521 7.901,15.637 7.960 C 15.989 8.137,16.354 8.048,16.701 7.701 C 17.048 7.354,17.137 6.989,16.960 6.637 C 16.899 6.516,16.234 5.818,14.866 4.439 C 13.763 3.327,12.829 2.370,12.790 2.311 C 12.711 2.191,12.292 1.974,12.080 1.943 C 12.003 1.932,11.864 1.947,11.771 1.977 M11.477 18.073 C 10.806 18.249,10.238 18.823,10.060 19.508 C 9.941 19.962,10.003 20.492,10.225 20.930 C 10.361 21.199,10.801 21.639,11.070 21.775 C 11.659 22.073,12.341 22.073,12.930 21.775 C 13.196 21.640,13.638 21.200,13.771 20.937 C 13.994 20.498,14.052 20.007,13.940 19.529 C 13.858 19.182,13.720 18.927,13.465 18.653 C 13.074 18.232,12.560 18.005,12.000 18.005 C 11.857 18.005,11.622 18.036,11.477 18.073 " stroke="none" fill="black" fill-rule="evenodd"></path></svg>