<svg xmlns="http://www.w3.org/2000/svg" width="24" height="24" viewBox="0 0 24 24" fill="none" stroke="currentColor" stroke-width="2" stroke-linecap="round" stroke-linejoin="round" class="icon icon-tabler icons-tabler-outline icon-tabler-thumb-down-off"><path d="M2.626 2.045 C 2.541 2.090,2.394 2.204,2.299 2.299 C 1.852 2.746,1.837 3.183,2.250 3.658 L 2.387 3.816 2.295 3.951 C 2.245 4.025,2.162 4.188,2.112 4.313 L 2.020 4.540 2.009 8.379 C 2.002 10.963,2.012 12.284,2.040 12.422 C 2.171 13.053,2.675 13.632,3.316 13.888 C 3.535 13.976,3.589 13.979,5.540 14.001 C 7.523 14.024,7.543 14.025,7.861 14.124 C 8.819 14.420,9.589 15.190,9.874 16.139 C 9.960 16.427,9.973 16.568,10.000 17.520 C 10.026 18.453,10.041 18.614,10.119 18.860 C 10.428 19.832,11.183 20.582,12.160 20.886 C 12.412 20.964,12.547 20.979,13.000 20.979 C 13.453 20.979,13.588 20.964,13.840 20.886 C 14.808 20.585,15.560 19.844,15.870 18.887 C 15.950 18.640,15.973 18.468,15.990 18.006 L 16.011 17.433 18.236 19.652 C 19.778 21.191,20.514 21.899,20.637 21.960 C 20.990 22.137,21.354 22.048,21.701 21.701 C 22.048 21.354,22.137 20.990,21.960 20.637 C 21.898 20.513,20.962 19.544,18.853 17.420 C 17.193 15.748,15.795 14.341,15.747 14.293 C 15.495 14.041,7.845 6.391,7.760 6.305 C 7.705 6.250,7.030 5.575,6.260 4.805 C 5.490 4.036,4.815 3.359,4.760 3.302 C 4.371 2.897,3.502 2.113,3.367 2.044 C 3.153 1.934,2.835 1.935,2.626 2.045 M9.540 3.027 C 8.604 3.144,7.609 3.649,7.442 4.093 C 7.331 4.389,7.452 4.818,7.740 5.147 C 8.071 5.525,8.404 5.569,8.940 5.304 C 9.568 4.994,9.153 5.021,13.360 5.009 C 15.439 5.002,17.181 5.007,17.231 5.020 C 17.370 5.054,17.625 5.304,17.756 5.534 C 17.946 5.868,18.012 6.140,18.519 8.682 C 18.987 11.032,18.999 11.109,18.946 11.288 C 18.872 11.533,18.708 11.740,18.484 11.872 C 18.304 11.978,18.282 11.980,17.479 12.000 C 16.696 12.019,16.648 12.025,16.459 12.122 C 16.119 12.297,15.978 12.606,16.009 13.104 C 16.039 13.572,16.252 13.856,16.656 13.964 C 16.762 13.993,17.127 14.002,17.700 13.990 C 18.472 13.974,18.614 13.961,18.860 13.882 C 20.059 13.497,20.907 12.442,20.984 11.243 C 21.005 10.918,20.977 10.756,20.466 8.220 C 19.885 5.337,19.817 5.080,19.478 4.516 C 19.121 3.922,18.733 3.543,18.190 3.258 C 17.691 2.995,17.795 3.001,13.520 3.007 C 11.397 3.010,9.606 3.019,9.540 3.027 M6.000 9.710 L 6.000 12.000 5.000 12.000 L 4.000 12.000 4.000 8.710 L 4.000 5.421 5.000 6.420 L 6.000 7.419 6.000 9.710 M14.000 16.764 C 14.000 18.225,13.985 18.347,13.779 18.618 C 13.718 18.698,13.585 18.813,13.484 18.872 C 13.328 18.963,13.254 18.980,13.000 18.980 C 12.746 18.980,12.672 18.963,12.516 18.872 C 12.326 18.760,12.155 18.568,12.072 18.373 C 12.042 18.302,12.014 17.902,11.998 17.300 C 11.980 16.622,11.952 16.246,11.903 16.020 C 11.567 14.469,10.590 13.210,9.180 12.510 C 8.874 12.358,8.386 12.182,8.150 12.139 L 8.000 12.111 8.000 10.766 L 8.000 9.420 11.000 12.420 L 14.000 15.420 14.000 16.764 " stroke="none" fill="black" fill-rule="evenodd"></path></svg>