<svg xmlns="http://www.w3.org/2000/svg" width="24" height="24" viewBox="0 0 24 24" fill="none" stroke="currentColor" stroke-width="2" stroke-linecap="round" stroke-linejoin="round" class="icon icon-tabler icons-tabler-outline icon-tabler-brand-figma"><path d="M8.358 2.061 C 6.150 2.405,4.636 4.582,5.082 6.772 C 5.243 7.562,5.566 8.174,6.155 8.810 L 6.331 9.000 6.155 9.190 C 5.566 9.826,5.243 10.438,5.082 11.228 C 4.929 11.979,5.008 12.797,5.301 13.505 C 5.513 14.017,5.736 14.358,6.155 14.810 L 6.331 15.000 6.155 15.190 C 5.736 15.642,5.513 15.983,5.301 16.495 C 4.460 18.526,5.458 20.876,7.512 21.704 C 9.558 22.528,11.877 21.538,12.704 19.488 C 12.967 18.835,13.000 18.550,13.000 16.924 C 13.000 16.130,13.014 15.480,13.032 15.480 C 13.050 15.480,13.081 15.497,13.102 15.517 C 13.123 15.538,13.300 15.619,13.496 15.698 C 15.563 16.529,17.871 15.548,18.705 13.484 C 19.090 12.531,19.090 11.470,18.704 10.512 C 18.495 9.995,18.271 9.649,17.845 9.190 L 17.669 9.000 17.845 8.810 C 18.271 8.351,18.495 8.005,18.704 7.488 C 19.090 6.530,19.090 5.469,18.705 4.516 C 18.172 3.197,17.001 2.269,15.605 2.058 C 15.068 1.978,8.880 1.980,8.358 2.061 M11.000 6.000 L 11.000 8.000 9.868 8.000 C 8.650 8.000,8.471 7.978,8.083 7.781 C 7.975 7.727,7.782 7.585,7.653 7.465 C 6.665 6.547,6.829 4.981,7.987 4.279 C 8.390 4.035,8.597 4.005,9.870 4.002 L 11.000 4.000 11.000 6.000 M15.523 4.073 C 16.262 4.266,16.850 4.924,16.967 5.690 C 17.029 6.098,16.967 6.522,16.793 6.880 C 16.638 7.198,16.227 7.625,15.930 7.775 C 15.528 7.979,15.358 8.000,14.132 8.000 L 13.000 8.000 13.000 6.000 L 13.000 4.000 14.130 4.002 C 15.064 4.004,15.306 4.017,15.523 4.073 M11.000 12.000 L 11.000 14.000 9.868 14.000 C 8.650 14.000,8.471 13.978,8.083 13.781 C 7.975 13.727,7.782 13.585,7.653 13.465 C 6.665 12.547,6.829 10.981,7.987 10.279 C 8.390 10.035,8.597 10.005,9.870 10.002 L 11.000 10.000 11.000 12.000 M15.523 10.073 C 16.262 10.266,16.850 10.924,16.967 11.690 C 17.067 12.343,16.873 12.933,16.403 13.404 C 16.002 13.807,15.547 14.000,15.000 14.000 C 14.485 14.000,14.038 13.822,13.653 13.465 C 12.323 12.229,13.189 10.005,15.000 10.005 C 15.143 10.005,15.378 10.036,15.523 10.073 M10.999 17.090 C 10.999 18.293,10.964 18.571,10.772 18.931 C 10.625 19.208,10.191 19.643,9.930 19.775 C 9.159 20.166,8.279 20.046,7.653 19.465 C 6.665 18.547,6.829 16.981,7.987 16.279 C 8.390 16.035,8.597 16.005,9.870 16.002 L 11.000 16.000 10.999 17.090 " stroke="none" fill="black" fill-rule="evenodd"></path></svg>