<svg xmlns="http://www.w3.org/2000/svg" width="24" height="24" viewBox="0 0 24 24" fill="none" stroke="currentColor" stroke-width="2" stroke-linecap="round" stroke-linejoin="round" class="icon icon-tabler icons-tabler-outline icon-tabler-brand-airbnb"><path d="M11.490 2.041 C 10.306 2.190,9.276 3.005,8.229 4.620 C 7.259 6.117,6.372 7.643,5.568 9.200 C 4.468 11.328,3.199 14.383,2.860 15.721 C 2.569 16.866,2.563 17.876,2.842 18.720 C 3.049 19.344,3.325 19.772,3.877 20.320 C 4.926 21.362,6.348 22.000,7.620 22.000 C 8.873 22.000,10.395 21.336,11.610 20.261 L 12.000 19.916 12.390 20.261 C 13.605 21.336,15.127 22.000,16.380 22.000 C 17.649 22.000,19.075 21.360,20.123 20.320 C 20.550 19.896,20.749 19.631,20.958 19.211 C 21.428 18.262,21.489 17.094,21.140 15.721 C 20.800 14.382,19.530 11.323,18.432 9.200 C 17.627 7.644,16.718 6.081,15.745 4.580 C 14.800 3.121,13.814 2.305,12.733 2.084 C 12.423 2.021,11.818 2.000,11.490 2.041 M12.624 4.146 C 12.780 4.221,12.992 4.387,13.249 4.635 C 13.575 4.949,13.714 5.127,14.095 5.715 C 15.613 8.062,16.839 10.330,17.861 12.681 C 18.578 14.331,18.972 15.373,19.190 16.199 C 19.321 16.696,19.333 16.787,19.336 17.320 C 19.338 17.789,19.324 17.938,19.265 18.100 C 18.908 19.069,17.486 19.998,16.360 19.999 C 15.762 19.999,14.914 19.665,14.181 19.142 C 13.906 18.946,13.360 18.450,13.360 18.397 C 13.360 18.378,13.535 18.123,13.748 17.831 C 15.041 16.063,15.750 14.691,15.946 13.580 C 16.025 13.133,15.997 12.340,15.884 11.837 C 15.547 10.336,14.577 9.396,13.055 9.094 C 12.562 8.996,11.438 8.996,10.945 9.094 C 9.421 9.396,8.454 10.334,8.116 11.837 C 8.003 12.340,7.975 13.133,8.054 13.580 C 8.250 14.691,8.959 16.063,10.252 17.831 C 10.465 18.123,10.640 18.378,10.640 18.397 C 10.640 18.450,10.094 18.946,9.819 19.142 C 9.300 19.513,8.717 19.793,8.190 19.926 C 7.354 20.136,6.422 19.857,5.507 19.120 C 5.141 18.826,4.848 18.432,4.733 18.082 C 4.675 17.907,4.661 17.742,4.664 17.300 C 4.668 16.793,4.681 16.689,4.811 16.199 C 5.076 15.192,5.745 13.501,6.678 11.480 C 7.464 9.779,8.759 7.471,9.979 5.600 C 10.568 4.696,11.127 4.168,11.629 4.041 C 11.906 3.971,12.362 4.019,12.624 4.146 M12.860 11.100 C 13.602 11.298,13.928 11.784,13.984 12.780 C 14.003 13.109,13.992 13.236,13.922 13.500 C 13.825 13.869,13.478 14.609,13.143 15.160 C 12.866 15.616,12.042 16.800,12.001 16.800 C 11.963 16.800,11.315 15.885,10.980 15.360 C 10.610 14.778,10.176 13.884,10.080 13.504 C 9.990 13.147,9.981 12.903,10.042 12.461 C 10.163 11.592,10.568 11.176,11.420 11.042 C 11.751 10.990,12.570 11.023,12.860 11.100 " stroke="none" fill="black" fill-rule="evenodd"></path></svg>