<svg xmlns="http://www.w3.org/2000/svg" width="24" height="24" viewBox="0 0 24 24" fill="none" stroke="currentColor" stroke-width="2" stroke-linecap="round" stroke-linejoin="round" class="icon icon-tabler icons-tabler-outline icon-tabler-box-align-bottom"><path d="M3.614 3.057 C 3.221 3.180,3.039 3.435,3.009 3.906 C 2.962 4.621,3.306 5.000,4.000 5.000 C 4.698 5.000,5.043 4.616,4.989 3.900 C 4.963 3.563,4.859 3.327,4.678 3.199 C 4.414 3.010,3.957 2.950,3.614 3.057 M8.614 3.057 C 8.221 3.180,8.039 3.435,8.009 3.906 C 7.962 4.621,8.306 5.000,9.000 5.000 C 9.698 5.000,10.043 4.616,9.989 3.900 C 9.963 3.563,9.859 3.327,9.678 3.199 C 9.414 3.010,8.957 2.950,8.614 3.057 M14.614 3.057 C 14.221 3.180,14.039 3.435,14.009 3.906 C 13.962 4.621,14.306 5.000,15.000 5.000 C 15.698 5.000,16.043 4.616,15.989 3.900 C 15.963 3.563,15.859 3.327,15.678 3.199 C 15.414 3.010,14.957 2.950,14.614 3.057 M19.614 3.057 C 19.221 3.180,19.039 3.435,19.009 3.906 C 18.962 4.621,19.306 5.000,20.000 5.000 C 20.698 5.000,21.043 4.616,20.989 3.900 C 20.963 3.563,20.859 3.327,20.678 3.199 C 20.414 3.010,19.957 2.950,19.614 3.057 M3.614 8.057 C 3.221 8.180,3.039 8.435,3.009 8.906 C 2.962 9.621,3.306 10.000,4.000 10.000 C 4.698 10.000,5.043 9.616,4.989 8.900 C 4.963 8.563,4.859 8.327,4.678 8.199 C 4.414 8.010,3.957 7.950,3.614 8.057 M19.614 8.057 C 19.221 8.180,19.039 8.435,19.009 8.906 C 18.962 9.621,19.306 10.000,20.000 10.000 C 20.698 10.000,21.043 9.616,20.989 8.900 C 20.963 8.563,20.859 8.327,20.678 8.199 C 20.414 8.010,19.957 7.950,19.614 8.057 M3.614 13.057 C 3.377 13.131,3.212 13.261,3.109 13.453 L 3.020 13.620 3.009 16.419 C 3.002 18.276,3.012 19.286,3.040 19.421 C 3.148 19.941,3.602 20.538,4.070 20.775 C 4.540 21.013,4.078 21.000,12.000 21.000 C 19.922 21.000,19.460 21.013,19.930 20.775 C 20.196 20.640,20.638 20.200,20.771 19.937 C 21.005 19.476,21.004 19.496,20.991 16.429 L 20.980 13.620 20.891 13.453 C 20.785 13.256,20.622 13.131,20.371 13.055 C 20.106 12.976,3.868 12.978,3.614 13.057 M19.000 17.000 L 19.000 19.000 12.000 19.000 L 5.000 19.000 5.000 17.000 L 5.000 15.000 12.000 15.000 L 19.000 15.000 19.000 17.000 " stroke="none" fill="black" fill-rule="evenodd"></path></svg>