<svg xmlns="http://www.w3.org/2000/svg" width="24" height="24" viewBox="0 0 24 24" fill="none" stroke="currentColor" stroke-width="2" stroke-linecap="round" stroke-linejoin="round" class="icon icon-tabler icons-tabler-outline icon-tabler-direction-sign-off"><path d="M2.626 2.045 C 2.420 2.154,2.146 2.433,2.038 2.644 C 1.924 2.868,1.924 3.133,2.040 3.363 C 2.101 3.484,2.716 4.129,3.993 5.410 L 5.858 7.280 4.095 9.050 C 2.196 10.957,2.200 10.951,2.056 11.520 C 1.925 12.036,2.043 12.710,2.339 13.140 C 2.415 13.250,4.354 15.214,6.649 17.505 C 10.212 21.063,10.852 21.685,11.040 21.773 C 11.673 22.073,12.330 22.073,12.960 21.773 C 13.142 21.686,13.489 21.360,14.950 19.905 L 16.720 18.142 18.590 20.007 C 19.871 21.284,20.516 21.899,20.637 21.960 C 20.989 22.137,21.354 22.048,21.701 21.701 C 22.048 21.355,22.137 20.990,21.961 20.637 C 21.885 20.486,18.837 17.395,12.747 11.293 C 8.533 7.070,3.506 2.111,3.372 2.044 C 3.152 1.934,2.835 1.935,2.626 2.045 M11.511 2.062 C 10.987 2.189,10.867 2.283,9.589 3.554 C 8.762 4.377,8.371 4.794,8.311 4.918 C 8.139 5.274,8.236 5.643,8.593 5.991 C 8.933 6.321,9.283 6.402,9.637 6.233 C 9.764 6.172,10.152 5.816,10.911 5.064 L 12.003 3.983 16.010 7.990 L 20.017 11.997 18.936 13.089 C 18.184 13.848,17.828 14.236,17.767 14.363 C 17.596 14.721,17.680 15.074,18.019 15.412 C 18.377 15.770,18.726 15.861,19.083 15.688 C 19.209 15.627,19.623 15.239,20.465 14.391 C 21.756 13.090,21.805 13.027,21.944 12.480 C 22.075 11.964,21.957 11.290,21.661 10.860 C 21.585 10.750,19.655 8.794,17.371 6.514 C 13.684 2.831,13.192 2.354,12.970 2.243 C 12.502 2.010,11.988 1.947,11.511 2.062 M8.440 9.860 L 9.579 11.000 8.696 11.000 C 7.757 11.000,7.561 11.028,7.322 11.199 C 7.100 11.357,7.020 11.568,7.020 12.000 C 7.020 12.331,7.033 12.403,7.120 12.558 C 7.230 12.755,7.414 12.898,7.635 12.959 C 7.723 12.984,8.531 13.000,9.681 13.000 L 11.582 13.000 11.960 13.380 L 12.338 13.759 11.710 14.391 C 11.312 14.792,11.060 15.079,11.018 15.178 C 10.937 15.373,10.935 15.623,11.014 15.812 C 11.104 16.027,11.431 16.358,11.660 16.465 C 12.112 16.677,12.313 16.583,13.120 15.778 L 13.741 15.160 14.520 15.940 L 15.300 16.720 13.650 18.370 L 12.000 20.020 7.990 16.010 L 3.980 12.000 5.620 10.360 C 6.522 9.458,7.269 8.720,7.280 8.720 C 7.291 8.720,7.813 9.233,8.440 9.860 " stroke="none" fill="black" fill-rule="evenodd"></path></svg>