<svg xmlns="http://www.w3.org/2000/svg" width="24" height="24" viewBox="0 0 24 24" fill="none" stroke="currentColor" stroke-width="2" stroke-linecap="round" stroke-linejoin="round" class="icon icon-tabler icons-tabler-outline icon-tabler-wash-dry-w"><path d="M11.080 2.045 C 9.507 2.184,7.883 2.751,6.540 3.630 C 5.905 4.045,5.499 4.378,4.919 4.958 C 2.953 6.926,1.919 9.544,2.013 12.320 C 2.084 14.439,2.752 16.328,4.033 18.040 C 4.430 18.570,5.305 19.464,5.800 19.847 C 7.242 20.961,8.787 21.624,10.600 21.907 C 11.247 22.008,12.753 22.008,13.400 21.907 C 15.638 21.557,17.504 20.620,19.062 19.062 C 20.620 17.504,21.557 15.638,21.907 13.400 C 22.008 12.753,22.008 11.247,21.907 10.600 C 21.624 8.786,20.959 7.238,19.847 5.800 C 19.510 5.365,18.639 4.494,18.200 4.154 C 16.133 2.555,13.646 1.818,11.080 2.045 M12.734 4.041 C 14.574 4.216,16.228 4.976,17.554 6.256 C 20.043 8.658,20.702 12.394,19.183 15.499 C 18.749 16.387,18.223 17.105,17.496 17.801 C 16.876 18.394,16.262 18.819,15.471 19.200 C 13.267 20.265,10.733 20.265,8.529 19.200 C 7.477 18.693,6.612 18.015,5.847 17.100 C 3.848 14.711,3.440 11.302,4.816 8.500 C 6.162 5.760,8.867 4.049,11.920 4.005 C 12.129 4.003,12.495 4.019,12.734 4.041 M7.619 7.070 C 7.193 7.222,7.000 7.476,7.000 7.886 C 7.000 8.124,8.481 16.098,8.581 16.403 C 8.660 16.642,8.894 16.868,9.140 16.942 C 9.375 17.013,10.555 17.022,10.820 16.956 C 11.054 16.897,11.290 16.687,11.389 16.452 C 11.433 16.346,11.584 15.797,11.724 15.230 C 11.864 14.663,11.988 14.200,12.000 14.200 C 12.012 14.200,12.136 14.663,12.276 15.230 C 12.416 15.797,12.567 16.346,12.611 16.452 C 12.710 16.687,12.946 16.897,13.180 16.956 C 13.445 17.022,14.625 17.013,14.860 16.942 C 15.106 16.868,15.340 16.642,15.419 16.403 C 15.452 16.302,15.822 14.393,16.242 12.160 C 17.081 7.695,17.077 7.721,16.871 7.410 C 16.798 7.299,16.691 7.212,16.532 7.134 C 16.329 7.034,16.255 7.020,15.937 7.020 C 15.610 7.020,15.558 7.031,15.411 7.128 C 15.108 7.329,15.097 7.368,14.487 10.620 C 13.977 13.337,13.928 13.567,13.887 13.420 C 13.863 13.332,13.644 12.462,13.401 11.486 C 13.157 10.510,12.930 9.646,12.897 9.566 C 12.701 9.096,11.980 8.848,11.495 9.083 C 11.171 9.240,11.140 9.321,10.623 11.389 C 10.366 12.418,10.137 13.332,10.113 13.420 C 10.072 13.567,10.023 13.337,9.513 10.620 C 8.903 7.368,8.892 7.329,8.589 7.128 C 8.376 6.987,7.927 6.960,7.619 7.070 " stroke="none" fill="black" fill-rule="evenodd"></path></svg>