<svg xmlns="http://www.w3.org/2000/svg" width="24" height="24" viewBox="0 0 24 24" fill="none" stroke="currentColor" stroke-width="2" stroke-linecap="round" stroke-linejoin="round" class="icon icon-tabler icons-tabler-outline icon-tabler-rewind-forward-30"><path d="M16.626 2.045 C 16.257 2.239,15.951 2.673,15.951 3.000 C 15.951 3.307,16.079 3.487,16.851 4.268 L 17.572 4.997 12.876 5.011 C 8.272 5.025,8.171 5.027,7.740 5.111 C 5.777 5.493,4.012 6.704,3.033 8.340 C 2.390 9.412,2.056 10.526,2.011 11.745 C 1.945 13.530,2.558 15.261,3.730 16.602 C 4.309 17.264,4.675 17.527,5.020 17.527 C 5.501 17.527,6.055 16.956,6.055 16.460 C 6.055 16.182,5.971 16.045,5.502 15.560 C 5.024 15.066,4.794 14.753,4.549 14.260 C 4.340 13.842,4.198 13.434,4.095 12.958 C 3.994 12.490,3.993 11.513,4.093 11.040 C 4.521 9.029,5.982 7.559,8.020 7.090 C 8.267 7.033,8.849 7.024,12.939 7.011 L 17.578 6.997 16.854 7.729 C 16.420 8.167,16.095 8.531,16.041 8.637 C 15.863 8.988,15.952 9.354,16.299 9.701 C 16.646 10.048,17.011 10.137,17.363 9.960 C 17.480 9.901,18.051 9.365,19.062 8.365 C 19.899 7.537,20.634 6.826,20.697 6.784 C 20.850 6.682,21.049 6.238,21.049 6.000 C 21.049 5.745,20.851 5.321,20.676 5.201 C 20.601 5.150,19.865 4.438,19.040 3.618 C 18.085 2.670,17.479 2.098,17.372 2.044 C 17.152 1.934,16.835 1.934,16.626 2.045 M8.614 13.057 C 8.377 13.131,8.212 13.261,8.109 13.453 C 8.035 13.592,8.020 13.684,8.020 14.000 C 8.020 14.331,8.033 14.403,8.120 14.558 C 8.230 14.755,8.414 14.898,8.635 14.959 C 8.715 14.981,9.194 15.000,9.700 15.000 C 10.542 15.000,10.631 15.007,10.748 15.078 C 10.991 15.226,11.065 15.513,10.922 15.748 C 10.798 15.951,10.659 16.000,10.208 16.000 C 9.593 16.000,9.283 16.128,9.109 16.453 C 9.035 16.592,9.020 16.684,9.020 17.000 C 9.020 17.331,9.033 17.403,9.120 17.558 C 9.309 17.896,9.562 17.999,10.200 18.000 C 10.546 18.000,10.643 18.014,10.748 18.078 C 10.991 18.226,11.065 18.513,10.922 18.748 C 10.778 18.984,10.701 19.000,9.708 19.000 C 8.756 19.000,8.562 19.028,8.322 19.199 C 8.100 19.357,8.020 19.568,8.020 20.000 C 8.020 20.331,8.033 20.403,8.120 20.558 C 8.233 20.760,8.417 20.900,8.652 20.963 C 8.756 20.991,9.206 21.001,9.916 20.992 C 11.002 20.977,11.025 20.975,11.320 20.868 C 12.041 20.604,12.608 20.037,12.868 19.320 C 12.965 19.052,12.976 18.965,12.976 18.500 C 12.976 18.035,12.965 17.949,12.868 17.684 C 12.809 17.521,12.705 17.301,12.636 17.194 L 12.512 17.000 12.636 16.806 C 12.705 16.699,12.809 16.479,12.868 16.316 C 12.965 16.051,12.976 15.965,12.976 15.500 C 12.976 15.035,12.965 14.948,12.868 14.680 C 12.732 14.306,12.458 13.898,12.165 13.636 C 11.887 13.387,11.390 13.137,11.020 13.060 C 10.647 12.982,8.861 12.980,8.614 13.057 M15.960 13.062 C 15.605 13.138,15.107 13.393,14.832 13.639 C 14.532 13.907,14.239 14.352,14.118 14.722 L 14.020 15.020 14.020 17.020 L 14.020 19.020 14.131 19.320 C 14.399 20.044,14.964 20.608,15.680 20.868 C 15.948 20.965,16.035 20.976,16.500 20.976 C 16.965 20.976,17.052 20.965,17.320 20.868 C 18.036 20.608,18.601 20.044,18.869 19.320 L 18.980 19.020 18.980 17.000 L 18.980 14.980 18.869 14.680 C 18.430 13.486,17.192 12.798,15.960 13.062 M16.724 15.062 C 16.790 15.096,16.879 15.182,16.922 15.252 C 16.996 15.373,17.000 15.464,17.000 17.000 C 17.000 18.536,16.996 18.627,16.922 18.748 C 16.722 19.076,16.278 19.076,16.078 18.748 C 16.004 18.627,16.000 18.536,16.000 17.008 C 16.000 15.228,15.999 15.232,16.252 15.078 C 16.406 14.984,16.563 14.979,16.724 15.062 " stroke="none" fill="black" fill-rule="evenodd"></path></svg>