<svg xmlns="http://www.w3.org/2000/svg" width="24" height="24" viewBox="0 0 24 24" fill="none" stroke="currentColor" stroke-width="2" stroke-linecap="round" stroke-linejoin="round" class="icon icon-tabler icons-tabler-outline icon-tabler-brand-spacehey"><path d="M16.499 3.040 C 15.363 3.246,14.460 4.049,14.114 5.160 C 13.979 5.594,13.979 6.406,14.114 6.840 C 14.421 7.826,15.174 8.579,16.160 8.886 C 16.594 9.021,17.406 9.021,17.840 8.886 C 18.826 8.579,19.579 7.826,19.886 6.840 C 20.021 6.406,20.021 5.594,19.886 5.160 C 19.581 4.179,18.810 3.407,17.861 3.129 C 17.500 3.023,16.832 2.980,16.499 3.040 M17.310 5.061 C 17.688 5.173,18.000 5.598,18.000 6.001 C 18.000 6.331,17.784 6.696,17.484 6.872 C 17.328 6.963,17.254 6.980,17.000 6.980 C 16.746 6.980,16.672 6.963,16.516 6.872 C 15.932 6.528,15.831 5.775,16.307 5.299 C 16.582 5.024,16.918 4.944,17.310 5.061 M6.358 7.061 C 5.230 7.237,4.143 7.974,3.569 8.953 C 2.320 11.083,3.233 13.785,5.512 14.704 C 6.113 14.946,6.542 15.010,7.420 14.989 C 8.066 14.973,8.237 14.955,8.563 14.869 C 10.241 14.426,11.408 13.261,11.873 11.563 L 11.978 11.180 11.979 9.400 C 11.980 7.635,11.979 7.619,11.891 7.453 C 11.785 7.256,11.622 7.131,11.371 7.055 C 11.112 6.977,6.864 6.982,6.358 7.061 M9.999 9.870 C 9.998 10.885,9.957 11.147,9.723 11.620 C 9.438 12.197,8.928 12.649,8.320 12.866 C 8.060 12.958,7.940 12.975,7.419 12.991 C 7.047 13.002,6.733 12.992,6.596 12.963 C 5.886 12.816,5.255 12.220,5.073 11.523 C 4.845 10.647,5.210 9.750,5.987 9.279 C 6.415 9.020,6.546 9.005,8.370 9.002 L 10.000 9.000 9.999 9.870 M16.358 10.061 C 14.731 10.315,13.417 11.584,13.083 13.227 C 13.003 13.617,13.000 13.755,13.000 16.926 C 13.000 19.009,13.015 20.273,13.041 20.365 C 13.102 20.586,13.245 20.770,13.442 20.880 L 13.620 20.980 16.912 20.991 C 19.060 20.998,20.257 20.988,20.356 20.961 C 20.584 20.900,20.768 20.758,20.880 20.558 L 20.980 20.380 20.991 17.012 C 21.002 13.769,20.999 13.628,20.922 13.248 C 20.721 12.264,20.198 11.416,19.438 10.843 C 18.866 10.412,18.276 10.160,17.605 10.058 C 17.144 9.989,16.816 9.990,16.358 10.061 M17.523 12.073 C 18.022 12.203,18.516 12.599,18.772 13.071 C 18.991 13.476,18.999 13.585,18.999 16.410 L 19.000 19.000 17.000 19.000 L 15.000 19.000 15.000 16.398 C 15.000 13.497,15.004 13.449,15.265 13.014 C 15.646 12.378,16.288 12.005,17.000 12.005 C 17.143 12.005,17.378 12.036,17.523 12.073 " stroke="none" fill="black" fill-rule="evenodd"></path></svg>