<svg xmlns="http://www.w3.org/2000/svg" width="24" height="24" viewBox="0 0 24 24" fill="none" stroke="currentColor" stroke-width="2" stroke-linecap="round" stroke-linejoin="round" class="icon icon-tabler icons-tabler-outline icon-tabler-menu"><path d="M3.614 7.057 C 3.377 7.131,3.212 7.261,3.109 7.453 C 3.035 7.592,3.020 7.684,3.020 8.000 C 3.020 8.331,3.033 8.403,3.120 8.558 C 3.230 8.755,3.414 8.898,3.635 8.959 C 3.835 9.015,20.165 9.015,20.365 8.959 C 20.586 8.898,20.770 8.755,20.880 8.558 C 20.967 8.402,20.980 8.332,20.979 8.000 C 20.978 7.567,20.898 7.355,20.678 7.199 C 20.386 6.990,20.799 7.000,11.984 7.003 C 5.367 7.005,3.748 7.015,3.614 7.057 M3.614 15.057 C 3.377 15.131,3.212 15.261,3.109 15.453 C 3.035 15.592,3.020 15.684,3.020 16.000 C 3.020 16.331,3.033 16.403,3.120 16.558 C 3.230 16.755,3.414 16.898,3.635 16.959 C 3.835 17.015,20.165 17.015,20.365 16.959 C 20.586 16.898,20.770 16.755,20.880 16.558 C 20.967 16.402,20.980 16.332,20.979 16.000 C 20.978 15.567,20.898 15.355,20.678 15.199 C 20.386 14.990,20.799 15.000,11.984 15.003 C 5.367 15.005,3.748 15.015,3.614 15.057 " stroke="none" fill="black" fill-rule="evenodd"></path></svg>