<svg xmlns="http://www.w3.org/2000/svg" width="24" height="24" viewBox="0 0 24 24" fill="none" stroke="currentColor" stroke-width="2" stroke-linecap="round" stroke-linejoin="round" class="icon icon-tabler icons-tabler-outline icon-tabler-plant-2"><path d="M11.830 2.965 C 11.614 3.014,11.418 3.153,11.097 3.486 C 10.018 4.608,9.312 5.684,8.779 7.019 C 8.446 7.854,8.174 8.863,8.098 9.550 C 8.082 9.688,8.062 9.800,8.053 9.800 C 8.045 9.800,7.853 9.689,7.629 9.553 C 6.034 8.588,4.091 8.034,2.260 8.024 C 1.677 8.020,1.606 8.028,1.460 8.106 C 1.016 8.345,0.933 8.720,1.043 9.980 C 1.155 11.265,1.517 12.570,2.097 13.780 C 2.643 14.918,3.276 15.801,4.238 16.762 C 5.199 17.724,6.082 18.357,7.220 18.903 C 10.967 20.699,15.288 20.270,18.637 17.770 C 19.246 17.316,20.316 16.246,20.770 15.637 C 22.025 13.955,22.776 12.008,22.959 9.960 C 23.076 8.645,22.956 8.230,22.409 8.058 C 22.220 7.999,22.097 7.992,21.603 8.014 C 19.693 8.097,17.911 8.621,16.371 9.553 C 16.147 9.689,15.955 9.800,15.947 9.800 C 15.938 9.800,15.918 9.688,15.902 9.550 C 15.860 9.170,15.693 8.412,15.545 7.931 C 15.026 6.241,14.212 4.859,12.966 3.554 C 12.460 3.024,12.190 2.884,11.830 2.965 M12.268 5.811 C 13.336 7.230,13.925 8.934,13.989 10.786 L 14.012 11.432 13.720 11.762 C 13.145 12.416,12.539 13.313,12.175 14.050 C 12.091 14.220,12.012 14.360,12.000 14.360 C 11.988 14.360,11.909 14.221,11.825 14.052 C 11.460 13.315,10.846 12.405,10.276 11.758 L 9.988 11.431 10.012 10.766 C 10.065 9.331,10.407 8.055,11.065 6.848 C 11.333 6.357,11.926 5.491,12.000 5.484 C 12.011 5.483,12.131 5.630,12.268 5.811 M3.900 10.206 C 4.832 10.396,6.069 10.908,6.880 11.440 C 7.947 12.140,8.860 13.053,9.560 14.120 C 10.215 15.119,10.753 16.557,10.903 17.710 C 10.930 17.919,10.930 17.920,10.820 17.920 C 10.593 17.920,9.701 17.713,9.150 17.533 C 8.513 17.324,7.578 16.871,7.040 16.511 C 6.019 15.826,5.122 14.919,4.440 13.880 C 3.783 12.879,3.247 11.444,3.096 10.284 L 3.068 10.068 3.284 10.096 C 3.403 10.112,3.680 10.161,3.900 10.206 M20.903 10.290 C 20.753 11.443,20.215 12.881,19.560 13.880 C 18.869 14.932,17.981 15.827,16.927 16.532 C 16.419 16.872,15.459 17.333,14.831 17.539 C 14.299 17.713,13.404 17.920,13.180 17.920 C 13.070 17.920,13.070 17.919,13.097 17.710 C 13.247 16.557,13.785 15.119,14.440 14.120 C 15.140 13.053,16.053 12.140,17.120 11.440 C 17.944 10.900,19.191 10.386,20.120 10.205 C 20.351 10.160,20.576 10.115,20.620 10.106 C 20.664 10.097,20.752 10.087,20.815 10.085 L 20.930 10.080 20.903 10.290 " stroke="none" fill="black" fill-rule="evenodd"></path></svg>