<svg xmlns="http://www.w3.org/2000/svg" width="24" height="24" viewBox="0 0 24 24" fill="none" stroke="currentColor" stroke-width="2" stroke-linecap="round" stroke-linejoin="round" class="icon icon-tabler icons-tabler-outline icon-tabler-heart-exclamation"><path d="M7.360 3.026 C 6.162 3.208,5.471 3.463,4.598 4.045 C 4.166 4.333,3.397 5.077,3.113 5.480 C 2.372 6.534,1.996 7.723,1.998 9.000 C 2.002 10.483,2.516 11.856,3.469 12.924 C 3.618 13.091,4.856 14.332,6.220 15.682 C 7.584 17.032,9.321 18.751,10.080 19.504 C 10.948 20.364,11.522 20.902,11.628 20.955 C 11.852 21.068,12.150 21.067,12.372 20.954 C 12.527 20.875,15.566 17.915,15.855 17.561 C 16.193 17.148,16.152 16.726,15.733 16.307 C 15.387 15.962,14.995 15.866,14.661 16.044 C 14.575 16.091,13.946 16.676,13.264 17.344 C 12.583 18.013,12.012 18.560,11.997 18.560 C 11.941 18.560,4.997 11.656,4.818 11.422 C 3.901 10.229,3.740 8.547,4.415 7.212 C 4.639 6.769,4.809 6.532,5.150 6.186 C 5.969 5.355,6.989 4.959,8.180 5.011 C 9.402 5.065,10.316 5.550,11.233 6.631 C 11.485 6.928,11.699 7.049,11.968 7.049 C 12.276 7.049,12.552 6.889,12.865 6.527 C 13.330 5.991,13.653 5.735,14.229 5.445 C 14.754 5.182,15.171 5.077,15.793 5.051 C 16.381 5.026,16.696 5.066,17.220 5.229 C 18.471 5.620,19.517 6.718,19.842 7.980 C 20.145 9.159,19.923 10.360,19.215 11.371 C 18.943 11.758,18.880 11.904,18.880 12.140 C 18.880 12.393,18.962 12.565,19.184 12.778 C 19.546 13.125,19.925 13.238,20.259 13.098 C 20.679 12.922,21.359 11.878,21.676 10.922 C 21.892 10.269,21.975 9.743,21.976 9.020 C 21.977 8.277,21.889 7.746,21.656 7.071 C 20.968 5.083,19.305 3.613,17.228 3.156 C 16.697 3.039,15.635 3.009,15.094 3.095 C 14.073 3.259,13.127 3.662,12.320 4.277 L 12.000 4.521 11.770 4.334 C 10.964 3.676,9.924 3.220,8.860 3.057 C 8.535 3.007,7.611 2.988,7.360 3.026 M18.614 15.057 C 18.377 15.131,18.212 15.261,18.109 15.453 C 18.021 15.618,18.020 15.647,18.008 17.410 C 18.001 18.557,18.012 19.255,18.038 19.354 C 18.144 19.747,18.433 19.961,18.896 19.991 C 19.381 20.022,19.699 19.882,19.880 19.558 L 19.980 19.380 19.980 17.500 C 19.980 15.633,19.979 15.619,19.891 15.453 C 19.842 15.362,19.746 15.247,19.678 15.199 C 19.414 15.010,18.957 14.950,18.614 15.057 M18.614 21.057 C 18.221 21.180,18.039 21.435,18.009 21.906 C 17.962 22.621,18.306 23.000,19.000 23.000 C 19.698 23.000,20.043 22.616,19.989 21.900 C 19.963 21.563,19.859 21.327,19.678 21.199 C 19.414 21.010,18.957 20.950,18.614 21.057 " stroke="none" fill="black" fill-rule="evenodd"></path></svg>