<svg xmlns="http://www.w3.org/2000/svg" width="24" height="24" viewBox="0 0 24 24" fill="none" stroke="currentColor" stroke-width="2" stroke-linecap="round" stroke-linejoin="round" class="icon icon-tabler icons-tabler-outline icon-tabler-camera-up"><path d="M8.477 3.073 C 7.806 3.249,7.238 3.823,7.060 4.508 C 7.027 4.634,7.000 4.820,7.000 4.922 C 7.000 5.332,6.811 5.680,6.484 5.872 C 6.303 5.978,6.286 5.980,5.380 6.005 C 4.569 6.027,4.422 6.041,4.139 6.126 C 3.183 6.413,2.420 7.179,2.114 8.160 L 2.020 8.460 2.020 13.500 L 2.020 18.540 2.114 18.840 C 2.418 19.816,3.149 20.554,4.140 20.886 L 4.420 20.980 8.311 20.991 C 10.892 20.999,12.253 20.989,12.355 20.961 C 12.583 20.900,12.768 20.758,12.880 20.558 C 12.967 20.402,12.980 20.332,12.979 20.000 C 12.977 19.469,12.852 19.247,12.455 19.071 C 12.366 19.031,11.493 19.016,8.520 19.000 L 4.700 18.980 4.516 18.872 C 4.415 18.813,4.284 18.700,4.225 18.623 C 3.989 18.314,4.000 18.562,4.000 13.522 C 4.000 8.339,3.984 8.630,4.283 8.321 C 4.552 8.044,4.623 8.028,5.660 7.997 C 6.452 7.974,6.619 7.958,6.860 7.881 C 8.030 7.509,8.877 6.480,8.984 5.302 L 9.011 5.000 12.000 5.000 L 14.989 5.000 15.016 5.302 C 15.123 6.480,15.970 7.509,17.140 7.881 C 17.381 7.958,17.548 7.974,18.340 7.997 C 19.377 8.028,19.448 8.044,19.717 8.321 C 19.997 8.610,20.000 8.638,20.000 10.800 C 20.000 12.918,20.008 12.996,20.249 13.229 C 20.442 13.416,20.647 13.487,21.000 13.488 C 21.368 13.490,21.600 13.402,21.787 13.189 C 21.999 12.947,22.008 12.838,21.992 10.520 C 21.978 8.450,21.976 8.416,21.885 8.140 C 21.560 7.160,20.807 6.410,19.861 6.126 C 19.578 6.041,19.431 6.027,18.620 6.005 C 17.714 5.980,17.697 5.978,17.516 5.872 C 17.197 5.684,17.001 5.340,16.999 4.965 C 16.999 4.713,16.901 4.319,16.781 4.083 C 16.646 3.816,16.297 3.449,16.017 3.281 C 15.548 2.999,15.636 3.005,12.000 3.005 C 9.047 3.005,8.715 3.011,8.477 3.073 M11.358 9.061 C 10.230 9.237,9.143 9.974,8.569 10.953 C 7.320 13.083,8.233 15.785,10.512 16.704 C 12.558 17.528,14.877 16.538,15.704 14.488 C 16.090 13.530,16.090 12.469,15.705 11.516 C 15.172 10.197,14.001 9.269,12.605 9.058 C 12.144 8.989,11.816 8.990,11.358 9.061 M12.523 11.073 C 13.262 11.266,13.850 11.924,13.967 12.690 C 14.067 13.343,13.873 13.933,13.403 14.404 C 13.002 14.807,12.547 15.000,12.000 15.000 C 11.485 15.000,11.038 14.822,10.653 14.465 C 9.323 13.229,10.189 11.005,12.000 11.005 C 12.143 11.005,12.378 11.036,12.523 11.073 M18.530 15.083 C 18.393 15.150,18.249 15.252,18.210 15.310 C 18.172 15.369,17.463 16.101,16.635 16.938 C 15.635 17.949,15.099 18.520,15.040 18.637 C 14.863 18.989,14.952 19.354,15.299 19.701 C 15.646 20.048,16.012 20.137,16.363 19.959 C 16.469 19.905,16.832 19.580,17.270 19.147 L 18.000 18.425 18.000 20.322 C 18.000 21.470,18.016 22.277,18.041 22.365 C 18.148 22.750,18.437 22.962,18.896 22.991 C 19.381 23.022,19.699 22.882,19.880 22.558 L 19.980 22.380 19.992 20.404 L 20.004 18.428 20.732 19.149 C 21.168 19.581,21.531 19.905,21.637 19.959 C 21.988 20.137,22.354 20.048,22.701 19.701 C 23.048 19.354,23.137 18.989,22.960 18.637 C 22.901 18.520,22.365 17.949,21.365 16.938 C 20.537 16.101,19.828 15.369,19.789 15.310 C 19.751 15.252,19.604 15.149,19.464 15.082 C 19.120 14.918,18.871 14.918,18.530 15.083 " stroke="none" fill="black" fill-rule="evenodd"></path></svg>