<svg xmlns="http://www.w3.org/2000/svg" width="24" height="24" viewBox="0 0 24 24" fill="none" stroke="currentColor" stroke-width="2" stroke-linecap="round" stroke-linejoin="round" class="icon icon-tabler icons-tabler-outline icon-tabler-music-share"><path d="M8.614 3.057 C 8.377 3.131,8.212 3.261,8.109 3.453 L 8.020 3.620 8.009 8.570 C 8.004 11.293,7.990 13.520,7.978 13.520 C 7.967 13.520,7.855 13.469,7.729 13.406 C 7.245 13.164,6.548 13.000,6.000 13.000 C 4.635 13.000,3.253 13.787,2.569 14.953 C 1.320 17.083,2.233 19.785,4.512 20.704 C 5.231 20.994,6.023 21.070,6.757 20.921 C 8.384 20.589,9.589 19.384,9.921 17.757 C 9.997 17.383,10.000 17.200,10.000 13.184 L 10.000 9.000 14.000 9.000 L 18.000 9.000 18.000 11.110 C 18.000 12.400,18.016 13.276,18.041 13.365 C 18.148 13.750,18.437 13.962,18.896 13.991 C 19.381 14.022,19.699 13.882,19.880 13.558 L 19.980 13.380 19.980 8.500 L 19.980 3.620 19.891 3.453 C 19.785 3.256,19.622 3.131,19.371 3.055 C 19.107 2.976,8.867 2.978,8.614 3.057 M18.000 6.000 L 18.000 7.000 14.000 7.000 L 10.000 7.000 10.000 6.000 L 10.000 5.000 14.000 5.000 L 18.000 5.000 18.000 6.000 M6.523 15.073 C 7.262 15.266,7.850 15.924,7.967 16.690 C 8.067 17.343,7.873 17.933,7.403 18.404 C 7.002 18.807,6.547 19.000,6.000 19.000 C 5.485 19.000,5.038 18.822,4.653 18.465 C 3.323 17.229,4.189 15.005,6.000 15.005 C 6.143 15.005,6.378 15.036,6.523 15.073 M18.460 15.999 C 15.916 16.022,15.992 16.015,15.752 16.267 C 15.584 16.443,15.513 16.658,15.512 16.997 C 15.510 17.348,15.582 17.556,15.771 17.751 C 15.988 17.976,16.151 18.000,17.436 18.000 L 18.578 18.000 16.853 19.730 C 15.679 20.908,15.100 21.517,15.040 21.637 C 14.863 21.989,14.952 22.354,15.299 22.701 C 15.646 23.048,16.011 23.137,16.363 22.960 C 16.483 22.900,17.092 22.321,18.270 21.147 L 20.000 19.422 20.000 20.564 C 20.000 21.849,20.024 22.012,20.249 22.229 C 20.442 22.416,20.647 22.487,20.997 22.488 C 21.336 22.490,21.552 22.419,21.735 22.248 C 21.985 22.013,21.977 22.088,22.007 19.460 C 22.022 18.140,22.036 17.001,22.037 16.929 C 22.041 16.740,21.834 16.310,21.690 16.207 C 21.467 16.048,21.205 15.959,20.987 15.969 C 20.873 15.974,19.736 15.987,18.460 15.999 " stroke="none" fill="black" fill-rule="evenodd"></path></svg>