<svg xmlns="http://www.w3.org/2000/svg" width="24" height="24" viewBox="0 0 24 24" fill="none" stroke="currentColor" stroke-width="2" stroke-linecap="round" stroke-linejoin="round" class="icon icon-tabler icons-tabler-outline icon-tabler-magnetic"><path d="M11.614 2.057 C 11.377 2.131,11.212 2.261,11.109 2.453 C 11.023 2.614,11.020 2.664,11.008 3.933 L 10.996 5.246 10.721 4.986 C 10.256 4.548,9.816 4.282,9.279 4.115 C 8.896 3.995,8.165 3.986,7.760 4.095 C 6.755 4.365,5.750 5.283,5.147 6.480 C 4.863 7.045,4.917 7.450,5.315 7.743 C 5.706 8.031,6.113 8.108,6.429 7.956 C 6.626 7.860,6.768 7.683,7.060 7.171 C 7.303 6.742,7.779 6.241,8.065 6.111 C 8.334 5.990,8.679 5.992,8.917 6.116 C 9.662 6.506,10.399 7.863,10.736 9.467 C 10.924 10.361,10.975 10.898,10.975 12.000 C 10.975 13.102,10.924 13.639,10.736 14.533 C 10.327 16.480,9.346 17.998,8.496 18.000 C 8.123 18.001,7.582 17.583,7.215 17.010 C 6.711 16.222,6.282 14.946,6.127 13.773 L 6.094 13.525 6.295 13.706 C 6.807 14.166,7.238 14.165,7.701 13.701 C 8.048 13.354,8.137 12.989,7.959 12.637 C 7.903 12.526,7.495 12.078,6.865 11.438 C 6.312 10.876,5.828 10.368,5.789 10.310 C 5.683 10.150,5.254 9.960,5.000 9.960 C 4.746 9.960,4.317 10.150,4.211 10.310 C 4.172 10.368,3.688 10.876,3.135 11.438 C 2.069 12.522,1.951 12.678,1.951 13.000 C 1.951 13.477,2.523 14.049,3.000 14.049 C 3.248 14.049,3.461 13.934,3.795 13.619 L 4.069 13.361 4.097 13.670 C 4.209 14.903,4.620 16.364,5.156 17.431 C 5.807 18.729,6.672 19.557,7.721 19.886 C 8.148 20.020,8.852 20.020,9.279 19.886 C 9.847 19.708,10.251 19.462,10.730 19.005 L 11.000 18.747 11.000 19.983 C 11.000 20.688,11.018 21.282,11.041 21.365 C 11.148 21.750,11.437 21.962,11.896 21.991 C 12.381 22.022,12.699 21.882,12.880 21.558 L 12.980 21.380 12.993 20.066 L 13.005 18.752 13.273 19.007 C 13.749 19.462,14.154 19.708,14.721 19.886 C 15.148 20.020,15.852 20.020,16.279 19.886 C 17.325 19.558,18.159 18.764,18.828 17.460 C 19.368 16.408,19.790 14.919,19.903 13.670 L 19.931 13.361 20.205 13.619 C 20.539 13.934,20.752 14.049,21.000 14.049 C 21.477 14.049,22.049 13.477,22.049 13.000 C 22.049 12.678,21.931 12.522,20.865 11.438 C 20.312 10.876,19.828 10.368,19.789 10.310 C 19.683 10.150,19.254 9.960,19.000 9.960 C 18.746 9.960,18.317 10.150,18.211 10.310 C 18.172 10.368,17.688 10.876,17.135 11.438 C 16.505 12.078,16.097 12.526,16.041 12.637 C 15.863 12.989,15.952 13.354,16.299 13.701 C 16.762 14.165,17.193 14.166,17.705 13.706 L 17.906 13.525 17.873 13.773 C 17.617 15.711,16.754 17.490,15.871 17.901 C 15.586 18.033,15.388 18.028,15.090 17.878 C 14.172 17.420,13.378 15.692,13.094 13.533 C 13.008 12.882,12.997 11.254,13.075 10.620 C 13.301 8.758,13.831 7.328,14.598 6.508 C 15.042 6.034,15.478 5.905,15.935 6.111 C 16.221 6.241,16.697 6.742,16.940 7.171 C 17.234 7.687,17.387 7.878,17.575 7.963 C 17.891 8.107,18.301 8.025,18.685 7.743 C 19.083 7.450,19.137 7.045,18.853 6.480 C 18.251 5.285,17.243 4.365,16.240 4.095 C 15.835 3.986,15.104 3.995,14.721 4.115 C 14.184 4.282,13.744 4.548,13.280 4.986 L 13.005 5.245 12.992 3.932 C 12.980 2.664,12.977 2.614,12.891 2.453 C 12.842 2.362,12.746 2.247,12.678 2.199 C 12.414 2.010,11.957 1.950,11.614 2.057 " stroke="none" fill="black" fill-rule="evenodd"></path></svg>