<svg xmlns="http://www.w3.org/2000/svg" width="24" height="24" viewBox="0 0 24 24" fill="none" stroke="currentColor" stroke-width="2" stroke-linecap="round" stroke-linejoin="round" class="icon icon-tabler icons-tabler-outline icon-tabler-file-arrow-right"><path d="M6.499 2.043 C 5.383 2.230,4.461 3.048,4.114 4.160 L 4.020 4.460 4.020 12.000 L 4.020 19.540 4.114 19.840 C 4.422 20.827,5.173 21.578,6.160 21.886 L 6.460 21.980 12.000 21.980 L 17.540 21.980 17.840 21.886 C 18.827 21.578,19.578 20.827,19.886 19.840 L 19.980 19.540 19.980 13.580 L 19.980 7.620 19.890 7.452 C 19.841 7.360,19.724 7.231,19.630 7.165 C 19.498 7.073,15.263 2.838,14.719 2.254 C 14.473 1.991,14.626 2.000,10.463 2.005 C 8.393 2.007,6.609 2.025,6.499 2.043 M13.000 5.632 C 13.000 7.399,13.010 7.507,13.225 7.930 C 13.361 8.199,13.801 8.639,14.070 8.775 C 14.493 8.990,14.601 9.000,16.368 9.000 L 18.000 9.000 18.000 14.054 C 18.000 18.220,17.990 19.139,17.945 19.290 C 17.872 19.533,17.707 19.740,17.484 19.872 L 17.300 19.980 12.000 19.980 L 6.700 19.980 6.516 19.872 C 6.415 19.813,6.284 19.700,6.225 19.623 C 5.986 19.309,6.000 19.795,6.000 12.022 C 6.000 4.005,5.975 4.631,6.304 4.303 C 6.613 3.994,6.464 4.006,9.930 4.003 L 13.000 4.000 13.000 5.632 M15.800 6.220 L 16.579 7.000 15.790 7.000 L 15.000 7.000 15.000 6.220 C 15.000 5.791,15.005 5.440,15.010 5.440 C 15.016 5.440,15.371 5.791,15.800 6.220 M12.260 11.487 C 11.822 11.651,11.439 12.129,11.441 12.509 C 11.442 12.777,11.576 12.983,12.086 13.503 L 12.573 14.000 10.693 14.000 C 8.689 14.000,8.589 14.008,8.322 14.199 C 8.100 14.357,8.020 14.568,8.020 15.000 C 8.020 15.331,8.033 15.403,8.120 15.558 C 8.230 15.755,8.414 15.898,8.635 15.959 C 8.723 15.984,9.529 16.000,10.677 16.000 L 12.573 16.000 12.086 16.497 C 11.791 16.798,11.568 17.062,11.520 17.167 C 11.361 17.518,11.451 17.855,11.798 18.202 C 12.150 18.554,12.484 18.641,12.837 18.474 C 12.967 18.412,13.394 18.018,14.302 17.124 C 15.007 16.429,15.635 15.826,15.697 15.784 C 15.850 15.682,16.049 15.238,16.049 15.000 C 16.049 14.745,15.851 14.321,15.676 14.200 C 15.601 14.149,14.973 13.546,14.280 12.861 C 13.468 12.057,12.964 11.588,12.862 11.541 C 12.664 11.450,12.417 11.428,12.260 11.487 " stroke="none" fill="black" fill-rule="evenodd"></path></svg>