<svg xmlns="http://www.w3.org/2000/svg" width="24" height="24" viewBox="0 0 24 24" fill="none" stroke="currentColor" stroke-width="2" stroke-linecap="round" stroke-linejoin="round" class="icon icon-tabler icons-tabler-outline icon-tabler-list-letters"><path d="M4.960 3.062 C 4.606 3.138,4.107 3.393,3.835 3.636 C 3.542 3.898,3.265 4.308,3.129 4.681 L 3.020 4.980 3.008 7.590 C 3.001 9.305,3.011 10.252,3.038 10.354 C 3.144 10.747,3.432 10.961,3.896 10.991 C 4.381 11.022,4.699 10.882,4.880 10.558 C 4.974 10.391,4.981 10.338,4.994 9.690 L 5.008 9.000 5.504 9.000 L 6.000 9.000 6.000 9.610 C 6.000 9.945,6.019 10.285,6.041 10.365 C 6.148 10.750,6.437 10.962,6.896 10.991 C 7.381 11.022,7.699 10.882,7.880 10.558 L 7.980 10.380 7.980 7.680 L 7.980 4.980 7.869 4.680 C 7.430 3.486,6.192 2.798,4.960 3.062 M5.724 5.062 C 5.790 5.096,5.879 5.182,5.922 5.252 C 5.992 5.368,6.000 5.457,6.000 6.190 L 6.000 7.000 5.500 7.000 L 5.000 7.000 5.000 6.198 C 5.000 5.307,5.020 5.220,5.252 5.078 C 5.406 4.984,5.563 4.979,5.724 5.062 M10.614 5.057 C 10.377 5.131,10.212 5.261,10.109 5.453 C 10.035 5.592,10.020 5.684,10.020 6.000 C 10.020 6.331,10.033 6.403,10.120 6.558 C 10.230 6.755,10.414 6.898,10.635 6.959 C 10.834 7.014,20.166 7.014,20.365 6.959 C 20.586 6.898,20.770 6.755,20.880 6.558 C 20.967 6.402,20.980 6.332,20.979 6.000 C 20.978 5.567,20.898 5.355,20.678 5.199 C 20.392 4.995,20.526 5.000,15.484 5.003 C 11.740 5.005,10.746 5.016,10.614 5.057 M10.614 11.057 C 10.377 11.131,10.212 11.261,10.109 11.453 C 10.035 11.592,10.020 11.684,10.020 12.000 C 10.020 12.331,10.033 12.403,10.120 12.558 C 10.230 12.755,10.414 12.898,10.635 12.959 C 10.834 13.014,20.166 13.014,20.365 12.959 C 20.586 12.898,20.770 12.755,20.880 12.558 C 20.967 12.402,20.980 12.332,20.979 12.000 C 20.978 11.567,20.898 11.355,20.678 11.199 C 20.392 10.995,20.526 11.000,15.484 11.003 C 11.740 11.005,10.746 11.016,10.614 11.057 M3.614 13.057 C 3.377 13.131,3.212 13.261,3.109 13.453 L 3.020 13.620 3.009 16.912 C 3.002 19.060,3.012 20.257,3.039 20.356 C 3.100 20.584,3.242 20.768,3.442 20.880 L 3.620 20.980 4.820 20.980 L 6.020 20.980 6.320 20.869 C 7.044 20.601,7.608 20.036,7.868 19.320 C 7.965 19.052,7.976 18.965,7.976 18.500 C 7.976 18.035,7.965 17.949,7.868 17.684 C 7.809 17.521,7.705 17.301,7.636 17.194 L 7.512 17.000 7.636 16.806 C 7.705 16.699,7.809 16.479,7.868 16.316 C 7.965 16.051,7.976 15.965,7.976 15.500 C 7.976 15.035,7.965 14.948,7.868 14.680 C 7.732 14.306,7.458 13.898,7.165 13.636 C 6.887 13.387,6.390 13.137,6.020 13.060 C 5.647 12.982,3.861 12.980,3.614 13.057 M5.748 15.078 C 6.076 15.278,6.076 15.722,5.748 15.922 C 5.650 15.981,5.547 16.000,5.310 16.000 L 5.000 16.000 5.000 15.500 L 5.000 15.000 5.310 15.000 C 5.547 15.000,5.650 15.019,5.748 15.078 M10.614 17.057 C 10.377 17.131,10.212 17.261,10.109 17.453 C 10.035 17.592,10.020 17.684,10.020 18.000 C 10.020 18.331,10.033 18.403,10.120 18.558 C 10.230 18.755,10.414 18.898,10.635 18.959 C 10.834 19.014,20.166 19.014,20.365 18.959 C 20.586 18.898,20.770 18.755,20.880 18.558 C 20.967 18.402,20.980 18.332,20.979 18.000 C 20.978 17.567,20.898 17.355,20.678 17.199 C 20.392 16.995,20.526 17.000,15.484 17.003 C 11.740 17.005,10.746 17.016,10.614 17.057 M5.748 18.078 C 6.076 18.278,6.076 18.722,5.748 18.922 C 5.650 18.981,5.547 19.000,5.310 19.000 L 5.000 19.000 5.000 18.500 L 5.000 18.000 5.310 18.000 C 5.547 18.000,5.650 18.019,5.748 18.078 " stroke="none" fill="black" fill-rule="evenodd"></path></svg>