<svg xmlns="http://www.w3.org/2000/svg" width="24" height="24" viewBox="0 0 24 24" fill="none" stroke="currentColor" stroke-width="2" stroke-linecap="round" stroke-linejoin="round" class="icon icon-tabler icons-tabler-outline icon-tabler-camera-star"><path d="M8.477 3.073 C 7.806 3.249,7.238 3.823,7.060 4.508 C 7.027 4.634,7.000 4.820,7.000 4.922 C 7.000 5.332,6.811 5.680,6.484 5.872 C 6.303 5.978,6.286 5.980,5.380 6.005 C 4.569 6.027,4.422 6.041,4.139 6.126 C 3.183 6.413,2.420 7.179,2.114 8.160 L 2.020 8.460 2.020 13.500 L 2.020 18.540 2.114 18.840 C 2.418 19.816,3.151 20.555,4.140 20.886 L 4.420 20.979 7.520 20.992 C 9.763 21.002,10.679 20.993,10.833 20.959 C 11.261 20.866,11.486 20.537,11.486 20.003 C 11.486 19.656,11.418 19.446,11.248 19.267 C 11.003 19.009,11.166 19.022,7.780 19.000 L 4.700 18.980 4.516 18.872 C 4.415 18.813,4.284 18.700,4.225 18.623 C 3.989 18.314,4.000 18.562,4.000 13.522 C 4.000 8.339,3.984 8.630,4.283 8.321 C 4.552 8.044,4.623 8.028,5.660 7.997 C 6.452 7.974,6.619 7.958,6.860 7.881 C 8.030 7.509,8.877 6.480,8.984 5.302 L 9.011 5.000 12.000 5.000 L 14.989 5.000 15.016 5.302 C 15.123 6.480,15.970 7.509,17.140 7.881 C 17.381 7.958,17.548 7.974,18.340 7.997 C 19.377 8.028,19.448 8.044,19.717 8.321 C 19.987 8.600,20.000 8.690,20.000 10.300 C 20.000 11.872,20.017 12.005,20.249 12.229 C 20.442 12.416,20.647 12.487,21.000 12.488 C 21.368 12.490,21.600 12.402,21.787 12.189 C 21.995 11.952,22.009 11.802,21.992 10.020 C 21.977 8.480,21.973 8.410,21.884 8.140 C 21.563 7.162,20.807 6.410,19.861 6.126 C 19.578 6.041,19.431 6.027,18.620 6.005 C 17.714 5.980,17.697 5.978,17.516 5.872 C 17.197 5.684,17.001 5.340,16.999 4.965 C 16.999 4.713,16.901 4.319,16.781 4.083 C 16.646 3.816,16.297 3.449,16.017 3.281 C 15.548 2.999,15.636 3.005,12.000 3.005 C 9.047 3.005,8.715 3.011,8.477 3.073 M11.433 9.040 C 9.812 9.298,8.552 10.425,8.129 11.995 C 8.038 12.331,8.025 12.458,8.025 13.000 C 8.025 13.542,8.038 13.669,8.129 14.005 C 8.328 14.744,8.754 15.455,9.288 15.937 C 9.600 16.220,9.822 16.328,10.083 16.326 C 10.554 16.322,11.095 15.753,11.095 15.260 C 11.095 14.997,11.011 14.845,10.664 14.480 C 10.305 14.103,10.177 13.884,10.073 13.470 C 9.662 11.847,11.355 10.474,12.863 11.206 C 13.157 11.349,13.477 11.621,13.646 11.874 C 13.812 12.121,14.034 12.353,14.174 12.426 C 14.352 12.520,14.679 12.502,14.926 12.384 C 15.384 12.167,15.609 11.876,15.606 11.505 C 15.603 11.104,15.143 10.414,14.549 9.920 C 14.186 9.618,13.429 9.237,12.960 9.121 C 12.573 9.025,11.790 8.983,11.433 9.040 M17.372 13.072 C 17.112 13.165,16.870 13.331,16.723 13.517 C 16.661 13.596,16.403 14.074,16.150 14.580 L 15.689 15.501 14.657 15.651 C 13.546 15.812,13.351 15.870,13.063 16.122 C 12.745 16.402,12.575 16.831,12.611 17.267 C 12.646 17.710,12.753 17.864,13.623 18.726 C 14.233 19.330,14.399 19.517,14.384 19.580 C 14.373 19.624,14.289 20.107,14.197 20.653 L 14.030 21.645 14.095 21.913 C 14.262 22.595,14.870 23.044,15.552 22.989 C 15.821 22.968,16.039 22.871,17.330 22.198 L 17.800 21.953 18.270 22.198 C 19.561 22.871,19.779 22.968,20.048 22.989 C 20.724 23.043,21.333 22.598,21.503 21.925 C 21.576 21.635,21.580 21.680,21.357 20.400 L 21.200 19.500 21.979 18.726 C 22.844 17.867,22.944 17.722,22.986 17.276 C 23.027 16.835,22.860 16.406,22.537 16.122 C 22.249 15.870,22.054 15.812,20.943 15.651 L 19.911 15.501 19.434 14.548 C 18.905 13.491,18.773 13.315,18.370 13.130 C 18.069 12.992,17.662 12.969,17.372 13.072 M18.121 16.405 C 18.445 17.059,18.612 17.261,18.907 17.352 C 18.991 17.378,19.336 17.439,19.672 17.487 L 20.285 17.574 19.787 18.077 C 19.512 18.354,19.259 18.638,19.223 18.709 C 19.109 18.939,19.107 19.150,19.216 19.772 C 19.273 20.097,19.320 20.390,19.320 20.423 C 19.320 20.465,19.131 20.386,18.690 20.158 C 18.091 19.848,18.047 19.832,17.800 19.832 C 17.553 19.832,17.509 19.848,16.910 20.158 C 16.417 20.412,16.280 20.468,16.280 20.415 C 16.280 20.378,16.327 20.084,16.384 19.763 C 16.493 19.150,16.492 18.939,16.377 18.709 C 16.341 18.638,16.088 18.354,15.813 18.077 L 15.315 17.574 15.928 17.487 C 16.264 17.439,16.609 17.378,16.693 17.352 C 16.988 17.261,17.155 17.059,17.479 16.405 C 17.643 16.072,17.788 15.800,17.800 15.800 C 17.812 15.800,17.957 16.072,18.121 16.405 " stroke="none" fill="black" fill-rule="evenodd"></path></svg>