<svg xmlns="http://www.w3.org/2000/svg" width="24" height="24" viewBox="0 0 24 24" fill="none" stroke="currentColor" stroke-width="2" stroke-linecap="round" stroke-linejoin="round" class="icon icon-tabler icons-tabler-outline icon-tabler-shopping-bag-search"><path d="M11.358 2.061 C 10.230 2.237,9.143 2.974,8.569 3.953 C 8.151 4.665,8.000 5.293,8.000 6.316 L 8.000 7.000 7.050 7.001 C 6.015 7.003,5.660 7.044,5.246 7.211 C 4.826 7.381,4.554 7.565,4.197 7.924 C 3.914 8.208,3.821 8.334,3.669 8.644 C 3.416 9.159,3.347 9.444,3.347 9.980 C 3.347 10.350,3.450 11.084,3.995 14.600 C 4.351 16.899,4.679 18.915,4.724 19.079 C 5.090 20.427,6.187 21.501,7.594 21.889 C 7.880 21.968,8.023 21.974,9.760 21.990 C 11.822 22.009,11.948 21.998,12.189 21.787 C 12.402 21.600,12.486 21.376,12.486 21.000 C 12.486 20.491,12.304 20.196,11.909 20.064 C 11.745 20.009,11.470 20.000,10.034 20.000 C 8.633 20.000,8.311 19.989,8.109 19.937 C 7.409 19.756,6.873 19.255,6.680 18.602 C 6.583 18.276,5.354 10.309,5.350 9.980 C 5.348 9.809,5.371 9.693,5.432 9.575 C 5.549 9.347,5.842 9.099,6.058 9.045 C 6.162 9.018,6.601 9.000,7.118 9.000 L 8.000 9.000 8.000 10.110 C 8.000 10.730,8.018 11.284,8.041 11.365 C 8.148 11.750,8.437 11.962,8.896 11.991 C 9.381 12.022,9.699 11.882,9.880 11.558 C 9.979 11.381,9.980 11.374,9.993 10.190 L 10.005 9.000 12.003 9.000 L 14.000 9.000 14.000 10.110 C 14.000 10.730,14.018 11.284,14.041 11.365 C 14.148 11.750,14.437 11.962,14.896 11.991 C 15.381 12.022,15.699 11.882,15.880 11.558 C 15.979 11.381,15.980 11.374,15.993 10.190 L 16.005 9.000 16.885 9.000 C 17.400 9.000,17.838 9.019,17.942 9.045 C 18.159 9.099,18.451 9.347,18.568 9.575 C 18.673 9.781,18.676 10.018,18.580 10.662 C 18.499 11.205,18.517 11.444,18.653 11.646 C 18.837 11.920,19.161 12.058,19.620 12.059 C 19.987 12.060,20.215 11.936,20.371 11.649 C 20.611 11.209,20.733 9.846,20.584 9.280 C 20.357 8.416,19.744 7.674,18.947 7.298 C 18.421 7.050,18.290 7.029,17.090 7.010 L 16.000 6.992 16.000 6.312 C 16.000 5.522,15.924 5.057,15.705 4.516 C 15.172 3.197,14.001 2.269,12.605 2.058 C 12.144 1.989,11.816 1.990,11.358 2.061 M12.523 4.073 C 12.866 4.163,13.198 4.366,13.454 4.642 C 13.883 5.105,13.998 5.479,13.999 6.410 L 14.000 7.000 12.000 7.000 L 10.000 7.000 10.000 6.398 C 10.000 5.682,10.064 5.350,10.265 5.014 C 10.745 4.212,11.635 3.841,12.523 4.073 M17.358 14.061 C 16.230 14.237,15.143 14.974,14.569 15.953 C 13.320 18.083,14.233 20.785,16.512 21.704 C 17.475 22.092,18.529 22.091,19.498 21.700 C 19.691 21.622,19.887 21.532,19.933 21.500 C 20.012 21.444,20.052 21.476,20.738 22.155 C 21.512 22.921,21.693 23.049,22.000 23.049 C 22.477 23.049,23.049 22.477,23.049 22.000 C 23.049 21.693,22.921 21.512,22.155 20.738 C 21.476 20.052,21.444 20.012,21.500 19.933 C 21.619 19.762,21.844 19.135,21.921 18.757 C 22.070 18.024,21.994 17.230,21.705 16.516 C 21.172 15.197,20.001 14.269,18.605 14.058 C 18.144 13.989,17.816 13.990,17.358 14.061 M18.523 16.073 C 19.262 16.266,19.850 16.924,19.967 17.690 C 20.067 18.343,19.873 18.933,19.403 19.404 C 19.002 19.807,18.547 20.000,18.000 20.000 C 17.485 20.000,17.038 19.822,16.653 19.465 C 15.323 18.229,16.189 16.005,18.000 16.005 C 18.143 16.005,18.378 16.036,18.523 16.073 " stroke="none" fill="black" fill-rule="evenodd"></path></svg>