<svg xmlns="http://www.w3.org/2000/svg" width="24" height="24" viewBox="0 0 24 24" fill="none" stroke="currentColor" stroke-width="2" stroke-linecap="round" stroke-linejoin="round" class="icon icon-tabler icons-tabler-outline icon-tabler-plant-off"><path d="M2.606 2.043 C 2.511 2.085,2.378 2.159,2.311 2.207 C 2.167 2.309,1.960 2.736,1.960 2.929 C 1.963 3.899,2.043 5.844,2.092 6.120 C 2.539 8.640,4.182 10.648,6.530 11.544 C 7.418 11.883,7.922 11.961,9.380 11.986 L 10.580 12.007 10.790 12.212 L 11.000 12.417 11.000 13.209 L 11.000 14.000 8.906 14.000 C 6.674 14.000,6.592 14.006,6.322 14.199 C 6.254 14.247,6.158 14.362,6.109 14.453 L 6.020 14.620 6.020 17.080 L 6.020 19.540 6.114 19.840 C 6.422 20.827,7.173 21.578,8.160 21.886 L 8.460 21.980 12.000 21.980 L 15.540 21.980 15.840 21.886 C 16.817 21.581,17.584 20.820,17.876 19.866 C 17.922 19.715,17.960 19.545,17.960 19.487 C 17.960 19.399,18.154 19.576,19.210 20.627 C 20.034 21.446,20.521 21.901,20.637 21.960 C 20.989 22.137,21.354 22.048,21.701 21.701 C 22.048 21.354,22.137 20.989,21.960 20.637 C 21.900 20.517,21.225 19.807,19.853 18.420 C 17.471 16.012,17.861 16.404,16.760 15.305 C 16.265 14.811,15.815 14.361,15.760 14.305 C 15.705 14.250,15.030 13.575,14.260 12.805 C 13.490 12.036,12.815 11.360,12.760 11.304 C 12.705 11.247,12.480 11.022,12.260 10.803 C 12.040 10.585,11.815 10.361,11.760 10.306 C 11.705 10.250,9.926 8.481,7.807 6.373 C 5.689 4.265,3.906 2.468,3.846 2.380 C 3.692 2.153,3.299 1.960,3.000 1.963 C 2.875 1.965,2.705 1.999,2.606 2.043 M6.860 2.106 C 6.816 2.116,6.740 2.132,6.691 2.142 C 6.551 2.172,6.314 2.403,6.231 2.591 C 6.120 2.843,6.075 3.178,6.123 3.396 C 6.214 3.803,6.434 3.964,7.138 4.137 C 8.136 4.382,8.941 4.845,9.622 5.564 C 10.262 6.239,10.619 6.905,10.865 7.880 C 11.015 8.479,11.127 8.685,11.374 8.824 C 11.457 8.870,11.567 8.970,11.618 9.046 C 11.801 9.315,12.280 9.560,12.622 9.560 C 13.010 9.560,13.232 9.362,13.562 8.719 C 14.319 7.247,15.757 6.243,17.399 6.042 C 17.585 6.019,18.247 6.000,18.869 6.000 L 20.000 6.000 20.000 6.102 C 20.000 6.334,19.910 6.988,19.840 7.262 C 19.497 8.603,18.491 9.848,17.243 10.478 C 16.928 10.638,16.274 10.853,15.900 10.920 C 15.501 10.992,15.234 11.127,15.095 11.327 C 14.989 11.480,14.980 11.521,14.980 11.857 C 14.980 12.175,14.994 12.249,15.094 12.452 C 15.315 12.902,15.685 13.010,16.442 12.846 C 18.889 12.316,20.883 10.532,21.635 8.200 C 21.932 7.281,22.014 6.650,21.994 5.460 C 21.980 4.681,21.972 4.608,21.889 4.450 C 21.784 4.252,21.576 4.104,21.316 4.039 C 21.185 4.007,20.557 3.999,19.156 4.011 C 17.367 4.028,17.138 4.037,16.736 4.113 C 15.287 4.386,13.910 5.140,12.888 6.218 C 12.618 6.504,12.555 6.553,12.534 6.493 C 12.447 6.242,12.206 5.735,12.049 5.470 C 11.036 3.765,9.337 2.542,7.454 2.162 C 7.044 2.079,7.005 2.076,6.860 2.106 M8.438 9.953 C 8.197 9.991,7.318 9.736,6.785 9.474 C 5.328 8.758,4.231 7.239,4.059 5.700 L 4.032 5.460 6.277 7.700 C 8.045 9.465,8.504 9.943,8.438 9.953 M15.290 16.710 L 16.000 17.421 16.000 18.264 C 16.000 19.188,15.971 19.366,15.779 19.618 C 15.718 19.698,15.585 19.813,15.484 19.872 L 15.300 19.980 12.000 19.980 L 8.700 19.980 8.516 19.872 C 8.415 19.813,8.284 19.700,8.225 19.623 C 8.006 19.336,8.000 19.283,8.000 17.575 L 8.000 16.000 11.290 16.000 L 14.581 16.000 15.290 16.710 " stroke="none" fill="black" fill-rule="evenodd"></path></svg>