<svg xmlns="http://www.w3.org/2000/svg" width="24" height="24" viewBox="0 0 24 24" fill="none" stroke="currentColor" stroke-width="2" stroke-linecap="round" stroke-linejoin="round" class="icon icon-tabler icons-tabler-outline icon-tabler-microscope"><path d="M16.626 2.045 C 16.420 2.154,16.146 2.433,16.038 2.644 C 15.924 2.867,15.924 3.132,16.039 3.363 C 16.163 3.610,19.390 6.837,19.637 6.961 C 19.990 7.137,20.355 7.048,20.701 6.701 C 21.048 6.355,21.137 5.990,20.961 5.637 C 20.841 5.397,17.611 2.163,17.372 2.044 C 17.152 1.934,16.835 1.935,16.626 2.045 M14.620 4.046 C 14.383 4.167,8.154 10.406,8.039 10.637 C 7.923 10.870,7.924 11.133,8.041 11.362 C 8.091 11.460,8.344 11.756,8.603 12.020 L 9.074 12.499 8.603 12.980 C 8.083 13.511,7.951 13.717,7.951 14.000 C 7.951 14.477,8.523 15.049,9.000 15.049 C 9.283 15.049,9.489 14.917,10.020 14.397 L 10.501 13.926 10.980 14.397 C 11.244 14.656,11.540 14.909,11.638 14.959 C 11.868 15.076,12.130 15.077,12.363 14.960 C 12.483 14.900,13.060 14.353,14.146 13.270 L 15.753 11.670 16.000 12.003 C 16.316 12.430,16.690 13.194,16.817 13.674 C 17.215 15.177,16.915 16.765,16.001 17.995 C 15.412 18.786,14.446 19.478,13.540 19.758 C 12.832 19.977,12.902 19.972,10.370 19.989 L 8.000 20.005 8.000 19.508 L 8.000 19.011 8.198 18.988 C 8.533 18.948,8.752 18.807,8.893 18.540 C 9.017 18.305,9.016 17.691,8.890 17.453 C 8.786 17.256,8.623 17.131,8.371 17.055 C 8.108 16.976,5.892 16.976,5.629 17.055 C 5.224 17.177,5.040 17.428,5.009 17.900 C 4.968 18.532,5.251 18.922,5.797 18.987 L 6.000 19.011 6.000 19.506 L 6.000 20.000 5.406 20.000 C 4.577 20.000,4.300 20.097,4.109 20.453 C 4.035 20.592,4.020 20.684,4.020 21.000 C 4.020 21.331,4.033 21.403,4.120 21.558 C 4.230 21.755,4.414 21.898,4.635 21.959 C 4.835 22.015,19.165 22.015,19.365 21.959 C 19.586 21.898,19.770 21.755,19.880 21.558 C 19.967 21.402,19.980 21.332,19.979 21.000 C 19.978 20.567,19.898 20.355,19.678 20.199 C 19.428 20.020,19.259 20.000,18.045 20.000 L 16.903 20.000 17.104 19.790 C 18.086 18.767,18.761 17.325,18.959 15.827 C 19.012 15.420,19.011 14.634,18.956 14.180 C 18.797 12.871,18.202 11.487,17.383 10.520 L 17.163 10.260 18.017 9.400 C 18.547 8.865,18.904 8.473,18.960 8.363 C 19.076 8.132,19.076 7.869,18.961 7.637 C 18.841 7.397,15.611 4.163,15.372 4.044 C 15.151 3.934,14.836 3.935,14.620 4.046 M15.800 7.220 L 16.580 8.000 14.290 10.290 L 12.000 12.580 11.210 11.790 L 10.420 11.000 12.700 8.720 C 13.954 7.466,14.989 6.440,15.000 6.440 C 15.012 6.440,15.371 6.791,15.800 7.220 " stroke="none" fill="black" fill-rule="evenodd"></path></svg>