<svg xmlns="http://www.w3.org/2000/svg" width="24" height="24" viewBox="0 0 24 24" fill="none" stroke="currentColor" stroke-width="2" stroke-linecap="round" stroke-linejoin="round" class="icon icon-tabler icons-tabler-outline icon-tabler-friends-off"><path d="M2.626 2.045 C 2.257 2.239,1.951 2.673,1.951 3.000 C 1.951 3.322,2.069 3.479,3.072 4.489 L 4.013 5.437 4.086 5.729 C 4.348 6.772,5.241 7.665,6.270 7.911 L 6.559 7.980 7.569 8.990 L 8.579 10.000 6.660 10.002 C 4.979 10.004,4.707 10.013,4.477 10.073 C 3.788 10.253,3.184 10.886,3.040 11.580 C 3.012 11.715,3.001 12.558,3.009 14.043 L 3.020 16.300 3.127 16.480 C 3.186 16.579,3.407 16.831,3.617 17.039 L 4.000 17.418 4.000 19.819 C 4.000 21.304,4.016 22.275,4.041 22.365 C 4.148 22.750,4.437 22.962,4.896 22.991 C 5.381 23.022,5.699 22.882,5.880 22.558 L 5.980 22.380 5.980 19.540 L 5.980 16.700 5.873 16.520 C 5.814 16.421,5.593 16.169,5.383 15.961 L 5.000 15.582 5.000 13.791 L 5.000 12.000 7.000 12.000 L 9.000 12.000 9.000 13.791 L 9.000 15.582 8.617 15.961 C 8.407 16.169,8.186 16.421,8.127 16.520 L 8.020 16.700 8.009 19.452 C 8.002 21.240,8.012 22.257,8.039 22.356 C 8.144 22.747,8.433 22.961,8.896 22.991 C 9.381 23.022,9.699 22.882,9.880 22.558 L 9.980 22.380 9.991 19.901 L 10.003 17.421 10.416 17.001 C 10.643 16.769,10.863 16.517,10.905 16.440 C 10.975 16.310,10.981 16.162,11.000 14.370 L 11.020 12.439 12.059 13.479 L 13.099 14.519 12.545 16.187 C 12.008 17.801,11.991 17.864,12.009 18.123 C 12.041 18.565,12.258 18.854,12.635 18.959 C 12.715 18.981,13.055 19.000,13.390 19.000 L 14.000 19.000 14.000 20.610 C 14.000 21.565,14.017 22.279,14.041 22.365 C 14.148 22.750,14.437 22.962,14.896 22.991 C 15.381 23.022,15.699 22.882,15.880 22.558 L 15.980 22.380 15.980 20.000 L 15.980 17.620 15.891 17.453 C 15.716 17.127,15.408 17.000,14.789 17.000 C 14.488 17.000,14.396 16.988,14.410 16.950 C 14.420 16.922,14.487 16.722,14.559 16.505 L 14.690 16.110 16.345 17.765 L 18.000 19.420 18.000 20.820 C 18.000 21.634,18.017 22.281,18.041 22.365 C 18.148 22.750,18.437 22.962,18.896 22.991 C 19.381 23.022,19.700 22.881,19.878 22.559 C 19.963 22.406,19.979 22.316,19.993 21.911 L 20.010 21.440 20.248 21.661 C 20.379 21.782,20.560 21.919,20.651 21.965 C 20.987 22.137,21.359 22.043,21.701 21.701 C 22.048 21.354,22.137 20.989,21.959 20.637 C 21.888 20.496,20.642 19.175,19.742 18.286 C 19.690 18.235,18.630 17.176,17.387 15.933 C 16.144 14.690,15.085 13.631,15.034 13.579 C 12.450 10.996,7.833 6.379,7.760 6.305 C 7.705 6.249,7.255 5.799,6.760 5.305 C 6.265 4.811,5.815 4.360,5.760 4.304 C 4.998 3.525,3.504 2.112,3.372 2.045 C 3.152 1.934,2.836 1.934,2.626 2.045 M6.614 2.055 C 6.220 2.184,6.039 2.437,6.009 2.900 C 5.965 3.591,6.248 3.929,6.933 3.999 C 7.340 4.041,7.503 4.105,7.699 4.301 C 7.895 4.497,7.959 4.660,8.001 5.067 C 8.068 5.718,8.370 6.000,9.000 6.000 C 9.428 6.000,9.713 5.856,9.880 5.558 C 9.971 5.396,9.980 5.338,9.979 4.920 C 9.978 4.555,9.959 4.398,9.885 4.160 C 9.583 3.181,8.809 2.405,7.861 2.129 C 7.459 2.013,6.851 1.976,6.614 2.055 M16.499 2.040 C 15.363 2.246,14.460 3.049,14.114 4.160 C 13.979 4.594,13.979 5.406,14.114 5.840 C 14.421 6.826,15.174 7.579,16.160 7.886 C 16.594 8.021,17.406 8.021,17.840 7.886 C 18.826 7.579,19.579 6.826,19.886 5.840 C 20.021 5.406,20.021 4.594,19.886 4.160 C 19.581 3.179,18.810 2.407,17.861 2.129 C 17.500 2.023,16.832 1.980,16.499 2.040 M17.310 4.061 C 17.688 4.173,18.000 4.598,18.000 5.001 C 18.000 5.331,17.784 5.696,17.484 5.872 C 17.328 5.963,17.254 5.980,17.000 5.980 C 16.746 5.980,16.672 5.963,16.516 5.872 C 15.932 5.528,15.831 4.775,16.307 4.299 C 16.582 4.024,16.918 3.944,17.310 4.061 M15.480 10.073 C 14.822 10.245,14.240 10.816,14.240 11.291 C 14.240 11.769,14.837 12.361,15.317 12.360 C 15.452 12.359,15.799 12.195,15.896 12.086 C 15.970 12.002,16.000 12.000,16.986 12.000 L 18.000 12.000 18.000 12.088 C 18.000 12.188,19.485 16.675,19.619 16.980 C 19.728 17.227,19.985 17.466,20.182 17.503 C 20.671 17.595,21.306 17.314,21.464 16.936 C 21.591 16.632,21.561 16.512,20.762 14.104 C 20.345 12.848,19.976 11.698,19.942 11.550 C 19.860 11.186,19.725 10.933,19.465 10.653 C 19.198 10.366,18.870 10.164,18.523 10.073 C 18.136 9.972,15.866 9.972,15.480 10.073 " stroke="none" fill="black" fill-rule="evenodd"></path></svg>