<svg xmlns="http://www.w3.org/2000/svg" width="24" height="24" viewBox="0 0 24 24" fill="none" stroke="currentColor" stroke-width="2" stroke-linecap="round" stroke-linejoin="round" class="icon icon-tabler icons-tabler-outline icon-tabler-clock-dollar"><path d="M11.380 2.024 C 10.286 2.134,9.698 2.242,9.003 2.463 C 4.932 3.752,2.133 7.450,2.012 11.700 C 1.912 15.210,3.599 18.440,6.539 20.368 C 8.405 21.592,10.720 22.171,12.899 21.959 C 13.411 21.909,13.630 21.835,13.810 21.649 C 13.997 21.457,14.040 21.336,14.040 21.007 C 14.039 20.515,13.884 20.187,13.583 20.042 C 13.383 19.945,13.231 19.937,12.340 19.979 C 10.992 20.042,9.748 19.788,8.529 19.200 C 6.157 18.057,4.493 15.809,4.100 13.218 C 3.629 10.112,4.997 7.039,7.620 5.309 C 10.196 3.610,13.622 3.577,16.244 5.226 C 16.947 5.668,17.719 6.353,18.245 7.001 C 18.943 7.861,19.503 9.010,19.761 10.111 C 19.827 10.391,19.909 10.716,19.943 10.833 C 20.087 11.323,20.504 11.544,21.062 11.428 C 21.428 11.351,21.652 11.202,21.776 10.953 C 21.907 10.689,21.907 10.532,21.777 9.911 C 21.246 7.393,19.706 5.124,17.560 3.699 C 16.259 2.835,14.976 2.342,13.400 2.101 C 12.998 2.039,11.715 1.990,11.380 2.024 M11.614 6.057 C 11.377 6.131,11.212 6.261,11.109 6.453 L 11.020 6.620 11.020 9.460 L 11.020 12.300 11.126 12.480 C 11.185 12.579,11.635 13.058,12.126 13.544 C 13.108 14.514,13.219 14.591,13.584 14.550 C 13.995 14.503,14.511 13.978,14.550 13.565 C 14.582 13.232,14.474 13.069,13.695 12.279 L 13.003 11.578 12.991 9.099 C 12.980 6.623,12.980 6.620,12.891 6.453 C 12.842 6.362,12.746 6.247,12.678 6.199 C 12.414 6.010,11.957 5.950,11.614 6.057 M18.614 13.057 C 18.250 13.171,18.061 13.411,18.008 13.826 L 17.980 14.049 17.759 14.118 C 17.003 14.351,16.361 14.979,16.118 15.722 C 16.034 15.976,16.020 16.094,16.022 16.520 C 16.024 16.960,16.038 17.056,16.133 17.320 C 16.394 18.039,16.964 18.609,17.680 18.867 C 17.961 18.968,18.033 18.976,18.800 18.992 C 19.702 19.010,19.786 19.030,19.922 19.252 C 20.021 19.415,20.021 19.585,19.922 19.748 C 19.770 19.997,19.750 20.000,18.208 20.000 C 16.724 20.000,16.580 20.015,16.322 20.199 C 16.100 20.357,16.020 20.568,16.020 21.000 C 16.020 21.331,16.033 21.403,16.120 21.558 C 16.230 21.755,16.414 21.898,16.635 21.959 C 16.715 21.981,17.052 22.000,17.384 22.000 L 17.989 22.000 18.013 22.203 C 18.074 22.715,18.426 23.000,19.000 23.000 C 19.582 23.000,19.923 22.720,19.984 22.193 L 20.010 21.966 20.294 21.873 C 21.001 21.642,21.605 21.046,21.868 20.320 C 21.965 20.052,21.976 19.965,21.976 19.500 C 21.976 19.035,21.965 18.948,21.868 18.680 C 21.646 18.068,21.195 17.561,20.620 17.277 C 20.172 17.055,19.869 17.002,19.068 17.001 C 18.319 17.000,18.216 16.974,18.078 16.748 C 17.979 16.585,17.979 16.415,18.078 16.252 C 18.230 16.003,18.249 16.000,19.808 16.000 C 20.630 16.000,21.280 15.983,21.365 15.959 C 21.586 15.898,21.770 15.755,21.880 15.558 C 21.967 15.402,21.980 15.332,21.979 15.000 C 21.978 14.687,21.962 14.591,21.890 14.453 C 21.702 14.098,21.423 14.000,20.599 14.000 L 20.010 14.000 19.983 13.794 C 19.948 13.531,19.835 13.310,19.678 13.199 C 19.414 13.010,18.957 12.950,18.614 13.057 " stroke="none" fill="black" fill-rule="evenodd"></path></svg>