<svg xmlns="http://www.w3.org/2000/svg" width="24" height="24" viewBox="0 0 24 24" fill="none" stroke="currentColor" stroke-width="2" stroke-linecap="round" stroke-linejoin="round" class="icon icon-tabler icons-tabler-outline icon-tabler-pill-off"><path d="M2.626 2.045 C 2.420 2.154,2.146 2.433,2.038 2.644 C 1.924 2.868,1.924 3.132,2.040 3.363 C 2.101 3.486,2.877 4.290,4.603 6.020 L 7.077 8.500 5.286 10.300 C 3.268 12.327,3.019 12.625,2.624 13.493 C 1.480 16.007,2.206 18.969,4.380 20.658 C 6.302 22.150,8.927 22.329,11.019 21.109 C 11.601 20.770,11.936 20.471,13.700 18.714 L 15.500 16.923 17.980 19.397 C 19.710 21.123,20.514 21.899,20.637 21.960 C 20.990 22.137,21.354 22.048,21.701 21.701 C 22.047 21.355,22.136 20.990,21.961 20.637 C 21.839 20.392,3.616 2.165,3.372 2.044 C 3.152 1.934,2.834 1.935,2.626 2.045 M15.460 2.123 C 14.162 2.225,12.966 2.748,11.954 3.655 C 11.748 3.840,11.135 4.439,10.592 4.987 C 9.554 6.033,9.443 6.180,9.441 6.502 C 9.438 6.970,10.028 7.558,10.500 7.558 C 10.828 7.558,10.959 7.455,12.220 6.205 C 12.880 5.550,13.492 4.959,13.580 4.892 C 13.997 4.573,14.621 4.289,15.140 4.180 C 15.560 4.092,16.355 4.091,16.768 4.178 C 18.289 4.498,19.502 5.711,19.822 7.232 C 19.908 7.639,19.908 8.441,19.822 8.848 C 19.712 9.375,19.425 10.005,19.108 10.420 C 19.041 10.508,18.450 11.120,17.795 11.780 C 16.544 13.042,16.443 13.171,16.441 13.502 C 16.438 13.970,17.028 14.558,17.500 14.558 C 17.838 14.558,17.951 14.467,19.301 13.109 C 20.667 11.734,20.920 11.424,21.285 10.680 C 22.476 8.250,21.909 5.367,19.890 3.586 C 19.137 2.922,18.133 2.415,17.185 2.222 C 16.929 2.169,15.955 2.069,15.880 2.087 C 15.869 2.089,15.680 2.106,15.460 2.123 M12.370 17.212 C 11.429 18.154,10.543 19.014,10.400 19.122 C 8.661 20.441,6.157 20.071,4.849 18.300 C 4.091 17.275,3.881 15.856,4.309 14.660 C 4.594 13.865,4.709 13.725,6.716 11.710 L 8.499 9.919 11.289 12.709 L 14.080 15.500 12.370 17.212 " stroke="none" fill="black" fill-rule="evenodd"></path></svg>