<svg xmlns="http://www.w3.org/2000/svg" width="24" height="24" viewBox="0 0 24 24" fill="none" stroke="currentColor" stroke-width="2" stroke-linecap="round" stroke-linejoin="round" class="icon icon-tabler icons-tabler-outline icon-tabler-navigation-off"><path d="M2.626 2.045 C 2.420 2.154,2.146 2.433,2.038 2.644 C 1.924 2.867,1.924 3.132,2.039 3.363 C 2.102 3.487,2.994 4.407,5.042 6.460 L 7.955 9.380 5.536 14.620 C 4.205 17.502,3.088 19.958,3.053 20.078 C 3.010 20.227,2.997 20.378,3.012 20.558 C 3.067 21.220,3.463 21.721,4.091 21.923 C 4.581 22.081,4.511 22.100,8.450 20.762 L 12.000 19.555 15.550 20.761 C 18.140 21.641,19.167 21.973,19.348 21.989 C 19.618 22.013,19.868 21.964,20.146 21.833 C 20.325 21.749,20.325 21.749,20.433 21.828 C 20.880 22.159,21.284 22.118,21.701 21.701 C 22.049 21.353,22.137 20.988,21.959 20.637 C 21.905 20.531,21.574 20.162,21.137 19.720 C 19.432 17.996,3.651 2.237,3.560 2.168 C 3.264 1.942,2.910 1.895,2.626 2.045 M11.726 2.040 C 11.466 2.133,11.275 2.274,11.167 2.449 C 11.071 2.606,9.511 6.001,9.446 6.196 C 9.384 6.379,9.388 6.654,9.455 6.813 C 9.531 6.997,9.849 7.263,10.106 7.359 C 10.550 7.525,10.929 7.433,11.170 7.099 C 11.242 7.000,11.452 6.586,11.638 6.180 C 11.823 5.773,11.986 5.440,11.999 5.440 C 12.012 5.440,12.795 7.115,13.739 9.161 C 14.880 11.637,15.499 12.935,15.588 13.038 C 15.839 13.331,16.235 13.392,16.663 13.203 C 17.219 12.957,17.426 12.555,17.255 12.051 C 17.130 11.682,12.834 2.418,12.725 2.282 C 12.578 2.098,12.309 1.960,12.104 1.961 C 12.014 1.962,11.844 1.998,11.726 2.040 M18.024 19.469 C 18.017 19.476,16.710 19.040,15.119 18.501 C 12.549 17.630,12.199 17.520,11.983 17.523 C 11.774 17.525,11.299 17.676,8.600 18.594 C 6.873 19.182,5.455 19.651,5.449 19.637 C 5.443 19.624,6.343 17.649,7.449 15.248 L 9.460 10.884 13.748 15.170 C 16.107 17.528,18.031 19.462,18.024 19.469 " stroke="none" fill="black" fill-rule="evenodd"></path></svg>