<svg xmlns="http://www.w3.org/2000/svg" width="24" height="24" viewBox="0 0 24 24" fill="none" stroke="currentColor" stroke-width="2" stroke-linecap="round" stroke-linejoin="round" class="icon icon-tabler icons-tabler-outline icon-tabler-sort-descending-small-big"><path d="M14.800 4.027 C 13.956 4.175,13.215 4.886,13.044 5.712 C 12.983 6.005,12.983 10.995,13.044 11.288 C 13.208 12.082,13.918 12.792,14.712 12.956 C 15.005 13.017,19.995 13.017,20.288 12.956 C 21.082 12.792,21.792 12.082,21.956 11.288 C 22.017 10.995,22.017 6.005,21.956 5.712 C 21.809 5.003,21.260 4.386,20.528 4.108 C 20.303 4.022,20.265 4.021,17.600 4.015 C 16.115 4.012,14.855 4.017,14.800 4.027 M6.614 5.057 C 6.377 5.131,6.212 5.261,6.109 5.453 L 6.020 5.620 6.009 10.597 L 5.999 15.574 5.269 14.852 C 4.856 14.443,4.467 14.094,4.372 14.045 C 4.021 13.868,3.640 13.958,3.299 14.299 C 2.952 14.646,2.863 15.011,3.040 15.363 C 3.099 15.480,3.635 16.051,4.635 17.062 C 5.463 17.899,6.174 18.634,6.216 18.697 C 6.318 18.850,6.762 19.049,7.000 19.049 C 7.238 19.049,7.682 18.850,7.784 18.697 C 7.826 18.634,8.537 17.899,9.365 17.062 C 10.365 16.051,10.901 15.480,10.960 15.363 C 11.137 15.011,11.048 14.646,10.701 14.299 C 10.360 13.958,9.979 13.868,9.628 14.045 C 9.533 14.094,9.144 14.443,8.731 14.852 L 8.002 15.574 7.991 10.597 L 7.980 5.620 7.891 5.453 C 7.842 5.362,7.746 5.247,7.678 5.199 C 7.414 5.010,6.957 4.950,6.614 5.057 M19.952 6.048 C 20.021 6.117,20.021 10.883,19.952 10.952 C 19.883 11.021,15.117 11.021,15.048 10.952 C 14.979 10.883,14.979 6.117,15.048 6.048 C 15.117 5.979,19.883 5.979,19.952 6.048 M14.327 14.043 C 13.885 14.130,13.398 14.492,13.198 14.883 C 13.012 15.247,13.001 15.367,13.001 17.000 C 13.001 18.633,13.012 18.753,13.198 19.117 C 13.314 19.344,13.656 19.686,13.883 19.802 C 14.247 19.988,14.367 19.999,16.000 19.999 C 17.158 19.999,17.590 19.986,17.740 19.946 C 18.318 19.791,18.744 19.380,18.921 18.807 C 18.994 18.571,19.000 18.433,19.000 17.006 C 18.999 15.844,18.986 15.410,18.946 15.260 C 18.778 14.632,18.273 14.160,17.642 14.040 C 17.386 13.992,14.576 13.994,14.327 14.043 M17.000 17.000 L 17.000 18.000 16.000 18.000 L 15.000 18.000 15.000 17.000 L 15.000 16.000 16.000 16.000 L 17.000 16.000 17.000 17.000 " stroke="none" fill="black" fill-rule="evenodd"></path></svg>