<svg xmlns="http://www.w3.org/2000/svg" width="24" height="24" viewBox="0 0 24 24" fill="none" stroke="currentColor" stroke-width="2" stroke-linecap="round" stroke-linejoin="round" class="icon icon-tabler icons-tabler-outline icon-tabler-brand-tabler"><path d="M7.400 3.044 C 5.761 3.229,4.261 4.290,3.526 5.785 C 3.333 6.177,3.187 6.599,3.093 7.040 C 3.025 7.358,3.020 7.684,3.020 12.000 C 3.020 16.316,3.025 16.642,3.093 16.960 C 3.526 18.984,5.016 20.474,7.040 20.907 C 7.358 20.975,7.684 20.980,12.000 20.980 C 16.316 20.980,16.642 20.975,16.960 20.907 C 18.488 20.580,19.748 19.630,20.433 18.288 C 20.662 17.839,20.805 17.439,20.907 16.960 C 20.975 16.642,20.980 16.316,20.980 12.000 C 20.980 7.684,20.975 7.358,20.907 7.040 C 20.625 5.721,19.863 4.576,18.800 3.874 C 18.046 3.375,17.396 3.135,16.552 3.043 C 16.084 2.991,7.855 2.993,7.400 3.044 M16.861 5.121 C 17.836 5.429,18.613 6.217,18.888 7.178 L 18.980 7.500 18.980 12.000 L 18.980 16.500 18.888 16.822 C 18.610 17.792,17.831 18.577,16.840 18.886 L 16.540 18.980 12.000 18.980 L 7.460 18.980 7.160 18.886 C 6.169 18.577,5.390 17.792,5.112 16.822 L 5.020 16.500 5.020 12.000 L 5.020 7.500 5.112 7.178 C 5.426 6.083,6.374 5.234,7.499 5.043 C 7.609 5.024,9.689 5.011,12.120 5.014 L 16.540 5.020 16.861 5.121 M7.626 8.045 C 7.257 8.239,6.951 8.673,6.951 9.000 C 6.951 9.333,7.056 9.467,8.353 10.770 L 9.577 12.000 8.353 13.230 C 7.548 14.039,7.099 14.521,7.040 14.637 C 6.863 14.989,6.952 15.354,7.299 15.701 C 7.645 16.048,8.010 16.137,8.363 15.961 C 8.610 15.837,11.837 12.610,11.961 12.363 C 12.014 12.256,12.049 12.111,12.049 12.000 C 12.049 11.889,12.014 11.744,11.961 11.637 C 11.841 11.397,8.611 8.163,8.372 8.044 C 8.152 7.934,7.835 7.935,7.626 8.045 M12.614 14.057 C 12.377 14.131,12.212 14.261,12.109 14.453 C 12.035 14.592,12.020 14.684,12.020 15.000 C 12.020 15.331,12.033 15.403,12.120 15.558 C 12.230 15.755,12.414 15.898,12.635 15.959 C 12.722 15.983,13.470 16.000,14.500 16.000 C 15.530 16.000,16.278 15.983,16.365 15.959 C 16.586 15.898,16.770 15.755,16.880 15.558 C 16.967 15.402,16.980 15.332,16.979 15.000 C 16.978 14.687,16.962 14.591,16.890 14.453 C 16.786 14.256,16.623 14.131,16.371 14.055 C 16.114 13.978,12.862 13.980,12.614 14.057 " stroke="none" fill="black" fill-rule="evenodd"></path></svg>