<svg xmlns="http://www.w3.org/2000/svg" width="24" height="24" viewBox="0 0 24 24" fill="none" stroke="currentColor" stroke-width="2" stroke-linecap="round" stroke-linejoin="round" class="icon icon-tabler icons-tabler-outline icon-tabler-brand-golang"><path d="M3.614 8.057 C 3.377 8.131,3.212 8.261,3.109 8.453 C 3.035 8.592,3.020 8.684,3.020 9.000 C 3.020 9.331,3.033 9.403,3.120 9.558 C 3.230 9.755,3.414 9.898,3.635 9.959 C 3.826 10.012,6.174 10.012,6.365 9.959 C 6.586 9.898,6.770 9.755,6.880 9.558 C 6.967 9.402,6.980 9.332,6.979 9.000 C 6.978 8.687,6.962 8.591,6.890 8.453 C 6.786 8.256,6.623 8.131,6.371 8.055 C 6.117 7.979,3.859 7.981,3.614 8.057 M10.936 8.058 C 10.270 8.162,9.717 8.381,9.118 8.780 C 8.696 9.060,8.201 9.529,7.883 9.948 C 7.593 10.331,7.259 11.022,7.132 11.500 C 7.040 11.849,7.027 11.979,7.026 12.520 C 7.025 13.034,7.040 13.193,7.111 13.451 C 7.451 14.678,8.331 15.553,9.560 15.887 C 9.846 15.964,9.995 15.979,10.500 15.977 C 11.022 15.976,11.155 15.961,11.520 15.866 C 12.478 15.616,13.393 15.018,14.031 14.225 L 14.266 13.933 14.413 14.218 C 14.719 14.813,15.238 15.316,15.860 15.622 C 16.435 15.904,16.753 15.974,17.460 15.976 C 18.122 15.977,18.494 15.909,19.060 15.683 C 20.169 15.239,21.239 14.169,21.683 13.060 C 21.909 12.494,21.977 12.122,21.976 11.460 C 21.974 10.754,21.904 10.436,21.622 9.860 C 20.785 8.148,18.642 7.515,16.735 8.417 C 15.707 8.904,14.788 9.836,14.364 10.821 L 14.279 11.020 12.835 11.009 C 11.197 10.996,11.083 11.010,10.832 11.261 C 10.492 11.602,10.491 12.398,10.832 12.739 C 11.037 12.944,11.267 13.000,11.917 13.002 L 12.460 13.003 12.174 13.275 C 11.880 13.553,11.514 13.771,11.120 13.904 C 10.962 13.957,10.781 13.978,10.480 13.979 C 10.109 13.980,10.034 13.968,9.835 13.875 C 9.197 13.576,8.906 12.953,9.038 12.170 C 9.195 11.244,10.038 10.352,11.020 10.076 C 11.130 10.045,11.382 10.020,11.580 10.021 C 11.885 10.021,11.998 10.042,12.318 10.155 C 12.742 10.305,12.944 10.306,13.186 10.156 C 13.445 9.996,13.720 9.468,13.720 9.129 C 13.720 9.046,13.680 8.897,13.630 8.799 C 13.339 8.224,12.086 7.880,10.936 8.058 M19.195 10.141 C 19.995 10.500,20.227 11.483,19.743 12.464 C 19.428 13.100,18.830 13.642,18.187 13.873 C 17.949 13.959,17.828 13.977,17.480 13.978 C 17.101 13.980,17.036 13.969,16.815 13.867 C 15.994 13.487,15.769 12.526,16.266 11.520 C 16.611 10.821,17.347 10.218,18.052 10.058 C 18.418 9.974,18.902 10.009,19.195 10.141 M1.614 11.057 C 1.377 11.131,1.212 11.261,1.109 11.453 C 1.035 11.592,1.020 11.684,1.020 12.000 C 1.020 12.331,1.033 12.403,1.120 12.558 C 1.230 12.755,1.414 12.898,1.635 12.959 C 1.722 12.983,2.470 13.000,3.500 13.000 C 4.530 13.000,5.278 12.983,5.365 12.959 C 5.586 12.898,5.770 12.755,5.880 12.558 C 5.967 12.402,5.980 12.332,5.979 12.000 C 5.978 11.687,5.962 11.591,5.890 11.453 C 5.786 11.256,5.623 11.131,5.371 11.055 C 5.114 10.978,1.862 10.980,1.614 11.057 M3.614 14.057 C 3.377 14.131,3.212 14.261,3.109 14.453 C 3.035 14.592,3.020 14.684,3.020 15.000 C 3.020 15.331,3.033 15.403,3.120 15.558 C 3.230 15.755,3.414 15.898,3.635 15.959 C 3.874 16.026,5.668 16.011,5.904 15.941 C 6.290 15.827,6.486 15.508,6.486 14.997 C 6.486 14.491,6.303 14.196,5.909 14.064 C 5.658 13.980,3.877 13.975,3.614 14.057 " stroke="none" fill="black" fill-rule="evenodd"></path></svg>