<svg xmlns="http://www.w3.org/2000/svg" width="24" height="24" viewBox="0 0 24 24" fill="none" stroke="currentColor" stroke-width="2" stroke-linecap="round" stroke-linejoin="round" class="icon icon-tabler icons-tabler-outline icon-tabler-bell-minus"><path d="M11.499 2.040 C 10.389 2.242,9.473 3.037,9.139 4.090 C 9.055 4.357,9.049 4.365,8.767 4.538 C 7.862 5.096,6.970 5.956,6.363 6.856 C 5.849 7.617,5.469 8.462,5.244 9.341 C 5.042 10.129,5.029 10.285,5.001 12.280 L 4.975 14.180 4.871 14.472 C 4.642 15.112,4.157 15.720,3.591 16.077 C 3.126 16.369,2.975 16.639,3.009 17.115 C 3.041 17.565,3.255 17.854,3.635 17.959 C 3.724 17.984,4.598 18.000,5.884 18.000 L 7.988 18.000 8.013 18.310 C 8.114 19.594,8.855 20.776,9.980 21.447 C 10.267 21.618,10.653 21.774,11.073 21.889 C 11.504 22.007,12.461 22.014,12.837 21.902 C 13.313 21.760,13.557 21.411,13.508 20.937 C 13.459 20.463,13.268 20.148,12.952 20.021 C 12.808 19.964,12.699 19.958,12.241 19.980 C 11.760 20.004,11.671 19.997,11.437 19.924 C 10.941 19.768,10.439 19.352,10.216 18.913 C 10.114 18.710,10.002 18.293,10.001 18.110 L 10.000 18.000 11.353 18.000 C 12.867 18.000,13.006 17.982,13.229 17.751 C 13.418 17.556,13.486 17.355,13.486 16.997 C 13.486 16.491,13.303 16.196,12.909 16.064 C 12.740 16.008,12.345 16.000,9.547 16.000 L 6.376 16.000 6.527 15.690 C 6.666 15.404,6.804 15.009,6.924 14.560 C 6.955 14.441,6.981 13.739,6.999 12.480 C 7.021 10.961,7.040 10.510,7.094 10.230 C 7.391 8.673,8.325 7.245,9.620 6.370 C 9.752 6.281,10.031 6.116,10.240 6.004 C 10.790 5.709,11.000 5.441,11.000 5.033 C 11.000 4.483,11.467 4.000,12.000 4.000 C 12.536 4.000,13.000 4.483,13.000 5.040 C 13.000 5.261,13.108 5.533,13.252 5.672 C 13.322 5.740,13.551 5.889,13.760 6.002 C 14.256 6.271,14.592 6.500,14.955 6.815 C 15.936 7.666,16.659 8.930,16.906 10.230 C 16.960 10.510,16.978 10.964,17.001 12.500 C 17.032 14.620,17.027 14.581,17.326 15.363 C 17.479 15.763,17.728 16.048,17.984 16.116 C 18.285 16.196,18.765 16.053,19.058 15.796 C 19.367 15.525,19.393 15.245,19.171 14.584 L 19.023 14.140 18.998 12.260 C 18.971 10.286,18.959 10.131,18.756 9.341 C 18.252 7.369,16.952 5.599,15.233 4.538 C 14.951 4.365,14.945 4.357,14.861 4.090 C 14.567 3.165,13.787 2.400,12.861 2.129 C 12.500 2.023,11.832 1.980,11.499 2.040 M15.614 18.057 C 15.377 18.131,15.212 18.261,15.109 18.453 C 15.035 18.592,15.020 18.684,15.020 19.000 C 15.020 19.331,15.033 19.403,15.120 19.558 C 15.230 19.755,15.414 19.898,15.635 19.959 C 15.832 20.014,22.168 20.014,22.365 19.959 C 22.586 19.898,22.770 19.755,22.880 19.558 C 22.967 19.402,22.980 19.332,22.979 19.000 C 22.978 18.567,22.898 18.355,22.678 18.199 C 22.398 17.999,22.411 18.000,18.984 18.003 C 16.472 18.005,15.744 18.017,15.614 18.057 " stroke="none" fill="black" fill-rule="evenodd"></path></svg>