<svg xmlns="http://www.w3.org/2000/svg" width="24" height="24" viewBox="0 0 24 24" fill="none" stroke="currentColor" stroke-width="2" stroke-linecap="round" stroke-linejoin="round" class="icon icon-tabler icons-tabler-outline icon-tabler-book-off"><path d="M2.626 2.045 C 2.257 2.239,1.951 2.673,1.951 3.000 C 1.951 3.294,2.084 3.492,2.713 4.130 C 3.032 4.454,3.286 4.726,3.277 4.734 C 3.237 4.768,2.568 5.080,2.535 5.080 C 2.444 5.080,2.200 5.293,2.104 5.457 L 1.997 5.639 1.997 12.420 C 1.997 16.947,2.011 19.253,2.039 19.355 C 2.100 19.584,2.237 19.760,2.460 19.897 C 2.630 20.002,2.698 20.020,2.920 20.019 C 3.233 20.017,3.461 19.955,3.644 19.820 C 4.127 19.464,5.264 19.060,6.253 18.892 C 6.820 18.795,8.180 18.795,8.747 18.892 C 9.735 19.059,10.873 19.464,11.355 19.819 C 11.526 19.945,11.720 20.000,12.000 20.000 C 12.299 20.000,12.476 19.944,12.726 19.772 C 13.111 19.507,13.980 19.173,14.720 19.005 C 15.360 18.860,15.766 18.820,16.589 18.820 L 17.398 18.820 18.929 20.346 C 19.960 21.373,20.518 21.900,20.637 21.960 C 20.989 22.137,21.354 22.048,21.701 21.701 C 22.048 21.354,22.137 20.989,21.960 20.637 C 21.901 20.520,21.338 19.921,20.292 18.860 C 19.423 17.980,18.692 17.239,18.667 17.214 C 18.626 17.174,13.044 11.591,12.747 11.293 C 10.961 9.503,3.631 2.221,3.560 2.167 C 3.262 1.941,2.910 1.895,2.626 2.045 M15.720 3.824 C 14.262 3.997,13.383 4.228,12.291 4.723 L 12.001 4.855 11.571 4.668 C 10.232 4.087,8.874 3.788,8.428 3.974 C 8.121 4.102,7.920 4.504,7.920 4.989 C 7.920 5.285,7.982 5.451,8.158 5.628 C 8.307 5.777,8.488 5.842,9.140 5.978 C 9.684 6.092,10.192 6.250,10.660 6.451 L 10.980 6.588 11.000 7.484 C 11.019 8.347,11.024 8.387,11.120 8.558 C 11.287 8.856,11.572 9.000,12.000 9.000 C 12.428 9.000,12.713 8.856,12.880 8.558 C 12.977 8.385,12.980 8.353,12.993 7.488 L 13.007 6.596 13.233 6.495 C 14.316 6.010,15.226 5.822,16.500 5.822 C 17.775 5.822,18.684 6.010,19.770 6.496 L 20.000 6.599 20.000 11.909 C 20.000 15.344,20.015 17.271,20.041 17.365 C 20.148 17.750,20.437 17.962,20.896 17.991 C 21.381 18.022,21.699 17.882,21.880 17.558 L 21.980 17.380 22.001 11.560 L 22.021 5.740 21.921 5.523 C 21.828 5.324,21.580 5.080,21.470 5.080 C 21.448 5.080,21.195 4.965,20.906 4.825 C 19.493 4.141,18.259 3.847,16.680 3.821 C 16.229 3.813,15.797 3.815,15.720 3.824 M11.000 14.924 L 11.000 17.429 10.684 17.317 C 10.244 17.161,9.468 16.977,8.900 16.893 C 8.232 16.795,6.768 16.795,6.100 16.893 C 5.532 16.977,4.756 17.161,4.315 17.317 L 4.000 17.429 4.010 12.007 L 4.020 6.586 4.420 6.417 L 4.820 6.248 7.910 9.334 L 11.000 12.420 11.000 14.924 M15.400 16.850 C 15.400 16.866,15.347 16.880,15.283 16.880 C 15.055 16.880,14.082 17.081,13.614 17.224 C 13.353 17.304,13.108 17.379,13.070 17.389 C 13.004 17.408,13.000 17.319,13.000 15.915 L 13.000 14.421 14.200 15.620 C 14.860 16.280,15.400 16.833,15.400 16.850 " stroke="none" fill="black" fill-rule="evenodd"></path></svg>