<svg xmlns="http://www.w3.org/2000/svg" width="24" height="24" viewBox="0 0 24 24" fill="none" stroke="currentColor" stroke-width="2" stroke-linecap="round" stroke-linejoin="round" class="icon icon-tabler icons-tabler-outline icon-tabler-arrow-ramp-right-3"><path d="M5.614 2.057 C 5.377 2.131,5.212 2.261,5.109 2.453 L 5.020 2.620 5.009 5.912 C 5.002 8.060,5.012 9.257,5.039 9.356 C 5.144 9.747,5.434 9.961,5.896 9.991 C 6.381 10.022,6.699 9.882,6.880 9.558 L 6.980 9.380 6.980 6.000 L 6.980 2.620 6.891 2.453 C 6.842 2.362,6.746 2.247,6.678 2.199 C 6.414 2.010,5.957 1.950,5.614 2.057 M15.626 7.045 C 15.257 7.239,14.951 7.673,14.951 8.000 C 14.951 8.333,15.056 8.467,16.353 9.770 L 17.577 11.000 13.179 11.000 C 8.464 11.000,8.335 11.005,7.755 11.204 C 6.368 11.679,5.372 12.805,5.083 14.227 C 5.003 14.617,5.000 14.755,5.000 17.926 C 5.000 20.009,5.015 21.273,5.041 21.365 C 5.148 21.750,5.437 21.962,5.896 21.991 C 6.381 22.022,6.699 21.882,6.880 21.558 L 6.980 21.380 7.001 17.980 C 7.024 14.181,7.007 14.406,7.314 13.937 C 7.508 13.642,7.712 13.446,8.014 13.265 C 8.469 12.992,8.308 13.000,13.186 13.000 L 17.577 13.000 16.353 14.230 C 15.548 15.039,15.099 15.521,15.040 15.637 C 14.863 15.989,14.952 16.354,15.299 16.701 C 15.646 17.048,16.011 17.137,16.363 16.960 C 16.484 16.899,17.182 16.234,18.561 14.866 C 19.673 13.763,20.634 12.826,20.696 12.784 C 20.850 12.682,21.049 12.239,21.049 12.000 C 21.049 11.745,20.851 11.321,20.676 11.201 C 20.601 11.150,19.640 10.213,18.540 9.118 C 17.232 7.817,16.482 7.099,16.372 7.044 C 16.152 6.934,15.835 6.935,15.626 7.045 " stroke="none" fill="black" fill-rule="evenodd"></path></svg>