<svg xmlns="http://www.w3.org/2000/svg" width="24" height="24" viewBox="0 0 24 24" fill="none" stroke="currentColor" stroke-width="2" stroke-linecap="round" stroke-linejoin="round" class="icon icon-tabler icons-tabler-outline icon-tabler-world-bolt"><path d="M11.160 2.008 C 11.114 2.025,10.830 2.075,10.528 2.119 C 6.739 2.676,3.545 5.419,2.449 9.060 C 2.291 9.586,2.178 10.080,2.092 10.620 C 1.994 11.243,1.995 12.766,2.094 13.380 C 2.420 15.392,3.109 16.927,4.370 18.449 C 5.839 20.223,8.073 21.491,10.380 21.861 C 10.600 21.896,10.870 21.945,10.980 21.969 C 11.436 22.070,13.433 21.952,13.880 21.797 C 14.291 21.655,14.513 21.299,14.468 20.857 C 14.421 20.394,14.245 20.093,13.943 19.956 C 13.748 19.867,13.520 19.863,12.960 19.940 C 12.729 19.972,12.431 19.998,12.298 19.999 L 12.056 20.000 11.732 19.370 C 11.209 18.355,10.912 17.624,10.597 16.580 C 10.511 16.294,10.440 16.047,10.440 16.030 C 10.440 16.014,11.489 16.000,12.770 15.999 C 14.952 15.998,15.110 15.994,15.263 15.924 C 15.441 15.843,15.576 15.696,15.664 15.483 C 15.782 15.203,15.961 14.005,16.044 12.940 C 16.090 12.356,16.073 10.812,16.015 10.250 L 15.989 10.000 17.870 10.000 L 19.752 10.000 19.816 10.290 C 19.930 10.812,19.962 11.128,19.984 11.980 C 19.999 12.577,20.023 12.869,20.065 12.988 C 20.190 13.338,20.611 13.547,21.117 13.511 C 21.525 13.482,21.736 13.343,21.892 13.000 C 22.045 12.664,22.027 11.309,21.856 10.323 C 21.150 6.242,17.998 3.000,13.960 2.204 C 13.729 2.158,13.432 2.110,13.300 2.097 C 13.168 2.084,12.997 2.053,12.920 2.029 C 12.759 1.978,11.288 1.961,11.160 2.008 M12.374 4.830 C 12.867 5.808,13.257 6.803,13.533 7.790 L 13.591 8.000 12.016 8.000 C 11.149 8.000,10.440 7.987,10.440 7.970 C 10.440 7.909,10.759 6.887,10.896 6.508 C 11.175 5.739,11.919 4.160,12.003 4.160 C 12.021 4.160,12.188 4.462,12.374 4.830 M9.356 4.964 C 9.079 5.618,8.615 6.993,8.480 7.560 C 8.430 7.769,8.377 7.954,8.362 7.970 C 8.347 7.987,7.600 7.996,6.701 7.990 L 5.068 7.980 5.339 7.580 C 6.136 6.404,7.175 5.476,8.362 4.879 C 8.745 4.686,9.564 4.351,9.590 4.376 C 9.596 4.382,9.491 4.647,9.356 4.964 M15.547 4.843 C 16.917 5.515,18.052 6.553,18.836 7.850 L 18.927 8.000 17.288 8.000 L 15.650 8.000 15.563 7.650 C 15.308 6.621,15.024 5.820,14.413 4.409 C 14.381 4.335,14.976 4.562,15.547 4.843 M8.021 10.090 C 7.981 10.271,7.920 11.422,7.920 12.000 C 7.920 12.578,7.981 13.729,8.021 13.910 L 8.042 14.000 6.144 14.000 L 4.246 14.000 4.186 13.730 C 4.057 13.150,4.024 12.798,4.024 12.020 C 4.024 11.245,4.049 10.987,4.188 10.310 L 4.252 10.000 6.147 10.000 L 8.042 10.000 8.021 10.090 M13.975 10.130 C 14.111 10.887,14.091 12.892,13.937 13.850 L 13.913 14.000 11.982 14.000 L 10.050 14.000 10.027 13.810 C 9.938 13.082,9.907 11.960,9.954 11.190 C 9.982 10.745,10.014 10.295,10.027 10.190 L 10.050 10.000 12.001 10.000 L 13.951 10.000 13.975 10.130 M18.620 15.026 C 18.554 15.061,18.448 15.137,18.385 15.195 C 18.251 15.318,16.144 18.459,16.035 18.698 C 15.944 18.898,15.939 19.204,16.024 19.382 C 16.059 19.456,16.168 19.591,16.266 19.681 C 16.585 19.975,16.597 19.978,17.930 20.000 L 19.120 20.020 18.615 20.777 C 18.033 21.649,17.962 21.788,17.961 22.054 C 17.960 22.304,18.044 22.477,18.266 22.681 C 18.749 23.127,19.289 23.155,19.665 22.754 C 19.872 22.534,21.885 19.481,21.950 19.289 C 22.073 18.929,21.941 18.385,21.686 18.204 C 21.441 18.030,21.382 18.022,20.110 18.001 L 18.880 17.980 19.385 17.223 C 19.967 16.351,20.038 16.212,20.039 15.946 C 20.040 15.696,19.956 15.523,19.734 15.319 C 19.383 14.996,18.913 14.872,18.620 15.026 M8.507 16.540 C 8.687 17.240,9.060 18.334,9.357 19.036 C 9.491 19.353,9.596 19.618,9.590 19.624 C 9.584 19.629,9.399 19.566,9.180 19.483 C 8.272 19.140,7.395 18.611,6.660 17.964 C 6.191 17.551,5.503 16.717,5.163 16.150 L 5.073 15.999 6.723 16.010 L 8.373 16.020 8.507 16.540 " stroke="none" fill="black" fill-rule="evenodd"></path></svg>