<svg xmlns="http://www.w3.org/2000/svg" width="24" height="24" viewBox="0 0 24 24" fill="none" stroke="currentColor" stroke-width="2" stroke-linecap="round" stroke-linejoin="round" class="icon icon-tabler icons-tabler-outline icon-tabler-clipboard-copy"><path d="M10.499 2.042 C 9.560 2.206,8.740 2.816,8.314 3.666 L 8.151 3.991 7.306 4.010 C 6.558 4.026,6.423 4.040,6.139 4.125 C 5.180 4.416,4.420 5.180,4.114 6.160 L 4.020 6.460 4.020 13.000 L 4.020 19.540 4.114 19.840 C 4.419 20.816,5.154 21.559,6.140 21.885 C 6.414 21.975,6.461 21.977,8.307 21.991 C 9.553 22.000,10.247 21.991,10.351 21.963 C 10.583 21.900,10.767 21.759,10.880 21.558 C 10.967 21.402,10.980 21.332,10.979 21.000 C 10.977 20.469,10.851 20.245,10.455 20.071 C 10.370 20.034,9.860 20.016,8.520 20.000 L 6.700 19.980 6.516 19.872 C 6.415 19.813,6.284 19.700,6.225 19.623 C 5.987 19.311,6.000 19.701,6.000 13.022 C 6.000 6.123,5.977 6.629,6.303 6.303 C 6.561 6.046,6.744 6.000,7.521 6.000 L 8.147 6.000 8.312 6.330 C 8.682 7.068,9.354 7.635,10.160 7.886 C 10.453 7.978,10.497 7.980,12.000 7.980 C 13.503 7.980,13.547 7.978,13.840 7.886 C 14.646 7.635,15.318 7.068,15.688 6.330 L 15.853 6.000 16.479 6.000 C 17.256 6.000,17.439 6.046,17.697 6.303 C 18.008 6.615,18.000 6.526,18.000 9.557 C 18.000 11.218,18.016 12.274,18.041 12.365 C 18.148 12.750,18.437 12.962,18.896 12.991 C 19.381 13.022,19.699 12.882,19.880 12.558 L 19.980 12.380 19.980 9.420 L 19.980 6.460 19.886 6.160 C 19.580 5.180,18.820 4.416,17.861 4.125 C 17.577 4.040,17.442 4.026,16.694 4.010 L 15.849 3.991 15.686 3.666 C 15.322 2.939,14.643 2.365,13.861 2.124 C 13.548 2.027,13.504 2.024,12.120 2.015 C 11.339 2.010,10.609 2.022,10.499 2.042 M13.310 4.061 C 13.688 4.173,14.000 4.598,14.000 5.001 C 14.000 5.331,13.784 5.696,13.484 5.872 L 13.300 5.980 12.000 5.980 L 10.700 5.980 10.516 5.872 C 9.935 5.530,9.833 4.774,10.304 4.303 C 10.584 4.022,10.675 4.006,11.983 4.003 C 12.878 4.001,13.147 4.012,13.310 4.061 M13.477 14.073 C 12.806 14.249,12.238 14.823,12.060 15.508 C 11.990 15.777,11.976 17.131,12.041 17.365 C 12.148 17.750,12.437 17.962,12.896 17.991 C 13.381 18.022,13.699 17.882,13.880 17.558 C 13.974 17.391,13.981 17.338,13.994 16.690 L 14.008 16.000 14.614 16.000 C 14.947 16.000,15.285 15.981,15.365 15.959 C 15.586 15.898,15.770 15.755,15.880 15.558 C 15.967 15.402,15.980 15.332,15.979 15.000 C 15.978 14.687,15.962 14.591,15.890 14.453 C 15.786 14.256,15.623 14.131,15.371 14.055 C 15.091 13.971,13.822 13.983,13.477 14.073 M17.614 14.057 C 17.377 14.131,17.212 14.261,17.109 14.453 C 17.035 14.592,17.020 14.684,17.020 15.000 C 17.020 15.331,17.033 15.403,17.120 15.558 C 17.230 15.755,17.414 15.898,17.635 15.959 C 17.715 15.981,18.055 16.000,18.390 16.000 L 19.000 16.000 19.000 16.610 C 19.000 16.945,19.019 17.285,19.041 17.365 C 19.148 17.750,19.437 17.962,19.896 17.991 C 20.381 18.022,20.699 17.882,20.880 17.558 C 20.976 17.388,20.981 17.345,20.993 16.600 C 21.012 15.489,20.918 15.141,20.465 14.653 C 20.198 14.366,19.870 14.164,19.523 14.073 C 19.189 13.986,17.876 13.975,17.614 14.057 M12.614 19.057 C 12.377 19.131,12.212 19.261,12.109 19.453 C 12.027 19.607,12.019 19.684,12.007 20.409 C 11.993 21.284,12.020 21.494,12.202 21.877 C 12.348 22.186,12.771 22.623,13.070 22.775 C 13.442 22.963,13.672 23.000,14.478 23.000 C 14.886 23.000,15.285 22.981,15.365 22.959 C 15.586 22.898,15.770 22.755,15.880 22.558 C 15.967 22.402,15.980 22.332,15.979 22.000 C 15.978 21.687,15.962 21.591,15.890 21.453 C 15.702 21.098,15.423 21.000,14.598 21.000 L 14.008 21.000 13.993 20.310 C 13.976 19.541,13.930 19.378,13.678 19.199 C 13.414 19.010,12.957 18.950,12.614 19.057 M19.614 19.057 C 19.377 19.131,19.212 19.261,19.109 19.453 C 19.029 19.603,19.019 19.689,19.007 20.310 L 18.993 21.000 18.403 21.000 C 17.577 21.000,17.299 21.097,17.109 21.453 C 17.035 21.592,17.020 21.684,17.020 22.000 C 17.020 22.331,17.033 22.403,17.120 22.558 C 17.230 22.755,17.414 22.898,17.635 22.959 C 17.869 23.024,19.223 23.010,19.492 22.940 C 19.852 22.847,20.118 22.690,20.404 22.404 C 20.913 21.895,21.013 21.559,20.993 20.421 C 20.980 19.687,20.971 19.606,20.890 19.453 C 20.842 19.362,20.746 19.247,20.678 19.199 C 20.414 19.010,19.957 18.950,19.614 19.057 " stroke="none" fill="black" fill-rule="evenodd"></path></svg>