<svg xmlns="http://www.w3.org/2000/svg" width="24" height="24" viewBox="0 0 24 24" fill="none" stroke="currentColor" stroke-width="2" stroke-linecap="round" stroke-linejoin="round" class="icon icon-tabler icons-tabler-outline icon-tabler-currency-rupee"><path d="M6.614 4.057 C 6.223 4.180,6.039 4.436,6.009 4.900 C 5.978 5.381,6.119 5.699,6.442 5.880 L 6.620 5.980 8.580 6.002 C 10.522 6.024,10.543 6.025,10.861 6.123 C 11.640 6.364,12.306 6.926,12.683 7.660 L 12.847 7.980 9.752 8.000 L 6.658 8.020 6.459 8.122 C 6.144 8.284,6.000 8.560,6.000 9.000 C 6.000 9.428,6.144 9.713,6.442 9.880 L 6.620 9.980 9.734 10.000 L 12.847 10.020 12.683 10.340 C 12.308 11.071,11.656 11.623,10.860 11.884 C 10.588 11.973,10.526 11.977,8.619 11.998 L 6.658 12.020 6.459 12.122 C 6.125 12.294,5.975 12.613,6.011 13.068 C 6.024 13.236,6.064 13.373,6.133 13.488 C 6.289 13.752,12.420 19.852,12.637 19.961 C 12.990 20.137,13.354 20.048,13.701 19.701 C 14.048 19.354,14.137 18.990,13.960 18.637 C 13.899 18.514,13.191 17.778,11.652 16.235 L 9.432 14.011 10.066 13.988 C 10.417 13.976,10.834 13.936,11.000 13.900 C 12.218 13.632,13.306 12.932,14.034 11.948 C 14.382 11.476,14.775 10.624,14.861 10.150 L 14.889 10.000 16.554 10.000 C 17.547 10.000,18.278 9.983,18.365 9.959 C 18.586 9.898,18.770 9.755,18.880 9.558 C 18.967 9.402,18.980 9.332,18.979 9.000 C 18.978 8.567,18.898 8.355,18.678 8.199 C 18.415 8.011,18.294 8.000,16.538 8.000 L 14.889 8.000 14.861 7.850 C 14.784 7.429,14.454 6.670,14.155 6.230 L 13.999 6.000 16.110 6.000 C 17.400 6.000,18.276 5.984,18.365 5.959 C 18.586 5.898,18.770 5.755,18.880 5.558 C 18.967 5.402,18.980 5.332,18.979 5.000 C 18.978 4.567,18.898 4.355,18.678 4.199 C 18.389 3.993,18.604 4.000,12.484 4.003 C 7.919 4.005,6.747 4.016,6.614 4.057 " stroke="none" fill="black" fill-rule="evenodd"></path></svg>