<svg xmlns="http://www.w3.org/2000/svg" width="24" height="24" viewBox="0 0 24 24" fill="none" stroke="currentColor" stroke-width="2" stroke-linecap="round" stroke-linejoin="round" class="icon icon-tabler icons-tabler-outline icon-tabler-brand-netbeans"><path d="M11.542 1.044 C 11.206 1.093,10.917 1.183,10.607 1.334 C 10.326 1.471,3.711 5.363,3.400 5.574 C 2.940 5.886,2.556 6.345,2.298 6.892 C 2.004 7.516,2.023 7.205,2.009 11.720 C 1.999 15.327,2.005 15.816,2.062 16.100 C 2.197 16.773,2.552 17.405,3.043 17.852 C 3.266 18.054,4.217 18.675,6.849 20.339 C 8.779 21.559,10.434 22.596,10.527 22.644 C 11.438 23.109,12.561 23.109,13.471 22.645 C 13.630 22.564,20.226 18.402,20.600 18.147 C 21.088 17.814,21.516 17.281,21.752 16.712 C 22.005 16.102,22.000 16.202,22.000 11.844 C 22.000 7.576,22.004 7.665,21.787 7.068 C 21.605 6.567,21.270 6.102,20.812 5.713 C 20.635 5.563,19.382 4.802,17.082 3.447 C 15.178 2.326,13.548 1.372,13.460 1.329 C 12.903 1.057,12.187 0.950,11.542 1.044 M15.920 5.079 C 17.427 5.966,18.682 6.712,18.709 6.736 C 18.747 6.770,18.419 6.985,17.343 7.631 C 16.564 8.098,15.914 8.480,15.898 8.480 C 15.882 8.480,15.224 8.098,14.436 7.630 L 13.002 6.780 13.001 5.065 L 13.000 3.351 13.090 3.409 C 13.139 3.441,14.413 4.193,15.920 5.079 M11.000 5.095 L 11.000 6.790 9.579 7.635 C 8.798 8.100,8.136 8.479,8.109 8.478 C 8.045 8.476,5.300 6.824,5.300 6.787 C 5.300 6.766,10.933 3.415,10.990 3.402 C 10.995 3.401,11.000 4.163,11.000 5.095 M19.986 15.107 C 19.978 15.115,19.303 14.739,18.486 14.272 L 17.000 13.423 17.000 11.794 L 17.000 10.164 18.490 9.270 L 19.980 8.376 19.990 11.734 C 19.996 13.581,19.994 15.099,19.986 15.107 M5.523 9.286 L 7.000 10.171 7.000 11.798 L 7.000 13.424 5.534 14.262 C 4.728 14.723,4.053 15.106,4.034 15.113 C 4.015 15.121,4.000 13.613,4.000 11.763 C 4.000 9.913,4.010 8.400,4.023 8.400 C 4.036 8.400,4.711 8.799,5.523 9.286 M12.979 9.087 C 13.729 9.536,13.913 9.663,13.872 9.701 C 13.843 9.727,13.410 9.994,12.910 10.293 L 12.000 10.837 11.090 10.293 C 10.590 9.994,10.158 9.729,10.132 9.704 C 10.096 9.671,10.320 9.519,11.032 9.092 C 11.553 8.780,11.992 8.523,12.007 8.522 C 12.021 8.521,12.459 8.775,12.979 9.087 M14.999 12.470 L 14.998 13.580 14.115 14.140 C 13.629 14.448,13.180 14.733,13.116 14.774 L 13.000 14.848 13.000 13.706 L 13.000 12.565 13.990 11.966 C 14.535 11.636,14.985 11.365,14.990 11.363 C 14.995 11.361,14.999 11.860,14.999 12.470 M10.023 11.986 L 11.000 12.571 11.000 13.710 L 11.000 14.848 10.884 14.774 C 10.820 14.733,10.371 14.448,9.885 14.140 L 9.002 13.580 9.001 12.490 C 9.001 11.890,9.010 11.400,9.023 11.400 C 9.036 11.400,9.486 11.664,10.023 11.986 M9.447 16.230 L 11.000 17.220 11.000 18.908 L 11.000 20.597 10.386 20.208 C 10.048 19.995,8.717 19.154,7.427 18.340 C 6.138 17.526,5.082 16.851,5.082 16.840 C 5.081 16.815,7.805 15.249,7.858 15.244 C 7.878 15.242,8.594 15.685,9.447 16.230 M17.553 16.040 C 18.305 16.469,18.919 16.829,18.918 16.840 C 18.918 16.851,17.862 17.526,16.572 18.340 C 15.283 19.154,13.951 19.995,13.614 20.208 L 13.000 20.597 13.000 18.908 L 13.000 17.220 14.550 16.230 C 15.403 15.686,16.120 15.245,16.144 15.250 C 16.167 15.256,16.802 15.611,17.553 16.040 " stroke="none" fill="black" fill-rule="evenodd"></path></svg>