<svg xmlns="http://www.w3.org/2000/svg" width="24" height="24" viewBox="0 0 24 24" fill="none" stroke="currentColor" stroke-width="2" stroke-linecap="round" stroke-linejoin="round" class="icon icon-tabler icons-tabler-outline icon-tabler-shopping-cart"><path d="M3.614 2.057 C 3.377 2.131,3.212 2.261,3.109 2.453 C 3.035 2.592,3.020 2.684,3.020 3.000 C 3.020 3.331,3.033 3.403,3.120 3.558 C 3.230 3.755,3.414 3.898,3.635 3.959 C 3.715 3.981,4.054 4.000,4.390 4.000 L 5.000 4.000 5.000 10.073 L 5.000 16.145 4.670 16.313 C 3.922 16.693,3.365 17.355,3.114 18.160 C 2.979 18.594,2.979 19.406,3.114 19.840 C 3.421 20.826,4.174 21.579,5.160 21.886 C 5.594 22.021,6.406 22.021,6.840 21.886 C 7.826 21.579,8.579 20.826,8.886 19.840 C 9.032 19.372,9.015 18.479,8.854 18.057 C 8.834 18.008,9.196 18.000,11.500 18.000 C 13.804 18.000,14.166 18.008,14.146 18.057 C 14.052 18.303,14.023 18.524,14.022 19.000 C 14.021 19.456,14.035 19.587,14.114 19.840 C 14.421 20.826,15.174 21.579,16.160 21.886 C 16.412 21.964,16.547 21.979,17.000 21.979 C 17.453 21.979,17.588 21.964,17.840 21.886 C 18.826 21.579,19.579 20.826,19.886 19.840 C 20.021 19.406,20.021 18.594,19.886 18.160 C 19.582 17.183,18.832 16.428,17.861 16.121 L 17.540 16.020 12.270 16.009 L 7.000 15.998 7.000 15.000 L 7.000 14.001 13.170 13.990 L 19.340 13.980 19.505 13.892 C 19.727 13.773,19.867 13.597,19.938 13.347 C 19.970 13.233,20.224 11.547,20.502 9.600 C 21.035 5.866,21.046 5.752,20.890 5.450 C 20.786 5.247,20.535 5.085,20.251 5.037 C 20.070 5.007,7.306 4.080,7.067 4.080 C 7.017 4.080,7.005 3.960,6.993 3.350 C 6.979 2.691,6.969 2.604,6.890 2.453 C 6.786 2.256,6.622 2.131,6.371 2.055 C 6.117 1.979,3.859 1.981,3.614 2.057 M12.930 6.501 C 16.167 6.732,18.823 6.929,18.832 6.939 C 18.848 6.954,18.186 11.698,18.139 11.910 L 18.118 12.000 12.559 12.000 L 7.000 12.000 7.000 9.040 C 7.000 7.412,7.010 6.080,7.023 6.080 C 7.036 6.080,9.694 6.269,12.930 6.501 M6.310 18.061 C 6.688 18.173,7.000 18.598,7.000 19.001 C 7.000 19.331,6.784 19.696,6.484 19.872 C 6.328 19.963,6.254 19.980,6.000 19.980 C 5.746 19.980,5.672 19.963,5.516 19.872 C 4.935 19.530,4.833 18.774,5.304 18.303 C 5.583 18.024,5.916 17.944,6.310 18.061 M17.310 18.061 C 17.688 18.173,18.000 18.598,18.000 19.001 C 18.000 19.331,17.784 19.696,17.484 19.872 C 17.328 19.963,17.254 19.980,17.000 19.980 C 16.746 19.980,16.672 19.963,16.516 19.872 C 15.932 19.528,15.831 18.775,16.307 18.299 C 16.582 18.024,16.918 17.944,17.310 18.061 " stroke="none" fill="black" fill-rule="evenodd"></path></svg>