<svg xmlns="http://www.w3.org/2000/svg" width="24" height="24" viewBox="0 0 24 24" fill="none" stroke="currentColor" stroke-width="2" stroke-linecap="round" stroke-linejoin="round" class="icon icon-tabler icons-tabler-outline icon-tabler-world-x"><path d="M11.159 2.008 C 11.113 2.025,10.833 2.075,10.536 2.119 C 8.633 2.402,6.936 3.181,5.459 4.451 C 3.608 6.042,2.420 8.256,2.074 10.760 C 1.995 11.333,2.005 12.793,2.092 13.360 C 2.311 14.786,2.799 16.140,3.489 17.239 C 5.134 19.857,7.676 21.494,10.760 21.921 C 10.925 21.944,11.114 21.982,11.180 22.005 C 11.265 22.035,11.463 22.036,11.852 22.007 C 12.508 21.958,12.685 21.882,12.869 21.569 C 12.969 21.398,12.980 21.343,12.980 21.000 C 12.980 20.658,12.969 20.601,12.870 20.433 C 12.739 20.211,12.563 20.093,12.267 20.031 L 12.048 19.985 11.728 19.363 C 11.210 18.355,10.911 17.621,10.597 16.580 C 10.511 16.294,10.440 16.047,10.440 16.030 C 10.440 16.014,11.175 16.000,12.073 16.000 C 13.893 16.000,14.000 15.988,14.229 15.751 C 14.299 15.679,14.385 15.550,14.421 15.464 C 14.505 15.264,14.508 14.745,14.427 14.552 L 14.369 14.411 14.570 14.487 C 14.825 14.584,15.244 14.590,15.472 14.499 C 15.693 14.410,15.864 14.208,15.937 13.950 C 16.016 13.672,16.080 12.813,16.080 12.035 C 16.080 11.429,16.020 10.275,15.979 10.090 L 15.958 10.000 17.855 10.000 L 19.752 10.000 19.815 10.290 C 19.986 11.076,20.032 11.835,19.960 12.696 C 19.899 13.440,19.929 13.609,20.166 13.846 C 20.411 14.091,20.998 14.206,21.375 14.082 C 21.566 14.019,21.783 13.766,21.855 13.523 C 22.015 12.985,22.038 11.512,21.901 10.602 C 21.436 7.524,19.685 4.923,17.027 3.365 C 15.971 2.746,14.678 2.290,13.500 2.122 C 13.324 2.097,13.081 2.056,12.960 2.031 C 12.712 1.979,11.286 1.961,11.159 2.008 M12.291 4.670 C 12.826 5.710,13.325 7.002,13.535 7.890 L 13.562 8.000 12.001 8.000 C 11.142 8.000,10.440 7.987,10.440 7.970 C 10.440 7.909,10.759 6.887,10.896 6.508 C 11.169 5.754,11.918 4.160,12.000 4.160 C 12.016 4.160,12.147 4.389,12.291 4.670 M9.357 4.964 C 9.060 5.666,8.687 6.760,8.507 7.460 L 8.373 7.980 6.722 7.990 L 5.071 8.001 5.166 7.841 C 5.848 6.687,7.029 5.583,8.286 4.922 C 8.691 4.709,9.559 4.346,9.590 4.376 C 9.596 4.382,9.491 4.647,9.357 4.964 M15.347 4.741 C 16.737 5.388,17.876 6.370,18.688 7.620 L 18.922 7.980 17.293 7.990 C 16.398 7.996,15.653 7.987,15.638 7.970 C 15.623 7.954,15.570 7.769,15.520 7.560 C 15.380 6.972,14.917 5.602,14.645 4.969 C 14.510 4.656,14.400 4.391,14.400 4.380 C 14.400 4.348,14.966 4.563,15.347 4.741 M8.021 10.090 C 7.981 10.271,7.920 11.422,7.920 12.000 C 7.920 12.578,7.981 13.729,8.021 13.910 L 8.042 14.000 6.147 14.000 L 4.253 14.000 4.206 13.790 C 3.949 12.637,3.942 11.452,4.183 10.329 L 4.254 10.000 6.148 10.000 L 8.042 10.000 8.021 10.090 M13.973 10.170 C 14.060 10.797,14.091 11.981,14.043 12.866 C 14.004 13.589,14.003 13.828,14.040 13.941 C 14.066 14.020,14.081 14.092,14.072 14.101 C 14.064 14.109,13.986 14.091,13.898 14.060 C 13.771 14.015,13.378 14.003,11.895 14.002 L 10.050 14.000 10.027 13.810 C 9.938 13.082,9.907 11.960,9.954 11.190 C 9.982 10.745,10.014 10.295,10.027 10.190 L 10.050 10.000 12.000 10.000 L 13.949 10.000 13.973 10.170 M16.626 16.045 C 16.257 16.239,15.951 16.673,15.951 17.000 C 15.951 17.323,16.068 17.478,17.103 18.520 L 18.077 19.500 17.103 20.480 C 16.068 21.522,15.951 21.677,15.951 22.000 C 15.951 22.477,16.523 23.049,17.000 23.049 C 17.323 23.049,17.478 22.932,18.520 21.897 L 19.500 20.923 20.480 21.897 C 21.522 22.932,21.677 23.049,22.000 23.049 C 22.477 23.049,23.049 22.477,23.049 22.000 C 23.049 21.677,22.932 21.522,21.897 20.480 L 20.923 19.500 21.897 18.520 C 22.518 17.895,22.903 17.476,22.960 17.363 C 23.137 17.011,23.048 16.646,22.701 16.299 C 22.360 15.958,21.979 15.868,21.628 16.045 C 21.527 16.096,21.072 16.515,20.480 17.103 L 19.500 18.077 18.520 17.103 C 17.927 16.514,17.474 16.096,17.372 16.045 C 17.152 15.934,16.835 15.934,16.626 16.045 M8.507 16.540 C 8.687 17.240,9.060 18.333,9.357 19.036 C 9.490 19.352,9.600 19.617,9.600 19.623 C 9.600 19.660,8.952 19.405,8.540 19.206 C 7.656 18.778,7.063 18.350,6.318 17.603 C 5.827 17.111,5.474 16.667,5.163 16.150 L 5.073 15.999 6.723 16.010 L 8.373 16.020 8.507 16.540 " stroke="none" fill="black" fill-rule="evenodd"></path></svg>