<svg xmlns="http://www.w3.org/2000/svg" width="24" height="24" viewBox="0 0 24 24" fill="none" stroke="currentColor" stroke-width="2" stroke-linecap="round" stroke-linejoin="round" class="icon icon-tabler icons-tabler-outline icon-tabler-device-airpods"><path d="M5.400 3.044 C 3.761 3.229,2.261 4.290,1.526 5.785 C 1.158 6.533,1.020 7.136,1.020 8.000 C 1.020 8.675,1.063 8.970,1.247 9.540 C 1.647 10.788,2.587 11.885,3.746 12.456 C 4.374 12.766,5.009 12.942,5.669 12.988 L 5.997 13.012 6.009 16.016 L 6.020 19.020 6.131 19.320 C 6.396 20.041,6.961 20.606,7.680 20.867 C 7.949 20.965,8.034 20.976,8.500 20.976 C 8.966 20.976,9.051 20.965,9.320 20.867 C 10.039 20.606,10.604 20.041,10.869 19.320 L 10.980 19.020 10.980 13.200 C 10.980 8.611,10.969 7.325,10.928 7.120 C 10.404 4.478,8.054 2.745,5.400 3.044 M17.300 3.059 C 15.408 3.324,13.814 4.665,13.246 6.468 C 13.009 7.223,13.020 6.893,13.020 13.200 L 13.020 19.020 13.131 19.320 C 13.396 20.041,13.961 20.606,14.680 20.867 C 14.949 20.965,15.034 20.976,15.500 20.976 C 15.966 20.976,16.051 20.965,16.320 20.867 C 17.039 20.606,17.604 20.041,17.869 19.320 L 17.980 19.020 17.991 16.016 L 18.003 13.012 18.331 12.988 C 20.610 12.827,22.476 11.166,22.925 8.900 C 23.007 8.482,22.998 7.463,22.907 7.040 C 22.576 5.491,21.600 4.219,20.213 3.525 C 19.319 3.079,18.312 2.917,17.300 3.059 M6.780 5.099 C 7.566 5.303,8.319 5.921,8.682 6.660 C 9.003 7.313,8.978 6.791,8.990 13.030 C 9.001 18.031,8.995 18.613,8.939 18.722 C 8.861 18.872,8.660 19.000,8.500 19.000 C 8.355 19.000,8.144 18.878,8.073 18.752 C 8.031 18.679,8.016 17.945,8.000 15.140 L 7.980 11.620 7.891 11.453 C 7.799 11.282,7.657 11.158,7.455 11.074 C 7.384 11.044,6.974 11.015,6.380 10.998 C 5.543 10.974,5.384 10.959,5.140 10.881 C 4.753 10.757,4.508 10.628,4.173 10.374 C 3.659 9.984,3.257 9.384,3.091 8.760 C 2.983 8.351,2.999 7.553,3.125 7.139 C 3.455 6.055,4.371 5.245,5.499 5.040 C 5.775 4.990,6.489 5.023,6.780 5.099 M18.861 5.129 C 19.804 5.405,20.585 6.184,20.875 7.139 C 21.001 7.553,21.017 8.351,20.909 8.760 C 20.645 9.756,19.871 10.556,18.860 10.881 C 18.614 10.960,18.463 10.974,17.619 10.995 C 16.690 11.019,16.651 11.023,16.459 11.122 C 16.245 11.233,16.105 11.404,16.041 11.635 C 16.015 11.727,16.000 13.033,16.000 15.200 C 16.000 18.521,15.997 18.624,15.922 18.748 C 15.774 18.991,15.487 19.065,15.252 18.922 C 14.979 18.755,14.997 19.192,15.010 13.030 C 15.022 6.790,14.997 7.313,15.319 6.660 C 15.644 5.999,16.280 5.425,16.962 5.177 C 17.506 4.980,18.282 4.960,18.861 5.129 " stroke="none" fill="black" fill-rule="evenodd"></path></svg>