<svg xmlns="http://www.w3.org/2000/svg" width="24" height="24" viewBox="0 0 24 24" fill="none" stroke="currentColor" stroke-width="2" stroke-linecap="round" stroke-linejoin="round" class="icon icon-tabler icons-tabler-outline icon-tabler-math-x-plus-y"><path d="M1.626 8.045 C 1.257 8.239,0.951 8.673,0.951 9.000 C 0.951 9.333,1.056 9.467,2.353 10.770 L 3.577 12.000 2.353 13.230 C 1.056 14.533,0.951 14.667,0.951 15.000 C 0.951 15.477,1.523 16.049,2.000 16.049 C 2.333 16.049,2.467 15.944,3.770 14.647 L 5.000 13.423 6.230 14.647 C 7.533 15.944,7.667 16.049,8.000 16.049 C 8.477 16.049,9.049 15.477,9.049 15.000 C 9.049 14.667,8.944 14.533,7.647 13.230 L 6.423 12.000 7.647 10.770 C 8.452 9.961,8.901 9.479,8.960 9.363 C 9.137 9.011,9.048 8.646,8.701 8.299 C 8.361 7.958,7.980 7.868,7.628 8.045 C 7.523 8.098,6.999 8.588,6.230 9.353 L 5.000 10.577 3.770 9.353 C 3.001 8.588,2.477 8.098,2.372 8.045 C 2.152 7.934,1.835 7.934,1.626 8.045 M15.692 8.044 C 15.446 8.139,15.091 8.445,15.014 8.628 C 14.939 8.807,14.946 9.044,15.033 9.270 C 15.073 9.374,15.709 10.477,16.446 11.720 C 17.183 12.963,17.836 14.065,17.896 14.169 L 18.007 14.358 17.141 15.980 C 16.665 16.872,16.250 17.675,16.218 17.766 C 16.083 18.148,16.194 18.500,16.524 18.743 C 17.082 19.153,17.624 19.127,17.945 18.677 C 18.101 18.458,22.865 9.532,22.967 9.270 C 23.121 8.868,23.018 8.508,22.676 8.257 C 22.143 7.865,21.601 7.872,21.287 8.273 C 21.224 8.354,20.717 9.275,20.161 10.320 C 19.605 11.365,19.139 12.232,19.125 12.246 C 19.111 12.261,18.579 11.393,17.943 10.318 C 17.264 9.170,16.727 8.306,16.643 8.226 C 16.352 7.947,16.080 7.895,15.692 8.044 M11.614 9.057 C 11.377 9.131,11.212 9.261,11.109 9.453 C 11.029 9.603,11.019 9.689,11.007 10.310 L 10.993 11.000 10.403 11.000 C 9.577 11.000,9.299 11.097,9.109 11.453 C 9.035 11.592,9.020 11.684,9.020 12.000 C 9.020 12.331,9.033 12.403,9.120 12.558 C 9.230 12.755,9.414 12.898,9.635 12.959 C 9.715 12.981,10.055 13.000,10.390 13.000 L 11.000 13.000 11.000 13.610 C 11.000 13.945,11.019 14.285,11.041 14.365 C 11.148 14.750,11.437 14.962,11.896 14.991 C 12.381 15.022,12.699 14.882,12.880 14.558 C 12.974 14.391,12.981 14.338,12.994 13.690 L 13.008 13.000 13.614 13.000 C 13.947 13.000,14.285 12.981,14.365 12.959 C 14.586 12.898,14.770 12.755,14.880 12.558 C 14.967 12.402,14.980 12.332,14.979 12.000 C 14.978 11.687,14.962 11.591,14.890 11.453 C 14.702 11.098,14.423 11.000,13.598 11.000 L 13.008 11.000 12.993 10.310 C 12.976 9.541,12.930 9.378,12.678 9.199 C 12.414 9.010,11.957 8.950,11.614 9.057 " stroke="none" fill="black" fill-rule="evenodd"></path></svg>