<svg xmlns="http://www.w3.org/2000/svg" width="24" height="24" viewBox="0 0 24 24" fill="none" stroke="currentColor" stroke-width="2" stroke-linecap="round" stroke-linejoin="round" class="icon icon-tabler icons-tabler-outline icon-tabler-message-2-dollar"><path d="M5.358 3.061 C 3.731 3.315,2.417 4.584,2.083 6.227 C 2.002 6.622,2.000 6.744,2.000 11.000 C 2.000 15.256,2.002 15.378,2.083 15.773 C 2.357 17.118,3.249 18.195,4.512 18.704 C 5.168 18.968,5.447 19.000,7.105 19.000 L 8.578 19.000 10.019 20.435 C 10.984 21.397,11.519 21.900,11.637 21.960 C 11.869 22.076,12.132 22.076,12.363 21.960 C 12.582 21.849,14.229 20.227,14.412 19.941 C 14.520 19.773,14.540 19.704,14.540 19.497 C 14.540 19.282,14.522 19.226,14.390 19.027 C 14.138 18.648,13.698 18.394,13.397 18.455 C 13.142 18.506,12.967 18.629,12.489 19.095 L 11.999 19.575 10.769 18.352 C 9.610 17.199,9.528 17.125,9.323 17.064 C 9.138 17.010,8.852 17.000,7.421 17.000 C 5.605 17.000,5.494 16.990,5.083 16.781 C 4.816 16.646,4.449 16.297,4.281 16.017 C 3.993 15.539,4.005 15.751,4.005 11.000 C 4.005 7.102,4.010 6.718,4.073 6.477 C 4.201 5.988,4.543 5.546,5.014 5.265 C 5.479 4.986,5.109 5.000,12.028 5.002 C 18.979 5.005,18.529 4.987,19.017 5.281 C 19.294 5.448,19.618 5.787,19.772 6.071 C 19.984 6.462,19.999 6.640,19.999 8.763 C 20.000 10.921,20.008 10.995,20.249 11.229 C 20.442 11.416,20.647 11.487,20.997 11.488 C 21.348 11.490,21.556 11.418,21.751 11.229 C 21.994 10.994,22.000 10.930,22.000 8.669 C 22.000 6.386,21.983 6.204,21.705 5.516 C 21.172 4.197,20.001 3.269,18.605 3.058 C 18.059 2.976,5.887 2.979,5.358 3.061 M7.614 8.057 C 7.377 8.131,7.212 8.261,7.109 8.453 C 7.035 8.592,7.020 8.684,7.020 9.000 C 7.020 9.331,7.033 9.403,7.120 9.558 C 7.230 9.755,7.414 9.898,7.635 9.959 C 7.833 10.014,16.167 10.014,16.365 9.959 C 16.586 9.898,16.770 9.755,16.880 9.558 C 16.967 9.402,16.980 9.332,16.979 9.000 C 16.978 8.567,16.898 8.355,16.678 8.199 C 16.393 7.996,16.487 8.000,11.984 8.003 C 8.651 8.005,7.746 8.016,7.614 8.057 M7.614 12.057 C 7.377 12.131,7.212 12.261,7.109 12.453 C 7.035 12.592,7.020 12.684,7.020 13.000 C 7.020 13.331,7.033 13.403,7.120 13.558 C 7.230 13.755,7.414 13.898,7.635 13.959 C 7.832 14.014,14.168 14.014,14.365 13.959 C 14.586 13.898,14.770 13.755,14.880 13.558 C 14.967 13.402,14.980 13.332,14.979 13.000 C 14.978 12.567,14.898 12.355,14.678 12.199 C 14.398 11.999,14.411 12.000,10.984 12.003 C 8.472 12.005,7.744 12.017,7.614 12.057 M18.614 13.057 C 18.250 13.171,18.061 13.411,18.008 13.826 L 17.980 14.049 17.759 14.118 C 17.003 14.351,16.361 14.979,16.118 15.722 C 16.034 15.976,16.020 16.094,16.022 16.520 C 16.024 16.960,16.038 17.056,16.133 17.320 C 16.394 18.039,16.964 18.609,17.680 18.867 C 17.961 18.968,18.033 18.976,18.800 18.992 C 19.702 19.010,19.786 19.030,19.922 19.252 C 20.021 19.415,20.021 19.585,19.922 19.748 C 19.770 19.997,19.750 20.000,18.208 20.000 C 16.724 20.000,16.580 20.015,16.322 20.199 C 16.100 20.357,16.020 20.568,16.020 21.000 C 16.020 21.331,16.033 21.403,16.120 21.558 C 16.230 21.755,16.414 21.898,16.635 21.959 C 16.715 21.981,17.052 22.000,17.384 22.000 L 17.989 22.000 18.013 22.203 C 18.074 22.715,18.426 23.000,19.000 23.000 C 19.582 23.000,19.923 22.720,19.984 22.193 L 20.010 21.966 20.294 21.873 C 21.001 21.642,21.605 21.046,21.868 20.320 C 21.965 20.052,21.976 19.965,21.976 19.500 C 21.976 19.035,21.965 18.948,21.868 18.680 C 21.646 18.068,21.195 17.561,20.620 17.277 C 20.172 17.055,19.869 17.002,19.068 17.001 C 18.319 17.000,18.216 16.974,18.078 16.748 C 17.979 16.585,17.979 16.415,18.078 16.252 C 18.230 16.003,18.249 16.000,19.808 16.000 C 20.630 16.000,21.280 15.983,21.365 15.959 C 21.586 15.898,21.770 15.755,21.880 15.558 C 21.967 15.402,21.980 15.332,21.979 15.000 C 21.978 14.687,21.962 14.591,21.890 14.453 C 21.702 14.098,21.423 14.000,20.599 14.000 L 20.010 14.000 19.983 13.794 C 19.948 13.531,19.835 13.310,19.678 13.199 C 19.414 13.010,18.957 12.950,18.614 13.057 " stroke="none" fill="black" fill-rule="evenodd"></path></svg>