<svg xmlns="http://www.w3.org/2000/svg" width="24" height="24" viewBox="0 0 24 24" fill="none" stroke="currentColor" stroke-width="2" stroke-linecap="round" stroke-linejoin="round" class="icon icon-tabler icons-tabler-outline icon-tabler-users"><path d="M8.400 2.044 C 6.761 2.229,5.261 3.290,4.526 4.785 C 4.158 5.533,4.020 6.136,4.020 7.000 C 4.020 7.670,4.078 8.044,4.268 8.600 C 4.846 10.291,6.253 11.525,8.040 11.907 C 8.511 12.008,9.489 12.008,9.960 11.907 C 11.488 11.580,12.748 10.630,13.433 9.288 C 13.838 8.494,13.980 7.899,13.980 7.000 C 13.980 6.101,13.838 5.506,13.433 4.713 C 12.794 3.461,11.604 2.510,10.240 2.162 C 9.669 2.016,9.019 1.974,8.400 2.044 M15.569 2.168 C 15.265 2.271,15.001 2.755,14.993 3.222 C 14.989 3.426,15.008 3.507,15.094 3.653 C 15.226 3.879,15.371 3.969,15.882 4.141 C 16.106 4.216,16.373 4.326,16.475 4.385 C 17.149 4.775,17.656 5.413,17.886 6.160 C 17.962 6.407,17.979 6.551,17.979 6.980 C 17.980 7.595,17.934 7.811,17.699 8.300 C 17.317 9.095,16.727 9.595,15.816 9.896 C 15.197 10.100,14.985 10.327,14.993 10.776 C 15.001 11.247,15.185 11.629,15.484 11.797 C 15.730 11.936,16.049 11.920,16.573 11.745 C 17.329 11.492,17.949 11.120,18.477 10.602 C 19.522 9.578,20.044 8.273,19.989 6.825 C 19.966 6.222,19.902 5.855,19.734 5.366 C 19.335 4.200,18.395 3.120,17.301 2.570 C 16.582 2.208,15.909 2.052,15.569 2.168 M9.861 4.129 C 10.804 4.405,11.584 5.183,11.875 6.139 C 11.958 6.412,11.973 6.542,11.973 7.000 C 11.973 7.458,11.958 7.588,11.875 7.861 C 11.582 8.822,10.819 9.581,9.840 9.886 C 9.406 10.021,8.594 10.021,8.160 9.886 C 7.181 9.581,6.418 8.822,6.125 7.861 C 6.042 7.588,6.027 7.458,6.027 7.000 C 6.027 6.542,6.042 6.412,6.125 6.139 C 6.456 5.054,7.371 4.245,8.499 4.040 C 8.832 3.980,9.500 4.023,9.861 4.129 M6.400 14.044 C 4.761 14.229,3.261 15.290,2.526 16.785 C 2.344 17.154,2.194 17.581,2.097 18.000 C 2.041 18.245,2.025 18.563,2.011 19.744 C 2.000 20.701,2.008 21.243,2.037 21.348 C 2.144 21.748,2.430 21.961,2.896 21.991 C 3.381 22.022,3.699 21.882,3.880 21.558 L 3.980 21.380 4.003 19.920 C 4.026 18.520,4.031 18.447,4.125 18.139 C 4.420 17.173,5.215 16.388,6.178 16.112 C 6.499 16.020,6.510 16.020,9.000 16.020 C 11.490 16.020,11.501 16.020,11.822 16.112 C 12.785 16.388,13.580 17.173,13.876 18.139 C 13.970 18.447,13.975 18.518,13.997 19.920 L 14.020 21.380 14.120 21.558 C 14.287 21.856,14.572 22.000,15.000 22.000 C 15.428 22.000,15.713 21.856,15.880 21.558 L 15.980 21.380 15.980 19.880 C 15.980 18.581,15.970 18.335,15.907 18.040 C 15.625 16.721,14.863 15.576,13.800 14.874 C 13.046 14.375,12.396 14.135,11.552 14.043 C 11.092 13.992,6.849 13.994,6.400 14.044 M17.700 14.157 C 17.268 14.263,17.002 14.671,16.995 15.240 C 16.990 15.718,17.216 15.965,17.815 16.138 C 18.628 16.372,19.310 16.942,19.682 17.700 C 19.960 18.266,19.970 18.335,19.996 19.940 L 20.020 21.380 20.120 21.558 C 20.287 21.856,20.572 22.000,21.000 22.000 C 21.428 22.000,21.713 21.856,21.880 21.558 L 21.980 21.380 21.980 19.880 C 21.980 18.238,21.965 18.094,21.722 17.379 C 21.408 16.455,20.711 15.523,19.916 14.962 C 19.178 14.441,18.118 14.056,17.700 14.157 " stroke="none" fill="black" fill-rule="evenodd"></path></svg>