<svg xmlns="http://www.w3.org/2000/svg" width="24" height="24" viewBox="0 0 24 24" fill="none" stroke="currentColor" stroke-width="2" stroke-linecap="round" stroke-linejoin="round" class="icon icon-tabler icons-tabler-outline icon-tabler-time-duration-5"><path d="M11.649 2.036 C 11.263 2.137,11.039 2.438,11.009 2.900 C 10.978 3.377,11.119 3.701,11.433 3.874 C 11.578 3.954,11.691 3.973,12.192 4.004 C 13.643 4.093,14.443 4.299,15.638 4.890 C 16.398 5.267,16.618 5.314,16.910 5.165 C 17.172 5.032,17.421 4.687,17.519 4.325 C 17.632 3.902,17.414 3.572,16.799 3.234 C 15.727 2.646,14.444 2.230,13.253 2.083 C 12.782 2.025,11.803 1.997,11.649 2.036 M7.080 3.266 C 6.695 3.398,6.509 3.704,6.509 4.207 C 6.509 4.628,6.641 4.910,6.913 5.070 C 7.083 5.170,7.136 5.180,7.500 5.180 C 7.864 5.180,7.917 5.170,8.087 5.070 C 8.361 4.909,8.490 4.629,8.488 4.203 C 8.487 3.844,8.403 3.607,8.215 3.434 C 7.976 3.214,7.455 3.137,7.080 3.266 M3.745 6.579 C 3.371 6.712,3.173 7.090,3.209 7.603 C 3.247 8.127,3.476 8.399,3.954 8.488 C 4.454 8.581,4.914 8.403,5.084 8.051 C 5.202 7.807,5.229 7.400,5.145 7.112 C 5.070 6.852,4.855 6.630,4.613 6.563 C 4.400 6.504,3.931 6.513,3.745 6.579 M19.345 6.579 C 18.971 6.712,18.773 7.090,18.809 7.603 C 18.847 8.127,19.076 8.399,19.554 8.488 C 20.054 8.581,20.514 8.403,20.684 8.051 C 20.802 7.807,20.829 7.400,20.745 7.112 C 20.670 6.852,20.455 6.630,20.213 6.563 C 20.000 6.504,19.531 6.513,19.345 6.579 M9.614 8.057 C 9.377 8.131,9.212 8.261,9.109 8.453 C 9.021 8.618,9.020 8.647,9.008 10.410 C 9.001 11.557,9.012 12.255,9.038 12.354 C 9.100 12.583,9.242 12.768,9.442 12.880 C 9.619 12.980,9.626 12.980,10.900 13.000 C 12.036 13.018,12.192 13.028,12.284 13.091 C 12.574 13.288,12.540 13.786,12.226 13.935 C 12.108 13.990,11.920 14.000,10.950 14.000 C 9.741 14.000,9.572 14.021,9.322 14.199 C 9.100 14.357,9.020 14.568,9.020 15.000 C 9.020 15.331,9.033 15.403,9.120 15.558 C 9.230 15.755,9.414 15.898,9.635 15.959 C 9.874 16.026,12.205 16.010,12.540 15.940 C 13.015 15.840,13.373 15.636,13.761 15.244 C 14.279 14.720,14.490 14.215,14.490 13.500 C 14.490 12.782,14.278 12.276,13.761 11.759 C 13.164 11.163,12.832 11.039,11.750 11.010 L 11.000 10.990 11.000 10.495 L 11.000 10.000 12.353 10.000 C 13.867 10.000,14.006 9.982,14.229 9.751 C 14.418 9.556,14.486 9.355,14.486 8.997 C 14.486 8.491,14.303 8.196,13.909 8.064 C 13.743 8.009,13.450 8.000,11.749 8.003 C 10.251 8.005,9.740 8.018,9.614 8.057 M2.614 11.057 C 2.221 11.180,2.039 11.435,2.009 11.906 C 1.962 12.621,2.306 13.000,3.000 13.000 C 3.698 13.000,4.043 12.616,3.989 11.900 C 3.963 11.563,3.859 11.327,3.678 11.199 C 3.414 11.010,2.957 10.950,2.614 11.057 M20.614 11.057 C 20.221 11.180,20.039 11.435,20.009 11.906 C 19.962 12.621,20.306 13.000,21.000 13.000 C 21.698 13.000,22.043 12.616,21.989 11.900 C 21.963 11.563,21.859 11.327,21.678 11.199 C 21.414 11.010,20.957 10.950,20.614 11.057 M3.745 15.579 C 3.371 15.712,3.173 16.090,3.209 16.603 C 3.247 17.127,3.476 17.399,3.954 17.488 C 4.454 17.581,4.914 17.403,5.084 17.051 C 5.202 16.807,5.229 16.400,5.145 16.112 C 5.070 15.852,4.855 15.630,4.613 15.563 C 4.400 15.504,3.931 15.513,3.745 15.579 M19.345 15.579 C 18.971 15.712,18.773 16.090,18.809 16.603 C 18.847 17.127,19.076 17.399,19.554 17.488 C 20.054 17.581,20.514 17.403,20.684 17.051 C 20.802 16.807,20.829 16.400,20.745 16.112 C 20.670 15.852,20.455 15.630,20.213 15.563 C 20.000 15.504,19.531 15.513,19.345 15.579 M7.080 18.866 C 6.695 18.998,6.509 19.304,6.509 19.807 C 6.509 20.228,6.641 20.510,6.913 20.670 C 7.083 20.770,7.136 20.780,7.500 20.780 C 7.864 20.780,7.917 20.770,8.087 20.670 C 8.361 20.509,8.490 20.229,8.488 19.803 C 8.487 19.444,8.403 19.207,8.215 19.034 C 7.976 18.814,7.455 18.737,7.080 18.866 M16.080 18.866 C 15.695 18.998,15.509 19.304,15.509 19.807 C 15.509 20.228,15.641 20.510,15.913 20.670 C 16.083 20.770,16.136 20.780,16.500 20.780 C 16.864 20.780,16.917 20.770,17.087 20.670 C 17.361 20.509,17.490 20.229,17.488 19.803 C 17.487 19.444,17.403 19.207,17.215 19.034 C 16.976 18.814,16.455 18.737,16.080 18.866 M11.614 20.057 C 11.221 20.180,11.039 20.435,11.009 20.906 C 10.962 21.621,11.306 22.000,12.000 22.000 C 12.698 22.000,13.043 21.616,12.989 20.900 C 12.963 20.563,12.859 20.327,12.678 20.199 C 12.414 20.010,11.957 19.950,11.614 20.057 " stroke="none" fill="black" fill-rule="evenodd"></path></svg>