<svg xmlns="http://www.w3.org/2000/svg" width="24" height="24" viewBox="0 0 24 24" fill="none" stroke="currentColor" stroke-width="2" stroke-linecap="round" stroke-linejoin="round" class="icon icon-tabler icons-tabler-outline icon-tabler-circle-chevrons-up"><path d="M11.180 2.023 C 9.714 2.169,8.624 2.464,7.500 3.017 C 6.394 3.561,5.700 4.058,4.818 4.939 C 3.286 6.468,2.383 8.209,1.994 10.387 C 1.913 10.837,1.902 11.032,1.901 11.980 C 1.900 12.844,1.915 13.147,1.973 13.493 C 2.341 15.680,3.221 17.436,4.718 18.974 C 6.043 20.335,7.626 21.246,9.454 21.699 C 10.245 21.895,10.709 21.959,11.540 21.987 C 14.321 22.079,16.971 21.035,18.920 19.081 C 20.533 17.463,21.504 15.471,21.807 13.160 C 21.880 12.602,21.868 11.283,21.784 10.700 C 21.461 8.443,20.504 6.507,18.939 4.941 C 17.409 3.412,15.474 2.434,13.347 2.117 C 12.845 2.042,11.554 1.986,11.180 2.023 M13.100 4.099 C 16.555 4.633,19.260 7.371,19.781 10.860 C 19.868 11.442,19.867 12.551,19.780 13.140 C 19.386 15.806,17.716 18.074,15.300 19.224 C 12.242 20.679,8.585 20.044,6.209 17.646 C 3.939 15.354,3.256 11.984,4.458 9.008 C 5.564 6.267,8.118 4.347,11.060 4.042 C 11.539 3.993,12.603 4.022,13.100 4.099 M11.620 7.046 C 11.387 7.166,8.154 10.409,8.039 10.637 C 7.863 10.990,7.952 11.355,8.299 11.701 C 8.646 12.048,9.011 12.137,9.363 11.960 C 9.479 11.901,9.961 11.452,10.770 10.647 L 12.000 9.423 13.230 10.647 C 14.039 11.452,14.521 11.901,14.637 11.960 C 14.989 12.137,15.354 12.048,15.701 11.701 C 16.048 11.355,16.137 10.990,15.961 10.637 C 15.841 10.397,12.611 7.163,12.372 7.044 C 12.151 6.934,11.836 6.935,11.620 7.046 M11.620 11.046 C 11.387 11.166,8.154 14.409,8.039 14.637 C 7.863 14.990,7.952 15.355,8.299 15.701 C 8.646 16.048,9.011 16.137,9.363 15.960 C 9.479 15.901,9.961 15.452,10.770 14.647 L 12.000 13.423 13.230 14.647 C 14.039 15.452,14.521 15.901,14.637 15.960 C 14.989 16.137,15.354 16.048,15.701 15.701 C 16.048 15.355,16.137 14.990,15.961 14.637 C 15.841 14.397,12.611 11.163,12.372 11.044 C 12.151 10.934,11.836 10.935,11.620 11.046 " stroke="none" fill="black" fill-rule="evenodd"></path></svg>