<svg xmlns="http://www.w3.org/2000/svg" width="24" height="24" viewBox="0 0 24 24" fill="none" stroke="currentColor" stroke-width="2" stroke-linecap="round" stroke-linejoin="round" class="icon icon-tabler icons-tabler-outline icon-tabler-music-down"><path d="M8.614 3.057 C 8.377 3.131,8.212 3.261,8.109 3.453 L 8.020 3.620 8.009 8.570 C 8.004 11.293,7.990 13.520,7.978 13.520 C 7.967 13.520,7.855 13.469,7.729 13.406 C 7.245 13.164,6.548 13.000,6.000 13.000 C 4.635 13.000,3.253 13.787,2.569 14.953 C 1.320 17.083,2.233 19.785,4.512 20.704 C 5.231 20.994,6.023 21.070,6.757 20.921 C 8.384 20.589,9.589 19.384,9.921 17.757 C 9.997 17.383,10.000 17.200,10.000 13.184 L 10.000 9.000 14.000 9.000 L 18.000 9.000 18.000 10.610 C 18.000 11.565,18.017 12.279,18.041 12.365 C 18.148 12.750,18.437 12.962,18.896 12.991 C 19.381 13.022,19.699 12.882,19.880 12.558 L 19.980 12.380 19.980 8.000 L 19.980 3.620 19.891 3.453 C 19.785 3.256,19.622 3.131,19.371 3.055 C 19.107 2.976,8.867 2.978,8.614 3.057 M18.000 6.000 L 18.000 7.000 14.000 7.000 L 10.000 7.000 10.000 6.000 L 10.000 5.000 14.000 5.000 L 18.000 5.000 18.000 6.000 M6.523 15.073 C 7.262 15.266,7.850 15.924,7.967 16.690 C 8.067 17.343,7.873 17.933,7.403 18.404 C 7.002 18.807,6.547 19.000,6.000 19.000 C 5.485 19.000,5.038 18.822,4.653 18.465 C 3.323 17.229,4.189 15.005,6.000 15.005 C 6.143 15.005,6.378 15.036,6.523 15.073 M18.614 15.057 C 18.377 15.131,18.212 15.261,18.109 15.453 C 18.021 15.618,18.020 15.640,18.009 17.596 L 17.997 19.572 17.269 18.852 C 16.856 18.443,16.467 18.094,16.372 18.045 C 16.021 17.868,15.640 17.958,15.299 18.299 C 14.952 18.646,14.863 19.011,15.040 19.363 C 15.099 19.480,15.635 20.051,16.635 21.062 C 17.463 21.899,18.174 22.634,18.216 22.697 C 18.318 22.850,18.762 23.049,19.000 23.049 C 19.238 23.049,19.682 22.850,19.784 22.697 C 19.826 22.634,20.537 21.899,21.365 21.062 C 22.365 20.051,22.901 19.480,22.960 19.363 C 23.137 19.011,23.048 18.646,22.701 18.299 C 22.360 17.958,21.979 17.868,21.628 18.045 C 21.533 18.094,21.144 18.443,20.732 18.851 L 20.004 19.572 19.992 17.596 C 19.980 15.640,19.979 15.618,19.891 15.453 C 19.842 15.362,19.746 15.247,19.678 15.199 C 19.414 15.010,18.957 14.950,18.614 15.057 " stroke="none" fill="black" fill-rule="evenodd"></path></svg>