<svg xmlns="http://www.w3.org/2000/svg" width="24" height="24" viewBox="0 0 24 24" fill="none" stroke="currentColor" stroke-width="2" stroke-linecap="round" stroke-linejoin="round" class="icon icon-tabler icons-tabler-outline icon-tabler-device-mobile-plus"><path d="M7.499 2.043 C 6.379 2.234,5.461 3.048,5.114 4.160 L 5.020 4.460 5.020 12.000 L 5.020 19.540 5.114 19.840 C 5.418 20.816,6.152 21.556,7.140 21.885 C 7.420 21.978,7.422 21.978,10.020 21.992 C 12.873 22.007,12.943 22.003,13.189 21.787 C 13.401 21.601,13.486 21.376,13.486 21.003 C 13.486 20.656,13.418 20.446,13.248 20.267 C 13.006 20.012,13.112 20.022,10.280 20.000 L 7.700 19.980 7.516 19.872 C 7.415 19.813,7.284 19.700,7.225 19.623 C 6.986 19.309,7.000 19.795,7.000 12.022 C 7.000 4.006,6.975 4.631,7.303 4.303 C 7.584 4.022,7.703 4.000,8.942 4.000 L 9.989 4.000 10.013 4.203 C 10.058 4.583,10.288 4.863,10.635 4.959 C 10.826 5.012,13.174 5.012,13.365 4.959 C 13.712 4.863,13.935 4.593,13.983 4.210 L 14.009 4.000 15.057 4.000 C 16.297 4.000,16.416 4.022,16.697 4.303 C 17.015 4.621,17.000 4.411,17.000 8.557 C 17.000 10.888,17.015 12.273,17.041 12.365 C 17.148 12.750,17.437 12.962,17.896 12.991 C 18.381 13.022,18.699 12.882,18.880 12.558 L 18.980 12.380 18.980 8.420 L 18.980 4.460 18.886 4.160 C 18.581 3.182,17.832 2.428,16.861 2.121 L 16.540 2.020 12.120 2.014 C 9.689 2.011,7.609 2.024,7.499 2.043 M18.614 15.057 C 18.377 15.131,18.212 15.261,18.109 15.453 C 18.024 15.613,18.020 15.668,18.008 16.810 L 17.996 18.000 16.904 18.000 C 15.744 18.000,15.570 18.022,15.322 18.199 C 15.100 18.357,15.020 18.568,15.020 19.000 C 15.020 19.331,15.033 19.403,15.120 19.558 C 15.230 19.755,15.414 19.898,15.635 19.959 C 15.716 19.982,16.270 20.000,16.890 20.000 L 18.000 20.000 18.000 21.110 C 18.000 21.730,18.018 22.284,18.041 22.365 C 18.148 22.750,18.437 22.962,18.896 22.991 C 19.381 23.022,19.699 22.882,19.880 22.558 C 19.979 22.381,19.980 22.374,19.993 21.190 L 20.005 20.000 21.113 20.000 C 21.731 20.000,22.284 19.982,22.365 19.959 C 22.586 19.898,22.770 19.755,22.880 19.558 C 22.967 19.402,22.980 19.332,22.979 19.000 C 22.978 18.567,22.898 18.355,22.678 18.199 C 22.430 18.022,22.256 18.000,21.096 18.000 L 20.005 18.000 19.993 16.810 C 19.981 15.669,19.976 15.613,19.891 15.453 C 19.842 15.362,19.746 15.247,19.678 15.199 C 19.414 15.010,18.957 14.950,18.614 15.057 M11.614 16.057 C 11.221 16.180,11.039 16.435,11.009 16.906 C 10.962 17.621,11.306 18.000,12.000 18.000 C 12.698 18.000,13.043 17.616,12.989 16.900 C 12.963 16.563,12.859 16.327,12.678 16.199 C 12.414 16.010,11.957 15.950,11.614 16.057 " stroke="none" fill="black" fill-rule="evenodd"></path></svg>