<svg xmlns="http://www.w3.org/2000/svg" width="24" height="24" viewBox="0 0 24 24" fill="none" stroke="currentColor" stroke-width="2" stroke-linecap="round" stroke-linejoin="round" class="icon icon-tabler icons-tabler-outline icon-tabler-box-model-2-off"><path d="M2.626 2.045 C 2.257 2.239,1.951 2.673,1.951 3.000 C 1.951 3.293,2.085 3.492,2.702 4.120 L 3.273 4.700 3.146 5.060 L 3.020 5.420 3.020 11.980 L 3.020 18.540 3.114 18.840 C 3.422 19.827,4.173 20.578,5.160 20.886 L 5.460 20.980 12.020 20.980 L 18.580 20.980 18.940 20.854 L 19.300 20.727 19.880 21.298 C 20.205 21.617,20.538 21.908,20.637 21.959 C 20.988 22.137,21.353 22.049,21.701 21.701 C 22.048 21.354,22.137 20.990,21.960 20.637 C 21.899 20.515,21.094 19.676,19.353 17.920 C 17.968 16.523,16.796 15.341,16.747 15.293 C 16.536 15.083,8.850 7.396,8.760 7.305 C 8.705 7.250,7.508 6.062,6.100 4.667 C 4.415 2.996,3.482 2.100,3.372 2.044 C 3.152 1.934,2.835 1.935,2.626 2.045 M7.614 3.057 C 7.377 3.132,7.212 3.261,7.109 3.453 C 7.035 3.592,7.020 3.684,7.020 4.000 C 7.020 4.331,7.033 4.403,7.120 4.558 C 7.230 4.755,7.414 4.898,7.635 4.959 C 7.729 4.985,9.608 5.000,12.943 5.000 C 18.764 5.000,18.373 4.979,18.697 5.303 C 19.021 5.627,19.000 5.236,19.000 11.057 C 19.000 14.392,19.015 16.271,19.041 16.365 C 19.148 16.750,19.437 16.962,19.896 16.991 C 20.381 17.022,20.699 16.882,20.880 16.558 L 20.980 16.380 20.980 10.920 L 20.980 5.460 20.886 5.160 C 20.581 4.182,19.832 3.428,18.861 3.121 L 18.540 3.020 13.160 3.012 C 8.811 3.006,7.748 3.014,7.614 3.057 M7.009 12.399 L 7.020 16.380 7.120 16.558 C 7.230 16.755,7.414 16.898,7.635 16.959 C 7.728 16.985,9.191 17.000,11.680 17.000 L 15.581 17.000 16.580 18.000 L 17.580 19.001 11.640 18.990 L 5.700 18.980 5.516 18.872 C 5.415 18.813,5.284 18.700,5.225 18.623 C 4.987 18.311,5.000 18.677,5.000 12.285 L 5.000 6.421 5.999 7.419 L 6.999 8.418 7.009 12.399 M11.614 7.057 C 11.377 7.131,11.212 7.261,11.109 7.453 C 11.035 7.592,11.020 7.684,11.020 8.000 C 11.020 8.331,11.033 8.403,11.120 8.558 C 11.230 8.755,11.414 8.898,11.635 8.959 C 11.721 8.983,12.435 9.000,13.390 9.000 L 15.000 9.000 15.000 10.610 C 15.000 11.565,15.017 12.279,15.041 12.365 C 15.148 12.750,15.437 12.962,15.896 12.991 C 16.381 13.022,16.699 12.882,16.880 12.558 L 16.980 12.380 16.980 10.000 L 16.980 7.620 16.891 7.453 C 16.785 7.256,16.622 7.131,16.371 7.055 C 16.112 6.977,11.864 6.979,11.614 7.057 M11.300 12.720 L 13.580 15.000 11.290 15.000 L 9.000 15.000 9.000 12.720 C 9.000 11.466,9.005 10.440,9.010 10.440 C 9.016 10.440,10.046 11.466,11.300 12.720 " stroke="none" fill="black" fill-rule="evenodd"></path></svg>