<svg xmlns="http://www.w3.org/2000/svg" width="24" height="24" viewBox="0 0 24 24" fill="none" stroke="currentColor" stroke-width="2" stroke-linecap="round" stroke-linejoin="round" class="icon icon-tabler icons-tabler-outline icon-tabler-chart-histogram"><path d="M2.614 2.057 C 2.377 2.131,2.212 2.261,2.109 2.453 L 2.020 2.620 2.020 12.000 L 2.020 21.380 2.120 21.558 C 2.230 21.755,2.414 21.898,2.635 21.959 C 2.835 22.015,21.165 22.015,21.365 21.959 C 21.586 21.898,21.770 21.755,21.880 21.558 C 21.967 21.402,21.980 21.332,21.979 21.000 C 21.978 20.685,21.963 20.591,21.888 20.450 C 21.773 20.232,21.551 20.086,21.246 20.029 L 21.005 19.983 20.993 18.801 C 20.980 17.662,20.977 17.614,20.889 17.450 C 20.724 17.140,20.329 16.970,19.874 17.011 C 19.439 17.051,19.141 17.274,19.041 17.635 C 19.018 17.716,19.000 18.270,19.000 18.890 L 19.000 20.000 18.002 20.000 L 17.003 20.000 16.992 17.810 C 16.980 15.620,16.980 15.620,16.889 15.450 C 16.724 15.140,16.329 14.970,15.874 15.011 C 15.439 15.051,15.141 15.274,15.041 15.635 C 15.016 15.724,15.000 16.600,15.000 17.890 L 15.000 20.000 14.001 20.000 L 13.002 20.000 12.991 16.310 L 12.980 12.620 12.889 12.450 C 12.724 12.140,12.329 11.970,11.874 12.011 C 11.439 12.051,11.141 12.274,11.041 12.635 C 11.015 12.727,11.000 14.095,11.000 16.390 L 11.000 20.000 10.002 20.000 L 9.003 20.000 8.992 17.810 C 8.980 15.620,8.980 15.620,8.889 15.450 C 8.724 15.140,8.329 14.970,7.874 15.011 C 7.439 15.051,7.141 15.274,7.041 15.635 C 7.016 15.724,7.000 16.600,7.000 17.890 L 7.000 20.000 5.500 20.000 L 4.000 20.000 4.000 15.984 L 4.000 11.967 4.290 11.922 C 5.757 11.692,6.815 11.246,7.755 10.461 C 8.229 10.065,8.553 9.713,9.305 8.780 C 10.086 7.810,10.444 7.459,10.848 7.264 C 11.236 7.078,11.493 7.024,12.000 7.024 C 12.507 7.024,12.764 7.078,13.152 7.264 C 13.556 7.459,13.914 7.810,14.695 8.780 C 15.049 9.220,15.465 9.713,15.620 9.876 C 16.895 11.225,18.498 11.907,20.580 11.987 C 21.411 12.019,21.670 11.934,21.880 11.558 C 21.967 11.402,21.980 11.332,21.979 11.000 C 21.978 10.552,21.893 10.342,21.649 10.182 C 21.447 10.050,21.232 10.008,20.620 9.984 C 20.021 9.959,19.524 9.881,19.040 9.734 C 17.986 9.415,17.392 8.946,16.287 7.560 C 15.329 6.358,14.843 5.894,14.148 5.519 C 13.486 5.162,12.882 5.022,12.000 5.022 C 11.118 5.022,10.514 5.162,9.852 5.519 C 9.156 5.894,8.668 6.360,7.713 7.560 C 6.562 9.006,5.920 9.488,4.738 9.798 C 4.563 9.844,4.326 9.893,4.211 9.906 L 4.002 9.931 3.991 6.275 L 3.980 2.620 3.891 2.453 C 3.842 2.362,3.746 2.247,3.678 2.199 C 3.414 2.010,2.957 1.950,2.614 2.057 " stroke="none" fill="black" fill-rule="evenodd"></path></svg>