<svg xmlns="http://www.w3.org/2000/svg" width="24" height="24" viewBox="0 0 24 24" fill="none" stroke="currentColor" stroke-width="2" stroke-linecap="round" stroke-linejoin="round" class="icon icon-tabler icons-tabler-outline icon-tabler-brand-sublime-text"><path d="M18.480 1.616 C 13.277 3.300,4.935 5.963,4.800 5.984 C 4.575 6.018,4.495 6.057,4.327 6.215 C 4.184 6.349,4.092 6.501,4.034 6.698 C 3.984 6.870,3.986 12.798,4.037 12.931 C 4.139 13.200,4.551 13.517,4.800 13.519 C 4.890 13.520,6.994 14.172,7.106 14.235 C 7.132 14.249,6.594 14.439,5.912 14.658 C 4.494 15.113,4.426 15.141,4.252 15.320 C 3.995 15.584,4.000 15.511,4.000 18.720 C 4.000 21.911,3.996 21.857,4.242 22.197 C 4.408 22.426,4.655 22.535,4.956 22.512 C 5.107 22.500,7.437 21.768,12.106 20.267 C 15.915 19.042,19.065 18.040,19.106 18.040 C 19.470 18.039,19.844 17.718,19.966 17.302 C 19.985 17.235,20.002 15.825,20.002 14.169 C 20.003 10.800,20.022 11.017,19.711 10.737 C 19.537 10.580,19.335 10.480,19.191 10.480 C 19.108 10.480,17.002 9.825,16.894 9.765 C 16.868 9.751,17.406 9.561,18.088 9.342 C 19.507 8.886,19.574 8.859,19.749 8.680 C 20.009 8.413,20.003 8.491,19.991 5.194 L 19.980 2.214 19.859 1.979 C 19.601 1.473,19.226 1.374,18.480 1.616 M18.000 5.578 L 18.000 7.277 17.750 7.354 C 17.613 7.397,16.626 7.712,15.559 8.056 C 14.491 8.399,13.591 8.680,13.559 8.680 C 13.480 8.681,8.320 7.026,8.321 7.000 C 8.321 6.982,17.895 3.889,17.970 3.883 C 17.987 3.881,18.000 4.644,18.000 5.578 M9.471 9.487 C 9.895 9.623,10.228 9.747,10.211 9.762 C 10.194 9.777,9.262 10.083,8.140 10.441 C 7.018 10.800,6.078 11.101,6.050 11.111 C 6.011 11.125,6.000 10.836,6.000 9.750 L 6.000 8.371 7.350 8.805 C 8.092 9.044,9.047 9.351,9.471 9.487 M14.715 11.172 L 15.730 11.501 13.087 12.351 L 10.444 13.201 9.358 12.851 C 8.762 12.659,8.297 12.494,8.327 12.484 C 9.445 12.096,13.527 10.812,13.600 10.825 C 13.655 10.835,14.157 10.991,14.715 11.172 M18.000 14.255 L 18.000 15.629 16.650 15.195 C 15.908 14.956,14.954 14.649,14.530 14.513 C 14.107 14.377,13.771 14.256,13.783 14.243 C 13.805 14.221,17.907 12.888,17.970 12.883 C 17.987 12.881,18.000 13.499,18.000 14.255 M13.090 16.150 C 14.514 16.606,15.679 16.989,15.679 17.000 C 15.679 17.011,13.524 17.711,10.890 18.557 C 8.255 19.402,6.078 20.101,6.050 20.111 C 6.011 20.125,6.000 19.771,6.000 18.427 L 6.000 16.724 6.450 16.583 C 6.697 16.505,7.674 16.190,8.620 15.884 C 9.566 15.578,10.376 15.325,10.420 15.323 C 10.464 15.321,11.665 15.693,13.090 16.150 " stroke="none" fill="black" fill-rule="evenodd"></path></svg>