<svg xmlns="http://www.w3.org/2000/svg" width="24" height="24" viewBox="0 0 24 24" fill="none" stroke="currentColor" stroke-width="2" stroke-linecap="round" stroke-linejoin="round" class="icon icon-tabler icons-tabler-outline icon-tabler-signal-4g-plus"><path d="M2.614 7.057 C 2.377 7.131,2.212 7.261,2.109 7.453 C 2.021 7.618,2.020 7.646,2.008 9.416 C 1.996 11.353,2.004 11.460,2.202 11.877 C 2.348 12.186,2.771 12.623,3.070 12.775 C 3.472 12.979,3.642 13.000,4.868 13.000 L 6.000 13.000 6.000 14.610 C 6.000 15.565,6.017 16.279,6.041 16.365 C 6.148 16.750,6.437 16.962,6.896 16.991 C 7.381 17.022,7.699 16.882,7.880 16.558 L 7.980 16.380 7.980 12.000 L 7.980 7.620 7.889 7.450 C 7.724 7.140,7.329 6.970,6.874 7.011 C 6.439 7.051,6.141 7.274,6.041 7.635 C 6.017 7.721,6.000 8.435,6.000 9.390 L 6.000 11.000 5.002 11.000 L 4.004 11.000 3.992 9.310 C 3.980 7.651,3.978 7.617,3.891 7.453 C 3.842 7.362,3.746 7.247,3.678 7.199 C 3.414 7.010,2.957 6.950,2.614 7.057 M11.499 7.043 C 10.383 7.230,9.461 8.048,9.114 9.160 L 9.020 9.460 9.020 12.000 L 9.020 14.540 9.114 14.840 C 9.419 15.817,10.158 16.562,11.140 16.884 C 11.405 16.971,11.492 16.976,12.804 16.991 C 13.715 17.001,14.243 16.992,14.348 16.963 C 14.583 16.900,14.767 16.760,14.880 16.558 L 14.980 16.380 14.980 14.000 L 14.980 11.620 14.891 11.453 C 14.785 11.256,14.622 11.131,14.371 11.055 C 14.117 10.979,12.883 10.979,12.629 11.055 C 12.224 11.177,12.040 11.428,12.009 11.900 C 11.968 12.532,12.251 12.922,12.797 12.987 L 13.000 13.011 13.000 14.009 L 13.000 15.007 12.350 14.993 C 11.728 14.981,11.692 14.975,11.516 14.872 C 11.415 14.813,11.284 14.700,11.225 14.623 C 11.000 14.327,11.000 14.332,11.000 12.022 C 11.000 9.586,10.997 9.609,11.303 9.303 C 11.588 9.018,11.692 9.000,13.057 9.000 C 13.713 9.000,14.283 8.982,14.365 8.959 C 14.586 8.898,14.770 8.755,14.880 8.558 C 14.967 8.402,14.980 8.332,14.979 8.000 C 14.978 7.567,14.898 7.355,14.678 7.199 C 14.423 7.017,14.269 7.000,12.944 7.005 C 12.260 7.007,11.609 7.025,11.499 7.043 M18.614 9.057 C 18.377 9.131,18.212 9.261,18.109 9.453 C 18.029 9.603,18.019 9.689,18.007 10.310 L 17.993 11.000 17.403 11.000 C 16.577 11.000,16.299 11.097,16.109 11.453 C 16.035 11.592,16.020 11.684,16.020 12.000 C 16.020 12.331,16.033 12.403,16.120 12.558 C 16.230 12.755,16.414 12.898,16.635 12.959 C 16.715 12.981,17.055 13.000,17.390 13.000 L 18.000 13.000 18.000 13.610 C 18.000 13.945,18.019 14.285,18.041 14.365 C 18.148 14.750,18.437 14.962,18.896 14.991 C 19.381 15.022,19.699 14.882,19.880 14.558 C 19.974 14.391,19.981 14.338,19.994 13.690 L 20.008 13.000 20.614 13.000 C 20.947 13.000,21.285 12.981,21.365 12.959 C 21.586 12.898,21.770 12.755,21.880 12.558 C 21.967 12.402,21.980 12.332,21.979 12.000 C 21.978 11.687,21.962 11.591,21.890 11.453 C 21.702 11.098,21.423 11.000,20.598 11.000 L 20.008 11.000 19.993 10.310 C 19.976 9.541,19.930 9.378,19.678 9.199 C 19.414 9.010,18.957 8.950,18.614 9.057 " stroke="none" fill="black" fill-rule="evenodd"></path></svg>