<svg xmlns="http://www.w3.org/2000/svg" width="24" height="24" viewBox="0 0 24 24" fill="none" stroke="currentColor" stroke-width="2" stroke-linecap="round" stroke-linejoin="round" class="icon icon-tabler icons-tabler-outline icon-tabler-cone-plus"><path d="M11.602 1.044 C 11.134 1.135,10.578 1.514,10.326 1.914 C 10.217 2.086,2.441 16.410,2.153 16.969 C 2.034 17.201,2.022 17.256,2.008 17.680 C 1.988 18.264,2.038 18.537,2.243 18.954 C 2.691 19.863,3.949 20.673,5.720 21.192 C 7.492 21.711,9.149 21.942,11.443 21.988 C 12.542 22.010,12.688 22.005,12.890 21.941 C 13.391 21.784,13.619 21.287,13.465 20.688 C 13.383 20.368,13.311 20.261,13.084 20.128 L 12.900 20.020 11.620 19.993 C 9.897 19.957,8.705 19.837,7.483 19.579 C 5.516 19.164,4.000 18.431,4.000 17.896 C 4.000 17.785,4.843 16.200,7.990 10.398 C 10.184 6.351,11.989 3.040,12.000 3.040 C 12.011 3.040,13.181 5.184,14.600 7.804 C 16.367 11.066,17.234 12.629,17.351 12.761 C 17.666 13.117,17.980 13.159,18.474 12.911 C 18.933 12.681,19.131 12.340,19.047 11.928 C 19.015 11.771,18.317 10.449,16.375 6.868 C 14.930 4.201,13.698 1.948,13.638 1.859 C 13.213 1.235,12.363 0.894,11.602 1.044 M18.614 15.057 C 18.377 15.131,18.212 15.261,18.109 15.453 C 18.024 15.613,18.020 15.668,18.008 16.810 L 17.996 18.000 16.904 18.000 C 15.744 18.000,15.570 18.022,15.322 18.199 C 15.100 18.357,15.020 18.568,15.020 19.000 C 15.020 19.331,15.033 19.403,15.120 19.558 C 15.230 19.755,15.414 19.898,15.635 19.959 C 15.716 19.982,16.270 20.000,16.890 20.000 L 18.000 20.000 18.000 21.110 C 18.000 21.730,18.018 22.284,18.041 22.365 C 18.148 22.750,18.437 22.962,18.896 22.991 C 19.381 23.022,19.699 22.882,19.880 22.558 C 19.979 22.381,19.980 22.374,19.993 21.190 L 20.005 20.000 21.113 20.000 C 21.731 20.000,22.284 19.982,22.365 19.959 C 22.586 19.898,22.770 19.755,22.880 19.558 C 22.967 19.402,22.980 19.332,22.979 19.000 C 22.978 18.567,22.898 18.355,22.678 18.199 C 22.430 18.022,22.256 18.000,21.096 18.000 L 20.005 18.000 19.993 16.810 C 19.981 15.669,19.976 15.613,19.891 15.453 C 19.842 15.362,19.746 15.247,19.678 15.199 C 19.414 15.010,18.957 14.950,18.614 15.057 " stroke="none" fill="black" fill-rule="evenodd"></path></svg>