<svg xmlns="http://www.w3.org/2000/svg" width="24" height="24" viewBox="0 0 24 24" fill="none" stroke="currentColor" stroke-width="2" stroke-linecap="round" stroke-linejoin="round" class="icon icon-tabler icons-tabler-outline icon-tabler-polygon-off"><path d="M2.626 2.045 C 2.420 2.154,2.146 2.433,2.038 2.644 C 1.924 2.868,1.924 3.132,2.040 3.363 C 2.101 3.486,2.820 4.233,4.388 5.804 L 6.647 8.068 6.497 8.192 C 6.356 8.308,6.341 8.312,6.237 8.259 C 5.745 8.004,4.748 7.940,4.139 8.125 C 3.179 8.417,2.419 9.181,2.114 10.160 C 1.979 10.594,1.979 11.406,2.114 11.840 C 2.421 12.826,3.173 13.578,4.160 13.886 C 4.417 13.966,4.541 13.980,5.020 13.978 C 5.547 13.976,5.601 13.968,5.940 13.847 C 6.138 13.776,6.327 13.708,6.361 13.697 C 6.398 13.684,7.529 14.466,9.323 15.748 L 12.224 17.820 12.125 18.120 C 12.040 18.378,12.026 18.498,12.023 18.980 C 12.020 19.461,12.033 19.582,12.114 19.840 C 12.422 20.827,13.174 21.579,14.160 21.886 C 14.412 21.964,14.547 21.979,15.000 21.979 C 15.453 21.979,15.588 21.964,15.840 21.886 C 16.816 21.582,17.584 20.820,17.876 19.866 C 17.922 19.715,17.960 19.545,17.960 19.487 C 17.960 19.399,18.154 19.576,19.210 20.627 C 20.034 21.446,20.521 21.901,20.637 21.960 C 20.989 22.137,21.354 22.048,21.701 21.701 C 22.047 21.355,22.136 20.990,21.961 20.637 C 21.839 20.392,3.616 2.165,3.372 2.044 C 3.152 1.934,2.834 1.935,2.626 2.045 M11.499 2.040 C 10.363 2.246,9.460 3.049,9.114 4.160 C 8.979 4.594,8.979 5.406,9.114 5.840 C 9.421 6.826,10.174 7.579,11.160 7.886 C 11.594 8.021,12.407 8.021,12.839 7.886 C 13.394 7.712,13.773 7.474,14.197 7.032 L 14.399 6.821 15.194 7.217 L 15.989 7.613 16.011 8.096 C 16.053 9.012,16.381 9.692,17.066 10.286 C 17.173 10.378,17.254 10.479,17.247 10.510 C 17.240 10.542,17.028 11.146,16.775 11.854 C 16.522 12.561,16.304 13.225,16.292 13.330 C 16.232 13.822,16.640 14.227,17.305 14.338 C 17.623 14.391,17.935 14.239,18.119 13.941 C 18.165 13.867,18.401 13.251,18.643 12.573 C 18.885 11.895,19.111 11.264,19.146 11.172 C 19.205 11.014,19.221 11.002,19.395 10.979 C 20.546 10.827,21.531 9.982,21.886 8.840 C 22.021 8.406,22.021 7.594,21.886 7.160 C 21.581 6.181,20.822 5.418,19.861 5.125 C 19.588 5.042,19.458 5.027,19.000 5.027 C 18.542 5.027,18.412 5.042,18.139 5.125 C 17.760 5.240,17.371 5.450,17.112 5.678 L 16.925 5.843 15.966 5.363 L 15.008 4.884 14.979 4.632 C 14.847 3.481,13.980 2.456,12.861 2.129 C 12.500 2.023,11.832 1.980,11.499 2.040 M12.310 4.061 C 12.688 4.173,13.000 4.598,13.000 5.001 C 13.000 5.331,12.784 5.696,12.484 5.872 C 12.328 5.963,12.254 5.980,12.000 5.980 C 11.746 5.980,11.672 5.963,11.516 5.872 C 10.935 5.530,10.833 4.774,11.304 4.303 C 11.583 4.024,11.916 3.944,12.310 4.061 M19.310 7.061 C 19.688 7.173,20.000 7.598,20.000 8.001 C 20.000 8.331,19.784 8.696,19.484 8.872 C 19.328 8.963,19.254 8.980,19.000 8.980 C 18.746 8.980,18.672 8.963,18.516 8.872 C 17.935 8.530,17.833 7.774,18.304 7.303 C 18.583 7.024,18.916 6.944,19.310 7.061 M14.243 16.104 C 14.049 16.152,13.833 16.222,13.763 16.259 C 13.692 16.295,13.612 16.319,13.584 16.312 C 13.556 16.306,12.238 15.374,10.654 14.242 L 7.774 12.184 7.874 11.882 C 7.963 11.615,7.975 11.513,7.975 11.000 C 7.974 10.474,7.964 10.389,7.863 10.083 L 7.752 9.746 7.906 9.615 L 8.060 9.484 11.327 12.749 L 14.595 16.015 14.243 16.104 M5.310 10.061 C 5.688 10.173,6.000 10.598,6.000 11.001 C 6.000 11.331,5.784 11.696,5.484 11.872 C 5.328 11.963,5.254 11.980,5.000 11.980 C 4.746 11.980,4.672 11.963,4.516 11.872 C 3.935 11.530,3.833 10.774,4.304 10.303 C 4.583 10.024,4.916 9.944,5.310 10.061 M15.310 18.061 C 15.688 18.173,16.000 18.598,16.000 19.001 C 16.000 19.331,15.784 19.696,15.484 19.872 C 15.328 19.963,15.254 19.980,15.000 19.980 C 14.746 19.980,14.672 19.963,14.516 19.872 C 13.935 19.530,13.833 18.774,14.304 18.303 C 14.583 18.024,14.916 17.944,15.310 18.061 " stroke="none" fill="black" fill-rule="evenodd"></path></svg>