<svg xmlns="http://www.w3.org/2000/svg" width="24" height="24" viewBox="0 0 24 24" fill="none" stroke="currentColor" stroke-width="2" stroke-linecap="round" stroke-linejoin="round" class="icon icon-tabler icons-tabler-outline icon-tabler-math-integral-x"><path d="M10.480 2.060 C 9.545 2.272,8.864 3.053,8.420 4.423 C 8.143 5.276,7.998 6.008,7.499 9.052 C 7.356 9.927,7.149 11.115,7.038 11.692 C 6.827 12.799,6.592 14.154,6.321 15.840 C 5.913 18.375,5.577 19.577,5.185 19.907 C 5.079 19.996,5.038 20.006,4.867 19.986 C 4.529 19.946,4.202 19.693,4.076 19.373 C 4.051 19.311,4.015 19.111,3.996 18.929 C 3.954 18.534,3.853 18.316,3.649 18.182 C 3.198 17.887,2.426 17.979,2.170 18.358 C 2.027 18.570,1.988 18.782,2.013 19.200 C 2.088 20.446,2.936 21.507,4.160 21.886 C 4.595 22.020,5.343 22.020,5.731 21.887 C 6.621 21.579,7.243 20.752,7.657 19.324 C 7.879 18.560,8.018 17.850,8.400 15.540 C 8.600 14.330,8.843 12.926,8.940 12.420 C 9.201 11.060,9.332 10.305,9.600 8.640 C 9.951 6.460,10.158 5.474,10.405 4.800 C 10.585 4.310,10.822 4.000,11.016 4.000 C 11.224 4.000,11.515 4.124,11.679 4.283 C 11.892 4.491,11.958 4.650,12.001 5.067 C 12.068 5.718,12.370 6.000,13.000 6.000 C 13.428 6.000,13.713 5.856,13.880 5.558 C 13.971 5.396,13.980 5.338,13.979 4.920 C 13.978 4.555,13.959 4.398,13.885 4.160 C 13.583 3.182,12.810 2.406,11.861 2.129 C 11.447 2.008,10.841 1.978,10.480 2.060 M13.626 11.045 C 13.257 11.239,12.951 11.673,12.951 12.000 C 12.951 12.333,13.056 12.467,14.353 13.770 L 15.577 15.000 14.353 16.230 C 13.056 17.533,12.951 17.667,12.951 18.000 C 12.951 18.477,13.523 19.049,14.000 19.049 C 14.333 19.049,14.467 18.944,15.770 17.647 L 17.000 16.423 18.230 17.647 C 19.533 18.944,19.667 19.049,20.000 19.049 C 20.477 19.049,21.049 18.477,21.049 18.000 C 21.049 17.667,20.944 17.533,19.647 16.230 L 18.423 15.000 19.647 13.770 C 20.452 12.961,20.901 12.479,20.960 12.363 C 21.137 12.011,21.048 11.646,20.701 11.299 C 20.361 10.958,19.980 10.868,19.628 11.045 C 19.523 11.098,18.999 11.588,18.230 12.353 L 17.000 13.577 15.770 12.353 C 15.001 11.588,14.477 11.098,14.372 11.045 C 14.152 10.934,13.835 10.934,13.626 11.045 " stroke="none" fill="black" fill-rule="evenodd"></path></svg>