<svg xmlns="http://www.w3.org/2000/svg" width="24" height="24" viewBox="0 0 24 24" fill="none" stroke="currentColor" stroke-width="2" stroke-linecap="round" stroke-linejoin="round" class="icon icon-tabler icons-tabler-outline icon-tabler-file-type-rs"><path d="M6.499 2.043 C 5.390 2.231,4.488 3.024,4.114 4.140 L 4.020 4.420 4.009 8.311 C 4.001 10.892,4.011 12.253,4.039 12.355 C 4.144 12.747,4.433 12.961,4.896 12.991 C 5.381 13.022,5.699 12.882,5.880 12.558 L 5.980 12.380 6.000 8.560 C 6.022 4.280,5.999 4.597,6.321 4.283 C 6.622 3.992,6.514 4.000,9.947 4.000 L 13.000 4.000 13.000 5.618 C 13.000 6.649,13.016 7.313,13.044 7.448 C 13.189 8.140,13.857 8.807,14.552 8.955 C 14.689 8.984,15.335 9.000,16.382 9.000 L 18.000 9.000 18.000 14.054 C 18.000 18.220,17.990 19.139,17.945 19.290 C 17.872 19.533,17.707 19.740,17.484 19.872 C 17.304 19.978,17.282 19.980,16.479 20.000 C 15.696 20.019,15.648 20.025,15.459 20.122 C 15.119 20.297,14.978 20.606,15.009 21.104 C 15.039 21.572,15.252 21.856,15.656 21.964 C 15.762 21.993,16.127 22.002,16.700 21.990 C 17.472 21.974,17.614 21.961,17.860 21.882 C 18.836 21.568,19.581 20.818,19.886 19.840 L 19.980 19.540 19.980 13.580 L 19.980 7.620 19.880 7.442 C 19.825 7.343,19.708 7.214,19.620 7.154 C 19.440 7.032,14.900 2.479,14.788 2.309 C 14.748 2.249,14.640 2.159,14.548 2.110 L 14.380 2.020 10.540 2.014 C 8.428 2.011,6.609 2.024,6.499 2.043 M15.800 6.220 L 16.579 7.000 15.790 7.000 L 15.000 7.000 15.000 6.220 C 15.000 5.791,15.005 5.440,15.010 5.440 C 15.016 5.440,15.371 5.791,15.800 6.220 M2.614 14.057 C 2.377 14.131,2.212 14.261,2.109 14.453 L 2.020 14.620 2.009 17.912 C 2.002 20.060,2.012 21.257,2.039 21.356 C 2.144 21.747,2.434 21.961,2.896 21.991 C 3.381 22.022,3.699 21.882,3.880 21.558 C 3.975 21.390,3.981 21.338,4.000 20.604 L 4.020 19.828 4.600 20.703 C 5.243 21.673,5.384 21.850,5.606 21.963 C 5.926 22.126,6.372 22.015,6.734 21.681 C 6.956 21.477,7.040 21.304,7.039 21.054 C 7.038 20.782,6.969 20.652,6.286 19.630 L 5.683 18.725 5.933 18.546 C 6.373 18.233,6.684 17.824,6.867 17.320 C 6.965 17.051,6.976 16.966,6.976 16.500 C 6.976 16.035,6.965 15.948,6.868 15.680 C 6.732 15.306,6.458 14.898,6.165 14.636 C 5.887 14.387,5.390 14.137,5.020 14.060 C 4.647 13.982,2.861 13.980,2.614 14.057 M9.477 14.073 C 8.806 14.249,8.238 14.823,8.060 15.508 C 7.976 15.828,7.976 17.172,8.060 17.492 C 8.153 17.852,8.310 18.118,8.596 18.404 C 9.073 18.881,9.426 19.000,10.368 19.000 L 11.000 19.000 11.000 19.500 L 11.000 20.000 10.488 20.000 L 9.977 20.000 9.929 19.823 C 9.835 19.470,9.495 19.267,9.000 19.267 C 8.492 19.267,8.176 19.463,8.061 19.848 C 7.897 20.400,8.076 21.032,8.522 21.478 C 8.967 21.923,9.245 22.000,10.407 22.000 C 11.598 22.000,11.898 21.910,12.404 21.404 C 12.895 20.913,13.000 20.579,12.999 19.514 C 12.999 18.459,12.903 18.124,12.465 17.653 C 11.998 17.150,11.590 17.006,10.630 17.002 L 10.000 17.000 10.000 16.500 L 10.000 16.000 10.515 16.000 L 11.030 16.000 11.056 16.129 C 11.147 16.584,11.695 16.849,12.283 16.723 C 12.727 16.628,12.955 16.345,12.990 15.846 C 13.049 14.997,12.426 14.200,11.581 14.044 C 11.192 13.972,9.790 13.992,9.477 14.073 M4.748 16.078 C 4.991 16.226,5.065 16.513,4.922 16.748 C 4.796 16.955,4.639 17.013,4.294 16.981 L 4.000 16.953 4.000 16.477 L 4.000 16.000 4.310 16.000 C 4.547 16.000,4.650 16.019,4.748 16.078 " stroke="none" fill="black" fill-rule="evenodd"></path></svg>