<svg xmlns="http://www.w3.org/2000/svg" width="24" height="24" viewBox="0 0 24 24" fill="none" stroke="currentColor" stroke-width="2" stroke-linecap="round" stroke-linejoin="round" class="icon icon-tabler icons-tabler-outline icon-tabler-home-stats"><path d="M11.620 2.046 C 11.382 2.168,2.155 11.405,2.039 11.637 C 1.830 12.056,2.036 12.589,2.514 12.871 C 2.693 12.976,2.726 12.981,3.348 12.993 L 3.997 13.007 4.009 16.293 L 4.021 19.580 4.114 19.860 C 4.442 20.840,5.167 21.564,6.140 21.884 C 6.410 21.973,6.480 21.977,8.020 21.992 C 9.149 22.002,9.683 21.993,9.833 21.960 C 10.091 21.903,10.303 21.729,10.410 21.487 C 10.509 21.264,10.515 20.760,10.421 20.536 C 10.349 20.363,10.133 20.120,10.052 20.120 C 10.010 20.120,10.000 19.628,10.000 17.507 C 10.000 14.531,9.992 14.614,10.303 14.303 C 10.586 14.020,10.697 14.000,12.000 14.000 C 13.280 14.000,13.409 14.022,13.679 14.283 C 13.892 14.491,13.958 14.650,14.001 15.067 C 14.068 15.718,14.370 16.000,15.000 16.000 C 15.428 16.000,15.713 15.856,15.880 15.558 C 15.971 15.396,15.980 15.338,15.979 14.920 C 15.978 14.555,15.959 14.398,15.885 14.160 C 15.581 13.173,14.792 12.390,13.822 12.112 C 13.512 12.023,13.446 12.020,12.000 12.020 C 10.554 12.020,10.488 12.023,10.178 12.112 C 9.219 12.387,8.446 13.147,8.115 14.140 L 8.021 14.420 8.009 17.213 L 7.996 20.007 7.348 19.993 C 6.728 19.981,6.692 19.975,6.516 19.872 C 6.328 19.761,6.158 19.572,6.070 19.373 C 6.032 19.286,6.015 18.375,6.000 15.440 L 5.980 11.620 5.890 11.451 C 5.803 11.289,5.556 11.080,5.451 11.080 C 5.423 11.080,5.400 11.066,5.400 11.050 C 5.400 11.033,6.885 9.535,8.700 7.720 L 12.000 4.420 15.300 7.720 C 17.115 9.535,18.599 11.029,18.598 11.040 C 18.597 11.051,18.521 11.097,18.428 11.143 C 18.243 11.233,18.103 11.412,18.041 11.635 C 17.988 11.823,17.988 13.177,18.041 13.365 C 18.148 13.750,18.437 13.962,18.896 13.991 C 19.533 14.031,19.915 13.757,19.983 13.210 L 20.009 13.000 20.615 13.000 C 20.948 13.000,21.285 12.981,21.365 12.959 C 21.587 12.898,21.770 12.755,21.879 12.558 C 21.963 12.408,21.979 12.327,21.979 12.040 C 21.980 11.742,21.967 11.678,21.873 11.520 C 21.715 11.256,12.586 2.151,12.372 2.044 C 12.151 1.934,11.836 1.935,11.620 2.046 M20.219 15.999 L 18.658 16.020 18.459 16.122 C 18.119 16.297,17.978 16.606,18.009 17.104 C 18.038 17.563,18.250 17.852,18.635 17.959 C 18.715 17.981,18.960 18.000,19.180 18.000 L 19.580 18.000 18.791 18.789 L 18.002 19.578 17.271 18.854 C 16.857 18.444,16.467 18.094,16.372 18.045 C 16.150 17.933,15.852 17.933,15.628 18.044 C 15.389 18.163,12.159 21.397,12.039 21.637 C 11.863 21.990,11.952 22.355,12.299 22.701 C 12.646 23.048,13.011 23.137,13.363 22.960 C 13.479 22.901,13.961 22.452,14.770 21.647 L 15.999 20.424 16.730 21.147 C 17.513 21.921,17.693 22.049,18.000 22.049 C 18.333 22.049,18.467 21.944,19.770 20.647 L 21.000 19.423 21.000 19.821 C 21.000 20.041,21.019 20.285,21.041 20.365 C 21.148 20.750,21.437 20.962,21.896 20.991 C 22.381 21.022,22.699 20.882,22.880 20.558 L 22.980 20.380 23.008 18.720 C 23.024 17.807,23.037 17.001,23.038 16.929 C 23.041 16.739,22.834 16.309,22.690 16.207 C 22.467 16.048,22.205 15.960,21.987 15.969 C 21.873 15.973,21.077 15.987,20.219 15.999 " stroke="none" fill="black" fill-rule="evenodd"></path></svg>