<svg xmlns="http://www.w3.org/2000/svg" width="24" height="24" viewBox="0 0 24 24" fill="none" stroke="currentColor" stroke-width="2" stroke-linecap="round" stroke-linejoin="round" class="icon icon-tabler icons-tabler-outline icon-tabler-layout-bottombar-inactive"><path d="M5.499 3.043 C 4.380 3.233,3.461 4.048,3.114 5.160 L 3.020 5.460 3.020 12.000 L 3.020 18.540 3.114 18.840 C 3.422 19.827,4.173 20.578,5.160 20.886 L 5.460 20.980 12.000 20.980 L 18.540 20.980 18.840 20.886 C 19.827 20.578,20.578 19.827,20.886 18.840 L 20.980 18.540 20.980 12.000 L 20.980 5.460 20.886 5.160 C 20.581 4.182,19.832 3.428,18.861 3.121 L 18.540 3.020 12.120 3.014 C 8.589 3.011,5.609 3.024,5.499 3.043 M18.310 5.061 C 18.589 5.144,18.856 5.411,18.939 5.690 C 18.992 5.867,19.000 6.435,19.000 9.938 L 19.000 13.982 18.756 14.028 C 18.272 14.120,18.042 14.388,18.009 14.900 C 17.968 15.532,18.251 15.922,18.797 15.987 L 19.000 16.011 19.000 17.059 C 19.000 18.203,18.978 18.357,18.779 18.618 C 18.718 18.698,18.585 18.813,18.484 18.872 L 18.300 18.980 12.000 18.980 L 5.700 18.980 5.516 18.872 C 5.415 18.813,5.284 18.700,5.225 18.623 C 5.016 18.349,5.000 18.240,5.000 17.081 L 5.000 16.011 5.198 15.988 C 5.533 15.948,5.752 15.807,5.893 15.540 C 6.018 15.303,6.016 14.691,5.888 14.450 C 5.773 14.232,5.551 14.086,5.244 14.028 L 5.000 13.982 5.000 9.938 C 5.000 5.366,4.983 5.623,5.304 5.303 C 5.623 4.983,5.120 5.006,11.983 5.003 C 17.353 5.000,18.131 5.007,18.310 5.061 M8.614 14.057 C 8.377 14.131,8.212 14.261,8.109 14.453 C 8.035 14.592,8.020 14.684,8.020 15.000 C 8.020 15.331,8.033 15.403,8.120 15.558 C 8.230 15.755,8.414 15.898,8.635 15.959 C 8.823 16.012,10.177 16.012,10.365 15.959 C 10.586 15.898,10.770 15.755,10.880 15.558 C 10.967 15.402,10.980 15.332,10.979 15.000 C 10.978 14.687,10.962 14.591,10.890 14.453 C 10.786 14.256,10.623 14.131,10.371 14.055 C 10.126 13.982,8.851 13.983,8.614 14.057 M13.614 14.057 C 13.377 14.131,13.212 14.261,13.109 14.453 C 13.035 14.592,13.020 14.684,13.020 15.000 C 13.020 15.331,13.033 15.403,13.120 15.558 C 13.230 15.755,13.414 15.898,13.635 15.959 C 13.823 16.012,15.177 16.012,15.365 15.959 C 15.586 15.898,15.770 15.755,15.880 15.558 C 15.967 15.402,15.980 15.332,15.979 15.000 C 15.978 14.687,15.962 14.591,15.890 14.453 C 15.786 14.256,15.623 14.131,15.371 14.055 C 15.126 13.982,13.851 13.983,13.614 14.057 " stroke="none" fill="black" fill-rule="evenodd"></path></svg>