<svg xmlns="http://www.w3.org/2000/svg" width="24" height="24" viewBox="0 0 24 24" fill="none" stroke="currentColor" stroke-width="2" stroke-linecap="round" stroke-linejoin="round" class="icon icon-tabler icons-tabler-outline icon-tabler-exposure-plus-2"><path d="M15.400 4.044 C 13.761 4.229,12.261 5.290,11.526 6.785 C 11.213 7.421,11.046 8.061,11.011 8.760 C 10.980 9.391,11.093 9.686,11.438 9.876 C 11.644 9.990,12.089 10.033,12.344 9.965 C 12.796 9.842,12.948 9.602,13.003 8.923 C 13.024 8.659,13.083 8.302,13.132 8.131 C 13.402 7.199,14.186 6.415,15.139 6.125 C 15.412 6.042,15.542 6.027,16.000 6.027 C 16.458 6.027,16.588 6.042,16.861 6.125 C 18.293 6.561,19.222 8.041,18.943 9.442 C 18.864 9.841,18.589 10.433,18.273 10.885 C 18.143 11.070,16.724 12.591,14.641 14.778 C 12.761 16.751,11.179 18.427,11.125 18.502 C 10.998 18.681,10.924 18.979,10.963 19.152 C 11.038 19.485,11.396 19.871,11.711 19.958 C 11.913 20.014,20.163 20.015,20.365 19.959 C 20.586 19.898,20.770 19.755,20.880 19.558 C 20.967 19.402,20.980 19.332,20.979 19.000 C 20.977 18.469,20.852 18.247,20.455 18.071 C 20.367 18.032,19.650 18.015,17.347 18.000 L 14.353 17.980 17.000 15.200 C 19.350 12.732,19.683 12.366,19.970 11.940 C 20.327 11.410,20.621 10.829,20.779 10.340 C 21.327 8.654,20.798 6.682,19.454 5.399 C 18.365 4.358,16.914 3.873,15.400 4.044 M5.614 8.057 C 5.377 8.131,5.212 8.261,5.109 8.453 C 5.024 8.613,5.020 8.668,5.008 9.810 L 4.996 11.000 3.904 11.000 C 2.744 11.000,2.570 11.022,2.322 11.199 C 2.100 11.357,2.020 11.568,2.020 12.000 C 2.020 12.331,2.033 12.403,2.120 12.558 C 2.230 12.755,2.414 12.898,2.635 12.959 C 2.716 12.982,3.270 13.000,3.890 13.000 L 5.000 13.000 5.000 14.110 C 5.000 14.730,5.018 15.284,5.041 15.365 C 5.148 15.750,5.437 15.962,5.896 15.991 C 6.381 16.022,6.699 15.882,6.880 15.558 C 6.979 15.381,6.980 15.374,6.993 14.190 L 7.005 13.000 8.113 13.000 C 8.731 13.000,9.284 12.982,9.365 12.959 C 9.586 12.898,9.770 12.755,9.880 12.558 C 9.967 12.402,9.980 12.332,9.979 12.000 C 9.978 11.567,9.898 11.355,9.678 11.199 C 9.430 11.022,9.256 11.000,8.096 11.000 L 7.005 11.000 6.993 9.810 C 6.981 8.669,6.976 8.613,6.891 8.453 C 6.842 8.362,6.746 8.247,6.678 8.199 C 6.414 8.010,5.957 7.950,5.614 8.057 " stroke="none" fill="black" fill-rule="evenodd"></path></svg>