<svg xmlns="http://www.w3.org/2000/svg" width="24" height="24" viewBox="0 0 24 24" fill="none" stroke="currentColor" stroke-width="2" stroke-linecap="round" stroke-linejoin="round" class="icon icon-tabler icons-tabler-outline icon-tabler-crutches"><path d="M9.499 2.042 C 8.376 2.236,7.460 3.049,7.114 4.160 C 6.979 4.594,6.979 5.406,7.114 5.840 C 7.363 6.640,7.928 7.314,8.660 7.684 L 8.980 7.845 9.002 10.293 C 9.022 12.640,9.027 12.752,9.109 13.047 C 9.273 13.632,9.443 13.959,10.093 14.937 C 10.444 15.467,10.772 15.992,10.823 16.104 C 10.981 16.460,11.000 16.698,11.000 18.378 L 11.000 19.982 10.756 20.028 C 10.450 20.086,10.227 20.232,10.111 20.450 C 10.035 20.592,10.020 20.682,10.020 21.000 C 10.020 21.331,10.033 21.403,10.120 21.558 C 10.230 21.755,10.414 21.898,10.635 21.959 C 10.826 22.012,13.174 22.012,13.365 21.959 C 13.586 21.898,13.770 21.755,13.880 21.558 C 13.967 21.402,13.980 21.332,13.979 21.000 C 13.978 20.685,13.963 20.591,13.888 20.450 C 13.773 20.232,13.551 20.086,13.244 20.028 L 13.000 19.982 13.000 18.378 C 13.000 16.697,13.019 16.459,13.178 16.104 C 13.228 15.992,13.558 15.464,13.910 14.931 C 14.560 13.950,14.729 13.626,14.891 13.047 C 14.973 12.752,14.978 12.640,14.998 10.293 L 15.020 7.845 15.340 7.684 C 16.072 7.314,16.637 6.640,16.886 5.840 C 17.021 5.406,17.021 4.594,16.886 4.160 C 16.582 3.182,15.829 2.425,14.861 2.122 L 14.540 2.022 12.120 2.015 C 10.789 2.011,9.609 2.023,9.499 2.042 M14.310 4.061 C 14.688 4.173,15.000 4.598,15.000 5.001 C 15.000 5.331,14.784 5.696,14.484 5.872 L 14.300 5.980 12.000 5.980 L 9.700 5.980 9.516 5.872 C 8.935 5.530,8.833 4.774,9.304 4.303 C 9.604 4.002,9.569 4.006,11.983 4.003 C 13.772 4.000,14.138 4.010,14.310 4.061 M13.000 9.000 L 13.000 10.000 12.000 10.000 L 11.000 10.000 11.000 9.000 L 11.000 8.000 12.000 8.000 L 13.000 8.000 13.000 9.000 M13.000 12.113 C 13.000 12.303,12.919 12.675,12.835 12.871 C 12.745 13.082,12.046 14.160,12.000 14.160 C 11.954 14.160,11.255 13.082,11.165 12.871 C 11.081 12.675,11.000 12.303,11.000 12.113 L 11.000 12.000 12.000 12.000 L 13.000 12.000 13.000 12.113 " stroke="none" fill="black" fill-rule="evenodd"></path></svg>