<svg xmlns="http://www.w3.org/2000/svg" width="24" height="24" viewBox="0 0 24 24" fill="none" stroke="currentColor" stroke-width="2" stroke-linecap="round" stroke-linejoin="round" class="icon icon-tabler icons-tabler-outline icon-tabler-brand-revolut"><path d="M4.614 3.057 C 4.377 3.131,4.212 3.261,4.109 3.453 C 4.021 3.619,4.020 3.633,4.020 5.500 L 4.020 7.380 4.120 7.558 C 4.230 7.755,4.414 7.898,4.635 7.959 C 4.729 7.985,6.506 8.000,9.634 8.000 C 14.043 8.000,14.501 8.006,14.626 8.065 C 14.940 8.214,14.974 8.712,14.684 8.909 C 14.589 8.974,14.407 8.982,12.619 9.000 L 10.658 9.020 10.459 9.122 C 10.245 9.233,10.105 9.404,10.041 9.635 C 10.016 9.724,10.000 10.624,10.000 11.963 C 10.000 13.846,10.009 14.170,10.063 14.323 C 10.097 14.420,11.065 15.904,12.213 17.620 C 14.150 20.515,14.314 20.748,14.497 20.860 L 14.694 20.980 16.948 20.991 C 18.404 20.999,19.256 20.988,19.355 20.961 C 19.580 20.901,19.768 20.759,19.872 20.570 C 19.994 20.350,20.031 19.925,19.949 19.692 C 19.917 19.599,18.992 18.265,17.883 16.712 C 16.778 15.165,15.872 13.886,15.867 13.870 C 15.863 13.853,16.062 13.769,16.308 13.684 C 17.086 13.415,17.737 13.009,18.340 12.420 C 20.309 10.492,20.553 7.446,18.915 5.237 C 17.993 3.994,16.621 3.210,15.072 3.042 C 14.459 2.976,4.830 2.990,4.614 3.057 M15.405 5.108 C 16.405 5.391,17.234 6.098,17.678 7.046 C 17.906 7.532,17.978 7.881,17.978 8.500 C 17.978 9.119,17.906 9.468,17.678 9.954 C 17.223 10.926,16.385 11.630,15.360 11.902 C 15.193 11.946,14.858 11.981,14.420 11.998 C 13.662 12.027,13.555 12.056,13.282 12.303 C 12.970 12.585,12.882 12.925,13.028 13.287 C 13.065 13.380,13.970 14.682,15.040 16.179 C 16.109 17.677,16.998 18.924,17.014 18.951 C 17.038 18.989,16.876 19.000,16.289 19.000 L 15.533 19.000 13.766 16.350 L 12.000 13.699 12.000 12.350 L 12.000 11.000 13.330 10.999 C 14.832 10.999,15.027 10.975,15.520 10.735 C 15.751 10.622,15.899 10.509,16.161 10.244 C 16.679 9.720,16.890 9.215,16.890 8.500 C 16.890 7.782,16.678 7.276,16.161 6.759 C 15.810 6.408,15.535 6.233,15.120 6.094 C 14.913 6.025,14.642 6.020,10.450 6.009 L 6.000 5.998 6.000 5.498 L 6.000 4.997 10.550 5.009 C 15.077 5.021,15.102 5.022,15.405 5.108 M4.614 9.057 C 4.377 9.131,4.212 9.261,4.109 9.453 L 4.020 9.620 4.009 14.914 C 4.002 18.393,4.013 20.259,4.039 20.358 C 4.100 20.584,4.243 20.768,4.442 20.880 L 4.620 20.980 6.410 20.992 C 7.557 20.999,8.255 20.988,8.354 20.962 C 8.583 20.900,8.768 20.758,8.880 20.558 L 8.980 20.380 8.980 15.000 L 8.980 9.620 8.891 9.453 C 8.785 9.256,8.622 9.131,8.371 9.055 C 8.114 8.978,4.862 8.980,4.614 9.057 M7.000 15.000 L 7.000 19.000 6.500 19.000 L 6.000 19.000 6.000 15.000 L 6.000 11.000 6.500 11.000 L 7.000 11.000 7.000 15.000 " stroke="none" fill="black" fill-rule="evenodd"></path></svg>