<svg xmlns="http://www.w3.org/2000/svg" width="24" height="24" viewBox="0 0 24 24" fill="none" stroke="currentColor" stroke-width="2" stroke-linecap="round" stroke-linejoin="round" class="icon icon-tabler icons-tabler-outline icon-tabler-car-fan-3"><path d="M11.614 2.055 C 11.375 2.133,11.211 2.262,11.109 2.453 L 11.020 2.620 11.009 5.852 L 10.998 9.085 9.789 7.533 C 9.124 6.680,8.478 5.882,8.353 5.760 C 7.474 4.900,6.084 4.769,5.034 5.447 C 4.691 5.668,4.331 6.051,4.153 6.385 C 4.072 6.536,3.560 7.803,3.016 9.200 C 2.264 11.129,2.022 11.793,2.009 11.960 C 1.977 12.376,2.132 12.707,2.442 12.880 L 2.620 12.980 5.843 13.000 L 9.067 13.020 7.548 14.200 C 6.712 14.849,5.919 15.490,5.784 15.623 C 5.488 15.918,5.274 16.272,5.132 16.700 C 5.040 16.976,5.025 17.085,5.026 17.500 C 5.027 17.909,5.043 18.028,5.133 18.300 C 5.191 18.476,5.306 18.736,5.389 18.878 C 5.597 19.233,6.041 19.666,6.383 19.847 C 6.535 19.928,7.803 20.440,9.200 20.984 C 11.127 21.735,11.793 21.978,11.960 21.991 C 12.376 22.023,12.707 21.868,12.880 21.558 L 12.980 21.380 12.991 18.144 L 13.002 14.908 13.103 15.044 C 13.298 15.309,13.542 15.534,13.717 15.611 C 14.044 15.756,14.448 15.632,14.802 15.278 C 15.016 15.064,15.095 14.896,15.093 14.660 C 15.091 14.391,15.006 14.237,14.502 13.588 C 14.270 13.288,14.080 13.033,14.080 13.021 C 14.080 13.010,14.562 13.000,15.150 13.000 C 15.743 13.000,16.284 12.982,16.365 12.959 C 16.586 12.898,16.770 12.755,16.880 12.558 C 16.967 12.402,16.980 12.332,16.979 12.000 C 16.978 11.687,16.962 11.591,16.890 11.453 C 16.699 11.092,16.428 11.000,15.550 11.000 L 14.912 11.000 16.465 9.790 C 17.320 9.125,18.118 8.479,18.239 8.356 C 18.515 8.076,18.731 7.714,18.868 7.300 C 18.960 7.024,18.975 6.915,18.974 6.500 C 18.973 6.092,18.957 5.972,18.868 5.700 C 18.637 4.996,18.151 4.420,17.517 4.098 C 17.415 4.047,16.191 3.560,14.796 3.017 C 12.072 1.956,11.991 1.932,11.614 2.055 M14.889 5.200 C 15.836 5.570,16.659 5.907,16.716 5.949 C 16.848 6.045,17.000 6.340,17.000 6.500 C 17.000 6.568,16.960 6.703,16.910 6.801 C 16.833 6.953,16.550 7.190,14.940 8.447 C 13.906 9.255,13.047 9.917,13.030 9.918 C 13.013 9.919,13.000 8.695,13.000 7.197 L 13.000 4.475 13.083 4.501 C 13.128 4.515,13.941 4.830,14.889 5.200 M6.800 7.090 C 6.952 7.167,7.191 7.453,8.446 9.060 C 9.254 10.094,9.916 10.954,9.917 10.970 C 9.919 10.987,8.696 11.000,7.200 11.000 C 5.704 11.000,4.480 10.991,4.480 10.980 C 4.480 10.940,5.811 7.538,5.881 7.400 C 5.967 7.228,6.060 7.142,6.241 7.063 C 6.437 6.978,6.595 6.986,6.800 7.090 M18.174 14.042 C 17.566 14.162,17.055 14.757,17.009 15.399 C 16.959 16.103,17.307 16.486,17.997 16.488 C 18.381 16.489,18.593 16.406,18.796 16.175 L 18.950 16.000 19.285 16.000 C 19.547 16.000,19.648 16.017,19.748 16.078 C 19.991 16.226,20.065 16.513,19.922 16.748 C 19.798 16.951,19.659 17.000,19.208 17.000 C 18.593 17.000,18.283 17.128,18.109 17.453 C 18.035 17.592,18.020 17.684,18.020 18.000 C 18.020 18.331,18.033 18.403,18.120 18.558 C 18.309 18.896,18.562 18.999,19.200 19.000 C 19.546 19.000,19.643 19.014,19.748 19.078 C 19.991 19.226,20.065 19.513,19.922 19.748 C 19.804 19.941,19.653 20.000,19.282 20.000 L 18.960 20.000 18.770 19.804 C 18.553 19.580,18.392 19.520,18.000 19.520 C 17.649 19.520,17.464 19.578,17.277 19.748 C 17.073 19.932,16.982 20.222,17.009 20.601 C 17.047 21.132,17.402 21.639,17.896 21.867 L 18.140 21.980 19.080 21.979 C 20.005 21.979,20.025 21.977,20.320 21.869 C 21.040 21.605,21.606 21.039,21.867 20.320 C 21.965 20.051,21.976 19.966,21.976 19.500 C 21.976 19.035,21.965 18.949,21.868 18.684 C 21.809 18.521,21.705 18.301,21.636 18.194 L 21.512 18.000 21.636 17.806 C 21.705 17.699,21.809 17.479,21.868 17.316 C 21.965 17.051,21.976 16.965,21.976 16.500 C 21.976 16.035,21.965 15.948,21.868 15.680 C 21.732 15.306,21.458 14.898,21.165 14.636 C 20.887 14.387,20.390 14.137,20.020 14.060 C 19.713 13.996,18.468 13.983,18.174 14.042 M11.000 16.800 C 11.000 18.296,10.990 19.520,10.977 19.520 C 10.887 19.520,7.392 18.127,7.286 18.048 C 7.135 17.937,7.002 17.681,7.001 17.498 C 7.000 17.432,7.040 17.297,7.090 17.199 C 7.167 17.047,7.450 16.811,9.060 15.553 C 10.094 14.746,10.954 14.084,10.970 14.083 C 10.987 14.081,11.000 15.304,11.000 16.800 " stroke="none" fill="black" fill-rule="evenodd"></path></svg>