<svg xmlns="http://www.w3.org/2000/svg" width="24" height="24" viewBox="0 0 24 24" fill="none" stroke="currentColor" stroke-width="2" stroke-linecap="round" stroke-linejoin="round" class="icon icon-tabler icons-tabler-outline icon-tabler-brand-inertia"><path d="M3.180 7.039 C 2.868 7.119,2.693 7.263,2.580 7.534 C 2.494 7.740,2.492 8.176,2.577 8.380 C 2.625 8.496,3.114 9.012,4.371 10.270 L 6.100 12.000 4.351 13.750 C 2.530 15.573,2.442 15.677,2.441 16.000 C 2.441 16.205,2.602 16.516,2.806 16.704 C 3.146 17.015,3.029 17.004,5.820 16.991 L 8.300 16.980 8.480 16.873 C 8.748 16.714,12.849 12.585,12.960 12.363 C 13.076 12.132,13.076 11.869,12.961 11.637 C 12.899 11.514,12.217 10.804,10.706 9.293 C 8.618 7.204,8.532 7.125,8.323 7.063 C 8.134 7.008,7.787 7.001,5.703 7.004 C 4.381 7.006,3.246 7.022,3.180 7.039 M12.180 7.039 C 11.868 7.119,11.693 7.263,11.580 7.534 C 11.494 7.740,11.492 8.176,11.577 8.380 C 11.625 8.496,12.114 9.012,13.371 10.270 L 15.100 12.000 13.351 13.750 C 11.530 15.573,11.442 15.677,11.441 16.000 C 11.441 16.205,11.602 16.516,11.806 16.704 C 12.146 17.015,12.029 17.004,14.820 16.991 L 17.300 16.980 17.480 16.873 C 17.748 16.714,21.849 12.585,21.960 12.363 C 22.076 12.132,22.076 11.869,21.961 11.637 C 21.899 11.514,21.217 10.804,19.706 9.293 C 17.618 7.204,17.532 7.125,17.323 7.063 C 17.134 7.008,16.787 7.001,14.703 7.004 C 13.381 7.006,12.246 7.022,12.180 7.039 M9.080 10.500 L 10.580 12.000 9.080 13.500 L 7.580 15.000 6.740 15.000 L 5.900 15.000 7.149 13.750 C 8.447 12.450,8.558 12.311,8.558 12.000 C 8.558 11.689,8.447 11.550,7.149 10.250 L 5.900 9.000 6.740 9.000 L 7.580 9.000 9.080 10.500 M18.080 10.500 L 19.580 12.000 18.080 13.500 L 16.580 15.000 15.740 15.000 L 14.900 15.000 16.149 13.750 C 17.447 12.450,17.558 12.311,17.558 12.000 C 17.558 11.689,17.447 11.550,16.149 10.250 L 14.900 9.000 15.740 9.000 L 16.580 9.000 18.080 10.500 " stroke="none" fill="black" fill-rule="evenodd"></path></svg>