<svg xmlns="http://www.w3.org/2000/svg" width="24" height="24" viewBox="0 0 24 24" fill="none" stroke="currentColor" stroke-width="2" stroke-linecap="round" stroke-linejoin="round" class="icon icon-tabler icons-tabler-outline icon-tabler-git-merge"><path d="M6.499 3.040 C 5.363 3.246,4.460 4.049,4.114 5.160 C 3.979 5.594,3.979 6.406,4.114 6.840 C 4.365 7.645,4.931 8.318,5.670 8.688 L 6.000 8.853 6.000 11.999 L 6.000 15.145 5.670 15.313 C 4.922 15.693,4.365 16.355,4.114 17.160 C 3.979 17.594,3.979 18.406,4.114 18.840 C 4.421 19.826,5.174 20.579,6.160 20.886 C 6.594 21.021,7.406 21.021,7.840 20.886 C 8.826 20.579,9.579 19.826,9.886 18.840 C 10.021 18.406,10.021 17.594,9.886 17.160 C 9.635 16.355,9.078 15.693,8.330 15.313 L 8.000 15.145 8.000 13.572 L 8.000 11.999 8.230 12.155 C 8.709 12.479,9.360 12.755,10.000 12.904 C 10.254 12.963,10.595 12.977,12.227 12.997 L 14.155 13.020 14.316 13.340 C 14.686 14.072,15.360 14.637,16.160 14.886 C 16.412 14.964,16.547 14.979,17.000 14.979 C 17.453 14.979,17.588 14.964,17.840 14.886 C 18.826 14.579,19.579 13.826,19.886 12.840 C 20.021 12.406,20.021 11.594,19.886 11.160 C 19.581 10.181,18.822 9.418,17.861 9.125 C 17.588 9.042,17.458 9.027,17.000 9.027 C 16.542 9.027,16.412 9.042,16.139 9.125 C 15.357 9.363,14.679 9.938,14.311 10.672 L 14.144 11.005 12.282 10.991 C 10.463 10.977,10.414 10.975,10.140 10.885 C 9.339 10.620,8.681 10.061,8.321 9.340 C 8.066 8.828,8.065 8.833,8.387 8.664 C 9.087 8.294,9.644 7.616,9.886 6.840 C 10.021 6.406,10.021 5.594,9.886 5.160 C 9.581 4.179,8.810 3.407,7.861 3.129 C 7.500 3.023,6.832 2.980,6.499 3.040 M7.310 5.061 C 7.688 5.173,8.000 5.598,8.000 6.001 C 8.000 6.331,7.784 6.696,7.484 6.872 C 7.328 6.963,7.254 6.980,7.000 6.980 C 6.746 6.980,6.672 6.963,6.516 6.872 C 5.935 6.530,5.833 5.774,6.304 5.303 C 6.583 5.024,6.916 4.944,7.310 5.061 M17.310 11.061 C 17.688 11.173,18.000 11.598,18.000 12.001 C 18.000 12.331,17.784 12.696,17.484 12.872 C 17.328 12.963,17.254 12.980,17.000 12.980 C 16.746 12.980,16.672 12.963,16.516 12.872 C 15.932 12.528,15.831 11.775,16.307 11.299 C 16.582 11.024,16.918 10.944,17.310 11.061 M7.310 17.061 C 7.688 17.173,8.000 17.598,8.000 18.001 C 8.000 18.331,7.784 18.696,7.484 18.872 C 7.328 18.963,7.254 18.980,7.000 18.980 C 6.746 18.980,6.672 18.963,6.516 18.872 C 5.935 18.530,5.833 17.774,6.304 17.303 C 6.583 17.024,6.916 16.944,7.310 17.061 " stroke="none" fill="black" fill-rule="evenodd"></path></svg>