<svg xmlns="http://www.w3.org/2000/svg" width="24" height="24" viewBox="0 0 24 24" fill="none" stroke="currentColor" stroke-width="2" stroke-linecap="round" stroke-linejoin="round" class="icon icon-tabler icons-tabler-outline icon-tabler-database-smile"><path d="M10.920 2.023 C 8.675 2.170,7.174 2.468,5.740 3.051 C 4.888 3.397,4.317 3.758,3.797 4.277 C 3.497 4.577,3.383 4.725,3.268 4.960 C 2.981 5.546,3.000 5.057,3.000 12.000 C 3.000 18.943,2.981 18.454,3.268 19.040 C 3.533 19.583,4.306 20.270,5.104 20.672 C 6.122 21.184,7.641 21.615,9.140 21.818 C 10.142 21.953,10.611 21.979,12.000 21.979 C 13.389 21.979,13.858 21.953,14.860 21.818 C 16.362 21.615,17.875 21.185,18.900 20.670 C 19.682 20.277,20.471 19.575,20.732 19.040 C 21.019 18.454,21.000 18.943,21.000 12.000 C 21.000 5.057,21.019 5.546,20.732 4.960 C 20.617 4.725,20.503 4.577,20.203 4.277 C 19.992 4.067,19.712 3.825,19.581 3.739 C 18.248 2.872,16.465 2.340,14.080 2.098 C 13.533 2.042,11.398 1.992,10.920 2.023 M13.993 4.098 C 15.623 4.269,16.937 4.603,17.940 5.102 C 18.442 5.352,18.824 5.639,18.939 5.853 C 19.018 5.999,19.018 6.001,18.940 6.146 C 18.598 6.780,16.682 7.543,14.740 7.817 C 13.773 7.953,13.353 7.978,12.000 7.978 C 10.647 7.978,10.227 7.953,9.260 7.817 C 7.318 7.543,5.402 6.780,5.060 6.146 C 4.982 6.001,4.982 5.999,5.061 5.853 C 5.313 5.384,6.529 4.787,7.936 4.441 C 8.751 4.240,9.579 4.127,10.980 4.023 C 11.416 3.991,13.453 4.042,13.993 4.098 M5.510 8.855 C 6.726 9.390,8.195 9.735,10.080 9.928 C 10.745 9.996,13.255 9.996,13.920 9.928 C 15.805 9.735,17.274 9.390,18.490 8.855 C 18.715 8.756,18.922 8.665,18.950 8.653 C 18.990 8.636,19.000 9.590,19.000 13.346 L 19.000 18.061 18.902 18.206 C 18.476 18.832,16.617 19.552,14.740 19.817 C 13.773 19.953,13.353 19.978,12.000 19.978 C 10.647 19.978,10.227 19.953,9.260 19.817 C 7.383 19.552,5.524 18.832,5.098 18.206 L 5.000 18.061 5.000 13.346 C 5.000 9.590,5.010 8.636,5.050 8.653 C 5.077 8.665,5.285 8.756,5.510 8.855 M9.614 13.055 C 9.220 13.184,9.039 13.437,9.009 13.900 C 8.978 14.381,9.119 14.699,9.442 14.880 C 9.597 14.967,9.669 14.980,10.000 14.980 C 10.312 14.980,10.408 14.964,10.540 14.894 C 10.866 14.718,11.000 14.459,11.000 14.000 C 11.000 13.357,10.713 13.048,10.083 13.016 C 9.893 13.006,9.718 13.021,9.614 13.055 M13.614 13.055 C 13.220 13.184,13.039 13.437,13.009 13.900 C 12.978 14.381,13.119 14.699,13.442 14.880 C 13.597 14.967,13.669 14.980,14.000 14.980 C 14.312 14.980,14.408 14.964,14.540 14.894 C 14.866 14.718,15.000 14.459,15.000 14.000 C 15.000 13.357,14.713 13.048,14.083 13.016 C 13.893 13.006,13.718 13.021,13.614 13.055 M9.597 16.037 C 9.265 16.217,8.961 16.702,8.960 17.052 C 8.960 17.297,9.067 17.507,9.294 17.705 C 10.022 18.341,11.347 18.725,12.410 18.608 C 12.921 18.552,13.359 18.440,13.769 18.263 C 14.376 18.001,14.817 17.680,14.962 17.397 C 15.124 17.079,15.019 16.638,14.697 16.282 C 14.329 15.875,13.998 15.856,13.376 16.209 C 12.917 16.469,12.705 16.546,12.296 16.603 C 11.968 16.649,11.546 16.607,11.214 16.498 C 11.107 16.462,10.841 16.332,10.622 16.208 C 10.279 16.013,10.192 15.981,9.982 15.971 C 9.801 15.962,9.704 15.979,9.597 16.037 " stroke="none" fill="black" fill-rule="evenodd"></path></svg>