<svg xmlns="http://www.w3.org/2000/svg" width="24" height="24" viewBox="0 0 24 24" fill="none" stroke="currentColor" stroke-width="2" stroke-linecap="round" stroke-linejoin="round" class="icon icon-tabler icons-tabler-outline icon-tabler-credit-card-pay"><path d="M5.358 4.061 C 3.731 4.315,2.417 5.584,2.083 7.227 C 2.002 7.622,2.000 7.744,2.000 12.000 C 2.000 16.256,2.002 16.378,2.083 16.773 C 2.311 17.892,2.985 18.851,3.956 19.436 C 4.285 19.635,4.810 19.832,5.243 19.921 C 5.613 19.996,5.797 20.000,8.926 20.000 C 11.009 20.000,12.273 19.985,12.365 19.959 C 12.586 19.898,12.770 19.755,12.880 19.558 C 12.967 19.402,12.980 19.332,12.979 19.000 C 12.978 18.567,12.898 18.355,12.678 18.199 C 12.398 17.999,12.411 18.000,8.962 18.000 C 5.470 18.000,5.520 18.003,5.083 17.781 C 4.816 17.646,4.449 17.297,4.281 17.017 C 4.004 16.558,4.005 16.564,4.002 13.630 L 4.000 11.000 12.000 11.000 L 20.000 11.000 20.000 11.853 C 20.000 12.825,20.036 13.023,20.249 13.229 C 20.442 13.416,20.647 13.487,20.997 13.488 C 21.348 13.490,21.556 13.418,21.751 13.229 C 21.999 12.989,22.000 12.979,22.000 10.169 C 22.000 7.328,21.992 7.225,21.705 6.516 C 21.172 5.197,20.001 4.269,18.605 4.058 C 18.059 3.976,5.887 3.979,5.358 4.061 M18.523 6.073 C 18.866 6.163,19.198 6.366,19.454 6.642 C 19.883 7.105,19.998 7.479,19.999 8.410 L 20.000 9.000 12.000 9.000 L 4.000 9.000 4.000 8.398 C 4.000 7.996,4.021 7.704,4.062 7.522 C 4.215 6.850,4.801 6.250,5.477 6.073 C 5.720 6.010,6.211 6.005,12.000 6.005 C 17.789 6.005,18.280 6.010,18.523 6.073 M6.590 14.061 C 6.189 14.190,5.969 14.589,6.011 15.109 C 6.039 15.463,6.172 15.707,6.419 15.860 C 6.600 15.972,6.641 15.980,6.997 15.980 C 7.313 15.980,7.408 15.965,7.540 15.894 C 7.866 15.718,8.000 15.459,8.000 15.000 C 8.000 14.356,7.713 14.048,7.083 14.016 C 6.882 14.006,6.716 14.021,6.590 14.061 M10.614 14.057 C 10.377 14.131,10.212 14.261,10.109 14.453 C 10.035 14.592,10.020 14.684,10.020 15.000 C 10.020 15.331,10.033 15.403,10.120 15.558 C 10.230 15.755,10.414 15.898,10.635 15.959 C 10.826 16.012,13.174 16.012,13.365 15.959 C 13.586 15.898,13.770 15.755,13.880 15.558 C 13.967 15.402,13.980 15.332,13.979 15.000 C 13.978 14.687,13.962 14.591,13.890 14.453 C 13.786 14.256,13.623 14.131,13.371 14.055 C 13.117 13.979,10.859 13.981,10.614 14.057 M18.626 15.045 C 18.257 15.239,17.951 15.673,17.951 16.000 C 17.951 16.307,18.079 16.487,18.853 17.270 L 19.575 18.000 17.694 18.000 C 15.689 18.000,15.589 18.008,15.322 18.199 C 15.100 18.357,15.020 18.568,15.020 19.000 C 15.020 19.331,15.033 19.403,15.120 19.558 C 15.230 19.755,15.414 19.898,15.635 19.959 C 15.723 19.984,16.530 20.000,17.678 20.000 L 19.575 20.000 18.853 20.730 C 18.420 21.168,18.095 21.531,18.041 21.637 C 17.863 21.988,17.952 22.354,18.299 22.701 C 18.646 23.048,19.011 23.137,19.363 22.960 C 19.480 22.901,20.051 22.365,21.062 21.365 C 21.899 20.537,22.634 19.826,22.697 19.784 C 22.850 19.682,23.049 19.238,23.049 19.000 C 23.049 18.745,22.851 18.321,22.676 18.201 C 22.601 18.150,21.865 17.438,21.040 16.618 C 20.085 15.670,19.479 15.098,19.372 15.044 C 19.152 14.934,18.835 14.934,18.626 15.045 " stroke="none" fill="black" fill-rule="evenodd"></path></svg>