<svg xmlns="http://www.w3.org/2000/svg" width="24" height="24" viewBox="0 0 24 24" fill="none" stroke="currentColor" stroke-width="2" stroke-linecap="round" stroke-linejoin="round" class="icon icon-tabler icons-tabler-outline icon-tabler-brand-kotlin"><path d="M7.720 3.000 C 4.552 3.016,3.635 3.031,3.545 3.071 C 3.338 3.163,3.200 3.284,3.109 3.453 L 3.020 3.620 2.994 7.780 C 2.979 10.068,2.970 12.003,2.974 12.080 C 2.985 12.337,2.975 19.797,2.963 19.991 C 2.950 20.201,3.120 20.640,3.265 20.768 C 3.426 20.910,3.811 21.049,4.010 21.037 C 4.114 21.030,7.710 21.025,12.000 21.025 C 16.290 21.025,19.886 21.030,19.990 21.037 C 20.189 21.049,20.574 20.910,20.735 20.768 C 20.864 20.654,21.049 20.201,21.049 20.000 C 21.049 19.717,20.851 19.319,20.635 19.168 C 20.539 19.101,18.876 17.460,16.940 15.523 L 13.420 12.000 16.940 8.478 C 18.876 6.540,20.532 4.907,20.620 4.848 C 20.829 4.707,21.049 4.275,21.049 4.004 C 21.049 3.757,20.853 3.323,20.688 3.206 C 20.378 2.985,20.619 2.996,16.026 2.988 C 13.691 2.983,9.953 2.989,7.720 3.000 M9.560 5.010 C 9.560 5.016,8.534 6.046,7.280 7.300 L 5.000 9.580 5.000 7.290 L 5.000 5.000 7.280 5.000 C 8.534 5.000,9.560 5.005,9.560 5.010 M11.300 11.280 L 5.020 17.560 5.010 14.990 L 4.999 12.421 8.710 8.710 L 12.420 5.000 15.000 5.000 L 17.580 5.000 11.300 11.280 M14.800 16.220 L 17.580 19.000 12.000 19.000 L 6.420 19.000 9.200 16.220 C 10.729 14.691,11.989 13.440,12.000 13.440 C 12.011 13.440,13.271 14.691,14.800 16.220 " stroke="none" fill="black" fill-rule="evenodd"></path></svg>