<svg xmlns="http://www.w3.org/2000/svg" width="24" height="24" viewBox="0 0 24 24" fill="none" stroke="currentColor" stroke-width="2" stroke-linecap="round" stroke-linejoin="round" class="icon icon-tabler icons-tabler-outline icon-tabler-clothes-rack"><path d="M11.499 2.040 C 10.363 2.246,9.460 3.049,9.114 4.160 C 8.979 4.594,8.979 5.406,9.114 5.840 C 9.365 6.645,9.931 7.318,10.670 7.688 L 11.000 7.853 11.000 8.871 L 11.000 9.889 10.850 9.861 C 10.609 9.817,10.125 9.641,9.788 9.476 C 9.365 9.268,9.005 9.021,8.600 8.660 C 8.202 8.305,8.006 8.200,7.746 8.200 C 7.503 8.200,7.279 8.314,7.040 8.560 C 6.807 8.800,6.711 8.998,6.711 9.240 C 6.711 9.513,6.816 9.702,7.150 10.030 C 8.119 10.982,9.515 11.691,10.830 11.900 L 11.000 11.927 11.000 15.964 L 11.000 20.000 9.906 20.000 C 8.744 20.000,8.570 20.022,8.322 20.199 C 8.100 20.357,8.020 20.568,8.020 21.000 C 8.020 21.331,8.033 21.403,8.120 21.558 C 8.230 21.755,8.414 21.898,8.635 21.959 C 8.832 22.014,15.168 22.014,15.365 21.959 C 15.586 21.898,15.770 21.755,15.880 21.558 C 15.967 21.402,15.980 21.332,15.979 21.000 C 15.978 20.567,15.898 20.355,15.678 20.199 C 15.430 20.022,15.256 20.000,14.094 20.000 L 13.000 20.000 13.000 15.964 L 13.000 11.927 13.170 11.900 C 13.961 11.774,14.926 11.409,15.669 10.954 C 16.304 10.566,17.082 9.877,17.217 9.584 C 17.374 9.245,17.276 8.874,16.941 8.539 C 16.712 8.310,16.490 8.200,16.254 8.200 C 15.994 8.200,15.798 8.305,15.400 8.660 C 15.001 9.015,14.638 9.266,14.232 9.467 C 13.912 9.625,13.385 9.817,13.150 9.861 L 13.000 9.889 13.000 8.871 L 13.000 7.853 13.330 7.688 C 14.069 7.318,14.635 6.645,14.886 5.840 C 15.021 5.406,15.021 4.594,14.886 4.160 C 14.581 3.179,13.810 2.407,12.861 2.129 C 12.500 2.023,11.832 1.980,11.499 2.040 M12.310 4.061 C 12.688 4.173,13.000 4.598,13.000 5.001 C 13.000 5.331,12.784 5.696,12.484 5.872 C 12.328 5.963,12.254 5.980,12.000 5.980 C 11.746 5.980,11.672 5.963,11.516 5.872 C 10.935 5.530,10.833 4.774,11.304 4.303 C 11.583 4.024,11.916 3.944,12.310 4.061 " stroke="none" fill="black" fill-rule="evenodd"></path></svg>