<svg xmlns="http://www.w3.org/2000/svg" width="24" height="24" viewBox="0 0 24 24" fill="none" stroke="currentColor" stroke-width="2" stroke-linecap="round" stroke-linejoin="round" class="icon icon-tabler icons-tabler-outline icon-tabler-beer-off"><path d="M2.626 2.045 C 2.420 2.154,2.146 2.433,2.038 2.644 C 1.924 2.868,1.924 3.132,2.040 3.363 C 2.101 3.484,2.737 4.151,4.060 5.480 L 5.992 7.420 6.012 8.260 C 6.051 9.815,6.333 10.905,7.086 12.411 C 7.556 13.352,7.738 13.868,7.905 14.740 C 7.965 15.050,7.978 15.469,7.997 17.740 L 8.020 20.380 8.120 20.558 C 8.230 20.755,8.414 20.898,8.635 20.959 C 8.832 21.014,15.168 21.014,15.365 20.959 C 15.586 20.898,15.770 20.755,15.880 20.558 L 15.980 20.380 15.992 18.903 L 16.005 17.426 18.232 19.649 C 19.777 21.190,20.514 21.899,20.637 21.960 C 20.990 22.137,21.354 22.048,21.701 21.701 C 22.048 21.354,22.137 20.990,21.960 20.637 C 21.888 20.492,18.823 17.362,15.808 14.352 C 14.856 13.402,8.833 7.378,8.760 7.304 C 8.705 7.247,8.480 7.022,8.260 6.803 C 8.040 6.585,7.815 6.360,7.760 6.305 C 6.098 4.629,3.504 2.111,3.372 2.045 C 3.152 1.934,2.835 1.934,2.626 2.045 M7.614 3.057 C 7.377 3.131,7.212 3.261,7.109 3.453 C 7.035 3.592,7.020 3.684,7.020 4.000 C 7.020 4.331,7.033 4.403,7.120 4.558 C 7.230 4.755,7.414 4.898,7.635 4.959 C 7.728 4.985,9.260 5.000,11.890 5.000 L 16.000 5.000 16.000 6.000 L 16.000 7.000 13.906 7.000 C 11.674 7.000,11.592 7.006,11.322 7.199 C 11.100 7.357,11.020 7.568,11.020 8.000 C 11.020 8.331,11.033 8.403,11.120 8.558 C 11.230 8.755,11.414 8.898,11.635 8.959 C 11.724 8.984,12.587 9.000,13.850 9.000 L 15.920 9.000 15.920 9.105 C 15.920 9.290,15.717 10.129,15.592 10.460 C 15.525 10.636,15.364 11.007,15.234 11.284 C 14.960 11.869,14.913 12.105,15.017 12.378 C 15.190 12.829,15.925 13.156,16.379 12.983 C 16.631 12.886,16.780 12.693,17.063 12.100 C 17.493 11.197,17.716 10.510,17.889 9.557 C 17.977 9.073,17.979 8.987,17.979 6.340 L 17.980 3.620 17.891 3.453 C 17.785 3.256,17.622 3.131,17.371 3.055 C 17.108 2.976,7.867 2.978,7.614 3.057 M14.000 17.210 L 14.000 19.000 12.003 19.000 L 10.007 19.000 9.990 16.950 C 9.974 15.063,9.965 14.862,9.885 14.422 C 9.699 13.401,9.493 12.800,8.918 11.600 C 8.501 10.729,8.357 10.377,8.257 9.984 C 8.224 9.850,8.186 9.704,8.174 9.660 C 8.162 9.616,9.468 10.894,11.076 12.500 L 14.000 15.420 14.000 17.210 " stroke="none" fill="black" fill-rule="evenodd"></path></svg>