<svg xmlns="http://www.w3.org/2000/svg" width="24" height="24" viewBox="0 0 24 24" fill="none" stroke="currentColor" stroke-width="2" stroke-linecap="round" stroke-linejoin="round" class="icon icon-tabler icons-tabler-outline icon-tabler-help-small"><path d="M11.440 8.058 C 11.297 8.089,11.102 8.142,11.008 8.176 C 10.203 8.466,9.442 9.217,9.440 9.722 C 9.439 10.052,9.769 10.475,10.174 10.663 C 10.548 10.838,10.807 10.775,11.193 10.419 C 11.607 10.036,11.852 9.947,12.236 10.039 C 12.926 10.205,13.220 11.013,12.802 11.591 C 12.616 11.848,12.390 11.958,11.953 12.003 C 11.311 12.069,11.046 12.320,11.009 12.896 C 10.978 13.381,11.118 13.699,11.442 13.880 C 11.602 13.970,11.664 13.980,12.060 13.979 C 12.770 13.977,13.316 13.781,13.893 13.323 C 14.574 12.782,14.948 12.031,14.989 11.119 C 15.014 10.566,14.932 10.176,14.683 9.664 C 14.320 8.917,13.597 8.324,12.780 8.101 C 12.447 8.010,11.765 7.988,11.440 8.058 M11.614 15.057 C 11.221 15.180,11.039 15.435,11.009 15.906 C 10.962 16.621,11.306 17.000,12.000 17.000 C 12.698 17.000,13.043 16.616,12.989 15.900 C 12.963 15.563,12.859 15.327,12.678 15.199 C 12.414 15.010,11.957 14.950,11.614 15.057 " stroke="none" fill="black" fill-rule="evenodd"></path></svg>