<svg xmlns="http://www.w3.org/2000/svg" width="24" height="24" viewBox="0 0 24 24" fill="none" stroke="currentColor" stroke-width="2" stroke-linecap="round" stroke-linejoin="round" class="icon icon-tabler icons-tabler-outline icon-tabler-map-x"><path d="M20.780 3.016 C 20.692 3.045,19.355 3.700,17.810 4.474 L 15.000 5.880 12.370 4.559 C 10.923 3.832,9.650 3.188,9.541 3.129 C 9.369 3.034,9.297 3.020,9.000 3.020 C 8.703 3.020,8.631 3.034,8.459 3.129 C 8.350 3.188,6.935 3.903,5.315 4.717 C 2.132 6.316,2.159 6.300,2.046 6.674 C 2.012 6.789,2.000 8.552,2.000 13.493 C 2.000 20.068,2.001 20.160,2.080 20.372 C 2.188 20.659,2.398 20.897,2.620 20.982 C 2.995 21.125,2.953 21.142,6.109 19.565 L 9.001 18.120 11.319 19.280 C 12.595 19.917,13.742 20.468,13.870 20.504 C 14.059 20.556,14.133 20.560,14.273 20.522 C 14.502 20.460,14.740 20.237,14.886 19.949 C 15.115 19.494,15.071 19.106,14.759 18.824 C 14.658 18.733,13.783 18.273,12.301 17.531 L 10.000 16.380 10.000 11.010 C 10.000 8.056,10.009 5.640,10.020 5.640 C 10.031 5.640,10.931 6.085,12.020 6.630 L 14.000 7.620 14.000 10.663 C 14.000 14.028,13.997 13.985,14.249 14.229 C 14.442 14.416,14.647 14.487,14.997 14.488 C 15.348 14.490,15.556 14.418,15.751 14.229 C 16.003 13.985,16.000 14.028,16.000 10.663 L 16.000 7.620 17.980 6.630 C 19.069 6.085,19.969 5.640,19.980 5.640 C 19.991 5.640,20.000 7.345,20.000 9.430 C 20.000 11.846,20.015 13.272,20.041 13.365 C 20.148 13.750,20.437 13.962,20.896 13.991 C 21.381 14.022,21.699 13.882,21.880 13.558 L 21.980 13.380 21.991 8.614 C 22.001 3.932,22.000 3.843,21.922 3.634 C 21.719 3.092,21.282 2.856,20.780 3.016 M8.000 11.010 L 8.000 16.380 6.020 17.370 C 4.931 17.915,4.031 18.360,4.020 18.360 C 4.009 18.360,4.000 15.943,4.000 12.990 L 4.000 7.620 5.970 6.632 C 7.054 6.089,7.954 5.643,7.970 5.642 C 7.987 5.641,8.000 8.057,8.000 11.010 M16.626 16.045 C 16.257 16.239,15.951 16.673,15.951 17.000 C 15.951 17.323,16.068 17.478,17.103 18.520 L 18.077 19.500 17.103 20.480 C 16.068 21.522,15.951 21.677,15.951 22.000 C 15.951 22.477,16.523 23.049,17.000 23.049 C 17.323 23.049,17.478 22.932,18.520 21.897 L 19.500 20.923 20.480 21.897 C 21.522 22.932,21.677 23.049,22.000 23.049 C 22.477 23.049,23.049 22.477,23.049 22.000 C 23.049 21.677,22.932 21.522,21.897 20.480 L 20.923 19.500 21.897 18.520 C 22.518 17.895,22.903 17.476,22.960 17.363 C 23.137 17.011,23.048 16.646,22.701 16.299 C 22.360 15.958,21.979 15.868,21.628 16.045 C 21.527 16.096,21.072 16.515,20.480 17.103 L 19.500 18.077 18.520 17.103 C 17.927 16.514,17.474 16.096,17.372 16.045 C 17.152 15.934,16.835 15.934,16.626 16.045 " stroke="none" fill="black" fill-rule="evenodd"></path></svg>