<svg xmlns="http://www.w3.org/2000/svg" width="24" height="24" viewBox="0 0 24 24" fill="none" stroke="currentColor" stroke-width="2" stroke-linecap="round" stroke-linejoin="round" class="icon icon-tabler icons-tabler-outline icon-tabler-ironing"><path d="M8.614 5.057 C 8.376 5.132,8.212 5.261,8.109 5.453 C 8.035 5.592,8.020 5.684,8.020 6.000 C 8.020 6.331,8.033 6.403,8.120 6.558 C 8.230 6.755,8.414 6.898,8.635 6.959 C 8.728 6.985,10.185 7.000,12.660 7.000 C 15.141 7.000,16.634 7.016,16.800 7.042 C 17.497 7.153,18.162 7.738,18.367 8.420 C 18.404 8.546,18.640 9.864,18.640 9.950 C 18.640 9.990,17.719 10.000,14.170 10.000 C 11.413 10.000,9.534 10.016,9.266 10.041 C 8.274 10.135,7.384 10.385,6.501 10.817 C 3.988 12.045,2.328 14.431,2.037 17.231 C 1.970 17.881,1.999 18.336,2.122 18.559 C 2.230 18.755,2.413 18.898,2.635 18.959 C 2.851 19.019,19.967 19.015,20.247 18.955 C 21.068 18.779,21.678 18.108,21.806 17.240 C 21.842 16.997,21.798 16.698,21.104 12.540 C 20.697 10.097,20.325 7.973,20.277 7.820 C 20.082 7.185,19.809 6.730,19.327 6.231 C 18.810 5.697,18.160 5.313,17.440 5.115 L 17.100 5.022 12.940 5.013 C 9.587 5.006,8.748 5.014,8.614 5.057 M19.394 14.483 C 19.621 15.849,19.800 16.974,19.790 16.983 C 19.781 16.993,16.245 16.996,11.933 16.990 L 4.093 16.980 4.149 16.700 C 4.180 16.546,4.261 16.258,4.329 16.060 C 5.080 13.862,7.081 12.270,9.380 12.043 C 9.556 12.025,11.788 12.008,14.340 12.005 L 18.981 12.000 19.394 14.483 " stroke="none" fill="black" fill-rule="evenodd"></path></svg>