<svg xmlns="http://www.w3.org/2000/svg" width="24" height="24" viewBox="0 0 24 24" fill="none" stroke="currentColor" stroke-width="2" stroke-linecap="round" stroke-linejoin="round" class="icon icon-tabler icons-tabler-outline icon-tabler-ball-american-football-off"><path d="M2.626 2.045 C 2.420 2.154,2.146 2.433,2.038 2.644 C 1.924 2.868,1.924 3.133,2.040 3.363 C 2.100 3.483,2.657 4.070,3.769 5.186 L 5.410 6.832 5.088 7.231 C 4.076 8.480,3.257 9.981,2.737 11.540 C 2.224 13.076,2.021 14.290,2.022 15.820 C 2.023 16.626,2.034 16.792,2.114 17.160 C 2.640 19.589,4.409 21.358,6.840 21.886 C 7.211 21.967,7.369 21.977,8.200 21.977 C 9.134 21.976,9.438 21.951,10.380 21.795 C 12.623 21.424,14.897 20.402,16.735 18.939 L 17.170 18.592 18.815 20.232 C 19.930 21.343,20.517 21.900,20.637 21.960 C 20.989 22.137,21.354 22.048,21.701 21.701 C 22.047 21.355,22.136 20.990,21.961 20.637 C 21.839 20.392,3.616 2.165,3.372 2.044 C 3.152 1.934,2.834 1.935,2.626 2.045 M15.300 2.027 C 13.348 2.123,11.366 2.648,9.656 3.522 C 8.519 4.104,8.081 4.436,8.009 4.775 C 7.887 5.346,8.438 6.078,8.990 6.080 C 9.142 6.080,9.441 5.946,9.908 5.669 C 11.396 4.785,12.910 4.278,14.655 4.079 C 14.872 4.054,15.063 4.048,15.078 4.067 C 15.094 4.085,15.130 4.208,15.157 4.340 C 15.365 5.335,15.991 6.465,16.763 7.237 C 17.535 8.009,18.665 8.635,19.660 8.843 C 19.792 8.870,19.914 8.905,19.932 8.920 C 20.002 8.981,19.810 10.208,19.602 11.029 C 19.342 12.057,18.882 13.163,18.326 14.100 C 17.911 14.799,17.851 15.024,17.995 15.340 C 18.147 15.675,18.681 16.018,19.042 16.012 C 19.421 16.007,19.643 15.811,20.058 15.120 C 20.874 13.758,21.497 12.066,21.780 10.440 C 21.936 9.547,21.977 9.064,21.977 8.140 C 21.977 7.375,21.965 7.205,21.886 6.840 C 21.473 4.931,20.323 3.453,18.580 2.590 C 17.656 2.132,16.653 1.960,15.300 2.027 M17.780 4.440 C 18.520 4.802,19.149 5.411,19.522 6.128 C 19.697 6.465,19.812 6.761,19.781 6.792 C 19.750 6.823,19.251 6.605,18.953 6.430 C 18.319 6.060,17.742 5.425,17.417 4.740 C 17.323 4.542,17.234 4.338,17.219 4.286 C 17.195 4.202,17.202 4.195,17.286 4.218 C 17.338 4.232,17.560 4.332,17.780 4.440 M14.620 8.046 C 14.396 8.163,13.151 9.416,13.040 9.637 C 12.863 9.989,12.952 10.354,13.299 10.701 C 13.646 11.048,14.011 11.137,14.363 10.960 C 14.600 10.841,15.841 9.600,15.960 9.363 C 16.137 9.011,16.048 8.646,15.701 8.299 C 15.361 7.959,14.967 7.867,14.620 8.046 M8.240 9.660 L 9.619 11.039 9.519 11.107 C 9.351 11.221,9.124 11.475,9.035 11.649 C 8.856 12.002,8.947 12.328,9.345 12.759 L 9.572 13.003 8.851 13.732 C 8.079 14.513,7.951 14.693,7.951 15.000 C 7.951 15.477,8.523 16.049,9.000 16.049 C 9.307 16.049,9.487 15.921,10.268 15.149 L 10.997 14.428 11.241 14.655 C 11.672 15.053,11.998 15.144,12.351 14.965 C 12.525 14.876,12.779 14.649,12.893 14.481 L 12.961 14.381 14.340 15.760 C 15.099 16.519,15.714 17.158,15.707 17.180 C 15.700 17.202,15.468 17.391,15.192 17.600 C 14.009 18.497,12.630 19.169,11.120 19.586 C 10.534 19.748,9.591 19.916,9.192 19.930 L 8.911 19.940 8.822 19.580 C 8.391 17.827,7.242 16.413,5.580 15.590 C 5.223 15.413,4.656 15.219,4.305 15.152 L 4.032 15.100 4.059 14.821 C 4.247 12.915,4.924 11.003,5.980 9.400 C 6.264 8.969,6.788 8.280,6.831 8.280 C 6.847 8.280,7.481 8.901,8.240 9.660 M4.780 17.440 C 5.520 17.802,6.149 18.411,6.522 19.128 C 6.697 19.465,6.812 19.761,6.781 19.792 C 6.750 19.823,6.251 19.605,5.953 19.430 C 5.319 19.060,4.742 18.425,4.417 17.740 C 4.323 17.542,4.234 17.338,4.219 17.286 C 4.195 17.202,4.202 17.195,4.286 17.218 C 4.338 17.232,4.560 17.332,4.780 17.440 " stroke="none" fill="black" fill-rule="evenodd"></path></svg>