<svg xmlns="http://www.w3.org/2000/svg" width="24" height="24" viewBox="0 0 24 24" fill="none" stroke="currentColor" stroke-width="2" stroke-linecap="round" stroke-linejoin="round" class="icon icon-tabler icons-tabler-outline icon-tabler-wallpaper-off"><path d="M2.626 2.045 C 2.257 2.239,1.951 2.673,1.951 3.000 C 1.951 3.293,2.085 3.492,2.702 4.120 L 3.273 4.700 3.146 5.060 L 3.020 5.420 3.020 11.980 L 3.020 18.540 3.114 18.840 C 3.422 19.827,4.173 20.578,5.160 20.886 L 5.460 20.980 12.020 20.980 L 18.580 20.980 18.940 20.854 L 19.300 20.727 19.880 21.298 C 20.205 21.617,20.538 21.908,20.637 21.959 C 20.988 22.137,21.353 22.049,21.701 21.701 C 22.047 21.355,22.137 20.990,21.961 20.637 C 21.897 20.510,20.038 18.620,15.353 13.920 C 11.768 10.323,8.795 7.340,8.747 7.292 C 8.699 7.244,7.508 6.062,6.100 4.667 C 4.415 2.996,3.482 2.100,3.372 2.044 C 3.152 1.934,2.835 1.935,2.626 2.045 M9.614 5.057 C 9.376 5.132,9.212 5.261,9.109 5.453 C 9.035 5.592,9.020 5.684,9.020 6.000 C 9.020 6.331,9.033 6.403,9.120 6.558 C 9.230 6.755,9.414 6.898,9.635 6.959 C 9.728 6.985,11.277 7.000,13.943 7.000 C 18.647 7.000,18.376 6.983,18.697 7.303 C 19.017 7.624,19.000 7.353,19.000 12.057 C 19.000 14.723,19.015 16.272,19.041 16.365 C 19.148 16.750,19.437 16.962,19.896 16.991 C 20.381 17.022,20.699 16.882,20.880 16.558 L 20.980 16.380 20.980 11.920 L 20.980 7.460 20.886 7.160 C 20.581 6.182,19.832 5.428,18.861 5.121 L 18.540 5.020 14.160 5.012 C 10.632 5.006,9.748 5.014,9.614 5.057 M7.000 11.792 C 7.000 14.986,6.996 15.164,6.930 15.145 C 6.891 15.134,6.779 15.102,6.680 15.074 C 6.446 15.009,5.554 15.009,5.320 15.074 C 5.221 15.102,5.109 15.134,5.070 15.145 C 5.004 15.164,5.000 14.938,5.000 10.793 L 5.000 6.421 6.000 7.420 L 7.000 8.419 7.000 11.792 M13.214 18.990 C 10.823 18.996,8.862 18.995,8.855 18.988 C 8.848 18.982,8.874 18.887,8.911 18.778 C 8.973 18.597,8.980 18.220,8.991 14.501 L 9.003 10.423 13.281 14.701 L 17.560 18.980 13.214 18.990 M6.310 17.061 C 6.688 17.173,7.000 17.598,7.000 18.001 C 7.000 18.331,6.784 18.696,6.484 18.872 C 6.328 18.963,6.254 18.980,6.000 18.980 C 5.746 18.980,5.672 18.963,5.516 18.872 C 4.935 18.530,4.833 17.774,5.304 17.303 C 5.583 17.024,5.916 16.944,6.310 17.061 " stroke="none" fill="black" fill-rule="evenodd"></path></svg>