<svg xmlns="http://www.w3.org/2000/svg" width="24" height="24" viewBox="0 0 24 24" fill="none" stroke="currentColor" stroke-width="2" stroke-linecap="round" stroke-linejoin="round" class="icon icon-tabler icons-tabler-outline icon-tabler-eyeglass"><path d="M5.657 3.056 C 5.413 3.133,5.249 3.273,5.141 3.498 C 5.087 3.609,4.396 5.860,3.603 8.500 C 2.811 11.140,2.125 13.408,2.078 13.540 C 1.996 13.770,1.993 13.841,1.998 15.333 C 2.003 17.035,2.028 17.292,2.241 17.929 C 2.466 18.601,2.815 19.162,3.326 19.674 C 3.838 20.185,4.399 20.534,5.071 20.759 C 6.020 21.077,6.980 21.077,7.929 20.759 C 9.322 20.292,10.407 19.161,10.817 17.747 C 10.872 17.557,10.929 17.311,10.944 17.201 L 10.970 17.000 12.000 17.000 L 13.030 17.000 13.056 17.201 C 13.096 17.501,13.266 18.054,13.421 18.391 C 13.831 19.278,14.625 20.093,15.511 20.536 C 16.305 20.934,17.356 21.090,18.225 20.938 C 19.179 20.772,19.999 20.348,20.674 19.674 C 21.185 19.162,21.534 18.601,21.759 17.929 C 21.972 17.292,21.997 17.035,22.002 15.333 C 22.007 13.841,22.004 13.770,21.922 13.540 C 21.875 13.408,21.188 11.140,20.395 8.500 C 19.603 5.860,18.920 3.623,18.879 3.530 C 18.779 3.302,18.583 3.130,18.343 3.059 C 18.066 2.976,15.900 2.974,15.629 3.055 C 15.378 3.131,15.215 3.256,15.109 3.453 C 15.035 3.592,15.020 3.684,15.020 4.000 C 15.020 4.331,15.033 4.403,15.120 4.558 C 15.230 4.755,15.414 4.898,15.635 4.959 C 15.715 4.981,16.113 5.000,16.520 5.000 L 17.260 5.001 18.433 8.917 C 19.078 11.071,19.616 12.871,19.628 12.917 L 19.649 13.000 16.731 13.000 C 13.612 13.000,13.600 13.001,13.322 13.199 C 13.254 13.247,13.158 13.362,13.109 13.453 C 13.029 13.603,13.019 13.689,13.007 14.310 L 12.993 15.000 12.001 15.000 L 11.008 15.000 10.993 14.310 C 10.976 13.541,10.930 13.378,10.678 13.199 C 10.400 13.001,10.388 13.000,7.269 13.000 L 4.351 13.000 4.372 12.917 C 4.384 12.871,4.922 11.071,5.567 8.917 L 6.740 5.001 7.480 5.000 C 7.887 5.000,8.285 4.981,8.365 4.959 C 8.586 4.898,8.770 4.755,8.880 4.558 C 8.967 4.402,8.980 4.332,8.979 4.000 C 8.978 3.687,8.962 3.591,8.890 3.453 C 8.786 3.256,8.623 3.131,8.371 3.055 C 8.120 2.980,5.899 2.981,5.657 3.056 M8.999 15.870 C 8.998 16.885,8.957 17.147,8.723 17.620 C 8.439 18.195,7.932 18.646,7.320 18.868 C 7.052 18.965,6.965 18.976,6.500 18.976 C 6.035 18.976,5.948 18.965,5.680 18.868 C 5.068 18.646,4.561 18.195,4.277 17.620 C 4.043 17.147,4.002 16.885,4.001 15.870 L 4.000 15.000 6.500 15.000 L 9.000 15.000 8.999 15.870 M19.999 15.870 C 19.998 16.885,19.957 17.147,19.723 17.620 C 19.439 18.195,18.932 18.646,18.320 18.868 C 18.052 18.965,17.965 18.976,17.500 18.976 C 17.035 18.976,16.948 18.965,16.680 18.868 C 16.068 18.646,15.561 18.195,15.277 17.620 C 15.043 17.147,15.002 16.885,15.001 15.870 L 15.000 15.000 17.500 15.000 L 20.000 15.000 19.999 15.870 " stroke="none" fill="black" fill-rule="evenodd"></path></svg>