<svg xmlns="http://www.w3.org/2000/svg" width="24" height="24" viewBox="0 0 24 24" fill="none" stroke="currentColor" stroke-width="2" stroke-linecap="round" stroke-linejoin="round" class="icon icon-tabler icons-tabler-outline icon-tabler-device-vision-pro"><path d="M10.008 6.043 C 7.211 6.149,5.431 6.482,4.060 7.158 C 3.378 7.493,2.999 7.758,2.536 8.218 C 1.630 9.119,1.191 10.110,1.036 11.598 C 0.974 12.194,1.011 13.204,1.116 13.804 C 1.532 16.186,3.094 18.015,5.149 18.529 C 5.445 18.603,5.616 18.617,6.240 18.618 C 7.062 18.620,7.303 18.586,7.967 18.374 C 8.588 18.176,9.182 17.857,10.214 17.168 C 11.477 16.324,11.525 16.301,12.000 16.300 C 12.374 16.300,12.385 16.303,12.698 16.475 C 12.872 16.572,13.391 16.903,13.851 17.211 C 14.804 17.850,15.419 18.178,16.033 18.374 C 16.697 18.586,16.938 18.620,17.760 18.618 C 18.384 18.617,18.555 18.603,18.851 18.529 C 20.906 18.016,22.446 16.214,22.889 13.804 C 23.001 13.191,23.013 11.713,22.909 11.120 C 22.696 9.895,22.249 8.997,21.465 8.217 C 20.996 7.750,20.625 7.495,19.900 7.139 C 19.078 6.736,18.230 6.490,17.002 6.298 C 15.412 6.048,12.590 5.946,10.008 6.043 M13.860 8.041 C 16.852 8.154,18.465 8.495,19.609 9.254 C 20.178 9.632,20.662 10.325,20.838 11.013 C 21.012 11.694,21.037 12.706,20.899 13.500 C 20.737 14.429,20.292 15.285,19.672 15.859 C 19.323 16.183,19.033 16.361,18.620 16.507 C 18.320 16.613,18.261 16.620,17.680 16.618 C 17.088 16.616,17.043 16.610,16.680 16.485 C 16.166 16.309,15.764 16.089,14.939 15.531 C 13.322 14.438,12.853 14.249,11.860 14.290 C 11.015 14.324,10.589 14.511,9.136 15.484 C 8.253 16.075,7.902 16.274,7.454 16.437 C 6.565 16.761,5.550 16.691,4.835 16.257 C 3.977 15.736,3.304 14.666,3.101 13.499 C 2.962 12.701,2.986 11.708,3.161 11.010 C 3.297 10.467,3.527 10.073,3.960 9.639 C 4.290 9.309,4.399 9.228,4.782 9.031 C 5.524 8.649,6.336 8.418,7.547 8.243 C 8.986 8.036,11.543 7.954,13.860 8.041 " stroke="none" fill="black" fill-rule="evenodd"></path></svg>