<svg xmlns="http://www.w3.org/2000/svg" width="24" height="24" viewBox="0 0 24 24" fill="none" stroke="currentColor" stroke-width="2" stroke-linecap="round" stroke-linejoin="round" class="icon icon-tabler icons-tabler-outline icon-tabler-eye-check"><path d="M11.160 5.043 C 7.815 5.297,4.962 7.199,2.619 10.738 C 2.100 11.523,2.001 11.724,2.001 12.000 C 2.001 12.165,2.031 12.279,2.121 12.458 C 2.314 12.837,3.117 14.013,3.585 14.600 C 4.094 15.238,5.183 16.344,5.722 16.769 C 7.203 17.938,8.805 18.642,10.565 18.898 C 11.293 19.004,11.538 18.972,11.800 18.735 C 12.155 18.414,12.212 17.639,11.907 17.291 C 11.733 17.093,11.538 17.018,11.000 16.941 C 8.388 16.567,6.384 15.174,4.423 12.367 C 4.147 11.972,4.136 12.036,4.600 11.384 C 5.096 10.690,5.418 10.303,5.980 9.725 C 6.846 8.835,7.662 8.233,8.615 7.781 C 9.786 7.225,10.690 7.023,12.000 7.023 C 13.310 7.023,14.214 7.225,15.385 7.781 C 16.918 8.508,18.342 9.818,19.573 11.635 C 19.698 11.819,19.800 11.987,19.800 12.007 C 19.800 12.027,19.709 12.179,19.598 12.344 C 19.274 12.824,19.215 13.074,19.356 13.383 C 19.514 13.731,20.033 14.080,20.392 14.080 C 20.751 14.080,20.990 13.871,21.464 13.140 C 21.912 12.450,21.999 12.264,21.999 12.000 C 21.999 11.724,21.900 11.523,21.381 10.738 C 19.612 8.066,17.564 6.336,15.220 5.534 C 13.942 5.097,12.596 4.934,11.160 5.043 M11.499 9.040 C 10.363 9.246,9.460 10.049,9.114 11.160 C 8.979 11.594,8.979 12.406,9.114 12.840 C 9.421 13.826,10.174 14.579,11.160 14.886 C 11.594 15.021,12.406 15.021,12.840 14.886 C 13.826 14.579,14.579 13.826,14.886 12.840 C 15.021 12.406,15.021 11.594,14.886 11.160 C 14.581 10.179,13.810 9.407,12.861 9.129 C 12.500 9.023,11.832 8.980,11.499 9.040 M12.310 11.061 C 12.688 11.173,13.000 11.598,13.000 12.001 C 13.000 12.331,12.784 12.696,12.484 12.872 C 12.328 12.963,12.254 12.980,12.000 12.980 C 11.746 12.980,11.672 12.963,11.516 12.872 C 10.935 12.530,10.833 11.774,11.304 11.303 C 11.583 11.024,11.916 10.944,12.310 11.061 M20.620 16.046 C 20.525 16.095,19.753 16.834,18.731 17.853 L 17.001 19.577 16.271 18.854 C 15.856 18.444,15.467 18.094,15.372 18.045 C 15.021 17.868,14.640 17.958,14.299 18.299 C 13.952 18.646,13.863 19.010,14.040 19.363 C 14.162 19.607,16.393 21.838,16.637 21.960 C 16.868 22.076,17.132 22.076,17.363 21.961 C 17.486 21.899,18.197 21.215,19.706 19.706 C 21.215 18.197,21.899 17.486,21.961 17.363 C 22.137 17.010,22.048 16.645,21.701 16.299 C 21.361 15.959,20.967 15.867,20.620 16.046 " stroke="none" fill="black" fill-rule="evenodd"></path></svg>