<svg xmlns="http://www.w3.org/2000/svg" width="24" height="24" viewBox="0 0 24 24" fill="none" stroke="currentColor" stroke-width="2" stroke-linecap="round" stroke-linejoin="round" class="icon icon-tabler icons-tabler-outline icon-tabler-brand-flickr"><path d="M6.358 8.061 C 5.230 8.237,4.143 8.974,3.569 9.953 C 2.320 12.083,3.233 14.785,5.512 15.704 C 7.558 16.528,9.877 15.538,10.704 13.488 C 11.090 12.530,11.090 11.469,10.705 10.516 C 10.172 9.197,9.001 8.269,7.605 8.058 C 7.144 7.989,6.816 7.990,6.358 8.061 M16.358 8.061 C 15.230 8.237,14.143 8.974,13.569 9.953 C 12.320 12.083,13.233 14.785,15.512 15.704 C 17.558 16.528,19.877 15.538,20.704 13.488 C 21.090 12.530,21.090 11.469,20.705 10.516 C 20.172 9.197,19.001 8.269,17.605 8.058 C 17.144 7.989,16.816 7.990,16.358 8.061 M7.523 10.073 C 8.262 10.266,8.850 10.924,8.967 11.690 C 9.067 12.343,8.873 12.933,8.403 13.404 C 8.002 13.807,7.547 14.000,7.000 14.000 C 6.485 14.000,6.038 13.822,5.653 13.465 C 4.323 12.229,5.189 10.005,7.000 10.005 C 7.143 10.005,7.378 10.036,7.523 10.073 M17.523 10.073 C 18.262 10.266,18.850 10.924,18.967 11.690 C 19.067 12.343,18.873 12.933,18.403 13.404 C 18.002 13.807,17.547 14.000,17.000 14.000 C 16.485 14.000,16.038 13.822,15.653 13.465 C 14.323 12.229,15.189 10.005,17.000 10.005 C 17.143 10.005,17.378 10.036,17.523 10.073 " stroke="none" fill="black" fill-rule="evenodd"></path></svg>