<svg xmlns="http://www.w3.org/2000/svg" width="24" height="24" viewBox="0 0 24 24" fill="none" stroke="currentColor" stroke-width="2" stroke-linecap="round" stroke-linejoin="round" class="icon icon-tabler icons-tabler-outline icon-tabler-square-letter-m"><path d="M4.499 2.043 C 3.380 2.232,2.461 3.048,2.114 4.160 L 2.020 4.460 2.020 12.000 L 2.020 19.540 2.114 19.840 C 2.422 20.827,3.173 21.578,4.160 21.886 L 4.460 21.980 12.000 21.980 L 19.540 21.980 19.840 21.886 C 20.827 21.578,21.578 20.827,21.886 19.840 L 21.980 19.540 21.980 12.000 L 21.980 4.460 21.886 4.160 C 21.581 3.182,20.832 2.428,19.861 2.121 L 19.540 2.020 12.120 2.014 C 8.039 2.011,4.609 2.024,4.499 2.043 M19.310 4.061 C 19.589 4.144,19.856 4.411,19.939 4.690 C 19.993 4.870,20.000 5.755,20.000 12.001 C 20.000 17.907,19.991 19.138,19.945 19.290 C 19.872 19.533,19.707 19.740,19.484 19.872 L 19.300 19.980 12.000 19.980 L 4.700 19.980 4.516 19.872 C 4.415 19.813,4.284 19.700,4.225 19.623 C 3.986 19.309,4.000 19.795,4.000 12.022 C 4.000 5.758,4.007 4.870,4.061 4.690 C 4.140 4.421,4.412 4.143,4.673 4.063 C 4.964 3.974,19.009 3.971,19.310 4.061 M14.597 7.039 C 14.518 7.081,14.391 7.185,14.313 7.271 C 14.236 7.356,13.699 8.217,13.120 9.183 C 12.541 10.149,12.050 10.963,12.028 10.991 C 12.000 11.028,11.696 10.553,10.917 9.251 C 10.327 8.266,9.774 7.385,9.687 7.292 C 9.398 6.987,8.859 6.917,8.444 7.130 C 8.244 7.233,8.104 7.409,8.041 7.635 C 7.986 7.833,7.986 16.167,8.041 16.365 C 8.148 16.750,8.437 16.962,8.896 16.991 C 9.381 17.022,9.699 16.882,9.880 16.558 L 9.980 16.380 9.992 14.003 L 10.003 11.626 10.602 12.622 C 11.228 13.662,11.358 13.834,11.618 13.968 C 11.915 14.121,12.392 14.006,12.689 13.708 C 12.761 13.636,13.081 13.141,13.400 12.607 L 13.980 11.638 14.000 14.009 L 14.020 16.380 14.120 16.558 C 14.287 16.856,14.572 17.000,15.000 17.000 C 15.428 17.000,15.713 16.856,15.880 16.558 L 15.980 16.380 15.980 12.040 L 15.980 7.700 15.872 7.516 C 15.611 7.072,14.981 6.836,14.597 7.039 " stroke="none" fill="black" fill-rule="evenodd"></path></svg>