<svg xmlns="http://www.w3.org/2000/svg" width="24" height="24" viewBox="0 0 24 24" fill="none" stroke="currentColor" stroke-width="2" stroke-linecap="round" stroke-linejoin="round" class="icon icon-tabler icons-tabler-outline icon-tabler-adjustments-heart"><path d="M5.614 3.057 C 5.377 3.131,5.212 3.261,5.109 3.453 C 5.022 3.617,5.020 3.656,5.000 5.387 L 4.980 7.153 4.660 7.317 C 3.919 7.698,3.363 8.360,3.114 9.160 C 2.979 9.594,2.979 10.406,3.114 10.840 C 3.365 11.645,3.931 12.318,4.670 12.688 L 5.000 12.853 5.000 16.537 C 5.000 18.881,5.015 20.273,5.041 20.365 C 5.148 20.750,5.437 20.962,5.896 20.991 C 6.381 21.022,6.699 20.882,6.880 20.558 L 6.980 20.380 7.000 16.613 L 7.020 12.845 7.340 12.684 C 8.072 12.314,8.637 11.640,8.886 10.840 C 9.021 10.406,9.021 9.594,8.886 9.160 C 8.637 8.360,8.081 7.698,7.340 7.317 L 7.020 7.153 7.000 5.387 C 6.980 3.656,6.978 3.617,6.891 3.453 C 6.842 3.362,6.746 3.247,6.678 3.199 C 6.414 3.010,5.957 2.950,5.614 3.057 M11.614 3.057 C 11.377 3.131,11.212 3.261,11.109 3.453 L 11.020 3.620 11.008 8.120 C 10.999 11.391,11.008 12.678,11.041 12.833 C 11.133 13.260,11.463 13.486,11.997 13.488 C 12.531 13.491,12.866 13.262,12.959 12.833 C 12.992 12.678,13.002 11.396,12.992 8.120 L 12.980 3.620 12.891 3.453 C 12.842 3.362,12.746 3.247,12.678 3.199 C 12.414 3.010,11.957 2.950,11.614 3.057 M17.614 3.057 C 17.229 3.178,17.041 3.435,17.009 3.885 L 16.990 4.150 16.665 4.316 C 15.922 4.693,15.364 5.357,15.114 6.160 C 14.979 6.594,14.979 7.406,15.114 7.840 C 15.365 8.645,15.931 9.318,16.670 9.688 L 17.000 9.853 17.000 10.779 C 17.000 11.831,17.032 12.019,17.249 12.229 C 17.442 12.416,17.647 12.487,17.997 12.488 C 18.348 12.490,18.556 12.418,18.751 12.229 C 18.968 12.019,19.000 11.831,19.000 10.779 L 19.000 9.853 19.330 9.688 C 20.069 9.318,20.635 8.645,20.886 7.840 C 21.021 7.406,21.021 6.594,20.886 6.160 C 20.636 5.357,20.078 4.693,19.335 4.316 L 19.011 4.151 18.988 3.879 C 18.961 3.561,18.853 3.323,18.678 3.199 C 18.414 3.010,17.957 2.950,17.614 3.057 M18.310 6.061 C 18.688 6.173,19.000 6.598,19.000 7.001 C 19.000 7.331,18.784 7.696,18.484 7.872 C 18.328 7.963,18.254 7.980,18.000 7.980 C 17.746 7.980,17.672 7.963,17.516 7.872 C 16.935 7.530,16.833 6.774,17.304 6.303 C 17.583 6.024,17.916 5.944,18.310 6.061 M6.310 9.061 C 6.688 9.173,7.000 9.598,7.000 10.001 C 7.000 10.331,6.784 10.696,6.484 10.872 C 6.328 10.963,6.254 10.980,6.000 10.980 C 5.746 10.980,5.672 10.963,5.516 10.872 C 4.935 10.530,4.833 9.774,5.304 9.303 C 5.583 9.024,5.916 8.944,6.310 9.061 M15.699 14.037 C 14.670 14.202,13.737 14.905,13.305 15.840 C 13.072 16.345,13.021 16.592,13.024 17.200 C 13.026 17.692,13.037 17.773,13.149 18.111 C 13.314 18.608,13.546 18.985,13.936 19.393 C 14.114 19.578,14.984 20.440,15.868 21.306 C 17.563 22.967,17.651 23.038,18.000 23.038 C 18.345 23.038,18.445 22.958,19.971 21.466 C 22.507 18.986,22.575 18.908,22.818 18.213 C 23.020 17.636,23.050 16.947,22.900 16.380 C 22.746 15.802,22.353 15.189,21.871 14.775 C 20.903 13.943,19.453 13.773,18.325 14.360 L 18.013 14.522 17.697 14.363 C 17.245 14.135,16.862 14.039,16.340 14.020 C 16.098 14.012,15.810 14.019,15.699 14.037 M16.753 16.136 C 16.861 16.191,17.080 16.356,17.239 16.502 C 17.843 17.056,18.170 17.055,18.773 16.497 C 19.226 16.077,19.559 15.955,20.020 16.041 C 20.841 16.193,21.259 17.127,20.806 17.797 C 20.748 17.883,20.101 18.542,19.368 19.262 C 18.242 20.369,18.025 20.565,17.961 20.535 C 17.919 20.516,17.278 19.898,16.537 19.163 C 15.024 17.661,15.020 17.657,15.023 17.160 C 15.025 16.915,15.045 16.822,15.133 16.651 C 15.292 16.341,15.584 16.126,15.980 16.025 C 16.156 15.980,16.559 16.038,16.753 16.136 " stroke="none" fill="black" fill-rule="evenodd"></path></svg>