<svg xmlns="http://www.w3.org/2000/svg" width="24" height="24" viewBox="0 0 24 24" fill="none" stroke="currentColor" stroke-width="2" stroke-linecap="round" stroke-linejoin="round" class="icon icon-tabler icons-tabler-outline icon-tabler-navigation-north"><path d="M9.614 2.057 C 9.377 2.131,9.212 2.261,9.109 2.453 L 9.020 2.620 9.009 5.912 C 9.002 8.060,9.012 9.257,9.039 9.356 C 9.144 9.747,9.434 9.961,9.896 9.991 C 10.381 10.022,10.699 9.882,10.880 9.558 L 10.980 9.380 10.992 7.843 L 11.004 6.307 12.107 7.963 C 12.713 8.875,13.266 9.680,13.335 9.754 C 13.709 10.152,14.275 10.125,14.712 9.688 C 15.015 9.385,15.004 9.539,14.991 5.876 L 14.980 2.620 14.889 2.450 C 14.724 2.140,14.329 1.970,13.874 2.011 C 13.439 2.051,13.141 2.274,13.041 2.635 C 13.017 2.720,13.000 3.385,13.000 4.239 L 13.000 5.699 11.862 3.993 C 11.177 2.968,10.673 2.252,10.599 2.199 C 10.337 2.012,9.940 1.955,9.614 2.057 M11.728 12.036 C 11.275 12.192,11.423 11.936,9.107 16.561 C 6.763 21.241,6.852 21.031,7.040 21.420 C 7.145 21.637,7.406 21.846,7.694 21.944 C 8.077 22.073,8.124 22.056,10.148 21.046 L 12.000 20.121 13.892 21.066 C 15.966 22.101,16.019 22.120,16.383 21.981 C 16.605 21.896,16.843 21.613,16.941 21.316 C 17.081 20.897,17.161 21.084,14.889 16.539 C 13.745 14.250,12.761 12.320,12.703 12.251 C 12.567 12.089,12.296 11.960,12.097 11.961 C 12.011 11.962,11.845 11.996,11.728 12.036 M12.872 16.984 C 13.341 17.922,13.717 18.697,13.707 18.706 C 13.698 18.715,13.371 18.565,12.980 18.371 C 12.299 18.035,12.258 18.020,12.000 18.020 C 11.742 18.020,11.701 18.035,11.020 18.371 C 10.629 18.565,10.302 18.715,10.293 18.706 C 10.273 18.686,11.970 15.280,12.000 15.280 C 12.011 15.280,12.404 16.047,12.872 16.984 " stroke="none" fill="black" fill-rule="evenodd"></path></svg>