<svg xmlns="http://www.w3.org/2000/svg" width="24" height="24" viewBox="0 0 24 24" fill="none" stroke="currentColor" stroke-width="2" stroke-linecap="round" stroke-linejoin="round" class="icon icon-tabler icons-tabler-outline icon-tabler-sort-descending"><path d="M3.614 5.057 C 3.377 5.131,3.212 5.261,3.109 5.453 C 3.035 5.592,3.020 5.684,3.020 6.000 C 3.020 6.331,3.033 6.403,3.120 6.558 C 3.230 6.755,3.414 6.898,3.635 6.959 C 3.834 7.014,13.166 7.014,13.365 6.959 C 13.586 6.898,13.770 6.755,13.880 6.558 C 13.967 6.402,13.980 6.332,13.979 6.000 C 13.978 5.567,13.898 5.355,13.678 5.199 C 13.392 4.995,13.526 5.000,8.484 5.003 C 4.740 5.005,3.746 5.016,3.614 5.057 M17.614 5.057 C 17.377 5.131,17.212 5.261,17.109 5.453 L 17.020 5.620 17.009 10.597 L 16.999 15.574 16.269 14.852 C 15.856 14.443,15.467 14.094,15.372 14.045 C 15.021 13.868,14.640 13.958,14.299 14.299 C 13.952 14.646,13.863 15.011,14.040 15.363 C 14.099 15.480,14.635 16.051,15.635 17.062 C 16.463 17.899,17.174 18.634,17.216 18.697 C 17.318 18.850,17.762 19.049,18.000 19.049 C 18.238 19.049,18.682 18.850,18.784 18.697 C 18.826 18.634,19.537 17.899,20.365 17.062 C 21.365 16.051,21.901 15.480,21.960 15.363 C 22.137 15.011,22.048 14.646,21.701 14.299 C 21.360 13.958,20.979 13.868,20.628 14.045 C 20.533 14.094,20.144 14.443,19.731 14.852 L 19.002 15.574 18.991 10.597 L 18.980 5.620 18.891 5.453 C 18.842 5.362,18.746 5.247,18.678 5.199 C 18.414 5.010,17.957 4.950,17.614 5.057 M3.614 11.057 C 3.377 11.131,3.212 11.261,3.109 11.453 C 3.035 11.592,3.020 11.684,3.020 12.000 C 3.020 12.331,3.033 12.403,3.120 12.558 C 3.230 12.755,3.414 12.898,3.635 12.959 C 3.833 13.014,11.167 13.014,11.365 12.959 C 11.586 12.898,11.770 12.755,11.880 12.558 C 11.967 12.402,11.980 12.332,11.979 12.000 C 11.978 11.567,11.898 11.355,11.678 11.199 C 11.395 10.997,11.449 11.000,7.484 11.003 C 4.561 11.005,3.745 11.016,3.614 11.057 M3.614 17.057 C 3.377 17.131,3.212 17.261,3.109 17.453 C 3.035 17.592,3.020 17.684,3.020 18.000 C 3.020 18.331,3.033 18.403,3.120 18.558 C 3.230 18.755,3.414 18.898,3.635 18.959 C 3.833 19.014,11.167 19.014,11.365 18.959 C 11.586 18.898,11.770 18.755,11.880 18.558 C 11.967 18.402,11.980 18.332,11.979 18.000 C 11.978 17.567,11.898 17.355,11.678 17.199 C 11.395 16.997,11.449 17.000,7.484 17.003 C 4.561 17.005,3.745 17.016,3.614 17.057 " stroke="none" fill="black" fill-rule="evenodd"></path></svg>