<svg xmlns="http://www.w3.org/2000/svg" width="24" height="24" viewBox="0 0 24 24" fill="none" stroke="currentColor" stroke-width="2" stroke-linecap="round" stroke-linejoin="round" class="icon icon-tabler icons-tabler-outline icon-tabler-antenna-bars-off"><path d="M2.626 2.045 C 2.420 2.154,2.146 2.433,2.038 2.644 C 1.924 2.867,1.924 3.132,2.039 3.363 C 2.102 3.489,3.211 4.625,5.872 7.289 C 7.931 9.350,9.608 11.042,9.598 11.049 C 9.588 11.055,9.508 11.098,9.420 11.145 C 9.240 11.240,9.100 11.421,9.041 11.635 C 8.986 11.832,8.986 18.168,9.041 18.365 C 9.148 18.750,9.437 18.962,9.896 18.991 C 10.381 19.022,10.699 18.882,10.880 18.558 L 10.980 18.380 10.991 15.402 L 11.002 12.423 12.001 13.421 L 13.000 14.419 13.000 16.320 C 13.000 17.469,13.016 18.277,13.041 18.365 C 13.148 18.750,13.437 18.962,13.896 18.991 C 14.381 19.022,14.699 18.882,14.880 18.558 C 14.978 18.384,14.980 18.359,14.993 17.404 L 15.006 16.428 17.733 19.150 C 19.645 21.058,20.513 21.898,20.637 21.961 C 20.990 22.137,21.354 22.048,21.701 21.701 C 22.048 21.354,22.137 20.990,21.961 20.637 C 21.887 20.491,18.611 17.155,14.747 13.293 C 8.485 7.032,3.509 2.113,3.372 2.044 C 3.152 1.934,2.835 1.935,2.626 2.045 M17.614 5.057 C 17.377 5.131,17.212 5.261,17.109 5.453 L 17.020 5.620 17.009 9.913 C 17.002 12.727,17.013 14.258,17.039 14.357 C 17.144 14.747,17.434 14.961,17.896 14.991 C 18.381 15.022,18.699 14.882,18.880 14.558 L 18.980 14.380 18.980 10.000 L 18.980 5.620 18.891 5.453 C 18.842 5.362,18.746 5.247,18.678 5.199 C 18.414 5.010,17.957 4.950,17.614 5.057 M13.614 8.057 C 13.377 8.131,13.212 8.261,13.109 8.453 C 13.027 8.606,13.019 8.684,13.007 9.405 C 12.999 9.880,13.011 10.252,13.037 10.349 C 13.144 10.748,13.430 10.961,13.896 10.991 C 14.381 11.022,14.699 10.882,14.880 10.558 C 14.978 10.383,14.980 10.364,14.980 9.500 C 14.980 8.667,14.975 8.611,14.891 8.453 C 14.842 8.362,14.746 8.247,14.678 8.199 C 14.414 8.010,13.957 7.950,13.614 8.057 M5.614 14.057 C 5.377 14.131,5.212 14.261,5.109 14.453 C 5.021 14.618,5.020 14.647,5.008 16.410 C 5.001 17.557,5.012 18.255,5.038 18.354 C 5.144 18.747,5.433 18.961,5.896 18.991 C 6.381 19.022,6.699 18.882,6.880 18.558 L 6.980 18.380 6.980 16.500 C 6.980 14.633,6.979 14.619,6.891 14.453 C 6.842 14.362,6.746 14.247,6.678 14.199 C 6.414 14.010,5.957 13.950,5.614 14.057 " stroke="none" fill="black" fill-rule="evenodd"></path></svg>