<svg xmlns="http://www.w3.org/2000/svg" width="24" height="24" viewBox="0 0 24 24" fill="none" stroke="currentColor" stroke-width="2" stroke-linecap="round" stroke-linejoin="round" class="icon icon-tabler icons-tabler-outline icon-tabler-notes"><path d="M6.499 2.043 C 5.379 2.233,4.461 3.048,4.114 4.160 L 4.020 4.460 4.020 12.000 L 4.020 19.540 4.114 19.840 C 4.422 20.827,5.173 21.578,6.160 21.886 L 6.460 21.980 12.000 21.980 L 17.540 21.980 17.840 21.886 C 18.827 21.578,19.578 20.827,19.886 19.840 L 19.980 19.540 19.980 12.000 L 19.980 4.460 19.886 4.160 C 19.581 3.182,18.832 2.428,17.861 2.121 L 17.540 2.020 12.120 2.014 C 9.139 2.011,6.609 2.024,6.499 2.043 M17.310 4.061 C 17.589 4.144,17.856 4.411,17.939 4.690 C 17.993 4.870,18.000 5.755,18.000 12.001 C 18.000 17.907,17.991 19.138,17.945 19.290 C 17.872 19.533,17.707 19.740,17.484 19.872 L 17.300 19.980 12.000 19.980 L 6.700 19.980 6.516 19.872 C 6.415 19.813,6.284 19.700,6.225 19.623 C 5.986 19.309,6.000 19.795,6.000 12.022 C 6.000 4.005,5.975 4.631,6.304 4.303 C 6.621 3.985,6.234 4.006,11.983 4.003 C 16.458 4.000,17.131 4.008,17.310 4.061 M8.614 6.057 C 8.377 6.131,8.212 6.261,8.109 6.453 C 8.035 6.592,8.020 6.684,8.020 7.000 C 8.020 7.331,8.033 7.403,8.120 7.558 C 8.230 7.755,8.414 7.898,8.635 7.959 C 8.832 8.014,15.168 8.014,15.365 7.959 C 15.586 7.898,15.770 7.755,15.880 7.558 C 15.967 7.402,15.980 7.332,15.979 7.000 C 15.978 6.567,15.898 6.355,15.678 6.199 C 15.398 5.999,15.411 6.000,11.984 6.003 C 9.472 6.005,8.744 6.017,8.614 6.057 M8.614 10.057 C 8.377 10.131,8.212 10.261,8.109 10.453 C 8.035 10.592,8.020 10.684,8.020 11.000 C 8.020 11.331,8.033 11.403,8.120 11.558 C 8.230 11.755,8.414 11.898,8.635 11.959 C 8.832 12.014,15.168 12.014,15.365 11.959 C 15.586 11.898,15.770 11.755,15.880 11.558 C 15.967 11.402,15.980 11.332,15.979 11.000 C 15.978 10.567,15.898 10.355,15.678 10.199 C 15.398 9.999,15.411 10.000,11.984 10.003 C 9.472 10.005,8.744 10.017,8.614 10.057 M8.614 14.057 C 8.377 14.131,8.212 14.261,8.109 14.453 C 8.035 14.592,8.020 14.684,8.020 15.000 C 8.020 15.331,8.033 15.403,8.120 15.558 C 8.230 15.755,8.414 15.898,8.635 15.959 C 8.831 16.014,13.169 16.014,13.365 15.959 C 13.586 15.898,13.770 15.755,13.880 15.558 C 13.967 15.402,13.980 15.332,13.979 15.000 C 13.978 14.567,13.898 14.355,13.678 14.199 C 13.406 14.005,13.336 14.000,10.984 14.003 C 9.293 14.005,8.741 14.017,8.614 14.057 " stroke="none" fill="black" fill-rule="evenodd"></path></svg>