<svg xmlns="http://www.w3.org/2000/svg" width="24" height="24" viewBox="0 0 24 24" fill="none" stroke="currentColor" stroke-width="2" stroke-linecap="round" stroke-linejoin="round" class="icon icon-tabler icons-tabler-outline icon-tabler-device-airpods-case"><path d="M6.400 3.044 C 4.761 3.229,3.261 4.290,2.526 5.785 C 2.333 6.177,2.187 6.599,2.093 7.040 C 2.025 7.358,2.020 7.684,2.020 12.000 C 2.020 16.316,2.025 16.642,2.093 16.960 C 2.526 18.984,4.016 20.474,6.040 20.907 C 6.360 20.976,6.717 20.980,12.000 20.980 C 17.283 20.980,17.640 20.976,17.960 20.907 C 19.488 20.580,20.748 19.630,21.433 18.288 C 21.662 17.839,21.805 17.439,21.907 16.960 C 21.975 16.642,21.980 16.316,21.980 12.000 C 21.980 7.684,21.975 7.358,21.907 7.040 C 21.625 5.721,20.863 4.576,19.800 3.874 C 19.046 3.375,18.396 3.135,17.552 3.043 C 17.082 2.991,6.857 2.993,6.400 3.044 M17.861 5.121 C 18.826 5.426,19.588 6.190,19.874 7.139 C 19.957 7.416,19.973 7.567,19.990 8.230 L 20.009 9.000 12.000 9.000 L 3.991 9.000 4.010 8.230 C 4.027 7.567,4.043 7.416,4.126 7.139 C 4.452 6.057,5.386 5.232,6.499 5.043 C 6.609 5.024,9.139 5.011,12.120 5.014 L 17.540 5.020 17.861 5.121 M6.009 11.510 C 6.026 11.926,6.049 12.075,6.136 12.320 C 6.389 13.033,6.957 13.603,7.680 13.869 L 7.980 13.980 12.000 13.980 L 16.020 13.980 16.320 13.869 C 17.043 13.603,17.611 13.033,17.864 12.320 C 17.951 12.075,17.974 11.926,17.991 11.510 L 18.011 11.000 19.007 11.000 L 20.004 11.000 19.991 13.770 L 19.978 16.540 19.878 16.861 C 19.574 17.830,18.819 18.581,17.840 18.886 L 17.540 18.980 12.000 18.980 L 6.460 18.980 6.160 18.886 C 5.181 18.581,4.426 17.830,4.122 16.861 L 4.022 16.540 4.009 13.770 L 3.996 11.000 4.993 11.000 L 5.989 11.000 6.009 11.510 M16.000 11.310 C 16.000 11.547,15.981 11.650,15.922 11.748 C 15.759 12.014,15.978 12.000,12.000 12.000 C 8.022 12.000,8.241 12.014,8.078 11.748 C 8.019 11.650,8.000 11.547,8.000 11.310 L 8.000 11.000 12.000 11.000 L 16.000 11.000 16.000 11.310 " stroke="none" fill="black" fill-rule="evenodd"></path></svg>