<svg xmlns="http://www.w3.org/2000/svg" width="24" height="24" viewBox="0 0 24 24" fill="none" stroke="currentColor" stroke-width="2" stroke-linecap="round" stroke-linejoin="round" class="icon icon-tabler icons-tabler-outline icon-tabler-brand-adonis-js"><path d="M10.349 2.044 C 7.535 2.178,5.738 2.713,4.406 3.814 C 3.787 4.326,3.247 5.075,2.885 5.924 C 2.566 6.671,2.342 7.527,2.205 8.520 C 2.051 9.633,2.021 10.208,2.021 12.000 C 2.021 13.792,2.051 14.367,2.205 15.480 C 2.744 19.396,4.610 21.251,8.560 21.800 C 9.623 21.948,10.220 21.979,12.000 21.979 C 13.780 21.979,14.377 21.948,15.440 21.800 C 16.241 21.689,16.753 21.574,17.401 21.361 C 20.018 20.502,21.344 18.717,21.800 15.440 C 21.948 14.377,21.979 13.780,21.979 12.000 C 21.979 10.220,21.948 9.623,21.800 8.560 C 21.494 6.357,20.759 4.778,19.594 3.814 C 18.657 3.040,17.469 2.539,15.960 2.283 C 14.520 2.039,12.378 1.947,10.349 2.044 M13.500 4.041 C 16.040 4.168,17.512 4.591,18.435 5.458 C 19.509 6.468,19.999 8.517,19.999 12.000 C 19.999 15.490,19.511 17.527,18.430 18.548 C 17.356 19.562,15.410 20.000,11.992 20.000 C 8.581 19.999,6.644 19.561,5.570 18.548 C 4.489 17.527,4.001 15.490,4.001 12.000 C 4.001 10.005,4.176 8.385,4.505 7.320 C 5.052 5.555,6.056 4.719,8.129 4.302 C 9.412 4.045,11.521 3.942,13.500 4.041 M11.466 6.060 C 10.900 6.204,10.364 6.581,10.070 7.042 C 9.814 7.443,6.125 14.931,6.061 15.178 C 5.751 16.384,6.568 17.639,7.861 17.943 C 8.060 17.989,8.249 18.003,8.520 17.989 C 8.954 17.967,9.168 17.899,10.070 17.496 C 10.843 17.150,11.056 17.084,11.564 17.031 C 12.083 16.976,12.734 17.030,13.116 17.159 C 13.250 17.204,13.623 17.359,13.945 17.503 C 14.825 17.897,15.162 18.000,15.574 18.000 C 16.025 18.000,16.273 17.945,16.660 17.759 C 17.462 17.373,17.944 16.670,17.990 15.820 C 18.025 15.178,18.185 15.542,15.504 10.149 C 13.956 7.035,13.912 6.953,13.669 6.706 C 13.379 6.412,13.150 6.269,12.749 6.134 C 12.378 6.008,11.802 5.975,11.466 6.060 M12.192 8.070 C 12.280 8.146,16.001 15.625,15.999 15.722 C 15.996 15.860,15.801 16.000,15.613 16.000 C 15.551 15.999,15.293 15.908,15.040 15.796 C 13.493 15.113,13.148 15.025,12.000 15.025 C 10.852 15.025,10.507 15.113,8.960 15.796 C 8.707 15.908,8.443 15.999,8.373 16.000 C 8.230 16.000,8.000 15.832,8.000 15.728 C 8.000 15.625,11.718 8.148,11.808 8.070 C 11.852 8.031,11.939 8.000,12.000 8.000 C 12.061 8.000,12.148 8.031,12.192 8.070 " stroke="none" fill="black" fill-rule="evenodd"></path></svg>