<svg xmlns="http://www.w3.org/2000/svg" width="24" height="24" viewBox="0 0 24 24" fill="none" stroke="currentColor" stroke-width="2" stroke-linecap="round" stroke-linejoin="round" class="icon icon-tabler icons-tabler-outline icon-tabler-device-desktop-off"><path d="M2.626 2.045 C 2.541 2.090,2.394 2.204,2.299 2.299 C 1.852 2.746,1.837 3.183,2.250 3.658 L 2.387 3.816 2.295 3.951 C 2.245 4.025,2.162 4.188,2.112 4.313 L 2.020 4.540 2.009 9.880 C 2.002 13.498,2.012 15.285,2.041 15.423 C 2.148 15.941,2.602 16.538,3.070 16.775 C 3.506 16.996,3.557 17.000,5.868 17.000 L 8.000 17.000 8.000 18.000 L 8.000 19.000 7.406 19.000 C 6.577 19.000,6.300 19.097,6.109 19.453 C 6.035 19.592,6.020 19.684,6.020 20.000 C 6.020 20.331,6.033 20.403,6.120 20.558 C 6.230 20.755,6.414 20.898,6.635 20.959 C 6.834 21.015,17.166 21.015,17.365 20.959 C 17.586 20.898,17.770 20.755,17.880 20.558 C 17.967 20.402,17.980 20.332,17.979 20.000 C 17.978 19.687,17.962 19.591,17.890 19.453 C 17.702 19.097,17.424 19.000,16.594 19.000 L 16.000 19.000 16.000 18.211 L 16.000 17.422 18.230 19.647 C 19.776 21.189,20.514 21.899,20.637 21.960 C 20.990 22.137,21.354 22.048,21.701 21.701 C 22.048 21.354,22.137 20.990,21.960 20.637 C 21.899 20.515,21.094 19.676,19.353 17.920 C 17.968 16.523,16.796 15.341,16.747 15.293 C 16.211 14.759,4.834 3.379,4.760 3.302 C 4.372 2.898,3.502 2.113,3.367 2.044 C 3.153 1.934,2.835 1.935,2.626 2.045 M7.614 3.057 C 7.377 3.131,7.212 3.261,7.109 3.453 C 7.035 3.592,7.020 3.684,7.020 4.000 C 7.020 4.331,7.033 4.403,7.120 4.558 C 7.230 4.755,7.414 4.898,7.635 4.959 C 7.729 4.985,9.920 5.000,13.890 5.000 L 20.000 5.000 20.000 9.991 L 20.000 14.982 19.756 15.028 C 19.272 15.120,19.042 15.388,19.009 15.900 C 18.965 16.578,19.269 16.951,19.897 16.991 C 20.477 17.028,20.971 16.837,21.399 16.409 C 21.547 16.261,21.715 16.048,21.771 15.937 C 22.010 15.466,22.000 15.732,21.999 10.014 C 21.999 4.337,22.006 4.525,21.781 4.083 C 21.646 3.816,21.297 3.449,21.017 3.281 C 20.528 2.987,20.981 3.005,14.020 3.005 C 9.010 3.005,7.747 3.016,7.614 3.057 M8.800 10.220 L 13.580 15.000 8.790 15.000 L 4.000 15.000 4.000 10.220 C 4.000 7.591,4.005 5.440,4.010 5.440 C 4.016 5.440,6.171 7.591,8.800 10.220 M14.000 18.000 L 14.000 19.000 12.000 19.000 L 10.000 19.000 10.000 18.000 L 10.000 17.000 12.000 17.000 L 14.000 17.000 14.000 18.000 " stroke="none" fill="black" fill-rule="evenodd"></path></svg>