<svg xmlns="http://www.w3.org/2000/svg" width="24" height="24" viewBox="0 0 24 24" fill="none" stroke="currentColor" stroke-width="2" stroke-linecap="round" stroke-linejoin="round" class="icon icon-tabler icons-tabler-outline icon-tabler-brand-bandlab"><path d="M9.620 3.039 C 9.287 3.125,9.076 3.318,8.999 3.604 C 8.945 3.802,8.943 4.134,8.994 4.300 C 9.014 4.366,9.716 6.055,10.555 8.052 C 11.394 10.050,12.080 11.699,12.080 11.716 C 12.080 11.734,11.956 11.769,11.805 11.794 C 11.174 11.898,10.195 12.305,9.731 12.656 C 9.331 12.960,8.978 13.393,8.744 13.867 C 8.333 14.700,8.299 15.676,8.654 16.419 C 9.064 17.276,9.751 17.783,10.737 17.958 C 11.898 18.163,13.149 17.648,14.163 16.545 C 14.880 15.766,15.160 15.183,15.164 14.461 C 15.166 13.965,15.004 13.323,14.749 12.820 C 14.704 12.732,14.645 12.573,14.617 12.466 C 14.588 12.360,14.526 12.216,14.479 12.146 C 14.431 12.076,13.731 10.445,12.923 8.520 L 11.455 5.020 13.457 5.000 L 15.460 4.980 15.649 4.869 C 15.771 4.797,15.877 4.691,15.949 4.569 C 16.049 4.398,16.060 4.344,16.060 3.997 C 16.060 3.641,16.052 3.600,15.940 3.419 C 15.854 3.281,15.762 3.195,15.621 3.122 L 15.422 3.020 12.581 3.014 C 11.018 3.010,9.686 3.021,9.620 3.039 M6.500 6.019 C 6.345 6.091,6.237 6.186,6.112 6.360 C 5.930 6.612,3.170 12.006,2.928 12.580 C 1.887 15.058,1.727 17.140,2.444 18.864 C 2.604 19.247,2.987 19.822,3.312 20.167 C 4.038 20.936,5.097 21.485,6.420 21.777 C 7.325 21.977,7.392 21.980,11.660 21.980 C 15.286 21.980,15.707 21.973,16.160 21.909 C 19.815 21.387,21.871 19.528,21.986 16.640 C 22.041 15.260,21.652 13.782,20.770 12.020 C 20.472 11.426,17.508 6.533,17.293 6.283 C 16.914 5.840,16.366 5.859,15.850 6.333 C 15.750 6.425,15.644 6.558,15.614 6.629 C 15.537 6.811,15.549 7.111,15.639 7.311 C 15.682 7.405,16.405 8.611,17.246 9.991 C 19.124 13.075,19.492 13.799,19.806 15.038 C 20.450 17.578,19.411 19.171,16.717 19.775 C 15.762 19.990,15.525 20.000,11.629 20.000 C 7.959 20.000,7.614 19.988,6.891 19.839 C 4.427 19.331,3.527 17.662,4.238 14.920 C 4.534 13.779,4.700 13.412,6.425 10.072 C 7.813 7.385,7.891 7.223,7.910 6.981 C 7.928 6.754,7.918 6.704,7.823 6.541 C 7.579 6.125,6.872 5.846,6.500 6.019 M12.950 13.730 C 13.032 13.834,13.160 14.249,13.160 14.412 C 13.160 14.624,12.978 14.908,12.603 15.283 C 12.264 15.622,11.964 15.822,11.646 15.921 C 11.083 16.096,10.612 15.944,10.457 15.538 C 10.322 15.184,10.499 14.657,10.864 14.323 C 11.188 14.028,11.883 13.775,12.560 13.707 C 12.850 13.678,12.911 13.681,12.950 13.730 " stroke="none" fill="black" fill-rule="evenodd"></path></svg>