<svg xmlns="http://www.w3.org/2000/svg" width="24" height="24" viewBox="0 0 24 24" fill="none" stroke="currentColor" stroke-width="2" stroke-linecap="round" stroke-linejoin="round" class="icon icon-tabler icons-tabler-outline icon-tabler-zzz"><path d="M13.614 3.057 C 13.377 3.131,13.212 3.261,13.109 3.453 C 13.035 3.592,13.020 3.684,13.020 4.000 C 13.020 4.331,13.033 4.403,13.120 4.558 C 13.230 4.755,13.414 4.898,13.635 4.959 C 13.724 4.984,14.600 5.000,15.890 5.000 L 18.000 5.000 15.541 8.279 C 14.188 10.083,13.054 11.624,13.021 11.704 C 12.878 12.045,12.975 12.420,13.275 12.690 C 13.621 13.004,13.318 12.979,16.952 12.991 C 19.074 12.998,20.257 12.988,20.356 12.961 C 20.584 12.900,20.768 12.758,20.880 12.558 C 20.967 12.402,20.980 12.332,20.979 12.000 C 20.978 11.567,20.898 11.355,20.678 11.199 C 20.408 11.006,20.326 11.000,18.094 11.000 L 16.000 11.000 18.458 7.723 C 20.294 5.274,20.927 4.402,20.962 4.273 C 21.024 4.047,20.985 3.646,20.883 3.445 C 20.786 3.257,20.621 3.131,20.371 3.055 C 20.109 2.977,13.866 2.979,13.614 3.057 M3.614 11.057 C 3.377 11.131,3.212 11.261,3.109 11.453 C 3.035 11.592,3.020 11.684,3.020 12.000 C 3.020 12.331,3.033 12.403,3.120 12.558 C 3.230 12.755,3.414 12.898,3.635 12.959 C 3.724 12.984,4.600 13.000,5.890 13.000 L 8.000 13.000 5.541 16.279 C 4.188 18.083,3.054 19.624,3.021 19.704 C 2.878 20.045,2.975 20.420,3.275 20.690 C 3.621 21.004,3.318 20.979,6.952 20.991 C 9.074 20.998,10.257 20.988,10.356 20.961 C 10.584 20.900,10.768 20.758,10.880 20.558 C 10.967 20.402,10.980 20.332,10.979 20.000 C 10.978 19.567,10.898 19.355,10.678 19.199 C 10.408 19.006,10.326 19.000,8.094 19.000 L 6.000 19.000 8.458 15.723 C 10.294 13.274,10.927 12.402,10.962 12.273 C 11.024 12.047,10.985 11.646,10.883 11.445 C 10.786 11.257,10.621 11.131,10.371 11.055 C 10.109 10.977,3.866 10.979,3.614 11.057 " stroke="none" fill="black" fill-rule="evenodd"></path></svg>