<svg xmlns="http://www.w3.org/2000/svg" width="24" height="24" viewBox="0 0 24 24" fill="none" stroke="currentColor" stroke-width="2" stroke-linecap="round" stroke-linejoin="round" class="icon icon-tabler icons-tabler-outline icon-tabler-pumpkin-scary"><path d="M13.772 2.016 C 13.292 2.172,12.626 2.619,12.179 3.085 C 11.698 3.587,11.279 4.317,11.154 4.870 C 11.109 5.070,11.099 5.082,10.944 5.123 C 10.536 5.227,10.207 5.346,9.931 5.487 C 9.767 5.571,9.616 5.640,9.596 5.640 C 9.576 5.640,9.402 5.551,9.210 5.443 C 8.561 5.076,8.001 4.957,7.303 5.036 C 6.275 5.152,5.507 5.509,4.778 6.207 C 3.794 7.150,3.208 8.530,2.997 10.400 C 2.930 10.987,2.972 12.384,3.077 13.095 C 3.478 15.808,4.576 18.349,5.924 19.683 C 7.127 20.874,8.650 21.276,10.161 20.804 L 10.423 20.722 10.681 20.801 C 11.513 21.057,12.498 21.057,13.323 20.802 L 13.581 20.723 13.841 20.804 C 15.345 21.277,16.873 20.873,18.076 19.683 C 19.045 18.724,19.830 17.273,20.395 15.395 C 20.812 14.009,20.991 12.969,21.027 11.715 C 21.097 9.332,20.463 7.396,19.222 6.207 C 18.493 5.509,17.725 5.152,16.697 5.036 C 15.999 4.957,15.439 5.076,14.790 5.443 C 14.598 5.551,14.422 5.640,14.400 5.640 C 14.377 5.640,14.220 5.569,14.049 5.483 C 13.879 5.397,13.618 5.287,13.470 5.240 C 13.322 5.192,13.200 5.136,13.200 5.115 C 13.200 5.037,13.335 4.814,13.526 4.577 C 13.716 4.342,13.932 4.182,14.520 3.841 C 14.830 3.662,15.000 3.444,15.029 3.190 C 15.070 2.825,14.821 2.294,14.512 2.090 C 14.324 1.966,14.020 1.935,13.772 2.016 M8.123 7.121 C 8.220 7.170,8.487 7.336,8.716 7.490 C 9.212 7.823,9.339 7.880,9.580 7.880 C 9.813 7.880,9.937 7.827,10.384 7.533 C 10.818 7.248,11.221 7.090,11.670 7.030 C 12.317 6.943,13.023 7.124,13.603 7.526 C 13.995 7.797,14.180 7.878,14.411 7.879 C 14.661 7.880,14.784 7.825,15.284 7.490 C 15.986 7.018,16.164 6.958,16.620 7.033 C 17.332 7.151,17.932 7.583,18.314 8.253 C 19.197 9.803,19.275 12.052,18.534 14.633 C 18.295 15.468,18.127 15.915,17.802 16.580 C 17.228 17.753,16.662 18.423,15.937 18.784 C 15.393 19.055,14.823 19.061,14.180 18.803 C 13.681 18.602,13.571 18.601,13.004 18.797 C 12.232 19.063,11.675 19.063,11.001 18.795 C 10.522 18.605,10.333 18.602,9.880 18.781 C 9.167 19.062,8.622 19.063,8.063 18.784 C 7.538 18.523,7.125 18.123,6.671 17.440 C 6.424 17.068,5.972 16.147,5.783 15.634 C 5.464 14.764,5.163 13.560,5.034 12.640 C 4.953 12.062,4.965 10.601,5.055 10.100 C 5.297 8.757,5.779 7.844,6.496 7.371 C 7.025 7.021,7.716 6.915,8.123 7.121 M9.614 10.055 C 9.220 10.184,9.039 10.437,9.009 10.900 C 8.978 11.381,9.119 11.699,9.442 11.880 C 9.597 11.967,9.669 11.980,10.000 11.980 C 10.312 11.980,10.408 11.964,10.540 11.894 C 10.866 11.718,11.000 11.459,11.000 11.000 C 11.000 10.357,10.713 10.048,10.083 10.016 C 9.893 10.006,9.718 10.021,9.614 10.055 M13.614 10.055 C 13.220 10.184,13.039 10.437,13.009 10.900 C 12.978 11.381,13.119 11.699,13.442 11.880 C 13.597 11.967,13.669 11.980,14.000 11.980 C 14.312 11.980,14.408 11.964,14.540 11.894 C 14.866 11.718,15.000 11.459,15.000 11.000 C 15.000 10.357,14.713 10.048,14.083 10.016 C 13.893 10.006,13.718 10.021,13.614 10.055 M8.597 14.039 C 8.270 14.212,7.961 14.701,7.960 15.047 C 7.960 15.285,8.002 15.394,8.166 15.581 C 8.302 15.736,9.961 16.864,10.186 16.956 C 10.348 17.021,10.652 17.021,10.814 16.956 C 10.883 16.928,11.178 16.746,11.470 16.552 L 12.000 16.199 12.530 16.552 C 12.822 16.746,13.117 16.928,13.186 16.956 C 13.348 17.021,13.652 17.021,13.814 16.956 C 14.039 16.864,15.698 15.736,15.834 15.581 C 15.998 15.394,16.040 15.285,16.040 15.047 C 16.039 14.696,15.726 14.206,15.394 14.037 C 15.202 13.939,14.910 13.939,14.695 14.037 C 14.605 14.078,14.308 14.260,14.036 14.442 C 13.765 14.624,13.523 14.773,13.500 14.773 C 13.477 14.773,13.235 14.624,12.964 14.443 C 12.380 14.051,12.268 14.000,12.000 14.000 C 11.732 14.000,11.620 14.051,11.036 14.443 C 10.765 14.624,10.523 14.773,10.500 14.773 C 10.477 14.773,10.235 14.624,9.964 14.442 C 9.692 14.260,9.395 14.078,9.305 14.037 C 9.092 13.940,8.782 13.941,8.597 14.039 " stroke="none" fill="black" fill-rule="evenodd"></path></svg>