<svg xmlns="http://www.w3.org/2000/svg" width="24" height="24" viewBox="0 0 24 24" fill="none" stroke="currentColor" stroke-width="2" stroke-linecap="round" stroke-linejoin="round" class="icon icon-tabler icons-tabler-outline icon-tabler-columns-2"><path d="M3.477 2.073 C 2.806 2.249,2.238 2.823,2.060 3.508 C 2.008 3.707,2.000 4.805,2.000 12.000 C 2.000 21.017,1.986 20.458,2.225 20.930 C 2.361 21.199,2.801 21.639,3.070 21.775 C 3.542 22.014,2.983 22.000,12.000 22.000 C 21.017 22.000,20.458 22.014,20.930 21.775 C 21.196 21.640,21.638 21.200,21.771 20.937 C 22.015 20.457,22.000 21.028,21.999 12.014 C 21.999 3.065,22.010 3.534,21.781 3.083 C 21.646 2.816,21.297 2.449,21.017 2.281 C 20.523 1.983,21.217 2.005,12.000 2.005 C 4.321 2.005,3.721 2.009,3.477 2.073 M11.000 12.000 L 11.000 20.000 7.500 20.000 L 4.000 20.000 4.000 12.000 L 4.000 4.000 7.500 4.000 L 11.000 4.000 11.000 12.000 M20.000 12.000 L 20.000 20.000 16.500 20.000 L 13.000 20.000 13.000 12.000 L 13.000 4.000 16.500 4.000 L 20.000 4.000 20.000 12.000 " stroke="none" fill="black" fill-rule="evenodd"></path></svg>