<svg xmlns="http://www.w3.org/2000/svg" width="24" height="24" viewBox="0 0 24 24" fill="none" stroke="currentColor" stroke-width="2" stroke-linecap="round" stroke-linejoin="round" class="icon icon-tabler icons-tabler-outline icon-tabler-camera-cancel"><path d="M8.477 3.073 C 7.806 3.249,7.238 3.823,7.060 4.508 C 7.027 4.634,7.000 4.820,7.000 4.922 C 7.000 5.332,6.811 5.680,6.484 5.872 C 6.303 5.978,6.286 5.980,5.380 6.005 C 4.569 6.027,4.422 6.041,4.139 6.126 C 3.183 6.413,2.420 7.179,2.114 8.160 L 2.020 8.460 2.020 13.500 L 2.020 18.540 2.114 18.840 C 2.418 19.816,3.149 20.554,4.140 20.886 L 4.420 20.980 8.311 20.991 C 10.892 20.999,12.253 20.989,12.355 20.961 C 12.583 20.900,12.768 20.758,12.880 20.558 C 12.967 20.402,12.980 20.332,12.979 20.000 C 12.977 19.469,12.852 19.247,12.455 19.071 C 12.366 19.031,11.493 19.016,8.520 19.000 L 4.700 18.980 4.516 18.872 C 4.415 18.813,4.284 18.700,4.225 18.623 C 3.989 18.314,4.000 18.562,4.000 13.522 C 4.000 8.339,3.984 8.630,4.283 8.321 C 4.552 8.044,4.623 8.028,5.660 7.997 C 6.452 7.974,6.619 7.958,6.860 7.881 C 8.030 7.509,8.877 6.480,8.984 5.302 L 9.011 5.000 12.000 5.000 L 14.989 5.000 15.016 5.302 C 15.123 6.480,15.970 7.509,17.140 7.881 C 17.381 7.958,17.548 7.974,18.340 7.997 C 19.377 8.028,19.448 8.044,19.717 8.321 C 19.997 8.610,20.000 8.638,20.000 10.800 C 20.000 12.918,20.008 12.996,20.249 13.229 C 20.442 13.416,20.647 13.487,21.000 13.488 C 21.368 13.490,21.600 13.402,21.787 13.189 C 21.999 12.947,22.008 12.838,21.992 10.520 C 21.978 8.450,21.976 8.416,21.885 8.140 C 21.560 7.160,20.807 6.410,19.861 6.126 C 19.578 6.041,19.431 6.027,18.620 6.005 C 17.714 5.980,17.697 5.978,17.516 5.872 C 17.197 5.684,17.001 5.340,16.999 4.965 C 16.999 4.713,16.901 4.319,16.781 4.083 C 16.646 3.816,16.297 3.449,16.017 3.281 C 15.548 2.999,15.636 3.005,12.000 3.005 C 9.047 3.005,8.715 3.011,8.477 3.073 M11.356 9.061 C 9.510 9.349,8.119 10.897,8.013 12.782 C 7.948 13.943,8.349 14.988,9.178 15.825 C 10.181 16.837,11.685 17.239,13.032 16.857 C 13.462 16.735,13.713 16.368,13.667 15.929 C 13.617 15.449,13.430 15.124,13.128 14.990 C 12.977 14.924,12.898 14.915,12.663 14.936 C 11.902 15.006,11.800 15.008,11.594 14.960 C 10.980 14.815,10.505 14.446,10.239 13.905 C 10.050 13.521,9.982 13.198,10.015 12.839 C 10.103 11.870,10.864 11.104,11.825 11.016 C 12.629 10.943,13.436 11.402,13.780 12.128 C 13.953 12.491,14.001 12.742,13.994 13.234 C 13.986 13.805,14.102 14.034,14.482 14.197 C 14.762 14.317,15.098 14.344,15.364 14.266 C 15.779 14.146,15.959 13.829,15.990 13.163 C 16.063 11.593,15.207 10.147,13.780 9.430 C 13.027 9.052,12.213 8.928,11.356 9.061 M18.358 15.061 C 17.230 15.237,16.143 15.974,15.569 16.953 C 14.320 19.083,15.233 21.785,17.512 22.704 C 19.558 23.528,21.877 22.538,22.704 20.488 C 23.090 19.530,23.090 18.469,22.705 17.516 C 22.172 16.197,21.001 15.269,19.605 15.058 C 19.144 14.989,18.816 14.990,18.358 15.061 M19.470 17.057 C 19.485 17.071,18.954 17.626,18.290 18.290 C 17.626 18.954,17.072 19.486,17.059 19.472 C 17.045 19.459,17.024 19.314,17.012 19.150 C 16.940 18.202,17.563 17.318,18.477 17.071 C 18.735 17.001,19.405 16.991,19.470 17.057 M20.982 18.784 C 21.047 19.396,20.844 19.961,20.398 20.410 C 20.104 20.705,19.779 20.885,19.404 20.963 C 19.181 21.010,18.584 20.997,18.532 20.945 C 18.504 20.918,20.872 18.520,20.927 18.520 C 20.941 18.520,20.966 18.639,20.982 18.784 " stroke="none" fill="black" fill-rule="evenodd"></path></svg>