<svg xmlns="http://www.w3.org/2000/svg" width="24" height="24" viewBox="0 0 24 24" fill="none" stroke="currentColor" stroke-width="2" stroke-linecap="round" stroke-linejoin="round" class="icon icon-tabler icons-tabler-outline icon-tabler-brand-asana"><path d="M11.358 3.061 C 10.230 3.237,9.143 3.974,8.569 4.953 C 7.320 7.083,8.233 9.785,10.512 10.704 C 12.558 11.528,14.877 10.538,15.704 8.488 C 16.090 7.530,16.090 6.469,15.705 5.516 C 15.172 4.197,14.001 3.269,12.605 3.058 C 12.144 2.989,11.816 2.990,11.358 3.061 M12.523 5.073 C 13.262 5.266,13.850 5.924,13.967 6.690 C 14.067 7.343,13.873 7.933,13.403 8.404 C 13.002 8.807,12.547 9.000,12.000 9.000 C 11.485 9.000,11.038 8.822,10.653 8.465 C 9.323 7.229,10.189 5.005,12.000 5.005 C 12.143 5.005,12.378 5.036,12.523 5.073 M6.358 12.061 C 5.230 12.237,4.143 12.974,3.569 13.953 C 2.320 16.083,3.233 18.785,5.512 19.704 C 7.558 20.528,9.877 19.538,10.704 17.488 C 11.090 16.530,11.090 15.469,10.705 14.516 C 10.172 13.197,9.001 12.269,7.605 12.058 C 7.144 11.989,6.816 11.990,6.358 12.061 M16.358 12.061 C 15.230 12.237,14.143 12.974,13.569 13.953 C 12.320 16.083,13.233 18.785,15.512 19.704 C 17.558 20.528,19.877 19.538,20.704 17.488 C 21.090 16.530,21.090 15.469,20.705 14.516 C 20.172 13.197,19.001 12.269,17.605 12.058 C 17.144 11.989,16.816 11.990,16.358 12.061 M7.523 14.073 C 8.262 14.266,8.850 14.924,8.967 15.690 C 9.067 16.343,8.873 16.933,8.403 17.404 C 8.002 17.807,7.547 18.000,7.000 18.000 C 6.485 18.000,6.038 17.822,5.653 17.465 C 4.323 16.229,5.189 14.005,7.000 14.005 C 7.143 14.005,7.378 14.036,7.523 14.073 M17.523 14.073 C 18.262 14.266,18.850 14.924,18.967 15.690 C 19.067 16.343,18.873 16.933,18.403 17.404 C 18.002 17.807,17.547 18.000,17.000 18.000 C 16.485 18.000,16.038 17.822,15.653 17.465 C 14.323 16.229,15.189 14.005,17.000 14.005 C 17.143 14.005,17.378 14.036,17.523 14.073 " stroke="none" fill="black" fill-rule="evenodd"></path></svg>