<svg xmlns="http://www.w3.org/2000/svg" width="24" height="24" viewBox="0 0 24 24" fill="none" stroke="currentColor" stroke-width="2" stroke-linecap="round" stroke-linejoin="round" class="icon icon-tabler icons-tabler-outline icon-tabler-info-square"><path d="M4.499 2.043 C 3.380 2.232,2.461 3.048,2.114 4.160 L 2.020 4.460 2.020 12.000 L 2.020 19.540 2.114 19.840 C 2.422 20.827,3.173 21.578,4.160 21.886 L 4.460 21.980 12.000 21.980 L 19.540 21.980 19.840 21.886 C 20.827 21.578,21.578 20.827,21.886 19.840 L 21.980 19.540 21.980 12.000 L 21.980 4.460 21.886 4.160 C 21.581 3.182,20.832 2.428,19.861 2.121 L 19.540 2.020 12.120 2.014 C 8.039 2.011,4.609 2.024,4.499 2.043 M19.310 4.061 C 19.589 4.144,19.856 4.411,19.939 4.690 C 19.993 4.870,20.000 5.755,20.000 12.001 C 20.000 17.907,19.991 19.138,19.945 19.290 C 19.872 19.533,19.707 19.740,19.484 19.872 L 19.300 19.980 12.000 19.980 L 4.700 19.980 4.516 19.872 C 4.415 19.813,4.284 19.700,4.225 19.623 C 3.986 19.309,4.000 19.795,4.000 12.022 C 4.000 5.758,4.007 4.870,4.061 4.690 C 4.140 4.421,4.412 4.143,4.673 4.063 C 4.964 3.974,19.009 3.971,19.310 4.061 M11.614 8.055 C 11.220 8.184,11.039 8.437,11.009 8.900 C 10.978 9.381,11.119 9.699,11.442 9.880 C 11.597 9.967,11.669 9.980,12.000 9.980 C 12.312 9.980,12.408 9.964,12.540 9.894 C 12.866 9.718,13.000 9.459,13.000 9.000 C 13.000 8.357,12.713 8.048,12.083 8.016 C 11.893 8.006,11.718 8.021,11.614 8.055 M10.614 11.057 C 10.223 11.180,10.039 11.436,10.009 11.900 C 9.968 12.532,10.251 12.922,10.797 12.987 L 11.000 13.011 11.000 14.616 C 11.000 15.567,11.017 16.279,11.041 16.365 C 11.102 16.586,11.245 16.770,11.442 16.880 C 11.612 16.976,11.654 16.981,12.405 16.993 C 12.880 17.001,13.252 16.989,13.349 16.963 C 13.583 16.900,13.767 16.760,13.880 16.558 C 13.967 16.402,13.980 16.332,13.979 16.000 C 13.978 15.685,13.963 15.591,13.888 15.450 C 13.773 15.232,13.551 15.086,13.246 15.028 L 13.004 14.982 12.992 13.301 C 12.980 11.651,12.978 11.617,12.891 11.453 C 12.785 11.256,12.622 11.131,12.371 11.055 C 12.126 10.982,10.851 10.983,10.614 11.057 " stroke="none" fill="black" fill-rule="evenodd"></path></svg>