<svg xmlns="http://www.w3.org/2000/svg" width="24" height="24" viewBox="0 0 24 24" fill="none" stroke="currentColor" stroke-width="2" stroke-linecap="round" stroke-linejoin="round" class="icon icon-tabler icons-tabler-outline icon-tabler-face-mask"><path d="M11.540 4.125 C 11.136 4.183,6.010 5.667,5.700 5.815 C 4.744 6.272,4.114 7.183,4.010 8.256 L 3.980 8.573 3.660 8.658 C 2.664 8.925,1.798 9.634,1.362 10.540 C 1.074 11.138,1.021 11.363,1.021 12.000 C 1.021 12.636,1.073 12.860,1.361 13.460 C 1.790 14.356,2.700 15.098,3.683 15.353 L 3.980 15.430 4.010 15.745 C 4.114 16.811,4.751 17.736,5.689 18.181 C 5.970 18.314,10.815 19.729,11.444 19.861 C 11.802 19.936,12.198 19.936,12.556 19.861 C 13.176 19.730,18.029 18.314,18.300 18.185 C 19.255 17.728,19.886 16.817,19.990 15.745 L 20.020 15.430 20.320 15.352 C 21.302 15.098,22.236 14.328,22.663 13.420 C 22.912 12.890,22.978 12.592,22.978 12.000 C 22.978 11.416,22.912 11.115,22.674 10.600 C 22.391 9.992,21.958 9.509,21.332 9.105 C 20.973 8.873,20.747 8.771,20.340 8.660 L 20.020 8.572 19.990 8.278 C 19.880 7.187,19.282 6.302,18.340 5.837 C 18.101 5.719,17.345 5.486,15.367 4.921 C 13.908 4.504,12.579 4.145,12.414 4.122 C 12.073 4.074,11.883 4.075,11.540 4.125 M14.800 6.839 C 16.197 7.239,17.411 7.605,17.498 7.653 C 17.688 7.757,17.901 8.026,17.958 8.231 C 18.015 8.436,18.015 15.564,17.958 15.769 C 17.901 15.974,17.688 16.243,17.498 16.347 C 17.296 16.459,12.187 17.920,12.000 17.920 C 11.813 17.920,6.704 16.459,6.502 16.347 C 6.312 16.243,6.099 15.974,6.042 15.769 C 5.985 15.564,5.985 8.436,6.042 8.231 C 6.099 8.026,6.312 7.757,6.502 7.653 C 6.616 7.590,10.612 6.419,11.780 6.106 C 11.981 6.052,12.423 6.159,14.800 6.839 M8.614 9.057 C 8.377 9.131,8.212 9.261,8.109 9.453 C 8.035 9.592,8.020 9.684,8.020 10.000 C 8.020 10.331,8.033 10.403,8.120 10.558 C 8.230 10.755,8.414 10.898,8.635 10.959 C 8.832 11.014,15.168 11.014,15.365 10.959 C 15.586 10.898,15.770 10.755,15.880 10.558 C 15.967 10.402,15.980 10.332,15.979 10.000 C 15.978 9.567,15.898 9.355,15.678 9.199 C 15.398 8.999,15.411 9.000,11.984 9.003 C 9.472 9.005,8.744 9.017,8.614 9.057 M4.000 12.000 C 4.000 13.100,3.991 13.320,3.944 13.320 C 3.860 13.320,3.424 12.986,3.306 12.831 C 3.108 12.572,3.024 12.324,3.023 11.998 C 3.021 11.736,3.038 11.661,3.152 11.430 C 3.234 11.263,3.353 11.102,3.471 10.998 C 3.644 10.846,3.896 10.686,3.970 10.682 C 3.986 10.681,4.000 11.274,4.000 12.000 M20.192 10.756 C 20.460 10.893,20.710 11.150,20.848 11.430 C 21.074 11.889,21.017 12.408,20.694 12.831 C 20.576 12.986,20.140 13.320,20.056 13.320 C 20.009 13.320,20.000 13.100,20.000 12.000 C 20.000 11.274,20.010 10.680,20.022 10.680 C 20.033 10.680,20.110 10.714,20.192 10.756 M8.614 13.057 C 8.377 13.131,8.212 13.261,8.109 13.453 C 8.035 13.592,8.020 13.684,8.020 14.000 C 8.020 14.331,8.033 14.403,8.120 14.558 C 8.230 14.755,8.414 14.898,8.635 14.959 C 8.832 15.014,15.168 15.014,15.365 14.959 C 15.586 14.898,15.770 14.755,15.880 14.558 C 15.967 14.402,15.980 14.332,15.979 14.000 C 15.978 13.567,15.898 13.355,15.678 13.199 C 15.398 12.999,15.411 13.000,11.984 13.003 C 9.472 13.005,8.744 13.017,8.614 13.057 " stroke="none" fill="black" fill-rule="evenodd"></path></svg>