<svg xmlns="http://www.w3.org/2000/svg" width="24" height="24" viewBox="0 0 24 24" fill="none" stroke="currentColor" stroke-width="2" stroke-linecap="round" stroke-linejoin="round" class="icon icon-tabler icons-tabler-outline icon-tabler-brand-oauth"><path d="M11.280 1.023 C 11.203 1.032,10.951 1.059,10.720 1.083 C 9.527 1.210,8.337 1.558,7.180 2.120 C 6.045 2.671,5.193 3.285,4.238 4.239 C 3.277 5.198,2.643 6.080,2.097 7.220 C 0.301 10.968,0.728 15.286,3.226 18.633 C 3.701 19.269,4.753 20.316,5.400 20.797 C 9.364 23.745,14.666 23.734,18.637 20.770 C 19.246 20.316,20.316 19.246,20.770 18.637 C 23.744 14.652,23.744 9.348,20.770 5.363 C 20.316 4.755,19.247 3.686,18.640 3.235 C 17.045 2.049,15.365 1.360,13.423 1.096 C 13.000 1.038,11.574 0.990,11.280 1.023 M13.320 3.101 C 15.883 3.488,18.124 4.931,19.560 7.120 C 19.863 7.583,20.303 8.479,20.492 9.020 C 20.838 10.013,20.977 10.865,20.977 12.000 C 20.977 13.493,20.720 14.621,20.080 15.940 C 19.375 17.394,18.311 18.607,16.927 19.532 C 16.138 20.060,14.876 20.588,13.908 20.797 C 11.266 21.366,8.479 20.708,6.370 19.019 C 4.857 17.807,3.722 16.029,3.267 14.160 C 3.081 13.397,3.023 12.888,3.023 12.000 C 3.023 10.507,3.280 9.379,3.920 8.060 C 4.971 5.891,6.877 4.221,9.160 3.466 C 9.865 3.233,10.432 3.118,11.340 3.024 C 11.662 2.991,12.911 3.039,13.320 3.101 M10.900 5.063 C 10.740 5.094,10.459 5.197,10.242 5.305 C 9.767 5.539,9.337 5.949,9.113 6.380 C 8.952 6.690,6.117 14.538,6.045 14.873 C 5.897 15.565,6.093 16.344,6.578 16.989 C 7.171 17.777,8.317 18.172,9.291 17.922 C 10.131 17.707,10.712 17.226,11.092 16.430 L 11.298 16.000 11.999 16.000 L 12.700 16.000 12.888 16.390 C 13.198 17.037,13.584 17.443,14.152 17.720 C 14.935 18.102,15.792 18.088,16.601 17.680 C 17.627 17.161,18.211 15.871,17.923 14.756 C 17.810 14.316,15.016 6.622,14.868 6.341 C 14.795 6.203,14.612 5.970,14.439 5.796 C 14.062 5.416,13.560 5.148,13.060 5.060 C 12.639 4.985,11.287 4.987,10.900 5.063 M12.905 7.102 C 12.965 7.148,13.047 7.229,13.087 7.282 C 13.185 7.416,16.000 15.215,15.999 15.351 C 15.996 15.752,15.595 16.061,15.179 15.982 C 14.916 15.933,14.798 15.778,14.483 15.062 C 14.157 14.320,14.004 14.131,13.662 14.045 C 13.414 13.982,10.580 13.984,10.331 14.046 C 9.999 14.130,9.816 14.360,9.497 15.094 C 9.296 15.557,9.187 15.758,9.092 15.842 C 8.778 16.118,8.250 16.007,8.079 15.629 C 8.036 15.536,8.001 15.416,8.001 15.362 C 8.000 15.263,10.756 7.557,10.861 7.365 C 11.046 7.028,11.148 6.998,12.067 7.010 C 12.731 7.019,12.804 7.027,12.905 7.102 " stroke="none" fill="black" fill-rule="evenodd"></path></svg>