<svg xmlns="http://www.w3.org/2000/svg" width="24" height="24" viewBox="0 0 24 24" fill="none" stroke="currentColor" stroke-width="2" stroke-linecap="round" stroke-linejoin="round" class="icon icon-tabler icons-tabler-outline icon-tabler-file-infinity"><path d="M6.499 2.043 C 5.383 2.230,4.461 3.048,4.114 4.160 L 4.020 4.460 4.020 12.000 L 4.020 19.540 4.114 19.840 C 4.419 20.817,5.156 21.561,6.140 21.884 C 6.410 21.973,6.480 21.977,8.020 21.992 C 9.802 22.009,9.952 21.995,10.189 21.787 C 10.401 21.601,10.486 21.376,10.486 21.003 C 10.486 20.656,10.418 20.446,10.248 20.267 C 10.018 20.026,10.005 20.024,8.280 20.001 L 6.700 19.980 6.516 19.872 C 6.415 19.813,6.284 19.700,6.225 19.623 C 5.986 19.309,6.000 19.795,6.000 12.022 C 6.000 4.006,5.975 4.631,6.303 4.303 C 6.618 3.989,6.481 4.000,9.947 4.000 L 13.000 4.000 13.000 5.632 C 13.000 7.399,13.010 7.507,13.225 7.930 C 13.361 8.199,13.801 8.639,14.070 8.775 C 14.493 8.990,14.601 9.000,16.368 9.000 L 18.000 9.000 18.000 11.610 C 18.000 13.235,18.016 14.275,18.041 14.365 C 18.148 14.750,18.437 14.962,18.896 14.991 C 19.381 15.022,19.699 14.882,19.880 14.558 L 19.980 14.380 19.980 11.000 L 19.980 7.620 19.890 7.452 C 19.841 7.360,19.724 7.231,19.630 7.165 C 19.498 7.073,15.263 2.838,14.719 2.254 C 14.473 1.991,14.626 2.000,10.463 2.005 C 8.393 2.007,6.609 2.025,6.499 2.043 M15.800 6.220 L 16.579 7.000 15.790 7.000 L 15.000 7.000 15.000 6.220 C 15.000 5.791,15.005 5.440,15.010 5.440 C 15.016 5.440,15.371 5.791,15.800 6.220 M13.530 16.044 C 12.630 16.194,11.800 16.791,11.367 17.600 C 11.094 18.110,11.020 18.417,11.023 19.020 C 11.025 19.473,11.039 19.581,11.133 19.860 C 11.429 20.745,12.077 21.447,12.909 21.781 C 13.560 22.043,14.370 22.067,15.038 21.843 C 15.685 21.626,15.784 21.562,16.414 20.956 L 17.000 20.392 17.583 20.954 C 18.209 21.559,18.302 21.619,18.967 21.848 C 19.317 21.968,19.375 21.976,19.900 21.976 C 20.733 21.977,21.247 21.804,21.858 21.319 C 22.357 20.923,22.688 20.430,22.888 19.785 C 23.017 19.372,23.015 18.624,22.884 18.200 C 22.627 17.363,22.070 16.704,21.300 16.323 C 20.819 16.085,20.546 16.025,19.940 16.022 C 18.932 16.018,18.353 16.283,17.471 17.152 L 17.001 17.614 16.528 17.151 C 16.015 16.649,15.656 16.393,15.221 16.221 C 14.723 16.023,14.067 15.955,13.530 16.044 M14.602 18.149 C 14.707 18.210,14.965 18.425,15.174 18.626 L 15.555 18.992 15.127 19.408 C 14.657 19.865,14.502 19.958,14.161 19.989 C 13.539 20.046,13.023 19.596,13.023 19.000 C 13.023 18.683,13.121 18.474,13.367 18.263 C 13.703 17.976,14.220 17.928,14.602 18.149 M20.264 18.059 C 20.694 18.187,20.974 18.558,20.974 19.000 C 20.974 19.318,20.877 19.528,20.633 19.737 C 20.274 20.044,19.714 20.082,19.333 19.823 C 19.262 19.774,19.031 19.568,18.820 19.364 L 18.437 18.994 18.824 18.627 C 19.037 18.425,19.263 18.226,19.328 18.184 C 19.617 17.999,19.923 17.958,20.264 18.059 " stroke="none" fill="black" fill-rule="evenodd"></path></svg>