<svg xmlns="http://www.w3.org/2000/svg" width="24" height="24" viewBox="0 0 24 24" fill="none" stroke="currentColor" stroke-width="2" stroke-linecap="round" stroke-linejoin="round" class="icon icon-tabler icons-tabler-outline icon-tabler-chart-radar"><path d="M11.565 2.068 C 11.469 2.102,11.324 2.196,11.244 2.276 C 11.054 2.466,2.321 8.905,2.082 9.031 C 1.837 9.161,1.779 9.218,1.632 9.473 C 1.533 9.648,1.503 9.752,1.488 9.985 C 1.472 10.241,1.483 10.305,1.572 10.489 C 1.698 10.749,4.921 20.868,4.950 21.096 C 4.992 21.425,5.270 21.786,5.589 21.928 C 5.752 22.000,5.977 22.003,12.000 22.003 C 18.023 22.003,18.248 22.000,18.411 21.928 C 18.730 21.786,19.008 21.425,19.050 21.096 C 19.079 20.868,22.302 10.749,22.428 10.489 C 22.517 10.305,22.528 10.241,22.512 9.985 C 22.497 9.752,22.467 9.648,22.368 9.473 C 22.222 9.218,22.163 9.161,21.920 9.032 C 21.679 8.905,12.953 2.473,12.761 2.281 C 12.679 2.199,12.525 2.102,12.419 2.066 C 12.181 1.985,11.798 1.986,11.565 2.068 M11.000 5.996 L 11.000 6.993 8.810 8.583 C 7.605 9.457,6.602 10.186,6.580 10.201 C 6.540 10.229,4.809 9.701,4.748 9.642 C 4.723 9.619,10.931 5.000,10.987 5.000 C 10.994 5.000,11.000 5.448,11.000 5.996 M16.192 7.334 C 17.893 8.586,19.270 9.625,19.252 9.642 C 19.191 9.701,17.460 10.229,17.420 10.201 C 17.398 10.186,16.395 9.457,15.190 8.583 L 13.000 6.993 13.000 5.994 C 13.000 5.205,13.011 5.002,13.050 5.026 C 13.078 5.042,14.492 6.081,16.192 7.334 M10.991 11.094 L 10.980 11.629 9.980 11.314 C 9.430 11.141,8.966 10.995,8.949 10.989 C 8.932 10.984,9.382 10.642,9.949 10.230 L 10.980 9.480 10.991 10.020 C 10.997 10.317,10.997 10.800,10.991 11.094 M14.095 10.259 C 14.638 10.655,15.069 10.983,15.052 10.989 C 15.034 10.994,14.588 11.135,14.060 11.300 C 13.532 11.466,13.078 11.610,13.050 11.620 C 13.011 11.634,13.000 11.404,13.000 10.557 C 13.000 9.668,13.009 9.482,13.053 9.508 C 13.082 9.526,13.551 9.864,14.095 10.259 M4.881 11.800 C 5.294 11.933,5.640 12.063,5.651 12.090 C 5.858 12.637,7.520 17.241,7.520 17.268 C 7.520 17.289,7.261 17.652,6.944 18.075 L 6.368 18.843 6.246 18.472 C 6.179 18.267,5.681 16.705,5.140 15.000 C 4.599 13.295,4.131 11.823,4.101 11.730 C 4.064 11.617,4.059 11.560,4.088 11.560 C 4.111 11.560,4.468 11.668,4.881 11.800 M19.899 11.730 C 19.869 11.823,19.401 13.295,18.860 15.000 C 18.319 16.705,17.821 18.267,17.754 18.471 L 17.632 18.843 16.894 17.859 L 16.156 16.876 17.249 14.468 L 18.342 12.060 19.081 11.814 C 19.488 11.678,19.850 11.565,19.888 11.564 C 19.949 11.560,19.950 11.575,19.899 11.730 M9.180 13.157 C 9.752 13.337,10.251 13.493,10.289 13.504 C 10.343 13.520,10.214 13.716,9.670 14.441 C 9.253 14.996,8.972 15.339,8.956 15.309 C 8.941 15.282,8.740 14.738,8.508 14.100 C 8.276 13.462,8.073 12.905,8.056 12.863 C 8.034 12.806,8.041 12.792,8.083 12.808 C 8.114 12.820,8.608 12.977,9.180 13.157 M15.749 12.930 C 15.584 13.345,14.781 15.036,14.760 15.012 C 14.744 14.994,14.486 14.653,14.187 14.253 L 13.642 13.525 13.851 13.463 C 13.966 13.428,14.420 13.285,14.860 13.143 C 15.718 12.868,15.779 12.853,15.749 12.930 M12.510 15.342 L 13.001 16.000 12.000 16.000 L 10.999 16.000 11.490 15.342 C 11.759 14.980,11.989 14.683,12.000 14.683 C 12.011 14.683,12.241 14.980,12.510 15.342 M15.250 19.000 L 16.000 20.000 12.000 20.000 L 8.000 20.000 8.750 19.000 L 9.499 18.000 12.000 18.000 L 14.501 18.000 15.250 19.000 " stroke="none" fill="black" fill-rule="evenodd"></path></svg>