<svg xmlns="http://www.w3.org/2000/svg" width="24" height="24" viewBox="0 0 24 24" fill="none" stroke="currentColor" stroke-width="2" stroke-linecap="round" stroke-linejoin="round" class="icon icon-tabler icons-tabler-outline icon-tabler-temperature"><path d="M11.499 2.040 C 10.374 2.244,9.488 3.024,9.114 4.140 L 9.020 4.420 9.009 8.700 L 8.998 12.980 8.861 13.074 C 8.655 13.215,8.079 13.827,7.889 14.106 C 6.930 15.519,6.741 17.283,7.379 18.865 C 7.651 19.541,7.988 20.029,8.554 20.567 C 9.143 21.129,9.767 21.503,10.500 21.734 C 11.061 21.911,11.267 21.939,12.000 21.939 C 12.733 21.939,12.939 21.911,13.500 21.734 C 14.251 21.497,14.867 21.123,15.488 20.526 C 17.231 18.853,17.492 16.141,16.106 14.100 C 15.921 13.826,15.343 13.213,15.139 13.074 L 15.002 12.980 14.991 8.700 L 14.980 4.420 14.886 4.140 C 14.555 3.154,13.800 2.403,12.861 2.129 C 12.500 2.023,11.832 1.980,11.499 2.040 M12.310 4.061 C 12.452 4.103,12.571 4.178,12.697 4.303 C 12.993 4.599,13.000 4.650,13.000 6.447 L 13.000 8.000 12.000 8.000 L 11.000 8.000 11.000 6.447 C 11.000 4.649,11.007 4.599,11.304 4.303 C 11.583 4.024,11.916 3.944,12.310 4.061 M13.000 11.830 C 13.000 12.897,13.016 13.717,13.039 13.796 C 13.104 14.022,13.247 14.195,13.520 14.376 C 13.871 14.609,14.085 14.793,14.304 15.047 C 14.512 15.289,14.846 15.952,14.926 16.280 C 15.004 16.599,14.992 17.397,14.905 17.720 C 14.631 18.730,13.852 19.533,12.840 19.847 C 12.588 19.925,12.453 19.940,12.000 19.940 C 11.547 19.940,11.412 19.925,11.160 19.847 C 10.148 19.533,9.370 18.732,9.095 17.720 C 9.010 17.408,8.997 16.556,9.073 16.280 C 9.300 15.456,9.872 14.683,10.440 14.434 C 10.663 14.336,10.822 14.189,10.931 13.980 C 11.013 13.823,11.014 13.780,11.004 11.910 L 10.993 10.000 11.996 10.000 L 13.000 10.000 13.000 11.830 " stroke="none" fill="black" fill-rule="evenodd"></path></svg>