<svg xmlns="http://www.w3.org/2000/svg" width="24" height="24" viewBox="0 0 24 24" fill="none" stroke="currentColor" stroke-width="2" stroke-linecap="round" stroke-linejoin="round" class="icon icon-tabler icons-tabler-outline icon-tabler-escalator"><path d="M16.311 4.040 C 15.918 4.109,15.486 4.287,15.120 4.531 C 15.021 4.597,13.059 6.528,10.760 8.823 L 6.580 12.995 5.260 13.011 C 4.072 13.024,3.910 13.034,3.636 13.110 C 2.401 13.450,1.507 14.321,1.133 15.548 C 1.038 15.863,1.026 15.963,1.026 16.500 C 1.026 17.037,1.038 17.137,1.133 17.452 C 1.500 18.655,2.337 19.492,3.548 19.869 L 3.900 19.978 6.183 19.991 C 8.653 20.005,8.754 19.999,9.278 19.787 C 9.846 19.557,9.807 19.594,14.201 15.211 L 18.422 11.000 19.101 11.000 C 20.110 10.999,20.593 10.893,21.240 10.531 C 21.709 10.268,22.268 9.709,22.531 9.240 C 23.666 7.214,22.625 4.737,20.378 4.112 C 20.075 4.028,19.979 4.024,18.280 4.015 C 17.301 4.011,16.415 4.022,16.311 4.040 M20.104 6.133 C 20.414 6.276,20.722 6.586,20.866 6.900 C 20.961 7.106,20.977 7.192,20.977 7.500 C 20.977 7.808,20.961 7.894,20.866 8.100 C 20.722 8.414,20.414 8.724,20.104 8.867 C 19.860 8.980,19.858 8.980,18.800 9.001 C 17.904 9.019,17.715 9.033,17.580 9.093 C 17.465 9.143,16.201 10.381,13.080 13.498 C 10.693 15.882,8.677 17.865,8.600 17.906 C 8.469 17.975,8.324 17.980,6.300 17.980 L 4.140 17.980 3.900 17.868 C 3.583 17.720,3.275 17.413,3.135 17.104 C 3.040 16.895,3.024 16.808,3.024 16.500 C 3.024 16.192,3.040 16.105,3.135 15.896 C 3.275 15.587,3.583 15.280,3.900 15.132 L 4.140 15.020 5.720 15.000 C 7.157 14.982,7.313 14.973,7.440 14.906 C 7.517 14.865,9.542 12.872,11.941 10.476 C 14.339 8.080,16.310 6.120,16.321 6.119 C 16.331 6.119,16.412 6.092,16.500 6.060 C 16.633 6.011,16.933 6.003,18.260 6.010 L 19.860 6.020 20.104 6.133 " stroke="none" fill="black" fill-rule="evenodd"></path></svg>