<svg xmlns="http://www.w3.org/2000/svg" width="24" height="24" viewBox="0 0 24 24" fill="none" stroke="currentColor" stroke-width="2" stroke-linecap="round" stroke-linejoin="round" class="icon icon-tabler icons-tabler-outline icon-tabler-blend-mode"><path d="M13.720 2.045 C 11.398 2.283,9.268 3.649,8.051 5.680 C 7.830 6.051,7.532 6.692,7.421 7.040 C 7.382 7.161,7.330 7.280,7.305 7.304 C 7.280 7.328,7.117 7.397,6.942 7.458 C 5.987 7.789,4.974 8.435,4.205 9.205 C 3.126 10.282,2.400 11.665,2.113 13.186 C 1.983 13.870,1.983 15.130,2.113 15.814 C 2.699 18.920,5.080 21.301,8.186 21.887 C 8.870 22.017,10.130 22.017,10.814 21.887 C 13.255 21.426,15.307 19.830,16.315 17.608 C 16.422 17.372,16.541 17.081,16.579 16.960 C 16.666 16.688,16.688 16.666,16.960 16.579 C 17.901 16.280,19.007 15.584,19.795 14.795 C 20.872 13.719,21.601 12.332,21.887 10.814 C 22.017 10.130,22.017 8.870,21.887 8.186 C 21.725 7.329,21.374 6.390,20.949 5.680 C 19.441 3.163,16.628 1.748,13.720 2.045 M15.072 4.042 C 16.846 4.234,18.371 5.229,19.272 6.780 C 20.094 8.196,20.213 10.043,19.582 11.581 C 19.124 12.696,18.252 13.687,17.196 14.295 L 17.011 14.401 16.984 13.995 C 16.776 10.981,14.744 8.354,11.877 7.396 C 11.291 7.200,10.789 7.097,10.126 7.036 L 9.601 6.988 9.687 6.844 C 10.162 6.051,10.608 5.549,11.280 5.053 C 12.348 4.265,13.731 3.897,15.072 4.042 M10.072 9.042 C 12.371 9.291,14.258 10.922,14.823 13.147 C 14.936 13.595,15.021 14.462,14.983 14.774 L 14.954 15.000 14.537 15.000 C 13.072 15.000,11.699 14.442,10.668 13.427 C 9.733 12.508,9.183 11.373,9.042 10.072 C 8.968 9.388,8.991 9.060,9.114 9.027 C 9.241 8.993,9.686 9.000,10.072 9.042 M7.138 10.940 C 7.279 11.683,7.649 12.649,8.051 13.320 C 8.838 14.634,10.052 15.719,11.420 16.331 C 12.236 16.696,12.986 16.890,13.908 16.975 L 14.395 17.020 14.212 17.320 C 13.593 18.335,12.658 19.147,11.624 19.570 C 9.546 20.418,7.242 19.976,5.668 18.427 C 4.712 17.488,4.172 16.353,4.037 15.002 C 3.829 12.924,4.854 10.901,6.680 9.788 L 6.980 9.605 7.025 10.092 C 7.050 10.361,7.100 10.742,7.138 10.940 " stroke="none" fill="black" fill-rule="evenodd"></path></svg>