<svg xmlns="http://www.w3.org/2000/svg" width="24" height="24" viewBox="0 0 24 24" fill="none" stroke="currentColor" stroke-width="2" stroke-linecap="round" stroke-linejoin="round" class="icon icon-tabler icons-tabler-outline icon-tabler-parachute"><path d="M11.280 1.023 C 11.203 1.032,10.951 1.059,10.720 1.083 C 8.832 1.283,6.991 2.023,5.360 3.235 C 4.751 3.688,3.684 4.755,3.226 5.367 C 2.173 6.779,1.486 8.346,1.179 10.038 C 1.086 10.550,0.947 11.799,0.955 12.059 C 0.963 12.331,1.273 12.880,1.419 12.880 C 1.443 12.880,3.703 15.123,6.441 17.864 C 10.256 21.682,11.466 22.871,11.618 22.948 C 11.869 23.076,12.122 23.081,12.363 22.961 C 12.489 22.898,13.972 21.445,17.564 17.866 C 20.327 15.113,22.649 12.812,22.724 12.754 C 22.868 12.641,23.039 12.270,23.046 12.055 C 23.053 11.807,22.913 10.552,22.820 10.038 C 22.518 8.357,21.824 6.775,20.770 5.363 C 20.316 4.755,19.247 3.686,18.640 3.235 C 17.045 2.049,15.365 1.360,13.423 1.096 C 13.000 1.038,11.574 0.990,11.280 1.023 M13.320 3.101 C 15.851 3.483,18.082 4.905,19.515 7.050 C 19.699 7.325,20.160 8.153,20.160 8.208 C 20.160 8.220,20.042 8.197,19.898 8.157 C 19.284 7.986,18.483 7.966,17.823 8.103 C 17.036 8.266,16.334 8.633,15.696 9.214 L 15.451 9.436 15.336 9.314 C 15.104 9.070,14.580 8.711,14.145 8.499 C 12.383 7.640,10.188 7.934,8.769 9.221 L 8.519 9.448 8.303 9.229 C 7.773 8.690,6.979 8.270,6.177 8.103 C 5.517 7.966,4.716 7.986,4.102 8.157 C 3.958 8.197,3.840 8.220,3.840 8.208 C 3.840 8.196,3.939 8.001,4.059 7.773 C 5.124 5.760,6.993 4.182,9.160 3.466 C 9.865 3.233,10.432 3.118,11.340 3.024 C 11.662 2.991,12.911 3.039,13.320 3.101 M5.776 10.060 C 6.316 10.174,6.806 10.479,7.121 10.897 C 7.345 11.194,7.442 11.469,7.482 11.926 C 7.505 12.190,7.549 12.391,7.618 12.556 C 7.699 12.748,9.019 16.486,9.505 17.900 L 9.601 18.180 6.319 14.900 C 3.374 11.957,3.040 11.610,3.061 11.520 C 3.187 10.991,3.751 10.400,4.361 10.160 C 4.765 10.000,5.313 9.962,5.776 10.060 M12.780 10.099 C 13.613 10.316,14.375 11.035,14.465 11.690 C 14.486 11.843,14.352 12.250,13.254 15.390 C 12.575 17.331,12.011 18.919,12.000 18.919 C 11.989 18.919,11.425 17.331,10.746 15.390 C 9.648 12.250,9.514 11.843,9.535 11.690 C 9.612 11.130,10.235 10.455,10.911 10.198 C 11.441 9.997,12.229 9.955,12.780 10.099 M19.258 10.058 C 19.426 10.091,19.684 10.175,19.832 10.247 C 20.309 10.478,20.840 11.088,20.939 11.520 C 20.960 11.610,20.618 11.964,17.681 14.900 L 14.399 18.180 14.495 17.900 C 14.981 16.486,16.301 12.748,16.382 12.556 C 16.451 12.391,16.495 12.190,16.518 11.926 C 16.558 11.469,16.655 11.194,16.879 10.897 C 17.408 10.197,18.313 9.878,19.258 10.058 " stroke="none" fill="black" fill-rule="evenodd"></path></svg>