<svg xmlns="http://www.w3.org/2000/svg" width="24" height="24" viewBox="0 0 24 24" fill="none" stroke="currentColor" stroke-width="2" stroke-linecap="round" stroke-linejoin="round" class="icon icon-tabler icons-tabler-outline icon-tabler-align-box-right-top"><path d="M4.499 2.043 C 3.380 2.232,2.461 3.048,2.114 4.160 L 2.020 4.460 2.020 12.000 L 2.020 19.540 2.114 19.840 C 2.422 20.827,3.173 21.578,4.160 21.886 L 4.460 21.980 12.000 21.980 L 19.540 21.980 19.840 21.886 C 20.827 21.578,21.578 20.827,21.886 19.840 L 21.980 19.540 21.980 12.000 L 21.980 4.460 21.886 4.160 C 21.581 3.182,20.832 2.428,19.861 2.121 L 19.540 2.020 12.120 2.014 C 8.039 2.011,4.609 2.024,4.499 2.043 M19.310 4.061 C 19.589 4.144,19.856 4.411,19.939 4.690 C 19.993 4.870,20.000 5.755,20.000 12.001 C 20.000 17.907,19.991 19.138,19.945 19.290 C 19.872 19.533,19.707 19.740,19.484 19.872 L 19.300 19.980 12.000 19.980 L 4.700 19.980 4.516 19.872 C 4.415 19.813,4.284 19.700,4.225 19.623 C 3.986 19.309,4.000 19.795,4.000 12.022 C 4.000 5.758,4.007 4.870,4.061 4.690 C 4.140 4.421,4.412 4.143,4.673 4.063 C 4.964 3.974,19.009 3.971,19.310 4.061 M12.614 6.057 C 12.377 6.131,12.212 6.261,12.109 6.453 C 12.035 6.592,12.020 6.684,12.020 7.000 C 12.020 7.331,12.033 7.403,12.120 7.558 C 12.230 7.755,12.414 7.898,12.635 7.959 C 12.831 8.014,17.169 8.014,17.365 7.959 C 17.586 7.898,17.770 7.755,17.880 7.558 C 17.967 7.402,17.980 7.332,17.979 7.000 C 17.978 6.567,17.898 6.355,17.678 6.199 C 17.406 6.005,17.336 6.000,14.984 6.003 C 13.293 6.005,12.741 6.017,12.614 6.057 M10.614 9.057 C 10.377 9.131,10.212 9.261,10.109 9.453 C 10.035 9.592,10.020 9.684,10.020 10.000 C 10.020 10.331,10.033 10.403,10.120 10.558 C 10.230 10.755,10.414 10.898,10.635 10.959 C 10.832 11.014,17.168 11.014,17.365 10.959 C 17.586 10.898,17.770 10.755,17.880 10.558 C 17.967 10.402,17.980 10.332,17.979 10.000 C 17.978 9.567,17.898 9.355,17.678 9.199 C 17.398 8.999,17.411 9.000,13.984 9.003 C 11.472 9.005,10.744 9.017,10.614 9.057 M14.614 12.057 C 14.377 12.131,14.212 12.261,14.109 12.453 C 14.035 12.592,14.020 12.684,14.020 13.000 C 14.020 13.331,14.033 13.403,14.120 13.558 C 14.230 13.755,14.414 13.898,14.635 13.959 C 14.826 14.012,17.174 14.012,17.365 13.959 C 17.586 13.898,17.770 13.755,17.880 13.558 C 17.967 13.402,17.980 13.332,17.979 13.000 C 17.978 12.687,17.962 12.591,17.890 12.453 C 17.786 12.256,17.623 12.131,17.371 12.055 C 17.117 11.979,14.859 11.981,14.614 12.057 " stroke="none" fill="black" fill-rule="evenodd"></path></svg>