<svg xmlns="http://www.w3.org/2000/svg" width="24" height="24" viewBox="0 0 24 24" fill="none" stroke="currentColor" stroke-width="2" stroke-linecap="round" stroke-linejoin="round" class="icon icon-tabler icons-tabler-outline icon-tabler-brand-reason"><path d="M4.499 2.043 C 3.380 2.232,2.461 3.048,2.114 4.160 L 2.020 4.460 2.020 12.000 L 2.020 19.540 2.114 19.840 C 2.422 20.827,3.173 21.578,4.160 21.886 L 4.460 21.980 12.000 21.980 L 19.540 21.980 19.840 21.886 C 20.827 21.578,21.578 20.827,21.886 19.840 L 21.980 19.540 21.980 12.000 L 21.980 4.460 21.886 4.160 C 21.581 3.182,20.832 2.428,19.861 2.121 L 19.540 2.020 12.120 2.014 C 8.039 2.011,4.609 2.024,4.499 2.043 M19.310 4.061 C 19.589 4.144,19.856 4.411,19.939 4.690 C 19.993 4.870,20.000 5.755,20.000 12.001 C 20.000 17.907,19.991 19.138,19.945 19.290 C 19.872 19.533,19.707 19.740,19.484 19.872 L 19.300 19.980 12.000 19.980 L 4.700 19.980 4.516 19.872 C 4.415 19.813,4.284 19.700,4.225 19.623 C 3.986 19.309,4.000 19.795,4.000 12.022 C 4.000 5.758,4.007 4.870,4.061 4.690 C 4.140 4.421,4.412 4.143,4.673 4.063 C 4.964 3.974,19.009 3.971,19.310 4.061 M7.614 11.057 C 7.377 11.131,7.212 11.261,7.109 11.453 L 7.020 11.620 7.009 14.912 C 7.002 17.060,7.012 18.257,7.039 18.356 C 7.144 18.747,7.434 18.961,7.896 18.991 C 8.381 19.022,8.699 18.882,8.880 18.558 C 8.979 18.381,8.980 18.374,8.993 17.190 L 9.005 16.000 9.236 16.000 L 9.468 16.000 10.324 17.289 C 10.795 17.998,11.242 18.647,11.317 18.732 C 11.695 19.156,12.240 19.136,12.734 18.681 C 12.956 18.477,13.040 18.304,13.039 18.054 C 13.038 17.782,12.969 17.652,12.286 16.630 L 11.683 15.725 11.933 15.546 C 12.373 15.233,12.684 14.824,12.867 14.320 C 12.965 14.051,12.976 13.966,12.976 13.500 C 12.976 13.035,12.965 12.948,12.868 12.680 C 12.646 12.068,12.195 11.561,11.620 11.277 C 11.100 11.020,10.941 11.001,9.260 11.003 C 8.162 11.005,7.737 11.019,7.614 11.057 M14.614 11.057 C 14.377 11.131,14.212 11.261,14.109 11.453 L 14.020 11.620 14.009 14.912 C 14.002 17.060,14.012 18.257,14.039 18.356 C 14.100 18.584,14.242 18.768,14.442 18.880 L 14.620 18.980 16.410 18.992 C 17.557 18.999,18.255 18.988,18.354 18.962 C 18.583 18.900,18.768 18.758,18.880 18.558 C 18.967 18.402,18.980 18.332,18.979 18.000 C 18.978 17.567,18.898 17.355,18.678 17.199 C 18.430 17.022,18.256 17.000,17.094 17.000 L 16.000 17.000 16.000 16.500 L 16.000 16.000 17.110 16.000 C 17.730 16.000,18.284 15.982,18.365 15.959 C 18.586 15.898,18.770 15.755,18.880 15.558 C 18.967 15.402,18.980 15.332,18.979 15.000 C 18.978 14.567,18.898 14.355,18.678 14.199 C 18.430 14.022,18.256 14.000,17.094 14.000 L 16.000 14.000 16.000 13.500 L 16.000 13.000 17.110 13.000 C 17.730 13.000,18.284 12.982,18.365 12.959 C 18.586 12.898,18.770 12.755,18.880 12.558 C 18.967 12.402,18.980 12.332,18.979 12.000 C 18.978 11.687,18.962 11.591,18.890 11.453 C 18.786 11.256,18.623 11.131,18.371 11.055 C 18.114 10.978,14.862 10.980,14.614 11.057 M10.724 13.062 C 10.977 13.193,11.068 13.508,10.922 13.747 C 10.791 13.962,10.733 13.974,9.830 13.988 L 9.000 14.000 9.000 13.500 L 9.000 13.000 9.802 13.000 C 10.448 13.000,10.627 13.012,10.724 13.062 " stroke="none" fill="black" fill-rule="evenodd"></path></svg>