<svg xmlns="http://www.w3.org/2000/svg" width="24" height="24" viewBox="0 0 24 24" fill="none" stroke="currentColor" stroke-width="2" stroke-linecap="round" stroke-linejoin="round" class="icon icon-tabler icons-tabler-outline icon-tabler-brand-headlessui"><path d="M14.633 2.045 C 13.854 2.145,6.402 3.374,6.071 3.457 C 4.452 3.862,3.023 5.118,2.395 6.690 C 2.075 7.490,1.937 8.505,2.037 9.318 C 2.126 10.038,3.361 17.569,3.442 17.888 C 3.723 18.987,4.382 20.038,5.215 20.715 C 6.082 21.418,6.902 21.783,7.980 21.944 C 8.762 22.061,8.994 22.034,13.491 21.303 C 15.730 20.939,17.708 20.604,17.885 20.559 C 19.772 20.077,21.247 18.646,21.780 16.780 C 21.946 16.200,21.980 15.929,21.975 15.240 C 21.971 14.587,21.964 14.539,21.306 10.509 C 20.642 6.444,20.564 6.025,20.377 5.527 C 19.504 3.208,17.067 1.731,14.633 2.045 M16.193 4.119 C 17.014 4.352,17.817 4.963,18.243 5.680 C 18.572 6.235,18.589 6.315,19.303 10.705 C 19.667 12.946,19.975 14.942,19.987 15.140 C 20.043 16.042,19.710 16.928,19.048 17.642 C 18.590 18.135,17.970 18.499,17.346 18.639 C 16.769 18.768,9.198 19.969,8.838 19.988 C 7.858 20.040,6.987 19.684,6.240 18.925 C 5.859 18.538,5.624 18.159,5.461 17.670 C 5.341 17.309,4.049 9.450,4.013 8.860 C 3.973 8.206,4.150 7.527,4.527 6.889 C 4.730 6.545,5.363 5.932,5.720 5.732 C 6.274 5.423,6.387 5.399,10.690 4.702 C 12.917 4.341,14.794 4.037,14.860 4.026 C 15.128 3.982,15.902 4.036,16.193 4.119 M15.080 5.428 C 15.025 5.437,13.198 5.733,11.020 6.084 C 8.842 6.436,6.979 6.743,6.880 6.767 C 6.026 6.973,5.336 7.920,5.414 8.780 C 5.469 9.388,6.126 13.258,6.205 13.443 C 6.299 13.660,6.579 13.943,6.741 13.984 C 7.059 14.064,7.224 14.009,12.238 12.165 C 15.341 11.024,17.195 10.323,17.298 10.250 C 17.534 10.084,17.656 9.842,17.652 9.542 C 17.650 9.302,17.324 7.226,17.235 6.880 C 17.050 6.161,16.362 5.549,15.619 5.442 C 15.333 5.401,15.254 5.398,15.080 5.428 M15.497 8.830 C 15.477 8.838,13.759 9.470,11.680 10.235 C 8.637 11.354,7.897 11.613,7.885 11.563 C 7.876 11.528,7.767 10.870,7.642 10.100 C 7.445 8.885,7.423 8.698,7.478 8.688 C 7.512 8.681,9.286 8.392,11.420 8.045 L 15.300 7.415 15.417 8.115 C 15.484 8.514,15.518 8.822,15.497 8.830 " stroke="none" fill="black" fill-rule="evenodd"></path></svg>