<svg xmlns="http://www.w3.org/2000/svg" width="24" height="24" viewBox="0 0 24 24" fill="none" stroke="currentColor" stroke-width="2" stroke-linecap="round" stroke-linejoin="round" class="icon icon-tabler icons-tabler-outline icon-tabler-currency-krone-swedish"><path d="M4.614 5.057 C 4.377 5.131,4.212 5.261,4.109 5.453 L 4.020 5.620 4.010 11.914 C 4.003 16.059,4.013 18.259,4.039 18.358 C 4.144 18.747,4.434 18.961,4.896 18.991 C 5.381 19.022,5.699 18.882,5.880 18.558 L 5.980 18.380 5.991 15.750 C 6.001 13.484,6.011 13.120,6.061 13.120 C 6.093 13.120,6.313 13.185,6.549 13.263 C 7.689 13.643,8.669 14.450,9.301 15.527 C 9.501 15.869,9.708 16.360,9.816 16.752 C 9.928 17.159,9.949 17.300,9.996 17.927 C 10.035 18.457,10.120 18.670,10.355 18.828 C 10.703 19.062,11.297 19.062,11.645 18.828 C 11.976 18.605,12.064 18.124,11.942 17.200 C 11.776 15.934,11.327 14.843,10.545 13.800 C 10.093 13.198,9.345 12.491,8.810 12.162 C 8.695 12.091,8.600 12.021,8.600 12.007 C 8.600 11.992,8.679 11.930,8.776 11.869 C 9.087 11.672,9.569 11.274,9.919 10.922 C 10.660 10.180,11.254 9.230,11.616 8.210 C 11.973 7.202,12.103 5.877,11.886 5.453 C 11.695 5.078,11.139 4.902,10.629 5.055 C 10.180 5.190,10.045 5.408,9.996 6.078 C 9.950 6.700,9.928 6.841,9.816 7.248 C 9.424 8.669,8.356 9.948,7.064 10.541 C 6.777 10.673,6.163 10.880,6.059 10.880 C 6.011 10.880,6.001 10.485,5.991 8.250 L 5.980 5.620 5.891 5.453 C 5.842 5.362,5.746 5.247,5.678 5.199 C 5.414 5.010,4.957 4.950,4.614 5.057 M14.614 9.057 C 14.377 9.131,14.212 9.261,14.109 9.453 L 14.020 9.620 14.009 13.913 C 14.002 16.727,14.013 18.258,14.039 18.357 C 14.144 18.747,14.434 18.961,14.896 18.991 C 15.381 19.022,15.699 18.882,15.880 18.558 L 15.980 18.380 16.002 15.920 L 16.023 13.460 16.123 13.139 C 16.421 12.179,17.200 11.402,18.134 11.131 C 18.314 11.079,18.651 11.025,18.916 11.005 C 19.537 10.959,19.720 10.869,19.904 10.520 C 20.018 10.304,20.009 9.679,19.889 9.451 C 19.690 9.075,19.332 8.961,18.567 9.034 C 17.668 9.119,16.920 9.379,16.235 9.844 L 16.010 9.996 15.983 9.792 C 15.948 9.531,15.835 9.310,15.678 9.199 C 15.414 9.010,14.957 8.950,14.614 9.057 " stroke="none" fill="black" fill-rule="evenodd"></path></svg>