<svg xmlns="http://www.w3.org/2000/svg" width="24" height="24" viewBox="0 0 24 24" fill="none" stroke="currentColor" stroke-width="2" stroke-linecap="round" stroke-linejoin="round" class="icon icon-tabler icons-tabler-outline icon-tabler-ruler"><path d="M4.477 3.073 C 3.806 3.249,3.238 3.823,3.060 4.508 C 3.008 4.707,3.000 5.691,3.000 12.000 C 3.000 19.922,2.987 19.460,3.225 19.930 C 3.361 20.199,3.801 20.639,4.070 20.775 C 4.516 21.001,4.499 21.000,7.500 21.000 C 10.501 21.000,10.484 21.001,10.930 20.775 C 11.196 20.640,11.638 20.200,11.771 19.937 C 12.005 19.476,12.000 19.574,12.000 15.624 L 12.000 12.000 15.632 12.000 C 19.581 12.000,19.475 12.006,19.930 11.775 C 20.196 11.640,20.638 11.200,20.771 10.937 C 21.000 10.485,21.000 10.489,20.999 7.514 C 20.999 4.558,20.995 4.505,20.781 4.083 C 20.646 3.816,20.297 3.449,20.017 3.281 C 19.525 2.985,20.100 3.005,12.000 3.005 C 5.266 3.005,4.721 3.010,4.477 3.073 M7.000 5.610 C 7.000 5.946,7.019 6.285,7.041 6.365 C 7.148 6.750,7.437 6.962,7.896 6.991 C 8.381 7.022,8.699 6.882,8.880 6.558 C 8.974 6.391,8.981 6.338,8.994 5.690 L 9.008 5.000 10.004 5.000 L 11.000 5.000 11.000 6.110 C 11.000 6.730,11.018 7.284,11.041 7.365 C 11.148 7.750,11.437 7.962,11.896 7.991 C 12.381 8.022,12.699 7.882,12.880 7.558 C 12.979 7.381,12.980 7.374,12.993 6.190 L 13.005 5.000 14.003 5.000 L 15.000 5.000 15.000 5.610 C 15.000 5.946,15.019 6.285,15.041 6.365 C 15.148 6.750,15.437 6.962,15.896 6.991 C 16.381 7.022,16.699 6.882,16.880 6.558 C 16.974 6.391,16.981 6.338,16.994 5.690 L 17.008 5.000 18.004 5.000 L 19.000 5.000 19.000 7.500 L 19.000 10.000 15.370 10.002 C 11.323 10.005,11.455 9.996,10.983 10.281 C 10.703 10.449,10.354 10.816,10.219 11.083 C 9.995 11.523,10.000 11.434,10.000 15.368 L 10.000 19.000 7.500 19.000 L 5.000 19.000 5.000 18.000 L 5.000 17.000 5.610 17.000 C 5.946 17.000,6.285 16.981,6.365 16.959 C 6.586 16.898,6.770 16.755,6.880 16.558 C 6.967 16.402,6.980 16.332,6.979 16.000 C 6.978 15.687,6.962 15.591,6.890 15.453 C 6.702 15.097,6.424 15.000,5.594 15.000 L 5.000 15.000 5.000 14.000 L 5.000 13.000 6.110 13.000 C 6.730 13.000,7.284 12.982,7.365 12.959 C 7.586 12.898,7.770 12.755,7.880 12.558 C 7.967 12.402,7.980 12.332,7.979 12.000 C 7.978 11.567,7.898 11.355,7.678 11.199 C 7.430 11.022,7.256 11.000,6.094 11.000 L 5.000 11.000 5.000 10.000 L 5.000 9.000 5.610 9.000 C 5.946 9.000,6.285 8.981,6.365 8.959 C 6.586 8.898,6.770 8.755,6.880 8.558 C 6.967 8.402,6.980 8.332,6.979 8.000 C 6.978 7.687,6.962 7.591,6.890 7.453 C 6.702 7.097,6.424 7.000,5.594 7.000 L 5.000 7.000 5.000 6.000 L 5.000 5.000 6.000 5.000 L 7.000 5.000 7.000 5.610 " stroke="none" fill="black" fill-rule="evenodd"></path></svg>