<svg xmlns="http://www.w3.org/2000/svg" width="24" height="24" viewBox="0 0 24 24" fill="none" stroke="currentColor" stroke-width="2" stroke-linecap="round" stroke-linejoin="round" class="icon icon-tabler icons-tabler-outline icon-tabler-separator-horizontal"><path d="M11.620 3.046 C 11.385 3.167,7.154 7.408,7.039 7.637 C 6.863 7.990,6.952 8.355,7.299 8.701 C 7.646 9.048,8.011 9.137,8.363 8.960 C 8.483 8.900,9.092 8.321,10.270 7.147 L 12.000 5.422 13.730 7.147 C 14.908 8.321,15.517 8.900,15.637 8.960 C 15.989 9.137,16.354 9.048,16.701 8.701 C 17.048 8.355,17.137 7.990,16.961 7.637 C 16.840 7.396,12.612 3.164,12.372 3.044 C 12.151 2.934,11.836 2.935,11.620 3.046 M3.614 11.057 C 3.377 11.131,3.212 11.261,3.109 11.453 C 3.035 11.592,3.020 11.684,3.020 12.000 C 3.020 12.331,3.033 12.403,3.120 12.558 C 3.230 12.755,3.414 12.898,3.635 12.959 C 3.835 13.015,20.165 13.015,20.365 12.959 C 20.586 12.898,20.770 12.755,20.880 12.558 C 20.967 12.402,20.980 12.332,20.979 12.000 C 20.978 11.567,20.898 11.355,20.678 11.199 C 20.386 10.990,20.799 11.000,11.984 11.003 C 5.367 11.005,3.748 11.015,3.614 11.057 M7.626 15.045 C 7.420 15.154,7.146 15.433,7.038 15.644 C 6.924 15.867,6.924 16.132,7.039 16.363 C 7.164 16.612,11.388 20.836,11.637 20.961 C 11.868 21.076,12.132 21.076,12.363 20.961 C 12.612 20.836,16.836 16.612,16.961 16.363 C 17.137 16.010,17.048 15.645,16.701 15.299 C 16.361 14.959,15.980 14.868,15.628 15.044 C 15.519 15.099,14.853 15.734,13.730 16.853 L 12.000 18.578 10.270 16.853 C 9.147 15.734,8.481 15.099,8.372 15.044 C 8.152 14.934,7.835 14.935,7.626 15.045 " stroke="none" fill="black" fill-rule="evenodd"></path></svg>