<svg xmlns="http://www.w3.org/2000/svg" width="24" height="24" viewBox="0 0 24 24" fill="none" stroke="currentColor" stroke-width="2" stroke-linecap="round" stroke-linejoin="round" class="icon icon-tabler icons-tabler-outline icon-tabler-asterisk-simple"><path d="M11.614 2.057 C 11.377 2.131,11.212 2.261,11.109 2.453 L 11.020 2.620 11.009 6.652 C 10.999 10.455,10.995 10.684,10.929 10.664 C 10.005 10.387,3.121 8.506,2.976 8.491 C 2.480 8.440,2.148 8.736,2.021 9.344 C 1.927 9.792,2.037 10.096,2.368 10.305 C 2.479 10.375,3.702 10.732,6.414 11.484 C 8.551 12.078,10.314 12.567,10.332 12.572 C 10.349 12.577,9.182 14.255,7.737 16.301 C 6.292 18.346,5.077 20.092,5.036 20.180 C 4.947 20.372,4.939 20.672,5.017 20.858 C 5.140 21.154,5.617 21.496,5.974 21.545 C 6.194 21.575,6.449 21.469,6.647 21.265 C 6.725 21.185,7.957 19.464,9.384 17.440 C 10.812 15.417,11.989 13.761,12.000 13.761 C 12.011 13.761,13.188 15.417,14.616 17.440 C 16.043 19.464,17.275 21.185,17.353 21.265 C 17.551 21.469,17.806 21.575,18.026 21.545 C 18.383 21.496,18.860 21.154,18.983 20.858 C 19.062 20.670,19.054 20.399,18.965 20.193 C 18.923 20.098,17.707 18.346,16.263 16.301 C 14.818 14.255,13.651 12.577,13.668 12.572 C 13.686 12.567,15.449 12.078,17.586 11.484 C 20.298 10.732,21.521 10.375,21.632 10.305 C 21.963 10.096,22.073 9.792,21.979 9.344 C 21.852 8.736,21.520 8.440,21.024 8.491 C 20.879 8.506,13.997 10.386,13.071 10.664 C 13.006 10.684,13.001 10.451,12.991 6.652 L 12.980 2.620 12.891 2.453 C 12.842 2.362,12.746 2.247,12.678 2.199 C 12.414 2.010,11.957 1.950,11.614 2.057 " stroke="none" fill="black" fill-rule="evenodd"></path></svg>