<svg xmlns="http://www.w3.org/2000/svg" width="24" height="24" viewBox="0 0 24 24" fill="none" stroke="currentColor" stroke-width="2" stroke-linecap="round" stroke-linejoin="round" class="icon icon-tabler icons-tabler-outline icon-tabler-currency-naira"><path d="M7.527 5.081 C 6.802 5.271,6.196 5.905,6.044 6.632 C 6.018 6.756,6.000 7.289,6.000 7.922 L 6.000 9.000 5.406 9.000 C 4.577 9.000,4.300 9.097,4.109 9.453 C 4.035 9.592,4.020 9.684,4.020 10.000 C 4.020 10.331,4.033 10.403,4.120 10.558 C 4.230 10.755,4.414 10.898,4.635 10.959 C 4.715 10.981,5.054 11.000,5.390 11.000 L 6.000 11.000 6.000 12.000 L 6.000 13.000 5.406 13.000 C 4.577 13.000,4.300 13.097,4.109 13.453 C 4.035 13.592,4.020 13.684,4.020 14.000 C 4.020 14.331,4.033 14.403,4.120 14.558 C 4.230 14.755,4.414 14.898,4.635 14.959 C 4.715 14.981,5.054 15.000,5.390 15.000 L 6.000 15.000 6.000 16.610 C 6.000 17.565,6.017 18.279,6.041 18.365 C 6.148 18.750,6.437 18.962,6.896 18.991 C 7.381 19.022,7.699 18.882,7.880 18.558 L 7.980 18.380 7.992 16.690 L 8.004 14.999 10.268 15.010 L 12.532 15.020 13.397 16.580 C 14.149 17.937,14.293 18.171,14.502 18.380 C 15.148 19.027,16.043 19.174,16.880 18.772 C 17.194 18.621,17.635 18.169,17.789 17.840 C 17.978 17.439,18.000 17.253,18.000 16.078 L 18.000 15.000 18.610 15.000 C 18.945 15.000,19.285 14.981,19.365 14.959 C 19.586 14.898,19.770 14.755,19.880 14.558 C 19.967 14.402,19.980 14.332,19.979 14.000 C 19.978 13.687,19.962 13.591,19.890 13.453 C 19.702 13.097,19.424 13.000,18.594 13.000 L 18.000 13.000 18.000 12.000 L 18.000 11.000 18.610 11.000 C 18.945 11.000,19.285 10.981,19.365 10.959 C 19.586 10.898,19.770 10.755,19.880 10.558 C 19.967 10.402,19.980 10.332,19.979 10.000 C 19.978 9.687,19.962 9.591,19.890 9.453 C 19.702 9.098,19.423 9.000,18.596 9.000 L 18.004 9.000 17.992 7.310 C 17.980 5.641,17.979 5.618,17.889 5.450 C 17.724 5.140,17.329 4.970,16.874 5.011 C 16.439 5.051,16.141 5.274,16.041 5.635 C 16.017 5.721,16.000 6.435,16.000 7.390 L 16.000 9.001 13.733 8.990 L 11.467 8.980 10.741 7.672 C 9.737 5.866,9.664 5.747,9.430 5.542 C 8.881 5.062,8.215 4.901,7.527 5.081 M8.624 7.982 C 8.918 8.509,9.159 8.954,9.159 8.970 C 9.160 8.986,8.899 9.000,8.580 9.000 L 8.000 9.000 8.000 7.997 C 8.000 7.273,8.013 6.998,8.045 7.008 C 8.070 7.017,8.330 7.455,8.624 7.982 M10.739 11.790 C 10.981 12.225,11.229 12.675,11.292 12.790 L 11.406 13.000 9.703 13.000 L 8.000 13.000 8.000 12.000 L 8.000 11.000 9.150 11.000 L 10.300 11.000 10.739 11.790 M16.000 12.000 L 16.000 13.000 14.850 13.000 L 13.700 13.000 13.261 12.210 C 13.019 11.775,12.771 11.325,12.708 11.210 L 12.594 11.000 14.297 11.000 L 16.000 11.000 16.000 12.000 M16.000 16.003 C 16.000 16.727,15.987 17.002,15.955 16.992 C 15.913 16.978,14.843 15.094,14.841 15.030 C 14.840 15.013,15.101 15.000,15.420 15.000 L 16.000 15.000 16.000 16.003 " stroke="none" fill="black" fill-rule="evenodd"></path></svg>