<svg xmlns="http://www.w3.org/2000/svg" width="24" height="24" viewBox="0 0 24 24" fill="none" stroke="currentColor" stroke-width="2" stroke-linecap="round" stroke-linejoin="round" class="icon icon-tabler icons-tabler-outline icon-tabler-typography-off"><path d="M2.626 2.045 C 2.420 2.154,2.146 2.433,2.038 2.644 C 1.924 2.867,1.924 3.132,2.039 3.363 C 2.102 3.487,2.988 4.401,5.026 6.443 L 7.925 9.346 6.115 14.173 L 4.305 19.000 4.059 19.000 C 3.597 19.000,3.267 19.157,3.109 19.453 C 3.035 19.592,3.020 19.684,3.020 20.000 C 3.020 20.331,3.033 20.403,3.120 20.558 C 3.233 20.760,3.417 20.900,3.653 20.963 C 3.863 21.020,7.146 21.018,7.357 20.961 C 7.584 20.900,7.768 20.758,7.880 20.558 C 7.967 20.402,7.980 20.332,7.979 20.000 C 7.978 19.687,7.962 19.591,7.890 19.453 C 7.723 19.137,7.500 19.036,6.896 19.004 L 6.452 18.980 7.011 17.490 L 7.570 15.999 10.388 16.010 L 13.206 16.020 13.840 17.500 L 14.475 18.980 14.063 19.002 C 13.729 19.019,13.614 19.043,13.456 19.124 C 13.119 19.297,12.978 19.607,13.009 20.104 C 13.039 20.569,13.253 20.856,13.649 20.962 C 13.752 20.990,14.788 21.004,16.689 21.002 L 19.574 21.000 20.019 21.435 C 20.263 21.674,20.543 21.910,20.639 21.960 C 20.988 22.137,21.354 22.048,21.701 21.701 C 22.048 21.354,22.137 20.988,21.960 20.640 C 21.888 20.499,21.183 19.715,20.750 19.293 C 20.700 19.245,16.835 15.389,12.160 10.725 C 7.485 6.060,3.615 2.209,3.560 2.167 C 3.263 1.942,2.910 1.895,2.626 2.045 M10.674 3.047 C 10.502 3.093,10.223 3.320,10.139 3.482 C 10.107 3.545,9.878 4.132,9.630 4.788 C 9.203 5.922,9.181 5.995,9.180 6.283 C 9.180 6.555,9.192 6.602,9.293 6.735 C 9.524 7.038,9.954 7.222,10.361 7.192 C 10.815 7.159,10.958 6.970,11.377 5.849 L 11.694 5.000 12.020 5.000 L 12.345 5.000 14.202 9.246 C 16.174 13.752,16.183 13.770,16.507 13.905 C 16.690 13.982,16.909 13.973,17.183 13.879 C 17.837 13.654,18.076 13.200,17.849 12.611 C 17.804 12.496,16.889 10.390,15.814 7.931 C 13.991 3.760,13.848 3.448,13.679 3.277 C 13.550 3.147,13.444 3.080,13.311 3.047 C 13.082 2.989,10.891 2.989,10.674 3.047 M12.242 13.772 C 12.288 13.880,12.318 13.975,12.309 13.984 C 12.300 13.993,11.400 13.996,10.310 13.990 L 8.328 13.980 8.875 12.520 C 9.177 11.717,9.437 11.025,9.453 10.982 C 9.479 10.916,9.685 11.106,10.821 12.241 C 11.896 13.316,12.174 13.615,12.242 13.772 M16.800 18.220 L 17.579 19.000 17.118 19.000 L 16.658 19.000 16.339 18.254 C 15.968 17.388,15.989 17.440,16.007 17.440 C 16.015 17.440,16.371 17.791,16.800 18.220 " stroke="none" fill="black" fill-rule="evenodd"></path></svg>