<svg xmlns="http://www.w3.org/2000/svg" width="24" height="24" viewBox="0 0 24 24" fill="none" stroke="currentColor" stroke-width="2" stroke-linecap="round" stroke-linejoin="round" class="icon icon-tabler icons-tabler-outline icon-tabler-pointer-bolt"><path d="M3.497 3.075 C 3.223 3.242,3.000 3.661,3.000 4.006 C 3.000 4.217,6.978 18.009,7.128 18.318 C 7.302 18.677,7.698 19.065,8.083 19.255 C 8.769 19.593,9.494 19.579,10.148 19.216 C 10.480 19.031,10.733 18.778,11.039 18.320 C 11.179 18.111,11.535 17.584,11.830 17.148 L 12.368 16.356 12.874 16.849 C 13.432 17.392,13.599 17.499,13.900 17.499 C 14.153 17.499,14.357 17.399,14.598 17.158 C 14.944 16.812,15.036 16.471,14.877 16.121 C 14.754 15.849,12.910 14.009,12.607 13.855 C 12.344 13.722,12.021 13.705,11.812 13.813 C 11.609 13.919,11.426 14.164,10.281 15.859 C 9.688 16.738,9.166 17.471,9.123 17.487 C 9.071 17.506,9.017 17.492,8.966 17.448 C 8.908 17.398,8.439 15.819,7.182 11.445 C 6.244 8.181,5.484 5.503,5.494 5.493 C 5.509 5.478,16.768 8.696,17.288 8.864 C 17.481 8.927,17.548 9.016,17.501 9.150 C 17.488 9.189,16.745 9.706,15.850 10.300 C 14.955 10.894,14.145 11.457,14.049 11.552 C 13.729 11.867,13.645 12.211,13.803 12.560 C 13.891 12.753,15.238 14.148,15.542 14.360 C 15.957 14.649,16.333 14.594,16.743 14.184 C 16.936 13.991,17.007 13.888,17.055 13.725 C 17.163 13.362,17.065 13.112,16.635 12.661 L 16.354 12.365 17.548 11.568 C 18.866 10.689,19.050 10.527,19.288 10.035 C 19.597 9.398,19.601 8.791,19.302 8.138 C 19.085 7.665,18.561 7.181,18.091 7.019 C 18.008 6.991,14.835 6.075,11.040 4.984 C 3.576 2.838,3.795 2.893,3.497 3.075 M18.620 15.026 C 18.554 15.061,18.448 15.137,18.385 15.195 C 18.251 15.318,16.144 18.459,16.035 18.698 C 15.944 18.898,15.939 19.204,16.024 19.382 C 16.059 19.456,16.168 19.591,16.266 19.681 C 16.585 19.975,16.597 19.978,17.930 20.000 L 19.120 20.020 18.615 20.777 C 18.033 21.649,17.962 21.788,17.961 22.054 C 17.960 22.304,18.044 22.477,18.266 22.681 C 18.749 23.127,19.289 23.155,19.665 22.754 C 19.872 22.534,21.885 19.481,21.950 19.289 C 22.073 18.929,21.941 18.385,21.686 18.204 C 21.441 18.030,21.382 18.022,20.110 18.001 L 18.880 17.980 19.385 17.223 C 19.967 16.351,20.038 16.212,20.039 15.946 C 20.040 15.696,19.956 15.523,19.734 15.319 C 19.383 14.996,18.913 14.872,18.620 15.026 " stroke="none" fill="black" fill-rule="evenodd"></path></svg>