<svg xmlns="http://www.w3.org/2000/svg" width="24" height="24" viewBox="0 0 24 24" fill="none" stroke="currentColor" stroke-width="2" stroke-linecap="round" stroke-linejoin="round" class="icon icon-tabler icons-tabler-outline icon-tabler-currency-guarani"><path d="M11.614 3.057 C 11.377 3.131,11.212 3.261,11.109 3.453 C 11.028 3.605,11.019 3.687,11.007 4.349 L 10.994 5.078 10.847 5.100 C 10.324 5.181,9.364 5.494,8.875 5.741 C 7.338 6.521,6.103 7.874,5.496 9.444 C 5.166 10.300,5.024 11.069,5.024 12.000 C 5.024 12.931,5.166 13.700,5.496 14.555 C 6.114 16.156,7.336 17.487,8.910 18.274 C 9.445 18.542,10.273 18.812,10.830 18.900 L 11.000 18.927 11.000 19.574 C 11.000 19.929,11.019 20.285,11.041 20.365 C 11.148 20.750,11.437 20.962,11.896 20.991 C 12.381 21.022,12.699 20.882,12.880 20.558 C 12.975 20.390,12.981 20.341,12.994 19.656 L 13.007 18.931 13.350 18.864 C 14.543 18.629,15.801 17.996,16.649 17.202 C 17.566 16.343,17.940 15.141,17.988 12.898 C 18.014 11.696,17.985 11.508,17.739 11.262 C 17.482 11.005,17.433 11.000,15.093 11.000 L 13.000 11.000 13.000 9.060 C 13.000 7.297,13.006 7.120,13.065 7.120 C 13.185 7.120,13.950 7.394,14.246 7.543 C 14.600 7.721,14.889 7.914,15.261 8.221 C 15.729 8.606,16.005 8.682,16.346 8.517 C 16.589 8.399,16.937 8.009,17.019 7.762 C 17.137 7.409,17.025 7.142,16.593 6.742 C 15.794 6.002,14.511 5.367,13.354 5.139 L 13.007 5.071 12.993 4.345 C 12.979 3.691,12.969 3.604,12.890 3.453 C 12.841 3.362,12.746 3.247,12.678 3.199 C 12.414 3.010,11.957 2.950,11.614 3.057 M11.000 12.004 L 11.000 16.889 10.850 16.861 C 10.577 16.811,10.106 16.633,9.707 16.430 C 8.330 15.727,7.338 14.361,7.075 12.806 C 7.018 12.463,7.018 11.537,7.075 11.194 C 7.380 9.390,8.663 7.870,10.380 7.279 C 10.730 7.158,10.824 7.132,10.930 7.125 C 10.996 7.120,11.000 7.377,11.000 12.004 M15.982 13.370 C 15.892 14.620,15.681 15.364,15.314 15.721 C 15.065 15.964,14.633 16.260,14.240 16.459 C 13.921 16.620,13.191 16.880,13.060 16.880 C 13.008 16.880,13.000 16.631,13.000 14.940 L 13.000 13.000 14.504 13.000 L 16.008 13.000 15.982 13.370 " stroke="none" fill="black" fill-rule="evenodd"></path></svg>