<svg xmlns="http://www.w3.org/2000/svg" width="24" height="24" viewBox="0 0 24 24" fill="none" stroke="currentColor" stroke-width="2" stroke-linecap="round" stroke-linejoin="round" class="icon icon-tabler icons-tabler-outline icon-tabler-arrow-sharp-turn-right"><path d="M7.186 5.079 C 6.706 5.232,6.303 5.609,6.107 6.087 L 6.020 6.300 6.009 12.253 C 6.002 16.185,6.012 18.258,6.039 18.357 C 6.144 18.747,6.434 18.961,6.896 18.991 C 7.381 19.022,7.699 18.882,7.880 18.558 L 7.980 18.380 8.000 12.910 L 8.020 7.440 11.800 11.220 L 15.580 15.000 14.196 15.000 C 12.724 15.000,12.579 15.015,12.322 15.199 C 12.139 15.329,12.030 15.573,12.009 15.900 C 11.978 16.381,12.119 16.699,12.442 16.880 L 12.620 16.980 15.280 17.007 C 16.743 17.022,17.999 17.035,18.071 17.037 C 18.224 17.040,18.669 16.847,18.768 16.735 C 18.878 16.610,19.041 16.208,19.037 16.069 C 19.036 15.998,19.022 14.743,19.007 13.280 L 18.980 10.620 18.889 10.450 C 18.724 10.140,18.329 9.970,17.874 10.011 C 17.439 10.051,17.141 10.274,17.041 10.635 C 17.017 10.719,17.000 11.365,17.000 12.180 L 17.000 13.579 12.870 9.454 C 10.269 6.857,8.673 5.292,8.560 5.228 C 8.148 4.996,7.624 4.939,7.186 5.079 " stroke="none" fill="black" fill-rule="evenodd"></path></svg>