<svg xmlns="http://www.w3.org/2000/svg" width="24" height="24" viewBox="0 0 24 24" fill="none" stroke="currentColor" stroke-width="2" stroke-linecap="round" stroke-linejoin="round" class="icon icon-tabler icons-tabler-outline icon-tabler-battery"><path d="M5.499 6.043 C 4.379 6.233,3.461 7.048,3.114 8.160 L 3.020 8.460 3.020 12.000 L 3.020 15.540 3.114 15.840 C 3.422 16.827,4.173 17.578,5.160 17.886 L 5.460 17.980 11.500 17.980 L 17.540 17.980 17.840 17.886 C 19.044 17.510,19.893 16.469,19.986 15.253 L 20.012 14.915 20.196 14.821 C 20.451 14.690,20.735 14.386,20.868 14.100 L 20.980 13.860 20.980 12.000 L 20.980 10.140 20.868 9.900 C 20.735 9.614,20.451 9.310,20.196 9.179 L 20.012 9.085 19.986 8.747 C 19.893 7.540,19.049 6.497,17.861 6.121 L 17.540 6.020 11.620 6.014 C 8.364 6.011,5.609 6.024,5.499 6.043 M17.308 8.060 C 17.543 8.130,17.814 8.369,17.910 8.593 C 17.952 8.691,17.982 8.928,17.999 9.300 C 18.021 9.795,18.037 9.888,18.134 10.100 C 18.265 10.387,18.549 10.690,18.810 10.824 L 19.000 10.921 19.000 12.000 L 19.000 13.079 18.810 13.176 C 18.549 13.310,18.265 13.613,18.134 13.900 C 18.037 14.112,18.021 14.206,17.998 14.700 C 17.983 15.008,17.951 15.311,17.926 15.373 C 17.848 15.565,17.676 15.759,17.484 15.872 L 17.300 15.980 11.500 15.980 L 5.700 15.980 5.516 15.872 C 5.303 15.747,5.141 15.550,5.058 15.316 C 4.969 15.063,4.971 8.991,5.061 8.690 C 5.140 8.421,5.412 8.143,5.673 8.063 C 5.961 7.974,17.010 7.972,17.308 8.060 " stroke="none" fill="black" fill-rule="evenodd"></path></svg>