<svg xmlns="http://www.w3.org/2000/svg" width="24" height="24" viewBox="0 0 24 24" fill="none" stroke="currentColor" stroke-width="2" stroke-linecap="round" stroke-linejoin="round" class="icon icon-tabler icons-tabler-outline icon-tabler-brand-amd"><path d="M2.673 2.063 C 2.453 2.131,2.166 2.392,2.039 2.643 C 1.924 2.868,1.924 3.132,2.040 3.363 C 2.101 3.486,2.811 4.224,4.353 5.770 L 6.578 8.000 4.454 10.130 C 2.513 12.077,2.320 12.282,2.209 12.520 C 2.143 12.663,2.069 12.875,2.044 12.992 C 2.014 13.137,2.000 14.311,2.000 16.734 C 2.000 20.571,1.995 20.476,2.225 20.930 C 2.361 21.199,2.801 21.639,3.070 21.775 C 3.524 22.005,3.429 22.000,7.266 22.000 C 9.689 22.000,10.863 21.986,11.008 21.956 C 11.125 21.931,11.337 21.857,11.480 21.791 C 11.718 21.680,11.923 21.487,13.870 19.546 L 16.001 17.422 18.210 19.627 C 19.426 20.839,20.482 21.863,20.558 21.901 C 20.634 21.939,20.805 21.979,20.938 21.990 C 21.374 22.024,21.703 21.874,21.880 21.558 L 21.980 21.380 21.991 12.580 C 21.998 6.354,21.988 3.718,21.958 3.569 C 21.850 3.048,21.405 2.466,20.930 2.225 C 20.463 1.988,21.004 2.001,11.540 2.003 C 4.116 2.005,2.833 2.014,2.673 2.063 M20.000 11.290 L 20.000 18.580 18.500 17.080 L 17.000 15.580 17.000 12.159 C 17.000 8.397,17.007 8.509,16.754 8.035 C 16.604 7.754,16.211 7.368,15.930 7.225 C 15.485 7.000,15.514 7.001,11.820 7.001 L 8.420 7.000 6.920 5.500 L 5.420 4.000 12.710 4.000 L 20.000 4.000 20.000 11.290 M15.000 12.000 L 15.000 15.000 12.000 15.000 L 9.000 15.000 9.000 12.000 L 9.000 9.000 12.000 9.000 L 15.000 9.000 15.000 12.000 M7.111 15.684 C 7.365 16.312,7.883 16.778,8.508 16.940 C 8.699 16.990,9.141 17.000,11.158 17.000 L 13.580 17.000 12.080 18.500 L 10.580 20.000 7.290 20.000 L 4.000 20.000 4.000 16.710 L 4.000 13.420 5.490 11.930 L 6.980 10.440 7.000 12.950 C 7.020 15.444,7.021 15.461,7.111 15.684 " stroke="none" fill="black" fill-rule="evenodd"></path></svg>