<svg xmlns="http://www.w3.org/2000/svg" width="24" height="24" viewBox="0 0 24 24" fill="none" stroke="currentColor" stroke-width="2" stroke-linecap="round" stroke-linejoin="round" class="icon icon-tabler icons-tabler-outline icon-tabler-hammer-off"><path d="M2.626 2.045 C 2.420 2.154,2.146 2.433,2.038 2.644 C 1.924 2.867,1.924 3.132,2.039 3.363 C 2.102 3.488,3.169 4.583,5.713 7.130 L 9.298 10.719 6.193 13.830 C 2.822 17.207,2.799 17.233,2.584 17.882 C 2.198 19.050,2.479 20.250,3.336 21.095 C 3.969 21.718,4.614 21.980,5.520 21.980 C 6.223 21.980,6.706 21.840,7.240 21.483 C 7.413 21.367,8.535 20.276,10.600 18.215 L 13.700 15.121 17.080 18.497 C 19.473 20.886,20.512 21.898,20.637 21.961 C 20.990 22.137,21.355 22.048,21.701 21.701 C 22.047 21.355,22.136 20.990,21.961 20.637 C 21.839 20.392,3.616 2.165,3.372 2.044 C 3.152 1.934,2.834 1.935,2.626 2.045 M12.060 2.445 C 11.544 2.519,11.416 2.616,10.067 3.956 C 9.366 4.652,8.797 5.249,8.749 5.340 C 8.638 5.552,8.638 5.848,8.750 6.064 C 8.939 6.427,9.399 6.761,9.710 6.759 C 10.029 6.757,10.170 6.647,11.320 5.498 L 12.420 4.400 16.220 8.200 L 20.020 12.000 18.914 13.110 C 18.305 13.720,17.776 14.283,17.736 14.360 C 17.638 14.553,17.644 14.859,17.750 15.064 C 17.939 15.427,18.399 15.760,18.710 15.760 C 19.040 15.759,19.195 15.635,20.465 14.355 C 21.737 13.074,21.814 12.975,21.940 12.492 C 22.074 11.980,21.964 11.309,21.682 10.905 C 21.618 10.814,19.760 8.938,17.553 6.735 C 13.862 3.051,13.519 2.720,13.280 2.605 C 13.132 2.535,12.899 2.464,12.740 2.441 C 12.423 2.396,12.392 2.396,12.060 2.445 M9.210 16.764 C 7.126 18.844,6.089 19.852,5.980 19.903 C 5.733 20.019,5.276 20.008,5.026 19.881 C 4.653 19.691,4.430 19.323,4.430 18.900 C 4.430 18.426,4.316 18.558,7.649 15.200 L 10.700 12.128 11.490 12.914 L 12.281 13.700 9.210 16.764 " stroke="none" fill="black" fill-rule="evenodd"></path></svg>