<svg xmlns="http://www.w3.org/2000/svg" width="24" height="24" viewBox="0 0 24 24" fill="none" stroke="currentColor" stroke-width="2" stroke-linecap="round" stroke-linejoin="round" class="icon icon-tabler icons-tabler-outline icon-tabler-circle-letter-x"><path d="M11.080 2.045 C 9.507 2.184,7.883 2.751,6.540 3.630 C 5.905 4.045,5.499 4.378,4.919 4.958 C 2.953 6.926,1.919 9.544,2.013 12.320 C 2.084 14.439,2.752 16.328,4.033 18.040 C 4.430 18.570,5.305 19.464,5.800 19.847 C 7.242 20.961,8.787 21.624,10.600 21.907 C 11.247 22.008,12.753 22.008,13.400 21.907 C 15.638 21.557,17.504 20.620,19.062 19.062 C 20.620 17.504,21.557 15.638,21.907 13.400 C 22.008 12.753,22.008 11.247,21.907 10.600 C 21.624 8.786,20.959 7.238,19.847 5.800 C 19.510 5.365,18.639 4.494,18.200 4.154 C 16.133 2.555,13.646 1.818,11.080 2.045 M12.734 4.041 C 14.574 4.216,16.228 4.976,17.554 6.256 C 20.043 8.658,20.702 12.394,19.183 15.499 C 18.749 16.387,18.223 17.105,17.496 17.801 C 16.876 18.394,16.262 18.819,15.471 19.200 C 13.267 20.265,10.733 20.265,8.529 19.200 C 7.477 18.693,6.612 18.015,5.847 17.100 C 3.848 14.711,3.440 11.302,4.816 8.500 C 6.162 5.760,8.867 4.049,11.920 4.005 C 12.129 4.003,12.495 4.019,12.734 4.041 M9.759 7.021 C 9.484 7.106,9.161 7.351,9.049 7.560 C 8.969 7.711,8.956 7.779,8.973 7.980 C 8.991 8.195,9.092 8.418,9.936 10.110 L 10.879 12.000 9.937 13.890 C 8.880 16.009,8.864 16.056,9.040 16.420 C 9.145 16.637,9.398 16.840,9.712 16.959 C 10.110 17.111,10.475 17.029,10.708 16.735 C 10.775 16.650,11.089 16.063,11.405 15.430 C 11.721 14.797,11.989 14.280,12.000 14.280 C 12.011 14.280,12.284 14.807,12.606 15.452 C 12.928 16.097,13.243 16.684,13.304 16.758 C 13.445 16.924,13.688 17.038,13.908 17.039 C 14.290 17.041,14.807 16.737,14.960 16.420 C 15.136 16.056,15.120 16.009,14.063 13.890 L 13.121 12.000 14.070 10.098 L 15.020 8.197 15.020 7.922 C 15.020 7.681,15.005 7.627,14.900 7.479 C 14.670 7.156,14.105 6.909,13.751 6.975 C 13.669 6.991,13.525 7.061,13.431 7.132 C 13.278 7.247,13.195 7.390,12.640 8.490 C 12.299 9.166,12.011 9.720,12.000 9.720 C 11.989 9.720,11.716 9.193,11.394 8.548 C 11.072 7.903,10.761 7.320,10.703 7.251 C 10.482 6.989,10.137 6.905,9.759 7.021 " stroke="none" fill="black" fill-rule="evenodd"></path></svg>