<svg xmlns="http://www.w3.org/2000/svg" width="24" height="24" viewBox="0 0 24 24" fill="none" stroke="currentColor" stroke-width="2" stroke-linecap="round" stroke-linejoin="round" class="icon icon-tabler icons-tabler-outline icon-tabler-letter-u-small"><path d="M9.614 7.057 C 9.377 7.131,9.212 7.261,9.109 7.453 L 9.020 7.620 9.020 11.080 L 9.020 14.540 9.114 14.840 C 9.422 15.827,10.174 16.579,11.160 16.886 C 11.594 17.021,12.406 17.021,12.840 16.886 C 13.826 16.579,14.578 15.827,14.886 14.840 L 14.980 14.540 14.980 11.080 L 14.980 7.620 14.889 7.450 C 14.724 7.140,14.329 6.970,13.874 7.011 C 13.439 7.051,13.141 7.274,13.041 7.635 C 13.015 7.727,13.000 8.948,13.000 10.944 C 13.000 14.376,13.003 14.324,12.779 14.618 C 12.718 14.698,12.585 14.813,12.484 14.872 C 12.328 14.963,12.254 14.980,12.000 14.980 C 11.746 14.980,11.672 14.963,11.516 14.872 C 11.328 14.761,11.158 14.572,11.070 14.373 C 11.032 14.287,11.015 13.475,11.000 10.940 L 10.980 7.620 10.891 7.453 C 10.842 7.362,10.746 7.247,10.678 7.199 C 10.414 7.010,9.957 6.950,9.614 7.057 " stroke="none" fill="black" fill-rule="evenodd"></path></svg>