<svg xmlns="http://www.w3.org/2000/svg" width="24" height="24" viewBox="0 0 24 24" fill="none" stroke="currentColor" stroke-width="2" stroke-linecap="round" stroke-linejoin="round" class="icon icon-tabler icons-tabler-outline icon-tabler-access-point"><path d="M6.100 5.327 C 5.807 5.437,5.529 5.693,4.997 6.343 C 3.955 7.619,3.223 9.380,3.042 11.048 C 2.988 11.546,2.988 12.454,3.042 12.952 C 3.231 14.692,3.967 16.413,5.115 17.797 C 5.834 18.665,6.200 18.855,6.697 18.619 C 6.894 18.525,7.205 18.214,7.299 18.017 C 7.495 17.603,7.412 17.366,6.845 16.728 C 5.871 15.631,5.304 14.444,5.074 13.020 C 5.008 12.607,5.008 11.393,5.074 10.980 C 5.304 9.559,5.869 8.371,6.833 7.286 C 7.412 6.634,7.496 6.399,7.299 5.984 C 7.211 5.798,6.886 5.471,6.702 5.384 C 6.521 5.298,6.247 5.272,6.100 5.327 M17.420 5.327 C 16.982 5.491,16.599 5.969,16.601 6.349 C 16.602 6.585,16.723 6.798,17.088 7.204 C 17.692 7.878,17.997 8.327,18.319 9.020 C 18.795 10.042,18.975 10.862,18.975 12.000 C 18.975 13.138,18.795 13.958,18.319 14.980 C 17.997 15.673,17.695 16.118,17.088 16.794 C 16.721 17.204,16.602 17.415,16.602 17.660 C 16.602 18.144,17.247 18.761,17.700 18.710 C 17.965 18.680,18.162 18.561,18.474 18.241 C 19.122 17.578,19.656 16.813,20.082 15.940 C 21.124 13.805,21.283 11.423,20.534 9.160 C 20.215 8.194,19.642 7.142,19.011 6.360 C 18.663 5.929,18.197 5.467,18.030 5.388 C 17.842 5.298,17.570 5.271,17.420 5.327 M8.820 8.204 C 8.500 8.373,8.016 8.919,7.670 9.500 C 7.463 9.848,7.255 10.376,7.130 10.869 C 7.032 11.256,7.021 11.371,7.021 12.000 C 7.021 12.629,7.032 12.744,7.130 13.131 C 7.313 13.857,7.571 14.409,8.003 15.001 C 8.252 15.341,8.666 15.736,8.858 15.816 C 9.196 15.958,9.534 15.862,9.866 15.530 C 10.116 15.280,10.215 15.078,10.215 14.820 C 10.215 14.569,10.157 14.459,9.800 14.038 C 9.461 13.637,9.267 13.305,9.127 12.887 C 9.037 12.614,9.025 12.515,9.025 12.000 C 9.025 11.485,9.037 11.386,9.127 11.113 C 9.267 10.695,9.461 10.363,9.800 9.962 C 10.108 9.598,10.175 9.491,10.218 9.293 C 10.283 8.991,10.042 8.561,9.659 8.298 C 9.377 8.103,9.074 8.069,8.820 8.204 M14.480 8.209 C 14.257 8.319,13.963 8.608,13.859 8.820 C 13.761 9.021,13.760 9.332,13.858 9.520 C 13.898 9.597,14.056 9.804,14.209 9.980 C 14.547 10.370,14.746 10.715,14.875 11.139 C 14.958 11.412,14.973 11.542,14.973 12.000 C 14.973 12.458,14.958 12.588,14.875 12.861 C 14.745 13.288,14.547 13.628,14.188 14.045 C 14.024 14.235,13.858 14.474,13.820 14.575 C 13.700 14.887,13.803 15.205,14.129 15.532 C 14.612 16.017,15.087 15.992,15.604 15.453 C 16.264 14.766,16.696 13.940,16.907 12.959 C 17.008 12.489,17.008 11.511,16.907 11.041 C 16.734 10.238,16.445 9.604,15.958 8.960 C 15.387 8.205,14.944 7.980,14.480 8.209 M11.614 11.057 C 11.221 11.180,11.039 11.435,11.009 11.906 C 10.962 12.621,11.306 13.000,12.000 13.000 C 12.698 13.000,13.043 12.616,12.989 11.900 C 12.963 11.563,12.859 11.327,12.678 11.199 C 12.414 11.010,11.957 10.950,11.614 11.057 " stroke="none" fill="black" fill-rule="evenodd"></path></svg>