<svg xmlns="http://www.w3.org/2000/svg" width="24" height="24" viewBox="0 0 24 24" fill="none" stroke="currentColor" stroke-width="2" stroke-linecap="round" stroke-linejoin="round" class="icon icon-tabler icons-tabler-outline icon-tabler-cloud-fog"><path d="M11.520 2.024 C 9.137 2.370,7.159 3.826,6.321 5.851 C 6.278 5.956,6.219 6.048,6.191 6.056 C 6.163 6.064,6.014 6.093,5.860 6.120 C 4.193 6.415,2.633 7.584,1.862 9.117 C 1.503 9.830,1.309 10.663,1.309 11.500 C 1.309 13.299,2.174 14.919,3.702 15.982 C 4.391 16.462,5.294 16.811,6.180 16.940 C 6.779 17.028,19.164 17.028,19.700 16.941 C 20.333 16.838,20.942 16.602,21.460 16.259 C 24.341 14.351,24.117 10.078,21.054 8.511 C 20.509 8.233,20.026 8.093,19.354 8.020 L 19.128 7.995 19.101 7.668 C 18.923 5.477,17.645 3.659,15.580 2.658 C 14.361 2.067,12.847 1.831,11.520 2.024 M13.187 4.002 C 13.916 4.100,14.747 4.411,15.320 4.800 C 15.624 5.006,16.096 5.449,16.313 5.732 C 16.891 6.482,17.187 7.492,17.079 8.340 C 16.962 9.262,16.981 9.455,17.213 9.687 C 17.470 9.943,17.604 9.974,18.600 10.004 C 19.580 10.033,19.741 10.063,20.180 10.294 C 20.322 10.368,20.552 10.551,20.742 10.740 C 21.264 11.259,21.479 11.771,21.479 12.500 C 21.479 13.226,21.265 13.737,20.742 14.264 C 20.373 14.634,20.003 14.843,19.540 14.940 C 19.120 15.028,6.858 15.029,6.355 14.941 C 4.942 14.694,3.847 13.756,3.434 12.439 C 3.352 12.177,3.340 12.060,3.340 11.500 C 3.340 10.940,3.352 10.823,3.434 10.561 C 3.777 9.469,4.605 8.617,5.705 8.227 C 6.057 8.102,6.333 8.050,6.902 8.005 C 7.589 7.950,7.791 7.807,7.959 7.260 C 8.260 6.281,8.523 5.831,9.138 5.247 C 9.806 4.612,10.686 4.187,11.680 4.019 C 12.057 3.955,12.778 3.947,13.187 4.002 M4.614 19.057 C 4.377 19.131,4.212 19.261,4.109 19.453 C 4.035 19.592,4.020 19.684,4.020 20.000 C 4.020 20.331,4.033 20.403,4.120 20.558 C 4.230 20.755,4.414 20.898,4.635 20.959 C 4.835 21.015,19.165 21.015,19.365 20.959 C 19.586 20.898,19.770 20.755,19.880 20.558 C 19.967 20.402,19.980 20.332,19.979 20.000 C 19.978 19.567,19.898 19.355,19.678 19.199 C 19.387 18.991,19.720 19.000,11.984 19.003 C 6.188 19.005,4.747 19.016,4.614 19.057 " stroke="none" fill="black" fill-rule="evenodd"></path></svg>