<svg xmlns="http://www.w3.org/2000/svg" width="24" height="24" viewBox="0 0 24 24" fill="none" stroke="currentColor" stroke-width="2" stroke-linecap="round" stroke-linejoin="round" class="icon icon-tabler icons-tabler-outline icon-tabler-shield-x"><path d="M11.660 2.055 C 11.550 2.107,11.271 2.306,11.040 2.497 C 9.764 3.555,8.299 4.286,6.632 4.697 C 5.770 4.909,5.293 4.968,4.180 4.998 C 3.619 5.014,3.135 5.045,3.078 5.069 C 2.911 5.139,2.722 5.319,2.635 5.490 C 2.590 5.578,2.484 5.926,2.399 6.264 C 1.692 9.077,1.966 12.080,3.174 14.745 C 3.846 16.230,4.635 17.360,5.838 18.561 C 6.977 19.698,8.147 20.530,9.480 21.151 C 10.321 21.542,11.679 22.000,12.000 22.000 C 12.238 22.000,13.427 21.631,13.788 21.445 C 13.974 21.350,14.180 21.139,14.238 20.987 C 14.414 20.519,14.031 19.725,13.569 19.602 C 13.350 19.544,13.218 19.568,12.550 19.788 L 12.001 19.969 11.610 19.840 C 10.338 19.419,9.275 18.852,8.221 18.032 C 6.268 16.513,4.807 14.194,4.281 11.776 C 3.973 10.360,3.944 8.703,4.203 7.360 C 4.277 6.977,4.255 7.000,4.556 7.000 C 5.546 7.000,6.988 6.731,8.218 6.316 C 9.511 5.880,10.721 5.248,11.850 4.417 L 12.000 4.307 12.150 4.417 C 13.285 5.252,14.483 5.878,15.784 6.317 C 17.011 6.731,18.454 7.000,19.444 7.000 C 19.760 7.000,19.719 6.934,19.847 7.660 C 19.927 8.119,19.938 8.316,19.939 9.340 C 19.940 10.278,19.926 10.588,19.866 10.960 C 19.767 11.583,19.634 12.155,19.441 12.793 C 19.352 13.087,19.280 13.393,19.281 13.473 C 19.284 13.913,19.696 14.277,20.305 14.378 C 20.738 14.450,21.069 14.190,21.276 13.618 C 21.553 12.855,21.812 11.689,21.926 10.700 C 22.001 10.048,21.989 8.579,21.904 7.900 C 21.786 6.960,21.526 5.806,21.360 5.479 C 21.277 5.318,21.086 5.138,20.922 5.069 C 20.865 5.045,20.381 5.014,19.820 4.998 C 18.684 4.967,18.185 4.904,17.300 4.680 C 15.680 4.270,14.198 3.525,12.960 2.498 C 12.505 2.120,12.220 1.961,12.000 1.961 C 11.923 1.961,11.770 2.003,11.660 2.055 M16.626 16.045 C 16.257 16.239,15.951 16.673,15.951 17.000 C 15.951 17.323,16.068 17.478,17.103 18.520 L 18.077 19.500 17.103 20.480 C 16.068 21.522,15.951 21.677,15.951 22.000 C 15.951 22.477,16.523 23.049,17.000 23.049 C 17.323 23.049,17.478 22.932,18.520 21.897 L 19.500 20.923 20.480 21.897 C 21.522 22.932,21.677 23.049,22.000 23.049 C 22.477 23.049,23.049 22.477,23.049 22.000 C 23.049 21.677,22.932 21.522,21.897 20.480 L 20.923 19.500 21.897 18.520 C 22.518 17.895,22.903 17.476,22.960 17.363 C 23.137 17.011,23.048 16.646,22.701 16.299 C 22.360 15.958,21.979 15.868,21.628 16.045 C 21.527 16.096,21.072 16.515,20.480 17.103 L 19.500 18.077 18.520 17.103 C 17.927 16.514,17.474 16.096,17.372 16.045 C 17.152 15.934,16.835 15.934,16.626 16.045 " stroke="none" fill="black" fill-rule="evenodd"></path></svg>