<svg xmlns="http://www.w3.org/2000/svg" width="24" height="24" viewBox="0 0 24 24" fill="none" stroke="currentColor" stroke-width="2" stroke-linecap="round" stroke-linejoin="round" class="icon icon-tabler icons-tabler-outline icon-tabler-arrow-move-up"><path d="M11.530 2.083 C 11.393 2.150,11.249 2.252,11.210 2.310 C 11.172 2.369,10.463 3.101,9.635 3.938 C 8.635 4.949,8.099 5.520,8.040 5.637 C 7.863 5.989,7.952 6.354,8.299 6.701 C 8.646 7.048,9.012 7.137,9.363 6.959 C 9.469 6.905,9.832 6.580,10.270 6.147 L 11.000 5.425 11.000 9.322 C 11.000 11.810,11.015 13.272,11.041 13.365 C 11.148 13.750,11.437 13.962,11.896 13.991 C 12.381 14.022,12.699 13.882,12.880 13.558 L 12.980 13.380 12.991 9.403 L 13.002 5.427 13.731 6.148 C 14.168 6.581,14.531 6.905,14.637 6.959 C 14.988 7.137,15.354 7.048,15.701 6.701 C 16.048 6.354,16.137 5.989,15.960 5.637 C 15.901 5.520,15.365 4.949,14.365 3.938 C 13.537 3.101,12.828 2.369,12.789 2.310 C 12.751 2.252,12.604 2.149,12.464 2.082 C 12.120 1.918,11.871 1.918,11.530 2.083 M11.499 16.040 C 10.363 16.246,9.460 17.049,9.114 18.160 C 8.979 18.594,8.979 19.406,9.114 19.840 C 9.421 20.826,10.174 21.579,11.160 21.886 C 11.412 21.964,11.547 21.979,12.000 21.979 C 12.453 21.979,12.588 21.964,12.840 21.886 C 13.826 21.579,14.579 20.826,14.886 19.840 C 15.021 19.406,15.021 18.594,14.886 18.160 C 14.581 17.179,13.810 16.407,12.861 16.129 C 12.500 16.023,11.832 15.980,11.499 16.040 M12.310 18.061 C 12.688 18.173,13.000 18.598,13.000 19.001 C 13.000 19.331,12.784 19.696,12.484 19.872 C 12.328 19.963,12.254 19.980,12.000 19.980 C 11.746 19.980,11.672 19.963,11.516 19.872 C 10.935 19.530,10.833 18.774,11.304 18.303 C 11.583 18.024,11.916 17.944,12.310 18.061 " stroke="none" fill="black" fill-rule="evenodd"></path></svg>