<svg xmlns="http://www.w3.org/2000/svg" width="24" height="24" viewBox="0 0 24 24" fill="none" stroke="currentColor" stroke-width="2" stroke-linecap="round" stroke-linejoin="round" class="icon icon-tabler icons-tabler-outline icon-tabler-math-y-minus-y"><path d="M1.692 8.044 C 1.446 8.139,1.091 8.445,1.014 8.628 C 0.939 8.807,0.946 9.044,1.033 9.270 C 1.073 9.374,1.709 10.477,2.446 11.720 C 3.183 12.963,3.836 14.065,3.896 14.169 L 4.007 14.358 3.141 15.980 C 2.665 16.872,2.250 17.675,2.218 17.766 C 2.083 18.148,2.194 18.500,2.524 18.743 C 3.082 19.153,3.624 19.127,3.945 18.677 C 4.101 18.458,8.865 9.532,8.967 9.270 C 9.121 8.868,9.018 8.508,8.676 8.257 C 8.143 7.865,7.601 7.872,7.287 8.273 C 7.224 8.354,6.717 9.275,6.161 10.320 C 5.605 11.365,5.139 12.232,5.125 12.246 C 5.111 12.261,4.579 11.393,3.943 10.318 C 3.264 9.170,2.727 8.306,2.643 8.226 C 2.352 7.947,2.080 7.895,1.692 8.044 M15.692 8.044 C 15.446 8.139,15.091 8.445,15.014 8.628 C 14.939 8.807,14.946 9.044,15.033 9.270 C 15.073 9.374,15.709 10.477,16.446 11.720 C 17.183 12.963,17.836 14.065,17.896 14.169 L 18.007 14.358 17.141 15.980 C 16.665 16.872,16.250 17.675,16.218 17.766 C 16.083 18.148,16.194 18.500,16.524 18.743 C 17.082 19.153,17.624 19.127,17.945 18.677 C 18.101 18.458,22.865 9.532,22.967 9.270 C 23.121 8.868,23.018 8.508,22.676 8.257 C 22.143 7.865,21.601 7.872,21.287 8.273 C 21.224 8.354,20.717 9.275,20.161 10.320 C 19.605 11.365,19.139 12.232,19.125 12.246 C 19.111 12.261,18.579 11.393,17.943 10.318 C 17.264 9.170,16.727 8.306,16.643 8.226 C 16.352 7.947,16.080 7.895,15.692 8.044 M9.614 11.057 C 9.377 11.131,9.212 11.261,9.109 11.453 C 9.035 11.592,9.020 11.684,9.020 12.000 C 9.020 12.331,9.033 12.403,9.120 12.558 C 9.230 12.755,9.414 12.898,9.635 12.959 C 9.831 13.014,14.169 13.014,14.365 12.959 C 14.586 12.898,14.770 12.755,14.880 12.558 C 14.967 12.402,14.980 12.332,14.979 12.000 C 14.978 11.567,14.898 11.355,14.678 11.199 C 14.406 11.005,14.336 11.000,11.984 11.003 C 10.293 11.005,9.741 11.017,9.614 11.057 " stroke="none" fill="black" fill-rule="evenodd"></path></svg>