<svg xmlns="http://www.w3.org/2000/svg" width="24" height="24" viewBox="0 0 24 24" fill="none" stroke="currentColor" stroke-width="2" stroke-linecap="round" stroke-linejoin="round" class="icon icon-tabler icons-tabler-outline icon-tabler-brand-html5"><path d="M3.678 3.054 C 3.239 3.173,3.039 3.407,3.012 3.834 C 3.000 4.032,3.254 5.963,4.012 11.445 C 5.127 19.506,5.048 19.049,5.368 19.281 C 5.481 19.363,6.412 19.691,8.668 20.443 C 11.221 21.294,11.850 21.490,12.016 21.487 C 12.170 21.484,12.976 21.231,15.336 20.443 C 17.083 19.860,18.518 19.359,18.601 19.304 C 18.772 19.191,18.894 19.010,18.955 18.780 C 18.978 18.692,19.449 15.344,20.002 11.340 C 20.770 5.777,21.001 4.006,20.984 3.830 C 20.942 3.408,20.754 3.171,20.371 3.055 C 20.115 2.978,3.963 2.978,3.678 3.054 M18.825 5.170 C 18.811 5.264,18.422 8.094,17.960 11.460 C 17.497 14.826,17.110 17.619,17.100 17.667 C 17.083 17.743,16.765 17.858,14.540 18.600 L 12.000 19.447 9.460 18.600 C 7.235 17.858,6.917 17.743,6.900 17.667 C 6.890 17.619,6.503 14.826,6.040 11.460 C 5.578 8.094,5.189 5.264,5.175 5.170 L 5.151 5.000 12.000 5.000 L 18.849 5.000 18.825 5.170 M8.220 7.027 C 7.802 7.119,7.580 7.363,7.521 7.795 C 7.482 8.083,7.993 12.206,8.100 12.471 C 8.187 12.686,8.432 12.899,8.660 12.956 C 8.779 12.986,9.645 13.000,11.338 13.000 C 12.714 13.000,13.840 13.007,13.840 13.015 C 13.840 13.131,13.591 14.704,13.569 14.724 C 13.553 14.738,13.193 14.853,12.769 14.979 L 11.998 15.207 11.509 15.061 C 11.240 14.980,10.876 14.871,10.700 14.817 L 10.380 14.720 10.268 14.479 C 10.187 14.304,10.111 14.209,9.991 14.129 C 9.841 14.030,9.791 14.020,9.463 14.020 C 9.145 14.020,9.071 14.034,8.868 14.134 C 8.430 14.349,8.322 14.687,8.461 15.411 C 8.553 15.884,8.634 16.071,8.819 16.234 C 9.009 16.401,8.943 16.376,10.497 16.844 C 11.358 17.103,11.878 17.240,12.002 17.240 C 12.125 17.240,12.643 17.103,13.505 16.843 C 14.228 16.625,14.868 16.428,14.926 16.406 C 15.094 16.341,15.327 16.114,15.404 15.940 C 15.510 15.698,16.015 12.128,15.984 11.830 C 15.956 11.548,15.843 11.316,15.678 11.199 C 15.402 11.002,15.368 11.000,12.534 11.000 C 11.074 11.000,9.880 10.987,9.880 10.970 C 9.880 10.954,9.826 10.517,9.760 10.000 C 9.694 9.483,9.640 9.046,9.640 9.030 C 9.640 9.014,11.005 9.000,12.673 9.000 C 16.027 9.000,15.985 9.003,16.229 8.751 C 16.418 8.556,16.486 8.355,16.486 7.997 C 16.486 7.491,16.303 7.196,15.909 7.064 C 15.738 7.007,15.308 7.001,12.009 7.005 C 9.969 7.007,8.264 7.017,8.220 7.027 " stroke="none" fill="black" fill-rule="evenodd"></path></svg>