<svg xmlns="http://www.w3.org/2000/svg" width="24" height="24" viewBox="0 0 24 24" fill="none" stroke="currentColor" stroke-width="2" stroke-linecap="round" stroke-linejoin="round" class="icon icon-tabler icons-tabler-outline icon-tabler-octagon-minus-2"><path d="M11.490 1.044 C 11.375 1.064,11.159 1.122,11.010 1.175 C 10.411 1.387,4.956 3.758,4.736 3.902 C 4.399 4.122,4.007 4.539,3.814 4.884 C 3.722 5.047,3.080 6.512,2.386 8.140 C 0.984 11.430,0.970 11.471,1.013 12.159 C 1.026 12.368,1.065 12.642,1.099 12.766 C 1.191 13.105,3.658 18.857,3.848 19.178 C 4.060 19.534,4.469 19.943,4.822 20.150 C 4.975 20.240,6.450 20.890,8.100 21.594 C 10.316 22.541,11.181 22.892,11.408 22.938 C 12.016 23.060,12.557 23.000,13.229 22.735 C 13.783 22.516,14.077 22.213,14.079 21.857 C 14.080 21.667,13.966 21.320,13.832 21.109 C 13.566 20.691,13.204 20.621,12.543 20.860 C 12.136 21.007,11.941 21.030,11.716 20.955 C 11.641 20.930,10.293 20.359,8.721 19.686 C 6.172 18.596,5.844 18.446,5.701 18.302 C 5.559 18.159,5.394 17.799,4.280 15.200 C 3.057 12.347,3.020 12.252,3.020 12.000 C 3.020 11.748,3.057 11.653,4.280 8.800 C 5.395 6.198,5.558 5.842,5.700 5.700 C 5.842 5.558,6.198 5.395,8.800 4.280 C 11.653 3.057,11.748 3.020,12.000 3.020 C 12.252 3.020,12.347 3.057,15.200 4.280 C 17.802 5.395,18.158 5.558,18.300 5.700 C 18.442 5.842,18.605 6.198,19.720 8.800 C 20.943 11.653,20.980 11.748,20.980 12.000 C 20.980 12.244,20.949 12.334,20.476 13.440 C 20.199 14.089,19.953 14.674,19.929 14.740 C 19.751 15.236,19.915 15.615,20.416 15.861 C 20.941 16.119,21.290 16.082,21.593 15.739 C 21.738 15.574,22.054 14.880,22.724 13.251 C 22.995 12.594,23.062 12.018,22.939 11.420 C 22.865 11.061,23.007 11.412,21.516 7.918 C 20.778 6.188,20.210 4.911,20.111 4.758 C 19.908 4.445,19.579 4.114,19.263 3.904 C 19.045 3.759,13.614 1.396,12.996 1.177 C 12.523 1.010,11.984 0.962,11.490 1.044 M15.614 18.057 C 15.377 18.131,15.212 18.261,15.109 18.453 C 15.035 18.592,15.020 18.684,15.020 19.000 C 15.020 19.331,15.033 19.403,15.120 19.558 C 15.230 19.755,15.414 19.898,15.635 19.959 C 15.832 20.014,22.168 20.014,22.365 19.959 C 22.586 19.898,22.770 19.755,22.880 19.558 C 22.967 19.402,22.980 19.332,22.979 19.000 C 22.978 18.567,22.898 18.355,22.678 18.199 C 22.398 17.999,22.411 18.000,18.984 18.003 C 16.472 18.005,15.744 18.017,15.614 18.057 " stroke="none" fill="black" fill-rule="evenodd"></path></svg>