<svg xmlns="http://www.w3.org/2000/svg" width="24" height="24" viewBox="0 0 24 24" fill="none" stroke="currentColor" stroke-width="2" stroke-linecap="round" stroke-linejoin="round" class="icon icon-tabler icons-tabler-outline icon-tabler-christmas-tree-off"><path d="M2.626 2.045 C 2.420 2.154,2.146 2.433,2.038 2.644 C 1.924 2.867,1.924 3.132,2.039 3.363 C 2.102 3.487,2.942 4.355,4.853 6.269 L 7.577 8.999 6.354 10.229 C 5.051 11.540,5.063 11.526,4.979 12.004 C 4.922 12.329,5.128 12.683,5.476 12.857 C 5.577 12.907,5.975 13.053,6.360 13.180 C 6.745 13.307,7.075 13.420,7.094 13.430 C 7.113 13.441,6.463 14.118,5.649 14.935 C 4.835 15.752,4.135 16.483,4.095 16.560 C 4.040 16.664,4.021 16.787,4.020 17.040 C 4.020 17.329,4.035 17.407,4.120 17.558 C 4.230 17.755,4.414 17.898,4.635 17.959 C 4.724 17.984,5.600 18.000,6.890 18.000 L 9.000 18.000 9.000 19.132 C 9.000 20.358,9.021 20.528,9.225 20.930 C 9.361 21.199,9.801 21.639,10.070 21.775 C 10.479 21.982,10.632 22.000,12.000 22.000 C 13.368 22.000,13.521 21.982,13.930 21.775 C 14.196 21.640,14.638 21.200,14.771 20.937 C 14.976 20.533,15.000 20.342,15.000 19.124 L 15.000 18.000 15.789 18.000 L 16.578 18.000 18.519 19.936 C 19.852 21.265,20.516 21.899,20.637 21.960 C 20.989 22.137,21.354 22.048,21.701 21.701 C 22.048 21.354,22.137 20.989,21.960 20.637 C 21.889 20.495,19.623 18.158,17.748 16.293 C 17.699 16.245,14.483 13.038,10.600 9.167 C 5.743 4.324,3.487 2.102,3.372 2.044 C 3.152 1.934,2.835 1.935,2.626 2.045 M11.620 2.046 C 11.526 2.094,10.868 2.719,10.032 3.554 C 8.529 5.055,8.442 5.162,8.442 5.500 C 8.442 5.727,8.564 5.968,8.798 6.202 C 9.150 6.554,9.484 6.641,9.837 6.474 C 9.964 6.413,10.322 6.088,11.011 5.405 L 12.002 4.422 13.141 5.561 C 13.767 6.187,14.280 6.709,14.280 6.721 C 14.280 6.732,14.095 6.834,13.870 6.947 C 13.326 7.219,13.150 7.353,13.040 7.580 C 12.968 7.730,12.954 7.810,12.972 7.980 C 13.017 8.424,13.055 8.472,14.642 10.061 C 15.455 10.875,16.120 11.553,16.120 11.566 C 16.120 11.580,16.079 11.602,16.029 11.614 C 15.891 11.649,15.597 11.918,15.535 12.066 C 15.352 12.503,15.651 13.285,16.069 13.465 C 16.317 13.571,16.556 13.534,17.404 13.257 C 18.419 12.925,18.519 12.881,18.716 12.684 C 19.048 12.352,19.134 11.984,18.960 11.637 C 18.900 11.518,18.358 10.945,17.288 9.871 C 16.417 8.997,15.712 8.275,15.722 8.267 C 15.732 8.258,15.943 8.148,16.190 8.022 C 16.653 7.787,16.819 7.640,16.980 7.323 C 17.076 7.133,17.068 6.853,16.961 6.637 C 16.840 6.396,12.612 2.164,12.372 2.044 C 12.151 1.934,11.836 1.935,11.620 2.046 M11.800 13.220 L 14.580 16.000 11.001 16.000 L 7.423 16.000 8.647 14.770 C 9.452 13.961,9.901 13.479,9.960 13.363 C 10.133 13.018,10.049 12.649,9.722 12.322 C 9.534 12.134,9.401 12.073,8.580 11.801 C 8.228 11.685,7.925 11.580,7.906 11.570 C 7.874 11.552,8.951 10.440,9.000 10.440 C 9.011 10.440,10.271 11.691,11.800 13.220 M13.000 19.000 L 13.000 20.000 12.000 20.000 L 11.000 20.000 11.000 19.000 L 11.000 18.000 12.000 18.000 L 13.000 18.000 13.000 19.000 " stroke="none" fill="black" fill-rule="evenodd"></path></svg>