<svg xmlns="http://www.w3.org/2000/svg" width="24" height="24" viewBox="0 0 24 24" fill="none" stroke="currentColor" stroke-width="2" stroke-linecap="round" stroke-linejoin="round" class="icon icon-tabler icons-tabler-outline icon-tabler-layout-align-right"><path d="M19.614 3.057 C 19.377 3.131,19.212 3.261,19.109 3.453 L 19.020 3.620 19.010 11.914 C 19.003 17.391,19.013 20.260,19.040 20.358 C 19.144 20.747,19.434 20.962,19.896 20.991 C 20.381 21.022,20.699 20.882,20.880 20.558 L 20.980 20.380 20.980 12.000 L 20.980 3.620 20.891 3.453 C 20.842 3.362,20.746 3.247,20.678 3.199 C 20.414 3.010,19.957 2.950,19.614 3.057 M5.499 8.043 C 4.379 8.234,3.461 9.048,3.114 10.160 C 3.022 10.453,3.020 10.497,3.020 12.000 C 3.020 13.503,3.022 13.547,3.114 13.840 C 3.422 14.827,4.173 15.578,5.160 15.886 L 5.460 15.980 10.000 15.980 L 14.540 15.980 14.840 15.886 C 15.827 15.578,16.578 14.827,16.886 13.840 C 16.978 13.547,16.980 13.503,16.980 12.000 C 16.980 10.497,16.978 10.453,16.886 10.160 C 16.581 9.182,15.832 8.428,14.861 8.121 L 14.540 8.020 10.120 8.014 C 7.689 8.011,5.609 8.024,5.499 8.043 M14.310 10.061 C 14.589 10.144,14.856 10.411,14.939 10.690 C 15.023 10.972,15.028 13.015,14.945 13.290 C 14.872 13.533,14.707 13.740,14.484 13.872 L 14.300 13.980 10.000 13.980 L 5.700 13.980 5.516 13.872 C 5.303 13.747,5.141 13.550,5.058 13.316 C 4.972 13.071,4.974 10.982,5.061 10.690 C 5.140 10.421,5.412 10.143,5.673 10.063 C 5.962 9.974,14.011 9.972,14.310 10.061 " stroke="none" fill="black" fill-rule="evenodd"></path></svg>