<svg xmlns="http://www.w3.org/2000/svg" width="24" height="24" viewBox="0 0 24 24" fill="none" stroke="currentColor" stroke-width="2" stroke-linecap="round" stroke-linejoin="round" class="icon icon-tabler icons-tabler-outline icon-tabler-page-break"><path d="M6.499 2.043 C 5.393 2.228,4.486 3.026,4.115 4.140 L 4.021 4.420 4.009 7.309 C 4.001 9.224,4.011 10.251,4.038 10.353 C 4.144 10.747,4.432 10.961,4.896 10.991 C 5.381 11.022,5.699 10.882,5.880 10.558 L 5.980 10.380 6.000 7.560 C 6.022 4.400,6.004 4.592,6.321 4.283 C 6.622 3.992,6.514 4.000,9.947 4.000 L 13.000 4.000 13.000 5.632 C 13.000 7.399,13.010 7.507,13.225 7.930 C 13.361 8.199,13.801 8.639,14.070 8.775 C 14.493 8.990,14.601 9.000,16.368 9.000 L 18.000 9.000 18.000 9.610 C 18.000 9.945,18.019 10.285,18.041 10.365 C 18.148 10.750,18.437 10.962,18.896 10.991 C 19.381 11.022,19.699 10.882,19.880 10.558 L 19.980 10.380 19.980 9.000 C 19.980 7.647,19.978 7.617,19.890 7.452 C 19.841 7.360,19.724 7.231,19.630 7.165 C 19.498 7.073,15.263 2.838,14.719 2.254 C 14.473 1.991,14.626 2.000,10.463 2.005 C 8.393 2.007,6.609 2.025,6.499 2.043 M15.800 6.220 L 16.579 7.000 15.790 7.000 L 15.000 7.000 15.000 6.220 C 15.000 5.791,15.005 5.440,15.010 5.440 C 15.016 5.440,15.371 5.791,15.800 6.220 M2.614 13.057 C 2.377 13.131,2.212 13.261,2.109 13.453 C 2.035 13.592,2.020 13.684,2.020 14.000 C 2.020 14.331,2.033 14.403,2.120 14.558 C 2.230 14.755,2.414 14.898,2.635 14.959 C 2.722 14.983,3.470 15.000,4.500 15.000 C 5.530 15.000,6.278 14.983,6.365 14.959 C 6.586 14.898,6.770 14.755,6.880 14.558 C 6.967 14.402,6.980 14.332,6.979 14.000 C 6.978 13.687,6.962 13.591,6.890 13.453 C 6.786 13.256,6.623 13.131,6.371 13.055 C 6.114 12.978,2.862 12.980,2.614 13.057 M10.180 13.039 C 9.715 13.159,9.514 13.447,9.512 13.997 C 9.510 14.348,9.582 14.556,9.771 14.751 C 10.001 14.989,10.101 15.000,12.000 15.000 C 13.899 15.000,13.999 14.989,14.229 14.751 C 14.418 14.556,14.486 14.355,14.486 13.997 C 14.486 13.491,14.303 13.196,13.909 13.064 C 13.744 13.009,13.475 13.001,12.009 13.004 C 11.069 13.006,10.246 13.022,10.180 13.039 M17.614 13.057 C 17.377 13.131,17.212 13.261,17.109 13.453 C 17.035 13.592,17.020 13.684,17.020 14.000 C 17.020 14.331,17.033 14.403,17.120 14.558 C 17.230 14.755,17.414 14.898,17.635 14.959 C 17.722 14.983,18.470 15.000,19.500 15.000 C 20.530 15.000,21.278 14.983,21.365 14.959 C 21.586 14.898,21.770 14.755,21.880 14.558 C 21.967 14.402,21.980 14.332,21.979 14.000 C 21.978 13.687,21.962 13.591,21.890 13.453 C 21.786 13.256,21.623 13.131,21.371 13.055 C 21.114 12.978,17.862 12.980,17.614 13.057 M4.614 17.057 C 4.377 17.131,4.212 17.261,4.109 17.453 C 4.024 17.612,4.020 17.664,4.020 18.580 C 4.020 19.475,4.026 19.560,4.114 19.840 C 4.422 20.827,5.173 21.578,6.160 21.886 L 6.460 21.980 12.000 21.980 L 17.540 21.980 17.840 21.886 C 18.827 21.578,19.578 20.827,19.886 19.840 C 19.974 19.560,19.980 19.475,19.980 18.580 C 19.980 17.659,19.976 17.613,19.889 17.450 C 19.724 17.140,19.329 16.970,18.874 17.011 C 18.439 17.051,18.141 17.274,18.041 17.635 C 18.019 17.715,18.000 18.079,18.000 18.444 C 18.000 19.362,17.905 19.624,17.484 19.872 L 17.300 19.980 12.000 19.980 L 6.700 19.980 6.516 19.872 C 6.326 19.760,6.155 19.568,6.072 19.373 C 6.044 19.305,6.015 18.932,6.001 18.440 C 5.979 17.701,5.968 17.604,5.889 17.453 C 5.841 17.362,5.746 17.247,5.678 17.199 C 5.414 17.010,4.957 16.950,4.614 17.057 " stroke="none" fill="black" fill-rule="evenodd"></path></svg>