<svg xmlns="http://www.w3.org/2000/svg" width="24" height="24" viewBox="0 0 24 24" fill="none" stroke="currentColor" stroke-width="2" stroke-linecap="round" stroke-linejoin="round" class="icon icon-tabler icons-tabler-outline icon-tabler-graph"><path d="M5.499 3.043 C 4.380 3.233,3.461 4.048,3.114 5.160 L 3.020 5.460 3.020 12.000 L 3.020 18.540 3.114 18.840 C 3.422 19.827,4.173 20.578,5.160 20.886 L 5.460 20.980 12.000 20.980 L 18.540 20.980 18.840 20.886 C 19.827 20.578,20.578 19.827,20.886 18.840 L 20.980 18.540 20.980 12.000 L 20.980 5.460 20.886 5.160 C 20.581 4.182,19.832 3.428,18.861 3.121 L 18.540 3.020 12.120 3.014 C 8.589 3.011,5.609 3.024,5.499 3.043 M18.310 5.061 C 18.589 5.144,18.856 5.411,18.939 5.690 C 18.992 5.869,19.000 6.651,19.000 12.001 C 19.000 17.059,18.991 18.139,18.945 18.290 C 18.872 18.533,18.707 18.740,18.484 18.872 L 18.300 18.980 12.000 18.980 L 5.700 18.980 5.516 18.872 C 5.303 18.747,5.141 18.550,5.058 18.316 C 4.968 18.060,4.971 5.993,5.061 5.690 C 5.140 5.421,5.412 5.143,5.673 5.063 C 5.963 4.974,18.010 4.972,18.310 5.061 M14.620 9.047 C 14.529 9.094,13.926 9.661,13.230 10.353 L 12.001 11.576 11.270 10.853 C 10.856 10.444,10.467 10.094,10.372 10.045 C 10.150 9.933,9.852 9.933,9.628 10.044 C 9.389 10.163,6.159 13.397,6.039 13.637 C 5.863 13.990,5.952 14.355,6.299 14.701 C 6.646 15.048,7.011 15.137,7.363 14.960 C 7.479 14.901,7.961 14.452,8.770 13.647 L 9.999 12.424 10.730 13.147 C 11.513 13.921,11.693 14.049,12.000 14.049 C 12.333 14.049,12.467 13.944,13.770 12.647 L 14.999 11.424 15.730 12.147 C 16.168 12.580,16.531 12.905,16.637 12.959 C 16.988 13.137,17.354 13.048,17.701 12.701 C 18.048 12.354,18.137 11.990,17.960 11.637 C 17.842 11.400,15.608 9.162,15.372 9.044 C 15.151 8.934,14.836 8.935,14.620 9.047 " stroke="none" fill="black" fill-rule="evenodd"></path></svg>