<svg xmlns="http://www.w3.org/2000/svg" width="24" height="24" viewBox="0 0 24 24" fill="none" stroke="currentColor" stroke-width="2" stroke-linecap="round" stroke-linejoin="round" class="icon icon-tabler icons-tabler-outline icon-tabler-prism"><path d="M4.502 2.064 C 3.810 2.232,3.186 2.878,3.041 3.577 C 3.012 3.715,3.002 5.691,3.009 9.760 L 3.020 15.740 3.113 16.060 C 3.310 16.737,3.690 17.353,4.166 17.768 C 4.468 18.030,10.266 22.381,10.613 22.605 C 10.746 22.691,10.999 22.809,11.177 22.868 C 11.458 22.961,11.565 22.975,12.000 22.975 C 12.435 22.975,12.542 22.961,12.823 22.868 C 13.001 22.809,13.254 22.691,13.387 22.605 C 13.734 22.381,19.532 18.030,19.834 17.768 C 20.310 17.353,20.690 16.737,20.887 16.060 L 20.980 15.740 20.991 9.770 C 21.002 3.271,21.011 3.535,20.782 3.083 C 20.639 2.801,20.269 2.420,19.984 2.261 C 19.490 1.985,19.995 2.001,11.980 2.004 C 5.830 2.006,4.704 2.015,4.502 2.064 M17.053 4.093 C 16.569 4.493,12.390 7.723,12.291 7.774 C 12.128 7.859,11.871 7.858,11.708 7.774 C 11.608 7.722,7.439 4.499,6.947 4.093 L 6.834 4.000 12.000 4.000 L 17.166 4.000 17.053 4.093 M7.980 7.436 C 9.366 8.517,10.612 9.459,10.750 9.530 L 11.000 9.660 11.000 15.032 C 11.000 19.320,10.990 20.399,10.950 20.374 C 10.749 20.253,5.473 16.261,5.372 16.155 C 5.302 16.081,5.194 15.912,5.132 15.780 L 5.020 15.540 5.009 10.327 L 4.999 5.114 5.229 5.293 C 5.356 5.391,6.594 6.355,7.980 7.436 M18.991 11.360 L 18.980 15.540 18.868 15.780 C 18.806 15.912,18.698 16.081,18.628 16.155 C 18.527 16.261,13.251 20.253,13.050 20.374 C 13.010 20.399,13.000 19.320,13.000 15.032 L 13.000 9.660 13.250 9.531 C 13.388 9.459,14.733 8.440,16.240 7.265 L 18.980 5.130 18.991 6.155 C 18.997 6.719,18.997 9.061,18.991 11.360 " stroke="none" fill="black" fill-rule="evenodd"></path></svg>