<svg xmlns="http://www.w3.org/2000/svg" width="24" height="24" viewBox="0 0 24 24" fill="none" stroke="currentColor" stroke-width="2" stroke-linecap="round" stroke-linejoin="round" class="icon icon-tabler icons-tabler-outline icon-tabler-ufo"><path d="M11.380 3.043 C 9.353 3.243,7.539 4.499,6.605 6.350 C 6.434 6.689,6.172 7.489,6.106 7.873 C 6.074 8.055,6.038 8.215,6.025 8.228 C 6.013 8.240,5.800 8.318,5.551 8.400 C 4.072 8.889,2.870 9.571,2.057 10.384 C 1.208 11.233,0.847 12.289,1.060 13.300 C 1.434 15.073,3.371 16.500,6.546 17.341 C 6.851 17.421,7.105 17.493,7.112 17.499 C 7.118 17.505,6.870 18.021,6.559 18.645 C 5.915 19.940,5.875 20.079,6.040 20.420 C 6.145 20.637,6.398 20.840,6.712 20.959 C 7.110 21.111,7.475 21.029,7.708 20.735 C 7.775 20.650,8.139 19.962,8.517 19.207 L 9.204 17.833 9.392 17.858 C 10.319 17.982,12.237 18.033,13.362 17.964 C 13.790 17.938,14.195 17.907,14.262 17.895 C 14.383 17.874,14.391 17.886,15.282 19.226 C 15.776 19.969,16.242 20.647,16.317 20.732 C 16.600 21.049,16.960 21.123,17.348 20.942 C 17.598 20.826,17.889 20.567,17.976 20.382 C 18.061 20.204,18.056 19.898,17.964 19.697 C 17.924 19.607,17.600 19.099,17.245 18.568 C 16.890 18.036,16.600 17.583,16.600 17.561 C 16.600 17.538,16.635 17.520,16.678 17.520 C 16.721 17.520,17.004 17.456,17.308 17.379 C 20.564 16.545,22.560 15.099,22.940 13.300 C 23.153 12.289,22.792 11.233,21.943 10.384 C 21.144 9.585,20.025 8.944,18.545 8.438 C 18.239 8.333,17.974 8.223,17.955 8.194 C 17.937 8.164,17.921 8.093,17.921 8.035 C 17.919 7.676,17.524 6.549,17.214 6.020 C 16.008 3.956,13.758 2.808,11.380 3.043 M12.860 5.100 C 13.968 5.329,14.970 6.086,15.533 7.120 C 15.840 7.683,16.039 8.540,15.948 8.902 C 15.904 9.073,15.877 9.104,15.646 9.243 C 14.915 9.684,13.764 9.945,12.360 9.987 C 10.808 10.035,9.391 9.794,8.520 9.335 C 8.042 9.083,8.059 9.112,8.063 8.592 C 8.066 8.194,8.082 8.095,8.195 7.760 C 8.491 6.886,9.039 6.166,9.787 5.669 C 10.074 5.478,10.586 5.240,10.890 5.156 C 11.480 4.994,12.240 4.972,12.860 5.100 M7.195 10.880 C 7.899 11.349,9.057 11.725,10.360 11.907 C 10.740 11.960,11.133 11.977,12.000 11.977 C 12.867 11.977,13.260 11.960,13.640 11.907 C 15.329 11.671,16.654 11.147,17.338 10.444 C 17.448 10.332,17.568 10.240,17.607 10.240 C 17.718 10.240,18.624 10.588,19.060 10.799 C 19.908 11.208,20.624 11.781,20.863 12.240 C 21.117 12.729,20.971 13.232,20.424 13.750 C 19.002 15.100,15.631 16.000,12.000 16.000 C 8.369 16.000,4.998 15.100,3.576 13.750 C 3.029 13.232,2.883 12.729,3.137 12.240 C 3.481 11.578,4.548 10.876,6.000 10.357 L 6.420 10.206 6.680 10.458 C 6.823 10.596,7.055 10.786,7.195 10.880 M6.614 12.055 C 6.220 12.184,6.039 12.437,6.009 12.900 C 5.978 13.381,6.119 13.699,6.442 13.880 C 6.597 13.967,6.669 13.980,7.000 13.980 C 7.312 13.980,7.408 13.964,7.540 13.894 C 7.866 13.718,8.000 13.459,8.000 13.000 C 8.000 12.357,7.713 12.048,7.083 12.016 C 6.893 12.006,6.718 12.021,6.614 12.055 M16.614 12.055 C 16.220 12.184,16.039 12.437,16.009 12.900 C 15.978 13.381,16.119 13.699,16.442 13.880 C 16.597 13.967,16.669 13.980,17.000 13.980 C 17.312 13.980,17.408 13.964,17.540 13.894 C 17.866 13.718,18.000 13.459,18.000 13.000 C 18.000 12.357,17.713 12.048,17.083 12.016 C 16.893 12.006,16.718 12.021,16.614 12.055 M11.614 13.055 C 11.220 13.184,11.039 13.437,11.009 13.900 C 10.978 14.381,11.119 14.699,11.442 14.880 C 11.597 14.967,11.669 14.980,12.000 14.980 C 12.312 14.980,12.408 14.964,12.540 14.894 C 12.866 14.718,13.000 14.459,13.000 14.000 C 13.000 13.357,12.713 13.048,12.083 13.016 C 11.893 13.006,11.718 13.021,11.614 13.055 " stroke="none" fill="black" fill-rule="evenodd"></path></svg>