<svg xmlns="http://www.w3.org/2000/svg" width="24" height="24" viewBox="0 0 24 24" fill="none" stroke="currentColor" stroke-width="2" stroke-linecap="round" stroke-linejoin="round" class="icon icon-tabler icons-tabler-outline icon-tabler-gender-neutrois"><path d="M11.614 2.057 C 11.377 2.131,11.212 2.261,11.109 2.453 L 11.020 2.620 11.000 5.857 L 10.980 9.093 10.700 9.149 C 10.333 9.223,9.770 9.417,9.420 9.590 C 7.681 10.451,6.521 11.942,6.115 13.840 C 5.984 14.450,5.984 15.558,6.114 16.160 C 6.639 18.588,8.417 20.365,10.840 20.885 C 11.446 21.015,12.554 21.015,13.160 20.885 C 14.397 20.620,15.412 20.068,16.269 19.195 C 17.109 18.340,17.626 17.369,17.885 16.160 C 17.960 15.810,17.975 15.617,17.975 15.000 C 17.975 14.383,17.960 14.190,17.885 13.840 C 17.477 11.936,16.323 10.453,14.580 9.590 C 14.230 9.417,13.667 9.223,13.300 9.149 L 13.020 9.093 13.000 5.857 L 12.980 2.620 12.891 2.453 C 12.842 2.362,12.746 2.247,12.678 2.199 C 12.414 2.010,11.957 1.950,11.614 2.057 M12.605 11.058 C 13.855 11.247,14.964 12.042,15.536 13.160 C 15.767 13.611,15.871 13.930,15.942 14.395 C 16.014 14.879,16.014 15.121,15.942 15.605 C 15.691 17.265,14.434 18.579,12.773 18.917 C 10.563 19.368,8.396 17.845,8.058 15.605 C 7.986 15.121,7.986 14.879,8.058 14.395 C 8.314 12.698,9.675 11.324,11.358 11.061 C 11.816 10.990,12.144 10.989,12.605 11.058 " stroke="none" fill="black" fill-rule="evenodd"></path></svg>