<svg xmlns="http://www.w3.org/2000/svg" width="24" height="24" viewBox="0 0 24 24" fill="none" stroke="currentColor" stroke-width="2" stroke-linecap="round" stroke-linejoin="round" class="icon icon-tabler icons-tabler-outline icon-tabler-map-discount"><path d="M20.780 3.016 C 20.692 3.045,19.355 3.700,17.810 4.474 L 15.000 5.880 12.370 4.559 C 10.923 3.832,9.650 3.188,9.541 3.129 C 9.369 3.034,9.297 3.020,9.000 3.020 C 8.703 3.020,8.631 3.034,8.459 3.129 C 8.350 3.188,6.935 3.903,5.315 4.717 C 2.132 6.316,2.159 6.300,2.046 6.674 C 2.012 6.789,2.000 8.552,2.000 13.493 C 2.000 20.068,2.001 20.160,2.080 20.372 C 2.188 20.659,2.398 20.897,2.620 20.982 C 2.995 21.125,2.953 21.142,6.108 19.565 L 9.000 18.121 10.892 19.066 C 12.963 20.100,13.019 20.120,13.381 19.982 C 13.694 19.862,13.984 19.415,14.028 18.980 C 14.057 18.704,13.938 18.443,13.705 18.272 C 13.614 18.206,12.743 17.753,11.770 17.266 L 10.000 16.380 10.000 11.010 C 10.000 8.057,10.009 5.640,10.020 5.640 C 10.031 5.640,10.931 6.085,12.020 6.630 L 14.000 7.620 14.000 10.163 C 14.000 12.979,14.001 12.989,14.249 13.229 C 14.442 13.416,14.647 13.487,14.997 13.488 C 15.348 13.490,15.556 13.418,15.751 13.229 C 15.999 12.989,16.000 12.979,16.000 10.163 L 16.000 7.620 17.980 6.630 C 19.069 6.085,19.969 5.640,19.980 5.640 C 19.991 5.640,20.000 7.230,20.000 9.173 C 20.000 13.077,19.994 12.983,20.249 13.229 C 20.442 13.416,20.647 13.487,20.997 13.488 C 21.348 13.490,21.556 13.418,21.751 13.229 C 22.009 12.979,22.000 13.167,22.000 8.274 C 22.000 3.956,21.998 3.838,21.921 3.632 C 21.719 3.092,21.281 2.856,20.780 3.016 M8.000 11.010 L 8.000 16.380 6.020 17.370 C 4.931 17.915,4.031 18.360,4.020 18.360 C 4.009 18.360,4.000 15.943,4.000 12.990 L 4.000 7.620 5.970 6.632 C 7.054 6.089,7.954 5.643,7.970 5.642 C 7.987 5.641,8.000 8.057,8.000 11.010 M20.620 15.046 C 20.384 15.167,15.154 20.407,15.039 20.637 C 14.863 20.990,14.953 21.355,15.299 21.701 C 15.645 22.047,16.010 22.137,16.363 21.961 C 16.613 21.836,21.836 16.613,21.961 16.363 C 22.137 16.010,22.047 15.645,21.701 15.299 C 21.361 14.959,20.968 14.867,20.620 15.046 M15.614 15.057 C 15.221 15.180,15.039 15.435,15.009 15.906 C 14.962 16.621,15.306 17.000,16.000 17.000 C 16.698 17.000,17.043 16.616,16.989 15.900 C 16.963 15.563,16.859 15.327,16.678 15.199 C 16.414 15.010,15.957 14.950,15.614 15.057 M20.614 20.057 C 20.221 20.180,20.039 20.435,20.009 20.906 C 19.962 21.621,20.306 22.000,21.000 22.000 C 21.698 22.000,22.043 21.616,21.989 20.900 C 21.963 20.563,21.859 20.327,21.678 20.199 C 21.414 20.010,20.957 19.950,20.614 20.057 " stroke="none" fill="black" fill-rule="evenodd"></path></svg>