<svg xmlns="http://www.w3.org/2000/svg" width="24" height="24" viewBox="0 0 24 24" fill="none" stroke="currentColor" stroke-width="2" stroke-linecap="round" stroke-linejoin="round" class="icon icon-tabler icons-tabler-outline icon-tabler-frame"><path d="M6.614 3.057 C 6.377 3.131,6.212 3.261,6.109 3.453 C 6.024 3.613,6.020 3.668,6.008 4.810 L 5.996 6.000 4.904 6.000 C 3.744 6.000,3.570 6.022,3.322 6.199 C 3.100 6.357,3.020 6.568,3.020 7.000 C 3.020 7.331,3.033 7.403,3.120 7.558 C 3.230 7.755,3.414 7.898,3.635 7.959 C 3.716 7.982,4.270 8.000,4.890 8.000 L 6.000 8.000 6.000 12.000 L 6.000 16.000 4.906 16.000 C 3.744 16.000,3.570 16.022,3.322 16.199 C 3.100 16.357,3.020 16.568,3.020 17.000 C 3.020 17.331,3.033 17.403,3.120 17.558 C 3.230 17.755,3.414 17.898,3.635 17.959 C 3.716 17.982,4.270 18.000,4.890 18.000 L 6.000 18.000 6.000 19.110 C 6.000 19.730,6.018 20.284,6.041 20.365 C 6.148 20.750,6.437 20.962,6.896 20.991 C 7.381 21.022,7.699 20.882,7.880 20.558 C 7.979 20.381,7.980 20.374,7.993 19.190 L 8.005 18.000 12.003 18.000 L 16.000 18.000 16.000 19.110 C 16.000 19.730,16.018 20.284,16.041 20.365 C 16.148 20.750,16.437 20.962,16.896 20.991 C 17.381 21.022,17.699 20.882,17.880 20.558 C 17.979 20.381,17.980 20.374,17.993 19.190 L 18.005 18.000 19.113 18.000 C 19.731 18.000,20.284 17.982,20.365 17.959 C 20.586 17.898,20.770 17.755,20.880 17.558 C 20.967 17.402,20.980 17.332,20.979 17.000 C 20.978 16.567,20.898 16.355,20.678 16.199 C 20.430 16.022,20.256 16.000,19.094 16.000 L 18.000 16.000 18.000 12.000 L 18.000 8.000 19.110 8.000 C 19.730 8.000,20.284 7.982,20.365 7.959 C 20.586 7.898,20.770 7.755,20.880 7.558 C 20.967 7.402,20.980 7.332,20.979 7.000 C 20.978 6.567,20.898 6.355,20.678 6.199 C 20.430 6.022,20.256 6.000,19.096 6.000 L 18.005 6.000 17.993 4.810 C 17.980 3.662,17.977 3.614,17.889 3.450 C 17.724 3.140,17.329 2.970,16.874 3.011 C 16.439 3.051,16.141 3.274,16.041 3.635 C 16.018 3.716,16.000 4.270,16.000 4.890 L 16.000 6.000 12.003 6.000 L 8.005 6.000 7.993 4.810 C 7.981 3.669,7.976 3.613,7.891 3.453 C 7.842 3.362,7.746 3.247,7.678 3.199 C 7.414 3.010,6.957 2.950,6.614 3.057 M16.000 12.000 L 16.000 16.000 12.000 16.000 L 8.000 16.000 8.000 12.000 L 8.000 8.000 12.000 8.000 L 16.000 8.000 16.000 12.000 " stroke="none" fill="black" fill-rule="evenodd"></path></svg>