<svg xmlns="http://www.w3.org/2000/svg" width="24" height="24" viewBox="0 0 24 24" fill="none" stroke="currentColor" stroke-width="2" stroke-linecap="round" stroke-linejoin="round" class="icon icon-tabler icons-tabler-outline icon-tabler-luggage"><path d="M10.499 2.042 C 9.171 2.274,8.136 3.381,8.017 4.694 L 7.990 4.991 7.709 5.018 C 6.496 5.138,5.485 5.972,5.114 7.160 L 5.020 7.460 5.020 13.000 L 5.020 18.540 5.114 18.840 C 5.483 20.022,6.511 20.876,7.693 20.983 L 7.990 21.010 8.013 21.208 C 8.074 21.715,8.428 22.000,9.000 22.000 C 9.574 22.000,9.919 21.723,9.983 21.210 L 10.009 21.000 11.999 21.000 L 13.989 21.000 14.013 21.203 C 14.074 21.715,14.426 22.000,15.000 22.000 C 15.572 22.000,15.919 21.723,15.982 21.215 L 16.008 21.010 16.306 20.983 C 17.489 20.876,18.517 20.022,18.886 18.840 L 18.980 18.540 18.980 13.000 L 18.980 7.460 18.886 7.160 C 18.705 6.578,18.391 6.107,17.911 5.695 C 17.475 5.321,16.893 5.078,16.291 5.018 L 16.010 4.991 15.983 4.694 C 15.877 3.519,15.020 2.481,13.861 2.124 C 13.548 2.027,13.504 2.024,12.120 2.015 C 11.339 2.010,10.609 2.022,10.499 2.042 M13.310 4.061 C 13.589 4.144,13.856 4.411,13.939 4.690 C 13.973 4.802,14.000 4.918,14.000 4.947 C 14.000 4.990,13.629 5.000,12.000 5.000 C 10.371 5.000,10.000 4.990,10.000 4.947 C 10.000 4.918,10.027 4.802,10.061 4.690 C 10.140 4.421,10.412 4.143,10.673 4.063 C 10.952 3.977,13.023 3.975,13.310 4.061 M16.310 7.061 C 16.452 7.103,16.571 7.178,16.697 7.303 C 16.948 7.554,17.000 7.751,17.000 8.447 L 17.000 9.000 12.000 9.000 L 7.000 9.000 7.000 8.447 C 7.000 7.750,7.052 7.554,7.304 7.303 C 7.618 6.989,7.346 7.006,11.983 7.003 C 15.563 7.000,16.132 7.008,16.310 7.061 M17.000 13.000 L 17.000 15.000 12.000 15.000 L 7.000 15.000 7.000 13.000 L 7.000 11.000 12.000 11.000 L 17.000 11.000 17.000 13.000 M17.000 17.554 C 17.000 18.352,16.890 18.633,16.484 18.872 L 16.300 18.980 12.000 18.980 L 7.700 18.980 7.516 18.872 C 7.415 18.813,7.284 18.700,7.225 18.623 C 7.038 18.377,7.000 18.202,7.000 17.575 L 7.000 17.000 12.000 17.000 L 17.000 17.000 17.000 17.554 " stroke="none" fill="black" fill-rule="evenodd"></path></svg>