<svg xmlns="http://www.w3.org/2000/svg" width="24" height="24" viewBox="0 0 24 24" fill="none" stroke="currentColor" stroke-width="2" stroke-linecap="round" stroke-linejoin="round" class="icon icon-tabler icons-tabler-outline icon-tabler-diabolo-off"><path d="M2.626 2.045 C 2.257 2.239,1.951 2.673,1.951 3.000 C 1.951 3.296,2.083 3.491,2.740 4.160 L 3.349 4.780 3.236 5.020 C 2.979 5.567,2.929 6.150,3.092 6.705 C 3.143 6.878,3.575 8.128,4.052 9.482 C 4.530 10.837,4.920 11.972,4.920 12.005 C 4.920 12.037,4.495 13.287,3.976 14.782 C 3.075 17.375,3.030 17.517,3.011 17.860 C 2.986 18.293,3.053 18.602,3.268 19.040 C 3.533 19.583,4.306 20.270,5.104 20.672 C 6.077 21.161,7.592 21.600,9.000 21.801 C 10.725 22.046,12.919 22.060,14.680 21.837 C 16.237 21.639,17.853 21.198,18.835 20.703 L 19.129 20.554 19.795 21.212 C 20.510 21.919,20.698 22.049,21.000 22.049 C 21.477 22.049,22.049 21.477,22.049 21.000 C 22.049 20.593,22.966 21.537,9.112 7.692 C 6.113 4.696,3.615 2.210,3.560 2.168 C 3.264 1.942,2.910 1.895,2.626 2.045 M10.700 2.040 C 9.358 2.127,7.648 2.394,7.092 2.602 C 6.891 2.678,6.696 2.838,6.603 3.004 C 6.427 3.316,6.522 3.928,6.796 4.247 C 7.061 4.557,7.302 4.585,8.128 4.402 C 9.382 4.125,10.419 4.024,12.020 4.023 C 13.657 4.022,14.872 4.148,16.063 4.441 C 17.471 4.787,18.687 5.384,18.939 5.853 C 19.018 5.999,19.018 6.001,18.940 6.146 C 18.781 6.441,18.187 6.832,17.463 7.119 C 16.299 7.581,15.012 7.841,13.303 7.959 C 12.576 8.010,12.440 8.044,12.237 8.227 C 11.961 8.477,11.881 9.037,12.060 9.466 C 12.242 9.902,12.559 10.015,13.435 9.955 C 14.978 9.851,16.351 9.606,17.520 9.224 C 17.751 9.149,17.944 9.091,17.949 9.096 C 17.964 9.110,17.172 11.344,17.115 11.448 C 17.088 11.498,17.045 11.630,17.021 11.740 C 16.979 11.930,16.961 11.950,16.671 12.142 C 16.285 12.396,16.209 12.465,16.116 12.648 C 15.957 12.959,16.073 13.450,16.388 13.800 C 16.686 14.132,16.997 14.191,17.430 14.000 L 17.603 13.923 17.636 14.012 C 17.654 14.060,17.782 14.426,17.919 14.824 C 18.194 15.617,18.334 15.860,18.586 15.981 C 19.027 16.195,19.801 15.911,20.005 15.460 C 20.150 15.143,20.149 15.140,19.364 12.882 C 19.208 12.432,19.080 12.036,19.080 12.002 C 19.080 11.968,19.486 10.788,19.981 9.380 C 20.477 7.972,20.909 6.718,20.941 6.594 C 21.017 6.302,21.016 5.801,20.939 5.498 C 20.819 5.026,20.618 4.692,20.203 4.277 C 19.992 4.067,19.712 3.825,19.581 3.739 C 18.442 2.998,16.843 2.464,14.980 2.202 C 13.855 2.044,11.822 1.967,10.700 2.040 M6.620 9.270 C 6.862 9.345,7.330 9.468,7.659 9.543 L 8.258 9.679 9.919 11.343 L 11.580 13.008 11.120 12.982 C 9.442 12.887,7.902 12.531,7.234 12.082 C 7.044 11.955,7.017 11.918,6.977 11.739 C 6.953 11.629,6.911 11.497,6.884 11.447 C 6.841 11.367,6.040 9.126,6.040 9.087 C 6.040 9.078,6.072 9.085,6.110 9.102 C 6.149 9.118,6.378 9.194,6.620 9.270 M7.440 14.359 C 8.193 14.610,9.181 14.812,10.180 14.920 C 10.738 14.981,12.573 15.013,13.089 14.972 L 13.518 14.938 15.580 17.000 L 17.642 19.063 17.231 19.210 C 13.862 20.422,8.348 20.211,5.807 18.772 C 5.434 18.561,5.058 18.225,5.018 18.067 C 4.999 17.989,5.165 17.462,5.661 16.031 C 6.030 14.969,6.346 14.060,6.364 14.012 C 6.397 13.924,6.397 13.924,6.728 14.078 C 6.911 14.163,7.231 14.289,7.440 14.359 " stroke="none" fill="black" fill-rule="evenodd"></path></svg>