<svg xmlns="http://www.w3.org/2000/svg" width="24" height="24" viewBox="0 0 24 24" fill="none" stroke="currentColor" stroke-width="2" stroke-linecap="round" stroke-linejoin="round" class="icon icon-tabler icons-tabler-outline icon-tabler-keyboard-show"><path d="M3.499 2.043 C 2.380 2.232,1.461 3.048,1.114 4.160 L 1.020 4.460 1.020 9.000 L 1.020 13.540 1.114 13.840 C 1.422 14.827,2.173 15.578,3.160 15.886 L 3.460 15.980 12.020 15.980 L 20.580 15.980 20.887 15.875 C 21.861 15.543,22.585 14.807,22.886 13.840 L 22.980 13.540 22.980 9.000 L 22.980 4.460 22.886 4.160 C 22.581 3.182,21.832 2.428,20.861 2.121 L 20.540 2.020 12.120 2.014 C 7.489 2.011,3.609 2.024,3.499 2.043 M20.310 4.061 C 20.589 4.144,20.856 4.411,20.939 4.690 C 20.992 4.867,21.000 5.441,21.000 9.001 C 21.000 13.458,21.007 13.319,20.779 13.618 C 20.718 13.698,20.585 13.813,20.484 13.872 L 20.300 13.980 12.000 13.980 L 3.700 13.980 3.516 13.872 C 3.303 13.747,3.141 13.550,3.058 13.316 C 2.969 13.062,2.971 4.992,3.061 4.690 C 3.140 4.421,3.412 4.143,3.673 4.063 C 3.833 4.014,5.030 4.005,11.983 4.003 C 19.144 4.000,20.130 4.007,20.310 4.061 M5.614 6.057 C 5.221 6.180,5.039 6.435,5.009 6.906 C 4.962 7.621,5.306 8.000,6.000 8.000 C 6.698 8.000,7.043 7.616,6.989 6.900 C 6.963 6.563,6.859 6.327,6.678 6.199 C 6.414 6.010,5.957 5.950,5.614 6.057 M9.614 6.057 C 9.221 6.180,9.039 6.435,9.009 6.906 C 8.962 7.621,9.306 8.000,10.000 8.000 C 10.698 8.000,11.043 7.616,10.989 6.900 C 10.963 6.563,10.859 6.327,10.678 6.199 C 10.414 6.010,9.957 5.950,9.614 6.057 M13.614 6.057 C 13.221 6.180,13.039 6.435,13.009 6.906 C 12.962 7.621,13.306 8.000,14.000 8.000 C 14.698 8.000,15.043 7.616,14.989 6.900 C 14.963 6.563,14.859 6.327,14.678 6.199 C 14.414 6.010,13.957 5.950,13.614 6.057 M17.614 6.057 C 17.221 6.180,17.039 6.435,17.009 6.906 C 16.962 7.621,17.306 8.000,18.000 8.000 C 18.698 8.000,19.043 7.616,18.989 6.900 C 18.963 6.563,18.859 6.327,18.678 6.199 C 18.414 6.010,17.957 5.950,17.614 6.057 M5.614 10.057 C 5.221 10.180,5.039 10.435,5.009 10.906 C 4.962 11.621,5.306 12.000,6.000 12.000 C 6.698 12.000,7.043 11.616,6.989 10.900 C 6.963 10.563,6.859 10.327,6.678 10.199 C 6.414 10.010,5.957 9.950,5.614 10.057 M9.614 10.057 C 9.377 10.131,9.212 10.261,9.109 10.453 C 9.035 10.592,9.020 10.684,9.020 11.000 C 9.020 11.331,9.033 11.403,9.120 11.558 C 9.230 11.755,9.414 11.898,9.635 11.959 C 9.831 12.014,14.169 12.014,14.365 11.959 C 14.586 11.898,14.770 11.755,14.880 11.558 C 14.967 11.402,14.980 11.332,14.979 11.000 C 14.978 10.567,14.898 10.355,14.678 10.199 C 14.406 10.005,14.336 10.000,11.984 10.003 C 10.293 10.005,9.741 10.017,9.614 10.057 M17.614 10.057 C 17.221 10.180,17.039 10.435,17.009 10.906 C 16.962 11.621,17.306 12.000,18.000 12.000 C 18.698 12.000,19.043 11.616,18.989 10.900 C 18.963 10.563,18.859 10.327,18.678 10.199 C 18.414 10.010,17.957 9.950,17.614 10.057 M9.626 18.045 C 9.257 18.239,8.951 18.673,8.951 19.000 C 8.951 19.334,9.057 19.468,10.294 20.706 C 11.532 21.943,11.666 22.049,12.000 22.049 C 12.111 22.049,12.256 22.014,12.363 21.960 C 12.607 21.838,14.838 19.607,14.960 19.363 C 15.137 19.010,15.048 18.646,14.701 18.299 C 14.360 17.958,13.979 17.868,13.628 18.045 C 13.533 18.094,13.144 18.444,12.730 18.853 L 12.000 19.575 11.270 18.853 C 10.856 18.444,10.467 18.094,10.372 18.045 C 10.152 17.934,9.836 17.934,9.626 18.045 " stroke="none" fill="black" fill-rule="evenodd"></path></svg>