<svg xmlns="http://www.w3.org/2000/svg" width="24" height="24" viewBox="0 0 24 24" fill="none" stroke="currentColor" stroke-width="2" stroke-linecap="round" stroke-linejoin="round" class="icon icon-tabler icons-tabler-outline icon-tabler-sparkles"><path d="M17.614 3.057 C 17.219 3.181,17.054 3.417,17.000 3.934 C 16.961 4.310,16.921 4.431,16.774 4.625 C 16.599 4.853,16.374 4.959,15.976 5.000 C 15.284 5.072,15.000 5.362,15.000 6.000 C 15.000 6.630,15.282 6.932,15.933 6.999 C 16.340 7.041,16.503 7.105,16.699 7.301 C 16.895 7.497,16.959 7.660,17.001 8.067 C 17.068 8.718,17.370 9.000,18.000 9.000 C 18.630 9.000,18.922 8.728,18.996 8.072 C 19.044 7.653,19.106 7.497,19.301 7.301 C 19.497 7.106,19.660 7.041,20.063 7.000 C 20.530 6.952,20.736 6.838,20.893 6.540 C 21.017 6.305,21.016 5.691,20.890 5.453 C 20.737 5.164,20.521 5.052,20.007 4.999 C 19.627 4.959,19.398 4.849,19.226 4.625 C 19.076 4.428,19.036 4.306,18.996 3.929 C 18.956 3.552,18.858 3.327,18.678 3.199 C 18.414 3.010,17.957 2.950,17.614 3.057 M8.614 5.057 C 8.179 5.193,8.044 5.416,7.996 6.078 C 7.951 6.706,7.926 6.890,7.838 7.240 C 7.493 8.615,6.496 9.844,5.212 10.476 C 4.562 10.796,3.963 10.947,3.151 10.997 C 2.570 11.033,2.330 11.121,2.170 11.358 C 1.938 11.703,1.939 12.298,2.172 12.645 C 2.331 12.880,2.543 12.965,3.073 13.003 C 3.707 13.049,3.890 13.074,4.240 13.163 C 5.979 13.601,7.399 15.021,7.837 16.760 C 7.926 17.110,7.951 17.293,7.997 17.927 C 8.024 18.301,8.049 18.428,8.125 18.565 C 8.286 18.856,8.575 19.000,9.000 19.000 C 9.572 19.000,9.927 18.716,9.977 18.220 C 9.988 18.110,10.016 17.804,10.040 17.540 C 10.064 17.276,10.118 16.925,10.161 16.760 C 10.613 15.009,12.015 13.607,13.760 13.162 C 14.077 13.081,14.708 13.000,15.028 13.000 C 15.427 12.999,15.717 12.849,15.880 12.558 C 15.967 12.402,15.980 12.332,15.979 12.000 C 15.978 11.687,15.962 11.591,15.890 11.453 C 15.720 11.132,15.512 11.042,14.840 10.998 C 14.031 10.946,13.433 10.793,12.785 10.474 C 11.500 9.842,10.512 8.624,10.163 7.240 C 10.076 6.898,10.053 6.728,10.001 6.073 C 9.960 5.550,9.885 5.346,9.678 5.199 C 9.414 5.010,8.957 4.950,8.614 5.057 M9.116 9.783 C 9.524 10.475,10.441 11.382,11.304 11.950 C 11.379 11.999,11.379 12.001,11.304 12.050 C 10.423 12.630,9.630 13.423,9.050 14.304 C 9.001 14.379,8.999 14.379,8.950 14.304 C 8.370 13.423,7.577 12.630,6.696 12.050 C 6.621 12.001,6.621 11.999,6.696 11.950 C 7.559 11.382,8.476 10.475,8.884 9.783 C 8.930 9.704,8.982 9.640,9.000 9.640 C 9.018 9.640,9.070 9.704,9.116 9.783 M17.614 15.057 C 17.219 15.181,17.054 15.417,17.000 15.934 C 16.961 16.310,16.921 16.431,16.774 16.625 C 16.599 16.853,16.374 16.959,15.976 17.000 C 15.284 17.072,15.000 17.362,15.000 18.000 C 15.000 18.630,15.282 18.932,15.933 18.999 C 16.340 19.041,16.503 19.105,16.699 19.301 C 16.895 19.497,16.959 19.660,17.001 20.067 C 17.068 20.718,17.370 21.000,18.000 21.000 C 18.630 21.000,18.922 20.728,18.996 20.072 C 19.044 19.653,19.106 19.497,19.301 19.301 C 19.497 19.106,19.660 19.041,20.063 19.000 C 20.530 18.952,20.736 18.838,20.893 18.540 C 21.017 18.305,21.016 17.691,20.890 17.453 C 20.737 17.164,20.521 17.052,20.007 16.999 C 19.627 16.959,19.398 16.849,19.226 16.625 C 19.076 16.428,19.036 16.306,18.996 15.929 C 18.956 15.552,18.858 15.327,18.678 15.199 C 18.414 15.010,17.957 14.950,17.614 15.057 " stroke="none" fill="black" fill-rule="evenodd"></path></svg>