<svg xmlns="http://www.w3.org/2000/svg" width="24" height="24" viewBox="0 0 24 24" fill="none" stroke="currentColor" stroke-width="2" stroke-linecap="round" stroke-linejoin="round" class="icon icon-tabler icons-tabler-outline icon-tabler-select-all"><path d="M3.614 3.057 C 3.221 3.180,3.039 3.435,3.009 3.906 C 2.962 4.621,3.306 5.000,4.000 5.000 C 4.698 5.000,5.043 4.616,4.989 3.900 C 4.963 3.563,4.859 3.327,4.678 3.199 C 4.414 3.010,3.957 2.950,3.614 3.057 M7.614 3.057 C 7.221 3.180,7.039 3.435,7.009 3.906 C 6.962 4.621,7.306 5.000,8.000 5.000 C 8.698 5.000,9.043 4.616,8.989 3.900 C 8.963 3.563,8.859 3.327,8.678 3.199 C 8.414 3.010,7.957 2.950,7.614 3.057 M11.614 3.057 C 11.221 3.180,11.039 3.435,11.009 3.906 C 10.962 4.621,11.306 5.000,12.000 5.000 C 12.698 5.000,13.043 4.616,12.989 3.900 C 12.963 3.563,12.859 3.327,12.678 3.199 C 12.414 3.010,11.957 2.950,11.614 3.057 M15.614 3.057 C 15.221 3.180,15.039 3.435,15.009 3.906 C 14.962 4.621,15.306 5.000,16.000 5.000 C 16.698 5.000,17.043 4.616,16.989 3.900 C 16.963 3.563,16.859 3.327,16.678 3.199 C 16.414 3.010,15.957 2.950,15.614 3.057 M19.614 3.057 C 19.221 3.180,19.039 3.435,19.009 3.906 C 18.962 4.621,19.306 5.000,20.000 5.000 C 20.698 5.000,21.043 4.616,20.989 3.900 C 20.963 3.563,20.859 3.327,20.678 3.199 C 20.414 3.010,19.957 2.950,19.614 3.057 M3.614 7.057 C 3.221 7.180,3.039 7.435,3.009 7.906 C 2.962 8.621,3.306 9.000,4.000 9.000 C 4.698 9.000,5.043 8.616,4.989 7.900 C 4.963 7.563,4.859 7.327,4.678 7.199 C 4.414 7.010,3.957 6.950,3.614 7.057 M8.477 7.073 C 7.806 7.249,7.238 7.823,7.060 8.508 C 7.009 8.702,7.000 9.237,7.000 12.000 C 7.000 15.547,6.996 15.478,7.225 15.930 C 7.361 16.199,7.801 16.639,8.070 16.775 C 8.522 17.004,8.454 17.000,11.993 17.000 C 15.539 17.000,15.479 17.003,15.937 16.771 C 16.197 16.639,16.639 16.197,16.771 15.937 C 17.003 15.479,17.000 15.537,16.999 12.014 C 16.999 8.515,16.999 8.511,16.781 8.083 C 16.646 7.816,16.297 7.449,16.017 7.281 C 15.548 6.999,15.636 7.005,12.000 7.005 C 9.047 7.005,8.715 7.011,8.477 7.073 M19.614 7.057 C 19.221 7.180,19.039 7.435,19.009 7.906 C 18.962 8.621,19.306 9.000,20.000 9.000 C 20.698 9.000,21.043 8.616,20.989 7.900 C 20.963 7.563,20.859 7.327,20.678 7.199 C 20.414 7.010,19.957 6.950,19.614 7.057 M15.000 12.000 L 15.000 15.000 12.000 15.000 L 9.000 15.000 9.000 12.000 L 9.000 9.000 12.000 9.000 L 15.000 9.000 15.000 12.000 M3.614 11.057 C 3.221 11.180,3.039 11.435,3.009 11.906 C 2.962 12.621,3.306 13.000,4.000 13.000 C 4.698 13.000,5.043 12.616,4.989 11.900 C 4.963 11.563,4.859 11.327,4.678 11.199 C 4.414 11.010,3.957 10.950,3.614 11.057 M19.614 11.057 C 19.221 11.180,19.039 11.435,19.009 11.906 C 18.962 12.621,19.306 13.000,20.000 13.000 C 20.698 13.000,21.043 12.616,20.989 11.900 C 20.963 11.563,20.859 11.327,20.678 11.199 C 20.414 11.010,19.957 10.950,19.614 11.057 M3.614 15.057 C 3.221 15.180,3.039 15.435,3.009 15.906 C 2.962 16.621,3.306 17.000,4.000 17.000 C 4.698 17.000,5.043 16.616,4.989 15.900 C 4.963 15.563,4.859 15.327,4.678 15.199 C 4.414 15.010,3.957 14.950,3.614 15.057 M19.614 15.057 C 19.221 15.180,19.039 15.435,19.009 15.906 C 18.962 16.621,19.306 17.000,20.000 17.000 C 20.698 17.000,21.043 16.616,20.989 15.900 C 20.963 15.563,20.859 15.327,20.678 15.199 C 20.414 15.010,19.957 14.950,19.614 15.057 M3.614 19.057 C 3.221 19.180,3.039 19.435,3.009 19.906 C 2.962 20.621,3.306 21.000,4.000 21.000 C 4.698 21.000,5.043 20.616,4.989 19.900 C 4.963 19.563,4.859 19.327,4.678 19.199 C 4.414 19.010,3.957 18.950,3.614 19.057 M7.614 19.057 C 7.221 19.180,7.039 19.435,7.009 19.906 C 6.962 20.621,7.306 21.000,8.000 21.000 C 8.698 21.000,9.043 20.616,8.989 19.900 C 8.963 19.563,8.859 19.327,8.678 19.199 C 8.414 19.010,7.957 18.950,7.614 19.057 M11.614 19.057 C 11.221 19.180,11.039 19.435,11.009 19.906 C 10.962 20.621,11.306 21.000,12.000 21.000 C 12.698 21.000,13.043 20.616,12.989 19.900 C 12.963 19.563,12.859 19.327,12.678 19.199 C 12.414 19.010,11.957 18.950,11.614 19.057 M15.614 19.057 C 15.221 19.180,15.039 19.435,15.009 19.906 C 14.962 20.621,15.306 21.000,16.000 21.000 C 16.698 21.000,17.043 20.616,16.989 19.900 C 16.963 19.563,16.859 19.327,16.678 19.199 C 16.414 19.010,15.957 18.950,15.614 19.057 M19.614 19.057 C 19.221 19.180,19.039 19.435,19.009 19.906 C 18.962 20.621,19.306 21.000,20.000 21.000 C 20.698 21.000,21.043 20.616,20.989 19.900 C 20.963 19.563,20.859 19.327,20.678 19.199 C 20.414 19.010,19.957 18.950,19.614 19.057 " stroke="none" fill="black" fill-rule="evenodd"></path></svg>