<svg xmlns="http://www.w3.org/2000/svg" width="24" height="24" viewBox="0 0 24 24" fill="none" stroke="currentColor" stroke-width="2" stroke-linecap="round" stroke-linejoin="round" class="icon icon-tabler icons-tabler-outline icon-tabler-waves-electricity"><path d="M19.597 6.039 C 19.518 6.081,19.391 6.185,19.313 6.271 C 19.138 6.464,16.134 11.463,16.033 11.728 C 15.884 12.122,15.953 12.399,16.274 12.687 C 16.608 12.987,16.679 13.000,18.027 13.000 C 18.672 13.000,19.200 13.011,19.200 13.024 C 19.200 13.037,18.729 13.832,18.153 14.791 C 17.578 15.750,17.074 16.622,17.033 16.728 C 16.888 17.111,16.953 17.394,17.250 17.667 C 17.495 17.892,17.728 18.005,18.000 18.029 C 18.256 18.053,18.414 17.992,18.633 17.786 C 18.786 17.641,21.884 12.500,21.960 12.264 C 22.026 12.059,21.988 11.651,21.883 11.445 C 21.838 11.358,21.746 11.247,21.678 11.199 C 21.426 11.019,21.264 11.000,19.975 11.000 L 18.764 11.000 19.828 9.230 C 20.413 8.256,20.925 7.374,20.966 7.270 C 21.117 6.880,21.047 6.602,20.724 6.311 C 20.367 5.990,19.902 5.878,19.597 6.039 M4.820 6.045 C 3.880 6.163,2.800 6.703,2.265 7.324 C 1.841 7.816,1.839 8.231,2.259 8.661 C 2.604 9.014,2.985 9.131,3.327 8.988 C 3.404 8.956,3.582 8.822,3.723 8.691 C 4.052 8.385,4.245 8.266,4.629 8.131 C 4.910 8.033,4.994 8.023,5.500 8.023 C 6.006 8.023,6.090 8.033,6.371 8.131 C 6.778 8.274,6.950 8.386,7.363 8.778 C 7.552 8.957,7.809 9.171,7.933 9.254 C 9.617 10.372,12.051 10.220,13.502 8.907 C 14.144 8.326,14.222 7.831,13.749 7.348 C 13.493 7.088,13.241 6.960,12.983 6.960 C 12.725 6.960,12.571 7.041,12.216 7.363 C 11.872 7.676,11.632 7.805,11.184 7.919 C 10.581 8.073,9.830 8.000,9.287 7.735 C 9.166 7.676,8.909 7.477,8.697 7.277 C 8.255 6.861,7.959 6.653,7.508 6.439 C 6.727 6.067,5.767 5.927,4.820 6.045 M4.820 10.045 C 3.880 10.163,2.800 10.703,2.265 11.324 C 1.841 11.816,1.839 12.231,2.259 12.661 C 2.604 13.014,2.985 13.131,3.327 12.988 C 3.404 12.956,3.582 12.822,3.723 12.691 C 4.052 12.385,4.245 12.266,4.629 12.131 C 4.910 12.033,4.994 12.023,5.500 12.023 C 6.006 12.023,6.090 12.033,6.371 12.131 C 6.778 12.274,6.950 12.386,7.363 12.778 C 7.552 12.957,7.809 13.171,7.933 13.254 C 9.617 14.372,12.051 14.220,13.502 12.907 C 14.144 12.326,14.222 11.831,13.749 11.348 C 13.493 11.088,13.241 10.960,12.983 10.960 C 12.725 10.960,12.571 11.041,12.216 11.363 C 11.872 11.676,11.632 11.805,11.184 11.919 C 10.581 12.073,9.830 12.000,9.287 11.735 C 9.166 11.676,8.909 11.477,8.697 11.277 C 8.255 10.861,7.959 10.653,7.508 10.439 C 6.727 10.067,5.767 9.927,4.820 10.045 M4.820 14.045 C 3.880 14.163,2.800 14.703,2.265 15.324 C 1.841 15.816,1.839 16.231,2.259 16.661 C 2.604 17.014,2.985 17.131,3.327 16.988 C 3.404 16.956,3.582 16.822,3.723 16.691 C 4.052 16.385,4.245 16.266,4.629 16.131 C 4.910 16.033,4.994 16.023,5.500 16.023 C 6.006 16.023,6.090 16.033,6.371 16.131 C 6.778 16.274,6.950 16.386,7.363 16.778 C 7.552 16.957,7.809 17.171,7.933 17.254 C 9.617 18.372,12.051 18.220,13.502 16.907 C 14.144 16.326,14.222 15.831,13.749 15.348 C 13.493 15.088,13.241 14.960,12.983 14.960 C 12.725 14.960,12.571 15.041,12.216 15.363 C 11.872 15.676,11.632 15.805,11.184 15.919 C 10.581 16.073,9.830 16.000,9.287 15.735 C 9.166 15.676,8.909 15.477,8.697 15.277 C 8.255 14.861,7.959 14.653,7.508 14.439 C 6.727 14.067,5.767 13.927,4.820 14.045 " stroke="none" fill="black" fill-rule="evenodd"></path></svg>