<svg xmlns="http://www.w3.org/2000/svg" width="24" height="24" viewBox="0 0 24 24" fill="none" stroke="currentColor" stroke-width="2" stroke-linecap="round" stroke-linejoin="round" class="icon icon-tabler icons-tabler-outline icon-tabler-car-fan-1"><path d="M11.614 2.055 C 11.375 2.133,11.211 2.262,11.109 2.453 L 11.020 2.620 11.009 5.852 L 10.998 9.085 9.789 7.533 C 9.124 6.680,8.478 5.882,8.353 5.760 C 7.474 4.900,6.084 4.769,5.034 5.447 C 4.691 5.668,4.331 6.051,4.153 6.385 C 4.072 6.536,3.560 7.803,3.016 9.200 C 2.264 11.129,2.022 11.793,2.009 11.960 C 1.977 12.376,2.132 12.707,2.442 12.880 L 2.620 12.980 5.843 13.000 L 9.067 13.020 7.548 14.200 C 6.712 14.849,5.919 15.490,5.784 15.623 C 5.488 15.918,5.274 16.272,5.132 16.700 C 5.040 16.976,5.025 17.085,5.026 17.500 C 5.027 17.909,5.043 18.028,5.133 18.300 C 5.191 18.476,5.306 18.736,5.389 18.878 C 5.597 19.233,6.041 19.666,6.383 19.847 C 6.535 19.928,7.803 20.440,9.200 20.984 C 11.127 21.735,11.793 21.978,11.960 21.991 C 12.376 22.023,12.707 21.868,12.880 21.558 L 12.980 21.380 13.000 18.128 L 13.020 14.876 13.400 15.347 C 13.854 15.909,14.031 16.046,14.333 16.071 C 14.614 16.094,14.849 15.992,15.138 15.718 C 15.402 15.469,15.502 15.242,15.466 14.979 C 15.429 14.710,15.365 14.609,14.694 13.770 L 14.079 13.000 16.149 13.000 C 17.413 13.000,18.276 12.984,18.365 12.959 C 18.586 12.898,18.770 12.755,18.880 12.558 C 18.967 12.402,18.980 12.332,18.979 12.000 C 18.978 11.567,18.898 11.355,18.678 11.199 C 18.415 11.011,18.293 11.000,16.550 11.000 L 14.912 11.000 16.465 9.790 C 17.320 9.125,18.118 8.479,18.239 8.356 C 18.515 8.076,18.731 7.714,18.868 7.300 C 18.960 7.024,18.975 6.915,18.974 6.500 C 18.973 6.092,18.957 5.972,18.868 5.700 C 18.637 4.996,18.151 4.420,17.517 4.098 C 17.415 4.047,16.191 3.560,14.796 3.017 C 12.072 1.956,11.991 1.932,11.614 2.055 M14.889 5.200 C 15.836 5.570,16.659 5.907,16.716 5.949 C 16.848 6.045,17.000 6.340,17.000 6.500 C 17.000 6.568,16.960 6.703,16.910 6.801 C 16.833 6.953,16.550 7.190,14.940 8.447 C 13.906 9.255,13.047 9.917,13.030 9.918 C 13.013 9.919,13.000 8.695,13.000 7.197 L 13.000 4.475 13.083 4.501 C 13.128 4.515,13.941 4.830,14.889 5.200 M6.800 7.090 C 6.952 7.167,7.191 7.453,8.446 9.060 C 9.254 10.094,9.916 10.954,9.917 10.970 C 9.919 10.987,8.696 11.000,7.200 11.000 C 5.704 11.000,4.480 10.991,4.480 10.980 C 4.480 10.940,5.811 7.538,5.881 7.400 C 5.967 7.228,6.060 7.142,6.241 7.063 C 6.437 6.978,6.595 6.986,6.800 7.090 M19.620 14.046 C 19.390 14.165,17.153 16.411,17.040 16.637 C 16.863 16.990,16.952 17.354,17.299 17.701 C 17.641 18.043,18.013 18.137,18.349 17.965 C 18.440 17.919,18.623 17.780,18.757 17.656 L 19.000 17.431 19.000 19.326 C 19.000 20.471,19.016 21.277,19.041 21.365 C 19.148 21.750,19.437 21.962,19.896 21.991 C 20.381 22.022,20.699 21.882,20.880 21.558 L 20.980 21.380 20.980 18.040 L 20.980 14.700 20.871 14.514 C 20.758 14.323,20.558 14.141,20.332 14.025 C 20.153 13.934,19.818 13.944,19.620 14.046 M11.000 16.800 C 11.000 18.296,10.990 19.520,10.977 19.520 C 10.887 19.520,7.392 18.127,7.286 18.048 C 7.135 17.937,7.002 17.681,7.001 17.498 C 7.000 17.432,7.040 17.297,7.090 17.199 C 7.167 17.047,7.450 16.811,9.060 15.553 C 10.094 14.746,10.954 14.084,10.970 14.083 C 10.987 14.081,11.000 15.304,11.000 16.800 " stroke="none" fill="black" fill-rule="evenodd"></path></svg>