<svg xmlns="http://www.w3.org/2000/svg" width="24" height="24" viewBox="0 0 24 24" fill="none" stroke="currentColor" stroke-width="2" stroke-linecap="round" stroke-linejoin="round" class="icon icon-tabler icons-tabler-outline icon-tabler-cylinder-plus"><path d="M11.040 2.023 C 9.472 2.155,8.824 2.261,7.840 2.545 C 5.831 3.126,4.482 4.122,4.109 5.300 L 4.020 5.580 4.020 12.000 L 4.020 18.420 4.109 18.700 C 4.473 19.850,5.758 20.822,7.699 21.416 C 9.004 21.815,10.615 22.024,12.143 21.994 C 12.811 21.980,12.831 21.977,13.061 21.860 C 13.250 21.763,13.314 21.704,13.392 21.552 C 13.521 21.302,13.551 20.927,13.466 20.633 C 13.386 20.361,13.281 20.223,13.066 20.111 C 12.912 20.030,12.821 20.022,11.820 19.995 C 10.679 19.965,10.006 19.899,9.220 19.740 C 7.982 19.490,6.846 19.010,6.335 18.520 C 5.964 18.166,6.000 18.713,6.000 13.409 L 6.000 8.719 6.279 8.860 C 9.302 10.382,14.698 10.382,17.721 8.860 L 18.000 8.719 18.000 10.469 C 18.000 11.519,18.017 12.278,18.041 12.365 C 18.148 12.750,18.437 12.962,18.896 12.991 C 19.381 13.022,19.699 12.882,19.880 12.558 L 19.980 12.380 19.980 8.980 L 19.980 5.580 19.891 5.300 C 19.376 3.674,17.078 2.461,13.820 2.096 C 13.327 2.040,11.425 1.991,11.040 2.023 M13.726 4.097 C 15.793 4.346,17.495 5.039,17.949 5.817 C 18.064 6.014,17.982 6.216,17.665 6.520 C 17.008 7.149,15.542 7.672,13.780 7.906 C 13.042 8.004,10.958 8.004,10.220 7.906 C 8.458 7.672,6.992 7.149,6.335 6.520 C 6.018 6.216,5.936 6.014,6.051 5.817 C 6.219 5.529,6.610 5.216,7.113 4.965 C 8.178 4.434,9.349 4.158,11.100 4.024 C 11.524 3.991,13.244 4.040,13.726 4.097 M18.614 15.057 C 18.377 15.131,18.212 15.261,18.109 15.453 C 18.024 15.613,18.020 15.668,18.008 16.810 L 17.996 18.000 16.904 18.000 C 15.744 18.000,15.570 18.022,15.322 18.199 C 15.100 18.357,15.020 18.568,15.020 19.000 C 15.020 19.331,15.033 19.403,15.120 19.558 C 15.230 19.755,15.414 19.898,15.635 19.959 C 15.716 19.982,16.270 20.000,16.890 20.000 L 18.000 20.000 18.000 21.110 C 18.000 21.730,18.018 22.284,18.041 22.365 C 18.148 22.750,18.437 22.962,18.896 22.991 C 19.381 23.022,19.699 22.882,19.880 22.558 C 19.979 22.381,19.980 22.374,19.993 21.190 L 20.005 20.000 21.113 20.000 C 21.731 20.000,22.284 19.982,22.365 19.959 C 22.586 19.898,22.770 19.755,22.880 19.558 C 22.967 19.402,22.980 19.332,22.979 19.000 C 22.978 18.567,22.898 18.355,22.678 18.199 C 22.430 18.022,22.256 18.000,21.096 18.000 L 20.005 18.000 19.993 16.810 C 19.981 15.669,19.976 15.613,19.891 15.453 C 19.842 15.362,19.746 15.247,19.678 15.199 C 19.414 15.010,18.957 14.950,18.614 15.057 " stroke="none" fill="black" fill-rule="evenodd"></path></svg>