<svg xmlns="http://www.w3.org/2000/svg" width="24" height="24" viewBox="0 0 24 24" fill="none" stroke="currentColor" stroke-width="2" stroke-linecap="round" stroke-linejoin="round" class="icon icon-tabler icons-tabler-outline icon-tabler-radius-bottom-right"><path d="M18.614 4.057 C 18.377 4.131,18.212 4.261,18.109 4.453 L 18.020 4.620 17.996 8.180 C 17.972 11.920,17.969 11.981,17.783 12.720 C 17.169 15.151,15.195 17.144,12.786 17.764 C 11.972 17.974,12.055 17.970,8.239 17.996 L 4.658 18.020 4.459 18.122 C 4.119 18.297,3.978 18.606,4.009 19.104 C 4.038 19.563,4.250 19.852,4.635 19.959 C 4.727 19.985,6.013 20.000,8.140 20.000 C 11.719 20.000,12.025 19.987,12.908 19.797 C 13.897 19.584,15.082 19.086,15.920 18.531 C 18.227 17.005,19.693 14.575,19.960 11.840 C 19.990 11.529,20.001 10.284,19.992 8.000 L 19.980 4.620 19.891 4.453 C 19.842 4.362,19.746 4.247,19.678 4.199 C 19.414 4.010,18.957 3.950,18.614 4.057 " stroke="none" fill="black" fill-rule="evenodd"></path></svg>