<svg xmlns="http://www.w3.org/2000/svg" width="24" height="24" viewBox="0 0 24 24" fill="none" stroke="currentColor" stroke-width="2" stroke-linecap="round" stroke-linejoin="round" class="icon icon-tabler icons-tabler-outline icon-tabler-world-check"><path d="M11.167 2.005 C 11.124 2.021,10.885 2.063,10.635 2.100 C 8.793 2.367,7.192 3.052,5.784 4.177 C 3.768 5.787,2.529 7.937,2.093 10.580 C 2.004 11.123,1.991 12.791,2.073 13.300 C 2.545 16.241,3.926 18.513,6.260 20.184 C 7.432 21.023,8.923 21.632,10.360 21.858 C 10.591 21.895,10.870 21.943,10.980 21.966 C 11.368 22.047,11.551 22.049,11.768 21.979 C 12.067 21.882,12.206 21.789,12.347 21.591 C 12.550 21.310,12.583 21.138,12.501 20.803 C 12.462 20.647,12.389 20.460,12.337 20.389 C 12.121 20.094,12.021 19.927,11.759 19.426 C 11.251 18.454,10.884 17.550,10.583 16.534 C 10.504 16.269,10.440 16.041,10.440 16.026 C 10.440 16.012,12.075 16.000,14.073 16.000 C 18.087 16.000,17.982 16.006,18.229 15.751 C 18.418 15.556,18.486 15.355,18.486 14.997 C 18.486 14.491,18.303 14.196,17.909 14.064 C 17.756 14.013,17.537 14.000,16.835 14.000 L 15.954 14.000 15.977 13.890 C 16.025 13.664,16.079 12.636,16.079 11.960 C 16.079 11.330,16.037 10.556,15.980 10.150 L 15.959 10.000 17.856 10.000 L 19.752 10.000 19.815 10.290 C 19.968 10.989,20.008 11.678,19.965 12.880 C 19.949 13.330,19.997 13.526,20.166 13.706 C 20.368 13.922,20.968 14.056,21.312 13.962 C 21.547 13.899,21.778 13.681,21.859 13.448 C 21.959 13.160,22.012 12.379,21.986 11.600 C 21.925 9.775,21.371 8.063,20.331 6.480 C 19.435 5.117,18.303 4.074,16.820 3.247 C 15.349 2.427,13.735 2.003,12.012 1.985 C 11.589 1.981,11.209 1.990,11.167 2.005 M12.332 4.750 C 12.796 5.661,13.207 6.697,13.438 7.541 C 13.486 7.717,13.534 7.891,13.545 7.930 C 13.564 7.996,13.472 8.000,12.003 8.000 C 11.143 8.000,10.440 7.987,10.440 7.970 C 10.440 7.909,10.759 6.887,10.896 6.508 C 11.170 5.751,11.918 4.160,12.000 4.160 C 12.017 4.160,12.166 4.426,12.332 4.750 M9.356 4.964 C 9.079 5.618,8.615 6.993,8.480 7.560 C 8.430 7.769,8.377 7.954,8.362 7.970 C 8.347 7.987,7.601 7.996,6.704 7.990 L 5.073 7.980 5.322 7.600 C 6.069 6.460,7.142 5.505,8.400 4.862 C 8.783 4.666,9.560 4.350,9.590 4.378 C 9.596 4.383,9.491 4.647,9.356 4.964 M15.347 4.741 C 16.737 5.388,17.876 6.370,18.688 7.620 L 18.922 7.980 17.293 7.990 C 16.398 7.996,15.653 7.987,15.639 7.970 C 15.625 7.954,15.553 7.706,15.480 7.420 C 15.308 6.745,14.942 5.672,14.640 4.957 C 14.508 4.644,14.400 4.383,14.400 4.375 C 14.400 4.347,14.995 4.577,15.347 4.741 M8.021 10.090 C 7.981 10.271,7.920 11.422,7.920 12.000 C 7.920 12.578,7.981 13.729,8.021 13.910 L 8.042 14.000 6.147 14.000 L 4.252 14.000 4.186 13.690 C 4.048 13.034,4.022 12.761,4.023 11.960 C 4.025 11.167,4.039 11.019,4.187 10.310 L 4.252 10.000 6.147 10.000 L 8.042 10.000 8.021 10.090 M13.973 10.190 C 13.986 10.295,14.019 10.761,14.046 11.226 C 14.093 12.032,14.063 13.085,13.973 13.810 L 13.950 14.000 12.000 14.000 L 10.050 14.000 10.027 13.810 C 10.014 13.706,9.982 13.255,9.954 12.810 C 9.907 12.040,9.938 10.918,10.027 10.190 L 10.050 10.000 12.000 10.000 L 13.950 10.000 13.973 10.190 M20.620 16.046 C 20.525 16.095,19.753 16.834,18.731 17.853 L 17.001 19.577 16.271 18.854 C 15.856 18.444,15.467 18.094,15.372 18.045 C 15.021 17.868,14.640 17.958,14.299 18.299 C 13.952 18.646,13.863 19.010,14.040 19.363 C 14.162 19.607,16.393 21.838,16.637 21.960 C 16.868 22.076,17.132 22.076,17.363 21.961 C 17.486 21.899,18.197 21.215,19.706 19.706 C 21.215 18.197,21.899 17.486,21.961 17.363 C 22.137 17.010,22.048 16.645,21.701 16.299 C 21.361 15.959,20.967 15.867,20.620 16.046 M8.507 16.540 C 8.687 17.240,9.060 18.333,9.357 19.036 C 9.490 19.352,9.600 19.617,9.600 19.623 C 9.600 19.661,8.951 19.405,8.532 19.202 C 7.168 18.543,5.895 17.392,5.166 16.159 L 5.071 15.999 6.722 16.010 L 8.373 16.020 8.507 16.540 " stroke="none" fill="black" fill-rule="evenodd"></path></svg>