<svg xmlns="http://www.w3.org/2000/svg" width="24" height="24" viewBox="0 0 24 24" fill="none" stroke="currentColor" stroke-width="2" stroke-linecap="round" stroke-linejoin="round" class="icon icon-tabler icons-tabler-outline icon-tabler-database-cog"><path d="M10.920 2.023 C 8.675 2.170,7.174 2.468,5.740 3.051 C 4.888 3.397,4.317 3.758,3.797 4.277 C 3.497 4.577,3.383 4.725,3.268 4.960 C 2.981 5.546,3.000 5.057,3.000 12.000 C 3.000 18.943,2.981 18.454,3.268 19.040 C 3.533 19.583,4.306 20.270,5.104 20.672 C 6.077 21.161,7.592 21.600,9.000 21.801 C 10.095 21.957,12.030 22.052,12.344 21.965 C 12.584 21.899,12.767 21.761,12.880 21.558 C 12.967 21.402,12.980 21.332,12.979 21.000 C 12.978 20.552,12.893 20.342,12.649 20.182 C 12.428 20.038,12.225 20.007,11.320 19.982 C 9.649 19.937,8.230 19.707,6.970 19.276 C 6.077 18.971,5.327 18.542,5.098 18.206 L 5.000 18.061 5.000 16.346 C 5.000 14.990,5.010 14.636,5.050 14.653 C 5.077 14.665,5.285 14.756,5.510 14.855 C 6.729 15.391,8.235 15.745,10.080 15.926 C 10.791 15.996,12.854 15.996,13.051 15.927 C 13.425 15.794,13.616 15.495,13.616 15.040 C 13.616 14.554,13.484 14.267,13.187 14.111 C 13.030 14.028,12.949 14.021,11.780 13.995 C 10.099 13.956,9.081 13.841,7.930 13.558 C 6.578 13.225,5.413 12.669,5.098 12.206 L 5.000 12.061 5.000 10.346 C 5.000 8.990,5.010 8.636,5.050 8.653 C 5.077 8.665,5.285 8.756,5.510 8.855 C 6.726 9.390,8.195 9.735,10.080 9.928 C 10.745 9.996,13.255 9.996,13.920 9.928 C 15.805 9.735,17.274 9.390,18.490 8.855 C 18.715 8.756,18.922 8.665,18.950 8.653 C 18.990 8.636,19.000 8.954,19.000 10.168 C 19.000 11.884,19.014 12.002,19.249 12.229 C 19.442 12.416,19.647 12.487,19.997 12.488 C 20.501 12.490,20.827 12.289,20.941 11.904 C 21.030 11.604,21.029 5.850,20.939 5.498 C 20.819 5.026,20.618 4.692,20.203 4.277 C 19.992 4.067,19.712 3.825,19.581 3.739 C 18.248 2.872,16.465 2.340,14.080 2.098 C 13.533 2.042,11.398 1.992,10.920 2.023 M13.993 4.098 C 15.623 4.269,16.937 4.603,17.940 5.102 C 18.442 5.352,18.824 5.639,18.939 5.853 C 19.018 5.999,19.018 6.001,18.940 6.146 C 18.598 6.780,16.682 7.543,14.740 7.817 C 13.773 7.953,13.353 7.978,12.000 7.978 C 10.647 7.978,10.227 7.953,9.260 7.817 C 7.318 7.543,5.402 6.780,5.060 6.146 C 4.982 6.001,4.982 5.999,5.061 5.853 C 5.313 5.384,6.529 4.787,7.936 4.441 C 8.751 4.240,9.579 4.127,10.980 4.023 C 11.416 3.991,13.453 4.042,13.993 4.098 M18.545 14.579 C 18.320 14.659,18.128 14.863,18.059 15.096 C 18.023 15.217,18.000 15.462,18.000 15.721 L 18.000 16.148 17.708 16.292 C 17.548 16.371,17.333 16.500,17.232 16.577 L 17.047 16.718 16.654 16.495 C 16.190 16.232,15.942 16.167,15.680 16.239 C 15.342 16.331,14.969 16.847,14.930 17.278 C 14.897 17.640,15.080 17.876,15.667 18.228 L 16.014 18.437 16.017 19.002 L 16.020 19.567 15.660 19.780 C 15.272 20.009,15.043 20.223,14.961 20.431 C 14.799 20.844,15.227 21.638,15.680 21.761 C 15.944 21.833,16.212 21.764,16.668 21.505 L 17.053 21.286 17.234 21.425 C 17.335 21.501,17.548 21.629,17.708 21.708 L 18.000 21.852 18.000 22.279 C 18.000 22.963,18.137 23.255,18.537 23.422 C 18.750 23.510,19.249 23.511,19.460 23.423 C 19.864 23.254,20.000 22.965,20.000 22.277 L 20.000 21.848 20.269 21.721 C 20.418 21.652,20.632 21.525,20.746 21.439 L 20.954 21.282 21.331 21.502 C 21.942 21.858,22.304 21.879,22.636 21.579 C 22.842 21.393,23.041 21.009,23.066 20.749 C 23.105 20.358,22.939 20.136,22.340 19.778 L 21.980 19.562 21.983 18.999 L 21.986 18.437 22.333 18.228 C 22.743 17.982,22.940 17.805,23.025 17.605 C 23.213 17.165,22.799 16.371,22.312 16.237 C 22.059 16.167,21.806 16.235,21.346 16.495 L 20.953 16.718 20.768 16.577 C 20.667 16.500,20.452 16.371,20.292 16.292 L 20.000 16.148 20.000 15.721 C 20.000 15.173,19.933 14.937,19.723 14.747 C 19.636 14.669,19.497 14.586,19.413 14.563 C 19.200 14.504,18.731 14.513,18.545 14.579 M19.260 18.044 C 19.497 18.107,19.701 18.263,19.849 18.494 C 19.968 18.679,19.980 18.727,19.980 19.003 C 19.980 19.287,19.970 19.322,19.831 19.531 C 19.613 19.859,19.389 19.980,19.000 19.979 C 18.665 19.978,18.526 19.923,18.308 19.705 C 18.104 19.501,18.022 19.300,18.022 19.000 C 18.022 18.334,18.621 17.871,19.260 18.044 " stroke="none" fill="black" fill-rule="evenodd"></path></svg>