<svg xmlns="http://www.w3.org/2000/svg" width="24" height="24" viewBox="0 0 24 24" fill="none" stroke="currentColor" stroke-width="2" stroke-linecap="round" stroke-linejoin="round" class="icon icon-tabler icons-tabler-outline icon-tabler-lungs"><path d="M11.614 3.057 C 11.377 3.131,11.212 3.261,11.109 3.453 L 11.020 3.620 10.999 6.520 C 10.975 9.756,10.989 9.597,10.687 10.064 C 10.547 10.281,10.109 10.720,10.032 10.720 C 10.014 10.720,10.000 9.879,9.999 8.850 C 9.999 7.325,9.988 6.933,9.939 6.724 C 9.750 5.924,9.043 5.227,8.250 5.059 C 7.308 4.859,6.554 5.195,5.498 6.285 C 4.440 7.377,3.717 8.707,2.960 10.957 C 2.401 12.616,2.154 13.860,2.041 15.580 C 1.956 16.869,2.004 17.549,2.227 18.198 C 3.153 20.898,6.426 21.877,8.560 20.091 C 9.209 19.547,9.641 18.858,9.890 17.970 C 9.973 17.672,9.978 17.564,9.998 15.267 L 10.020 12.874 10.280 12.783 C 10.850 12.583,11.256 12.342,11.718 11.927 L 12.000 11.675 12.282 11.927 C 12.744 12.342,13.150 12.583,13.720 12.783 L 13.980 12.874 14.003 15.267 C 14.027 17.740,14.026 17.721,14.207 18.280 C 14.751 19.956,16.359 21.074,18.100 20.987 C 19.900 20.897,21.382 19.679,21.872 17.888 C 21.973 17.517,21.978 17.457,21.976 16.540 C 21.972 14.160,21.598 12.292,20.632 9.827 C 20.142 8.579,19.577 7.548,18.972 6.800 C 18.664 6.420,17.985 5.761,17.620 5.490 C 16.896 4.950,16.031 4.858,15.256 5.239 C 14.671 5.526,14.208 6.101,14.061 6.724 C 14.012 6.933,14.001 7.325,14.001 8.850 C 14.000 9.879,13.986 10.720,13.968 10.720 C 13.891 10.720,13.453 10.281,13.313 10.064 C 13.011 9.597,13.025 9.756,13.001 6.520 L 12.980 3.620 12.891 3.453 C 12.842 3.362,12.746 3.247,12.678 3.199 C 12.414 3.010,11.957 2.950,11.614 3.057 M7.920 7.080 C 7.999 7.159,8.000 7.213,8.000 12.173 C 8.000 15.590,7.986 17.261,7.957 17.423 C 7.893 17.775,7.695 18.144,7.420 18.424 C 6.821 19.035,5.934 19.172,5.150 18.775 C 4.820 18.608,4.424 18.197,4.243 17.836 C 4.006 17.363,3.978 17.118,4.035 16.020 C 4.129 14.199,4.319 13.174,4.861 11.571 C 5.603 9.375,6.382 8.058,7.439 7.210 C 7.725 6.980,7.800 6.960,7.920 7.080 M16.579 7.221 C 17.583 8.043,18.319 9.252,19.025 11.236 C 19.604 12.864,19.856 14.083,19.959 15.760 C 20.055 17.316,19.961 17.741,19.390 18.344 C 18.744 19.027,17.850 19.190,17.029 18.775 C 16.572 18.543,16.139 17.950,16.043 17.423 C 16.014 17.261,16.000 15.590,16.000 12.173 C 16.000 7.213,16.001 7.159,16.080 7.080 C 16.203 6.957,16.287 6.981,16.579 7.221 " stroke="none" fill="black" fill-rule="evenodd"></path></svg>