<svg xmlns="http://www.w3.org/2000/svg" width="24" height="24" viewBox="0 0 24 24" fill="none" stroke="currentColor" stroke-width="2" stroke-linecap="round" stroke-linejoin="round" class="icon icon-tabler icons-tabler-outline icon-tabler-coffin"><path d="M6.645 2.060 C 6.453 2.120,6.229 2.311,6.130 2.500 C 6.024 2.703,4.042 8.687,4.017 8.879 C 4.001 9.012,4.266 10.687,5.017 15.186 C 5.579 18.555,6.058 21.363,6.082 21.426 C 6.153 21.613,6.314 21.795,6.492 21.890 L 6.660 21.980 12.000 21.980 L 17.340 21.980 17.508 21.890 C 17.686 21.795,17.847 21.613,17.918 21.426 C 17.942 21.363,18.421 18.555,18.983 15.186 C 19.734 10.687,19.999 9.012,19.983 8.879 C 19.960 8.702,17.982 2.714,17.882 2.519 C 17.778 2.318,17.545 2.119,17.343 2.059 C 17.058 1.974,6.917 1.975,6.645 2.060 M13.122 6.547 L 13.971 9.093 13.101 14.317 C 12.623 17.189,12.213 19.643,12.191 19.770 L 12.151 20.000 10.000 20.000 L 7.849 20.000 7.809 19.770 C 7.787 19.643,7.377 17.189,6.899 14.317 L 6.029 9.093 6.878 6.547 L 7.727 4.000 10.000 4.000 L 12.273 4.000 13.122 6.547 M17.122 6.547 L 17.971 9.093 17.101 14.317 C 16.623 17.189,16.213 19.643,16.191 19.770 L 16.151 20.000 15.176 20.000 C 14.331 20.000,14.200 19.992,14.200 19.939 C 14.200 19.906,14.606 17.445,15.103 14.469 C 15.765 10.503,15.999 9.012,15.983 8.879 C 15.970 8.780,15.609 7.646,15.180 6.359 C 14.751 5.073,14.400 4.016,14.400 4.010 C 14.400 4.005,14.822 4.000,15.337 4.000 L 16.273 4.000 17.122 6.547 M9.614 6.057 C 9.377 6.131,9.212 6.261,9.109 6.453 C 9.029 6.603,9.019 6.689,9.007 7.310 L 8.993 8.000 8.403 8.000 C 7.577 8.000,7.299 8.097,7.109 8.453 C 7.035 8.592,7.020 8.684,7.020 9.000 C 7.020 9.331,7.033 9.403,7.120 9.558 C 7.230 9.755,7.414 9.898,7.635 9.959 C 7.715 9.981,8.055 10.000,8.390 10.000 L 9.000 10.000 9.000 11.110 C 9.000 11.730,9.018 12.284,9.041 12.365 C 9.148 12.750,9.437 12.962,9.896 12.991 C 10.381 13.022,10.699 12.882,10.880 12.558 C 10.979 12.381,10.980 12.374,10.993 11.190 L 11.005 10.000 11.613 10.000 C 11.947 10.000,12.285 9.981,12.365 9.959 C 12.586 9.898,12.770 9.755,12.880 9.558 C 12.967 9.402,12.980 9.332,12.979 9.000 C 12.978 8.687,12.962 8.591,12.890 8.453 C 12.702 8.098,12.423 8.000,11.598 8.000 L 11.008 8.000 10.993 7.310 C 10.976 6.541,10.930 6.378,10.678 6.199 C 10.414 6.010,9.957 5.950,9.614 6.057 " stroke="none" fill="black" fill-rule="evenodd"></path></svg>