<svg xmlns="http://www.w3.org/2000/svg" width="24" height="24" viewBox="0 0 24 24" fill="none" stroke="currentColor" stroke-width="2" stroke-linecap="round" stroke-linejoin="round" class="icon icon-tabler icons-tabler-outline icon-tabler-manual-gearbox"><path d="M4.499 3.040 C 3.363 3.246,2.460 4.049,2.114 5.160 C 1.979 5.594,1.979 6.406,2.114 6.840 C 2.365 7.645,2.931 8.318,3.670 8.688 L 4.000 8.853 4.000 11.999 L 4.000 15.145 3.670 15.313 C 2.922 15.693,2.365 16.355,2.114 17.160 C 1.979 17.594,1.979 18.406,2.114 18.840 C 2.421 19.826,3.174 20.579,4.160 20.886 C 4.594 21.021,5.406 21.021,5.840 20.886 C 6.826 20.579,7.579 19.826,7.886 18.840 C 8.021 18.406,8.021 17.594,7.886 17.160 C 7.635 16.355,7.078 15.693,6.330 15.313 L 6.000 15.145 6.000 14.073 L 6.000 13.000 8.500 13.000 L 11.000 13.000 11.000 14.073 L 11.000 15.145 10.670 15.313 C 9.922 15.693,9.365 16.355,9.114 17.160 C 8.979 17.594,8.979 18.406,9.114 18.840 C 9.421 19.826,10.174 20.579,11.160 20.886 C 11.594 21.021,12.406 21.021,12.840 20.886 C 13.826 20.579,14.579 19.826,14.886 18.840 C 15.021 18.406,15.021 17.594,14.886 17.160 C 14.635 16.355,14.078 15.693,13.330 15.313 L 13.000 15.145 13.000 14.075 L 13.000 13.004 15.290 12.991 C 17.562 12.978,17.582 12.977,17.860 12.885 C 18.838 12.560,19.572 11.825,19.882 10.860 C 19.961 10.615,19.974 10.471,19.990 9.714 L 20.009 8.849 20.334 8.686 C 21.069 8.318,21.636 7.643,21.886 6.840 C 22.021 6.406,22.021 5.594,21.886 5.160 C 21.581 4.181,20.822 3.418,19.861 3.125 C 19.588 3.042,19.458 3.027,19.000 3.027 C 18.542 3.027,18.412 3.042,18.139 3.125 C 17.178 3.418,16.419 4.181,16.114 5.160 C 15.979 5.594,15.979 6.406,16.114 6.840 C 16.365 7.645,16.931 8.318,17.670 8.688 L 18.000 8.853 18.000 9.480 C 18.000 10.359,17.901 10.627,17.484 10.872 L 17.300 10.980 15.150 10.991 L 13.000 11.003 13.000 9.928 L 13.000 8.853 13.330 8.688 C 14.069 8.318,14.635 7.645,14.886 6.840 C 15.021 6.406,15.021 5.594,14.886 5.160 C 14.581 4.181,13.822 3.418,12.861 3.125 C 12.588 3.042,12.458 3.027,12.000 3.027 C 11.542 3.027,11.412 3.042,11.139 3.125 C 10.178 3.418,9.419 4.181,9.114 5.160 C 8.979 5.594,8.979 6.406,9.114 6.840 C 9.365 7.645,9.931 8.318,10.670 8.688 L 11.000 8.853 11.000 9.927 L 11.000 11.000 8.500 11.000 L 6.000 11.000 6.000 9.927 L 6.000 8.853 6.330 8.688 C 7.069 8.318,7.635 7.645,7.886 6.840 C 8.021 6.406,8.021 5.594,7.886 5.160 C 7.581 4.179,6.810 3.407,5.861 3.129 C 5.500 3.023,4.832 2.980,4.499 3.040 M5.310 5.061 C 5.688 5.173,6.000 5.598,6.000 6.001 C 6.000 6.331,5.784 6.696,5.484 6.872 C 5.328 6.963,5.254 6.980,5.000 6.980 C 4.746 6.980,4.672 6.963,4.516 6.872 C 3.935 6.530,3.833 5.774,4.304 5.303 C 4.583 5.024,4.916 4.944,5.310 5.061 M12.310 5.061 C 12.688 5.173,13.000 5.598,13.000 6.001 C 13.000 6.331,12.784 6.696,12.484 6.872 C 12.328 6.963,12.254 6.980,12.000 6.980 C 11.746 6.980,11.672 6.963,11.516 6.872 C 10.935 6.530,10.833 5.774,11.304 5.303 C 11.583 5.024,11.916 4.944,12.310 5.061 M19.310 5.061 C 19.688 5.173,20.000 5.598,20.000 6.001 C 20.000 6.331,19.784 6.696,19.484 6.872 C 19.328 6.963,19.254 6.980,19.000 6.980 C 18.746 6.980,18.672 6.963,18.516 6.872 C 17.935 6.530,17.833 5.774,18.304 5.303 C 18.583 5.024,18.916 4.944,19.310 5.061 M5.310 17.061 C 5.688 17.173,6.000 17.598,6.000 18.001 C 6.000 18.331,5.784 18.696,5.484 18.872 C 5.328 18.963,5.254 18.980,5.000 18.980 C 4.746 18.980,4.672 18.963,4.516 18.872 C 3.935 18.530,3.833 17.774,4.304 17.303 C 4.583 17.024,4.916 16.944,5.310 17.061 M12.310 17.061 C 12.688 17.173,13.000 17.598,13.000 18.001 C 13.000 18.331,12.784 18.696,12.484 18.872 C 12.328 18.963,12.254 18.980,12.000 18.980 C 11.746 18.980,11.672 18.963,11.516 18.872 C 10.935 18.530,10.833 17.774,11.304 17.303 C 11.583 17.024,11.916 16.944,12.310 17.061 " stroke="none" fill="black" fill-rule="evenodd"></path></svg>