<svg xmlns="http://www.w3.org/2000/svg" width="24" height="24" viewBox="0 0 24 24" fill="none" stroke="currentColor" stroke-width="2" stroke-linecap="round" stroke-linejoin="round" class="icon icon-tabler icons-tabler-outline icon-tabler-replace-off"><path d="M2.626 2.045 C 2.420 2.154,2.146 2.433,2.038 2.644 C 1.935 2.847,1.924 3.134,2.013 3.306 C 2.060 3.397,2.066 3.463,2.038 3.583 C 2.018 3.669,2.001 4.758,2.001 6.002 C 2.000 8.456,2.003 8.491,2.225 8.930 C 2.361 9.199,2.801 9.639,3.070 9.775 C 3.518 10.002,3.528 10.003,6.156 9.997 L 8.572 9.992 11.290 12.710 L 14.008 15.428 14.003 17.844 C 13.997 20.472,13.998 20.482,14.225 20.930 C 14.361 21.199,14.801 21.639,15.070 21.775 C 15.509 21.997,15.544 22.000,17.998 21.999 C 19.242 21.999,20.331 21.982,20.417 21.962 C 20.537 21.934,20.603 21.940,20.694 21.987 C 20.983 22.137,21.377 22.025,21.701 21.701 C 22.047 21.355,22.136 20.990,21.961 20.637 C 21.839 20.392,3.616 2.165,3.372 2.044 C 3.152 1.934,2.834 1.935,2.626 2.045 M15.620 2.046 C 15.528 2.094,14.826 2.758,13.960 3.618 C 13.135 4.438,12.399 5.150,12.324 5.201 C 12.148 5.321,11.951 5.745,11.951 6.002 C 11.951 6.111,11.987 6.257,12.039 6.363 C 12.163 6.610,15.390 9.837,15.637 9.961 C 15.990 10.137,16.355 10.048,16.701 9.701 C 17.048 9.354,17.137 8.988,16.959 8.637 C 16.905 8.531,16.580 8.168,16.147 7.730 L 15.425 7.000 17.265 7.000 C 19.382 7.000,19.395 7.002,19.697 7.303 C 19.995 7.601,20.000 7.638,20.000 9.557 C 20.000 10.548,20.017 11.279,20.041 11.365 C 20.148 11.750,20.437 11.962,20.896 11.991 C 21.381 12.022,21.699 11.882,21.880 11.558 L 21.980 11.380 21.980 9.420 C 21.980 7.477,21.979 7.457,21.886 7.160 C 21.581 6.181,20.828 5.424,19.861 5.123 L 19.540 5.023 17.485 5.009 L 15.429 4.995 16.149 4.268 C 16.581 3.831,16.905 3.469,16.959 3.363 C 17.137 3.012,17.048 2.646,16.701 2.299 C 16.361 1.959,15.967 1.867,15.620 2.046 M6.614 2.057 C 6.377 2.131,6.212 2.261,6.109 2.453 C 6.035 2.592,6.020 2.684,6.020 3.000 C 6.020 3.331,6.033 3.403,6.120 3.558 C 6.230 3.755,6.414 3.898,6.635 3.959 C 6.715 3.981,7.055 4.000,7.390 4.000 L 8.000 4.000 8.000 4.610 C 8.000 4.946,8.019 5.285,8.041 5.365 C 8.148 5.750,8.437 5.962,8.896 5.991 C 9.381 6.022,9.699 5.882,9.880 5.558 C 9.976 5.388,9.981 5.345,9.993 4.600 C 10.012 3.489,9.918 3.141,9.465 2.653 C 9.198 2.366,8.870 2.164,8.523 2.073 C 8.189 1.986,6.876 1.975,6.614 2.057 M5.300 6.720 L 6.580 8.000 5.290 8.000 L 4.000 8.000 4.000 6.720 C 4.000 6.016,4.005 5.440,4.010 5.440 C 4.016 5.440,4.596 6.016,5.300 6.720 M2.614 12.057 C 2.377 12.131,2.212 12.261,2.109 12.453 C 2.020 12.619,2.020 12.630,2.020 14.580 C 2.020 16.523,2.021 16.543,2.114 16.840 C 2.419 17.816,3.154 18.558,4.140 18.885 C 4.416 18.976,4.450 18.978,6.495 18.991 L 8.571 19.005 7.851 19.732 C 7.419 20.169,7.095 20.531,7.041 20.637 C 6.863 20.988,6.952 21.354,7.299 21.701 C 7.646 22.048,8.011 22.137,8.363 21.960 C 8.480 21.901,9.051 21.365,10.062 20.365 C 10.899 19.537,11.634 18.826,11.697 18.784 C 11.850 18.682,12.049 18.238,12.049 17.998 C 12.049 17.889,12.013 17.743,11.961 17.637 C 11.841 17.397,8.611 14.163,8.372 14.044 C 8.020 13.868,7.639 13.959,7.299 14.299 C 6.952 14.646,6.863 15.012,7.041 15.363 C 7.095 15.469,7.420 15.833,7.854 16.271 L 8.578 17.003 6.639 16.991 L 4.700 16.980 4.516 16.872 C 4.327 16.761,4.158 16.571,4.070 16.373 C 4.034 16.291,4.015 15.767,4.000 14.440 C 3.980 12.654,3.978 12.617,3.891 12.453 C 3.842 12.362,3.746 12.247,3.678 12.199 C 3.414 12.010,2.957 11.950,2.614 12.057 M18.614 14.057 C 18.377 14.131,18.212 14.261,18.109 14.453 C 18.035 14.592,18.020 14.684,18.020 15.000 C 18.020 15.331,18.033 15.403,18.120 15.558 C 18.230 15.755,18.414 15.898,18.635 15.959 C 18.715 15.981,19.055 16.000,19.390 16.000 L 20.000 16.000 20.000 16.610 C 20.000 16.945,20.019 17.285,20.041 17.365 C 20.148 17.750,20.437 17.962,20.896 17.991 C 21.381 18.022,21.699 17.882,21.880 17.558 C 21.976 17.388,21.981 17.345,21.993 16.600 C 22.012 15.489,21.918 15.141,21.465 14.653 C 21.198 14.366,20.870 14.164,20.523 14.073 C 20.189 13.986,18.876 13.975,18.614 14.057 M17.300 18.720 L 18.580 20.000 17.290 20.000 L 16.000 20.000 16.000 18.720 C 16.000 18.016,16.005 17.440,16.010 17.440 C 16.016 17.440,16.596 18.016,17.300 18.720 " stroke="none" fill="black" fill-rule="evenodd"></path></svg>