<svg xmlns="http://www.w3.org/2000/svg" width="24" height="24" viewBox="0 0 24 24" fill="none" stroke="currentColor" stroke-width="2" stroke-linecap="round" stroke-linejoin="round" class="icon icon-tabler icons-tabler-outline icon-tabler-password-user"><path d="M11.358 2.061 C 10.230 2.237,9.143 2.974,8.569 3.953 C 7.320 6.083,8.233 8.785,10.512 9.704 C 12.558 10.528,14.877 9.538,15.704 7.488 C 16.090 6.530,16.090 5.469,15.705 4.516 C 15.172 3.197,14.001 2.269,12.605 2.058 C 12.144 1.989,11.816 1.990,11.358 2.061 M12.523 4.073 C 13.262 4.266,13.850 4.924,13.967 5.690 C 14.029 6.098,13.967 6.522,13.793 6.880 C 13.638 7.198,13.227 7.625,12.930 7.775 C 12.492 7.997,11.962 8.059,11.508 7.940 C 10.823 7.762,10.249 7.194,10.073 6.523 C 9.683 5.028,11.028 3.683,12.523 4.073 M8.499 11.042 C 7.385 11.233,6.455 12.054,6.122 13.140 C 6.018 13.479,5.972 14.113,6.035 14.344 C 6.146 14.749,6.428 14.961,6.896 14.991 C 7.592 15.035,7.918 14.762,7.996 14.072 C 8.045 13.644,8.108 13.490,8.321 13.283 C 8.622 12.991,8.508 13.000,12.000 13.000 C 15.492 13.000,15.378 12.991,15.679 13.283 C 15.892 13.491,15.958 13.650,16.001 14.067 C 16.068 14.718,16.370 15.000,17.000 15.000 C 17.428 15.000,17.713 14.856,17.880 14.558 C 17.971 14.396,17.980 14.338,17.979 13.920 C 17.978 13.555,17.959 13.398,17.885 13.160 C 17.585 12.185,16.831 11.427,15.861 11.122 L 15.540 11.021 12.120 11.014 C 10.239 11.011,8.609 11.023,8.499 11.042 M4.614 16.057 C 4.193 16.189,4.034 16.433,4.008 16.990 C 3.998 17.194,3.985 17.360,3.979 17.360 C 3.972 17.360,3.790 17.275,3.574 17.170 C 3.228 17.003,3.150 16.980,2.918 16.980 C 2.696 16.980,2.628 16.998,2.485 17.092 C 2.283 17.225,2.101 17.499,2.014 17.796 C 1.883 18.246,2.029 18.580,2.468 18.836 C 2.605 18.915,2.717 18.989,2.717 19.000 C 2.717 19.011,2.605 19.085,2.468 19.164 C 2.320 19.251,2.172 19.377,2.100 19.478 C 1.995 19.626,1.980 19.681,1.981 19.914 C 1.983 20.373,2.267 20.847,2.621 20.983 C 2.887 21.084,3.131 21.044,3.582 20.826 C 3.794 20.724,3.975 20.640,3.984 20.640 C 3.993 20.640,4.000 20.771,4.000 20.930 C 4.001 21.623,4.278 21.952,4.896 21.991 C 5.379 22.022,5.700 21.881,5.876 21.563 C 5.951 21.426,5.976 21.311,5.991 21.015 C 6.002 20.809,6.016 20.640,6.022 20.640 C 6.028 20.640,6.206 20.724,6.418 20.826 C 6.870 21.045,7.113 21.084,7.381 20.982 C 7.729 20.849,8.015 20.369,8.018 19.914 C 8.020 19.680,8.005 19.626,7.900 19.478 C 7.828 19.377,7.680 19.251,7.532 19.164 C 7.395 19.085,7.283 19.011,7.283 19.000 C 7.283 18.989,7.395 18.915,7.532 18.836 C 7.971 18.580,8.117 18.246,7.986 17.796 C 7.899 17.499,7.717 17.225,7.515 17.092 C 7.372 16.998,7.304 16.980,7.082 16.980 C 6.850 16.980,6.772 17.003,6.426 17.170 C 6.210 17.275,6.028 17.360,6.022 17.360 C 6.016 17.360,6.002 17.194,5.991 16.990 C 5.969 16.568,5.880 16.342,5.678 16.199 C 5.414 16.010,4.957 15.950,4.614 16.057 M11.614 16.057 C 11.193 16.189,11.034 16.433,11.008 16.990 C 10.998 17.194,10.985 17.360,10.979 17.360 C 10.972 17.360,10.790 17.275,10.574 17.170 C 10.228 17.003,10.150 16.980,9.918 16.980 C 9.696 16.980,9.628 16.998,9.485 17.092 C 9.283 17.225,9.101 17.499,9.014 17.796 C 8.883 18.246,9.029 18.580,9.468 18.836 C 9.605 18.915,9.717 18.989,9.717 19.000 C 9.717 19.011,9.605 19.085,9.468 19.164 C 9.320 19.251,9.172 19.377,9.100 19.478 C 8.995 19.626,8.980 19.681,8.981 19.914 C 8.983 20.373,9.267 20.847,9.621 20.983 C 9.887 21.084,10.131 21.044,10.582 20.826 C 10.794 20.724,10.975 20.640,10.984 20.640 C 10.993 20.640,11.000 20.771,11.000 20.930 C 11.001 21.623,11.278 21.952,11.896 21.991 C 12.379 22.022,12.700 21.881,12.876 21.563 C 12.951 21.426,12.976 21.311,12.991 21.015 C 13.002 20.809,13.016 20.640,13.022 20.640 C 13.028 20.640,13.206 20.724,13.418 20.826 C 13.870 21.045,14.113 21.084,14.381 20.982 C 14.729 20.849,15.015 20.369,15.018 19.914 C 15.020 19.680,15.005 19.626,14.900 19.478 C 14.828 19.377,14.680 19.251,14.532 19.164 C 14.395 19.085,14.283 19.011,14.283 19.000 C 14.283 18.989,14.395 18.915,14.532 18.836 C 14.971 18.580,15.117 18.246,14.986 17.796 C 14.899 17.499,14.717 17.225,14.515 17.092 C 14.372 16.998,14.304 16.980,14.082 16.980 C 13.850 16.980,13.772 17.003,13.426 17.170 C 13.210 17.275,13.028 17.360,13.022 17.360 C 13.016 17.360,13.002 17.194,12.991 16.990 C 12.969 16.568,12.880 16.342,12.678 16.199 C 12.414 16.010,11.957 15.950,11.614 16.057 M18.614 16.057 C 18.193 16.189,18.034 16.433,18.008 16.990 C 17.998 17.194,17.985 17.360,17.979 17.360 C 17.972 17.360,17.790 17.275,17.574 17.170 C 17.228 17.003,17.150 16.980,16.918 16.980 C 16.696 16.980,16.628 16.998,16.485 17.092 C 16.283 17.225,16.101 17.499,16.014 17.796 C 15.883 18.246,16.029 18.580,16.468 18.836 C 16.605 18.915,16.717 18.989,16.717 19.000 C 16.717 19.011,16.605 19.085,16.468 19.164 C 16.320 19.251,16.172 19.377,16.100 19.478 C 15.995 19.626,15.980 19.681,15.981 19.914 C 15.983 20.373,16.267 20.847,16.621 20.983 C 16.887 21.084,17.131 21.044,17.582 20.826 C 17.794 20.724,17.975 20.640,17.984 20.640 C 17.993 20.640,18.000 20.771,18.000 20.930 C 18.001 21.623,18.278 21.952,18.896 21.991 C 19.379 22.022,19.700 21.881,19.876 21.563 C 19.951 21.426,19.976 21.311,19.991 21.015 C 20.002 20.809,20.016 20.640,20.022 20.640 C 20.028 20.640,20.206 20.724,20.418 20.826 C 20.870 21.045,21.113 21.084,21.381 20.982 C 21.729 20.849,22.015 20.369,22.018 19.914 C 22.020 19.680,22.005 19.626,21.900 19.478 C 21.828 19.377,21.680 19.251,21.532 19.164 C 21.395 19.085,21.283 19.011,21.283 19.000 C 21.283 18.989,21.395 18.915,21.532 18.836 C 21.971 18.580,22.117 18.246,21.986 17.796 C 21.899 17.499,21.717 17.225,21.515 17.092 C 21.372 16.998,21.304 16.980,21.082 16.980 C 20.850 16.980,20.772 17.003,20.426 17.170 C 20.210 17.275,20.028 17.360,20.022 17.360 C 20.016 17.360,20.002 17.194,19.991 16.990 C 19.969 16.568,19.880 16.342,19.678 16.199 C 19.414 16.010,18.957 15.950,18.614 16.057 " stroke="none" fill="black" fill-rule="evenodd"></path></svg>