<svg xmlns="http://www.w3.org/2000/svg" width="24" height="24" viewBox="0 0 24 24" fill="none" stroke="currentColor" stroke-width="2" stroke-linecap="round" stroke-linejoin="round" class="icon icon-tabler icons-tabler-outline icon-tabler-arrows-up-left"><path d="M16.530 2.083 C 16.393 2.150,16.249 2.252,16.210 2.311 C 16.172 2.369,15.237 3.327,14.134 4.439 C 12.766 5.818,12.101 6.516,12.040 6.637 C 11.863 6.989,11.952 7.354,12.299 7.701 C 12.646 8.048,13.011 8.137,13.363 7.960 C 13.479 7.901,13.961 7.452,14.770 6.647 L 16.000 5.423 15.999 9.801 C 15.999 14.572,16.002 14.501,15.772 14.931 C 15.625 15.208,15.191 15.643,14.930 15.775 C 14.470 16.008,14.654 16.000,9.843 16.000 L 5.423 16.000 6.647 14.770 C 7.452 13.961,7.901 13.479,7.960 13.363 C 8.137 13.011,8.048 12.646,7.701 12.299 C 7.361 11.959,6.980 11.868,6.628 12.044 C 6.518 12.099,5.768 12.817,4.460 14.118 C 3.360 15.213,2.399 16.150,2.324 16.201 C 2.149 16.321,1.951 16.745,1.951 17.000 C 1.951 17.239,2.150 17.682,2.304 17.784 C 2.366 17.826,3.327 18.763,4.439 19.866 C 5.818 21.234,6.516 21.899,6.637 21.960 C 6.989 22.137,7.354 22.048,7.701 21.701 C 8.048 21.354,8.137 20.989,7.960 20.637 C 7.901 20.521,7.452 20.039,6.647 19.230 L 5.423 18.000 9.895 18.000 C 14.200 18.000,14.382 17.997,14.757 17.921 C 16.384 17.589,17.589 16.384,17.921 14.757 C 17.997 14.382,18.000 14.200,18.000 9.895 L 18.000 5.423 19.230 6.647 C 20.039 7.452,20.521 7.901,20.637 7.960 C 20.989 8.137,21.354 8.048,21.701 7.701 C 22.048 7.354,22.137 6.989,21.960 6.637 C 21.899 6.516,21.234 5.818,19.866 4.439 C 18.763 3.327,17.828 2.369,17.789 2.310 C 17.751 2.252,17.604 2.149,17.464 2.082 C 17.120 1.918,16.871 1.918,16.530 2.083 " stroke="none" fill="black" fill-rule="evenodd"></path></svg>