<svg xmlns="http://www.w3.org/2000/svg" width="24" height="24" viewBox="0 0 24 24" fill="none" stroke="currentColor" stroke-width="2" stroke-linecap="round" stroke-linejoin="round" class="icon icon-tabler icons-tabler-outline icon-tabler-navigation-up"><path d="M11.731 2.038 C 11.482 2.128,11.312 2.242,11.205 2.394 C 11.094 2.549,3.206 19.639,3.088 19.980 C 2.808 20.787,3.255 21.654,4.091 21.923 C 4.583 22.082,4.491 22.107,8.674 20.686 C 10.749 19.980,12.525 19.358,12.621 19.302 C 12.969 19.098,13.095 18.757,12.983 18.320 C 12.896 17.978,12.752 17.742,12.551 17.609 C 12.405 17.513,12.349 17.500,12.083 17.504 C 11.796 17.507,11.614 17.564,8.620 18.585 C 6.882 19.178,5.455 19.651,5.449 19.638 C 5.434 19.606,11.971 5.440,12.000 5.440 C 12.012 5.440,12.857 7.249,13.877 9.460 C 15.638 13.278,15.741 13.488,15.921 13.657 C 16.131 13.853,16.296 13.905,16.584 13.866 C 16.988 13.810,17.468 13.456,17.552 13.151 C 17.591 13.010,17.560 12.705,17.488 12.520 C 17.310 12.059,12.810 2.388,12.725 2.282 C 12.578 2.098,12.309 1.960,12.104 1.961 C 12.014 1.962,11.846 1.997,11.731 2.038 M18.530 15.083 C 18.393 15.150,18.249 15.252,18.210 15.310 C 18.172 15.369,17.463 16.101,16.635 16.938 C 15.635 17.949,15.099 18.520,15.040 18.637 C 14.863 18.989,14.952 19.354,15.299 19.701 C 15.646 20.048,16.012 20.137,16.363 19.959 C 16.469 19.905,16.832 19.580,17.270 19.147 L 18.000 18.425 18.000 20.322 C 18.000 21.470,18.016 22.277,18.041 22.365 C 18.148 22.750,18.437 22.962,18.896 22.991 C 19.381 23.022,19.699 22.882,19.880 22.558 L 19.980 22.380 19.992 20.404 L 20.004 18.428 20.732 19.149 C 21.168 19.581,21.531 19.905,21.637 19.959 C 21.988 20.137,22.354 20.048,22.701 19.701 C 23.048 19.354,23.137 18.989,22.960 18.637 C 22.901 18.520,22.365 17.949,21.365 16.938 C 20.537 16.101,19.828 15.369,19.789 15.310 C 19.751 15.252,19.604 15.149,19.464 15.082 C 19.120 14.918,18.871 14.918,18.530 15.083 " stroke="none" fill="black" fill-rule="evenodd"></path></svg>