<svg xmlns="http://www.w3.org/2000/svg" width="24" height="24" viewBox="0 0 24 24" fill="none" stroke="currentColor" stroke-width="2" stroke-linecap="round" stroke-linejoin="round" class="icon icon-tabler icons-tabler-outline icon-tabler-device-desktop-pin"><path d="M3.477 3.073 C 2.806 3.249,2.238 3.823,2.060 4.508 C 2.008 4.705,2.000 5.464,2.000 10.000 C 2.000 15.733,1.990 15.466,2.225 15.930 C 2.361 16.199,2.801 16.639,3.070 16.775 C 3.506 16.996,3.557 17.000,5.868 17.000 L 8.000 17.000 8.000 18.000 L 8.000 19.000 7.406 19.000 C 6.577 19.000,6.300 19.097,6.109 19.453 C 6.035 19.592,6.020 19.684,6.020 20.000 C 6.020 20.331,6.033 20.403,6.120 20.558 C 6.230 20.755,6.414 20.898,6.635 20.959 C 6.832 21.014,12.168 21.014,12.365 20.959 C 12.586 20.898,12.770 20.755,12.880 20.558 C 12.967 20.402,12.980 20.332,12.979 20.000 C 12.978 19.567,12.898 19.355,12.678 19.199 C 12.430 19.022,12.256 19.000,11.094 19.000 L 10.000 19.000 10.000 18.000 L 10.000 17.000 11.353 17.000 C 12.867 17.000,13.006 16.982,13.229 16.751 C 13.418 16.556,13.486 16.355,13.486 15.997 C 13.486 15.491,13.303 15.196,12.909 15.064 C 12.738 15.007,12.245 15.000,8.359 15.000 L 4.000 15.000 4.000 10.000 L 4.000 5.000 12.000 5.000 L 20.000 5.000 20.000 8.110 C 20.000 10.070,20.015 11.274,20.041 11.365 C 20.148 11.750,20.437 11.962,20.896 11.991 C 21.381 12.022,21.699 11.882,21.880 11.558 L 21.980 11.380 21.991 8.091 C 22.003 4.518,22.003 4.521,21.782 4.083 C 21.646 3.816,21.297 3.449,21.017 3.281 C 20.523 2.983,21.217 3.005,12.000 3.005 C 4.321 3.005,3.721 3.009,3.477 3.073 M18.340 14.060 C 17.913 14.130,17.642 14.217,17.275 14.399 C 16.236 14.915,15.537 15.720,15.185 16.807 C 14.791 18.021,15.052 19.450,15.851 20.460 C 16.273 20.993,18.165 22.676,18.610 22.914 C 18.892 23.065,19.097 23.072,19.373 22.941 C 19.537 22.863,20.661 21.912,21.461 21.175 C 22.256 20.442,22.645 19.846,22.868 19.015 C 22.962 18.669,22.975 18.543,22.976 18.000 C 22.977 17.486,22.962 17.325,22.890 17.059 C 22.555 15.825,21.863 14.972,20.736 14.406 C 20.015 14.045,19.175 13.924,18.340 14.060 M19.383 16.043 C 19.962 16.149,20.496 16.556,20.760 17.093 C 20.848 17.273,20.941 17.528,20.964 17.660 C 21.049 18.125,20.934 18.671,20.660 19.101 C 20.538 19.293,19.979 19.839,19.309 20.421 L 18.997 20.691 18.909 20.614 C 17.924 19.754,17.524 19.372,17.355 19.130 C 17.082 18.739,16.949 18.129,17.035 17.660 C 17.107 17.269,17.361 16.802,17.640 16.550 C 18.143 16.095,18.729 15.924,19.383 16.043 M18.614 17.057 C 18.221 17.180,18.039 17.435,18.009 17.906 C 17.962 18.621,18.306 19.000,19.000 19.000 C 19.698 19.000,20.043 18.616,19.989 17.900 C 19.963 17.563,19.859 17.327,19.678 17.199 C 19.414 17.010,18.957 16.950,18.614 17.057 " stroke="none" fill="black" fill-rule="evenodd"></path></svg>