<svg xmlns="http://www.w3.org/2000/svg" width="24" height="24" viewBox="0 0 24 24" fill="none" stroke="currentColor" stroke-width="2" stroke-linecap="round" stroke-linejoin="round" class="icon icon-tabler icons-tabler-outline icon-tabler-circle-caret-right"><path d="M11.080 2.045 C 9.507 2.184,7.883 2.751,6.540 3.630 C 5.905 4.045,5.499 4.378,4.919 4.958 C 2.953 6.926,1.919 9.544,2.013 12.320 C 2.084 14.439,2.752 16.328,4.033 18.040 C 4.430 18.570,5.305 19.464,5.800 19.847 C 7.242 20.961,8.787 21.624,10.600 21.907 C 11.247 22.008,12.753 22.008,13.400 21.907 C 15.638 21.557,17.504 20.620,19.062 19.062 C 20.620 17.504,21.557 15.638,21.907 13.400 C 22.008 12.753,22.008 11.247,21.907 10.600 C 21.624 8.786,20.959 7.238,19.847 5.800 C 19.510 5.365,18.639 4.494,18.200 4.154 C 16.133 2.555,13.646 1.818,11.080 2.045 M12.734 4.041 C 14.574 4.216,16.228 4.976,17.554 6.256 C 20.043 8.658,20.702 12.394,19.183 15.499 C 18.749 16.387,18.223 17.105,17.496 17.801 C 16.876 18.394,16.262 18.819,15.471 19.200 C 13.267 20.265,10.733 20.265,8.529 19.200 C 7.477 18.693,6.612 18.015,5.847 17.100 C 3.848 14.711,3.440 11.302,4.816 8.500 C 6.162 5.760,8.867 4.049,11.920 4.005 C 12.129 4.003,12.495 4.019,12.734 4.041 M10.660 7.027 C 10.436 7.147,10.239 7.327,10.129 7.514 L 10.020 7.700 10.009 11.953 C 10.002 14.740,10.013 16.258,10.039 16.357 C 10.100 16.584,10.242 16.768,10.442 16.880 C 10.593 16.965,10.672 16.980,10.960 16.980 C 11.257 16.980,11.323 16.967,11.480 16.873 C 11.748 16.714,15.849 12.585,15.960 12.363 C 16.076 12.132,16.076 11.869,15.961 11.637 C 15.840 11.396,11.612 7.164,11.372 7.044 C 11.168 6.942,10.834 6.935,10.660 7.027 M12.790 12.790 L 12.000 13.580 12.000 12.000 L 12.000 10.420 12.790 11.210 L 13.580 12.000 12.790 12.790 " stroke="none" fill="black" fill-rule="evenodd"></path></svg>