<svg xmlns="http://www.w3.org/2000/svg" width="24" height="24" viewBox="0 0 24 24" fill="none" stroke="currentColor" stroke-width="2" stroke-linecap="round" stroke-linejoin="round" class="icon icon-tabler icons-tabler-outline icon-tabler-home-2"><path d="M11.620 2.046 C 11.411 2.153,2.276 11.270,2.127 11.520 C 2.033 11.677,2.020 11.743,2.020 12.040 C 2.020 12.328,2.035 12.407,2.120 12.558 C 2.230 12.755,2.414 12.898,2.635 12.959 C 2.715 12.981,3.054 13.000,3.388 13.000 L 3.997 13.000 4.009 16.290 L 4.021 19.580 4.114 19.860 C 4.445 20.850,5.184 21.582,6.160 21.886 L 6.460 21.980 12.000 21.980 L 17.540 21.980 17.840 21.886 C 18.816 21.582,19.555 20.850,19.886 19.860 L 19.979 19.580 19.991 16.293 L 20.003 13.007 20.652 12.993 C 21.274 12.981,21.307 12.976,21.486 12.871 C 21.964 12.589,22.170 12.056,21.961 11.637 C 21.839 11.393,12.615 2.165,12.372 2.044 C 12.151 1.934,11.835 1.935,11.620 2.046 M15.316 7.736 L 18.612 11.032 18.456 11.112 C 18.245 11.220,18.140 11.343,18.064 11.571 C 18.007 11.741,18.000 12.174,18.000 15.435 C 18.000 19.420,18.005 19.321,17.779 19.618 C 17.718 19.698,17.585 19.813,17.484 19.872 L 17.300 19.980 12.000 19.980 L 6.700 19.980 6.516 19.872 C 6.415 19.813,6.284 19.700,6.225 19.623 C 5.991 19.317,6.000 19.474,6.000 15.465 C 6.000 13.120,5.985 11.727,5.959 11.635 C 5.898 11.415,5.755 11.230,5.564 11.125 L 5.391 11.029 8.685 7.735 C 10.497 5.923,11.989 4.440,12.000 4.440 C 12.011 4.440,13.503 5.923,15.316 7.736 M9.614 11.057 C 9.377 11.131,9.212 11.261,9.109 11.453 L 9.020 11.620 9.020 14.000 L 9.020 16.380 9.120 16.558 C 9.230 16.755,9.414 16.898,9.635 16.959 C 9.831 17.014,14.169 17.014,14.365 16.959 C 14.586 16.898,14.770 16.755,14.880 16.558 L 14.980 16.380 14.980 14.000 L 14.980 11.620 14.891 11.453 C 14.785 11.256,14.622 11.131,14.371 11.055 C 14.112 10.977,9.864 10.979,9.614 11.057 M13.000 14.000 L 13.000 15.000 12.000 15.000 L 11.000 15.000 11.000 14.000 L 11.000 13.000 12.000 13.000 L 13.000 13.000 13.000 14.000 " stroke="none" fill="black" fill-rule="evenodd"></path></svg>