<svg xmlns="http://www.w3.org/2000/svg" width="24" height="24" viewBox="0 0 24 24" fill="none" stroke="currentColor" stroke-width="2" stroke-linecap="round" stroke-linejoin="round" class="icon icon-tabler icons-tabler-outline icon-tabler-candy"><path d="M16.170 2.298 C 15.685 2.408,15.167 2.731,14.835 3.129 C 14.594 3.420,14.549 3.508,14.058 4.660 C 13.843 5.166,13.664 5.584,13.660 5.589 C 13.657 5.595,13.530 5.572,13.377 5.540 C 12.548 5.364,11.639 5.545,10.986 6.016 C 10.851 6.113,9.666 7.270,8.354 8.587 L 5.969 10.980 5.784 11.363 C 5.682 11.574,5.572 11.871,5.540 12.023 C 5.464 12.383,5.465 13.070,5.541 13.396 C 5.575 13.536,5.597 13.655,5.591 13.659 C 5.585 13.663,5.123 13.861,4.565 14.100 C 3.840 14.410,3.468 14.592,3.266 14.737 C 2.259 15.460,1.947 16.813,2.530 17.940 C 2.631 18.135,2.918 18.444,4.077 19.603 C 5.345 20.871,5.531 21.043,5.785 21.173 C 6.169 21.370,6.506 21.452,6.940 21.453 C 7.714 21.456,8.378 21.140,8.886 20.529 C 9.161 20.199,9.292 19.875,9.518 18.967 C 9.635 18.499,9.742 18.123,9.755 18.130 C 10.241 18.397,10.734 18.522,11.300 18.522 C 11.840 18.522,12.228 18.431,12.691 18.195 C 13.010 18.033,13.097 17.950,15.524 15.524 L 18.028 13.020 18.214 12.639 C 18.441 12.175,18.518 11.831,18.519 11.276 C 18.520 10.791,18.436 10.398,18.245 9.998 C 18.178 9.858,18.128 9.739,18.132 9.734 C 18.137 9.729,18.510 9.634,18.961 9.522 C 19.843 9.302,20.206 9.155,20.529 8.886 C 21.141 8.377,21.456 7.714,21.453 6.940 C 21.452 6.506,21.370 6.169,21.172 5.785 C 21.043 5.533,20.865 5.338,19.649 4.115 C 18.191 2.648,18.037 2.521,17.520 2.354 C 17.184 2.246,16.521 2.219,16.170 2.298 M16.992 4.297 C 17.051 4.328,17.627 4.883,18.270 5.530 C 19.113 6.377,19.442 6.733,19.446 6.803 C 19.465 7.112,19.396 7.280,19.210 7.373 C 19.149 7.404,18.528 7.570,17.830 7.744 L 16.559 8.059 15.936 7.435 L 15.312 6.812 15.821 5.626 C 16.381 4.319,16.432 4.240,16.725 4.240 C 16.812 4.240,16.933 4.266,16.992 4.297 M13.115 7.561 C 13.240 7.618,13.595 7.949,14.375 8.737 C 14.972 9.340,15.505 9.881,15.560 9.938 C 15.615 9.996,15.808 10.179,15.988 10.345 C 16.393 10.717,16.520 10.947,16.519 11.298 C 16.519 11.454,16.489 11.604,16.437 11.720 C 16.375 11.857,15.825 12.431,14.108 14.145 C 11.596 16.654,11.725 16.548,11.206 16.511 C 10.868 16.487,10.698 16.381,10.310 15.954 C 10.163 15.792,10.005 15.624,9.958 15.580 C 9.911 15.536,9.371 15.003,8.757 14.396 C 7.950 13.597,7.619 13.243,7.562 13.116 C 7.455 12.880,7.455 12.519,7.563 12.280 C 7.680 12.020,12.020 7.680,12.280 7.563 C 12.518 7.455,12.880 7.455,13.115 7.561 M7.440 15.940 L 8.058 16.559 7.739 17.845 C 7.564 18.552,7.388 19.184,7.349 19.248 C 7.257 19.400,7.032 19.495,6.844 19.460 C 6.723 19.437,6.521 19.255,5.585 18.327 C 4.972 17.718,4.419 17.150,4.355 17.064 C 4.270 16.949,4.240 16.863,4.240 16.735 C 4.240 16.433,4.323 16.378,5.620 15.821 C 6.258 15.547,6.789 15.322,6.800 15.321 C 6.812 15.321,7.099 15.599,7.440 15.940 " stroke="none" fill="black" fill-rule="evenodd"></path></svg>