<svg xmlns="http://www.w3.org/2000/svg" width="24" height="24" viewBox="0 0 24 24" fill="none" stroke="currentColor" stroke-width="2" stroke-linecap="round" stroke-linejoin="round" class="icon icon-tabler icons-tabler-outline icon-tabler-battery-off"><path d="M2.626 2.045 C 2.257 2.239,1.951 2.673,1.951 3.000 C 1.951 3.337,2.051 3.461,3.468 4.885 L 4.807 6.229 4.553 6.372 C 3.871 6.755,3.351 7.401,3.114 8.160 L 3.020 8.460 3.020 12.000 L 3.020 15.540 3.114 15.840 C 3.418 16.816,4.149 17.554,5.140 17.886 L 5.420 17.980 11.000 17.991 L 16.580 18.002 18.520 19.937 C 19.853 21.266,20.516 21.899,20.637 21.960 C 20.989 22.137,21.354 22.048,21.701 21.701 C 22.048 21.354,22.137 20.989,21.960 20.637 C 21.900 20.517,21.225 19.807,19.853 18.420 C 18.743 17.298,17.796 16.341,17.748 16.293 C 17.573 16.120,7.857 6.404,7.760 6.305 C 7.705 6.249,6.733 5.287,5.600 4.167 C 4.268 2.849,3.480 2.099,3.372 2.045 C 3.152 1.934,2.835 1.934,2.626 2.045 M10.614 6.057 C 10.376 6.132,10.212 6.261,10.109 6.453 C 10.035 6.592,10.020 6.684,10.020 7.000 C 10.020 7.331,10.033 7.403,10.120 7.558 C 10.230 7.755,10.414 7.898,10.635 7.959 C 10.727 7.985,11.947 8.000,13.943 8.000 C 17.498 8.000,17.377 7.991,17.679 8.283 C 17.928 8.525,17.970 8.657,17.999 9.300 C 18.021 9.795,18.037 9.888,18.134 10.100 C 18.265 10.387,18.549 10.690,18.810 10.824 L 19.000 10.921 19.000 12.000 L 19.000 13.079 18.810 13.176 C 18.549 13.310,18.266 13.612,18.132 13.900 C 18.032 14.116,18.020 14.192,18.007 14.662 C 17.999 14.962,18.011 15.253,18.036 15.346 C 18.144 15.748,18.429 15.961,18.896 15.991 C 19.553 16.033,19.925 15.751,19.986 15.163 C 20.012 14.917,20.013 14.915,20.196 14.821 C 20.451 14.690,20.735 14.386,20.868 14.100 L 20.980 13.860 20.980 12.000 L 20.980 10.140 20.868 9.900 C 20.735 9.614,20.451 9.310,20.196 9.179 L 20.012 9.085 19.986 8.747 C 19.893 7.540,19.048 6.495,17.861 6.122 L 17.540 6.021 14.160 6.012 C 11.452 6.006,10.747 6.014,10.614 6.057 M10.580 12.000 L 14.580 16.001 10.140 15.990 L 5.700 15.980 5.516 15.872 C 5.415 15.813,5.284 15.700,5.225 15.623 C 4.994 15.320,5.000 15.423,5.000 12.022 C 5.000 8.472,4.988 8.618,5.304 8.303 C 5.531 8.076,5.742 8.006,6.220 8.003 L 6.580 8.000 10.580 12.000 " stroke="none" fill="black" fill-rule="evenodd"></path></svg>