<svg xmlns="http://www.w3.org/2000/svg" width="24" height="24" viewBox="0 0 24 24" fill="none" stroke="currentColor" stroke-width="2" stroke-linecap="round" stroke-linejoin="round" class="icon icon-tabler icons-tabler-outline icon-tabler-list"><path d="M4.614 5.057 C 4.221 5.180,4.039 5.435,4.009 5.906 C 3.962 6.621,4.306 7.000,5.000 7.000 C 5.698 7.000,6.043 6.616,5.989 5.900 C 5.963 5.563,5.859 5.327,5.678 5.199 C 5.414 5.010,4.957 4.950,4.614 5.057 M8.614 5.057 C 8.377 5.131,8.212 5.261,8.109 5.453 C 8.035 5.592,8.020 5.684,8.020 6.000 C 8.020 6.331,8.033 6.403,8.120 6.558 C 8.230 6.755,8.414 6.898,8.635 6.959 C 8.834 7.015,20.166 7.015,20.365 6.959 C 20.586 6.898,20.770 6.755,20.880 6.558 C 20.967 6.402,20.980 6.332,20.979 6.000 C 20.978 5.567,20.898 5.355,20.678 5.199 C 20.389 4.993,20.604 5.000,14.484 5.003 C 9.919 5.005,8.747 5.016,8.614 5.057 M4.614 11.057 C 4.221 11.180,4.039 11.435,4.009 11.906 C 3.962 12.621,4.306 13.000,5.000 13.000 C 5.698 13.000,6.043 12.616,5.989 11.900 C 5.963 11.563,5.859 11.327,5.678 11.199 C 5.414 11.010,4.957 10.950,4.614 11.057 M8.614 11.057 C 8.377 11.131,8.212 11.261,8.109 11.453 C 8.035 11.592,8.020 11.684,8.020 12.000 C 8.020 12.331,8.033 12.403,8.120 12.558 C 8.230 12.755,8.414 12.898,8.635 12.959 C 8.834 13.015,20.166 13.015,20.365 12.959 C 20.586 12.898,20.770 12.755,20.880 12.558 C 20.967 12.402,20.980 12.332,20.979 12.000 C 20.978 11.567,20.898 11.355,20.678 11.199 C 20.389 10.993,20.604 11.000,14.484 11.003 C 9.919 11.005,8.747 11.016,8.614 11.057 M4.614 17.057 C 4.221 17.180,4.039 17.435,4.009 17.906 C 3.962 18.621,4.306 19.000,5.000 19.000 C 5.698 19.000,6.043 18.616,5.989 17.900 C 5.963 17.563,5.859 17.327,5.678 17.199 C 5.414 17.010,4.957 16.950,4.614 17.057 M8.614 17.057 C 8.377 17.131,8.212 17.261,8.109 17.453 C 8.035 17.592,8.020 17.684,8.020 18.000 C 8.020 18.331,8.033 18.403,8.120 18.558 C 8.230 18.755,8.414 18.898,8.635 18.959 C 8.834 19.015,20.166 19.015,20.365 18.959 C 20.586 18.898,20.770 18.755,20.880 18.558 C 20.967 18.402,20.980 18.332,20.979 18.000 C 20.978 17.567,20.898 17.355,20.678 17.199 C 20.389 16.993,20.604 17.000,14.484 17.003 C 9.919 17.005,8.747 17.016,8.614 17.057 " stroke="none" fill="black" fill-rule="evenodd"></path></svg>