<svg xmlns="http://www.w3.org/2000/svg" width="24" height="24" viewBox="0 0 24 24" fill="none" stroke="currentColor" stroke-width="2" stroke-linecap="round" stroke-linejoin="round" class="icon icon-tabler icons-tabler-outline icon-tabler-brand-meetup"><path d="M6.604 6.010 C 6.452 6.060,6.232 6.263,6.143 6.433 C 5.975 6.760,2.003 16.728,1.980 16.883 C 1.964 16.989,1.973 17.140,2.000 17.243 C 2.099 17.612,2.598 17.926,3.103 17.935 C 3.306 17.939,3.373 17.922,3.513 17.830 C 3.604 17.769,3.724 17.652,3.778 17.570 C 3.832 17.487,4.433 16.034,5.113 14.340 C 5.792 12.646,6.425 11.107,6.519 10.920 C 7.292 9.382,8.733 8.297,10.320 8.058 C 11.255 7.917,11.817 8.055,12.110 8.498 C 12.287 8.765,12.334 9.013,12.309 9.536 L 12.287 9.980 11.165 13.335 C 10.547 15.180,10.022 16.792,9.997 16.917 C 9.890 17.461,10.231 17.868,10.903 18.000 C 11.328 18.084,11.660 17.918,11.857 17.524 C 11.907 17.423,12.395 15.999,12.940 14.360 C 13.566 12.480,13.994 11.255,14.102 11.040 C 14.474 10.297,15.125 9.545,15.843 9.030 C 16.855 8.304,18.126 7.915,18.928 8.085 C 19.774 8.264,20.168 8.999,19.928 9.947 C 19.883 10.124,19.267 11.707,18.558 13.464 C 17.849 15.222,17.234 16.750,17.191 16.860 C 16.644 18.260,17.405 19.631,18.940 20.013 C 19.673 20.195,20.692 20.157,21.372 19.923 C 21.818 19.769,21.999 19.536,22.000 19.116 C 22.000 18.626,21.810 18.230,21.503 18.081 C 21.298 17.982,21.000 17.976,20.593 18.062 C 20.026 18.182,19.321 18.122,19.116 17.937 C 19.074 17.898,19.040 17.815,19.040 17.748 C 19.040 17.682,19.632 16.159,20.355 14.364 C 21.079 12.569,21.718 10.949,21.776 10.765 C 22.106 9.720,22.060 8.719,21.642 7.862 C 21.237 7.030,20.442 6.408,19.460 6.155 C 19.165 6.079,18.995 6.062,18.520 6.061 C 17.896 6.061,17.617 6.101,16.960 6.286 C 16.102 6.528,15.327 6.918,14.578 7.485 C 14.363 7.647,14.158 7.802,14.122 7.829 C 14.065 7.873,14.037 7.842,13.901 7.589 C 13.676 7.171,13.124 6.630,12.700 6.412 C 12.524 6.322,12.262 6.212,12.117 6.168 C 11.087 5.852,9.518 6.022,8.290 6.583 L 7.999 6.715 7.945 6.588 C 7.861 6.390,7.703 6.246,7.430 6.121 C 7.145 5.989,6.804 5.944,6.604 6.010 " stroke="none" fill="black" fill-rule="evenodd"></path></svg>