<svg xmlns="http://www.w3.org/2000/svg" width="24" height="24" viewBox="0 0 24 24" fill="none" stroke="currentColor" stroke-width="2" stroke-linecap="round" stroke-linejoin="round" class="icon icon-tabler icons-tabler-outline icon-tabler-motorbike"><path d="M12.614 5.056 C 12.376 5.132,12.212 5.262,12.109 5.453 C 12.035 5.592,12.020 5.684,12.020 6.000 C 12.020 6.331,12.033 6.403,12.120 6.558 C 12.230 6.755,12.414 6.898,12.635 6.959 C 12.715 6.981,13.140 7.000,13.580 7.000 L 14.381 7.000 14.870 7.980 C 15.140 8.519,15.360 8.969,15.360 8.979 C 15.360 8.989,13.212 8.997,10.588 8.998 C 5.470 8.999,5.609 8.994,5.322 9.199 C 5.100 9.357,5.020 9.568,5.020 10.000 C 5.020 10.331,5.033 10.403,5.120 10.558 C 5.230 10.755,5.414 10.898,5.635 10.959 C 5.721 10.983,6.451 11.000,7.440 11.000 L 9.099 11.000 8.221 11.879 L 7.343 12.757 7.222 12.677 C 6.759 12.372,6.159 12.142,5.605 12.058 C 5.121 11.986,4.879 11.986,4.395 12.058 C 2.155 12.396,0.632 14.563,1.083 16.773 C 1.357 18.118,2.249 19.195,3.512 19.704 C 5.560 20.529,7.874 19.540,8.705 17.484 C 8.979 16.806,9.067 15.998,8.940 15.334 C 8.907 15.161,8.880 15.015,8.880 15.010 C 8.880 15.005,9.740 15.000,10.790 14.999 C 12.619 14.998,12.708 14.995,12.880 14.917 C 13.016 14.857,13.488 14.409,14.807 13.092 L 16.553 11.347 16.835 11.909 L 17.116 12.471 16.888 12.613 C 15.481 13.486,14.754 15.162,15.083 16.773 C 15.357 18.118,16.249 19.195,17.512 19.704 C 19.560 20.529,21.874 19.540,22.705 17.484 C 22.994 16.770,23.070 15.976,22.921 15.243 C 22.628 13.806,21.637 12.680,20.245 12.204 C 20.031 12.131,19.347 12.001,19.170 12.000 C 19.143 12.000,18.384 10.527,17.484 8.727 C 16.584 6.928,15.798 5.397,15.739 5.326 C 15.679 5.255,15.556 5.157,15.465 5.108 C 15.306 5.023,15.254 5.020,14.040 5.012 C 13.084 5.005,12.740 5.016,12.614 5.056 M13.100 12.000 L 12.101 13.000 11.001 13.000 L 9.901 13.000 10.900 12.000 L 11.899 11.000 12.999 11.000 L 14.099 11.000 13.100 12.000 M5.523 14.073 C 6.262 14.266,6.850 14.924,6.967 15.690 C 7.067 16.343,6.873 16.933,6.403 17.404 C 6.002 17.807,5.547 18.000,5.000 18.000 C 4.485 18.000,4.038 17.822,3.653 17.465 C 2.323 16.229,3.189 14.005,5.000 14.005 C 5.143 14.005,5.378 14.036,5.523 14.073 M19.523 14.073 C 20.262 14.266,20.850 14.924,20.967 15.690 C 21.067 16.343,20.873 16.933,20.403 17.404 C 20.002 17.807,19.547 18.000,19.000 18.000 C 18.485 18.000,18.038 17.822,17.653 17.465 C 16.323 16.229,17.189 14.005,19.000 14.005 C 19.143 14.005,19.378 14.036,19.523 14.073 " stroke="none" fill="black" fill-rule="evenodd"></path></svg>