<svg xmlns="http://www.w3.org/2000/svg" width="24" height="24" viewBox="0 0 24 24" fill="none" stroke="currentColor" stroke-width="2" stroke-linecap="round" stroke-linejoin="round" class="icon icon-tabler icons-tabler-outline icon-tabler-vinyl"><path d="M11.320 2.026 C 10.395 2.116,9.900 2.207,9.152 2.424 C 6.534 3.184,4.294 5.065,3.039 7.560 C 2.866 7.906,2.554 8.698,2.427 9.120 C 1.976 10.612,1.884 12.249,2.165 13.780 C 2.667 16.511,4.274 18.913,6.600 20.408 C 8.914 21.895,11.753 22.365,14.400 21.698 C 17.881 20.822,20.596 18.217,21.590 14.800 C 21.860 13.873,21.974 13.124,21.977 12.240 C 21.980 11.669,21.973 11.607,21.889 11.450 C 21.720 11.133,21.329 10.969,20.849 11.014 C 20.350 11.060,20.049 11.356,20.016 11.832 C 19.899 13.506,19.785 14.087,19.383 15.059 C 18.116 18.125,15.036 20.111,11.740 19.987 C 9.725 19.911,7.901 19.141,6.465 17.761 C 3.679 15.082,3.206 10.773,5.346 7.572 C 7.537 4.295,11.758 3.098,15.340 4.739 C 16.049 5.064,16.363 5.055,16.674 4.701 C 16.966 4.369,17.092 3.949,17.000 3.619 C 16.901 3.268,16.425 2.973,15.287 2.561 C 14.161 2.152,12.427 1.919,11.320 2.026 M19.477 2.073 C 18.978 2.204,18.449 2.628,18.218 3.084 C 17.891 3.728,17.941 4.534,18.342 5.118 L 18.479 5.317 17.064 9.361 C 16.285 11.585,15.642 13.410,15.634 13.416 C 13.980 14.722,13.179 15.390,13.077 15.551 C 12.809 15.974,13.022 16.587,13.555 16.926 C 13.780 17.068,14.089 17.082,14.337 16.961 C 14.491 16.886,16.909 14.978,17.193 14.707 C 17.267 14.637,17.350 14.535,17.378 14.480 C 17.406 14.425,18.091 12.487,18.900 10.173 L 20.371 5.967 20.496 5.943 C 20.925 5.863,21.554 5.366,21.771 4.937 C 21.994 4.498,22.052 4.007,21.940 3.529 C 21.858 3.182,21.720 2.927,21.465 2.653 C 21.074 2.232,20.560 2.005,20.000 2.005 C 19.857 2.005,19.622 2.036,19.477 2.073 M11.477 10.073 C 10.806 10.249,10.238 10.823,10.060 11.508 C 9.941 11.962,10.003 12.492,10.225 12.930 C 10.361 13.199,10.801 13.639,11.070 13.775 C 11.659 14.073,12.341 14.073,12.930 13.775 C 13.196 13.640,13.638 13.200,13.771 12.937 C 13.994 12.498,14.052 12.007,13.940 11.529 C 13.858 11.182,13.720 10.927,13.465 10.653 C 13.074 10.232,12.560 10.005,12.000 10.005 C 11.857 10.005,11.622 10.036,11.477 10.073 " stroke="none" fill="black" fill-rule="evenodd"></path></svg>