<svg xmlns="http://www.w3.org/2000/svg" width="24" height="24" viewBox="0 0 24 24" fill="none" stroke="currentColor" stroke-width="2" stroke-linecap="round" stroke-linejoin="round" class="icon icon-tabler icons-tabler-outline icon-tabler-user-scan"><path d="M5.499 3.043 C 4.392 3.229,3.479 4.033,3.116 5.140 C 3.029 5.405,3.024 5.492,3.009 6.804 C 2.999 7.715,3.008 8.243,3.037 8.348 C 3.144 8.748,3.430 8.961,3.896 8.991 C 4.381 9.022,4.699 8.882,4.880 8.558 C 4.980 8.381,4.980 8.376,5.001 7.060 C 5.024 5.577,5.025 5.571,5.321 5.283 C 5.593 5.020,5.714 5.000,7.057 5.000 C 7.713 5.000,8.283 4.982,8.365 4.959 C 8.586 4.898,8.770 4.755,8.880 4.558 C 8.967 4.402,8.980 4.332,8.979 4.000 C 8.978 3.567,8.898 3.355,8.678 3.199 C 8.423 3.017,8.269 3.000,6.944 3.005 C 6.260 3.007,5.609 3.025,5.499 3.043 M15.614 3.056 C 15.376 3.133,15.211 3.262,15.109 3.453 C 15.035 3.592,15.020 3.684,15.020 4.000 C 15.020 4.331,15.033 4.403,15.120 4.558 C 15.230 4.755,15.414 4.898,15.635 4.959 C 15.717 4.982,16.287 5.000,16.943 5.000 C 18.308 5.000,18.412 5.018,18.697 5.303 C 18.982 5.588,19.000 5.692,19.000 7.057 C 19.000 7.713,19.018 8.283,19.041 8.365 C 19.148 8.750,19.437 8.962,19.896 8.991 C 20.381 9.022,20.699 8.882,20.880 8.558 L 20.980 8.380 20.980 6.920 C 20.980 5.501,20.977 5.452,20.886 5.160 C 20.581 4.181,19.825 3.421,18.861 3.124 C 18.550 3.028,18.498 3.024,17.160 3.013 C 16.090 3.005,15.743 3.014,15.614 3.056 M11.499 6.040 C 10.363 6.246,9.460 7.049,9.114 8.160 C 8.979 8.594,8.979 9.406,9.114 9.840 C 9.421 10.826,10.174 11.579,11.160 11.886 C 11.594 12.021,12.406 12.021,12.840 11.886 C 13.826 11.579,14.579 10.826,14.886 9.840 C 15.021 9.406,15.021 8.594,14.886 8.160 C 14.581 7.179,13.810 6.407,12.861 6.129 C 12.500 6.023,11.832 5.980,11.499 6.040 M12.310 8.061 C 12.688 8.173,13.000 8.598,13.000 9.001 C 13.000 9.331,12.784 9.696,12.484 9.872 C 12.328 9.963,12.254 9.980,12.000 9.980 C 11.746 9.980,11.672 9.963,11.516 9.872 C 10.935 9.530,10.833 8.774,11.304 8.303 C 11.583 8.024,11.916 7.944,12.310 8.061 M9.499 13.042 C 8.384 13.235,7.455 14.054,7.122 15.140 C 7.018 15.479,6.972 16.113,7.035 16.344 C 7.146 16.749,7.428 16.961,7.896 16.991 C 8.592 17.035,8.918 16.762,8.996 16.072 C 9.045 15.645,9.108 15.490,9.318 15.287 C 9.616 14.997,9.592 15.000,11.980 15.000 C 14.386 15.000,14.387 15.000,14.679 15.283 C 14.892 15.491,14.958 15.650,15.001 16.067 C 15.068 16.718,15.370 17.000,16.000 17.000 C 16.428 17.000,16.713 16.856,16.880 16.558 C 16.971 16.396,16.980 16.338,16.979 15.920 C 16.978 15.555,16.959 15.398,16.885 15.160 C 16.584 14.185,15.829 13.425,14.861 13.122 L 14.540 13.022 12.120 13.015 C 10.789 13.011,9.609 13.023,9.499 13.042 M3.614 15.057 C 3.377 15.131,3.212 15.261,3.109 15.453 C 3.022 15.617,3.020 15.647,3.020 17.080 C 3.020 18.499,3.023 18.548,3.114 18.840 C 3.419 19.817,4.158 20.562,5.140 20.884 C 5.405 20.971,5.492 20.976,6.804 20.991 C 7.715 21.001,8.243 20.992,8.348 20.963 C 8.583 20.900,8.767 20.760,8.880 20.558 C 8.967 20.402,8.980 20.332,8.979 20.000 C 8.977 19.469,8.850 19.243,8.455 19.072 C 8.375 19.037,7.942 19.016,7.020 19.001 L 5.700 18.980 5.516 18.872 C 5.327 18.761,5.157 18.570,5.071 18.373 C 5.037 18.295,5.015 17.854,5.001 16.940 C 4.981 15.672,4.976 15.613,4.891 15.453 C 4.842 15.362,4.746 15.247,4.678 15.199 C 4.414 15.010,3.957 14.950,3.614 15.057 M19.614 15.057 C 19.377 15.131,19.212 15.261,19.109 15.453 C 19.024 15.613,19.019 15.673,18.999 16.940 C 18.984 17.847,18.962 18.295,18.929 18.373 C 18.843 18.570,18.673 18.761,18.484 18.872 L 18.300 18.980 16.979 19.000 C 15.658 19.020,15.657 19.020,15.459 19.122 C 15.119 19.297,14.978 19.606,15.009 20.104 C 15.039 20.570,15.252 20.856,15.652 20.963 C 15.757 20.992,16.285 21.001,17.196 20.991 C 18.508 20.976,18.595 20.971,18.860 20.884 C 19.842 20.562,20.581 19.817,20.886 18.840 C 20.977 18.548,20.980 18.499,20.980 17.080 C 20.980 15.647,20.978 15.617,20.891 15.453 C 20.842 15.362,20.746 15.247,20.678 15.199 C 20.414 15.010,19.957 14.950,19.614 15.057 " stroke="none" fill="black" fill-rule="evenodd"></path></svg>