<svg xmlns="http://www.w3.org/2000/svg" width="24" height="24" viewBox="0 0 24 24" fill="none" stroke="currentColor" stroke-width="2" stroke-linecap="round" stroke-linejoin="round" class="icon icon-tabler icons-tabler-outline icon-tabler-alarm-off"><path d="M2.626 2.045 C 2.257 2.239,1.951 2.673,1.951 3.000 C 1.951 3.313,2.076 3.485,2.925 4.342 L 3.719 5.144 3.544 5.290 C 3.122 5.643,3.093 6.100,3.462 6.602 C 3.863 7.149,4.370 7.187,4.964 6.717 C 5.045 6.652,5.127 6.600,5.146 6.600 C 5.166 6.600,5.395 6.815,5.657 7.077 L 6.133 7.554 5.934 7.787 C 4.972 8.913,4.389 10.166,4.095 11.740 C 3.998 12.257,3.978 13.332,4.055 13.920 C 4.301 15.821,5.098 17.433,6.426 18.722 C 7.109 19.384,7.711 19.807,8.529 20.199 C 11.413 21.581,14.783 21.142,17.213 19.066 L 17.445 18.868 18.953 20.369 C 19.966 21.379,20.518 21.900,20.637 21.960 C 20.989 22.137,21.354 22.048,21.701 21.701 C 22.048 21.355,22.137 20.990,21.961 20.637 C 21.898 20.512,20.698 19.280,17.853 16.420 C 15.643 14.198,13.795 12.340,13.747 12.290 C 13.699 12.241,13.480 12.022,13.260 11.803 C 13.040 11.585,12.815 11.361,12.760 11.305 C 8.434 6.972,3.506 2.111,3.372 2.044 C 3.152 1.934,2.835 1.935,2.626 2.045 M16.557 3.073 C 16.210 3.293,15.960 3.699,15.960 4.040 C 15.960 4.278,16.055 4.486,16.246 4.665 C 16.437 4.843,19.185 6.834,19.396 6.946 C 19.795 7.159,20.225 7.029,20.538 6.602 C 20.911 6.095,20.879 5.646,20.447 5.287 C 20.059 4.965,17.571 3.176,17.364 3.070 C 17.067 2.918,16.800 2.919,16.557 3.073 M11.140 5.046 C 10.616 5.105,9.903 5.267,9.690 5.375 C 9.580 5.431,9.445 5.530,9.390 5.596 C 9.110 5.928,9.185 6.601,9.545 7.000 C 9.789 7.270,10.009 7.294,10.760 7.132 C 11.202 7.037,11.346 7.024,12.000 7.025 C 12.616 7.025,12.811 7.040,13.160 7.115 C 15.604 7.638,17.362 9.396,17.885 11.840 C 17.960 12.189,17.975 12.384,17.975 13.000 C 17.976 13.654,17.963 13.798,17.868 14.240 C 17.809 14.514,17.760 14.826,17.760 14.931 C 17.760 15.312,17.994 15.584,18.442 15.724 C 18.885 15.862,19.215 15.812,19.449 15.570 C 19.663 15.351,19.746 15.112,19.905 14.260 C 19.988 13.815,20.020 12.711,19.965 12.207 C 19.833 11.001,19.383 9.687,18.779 8.740 C 18.189 7.813,17.309 6.922,16.380 6.309 C 14.878 5.318,12.919 4.846,11.140 5.046 M9.287 10.710 L 10.994 12.420 11.007 12.900 C 11.019 13.322,11.033 13.401,11.120 13.558 C 11.307 13.893,11.563 13.999,12.180 14.000 L 12.580 14.000 14.300 15.722 L 16.020 17.445 15.852 17.596 C 15.580 17.841,15.123 18.141,14.697 18.353 C 12.065 19.668,8.942 18.917,7.159 16.540 C 6.888 16.178,6.451 15.329,6.304 14.880 C 5.914 13.684,5.913 12.335,6.302 11.137 C 6.444 10.700,6.759 10.050,7.017 9.663 C 7.241 9.328,7.506 9.000,7.553 9.000 C 7.568 9.000,8.348 9.770,9.287 10.710 " stroke="none" fill="black" fill-rule="evenodd"></path></svg>