<svg xmlns="http://www.w3.org/2000/svg" width="24" height="24" viewBox="0 0 24 24" fill="none" stroke="currentColor" stroke-width="2" stroke-linecap="round" stroke-linejoin="round" class="icon icon-tabler icons-tabler-outline icon-tabler-arrow-loop-left"><path d="M16.400 3.044 C 14.761 3.229,13.261 4.290,12.526 5.785 C 12.345 6.153,12.194 6.578,12.096 7.000 C 12.037 7.256,12.024 7.571,12.011 9.150 L 11.995 11.000 9.209 11.000 L 6.423 11.000 7.647 9.770 C 8.452 8.961,8.901 8.479,8.960 8.363 C 9.137 8.011,9.048 7.646,8.701 7.299 C 8.361 6.959,7.980 6.868,7.628 7.044 C 7.518 7.099,6.768 7.817,5.460 9.118 C 4.360 10.213,3.399 11.150,3.324 11.201 C 3.149 11.321,2.951 11.745,2.951 12.000 C 2.951 12.239,3.150 12.682,3.304 12.784 C 3.366 12.826,4.327 13.763,5.439 14.866 C 6.818 16.234,7.516 16.899,7.637 16.960 C 7.989 17.137,8.354 17.048,8.701 16.701 C 9.048 16.354,9.137 15.989,8.960 15.637 C 8.901 15.521,8.452 15.039,7.647 14.230 L 6.423 13.000 9.211 13.000 L 12.000 13.000 12.000 17.110 C 12.000 19.740,12.015 21.272,12.041 21.365 C 12.148 21.750,12.437 21.962,12.896 21.991 C 13.381 22.022,13.699 21.882,13.880 21.558 L 13.980 21.380 13.991 17.193 L 14.002 13.005 15.851 12.989 C 17.429 12.976,17.744 12.963,18.000 12.904 C 19.531 12.548,20.756 11.614,21.433 10.288 C 21.838 9.494,21.980 8.899,21.980 8.000 C 21.980 7.101,21.838 6.506,21.433 5.713 C 20.794 4.461,19.604 3.510,18.240 3.162 C 17.669 3.016,17.019 2.974,16.400 3.044 M17.861 5.129 C 18.804 5.405,19.584 6.183,19.875 7.139 C 19.958 7.412,19.973 7.542,19.973 8.000 C 19.973 8.458,19.958 8.588,19.875 8.861 C 19.585 9.811,18.838 10.562,17.860 10.884 C 17.587 10.974,17.533 10.977,15.787 10.991 L 13.995 11.005 14.009 9.233 C 14.023 7.476,14.024 7.457,14.123 7.139 C 14.462 6.049,15.371 5.245,16.499 5.040 C 16.832 4.980,17.500 5.023,17.861 5.129 " stroke="none" fill="black" fill-rule="evenodd"></path></svg>