<svg xmlns="http://www.w3.org/2000/svg" width="24" height="24" viewBox="0 0 24 24" fill="none" stroke="currentColor" stroke-width="2" stroke-linecap="round" stroke-linejoin="round" class="icon icon-tabler icons-tabler-outline icon-tabler-paper-bag"><path d="M7.499 2.043 C 6.388 2.232,5.478 3.033,5.116 4.140 C 5.029 4.409,5.024 4.490,5.002 6.120 L 4.980 7.820 4.232 9.306 C 3.464 10.831,3.266 11.309,3.110 12.014 C 3.020 12.418,3.020 12.436,3.020 15.980 L 3.020 19.540 3.114 19.840 C 3.422 20.827,4.173 21.578,5.160 21.886 L 5.460 21.980 12.000 21.980 L 18.540 21.980 18.840 21.886 C 19.827 21.578,20.578 20.827,20.886 19.840 L 20.980 19.540 20.980 16.000 C 20.980 11.501,21.046 11.896,19.918 9.600 C 19.003 7.737,19.038 7.879,19.001 5.920 C 18.974 4.517,18.967 4.402,18.882 4.140 C 18.571 3.172,17.822 2.425,16.861 2.121 L 16.540 2.020 12.120 2.014 C 9.689 2.011,7.609 2.024,7.499 2.043 M16.308 4.060 C 16.438 4.099,16.571 4.179,16.679 4.283 C 16.976 4.572,16.975 4.567,17.003 6.160 C 17.039 8.213,17.073 8.345,18.082 10.400 C 18.604 11.462,18.785 11.872,18.869 12.180 L 18.977 12.580 18.992 15.800 C 19.002 18.076,18.993 19.080,18.962 19.224 C 18.905 19.485,18.723 19.731,18.486 19.871 L 18.300 19.980 13.565 19.991 C 9.186 20.000,8.833 19.996,8.856 19.935 C 8.974 19.628,8.980 19.447,8.980 15.980 C 8.980 12.729,8.974 12.432,8.907 12.100 C 8.758 11.366,8.580 10.927,7.778 9.317 L 7.000 7.757 7.000 6.326 C 7.000 4.663,7.010 4.596,7.304 4.303 C 7.618 3.989,7.346 4.006,11.983 4.003 C 15.542 4.000,16.133 4.008,16.308 4.060 M10.614 6.057 C 10.377 6.131,10.212 6.261,10.109 6.453 C 10.035 6.592,10.020 6.684,10.020 7.000 C 10.020 7.331,10.033 7.403,10.120 7.558 C 10.230 7.755,10.414 7.898,10.635 7.959 C 10.826 8.012,13.174 8.012,13.365 7.959 C 13.586 7.898,13.770 7.755,13.880 7.558 C 13.967 7.402,13.980 7.332,13.979 7.000 C 13.978 6.687,13.962 6.591,13.890 6.453 C 13.786 6.256,13.623 6.131,13.371 6.055 C 13.117 5.979,10.859 5.981,10.614 6.057 M6.394 11.034 C 6.637 11.531,6.798 11.922,6.869 12.184 L 6.977 12.580 6.992 15.800 C 7.002 18.076,6.993 19.080,6.962 19.224 C 6.905 19.485,6.723 19.731,6.486 19.871 C 6.328 19.964,6.255 19.980,6.000 19.980 C 5.746 19.980,5.672 19.963,5.516 19.872 C 5.415 19.813,5.283 19.700,5.224 19.621 C 4.988 19.313,4.995 19.430,5.009 15.855 L 5.022 12.580 5.130 12.184 C 5.202 11.923,5.364 11.530,5.606 11.034 C 5.808 10.619,5.986 10.280,6.000 10.280 C 6.014 10.280,6.192 10.619,6.394 11.034 M13.499 12.040 C 12.363 12.246,11.460 13.049,11.114 14.160 C 10.979 14.594,10.979 15.406,11.114 15.840 C 11.421 16.826,12.174 17.579,13.160 17.886 C 13.594 18.021,14.406 18.021,14.840 17.886 C 15.826 17.579,16.579 16.826,16.886 15.840 C 17.021 15.406,17.021 14.594,16.886 14.160 C 16.581 13.179,15.810 12.407,14.861 12.129 C 14.500 12.023,13.832 11.980,13.499 12.040 M14.310 14.061 C 14.688 14.173,15.000 14.598,15.000 15.001 C 15.000 15.331,14.784 15.696,14.484 15.872 C 14.328 15.963,14.254 15.980,14.000 15.980 C 13.746 15.980,13.672 15.963,13.516 15.872 C 12.935 15.530,12.833 14.774,13.304 14.303 C 13.583 14.024,13.916 13.944,14.310 14.061 " stroke="none" fill="black" fill-rule="evenodd"></path></svg>