<svg xmlns="http://www.w3.org/2000/svg" width="24" height="24" viewBox="0 0 24 24" fill="none" stroke="currentColor" stroke-width="2" stroke-linecap="round" stroke-linejoin="round" class="icon icon-tabler icons-tabler-outline icon-tabler-circle-letter-b"><path d="M11.080 2.045 C 9.507 2.184,7.883 2.751,6.540 3.630 C 5.905 4.045,5.499 4.378,4.919 4.958 C 2.953 6.926,1.919 9.544,2.013 12.320 C 2.084 14.439,2.752 16.328,4.033 18.040 C 4.430 18.570,5.305 19.464,5.800 19.847 C 7.242 20.961,8.787 21.624,10.600 21.907 C 11.247 22.008,12.753 22.008,13.400 21.907 C 15.638 21.557,17.504 20.620,19.062 19.062 C 20.620 17.504,21.557 15.638,21.907 13.400 C 22.008 12.753,22.008 11.247,21.907 10.600 C 21.624 8.786,20.959 7.238,19.847 5.800 C 19.510 5.365,18.639 4.494,18.200 4.154 C 16.133 2.555,13.646 1.818,11.080 2.045 M12.734 4.041 C 14.574 4.216,16.228 4.976,17.554 6.256 C 20.043 8.658,20.702 12.394,19.183 15.499 C 18.749 16.387,18.223 17.105,17.496 17.801 C 16.876 18.394,16.262 18.819,15.471 19.200 C 13.267 20.265,10.733 20.265,8.529 19.200 C 7.477 18.693,6.612 18.015,5.847 17.100 C 3.848 14.711,3.440 11.302,4.816 8.500 C 6.162 5.760,8.867 4.049,11.920 4.005 C 12.129 4.003,12.495 4.019,12.734 4.041 M9.614 7.056 C 9.376 7.133,9.212 7.262,9.109 7.453 L 9.020 7.620 9.009 11.913 C 9.002 14.727,9.013 16.258,9.039 16.357 C 9.100 16.584,9.242 16.768,9.442 16.880 L 9.620 16.980 11.080 16.980 C 12.499 16.980,12.548 16.977,12.840 16.886 C 13.827 16.578,14.579 15.826,14.886 14.840 C 15.021 14.406,15.021 13.593,14.886 13.161 C 14.766 12.779,14.609 12.470,14.402 12.208 L 14.238 12.000 14.402 11.792 C 14.609 11.530,14.766 11.221,14.886 10.839 C 15.021 10.407,15.021 9.594,14.886 9.160 C 14.581 8.182,13.825 7.421,12.861 7.124 C 12.550 7.028,12.498 7.024,11.160 7.013 C 10.090 7.005,9.743 7.014,9.614 7.056 M12.310 9.061 C 12.688 9.173,13.000 9.598,13.000 10.001 C 13.000 10.331,12.784 10.696,12.484 10.872 C 12.308 10.975,12.272 10.981,11.650 10.993 L 11.000 11.007 11.000 10.003 L 11.000 9.000 11.553 9.000 C 11.931 9.000,12.170 9.019,12.310 9.061 M12.310 13.061 C 12.688 13.173,13.000 13.598,13.000 14.001 C 13.000 14.331,12.784 14.696,12.484 14.872 C 12.308 14.975,12.272 14.981,11.650 14.993 L 11.000 15.007 11.000 14.003 L 11.000 13.000 11.553 13.000 C 11.931 13.000,12.170 13.019,12.310 13.061 " stroke="none" fill="black" fill-rule="evenodd"></path></svg>