<svg xmlns="http://www.w3.org/2000/svg" width="24" height="24" viewBox="0 0 24 24" fill="none" stroke="currentColor" stroke-width="2" stroke-linecap="round" stroke-linejoin="round" class="icon icon-tabler icons-tabler-outline icon-tabler-sunset"><path d="M11.614 2.057 C 11.377 2.131,11.212 2.261,11.109 2.453 C 11.021 2.618,11.020 2.640,11.009 4.596 L 10.997 6.572 10.269 5.852 C 9.856 5.443,9.467 5.094,9.372 5.045 C 9.021 4.868,8.640 4.958,8.299 5.299 C 7.952 5.646,7.863 6.011,8.040 6.363 C 8.099 6.480,8.635 7.051,9.635 8.062 C 10.463 8.899,11.174 9.634,11.216 9.697 C 11.318 9.850,11.762 10.049,12.002 10.049 C 12.111 10.049,12.257 10.013,12.363 9.961 C 12.610 9.837,15.837 6.610,15.961 6.363 C 16.137 6.010,16.048 5.645,15.701 5.299 C 15.360 4.958,14.979 4.868,14.628 5.045 C 14.533 5.094,14.144 5.443,13.732 5.851 L 13.004 6.572 12.992 4.596 C 12.980 2.640,12.979 2.618,12.891 2.453 C 12.842 2.362,12.746 2.247,12.678 2.199 C 12.414 2.010,11.957 1.950,11.614 2.057 M5.226 9.645 C 4.857 9.839,4.551 10.273,4.551 10.600 C 4.551 10.897,4.682 11.093,5.274 11.684 C 5.882 12.289,6.046 12.388,6.384 12.350 C 6.795 12.303,7.311 11.778,7.350 11.365 C 7.381 11.045,7.266 10.859,6.664 10.255 C 6.376 9.966,6.064 9.691,5.972 9.645 C 5.752 9.534,5.435 9.534,5.226 9.645 M18.020 9.647 C 17.782 9.770,16.822 10.744,16.723 10.961 C 16.558 11.325,16.651 11.662,17.017 12.018 C 17.400 12.393,17.766 12.453,18.152 12.205 C 18.417 12.035,19.249 11.179,19.359 10.961 C 19.537 10.612,19.448 10.246,19.101 9.899 C 18.761 9.559,18.366 9.467,18.020 9.647 M11.400 12.044 C 9.761 12.229,8.261 13.290,7.526 14.785 C 7.213 15.421,7.046 16.061,7.011 16.760 C 6.980 17.391,7.093 17.686,7.438 17.876 C 7.644 17.990,8.089 18.033,8.344 17.965 C 8.796 17.842,8.948 17.602,9.003 16.923 C 9.024 16.659,9.083 16.302,9.132 16.131 C 9.402 15.199,10.186 14.415,11.139 14.125 C 11.412 14.042,11.542 14.027,12.000 14.027 C 12.458 14.027,12.588 14.042,12.861 14.125 C 13.815 14.416,14.598 15.199,14.869 16.134 C 14.921 16.315,14.975 16.652,14.995 16.922 C 15.023 17.299,15.049 17.428,15.125 17.565 C 15.286 17.856,15.575 18.000,16.000 18.000 C 16.428 18.000,16.713 17.856,16.880 17.558 C 16.972 17.394,16.980 17.340,16.979 16.880 C 16.977 15.079,15.887 13.362,14.213 12.525 C 13.352 12.095,12.397 11.932,11.400 12.044 M2.614 16.057 C 2.377 16.131,2.212 16.261,2.109 16.453 C 2.035 16.592,2.020 16.684,2.020 17.000 C 2.020 17.331,2.033 17.403,2.120 17.558 C 2.230 17.755,2.414 17.898,2.635 17.959 C 2.823 18.012,4.177 18.012,4.365 17.959 C 4.586 17.898,4.770 17.755,4.880 17.558 C 4.967 17.402,4.980 17.332,4.979 17.000 C 4.978 16.687,4.962 16.591,4.890 16.453 C 4.786 16.256,4.623 16.131,4.371 16.055 C 4.126 15.982,2.851 15.983,2.614 16.057 M19.614 16.057 C 19.377 16.131,19.212 16.261,19.109 16.453 C 19.035 16.592,19.020 16.684,19.020 17.000 C 19.020 17.331,19.033 17.403,19.120 17.558 C 19.230 17.755,19.414 17.898,19.635 17.959 C 19.823 18.012,21.177 18.012,21.365 17.959 C 21.586 17.898,21.770 17.755,21.880 17.558 C 21.967 17.402,21.980 17.332,21.979 17.000 C 21.978 16.687,21.962 16.591,21.890 16.453 C 21.786 16.256,21.623 16.131,21.371 16.055 C 21.126 15.982,19.851 15.983,19.614 16.057 M2.614 20.057 C 2.377 20.131,2.212 20.261,2.109 20.453 C 2.035 20.592,2.020 20.684,2.020 21.000 C 2.020 21.331,2.033 21.403,2.120 21.558 C 2.230 21.755,2.414 21.898,2.635 21.959 C 2.835 22.015,21.165 22.015,21.365 21.959 C 21.586 21.898,21.770 21.755,21.880 21.558 C 21.967 21.402,21.980 21.332,21.979 21.000 C 21.978 20.567,21.898 20.355,21.678 20.199 C 21.385 19.990,21.877 20.000,11.984 20.003 C 4.546 20.005,2.748 20.015,2.614 20.057 " stroke="none" fill="black" fill-rule="evenodd"></path></svg>