<svg xmlns="http://www.w3.org/2000/svg" width="24" height="24" viewBox="0 0 24 24" fill="none" stroke="currentColor" stroke-width="2" stroke-linecap="round" stroke-linejoin="round" class="icon icon-tabler icons-tabler-outline icon-tabler-border-bottom-plus"><path d="M3.640 3.035 C 3.469 3.091,3.304 3.188,3.214 3.286 C 3.092 3.419,3.000 3.724,3.000 3.991 C 3.001 4.619,3.300 4.953,3.896 4.991 C 4.578 5.034,4.941 4.741,4.988 4.110 C 5.040 3.404,4.730 3.037,4.062 3.014 C 3.885 3.007,3.695 3.017,3.640 3.035 M7.640 3.035 C 7.469 3.091,7.304 3.188,7.214 3.286 C 7.092 3.419,7.000 3.724,7.000 3.991 C 7.001 4.619,7.300 4.953,7.896 4.991 C 8.578 5.034,8.941 4.741,8.988 4.110 C 9.040 3.404,8.730 3.037,8.062 3.014 C 7.885 3.007,7.695 3.017,7.640 3.035 M11.640 3.035 C 11.469 3.091,11.304 3.188,11.214 3.286 C 11.092 3.419,11.000 3.724,11.000 3.991 C 11.001 4.619,11.300 4.953,11.896 4.991 C 12.578 5.034,12.941 4.741,12.988 4.110 C 13.040 3.404,12.730 3.037,12.062 3.014 C 11.885 3.007,11.695 3.017,11.640 3.035 M15.640 3.035 C 15.469 3.091,15.304 3.188,15.214 3.286 C 15.092 3.419,15.000 3.724,15.000 3.991 C 15.001 4.619,15.300 4.953,15.896 4.991 C 16.578 5.034,16.941 4.741,16.988 4.110 C 17.040 3.404,16.730 3.037,16.062 3.014 C 15.885 3.007,15.695 3.017,15.640 3.035 M19.640 3.035 C 19.469 3.091,19.304 3.188,19.214 3.286 C 19.092 3.419,19.000 3.724,19.000 3.991 C 19.001 4.619,19.300 4.953,19.896 4.991 C 20.578 5.034,20.941 4.741,20.988 4.110 C 21.040 3.404,20.730 3.037,20.062 3.014 C 19.885 3.007,19.695 3.017,19.640 3.035 M3.640 7.035 C 3.469 7.091,3.304 7.188,3.214 7.286 C 3.092 7.419,3.000 7.724,3.000 7.991 C 3.001 8.619,3.300 8.953,3.896 8.991 C 4.578 9.034,4.941 8.741,4.988 8.110 C 5.040 7.404,4.730 7.037,4.062 7.014 C 3.885 7.007,3.695 7.017,3.640 7.035 M19.640 7.035 C 19.469 7.091,19.304 7.188,19.214 7.286 C 19.092 7.419,19.000 7.724,19.000 7.991 C 19.001 8.619,19.300 8.953,19.896 8.991 C 20.578 9.034,20.941 8.741,20.988 8.110 C 21.040 7.404,20.730 7.037,20.062 7.014 C 19.885 7.007,19.695 7.017,19.640 7.035 M11.614 8.057 C 11.377 8.131,11.212 8.261,11.109 8.453 C 11.024 8.613,11.020 8.668,11.008 9.810 L 10.996 11.000 9.904 11.000 C 8.744 11.000,8.570 11.022,8.322 11.199 C 8.100 11.357,8.020 11.568,8.020 12.000 C 8.020 12.331,8.033 12.403,8.120 12.558 C 8.230 12.755,8.414 12.898,8.635 12.959 C 8.716 12.982,9.270 13.000,9.890 13.000 L 11.000 13.000 11.000 14.110 C 11.000 14.730,11.018 15.284,11.041 15.365 C 11.148 15.750,11.437 15.962,11.896 15.991 C 12.381 16.022,12.699 15.882,12.880 15.558 C 12.979 15.381,12.980 15.374,12.993 14.190 L 13.005 13.000 14.113 13.000 C 14.731 13.000,15.284 12.982,15.365 12.959 C 15.586 12.898,15.770 12.755,15.880 12.558 C 15.967 12.402,15.980 12.332,15.979 12.000 C 15.978 11.567,15.898 11.355,15.678 11.199 C 15.430 11.022,15.256 11.000,14.096 11.000 L 13.005 11.000 12.993 9.810 C 12.981 8.669,12.976 8.613,12.891 8.453 C 12.842 8.362,12.746 8.247,12.678 8.199 C 12.414 8.010,11.957 7.950,11.614 8.057 M3.640 11.035 C 3.469 11.091,3.304 11.188,3.214 11.286 C 3.092 11.419,3.000 11.724,3.000 11.991 C 3.001 12.619,3.300 12.953,3.896 12.991 C 4.578 13.034,4.941 12.741,4.988 12.110 C 5.040 11.404,4.730 11.037,4.062 11.014 C 3.885 11.007,3.695 11.017,3.640 11.035 M19.640 11.035 C 19.469 11.091,19.304 11.188,19.214 11.286 C 19.092 11.419,19.000 11.724,19.000 11.991 C 19.001 12.619,19.300 12.953,19.896 12.991 C 20.578 13.034,20.941 12.741,20.988 12.110 C 21.040 11.404,20.730 11.037,20.062 11.014 C 19.885 11.007,19.695 11.017,19.640 11.035 M3.640 15.035 C 3.469 15.091,3.304 15.188,3.214 15.286 C 3.092 15.419,3.000 15.724,3.000 15.991 C 3.001 16.619,3.300 16.953,3.896 16.991 C 4.578 17.034,4.941 16.741,4.988 16.110 C 5.040 15.404,4.730 15.037,4.062 15.014 C 3.885 15.007,3.695 15.017,3.640 15.035 M19.640 15.035 C 19.469 15.091,19.304 15.188,19.214 15.286 C 19.092 15.419,19.000 15.724,19.000 15.991 C 19.001 16.619,19.300 16.953,19.896 16.991 C 20.578 17.034,20.941 16.741,20.988 16.110 C 21.040 15.404,20.730 15.037,20.062 15.014 C 19.885 15.007,19.695 15.017,19.640 15.035 M3.614 19.057 C 3.377 19.131,3.212 19.261,3.109 19.453 C 3.035 19.592,3.020 19.684,3.020 20.000 C 3.020 20.331,3.033 20.403,3.120 20.558 C 3.230 20.755,3.414 20.898,3.635 20.959 C 3.835 21.015,20.165 21.015,20.365 20.959 C 20.586 20.898,20.770 20.755,20.880 20.558 C 20.967 20.402,20.980 20.332,20.979 20.000 C 20.978 19.567,20.898 19.355,20.678 19.199 C 20.386 18.990,20.799 19.000,11.984 19.003 C 5.367 19.005,3.748 19.015,3.614 19.057 " stroke="none" fill="black" fill-rule="evenodd"></path></svg>