<svg xmlns="http://www.w3.org/2000/svg" width="24" height="24" viewBox="0 0 24 24" fill="none" stroke="currentColor" stroke-width="2" stroke-linecap="round" stroke-linejoin="round" class="icon icon-tabler icons-tabler-outline icon-tabler-file-import"><path d="M6.499 2.043 C 5.393 2.228,4.488 3.024,4.114 4.140 L 4.020 4.420 4.009 8.811 C 4.001 11.726,4.011 13.254,4.039 13.355 C 4.144 13.747,4.433 13.961,4.896 13.991 C 5.381 14.022,5.699 13.882,5.880 13.558 L 5.980 13.380 6.000 9.060 C 6.022 4.219,5.997 4.598,6.321 4.283 C 6.622 3.992,6.514 4.000,9.947 4.000 L 13.000 4.000 13.000 5.632 C 13.000 7.399,13.010 7.507,13.225 7.930 C 13.361 8.199,13.801 8.639,14.070 8.775 C 14.493 8.990,14.601 9.000,16.368 9.000 L 18.000 9.000 18.000 14.054 C 18.000 18.220,17.990 19.139,17.945 19.290 C 17.872 19.533,17.707 19.740,17.484 19.872 L 17.300 19.980 14.220 20.000 C 10.834 20.022,10.997 20.010,10.752 20.267 C 10.583 20.444,10.513 20.658,10.512 21.000 C 10.509 21.530,10.739 21.866,11.167 21.959 C 11.321 21.993,12.237 22.002,14.480 21.992 L 17.580 21.979 17.860 21.886 C 18.849 21.555,19.582 20.816,19.886 19.840 L 19.980 19.540 19.980 13.580 L 19.980 7.620 19.890 7.452 C 19.841 7.360,19.724 7.231,19.630 7.165 C 19.498 7.073,15.263 2.838,14.719 2.254 C 14.473 1.991,14.626 2.000,10.463 2.005 C 8.393 2.007,6.609 2.025,6.499 2.043 M15.800 6.220 L 16.579 7.000 15.790 7.000 L 15.000 7.000 15.000 6.220 C 15.000 5.791,15.005 5.440,15.010 5.440 C 15.016 5.440,15.371 5.791,15.800 6.220 M5.626 15.045 C 5.257 15.239,4.951 15.673,4.951 16.000 C 4.951 16.307,5.079 16.487,5.853 17.270 L 6.575 18.000 4.194 18.000 C 1.653 18.000,1.595 18.004,1.322 18.199 C 1.100 18.357,1.020 18.568,1.020 19.000 C 1.020 19.331,1.033 19.403,1.120 19.558 C 1.230 19.755,1.414 19.898,1.635 19.959 C 1.725 19.984,2.695 20.000,4.178 20.000 L 6.575 20.000 5.853 20.730 C 5.420 21.168,5.095 21.531,5.041 21.637 C 4.863 21.988,4.952 22.354,5.299 22.701 C 5.646 23.048,6.011 23.137,6.363 22.960 C 6.480 22.901,7.051 22.365,8.062 21.365 C 8.899 20.537,9.634 19.826,9.697 19.784 C 9.850 19.682,10.049 19.238,10.049 19.000 C 10.049 18.745,9.851 18.321,9.676 18.201 C 9.601 18.150,8.865 17.438,8.040 16.618 C 7.085 15.670,6.479 15.098,6.372 15.044 C 6.152 14.934,5.835 14.934,5.626 15.045 " stroke="none" fill="black" fill-rule="evenodd"></path></svg>