<svg xmlns="http://www.w3.org/2000/svg" width="24" height="24" viewBox="0 0 24 24" fill="none" stroke="currentColor" stroke-width="2" stroke-linecap="round" stroke-linejoin="round" class="icon icon-tabler icons-tabler-outline icon-tabler-galaxy"><path d="M11.660 2.054 C 11.549 2.105,11.342 2.243,11.200 2.361 C 9.964 3.376,9.262 4.732,9.056 6.500 C 8.914 7.719,9.069 9.071,9.465 10.072 C 9.593 10.395,9.901 11.019,10.005 11.166 C 10.046 11.225,10.080 11.283,10.080 11.296 C 10.080 11.336,9.842 11.323,9.437 11.262 C 7.847 11.022,6.143 9.837,5.553 8.560 C 5.370 8.166,5.323 8.017,5.235 7.561 C 5.140 7.073,5.076 6.902,4.928 6.747 C 4.785 6.597,4.712 6.560,4.480 6.523 C 3.890 6.430,3.356 6.692,3.236 7.132 C 3.100 7.636,3.433 8.916,3.934 9.812 C 4.405 10.654,5.313 11.555,6.318 12.177 C 7.485 12.899,8.591 13.247,9.925 13.314 L 10.446 13.340 10.236 13.640 C 9.493 14.702,8.076 15.586,6.745 15.818 C 6.045 15.940,5.419 15.879,4.699 15.619 C 3.960 15.351,3.572 15.481,3.306 16.083 C 2.941 16.909,3.306 17.346,4.660 17.700 C 5.270 17.860,5.588 17.893,6.291 17.868 C 7.271 17.834,8.105 17.609,9.096 17.114 C 10.466 16.429,11.509 15.478,12.193 14.290 C 12.272 14.153,12.349 14.040,12.363 14.040 C 12.377 14.040,12.465 14.204,12.558 14.404 C 12.906 15.154,13.046 16.045,12.967 17.011 C 12.851 18.446,12.424 19.325,11.429 20.180 C 11.258 20.327,11.082 20.517,11.039 20.602 C 10.828 21.015,11.061 21.612,11.555 21.926 C 11.903 22.146,12.293 22.056,12.800 21.639 C 14.070 20.596,14.772 19.199,14.962 17.340 C 15.020 16.771,14.992 15.772,14.903 15.288 C 14.821 14.834,14.662 14.250,14.535 13.928 C 14.407 13.605,14.099 12.981,13.995 12.834 C 13.954 12.775,13.920 12.715,13.920 12.699 C 13.920 12.663,14.359 12.706,14.791 12.783 C 16.078 13.015,17.546 13.981,18.219 15.040 C 18.488 15.462,18.635 15.837,18.758 16.412 C 18.822 16.710,18.902 17.006,18.935 17.071 C 19.109 17.407,19.521 17.570,19.975 17.480 C 20.786 17.321,20.957 16.845,20.642 15.629 C 20.250 14.120,19.400 12.984,17.924 11.997 C 16.641 11.139,15.562 10.775,14.047 10.688 L 13.554 10.660 13.764 10.360 C 14.052 9.948,14.630 9.387,15.055 9.105 C 15.515 8.801,16.289 8.430,16.724 8.305 C 17.642 8.041,18.375 8.061,19.277 8.375 C 19.731 8.533,20.044 8.562,20.232 8.463 C 20.611 8.265,20.909 7.605,20.801 7.204 C 20.716 6.889,20.456 6.679,19.890 6.469 C 19.163 6.200,18.507 6.099,17.693 6.132 C 16.715 6.172,15.969 6.374,14.940 6.878 C 13.541 7.563,12.504 8.500,11.807 9.710 C 11.728 9.847,11.651 9.960,11.637 9.960 C 11.623 9.960,11.535 9.796,11.442 9.596 C 11.122 8.907,10.972 8.056,11.018 7.201 C 11.101 5.674,11.532 4.715,12.517 3.869 C 12.725 3.690,12.914 3.490,12.960 3.400 C 13.171 2.986,12.938 2.387,12.443 2.073 C 12.213 1.928,11.946 1.921,11.660 2.054 " stroke="none" fill="black" fill-rule="evenodd"></path></svg>