<svg xmlns="http://www.w3.org/2000/svg" width="24" height="24" viewBox="0 0 24 24" fill="none" stroke="currentColor" stroke-width="2" stroke-linecap="round" stroke-linejoin="round" class="icon icon-tabler icons-tabler-outline icon-tabler-arrow-fork"><path d="M2.597 2.050 C 2.507 2.088,2.378 2.159,2.311 2.207 C 2.165 2.310,1.959 2.739,1.963 2.929 C 1.965 3.001,1.978 4.257,1.993 5.720 L 2.020 8.380 2.120 8.558 C 2.287 8.856,2.572 9.000,3.000 9.000 C 3.428 9.000,3.713 8.856,3.880 8.558 L 3.980 8.380 4.000 6.909 L 4.020 5.439 7.083 8.509 C 9.023 10.454,10.201 11.664,10.296 11.810 C 10.491 12.113,10.695 12.528,10.799 12.837 C 10.991 13.406,10.999 13.610,11.000 17.540 C 11.000 19.881,11.015 21.273,11.041 21.365 C 11.148 21.750,11.437 21.962,11.896 21.991 C 12.381 22.022,12.699 21.882,12.880 21.558 L 12.980 21.380 13.002 17.420 C 13.024 13.545,13.026 13.453,13.109 13.140 C 13.263 12.563,13.508 12.064,13.865 11.600 C 13.958 11.479,15.376 10.039,17.017 8.400 L 20.000 5.420 20.000 6.820 C 20.000 7.634,20.017 8.281,20.041 8.365 C 20.148 8.750,20.437 8.962,20.896 8.991 C 21.381 9.022,21.699 8.882,21.880 8.558 L 21.980 8.380 22.007 5.720 C 22.022 4.257,22.036 3.001,22.037 2.929 C 22.041 2.738,21.834 2.310,21.688 2.206 C 21.371 1.980,21.493 1.988,18.526 1.997 C 15.627 2.006,15.588 2.009,15.322 2.199 C 15.100 2.357,15.020 2.568,15.020 3.000 C 15.020 3.331,15.033 3.403,15.120 3.558 C 15.230 3.755,15.414 3.898,15.635 3.959 C 15.719 3.983,16.365 4.000,17.179 4.000 L 18.577 4.000 15.496 7.090 C 13.757 8.834,12.329 10.298,12.219 10.450 C 12.112 10.598,12.014 10.720,12.000 10.720 C 11.986 10.720,11.888 10.598,11.781 10.450 C 11.671 10.298,10.243 8.834,8.504 7.090 L 5.423 4.000 6.821 4.000 C 7.635 4.000,8.281 3.983,8.365 3.959 C 8.586 3.898,8.770 3.755,8.880 3.558 C 8.967 3.402,8.980 3.332,8.979 3.000 C 8.978 2.685,8.963 2.591,8.888 2.450 C 8.784 2.252,8.574 2.102,8.320 2.043 C 8.207 2.017,7.138 1.997,5.451 1.991 C 2.966 1.981,2.749 1.985,2.597 2.050 " stroke="none" fill="black" fill-rule="evenodd"></path></svg>