<svg xmlns="http://www.w3.org/2000/svg" width="24" height="24" viewBox="0 0 24 24" fill="none" stroke="currentColor" stroke-width="2" stroke-linecap="round" stroke-linejoin="round" class="icon icon-tabler icons-tabler-outline icon-tabler-brand-supernova"><path d="M11.540 2.040 C 10.275 2.271,9.168 3.422,8.545 5.153 C 8.262 5.939,8.119 6.641,8.019 7.729 C 7.990 8.040,8.073 8.002,7.260 8.080 C 4.715 8.325,2.669 9.566,2.127 11.193 C 2.040 11.457,2.025 11.571,2.025 12.000 C 2.025 12.429,2.040 12.543,2.127 12.807 C 2.454 13.787,3.301 14.630,4.531 15.198 C 5.449 15.622,6.435 15.864,7.727 15.981 L 7.994 16.006 8.019 16.273 C 8.096 17.118,8.181 17.623,8.343 18.207 C 8.877 20.129,9.896 21.441,11.193 21.873 C 11.457 21.960,11.571 21.975,12.000 21.975 C 12.429 21.975,12.543 21.960,12.807 21.873 C 13.782 21.548,14.605 20.725,15.182 19.500 C 15.617 18.575,15.862 17.585,15.981 16.273 L 16.006 16.006 16.273 15.981 C 17.585 15.862,18.575 15.617,19.500 15.182 C 20.725 14.605,21.548 13.782,21.873 12.807 C 21.960 12.543,21.975 12.429,21.975 12.000 C 21.975 11.571,21.960 11.457,21.873 11.193 C 21.331 9.566,19.285 8.325,16.740 8.080 C 15.927 8.002,16.010 8.040,15.982 7.729 C 15.862 6.414,15.617 5.426,15.182 4.500 C 14.604 3.272,13.767 2.437,12.808 2.133 C 12.465 2.024,11.869 1.980,11.540 2.040 M12.350 4.103 C 12.893 4.373,13.487 5.354,13.754 6.420 C 13.841 6.767,13.943 7.422,13.976 7.845 L 13.996 8.110 13.688 8.158 C 12.563 8.335,11.441 8.770,10.501 9.396 L 10.085 9.672 10.052 9.446 C 10.035 9.322,10.021 8.860,10.023 8.420 C 10.026 7.295,10.153 6.542,10.482 5.700 C 10.874 4.696,11.496 4.000,12.000 4.000 C 12.079 4.000,12.237 4.046,12.350 4.103 M8.139 10.226 C 8.181 10.561,8.375 11.324,8.540 11.800 C 8.738 12.370,9.019 12.932,9.374 13.467 C 9.650 13.883,9.665 13.915,9.585 13.938 C 9.397 13.993,8.124 14.009,7.640 13.963 C 6.221 13.828,4.958 13.338,4.348 12.684 C 3.994 12.306,3.924 12.009,4.103 11.650 C 4.497 10.858,6.132 10.136,7.780 10.028 C 7.890 10.020,8.009 10.011,8.045 10.007 C 8.096 10.002,8.117 10.050,8.139 10.226 M16.940 10.117 C 18.054 10.302,18.987 10.696,19.556 11.223 C 19.822 11.469,20.000 11.781,19.999 11.998 C 19.995 12.712,18.792 13.508,17.220 13.836 C 16.890 13.904,16.146 14.000,15.940 14.000 C 15.908 14.000,15.879 13.916,15.861 13.774 C 15.819 13.439,15.625 12.676,15.460 12.200 C 15.262 11.630,14.981 11.068,14.625 10.532 L 14.328 10.085 14.534 10.062 C 14.647 10.050,14.803 10.033,14.880 10.023 C 15.216 9.984,16.481 10.041,16.940 10.117 M12.260 11.044 C 12.763 11.179,13.081 11.706,12.965 12.210 C 12.902 12.487,12.757 12.688,12.506 12.849 C 12.322 12.967,12.273 12.980,12.001 12.980 C 11.744 12.980,11.672 12.964,11.511 12.869 C 11.142 12.652,10.946 12.220,11.031 11.813 C 11.152 11.235,11.699 10.892,12.260 11.044 M13.971 15.500 C 13.975 16.502,13.910 17.053,13.705 17.760 C 13.334 19.038,12.601 20.000,12.000 20.000 C 11.644 20.000,11.164 19.597,10.818 19.007 C 10.388 18.272,10.111 17.279,10.024 16.154 L 10.004 15.889 10.228 15.861 C 10.351 15.845,10.660 15.782,10.916 15.719 C 11.908 15.476,12.685 15.143,13.464 14.626 L 13.900 14.338 13.934 14.459 C 13.952 14.525,13.969 14.994,13.971 15.500 " stroke="none" fill="black" fill-rule="evenodd"></path></svg>