<svg xmlns="http://www.w3.org/2000/svg" width="24" height="24" viewBox="0 0 24 24" fill="none" stroke="currentColor" stroke-width="2" stroke-linecap="round" stroke-linejoin="round" class="icon icon-tabler icons-tabler-outline icon-tabler-map-off"><path d="M2.626 2.045 C 2.257 2.239,1.951 2.673,1.951 3.000 C 1.951 3.320,2.070 3.480,3.050 4.467 L 3.969 5.393 3.167 5.797 C 2.305 6.232,2.140 6.360,2.046 6.674 C 2.012 6.789,2.000 8.552,2.000 13.493 C 2.000 20.068,2.001 20.160,2.080 20.372 C 2.188 20.659,2.398 20.897,2.620 20.982 C 2.995 21.125,2.953 21.142,6.109 19.565 L 9.001 18.120 11.630 19.442 C 13.077 20.169,14.341 20.813,14.440 20.872 C 14.602 20.969,14.658 20.980,15.000 20.980 C 15.342 20.980,15.398 20.969,15.560 20.872 C 15.659 20.813,16.278 20.492,16.936 20.159 L 18.131 19.554 19.296 20.712 C 20.056 21.469,20.522 21.902,20.637 21.960 C 20.989 22.137,21.354 22.048,21.701 21.701 C 22.116 21.286,22.159 20.868,21.832 20.440 C 21.777 20.368,17.264 15.808,15.747 14.293 C 14.904 13.450,9.832 8.378,9.760 8.306 C 8.825 7.364,3.633 2.223,3.560 2.168 C 3.264 1.942,2.910 1.895,2.626 2.045 M20.780 3.016 C 20.692 3.045,19.355 3.700,17.810 4.474 L 15.000 5.880 12.370 4.559 C 10.923 3.832,9.650 3.188,9.541 3.129 C 9.369 3.034,9.297 3.020,9.001 3.020 C 8.631 3.020,8.651 3.013,8.000 3.377 C 7.587 3.609,7.422 3.760,7.335 3.988 C 7.248 4.216,7.281 4.485,7.434 4.789 C 7.552 5.023,7.802 5.290,7.946 5.336 C 7.987 5.349,8.065 5.445,8.120 5.549 C 8.294 5.879,8.612 6.022,9.100 5.991 C 9.422 5.970,9.673 5.860,9.805 5.682 L 9.891 5.566 11.945 6.593 L 14.000 7.620 14.000 9.420 C 14.000 10.502,14.016 11.278,14.041 11.365 C 14.148 11.750,14.437 11.962,14.896 11.991 C 15.381 12.022,15.699 11.882,15.880 11.558 L 15.980 11.380 15.992 9.499 L 16.004 7.618 17.982 6.629 C 19.070 6.085,19.969 5.640,19.980 5.640 C 19.991 5.640,20.000 8.245,20.000 11.430 C 20.000 15.185,20.015 17.271,20.041 17.365 C 20.148 17.750,20.437 17.962,20.896 17.991 C 21.381 18.022,21.699 17.882,21.880 17.558 L 21.980 17.380 21.991 10.613 C 22.001 3.938,22.000 3.843,21.921 3.633 C 21.719 3.092,21.282 2.856,20.780 3.016 M8.000 12.900 L 8.000 16.380 6.020 17.370 C 4.931 17.915,4.031 18.360,4.020 18.360 C 4.009 18.360,4.000 15.943,4.000 12.989 L 4.000 7.619 4.730 7.253 L 5.460 6.887 6.730 8.153 L 8.000 9.420 8.000 12.900 M14.000 16.890 C 14.000 17.698,13.991 18.360,13.980 18.360 C 13.969 18.360,13.069 17.915,11.980 17.370 L 10.000 16.380 10.000 13.900 L 10.000 11.420 12.000 13.420 L 14.000 15.420 14.000 16.890 M16.350 18.207 C 16.191 18.289,16.047 18.357,16.030 18.358 C 16.014 18.359,16.000 18.149,16.000 17.891 L 16.000 17.422 16.320 17.740 L 16.641 18.059 16.350 18.207 " stroke="none" fill="black" fill-rule="evenodd"></path></svg>