<svg xmlns="http://www.w3.org/2000/svg" width="24" height="24" viewBox="0 0 24 24" fill="none" stroke="currentColor" stroke-width="2" stroke-linecap="round" stroke-linejoin="round" class="icon icon-tabler icons-tabler-outline icon-tabler-cloud-rain"><path d="M11.520 4.024 C 9.137 4.370,7.159 5.826,6.321 7.851 C 6.278 7.956,6.219 8.048,6.191 8.056 C 6.163 8.064,6.014 8.093,5.860 8.120 C 4.193 8.415,2.633 9.584,1.862 11.117 C 1.503 11.830,1.309 12.663,1.309 13.500 C 1.309 15.299,2.174 16.919,3.702 17.982 C 4.586 18.598,5.843 18.997,6.900 18.999 C 7.431 19.000,7.700 18.879,7.880 18.558 C 7.967 18.402,7.980 18.332,7.979 18.000 C 7.978 17.687,7.962 17.591,7.890 17.453 C 7.733 17.157,7.404 17.000,6.939 17.000 C 6.615 17.000,6.092 16.907,5.739 16.787 C 4.631 16.409,3.780 15.542,3.434 14.439 C 3.352 14.177,3.340 14.060,3.340 13.500 C 3.340 12.940,3.352 12.823,3.434 12.561 C 3.777 11.469,4.605 10.617,5.705 10.227 C 6.057 10.102,6.333 10.050,6.902 10.005 C 7.589 9.950,7.791 9.807,7.959 9.260 C 8.260 8.281,8.523 7.831,9.138 7.247 C 9.512 6.892,9.833 6.675,10.336 6.439 C 11.697 5.799,13.317 5.798,14.665 6.438 C 15.546 6.856,16.193 7.444,16.638 8.230 C 16.989 8.851,17.163 9.683,17.079 10.340 C 16.962 11.262,16.981 11.455,17.213 11.687 C 17.470 11.943,17.604 11.974,18.600 12.004 C 19.580 12.033,19.741 12.063,20.180 12.294 C 20.322 12.368,20.552 12.551,20.742 12.740 C 21.264 13.259,21.479 13.771,21.479 14.500 C 21.479 15.187,21.266 15.723,20.794 16.220 C 20.322 16.718,19.838 16.936,19.069 16.997 C 18.736 17.024,18.590 17.055,18.447 17.129 C 18.119 17.297,17.978 17.612,18.009 18.104 C 18.048 18.719,18.378 18.999,19.060 19.000 C 19.850 19.000,20.770 18.716,21.460 18.259 C 24.341 16.351,24.117 12.078,21.054 10.511 C 20.509 10.233,20.026 10.093,19.354 10.020 L 19.128 9.995 19.101 9.668 C 18.923 7.477,17.645 5.659,15.580 4.658 C 14.361 4.067,12.847 3.831,11.520 4.024 M10.614 12.057 C 10.377 12.131,10.212 12.261,10.109 12.453 C 10.023 12.614,10.020 12.665,10.008 13.908 C 10.000 14.720,10.011 15.254,10.038 15.352 C 10.144 15.747,10.432 15.961,10.896 15.991 C 11.381 16.022,11.699 15.882,11.880 15.558 L 11.980 15.380 11.980 14.000 C 11.980 12.650,11.978 12.616,11.891 12.453 C 11.842 12.362,11.746 12.247,11.678 12.199 C 11.414 12.010,10.957 11.950,10.614 12.057 M14.614 14.057 C 14.377 14.131,14.212 14.261,14.109 14.453 C 14.023 14.614,14.020 14.665,14.008 15.908 C 14.000 16.720,14.011 17.254,14.038 17.352 C 14.144 17.747,14.432 17.961,14.896 17.991 C 15.381 18.022,15.699 17.882,15.880 17.558 L 15.980 17.380 15.980 16.000 C 15.980 14.650,15.978 14.616,15.891 14.453 C 15.842 14.362,15.746 14.247,15.678 14.199 C 15.414 14.010,14.957 13.950,14.614 14.057 M10.614 17.057 C 10.377 17.131,10.212 17.261,10.109 17.453 C 10.023 17.614,10.020 17.665,10.008 18.908 C 10.000 19.720,10.011 20.254,10.038 20.352 C 10.144 20.747,10.432 20.961,10.896 20.991 C 11.381 21.022,11.699 20.882,11.880 20.558 L 11.980 20.380 11.980 19.000 C 11.980 17.650,11.978 17.616,11.891 17.453 C 11.842 17.362,11.746 17.247,11.678 17.199 C 11.414 17.010,10.957 16.950,10.614 17.057 M14.614 19.057 C 14.377 19.131,14.212 19.261,14.109 19.453 C 14.023 19.614,14.020 19.665,14.008 20.908 C 14.000 21.720,14.011 22.254,14.038 22.352 C 14.144 22.747,14.432 22.961,14.896 22.991 C 15.381 23.022,15.699 22.882,15.880 22.558 L 15.980 22.380 15.980 21.000 C 15.980 19.650,15.978 19.616,15.891 19.453 C 15.842 19.362,15.746 19.247,15.678 19.199 C 15.414 19.010,14.957 18.950,14.614 19.057 " stroke="none" fill="black" fill-rule="evenodd"></path></svg>