<svg xmlns="http://www.w3.org/2000/svg" width="24" height="24" viewBox="0 0 24 24" fill="none" stroke="currentColor" stroke-width="2" stroke-linecap="round" stroke-linejoin="round" class="icon icon-tabler icons-tabler-outline icon-tabler-adjustments-horizontal"><path d="M13.499 3.040 C 12.549 3.212,11.740 3.816,11.312 4.670 L 11.147 5.000 7.480 5.000 C 3.555 5.000,3.604 4.998,3.322 5.199 C 3.100 5.357,3.020 5.568,3.020 6.000 C 3.020 6.331,3.033 6.403,3.120 6.558 C 3.230 6.755,3.414 6.898,3.635 6.959 C 3.727 6.985,5.119 7.000,7.463 7.000 L 11.147 7.000 11.312 7.330 C 11.682 8.069,12.355 8.635,13.160 8.886 C 13.594 9.021,14.406 9.021,14.840 8.886 C 15.645 8.635,16.318 8.069,16.688 7.330 L 16.853 7.000 18.537 7.000 C 19.541 7.000,20.278 6.983,20.365 6.959 C 20.586 6.898,20.770 6.755,20.880 6.558 C 20.967 6.402,20.980 6.332,20.979 6.000 C 20.978 5.567,20.898 5.355,20.678 5.199 C 20.415 5.011,20.295 5.000,18.520 5.000 L 16.853 5.000 16.688 4.670 C 16.320 3.935,15.631 3.354,14.861 3.129 C 14.500 3.023,13.832 2.980,13.499 3.040 M14.310 5.061 C 14.688 5.173,15.000 5.598,15.000 6.001 C 15.000 6.331,14.784 6.696,14.484 6.872 C 14.328 6.963,14.254 6.980,14.000 6.980 C 13.746 6.980,13.672 6.963,13.516 6.872 C 12.935 6.530,12.833 5.774,13.304 5.303 C 13.583 5.024,13.916 4.944,14.310 5.061 M7.499 9.040 C 6.549 9.212,5.740 9.816,5.312 10.670 L 5.147 11.000 4.480 11.000 C 3.570 11.000,3.304 11.088,3.109 11.453 C 3.035 11.592,3.020 11.684,3.020 12.000 C 3.020 12.331,3.033 12.403,3.120 12.558 C 3.230 12.755,3.414 12.898,3.635 12.959 C 3.715 12.981,4.088 13.000,4.463 13.000 L 5.147 13.000 5.312 13.330 C 5.682 14.069,6.355 14.635,7.160 14.886 C 7.594 15.021,8.406 15.021,8.840 14.886 C 9.645 14.635,10.318 14.069,10.688 13.330 L 10.853 13.000 15.537 13.000 C 18.551 13.000,20.272 12.985,20.365 12.959 C 20.586 12.898,20.770 12.755,20.880 12.558 C 20.967 12.402,20.980 12.332,20.979 12.000 C 20.978 11.567,20.898 11.355,20.678 11.199 C 20.392 10.995,20.522 11.000,15.520 11.000 L 10.853 11.000 10.688 10.670 C 10.320 9.935,9.631 9.354,8.861 9.129 C 8.500 9.023,7.832 8.980,7.499 9.040 M8.310 11.061 C 8.688 11.173,9.000 11.598,9.000 12.001 C 9.000 12.331,8.784 12.696,8.484 12.872 C 8.328 12.963,8.254 12.980,8.000 12.980 C 7.746 12.980,7.672 12.963,7.516 12.872 C 6.932 12.528,6.831 11.775,7.307 11.299 C 7.582 11.024,7.918 10.944,8.310 11.061 M16.499 15.040 C 15.549 15.212,14.740 15.816,14.312 16.670 L 14.147 17.000 8.980 17.000 C 3.440 17.000,3.609 16.994,3.322 17.199 C 3.100 17.357,3.020 17.568,3.020 18.000 C 3.020 18.331,3.033 18.403,3.120 18.558 C 3.230 18.755,3.414 18.898,3.635 18.959 C 3.729 18.985,5.614 19.000,8.963 19.000 L 14.147 19.000 14.312 19.330 C 14.682 20.069,15.355 20.635,16.160 20.886 C 16.412 20.964,16.547 20.979,17.000 20.979 C 17.453 20.979,17.588 20.964,17.840 20.886 C 18.645 20.635,19.318 20.069,19.688 19.330 L 19.853 19.000 20.037 19.000 C 20.427 18.999,20.718 18.847,20.880 18.558 C 20.967 18.402,20.980 18.332,20.979 18.000 C 20.978 17.687,20.962 17.591,20.890 17.453 C 20.744 17.178,20.403 17.000,20.020 17.000 L 19.853 17.000 19.688 16.670 C 19.320 15.935,18.631 15.354,17.861 15.129 C 17.500 15.023,16.832 14.980,16.499 15.040 M17.310 17.061 C 17.688 17.173,18.000 17.598,18.000 18.001 C 18.000 18.331,17.784 18.696,17.484 18.872 C 17.328 18.963,17.254 18.980,17.000 18.980 C 16.746 18.980,16.672 18.963,16.516 18.872 C 15.932 18.528,15.831 17.775,16.307 17.299 C 16.582 17.024,16.918 16.944,17.310 17.061 " stroke="none" fill="black" fill-rule="evenodd"></path></svg>