<svg xmlns="http://www.w3.org/2000/svg" width="24" height="24" viewBox="0 0 24 24" fill="none" stroke="currentColor" stroke-width="2" stroke-linecap="round" stroke-linejoin="round" class="icon icon-tabler icons-tabler-outline icon-tabler-user-hexagon"><path d="M11.542 1.044 C 11.206 1.093,10.917 1.183,10.607 1.334 C 10.326 1.471,3.711 5.363,3.400 5.574 C 2.940 5.886,2.556 6.345,2.298 6.892 C 2.004 7.516,2.023 7.205,2.009 11.720 C 1.999 15.327,2.005 15.816,2.062 16.100 C 2.195 16.763,2.547 17.397,3.028 17.840 C 3.271 18.064,4.550 18.914,5.712 19.624 C 5.859 19.713,6.965 20.410,8.168 21.172 C 10.468 22.627,10.563 22.684,10.918 22.807 C 11.651 23.062,12.349 23.062,13.082 22.807 C 13.435 22.684,13.523 22.632,15.828 21.173 C 17.034 20.411,18.141 19.713,18.288 19.624 C 19.404 18.944,20.728 18.064,20.971 17.840 C 21.448 17.402,21.802 16.768,21.937 16.112 C 21.992 15.843,22.000 15.300,22.000 11.844 C 22.000 7.576,22.004 7.665,21.787 7.068 C 21.605 6.567,21.270 6.102,20.812 5.713 C 20.635 5.563,19.382 4.802,17.082 3.447 C 15.178 2.326,13.548 1.372,13.460 1.329 C 12.903 1.057,12.187 0.950,11.542 1.044 M12.595 3.138 C 12.880 3.282,18.999 6.893,19.338 7.116 C 19.491 7.217,19.675 7.378,19.748 7.473 C 20.012 7.819,20.003 7.655,19.991 11.943 L 19.980 15.820 19.872 16.025 C 19.812 16.138,19.709 16.285,19.643 16.351 C 19.543 16.451,18.279 17.280,18.227 17.280 C 18.218 17.280,18.121 17.159,18.010 17.010 C 17.421 16.217,16.411 15.505,15.480 15.226 C 14.805 15.023,14.753 15.020,12.000 15.020 C 9.247 15.020,9.195 15.023,8.520 15.226 C 7.589 15.505,6.579 16.217,5.990 17.010 C 5.879 17.159,5.782 17.280,5.773 17.280 C 5.721 17.280,4.457 16.451,4.357 16.351 C 4.291 16.285,4.188 16.138,4.128 16.025 L 4.020 15.820 4.020 11.860 L 4.020 7.900 4.129 7.693 C 4.190 7.578,4.301 7.425,4.376 7.353 C 4.561 7.174,11.452 3.117,11.680 3.052 C 11.947 2.976,12.350 3.013,12.595 3.138 M11.358 6.061 C 10.230 6.237,9.143 6.974,8.569 7.953 C 7.320 10.083,8.233 12.785,10.512 13.704 C 12.558 14.528,14.877 13.538,15.704 11.488 C 16.090 10.530,16.090 9.469,15.705 8.516 C 15.172 7.197,14.001 6.269,12.605 6.058 C 12.144 5.989,11.816 5.990,11.358 6.061 M12.523 8.073 C 13.262 8.266,13.850 8.924,13.967 9.690 C 14.067 10.343,13.873 10.933,13.403 11.404 C 13.002 11.807,12.547 12.000,12.000 12.000 C 11.485 12.000,11.038 11.822,10.653 11.465 C 9.323 10.229,10.189 8.005,12.000 8.005 C 12.143 8.005,12.378 8.036,12.523 8.073 M14.477 17.042 C 15.203 17.160,15.869 17.549,16.343 18.131 C 16.447 18.258,16.524 18.368,16.516 18.374 C 16.328 18.522,12.595 20.842,12.440 20.906 C 12.151 21.027,11.850 21.027,11.560 20.907 C 11.407 20.843,7.699 18.540,7.486 18.376 C 7.478 18.369,7.555 18.258,7.657 18.129 C 8.085 17.583,8.802 17.159,9.490 17.044 C 9.797 16.993,14.163 16.991,14.477 17.042 " stroke="none" fill="black" fill-rule="evenodd"></path></svg>