<svg xmlns="http://www.w3.org/2000/svg" width="24" height="24" viewBox="0 0 24 24" fill="none" stroke="currentColor" stroke-width="2" stroke-linecap="round" stroke-linejoin="round" class="icon icon-tabler icons-tabler-outline icon-tabler-coffee-off"><path d="M2.626 2.045 C 2.420 2.154,2.146 2.433,2.038 2.644 C 1.924 2.867,1.924 3.132,2.039 3.363 C 2.102 3.487,2.942 4.356,4.853 6.270 L 7.579 9.000 5.196 9.000 C 2.653 9.000,2.595 9.004,2.322 9.199 C 2.254 9.247,2.158 9.362,2.109 9.453 C 2.021 9.619,2.020 9.639,2.000 11.860 C 1.971 15.146,2.002 15.843,2.223 16.725 C 2.829 19.153,4.800 21.143,7.214 21.764 C 7.941 21.952,8.118 21.967,9.778 21.988 C 11.452 22.009,11.783 21.990,12.515 21.834 C 14.250 21.463,15.927 20.303,16.870 18.822 C 16.969 18.667,17.057 18.532,17.066 18.522 C 17.075 18.512,17.842 19.262,18.771 20.188 C 19.919 21.332,20.517 21.900,20.637 21.960 C 20.989 22.137,21.354 22.048,21.701 21.701 C 22.116 21.286,22.159 20.868,21.832 20.440 C 21.779 20.370,14.999 13.541,13.706 12.254 C 13.614 12.162,10.857 9.403,10.760 9.306 C 10.705 9.250,9.058 7.613,7.100 5.667 C 4.709 3.290,3.485 2.101,3.372 2.044 C 3.152 1.934,2.835 1.935,2.626 2.045 M7.598 2.087 C 7.281 2.246,6.699 2.813,6.561 3.097 C 6.356 3.521,6.430 3.884,6.787 4.198 C 7.149 4.517,7.571 4.623,7.861 4.468 C 8.031 4.377,8.898 3.524,8.975 3.372 C 9.170 2.986,8.920 2.376,8.443 2.073 C 8.191 1.913,7.938 1.918,7.598 2.087 M11.657 2.055 C 11.378 2.185,10.935 2.576,10.686 2.912 C 10.442 3.241,10.198 3.747,10.095 4.140 C 9.992 4.534,9.992 5.466,10.095 5.860 C 10.323 6.726,10.962 7.591,11.616 7.921 C 12.033 8.131,12.383 8.065,12.697 7.718 C 13.017 7.363,13.123 6.920,12.963 6.606 C 12.921 6.523,12.750 6.334,12.584 6.185 C 12.355 5.980,12.251 5.851,12.151 5.648 C 12.031 5.403,12.020 5.351,12.020 5.000 C 12.020 4.649,12.031 4.597,12.151 4.352 C 12.251 4.149,12.355 4.020,12.584 3.815 C 12.750 3.666,12.921 3.477,12.963 3.394 C 13.171 2.987,12.934 2.385,12.443 2.073 C 12.212 1.927,11.946 1.921,11.657 2.055 M13.614 9.057 C 13.377 9.131,13.212 9.261,13.109 9.453 C 13.035 9.592,13.020 9.684,13.020 10.000 C 13.020 10.331,13.033 10.403,13.120 10.558 C 13.230 10.755,13.414 10.898,13.635 10.959 C 13.716 10.982,14.262 11.000,14.865 11.000 L 15.950 11.000 15.974 11.150 C 15.988 11.232,15.999 11.732,16.000 12.260 C 16.000 12.788,16.019 13.285,16.041 13.365 C 16.148 13.750,16.437 13.962,16.896 13.991 C 17.381 14.022,17.699 13.882,17.880 13.558 C 17.974 13.391,17.981 13.338,17.994 12.685 L 18.008 11.991 18.213 12.018 C 18.501 12.056,18.867 12.185,19.090 12.327 C 19.747 12.746,20.116 13.640,19.946 14.400 C 19.858 14.791,19.731 15.037,19.439 15.380 C 19.148 15.723,19.066 15.885,19.065 16.123 C 19.064 16.429,19.306 16.804,19.643 17.021 C 20.135 17.336,20.574 17.175,21.137 16.472 C 21.462 16.066,21.730 15.531,21.869 15.011 C 21.959 14.672,21.973 14.537,21.976 14.000 C 21.978 13.519,21.962 13.317,21.905 13.100 C 21.735 12.456,21.374 11.773,20.956 11.303 C 20.346 10.617,19.276 10.095,18.319 10.015 L 18.009 9.989 17.982 9.789 C 17.930 9.393,17.741 9.167,17.371 9.055 C 17.114 8.978,13.862 8.980,13.614 9.057 M10.268 11.688 L 10.956 12.375 10.682 12.482 C 10.313 12.626,9.850 12.882,9.451 13.165 C 9.032 13.461,8.755 13.600,8.280 13.751 C 7.678 13.942,7.380 13.980,6.500 13.980 C 5.478 13.980,4.931 13.881,4.230 13.571 L 4.000 13.469 4.000 12.235 L 4.000 11.000 6.790 11.000 L 9.579 11.000 10.268 11.688 M14.095 15.515 C 15.760 17.180,15.626 16.973,15.351 17.460 C 15.112 17.882,14.838 18.232,14.471 18.584 C 13.882 19.148,13.247 19.533,12.540 19.756 C 11.865 19.970,11.748 19.980,10.000 19.980 C 8.585 19.980,8.337 19.971,8.040 19.907 C 7.067 19.699,6.257 19.277,5.563 18.616 C 4.766 17.858,4.248 16.874,4.063 15.766 C 4.043 15.650,4.050 15.635,4.110 15.659 C 4.283 15.725,4.774 15.844,5.140 15.908 C 5.758 16.015,7.336 16.004,7.967 15.888 C 8.927 15.712,9.748 15.382,10.503 14.868 C 11.273 14.345,11.571 14.228,12.600 14.044 C 12.611 14.042,13.284 14.704,14.095 15.515 " stroke="none" fill="black" fill-rule="evenodd"></path></svg>