<svg xmlns="http://www.w3.org/2000/svg" width="24" height="24" viewBox="0 0 24 24" fill="none" stroke="currentColor" stroke-width="2" stroke-linecap="round" stroke-linejoin="round" class="icon icon-tabler icons-tabler-outline icon-tabler-letter-n"><path d="M6.614 3.057 C 6.377 3.131,6.212 3.261,6.109 3.453 L 6.020 3.620 6.010 11.914 C 6.003 17.391,6.013 20.260,6.040 20.358 C 6.144 20.747,6.434 20.962,6.896 20.991 C 7.381 21.022,7.699 20.882,7.880 20.558 L 7.980 20.380 8.000 13.950 L 8.020 7.520 12.100 14.050 C 14.344 17.641,16.242 20.649,16.317 20.733 C 16.393 20.817,16.523 20.920,16.606 20.963 C 17.001 21.164,17.607 20.935,17.872 20.484 L 17.980 20.300 17.980 11.960 L 17.980 3.620 17.891 3.453 C 17.689 3.076,17.138 2.902,16.629 3.055 C 16.378 3.131,16.215 3.256,16.109 3.453 L 16.020 3.620 16.000 10.050 L 15.980 16.480 11.900 9.951 C 9.656 6.360,7.753 3.355,7.672 3.273 C 7.430 3.029,6.990 2.940,6.614 3.057 " stroke="none" fill="black" fill-rule="evenodd"></path></svg>