<svg xmlns="http://www.w3.org/2000/svg" width="24" height="24" viewBox="0 0 24 24" fill="none" stroke="currentColor" stroke-width="2" stroke-linecap="round" stroke-linejoin="round" class="icon icon-tabler icons-tabler-outline icon-tabler-camera-selfie"><path d="M8.477 3.073 C 7.806 3.249,7.238 3.823,7.060 4.508 C 7.027 4.634,7.000 4.820,7.000 4.922 C 7.000 5.332,6.811 5.680,6.484 5.872 C 6.303 5.978,6.286 5.980,5.380 6.005 C 4.569 6.027,4.422 6.041,4.139 6.126 C 3.183 6.413,2.420 7.179,2.114 8.160 L 2.020 8.460 2.020 13.500 L 2.020 18.540 2.114 18.840 C 2.422 19.827,3.173 20.578,4.160 20.886 L 4.460 20.980 12.000 20.980 L 19.540 20.980 19.840 20.886 C 20.827 20.578,21.578 19.827,21.886 18.840 L 21.980 18.540 21.980 13.500 L 21.980 8.460 21.886 8.160 C 21.580 7.179,20.817 6.413,19.861 6.126 C 19.578 6.041,19.431 6.027,18.620 6.005 C 17.714 5.980,17.697 5.978,17.516 5.872 C 17.197 5.684,17.001 5.340,16.999 4.965 C 16.999 4.713,16.901 4.319,16.781 4.083 C 16.646 3.816,16.297 3.449,16.017 3.281 C 15.548 2.999,15.636 3.005,12.000 3.005 C 9.047 3.005,8.715 3.011,8.477 3.073 M15.016 5.302 C 15.123 6.480,15.970 7.509,17.140 7.881 C 17.381 7.958,17.548 7.974,18.340 7.997 C 19.377 8.028,19.448 8.044,19.717 8.321 C 20.016 8.630,20.000 8.342,20.000 13.501 C 20.000 18.501,20.008 18.318,19.779 18.618 C 19.718 18.698,19.585 18.813,19.484 18.872 L 19.300 18.980 12.000 18.980 L 4.700 18.980 4.516 18.872 C 4.415 18.813,4.284 18.700,4.225 18.623 C 3.989 18.314,4.000 18.562,4.000 13.522 C 4.000 8.339,3.984 8.630,4.283 8.321 C 4.552 8.044,4.623 8.028,5.660 7.997 C 6.452 7.974,6.619 7.958,6.860 7.881 C 8.030 7.509,8.877 6.480,8.984 5.302 L 9.011 5.000 12.000 5.000 L 14.989 5.000 15.016 5.302 M8.614 10.055 C 8.220 10.184,8.039 10.437,8.009 10.900 C 7.978 11.381,8.119 11.699,8.442 11.880 C 8.597 11.967,8.669 11.980,9.000 11.980 C 9.312 11.980,9.408 11.964,9.540 11.894 C 9.866 11.718,10.000 11.459,10.000 11.000 C 10.000 10.357,9.713 10.048,9.083 10.016 C 8.893 10.006,8.718 10.021,8.614 10.055 M14.614 10.055 C 14.220 10.184,14.039 10.437,14.009 10.900 C 13.978 11.381,14.119 11.699,14.442 11.880 C 14.597 11.967,14.669 11.980,15.000 11.980 C 15.312 11.980,15.408 11.964,15.540 11.894 C 15.866 11.718,16.000 11.459,16.000 11.000 C 16.000 10.357,15.713 10.048,15.083 10.016 C 14.893 10.006,14.718 10.021,14.614 10.055 M9.125 14.051 C 9.029 14.100,8.857 14.240,8.743 14.363 C 8.293 14.850,8.345 15.272,8.924 15.820 C 9.439 16.308,9.985 16.627,10.661 16.835 C 11.174 16.993,11.481 17.039,12.000 17.039 C 12.519 17.039,12.826 16.993,13.339 16.835 C 14.015 16.627,14.561 16.308,15.076 15.820 C 15.546 15.376,15.652 15.056,15.464 14.660 C 15.281 14.275,14.852 13.960,14.509 13.960 C 14.239 13.960,14.108 14.027,13.711 14.367 C 13.287 14.730,13.062 14.857,12.657 14.961 C 12.065 15.112,11.314 15.034,10.832 14.772 C 10.722 14.712,10.475 14.529,10.285 14.366 C 10.095 14.202,9.882 14.044,9.811 14.014 C 9.617 13.932,9.327 13.947,9.125 14.051 " stroke="none" fill="black" fill-rule="evenodd"></path></svg>