<svg xmlns="http://www.w3.org/2000/svg" width="24" height="24" viewBox="0 0 24 24" fill="none" stroke="currentColor" stroke-width="2" stroke-linecap="round" stroke-linejoin="round" class="icon icon-tabler icons-tabler-outline icon-tabler-bold"><path d="M6.614 4.056 C 6.376 4.132,6.212 4.261,6.109 4.453 L 6.020 4.620 6.010 11.914 C 6.003 16.725,6.013 19.259,6.039 19.358 C 6.100 19.584,6.243 19.769,6.442 19.880 L 6.620 19.980 10.460 19.991 C 13.715 20.001,14.358 19.994,14.680 19.943 C 15.807 19.765,16.821 19.176,17.526 18.289 C 19.105 16.302,18.705 13.362,16.653 11.876 C 16.520 11.779,16.378 11.681,16.339 11.658 C 16.274 11.620,16.290 11.586,16.512 11.307 C 17.237 10.395,17.581 9.247,17.474 8.100 C 17.288 6.110,15.921 4.570,13.920 4.096 C 13.647 4.032,13.314 4.024,10.200 4.014 C 7.447 4.006,6.748 4.014,6.614 4.056 M13.720 6.095 C 14.121 6.227,14.410 6.410,14.742 6.740 C 15.264 7.259,15.479 7.771,15.479 8.500 C 15.479 9.226,15.265 9.737,14.742 10.264 C 14.501 10.506,14.345 10.624,14.120 10.734 C 13.584 10.997,13.559 10.999,10.630 10.999 L 8.000 11.000 8.000 8.498 L 8.000 5.996 10.750 6.009 C 13.279 6.021,13.518 6.028,13.720 6.095 M14.720 13.095 C 15.122 13.228,15.410 13.410,15.742 13.740 C 16.264 14.259,16.479 14.771,16.479 15.500 C 16.479 16.226,16.265 16.737,15.742 17.264 C 15.501 17.506,15.345 17.624,15.120 17.734 C 14.575 18.001,14.610 17.999,11.130 17.999 L 8.000 18.000 8.000 15.498 L 8.000 12.997 11.250 13.009 C 14.269 13.021,14.516 13.027,14.720 13.095 " stroke="none" fill="black" fill-rule="evenodd"></path></svg>