<svg xmlns="http://www.w3.org/2000/svg" width="24" height="24" viewBox="0 0 24 24" fill="none" stroke="currentColor" stroke-width="2" stroke-linecap="round" stroke-linejoin="round" class="icon icon-tabler icons-tabler-outline icon-tabler-protocol"><path d="M14.620 5.035 C 14.532 5.075,14.397 5.178,14.319 5.264 C 14.153 5.448,7.110 17.506,7.021 17.758 C 6.945 17.971,6.943 18.202,7.014 18.372 C 7.093 18.561,7.448 18.862,7.703 18.958 C 8.113 19.111,8.389 19.053,8.661 18.756 C 8.841 18.560,15.881 6.522,15.979 6.242 C 16.113 5.864,16.039 5.594,15.724 5.311 C 15.369 4.992,14.946 4.886,14.620 5.035 M19.620 5.035 C 19.532 5.075,19.397 5.178,19.319 5.264 C 19.153 5.448,12.110 17.506,12.021 17.758 C 11.945 17.971,11.943 18.202,12.014 18.372 C 12.093 18.561,12.448 18.862,12.703 18.958 C 13.113 19.111,13.389 19.053,13.661 18.756 C 13.841 18.560,20.881 6.522,20.979 6.242 C 21.113 5.864,21.039 5.594,20.724 5.311 C 20.369 4.992,19.946 4.886,19.620 5.035 M4.496 9.116 C 4.142 9.277,3.974 9.626,4.009 10.123 C 4.034 10.464,4.160 10.733,4.359 10.864 C 4.574 11.006,4.938 11.066,5.246 11.008 C 5.718 10.921,5.953 10.641,5.991 10.123 C 6.026 9.626,5.858 9.277,5.504 9.116 C 5.276 9.013,4.724 9.013,4.496 9.116 M4.614 13.057 C 4.221 13.180,4.039 13.435,4.009 13.906 C 3.974 14.443,4.197 14.849,4.587 14.957 C 4.784 15.012,5.216 15.012,5.413 14.957 C 5.807 14.848,6.030 14.439,5.989 13.900 C 5.963 13.563,5.859 13.327,5.678 13.199 C 5.414 13.010,4.957 12.950,4.614 13.057 " stroke="none" fill="black" fill-rule="evenodd"></path></svg>