<svg xmlns="http://www.w3.org/2000/svg" width="24" height="24" viewBox="0 0 24 24" fill="none" stroke="currentColor" stroke-width="2" stroke-linecap="round" stroke-linejoin="round" class="icon icon-tabler icons-tabler-outline icon-tabler-grill-spatula"><path d="M6.620 2.046 C 6.393 2.163,2.154 6.407,2.044 6.628 C 1.938 6.841,1.936 7.124,2.040 7.353 C 2.086 7.455,2.313 7.726,2.591 8.013 C 5.687 11.209,5.722 11.243,6.300 11.530 C 7.370 12.061,8.523 12.086,9.645 11.602 L 10.020 11.440 12.642 14.062 L 15.264 16.683 15.144 17.032 C 15.031 17.357,15.024 17.418,15.025 17.960 C 15.025 18.479,15.037 18.574,15.132 18.860 C 15.324 19.440,15.462 19.624,16.419 20.581 C 17.376 21.538,17.560 21.676,18.140 21.868 C 18.427 21.964,18.519 21.974,19.040 21.974 C 19.561 21.974,19.653 21.964,19.940 21.868 C 20.406 21.714,20.735 21.505,21.120 21.120 C 21.505 20.735,21.714 20.406,21.868 19.940 C 21.964 19.653,21.974 19.561,21.974 19.040 C 21.974 18.519,21.964 18.427,21.868 18.140 C 21.678 17.566,21.536 17.375,20.601 16.435 C 19.939 15.770,19.675 15.533,19.460 15.408 C 18.715 14.975,17.786 14.887,16.970 15.171 L 16.689 15.269 14.065 12.644 L 11.440 10.020 11.602 9.645 C 11.848 9.075,11.932 8.675,11.936 8.060 C 11.940 7.395,11.824 6.893,11.530 6.300 C 11.243 5.723,11.218 5.697,8.013 2.591 C 7.726 2.312,7.455 2.087,7.353 2.040 C 7.126 1.937,6.827 1.940,6.620 2.046 M8.750 6.090 C 9.151 6.480,9.540 6.885,9.614 6.990 C 10.132 7.726,10.033 8.732,9.377 9.390 C 8.790 9.978,7.965 10.112,7.214 9.741 C 6.909 9.590,7.004 9.681,4.891 7.520 L 4.401 7.020 5.710 5.711 L 7.018 4.402 7.519 4.892 C 7.795 5.161,8.348 5.700,8.750 6.090 M18.385 17.113 C 18.470 17.157,18.847 17.505,19.222 17.886 C 19.934 18.610,20.000 18.708,20.000 19.040 C 20.000 19.542,19.542 20.000,19.040 20.000 C 18.691 20.000,18.573 19.918,17.813 19.148 C 17.181 18.508,17.087 18.397,17.041 18.229 C 16.824 17.434,17.659 16.740,18.385 17.113 " stroke="none" fill="black" fill-rule="evenodd"></path></svg>