<svg xmlns="http://www.w3.org/2000/svg" width="24" height="24" viewBox="0 0 24 24" fill="none" stroke="currentColor" stroke-width="2" stroke-linecap="round" stroke-linejoin="round" class="icon icon-tabler icons-tabler-outline icon-tabler-backspace"><path d="M8.660 5.066 C 8.473 5.122,8.282 5.304,5.757 7.833 C 3.293 10.300,3.041 10.565,2.910 10.820 C 2.708 11.215,2.628 11.549,2.628 12.000 C 2.628 12.452,2.708 12.786,2.911 13.180 C 3.041 13.434,3.298 13.704,5.697 16.113 C 7.201 17.622,8.418 18.812,8.520 18.873 L 8.700 18.980 14.460 18.991 C 18.363 18.998,20.285 18.988,20.423 18.959 C 20.938 18.853,21.538 18.398,21.771 17.937 C 22.010 17.466,22.000 17.732,21.999 12.014 C 21.999 6.337,22.006 6.525,21.781 6.083 C 21.646 5.816,21.297 5.449,21.017 5.281 C 20.531 4.988,20.918 5.005,14.560 5.005 C 9.605 5.006,8.834 5.013,8.660 5.066 M20.000 12.000 L 20.000 17.000 14.710 17.000 L 9.419 17.000 7.030 14.609 L 4.640 12.218 4.640 12.000 L 4.640 11.782 7.030 9.391 L 9.419 7.000 14.710 7.000 L 20.000 7.000 20.000 12.000 M11.626 9.045 C 11.257 9.239,10.951 9.673,10.951 10.000 C 10.951 10.307,11.079 10.487,11.853 11.270 L 12.575 12.000 11.853 12.730 C 11.079 13.513,10.951 13.693,10.951 14.000 C 10.951 14.477,11.523 15.049,12.000 15.049 C 12.307 15.049,12.487 14.921,13.270 14.147 L 14.000 13.425 14.730 14.147 C 15.513 14.921,15.693 15.049,16.000 15.049 C 16.477 15.049,17.049 14.477,17.049 14.000 C 17.049 13.693,16.921 13.513,16.147 12.730 L 15.425 12.000 16.147 11.270 C 16.580 10.832,16.905 10.469,16.959 10.363 C 17.137 10.012,17.048 9.646,16.701 9.299 C 16.360 8.958,15.979 8.868,15.628 9.045 C 15.533 9.094,15.144 9.444,14.730 9.853 L 14.000 10.575 13.270 9.853 C 12.856 9.444,12.467 9.094,12.372 9.045 C 12.152 8.934,11.836 8.934,11.626 9.045 " stroke="none" fill="black" fill-rule="evenodd"></path></svg>