<svg xmlns="http://www.w3.org/2000/svg" width="24" height="24" viewBox="0 0 24 24" fill="none" stroke="currentColor" stroke-width="2" stroke-linecap="round" stroke-linejoin="round" class="icon icon-tabler icons-tabler-outline icon-tabler-git-cherry-pick"><path d="M6.614 2.057 C 6.377 2.131,6.212 2.261,6.109 2.453 C 6.020 2.620,6.020 2.621,6.000 5.373 L 5.980 8.126 5.720 8.217 C 4.350 8.697,3.370 9.816,3.083 11.227 C 2.700 13.105,3.756 15.031,5.540 15.711 C 5.716 15.778,5.891 15.843,5.930 15.855 C 5.996 15.876,6.000 16.040,6.000 18.549 C 6.000 20.215,6.016 21.274,6.041 21.365 C 6.148 21.750,6.437 21.962,6.896 21.991 C 7.381 22.022,7.699 21.882,7.880 21.558 L 7.980 21.380 7.991 18.628 C 8.002 16.069,8.007 15.875,8.071 15.855 C 9.339 15.453,10.237 14.645,10.704 13.488 C 11.560 11.365,10.464 8.982,8.280 8.217 L 8.020 8.126 8.000 5.373 C 7.980 2.621,7.980 2.620,7.891 2.453 C 7.842 2.362,7.746 2.247,7.678 2.199 C 7.414 2.010,6.957 1.950,6.614 2.057 M12.614 6.056 C 12.376 6.132,12.212 6.261,12.109 6.453 C 12.035 6.592,12.020 6.684,12.020 7.000 C 12.020 7.331,12.033 7.403,12.120 7.558 C 12.230 7.755,12.414 7.898,12.635 7.959 C 12.715 7.981,13.224 8.000,13.768 8.000 L 14.755 8.000 14.855 8.330 C 14.910 8.511,15.180 9.412,15.456 10.330 L 15.956 12.000 15.456 13.670 C 15.180 14.588,14.910 15.489,14.855 15.670 L 14.755 16.000 13.784 16.000 C 12.751 16.000,12.565 16.025,12.322 16.199 C 12.100 16.357,12.020 16.568,12.020 17.000 C 12.020 17.331,12.033 17.403,12.120 17.558 C 12.230 17.755,12.414 17.898,12.635 17.959 C 12.839 18.016,15.594 18.013,15.820 17.956 C 16.053 17.897,16.290 17.687,16.389 17.452 C 16.434 17.346,16.756 16.302,17.105 15.130 L 17.740 13.001 18.980 13.000 C 19.686 13.000,20.282 12.982,20.365 12.959 C 20.586 12.898,20.770 12.755,20.880 12.558 C 20.967 12.402,20.980 12.332,20.979 12.000 C 20.978 11.567,20.898 11.355,20.678 11.199 C 20.425 11.019,20.265 11.000,18.964 11.000 L 17.740 10.999 17.123 8.930 C 16.784 7.791,16.472 6.765,16.430 6.649 C 16.336 6.388,16.199 6.223,15.985 6.108 C 15.824 6.022,15.783 6.020,14.300 6.012 C 13.131 6.005,12.742 6.016,12.614 6.056 M7.523 10.073 C 8.262 10.266,8.850 10.924,8.967 11.690 C 9.067 12.343,8.873 12.933,8.403 13.404 C 8.002 13.807,7.547 14.000,7.000 14.000 C 6.485 14.000,6.038 13.822,5.653 13.465 C 4.323 12.229,5.189 10.005,7.000 10.005 C 7.143 10.005,7.378 10.036,7.523 10.073 " stroke="none" fill="black" fill-rule="evenodd"></path></svg>