<svg xmlns="http://www.w3.org/2000/svg" width="24" height="24" viewBox="0 0 24 24" fill="none" stroke="currentColor" stroke-width="2" stroke-linecap="round" stroke-linejoin="round" class="icon icon-tabler icons-tabler-outline icon-tabler-treadmill"><path d="M10.477 1.073 C 9.806 1.249,9.238 1.823,9.060 2.508 C 8.941 2.962,9.003 3.492,9.225 3.930 C 9.361 4.199,9.801 4.639,10.070 4.775 C 10.659 5.073,11.341 5.073,11.930 4.775 C 12.196 4.640,12.638 4.200,12.771 3.937 C 12.994 3.498,13.052 3.007,12.940 2.529 C 12.858 2.182,12.720 1.927,12.465 1.653 C 12.074 1.232,11.560 1.005,11.000 1.005 C 10.857 1.005,10.622 1.036,10.477 1.073 M9.217 6.104 C 9.094 6.168,8.378 6.370,7.305 6.641 C 5.410 7.120,5.299 7.163,5.120 7.482 C 5.020 7.660,5.020 7.660,5.008 8.928 C 5.000 9.727,5.011 10.254,5.038 10.352 C 5.144 10.747,5.432 10.961,5.896 10.991 C 6.381 11.022,6.699 10.882,6.880 10.558 C 6.976 10.387,6.981 10.347,6.993 9.578 L 7.007 8.777 7.753 8.591 C 8.163 8.489,8.505 8.411,8.512 8.419 C 8.519 8.426,8.404 9.248,8.256 10.247 C 7.962 12.237,7.960 12.307,8.161 12.606 C 8.225 12.702,8.890 13.373,9.639 14.098 L 11.000 15.415 11.000 16.818 C 11.000 17.634,11.017 18.281,11.041 18.365 C 11.148 18.750,11.437 18.962,11.896 18.991 C 12.381 19.022,12.699 18.882,12.880 18.558 L 12.980 18.380 12.992 16.626 C 13.003 15.060,12.997 14.850,12.936 14.666 C 12.859 14.434,12.846 14.421,11.104 12.727 L 10.067 11.720 10.255 10.430 C 10.358 9.721,10.453 9.088,10.466 9.025 C 10.488 8.913,10.508 8.928,11.194 9.613 C 11.697 10.114,11.952 10.339,12.080 10.395 C 12.179 10.438,12.863 10.594,13.599 10.741 C 15.115 11.043,15.311 11.056,15.591 10.870 C 15.829 10.713,15.970 10.400,15.991 9.984 C 16.005 9.700,15.995 9.638,15.910 9.480 C 15.736 9.155,15.604 9.104,14.223 8.825 L 13.001 8.579 11.791 7.372 C 10.903 6.487,10.532 6.143,10.400 6.083 C 10.258 6.019,10.135 6.002,9.817 6.001 C 9.459 6.000,9.391 6.012,9.217 6.104 M20.780 8.016 C 20.533 8.094,18.462 9.146,18.321 9.265 C 18.143 9.415,18.053 9.617,18.003 9.982 C 17.979 10.157,17.770 12.397,17.540 14.960 C 17.309 17.523,17.110 19.706,17.096 19.810 L 17.072 20.000 10.406 20.002 C 2.970 20.005,3.473 19.986,2.983 20.281 C 2.703 20.449,2.354 20.816,2.219 21.083 C 2.083 21.351,2.000 21.690,2.000 21.978 C 2.001 22.620,2.295 22.953,2.896 22.991 C 3.533 23.031,3.915 22.757,3.983 22.210 L 4.009 22.000 11.999 22.000 L 19.989 22.000 20.013 22.203 C 20.074 22.715,20.426 23.000,21.000 23.000 C 21.618 23.000,21.944 22.706,21.987 22.110 C 22.027 21.565,21.848 21.065,21.465 20.653 C 21.008 20.161,20.585 20.006,19.690 20.002 L 19.120 20.000 19.120 19.890 C 19.120 19.750,19.914 10.945,19.943 10.769 C 19.963 10.644,19.998 10.621,20.752 10.243 C 21.685 9.775,21.839 9.670,21.960 9.420 C 22.072 9.190,22.054 8.905,21.909 8.590 C 21.666 8.061,21.271 7.860,20.780 8.016 M2.494 13.082 C 2.194 13.231,2.002 13.624,1.995 14.105 C 1.989 14.503,2.178 14.765,2.571 14.904 C 2.933 15.033,6.889 16.000,7.052 16.000 C 7.332 16.000,7.587 15.842,8.007 15.409 C 8.454 14.947,8.578 14.726,8.551 14.438 C 8.514 14.056,8.095 13.591,7.684 13.476 C 7.404 13.397,7.108 13.502,6.792 13.792 L 6.684 13.891 4.902 13.446 C 2.974 12.963,2.790 12.936,2.494 13.082 " stroke="none" fill="black" fill-rule="evenodd"></path></svg>