<svg xmlns="http://www.w3.org/2000/svg" width="24" height="24" viewBox="0 0 24 24" fill="none" stroke="currentColor" stroke-width="2" stroke-linecap="round" stroke-linejoin="round" class="icon icon-tabler icons-tabler-outline icon-tabler-new-section"><path d="M4.477 3.073 C 3.806 3.249,3.238 3.823,3.060 4.508 C 2.990 4.777,2.976 6.131,3.041 6.365 C 3.148 6.750,3.437 6.962,3.896 6.991 C 4.381 7.022,4.699 6.882,4.880 6.558 C 4.974 6.391,4.981 6.338,4.994 5.690 L 5.008 5.000 5.614 5.000 C 5.947 5.000,6.285 4.981,6.365 4.959 C 6.586 4.898,6.770 4.755,6.880 4.558 C 6.967 4.402,6.980 4.332,6.979 4.000 C 6.978 3.687,6.962 3.591,6.890 3.453 C 6.786 3.256,6.623 3.131,6.371 3.055 C 6.091 2.971,4.822 2.983,4.477 3.073 M10.614 3.057 C 10.377 3.131,10.212 3.261,10.109 3.453 C 10.035 3.592,10.020 3.684,10.020 4.000 C 10.020 4.331,10.033 4.403,10.120 4.558 C 10.230 4.755,10.414 4.898,10.635 4.959 C 10.826 5.012,13.174 5.012,13.365 4.959 C 13.586 4.898,13.770 4.755,13.880 4.558 C 13.967 4.402,13.980 4.332,13.979 4.000 C 13.978 3.687,13.962 3.591,13.890 3.453 C 13.786 3.256,13.623 3.131,13.371 3.055 C 13.117 2.979,10.859 2.981,10.614 3.057 M17.614 3.057 C 17.377 3.131,17.212 3.261,17.109 3.453 C 17.035 3.592,17.020 3.684,17.020 4.000 C 17.020 4.331,17.033 4.403,17.120 4.558 C 17.230 4.755,17.414 4.898,17.635 4.959 C 17.715 4.981,18.055 5.000,18.390 5.000 L 19.000 5.000 19.000 5.610 C 19.000 5.946,19.019 6.285,19.041 6.365 C 19.148 6.750,19.437 6.962,19.896 6.991 C 20.381 7.022,20.699 6.882,20.880 6.558 C 20.976 6.388,20.981 6.345,20.993 5.600 C 21.012 4.489,20.918 4.141,20.465 3.653 C 20.198 3.366,19.870 3.164,19.523 3.073 C 19.189 2.986,17.876 2.975,17.614 3.057 M11.614 8.057 C 11.377 8.131,11.212 8.261,11.109 8.453 C 11.024 8.613,11.020 8.668,11.008 9.810 L 10.996 11.000 9.904 11.000 C 8.744 11.000,8.570 11.022,8.322 11.199 C 8.100 11.357,8.020 11.568,8.020 12.000 C 8.020 12.331,8.033 12.403,8.120 12.558 C 8.230 12.755,8.414 12.898,8.635 12.959 C 8.716 12.982,9.270 13.000,9.890 13.000 L 11.000 13.000 11.000 14.110 C 11.000 14.730,11.018 15.284,11.041 15.365 C 11.148 15.750,11.437 15.962,11.896 15.991 C 12.381 16.022,12.699 15.882,12.880 15.558 C 12.979 15.381,12.980 15.374,12.993 14.190 L 13.005 13.000 14.113 13.000 C 14.731 13.000,15.284 12.982,15.365 12.959 C 15.586 12.898,15.770 12.755,15.880 12.558 C 15.967 12.402,15.980 12.332,15.979 12.000 C 15.978 11.567,15.898 11.355,15.678 11.199 C 15.430 11.022,15.256 11.000,14.096 11.000 L 13.005 11.000 12.993 9.810 C 12.981 8.669,12.976 8.613,12.891 8.453 C 12.842 8.362,12.746 8.247,12.678 8.199 C 12.414 8.010,11.957 7.950,11.614 8.057 M3.614 10.057 C 3.377 10.131,3.212 10.261,3.109 10.453 C 3.023 10.614,3.020 10.665,3.008 11.908 C 3.000 12.720,3.011 13.254,3.038 13.352 C 3.144 13.747,3.432 13.961,3.896 13.991 C 4.381 14.022,4.699 13.882,4.880 13.558 L 4.980 13.380 4.980 12.000 C 4.980 10.650,4.978 10.616,4.891 10.453 C 4.842 10.362,4.746 10.247,4.678 10.199 C 4.414 10.010,3.957 9.950,3.614 10.057 M19.614 10.057 C 19.377 10.131,19.212 10.261,19.109 10.453 C 19.023 10.614,19.020 10.665,19.008 11.908 C 19.000 12.720,19.011 13.254,19.038 13.352 C 19.144 13.747,19.432 13.961,19.896 13.991 C 20.381 14.022,20.699 13.882,20.880 13.558 L 20.980 13.380 20.980 12.000 C 20.980 10.650,20.978 10.616,20.891 10.453 C 20.842 10.362,20.746 10.247,20.678 10.199 C 20.414 10.010,19.957 9.950,19.614 10.057 M3.614 17.057 C 3.377 17.131,3.212 17.261,3.109 17.453 C 3.027 17.607,3.019 17.684,3.007 18.409 C 2.993 19.284,3.020 19.494,3.202 19.877 C 3.348 20.186,3.771 20.623,4.070 20.775 C 4.442 20.963,4.672 21.000,5.478 21.000 C 5.886 21.000,6.285 20.981,6.365 20.959 C 6.586 20.898,6.770 20.755,6.880 20.558 C 6.967 20.402,6.980 20.332,6.979 20.000 C 6.978 19.687,6.962 19.591,6.890 19.453 C 6.702 19.098,6.423 19.000,5.598 19.000 L 5.008 19.000 4.993 18.310 C 4.976 17.541,4.930 17.378,4.678 17.199 C 4.414 17.010,3.957 16.950,3.614 17.057 M19.614 17.057 C 19.377 17.131,19.212 17.261,19.109 17.453 C 19.029 17.603,19.019 17.689,19.007 18.310 L 18.993 19.000 18.403 19.000 C 17.577 19.000,17.299 19.097,17.109 19.453 C 17.035 19.592,17.020 19.684,17.020 20.000 C 17.020 20.331,17.033 20.403,17.120 20.558 C 17.230 20.755,17.414 20.898,17.635 20.959 C 17.869 21.024,19.223 21.010,19.492 20.940 C 19.852 20.847,20.118 20.690,20.404 20.404 C 20.913 19.895,21.013 19.559,20.993 18.421 C 20.980 17.687,20.971 17.606,20.890 17.453 C 20.842 17.362,20.746 17.247,20.678 17.199 C 20.414 17.010,19.957 16.950,19.614 17.057 M10.614 19.057 C 10.377 19.131,10.212 19.261,10.109 19.453 C 10.035 19.592,10.020 19.684,10.020 20.000 C 10.020 20.331,10.033 20.403,10.120 20.558 C 10.230 20.755,10.414 20.898,10.635 20.959 C 10.718 20.982,11.305 21.000,12.000 21.000 C 12.695 21.000,13.282 20.982,13.365 20.959 C 13.586 20.898,13.770 20.755,13.880 20.558 C 13.967 20.402,13.980 20.332,13.979 20.000 C 13.978 19.687,13.962 19.591,13.890 19.453 C 13.786 19.256,13.623 19.131,13.371 19.055 C 13.117 18.979,10.859 18.981,10.614 19.057 " stroke="none" fill="black" fill-rule="evenodd"></path></svg>