<svg xmlns="http://www.w3.org/2000/svg" width="24" height="24" viewBox="0 0 24 24" fill="none" stroke="currentColor" stroke-width="2" stroke-linecap="round" stroke-linejoin="round" class="icon icon-tabler icons-tabler-outline icon-tabler-rosette-number-9"><path d="M11.640 2.043 C 10.834 2.129,10.301 2.420,9.472 3.228 C 9.076 3.613,8.817 3.833,8.690 3.892 C 8.518 3.970,8.409 3.981,7.560 4.005 C 6.763 4.027,6.574 4.044,6.320 4.118 C 5.286 4.419,4.421 5.285,4.118 6.321 C 4.044 6.574,4.026 6.765,4.003 7.560 C 3.969 8.749,3.993 8.688,3.249 9.452 C 2.506 10.214,2.333 10.477,2.140 11.143 C 1.881 12.038,2.027 12.974,2.550 13.772 C 2.648 13.921,2.967 14.290,3.259 14.592 C 3.550 14.893,3.831 15.221,3.882 15.320 C 3.970 15.488,3.978 15.562,4.004 16.460 C 4.033 17.418,4.049 17.539,4.218 18.000 C 4.464 18.676,5.138 19.388,5.844 19.719 C 6.330 19.946,6.650 20.001,7.660 20.034 C 8.437 20.060,8.602 20.076,8.720 20.138 C 8.797 20.178,9.114 20.457,9.424 20.758 C 9.735 21.059,10.095 21.375,10.224 21.461 C 11.112 22.051,12.222 22.162,13.220 21.763 C 13.675 21.580,13.919 21.401,14.546 20.791 C 15.314 20.042,15.283 20.054,16.420 20.027 C 17.129 20.010,17.362 19.990,17.620 19.924 C 18.721 19.640,19.640 18.721,19.924 17.620 C 19.990 17.362,20.010 17.129,20.027 16.420 C 20.054 15.283,20.042 15.314,20.791 14.546 C 21.401 13.919,21.580 13.675,21.763 13.220 C 22.162 12.222,22.051 11.112,21.461 10.224 C 21.375 10.095,21.059 9.735,20.758 9.424 C 20.457 9.114,20.178 8.797,20.138 8.720 C 20.076 8.602,20.060 8.437,20.034 7.660 C 20.001 6.650,19.946 6.330,19.719 5.844 C 19.389 5.139,18.754 4.534,18.031 4.236 C 17.605 4.061,17.177 4.000,16.362 4.000 C 15.359 4.000,15.362 4.001,14.705 3.366 C 13.894 2.580,13.575 2.361,12.956 2.163 C 12.749 2.097,12.042 1.985,11.960 2.006 C 11.949 2.008,11.805 2.025,11.640 2.043 M12.223 4.043 C 12.353 4.067,12.523 4.125,12.600 4.171 C 12.677 4.218,12.992 4.500,13.300 4.799 C 13.894 5.376,14.191 5.597,14.580 5.755 C 15.052 5.946,15.186 5.966,16.180 5.996 C 17.253 6.028,17.329 6.046,17.653 6.354 C 17.954 6.640,17.972 6.709,18.006 7.740 C 18.038 8.747,18.094 9.070,18.318 9.549 C 18.502 9.942,18.656 10.141,19.242 10.742 C 19.914 11.431,19.978 11.540,19.979 12.000 C 19.980 12.258,19.961 12.379,19.902 12.500 C 19.858 12.588,19.585 12.907,19.294 13.209 C 18.202 14.343,18.054 14.692,18.007 16.260 L 17.980 17.180 17.856 17.400 C 17.716 17.649,17.436 17.883,17.186 17.962 C 17.084 17.993,16.663 18.024,16.100 18.042 C 15.105 18.072,14.927 18.102,14.464 18.321 C 14.089 18.498,13.800 18.724,13.169 19.332 C 12.701 19.784,12.579 19.881,12.401 19.940 C 12.123 20.032,11.728 20.007,11.480 19.881 C 11.379 19.830,11.053 19.548,10.740 19.242 C 10.018 18.536,9.752 18.356,9.140 18.159 C 8.896 18.081,8.736 18.066,7.900 18.042 C 7.030 18.016,6.921 18.005,6.740 17.925 C 6.488 17.813,6.263 17.598,6.129 17.340 C 6.028 17.146,6.023 17.110,5.996 16.180 C 5.966 15.186,5.946 15.052,5.755 14.580 C 5.597 14.191,5.376 13.894,4.799 13.300 C 4.500 12.992,4.218 12.677,4.171 12.600 C 3.996 12.308,3.982 11.789,4.142 11.474 C 4.179 11.400,4.429 11.115,4.697 10.840 C 5.286 10.236,5.485 9.988,5.663 9.635 C 5.923 9.118,5.967 8.883,5.997 7.840 C 6.027 6.772,6.053 6.667,6.360 6.360 C 6.667 6.053,6.772 6.027,7.840 5.997 C 8.883 5.967,9.118 5.923,9.635 5.663 C 9.988 5.485,10.236 5.286,10.840 4.697 C 11.370 4.181,11.502 4.090,11.796 4.041 C 11.897 4.023,11.981 4.007,11.983 4.005 C 11.984 4.002,12.092 4.020,12.223 4.043 M10.477 7.073 C 9.806 7.249,9.238 7.823,9.060 8.508 C 9.013 8.687,9.000 9.009,9.000 10.000 C 9.000 11.368,9.018 11.521,9.225 11.930 C 9.361 12.199,9.801 12.639,10.070 12.775 C 10.472 12.979,10.642 13.000,11.868 13.000 L 13.000 13.000 13.000 14.000 L 13.000 15.000 12.005 15.000 L 11.010 15.000 10.983 14.794 C 10.930 14.393,10.743 14.167,10.371 14.055 C 9.861 13.902,9.305 14.077,9.113 14.453 C 9.008 14.659,8.973 15.095,9.037 15.404 C 9.148 15.941,9.595 16.534,10.070 16.775 C 10.479 16.982,10.632 17.000,12.000 17.000 C 13.368 17.000,13.521 16.982,13.930 16.775 C 14.196 16.640,14.638 16.200,14.771 15.937 C 15.003 15.479,15.000 15.537,14.999 12.014 C 14.999 8.515,14.999 8.511,14.781 8.083 C 14.551 7.628,14.022 7.203,13.523 7.073 C 13.134 6.972,10.866 6.972,10.477 7.073 M13.000 10.000 L 13.000 11.000 12.000 11.000 L 11.000 11.000 11.000 10.000 L 11.000 9.000 12.000 9.000 L 13.000 9.000 13.000 10.000 " stroke="none" fill="black" fill-rule="evenodd"></path></svg>