<svg xmlns="http://www.w3.org/2000/svg" width="24" height="24" viewBox="0 0 24 24" fill="none" stroke="currentColor" stroke-width="2" stroke-linecap="round" stroke-linejoin="round" class="icon icon-tabler icons-tabler-outline icon-tabler-door-enter"><path d="M6.499 2.043 C 5.393 2.228,4.488 3.024,4.114 4.140 L 4.020 4.420 4.009 12.210 L 3.999 20.000 3.406 20.000 C 2.577 20.000,2.300 20.097,2.109 20.453 C 2.035 20.592,2.020 20.684,2.020 21.000 C 2.020 21.331,2.033 21.403,2.120 21.558 C 2.230 21.755,2.414 21.898,2.635 21.959 C 2.835 22.015,21.165 22.015,21.365 21.959 C 21.586 21.898,21.770 21.755,21.880 21.558 C 21.967 21.402,21.980 21.332,21.979 21.000 C 21.978 20.567,21.898 20.355,21.678 20.199 C 21.416 20.012,21.290 20.000,19.594 20.000 L 18.000 20.000 18.000 16.647 C 18.000 12.880,18.009 13.006,17.723 12.747 C 17.536 12.578,17.351 12.520,17.000 12.520 C 16.649 12.520,16.464 12.578,16.277 12.747 C 15.991 13.006,16.000 12.880,16.000 16.647 L 16.000 20.000 11.000 20.000 L 6.000 20.000 6.000 12.447 C 6.000 3.956,5.975 4.631,6.303 4.303 C 6.618 3.988,6.468 4.000,10.057 4.000 C 12.053 4.000,13.273 3.985,13.365 3.959 C 13.586 3.898,13.770 3.755,13.880 3.558 C 13.967 3.402,13.980 3.332,13.979 3.000 C 13.978 2.567,13.898 2.355,13.678 2.199 C 13.397 1.999,13.415 2.000,9.944 2.005 C 8.160 2.007,6.609 2.025,6.499 2.043 M16.620 3.046 C 16.528 3.094,15.826 3.758,14.960 4.618 C 14.135 5.438,13.399 6.150,13.324 6.201 C 13.149 6.321,12.951 6.745,12.951 7.000 C 12.951 7.238,13.150 7.682,13.303 7.784 C 13.366 7.826,14.101 8.537,14.938 9.365 C 15.949 10.365,16.520 10.901,16.637 10.960 C 16.989 11.137,17.354 11.048,17.701 10.701 C 18.048 10.354,18.137 9.988,17.959 9.637 C 17.905 9.531,17.580 9.168,17.147 8.730 L 16.425 8.000 18.822 8.000 C 20.305 8.000,21.275 7.984,21.365 7.959 C 21.586 7.898,21.770 7.755,21.880 7.558 C 21.967 7.402,21.980 7.332,21.979 7.000 C 21.978 6.567,21.898 6.355,21.678 6.199 C 21.405 6.004,21.347 6.000,18.806 6.000 L 16.425 6.000 17.147 5.270 C 17.580 4.832,17.905 4.469,17.959 4.363 C 18.137 4.012,18.048 3.646,17.701 3.299 C 17.361 2.959,16.967 2.867,16.620 3.046 M12.614 11.057 C 12.221 11.180,12.039 11.435,12.009 11.906 C 11.962 12.621,12.306 13.000,13.000 13.000 C 13.698 13.000,14.043 12.616,13.989 11.900 C 13.963 11.563,13.859 11.327,13.678 11.199 C 13.414 11.010,12.957 10.950,12.614 11.057 " stroke="none" fill="black" fill-rule="evenodd"></path></svg>