<svg xmlns="http://www.w3.org/2000/svg" width="24" height="24" viewBox="0 0 24 24" fill="none" stroke="currentColor" stroke-width="2" stroke-linecap="round" stroke-linejoin="round" class="icon icon-tabler icons-tabler-outline icon-tabler-currency-dogecoin"><path d="M5.614 5.056 C 5.376 5.132,5.212 5.262,5.109 5.453 C 5.035 5.592,5.020 5.684,5.020 6.000 C 5.020 6.331,5.033 6.403,5.120 6.558 C 5.230 6.755,5.414 6.898,5.635 6.959 C 5.716 6.982,6.270 7.000,6.890 7.000 L 8.000 7.000 8.000 9.000 L 8.000 11.000 6.906 11.000 C 5.744 11.000,5.570 11.022,5.322 11.199 C 5.100 11.357,5.020 11.568,5.020 12.000 C 5.020 12.331,5.033 12.403,5.120 12.558 C 5.230 12.755,5.414 12.898,5.635 12.959 C 5.716 12.982,6.270 13.000,6.890 13.000 L 8.000 13.000 8.000 15.000 L 8.000 17.000 6.906 17.000 C 5.744 17.000,5.570 17.022,5.322 17.199 C 5.100 17.357,5.020 17.568,5.020 18.000 C 5.020 18.331,5.033 18.403,5.120 18.558 C 5.232 18.759,5.417 18.900,5.648 18.962 C 5.753 18.990,6.942 18.999,9.312 18.988 C 12.263 18.975,12.871 18.962,13.140 18.910 C 14.681 18.613,15.902 17.980,16.941 16.941 C 18.008 15.874,18.679 14.548,18.926 13.020 C 18.992 12.607,18.992 11.393,18.926 10.980 C 18.433 7.924,16.178 5.637,13.120 5.091 C 12.638 5.005,5.871 4.974,5.614 5.056 M12.552 7.043 C 14.413 7.246,16.001 8.479,16.680 10.248 C 17.092 11.320,17.085 12.720,16.663 13.793 C 16.120 15.174,14.990 16.258,13.600 16.732 C 12.952 16.952,12.796 16.970,11.350 16.989 L 10.000 17.006 10.000 15.003 L 10.000 13.000 11.110 13.000 C 11.730 13.000,12.284 12.982,12.365 12.959 C 12.586 12.898,12.770 12.755,12.880 12.558 C 12.967 12.402,12.980 12.332,12.979 12.000 C 12.978 11.567,12.898 11.355,12.678 11.199 C 12.430 11.022,12.256 11.000,11.094 11.000 L 10.000 11.000 10.000 9.000 L 10.000 7.000 11.082 7.000 C 11.676 7.000,12.338 7.019,12.552 7.043 " stroke="none" fill="black" fill-rule="evenodd"></path></svg>