<svg xmlns="http://www.w3.org/2000/svg" width="24" height="24" viewBox="0 0 24 24" fill="none" stroke="currentColor" stroke-width="2" stroke-linecap="round" stroke-linejoin="round" class="icon icon-tabler icons-tabler-outline icon-tabler-brand-edge"><path d="M11.120 2.041 C 7.361 2.398,4.156 4.763,2.746 8.220 C 1.219 11.962,2.077 16.207,4.938 19.061 C 6.924 21.043,9.535 22.080,12.314 21.989 C 14.424 21.921,16.378 21.223,18.100 19.924 C 18.860 19.351,20.037 18.074,20.324 17.513 C 20.369 17.423,20.415 17.258,20.425 17.145 C 20.441 16.971,20.421 16.889,20.291 16.600 C 20.159 16.308,20.111 16.242,19.944 16.130 C 19.699 15.965,19.487 15.960,18.796 16.102 C 17.171 16.435,15.818 16.510,14.600 16.335 C 13.150 16.125,12.022 15.621,11.216 14.821 C 10.562 14.172,10.199 13.450,10.058 12.520 C 9.986 12.043,9.985 11.737,10.055 11.380 C 10.128 11.013,10.175 10.900,10.358 10.660 C 10.646 10.281,11.166 10.061,11.880 10.015 C 12.524 9.974,13.056 10.134,13.357 10.461 C 13.618 10.745,13.660 10.854,13.660 11.260 C 13.659 11.660,13.629 11.742,13.300 12.223 C 13.102 12.511,13.041 12.690,13.040 12.976 C 13.040 13.203,13.165 13.450,13.347 13.585 C 13.824 13.936,14.997 14.305,16.260 14.502 C 16.835 14.592,18.049 14.622,18.605 14.562 C 20.420 14.362,21.547 13.568,21.903 12.238 C 22.071 11.609,21.934 10.317,21.573 9.120 C 20.450 5.403,17.309 2.690,13.469 2.117 C 12.855 2.026,11.682 1.988,11.120 2.041 M13.180 4.095 C 15.523 4.465,17.546 5.795,18.790 7.784 C 19.486 8.896,19.928 10.284,19.936 11.386 C 19.940 11.872,19.940 11.872,19.816 12.026 C 19.663 12.216,19.361 12.374,18.940 12.483 C 18.523 12.592,17.557 12.629,16.908 12.563 C 16.475 12.518,15.583 12.356,15.541 12.314 C 15.531 12.304,15.551 12.207,15.586 12.098 C 15.623 11.982,15.657 11.684,15.669 11.378 C 15.687 10.934,15.677 10.806,15.605 10.518 C 15.381 9.620,14.579 8.472,13.740 7.847 C 13.407 7.599,12.621 7.201,12.195 7.064 C 10.226 6.434,7.820 6.689,5.659 7.757 C 5.231 7.969,5.059 8.037,5.087 7.985 C 5.366 7.474,5.934 6.751,6.430 6.275 C 7.743 5.016,9.264 4.288,11.066 4.058 C 11.584 3.992,12.647 4.011,13.180 4.095 M9.165 9.025 C 8.562 9.585,8.327 10.007,8.075 10.980 C 7.621 12.729,7.545 13.249,7.543 14.640 C 7.542 15.465,7.557 15.802,7.613 16.160 C 7.766 17.150,7.999 17.992,8.325 18.736 C 8.413 18.936,8.495 19.124,8.508 19.153 C 8.539 19.226,8.109 19.005,7.685 18.731 C 6.304 17.841,5.197 16.508,4.595 15.011 C 4.094 13.767,3.908 12.382,4.155 11.751 C 4.461 10.972,5.446 10.064,6.576 9.521 C 7.424 9.113,8.399 8.843,9.457 8.724 C 9.477 8.722,9.346 8.857,9.165 9.025 M10.793 17.043 C 11.354 17.414,11.936 17.691,12.637 17.921 C 13.715 18.275,14.609 18.411,15.890 18.416 C 16.368 18.418,16.760 18.425,16.760 18.431 C 16.760 18.463,15.934 18.972,15.658 19.111 C 14.546 19.669,13.308 19.989,12.398 19.955 C 12.050 19.941,11.987 19.926,11.704 19.786 C 11.008 19.442,10.382 18.617,10.004 17.546 C 9.883 17.201,9.715 16.576,9.662 16.267 L 9.635 16.114 10.006 16.441 C 10.210 16.621,10.564 16.892,10.793 17.043 " stroke="none" fill="black" fill-rule="evenodd"></path></svg>