<svg xmlns="http://www.w3.org/2000/svg" width="24" height="24" viewBox="0 0 24 24" fill="none" stroke="currentColor" stroke-width="2" stroke-linecap="round" stroke-linejoin="round" class="icon icon-tabler icons-tabler-outline icon-tabler-inner-shadow-top"><path d="M11.080 2.045 C 9.508 2.184,7.887 2.749,6.540 3.629 C 5.905 4.044,5.499 4.376,4.919 4.958 C 3.608 6.272,2.724 7.844,2.285 9.645 C 2.071 10.521,2.022 10.962,2.022 12.000 C 2.022 13.038,2.071 13.479,2.285 14.355 C 2.727 16.167,3.610 17.732,4.939 19.061 C 6.490 20.613,8.383 21.564,10.600 21.907 C 11.245 22.007,12.755 22.007,13.400 21.907 C 15.616 21.565,17.511 20.612,19.061 19.061 C 20.389 17.734,21.274 16.165,21.715 14.355 C 21.930 13.475,21.979 13.038,21.978 12.000 C 21.977 10.961,21.927 10.513,21.715 9.645 C 20.539 4.825,16.035 1.606,11.080 2.045 M12.734 4.041 C 14.572 4.216,16.230 4.977,17.554 6.256 C 19.754 8.379,20.550 11.592,19.596 14.497 C 19.294 15.417,18.770 16.363,18.153 17.100 C 17.388 18.015,16.523 18.693,15.471 19.200 C 13.267 20.265,10.733 20.265,8.529 19.200 C 7.477 18.693,6.612 18.015,5.847 17.100 C 4.102 15.014,3.550 12.104,4.404 9.503 C 4.800 8.296,5.523 7.146,6.446 6.256 C 8.133 4.627,10.420 3.822,12.734 4.041 M11.520 5.023 C 10.354 5.156,9.869 5.283,9.020 5.680 C 8.307 6.013,7.692 6.437,7.150 6.970 C 6.816 7.298,6.711 7.487,6.711 7.760 C 6.711 8.002,6.807 8.200,7.040 8.440 C 7.281 8.688,7.503 8.800,7.748 8.799 C 8.007 8.798,8.210 8.696,8.520 8.413 C 8.919 8.049,9.229 7.826,9.642 7.606 C 10.284 7.264,10.788 7.111,11.530 7.034 C 12.932 6.888,14.308 7.357,15.420 8.360 C 15.792 8.696,15.986 8.798,16.252 8.799 C 16.728 8.801,17.289 8.239,17.289 7.758 C 17.289 7.487,17.183 7.297,16.850 6.970 C 15.850 5.987,14.495 5.310,13.100 5.097 C 12.728 5.040,11.767 4.995,11.520 5.023 " stroke="none" fill="black" fill-rule="evenodd"></path></svg>