<svg xmlns="http://www.w3.org/2000/svg" width="24" height="24" viewBox="0 0 24 24" fill="none" stroke="currentColor" stroke-width="2" stroke-linecap="round" stroke-linejoin="round" class="icon icon-tabler icons-tabler-outline icon-tabler-arrow-up-right"><path d="M12.219 6.000 L 7.658 6.020 7.459 6.122 C 7.119 6.297,6.978 6.606,7.009 7.104 C 7.038 7.563,7.250 7.852,7.635 7.959 C 7.727 7.985,9.026 8.000,11.180 8.000 L 14.579 8.000 10.354 12.230 C 7.338 15.248,6.103 16.511,6.039 16.637 C 5.863 16.990,5.952 17.355,6.299 17.701 C 6.645 18.048,7.010 18.137,7.363 17.961 C 7.489 17.897,8.752 16.662,11.770 13.646 L 16.000 9.421 16.000 12.820 C 16.000 14.974,16.015 16.273,16.041 16.365 C 16.148 16.750,16.437 16.962,16.896 16.991 C 17.381 17.022,17.699 16.882,17.880 16.558 L 17.980 16.380 18.006 11.720 C 18.021 9.157,18.034 7.001,18.036 6.929 C 18.041 6.741,17.835 6.310,17.690 6.207 C 17.466 6.048,17.205 5.959,16.987 5.970 C 16.873 5.975,14.728 5.988,12.219 6.000 " stroke="none" fill="black" fill-rule="evenodd"></path></svg>