<svg xmlns="http://www.w3.org/2000/svg" width="24" height="24" viewBox="0 0 24 24" fill="none" stroke="currentColor" stroke-width="2" stroke-linecap="round" stroke-linejoin="round" class="icon icon-tabler icons-tabler-outline icon-tabler-math-equal-lower"><path d="M11.708 7.041 C 7.643 8.204,4.537 9.113,4.457 9.162 C 4.171 9.339,3.995 9.691,3.990 10.100 C 3.985 10.449,4.139 10.689,4.477 10.860 C 4.552 10.898,7.819 11.846,11.737 12.967 C 19.282 15.126,19.176 15.099,19.466 14.948 C 19.776 14.786,20.011 14.326,20.012 13.880 C 20.013 13.510,19.803 13.241,19.393 13.089 C 19.276 13.046,16.827 12.338,13.950 11.517 C 11.073 10.695,8.720 10.013,8.720 10.000 C 8.720 9.987,11.073 9.305,13.950 8.483 C 16.827 7.662,19.276 6.954,19.393 6.911 C 19.803 6.759,20.013 6.490,20.012 6.120 C 20.011 5.681,19.775 5.213,19.478 5.059 C 19.171 4.900,19.319 4.862,11.708 7.041 M4.497 13.075 C 4.198 13.257,3.989 13.688,3.988 14.120 C 3.987 14.449,4.149 14.694,4.477 14.860 C 4.552 14.898,7.819 15.846,11.737 16.967 C 19.282 19.126,19.176 19.099,19.466 18.948 C 19.776 18.786,20.011 18.326,20.012 17.880 C 20.013 17.551,19.851 17.306,19.523 17.140 C 19.448 17.102,16.181 16.155,12.263 15.035 C 4.561 12.834,4.795 12.893,4.497 13.075 " stroke="none" fill="black" fill-rule="evenodd"></path></svg>