<svg xmlns="http://www.w3.org/2000/svg" width="24" height="24" viewBox="0 0 24 24" fill="none" stroke="currentColor" stroke-width="2" stroke-linecap="round" stroke-linejoin="round" class="icon icon-tabler icons-tabler-outline icon-tabler-h-2"><path d="M2.614 5.057 C 2.223 5.180,2.039 5.436,2.009 5.900 C 1.968 6.532,2.251 6.922,2.797 6.987 L 3.000 7.011 3.000 11.996 L 3.000 16.982 2.756 17.028 C 2.450 17.086,2.227 17.232,2.111 17.450 C 2.035 17.592,2.020 17.682,2.020 18.000 C 2.020 18.331,2.033 18.403,2.120 18.558 C 2.230 18.755,2.414 18.898,2.635 18.959 C 2.826 19.012,5.174 19.012,5.365 18.959 C 5.586 18.898,5.770 18.755,5.880 18.558 C 5.967 18.402,5.980 18.332,5.979 18.000 C 5.978 17.685,5.963 17.591,5.888 17.450 C 5.773 17.232,5.551 17.086,5.244 17.028 L 5.000 16.982 5.000 14.991 L 5.000 13.000 8.000 13.000 L 11.000 13.000 11.000 14.991 L 11.000 16.982 10.756 17.028 C 10.450 17.086,10.227 17.232,10.111 17.450 C 10.035 17.592,10.020 17.682,10.020 18.000 C 10.020 18.331,10.033 18.403,10.120 18.558 C 10.230 18.755,10.414 18.898,10.635 18.959 C 10.826 19.012,13.174 19.012,13.365 18.959 C 13.586 18.898,13.770 18.755,13.880 18.558 C 13.967 18.402,13.980 18.332,13.979 18.000 C 13.978 17.685,13.963 17.591,13.888 17.450 C 13.773 17.232,13.551 17.086,13.244 17.028 L 13.000 16.982 13.000 11.996 L 13.000 7.011 13.197 6.988 C 13.539 6.947,13.754 6.805,13.904 6.520 C 14.018 6.305,14.009 5.679,13.890 5.453 C 13.786 5.256,13.623 5.131,13.371 5.055 C 13.108 4.976,10.892 4.976,10.629 5.055 C 10.224 5.177,10.040 5.428,10.009 5.900 C 9.968 6.532,10.251 6.922,10.797 6.987 L 11.000 7.011 11.000 9.006 L 11.000 11.000 8.000 11.000 L 5.000 11.000 5.000 9.006 L 5.000 7.011 5.197 6.988 C 5.539 6.947,5.754 6.805,5.904 6.520 C 6.018 6.305,6.009 5.679,5.890 5.453 C 5.786 5.256,5.623 5.131,5.371 5.055 C 5.117 4.979,2.859 4.981,2.614 5.057 M18.499 9.040 C 17.371 9.245,16.455 10.054,16.122 11.140 C 16.018 11.479,15.972 12.113,16.035 12.344 C 16.146 12.749,16.428 12.961,16.896 12.991 C 17.592 13.035,17.918 12.762,17.996 12.072 C 18.045 11.644,18.108 11.490,18.321 11.283 C 18.490 11.120,18.777 11.000,19.000 11.000 C 19.412 11.000,19.829 11.313,19.944 11.709 C 20.022 11.978,20.003 12.159,19.862 12.467 C 19.689 12.847,19.520 13.079,17.782 15.340 C 16.869 16.528,16.085 17.576,16.041 17.670 C 15.873 18.022,15.961 18.407,16.275 18.690 C 16.616 18.998,16.440 18.979,18.951 18.991 C 20.405 18.999,21.256 18.988,21.355 18.961 C 21.583 18.900,21.768 18.758,21.880 18.558 C 21.968 18.402,21.980 18.333,21.979 18.000 C 21.977 17.468,21.850 17.244,21.455 17.072 C 21.376 17.037,20.983 17.015,20.193 17.001 L 19.046 16.980 20.046 15.680 C 21.395 13.927,21.594 13.618,21.845 12.880 C 21.964 12.531,21.975 12.458,21.977 11.980 C 21.979 11.544,21.964 11.412,21.886 11.160 C 21.581 10.179,20.811 9.407,19.861 9.129 C 19.500 9.023,18.832 8.980,18.499 9.040 " stroke="none" fill="black" fill-rule="evenodd"></path></svg>