<svg xmlns="http://www.w3.org/2000/svg" width="24" height="24" viewBox="0 0 24 24" fill="none" stroke="currentColor" stroke-width="2" stroke-linecap="round" stroke-linejoin="round" class="icon icon-tabler icons-tabler-outline icon-tabler-help-triangle"><path d="M11.360 1.743 C 10.997 1.820,10.351 2.154,10.057 2.417 C 9.924 2.536,9.724 2.765,9.614 2.927 C 9.333 3.337,1.373 16.642,1.258 16.894 C 1.083 17.275,1.021 17.588,1.021 18.080 C 1.021 18.622,1.087 18.912,1.318 19.380 C 1.603 19.956,2.045 20.398,2.620 20.682 C 3.280 21.007,2.416 20.980,12.000 20.980 C 21.583 20.980,20.719 21.007,21.380 20.682 C 21.947 20.403,22.401 19.949,22.682 19.380 C 22.913 18.912,22.979 18.622,22.979 18.080 C 22.979 17.589,22.917 17.275,22.744 16.897 C 22.629 16.647,14.665 3.334,14.386 2.927 C 14.276 2.765,14.076 2.536,13.943 2.417 C 13.633 2.140,13.002 1.820,12.607 1.739 C 12.252 1.667,11.711 1.669,11.360 1.743 M12.380 3.756 C 12.468 3.797,12.588 3.882,12.647 3.945 C 12.789 4.099,20.880 17.616,20.952 17.820 C 21.108 18.266,20.805 18.829,20.340 18.956 C 20.114 19.018,3.907 19.018,3.663 18.956 C 3.165 18.831,2.862 18.202,3.076 17.740 C 3.207 17.457,11.243 4.064,11.353 3.945 C 11.508 3.778,11.744 3.682,12.000 3.682 C 12.130 3.682,12.286 3.712,12.380 3.756 M11.440 8.058 C 11.297 8.089,11.102 8.142,11.008 8.176 C 10.203 8.466,9.442 9.217,9.440 9.722 C 9.439 10.052,9.769 10.475,10.174 10.663 C 10.548 10.838,10.807 10.775,11.193 10.419 C 11.607 10.036,11.852 9.947,12.236 10.039 C 12.926 10.205,13.220 11.013,12.802 11.591 C 12.616 11.848,12.390 11.958,11.953 12.003 C 11.311 12.069,11.046 12.320,11.009 12.896 C 10.978 13.381,11.118 13.699,11.442 13.880 C 11.602 13.970,11.664 13.980,12.060 13.979 C 12.770 13.977,13.316 13.781,13.893 13.323 C 14.574 12.782,14.948 12.031,14.989 11.119 C 15.014 10.566,14.932 10.176,14.683 9.664 C 14.320 8.917,13.597 8.324,12.780 8.101 C 12.447 8.010,11.765 7.988,11.440 8.058 M11.614 15.057 C 11.221 15.180,11.039 15.435,11.009 15.906 C 10.962 16.621,11.306 17.000,12.000 17.000 C 12.698 17.000,13.043 16.616,12.989 15.900 C 12.963 15.563,12.859 15.327,12.678 15.199 C 12.414 15.010,11.957 14.950,11.614 15.057 " stroke="none" fill="black" fill-rule="evenodd"></path></svg>