<svg xmlns="http://www.w3.org/2000/svg" width="24" height="24" viewBox="0 0 24 24" fill="none" stroke="currentColor" stroke-width="2" stroke-linecap="round" stroke-linejoin="round" class="icon icon-tabler icons-tabler-outline icon-tabler-brand-tumblr"><path d="M9.614 2.057 C 9.376 2.132,9.212 2.261,9.110 2.453 C 9.031 2.605,9.020 2.700,8.997 3.520 C 8.967 4.529,8.938 4.677,8.688 5.063 C 8.514 5.331,8.181 5.647,7.946 5.767 C 7.570 5.959,7.491 5.972,6.559 5.996 C 5.694 6.019,5.650 6.024,5.459 6.122 C 5.245 6.233,5.105 6.404,5.041 6.635 C 4.986 6.831,4.986 11.169,5.041 11.365 C 5.102 11.586,5.245 11.770,5.442 11.880 L 5.620 11.980 7.308 11.992 L 8.997 12.003 9.011 14.852 C 9.026 17.957,9.020 17.872,9.268 18.600 C 9.839 20.273,11.206 21.484,13.000 21.904 C 13.265 21.966,13.586 21.976,15.748 21.989 C 17.375 21.999,18.249 21.990,18.352 21.962 C 18.583 21.900,18.768 21.759,18.880 21.558 L 18.980 21.380 18.980 19.000 L 18.980 16.620 18.891 16.453 C 18.842 16.362,18.746 16.247,18.678 16.199 C 18.416 16.012,18.290 16.000,16.594 16.000 L 15.000 16.000 15.000 14.000 L 15.000 12.000 16.610 12.000 C 17.565 12.000,18.279 11.983,18.365 11.959 C 18.586 11.898,18.770 11.755,18.880 11.558 L 18.980 11.380 18.980 9.000 L 18.980 6.620 18.891 6.453 C 18.842 6.362,18.746 6.247,18.678 6.199 C 18.416 6.012,18.290 6.000,16.596 6.000 L 15.004 6.000 14.992 4.310 C 14.980 2.651,14.978 2.617,14.891 2.453 C 14.785 2.256,14.622 2.131,14.371 2.055 C 14.112 1.977,9.864 1.979,9.614 2.057 M13.000 5.610 C 13.000 6.565,13.017 7.279,13.041 7.365 C 13.102 7.586,13.245 7.770,13.442 7.880 L 13.620 7.980 15.310 7.992 L 17.000 8.003 17.000 9.000 L 17.000 9.997 15.329 10.008 L 13.658 10.020 13.459 10.122 C 13.245 10.233,13.105 10.404,13.041 10.635 C 12.986 10.832,12.986 17.168,13.041 17.365 C 13.102 17.586,13.245 17.770,13.442 17.880 L 13.620 17.980 15.310 17.992 L 17.000 18.003 17.000 19.004 L 17.000 20.005 15.210 19.991 C 13.467 19.977,13.413 19.974,13.140 19.884 C 12.163 19.562,11.422 18.819,11.122 17.861 L 11.022 17.540 11.001 14.080 L 10.980 10.620 10.891 10.453 C 10.842 10.362,10.746 10.247,10.678 10.199 C 10.416 10.012,10.290 10.000,8.594 10.000 L 7.000 10.000 7.000 9.000 L 7.000 8.000 7.184 8.000 C 7.285 8.000,7.543 7.964,7.757 7.921 C 9.117 7.643,10.193 6.755,10.704 5.488 C 10.854 5.115,11.000 4.473,11.000 4.184 L 11.000 4.000 12.000 4.000 L 13.000 4.000 13.000 5.610 " stroke="none" fill="black" fill-rule="evenodd"></path></svg>