<svg xmlns="http://www.w3.org/2000/svg" width="24" height="24" viewBox="0 0 24 24" fill="none" stroke="currentColor" stroke-width="2" stroke-linecap="round" stroke-linejoin="round" class="icon icon-tabler icons-tabler-outline icon-tabler-cash-banknote-off"><path d="M2.626 2.045 C 2.257 2.239,1.951 2.673,1.951 3.000 C 1.951 3.316,2.074 3.483,2.968 4.385 L 3.806 5.230 3.553 5.372 C 2.871 5.755,2.350 6.402,2.114 7.160 L 2.020 7.460 2.020 12.000 L 2.020 16.540 2.114 16.840 C 2.418 17.816,3.149 18.554,4.140 18.886 L 4.420 18.980 11.000 18.991 L 17.579 19.002 19.020 20.436 C 19.984 21.397,20.519 21.900,20.637 21.960 C 20.989 22.137,21.354 22.048,21.701 21.701 C 22.048 21.354,22.137 20.989,21.960 20.637 C 21.889 20.496,20.064 18.596,18.748 17.293 C 18.589 17.136,6.862 5.409,6.760 5.305 C 5.632 4.159,3.503 2.111,3.372 2.045 C 3.152 1.934,2.835 1.934,2.626 2.045 M9.614 5.057 C 9.377 5.132,9.212 5.261,9.109 5.453 C 9.035 5.592,9.020 5.684,9.020 6.000 C 9.020 6.331,9.033 6.403,9.120 6.558 C 9.230 6.755,9.414 6.898,9.635 6.959 C 9.728 6.985,11.443 7.000,14.443 7.000 C 19.705 7.000,19.375 6.981,19.697 7.303 C 20.017 7.623,20.000 7.359,20.000 12.005 L 20.000 16.116 19.896 16.446 C 19.763 16.868,19.774 17.165,19.930 17.370 C 20.078 17.565,20.379 17.746,20.682 17.824 C 20.899 17.880,20.969 17.883,21.120 17.842 C 21.379 17.771,21.639 17.490,21.775 17.134 C 22.010 16.519,22.003 16.676,21.991 11.847 L 21.980 7.420 21.886 7.140 C 21.556 6.158,20.821 5.425,19.861 5.121 L 19.540 5.020 14.660 5.012 C 10.721 5.006,9.748 5.014,9.614 5.057 M7.058 8.478 L 8.535 9.955 8.391 10.268 C 7.785 11.586,7.876 13.035,8.636 14.190 C 9.753 15.887,11.855 16.472,13.732 15.609 L 14.045 15.465 14.812 16.233 L 15.580 17.001 10.140 16.990 L 4.700 16.980 4.516 16.872 C 4.415 16.813,4.284 16.700,4.225 16.623 C 3.990 16.315,4.000 16.515,4.000 12.022 C 4.000 7.356,3.983 7.624,4.304 7.303 C 4.531 7.076,4.742 7.006,5.220 7.003 L 5.580 7.000 7.058 8.478 M12.945 8.297 C 12.585 8.429,12.260 8.945,12.260 9.386 C 12.260 9.729,12.394 9.916,12.821 10.169 C 13.254 10.425,13.526 10.672,13.702 10.970 C 13.970 11.422,14.052 11.524,14.230 11.628 C 14.747 11.931,15.627 11.494,15.740 10.878 C 15.808 10.508,15.323 9.632,14.755 9.098 C 14.328 8.696,13.640 8.307,13.280 8.262 C 13.170 8.249,13.040 8.262,12.945 8.297 M5.614 11.055 C 5.220 11.184,5.039 11.437,5.009 11.900 C 4.978 12.381,5.119 12.699,5.442 12.880 C 5.597 12.967,5.669 12.980,6.000 12.980 C 6.312 12.980,6.408 12.964,6.540 12.894 C 6.866 12.718,7.000 12.459,7.000 12.000 C 7.000 11.357,6.713 11.048,6.083 11.016 C 5.893 11.006,5.718 11.021,5.614 11.055 M17.614 11.055 C 17.220 11.184,17.039 11.437,17.009 11.900 C 16.978 12.381,17.119 12.699,17.442 12.880 C 17.597 12.967,17.669 12.980,18.000 12.980 C 18.312 12.980,18.408 12.964,18.540 12.894 C 18.866 12.718,19.000 12.459,19.000 12.000 C 19.000 11.357,18.713 11.048,18.083 11.016 C 17.893 11.006,17.718 11.021,17.614 11.055 M12.410 13.970 C 12.350 13.987,12.156 14.002,11.980 14.003 C 10.724 14.007,9.815 12.902,10.026 11.626 L 10.052 11.472 11.286 12.706 C 12.479 13.899,12.516 13.941,12.410 13.970 " stroke="none" fill="black" fill-rule="evenodd"></path></svg>