<svg xmlns="http://www.w3.org/2000/svg" width="24" height="24" viewBox="0 0 24 24" fill="none" stroke="currentColor" stroke-width="2" stroke-linecap="round" stroke-linejoin="round" class="icon icon-tabler icons-tabler-outline icon-tabler-podium-off"><path d="M2.626 2.045 C 2.420 2.154,2.146 2.433,2.038 2.644 C 1.924 2.868,1.924 3.133,2.040 3.363 C 2.100 3.483,2.678 4.091,3.849 5.265 L 5.569 6.991 5.152 7.006 C 4.779 7.020,4.708 7.035,4.468 7.153 C 4.119 7.325,3.990 7.524,3.995 7.880 C 3.999 8.162,4.671 10.888,4.820 11.224 C 5.035 11.709,5.428 12.173,5.893 12.489 C 6.183 12.686,6.415 12.790,6.799 12.898 L 7.098 12.982 7.463 16.261 C 7.663 18.065,7.839 19.644,7.854 19.770 L 7.881 20.000 7.347 20.000 C 6.582 20.000,6.295 20.105,6.109 20.453 C 6.035 20.592,6.020 20.684,6.020 21.000 C 6.020 21.331,6.033 21.403,6.120 21.558 C 6.230 21.755,6.414 21.898,6.635 21.959 C 6.834 22.015,17.166 22.015,17.365 21.959 C 17.586 21.898,17.770 21.755,17.880 21.558 C 17.967 21.402,17.980 21.332,17.979 21.000 C 17.978 20.687,17.962 20.591,17.890 20.453 C 17.706 20.105,17.419 20.000,16.651 20.000 L 16.115 20.000 16.139 19.830 C 16.171 19.596,16.360 17.887,16.360 17.829 C 16.360 17.803,17.282 18.702,18.410 19.827 C 19.824 21.237,20.515 21.899,20.637 21.960 C 20.990 22.137,21.354 22.048,21.701 21.701 C 22.116 21.286,22.159 20.868,21.832 20.440 C 21.778 20.369,14.836 13.379,12.748 11.293 C 11.239 9.785,8.835 7.380,8.760 7.304 C 8.705 7.247,8.480 7.022,8.260 6.803 C 8.040 6.585,7.815 6.360,7.760 6.305 C 6.098 4.629,3.504 2.111,3.372 2.045 C 3.152 1.934,2.835 1.934,2.626 2.045 M9.358 2.061 C 8.727 2.159,8.119 2.424,7.567 2.839 C 6.931 3.319,6.709 3.714,6.845 4.124 C 6.953 4.446,7.364 4.839,7.684 4.924 C 7.947 4.994,8.175 4.922,8.468 4.675 C 9.064 4.174,9.326 4.057,9.982 4.003 C 10.533 3.957,10.727 3.856,10.904 3.520 C 11.018 3.305,11.009 2.679,10.890 2.453 C 10.674 2.045,10.216 1.927,9.358 2.061 M11.614 7.057 C 11.377 7.131,11.212 7.261,11.109 7.453 C 11.035 7.592,11.020 7.684,11.020 8.000 C 11.020 8.331,11.033 8.403,11.120 8.558 C 11.230 8.755,11.414 8.898,11.635 8.959 C 11.726 8.985,12.884 9.000,14.750 9.000 C 16.383 9.000,17.720 9.005,17.719 9.010 C 17.719 9.015,17.638 9.335,17.539 9.720 C 17.338 10.504,17.256 10.661,16.942 10.858 C 16.764 10.969,16.722 10.977,16.201 11.000 C 15.719 11.021,15.625 11.037,15.455 11.125 C 15.119 11.297,14.978 11.608,15.009 12.104 C 15.038 12.563,15.250 12.852,15.635 12.959 C 15.859 13.022,16.683 13.008,17.032 12.937 C 17.990 12.740,18.843 12.048,19.195 11.180 C 19.248 11.048,19.453 10.301,19.650 9.520 C 19.969 8.255,20.006 8.073,19.986 7.852 C 19.946 7.413,19.761 7.173,19.371 7.055 C 19.109 6.976,11.866 6.978,11.614 7.057 M8.580 10.002 L 9.580 11.003 8.417 10.992 L 7.253 10.980 7.062 10.860 C 6.744 10.661,6.662 10.505,6.461 9.720 C 6.362 9.335,6.281 9.015,6.281 9.010 C 6.280 9.005,6.573 9.000,6.930 9.000 L 7.581 9.000 8.580 10.002 M13.065 14.490 L 14.550 15.980 14.326 17.990 L 14.102 20.000 12.000 20.000 L 9.899 20.000 9.525 16.610 C 9.319 14.745,9.141 13.171,9.130 13.110 L 9.110 13.000 10.345 13.000 L 11.580 13.000 13.065 14.490 " stroke="none" fill="black" fill-rule="evenodd"></path></svg>