<svg xmlns="http://www.w3.org/2000/svg" width="24" height="24" viewBox="0 0 24 24" fill="none" stroke="currentColor" stroke-width="2" stroke-linecap="round" stroke-linejoin="round" class="icon icon-tabler icons-tabler-outline icon-tabler-h-1"><path d="M2.614 5.057 C 2.223 5.180,2.039 5.436,2.009 5.900 C 1.968 6.532,2.251 6.922,2.797 6.987 L 3.000 7.011 3.000 11.996 L 3.000 16.982 2.756 17.028 C 2.450 17.086,2.227 17.232,2.111 17.450 C 2.035 17.592,2.020 17.682,2.020 18.000 C 2.020 18.331,2.033 18.403,2.120 18.558 C 2.230 18.755,2.414 18.898,2.635 18.959 C 2.826 19.012,5.174 19.012,5.365 18.959 C 5.586 18.898,5.770 18.755,5.880 18.558 C 5.967 18.402,5.980 18.332,5.979 18.000 C 5.978 17.685,5.963 17.591,5.888 17.450 C 5.773 17.232,5.551 17.086,5.244 17.028 L 5.000 16.982 5.000 14.991 L 5.000 13.000 8.000 13.000 L 11.000 13.000 11.000 14.991 L 11.000 16.982 10.756 17.028 C 10.450 17.086,10.227 17.232,10.111 17.450 C 10.035 17.592,10.020 17.682,10.020 18.000 C 10.020 18.331,10.033 18.403,10.120 18.558 C 10.230 18.755,10.414 18.898,10.635 18.959 C 10.826 19.012,13.174 19.012,13.365 18.959 C 13.586 18.898,13.770 18.755,13.880 18.558 C 13.967 18.402,13.980 18.332,13.979 18.000 C 13.978 17.685,13.963 17.591,13.888 17.450 C 13.773 17.232,13.551 17.086,13.244 17.028 L 13.000 16.982 13.000 11.996 L 13.000 7.011 13.197 6.988 C 13.539 6.947,13.754 6.805,13.904 6.520 C 14.018 6.305,14.009 5.679,13.890 5.453 C 13.786 5.256,13.623 5.131,13.371 5.055 C 13.108 4.976,10.892 4.976,10.629 5.055 C 10.224 5.177,10.040 5.428,10.009 5.900 C 9.968 6.532,10.251 6.922,10.797 6.987 L 11.000 7.011 11.000 9.006 L 11.000 11.000 8.000 11.000 L 5.000 11.000 5.000 9.006 L 5.000 7.011 5.197 6.988 C 5.539 6.947,5.754 6.805,5.904 6.520 C 6.018 6.305,6.009 5.679,5.890 5.453 C 5.786 5.256,5.623 5.131,5.371 5.055 C 5.117 4.979,2.859 4.981,2.614 5.057 M18.660 9.066 C 18.479 9.122,18.352 9.235,17.294 10.294 C 16.056 11.532,15.951 11.666,15.951 12.000 C 15.951 12.477,16.523 13.049,17.000 13.049 C 17.240 13.049,17.451 12.939,17.757 12.656 L 18.000 12.431 18.000 15.326 C 18.000 17.141,18.015 18.274,18.041 18.365 C 18.148 18.750,18.437 18.962,18.896 18.991 C 19.381 19.022,19.699 18.882,19.880 18.558 L 19.980 18.380 19.980 14.000 L 19.980 9.620 19.891 9.453 C 19.687 9.071,19.174 8.910,18.660 9.066 " stroke="none" fill="black" fill-rule="evenodd"></path></svg>