<svg xmlns="http://www.w3.org/2000/svg" width="24" height="24" viewBox="0 0 24 24" fill="none" stroke="currentColor" stroke-width="2" stroke-linecap="round" stroke-linejoin="round" class="icon icon-tabler icons-tabler-outline icon-tabler-atom"><path d="M5.770 3.442 C 5.152 3.552,4.661 3.810,4.214 4.260 C 3.647 4.831,3.399 5.501,3.396 6.469 C 3.393 7.200,3.513 7.833,3.821 8.718 C 4.144 9.646,4.775 10.880,5.391 11.789 L 5.532 11.999 5.381 12.227 C 4.740 13.193,4.139 14.370,3.820 15.285 C 3.513 16.167,3.393 16.801,3.396 17.531 C 3.398 18.156,3.491 18.589,3.727 19.080 C 3.860 19.358,3.954 19.483,4.237 19.764 C 4.769 20.292,5.295 20.523,6.133 20.598 C 7.466 20.717,9.280 20.138,11.209 18.976 C 11.413 18.853,11.674 18.689,11.789 18.610 L 11.999 18.468 12.227 18.619 C 12.619 18.880,13.122 19.177,13.600 19.430 C 15.524 20.449,17.218 20.820,18.496 20.501 C 19.235 20.316,19.953 19.741,20.273 19.079 C 20.838 17.910,20.688 16.320,19.835 14.423 C 19.513 13.708,19.006 12.792,18.610 12.211 L 18.468 12.001 18.619 11.773 C 19.260 10.807,19.861 9.630,20.180 8.715 C 20.487 7.832,20.605 7.208,20.603 6.471 C 20.601 5.839,20.510 5.411,20.273 4.921 C 20.042 4.444,19.564 3.967,19.080 3.731 C 18.522 3.458,18.329 3.421,17.480 3.423 C 16.869 3.424,16.671 3.440,16.344 3.512 C 15.202 3.765,13.917 4.329,12.570 5.168 L 12.000 5.524 11.430 5.169 C 10.074 4.325,8.885 3.801,7.734 3.537 C 7.348 3.449,7.141 3.427,6.620 3.417 C 6.268 3.410,5.885 3.421,5.770 3.442 M7.067 5.441 C 7.368 5.490,7.930 5.650,8.280 5.787 C 8.656 5.935,9.608 6.403,9.975 6.621 L 10.289 6.807 10.135 6.934 C 9.248 7.658,7.669 9.237,6.936 10.132 L 6.813 10.283 6.698 10.111 C 6.506 9.822,5.902 8.599,5.764 8.219 C 5.529 7.572,5.437 7.169,5.412 6.679 C 5.375 5.932,5.524 5.595,5.953 5.463 C 6.174 5.395,6.719 5.384,7.067 5.441 M18.180 5.522 C 18.468 5.670,18.573 5.891,18.593 6.397 C 18.619 7.041,18.438 7.786,18.036 8.689 C 17.833 9.146,17.524 9.742,17.308 10.093 L 17.190 10.286 17.065 10.133 C 16.335 9.240,14.671 7.578,13.865 6.938 L 13.711 6.816 13.886 6.701 C 14.152 6.524,15.299 5.948,15.667 5.807 C 16.050 5.660,16.617 5.491,16.900 5.441 C 17.010 5.421,17.298 5.409,17.541 5.413 C 17.926 5.419,18.007 5.433,18.180 5.522 M12.568 8.464 C 13.652 9.369,14.860 10.592,15.753 11.691 L 16.006 12.001 15.735 12.331 C 14.747 13.530,13.418 14.859,12.310 15.755 L 11.999 16.006 11.585 15.665 C 10.444 14.726,9.185 13.461,8.247 12.310 L 7.995 12.000 8.247 11.690 C 8.863 10.932,9.564 10.182,10.400 9.385 C 10.939 8.872,11.962 7.997,12.008 8.011 C 12.023 8.016,12.275 8.220,12.568 8.464 M11.614 11.057 C 11.221 11.180,11.039 11.435,11.009 11.906 C 10.962 12.621,11.306 13.000,12.000 13.000 C 12.698 13.000,13.043 12.616,12.989 11.900 C 12.963 11.563,12.859 11.327,12.678 11.199 C 12.414 11.010,11.957 10.950,11.614 11.057 M7.546 14.560 C 8.273 15.367,9.448 16.505,10.135 17.067 L 10.290 17.193 10.095 17.318 C 9.988 17.386,9.576 17.603,9.180 17.799 C 7.911 18.429,6.964 18.684,6.225 18.595 C 5.652 18.526,5.436 18.268,5.407 17.618 C 5.383 17.065,5.511 16.424,5.787 15.720 C 5.935 15.344,6.403 14.392,6.621 14.025 L 6.807 13.711 6.934 13.865 C 7.003 13.950,7.279 14.262,7.546 14.560 M17.596 14.420 C 18.057 15.282,18.304 15.886,18.506 16.640 C 18.554 16.823,18.576 17.061,18.578 17.440 C 18.580 17.929,18.571 17.998,18.486 18.171 C 18.207 18.737,17.233 18.761,15.780 18.236 C 15.416 18.105,14.208 17.511,13.885 17.305 L 13.710 17.193 13.865 17.066 C 14.753 16.341,16.419 14.675,17.060 13.870 L 17.180 13.720 17.249 13.810 C 17.287 13.860,17.443 14.134,17.596 14.420 " stroke="none" fill="black" fill-rule="evenodd"></path></svg>