<svg xmlns="http://www.w3.org/2000/svg" width="24" height="24" viewBox="0 0 24 24" fill="none" stroke="currentColor" stroke-width="2" stroke-linecap="round" stroke-linejoin="round" class="icon icon-tabler icons-tabler-outline icon-tabler-beer"><path d="M6.477 2.073 C 5.806 2.249,5.238 2.823,5.060 3.508 C 5.010 3.698,5.000 4.134,5.000 6.098 C 5.000 7.410,5.018 8.656,5.041 8.900 C 5.137 9.919,5.415 10.862,6.055 12.344 C 6.498 13.369,6.681 13.912,6.817 14.600 C 6.974 15.397,7.000 15.889,7.000 18.142 C 7.000 20.443,7.004 20.494,7.225 20.930 C 7.361 21.199,7.801 21.639,8.070 21.775 C 8.522 22.004,8.453 22.000,12.000 22.000 C 15.547 22.000,15.478 22.004,15.930 21.775 C 16.196 21.640,16.638 21.200,16.771 20.937 C 16.995 20.497,17.000 20.430,17.000 18.134 C 17.000 15.859,17.022 15.432,17.185 14.601 C 17.326 13.883,17.489 13.393,17.927 12.384 C 18.496 11.068,18.717 10.403,18.888 9.480 C 18.969 9.047,18.975 8.867,18.990 6.418 C 19.007 3.586,19.003 3.520,18.782 3.083 C 18.646 2.816,18.297 2.449,18.017 2.281 C 17.533 1.989,17.867 2.005,12.000 2.005 C 7.157 2.005,6.719 2.010,6.477 2.073 M17.000 5.500 L 17.000 7.000 12.000 7.000 L 7.000 7.000 7.000 5.500 L 7.000 4.000 12.000 4.000 L 17.000 4.000 17.000 5.500 M16.920 9.061 C 16.920 9.094,16.882 9.295,16.836 9.507 C 16.736 9.973,16.548 10.522,16.274 11.151 C 15.513 12.903,15.309 13.539,15.111 14.774 C 15.034 15.255,15.025 15.503,15.010 17.650 L 14.994 20.000 12.000 20.000 L 9.006 20.000 8.990 17.650 C 8.975 15.503,8.966 15.255,8.889 14.780 C 8.692 13.557,8.481 12.889,7.787 11.293 C 7.642 10.960,7.461 10.508,7.385 10.290 C 7.259 9.926,7.080 9.207,7.080 9.061 C 7.080 9.007,7.628 9.000,12.000 9.000 C 16.372 9.000,16.920 9.007,16.920 9.061 " stroke="none" fill="black" fill-rule="evenodd"></path></svg>