<svg xmlns="http://www.w3.org/2000/svg" width="24" height="24" viewBox="0 0 24 24" fill="none" stroke="currentColor" stroke-width="2" stroke-linecap="round" stroke-linejoin="round" class="icon icon-tabler icons-tabler-outline icon-tabler-trending-up"><path d="M17.219 5.999 L 13.658 6.020 13.459 6.122 C 13.119 6.297,12.978 6.606,13.009 7.104 C 13.038 7.563,13.250 7.852,13.635 7.959 C 13.725 7.984,14.696 8.000,16.180 8.000 L 18.580 8.000 15.790 10.789 L 13.001 13.579 11.271 11.854 C 10.148 10.734,9.481 10.099,9.372 10.044 C 9.150 9.933,8.851 9.933,8.628 10.044 C 8.386 10.164,2.160 16.394,2.039 16.637 C 1.863 16.990,1.953 17.355,2.299 17.701 C 2.646 18.048,3.010 18.137,3.363 17.961 C 3.487 17.898,4.356 17.058,6.270 15.147 L 9.000 12.422 10.730 14.146 C 11.908 15.321,12.517 15.900,12.637 15.960 C 12.868 16.076,13.131 16.076,13.363 15.961 C 13.488 15.898,14.488 14.926,16.770 12.647 L 20.000 9.421 20.000 11.821 C 20.000 13.305,20.016 14.275,20.041 14.365 C 20.148 14.750,20.437 14.962,20.896 14.991 C 21.381 15.022,21.699 14.882,21.880 14.558 L 21.980 14.380 22.007 10.720 C 22.021 8.707,22.035 7.001,22.037 6.929 C 22.041 6.741,21.835 6.310,21.690 6.207 C 21.466 6.048,21.205 5.959,20.987 5.969 C 20.873 5.975,19.178 5.988,17.219 5.999 " stroke="none" fill="black" fill-rule="evenodd"></path></svg>