<svg xmlns="http://www.w3.org/2000/svg" width="24" height="24" viewBox="0 0 24 24" fill="none" stroke="currentColor" stroke-width="2" stroke-linecap="round" stroke-linejoin="round" class="icon icon-tabler icons-tabler-outline icon-tabler-circuit-bulb"><path d="M11.380 6.043 C 9.717 6.207,8.205 7.071,7.181 8.443 C 6.656 9.145,6.332 9.882,6.103 10.890 L 6.078 11.000 3.946 11.000 C 1.671 11.000,1.593 11.006,1.322 11.199 C 1.100 11.357,1.020 11.568,1.020 12.000 C 1.020 12.331,1.033 12.403,1.120 12.558 C 1.230 12.755,1.414 12.898,1.635 12.959 C 1.724 12.984,2.613 13.000,3.929 13.000 L 6.078 13.000 6.103 13.110 C 6.332 14.118,6.656 14.854,7.180 15.557 C 8.082 16.765,9.335 17.562,10.840 17.885 C 11.446 18.015,12.554 18.015,13.160 17.885 C 14.397 17.620,15.412 17.068,16.269 16.195 C 17.128 15.321,17.597 14.431,17.897 13.110 L 17.922 13.000 20.071 13.000 C 21.387 13.000,22.276 12.984,22.365 12.959 C 22.586 12.898,22.770 12.755,22.880 12.558 C 22.967 12.402,22.980 12.332,22.979 12.000 C 22.978 11.567,22.898 11.355,22.678 11.199 C 22.407 11.006,22.329 11.000,20.054 11.000 L 17.922 11.000 17.897 10.890 C 17.597 9.569,17.128 8.679,16.269 7.805 C 14.978 6.490,13.230 5.860,11.380 6.043 M12.602 8.058 C 12.813 8.090,13.074 8.145,13.182 8.181 C 13.430 8.262,14.000 8.524,14.000 8.557 C 14.000 8.570,13.550 9.030,13.000 9.580 L 12.000 10.579 11.000 9.580 C 10.450 9.030,10.000 8.570,10.000 8.557 C 10.000 8.524,10.570 8.262,10.820 8.180 C 11.325 8.013,12.000 7.967,12.602 8.058 M9.580 11.000 L 10.579 12.000 9.580 13.000 C 9.030 13.550,8.570 14.000,8.557 14.000 C 8.524 14.000,8.262 13.430,8.181 13.182 C 8.099 12.933,8.000 12.289,8.000 12.000 C 8.000 11.711,8.099 11.067,8.181 10.818 C 8.262 10.570,8.524 10.000,8.557 10.000 C 8.570 10.000,9.030 10.450,9.580 11.000 M15.611 10.310 C 15.690 10.480,15.783 10.709,15.819 10.818 C 15.901 11.067,16.000 11.711,16.000 12.000 C 16.000 12.289,15.901 12.933,15.819 13.182 C 15.738 13.430,15.476 14.000,15.443 14.000 C 15.430 14.000,14.970 13.550,14.420 13.000 L 13.421 12.000 14.420 11.000 C 14.970 10.450,15.430 10.000,15.443 10.000 C 15.457 10.000,15.532 10.139,15.611 10.310 M13.019 14.439 C 14.162 15.583,14.110 15.452,13.515 15.695 C 13.067 15.879,12.465 16.000,12.000 16.000 C 11.535 16.000,10.933 15.879,10.485 15.695 C 9.890 15.452,9.838 15.583,10.981 14.439 C 11.530 13.890,11.989 13.440,12.000 13.440 C 12.011 13.440,12.470 13.890,13.019 14.439 " stroke="none" fill="black" fill-rule="evenodd"></path></svg>