<svg xmlns="http://www.w3.org/2000/svg" width="24" height="24" viewBox="0 0 24 24" fill="none" stroke="currentColor" stroke-width="2" stroke-linecap="round" stroke-linejoin="round" class="icon icon-tabler icons-tabler-outline icon-tabler-world-heart"><path d="M11.165 2.006 C 11.121 2.022,10.936 2.055,10.753 2.080 C 9.161 2.293,7.769 2.813,6.467 3.682 C 4.075 5.280,2.536 7.715,2.093 10.600 C 1.994 11.249,1.993 12.760,2.093 13.400 C 2.369 15.184,3.065 16.802,4.160 18.207 C 4.490 18.630,5.324 19.471,5.740 19.801 C 6.953 20.761,8.493 21.491,9.912 21.779 C 11.212 22.042,11.598 22.070,11.900 21.922 C 12.188 21.780,12.452 21.501,12.517 21.272 C 12.593 20.999,12.526 20.777,12.196 20.215 C 11.674 19.325,11.201 18.333,10.896 17.492 C 10.759 17.113,10.440 16.091,10.440 16.030 C 10.440 16.014,10.500 16.000,10.573 16.000 C 10.804 16.000,11.095 15.890,11.229 15.751 C 11.418 15.556,11.486 15.355,11.486 14.997 C 11.486 14.305,11.149 14.000,10.384 14.000 L 10.050 14.000 10.027 13.810 C 9.938 13.082,9.907 11.960,9.954 11.190 C 9.982 10.745,10.014 10.295,10.027 10.190 L 10.050 10.000 12.005 10.000 C 13.542 10.000,13.960 10.011,13.960 10.050 C 13.963 10.303,14.087 11.435,14.127 11.568 C 14.194 11.792,14.428 12.023,14.648 12.082 C 14.856 12.138,15.249 12.138,15.437 12.082 C 15.676 12.011,15.863 11.858,15.959 11.653 C 16.047 11.469,16.050 11.430,16.028 10.799 C 16.015 10.435,15.992 10.107,15.978 10.069 C 15.953 10.004,16.071 10.000,17.852 10.000 L 19.753 10.000 19.798 10.207 C 19.895 10.663,19.959 11.170,19.992 11.760 C 20.037 12.547,20.104 12.706,20.480 12.904 C 20.588 12.961,20.708 12.978,21.000 12.978 C 21.514 12.978,21.715 12.876,21.905 12.520 C 21.970 12.399,21.980 12.292,21.977 11.720 C 21.966 9.644,21.174 7.459,19.821 5.772 C 18.290 3.864,16.060 2.541,13.740 2.164 C 13.454 2.118,13.121 2.060,13.000 2.035 C 12.750 1.985,11.285 1.962,11.165 2.006 M12.313 4.712 C 12.657 5.382,12.954 6.065,13.169 6.680 C 13.320 7.114,13.560 7.904,13.560 7.970 C 13.560 7.986,12.858 8.000,12.000 8.000 C 11.142 8.000,10.440 7.987,10.440 7.970 C 10.440 7.909,10.759 6.887,10.896 6.508 C 11.170 5.752,11.918 4.160,12.000 4.160 C 12.016 4.160,12.157 4.408,12.313 4.712 M9.357 4.964 C 9.060 5.666,8.687 6.760,8.507 7.460 L 8.373 7.980 6.722 7.990 L 5.071 8.001 5.166 7.841 C 5.692 6.950,6.649 5.957,7.588 5.326 C 7.973 5.068,8.656 4.719,9.140 4.534 C 9.382 4.442,9.584 4.371,9.590 4.377 C 9.596 4.383,9.491 4.647,9.357 4.964 M15.500 4.819 C 16.412 5.263,17.075 5.750,17.792 6.501 C 18.197 6.924,18.579 7.417,18.824 7.830 L 18.925 8.000 17.284 8.000 L 15.643 8.000 15.600 7.830 C 15.340 6.799,14.995 5.761,14.632 4.922 C 14.523 4.668,14.423 4.437,14.412 4.409 C 14.380 4.331,14.906 4.529,15.500 4.819 M8.021 10.090 C 7.981 10.271,7.920 11.422,7.920 12.000 C 7.920 12.578,7.981 13.729,8.021 13.910 L 8.042 14.000 6.144 14.000 L 4.247 14.000 4.202 13.793 C 4.056 13.111,4.025 12.795,4.026 12.000 C 4.026 11.208,4.059 10.873,4.202 10.207 L 4.247 10.000 6.144 10.000 L 8.042 10.000 8.021 10.090 M15.699 14.037 C 14.670 14.202,13.737 14.905,13.305 15.840 C 13.072 16.345,13.021 16.592,13.024 17.200 C 13.026 17.692,13.037 17.773,13.149 18.111 C 13.314 18.608,13.546 18.985,13.936 19.393 C 14.114 19.578,14.984 20.440,15.868 21.306 C 17.563 22.967,17.651 23.038,18.000 23.038 C 18.345 23.038,18.445 22.958,19.971 21.466 C 22.507 18.986,22.575 18.908,22.818 18.213 C 23.020 17.636,23.050 16.947,22.900 16.380 C 22.746 15.802,22.353 15.189,21.871 14.775 C 20.903 13.943,19.453 13.773,18.325 14.360 L 18.013 14.522 17.697 14.363 C 17.245 14.135,16.862 14.039,16.340 14.020 C 16.098 14.012,15.810 14.019,15.699 14.037 M8.507 16.540 C 8.687 17.240,9.060 18.334,9.357 19.036 C 9.491 19.353,9.596 19.618,9.590 19.624 C 9.566 19.648,8.754 19.319,8.400 19.141 C 7.091 18.485,5.922 17.403,5.164 16.150 L 5.073 15.999 6.723 16.010 L 8.373 16.020 8.507 16.540 M16.753 16.136 C 16.861 16.191,17.080 16.356,17.239 16.502 C 17.843 17.056,18.170 17.055,18.773 16.497 C 19.226 16.077,19.559 15.955,20.020 16.041 C 20.841 16.193,21.259 17.127,20.806 17.797 C 20.748 17.883,20.101 18.542,19.368 19.262 C 18.242 20.369,18.025 20.565,17.961 20.535 C 17.919 20.516,17.278 19.898,16.537 19.163 C 15.024 17.661,15.020 17.657,15.023 17.160 C 15.025 16.915,15.045 16.822,15.133 16.651 C 15.292 16.341,15.584 16.126,15.980 16.025 C 16.156 15.980,16.559 16.038,16.753 16.136 " stroke="none" fill="black" fill-rule="evenodd"></path></svg>