<svg xmlns="http://www.w3.org/2000/svg" width="24" height="24" viewBox="0 0 24 24" fill="none" stroke="currentColor" stroke-width="2" stroke-linecap="round" stroke-linejoin="round" class="icon icon-tabler icons-tabler-outline icon-tabler-keyboard-off"><path d="M2.626 2.045 C 2.257 2.239,1.951 2.673,1.951 3.000 C 1.951 3.308,2.078 3.487,2.864 4.281 L 3.597 5.021 3.276 5.094 C 2.289 5.315,1.435 6.132,1.114 7.160 L 1.020 7.460 1.020 12.000 L 1.020 16.540 1.114 16.840 C 1.418 17.816,2.149 18.554,3.140 18.886 L 3.420 18.980 10.500 18.991 L 17.579 19.002 19.020 20.436 C 19.984 21.397,20.519 21.900,20.637 21.960 C 20.989 22.137,21.354 22.048,21.701 21.701 C 22.048 21.354,22.137 20.989,21.960 20.637 C 21.888 20.494,20.211 18.748,18.748 17.293 C 18.606 17.152,14.870 13.416,14.760 13.306 C 14.705 13.250,13.805 12.350,12.760 11.306 C 11.715 10.261,10.815 9.361,10.760 9.306 C 10.705 9.250,9.805 8.350,8.760 7.306 C 7.715 6.261,6.815 5.361,6.760 5.305 C 5.625 4.153,3.503 2.111,3.372 2.045 C 3.152 1.934,2.835 1.934,2.626 2.045 M9.614 5.057 C 9.377 5.132,9.212 5.261,9.109 5.453 C 9.035 5.592,9.020 5.684,9.020 6.000 C 9.020 6.331,9.033 6.403,9.120 6.558 C 9.230 6.755,9.414 6.898,9.635 6.959 C 9.729 6.985,11.608 7.000,14.943 7.000 C 20.764 7.000,20.373 6.979,20.697 7.303 C 21.017 7.623,21.000 7.359,21.000 12.000 C 21.000 16.606,21.016 16.347,20.707 16.700 C 20.345 17.113,20.277 17.417,20.462 17.789 C 20.640 18.146,21.082 18.477,21.384 18.479 C 21.911 18.483,22.571 17.777,22.875 16.887 L 22.980 16.580 22.980 12.020 L 22.980 7.460 22.886 7.160 C 22.581 6.182,21.832 5.428,20.861 5.121 L 20.540 5.020 15.160 5.012 C 10.811 5.006,9.748 5.014,9.614 5.057 M7.350 8.770 C 8.323 9.743,9.120 10.560,9.120 10.585 C 9.120 10.610,9.194 10.691,9.285 10.765 C 9.375 10.839,9.929 11.372,10.515 11.950 L 11.580 13.000 10.696 13.000 C 9.757 13.000,9.561 13.028,9.322 13.199 C 9.100 13.357,9.020 13.568,9.020 14.000 C 9.020 14.331,9.033 14.403,9.120 14.558 C 9.230 14.755,9.414 14.898,9.635 14.959 C 9.723 14.984,10.531 15.000,11.680 15.000 L 13.581 15.000 14.580 16.000 L 15.580 17.001 9.640 16.990 L 3.700 16.980 3.516 16.872 C 3.415 16.813,3.284 16.700,3.225 16.623 C 2.990 16.315,3.000 16.515,3.000 12.022 C 3.000 7.356,2.983 7.624,3.304 7.303 C 3.573 7.033,3.701 7.006,4.720 7.003 L 5.580 7.000 7.350 8.770 M5.614 9.057 C 5.221 9.180,5.039 9.435,5.009 9.906 C 4.962 10.621,5.306 11.000,6.000 11.000 C 6.698 11.000,7.043 10.616,6.989 9.900 C 6.963 9.563,6.859 9.327,6.678 9.199 C 6.414 9.010,5.957 8.950,5.614 9.057 M13.614 9.057 C 13.221 9.180,13.039 9.435,13.009 9.906 C 12.962 10.621,13.306 11.000,14.000 11.000 C 14.698 11.000,15.043 10.616,14.989 9.900 C 14.963 9.563,14.859 9.327,14.678 9.199 C 14.414 9.010,13.957 8.950,13.614 9.057 M17.614 9.057 C 17.221 9.180,17.039 9.435,17.009 9.906 C 16.962 10.621,17.306 11.000,18.000 11.000 C 18.698 11.000,19.043 10.616,18.989 9.900 C 18.963 9.563,18.859 9.327,18.678 9.199 C 18.414 9.010,17.957 8.950,17.614 9.057 M5.614 13.057 C 5.221 13.180,5.039 13.435,5.009 13.906 C 4.962 14.621,5.306 15.000,6.000 15.000 C 6.698 15.000,7.043 14.616,6.989 13.900 C 6.963 13.563,6.859 13.327,6.678 13.199 C 6.414 13.010,5.957 12.950,5.614 13.057 M17.614 13.057 C 17.221 13.180,17.039 13.435,17.009 13.906 C 16.962 14.621,17.306 15.000,18.000 15.000 C 18.698 15.000,19.043 14.616,18.989 13.900 C 18.963 13.563,18.859 13.327,18.678 13.199 C 18.414 13.010,17.957 12.950,17.614 13.057 " stroke="none" fill="black" fill-rule="evenodd"></path></svg>