<svg xmlns="http://www.w3.org/2000/svg" width="24" height="24" viewBox="0 0 24 24" fill="none" stroke="currentColor" stroke-width="2" stroke-linecap="round" stroke-linejoin="round" class="icon icon-tabler icons-tabler-outline icon-tabler-wash-hand"><path d="M2.619 5.070 C 2.191 5.223,2.003 5.467,2.001 5.872 C 2.000 5.989,2.108 6.730,2.240 7.520 C 2.372 8.310,2.480 9.019,2.480 9.095 C 2.480 9.172,2.497 9.280,2.518 9.336 C 2.539 9.391,2.827 11.066,3.158 13.058 C 3.489 15.051,3.797 16.793,3.843 16.930 C 4.117 17.746,4.782 18.467,5.549 18.779 C 6.111 19.007,5.905 19.000,12.000 19.000 C 18.116 19.000,17.897 19.008,18.460 18.772 C 19.245 18.444,19.890 17.739,20.157 16.920 C 20.204 16.777,20.494 15.139,20.801 13.280 C 21.109 11.421,21.396 9.702,21.440 9.460 C 21.646 8.335,22.000 6.061,21.999 5.872 C 21.998 5.569,21.885 5.347,21.660 5.204 C 21.285 4.966,20.705 4.934,20.403 5.133 C 20.133 5.312,20.066 5.517,19.855 6.800 C 19.752 7.427,19.655 7.954,19.640 7.972 C 19.584 8.036,18.874 7.844,18.604 7.692 C 17.874 7.280,17.340 7.105,16.631 7.045 C 16.415 7.027,16.233 7.005,16.226 6.996 C 16.220 6.987,16.104 6.827,15.970 6.640 C 15.540 6.041,15.135 5.703,14.450 5.374 C 13.732 5.029,13.707 5.026,11.646 5.009 C 10.534 5.000,9.732 5.011,9.571 5.036 C 8.971 5.129,8.345 5.582,8.101 6.100 C 7.983 6.350,7.884 6.705,7.881 6.884 L 7.880 6.988 7.390 7.011 C 6.663 7.045,6.133 7.210,5.620 7.560 C 5.532 7.620,5.382 7.709,5.287 7.757 C 5.085 7.860,4.400 8.018,4.360 7.972 C 4.345 7.954,4.248 7.427,4.145 6.800 C 3.934 5.513,3.868 5.312,3.594 5.131 C 3.383 4.991,2.920 4.962,2.619 5.070 M13.500 7.132 C 14.045 7.387,14.050 7.393,15.063 8.805 C 16.085 10.232,16.094 10.249,15.841 10.379 C 15.777 10.413,15.652 10.440,15.563 10.440 C 15.385 10.440,15.304 10.383,14.820 9.914 C 14.491 9.596,14.332 9.520,13.991 9.520 C 13.657 9.521,13.468 9.578,13.293 9.732 C 13.023 9.969,13.022 9.972,13.000 11.660 C 12.980 13.173,12.980 13.181,12.882 13.379 C 12.604 13.945,11.969 14.233,11.379 14.061 C 10.609 13.838,9.991 13.298,9.639 12.540 C 9.298 11.805,9.297 11.675,9.617 9.130 C 9.762 7.980,9.880 7.030,9.880 7.018 C 9.880 7.006,10.640 7.002,11.570 7.008 L 13.260 7.020 13.500 7.132 M7.600 9.061 C 7.600 9.094,7.546 9.556,7.480 10.087 C 7.414 10.617,7.360 11.207,7.360 11.396 C 7.361 13.167,8.456 14.906,10.057 15.680 C 10.774 16.027,11.294 16.147,11.900 16.106 C 13.133 16.023,14.190 15.300,14.696 14.194 C 14.893 13.763,14.966 13.439,14.989 12.900 L 15.009 12.420 15.474 12.434 C 16.019 12.450,16.300 12.392,16.737 12.172 C 17.144 11.967,17.596 11.507,17.776 11.114 C 17.985 10.657,18.056 10.150,17.965 9.758 L 17.932 9.616 18.316 9.744 C 18.527 9.814,18.840 9.894,19.010 9.921 C 19.180 9.949,19.320 9.978,19.320 9.986 C 19.320 10.137,18.261 16.286,18.215 16.400 C 18.135 16.601,17.819 16.890,17.609 16.952 C 17.381 17.021,6.619 17.021,6.391 16.952 C 6.181 16.890,5.865 16.601,5.785 16.400 C 5.728 16.258,4.661 10.004,4.689 9.979 C 4.695 9.974,4.826 9.949,4.980 9.923 C 5.595 9.819,6.078 9.633,6.631 9.286 C 6.975 9.070,7.143 9.011,7.430 9.004 C 7.557 9.001,7.600 9.015,7.600 9.061 " stroke="none" fill="black" fill-rule="evenodd"></path></svg>