<svg xmlns="http://www.w3.org/2000/svg" width="24" height="24" viewBox="0 0 24 24" fill="none" stroke="currentColor" stroke-width="2" stroke-linecap="round" stroke-linejoin="round" class="icon icon-tabler icons-tabler-outline icon-tabler-pencil-discount"><path d="M15.814 3.737 C 15.278 3.839,14.795 4.041,14.300 4.371 C 13.990 4.577,3.279 15.266,3.127 15.520 L 3.020 15.700 3.020 18.040 L 3.020 20.380 3.120 20.558 C 3.232 20.758,3.417 20.900,3.645 20.961 C 3.744 20.988,4.595 20.999,6.049 20.991 L 8.300 20.980 8.480 20.873 C 8.737 20.720,19.464 9.967,19.656 9.670 C 19.882 9.320,20.068 8.922,20.187 8.532 C 20.284 8.213,20.294 8.118,20.297 7.520 C 20.300 6.804,20.246 6.517,20.009 5.980 C 19.543 4.923,18.559 4.080,17.460 3.796 C 17.046 3.689,16.219 3.659,15.814 3.737 M16.982 5.742 C 17.940 5.992,18.514 6.999,18.258 7.982 C 18.176 8.297,18.037 8.526,17.745 8.832 L 17.504 9.084 16.212 7.792 L 14.921 6.501 15.141 6.279 C 15.660 5.754,16.306 5.566,16.982 5.742 M11.830 14.750 L 7.580 19.000 6.290 19.000 L 5.000 19.000 5.000 17.710 L 5.000 16.420 9.250 12.170 L 13.500 7.920 14.790 9.210 L 16.080 10.500 11.830 14.750 M20.620 15.046 C 20.384 15.167,15.154 20.407,15.039 20.637 C 14.863 20.990,14.953 21.355,15.299 21.701 C 15.645 22.047,16.010 22.137,16.363 21.961 C 16.613 21.836,21.836 16.613,21.961 16.363 C 22.137 16.010,22.047 15.645,21.701 15.299 C 21.361 14.959,20.968 14.867,20.620 15.046 M15.614 15.057 C 15.221 15.180,15.039 15.435,15.009 15.906 C 14.962 16.621,15.306 17.000,16.000 17.000 C 16.698 17.000,17.043 16.616,16.989 15.900 C 16.963 15.563,16.859 15.327,16.678 15.199 C 16.414 15.010,15.957 14.950,15.614 15.057 M20.614 20.057 C 20.221 20.180,20.039 20.435,20.009 20.906 C 19.962 21.621,20.306 22.000,21.000 22.000 C 21.698 22.000,22.043 21.616,21.989 20.900 C 21.963 20.563,21.859 20.327,21.678 20.199 C 21.414 20.010,20.957 19.950,20.614 20.057 " stroke="none" fill="black" fill-rule="evenodd"></path></svg>