<svg xmlns="http://www.w3.org/2000/svg" width="24" height="24" viewBox="0 0 24 24" fill="none" stroke="currentColor" stroke-width="2" stroke-linecap="round" stroke-linejoin="round" class="icon icon-tabler icons-tabler-outline icon-tabler-body-scan"><path d="M5.499 3.043 C 4.392 3.229,3.479 4.033,3.116 5.140 C 3.029 5.405,3.024 5.492,3.009 6.804 C 2.999 7.715,3.008 8.243,3.037 8.348 C 3.144 8.748,3.430 8.961,3.896 8.991 C 4.381 9.022,4.699 8.882,4.880 8.558 C 4.980 8.381,4.980 8.376,5.001 7.060 C 5.024 5.577,5.025 5.571,5.321 5.283 C 5.593 5.020,5.714 5.000,7.057 5.000 C 7.713 5.000,8.283 4.982,8.365 4.959 C 8.586 4.898,8.770 4.755,8.880 4.558 C 8.967 4.402,8.980 4.332,8.979 4.000 C 8.978 3.567,8.898 3.355,8.678 3.199 C 8.423 3.017,8.269 3.000,6.944 3.005 C 6.260 3.007,5.609 3.025,5.499 3.043 M15.614 3.056 C 15.376 3.133,15.211 3.262,15.109 3.453 C 15.035 3.592,15.020 3.684,15.020 4.000 C 15.020 4.331,15.033 4.403,15.120 4.558 C 15.230 4.755,15.414 4.898,15.635 4.959 C 15.717 4.982,16.287 5.000,16.943 5.000 C 18.308 5.000,18.412 5.018,18.697 5.303 C 18.982 5.588,19.000 5.692,19.000 7.057 C 19.000 7.713,19.018 8.283,19.041 8.365 C 19.148 8.750,19.437 8.962,19.896 8.991 C 20.381 9.022,20.699 8.882,20.880 8.558 L 20.980 8.380 20.980 6.920 C 20.980 5.501,20.977 5.452,20.886 5.160 C 20.581 4.181,19.825 3.421,18.861 3.124 C 18.550 3.028,18.498 3.024,17.160 3.013 C 16.090 3.005,15.743 3.014,15.614 3.056 M11.477 6.073 C 11.130 6.164,10.802 6.366,10.535 6.653 C 10.178 7.038,10.000 7.485,10.000 8.000 C 10.000 8.546,10.193 9.001,10.596 9.404 C 10.876 9.684,11.146 9.846,11.491 9.938 C 11.688 9.991,11.645 9.995,10.769 9.997 C 9.561 10.001,9.441 9.962,8.767 9.351 C 8.434 9.050,8.259 8.960,8.000 8.960 C 7.749 8.960,7.534 9.064,7.299 9.299 C 6.952 9.646,6.863 10.011,7.040 10.363 C 7.232 10.742,8.017 11.384,8.651 11.680 C 9.192 11.932,9.371 11.967,10.230 11.989 L 11.000 12.008 11.000 12.577 L 11.000 13.145 10.670 13.313 C 9.931 13.689,9.374 14.345,9.118 15.140 C 9.039 15.386,9.026 15.528,9.010 16.300 C 8.998 16.873,9.007 17.238,9.036 17.344 C 9.144 17.748,9.428 17.961,9.896 17.991 C 10.381 18.022,10.699 17.882,10.879 17.558 C 10.973 17.390,10.980 17.336,11.001 16.560 C 11.027 15.634,11.048 15.548,11.318 15.287 C 11.714 14.903,12.305 14.911,12.700 15.306 C 12.957 15.563,13.000 15.744,13.000 16.557 C 13.000 16.922,13.019 17.285,13.041 17.365 C 13.148 17.750,13.437 17.962,13.896 17.991 C 14.381 18.022,14.699 17.882,14.880 17.558 C 14.979 17.382,14.980 17.370,14.980 16.420 C 14.980 15.525,14.974 15.440,14.886 15.160 C 14.635 14.354,14.078 13.693,13.330 13.313 L 13.000 13.145 13.000 12.577 L 13.000 12.008 13.770 11.989 C 14.629 11.967,14.808 11.932,15.349 11.680 C 15.983 11.384,16.768 10.742,16.960 10.363 C 17.137 10.011,17.048 9.646,16.701 9.299 C 16.466 9.064,16.251 8.960,16.000 8.960 C 15.741 8.960,15.566 9.050,15.233 9.351 C 14.559 9.962,14.439 10.001,13.231 9.997 C 12.355 9.995,12.312 9.991,12.509 9.938 C 12.854 9.846,13.124 9.684,13.404 9.404 C 13.920 8.889,14.106 8.236,13.940 7.529 C 13.858 7.182,13.720 6.927,13.465 6.653 C 13.074 6.232,12.560 6.005,12.000 6.005 C 11.857 6.005,11.622 6.036,11.477 6.073 M3.614 15.057 C 3.377 15.131,3.212 15.261,3.109 15.453 C 3.022 15.617,3.020 15.647,3.020 17.080 C 3.020 18.499,3.023 18.548,3.114 18.840 C 3.419 19.817,4.158 20.562,5.140 20.884 C 5.405 20.971,5.492 20.976,6.804 20.991 C 7.715 21.001,8.243 20.992,8.348 20.963 C 8.583 20.900,8.767 20.760,8.880 20.558 C 8.967 20.402,8.980 20.332,8.979 20.000 C 8.977 19.469,8.850 19.243,8.455 19.072 C 8.375 19.037,7.942 19.016,7.020 19.001 L 5.700 18.980 5.516 18.872 C 5.327 18.761,5.157 18.570,5.071 18.373 C 5.037 18.295,5.015 17.854,5.001 16.940 C 4.981 15.672,4.976 15.613,4.891 15.453 C 4.842 15.362,4.746 15.247,4.678 15.199 C 4.414 15.010,3.957 14.950,3.614 15.057 M19.614 15.057 C 19.377 15.131,19.212 15.261,19.109 15.453 C 19.024 15.613,19.019 15.673,18.999 16.940 C 18.984 17.847,18.962 18.295,18.929 18.373 C 18.843 18.570,18.673 18.761,18.484 18.872 L 18.300 18.980 16.979 19.000 C 15.658 19.020,15.657 19.020,15.459 19.122 C 15.119 19.297,14.978 19.606,15.009 20.104 C 15.039 20.570,15.252 20.856,15.652 20.963 C 15.757 20.992,16.285 21.001,17.196 20.991 C 18.508 20.976,18.595 20.971,18.860 20.884 C 19.842 20.562,20.581 19.817,20.886 18.840 C 20.977 18.548,20.980 18.499,20.980 17.080 C 20.980 15.647,20.978 15.617,20.891 15.453 C 20.842 15.362,20.746 15.247,20.678 15.199 C 20.414 15.010,19.957 14.950,19.614 15.057 " stroke="none" fill="black" fill-rule="evenodd"></path></svg>