<svg xmlns="http://www.w3.org/2000/svg" width="24" height="24" viewBox="0 0 24 24" fill="none" stroke="currentColor" stroke-width="2" stroke-linecap="round" stroke-linejoin="round" class="icon icon-tabler icons-tabler-outline icon-tabler-freeze-row-column"><path d="M6.880 2.001 L 4.460 2.022 4.139 2.122 C 3.182 2.421,2.443 3.157,2.114 4.140 L 2.020 4.420 1.995 9.680 C 1.981 12.573,1.968 14.967,1.968 15.000 C 1.967 15.033,1.979 16.077,1.995 17.320 C 2.023 19.532,2.026 19.586,2.116 19.860 C 2.440 20.844,3.183 21.581,4.160 21.886 L 4.460 21.980 12.000 21.980 L 19.540 21.980 19.840 21.886 C 20.827 21.578,21.578 20.827,21.886 19.840 L 21.980 19.540 21.980 12.000 L 21.980 4.460 21.886 4.160 C 21.761 3.760,21.563 3.391,21.321 3.108 C 20.722 2.409,20.027 2.060,19.140 2.015 C 18.571 1.986,9.762 1.976,6.880 2.001 M5.560 5.540 L 4.020 7.080 4.009 5.993 C 3.997 4.703,4.016 4.590,4.303 4.303 C 4.584 4.022,4.675 4.006,5.980 4.003 L 7.100 4.000 5.560 5.540 M10.460 6.103 C 9.294 7.259,8.301 8.244,8.253 8.292 C 8.205 8.341,7.228 9.325,6.083 10.480 L 4.000 12.580 4.000 11.240 L 4.000 9.900 6.950 6.950 L 9.900 4.000 11.240 4.000 L 12.580 4.000 10.460 6.103 M16.100 6.000 L 14.100 8.000 12.760 8.000 L 11.420 8.000 13.420 6.000 L 15.420 4.000 16.760 4.000 L 18.100 4.000 16.100 6.000 M20.000 6.460 L 20.000 8.000 18.450 8.000 L 16.900 8.000 18.440 6.460 C 19.287 5.613,19.984 4.920,19.990 4.920 C 19.995 4.920,20.000 5.613,20.000 6.460 M14.500 10.030 C 14.522 10.030,15.768 10.022,17.270 10.013 L 20.000 9.997 20.000 14.552 C 20.000 19.497,20.008 19.318,19.779 19.618 C 19.718 19.698,19.585 19.813,19.484 19.872 L 19.300 19.980 14.649 19.991 L 9.997 20.001 10.014 17.531 C 10.035 14.589,10.035 15.411,10.014 12.468 L 9.997 9.997 12.229 10.013 C 13.456 10.023,14.478 10.030,14.500 10.030 M6.000 16.579 L 4.000 18.580 4.000 17.000 L 4.000 15.420 5.990 13.430 L 7.980 11.440 7.990 13.009 L 8.001 14.579 6.000 16.579 M8.000 18.720 L 8.000 20.000 6.710 20.000 L 5.420 20.000 6.700 18.720 C 7.404 18.016,7.984 17.440,7.990 17.440 C 7.995 17.440,8.000 18.016,8.000 18.720 " stroke="none" fill="black" fill-rule="evenodd"></path></svg>