<svg xmlns="http://www.w3.org/2000/svg" width="24" height="24" viewBox="0 0 24 24" fill="none" stroke="currentColor" stroke-width="2" stroke-linecap="round" stroke-linejoin="round" class="icon icon-tabler icons-tabler-outline icon-tabler-math-integral"><path d="M14.480 2.060 C 13.545 2.272,12.864 3.053,12.420 4.423 C 12.143 5.276,11.998 6.008,11.499 9.052 C 11.356 9.927,11.149 11.115,11.038 11.692 C 10.827 12.799,10.592 14.154,10.321 15.840 C 9.913 18.375,9.577 19.577,9.185 19.907 C 9.079 19.996,9.038 20.006,8.867 19.986 C 8.529 19.946,8.202 19.693,8.076 19.373 C 8.051 19.311,8.015 19.111,7.996 18.929 C 7.954 18.534,7.853 18.316,7.649 18.182 C 7.198 17.887,6.426 17.979,6.170 18.358 C 6.027 18.570,5.988 18.782,6.013 19.200 C 6.088 20.446,6.936 21.507,8.160 21.886 C 8.595 22.020,9.343 22.020,9.731 21.887 C 10.621 21.579,11.243 20.752,11.657 19.324 C 11.879 18.560,12.018 17.850,12.400 15.540 C 12.600 14.330,12.843 12.926,12.940 12.420 C 13.201 11.060,13.332 10.305,13.600 8.640 C 13.951 6.460,14.158 5.474,14.405 4.800 C 14.585 4.310,14.822 4.000,15.016 4.000 C 15.224 4.000,15.515 4.124,15.679 4.283 C 15.892 4.491,15.958 4.650,16.001 5.067 C 16.068 5.718,16.370 6.000,17.000 6.000 C 17.428 6.000,17.713 5.856,17.880 5.558 C 17.971 5.396,17.980 5.338,17.979 4.920 C 17.978 4.555,17.959 4.398,17.885 4.160 C 17.583 3.182,16.810 2.406,15.861 2.129 C 15.447 2.008,14.841 1.978,14.480 2.060 " stroke="none" fill="black" fill-rule="evenodd"></path></svg>