<svg xmlns="http://www.w3.org/2000/svg" width="24" height="24" viewBox="0 0 24 24" fill="none" stroke="currentColor" stroke-width="2" stroke-linecap="round" stroke-linejoin="round" class="icon icon-tabler icons-tabler-outline icon-tabler-flower-off"><path d="M11.358 1.061 C 9.731 1.315,8.417 2.584,8.083 4.227 C 7.847 5.381,8.105 5.941,8.896 5.991 C 9.375 6.021,9.700 5.881,9.871 5.572 C 9.938 5.450,9.972 5.297,10.000 4.993 C 10.046 4.476,10.117 4.238,10.314 3.937 C 10.708 3.336,11.333 2.995,12.028 3.002 C 13.217 3.014,14.157 4.118,13.966 5.277 C 13.911 5.611,13.736 6.175,13.512 6.740 C 13.346 7.162,12.740 8.330,12.574 8.549 C 12.437 8.732,12.286 9.071,12.258 9.263 C 12.226 9.472,12.294 9.723,12.424 9.878 C 12.480 9.944,12.692 10.096,12.894 10.215 C 13.305 10.457,13.558 10.705,13.759 11.060 C 14.058 11.590,14.248 11.733,14.644 11.728 L 14.869 11.725 14.894 11.966 C 14.908 12.099,14.955 12.288,14.999 12.387 C 15.093 12.599,15.434 12.936,15.661 13.041 C 15.761 13.088,16.201 13.170,16.821 13.259 C 18.340 13.477,18.787 13.600,19.221 13.921 C 19.480 14.112,19.647 14.325,19.801 14.660 C 20.042 15.186,20.053 15.694,19.834 16.286 C 19.685 16.692,19.670 16.958,19.785 17.181 C 20.018 17.632,20.809 17.902,21.216 17.669 C 21.633 17.432,22.000 16.429,22.000 15.529 C 22.000 14.187,21.343 12.929,20.264 12.208 L 19.959 12.004 20.209 11.835 C 20.717 11.492,21.291 10.857,21.540 10.361 C 22.117 9.214,22.146 7.952,21.622 6.820 C 21.096 5.683,20.084 4.872,18.848 4.599 C 18.007 4.413,16.829 4.571,16.200 4.954 C 16.123 5.001,16.047 5.040,16.030 5.040 C 16.014 5.040,16.000 4.948,16.000 4.836 C 16.000 4.530,15.858 3.895,15.705 3.516 C 15.172 2.197,14.001 1.269,12.605 1.058 C 12.144 0.989,11.816 0.990,11.358 1.061 M2.626 2.045 C 2.257 2.239,1.951 2.673,1.951 3.000 C 1.951 3.314,2.075 3.484,2.947 4.364 L 3.764 5.188 3.657 5.258 C 3.311 5.485,2.840 6.003,2.567 6.457 C 2.235 7.010,2.052 7.613,2.013 8.283 C 1.961 9.193,2.233 10.124,2.761 10.840 C 3.005 11.170,3.467 11.616,3.792 11.836 L 4.044 12.006 3.792 12.168 C 3.129 12.597,2.549 13.329,2.257 14.105 C 1.607 15.830,2.258 17.828,3.796 18.833 C 4.976 19.604,6.405 19.702,7.706 19.101 L 8.000 18.965 8.000 19.166 C 8.000 19.464,8.148 20.136,8.289 20.479 C 8.714 21.516,9.490 22.292,10.512 22.704 C 12.558 23.528,14.877 22.538,15.704 20.488 C 15.858 20.105,16.000 19.471,16.000 19.163 L 16.000 18.959 16.230 19.074 C 16.675 19.296,17.240 19.447,17.820 19.499 L 18.100 19.524 19.280 20.697 C 20.051 21.464,20.521 21.902,20.637 21.960 C 20.989 22.137,21.354 22.048,21.701 21.701 C 22.048 21.354,22.137 20.988,21.959 20.637 C 21.901 20.523,21.398 19.980,20.532 19.100 C 19.797 18.352,19.170 17.716,19.140 17.687 C 19.077 17.627,6.358 4.904,6.227 4.771 C 5.324 3.851,3.502 2.111,3.372 2.045 C 3.152 1.934,2.836 1.934,2.626 2.045 M18.563 6.584 C 19.248 6.788,19.755 7.318,19.939 8.022 C 20.108 8.673,19.891 9.444,19.403 9.919 C 18.902 10.408,18.537 10.508,15.939 10.864 L 15.777 10.886 15.729 10.653 C 15.646 10.255,15.233 9.556,14.885 9.224 L 14.763 9.108 15.211 8.628 C 15.458 8.364,15.862 7.923,16.110 7.648 C 16.357 7.373,16.654 7.066,16.770 6.967 C 16.976 6.791,17.362 6.586,17.560 6.550 C 17.804 6.504,18.357 6.523,18.563 6.584 M8.423 10.237 C 8.350 10.382,8.268 10.572,8.241 10.660 C 8.213 10.748,8.178 10.834,8.163 10.850 C 8.120 10.898,6.233 10.617,5.711 10.485 C 5.148 10.342,4.894 10.214,4.594 9.918 C 4.107 9.437,3.892 8.672,4.061 8.022 C 4.195 7.506,4.560 7.019,5.000 6.767 L 5.220 6.641 6.887 8.307 L 8.554 9.974 8.423 10.237 M12.457 13.924 C 12.415 13.994,11.933 14.005,11.641 13.943 C 11.244 13.860,10.966 13.719,10.682 13.455 C 10.218 13.026,10.040 12.611,10.040 11.963 C 10.040 11.749,10.053 11.561,10.068 11.545 C 10.102 11.511,12.483 13.882,12.457 13.924 M8.238 13.290 C 8.359 13.692,8.719 14.301,9.051 14.664 L 9.249 14.881 8.774 15.386 C 8.514 15.664,8.108 16.107,7.874 16.369 C 7.639 16.632,7.351 16.929,7.234 17.030 C 6.581 17.589,5.695 17.648,4.905 17.185 C 4.547 16.975,4.187 16.460,4.061 15.978 C 3.891 15.323,4.108 14.558,4.603 14.074 C 5.030 13.656,5.534 13.492,7.040 13.283 C 7.513 13.218,7.945 13.156,8.000 13.147 C 8.055 13.138,8.120 13.128,8.144 13.125 C 8.168 13.122,8.210 13.197,8.238 13.290 M11.880 15.971 C 12.067 15.976,12.364 15.966,12.541 15.948 L 12.861 15.916 13.169 16.528 C 13.607 17.400,13.930 18.319,13.983 18.851 C 14.040 19.418,13.833 19.973,13.403 20.404 C 13.002 20.807,12.547 21.000,12.000 21.000 C 11.486 21.000,11.038 20.823,10.653 20.466 C 10.201 20.046,9.961 19.453,10.014 18.881 C 10.067 18.318,10.458 17.214,10.901 16.379 L 11.161 15.890 11.350 15.926 C 11.454 15.945,11.693 15.965,11.880 15.971 " stroke="none" fill="black" fill-rule="evenodd"></path></svg>