<svg xmlns="http://www.w3.org/2000/svg" width="24" height="24" viewBox="0 0 24 24" fill="none" stroke="currentColor" stroke-width="2" stroke-linecap="round" stroke-linejoin="round" class="icon icon-tabler icons-tabler-outline icon-tabler-dental-broken"><path d="M7.300 3.046 C 5.515 3.243,4.120 4.351,3.464 6.093 C 3.097 7.068,2.976 8.039,3.013 9.720 C 3.087 13.062,3.611 15.749,4.634 18.034 C 5.028 18.914,5.700 19.987,6.107 20.387 C 6.615 20.887,7.487 21.107,8.296 20.940 C 9.036 20.787,9.646 20.409,10.077 19.838 C 10.458 19.332,10.912 18.375,11.288 17.282 C 11.481 16.722,11.677 16.338,11.862 16.158 L 12.000 16.024 12.138 16.158 C 12.320 16.334,12.514 16.713,12.711 17.280 C 13.266 18.870,13.794 19.833,14.372 20.311 C 14.672 20.559,14.930 20.698,15.359 20.842 C 16.287 21.153,17.298 20.971,17.893 20.387 C 18.300 19.987,18.972 18.915,19.366 18.034 C 20.201 16.171,20.698 14.036,20.919 11.360 C 20.991 10.489,21.017 8.630,20.964 8.100 C 20.801 6.478,20.353 5.334,19.526 4.435 C 18.381 3.191,16.525 2.718,14.669 3.198 C 14.085 3.349,13.455 3.605,12.648 4.019 L 11.997 4.354 11.348 4.020 C 9.688 3.164,8.602 2.902,7.300 3.046 M8.492 5.058 C 8.663 5.089,8.960 5.164,9.152 5.225 C 9.500 5.337,11.120 6.121,11.190 6.212 C 11.235 6.270,11.800 7.684,11.800 7.738 C 11.800 7.759,11.424 8.155,10.965 8.618 C 10.074 9.517,9.951 9.685,9.951 10.000 C 9.951 10.334,10.057 10.468,11.294 11.706 C 12.532 12.943,12.666 13.049,13.000 13.049 C 13.477 13.049,14.049 12.477,14.049 12.000 C 14.049 11.693,13.921 11.513,13.147 10.730 L 12.425 10.000 13.146 9.270 C 14.183 8.221,14.177 8.251,13.627 6.868 C 13.436 6.388,13.280 5.982,13.280 5.965 C 13.280 5.915,14.511 5.336,14.859 5.221 C 15.357 5.058,15.843 4.987,16.262 5.016 C 17.754 5.118,18.615 6.000,18.900 7.720 C 19.068 8.733,18.994 11.072,18.737 12.860 C 18.400 15.214,17.744 17.123,16.768 18.592 C 16.647 18.774,16.512 18.943,16.467 18.967 C 16.354 19.027,16.002 18.983,15.807 18.884 C 15.459 18.706,15.070 17.977,14.597 16.611 C 14.387 16.005,14.197 15.589,13.988 15.280 C 12.895 13.658,11.285 13.580,10.146 15.094 C 9.853 15.483,9.649 15.898,9.404 16.608 C 8.930 17.977,8.542 18.706,8.191 18.885 C 7.992 18.986,7.587 19.032,7.504 18.963 C 7.472 18.937,7.331 18.741,7.190 18.528 C 5.916 16.605,5.213 13.932,5.037 10.340 C 4.925 8.061,5.128 6.847,5.765 6.000 C 6.347 5.225,7.396 4.863,8.492 5.058 " stroke="none" fill="black" fill-rule="evenodd"></path></svg>