<svg xmlns="http://www.w3.org/2000/svg" width="24" height="24" viewBox="0 0 24 24" fill="none" stroke="currentColor" stroke-width="2" stroke-linecap="round" stroke-linejoin="round" class="icon icon-tabler icons-tabler-outline icon-tabler-deer"><path d="M2.614 2.057 C 2.201 2.187,2.035 2.435,2.008 2.964 C 1.942 4.268,2.518 5.557,3.437 6.162 C 3.531 6.224,3.531 6.224,3.251 6.391 C 2.564 6.799,1.942 7.338,1.539 7.875 C 0.860 8.780,0.791 9.357,1.315 9.743 C 1.551 9.916,1.876 10.040,2.092 10.039 C 2.443 10.037,2.687 9.843,2.944 9.361 C 3.095 9.077,3.500 8.646,3.886 8.359 C 4.466 7.927,5.483 7.471,6.559 7.159 L 7.136 6.992 7.484 7.036 C 7.676 7.061,7.911 7.108,8.006 7.142 C 8.538 7.328,8.885 7.792,8.945 8.400 L 8.967 8.620 8.759 8.728 L 8.552 8.836 8.010 8.473 C 7.712 8.274,7.395 8.077,7.304 8.036 C 7.090 7.939,6.798 7.939,6.606 8.037 C 6.274 8.206,5.961 8.696,5.960 9.047 C 5.960 9.424,6.105 9.602,6.778 10.051 C 7.043 10.227,7.265 10.376,7.272 10.381 C 7.279 10.386,7.247 10.499,7.203 10.633 C 6.866 11.631,6.970 13.060,7.473 14.359 L 7.589 14.659 7.477 14.879 C 7.340 15.149,7.152 15.723,7.076 16.100 C 6.993 16.515,7.003 17.534,7.093 17.960 C 7.235 18.626,7.498 19.254,7.872 19.817 C 8.121 20.192,8.785 20.856,9.166 21.112 C 10.923 22.290,13.077 22.290,14.834 21.112 C 15.214 20.857,15.879 20.192,16.127 19.818 C 16.499 19.258,16.764 18.627,16.907 17.959 C 16.997 17.534,17.007 16.515,16.924 16.100 C 16.848 15.721,16.666 15.170,16.525 14.890 L 16.410 14.660 16.526 14.360 C 17.030 13.063,17.134 11.631,16.797 10.633 C 16.753 10.499,16.721 10.386,16.728 10.381 C 16.735 10.376,16.957 10.227,17.222 10.051 C 17.895 9.602,18.040 9.424,18.040 9.047 C 18.039 8.696,17.726 8.206,17.394 8.037 C 17.202 7.939,16.910 7.939,16.696 8.036 C 16.605 8.077,16.287 8.274,15.989 8.474 L 15.448 8.836 15.230 8.719 L 15.013 8.601 15.030 8.371 C 15.054 8.049,15.144 7.668,15.241 7.478 C 15.389 7.189,15.610 7.101,16.360 7.034 L 16.860 6.989 17.370 7.136 C 18.372 7.427,19.320 7.830,19.921 8.221 C 20.330 8.487,20.909 9.074,21.074 9.389 C 21.247 9.721,21.383 9.876,21.578 9.965 C 21.891 10.107,22.303 10.024,22.685 9.743 C 23.209 9.357,23.140 8.780,22.461 7.875 C 22.055 7.335,21.422 6.787,20.747 6.392 L 20.464 6.227 20.561 6.164 C 21.483 5.556,22.064 4.254,21.991 2.960 C 21.960 2.423,21.796 2.183,21.371 2.055 C 21.021 1.950,20.588 2.009,20.322 2.199 C 20.109 2.350,20.033 2.560,19.995 3.103 C 19.913 4.277,19.592 4.645,18.445 4.879 C 18.226 4.924,17.977 4.960,17.891 4.960 L 17.734 4.960 17.808 4.670 C 18.015 3.855,18.054 2.777,17.887 2.453 C 17.694 2.077,17.139 1.902,16.629 2.055 C 16.159 2.197,16.041 2.403,15.994 3.172 C 15.941 4.033,15.807 4.563,15.547 4.946 C 15.435 5.112,15.392 5.141,15.180 5.199 C 14.605 5.354,14.042 5.718,13.721 6.144 C 13.422 6.539,13.175 7.192,13.063 7.880 L 13.040 8.020 11.982 8.020 L 10.924 8.020 10.861 7.740 C 10.772 7.342,10.569 6.865,10.350 6.534 C 10.010 6.024,9.414 5.542,8.856 5.328 C 8.695 5.266,8.630 5.209,8.493 5.008 C 8.192 4.565,8.066 4.090,8.005 3.173 C 7.976 2.732,7.950 2.576,7.883 2.446 C 7.728 2.142,7.328 1.970,6.874 2.011 C 6.439 2.051,6.141 2.274,6.041 2.635 C 5.950 2.963,6.029 4.027,6.192 4.670 L 6.266 4.960 6.109 4.960 C 5.893 4.960,5.201 4.815,4.955 4.718 C 4.304 4.461,4.077 4.076,4.003 3.101 C 3.961 2.550,3.889 2.349,3.678 2.199 C 3.414 2.010,2.957 1.950,2.614 2.057 M12.782 10.044 C 13.888 10.155,14.550 10.496,14.821 11.093 C 15.027 11.546,15.045 12.199,14.873 12.940 C 14.603 14.097,13.774 15.465,12.789 16.381 C 12.462 16.685,12.087 16.960,12.000 16.960 C 11.835 16.960,11.056 16.284,10.628 15.769 C 10.284 15.354,9.845 14.714,9.765 14.508 C 9.729 14.415,9.648 14.253,9.584 14.147 C 9.294 13.662,9.061 12.864,9.017 12.206 C 8.941 11.071,9.405 10.431,10.500 10.160 C 11.104 10.010,11.996 9.965,12.782 10.044 M11.614 14.055 C 11.220 14.184,11.039 14.437,11.009 14.900 C 10.978 15.381,11.119 15.699,11.442 15.880 C 11.597 15.967,11.669 15.980,12.000 15.980 C 12.312 15.980,12.408 15.964,12.540 15.894 C 12.866 15.718,13.000 15.459,13.000 15.000 C 13.000 14.357,12.713 14.048,12.083 14.016 C 11.893 14.006,11.718 14.021,11.614 14.055 M9.400 17.394 C 10.278 18.371,11.295 18.999,12.000 18.999 C 12.705 18.999,13.722 18.371,14.600 17.394 C 14.785 17.188,14.953 17.002,14.973 16.980 C 15.022 16.927,14.974 17.424,14.897 17.760 C 14.706 18.596,13.964 19.440,13.120 19.783 C 12.229 20.145,11.183 20.043,10.372 19.515 C 10.233 19.424,9.978 19.201,9.806 19.019 C 9.324 18.510,9.089 17.974,9.017 17.220 C 9.000 17.048,9.004 16.955,9.027 16.980 C 9.047 17.002,9.215 17.188,9.400 17.394 " stroke="none" fill="black" fill-rule="evenodd"></path></svg>