<svg xmlns="http://www.w3.org/2000/svg" width="24" height="24" viewBox="0 0 24 24" fill="none" stroke="currentColor" stroke-width="2" stroke-linecap="round" stroke-linejoin="round" class="icon icon-tabler icons-tabler-outline icon-tabler-capture-off"><path d="M2.626 2.045 C 2.257 2.239,1.951 2.673,1.951 3.000 C 1.951 3.293,2.085 3.492,2.702 4.120 L 3.273 4.700 3.147 5.060 L 3.022 5.420 3.008 6.804 C 2.999 7.710,3.009 8.243,3.037 8.348 C 3.144 8.748,3.430 8.961,3.896 8.991 C 4.381 9.022,4.699 8.882,4.880 8.558 C 4.978 8.384,4.980 8.359,4.993 7.403 L 5.006 6.427 6.779 8.199 L 8.551 9.971 8.396 10.295 C 8.310 10.474,8.193 10.800,8.135 11.020 C 8.045 11.362,8.030 11.502,8.030 11.980 C 8.031 12.449,8.048 12.603,8.132 12.925 C 8.443 14.113,9.174 15.030,10.226 15.555 C 11.327 16.105,12.595 16.122,13.705 15.602 L 14.030 15.450 15.805 17.225 L 17.580 19.000 16.696 19.000 C 15.757 19.000,15.561 19.028,15.322 19.199 C 15.100 19.357,15.020 19.568,15.020 20.000 C 15.020 20.331,15.033 20.403,15.120 20.558 C 15.233 20.760,15.417 20.900,15.652 20.963 C 15.757 20.991,16.290 21.001,17.196 20.992 L 18.580 20.978 18.940 20.853 L 19.300 20.727 19.880 21.298 C 20.205 21.617,20.538 21.908,20.637 21.959 C 20.988 22.137,21.353 22.049,21.701 21.701 C 22.047 21.355,22.136 20.990,21.961 20.637 C 21.839 20.392,3.616 2.165,3.372 2.044 C 3.152 1.934,2.834 1.935,2.626 2.045 M15.614 3.056 C 15.376 3.133,15.211 3.262,15.109 3.453 C 15.035 3.592,15.020 3.684,15.020 4.000 C 15.020 4.331,15.033 4.403,15.120 4.558 C 15.230 4.755,15.414 4.898,15.635 4.959 C 15.717 4.982,16.287 5.000,16.943 5.000 C 18.308 5.000,18.412 5.018,18.697 5.303 C 18.982 5.588,19.000 5.692,19.000 7.057 C 19.000 7.713,19.018 8.283,19.041 8.365 C 19.148 8.750,19.437 8.962,19.896 8.991 C 20.381 9.022,20.699 8.882,20.880 8.558 L 20.980 8.380 20.980 6.920 C 20.980 5.501,20.977 5.452,20.886 5.160 C 20.581 4.181,19.825 3.421,18.861 3.124 C 18.550 3.028,18.498 3.024,17.160 3.013 C 16.090 3.005,15.743 3.014,15.614 3.056 M12.832 8.362 C 12.550 8.511,12.318 8.923,12.289 9.328 C 12.272 9.563,12.282 9.617,12.372 9.770 C 12.475 9.945,12.582 10.032,13.000 10.278 C 13.328 10.472,13.542 10.698,13.785 11.110 C 14.023 11.510,14.168 11.648,14.427 11.717 C 14.876 11.836,15.604 11.429,15.722 10.994 C 15.783 10.767,15.721 10.485,15.532 10.126 C 15.134 9.373,14.525 8.789,13.751 8.418 C 13.404 8.252,13.078 8.232,12.832 8.362 M12.457 13.924 C 12.447 13.941,12.327 13.966,12.190 13.980 C 11.302 14.075,10.399 13.470,10.101 12.581 C 10.033 12.378,10.006 11.648,10.063 11.556 C 10.079 11.529,10.561 11.981,11.283 12.703 C 11.939 13.359,12.467 13.908,12.457 13.924 M3.614 15.057 C 3.377 15.131,3.212 15.261,3.109 15.453 C 3.022 15.617,3.020 15.647,3.020 17.080 C 3.020 18.499,3.023 18.548,3.114 18.840 C 3.419 19.817,4.158 20.562,5.140 20.884 C 5.405 20.971,5.492 20.976,6.804 20.991 C 7.715 21.001,8.243 20.992,8.348 20.963 C 8.583 20.900,8.767 20.760,8.880 20.558 C 8.967 20.402,8.980 20.332,8.979 20.000 C 8.977 19.469,8.850 19.243,8.455 19.072 C 8.375 19.037,7.942 19.016,7.020 19.001 L 5.700 18.980 5.516 18.872 C 5.327 18.761,5.157 18.570,5.071 18.373 C 5.037 18.295,5.015 17.854,5.001 16.940 C 4.981 15.672,4.976 15.613,4.891 15.453 C 4.842 15.362,4.746 15.247,4.678 15.199 C 4.414 15.010,3.957 14.950,3.614 15.057 " stroke="none" fill="black" fill-rule="evenodd"></path></svg>