<svg xmlns="http://www.w3.org/2000/svg" width="24" height="24" viewBox="0 0 24 24" fill="none" stroke="currentColor" stroke-width="2" stroke-linecap="round" stroke-linejoin="round" class="icon icon-tabler icons-tabler-outline icon-tabler-brand-gatsby"><path d="M11.240 2.024 C 11.163 2.033,10.947 2.060,10.760 2.082 C 7.212 2.515,4.101 4.891,2.750 8.200 C 2.374 9.119,2.312 9.475,2.471 9.800 C 2.591 10.048,13.985 21.434,14.218 21.540 C 14.443 21.642,14.731 21.629,15.123 21.500 C 16.657 20.994,18.023 20.142,19.144 18.992 C 20.703 17.391,21.601 15.622,21.943 13.476 C 22.078 12.626,21.915 12.219,21.371 12.055 C 21.223 12.011,20.670 12.000,18.500 12.000 C 15.630 12.000,15.598 12.002,15.322 12.199 C 15.100 12.357,15.020 12.568,15.020 13.000 C 15.020 13.331,15.033 13.403,15.120 13.558 C 15.230 13.755,15.414 13.898,15.635 13.959 C 15.723 13.984,16.567 14.000,17.790 14.000 C 18.895 14.000,19.800 14.006,19.800 14.014 C 19.800 14.125,19.457 15.022,19.262 15.420 C 18.475 17.029,17.179 18.350,15.620 19.130 C 15.378 19.252,15.112 19.375,15.029 19.404 L 14.877 19.457 9.719 14.299 C 6.881 11.461,4.560 9.113,4.560 9.080 C 4.560 8.970,5.066 7.985,5.320 7.600 C 5.664 7.080,5.956 6.732,6.445 6.259 C 7.339 5.394,8.307 4.803,9.444 4.426 C 11.476 3.753,13.606 3.891,15.500 4.817 C 16.599 5.355,17.162 5.803,18.305 7.052 C 18.573 7.344,18.759 7.447,19.023 7.447 C 19.457 7.447,19.986 7.002,20.096 6.546 C 20.144 6.345,20.019 6.029,19.764 5.708 C 18.245 3.797,15.947 2.486,13.440 2.100 C 13.039 2.038,11.552 1.987,11.240 2.024 M3.094 13.321 C 2.732 13.394,2.406 13.641,2.318 13.906 C 2.144 14.432,2.811 16.232,3.650 17.500 C 4.381 18.606,5.387 19.609,6.540 20.380 C 7.325 20.905,8.941 21.600,9.608 21.700 C 10.126 21.778,10.762 21.227,10.759 20.702 C 10.757 20.338,10.785 20.368,7.228 16.816 C 5.108 14.698,3.808 13.429,3.720 13.390 C 3.530 13.306,3.294 13.280,3.094 13.321 " stroke="none" fill="black" fill-rule="evenodd"></path></svg>