<svg xmlns="http://www.w3.org/2000/svg" width="24" height="24" viewBox="0 0 24 24" fill="none" stroke="currentColor" stroke-width="2" stroke-linecap="round" stroke-linejoin="round" class="icon icon-tabler icons-tabler-outline icon-tabler-rings"><path d="M2.614 3.057 C 2.377 3.131,2.212 3.261,2.109 3.453 C 2.035 3.592,2.020 3.684,2.020 4.000 C 2.020 4.331,2.033 4.403,2.120 4.558 C 2.230 4.755,2.414 4.898,2.635 4.959 C 2.721 4.983,3.435 5.000,4.390 5.000 L 6.000 5.000 5.990 9.063 L 5.980 13.126 5.720 13.217 C 4.824 13.531,4.024 14.177,3.569 14.953 C 2.320 17.083,3.233 19.785,5.512 20.704 C 7.558 21.528,9.877 20.538,10.704 18.488 C 11.560 16.365,10.464 13.983,8.280 13.217 L 8.020 13.126 8.010 9.063 L 8.000 5.000 12.000 5.000 L 16.000 5.000 15.990 9.063 L 15.980 13.126 15.720 13.217 C 14.824 13.531,14.024 14.177,13.569 14.953 C 12.320 17.083,13.233 19.785,15.512 20.704 C 17.558 21.528,19.877 20.538,20.704 18.488 C 21.560 16.365,20.464 13.983,18.280 13.217 L 18.020 13.126 18.010 9.063 L 18.000 5.000 19.610 5.000 C 20.565 5.000,21.279 4.983,21.365 4.959 C 21.586 4.898,21.770 4.755,21.880 4.558 C 21.967 4.402,21.980 4.332,21.979 4.000 C 21.978 3.567,21.898 3.355,21.678 3.199 C 21.385 2.990,21.877 3.000,11.984 3.003 C 4.546 3.005,2.748 3.015,2.614 3.057 M6.052 15.390 C 6.088 15.569,6.250 15.773,6.442 15.880 C 6.597 15.967,6.669 15.980,7.000 15.980 C 7.331 15.980,7.403 15.967,7.558 15.880 C 7.750 15.773,7.912 15.569,7.948 15.390 C 7.975 15.253,7.991 15.253,8.185 15.394 C 8.947 15.945,9.210 17.023,8.793 17.880 C 8.638 18.198,8.227 18.625,7.930 18.775 C 7.159 19.166,6.279 19.046,5.653 18.465 C 4.726 17.603,4.803 16.142,5.816 15.395 C 6.008 15.253,6.025 15.253,6.052 15.390 M16.052 15.390 C 16.088 15.569,16.250 15.773,16.442 15.880 C 16.597 15.967,16.669 15.980,17.000 15.980 C 17.331 15.980,17.403 15.967,17.558 15.880 C 17.750 15.773,17.912 15.569,17.948 15.390 C 17.975 15.253,17.991 15.253,18.185 15.394 C 18.947 15.945,19.210 17.023,18.793 17.880 C 18.638 18.198,18.227 18.625,17.930 18.775 C 17.159 19.166,16.279 19.046,15.653 18.465 C 14.726 17.603,14.803 16.142,15.816 15.395 C 16.008 15.253,16.025 15.253,16.052 15.390 " stroke="none" fill="black" fill-rule="evenodd"></path></svg>