<svg xmlns="http://www.w3.org/2000/svg" width="24" height="24" viewBox="0 0 24 24" fill="none" stroke="currentColor" stroke-width="2" stroke-linecap="round" stroke-linejoin="round" class="icon icon-tabler icons-tabler-outline icon-tabler-chart-donut-4"><path d="M11.080 2.045 C 9.507 2.184,7.883 2.751,6.540 3.630 C 5.905 4.045,5.499 4.378,4.919 4.958 C 2.953 6.926,1.919 9.544,2.013 12.320 C 2.084 14.439,2.752 16.328,4.033 18.040 C 4.430 18.570,5.305 19.464,5.800 19.847 C 7.242 20.961,8.790 21.625,10.600 21.906 C 11.171 21.995,12.710 22.008,13.260 21.928 C 15.068 21.666,16.640 21.023,18.020 19.982 C 18.572 19.566,19.464 18.696,19.847 18.200 C 20.961 16.758,21.624 15.213,21.907 13.400 C 22.008 12.753,22.008 11.247,21.907 10.600 C 21.624 8.786,20.959 7.238,19.847 5.800 C 19.510 5.365,18.639 4.494,18.200 4.154 C 16.133 2.555,13.646 1.818,11.080 2.045 M11.000 5.596 L 11.000 7.111 10.850 7.139 C 10.596 7.185,10.117 7.362,9.760 7.541 C 8.594 8.126,7.691 9.162,7.268 10.400 C 7.078 10.956,7.020 11.330,7.020 12.000 C 7.020 12.833,7.128 13.338,7.467 14.093 C 7.544 14.265,7.601 14.412,7.594 14.419 C 7.586 14.426,7.067 14.866,6.440 15.396 L 5.300 16.360 5.231 16.270 C 5.070 16.062,4.547 14.944,4.403 14.498 C 3.482 11.664,4.191 8.585,6.256 6.446 C 7.356 5.306,8.815 4.496,10.340 4.177 C 10.582 4.127,10.830 4.084,10.890 4.083 L 11.000 4.080 11.000 5.596 M13.586 4.163 C 14.494 4.338,15.587 4.786,16.380 5.309 C 17.879 6.296,19.047 7.820,19.597 9.502 C 19.740 9.942,19.920 10.731,19.920 10.922 C 19.920 10.998,19.880 11.000,18.406 11.000 L 16.893 11.000 16.842 10.773 C 16.660 9.961,16.116 9.031,15.452 8.396 C 14.832 7.804,13.848 7.266,13.150 7.139 L 13.000 7.111 13.000 5.596 C 13.000 4.120,13.002 4.080,13.078 4.080 C 13.121 4.080,13.349 4.117,13.586 4.163 M12.861 9.129 C 13.804 9.405,14.584 10.183,14.875 11.139 C 14.958 11.412,14.973 11.542,14.973 12.000 C 14.973 12.458,14.958 12.588,14.875 12.861 C 14.590 13.795,13.841 14.557,12.900 14.868 C 12.618 14.961,12.513 14.974,12.020 14.977 C 11.539 14.980,11.418 14.967,11.160 14.886 C 10.180 14.580,9.418 13.822,9.125 12.861 C 9.042 12.588,9.027 12.458,9.027 12.000 C 9.027 11.542,9.042 11.412,9.125 11.139 C 9.456 10.054,10.371 9.245,11.499 9.040 C 11.832 8.980,12.500 9.023,12.861 9.129 M19.920 13.078 C 19.920 13.121,19.883 13.349,19.837 13.586 C 19.600 14.817,18.973 16.123,18.152 17.100 C 17.734 17.596,17.245 18.071,17.209 18.015 C 17.193 17.990,16.812 17.418,16.363 16.744 L 15.546 15.518 15.689 15.369 C 16.192 14.845,16.741 13.805,16.861 13.150 L 16.889 13.000 18.404 13.000 C 19.880 13.000,19.920 13.002,19.920 13.078 M9.780 16.470 C 10.524 16.840,11.132 16.980,12.000 16.980 C 12.669 16.980,13.046 16.922,13.593 16.734 C 13.754 16.678,13.891 16.639,13.898 16.646 C 13.916 16.668,15.502 19.054,15.536 19.111 C 15.602 19.222,14.404 19.673,13.620 19.833 C 11.232 20.321,8.721 19.690,6.867 18.137 L 6.594 17.909 6.676 17.826 C 6.721 17.781,7.240 17.336,7.829 16.838 L 8.900 15.932 9.180 16.122 C 9.334 16.226,9.604 16.383,9.780 16.470 " stroke="none" fill="black" fill-rule="evenodd"></path></svg>