<svg xmlns="http://www.w3.org/2000/svg" width="24" height="24" viewBox="0 0 24 24" fill="none" stroke="currentColor" stroke-width="2" stroke-linecap="round" stroke-linejoin="round" class="icon icon-tabler icons-tabler-outline icon-tabler-signal-6g"><path d="M6.477 7.073 C 5.806 7.249,5.238 7.823,5.060 8.508 C 5.009 8.702,5.000 9.237,5.000 12.000 C 5.000 15.547,4.996 15.478,5.225 15.930 C 5.361 16.199,5.801 16.639,6.070 16.775 C 6.479 16.982,6.632 17.000,8.000 17.000 C 9.368 17.000,9.521 16.982,9.930 16.775 C 10.196 16.640,10.638 16.200,10.771 15.937 C 10.979 15.527,11.000 15.352,10.999 14.014 C 10.999 12.682,10.974 12.463,10.781 12.083 C 10.646 11.816,10.297 11.449,10.017 11.281 C 9.609 11.035,9.405 11.005,8.130 11.002 L 7.000 11.000 7.000 10.000 L 7.000 9.000 7.994 9.000 L 8.989 9.000 9.013 9.203 C 9.074 9.715,9.426 10.000,10.000 10.000 C 10.618 10.000,10.944 9.706,10.987 9.110 C 11.027 8.565,10.848 8.065,10.465 7.653 C 10.198 7.366,9.870 7.164,9.523 7.073 C 9.134 6.972,6.866 6.972,6.477 7.073 M15.499 7.043 C 14.383 7.230,13.461 8.048,13.114 9.160 L 13.020 9.460 13.020 12.000 L 13.020 14.540 13.114 14.840 C 13.419 15.817,14.158 16.562,15.140 16.884 C 15.405 16.971,15.492 16.976,16.804 16.991 C 17.715 17.001,18.243 16.992,18.348 16.963 C 18.583 16.900,18.767 16.760,18.880 16.558 L 18.980 16.380 18.980 14.000 L 18.980 11.620 18.891 11.453 C 18.785 11.256,18.622 11.131,18.371 11.055 C 18.117 10.979,16.883 10.979,16.629 11.055 C 16.224 11.177,16.040 11.428,16.009 11.900 C 15.968 12.532,16.251 12.922,16.797 12.987 L 17.000 13.011 17.000 14.009 L 17.000 15.007 16.350 14.993 C 15.728 14.981,15.692 14.975,15.516 14.872 C 15.415 14.813,15.284 14.700,15.225 14.623 C 14.999 14.327,15.000 14.334,15.000 12.002 C 15.000 9.564,14.995 9.612,15.306 9.300 C 15.588 9.018,15.695 9.000,17.057 9.000 C 17.713 9.000,18.283 8.982,18.365 8.959 C 18.586 8.898,18.770 8.755,18.880 8.558 C 18.967 8.402,18.980 8.332,18.979 8.000 C 18.978 7.567,18.898 7.355,18.678 7.199 C 18.423 7.017,18.269 7.000,16.944 7.005 C 16.260 7.007,15.609 7.025,15.499 7.043 M9.000 14.000 L 9.000 15.000 8.000 15.000 L 7.000 15.000 7.000 14.000 L 7.000 13.000 8.000 13.000 L 9.000 13.000 9.000 14.000 " stroke="none" fill="black" fill-rule="evenodd"></path></svg>