<svg xmlns="http://www.w3.org/2000/svg" width="24" height="24" viewBox="0 0 24 24" fill="none" stroke="currentColor" stroke-width="2" stroke-linecap="round" stroke-linejoin="round" class="icon icon-tabler icons-tabler-outline icon-tabler-compass-off"><path d="M2.626 2.045 C 2.257 2.239,1.951 2.673,1.951 3.000 C 1.951 3.327,2.064 3.474,3.193 4.610 L 4.256 5.679 4.155 5.790 C 3.681 6.309,2.950 7.567,2.638 8.400 C 1.751 10.767,1.720 13.096,2.544 15.447 C 2.762 16.068,3.229 16.999,3.606 17.561 C 5.602 20.543,8.922 22.214,12.493 22.034 C 14.455 21.935,16.452 21.201,17.995 20.011 L 18.330 19.753 19.395 20.812 C 20.082 21.494,20.523 21.902,20.637 21.960 C 20.989 22.137,21.354 22.048,21.701 21.701 C 22.116 21.286,22.159 20.868,21.832 20.440 C 21.790 20.385,19.295 17.878,16.288 14.868 C 5.481 4.053,3.547 2.132,3.372 2.044 C 3.152 1.934,2.835 1.935,2.626 2.045 M11.080 2.043 C 9.920 2.160,8.784 2.470,7.760 2.951 C 7.138 3.242,6.920 3.478,6.920 3.857 C 6.920 4.250,7.203 4.749,7.521 4.913 C 7.791 5.053,8.035 5.018,8.598 4.761 C 9.332 4.426,10.068 4.198,10.780 4.087 L 11.000 4.052 11.000 4.636 C 11.000 4.957,11.019 5.285,11.041 5.365 C 11.148 5.750,11.437 5.962,11.896 5.991 C 12.381 6.022,12.699 5.882,12.880 5.558 C 12.972 5.393,12.980 5.334,12.994 4.730 C 13.008 4.084,13.009 4.080,13.100 4.080 C 13.220 4.080,13.867 4.214,14.222 4.312 C 16.804 5.028,18.972 7.196,19.688 9.778 C 19.788 10.138,19.920 10.780,19.920 10.904 L 19.920 11.000 19.366 11.000 C 18.580 11.000,18.297 11.102,18.109 11.453 C 18.035 11.592,18.020 11.684,18.020 12.000 C 18.020 12.331,18.033 12.403,18.120 12.558 C 18.230 12.755,18.414 12.898,18.635 12.959 C 18.715 12.981,19.037 13.000,19.350 13.000 L 19.920 13.000 19.920 13.130 C 19.919 13.304,19.745 14.063,19.614 14.460 C 19.557 14.636,19.402 15.023,19.271 15.320 C 18.985 15.969,18.948 16.187,19.078 16.456 C 19.303 16.921,20.057 17.216,20.477 17.002 C 20.696 16.890,20.827 16.717,21.051 16.240 C 22.704 12.724,22.156 8.553,19.647 5.557 C 18.089 3.697,15.786 2.429,13.360 2.097 C 12.822 2.023,11.571 1.994,11.080 2.043 M15.900 7.004 C 15.659 7.044,12.683 8.036,12.454 8.153 C 12.081 8.343,11.918 8.681,12.000 9.097 C 12.094 9.573,12.351 9.911,12.687 10.002 C 12.904 10.060,13.139 10.015,13.841 9.780 C 14.134 9.681,14.380 9.606,14.387 9.613 C 14.394 9.620,14.319 9.866,14.220 10.159 C 13.985 10.861,13.940 11.096,13.998 11.313 C 14.089 11.649,14.427 11.906,14.903 12.000 C 15.328 12.084,15.659 11.918,15.857 11.524 C 15.908 11.423,16.188 10.621,16.480 9.742 C 16.969 8.267,17.008 8.128,16.989 7.920 C 16.978 7.795,16.924 7.606,16.867 7.494 C 16.658 7.082,16.356 6.929,15.900 7.004 M7.275 8.695 L 8.849 10.270 7.920 13.062 C 7.044 15.690,6.991 15.866,7.011 16.079 C 7.064 16.667,7.522 17.096,8.015 17.020 C 8.106 17.006,9.429 16.579,10.955 16.072 L 13.730 15.150 15.315 16.737 L 16.900 18.324 16.780 18.424 C 16.618 18.559,16.074 18.915,15.786 19.075 C 15.103 19.455,14.130 19.791,13.294 19.937 L 13.008 19.987 12.993 19.304 C 12.975 18.524,12.926 18.364,12.649 18.182 C 12.199 17.887,11.426 17.979,11.170 18.358 C 11.029 18.568,11.000 18.739,11.000 19.390 C 11.000 19.815,10.986 20.000,10.955 20.000 C 10.930 20.000,10.688 19.955,10.416 19.900 C 7.883 19.387,5.804 17.766,4.712 15.452 C 4.395 14.778,4.177 14.054,4.022 13.150 L 3.996 13.000 4.608 13.000 C 4.945 13.000,5.285 12.981,5.365 12.959 C 5.586 12.898,5.770 12.755,5.880 12.558 C 5.967 12.402,5.980 12.332,5.979 12.000 C 5.978 11.687,5.962 11.591,5.890 11.453 C 5.703 11.100,5.422 11.000,4.614 11.000 C 3.944 11.000,3.994 11.056,4.119 10.446 C 4.351 9.308,4.820 8.247,5.495 7.327 C 5.578 7.213,5.659 7.120,5.674 7.120 C 5.688 7.120,6.409 7.829,7.275 8.695 M12.089 13.564 C 12.052 13.597,9.629 14.402,9.613 14.387 C 9.604 14.377,10.327 12.172,10.422 11.922 C 10.437 11.883,10.712 12.133,11.281 12.701 C 11.742 13.161,12.105 13.549,12.089 13.564 " stroke="none" fill="black" fill-rule="evenodd"></path></svg>