<svg xmlns="http://www.w3.org/2000/svg" width="24" height="24" viewBox="0 0 24 24" fill="none" stroke="currentColor" stroke-width="2" stroke-linecap="round" stroke-linejoin="round" class="icon icon-tabler icons-tabler-outline icon-tabler-brand-tidal"><path d="M4.962 5.048 C 4.843 5.107,4.204 5.702,3.024 6.855 C 2.056 7.800,1.222 8.623,1.171 8.683 C 0.944 8.953,0.893 9.317,1.039 9.619 C 1.161 9.871,4.670 13.293,4.970 13.452 C 5.213 13.581,5.437 13.583,5.699 13.458 C 5.797 13.412,6.400 12.855,7.261 12.016 L 8.663 10.649 9.616 11.574 L 10.568 12.500 9.177 13.860 C 8.014 14.997,7.770 15.255,7.688 15.434 C 7.576 15.680,7.583 15.856,7.715 16.131 C 7.795 16.295,8.238 16.739,10.791 19.215 C 11.523 19.925,11.690 20.038,12.000 20.038 C 12.335 20.038,12.458 19.944,13.690 18.746 C 15.905 16.591,16.227 16.265,16.299 16.104 C 16.418 15.841,16.421 15.672,16.311 15.434 C 16.230 15.255,15.986 14.997,14.822 13.860 L 13.431 12.500 14.384 11.574 L 15.336 10.648 16.738 12.015 C 17.609 12.864,18.201 13.411,18.300 13.458 C 18.388 13.499,18.541 13.540,18.640 13.548 C 18.977 13.576,19.100 13.476,21.005 11.620 C 21.976 10.674,22.821 9.826,22.884 9.735 C 23.134 9.370,23.106 9.008,22.800 8.655 C 22.741 8.587,21.909 7.766,20.953 6.832 C 19.751 5.659,19.158 5.107,19.034 5.047 C 18.793 4.930,18.529 4.933,18.289 5.057 C 18.165 5.120,17.697 5.545,16.940 6.283 C 16.302 6.904,15.676 7.512,15.550 7.635 L 15.319 7.858 14.530 7.078 C 12.416 4.989,12.384 4.962,12.000 4.962 C 11.616 4.962,11.584 4.989,9.470 7.078 L 8.681 7.858 8.450 7.635 C 8.324 7.512,7.698 6.904,7.060 6.283 C 6.306 5.549,5.834 5.120,5.711 5.057 C 5.469 4.932,5.202 4.929,4.962 5.048 M6.386 10.078 C 5.921 10.537,5.490 10.952,5.430 11.000 L 5.320 11.086 4.376 10.173 L 3.433 9.260 4.380 8.329 L 5.328 7.398 6.280 8.320 L 7.232 9.242 6.386 10.078 M12.965 8.336 L 13.900 9.251 12.960 10.166 C 12.443 10.668,12.011 11.080,12.000 11.080 C 11.989 11.080,11.557 10.668,11.040 10.166 L 10.100 9.252 11.040 8.328 C 11.557 7.820,11.991 7.408,12.005 7.412 C 12.019 7.416,12.451 7.832,12.965 8.336 M20.030 8.728 L 20.561 9.262 19.621 10.174 L 18.680 11.086 18.572 11.001 C 18.512 10.954,18.081 10.539,17.615 10.079 L 16.766 9.244 17.713 8.327 L 18.660 7.410 19.080 7.802 C 19.311 8.018,19.739 8.435,20.030 8.728 M12.960 14.834 L 13.900 15.749 12.964 16.664 C 12.449 17.168,12.015 17.580,12.000 17.580 C 11.985 17.580,11.551 17.168,11.036 16.664 L 10.100 15.749 11.040 14.834 C 11.557 14.332,11.989 13.920,12.000 13.920 C 12.011 13.920,12.443 14.332,12.960 14.834 " stroke="none" fill="black" fill-rule="evenodd"></path></svg>