<svg xmlns="http://www.w3.org/2000/svg" width="24" height="24" viewBox="0 0 24 24" fill="none" stroke="currentColor" stroke-width="2" stroke-linecap="round" stroke-linejoin="round" class="icon icon-tabler icons-tabler-outline icon-tabler-brand-bandcamp"><path d="M8.210 5.039 C 8.030 5.082,7.817 5.233,7.703 5.400 C 7.534 5.646,1.111 17.533,1.049 17.714 C 0.967 17.954,1.002 18.342,1.125 18.565 C 1.230 18.755,1.415 18.898,1.635 18.959 C 1.730 18.986,4.120 18.999,8.500 18.999 L 15.220 18.999 15.422 18.905 C 15.533 18.854,15.670 18.756,15.726 18.689 C 15.881 18.505,22.903 6.445,22.961 6.264 C 23.026 6.058,22.987 5.650,22.883 5.445 C 22.838 5.358,22.746 5.247,22.678 5.199 C 22.387 4.992,22.699 5.000,15.264 5.004 C 11.456 5.006,8.281 5.022,8.210 5.039 M20.233 7.034 C 20.226 7.052,18.916 9.302,17.322 12.034 L 14.423 17.000 9.051 17.000 L 3.679 17.000 3.859 16.670 C 3.958 16.488,5.177 14.239,6.568 11.670 L 9.098 7.000 14.672 7.000 C 17.738 7.000,20.241 7.015,20.233 7.034 " stroke="none" fill="black" fill-rule="evenodd"></path></svg>