<svg xmlns="http://www.w3.org/2000/svg" width="24" height="24" viewBox="0 0 24 24" fill="none" stroke="currentColor" stroke-width="2" stroke-linecap="round" stroke-linejoin="round" class="icon icon-tabler icons-tabler-outline icon-tabler-scuba-mask-off"><path d="M2.626 2.045 C 2.257 2.239,1.951 2.673,1.951 3.000 C 1.951 3.333,2.056 3.467,3.353 4.770 L 4.577 6.000 4.159 6.002 C 3.899 6.004,3.640 6.031,3.477 6.073 C 2.787 6.253,2.184 6.886,2.040 7.582 C 2.011 7.720,2.001 8.662,2.009 10.444 L 2.021 13.100 2.131 13.452 C 2.509 14.665,3.341 15.496,4.548 15.868 C 4.883 15.971,4.941 15.976,5.740 15.977 C 6.538 15.977,6.595 15.972,6.887 15.874 C 7.384 15.706,7.702 15.505,8.104 15.104 C 8.686 14.521,8.927 13.984,8.997 13.111 C 9.026 12.758,9.051 12.649,9.137 12.502 C 9.460 11.950,10.218 11.836,10.667 12.272 C 10.898 12.496,10.964 12.670,11.003 13.157 C 11.077 14.076,11.449 14.793,12.140 15.347 C 12.703 15.799,13.170 15.960,14.000 15.988 L 14.580 16.008 15.510 16.934 C 16.021 17.443,16.440 17.871,16.440 17.886 C 16.440 17.973,15.657 18.003,13.740 17.992 L 11.700 17.980 11.516 17.872 C 11.324 17.759,11.151 17.563,11.076 17.373 C 11.051 17.311,11.015 17.111,10.996 16.929 C 10.954 16.534,10.853 16.316,10.649 16.182 C 10.198 15.887,9.426 15.979,9.170 16.358 C 9.027 16.570,8.988 16.782,9.013 17.200 C 9.088 18.445,9.933 19.503,11.160 19.886 L 11.460 19.980 13.840 19.980 C 15.636 19.980,16.294 19.967,16.520 19.927 C 16.926 19.855,17.485 19.704,17.798 19.581 L 18.057 19.479 19.258 20.675 C 20.046 21.459,20.521 21.901,20.637 21.960 C 20.989 22.137,21.354 22.048,21.701 21.701 C 22.116 21.286,22.159 20.868,21.832 20.440 C 21.777 20.368,16.951 15.494,15.661 14.206 C 15.356 13.902,7.793 6.340,7.733 6.280 C 7.693 6.239,6.733 5.288,5.600 4.167 C 4.267 2.849,3.481 2.099,3.372 2.045 C 3.152 1.934,2.835 1.934,2.626 2.045 M20.590 3.061 C 20.486 3.095,20.338 3.185,20.262 3.261 C 19.987 3.536,20.000 3.262,20.000 8.804 C 20.000 12.077,19.985 13.902,19.958 14.107 C 19.890 14.607,19.771 14.982,19.491 15.573 C 19.272 16.034,19.229 16.161,19.229 16.334 C 19.229 16.587,19.302 16.739,19.523 16.938 C 19.876 17.257,20.368 17.381,20.666 17.227 C 21.094 17.006,21.617 15.954,21.888 14.767 L 21.977 14.380 21.990 9.089 C 21.998 5.546,21.989 3.747,21.961 3.645 C 21.900 3.419,21.758 3.232,21.567 3.126 C 21.346 3.004,20.867 2.972,20.590 3.061 M10.614 6.057 C 10.377 6.131,10.212 6.261,10.109 6.453 C 10.035 6.592,10.020 6.684,10.020 7.000 C 10.020 7.331,10.033 7.403,10.120 7.558 C 10.230 7.755,10.414 7.898,10.635 7.959 C 10.725 7.984,11.766 8.000,13.394 8.000 L 16.007 8.000 16.000 10.630 C 15.996 12.077,15.994 13.301,15.996 13.351 C 15.998 13.401,16.074 13.522,16.165 13.621 C 16.295 13.761,16.386 13.817,16.589 13.880 C 17.253 14.085,17.711 13.882,17.912 13.293 C 17.970 13.123,17.979 12.786,17.991 10.454 C 18.005 7.578,18.001 7.516,17.782 7.083 C 17.646 6.816,17.297 6.449,17.017 6.281 C 16.555 6.003,16.577 6.005,13.520 6.005 C 11.383 6.005,10.743 6.017,10.614 6.057 M7.694 9.114 L 8.808 10.229 8.554 10.372 C 8.223 10.558,7.892 10.842,7.639 11.157 C 7.254 11.638,7.059 12.155,7.003 12.843 C 6.964 13.329,6.898 13.504,6.669 13.726 C 6.435 13.953,6.210 14.011,5.628 13.994 C 5.181 13.981,5.118 13.969,4.880 13.856 C 4.550 13.699,4.301 13.451,4.144 13.120 L 4.020 12.860 4.009 10.430 L 3.997 8.000 5.289 8.000 L 6.581 8.000 7.694 9.114 " stroke="none" fill="black" fill-rule="evenodd"></path></svg>