<svg xmlns="http://www.w3.org/2000/svg" width="24" height="24" viewBox="0 0 24 24" fill="none" stroke="currentColor" stroke-width="2" stroke-linecap="round" stroke-linejoin="round" class="icon icon-tabler icons-tabler-outline icon-tabler-arrows-up-down"><path d="M6.530 2.083 C 6.393 2.150,6.249 2.252,6.210 2.310 C 6.172 2.369,5.463 3.101,4.635 3.938 C 3.635 4.949,3.099 5.520,3.040 5.637 C 2.863 5.989,2.952 6.354,3.299 6.701 C 3.646 7.048,4.012 7.137,4.363 6.959 C 4.469 6.905,4.832 6.580,5.270 6.147 L 6.000 5.425 6.000 13.322 C 6.000 18.490,6.014 21.270,6.041 21.365 C 6.148 21.750,6.437 21.962,6.896 21.991 C 7.381 22.022,7.699 21.882,7.880 21.558 L 7.980 21.380 7.990 13.403 L 8.001 5.426 8.730 6.147 C 9.168 6.580,9.531 6.905,9.637 6.959 C 9.988 7.137,10.354 7.048,10.701 6.701 C 11.048 6.354,11.137 5.989,10.960 5.637 C 10.901 5.520,10.365 4.949,9.365 3.938 C 8.537 3.101,7.828 2.369,7.789 2.310 C 7.751 2.252,7.604 2.149,7.464 2.082 C 7.120 1.918,6.871 1.918,6.530 2.083 M16.614 2.057 C 16.377 2.131,16.212 2.261,16.109 2.453 L 16.020 2.620 16.010 10.597 L 15.999 18.575 15.270 17.853 C 14.856 17.443,14.467 17.094,14.372 17.045 C 14.021 16.868,13.640 16.958,13.299 17.299 C 12.952 17.646,12.863 18.011,13.040 18.363 C 13.099 18.480,13.635 19.051,14.635 20.062 C 15.463 20.899,16.174 21.634,16.216 21.697 C 16.318 21.850,16.762 22.049,17.000 22.049 C 17.238 22.049,17.682 21.850,17.784 21.697 C 17.826 21.634,18.537 20.899,19.365 20.062 C 20.365 19.051,20.901 18.480,20.960 18.363 C 21.137 18.011,21.048 17.646,20.701 17.299 C 20.360 16.958,19.979 16.868,19.628 17.045 C 19.533 17.094,19.144 17.443,18.730 17.853 L 18.001 18.574 17.990 10.597 L 17.980 2.620 17.891 2.453 C 17.842 2.362,17.746 2.247,17.678 2.199 C 17.414 2.010,16.957 1.950,16.614 2.057 " stroke="none" fill="black" fill-rule="evenodd"></path></svg>