<svg xmlns="http://www.w3.org/2000/svg" width="24" height="24" viewBox="0 0 24 24" fill="none" stroke="currentColor" stroke-width="2" stroke-linecap="round" stroke-linejoin="round" class="icon icon-tabler icons-tabler-outline icon-tabler-square-half"><path d="M4.499 2.043 C 3.380 2.232,2.461 3.048,2.114 4.160 L 2.020 4.460 2.020 12.000 L 2.020 19.540 2.114 19.840 C 2.422 20.827,3.173 21.578,4.160 21.886 L 4.460 21.980 12.000 21.980 L 19.540 21.980 19.840 21.886 C 20.827 21.578,21.578 20.827,21.886 19.840 L 21.980 19.540 21.980 12.000 L 21.980 4.460 21.886 4.160 C 21.581 3.182,20.832 2.428,19.861 2.121 L 19.540 2.020 12.120 2.014 C 8.039 2.011,4.609 2.024,4.499 2.043 M10.985 5.970 C 10.975 7.054,10.969 8.003,10.973 8.080 C 10.977 8.157,10.979 9.251,10.977 10.510 C 10.976 11.770,10.975 12.890,10.975 13.000 C 10.975 13.110,10.976 14.230,10.977 15.490 C 10.979 16.750,10.976 17.843,10.971 17.920 C 10.967 17.997,10.973 18.497,10.985 19.031 L 11.006 20.002 7.853 19.991 L 4.700 19.980 4.516 19.872 C 4.415 19.813,4.284 19.700,4.225 19.623 C 3.986 19.309,4.000 19.795,4.000 12.022 C 4.000 4.005,3.975 4.631,4.304 4.303 C 4.613 3.994,4.464 4.006,7.932 4.003 L 11.004 4.000 10.985 5.970 M14.560 4.010 C 14.560 4.016,14.209 4.371,13.780 4.800 L 13.000 5.579 13.000 4.790 L 13.000 4.000 13.780 4.000 C 14.209 4.000,14.560 4.005,14.560 4.010 M19.310 4.061 C 19.453 4.103,19.571 4.178,19.699 4.306 C 19.801 4.407,19.875 4.498,19.864 4.509 C 19.854 4.519,19.779 4.506,19.698 4.479 C 19.530 4.424,19.350 4.444,19.132 4.543 C 19.031 4.589,17.978 5.612,15.990 7.596 L 13.000 10.579 13.000 9.500 L 13.000 8.422 14.936 6.481 C 16.809 4.603,17.040 4.344,17.040 4.128 C 17.040 4.087,17.052 4.041,17.067 4.027 C 17.081 4.012,17.546 4.000,18.099 4.000 C 18.884 4.000,19.151 4.013,19.310 4.061 M20.000 7.700 L 20.000 8.960 19.898 8.960 C 19.843 8.960,19.721 8.998,19.628 9.044 C 19.515 9.101,18.410 10.176,16.230 12.353 L 13.000 15.579 13.000 14.500 L 13.000 13.420 16.490 9.930 C 18.409 8.011,19.984 6.440,19.990 6.440 C 19.995 6.440,20.000 7.007,20.000 7.700 M20.000 12.700 L 20.000 13.960 19.898 13.960 C 19.843 13.960,19.721 13.998,19.628 14.044 C 19.421 14.147,14.163 19.391,14.057 19.600 C 14.018 19.677,13.975 19.794,13.962 19.860 L 13.937 19.980 13.468 19.991 L 13.000 20.003 13.000 19.211 L 13.000 18.420 16.490 14.930 C 18.409 13.011,19.984 11.440,19.990 11.440 C 19.995 11.440,20.000 12.007,20.000 12.700 M19.961 19.224 C 19.905 19.484,19.724 19.731,19.486 19.871 L 19.300 19.980 17.860 19.991 L 16.420 20.003 18.200 18.221 L 19.980 16.440 19.992 17.730 C 20.000 18.562,19.989 19.092,19.961 19.224 " stroke="none" fill="black" fill-rule="evenodd"></path></svg>