<svg xmlns="http://www.w3.org/2000/svg" width="24" height="24" viewBox="0 0 24 24" fill="none" stroke="currentColor" stroke-width="2" stroke-linecap="round" stroke-linejoin="round" class="icon icon-tabler icons-tabler-outline icon-tabler-column-remove"><path d="M5.477 3.073 C 4.806 3.249,4.238 3.823,4.060 4.508 C 4.008 4.707,4.000 5.691,4.000 12.000 C 4.000 19.922,3.987 19.460,4.225 19.930 C 4.361 20.199,4.801 20.639,5.070 20.775 C 5.509 20.997,5.545 21.000,8.000 21.000 C 10.455 21.000,10.491 20.997,10.930 20.775 C 11.196 20.640,11.638 20.200,11.771 19.937 C 12.014 19.459,12.000 19.929,11.999 12.014 C 11.999 4.156,12.009 4.532,11.781 4.083 C 11.646 3.816,11.297 3.449,11.017 3.281 C 10.564 3.008,10.524 3.005,8.000 3.005 C 5.992 3.005,5.711 3.012,5.477 3.073 M10.000 12.000 L 10.000 19.000 8.000 19.000 L 6.000 19.000 6.000 12.000 L 6.000 5.000 8.000 5.000 L 10.000 5.000 10.000 12.000 M15.626 9.045 C 15.257 9.239,14.951 9.673,14.951 10.000 C 14.951 10.307,15.079 10.487,15.853 11.270 L 16.575 12.000 15.853 12.730 C 15.079 13.513,14.951 13.693,14.951 14.000 C 14.951 14.477,15.523 15.049,16.000 15.049 C 16.307 15.049,16.487 14.921,17.270 14.147 L 18.000 13.425 18.730 14.147 C 19.513 14.921,19.693 15.049,20.000 15.049 C 20.477 15.049,21.049 14.477,21.049 14.000 C 21.049 13.693,20.921 13.513,20.147 12.730 L 19.425 12.000 20.147 11.270 C 20.580 10.832,20.905 10.469,20.959 10.363 C 21.137 10.012,21.048 9.646,20.701 9.299 C 20.360 8.958,19.979 8.868,19.628 9.045 C 19.533 9.094,19.144 9.444,18.730 9.853 L 18.000 10.575 17.270 9.853 C 16.856 9.444,16.467 9.094,16.372 9.045 C 16.152 8.934,15.836 8.934,15.626 9.045 " stroke="none" fill="black" fill-rule="evenodd"></path></svg>