<svg xmlns="http://www.w3.org/2000/svg" width="24" height="24" viewBox="0 0 24 24" fill="none" stroke="currentColor" stroke-width="2" stroke-linecap="round" stroke-linejoin="round" class="icon icon-tabler icons-tabler-outline icon-tabler-brand-sass"><path d="M11.080 2.045 C 9.507 2.184,7.883 2.751,6.540 3.630 C 5.905 4.045,5.499 4.378,4.919 4.958 C 2.953 6.926,1.919 9.544,2.013 12.320 C 2.084 14.439,2.752 16.328,4.033 18.040 C 4.430 18.570,5.305 19.464,5.800 19.847 C 7.242 20.961,8.787 21.624,10.600 21.907 C 11.247 22.008,12.753 22.008,13.400 21.907 C 15.638 21.557,17.504 20.620,19.062 19.062 C 20.620 17.504,21.557 15.638,21.907 13.400 C 22.008 12.753,22.008 11.247,21.907 10.600 C 21.624 8.786,20.959 7.238,19.847 5.800 C 19.510 5.365,18.639 4.494,18.200 4.154 C 16.133 2.555,13.646 1.818,11.080 2.045 M12.734 4.041 C 14.574 4.216,16.228 4.976,17.554 6.256 C 20.043 8.658,20.702 12.394,19.183 15.499 C 18.749 16.387,18.223 17.105,17.496 17.801 C 16.876 18.394,16.262 18.819,15.471 19.200 C 13.267 20.265,10.733 20.265,8.529 19.200 C 7.477 18.693,6.612 18.015,5.847 17.100 C 3.848 14.711,3.440 11.302,4.816 8.500 C 6.162 5.760,8.867 4.049,11.920 4.005 C 12.129 4.003,12.495 4.019,12.734 4.041 M12.580 6.026 C 10.856 6.166,9.675 6.612,8.552 7.547 C 7.778 8.191,7.340 8.842,7.113 9.683 C 6.993 10.128,6.983 11.000,7.093 11.400 C 7.277 12.066,7.663 12.630,8.240 13.080 C 8.423 13.223,8.619 13.378,8.675 13.425 L 8.777 13.511 8.639 13.624 C 8.003 14.143,7.544 14.928,7.436 15.683 C 7.317 16.514,7.696 17.271,8.420 17.647 C 8.916 17.905,9.230 17.980,9.800 17.978 C 10.234 17.976,10.340 17.962,10.604 17.870 C 11.036 17.720,11.378 17.506,11.679 17.199 C 11.996 16.875,12.170 16.592,12.334 16.130 C 12.452 15.800,12.459 15.747,12.459 15.195 L 12.460 14.611 12.604 14.661 C 13.027 14.811,13.337 15.045,13.382 15.250 C 13.404 15.351,13.385 15.393,13.248 15.534 C 13.036 15.755,12.960 15.917,12.960 16.148 C 12.961 16.401,13.099 16.690,13.334 16.932 C 13.649 17.256,13.964 17.322,14.340 17.145 C 15.102 16.786,15.545 15.778,15.342 14.865 C 15.127 13.895,14.395 13.160,13.263 12.774 C 12.749 12.599,12.361 12.550,11.616 12.566 L 10.932 12.580 10.319 12.140 C 9.225 11.355,9.070 11.192,9.017 10.771 C 8.934 10.105,9.278 9.490,10.057 8.910 C 10.776 8.376,11.573 8.115,12.743 8.033 C 13.536 7.977,14.601 8.029,14.856 8.136 C 14.995 8.194,15.004 8.208,14.992 8.348 C 14.981 8.486,14.962 8.507,14.760 8.607 C 14.550 8.710,14.039 8.873,12.540 9.313 C 11.591 9.592,11.420 9.663,11.220 9.854 C 10.994 10.071,10.934 10.280,11.000 10.617 C 11.087 11.058,11.302 11.370,11.609 11.498 C 11.812 11.583,11.936 11.576,12.325 11.460 C 12.509 11.405,13.182 11.209,13.820 11.023 C 15.117 10.646,15.627 10.453,15.999 10.201 C 16.641 9.765,16.942 9.246,16.987 8.500 C 17.056 7.333,16.400 6.462,15.228 6.162 C 15.059 6.119,14.709 6.065,14.450 6.042 C 14.018 6.004,12.963 5.995,12.580 6.026 M10.442 15.025 C 10.585 15.460,10.284 15.949,9.848 15.990 C 9.630 16.010,9.440 15.949,9.440 15.859 C 9.440 15.765,9.585 15.500,9.723 15.342 C 9.841 15.208,10.294 14.880,10.361 14.880 C 10.379 14.880,10.415 14.945,10.442 15.025 " stroke="none" fill="black" fill-rule="evenodd"></path></svg>