<svg xmlns="http://www.w3.org/2000/svg" width="24" height="24" viewBox="0 0 24 24" fill="none" stroke="currentColor" stroke-width="2" stroke-linecap="round" stroke-linejoin="round" class="icon icon-tabler icons-tabler-outline icon-tabler-list-check"><path d="M7.260 3.487 C 7.039 3.569,6.905 3.687,5.952 4.634 L 5.003 5.576 4.512 5.096 C 3.970 4.568,3.801 4.461,3.500 4.461 C 3.245 4.461,3.033 4.565,2.788 4.809 C 2.449 5.146,2.362 5.484,2.523 5.840 C 2.631 6.078,4.378 7.830,4.637 7.960 C 4.869 8.076,5.132 8.076,5.363 7.960 C 5.579 7.851,8.221 5.237,8.408 4.947 C 8.655 4.563,8.586 4.182,8.202 3.799 C 7.905 3.503,7.541 3.382,7.260 3.487 M10.614 5.057 C 10.377 5.131,10.212 5.261,10.109 5.453 C 10.035 5.592,10.020 5.684,10.020 6.000 C 10.020 6.331,10.033 6.403,10.120 6.558 C 10.230 6.755,10.414 6.898,10.635 6.959 C 10.834 7.014,20.166 7.014,20.365 6.959 C 20.586 6.898,20.770 6.755,20.880 6.558 C 20.967 6.402,20.980 6.332,20.979 6.000 C 20.978 5.567,20.898 5.355,20.678 5.199 C 20.392 4.995,20.526 5.000,15.484 5.003 C 11.740 5.005,10.746 5.016,10.614 5.057 M7.260 9.487 C 7.039 9.569,6.905 9.687,5.952 10.634 L 5.003 11.576 4.512 11.096 C 3.970 10.568,3.801 10.461,3.500 10.461 C 3.245 10.461,3.033 10.565,2.788 10.809 C 2.449 11.146,2.362 11.484,2.523 11.840 C 2.631 12.078,4.378 13.830,4.637 13.960 C 4.869 14.076,5.132 14.076,5.363 13.960 C 5.579 13.851,8.221 11.237,8.408 10.947 C 8.655 10.563,8.586 10.182,8.202 9.799 C 7.905 9.503,7.541 9.382,7.260 9.487 M10.614 11.057 C 10.377 11.131,10.212 11.261,10.109 11.453 C 10.035 11.592,10.020 11.684,10.020 12.000 C 10.020 12.331,10.033 12.403,10.120 12.558 C 10.230 12.755,10.414 12.898,10.635 12.959 C 10.834 13.014,20.166 13.014,20.365 12.959 C 20.586 12.898,20.770 12.755,20.880 12.558 C 20.967 12.402,20.980 12.332,20.979 12.000 C 20.978 11.567,20.898 11.355,20.678 11.199 C 20.392 10.995,20.526 11.000,15.484 11.003 C 11.740 11.005,10.746 11.016,10.614 11.057 M7.260 15.487 C 7.039 15.569,6.905 15.687,5.952 16.634 L 5.003 17.576 4.512 17.096 C 3.970 16.568,3.801 16.461,3.500 16.461 C 3.245 16.461,3.033 16.565,2.788 16.809 C 2.449 17.146,2.362 17.484,2.523 17.840 C 2.631 18.078,4.378 19.830,4.637 19.960 C 4.869 20.076,5.132 20.076,5.363 19.960 C 5.579 19.851,8.221 17.237,8.408 16.947 C 8.655 16.563,8.586 16.182,8.202 15.799 C 7.905 15.503,7.541 15.382,7.260 15.487 M10.614 17.057 C 10.377 17.131,10.212 17.261,10.109 17.453 C 10.035 17.592,10.020 17.684,10.020 18.000 C 10.020 18.331,10.033 18.403,10.120 18.558 C 10.230 18.755,10.414 18.898,10.635 18.959 C 10.834 19.014,20.166 19.014,20.365 18.959 C 20.586 18.898,20.770 18.755,20.880 18.558 C 20.967 18.402,20.980 18.332,20.979 18.000 C 20.978 17.567,20.898 17.355,20.678 17.199 C 20.392 16.995,20.526 17.000,15.484 17.003 C 11.740 17.005,10.746 17.016,10.614 17.057 " stroke="none" fill="black" fill-rule="evenodd"></path></svg>