<svg xmlns="http://www.w3.org/2000/svg" width="24" height="24" viewBox="0 0 24 24" fill="none" stroke="currentColor" stroke-width="2" stroke-linecap="round" stroke-linejoin="round" class="icon icon-tabler icons-tabler-outline icon-tabler-webhook"><path d="M11.400 3.044 C 9.761 3.229,8.261 4.290,7.526 5.785 C 7.205 6.437,7.044 7.068,7.011 7.800 C 6.947 9.214,7.475 10.595,8.455 11.575 L 8.689 11.809 8.609 11.955 C 7.660 13.672,6.087 16.589,6.029 16.740 C 5.870 17.152,5.992 17.512,6.380 17.780 C 6.922 18.153,7.433 18.115,7.745 17.677 C 7.860 17.515,10.580 12.557,10.879 11.962 C 11.050 11.623,11.082 11.318,10.969 11.098 C 10.870 10.904,10.788 10.830,10.380 10.558 C 9.613 10.047,9.158 9.321,9.037 8.415 C 8.840 6.936,9.721 5.557,11.139 5.125 C 11.412 5.042,11.542 5.027,12.000 5.027 C 12.458 5.027,12.588 5.042,12.861 5.125 C 13.815 5.416,14.598 6.199,14.869 7.134 C 14.921 7.315,14.975 7.652,14.995 7.922 C 15.023 8.299,15.049 8.428,15.125 8.565 C 15.286 8.856,15.575 9.000,16.000 9.000 C 16.428 9.000,16.713 8.856,16.880 8.558 C 16.972 8.394,16.980 8.340,16.979 7.880 C 16.977 6.079,15.887 4.362,14.213 3.525 C 13.352 3.095,12.397 2.932,11.400 3.044 M11.714 7.034 C 11.463 7.135,11.201 7.330,11.084 7.501 C 10.968 7.671,10.932 7.970,11.000 8.185 C 11.027 8.270,11.753 9.635,12.614 11.219 C 14.302 14.321,14.369 14.427,14.715 14.519 C 14.944 14.580,15.132 14.544,15.488 14.372 C 15.922 14.162,16.152 14.092,16.575 14.039 C 17.588 13.911,18.483 14.231,19.187 14.971 C 19.916 15.739,20.171 16.863,19.852 17.900 C 19.586 18.761,18.802 19.562,17.960 19.832 C 17.533 19.969,17.224 20.012,16.829 19.989 C 16.417 19.966,16.079 19.871,15.548 19.633 C 14.991 19.382,14.697 19.414,14.382 19.763 C 14.072 20.106,13.942 20.616,14.092 20.902 C 14.253 21.210,14.744 21.515,15.462 21.756 C 16.436 22.082,17.569 22.075,18.600 21.735 C 20.045 21.259,21.266 20.033,21.737 18.586 C 21.931 17.989,21.980 17.666,21.979 16.980 C 21.978 16.118,21.830 15.498,21.439 14.719 C 20.765 13.375,19.389 12.349,17.900 12.082 C 17.251 11.965,16.370 11.994,15.733 12.154 L 15.446 12.225 14.160 9.867 C 13.452 8.569,12.828 7.440,12.773 7.357 C 12.539 7.003,12.114 6.873,11.714 7.034 M4.660 12.609 C 4.157 12.786,3.157 13.694,2.769 14.325 C 2.509 14.748,2.282 15.296,2.140 15.844 C 1.983 16.448,1.957 17.292,2.078 17.875 C 2.419 19.529,3.334 20.746,4.783 21.474 C 5.924 22.048,7.170 22.153,8.448 21.782 C 9.249 21.550,9.886 21.164,10.522 20.524 C 10.969 20.074,11.320 19.586,11.541 19.104 C 11.685 18.791,11.880 18.200,11.880 18.078 C 11.880 18.001,11.930 18.000,14.550 18.000 C 16.215 18.000,17.274 17.984,17.365 17.959 C 17.586 17.898,17.770 17.755,17.880 17.558 C 17.967 17.402,17.980 17.332,17.979 17.000 C 17.978 16.685,17.963 16.591,17.888 16.450 C 17.784 16.253,17.576 16.103,17.320 16.041 C 17.195 16.010,16.152 16.000,13.877 16.008 L 10.614 16.020 10.417 16.142 C 10.120 16.325,10.038 16.505,9.996 17.063 C 9.978 17.314,9.934 17.632,9.898 17.770 C 9.645 18.760,8.781 19.629,7.780 19.899 C 7.408 20.000,6.755 20.021,6.425 19.944 C 5.157 19.645,4.305 18.782,4.054 17.543 C 3.928 16.922,4.068 16.078,4.388 15.520 C 4.573 15.198,4.902 14.824,5.162 14.640 C 5.548 14.367,5.831 14.088,5.883 13.931 C 5.990 13.608,5.840 13.162,5.515 12.833 C 5.264 12.580,4.965 12.501,4.660 12.609 " stroke="none" fill="black" fill-rule="evenodd"></path></svg>