<svg xmlns="http://www.w3.org/2000/svg" width="24" height="24" viewBox="0 0 24 24" fill="none" stroke="currentColor" stroke-width="2" stroke-linecap="round" stroke-linejoin="round" class="icon icon-tabler icons-tabler-outline icon-tabler-inner-shadow-left"><path d="M11.080 2.045 C 9.508 2.184,7.887 2.749,6.540 3.629 C 5.905 4.044,5.499 4.376,4.919 4.958 C 3.608 6.272,2.724 7.844,2.285 9.645 C 2.071 10.521,2.022 10.962,2.022 12.000 C 2.022 13.038,2.071 13.479,2.285 14.355 C 2.727 16.167,3.610 17.732,4.939 19.061 C 6.490 20.613,8.383 21.564,10.600 21.907 C 11.245 22.007,12.755 22.007,13.400 21.907 C 15.616 21.565,17.511 20.612,19.061 19.061 C 20.389 17.734,21.274 16.165,21.715 14.355 C 21.930 13.475,21.979 13.038,21.978 12.000 C 21.977 10.961,21.927 10.513,21.715 9.645 C 20.539 4.825,16.035 1.606,11.080 2.045 M12.734 4.041 C 14.572 4.216,16.230 4.977,17.554 6.256 C 19.754 8.379,20.550 11.592,19.596 14.497 C 19.294 15.417,18.770 16.363,18.153 17.100 C 17.388 18.015,16.523 18.693,15.471 19.200 C 13.267 20.265,10.733 20.265,8.529 19.200 C 7.477 18.693,6.612 18.015,5.847 17.100 C 4.102 15.014,3.550 12.104,4.404 9.503 C 4.800 8.296,5.523 7.146,6.446 6.256 C 8.133 4.627,10.420 3.822,12.734 4.041 M7.400 6.789 C 7.225 6.872,6.753 7.348,6.445 7.754 C 5.683 8.755,5.227 9.867,5.062 11.132 C 4.790 13.206,5.511 15.365,6.970 16.850 C 7.129 17.012,7.330 17.178,7.416 17.217 C 7.755 17.374,8.126 17.276,8.461 16.941 C 8.692 16.710,8.800 16.490,8.799 16.252 C 8.798 15.993,8.696 15.790,8.413 15.480 C 8.049 15.081,7.826 14.771,7.606 14.358 C 7.264 13.716,7.111 13.212,7.034 12.470 C 6.885 11.039,7.363 9.670,8.413 8.520 C 8.544 8.377,8.684 8.188,8.725 8.100 C 8.824 7.885,8.821 7.597,8.717 7.395 C 8.611 7.187,8.333 6.909,8.125 6.803 C 7.926 6.701,7.597 6.695,7.400 6.789 " stroke="none" fill="black" fill-rule="evenodd"></path></svg>