<svg xmlns="http://www.w3.org/2000/svg" width="24" height="24" viewBox="0 0 24 24" fill="none" stroke="currentColor" stroke-width="2" stroke-linecap="round" stroke-linejoin="round" class="icon icon-tabler icons-tabler-outline icon-tabler-row-insert-top"><path d="M11.614 4.057 C 11.377 4.131,11.212 4.261,11.109 4.453 C 11.029 4.603,11.019 4.689,11.007 5.310 L 10.993 6.000 10.403 6.000 C 9.577 6.000,9.299 6.097,9.109 6.453 C 9.035 6.592,9.020 6.684,9.020 7.000 C 9.020 7.331,9.033 7.403,9.120 7.558 C 9.230 7.755,9.414 7.898,9.635 7.959 C 9.715 7.981,10.055 8.000,10.390 8.000 L 11.000 8.000 11.000 8.610 C 11.000 8.945,11.019 9.285,11.041 9.365 C 11.148 9.750,11.437 9.962,11.896 9.991 C 12.381 10.022,12.699 9.882,12.880 9.558 C 12.974 9.391,12.981 9.338,12.994 8.690 L 13.008 8.000 13.614 8.000 C 13.947 8.000,14.285 7.981,14.365 7.959 C 14.586 7.898,14.770 7.755,14.880 7.558 C 14.967 7.402,14.980 7.332,14.979 7.000 C 14.978 6.687,14.962 6.591,14.890 6.453 C 14.702 6.098,14.423 6.000,13.598 6.000 L 13.008 6.000 12.993 5.310 C 12.976 4.541,12.930 4.378,12.678 4.199 C 12.414 4.010,11.957 3.950,11.614 4.057 M4.477 12.073 C 3.806 12.249,3.238 12.823,3.060 13.508 C 3.010 13.698,3.000 14.123,3.000 16.000 C 3.000 18.455,3.003 18.491,3.225 18.930 C 3.361 19.199,3.801 19.639,4.070 19.775 C 4.540 20.013,4.078 20.000,12.000 20.000 C 19.922 20.000,19.460 20.013,19.930 19.775 C 20.196 19.640,20.638 19.200,20.771 18.937 C 20.996 18.494,21.000 18.442,20.999 16.014 C 20.999 13.601,20.991 13.496,20.781 13.083 C 20.646 12.816,20.297 12.449,20.017 12.281 C 19.525 11.985,20.100 12.005,12.000 12.005 C 5.266 12.005,4.721 12.010,4.477 12.073 M19.000 16.000 L 19.000 18.000 12.000 18.000 L 5.000 18.000 5.000 16.000 L 5.000 14.000 12.000 14.000 L 19.000 14.000 19.000 16.000 " stroke="none" fill="black" fill-rule="evenodd"></path></svg>