<svg xmlns="http://www.w3.org/2000/svg" width="24" height="24" viewBox="0 0 24 24" fill="none" stroke="currentColor" stroke-width="2" stroke-linecap="round" stroke-linejoin="round" class="icon icon-tabler icons-tabler-outline icon-tabler-camera-off"><path d="M2.626 2.045 C 2.257 2.239,1.951 2.673,1.951 3.000 C 1.951 3.334,2.056 3.466,3.364 4.781 L 4.598 6.021 4.277 6.093 C 3.289 6.315,2.435 7.132,2.114 8.160 L 2.020 8.460 2.020 13.500 L 2.020 18.540 2.114 18.840 C 2.418 19.816,3.149 20.554,4.140 20.886 L 4.420 20.980 11.996 20.989 L 19.572 20.999 20.018 21.434 C 20.263 21.674,20.543 21.910,20.639 21.960 C 20.988 22.137,21.354 22.048,21.701 21.701 C 22.116 21.286,22.159 20.869,21.832 20.440 C 21.762 20.348,9.891 8.459,5.460 4.043 C 4.209 2.796,3.481 2.100,3.372 2.045 C 3.152 1.934,2.835 1.934,2.626 2.045 M8.480 3.073 C 7.826 3.244,7.242 3.818,7.240 4.290 C 7.240 4.605,7.596 5.093,7.952 5.264 C 8.244 5.405,8.681 5.322,8.896 5.084 C 8.972 5.000,8.973 5.000,11.981 5.000 L 14.989 5.000 15.016 5.302 C 15.123 6.480,15.970 7.509,17.140 7.881 C 17.381 7.958,17.548 7.974,18.340 7.997 C 19.377 8.028,19.448 8.044,19.717 8.321 C 20.014 8.628,20.000 8.391,20.000 13.057 C 20.000 15.723,20.015 17.272,20.041 17.365 C 20.148 17.750,20.437 17.962,20.896 17.991 C 21.381 18.022,21.699 17.882,21.880 17.558 L 21.980 17.380 21.980 12.920 L 21.980 8.460 21.886 8.160 C 21.580 7.179,20.817 6.413,19.861 6.126 C 19.578 6.041,19.431 6.027,18.620 6.005 C 17.714 5.980,17.697 5.978,17.516 5.872 C 17.197 5.684,17.001 5.340,16.999 4.965 C 16.999 4.713,16.901 4.319,16.781 4.083 C 16.646 3.816,16.297 3.449,16.017 3.281 C 15.548 2.999,15.636 3.005,12.000 3.005 C 9.061 3.005,8.714 3.011,8.480 3.073 M7.752 9.172 L 8.963 10.384 8.823 10.567 C 7.896 11.782,7.747 13.426,8.440 14.809 C 9.106 16.140,10.512 17.000,12.021 17.000 C 12.818 17.000,13.736 16.696,14.357 16.227 L 14.613 16.033 16.097 17.517 L 17.580 19.001 11.140 18.990 L 4.700 18.980 4.516 18.872 C 4.415 18.813,4.284 18.700,4.225 18.623 C 3.989 18.314,4.000 18.562,4.000 13.522 C 4.000 8.339,3.984 8.630,4.283 8.321 C 4.551 8.045,4.633 8.025,5.560 7.999 C 6.011 7.986,6.416 7.972,6.460 7.968 C 6.517 7.962,6.893 8.312,7.752 9.172 M11.795 13.215 C 12.552 13.972,13.160 14.608,13.147 14.629 C 13.104 14.699,12.624 14.911,12.408 14.956 C 11.750 15.093,11.090 14.890,10.600 14.400 C 9.990 13.790,9.841 12.924,10.213 12.141 C 10.292 11.975,10.371 11.840,10.388 11.840 C 10.406 11.840,11.039 12.459,11.795 13.215 " stroke="none" fill="black" fill-rule="evenodd"></path></svg>