<svg xmlns="http://www.w3.org/2000/svg" width="24" height="24" viewBox="0 0 24 24" fill="none" stroke="currentColor" stroke-width="2" stroke-linecap="round" stroke-linejoin="round" class="icon icon-tabler icons-tabler-outline icon-tabler-printer"><path d="M8.499 2.042 C 7.387 2.233,6.482 3.030,6.116 4.140 C 6.026 4.413,6.023 4.467,6.009 6.205 L 5.995 7.991 5.227 8.010 C 4.567 8.027,4.415 8.043,4.139 8.126 C 3.181 8.415,2.420 9.179,2.114 10.160 L 2.020 10.460 2.020 13.000 L 2.020 15.540 2.114 15.840 C 2.419 16.818,3.166 17.570,4.140 17.882 C 4.379 17.958,4.536 17.974,5.205 17.990 L 5.991 18.009 6.010 18.795 C 6.026 19.464,6.042 19.621,6.118 19.860 C 6.430 20.834,7.182 21.581,8.160 21.886 L 8.460 21.980 12.000 21.980 L 15.540 21.980 15.840 21.886 C 16.818 21.581,17.570 20.834,17.882 19.860 C 17.958 19.621,17.974 19.464,17.990 18.795 L 18.009 18.009 18.795 17.990 C 19.464 17.974,19.621 17.958,19.860 17.882 C 20.834 17.570,21.581 16.818,21.886 15.840 L 21.980 15.540 21.980 13.000 L 21.980 10.460 21.886 10.160 C 21.580 9.179,20.819 8.415,19.861 8.126 C 19.585 8.043,19.433 8.027,18.773 8.010 L 18.005 7.991 17.991 6.205 C 17.977 4.467,17.974 4.413,17.884 4.140 C 17.562 3.163,16.820 2.424,15.861 2.122 L 15.540 2.021 12.120 2.014 C 10.239 2.011,8.609 2.023,8.499 2.042 M15.310 4.061 C 15.452 4.103,15.571 4.178,15.697 4.303 C 15.993 4.599,16.000 4.650,16.000 6.447 L 16.000 8.000 12.000 8.000 L 8.000 8.000 8.000 6.447 C 8.000 4.649,8.007 4.599,8.304 4.303 C 8.613 3.993,8.459 4.006,11.983 4.003 C 14.668 4.000,15.134 4.009,15.310 4.061 M19.310 10.061 C 19.589 10.144,19.856 10.411,19.939 10.690 C 20.025 10.978,20.030 15.007,19.945 15.290 C 19.872 15.533,19.707 15.740,19.484 15.872 C 19.308 15.975,19.272 15.981,18.655 15.993 L 18.009 16.007 17.990 15.213 C 17.974 14.536,17.958 14.379,17.882 14.140 C 17.569 13.161,16.783 12.387,15.822 12.112 L 15.500 12.020 12.000 12.020 L 8.500 12.020 8.178 12.112 C 7.217 12.387,6.431 13.161,6.118 14.140 C 6.042 14.379,6.026 14.536,6.010 15.213 L 5.991 16.007 5.345 15.993 C 4.728 15.981,4.692 15.975,4.516 15.872 C 4.303 15.747,4.141 15.550,4.058 15.316 C 3.970 15.065,3.972 10.988,4.061 10.690 C 4.140 10.421,4.412 10.143,4.673 10.063 C 4.964 9.974,19.009 9.971,19.310 10.061 M15.310 14.061 C 15.589 14.144,15.856 14.411,15.939 14.690 C 16.025 14.978,16.030 19.007,15.945 19.290 C 15.872 19.533,15.707 19.740,15.484 19.872 L 15.300 19.980 12.000 19.980 L 8.700 19.980 8.516 19.872 C 8.303 19.747,8.141 19.550,8.058 19.316 C 7.970 19.065,7.972 14.988,8.061 14.690 C 8.140 14.421,8.412 14.143,8.673 14.063 C 8.961 13.975,15.013 13.972,15.310 14.061 " stroke="none" fill="black" fill-rule="evenodd"></path></svg>