<svg xmlns="http://www.w3.org/2000/svg" width="24" height="24" viewBox="0 0 24 24" fill="none" stroke="currentColor" stroke-width="2" stroke-linecap="round" stroke-linejoin="round" class="icon icon-tabler icons-tabler-outline icon-tabler-brand-ycombinator"><path d="M5.499 3.043 C 4.380 3.233,3.461 4.048,3.114 5.160 L 3.020 5.460 3.020 12.000 L 3.020 18.540 3.114 18.840 C 3.422 19.827,4.173 20.578,5.160 20.886 L 5.460 20.980 12.000 20.980 L 18.540 20.980 18.840 20.886 C 19.827 20.578,20.578 19.827,20.886 18.840 L 20.980 18.540 20.980 12.000 L 20.980 5.460 20.886 5.160 C 20.581 4.182,19.832 3.428,18.861 3.121 L 18.540 3.020 12.120 3.014 C 8.589 3.011,5.609 3.024,5.499 3.043 M18.310 5.061 C 18.589 5.144,18.856 5.411,18.939 5.690 C 18.992 5.869,19.000 6.651,19.000 12.001 C 19.000 17.059,18.991 18.139,18.945 18.290 C 18.872 18.533,18.707 18.740,18.484 18.872 L 18.300 18.980 12.000 18.980 L 5.700 18.980 5.516 18.872 C 5.303 18.747,5.141 18.550,5.058 18.316 C 4.968 18.060,4.971 5.993,5.061 5.690 C 5.140 5.421,5.412 5.143,5.673 5.063 C 5.963 4.974,18.010 4.972,18.310 5.061 M7.652 6.058 C 7.402 6.174,7.111 6.433,7.024 6.618 C 6.939 6.796,6.944 7.102,7.035 7.301 C 7.075 7.390,7.984 8.776,9.054 10.381 L 11.000 13.300 11.000 15.260 C 11.000 16.450,11.016 17.277,11.041 17.365 C 11.148 17.750,11.437 17.962,11.896 17.991 C 12.381 18.022,12.699 17.882,12.880 17.558 L 12.980 17.380 13.000 15.320 L 13.020 13.260 14.956 10.362 C 16.020 8.768,16.924 7.391,16.965 7.302 C 17.056 7.102,17.061 6.796,16.976 6.618 C 16.889 6.433,16.598 6.174,16.348 6.058 C 15.960 5.877,15.600 5.951,15.317 6.268 C 15.242 6.353,14.471 7.489,13.604 8.791 C 12.737 10.094,12.015 11.160,12.000 11.160 C 11.985 11.160,11.263 10.094,10.396 8.791 C 9.529 7.489,8.758 6.353,8.683 6.268 C 8.400 5.951,8.040 5.877,7.652 6.058 " stroke="none" fill="black" fill-rule="evenodd"></path></svg>