<svg xmlns="http://www.w3.org/2000/svg" width="24" height="24" viewBox="0 0 24 24" fill="none" stroke="currentColor" stroke-width="2" stroke-linecap="round" stroke-linejoin="round" class="icon icon-tabler icons-tabler-outline icon-tabler-carousel-vertical"><path d="M6.614 1.057 C 6.377 1.131,6.212 1.261,6.109 1.453 C 6.027 1.607,6.019 1.684,6.007 2.409 C 5.993 3.284,6.020 3.494,6.202 3.877 C 6.348 4.186,6.771 4.623,7.070 4.775 C 7.529 5.008,7.360 5.000,12.000 5.000 C 16.640 5.000,16.471 5.008,16.930 4.775 C 17.196 4.640,17.638 4.200,17.771 3.937 C 17.973 3.539,18.008 3.298,17.993 2.421 C 17.980 1.682,17.972 1.607,17.889 1.450 C 17.724 1.141,17.329 0.970,16.874 1.011 C 16.439 1.051,16.141 1.274,16.041 1.635 C 16.019 1.715,16.000 2.054,16.000 2.390 L 16.000 3.000 12.004 3.000 L 8.008 3.000 7.993 2.310 C 7.976 1.541,7.930 1.378,7.678 1.199 C 7.414 1.010,6.957 0.950,6.614 1.057 M5.477 6.073 C 4.806 6.249,4.238 6.823,4.060 7.508 C 4.009 7.704,4.000 8.350,4.000 12.000 C 4.000 16.640,3.992 16.471,4.225 16.930 C 4.361 17.199,4.801 17.639,5.070 17.775 C 5.538 18.012,5.172 18.000,12.000 18.000 C 18.828 18.000,18.462 18.012,18.930 17.775 C 19.196 17.640,19.638 17.200,19.771 16.937 C 20.008 16.471,20.000 16.634,19.999 12.014 C 19.999 7.426,20.003 7.520,19.781 7.083 C 19.646 6.816,19.297 6.449,19.017 6.281 C 18.528 5.987,18.983 6.005,12.000 6.005 C 6.211 6.005,5.720 6.010,5.477 6.073 M18.000 12.000 L 18.000 16.000 12.000 16.000 L 6.000 16.000 6.000 12.000 L 6.000 8.000 12.000 8.000 L 18.000 8.000 18.000 12.000 M7.477 19.073 C 6.806 19.249,6.238 19.823,6.060 20.508 C 5.990 20.777,5.976 22.131,6.041 22.365 C 6.148 22.750,6.437 22.962,6.896 22.991 C 7.381 23.022,7.699 22.882,7.880 22.558 C 7.974 22.391,7.981 22.338,7.994 21.690 L 8.008 21.000 12.004 21.000 L 16.000 21.000 16.000 21.610 C 16.000 21.946,16.019 22.285,16.041 22.365 C 16.148 22.750,16.437 22.962,16.896 22.991 C 17.381 23.022,17.699 22.882,17.880 22.558 C 17.976 22.388,17.981 22.345,17.993 21.600 C 18.008 20.743,17.967 20.449,17.782 20.083 C 17.646 19.816,17.297 19.449,17.017 19.281 C 16.539 18.993,16.751 19.005,12.000 19.005 C 8.102 19.005,7.718 19.010,7.477 19.073 " stroke="none" fill="black" fill-rule="evenodd"></path></svg>