<svg xmlns="http://www.w3.org/2000/svg" width="24" height="24" viewBox="0 0 24 24" fill="none" stroke="currentColor" stroke-width="2" stroke-linecap="round" stroke-linejoin="round" class="icon icon-tabler icons-tabler-outline icon-tabler-border-sides"><path d="M7.614 3.057 C 7.377 3.131,7.212 3.261,7.109 3.453 C 7.035 3.592,7.020 3.684,7.020 4.000 C 7.020 4.331,7.033 4.403,7.120 4.558 C 7.230 4.755,7.414 4.898,7.635 4.959 C 7.833 5.014,16.167 5.014,16.365 4.959 C 16.586 4.898,16.770 4.755,16.880 4.558 C 16.967 4.402,16.980 4.332,16.979 4.000 C 16.978 3.567,16.898 3.355,16.678 3.199 C 16.393 2.996,16.487 3.000,11.984 3.003 C 8.651 3.005,7.746 3.016,7.614 3.057 M3.614 7.057 C 3.377 7.131,3.212 7.261,3.109 7.453 L 3.020 7.620 3.009 11.913 C 3.002 14.727,3.013 16.258,3.039 16.357 C 3.144 16.747,3.434 16.961,3.896 16.991 C 4.381 17.022,4.699 16.882,4.880 16.558 L 4.980 16.380 4.980 12.000 L 4.980 7.620 4.891 7.453 C 4.842 7.362,4.746 7.247,4.678 7.199 C 4.414 7.010,3.957 6.950,3.614 7.057 M19.614 7.057 C 19.377 7.131,19.212 7.261,19.109 7.453 L 19.020 7.620 19.009 11.913 C 19.002 14.727,19.013 16.258,19.039 16.357 C 19.144 16.747,19.434 16.961,19.896 16.991 C 20.381 17.022,20.699 16.882,20.880 16.558 L 20.980 16.380 20.980 12.000 L 20.980 7.620 20.891 7.453 C 20.842 7.362,20.746 7.247,20.678 7.199 C 20.414 7.010,19.957 6.950,19.614 7.057 M7.614 19.057 C 7.377 19.131,7.212 19.261,7.109 19.453 C 7.035 19.592,7.020 19.684,7.020 20.000 C 7.020 20.331,7.033 20.403,7.120 20.558 C 7.230 20.755,7.414 20.898,7.635 20.959 C 7.833 21.014,16.167 21.014,16.365 20.959 C 16.586 20.898,16.770 20.755,16.880 20.558 C 16.967 20.402,16.980 20.332,16.979 20.000 C 16.978 19.567,16.898 19.355,16.678 19.199 C 16.393 18.996,16.487 19.000,11.984 19.003 C 8.651 19.005,7.746 19.016,7.614 19.057 " stroke="none" fill="black" fill-rule="evenodd"></path></svg>