<svg xmlns="http://www.w3.org/2000/svg" width="24" height="24" viewBox="0 0 24 24" fill="none" stroke="currentColor" stroke-width="2" stroke-linecap="round" stroke-linejoin="round" class="icon icon-tabler icons-tabler-outline icon-tabler-folder-open"><path d="M4.499 3.043 C 3.383 3.230,2.461 4.048,2.114 5.160 L 2.020 5.460 2.020 11.500 L 2.020 17.540 2.114 17.840 C 2.460 18.950,3.389 19.777,4.497 19.961 C 4.655 19.987,7.307 20.001,12.036 20.000 C 18.494 19.998,19.367 19.991,19.636 19.936 C 20.236 19.812,20.691 19.558,21.161 19.084 C 21.527 18.714,21.727 18.388,21.875 17.920 C 21.999 17.529,23.000 12.231,23.000 11.966 C 23.000 11.368,22.645 10.701,22.146 10.358 L 22.008 10.264 21.990 9.342 C 21.975 8.524,21.962 8.388,21.882 8.140 C 21.570 7.171,20.822 6.424,19.861 6.122 L 19.540 6.021 15.980 6.009 L 12.421 5.997 10.980 4.563 C 9.613 3.200,9.529 3.125,9.323 3.064 C 9.134 3.008,8.816 3.001,6.903 3.005 C 5.691 3.007,4.609 3.025,4.499 3.043 M9.960 6.383 C 10.719 7.143,11.421 7.814,11.520 7.873 L 11.700 7.980 15.480 8.000 C 19.716 8.022,19.404 7.999,19.717 8.321 C 19.947 8.559,20.000 8.769,20.000 9.447 L 20.000 10.000 14.270 10.001 C 7.965 10.001,8.233 9.991,7.751 10.248 C 7.456 10.405,7.138 10.705,6.981 10.975 C 6.918 11.082,6.313 12.645,5.637 14.448 C 4.961 16.251,4.395 17.738,4.381 17.753 C 4.337 17.796,4.128 17.514,4.061 17.323 C 4.007 17.167,4.000 16.473,4.000 11.520 C 4.000 5.181,3.978 5.628,4.304 5.303 C 4.601 5.006,4.598 5.006,6.720 5.003 L 8.580 5.000 9.960 6.383 M20.980 12.090 C 20.969 12.139,20.744 13.314,20.480 14.700 C 20.217 16.086,19.973 17.296,19.938 17.389 C 19.856 17.607,19.540 17.893,19.312 17.955 C 19.183 17.991,17.562 18.000,12.796 17.991 L 6.453 17.980 7.574 14.990 L 8.695 12.000 14.848 12.000 L 21.002 12.000 20.980 12.090 " stroke="none" fill="black" fill-rule="evenodd"></path></svg>