<svg xmlns="http://www.w3.org/2000/svg" width="24" height="24" viewBox="0 0 24 24" fill="none" stroke="currentColor" stroke-width="2" stroke-linecap="round" stroke-linejoin="round" class="icon icon-tabler icons-tabler-outline icon-tabler-shield-check"><path d="M11.660 2.055 C 11.550 2.107,11.271 2.306,11.040 2.497 C 9.764 3.555,8.299 4.286,6.632 4.697 C 5.770 4.909,5.293 4.968,4.180 4.998 C 3.619 5.014,3.135 5.045,3.078 5.069 C 2.914 5.138,2.723 5.318,2.640 5.479 C 2.480 5.794,2.212 6.963,2.095 7.860 C 2.011 8.503,2.000 10.063,2.074 10.700 C 2.373 13.266,3.284 15.498,4.840 17.480 C 5.252 18.005,6.370 19.124,6.900 19.543 C 8.170 20.548,9.474 21.247,10.989 21.735 C 11.473 21.891,11.574 21.903,11.820 21.836 C 12.303 21.703,12.633 20.862,12.396 20.372 C 12.282 20.137,12.073 20.004,11.510 19.806 C 10.369 19.407,9.614 19.028,8.725 18.410 C 5.227 15.977,3.444 11.687,4.184 7.480 C 4.275 6.963,4.246 7.000,4.556 7.000 C 5.546 7.000,6.988 6.731,8.218 6.316 C 9.511 5.880,10.721 5.248,11.850 4.417 L 12.000 4.307 12.150 4.417 C 13.285 5.252,14.483 5.878,15.784 6.317 C 17.012 6.731,18.454 7.000,19.446 7.000 C 19.757 7.000,19.718 6.946,19.818 7.520 C 19.923 8.120,19.962 8.635,19.963 9.422 C 19.964 10.523,19.850 11.341,19.536 12.467 C 19.378 13.032,19.365 13.302,19.481 13.543 C 19.673 13.938,20.405 14.196,20.831 14.018 C 21.163 13.879,21.287 13.662,21.514 12.818 C 21.849 11.575,21.972 10.666,21.972 9.440 C 21.972 8.527,21.926 7.946,21.795 7.200 C 21.687 6.585,21.455 5.665,21.360 5.480 C 21.277 5.318,21.086 5.138,20.922 5.069 C 20.865 5.045,20.381 5.014,19.820 4.998 C 18.684 4.967,18.185 4.904,17.300 4.680 C 15.680 4.270,14.198 3.525,12.960 2.498 C 12.505 2.120,12.220 1.961,12.000 1.961 C 11.923 1.961,11.770 2.003,11.660 2.055 M20.620 16.046 C 20.525 16.095,19.753 16.834,18.731 17.853 L 17.001 19.577 16.271 18.854 C 15.856 18.444,15.467 18.094,15.372 18.045 C 15.021 17.868,14.640 17.958,14.299 18.299 C 13.952 18.646,13.863 19.010,14.040 19.363 C 14.162 19.607,16.393 21.838,16.637 21.960 C 16.868 22.076,17.132 22.076,17.363 21.961 C 17.486 21.899,18.197 21.215,19.706 19.706 C 21.215 18.197,21.899 17.486,21.961 17.363 C 22.137 17.010,22.048 16.645,21.701 16.299 C 21.361 15.959,20.967 15.867,20.620 16.046 " stroke="none" fill="black" fill-rule="evenodd"></path></svg>