<svg xmlns="http://www.w3.org/2000/svg" width="24" height="24" viewBox="0 0 24 24" fill="none" stroke="currentColor" stroke-width="2" stroke-linecap="round" stroke-linejoin="round" class="icon icon-tabler icons-tabler-outline icon-tabler-camera-share"><path d="M8.477 3.073 C 7.806 3.249,7.238 3.823,7.060 4.508 C 7.027 4.634,7.000 4.820,7.000 4.922 C 7.000 5.332,6.811 5.680,6.484 5.872 C 6.303 5.978,6.286 5.980,5.380 6.005 C 4.569 6.027,4.422 6.041,4.139 6.126 C 3.183 6.413,2.420 7.179,2.114 8.160 L 2.020 8.460 2.020 13.500 L 2.020 18.540 2.114 18.840 C 2.418 19.816,3.149 20.554,4.140 20.886 L 4.420 20.980 8.520 20.993 C 11.508 21.002,12.678 20.993,12.833 20.959 C 13.261 20.866,13.486 20.537,13.486 20.003 C 13.486 19.656,13.418 19.446,13.248 19.267 C 12.999 19.006,13.273 19.022,8.780 19.000 L 4.700 18.980 4.516 18.872 C 4.415 18.813,4.284 18.700,4.225 18.623 C 3.989 18.314,4.000 18.562,4.000 13.522 C 4.000 8.339,3.984 8.630,4.283 8.321 C 4.552 8.044,4.623 8.028,5.660 7.997 C 6.452 7.974,6.619 7.958,6.860 7.881 C 8.030 7.509,8.877 6.480,8.984 5.302 L 9.011 5.000 12.000 5.000 L 14.989 5.000 15.016 5.302 C 15.123 6.480,15.970 7.509,17.140 7.881 C 17.381 7.958,17.548 7.974,18.340 7.997 C 19.377 8.028,19.448 8.044,19.717 8.321 C 20.000 8.614,20.000 8.610,20.000 11.057 C 20.000 12.383,20.016 13.276,20.041 13.365 C 20.148 13.750,20.437 13.962,20.896 13.991 C 21.381 14.022,21.699 13.882,21.880 13.558 L 21.980 13.380 21.980 10.920 L 21.980 8.460 21.886 8.160 C 21.580 7.179,20.817 6.413,19.861 6.126 C 19.578 6.041,19.431 6.027,18.620 6.005 C 17.714 5.980,17.697 5.978,17.516 5.872 C 17.197 5.684,17.001 5.340,16.999 4.965 C 16.999 4.713,16.901 4.319,16.781 4.083 C 16.646 3.816,16.297 3.449,16.017 3.281 C 15.548 2.999,15.636 3.005,12.000 3.005 C 9.047 3.005,8.715 3.011,8.477 3.073 M11.560 9.024 C 10.979 9.132,10.778 9.183,10.527 9.283 C 9.498 9.694,8.644 10.559,8.258 11.581 C 7.507 13.568,8.472 15.849,10.409 16.666 C 11.011 16.920,11.310 16.980,11.980 16.979 C 12.658 16.979,12.991 16.914,13.258 16.729 C 13.504 16.558,13.580 16.394,13.579 16.040 C 13.579 15.533,13.434 15.216,13.127 15.046 C 12.935 14.940,12.739 14.926,12.176 14.978 C 11.750 15.017,11.509 14.973,11.126 14.788 C 10.663 14.564,10.349 14.218,10.138 13.700 C 10.037 13.452,10.024 13.372,10.026 13.000 C 10.027 12.680,10.047 12.527,10.110 12.356 C 10.390 11.589,11.048 11.082,11.853 11.014 C 12.375 10.970,12.908 11.150,13.319 11.511 C 13.572 11.731,13.716 11.942,13.862 12.300 C 13.966 12.556,13.976 12.626,13.981 13.120 C 13.984 13.417,14.001 13.705,14.018 13.760 C 14.188 14.304,15.139 14.546,15.635 14.171 C 15.712 14.112,15.813 13.973,15.872 13.846 C 16.017 13.529,16.043 12.790,15.929 12.239 C 15.739 11.323,15.254 10.506,14.550 9.920 C 14.186 9.618,13.429 9.237,12.960 9.121 C 12.631 9.039,11.790 8.981,11.560 9.024 M18.460 15.999 C 15.916 16.022,15.992 16.015,15.752 16.267 C 15.584 16.443,15.513 16.658,15.512 16.997 C 15.510 17.348,15.582 17.556,15.771 17.751 C 15.988 17.976,16.151 18.000,17.436 18.000 L 18.578 18.000 16.853 19.730 C 15.679 20.908,15.100 21.517,15.040 21.637 C 14.863 21.989,14.952 22.354,15.299 22.701 C 15.646 23.048,16.011 23.137,16.363 22.960 C 16.483 22.900,17.092 22.321,18.270 21.147 L 20.000 19.422 20.000 20.564 C 20.000 21.849,20.024 22.012,20.249 22.229 C 20.442 22.416,20.647 22.487,20.997 22.488 C 21.336 22.490,21.552 22.419,21.735 22.248 C 21.985 22.013,21.977 22.088,22.007 19.460 C 22.022 18.140,22.036 17.001,22.037 16.929 C 22.041 16.740,21.834 16.310,21.690 16.207 C 21.467 16.048,21.205 15.959,20.987 15.969 C 20.873 15.974,19.736 15.987,18.460 15.999 " stroke="none" fill="black" fill-rule="evenodd"></path></svg>