<svg xmlns="http://www.w3.org/2000/svg" width="24" height="24" viewBox="0 0 24 24" fill="none" stroke="currentColor" stroke-width="2" stroke-linecap="round" stroke-linejoin="round" class="icon icon-tabler icons-tabler-outline icon-tabler-cloud"><path d="M11.320 4.044 C 10.902 4.092,10.295 4.225,9.864 4.364 C 9.364 4.525,8.537 4.945,8.080 5.270 C 7.615 5.601,6.942 6.268,6.620 6.720 C 6.388 7.045,5.920 7.917,5.920 8.025 C 5.920 8.055,5.879 8.086,5.830 8.095 C 5.079 8.233,4.462 8.438,3.920 8.730 C 3.228 9.102,2.558 9.670,2.104 10.268 C 1.781 10.696,1.359 11.530,1.219 12.020 C 0.285 15.287,2.531 18.547,6.000 18.959 C 6.272 18.992,8.208 19.001,12.800 18.992 L 19.220 18.980 19.603 18.874 C 20.435 18.644,21.093 18.270,21.663 17.702 C 22.258 17.110,22.623 16.477,22.854 15.640 C 23.020 15.038,23.038 14.240,22.901 13.580 C 22.748 12.840,22.305 12.002,21.763 11.428 C 21.066 10.689,20.100 10.201,19.082 10.074 C 18.636 10.019,18.642 10.024,18.640 9.660 C 18.638 8.844,18.168 7.546,17.573 6.710 C 17.259 6.270,16.583 5.600,16.119 5.271 C 15.656 4.942,14.829 4.522,14.327 4.360 C 13.389 4.059,12.251 3.939,11.320 4.044 M12.700 6.044 C 13.831 6.182,14.877 6.693,15.592 7.458 C 16.442 8.367,16.775 9.462,16.583 10.715 C 16.510 11.183,16.520 11.323,16.644 11.567 C 16.739 11.753,16.905 11.871,17.207 11.965 C 17.402 12.026,17.577 12.040,18.134 12.041 C 18.567 12.041,18.917 12.062,19.085 12.097 C 19.886 12.267,20.635 12.965,20.890 13.780 C 21.006 14.148,21.013 14.859,20.905 15.220 C 20.716 15.853,20.193 16.467,19.600 16.752 C 19.412 16.843,19.144 16.935,19.000 16.959 C 18.817 16.990,16.855 17.000,12.380 16.992 L 6.020 16.980 5.660 16.869 C 4.933 16.646,4.359 16.294,3.898 15.789 C 2.704 14.481,2.718 12.515,3.930 11.219 C 4.609 10.493,5.432 10.119,6.515 10.043 C 7.289 9.990,7.456 9.857,7.668 9.124 C 7.927 8.227,8.426 7.509,9.179 6.949 C 10.159 6.220,11.442 5.891,12.700 6.044 " stroke="none" fill="black" fill-rule="evenodd"></path></svg>