<svg xmlns="http://www.w3.org/2000/svg" width="24" height="24" viewBox="0 0 24 24" fill="none" stroke="currentColor" stroke-width="2" stroke-linecap="round" stroke-linejoin="round" class="icon icon-tabler icons-tabler-outline icon-tabler-math-1-divide-3"><path d="M11.620 2.046 C 11.390 2.165,9.153 4.411,9.040 4.637 C 8.863 4.990,8.952 5.354,9.299 5.701 C 9.641 6.043,10.013 6.137,10.349 5.965 C 10.440 5.919,10.623 5.780,10.757 5.656 L 11.000 5.431 11.000 7.326 C 11.000 8.471,11.016 9.277,11.041 9.365 C 11.148 9.750,11.437 9.962,11.896 9.991 C 12.381 10.022,12.699 9.882,12.880 9.558 L 12.980 9.380 12.980 6.040 L 12.980 2.700 12.871 2.514 C 12.758 2.323,12.558 2.141,12.332 2.025 C 12.153 1.934,11.818 1.944,11.620 2.046 M4.614 11.057 C 4.377 11.131,4.212 11.261,4.109 11.453 C 4.035 11.592,4.020 11.684,4.020 12.000 C 4.020 12.331,4.033 12.403,4.120 12.558 C 4.230 12.755,4.414 12.898,4.635 12.959 C 4.835 13.015,19.165 13.015,19.365 12.959 C 19.586 12.898,19.770 12.755,19.880 12.558 C 19.967 12.402,19.980 12.332,19.979 12.000 C 19.978 11.567,19.898 11.355,19.678 11.199 C 19.387 10.991,19.720 11.000,11.984 11.003 C 6.188 11.005,4.747 11.016,4.614 11.057 M10.174 14.042 C 9.566 14.162,9.055 14.757,9.009 15.399 C 8.959 16.103,9.307 16.486,9.997 16.488 C 10.381 16.489,10.593 16.406,10.796 16.175 L 10.950 16.000 11.785 16.000 C 12.543 16.000,12.632 16.008,12.748 16.078 C 12.991 16.226,13.065 16.513,12.922 16.748 C 12.782 16.977,12.686 17.000,11.869 17.000 C 11.013 17.000,10.812 17.041,10.592 17.261 C 10.252 17.602,10.252 18.398,10.592 18.739 C 10.812 18.959,11.013 19.000,11.869 19.000 C 12.686 19.000,12.782 19.023,12.922 19.252 C 13.068 19.492,12.977 19.807,12.724 19.938 C 12.627 19.988,12.446 20.000,11.782 20.000 L 10.960 20.000 10.770 19.804 C 10.553 19.580,10.392 19.520,10.000 19.520 C 9.649 19.520,9.464 19.578,9.277 19.748 C 9.073 19.932,8.982 20.222,9.009 20.601 C 9.047 21.132,9.402 21.639,9.896 21.867 L 10.140 21.980 11.580 21.980 L 13.020 21.980 13.320 21.869 C 14.041 21.604,14.606 21.039,14.867 20.320 C 14.965 20.051,14.976 19.966,14.976 19.500 C 14.976 19.035,14.965 18.949,14.868 18.684 C 14.809 18.521,14.705 18.301,14.636 18.194 L 14.512 18.000 14.636 17.806 C 14.705 17.699,14.809 17.479,14.868 17.316 C 14.965 17.051,14.976 16.965,14.976 16.500 C 14.976 16.035,14.965 15.948,14.868 15.680 C 14.646 15.068,14.195 14.561,13.620 14.277 C 13.115 14.027,12.915 14.001,11.540 14.005 C 10.880 14.007,10.265 14.024,10.174 14.042 " stroke="none" fill="black" fill-rule="evenodd"></path></svg>