<svg xmlns="http://www.w3.org/2000/svg" width="24" height="24" viewBox="0 0 24 24" fill="none" stroke="currentColor" stroke-width="2" stroke-linecap="round" stroke-linejoin="round" class="icon icon-tabler icons-tabler-outline icon-tabler-eye-pin"><path d="M11.160 5.043 C 7.815 5.297,4.962 7.199,2.619 10.738 C 2.100 11.523,2.001 11.724,2.001 12.000 C 2.001 12.276,2.100 12.477,2.619 13.262 C 4.585 16.232,6.875 18.026,9.559 18.699 C 10.556 18.949,11.940 19.077,12.365 18.959 C 12.586 18.898,12.770 18.755,12.880 18.558 C 12.967 18.402,12.980 18.332,12.979 18.000 C 12.978 17.687,12.962 17.591,12.890 17.453 C 12.725 17.141,12.406 17.000,11.864 17.000 C 11.490 17.000,10.959 16.943,10.500 16.854 C 8.266 16.423,6.309 15.017,4.605 12.620 C 4.198 12.048,4.185 12.023,4.244 11.910 C 4.320 11.765,4.894 10.970,5.188 10.600 C 5.576 10.114,6.435 9.243,6.885 8.881 C 7.448 8.426,8.021 8.063,8.615 7.781 C 9.785 7.226,10.685 7.024,12.000 7.023 C 13.304 7.021,14.282 7.242,15.421 7.797 C 16.902 8.519,18.203 9.695,19.407 11.400 C 19.801 11.957,19.932 12.102,20.138 12.208 C 20.445 12.367,20.876 12.252,21.268 11.908 C 21.561 11.650,21.637 11.263,21.464 10.900 C 21.345 10.648,20.863 9.963,20.367 9.340 C 19.922 8.781,18.811 7.655,18.320 7.265 C 16.183 5.571,13.831 4.841,11.160 5.043 M11.499 9.040 C 10.363 9.246,9.460 10.049,9.114 11.160 C 8.979 11.594,8.979 12.406,9.114 12.840 C 9.421 13.826,10.174 14.579,11.160 14.886 C 11.594 15.021,12.406 15.021,12.840 14.886 C 13.826 14.579,14.579 13.826,14.886 12.840 C 15.021 12.406,15.021 11.594,14.886 11.160 C 14.581 10.179,13.810 9.407,12.861 9.129 C 12.500 9.023,11.832 8.980,11.499 9.040 M12.310 11.061 C 12.688 11.173,13.000 11.598,13.000 12.001 C 13.000 12.331,12.784 12.696,12.484 12.872 C 12.328 12.963,12.254 12.980,12.000 12.980 C 11.746 12.980,11.672 12.963,11.516 12.872 C 10.935 12.530,10.833 11.774,11.304 11.303 C 11.583 11.024,11.916 10.944,12.310 11.061 M18.340 14.060 C 17.913 14.130,17.642 14.217,17.275 14.399 C 16.236 14.915,15.537 15.720,15.185 16.807 C 14.791 18.021,15.052 19.450,15.851 20.460 C 16.273 20.993,18.165 22.676,18.610 22.914 C 18.892 23.065,19.097 23.072,19.373 22.941 C 19.537 22.863,20.661 21.912,21.461 21.175 C 22.256 20.442,22.645 19.846,22.868 19.015 C 22.962 18.669,22.975 18.543,22.976 18.000 C 22.977 17.486,22.962 17.325,22.890 17.059 C 22.555 15.825,21.863 14.972,20.736 14.406 C 20.015 14.045,19.175 13.924,18.340 14.060 M19.383 16.043 C 19.962 16.149,20.496 16.556,20.760 17.093 C 20.848 17.273,20.941 17.528,20.964 17.660 C 21.049 18.125,20.934 18.671,20.660 19.101 C 20.538 19.293,19.979 19.839,19.309 20.421 L 18.997 20.691 18.909 20.614 C 17.924 19.754,17.524 19.372,17.355 19.130 C 17.082 18.739,16.949 18.129,17.035 17.660 C 17.107 17.269,17.361 16.802,17.640 16.550 C 18.143 16.095,18.729 15.924,19.383 16.043 M18.614 17.057 C 18.221 17.180,18.039 17.435,18.009 17.906 C 17.962 18.621,18.306 19.000,19.000 19.000 C 19.698 19.000,20.043 18.616,19.989 17.900 C 19.963 17.563,19.859 17.327,19.678 17.199 C 19.414 17.010,18.957 16.950,18.614 17.057 " stroke="none" fill="black" fill-rule="evenodd"></path></svg>