<svg xmlns="http://www.w3.org/2000/svg" width="24" height="24" viewBox="0 0 24 24" fill="none" stroke="currentColor" stroke-width="2" stroke-linecap="round" stroke-linejoin="round" class="icon icon-tabler icons-tabler-outline icon-tabler-device-tablet-share"><path d="M5.477 2.073 C 4.806 2.249,4.238 2.823,4.060 3.508 C 4.008 3.707,4.000 4.805,4.000 12.000 C 4.000 21.017,3.986 20.458,4.225 20.930 C 4.361 21.199,4.801 21.639,5.070 21.775 C 5.522 22.004,5.455 22.000,8.978 22.000 C 11.027 22.000,12.273 21.985,12.365 21.959 C 12.586 21.898,12.770 21.755,12.880 21.558 C 12.967 21.402,12.980 21.332,12.979 21.000 C 12.978 20.567,12.898 20.355,12.678 20.199 C 12.399 20.000,12.401 20.000,9.094 20.000 L 6.000 20.000 6.000 12.000 L 6.000 4.000 12.000 4.000 L 18.000 4.000 18.000 8.610 C 18.000 11.575,18.015 13.272,18.041 13.365 C 18.148 13.750,18.437 13.962,18.896 13.991 C 19.381 14.022,19.699 13.882,19.880 13.558 L 19.980 13.380 19.991 8.590 C 20.003 3.380,20.008 3.530,19.782 3.083 C 19.646 2.816,19.297 2.449,19.017 2.281 C 18.528 1.987,18.983 2.005,12.000 2.005 C 6.211 2.005,5.720 2.010,5.477 2.073 M11.560 15.057 C 11.033 15.175,10.524 15.556,10.247 16.040 C 9.903 16.642,9.936 17.495,10.325 18.078 C 10.717 18.665,11.339 19.001,12.032 19.000 C 12.829 18.998,13.641 18.421,13.640 17.857 C 13.639 17.674,13.503 17.366,13.326 17.145 L 13.201 16.990 13.321 16.838 C 13.732 16.320,13.702 15.809,13.240 15.443 C 12.753 15.059,12.162 14.923,11.560 15.057 M18.460 15.999 C 15.916 16.022,15.992 16.015,15.752 16.267 C 15.584 16.443,15.513 16.658,15.512 16.997 C 15.510 17.348,15.582 17.556,15.771 17.751 C 15.988 17.976,16.151 18.000,17.436 18.000 L 18.578 18.000 16.853 19.730 C 15.679 20.908,15.100 21.517,15.040 21.637 C 14.863 21.989,14.952 22.354,15.299 22.701 C 15.646 23.048,16.011 23.137,16.363 22.960 C 16.483 22.900,17.092 22.321,18.270 21.147 L 20.000 19.422 20.000 20.564 C 20.000 21.849,20.024 22.012,20.249 22.229 C 20.442 22.416,20.647 22.487,20.997 22.488 C 21.336 22.490,21.552 22.419,21.735 22.248 C 21.985 22.013,21.977 22.088,22.007 19.460 C 22.022 18.140,22.036 17.001,22.037 16.929 C 22.041 16.740,21.834 16.310,21.690 16.207 C 21.467 16.048,21.205 15.959,20.987 15.969 C 20.873 15.974,19.736 15.987,18.460 15.999 " stroke="none" fill="black" fill-rule="evenodd"></path></svg>