<svg xmlns="http://www.w3.org/2000/svg" width="24" height="24" viewBox="0 0 24 24" fill="none" stroke="currentColor" stroke-width="2" stroke-linecap="round" stroke-linejoin="round" class="icon icon-tabler icons-tabler-outline icon-tabler-radius-top-right"><path d="M4.614 4.056 C 4.222 4.181,4.039 4.436,4.009 4.900 C 3.978 5.381,4.119 5.699,4.442 5.880 L 4.620 5.980 8.180 6.004 C 11.920 6.028,11.981 6.031,12.720 6.217 C 15.175 6.837,17.163 8.825,17.783 11.280 C 17.969 12.019,17.972 12.080,17.996 15.820 L 18.020 19.380 18.120 19.558 C 18.287 19.856,18.572 20.000,19.000 20.000 C 19.428 20.000,19.713 19.856,19.880 19.558 L 19.980 19.380 19.992 16.000 C 20.001 13.716,19.990 12.471,19.960 12.160 C 19.656 9.044,17.763 6.297,14.978 4.936 C 14.116 4.514,13.309 4.259,12.320 4.095 C 11.947 4.033,11.506 4.024,8.340 4.014 C 5.466 4.005,4.748 4.013,4.614 4.056 " stroke="none" fill="black" fill-rule="evenodd"></path></svg>