<svg xmlns="http://www.w3.org/2000/svg" width="24" height="24" viewBox="0 0 24 24" fill="none" stroke="currentColor" stroke-width="2" stroke-linecap="round" stroke-linejoin="round" class="icon icon-tabler icons-tabler-outline icon-tabler-grill-fork"><path d="M6.574 2.079 C 6.217 2.283,5.951 2.680,5.951 3.006 C 5.951 3.358,6.055 3.480,7.820 5.186 C 8.722 6.058,9.525 6.864,9.604 6.976 C 9.865 7.348,9.980 7.794,9.932 8.253 L 9.908 8.486 7.724 6.307 C 6.281 4.868,5.483 4.100,5.372 4.044 C 5.020 3.868,4.639 3.959,4.299 4.299 C 3.952 4.646,3.863 5.010,4.040 5.363 C 4.101 5.485,4.799 6.212,6.310 7.726 L 8.491 9.913 8.271 9.940 C 7.827 9.996,7.231 9.822,6.878 9.535 C 6.801 9.472,6.129 8.790,5.385 8.020 C 3.370 5.934,3.401 5.960,3.000 5.960 C 2.508 5.960,1.951 6.511,1.951 6.996 C 1.951 7.281,2.080 7.485,2.597 8.019 C 5.679 11.202,5.722 11.243,6.300 11.530 C 7.370 12.061,8.523 12.086,9.645 11.602 L 10.020 11.440 12.642 14.062 L 15.264 16.683 15.144 17.032 C 15.031 17.357,15.024 17.418,15.025 17.960 C 15.025 18.479,15.037 18.574,15.132 18.860 C 15.324 19.440,15.462 19.624,16.419 20.581 C 17.376 21.538,17.560 21.676,18.140 21.868 C 18.427 21.964,18.519 21.974,19.040 21.974 C 19.561 21.974,19.653 21.964,19.940 21.868 C 20.406 21.714,20.735 21.505,21.120 21.120 C 21.505 20.735,21.714 20.406,21.868 19.940 C 21.964 19.653,21.974 19.561,21.974 19.040 C 21.974 18.519,21.964 18.427,21.868 18.140 C 21.678 17.566,21.536 17.375,20.601 16.435 C 19.939 15.770,19.675 15.533,19.460 15.408 C 18.715 14.975,17.786 14.887,16.970 15.171 L 16.689 15.269 14.065 12.644 L 11.440 10.020 11.602 9.645 C 11.848 9.075,11.932 8.675,11.936 8.060 C 11.940 7.395,11.824 6.893,11.530 6.300 C 11.243 5.723,11.218 5.697,8.013 2.591 C 7.726 2.312,7.455 2.087,7.353 2.040 C 7.093 1.922,6.824 1.936,6.574 2.079 M18.385 17.113 C 18.470 17.157,18.847 17.505,19.222 17.886 C 19.934 18.610,20.000 18.708,20.000 19.040 C 20.000 19.542,19.542 20.000,19.040 20.000 C 18.691 20.000,18.573 19.918,17.813 19.148 C 17.181 18.508,17.087 18.397,17.041 18.229 C 16.824 17.434,17.659 16.740,18.385 17.113 " stroke="none" fill="black" fill-rule="evenodd"></path></svg>