<svg xmlns="http://www.w3.org/2000/svg" width="24" height="24" viewBox="0 0 24 24" fill="none" stroke="currentColor" stroke-width="2" stroke-linecap="round" stroke-linejoin="round" class="icon icon-tabler icons-tabler-outline icon-tabler-umbrella"><path d="M11.340 3.024 C 10.026 3.160,9.091 3.415,8.060 3.918 C 6.244 4.804,4.840 6.202,3.939 8.020 C 3.451 9.004,3.149 10.060,3.038 11.171 C 2.969 11.859,2.998 12.334,3.121 12.558 C 3.230 12.755,3.413 12.898,3.635 12.959 C 3.727 12.985,5.094 13.000,7.388 13.000 L 10.996 13.000 11.009 15.790 L 11.021 18.580 11.115 18.860 C 11.444 19.849,12.185 20.582,13.160 20.886 C 13.594 21.021,14.406 21.021,14.840 20.886 C 15.826 20.579,16.582 19.823,16.885 18.840 C 17.018 18.410,17.021 17.697,16.891 17.453 C 16.689 17.076,16.138 16.902,15.629 17.055 C 15.220 17.178,15.055 17.409,15.000 17.934 C 14.982 18.113,14.947 18.311,14.923 18.373 C 14.851 18.561,14.677 18.758,14.484 18.872 C 14.328 18.963,14.254 18.980,14.000 18.980 C 13.746 18.980,13.672 18.963,13.516 18.872 C 13.415 18.813,13.284 18.700,13.225 18.623 C 12.996 18.323,13.000 18.373,13.000 15.575 L 13.000 13.000 16.610 13.000 C 18.905 13.000,20.273 12.985,20.365 12.959 C 20.586 12.898,20.770 12.755,20.876 12.563 C 21.131 12.101,20.970 10.479,20.538 9.169 C 19.485 5.966,16.680 3.608,13.320 3.101 C 12.911 3.039,11.662 2.991,11.340 3.024 M13.102 5.098 C 15.581 5.473,17.715 7.237,18.573 9.620 C 18.719 10.025,18.851 10.520,18.896 10.830 L 18.921 11.000 12.000 11.000 L 5.079 11.000 5.104 10.830 C 5.149 10.520,5.281 10.025,5.427 9.620 C 6.127 7.675,7.675 6.127,9.620 5.427 C 10.250 5.200,10.715 5.102,11.540 5.023 C 11.813 4.997,12.726 5.041,13.102 5.098 " stroke="none" fill="black" fill-rule="evenodd"></path></svg>