<svg xmlns="http://www.w3.org/2000/svg" width="24" height="24" viewBox="0 0 24 24" fill="none" stroke="currentColor" stroke-width="2" stroke-linecap="round" stroke-linejoin="round" class="icon icon-tabler icons-tabler-outline icon-tabler-brackets-contain-end"><path d="M13.614 3.057 C 13.377 3.131,13.212 3.261,13.109 3.453 C 13.035 3.592,13.020 3.684,13.020 4.000 C 13.020 4.331,13.033 4.403,13.120 4.558 C 13.230 4.755,13.414 4.898,13.635 4.959 C 13.721 4.983,14.435 5.000,15.390 5.000 L 17.000 5.000 17.000 12.000 L 17.000 19.000 15.406 19.000 C 13.710 19.000,13.584 19.012,13.322 19.199 C 13.100 19.357,13.020 19.568,13.020 20.000 C 13.020 20.331,13.033 20.403,13.120 20.558 C 13.230 20.755,13.414 20.898,13.635 20.959 C 13.831 21.014,18.169 21.014,18.365 20.959 C 18.586 20.898,18.770 20.755,18.880 20.558 L 18.980 20.380 18.980 12.000 L 18.980 3.620 18.891 3.453 C 18.785 3.256,18.622 3.131,18.371 3.055 C 18.112 2.977,13.864 2.979,13.614 3.057 M4.614 15.055 C 4.220 15.184,4.039 15.437,4.009 15.900 C 3.978 16.381,4.119 16.699,4.442 16.880 C 4.597 16.967,4.669 16.980,5.000 16.980 C 5.312 16.980,5.408 16.964,5.540 16.894 C 5.866 16.718,6.000 16.459,6.000 16.000 C 6.000 15.357,5.713 15.048,5.083 15.016 C 4.893 15.006,4.718 15.021,4.614 15.055 M8.614 15.055 C 8.220 15.184,8.039 15.437,8.009 15.900 C 7.978 16.381,8.119 16.699,8.442 16.880 C 8.597 16.967,8.669 16.980,9.000 16.980 C 9.312 16.980,9.408 16.964,9.540 16.894 C 9.866 16.718,10.000 16.459,10.000 16.000 C 10.000 15.357,9.713 15.048,9.083 15.016 C 8.893 15.006,8.718 15.021,8.614 15.055 M12.614 15.055 C 12.220 15.184,12.039 15.437,12.009 15.900 C 11.978 16.381,12.119 16.699,12.442 16.880 C 12.597 16.967,12.669 16.980,13.000 16.980 C 13.312 16.980,13.408 16.964,13.540 16.894 C 13.866 16.718,14.000 16.459,14.000 16.000 C 14.000 15.357,13.713 15.048,13.083 15.016 C 12.893 15.006,12.718 15.021,12.614 15.055 " stroke="none" fill="black" fill-rule="evenodd"></path></svg>