<svg xmlns="http://www.w3.org/2000/svg" width="24" height="24" viewBox="0 0 24 24" fill="none" stroke="currentColor" stroke-width="2" stroke-linecap="round" stroke-linejoin="round" class="icon icon-tabler icons-tabler-outline icon-tabler-function"><path d="M6.280 3.025 C 5.436 3.157,4.946 3.361,4.359 3.829 C 3.889 4.204,3.444 4.814,3.245 5.360 C 3.003 6.022,3.020 5.530,3.020 12.000 C 3.020 18.470,3.003 17.978,3.245 18.640 C 3.581 19.559,4.441 20.419,5.360 20.755 C 6.022 20.997,5.530 20.980,12.000 20.980 C 18.470 20.980,17.978 20.997,18.640 20.755 C 19.559 20.419,20.419 19.559,20.755 18.640 C 20.997 17.978,20.980 18.470,20.980 12.000 C 20.980 5.530,20.997 6.022,20.755 5.360 C 20.419 4.442,19.564 3.586,18.640 3.244 C 18.002 3.008,18.431 3.023,12.140 3.016 C 8.972 3.013,6.335 3.017,6.280 3.025 M17.926 5.111 C 18.365 5.289,18.711 5.635,18.889 6.074 L 18.980 6.300 18.991 11.857 C 18.998 15.485,18.988 17.489,18.961 17.632 C 18.843 18.269,18.371 18.777,17.740 18.946 C 17.578 18.989,16.495 18.999,12.000 18.999 C 7.505 18.999,6.422 18.989,6.260 18.946 C 5.632 18.778,5.160 18.273,5.040 17.642 C 4.985 17.351,4.985 6.649,5.040 6.358 C 5.164 5.707,5.690 5.169,6.327 5.042 C 6.422 5.023,9.020 5.011,12.100 5.014 L 17.700 5.020 17.926 5.111 M13.280 6.045 C 13.159 6.064,12.907 6.155,12.720 6.246 C 12.120 6.540,11.651 7.090,11.464 7.719 C 11.428 7.839,11.336 8.586,11.258 9.379 C 11.180 10.171,11.108 10.861,11.097 10.910 L 11.078 11.000 9.946 11.000 C 8.741 11.000,8.572 11.021,8.322 11.199 C 8.100 11.357,8.020 11.568,8.020 12.000 C 8.020 12.331,8.033 12.403,8.120 12.558 C 8.230 12.755,8.414 12.898,8.635 12.959 C 8.715 12.982,9.250 13.000,9.830 13.000 C 10.643 13.000,10.880 13.011,10.881 13.050 C 10.884 13.318,10.617 15.688,10.573 15.784 C 10.477 15.994,10.224 16.064,10.080 15.920 C 10.016 15.856,10.000 15.787,10.000 15.567 C 10.000 15.176,9.913 14.919,9.723 14.747 C 9.536 14.578,9.351 14.520,9.000 14.520 C 8.649 14.520,8.464 14.578,8.277 14.747 C 8.075 14.930,8.000 15.177,8.001 15.657 C 8.002 16.355,8.208 16.871,8.668 17.332 C 9.370 18.034,10.401 18.198,11.311 17.752 C 11.665 17.579,12.182 17.075,12.351 16.740 C 12.555 16.333,12.596 16.109,12.742 14.621 C 12.820 13.829,12.892 13.139,12.903 13.090 L 12.922 13.000 14.071 13.000 C 14.717 13.000,15.283 12.982,15.365 12.959 C 15.586 12.898,15.770 12.755,15.880 12.558 C 15.967 12.402,15.980 12.332,15.979 12.000 C 15.978 11.567,15.898 11.355,15.678 11.199 C 15.432 11.023,15.252 11.000,14.154 11.000 C 13.354 11.000,13.120 10.989,13.119 10.950 C 13.116 10.682,13.383 8.312,13.427 8.216 C 13.523 8.006,13.776 7.936,13.920 8.080 C 13.984 8.144,14.000 8.213,14.000 8.433 C 14.000 9.148,14.319 9.486,14.997 9.488 C 15.348 9.490,15.556 9.418,15.751 9.229 C 15.925 9.061,16.000 8.793,15.999 8.343 C 15.998 7.541,15.726 6.967,15.108 6.466 C 14.631 6.079,13.990 5.931,13.280 6.045 " stroke="none" fill="black" fill-rule="evenodd"></path></svg>