<svg xmlns="http://www.w3.org/2000/svg" width="24" height="24" viewBox="0 0 24 24" fill="none" stroke="currentColor" stroke-width="2" stroke-linecap="round" stroke-linejoin="round" class="icon icon-tabler icons-tabler-outline icon-tabler-brand-douban"><path d="M4.614 3.057 C 4.377 3.131,4.212 3.261,4.109 3.453 C 4.035 3.592,4.020 3.684,4.020 4.000 C 4.020 4.331,4.033 4.403,4.120 4.558 C 4.230 4.755,4.414 4.898,4.635 4.959 C 4.835 5.015,19.165 5.015,19.365 4.959 C 19.586 4.898,19.770 4.755,19.880 4.558 C 19.967 4.402,19.980 4.332,19.979 4.000 C 19.978 3.567,19.898 3.355,19.678 3.199 C 19.387 2.991,19.720 3.000,11.984 3.003 C 6.188 3.005,4.747 3.016,4.614 3.057 M7.499 7.043 C 6.379 7.234,5.461 8.048,5.114 9.160 C 5.022 9.453,5.020 9.497,5.020 11.000 C 5.020 12.503,5.022 12.547,5.114 12.840 C 5.418 13.816,6.150 14.554,7.140 14.886 L 7.420 14.980 11.014 14.991 C 13.812 15.000,14.604 15.014,14.590 15.051 C 14.580 15.078,14.280 15.978,13.923 17.050 L 13.273 19.000 11.500 19.000 L 9.727 19.000 9.338 17.830 C 8.922 16.580,8.851 16.404,8.686 16.226 C 8.523 16.051,8.373 15.991,8.103 15.992 C 7.591 15.995,7.102 16.300,7.000 16.679 C 6.935 16.920,6.980 17.121,7.321 18.142 C 7.474 18.602,7.600 18.983,7.600 18.989 C 7.600 18.995,6.748 19.000,5.706 19.000 C 3.688 19.000,3.589 19.008,3.322 19.199 C 3.100 19.357,3.020 19.568,3.020 20.000 C 3.020 20.331,3.033 20.403,3.120 20.558 C 3.232 20.758,3.416 20.900,3.643 20.961 C 3.852 21.017,20.149 21.017,20.358 20.961 C 20.584 20.900,20.769 20.757,20.880 20.558 C 20.967 20.402,20.980 20.332,20.979 20.000 C 20.978 19.567,20.898 19.355,20.678 19.199 C 20.405 19.004,20.349 19.000,17.789 19.000 C 15.888 19.000,15.395 18.990,15.410 18.950 C 15.420 18.922,15.721 18.018,16.079 16.940 C 16.438 15.862,16.746 14.960,16.765 14.936 C 16.784 14.913,16.876 14.870,16.970 14.843 C 17.240 14.763,17.640 14.536,17.891 14.321 C 18.391 13.893,18.702 13.430,18.886 12.840 C 18.978 12.547,18.980 12.503,18.980 11.000 C 18.980 9.497,18.978 9.453,18.886 9.160 C 18.581 8.182,17.832 7.428,16.861 7.121 L 16.540 7.020 12.120 7.014 C 9.689 7.011,7.609 7.024,7.499 7.043 M16.310 9.061 C 16.589 9.144,16.856 9.411,16.939 9.690 C 17.023 9.972,17.028 12.015,16.945 12.290 C 16.872 12.533,16.707 12.740,16.484 12.872 L 16.300 12.980 12.000 12.980 L 7.700 12.980 7.516 12.872 C 7.303 12.747,7.141 12.550,7.058 12.316 C 6.972 12.071,6.974 9.982,7.061 9.690 C 7.140 9.421,7.412 9.143,7.673 9.063 C 7.962 8.974,16.011 8.972,16.310 9.061 " stroke="none" fill="black" fill-rule="evenodd"></path></svg>