<svg xmlns="http://www.w3.org/2000/svg" width="24" height="24" viewBox="0 0 24 24" fill="none" stroke="currentColor" stroke-width="2" stroke-linecap="round" stroke-linejoin="round" class="icon icon-tabler icons-tabler-outline icon-tabler-currency-iranian-rial"><path d="M8.614 3.057 C 8.377 3.131,8.212 3.261,8.109 3.453 L 8.020 3.620 8.000 8.440 C 7.984 12.176,7.969 13.285,7.930 13.373 C 7.842 13.572,7.672 13.761,7.484 13.872 C 7.305 13.977,7.281 13.980,6.551 13.993 C 6.104 14.001,5.717 13.988,5.589 13.962 C 5.091 13.858,4.606 13.517,4.312 13.063 C 4.061 12.675,4.032 12.529,4.003 11.520 C 3.973 10.501,3.939 10.372,3.649 10.182 C 3.199 9.887,2.426 9.979,2.170 10.358 C 2.024 10.575,2.000 10.741,2.000 11.574 C 2.000 12.219,2.015 12.443,2.083 12.773 C 2.357 14.118,3.249 15.195,4.512 15.704 C 5.141 15.957,5.523 16.009,6.620 15.990 C 7.517 15.975,7.600 15.967,7.887 15.872 C 8.851 15.553,9.584 14.808,9.886 13.840 L 9.980 13.540 9.980 8.580 L 9.980 3.620 9.891 3.453 C 9.842 3.362,9.746 3.247,9.678 3.199 C 9.414 3.010,8.957 2.950,8.614 3.057 M11.614 4.057 C 11.377 4.131,11.212 4.261,11.109 4.453 L 11.020 4.620 11.009 8.920 C 11.002 11.811,11.012 13.286,11.041 13.423 C 11.192 14.154,11.853 14.809,12.594 14.963 C 12.737 14.993,13.121 15.002,13.697 14.990 C 14.472 14.974,14.614 14.961,14.860 14.882 C 15.836 14.568,16.581 13.818,16.886 12.840 C 16.974 12.560,16.980 12.475,16.980 11.580 C 16.980 10.659,16.976 10.613,16.889 10.450 C 16.724 10.140,16.329 9.970,15.874 10.011 C 15.439 10.051,15.141 10.274,15.041 10.635 C 15.019 10.715,15.000 11.079,15.000 11.444 C 15.000 12.362,14.905 12.624,14.484 12.872 C 14.308 12.975,14.272 12.981,13.651 12.993 L 13.002 13.007 12.991 8.813 L 12.980 4.620 12.891 4.453 C 12.842 4.362,12.746 4.247,12.678 4.199 C 12.414 4.010,11.957 3.950,11.614 4.057 M20.614 13.057 C 20.376 13.132,20.212 13.261,20.110 13.453 C 20.029 13.608,20.021 13.694,19.996 14.680 C 19.974 15.569,19.956 15.790,19.886 16.050 C 19.697 16.758,19.390 17.308,18.886 17.845 C 18.348 18.418,17.810 18.734,16.955 18.979 C 16.215 19.191,15.988 19.408,15.995 19.893 C 16.005 20.577,16.346 21.008,16.876 21.008 C 17.119 21.008,17.686 20.869,18.134 20.701 C 20.074 19.971,21.491 18.274,21.908 16.180 C 21.967 15.886,21.980 15.618,21.980 14.720 C 21.980 13.659,21.977 13.614,21.891 13.453 C 21.842 13.362,21.746 13.247,21.678 13.199 C 21.414 13.010,20.957 12.950,20.614 13.057 M10.614 17.055 C 10.220 17.184,10.039 17.437,10.009 17.900 C 9.978 18.381,10.119 18.699,10.442 18.880 C 10.597 18.967,10.669 18.980,11.000 18.980 C 11.312 18.980,11.408 18.964,11.540 18.894 C 11.866 18.718,12.000 18.459,12.000 18.000 C 12.000 17.357,11.713 17.048,11.083 17.016 C 10.893 17.006,10.718 17.021,10.614 17.055 M13.614 17.055 C 13.220 17.184,13.039 17.437,13.009 17.900 C 12.978 18.381,13.119 18.699,13.442 18.880 C 13.597 18.967,13.669 18.980,14.000 18.980 C 14.312 18.980,14.408 18.964,14.540 18.894 C 14.866 18.718,15.000 18.459,15.000 18.000 C 15.000 17.357,14.713 17.048,14.083 17.016 C 13.893 17.006,13.718 17.021,13.614 17.055 " stroke="none" fill="black" fill-rule="evenodd"></path></svg>