<svg xmlns="http://www.w3.org/2000/svg" width="24" height="24" viewBox="0 0 24 24" fill="none" stroke="currentColor" stroke-width="2" stroke-linecap="round" stroke-linejoin="round" class="icon icon-tabler icons-tabler-outline icon-tabler-camera-question"><path d="M8.477 3.073 C 7.806 3.249,7.238 3.823,7.060 4.508 C 7.027 4.634,7.000 4.820,7.000 4.922 C 7.000 5.332,6.811 5.680,6.484 5.872 C 6.303 5.978,6.286 5.980,5.380 6.005 C 4.569 6.027,4.422 6.041,4.139 6.126 C 3.183 6.413,2.420 7.179,2.114 8.160 L 2.020 8.460 2.020 13.500 L 2.020 18.540 2.114 18.840 C 2.418 19.816,3.149 20.554,4.140 20.886 L 4.420 20.980 9.812 20.991 C 13.394 20.998,15.255 20.988,15.356 20.961 C 15.584 20.900,15.768 20.758,15.880 20.558 C 15.967 20.402,15.980 20.332,15.979 20.000 C 15.977 19.469,15.852 19.247,15.455 19.071 C 15.364 19.031,14.209 19.016,10.020 19.000 L 4.700 18.980 4.516 18.872 C 4.415 18.813,4.284 18.700,4.225 18.623 C 3.989 18.314,4.000 18.562,4.000 13.522 C 4.000 8.339,3.984 8.630,4.283 8.321 C 4.552 8.044,4.623 8.028,5.660 7.997 C 6.452 7.974,6.619 7.958,6.860 7.881 C 8.030 7.509,8.877 6.480,8.984 5.302 L 9.011 5.000 12.000 5.000 L 14.989 5.000 15.016 5.302 C 15.123 6.480,15.970 7.509,17.140 7.881 C 17.381 7.958,17.548 7.974,18.340 7.997 C 19.377 8.028,19.448 8.044,19.717 8.321 C 19.987 8.600,20.000 8.690,20.000 10.300 C 20.000 11.872,20.017 12.005,20.249 12.229 C 20.442 12.416,20.647 12.487,21.000 12.488 C 21.368 12.490,21.600 12.402,21.787 12.189 C 21.995 11.952,22.009 11.802,21.992 10.020 C 21.977 8.480,21.973 8.410,21.884 8.140 C 21.563 7.162,20.807 6.410,19.861 6.126 C 19.578 6.041,19.431 6.027,18.620 6.005 C 17.714 5.980,17.697 5.978,17.516 5.872 C 17.197 5.684,17.001 5.340,16.999 4.965 C 16.999 4.713,16.901 4.319,16.781 4.083 C 16.646 3.816,16.297 3.449,16.017 3.281 C 15.548 2.999,15.636 3.005,12.000 3.005 C 9.047 3.005,8.715 3.011,8.477 3.073 M11.452 9.040 C 11.065 9.094,10.731 9.196,10.335 9.380 C 9.459 9.788,8.829 10.398,8.414 11.242 C 7.739 12.611,7.913 14.274,8.855 15.464 C 10.058 16.985,12.084 17.425,13.831 16.545 C 14.326 16.295,14.568 15.950,14.508 15.579 C 14.469 15.341,14.296 15.014,14.111 14.829 C 13.822 14.540,13.465 14.503,13.042 14.719 C 12.370 15.062,11.744 15.086,11.125 14.792 C 10.790 14.633,10.372 14.222,10.224 13.906 C 9.661 12.706,10.271 11.392,11.545 11.060 C 12.176 10.896,12.909 11.102,13.382 11.577 C 13.710 11.907,13.823 12.120,13.964 12.669 C 14.030 12.926,14.120 13.195,14.164 13.266 C 14.330 13.535,14.709 13.663,15.133 13.595 C 15.524 13.532,15.814 13.335,15.922 13.060 C 15.998 12.866,15.973 12.414,15.863 11.985 C 15.501 10.569,14.383 9.472,12.940 9.117 C 12.572 9.026,11.822 8.987,11.452 9.040 M18.440 14.058 C 18.297 14.089,18.102 14.142,18.008 14.176 C 17.203 14.466,16.442 15.217,16.440 15.722 C 16.439 16.052,16.769 16.475,17.174 16.663 C 17.548 16.838,17.807 16.775,18.193 16.419 C 18.501 16.134,18.650 16.048,18.893 16.015 C 19.121 15.984,19.458 16.082,19.640 16.234 C 19.988 16.522,20.086 17.066,19.863 17.470 C 19.668 17.823,19.453 17.951,18.970 18.001 C 18.245 18.076,17.960 18.406,18.012 19.110 C 18.069 19.867,18.595 20.142,19.591 19.936 C 20.218 19.807,20.691 19.543,21.146 19.069 C 21.488 18.713,21.648 18.463,21.797 18.055 C 22.409 16.374,21.489 14.571,19.780 14.102 C 19.448 14.010,18.765 13.988,18.440 14.058 M18.614 21.057 C 18.221 21.180,18.039 21.435,18.009 21.906 C 17.962 22.621,18.306 23.000,19.000 23.000 C 19.698 23.000,20.043 22.616,19.989 21.900 C 19.963 21.563,19.859 21.327,19.678 21.199 C 19.414 21.010,18.957 20.950,18.614 21.057 " stroke="none" fill="black" fill-rule="evenodd"></path></svg>