<svg xmlns="http://www.w3.org/2000/svg" width="24" height="24" viewBox="0 0 24 24" fill="none" stroke="currentColor" stroke-width="2" stroke-linecap="round" stroke-linejoin="round" class="icon icon-tabler icons-tabler-outline icon-tabler-viewfinder-off"><path d="M2.626 2.045 C 2.257 2.239,1.951 2.673,1.951 3.000 C 1.951 3.327,2.064 3.474,3.188 4.605 L 4.247 5.670 3.988 6.005 C 2.915 7.396,2.224 9.145,2.000 11.039 C 1.948 11.482,1.949 12.580,2.002 13.072 C 2.244 15.296,3.210 17.374,4.740 18.955 C 6.330 20.600,8.184 21.563,10.500 21.947 C 11.183 22.060,12.795 22.050,13.500 21.928 C 15.200 21.634,16.748 20.974,17.995 20.012 L 18.330 19.753 19.395 20.812 C 20.082 21.494,20.523 21.902,20.637 21.960 C 20.989 22.137,21.354 22.048,21.701 21.701 C 22.048 21.355,22.137 20.990,21.961 20.637 C 21.885 20.486,18.837 17.395,12.747 11.293 C 8.533 7.070,3.506 2.111,3.372 2.044 C 3.152 1.934,2.835 1.935,2.626 2.045 M11.080 2.043 C 9.906 2.161,8.803 2.463,7.751 2.955 C 7.278 3.177,7.110 3.305,6.993 3.533 C 6.774 3.962,7.108 4.762,7.582 4.943 C 7.841 5.042,8.077 4.999,8.603 4.759 C 9.332 4.426,10.069 4.198,10.780 4.087 L 11.000 4.052 11.000 5.636 C 11.000 6.574,11.017 7.279,11.041 7.365 C 11.148 7.750,11.437 7.962,11.896 7.991 C 12.381 8.022,12.699 7.882,12.880 7.558 L 12.980 7.380 12.992 5.730 L 13.004 4.080 13.098 4.080 C 13.220 4.080,13.864 4.213,14.222 4.312 C 16.795 5.026,18.973 7.198,19.683 9.761 C 19.787 10.136,19.920 10.778,19.920 10.904 L 19.920 11.000 18.866 11.000 C 17.746 11.000,17.569 11.023,17.322 11.199 C 17.100 11.357,17.020 11.568,17.020 12.000 C 17.020 12.331,17.033 12.403,17.120 12.558 C 17.230 12.755,17.414 12.898,17.635 12.959 C 17.716 12.982,18.257 13.000,18.850 13.000 L 19.920 13.000 19.920 13.130 C 19.919 13.305,19.745 14.065,19.614 14.460 C 19.556 14.636,19.402 15.020,19.273 15.314 C 19.014 15.901,18.969 16.097,19.036 16.346 C 19.124 16.671,19.623 17.031,20.044 17.071 C 20.304 17.096,20.559 16.998,20.725 16.808 C 20.957 16.544,21.395 15.520,21.624 14.706 C 22.518 11.532,21.776 8.099,19.647 5.557 C 18.089 3.697,15.786 2.429,13.360 2.097 C 12.823 2.023,11.572 1.994,11.080 2.043 M8.410 9.830 C 9.900 11.320,11.120 12.560,11.120 12.585 C 11.120 12.610,11.194 12.691,11.285 12.765 C 11.376 12.839,12.676 14.120,14.175 15.612 L 16.900 18.324 16.780 18.424 C 16.280 18.840,15.315 19.349,14.520 19.614 C 14.021 19.781,13.278 19.960,13.086 19.960 C 13.007 19.960,13.005 19.934,12.993 18.790 C 12.980 17.663,12.977 17.614,12.889 17.450 C 12.724 17.140,12.329 16.970,11.874 17.011 C 11.439 17.051,11.141 17.274,11.041 17.635 C 11.018 17.716,11.000 18.270,11.000 18.892 L 11.000 20.004 10.850 19.978 C 9.012 19.661,7.600 18.965,6.379 17.774 C 5.195 16.618,4.381 15.103,4.100 13.530 C 4.066 13.337,4.029 13.139,4.018 13.090 L 3.998 13.000 5.609 13.000 C 6.565 13.000,7.279 12.983,7.365 12.959 C 7.586 12.898,7.770 12.755,7.880 12.558 C 7.967 12.402,7.980 12.332,7.979 12.000 C 7.978 11.567,7.898 11.355,7.678 11.199 C 7.416 11.012,7.289 11.000,5.614 11.000 C 4.068 11.000,4.040 10.999,4.040 10.920 C 4.040 10.737,4.246 9.887,4.401 9.433 C 4.570 8.935,4.900 8.235,5.150 7.840 C 5.366 7.499,5.641 7.120,5.672 7.120 C 5.687 7.120,6.919 8.339,8.410 9.830 " stroke="none" fill="black" fill-rule="evenodd"></path></svg>