<svg xmlns="http://www.w3.org/2000/svg" width="24" height="24" viewBox="0 0 24 24" fill="none" stroke="currentColor" stroke-width="2" stroke-linecap="round" stroke-linejoin="round" class="icon icon-tabler icons-tabler-outline icon-tabler-bulb"><path d="M11.614 2.057 C 11.377 2.131,11.212 2.261,11.109 2.453 C 11.027 2.606,11.019 2.684,11.007 3.405 C 10.999 3.880,11.011 4.252,11.037 4.349 C 11.144 4.748,11.430 4.961,11.896 4.991 C 12.381 5.022,12.699 4.882,12.880 4.558 C 12.978 4.383,12.980 4.364,12.980 3.500 C 12.980 2.667,12.975 2.611,12.891 2.453 C 12.842 2.362,12.746 2.247,12.678 2.199 C 12.414 2.010,11.957 1.950,11.614 2.057 M5.226 4.645 C 4.857 4.839,4.551 5.273,4.551 5.600 C 4.551 5.897,4.682 6.093,5.274 6.684 C 5.882 7.289,6.046 7.388,6.384 7.350 C 6.795 7.303,7.311 6.778,7.350 6.365 C 7.381 6.045,7.266 5.859,6.664 5.255 C 6.376 4.966,6.064 4.691,5.972 4.645 C 5.752 4.534,5.435 4.534,5.226 4.645 M18.020 4.647 C 17.782 4.770,16.822 5.744,16.723 5.961 C 16.558 6.325,16.651 6.662,17.017 7.018 C 17.400 7.393,17.766 7.453,18.152 7.205 C 18.417 7.035,19.249 6.179,19.359 5.961 C 19.537 5.612,19.448 5.246,19.101 4.899 C 18.761 4.559,18.366 4.467,18.020 4.647 M11.440 6.024 C 10.367 6.152,9.460 6.482,8.640 7.043 C 7.302 7.957,6.475 9.199,6.109 10.840 C 6.005 11.309,5.985 12.522,6.075 12.980 C 6.362 14.449,7.024 15.628,8.062 16.520 C 8.440 16.843,8.650 17.106,8.742 17.365 C 8.775 17.461,8.828 17.577,8.858 17.623 C 8.978 17.805,9.013 18.069,9.020 18.820 C 9.027 19.487,9.039 19.614,9.118 19.860 C 9.432 20.837,10.183 21.582,11.160 21.886 C 11.594 22.021,12.406 22.021,12.840 21.886 C 13.817 21.582,14.568 20.837,14.882 19.860 C 14.961 19.615,14.973 19.486,14.980 18.820 C 14.984 18.402,15.002 18.006,15.019 17.940 C 15.047 17.833,15.158 17.573,15.351 17.160 C 15.387 17.083,15.570 16.876,15.758 16.700 C 17.015 15.520,17.528 14.679,17.869 13.238 C 17.968 12.821,17.977 12.711,17.976 12.000 C 17.975 11.139,17.925 10.816,17.678 10.080 C 17.003 8.061,15.266 6.537,13.164 6.117 C 12.793 6.042,11.753 5.986,11.440 6.024 M13.005 8.134 C 13.848 8.350,14.643 8.876,15.174 9.570 C 16.020 10.677,16.226 12.158,15.714 13.457 C 15.476 14.062,15.084 14.625,14.650 14.987 C 14.352 15.236,13.985 15.615,13.835 15.830 L 13.716 16.000 12.000 16.000 L 10.284 16.000 10.162 15.823 C 10.017 15.612,9.682 15.268,9.307 14.945 C 8.175 13.970,7.719 12.241,8.202 10.760 C 8.670 9.325,9.909 8.280,11.423 8.041 C 11.820 7.979,12.570 8.023,13.005 8.134 M2.614 11.057 C 2.377 11.131,2.212 11.261,2.109 11.453 C 2.035 11.592,2.020 11.684,2.020 12.000 C 2.020 12.331,2.033 12.403,2.120 12.558 C 2.230 12.755,2.414 12.898,2.635 12.959 C 2.823 13.012,4.177 13.012,4.365 12.959 C 4.586 12.898,4.770 12.755,4.880 12.558 C 4.967 12.402,4.980 12.332,4.979 12.000 C 4.978 11.687,4.962 11.591,4.890 11.453 C 4.786 11.256,4.623 11.131,4.371 11.055 C 4.126 10.982,2.851 10.983,2.614 11.057 M19.614 11.057 C 19.377 11.131,19.212 11.261,19.109 11.453 C 19.035 11.592,19.020 11.684,19.020 12.000 C 19.020 12.331,19.033 12.403,19.120 12.558 C 19.230 12.755,19.414 12.898,19.635 12.959 C 19.823 13.012,21.177 13.012,21.365 12.959 C 21.586 12.898,21.770 12.755,21.880 12.558 C 21.967 12.402,21.980 12.332,21.979 12.000 C 21.978 11.687,21.962 11.591,21.890 11.453 C 21.786 11.256,21.623 11.131,21.371 11.055 C 21.126 10.982,19.851 10.983,19.614 11.057 M12.977 18.630 C 12.975 19.015,12.956 19.304,12.927 19.373 C 12.846 19.567,12.675 19.760,12.484 19.872 C 12.328 19.963,12.254 19.980,12.000 19.980 C 11.746 19.980,11.672 19.963,11.516 19.872 C 11.326 19.760,11.155 19.568,11.073 19.373 C 11.043 19.303,11.024 19.021,11.023 18.630 L 11.020 18.000 12.000 18.000 L 12.980 18.000 12.977 18.630 " stroke="none" fill="black" fill-rule="evenodd"></path></svg>