<svg xmlns="http://www.w3.org/2000/svg" width="24" height="24" viewBox="0 0 24 24" fill="none" stroke="currentColor" stroke-width="2" stroke-linecap="round" stroke-linejoin="round" class="icon icon-tabler icons-tabler-outline icon-tabler-brand-vite"><path d="M12.693 2.794 C 9.232 3.664,9.320 3.634,9.128 4.007 C 9.061 4.138,9.009 4.358,8.955 4.745 C 8.913 5.048,8.874 5.300,8.869 5.304 C 8.864 5.309,7.339 5.018,5.480 4.657 C 3.621 4.296,2.045 4.001,1.977 4.001 C 1.762 4.000,1.487 4.122,1.274 4.313 C 0.961 4.594,0.887 4.864,1.021 5.243 C 1.115 5.508,11.155 22.552,11.308 22.705 C 11.495 22.893,11.736 23.005,11.999 23.029 C 12.271 23.054,12.473 22.966,12.683 22.733 C 12.759 22.649,15.097 18.711,17.879 13.981 C 21.666 7.544,22.947 5.334,22.977 5.190 C 23.005 5.055,23.002 4.931,22.968 4.770 C 22.865 4.277,22.562 4.000,22.126 4.000 C 21.993 4.000,20.823 4.232,19.172 4.586 C 17.669 4.908,16.428 5.162,16.416 5.149 C 16.403 5.136,16.529 4.681,16.696 4.138 C 16.863 3.594,17.000 3.083,17.000 3.001 C 17.000 2.625,16.778 2.215,16.503 2.081 C 16.178 1.924,16.070 1.944,12.693 2.794 M14.497 4.490 C 14.212 5.382,13.059 9.169,13.015 9.358 C 12.943 9.664,12.985 9.900,13.148 10.114 C 13.263 10.265,13.677 10.480,13.853 10.480 C 13.926 10.480,13.961 10.498,13.953 10.533 C 13.946 10.562,13.733 10.949,13.480 11.392 L 13.020 12.198 12.999 11.409 C 12.980 10.697,12.969 10.604,12.890 10.453 C 12.786 10.256,12.622 10.131,12.371 10.055 C 12.049 9.958,11.875 9.985,11.032 10.264 C 10.593 10.408,10.228 10.521,10.221 10.514 C 10.215 10.506,10.324 9.645,10.465 8.600 C 10.606 7.555,10.761 6.386,10.810 6.002 L 10.900 5.305 12.680 4.856 C 13.659 4.609,14.475 4.406,14.493 4.404 C 14.511 4.402,14.512 4.441,14.497 4.490 M6.340 6.861 C 7.572 7.098,8.587 7.298,8.595 7.305 C 8.604 7.312,8.472 8.365,8.302 9.646 C 8.083 11.298,8.001 12.027,8.020 12.156 C 8.080 12.555,8.364 12.915,8.687 13.002 C 8.919 13.064,9.131 13.017,10.142 12.679 C 10.602 12.526,10.983 12.400,10.989 12.400 C 10.995 12.400,11.000 13.260,11.000 14.310 L 11.001 16.220 11.095 16.423 C 11.208 16.665,11.423 16.853,11.712 16.961 C 12.112 17.111,12.391 17.051,12.662 16.756 C 12.759 16.649,13.638 15.153,14.892 12.958 C 17.148 9.010,17.069 9.173,16.961 8.726 C 16.892 8.438,16.711 8.182,16.505 8.083 C 16.315 7.990,15.960 7.973,15.708 8.043 C 15.624 8.066,15.540 8.079,15.521 8.073 C 15.488 8.060,15.662 7.446,15.714 7.393 C 15.746 7.361,19.879 6.473,19.924 6.489 C 19.956 6.500,12.038 19.998,12.000 19.998 C 11.983 19.998,4.563 7.405,4.122 6.628 C 4.039 6.481,4.007 6.394,4.042 6.407 C 4.074 6.419,5.108 6.623,6.340 6.861 " stroke="none" fill="black" fill-rule="evenodd"></path></svg>