<svg xmlns="http://www.w3.org/2000/svg" width="24" height="24" viewBox="0 0 24 24" fill="none" stroke="currentColor" stroke-width="2" stroke-linecap="round" stroke-linejoin="round" class="icon icon-tabler icons-tabler-outline icon-tabler-user-search"><path d="M11.400 2.044 C 9.761 2.229,8.261 3.290,7.526 4.785 C 7.158 5.533,7.020 6.136,7.020 7.000 C 7.020 7.670,7.078 8.044,7.268 8.600 C 7.846 10.291,9.253 11.525,11.040 11.907 C 11.511 12.008,12.489 12.008,12.960 11.907 C 14.488 11.580,15.748 10.630,16.433 9.288 C 16.838 8.494,16.980 7.899,16.980 7.000 C 16.980 6.101,16.838 5.506,16.433 4.713 C 15.794 3.461,14.604 2.510,13.240 2.162 C 12.669 2.016,12.019 1.974,11.400 2.044 M12.861 4.129 C 13.804 4.405,14.584 5.183,14.875 6.139 C 14.958 6.412,14.973 6.542,14.973 7.000 C 14.973 7.458,14.958 7.588,14.875 7.861 C 14.582 8.822,13.819 9.581,12.840 9.886 C 12.406 10.021,11.594 10.021,11.160 9.886 C 10.181 9.581,9.418 8.822,9.125 7.861 C 9.042 7.588,9.027 7.458,9.027 7.000 C 9.027 6.542,9.042 6.412,9.125 6.139 C 9.456 5.054,10.371 4.245,11.499 4.040 C 11.832 3.980,12.500 4.023,12.861 4.129 M9.400 14.044 C 7.761 14.229,6.261 15.290,5.526 16.785 C 5.344 17.154,5.194 17.581,5.097 18.000 C 5.041 18.245,5.025 18.563,5.011 19.744 C 5.000 20.701,5.008 21.243,5.037 21.348 C 5.144 21.748,5.430 21.961,5.896 21.991 C 6.381 22.022,6.699 21.882,6.880 21.558 L 6.980 21.380 7.003 19.920 C 7.026 18.520,7.031 18.447,7.125 18.139 C 7.416 17.184,8.186 16.415,9.139 16.125 C 9.438 16.035,9.543 16.026,10.660 16.003 C 11.966 15.975,12.033 15.964,12.248 15.735 C 12.419 15.553,12.486 15.344,12.486 14.997 C 12.486 14.491,12.303 14.196,11.909 14.064 C 11.752 14.011,11.536 14.001,10.709 14.005 C 10.154 14.008,9.565 14.026,9.400 14.044 M17.358 14.061 C 16.230 14.237,15.143 14.974,14.569 15.953 C 13.320 18.083,14.233 20.785,16.512 21.704 C 17.475 22.092,18.529 22.091,19.498 21.700 C 19.691 21.622,19.887 21.532,19.933 21.500 C 20.012 21.444,20.052 21.476,20.738 22.155 C 21.512 22.921,21.693 23.049,22.000 23.049 C 22.477 23.049,23.049 22.477,23.049 22.000 C 23.049 21.693,22.921 21.512,22.155 20.738 C 21.476 20.052,21.444 20.012,21.500 19.933 C 21.619 19.762,21.844 19.135,21.921 18.757 C 22.070 18.024,21.994 17.230,21.705 16.516 C 21.172 15.197,20.001 14.269,18.605 14.058 C 18.144 13.989,17.816 13.990,17.358 14.061 M18.523 16.073 C 19.262 16.266,19.850 16.924,19.967 17.690 C 20.067 18.343,19.873 18.933,19.403 19.404 C 19.002 19.807,18.547 20.000,18.000 20.000 C 17.485 20.000,17.038 19.822,16.653 19.465 C 15.323 18.229,16.189 16.005,18.000 16.005 C 18.143 16.005,18.378 16.036,18.523 16.073 " stroke="none" fill="black" fill-rule="evenodd"></path></svg>