<svg xmlns="http://www.w3.org/2000/svg" width="24" height="24" viewBox="0 0 24 24" fill="none" stroke="currentColor" stroke-width="2" stroke-linecap="round" stroke-linejoin="round" class="icon icon-tabler icons-tabler-outline icon-tabler-direction"><path d="M11.620 6.046 C 11.387 6.166,8.154 9.409,8.039 9.637 C 7.863 9.990,7.952 10.355,8.299 10.701 C 8.646 11.048,9.011 11.137,9.363 10.960 C 9.479 10.901,9.961 10.452,10.770 9.647 L 12.000 8.423 13.230 9.647 C 14.039 10.452,14.521 10.901,14.637 10.960 C 14.989 11.137,15.354 11.048,15.701 10.701 C 16.048 10.355,16.137 9.990,15.961 9.637 C 15.841 9.397,12.611 6.163,12.372 6.044 C 12.151 5.934,11.836 5.935,11.620 6.046 M8.626 13.045 C 8.420 13.154,8.146 13.433,8.038 13.644 C 7.924 13.867,7.924 14.132,8.039 14.363 C 8.163 14.610,11.390 17.837,11.637 17.961 C 11.868 18.076,12.132 18.076,12.363 17.961 C 12.484 17.900,13.065 17.347,14.206 16.206 C 15.347 15.065,15.900 14.484,15.961 14.363 C 16.137 14.010,16.048 13.645,15.701 13.299 C 15.361 12.958,14.980 12.868,14.628 13.045 C 14.523 13.098,13.999 13.588,13.230 14.353 L 12.000 15.577 10.770 14.353 C 10.001 13.588,9.477 13.098,9.372 13.045 C 9.152 12.934,8.835 12.934,8.626 13.045 " stroke="none" fill="black" fill-rule="evenodd"></path></svg>