<svg xmlns="http://www.w3.org/2000/svg" width="24" height="24" viewBox="0 0 24 24" fill="none" stroke="currentColor" stroke-width="2" stroke-linecap="round" stroke-linejoin="round" class="icon icon-tabler icons-tabler-outline icon-tabler-cannabis"><path d="M11.647 1.021 C 11.454 1.105,11.137 1.448,10.834 1.905 C 9.584 3.780,8.882 5.802,8.777 7.827 L 8.749 8.353 8.505 8.213 C 8.064 7.961,7.308 7.615,6.873 7.466 C 5.751 7.082,4.258 6.892,3.690 7.061 C 3.222 7.200,2.924 7.587,2.972 7.993 C 3.016 8.364,3.788 9.977,4.402 10.982 C 4.896 11.788,5.341 12.381,5.833 12.888 C 5.987 13.047,6.037 13.123,5.997 13.135 C 5.966 13.145,5.841 13.176,5.720 13.203 C 5.019 13.359,3.846 13.862,3.421 14.189 C 3.177 14.376,3.006 14.690,2.973 15.008 C 2.943 15.293,3.059 15.555,3.286 15.720 C 3.684 16.008,6.018 17.175,6.370 17.262 C 6.430 17.277,6.480 17.296,6.480 17.306 C 6.480 17.315,6.425 17.506,6.358 17.731 C 6.095 18.617,5.929 19.958,6.035 20.344 C 6.101 20.585,6.240 20.767,6.442 20.879 C 6.799 21.076,7.631 21.017,8.480 20.735 C 9.118 20.523,10.051 20.024,10.681 19.557 L 11.000 19.320 11.000 20.770 C 11.000 21.618,11.017 22.280,11.041 22.365 C 11.148 22.750,11.437 22.962,11.896 22.991 C 12.381 23.022,12.699 22.882,12.880 22.558 L 12.980 22.380 12.992 20.852 L 13.004 19.324 13.321 19.559 C 14.447 20.393,15.735 20.925,16.780 20.986 C 17.389 21.022,17.685 20.907,17.880 20.558 C 17.973 20.392,17.980 20.345,17.977 19.840 C 17.974 19.209,17.864 18.510,17.656 17.787 C 17.581 17.527,17.520 17.308,17.520 17.301 C 17.520 17.294,17.570 17.277,17.630 17.262 C 17.986 17.174,20.412 15.959,20.678 15.735 C 20.861 15.581,21.040 15.200,21.040 14.963 C 21.040 14.499,20.716 14.182,19.788 13.739 C 19.338 13.524,18.689 13.294,18.280 13.203 C 18.159 13.176,18.034 13.145,18.003 13.135 C 17.963 13.123,18.013 13.047,18.167 12.888 C 18.937 12.094,19.679 10.970,20.400 9.500 C 21.011 8.256,21.072 8.047,20.956 7.620 C 20.846 7.218,20.564 7.044,19.970 7.011 C 18.625 6.938,16.777 7.452,15.420 8.277 C 15.272 8.367,15.145 8.440,15.136 8.440 C 15.127 8.440,15.120 8.345,15.119 8.230 C 15.116 7.177,14.520 5.128,13.640 3.141 C 13.135 2.000,12.843 1.430,12.688 1.284 C 12.372 0.985,11.966 0.882,11.647 1.021 M12.181 4.824 C 12.540 5.711,12.827 6.615,12.974 7.320 C 13.099 7.918,13.129 8.279,13.110 8.931 C 13.087 9.692,13.011 10.034,12.680 10.860 C 12.489 11.339,12.473 11.401,12.487 11.648 C 12.507 11.992,12.633 12.162,13.020 12.360 C 13.251 12.479,13.332 12.500,13.559 12.500 C 13.920 12.500,14.070 12.395,14.465 11.871 C 15.250 10.827,15.950 10.222,16.959 9.717 C 17.342 9.525,18.240 9.187,18.275 9.221 C 18.300 9.247,17.960 9.843,17.660 10.300 C 16.911 11.438,16.157 12.166,15.063 12.808 C 14.364 13.219,14.192 13.340,14.083 13.502 C 13.863 13.828,13.964 14.359,14.315 14.721 C 14.559 14.974,14.724 15.018,15.280 14.979 C 15.921 14.934,16.706 14.950,17.162 15.018 C 17.388 15.052,17.582 15.089,17.593 15.099 C 17.626 15.132,17.157 15.324,16.860 15.399 C 16.706 15.438,16.391 15.482,16.160 15.498 C 15.613 15.533,15.469 15.574,15.277 15.747 C 15.079 15.926,14.980 16.227,15.011 16.561 C 15.027 16.740,15.087 16.893,15.293 17.284 C 15.640 17.941,15.884 18.680,15.754 18.680 C 15.669 18.680,14.967 18.273,14.587 18.003 C 13.784 17.432,13.044 16.764,12.900 16.479 C 12.799 16.280,12.698 16.190,12.412 16.045 C 12.201 15.939,11.947 15.936,11.660 16.037 C 11.355 16.144,11.226 16.247,11.086 16.495 C 10.792 17.016,9.011 18.397,8.275 18.675 C 8.170 18.714,8.170 18.714,8.203 18.567 C 8.284 18.208,8.462 17.748,8.669 17.360 C 9.055 16.636,9.050 16.648,9.032 16.397 C 9.011 16.104,8.885 15.908,8.585 15.702 C 8.366 15.551,8.347 15.546,7.821 15.497 C 7.524 15.469,7.180 15.417,7.057 15.381 C 6.785 15.302,6.380 15.126,6.407 15.099 C 6.418 15.089,6.614 15.052,6.843 15.017 C 7.134 14.973,7.477 14.957,7.980 14.965 C 9.495 14.988,9.407 14.993,9.597 14.867 C 9.804 14.730,9.958 14.423,9.988 14.088 C 10.027 13.655,9.866 13.349,9.485 13.132 C 7.912 12.237,7.206 11.607,6.380 10.362 C 6.088 9.922,5.681 9.227,5.702 9.205 C 5.710 9.197,5.893 9.247,6.108 9.317 C 6.650 9.494,7.470 9.905,7.922 10.226 C 8.420 10.580,9.065 11.229,9.485 11.800 C 9.672 12.053,9.883 12.309,9.954 12.369 C 10.296 12.657,10.764 12.593,11.213 12.197 C 11.579 11.875,11.603 11.539,11.309 10.840 C 10.929 9.935,10.783 9.195,10.785 8.180 C 10.786 6.902,11.051 5.803,11.688 4.432 C 11.884 4.011,11.838 3.975,12.181 4.824 " stroke="none" fill="black" fill-rule="evenodd"></path></svg>