<svg xmlns="http://www.w3.org/2000/svg" width="24" height="24" viewBox="0 0 24 24" fill="none" stroke="currentColor" stroke-width="2" stroke-linecap="round" stroke-linejoin="round" class="icon icon-tabler icons-tabler-outline icon-tabler-credit-card"><path d="M5.358 4.061 C 3.731 4.315,2.417 5.584,2.083 7.227 C 2.002 7.622,2.000 7.744,2.000 12.000 C 2.000 16.256,2.002 16.378,2.083 16.773 C 2.311 17.892,2.985 18.851,3.956 19.436 C 4.285 19.635,4.810 19.832,5.243 19.921 C 5.622 19.998,5.805 20.000,12.000 20.000 C 18.195 20.000,18.378 19.998,18.757 19.921 C 20.117 19.643,21.193 18.755,21.704 17.488 C 21.779 17.300,21.877 16.972,21.921 16.757 C 21.997 16.382,22.000 16.200,22.000 12.000 C 22.000 7.800,21.997 7.618,21.921 7.243 C 21.628 5.806,20.637 4.680,19.245 4.204 C 18.646 3.999,18.690 4.000,11.960 4.004 C 6.959 4.007,5.631 4.018,5.358 4.061 M18.523 6.073 C 18.866 6.163,19.198 6.366,19.454 6.642 C 19.883 7.105,19.998 7.479,19.999 8.410 L 20.000 9.000 12.000 9.000 L 4.000 9.000 4.000 8.398 C 4.000 7.996,4.021 7.704,4.062 7.522 C 4.215 6.850,4.801 6.250,5.477 6.073 C 5.720 6.010,6.211 6.005,12.000 6.005 C 17.789 6.005,18.280 6.010,18.523 6.073 M19.999 13.590 C 19.999 16.413,19.991 16.521,19.772 16.931 C 19.625 17.208,19.191 17.643,18.930 17.775 C 18.462 18.012,18.828 18.000,12.000 18.000 C 5.194 18.000,5.535 18.011,5.083 17.781 C 4.816 17.646,4.449 17.297,4.281 17.017 C 4.004 16.558,4.005 16.564,4.002 13.630 L 4.000 11.000 12.000 11.000 L 20.000 11.000 19.999 13.590 M6.614 14.055 C 6.220 14.184,6.039 14.437,6.009 14.900 C 5.978 15.381,6.119 15.699,6.442 15.880 C 6.597 15.967,6.669 15.980,7.000 15.980 C 7.312 15.980,7.408 15.964,7.540 15.894 C 7.866 15.718,8.000 15.459,8.000 15.000 C 8.000 14.357,7.713 14.048,7.083 14.016 C 6.893 14.006,6.718 14.021,6.614 14.055 M10.614 14.057 C 10.377 14.131,10.212 14.261,10.109 14.453 C 10.035 14.592,10.020 14.684,10.020 15.000 C 10.020 15.331,10.033 15.403,10.120 15.558 C 10.230 15.755,10.414 15.898,10.635 15.959 C 10.826 16.012,13.174 16.012,13.365 15.959 C 13.586 15.898,13.770 15.755,13.880 15.558 C 13.967 15.402,13.980 15.332,13.979 15.000 C 13.978 14.687,13.962 14.591,13.890 14.453 C 13.786 14.256,13.623 14.131,13.371 14.055 C 13.117 13.979,10.859 13.981,10.614 14.057 " stroke="none" fill="black" fill-rule="evenodd"></path></svg>