<svg xmlns="http://www.w3.org/2000/svg" width="24" height="24" viewBox="0 0 24 24" fill="none" stroke="currentColor" stroke-width="2" stroke-linecap="round" stroke-linejoin="round" class="icon icon-tabler icons-tabler-outline icon-tabler-view-360-number"><path d="M2.614 4.057 C 2.377 4.131,2.212 4.261,2.109 4.453 C 2.035 4.592,2.020 4.684,2.020 5.000 C 2.020 5.331,2.033 5.403,2.120 5.558 C 2.230 5.755,2.414 5.898,2.635 5.959 C 2.720 5.983,3.373 6.000,4.200 6.000 C 5.538 6.000,5.627 6.005,5.748 6.078 C 5.970 6.214,6.000 6.324,6.000 7.008 C 6.000 7.544,5.990 7.636,5.922 7.748 C 5.778 7.984,5.701 8.000,4.708 8.000 C 3.756 8.000,3.562 8.028,3.322 8.199 C 3.100 8.357,3.020 8.568,3.020 9.000 C 3.020 9.331,3.033 9.403,3.120 9.558 C 3.230 9.755,3.414 9.898,3.635 9.959 C 3.715 9.981,4.190 10.000,4.692 10.000 C 5.703 10.000,5.777 10.015,5.922 10.252 C 5.990 10.364,6.000 10.456,6.000 10.992 C 6.000 11.676,5.970 11.786,5.748 11.922 C 5.627 11.995,5.538 12.000,4.216 12.000 C 2.723 12.000,2.580 12.015,2.322 12.199 C 2.100 12.357,2.020 12.568,2.020 13.000 C 2.020 13.331,2.033 13.403,2.120 13.558 C 2.233 13.759,2.417 13.900,2.649 13.963 C 2.752 13.990,3.368 14.000,4.413 13.992 L 6.020 13.979 6.320 13.869 C 7.039 13.605,7.601 13.043,7.869 12.320 C 7.980 12.021,7.980 12.016,7.980 11.000 C 7.980 9.987,7.979 9.978,7.870 9.684 C 7.810 9.521,7.705 9.301,7.636 9.194 L 7.512 9.000 7.636 8.806 C 7.705 8.699,7.810 8.479,7.870 8.316 C 7.979 8.022,7.980 8.013,7.980 7.000 C 7.980 5.985,7.979 5.978,7.869 5.680 C 7.643 5.064,7.194 4.561,6.620 4.277 C 6.100 4.020,5.941 4.001,4.260 4.003 C 3.162 4.005,2.737 4.019,2.614 4.057 M10.477 4.073 C 9.806 4.249,9.238 4.823,9.060 5.508 C 9.009 5.702,9.000 6.237,9.000 9.000 C 9.000 12.547,8.996 12.478,9.225 12.930 C 9.361 13.199,9.801 13.639,10.070 13.775 C 10.479 13.982,10.632 14.000,12.000 14.000 C 13.368 14.000,13.521 13.982,13.930 13.775 C 14.196 13.640,14.638 13.200,14.771 12.937 C 14.979 12.527,15.000 12.352,14.999 11.014 C 14.999 9.682,14.974 9.463,14.781 9.083 C 14.646 8.816,14.297 8.449,14.017 8.281 C 13.609 8.035,13.405 8.005,12.130 8.002 L 11.000 8.000 11.000 7.000 L 11.000 6.000 11.994 6.000 L 12.989 6.000 13.013 6.203 C 13.074 6.715,13.426 7.000,14.000 7.000 C 14.618 7.000,14.944 6.706,14.987 6.110 C 15.027 5.565,14.848 5.065,14.465 4.653 C 14.198 4.366,13.870 4.164,13.523 4.073 C 13.134 3.972,10.866 3.972,10.477 4.073 M18.499 4.040 C 17.363 4.246,16.461 5.048,16.114 6.160 L 16.020 6.460 16.020 9.000 L 16.020 11.540 16.114 11.840 C 16.422 12.827,17.174 13.579,18.160 13.886 C 18.594 14.021,19.406 14.021,19.840 13.886 C 20.826 13.579,21.578 12.827,21.886 11.840 L 21.980 11.540 21.980 9.000 L 21.980 6.460 21.886 6.160 C 21.580 5.178,20.810 4.407,19.861 4.129 C 19.500 4.023,18.832 3.980,18.499 4.040 M19.310 6.061 C 19.589 6.144,19.856 6.411,19.939 6.690 C 20.025 6.978,20.030 11.007,19.945 11.290 C 19.872 11.533,19.707 11.740,19.484 11.872 C 19.328 11.963,19.254 11.980,19.000 11.980 C 18.746 11.980,18.672 11.963,18.516 11.872 C 18.415 11.813,18.284 11.700,18.225 11.623 C 18.000 11.327,18.000 11.332,18.000 9.022 C 18.000 6.586,17.997 6.609,18.304 6.303 C 18.583 6.024,18.916 5.944,19.310 6.061 M13.000 11.000 L 13.000 12.000 12.000 12.000 L 11.000 12.000 11.000 11.000 L 11.000 10.000 12.000 10.000 L 13.000 10.000 13.000 11.000 M2.614 15.057 C 2.231 15.177,2.041 15.436,2.010 15.880 C 1.938 16.899,2.663 17.848,4.040 18.540 C 5.395 19.221,7.248 19.676,9.600 19.908 C 10.595 20.005,13.405 20.005,14.400 19.908 C 16.752 19.676,18.605 19.221,19.960 18.540 C 21.342 17.846,22.070 16.888,21.987 15.874 C 21.950 15.417,21.767 15.175,21.371 15.055 C 21.021 14.950,20.588 15.009,20.322 15.199 C 20.159 15.315,20.047 15.543,20.006 15.841 C 19.979 16.037,19.947 16.110,19.836 16.225 C 19.239 16.848,17.500 17.464,15.500 17.761 C 14.289 17.941,13.729 17.975,12.000 17.975 C 10.271 17.975,9.711 17.941,8.500 17.761 C 6.480 17.461,4.711 16.831,4.156 16.214 C 4.040 16.084,4.008 16.011,3.986 15.824 C 3.952 15.541,3.841 15.315,3.678 15.199 C 3.414 15.010,2.957 14.950,2.614 15.057 " stroke="none" fill="black" fill-rule="evenodd"></path></svg>