<svg xmlns="http://www.w3.org/2000/svg" width="24" height="24" viewBox="0 0 24 24" fill="none" stroke="currentColor" stroke-width="2" stroke-linecap="round" stroke-linejoin="round" class="icon icon-tabler icons-tabler-outline icon-tabler-diabolo-plus"><path d="M10.920 2.023 C 8.675 2.170,7.174 2.468,5.740 3.051 C 4.886 3.398,4.315 3.759,3.799 4.277 C 3.225 4.853,3.000 5.358,3.000 6.068 C 3.000 6.490,3.013 6.532,4.052 9.482 C 4.530 10.837,4.920 11.972,4.920 12.005 C 4.920 12.037,4.495 13.287,3.976 14.782 C 3.075 17.375,3.030 17.517,3.011 17.860 C 2.986 18.293,3.053 18.602,3.268 19.040 C 3.382 19.273,3.499 19.426,3.797 19.725 C 4.462 20.395,5.209 20.807,6.535 21.237 C 8.012 21.717,9.512 21.942,11.520 21.987 C 12.759 22.015,12.954 21.988,13.222 21.753 C 13.482 21.525,13.575 21.117,13.465 20.688 C 13.383 20.368,13.311 20.261,13.084 20.128 L 12.900 20.020 11.720 19.993 C 10.096 19.955,9.068 19.837,7.930 19.558 C 6.905 19.306,5.940 18.910,5.447 18.539 C 5.195 18.349,5.000 18.114,5.000 17.999 C 5.000 17.955,6.219 14.393,6.378 13.972 C 6.390 13.938,6.500 13.972,6.728 14.078 C 7.581 14.475,8.844 14.780,10.240 14.927 C 10.902 14.997,13.098 14.997,13.760 14.927 C 14.415 14.858,15.287 14.710,15.793 14.582 C 17.684 14.102,18.751 13.353,18.965 12.353 C 18.990 12.236,19.438 10.925,19.959 9.440 C 20.481 7.955,20.928 6.656,20.954 6.552 C 21.018 6.290,21.011 5.782,20.939 5.498 C 20.819 5.026,20.618 4.692,20.203 4.277 C 19.992 4.067,19.712 3.825,19.581 3.739 C 18.248 2.872,16.465 2.340,14.080 2.098 C 13.533 2.042,11.398 1.992,10.920 2.023 M13.993 4.098 C 15.623 4.269,16.937 4.603,17.940 5.102 C 18.442 5.352,18.824 5.639,18.939 5.853 C 19.018 5.999,19.018 6.001,18.940 6.146 C 18.598 6.780,16.682 7.543,14.740 7.817 C 13.773 7.953,13.353 7.978,12.000 7.978 C 10.647 7.978,10.227 7.953,9.260 7.817 C 7.318 7.543,5.402 6.780,5.060 6.146 C 4.982 6.001,4.982 5.999,5.061 5.853 C 5.313 5.384,6.529 4.787,7.936 4.441 C 8.751 4.240,9.579 4.127,10.980 4.023 C 11.416 3.991,13.453 4.042,13.993 4.098 M6.422 9.202 C 7.444 9.549,8.580 9.774,10.080 9.928 C 10.746 9.996,13.254 9.996,13.920 9.928 C 15.419 9.774,16.556 9.549,17.577 9.202 C 17.773 9.135,17.939 9.086,17.946 9.093 C 17.963 9.109,17.179 11.329,17.115 11.448 C 17.088 11.498,17.045 11.630,17.020 11.740 C 16.980 11.917,16.952 11.956,16.765 12.082 C 16.377 12.344,15.567 12.612,14.660 12.778 C 13.777 12.940,13.253 12.980,12.000 12.980 C 10.747 12.980,10.223 12.940,9.340 12.778 C 8.435 12.613,7.626 12.345,7.234 12.082 C 7.044 11.955,7.017 11.918,6.977 11.739 C 6.953 11.629,6.911 11.497,6.884 11.447 C 6.844 11.372,6.040 9.128,6.040 9.091 C 6.040 9.072,6.056 9.077,6.422 9.202 M18.614 15.057 C 18.377 15.131,18.212 15.261,18.109 15.453 C 18.024 15.613,18.020 15.668,18.008 16.810 L 17.996 18.000 16.904 18.000 C 15.744 18.000,15.570 18.022,15.322 18.199 C 15.100 18.357,15.020 18.568,15.020 19.000 C 15.020 19.331,15.033 19.403,15.120 19.558 C 15.230 19.755,15.414 19.898,15.635 19.959 C 15.716 19.982,16.270 20.000,16.890 20.000 L 18.000 20.000 18.000 21.110 C 18.000 21.730,18.018 22.284,18.041 22.365 C 18.148 22.750,18.437 22.962,18.896 22.991 C 19.381 23.022,19.699 22.882,19.880 22.558 C 19.979 22.381,19.980 22.374,19.993 21.190 L 20.005 20.000 21.113 20.000 C 21.731 20.000,22.284 19.982,22.365 19.959 C 22.586 19.898,22.770 19.755,22.880 19.558 C 22.967 19.402,22.980 19.332,22.979 19.000 C 22.978 18.567,22.898 18.355,22.678 18.199 C 22.430 18.022,22.256 18.000,21.096 18.000 L 20.005 18.000 19.993 16.810 C 19.981 15.669,19.976 15.613,19.891 15.453 C 19.842 15.362,19.746 15.247,19.678 15.199 C 19.414 15.010,18.957 14.950,18.614 15.057 " stroke="none" fill="black" fill-rule="evenodd"></path></svg>