<svg xmlns="http://www.w3.org/2000/svg" width="24" height="24" viewBox="0 0 24 24" fill="none" stroke="currentColor" stroke-width="2" stroke-linecap="round" stroke-linejoin="round" class="icon icon-tabler icons-tabler-outline icon-tabler-texture"><path d="M5.620 2.046 C 5.387 2.166,2.154 5.409,2.039 5.637 C 1.863 5.990,1.952 6.355,2.299 6.701 C 2.645 7.048,3.010 7.137,3.363 6.961 C 3.610 6.837,6.837 3.610,6.961 3.363 C 7.137 3.010,7.048 2.645,6.701 2.299 C 6.361 1.959,5.967 1.867,5.620 2.046 M10.620 2.046 C 10.382 2.168,2.155 10.406,2.039 10.637 C 1.864 10.990,1.953 11.355,2.299 11.701 C 2.645 12.047,3.010 12.136,3.363 11.961 C 3.614 11.835,11.835 3.614,11.961 3.363 C 12.136 3.010,12.047 2.645,11.701 2.299 C 11.361 1.959,10.968 1.867,10.620 2.046 M15.620 2.046 C 15.381 2.168,2.155 15.405,2.039 15.637 C 1.864 15.990,1.953 16.355,2.299 16.701 C 2.645 17.047,3.010 17.136,3.363 16.961 C 3.615 16.835,16.835 3.615,16.961 3.363 C 17.136 3.010,17.047 2.645,16.701 2.299 C 16.362 1.959,15.968 1.867,15.620 2.046 M20.620 2.046 C 20.380 2.169,2.155 20.404,2.039 20.637 C 1.864 20.990,1.953 21.355,2.299 21.701 C 2.645 22.047,3.010 22.136,3.363 21.961 C 3.616 21.835,21.835 3.616,21.961 3.363 C 22.136 3.010,22.047 2.645,21.701 2.299 C 21.362 1.959,20.968 1.867,20.620 2.046 M20.620 7.046 C 20.381 7.168,7.155 20.405,7.039 20.637 C 6.864 20.990,6.953 21.355,7.299 21.701 C 7.645 22.047,8.010 22.136,8.363 21.961 C 8.615 21.835,21.835 8.615,21.961 8.363 C 22.136 8.010,22.047 7.645,21.701 7.299 C 21.362 6.959,20.968 6.867,20.620 7.046 M20.620 12.046 C 20.382 12.168,12.155 20.406,12.039 20.637 C 11.864 20.990,11.953 21.355,12.299 21.701 C 12.645 22.047,13.010 22.136,13.363 21.961 C 13.614 21.835,21.835 13.614,21.961 13.363 C 22.136 13.010,22.047 12.645,21.701 12.299 C 21.361 11.959,20.968 11.867,20.620 12.046 M20.620 17.046 C 20.387 17.166,17.154 20.409,17.039 20.637 C 16.863 20.990,16.952 21.355,17.299 21.701 C 17.645 22.048,18.010 22.137,18.363 21.961 C 18.610 21.837,21.837 18.610,21.961 18.363 C 22.137 18.010,22.048 17.645,21.701 17.299 C 21.361 16.959,20.967 16.867,20.620 17.046 " stroke="none" fill="black" fill-rule="evenodd"></path></svg>