<svg xmlns="http://www.w3.org/2000/svg" width="24" height="24" viewBox="0 0 24 24" fill="none" stroke="currentColor" stroke-width="2" stroke-linecap="round" stroke-linejoin="round" class="icon icon-tabler icons-tabler-outline icon-tabler-device-tablet-pause"><path d="M5.477 2.073 C 4.806 2.249,4.238 2.823,4.060 3.508 C 4.008 3.707,4.000 4.805,4.000 12.000 C 4.000 21.017,3.986 20.458,4.225 20.930 C 4.361 21.199,4.801 21.639,5.070 21.775 C 5.526 22.006,5.409 22.000,9.478 22.000 C 11.862 22.000,13.273 21.985,13.365 21.959 C 13.586 21.898,13.770 21.755,13.880 21.558 C 13.967 21.402,13.980 21.332,13.979 21.000 C 13.978 20.567,13.898 20.355,13.678 20.199 C 13.396 19.998,13.439 20.000,9.594 20.000 L 6.000 20.000 6.000 12.000 L 6.000 4.000 12.000 4.000 L 18.000 4.000 18.000 8.853 C 18.000 14.209,17.989 13.978,18.249 14.229 C 18.442 14.416,18.647 14.487,18.997 14.488 C 19.348 14.490,19.556 14.418,19.751 14.229 C 20.011 13.977,20.000 14.220,19.999 8.743 C 19.999 3.361,20.005 3.524,19.781 3.083 C 19.646 2.816,19.297 2.449,19.017 2.281 C 18.528 1.987,18.983 2.005,12.000 2.005 C 6.211 2.005,5.720 2.010,5.477 2.073 M11.477 15.073 C 10.806 15.249,10.238 15.823,10.060 16.508 C 9.941 16.962,10.003 17.492,10.225 17.930 C 10.361 18.199,10.801 18.639,11.070 18.775 C 11.659 19.073,12.341 19.073,12.930 18.775 C 13.196 18.640,13.638 18.200,13.771 17.937 C 13.994 17.498,14.052 17.007,13.940 16.529 C 13.858 16.182,13.720 15.927,13.465 15.653 C 13.074 15.232,12.560 15.005,12.000 15.005 C 11.857 15.005,11.622 15.036,11.477 15.073 M16.614 16.057 C 16.377 16.131,16.212 16.261,16.109 16.453 L 16.020 16.620 16.009 19.412 C 16.002 21.226,16.012 22.257,16.039 22.356 C 16.144 22.747,16.433 22.961,16.896 22.991 C 17.381 23.022,17.699 22.882,17.880 22.558 L 17.980 22.380 17.980 19.500 L 17.980 16.620 17.891 16.453 C 17.842 16.362,17.746 16.247,17.678 16.199 C 17.414 16.010,16.957 15.950,16.614 16.057 M20.614 16.057 C 20.377 16.131,20.212 16.261,20.109 16.453 L 20.020 16.620 20.009 19.412 C 20.002 21.226,20.012 22.257,20.039 22.356 C 20.144 22.747,20.433 22.961,20.896 22.991 C 21.381 23.022,21.699 22.882,21.880 22.558 L 21.980 22.380 21.980 19.500 L 21.980 16.620 21.891 16.453 C 21.842 16.362,21.746 16.247,21.678 16.199 C 21.414 16.010,20.957 15.950,20.614 16.057 " stroke="none" fill="black" fill-rule="evenodd"></path></svg>