<svg xmlns="http://www.w3.org/2000/svg" width="24" height="24" viewBox="0 0 24 24" fill="none" stroke="currentColor" stroke-width="2" stroke-linecap="round" stroke-linejoin="round" class="icon icon-tabler icons-tabler-outline icon-tabler-brand-etsy"><path d="M7.380 2.043 C 4.783 2.299,2.694 4.202,2.113 6.840 L 2.020 7.260 2.020 12.000 L 2.020 16.740 2.113 17.160 C 2.650 19.599,4.401 21.350,6.840 21.887 L 7.260 21.980 12.000 21.980 L 16.740 21.980 17.160 21.887 C 18.411 21.612,19.414 21.066,20.269 20.195 C 21.107 19.342,21.618 18.384,21.887 17.160 L 21.980 16.740 21.980 12.000 L 21.980 7.260 21.887 6.840 C 21.618 5.616,21.107 4.658,20.269 3.805 C 19.258 2.775,18.009 2.180,16.564 2.039 C 16.102 1.994,7.838 1.997,7.380 2.043 M16.605 4.058 C 18.074 4.280,19.310 5.324,19.797 6.755 C 19.994 7.335,20.000 7.480,20.000 12.000 C 20.000 16.523,19.994 16.667,19.796 17.245 C 19.321 18.632,18.195 19.628,16.773 19.917 C 16.378 19.998,16.256 20.000,12.000 20.000 C 7.744 20.000,7.622 19.998,7.227 19.917 C 5.566 19.579,4.309 18.265,4.058 16.605 C 3.973 16.036,3.973 7.964,4.058 7.395 C 4.314 5.698,5.675 4.324,7.358 4.061 C 7.884 3.979,16.063 3.977,16.605 4.058 M9.477 7.073 C 8.806 7.249,8.238 7.823,8.060 8.508 C 8.009 8.702,8.000 9.237,8.000 12.000 C 8.000 15.547,7.996 15.478,8.225 15.930 C 8.361 16.199,8.801 16.639,9.070 16.775 C 9.516 17.001,9.501 17.000,12.478 17.000 C 14.192 17.000,15.274 16.984,15.365 16.959 C 15.586 16.898,15.770 16.755,15.880 16.558 C 15.967 16.402,15.980 16.332,15.979 16.000 C 15.978 15.567,15.898 15.355,15.678 15.199 C 15.403 15.003,15.363 15.000,12.594 15.000 L 10.000 15.000 10.000 14.000 L 10.000 13.000 12.110 13.000 C 13.400 13.000,14.276 12.984,14.365 12.959 C 14.586 12.898,14.770 12.755,14.880 12.558 C 14.967 12.402,14.980 12.332,14.979 12.000 C 14.978 11.567,14.898 11.355,14.678 11.199 C 14.408 11.006,14.326 11.000,12.094 11.000 L 10.000 11.000 10.000 10.000 L 10.000 9.000 12.610 9.000 C 14.235 9.000,15.275 8.984,15.365 8.959 C 15.586 8.898,15.770 8.755,15.880 8.558 C 15.967 8.402,15.980 8.332,15.979 8.000 C 15.978 7.567,15.898 7.355,15.678 7.199 C 15.401 7.001,15.374 7.000,12.464 7.002 C 10.023 7.004,9.713 7.012,9.477 7.073 " stroke="none" fill="black" fill-rule="evenodd"></path></svg>