<svg xmlns="http://www.w3.org/2000/svg" width="24" height="24" viewBox="0 0 24 24" fill="none" stroke="currentColor" stroke-width="2" stroke-linecap="round" stroke-linejoin="round" class="icon icon-tabler icons-tabler-outline icon-tabler-brand-socket-io"><path d="M11.080 2.045 C 9.507 2.184,7.883 2.751,6.540 3.630 C 5.905 4.045,5.499 4.378,4.919 4.958 C 2.953 6.926,1.919 9.544,2.013 12.320 C 2.084 14.439,2.752 16.328,4.033 18.040 C 4.430 18.570,5.305 19.464,5.800 19.847 C 7.242 20.961,8.787 21.624,10.600 21.907 C 11.247 22.008,12.753 22.008,13.400 21.907 C 15.638 21.557,17.504 20.620,19.062 19.062 C 20.620 17.504,21.557 15.638,21.907 13.400 C 22.008 12.753,22.008 11.247,21.907 10.600 C 21.624 8.786,20.959 7.238,19.847 5.800 C 19.510 5.365,18.639 4.494,18.200 4.154 C 16.133 2.555,13.646 1.818,11.080 2.045 M12.734 4.041 C 14.574 4.216,16.228 4.976,17.554 6.256 C 20.043 8.658,20.702 12.394,19.183 15.499 C 18.749 16.387,18.223 17.105,17.496 17.801 C 16.876 18.394,16.262 18.819,15.471 19.200 C 13.267 20.265,10.733 20.265,8.529 19.200 C 7.477 18.693,6.612 18.015,5.847 17.100 C 3.848 14.711,3.440 11.302,4.816 8.500 C 6.162 5.760,8.867 4.049,11.920 4.005 C 12.129 4.003,12.495 4.019,12.734 4.041 M14.754 5.997 C 14.522 6.072,14.224 6.350,12.214 8.367 C 10.776 9.810,10.101 10.515,10.040 10.637 C 9.830 11.056,10.035 11.589,10.514 11.871 C 10.688 11.973,10.738 11.981,11.280 12.000 C 11.674 12.014,11.817 12.030,11.725 12.050 C 11.650 12.067,11.527 12.119,11.450 12.166 C 11.279 12.272,8.131 16.453,8.028 16.711 C 7.890 17.056,7.977 17.380,8.294 17.696 C 8.646 18.048,9.008 18.138,9.363 17.960 C 9.585 17.849,13.714 13.748,13.873 13.480 C 13.967 13.322,13.980 13.259,13.978 12.960 C 13.974 12.234,13.664 12.001,12.704 11.999 L 12.220 11.999 12.440 11.889 C 12.652 11.783,12.717 11.703,14.265 9.643 C 15.148 8.468,15.909 7.428,15.955 7.332 C 16.063 7.110,16.066 6.809,15.963 6.606 C 15.749 6.187,15.130 5.875,14.754 5.997 " stroke="none" fill="black" fill-rule="evenodd"></path></svg>