<svg xmlns="http://www.w3.org/2000/svg" width="24" height="24" viewBox="0 0 24 24" fill="none" stroke="currentColor" stroke-width="2" stroke-linecap="round" stroke-linejoin="round" class="icon icon-tabler icons-tabler-outline icon-tabler-gender-agender"><path d="M11.540 5.023 C 10.478 5.125,9.692 5.335,8.910 5.726 C 6.838 6.762,5.448 8.666,5.074 10.980 C 5.008 11.393,5.008 12.607,5.074 13.020 C 5.574 16.112,7.888 18.426,10.980 18.926 C 11.392 18.992,12.607 18.992,13.020 18.926 C 16.109 18.428,18.428 16.109,18.926 13.020 C 18.954 12.844,18.977 12.385,18.977 12.000 C 18.977 11.056,18.876 10.462,18.573 9.620 C 17.715 7.237,15.581 5.473,13.102 5.098 C 12.726 5.041,11.813 4.997,11.540 5.023 M12.552 7.043 C 14.230 7.226,15.703 8.251,16.459 9.760 C 16.638 10.117,16.815 10.597,16.861 10.850 L 16.889 11.000 12.000 11.000 L 7.111 11.000 7.139 10.850 C 7.274 10.109,7.857 9.074,8.489 8.453 C 9.580 7.380,11.032 6.876,12.552 7.043 M16.861 13.150 C 16.811 13.428,16.633 13.897,16.436 14.275 C 15.715 15.658,14.502 16.577,12.960 16.907 C 12.714 16.960,12.448 16.980,12.000 16.980 C 11.330 16.980,10.956 16.922,10.400 16.732 C 9.162 16.309,8.126 15.406,7.541 14.240 C 7.362 13.883,7.185 13.404,7.139 13.150 L 7.111 13.000 12.000 13.000 L 16.889 13.000 16.861 13.150 " stroke="none" fill="black" fill-rule="evenodd"></path></svg>