<svg xmlns="http://www.w3.org/2000/svg" width="24" height="24" viewBox="0 0 24 24" fill="none" stroke="currentColor" stroke-width="2" stroke-linecap="round" stroke-linejoin="round" class="icon icon-tabler icons-tabler-outline icon-tabler-circle-minus-2"><path d="M11.420 2.027 C 7.926 2.245,4.855 4.204,3.189 7.280 C 2.668 8.242,2.278 9.436,2.092 10.640 C 1.993 11.281,1.994 12.759,2.095 13.380 C 2.427 15.441,3.167 17.057,4.466 18.560 C 6.141 20.499,8.514 21.712,11.123 21.961 C 11.690 22.016,12.702 21.994,12.933 21.922 C 13.329 21.799,13.554 21.395,13.506 20.891 C 13.464 20.433,13.260 20.134,12.929 20.042 C 12.847 20.019,12.505 20.000,12.168 20.000 C 10.793 20.000,9.650 19.745,8.500 19.183 C 5.073 17.507,3.328 13.718,4.262 9.984 C 4.422 9.343,4.798 8.462,5.173 7.847 C 7.314 4.339,11.762 3.021,15.460 4.800 C 17.758 5.906,19.393 8.042,19.859 10.546 C 20.105 11.870,20.019 13.101,19.579 14.551 C 19.416 15.089,19.408 15.241,19.530 15.479 C 19.644 15.703,19.839 15.858,20.140 15.963 C 20.612 16.129,20.978 16.051,21.223 15.733 C 21.435 15.456,21.765 14.311,21.906 13.360 C 22.003 12.705,22.004 11.264,21.908 10.640 C 21.466 7.781,20.036 5.454,17.703 3.800 C 15.935 2.546,13.612 1.890,11.420 2.027 M15.614 18.057 C 15.377 18.131,15.212 18.261,15.109 18.453 C 15.035 18.592,15.020 18.684,15.020 19.000 C 15.020 19.331,15.033 19.403,15.120 19.558 C 15.230 19.755,15.414 19.898,15.635 19.959 C 15.832 20.014,22.168 20.014,22.365 19.959 C 22.586 19.898,22.770 19.755,22.880 19.558 C 22.967 19.402,22.980 19.332,22.979 19.000 C 22.978 18.567,22.898 18.355,22.678 18.199 C 22.398 17.999,22.411 18.000,18.984 18.003 C 16.472 18.005,15.744 18.017,15.614 18.057 " stroke="none" fill="black" fill-rule="evenodd"></path></svg>