<svg xmlns="http://www.w3.org/2000/svg" width="24" height="24" viewBox="0 0 24 24" fill="none" stroke="currentColor" stroke-width="2" stroke-linecap="round" stroke-linejoin="round" class="icon icon-tabler icons-tabler-outline icon-tabler-library"><path d="M9.280 2.025 C 8.674 2.120,8.289 2.241,7.898 2.460 C 7.160 2.872,6.519 3.609,6.245 4.360 C 6.005 5.018,6.020 4.636,6.020 10.000 C 6.020 15.364,6.005 14.982,6.245 15.640 C 6.581 16.559,7.441 17.419,8.360 17.755 C 9.018 17.995,8.636 17.980,14.000 17.980 C 19.364 17.980,18.982 17.995,19.640 17.755 C 20.559 17.419,21.419 16.559,21.755 15.640 C 21.995 14.982,21.980 15.364,21.980 10.000 C 21.980 4.636,21.995 5.018,21.755 4.360 C 21.419 3.442,20.564 2.586,19.640 2.244 C 19.009 2.011,19.326 2.024,14.140 2.016 C 11.522 2.013,9.335 2.017,9.280 2.025 M18.926 4.111 C 19.365 4.289,19.711 4.635,19.889 5.074 L 19.980 5.300 19.991 9.856 C 19.998 12.822,19.988 14.488,19.961 14.631 C 19.843 15.269,19.372 15.777,18.740 15.946 C 18.445 16.024,9.555 16.024,9.260 15.946 C 8.632 15.778,8.160 15.273,8.040 14.642 C 7.985 14.352,7.985 5.648,8.040 5.358 C 8.164 4.707,8.689 4.170,9.327 4.042 C 9.422 4.023,11.570 4.011,14.100 4.014 L 18.700 4.020 18.926 4.111 M10.614 6.057 C 10.377 6.131,10.212 6.261,10.109 6.453 C 10.035 6.592,10.020 6.684,10.020 7.000 C 10.020 7.331,10.033 7.403,10.120 7.558 C 10.230 7.755,10.414 7.898,10.635 7.959 C 10.832 8.014,16.168 8.014,16.365 7.959 C 16.586 7.898,16.770 7.755,16.880 7.558 C 16.967 7.402,16.980 7.332,16.979 7.000 C 16.978 6.567,16.898 6.355,16.678 6.199 C 16.401 6.002,16.373 6.000,13.484 6.003 C 11.382 6.005,10.743 6.017,10.614 6.057 M3.920 6.239 C 3.843 6.253,3.669 6.324,3.533 6.396 C 2.875 6.747,2.365 7.396,2.114 8.200 L 2.020 8.500 2.020 14.040 L 2.020 19.580 2.125 19.887 C 2.297 20.391,2.495 20.704,2.897 21.104 C 3.318 21.523,3.683 21.746,4.178 21.888 L 4.500 21.980 9.980 21.980 L 15.460 21.980 15.750 21.889 C 16.260 21.729,16.701 21.420,17.030 20.993 C 17.746 20.064,17.711 19.501,16.911 19.101 C 16.580 18.936,16.323 18.915,16.088 19.036 C 15.904 19.131,15.781 19.264,15.558 19.609 C 15.449 19.778,15.336 19.901,15.256 19.939 C 15.143 19.993,14.503 20.000,9.991 20.000 C 4.253 20.000,4.628 20.019,4.326 19.716 C 4.240 19.630,4.135 19.492,4.094 19.410 C 4.023 19.266,4.019 19.037,4.008 14.080 C 3.999 10.319,4.009 8.856,4.041 8.740 C 4.106 8.512,4.254 8.312,4.471 8.160 C 4.798 7.931,4.959 7.754,5.017 7.557 C 5.112 7.237,4.990 6.846,4.691 6.516 C 4.467 6.267,4.230 6.183,3.920 6.239 M10.614 9.057 C 10.377 9.131,10.212 9.261,10.109 9.453 C 10.035 9.592,10.020 9.684,10.020 10.000 C 10.020 10.331,10.033 10.403,10.120 10.558 C 10.230 10.755,10.414 10.898,10.635 10.959 C 10.832 11.014,17.168 11.014,17.365 10.959 C 17.586 10.898,17.770 10.755,17.880 10.558 C 17.967 10.402,17.980 10.332,17.979 10.000 C 17.978 9.567,17.898 9.355,17.678 9.199 C 17.398 8.999,17.411 9.000,13.984 9.003 C 11.472 9.005,10.744 9.017,10.614 9.057 M10.614 12.057 C 10.377 12.131,10.212 12.261,10.109 12.453 C 10.035 12.592,10.020 12.684,10.020 13.000 C 10.020 13.331,10.033 13.403,10.120 13.558 C 10.230 13.755,10.414 13.898,10.635 13.959 C 10.722 13.983,11.470 14.000,12.500 14.000 C 13.530 14.000,14.278 13.983,14.365 13.959 C 14.586 13.898,14.770 13.755,14.880 13.558 C 14.967 13.402,14.980 13.332,14.979 13.000 C 14.978 12.687,14.962 12.591,14.890 12.453 C 14.786 12.256,14.623 12.131,14.371 12.055 C 14.114 11.978,10.862 11.980,10.614 12.057 " stroke="none" fill="black" fill-rule="evenodd"></path></svg>