<svg xmlns="http://www.w3.org/2000/svg" width="24" height="24" viewBox="0 0 24 24" fill="none" stroke="currentColor" stroke-width="2" stroke-linecap="round" stroke-linejoin="round" class="icon icon-tabler icons-tabler-outline icon-tabler-hexagonal-pyramid-plus"><path d="M11.746 1.006 C 11.498 1.043,11.076 1.212,10.858 1.361 C 10.765 1.426,10.612 1.564,10.519 1.669 C 10.338 1.874,2.421 14.912,2.254 15.280 C 2.069 15.689,1.988 16.130,2.013 16.600 C 2.049 17.315,2.243 17.833,2.670 18.360 C 2.932 18.683,5.382 21.132,5.680 21.369 C 5.927 21.565,6.325 21.775,6.660 21.886 L 6.940 21.979 9.780 21.992 C 11.830 22.002,12.679 21.993,12.833 21.959 C 13.262 21.866,13.486 21.537,13.486 21.000 C 13.486 20.491,13.304 20.196,12.909 20.064 C 12.742 20.008,12.424 20.000,10.496 20.000 C 8.399 20.000,8.276 19.996,8.295 19.930 C 8.306 19.892,9.139 16.742,10.146 12.930 C 11.153 9.118,11.987 6.000,12.000 6.000 C 12.013 6.000,12.533 7.930,13.157 10.290 C 13.780 12.650,14.325 14.693,14.367 14.831 C 14.511 15.301,14.882 15.563,15.320 15.504 C 15.957 15.417,16.320 15.080,16.320 14.573 C 16.320 14.487,15.896 12.815,15.379 10.858 C 14.861 8.901,14.412 7.203,14.381 7.084 C 14.350 6.966,14.339 6.885,14.356 6.904 C 14.374 6.924,15.160 8.218,16.104 9.780 C 17.048 11.342,17.882 12.689,17.957 12.773 C 18.340 13.199,18.880 13.176,19.384 12.713 C 19.710 12.413,19.769 12.083,19.570 11.674 C 19.509 11.550,18.155 9.291,16.560 6.655 C 13.997 2.419,13.630 1.831,13.400 1.600 C 12.949 1.146,12.321 0.920,11.746 1.006 M9.638 7.010 C 9.619 7.082,8.909 9.768,8.060 12.980 C 7.211 16.192,6.487 18.925,6.452 19.053 L 6.388 19.287 5.311 18.213 C 4.719 17.623,4.186 17.059,4.127 16.960 C 4.038 16.810,4.020 16.734,4.021 16.500 C 4.022 16.307,4.045 16.177,4.096 16.080 C 4.187 15.907,9.650 6.880,9.664 6.880 C 9.669 6.880,9.658 6.939,9.638 7.010 M18.614 15.057 C 18.377 15.131,18.212 15.261,18.109 15.453 C 18.024 15.613,18.020 15.668,18.008 16.810 L 17.996 18.000 16.904 18.000 C 15.744 18.000,15.570 18.022,15.322 18.199 C 15.100 18.357,15.020 18.568,15.020 19.000 C 15.020 19.331,15.033 19.403,15.120 19.558 C 15.230 19.755,15.414 19.898,15.635 19.959 C 15.716 19.982,16.270 20.000,16.890 20.000 L 18.000 20.000 18.000 21.110 C 18.000 21.730,18.018 22.284,18.041 22.365 C 18.148 22.750,18.437 22.962,18.896 22.991 C 19.381 23.022,19.699 22.882,19.880 22.558 C 19.979 22.381,19.980 22.374,19.993 21.190 L 20.005 20.000 21.113 20.000 C 21.731 20.000,22.284 19.982,22.365 19.959 C 22.586 19.898,22.770 19.755,22.880 19.558 C 22.967 19.402,22.980 19.332,22.979 19.000 C 22.978 18.567,22.898 18.355,22.678 18.199 C 22.430 18.022,22.256 18.000,21.096 18.000 L 20.005 18.000 19.993 16.810 C 19.981 15.669,19.976 15.613,19.891 15.453 C 19.842 15.362,19.746 15.247,19.678 15.199 C 19.414 15.010,18.957 14.950,18.614 15.057 " stroke="none" fill="black" fill-rule="evenodd"></path></svg>