<svg xmlns="http://www.w3.org/2000/svg" width="24" height="24" viewBox="0 0 24 24" fill="none" stroke="currentColor" stroke-width="2" stroke-linecap="round" stroke-linejoin="round" class="icon icon-tabler icons-tabler-outline icon-tabler-arrows-transfer-down"><path d="M16.530 2.083 C 16.393 2.150,16.249 2.252,16.210 2.310 C 16.172 2.369,15.463 3.101,14.635 3.938 C 13.635 4.949,13.099 5.520,13.040 5.637 C 12.863 5.989,12.952 6.354,13.299 6.701 C 13.646 7.048,14.012 7.137,14.363 6.959 C 14.469 6.905,14.832 6.580,15.270 6.147 L 16.000 5.425 16.000 7.322 C 16.000 8.470,16.016 9.277,16.041 9.365 C 16.148 9.750,16.437 9.962,16.896 9.991 C 17.381 10.022,17.699 9.882,17.880 9.558 L 17.980 9.380 17.992 7.404 L 18.004 5.428 18.732 6.149 C 19.168 6.581,19.531 6.905,19.637 6.959 C 19.988 7.137,20.354 7.048,20.701 6.701 C 21.048 6.354,21.137 5.989,20.960 5.637 C 20.901 5.520,20.365 4.949,19.365 3.938 C 18.537 3.101,17.828 2.369,17.789 2.310 C 17.751 2.252,17.604 2.149,17.464 2.082 C 17.120 1.918,16.871 1.918,16.530 2.083 M6.614 2.057 C 6.377 2.131,6.212 2.261,6.109 2.453 L 6.020 2.620 6.010 10.597 L 5.999 18.575 5.270 17.853 C 4.856 17.443,4.467 17.094,4.372 17.045 C 4.021 16.868,3.640 16.958,3.299 17.299 C 2.952 17.646,2.863 18.011,3.040 18.363 C 3.099 18.480,3.635 19.051,4.635 20.062 C 5.463 20.899,6.174 21.634,6.216 21.697 C 6.318 21.850,6.762 22.049,7.000 22.049 C 7.238 22.049,7.682 21.850,7.784 21.697 C 7.826 21.634,8.537 20.899,9.365 20.062 C 10.365 19.051,10.901 18.480,10.960 18.363 C 11.137 18.011,11.048 17.646,10.701 17.299 C 10.360 16.958,9.979 16.868,9.628 17.045 C 9.533 17.094,9.144 17.443,8.730 17.853 L 8.001 18.574 7.990 10.597 L 7.980 2.620 7.891 2.453 C 7.842 2.362,7.746 2.247,7.678 2.199 C 7.414 2.010,6.957 1.950,6.614 2.057 M16.614 12.057 C 16.377 12.131,16.212 12.261,16.109 12.453 C 16.023 12.614,16.020 12.665,16.008 13.908 C 16.000 14.720,16.011 15.254,16.038 15.352 C 16.144 15.747,16.432 15.961,16.896 15.991 C 17.381 16.022,17.699 15.882,17.880 15.558 L 17.980 15.380 17.980 14.000 C 17.980 12.650,17.978 12.616,17.891 12.453 C 17.842 12.362,17.746 12.247,17.678 12.199 C 17.414 12.010,16.957 11.950,16.614 12.057 M16.614 18.057 C 16.377 18.131,16.212 18.261,16.109 18.453 C 16.023 18.614,16.020 18.665,16.008 19.908 C 16.000 20.720,16.011 21.254,16.038 21.352 C 16.144 21.747,16.432 21.961,16.896 21.991 C 17.381 22.022,17.699 21.882,17.880 21.558 L 17.980 21.380 17.980 20.000 C 17.980 18.650,17.978 18.616,17.891 18.453 C 17.842 18.362,17.746 18.247,17.678 18.199 C 17.414 18.010,16.957 17.950,16.614 18.057 " stroke="none" fill="black" fill-rule="evenodd"></path></svg>