<svg xmlns="http://www.w3.org/2000/svg" width="24" height="24" viewBox="0 0 24 24" fill="none" stroke="currentColor" stroke-width="2" stroke-linecap="round" stroke-linejoin="round" class="icon icon-tabler icons-tabler-outline icon-tabler-circuit-capacitor-polarized"><path d="M18.614 2.057 C 18.377 2.131,18.212 2.261,18.109 2.453 C 18.029 2.603,18.019 2.689,18.007 3.310 L 17.993 4.000 17.403 4.000 C 16.577 4.000,16.299 4.097,16.109 4.453 C 16.035 4.592,16.020 4.684,16.020 5.000 C 16.020 5.331,16.033 5.403,16.120 5.558 C 16.230 5.755,16.414 5.898,16.635 5.959 C 16.715 5.981,17.055 6.000,17.390 6.000 L 18.000 6.000 18.000 6.610 C 18.000 6.946,18.019 7.285,18.041 7.365 C 18.148 7.750,18.437 7.962,18.896 7.991 C 19.381 8.022,19.699 7.882,19.880 7.558 C 19.974 7.391,19.981 7.338,19.994 6.690 L 20.008 6.000 20.614 6.000 C 20.947 6.000,21.285 5.981,21.365 5.959 C 21.586 5.898,21.770 5.755,21.880 5.558 C 21.967 5.402,21.980 5.332,21.979 5.000 C 21.978 4.687,21.962 4.591,21.890 4.453 C 21.702 4.098,21.423 4.000,20.598 4.000 L 20.008 4.000 19.993 3.310 C 19.976 2.541,19.930 2.378,19.678 2.199 C 19.414 2.010,18.957 1.950,18.614 2.057 M9.614 6.057 C 9.377 6.131,9.212 6.261,9.109 6.453 C 9.021 6.619,9.020 6.633,9.009 8.810 L 8.997 11.000 5.405 11.000 C 1.561 11.000,1.604 10.998,1.322 11.199 C 1.100 11.357,1.020 11.568,1.020 12.000 C 1.020 12.331,1.033 12.403,1.120 12.558 C 1.230 12.755,1.414 12.898,1.635 12.959 C 1.727 12.985,3.095 13.000,5.390 13.000 L 9.000 13.000 9.000 15.110 C 9.000 16.400,9.016 17.276,9.041 17.365 C 9.148 17.750,9.437 17.962,9.896 17.991 C 10.381 18.022,10.699 17.882,10.880 17.558 L 10.980 17.380 10.980 12.000 L 10.980 6.620 10.891 6.453 C 10.842 6.362,10.746 6.247,10.678 6.199 C 10.414 6.010,9.957 5.950,9.614 6.057 M13.614 6.057 C 13.377 6.131,13.212 6.261,13.109 6.453 L 13.020 6.620 13.009 11.914 C 13.002 15.393,13.013 17.259,13.039 17.358 C 13.144 17.747,13.434 17.961,13.896 17.991 C 14.381 18.022,14.699 17.882,14.880 17.558 L 14.980 17.380 14.992 15.190 L 15.003 13.000 18.612 13.000 C 20.906 13.000,22.273 12.985,22.365 12.959 C 22.586 12.898,22.770 12.755,22.880 12.558 C 22.967 12.402,22.980 12.332,22.979 12.000 C 22.978 11.567,22.898 11.355,22.678 11.199 C 22.396 10.998,22.439 11.000,18.595 11.000 L 15.003 11.000 14.992 8.810 C 14.980 6.633,14.979 6.619,14.891 6.453 C 14.842 6.362,14.746 6.247,14.678 6.199 C 14.414 6.010,13.957 5.950,13.614 6.057 " stroke="none" fill="black" fill-rule="evenodd"></path></svg>