<svg xmlns="http://www.w3.org/2000/svg" width="24" height="24" viewBox="0 0 24 24" fill="none" stroke="currentColor" stroke-width="2" stroke-linecap="round" stroke-linejoin="round" class="icon icon-tabler icons-tabler-outline icon-tabler-flip-flops"><path d="M5.340 3.043 C 4.096 3.213,2.967 3.807,2.169 4.713 C 1.516 5.454,1.145 6.300,1.030 7.311 C 0.987 7.691,1.008 8.093,1.296 12.431 C 1.467 15.021,1.634 17.293,1.665 17.480 C 1.920 18.996,3.032 20.264,4.540 20.756 C 5.160 20.958,5.301 20.980,6.000 20.980 C 6.686 20.980,6.835 20.958,7.420 20.771 C 8.593 20.396,9.585 19.508,10.063 18.405 C 10.222 18.038,10.300 17.754,10.359 17.330 C 10.412 16.943,11.000 8.101,11.000 7.685 C 10.999 6.025,9.940 4.372,8.368 3.580 C 7.919 3.353,7.440 3.186,7.000 3.102 C 6.583 3.022,5.718 2.991,5.340 3.043 M17.480 3.025 C 16.125 3.198,14.998 3.772,14.169 4.713 C 13.516 5.454,13.145 6.300,13.030 7.311 C 12.987 7.691,13.008 8.093,13.296 12.431 C 13.467 15.021,13.634 17.293,13.665 17.480 C 13.920 18.996,15.032 20.264,16.540 20.756 C 17.160 20.958,17.301 20.980,18.000 20.980 C 18.686 20.980,18.835 20.958,19.420 20.771 C 20.593 20.396,21.585 19.508,22.063 18.405 C 22.222 18.038,22.300 17.754,22.359 17.330 C 22.412 16.943,23.000 8.101,23.000 7.685 C 22.999 6.025,21.940 4.372,20.368 3.580 C 19.919 3.353,19.440 3.186,19.000 3.102 C 18.662 3.037,17.747 2.991,17.480 3.025 M6.879 5.121 C 7.396 5.267,7.775 5.493,8.184 5.899 C 8.483 6.195,8.579 6.322,8.715 6.600 C 9.003 7.189,9.020 7.349,8.937 8.710 C 8.897 9.354,8.855 9.880,8.843 9.879 C 8.830 9.879,8.763 9.793,8.694 9.689 C 8.002 8.647,6.972 8.003,6.000 8.003 C 5.412 8.003,4.766 8.248,4.232 8.672 C 3.918 8.923,3.484 9.398,3.289 9.707 C 3.229 9.802,3.170 9.880,3.158 9.880 C 3.146 9.880,3.104 9.371,3.065 8.750 C 3.008 7.850,3.003 7.563,3.039 7.340 C 3.133 6.763,3.394 6.290,3.865 5.843 C 4.498 5.243,5.215 4.983,6.140 5.019 C 6.420 5.030,6.689 5.067,6.879 5.121 M18.879 5.121 C 19.396 5.267,19.775 5.493,20.184 5.899 C 20.483 6.195,20.579 6.322,20.715 6.600 C 21.003 7.189,21.020 7.349,20.937 8.710 C 20.897 9.354,20.855 9.880,20.843 9.879 C 20.830 9.879,20.763 9.793,20.694 9.689 C 20.002 8.647,18.972 8.003,18.000 8.003 C 17.412 8.003,16.766 8.248,16.232 8.672 C 15.918 8.923,15.484 9.398,15.289 9.707 C 15.229 9.802,15.170 9.880,15.158 9.880 C 15.146 9.880,15.104 9.371,15.065 8.750 C 15.008 7.850,15.003 7.563,15.039 7.340 C 15.133 6.763,15.394 6.290,15.865 5.843 C 16.498 5.243,17.215 4.983,18.140 5.019 C 18.420 5.030,18.689 5.067,18.879 5.121 M6.314 10.097 C 6.975 10.432,7.784 11.881,8.398 13.827 L 8.563 14.354 8.480 15.627 C 8.435 16.327,8.378 17.023,8.354 17.173 C 8.240 17.907,7.630 18.589,6.839 18.867 C 6.445 19.006,5.830 19.038,5.421 18.942 C 4.504 18.727,3.775 18.000,3.646 17.173 C 3.622 17.023,3.565 16.327,3.520 15.627 L 3.437 14.354 3.602 13.827 C 4.211 11.893,5.019 10.442,5.677 10.099 C 5.912 9.977,6.076 9.976,6.314 10.097 M18.314 10.097 C 18.975 10.432,19.784 11.881,20.398 13.827 L 20.563 14.354 20.480 15.627 C 20.435 16.327,20.378 17.023,20.354 17.173 C 20.240 17.907,19.630 18.589,18.839 18.867 C 18.445 19.006,17.830 19.038,17.421 18.942 C 16.504 18.727,15.775 18.000,15.646 17.173 C 15.622 17.023,15.565 16.327,15.520 15.627 L 15.437 14.354 15.602 13.827 C 16.211 11.893,17.019 10.442,17.677 10.099 C 17.912 9.977,18.076 9.976,18.314 10.097 M5.614 15.057 C 5.377 15.131,5.212 15.261,5.109 15.453 C 5.027 15.606,5.019 15.684,5.007 16.405 C 4.999 16.880,5.011 17.252,5.037 17.349 C 5.144 17.748,5.430 17.961,5.896 17.991 C 6.381 18.022,6.699 17.882,6.880 17.558 C 6.978 17.383,6.980 17.364,6.980 16.500 C 6.980 15.667,6.975 15.611,6.891 15.453 C 6.842 15.362,6.746 15.247,6.678 15.199 C 6.414 15.010,5.957 14.950,5.614 15.057 M17.614 15.057 C 17.377 15.131,17.212 15.261,17.109 15.453 C 17.027 15.606,17.019 15.684,17.007 16.405 C 16.999 16.880,17.011 17.252,17.037 17.349 C 17.144 17.748,17.430 17.961,17.896 17.991 C 18.381 18.022,18.699 17.882,18.880 17.558 C 18.978 17.383,18.980 17.364,18.980 16.500 C 18.980 15.667,18.975 15.611,18.891 15.453 C 18.842 15.362,18.746 15.247,18.678 15.199 C 18.414 15.010,17.957 14.950,17.614 15.057 " stroke="none" fill="black" fill-rule="evenodd"></path></svg>