<svg xmlns="http://www.w3.org/2000/svg" width="24" height="24" viewBox="0 0 24 24" fill="none" stroke="currentColor" stroke-width="2" stroke-linecap="round" stroke-linejoin="round" class="icon icon-tabler icons-tabler-outline icon-tabler-backhoe"><path d="M17.640 4.062 C 17.454 4.148,17.115 4.468,15.460 6.122 L 13.500 8.079 13.393 7.890 C 13.102 7.371,12.420 6.751,11.804 6.443 C 11.023 6.053,10.617 5.992,8.921 6.008 L 7.658 6.020 7.459 6.122 C 7.245 6.233,7.105 6.404,7.041 6.635 C 7.016 6.724,7.000 7.600,7.000 8.890 L 7.000 11.000 6.370 11.002 C 5.410 11.006,5.002 11.150,4.535 11.653 C 4.109 12.112,4.000 12.460,4.000 13.363 L 4.000 13.990 3.714 14.018 C 2.495 14.138,1.484 14.971,1.114 16.160 C 0.979 16.594,0.979 17.406,1.114 17.840 C 1.421 18.826,2.173 19.578,3.160 19.886 L 3.460 19.980 8.500 19.980 L 13.540 19.980 13.840 19.886 C 14.808 19.584,15.552 18.852,15.872 17.887 C 15.961 17.620,15.974 17.508,15.977 17.020 C 15.980 16.539,15.967 16.418,15.886 16.160 C 15.635 15.354,15.078 14.693,14.330 14.313 L 14.000 14.145 14.000 12.282 L 14.000 10.420 15.914 8.506 L 17.829 6.592 18.834 8.165 L 19.840 9.738 17.924 11.659 C 16.609 12.978,15.981 13.636,15.920 13.757 C 15.736 14.125,15.835 14.485,16.224 14.866 C 17.366 15.981,19.099 16.304,20.572 15.677 C 21.193 15.413,21.943 14.802,22.286 14.280 C 23.318 12.713,23.220 10.826,22.034 9.395 C 21.949 9.293,21.186 8.123,20.337 6.795 C 19.488 5.467,18.736 4.320,18.667 4.246 C 18.380 3.945,18.031 3.882,17.640 4.062 M10.523 8.073 C 11.054 8.212,11.551 8.628,11.807 9.148 C 11.918 9.374,11.942 9.471,11.952 9.739 C 11.958 9.916,11.974 10.272,11.987 10.530 L 12.010 11.000 10.505 11.000 L 9.000 11.000 9.000 9.500 L 9.000 8.000 9.630 8.002 C 10.090 8.004,10.331 8.023,10.523 8.073 M20.981 11.819 C 21.087 12.802,20.358 13.770,19.368 13.962 C 19.130 14.008,18.581 13.994,18.527 13.940 C 18.496 13.910,20.886 11.519,20.924 11.543 C 20.941 11.553,20.966 11.677,20.981 11.819 M12.000 13.500 L 12.000 14.000 9.000 14.000 L 6.000 14.000 6.000 13.500 L 6.000 13.000 9.000 13.000 L 12.000 13.000 12.000 13.500 M4.334 16.064 C 4.698 16.188,5.000 16.613,5.000 17.001 C 5.000 17.331,4.784 17.696,4.484 17.872 C 4.328 17.963,4.254 17.980,4.000 17.980 C 3.746 17.980,3.672 17.963,3.516 17.872 C 2.937 17.531,2.833 16.774,3.301 16.306 C 3.587 16.019,3.952 15.934,4.334 16.064 M10.146 16.057 C 9.972 16.511,9.972 17.489,10.146 17.943 C 10.165 17.992,9.934 18.000,8.500 18.000 C 7.066 18.000,6.835 17.992,6.854 17.943 C 7.028 17.489,7.028 16.511,6.854 16.057 C 6.835 16.008,7.066 16.000,8.500 16.000 C 9.934 16.000,10.165 16.008,10.146 16.057 M13.334 16.064 C 13.698 16.188,14.000 16.613,14.000 17.001 C 14.000 17.331,13.784 17.696,13.484 17.872 C 13.328 17.963,13.254 17.980,13.000 17.980 C 12.746 17.980,12.672 17.963,12.516 17.872 C 11.937 17.531,11.833 16.774,12.301 16.306 C 12.587 16.019,12.952 15.934,13.334 16.064 " stroke="none" fill="black" fill-rule="evenodd"></path></svg>