<svg xmlns="http://www.w3.org/2000/svg" width="24" height="24" viewBox="0 0 24 24" fill="none" stroke="currentColor" stroke-width="2" stroke-linecap="round" stroke-linejoin="round" class="icon icon-tabler icons-tabler-outline icon-tabler-receipt-euro"><path d="M6.499 2.043 C 5.390 2.231,4.488 3.024,4.114 4.140 L 4.020 4.420 4.000 12.780 C 3.979 21.724,3.971 21.345,4.173 21.647 C 4.297 21.832,4.689 22.038,4.920 22.038 C 5.226 22.040,5.627 21.891,5.780 21.719 C 5.824 21.669,6.311 21.328,6.863 20.959 L 7.866 20.289 8.663 21.079 C 9.515 21.924,9.687 22.049,10.000 22.049 C 10.307 22.049,10.487 21.921,11.270 21.147 L 12.000 20.425 12.730 21.147 C 13.513 21.921,13.693 22.049,14.000 22.049 C 14.313 22.049,14.485 21.924,15.337 21.079 L 16.134 20.289 17.332 21.088 C 17.990 21.527,18.601 21.912,18.690 21.943 C 19.146 22.104,19.669 21.936,19.880 21.558 L 19.980 21.380 19.980 12.920 L 19.980 4.460 19.886 4.160 C 19.581 3.182,18.832 2.428,17.861 2.121 L 17.540 2.020 12.120 2.014 C 9.139 2.011,6.609 2.024,6.499 2.043 M17.310 4.061 C 17.592 4.144,17.858 4.412,17.940 4.693 C 17.993 4.876,17.999 5.769,17.990 12.011 L 17.980 19.120 17.260 18.638 C 16.864 18.372,16.468 18.118,16.380 18.072 C 16.172 17.962,15.837 17.957,15.620 18.059 C 15.526 18.103,15.157 18.434,14.730 18.855 L 14.000 19.575 13.270 18.853 C 12.856 18.444,12.467 18.094,12.372 18.045 C 12.149 17.933,11.851 17.933,11.628 18.045 C 11.533 18.094,11.144 18.444,10.730 18.853 L 10.000 19.575 9.270 18.855 C 8.843 18.434,8.474 18.103,8.380 18.059 C 8.163 17.957,7.828 17.962,7.620 18.072 C 7.532 18.118,7.136 18.372,6.740 18.638 L 6.020 19.120 6.010 12.011 C 5.999 4.009,5.975 4.631,6.303 4.303 C 6.621 3.985,6.233 4.006,11.983 4.003 C 16.458 4.000,17.131 4.008,17.310 4.061 M12.642 6.043 C 11.229 6.226,9.945 7.365,9.363 8.953 C 9.267 9.215,9.182 9.522,9.098 9.910 C 9.083 9.981,9.051 10.000,8.946 10.000 C 8.762 10.000,8.470 10.093,8.322 10.199 C 8.139 10.329,8.030 10.573,8.009 10.900 C 7.967 11.552,8.261 11.937,8.842 11.990 C 9.044 12.008,9.084 12.024,9.099 12.096 C 9.229 12.701,9.388 13.178,9.602 13.607 C 10.030 14.463,10.767 15.230,11.520 15.603 C 12.873 16.275,14.329 16.085,15.503 15.085 C 16.154 14.530,16.220 14.018,15.707 13.505 C 15.467 13.264,15.252 13.160,15.000 13.160 C 14.750 13.160,14.630 13.220,14.221 13.546 C 13.732 13.937,13.292 14.064,12.798 13.960 C 12.546 13.906,12.183 13.713,11.986 13.527 C 11.680 13.240,11.337 12.685,11.184 12.229 C 11.149 12.123,11.120 12.029,11.120 12.019 C 11.120 12.008,11.592 12.000,12.170 12.000 C 12.750 12.000,13.285 11.982,13.365 11.959 C 13.586 11.898,13.770 11.755,13.880 11.558 C 13.967 11.402,13.980 11.332,13.979 11.000 C 13.978 10.567,13.898 10.355,13.678 10.199 C 13.432 10.023,13.252 10.000,12.154 10.000 C 11.585 10.000,11.120 9.992,11.120 9.981 C 11.120 9.918,11.269 9.539,11.385 9.305 C 11.843 8.388,12.581 7.906,13.337 8.031 C 13.679 8.087,13.900 8.196,14.255 8.480 C 14.624 8.776,14.772 8.849,15.003 8.849 C 15.359 8.849,15.786 8.530,15.968 8.127 C 16.154 7.716,16.014 7.351,15.503 6.915 C 14.659 6.196,13.707 5.906,12.642 6.043 " stroke="none" fill="black" fill-rule="evenodd"></path></svg>