<svg xmlns="http://www.w3.org/2000/svg" width="24" height="24" viewBox="0 0 24 24" fill="none" stroke="currentColor" stroke-width="2" stroke-linecap="round" stroke-linejoin="round" class="icon icon-tabler icons-tabler-outline icon-tabler-pencil-up"><path d="M15.814 3.737 C 15.278 3.839,14.795 4.041,14.300 4.371 C 13.990 4.577,3.279 15.266,3.127 15.520 L 3.020 15.700 3.020 18.040 L 3.020 20.380 3.120 20.558 C 3.232 20.758,3.417 20.900,3.645 20.961 C 3.744 20.988,4.595 20.999,6.049 20.991 L 8.300 20.980 8.480 20.873 C 8.737 20.720,19.464 9.967,19.656 9.670 C 19.882 9.320,20.068 8.922,20.187 8.532 C 20.284 8.213,20.294 8.118,20.297 7.520 C 20.300 6.804,20.246 6.517,20.009 5.980 C 19.543 4.923,18.559 4.080,17.460 3.796 C 17.046 3.689,16.219 3.659,15.814 3.737 M16.982 5.742 C 17.940 5.992,18.514 6.999,18.258 7.982 C 18.176 8.297,18.037 8.526,17.745 8.832 L 17.504 9.084 16.212 7.792 L 14.921 6.501 15.141 6.279 C 15.660 5.754,16.306 5.566,16.982 5.742 M11.830 14.750 L 7.580 19.000 6.290 19.000 L 5.000 19.000 5.000 17.710 L 5.000 16.420 9.250 12.170 L 13.500 7.920 14.790 9.210 L 16.080 10.500 11.830 14.750 M18.530 15.083 C 18.393 15.150,18.249 15.252,18.210 15.310 C 18.172 15.369,17.463 16.101,16.635 16.938 C 15.635 17.949,15.099 18.520,15.040 18.637 C 14.863 18.989,14.952 19.354,15.299 19.701 C 15.646 20.048,16.012 20.137,16.363 19.959 C 16.469 19.905,16.832 19.580,17.270 19.147 L 18.000 18.425 18.000 20.322 C 18.000 21.470,18.016 22.277,18.041 22.365 C 18.148 22.750,18.437 22.962,18.896 22.991 C 19.381 23.022,19.699 22.882,19.880 22.558 L 19.980 22.380 19.992 20.404 L 20.004 18.428 20.732 19.149 C 21.168 19.581,21.531 19.905,21.637 19.959 C 21.988 20.137,22.354 20.048,22.701 19.701 C 23.048 19.354,23.137 18.989,22.960 18.637 C 22.901 18.520,22.365 17.949,21.365 16.938 C 20.537 16.101,19.828 15.369,19.789 15.310 C 19.751 15.252,19.604 15.149,19.464 15.082 C 19.120 14.918,18.871 14.918,18.530 15.083 " stroke="none" fill="black" fill-rule="evenodd"></path></svg>