<svg xmlns="http://www.w3.org/2000/svg" width="24" height="24" viewBox="0 0 24 24" fill="none" stroke="currentColor" stroke-width="2" stroke-linecap="round" stroke-linejoin="round" class="icon icon-tabler icons-tabler-outline icon-tabler-layers-linked"><path d="M5.499 3.043 C 4.379 3.234,3.461 4.048,3.114 5.160 L 3.020 5.460 3.020 10.000 L 3.020 14.540 3.150 14.926 C 3.363 15.554,3.786 16.116,4.322 16.481 C 4.770 16.786,5.108 16.849,5.426 16.687 C 5.723 16.536,5.995 16.100,6.029 15.721 C 6.061 15.371,5.928 15.161,5.475 14.843 C 5.374 14.772,5.251 14.661,5.203 14.596 C 4.993 14.312,5.000 14.462,5.000 10.022 C 5.000 5.357,4.983 5.623,5.303 5.303 C 5.623 4.983,5.359 5.000,10.000 5.000 C 14.641 5.000,14.377 4.983,14.697 5.303 C 15.017 5.623,15.000 5.359,15.000 10.001 C 15.000 14.458,15.007 14.319,14.779 14.618 C 14.718 14.698,14.585 14.813,14.484 14.872 L 14.300 14.980 12.479 15.000 L 10.658 15.020 10.459 15.122 C 10.119 15.297,9.978 15.606,10.009 16.104 C 10.039 16.569,10.252 16.856,10.649 16.963 C 10.753 16.991,11.447 17.000,12.693 16.991 C 14.539 16.977,14.586 16.975,14.860 16.885 C 15.846 16.559,16.581 15.816,16.886 14.840 L 16.980 14.540 16.980 10.000 L 16.980 5.460 16.886 5.160 C 16.581 4.182,15.832 3.428,14.861 3.121 L 14.540 3.020 10.120 3.014 C 7.689 3.011,5.609 3.024,5.499 3.043 M9.499 7.043 C 8.383 7.230,7.461 8.048,7.114 9.160 L 7.020 9.460 7.020 14.000 L 7.020 18.540 7.114 18.840 C 7.422 19.827,8.173 20.578,9.160 20.886 L 9.460 20.980 14.000 20.980 L 18.540 20.980 18.840 20.886 C 19.827 20.578,20.578 19.827,20.886 18.840 L 20.980 18.540 20.980 14.020 C 20.980 9.024,20.998 9.397,20.729 8.780 C 20.373 7.963,19.528 7.240,18.928 7.240 C 18.455 7.240,18.022 7.710,17.971 8.279 C 17.939 8.630,18.071 8.839,18.529 9.159 C 18.747 9.313,18.895 9.514,18.956 9.740 C 18.986 9.849,19.000 11.198,19.000 14.004 C 19.000 18.458,19.007 18.319,18.779 18.618 C 18.718 18.698,18.585 18.813,18.484 18.872 L 18.300 18.980 14.000 18.980 L 9.700 18.980 9.516 18.872 C 9.415 18.813,9.284 18.700,9.225 18.623 C 8.990 18.315,9.000 18.515,9.000 14.022 C 9.000 9.357,8.983 9.623,9.303 9.303 C 9.601 9.005,9.638 9.000,11.557 9.000 C 12.548 9.000,13.279 8.983,13.365 8.959 C 13.586 8.898,13.770 8.755,13.880 8.558 C 13.967 8.402,13.980 8.332,13.979 8.000 C 13.978 7.567,13.898 7.355,13.678 7.199 C 13.412 7.009,13.303 7.000,11.444 7.005 C 10.485 7.007,9.609 7.025,9.499 7.043 " stroke="none" fill="black" fill-rule="evenodd"></path></svg>