<svg xmlns="http://www.w3.org/2000/svg" width="24" height="24" viewBox="0 0 24 24" fill="none" stroke="currentColor" stroke-width="2" stroke-linecap="round" stroke-linejoin="round" class="icon icon-tabler icons-tabler-outline icon-tabler-home-share"><path d="M11.620 2.046 C 11.382 2.168,2.155 11.405,2.039 11.637 C 1.830 12.056,2.036 12.589,2.514 12.871 C 2.693 12.976,2.726 12.981,3.348 12.993 L 3.997 13.007 4.009 16.293 L 4.021 19.580 4.114 19.860 C 4.442 20.839,5.162 21.559,6.140 21.885 L 6.420 21.979 9.309 21.991 C 11.224 21.999,12.251 21.989,12.353 21.962 C 12.583 21.900,12.768 21.759,12.880 21.558 C 12.967 21.402,12.980 21.332,12.979 21.000 C 12.978 20.567,12.898 20.355,12.678 20.199 C 12.430 20.022,12.256 20.000,11.094 20.000 L 10.000 20.000 10.000 17.447 C 10.000 14.538,9.993 14.614,10.303 14.303 C 10.587 14.019,10.696 14.000,12.017 14.000 C 13.023 14.001,13.167 14.009,13.400 14.080 C 13.725 14.179,13.933 14.180,14.148 14.082 C 14.542 13.903,14.836 13.154,14.678 12.733 C 14.574 12.457,14.242 12.232,13.740 12.096 C 13.489 12.028,13.308 12.020,11.980 12.020 C 10.555 12.020,10.488 12.023,10.178 12.112 C 9.219 12.387,8.446 13.147,8.115 14.140 L 8.021 14.420 8.009 17.213 L 7.996 20.007 7.348 19.993 C 6.728 19.981,6.692 19.975,6.516 19.872 C 6.328 19.761,6.158 19.572,6.070 19.373 C 6.032 19.286,6.015 18.375,6.000 15.440 L 5.980 11.620 5.890 11.451 C 5.803 11.289,5.556 11.080,5.451 11.080 C 5.423 11.080,5.400 11.066,5.400 11.050 C 5.400 11.033,6.885 9.535,8.700 7.720 L 12.000 4.420 15.300 7.720 C 17.115 9.535,18.599 11.029,18.598 11.040 C 18.597 11.051,18.521 11.097,18.428 11.143 C 18.121 11.293,17.978 11.621,18.009 12.104 C 18.038 12.563,18.250 12.852,18.635 12.959 C 18.826 13.012,21.174 13.012,21.365 12.959 C 21.587 12.898,21.770 12.755,21.879 12.558 C 21.963 12.408,21.979 12.327,21.979 12.040 C 21.980 11.742,21.967 11.678,21.873 11.520 C 21.715 11.256,12.586 2.151,12.372 2.044 C 12.151 1.934,11.836 1.935,11.620 2.046 M18.460 15.999 C 15.916 16.022,15.992 16.015,15.752 16.267 C 15.584 16.443,15.513 16.658,15.512 16.997 C 15.510 17.348,15.582 17.556,15.771 17.751 C 15.988 17.976,16.151 18.000,17.436 18.000 L 18.578 18.000 16.853 19.730 C 15.679 20.908,15.100 21.517,15.040 21.637 C 14.863 21.989,14.952 22.354,15.299 22.701 C 15.646 23.048,16.011 23.137,16.363 22.960 C 16.483 22.900,17.092 22.321,18.270 21.147 L 20.000 19.422 20.000 20.564 C 20.000 21.849,20.024 22.012,20.249 22.229 C 20.442 22.416,20.647 22.487,20.997 22.488 C 21.336 22.490,21.552 22.419,21.735 22.248 C 21.985 22.013,21.977 22.088,22.007 19.460 C 22.022 18.140,22.036 17.001,22.037 16.929 C 22.041 16.740,21.834 16.310,21.690 16.207 C 21.467 16.048,21.205 15.959,20.987 15.969 C 20.873 15.974,19.736 15.987,18.460 15.999 " stroke="none" fill="black" fill-rule="evenodd"></path></svg>