<svg xmlns="http://www.w3.org/2000/svg" width="24" height="24" viewBox="0 0 24 24" fill="none" stroke="currentColor" stroke-width="2" stroke-linecap="round" stroke-linejoin="round" class="icon icon-tabler icons-tabler-outline icon-tabler-layout-grid-add"><path d="M4.477 3.073 C 3.806 3.249,3.238 3.823,3.060 4.508 C 3.010 4.698,3.000 5.123,3.000 7.000 C 3.000 9.455,3.003 9.491,3.225 9.930 C 3.361 10.199,3.801 10.639,4.070 10.775 C 4.509 10.997,4.545 11.000,7.000 11.000 C 9.455 11.000,9.491 10.997,9.930 10.775 C 10.196 10.640,10.638 10.200,10.771 9.937 C 10.996 9.494,11.000 9.442,10.999 7.014 C 10.999 4.601,10.991 4.496,10.781 4.083 C 10.646 3.816,10.297 3.449,10.017 3.281 C 9.564 3.008,9.524 3.005,7.000 3.005 C 4.992 3.005,4.711 3.012,4.477 3.073 M14.477 3.073 C 13.806 3.249,13.238 3.823,13.060 4.508 C 13.010 4.698,13.000 5.123,13.000 7.000 C 13.000 9.455,13.003 9.491,13.225 9.930 C 13.361 10.199,13.801 10.639,14.070 10.775 C 14.509 10.997,14.545 11.000,17.000 11.000 C 19.455 11.000,19.491 10.997,19.930 10.775 C 20.196 10.640,20.638 10.200,20.771 9.937 C 20.996 9.494,21.000 9.442,20.999 7.014 C 20.999 4.601,20.991 4.496,20.781 4.083 C 20.646 3.816,20.297 3.449,20.017 3.281 C 19.564 3.008,19.524 3.005,17.000 3.005 C 14.992 3.005,14.711 3.012,14.477 3.073 M9.000 7.000 L 9.000 9.000 7.000 9.000 L 5.000 9.000 5.000 7.000 L 5.000 5.000 7.000 5.000 L 9.000 5.000 9.000 7.000 M19.000 7.000 L 19.000 9.000 17.000 9.000 L 15.000 9.000 15.000 7.000 L 15.000 5.000 17.000 5.000 L 19.000 5.000 19.000 7.000 M4.477 13.073 C 3.806 13.249,3.238 13.823,3.060 14.508 C 3.010 14.698,3.000 15.123,3.000 17.000 C 3.000 19.455,3.003 19.491,3.225 19.930 C 3.361 20.199,3.801 20.639,4.070 20.775 C 4.509 20.997,4.545 21.000,7.000 21.000 C 9.455 21.000,9.491 20.997,9.930 20.775 C 10.196 20.640,10.638 20.200,10.771 19.937 C 10.996 19.494,11.000 19.442,10.999 17.014 C 10.999 14.601,10.991 14.496,10.781 14.083 C 10.646 13.816,10.297 13.449,10.017 13.281 C 9.564 13.008,9.524 13.005,7.000 13.005 C 4.992 13.005,4.711 13.012,4.477 13.073 M16.614 13.057 C 16.377 13.131,16.212 13.261,16.109 13.453 C 16.024 13.613,16.020 13.668,16.008 14.810 L 15.996 16.000 14.904 16.000 C 13.744 16.000,13.570 16.022,13.322 16.199 C 13.100 16.357,13.020 16.568,13.020 17.000 C 13.020 17.331,13.033 17.403,13.120 17.558 C 13.230 17.755,13.414 17.898,13.635 17.959 C 13.716 17.982,14.270 18.000,14.890 18.000 L 16.000 18.000 16.000 19.110 C 16.000 19.730,16.018 20.284,16.041 20.365 C 16.148 20.750,16.437 20.962,16.896 20.991 C 17.381 21.022,17.699 20.882,17.880 20.558 C 17.979 20.381,17.980 20.374,17.993 19.190 L 18.005 18.000 19.113 18.000 C 19.731 18.000,20.284 17.982,20.365 17.959 C 20.586 17.898,20.770 17.755,20.880 17.558 C 20.967 17.402,20.980 17.332,20.979 17.000 C 20.978 16.567,20.898 16.355,20.678 16.199 C 20.430 16.022,20.256 16.000,19.096 16.000 L 18.005 16.000 17.993 14.810 C 17.981 13.669,17.976 13.613,17.891 13.453 C 17.842 13.362,17.746 13.247,17.678 13.199 C 17.414 13.010,16.957 12.950,16.614 13.057 M9.000 17.000 L 9.000 19.000 7.000 19.000 L 5.000 19.000 5.000 17.000 L 5.000 15.000 7.000 15.000 L 9.000 15.000 9.000 17.000 " stroke="none" fill="black" fill-rule="evenodd"></path></svg>