<svg xmlns="http://www.w3.org/2000/svg" width="24" height="24" viewBox="0 0 24 24" fill="none" stroke="currentColor" stroke-width="2" stroke-linecap="round" stroke-linejoin="round" class="icon icon-tabler icons-tabler-outline icon-tabler-tools-kitchen-off"><path d="M2.626 2.045 C 2.257 2.239,1.951 2.673,1.951 3.000 C 1.951 3.287,2.085 3.492,2.649 4.066 L 3.165 4.591 3.584 8.366 C 3.814 10.442,4.030 12.235,4.063 12.352 C 4.099 12.478,4.181 12.627,4.266 12.721 C 4.496 12.977,4.635 13.000,5.907 13.000 L 7.000 13.000 7.000 14.991 L 7.000 16.982 6.756 17.028 C 6.450 17.086,6.228 17.232,6.111 17.450 C 6.021 17.618,6.020 17.636,6.008 19.410 C 6.001 20.557,6.012 21.255,6.038 21.354 C 6.100 21.583,6.242 21.768,6.442 21.880 L 6.620 21.980 7.908 21.992 C 8.720 22.000,9.254 21.989,9.352 21.962 C 9.583 21.900,9.768 21.759,9.880 21.558 L 9.980 21.380 9.980 19.500 C 9.980 17.622,9.980 17.620,9.889 17.450 C 9.772 17.232,9.550 17.086,9.244 17.028 L 9.000 16.982 9.000 14.991 L 9.000 13.000 10.090 13.000 C 10.750 13.000,11.242 12.982,11.336 12.956 L 11.493 12.913 14.746 16.166 L 18.000 19.420 18.000 20.320 C 18.000 20.815,18.019 21.285,18.041 21.365 C 18.102 21.586,18.245 21.770,18.442 21.880 C 18.611 21.975,18.657 21.981,19.380 21.994 C 19.857 22.002,20.217 21.990,20.348 21.961 C 20.524 21.922,20.574 21.925,20.684 21.982 C 20.984 22.137,21.373 22.029,21.701 21.701 C 22.048 21.354,22.137 20.988,21.960 20.640 C 21.888 20.500,21.269 19.809,20.750 19.290 C 20.700 19.241,20.480 19.022,20.260 18.803 C 20.040 18.585,19.815 18.361,19.760 18.306 C 19.705 18.251,17.932 16.478,15.820 14.366 C 13.708 12.253,11.920 10.466,11.847 10.393 C 11.774 10.320,10.185 8.730,8.315 6.860 C 6.444 4.990,4.875 3.419,4.827 3.369 C 4.426 2.952,3.501 2.112,3.368 2.044 C 3.153 1.934,2.835 1.934,2.626 2.045 M19.640 2.043 C 19.296 2.197,17.766 3.823,16.968 4.880 C 15.522 6.797,14.620 8.816,14.261 10.935 C 14.181 11.409,14.220 11.649,14.411 11.867 C 14.820 12.332,15.723 12.345,16.016 11.889 C 16.136 11.702,16.171 11.586,16.302 10.940 C 16.650 9.224,17.367 7.687,18.559 6.100 C 18.782 5.803,18.972 5.560,18.982 5.560 C 18.992 5.560,19.000 7.455,19.000 9.771 L 19.000 13.982 18.756 14.028 C 18.272 14.120,18.042 14.388,18.009 14.900 C 17.969 15.530,18.252 15.923,18.792 15.987 L 18.990 16.010 19.013 16.208 C 19.074 16.715,19.428 17.000,20.000 17.000 C 20.428 17.000,20.713 16.856,20.880 16.558 L 20.980 16.380 20.991 9.626 C 20.998 5.038,20.988 2.823,20.959 2.718 C 20.856 2.333,20.393 1.959,20.022 1.961 C 19.907 1.961,19.743 1.997,19.640 2.043 M6.614 2.057 C 6.377 2.131,6.212 2.261,6.109 2.453 C 6.035 2.592,6.020 2.684,6.020 3.000 C 6.020 3.331,6.033 3.403,6.120 3.558 C 6.230 3.755,6.414 3.898,6.635 3.959 C 6.724 3.984,7.581 4.000,8.834 4.000 L 10.887 4.000 10.864 4.150 C 10.851 4.232,10.759 5.041,10.660 5.947 C 10.464 7.731,10.464 7.846,10.653 8.126 C 10.889 8.477,11.612 8.617,12.047 8.396 C 12.217 8.310,12.337 8.156,12.423 7.913 C 12.512 7.661,13.011 3.164,12.984 2.852 C 12.947 2.414,12.761 2.173,12.371 2.055 C 12.110 1.977,6.865 1.979,6.614 2.057 M7.520 8.940 L 9.580 11.000 7.739 11.000 L 5.898 11.000 5.685 9.050 C 5.567 7.978,5.462 7.050,5.450 6.990 C 5.439 6.930,5.437 6.880,5.445 6.880 C 5.453 6.880,6.387 7.807,7.520 8.940 " stroke="none" fill="black" fill-rule="evenodd"></path></svg>