<svg xmlns="http://www.w3.org/2000/svg" width="24" height="24" viewBox="0 0 24 24" fill="none" stroke="currentColor" stroke-width="2" stroke-linecap="round" stroke-linejoin="round" class="icon icon-tabler icons-tabler-outline icon-tabler-clock-hour-11"><path d="M11.080 2.045 C 9.507 2.184,7.883 2.751,6.540 3.630 C 5.905 4.045,5.499 4.378,4.919 4.958 C 2.953 6.926,1.919 9.544,2.013 12.320 C 2.084 14.439,2.752 16.328,4.033 18.040 C 4.430 18.570,5.305 19.464,5.800 19.847 C 7.242 20.961,8.787 21.624,10.600 21.907 C 11.247 22.008,12.753 22.008,13.400 21.907 C 15.638 21.557,17.504 20.620,19.062 19.062 C 20.620 17.504,21.557 15.638,21.907 13.400 C 22.008 12.753,22.008 11.247,21.907 10.600 C 21.624 8.786,20.959 7.238,19.847 5.800 C 19.510 5.365,18.639 4.494,18.200 4.154 C 16.133 2.555,13.646 1.818,11.080 2.045 M12.734 4.041 C 14.574 4.216,16.228 4.976,17.554 6.256 C 20.043 8.658,20.702 12.394,19.183 15.499 C 18.749 16.387,18.223 17.105,17.496 17.801 C 16.876 18.394,16.262 18.819,15.471 19.200 C 13.267 20.265,10.733 20.265,8.529 19.200 C 7.477 18.693,6.612 18.015,5.847 17.100 C 3.848 14.711,3.440 11.302,4.816 8.500 C 6.162 5.760,8.867 4.049,11.920 4.005 C 12.129 4.003,12.495 4.019,12.734 4.041 M11.614 6.057 C 11.377 6.131,11.212 6.261,11.109 6.453 C 11.025 6.611,11.019 6.674,11.007 7.656 L 10.995 8.691 10.892 8.536 C 10.530 7.988,10.131 7.835,9.652 8.058 C 9.402 8.174,9.111 8.433,9.024 8.618 C 8.939 8.796,8.944 9.102,9.035 9.302 C 9.076 9.392,9.540 10.112,10.067 10.902 C 10.593 11.693,11.048 12.399,11.078 12.472 C 11.164 12.685,11.274 12.796,11.523 12.921 C 11.791 13.057,11.982 13.071,12.301 12.978 C 12.595 12.893,12.754 12.775,12.893 12.540 L 13.011 12.340 13.004 9.600 C 13.000 8.093,12.986 6.797,12.973 6.720 C 12.937 6.510,12.817 6.297,12.678 6.199 C 12.414 6.010,11.957 5.950,11.614 6.057 " stroke="none" fill="black" fill-rule="evenodd"></path></svg>