<svg xmlns="http://www.w3.org/2000/svg" width="24" height="24" viewBox="0 0 24 24" fill="none" stroke="currentColor" stroke-width="2" stroke-linecap="round" stroke-linejoin="round" class="icon icon-tabler icons-tabler-outline icon-tabler-cup-off"><path d="M2.626 2.045 C 2.420 2.154,2.146 2.433,2.038 2.644 C 1.924 2.868,1.924 3.133,2.040 3.363 C 2.100 3.482,2.609 4.021,3.584 5.001 L 5.039 6.461 5.014 6.722 L 4.990 6.984 4.751 7.029 C 4.449 7.086,4.227 7.233,4.111 7.450 C 4.021 7.618,4.020 7.636,4.008 9.410 C 4.001 10.557,4.012 11.255,4.038 11.354 C 4.100 11.584,4.242 11.768,4.442 11.880 C 4.600 11.969,4.676 11.981,5.126 11.994 L 5.633 12.008 5.655 12.134 C 5.667 12.203,5.976 14.258,6.341 16.700 C 6.705 19.142,7.030 21.233,7.062 21.347 C 7.132 21.597,7.273 21.773,7.495 21.892 L 7.660 21.980 12.000 21.980 L 16.340 21.980 16.505 21.892 C 16.727 21.773,16.868 21.597,16.938 21.347 C 16.970 21.233,17.070 20.636,17.160 20.020 C 17.250 19.404,17.333 18.874,17.344 18.843 C 17.356 18.806,17.910 19.330,18.912 20.328 C 19.955 21.368,20.518 21.900,20.637 21.960 C 20.989 22.137,21.354 22.048,21.701 21.701 C 22.048 21.354,22.137 20.989,21.960 20.637 C 21.888 20.494,19.543 18.080,17.428 15.973 C 17.219 15.765,11.850 10.397,11.760 10.305 C 11.705 10.250,11.030 9.575,10.260 8.805 C 9.490 8.036,8.815 7.360,8.760 7.305 C 8.197 6.732,3.635 2.226,3.560 2.168 C 3.265 1.942,2.910 1.895,2.626 2.045 M14.614 2.057 C 14.377 2.131,14.212 2.261,14.109 2.453 C 14.029 2.603,14.019 2.689,14.007 3.310 L 13.993 4.000 11.403 4.000 C 8.637 4.000,8.597 4.003,8.322 4.199 C 8.100 4.357,8.020 4.568,8.020 5.000 C 8.020 5.331,8.033 5.403,8.120 5.558 C 8.230 5.755,8.414 5.898,8.635 5.959 C 8.727 5.985,10.112 6.000,12.443 6.000 C 16.589 6.000,16.379 5.985,16.697 6.303 C 16.863 6.469,17.000 6.760,17.000 6.947 C 17.000 6.990,16.526 7.000,14.406 7.000 C 11.637 7.000,11.597 7.003,11.322 7.199 C 11.100 7.357,11.020 7.568,11.020 8.000 C 11.020 8.331,11.033 8.403,11.120 8.558 C 11.230 8.755,11.414 8.898,11.635 8.959 C 11.726 8.985,12.930 9.000,14.890 9.000 L 18.000 9.000 18.000 9.500 L 18.000 10.000 16.406 10.000 C 14.710 10.000,14.584 10.012,14.322 10.199 C 14.100 10.357,14.020 10.568,14.020 11.000 C 14.020 11.331,14.033 11.403,14.120 11.558 C 14.230 11.755,14.414 11.898,14.635 11.959 C 14.715 11.981,15.127 12.000,15.550 12.000 C 15.973 12.000,16.321 12.013,16.321 12.030 C 16.322 12.047,16.282 12.342,16.233 12.686 C 16.146 13.294,16.145 13.319,16.213 13.534 C 16.302 13.816,16.510 14.004,16.834 14.095 C 17.440 14.265,17.900 14.092,18.074 13.628 C 18.116 13.513,18.190 13.159,18.237 12.840 C 18.285 12.521,18.334 12.202,18.346 12.130 L 18.369 12.000 18.794 12.000 C 19.438 11.999,19.690 11.897,19.880 11.558 L 19.980 11.380 19.980 9.500 C 19.980 7.622,19.980 7.620,19.889 7.450 C 19.773 7.233,19.551 7.086,19.249 7.029 L 19.010 6.984 18.983 6.690 C 18.914 5.929,18.542 5.237,17.911 4.695 C 17.474 4.321,16.893 4.078,16.290 4.018 L 16.008 3.990 15.993 3.305 C 15.976 2.541,15.929 2.378,15.678 2.199 C 15.414 2.010,14.957 1.950,14.614 2.057 M8.080 9.500 L 8.579 10.000 7.289 10.000 L 6.000 10.000 6.000 9.500 L 6.000 9.000 6.791 9.000 L 7.581 9.000 8.080 9.500 M13.084 14.510 L 15.588 17.020 15.364 18.500 L 15.140 19.980 12.000 19.980 L 8.861 19.980 8.273 16.080 C 7.950 13.935,7.684 12.139,7.683 12.090 L 7.680 12.000 9.130 12.000 L 10.580 12.000 13.084 14.510 " stroke="none" fill="black" fill-rule="evenodd"></path></svg>