<svg xmlns="http://www.w3.org/2000/svg" width="24" height="24" viewBox="0 0 24 24" fill="none" stroke="currentColor" stroke-width="2" stroke-linecap="round" stroke-linejoin="round" class="icon icon-tabler icons-tabler-outline icon-tabler-mood-x"><path d="M11.320 2.024 C 11.243 2.033,11.009 2.059,10.800 2.082 C 9.576 2.215,8.173 2.676,7.064 3.310 C 4.634 4.698,2.856 7.085,2.260 9.759 C 2.060 10.653,2.023 11.009,2.023 12.000 C 2.023 13.191,2.116 13.832,2.449 14.940 C 3.404 18.113,6.002 20.671,9.205 21.594 C 10.212 21.885,10.880 21.978,11.940 21.979 C 12.932 21.980,13.107 21.942,13.338 21.672 C 13.623 21.338,13.619 20.619,13.331 20.276 C 13.130 20.038,12.984 20.002,12.200 20.001 C 11.105 19.999,10.388 19.891,9.484 19.591 C 6.621 18.642,4.564 16.188,4.075 13.140 C 4.007 12.717,4.006 11.397,4.074 10.940 C 4.347 9.086,5.136 7.527,6.446 6.259 C 7.906 4.845,9.651 4.108,11.760 4.015 C 13.292 3.948,14.865 4.369,16.221 5.210 C 18.336 6.521,19.731 8.781,19.959 11.262 C 19.982 11.505,19.999 11.967,19.998 12.288 C 19.995 12.911,20.031 13.078,20.212 13.275 C 20.432 13.515,21.016 13.628,21.391 13.503 C 21.637 13.421,21.853 13.200,21.928 12.952 C 21.997 12.725,21.995 11.275,21.925 10.760 C 21.315 6.263,17.927 2.799,13.473 2.118 C 12.966 2.041,11.660 1.983,11.320 2.024 M8.614 9.055 C 8.220 9.184,8.039 9.437,8.009 9.900 C 7.978 10.381,8.119 10.699,8.442 10.880 C 8.597 10.967,8.669 10.980,9.000 10.980 C 9.312 10.980,9.408 10.964,9.540 10.894 C 9.866 10.718,10.000 10.459,10.000 10.000 C 10.000 9.357,9.713 9.048,9.083 9.016 C 8.893 9.006,8.718 9.021,8.614 9.055 M14.614 9.055 C 14.220 9.184,14.039 9.437,14.009 9.900 C 13.978 10.381,14.119 10.699,14.442 10.880 C 14.597 10.967,14.669 10.980,15.000 10.980 C 15.312 10.980,15.408 10.964,15.540 10.894 C 15.866 10.718,16.000 10.459,16.000 10.000 C 16.000 9.357,15.713 9.048,15.083 9.016 C 14.893 9.006,14.718 9.021,14.614 9.055 M9.171 14.019 C 8.968 14.108,8.637 14.440,8.535 14.660 C 8.351 15.052,8.423 15.307,8.838 15.723 C 9.694 16.582,10.920 17.043,12.200 16.986 C 12.958 16.953,13.289 16.822,13.476 16.482 C 13.663 16.145,13.563 15.451,13.290 15.189 C 13.073 14.981,12.923 14.950,12.302 14.980 C 11.401 15.023,10.891 14.867,10.297 14.366 C 10.141 14.235,9.943 14.090,9.857 14.044 C 9.674 13.946,9.365 13.935,9.171 14.019 M16.260 15.487 C 15.822 15.651,15.439 16.129,15.441 16.509 C 15.443 16.820,15.560 16.973,16.590 18.009 L 17.576 19.000 16.590 19.991 C 15.554 21.033,15.442 21.180,15.442 21.500 C 15.442 21.727,15.564 21.968,15.798 22.202 C 16.150 22.554,16.484 22.641,16.837 22.474 C 16.964 22.413,17.321 22.088,18.010 21.406 L 18.999 20.424 20.010 21.426 C 21.118 22.524,21.212 22.592,21.584 22.550 C 21.995 22.503,22.511 21.978,22.550 21.565 C 22.584 21.212,22.493 21.087,21.405 19.990 L 20.424 19.000 21.405 18.010 C 22.491 16.915,22.584 16.787,22.551 16.438 C 22.502 15.934,21.836 15.367,21.397 15.455 C 21.114 15.511,20.947 15.646,19.990 16.595 L 19.000 17.576 18.010 16.595 C 17.388 15.979,16.961 15.587,16.862 15.541 C 16.664 15.450,16.417 15.428,16.260 15.487 " stroke="none" fill="black" fill-rule="evenodd"></path></svg>