<svg xmlns="http://www.w3.org/2000/svg" width="24" height="24" viewBox="0 0 24 24" fill="none" stroke="currentColor" stroke-width="2" stroke-linecap="round" stroke-linejoin="round" class="icon icon-tabler icons-tabler-outline icon-tabler-text-size"><path d="M2.614 4.057 C 2.377 4.131,2.212 4.261,2.109 4.453 C 2.023 4.614,2.020 4.665,2.008 5.908 C 2.000 6.720,2.011 7.254,2.038 7.352 C 2.144 7.747,2.432 7.961,2.896 7.991 C 3.381 8.022,3.699 7.882,3.880 7.558 C 3.974 7.391,3.981 7.338,3.994 6.690 L 4.008 6.000 6.504 6.000 L 9.000 6.000 9.000 12.000 L 9.000 18.000 8.406 18.000 C 7.577 18.000,7.300 18.097,7.109 18.453 C 7.035 18.592,7.020 18.684,7.020 19.000 C 7.020 19.331,7.033 19.403,7.120 19.558 C 7.230 19.755,7.414 19.898,7.635 19.959 C 7.831 20.014,12.169 20.014,12.365 19.959 C 12.586 19.898,12.770 19.755,12.880 19.558 C 12.967 19.402,12.980 19.332,12.979 19.000 C 12.978 18.687,12.962 18.591,12.890 18.453 C 12.702 18.097,12.424 18.000,11.594 18.000 L 11.000 18.000 11.000 12.000 L 11.000 6.000 13.000 6.000 L 15.000 6.000 15.000 6.610 C 15.000 6.946,15.019 7.285,15.041 7.365 C 15.148 7.750,15.437 7.962,15.896 7.991 C 16.381 8.022,16.699 7.882,16.880 7.558 L 16.980 7.380 16.980 6.000 C 16.980 4.650,16.978 4.616,16.891 4.453 C 16.785 4.256,16.622 4.131,16.371 4.055 C 16.107 3.976,2.868 3.978,2.614 4.057 M14.614 11.057 C 14.377 11.131,14.212 11.261,14.109 11.453 C 14.027 11.606,14.019 11.684,14.007 12.405 C 13.999 12.880,14.011 13.252,14.037 13.349 C 14.144 13.748,14.430 13.961,14.896 13.991 C 15.533 14.031,15.915 13.757,15.983 13.210 L 16.009 13.000 16.505 13.000 L 17.000 13.000 17.000 15.491 L 17.000 17.982 16.756 18.028 C 16.450 18.086,16.227 18.232,16.111 18.450 C 16.035 18.592,16.020 18.682,16.020 19.000 C 16.020 19.331,16.033 19.403,16.120 19.558 C 16.230 19.755,16.414 19.898,16.635 19.959 C 16.826 20.012,19.174 20.012,19.365 19.959 C 19.586 19.898,19.770 19.755,19.880 19.558 C 19.967 19.402,19.980 19.332,19.979 19.000 C 19.978 18.685,19.963 18.591,19.888 18.450 C 19.773 18.232,19.551 18.086,19.244 18.028 L 19.000 17.982 19.000 15.491 L 19.000 13.000 19.494 13.000 L 19.989 13.000 20.013 13.203 C 20.074 13.715,20.426 14.000,21.000 14.000 C 21.428 14.000,21.713 13.856,21.880 13.558 C 21.978 13.383,21.980 13.364,21.980 12.500 C 21.980 11.667,21.975 11.611,21.891 11.453 C 21.785 11.256,21.622 11.131,21.371 11.055 C 21.109 10.977,14.866 10.979,14.614 11.057 " stroke="none" fill="black" fill-rule="evenodd"></path></svg>