<svg xmlns="http://www.w3.org/2000/svg" width="24" height="24" viewBox="0 0 24 24" fill="none" stroke="currentColor" stroke-width="2" stroke-linecap="round" stroke-linejoin="round" class="icon icon-tabler icons-tabler-outline icon-tabler-number-6-small"><path d="M10.477 7.073 C 9.806 7.249,9.238 7.823,9.060 8.508 C 9.009 8.702,9.000 9.237,9.000 12.000 C 9.000 15.547,8.996 15.478,9.225 15.930 C 9.361 16.199,9.801 16.639,10.070 16.775 C 10.479 16.982,10.632 17.000,12.000 17.000 C 13.368 17.000,13.521 16.982,13.930 16.775 C 14.196 16.640,14.638 16.200,14.771 15.937 C 14.979 15.527,15.000 15.352,14.999 14.014 C 14.999 12.682,14.974 12.463,14.781 12.083 C 14.646 11.816,14.297 11.449,14.017 11.281 C 13.609 11.035,13.405 11.005,12.130 11.002 L 11.000 11.000 11.000 10.000 L 11.000 9.000 11.994 9.000 L 12.989 9.000 13.013 9.203 C 13.074 9.715,13.426 10.000,14.000 10.000 C 14.618 10.000,14.944 9.706,14.987 9.110 C 15.027 8.565,14.848 8.065,14.465 7.653 C 14.198 7.366,13.870 7.164,13.523 7.073 C 13.134 6.972,10.866 6.972,10.477 7.073 M13.000 14.000 L 13.000 15.000 12.000 15.000 L 11.000 15.000 11.000 14.000 L 11.000 13.000 12.000 13.000 L 13.000 13.000 13.000 14.000 " stroke="none" fill="black" fill-rule="evenodd"></path></svg>