<svg xmlns="http://www.w3.org/2000/svg" width="24" height="24" viewBox="0 0 24 24" fill="none" stroke="currentColor" stroke-width="2" stroke-linecap="round" stroke-linejoin="round" class="icon icon-tabler icons-tabler-outline icon-tabler-screen-share"><path d="M18.719 2.999 L 16.658 3.020 16.459 3.122 C 16.119 3.297,15.978 3.606,16.009 4.104 C 16.038 4.563,16.250 4.852,16.635 4.959 C 16.715 4.981,17.185 5.000,17.679 5.000 L 18.578 5.000 16.853 6.730 C 15.679 7.908,15.100 8.517,15.040 8.637 C 14.863 8.989,14.952 9.354,15.299 9.701 C 15.646 10.048,16.011 10.137,16.363 9.960 C 16.483 9.900,17.092 9.321,18.270 8.147 L 20.000 6.422 20.000 7.321 C 20.000 7.815,20.019 8.285,20.041 8.365 C 20.148 8.750,20.437 8.962,20.896 8.991 C 21.381 9.022,21.699 8.882,21.880 8.558 L 21.980 8.380 22.008 6.220 C 22.023 5.032,22.036 4.001,22.038 3.929 C 22.041 3.739,21.834 3.310,21.690 3.207 C 21.467 3.048,21.205 2.959,20.987 2.969 C 20.873 2.974,19.852 2.987,18.719 2.999 M3.477 3.073 C 2.806 3.249,2.238 3.823,2.060 4.508 C 2.008 4.705,2.000 5.464,2.000 10.000 C 2.000 15.733,1.990 15.466,2.225 15.930 C 2.361 16.199,2.801 16.639,3.070 16.775 C 3.506 16.996,3.557 17.000,5.868 17.000 L 8.000 17.000 8.000 18.000 L 8.000 19.000 7.406 19.000 C 6.577 19.000,6.300 19.097,6.109 19.453 C 6.035 19.592,6.020 19.684,6.020 20.000 C 6.020 20.331,6.033 20.403,6.120 20.558 C 6.230 20.755,6.414 20.898,6.635 20.959 C 6.834 21.015,17.166 21.015,17.365 20.959 C 17.586 20.898,17.770 20.755,17.880 20.558 C 17.967 20.402,17.980 20.332,17.979 20.000 C 17.978 19.687,17.962 19.591,17.890 19.453 C 17.702 19.097,17.424 19.000,16.594 19.000 L 16.000 19.000 16.000 18.000 L 16.000 17.000 18.132 17.000 C 20.443 17.000,20.494 16.996,20.930 16.775 C 21.196 16.640,21.638 16.200,21.771 15.937 C 21.996 15.493,22.005 15.397,21.992 13.427 C 21.980 11.636,21.979 11.618,21.889 11.450 C 21.724 11.140,21.329 10.970,20.874 11.011 C 20.439 11.051,20.141 11.274,20.041 11.635 C 20.017 11.721,20.000 12.435,20.000 13.390 L 20.000 15.000 12.000 15.000 L 4.000 15.000 4.000 10.000 L 4.000 5.000 8.610 5.000 C 11.575 5.000,13.272 4.985,13.365 4.959 C 13.586 4.898,13.770 4.755,13.880 4.558 C 13.967 4.402,13.980 4.332,13.979 4.000 C 13.978 3.567,13.898 3.355,13.678 3.199 C 13.392 2.995,13.527 3.000,8.464 3.002 C 4.132 3.004,3.718 3.010,3.477 3.073 M14.000 18.000 L 14.000 19.000 12.000 19.000 L 10.000 19.000 10.000 18.000 L 10.000 17.000 12.000 17.000 L 14.000 17.000 14.000 18.000 " stroke="none" fill="black" fill-rule="evenodd"></path></svg>