<svg xmlns="http://www.w3.org/2000/svg" width="24" height="24" viewBox="0 0 24 24" fill="none" stroke="currentColor" stroke-width="2" stroke-linecap="round" stroke-linejoin="round" class="icon icon-tabler icons-tabler-outline icon-tabler-wash-press"><path d="M2.619 4.070 C 2.191 4.223,2.003 4.467,2.001 4.872 C 2.000 4.989,2.108 5.730,2.240 6.520 C 2.372 7.310,2.480 8.019,2.480 8.095 C 2.480 8.172,2.497 8.280,2.518 8.336 C 2.539 8.391,2.827 10.066,3.158 12.058 C 3.489 14.051,3.797 15.793,3.843 15.930 C 4.117 16.746,4.782 17.467,5.549 17.779 C 6.111 18.007,5.905 18.000,12.000 18.000 C 18.116 18.000,17.897 18.008,18.460 17.772 C 19.245 17.444,19.890 16.739,20.157 15.920 C 20.204 15.777,20.494 14.139,20.801 12.280 C 21.109 10.421,21.396 8.702,21.440 8.460 C 21.646 7.335,22.000 5.061,21.999 4.872 C 21.998 4.569,21.885 4.347,21.660 4.204 C 21.285 3.966,20.705 3.934,20.403 4.133 C 20.133 4.312,20.066 4.517,19.855 5.800 C 19.752 6.427,19.655 6.954,19.640 6.972 C 19.604 7.013,18.923 6.864,18.752 6.777 C 18.680 6.740,18.521 6.649,18.399 6.575 C 18.093 6.387,17.630 6.217,17.149 6.113 C 16.560 5.986,15.440 5.986,14.851 6.113 C 14.370 6.217,13.907 6.387,13.601 6.575 C 13.238 6.796,13.132 6.841,12.768 6.921 C 12.307 7.023,11.693 7.023,11.232 6.921 C 10.868 6.841,10.762 6.796,10.399 6.575 C 10.093 6.387,9.630 6.217,9.149 6.113 C 8.560 5.986,7.440 5.986,6.851 6.113 C 6.370 6.217,5.907 6.387,5.601 6.575 C 5.479 6.649,5.320 6.740,5.248 6.777 C 5.077 6.864,4.396 7.013,4.360 6.972 C 4.345 6.954,4.248 6.427,4.145 5.800 C 3.934 4.513,3.868 4.312,3.594 4.131 C 3.383 3.991,2.920 3.962,2.619 4.070 M8.856 8.099 C 9.043 8.139,9.261 8.232,9.533 8.387 C 10.253 8.798,11.064 9.000,12.000 9.000 C 12.934 9.000,13.747 8.798,14.463 8.390 C 14.985 8.092,15.255 8.027,15.980 8.026 C 16.732 8.025,17.014 8.091,17.533 8.387 C 17.981 8.643,18.544 8.847,19.010 8.921 C 19.180 8.949,19.320 8.978,19.320 8.986 C 19.320 9.137,18.261 15.286,18.215 15.400 C 18.135 15.601,17.819 15.890,17.609 15.952 C 17.381 16.021,6.619 16.021,6.391 15.952 C 6.181 15.890,5.865 15.601,5.785 15.400 C 5.739 15.286,4.680 9.137,4.680 8.986 C 4.680 8.978,4.819 8.949,4.990 8.921 C 5.452 8.848,6.017 8.644,6.463 8.391 C 6.875 8.157,7.043 8.098,7.456 8.039 C 7.779 7.993,8.511 8.025,8.856 8.099 M4.614 19.057 C 4.377 19.131,4.212 19.261,4.109 19.453 C 4.035 19.592,4.020 19.684,4.020 20.000 C 4.020 20.331,4.033 20.403,4.120 20.558 C 4.230 20.755,4.414 20.898,4.635 20.959 C 4.835 21.015,19.165 21.015,19.365 20.959 C 19.586 20.898,19.770 20.755,19.880 20.558 C 19.967 20.402,19.980 20.332,19.979 20.000 C 19.978 19.567,19.898 19.355,19.678 19.199 C 19.387 18.991,19.720 19.000,11.984 19.003 C 6.188 19.005,4.747 19.016,4.614 19.057 " stroke="none" fill="black" fill-rule="evenodd"></path></svg>