<svg xmlns="http://www.w3.org/2000/svg" width="24" height="24" viewBox="0 0 24 24" fill="none" stroke="currentColor" stroke-width="2" stroke-linecap="round" stroke-linejoin="round" class="icon icon-tabler icons-tabler-outline icon-tabler-heart-rate-monitor"><path d="M3.477 3.073 C 2.806 3.249,2.238 3.823,2.060 4.508 C 2.008 4.705,2.000 5.464,2.000 10.000 C 2.000 15.733,1.990 15.466,2.225 15.930 C 2.361 16.199,2.801 16.639,3.070 16.775 C 3.506 16.996,3.557 17.000,5.868 17.000 L 8.000 17.000 8.000 18.000 L 8.000 19.000 7.406 19.000 C 6.577 19.000,6.300 19.097,6.109 19.453 C 6.035 19.592,6.020 19.684,6.020 20.000 C 6.020 20.331,6.033 20.403,6.120 20.558 C 6.230 20.755,6.414 20.898,6.635 20.959 C 6.834 21.015,17.166 21.015,17.365 20.959 C 17.586 20.898,17.770 20.755,17.880 20.558 C 17.967 20.402,17.980 20.332,17.979 20.000 C 17.978 19.687,17.962 19.591,17.890 19.453 C 17.702 19.097,17.424 19.000,16.594 19.000 L 16.000 19.000 16.000 18.000 L 16.000 17.000 18.132 17.000 C 20.443 17.000,20.494 16.996,20.930 16.775 C 21.196 16.640,21.638 16.200,21.771 15.937 C 22.010 15.466,22.000 15.732,21.999 10.014 C 21.999 4.337,22.006 4.525,21.781 4.083 C 21.646 3.816,21.297 3.449,21.017 3.281 C 20.523 2.983,21.217 3.005,12.000 3.005 C 4.321 3.005,3.721 3.009,3.477 3.073 M20.000 10.000 L 20.000 15.000 12.000 15.000 L 4.000 15.000 4.000 10.000 L 4.000 5.000 12.000 5.000 L 20.000 5.000 20.000 10.000 M12.780 5.988 C 12.559 6.029,12.511 6.051,12.378 6.167 C 12.300 6.236,12.198 6.366,12.151 6.456 C 12.105 6.546,11.758 7.546,11.381 8.679 L 10.694 10.737 10.206 10.010 C 9.937 9.611,9.663 9.245,9.596 9.197 C 9.348 9.021,9.178 9.000,7.960 9.000 C 6.740 9.000,6.572 9.020,6.322 9.199 C 6.100 9.357,6.020 9.568,6.020 10.000 C 6.020 10.331,6.033 10.403,6.120 10.558 C 6.230 10.755,6.414 10.898,6.635 10.959 C 6.715 10.981,7.160 11.000,7.624 11.000 L 8.468 11.000 9.324 12.289 C 9.795 12.998,10.242 13.647,10.317 13.732 C 10.620 14.071,10.979 14.130,11.405 13.910 C 11.819 13.695,11.842 13.650,12.445 11.844 C 12.739 10.962,12.990 10.240,13.002 10.240 C 13.014 10.240,13.048 10.306,13.077 10.386 C 13.106 10.466,13.200 10.609,13.287 10.703 C 13.558 10.997,13.578 11.000,15.517 11.000 C 16.534 11.000,17.278 10.983,17.365 10.959 C 17.586 10.898,17.770 10.755,17.880 10.558 C 17.967 10.402,17.980 10.332,17.979 10.000 C 17.978 9.567,17.898 9.355,17.678 9.199 C 17.425 9.018,17.265 9.000,15.958 9.000 L 14.728 9.000 14.319 7.780 C 13.912 6.563,13.806 6.331,13.596 6.195 C 13.387 6.060,12.968 5.954,12.780 5.988 M14.000 18.000 L 14.000 19.000 12.000 19.000 L 10.000 19.000 10.000 18.000 L 10.000 17.000 12.000 17.000 L 14.000 17.000 14.000 18.000 " stroke="none" fill="black" fill-rule="evenodd"></path></svg>