<svg xmlns="http://www.w3.org/2000/svg" width="24" height="24" viewBox="0 0 24 24" fill="none" stroke="currentColor" stroke-width="2" stroke-linecap="round" stroke-linejoin="round" class="icon icon-tabler icons-tabler-outline icon-tabler-ladle"><path d="M17.358 2.061 C 15.731 2.315,14.417 3.584,14.083 5.227 C 14.003 5.616,14.000 5.758,14.000 8.716 L 14.000 11.799 13.774 11.714 C 11.479 10.856,7.412 10.777,4.763 11.539 C 3.517 11.898,2.564 12.504,2.232 13.148 C 1.998 13.601,1.987 13.685,2.013 14.810 C 2.042 16.069,2.135 16.629,2.456 17.470 C 3.364 19.848,5.428 21.514,7.980 21.926 C 8.392 21.992,9.607 21.992,10.020 21.926 C 11.548 21.679,12.874 21.008,13.941 19.941 C 14.980 18.902,15.611 17.684,15.911 16.140 C 15.964 15.865,15.976 15.092,15.997 10.700 C 16.024 4.975,16.000 5.417,16.314 4.937 C 16.803 4.192,17.611 3.865,18.478 4.062 C 18.956 4.171,19.389 4.485,19.686 4.938 C 19.881 5.235,19.953 5.478,19.998 5.993 C 20.060 6.718,20.341 7.000,21.000 7.000 C 21.426 7.000,21.714 6.856,21.876 6.563 C 22.086 6.182,22.010 5.271,21.705 4.516 C 21.172 3.197,20.001 2.269,18.605 2.058 C 18.144 1.989,17.816 1.990,17.358 2.061 M10.000 13.041 C 11.128 13.110,12.143 13.279,12.887 13.522 C 13.275 13.649,13.880 13.944,13.880 14.007 C 13.880 14.083,13.046 14.440,12.553 14.576 C 9.962 15.286,5.977 15.071,4.294 14.130 C 4.198 14.077,4.120 14.019,4.120 14.001 C 4.120 13.983,4.262 13.895,4.436 13.805 C 5.570 13.214,7.812 12.907,10.000 13.041 M4.772 16.463 C 6.721 17.026,9.364 17.154,11.706 16.798 C 12.241 16.717,13.273 16.473,13.636 16.343 C 13.733 16.308,13.818 16.284,13.824 16.291 C 13.854 16.321,13.584 17.002,13.420 17.311 C 12.695 18.673,11.486 19.581,9.960 19.907 C 9.714 19.960,9.448 19.980,9.000 19.980 C 8.330 19.980,7.956 19.922,7.400 19.732 C 5.880 19.212,4.707 18.002,4.216 16.446 C 4.165 16.285,4.167 16.274,4.231 16.299 C 4.269 16.314,4.512 16.388,4.772 16.463 " stroke="none" fill="black" fill-rule="evenodd"></path></svg>