<svg xmlns="http://www.w3.org/2000/svg" width="24" height="24" viewBox="0 0 24 24" fill="none" stroke="currentColor" stroke-width="2" stroke-linecap="round" stroke-linejoin="round" class="icon icon-tabler icons-tabler-outline icon-tabler-shopping-cart-up"><path d="M3.614 2.057 C 3.377 2.131,3.212 2.261,3.109 2.453 C 3.035 2.592,3.020 2.684,3.020 3.000 C 3.020 3.331,3.033 3.403,3.120 3.558 C 3.230 3.755,3.414 3.898,3.635 3.959 C 3.715 3.981,4.054 4.000,4.390 4.000 L 5.000 4.000 5.000 10.073 L 5.000 16.145 4.670 16.313 C 3.922 16.693,3.365 17.355,3.114 18.160 C 2.979 18.594,2.979 19.406,3.114 19.840 C 3.421 20.826,4.174 21.579,5.160 21.886 C 5.594 22.021,6.406 22.021,6.840 21.886 C 7.826 21.579,8.579 20.826,8.886 19.840 C 9.032 19.372,9.015 18.479,8.854 18.057 C 8.835 18.008,9.101 18.000,10.768 18.000 C 12.921 18.000,12.995 17.992,13.229 17.751 C 13.418 17.556,13.486 17.355,13.486 16.997 C 13.486 16.491,13.303 16.196,12.909 16.064 C 12.740 16.008,12.371 16.000,9.859 16.000 L 7.000 16.000 7.000 15.000 L 7.000 14.000 11.853 14.000 C 17.209 14.000,16.978 14.011,17.229 13.751 C 17.418 13.556,17.486 13.355,17.486 12.997 C 17.486 12.491,17.303 12.196,16.909 12.064 C 16.737 12.007,16.203 12.000,11.859 12.000 L 7.000 12.000 7.000 9.040 C 7.000 7.412,7.010 6.080,7.023 6.080 C 7.182 6.080,18.820 6.926,18.832 6.939 C 18.842 6.948,18.692 8.050,18.501 9.388 C 18.150 11.837,18.113 12.200,18.199 12.420 C 18.382 12.893,19.171 13.137,19.680 12.879 C 19.859 12.789,19.938 12.700,20.036 12.479 C 20.147 12.225,21.016 6.157,20.988 5.830 C 20.949 5.383,20.698 5.113,20.251 5.037 C 20.070 5.007,7.306 4.080,7.067 4.080 C 7.017 4.080,7.005 3.960,6.993 3.350 C 6.979 2.691,6.969 2.604,6.890 2.453 C 6.786 2.256,6.622 2.131,6.371 2.055 C 6.117 1.979,3.859 1.981,3.614 2.057 M18.530 15.083 C 18.393 15.150,18.249 15.252,18.210 15.310 C 18.172 15.369,17.463 16.101,16.635 16.938 C 15.635 17.949,15.099 18.520,15.040 18.637 C 14.863 18.989,14.952 19.354,15.299 19.701 C 15.646 20.048,16.012 20.137,16.363 19.959 C 16.469 19.905,16.832 19.580,17.270 19.147 L 18.000 18.425 18.000 20.322 C 18.000 21.470,18.016 22.277,18.041 22.365 C 18.148 22.750,18.437 22.962,18.896 22.991 C 19.381 23.022,19.699 22.882,19.880 22.558 L 19.980 22.380 19.992 20.404 L 20.004 18.428 20.732 19.149 C 21.168 19.581,21.531 19.905,21.637 19.959 C 21.988 20.137,22.354 20.048,22.701 19.701 C 23.048 19.354,23.137 18.989,22.960 18.637 C 22.901 18.520,22.365 17.949,21.365 16.938 C 20.537 16.101,19.828 15.369,19.789 15.310 C 19.751 15.252,19.604 15.149,19.464 15.082 C 19.120 14.918,18.871 14.918,18.530 15.083 M6.310 18.061 C 6.688 18.173,7.000 18.598,7.000 19.001 C 7.000 19.331,6.784 19.696,6.484 19.872 C 6.328 19.963,6.254 19.980,6.000 19.980 C 5.746 19.980,5.672 19.963,5.516 19.872 C 4.935 19.530,4.833 18.774,5.304 18.303 C 5.583 18.024,5.916 17.944,6.310 18.061 " stroke="none" fill="black" fill-rule="evenodd"></path></svg>