<svg xmlns="http://www.w3.org/2000/svg" width="24" height="24" viewBox="0 0 24 24" fill="none" stroke="currentColor" stroke-width="2" stroke-linecap="round" stroke-linejoin="round" class="icon icon-tabler icons-tabler-outline icon-tabler-table-alias"><path d="M4.499 2.043 C 3.390 2.230,2.488 3.024,2.114 4.140 L 2.020 4.420 2.009 8.311 C 2.001 10.892,2.011 12.253,2.039 12.355 C 2.144 12.747,2.433 12.961,2.896 12.991 C 3.381 13.022,3.699 12.882,3.880 12.558 C 3.974 12.391,3.981 12.338,3.994 11.690 L 4.008 11.000 6.504 11.000 L 9.000 11.000 9.000 12.110 C 9.000 12.730,9.018 13.284,9.041 13.365 C 9.148 13.750,9.437 13.962,9.896 13.991 C 10.381 14.022,10.699 13.882,10.880 13.558 C 10.979 13.381,10.980 13.374,10.993 12.190 L 11.005 11.000 15.503 11.000 L 20.000 11.000 20.000 15.054 C 20.000 19.453,20.006 19.320,19.779 19.618 C 19.718 19.698,19.585 19.813,19.484 19.872 L 19.300 19.980 15.479 20.000 L 11.658 20.020 11.459 20.122 C 11.119 20.297,10.978 20.606,11.009 21.104 C 11.039 21.567,11.253 21.856,11.645 21.961 C 11.747 21.989,13.108 21.999,15.689 21.991 L 19.580 21.980 19.860 21.886 C 20.851 21.554,21.582 20.816,21.886 19.840 L 21.980 19.540 21.980 12.000 L 21.980 4.460 21.886 4.160 C 21.581 3.182,20.832 2.428,19.861 2.121 L 19.540 2.020 12.120 2.014 C 8.039 2.011,4.609 2.024,4.499 2.043 M9.000 6.500 L 9.000 9.000 6.500 9.000 L 4.000 9.000 4.000 6.947 C 4.000 4.594,3.998 4.608,4.304 4.303 C 4.604 4.003,4.575 4.006,6.930 4.003 L 9.000 4.000 9.000 6.500 M19.310 4.061 C 19.452 4.103,19.571 4.178,19.697 4.303 C 20.002 4.608,20.000 4.595,20.000 6.947 L 20.000 9.000 15.500 9.000 L 11.000 9.000 11.000 6.500 L 11.000 4.000 15.053 4.000 C 18.564 4.000,19.133 4.008,19.310 4.061 M2.477 15.073 C 1.806 15.249,1.238 15.823,1.060 16.508 C 1.010 16.698,1.000 17.123,1.000 19.000 C 1.000 21.455,1.003 21.491,1.225 21.930 C 1.361 22.199,1.801 22.639,2.070 22.775 C 2.509 22.997,2.545 23.000,4.993 23.000 C 7.443 23.000,7.494 22.996,7.937 22.771 C 8.197 22.639,8.639 22.197,8.771 21.937 C 8.996 21.494,9.000 21.442,8.999 19.014 C 8.999 16.601,8.991 16.496,8.781 16.083 C 8.646 15.816,8.297 15.449,8.017 15.281 C 7.564 15.008,7.524 15.005,5.000 15.005 C 2.992 15.005,2.711 15.012,2.477 15.073 M7.000 19.000 L 7.000 21.000 5.000 21.000 L 3.000 21.000 3.000 19.000 L 3.000 17.000 5.000 17.000 L 7.000 17.000 7.000 19.000 " stroke="none" fill="black" fill-rule="evenodd"></path></svg>