<svg xmlns="http://www.w3.org/2000/svg" width="24" height="24" viewBox="0 0 24 24" fill="none" stroke="currentColor" stroke-width="2" stroke-linecap="round" stroke-linejoin="round" class="icon icon-tabler icons-tabler-outline icon-tabler-haze"><path d="M11.614 2.057 C 11.377 2.131,11.212 2.261,11.109 2.453 C 11.027 2.606,11.019 2.684,11.007 3.405 C 10.999 3.880,11.011 4.252,11.037 4.349 C 11.144 4.748,11.430 4.961,11.896 4.991 C 12.381 5.022,12.699 4.882,12.880 4.558 C 12.978 4.383,12.980 4.364,12.980 3.500 C 12.980 2.667,12.975 2.611,12.891 2.453 C 12.842 2.362,12.746 2.247,12.678 2.199 C 12.414 2.010,11.957 1.950,11.614 2.057 M5.226 4.645 C 4.857 4.839,4.551 5.273,4.551 5.600 C 4.551 5.897,4.682 6.093,5.274 6.684 C 5.882 7.289,6.046 7.388,6.384 7.350 C 6.795 7.303,7.311 6.778,7.350 6.365 C 7.381 6.045,7.266 5.859,6.664 5.255 C 6.376 4.966,6.064 4.691,5.972 4.645 C 5.752 4.534,5.435 4.534,5.226 4.645 M18.020 4.647 C 17.782 4.770,16.822 5.744,16.723 5.961 C 16.558 6.325,16.651 6.662,17.017 7.018 C 17.400 7.393,17.766 7.453,18.152 7.205 C 18.417 7.035,19.249 6.179,19.359 5.961 C 19.537 5.612,19.448 5.246,19.101 4.899 C 18.761 4.559,18.366 4.467,18.020 4.647 M11.400 7.044 C 9.761 7.229,8.261 8.290,7.526 9.785 C 7.213 10.421,7.046 11.061,7.011 11.760 C 6.980 12.391,7.093 12.686,7.438 12.876 C 7.644 12.990,8.089 13.033,8.344 12.965 C 8.796 12.842,8.948 12.602,9.003 11.923 C 9.024 11.659,9.083 11.302,9.132 11.131 C 9.402 10.199,10.186 9.415,11.139 9.125 C 11.412 9.042,11.542 9.027,12.000 9.027 C 12.458 9.027,12.588 9.042,12.861 9.125 C 13.815 9.416,14.598 10.199,14.869 11.134 C 14.921 11.315,14.975 11.652,14.995 11.922 C 15.023 12.299,15.049 12.428,15.125 12.565 C 15.286 12.856,15.575 13.000,16.000 13.000 C 16.428 13.000,16.713 12.856,16.880 12.558 C 16.972 12.394,16.980 12.340,16.979 11.880 C 16.977 10.079,15.887 8.362,14.213 7.525 C 13.352 7.095,12.397 6.932,11.400 7.044 M2.614 11.057 C 2.377 11.131,2.212 11.261,2.109 11.453 C 2.035 11.592,2.020 11.684,2.020 12.000 C 2.020 12.331,2.033 12.403,2.120 12.558 C 2.230 12.755,2.414 12.898,2.635 12.959 C 2.823 13.012,4.177 13.012,4.365 12.959 C 4.586 12.898,4.770 12.755,4.880 12.558 C 4.967 12.402,4.980 12.332,4.979 12.000 C 4.978 11.687,4.962 11.591,4.890 11.453 C 4.786 11.256,4.623 11.131,4.371 11.055 C 4.126 10.982,2.851 10.983,2.614 11.057 M19.614 11.057 C 19.377 11.131,19.212 11.261,19.109 11.453 C 19.035 11.592,19.020 11.684,19.020 12.000 C 19.020 12.331,19.033 12.403,19.120 12.558 C 19.230 12.755,19.414 12.898,19.635 12.959 C 19.823 13.012,21.177 13.012,21.365 12.959 C 21.586 12.898,21.770 12.755,21.880 12.558 C 21.967 12.402,21.980 12.332,21.979 12.000 C 21.978 11.687,21.962 11.591,21.890 11.453 C 21.786 11.256,21.623 11.131,21.371 11.055 C 21.126 10.982,19.851 10.983,19.614 11.057 M2.614 15.057 C 2.377 15.131,2.212 15.261,2.109 15.453 C 2.035 15.592,2.020 15.684,2.020 16.000 C 2.020 16.331,2.033 16.403,2.120 16.558 C 2.230 16.755,2.414 16.898,2.635 16.959 C 2.835 17.015,21.165 17.015,21.365 16.959 C 21.586 16.898,21.770 16.755,21.880 16.558 C 21.967 16.402,21.980 16.332,21.979 16.000 C 21.978 15.567,21.898 15.355,21.678 15.199 C 21.385 14.990,21.877 15.000,11.984 15.003 C 4.546 15.005,2.748 15.015,2.614 15.057 M2.614 19.057 C 2.377 19.131,2.212 19.261,2.109 19.453 C 2.035 19.592,2.020 19.684,2.020 20.000 C 2.020 20.331,2.033 20.403,2.120 20.558 C 2.230 20.755,2.414 20.898,2.635 20.959 C 2.835 21.015,21.165 21.015,21.365 20.959 C 21.586 20.898,21.770 20.755,21.880 20.558 C 21.967 20.402,21.980 20.332,21.979 20.000 C 21.978 19.567,21.898 19.355,21.678 19.199 C 21.385 18.990,21.877 19.000,11.984 19.003 C 4.546 19.005,2.748 19.015,2.614 19.057 " stroke="none" fill="black" fill-rule="evenodd"></path></svg>