<svg xmlns="http://www.w3.org/2000/svg" width="24" height="24" viewBox="0 0 24 24" fill="none" stroke="currentColor" stroke-width="2" stroke-linecap="round" stroke-linejoin="round" class="icon icon-tabler icons-tabler-outline icon-tabler-qrcode-off"><path d="M2.626 2.045 C 2.257 2.239,1.951 2.673,1.951 3.000 C 1.951 3.279,2.081 3.486,2.569 3.986 L 3.008 4.435 3.003 6.848 C 2.997 9.472,2.998 9.482,3.225 9.930 C 3.361 10.199,3.801 10.639,4.070 10.775 C 4.509 10.997,4.545 11.000,6.999 11.000 C 8.243 11.000,9.316 10.984,9.385 10.964 C 9.508 10.929,9.524 10.944,11.255 12.675 L 13.000 14.420 13.000 15.820 C 13.000 16.634,13.017 17.281,13.041 17.365 C 13.148 17.750,13.437 17.962,13.896 17.991 C 14.381 18.022,14.700 17.881,14.878 17.559 C 14.963 17.406,14.979 17.317,14.993 16.906 L 15.010 16.432 17.735 19.152 C 19.646 21.059,20.513 21.898,20.637 21.961 C 20.990 22.137,21.354 22.048,21.701 21.701 C 22.048 21.354,22.137 20.990,21.961 20.637 C 21.888 20.492,18.377 16.918,14.747 13.293 C 14.158 12.704,7.834 6.380,7.760 6.305 C 7.705 6.249,6.733 5.287,5.600 4.167 C 4.268 2.849,3.480 2.099,3.372 2.045 C 3.152 1.934,2.835 1.934,2.626 2.045 M7.614 3.057 C 7.377 3.131,7.212 3.261,7.109 3.453 C 7.035 3.592,7.020 3.684,7.020 4.000 C 7.020 4.331,7.033 4.403,7.120 4.558 C 7.230 4.755,7.414 4.898,7.635 4.959 C 7.715 4.981,8.055 5.000,8.390 5.000 L 9.000 5.000 9.000 5.610 C 9.000 5.946,9.019 6.285,9.041 6.365 C 9.148 6.750,9.437 6.962,9.896 6.991 C 10.381 7.022,10.699 6.882,10.880 6.558 C 10.976 6.388,10.981 6.345,10.993 5.600 C 11.012 4.489,10.918 4.141,10.465 3.653 C 10.198 3.366,9.870 3.164,9.523 3.073 C 9.189 2.986,7.876 2.975,7.614 3.057 M14.477 3.073 C 13.806 3.249,13.238 3.823,13.060 4.508 C 13.010 4.698,13.000 5.123,13.000 7.000 C 13.000 9.455,13.003 9.491,13.225 9.930 C 13.361 10.199,13.801 10.639,14.070 10.775 C 14.509 10.997,14.545 11.000,17.000 11.000 C 19.455 11.000,19.491 10.997,19.930 10.775 C 20.196 10.640,20.638 10.200,20.771 9.937 C 20.996 9.494,21.000 9.442,20.999 7.014 C 20.999 4.601,20.991 4.496,20.781 4.083 C 20.646 3.816,20.297 3.449,20.017 3.281 C 19.564 3.008,19.524 3.005,17.000 3.005 C 14.992 3.005,14.711 3.012,14.477 3.073 M19.000 7.000 L 19.000 9.000 17.000 9.000 L 15.000 9.000 15.000 7.000 L 15.000 5.000 17.000 5.000 L 19.000 5.000 19.000 7.000 M16.614 6.057 C 16.221 6.180,16.039 6.435,16.009 6.906 C 15.962 7.621,16.306 8.000,17.000 8.000 C 17.698 8.000,18.043 7.616,17.989 6.900 C 17.963 6.563,17.859 6.327,17.678 6.199 C 17.414 6.010,16.957 5.950,16.614 6.057 M6.120 7.585 C 6.120 7.610,6.194 7.691,6.284 7.765 C 6.374 7.839,6.702 8.147,7.014 8.450 L 7.580 8.999 6.290 9.000 L 5.000 9.000 5.000 7.711 L 5.000 6.421 5.560 6.980 C 5.868 7.287,6.120 7.560,6.120 7.585 M4.477 13.073 C 3.806 13.249,3.238 13.823,3.060 14.508 C 3.010 14.698,3.000 15.123,3.000 17.000 C 3.000 19.455,3.003 19.491,3.225 19.930 C 3.361 20.199,3.801 20.639,4.070 20.775 C 4.509 20.997,4.545 21.000,7.000 21.000 C 9.455 21.000,9.491 20.997,9.930 20.775 C 10.196 20.640,10.638 20.200,10.771 19.937 C 10.996 19.494,11.000 19.442,10.999 17.014 C 10.999 14.601,10.991 14.496,10.781 14.083 C 10.646 13.816,10.297 13.449,10.017 13.281 C 9.564 13.008,9.524 13.005,7.000 13.005 C 4.992 13.005,4.711 13.012,4.477 13.073 M19.614 13.057 C 19.221 13.180,19.039 13.435,19.009 13.906 C 18.962 14.621,19.306 15.000,20.000 15.000 C 20.698 15.000,21.043 14.616,20.989 13.900 C 20.963 13.563,20.859 13.327,20.678 13.199 C 20.414 13.010,19.957 12.950,19.614 13.057 M9.000 17.000 L 9.000 19.000 7.000 19.000 L 5.000 19.000 5.000 17.000 L 5.000 15.000 7.000 15.000 L 9.000 15.000 9.000 17.000 M6.614 16.057 C 6.221 16.180,6.039 16.435,6.009 16.906 C 5.962 17.621,6.306 18.000,7.000 18.000 C 7.698 18.000,8.043 17.616,7.989 16.900 C 7.963 16.563,7.859 16.327,7.678 16.199 C 7.414 16.010,6.957 15.950,6.614 16.057 M13.614 19.057 C 13.377 19.131,13.212 19.261,13.109 19.453 C 13.035 19.592,13.020 19.684,13.020 20.000 C 13.020 20.331,13.033 20.403,13.120 20.558 C 13.230 20.755,13.414 20.898,13.635 20.959 C 13.722 20.983,14.470 21.000,15.500 21.000 C 16.530 21.000,17.278 20.983,17.365 20.959 C 17.586 20.898,17.770 20.755,17.880 20.558 C 17.967 20.402,17.980 20.332,17.979 20.000 C 17.978 19.687,17.962 19.591,17.890 19.453 C 17.786 19.256,17.623 19.131,17.371 19.055 C 17.114 18.978,13.862 18.980,13.614 19.057 " stroke="none" fill="black" fill-rule="evenodd"></path></svg>