<svg xmlns="http://www.w3.org/2000/svg" width="24" height="24" viewBox="0 0 24 24" fill="none" stroke="currentColor" stroke-width="2" stroke-linecap="round" stroke-linejoin="round" class="icon icon-tabler icons-tabler-outline icon-tabler-device-landline-phone"><path d="M17.499 2.042 C 17.170 2.099,16.822 2.221,16.553 2.372 C 16.302 2.513,15.889 2.839,15.828 2.945 C 15.801 2.991,14.924 3.000,10.288 3.000 C 4.375 3.000,4.347 3.001,3.755 3.204 C 2.368 3.679,1.372 4.805,1.083 6.227 C 1.002 6.625,1.000 6.734,1.000 12.000 C 1.000 17.266,1.002 17.375,1.083 17.773 C 1.311 18.892,1.985 19.851,2.956 20.436 C 3.285 20.635,3.810 20.832,4.243 20.921 C 4.621 20.998,4.803 21.000,10.199 21.000 L 15.766 21.000 15.893 21.127 C 16.257 21.491,16.649 21.725,17.161 21.886 C 17.453 21.978,17.496 21.980,19.000 21.980 C 20.503 21.980,20.547 21.978,20.840 21.886 C 21.827 21.578,22.578 20.827,22.886 19.840 L 22.980 19.540 22.980 12.000 L 22.980 4.460 22.886 4.160 C 22.581 3.181,21.825 2.421,20.861 2.124 C 20.548 2.027,20.504 2.024,19.120 2.015 C 18.339 2.010,17.609 2.022,17.499 2.042 M20.310 4.061 C 20.589 4.144,20.856 4.411,20.939 4.690 C 20.993 4.870,21.000 5.755,21.000 12.001 C 21.000 17.907,20.991 19.138,20.945 19.290 C 20.872 19.533,20.707 19.740,20.484 19.872 L 20.300 19.980 19.000 19.980 L 17.700 19.980 17.516 19.872 C 17.415 19.813,17.284 19.700,17.225 19.623 C 16.986 19.309,17.000 19.795,17.000 12.022 C 17.000 4.005,16.975 4.631,17.304 4.303 C 17.584 4.022,17.675 4.006,18.983 4.003 C 19.878 4.001,20.147 4.012,20.310 4.061 M15.000 12.000 L 15.000 19.000 9.868 19.000 C 4.298 19.000,4.532 19.009,4.083 18.781 C 3.816 18.646,3.449 18.297,3.281 18.017 C 2.990 17.533,3.005 17.862,3.002 12.028 C 3.000 6.217,2.988 6.475,3.265 6.014 C 3.546 5.543,3.988 5.201,4.477 5.073 C 4.719 5.010,5.154 5.004,9.870 5.002 L 15.000 5.000 15.000 12.000 M5.614 7.057 C 5.377 7.131,5.212 7.261,5.109 7.453 C 5.021 7.619,5.020 7.633,5.020 9.500 L 5.020 11.380 5.120 11.558 C 5.230 11.755,5.414 11.898,5.635 11.959 C 5.832 12.014,12.168 12.014,12.365 11.959 C 12.586 11.898,12.770 11.755,12.880 11.558 L 12.980 11.380 12.980 9.500 C 12.980 7.633,12.979 7.619,12.891 7.453 C 12.785 7.256,12.622 7.131,12.371 7.055 C 12.109 6.977,5.866 6.979,5.614 7.057 M11.000 9.500 L 11.000 10.000 9.000 10.000 L 7.000 10.000 7.000 9.500 L 7.000 9.000 9.000 9.000 L 11.000 9.000 11.000 9.500 M5.614 13.057 C 5.221 13.180,5.039 13.435,5.009 13.906 C 4.962 14.621,5.306 15.000,6.000 15.000 C 6.698 15.000,7.043 14.616,6.989 13.900 C 6.963 13.563,6.859 13.327,6.678 13.199 C 6.414 13.010,5.957 12.950,5.614 13.057 M8.614 13.057 C 8.221 13.180,8.039 13.435,8.009 13.906 C 7.962 14.621,8.306 15.000,9.000 15.000 C 9.698 15.000,10.043 14.616,9.989 13.900 C 9.963 13.563,9.859 13.327,9.678 13.199 C 9.414 13.010,8.957 12.950,8.614 13.057 M11.614 13.057 C 11.221 13.180,11.039 13.435,11.009 13.906 C 10.962 14.621,11.306 15.000,12.000 15.000 C 12.698 15.000,13.043 14.616,12.989 13.900 C 12.963 13.563,12.859 13.327,12.678 13.199 C 12.414 13.010,11.957 12.950,11.614 13.057 M5.614 16.057 C 5.221 16.180,5.039 16.435,5.009 16.906 C 4.962 17.621,5.306 18.000,6.000 18.000 C 6.698 18.000,7.043 17.616,6.989 16.900 C 6.963 16.563,6.859 16.327,6.678 16.199 C 6.414 16.010,5.957 15.950,5.614 16.057 M8.614 16.057 C 8.221 16.180,8.039 16.435,8.009 16.906 C 7.962 17.621,8.306 18.000,9.000 18.000 C 9.698 18.000,10.043 17.616,9.989 16.900 C 9.963 16.563,9.859 16.327,9.678 16.199 C 9.414 16.010,8.957 15.950,8.614 16.057 M11.614 16.057 C 11.221 16.180,11.039 16.435,11.009 16.906 C 10.962 17.621,11.306 18.000,12.000 18.000 C 12.698 18.000,13.043 17.616,12.989 16.900 C 12.963 16.563,12.859 16.327,12.678 16.199 C 12.414 16.010,11.957 15.950,11.614 16.057 " stroke="none" fill="black" fill-rule="evenodd"></path></svg>