<svg xmlns="http://www.w3.org/2000/svg" width="24" height="24" viewBox="0 0 24 24" fill="none" stroke="currentColor" stroke-width="2" stroke-linecap="round" stroke-linejoin="round" class="icon icon-tabler icons-tabler-outline icon-tabler-man"><path d="M11.499 1.040 C 10.363 1.246,9.460 2.049,9.114 3.160 C 8.979 3.594,8.979 4.406,9.114 4.840 C 9.421 5.826,10.174 6.579,11.160 6.886 C 11.594 7.021,12.406 7.021,12.840 6.886 C 13.826 6.579,14.579 5.826,14.886 4.840 C 15.021 4.406,15.021 3.594,14.886 3.160 C 14.581 2.179,13.810 1.407,12.861 1.129 C 12.500 1.023,11.832 0.980,11.499 1.040 M12.310 3.061 C 12.688 3.173,13.000 3.598,13.000 4.001 C 13.000 4.331,12.784 4.696,12.484 4.872 C 12.328 4.963,12.254 4.980,12.000 4.980 C 11.746 4.980,11.672 4.963,11.516 4.872 C 10.935 4.530,10.833 3.774,11.304 3.303 C 11.583 3.024,11.916 2.944,12.310 3.061 M8.426 8.043 C 7.104 8.187,5.720 8.919,4.455 10.145 C 4.084 10.505,3.951 10.730,3.951 11.000 C 3.951 11.477,4.523 12.049,5.000 12.049 C 5.259 12.049,5.449 11.940,5.885 11.538 C 6.572 10.904,7.158 10.508,7.793 10.249 C 7.976 10.174,8.132 10.119,8.138 10.127 C 8.145 10.134,8.341 11.481,8.575 13.120 L 9.000 16.100 9.000 18.660 C 9.000 20.252,9.016 21.275,9.041 21.365 C 9.148 21.750,9.437 21.962,9.896 21.991 C 10.381 22.022,10.699 21.882,10.880 21.558 L 10.980 21.380 10.992 19.190 L 11.003 17.000 12.002 17.000 L 13.000 17.000 13.000 19.110 C 13.000 20.400,13.016 21.276,13.041 21.365 C 13.148 21.750,13.437 21.962,13.896 21.991 C 14.381 22.022,14.699 21.882,14.880 21.558 L 14.980 21.380 15.000 18.620 L 15.020 15.860 15.435 13.000 C 15.663 11.427,15.855 10.134,15.862 10.127 C 15.868 10.119,16.024 10.174,16.207 10.249 C 16.842 10.508,17.428 10.904,18.115 11.538 C 18.551 11.940,18.741 12.049,19.000 12.049 C 19.477 12.049,20.049 11.477,20.049 11.000 C 20.049 10.730,19.916 10.505,19.545 10.145 C 18.426 9.061,17.277 8.397,16.020 8.108 C 15.673 8.028,15.540 8.025,12.200 8.017 C 10.297 8.012,8.599 8.024,8.426 8.043 M13.826 10.130 C 13.813 10.201,13.658 11.286,13.481 12.540 C 13.304 13.794,13.150 14.861,13.139 14.910 L 13.118 15.000 12.000 15.000 L 10.882 15.000 10.861 14.910 C 10.850 14.861,10.696 13.794,10.519 12.540 C 10.342 11.286,10.187 10.201,10.174 10.130 L 10.151 10.000 12.000 10.000 L 13.849 10.000 13.826 10.130 " stroke="none" fill="black" fill-rule="evenodd"></path></svg>