<svg xmlns="http://www.w3.org/2000/svg" width="24" height="24" viewBox="0 0 24 24" fill="none" stroke="currentColor" stroke-width="2" stroke-linecap="round" stroke-linejoin="round" class="icon icon-tabler icons-tabler-outline icon-tabler-play-basketball"><path d="M10.477 2.073 C 9.806 2.249,9.238 2.823,9.060 3.508 C 8.941 3.962,9.003 4.492,9.225 4.930 C 9.361 5.199,9.801 5.639,10.070 5.775 C 10.659 6.073,11.341 6.073,11.930 5.775 C 12.196 5.640,12.638 5.200,12.771 4.937 C 12.994 4.498,13.052 4.007,12.940 3.529 C 12.858 3.182,12.720 2.927,12.465 2.653 C 12.074 2.232,11.560 2.005,11.000 2.005 C 10.857 2.005,10.622 2.036,10.477 2.073 M10.040 7.062 C 9.941 7.093,8.924 7.326,7.780 7.580 C 6.473 7.871,5.633 8.076,5.520 8.133 C 5.188 8.302,5.138 8.408,4.548 10.187 C 4.250 11.085,3.994 11.894,3.980 11.985 C 3.905 12.472,4.272 12.876,4.903 13.000 C 5.328 13.084,5.660 12.918,5.857 12.524 C 5.908 12.423,6.135 11.780,6.362 11.097 L 6.775 9.853 8.073 9.566 C 8.787 9.407,9.375 9.283,9.380 9.289 C 9.384 9.295,9.300 10.326,9.193 11.580 C 9.085 12.834,9.005 13.964,9.015 14.090 C 9.049 14.537,9.047 14.535,11.123 16.092 L 13.000 17.500 13.000 19.360 C 13.000 20.483,13.016 21.277,13.041 21.365 C 13.148 21.750,13.437 21.962,13.896 21.991 C 14.381 22.022,14.699 21.882,14.880 21.558 L 14.980 21.380 14.990 19.080 L 15.000 16.780 14.890 16.560 C 14.784 16.350,14.700 16.280,12.960 14.969 C 11.959 14.215,11.118 13.585,11.092 13.569 C 11.055 13.546,11.075 13.163,11.179 11.919 C 11.254 11.029,11.321 10.242,11.327 10.170 L 11.340 10.041 12.412 10.958 C 13.243 11.669,13.526 11.889,13.672 11.936 C 13.775 11.970,14.769 12.224,15.880 12.502 C 18.079 13.051,18.234 13.076,18.517 12.917 C 18.941 12.679,19.149 11.882,18.900 11.456 C 18.734 11.173,18.523 11.098,16.440 10.581 C 15.417 10.327,14.544 10.103,14.500 10.084 C 14.384 10.033,11.487 7.540,11.309 7.337 C 11.041 7.032,10.504 6.916,10.040 7.062 M18.174 14.039 C 17.750 14.129,17.329 14.477,17.132 14.900 C 17.035 15.107,17.020 15.190,17.020 15.500 C 17.020 15.811,17.035 15.894,17.133 16.104 C 17.276 16.413,17.585 16.721,17.900 16.868 C 18.107 16.965,18.190 16.980,18.500 16.980 C 18.810 16.980,18.893 16.965,19.100 16.868 C 19.415 16.721,19.724 16.413,19.867 16.104 C 19.965 15.894,19.980 15.811,19.980 15.500 C 19.980 15.189,19.965 15.106,19.867 14.896 C 19.727 14.592,19.415 14.278,19.119 14.143 C 18.870 14.030,18.441 13.982,18.174 14.039 M8.260 15.583 C 8.031 15.738,7.990 15.800,7.576 16.620 L 7.192 17.380 5.660 18.920 C 4.631 19.955,4.100 20.518,4.040 20.637 C 3.863 20.989,3.952 21.354,4.299 21.701 C 4.646 22.048,5.011 22.137,5.363 21.960 C 5.483 21.900,6.069 21.345,7.173 20.246 L 8.807 18.620 9.281 17.671 C 9.557 17.118,9.766 16.649,9.781 16.548 C 9.840 16.152,9.648 15.850,9.192 15.621 C 8.823 15.437,8.495 15.423,8.260 15.583 " stroke="none" fill="black" fill-rule="evenodd"></path></svg>