<svg xmlns="http://www.w3.org/2000/svg" width="24" height="24" viewBox="0 0 24 24" fill="none" stroke="currentColor" stroke-width="2" stroke-linecap="round" stroke-linejoin="round" class="icon icon-tabler icons-tabler-outline icon-tabler-rubber-stamp"><path d="M11.400 2.044 C 9.761 2.229,8.261 3.290,7.526 4.785 C 7.168 5.513,7.021 6.140,7.020 6.940 C 7.020 7.707,7.113 8.069,7.688 9.540 C 8.320 11.157,8.447 11.575,8.447 12.052 C 8.447 12.460,8.355 12.562,7.859 12.699 C 7.682 12.747,7.319 12.774,6.465 12.801 C 4.892 12.851,4.310 12.961,3.693 13.323 C 3.357 13.520,2.845 14.043,2.657 14.380 C 2.241 15.126,2.001 16.318,2.000 17.629 C 2.000 18.148,2.064 18.393,2.250 18.588 C 2.508 18.859,1.765 18.840,12.000 18.840 C 22.235 18.840,21.492 18.859,21.750 18.588 C 21.936 18.393,22.000 18.148,22.000 17.629 C 21.999 16.322,21.757 15.121,21.347 14.388 C 21.026 13.816,20.433 13.321,19.791 13.089 C 19.270 12.900,18.813 12.842,17.535 12.801 C 16.681 12.774,16.318 12.747,16.141 12.699 C 15.644 12.562,15.548 12.456,15.551 12.049 C 15.555 11.565,15.648 11.252,16.259 9.680 C 16.893 8.048,16.980 7.716,16.980 6.940 C 16.979 6.105,16.827 5.486,16.433 4.713 C 15.794 3.461,14.604 2.510,13.240 2.162 C 12.669 2.016,12.019 1.974,11.400 2.044 M12.861 4.129 C 14.290 4.547,15.251 6.088,14.927 7.443 C 14.882 7.631,14.716 8.117,14.559 8.523 C 13.791 10.500,13.644 10.968,13.564 11.686 C 13.416 13.014,13.983 14.004,15.163 14.476 C 15.721 14.699,16.142 14.759,17.420 14.800 C 18.666 14.839,18.897 14.867,19.226 15.018 C 19.577 15.178,19.781 15.591,19.899 16.380 C 19.932 16.600,19.960 16.793,19.960 16.810 C 19.960 16.827,16.377 16.840,11.999 16.840 L 4.037 16.840 4.062 16.630 C 4.130 16.042,4.258 15.593,4.442 15.303 C 4.532 15.161,4.614 15.091,4.774 15.018 C 5.103 14.867,5.334 14.839,6.580 14.800 C 8.164 14.750,8.732 14.624,9.406 14.176 C 10.484 13.460,10.733 12.157,10.135 10.366 C 10.056 10.132,9.812 9.481,9.592 8.920 C 9.085 7.631,8.985 7.263,9.016 6.798 C 9.106 5.416,10.119 4.290,11.499 4.040 C 11.832 3.980,12.500 4.023,12.861 4.129 M4.614 20.057 C 4.377 20.131,4.212 20.261,4.109 20.453 C 4.035 20.592,4.020 20.684,4.020 21.000 C 4.020 21.331,4.033 21.403,4.120 21.558 C 4.230 21.755,4.414 21.898,4.635 21.959 C 4.835 22.015,19.165 22.015,19.365 21.959 C 19.586 21.898,19.770 21.755,19.880 21.558 C 19.967 21.402,19.980 21.332,19.979 21.000 C 19.978 20.567,19.898 20.355,19.678 20.199 C 19.387 19.991,19.720 20.000,11.984 20.003 C 6.188 20.005,4.747 20.016,4.614 20.057 " stroke="none" fill="black" fill-rule="evenodd"></path></svg>