<svg xmlns="http://www.w3.org/2000/svg" width="24" height="24" viewBox="0 0 24 24" fill="none" stroke="currentColor" stroke-width="2" stroke-linecap="round" stroke-linejoin="round" class="icon icon-tabler icons-tabler-outline icon-tabler-heart-code"><path d="M7.100 3.065 C 6.061 3.227,5.201 3.591,4.361 4.223 C 3.214 5.087,2.418 6.358,2.095 7.840 C 1.989 8.327,1.988 9.635,2.094 10.120 C 2.332 11.211,2.779 12.140,3.424 12.880 C 3.549 13.023,5.192 14.666,7.075 16.530 C 10.806 20.224,10.722 20.149,11.122 20.111 C 11.502 20.074,11.975 19.642,12.085 19.233 C 12.156 18.969,12.081 18.743,11.825 18.443 C 11.712 18.311,10.134 16.735,8.318 14.941 C 6.501 13.147,4.924 11.558,4.812 11.410 C 4.418 10.886,4.211 10.421,4.072 9.741 C 4.005 9.415,3.994 9.250,4.012 8.860 C 4.044 8.148,4.173 7.664,4.483 7.087 C 4.888 6.333,5.527 5.736,6.337 5.357 C 6.881 5.102,7.274 5.023,8.000 5.022 C 8.554 5.022,8.662 5.033,9.017 5.132 C 9.900 5.376,10.531 5.803,11.233 6.631 C 11.603 7.066,11.953 7.158,12.391 6.935 C 12.558 6.849,12.691 6.731,12.911 6.469 C 13.938 5.253,15.500 4.760,17.060 5.160 C 17.908 5.377,18.806 6.021,19.304 6.768 C 19.750 7.435,19.971 8.161,19.972 8.960 C 19.973 9.691,19.861 10.201,19.569 10.796 C 19.362 11.220,19.138 11.509,18.554 12.104 C 18.013 12.657,17.920 12.803,17.920 13.100 C 17.920 13.352,18.002 13.524,18.240 13.776 C 18.593 14.149,18.952 14.241,19.342 14.057 C 19.536 13.966,20.507 13.003,20.787 12.625 C 21.743 11.333,22.165 9.700,21.937 8.169 C 21.570 5.694,19.710 3.683,17.308 3.164 C 15.508 2.775,13.677 3.197,12.251 4.328 L 12.002 4.525 11.731 4.307 C 10.457 3.284,8.708 2.815,7.100 3.065 M16.620 16.046 C 16.390 16.165,14.153 18.411,14.040 18.637 C 13.986 18.744,13.951 18.889,13.951 19.000 C 13.951 19.334,14.057 19.468,15.294 20.706 C 16.532 21.943,16.666 22.049,17.000 22.049 C 17.477 22.049,18.049 21.477,18.049 21.000 C 18.049 20.693,17.921 20.513,17.147 19.730 L 16.425 19.000 17.147 18.270 C 17.580 17.832,17.905 17.469,17.959 17.363 C 18.137 17.012,18.048 16.646,17.701 16.299 C 17.361 15.959,16.967 15.867,16.620 16.046 M19.626 16.045 C 19.257 16.239,18.951 16.673,18.951 17.000 C 18.951 17.307,19.079 17.487,19.853 18.270 L 20.575 19.000 19.853 19.730 C 19.420 20.168,19.095 20.531,19.041 20.637 C 18.863 20.988,18.952 21.354,19.299 21.701 C 19.646 22.048,20.010 22.137,20.363 21.960 C 20.607 21.838,22.838 19.607,22.960 19.363 C 23.076 19.132,23.076 18.868,22.960 18.637 C 22.842 18.400,20.608 16.162,20.372 16.044 C 20.152 15.934,19.835 15.935,19.626 16.045 " stroke="none" fill="black" fill-rule="evenodd"></path></svg>