<svg xmlns="http://www.w3.org/2000/svg" width="24" height="24" viewBox="0 0 24 24" fill="none" stroke="currentColor" stroke-width="2" stroke-linecap="round" stroke-linejoin="round" class="icon icon-tabler icons-tabler-outline icon-tabler-files-off"><path d="M2.626 2.045 C 2.420 2.154,2.146 2.433,2.038 2.644 C 1.924 2.868,1.924 3.133,2.040 3.363 C 2.100 3.482,2.627 4.040,3.654 5.071 L 5.179 6.601 4.968 6.803 C 4.527 7.227,4.288 7.605,4.114 8.161 L 4.020 8.460 4.020 14.000 L 4.020 19.540 4.114 19.840 C 4.422 20.827,5.173 21.578,6.160 21.886 L 6.460 21.980 10.500 21.980 L 14.540 21.980 14.840 21.886 C 15.818 21.581,16.576 20.829,16.880 19.860 C 16.947 19.648,16.973 19.440,16.990 19.007 L 17.011 18.433 18.736 20.152 C 19.909 21.322,20.517 21.900,20.637 21.960 C 20.989 22.137,21.354 22.048,21.701 21.701 C 22.048 21.354,22.137 20.989,21.960 20.637 C 21.900 20.517,21.225 19.807,19.853 18.420 C 18.743 17.298,17.796 16.341,17.748 16.293 C 17.547 16.093,9.852 8.398,9.760 8.305 C 9.705 8.249,9.255 7.799,8.760 7.305 C 8.265 6.811,7.815 6.361,7.760 6.305 C 7.705 6.249,6.733 5.287,5.600 4.167 C 4.268 2.849,3.480 2.099,3.372 2.045 C 3.152 1.934,2.835 1.934,2.626 2.045 M10.499 2.043 C 9.391 2.229,8.455 3.054,8.122 4.140 C 8.018 4.479,7.972 5.113,8.035 5.344 C 8.146 5.749,8.428 5.961,8.896 5.991 C 9.592 6.035,9.918 5.762,9.996 5.072 C 10.045 4.644,10.108 4.490,10.321 4.283 C 10.604 4.009,10.675 4.000,12.447 4.000 L 14.000 4.000 14.000 5.632 C 14.000 7.399,14.010 7.507,14.225 7.930 C 14.361 8.199,14.801 8.639,15.070 8.775 C 15.493 8.990,15.601 9.000,17.368 9.000 L 19.000 9.000 19.000 12.058 L 19.000 15.117 18.901 15.428 C 18.680 16.120,18.821 16.453,19.460 16.745 C 19.738 16.872,20.069 16.890,20.266 16.788 C 20.458 16.688,20.666 16.418,20.779 16.122 C 21.007 15.527,21.003 15.609,20.991 11.448 L 20.980 7.620 20.890 7.452 C 20.841 7.360,20.724 7.231,20.630 7.165 C 20.498 7.073,16.263 2.838,15.719 2.254 C 15.483 2.001,15.469 1.999,12.963 2.005 C 11.718 2.007,10.609 2.025,10.499 2.043 M16.800 6.220 L 17.579 7.000 16.790 7.000 L 16.000 7.000 16.000 6.220 C 16.000 5.791,16.005 5.440,16.010 5.440 C 16.016 5.440,16.371 5.791,16.800 6.220 M7.329 8.750 L 7.998 9.420 8.009 12.500 L 8.021 15.580 8.114 15.860 C 8.441 16.839,9.164 17.561,10.140 17.885 C 10.418 17.977,10.438 17.978,12.710 17.991 L 15.000 18.004 15.000 18.556 C 15.000 19.352,14.889 19.633,14.484 19.872 L 14.300 19.980 10.500 19.980 L 6.700 19.980 6.516 19.872 C 6.415 19.813,6.284 19.700,6.225 19.623 C 5.988 19.312,6.000 19.608,6.000 14.021 C 6.000 8.525,5.995 8.674,6.198 8.412 C 6.298 8.283,6.554 8.080,6.618 8.080 C 6.641 8.080,6.962 8.381,7.329 8.750 M14.130 15.992 C 13.894 15.998,13.025 15.998,12.200 15.992 L 10.700 15.980 10.516 15.872 C 10.415 15.813,10.284 15.700,10.225 15.623 C 10.002 15.331,10.000 15.309,10.000 13.285 L 10.000 11.420 12.280 13.700 L 14.561 15.980 14.130 15.992 " stroke="none" fill="black" fill-rule="evenodd"></path></svg>