<svg xmlns="http://www.w3.org/2000/svg" width="24" height="24" viewBox="0 0 24 24" fill="none" stroke="currentColor" stroke-width="2" stroke-linecap="round" stroke-linejoin="round" class="icon icon-tabler icons-tabler-outline icon-tabler-chess-king"><path d="M11.614 2.057 C 11.377 2.131,11.212 2.261,11.109 2.453 C 11.024 2.613,11.020 2.668,11.008 3.810 L 10.996 5.000 9.904 5.000 C 8.744 5.000,8.570 5.022,8.322 5.199 C 8.100 5.357,8.020 5.568,8.020 6.000 C 8.020 6.331,8.033 6.403,8.120 6.558 C 8.230 6.755,8.414 6.898,8.635 6.959 C 8.716 6.982,9.270 7.000,9.890 7.000 L 11.000 7.000 11.000 7.881 L 11.000 8.761 10.849 8.666 C 10.212 8.264,9.297 8.001,8.533 8.000 C 5.788 7.999,3.668 10.407,4.043 13.103 C 4.142 13.818,4.473 14.636,4.881 15.174 C 5.090 15.449,5.506 15.880,5.666 15.987 C 5.750 16.043,5.749 16.046,5.559 16.241 C 5.336 16.470,5.106 16.903,5.041 17.215 C 5.011 17.358,5.000 17.927,5.008 18.905 L 5.020 20.380 5.120 20.558 C 5.230 20.755,5.414 20.898,5.635 20.959 C 5.834 21.015,18.166 21.015,18.365 20.959 C 18.586 20.898,18.770 20.755,18.880 20.558 L 18.980 20.380 18.992 18.907 C 19.000 17.921,18.990 17.363,18.959 17.217 C 18.894 16.903,18.664 16.470,18.441 16.241 C 18.251 16.046,18.250 16.043,18.334 15.986 C 18.381 15.954,18.532 15.818,18.669 15.683 C 19.719 14.653,20.211 13.066,19.920 11.642 C 19.486 9.508,17.640 7.999,15.467 8.000 C 14.698 8.001,13.793 8.261,13.151 8.666 L 13.000 8.761 13.000 7.881 L 13.000 7.000 14.110 7.000 C 14.730 7.000,15.284 6.982,15.365 6.959 C 15.586 6.898,15.770 6.755,15.880 6.558 C 15.967 6.402,15.980 6.332,15.979 6.000 C 15.978 5.567,15.898 5.355,15.678 5.199 C 15.430 5.022,15.256 5.000,14.096 5.000 L 13.005 5.000 12.993 3.810 C 12.981 2.669,12.976 2.613,12.891 2.453 C 12.842 2.362,12.746 2.247,12.678 2.199 C 12.414 2.010,11.957 1.950,11.614 2.057 M9.020 10.060 C 9.174 10.092,9.452 10.193,9.638 10.285 C 10.054 10.490,10.472 10.890,10.677 11.280 C 10.872 11.650,10.956 11.754,11.160 11.874 C 11.335 11.977,11.358 11.980,12.000 11.980 C 12.642 11.980,12.665 11.977,12.840 11.874 C 13.044 11.754,13.128 11.650,13.323 11.280 C 13.528 10.890,13.946 10.490,14.362 10.285 C 15.117 9.913,15.882 9.913,16.637 10.284 C 17.214 10.569,17.686 11.131,17.891 11.780 C 18.006 12.143,18.013 12.818,17.905 13.180 C 17.646 14.045,16.967 14.698,16.096 14.921 C 15.799 14.997,15.638 15.000,12.000 15.000 C 8.362 15.000,8.201 14.997,7.904 14.921 C 7.032 14.698,6.353 14.044,6.096 13.180 C 5.988 12.817,5.994 12.142,6.109 11.780 C 6.503 10.536,7.757 9.796,9.020 10.060 M16.380 17.309 L 17.000 17.619 17.000 18.309 L 17.000 19.000 12.000 19.000 L 7.000 19.000 7.000 18.309 L 7.000 17.619 7.610 17.312 L 8.220 17.005 11.990 17.002 L 15.759 17.000 16.380 17.309 " stroke="none" fill="black" fill-rule="evenodd"></path></svg>