<svg xmlns="http://www.w3.org/2000/svg" width="24" height="24" viewBox="0 0 24 24" fill="none" stroke="currentColor" stroke-width="2" stroke-linecap="round" stroke-linejoin="round" class="icon icon-tabler icons-tabler-outline icon-tabler-grid-goldenratio"><path d="M9.614 2.057 C 9.377 2.131,9.212 2.261,9.109 2.453 L 9.020 2.620 9.009 5.810 L 8.998 9.000 5.905 9.000 C 2.599 9.000,2.601 9.000,2.322 9.199 C 2.100 9.357,2.020 9.568,2.020 10.000 C 2.020 10.331,2.033 10.403,2.120 10.558 C 2.230 10.755,2.414 10.898,2.635 10.959 C 2.726 10.985,3.930 11.000,5.890 11.000 L 9.000 11.000 9.000 12.000 L 9.000 13.000 5.906 13.000 C 2.599 13.000,2.601 13.000,2.322 13.199 C 2.100 13.357,2.020 13.568,2.020 14.000 C 2.020 14.331,2.033 14.403,2.120 14.558 C 2.230 14.755,2.414 14.898,2.635 14.959 C 2.726 14.985,3.930 15.000,5.890 15.000 L 9.000 15.000 9.000 18.110 C 9.000 20.070,9.015 21.274,9.041 21.365 C 9.148 21.750,9.437 21.962,9.896 21.991 C 10.381 22.022,10.699 21.882,10.880 21.558 L 10.980 21.380 10.991 18.190 L 11.002 15.000 12.001 15.000 L 13.000 15.000 13.000 18.110 C 13.000 20.070,13.015 21.274,13.041 21.365 C 13.148 21.750,13.437 21.962,13.896 21.991 C 14.381 22.022,14.699 21.882,14.880 21.558 L 14.980 21.380 14.991 18.190 L 15.002 15.000 18.111 15.000 C 20.070 15.000,21.274 14.985,21.365 14.959 C 21.586 14.898,21.770 14.755,21.880 14.558 C 21.967 14.402,21.980 14.332,21.979 14.000 C 21.978 13.567,21.898 13.355,21.678 13.199 C 21.399 13.000,21.401 13.000,18.094 13.000 L 15.000 13.000 15.000 12.000 L 15.000 11.000 18.110 11.000 C 20.070 11.000,21.274 10.985,21.365 10.959 C 21.586 10.898,21.770 10.755,21.880 10.558 C 21.967 10.402,21.980 10.332,21.979 10.000 C 21.978 9.567,21.898 9.355,21.678 9.199 C 21.399 9.000,21.401 9.000,18.095 9.000 L 15.002 9.000 14.991 5.810 L 14.980 2.620 14.889 2.450 C 14.724 2.140,14.329 1.970,13.874 2.011 C 13.439 2.051,13.141 2.274,13.041 2.635 C 13.015 2.726,13.000 3.930,13.000 5.890 L 13.000 9.000 12.001 9.000 L 11.002 9.000 10.991 5.810 L 10.980 2.620 10.891 2.453 C 10.842 2.362,10.746 2.247,10.678 2.199 C 10.414 2.010,9.957 1.950,9.614 2.057 M13.000 12.000 L 13.000 13.000 12.000 13.000 L 11.000 13.000 11.000 12.000 L 11.000 11.000 12.000 11.000 L 13.000 11.000 13.000 12.000 " stroke="none" fill="black" fill-rule="evenodd"></path></svg>