<svg xmlns="http://www.w3.org/2000/svg" width="24" height="24" viewBox="0 0 24 24" fill="none" stroke="currentColor" stroke-width="2" stroke-linecap="round" stroke-linejoin="round" class="icon icon-tabler icons-tabler-outline icon-tabler-brand-behance"><path d="M2.614 5.056 C 2.376 5.132,2.212 5.262,2.109 5.453 L 2.020 5.620 2.010 11.914 C 2.003 16.059,2.013 18.259,2.039 18.358 C 2.100 18.584,2.243 18.769,2.442 18.880 L 2.620 18.980 5.180 18.992 C 7.956 19.005,8.119 18.996,8.736 18.795 C 9.394 18.580,9.901 18.257,10.405 17.734 C 11.850 16.231,11.852 13.766,10.408 12.271 L 10.147 12.000 10.408 11.729 C 11.871 10.214,11.851 7.758,10.365 6.226 C 9.846 5.693,9.226 5.330,8.480 5.127 L 8.100 5.023 5.440 5.013 C 3.318 5.005,2.746 5.014,2.614 5.056 M15.614 5.057 C 15.377 5.131,15.212 5.261,15.109 5.453 C 15.035 5.592,15.020 5.684,15.020 6.000 C 15.020 6.331,15.033 6.403,15.120 6.558 C 15.230 6.755,15.414 6.898,15.635 6.959 C 15.722 6.983,16.470 7.000,17.500 7.000 C 18.530 7.000,19.278 6.983,19.365 6.959 C 19.586 6.898,19.770 6.755,19.880 6.558 C 19.967 6.402,19.980 6.332,19.979 6.000 C 19.978 5.687,19.962 5.591,19.890 5.453 C 19.786 5.256,19.623 5.131,19.371 5.055 C 19.114 4.978,15.862 4.980,15.614 5.057 M7.885 7.040 C 8.373 7.131,8.923 7.509,9.200 7.946 C 9.578 8.542,9.577 9.459,9.198 10.057 C 9.027 10.327,8.688 10.643,8.433 10.771 C 7.991 10.992,7.905 11.000,5.872 11.000 L 4.000 11.000 4.000 9.000 L 4.000 7.000 5.835 7.000 C 6.886 7.000,7.761 7.017,7.885 7.040 M16.672 8.583 C 14.829 8.916,13.364 10.424,13.059 12.300 C 12.976 12.811,12.977 15.025,13.061 15.419 C 13.402 17.030,14.530 18.295,16.074 18.798 C 16.567 18.958,16.951 19.016,17.500 19.013 C 18.697 19.006,19.735 18.576,20.614 17.723 C 21.168 17.185,21.621 16.436,21.669 15.980 C 21.709 15.589,21.485 15.285,21.000 15.072 C 20.711 14.945,20.440 14.933,20.224 15.038 C 19.999 15.147,19.912 15.248,19.661 15.696 C 19.243 16.442,18.588 16.890,17.754 17.000 C 16.565 17.159,15.375 16.346,15.059 15.160 C 15.024 15.027,15.001 14.754,15.000 14.470 L 15.000 14.000 18.110 14.000 C 20.070 14.000,21.274 13.985,21.365 13.959 C 21.915 13.807,22.102 13.276,21.945 12.316 C 21.668 10.627,20.525 9.284,18.891 8.726 C 18.303 8.525,17.336 8.463,16.672 8.583 M18.116 10.581 C 18.537 10.681,18.900 10.896,19.260 11.258 C 19.436 11.435,19.631 11.675,19.692 11.790 L 19.805 12.000 17.500 12.000 L 15.195 12.000 15.308 11.790 C 15.369 11.675,15.564 11.434,15.740 11.255 C 16.090 10.900,16.453 10.683,16.872 10.582 C 17.179 10.508,17.801 10.507,18.116 10.581 M7.885 13.040 C 8.373 13.131,8.923 13.509,9.200 13.946 C 9.578 14.542,9.577 15.459,9.198 16.057 C 9.027 16.327,8.688 16.643,8.433 16.771 C 7.991 16.992,7.905 17.000,5.872 17.000 L 4.000 17.000 4.000 15.000 L 4.000 13.000 5.835 13.000 C 6.886 13.000,7.761 13.017,7.885 13.040 " stroke="none" fill="black" fill-rule="evenodd"></path></svg>