<svg xmlns="http://www.w3.org/2000/svg" width="24" height="24" viewBox="0 0 24 24" fill="none" stroke="currentColor" stroke-width="2" stroke-linecap="round" stroke-linejoin="round" class="icon icon-tabler icons-tabler-outline icon-tabler-tent"><path d="M11.684 3.045 C 11.560 3.094,11.400 3.200,11.308 3.295 C 11.117 3.491,2.078 19.541,1.999 19.824 C 1.896 20.192,2.007 20.497,2.337 20.749 C 2.678 21.010,2.530 21.000,6.000 21.000 C 9.410 21.000,9.330 21.005,9.617 20.784 C 9.685 20.733,10.244 19.932,10.860 19.006 C 11.476 18.080,11.989 17.323,12.000 17.323 C 12.011 17.323,12.533 18.091,13.160 19.031 C 14.197 20.584,14.318 20.750,14.497 20.860 L 14.694 20.980 17.949 20.991 C 20.073 20.998,21.257 20.988,21.356 20.961 C 21.580 20.901,21.768 20.758,21.871 20.572 C 21.993 20.351,22.031 19.948,21.951 19.715 C 21.887 19.526,12.945 3.605,12.755 3.340 C 12.496 2.980,12.116 2.875,11.684 3.045 M15.580 12.406 C 17.538 15.885,19.172 18.792,19.211 18.866 L 19.282 19.000 17.407 19.000 L 15.533 19.000 14.380 17.270 C 13.746 16.319,13.227 15.522,13.227 15.499 C 13.227 15.476,13.376 15.235,13.558 14.964 C 13.959 14.364,14.038 14.198,14.039 13.946 C 14.040 13.696,13.956 13.523,13.734 13.319 C 13.372 12.985,12.926 12.874,12.606 13.037 C 12.443 13.120,12.219 13.348,12.098 13.553 C 12.056 13.623,12.013 13.680,12.000 13.680 C 11.987 13.680,11.944 13.623,11.902 13.553 C 11.781 13.348,11.557 13.120,11.394 13.037 C 11.074 12.874,10.628 12.985,10.266 13.319 C 10.044 13.523,9.960 13.696,9.961 13.946 C 9.962 14.198,10.041 14.364,10.442 14.964 C 10.624 15.235,10.773 15.476,10.773 15.499 C 10.773 15.522,10.254 16.319,9.620 17.270 L 8.467 19.000 6.593 19.000 L 4.718 19.000 4.789 18.866 C 5.030 18.410,11.984 6.080,12.000 6.080 C 12.011 6.080,13.622 8.927,15.580 12.406 " stroke="none" fill="black" fill-rule="evenodd"></path></svg>