<svg xmlns="http://www.w3.org/2000/svg" width="24" height="24" viewBox="0 0 24 24" fill="none" stroke="currentColor" stroke-width="2" stroke-linecap="round" stroke-linejoin="round" class="icon icon-tabler icons-tabler-outline icon-tabler-file-type-jpg"><path d="M6.499 2.043 C 5.393 2.228,4.488 3.024,4.114 4.140 L 4.020 4.420 4.009 8.311 C 4.001 10.892,4.011 12.253,4.039 12.355 C 4.144 12.747,4.433 12.961,4.896 12.991 C 5.381 13.022,5.699 12.882,5.880 12.558 L 5.980 12.380 6.000 8.560 C 6.022 4.280,5.999 4.597,6.321 4.283 C 6.622 3.992,6.514 4.000,9.947 4.000 L 13.000 4.000 13.000 5.632 C 13.000 7.399,13.010 7.507,13.225 7.930 C 13.361 8.199,13.801 8.639,14.070 8.775 C 14.493 8.990,14.601 9.000,16.368 9.000 L 18.000 9.000 18.000 10.610 C 18.000 11.565,18.017 12.279,18.041 12.365 C 18.148 12.750,18.437 12.962,18.896 12.991 C 19.381 13.022,19.699 12.882,19.880 12.558 L 19.980 12.380 19.980 10.000 L 19.980 7.620 19.890 7.452 C 19.841 7.360,19.724 7.231,19.630 7.165 C 19.498 7.073,15.263 2.838,14.719 2.254 C 14.473 1.991,14.626 2.000,10.463 2.005 C 8.393 2.007,6.609 2.025,6.499 2.043 M15.800 6.220 L 16.579 7.000 15.790 7.000 L 15.000 7.000 15.000 6.220 C 15.000 5.791,15.005 5.440,15.010 5.440 C 15.016 5.440,15.371 5.791,15.800 6.220 M4.614 14.057 C 4.377 14.131,4.212 14.261,4.109 14.453 C 4.035 14.592,4.020 14.684,4.020 15.000 C 4.020 15.331,4.033 15.403,4.120 15.558 C 4.230 15.755,4.414 15.898,4.635 15.959 C 4.716 15.982,5.270 16.000,5.890 16.000 L 7.000 16.000 7.000 17.810 C 7.000 19.535,6.996 19.626,6.922 19.748 C 6.650 20.194,6.001 19.989,6.000 19.457 C 6.000 19.172,5.895 18.902,5.723 18.747 C 5.536 18.578,5.351 18.520,5.000 18.520 C 4.649 18.520,4.464 18.578,4.277 18.748 C 4.060 18.944,3.982 19.218,4.012 19.680 C 4.075 20.666,4.730 21.524,5.680 21.868 C 5.948 21.965,6.035 21.976,6.500 21.976 C 6.966 21.976,7.051 21.965,7.320 21.867 C 8.039 21.606,8.604 21.041,8.869 20.320 L 8.980 20.020 8.980 17.320 L 8.980 14.620 8.891 14.453 C 8.785 14.256,8.622 14.131,8.371 14.055 C 8.114 13.978,4.862 13.980,4.614 14.057 M10.614 14.057 C 10.377 14.131,10.212 14.261,10.109 14.453 L 10.020 14.620 10.009 17.912 C 10.002 20.060,10.012 21.257,10.039 21.356 C 10.144 21.747,10.434 21.961,10.896 21.991 C 11.381 22.022,11.699 21.882,11.880 21.558 C 11.979 21.381,11.980 21.374,11.993 20.195 L 12.005 19.010 12.513 18.991 C 12.925 18.975,13.076 18.951,13.320 18.865 C 14.031 18.614,14.605 18.041,14.867 17.320 C 14.965 17.051,14.976 16.966,14.976 16.500 C 14.976 16.035,14.965 15.948,14.868 15.680 C 14.732 15.306,14.458 14.898,14.165 14.636 C 13.887 14.387,13.390 14.137,13.020 14.060 C 12.647 13.982,10.861 13.980,10.614 14.057 M18.499 14.043 C 17.383 14.230,16.461 15.048,16.114 16.160 C 16.022 16.453,16.020 16.497,16.020 18.000 C 16.020 19.503,16.022 19.547,16.114 19.840 C 16.419 20.818,17.164 21.568,18.140 21.882 C 18.386 21.961,18.528 21.974,19.300 21.990 C 19.873 22.002,20.238 21.993,20.344 21.964 C 20.583 21.900,20.766 21.761,20.880 21.558 L 20.980 21.380 20.980 19.500 C 20.980 17.622,20.980 17.620,20.889 17.450 C 20.724 17.140,20.329 16.970,19.874 17.011 C 19.439 17.051,19.141 17.274,19.041 17.635 C 19.018 17.716,19.000 18.272,19.000 18.895 L 19.000 20.010 18.830 19.983 C 18.608 19.948,18.360 19.799,18.225 19.623 C 18.014 19.347,18.000 19.245,18.000 18.022 C 18.000 16.695,18.019 16.587,18.303 16.303 C 18.563 16.043,18.741 16.000,19.557 16.000 C 19.922 16.000,20.285 15.981,20.365 15.959 C 20.586 15.898,20.770 15.755,20.880 15.558 C 20.967 15.402,20.980 15.332,20.979 15.000 C 20.978 14.687,20.962 14.591,20.890 14.453 C 20.786 14.256,20.623 14.131,20.371 14.055 C 20.164 13.993,18.848 13.985,18.499 14.043 M12.748 16.078 C 12.893 16.167,13.000 16.346,13.000 16.500 C 13.000 16.654,12.893 16.833,12.748 16.922 C 12.650 16.981,12.547 17.000,12.310 17.000 L 12.000 17.000 12.000 16.500 L 12.000 16.000 12.310 16.000 C 12.547 16.000,12.650 16.019,12.748 16.078 " stroke="none" fill="black" fill-rule="evenodd"></path></svg>