<svg xmlns="http://www.w3.org/2000/svg" width="24" height="24" viewBox="0 0 24 24" fill="none" stroke="currentColor" stroke-width="2" stroke-linecap="round" stroke-linejoin="round" class="icon icon-tabler icons-tabler-outline icon-tabler-ruler-2-off"><path d="M2.626 2.045 C 2.420 2.154,2.146 2.433,2.038 2.644 C 1.924 2.867,1.924 3.132,2.039 3.363 C 2.102 3.488,3.074 4.488,5.353 6.770 L 8.579 10.000 5.353 13.230 C 3.074 15.512,2.102 16.512,2.039 16.637 C 1.924 16.868,1.924 17.132,2.039 17.363 C 2.164 17.612,6.388 21.836,6.637 21.961 C 6.868 22.076,7.132 22.076,7.363 21.961 C 7.488 21.898,8.488 20.926,10.770 18.647 L 14.000 15.421 17.230 18.647 C 19.512 20.926,20.512 21.898,20.637 21.961 C 20.990 22.137,21.355 22.048,21.701 21.701 C 22.047 21.355,22.136 20.990,21.961 20.637 C 21.839 20.392,3.616 2.165,3.372 2.044 C 3.152 1.934,2.834 1.935,2.626 2.045 M16.620 2.046 C 16.392 2.163,11.156 7.409,11.056 7.620 C 10.962 7.820,10.962 8.135,11.056 8.315 C 11.160 8.513,11.430 8.791,11.636 8.911 C 11.856 9.040,12.143 9.052,12.380 8.940 C 12.479 8.894,12.915 8.494,13.520 7.895 L 14.500 6.925 14.980 7.397 C 15.509 7.916,15.717 8.049,16.000 8.049 C 16.477 8.049,17.049 7.477,17.049 7.000 C 17.049 6.717,16.917 6.511,16.396 5.979 L 15.923 5.496 16.462 4.958 L 17.000 4.421 18.290 5.710 L 19.579 6.999 17.354 9.230 C 15.811 10.776,15.101 11.514,15.040 11.637 C 14.863 11.990,14.952 12.354,15.299 12.701 C 15.645 13.047,16.010 13.137,16.363 12.961 C 16.613 12.836,21.836 7.613,21.961 7.363 C 22.076 7.132,22.076 6.868,21.961 6.637 C 21.840 6.396,17.612 2.164,17.372 2.044 C 17.151 1.934,16.836 1.935,16.620 2.046 M11.300 12.720 L 12.580 14.000 9.790 16.790 L 7.000 19.580 5.710 18.290 L 4.421 17.000 4.958 16.462 L 5.496 15.923 5.979 16.396 C 6.511 16.917,6.717 17.049,7.000 17.049 C 7.477 17.049,8.049 16.477,8.049 16.000 C 8.049 15.717,7.916 15.509,7.396 14.980 L 6.923 14.500 7.710 13.711 L 8.496 12.923 8.979 13.396 C 9.244 13.656,9.541 13.910,9.638 13.959 C 9.988 14.137,10.354 14.049,10.701 13.701 C 11.049 13.354,11.137 12.988,10.959 12.638 C 10.910 12.541,10.655 12.244,10.394 11.978 C 9.981 11.556,9.895 11.440,9.997 11.440 C 10.010 11.440,10.596 12.016,11.300 12.720 " stroke="none" fill="black" fill-rule="evenodd"></path></svg>