<svg xmlns="http://www.w3.org/2000/svg" width="24" height="24" viewBox="0 0 24 24" fill="none" stroke="currentColor" stroke-width="2" stroke-linecap="round" stroke-linejoin="round" class="icon icon-tabler icons-tabler-outline icon-tabler-settings-x"><path d="M11.579 2.039 C 10.582 2.179,9.722 2.908,9.421 3.866 C 9.287 4.293,9.167 4.464,8.928 4.569 C 8.691 4.674,8.518 4.649,8.107 4.446 C 7.251 4.024,6.480 4.018,5.650 4.425 C 4.677 4.904,4.074 5.926,4.132 7.000 C 4.154 7.418,4.236 7.700,4.486 8.218 C 4.655 8.567,4.671 8.688,4.578 8.911 C 4.476 9.155,4.330 9.275,4.021 9.367 C 2.978 9.677,2.274 10.426,2.063 11.448 C 1.882 12.332,2.134 13.228,2.752 13.889 C 3.072 14.232,3.481 14.474,3.986 14.620 C 4.282 14.705,4.468 14.846,4.563 15.055 C 4.676 15.302,4.659 15.413,4.437 15.890 C 4.326 16.130,4.209 16.446,4.178 16.593 C 4.070 17.101,4.122 17.639,4.329 18.160 C 4.585 18.806,5.194 19.415,5.840 19.671 C 6.621 19.981,7.299 19.942,8.161 19.539 C 8.585 19.341,8.701 19.326,8.945 19.437 C 9.154 19.532,9.295 19.718,9.380 20.014 C 9.674 21.032,10.420 21.725,11.448 21.937 C 12.872 22.230,14.262 21.380,14.621 19.998 C 14.695 19.711,14.697 19.397,14.625 19.229 C 14.497 18.930,14.116 18.718,13.653 18.688 C 13.414 18.673,13.336 18.685,13.183 18.758 C 12.960 18.867,12.862 18.998,12.717 19.389 C 12.550 19.837,12.358 20.000,12.000 20.000 C 11.640 20.000,11.422 19.810,11.278 19.371 C 10.963 18.411,10.355 17.783,9.460 17.494 C 9.203 17.411,9.054 17.390,8.700 17.385 C 8.165 17.379,7.955 17.428,7.386 17.690 C 7.014 17.862,6.928 17.887,6.773 17.869 C 6.549 17.844,6.332 17.679,6.210 17.439 C 6.085 17.194,6.097 17.060,6.276 16.696 C 6.560 16.120,6.667 15.657,6.626 15.183 C 6.523 13.983,5.780 13.076,4.610 12.720 C 4.284 12.621,4.116 12.470,4.037 12.205 C 3.911 11.786,4.130 11.440,4.620 11.280 C 5.586 10.966,6.213 10.362,6.507 9.460 C 6.594 9.194,6.612 9.062,6.614 8.680 C 6.618 8.133,6.555 7.868,6.297 7.345 C 6.200 7.148,6.120 6.931,6.121 6.863 C 6.123 6.574,6.367 6.257,6.662 6.159 C 6.849 6.098,7.035 6.135,7.359 6.300 C 8.068 6.662,8.751 6.728,9.462 6.503 C 10.351 6.222,10.962 5.593,11.277 4.632 C 11.385 4.304,11.484 4.172,11.697 4.076 C 11.904 3.982,12.096 3.982,12.300 4.075 C 12.531 4.181,12.590 4.265,12.760 4.735 C 12.941 5.234,13.129 5.534,13.462 5.860 C 13.766 6.156,14.120 6.369,14.540 6.508 C 14.809 6.597,14.933 6.614,15.320 6.615 C 15.859 6.617,16.148 6.551,16.603 6.320 C 16.968 6.135,17.146 6.096,17.338 6.159 C 17.633 6.257,17.877 6.574,17.879 6.863 C 17.880 6.931,17.800 7.148,17.703 7.345 C 17.445 7.868,17.382 8.133,17.386 8.680 C 17.388 9.062,17.406 9.194,17.493 9.460 C 17.785 10.357,18.411 10.964,19.368 11.277 C 19.696 11.385,19.828 11.484,19.924 11.697 C 20.018 11.904,20.018 12.097,19.924 12.300 C 19.818 12.530,19.695 12.626,19.379 12.723 C 18.413 13.021,18.121 13.499,18.463 14.223 C 18.641 14.598,18.958 14.840,19.272 14.840 C 19.359 14.840,20.189 14.574,20.458 14.459 C 20.997 14.230,21.530 13.670,21.788 13.060 C 21.902 12.793,22.000 12.300,22.000 12.000 C 22.000 11.866,21.971 11.618,21.937 11.448 C 21.727 10.428,21.071 9.723,20.017 9.383 C 19.665 9.269,19.525 9.158,19.422 8.911 C 19.326 8.682,19.344 8.580,19.563 8.110 C 19.674 7.870,19.791 7.554,19.822 7.407 C 20.073 6.223,19.453 4.968,18.350 4.425 C 17.504 4.010,16.701 4.027,15.813 4.481 C 15.463 4.660,15.305 4.677,15.055 4.563 C 14.846 4.468,14.705 4.282,14.620 3.986 C 14.394 3.203,13.934 2.650,13.224 2.305 C 13.024 2.208,12.779 2.109,12.680 2.086 C 12.413 2.025,11.853 2.001,11.579 2.039 M11.358 8.061 C 10.230 8.237,9.143 8.974,8.569 9.953 C 7.320 12.083,8.233 14.785,10.512 15.704 C 12.558 16.528,14.877 15.538,15.704 13.488 C 16.090 12.530,16.090 11.469,15.705 10.516 C 15.172 9.197,14.001 8.269,12.605 8.058 C 12.144 7.989,11.816 7.990,11.358 8.061 M12.523 10.073 C 13.262 10.266,13.850 10.924,13.967 11.690 C 14.067 12.343,13.873 12.933,13.403 13.404 C 13.002 13.807,12.547 14.000,12.000 14.000 C 11.485 14.000,11.038 13.822,10.653 13.465 C 9.323 12.229,10.189 10.005,12.000 10.005 C 12.143 10.005,12.378 10.036,12.523 10.073 M16.626 16.045 C 16.257 16.239,15.951 16.673,15.951 17.000 C 15.951 17.323,16.068 17.478,17.103 18.520 L 18.077 19.500 17.103 20.480 C 16.068 21.522,15.951 21.677,15.951 22.000 C 15.951 22.477,16.523 23.049,17.000 23.049 C 17.323 23.049,17.478 22.932,18.520 21.897 L 19.500 20.923 20.480 21.897 C 21.522 22.932,21.677 23.049,22.000 23.049 C 22.477 23.049,23.049 22.477,23.049 22.000 C 23.049 21.677,22.932 21.522,21.897 20.480 L 20.923 19.500 21.897 18.520 C 22.518 17.895,22.903 17.476,22.960 17.363 C 23.137 17.011,23.048 16.646,22.701 16.299 C 22.360 15.958,21.979 15.868,21.628 16.045 C 21.527 16.096,21.072 16.515,20.480 17.103 L 19.500 18.077 18.520 17.103 C 17.927 16.514,17.474 16.096,17.372 16.045 C 17.152 15.934,16.835 15.934,16.626 16.045 " stroke="none" fill="black" fill-rule="evenodd"></path></svg>