<svg xmlns="http://www.w3.org/2000/svg" width="24" height="24" viewBox="0 0 24 24" fill="none" stroke="currentColor" stroke-width="2" stroke-linecap="round" stroke-linejoin="round" class="icon icon-tabler icons-tabler-outline icon-tabler-boom"><path d="M8.160 3.061 C 7.919 3.175,7.705 3.359,7.616 3.529 C 7.585 3.588,7.507 3.871,7.442 4.157 C 7.248 5.016,7.004 5.607,6.582 6.237 C 6.132 6.910,5.569 7.448,4.860 7.881 C 4.339 8.199,3.492 8.536,3.057 8.598 C 2.767 8.639,2.336 8.836,2.190 8.993 C 2.055 9.140,1.952 9.424,1.954 9.645 C 1.956 9.894,2.150 10.286,2.397 10.540 C 2.801 10.955,3.282 11.816,3.416 12.363 C 3.496 12.689,3.497 13.181,3.420 13.510 C 3.304 14.002,2.972 14.548,2.420 15.159 C 2.055 15.561,1.951 15.748,1.951 16.001 C 1.951 16.202,2.024 16.375,2.209 16.611 C 2.411 16.867,2.592 16.942,3.340 17.079 C 6.009 17.566,6.563 18.030,7.018 20.165 C 7.103 20.564,7.254 20.801,7.498 20.919 C 7.658 20.996,7.732 21.007,7.998 20.992 C 8.437 20.966,8.596 20.865,8.967 20.370 C 10.364 18.508,12.316 17.893,14.085 18.758 C 14.774 19.095,15.430 19.647,16.051 20.414 C 16.438 20.891,16.649 21.040,16.938 21.040 C 17.163 21.039,17.462 20.918,17.668 20.744 C 17.876 20.568,18.000 20.258,18.000 19.909 C 18.000 19.162,18.142 18.349,18.342 17.948 C 18.650 17.331,19.274 17.081,20.689 17.008 C 21.491 16.966,21.659 16.905,21.860 16.581 C 21.969 16.404,21.980 16.355,21.980 16.043 C 21.980 15.626,21.949 15.561,21.536 15.110 C 21.151 14.689,20.841 14.225,20.673 13.819 C 20.548 13.516,20.541 13.475,20.541 13.000 C 20.541 12.525,20.548 12.484,20.673 12.181 C 20.843 11.771,21.150 11.313,21.561 10.861 C 21.741 10.664,21.924 10.431,21.968 10.344 C 22.138 10.010,22.039 9.632,21.694 9.296 C 21.487 9.095,21.227 9.000,20.882 9.000 C 19.834 9.000,18.820 8.617,18.146 7.966 C 17.419 7.264,17.095 6.471,17.006 5.176 C 16.976 4.734,16.949 4.575,16.883 4.446 C 16.618 3.927,15.662 3.849,15.271 4.315 C 15.216 4.380,15.094 4.574,14.999 4.746 C 14.544 5.577,14.048 6.147,13.593 6.360 C 13.208 6.540,12.921 6.580,12.582 6.502 C 11.985 6.363,11.438 6.001,10.754 5.290 C 10.288 4.807,10.050 4.505,9.525 3.732 C 9.112 3.123,8.954 2.992,8.610 2.971 C 8.425 2.959,8.337 2.977,8.160 3.061 M9.684 7.067 C 10.498 7.820,11.296 8.268,12.179 8.469 C 12.357 8.509,12.643 8.532,12.960 8.531 C 13.383 8.531,13.514 8.514,13.812 8.425 C 14.363 8.259,14.849 7.996,15.261 7.639 L 15.445 7.480 15.680 7.943 C 16.070 8.713,16.617 9.359,17.311 9.872 C 17.656 10.127,18.462 10.543,18.840 10.661 C 18.961 10.699,19.074 10.743,19.091 10.758 C 19.108 10.774,19.051 10.929,18.965 11.103 C 18.659 11.717,18.515 12.317,18.513 12.980 C 18.512 13.651,18.651 14.256,18.950 14.871 C 19.028 15.031,19.084 15.167,19.076 15.174 C 19.067 15.180,18.943 15.217,18.800 15.255 C 17.972 15.478,17.217 16.002,16.768 16.667 C 16.603 16.912,16.321 17.503,16.319 17.606 C 16.317 17.779,16.248 17.763,15.885 17.505 C 13.647 15.922,10.976 15.997,8.775 17.705 L 8.449 17.957 8.258 17.629 C 7.805 16.849,7.279 16.353,6.459 15.932 C 6.058 15.726,5.440 15.494,5.050 15.402 C 4.935 15.374,4.840 15.337,4.840 15.319 C 4.840 15.300,4.920 15.127,5.017 14.933 C 5.202 14.563,5.361 14.105,5.444 13.700 C 5.509 13.383,5.508 12.616,5.443 12.240 C 5.364 11.781,5.139 11.148,4.880 10.653 L 4.647 10.207 4.774 10.156 C 5.090 10.030,5.804 9.657,6.116 9.453 C 7.223 8.732,8.144 7.703,8.736 6.528 L 8.881 6.240 9.135 6.517 C 9.274 6.669,9.521 6.917,9.684 7.067 " stroke="none" fill="black" fill-rule="evenodd"></path></svg>