<svg xmlns="http://www.w3.org/2000/svg" width="24" height="24" viewBox="0 0 24 24" fill="none" stroke="currentColor" stroke-width="2" stroke-linecap="round" stroke-linejoin="round" class="icon icon-tabler icons-tabler-outline icon-tabler-building-broadcast-tower"><path d="M11.540 2.026 C 9.702 2.107,7.788 2.758,6.280 3.816 C 4.685 4.935,3.452 6.471,2.756 8.208 C 1.777 10.650,1.753 13.199,2.686 15.628 C 2.953 16.322,3.268 16.573,3.758 16.480 C 4.355 16.367,4.718 16.019,4.718 15.560 C 4.718 15.458,4.664 15.232,4.595 15.040 C 4.033 13.498,3.884 12.221,4.102 10.800 C 4.635 7.315,7.366 4.607,10.865 4.096 C 11.384 4.020,12.511 4.010,13.000 4.077 C 15.481 4.416,17.607 5.808,18.868 7.920 C 19.862 9.585,20.209 11.536,19.856 13.480 C 19.777 13.911,19.648 14.361,19.442 14.923 C 19.201 15.581,19.228 15.881,19.552 16.166 C 19.728 16.320,19.965 16.428,20.242 16.480 C 20.732 16.573,21.047 16.322,21.314 15.628 C 22.244 13.206,22.220 10.642,21.244 8.208 C 20.665 6.763,19.675 5.403,18.470 4.393 C 16.523 2.763,14.045 1.916,11.540 2.026 M11.320 6.042 C 10.054 6.200,9.039 6.652,8.038 7.505 C 7.051 8.346,6.420 9.443,6.111 10.853 C 6.037 11.194,6.022 11.383,6.022 12.020 C 6.022 12.868,6.065 13.149,6.307 13.880 C 6.633 14.864,6.993 15.121,7.691 14.868 C 8.176 14.691,8.413 14.412,8.409 14.020 C 8.408 13.898,8.351 13.660,8.263 13.409 C 7.895 12.355,7.923 11.359,8.350 10.380 C 8.836 9.266,9.858 8.413,11.067 8.112 C 11.568 7.988,12.431 7.987,12.931 8.112 C 14.144 8.413,15.195 9.292,15.660 10.394 C 16.079 11.387,16.102 12.364,15.732 13.434 C 15.566 13.915,15.553 14.150,15.676 14.392 C 15.837 14.708,16.405 14.989,16.804 14.951 C 17.168 14.916,17.391 14.689,17.604 14.137 C 18.073 12.918,18.127 11.649,17.764 10.360 C 17.477 9.342,16.996 8.515,16.267 7.787 C 15.402 6.923,14.216 6.296,13.080 6.102 C 12.613 6.022,11.723 5.992,11.320 6.042 M11.477 10.073 C 10.978 10.204,10.449 10.628,10.218 11.084 C 9.889 11.733,9.940 12.534,10.349 13.128 L 10.493 13.338 9.250 17.079 C 8.566 19.136,7.994 20.894,7.980 20.985 C 7.905 21.472,8.272 21.876,8.903 22.000 C 9.205 22.059,9.422 22.008,9.623 21.832 C 9.814 21.664,9.893 21.498,10.160 20.700 L 10.387 20.020 12.000 20.020 L 13.613 20.020 13.840 20.700 C 14.107 21.498,14.186 21.664,14.377 21.832 C 14.571 22.002,14.799 22.059,15.067 22.005 C 15.728 21.873,16.096 21.478,16.020 20.985 C 16.006 20.894,15.434 19.135,14.749 17.074 L 13.504 13.329 13.606 13.194 C 13.954 12.737,14.078 12.118,13.940 11.529 C 13.858 11.182,13.720 10.927,13.465 10.653 C 13.074 10.232,12.560 10.005,12.000 10.005 C 11.857 10.005,11.622 10.036,11.477 10.073 M12.470 16.591 C 12.718 17.333,12.920 17.954,12.920 17.971 C 12.920 17.987,12.506 18.000,12.000 18.000 C 11.494 18.000,11.080 17.987,11.080 17.971 C 11.080 17.911,11.980 15.240,12.000 15.240 C 12.011 15.240,12.223 15.848,12.470 16.591 " stroke="none" fill="black" fill-rule="evenodd"></path></svg>