<svg xmlns="http://www.w3.org/2000/svg" width="24" height="24" viewBox="0 0 24 24" fill="none" stroke="currentColor" stroke-width="2" stroke-linecap="round" stroke-linejoin="round" class="icon icon-tabler icons-tabler-outline icon-tabler-filter-off"><path d="M2.626 2.045 C 2.257 2.239,1.951 2.673,1.951 3.000 C 1.951 3.278,2.081 3.486,2.565 3.982 L 3.000 4.427 3.000 5.475 C 3.000 6.874,3.078 7.250,3.496 7.871 C 3.596 8.019,4.650 9.208,5.838 10.513 L 7.999 12.886 8.009 17.093 L 8.020 21.300 8.127 21.504 C 8.328 21.883,8.657 22.075,9.015 22.020 C 9.208 21.990,15.125 20.031,15.420 19.899 C 15.530 19.850,15.678 19.749,15.748 19.675 C 15.973 19.438,16.000 19.293,16.000 18.306 L 16.000 17.422 18.230 19.647 C 19.776 21.189,20.514 21.899,20.637 21.960 C 20.990 22.137,21.354 22.048,21.701 21.701 C 22.048 21.354,22.137 20.990,21.960 20.637 C 21.898 20.513,20.962 19.544,18.853 17.420 C 17.193 15.748,15.795 14.341,15.747 14.293 C 15.043 13.592,4.832 3.377,4.760 3.302 C 4.372 2.898,3.502 2.113,3.367 2.044 C 3.153 1.934,2.835 1.935,2.626 2.045 M7.614 3.057 C 7.377 3.131,7.212 3.261,7.109 3.453 C 7.035 3.592,7.020 3.684,7.020 4.000 C 7.020 4.331,7.033 4.403,7.120 4.558 C 7.230 4.755,7.414 4.898,7.635 4.959 C 7.729 4.985,9.756 5.000,13.393 5.000 L 19.006 5.000 18.993 5.730 C 18.982 6.347,18.969 6.482,18.906 6.600 C 18.865 6.677,17.881 7.694,16.718 8.860 C 15.117 10.466,14.585 11.024,14.523 11.160 C 14.358 11.526,14.451 11.862,14.817 12.218 C 15.199 12.592,15.566 12.653,15.949 12.407 C 16.054 12.339,17.103 11.316,18.280 10.132 C 20.492 7.908,20.567 7.822,20.787 7.278 C 20.987 6.783,21.006 6.580,20.992 5.042 C 20.980 3.660,20.977 3.615,20.891 3.453 C 20.785 3.256,20.622 3.131,20.371 3.055 C 20.107 2.976,7.868 2.978,7.614 3.057 M14.000 16.847 L 14.000 18.273 12.050 18.923 C 10.978 19.280,10.078 19.580,10.050 19.590 C 10.010 19.605,10.000 18.861,10.000 15.954 L 9.999 12.300 9.905 12.100 C 9.837 11.957,9.158 11.182,7.503 9.363 C 5.479 7.139,5.040 6.627,5.040 6.492 C 5.040 6.474,7.056 8.476,9.520 10.940 L 14.000 15.420 14.000 16.847 " stroke="none" fill="black" fill-rule="evenodd"></path></svg>