<svg xmlns="http://www.w3.org/2000/svg" width="24" height="24" viewBox="0 0 24 24" fill="none" stroke="currentColor" stroke-width="2" stroke-linecap="round" stroke-linejoin="round" class="icon icon-tabler icons-tabler-outline icon-tabler-sailboat-2"><path d="M6.299 2.000 C 5.711 2.018,5.641 2.028,5.459 2.122 C 5.144 2.284,5.000 2.560,5.000 3.000 C 5.000 3.427,5.144 3.714,5.440 3.878 C 5.579 3.955,5.697 3.980,5.998 3.998 L 6.380 4.020 6.568 4.580 C 7.218 6.513,7.112 8.306,6.232 10.273 C 5.943 10.920,5.906 11.142,6.040 11.420 C 6.096 11.535,6.201 11.658,6.315 11.742 C 6.672 12.004,6.636 12.000,8.927 12.000 L 11.000 12.000 11.000 13.000 L 11.000 14.000 6.922 14.000 C 2.848 14.000,2.843 14.000,2.612 14.086 C 2.172 14.249,1.919 14.622,1.980 15.015 C 2.016 15.239,3.027 18.293,3.143 18.524 C 3.335 18.907,3.675 19.084,4.067 19.005 C 4.569 18.905,4.911 18.652,5.002 18.314 C 5.064 18.081,5.018 17.871,4.679 16.858 C 4.526 16.398,4.400 16.017,4.400 16.011 C 4.400 16.005,7.820 16.000,12.000 16.000 C 16.180 16.000,19.600 16.005,19.600 16.011 C 19.600 16.017,19.474 16.398,19.321 16.858 C 18.983 17.869,18.936 18.081,18.998 18.313 C 19.089 18.649,19.427 18.906,19.903 19.000 C 20.328 19.084,20.659 18.918,20.857 18.524 C 20.908 18.423,21.188 17.621,21.480 16.742 C 21.999 15.179,22.010 15.138,21.988 14.875 C 21.961 14.561,21.852 14.323,21.678 14.199 C 21.394 13.996,21.477 14.000,17.094 14.000 L 13.000 14.000 13.000 13.000 L 13.000 12.000 15.085 12.000 C 16.552 12.000,17.217 11.986,17.326 11.954 C 17.590 11.874,17.785 11.669,17.978 11.266 C 18.396 10.393,18.678 9.538,18.868 8.563 C 18.966 8.062,18.974 7.940,18.974 7.000 C 18.974 6.060,18.966 5.938,18.868 5.437 C 18.810 5.139,18.700 4.680,18.623 4.417 C 18.501 3.996,18.492 3.935,18.547 3.900 C 18.891 3.678,18.978 3.497,18.978 3.000 C 18.978 2.683,18.963 2.592,18.888 2.450 C 18.784 2.253,18.576 2.103,18.320 2.041 C 18.133 1.995,7.602 1.959,6.299 2.000 M16.568 4.580 C 17.125 6.236,17.125 7.764,16.568 9.420 L 16.380 9.980 12.450 9.990 C 10.288 9.996,8.520 9.993,8.520 9.984 C 8.520 9.975,8.581 9.746,8.655 9.474 C 8.926 8.485,8.977 8.090,8.977 7.000 C 8.977 5.910,8.926 5.515,8.655 4.526 C 8.581 4.254,8.520 4.025,8.520 4.016 C 8.520 4.007,10.288 4.004,12.450 4.010 L 16.380 4.020 16.568 4.580 M7.360 18.060 C 6.823 18.152,6.250 18.413,5.797 18.773 C 5.675 18.870,5.440 19.109,5.276 19.304 C 5.111 19.499,4.905 19.707,4.818 19.767 C 4.493 19.988,3.972 20.059,3.561 19.937 C 3.261 19.848,3.089 19.728,2.820 19.421 C 2.408 18.952,2.091 18.853,1.654 19.057 C 1.019 19.352,0.796 19.888,1.090 20.409 C 1.628 21.361,2.798 22.000,4.004 22.000 C 5.073 22.000,6.008 21.552,6.721 20.698 C 7.144 20.192,7.496 20.000,8.000 20.000 C 8.504 20.000,8.856 20.192,9.278 20.697 C 9.995 21.556,10.924 22.000,12.004 22.000 C 13.073 22.000,14.008 21.552,14.721 20.698 C 15.144 20.192,15.496 20.000,16.000 20.000 C 16.504 20.000,16.856 20.192,17.278 20.697 C 17.745 21.257,18.285 21.630,18.920 21.833 C 20.265 22.262,21.770 21.842,22.644 20.792 C 23.147 20.187,23.171 19.712,22.718 19.303 C 22.488 19.095,22.185 18.961,21.944 18.960 C 21.682 18.960,21.477 19.084,21.180 19.421 C 20.911 19.728,20.739 19.848,20.439 19.937 C 20.028 20.059,19.507 19.988,19.182 19.767 C 19.095 19.707,18.889 19.499,18.724 19.304 C 18.560 19.109,18.325 18.870,18.203 18.773 C 16.912 17.748,15.088 17.748,13.797 18.773 C 13.675 18.870,13.440 19.109,13.276 19.304 C 13.111 19.499,12.905 19.707,12.818 19.767 C 12.373 20.070,11.627 20.070,11.182 19.767 C 11.095 19.707,10.889 19.499,10.724 19.304 C 10.560 19.109,10.325 18.870,10.203 18.773 C 9.405 18.140,8.385 17.884,7.360 18.060 " stroke="none" fill="black" fill-rule="evenodd"></path></svg>