<svg xmlns="http://www.w3.org/2000/svg" width="24" height="24" viewBox="0 0 24 24" fill="none" stroke="currentColor" stroke-width="2" stroke-linecap="round" stroke-linejoin="round" class="icon icon-tabler icons-tabler-outline icon-tabler-shopping-bag-discount"><path d="M11.358 2.061 C 10.230 2.237,9.143 2.974,8.569 3.953 C 8.151 4.665,8.000 5.293,8.000 6.316 L 8.000 7.000 7.050 7.001 C 6.015 7.003,5.660 7.044,5.246 7.211 C 4.826 7.381,4.554 7.565,4.197 7.924 C 3.914 8.208,3.821 8.334,3.669 8.644 C 3.416 9.159,3.347 9.444,3.347 9.980 C 3.347 10.350,3.450 11.084,3.995 14.600 C 4.351 16.899,4.679 18.915,4.724 19.079 C 5.090 20.427,6.184 21.498,7.594 21.890 C 7.886 21.971,8.005 21.975,10.260 21.990 C 12.857 22.008,12.944 22.002,13.189 21.787 C 13.402 21.600,13.486 21.376,13.486 21.000 C 13.486 20.491,13.304 20.196,12.909 20.064 C 12.743 20.008,12.428 20.000,10.534 20.000 C 8.678 20.000,8.315 19.991,8.109 19.937 C 7.409 19.756,6.873 19.255,6.680 18.602 C 6.583 18.276,5.354 10.309,5.350 9.980 C 5.348 9.809,5.371 9.693,5.432 9.575 C 5.549 9.347,5.842 9.099,6.058 9.045 C 6.162 9.018,6.601 9.000,7.118 9.000 L 8.000 9.000 8.000 10.110 C 8.000 10.730,8.018 11.284,8.041 11.365 C 8.148 11.750,8.437 11.962,8.896 11.991 C 9.381 12.022,9.699 11.882,9.880 11.558 C 9.979 11.381,9.980 11.374,9.993 10.190 L 10.005 9.000 12.003 9.000 L 14.000 9.000 14.000 10.110 C 14.000 10.730,14.018 11.284,14.041 11.365 C 14.148 11.750,14.437 11.962,14.896 11.991 C 15.381 12.022,15.699 11.882,15.880 11.558 C 15.979 11.381,15.980 11.374,15.993 10.190 L 16.005 9.000 16.885 9.000 C 17.400 9.000,17.838 9.019,17.942 9.045 C 18.158 9.099,18.451 9.347,18.569 9.575 C 18.692 9.813,18.676 10.059,18.441 11.560 C 18.329 12.275,18.236 12.962,18.235 13.087 C 18.231 13.681,18.668 14.030,19.373 13.994 C 19.610 13.982,19.699 13.958,19.830 13.872 C 20.117 13.682,20.164 13.522,20.423 11.880 C 20.749 9.813,20.739 9.475,20.336 8.654 C 20.045 8.061,19.558 7.586,18.947 7.298 C 18.421 7.050,18.290 7.029,17.090 7.010 L 16.000 6.992 16.000 6.312 C 16.000 5.522,15.924 5.057,15.705 4.516 C 15.172 3.197,14.001 2.269,12.605 2.058 C 12.144 1.989,11.816 1.990,11.358 2.061 M12.523 4.073 C 12.866 4.163,13.198 4.366,13.454 4.642 C 13.883 5.105,13.998 5.479,13.999 6.410 L 14.000 7.000 12.000 7.000 L 10.000 7.000 10.000 6.398 C 10.000 5.682,10.064 5.350,10.265 5.014 C 10.745 4.212,11.635 3.841,12.523 4.073 M20.620 15.046 C 20.384 15.167,15.154 20.407,15.039 20.637 C 14.863 20.990,14.953 21.355,15.299 21.701 C 15.645 22.047,16.010 22.137,16.363 21.961 C 16.613 21.836,21.836 16.613,21.961 16.363 C 22.137 16.010,22.047 15.645,21.701 15.299 C 21.361 14.959,20.968 14.867,20.620 15.046 M15.614 15.057 C 15.221 15.180,15.039 15.435,15.009 15.906 C 14.962 16.621,15.306 17.000,16.000 17.000 C 16.698 17.000,17.043 16.616,16.989 15.900 C 16.963 15.563,16.859 15.327,16.678 15.199 C 16.414 15.010,15.957 14.950,15.614 15.057 M20.614 20.057 C 20.221 20.180,20.039 20.435,20.009 20.906 C 19.962 21.621,20.306 22.000,21.000 22.000 C 21.698 22.000,22.043 21.616,21.989 20.900 C 21.963 20.563,21.859 20.327,21.678 20.199 C 21.414 20.010,20.957 19.950,20.614 20.057 " stroke="none" fill="black" fill-rule="evenodd"></path></svg>