<svg xmlns="http://www.w3.org/2000/svg" width="24" height="24" viewBox="0 0 24 24" fill="none" stroke="currentColor" stroke-width="2" stroke-linecap="round" stroke-linejoin="round" class="icon icon-tabler icons-tabler-outline icon-tabler-trademark"><path d="M18.535 8.090 C 18.380 8.193,18.103 8.537,17.180 9.768 C 16.542 10.620,16.011 11.316,16.000 11.316 C 15.989 11.316,15.458 10.620,14.820 9.769 C 13.486 7.990,13.518 8.020,12.960 8.020 C 12.471 8.020,12.152 8.233,12.041 8.635 C 11.986 8.832,11.986 15.168,12.041 15.365 C 12.148 15.750,12.437 15.962,12.896 15.991 C 13.381 16.022,13.699 15.882,13.880 15.558 L 13.980 15.380 14.000 13.704 L 14.020 12.028 14.680 12.904 C 15.438 13.911,15.582 14.040,15.941 14.040 C 16.102 14.040,16.214 14.008,16.407 13.910 C 16.649 13.785,16.688 13.742,17.320 12.903 L 17.980 12.028 18.000 13.704 L 18.020 15.380 18.120 15.558 C 18.287 15.856,18.572 16.000,19.000 16.000 C 19.428 16.000,19.713 15.856,19.880 15.558 L 19.980 15.380 19.991 12.090 L 20.002 8.800 19.899 8.582 C 19.782 8.334,19.628 8.189,19.340 8.054 C 19.040 7.914,18.780 7.926,18.535 8.090 M4.180 8.039 C 3.715 8.159,3.514 8.447,3.512 8.997 C 3.510 9.348,3.582 9.556,3.771 9.751 C 3.977 9.964,4.175 10.000,5.147 10.000 L 6.000 10.000 6.000 12.610 C 6.000 14.235,6.016 15.275,6.041 15.365 C 6.148 15.750,6.437 15.962,6.896 15.991 C 7.381 16.022,7.699 15.882,7.880 15.558 L 7.980 15.380 7.991 12.690 L 8.003 10.000 8.854 10.000 C 9.825 10.000,10.023 9.964,10.229 9.751 C 10.418 9.556,10.486 9.355,10.486 8.997 C 10.486 8.491,10.303 8.196,9.909 8.064 C 9.740 8.008,9.391 8.000,7.009 8.004 C 5.519 8.006,4.246 8.022,4.180 8.039 " stroke="none" fill="black" fill-rule="evenodd"></path></svg>