<svg xmlns="http://www.w3.org/2000/svg" width="24" height="24" viewBox="0 0 24 24" fill="none" stroke="currentColor" stroke-width="2" stroke-linecap="round" stroke-linejoin="round" class="icon icon-tabler icons-tabler-outline icon-tabler-zodiac-leo"><path d="M10.400 2.044 C 8.761 2.229,7.261 3.290,6.526 4.785 C 5.968 5.919,5.864 7.106,6.184 8.674 C 6.316 9.316,6.483 9.861,6.943 11.148 C 7.150 11.727,7.320 12.208,7.320 12.216 C 7.320 12.224,7.245 12.205,7.154 12.173 C 6.938 12.099,6.280 12.000,6.000 12.000 C 4.635 12.000,3.253 12.787,2.569 13.953 C 1.320 16.083,2.233 18.785,4.512 19.704 C 5.471 20.090,6.529 20.090,7.488 19.704 C 9.042 19.077,10.000 17.623,10.000 15.891 C 10.000 14.663,9.716 13.020,9.302 11.846 C 9.244 11.682,9.245 11.674,9.310 11.701 C 9.479 11.773,9.929 11.886,10.260 11.941 C 11.072 12.074,12.012 11.970,12.797 11.662 C 12.938 11.606,13.059 11.566,13.066 11.573 C 13.073 11.579,12.970 11.926,12.838 12.342 C 12.231 14.251,12.023 15.393,12.021 16.820 C 12.020 17.684,12.064 18.003,12.268 18.600 C 12.846 20.291,14.253 21.525,16.040 21.907 C 16.511 22.008,17.489 22.008,17.960 21.907 C 19.488 21.580,20.748 20.630,21.433 19.288 C 21.816 18.536,21.979 17.892,21.979 17.120 C 21.980 16.679,21.969 16.600,21.891 16.453 C 21.689 16.076,21.138 15.902,20.629 16.055 C 20.179 16.191,20.045 16.407,19.995 17.084 C 19.922 18.063,19.601 18.713,18.892 19.321 C 18.609 19.563,18.239 19.762,17.840 19.886 C 17.406 20.021,16.594 20.021,16.160 19.886 C 15.178 19.580,14.404 18.808,14.130 17.861 C 14.008 17.441,13.979 16.950,14.036 16.260 C 14.136 15.037,14.298 14.337,14.960 12.280 C 15.585 10.337,15.750 9.684,15.906 8.520 C 16.007 7.765,16.008 6.509,15.907 6.040 C 15.576 4.491,14.600 3.219,13.213 2.525 C 12.352 2.095,11.397 1.932,10.400 2.044 M11.861 4.129 C 12.804 4.405,13.584 5.183,13.875 6.139 C 13.958 6.412,13.973 6.542,13.973 7.000 C 13.973 7.458,13.958 7.588,13.875 7.861 C 13.582 8.822,12.819 9.581,11.840 9.886 C 11.406 10.021,10.594 10.021,10.160 9.886 C 9.181 9.581,8.418 8.822,8.125 7.861 C 8.042 7.588,8.027 7.458,8.027 7.000 C 8.027 6.542,8.042 6.412,8.125 6.139 C 8.456 5.054,9.371 4.245,10.499 4.040 C 10.832 3.980,11.500 4.023,11.861 4.129 M6.523 14.073 C 7.262 14.266,7.850 14.924,7.967 15.690 C 8.067 16.343,7.873 16.933,7.403 17.404 C 7.002 17.807,6.547 18.000,6.000 18.000 C 5.485 18.000,5.038 17.822,4.653 17.465 C 3.323 16.229,4.189 14.005,6.000 14.005 C 6.143 14.005,6.378 14.036,6.523 14.073 " stroke="none" fill="black" fill-rule="evenodd"></path></svg>