<svg xmlns="http://www.w3.org/2000/svg" width="24" height="24" viewBox="0 0 24 24" fill="none" stroke="currentColor" stroke-width="2" stroke-linecap="round" stroke-linejoin="round" class="icon icon-tabler icons-tabler-outline icon-tabler-access-point-off"><path d="M2.626 2.045 C 2.420 2.154,2.146 2.433,2.038 2.644 C 1.924 2.868,1.924 3.133,2.040 3.363 C 2.100 3.481,2.598 4.011,3.544 4.961 L 4.959 6.382 4.736 6.681 C 3.845 7.879,3.210 9.520,3.040 11.060 C 2.988 11.532,2.989 12.464,3.042 12.952 C 3.231 14.692,3.967 16.413,5.115 17.797 C 5.834 18.665,6.200 18.855,6.697 18.619 C 6.894 18.525,7.205 18.214,7.299 18.017 C 7.495 17.603,7.412 17.366,6.845 16.728 C 5.871 15.631,5.304 14.444,5.074 13.020 C 5.008 12.607,5.008 11.393,5.074 10.980 C 5.195 10.236,5.420 9.516,5.721 8.918 C 5.911 8.539,6.302 7.896,6.366 7.856 C 6.409 7.830,7.800 9.186,7.800 9.254 C 7.800 9.274,7.739 9.391,7.664 9.515 C 7.465 9.843,7.254 10.377,7.130 10.869 C 7.032 11.256,7.021 11.371,7.021 12.000 C 7.021 12.629,7.032 12.744,7.130 13.131 C 7.313 13.857,7.571 14.409,8.003 15.001 C 8.252 15.341,8.666 15.736,8.858 15.816 C 9.196 15.958,9.534 15.862,9.866 15.530 C 10.116 15.280,10.215 15.078,10.215 14.820 C 10.215 14.569,10.157 14.459,9.800 14.038 C 9.460 13.637,9.266 13.304,9.128 12.887 C 9.039 12.619,9.026 12.508,9.024 12.020 C 9.021 11.456,9.057 11.246,9.225 10.842 L 9.283 10.703 14.871 16.288 C 18.889 20.303,20.510 21.897,20.637 21.961 C 20.990 22.137,21.355 22.047,21.701 21.701 C 22.047 21.355,22.136 20.990,21.961 20.637 C 21.839 20.392,3.616 2.165,3.372 2.044 C 3.152 1.934,2.834 1.935,2.626 2.045 M17.420 5.327 C 17.230 5.398,16.979 5.585,16.843 5.756 C 16.486 6.207,16.524 6.595,16.972 7.072 C 17.957 8.119,18.530 9.168,18.814 10.441 C 19.145 11.921,19.026 13.301,18.445 14.727 C 18.256 15.193,18.220 15.378,18.279 15.596 C 18.376 15.957,18.842 16.277,19.322 16.311 C 19.821 16.347,20.035 16.143,20.357 15.322 C 20.849 14.073,21.032 13.032,20.987 11.743 C 20.915 9.663,20.252 7.885,18.958 6.300 C 18.620 5.886,18.189 5.463,18.028 5.387 C 17.841 5.298,17.569 5.271,17.420 5.327 M14.480 8.209 C 14.257 8.319,13.963 8.608,13.859 8.820 C 13.761 9.021,13.760 9.332,13.858 9.520 C 13.898 9.597,14.056 9.804,14.209 9.980 C 14.728 10.577,14.933 11.084,14.995 11.922 C 15.023 12.299,15.049 12.428,15.125 12.565 C 15.301 12.883,15.626 13.024,16.105 12.988 C 16.519 12.957,16.737 12.834,16.894 12.540 C 16.969 12.401,16.980 12.315,16.979 11.880 C 16.978 10.864,16.617 9.822,15.971 8.975 C 15.381 8.202,14.947 7.979,14.480 8.209 " stroke="none" fill="black" fill-rule="evenodd"></path></svg>