<svg xmlns="http://www.w3.org/2000/svg" width="24" height="24" viewBox="0 0 24 24" fill="none" stroke="currentColor" stroke-width="2" stroke-linecap="round" stroke-linejoin="round" class="icon icon-tabler icons-tabler-outline icon-tabler-device-mobile-exclamation"><path d="M7.499 2.043 C 6.379 2.234,5.461 3.048,5.114 4.160 L 5.020 4.460 5.020 12.000 L 5.020 19.540 5.114 19.840 C 5.418 20.816,6.149 21.554,7.140 21.886 L 7.420 21.980 11.311 21.991 C 13.892 21.999,15.253 21.989,15.355 21.961 C 15.583 21.900,15.768 21.758,15.880 21.558 C 15.967 21.402,15.980 21.332,15.979 21.000 C 15.977 20.469,15.852 20.247,15.455 20.071 C 15.366 20.031,14.493 20.016,11.520 20.000 L 7.700 19.980 7.516 19.872 C 7.415 19.813,7.284 19.700,7.225 19.623 C 6.986 19.309,7.000 19.795,7.000 12.022 C 7.000 4.006,6.975 4.631,7.303 4.303 C 7.584 4.022,7.703 4.000,8.942 4.000 L 9.989 4.000 10.013 4.203 C 10.058 4.583,10.288 4.863,10.635 4.959 C 10.826 5.012,13.174 5.012,13.365 4.959 C 13.712 4.863,13.935 4.593,13.983 4.210 L 14.009 4.000 15.057 4.000 C 16.297 4.000,16.416 4.022,16.697 4.303 C 17.015 4.621,17.000 4.411,17.000 8.557 C 17.000 10.888,17.015 12.273,17.041 12.365 C 17.148 12.750,17.437 12.962,17.896 12.991 C 18.381 13.022,18.699 12.882,18.880 12.558 L 18.980 12.380 18.980 8.420 L 18.980 4.460 18.886 4.160 C 18.581 3.182,17.832 2.428,16.861 2.121 L 16.540 2.020 12.120 2.014 C 9.689 2.011,7.609 2.024,7.499 2.043 M18.614 15.057 C 18.377 15.131,18.212 15.261,18.109 15.453 C 18.021 15.618,18.020 15.647,18.008 17.410 C 18.001 18.557,18.012 19.255,18.038 19.354 C 18.144 19.747,18.433 19.961,18.896 19.991 C 19.381 20.022,19.699 19.882,19.880 19.558 L 19.980 19.380 19.980 17.500 C 19.980 15.633,19.979 15.619,19.891 15.453 C 19.842 15.362,19.746 15.247,19.678 15.199 C 19.414 15.010,18.957 14.950,18.614 15.057 M11.614 16.057 C 11.221 16.180,11.039 16.435,11.009 16.906 C 10.962 17.621,11.306 18.000,12.000 18.000 C 12.698 18.000,13.043 17.616,12.989 16.900 C 12.963 16.563,12.859 16.327,12.678 16.199 C 12.414 16.010,11.957 15.950,11.614 16.057 M18.614 21.057 C 18.221 21.180,18.039 21.435,18.009 21.906 C 17.962 22.621,18.306 23.000,19.000 23.000 C 19.698 23.000,20.043 22.616,19.989 21.900 C 19.963 21.563,19.859 21.327,19.678 21.199 C 19.414 21.010,18.957 20.950,18.614 21.057 " stroke="none" fill="black" fill-rule="evenodd"></path></svg>