<svg xmlns="http://www.w3.org/2000/svg" width="24" height="24" viewBox="0 0 24 24" fill="none" stroke="currentColor" stroke-width="2" stroke-linecap="round" stroke-linejoin="round" class="icon icon-tabler icons-tabler-outline icon-tabler-photo-circle-minus"><path d="M11.080 2.045 C 9.206 2.210,7.361 2.947,5.800 4.154 C 5.005 4.769,4.015 5.884,3.470 6.780 C 2.106 9.020,1.666 11.739,2.260 14.260 C 2.875 16.877,4.496 19.122,6.784 20.529 C 8.397 21.521,10.352 22.046,12.232 21.993 C 12.776 21.978,12.844 21.967,13.045 21.869 C 13.388 21.701,13.520 21.464,13.520 21.015 C 13.520 20.549,13.350 20.228,13.020 20.076 C 12.885 20.013,12.757 20.002,12.198 20.001 C 11.486 20.000,10.834 19.934,10.260 19.804 C 8.055 19.307,6.176 17.917,5.051 15.952 L 4.839 15.581 6.850 13.569 C 9.042 11.376,9.074 11.349,9.498 11.349 C 9.915 11.349,9.921 11.354,12.280 13.702 C 13.780 15.194,14.515 15.899,14.637 15.960 C 14.989 16.137,15.354 16.048,15.701 15.701 C 16.043 15.359,16.137 14.987,15.965 14.651 C 15.919 14.560,15.779 14.376,15.654 14.241 L 15.427 13.995 15.644 13.776 C 16.053 13.361,16.492 13.244,16.906 13.441 C 17.049 13.509,17.409 13.839,18.280 14.702 C 19.469 15.879,19.663 16.036,19.928 16.043 C 20.133 16.048,20.483 16.052,20.667 16.051 C 21.038 16.050,21.289 15.766,21.502 15.109 C 21.871 13.966,21.977 13.281,21.979 12.020 C 21.980 10.962,21.933 10.536,21.717 9.650 C 21.374 8.245,20.692 6.855,19.798 5.740 C 17.715 3.142,14.427 1.749,11.080 2.045 M13.360 4.122 C 14.926 4.391,16.367 5.119,17.509 6.216 C 18.274 6.951,18.738 7.588,19.202 8.540 C 19.909 9.993,20.156 11.679,19.896 13.293 L 19.872 13.447 19.186 12.771 C 18.809 12.399,18.380 12.010,18.234 11.906 C 17.689 11.522,17.158 11.352,16.500 11.352 C 15.663 11.352,15.009 11.633,14.283 12.305 L 13.995 12.572 12.747 11.332 C 11.477 10.070,11.172 9.811,10.703 9.598 C 9.983 9.272,9.051 9.264,8.341 9.578 C 7.815 9.811,7.579 10.015,5.835 11.750 L 4.131 13.446 4.085 13.142 C 3.856 11.598,4.120 9.917,4.816 8.500 C 6.047 5.996,8.430 4.332,11.207 4.040 C 11.739 3.984,12.792 4.024,13.360 4.122 M14.614 7.055 C 14.220 7.184,14.039 7.437,14.009 7.900 C 13.978 8.381,14.119 8.699,14.442 8.880 C 14.597 8.967,14.669 8.980,15.000 8.980 C 15.312 8.980,15.408 8.964,15.540 8.894 C 15.866 8.718,16.000 8.459,16.000 8.000 C 16.000 7.357,15.713 7.048,15.083 7.016 C 14.893 7.006,14.718 7.021,14.614 7.055 M15.614 18.057 C 15.377 18.131,15.212 18.261,15.109 18.453 C 15.035 18.592,15.020 18.684,15.020 19.000 C 15.020 19.331,15.033 19.403,15.120 19.558 C 15.230 19.755,15.414 19.898,15.635 19.959 C 15.832 20.014,22.168 20.014,22.365 19.959 C 22.586 19.898,22.770 19.755,22.880 19.558 C 22.967 19.402,22.980 19.332,22.979 19.000 C 22.978 18.567,22.898 18.355,22.678 18.199 C 22.398 17.999,22.411 18.000,18.984 18.003 C 16.472 18.005,15.744 18.017,15.614 18.057 " stroke="none" fill="black" fill-rule="evenodd"></path></svg>