<svg xmlns="http://www.w3.org/2000/svg" width="24" height="24" viewBox="0 0 24 24" fill="none" stroke="currentColor" stroke-width="2" stroke-linecap="round" stroke-linejoin="round" class="icon icon-tabler icons-tabler-outline icon-tabler-cat"><path d="M19.592 2.067 C 19.458 2.141,19.025 2.581,18.092 3.591 C 17.370 4.372,16.735 5.064,16.680 5.127 L 16.580 5.243 16.114 5.006 C 15.140 4.511,14.246 4.233,13.120 4.075 C 12.670 4.012,11.357 4.011,10.880 4.073 C 9.928 4.198,8.936 4.493,8.100 4.901 L 7.580 5.155 6.060 3.641 C 4.565 2.152,4.536 2.126,4.303 2.059 C 3.720 1.890,3.174 2.144,3.039 2.645 C 3.011 2.748,3.002 4.631,3.012 8.389 C 3.025 13.257,3.035 14.024,3.089 14.320 C 3.124 14.507,3.165 14.737,3.181 14.830 L 3.210 15.000 2.511 15.000 C 1.567 15.000,1.306 15.084,1.109 15.453 C 1.035 15.592,1.020 15.684,1.020 16.000 C 1.020 16.331,1.033 16.403,1.120 16.558 C 1.230 16.755,1.414 16.898,1.635 16.959 C 1.716 16.982,2.261 17.000,2.862 17.000 L 3.943 17.000 4.048 17.210 L 4.152 17.420 3.141 18.440 C 2.067 19.524,1.951 19.675,1.951 20.000 C 1.951 20.477,2.523 21.049,3.000 21.049 C 3.319 21.049,3.481 20.929,4.444 19.973 L 5.348 19.076 5.704 19.423 C 6.424 20.124,7.161 20.643,8.060 21.084 C 11.476 22.757,15.550 22.096,18.296 19.423 L 18.652 19.076 19.556 19.973 C 20.519 20.929,20.681 21.049,21.000 21.049 C 21.477 21.049,22.049 20.477,22.049 20.000 C 22.049 19.675,21.933 19.524,20.859 18.440 L 19.848 17.420 19.952 17.210 L 20.057 17.000 21.138 17.000 C 21.739 17.000,22.284 16.982,22.365 16.959 C 22.586 16.898,22.770 16.755,22.880 16.558 C 22.967 16.402,22.980 16.332,22.979 16.000 C 22.978 15.687,22.962 15.591,22.890 15.453 C 22.695 15.085,22.433 15.000,21.489 15.000 L 20.790 15.000 20.819 14.830 C 20.835 14.737,20.876 14.507,20.911 14.320 C 20.965 14.024,20.975 13.260,20.988 8.424 C 21.005 2.153,21.027 2.625,20.693 2.291 C 20.352 1.950,19.949 1.868,19.592 2.067 M6.943 7.312 C 7.010 7.358,7.150 7.416,7.253 7.442 C 7.502 7.505,7.734 7.429,8.193 7.133 C 9.518 6.278,11.017 5.902,12.572 6.034 C 13.158 6.084,13.778 6.205,14.240 6.359 C 14.637 6.492,15.510 6.929,15.864 7.172 C 16.428 7.558,16.634 7.633,16.926 7.559 C 17.185 7.494,17.391 7.311,18.227 6.402 L 18.980 5.584 18.992 5.922 C 18.999 6.108,18.996 7.952,18.987 10.020 C 18.969 13.989,18.970 13.981,18.779 14.730 L 18.710 15.000 17.761 15.000 C 16.753 15.000,16.564 15.026,16.322 15.199 C 16.108 15.351,16.021 15.571,16.021 15.960 C 16.021 16.216,16.039 16.335,16.095 16.440 C 16.137 16.517,16.404 16.817,16.690 17.107 L 17.210 17.634 17.126 17.752 C 17.027 17.891,16.521 18.348,16.180 18.607 C 15.301 19.274,14.192 19.736,13.020 19.926 C 12.844 19.954,12.385 19.977,12.000 19.977 C 11.051 19.977,10.338 19.852,9.531 19.544 C 8.663 19.213,7.995 18.798,7.246 18.125 C 6.705 17.639,6.700 17.725,7.309 17.108 C 7.595 16.818,7.864 16.517,7.905 16.440 C 7.962 16.334,7.979 16.219,7.978 15.960 C 7.976 15.570,7.889 15.349,7.678 15.199 C 7.436 15.026,7.247 15.000,6.239 15.000 L 5.290 15.000 5.221 14.730 C 5.028 13.972,5.030 14.025,5.013 9.600 L 4.997 5.420 5.908 6.324 C 6.410 6.822,6.875 7.266,6.943 7.312 M8.614 10.057 C 8.221 10.180,8.039 10.435,8.009 10.906 C 7.962 11.621,8.306 12.000,9.000 12.000 C 9.698 12.000,10.043 11.616,9.989 10.900 C 9.963 10.563,9.859 10.327,9.678 10.199 C 9.414 10.010,8.957 9.950,8.614 10.057 M14.614 10.057 C 14.221 10.180,14.039 10.435,14.009 10.906 C 13.962 11.621,14.306 12.000,15.000 12.000 C 15.698 12.000,16.043 11.616,15.989 10.900 C 15.963 10.563,15.859 10.327,15.678 10.199 C 15.414 10.010,14.957 9.950,14.614 10.057 M11.477 14.073 C 10.806 14.249,10.238 14.823,10.060 15.508 C 9.941 15.962,10.003 16.492,10.225 16.930 C 10.361 17.199,10.801 17.639,11.070 17.775 C 11.659 18.073,12.341 18.073,12.930 17.775 C 13.196 17.640,13.638 17.200,13.771 16.937 C 13.994 16.498,14.052 16.007,13.940 15.529 C 13.858 15.182,13.720 14.927,13.465 14.653 C 13.074 14.232,12.560 14.005,12.000 14.005 C 11.857 14.005,11.622 14.036,11.477 14.073 " stroke="none" fill="black" fill-rule="evenodd"></path></svg>