<svg xmlns="http://www.w3.org/2000/svg" width="24" height="24" viewBox="0 0 24 24" fill="none" stroke="currentColor" stroke-width="2" stroke-linecap="round" stroke-linejoin="round" class="icon icon-tabler icons-tabler-outline icon-tabler-letter-j-small"><path d="M9.614 7.057 C 9.377 7.131,9.212 7.261,9.109 7.453 C 9.035 7.592,9.020 7.684,9.020 8.000 C 9.020 8.331,9.033 8.403,9.120 8.558 C 9.230 8.755,9.414 8.898,9.635 8.959 C 9.721 8.983,10.435 9.000,11.390 9.000 L 13.000 9.000 13.000 11.554 C 13.000 14.325,13.000 14.328,12.779 14.618 C 12.718 14.698,12.585 14.813,12.484 14.872 C 12.328 14.963,12.254 14.980,12.000 14.980 C 11.745 14.980,11.672 14.964,11.514 14.871 C 11.172 14.670,11.042 14.408,10.979 13.800 C 10.949 13.500,10.821 13.289,10.583 13.141 C 10.399 13.028,10.360 13.020,10.000 13.020 C 9.639 13.020,9.601 13.028,9.417 13.142 C 9.291 13.219,9.184 13.328,9.120 13.442 C 9.029 13.604,9.020 13.662,9.021 14.080 C 9.023 14.444,9.042 14.603,9.115 14.840 C 9.417 15.822,10.174 16.579,11.160 16.886 C 11.594 17.021,12.406 17.021,12.840 16.886 C 13.826 16.579,14.578 15.827,14.886 14.840 L 14.980 14.540 14.980 11.080 L 14.980 7.620 14.891 7.453 C 14.785 7.256,14.622 7.131,14.371 7.055 C 14.112 6.977,9.864 6.979,9.614 7.057 " stroke="none" fill="black" fill-rule="evenodd"></path></svg>