<svg xmlns="http://www.w3.org/2000/svg" width="24" height="24" viewBox="0 0 24 24" fill="none" stroke="currentColor" stroke-width="2" stroke-linecap="round" stroke-linejoin="round" class="icon icon-tabler icons-tabler-outline icon-tabler-device-gamepad"><path d="M3.499 5.043 C 2.380 5.232,1.461 6.048,1.114 7.160 L 1.020 7.460 1.020 12.000 L 1.020 16.540 1.114 16.840 C 1.422 17.827,2.173 18.578,3.160 18.886 L 3.460 18.980 12.000 18.980 L 20.540 18.980 20.840 18.886 C 21.827 18.578,22.578 17.827,22.886 16.840 L 22.980 16.540 22.980 12.000 L 22.980 7.460 22.886 7.160 C 22.581 6.182,21.832 5.428,20.861 5.121 L 20.540 5.020 12.120 5.014 C 7.489 5.011,3.609 5.024,3.499 5.043 M20.310 7.061 C 20.589 7.144,20.856 7.411,20.939 7.690 C 20.992 7.867,21.000 8.441,21.000 12.001 C 21.000 16.458,21.007 16.319,20.779 16.618 C 20.718 16.698,20.585 16.813,20.484 16.872 L 20.300 16.980 12.000 16.980 L 3.700 16.980 3.516 16.872 C 3.303 16.747,3.141 16.550,3.058 16.316 C 2.969 16.062,2.971 7.992,3.061 7.690 C 3.140 7.421,3.412 7.143,3.673 7.063 C 3.833 7.014,5.030 7.005,11.983 7.003 C 19.144 7.000,20.130 7.007,20.310 7.061 M7.614 9.057 C 7.377 9.131,7.212 9.261,7.109 9.453 C 7.029 9.603,7.019 9.689,7.007 10.310 L 6.993 11.000 6.403 11.000 C 5.577 11.000,5.299 11.097,5.109 11.453 C 5.035 11.592,5.020 11.684,5.020 12.000 C 5.020 12.331,5.033 12.403,5.120 12.558 C 5.230 12.755,5.414 12.898,5.635 12.959 C 5.715 12.981,6.055 13.000,6.390 13.000 L 7.000 13.000 7.000 13.610 C 7.000 13.945,7.019 14.285,7.041 14.365 C 7.148 14.750,7.437 14.962,7.896 14.991 C 8.381 15.022,8.699 14.882,8.880 14.558 C 8.974 14.391,8.981 14.338,8.994 13.690 L 9.008 13.000 9.614 13.000 C 9.947 13.000,10.285 12.981,10.365 12.959 C 10.586 12.898,10.770 12.755,10.880 12.558 C 10.967 12.402,10.980 12.332,10.979 12.000 C 10.978 11.687,10.962 11.591,10.890 11.453 C 10.702 11.098,10.423 11.000,9.598 11.000 L 9.008 11.000 8.993 10.310 C 8.976 9.541,8.930 9.378,8.678 9.199 C 8.414 9.010,7.957 8.950,7.614 9.057 M14.614 10.057 C 14.221 10.180,14.039 10.435,14.009 10.906 C 13.962 11.621,14.306 12.000,15.000 12.000 C 15.698 12.000,16.043 11.616,15.989 10.900 C 15.963 10.563,15.859 10.327,15.678 10.199 C 15.414 10.010,14.957 9.950,14.614 10.057 M17.614 12.057 C 17.221 12.180,17.039 12.435,17.009 12.906 C 16.962 13.621,17.306 14.000,18.000 14.000 C 18.698 14.000,19.043 13.616,18.989 12.900 C 18.963 12.563,18.859 12.327,18.678 12.199 C 18.414 12.010,17.957 11.950,17.614 12.057 " stroke="none" fill="black" fill-rule="evenodd"></path></svg>