<svg xmlns="http://www.w3.org/2000/svg" width="24" height="24" viewBox="0 0 24 24" fill="none" stroke="currentColor" stroke-width="2" stroke-linecap="round" stroke-linejoin="round" class="icon icon-tabler icons-tabler-outline icon-tabler-logic-and"><path d="M6.614 4.057 C 6.377 4.131,6.212 4.261,6.109 4.453 C 6.022 4.617,6.020 4.650,6.008 6.310 L 5.997 8.000 3.905 8.000 C 1.674 8.000,1.592 8.006,1.322 8.199 C 1.100 8.357,1.020 8.568,1.020 9.000 C 1.020 9.331,1.033 9.403,1.120 9.558 C 1.230 9.755,1.414 9.898,1.635 9.959 C 1.724 9.984,2.600 10.000,3.890 10.000 L 6.000 10.000 6.000 12.000 L 6.000 14.000 3.906 14.000 C 1.674 14.000,1.592 14.006,1.322 14.199 C 1.100 14.357,1.020 14.568,1.020 15.000 C 1.020 15.331,1.033 15.403,1.120 15.558 C 1.230 15.755,1.414 15.898,1.635 15.959 C 1.724 15.984,2.600 16.000,3.890 16.000 L 6.000 16.000 6.000 17.610 C 6.000 18.565,6.017 19.279,6.041 19.365 C 6.102 19.586,6.245 19.770,6.442 19.880 L 6.620 19.980 8.060 19.993 C 9.960 20.010,10.796 19.945,11.920 19.695 C 12.630 19.537,13.283 19.305,13.940 18.978 C 14.734 18.583,15.185 18.256,15.843 17.601 C 16.457 16.990,16.852 16.440,17.197 15.717 C 17.535 15.009,17.833 13.993,17.911 13.280 L 17.940 13.020 20.160 13.000 C 22.334 12.980,22.383 12.978,22.540 12.894 C 22.875 12.715,22.978 12.504,22.978 12.000 C 22.978 11.469,22.853 11.247,22.455 11.071 C 22.368 11.033,21.799 11.015,20.140 11.000 L 17.940 10.980 17.911 10.720 C 17.833 10.007,17.535 8.991,17.197 8.283 C 16.645 7.126,15.679 6.052,14.576 5.368 C 13.347 4.605,11.861 4.171,10.040 4.042 C 9.184 3.981,6.823 3.992,6.614 4.057 M10.600 6.100 C 13.077 6.441,14.705 7.534,15.513 9.400 C 16.061 10.667,16.143 12.578,15.712 14.060 C 15.585 14.495,15.199 15.265,14.920 15.639 C 14.122 16.709,12.925 17.434,11.420 17.757 C 10.645 17.924,10.229 17.966,9.110 17.988 L 8.000 18.011 8.000 11.999 L 8.000 5.988 9.070 6.013 C 9.678 6.027,10.339 6.064,10.600 6.100 " stroke="none" fill="black" fill-rule="evenodd"></path></svg>