<svg xmlns="http://www.w3.org/2000/svg" width="24" height="24" viewBox="0 0 24 24" fill="none" stroke="currentColor" stroke-width="2" stroke-linecap="round" stroke-linejoin="round" class="icon icon-tabler icons-tabler-outline icon-tabler-bubble"><path d="M11.840 2.024 C 10.287 2.210,8.990 2.810,7.960 3.820 L 7.660 4.115 7.138 4.158 C 5.755 4.273,4.589 4.801,3.570 5.775 C 2.767 6.543,2.255 7.435,1.963 8.574 C 1.831 9.086,1.789 9.529,1.812 10.157 C 1.835 10.798,1.896 11.131,2.103 11.755 C 2.411 12.682,2.831 13.358,3.527 14.050 L 4.000 14.521 3.958 14.904 C 3.838 15.977,4.243 17.097,5.030 17.870 C 5.284 18.119,5.597 18.356,5.831 18.475 L 6.000 18.562 6.000 19.854 C 6.000 21.316,6.011 21.385,6.288 21.699 C 6.561 22.010,6.840 22.101,7.208 21.999 C 7.289 21.976,8.166 21.472,9.157 20.877 L 10.958 19.797 11.189 19.856 C 12.350 20.148,13.601 20.002,14.740 19.439 C 15.413 19.107,16.084 18.578,16.462 18.083 L 16.608 17.892 17.054 17.864 C 19.651 17.707,21.901 15.987,22.713 13.537 C 23.629 10.778,22.560 7.779,20.096 6.192 C 19.620 5.886,18.742 5.513,18.226 5.398 C 18.049 5.358,17.977 5.321,17.931 5.243 C 17.208 4.037,16.381 3.257,15.187 2.658 C 14.698 2.412,14.032 2.192,13.500 2.099 C 13.148 2.037,12.117 1.991,11.840 2.024 M13.462 4.139 C 14.221 4.331,14.961 4.763,15.509 5.334 C 15.885 5.725,16.022 5.918,16.285 6.431 C 16.502 6.852,16.670 7.060,16.863 7.142 C 16.930 7.171,17.151 7.224,17.352 7.259 C 18.768 7.504,19.845 8.262,20.514 9.483 C 21.511 11.304,21.046 13.600,19.416 14.911 C 18.575 15.587,17.520 15.923,16.433 15.862 C 15.694 15.820,15.536 15.898,15.140 16.497 C 14.651 17.237,14.022 17.687,13.176 17.902 C 12.550 18.061,11.942 18.028,11.259 17.797 C 11.069 17.732,10.938 17.715,10.746 17.727 C 10.494 17.743,10.466 17.757,9.247 18.488 L 8.006 19.233 7.993 18.386 C 7.981 17.620,7.972 17.525,7.896 17.380 C 7.780 17.157,7.538 16.985,7.193 16.882 C 6.809 16.766,6.609 16.647,6.386 16.399 C 6.031 16.003,5.868 15.487,5.953 15.025 C 5.979 14.884,6.046 14.665,6.103 14.537 C 6.290 14.115,6.273 13.780,6.052 13.518 C 5.997 13.452,5.766 13.272,5.540 13.118 C 5.061 12.792,4.653 12.380,4.391 11.958 C 3.287 10.185,3.784 7.902,5.520 6.762 C 6.214 6.307,6.787 6.148,7.720 6.153 C 8.298 6.156,8.354 6.150,8.541 6.060 C 8.678 5.994,8.813 5.877,8.970 5.688 C 9.757 4.744,10.740 4.180,11.844 4.042 C 12.317 3.983,13.006 4.024,13.462 4.139 " stroke="none" fill="black" fill-rule="evenodd"></path></svg>