<svg xmlns="http://www.w3.org/2000/svg" width="24" height="24" viewBox="0 0 24 24" fill="none" stroke="currentColor" stroke-width="2" stroke-linecap="round" stroke-linejoin="round" class="icon icon-tabler icons-tabler-outline icon-tabler-notebook"><path d="M5.477 3.073 C 4.805 3.249,4.238 3.823,4.060 4.508 C 4.008 4.707,4.000 5.691,4.000 12.000 C 4.000 19.922,3.987 19.460,4.225 19.930 C 4.361 20.199,4.801 20.639,5.070 20.775 C 5.472 20.979,5.642 21.000,6.868 21.000 L 8.000 21.000 8.000 21.610 C 8.000 21.946,8.019 22.285,8.041 22.365 C 8.148 22.750,8.437 22.962,8.896 22.991 C 9.381 23.022,9.699 22.882,9.880 22.558 C 9.974 22.391,9.981 22.338,9.994 21.691 L 10.008 21.003 13.794 20.991 L 17.580 20.980 17.860 20.886 C 18.851 20.554,19.582 19.816,19.886 18.840 L 19.980 18.540 19.980 12.000 L 19.980 5.460 19.886 5.160 C 19.581 4.182,18.832 3.428,17.861 3.121 L 17.540 3.020 11.640 3.012 C 6.160 3.004,5.721 3.009,5.477 3.073 M8.000 12.000 L 8.000 19.000 7.000 19.000 L 6.000 19.000 6.000 12.000 L 6.000 5.000 7.000 5.000 L 8.000 5.000 8.000 12.000 M17.310 5.061 C 17.589 5.144,17.856 5.411,17.939 5.690 C 17.992 5.869,18.000 6.651,18.000 12.001 C 18.000 17.059,17.991 18.139,17.945 18.290 C 17.872 18.533,17.707 18.740,17.484 18.872 L 17.300 18.980 13.650 18.991 L 10.000 19.002 10.000 12.001 L 10.000 5.000 13.553 5.000 C 16.617 5.000,17.134 5.008,17.310 5.061 M12.614 7.057 C 12.377 7.131,12.212 7.261,12.109 7.453 C 12.035 7.592,12.020 7.684,12.020 8.000 C 12.020 8.331,12.033 8.403,12.120 8.558 C 12.230 8.755,12.414 8.898,12.635 8.959 C 12.826 9.012,15.174 9.012,15.365 8.959 C 15.586 8.898,15.770 8.755,15.880 8.558 C 15.967 8.402,15.980 8.332,15.979 8.000 C 15.978 7.687,15.962 7.591,15.890 7.453 C 15.786 7.256,15.623 7.131,15.371 7.055 C 15.117 6.979,12.859 6.981,12.614 7.057 M12.614 11.057 C 12.377 11.131,12.212 11.261,12.109 11.453 C 12.035 11.592,12.020 11.684,12.020 12.000 C 12.020 12.331,12.033 12.403,12.120 12.558 C 12.230 12.755,12.414 12.898,12.635 12.959 C 12.826 13.012,15.174 13.012,15.365 12.959 C 15.586 12.898,15.770 12.755,15.880 12.558 C 15.967 12.402,15.980 12.332,15.979 12.000 C 15.978 11.687,15.962 11.591,15.890 11.453 C 15.786 11.256,15.623 11.131,15.371 11.055 C 15.117 10.979,12.859 10.981,12.614 11.057 " stroke="none" fill="black" fill-rule="evenodd"></path></svg>