<svg xmlns="http://www.w3.org/2000/svg" width="24" height="24" viewBox="0 0 24 24" fill="none" stroke="currentColor" stroke-width="2" stroke-linecap="round" stroke-linejoin="round" class="icon icon-tabler icons-tabler-outline icon-tabler-edit-off"><path d="M2.626 2.045 C 2.257 2.239,1.951 2.673,1.951 3.000 C 1.951 3.337,2.051 3.461,3.468 4.885 L 4.807 6.229 4.553 6.372 C 3.871 6.755,3.351 7.401,3.114 8.160 L 3.020 8.460 3.020 13.500 L 3.020 18.540 3.114 18.840 C 3.422 19.827,4.173 20.578,5.160 20.886 L 5.460 20.980 10.500 20.980 L 15.540 20.980 15.840 20.886 C 16.599 20.649,17.289 20.091,17.644 19.426 L 17.769 19.192 19.115 20.531 C 20.009 21.421,20.520 21.901,20.637 21.960 C 20.989 22.137,21.354 22.048,21.701 21.701 C 22.048 21.354,22.137 20.989,21.960 20.637 C 21.900 20.517,21.225 19.807,19.853 18.420 C 18.743 17.298,17.796 16.341,17.748 16.293 C 17.573 16.120,7.857 6.404,7.760 6.305 C 7.705 6.249,6.733 5.287,5.600 4.167 C 4.268 2.849,3.480 2.099,3.372 2.045 C 3.152 1.934,2.835 1.934,2.626 2.045 M18.393 2.038 C 17.902 2.128,17.482 2.303,17.106 2.572 C 16.999 2.649,15.721 3.897,14.265 5.346 C 11.476 8.120,11.439 8.162,11.441 8.510 C 11.442 8.714,11.560 8.958,11.765 9.181 C 12.097 9.541,12.501 9.650,12.852 9.476 C 12.961 9.422,13.545 8.869,14.510 7.906 L 16.000 6.420 16.790 7.210 L 17.580 8.000 16.094 9.490 C 15.131 10.455,14.578 11.039,14.524 11.148 C 14.419 11.358,14.418 11.607,14.519 11.831 C 14.612 12.035,14.931 12.357,15.146 12.463 C 15.346 12.562,15.654 12.559,15.851 12.456 C 16.045 12.355,21.189 7.222,21.419 6.900 C 21.782 6.392,21.951 5.903,21.988 5.258 C 22.058 4.021,21.384 2.873,20.254 2.306 C 19.781 2.069,18.910 1.943,18.393 2.038 M19.237 4.063 C 19.671 4.192,19.975 4.609,19.977 5.079 C 19.978 5.495,19.918 5.607,19.426 6.111 L 18.984 6.563 18.212 5.792 C 17.787 5.368,17.444 5.011,17.450 5.000 C 17.455 4.989,17.653 4.793,17.890 4.564 C 18.460 4.012,18.729 3.912,19.237 4.063 M7.830 9.250 L 9.080 10.501 8.657 10.920 C 8.425 11.151,8.186 11.421,8.127 11.520 L 8.020 11.700 8.008 13.450 C 8.001 14.570,8.012 15.255,8.038 15.354 C 8.100 15.583,8.242 15.768,8.442 15.880 L 8.620 15.980 10.460 15.980 L 12.300 15.980 12.480 15.873 C 12.579 15.814,12.849 15.575,13.080 15.343 L 13.499 14.920 14.750 16.170 L 16.000 17.420 16.000 17.763 C 16.000 18.336,15.851 18.656,15.484 18.872 L 15.300 18.980 10.500 18.980 L 5.700 18.980 5.516 18.872 C 5.415 18.813,5.284 18.700,5.225 18.623 C 4.989 18.314,5.000 18.562,5.000 13.522 C 5.000 8.298,4.981 8.625,5.304 8.303 C 5.531 8.076,5.742 8.006,6.220 8.003 L 6.580 8.000 7.830 9.250 M11.831 13.749 L 11.582 14.000 10.791 14.000 L 10.000 14.000 10.000 13.211 L 10.000 12.422 10.249 12.171 L 10.498 11.919 11.289 12.709 L 12.079 13.499 11.831 13.749 " stroke="none" fill="black" fill-rule="evenodd"></path></svg>