<svg xmlns="http://www.w3.org/2000/svg" width="24" height="24" viewBox="0 0 24 24" fill="none" stroke="currentColor" stroke-width="2" stroke-linecap="round" stroke-linejoin="round" class="icon icon-tabler icons-tabler-outline icon-tabler-soccer-field"><path d="M4.499 4.043 C 3.380 4.232,2.461 5.048,2.114 6.160 L 2.020 6.460 2.020 12.000 L 2.020 17.540 2.114 17.840 C 2.422 18.827,3.173 19.578,4.160 19.886 L 4.460 19.980 12.000 19.980 L 19.540 19.980 19.840 19.886 C 20.827 19.578,21.578 18.827,21.886 17.840 L 21.980 17.540 21.980 12.000 L 21.980 6.460 21.886 6.160 C 21.581 5.182,20.832 4.428,19.861 4.121 L 19.540 4.020 12.120 4.014 C 8.039 4.011,4.609 4.024,4.499 4.043 M10.991 7.063 L 10.980 8.126 10.720 8.217 C 9.350 8.697,8.370 9.816,8.083 11.227 C 7.700 13.105,8.756 15.031,10.540 15.711 C 10.716 15.778,10.892 15.843,10.930 15.855 C 10.994 15.876,11.000 15.963,11.000 16.940 L 11.000 18.002 7.850 17.991 L 4.700 17.980 4.516 17.872 C 4.415 17.813,4.284 17.700,4.225 17.623 C 4.038 17.377,4.000 17.202,4.000 16.575 L 4.000 16.000 5.110 16.000 C 5.730 16.000,6.284 15.982,6.365 15.959 C 6.586 15.898,6.770 15.755,6.880 15.558 L 6.980 15.380 6.980 12.000 L 6.980 8.620 6.891 8.453 C 6.842 8.362,6.746 8.247,6.678 8.199 C 6.430 8.022,6.256 8.000,5.094 8.000 L 4.000 8.000 4.000 7.447 C 4.000 6.750,4.052 6.554,4.304 6.303 C 4.613 5.994,4.464 6.006,7.931 6.003 L 11.001 6.000 10.991 7.063 M19.310 6.061 C 19.452 6.103,19.571 6.178,19.697 6.303 C 19.948 6.554,20.000 6.751,20.000 7.445 L 20.000 7.996 18.829 8.008 C 17.662 8.020,17.657 8.020,17.459 8.122 C 17.245 8.233,17.105 8.404,17.041 8.635 C 16.986 8.832,16.986 15.168,17.041 15.365 C 17.102 15.586,17.245 15.770,17.442 15.880 C 17.619 15.980,17.626 15.980,18.810 15.992 L 20.000 16.004 20.000 16.556 C 20.000 17.352,19.889 17.633,19.484 17.872 L 19.300 17.980 16.150 17.991 L 13.000 18.002 13.000 16.940 C 13.000 15.963,13.006 15.876,13.070 15.855 C 14.342 15.450,15.237 14.646,15.704 13.488 C 16.560 11.365,15.464 8.982,13.280 8.217 L 13.020 8.126 13.009 7.063 L 12.999 6.000 16.052 6.000 C 18.669 6.000,19.135 6.009,19.310 6.061 M5.000 12.000 L 5.000 14.000 4.500 14.000 L 4.000 14.000 4.000 12.000 L 4.000 10.000 4.500 10.000 L 5.000 10.000 5.000 12.000 M20.000 12.000 L 20.000 14.000 19.500 14.000 L 19.000 14.000 19.000 12.000 L 19.000 10.000 19.500 10.000 L 20.000 10.000 20.000 12.000 M11.000 12.000 C 11.000 12.946,10.985 13.720,10.966 13.720 C 10.886 13.720,10.409 13.231,10.281 13.018 C 9.760 12.151,9.995 11.000,10.816 10.395 C 10.902 10.332,10.978 10.280,10.986 10.280 C 10.994 10.280,11.000 11.054,11.000 12.000 M13.461 10.649 C 13.881 11.101,14.061 11.693,13.967 12.310 C 13.898 12.759,13.729 13.079,13.374 13.430 C 13.213 13.590,13.063 13.720,13.041 13.720 C 13.014 13.720,13.000 13.142,13.000 11.998 L 13.000 10.275 13.124 10.348 C 13.192 10.387,13.344 10.523,13.461 10.649 " stroke="none" fill="black" fill-rule="evenodd"></path></svg>