<svg xmlns="http://www.w3.org/2000/svg" width="24" height="24" viewBox="0 0 24 24" fill="none" stroke="currentColor" stroke-width="2" stroke-linecap="round" stroke-linejoin="round" class="icon icon-tabler icons-tabler-outline icon-tabler-binary-tree-2"><path d="M11.499 3.040 C 10.363 3.246,9.460 4.049,9.114 5.160 C 9.035 5.413,9.021 5.545,9.021 6.000 C 9.022 6.576,9.064 6.790,9.269 7.251 L 9.372 7.482 9.292 7.571 C 9.248 7.620,8.515 8.458,7.663 9.433 C 6.609 10.638,6.095 11.199,6.055 11.184 C 5.549 10.989,4.675 10.963,4.139 11.125 C 3.179 11.417,2.419 12.181,2.114 13.160 C 1.979 13.594,1.979 14.406,2.114 14.840 C 2.421 15.826,3.174 16.579,4.160 16.886 C 4.594 17.021,5.406 17.021,5.840 16.886 C 6.826 16.579,7.579 15.826,7.886 14.840 C 7.965 14.587,7.979 14.455,7.979 14.000 C 7.978 13.424,7.936 13.210,7.731 12.749 L 7.628 12.518 7.708 12.429 C 7.752 12.380,8.485 11.542,9.337 10.568 C 10.189 9.593,10.907 8.802,10.933 8.811 C 10.968 8.823,10.983 9.605,10.990 11.986 L 11.000 15.145 10.670 15.313 C 9.922 15.693,9.365 16.355,9.114 17.160 C 8.979 17.594,8.979 18.406,9.114 18.840 C 9.421 19.826,10.174 20.579,11.160 20.886 C 11.594 21.021,12.406 21.021,12.840 20.886 C 13.826 20.579,14.579 19.826,14.886 18.840 C 14.964 18.588,14.979 18.453,14.979 18.000 C 14.979 17.547,14.964 17.412,14.886 17.160 C 14.635 16.355,14.078 15.693,13.330 15.313 L 13.000 15.145 13.010 11.986 C 13.017 9.605,13.032 8.823,13.067 8.811 C 13.093 8.802,13.811 9.593,14.663 10.568 C 15.515 11.542,16.248 12.380,16.292 12.429 L 16.372 12.518 16.269 12.749 C 16.064 13.210,16.022 13.424,16.021 14.000 C 16.021 14.455,16.035 14.587,16.114 14.840 C 16.421 15.826,17.174 16.579,18.160 16.886 C 18.594 17.021,19.406 17.021,19.840 16.886 C 20.826 16.579,21.579 15.826,21.886 14.840 C 21.964 14.588,21.979 14.453,21.979 14.000 C 21.979 13.547,21.964 13.412,21.886 13.160 C 21.581 12.181,20.821 11.417,19.861 11.125 C 19.325 10.963,18.451 10.989,17.945 11.184 C 17.905 11.199,17.391 10.638,16.337 9.433 C 15.485 8.458,14.752 7.620,14.708 7.571 L 14.628 7.482 14.731 7.251 C 14.936 6.790,14.978 6.576,14.979 6.000 C 14.979 5.545,14.965 5.413,14.886 5.160 C 14.581 4.179,13.810 3.407,12.861 3.129 C 12.500 3.023,11.832 2.980,11.499 3.040 M12.310 5.061 C 12.688 5.173,13.000 5.598,13.000 6.000 C 13.000 6.220,12.880 6.510,12.722 6.673 C 12.481 6.922,12.347 6.978,12.000 6.978 C 11.656 6.978,11.539 6.930,11.291 6.681 C 10.905 6.295,10.910 5.696,11.304 5.303 C 11.583 5.024,11.916 4.944,12.310 5.061 M5.306 13.059 C 5.683 13.172,6.000 13.601,6.000 14.001 C 6.000 14.331,5.784 14.696,5.484 14.872 C 5.328 14.963,5.254 14.980,5.000 14.980 C 4.746 14.980,4.672 14.963,4.516 14.872 C 3.935 14.530,3.833 13.774,4.304 13.303 C 4.581 13.025,4.916 12.944,5.306 13.059 M19.310 13.061 C 19.688 13.173,20.000 13.598,20.000 14.001 C 20.000 14.331,19.784 14.696,19.484 14.872 C 19.328 14.963,19.254 14.980,19.000 14.980 C 18.746 14.980,18.672 14.963,18.516 14.872 C 17.932 14.529,17.832 13.772,18.308 13.302 C 18.593 13.022,18.916 12.944,19.310 13.061 M12.310 17.061 C 12.688 17.173,13.000 17.598,13.000 18.001 C 13.000 18.331,12.784 18.696,12.484 18.872 C 12.328 18.963,12.254 18.980,12.000 18.980 C 11.746 18.980,11.672 18.963,11.516 18.872 C 10.935 18.530,10.833 17.774,11.304 17.303 C 11.583 17.024,11.916 16.944,12.310 17.061 " stroke="none" fill="black" fill-rule="evenodd"></path></svg>