<svg xmlns="http://www.w3.org/2000/svg" width="24" height="24" viewBox="0 0 24 24" fill="none" stroke="currentColor" stroke-width="2" stroke-linecap="round" stroke-linejoin="round" class="icon icon-tabler icons-tabler-outline icon-tabler-brand-discord"><path d="M8.400 3.066 C 7.458 3.193,6.472 3.434,5.780 3.706 C 4.953 4.032,3.866 4.659,3.683 4.916 C 3.588 5.049,3.081 6.543,2.806 7.500 C 1.536 11.915,1.291 15.778,2.167 17.552 C 2.521 18.271,3.078 19.039,3.679 19.641 C 4.392 20.355,5.111 20.776,5.892 20.937 C 6.514 21.066,6.918 20.991,7.377 20.663 C 7.983 20.231,8.780 19.179,9.184 18.279 C 9.289 18.044,9.299 18.035,9.417 18.055 C 10.700 18.283,13.300 18.283,14.584 18.055 C 14.701 18.035,14.712 18.044,14.799 18.247 C 15.170 19.111,16.062 20.287,16.650 20.687 C 17.103 20.994,17.501 21.063,18.108 20.937 C 19.273 20.696,20.416 19.793,21.357 18.369 C 22.067 17.295,22.289 16.519,22.347 14.920 C 22.416 13.012,21.990 10.264,21.197 7.512 C 20.948 6.646,20.449 5.155,20.350 4.980 C 20.187 4.691,19.159 4.077,18.220 3.707 C 17.507 3.425,16.525 3.189,15.542 3.062 C 14.976 2.989,14.870 2.986,14.666 3.043 C 14.374 3.124,14.211 3.332,13.822 4.115 L 13.464 4.836 13.142 4.808 C 12.727 4.772,11.274 4.772,10.859 4.808 L 10.539 4.836 10.170 4.104 C 9.603 2.976,9.503 2.917,8.400 3.066 M8.780 5.783 C 9.185 6.572,9.303 6.738,9.537 6.844 C 9.740 6.936,9.947 6.938,10.503 6.853 C 11.123 6.758,12.885 6.757,13.497 6.852 C 14.051 6.938,14.260 6.937,14.460 6.845 C 14.706 6.734,14.842 6.545,15.221 5.793 C 15.413 5.412,15.575 5.095,15.580 5.088 C 15.600 5.066,16.580 5.276,16.940 5.381 C 17.395 5.512,18.016 5.775,18.389 5.993 L 18.678 6.162 18.917 6.911 C 19.333 8.218,19.570 9.089,19.818 10.228 C 20.453 13.139,20.517 15.808,19.977 16.787 C 19.430 17.775,18.674 18.589,18.030 18.881 C 17.753 19.007,17.686 18.986,17.447 18.703 C 17.206 18.417,17.029 18.162,16.846 17.837 L 16.720 17.614 17.102 17.507 C 17.692 17.340,17.914 17.163,17.997 16.794 C 18.039 16.608,17.975 16.181,17.878 15.992 C 17.708 15.664,17.445 15.483,17.136 15.481 C 17.045 15.480,16.685 15.554,16.336 15.644 C 15.482 15.863,14.676 16.025,13.901 16.130 C 13.354 16.205,13.075 16.218,12.000 16.218 C 10.915 16.218,10.648 16.206,10.080 16.128 C 9.282 16.019,8.648 15.893,7.723 15.657 C 7.340 15.560,6.953 15.480,6.863 15.481 C 6.555 15.483,6.292 15.664,6.122 15.992 C 6.025 16.181,5.961 16.608,6.003 16.794 C 6.086 17.163,6.308 17.340,6.898 17.507 L 7.280 17.614 7.154 17.837 C 6.971 18.162,6.794 18.417,6.553 18.703 C 6.313 18.987,6.247 19.007,5.964 18.878 C 5.338 18.594,4.555 17.751,4.023 16.787 C 3.601 16.022,3.540 14.173,3.864 11.960 C 4.087 10.432,4.488 8.773,5.083 6.911 L 5.322 6.162 5.611 5.993 C 5.990 5.771,6.609 5.511,7.072 5.378 C 7.398 5.285,8.269 5.088,8.380 5.083 C 8.402 5.082,8.582 5.397,8.780 5.783 M8.477 10.073 C 7.806 10.249,7.238 10.823,7.060 11.508 C 6.941 11.962,7.003 12.492,7.225 12.930 C 7.361 13.199,7.801 13.639,8.070 13.775 C 8.659 14.073,9.341 14.073,9.930 13.775 C 10.196 13.640,10.638 13.200,10.771 12.937 C 10.994 12.498,11.052 12.007,10.940 11.529 C 10.858 11.182,10.720 10.927,10.465 10.653 C 10.074 10.232,9.560 10.005,9.000 10.005 C 8.857 10.005,8.622 10.036,8.477 10.073 M14.477 10.073 C 13.806 10.249,13.238 10.823,13.060 11.508 C 12.941 11.962,13.003 12.492,13.225 12.930 C 13.361 13.199,13.801 13.639,14.070 13.775 C 14.659 14.073,15.341 14.073,15.930 13.775 C 16.196 13.640,16.638 13.200,16.771 12.937 C 16.994 12.498,17.052 12.007,16.940 11.529 C 16.858 11.182,16.720 10.927,16.465 10.653 C 16.074 10.232,15.560 10.005,15.000 10.005 C 14.857 10.005,14.622 10.036,14.477 10.073 " stroke="none" fill="black" fill-rule="evenodd"></path></svg>