<svg xmlns="http://www.w3.org/2000/svg" width="24" height="24" viewBox="0 0 24 24" fill="none" stroke="currentColor" stroke-width="2" stroke-linecap="round" stroke-linejoin="round" class="icon icon-tabler icons-tabler-outline icon-tabler-eye-share"><path d="M11.160 5.043 C 7.815 5.297,4.962 7.199,2.619 10.738 C 2.100 11.523,2.001 11.724,2.001 12.000 C 2.001 12.276,2.100 12.477,2.619 13.262 C 4.372 15.910,6.419 17.652,8.699 18.438 C 9.897 18.851,11.021 19.027,12.221 18.990 C 12.937 18.969,13.134 18.920,13.351 18.709 C 13.668 18.403,13.678 17.641,13.371 17.276 C 13.170 17.037,13.024 17.002,12.240 17.001 C 11.515 17.000,11.049 16.961,10.500 16.854 C 8.266 16.423,6.309 15.017,4.605 12.620 C 4.198 12.048,4.185 12.023,4.244 11.910 C 4.320 11.765,4.894 10.970,5.188 10.600 C 5.576 10.114,6.435 9.243,6.885 8.881 C 7.448 8.426,8.021 8.063,8.615 7.781 C 9.786 7.225,10.690 7.023,12.000 7.023 C 13.310 7.023,14.214 7.225,15.385 7.781 C 16.918 8.508,18.342 9.818,19.573 11.635 C 19.698 11.819,19.800 11.985,19.800 12.004 C 19.800 12.022,19.711 12.173,19.603 12.340 C 19.358 12.715,19.303 12.875,19.334 13.130 C 19.363 13.380,19.539 13.620,19.835 13.817 C 20.238 14.084,20.582 14.100,20.890 13.866 C 21.075 13.726,21.675 12.869,21.879 12.455 C 22.042 12.124,22.043 11.867,21.882 11.549 C 21.724 11.238,21.071 10.256,20.671 9.729 C 19.313 7.937,17.629 6.540,15.960 5.818 C 14.465 5.172,12.866 4.914,11.160 5.043 M11.499 9.040 C 10.363 9.246,9.460 10.049,9.114 11.160 C 8.979 11.594,8.979 12.406,9.114 12.840 C 9.421 13.826,10.174 14.579,11.160 14.886 C 11.594 15.021,12.406 15.021,12.840 14.886 C 13.826 14.579,14.579 13.826,14.886 12.840 C 15.021 12.406,15.021 11.594,14.886 11.160 C 14.581 10.179,13.810 9.407,12.861 9.129 C 12.500 9.023,11.832 8.980,11.499 9.040 M12.310 11.061 C 12.688 11.173,13.000 11.598,13.000 12.001 C 13.000 12.331,12.784 12.696,12.484 12.872 C 12.328 12.963,12.254 12.980,12.000 12.980 C 11.746 12.980,11.672 12.963,11.516 12.872 C 10.935 12.530,10.833 11.774,11.304 11.303 C 11.583 11.024,11.916 10.944,12.310 11.061 M18.460 15.999 C 15.916 16.022,15.992 16.015,15.752 16.267 C 15.584 16.443,15.513 16.658,15.512 16.997 C 15.510 17.348,15.582 17.556,15.771 17.751 C 15.988 17.976,16.151 18.000,17.436 18.000 L 18.578 18.000 16.853 19.730 C 15.679 20.908,15.100 21.517,15.040 21.637 C 14.863 21.989,14.952 22.354,15.299 22.701 C 15.646 23.048,16.011 23.137,16.363 22.960 C 16.483 22.900,17.092 22.321,18.270 21.147 L 20.000 19.422 20.000 20.564 C 20.000 21.849,20.024 22.012,20.249 22.229 C 20.442 22.416,20.647 22.487,20.997 22.488 C 21.336 22.490,21.552 22.419,21.735 22.248 C 21.985 22.013,21.977 22.088,22.007 19.460 C 22.022 18.140,22.036 17.001,22.037 16.929 C 22.041 16.740,21.834 16.310,21.690 16.207 C 21.467 16.048,21.205 15.959,20.987 15.969 C 20.873 15.974,19.736 15.987,18.460 15.999 " stroke="none" fill="black" fill-rule="evenodd"></path></svg>