<svg xmlns="http://www.w3.org/2000/svg" width="24" height="24" viewBox="0 0 24 24" fill="none" stroke="currentColor" stroke-width="2" stroke-linecap="round" stroke-linejoin="round" class="icon icon-tabler icons-tabler-outline icon-tabler-align-box-right-middle"><path d="M4.499 2.043 C 3.380 2.232,2.461 3.048,2.114 4.160 L 2.020 4.460 2.020 12.000 L 2.020 19.540 2.114 19.840 C 2.422 20.827,3.173 21.578,4.160 21.886 L 4.460 21.980 12.000 21.980 L 19.540 21.980 19.840 21.886 C 20.827 21.578,21.578 20.827,21.886 19.840 L 21.980 19.540 21.980 12.000 L 21.980 4.460 21.886 4.160 C 21.581 3.182,20.832 2.428,19.861 2.121 L 19.540 2.020 12.120 2.014 C 8.039 2.011,4.609 2.024,4.499 2.043 M19.310 4.061 C 19.589 4.144,19.856 4.411,19.939 4.690 C 19.993 4.870,20.000 5.755,20.000 12.001 C 20.000 17.907,19.991 19.138,19.945 19.290 C 19.872 19.533,19.707 19.740,19.484 19.872 L 19.300 19.980 12.000 19.980 L 4.700 19.980 4.516 19.872 C 4.415 19.813,4.284 19.700,4.225 19.623 C 3.986 19.309,4.000 19.795,4.000 12.022 C 4.000 5.758,4.007 4.870,4.061 4.690 C 4.140 4.421,4.412 4.143,4.673 4.063 C 4.964 3.974,19.009 3.971,19.310 4.061 M12.614 8.057 C 12.377 8.131,12.212 8.261,12.109 8.453 C 12.035 8.592,12.020 8.684,12.020 9.000 C 12.020 9.331,12.033 9.403,12.120 9.558 C 12.230 9.755,12.414 9.898,12.635 9.959 C 12.831 10.014,17.169 10.014,17.365 9.959 C 17.586 9.898,17.770 9.755,17.880 9.558 C 17.967 9.402,17.980 9.332,17.979 9.000 C 17.978 8.567,17.898 8.355,17.678 8.199 C 17.406 8.005,17.336 8.000,14.984 8.003 C 13.293 8.005,12.741 8.017,12.614 8.057 M10.614 11.057 C 10.377 11.131,10.212 11.261,10.109 11.453 C 10.035 11.592,10.020 11.684,10.020 12.000 C 10.020 12.331,10.033 12.403,10.120 12.558 C 10.230 12.755,10.414 12.898,10.635 12.959 C 10.832 13.014,17.168 13.014,17.365 12.959 C 17.586 12.898,17.770 12.755,17.880 12.558 C 17.967 12.402,17.980 12.332,17.979 12.000 C 17.978 11.567,17.898 11.355,17.678 11.199 C 17.398 10.999,17.411 11.000,13.984 11.003 C 11.472 11.005,10.744 11.017,10.614 11.057 M14.614 14.057 C 14.377 14.131,14.212 14.261,14.109 14.453 C 14.035 14.592,14.020 14.684,14.020 15.000 C 14.020 15.331,14.033 15.403,14.120 15.558 C 14.230 15.755,14.414 15.898,14.635 15.959 C 14.826 16.012,17.174 16.012,17.365 15.959 C 17.586 15.898,17.770 15.755,17.880 15.558 C 17.967 15.402,17.980 15.332,17.979 15.000 C 17.978 14.687,17.962 14.591,17.890 14.453 C 17.786 14.256,17.623 14.131,17.371 14.055 C 17.117 13.979,14.859 13.981,14.614 14.057 " stroke="none" fill="black" fill-rule="evenodd"></path></svg>