<svg xmlns="http://www.w3.org/2000/svg" width="24" height="24" viewBox="0 0 24 24" fill="none" stroke="currentColor" stroke-width="2" stroke-linecap="round" stroke-linejoin="round" class="icon icon-tabler icons-tabler-outline icon-tabler-refresh-off"><path d="M2.626 2.045 C 2.257 2.239,1.951 2.673,1.951 3.000 C 1.951 3.283,2.083 3.489,2.604 4.021 L 3.078 4.504 3.038 4.650 C 3.012 4.742,3.002 5.639,3.009 7.088 L 3.020 9.380 3.120 9.558 C 3.234 9.761,3.417 9.900,3.656 9.964 C 3.865 10.021,8.167 10.015,8.365 9.959 L 8.500 9.920 12.355 13.775 L 16.209 17.629 15.895 17.838 C 14.655 18.659,12.988 19.089,11.517 18.965 C 9.273 18.777,7.350 17.654,6.118 15.812 C 5.580 15.007,5.262 14.218,5.045 13.154 C 4.907 12.474,4.822 12.282,4.592 12.130 C 4.441 12.030,4.392 12.020,4.063 12.020 C 3.745 12.020,3.671 12.034,3.468 12.134 C 3.308 12.213,3.202 12.299,3.128 12.411 C 3.029 12.561,3.020 12.606,3.023 12.957 C 3.029 13.698,3.397 15.001,3.859 15.918 C 5.132 18.445,7.432 20.215,10.200 20.797 C 10.878 20.939,11.245 20.974,12.080 20.973 C 12.782 20.972,12.983 20.957,13.480 20.868 C 14.493 20.688,15.490 20.355,16.280 19.933 C 16.666 19.728,17.478 19.199,17.559 19.101 C 17.607 19.043,17.773 19.195,19.037 20.453 C 19.988 21.401,20.519 21.900,20.637 21.960 C 20.989 22.137,21.354 22.048,21.701 21.701 C 22.047 21.355,22.136 20.990,21.961 20.637 C 21.839 20.392,3.616 2.165,3.372 2.044 C 3.152 1.934,2.834 1.935,2.626 2.045 M11.420 3.046 C 10.479 3.093,9.572 3.291,8.664 3.648 C 8.057 3.887,7.803 4.088,7.718 4.400 C 7.625 4.743,7.844 5.310,8.171 5.574 C 8.296 5.675,8.368 5.699,8.574 5.712 C 8.797 5.727,8.876 5.708,9.286 5.548 C 10.104 5.228,10.727 5.087,11.500 5.046 C 12.880 4.972,13.984 5.196,15.160 5.787 C 16.321 6.372,17.162 7.115,17.886 8.196 C 18.444 9.029,18.805 9.944,18.983 10.978 C 19.067 11.469,19.188 11.724,19.404 11.867 C 19.559 11.970,19.606 11.980,19.937 11.980 C 20.402 11.980,20.692 11.860,20.867 11.596 C 20.970 11.441,20.980 11.395,20.979 11.063 C 20.978 10.270,20.563 8.878,20.030 7.880 C 18.990 5.932,17.338 4.457,15.291 3.645 C 14.092 3.170,12.834 2.975,11.420 3.046 M6.480 7.900 L 6.574 8.000 6.386 8.000 L 6.198 8.000 6.264 7.900 C 6.300 7.845,6.342 7.800,6.358 7.800 C 6.373 7.800,6.428 7.845,6.480 7.900 M18.614 14.057 C 18.223 14.180,18.039 14.436,18.009 14.900 C 17.969 15.530,18.252 15.923,18.792 15.987 L 18.990 16.010 19.013 16.208 C 19.074 16.715,19.428 17.000,20.000 17.000 C 20.428 17.000,20.713 16.856,20.880 16.558 C 20.978 16.383,20.980 16.364,20.980 15.500 C 20.980 14.667,20.975 14.611,20.891 14.453 C 20.785 14.256,20.622 14.131,20.371 14.055 C 20.126 13.982,18.851 13.983,18.614 14.057 " stroke="none" fill="black" fill-rule="evenodd"></path></svg>