<svg xmlns="http://www.w3.org/2000/svg" width="24" height="24" viewBox="0 0 24 24" fill="none" stroke="currentColor" stroke-width="2" stroke-linecap="round" stroke-linejoin="round" class="icon icon-tabler icons-tabler-outline icon-tabler-glass-full"><path d="M6.680 2.037 C 6.351 2.138,6.151 2.337,6.062 2.653 C 6.030 2.767,5.787 4.377,5.523 6.230 C 5.259 8.084,5.024 9.635,5.001 9.678 C 4.945 9.783,4.949 9.981,5.022 10.542 C 5.170 11.686,5.488 12.511,6.103 13.342 C 6.394 13.735,6.984 14.310,7.420 14.622 C 7.866 14.943,8.762 15.392,9.322 15.576 C 9.712 15.704,10.579 15.903,10.860 15.929 L 10.980 15.940 10.990 17.970 L 11.001 20.000 9.407 20.000 C 7.710 20.000,7.584 20.012,7.322 20.199 C 7.100 20.357,7.020 20.568,7.020 21.000 C 7.020 21.331,7.033 21.403,7.120 21.558 C 7.230 21.755,7.414 21.898,7.635 21.959 C 7.833 22.014,16.167 22.014,16.365 21.959 C 16.586 21.898,16.770 21.755,16.880 21.558 C 16.967 21.402,16.980 21.332,16.979 21.000 C 16.978 20.567,16.898 20.355,16.678 20.199 C 16.416 20.012,16.290 20.000,14.593 20.000 L 12.999 20.000 13.010 17.970 L 13.020 15.940 13.140 15.929 C 13.421 15.903,14.288 15.704,14.678 15.576 C 15.238 15.392,16.134 14.943,16.580 14.622 C 17.016 14.310,17.608 13.734,17.893 13.346 C 18.341 12.737,18.684 12.014,18.836 11.358 C 18.950 10.867,19.052 10.099,19.025 9.928 C 19.012 9.847,18.770 8.187,18.486 6.240 C 18.180 4.142,17.943 2.635,17.903 2.541 C 17.819 2.340,17.704 2.216,17.500 2.106 L 17.340 2.020 12.060 2.013 C 9.156 2.009,6.735 2.020,6.680 2.037 M16.139 4.090 C 16.189 4.313,16.912 9.500,16.897 9.525 C 16.865 9.576,16.277 9.804,15.967 9.885 C 15.565 9.989,14.869 10.025,14.437 9.963 C 13.764 9.866,13.207 9.629,12.524 9.147 C 11.781 8.624,10.897 8.247,10.060 8.097 C 9.331 7.967,8.217 8.005,7.529 8.184 C 7.408 8.216,7.300 8.233,7.290 8.223 C 7.273 8.206,7.811 4.315,7.861 4.090 L 7.882 4.000 12.000 4.000 L 16.118 4.000 16.139 4.090 M10.000 10.134 C 10.523 10.270,10.812 10.411,11.483 10.860 C 12.330 11.426,12.955 11.702,13.812 11.888 C 14.371 12.009,15.634 12.012,16.169 11.893 L 16.519 11.816 16.454 11.918 C 15.315 13.715,12.445 14.492,9.954 13.678 C 8.538 13.215,7.484 12.225,7.147 11.040 C 7.113 10.919,7.079 10.748,7.072 10.660 L 7.060 10.500 7.320 10.374 C 7.603 10.236,8.058 10.099,8.426 10.041 C 8.821 9.979,9.572 10.023,10.000 10.134 " stroke="none" fill="black" fill-rule="evenodd"></path></svg>