<svg xmlns="http://www.w3.org/2000/svg" width="24" height="24" viewBox="0 0 24 24" fill="none" stroke="currentColor" stroke-width="2" stroke-linecap="round" stroke-linejoin="round" class="icon icon-tabler icons-tabler-outline icon-tabler-sign-left"><path d="M13.614 2.057 C 13.377 2.131,13.212 2.261,13.109 2.453 C 13.024 2.613,13.020 2.668,13.008 3.809 L 12.996 4.998 10.368 5.009 L 7.740 5.020 7.545 5.116 C 7.374 5.200,7.216 5.380,6.217 6.629 C 4.881 8.302,4.849 8.361,5.051 8.846 C 5.084 8.923,5.614 9.617,6.231 10.388 C 7.216 11.620,7.374 11.800,7.545 11.884 L 7.740 11.980 10.370 11.991 L 13.000 12.002 13.000 16.001 L 13.000 20.000 12.406 20.000 C 11.577 20.000,11.300 20.097,11.109 20.453 C 11.035 20.592,11.020 20.684,11.020 21.000 C 11.020 21.331,11.033 21.403,11.120 21.558 C 11.230 21.755,11.414 21.898,11.635 21.959 C 11.831 22.014,16.169 22.014,16.365 21.959 C 16.586 21.898,16.770 21.755,16.880 21.558 C 16.967 21.402,16.980 21.332,16.979 21.000 C 16.978 20.687,16.962 20.591,16.890 20.453 C 16.702 20.097,16.424 20.000,15.594 20.000 L 15.000 20.000 15.000 16.000 L 15.000 12.000 16.610 12.000 C 17.565 12.000,18.279 11.983,18.365 11.959 C 18.586 11.898,18.770 11.755,18.880 11.558 L 18.980 11.380 18.980 8.500 L 18.980 5.620 18.891 5.453 C 18.842 5.362,18.746 5.247,18.678 5.199 C 18.416 5.012,18.290 5.000,16.596 5.000 L 15.005 5.000 14.993 3.810 C 14.981 2.669,14.976 2.613,14.891 2.453 C 14.842 2.362,14.746 2.247,14.678 2.199 C 14.414 2.010,13.957 1.950,13.614 2.057 M17.000 8.500 L 17.000 10.000 12.741 10.000 L 8.482 10.000 7.915 9.290 C 7.603 8.900,7.333 8.561,7.315 8.538 C 7.296 8.513,7.523 8.196,7.882 7.748 L 8.481 7.000 12.741 7.000 L 17.000 7.000 17.000 8.500 " stroke="none" fill="black" fill-rule="evenodd"></path></svg>