<svg xmlns="http://www.w3.org/2000/svg" width="24" height="24" viewBox="0 0 24 24" fill="none" stroke="currentColor" stroke-width="2" stroke-linecap="round" stroke-linejoin="round" class="icon icon-tabler icons-tabler-outline icon-tabler-augmented-reality"><path d="M5.499 3.043 C 4.392 3.229,3.479 4.033,3.116 5.140 C 3.029 5.405,3.024 5.492,3.009 6.804 C 2.999 7.715,3.008 8.243,3.037 8.348 C 3.144 8.748,3.430 8.961,3.896 8.991 C 4.381 9.022,4.699 8.882,4.880 8.558 C 4.980 8.381,4.980 8.376,5.001 7.060 C 5.024 5.577,5.025 5.571,5.321 5.283 C 5.593 5.020,5.714 5.000,7.057 5.000 C 7.713 5.000,8.283 4.982,8.365 4.959 C 8.586 4.898,8.770 4.755,8.880 4.558 C 8.967 4.402,8.980 4.332,8.979 4.000 C 8.978 3.567,8.898 3.355,8.678 3.199 C 8.423 3.017,8.269 3.000,6.944 3.005 C 6.260 3.007,5.609 3.025,5.499 3.043 M15.614 3.056 C 15.376 3.133,15.211 3.262,15.109 3.453 C 15.035 3.592,15.020 3.684,15.020 4.000 C 15.020 4.331,15.033 4.403,15.120 4.558 C 15.230 4.755,15.414 4.898,15.635 4.959 C 15.717 4.982,16.287 5.000,16.943 5.000 C 18.308 5.000,18.412 5.018,18.697 5.303 C 18.982 5.588,19.000 5.692,19.000 7.057 C 19.000 7.713,19.018 8.283,19.041 8.365 C 19.148 8.750,19.437 8.962,19.896 8.991 C 20.381 9.022,20.699 8.882,20.880 8.558 L 20.980 8.380 20.980 6.920 C 20.980 5.501,20.977 5.452,20.886 5.160 C 20.581 4.181,19.825 3.421,18.861 3.124 C 18.550 3.028,18.498 3.024,17.160 3.013 C 16.090 3.005,15.743 3.014,15.614 3.056 M11.740 6.536 C 11.652 6.564,10.713 7.129,9.653 7.791 C 8.593 8.454,7.660 9.024,7.581 9.057 C 7.348 9.155,7.215 9.267,7.097 9.468 L 6.987 9.656 6.995 12.158 C 7.004 14.975,6.998 14.906,7.291 15.186 C 7.384 15.275,8.279 15.858,9.280 16.480 C 10.281 17.103,11.154 17.661,11.220 17.721 C 11.429 17.911,11.770 18.039,12.072 18.040 C 12.234 18.040,12.527 17.926,12.578 17.843 C 12.591 17.821,13.488 17.252,14.571 16.576 C 15.654 15.901,16.616 15.275,16.709 15.186 C 17.002 14.907,16.996 14.968,17.005 12.220 L 17.012 9.780 16.910 9.580 C 16.783 9.333,16.563 9.120,16.300 8.988 C 16.190 8.933,15.272 8.371,14.260 7.738 C 13.248 7.105,12.341 6.563,12.244 6.533 C 12.032 6.469,11.950 6.470,11.740 6.536 M13.056 9.340 C 13.619 9.691,14.080 9.990,14.080 10.003 C 14.080 10.015,13.612 10.318,13.040 10.675 L 12.000 11.325 10.960 10.675 C 10.388 10.318,9.920 10.015,9.920 10.003 C 9.920 9.972,11.973 8.683,12.006 8.693 C 12.021 8.697,12.493 8.988,13.056 9.340 M11.000 14.128 L 11.000 15.202 10.790 15.069 C 10.675 14.996,10.225 14.714,9.790 14.443 L 9.000 13.951 9.000 12.878 L 9.000 11.805 10.000 12.430 L 11.000 13.054 11.000 14.128 M15.000 12.875 L 15.000 13.951 14.210 14.443 C 13.775 14.714,13.325 14.996,13.210 15.069 L 13.000 15.202 13.000 14.128 L 13.000 13.054 13.990 12.431 C 14.535 12.088,14.985 11.806,14.990 11.804 C 14.995 11.802,15.000 12.284,15.000 12.875 M3.614 15.057 C 3.377 15.131,3.212 15.261,3.109 15.453 C 3.022 15.617,3.020 15.647,3.020 17.080 C 3.020 18.499,3.023 18.548,3.114 18.840 C 3.419 19.817,4.158 20.562,5.140 20.884 C 5.405 20.971,5.492 20.976,6.804 20.991 C 7.715 21.001,8.243 20.992,8.348 20.963 C 8.583 20.900,8.767 20.760,8.880 20.558 C 8.967 20.402,8.980 20.332,8.979 20.000 C 8.977 19.469,8.850 19.243,8.455 19.072 C 8.375 19.037,7.942 19.016,7.020 19.001 L 5.700 18.980 5.516 18.872 C 5.327 18.761,5.157 18.570,5.071 18.373 C 5.037 18.295,5.015 17.854,5.001 16.940 C 4.981 15.672,4.976 15.613,4.891 15.453 C 4.842 15.362,4.746 15.247,4.678 15.199 C 4.414 15.010,3.957 14.950,3.614 15.057 M19.614 15.057 C 19.377 15.131,19.212 15.261,19.109 15.453 C 19.024 15.613,19.019 15.673,18.999 16.940 C 18.984 17.847,18.962 18.295,18.929 18.373 C 18.843 18.570,18.673 18.761,18.484 18.872 L 18.300 18.980 16.979 19.000 C 15.658 19.020,15.657 19.020,15.459 19.122 C 15.119 19.297,14.978 19.606,15.009 20.104 C 15.039 20.570,15.252 20.856,15.652 20.963 C 15.757 20.992,16.285 21.001,17.196 20.991 C 18.508 20.976,18.595 20.971,18.860 20.884 C 19.842 20.562,20.581 19.817,20.886 18.840 C 20.977 18.548,20.980 18.499,20.980 17.080 C 20.980 15.647,20.978 15.617,20.891 15.453 C 20.842 15.362,20.746 15.247,20.678 15.199 C 20.414 15.010,19.957 14.950,19.614 15.057 " stroke="none" fill="black" fill-rule="evenodd"></path></svg>