<svg xmlns="http://www.w3.org/2000/svg" width="24" height="24" viewBox="0 0 24 24" fill="none" stroke="currentColor" stroke-width="2" stroke-linecap="round" stroke-linejoin="round" class="icon icon-tabler icons-tabler-outline icon-tabler-squares"><path d="M4.499 2.043 C 3.379 2.233,2.461 3.048,2.114 4.160 L 2.020 4.460 2.020 9.500 L 2.020 14.540 2.114 14.840 C 2.419 15.817,3.159 16.563,4.140 16.884 C 4.403 16.969,4.498 16.976,5.707 16.991 L 6.993 17.007 7.009 18.293 C 7.024 19.502,7.031 19.597,7.116 19.860 C 7.437 20.841,8.183 21.581,9.160 21.886 L 9.460 21.980 14.500 21.980 L 19.540 21.980 19.840 21.886 C 20.827 21.578,21.578 20.827,21.886 19.840 L 21.980 19.540 21.980 14.500 L 21.980 9.460 21.886 9.160 C 21.580 8.180,20.824 7.420,19.861 7.124 C 19.555 7.030,19.482 7.025,18.273 7.009 L 17.007 6.993 16.991 5.707 C 16.976 4.498,16.969 4.403,16.884 4.140 C 16.566 3.167,15.822 2.425,14.861 2.121 L 14.540 2.020 9.620 2.014 C 6.914 2.011,4.609 2.024,4.499 2.043 M14.310 4.061 C 14.452 4.103,14.571 4.178,14.697 4.303 C 14.978 4.584,15.000 4.703,15.000 5.945 L 15.000 6.996 12.230 7.009 L 9.460 7.022 9.139 7.122 C 8.181 7.423,7.441 8.160,7.115 9.140 L 7.021 9.420 7.009 12.212 L 6.996 15.004 5.848 14.992 L 4.700 14.980 4.516 14.872 C 4.303 14.747,4.141 14.550,4.058 14.316 C 3.969 14.061,3.971 4.992,4.061 4.690 C 4.140 4.421,4.412 4.143,4.673 4.063 C 4.962 3.974,14.011 3.972,14.310 4.061 M19.310 9.061 C 19.589 9.144,19.856 9.411,19.939 9.690 C 19.992 9.868,20.000 10.494,20.000 14.501 C 20.000 19.501,20.008 19.318,19.779 19.618 C 19.718 19.698,19.585 19.813,19.484 19.872 L 19.300 19.980 14.500 19.980 L 9.700 19.980 9.516 19.872 C 9.303 19.747,9.141 19.550,9.058 19.316 C 8.969 19.061,8.971 9.992,9.061 9.690 C 9.140 9.421,9.412 9.143,9.673 9.063 C 9.962 8.974,19.011 8.972,19.310 9.061 " stroke="none" fill="black" fill-rule="evenodd"></path></svg>