<svg xmlns="http://www.w3.org/2000/svg" width="24" height="24" viewBox="0 0 24 24" fill="none" stroke="currentColor" stroke-width="2" stroke-linecap="round" stroke-linejoin="round" class="icon icon-tabler icons-tabler-outline icon-tabler-square-letter-c"><path d="M4.499 2.043 C 3.380 2.232,2.461 3.048,2.114 4.160 L 2.020 4.460 2.020 12.000 L 2.020 19.540 2.114 19.840 C 2.422 20.827,3.173 21.578,4.160 21.886 L 4.460 21.980 12.000 21.980 L 19.540 21.980 19.840 21.886 C 20.827 21.578,21.578 20.827,21.886 19.840 L 21.980 19.540 21.980 12.000 L 21.980 4.460 21.886 4.160 C 21.581 3.182,20.832 2.428,19.861 2.121 L 19.540 2.020 12.120 2.014 C 8.039 2.011,4.609 2.024,4.499 2.043 M19.310 4.061 C 19.589 4.144,19.856 4.411,19.939 4.690 C 19.993 4.870,20.000 5.755,20.000 12.001 C 20.000 17.907,19.991 19.138,19.945 19.290 C 19.872 19.533,19.707 19.740,19.484 19.872 L 19.300 19.980 12.000 19.980 L 4.700 19.980 4.516 19.872 C 4.415 19.813,4.284 19.700,4.225 19.623 C 3.986 19.309,4.000 19.795,4.000 12.022 C 4.000 5.758,4.007 4.870,4.061 4.690 C 4.140 4.421,4.412 4.143,4.673 4.063 C 4.964 3.974,19.009 3.971,19.310 4.061 M11.499 7.040 C 10.363 7.246,9.461 8.048,9.114 9.160 L 9.020 9.460 9.020 12.000 L 9.020 14.540 9.114 14.840 C 9.422 15.827,10.174 16.579,11.160 16.886 C 11.594 17.021,12.406 17.021,12.840 16.886 C 13.826 16.579,14.582 15.823,14.885 14.840 C 14.959 14.602,14.978 14.445,14.979 14.080 C 14.980 13.662,14.971 13.604,14.880 13.442 C 14.816 13.328,14.709 13.219,14.583 13.142 C 14.399 13.028,14.361 13.020,14.000 13.020 C 13.639 13.020,13.601 13.028,13.417 13.142 C 13.151 13.306,13.045 13.507,13.001 13.929 C 12.982 14.111,12.947 14.311,12.923 14.373 C 12.851 14.561,12.677 14.758,12.484 14.872 C 12.328 14.963,12.254 14.980,12.000 14.980 C 11.746 14.980,11.672 14.963,11.516 14.872 C 11.303 14.747,11.141 14.550,11.058 14.316 C 10.970 14.065,10.972 9.988,11.061 9.690 C 11.173 9.312,11.598 9.000,12.000 9.000 C 12.223 9.000,12.510 9.120,12.679 9.283 C 12.892 9.491,12.958 9.650,13.001 10.067 C 13.068 10.718,13.370 11.000,14.000 11.000 C 14.428 11.000,14.713 10.856,14.880 10.558 C 14.971 10.396,14.980 10.338,14.979 9.920 C 14.978 9.555,14.959 9.398,14.885 9.160 C 14.583 8.182,13.811 7.407,12.861 7.129 C 12.500 7.023,11.832 6.980,11.499 7.040 " stroke="none" fill="black" fill-rule="evenodd"></path></svg>