<svg xmlns="http://www.w3.org/2000/svg" width="24" height="24" viewBox="0 0 24 24" fill="none" stroke="currentColor" stroke-width="2" stroke-linecap="round" stroke-linejoin="round" class="icon icon-tabler icons-tabler-outline icon-tabler-cherry"><path d="M10.000 3.023 C 8.322 3.158,6.920 3.622,5.410 4.543 C 4.365 5.180,4.186 5.318,4.037 5.608 C 3.933 5.809,3.933 6.191,4.037 6.392 C 4.136 6.584,4.404 6.843,4.680 7.013 C 4.801 7.087,5.092 7.267,5.328 7.412 C 6.700 8.262,8.336 8.847,9.611 8.945 C 9.805 8.960,9.969 8.983,9.978 8.996 C 9.986 9.009,9.867 9.173,9.714 9.360 C 9.122 10.084,8.712 10.761,8.396 11.540 L 8.201 12.020 7.787 12.006 C 6.401 11.961,5.211 12.427,4.267 13.383 C 3.209 14.455,2.760 16.113,3.133 17.563 C 3.563 19.230,4.748 20.417,6.437 20.871 C 6.778 20.963,6.895 20.974,7.500 20.974 C 8.105 20.974,8.222 20.963,8.563 20.871 C 9.758 20.550,10.713 19.855,11.323 18.864 C 12.254 17.350,12.216 15.470,11.223 13.985 C 10.994 13.642,10.536 13.154,10.249 12.948 C 10.045 12.801,10.046 12.772,10.271 12.241 C 10.822 10.942,11.930 9.710,13.593 8.547 C 13.850 8.367,14.382 8.080,14.458 8.080 C 14.463 8.080,14.451 8.175,14.430 8.290 C 14.409 8.405,14.391 8.914,14.390 9.420 C 14.387 10.172,14.403 10.442,14.473 10.900 C 14.627 11.899,14.913 12.907,15.306 13.830 C 15.402 14.055,15.480 14.253,15.480 14.271 C 15.480 14.288,15.349 14.367,15.188 14.447 C 14.557 14.759,13.924 15.348,13.569 15.953 C 12.320 18.083,13.233 20.785,15.512 21.704 C 17.558 22.528,19.877 21.538,20.704 19.488 C 20.994 18.769,21.070 17.977,20.921 17.243 C 20.721 16.264,20.197 15.415,19.438 14.843 C 18.938 14.466,18.261 14.154,17.810 14.092 L 17.629 14.068 17.378 13.544 C 16.694 12.111,16.446 11.115,16.412 9.662 C 16.383 8.459,16.500 7.651,16.842 6.690 C 17.085 6.008,17.093 5.700,16.876 5.424 C 16.790 5.315,15.886 4.703,15.380 4.411 C 14.167 3.711,12.945 3.274,11.720 3.099 C 11.324 3.043,10.311 2.998,10.000 3.023 M11.495 5.084 C 12.230 5.194,13.022 5.451,13.739 5.810 L 14.138 6.010 13.900 6.130 C 13.385 6.391,12.531 6.704,12.020 6.820 C 10.430 7.182,8.875 6.979,7.243 6.196 L 6.860 6.013 7.260 5.811 C 8.144 5.366,8.978 5.128,10.020 5.024 C 10.268 4.999,11.178 5.036,11.495 5.084 M8.020 14.060 C 8.741 14.211,9.395 14.713,9.715 15.362 C 10.087 16.118,10.090 16.878,9.723 17.620 C 9.439 18.195,8.932 18.646,8.320 18.868 C 8.052 18.965,7.965 18.976,7.500 18.976 C 7.035 18.976,6.948 18.965,6.680 18.868 C 5.495 18.438,4.803 17.206,5.060 15.980 C 5.339 14.644,6.674 13.778,8.020 14.060 M17.622 16.102 C 17.892 16.177,18.258 16.419,18.489 16.676 C 19.021 17.269,19.144 18.158,18.793 18.880 C 18.638 19.198,18.227 19.625,17.930 19.775 C 17.159 20.166,16.279 20.046,15.653 19.465 C 14.788 18.661,14.786 17.341,15.649 16.539 C 16.001 16.212,16.322 16.071,16.794 16.039 C 17.214 16.009,17.317 16.017,17.622 16.102 " stroke="none" fill="black" fill-rule="evenodd"></path></svg>