<svg xmlns="http://www.w3.org/2000/svg" width="24" height="24" viewBox="0 0 24 24" fill="none" stroke="currentColor" stroke-width="2" stroke-linecap="round" stroke-linejoin="round" class="icon icon-tabler icons-tabler-outline icon-tabler-article"><path d="M4.499 3.043 C 3.380 3.232,2.461 4.048,2.114 5.160 L 2.020 5.460 2.020 12.000 L 2.020 18.540 2.114 18.840 C 2.422 19.827,3.173 20.578,4.160 20.886 L 4.460 20.980 12.000 20.980 L 19.540 20.980 19.840 20.886 C 20.827 20.578,21.578 19.827,21.886 18.840 L 21.980 18.540 21.980 12.000 L 21.980 5.460 21.886 5.160 C 21.581 4.182,20.832 3.428,19.861 3.121 L 19.540 3.020 12.120 3.014 C 8.039 3.011,4.609 3.024,4.499 3.043 M19.310 5.061 C 19.589 5.144,19.856 5.411,19.939 5.690 C 19.992 5.869,20.000 6.651,20.000 12.001 C 20.000 17.059,19.991 18.139,19.945 18.290 C 19.872 18.533,19.707 18.740,19.484 18.872 L 19.300 18.980 12.000 18.980 L 4.700 18.980 4.516 18.872 C 4.303 18.747,4.141 18.550,4.058 18.316 C 3.968 18.060,3.971 5.993,4.061 5.690 C 4.140 5.421,4.412 5.143,4.673 5.063 C 4.964 4.974,19.009 4.971,19.310 5.061 M6.614 7.057 C 6.377 7.131,6.212 7.261,6.109 7.453 C 6.035 7.592,6.020 7.684,6.020 8.000 C 6.020 8.331,6.033 8.403,6.120 8.558 C 6.230 8.755,6.414 8.898,6.635 8.959 C 6.834 9.015,17.166 9.015,17.365 8.959 C 17.586 8.898,17.770 8.755,17.880 8.558 C 17.967 8.402,17.980 8.332,17.979 8.000 C 17.978 7.567,17.898 7.355,17.678 7.199 C 17.390 6.994,17.565 7.000,11.984 7.003 C 7.830 7.005,6.746 7.016,6.614 7.057 M6.614 11.057 C 6.377 11.131,6.212 11.261,6.109 11.453 C 6.035 11.592,6.020 11.684,6.020 12.000 C 6.020 12.331,6.033 12.403,6.120 12.558 C 6.230 12.755,6.414 12.898,6.635 12.959 C 6.834 13.015,17.166 13.015,17.365 12.959 C 17.586 12.898,17.770 12.755,17.880 12.558 C 17.967 12.402,17.980 12.332,17.979 12.000 C 17.978 11.567,17.898 11.355,17.678 11.199 C 17.390 10.994,17.565 11.000,11.984 11.003 C 7.830 11.005,6.746 11.016,6.614 11.057 M6.614 15.057 C 6.377 15.131,6.212 15.261,6.109 15.453 C 6.035 15.592,6.020 15.684,6.020 16.000 C 6.020 16.331,6.033 16.403,6.120 16.558 C 6.230 16.755,6.414 16.898,6.635 16.959 C 6.834 17.015,17.166 17.015,17.365 16.959 C 17.586 16.898,17.770 16.755,17.880 16.558 C 17.967 16.402,17.980 16.332,17.979 16.000 C 17.978 15.567,17.898 15.355,17.678 15.199 C 17.390 14.994,17.565 15.000,11.984 15.003 C 7.830 15.005,6.746 15.016,6.614 15.057 " stroke="none" fill="black" fill-rule="evenodd"></path></svg>