<svg xmlns="http://www.w3.org/2000/svg" width="24" height="24" viewBox="0 0 24 24" fill="none" stroke="currentColor" stroke-width="2" stroke-linecap="round" stroke-linejoin="round" class="icon icon-tabler icons-tabler-outline icon-tabler-theater"><path d="M5.499 3.043 C 4.390 3.231,3.488 4.024,3.114 5.140 L 3.020 5.420 3.009 10.812 C 3.002 14.394,3.012 16.255,3.039 16.356 C 3.140 16.732,3.429 16.955,3.858 16.990 C 4.188 17.016,4.479 16.921,4.675 16.723 C 4.755 16.643,5.612 15.385,6.580 13.929 C 7.548 12.473,8.356 11.282,8.374 11.281 C 8.393 11.280,8.573 11.342,8.774 11.417 C 9.232 11.588,9.916 11.770,10.540 11.887 C 10.955 11.965,11.153 11.977,12.000 11.977 C 12.847 11.977,13.045 11.965,13.460 11.887 C 14.084 11.770,14.768 11.588,15.226 11.417 C 15.427 11.342,15.607 11.280,15.626 11.281 C 15.644 11.282,16.452 12.474,17.420 13.930 C 18.388 15.386,19.242 16.647,19.317 16.732 C 19.692 17.153,20.265 17.135,20.712 16.688 C 21.023 16.377,21.003 16.785,20.991 10.777 L 20.980 5.420 20.886 5.140 C 20.556 4.158,19.821 3.425,18.861 3.121 L 18.540 3.020 12.120 3.014 C 8.589 3.011,5.609 3.024,5.499 3.043 M18.310 5.061 C 18.589 5.144,18.856 5.411,18.939 5.690 C 18.992 5.866,19.000 6.367,19.000 9.297 L 19.000 12.700 17.895 11.040 C 17.288 10.127,16.743 9.329,16.685 9.266 C 16.518 9.086,16.289 8.987,16.038 8.987 C 15.853 8.987,15.739 9.022,15.366 9.196 C 14.272 9.704,13.033 10.000,12.000 10.000 C 10.967 10.000,9.728 9.704,8.634 9.196 C 8.261 9.022,8.147 8.987,7.962 8.987 C 7.711 8.987,7.482 9.086,7.315 9.266 C 7.257 9.329,6.712 10.127,6.105 11.040 L 5.000 12.700 5.000 9.297 C 5.000 5.440,4.986 5.620,5.304 5.303 C 5.623 4.983,5.120 5.006,11.983 5.003 C 17.353 5.000,18.131 5.007,18.310 5.061 M3.614 19.057 C 3.377 19.131,3.212 19.261,3.109 19.453 C 3.035 19.592,3.020 19.684,3.020 20.000 C 3.020 20.331,3.033 20.403,3.120 20.558 C 3.230 20.755,3.414 20.898,3.635 20.959 C 3.835 21.015,20.165 21.015,20.365 20.959 C 20.586 20.898,20.770 20.755,20.880 20.558 C 20.967 20.402,20.980 20.332,20.979 20.000 C 20.978 19.567,20.898 19.355,20.678 19.199 C 20.386 18.990,20.799 19.000,11.984 19.003 C 5.367 19.005,3.748 19.015,3.614 19.057 " stroke="none" fill="black" fill-rule="evenodd"></path></svg>