<svg xmlns="http://www.w3.org/2000/svg" width="24" height="24" viewBox="0 0 24 24" fill="none" stroke="currentColor" stroke-width="2" stroke-linecap="round" stroke-linejoin="round" class="icon icon-tabler icons-tabler-outline icon-tabler-h-5"><path d="M2.614 5.057 C 2.223 5.180,2.039 5.436,2.009 5.900 C 1.968 6.532,2.251 6.922,2.797 6.987 L 3.000 7.011 3.000 11.996 L 3.000 16.982 2.756 17.028 C 2.450 17.086,2.227 17.232,2.111 17.450 C 2.035 17.592,2.020 17.682,2.020 18.000 C 2.020 18.331,2.033 18.403,2.120 18.558 C 2.230 18.755,2.414 18.898,2.635 18.959 C 2.826 19.012,5.174 19.012,5.365 18.959 C 5.586 18.898,5.770 18.755,5.880 18.558 C 5.967 18.402,5.980 18.332,5.979 18.000 C 5.978 17.685,5.963 17.591,5.888 17.450 C 5.773 17.232,5.551 17.086,5.244 17.028 L 5.000 16.982 5.000 14.991 L 5.000 13.000 8.000 13.000 L 11.000 13.000 11.000 14.991 L 11.000 16.982 10.756 17.028 C 10.450 17.086,10.227 17.232,10.111 17.450 C 10.035 17.592,10.020 17.682,10.020 18.000 C 10.020 18.331,10.033 18.403,10.120 18.558 C 10.230 18.755,10.414 18.898,10.635 18.959 C 10.826 19.012,13.174 19.012,13.365 18.959 C 13.586 18.898,13.770 18.755,13.880 18.558 C 13.967 18.402,13.980 18.332,13.979 18.000 C 13.978 17.685,13.963 17.591,13.888 17.450 C 13.773 17.232,13.551 17.086,13.244 17.028 L 13.000 16.982 13.000 11.996 L 13.000 7.011 13.197 6.988 C 13.539 6.947,13.754 6.805,13.904 6.520 C 14.018 6.305,14.009 5.679,13.890 5.453 C 13.786 5.256,13.623 5.131,13.371 5.055 C 13.108 4.976,10.892 4.976,10.629 5.055 C 10.224 5.177,10.040 5.428,10.009 5.900 C 9.968 6.532,10.251 6.922,10.797 6.987 L 11.000 7.011 11.000 9.006 L 11.000 11.000 8.000 11.000 L 5.000 11.000 5.000 9.006 L 5.000 7.011 5.197 6.988 C 5.539 6.947,5.754 6.805,5.904 6.520 C 6.018 6.305,6.009 5.679,5.890 5.453 C 5.786 5.256,5.623 5.131,5.371 5.055 C 5.117 4.979,2.859 4.981,2.614 5.057 M16.614 9.057 C 16.377 9.131,16.212 9.261,16.109 9.453 C 16.020 9.619,16.020 9.629,16.009 11.911 C 16.001 13.392,16.012 14.256,16.039 14.355 C 16.100 14.583,16.242 14.768,16.442 14.880 C 16.620 14.980,16.624 14.980,17.940 15.000 C 19.423 15.022,19.427 15.023,19.717 15.321 C 19.880 15.490,20.000 15.777,20.000 16.001 C 20.000 16.331,19.784 16.696,19.484 16.872 L 19.300 16.980 17.979 17.000 C 16.658 17.020,16.657 17.020,16.459 17.122 C 16.119 17.297,15.978 17.606,16.009 18.104 C 16.039 18.570,16.252 18.856,16.652 18.963 C 16.757 18.992,17.285 19.001,18.196 18.991 C 19.508 18.976,19.595 18.971,19.860 18.884 C 20.842 18.562,21.582 17.816,21.886 16.840 C 22.021 16.406,22.021 15.594,21.886 15.160 C 21.581 14.180,20.819 13.415,19.861 13.126 C 19.584 13.043,19.433 13.027,18.770 13.010 L 18.000 12.991 18.000 11.995 L 18.000 11.000 19.610 11.000 C 20.565 11.000,21.279 10.983,21.365 10.959 C 21.586 10.898,21.770 10.755,21.880 10.558 C 21.967 10.402,21.980 10.332,21.979 10.000 C 21.978 9.567,21.898 9.355,21.678 9.199 C 21.406 9.005,21.336 9.000,18.984 9.003 C 17.293 9.005,16.741 9.017,16.614 9.057 " stroke="none" fill="black" fill-rule="evenodd"></path></svg>