<svg xmlns="http://www.w3.org/2000/svg" width="24" height="24" viewBox="0 0 24 24" fill="none" stroke="currentColor" stroke-width="2" stroke-linecap="round" stroke-linejoin="round" class="icon icon-tabler icons-tabler-outline icon-tabler-bone-off"><path d="M2.626 2.045 C 2.420 2.154,2.146 2.433,2.038 2.644 C 1.924 2.867,1.924 3.132,2.039 3.363 C 2.102 3.488,3.140 4.554,5.604 7.021 L 9.080 10.501 8.550 11.027 L 8.020 11.552 7.760 11.419 C 7.218 11.141,6.672 11.021,5.980 11.027 C 5.237 11.033,4.698 11.169,4.080 11.505 C 3.125 12.026,2.480 12.848,2.136 13.980 C 2.039 14.300,2.027 14.408,2.024 14.940 C 2.019 15.629,2.078 15.948,2.315 16.537 C 2.738 17.589,3.667 18.453,4.748 18.800 L 5.091 18.911 5.216 19.285 C 5.957 21.496,8.415 22.584,10.594 21.665 C 11.621 21.232,12.469 20.291,12.817 19.199 C 13.110 18.279,13.029 17.131,12.611 16.288 L 12.458 15.980 12.979 15.450 L 13.499 14.920 16.979 18.396 C 19.446 20.860,20.512 21.898,20.637 21.961 C 20.990 22.137,21.355 22.048,21.701 21.701 C 22.047 21.355,22.136 20.990,21.961 20.637 C 21.839 20.392,3.616 2.165,3.372 2.044 C 3.152 1.934,2.834 1.935,2.626 2.045 M14.233 2.079 C 13.833 2.163,13.537 2.268,13.147 2.464 C 12.087 2.996,11.325 4.014,11.071 5.239 C 10.912 6.006,11.042 7.006,11.398 7.741 C 11.555 8.064,11.557 8.077,11.499 8.215 C 11.365 8.536,11.466 8.870,11.798 9.202 C 12.144 9.547,12.482 9.639,12.829 9.482 C 13.057 9.378,13.680 8.770,13.818 8.517 C 14.028 8.131,13.961 7.848,13.545 7.360 C 13.260 7.027,13.133 6.771,13.050 6.369 C 12.872 5.510,13.311 4.626,14.116 4.223 C 14.707 3.926,15.310 3.929,15.919 4.231 C 16.229 4.385,16.633 4.799,16.786 5.120 C 16.933 5.427,16.950 5.499,16.997 6.005 C 17.065 6.728,17.262 6.926,17.988 7.000 C 18.510 7.053,18.577 7.069,18.876 7.214 C 19.501 7.518,19.920 8.132,19.985 8.837 C 20.046 9.509,19.692 10.261,19.132 10.645 C 18.364 11.174,17.373 11.100,16.640 10.458 C 16.324 10.181,16.121 10.082,15.868 10.081 C 15.589 10.080,15.390 10.199,14.979 10.615 C 14.475 11.124,14.364 11.389,14.502 11.750 C 14.643 12.119,15.176 12.558,15.485 12.560 C 15.543 12.560,15.666 12.533,15.758 12.501 C 15.925 12.442,15.930 12.443,16.259 12.602 C 16.965 12.944,17.925 13.080,18.660 12.942 C 20.076 12.677,21.204 11.767,21.711 10.480 C 21.935 9.913,21.978 9.675,21.978 9.000 C 21.978 8.444,21.967 8.339,21.867 7.980 C 21.491 6.630,20.500 5.596,19.188 5.184 L 18.916 5.099 18.796 4.739 C 18.511 3.889,17.948 3.158,17.187 2.652 C 16.366 2.105,15.190 1.877,14.233 2.079 M11.164 14.419 C 10.618 14.969,10.216 15.408,10.165 15.508 C 10.056 15.724,10.053 16.031,10.157 16.232 C 10.199 16.313,10.333 16.497,10.455 16.640 C 10.734 16.967,10.864 17.222,10.944 17.601 C 11.090 18.292,10.854 19.012,10.328 19.485 C 9.241 20.462,7.544 19.976,7.084 18.556 C 7.059 18.477,7.022 18.232,7.003 18.012 C 6.938 17.266,6.739 17.067,5.989 17.000 C 5.479 16.954,5.239 16.883,4.937 16.688 C 4.274 16.259,3.903 15.432,4.037 14.681 C 4.234 13.579,5.301 12.832,6.365 13.050 C 6.764 13.132,7.038 13.270,7.380 13.561 C 7.722 13.852,7.886 13.934,8.121 13.935 C 8.448 13.936,8.600 13.822,9.580 12.841 L 10.499 11.920 11.289 12.709 L 12.079 13.498 11.164 14.419 " stroke="none" fill="black" fill-rule="evenodd"></path></svg>