<svg xmlns="http://www.w3.org/2000/svg" width="24" height="24" viewBox="0 0 24 24" fill="none" stroke="currentColor" stroke-width="2" stroke-linecap="round" stroke-linejoin="round" class="icon icon-tabler icons-tabler-outline icon-tabler-math-avg"><path d="M20.620 2.046 C 20.528 2.094,19.858 2.729,19.033 3.550 L 17.607 4.971 17.433 4.830 C 16.879 4.380,15.836 3.816,15.018 3.525 C 14.008 3.165,13.156 3.023,12.000 3.023 C 10.507 3.023,9.379 3.280,8.060 3.920 C 6.603 4.626,5.395 5.687,4.468 7.073 C 3.940 7.862,3.412 9.124,3.203 10.092 C 2.665 12.589,3.229 15.253,4.727 17.299 L 4.960 17.617 3.545 19.039 C 2.598 19.989,2.100 20.519,2.040 20.637 C 1.863 20.989,1.952 21.354,2.299 21.701 C 2.646 22.048,3.011 22.137,3.363 21.960 C 3.481 21.900,4.011 21.401,4.963 20.454 L 6.385 19.037 6.563 19.173 C 7.529 19.911,8.894 20.539,10.092 20.797 C 13.082 21.441,16.193 20.523,18.358 18.358 C 21.079 15.637,21.772 11.504,20.083 8.060 C 19.825 7.532,19.479 6.963,19.173 6.563 L 19.037 6.385 20.454 4.963 C 21.401 4.011,21.900 3.481,21.960 3.363 C 22.137 3.011,22.048 2.646,21.701 2.299 C 21.361 1.959,20.967 1.867,20.620 2.046 M13.102 5.098 C 13.830 5.208,14.571 5.452,15.227 5.798 C 15.626 6.008,16.160 6.349,16.160 6.393 C 16.160 6.408,13.963 8.616,11.279 11.300 L 6.397 16.180 6.318 16.080 C 6.039 15.729,5.634 14.957,5.427 14.380 C 5.132 13.561,5.024 12.918,5.025 11.980 C 5.025 11.294,5.073 10.886,5.224 10.275 C 5.771 8.061,7.452 6.207,9.620 5.427 C 10.250 5.200,10.715 5.102,11.540 5.023 C 11.813 4.997,12.727 5.041,13.102 5.098 M17.820 8.120 C 18.389 8.975,18.778 9.998,18.924 11.020 C 18.990 11.482,18.990 12.517,18.924 12.980 C 18.525 15.782,16.450 18.096,13.725 18.777 C 13.092 18.936,12.736 18.977,12.000 18.977 C 11.050 18.977,10.338 18.852,9.531 18.544 C 8.986 18.336,8.243 17.939,7.920 17.682 L 7.820 17.603 12.700 12.721 C 15.384 10.037,17.592 7.840,17.607 7.840 C 17.622 7.840,17.718 7.966,17.820 8.120 " stroke="none" fill="black" fill-rule="evenodd"></path></svg>