<svg xmlns="http://www.w3.org/2000/svg" width="24" height="24" viewBox="0 0 24 24" fill="none" stroke="currentColor" stroke-width="2" stroke-linecap="round" stroke-linejoin="round" class="icon icon-tabler icons-tabler-outline icon-tabler-brand-google"><path d="M11.380 2.025 C 8.239 2.226,5.383 3.881,3.657 6.500 C 1.663 9.526,1.459 13.412,3.126 16.600 C 4.313 18.869,6.243 20.553,8.640 21.410 C 11.237 22.338,14.092 22.153,16.561 20.896 C 17.412 20.464,18.501 19.662,19.146 18.995 C 20.974 17.104,22.002 14.589,21.999 12.020 C 21.998 10.803,21.884 10.372,21.503 10.140 L 21.306 10.020 17.083 10.008 C 14.118 10.000,12.806 10.010,12.680 10.041 C 12.424 10.103,12.216 10.253,12.111 10.450 C 12.021 10.618,12.020 10.636,12.008 12.410 C 12.001 13.557,12.012 14.255,12.038 14.354 C 12.100 14.583,12.242 14.768,12.442 14.880 L 12.620 14.980 13.998 15.000 L 15.375 15.020 15.098 15.271 C 13.737 16.502,11.919 16.833,10.261 16.152 C 9.544 15.857,8.797 15.263,8.344 14.628 C 7.975 14.109,7.661 13.343,7.562 12.720 C 7.509 12.386,7.509 11.614,7.562 11.280 C 7.749 10.103,8.476 8.961,9.469 8.287 C 10.236 7.768,11.052 7.520,12.000 7.520 C 12.814 7.520,13.409 7.668,14.114 8.044 C 14.326 8.158,14.572 8.287,14.660 8.331 C 14.876 8.440,15.172 8.436,15.393 8.324 C 15.564 8.237,18.237 5.859,18.451 5.603 C 18.702 5.304,18.775 4.995,18.662 4.701 C 18.571 4.462,18.198 4.123,17.560 3.699 C 16.229 2.815,14.847 2.295,13.301 2.098 C 12.839 2.039,11.787 1.999,11.380 2.025 M12.700 4.042 C 13.718 4.131,14.741 4.422,15.630 4.878 C 15.801 4.965,15.964 5.053,15.993 5.073 C 16.033 5.099,15.896 5.246,15.464 5.638 L 14.880 6.167 14.550 6.027 C 13.736 5.679,13.187 5.562,12.240 5.533 C 10.990 5.494,10.061 5.695,9.036 6.224 C 7.016 7.267,5.728 9.203,5.517 11.515 C 5.418 12.601,5.673 13.875,6.200 14.928 C 7.023 16.571,8.619 17.857,10.381 18.295 C 11.003 18.450,11.370 18.493,12.040 18.490 C 13.746 18.480,15.254 17.868,16.492 16.682 C 17.099 16.099,17.452 15.625,17.814 14.900 C 18.035 14.458,18.160 14.092,18.159 13.891 C 18.157 13.547,17.897 13.232,17.488 13.079 C 17.290 13.005,17.174 13.000,15.638 13.000 L 14.000 13.000 14.000 12.500 L 14.000 12.000 17.000 12.000 L 20.000 12.000 20.000 12.182 C 20.000 12.953,19.752 14.140,19.414 14.983 C 18.686 16.804,17.262 18.330,15.500 19.179 C 13.720 20.036,11.905 20.221,10.000 19.739 C 7.553 19.120,5.515 17.317,4.564 14.930 C 3.798 13.008,3.833 10.747,4.658 8.840 C 5.486 6.924,7.078 5.364,8.988 4.595 C 10.167 4.121,11.432 3.932,12.700 4.042 " stroke="none" fill="black" fill-rule="evenodd"></path></svg>