<svg xmlns="http://www.w3.org/2000/svg" width="24" height="24" viewBox="0 0 24 24" fill="none" stroke="currentColor" stroke-width="2" stroke-linecap="round" stroke-linejoin="round" class="icon icon-tabler icons-tabler-outline icon-tabler-info-octagon"><path d="M11.490 1.044 C 11.375 1.064,11.159 1.122,11.010 1.175 C 10.411 1.387,4.956 3.758,4.736 3.902 C 4.399 4.122,4.007 4.539,3.814 4.884 C 3.722 5.047,3.080 6.512,2.386 8.140 C 0.984 11.430,0.970 11.471,1.013 12.159 C 1.026 12.368,1.065 12.642,1.099 12.766 C 1.191 13.105,3.658 18.857,3.848 19.178 C 4.060 19.534,4.469 19.943,4.822 20.150 C 4.975 20.240,6.450 20.890,8.100 21.594 C 11.263 22.945,11.415 23.000,12.000 23.000 C 12.307 23.000,12.785 22.914,13.028 22.816 C 14.403 22.259,19.046 20.238,19.242 20.110 C 19.562 19.903,19.893 19.575,20.099 19.262 C 20.225 19.069,22.180 14.594,22.743 13.208 C 22.996 12.585,23.059 12.004,22.939 11.420 C 22.865 11.061,23.007 11.412,21.516 7.918 C 20.778 6.188,20.210 4.911,20.111 4.758 C 19.908 4.445,19.579 4.114,19.263 3.904 C 19.045 3.759,13.614 1.396,12.996 1.177 C 12.523 1.010,11.984 0.962,11.490 1.044 M15.200 4.282 C 17.804 5.396,18.158 5.558,18.300 5.700 C 18.442 5.842,18.605 6.198,19.720 8.800 C 20.943 11.653,20.980 11.748,20.980 12.000 C 20.980 12.252,20.943 12.347,19.720 15.200 C 18.606 17.799,18.441 18.159,18.299 18.302 C 18.156 18.446,17.828 18.596,15.279 19.686 C 13.707 20.359,12.359 20.930,12.284 20.955 C 12.209 20.980,12.081 21.000,12.000 21.000 C 11.919 21.000,11.791 20.980,11.716 20.955 C 11.641 20.930,10.293 20.359,8.721 19.686 C 6.172 18.596,5.844 18.446,5.701 18.302 C 5.559 18.159,5.394 17.799,4.280 15.200 C 3.057 12.347,3.020 12.252,3.020 12.000 C 3.020 11.748,3.057 11.653,4.280 8.800 C 5.395 6.198,5.558 5.842,5.700 5.700 C 5.842 5.558,6.191 5.399,8.780 4.294 C 10.386 3.608,11.727 3.037,11.760 3.025 C 11.793 3.012,11.919 3.007,12.040 3.013 C 12.227 3.022,12.698 3.211,15.200 4.282 M11.614 8.055 C 11.220 8.184,11.039 8.437,11.009 8.900 C 10.978 9.381,11.119 9.699,11.442 9.880 C 11.597 9.967,11.669 9.980,12.000 9.980 C 12.312 9.980,12.408 9.964,12.540 9.894 C 12.866 9.718,13.000 9.459,13.000 9.000 C 13.000 8.357,12.713 8.048,12.083 8.016 C 11.893 8.006,11.718 8.021,11.614 8.055 M10.614 11.057 C 10.223 11.180,10.039 11.436,10.009 11.900 C 9.968 12.532,10.251 12.922,10.797 12.987 L 11.000 13.011 11.000 14.616 C 11.000 15.567,11.017 16.279,11.041 16.365 C 11.102 16.586,11.245 16.770,11.442 16.880 C 11.612 16.976,11.654 16.981,12.405 16.993 C 12.880 17.001,13.252 16.989,13.349 16.963 C 13.583 16.900,13.767 16.760,13.880 16.558 C 13.967 16.402,13.980 16.332,13.979 16.000 C 13.978 15.685,13.963 15.591,13.888 15.450 C 13.773 15.232,13.551 15.086,13.246 15.028 L 13.004 14.982 12.992 13.301 C 12.980 11.651,12.978 11.617,12.891 11.453 C 12.785 11.256,12.622 11.131,12.371 11.055 C 12.126 10.982,10.851 10.983,10.614 11.057 " stroke="none" fill="black" fill-rule="evenodd"></path></svg>