<svg xmlns="http://www.w3.org/2000/svg" width="24" height="24" viewBox="0 0 24 24" fill="none" stroke="currentColor" stroke-width="2" stroke-linecap="round" stroke-linejoin="round" class="icon icon-tabler icons-tabler-outline icon-tabler-arrow-rotary-first-left"><path d="M15.358 3.061 C 13.150 3.405,11.636 5.582,12.082 7.772 C 12.160 8.151,12.370 8.735,12.500 8.934 C 12.556 9.020,12.448 9.133,9.281 12.299 L 6.005 15.575 5.992 14.098 C 5.980 12.658,5.978 12.616,5.891 12.453 C 5.785 12.256,5.622 12.131,5.371 12.055 C 4.862 11.902,4.311 12.076,4.109 12.453 C 4.020 12.619,4.020 12.631,3.993 15.280 C 3.978 16.743,3.965 17.998,3.963 18.069 C 3.959 18.208,4.122 18.610,4.232 18.735 C 4.331 18.847,4.776 19.040,4.929 19.037 C 5.001 19.035,6.257 19.022,7.720 19.007 C 10.212 18.982,10.389 18.975,10.520 18.905 C 10.876 18.715,10.978 18.514,10.978 18.000 C 10.978 17.567,10.899 17.356,10.678 17.199 C 10.421 17.015,10.276 17.000,8.804 17.000 L 7.420 17.000 10.695 13.725 L 13.969 10.451 14.200 10.566 C 14.327 10.630,14.554 10.725,14.705 10.778 L 14.980 10.874 15.000 15.627 L 15.020 20.380 15.120 20.558 C 15.287 20.856,15.572 21.000,16.000 21.000 C 16.428 21.000,16.713 20.856,16.880 20.558 L 16.980 20.380 16.991 15.628 C 17.001 11.165,17.006 10.876,17.071 10.855 C 18.340 10.452,19.237 9.645,19.704 8.488 C 20.090 7.530,20.090 6.469,19.705 5.516 C 19.172 4.197,18.001 3.269,16.605 3.058 C 16.144 2.989,15.816 2.990,15.358 3.061 M16.523 5.073 C 17.262 5.266,17.850 5.924,17.967 6.690 C 18.067 7.343,17.873 7.933,17.403 8.404 C 17.002 8.807,16.547 9.000,16.000 9.000 C 15.485 9.000,15.038 8.822,14.653 8.465 C 13.323 7.229,14.189 5.005,16.000 5.005 C 16.143 5.005,16.378 5.036,16.523 5.073 " stroke="none" fill="black" fill-rule="evenodd"></path></svg>