<svg xmlns="http://www.w3.org/2000/svg" width="24" height="24" viewBox="0 0 24 24" fill="none" stroke="currentColor" stroke-width="2" stroke-linecap="round" stroke-linejoin="round" class="icon icon-tabler icons-tabler-outline icon-tabler-number-5"><path d="M7.614 3.057 C 7.377 3.131,7.212 3.261,7.109 3.453 L 7.020 3.620 7.009 7.913 C 7.002 10.727,7.013 12.258,7.039 12.357 C 7.100 12.584,7.242 12.768,7.442 12.880 L 7.620 12.980 10.080 13.002 L 12.540 13.023 12.861 13.123 C 13.821 13.421,14.585 14.186,14.875 15.139 C 14.958 15.412,14.973 15.542,14.973 16.000 C 14.973 16.458,14.958 16.588,14.875 16.861 C 14.585 17.811,13.839 18.561,12.860 18.885 C 12.583 18.976,12.555 18.977,10.119 18.999 L 7.658 19.020 7.459 19.122 C 7.119 19.297,6.978 19.606,7.009 20.104 C 7.039 20.568,7.253 20.856,7.648 20.962 C 7.751 20.990,8.625 20.999,10.252 20.989 C 12.414 20.976,12.735 20.966,13.000 20.904 C 14.536 20.544,15.756 19.614,16.433 18.288 C 16.838 17.494,16.980 16.899,16.980 16.000 C 16.980 15.101,16.838 14.506,16.433 13.713 C 15.794 12.461,14.604 11.510,13.240 11.162 C 12.728 11.031,12.218 11.000,10.582 11.000 L 9.000 11.000 9.000 8.000 L 9.000 5.000 12.610 5.000 C 14.905 5.000,16.273 4.985,16.365 4.959 C 16.586 4.898,16.770 4.755,16.880 4.558 C 16.967 4.402,16.980 4.332,16.979 4.000 C 16.978 3.567,16.898 3.355,16.678 3.199 C 16.393 2.996,16.487 3.000,11.984 3.003 C 8.651 3.005,7.746 3.016,7.614 3.057 " stroke="none" fill="black" fill-rule="evenodd"></path></svg>