<svg xmlns="http://www.w3.org/2000/svg" width="24" height="24" viewBox="0 0 24 24" fill="none" stroke="currentColor" stroke-width="2" stroke-linecap="round" stroke-linejoin="round" class="icon icon-tabler icons-tabler-outline icon-tabler-filter-bolt"><path d="M3.614 3.057 C 3.377 3.131,3.212 3.261,3.109 3.453 C 3.022 3.615,3.020 3.659,3.008 5.058 C 2.998 6.259,3.007 6.550,3.061 6.816 C 3.145 7.230,3.272 7.538,3.496 7.871 C 3.596 8.019,4.650 9.208,5.838 10.513 L 7.999 12.886 8.009 17.093 L 8.020 21.300 8.127 21.504 C 8.345 21.916,8.667 22.085,9.082 22.003 C 9.450 21.930,13.452 20.578,13.629 20.467 C 13.954 20.262,14.065 19.964,13.977 19.534 C 13.852 18.920,13.482 18.593,12.986 18.657 C 12.835 18.677,10.559 19.400,10.050 19.590 C 10.010 19.605,10.000 18.861,10.000 15.954 L 9.999 12.300 9.905 12.100 C 9.837 11.957,9.158 11.182,7.503 9.363 C 6.233 7.968,5.155 6.753,5.107 6.663 C 5.028 6.515,5.019 6.430,5.007 5.750 L 4.994 5.000 12.000 5.000 L 19.006 5.000 18.993 5.730 C 18.982 6.346,18.968 6.482,18.906 6.600 C 18.865 6.677,17.783 7.793,16.500 9.080 C 15.218 10.367,14.135 11.483,14.094 11.560 C 14.026 11.689,14.019 11.837,14.008 13.450 C 14.001 14.570,14.012 15.255,14.038 15.354 C 14.144 15.747,14.432 15.961,14.896 15.991 C 15.381 16.022,15.699 15.882,15.880 15.558 L 15.980 15.380 15.992 13.900 L 16.004 12.420 18.212 10.200 C 20.495 7.905,20.567 7.824,20.787 7.278 C 20.987 6.783,21.006 6.580,20.992 5.042 C 20.980 3.660,20.977 3.615,20.891 3.453 C 20.785 3.256,20.622 3.131,20.371 3.055 C 20.106 2.976,3.868 2.978,3.614 3.057 M18.620 15.026 C 18.554 15.061,18.448 15.137,18.385 15.195 C 18.251 15.318,16.144 18.459,16.035 18.698 C 15.944 18.898,15.939 19.204,16.024 19.382 C 16.059 19.456,16.168 19.591,16.266 19.681 C 16.585 19.975,16.597 19.978,17.930 20.000 L 19.120 20.020 18.615 20.777 C 18.033 21.649,17.962 21.788,17.961 22.054 C 17.960 22.304,18.044 22.477,18.266 22.681 C 18.749 23.127,19.289 23.155,19.665 22.754 C 19.872 22.534,21.885 19.481,21.950 19.289 C 22.073 18.929,21.941 18.385,21.686 18.204 C 21.441 18.030,21.382 18.022,20.110 18.001 L 18.880 17.980 19.385 17.223 C 19.967 16.351,20.038 16.212,20.039 15.946 C 20.040 15.696,19.956 15.523,19.734 15.319 C 19.383 14.996,18.913 14.872,18.620 15.026 " stroke="none" fill="black" fill-rule="evenodd"></path></svg>