<svg xmlns="http://www.w3.org/2000/svg" width="24" height="24" viewBox="0 0 24 24" fill="none" stroke="currentColor" stroke-width="2" stroke-linecap="round" stroke-linejoin="round" class="icon icon-tabler icons-tabler-outline icon-tabler-currency-won"><path d="M3.626 5.080 C 3.344 5.190,3.176 5.317,3.075 5.498 C 2.917 5.779,2.949 5.981,3.397 7.540 C 3.619 8.310,3.800 8.953,3.800 8.970 C 3.800 8.986,3.578 9.000,3.306 9.000 C 2.585 9.000,2.292 9.111,2.109 9.453 C 2.035 9.592,2.020 9.684,2.020 10.000 C 2.020 10.331,2.033 10.403,2.120 10.558 C 2.230 10.755,2.414 10.898,2.635 10.959 C 2.715 10.981,3.142 11.000,3.584 11.000 L 4.389 11.000 4.660 11.950 C 4.809 12.473,4.939 12.922,4.950 12.950 C 4.964 12.989,4.736 13.000,3.891 13.000 C 2.745 13.000,2.570 13.022,2.322 13.199 C 2.139 13.329,2.030 13.573,2.009 13.900 C 1.978 14.381,2.119 14.699,2.442 14.880 L 2.620 14.980 4.078 15.000 L 5.536 15.020 5.939 16.420 C 6.180 17.260,6.388 17.904,6.457 18.030 C 6.521 18.145,6.674 18.337,6.798 18.455 C 7.203 18.841,7.610 18.984,8.208 18.950 C 8.514 18.933,8.607 18.909,8.856 18.786 C 9.221 18.606,9.545 18.287,9.709 17.949 C 9.775 17.812,10.031 17.093,10.278 16.350 L 10.727 15.000 12.000 15.000 L 13.273 15.000 13.722 16.350 C 13.969 17.093,14.225 17.812,14.291 17.949 C 14.455 18.287,14.779 18.606,15.144 18.786 C 15.393 18.909,15.486 18.933,15.792 18.950 C 16.390 18.984,16.797 18.841,17.202 18.455 C 17.326 18.337,17.479 18.145,17.543 18.030 C 17.612 17.904,17.820 17.260,18.061 16.420 L 18.464 15.020 19.922 15.000 C 21.316 14.981,21.387 14.976,21.540 14.894 C 21.875 14.715,21.978 14.504,21.978 14.000 C 21.978 13.567,21.899 13.356,21.678 13.199 C 21.430 13.022,21.255 13.000,20.109 13.000 C 19.264 13.000,19.036 12.989,19.050 12.950 C 19.061 12.922,19.191 12.473,19.340 11.950 L 19.611 11.000 20.416 11.000 C 20.858 11.000,21.285 10.981,21.365 10.959 C 21.586 10.898,21.770 10.755,21.880 10.558 C 21.967 10.402,21.980 10.332,21.979 10.000 C 21.978 9.687,21.962 9.591,21.890 9.453 C 21.709 9.111,21.415 9.000,20.694 9.000 C 20.422 9.000,20.200 8.986,20.200 8.970 C 20.200 8.953,20.381 8.310,20.603 7.540 C 21.032 6.047,21.078 5.783,20.949 5.536 C 20.786 5.223,20.347 5.000,19.897 5.000 C 19.589 5.000,19.460 5.058,19.271 5.278 C 19.113 5.462,19.100 5.502,18.517 7.550 L 18.104 9.001 15.747 8.990 L 13.390 8.980 13.145 8.260 C 12.894 7.525,12.800 7.341,12.608 7.208 C 12.310 7.002,11.781 6.925,11.537 7.052 C 11.247 7.203,11.147 7.383,10.840 8.300 L 10.613 8.980 8.255 8.990 L 5.896 9.001 5.483 7.550 C 4.900 5.502,4.887 5.462,4.729 5.278 C 4.654 5.190,4.541 5.091,4.478 5.059 C 4.315 4.975,3.866 4.986,3.626 5.080 M9.920 11.030 C 9.920 11.046,9.775 11.496,9.597 12.030 L 9.273 13.000 8.158 13.000 L 7.043 13.000 6.964 12.730 C 6.788 12.129,6.480 11.044,6.480 11.023 C 6.480 11.010,7.254 11.000,8.200 11.000 C 9.146 11.000,9.920 11.013,9.920 11.030 M17.520 11.023 C 17.520 11.044,17.212 12.129,17.036 12.730 L 16.957 13.000 15.842 13.000 L 14.727 13.000 14.403 12.030 C 14.225 11.496,14.080 11.046,14.080 11.030 C 14.080 11.013,14.854 11.000,15.800 11.000 C 16.746 11.000,17.520 11.010,17.520 11.023 M12.296 12.070 C 12.448 12.527,12.580 12.922,12.590 12.950 C 12.604 12.989,12.470 13.000,12.000 13.000 C 11.530 13.000,11.396 12.989,11.410 12.950 C 11.420 12.922,11.552 12.527,11.704 12.070 C 11.855 11.614,11.988 11.240,12.000 11.240 C 12.012 11.240,12.145 11.614,12.296 12.070 M8.590 15.050 C 8.580 15.078,8.468 15.415,8.341 15.800 C 8.214 16.185,8.098 16.514,8.083 16.530 C 8.068 16.547,7.956 16.209,7.834 15.780 L 7.611 15.000 8.110 15.000 C 8.492 15.000,8.604 15.012,8.590 15.050 M16.166 15.780 C 16.044 16.209,15.932 16.547,15.917 16.530 C 15.902 16.514,15.786 16.185,15.659 15.800 C 15.532 15.415,15.420 15.078,15.410 15.050 C 15.396 15.012,15.508 15.000,15.890 15.000 L 16.389 15.000 16.166 15.780 " stroke="none" fill="black" fill-rule="evenodd"></path></svg>