<svg xmlns="http://www.w3.org/2000/svg" width="24" height="24" viewBox="0 0 24 24" fill="none" stroke="currentColor" stroke-width="2" stroke-linecap="round" stroke-linejoin="round" class="icon icon-tabler icons-tabler-outline icon-tabler-steering-wheel-off"><path d="M2.626 2.045 C 2.257 2.239,1.951 2.673,1.951 3.000 C 1.951 3.327,2.064 3.474,3.190 4.607 L 4.250 5.673 4.072 5.907 C 2.665 7.747,1.927 10.057,2.014 12.340 C 2.113 14.916,3.129 17.249,4.940 19.060 C 8.445 22.565,13.980 22.980,17.949 20.035 L 18.330 19.753 19.395 20.812 C 20.082 21.494,20.523 21.902,20.637 21.960 C 20.989 22.137,21.354 22.048,21.701 21.701 C 22.047 21.355,22.136 20.990,21.961 20.637 C 21.839 20.392,3.616 2.165,3.372 2.044 C 3.152 1.934,2.834 1.935,2.626 2.045 M11.100 2.043 C 9.957 2.151,8.788 2.469,7.760 2.951 C 7.110 3.256,6.893 3.512,6.928 3.932 C 6.963 4.358,7.263 4.821,7.582 4.943 C 7.842 5.042,8.090 4.999,8.594 4.765 C 10.525 3.869,12.571 3.759,14.611 4.440 C 15.776 4.830,16.811 5.490,17.723 6.427 C 18.175 6.890,18.343 7.095,18.670 7.580 C 19.051 8.145,19.579 9.234,19.507 9.306 C 19.493 9.320,18.491 9.626,17.280 9.985 C 16.069 10.345,15.029 10.670,14.969 10.707 C 14.537 10.975,14.432 11.306,14.602 11.858 C 14.695 12.157,14.899 12.418,15.109 12.506 C 15.381 12.620,15.558 12.581,17.783 11.922 C 18.968 11.571,19.946 11.293,19.957 11.304 C 19.968 11.315,19.984 11.558,19.993 11.845 C 20.030 13.028,19.800 14.124,19.259 15.349 C 19.000 15.933,18.958 16.158,19.057 16.418 C 19.241 16.900,20.036 17.227,20.477 17.002 C 20.696 16.890,20.827 16.717,21.051 16.240 C 22.660 12.818,22.200 8.837,19.845 5.800 C 19.501 5.357,18.719 4.573,18.240 4.191 C 16.829 3.068,15.111 2.333,13.345 2.097 C 12.779 2.022,11.619 1.994,11.100 2.043 M7.500 8.920 C 8.490 9.910,9.273 10.719,9.240 10.719 C 9.163 10.717,4.527 9.340,4.497 9.310 C 4.463 9.277,4.698 8.711,4.925 8.280 C 5.128 7.894,5.628 7.120,5.675 7.120 C 5.689 7.120,6.510 7.930,7.500 8.920 M6.620 12.042 C 7.962 12.439,9.072 12.777,9.086 12.792 C 9.100 12.808,9.161 12.946,9.221 13.100 C 9.497 13.806,10.142 14.473,10.810 14.743 L 11.000 14.820 11.000 17.375 L 11.000 19.929 10.777 19.901 C 10.175 19.826,9.247 19.539,8.580 19.223 C 6.323 18.152,4.673 16.051,4.179 13.621 C 3.986 12.668,3.946 11.245,4.114 11.298 C 4.150 11.309,5.278 11.644,6.620 12.042 M15.090 16.510 C 16.074 17.494,16.880 18.312,16.880 18.328 C 16.880 18.343,16.688 18.484,16.454 18.641 C 15.755 19.108,14.955 19.477,14.163 19.699 C 13.808 19.798,13.208 19.920,13.076 19.920 C 13.002 19.920,13.000 19.844,13.000 17.378 L 13.000 14.836 13.130 14.780 C 13.202 14.749,13.269 14.722,13.280 14.722 C 13.291 14.721,14.105 15.525,15.090 16.510 " stroke="none" fill="black" fill-rule="evenodd"></path></svg>