<svg xmlns="http://www.w3.org/2000/svg" width="24" height="24" viewBox="0 0 24 24" fill="none" stroke="currentColor" stroke-width="2" stroke-linecap="round" stroke-linejoin="round" class="icon icon-tabler icons-tabler-outline icon-tabler-highlight"><path d="M14.814 2.737 C 14.278 2.839,13.795 3.041,13.300 3.371 C 12.990 3.577,2.279 14.266,2.127 14.520 L 2.020 14.700 2.020 17.040 L 2.020 19.380 2.120 19.558 C 2.232 19.758,2.417 19.900,2.645 19.961 C 2.744 19.988,3.595 19.999,5.049 19.991 L 7.300 19.980 7.480 19.873 C 7.737 19.720,18.464 8.967,18.656 8.670 C 18.882 8.320,19.068 7.922,19.187 7.532 C 19.284 7.213,19.294 7.118,19.297 6.520 C 19.300 5.804,19.246 5.517,19.009 4.980 C 18.543 3.923,17.559 3.080,16.460 2.796 C 16.046 2.689,15.219 2.659,14.814 2.737 M15.982 4.742 C 16.940 4.992,17.514 5.999,17.258 6.982 C 17.176 7.297,17.037 7.526,16.745 7.832 L 16.504 8.084 15.212 6.792 L 13.921 5.501 14.141 5.279 C 14.660 4.754,15.306 4.566,15.982 4.742 M11.790 12.790 L 8.500 16.080 7.210 14.790 L 5.920 13.500 9.210 10.210 L 12.500 6.920 13.790 8.210 L 15.080 9.500 11.790 12.790 M16.660 14.066 C 16.475 14.122,16.303 14.284,14.347 16.233 C 13.169 17.408,12.187 18.420,12.127 18.520 C 12.034 18.677,12.020 18.743,12.020 19.040 C 12.020 19.328,12.035 19.407,12.120 19.558 C 12.230 19.755,12.414 19.898,12.635 19.959 C 12.833 20.014,21.167 20.014,21.365 19.959 C 21.586 19.898,21.770 19.755,21.880 19.558 L 21.980 19.380 21.980 17.000 L 21.980 14.620 21.891 14.453 C 21.785 14.256,21.622 14.131,21.371 14.055 C 21.089 13.970,16.944 13.980,16.660 14.066 M6.831 17.749 L 6.582 18.000 5.291 18.000 L 4.000 18.000 4.000 16.711 L 4.000 15.422 4.249 15.171 L 4.499 14.919 5.789 16.209 L 7.079 17.499 6.831 17.749 M20.000 17.000 L 20.000 18.000 17.710 18.000 L 15.421 18.000 16.420 17.000 L 17.419 16.000 18.710 16.000 L 20.000 16.000 20.000 17.000 " stroke="none" fill="black" fill-rule="evenodd"></path></svg>