<svg xmlns="http://www.w3.org/2000/svg" width="24" height="24" viewBox="0 0 24 24" fill="none" stroke="currentColor" stroke-width="2" stroke-linecap="round" stroke-linejoin="round" class="icon icon-tabler icons-tabler-outline icon-tabler-lock-open-2"><path d="M16.400 2.044 C 14.761 2.229,13.261 3.290,12.526 4.785 C 12.345 5.153,12.194 5.578,12.096 6.000 C 12.037 6.256,12.024 6.571,12.011 8.149 L 11.995 9.997 8.227 10.009 L 4.460 10.021 4.139 10.122 C 3.169 10.427,2.419 11.182,2.114 12.160 L 2.020 12.460 2.020 16.000 L 2.020 19.540 2.114 19.840 C 2.422 20.827,3.173 21.578,4.160 21.886 L 4.460 21.980 10.000 21.980 L 15.540 21.980 15.840 21.886 C 16.827 21.578,17.578 20.827,17.886 19.840 L 17.980 19.540 17.980 16.000 L 17.980 12.460 17.886 12.160 C 17.580 11.179,16.819 10.415,15.861 10.126 C 15.584 10.043,15.434 10.027,14.767 10.010 L 13.995 9.990 14.009 8.225 C 14.023 6.477,14.024 6.457,14.123 6.139 C 14.421 5.180,15.186 4.415,16.139 4.125 C 16.412 4.042,16.542 4.027,17.000 4.027 C 17.458 4.027,17.588 4.042,17.861 4.125 C 18.814 4.415,19.579 5.179,19.877 6.139 L 19.977 6.460 19.998 8.920 L 20.020 11.380 20.120 11.558 C 20.287 11.856,20.572 12.000,21.000 12.000 C 21.428 12.000,21.713 11.856,21.880 11.558 L 21.980 11.380 21.980 8.880 C 21.980 6.614,21.973 6.348,21.907 6.040 C 21.576 4.491,20.600 3.219,19.213 2.525 C 18.352 2.095,17.397 1.932,16.400 2.044 M15.310 12.061 C 15.589 12.144,15.856 12.411,15.939 12.690 C 16.025 12.980,16.031 19.004,15.945 19.290 C 15.872 19.533,15.707 19.740,15.484 19.872 L 15.300 19.980 10.000 19.980 L 4.700 19.980 4.516 19.872 C 4.303 19.747,4.141 19.550,4.058 19.316 C 3.969 19.063,3.971 12.991,4.061 12.690 C 4.140 12.421,4.412 12.143,4.673 12.063 C 4.963 11.974,15.010 11.972,15.310 12.061 M9.477 14.073 C 8.806 14.249,8.238 14.823,8.060 15.508 C 7.941 15.962,8.003 16.492,8.225 16.930 C 8.361 17.199,8.801 17.639,9.070 17.775 C 9.659 18.073,10.341 18.073,10.930 17.775 C 11.196 17.640,11.638 17.200,11.771 16.937 C 11.994 16.498,12.052 16.007,11.940 15.529 C 11.858 15.182,11.720 14.927,11.465 14.653 C 11.074 14.232,10.560 14.005,10.000 14.005 C 9.857 14.005,9.622 14.036,9.477 14.073 " stroke="none" fill="black" fill-rule="evenodd"></path></svg>