<svg xmlns="http://www.w3.org/2000/svg" width="24" height="24" viewBox="0 0 24 24" fill="none" stroke="currentColor" stroke-width="2" stroke-linecap="round" stroke-linejoin="round" class="icon icon-tabler icons-tabler-outline icon-tabler-brand-amigo"><path d="M11.374 1.056 C 11.000 1.128,10.838 1.182,10.500 1.350 C 9.948 1.625,9.331 2.171,8.987 2.691 C 8.786 2.995,8.853 2.864,4.868 10.740 C 2.898 14.634,1.354 17.733,1.283 17.935 C 1.063 18.563,1.021 18.805,1.022 19.460 C 1.022 19.963,1.037 20.115,1.115 20.400 C 1.395 21.420,2.048 22.214,2.973 22.657 C 3.446 22.884,3.757 22.961,4.300 22.987 C 5.100 23.025,5.916 22.768,6.512 22.290 C 6.644 22.184,7.295 21.570,7.960 20.926 C 9.487 19.446,9.969 19.040,10.678 18.638 C 11.196 18.345,11.474 18.264,11.980 18.262 C 12.470 18.260,12.665 18.308,13.137 18.547 C 13.856 18.911,14.444 19.401,15.870 20.825 C 16.469 21.424,17.081 22.005,17.230 22.117 C 17.605 22.399,18.146 22.660,18.620 22.786 C 19.160 22.930,19.932 22.938,20.420 22.805 C 21.408 22.536,22.216 21.874,22.645 20.980 C 23.074 20.088,23.108 19.034,22.744 17.962 C 22.647 17.673,21.572 15.535,18.910 10.331 C 16.876 6.354,15.151 3.001,15.078 2.880 C 14.537 1.991,13.756 1.378,12.833 1.120 C 12.451 1.013,11.759 0.983,11.374 1.056 M12.532 3.131 C 12.779 3.244,13.108 3.530,13.280 3.780 C 13.462 4.045,20.764 18.350,20.874 18.656 C 21.017 19.056,21.020 19.669,20.882 20.020 C 20.753 20.345,20.425 20.673,20.100 20.802 C 19.629 20.988,19.046 20.909,18.546 20.593 C 18.433 20.521,17.809 19.939,17.160 19.299 C 15.945 18.102,15.626 17.810,15.114 17.432 C 14.060 16.652,13.159 16.292,12.160 16.251 C 11.180 16.211,10.302 16.485,9.280 17.149 C 8.514 17.647,8.052 18.048,6.438 19.616 C 5.094 20.923,5.010 20.980,4.440 20.980 C 4.134 20.980,4.070 20.966,3.831 20.848 C 3.500 20.685,3.241 20.403,3.112 20.063 C 2.977 19.706,2.986 19.139,3.134 18.707 C 3.259 18.344,10.408 4.190,10.666 3.795 C 11.121 3.099,11.875 2.831,12.532 3.131 M11.499 9.040 C 10.363 9.246,9.460 10.049,9.114 11.160 C 8.979 11.594,8.979 12.406,9.114 12.840 C 9.421 13.826,10.174 14.579,11.160 14.886 C 11.594 15.021,12.406 15.021,12.840 14.886 C 13.826 14.579,14.579 13.826,14.886 12.840 C 15.021 12.406,15.021 11.594,14.886 11.160 C 14.581 10.179,13.810 9.407,12.861 9.129 C 12.500 9.023,11.832 8.980,11.499 9.040 M12.310 11.061 C 12.688 11.173,13.000 11.598,13.000 12.001 C 13.000 12.331,12.784 12.696,12.484 12.872 C 12.328 12.963,12.254 12.980,12.000 12.980 C 11.746 12.980,11.672 12.963,11.516 12.872 C 10.935 12.530,10.833 11.774,11.304 11.303 C 11.583 11.024,11.916 10.944,12.310 11.061 " stroke="none" fill="black" fill-rule="evenodd"></path></svg>