<svg xmlns="http://www.w3.org/2000/svg" width="24" height="24" viewBox="0 0 24 24" fill="none" stroke="currentColor" stroke-width="2" stroke-linecap="round" stroke-linejoin="round" class="icon icon-tabler icons-tabler-outline icon-tabler-fidget-spinner"><path d="M11.400 0.041 C 9.738 0.245,8.261 1.291,7.526 2.785 C 6.663 4.539,6.883 6.615,8.091 8.104 C 8.228 8.273,8.357 8.434,8.378 8.463 C 8.405 8.499,8.369 8.565,8.257 8.687 C 7.734 9.255,7.279 10.144,7.117 10.912 C 7.082 11.079,7.059 11.119,7.006 11.103 C 6.868 11.061,6.251 11.000,5.971 11.000 C 5.616 11.000,5.001 11.090,4.611 11.199 C 3.391 11.540,2.280 12.424,1.622 13.578 C 1.006 14.659,0.833 16.135,1.182 17.340 C 1.571 18.687,2.523 19.845,3.740 20.453 C 4.887 21.026,6.113 21.149,7.320 20.814 C 9.072 20.327,10.422 18.949,10.851 17.211 C 10.916 16.948,10.947 16.883,10.997 16.897 C 11.151 16.943,11.713 17.000,12.000 17.000 C 12.286 17.000,12.849 16.943,13.002 16.898 C 13.050 16.884,13.080 16.944,13.134 17.169 C 13.348 18.061,13.848 18.926,14.527 19.582 C 14.901 19.944,15.132 20.118,15.540 20.347 C 16.880 21.099,18.468 21.201,19.890 20.627 C 21.276 20.068,22.403 18.815,22.801 17.389 C 23.149 16.143,23.030 14.895,22.453 13.740 C 21.784 12.401,20.433 11.377,18.965 11.096 C 18.377 10.983,17.441 10.987,17.016 11.103 C 16.941 11.124,16.925 11.097,16.863 10.833 C 16.776 10.468,16.555 9.900,16.369 9.565 C 16.213 9.283,15.821 8.743,15.686 8.624 C 15.639 8.582,15.600 8.531,15.600 8.510 C 15.600 8.489,15.683 8.379,15.785 8.266 C 16.285 7.711,16.666 6.951,16.884 6.080 C 16.966 5.749,16.978 5.607,16.977 4.980 C 16.975 4.302,16.968 4.233,16.850 3.796 C 16.585 2.813,16.207 2.152,15.526 1.480 C 14.933 0.894,14.373 0.539,13.614 0.267 C 13.023 0.055,12.076 -0.041,11.400 0.041 M12.477 2.042 C 13.441 2.199,14.287 2.830,14.699 3.699 C 15.337 5.046,14.901 6.662,13.680 7.477 C 13.125 7.848,12.971 8.100,13.010 8.577 C 13.043 8.988,13.182 9.189,13.660 9.510 C 14.531 10.097,14.993 11.010,14.999 12.160 C 15.003 12.752,15.170 13.016,15.709 13.281 C 16.070 13.459,16.311 13.461,16.720 13.289 C 17.204 13.085,17.491 13.024,17.980 13.024 C 18.873 13.023,19.487 13.279,20.122 13.916 C 20.501 14.297,20.720 14.664,20.885 15.200 C 21.005 15.586,21.016 16.319,20.909 16.720 C 20.537 18.117,19.243 19.073,17.840 18.987 C 17.370 18.958,17.071 18.878,16.670 18.677 C 16.076 18.378,15.628 17.929,15.338 17.340 C 15.110 16.878,15.039 16.585,15.004 15.963 C 14.963 15.237,14.886 15.109,14.303 14.796 C 13.889 14.573,13.648 14.563,13.192 14.750 C 12.389 15.078,11.611 15.078,10.808 14.750 C 10.348 14.562,10.115 14.573,9.683 14.803 C 9.142 15.091,9.000 15.318,9.000 15.905 C 8.999 16.779,8.703 17.522,8.123 18.107 C 7.523 18.713,6.855 18.982,5.960 18.978 C 5.503 18.976,5.427 18.964,5.081 18.846 C 4.230 18.554,3.710 18.097,3.319 17.300 C 2.691 16.022,3.029 14.545,4.154 13.641 C 4.687 13.214,5.248 13.026,6.000 13.023 C 6.542 13.020,6.724 13.058,7.280 13.289 C 7.753 13.486,8.012 13.461,8.465 13.176 C 8.906 12.899,8.969 12.771,9.002 12.080 C 9.032 11.464,9.113 11.097,9.302 10.711 C 9.558 10.192,9.882 9.816,10.340 9.509 C 10.817 9.190,10.957 8.989,10.990 8.577 C 11.028 8.104,10.874 7.847,10.335 7.487 C 9.443 6.892,8.936 5.849,9.016 4.775 C 9.146 3.025,10.746 1.761,12.477 2.042 M11.614 4.057 C 11.221 4.180,11.039 4.435,11.009 4.906 C 10.962 5.621,11.306 6.000,12.000 6.000 C 12.698 6.000,13.043 5.616,12.989 4.900 C 12.963 4.563,12.859 4.327,12.678 4.199 C 12.414 4.010,11.957 3.950,11.614 4.057 M11.614 11.057 C 11.221 11.180,11.039 11.435,11.009 11.906 C 10.962 12.621,11.306 13.000,12.000 13.000 C 12.698 13.000,13.043 12.616,12.989 11.900 C 12.963 11.563,12.859 11.327,12.678 11.199 C 12.414 11.010,11.957 10.950,11.614 11.057 M5.614 15.057 C 5.221 15.180,5.039 15.435,5.009 15.906 C 4.962 16.621,5.306 17.000,6.000 17.000 C 6.698 17.000,7.043 16.616,6.989 15.900 C 6.963 15.563,6.859 15.327,6.678 15.199 C 6.414 15.010,5.957 14.950,5.614 15.057 M17.614 15.057 C 17.221 15.180,17.039 15.435,17.009 15.906 C 16.962 16.621,17.306 17.000,18.000 17.000 C 18.698 17.000,19.043 16.616,18.989 15.900 C 18.963 15.563,18.859 15.327,18.678 15.199 C 18.414 15.010,17.957 14.950,17.614 15.057 " stroke="none" fill="black" fill-rule="evenodd"></path></svg>