<svg xmlns="http://www.w3.org/2000/svg" width="24" height="24" viewBox="0 0 24 24" fill="none" stroke="currentColor" stroke-width="2" stroke-linecap="round" stroke-linejoin="round" class="icon icon-tabler icons-tabler-outline icon-tabler-baby-bottle"><path d="M11.614 1.057 C 11.377 1.131,11.212 1.261,11.110 1.453 C 11.030 1.603,11.019 1.696,11.000 2.357 L 10.980 3.093 10.700 3.149 C 10.546 3.180,10.258 3.261,10.060 3.329 C 7.789 4.105,6.184 6.200,6.015 8.610 L 5.988 9.000 5.400 9.000 C 4.577 9.000,4.299 9.098,4.109 9.453 C 4.035 9.592,4.020 9.684,4.020 10.000 C 4.020 10.331,4.033 10.403,4.120 10.558 C 4.230 10.755,4.414 10.898,4.635 10.959 C 4.715 10.981,5.054 11.000,5.389 11.000 L 5.998 11.000 6.009 15.790 L 6.020 20.580 6.114 20.860 C 6.446 21.851,7.184 22.582,8.160 22.886 L 8.460 22.980 12.000 22.980 L 15.540 22.980 15.840 22.886 C 16.816 22.582,17.554 21.851,17.886 20.860 L 17.980 20.580 17.991 15.790 L 18.002 11.000 18.611 11.000 C 18.946 11.000,19.285 10.981,19.365 10.959 C 19.586 10.898,19.770 10.755,19.880 10.558 C 19.967 10.402,19.980 10.332,19.979 10.000 C 19.978 9.687,19.962 9.591,19.890 9.453 C 19.702 9.098,19.423 9.000,18.600 9.000 L 18.012 9.000 17.985 8.610 C 17.833 6.439,16.568 4.575,14.580 3.590 C 14.230 3.417,13.666 3.223,13.300 3.150 L 13.020 3.093 12.999 2.357 C 12.975 1.537,12.931 1.379,12.678 1.199 C 12.414 1.010,11.957 0.950,11.614 1.057 M12.605 5.058 C 14.074 5.280,15.310 6.324,15.797 7.755 C 15.881 8.002,15.999 8.665,16.000 8.890 L 16.000 9.000 12.000 9.000 L 8.000 9.000 8.000 8.890 C 8.001 8.665,8.119 8.002,8.203 7.755 C 8.444 7.048,8.937 6.337,9.490 5.899 C 10.402 5.178,11.475 4.888,12.605 5.058 M16.000 15.554 C 16.000 20.497,16.008 20.318,15.779 20.618 C 15.718 20.698,15.585 20.813,15.484 20.872 L 15.300 20.980 12.000 20.980 L 8.700 20.980 8.516 20.872 C 8.415 20.813,8.284 20.700,8.225 20.623 C 7.989 20.314,8.000 20.557,8.000 15.575 L 8.000 11.000 12.000 11.000 L 16.000 11.000 16.000 15.554 " stroke="none" fill="black" fill-rule="evenodd"></path></svg>