<svg xmlns="http://www.w3.org/2000/svg" width="24" height="24" viewBox="0 0 24 24" fill="none" stroke="currentColor" stroke-width="2" stroke-linecap="round" stroke-linejoin="round" class="icon icon-tabler icons-tabler-outline icon-tabler-device-desktop-plus"><path d="M3.477 3.073 C 2.806 3.249,2.238 3.823,2.060 4.508 C 2.008 4.705,2.000 5.464,2.000 10.000 C 2.000 15.733,1.990 15.466,2.225 15.930 C 2.361 16.199,2.801 16.639,3.070 16.775 C 3.506 16.996,3.557 17.000,5.868 17.000 L 8.000 17.000 8.000 18.000 L 8.000 19.000 7.406 19.000 C 6.577 19.000,6.300 19.097,6.109 19.453 C 6.035 19.592,6.020 19.684,6.020 20.000 C 6.020 20.331,6.033 20.403,6.120 20.558 C 6.230 20.755,6.414 20.898,6.635 20.959 C 6.832 21.014,12.168 21.014,12.365 20.959 C 12.586 20.898,12.770 20.755,12.880 20.558 C 12.967 20.402,12.980 20.332,12.979 20.000 C 12.978 19.567,12.898 19.355,12.678 19.199 C 12.430 19.022,12.256 19.000,11.094 19.000 L 10.000 19.000 10.000 18.000 L 10.000 17.000 11.853 17.000 C 13.913 17.000,13.997 16.991,14.229 16.751 C 14.418 16.556,14.486 16.355,14.486 15.997 C 14.486 15.491,14.303 15.196,13.909 15.064 C 13.737 15.007,13.203 15.000,8.859 15.000 L 4.000 15.000 4.000 10.000 L 4.000 5.000 12.000 5.000 L 20.000 5.000 20.000 8.853 C 20.000 13.109,19.993 12.981,20.249 13.229 C 20.442 13.416,20.647 13.487,20.997 13.488 C 21.348 13.490,21.556 13.418,21.751 13.229 C 22.008 12.981,22.000 13.120,21.999 8.743 C 21.999 4.451,22.002 4.518,21.781 4.083 C 21.646 3.816,21.297 3.449,21.017 3.281 C 20.523 2.983,21.217 3.005,12.000 3.005 C 4.321 3.005,3.721 3.009,3.477 3.073 M18.614 15.057 C 18.377 15.131,18.212 15.261,18.109 15.453 C 18.024 15.613,18.020 15.668,18.008 16.810 L 17.996 18.000 16.904 18.000 C 15.744 18.000,15.570 18.022,15.322 18.199 C 15.100 18.357,15.020 18.568,15.020 19.000 C 15.020 19.331,15.033 19.403,15.120 19.558 C 15.230 19.755,15.414 19.898,15.635 19.959 C 15.716 19.982,16.270 20.000,16.890 20.000 L 18.000 20.000 18.000 21.110 C 18.000 21.730,18.018 22.284,18.041 22.365 C 18.148 22.750,18.437 22.962,18.896 22.991 C 19.381 23.022,19.699 22.882,19.880 22.558 C 19.979 22.381,19.980 22.374,19.993 21.190 L 20.005 20.000 21.113 20.000 C 21.731 20.000,22.284 19.982,22.365 19.959 C 22.586 19.898,22.770 19.755,22.880 19.558 C 22.967 19.402,22.980 19.332,22.979 19.000 C 22.978 18.567,22.898 18.355,22.678 18.199 C 22.430 18.022,22.256 18.000,21.096 18.000 L 20.005 18.000 19.993 16.810 C 19.981 15.669,19.976 15.613,19.891 15.453 C 19.842 15.362,19.746 15.247,19.678 15.199 C 19.414 15.010,18.957 14.950,18.614 15.057 " stroke="none" fill="black" fill-rule="evenodd"></path></svg>