<svg xmlns="http://www.w3.org/2000/svg" width="24" height="24" viewBox="0 0 24 24" fill="none" stroke="currentColor" stroke-width="2" stroke-linecap="round" stroke-linejoin="round" class="icon icon-tabler icons-tabler-outline icon-tabler-box-align-top-right"><path d="M3.614 3.057 C 3.221 3.180,3.039 3.435,3.009 3.906 C 2.962 4.621,3.306 5.000,4.000 5.000 C 4.698 5.000,5.043 4.616,4.989 3.900 C 4.963 3.563,4.859 3.327,4.678 3.199 C 4.414 3.010,3.957 2.950,3.614 3.057 M8.614 3.057 C 8.221 3.180,8.039 3.435,8.009 3.906 C 7.962 4.621,8.306 5.000,9.000 5.000 C 9.698 5.000,10.043 4.616,9.989 3.900 C 9.963 3.563,9.859 3.327,9.678 3.199 C 9.414 3.010,8.957 2.950,8.614 3.057 M13.661 3.045 C 13.288 3.099,12.871 3.319,12.585 3.612 C 12.296 3.907,12.145 4.171,12.062 4.523 C 11.971 4.909,11.971 10.150,12.061 10.498 C 12.241 11.189,12.858 11.804,13.524 11.958 C 13.762 12.012,19.238 12.012,19.476 11.958 C 19.955 11.847,20.516 11.412,20.753 10.968 C 21.003 10.498,21.000 10.537,20.999 7.522 C 20.999 5.216,20.989 4.739,20.938 4.523 C 20.760 3.768,20.081 3.153,19.300 3.042 C 18.956 2.992,14.001 2.995,13.661 3.045 M19.000 7.500 L 19.000 10.000 16.500 10.000 L 14.000 10.000 14.000 7.500 L 14.000 5.000 16.500 5.000 L 19.000 5.000 19.000 7.500 M3.614 8.057 C 3.221 8.180,3.039 8.435,3.009 8.906 C 2.962 9.621,3.306 10.000,4.000 10.000 C 4.698 10.000,5.043 9.616,4.989 8.900 C 4.963 8.563,4.859 8.327,4.678 8.199 C 4.414 8.010,3.957 7.950,3.614 8.057 M3.614 14.057 C 3.221 14.180,3.039 14.435,3.009 14.906 C 2.962 15.621,3.306 16.000,4.000 16.000 C 4.698 16.000,5.043 15.616,4.989 14.900 C 4.963 14.563,4.859 14.327,4.678 14.199 C 4.414 14.010,3.957 13.950,3.614 14.057 M19.614 14.057 C 19.221 14.180,19.039 14.435,19.009 14.906 C 18.962 15.621,19.306 16.000,20.000 16.000 C 20.698 16.000,21.043 15.616,20.989 14.900 C 20.963 14.563,20.859 14.327,20.678 14.199 C 20.414 14.010,19.957 13.950,19.614 14.057 M3.614 19.057 C 3.221 19.180,3.039 19.435,3.009 19.906 C 2.962 20.621,3.306 21.000,4.000 21.000 C 4.698 21.000,5.043 20.616,4.989 19.900 C 4.963 19.563,4.859 19.327,4.678 19.199 C 4.414 19.010,3.957 18.950,3.614 19.057 M8.614 19.057 C 8.221 19.180,8.039 19.435,8.009 19.906 C 7.962 20.621,8.306 21.000,9.000 21.000 C 9.698 21.000,10.043 20.616,9.989 19.900 C 9.963 19.563,9.859 19.327,9.678 19.199 C 9.414 19.010,8.957 18.950,8.614 19.057 M14.614 19.057 C 14.221 19.180,14.039 19.435,14.009 19.906 C 13.962 20.621,14.306 21.000,15.000 21.000 C 15.698 21.000,16.043 20.616,15.989 19.900 C 15.963 19.563,15.859 19.327,15.678 19.199 C 15.414 19.010,14.957 18.950,14.614 19.057 M19.614 19.057 C 19.221 19.180,19.039 19.435,19.009 19.906 C 18.962 20.621,19.306 21.000,20.000 21.000 C 20.698 21.000,21.043 20.616,20.989 19.900 C 20.963 19.563,20.859 19.327,20.678 19.199 C 20.414 19.010,19.957 18.950,19.614 19.057 " stroke="none" fill="black" fill-rule="evenodd"></path></svg>