<svg xmlns="http://www.w3.org/2000/svg" width="24" height="24" viewBox="0 0 24 24" fill="none" stroke="currentColor" stroke-width="2" stroke-linecap="round" stroke-linejoin="round" class="icon icon-tabler icons-tabler-outline icon-tabler-arrow-zig-zag"><path d="M15.530 3.083 C 15.393 3.150,15.249 3.252,15.210 3.310 C 15.172 3.369,14.463 4.101,13.635 4.938 C 12.635 5.949,12.099 6.520,12.040 6.637 C 11.863 6.989,11.952 7.354,12.299 7.701 C 12.646 8.048,13.012 8.137,13.363 7.959 C 13.469 7.905,13.832 7.580,14.270 7.147 L 15.000 6.425 15.000 10.330 L 15.000 14.236 10.730 11.673 C 8.381 10.263,6.382 9.083,6.286 9.050 C 6.054 8.970,5.689 9.004,5.446 9.129 C 5.244 9.233,5.104 9.408,5.041 9.635 C 4.985 9.834,4.985 20.166,5.041 20.365 C 5.148 20.750,5.437 20.962,5.896 20.991 C 6.381 21.022,6.699 20.882,6.880 20.558 L 6.980 20.380 6.991 16.086 C 6.999 12.711,7.012 11.796,7.051 11.812 C 7.078 11.822,9.022 12.984,11.371 14.394 C 13.720 15.804,15.709 16.976,15.791 16.998 C 16.160 17.101,16.439 17.010,16.712 16.699 C 17.020 16.350,17.000 16.718,17.000 11.285 L 17.000 6.425 17.730 7.147 C 18.168 7.580,18.531 7.905,18.637 7.959 C 18.988 8.137,19.354 8.048,19.701 7.701 C 20.048 7.354,20.137 6.989,19.960 6.637 C 19.901 6.520,19.365 5.949,18.365 4.938 C 17.537 4.101,16.828 3.369,16.789 3.310 C 16.751 3.252,16.604 3.149,16.464 3.082 C 16.120 2.918,15.871 2.918,15.530 3.083 " stroke="none" fill="black" fill-rule="evenodd"></path></svg>