<svg xmlns="http://www.w3.org/2000/svg" width="24" height="24" viewBox="0 0 24 24" fill="none" stroke="currentColor" stroke-width="2" stroke-linecap="round" stroke-linejoin="round" class="icon icon-tabler icons-tabler-outline icon-tabler-navigation-west"><path d="M8.619 2.070 C 8.191 2.223,8.003 2.467,8.001 2.871 C 8.000 2.987,8.234 4.490,8.521 6.211 C 9.097 9.669,9.096 9.663,9.410 9.872 C 9.768 10.108,10.451 10.009,10.729 9.680 C 10.801 9.595,11.112 9.048,11.420 8.464 C 11.728 7.880,11.989 7.402,12.000 7.402 C 12.011 7.402,12.272 7.881,12.580 8.466 C 12.888 9.051,13.198 9.606,13.269 9.700 C 13.513 10.025,13.876 10.115,14.302 9.956 C 14.616 9.839,14.853 9.601,14.937 9.320 C 15.031 9.002,16.000 3.122,15.999 2.871 C 15.998 2.569,15.885 2.347,15.660 2.204 C 15.285 1.966,14.705 1.934,14.403 2.133 C 14.119 2.321,14.072 2.479,13.775 4.268 C 13.628 5.153,13.494 5.869,13.478 5.859 C 13.462 5.849,13.308 5.578,13.138 5.257 C 12.796 4.615,12.680 4.473,12.381 4.335 C 11.944 4.132,11.618 4.182,11.330 4.494 C 11.243 4.588,11.034 4.929,10.864 5.251 C 10.694 5.574,10.541 5.847,10.524 5.858 C 10.507 5.868,10.372 5.153,10.225 4.268 C 9.927 2.475,9.882 2.322,9.594 2.131 C 9.383 1.991,8.920 1.962,8.619 2.070 M11.728 12.036 C 11.275 12.192,11.423 11.936,9.107 16.561 C 6.763 21.241,6.852 21.031,7.040 21.420 C 7.145 21.637,7.406 21.846,7.694 21.944 C 8.077 22.073,8.124 22.056,10.148 21.046 L 12.000 20.121 13.892 21.066 C 15.966 22.101,16.019 22.120,16.383 21.981 C 16.605 21.896,16.843 21.613,16.941 21.316 C 17.081 20.897,17.161 21.084,14.889 16.539 C 13.745 14.250,12.761 12.320,12.703 12.251 C 12.567 12.089,12.296 11.960,12.097 11.961 C 12.011 11.962,11.845 11.996,11.728 12.036 M12.872 16.984 C 13.341 17.922,13.717 18.697,13.707 18.706 C 13.698 18.715,13.371 18.565,12.980 18.371 C 12.299 18.035,12.258 18.020,12.000 18.020 C 11.742 18.020,11.701 18.035,11.020 18.371 C 10.629 18.565,10.302 18.715,10.293 18.706 C 10.273 18.686,11.970 15.280,12.000 15.280 C 12.011 15.280,12.404 16.047,12.872 16.984 " stroke="none" fill="black" fill-rule="evenodd"></path></svg>