<svg xmlns="http://www.w3.org/2000/svg" width="24" height="24" viewBox="0 0 24 24" fill="none" stroke="currentColor" stroke-width="2" stroke-linecap="round" stroke-linejoin="round" class="icon icon-tabler icons-tabler-outline icon-tabler-power"><path d="M11.614 3.057 C 11.377 3.131,11.212 3.261,11.109 3.453 L 11.020 3.620 11.009 7.913 C 11.002 10.727,11.013 12.258,11.039 12.357 C 11.144 12.747,11.434 12.961,11.896 12.991 C 12.381 13.022,12.699 12.882,12.880 12.558 L 12.980 12.380 12.980 8.000 L 12.980 3.620 12.891 3.453 C 12.842 3.362,12.746 3.247,12.678 3.199 C 12.414 3.010,11.957 2.950,11.614 3.057 M6.651 5.044 C 6.240 5.247,5.252 6.265,4.771 6.981 C 4.030 8.083,3.573 9.260,3.334 10.684 C 3.234 11.273,3.235 12.619,3.335 13.200 C 3.793 15.864,5.156 17.933,7.383 19.349 C 10.150 21.107,13.850 21.107,16.617 19.349 C 18.843 17.934,20.207 15.863,20.665 13.200 C 20.765 12.619,20.766 11.273,20.666 10.684 C 20.386 9.017,19.784 7.632,18.824 6.440 C 18.501 6.038,17.751 5.301,17.488 5.127 C 17.247 4.966,16.948 4.918,16.702 4.999 C 16.508 5.063,16.138 5.430,16.037 5.657 C 15.938 5.881,15.930 6.131,16.015 6.335 C 16.057 6.435,16.280 6.687,16.634 7.035 C 17.314 7.704,17.635 8.134,17.999 8.860 C 18.300 9.461,18.462 9.915,18.595 10.525 C 19.066 12.698,18.417 14.972,16.866 16.591 C 16.021 17.472,14.941 18.115,13.754 18.444 C 12.711 18.733,11.289 18.733,10.246 18.444 C 8.610 17.991,7.135 16.898,6.286 15.510 C 5.594 14.378,5.262 13.218,5.265 11.940 C 5.266 11.224,5.311 10.863,5.480 10.220 C 5.635 9.630,5.760 9.308,6.046 8.758 C 6.383 8.112,6.724 7.667,7.367 7.033 C 7.690 6.715,7.946 6.427,7.981 6.344 C 8.062 6.150,8.054 5.854,7.961 5.650 C 7.866 5.441,7.528 5.096,7.341 5.018 C 7.141 4.934,6.850 4.945,6.651 5.044 " stroke="none" fill="black" fill-rule="evenodd"></path></svg>