<svg xmlns="http://www.w3.org/2000/svg" width="24" height="24" viewBox="0 0 24 24" fill="none" stroke="currentColor" stroke-width="2" stroke-linecap="round" stroke-linejoin="round" class="icon icon-tabler icons-tabler-outline icon-tabler-device-tablet-off"><path d="M2.626 2.045 C 2.257 2.239,1.951 2.673,1.951 3.000 C 1.951 3.321,2.070 3.479,3.065 4.482 L 4.000 5.424 4.000 12.843 C 4.000 20.937,3.987 20.460,4.225 20.930 C 4.361 21.199,4.801 21.639,5.070 21.775 C 5.538 22.012,5.172 22.000,12.000 22.000 C 18.828 22.000,18.462 22.012,18.930 21.775 C 19.045 21.716,19.263 21.545,19.415 21.393 L 19.690 21.118 20.079 21.495 C 20.293 21.702,20.546 21.912,20.641 21.961 C 20.987 22.137,21.355 22.047,21.701 21.701 C 22.048 21.354,22.137 20.989,21.959 20.637 C 21.888 20.496,20.606 19.137,19.748 18.293 C 19.598 18.145,5.866 4.413,5.760 4.304 C 5.007 3.534,3.504 2.112,3.372 2.045 C 3.152 1.934,2.836 1.934,2.626 2.045 M6.614 2.057 C 6.377 2.131,6.212 2.261,6.109 2.453 C 6.035 2.592,6.020 2.684,6.020 3.000 C 6.020 3.331,6.033 3.403,6.120 3.558 C 6.230 3.755,6.414 3.898,6.635 3.959 C 6.729 3.985,8.755 4.000,12.390 4.000 L 18.000 4.000 18.000 9.610 C 18.000 13.245,18.015 15.271,18.041 15.365 C 18.148 15.750,18.437 15.962,18.896 15.991 C 19.381 16.022,19.699 15.882,19.880 15.558 L 19.980 15.380 19.991 9.589 C 20.002 3.288,20.010 3.534,19.782 3.083 C 19.646 2.816,19.297 2.449,19.017 2.281 C 18.530 1.988,18.923 2.005,12.520 2.005 C 7.921 2.005,6.747 2.016,6.614 2.057 M18.000 19.710 L 18.000 20.000 12.000 20.000 L 6.000 20.000 6.000 13.710 L 6.000 7.420 12.000 13.420 L 18.000 19.420 18.000 19.710 M11.477 15.073 C 10.806 15.249,10.238 15.823,10.060 16.508 C 9.941 16.962,10.003 17.492,10.225 17.930 C 10.361 18.199,10.801 18.639,11.070 18.775 C 11.659 19.073,12.341 19.073,12.930 18.775 C 13.196 18.640,13.638 18.200,13.771 17.937 C 13.994 17.498,14.052 17.007,13.940 16.529 C 13.858 16.182,13.720 15.927,13.465 15.653 C 13.074 15.232,12.560 15.005,12.000 15.005 C 11.857 15.005,11.622 15.036,11.477 15.073 " stroke="none" fill="black" fill-rule="evenodd"></path></svg>