<svg xmlns="http://www.w3.org/2000/svg" width="24" height="24" viewBox="0 0 24 24" fill="none" stroke="currentColor" stroke-width="2" stroke-linecap="round" stroke-linejoin="round" class="icon icon-tabler icons-tabler-outline icon-tabler-carousel-horizontal"><path d="M7.477 4.073 C 6.806 4.249,6.238 4.823,6.060 5.508 C 6.008 5.706,6.000 6.577,6.000 12.000 C 6.000 18.828,5.988 18.462,6.225 18.930 C 6.361 19.199,6.801 19.639,7.070 19.775 C 7.529 20.008,7.360 20.000,12.000 20.000 C 16.640 20.000,16.471 20.008,16.930 19.775 C 17.196 19.640,17.638 19.200,17.771 18.937 C 18.012 18.462,18.000 18.830,17.999 12.014 C 17.999 5.247,18.008 5.529,17.781 5.083 C 17.646 4.816,17.297 4.449,17.017 4.281 C 16.539 3.993,16.751 4.005,12.000 4.005 C 8.102 4.005,7.718 4.010,7.477 4.073 M1.614 6.057 C 1.377 6.131,1.212 6.261,1.109 6.453 C 1.035 6.592,1.020 6.684,1.020 7.000 C 1.020 7.331,1.033 7.403,1.120 7.558 C 1.230 7.755,1.414 7.898,1.635 7.959 C 1.715 7.981,2.054 8.000,2.390 8.000 L 3.000 8.000 3.000 12.000 L 3.000 16.000 2.406 16.000 C 1.577 16.000,1.300 16.097,1.109 16.453 C 1.035 16.592,1.020 16.684,1.020 17.000 C 1.020 17.331,1.033 17.403,1.120 17.558 C 1.230 17.755,1.414 17.898,1.635 17.959 C 1.715 17.981,2.114 18.000,2.522 18.000 C 3.328 18.000,3.558 17.963,3.930 17.775 C 4.196 17.640,4.638 17.200,4.771 16.937 C 5.008 16.471,5.000 16.634,4.999 12.014 C 4.999 7.426,5.003 7.520,4.781 7.083 C 4.551 6.628,4.022 6.203,3.523 6.073 C 3.189 5.986,1.876 5.975,1.614 6.057 M16.000 12.000 L 16.000 18.000 12.000 18.000 L 8.000 18.000 8.000 12.000 L 8.000 6.000 12.000 6.000 L 16.000 6.000 16.000 12.000 M20.477 6.073 C 19.806 6.249,19.238 6.823,19.060 7.508 C 18.970 7.851,18.970 16.149,19.060 16.492 C 19.153 16.852,19.310 17.118,19.596 17.404 C 19.882 17.690,20.148 17.847,20.508 17.940 C 20.777 18.010,22.131 18.024,22.365 17.959 C 22.586 17.898,22.770 17.755,22.880 17.558 C 22.967 17.402,22.980 17.332,22.979 17.000 C 22.978 16.687,22.962 16.591,22.890 16.453 C 22.702 16.097,22.424 16.000,21.594 16.000 L 21.000 16.000 21.000 12.000 L 21.000 8.000 21.610 8.000 C 21.946 8.000,22.285 7.981,22.365 7.959 C 22.586 7.898,22.770 7.755,22.880 7.558 C 22.967 7.402,22.980 7.332,22.979 7.000 C 22.978 6.687,22.962 6.591,22.890 6.453 C 22.786 6.256,22.623 6.131,22.371 6.055 C 22.091 5.971,20.822 5.983,20.477 6.073 " stroke="none" fill="black" fill-rule="evenodd"></path></svg>