<svg xmlns="http://www.w3.org/2000/svg" width="24" height="24" viewBox="0 0 24 24" fill="none" stroke="currentColor" stroke-width="2" stroke-linecap="round" stroke-linejoin="round" class="icon icon-tabler icons-tabler-outline icon-tabler-pick"><path d="M8.499 2.043 C 7.382 2.230,6.460 3.049,6.114 4.160 C 5.979 4.594,5.979 5.406,6.114 5.840 C 6.418 6.816,7.157 7.562,8.140 7.884 C 8.407 7.972,8.493 7.977,9.989 7.998 L 11.558 8.020 7.069 12.541 C 2.414 17.230,2.439 17.202,2.213 17.762 C 1.904 18.526,1.943 19.529,2.309 20.260 C 2.872 21.382,4.024 22.058,5.258 21.988 C 5.767 21.959,6.044 21.886,6.520 21.655 L 6.900 21.470 8.820 19.565 C 9.876 18.518,11.922 16.483,13.367 15.044 L 15.994 12.426 16.009 14.003 C 16.023 15.520,16.027 15.591,16.116 15.860 C 16.439 16.844,17.184 17.582,18.160 17.886 C 18.594 18.021,19.406 18.021,19.840 17.886 C 20.815 17.582,21.556 16.848,21.885 15.860 L 21.979 15.580 21.992 12.920 C 22.006 10.038,22.002 9.971,21.792 9.520 C 21.680 9.279,21.424 9.013,18.206 5.797 C 14.998 2.592,14.721 2.325,14.478 2.211 C 14.334 2.143,14.110 2.067,13.981 2.044 C 13.699 1.991,8.809 1.991,8.499 2.043 M16.790 7.210 L 20.000 10.420 20.000 12.764 C 20.000 15.307,19.998 15.330,19.779 15.618 C 19.718 15.698,19.585 15.813,19.484 15.872 C 19.328 15.963,19.254 15.980,19.000 15.980 C 18.746 15.980,18.672 15.963,18.516 15.872 C 18.328 15.761,18.158 15.572,18.070 15.373 C 18.034 15.291,18.015 14.778,18.000 13.480 L 17.980 11.700 17.873 11.520 C 17.712 11.251,12.621 6.182,12.420 6.092 C 12.276 6.027,12.080 6.018,10.480 6.000 L 8.700 5.980 8.516 5.872 C 7.935 5.530,7.833 4.774,8.304 4.303 C 8.607 3.999,8.543 4.006,11.220 4.003 L 13.580 4.000 16.790 7.210 M13.800 10.221 L 14.580 11.001 10.160 15.416 C 5.933 19.638,5.730 19.834,5.508 19.915 C 5.056 20.081,4.625 19.983,4.307 19.643 C 3.994 19.309,3.920 18.833,4.118 18.424 C 4.173 18.310,5.561 16.888,8.583 13.849 C 10.994 11.424,12.979 9.440,12.994 9.440 C 13.009 9.440,13.372 9.791,13.800 10.221 " stroke="none" fill="black" fill-rule="evenodd"></path></svg>