<svg xmlns="http://www.w3.org/2000/svg" width="24" height="24" viewBox="0 0 24 24" fill="none" stroke="currentColor" stroke-width="2" stroke-linecap="round" stroke-linejoin="round" class="icon icon-tabler icons-tabler-outline icon-tabler-brand-sharik"><path d="M11.140 2.042 C 7.997 2.360,5.325 3.965,3.613 6.564 C 3.290 7.054,2.828 7.970,2.618 8.540 C 2.427 9.056,2.187 10.015,2.102 10.600 C 1.795 12.720,2.224 15.008,3.274 16.853 C 3.546 17.331,3.752 17.535,4.024 17.592 C 4.293 17.650,4.446 17.614,5.400 17.268 C 12.151 14.822,14.179 13.266,15.924 9.191 C 16.337 8.228,16.680 7.298,17.464 5.020 C 17.765 4.145,17.726 3.845,17.268 3.506 C 16.985 3.297,15.874 2.758,15.360 2.580 C 14.808 2.389,13.942 2.178,13.386 2.098 C 12.850 2.022,11.639 1.991,11.140 2.042 M12.783 4.043 C 13.537 4.116,14.442 4.344,15.108 4.628 L 15.435 4.767 15.163 5.554 C 14.294 8.063,13.705 9.394,12.993 10.462 C 12.086 11.821,10.803 12.815,8.680 13.801 C 7.416 14.388,4.823 15.399,4.755 15.331 C 4.695 15.271,4.450 14.640,4.342 14.264 C 3.915 12.785,3.901 11.328,4.301 9.841 C 4.565 8.860,5.099 7.828,5.781 6.980 C 6.994 5.472,8.796 4.424,10.700 4.120 C 11.477 3.996,12.073 3.973,12.783 4.043 M20.493 8.278 C 20.284 8.328,20.062 8.460,19.112 9.102 C 16.605 10.795,15.134 11.985,13.377 13.739 C 11.763 15.350,10.927 16.354,9.632 18.240 C 8.987 19.179,8.401 20.129,8.340 20.332 C 8.192 20.830,8.360 21.220,8.813 21.432 C 9.042 21.539,9.773 21.740,10.280 21.835 C 11.018 21.973,11.562 22.013,12.335 21.988 C 14.471 21.918,16.454 21.195,18.195 19.850 C 18.385 19.704,18.801 19.321,19.120 19.001 C 19.977 18.139,20.488 17.430,20.981 16.420 C 22.053 14.224,22.281 11.833,21.655 9.343 C 21.537 8.875,21.487 8.769,21.272 8.535 C 21.156 8.410,21.052 8.343,20.908 8.300 C 20.687 8.235,20.679 8.234,20.493 8.278 M19.937 11.067 C 19.951 11.103,19.973 11.414,19.986 11.757 C 20.039 13.128,19.729 14.504,19.096 15.712 C 18.720 16.429,18.371 16.906,17.761 17.534 C 17.045 18.272,16.391 18.748,15.500 19.181 C 14.728 19.555,14.134 19.746,13.240 19.906 C 12.826 19.981,11.459 20.007,11.109 19.947 L 10.918 19.915 11.345 19.287 C 13.420 16.240,15.832 13.845,19.260 11.425 C 19.590 11.193,19.872 11.002,19.886 11.001 C 19.900 11.000,19.923 11.030,19.937 11.067 " stroke="none" fill="black" fill-rule="evenodd"></path></svg>