<svg xmlns="http://www.w3.org/2000/svg" width="24" height="24" viewBox="0 0 24 24" fill="none" stroke="currentColor" stroke-width="2" stroke-linecap="round" stroke-linejoin="round" class="icon icon-tabler icons-tabler-outline icon-tabler-package"><path d="M11.645 2.003 C 11.593 2.024,11.485 2.093,11.405 2.156 C 11.195 2.323,3.934 6.403,3.720 6.475 C 3.464 6.561,3.153 6.882,3.056 7.161 C 2.982 7.373,2.981 7.535,3.000 12.100 C 3.022 17.327,3.000 16.913,3.277 17.191 C 3.343 17.257,5.148 18.295,7.288 19.499 C 9.429 20.703,11.216 21.720,11.260 21.759 C 11.456 21.934,11.608 21.980,12.000 21.980 C 12.392 21.980,12.544 21.934,12.740 21.759 C 12.784 21.720,14.539 20.721,16.640 19.541 C 18.741 18.360,20.523 17.350,20.600 17.298 C 20.762 17.186,20.906 16.988,20.959 16.802 C 20.981 16.725,20.999 14.744,21.002 11.973 L 21.007 7.275 20.901 7.059 C 20.781 6.812,20.492 6.538,20.298 6.484 C 20.131 6.438,16.841 4.595,16.606 4.416 C 16.510 4.343,16.369 4.263,16.292 4.237 C 16.109 4.177,12.782 2.304,12.596 2.157 C 12.516 2.094,12.403 2.024,12.343 2.001 C 12.210 1.950,11.774 1.952,11.645 2.003 M12.966 4.690 C 13.489 4.981,13.913 5.235,13.907 5.254 C 13.902 5.272,12.571 6.034,10.949 6.946 L 8.000 8.605 7.020 8.054 C 6.426 7.720,6.060 7.492,6.090 7.475 C 7.787 6.516,11.985 4.161,11.997 4.160 C 12.006 4.160,12.442 4.399,12.966 4.690 M16.995 6.959 C 17.523 7.256,17.951 7.502,17.947 7.506 C 17.890 7.564,12.010 10.839,11.979 10.831 C 11.875 10.804,10.082 9.777,10.091 9.749 C 10.103 9.711,15.970 6.402,16.008 6.413 C 16.023 6.417,16.467 6.663,16.995 6.959 M6.225 9.901 C 6.838 10.246,7.376 10.561,7.420 10.601 C 7.464 10.642,7.590 10.713,7.700 10.760 C 7.810 10.807,8.597 11.235,9.449 11.712 L 10.998 12.580 10.999 15.931 L 11.000 19.282 10.850 19.204 C 10.768 19.161,9.422 18.407,7.860 17.527 L 5.020 15.928 5.010 12.580 C 5.001 9.735,5.008 9.234,5.055 9.253 C 5.086 9.264,5.612 9.556,6.225 9.901 M18.990 12.584 L 18.980 15.928 16.140 17.527 C 14.578 18.407,13.232 19.161,13.150 19.204 L 13.000 19.282 13.001 15.931 L 13.002 12.580 15.971 10.911 C 17.604 9.994,18.954 9.242,18.970 9.241 C 18.987 9.241,18.996 10.745,18.990 12.584 " stroke="none" fill="black" fill-rule="evenodd"></path></svg>