<svg xmlns="http://www.w3.org/2000/svg" width="24" height="24" viewBox="0 0 24 24" fill="none" stroke="currentColor" stroke-width="2" stroke-linecap="round" stroke-linejoin="round" class="icon icon-tabler icons-tabler-outline icon-tabler-edit"><path d="M18.393 2.038 C 17.904 2.128,17.482 2.303,17.112 2.569 C 16.809 2.786,8.246 11.316,8.126 11.520 L 8.020 11.700 8.008 13.450 C 8.001 14.570,8.012 15.255,8.038 15.354 C 8.100 15.583,8.242 15.768,8.442 15.880 L 8.620 15.980 10.460 15.980 L 12.300 15.980 12.480 15.874 C 12.680 15.756,21.213 7.191,21.435 6.886 C 21.612 6.640,21.822 6.198,21.901 5.900 C 22.057 5.316,22.010 4.513,21.787 3.962 C 21.428 3.072,20.659 2.376,19.754 2.119 C 19.424 2.026,18.697 1.982,18.393 2.038 M19.243 4.064 C 19.705 4.201,20.044 4.722,19.987 5.207 C 19.948 5.534,19.834 5.716,19.394 6.150 L 18.979 6.560 18.209 5.789 L 17.440 5.019 17.875 4.585 C 18.235 4.226,18.348 4.138,18.525 4.077 C 18.792 3.985,18.964 3.982,19.243 4.064 M5.499 6.043 C 4.383 6.230,3.461 7.048,3.114 8.160 L 3.020 8.460 3.020 13.500 L 3.020 18.540 3.114 18.840 C 3.422 19.827,4.173 20.578,5.160 20.886 L 5.460 20.980 10.500 20.980 L 15.540 20.980 15.840 20.886 C 16.827 20.578,17.578 19.827,17.886 18.840 C 17.974 18.560,17.980 18.475,17.980 17.580 C 17.980 16.659,17.976 16.613,17.889 16.450 C 17.724 16.140,17.329 15.970,16.874 16.011 C 16.439 16.051,16.141 16.274,16.041 16.635 C 16.019 16.715,16.000 17.079,16.000 17.444 C 16.000 18.362,15.905 18.624,15.484 18.872 L 15.300 18.980 10.500 18.980 L 5.700 18.980 5.516 18.872 C 5.415 18.813,5.284 18.700,5.225 18.623 C 4.989 18.314,5.000 18.562,5.000 13.522 C 5.000 8.299,4.981 8.625,5.303 8.303 C 5.563 8.043,5.741 8.000,6.557 8.000 C 6.922 8.000,7.285 7.981,7.365 7.959 C 7.586 7.898,7.770 7.755,7.880 7.558 C 7.967 7.402,7.980 7.332,7.979 7.000 C 7.978 6.687,7.962 6.591,7.890 6.453 C 7.786 6.256,7.623 6.131,7.371 6.055 C 7.164 5.993,5.848 5.985,5.499 6.043 M16.800 7.220 L 17.580 8.000 14.580 11.000 L 11.580 14.000 10.790 14.000 L 10.000 14.000 10.000 13.210 L 10.000 12.420 12.990 9.430 C 14.634 7.786,15.989 6.440,16.000 6.440 C 16.012 6.440,16.371 6.791,16.800 7.220 " stroke="none" fill="black" fill-rule="evenodd"></path></svg>