<svg xmlns="http://www.w3.org/2000/svg" width="24" height="24" viewBox="0 0 24 24" fill="none" stroke="currentColor" stroke-width="2" stroke-linecap="round" stroke-linejoin="round" class="icon icon-tabler icons-tabler-outline icon-tabler-message-circle-plus"><path d="M10.720 3.058 C 8.206 3.382,6.036 4.438,4.419 6.125 C 4.024 6.537,3.591 7.094,3.303 7.558 C 1.713 10.129,1.587 13.147,2.958 15.790 L 3.193 16.242 2.612 17.971 C 2.082 19.547,2.030 19.726,2.025 20.000 C 2.019 20.386,2.160 20.706,2.410 20.872 C 2.721 21.077,2.863 21.061,5.359 20.525 L 7.579 20.049 7.908 20.182 C 9.142 20.680,10.462 20.950,11.760 20.970 C 12.280 20.978,12.310 20.974,12.530 20.866 C 12.709 20.779,12.785 20.712,12.870 20.567 C 12.970 20.397,12.980 20.344,12.980 19.980 C 12.980 19.616,12.970 19.563,12.870 19.393 C 12.696 19.096,12.475 19.011,11.800 18.980 C 10.503 18.920,9.399 18.670,8.358 18.201 C 8.158 18.111,7.918 18.027,7.823 18.014 C 7.693 17.996,7.269 18.072,6.103 18.319 C 5.251 18.500,4.547 18.641,4.538 18.631 C 4.529 18.622,4.680 18.139,4.874 17.557 C 5.068 16.976,5.250 16.404,5.278 16.288 C 5.346 16.007,5.295 15.828,5.010 15.348 C 4.580 14.622,4.368 14.125,4.205 13.460 C 4.078 12.941,4.036 12.574,4.036 11.980 C 4.036 11.386,4.078 11.019,4.205 10.500 C 4.820 7.992,6.978 5.977,9.820 5.259 C 10.651 5.048,11.273 4.986,12.260 5.012 C 13.684 5.050,14.654 5.278,15.860 5.857 C 17.737 6.758,19.111 8.260,19.697 10.048 C 19.919 10.726,19.967 11.047,19.995 12.040 C 20.017 12.846,20.029 12.957,20.104 13.100 C 20.346 13.563,21.259 13.707,21.669 13.347 C 21.937 13.112,21.977 12.959,21.993 12.105 C 22.020 10.708,21.759 9.559,21.122 8.275 C 19.942 5.896,17.562 4.040,14.787 3.337 C 13.861 3.102,13.295 3.033,12.180 3.018 C 11.461 3.008,11.010 3.020,10.720 3.058 M18.614 15.057 C 18.377 15.131,18.212 15.261,18.109 15.453 C 18.024 15.613,18.020 15.668,18.008 16.810 L 17.996 18.000 16.904 18.000 C 15.744 18.000,15.570 18.022,15.322 18.199 C 15.100 18.357,15.020 18.568,15.020 19.000 C 15.020 19.331,15.033 19.403,15.120 19.558 C 15.230 19.755,15.414 19.898,15.635 19.959 C 15.716 19.982,16.270 20.000,16.890 20.000 L 18.000 20.000 18.000 21.110 C 18.000 21.730,18.018 22.284,18.041 22.365 C 18.148 22.750,18.437 22.962,18.896 22.991 C 19.381 23.022,19.699 22.882,19.880 22.558 C 19.979 22.381,19.980 22.374,19.993 21.190 L 20.005 20.000 21.113 20.000 C 21.731 20.000,22.284 19.982,22.365 19.959 C 22.586 19.898,22.770 19.755,22.880 19.558 C 22.967 19.402,22.980 19.332,22.979 19.000 C 22.978 18.567,22.898 18.355,22.678 18.199 C 22.430 18.022,22.256 18.000,21.096 18.000 L 20.005 18.000 19.993 16.810 C 19.981 15.669,19.976 15.613,19.891 15.453 C 19.842 15.362,19.746 15.247,19.678 15.199 C 19.414 15.010,18.957 14.950,18.614 15.057 " stroke="none" fill="black" fill-rule="evenodd"></path></svg>