<svg xmlns="http://www.w3.org/2000/svg" width="24" height="24" viewBox="0 0 24 24" fill="none" stroke="currentColor" stroke-width="2" stroke-linecap="round" stroke-linejoin="round" class="icon icon-tabler icons-tabler-outline icon-tabler-tir"><path d="M11.614 4.056 C 11.376 4.132,11.212 4.262,11.109 4.453 L 11.020 4.620 11.009 7.810 L 10.998 11.000 6.905 11.000 C 2.523 11.000,2.606 10.996,2.322 11.199 C 2.254 11.247,2.158 11.362,2.109 11.453 L 2.020 11.620 2.020 14.580 L 2.020 17.540 2.114 17.840 C 2.422 18.827,3.174 19.579,4.160 19.886 C 4.594 20.021,5.407 20.021,5.839 19.886 C 6.351 19.726,6.743 19.491,7.107 19.127 L 7.234 19.000 11.000 19.000 L 14.766 19.000 14.893 19.127 C 15.257 19.491,15.649 19.726,16.161 19.886 C 16.412 19.965,16.546 19.979,17.000 19.979 C 17.454 19.979,17.588 19.965,17.839 19.886 C 18.351 19.726,18.743 19.491,19.107 19.127 L 19.234 19.000 20.227 19.000 C 20.773 19.000,21.285 18.981,21.365 18.959 C 21.586 18.898,21.770 18.755,21.880 18.558 L 21.980 18.380 21.993 15.000 C 22.001 12.764,21.990 11.451,21.961 11.120 C 21.848 9.832,21.536 8.675,21.018 7.620 C 20.077 5.705,18.698 4.513,16.939 4.093 C 16.698 4.035,16.332 4.025,14.220 4.015 C 12.271 4.005,11.747 4.014,11.614 4.056 M14.212 6.110 C 14.490 7.472,15.537 12.268,15.585 12.396 C 15.622 12.493,15.714 12.641,15.790 12.726 C 16.032 12.994,16.087 13.000,18.167 13.000 L 20.000 13.000 19.995 14.830 C 19.993 15.889,19.977 16.580,19.959 16.471 C 19.778 15.400,18.930 14.451,17.861 14.125 C 17.588 14.042,17.458 14.027,17.000 14.027 C 16.542 14.027,16.412 14.042,16.139 14.125 C 14.982 14.478,14.123 15.518,14.016 16.698 L 13.989 17.000 13.494 17.000 L 13.000 17.000 13.000 11.500 L 13.000 6.000 13.595 6.000 L 14.190 6.000 14.212 6.110 M16.691 6.099 C 16.991 6.178,17.480 6.426,17.784 6.655 C 18.645 7.302,19.397 8.553,19.738 9.904 C 19.827 10.257,19.920 10.763,19.920 10.891 L 19.920 11.001 18.612 10.991 L 17.303 10.980 16.893 9.060 C 16.668 8.004,16.431 6.893,16.366 6.590 L 16.250 6.040 16.356 6.040 C 16.415 6.040,16.566 6.067,16.691 6.099 M11.000 15.000 L 11.000 17.000 9.506 17.000 L 8.011 17.000 7.984 16.698 C 7.877 15.518,7.017 14.476,5.861 14.125 C 5.594 14.044,5.452 14.027,5.020 14.025 C 4.713 14.024,4.426 14.044,4.320 14.074 C 4.221 14.102,4.109 14.134,4.070 14.145 C 4.006 14.164,4.000 14.119,4.000 13.583 L 4.000 13.000 7.500 13.000 L 11.000 13.000 11.000 15.000 M5.334 16.064 C 5.698 16.188,6.000 16.613,6.000 17.001 C 6.000 17.331,5.784 17.696,5.484 17.872 C 5.328 17.963,5.254 17.980,5.000 17.980 C 4.746 17.980,4.672 17.963,4.516 17.872 C 3.937 17.531,3.833 16.774,4.301 16.306 C 4.587 16.019,4.952 15.934,5.334 16.064 M17.334 16.064 C 17.698 16.188,18.000 16.613,18.000 17.001 C 18.000 17.331,17.784 17.696,17.484 17.872 C 17.328 17.963,17.254 17.980,17.000 17.980 C 16.746 17.980,16.672 17.963,16.516 17.872 C 15.934 17.529,15.831 16.775,16.304 16.303 C 16.587 16.019,16.954 15.935,17.334 16.064 " stroke="none" fill="black" fill-rule="evenodd"></path></svg>