<svg xmlns="http://www.w3.org/2000/svg" width="24" height="24" viewBox="0 0 24 24" fill="none" stroke="currentColor" stroke-width="2" stroke-linecap="round" stroke-linejoin="round" class="icon icon-tabler icons-tabler-outline icon-tabler-macro-off"><path d="M2.626 2.045 C 2.420 2.154,2.146 2.433,2.038 2.644 C 1.924 2.868,1.924 3.132,2.040 3.363 C 2.101 3.485,2.769 4.184,4.178 5.600 L 6.228 7.660 6.338 7.980 C 6.922 9.674,8.326 11.078,10.020 11.662 C 10.309 11.761,10.372 11.803,10.670 12.095 L 11.000 12.418 11.000 14.254 L 11.000 16.090 10.710 15.833 C 9.363 14.639,7.842 14.040,6.120 14.024 C 5.580 14.020,5.414 14.067,5.214 14.286 C 4.999 14.521,4.945 15.075,5.059 15.886 C 5.383 18.192,6.714 20.114,8.722 21.175 C 11.281 22.527,14.331 22.190,16.557 20.311 C 16.839 20.073,17.401 19.479,17.588 19.220 L 17.675 19.100 19.068 20.485 C 19.995 21.408,20.519 21.901,20.637 21.960 C 20.989 22.137,21.354 22.048,21.701 21.701 C 22.048 21.354,22.137 20.989,21.960 20.637 C 21.866 20.453,20.800 19.370,15.628 14.205 L 13.009 11.590 12.992 11.105 C 12.978 10.705,12.959 10.590,12.887 10.450 C 12.783 10.251,12.577 10.104,12.308 10.037 C 12.119 9.990,11.732 10.004,11.587 10.062 C 11.527 10.086,10.768 9.346,7.587 6.167 C 5.427 4.009,3.615 2.209,3.560 2.168 C 3.264 1.942,2.910 1.895,2.626 2.045 M6.597 2.039 C 6.270 2.212,5.961 2.701,5.960 3.047 C 5.960 3.285,6.002 3.394,6.167 3.582 C 6.336 3.775,9.582 5.940,9.787 5.997 C 9.995 6.055,10.073 6.051,10.303 5.973 C 10.469 5.917,10.616 5.792,11.250 5.166 L 12.000 4.426 12.750 5.166 C 13.875 6.277,13.878 6.277,15.131 5.446 C 15.554 5.165,15.925 4.921,15.955 4.902 C 16.001 4.874,16.007 5.009,15.989 5.745 C 15.964 6.795,15.906 7.080,15.582 7.740 C 15.222 8.473,14.785 8.956,14.060 9.419 C 13.623 9.699,13.534 9.777,13.436 9.968 C 13.138 10.550,13.777 11.513,14.406 11.428 C 14.815 11.373,15.629 10.845,16.237 10.239 C 17.058 9.421,17.623 8.377,17.884 7.199 C 17.973 6.798,17.978 6.694,17.991 4.829 C 18.007 2.626,18.009 2.637,17.713 2.302 C 17.420 1.968,17.056 1.873,16.697 2.036 C 16.608 2.076,15.995 2.470,15.335 2.910 L 14.134 3.711 13.337 2.921 C 12.874 2.461,12.469 2.095,12.372 2.045 C 12.149 1.933,11.851 1.933,11.628 2.045 C 11.531 2.095,11.126 2.461,10.663 2.921 L 9.866 3.711 8.665 2.910 C 8.005 2.470,7.392 2.076,7.303 2.036 C 7.092 1.940,6.781 1.942,6.597 2.039 M13.879 15.319 C 13.878 15.331,13.793 15.403,13.691 15.480 C 13.588 15.557,13.390 15.726,13.252 15.855 L 13.000 16.089 13.000 15.255 L 13.000 14.421 13.440 14.860 C 13.682 15.101,13.879 15.308,13.879 15.319 M7.593 16.265 C 9.060 16.769,10.231 17.940,10.735 19.407 C 10.900 19.890,10.898 19.892,10.460 19.757 C 8.930 19.285,7.660 17.971,7.186 16.370 C 7.126 16.165,7.126 16.160,7.205 16.160 C 7.250 16.160,7.425 16.207,7.593 16.265 M16.173 17.758 C 15.871 18.230,15.312 18.800,14.834 19.124 C 14.501 19.350,13.932 19.625,13.517 19.761 C 13.317 19.826,13.147 19.880,13.139 19.880 C 13.131 19.880,13.161 19.750,13.205 19.590 C 13.306 19.224,13.618 18.565,13.868 18.192 C 14.127 17.804,14.632 17.277,15.017 16.991 L 15.334 16.755 15.786 17.206 L 16.238 17.657 16.173 17.758 " stroke="none" fill="black" fill-rule="evenodd"></path></svg>