<svg xmlns="http://www.w3.org/2000/svg" width="24" height="24" viewBox="0 0 24 24" fill="none" stroke="currentColor" stroke-width="2" stroke-linecap="round" stroke-linejoin="round" class="icon icon-tabler icons-tabler-outline icon-tabler-package-off"><path d="M2.626 2.045 C 2.257 2.239,1.951 2.673,1.951 3.000 C 1.951 3.334,2.056 3.466,3.364 4.781 L 4.599 6.021 4.189 6.246 C 3.964 6.369,3.728 6.482,3.665 6.497 C 3.482 6.540,3.144 6.908,3.056 7.161 C 2.982 7.373,2.981 7.535,3.000 12.100 C 3.022 17.327,3.000 16.913,3.277 17.191 C 3.343 17.257,5.148 18.295,7.288 19.499 C 9.429 20.703,11.216 21.720,11.260 21.759 C 11.456 21.935,11.608 21.980,12.000 21.980 C 12.396 21.980,12.525 21.938,12.800 21.721 C 12.855 21.677,13.953 21.049,15.240 20.325 L 17.580 19.008 19.020 20.439 C 19.981 21.395,20.519 21.901,20.637 21.960 C 20.989 22.137,21.354 22.048,21.701 21.701 C 22.048 21.355,22.137 20.990,21.961 20.637 C 21.885 20.486,18.837 17.395,12.747 11.293 C 8.533 7.070,3.506 2.111,3.372 2.044 C 3.152 1.934,2.835 1.935,2.626 2.045 M11.680 2.058 C 11.603 2.087,10.784 2.537,9.860 3.057 C 8.065 4.068,7.886 4.194,7.799 4.505 C 7.644 5.058,8.184 5.836,8.725 5.839 C 8.967 5.841,9.150 5.752,10.602 4.937 L 11.999 4.152 12.958 4.686 C 13.486 4.980,13.913 5.235,13.907 5.254 C 13.902 5.272,13.259 5.646,12.479 6.085 C 11.698 6.524,10.998 6.933,10.922 6.995 C 10.584 7.267,10.520 7.655,10.740 8.103 C 10.981 8.596,11.348 8.819,11.757 8.721 C 11.885 8.690,12.685 8.264,13.979 7.536 L 16.001 6.400 16.970 6.945 C 17.504 7.245,17.944 7.493,17.949 7.497 C 17.954 7.501,17.081 7.997,16.009 8.599 C 14.937 9.201,13.984 9.745,13.891 9.808 C 13.652 9.970,13.502 10.241,13.506 10.502 C 13.511 10.897,13.873 11.459,14.189 11.563 C 14.390 11.629,14.654 11.615,14.851 11.528 C 14.944 11.486,15.891 10.962,16.956 10.363 C 18.021 9.763,18.917 9.263,18.946 9.252 C 18.991 9.235,19.000 9.816,19.000 12.726 C 19.000 14.943,19.015 16.273,19.041 16.365 C 19.148 16.750,19.437 16.962,19.896 16.991 C 20.487 17.028,20.856 16.799,20.963 16.329 C 20.981 16.247,20.999 14.176,21.002 11.728 L 21.007 7.275 20.901 7.059 C 20.781 6.813,20.493 6.538,20.298 6.484 C 20.131 6.438,16.841 4.595,16.606 4.416 C 16.510 4.343,16.369 4.263,16.293 4.238 C 16.217 4.212,15.332 3.729,14.327 3.164 C 13.322 2.599,12.423 2.106,12.329 2.068 C 12.129 1.988,11.877 1.984,11.680 2.058 M6.225 9.901 C 6.838 10.246,7.376 10.561,7.420 10.601 C 7.464 10.642,7.590 10.713,7.700 10.760 C 7.810 10.807,8.597 11.235,9.449 11.712 L 10.998 12.580 10.999 15.931 L 11.000 19.282 10.850 19.204 C 10.768 19.161,9.422 18.407,7.860 17.527 L 5.020 15.928 5.010 12.580 C 5.001 9.735,5.008 9.234,5.055 9.253 C 5.086 9.264,5.612 9.556,6.225 9.901 M16.108 17.543 C 16.089 17.559,13.239 19.159,13.125 19.217 L 13.000 19.282 13.000 16.851 L 13.000 14.420 14.558 15.978 C 15.416 16.835,16.113 17.540,16.108 17.543 " stroke="none" fill="black" fill-rule="evenodd"></path></svg>