<svg xmlns="http://www.w3.org/2000/svg" width="24" height="24" viewBox="0 0 24 24" fill="none" stroke="currentColor" stroke-width="2" stroke-linecap="round" stroke-linejoin="round" class="icon icon-tabler icons-tabler-outline icon-tabler-settings-off"><path d="M2.626 2.045 C 2.257 2.239,1.951 2.673,1.951 3.000 C 1.951 3.329,2.062 3.472,3.242 4.660 L 4.355 5.780 4.302 5.903 C 4.207 6.125,4.120 6.590,4.121 6.868 C 4.122 7.273,4.211 7.624,4.437 8.110 C 4.656 8.580,4.674 8.682,4.578 8.911 C 4.476 9.155,4.330 9.275,4.021 9.367 C 2.978 9.677,2.274 10.426,2.063 11.448 C 1.882 12.332,2.134 13.228,2.752 13.889 C 3.072 14.232,3.481 14.474,3.986 14.620 C 4.282 14.705,4.468 14.846,4.563 15.055 C 4.676 15.302,4.659 15.413,4.437 15.890 C 4.326 16.130,4.209 16.446,4.178 16.593 C 4.070 17.101,4.122 17.639,4.329 18.160 C 4.585 18.806,5.194 19.415,5.840 19.671 C 6.621 19.981,7.299 19.942,8.161 19.539 C 8.585 19.341,8.701 19.326,8.945 19.437 C 9.154 19.532,9.295 19.718,9.380 20.014 C 9.526 20.519,9.768 20.928,10.111 21.248 C 11.035 22.111,12.413 22.241,13.480 21.564 C 14.048 21.204,14.423 20.694,14.620 20.014 C 14.705 19.718,14.846 19.532,15.055 19.437 C 15.292 19.329,15.424 19.342,15.761 19.504 C 16.333 19.780,16.680 19.876,17.112 19.879 C 17.406 19.880,17.868 19.795,18.097 19.698 L 18.220 19.645 19.340 20.758 C 20.066 21.479,20.522 21.902,20.637 21.960 C 20.989 22.137,21.354 22.048,21.701 21.701 C 22.047 21.355,22.136 20.990,21.961 20.637 C 21.839 20.392,3.616 2.165,3.372 2.044 C 3.152 1.934,2.834 1.935,2.626 2.045 M11.579 2.039 C 10.582 2.179,9.723 2.907,9.420 3.866 C 9.284 4.296,9.209 4.410,8.944 4.579 C 8.389 4.935,8.283 5.287,8.556 5.864 C 8.689 6.147,8.983 6.426,9.187 6.464 C 9.748 6.569,10.589 6.006,11.030 5.231 C 11.081 5.140,11.179 4.906,11.248 4.711 C 11.393 4.294,11.476 4.176,11.697 4.076 C 11.904 3.982,12.096 3.982,12.300 4.075 C 12.531 4.181,12.590 4.265,12.760 4.735 C 12.941 5.234,13.129 5.534,13.462 5.860 C 13.766 6.156,14.120 6.369,14.540 6.508 C 14.809 6.597,14.933 6.614,15.320 6.615 C 15.859 6.617,16.148 6.551,16.603 6.320 C 16.968 6.135,17.146 6.096,17.338 6.159 C 17.633 6.257,17.877 6.574,17.879 6.863 C 17.880 6.931,17.800 7.148,17.703 7.345 C 17.445 7.868,17.382 8.133,17.386 8.680 C 17.388 9.062,17.406 9.194,17.493 9.460 C 17.785 10.357,18.411 10.964,19.368 11.277 C 19.696 11.385,19.828 11.484,19.924 11.697 C 20.018 11.904,20.018 12.097,19.924 12.300 C 19.818 12.530,19.695 12.626,19.379 12.723 C 18.562 12.975,17.899 13.542,17.615 14.233 C 17.450 14.634,17.501 14.937,17.778 15.206 C 18.153 15.569,18.736 15.694,19.055 15.480 C 19.137 15.425,19.285 15.259,19.384 15.111 C 19.598 14.792,19.703 14.710,20.015 14.620 C 20.844 14.379,21.459 13.838,21.788 13.060 C 21.902 12.793,22.000 12.300,22.000 12.000 C 22.000 11.866,21.971 11.618,21.937 11.448 C 21.727 10.428,21.071 9.723,20.017 9.383 C 19.665 9.269,19.525 9.158,19.422 8.911 C 19.326 8.682,19.344 8.580,19.563 8.110 C 19.674 7.870,19.791 7.554,19.822 7.407 C 20.073 6.223,19.453 4.968,18.350 4.425 C 17.504 4.010,16.701 4.027,15.813 4.481 C 15.463 4.660,15.305 4.677,15.055 4.563 C 14.846 4.468,14.705 4.282,14.620 3.986 C 14.394 3.203,13.934 2.650,13.224 2.305 C 13.024 2.208,12.779 2.109,12.680 2.086 C 12.413 2.025,11.853 2.001,11.579 2.039 M8.419 10.234 C 7.245 12.650,8.694 15.478,11.344 15.940 C 12.158 16.081,12.989 15.958,13.766 15.581 L 14.032 15.451 15.026 16.448 C 15.979 17.404,16.013 17.444,15.860 17.413 C 15.595 17.361,14.959 17.383,14.680 17.454 C 13.739 17.695,13.050 18.369,12.722 19.371 C 12.578 19.810,12.360 20.000,12.000 20.000 C 11.640 20.000,11.422 19.810,11.278 19.371 C 10.963 18.411,10.355 17.783,9.460 17.494 C 9.203 17.411,9.054 17.390,8.700 17.385 C 8.165 17.379,7.955 17.428,7.386 17.690 C 7.014 17.862,6.928 17.887,6.773 17.869 C 6.549 17.844,6.332 17.679,6.210 17.439 C 6.085 17.194,6.097 17.060,6.276 16.696 C 6.560 16.120,6.667 15.657,6.626 15.183 C 6.523 13.983,5.780 13.076,4.610 12.720 C 4.284 12.621,4.116 12.470,4.037 12.205 C 3.911 11.786,4.130 11.440,4.620 11.280 C 5.587 10.966,6.218 10.357,6.505 9.460 C 6.615 9.118,6.653 8.528,6.589 8.160 L 6.557 7.980 7.553 8.974 L 8.549 9.968 8.419 10.234 M12.945 8.297 C 12.579 8.431,12.264 8.933,12.261 9.387 C 12.259 9.738,12.390 9.912,12.870 10.200 C 13.344 10.484,13.518 10.658,13.786 11.110 C 14.026 11.516,14.170 11.651,14.441 11.723 C 14.592 11.764,14.658 11.760,14.860 11.703 C 15.324 11.569,15.636 11.312,15.722 10.991 C 15.783 10.767,15.720 10.483,15.532 10.126 C 15.131 9.367,14.517 8.779,13.751 8.421 C 13.400 8.256,13.157 8.219,12.945 8.297 M11.298 12.718 C 11.957 13.378,12.485 13.928,12.472 13.941 C 12.459 13.955,12.314 13.976,12.150 13.988 C 10.912 14.082,9.886 13.021,10.018 11.784 C 10.034 11.639,10.059 11.520,10.073 11.520 C 10.088 11.520,10.640 12.059,11.298 12.718 " stroke="none" fill="black" fill-rule="evenodd"></path></svg>