<svg xmlns="http://www.w3.org/2000/svg" width="24" height="24" viewBox="0 0 24 24" fill="none" stroke="currentColor" stroke-width="2" stroke-linecap="round" stroke-linejoin="round" class="icon icon-tabler icons-tabler-outline icon-tabler-file-percent"><path d="M6.499 2.043 C 5.383 2.230,4.461 3.048,4.114 4.160 L 4.020 4.460 4.020 12.000 L 4.020 19.540 4.114 19.840 C 4.422 20.827,5.173 21.578,6.160 21.886 L 6.460 21.980 12.000 21.980 L 17.540 21.980 17.840 21.886 C 18.827 21.578,19.578 20.827,19.886 19.840 L 19.980 19.540 19.980 13.580 L 19.980 7.620 19.890 7.452 C 19.841 7.360,19.724 7.231,19.630 7.165 C 19.498 7.073,15.263 2.838,14.719 2.254 C 14.473 1.991,14.626 2.000,10.463 2.005 C 8.393 2.007,6.609 2.025,6.499 2.043 M13.000 5.632 C 13.000 7.399,13.010 7.507,13.225 7.930 C 13.361 8.199,13.801 8.639,14.070 8.775 C 14.493 8.990,14.601 9.000,16.368 9.000 L 18.000 9.000 18.000 14.054 C 18.000 18.220,17.990 19.139,17.945 19.290 C 17.872 19.533,17.707 19.740,17.484 19.872 L 17.300 19.980 12.000 19.980 L 6.700 19.980 6.516 19.872 C 6.415 19.813,6.284 19.700,6.225 19.623 C 5.986 19.309,6.000 19.795,6.000 12.022 C 6.000 4.005,5.975 4.631,6.304 4.303 C 6.613 3.994,6.464 4.006,9.930 4.003 L 13.000 4.000 13.000 5.632 M15.800 6.220 L 16.579 7.000 15.790 7.000 L 15.000 7.000 15.000 6.220 C 15.000 5.791,15.005 5.440,15.010 5.440 C 15.016 5.440,15.371 5.791,15.800 6.220 M13.620 12.046 C 13.385 12.167,9.154 16.408,9.039 16.637 C 8.863 16.990,8.952 17.355,9.299 17.701 C 9.645 18.048,10.010 18.137,10.363 17.961 C 10.612 17.836,14.836 13.612,14.961 13.363 C 15.137 13.010,15.048 12.645,14.701 12.299 C 14.361 11.959,13.968 11.867,13.620 12.046 M9.614 12.055 C 9.220 12.184,9.039 12.437,9.009 12.900 C 8.978 13.381,9.119 13.699,9.442 13.880 C 9.597 13.967,9.669 13.980,10.000 13.980 C 10.312 13.980,10.408 13.964,10.540 13.894 C 10.866 13.718,11.000 13.459,11.000 13.000 C 11.000 12.357,10.713 12.048,10.083 12.016 C 9.893 12.006,9.718 12.021,9.614 12.055 M13.614 16.055 C 13.220 16.184,13.039 16.437,13.009 16.900 C 12.978 17.381,13.119 17.699,13.442 17.880 C 13.597 17.967,13.669 17.980,14.000 17.980 C 14.312 17.980,14.408 17.964,14.540 17.894 C 14.866 17.718,15.000 17.459,15.000 17.000 C 15.000 16.357,14.713 16.048,14.083 16.016 C 13.893 16.006,13.718 16.021,13.614 16.055 " stroke="none" fill="black" fill-rule="evenodd"></path></svg>