<svg xmlns="http://www.w3.org/2000/svg" width="24" height="24" viewBox="0 0 24 24" fill="none" stroke="currentColor" stroke-width="2" stroke-linecap="round" stroke-linejoin="round" class="icon icon-tabler icons-tabler-outline icon-tabler-building-skyscraper"><path d="M12.780 2.016 C 12.692 2.044,10.764 2.996,8.495 4.132 C 4.025 6.368,4.161 6.291,4.046 6.674 C 4.012 6.789,4.000 8.533,4.000 13.415 L 4.000 20.000 3.406 20.000 C 2.577 20.000,2.300 20.097,2.109 20.453 C 2.035 20.592,2.020 20.684,2.020 21.000 C 2.020 21.331,2.033 21.403,2.120 21.558 C 2.230 21.755,2.414 21.898,2.635 21.959 C 2.835 22.015,21.165 22.015,21.365 21.959 C 21.586 21.898,21.770 21.755,21.880 21.558 C 21.967 21.402,21.980 21.332,21.979 21.000 C 21.978 20.687,21.962 20.591,21.890 20.453 C 21.702 20.097,21.424 20.000,20.594 20.000 L 20.000 20.000 20.000 15.425 C 20.000 10.496,20.008 10.692,19.796 10.395 C 19.746 10.324,18.557 9.506,16.856 8.371 L 14.000 6.466 14.000 4.655 C 14.000 2.947,13.995 2.831,13.921 2.632 C 13.719 2.092,13.281 1.856,12.780 2.016 M11.999 12.320 L 12.001 20.000 9.001 20.000 L 6.000 20.000 6.000 13.810 L 6.000 7.620 8.970 6.132 C 10.603 5.314,11.953 4.643,11.968 4.642 C 11.984 4.641,11.997 8.096,11.999 12.320 M8.614 8.057 C 8.221 8.180,8.039 8.435,8.009 8.906 C 7.962 9.621,8.306 10.000,9.000 10.000 C 9.698 10.000,10.043 9.616,9.989 8.900 C 9.963 8.563,9.859 8.327,9.678 8.199 C 9.414 8.010,8.957 7.950,8.614 8.057 M16.110 10.274 L 18.000 11.533 18.000 15.767 L 18.000 20.000 16.000 20.000 L 14.000 20.000 14.000 14.435 L 14.000 8.871 14.110 8.942 C 14.171 8.982,15.070 9.581,16.110 10.274 M8.614 11.057 C 8.221 11.180,8.039 11.435,8.009 11.906 C 7.962 12.621,8.306 13.000,9.000 13.000 C 9.698 13.000,10.043 12.616,9.989 11.900 C 9.963 11.563,9.859 11.327,9.678 11.199 C 9.414 11.010,8.957 10.950,8.614 11.057 M8.614 14.057 C 8.221 14.180,8.039 14.435,8.009 14.906 C 7.962 15.621,8.306 16.000,9.000 16.000 C 9.698 16.000,10.043 15.616,9.989 14.900 C 9.963 14.563,9.859 14.327,9.678 14.199 C 9.414 14.010,8.957 13.950,8.614 14.057 M8.614 17.057 C 8.221 17.180,8.039 17.435,8.009 17.906 C 7.962 18.621,8.306 19.000,9.000 19.000 C 9.698 19.000,10.043 18.616,9.989 17.900 C 9.963 17.563,9.859 17.327,9.678 17.199 C 9.414 17.010,8.957 16.950,8.614 17.057 " stroke="none" fill="black" fill-rule="evenodd"></path></svg>