<svg xmlns="http://www.w3.org/2000/svg" width="24" height="24" viewBox="0 0 24 24" fill="none" stroke="currentColor" stroke-width="2" stroke-linecap="round" stroke-linejoin="round" class="icon icon-tabler icons-tabler-outline icon-tabler-sword"><path d="M14.699 3.056 C 14.611 3.083,14.487 3.140,14.424 3.181 C 14.362 3.222,12.870 5.107,11.110 7.370 L 7.911 11.484 7.465 11.050 C 6.969 10.567,6.796 10.461,6.500 10.461 C 6.245 10.461,6.033 10.565,5.788 10.809 C 5.451 11.144,5.362 11.485,5.520 11.833 C 5.568 11.938,5.791 12.202,6.087 12.504 L 6.576 13.002 4.852 14.731 C 3.679 15.908,3.100 16.517,3.040 16.637 C 2.924 16.868,2.924 17.131,3.039 17.363 C 3.163 17.610,6.390 20.837,6.637 20.961 C 6.869 21.076,7.132 21.076,7.363 20.960 C 7.483 20.900,8.092 20.321,9.268 19.148 L 10.997 17.425 11.511 17.926 C 12.085 18.486,12.258 18.586,12.584 18.550 C 12.995 18.503,13.511 17.978,13.550 17.565 C 13.579 17.264,13.459 17.056,12.950 16.535 L 12.516 16.090 16.647 12.875 C 20.457 9.909,20.785 9.645,20.879 9.461 L 20.980 9.262 20.980 6.441 L 20.980 3.620 20.891 3.453 C 20.785 3.256,20.622 3.131,20.371 3.055 C 20.115 2.978,14.945 2.979,14.699 3.056 M19.000 6.757 L 19.000 8.513 15.062 11.577 C 12.895 13.262,11.109 14.640,11.091 14.640 C 11.036 14.640,9.349 12.931,9.365 12.892 C 9.373 12.871,10.755 11.087,12.435 8.927 L 15.491 5.000 17.245 5.000 L 19.000 5.000 19.000 6.757 M8.800 15.220 L 9.580 16.000 8.290 17.290 L 7.000 18.580 6.210 17.790 L 5.420 17.000 6.700 15.720 C 7.404 15.016,7.989 14.440,8.000 14.440 C 8.011 14.440,8.371 14.791,8.800 15.220 " stroke="none" fill="black" fill-rule="evenodd"></path></svg>