<svg xmlns="http://www.w3.org/2000/svg" width="24" height="24" viewBox="0 0 24 24" fill="none" stroke="currentColor" stroke-width="2" stroke-linecap="round" stroke-linejoin="round" class="icon icon-tabler icons-tabler-outline icon-tabler-arrows-random"><path d="M15.780 2.493 C 15.468 2.616,15.156 2.885,15.024 3.148 C 14.928 3.340,14.942 3.629,15.060 3.862 C 15.115 3.971,15.824 4.870,16.635 5.860 C 17.853 7.346,18.095 7.662,18.025 7.670 C 17.978 7.676,17.602 7.638,17.189 7.586 C 16.350 7.481,16.125 7.493,15.879 7.656 C 15.697 7.776,15.570 8.024,15.513 8.371 C 15.430 8.872,15.641 9.271,16.068 9.416 C 16.173 9.452,17.123 9.590,18.180 9.721 C 19.236 9.853,20.149 9.981,20.208 10.005 C 20.360 10.066,20.555 10.059,20.816 9.983 C 21.089 9.903,21.268 9.753,21.420 9.474 C 21.515 9.298,21.537 9.207,21.545 8.941 C 21.551 8.764,21.657 7.819,21.781 6.840 C 22.032 4.861,22.038 4.662,21.862 4.395 C 21.694 4.142,21.398 4.022,20.937 4.021 C 20.605 4.020,20.560 4.030,20.404 4.133 C 20.123 4.318,20.054 4.525,19.917 5.586 C 19.853 6.085,19.794 6.500,19.785 6.509 C 19.776 6.517,19.092 5.697,18.265 4.686 C 17.438 3.675,16.678 2.774,16.575 2.684 C 16.314 2.454,16.045 2.389,15.780 2.493 M4.620 3.035 C 4.532 3.075,4.396 3.178,4.318 3.265 C 4.240 3.352,3.755 4.160,3.241 5.062 C 2.726 5.963,2.247 6.769,2.175 6.854 C 1.961 7.108,1.892 7.632,2.037 7.912 C 2.171 8.172,2.388 8.389,2.590 8.464 C 2.695 8.503,3.536 8.967,4.460 9.494 C 5.384 10.021,6.221 10.478,6.320 10.509 C 6.515 10.569,6.743 10.552,6.914 10.463 C 7.308 10.258,7.623 9.624,7.521 9.243 C 7.443 8.953,7.230 8.774,6.402 8.299 C 5.983 8.059,5.640 7.852,5.640 7.840 C 5.640 7.828,6.652 7.542,7.890 7.204 C 9.127 6.867,10.221 6.556,10.320 6.514 C 10.702 6.348,10.859 6.088,10.831 5.662 C 10.802 5.216,10.602 4.848,10.303 4.692 C 10.043 4.556,9.821 4.600,7.420 5.258 C 6.168 5.601,5.132 5.877,5.116 5.871 C 5.101 5.865,5.261 5.563,5.471 5.200 C 5.921 4.421,6.038 4.160,6.039 3.929 C 6.040 3.682,5.959 3.523,5.724 3.311 C 5.369 2.992,4.946 2.886,4.620 3.035 M7.600 14.038 C 7.501 14.082,6.583 14.326,5.560 14.580 C 3.465 15.101,3.267 15.172,3.096 15.463 C 2.846 15.890,3.056 16.677,3.483 16.917 C 3.736 17.059,3.978 17.037,4.995 16.782 C 5.487 16.658,5.896 16.563,5.903 16.570 C 5.910 16.577,5.379 17.505,4.722 18.631 C 3.435 20.839,3.389 20.937,3.483 21.272 C 3.589 21.649,4.085 22.005,4.540 22.030 C 4.837 22.046,5.031 21.947,5.239 21.671 C 5.316 21.568,5.871 20.641,6.471 19.612 C 7.071 18.582,7.577 17.716,7.595 17.687 C 7.616 17.653,7.713 17.973,7.859 18.557 C 8.114 19.579,8.195 19.755,8.482 19.916 C 8.692 20.035,9.045 20.038,9.372 19.924 C 9.649 19.827,9.790 19.724,9.910 19.527 C 10.076 19.255,10.048 19.069,9.520 16.960 C 9.256 15.905,9.040 14.979,9.040 14.903 C 9.040 14.717,8.990 14.598,8.812 14.360 C 8.625 14.109,8.414 14.002,8.053 13.977 C 7.836 13.961,7.743 13.974,7.600 14.038 M20.620 15.046 C 20.525 15.095,19.754 15.833,18.733 16.850 L 17.006 18.572 16.993 17.596 C 16.981 16.677,16.975 16.610,16.891 16.453 C 16.689 16.076,16.138 15.902,15.629 16.055 C 15.378 16.131,15.215 16.256,15.109 16.453 C 15.021 16.618,15.020 16.649,14.993 18.780 C 14.977 19.968,14.964 20.999,14.963 21.071 C 14.960 21.224,15.153 21.669,15.265 21.768 C 15.389 21.878,15.792 22.041,15.931 22.038 C 16.002 22.036,17.032 22.023,18.220 22.007 C 20.223 21.982,20.390 21.975,20.520 21.905 C 20.876 21.715,20.978 21.514,20.978 21.000 C 20.978 20.567,20.899 20.356,20.678 20.199 C 20.439 20.028,20.243 20.000,19.305 20.000 L 18.422 20.000 20.147 18.270 C 21.321 17.092,21.900 16.483,21.960 16.363 C 22.137 16.011,22.048 15.646,21.701 15.299 C 21.361 14.959,20.967 14.867,20.620 15.046 " stroke="none" fill="black" fill-rule="evenodd"></path></svg>