<svg xmlns="http://www.w3.org/2000/svg" width="24" height="24" viewBox="0 0 24 24" fill="none" stroke="currentColor" stroke-width="2" stroke-linecap="round" stroke-linejoin="round" class="icon icon-tabler icons-tabler-outline icon-tabler-world-dollar"><path d="M11.153 2.011 C 11.102 2.031,10.862 2.073,10.620 2.105 C 7.086 2.574,4.004 4.998,2.700 8.335 C 1.833 10.550,1.773 12.935,2.525 15.180 C 3.575 18.311,6.077 20.698,9.272 21.618 C 9.535 21.693,9.973 21.793,10.245 21.838 C 10.517 21.884,10.839 21.942,10.960 21.967 C 11.366 22.050,13.067 21.987,13.443 21.874 C 13.667 21.807,13.901 21.592,13.983 21.379 C 14.035 21.242,14.046 21.128,14.029 20.907 C 13.984 20.302,13.710 19.977,13.229 19.957 C 13.136 19.953,12.835 19.963,12.560 19.979 L 12.060 20.009 11.734 19.375 C 11.209 18.353,10.912 17.624,10.597 16.580 C 10.511 16.294,10.440 16.047,10.440 16.030 C 10.440 16.014,11.175 16.000,12.073 16.000 C 13.893 16.000,14.000 15.988,14.229 15.751 C 14.418 15.556,14.486 15.355,14.486 14.997 C 14.486 14.491,14.303 14.196,13.909 14.064 C 13.744 14.009,13.457 14.000,11.884 14.000 L 10.050 14.000 10.027 13.810 C 10.014 13.706,9.982 13.255,9.954 12.810 C 9.907 12.040,9.938 10.918,10.027 10.190 L 10.050 10.000 12.001 10.000 L 13.951 10.000 13.977 10.250 C 14.027 10.729,14.078 11.542,14.079 11.883 C 14.082 12.681,14.376 13.011,15.083 13.008 C 15.802 13.005,16.080 12.675,16.080 11.822 C 16.080 11.387,16.013 10.245,15.979 10.090 L 15.958 10.000 17.854 10.000 L 19.750 10.000 19.838 10.430 C 20.006 11.251,20.242 11.520,20.793 11.520 C 21.130 11.520,21.441 11.403,21.643 11.201 C 21.917 10.927,21.942 10.695,21.780 9.926 C 21.304 7.671,20.053 5.646,18.240 4.193 C 16.828 3.062,15.030 2.302,13.247 2.083 C 13.065 2.060,12.894 2.029,12.868 2.013 C 12.800 1.971,11.263 1.970,11.153 2.011 M12.291 4.670 C 12.765 5.591,13.104 6.429,13.398 7.403 C 13.487 7.698,13.560 7.954,13.560 7.970 C 13.560 7.987,12.858 8.000,12.000 8.000 C 11.142 8.000,10.440 7.987,10.440 7.970 C 10.440 7.909,10.759 6.887,10.896 6.508 C 11.169 5.754,11.918 4.160,12.000 4.160 C 12.016 4.160,12.147 4.389,12.291 4.670 M9.356 4.964 C 9.079 5.618,8.615 6.993,8.480 7.560 C 8.430 7.769,8.377 7.954,8.362 7.970 C 8.347 7.987,7.600 7.996,6.701 7.990 L 5.068 7.980 5.339 7.580 C 6.141 6.396,7.129 5.514,8.364 4.880 C 8.732 4.691,9.563 4.350,9.590 4.376 C 9.596 4.382,9.491 4.647,9.356 4.964 M15.420 4.777 C 16.811 5.437,18.080 6.575,18.824 7.830 L 18.925 8.001 17.276 7.990 L 15.627 7.980 15.493 7.460 C 15.313 6.760,14.940 5.667,14.643 4.964 C 14.510 4.648,14.400 4.383,14.400 4.375 C 14.400 4.343,15.017 4.586,15.420 4.777 M8.021 10.090 C 7.981 10.271,7.920 11.422,7.920 12.000 C 7.920 12.578,7.981 13.729,8.021 13.910 L 8.042 14.000 6.144 14.000 L 4.247 14.000 4.201 13.790 C 4.070 13.185,4.027 12.744,4.024 12.000 C 4.021 11.237,4.047 10.971,4.186 10.310 L 4.252 10.000 6.147 10.000 L 8.042 10.000 8.021 10.090 M18.614 13.057 C 18.250 13.171,18.061 13.411,18.008 13.826 L 17.980 14.049 17.759 14.118 C 17.003 14.351,16.361 14.979,16.118 15.722 C 16.034 15.976,16.020 16.094,16.022 16.520 C 16.024 16.960,16.038 17.056,16.133 17.320 C 16.394 18.039,16.964 18.609,17.680 18.867 C 17.961 18.968,18.033 18.976,18.800 18.992 C 19.702 19.010,19.786 19.030,19.922 19.252 C 20.021 19.415,20.021 19.585,19.922 19.748 C 19.770 19.997,19.750 20.000,18.208 20.000 C 16.724 20.000,16.580 20.015,16.322 20.199 C 16.100 20.357,16.020 20.568,16.020 21.000 C 16.020 21.331,16.033 21.403,16.120 21.558 C 16.230 21.755,16.414 21.898,16.635 21.959 C 16.715 21.981,17.052 22.000,17.384 22.000 L 17.989 22.000 18.013 22.203 C 18.074 22.715,18.426 23.000,19.000 23.000 C 19.582 23.000,19.923 22.720,19.984 22.193 L 20.010 21.966 20.294 21.873 C 21.001 21.642,21.605 21.046,21.868 20.320 C 21.965 20.052,21.976 19.965,21.976 19.500 C 21.976 19.035,21.965 18.948,21.868 18.680 C 21.646 18.068,21.195 17.561,20.620 17.277 C 20.172 17.055,19.869 17.002,19.068 17.001 C 18.319 17.000,18.216 16.974,18.078 16.748 C 17.979 16.585,17.979 16.415,18.078 16.252 C 18.230 16.003,18.249 16.000,19.808 16.000 C 20.630 16.000,21.280 15.983,21.365 15.959 C 21.586 15.898,21.770 15.755,21.880 15.558 C 21.967 15.402,21.980 15.332,21.979 15.000 C 21.978 14.687,21.962 14.591,21.890 14.453 C 21.702 14.098,21.423 14.000,20.599 14.000 L 20.010 14.000 19.983 13.794 C 19.948 13.531,19.835 13.310,19.678 13.199 C 19.414 13.010,18.957 12.950,18.614 13.057 M8.507 16.540 C 8.687 17.240,9.060 18.334,9.357 19.036 C 9.491 19.353,9.596 19.618,9.590 19.624 C 9.566 19.648,8.754 19.319,8.400 19.141 C 7.116 18.497,5.880 17.358,5.176 16.170 L 5.075 15.999 6.724 16.010 L 8.373 16.020 8.507 16.540 " stroke="none" fill="black" fill-rule="evenodd"></path></svg>