<svg xmlns="http://www.w3.org/2000/svg" width="24" height="24" viewBox="0 0 24 24" fill="none" stroke="currentColor" stroke-width="2" stroke-linecap="round" stroke-linejoin="round" class="icon icon-tabler icons-tabler-outline icon-tabler-crutches-off"><path d="M2.626 2.045 C 2.420 2.154,2.146 2.433,2.038 2.644 C 1.924 2.867,1.924 3.132,2.039 3.363 C 2.102 3.488,3.131 4.545,5.561 6.980 L 8.995 10.420 9.011 11.580 C 9.025 12.604,9.037 12.776,9.111 13.047 C 9.270 13.626,9.441 13.956,10.093 14.937 C 10.444 15.467,10.772 15.992,10.823 16.104 C 10.981 16.460,11.000 16.698,11.000 18.378 L 11.000 19.982 10.756 20.028 C 10.450 20.086,10.227 20.232,10.111 20.450 C 10.035 20.592,10.020 20.682,10.020 21.000 C 10.020 21.331,10.033 21.403,10.120 21.558 C 10.230 21.755,10.414 21.898,10.635 21.959 C 10.826 22.012,13.174 22.012,13.365 21.959 C 13.586 21.898,13.770 21.755,13.880 21.558 C 13.967 21.402,13.980 21.332,13.979 21.000 C 13.978 20.685,13.963 20.591,13.888 20.450 C 13.773 20.231,13.551 20.086,13.241 20.028 L 12.995 19.981 13.008 18.240 C 13.020 16.555,13.023 16.493,13.109 16.264 C 13.189 16.051,13.501 15.515,13.686 15.273 L 13.757 15.180 17.108 18.526 C 19.479 20.893,20.512 21.898,20.637 21.961 C 20.990 22.137,21.355 22.048,21.701 21.701 C 22.048 21.355,22.137 20.990,21.961 20.637 C 21.897 20.511,20.434 19.016,16.853 15.420 C 14.093 12.648,11.795 10.340,11.747 10.290 C 11.699 10.241,11.480 10.022,11.260 9.803 C 11.040 9.585,10.815 9.360,10.760 9.305 C 7.595 6.130,3.505 2.111,3.372 2.044 C 3.152 1.934,2.835 1.935,2.626 2.045 M9.540 2.043 C 8.706 2.165,7.869 2.731,7.431 3.469 C 6.951 4.278,7.078 4.794,7.837 5.106 C 8.258 5.279,8.676 5.202,8.892 4.910 C 8.945 4.839,9.040 4.684,9.103 4.566 C 9.238 4.313,9.428 4.145,9.675 4.061 C 9.942 3.970,14.004 3.970,14.310 4.061 C 14.688 4.173,15.000 4.598,15.000 5.001 C 15.000 5.331,14.784 5.696,14.484 5.872 L 14.300 5.980 12.479 6.000 L 10.658 6.020 10.459 6.122 C 10.119 6.297,9.978 6.606,10.009 7.104 C 10.038 7.563,10.250 7.852,10.635 7.959 C 10.716 7.982,11.270 8.000,11.890 8.000 L 13.000 8.000 13.000 9.110 C 13.000 9.730,13.018 10.284,13.041 10.365 C 13.148 10.750,13.437 10.962,13.896 10.991 C 14.381 11.022,14.699 10.882,14.880 10.558 C 14.979 10.381,14.980 10.373,15.000 9.113 L 15.020 7.845 15.340 7.684 C 16.072 7.314,16.637 6.640,16.886 5.840 C 17.021 5.406,17.021 4.594,16.886 4.160 C 16.582 3.182,15.829 2.425,14.861 2.122 L 14.540 2.022 12.160 2.015 C 10.851 2.011,9.672 2.024,9.540 2.043 M12.171 13.946 C 12.093 14.064,12.015 14.160,11.999 14.160 C 11.954 14.160,11.255 13.081,11.168 12.878 C 10.971 12.415,11.004 12.429,11.674 13.096 L 12.313 13.732 12.171 13.946 " stroke="none" fill="black" fill-rule="evenodd"></path></svg>