<svg xmlns="http://www.w3.org/2000/svg" width="24" height="24" viewBox="0 0 24 24" fill="none" stroke="currentColor" stroke-width="2" stroke-linecap="round" stroke-linejoin="round" class="icon icon-tabler icons-tabler-outline icon-tabler-versions"><path d="M11.499 4.042 C 10.377 4.234,9.461 5.048,9.114 6.160 L 9.020 6.460 9.020 12.000 L 9.020 17.540 9.114 17.840 C 9.422 18.827,10.173 19.578,11.160 19.886 L 11.460 19.980 15.000 19.980 L 18.540 19.980 18.840 19.886 C 19.827 19.578,20.578 18.827,20.886 17.840 L 20.980 17.540 20.980 12.000 L 20.980 6.460 20.886 6.160 C 20.581 5.182,19.831 4.427,18.861 4.122 L 18.540 4.021 15.120 4.014 C 13.239 4.011,11.609 4.023,11.499 4.042 M6.614 6.057 C 6.377 6.131,6.212 6.261,6.109 6.453 L 6.020 6.620 6.009 11.914 C 6.002 15.393,6.013 17.259,6.039 17.358 C 6.144 17.747,6.434 17.961,6.896 17.991 C 7.381 18.022,7.699 17.882,7.880 17.558 L 7.980 17.380 7.980 12.000 L 7.980 6.620 7.891 6.453 C 7.842 6.362,7.746 6.247,7.678 6.199 C 7.414 6.010,6.957 5.950,6.614 6.057 M18.310 6.061 C 18.589 6.144,18.856 6.411,18.939 6.690 C 18.992 6.868,19.000 7.546,19.000 12.001 C 19.000 16.212,18.990 17.139,18.945 17.290 C 18.872 17.533,18.707 17.740,18.484 17.872 L 18.300 17.980 15.000 17.980 L 11.700 17.980 11.516 17.872 C 11.303 17.747,11.141 17.550,11.058 17.316 C 10.969 17.061,10.971 6.993,11.061 6.690 C 11.140 6.421,11.412 6.143,11.673 6.063 C 11.961 5.975,18.013 5.972,18.310 6.061 M3.614 7.057 C 3.377 7.131,3.212 7.261,3.109 7.453 L 3.020 7.620 3.009 11.913 C 3.002 14.727,3.013 16.258,3.039 16.357 C 3.144 16.747,3.434 16.961,3.896 16.991 C 4.381 17.022,4.699 16.882,4.880 16.558 L 4.980 16.380 4.980 12.000 L 4.980 7.620 4.891 7.453 C 4.842 7.362,4.746 7.247,4.678 7.199 C 4.414 7.010,3.957 6.950,3.614 7.057 " stroke="none" fill="black" fill-rule="evenodd"></path></svg>