<svg xmlns="http://www.w3.org/2000/svg" width="24" height="24" viewBox="0 0 24 24" fill="none" stroke="currentColor" stroke-width="2" stroke-linecap="round" stroke-linejoin="round" class="icon icon-tabler icons-tabler-outline icon-tabler-square-root-2"><path d="M9.680 3.037 C 9.357 3.136,9.169 3.325,9.065 3.660 C 9.030 3.770,8.488 6.614,7.859 9.980 C 7.231 13.346,6.704 16.132,6.688 16.171 C 6.669 16.218,6.381 15.496,5.803 13.951 C 5.332 12.691,4.914 11.594,4.875 11.514 C 4.776 11.314,4.511 11.097,4.300 11.044 C 4.042 10.979,2.855 10.987,2.629 11.055 C 2.224 11.177,2.040 11.428,2.009 11.900 C 1.978 12.381,2.119 12.701,2.441 12.878 C 2.580 12.955,2.693 12.980,2.964 12.993 L 3.309 13.009 4.681 16.675 C 5.436 18.691,6.094 20.421,6.143 20.520 C 6.252 20.739,6.411 20.895,6.609 20.978 C 6.807 21.061,6.939 21.056,7.266 20.956 C 7.600 20.853,7.837 20.632,7.934 20.334 C 7.968 20.227,8.628 16.765,9.400 12.640 C 10.172 8.515,10.813 5.109,10.825 5.070 C 10.844 5.004,11.103 5.000,15.533 5.000 C 18.549 5.000,20.272 4.985,20.365 4.959 C 20.586 4.898,20.770 4.755,20.880 4.558 C 20.967 4.402,20.980 4.332,20.979 4.000 C 20.978 3.567,20.898 3.355,20.678 3.199 C 20.390 2.994,20.565 3.000,14.984 3.003 C 12.122 3.005,9.735 3.021,9.680 3.037 M12.614 11.055 C 12.375 11.133,12.211 11.262,12.109 11.453 C 12.035 11.592,12.020 11.684,12.020 12.000 C 12.020 12.331,12.033 12.403,12.120 12.558 C 12.230 12.755,12.414 12.898,12.635 12.959 C 12.715 12.981,13.052 13.000,13.385 13.000 L 13.989 13.000 14.078 13.210 C 14.127 13.325,14.327 13.859,14.523 14.396 L 14.878 15.373 14.704 15.616 C 14.088 16.479,13.341 17.307,12.887 17.631 C 12.566 17.859,12.232 17.998,11.996 17.999 C 11.593 18.001,11.256 18.175,11.113 18.453 C 11.010 18.653,10.971 19.106,11.035 19.344 C 11.192 19.924,11.766 20.132,12.622 19.921 C 13.623 19.673,14.492 19.038,15.587 17.753 L 15.712 17.607 15.801 17.853 C 16.302 19.234,16.710 19.732,17.508 19.940 C 17.777 20.010,19.131 20.024,19.365 19.959 C 19.586 19.898,19.770 19.755,19.880 19.558 C 19.967 19.402,19.980 19.332,19.979 19.000 C 19.978 18.687,19.962 18.591,19.890 18.453 C 19.702 18.098,19.423 18.000,18.597 18.000 L 18.006 18.000 17.846 17.590 C 17.758 17.364,17.570 16.856,17.427 16.460 C 17.285 16.064,17.157 15.713,17.144 15.679 C 17.107 15.591,17.910 14.540,18.426 14.001 C 19.111 13.286,19.480 13.060,20.058 13.000 C 20.530 12.952,20.735 12.838,20.893 12.540 C 21.018 12.303,21.016 11.691,20.888 11.450 C 20.594 10.894,19.650 10.857,18.620 11.362 C 17.963 11.684,17.279 12.244,16.647 12.976 L 16.288 13.392 16.199 13.146 C 15.755 11.912,15.359 11.378,14.693 11.117 C 14.481 11.034,14.384 11.024,13.620 11.013 C 12.996 11.004,12.737 11.015,12.614 11.055 " stroke="none" fill="black" fill-rule="evenodd"></path></svg>