<svg xmlns="http://www.w3.org/2000/svg" width="24" height="24" viewBox="0 0 24 24" fill="none" stroke="currentColor" stroke-width="2" stroke-linecap="round" stroke-linejoin="round" class="icon icon-tabler icons-tabler-outline icon-tabler-transform"><path d="M15.620 2.046 C 15.528 2.094,14.826 2.758,13.960 3.618 C 13.135 4.438,12.399 5.150,12.324 5.201 C 12.148 5.321,11.951 5.745,11.951 6.002 C 11.951 6.111,11.987 6.257,12.039 6.363 C 12.163 6.610,15.390 9.837,15.637 9.961 C 15.990 10.137,16.355 10.048,16.701 9.701 C 17.048 9.354,17.137 8.988,16.959 8.637 C 16.905 8.531,16.580 8.168,16.147 7.730 L 15.425 7.000 17.265 7.000 C 19.382 7.000,19.395 7.002,19.697 7.303 C 19.995 7.601,20.000 7.638,20.000 9.557 C 20.000 10.548,20.017 11.279,20.041 11.365 C 20.148 11.750,20.437 11.962,20.896 11.991 C 21.381 12.022,21.699 11.882,21.880 11.558 L 21.980 11.380 21.980 9.420 C 21.980 7.477,21.979 7.457,21.886 7.160 C 21.581 6.181,20.828 5.424,19.861 5.123 L 19.540 5.023 17.485 5.009 L 15.429 4.995 16.149 4.268 C 16.581 3.831,16.905 3.469,16.959 3.363 C 17.137 3.012,17.048 2.646,16.701 2.299 C 16.361 1.959,15.967 1.867,15.620 2.046 M5.358 2.061 C 4.230 2.237,3.143 2.974,2.569 3.953 C 1.320 6.083,2.233 8.785,4.512 9.704 C 6.558 10.528,8.877 9.538,9.704 7.488 C 10.090 6.530,10.090 5.469,9.705 4.516 C 9.172 3.197,8.001 2.269,6.605 2.058 C 6.144 1.989,5.816 1.990,5.358 2.061 M6.523 4.073 C 7.262 4.266,7.850 4.924,7.967 5.690 C 8.029 6.098,7.967 6.522,7.793 6.880 C 7.638 7.198,7.227 7.625,6.930 7.775 C 6.492 7.997,5.962 8.059,5.508 7.940 C 4.823 7.762,4.249 7.194,4.073 6.523 C 3.683 5.028,5.028 3.683,6.523 4.073 M2.614 12.057 C 2.377 12.131,2.212 12.261,2.109 12.453 C 2.020 12.619,2.020 12.630,2.020 14.580 C 2.020 16.523,2.021 16.543,2.114 16.840 C 2.419 17.816,3.154 18.558,4.140 18.885 C 4.416 18.976,4.450 18.978,6.495 18.991 L 8.571 19.005 7.851 19.732 C 7.419 20.169,7.095 20.531,7.041 20.637 C 6.863 20.988,6.952 21.354,7.299 21.701 C 7.646 22.048,8.011 22.137,8.363 21.960 C 8.480 21.901,9.051 21.365,10.062 20.365 C 10.899 19.537,11.634 18.826,11.697 18.784 C 11.850 18.682,12.049 18.238,12.049 17.998 C 12.049 17.889,12.013 17.743,11.961 17.637 C 11.841 17.397,8.611 14.163,8.372 14.044 C 8.020 13.868,7.639 13.959,7.299 14.299 C 6.952 14.646,6.863 15.012,7.041 15.363 C 7.095 15.469,7.420 15.833,7.854 16.271 L 8.578 17.003 6.639 16.991 L 4.700 16.980 4.516 16.872 C 4.327 16.761,4.158 16.571,4.070 16.373 C 4.034 16.291,4.015 15.767,4.000 14.440 C 3.980 12.654,3.978 12.617,3.891 12.453 C 3.842 12.362,3.746 12.247,3.678 12.199 C 3.414 12.010,2.957 11.950,2.614 12.057 M17.358 14.061 C 16.230 14.237,15.143 14.974,14.569 15.953 C 13.320 18.083,14.233 20.785,16.512 21.704 C 18.558 22.528,20.877 21.538,21.704 19.488 C 22.090 18.530,22.090 17.469,21.705 16.516 C 21.172 15.197,20.001 14.269,18.605 14.058 C 18.144 13.989,17.816 13.990,17.358 14.061 M18.523 16.073 C 19.262 16.266,19.850 16.924,19.967 17.690 C 20.067 18.343,19.873 18.933,19.403 19.404 C 19.002 19.807,18.547 20.000,18.000 20.000 C 17.485 20.000,17.038 19.822,16.653 19.465 C 15.323 18.229,16.189 16.005,18.000 16.005 C 18.143 16.005,18.378 16.036,18.523 16.073 " stroke="none" fill="black" fill-rule="evenodd"></path></svg>