<svg xmlns="http://www.w3.org/2000/svg" width="24" height="24" viewBox="0 0 24 24" fill="none" stroke="currentColor" stroke-width="2" stroke-linecap="round" stroke-linejoin="round" class="icon icon-tabler icons-tabler-outline icon-tabler-arrows-join-2"><path d="M2.614 6.057 C 2.223 6.180,2.039 6.436,2.009 6.900 C 1.978 7.381,2.119 7.699,2.442 7.880 L 2.620 7.980 4.100 8.005 C 5.644 8.032,5.843 8.052,6.440 8.241 C 6.769 8.345,7.345 8.626,7.670 8.841 C 8.061 9.099,8.534 9.571,8.973 10.139 C 9.560 10.901,10.280 11.575,10.920 11.964 C 10.973 11.996,10.973 12.004,10.920 12.036 C 10.274 12.429,9.521 13.135,8.966 13.867 C 8.346 14.685,7.762 15.179,6.992 15.536 C 6.149 15.927,5.688 15.999,4.036 16.000 C 2.735 16.000,2.575 16.019,2.322 16.199 C 2.100 16.357,2.020 16.568,2.020 17.000 C 2.020 17.331,2.033 17.403,2.120 17.558 C 2.233 17.761,2.417 17.900,2.654 17.964 C 2.762 17.993,3.303 18.002,4.298 17.990 C 5.639 17.975,5.822 17.965,6.220 17.883 C 7.166 17.690,7.997 17.344,8.799 16.810 C 9.351 16.443,10.080 15.738,10.516 15.151 C 10.886 14.651,11.153 14.361,11.482 14.098 C 12.108 13.599,12.808 13.267,13.601 13.094 C 13.852 13.040,14.275 13.026,16.240 13.012 L 18.580 12.994 17.855 13.727 C 17.421 14.166,17.095 14.531,17.041 14.637 C 16.863 14.988,16.952 15.354,17.299 15.701 C 17.646 16.048,18.011 16.137,18.363 15.960 C 18.480 15.901,19.051 15.365,20.062 14.365 C 20.899 13.537,21.634 12.826,21.697 12.784 C 21.850 12.682,22.049 12.238,22.049 12.000 C 22.049 11.745,21.851 11.321,21.676 11.201 C 21.601 11.150,20.865 10.438,20.040 9.618 C 19.085 8.670,18.479 8.098,18.372 8.044 C 18.020 7.868,17.639 7.959,17.299 8.299 C 16.952 8.646,16.863 9.012,17.041 9.363 C 17.095 9.469,17.420 9.833,17.855 10.272 L 18.580 11.005 16.220 10.989 C 13.984 10.975,13.842 10.969,13.520 10.890 C 12.712 10.689,12.091 10.388,11.483 9.902 C 11.145 9.631,10.931 9.399,10.542 8.880 C 10.123 8.320,9.396 7.602,8.902 7.259 C 7.922 6.579,6.804 6.161,5.644 6.042 C 5.041 5.980,2.824 5.991,2.614 6.057 " stroke="none" fill="black" fill-rule="evenodd"></path></svg>