<svg xmlns="http://www.w3.org/2000/svg" width="24" height="24" viewBox="0 0 24 24" fill="none" stroke="currentColor" stroke-width="2" stroke-linecap="round" stroke-linejoin="round" class="icon icon-tabler icons-tabler-outline icon-tabler-icons-off"><path d="M2.626 2.045 C 2.257 2.239,1.951 2.673,1.951 3.000 C 1.951 3.252,2.068 3.465,2.400 3.815 L 2.677 4.106 2.521 4.404 C 1.837 5.710,1.833 7.247,2.511 8.581 C 2.911 9.368,3.679 10.121,4.500 10.531 C 5.753 11.157,7.291 11.148,8.592 10.507 L 8.923 10.344 10.962 12.382 L 13.000 14.420 13.000 17.820 C 13.000 19.974,13.015 21.273,13.041 21.365 C 13.102 21.586,13.245 21.770,13.442 21.880 L 13.620 21.980 17.280 22.007 C 19.293 22.021,20.999 22.035,21.071 22.036 C 21.223 22.040,21.669 21.848,21.768 21.735 C 21.894 21.593,22.049 21.187,22.049 20.999 C 22.049 20.718,21.851 20.319,21.635 20.168 C 21.539 20.101,19.969 18.546,18.147 16.713 C 16.325 14.880,14.795 13.341,14.747 13.293 C 14.699 13.245,12.158 10.713,9.100 7.667 C 5.299 3.881,3.487 2.101,3.372 2.044 C 3.152 1.934,2.835 1.935,2.626 2.045 M13.626 2.045 C 13.420 2.154,13.146 2.433,13.038 2.644 C 12.924 2.868,12.924 3.133,13.040 3.363 C 13.100 3.482,13.613 4.026,14.603 5.020 L 16.078 6.500 14.603 7.980 C 13.614 8.973,13.100 9.518,13.040 9.637 C 12.863 9.989,12.952 10.354,13.299 10.701 C 13.646 11.048,14.011 11.137,14.363 10.960 C 14.482 10.900,15.026 10.387,16.020 9.397 L 17.500 7.922 18.980 9.397 C 19.973 10.386,20.518 10.900,20.637 10.960 C 20.989 11.137,21.354 11.048,21.701 10.701 C 22.048 10.354,22.137 9.989,21.960 9.637 C 21.900 9.518,21.386 8.973,20.397 7.980 L 18.922 6.500 20.397 5.020 C 21.387 4.026,21.900 3.482,21.960 3.363 C 22.137 3.011,22.048 2.646,21.701 2.299 C 21.361 1.959,20.980 1.868,20.628 2.044 C 20.521 2.098,19.927 2.660,18.980 3.603 L 17.500 5.078 16.020 3.603 C 15.074 2.661,14.479 2.099,14.372 2.044 C 14.152 1.934,13.835 1.934,13.626 2.045 M6.577 2.116 C 6.090 2.337,5.880 3.155,6.188 3.631 C 6.323 3.839,6.497 3.934,6.941 4.042 C 8.031 4.306,8.695 4.970,8.958 6.060 C 9.063 6.493,9.188 6.721,9.390 6.847 C 9.518 6.926,9.592 6.940,9.900 6.940 C 10.212 6.940,10.290 6.925,10.485 6.830 C 10.635 6.756,10.748 6.664,10.825 6.553 C 10.933 6.397,10.940 6.363,10.936 6.003 C 10.928 5.133,10.437 4.087,9.689 3.345 C 9.006 2.669,8.309 2.288,7.407 2.101 C 7.022 2.021,6.776 2.025,6.577 2.116 M7.400 8.847 C 7.400 8.892,7.000 8.966,6.635 8.989 C 6.025 9.027,5.429 8.831,4.912 8.422 C 4.166 7.832,3.832 6.748,4.106 5.805 L 4.169 5.589 5.784 7.204 C 6.673 8.093,7.400 8.832,7.400 8.847 M6.320 12.997 C 6.127 13.056,5.899 13.194,5.776 13.326 C 5.589 13.527,1.556 20.616,1.486 20.866 C 1.438 21.040,1.437 21.106,1.479 21.256 C 1.545 21.491,1.738 21.713,2.006 21.861 L 2.220 21.980 6.420 21.992 C 9.467 22.001,10.678 21.992,10.833 21.959 C 11.089 21.904,11.302 21.730,11.408 21.491 C 11.498 21.287,11.514 20.861,11.438 20.672 C 11.357 20.469,7.368 13.497,7.225 13.307 C 7.011 13.023,6.646 12.898,6.320 12.997 M17.614 13.057 C 17.377 13.131,17.212 13.261,17.109 13.453 C 17.035 13.592,17.020 13.684,17.020 14.000 C 17.020 14.331,17.033 14.403,17.120 14.558 C 17.230 14.755,17.414 14.898,17.635 14.959 C 17.716 14.982,18.270 15.000,18.890 15.000 L 20.000 15.000 20.000 16.110 C 20.000 16.730,20.018 17.284,20.041 17.365 C 20.148 17.750,20.437 17.962,20.896 17.991 C 21.381 18.022,21.699 17.882,21.880 17.558 L 21.980 17.380 21.980 15.500 C 21.980 13.633,21.979 13.619,21.891 13.453 C 21.785 13.256,21.622 13.131,21.371 13.055 C 21.114 12.978,17.862 12.980,17.614 13.057 M7.656 18.035 C 8.263 19.099,8.760 19.976,8.760 19.985 C 8.760 19.993,7.743 20.000,6.500 20.000 C 5.257 20.000,4.240 19.993,4.240 19.985 C 4.240 19.918,6.497 16.041,6.520 16.067 C 6.537 16.085,7.048 16.971,7.656 18.035 M16.800 18.220 L 18.580 20.000 16.790 20.000 L 15.000 20.000 15.000 18.220 C 15.000 17.241,15.005 16.440,15.010 16.440 C 15.016 16.440,15.821 17.241,16.800 18.220 " stroke="none" fill="black" fill-rule="evenodd"></path></svg>