<svg xmlns="http://www.w3.org/2000/svg" width="24" height="24" viewBox="0 0 24 24" fill="none" stroke="currentColor" stroke-width="2" stroke-linecap="round" stroke-linejoin="round" class="icon icon-tabler icons-tabler-outline icon-tabler-history"><path d="M11.200 1.944 C 10.545 2.022,10.329 2.054,9.980 2.124 C 8.087 2.503,6.352 3.444,4.938 4.858 C 3.338 6.458,2.374 8.426,2.077 10.696 C 2.024 11.105,2.046 11.337,2.157 11.550 C 2.394 12.007,3.311 12.158,3.725 11.810 C 3.909 11.655,3.996 11.422,4.085 10.847 C 4.186 10.188,4.291 9.749,4.457 9.280 C 5.173 7.259,6.614 5.648,8.536 4.721 C 9.593 4.212,10.479 3.990,11.680 3.935 C 13.368 3.858,15.055 4.332,16.460 5.278 C 16.904 5.578,17.160 5.788,17.593 6.211 C 18.811 7.399,19.591 8.890,19.881 10.585 C 20.255 12.773,19.692 15.026,18.332 16.788 C 17.086 18.401,15.388 19.420,13.300 19.807 C 12.605 19.935,11.429 19.935,10.720 19.806 C 8.432 19.391,6.597 18.202,5.327 16.312 L 5.120 16.003 6.770 15.992 C 8.371 15.980,8.425 15.977,8.580 15.894 C 8.906 15.718,9.040 15.459,9.040 15.000 C 9.040 14.449,8.824 14.142,8.360 14.035 C 8.132 13.982,2.915 13.988,2.712 14.041 C 2.457 14.108,2.255 14.264,2.151 14.474 L 2.060 14.660 2.049 17.379 C 2.037 20.249,2.043 20.379,2.219 20.645 C 2.373 20.879,2.627 20.980,3.060 20.980 C 3.447 20.979,3.644 20.911,3.827 20.714 C 4.007 20.521,4.019 20.437,4.040 19.186 L 4.060 17.992 4.280 18.266 C 4.812 18.927,5.677 19.708,6.440 20.217 C 9.821 22.473,14.229 22.471,17.573 20.213 C 19.655 18.807,21.127 16.697,21.715 14.275 C 21.938 13.357,21.979 12.993,21.979 11.920 C 21.979 10.819,21.932 10.418,21.693 9.465 C 20.994 6.680,19.113 4.322,16.549 3.016 C 15.522 2.493,14.572 2.189,13.420 2.016 C 13.039 1.958,11.498 1.909,11.200 1.944 M11.614 7.057 C 11.377 7.131,11.212 7.261,11.109 7.453 L 11.020 7.620 11.020 9.960 L 11.020 12.300 11.127 12.480 C 11.281 12.739,13.416 14.848,13.637 14.960 C 13.989 15.137,14.354 15.048,14.701 14.701 C 15.048 14.354,15.137 13.989,14.960 13.637 C 14.903 13.525,14.527 13.114,13.937 12.520 L 13.004 11.580 12.992 9.600 C 12.980 7.640,12.979 7.618,12.891 7.453 C 12.842 7.362,12.746 7.247,12.678 7.199 C 12.414 7.010,11.957 6.950,11.614 7.057 " stroke="none" fill="black" fill-rule="evenodd"></path></svg>