<svg xmlns="http://www.w3.org/2000/svg" width="24" height="24" viewBox="0 0 24 24" fill="none" stroke="currentColor" stroke-width="2" stroke-linecap="round" stroke-linejoin="round" class="icon icon-tabler icons-tabler-outline icon-tabler-photo-sensor"><path d="M4.499 4.043 C 3.392 4.229,2.479 5.033,2.116 6.140 C 2.029 6.405,2.024 6.492,2.009 7.804 C 1.999 8.715,2.008 9.243,2.037 9.348 C 2.144 9.748,2.430 9.961,2.896 9.991 C 3.381 10.022,3.699 9.882,3.880 9.558 C 3.980 9.381,3.980 9.376,4.001 8.060 C 4.024 6.577,4.025 6.571,4.321 6.283 C 4.593 6.020,4.714 6.000,6.057 6.000 C 6.713 6.000,7.283 5.982,7.365 5.959 C 7.586 5.898,7.770 5.755,7.880 5.558 C 7.967 5.402,7.980 5.332,7.979 5.000 C 7.978 4.567,7.898 4.355,7.678 4.199 C 7.423 4.017,7.269 4.000,5.944 4.005 C 5.260 4.007,4.609 4.025,4.499 4.043 M16.614 4.056 C 16.376 4.133,16.211 4.262,16.109 4.453 C 16.035 4.592,16.020 4.684,16.020 5.000 C 16.020 5.331,16.033 5.403,16.120 5.558 C 16.230 5.755,16.414 5.898,16.635 5.959 C 16.717 5.982,17.287 6.000,17.943 6.000 C 19.308 6.000,19.412 6.018,19.697 6.303 C 19.982 6.588,20.000 6.692,20.000 8.057 C 20.000 8.713,20.018 9.283,20.041 9.365 C 20.148 9.750,20.437 9.962,20.896 9.991 C 21.381 10.022,21.699 9.882,21.880 9.558 L 21.980 9.380 21.980 7.920 C 21.980 6.501,21.977 6.452,21.886 6.160 C 21.581 5.181,20.825 4.421,19.861 4.124 C 19.550 4.028,19.498 4.024,18.160 4.013 C 17.090 4.005,16.743 4.014,16.614 4.056 M7.477 8.073 C 6.806 8.249,6.238 8.823,6.060 9.508 C 6.010 9.698,6.000 10.123,6.000 12.000 C 6.000 14.455,6.003 14.491,6.225 14.930 C 6.361 15.199,6.801 15.639,7.070 15.775 C 7.529 16.008,7.360 16.000,12.000 16.000 C 16.640 16.000,16.471 16.008,16.930 15.775 C 17.196 15.640,17.638 15.200,17.771 14.937 C 17.996 14.494,18.000 14.442,17.999 12.014 C 17.999 9.601,17.991 9.496,17.781 9.083 C 17.646 8.816,17.297 8.449,17.017 8.281 C 16.539 7.993,16.751 8.005,12.000 8.005 C 8.102 8.005,7.718 8.010,7.477 8.073 M16.000 12.000 L 16.000 14.000 12.000 14.000 L 8.000 14.000 8.000 12.000 L 8.000 10.000 12.000 10.000 L 16.000 10.000 16.000 12.000 M2.614 14.057 C 2.377 14.131,2.212 14.261,2.109 14.453 C 2.022 14.617,2.020 14.647,2.020 16.080 C 2.020 17.499,2.023 17.548,2.114 17.840 C 2.419 18.817,3.158 19.562,4.140 19.884 C 4.405 19.971,4.492 19.976,5.804 19.991 C 6.715 20.001,7.243 19.992,7.348 19.963 C 7.583 19.900,7.767 19.760,7.880 19.558 C 7.967 19.402,7.980 19.332,7.979 19.000 C 7.977 18.469,7.850 18.243,7.455 18.072 C 7.375 18.037,6.942 18.016,6.020 18.001 L 4.700 17.980 4.516 17.872 C 4.327 17.761,4.157 17.570,4.071 17.373 C 4.037 17.295,4.015 16.854,4.001 15.940 C 3.981 14.672,3.976 14.613,3.891 14.453 C 3.842 14.362,3.746 14.247,3.678 14.199 C 3.414 14.010,2.957 13.950,2.614 14.057 M20.614 14.057 C 20.377 14.131,20.212 14.261,20.109 14.453 C 20.024 14.613,20.019 14.673,19.999 15.940 C 19.984 16.847,19.962 17.295,19.929 17.373 C 19.843 17.570,19.673 17.761,19.484 17.872 L 19.300 17.980 17.979 18.000 C 16.658 18.020,16.657 18.020,16.459 18.122 C 16.119 18.297,15.978 18.606,16.009 19.104 C 16.039 19.570,16.252 19.856,16.652 19.963 C 16.757 19.992,17.285 20.001,18.196 19.991 C 19.508 19.976,19.595 19.971,19.860 19.884 C 20.842 19.562,21.581 18.817,21.886 17.840 C 21.977 17.548,21.980 17.499,21.980 16.080 C 21.980 14.647,21.978 14.617,21.891 14.453 C 21.842 14.362,21.746 14.247,21.678 14.199 C 21.414 14.010,20.957 13.950,20.614 14.057 " stroke="none" fill="black" fill-rule="evenodd"></path></svg>