<svg xmlns="http://www.w3.org/2000/svg" width="24" height="24" viewBox="0 0 24 24" fill="none" stroke="currentColor" stroke-width="2" stroke-linecap="round" stroke-linejoin="round" class="icon icon-tabler icons-tabler-outline icon-tabler-trees"><path d="M5.480 2.039 C 5.039 2.095,4.718 2.195,4.260 2.419 C 3.194 2.938,2.427 3.865,2.134 4.989 C 1.987 5.553,1.964 6.242,2.074 6.778 L 2.157 7.176 2.008 7.351 C 1.540 7.906,1.228 8.531,1.075 9.220 C 1.044 9.362,1.022 9.697,1.023 10.040 C 1.025 10.634,1.063 10.864,1.242 11.350 C 1.397 11.773,1.768 12.417,1.936 12.557 C 1.986 12.599,2.000 12.690,2.000 12.989 C 2.000 14.040,2.413 15.042,3.160 15.801 C 3.545 16.192,3.933 16.462,4.397 16.664 C 4.984 16.918,5.248 16.966,6.170 16.989 L 7.000 17.009 7.000 19.115 C 7.000 20.402,7.016 21.276,7.041 21.365 C 7.148 21.750,7.437 21.962,7.896 21.991 C 8.381 22.022,8.699 21.882,8.880 21.558 L 8.980 21.380 8.992 19.190 L 9.003 17.000 9.694 17.000 C 10.074 17.000,10.492 16.981,10.623 16.958 C 12.595 16.606,14.000 14.952,14.000 12.980 C 14.000 12.689,14.014 12.598,14.064 12.557 C 14.232 12.417,14.603 11.773,14.758 11.350 C 14.934 10.873,14.973 10.633,14.976 10.040 C 14.978 9.692,14.957 9.364,14.925 9.220 C 14.771 8.528,14.460 7.906,13.989 7.349 L 13.839 7.170 13.900 6.915 C 13.991 6.542,14.020 5.873,13.963 5.477 C 13.905 5.073,13.684 4.389,13.513 4.082 C 13.005 3.174,12.087 2.442,11.102 2.161 C 10.666 2.036,10.086 1.988,9.606 2.038 C 9.010 2.099,8.693 2.190,8.171 2.449 L 8.001 2.534 7.787 2.429 C 7.438 2.258,7.189 2.169,6.876 2.105 C 6.502 2.028,5.818 1.995,5.480 2.039 M15.626 4.045 C 15.257 4.239,14.951 4.673,14.951 5.000 C 14.951 5.328,15.063 5.473,16.212 6.629 C 16.808 7.228,17.287 7.726,17.278 7.735 C 17.268 7.743,17.080 7.841,16.860 7.952 C 16.324 8.220,16.149 8.355,16.040 8.580 C 15.968 8.730,15.954 8.810,15.972 8.980 C 16.017 9.424,16.055 9.471,17.649 11.068 C 18.638 12.058,19.116 12.564,19.078 12.578 C 19.046 12.590,18.701 12.707,18.311 12.838 C 17.920 12.970,17.532 13.113,17.447 13.157 C 17.126 13.320,16.924 13.683,16.979 13.996 C 17.063 14.474,17.051 14.460,18.354 15.770 L 19.576 17.000 16.194 17.000 C 12.577 17.000,12.603 16.999,12.322 17.199 C 12.100 17.357,12.020 17.568,12.020 18.000 C 12.020 18.331,12.033 18.403,12.120 18.558 C 12.230 18.755,12.414 18.898,12.635 18.959 C 12.715 18.981,13.055 19.000,13.390 19.000 L 14.000 19.000 14.000 20.110 C 14.000 20.730,14.018 21.284,14.041 21.365 C 14.148 21.750,14.437 21.962,14.896 21.991 C 15.381 22.022,15.699 21.882,15.880 21.558 C 15.979 21.381,15.980 21.374,15.993 20.191 L 16.005 19.002 19.153 18.991 L 22.300 18.980 22.486 18.871 C 22.965 18.589,23.170 18.055,22.960 17.637 C 22.900 17.518,22.379 16.966,21.368 15.952 C 20.374 14.954,19.885 14.436,19.923 14.422 C 19.954 14.410,20.304 14.292,20.700 14.158 C 21.441 13.909,21.648 13.802,21.813 13.585 C 22.070 13.247,22.116 12.949,21.960 12.637 C 21.900 12.518,21.358 11.945,20.288 10.871 C 19.417 9.997,18.712 9.275,18.722 9.267 C 18.732 9.258,18.943 9.148,19.190 9.022 C 19.653 8.787,19.819 8.640,19.980 8.323 C 20.076 8.133,20.068 7.853,19.961 7.637 C 19.841 7.397,16.611 4.163,16.372 4.044 C 16.152 3.934,15.835 3.935,15.626 4.045 M6.320 4.042 C 6.650 4.095,6.939 4.227,7.280 4.480 C 7.863 4.912,8.137 4.912,8.720 4.480 C 9.075 4.217,9.359 4.091,9.711 4.041 C 10.813 3.885,11.802 4.628,11.965 5.733 C 12.024 6.138,11.970 6.480,11.781 6.896 C 11.581 7.334,11.543 7.509,11.601 7.723 C 11.668 7.971,11.765 8.091,12.097 8.337 C 12.257 8.455,12.451 8.630,12.529 8.726 C 12.968 9.267,13.104 10.010,12.881 10.657 C 12.771 10.978,12.668 11.132,12.330 11.489 C 11.906 11.936,11.870 12.056,11.967 12.691 C 12.066 13.340,11.869 13.937,11.403 14.404 C 10.927 14.882,10.574 15.000,9.628 15.000 L 8.994 15.000 9.015 14.030 C 9.026 13.497,9.039 13.033,9.042 13.000 C 9.046 12.967,9.035 12.826,9.019 12.688 L 8.988 12.436 9.929 11.488 C 10.525 10.888,10.903 10.475,10.960 10.363 C 11.137 10.011,11.048 9.646,10.701 9.299 C 10.466 9.064,10.251 8.960,10.000 8.960 C 9.743 8.960,9.555 9.055,9.246 9.341 L 9.006 9.563 8.993 8.591 C 8.981 7.672,8.975 7.611,8.889 7.450 C 8.724 7.140,8.329 6.970,7.874 7.011 C 7.439 7.051,7.141 7.274,7.041 7.635 C 7.017 7.719,7.000 8.364,7.000 9.174 L 7.000 10.569 6.757 10.344 C 6.445 10.055,6.258 9.960,6.000 9.960 C 5.749 9.960,5.534 10.064,5.299 10.299 C 4.952 10.646,4.863 11.011,5.040 11.363 C 5.097 11.475,5.474 11.886,6.065 12.482 L 7.000 13.424 7.000 14.212 L 7.000 15.000 6.368 15.000 C 5.412 15.000,5.088 14.893,4.617 14.423 C 4.304 14.110,4.114 13.778,4.038 13.410 C 3.994 13.196,3.997 13.050,4.065 12.374 C 4.100 12.022,4.039 11.884,3.685 11.507 C 3.331 11.130,3.229 10.978,3.119 10.657 C 2.948 10.161,2.977 9.644,3.202 9.164 C 3.363 8.819,3.552 8.596,3.903 8.337 C 4.235 8.091,4.332 7.971,4.399 7.723 C 4.457 7.508,4.421 7.344,4.219 6.900 C 3.942 6.292,3.943 5.703,4.223 5.119 C 4.528 4.482,5.222 4.037,5.960 4.005 C 6.015 4.003,6.177 4.019,6.320 4.042 " stroke="none" fill="black" fill-rule="evenodd"></path></svg>