<svg xmlns="http://www.w3.org/2000/svg" width="24" height="24" viewBox="0 0 24 24" fill="none" stroke="currentColor" stroke-width="2" stroke-linecap="round" stroke-linejoin="round" class="icon icon-tabler icons-tabler-outline icon-tabler-ce-off"><path d="M2.626 2.045 C 2.420 2.154,2.146 2.433,2.038 2.644 C 1.924 2.868,1.924 3.133,2.040 3.363 C 2.099 3.481,2.593 4.007,3.515 4.934 L 4.900 6.328 4.782 6.414 C 4.516 6.608,3.924 7.165,3.688 7.443 C 2.850 8.431,2.345 9.527,2.075 10.940 C 2.004 11.312,2.003 12.642,2.074 13.040 C 2.452 15.173,3.551 16.833,5.328 17.955 C 6.365 18.610,7.949 19.053,9.035 18.991 C 9.514 18.964,9.729 18.851,9.893 18.540 C 10.017 18.305,10.016 17.691,9.890 17.453 C 9.719 17.131,9.512 17.042,8.831 16.998 C 7.476 16.912,6.481 16.490,5.558 15.612 C 5.361 15.424,5.118 15.162,5.017 15.028 C 4.047 13.737,3.747 11.986,4.239 10.483 C 4.385 10.037,4.730 9.357,4.981 9.020 C 5.244 8.666,5.726 8.189,6.052 7.960 L 6.338 7.758 13.399 14.815 C 18.500 19.913,20.509 21.897,20.637 21.961 C 20.990 22.137,21.355 22.047,21.701 21.701 C 22.048 21.355,22.137 20.990,21.961 20.637 C 21.897 20.509,19.816 18.403,14.486 13.069 C 3.885 2.459,3.564 2.141,3.372 2.045 C 3.152 1.934,2.835 1.934,2.626 2.045 M20.300 5.045 C 18.226 5.239,16.267 6.434,15.126 8.200 C 14.565 9.068,14.078 10.428,14.081 11.114 C 14.082 11.404,14.197 11.593,14.686 12.109 C 14.936 12.373,15.174 12.639,15.216 12.700 C 15.307 12.834,15.746 13.041,15.929 13.037 C 16.001 13.035,17.257 13.022,18.720 13.007 C 21.337 12.980,21.383 12.979,21.540 12.894 C 21.875 12.715,21.978 12.504,21.978 12.000 C 21.978 11.567,21.899 11.356,21.678 11.199 C 21.405 11.004,21.348 11.000,18.801 11.000 L 16.416 11.000 16.284 10.865 L 16.153 10.729 16.280 10.355 C 16.688 9.154,17.590 8.132,18.783 7.520 C 19.395 7.207,19.983 7.062,20.880 7.004 C 21.536 6.962,21.716 6.877,21.904 6.520 C 22.018 6.305,22.009 5.679,21.890 5.453 C 21.675 5.046,21.303 4.951,20.300 5.045 " stroke="none" fill="black" fill-rule="evenodd"></path></svg>