<svg xmlns="http://www.w3.org/2000/svg" width="24" height="24" viewBox="0 0 24 24" fill="none" stroke="currentColor" stroke-width="2" stroke-linecap="round" stroke-linejoin="round" class="icon icon-tabler icons-tabler-outline icon-tabler-brand-couchdb"><path d="M5.499 5.043 C 4.388 5.231,3.455 6.054,3.122 7.140 C 3.018 7.479,2.972 8.113,3.035 8.344 C 3.147 8.755,3.407 8.945,3.933 8.999 C 4.340 9.041,4.503 9.105,4.699 9.301 C 4.975 9.577,4.977 9.591,5.000 11.060 C 5.020 12.376,5.020 12.381,5.120 12.558 C 5.230 12.755,5.414 12.898,5.635 12.959 C 5.834 13.015,18.166 13.015,18.365 12.959 C 18.586 12.898,18.770 12.755,18.880 12.558 C 18.980 12.381,18.980 12.376,19.001 11.060 C 19.023 9.591,19.026 9.577,19.301 9.301 C 19.497 9.106,19.660 9.041,20.062 9.000 C 20.535 8.951,20.736 8.837,20.905 8.520 C 21.020 8.304,21.010 7.563,20.885 7.160 C 20.585 6.186,19.832 5.428,18.861 5.121 L 18.540 5.020 12.120 5.014 C 8.589 5.011,5.609 5.024,5.499 5.043 M18.303 7.061 C 18.481 7.115,18.715 7.262,18.676 7.295 C 18.667 7.302,18.579 7.355,18.480 7.412 C 18.059 7.655,17.573 8.163,17.344 8.600 C 17.077 9.109,17.031 9.333,17.010 10.210 L 16.991 11.000 12.000 11.000 L 7.009 11.000 6.990 10.210 C 6.969 9.333,6.923 9.109,6.656 8.600 C 6.427 8.163,5.941 7.655,5.520 7.412 C 5.421 7.355,5.333 7.302,5.324 7.295 C 5.287 7.264,5.514 7.116,5.680 7.063 C 5.958 6.974,18.013 6.972,18.303 7.061 M2.614 10.057 C 2.377 10.131,2.212 10.261,2.109 10.453 L 2.020 10.620 2.009 14.413 C 2.002 16.894,2.012 18.258,2.039 18.357 C 2.144 18.747,2.434 18.961,2.896 18.991 C 3.381 19.022,3.699 18.882,3.880 18.558 L 3.980 18.380 3.980 14.500 L 3.980 10.620 3.891 10.453 C 3.842 10.362,3.746 10.247,3.678 10.199 C 3.414 10.010,2.957 9.950,2.614 10.057 M20.614 10.057 C 20.377 10.131,20.212 10.261,20.109 10.453 L 20.020 10.620 20.009 14.413 C 20.002 16.894,20.012 18.258,20.039 18.357 C 20.144 18.747,20.434 18.961,20.896 18.991 C 21.381 19.022,21.699 18.882,21.880 18.558 L 21.980 18.380 21.980 14.500 L 21.980 10.620 21.891 10.453 C 21.842 10.362,21.746 10.247,21.678 10.199 C 21.414 10.010,20.957 9.950,20.614 10.057 M5.614 14.057 C 5.377 14.131,5.212 14.261,5.109 14.453 C 5.035 14.592,5.020 14.684,5.020 15.000 C 5.020 15.331,5.033 15.403,5.120 15.558 C 5.230 15.755,5.414 15.898,5.635 15.959 C 5.834 16.015,18.166 16.015,18.365 15.959 C 18.586 15.898,18.770 15.755,18.880 15.558 C 18.967 15.402,18.980 15.332,18.979 15.000 C 18.978 14.567,18.898 14.355,18.678 14.199 C 18.388 13.992,18.642 14.000,11.984 14.003 C 7.009 14.005,5.747 14.016,5.614 14.057 M5.614 17.057 C 5.377 17.131,5.212 17.261,5.109 17.453 C 5.035 17.592,5.020 17.684,5.020 18.000 C 5.020 18.331,5.033 18.403,5.120 18.558 C 5.230 18.755,5.414 18.898,5.635 18.959 C 5.834 19.015,18.166 19.015,18.365 18.959 C 18.586 18.898,18.770 18.755,18.880 18.558 C 18.967 18.402,18.980 18.332,18.979 18.000 C 18.978 17.567,18.898 17.355,18.678 17.199 C 18.388 16.992,18.642 17.000,11.984 17.003 C 7.009 17.005,5.747 17.016,5.614 17.057 " stroke="none" fill="black" fill-rule="evenodd"></path></svg>