<svg xmlns="http://www.w3.org/2000/svg" width="24" height="24" viewBox="0 0 24 24" fill="none" stroke="currentColor" stroke-width="2" stroke-linecap="round" stroke-linejoin="round" class="icon icon-tabler icons-tabler-outline icon-tabler-eye-x"><path d="M11.160 5.043 C 7.815 5.297,4.962 7.199,2.619 10.738 C 2.100 11.523,2.001 11.724,2.001 12.000 C 2.001 12.276,2.100 12.477,2.619 13.262 C 4.372 15.910,6.419 17.652,8.699 18.438 C 9.189 18.607,9.752 18.759,10.180 18.839 C 11.253 19.039,12.907 19.050,13.472 18.863 C 13.718 18.781,13.946 18.560,14.004 18.347 C 14.125 17.896,13.956 17.283,13.653 17.080 L 13.504 16.980 12.542 16.993 C 11.474 17.007,10.886 16.954,10.160 16.780 C 8.069 16.277,6.221 14.894,4.605 12.620 C 4.198 12.048,4.185 12.023,4.244 11.910 C 4.320 11.765,4.894 10.970,5.188 10.600 C 5.576 10.114,6.435 9.243,6.885 8.881 C 7.448 8.426,8.021 8.063,8.615 7.781 C 9.786 7.225,10.690 7.023,12.000 7.023 C 13.310 7.023,14.214 7.225,15.385 7.781 C 16.918 8.508,18.342 9.818,19.573 11.635 C 19.698 11.819,19.800 11.988,19.800 12.010 C 19.800 12.057,19.456 12.555,19.058 13.081 C 18.900 13.290,18.731 13.539,18.683 13.634 C 18.574 13.847,18.564 14.131,18.657 14.328 C 18.799 14.628,19.364 15.038,19.635 15.040 C 19.819 15.040,20.046 14.944,20.218 14.793 C 20.542 14.509,21.654 12.936,21.901 12.415 C 22.040 12.120,22.034 11.850,21.882 11.549 C 21.724 11.238,21.071 10.256,20.671 9.729 C 19.313 7.937,17.629 6.540,15.960 5.818 C 14.465 5.172,12.866 4.914,11.160 5.043 M11.499 9.040 C 10.363 9.246,9.460 10.049,9.114 11.160 C 8.979 11.594,8.979 12.406,9.114 12.840 C 9.421 13.826,10.174 14.579,11.160 14.886 C 11.594 15.021,12.406 15.021,12.840 14.886 C 13.826 14.579,14.579 13.826,14.886 12.840 C 15.021 12.406,15.021 11.594,14.886 11.160 C 14.581 10.179,13.810 9.407,12.861 9.129 C 12.500 9.023,11.832 8.980,11.499 9.040 M12.310 11.061 C 12.688 11.173,13.000 11.598,13.000 12.001 C 13.000 12.331,12.784 12.696,12.484 12.872 C 12.328 12.963,12.254 12.980,12.000 12.980 C 11.746 12.980,11.672 12.963,11.516 12.872 C 10.935 12.530,10.833 11.774,11.304 11.303 C 11.583 11.024,11.916 10.944,12.310 11.061 M16.626 16.045 C 16.257 16.239,15.951 16.673,15.951 17.000 C 15.951 17.323,16.068 17.478,17.103 18.520 L 18.077 19.500 17.103 20.480 C 16.068 21.522,15.951 21.677,15.951 22.000 C 15.951 22.477,16.523 23.049,17.000 23.049 C 17.323 23.049,17.478 22.932,18.520 21.897 L 19.500 20.923 20.480 21.897 C 21.522 22.932,21.677 23.049,22.000 23.049 C 22.477 23.049,23.049 22.477,23.049 22.000 C 23.049 21.677,22.932 21.522,21.897 20.480 L 20.923 19.500 21.897 18.520 C 22.518 17.895,22.903 17.476,22.960 17.363 C 23.137 17.011,23.048 16.646,22.701 16.299 C 22.360 15.958,21.979 15.868,21.628 16.045 C 21.527 16.096,21.072 16.515,20.480 17.103 L 19.500 18.077 18.520 17.103 C 17.927 16.514,17.474 16.096,17.372 16.045 C 17.152 15.934,16.835 15.934,16.626 16.045 " stroke="none" fill="black" fill-rule="evenodd"></path></svg>