<svg xmlns="http://www.w3.org/2000/svg" width="24" height="24" viewBox="0 0 24 24" fill="none" stroke="currentColor" stroke-width="2" stroke-linecap="round" stroke-linejoin="round" class="icon icon-tabler icons-tabler-outline icon-tabler-filters"><path d="M11.380 2.043 C 8.784 2.299,6.676 4.219,6.115 6.840 C 6.041 7.188,6.025 7.386,6.024 8.000 C 6.023 8.802,6.090 9.246,6.306 9.874 C 6.362 10.036,6.392 10.182,6.374 10.198 C 6.355 10.214,6.196 10.277,6.020 10.338 C 4.440 10.887,3.097 12.147,2.476 13.664 C 1.587 15.836,1.966 18.178,3.494 19.966 C 4.096 20.671,5.049 21.314,6.000 21.659 C 6.893 21.982,7.985 22.083,8.900 21.926 C 10.071 21.726,11.002 21.315,11.790 20.651 L 12.000 20.474 12.182 20.633 C 12.820 21.195,13.799 21.660,14.820 21.885 C 15.286 21.988,16.318 22.030,16.749 21.963 C 19.466 21.544,21.471 19.606,21.924 16.958 C 22.165 15.553,21.801 13.857,21.009 12.688 C 20.280 11.611,19.173 10.752,17.980 10.338 C 17.804 10.277,17.645 10.214,17.626 10.198 C 17.608 10.182,17.638 10.036,17.694 9.874 C 17.907 9.253,17.975 8.802,17.975 8.000 C 17.975 7.383,17.960 7.190,17.885 6.840 C 17.626 5.631,17.109 4.660,16.269 3.805 C 14.978 2.490,13.230 1.860,11.380 2.043 M12.605 4.058 C 14.074 4.280,15.310 5.324,15.797 6.755 C 15.897 7.050,16.000 7.680,16.000 8.000 C 16.000 8.322,15.897 8.951,15.796 9.245 C 15.668 9.620,15.450 10.037,15.285 10.225 C 15.205 10.316,15.093 10.471,15.035 10.570 C 14.825 10.929,14.107 11.455,13.480 11.710 C 12.587 12.072,11.402 12.073,10.521 11.711 C 9.888 11.452,9.175 10.928,8.965 10.570 C 8.907 10.471,8.795 10.316,8.715 10.225 C 8.421 9.890,8.153 9.229,8.058 8.605 C 7.986 8.121,7.986 7.879,8.058 7.395 C 8.314 5.698,9.675 4.324,11.358 4.061 C 11.816 3.990,12.144 3.989,12.605 4.058 M7.810 12.286 C 8.398 12.865,9.273 13.404,10.060 13.672 C 10.391 13.785,11.052 13.938,11.340 13.968 C 11.443 13.978,11.478 14.016,11.591 14.240 C 12.000 15.055,12.100 16.079,11.861 17.021 C 11.579 18.133,10.736 19.145,9.690 19.629 C 9.035 19.931,8.074 20.073,7.426 19.963 C 5.784 19.684,4.544 18.559,4.114 16.960 C 3.983 16.471,3.983 15.575,4.115 15.068 C 4.279 14.436,4.508 13.968,4.887 13.491 C 5.416 12.826,6.292 12.278,7.111 12.098 C 7.515 12.010,7.536 12.016,7.810 12.286 M16.877 12.099 C 18.112 12.359,19.237 13.321,19.715 14.526 C 19.909 15.015,19.980 15.426,19.978 16.040 C 19.975 16.694,19.884 17.114,19.624 17.663 C 19.388 18.160,19.164 18.482,18.803 18.842 C 18.065 19.578,17.052 20.000,16.021 20.000 C 15.120 20.000,14.170 19.669,13.488 19.117 L 13.253 18.927 13.407 18.613 C 13.491 18.441,13.623 18.107,13.700 17.872 C 13.919 17.198,13.977 16.804,13.977 15.980 C 13.977 15.185,13.926 14.828,13.714 14.168 C 13.648 13.962,13.600 13.790,13.607 13.786 C 13.614 13.782,13.773 13.727,13.960 13.663 C 14.770 13.387,15.601 12.871,16.180 12.286 C 16.325 12.139,16.455 12.042,16.507 12.041 C 16.555 12.041,16.722 12.067,16.877 12.099 " stroke="none" fill="black" fill-rule="evenodd"></path></svg>