<svg xmlns="http://www.w3.org/2000/svg" width="24" height="24" viewBox="0 0 24 24" fill="none" stroke="currentColor" stroke-width="2" stroke-linecap="round" stroke-linejoin="round" class="icon icon-tabler icons-tabler-outline icon-tabler-carrot"><path d="M15.660 1.069 C 15.046 1.319,14.153 2.138,13.630 2.932 C 13.106 3.727,12.884 4.811,13.068 5.681 L 13.141 6.022 12.500 6.026 C 12.007 6.029,11.764 6.050,11.445 6.117 C 9.760 6.470,8.594 7.361,7.331 9.260 C 6.290 10.825,5.220 12.914,3.971 15.820 C 3.122 17.796,2.088 20.461,1.994 20.917 C 1.927 21.244,1.989 21.443,2.234 21.680 C 2.445 21.883,2.726 22.000,3.001 22.000 C 3.310 22.000,6.006 20.970,8.320 19.968 C 12.553 18.135,15.144 16.642,16.461 15.275 C 17.491 14.206,18.054 12.742,17.991 11.299 L 17.971 10.858 18.316 10.928 C 19.815 11.235,21.422 10.492,22.549 8.971 C 23.149 8.163,23.149 7.839,22.550 7.029 C 21.719 5.905,20.559 5.168,19.410 5.033 L 19.011 4.987 18.986 4.703 C 18.897 3.653,18.320 2.610,17.367 1.775 C 16.583 1.088,16.103 0.889,15.660 1.069 M16.269 3.491 C 16.751 3.994,16.972 4.446,16.976 4.940 C 16.979 5.228,16.965 5.286,16.844 5.520 C 16.648 5.900,16.514 6.070,16.176 6.377 L 15.874 6.650 15.714 6.495 C 15.510 6.297,15.232 5.881,15.115 5.599 C 15.043 5.424,15.025 5.304,15.025 5.000 C 15.025 4.574,15.088 4.371,15.346 3.969 C 15.485 3.751,15.944 3.240,16.000 3.240 C 16.015 3.240,16.136 3.353,16.269 3.491 M19.600 7.120 C 19.899 7.238,20.296 7.510,20.559 7.777 L 20.777 8.000 20.559 8.223 C 20.286 8.501,19.832 8.809,19.553 8.905 C 19.265 9.005,18.735 9.005,18.447 8.905 C 18.190 8.816,17.718 8.506,17.504 8.285 L 17.348 8.125 17.619 7.832 C 17.977 7.445,18.387 7.159,18.760 7.035 C 18.920 6.982,19.363 7.027,19.600 7.120 M12.985 8.043 C 14.392 8.239,15.600 9.331,15.905 10.683 C 15.987 11.046,15.997 11.880,15.924 12.214 L 15.873 12.448 15.206 11.789 C 14.838 11.425,14.465 11.093,14.372 11.045 C 14.021 10.868,13.640 10.958,13.299 11.299 C 12.952 11.646,12.863 12.011,13.041 12.363 C 13.096 12.472,13.440 12.852,13.931 13.348 C 14.655 14.078,14.727 14.163,14.676 14.225 C 14.645 14.263,14.410 14.451,14.154 14.642 C 12.787 15.663,10.558 16.831,7.360 18.201 C 6.043 18.765,4.755 19.288,4.733 19.267 C 4.699 19.232,5.812 16.565,6.439 15.180 C 6.742 14.512,7.466 13.000,7.500 12.966 C 7.511 12.956,7.732 13.154,7.991 13.408 C 8.512 13.918,8.719 14.049,9.000 14.049 C 9.477 14.049,10.049 13.477,10.049 13.000 C 10.049 12.697,9.919 12.511,9.197 11.780 L 8.524 11.099 8.752 10.736 C 9.069 10.230,9.472 9.673,9.769 9.331 C 10.637 8.333,11.779 7.875,12.985 8.043 " stroke="none" fill="black" fill-rule="evenodd"></path></svg>