<svg xmlns="http://www.w3.org/2000/svg" width="24" height="24" viewBox="0 0 24 24" fill="none" stroke="currentColor" stroke-width="2" stroke-linecap="round" stroke-linejoin="round" class="icon icon-tabler icons-tabler-outline icon-tabler-device-ipad-up"><path d="M6.499 2.043 C 5.380 2.233,4.461 3.048,4.114 4.160 L 4.020 4.460 4.020 12.000 L 4.020 19.540 4.114 19.840 C 4.418 20.816,5.150 21.554,6.140 21.886 L 6.420 21.980 10.020 21.993 C 12.635 22.002,13.678 21.993,13.833 21.959 C 14.261 21.866,14.486 21.537,14.486 21.003 C 14.486 20.656,14.418 20.446,14.248 20.267 C 14.001 20.007,14.219 20.022,10.280 20.000 L 6.700 19.980 6.516 19.872 C 6.415 19.813,6.284 19.700,6.225 19.623 C 5.986 19.309,6.000 19.795,6.000 12.022 C 6.000 4.006,5.975 4.631,6.303 4.303 C 6.629 3.977,6.126 4.000,13.000 4.000 C 19.874 4.000,19.371 3.977,19.697 4.303 C 20.015 4.621,20.000 4.411,20.000 8.557 C 20.000 10.888,20.015 12.273,20.041 12.365 C 20.148 12.750,20.437 12.962,20.896 12.991 C 21.381 13.022,21.699 12.882,21.880 12.558 L 21.980 12.380 21.980 8.420 L 21.980 4.460 21.886 4.160 C 21.581 3.182,20.832 2.428,19.861 2.121 L 19.540 2.020 13.120 2.014 C 9.589 2.011,6.609 2.024,6.499 2.043 M18.530 15.083 C 18.393 15.150,18.249 15.252,18.210 15.310 C 18.172 15.369,17.463 16.101,16.635 16.938 C 15.635 17.949,15.099 18.520,15.040 18.637 C 14.863 18.989,14.952 19.354,15.299 19.701 C 15.646 20.048,16.012 20.137,16.363 19.959 C 16.469 19.905,16.832 19.580,17.270 19.147 L 18.000 18.425 18.000 20.322 C 18.000 21.470,18.016 22.277,18.041 22.365 C 18.148 22.750,18.437 22.962,18.896 22.991 C 19.381 23.022,19.699 22.882,19.880 22.558 L 19.980 22.380 19.992 20.404 L 20.004 18.428 20.732 19.149 C 21.168 19.581,21.531 19.905,21.637 19.959 C 21.988 20.137,22.354 20.048,22.701 19.701 C 23.048 19.354,23.137 18.989,22.960 18.637 C 22.901 18.520,22.365 17.949,21.365 16.938 C 20.537 16.101,19.828 15.369,19.789 15.310 C 19.751 15.252,19.604 15.149,19.464 15.082 C 19.120 14.918,18.871 14.918,18.530 15.083 M8.614 17.057 C 8.377 17.131,8.212 17.261,8.109 17.453 C 8.035 17.592,8.020 17.684,8.020 18.000 C 8.020 18.331,8.033 18.403,8.120 18.558 C 8.230 18.755,8.414 18.898,8.635 18.959 C 8.722 18.983,9.470 19.000,10.500 19.000 C 11.530 19.000,12.278 18.983,12.365 18.959 C 12.586 18.898,12.770 18.755,12.880 18.558 C 12.967 18.402,12.980 18.332,12.979 18.000 C 12.978 17.687,12.962 17.591,12.890 17.453 C 12.786 17.256,12.623 17.131,12.371 17.055 C 12.114 16.978,8.862 16.980,8.614 17.057 " stroke="none" fill="black" fill-rule="evenodd"></path></svg>