<svg xmlns="http://www.w3.org/2000/svg" width="24" height="24" viewBox="0 0 24 24" fill="none" stroke="currentColor" stroke-width="2" stroke-linecap="round" stroke-linejoin="round" class="icon icon-tabler icons-tabler-outline icon-tabler-pokeball-off"><path d="M2.626 2.045 C 2.257 2.239,1.951 2.673,1.951 3.000 C 1.951 3.327,2.064 3.474,3.190 4.607 L 4.250 5.673 4.072 5.907 C 2.665 7.747,1.927 10.057,2.014 12.340 C 2.113 14.916,3.129 17.249,4.940 19.060 C 8.445 22.565,13.980 22.980,17.949 20.035 L 18.330 19.753 19.395 20.812 C 20.082 21.494,20.523 21.902,20.637 21.960 C 20.989 22.137,21.354 22.048,21.701 21.701 C 22.047 21.355,22.136 20.990,21.961 20.637 C 21.839 20.392,3.616 2.165,3.372 2.044 C 3.152 1.934,2.834 1.935,2.626 2.045 M11.100 2.043 C 9.957 2.151,8.788 2.469,7.760 2.951 C 7.110 3.256,6.893 3.512,6.928 3.932 C 6.963 4.358,7.263 4.821,7.582 4.943 C 7.842 5.042,8.090 4.999,8.594 4.765 C 8.828 4.656,9.202 4.504,9.425 4.427 C 11.990 3.536,14.946 4.069,17.060 5.803 C 17.372 6.060,18.021 6.714,18.267 7.020 C 18.801 7.686,19.291 8.584,19.562 9.396 C 19.724 9.882,19.920 10.704,19.920 10.899 L 19.920 10.999 17.824 11.009 L 15.728 11.020 15.713 10.740 C 15.696 10.415,15.530 10.045,15.199 9.599 C 14.682 8.901,13.725 8.261,13.200 8.262 C 12.789 8.263,12.456 8.566,12.305 9.077 C 12.222 9.356,12.224 9.501,12.315 9.702 C 12.402 9.893,12.553 10.028,12.901 10.222 C 13.276 10.432,13.542 10.690,13.749 11.047 C 14.104 11.658,14.415 11.818,14.940 11.660 C 15.016 11.637,15.020 11.655,15.020 12.008 C 15.020 12.331,15.033 12.404,15.120 12.558 C 15.230 12.755,15.414 12.898,15.635 12.959 C 15.724 12.984,16.587 13.000,17.850 13.000 L 19.920 13.000 19.920 13.130 C 19.919 13.515,19.605 14.566,19.255 15.357 C 19.000 15.933,18.958 16.158,19.057 16.418 C 19.241 16.900,20.036 17.227,20.477 17.002 C 20.696 16.890,20.827 16.717,21.051 16.240 C 22.660 12.818,22.200 8.837,19.845 5.800 C 19.501 5.357,18.719 4.573,18.240 4.191 C 16.829 3.068,15.111 2.333,13.345 2.097 C 12.779 2.022,11.619 1.994,11.100 2.043 M7.125 8.545 L 8.551 9.970 8.430 10.215 C 8.363 10.349,8.269 10.576,8.220 10.720 L 8.133 10.980 6.106 10.990 C 4.195 11.000,4.080 10.997,4.080 10.930 C 4.080 10.892,4.107 10.716,4.141 10.540 C 4.351 9.434,4.758 8.446,5.386 7.510 C 5.531 7.296,5.660 7.120,5.674 7.120 C 5.688 7.120,6.341 7.761,7.125 8.545 M11.298 12.718 C 11.957 13.378,12.486 13.927,12.473 13.940 C 12.419 13.994,11.870 14.008,11.632 13.962 C 10.825 13.805,10.169 13.136,10.037 12.333 C 9.991 12.057,10.015 11.520,10.073 11.520 C 10.088 11.520,10.640 12.059,11.298 12.718 M8.221 13.280 C 8.689 14.666,9.888 15.684,11.355 15.941 C 12.155 16.081,13.042 15.945,13.800 15.566 L 14.031 15.451 15.456 16.876 C 16.239 17.659,16.880 18.313,16.880 18.328 C 16.880 18.343,16.688 18.484,16.454 18.641 C 15.488 19.286,14.434 19.699,13.220 19.907 C 12.616 20.010,11.294 20.000,10.680 19.888 C 9.023 19.584,7.665 18.901,6.482 17.775 C 5.322 16.671,4.495 15.177,4.178 13.616 C 4.124 13.349,4.080 13.101,4.080 13.065 C 4.080 13.005,4.254 13.000,6.106 13.010 L 8.133 13.020 8.221 13.280 " stroke="none" fill="black" fill-rule="evenodd"></path></svg>