<svg xmlns="http://www.w3.org/2000/svg" width="24" height="24" viewBox="0 0 24 24" fill="none" stroke="currentColor" stroke-width="2" stroke-linecap="round" stroke-linejoin="round" class="icon icon-tabler icons-tabler-outline icon-tabler-chevrons-up"><path d="M11.620 5.046 C 11.384 5.167,6.154 10.407,6.039 10.637 C 5.863 10.990,5.953 11.355,6.299 11.701 C 6.646 12.048,7.010 12.137,7.363 11.960 C 7.486 11.899,8.224 11.189,9.770 9.647 L 12.000 7.422 14.230 9.647 C 15.776 11.189,16.514 11.899,16.637 11.960 C 16.990 12.137,17.354 12.048,17.701 11.701 C 18.047 11.355,18.137 10.990,17.961 10.637 C 17.840 10.395,12.613 5.164,12.372 5.044 C 12.151 4.934,11.836 4.935,11.620 5.046 M11.620 11.046 C 11.384 11.167,6.154 16.407,6.039 16.637 C 5.863 16.990,5.953 17.355,6.299 17.701 C 6.646 18.048,7.010 18.137,7.363 17.960 C 7.486 17.899,8.224 17.189,9.770 15.647 L 12.000 13.422 14.230 15.647 C 15.776 17.189,16.514 17.899,16.637 17.960 C 16.990 18.137,17.354 18.048,17.701 17.701 C 18.047 17.355,18.137 16.990,17.961 16.637 C 17.840 16.395,12.613 11.164,12.372 11.044 C 12.151 10.934,11.836 10.935,11.620 11.046 " stroke="none" fill="black" fill-rule="evenodd"></path></svg>