<svg xmlns="http://www.w3.org/2000/svg" width="24" height="24" viewBox="0 0 24 24" fill="none" stroke="currentColor" stroke-width="2" stroke-linecap="round" stroke-linejoin="round" class="icon icon-tabler icons-tabler-outline icon-tabler-language-hiragana"><path d="M6.614 3.057 C 6.257 3.169,6.058 3.415,6.012 3.803 L 5.989 4.000 4.901 4.000 C 3.744 4.000,3.570 4.022,3.322 4.199 C 3.100 4.357,3.020 4.568,3.020 5.000 C 3.020 5.331,3.033 5.403,3.120 5.558 C 3.230 5.755,3.414 5.898,3.635 5.959 C 3.716 5.982,4.270 6.000,4.890 6.000 L 6.000 6.000 6.000 6.539 L 6.000 7.078 5.890 7.101 C 5.557 7.170,4.981 7.386,4.708 7.544 C 3.662 8.151,3.085 9.227,3.015 10.700 C 2.995 11.119,3.003 11.275,3.058 11.500 C 3.274 12.380,3.953 13.180,4.860 13.624 C 5.407 13.891,5.756 13.971,6.400 13.975 C 7.028 13.979,7.262 13.928,7.820 13.664 C 9.013 13.099,10.124 11.814,10.641 10.402 L 10.750 10.104 10.855 10.309 C 10.990 10.576,11.021 10.861,10.962 11.303 C 10.852 12.131,10.490 12.629,9.712 13.023 C 9.281 13.241,9.105 13.393,9.017 13.621 C 8.891 13.953,9.073 14.565,9.379 14.834 C 9.686 15.103,10.021 15.094,10.633 14.801 C 11.271 14.495,11.907 13.963,12.276 13.426 C 12.762 12.719,13.039 11.659,12.987 10.700 C 12.957 10.155,12.887 9.885,12.650 9.400 C 12.492 9.077,12.406 8.962,12.082 8.635 C 11.512 8.060,10.936 7.724,10.005 7.423 C 9.582 7.287,8.593 7.080,8.362 7.080 C 8.301 7.080,8.194 7.069,8.125 7.055 L 8.000 7.030 8.000 6.515 L 8.000 6.000 9.610 6.000 C 10.565 6.000,11.279 5.983,11.365 5.959 C 11.586 5.898,11.770 5.755,11.880 5.558 C 11.967 5.402,11.980 5.332,11.979 5.000 C 11.978 4.567,11.898 4.355,11.678 4.199 C 11.416 4.012,11.290 4.000,9.599 4.000 L 8.010 4.000 7.983 3.794 C 7.948 3.531,7.835 3.310,7.678 3.199 C 7.414 3.010,6.957 2.950,6.614 3.057 M8.610 9.135 C 8.759 9.164,8.890 9.197,8.901 9.208 C 8.942 9.249,8.745 9.793,8.556 10.160 C 8.355 10.550,8.220 10.754,8.187 10.719 C 8.170 10.702,8.116 10.120,8.059 9.350 L 8.039 9.080 8.190 9.081 C 8.272 9.082,8.462 9.106,8.610 9.135 M6.078 9.780 C 6.132 10.532,6.213 11.123,6.326 11.613 C 6.371 11.807,6.397 11.976,6.384 11.989 C 6.345 12.028,5.914 11.917,5.720 11.819 C 5.468 11.690,5.218 11.465,5.094 11.254 C 4.995 11.084,4.990 11.055,5.016 10.721 C 5.077 9.910,5.310 9.472,5.815 9.220 C 5.925 9.165,6.018 9.125,6.023 9.130 C 6.027 9.136,6.052 9.428,6.078 9.780 M15.577 10.036 C 15.488 10.076,15.358 10.178,15.288 10.263 C 15.209 10.359,14.650 11.570,13.776 13.538 C 13.013 15.255,12.294 16.867,12.178 17.120 C 11.832 17.873,11.113 19.524,11.034 19.749 C 10.847 20.280,11.067 20.707,11.640 20.926 C 12.112 21.105,12.441 21.052,12.697 20.753 C 12.780 20.656,12.975 20.276,13.187 19.796 L 13.540 19.000 16.000 19.000 L 18.460 19.000 18.813 19.796 C 19.025 20.276,19.220 20.656,19.303 20.753 C 19.559 21.052,19.888 21.105,20.360 20.926 C 20.933 20.707,21.153 20.280,20.966 19.749 C 20.891 19.536,20.128 17.777,19.921 17.340 C 19.859 17.208,19.157 15.633,18.361 13.840 C 17.565 12.047,16.870 10.513,16.817 10.430 C 16.694 10.242,16.465 10.096,16.172 10.019 C 15.877 9.943,15.776 9.945,15.577 10.036 M16.782 15.225 C 17.199 16.163,17.546 16.946,17.553 16.965 C 17.561 16.985,16.871 17.000,16.000 17.000 C 15.129 17.000,14.439 16.985,14.447 16.965 C 14.543 16.715,15.983 13.520,16.000 13.520 C 16.013 13.520,16.365 14.287,16.782 15.225 " stroke="none" fill="black" fill-rule="evenodd"></path></svg>