<svg xmlns="http://www.w3.org/2000/svg" width="24" height="24" viewBox="0 0 24 24" fill="none" stroke="currentColor" stroke-width="2" stroke-linecap="round" stroke-linejoin="round" class="icon icon-tabler icons-tabler-outline icon-tabler-heart-check"><path d="M7.360 3.026 C 6.162 3.208,5.471 3.463,4.598 4.045 C 4.166 4.333,3.397 5.077,3.113 5.480 C 2.374 6.532,1.996 7.722,1.998 8.994 C 2.000 10.482,2.513 11.853,3.469 12.924 C 3.618 13.092,4.676 14.153,5.820 15.282 C 6.964 16.412,8.476 17.906,9.180 18.603 C 10.019 19.434,10.521 19.902,10.637 19.960 C 10.989 20.137,11.354 20.048,11.701 19.701 C 12.048 19.354,12.137 18.989,11.960 18.637 C 11.878 18.475,10.241 16.832,5.945 12.602 C 5.052 11.723,4.728 11.350,4.500 10.943 C 3.870 9.817,3.837 8.356,4.415 7.212 C 4.639 6.769,4.809 6.532,5.150 6.186 C 5.969 5.355,6.989 4.959,8.180 5.011 C 9.402 5.065,10.316 5.550,11.233 6.631 C 11.603 7.066,11.953 7.158,12.391 6.935 C 12.558 6.849,12.691 6.731,12.911 6.469 C 13.938 5.253,15.500 4.760,17.060 5.160 C 17.908 5.377,18.806 6.021,19.304 6.768 C 19.750 7.435,19.971 8.161,19.972 8.960 C 19.973 9.927,19.730 10.690,19.194 11.400 C 19.066 11.570,18.264 12.385,17.343 13.280 C 16.449 14.149,15.674 14.923,15.621 15.000 C 15.494 15.184,15.440 15.334,15.440 15.503 C 15.440 15.952,16.041 16.556,16.490 16.559 C 16.806 16.561,16.964 16.437,18.260 15.176 C 20.309 13.181,20.575 12.912,20.788 12.625 C 21.744 11.332,22.165 9.700,21.937 8.169 C 21.570 5.694,19.710 3.683,17.308 3.164 C 15.509 2.775,13.677 3.197,12.252 4.327 L 12.004 4.524 11.772 4.335 C 10.964 3.676,9.925 3.220,8.860 3.057 C 8.535 3.007,7.611 2.988,7.360 3.026 M20.620 16.046 C 20.525 16.095,19.753 16.834,18.731 17.853 L 17.001 19.577 16.271 18.854 C 15.856 18.444,15.467 18.094,15.372 18.045 C 15.021 17.868,14.640 17.958,14.299 18.299 C 13.952 18.646,13.863 19.010,14.040 19.363 C 14.162 19.607,16.393 21.838,16.637 21.960 C 16.868 22.076,17.132 22.076,17.363 21.961 C 17.486 21.899,18.197 21.215,19.706 19.706 C 21.215 18.197,21.899 17.486,21.961 17.363 C 22.137 17.010,22.048 16.645,21.701 16.299 C 21.361 15.959,20.967 15.867,20.620 16.046 " stroke="none" fill="black" fill-rule="evenodd"></path></svg>