<svg xmlns="http://www.w3.org/2000/svg" width="24" height="24" viewBox="0 0 24 24" fill="none" stroke="currentColor" stroke-width="2" stroke-linecap="round" stroke-linejoin="round" class="icon icon-tabler icons-tabler-outline icon-tabler-number-1-small"><path d="M11.620 7.046 C 11.390 7.165,9.153 9.411,9.040 9.637 C 8.863 9.990,8.952 10.354,9.299 10.701 C 9.641 11.043,10.013 11.137,10.349 10.965 C 10.440 10.919,10.623 10.780,10.757 10.656 L 11.000 10.431 11.000 13.326 C 11.000 15.141,11.015 16.274,11.041 16.365 C 11.148 16.750,11.437 16.962,11.896 16.991 C 12.381 17.022,12.699 16.882,12.880 16.558 L 12.980 16.380 12.980 12.040 L 12.980 7.700 12.871 7.514 C 12.758 7.323,12.558 7.141,12.332 7.025 C 12.153 6.934,11.818 6.944,11.620 7.046 " stroke="none" fill="black" fill-rule="evenodd"></path></svg>