<svg xmlns="http://www.w3.org/2000/svg" width="24" height="24" viewBox="0 0 24 24" fill="none" stroke="currentColor" stroke-width="2" stroke-linecap="round" stroke-linejoin="round" class="icon icon-tabler icons-tabler-outline icon-tabler-truck-return"><path d="M3.477 4.073 C 2.806 4.249,2.238 4.823,2.060 5.508 C 2.008 5.706,2.000 6.518,2.000 11.478 C 2.000 15.201,2.015 17.271,2.041 17.365 C 2.102 17.586,2.245 17.770,2.442 17.880 C 2.610 17.974,2.662 17.981,3.387 18.000 L 4.155 18.020 4.316 18.340 C 4.686 19.071,5.360 19.637,6.160 19.886 C 6.594 20.021,7.406 20.021,7.840 19.886 C 8.645 19.635,9.318 19.069,9.688 18.330 L 9.853 18.000 12.000 18.000 L 14.147 18.000 14.312 18.330 C 14.682 19.069,15.355 19.635,16.160 19.886 C 16.594 20.021,17.406 20.021,17.840 19.886 C 18.645 19.635,19.318 19.069,19.688 18.330 L 19.853 18.000 20.537 18.000 C 20.912 18.000,21.285 17.981,21.365 17.959 C 21.586 17.898,21.770 17.755,21.880 17.558 L 21.980 17.380 21.992 14.140 C 22.001 11.763,21.992 10.857,21.958 10.740 C 21.892 10.513,18.851 5.453,18.672 5.273 C 18.405 5.004,18.366 5.000,16.058 5.000 L 14.010 5.000 13.983 4.794 C 13.948 4.531,13.835 4.310,13.678 4.199 C 13.392 3.995,13.527 4.000,8.464 4.002 C 4.132 4.004,3.718 4.010,3.477 4.073 M12.000 8.000 L 12.000 10.000 11.216 10.000 L 10.431 10.000 10.656 9.757 C 11.055 9.326,11.144 9.002,10.962 8.644 C 10.852 8.428,10.576 8.150,10.365 8.043 C 10.150 7.933,9.849 7.934,9.628 8.045 C 9.527 8.096,9.061 8.524,8.460 9.119 C 7.910 9.662,7.399 10.149,7.324 10.200 C 7.148 10.321,6.951 10.745,6.951 11.002 C 6.951 11.334,7.058 11.470,8.294 12.706 C 9.532 13.943,9.666 14.049,10.000 14.049 C 10.477 14.049,11.049 13.477,11.049 13.000 C 11.049 12.760,10.939 12.549,10.656 12.243 L 10.431 12.000 11.826 12.000 C 12.636 12.000,13.281 11.983,13.365 11.959 C 13.586 11.898,13.770 11.755,13.880 11.558 L 13.980 11.380 13.992 9.190 L 14.003 7.000 15.716 7.000 L 17.428 7.000 18.714 9.143 L 20.000 11.287 20.000 13.643 C 20.000 15.903,19.997 16.000,19.927 16.000 C 19.875 16.000,19.805 15.904,19.688 15.670 C 19.321 14.938,18.642 14.363,17.861 14.125 C 17.588 14.042,17.458 14.027,17.000 14.027 C 16.542 14.027,16.412 14.042,16.139 14.125 C 15.358 14.363,14.679 14.938,14.312 15.670 L 14.147 16.000 12.000 16.000 L 9.853 16.000 9.688 15.670 C 9.321 14.938,8.642 14.363,7.861 14.125 C 7.588 14.042,7.458 14.027,7.000 14.027 C 6.542 14.027,6.412 14.042,6.139 14.125 C 5.358 14.363,4.679 14.938,4.312 15.670 C 4.195 15.904,4.125 16.000,4.073 16.000 C 4.003 16.000,4.000 15.825,4.000 11.000 L 4.000 6.000 8.000 6.000 L 12.000 6.000 12.000 8.000 M7.334 16.064 C 7.698 16.188,8.000 16.613,8.000 17.001 C 8.000 17.331,7.784 17.696,7.484 17.872 C 7.328 17.963,7.254 17.980,7.000 17.980 C 6.746 17.980,6.672 17.963,6.516 17.872 C 5.937 17.531,5.833 16.774,6.301 16.306 C 6.587 16.019,6.952 15.934,7.334 16.064 M17.334 16.064 C 17.698 16.188,18.000 16.613,18.000 17.001 C 18.000 17.331,17.784 17.696,17.484 17.872 C 17.328 17.963,17.254 17.980,17.000 17.980 C 16.746 17.980,16.672 17.963,16.516 17.872 C 15.934 17.529,15.831 16.775,16.304 16.303 C 16.587 16.019,16.954 15.935,17.334 16.064 " stroke="none" fill="black" fill-rule="evenodd"></path></svg>