<svg xmlns="http://www.w3.org/2000/svg" width="24" height="24" viewBox="0 0 24 24" fill="none" stroke="currentColor" stroke-width="2" stroke-linecap="round" stroke-linejoin="round" class="icon icon-tabler icons-tabler-outline icon-tabler-brand-messenger"><path d="M10.720 3.058 C 8.204 3.383,6.036 4.438,4.419 6.125 C 4.024 6.537,3.591 7.094,3.303 7.558 C 1.713 10.129,1.587 13.147,2.958 15.790 L 3.193 16.242 2.679 17.784 C 2.396 18.632,2.129 19.401,2.086 19.493 C 1.980 19.721,1.943 20.150,2.012 20.351 C 2.089 20.574,2.305 20.826,2.496 20.915 C 2.758 21.038,3.150 21.057,3.427 20.962 C 3.658 20.883,7.387 20.075,7.540 20.071 C 7.584 20.069,7.818 20.145,8.060 20.239 C 9.356 20.743,10.609 20.972,12.060 20.969 C 17.078 20.960,21.310 17.582,21.937 13.086 C 22.066 12.164,22.006 11.006,21.781 10.060 C 21.021 6.864,18.270 4.220,14.787 3.337 C 13.869 3.104,13.295 3.034,12.180 3.018 C 11.457 3.008,11.012 3.020,10.720 3.058 M13.540 5.113 C 14.482 5.283,15.076 5.477,15.900 5.880 C 18.016 6.917,19.426 8.642,19.886 10.760 C 19.964 11.119,19.978 11.296,19.978 11.980 C 19.978 12.664,19.964 12.841,19.886 13.200 C 19.610 14.470,18.960 15.645,18.006 16.597 C 16.816 17.785,15.229 18.569,13.395 18.876 C 12.896 18.960,12.038 18.996,11.463 18.957 C 10.350 18.883,9.448 18.666,8.445 18.234 C 8.195 18.125,7.914 18.027,7.820 18.014 C 7.694 17.997,7.257 18.074,6.103 18.319 C 5.251 18.500,4.547 18.641,4.538 18.631 C 4.529 18.622,4.680 18.139,4.874 17.557 C 5.068 16.976,5.250 16.404,5.278 16.288 C 5.346 16.007,5.295 15.828,5.010 15.348 C 4.476 14.447,4.219 13.753,4.081 12.840 C 4.023 12.454,4.023 11.506,4.081 11.120 C 4.293 9.721,4.896 8.527,5.939 7.446 C 7.145 6.195,8.910 5.327,10.782 5.065 C 11.411 4.977,12.934 5.003,13.540 5.113 M10.820 9.995 C 10.638 10.042,10.615 10.056,8.899 11.201 C 7.376 12.216,7.083 12.443,6.997 12.667 C 6.846 13.064,7.162 13.736,7.606 13.963 C 7.797 14.061,8.090 14.061,8.303 13.964 C 8.392 13.924,9.005 13.530,9.665 13.090 L 10.865 12.290 11.682 13.098 C 12.380 13.788,12.529 13.917,12.697 13.973 C 12.927 14.051,13.005 14.055,13.213 13.997 C 13.418 13.940,16.664 11.775,16.833 11.582 C 16.998 11.394,17.040 11.285,17.040 11.047 C 17.039 10.696,16.726 10.206,16.394 10.037 C 16.203 9.939,15.910 9.939,15.697 10.036 C 15.608 10.076,14.995 10.470,14.335 10.910 L 13.134 11.711 12.337 10.923 C 11.899 10.489,11.476 10.105,11.397 10.069 C 11.218 9.986,10.976 9.956,10.820 9.995 " stroke="none" fill="black" fill-rule="evenodd"></path></svg>