<svg xmlns="http://www.w3.org/2000/svg" width="24" height="24" viewBox="0 0 24 24" fill="none" stroke="currentColor" stroke-width="2" stroke-linecap="round" stroke-linejoin="round" class="icon icon-tabler icons-tabler-outline icon-tabler-users-plus"><path d="M8.400 2.044 C 6.761 2.229,5.261 3.290,4.526 4.785 C 4.158 5.533,4.020 6.136,4.020 7.000 C 4.020 7.670,4.078 8.044,4.268 8.600 C 4.846 10.291,6.253 11.525,8.040 11.907 C 8.511 12.008,9.489 12.008,9.960 11.907 C 11.488 11.580,12.748 10.630,13.433 9.288 C 13.838 8.494,13.980 7.899,13.980 7.000 C 13.980 6.101,13.838 5.506,13.433 4.713 C 12.794 3.461,11.604 2.510,10.240 2.162 C 9.669 2.016,9.019 1.974,8.400 2.044 M15.569 2.168 C 15.265 2.271,15.001 2.755,14.993 3.222 C 14.989 3.426,15.008 3.507,15.094 3.653 C 15.226 3.879,15.371 3.969,15.882 4.141 C 16.106 4.216,16.373 4.326,16.475 4.385 C 17.149 4.775,17.656 5.413,17.886 6.160 C 17.962 6.407,17.979 6.551,17.979 6.980 C 17.980 7.595,17.934 7.811,17.699 8.300 C 17.317 9.095,16.727 9.595,15.816 9.896 C 15.197 10.100,14.985 10.327,14.993 10.776 C 15.001 11.247,15.185 11.629,15.484 11.797 C 15.730 11.936,16.049 11.920,16.573 11.745 C 17.329 11.492,17.949 11.120,18.477 10.602 C 19.522 9.578,20.044 8.273,19.989 6.825 C 19.966 6.222,19.902 5.855,19.734 5.366 C 19.335 4.200,18.395 3.120,17.301 2.570 C 16.582 2.208,15.909 2.052,15.569 2.168 M9.861 4.129 C 10.804 4.405,11.584 5.183,11.875 6.139 C 11.958 6.412,11.973 6.542,11.973 7.000 C 11.973 7.458,11.958 7.588,11.875 7.861 C 11.582 8.822,10.819 9.581,9.840 9.886 C 9.406 10.021,8.594 10.021,8.160 9.886 C 7.181 9.581,6.418 8.822,6.125 7.861 C 6.042 7.588,6.027 7.458,6.027 7.000 C 6.027 6.542,6.042 6.412,6.125 6.139 C 6.456 5.054,7.371 4.245,8.499 4.040 C 8.832 3.980,9.500 4.023,9.861 4.129 M6.400 14.044 C 4.761 14.229,3.261 15.290,2.526 16.785 C 2.344 17.154,2.194 17.581,2.097 18.000 C 2.041 18.245,2.025 18.563,2.011 19.744 C 2.000 20.701,2.008 21.243,2.037 21.348 C 2.144 21.748,2.430 21.961,2.896 21.991 C 3.381 22.022,3.699 21.882,3.880 21.558 L 3.980 21.380 4.003 19.920 C 4.026 18.520,4.031 18.447,4.125 18.139 C 4.416 17.186,5.178 16.423,6.139 16.122 L 6.460 16.022 8.800 16.008 C 10.424 15.999,11.238 16.009,11.460 16.041 C 11.914 16.106,12.328 16.279,12.785 16.594 C 13.369 16.997,13.547 17.038,13.916 16.855 C 14.310 16.658,14.644 16.096,14.578 15.742 C 14.536 15.520,14.350 15.279,14.032 15.037 C 13.289 14.469,12.527 14.155,11.620 14.044 C 11.195 13.992,6.861 13.992,6.400 14.044 M18.614 15.057 C 18.377 15.131,18.212 15.261,18.109 15.453 C 18.024 15.613,18.020 15.668,18.008 16.810 L 17.996 18.000 16.904 18.000 C 15.744 18.000,15.570 18.022,15.322 18.199 C 15.100 18.357,15.020 18.568,15.020 19.000 C 15.020 19.331,15.033 19.403,15.120 19.558 C 15.230 19.755,15.414 19.898,15.635 19.959 C 15.716 19.982,16.270 20.000,16.890 20.000 L 18.000 20.000 18.000 21.110 C 18.000 21.730,18.018 22.284,18.041 22.365 C 18.148 22.750,18.437 22.962,18.896 22.991 C 19.381 23.022,19.699 22.882,19.880 22.558 C 19.979 22.381,19.980 22.374,19.993 21.190 L 20.005 20.000 21.113 20.000 C 21.731 20.000,22.284 19.982,22.365 19.959 C 22.586 19.898,22.770 19.755,22.880 19.558 C 22.967 19.402,22.980 19.332,22.979 19.000 C 22.978 18.567,22.898 18.355,22.678 18.199 C 22.430 18.022,22.256 18.000,21.096 18.000 L 20.005 18.000 19.993 16.810 C 19.981 15.669,19.976 15.613,19.891 15.453 C 19.842 15.362,19.746 15.247,19.678 15.199 C 19.414 15.010,18.957 14.950,18.614 15.057 " stroke="none" fill="black" fill-rule="evenodd"></path></svg>