<svg xmlns="http://www.w3.org/2000/svg" width="24" height="24" viewBox="0 0 24 24" fill="none" stroke="currentColor" stroke-width="2" stroke-linecap="round" stroke-linejoin="round" class="icon icon-tabler icons-tabler-outline icon-tabler-transaction-pound"><path d="M4.499 2.040 C 3.363 2.246,2.460 3.049,2.114 4.160 C 1.979 4.594,1.979 5.406,2.114 5.840 C 2.421 6.826,3.174 7.579,4.160 7.886 C 4.628 8.032,5.521 8.015,5.943 7.854 C 5.992 7.834,6.000 8.209,6.000 10.599 C 6.000 13.239,6.004 13.386,6.083 13.773 C 6.357 15.118,7.249 16.195,8.512 16.704 C 9.082 16.934,9.512 17.000,10.426 17.000 C 10.863 17.000,11.285 16.981,11.365 16.959 C 11.586 16.898,11.770 16.755,11.880 16.558 C 11.967 16.402,11.980 16.332,11.979 16.000 C 11.978 15.687,11.962 15.591,11.890 15.453 C 11.694 15.082,11.436 15.000,10.462 15.000 C 9.680 15.000,9.439 14.962,9.083 14.781 C 8.816 14.646,8.449 14.297,8.281 14.017 C 7.996 13.545,8.005 13.677,8.002 9.630 L 8.000 6.000 11.073 6.000 L 14.147 6.000 14.312 6.330 C 14.682 7.069,15.355 7.635,16.160 7.886 C 16.594 8.021,17.406 8.021,17.840 7.886 C 18.826 7.579,19.579 6.826,19.886 5.840 C 20.021 5.406,20.021 4.594,19.886 4.160 C 19.581 3.181,18.822 2.418,17.861 2.125 C 17.588 2.042,17.458 2.027,17.000 2.027 C 16.542 2.027,16.412 2.042,16.139 2.125 C 15.358 2.363,14.679 2.938,14.312 3.670 L 14.147 4.000 11.000 4.000 L 7.853 4.000 7.688 3.670 C 7.320 2.935,6.631 2.354,5.861 2.129 C 5.500 2.023,4.832 1.980,4.499 2.040 M5.310 4.061 C 5.688 4.173,6.000 4.598,6.000 5.001 C 6.000 5.331,5.784 5.696,5.484 5.872 C 5.328 5.963,5.254 5.980,5.000 5.980 C 4.746 5.980,4.672 5.963,4.516 5.872 C 3.935 5.530,3.833 4.774,4.304 4.303 C 4.583 4.024,4.916 3.944,5.310 4.061 M17.310 4.061 C 17.688 4.173,18.000 4.598,18.000 5.001 C 18.000 5.331,17.784 5.696,17.484 5.872 C 17.328 5.963,17.254 5.980,17.000 5.980 C 16.746 5.980,16.672 5.963,16.516 5.872 C 15.932 5.528,15.831 4.775,16.307 4.299 C 16.582 4.024,16.918 3.944,17.310 4.061 M18.499 11.040 C 17.373 11.244,16.478 12.034,16.116 13.140 C 16.031 13.403,16.024 13.498,16.009 14.710 L 15.993 16.000 15.403 16.000 C 14.577 16.000,14.299 16.097,14.109 16.453 C 14.035 16.592,14.020 16.684,14.020 17.000 C 14.020 17.331,14.033 17.403,14.120 17.558 C 14.230 17.755,14.414 17.898,14.635 17.959 C 14.715 17.981,15.055 18.000,15.390 18.000 C 16.068 18.000,16.037 17.984,15.945 18.290 C 15.815 18.723,15.512 18.945,14.976 19.000 C 14.248 19.076,13.964 19.399,14.009 20.104 C 14.038 20.563,14.250 20.852,14.635 20.959 C 14.832 21.014,21.168 21.014,21.365 20.959 C 21.586 20.898,21.770 20.755,21.880 20.558 C 21.967 20.402,21.980 20.332,21.979 20.000 C 21.978 19.567,21.898 19.355,21.678 19.199 C 21.414 19.011,21.296 19.000,19.514 19.000 C 18.593 19.000,17.840 18.995,17.840 18.990 C 17.841 18.985,17.867 18.894,17.899 18.789 C 17.931 18.684,17.969 18.463,17.984 18.299 L 18.011 18.000 18.616 18.000 C 18.948 18.000,19.285 17.981,19.365 17.959 C 19.586 17.898,19.770 17.755,19.880 17.558 C 19.967 17.402,19.980 17.332,19.979 17.000 C 19.978 16.687,19.962 16.591,19.890 16.453 C 19.702 16.097,19.424 16.000,18.594 16.000 L 18.000 16.000 18.000 14.947 C 18.000 13.703,18.022 13.584,18.303 13.303 C 18.486 13.120,18.763 13.000,19.000 13.000 C 19.223 13.000,19.510 13.120,19.679 13.283 C 19.892 13.491,19.958 13.650,20.001 14.067 C 20.068 14.718,20.370 15.000,21.000 15.000 C 21.428 15.000,21.713 14.856,21.880 14.558 C 21.971 14.396,21.980 14.338,21.979 13.920 C 21.978 13.555,21.959 13.398,21.885 13.160 C 21.583 12.182,20.811 11.407,19.861 11.129 C 19.500 11.023,18.832 10.980,18.499 11.040 " stroke="none" fill="black" fill-rule="evenodd"></path></svg>