<svg xmlns="http://www.w3.org/2000/svg" width="24" height="24" viewBox="0 0 24 24" fill="none" stroke="currentColor" stroke-width="2" stroke-linecap="round" stroke-linejoin="round" class="icon icon-tabler icons-tabler-outline icon-tabler-zodiac-sagittarius"><path d="M16.219 2.999 L 12.658 3.020 12.459 3.122 C 12.119 3.297,11.978 3.606,12.009 4.104 C 12.038 4.563,12.250 4.852,12.635 4.959 C 12.725 4.984,13.696 5.000,15.180 5.000 L 17.580 5.000 13.291 9.289 L 9.002 13.578 8.011 12.596 C 7.406 11.996,6.958 11.584,6.860 11.538 C 6.652 11.438,6.346 11.439,6.140 11.540 C 5.926 11.644,5.614 11.961,5.519 12.170 C 5.476 12.264,5.442 12.412,5.442 12.500 C 5.442 12.820,5.554 12.967,6.591 14.009 L 7.577 15.001 5.353 17.230 C 3.811 18.776,3.101 19.514,3.040 19.637 C 2.863 19.990,2.952 20.354,3.299 20.701 C 3.646 21.048,4.010 21.137,4.363 20.960 C 4.486 20.899,5.224 20.190,6.769 18.647 L 8.998 16.423 10.009 17.425 C 11.118 18.524,11.212 18.592,11.584 18.550 C 11.995 18.503,12.511 17.978,12.550 17.565 C 12.584 17.212,12.493 17.087,11.404 15.989 L 10.422 14.998 14.711 10.709 L 19.000 6.420 19.000 8.820 C 19.000 10.304,19.016 11.275,19.041 11.365 C 19.148 11.750,19.437 11.962,19.896 11.991 C 20.381 12.022,20.699 11.882,20.880 11.558 L 20.980 11.380 21.007 7.720 C 21.021 5.707,21.035 4.001,21.037 3.929 C 21.041 3.741,20.835 3.310,20.690 3.207 C 20.466 3.048,20.205 2.959,19.987 2.969 C 19.873 2.975,18.178 2.988,16.219 2.999 " stroke="none" fill="black" fill-rule="evenodd"></path></svg>