<svg xmlns="http://www.w3.org/2000/svg" width="24" height="24" viewBox="0 0 24 24" fill="none" stroke="currentColor" stroke-width="2" stroke-linecap="round" stroke-linejoin="round" class="icon icon-tabler icons-tabler-outline icon-tabler-devices-pin"><path d="M3.477 3.073 C 2.806 3.249,2.238 3.823,2.060 4.508 C 2.008 4.706,2.000 5.577,2.000 11.000 C 2.000 17.828,1.988 17.462,2.225 17.930 C 2.361 18.199,2.801 18.639,3.070 18.775 C 3.529 19.008,3.362 19.000,7.978 19.000 C 10.696 19.000,12.272 18.985,12.365 18.959 C 12.586 18.898,12.770 18.755,12.880 18.558 C 12.967 18.402,12.980 18.332,12.979 18.000 C 12.978 17.567,12.898 17.355,12.678 17.199 C 12.394 16.996,12.477 17.000,8.094 17.000 L 4.000 17.000 4.000 11.000 L 4.000 5.000 10.500 5.000 L 17.000 5.000 17.000 6.000 L 17.000 7.000 15.370 7.002 C 13.545 7.005,13.417 7.020,12.983 7.281 C 12.703 7.449,12.354 7.816,12.219 8.083 C 12.000 8.514,12.000 8.513,12.000 11.478 C 12.000 13.192,12.016 14.274,12.041 14.365 C 12.148 14.750,12.437 14.962,12.896 14.991 C 13.381 15.022,13.699 14.882,13.880 14.558 L 13.980 14.380 13.991 11.690 L 14.003 9.000 14.496 9.000 L 14.989 9.000 15.013 9.203 C 15.058 9.583,15.288 9.863,15.635 9.959 C 15.826 10.012,18.174 10.012,18.365 9.959 C 18.712 9.863,18.935 9.593,18.983 9.210 L 19.009 9.000 19.505 9.000 L 20.000 9.000 20.000 10.110 C 20.000 10.730,20.018 11.284,20.041 11.365 C 20.148 11.750,20.437 11.962,20.896 11.991 C 21.381 12.022,21.699 11.882,21.880 11.558 L 21.980 11.380 21.992 10.097 C 22.006 8.700,21.983 8.481,21.782 8.083 C 21.646 7.816,21.297 7.449,21.017 7.281 C 20.658 7.065,20.361 7.005,19.630 7.002 L 19.000 7.000 18.999 5.890 C 18.999 4.691,18.970 4.456,18.781 4.083 C 18.646 3.816,18.297 3.449,18.017 3.281 C 17.527 2.986,18.042 3.005,10.500 3.005 C 4.239 3.005,3.721 3.010,3.477 3.073 M18.340 14.060 C 17.913 14.130,17.642 14.217,17.275 14.399 C 16.236 14.915,15.537 15.720,15.185 16.807 C 14.791 18.021,15.052 19.450,15.851 20.460 C 16.273 20.993,18.165 22.676,18.610 22.914 C 18.892 23.065,19.097 23.072,19.373 22.941 C 19.537 22.863,20.661 21.912,21.461 21.175 C 22.256 20.442,22.645 19.846,22.868 19.015 C 22.962 18.669,22.975 18.543,22.976 18.000 C 22.977 17.486,22.962 17.325,22.890 17.059 C 22.555 15.825,21.863 14.972,20.736 14.406 C 20.015 14.045,19.175 13.924,18.340 14.060 M19.383 16.043 C 19.962 16.149,20.496 16.556,20.760 17.093 C 20.848 17.273,20.941 17.528,20.964 17.660 C 21.049 18.125,20.934 18.671,20.660 19.101 C 20.538 19.293,19.979 19.839,19.309 20.421 L 18.997 20.691 18.909 20.614 C 17.924 19.754,17.524 19.372,17.355 19.130 C 17.082 18.739,16.949 18.129,17.035 17.660 C 17.107 17.269,17.361 16.802,17.640 16.550 C 18.143 16.095,18.729 15.924,19.383 16.043 M18.614 17.057 C 18.221 17.180,18.039 17.435,18.009 17.906 C 17.962 18.621,18.306 19.000,19.000 19.000 C 19.698 19.000,20.043 18.616,19.989 17.900 C 19.963 17.563,19.859 17.327,19.678 17.199 C 19.414 17.010,18.957 16.950,18.614 17.057 " stroke="none" fill="black" fill-rule="evenodd"></path></svg>