<svg xmlns="http://www.w3.org/2000/svg" width="24" height="24" viewBox="0 0 24 24" fill="none" stroke="currentColor" stroke-width="2" stroke-linecap="round" stroke-linejoin="round" class="icon icon-tabler icons-tabler-outline icon-tabler-cone-2"><path d="M10.720 1.025 C 8.020 1.158,5.606 1.676,4.040 2.459 C 3.199 2.879,2.524 3.475,2.243 4.046 C 2.038 4.463,1.988 4.736,2.008 5.320 C 2.022 5.744,2.034 5.799,2.153 6.031 C 2.445 6.598,10.217 20.915,10.328 21.090 C 10.667 21.625,11.355 22.000,12.000 22.000 C 12.645 22.000,13.334 21.625,13.672 21.090 C 13.777 20.923,21.571 6.565,21.863 6.000 C 21.966 5.802,21.978 5.733,21.992 5.300 C 22.009 4.745,21.949 4.414,21.762 4.044 C 21.005 2.545,18.248 1.448,14.360 1.099 C 13.694 1.040,11.379 0.992,10.720 1.025 M13.380 3.041 C 15.685 3.166,17.586 3.558,18.904 4.179 C 19.619 4.517,20.000 4.838,20.000 5.105 C 20.000 5.214,19.126 6.856,16.010 12.602 C 13.816 16.648,12.011 19.959,12.000 19.960 C 11.989 19.960,10.184 16.649,7.990 12.602 C 4.867 6.844,4.000 5.215,4.000 5.106 C 4.000 4.503,5.918 3.666,8.136 3.302 C 9.738 3.039,11.622 2.945,13.380 3.041 " stroke="none" fill="black" fill-rule="evenodd"></path></svg>