<svg xmlns="http://www.w3.org/2000/svg" width="24" height="24" viewBox="0 0 24 24" fill="none" stroke="currentColor" stroke-width="2" stroke-linecap="round" stroke-linejoin="round" class="icon icon-tabler icons-tabler-outline icon-tabler-spacing-horizontal"><path d="M3.614 3.056 C 3.376 3.133,3.211 3.262,3.109 3.453 C 3.035 3.592,3.020 3.684,3.020 4.000 C 3.020 4.331,3.033 4.403,3.120 4.558 C 3.230 4.755,3.414 4.898,3.635 4.959 C 3.717 4.982,4.287 5.000,4.943 5.000 C 6.308 5.000,6.412 5.018,6.697 5.303 C 7.023 5.629,7.000 5.126,7.000 12.001 C 7.000 17.059,6.991 18.139,6.945 18.290 C 6.872 18.533,6.707 18.740,6.484 18.872 L 6.300 18.980 4.979 19.000 C 3.658 19.020,3.657 19.020,3.459 19.122 C 3.119 19.297,2.978 19.606,3.009 20.104 C 3.039 20.570,3.252 20.856,3.652 20.963 C 3.757 20.992,4.285 21.001,5.196 20.991 C 6.508 20.976,6.595 20.971,6.860 20.884 C 7.842 20.562,8.581 19.817,8.886 18.840 L 8.980 18.540 8.980 12.000 L 8.980 5.460 8.886 5.160 C 8.581 4.181,7.825 3.421,6.861 3.124 C 6.550 3.028,6.498 3.024,5.160 3.013 C 4.090 3.005,3.743 3.014,3.614 3.056 M17.499 3.043 C 16.383 3.230,15.461 4.048,15.114 5.160 L 15.020 5.460 15.020 12.000 L 15.020 18.540 15.114 18.840 C 15.419 19.817,16.158 20.562,17.140 20.884 C 17.405 20.971,17.492 20.976,18.804 20.991 C 19.715 21.001,20.243 20.992,20.348 20.963 C 20.583 20.900,20.767 20.760,20.880 20.558 C 20.967 20.402,20.980 20.332,20.979 20.000 C 20.977 19.469,20.850 19.243,20.455 19.072 C 20.375 19.037,19.942 19.016,19.020 19.001 L 17.700 18.980 17.516 18.872 C 17.415 18.813,17.284 18.700,17.225 18.623 C 16.987 18.311,17.000 18.701,17.000 12.022 C 17.000 5.123,16.977 5.629,17.303 5.303 C 17.588 5.018,17.692 5.000,19.057 5.000 C 19.713 5.000,20.283 4.982,20.365 4.959 C 20.586 4.898,20.770 4.755,20.880 4.558 C 20.967 4.402,20.980 4.332,20.979 4.000 C 20.978 3.567,20.898 3.355,20.678 3.199 C 20.423 3.017,20.269 3.000,18.944 3.005 C 18.260 3.007,17.609 3.025,17.499 3.043 M11.614 7.057 C 11.377 7.131,11.212 7.261,11.109 7.453 L 11.020 7.620 11.009 11.913 C 11.002 14.727,11.013 16.258,11.039 16.357 C 11.144 16.747,11.434 16.961,11.896 16.991 C 12.381 17.022,12.699 16.882,12.880 16.558 L 12.980 16.380 12.980 12.000 L 12.980 7.620 12.891 7.453 C 12.842 7.362,12.746 7.247,12.678 7.199 C 12.414 7.010,11.957 6.950,11.614 7.057 " stroke="none" fill="black" fill-rule="evenodd"></path></svg>