<svg xmlns="http://www.w3.org/2000/svg" width="24" height="24" viewBox="0 0 24 24" fill="none" stroke="currentColor" stroke-width="2" stroke-linecap="round" stroke-linejoin="round" class="icon icon-tabler icons-tabler-outline icon-tabler-bell-exclamation"><path d="M11.499 2.040 C 10.389 2.242,9.473 3.037,9.139 4.090 C 9.055 4.357,9.049 4.365,8.767 4.538 C 7.862 5.096,6.970 5.956,6.363 6.856 C 5.849 7.617,5.469 8.462,5.244 9.341 C 5.042 10.129,5.029 10.285,5.001 12.280 L 4.975 14.180 4.871 14.472 C 4.642 15.112,4.157 15.720,3.591 16.077 C 3.126 16.369,2.975 16.639,3.009 17.115 C 3.041 17.565,3.255 17.854,3.635 17.959 C 3.724 17.984,4.600 18.000,5.890 18.000 L 8.000 18.000 8.000 18.184 C 8.000 18.466,8.151 19.144,8.289 19.479 C 8.714 20.516,9.490 21.292,10.512 21.704 C 12.558 22.528,14.877 21.538,15.704 19.488 C 15.948 18.883,16.007 18.469,15.993 17.480 C 15.980 16.649,15.977 16.614,15.880 16.442 C 15.770 16.245,15.586 16.102,15.365 16.041 C 15.272 16.015,13.637 16.000,10.798 16.000 L 6.376 16.000 6.527 15.690 C 6.666 15.404,6.804 15.009,6.924 14.560 C 6.955 14.441,6.981 13.739,6.999 12.480 C 7.021 10.961,7.040 10.510,7.094 10.230 C 7.391 8.673,8.325 7.245,9.620 6.370 C 9.752 6.281,10.031 6.116,10.240 6.004 C 10.790 5.709,11.000 5.441,11.000 5.033 C 11.000 4.483,11.467 4.000,12.000 4.000 C 12.536 4.000,13.000 4.483,13.000 5.040 C 13.000 5.261,13.108 5.533,13.252 5.672 C 13.322 5.740,13.551 5.889,13.760 6.002 C 14.256 6.271,14.592 6.500,14.955 6.815 C 15.937 7.666,16.665 8.941,16.905 10.230 C 16.949 10.469,16.978 10.941,16.997 11.720 C 17.026 12.960,17.039 13.036,17.265 13.248 C 17.445 13.417,17.659 13.487,17.997 13.488 C 18.501 13.490,18.827 13.289,18.941 12.904 C 19.012 12.666,19.024 11.038,18.959 10.460 C 18.818 9.191,18.396 8.017,17.703 6.960 C 17.068 5.992,16.183 5.124,15.233 4.538 C 14.951 4.365,14.945 4.357,14.861 4.090 C 14.567 3.165,13.787 2.400,12.861 2.129 C 12.500 2.023,11.832 1.980,11.499 2.040 M18.614 15.057 C 18.377 15.131,18.212 15.261,18.109 15.453 C 18.021 15.618,18.020 15.647,18.008 17.410 C 18.001 18.557,18.012 19.255,18.038 19.354 C 18.144 19.747,18.433 19.961,18.896 19.991 C 19.381 20.022,19.699 19.882,19.880 19.558 L 19.980 19.380 19.980 17.500 C 19.980 15.633,19.979 15.619,19.891 15.453 C 19.842 15.362,19.746 15.247,19.678 15.199 C 19.414 15.010,18.957 14.950,18.614 15.057 M13.981 18.224 C 13.917 18.740,13.704 19.147,13.319 19.493 C 12.706 20.044,11.825 20.158,11.083 19.781 C 10.816 19.646,10.449 19.297,10.281 19.017 C 10.138 18.780,10.006 18.360,10.002 18.130 L 10.000 18.000 12.005 18.000 L 14.009 18.000 13.981 18.224 M18.614 21.057 C 18.221 21.180,18.039 21.435,18.009 21.906 C 17.962 22.621,18.306 23.000,19.000 23.000 C 19.698 23.000,20.043 22.616,19.989 21.900 C 19.963 21.563,19.859 21.327,19.678 21.199 C 19.414 21.010,18.957 20.950,18.614 21.057 " stroke="none" fill="black" fill-rule="evenodd"></path></svg>