<svg xmlns="http://www.w3.org/2000/svg" width="24" height="24" viewBox="0 0 24 24" fill="none" stroke="currentColor" stroke-width="2" stroke-linecap="round" stroke-linejoin="round" class="icon icon-tabler icons-tabler-outline icon-tabler-device-nintendo-off"><path d="M2.626 2.045 C 2.257 2.239,1.951 2.673,1.951 3.000 C 1.951 3.292,2.085 3.493,2.690 4.107 L 3.249 4.675 2.987 5.024 C 2.681 5.433,2.411 5.957,2.247 6.461 C 2.012 7.189,2.020 6.982,2.020 12.000 C 2.020 16.316,2.025 16.642,2.093 16.960 C 2.523 18.968,3.973 20.432,6.000 20.904 C 6.258 20.964,6.573 20.976,8.247 20.989 C 9.539 21.000,10.246 20.991,10.351 20.962 C 10.583 20.900,10.767 20.759,10.880 20.558 L 10.980 20.380 10.991 16.401 L 11.002 12.422 12.001 13.421 L 13.000 14.419 13.000 17.320 C 13.000 19.139,13.015 20.274,13.041 20.365 C 13.102 20.586,13.245 20.770,13.442 20.880 L 13.620 20.980 15.640 20.980 C 17.966 20.980,18.046 20.971,18.989 20.595 L 19.118 20.543 19.789 21.206 C 20.183 21.595,20.533 21.906,20.637 21.959 C 20.988 22.137,21.354 22.049,21.701 21.701 C 22.048 21.354,22.137 20.990,21.961 20.637 C 21.886 20.488,19.206 17.759,14.747 13.293 C 14.699 13.244,13.805 12.350,12.760 11.306 C 11.715 10.261,10.815 9.361,10.760 9.306 C 10.705 9.250,9.058 7.613,7.100 5.667 C 4.709 3.290,3.485 2.101,3.372 2.044 C 3.152 1.934,2.835 1.935,2.626 2.045 M7.614 3.057 C 7.377 3.131,7.212 3.261,7.109 3.453 C 7.035 3.592,7.020 3.684,7.020 4.000 C 7.020 4.331,7.033 4.403,7.120 4.558 C 7.230 4.755,7.414 4.898,7.635 4.959 C 7.715 4.981,8.055 5.000,8.390 5.000 L 9.000 5.000 9.000 5.610 C 9.000 5.946,9.019 6.285,9.041 6.365 C 9.148 6.750,9.437 6.962,9.896 6.991 C 10.381 7.022,10.699 6.882,10.880 6.558 L 10.980 6.380 10.980 5.000 C 10.980 3.650,10.978 3.616,10.891 3.453 C 10.785 3.256,10.622 3.131,10.371 3.055 C 10.117 2.979,7.859 2.981,7.614 3.057 M13.614 3.057 C 13.377 3.131,13.212 3.261,13.109 3.453 L 13.020 3.620 13.009 6.912 C 13.002 9.060,13.012 10.257,13.039 10.356 C 13.144 10.747,13.434 10.961,13.896 10.991 C 14.381 11.022,14.699 10.882,14.880 10.558 L 14.980 10.380 14.991 7.687 L 15.003 4.993 16.271 5.009 C 17.482 5.025,17.555 5.030,17.861 5.124 C 18.815 5.418,19.575 6.176,19.879 7.139 L 19.980 7.460 19.992 11.780 C 20.004 15.652,19.998 16.147,19.938 16.550 C 19.850 17.147,19.897 17.383,20.150 17.619 C 20.438 17.887,21.110 17.986,21.421 17.808 C 21.714 17.639,21.846 17.364,21.943 16.712 C 21.993 16.376,22.000 15.629,21.989 11.808 C 21.977 7.651,21.971 7.277,21.905 7.000 C 21.589 5.667,20.847 4.566,19.800 3.874 C 19.046 3.375,18.396 3.135,17.552 3.043 C 16.973 2.979,13.826 2.991,13.614 3.057 M5.048 6.468 L 5.397 6.815 5.163 7.027 C 4.710 7.437,4.512 7.884,4.512 8.500 C 4.512 9.100,4.701 9.541,5.131 9.948 C 5.539 10.334,5.951 10.494,6.520 10.490 C 7.116 10.485,7.560 10.287,7.973 9.840 L 8.189 9.607 8.594 10.014 L 9.000 10.421 9.000 14.714 L 9.000 19.007 7.710 18.991 C 6.498 18.976,6.403 18.969,6.140 18.884 C 5.154 18.562,4.387 17.782,4.112 16.822 L 4.020 16.500 4.020 12.020 C 4.020 7.754,4.024 7.527,4.096 7.260 C 4.137 7.106,4.223 6.872,4.287 6.740 C 4.402 6.501,4.643 6.120,4.679 6.120 C 4.690 6.120,4.856 6.276,5.048 6.468 M17.411 18.965 C 17.350 18.979,16.782 18.993,16.150 18.995 L 15.000 19.000 15.000 17.710 L 15.000 16.420 16.261 17.680 C 17.464 18.882,17.516 18.941,17.411 18.965 " stroke="none" fill="black" fill-rule="evenodd"></path></svg>