<svg xmlns="http://www.w3.org/2000/svg" width="24" height="24" viewBox="0 0 24 24" fill="none" stroke="currentColor" stroke-width="2" stroke-linecap="round" stroke-linejoin="round" class="icon icon-tabler icons-tabler-outline icon-tabler-arrow-up-left"><path d="M6.597 6.050 C 6.507 6.088,6.378 6.159,6.311 6.207 C 6.165 6.310,5.958 6.740,5.964 6.929 C 5.966 7.001,5.979 9.157,5.994 11.720 L 6.020 16.380 6.120 16.558 C 6.287 16.856,6.572 17.000,7.000 17.000 C 7.428 17.000,7.713 16.856,7.880 16.558 L 7.980 16.380 7.991 12.902 L 8.002 9.423 12.231 13.648 C 15.249 16.662,16.511 17.897,16.637 17.961 C 16.990 18.137,17.355 18.048,17.701 17.701 C 18.048 17.355,18.137 16.990,17.961 16.637 C 17.897 16.511,16.662 15.248,13.646 12.230 L 9.421 8.000 12.820 8.000 C 14.974 8.000,16.273 7.985,16.365 7.959 C 16.586 7.898,16.770 7.755,16.880 7.558 C 16.967 7.402,16.980 7.332,16.979 7.000 C 16.978 6.685,16.963 6.591,16.888 6.450 C 16.784 6.252,16.575 6.102,16.320 6.042 C 16.200 6.014,14.578 5.997,11.451 5.990 C 7.062 5.981,6.751 5.984,6.597 6.050 " stroke="none" fill="black" fill-rule="evenodd"></path></svg>