<svg xmlns="http://www.w3.org/2000/svg" width="24" height="24" viewBox="0 0 24 24" fill="none" stroke="currentColor" stroke-width="2" stroke-linecap="round" stroke-linejoin="round" class="icon icon-tabler icons-tabler-outline icon-tabler-eraser-off"><path d="M2.626 2.045 C 2.420 2.154,2.146 2.433,2.038 2.644 C 1.924 2.867,1.924 3.132,2.039 3.363 C 2.102 3.487,2.982 4.395,5.004 6.420 L 7.879 9.301 5.618 11.560 C 3.584 13.593,3.344 13.847,3.222 14.089 C 3.046 14.439,2.985 14.741,3.011 15.140 C 3.034 15.493,3.136 15.804,3.318 16.078 C 3.384 16.177,4.440 17.282,5.667 18.534 C 7.554 20.462,7.929 20.827,8.106 20.908 L 8.316 21.004 13.769 21.002 C 17.199 21.000,19.273 20.985,19.358 20.960 C 19.495 20.921,19.496 20.923,19.978 21.395 C 20.244 21.656,20.541 21.910,20.638 21.959 C 20.988 22.137,21.354 22.049,21.701 21.701 C 22.047 21.355,22.136 20.990,21.961 20.637 C 21.839 20.392,3.616 2.165,3.372 2.044 C 3.152 1.934,2.834 1.935,2.626 2.045 M14.560 3.044 C 14.461 3.063,14.263 3.136,14.120 3.205 C 13.889 3.317,13.669 3.521,12.149 5.035 C 10.351 6.826,10.240 6.957,10.240 7.288 C 10.240 7.500,10.370 7.755,10.592 7.978 C 10.889 8.277,11.191 8.399,11.452 8.327 L 11.590 8.289 14.152 10.855 L 16.715 13.420 16.692 13.610 C 16.660 13.879,16.763 14.121,17.018 14.376 C 17.254 14.612,17.532 14.760,17.740 14.760 C 18.072 14.760,18.180 14.668,19.900 12.930 C 20.802 12.019,21.607 11.174,21.689 11.053 C 21.872 10.785,21.958 10.515,21.988 10.120 C 22.016 9.743,21.954 9.438,21.779 9.089 C 21.656 8.845,21.389 8.567,18.872 6.057 C 16.316 3.508,16.081 3.285,15.855 3.187 C 15.445 3.008,14.997 2.959,14.560 3.044 M19.161 10.837 C 18.703 11.312,18.267 11.758,18.193 11.829 L 18.058 11.958 15.559 9.459 L 13.060 6.960 14.040 5.980 L 15.020 5.000 17.507 7.487 L 19.995 9.975 19.161 10.837 M11.807 13.230 L 14.315 15.740 12.700 17.370 L 11.085 19.000 10.006 19.000 L 8.927 19.000 6.959 16.995 L 4.990 14.991 7.125 12.855 C 8.299 11.681,9.269 10.720,9.280 10.720 C 9.291 10.720,10.428 11.850,11.807 13.230 M16.660 18.080 L 17.579 19.000 15.740 19.000 L 13.901 19.000 14.820 18.080 C 15.326 17.574,15.740 17.160,15.740 17.160 C 15.740 17.160,16.154 17.574,16.660 18.080 " stroke="none" fill="black" fill-rule="evenodd"></path></svg>