<svg xmlns="http://www.w3.org/2000/svg" width="24" height="24" viewBox="0 0 24 24" fill="none" stroke="currentColor" stroke-width="2" stroke-linecap="round" stroke-linejoin="round" class="icon icon-tabler icons-tabler-outline icon-tabler-square-chevron-left"><path d="M4.499 2.043 C 3.380 2.232,2.461 3.048,2.114 4.160 L 2.020 4.460 2.020 12.000 L 2.020 19.540 2.114 19.840 C 2.422 20.827,3.173 21.578,4.160 21.886 L 4.460 21.980 12.000 21.980 L 19.540 21.980 19.840 21.886 C 20.827 21.578,21.578 20.827,21.886 19.840 L 21.980 19.540 21.980 12.000 L 21.980 4.460 21.886 4.160 C 21.581 3.182,20.832 2.428,19.861 2.121 L 19.540 2.020 12.120 2.014 C 8.039 2.011,4.609 2.024,4.499 2.043 M19.310 4.061 C 19.589 4.144,19.856 4.411,19.939 4.690 C 19.993 4.870,20.000 5.755,20.000 12.001 C 20.000 17.907,19.991 19.138,19.945 19.290 C 19.872 19.533,19.707 19.740,19.484 19.872 L 19.300 19.980 12.000 19.980 L 4.700 19.980 4.516 19.872 C 4.415 19.813,4.284 19.700,4.225 19.623 C 3.986 19.309,4.000 19.795,4.000 12.022 C 4.000 5.758,4.007 4.870,4.061 4.690 C 4.140 4.421,4.412 4.143,4.673 4.063 C 4.964 3.974,19.009 3.971,19.310 4.061 M12.620 8.046 C 12.387 8.166,9.154 11.409,9.039 11.637 C 8.986 11.744,8.951 11.889,8.951 12.000 C 8.951 12.111,8.986 12.256,9.039 12.363 C 9.163 12.610,12.390 15.837,12.637 15.961 C 12.990 16.137,13.355 16.048,13.701 15.701 C 14.048 15.354,14.137 14.989,13.960 14.637 C 13.901 14.521,13.452 14.039,12.647 13.230 L 11.423 12.000 12.647 10.770 C 13.452 9.961,13.901 9.479,13.960 9.363 C 14.137 9.011,14.048 8.646,13.701 8.299 C 13.361 7.959,12.967 7.867,12.620 8.046 " stroke="none" fill="black" fill-rule="evenodd"></path></svg>