<svg xmlns="http://www.w3.org/2000/svg" width="24" height="24" viewBox="0 0 24 24" fill="none" stroke="currentColor" stroke-width="2" stroke-linecap="round" stroke-linejoin="round" class="icon icon-tabler icons-tabler-outline icon-tabler-sort-ascending"><path d="M17.530 5.083 C 17.393 5.150,17.249 5.252,17.210 5.310 C 17.172 5.369,16.463 6.101,15.635 6.938 C 14.635 7.949,14.099 8.520,14.040 8.637 C 13.863 8.989,13.952 9.354,14.299 9.701 C 14.646 10.048,15.012 10.137,15.363 9.959 C 15.469 9.905,15.832 9.580,16.270 9.147 L 17.000 8.425 17.000 13.322 C 17.000 16.480,17.015 18.271,17.041 18.365 C 17.148 18.750,17.437 18.962,17.896 18.991 C 18.381 19.022,18.699 18.882,18.880 18.558 L 18.980 18.380 18.991 13.403 L 19.002 8.426 19.731 9.148 C 20.168 9.581,20.531 9.905,20.637 9.959 C 20.988 10.137,21.354 10.048,21.701 9.701 C 22.048 9.354,22.137 8.989,21.960 8.637 C 21.901 8.520,21.365 7.949,20.365 6.938 C 19.537 6.101,18.828 5.369,18.789 5.310 C 18.751 5.252,18.604 5.149,18.464 5.082 C 18.120 4.918,17.871 4.918,17.530 5.083 M3.614 5.057 C 3.377 5.131,3.212 5.261,3.109 5.453 C 3.035 5.592,3.020 5.684,3.020 6.000 C 3.020 6.331,3.033 6.403,3.120 6.558 C 3.230 6.755,3.414 6.898,3.635 6.959 C 3.833 7.014,11.167 7.014,11.365 6.959 C 11.586 6.898,11.770 6.755,11.880 6.558 C 11.967 6.402,11.980 6.332,11.979 6.000 C 11.978 5.567,11.898 5.355,11.678 5.199 C 11.395 4.997,11.449 5.000,7.484 5.003 C 4.561 5.005,3.745 5.016,3.614 5.057 M3.614 11.057 C 3.377 11.131,3.212 11.261,3.109 11.453 C 3.035 11.592,3.020 11.684,3.020 12.000 C 3.020 12.331,3.033 12.403,3.120 12.558 C 3.230 12.755,3.414 12.898,3.635 12.959 C 3.833 13.014,11.167 13.014,11.365 12.959 C 11.586 12.898,11.770 12.755,11.880 12.558 C 11.967 12.402,11.980 12.332,11.979 12.000 C 11.978 11.567,11.898 11.355,11.678 11.199 C 11.395 10.997,11.449 11.000,7.484 11.003 C 4.561 11.005,3.745 11.016,3.614 11.057 M3.614 17.057 C 3.377 17.131,3.212 17.261,3.109 17.453 C 3.035 17.592,3.020 17.684,3.020 18.000 C 3.020 18.331,3.033 18.403,3.120 18.558 C 3.230 18.755,3.414 18.898,3.635 18.959 C 3.834 19.014,13.166 19.014,13.365 18.959 C 13.586 18.898,13.770 18.755,13.880 18.558 C 13.967 18.402,13.980 18.332,13.979 18.000 C 13.978 17.567,13.898 17.355,13.678 17.199 C 13.392 16.995,13.526 17.000,8.484 17.003 C 4.740 17.005,3.746 17.016,3.614 17.057 " stroke="none" fill="black" fill-rule="evenodd"></path></svg>