<svg xmlns="http://www.w3.org/2000/svg" width="24" height="24" viewBox="0 0 24 24" fill="none" stroke="currentColor" stroke-width="2" stroke-linecap="round" stroke-linejoin="round" class="icon icon-tabler icons-tabler-outline icon-tabler-brand-snapseed"><path d="M7.477 2.052 C 7.377 2.081,7.213 2.151,7.115 2.209 C 6.694 2.456,5.341 3.813,4.631 4.700 C 3.259 6.416,2.389 8.301,2.093 10.200 C 1.994 10.838,1.994 12.161,2.093 12.800 C 2.399 14.766,3.233 16.554,4.689 18.368 C 5.511 19.391,6.777 20.625,7.238 20.852 L 7.498 20.980 13.859 20.991 C 20.882 21.003,20.542 21.015,21.000 20.753 C 21.288 20.589,21.632 20.232,21.769 19.959 C 22.004 19.485,22.000 19.561,22.000 15.980 C 22.000 12.412,22.004 12.482,21.775 12.031 C 21.641 11.766,21.256 11.363,21.007 11.227 C 20.583 10.997,20.639 11.000,17.019 11.000 L 13.695 11.000 13.649 10.563 C 13.377 7.957,12.017 5.458,9.584 3.091 C 8.897 2.422,8.632 2.207,8.362 2.103 C 8.125 2.011,7.706 1.987,7.477 2.052 M8.282 4.610 C 9.906 6.198,10.991 7.920,11.440 9.617 C 11.636 10.359,11.693 10.879,11.668 11.700 C 11.630 12.990,11.377 13.926,10.726 15.180 C 10.132 16.323,9.135 17.613,8.125 18.545 L 7.830 18.816 7.244 18.218 C 6.552 17.512,6.097 16.965,5.630 16.280 C 4.019 13.915,3.613 11.556,4.402 9.146 C 4.732 8.140,5.449 6.876,6.266 5.860 C 6.595 5.451,7.779 4.200,7.837 4.200 C 7.851 4.200,8.051 4.385,8.282 4.610 M20.000 16.000 L 20.000 19.000 15.236 19.000 L 10.472 19.000 10.709 18.730 C 12.095 17.152,13.152 15.124,13.503 13.370 L 13.577 13.000 16.789 13.000 L 20.000 13.000 20.000 16.000 " stroke="none" fill="black" fill-rule="evenodd"></path></svg>