<svg xmlns="http://www.w3.org/2000/svg" width="24" height="24" viewBox="0 0 24 24" fill="none" stroke="currentColor" stroke-width="2" stroke-linecap="round" stroke-linejoin="round" class="icon icon-tabler icons-tabler-outline icon-tabler-zeppelin"><path d="M12.680 3.040 C 11.639 3.149,10.611 3.411,9.440 3.867 C 8.807 4.114,7.497 4.767,6.805 5.181 C 6.489 5.370,6.210 5.516,6.185 5.506 C 6.160 5.496,5.781 5.187,5.343 4.821 C 4.904 4.454,4.490 4.125,4.423 4.088 C 4.337 4.041,4.202 4.021,3.979 4.021 C 3.712 4.020,3.624 4.037,3.459 4.122 C 3.245 4.232,3.105 4.404,3.041 4.635 C 3.017 4.720,3.000 5.414,3.000 6.320 L 2.999 7.860 2.651 8.140 C 1.986 8.675,1.219 9.357,1.124 9.500 C 0.900 9.833,0.896 10.177,1.110 10.492 C 1.210 10.638,1.865 11.222,2.620 11.838 L 2.980 12.132 3.000 13.716 L 3.020 15.300 3.128 15.485 C 3.414 15.970,3.895 16.164,4.327 15.968 C 4.422 15.924,4.885 15.569,5.355 15.178 L 6.209 14.468 6.335 14.543 C 7.161 15.036,7.578 15.265,8.229 15.587 L 8.997 15.966 9.009 18.173 L 9.020 20.380 9.120 20.558 C 9.230 20.755,9.414 20.898,9.635 20.959 C 9.727 20.985,10.966 21.000,13.000 21.000 C 15.034 21.000,16.273 20.985,16.365 20.959 C 16.586 20.898,16.770 20.755,16.880 20.558 L 16.980 20.380 17.000 18.444 L 17.020 16.507 17.520 16.338 C 18.398 16.041,19.075 15.715,19.837 15.221 C 21.219 14.326,22.272 13.038,22.715 11.700 C 22.927 11.061,22.979 10.725,22.979 10.000 C 22.979 9.092,22.826 8.418,22.438 7.612 C 22.070 6.850,21.324 5.929,20.580 5.320 C 19.125 4.130,17.024 3.304,14.894 3.083 C 14.310 3.023,13.077 2.999,12.680 3.040 M14.300 5.042 C 16.007 5.168,17.557 5.665,18.762 6.472 C 19.944 7.264,20.663 8.211,20.924 9.320 C 20.991 9.604,20.991 10.397,20.924 10.680 C 20.493 12.501,18.753 13.964,16.200 14.653 C 15.111 14.946,13.695 15.072,12.759 14.959 C 11.627 14.822,10.536 14.480,9.247 13.857 C 8.437 13.466,8.052 13.251,7.181 12.705 C 6.830 12.485,6.479 12.282,6.401 12.254 C 6.062 12.133,5.814 12.208,5.369 12.564 L 5.020 12.845 5.000 12.112 C 4.974 11.166,4.988 11.192,4.179 10.530 C 3.850 10.260,3.575 10.024,3.569 10.006 C 3.563 9.989,3.770 9.804,4.028 9.597 C 5.011 8.808,4.973 8.876,5.000 7.885 L 5.020 7.149 5.316 7.397 C 5.675 7.697,5.787 7.758,6.037 7.787 C 6.288 7.817,6.441 7.763,6.868 7.492 C 8.555 6.421,9.947 5.740,11.220 5.363 C 12.295 5.044,13.142 4.956,14.300 5.042 M11.720 16.817 C 12.497 16.970,13.085 17.015,13.900 16.985 C 14.296 16.970,14.706 16.947,14.810 16.934 L 15.000 16.910 15.000 17.955 L 15.000 19.000 13.000 19.000 L 11.000 19.000 11.000 17.822 L 11.000 16.644 11.110 16.681 C 11.171 16.701,11.445 16.762,11.720 16.817 " stroke="none" fill="black" fill-rule="evenodd"></path></svg>