<svg xmlns="http://www.w3.org/2000/svg" width="24" height="24" viewBox="0 0 24 24" fill="none" stroke="currentColor" stroke-width="2" stroke-linecap="round" stroke-linejoin="round" class="icon icon-tabler icons-tabler-outline icon-tabler-abc"><path d="M4.499 7.040 C 3.374 7.244,2.487 8.025,2.114 9.140 L 2.021 9.420 2.009 12.810 C 2.001 15.058,2.011 16.252,2.038 16.354 C 2.144 16.747,2.433 16.961,2.896 16.991 C 3.381 17.022,3.699 16.882,3.880 16.558 C 3.979 16.381,3.980 16.374,3.993 15.190 L 4.005 14.000 5.003 14.000 L 6.000 14.000 6.000 15.110 C 6.000 15.730,6.018 16.284,6.041 16.365 C 6.148 16.750,6.437 16.962,6.896 16.991 C 7.381 17.022,7.699 16.882,7.880 16.558 L 7.980 16.380 7.980 12.920 L 7.980 9.460 7.886 9.160 C 7.580 8.178,6.810 7.407,5.861 7.129 C 5.500 7.023,4.832 6.980,4.499 7.040 M9.614 7.057 C 9.377 7.131,9.212 7.261,9.109 7.453 L 9.020 7.620 9.020 11.080 L 9.020 14.540 9.114 14.840 C 9.422 15.827,10.174 16.579,11.160 16.886 C 11.594 17.021,12.406 17.021,12.840 16.886 C 13.826 16.579,14.578 15.827,14.886 14.840 C 14.974 14.558,14.980 14.479,14.980 13.500 C 14.980 12.521,14.974 12.442,14.886 12.160 C 14.580 11.180,13.821 10.417,12.861 10.125 C 12.594 10.044,12.452 10.027,12.020 10.025 C 11.713 10.024,11.426 10.044,11.320 10.074 C 11.221 10.102,11.110 10.134,11.073 10.144 C 11.010 10.162,11.004 10.062,10.993 8.892 C 10.980 7.666,10.977 7.614,10.891 7.453 C 10.842 7.362,10.746 7.247,10.678 7.199 C 10.414 7.010,9.957 6.950,9.614 7.057 M5.310 9.061 C 5.452 9.103,5.571 9.178,5.697 9.303 C 5.978 9.584,6.000 9.703,6.000 10.947 L 6.000 12.000 5.000 12.000 L 4.000 12.000 4.000 10.947 C 4.000 9.702,4.022 9.585,4.304 9.303 C 4.583 9.024,4.916 8.944,5.310 9.061 M18.460 10.059 C 17.595 10.220,16.933 10.671,16.446 11.431 C 16.101 11.968,16.000 12.439,16.000 13.505 C 16.000 14.763,16.160 15.288,16.758 15.985 C 17.848 17.255,19.906 17.332,21.092 16.146 C 21.642 15.596,21.873 15.027,21.706 14.629 C 21.598 14.371,21.111 14.032,20.772 13.977 C 20.419 13.921,20.148 14.089,19.800 14.579 C 19.344 15.221,18.318 15.080,18.066 14.340 C 17.972 14.062,17.972 12.938,18.066 12.660 C 18.313 11.935,19.333 11.783,19.791 12.402 C 20.177 12.925,20.336 13.040,20.668 13.040 C 20.874 13.039,21.204 12.908,21.429 12.736 C 21.626 12.586,21.769 12.313,21.769 12.089 C 21.768 11.605,21.273 10.904,20.655 10.509 C 19.956 10.063,19.234 9.915,18.460 10.059 M12.310 12.061 C 12.589 12.144,12.856 12.411,12.939 12.690 C 13.020 12.961,13.024 14.028,12.945 14.290 C 12.872 14.533,12.707 14.740,12.484 14.872 C 12.328 14.963,12.254 14.980,12.000 14.980 C 11.746 14.980,11.672 14.963,11.516 14.872 C 11.303 14.747,11.141 14.550,11.058 14.316 C 10.976 14.081,10.977 12.971,11.061 12.690 C 11.173 12.313,11.577 12.012,11.983 12.003 C 12.050 12.001,12.198 12.027,12.310 12.061 " stroke="none" fill="black" fill-rule="evenodd"></path></svg>