<svg xmlns="http://www.w3.org/2000/svg" width="24" height="24" viewBox="0 0 24 24" fill="none" stroke="currentColor" stroke-width="2" stroke-linecap="round" stroke-linejoin="round" class="icon icon-tabler icons-tabler-outline icon-tabler-u-turn-right"><path d="M10.860 3.047 C 8.629 3.298,6.749 4.938,6.177 7.129 C 6.001 7.805,6.001 7.792,6.001 14.160 C 6.001 18.098,6.015 20.271,6.041 20.365 C 6.148 20.750,6.437 20.962,6.896 20.991 C 7.381 21.022,7.699 20.882,7.880 20.558 L 7.980 20.380 8.001 14.140 L 8.021 7.900 8.108 7.595 C 8.385 6.618,9.063 5.808,9.995 5.342 C 10.487 5.095,10.809 5.028,11.500 5.028 C 11.983 5.028,12.160 5.044,12.405 5.111 C 12.992 5.271,13.590 5.631,14.022 6.085 C 14.329 6.408,14.489 6.642,14.681 7.053 C 14.987 7.706,14.972 7.509,14.989 11.239 L 15.003 14.579 14.272 13.855 C 13.857 13.444,13.467 13.094,13.372 13.045 C 13.021 12.868,12.640 12.958,12.299 13.299 C 11.952 13.646,11.863 14.011,12.040 14.363 C 12.099 14.480,12.635 15.051,13.635 16.062 C 14.463 16.899,15.174 17.634,15.216 17.697 C 15.318 17.850,15.762 18.049,16.000 18.049 C 16.238 18.049,16.682 17.850,16.784 17.697 C 16.826 17.634,17.537 16.899,18.365 16.062 C 19.365 15.051,19.901 14.480,19.960 14.363 C 20.137 14.011,20.048 13.646,19.701 13.299 C 19.360 12.958,18.979 12.868,18.628 13.045 C 18.533 13.094,18.144 13.444,17.730 13.853 L 17.000 14.575 17.000 11.347 C 17.000 7.866,16.993 7.716,16.784 6.999 C 16.583 6.306,16.333 5.801,15.915 5.237 C 14.740 3.652,12.830 2.825,10.860 3.047 " stroke="none" fill="black" fill-rule="evenodd"></path></svg>