<svg xmlns="http://www.w3.org/2000/svg" width="24" height="24" viewBox="0 0 24 24" fill="none" stroke="currentColor" stroke-width="2" stroke-linecap="round" stroke-linejoin="round" class="icon icon-tabler icons-tabler-outline icon-tabler-mouse-2"><path d="M9.400 2.044 C 7.761 2.229,6.261 3.290,5.526 4.785 C 5.333 5.177,5.187 5.599,5.093 6.040 C 5.024 6.360,5.020 6.717,5.020 12.000 C 5.020 17.283,5.024 17.640,5.093 17.960 C 5.526 19.984,7.016 21.474,9.040 21.907 C 9.349 21.973,9.618 21.980,12.000 21.980 C 14.382 21.980,14.651 21.973,14.960 21.907 C 16.488 21.580,17.748 20.630,18.433 19.288 C 18.662 18.839,18.805 18.439,18.907 17.960 C 18.976 17.640,18.980 17.283,18.980 12.000 C 18.980 6.717,18.976 6.360,18.907 6.040 C 18.625 4.721,17.863 3.576,16.800 2.874 C 16.046 2.375,15.396 2.135,14.552 2.043 C 14.092 1.992,9.849 1.994,9.400 2.044 M11.000 6.500 L 11.000 9.000 8.997 9.000 L 6.993 9.000 7.009 7.730 C 7.025 6.518,7.030 6.445,7.124 6.139 C 7.459 5.051,8.390 4.229,9.499 4.043 C 9.609 4.025,9.992 4.007,10.350 4.005 L 11.000 4.000 11.000 6.500 M14.861 4.126 C 15.811 4.413,16.582 5.182,16.876 6.139 C 16.970 6.445,16.975 6.518,16.991 7.730 L 17.007 9.000 15.003 9.000 L 13.000 9.000 13.000 6.495 L 13.000 3.991 13.770 4.010 C 14.433 4.027,14.584 4.043,14.861 4.126 M16.991 14.270 L 16.979 17.540 16.878 17.861 C 16.573 18.830,15.818 19.581,14.840 19.886 L 14.540 19.980 12.000 19.980 L 9.460 19.980 9.160 19.886 C 8.182 19.581,7.427 18.830,7.122 17.861 L 7.021 17.540 7.009 14.270 L 6.997 11.000 12.000 11.000 L 17.003 11.000 16.991 14.270 " stroke="none" fill="black" fill-rule="evenodd"></path></svg>