<svg xmlns="http://www.w3.org/2000/svg" width="24" height="24" viewBox="0 0 24 24" fill="none" stroke="currentColor" stroke-width="2" stroke-linecap="round" stroke-linejoin="round" class="icon icon-tabler icons-tabler-outline icon-tabler-square-arrow-up"><path d="M4.499 2.043 C 3.380 2.232,2.461 3.048,2.114 4.160 L 2.020 4.460 2.020 12.000 L 2.020 19.540 2.114 19.840 C 2.422 20.827,3.173 21.578,4.160 21.886 L 4.460 21.980 12.000 21.980 L 19.540 21.980 19.840 21.886 C 20.827 21.578,21.578 20.827,21.886 19.840 L 21.980 19.540 21.980 12.000 L 21.980 4.460 21.886 4.160 C 21.581 3.182,20.832 2.428,19.861 2.121 L 19.540 2.020 12.120 2.014 C 8.039 2.011,4.609 2.024,4.499 2.043 M19.310 4.061 C 19.589 4.144,19.856 4.411,19.939 4.690 C 19.993 4.870,20.000 5.755,20.000 12.001 C 20.000 17.907,19.991 19.138,19.945 19.290 C 19.872 19.533,19.707 19.740,19.484 19.872 L 19.300 19.980 12.000 19.980 L 4.700 19.980 4.516 19.872 C 4.415 19.813,4.284 19.700,4.225 19.623 C 3.986 19.309,4.000 19.795,4.000 12.022 C 4.000 5.758,4.007 4.870,4.061 4.690 C 4.140 4.421,4.412 4.143,4.673 4.063 C 4.964 3.974,19.009 3.971,19.310 4.061 M11.530 7.083 C 11.393 7.150,11.249 7.252,11.210 7.311 C 11.172 7.369,10.237 8.327,9.134 9.439 C 7.766 10.818,7.101 11.516,7.040 11.637 C 6.863 11.989,6.952 12.354,7.299 12.701 C 7.646 13.048,8.011 13.137,8.363 12.960 C 8.479 12.901,8.961 12.452,9.770 11.647 L 11.000 10.423 11.000 13.321 C 11.000 15.140,11.015 16.274,11.041 16.365 C 11.148 16.750,11.437 16.962,11.896 16.991 C 12.381 17.022,12.699 16.882,12.880 16.558 L 12.980 16.380 12.991 13.403 L 13.002 10.425 14.231 11.648 C 15.039 12.452,15.521 12.901,15.637 12.960 C 15.989 13.137,16.354 13.048,16.701 12.701 C 17.048 12.354,17.137 11.989,16.960 11.637 C 16.899 11.516,16.234 10.818,14.866 9.439 C 13.763 8.327,12.828 7.369,12.789 7.310 C 12.751 7.252,12.604 7.149,12.464 7.082 C 12.120 6.918,11.871 6.918,11.530 7.083 " stroke="none" fill="black" fill-rule="evenodd"></path></svg>