<svg xmlns="http://www.w3.org/2000/svg" width="24" height="24" viewBox="0 0 24 24" fill="none" stroke="currentColor" stroke-width="2" stroke-linecap="round" stroke-linejoin="round" class="icon icon-tabler icons-tabler-outline icon-tabler-christmas-tree"><path d="M11.620 2.046 C 11.524 2.096,10.612 2.975,9.328 4.254 C 7.037 6.540,7.019 6.561,6.972 7.012 C 6.954 7.191,6.967 7.268,7.040 7.420 C 7.149 7.645,7.324 7.780,7.860 8.048 C 8.080 8.159,8.268 8.257,8.278 8.265 C 8.287 8.274,7.583 8.997,6.713 9.871 C 5.275 11.315,5.125 11.478,5.067 11.660 C 4.921 12.121,4.947 12.372,5.168 12.623 C 5.336 12.814,5.536 12.908,6.360 13.180 C 6.745 13.307,7.075 13.420,7.094 13.430 C 7.113 13.441,6.463 14.118,5.649 14.935 C 4.835 15.752,4.135 16.483,4.095 16.560 C 4.040 16.664,4.021 16.787,4.020 17.040 C 4.020 17.329,4.035 17.407,4.120 17.558 C 4.230 17.755,4.414 17.898,4.635 17.959 C 4.724 17.984,5.600 18.000,6.890 18.000 L 9.000 18.000 9.000 19.132 C 9.000 20.358,9.021 20.528,9.225 20.930 C 9.361 21.199,9.801 21.639,10.070 21.775 C 10.479 21.982,10.632 22.000,12.000 22.000 C 13.368 22.000,13.521 21.982,13.930 21.775 C 14.196 21.640,14.638 21.200,14.771 20.937 C 14.976 20.533,15.000 20.342,15.000 19.126 L 15.000 18.003 17.150 17.991 L 19.300 17.980 19.486 17.871 C 19.965 17.589,20.170 17.055,19.960 16.637 C 19.900 16.518,19.379 15.966,18.368 14.952 C 17.374 13.954,16.885 13.436,16.923 13.422 C 16.954 13.410,17.304 13.292,17.700 13.158 C 18.441 12.909,18.648 12.802,18.813 12.585 C 19.070 12.247,19.116 11.949,18.960 11.637 C 18.900 11.518,18.358 10.945,17.288 9.871 C 16.417 8.997,15.712 8.275,15.722 8.267 C 15.732 8.258,15.943 8.148,16.190 8.022 C 16.653 7.787,16.819 7.640,16.980 7.323 C 17.076 7.133,17.068 6.853,16.961 6.637 C 16.840 6.396,12.612 2.164,12.372 2.044 C 12.151 1.934,11.836 1.935,11.620 2.046 M13.158 5.578 C 13.784 6.205,14.288 6.725,14.278 6.734 C 14.268 6.743,14.080 6.841,13.860 6.952 C 13.324 7.220,13.149 7.355,13.040 7.580 C 12.968 7.730,12.954 7.810,12.972 7.980 C 13.017 8.424,13.055 8.471,14.649 10.068 C 15.638 11.058,16.116 11.564,16.078 11.578 C 16.046 11.590,15.701 11.707,15.311 11.838 C 14.920 11.970,14.532 12.113,14.447 12.157 C 14.126 12.320,13.924 12.683,13.979 12.996 C 14.063 13.474,14.051 13.460,15.354 14.770 L 16.576 16.000 11.999 16.000 L 7.423 16.000 8.647 14.770 C 9.452 13.961,9.901 13.479,9.960 13.363 C 10.133 13.018,10.049 12.649,9.722 12.322 C 9.534 12.134,9.401 12.073,8.580 11.801 C 8.228 11.685,7.925 11.580,7.906 11.570 C 7.887 11.559,8.547 10.873,9.372 10.045 C 10.380 9.033,10.900 8.482,10.960 8.363 C 11.068 8.147,11.076 7.867,10.980 7.677 C 10.819 7.360,10.653 7.213,10.190 6.978 C 9.943 6.852,9.732 6.742,9.722 6.733 C 9.703 6.716,11.964 4.440,12.000 4.440 C 12.011 4.440,12.533 4.952,13.158 5.578 M13.000 19.000 L 13.000 20.000 12.000 20.000 L 11.000 20.000 11.000 19.000 L 11.000 18.000 12.000 18.000 L 13.000 18.000 13.000 19.000 " stroke="none" fill="black" fill-rule="evenodd"></path></svg>