<svg xmlns="http://www.w3.org/2000/svg" width="24" height="24" viewBox="0 0 24 24" fill="none" stroke="currentColor" stroke-width="2" stroke-linecap="round" stroke-linejoin="round" class="icon icon-tabler icons-tabler-outline icon-tabler-cross"><path d="M9.614 2.057 C 9.377 2.131,9.212 2.261,9.109 2.453 C 9.021 2.619,9.020 2.633,9.009 4.810 L 8.997 7.000 6.905 7.000 C 4.674 7.000,4.592 7.006,4.322 7.199 C 4.254 7.247,4.158 7.362,4.109 7.453 L 4.020 7.620 4.020 10.000 L 4.020 12.380 4.120 12.558 C 4.230 12.755,4.414 12.898,4.635 12.959 C 4.724 12.984,5.600 13.000,6.890 13.000 L 9.000 13.000 9.000 17.110 C 9.000 19.740,9.015 21.272,9.041 21.365 C 9.102 21.586,9.245 21.770,9.442 21.880 L 9.620 21.980 11.911 21.991 C 13.392 21.999,14.256 21.988,14.355 21.961 C 14.583 21.900,14.768 21.758,14.880 21.558 L 14.980 21.380 14.991 17.190 L 15.002 13.000 17.111 13.000 C 18.400 13.000,19.276 12.984,19.365 12.959 C 19.586 12.898,19.770 12.755,19.880 12.558 L 19.980 12.380 19.980 10.000 L 19.980 7.620 19.891 7.453 C 19.842 7.362,19.746 7.247,19.678 7.199 C 19.408 7.006,19.326 7.000,17.095 7.000 L 15.003 7.000 14.992 4.810 C 14.980 2.633,14.979 2.619,14.891 2.453 C 14.785 2.256,14.622 2.131,14.371 2.055 C 14.112 1.977,9.864 1.979,9.614 2.057 M13.000 6.110 C 13.000 7.400,13.016 8.276,13.041 8.365 C 13.102 8.586,13.245 8.770,13.442 8.880 L 13.620 8.980 15.810 8.991 L 18.000 9.003 18.000 10.000 L 18.000 10.997 15.829 11.009 L 13.658 11.020 13.459 11.122 C 13.245 11.233,13.105 11.404,13.041 11.635 C 13.015 11.728,13.000 13.260,13.000 15.890 L 13.000 20.000 12.001 20.000 L 11.002 20.000 10.991 15.810 L 10.980 11.620 10.891 11.453 C 10.842 11.362,10.746 11.247,10.678 11.199 C 10.408 11.006,10.326 11.000,8.094 11.000 L 6.000 11.000 6.000 10.000 L 6.000 9.000 8.110 9.000 C 9.400 9.000,10.276 8.984,10.365 8.959 C 10.586 8.898,10.770 8.755,10.880 8.558 L 10.980 8.380 10.992 6.190 L 11.003 4.000 12.002 4.000 L 13.000 4.000 13.000 6.110 " stroke="none" fill="black" fill-rule="evenodd"></path></svg>