<svg xmlns="http://www.w3.org/2000/svg" width="24" height="24" viewBox="0 0 24 24" fill="none" stroke="currentColor" stroke-width="2" stroke-linecap="round" stroke-linejoin="round" class="icon icon-tabler icons-tabler-outline icon-tabler-transition-left"><path d="M5.358 2.061 C 3.731 2.315,2.417 3.584,2.083 5.227 C 2.001 5.627,2.000 5.723,2.000 12.000 C 2.000 18.277,2.001 18.373,2.083 18.773 C 2.357 20.118,3.249 21.195,4.512 21.704 C 5.125 21.951,5.974 22.068,6.365 21.959 C 6.586 21.898,6.770 21.755,6.880 21.558 C 6.967 21.402,6.980 21.332,6.979 21.000 C 6.978 20.687,6.962 20.591,6.890 20.453 C 6.736 20.163,6.404 20.000,5.962 20.000 C 5.111 20.000,4.292 19.359,4.073 18.523 C 4.010 18.280,4.004 17.786,4.002 12.028 C 4.000 5.108,3.986 5.479,4.265 5.014 C 4.446 4.712,4.642 4.508,4.937 4.314 C 5.239 4.116,5.481 4.044,5.982 4.003 C 6.533 3.957,6.727 3.856,6.904 3.520 C 7.018 3.305,7.009 2.679,6.890 2.453 C 6.674 2.045,6.216 1.927,5.358 2.061 M17.358 2.061 C 15.731 2.315,14.417 3.584,14.083 5.227 C 14.004 5.613,14.000 5.762,14.000 8.316 L 14.000 11.000 11.712 11.000 L 9.425 11.000 10.147 10.270 C 10.580 9.832,10.905 9.469,10.959 9.363 C 11.137 9.012,11.048 8.646,10.701 8.299 C 10.361 7.959,9.980 7.868,9.628 8.044 C 9.521 8.098,8.915 8.670,7.960 9.618 C 7.135 10.438,6.399 11.150,6.324 11.201 C 6.149 11.321,5.951 11.745,5.951 12.000 C 5.951 12.238,6.150 12.682,6.303 12.784 C 6.366 12.826,7.101 13.537,7.938 14.365 C 8.949 15.365,9.520 15.901,9.637 15.960 C 9.989 16.137,10.354 16.048,10.701 15.701 C 11.048 15.354,11.137 14.988,10.959 14.637 C 10.905 14.531,10.580 14.168,10.147 13.730 L 9.425 13.000 11.712 13.000 L 14.000 13.000 14.000 15.684 C 14.000 18.238,14.004 18.387,14.083 18.773 C 14.357 20.118,15.249 21.195,16.512 21.704 C 18.558 22.528,20.877 21.538,21.704 19.488 C 21.779 19.300,21.877 18.972,21.921 18.757 C 21.998 18.378,22.000 18.195,22.000 12.000 C 22.000 5.805,21.998 5.622,21.921 5.243 C 21.721 4.264,21.197 3.415,20.438 2.843 C 19.866 2.412,19.276 2.160,18.605 2.058 C 18.144 1.989,17.816 1.990,17.358 2.061 M18.523 4.073 C 19.022 4.203,19.516 4.599,19.772 5.071 C 20.007 5.505,19.999 5.261,19.999 12.000 C 19.999 18.736,20.007 18.492,19.772 18.931 C 19.625 19.208,19.191 19.643,18.930 19.775 C 18.346 20.071,17.658 20.073,17.083 19.781 C 16.816 19.646,16.449 19.297,16.281 19.017 C 15.987 18.529,16.005 18.979,16.002 12.028 C 16.000 5.109,15.986 5.479,16.265 5.014 C 16.745 4.212,17.635 3.841,18.523 4.073 " stroke="none" fill="black" fill-rule="evenodd"></path></svg>