<svg xmlns="http://www.w3.org/2000/svg" width="24" height="24" viewBox="0 0 24 24" fill="none" stroke="currentColor" stroke-width="2" stroke-linecap="round" stroke-linejoin="round" class="icon icon-tabler icons-tabler-outline icon-tabler-letter-f-small"><path d="M9.614 7.057 C 9.377 7.131,9.212 7.261,9.109 7.453 L 9.020 7.620 9.009 11.913 C 9.002 14.727,9.013 16.258,9.039 16.357 C 9.144 16.747,9.434 16.961,9.896 16.991 C 10.381 17.022,10.699 16.882,10.880 16.558 L 10.980 16.380 10.992 14.690 L 11.004 13.000 12.112 13.000 C 12.731 13.000,13.284 12.982,13.365 12.959 C 13.586 12.898,13.770 12.755,13.880 12.558 C 13.967 12.402,13.980 12.332,13.979 12.000 C 13.978 11.567,13.898 11.355,13.678 11.199 C 13.430 11.022,13.256 11.000,12.094 11.000 L 11.000 11.000 11.000 10.000 L 11.000 9.000 12.610 9.000 C 13.565 9.000,14.279 8.983,14.365 8.959 C 14.586 8.898,14.770 8.755,14.880 8.558 C 14.967 8.402,14.980 8.332,14.979 8.000 C 14.978 7.567,14.898 7.355,14.678 7.199 C 14.406 7.005,14.336 7.000,11.984 7.003 C 10.293 7.005,9.741 7.017,9.614 7.057 " stroke="none" fill="black" fill-rule="evenodd"></path></svg>