<svg xmlns="http://www.w3.org/2000/svg" width="24" height="24" viewBox="0 0 24 24" fill="none" stroke="currentColor" stroke-width="2" stroke-linecap="round" stroke-linejoin="round" class="icon icon-tabler icons-tabler-outline icon-tabler-arrows-left-down"><path d="M6.620 2.046 C 6.525 2.095,5.652 2.932,4.460 4.118 C 3.360 5.213,2.399 6.150,2.324 6.201 C 2.149 6.321,1.951 6.745,1.951 7.000 C 1.951 7.239,2.150 7.682,2.304 7.784 C 2.366 7.826,3.327 8.763,4.439 9.866 C 5.818 11.234,6.516 11.899,6.637 11.960 C 6.989 12.137,7.354 12.048,7.701 11.701 C 8.048 11.354,8.137 10.989,7.960 10.637 C 7.901 10.521,7.452 10.039,6.647 9.230 L 5.423 8.000 9.841 8.002 C 14.768 8.005,14.538 7.992,15.017 8.281 C 15.294 8.448,15.618 8.787,15.772 9.071 C 16.002 9.496,15.999 9.426,15.999 14.199 L 16.000 18.577 14.770 17.353 C 14.001 16.588,13.477 16.098,13.372 16.045 C 13.020 15.868,12.639 15.958,12.299 16.299 C 11.952 16.646,11.863 17.011,12.040 17.363 C 12.101 17.484,12.766 18.182,14.134 19.561 C 15.237 20.673,16.174 21.634,16.216 21.696 C 16.318 21.850,16.761 22.049,17.000 22.049 C 17.239 22.049,17.682 21.850,17.784 21.696 C 17.826 21.634,18.763 20.673,19.866 19.561 C 21.234 18.182,21.899 17.484,21.960 17.363 C 22.137 17.011,22.048 16.646,21.701 16.299 C 21.361 15.958,20.980 15.868,20.628 16.045 C 20.523 16.098,19.999 16.588,19.230 17.353 L 18.000 18.577 18.000 14.105 C 18.000 9.800,17.997 9.618,17.921 9.243 C 17.628 7.806,16.637 6.680,15.245 6.204 C 14.665 6.005,14.536 6.000,9.821 6.000 L 5.423 6.000 6.647 4.770 C 7.452 3.961,7.901 3.479,7.960 3.363 C 8.137 3.011,8.048 2.646,7.701 2.299 C 7.361 1.959,6.967 1.867,6.620 2.046 " stroke="none" fill="black" fill-rule="evenodd"></path></svg>