<svg xmlns="http://www.w3.org/2000/svg" width="24" height="24" viewBox="0 0 24 24" fill="none" stroke="currentColor" stroke-width="2" stroke-linecap="round" stroke-linejoin="round" class="icon icon-tabler icons-tabler-outline icon-tabler-html"><path d="M16.625 7.016 C 16.426 7.090,16.256 7.254,16.142 7.480 C 16.093 7.579,15.821 8.240,15.539 8.950 C 15.256 9.660,15.014 10.240,15.000 10.240 C 14.986 10.240,14.726 9.615,14.422 8.850 C 13.899 7.538,13.857 7.450,13.681 7.276 C 13.409 7.010,13.037 6.933,12.625 7.057 C 12.294 7.156,12.166 7.292,12.018 7.700 C 11.992 7.770,11.985 7.766,11.961 7.660 C 11.888 7.345,11.703 7.155,11.371 7.055 C 11.098 6.973,6.897 6.974,6.625 7.057 C 6.294 7.156,6.166 7.292,6.018 7.700 C 5.992 7.770,5.985 7.766,5.961 7.660 C 5.857 7.209,5.439 6.960,4.874 7.011 C 4.439 7.051,4.141 7.274,4.041 7.635 C 4.017 7.721,4.000 8.435,4.000 9.390 L 4.000 11.000 3.002 11.000 L 2.004 11.000 1.992 9.310 C 1.980 7.641,1.979 7.618,1.889 7.450 C 1.724 7.140,1.329 6.970,0.874 7.011 C 0.439 7.051,0.141 7.274,0.041 7.635 C -0.014 7.833,-0.014 16.167,0.041 16.365 C 0.148 16.750,0.437 16.962,0.896 16.991 C 1.381 17.022,1.699 16.882,1.880 16.558 L 1.980 16.380 1.992 14.690 L 2.004 13.000 3.002 13.000 L 4.000 13.000 4.000 14.610 C 4.000 15.565,4.017 16.279,4.041 16.365 C 4.148 16.750,4.437 16.962,4.896 16.991 C 5.381 17.022,5.699 16.882,5.880 16.558 L 5.980 16.380 6.000 12.320 C 6.011 10.087,6.032 8.314,6.047 8.380 C 6.090 8.571,6.249 8.772,6.442 8.880 C 6.609 8.974,6.661 8.981,7.310 8.993 L 8.000 9.007 8.000 12.613 C 8.000 14.906,8.015 16.273,8.041 16.365 C 8.148 16.750,8.437 16.962,8.896 16.991 C 9.381 17.022,9.699 16.882,9.880 16.558 L 9.980 16.380 9.991 12.690 L 10.002 9.000 10.611 9.000 C 10.946 9.000,11.285 8.981,11.365 8.959 C 11.668 8.875,11.890 8.647,11.962 8.346 C 11.978 8.277,11.994 10.020,11.996 12.220 C 11.999 14.763,12.015 16.273,12.041 16.365 C 12.148 16.750,12.437 16.962,12.896 16.991 C 13.381 17.022,13.699 16.882,13.880 16.558 L 13.980 16.380 13.992 14.804 L 14.004 13.229 14.117 13.464 C 14.246 13.733,14.394 13.888,14.609 13.978 C 14.805 14.060,14.939 14.056,15.246 13.961 C 15.563 13.863,15.763 13.700,15.896 13.432 L 16.000 13.224 16.000 14.722 C 16.000 15.602,16.017 16.280,16.041 16.365 C 16.148 16.750,16.437 16.962,16.896 16.991 C 17.381 17.022,17.699 16.882,17.880 16.558 L 17.980 16.380 17.991 12.103 C 18.003 7.264,18.022 7.572,17.694 7.283 C 17.405 7.029,16.919 6.908,16.625 7.016 M19.614 7.057 C 19.377 7.131,19.212 7.261,19.109 7.453 L 19.020 7.620 19.009 11.913 C 19.002 14.727,19.013 16.258,19.039 16.357 C 19.100 16.584,19.242 16.768,19.442 16.880 L 19.620 16.980 21.410 16.992 C 22.557 16.999,23.255 16.988,23.354 16.962 C 23.583 16.900,23.768 16.758,23.880 16.558 C 23.967 16.402,23.980 16.332,23.979 16.000 C 23.978 15.567,23.898 15.355,23.678 15.199 C 23.430 15.022,23.256 15.000,22.095 15.000 L 21.002 15.000 20.991 11.310 L 20.980 7.620 20.891 7.453 C 20.842 7.362,20.746 7.247,20.678 7.199 C 20.414 7.010,19.957 6.950,19.614 7.057 " stroke="none" fill="black" fill-rule="evenodd"></path></svg>