<svg xmlns="http://www.w3.org/2000/svg" width="24" height="24" viewBox="0 0 24 24" fill="none" stroke="currentColor" stroke-width="2" stroke-linecap="round" stroke-linejoin="round" class="icon icon-tabler icons-tabler-outline icon-tabler-device-computer-camera-off"><path d="M2.626 2.045 C 2.257 2.239,1.951 2.673,1.951 3.000 C 1.951 3.338,2.049 3.459,3.511 4.928 L 4.893 6.316 4.731 6.668 C 4.294 7.614,4.051 8.641,4.011 9.703 C 3.928 11.952,4.777 14.098,6.377 15.679 C 6.587 15.888,6.760 16.070,6.760 16.085 C 6.760 16.099,6.380 16.748,5.915 17.526 C 5.450 18.303,5.020 19.045,4.958 19.174 C 4.701 19.709,4.707 20.299,4.975 20.862 C 5.150 21.232,5.515 21.615,5.840 21.772 C 6.337 22.011,6.036 22.000,12.000 22.000 C 17.962 22.000,17.661 22.011,18.160 21.772 C 18.467 21.625,18.868 21.208,19.019 20.879 C 19.084 20.737,19.143 20.612,19.149 20.603 C 19.156 20.594,19.453 20.875,19.810 21.227 C 20.188 21.601,20.534 21.907,20.637 21.959 C 20.988 22.137,21.354 22.049,21.701 21.701 C 22.116 21.286,22.159 20.867,21.832 20.440 C 21.769 20.358,19.542 18.119,9.946 8.494 C 7.042 5.581,3.505 2.111,3.372 2.044 C 3.152 1.934,2.835 1.935,2.626 2.045 M11.160 2.042 C 9.925 2.195,8.832 2.567,7.850 3.166 C 7.269 3.520,7.104 3.729,7.107 4.103 C 7.111 4.608,7.633 5.200,8.072 5.200 C 8.281 5.200,8.443 5.140,8.800 4.929 C 9.526 4.500,10.088 4.276,10.850 4.114 C 11.387 4.000,12.473 3.988,13.020 4.090 C 14.401 4.347,15.591 5.015,16.505 6.047 C 17.222 6.856,17.748 7.975,17.924 9.064 C 17.991 9.483,17.993 10.543,17.927 10.920 C 17.789 11.705,17.552 12.364,17.177 13.004 C 16.880 13.511,16.831 13.626,16.809 13.863 C 16.786 14.121,16.886 14.328,17.140 14.551 C 17.731 15.071,18.272 15.003,18.704 14.354 C 19.581 13.034,20.053 11.337,19.986 9.740 C 19.936 8.538,19.702 7.579,19.208 6.548 C 18.067 4.167,15.840 2.512,13.220 2.099 C 12.736 2.023,11.573 1.991,11.160 2.042 M11.499 6.042 C 10.735 6.142,10.278 6.381,10.158 6.746 C 10.093 6.944,10.130 7.334,10.237 7.584 C 10.435 8.045,10.859 8.254,11.320 8.119 C 12.338 7.821,13.336 8.228,13.773 9.120 C 14.004 9.592,14.049 9.954,13.937 10.460 C 13.803 11.064,13.826 11.255,14.062 11.517 C 14.276 11.753,14.550 11.857,14.963 11.859 C 15.277 11.860,15.318 11.851,15.452 11.749 C 15.654 11.595,15.782 11.358,15.879 10.959 C 16.210 9.596,15.812 8.173,14.824 7.185 C 14.161 6.522,13.351 6.142,12.380 6.040 C 11.974 5.996,11.842 5.997,11.499 6.042 M8.009 9.892 C 7.982 10.626,8.181 11.407,8.552 12.031 C 9.083 12.921,9.980 13.599,10.980 13.866 C 11.314 13.955,11.479 13.975,11.976 13.983 L 12.573 13.993 13.368 14.787 L 14.163 15.580 14.007 15.649 C 13.922 15.687,13.674 15.762,13.456 15.817 C 11.398 16.333,9.273 15.743,7.764 14.235 C 6.970 13.442,6.392 12.407,6.162 11.364 C 5.908 10.215,5.980 8.924,6.351 7.986 L 6.412 7.832 7.218 8.638 L 8.025 9.444 8.009 9.892 M8.782 17.321 C 9.696 17.731,10.642 17.945,11.720 17.987 C 12.878 18.031,13.958 17.838,15.027 17.397 C 15.243 17.308,15.448 17.226,15.483 17.215 C 15.530 17.200,15.751 17.537,16.373 18.574 C 16.828 19.333,17.200 19.964,17.200 19.977 C 17.200 19.990,14.860 20.000,12.000 20.000 C 9.140 20.000,6.800 19.990,6.800 19.977 C 6.800 19.929,8.453 17.200,8.482 17.200 C 8.499 17.200,8.634 17.254,8.782 17.321 " stroke="none" fill="black" fill-rule="evenodd"></path></svg>