<svg xmlns="http://www.w3.org/2000/svg" width="24" height="24" viewBox="0 0 24 24" fill="none" stroke="currentColor" stroke-width="2" stroke-linecap="round" stroke-linejoin="round" class="icon icon-tabler icons-tabler-outline icon-tabler-math-equal-greater"><path d="M4.497 5.075 C 4.198 5.257,3.989 5.688,3.988 6.120 C 3.987 6.490,4.197 6.759,4.607 6.911 C 4.724 6.954,7.174 7.662,10.050 8.483 C 12.927 9.305,15.280 9.987,15.280 10.000 C 15.280 10.013,12.895 10.705,9.979 11.537 C 7.064 12.370,4.593 13.092,4.489 13.141 C 4.137 13.307,3.987 13.528,3.988 13.880 C 3.989 14.326,4.224 14.786,4.534 14.948 C 4.824 15.099,4.718 15.126,12.263 12.967 C 16.181 11.846,19.448 10.898,19.523 10.860 C 19.861 10.689,20.015 10.449,20.010 10.100 C 20.005 9.691,19.829 9.339,19.543 9.162 C 19.463 9.113,16.356 8.205,12.272 7.038 C 4.560 4.834,4.795 4.893,4.497 5.075 M11.718 15.038 C 7.812 16.155,4.545 17.107,4.458 17.152 C 4.129 17.321,3.987 17.542,3.988 17.880 C 3.989 18.326,4.224 18.786,4.534 18.948 C 4.824 19.099,4.718 19.126,12.263 16.967 C 16.181 15.846,19.448 14.898,19.523 14.860 C 19.851 14.694,20.013 14.449,20.012 14.120 C 20.011 13.681,19.775 13.213,19.478 13.059 C 19.171 12.900,19.319 12.863,11.718 15.038 " stroke="none" fill="black" fill-rule="evenodd"></path></svg>