<svg xmlns="http://www.w3.org/2000/svg" width="24" height="24" viewBox="0 0 24 24" fill="none" stroke="currentColor" stroke-width="2" stroke-linecap="round" stroke-linejoin="round" class="icon icon-tabler icons-tabler-outline icon-tabler-brand-pnpm"><path d="M2.614 2.057 C 2.377 2.131,2.212 2.261,2.109 2.453 L 2.020 2.620 2.020 5.000 L 2.020 7.380 2.120 7.558 C 2.230 7.755,2.414 7.898,2.635 7.959 C 2.831 8.014,7.169 8.014,7.365 7.959 C 7.586 7.898,7.770 7.755,7.880 7.558 L 7.980 7.380 7.980 5.000 L 7.980 2.620 7.891 2.453 C 7.785 2.256,7.622 2.131,7.371 2.055 C 7.112 1.977,2.864 1.979,2.614 2.057 M9.614 2.057 C 9.377 2.131,9.212 2.261,9.109 2.453 L 9.020 2.620 9.020 5.000 L 9.020 7.380 9.120 7.558 C 9.230 7.755,9.414 7.898,9.635 7.959 C 9.831 8.014,14.169 8.014,14.365 7.959 C 14.586 7.898,14.770 7.755,14.880 7.558 L 14.980 7.380 14.980 5.000 L 14.980 2.620 14.891 2.453 C 14.785 2.256,14.622 2.131,14.371 2.055 C 14.112 1.977,9.864 1.979,9.614 2.057 M16.614 2.057 C 16.377 2.131,16.212 2.261,16.109 2.453 L 16.020 2.620 16.020 5.000 L 16.020 7.380 16.120 7.558 C 16.230 7.755,16.414 7.898,16.635 7.959 C 16.831 8.014,21.169 8.014,21.365 7.959 C 21.586 7.898,21.770 7.755,21.880 7.558 L 21.980 7.380 21.980 5.000 L 21.980 2.620 21.891 2.453 C 21.785 2.256,21.622 2.131,21.371 2.055 C 21.112 1.977,16.864 1.979,16.614 2.057 M6.000 5.000 L 6.000 6.000 5.000 6.000 L 4.000 6.000 4.000 5.000 L 4.000 4.000 5.000 4.000 L 6.000 4.000 6.000 5.000 M13.000 5.000 L 13.000 6.000 12.000 6.000 L 11.000 6.000 11.000 5.000 L 11.000 4.000 12.000 4.000 L 13.000 4.000 13.000 5.000 M20.000 5.000 L 20.000 6.000 19.000 6.000 L 18.000 6.000 18.000 5.000 L 18.000 4.000 19.000 4.000 L 20.000 4.000 20.000 5.000 M9.614 9.057 C 9.377 9.131,9.212 9.261,9.109 9.453 L 9.020 9.620 9.020 12.000 L 9.020 14.380 9.120 14.558 C 9.230 14.755,9.414 14.898,9.635 14.959 C 9.831 15.014,14.169 15.014,14.365 14.959 C 14.586 14.898,14.770 14.755,14.880 14.558 L 14.980 14.380 14.980 12.000 L 14.980 9.620 14.891 9.453 C 14.785 9.256,14.622 9.131,14.371 9.055 C 14.112 8.977,9.864 8.979,9.614 9.057 M16.614 9.057 C 16.377 9.131,16.212 9.261,16.109 9.453 L 16.020 9.620 16.020 12.000 L 16.020 14.380 16.120 14.558 C 16.230 14.755,16.414 14.898,16.635 14.959 C 16.831 15.014,21.169 15.014,21.365 14.959 C 21.586 14.898,21.770 14.755,21.880 14.558 L 21.980 14.380 21.980 12.000 L 21.980 9.620 21.891 9.453 C 21.785 9.256,21.622 9.131,21.371 9.055 C 21.112 8.977,16.864 8.979,16.614 9.057 M13.000 12.000 L 13.000 13.000 12.000 13.000 L 11.000 13.000 11.000 12.000 L 11.000 11.000 12.000 11.000 L 13.000 11.000 13.000 12.000 M20.000 12.000 L 20.000 13.000 19.000 13.000 L 18.000 13.000 18.000 12.000 L 18.000 11.000 19.000 11.000 L 20.000 11.000 20.000 12.000 M2.614 16.057 C 2.377 16.131,2.212 16.261,2.109 16.453 L 2.020 16.620 2.020 19.000 L 2.020 21.380 2.120 21.558 C 2.230 21.755,2.414 21.898,2.635 21.959 C 2.831 22.014,7.169 22.014,7.365 21.959 C 7.586 21.898,7.770 21.755,7.880 21.558 L 7.980 21.380 7.980 19.000 L 7.980 16.620 7.891 16.453 C 7.785 16.256,7.622 16.131,7.371 16.055 C 7.112 15.977,2.864 15.979,2.614 16.057 M9.614 16.057 C 9.377 16.131,9.212 16.261,9.109 16.453 L 9.020 16.620 9.020 19.000 L 9.020 21.380 9.120 21.558 C 9.230 21.755,9.414 21.898,9.635 21.959 C 9.831 22.014,14.169 22.014,14.365 21.959 C 14.586 21.898,14.770 21.755,14.880 21.558 L 14.980 21.380 14.980 19.000 L 14.980 16.620 14.891 16.453 C 14.785 16.256,14.622 16.131,14.371 16.055 C 14.112 15.977,9.864 15.979,9.614 16.057 M16.614 16.057 C 16.377 16.131,16.212 16.261,16.109 16.453 L 16.020 16.620 16.020 19.000 L 16.020 21.380 16.120 21.558 C 16.230 21.755,16.414 21.898,16.635 21.959 C 16.831 22.014,21.169 22.014,21.365 21.959 C 21.586 21.898,21.770 21.755,21.880 21.558 L 21.980 21.380 21.980 19.000 L 21.980 16.620 21.891 16.453 C 21.785 16.256,21.622 16.131,21.371 16.055 C 21.112 15.977,16.864 15.979,16.614 16.057 M6.000 19.000 L 6.000 20.000 5.000 20.000 L 4.000 20.000 4.000 19.000 L 4.000 18.000 5.000 18.000 L 6.000 18.000 6.000 19.000 M13.000 19.000 L 13.000 20.000 12.000 20.000 L 11.000 20.000 11.000 19.000 L 11.000 18.000 12.000 18.000 L 13.000 18.000 13.000 19.000 M20.000 19.000 L 20.000 20.000 19.000 20.000 L 18.000 20.000 18.000 19.000 L 18.000 18.000 19.000 18.000 L 20.000 18.000 20.000 19.000 " stroke="none" fill="black" fill-rule="evenodd"></path></svg>