<svg xmlns="http://www.w3.org/2000/svg" width="24" height="24" viewBox="0 0 24 24" fill="none" stroke="currentColor" stroke-width="2" stroke-linecap="round" stroke-linejoin="round" class="icon icon-tabler icons-tabler-outline icon-tabler-settings-heart"><path d="M11.579 2.039 C 10.582 2.179,9.722 2.908,9.421 3.866 C 9.287 4.293,9.167 4.464,8.928 4.569 C 8.691 4.674,8.518 4.649,8.107 4.446 C 7.251 4.024,6.480 4.018,5.650 4.425 C 4.677 4.904,4.074 5.926,4.132 7.000 C 4.154 7.418,4.236 7.700,4.486 8.218 C 4.655 8.567,4.671 8.688,4.578 8.911 C 4.476 9.155,4.330 9.275,4.021 9.367 C 2.978 9.677,2.274 10.426,2.063 11.448 C 1.882 12.332,2.134 13.228,2.752 13.889 C 3.072 14.232,3.481 14.474,3.986 14.620 C 4.282 14.705,4.468 14.846,4.563 15.055 C 4.676 15.302,4.659 15.413,4.437 15.890 C 4.326 16.130,4.209 16.446,4.178 16.593 C 4.070 17.101,4.122 17.639,4.329 18.160 C 4.585 18.806,5.194 19.415,5.840 19.671 C 6.621 19.981,7.299 19.942,8.161 19.539 C 8.584 19.342,8.702 19.326,8.940 19.436 C 9.182 19.547,9.266 19.666,9.411 20.104 C 9.567 20.576,9.821 20.981,10.144 21.277 C 10.611 21.704,11.190 21.944,11.517 21.846 C 11.753 21.775,11.977 21.556,12.130 21.247 C 12.379 20.740,12.283 20.316,11.859 20.055 C 11.477 19.820,11.368 19.694,11.276 19.386 C 10.997 18.447,10.361 17.785,9.460 17.494 C 9.203 17.411,9.054 17.390,8.700 17.385 C 8.165 17.379,7.955 17.428,7.386 17.690 C 7.014 17.862,6.928 17.887,6.773 17.869 C 6.549 17.844,6.332 17.679,6.210 17.439 C 6.085 17.194,6.097 17.060,6.276 16.696 C 6.560 16.120,6.667 15.657,6.626 15.183 C 6.523 13.983,5.780 13.076,4.610 12.720 C 4.284 12.621,4.116 12.470,4.037 12.205 C 3.911 11.786,4.130 11.440,4.620 11.280 C 5.586 10.966,6.213 10.362,6.507 9.460 C 6.594 9.194,6.612 9.062,6.614 8.680 C 6.618 8.133,6.555 7.868,6.297 7.345 C 6.200 7.148,6.120 6.931,6.121 6.863 C 6.123 6.574,6.367 6.257,6.662 6.159 C 6.849 6.098,7.035 6.135,7.359 6.300 C 8.068 6.662,8.751 6.728,9.462 6.503 C 10.351 6.222,10.962 5.593,11.277 4.632 C 11.385 4.304,11.484 4.172,11.697 4.076 C 11.904 3.982,12.096 3.982,12.300 4.075 C 12.531 4.181,12.590 4.265,12.760 4.735 C 12.941 5.234,13.129 5.534,13.462 5.860 C 13.766 6.156,14.120 6.369,14.540 6.508 C 14.809 6.597,14.933 6.614,15.320 6.615 C 15.859 6.617,16.148 6.551,16.603 6.320 C 16.968 6.135,17.146 6.096,17.338 6.159 C 17.633 6.257,17.877 6.574,17.879 6.863 C 17.880 6.931,17.800 7.148,17.703 7.345 C 17.445 7.868,17.382 8.133,17.386 8.680 C 17.388 9.062,17.406 9.194,17.493 9.460 C 17.787 10.361,18.412 10.965,19.380 11.281 C 19.668 11.375,19.780 11.464,20.073 11.834 C 20.403 12.250,20.934 12.259,21.440 11.857 C 21.846 11.535,21.908 11.187,21.653 10.677 C 21.355 10.082,20.726 9.589,19.979 9.367 C 19.670 9.275,19.524 9.155,19.422 8.911 C 19.326 8.682,19.344 8.580,19.563 8.110 C 19.674 7.870,19.791 7.554,19.822 7.407 C 20.073 6.223,19.453 4.968,18.350 4.425 C 17.504 4.010,16.701 4.027,15.813 4.481 C 15.463 4.660,15.305 4.677,15.055 4.563 C 14.846 4.468,14.705 4.282,14.620 3.986 C 14.394 3.203,13.934 2.650,13.224 2.305 C 13.024 2.208,12.779 2.109,12.680 2.086 C 12.413 2.025,11.853 2.001,11.579 2.039 M11.423 8.041 C 10.535 8.182,9.819 8.544,9.175 9.179 C 8.647 9.700,8.322 10.270,8.114 11.041 C 7.982 11.528,7.979 12.472,8.109 12.943 C 8.367 13.887,8.851 14.626,9.571 15.173 C 10.512 15.888,11.097 15.842,11.485 15.023 C 11.624 14.728,11.638 14.432,11.524 14.208 C 11.429 14.024,11.332 13.935,10.990 13.721 C 10.166 13.207,9.810 12.236,10.119 11.343 C 10.431 10.438,11.355 9.885,12.306 10.033 C 13.062 10.151,13.639 10.654,13.921 11.440 C 14.113 11.978,14.358 12.183,14.800 12.175 C 15.391 12.164,15.821 11.852,15.897 11.380 C 15.930 11.176,15.816 10.726,15.628 10.314 C 15.144 9.254,14.132 8.418,12.966 8.115 C 12.611 8.023,11.789 7.984,11.423 8.041 M15.699 14.037 C 14.670 14.202,13.737 14.905,13.305 15.840 C 13.072 16.345,13.021 16.592,13.024 17.200 C 13.026 17.692,13.037 17.773,13.149 18.111 C 13.314 18.608,13.546 18.985,13.936 19.393 C 14.114 19.578,14.984 20.440,15.868 21.306 C 17.563 22.967,17.651 23.038,18.000 23.038 C 18.345 23.038,18.445 22.958,19.971 21.466 C 22.507 18.986,22.575 18.908,22.818 18.213 C 23.020 17.636,23.050 16.947,22.900 16.380 C 22.746 15.802,22.353 15.189,21.871 14.775 C 20.903 13.943,19.453 13.773,18.325 14.360 L 18.013 14.522 17.697 14.363 C 17.245 14.135,16.862 14.039,16.340 14.020 C 16.098 14.012,15.810 14.019,15.699 14.037 M16.753 16.136 C 16.861 16.191,17.080 16.356,17.239 16.502 C 17.843 17.056,18.170 17.055,18.773 16.497 C 19.226 16.077,19.559 15.955,20.020 16.041 C 20.841 16.193,21.259 17.127,20.806 17.797 C 20.748 17.883,20.101 18.542,19.368 19.262 C 18.242 20.369,18.025 20.565,17.961 20.535 C 17.919 20.516,17.278 19.898,16.537 19.163 C 15.024 17.661,15.020 17.657,15.023 17.160 C 15.025 16.915,15.045 16.822,15.133 16.651 C 15.292 16.341,15.584 16.126,15.980 16.025 C 16.156 15.980,16.559 16.038,16.753 16.136 " stroke="none" fill="black" fill-rule="evenodd"></path></svg>