<svg xmlns="http://www.w3.org/2000/svg" width="24" height="24" viewBox="0 0 24 24" fill="none" stroke="currentColor" stroke-width="2" stroke-linecap="round" stroke-linejoin="round" class="icon icon-tabler icons-tabler-outline icon-tabler-pool-off"><path d="M2.626 2.045 C 2.420 2.154,2.146 2.433,2.038 2.644 C 1.924 2.867,1.924 3.132,2.039 3.363 C 2.102 3.487,2.998 4.411,5.064 6.481 L 8.000 9.421 8.000 10.821 C 8.000 11.635,8.017 12.281,8.041 12.365 C 8.148 12.750,8.437 12.962,8.896 12.991 C 9.381 13.022,9.700 12.881,9.878 12.559 C 9.963 12.406,9.979 12.317,9.993 11.906 L 10.010 11.431 11.782 13.202 L 13.553 14.973 13.387 15.172 C 12.907 15.745,12.804 15.828,12.439 15.937 C 12.028 16.059,11.507 15.988,11.182 15.767 C 11.095 15.707,10.889 15.499,10.724 15.304 C 10.560 15.109,10.325 14.870,10.203 14.773 C 8.912 13.748,7.088 13.748,5.797 14.773 C 5.675 14.870,5.440 15.109,5.276 15.304 C 5.111 15.499,4.905 15.707,4.818 15.767 C 4.493 15.988,3.972 16.059,3.561 15.937 C 3.261 15.848,3.089 15.728,2.820 15.421 C 2.408 14.952,2.091 14.853,1.654 15.057 C 1.019 15.352,0.796 15.888,1.090 16.409 C 1.628 17.361,2.798 18.000,4.004 18.000 C 5.073 18.000,6.008 17.552,6.721 16.698 C 7.144 16.192,7.496 16.000,8.000 16.000 C 8.504 16.000,8.856 16.192,9.278 16.697 C 9.995 17.556,10.924 18.000,12.004 18.000 C 13.063 18.000,14.019 17.546,14.704 16.718 L 14.973 16.393 15.786 17.206 C 16.234 17.653,16.600 18.023,16.600 18.029 C 16.600 18.034,16.433 18.027,16.229 18.013 C 15.353 17.956,14.485 18.227,13.797 18.773 C 13.675 18.870,13.440 19.109,13.276 19.304 C 13.111 19.499,12.905 19.707,12.818 19.767 C 12.373 20.070,11.627 20.070,11.182 19.767 C 11.095 19.707,10.889 19.499,10.724 19.304 C 10.560 19.109,10.325 18.870,10.203 18.773 C 9.075 17.877,7.509 17.753,6.261 18.460 C 5.891 18.669,5.604 18.915,5.276 19.304 C 5.111 19.499,4.905 19.707,4.818 19.767 C 4.493 19.988,3.972 20.059,3.561 19.937 C 3.261 19.848,3.089 19.728,2.820 19.421 C 2.408 18.952,2.091 18.853,1.654 19.057 C 1.019 19.352,0.796 19.888,1.090 20.409 C 1.628 21.361,2.798 22.000,4.004 22.000 C 5.073 22.000,6.008 21.552,6.721 20.698 C 7.144 20.192,7.496 20.000,8.000 20.000 C 8.504 20.000,8.856 20.192,9.278 20.697 C 9.995 21.556,10.924 22.000,12.004 22.000 C 13.073 22.000,14.008 21.552,14.721 20.698 C 15.144 20.192,15.496 20.000,16.000 20.000 C 16.504 20.000,16.856 20.192,17.278 20.697 C 18.047 21.619,19.028 22.051,20.209 21.988 C 20.491 21.973,20.683 21.980,20.733 22.007 C 20.866 22.078,21.171 22.056,21.356 21.962 C 21.576 21.850,21.850 21.576,21.962 21.356 C 22.068 21.148,22.076 20.865,21.981 20.681 C 21.866 20.459,21.486 19.967,21.411 19.943 C 21.361 19.927,11.949 10.524,10.747 9.290 C 10.699 9.241,10.480 9.022,10.260 8.803 C 10.040 8.585,9.815 8.360,9.760 8.305 C 7.125 5.659,3.505 2.111,3.372 2.044 C 3.152 1.934,2.835 1.935,2.626 2.045 M6.996 2.058 C 6.521 2.157,6.226 2.352,6.102 2.649 C 5.919 3.086,6.212 3.852,6.629 4.026 C 6.788 4.093,7.024 4.095,7.327 4.032 C 7.527 3.991,7.577 3.993,7.699 4.052 C 7.940 4.167,8.000 4.315,8.000 4.805 C 8.000 5.309,8.073 5.579,8.255 5.753 C 8.515 6.001,8.497 6.000,11.381 6.000 L 14.000 6.000 14.000 7.491 L 14.000 8.982 13.756 9.028 C 13.272 9.120,13.042 9.388,13.009 9.900 C 12.969 10.530,13.252 10.923,13.792 10.987 L 13.990 11.010 14.013 11.208 C 14.074 11.715,14.428 12.000,15.000 12.000 C 15.428 12.000,15.713 11.856,15.880 11.558 L 15.980 11.380 16.000 7.860 C 16.016 5.055,16.031 4.321,16.073 4.248 C 16.143 4.125,16.354 4.000,16.492 4.000 C 16.766 4.000,17.000 4.250,17.000 4.543 C 17.000 4.952,17.202 5.282,17.537 5.422 C 17.750 5.510,18.249 5.511,18.460 5.423 C 18.864 5.254,19.027 4.913,18.988 4.320 C 18.932 3.443,18.413 2.669,17.620 2.277 C 17.263 2.100,16.861 2.001,16.500 2.001 C 15.929 2.001,15.258 2.258,14.832 2.639 C 14.533 2.906,14.238 3.353,14.122 3.712 L 14.030 4.001 11.990 3.990 L 9.951 3.980 9.883 3.759 C 9.647 2.998,9.007 2.357,8.240 2.116 C 7.906 2.011,7.344 1.985,6.996 2.058 M21.558 15.074 C 21.460 15.137,21.274 15.310,21.144 15.458 C 20.948 15.682,20.848 15.756,20.544 15.905 C 19.954 16.195,19.812 16.389,19.850 16.858 C 19.884 17.289,20.128 17.696,20.429 17.825 C 20.915 18.034,21.911 17.599,22.555 16.896 C 23.139 16.258,23.194 15.733,22.718 15.303 C 22.331 14.954,21.883 14.865,21.558 15.074 " stroke="none" fill="black" fill-rule="evenodd"></path></svg>