<svg xmlns="http://www.w3.org/2000/svg" width="24" height="24" viewBox="0 0 24 24" fill="none" stroke="currentColor" stroke-width="2" stroke-linecap="round" stroke-linejoin="round" class="icon icon-tabler icons-tabler-outline icon-tabler-brand-openvpn"><path d="M11.080 2.045 C 9.507 2.184,7.883 2.751,6.540 3.630 C 5.905 4.045,5.499 4.378,4.919 4.958 C 2.953 6.926,1.919 9.544,2.013 12.320 C 2.084 14.439,2.752 16.328,4.033 18.040 C 4.430 18.570,5.305 19.464,5.800 19.847 C 7.245 20.963,8.780 21.622,10.600 21.906 C 11.247 22.008,12.753 22.008,13.400 21.906 C 15.221 21.621,16.759 20.961,18.200 19.847 C 18.637 19.509,19.509 18.637,19.847 18.200 C 20.959 16.762,21.624 15.214,21.907 13.400 C 22.008 12.753,22.008 11.247,21.907 10.600 C 21.624 8.786,20.959 7.238,19.847 5.800 C 19.510 5.365,18.639 4.494,18.200 4.154 C 16.133 2.555,13.646 1.818,11.080 2.045 M12.734 4.041 C 14.574 4.216,16.228 4.976,17.554 6.256 C 20.043 8.658,20.702 12.394,19.183 15.499 C 18.550 16.794,17.618 17.861,16.407 18.677 C 16.268 18.770,16.149 18.841,16.143 18.834 C 16.137 18.826,15.798 17.965,15.391 16.920 L 14.649 15.020 14.896 14.758 C 15.941 13.651,16.262 12.129,15.761 10.658 C 15.338 9.414,14.258 8.442,12.931 8.112 C 12.431 7.987,11.568 7.988,11.067 8.112 C 9.190 8.579,7.924 10.265,8.012 12.180 C 8.058 13.164,8.431 14.045,9.105 14.759 L 9.352 15.021 8.610 16.921 C 8.203 17.965,7.864 18.826,7.857 18.834 C 7.843 18.851,7.412 18.561,7.100 18.324 C 6.751 18.058,6.192 17.513,5.847 17.100 C 3.848 14.711,3.440 11.302,4.816 8.500 C 6.162 5.760,8.867 4.049,11.920 4.005 C 12.129 4.003,12.495 4.019,12.734 4.041 M12.353 10.042 C 13.054 10.155,13.657 10.686,13.905 11.408 C 14.005 11.698,14.005 12.302,13.905 12.592 C 13.734 13.089,13.462 13.426,12.969 13.751 C 12.519 14.047,12.419 14.198,12.423 14.577 C 12.426 14.849,12.463 14.954,13.370 17.259 L 14.315 19.659 14.147 19.709 C 12.877 20.087,11.123 20.087,9.854 19.709 L 9.688 19.659 10.631 17.260 C 11.538 14.953,11.574 14.849,11.577 14.577 C 11.581 14.198,11.481 14.047,11.031 13.751 C 10.333 13.291,10.022 12.751,10.022 12.000 C 10.022 11.409,10.193 11.002,10.618 10.579 C 11.084 10.116,11.678 9.932,12.353 10.042 " stroke="none" fill="black" fill-rule="evenodd"></path></svg>