<svg xmlns="http://www.w3.org/2000/svg" width="24" height="24" viewBox="0 0 24 24" fill="none" stroke="currentColor" stroke-width="2" stroke-linecap="round" stroke-linejoin="round" class="icon icon-tabler icons-tabler-outline icon-tabler-brand-elastic"><path d="M13.468 1.042 C 12.135 1.161,10.906 1.741,9.918 2.720 C 9.685 2.951,9.432 3.217,9.357 3.310 L 9.220 3.481 8.980 3.365 C 8.019 2.901,6.895 2.910,5.940 3.390 C 5.011 3.857,4.415 4.597,4.110 5.660 C 4.024 5.960,3.991 6.740,4.051 7.072 C 4.081 7.239,4.078 7.245,3.957 7.287 C 3.650 7.394,3.112 7.689,2.815 7.913 C 2.074 8.473,1.562 9.188,1.264 10.080 C 1.085 10.617,1.033 10.944,1.033 11.540 C 1.033 13.048,1.786 14.421,3.080 15.274 C 3.283 15.407,3.600 15.576,3.786 15.648 C 4.074 15.761,4.120 15.792,4.104 15.860 C 3.964 16.444,3.979 17.548,4.136 18.260 C 4.654 20.612,6.424 22.357,8.830 22.889 C 9.365 23.007,10.569 23.016,11.080 22.905 C 11.885 22.731,12.557 22.450,13.213 22.014 C 13.634 21.733,14.319 21.104,14.600 20.740 L 14.768 20.522 14.931 20.606 C 16.000 21.151,17.181 21.124,18.240 20.531 C 18.709 20.268,19.268 19.709,19.531 19.240 C 19.936 18.517,20.089 17.688,19.943 17.000 C 19.913 16.857,19.891 16.739,19.894 16.737 C 20.888 16.268,21.274 16.010,21.771 15.482 C 22.867 14.316,23.252 12.790,22.825 11.300 C 22.439 9.952,21.368 8.803,20.030 8.300 C 19.925 8.261,19.840 8.224,19.840 8.217 C 19.840 8.211,19.870 8.074,19.907 7.913 C 20.013 7.455,20.001 6.386,19.885 5.840 C 19.627 4.634,19.109 3.661,18.269 2.805 C 17.258 1.775,16.009 1.180,14.564 1.039 C 14.131 0.997,13.971 0.998,13.468 1.042 M14.605 3.058 C 15.855 3.247,16.964 4.042,17.536 5.160 C 17.775 5.627,17.875 5.942,17.950 6.459 C 18.028 6.999,17.985 7.433,17.797 8.029 L 17.673 8.420 15.986 10.112 C 14.501 11.603,14.288 11.802,14.200 11.784 C 14.145 11.773,13.228 11.414,12.163 10.987 L 10.226 10.210 9.893 9.545 L 9.560 8.880 10.005 7.098 C 10.443 5.349,10.455 5.310,10.655 4.971 C 10.890 4.574,11.417 3.997,11.783 3.737 C 12.620 3.139,13.592 2.906,14.605 3.058 M7.822 5.062 C 7.953 5.096,8.134 5.168,8.225 5.221 L 8.391 5.318 8.091 6.515 L 7.792 7.711 6.986 7.443 L 6.180 7.175 6.101 7.018 C 5.986 6.789,5.993 6.264,6.116 5.950 C 6.289 5.506,6.762 5.120,7.226 5.042 C 7.517 4.993,7.563 4.995,7.822 5.062 M6.640 9.436 L 7.780 9.820 8.027 10.300 L 8.274 10.780 8.167 10.894 C 8.108 10.956,7.381 11.674,6.551 12.488 L 5.041 13.968 4.771 13.885 C 3.982 13.644,3.288 12.906,3.100 12.110 C 3.022 11.779,3.024 11.175,3.103 10.866 C 3.271 10.216,3.818 9.547,4.413 9.261 C 4.737 9.106,5.224 8.993,5.400 9.031 C 5.455 9.043,6.013 9.226,6.640 9.436 M19.420 10.203 C 20.168 10.514,20.781 11.234,20.941 11.990 C 21.115 12.808,20.885 13.526,20.245 14.164 C 19.783 14.624,19.300 14.881,18.714 14.978 C 18.597 14.997,16.764 14.727,16.298 14.621 C 16.233 14.606,16.156 14.453,15.942 13.917 L 15.669 13.231 17.264 11.634 C 18.858 10.038,18.860 10.037,19.000 10.062 C 19.077 10.075,19.266 10.139,19.420 10.203 M14.090 14.660 L 14.443 15.540 14.018 17.040 C 13.784 17.865,13.549 18.637,13.496 18.756 C 13.064 19.720,12.000 20.604,10.940 20.880 C 9.465 21.264,7.747 20.660,6.841 19.439 C 6.248 18.638,5.962 17.733,6.015 16.819 C 6.040 16.390,6.133 15.910,6.236 15.676 C 6.278 15.582,6.903 14.942,8.017 13.852 L 9.734 12.173 11.735 12.976 L 13.737 13.780 14.090 14.660 M17.116 16.786 L 17.813 16.899 17.896 17.080 C 18.021 17.351,18.008 17.784,17.864 18.104 C 17.725 18.413,17.419 18.719,17.100 18.868 C 16.896 18.963,16.808 18.980,16.520 18.980 C 16.221 18.980,16.148 18.965,15.910 18.852 C 15.762 18.782,15.640 18.711,15.640 18.694 C 15.640 18.677,15.770 18.207,15.929 17.648 C 16.215 16.641,16.218 16.634,16.319 16.653 C 16.374 16.664,16.733 16.724,17.116 16.786 " stroke="none" fill="black" fill-rule="evenodd"></path></svg>