<svg xmlns="http://www.w3.org/2000/svg" width="24" height="24" viewBox="0 0 24 24" fill="none" stroke="currentColor" stroke-width="2" stroke-linecap="round" stroke-linejoin="round" class="icon icon-tabler icons-tabler-outline icon-tabler-recycle"><path d="M11.380 2.099 C 10.831 2.220,10.281 2.529,9.886 2.939 C 9.602 3.233,9.016 4.153,8.874 4.527 C 8.735 4.891,8.796 5.145,9.087 5.427 C 9.462 5.790,9.917 5.905,10.269 5.726 C 10.479 5.618,10.581 5.491,10.983 4.831 C 11.257 4.381,11.337 4.282,11.500 4.180 C 11.674 4.072,11.727 4.060,12.017 4.061 C 12.370 4.062,12.506 4.112,12.707 4.313 C 12.831 4.437,16.101 10.072,16.068 10.105 C 16.058 10.116,15.941 10.096,15.809 10.062 C 15.473 9.975,15.152 9.982,14.961 10.080 C 14.655 10.235,14.460 10.635,14.460 11.103 C 14.460 11.344,14.476 11.410,14.569 11.551 C 14.629 11.641,14.755 11.761,14.850 11.816 C 14.955 11.878,15.518 12.049,16.301 12.258 C 17.004 12.446,17.666 12.639,17.770 12.687 C 17.980 12.783,18.283 12.795,18.565 12.719 C 18.865 12.638,19.240 12.150,19.240 11.841 C 19.240 11.768,19.392 11.139,19.577 10.444 C 19.982 8.924,19.981 8.933,19.921 8.684 C 19.830 8.303,19.449 8.041,18.940 8.009 C 18.773 7.998,18.591 8.010,18.508 8.037 C 18.238 8.126,17.984 8.518,17.898 8.976 C 17.883 9.059,17.856 9.111,17.839 9.093 C 17.822 9.075,17.103 7.836,16.241 6.340 C 15.379 4.844,14.592 3.498,14.492 3.349 C 14.082 2.737,13.325 2.230,12.626 2.099 C 12.247 2.028,11.706 2.028,11.380 2.099 M7.360 7.315 C 7.283 7.357,6.635 7.547,5.920 7.738 C 4.850 8.023,4.584 8.108,4.416 8.218 C 4.089 8.434,3.984 8.757,4.097 9.203 C 4.277 9.912,4.699 10.145,5.433 9.939 C 5.570 9.900,5.688 9.876,5.695 9.884 C 5.702 9.893,4.964 11.187,4.055 12.760 C 3.146 14.333,2.358 15.729,2.304 15.863 C 2.091 16.392,2.033 16.950,2.136 17.486 C 2.325 18.466,2.902 19.232,3.774 19.660 C 4.265 19.901,4.581 19.958,5.439 19.962 C 6.276 19.966,6.454 19.936,6.658 19.756 C 6.854 19.584,6.941 19.329,6.936 18.940 C 6.932 18.565,6.865 18.385,6.663 18.208 C 6.462 18.031,6.305 17.998,5.540 17.973 C 4.982 17.954,4.825 17.936,4.668 17.870 C 4.421 17.765,4.215 17.523,4.133 17.241 C 4.013 16.832,3.994 16.872,5.807 13.730 L 7.456 10.873 7.570 11.237 C 7.772 11.890,8.099 12.104,8.697 11.979 C 9.042 11.907,9.292 11.761,9.431 11.551 C 9.619 11.266,9.591 11.031,9.187 9.544 C 8.996 8.842,8.840 8.201,8.840 8.119 C 8.840 7.927,8.573 7.516,8.355 7.372 C 8.226 7.287,8.143 7.267,7.850 7.254 C 7.560 7.241,7.476 7.251,7.360 7.315 M19.994 14.256 C 19.629 14.386,19.301 14.657,19.201 14.911 C 19.095 15.179,19.165 15.433,19.525 16.094 C 19.825 16.646,19.856 16.724,19.871 16.963 C 19.891 17.270,19.808 17.479,19.566 17.731 C 19.301 18.008,19.413 18.000,15.728 18.000 L 12.431 18.000 12.656 17.757 C 13.055 17.326,13.144 17.002,12.962 16.644 C 12.852 16.428,12.576 16.150,12.365 16.043 C 12.150 15.933,11.849 15.934,11.628 16.045 C 11.527 16.096,11.061 16.524,10.460 17.119 C 9.910 17.662,9.399 18.149,9.324 18.200 C 9.149 18.321,8.951 18.745,8.951 19.000 C 8.951 19.238,9.150 19.682,9.303 19.784 C 9.365 19.826,9.876 20.312,10.438 20.865 C 11.522 21.931,11.678 22.049,12.000 22.049 C 12.477 22.049,13.049 21.477,13.049 21.000 C 13.049 20.760,12.939 20.549,12.656 20.243 L 12.431 20.000 15.792 20.000 C 19.418 20.000,19.478 19.997,20.000 19.786 C 20.857 19.440,21.489 18.754,21.770 17.864 C 21.846 17.622,21.859 17.491,21.859 16.980 C 21.859 16.430,21.850 16.356,21.752 16.092 C 21.611 15.707,21.058 14.701,20.881 14.504 C 20.633 14.229,20.317 14.140,19.994 14.256 " stroke="none" fill="black" fill-rule="evenodd"></path></svg>