<svg xmlns="http://www.w3.org/2000/svg" width="24" height="24" viewBox="0 0 24 24" fill="none" stroke="currentColor" stroke-width="2" stroke-linecap="round" stroke-linejoin="round" class="icon icon-tabler icons-tabler-outline icon-tabler-sailboat"><path d="M10.601 2.080 C 10.308 2.244,10.217 2.336,10.099 2.585 L 10.000 2.795 10.000 7.508 C 10.000 10.541,10.015 12.272,10.041 12.365 C 10.102 12.586,10.245 12.770,10.442 12.880 L 10.620 12.980 14.413 12.991 C 16.894 12.998,18.258 12.988,18.357 12.961 C 18.584 12.900,18.769 12.758,18.879 12.558 C 18.963 12.408,18.979 12.327,18.979 12.040 C 18.980 11.740,18.967 11.679,18.871 11.520 C 18.812 11.421,17.165 9.288,15.211 6.781 C 12.710 3.569,11.610 2.187,11.489 2.103 C 11.353 2.008,11.267 1.981,11.069 1.970 C 10.851 1.959,10.792 1.972,10.601 2.080 M7.625 6.017 C 7.426 6.090,7.256 6.254,7.142 6.480 C 6.956 6.853,5.037 11.715,4.992 11.929 C 4.955 12.105,4.956 12.189,4.997 12.326 C 5.096 12.660,5.534 12.960,6.021 13.026 C 6.351 13.072,6.683 12.872,6.856 12.524 C 7.047 12.140,8.963 7.284,9.008 7.071 C 9.072 6.764,9.007 6.553,8.780 6.334 C 8.489 6.054,7.936 5.902,7.625 6.017 M14.034 8.528 C 15.071 9.864,15.920 10.966,15.920 10.978 C 15.920 10.990,15.038 11.000,13.960 11.000 L 12.000 11.000 12.000 8.471 C 12.000 6.004,12.002 5.944,12.074 6.021 C 12.115 6.065,12.997 7.193,14.034 8.528 M2.580 14.100 C 2.153 14.274,1.920 14.630,1.980 15.015 C 2.016 15.239,3.027 18.293,3.143 18.524 C 3.335 18.907,3.675 19.084,4.067 19.005 C 4.569 18.905,4.911 18.652,5.002 18.314 C 5.064 18.081,5.018 17.871,4.679 16.858 C 4.526 16.398,4.400 16.017,4.400 16.011 C 4.400 16.005,7.820 16.000,12.000 16.000 C 16.180 16.000,19.600 16.005,19.600 16.011 C 19.600 16.017,19.474 16.398,19.321 16.858 C 18.983 17.869,18.936 18.081,18.998 18.313 C 19.089 18.649,19.427 18.906,19.903 19.000 C 20.328 19.084,20.659 18.918,20.857 18.524 C 20.908 18.423,21.188 17.621,21.480 16.742 C 21.999 15.179,22.010 15.138,21.988 14.875 C 21.961 14.561,21.852 14.323,21.678 14.199 C 21.385 13.990,21.874 14.000,12.004 14.001 L 2.820 14.002 2.580 14.100 M7.360 18.060 C 6.823 18.152,6.250 18.413,5.797 18.773 C 5.675 18.870,5.440 19.109,5.276 19.304 C 5.111 19.499,4.905 19.707,4.818 19.767 C 4.493 19.988,3.972 20.059,3.561 19.937 C 3.261 19.848,3.089 19.728,2.820 19.421 C 2.408 18.952,2.091 18.853,1.654 19.057 C 1.019 19.352,0.796 19.888,1.090 20.409 C 1.628 21.361,2.798 22.000,4.004 22.000 C 5.073 22.000,6.008 21.552,6.721 20.698 C 7.144 20.192,7.496 20.000,8.000 20.000 C 8.504 20.000,8.856 20.192,9.278 20.697 C 9.995 21.556,10.924 22.000,12.004 22.000 C 13.073 22.000,14.008 21.552,14.721 20.698 C 15.144 20.192,15.496 20.000,16.000 20.000 C 16.504 20.000,16.856 20.192,17.278 20.697 C 17.745 21.257,18.285 21.630,18.920 21.833 C 20.265 22.262,21.770 21.842,22.644 20.792 C 23.147 20.187,23.171 19.712,22.718 19.303 C 22.488 19.095,22.185 18.961,21.944 18.960 C 21.682 18.960,21.477 19.084,21.180 19.421 C 20.911 19.728,20.739 19.848,20.439 19.937 C 20.028 20.059,19.507 19.988,19.182 19.767 C 19.095 19.707,18.889 19.499,18.724 19.304 C 18.560 19.109,18.325 18.870,18.203 18.773 C 16.912 17.748,15.088 17.748,13.797 18.773 C 13.675 18.870,13.440 19.109,13.276 19.304 C 13.111 19.499,12.905 19.707,12.818 19.767 C 12.373 20.070,11.627 20.070,11.182 19.767 C 11.095 19.707,10.889 19.499,10.724 19.304 C 10.560 19.109,10.325 18.870,10.203 18.773 C 9.405 18.140,8.385 17.884,7.360 18.060 " stroke="none" fill="black" fill-rule="evenodd"></path></svg>