<svg xmlns="http://www.w3.org/2000/svg" width="24" height="24" viewBox="0 0 24 24" fill="none" stroke="currentColor" stroke-width="2" stroke-linecap="round" stroke-linejoin="round" class="icon icon-tabler icons-tabler-outline icon-tabler-mood-angry"><path d="M11.080 2.045 C 9.507 2.184,7.883 2.751,6.540 3.630 C 5.905 4.045,5.499 4.378,4.919 4.958 C 2.953 6.926,1.919 9.544,2.013 12.320 C 2.084 14.439,2.752 16.328,4.033 18.040 C 4.430 18.570,5.305 19.464,5.800 19.847 C 7.242 20.961,8.787 21.624,10.600 21.907 C 11.247 22.008,12.753 22.008,13.400 21.907 C 15.638 21.557,17.504 20.620,19.062 19.062 C 20.620 17.504,21.557 15.638,21.907 13.400 C 22.008 12.753,22.008 11.247,21.907 10.600 C 21.624 8.786,20.959 7.238,19.847 5.800 C 19.510 5.365,18.639 4.494,18.200 4.154 C 16.133 2.555,13.646 1.818,11.080 2.045 M12.734 4.041 C 14.574 4.216,16.228 4.976,17.554 6.256 C 20.043 8.658,20.702 12.394,19.183 15.499 C 18.749 16.387,18.223 17.105,17.496 17.801 C 16.876 18.394,16.262 18.819,15.471 19.200 C 13.267 20.265,10.733 20.265,8.529 19.200 C 7.477 18.693,6.612 18.015,5.847 17.100 C 3.848 14.711,3.440 11.302,4.816 8.500 C 6.162 5.760,8.867 4.049,11.920 4.005 C 12.129 4.003,12.495 4.019,12.734 4.041 M7.570 8.042 C 7.263 8.198,7.015 8.603,6.972 9.016 C 6.943 9.296,7.061 9.556,7.295 9.728 C 7.386 9.794,7.984 10.110,8.624 10.430 C 9.907 11.070,10.040 11.112,10.381 10.982 C 10.694 10.862,10.984 10.415,11.028 9.980 C 11.057 9.704,10.938 9.443,10.705 9.272 C 10.614 9.206,10.018 8.891,9.380 8.572 C 8.364 8.066,8.190 7.991,7.980 7.974 C 7.787 7.959,7.707 7.972,7.570 8.042 M15.780 8.016 C 15.546 8.091,13.488 9.131,13.295 9.272 C 13.061 9.444,12.943 9.703,12.972 9.984 C 13.017 10.421,13.303 10.861,13.621 10.983 C 13.960 11.112,14.094 11.070,15.376 10.430 C 16.016 10.110,16.614 9.794,16.705 9.728 C 16.939 9.556,17.057 9.296,17.028 9.016 C 17.003 8.770,16.863 8.440,16.705 8.253 C 16.486 7.994,16.134 7.904,15.780 8.016 M11.560 14.024 C 11.268 14.060,10.775 14.169,10.542 14.248 C 9.943 14.451,9.178 14.934,8.788 15.354 C 8.331 15.846,8.332 16.275,8.789 16.738 C 9.033 16.986,9.250 17.095,9.500 17.095 C 9.762 17.095,9.913 17.016,10.300 16.677 C 10.820 16.222,11.374 16.001,12.000 16.001 C 12.626 16.001,13.180 16.222,13.700 16.677 C 14.087 17.016,14.238 17.095,14.500 17.095 C 14.750 17.095,14.967 16.986,15.211 16.738 C 15.789 16.153,15.641 15.610,14.717 14.921 C 14.177 14.519,13.548 14.235,12.903 14.102 C 12.584 14.036,11.822 13.992,11.560 14.024 " stroke="none" fill="black" fill-rule="evenodd"></path></svg>