<svg xmlns="http://www.w3.org/2000/svg" width="24" height="24" viewBox="0 0 24 24" fill="none" stroke="currentColor" stroke-width="2" stroke-linecap="round" stroke-linejoin="round" class="icon icon-tabler icons-tabler-outline icon-tabler-device-watch-check"><path d="M8.614 2.057 C 8.377 2.131,8.212 2.261,8.109 2.453 C 8.024 2.613,8.019 2.674,8.000 3.873 L 7.980 5.126 7.720 5.217 C 6.350 5.697,5.370 6.816,5.083 8.227 C 5.003 8.618,5.000 8.755,5.000 12.000 C 5.000 15.243,5.003 15.382,5.082 15.772 C 5.359 17.128,6.281 18.231,7.540 18.711 C 7.716 18.778,7.891 18.843,7.928 18.854 C 7.989 18.874,7.997 18.992,8.008 20.128 C 8.020 21.379,8.020 21.380,8.120 21.558 C 8.230 21.755,8.414 21.898,8.635 21.959 C 8.720 21.983,9.386 22.000,10.243 22.000 C 11.877 22.000,12.003 21.984,12.229 21.751 C 12.418 21.556,12.486 21.355,12.486 20.997 C 12.486 20.491,12.303 20.196,11.909 20.064 C 11.757 20.013,11.539 20.000,10.859 20.000 L 10.000 20.000 10.000 19.500 L 10.000 19.000 10.610 19.000 C 10.945 19.000,11.285 18.981,11.365 18.959 C 11.586 18.898,11.770 18.755,11.880 18.558 C 11.967 18.402,11.980 18.332,11.979 18.000 C 11.978 17.567,11.898 17.355,11.678 17.199 C 11.425 17.019,11.265 17.000,9.962 17.000 C 8.643 17.000,8.476 16.981,8.083 16.781 C 7.816 16.646,7.449 16.297,7.281 16.017 C 6.999 15.548,7.005 15.636,7.005 12.000 C 7.005 9.047,7.011 8.715,7.073 8.477 C 7.201 7.988,7.543 7.546,8.014 7.265 C 8.459 6.998,8.431 7.000,12.028 7.002 C 15.632 7.005,15.549 6.999,16.017 7.281 C 16.294 7.448,16.618 7.787,16.772 8.071 C 16.994 8.482,16.999 8.554,16.999 11.763 C 17.000 15.018,16.998 14.986,17.249 15.229 C 17.442 15.416,17.647 15.487,17.997 15.488 C 18.348 15.490,18.556 15.418,18.751 15.229 C 19.003 14.985,19.000 15.028,19.000 11.669 C 19.000 8.797,18.996 8.611,18.921 8.243 C 18.630 6.816,17.654 5.699,16.280 5.217 L 16.020 5.126 16.000 3.873 C 15.981 2.674,15.976 2.613,15.891 2.453 C 15.785 2.256,15.622 2.131,15.371 2.055 C 15.109 1.977,8.866 1.979,8.614 2.057 M14.000 4.500 L 14.000 5.000 12.000 5.000 L 10.000 5.000 10.000 4.500 L 10.000 4.000 12.000 4.000 L 14.000 4.000 14.000 4.500 M20.620 16.046 C 20.525 16.095,19.753 16.834,18.731 17.853 L 17.001 19.577 16.271 18.854 C 15.856 18.444,15.467 18.094,15.372 18.045 C 15.021 17.868,14.640 17.958,14.299 18.299 C 13.952 18.646,13.863 19.010,14.040 19.363 C 14.162 19.607,16.393 21.838,16.637 21.960 C 16.868 22.076,17.132 22.076,17.363 21.961 C 17.486 21.899,18.197 21.215,19.706 19.706 C 21.215 18.197,21.899 17.486,21.961 17.363 C 22.137 17.010,22.048 16.645,21.701 16.299 C 21.361 15.959,20.967 15.867,20.620 16.046 " stroke="none" fill="black" fill-rule="evenodd"></path></svg>