<svg xmlns="http://www.w3.org/2000/svg" width="24" height="24" viewBox="0 0 24 24" fill="none" stroke="currentColor" stroke-width="2" stroke-linecap="round" stroke-linejoin="round" class="icon icon-tabler icons-tabler-outline icon-tabler-line-height"><path d="M5.530 4.083 C 5.393 4.150,5.249 4.252,5.210 4.310 C 5.172 4.369,4.463 5.101,3.635 5.938 C 2.635 6.949,2.099 7.520,2.040 7.637 C 1.863 7.989,1.952 8.354,2.299 8.701 C 2.646 9.048,3.012 9.137,3.363 8.959 C 3.469 8.905,3.832 8.580,4.270 8.147 L 5.000 7.425 5.000 12.000 L 5.000 16.575 4.270 15.853 C 3.856 15.444,3.467 15.094,3.372 15.045 C 3.021 14.868,2.640 14.958,2.299 15.299 C 1.952 15.646,1.863 16.011,2.040 16.363 C 2.099 16.480,2.635 17.051,3.635 18.062 C 4.463 18.899,5.174 19.634,5.216 19.697 C 5.318 19.850,5.762 20.049,6.000 20.049 C 6.238 20.049,6.682 19.850,6.784 19.697 C 6.826 19.634,7.537 18.899,8.365 18.062 C 9.365 17.051,9.901 16.480,9.960 16.363 C 10.137 16.011,10.048 15.646,9.701 15.299 C 9.360 14.958,8.979 14.868,8.628 15.045 C 8.533 15.094,8.144 15.444,7.730 15.853 L 7.000 16.575 7.000 12.000 L 7.000 7.425 7.730 8.147 C 8.168 8.580,8.531 8.905,8.637 8.959 C 8.988 9.137,9.354 9.048,9.701 8.701 C 10.048 8.354,10.137 7.989,9.960 7.637 C 9.901 7.520,9.365 6.949,8.365 5.938 C 7.537 5.101,6.828 4.369,6.789 4.310 C 6.751 4.252,6.604 4.149,6.464 4.082 C 6.120 3.918,5.871 3.918,5.530 4.083 M12.614 5.057 C 12.377 5.131,12.212 5.261,12.109 5.453 C 12.035 5.592,12.020 5.684,12.020 6.000 C 12.020 6.331,12.033 6.403,12.120 6.558 C 12.230 6.755,12.414 6.898,12.635 6.959 C 12.833 7.014,20.167 7.014,20.365 6.959 C 20.586 6.898,20.770 6.755,20.880 6.558 C 20.967 6.402,20.980 6.332,20.979 6.000 C 20.978 5.567,20.898 5.355,20.678 5.199 C 20.395 4.997,20.449 5.000,16.484 5.003 C 13.561 5.005,12.745 5.016,12.614 5.057 M12.614 11.057 C 12.377 11.131,12.212 11.261,12.109 11.453 C 12.035 11.592,12.020 11.684,12.020 12.000 C 12.020 12.331,12.033 12.403,12.120 12.558 C 12.230 12.755,12.414 12.898,12.635 12.959 C 12.833 13.014,20.167 13.014,20.365 12.959 C 20.586 12.898,20.770 12.755,20.880 12.558 C 20.967 12.402,20.980 12.332,20.979 12.000 C 20.978 11.567,20.898 11.355,20.678 11.199 C 20.395 10.997,20.449 11.000,16.484 11.003 C 13.561 11.005,12.745 11.016,12.614 11.057 M12.614 17.057 C 12.377 17.131,12.212 17.261,12.109 17.453 C 12.035 17.592,12.020 17.684,12.020 18.000 C 12.020 18.331,12.033 18.403,12.120 18.558 C 12.230 18.755,12.414 18.898,12.635 18.959 C 12.833 19.014,20.167 19.014,20.365 18.959 C 20.586 18.898,20.770 18.755,20.880 18.558 C 20.967 18.402,20.980 18.332,20.979 18.000 C 20.978 17.567,20.898 17.355,20.678 17.199 C 20.395 16.997,20.449 17.000,16.484 17.003 C 13.561 17.005,12.745 17.016,12.614 17.057 " stroke="none" fill="black" fill-rule="evenodd"></path></svg>