<svg xmlns="http://www.w3.org/2000/svg" width="24" height="24" viewBox="0 0 24 24" fill="none" stroke="currentColor" stroke-width="2" stroke-linecap="round" stroke-linejoin="round" class="icon icon-tabler icons-tabler-outline icon-tabler-trending-up-2"><path d="M17.626 4.045 C 17.257 4.239,16.951 4.673,16.951 5.000 C 16.951 5.307,17.079 5.487,17.853 6.270 L 18.575 7.000 16.735 7.000 C 14.656 7.000,14.592 7.007,14.328 7.273 C 14.247 7.354,12.672 9.576,10.828 12.211 L 7.476 17.000 5.144 17.000 C 2.656 17.000,2.595 17.004,2.322 17.199 C 2.100 17.357,2.020 17.568,2.020 18.000 C 2.020 18.331,2.033 18.403,2.120 18.558 C 2.230 18.755,2.414 18.898,2.635 18.959 C 2.726 18.984,3.789 19.000,5.463 19.000 C 8.459 19.000,8.395 19.006,8.676 18.724 C 8.755 18.644,10.328 16.424,12.172 13.789 L 15.524 9.000 17.050 9.000 L 18.575 9.000 17.853 9.730 C 17.420 10.168,17.095 10.531,17.041 10.637 C 16.863 10.988,16.952 11.354,17.299 11.701 C 17.646 12.048,18.011 12.137,18.363 11.960 C 18.480 11.901,19.051 11.365,20.062 10.365 C 20.899 9.537,21.634 8.826,21.697 8.784 C 21.850 8.682,22.049 8.238,22.049 8.000 C 22.049 7.745,21.851 7.321,21.676 7.201 C 21.601 7.150,20.865 6.438,20.040 5.618 C 19.085 4.670,18.479 4.098,18.372 4.044 C 18.152 3.934,17.835 3.934,17.626 4.045 " stroke="none" fill="black" fill-rule="evenodd"></path></svg>