<svg xmlns="http://www.w3.org/2000/svg" width="24" height="24" viewBox="0 0 24 24" fill="none" stroke="currentColor" stroke-width="2" stroke-linecap="round" stroke-linejoin="round" class="icon icon-tabler icons-tabler-outline icon-tabler-school-off"><path d="M2.626 2.045 C 2.420 2.154,2.146 2.433,2.038 2.644 C 1.924 2.868,1.924 3.133,2.040 3.363 C 2.100 3.482,2.632 4.044,3.672 5.088 C 5.129 6.551,5.209 6.639,5.117 6.674 C 3.703 7.217,1.434 8.159,1.305 8.256 C 1.118 8.398,0.960 8.676,0.960 8.864 C 0.960 9.129,1.117 9.519,1.294 9.696 C 1.448 9.851,1.614 9.926,3.222 10.569 L 4.980 11.272 5.001 13.886 C 5.021 16.459,5.023 16.504,5.110 16.760 C 5.305 17.327,5.702 17.877,6.240 18.326 C 7.055 19.005,8.391 19.564,9.800 19.814 C 10.566 19.950,10.926 19.978,11.960 19.979 C 13.118 19.980,13.524 19.944,14.448 19.757 C 15.417 19.561,16.590 19.130,17.140 18.768 L 17.260 18.689 18.860 20.280 C 19.938 21.353,20.518 21.900,20.637 21.960 C 20.989 22.137,21.354 22.048,21.701 21.701 C 22.116 21.286,22.159 20.867,21.832 20.440 C 21.761 20.347,10.145 8.713,5.560 4.143 C 4.239 2.826,3.482 2.100,3.372 2.045 C 3.152 1.934,2.835 1.934,2.626 2.045 M11.700 4.046 C 11.313 4.190,9.581 4.890,9.389 4.981 C 9.155 5.092,8.944 5.292,8.877 5.467 C 8.719 5.883,9.026 6.630,9.428 6.808 C 9.741 6.946,9.935 6.905,11.031 6.468 L 12.002 6.081 15.621 7.528 C 17.611 8.324,19.240 8.987,19.240 9.001 C 19.240 9.023,18.352 9.386,17.640 9.655 C 16.657 10.027,15.014 10.727,14.891 10.827 C 14.580 11.078,14.492 11.327,14.578 11.700 C 14.674 12.112,14.870 12.400,15.140 12.524 C 15.440 12.663,15.654 12.623,16.540 12.265 L 16.980 12.088 17.000 13.234 C 17.020 14.364,17.021 14.382,17.120 14.558 C 17.287 14.856,17.572 15.000,18.000 15.000 C 18.428 15.000,18.713 14.856,18.880 14.558 L 18.980 14.380 19.000 12.826 L 19.020 11.272 20.000 10.880 L 20.980 10.488 21.000 12.934 L 21.020 15.380 21.120 15.558 C 21.287 15.856,21.572 16.000,22.000 16.000 C 22.428 16.000,22.713 15.856,22.880 15.558 L 22.980 15.380 23.000 12.060 C 23.016 9.397,23.010 8.712,22.968 8.600 C 22.911 8.446,22.636 8.143,22.480 8.062 C 22.425 8.033,22.317 7.997,22.240 7.982 C 22.163 7.967,19.886 7.070,17.180 5.989 C 11.979 3.912,12.022 3.927,11.700 4.046 M8.140 9.560 L 9.500 10.921 8.120 10.364 C 7.361 10.058,6.632 9.763,6.500 9.710 C 6.368 9.657,5.923 9.481,5.510 9.320 C 5.098 9.158,4.760 9.015,4.760 9.001 C 4.760 8.970,6.632 8.209,6.720 8.204 C 6.753 8.202,7.392 8.812,8.140 9.560 M9.558 13.103 C 10.946 13.657,11.805 13.980,11.925 13.991 C 12.036 14.002,12.187 13.985,12.291 13.949 L 12.469 13.889 14.136 15.556 L 15.803 17.224 15.652 17.296 C 14.236 17.971,11.878 18.188,10.000 17.815 C 8.623 17.542,7.425 16.924,7.112 16.325 L 7.000 16.111 7.000 14.096 L 7.000 12.081 7.190 12.157 C 7.295 12.198,8.360 12.624,9.558 13.103 " stroke="none" fill="black" fill-rule="evenodd"></path></svg>