<svg xmlns="http://www.w3.org/2000/svg" width="24" height="24" viewBox="0 0 24 24" fill="none" stroke="currentColor" stroke-width="2" stroke-linecap="round" stroke-linejoin="round" class="icon icon-tabler icons-tabler-outline icon-tabler-device-ipad-question"><path d="M5.499 2.043 C 4.380 2.233,3.461 3.048,3.114 4.160 L 3.020 4.460 3.020 12.000 L 3.020 19.540 3.114 19.840 C 3.418 20.816,4.149 21.554,5.140 21.886 L 5.420 21.980 10.312 21.991 C 13.560 21.998,15.255 21.988,15.356 21.961 C 15.584 21.900,15.768 21.758,15.880 21.558 C 15.967 21.402,15.980 21.332,15.979 21.000 C 15.977 20.469,15.852 20.247,15.455 20.071 C 15.365 20.031,14.304 20.016,10.520 20.000 L 5.700 19.980 5.516 19.872 C 5.415 19.813,5.284 19.700,5.225 19.623 C 4.986 19.309,5.000 19.795,5.000 12.022 C 5.000 4.006,4.975 4.631,5.303 4.303 C 5.629 3.977,5.126 4.000,12.000 4.000 C 18.874 4.000,18.371 3.977,18.697 4.303 C 19.012 4.618,19.000 4.468,19.000 8.057 C 19.000 10.053,19.015 11.273,19.041 11.365 C 19.148 11.750,19.437 11.962,19.896 11.991 C 20.381 12.022,20.699 11.882,20.880 11.558 L 20.980 11.380 20.980 7.920 L 20.980 4.460 20.886 4.160 C 20.581 3.182,19.832 2.428,18.861 2.121 L 18.540 2.020 12.120 2.014 C 8.589 2.011,5.609 2.024,5.499 2.043 M18.440 14.058 C 18.297 14.089,18.102 14.142,18.008 14.176 C 17.203 14.466,16.442 15.217,16.440 15.722 C 16.439 16.052,16.769 16.475,17.174 16.663 C 17.548 16.838,17.807 16.775,18.193 16.419 C 18.501 16.134,18.650 16.048,18.893 16.015 C 19.121 15.984,19.458 16.082,19.640 16.234 C 19.988 16.522,20.086 17.066,19.863 17.470 C 19.668 17.823,19.453 17.951,18.970 18.001 C 18.245 18.076,17.960 18.406,18.012 19.110 C 18.069 19.867,18.595 20.142,19.591 19.936 C 20.218 19.807,20.691 19.543,21.146 19.069 C 21.488 18.713,21.648 18.463,21.797 18.055 C 22.409 16.374,21.489 14.571,19.780 14.102 C 19.448 14.010,18.765 13.988,18.440 14.058 M8.614 17.057 C 8.377 17.131,8.212 17.261,8.109 17.453 C 8.035 17.592,8.020 17.684,8.020 18.000 C 8.020 18.331,8.033 18.403,8.120 18.558 C 8.230 18.755,8.414 18.898,8.635 18.959 C 8.832 19.014,14.168 19.014,14.365 18.959 C 14.586 18.898,14.770 18.755,14.880 18.558 C 14.967 18.402,14.980 18.332,14.979 18.000 C 14.978 17.567,14.898 17.355,14.678 17.199 C 14.401 17.002,14.373 17.000,11.484 17.003 C 9.382 17.005,8.743 17.017,8.614 17.057 M18.614 21.057 C 18.221 21.180,18.039 21.435,18.009 21.906 C 17.962 22.621,18.306 23.000,19.000 23.000 C 19.698 23.000,20.043 22.616,19.989 21.900 C 19.963 21.563,19.859 21.327,19.678 21.199 C 19.414 21.010,18.957 20.950,18.614 21.057 " stroke="none" fill="black" fill-rule="evenodd"></path></svg>