<svg xmlns="http://www.w3.org/2000/svg" width="24" height="24" viewBox="0 0 24 24" fill="none" stroke="currentColor" stroke-width="2" stroke-linecap="round" stroke-linejoin="round" class="icon icon-tabler icons-tabler-outline icon-tabler-code-asterisk"><path d="M5.499 4.043 C 4.393 4.229,3.483 5.028,3.115 6.140 C 3.024 6.416,3.022 6.450,3.009 8.499 L 2.995 10.578 2.563 11.021 C 2.081 11.514,1.951 11.722,1.951 12.000 C 1.951 12.278,2.081 12.486,2.563 12.979 L 2.995 13.422 3.009 15.501 C 3.022 17.550,3.024 17.584,3.115 17.860 C 3.439 18.839,4.189 19.586,5.140 19.878 C 5.479 19.982,6.113 20.028,6.344 19.965 C 6.584 19.899,6.767 19.761,6.880 19.558 C 6.967 19.402,6.980 19.332,6.979 19.000 C 6.978 18.687,6.962 18.591,6.890 18.453 C 6.737 18.164,6.521 18.052,6.007 17.999 C 5.627 17.959,5.398 17.849,5.226 17.625 C 5.016 17.349,5.021 17.408,5.000 14.980 C 4.977 12.397,5.006 12.611,4.629 12.212 L 4.428 12.000 4.629 11.788 C 5.006 11.389,4.977 11.603,5.000 9.020 C 5.022 6.483,5.010 6.593,5.301 6.301 C 5.497 6.106,5.660 6.041,6.062 6.000 C 6.535 5.951,6.738 5.836,6.904 5.520 C 7.018 5.305,7.009 4.679,6.890 4.453 C 6.687 4.070,6.198 3.926,5.499 4.043 M17.614 4.055 C 17.220 4.184,17.039 4.437,17.009 4.900 C 16.965 5.591,17.248 5.929,17.933 5.999 C 18.340 6.041,18.503 6.105,18.699 6.301 C 18.990 6.593,18.978 6.483,19.000 9.020 C 19.023 11.603,18.994 11.389,19.371 11.788 L 19.572 12.000 19.371 12.212 C 18.994 12.611,19.023 12.397,19.000 14.980 C 18.979 17.408,18.984 17.349,18.774 17.625 C 18.599 17.853,18.374 17.959,17.976 18.000 C 17.248 18.076,16.964 18.399,17.009 19.104 C 17.039 19.572,17.251 19.854,17.656 19.965 C 17.887 20.028,18.521 19.982,18.860 19.878 C 19.811 19.586,20.561 18.839,20.885 17.860 C 20.976 17.584,20.978 17.550,20.991 15.501 L 21.005 13.422 21.437 12.979 C 21.919 12.486,22.049 12.278,22.049 12.000 C 22.049 11.722,21.919 11.514,21.437 11.021 L 21.005 10.578 20.991 8.499 C 20.978 6.450,20.976 6.416,20.885 6.140 C 20.560 5.158,19.799 4.402,18.861 4.129 C 18.459 4.013,17.851 3.976,17.614 4.055 M11.545 7.579 C 11.461 7.609,11.337 7.685,11.271 7.747 C 11.038 7.966,11.022 8.045,11.000 9.149 L 10.980 10.158 10.340 9.794 C 9.383 9.251,9.181 9.160,8.930 9.160 C 8.561 9.160,8.311 9.343,8.093 9.773 C 7.949 10.057,7.926 10.377,8.034 10.588 C 8.157 10.830,8.354 10.976,9.176 11.437 C 9.585 11.667,9.920 11.865,9.920 11.878 C 9.920 11.890,9.582 12.090,9.170 12.320 C 8.391 12.756,8.106 12.970,8.014 13.189 C 7.790 13.722,8.327 14.600,8.878 14.600 C 9.169 14.599,9.293 14.547,10.160 14.061 L 10.980 13.600 11.001 14.610 C 11.025 15.709,11.040 15.792,11.267 16.008 C 11.425 16.159,11.682 16.240,12.000 16.240 C 12.318 16.240,12.575 16.159,12.733 16.008 C 12.960 15.792,12.975 15.709,12.999 14.610 L 13.020 13.600 13.840 14.061 C 14.707 14.547,14.831 14.599,15.122 14.600 C 15.673 14.600,16.210 13.722,15.986 13.189 C 15.894 12.970,15.609 12.756,14.830 12.320 C 14.418 12.090,14.080 11.890,14.080 11.878 C 14.080 11.865,14.415 11.667,14.824 11.437 C 15.646 10.976,15.843 10.830,15.966 10.588 C 16.074 10.377,16.051 10.057,15.907 9.773 C 15.689 9.343,15.439 9.160,15.070 9.160 C 14.819 9.160,14.617 9.251,13.660 9.794 L 13.020 10.158 13.000 9.149 C 12.977 8.026,12.963 7.956,12.707 7.732 C 12.627 7.662,12.494 7.585,12.411 7.562 C 12.200 7.504,11.730 7.513,11.545 7.579 " stroke="none" fill="black" fill-rule="evenodd"></path></svg>