<svg xmlns="http://www.w3.org/2000/svg" width="24" height="24" viewBox="0 0 24 24" fill="none" stroke="currentColor" stroke-width="2" stroke-linecap="round" stroke-linejoin="round" class="icon icon-tabler icons-tabler-outline icon-tabler-ghost-off"><path d="M2.626 2.045 C 2.420 2.154,2.146 2.433,2.038 2.644 C 1.924 2.868,1.924 3.133,2.040 3.363 C 2.100 3.482,2.638 4.051,3.694 5.111 L 5.260 6.683 5.168 6.831 C 4.789 7.444,4.370 8.491,4.195 9.260 C 4.011 10.073,4.003 10.303,4.002 14.560 C 4.001 18.021,4.010 18.616,4.062 18.838 C 4.293 19.819,4.981 20.553,5.980 20.887 C 6.348 21.009,7.126 21.020,7.500 20.906 C 7.992 20.758,8.289 20.581,8.711 20.186 C 9.141 19.784,9.255 19.730,9.550 19.784 C 9.664 19.805,9.762 19.875,9.960 20.078 C 10.103 20.224,10.302 20.410,10.402 20.490 C 10.784 20.798,11.489 21.040,12.000 21.040 C 12.511 21.040,13.216 20.798,13.598 20.490 C 13.698 20.410,13.897 20.224,14.040 20.078 C 14.238 19.875,14.336 19.805,14.450 19.784 C 14.743 19.730,14.859 19.785,15.277 20.175 C 15.859 20.719,16.362 20.945,17.084 20.988 C 17.685 21.024,18.391 20.825,18.820 20.497 L 18.963 20.388 19.712 21.129 C 20.163 21.576,20.530 21.905,20.637 21.959 C 20.988 22.137,21.354 22.048,21.701 21.701 C 22.048 21.354,22.137 20.989,21.960 20.637 C 21.852 20.425,22.076 20.651,11.612 10.194 C 6.024 4.610,3.488 2.102,3.372 2.044 C 3.152 1.934,2.834 1.935,2.626 2.045 M11.300 3.028 C 10.353 3.112,9.270 3.418,8.475 3.826 C 8.088 4.024,7.865 4.223,7.796 4.431 C 7.661 4.841,7.968 5.534,8.379 5.749 C 8.586 5.857,8.867 5.829,9.243 5.662 C 10.434 5.132,11.255 4.958,12.296 5.016 C 15.071 5.171,17.274 7.065,17.884 9.820 C 17.969 10.203,17.974 10.332,17.996 12.800 L 18.020 15.380 18.120 15.558 C 18.287 15.856,18.572 16.000,19.000 16.000 C 19.428 16.000,19.713 15.856,19.880 15.558 L 19.980 15.380 19.992 13.000 C 19.999 11.580,19.987 10.455,19.963 10.212 C 19.811 8.694,19.156 7.107,18.201 5.942 C 17.920 5.599,17.227 4.924,16.900 4.674 C 15.940 3.941,14.711 3.380,13.592 3.164 C 12.863 3.024,11.955 2.969,11.300 3.028 M12.149 13.625 C 12.108 13.666,11.454 13.578,11.220 13.500 C 11.110 13.463,10.842 13.332,10.624 13.209 C 10.002 12.856,9.671 12.875,9.303 13.282 C 8.981 13.638,8.876 14.079,9.038 14.397 C 9.183 14.680,9.624 15.001,10.231 15.263 C 11.274 15.714,12.511 15.745,13.564 15.348 L 13.828 15.248 15.678 17.098 C 17.333 18.754,17.518 18.951,17.434 18.974 C 17.132 19.055,16.804 18.940,16.595 18.680 C 16.311 18.327,15.696 17.956,15.200 17.838 C 14.917 17.771,14.282 17.771,14.000 17.838 C 13.481 17.962,13.059 18.217,12.594 18.686 C 12.266 19.018,12.139 19.075,11.854 19.022 C 11.744 19.001,11.635 18.920,11.401 18.684 C 10.935 18.213,10.519 17.962,10.000 17.838 C 9.718 17.771,9.083 17.771,8.800 17.838 C 8.310 17.954,7.671 18.338,7.401 18.679 C 7.253 18.866,6.991 19.000,6.777 18.999 C 6.481 18.997,6.142 18.771,6.043 18.507 C 5.985 18.355,5.984 10.909,6.041 10.368 C 6.123 9.599,6.374 8.739,6.650 8.286 L 6.732 8.152 9.454 10.874 C 10.952 12.372,12.164 13.609,12.149 13.625 M13.614 9.055 C 13.220 9.184,13.039 9.437,13.009 9.900 C 12.978 10.381,13.119 10.699,13.442 10.880 C 13.597 10.967,13.669 10.980,14.000 10.980 C 14.312 10.980,14.408 10.964,14.540 10.894 C 14.866 10.718,15.000 10.459,15.000 10.000 C 15.000 9.357,14.713 9.048,14.083 9.016 C 13.893 9.006,13.718 9.021,13.614 9.055 " stroke="none" fill="black" fill-rule="evenodd"></path></svg>