<svg xmlns="http://www.w3.org/2000/svg" width="24" height="24" viewBox="0 0 24 24" fill="none" stroke="currentColor" stroke-width="2" stroke-linecap="round" stroke-linejoin="round" class="icon icon-tabler icons-tabler-outline icon-tabler-folder-share"><path d="M4.499 3.043 C 3.383 3.230,2.461 4.048,2.114 5.160 L 2.020 5.460 2.020 11.500 L 2.020 17.540 2.114 17.840 C 2.418 18.816,3.149 19.554,4.140 19.886 L 4.420 19.980 8.811 19.991 C 11.726 19.999,13.254 19.989,13.355 19.961 C 13.584 19.900,13.768 19.758,13.880 19.558 C 13.967 19.402,13.980 19.332,13.979 19.000 C 13.977 18.469,13.852 18.247,13.455 18.071 C 13.365 18.031,12.399 18.016,9.020 18.000 L 4.700 17.980 4.516 17.872 C 4.415 17.813,4.284 17.700,4.225 17.623 C 3.987 17.311,4.000 17.655,4.000 11.522 C 4.000 5.182,3.978 5.628,4.303 5.303 C 4.605 5.002,4.618 5.000,6.737 5.000 L 8.580 5.000 9.960 6.383 C 10.719 7.143,11.421 7.814,11.520 7.873 L 11.700 7.980 15.480 8.000 C 19.716 8.022,19.404 7.999,19.717 8.321 C 20.000 8.614,20.000 8.610,20.000 11.057 C 20.000 12.383,20.016 13.276,20.041 13.365 C 20.148 13.750,20.437 13.962,20.896 13.991 C 21.381 14.022,21.699 13.882,21.880 13.558 L 21.980 13.380 21.980 10.920 L 21.980 8.460 21.886 8.160 C 21.581 7.182,20.831 6.427,19.861 6.122 L 19.540 6.021 15.980 6.009 L 12.421 5.997 10.980 4.563 C 9.613 3.200,9.529 3.125,9.323 3.064 C 9.134 3.008,8.816 3.001,6.903 3.005 C 5.691 3.007,4.609 3.025,4.499 3.043 M18.460 15.999 C 15.916 16.022,15.992 16.015,15.752 16.267 C 15.584 16.443,15.513 16.658,15.512 16.997 C 15.510 17.348,15.582 17.556,15.771 17.751 C 15.988 17.976,16.151 18.000,17.436 18.000 L 18.578 18.000 16.853 19.730 C 15.679 20.908,15.100 21.517,15.040 21.637 C 14.863 21.989,14.952 22.354,15.299 22.701 C 15.646 23.048,16.011 23.137,16.363 22.960 C 16.483 22.900,17.092 22.321,18.270 21.147 L 20.000 19.422 20.000 20.564 C 20.000 21.849,20.024 22.012,20.249 22.229 C 20.442 22.416,20.647 22.487,20.997 22.488 C 21.336 22.490,21.552 22.419,21.735 22.248 C 21.985 22.013,21.977 22.088,22.007 19.460 C 22.022 18.140,22.036 17.001,22.037 16.929 C 22.041 16.740,21.834 16.310,21.690 16.207 C 21.467 16.048,21.205 15.959,20.987 15.969 C 20.873 15.974,19.736 15.987,18.460 15.999 " stroke="none" fill="black" fill-rule="evenodd"></path></svg>