<svg xmlns="http://www.w3.org/2000/svg" width="24" height="24" viewBox="0 0 24 24" fill="none" stroke="currentColor" stroke-width="2" stroke-linecap="round" stroke-linejoin="round" class="icon icon-tabler icons-tabler-outline icon-tabler-number-8-small"><path d="M10.477 7.073 C 9.785 7.254,9.184 7.886,9.039 8.586 C 9.011 8.721,9.000 9.270,9.008 10.128 L 9.020 11.460 9.133 11.730 L 9.245 12.000 9.133 12.270 L 9.020 12.540 9.008 13.872 C 8.994 15.320,9.008 15.468,9.202 15.877 C 9.348 16.186,9.771 16.623,10.070 16.775 C 10.479 16.982,10.632 17.000,12.000 17.000 C 13.368 17.000,13.521 16.982,13.930 16.775 C 14.196 16.640,14.638 16.200,14.771 15.937 C 14.989 15.508,15.006 15.349,14.992 13.905 C 14.980 12.624,14.976 12.572,14.885 12.340 C 14.768 12.040,14.768 11.959,14.885 11.660 C 14.977 11.428,14.980 11.378,14.992 10.115 C 15.005 8.695,14.983 8.480,14.782 8.083 C 14.551 7.628,14.022 7.203,13.523 7.073 C 13.134 6.972,10.866 6.972,10.477 7.073 M13.000 10.000 L 13.000 11.000 12.000 11.000 L 11.000 11.000 11.000 10.000 L 11.000 9.000 12.000 9.000 L 13.000 9.000 13.000 10.000 M13.000 14.000 L 13.000 15.000 12.000 15.000 L 11.000 15.000 11.000 14.000 L 11.000 13.000 12.000 13.000 L 13.000 13.000 13.000 14.000 " stroke="none" fill="black" fill-rule="evenodd"></path></svg>