<svg xmlns="http://www.w3.org/2000/svg" width="24" height="24" viewBox="0 0 24 24" fill="none" stroke="currentColor" stroke-width="2" stroke-linecap="round" stroke-linejoin="round" class="icon icon-tabler icons-tabler-outline icon-tabler-viewfinder"><path d="M11.080 2.045 C 9.507 2.184,7.883 2.751,6.540 3.630 C 5.905 4.045,5.499 4.378,4.919 4.958 C 2.953 6.926,1.919 9.544,2.013 12.320 C 2.084 14.439,2.752 16.328,4.033 18.040 C 4.430 18.570,5.305 19.464,5.800 19.847 C 7.242 20.961,8.787 21.624,10.600 21.907 C 11.247 22.008,12.753 22.008,13.400 21.907 C 15.638 21.557,17.504 20.620,19.062 19.062 C 20.620 17.504,21.557 15.638,21.907 13.400 C 22.008 12.753,22.008 11.247,21.907 10.600 C 21.624 8.786,20.959 7.238,19.847 5.800 C 19.510 5.365,18.639 4.494,18.200 4.154 C 16.133 2.555,13.646 1.818,11.080 2.045 M11.000 5.650 C 11.000 6.578,11.017 7.279,11.041 7.365 C 11.148 7.750,11.437 7.962,11.896 7.991 C 12.381 8.022,12.699 7.882,12.880 7.558 L 12.980 7.380 12.992 5.730 C 13.004 4.140,13.007 4.080,13.080 4.080 C 13.269 4.080,14.060 4.260,14.498 4.403 C 16.180 4.953,17.704 6.121,18.691 7.620 C 19.020 8.119,19.409 8.929,19.597 9.502 C 19.740 9.942,19.920 10.731,19.920 10.922 C 19.920 10.997,19.884 11.000,18.866 11.000 C 17.746 11.000,17.569 11.023,17.322 11.199 C 17.100 11.357,17.020 11.568,17.020 12.000 C 17.020 12.331,17.033 12.403,17.120 12.558 C 17.230 12.755,17.414 12.898,17.635 12.959 C 17.716 12.982,18.257 13.000,18.850 13.000 C 19.884 13.000,19.920 13.003,19.920 13.078 C 19.920 13.270,19.740 14.058,19.596 14.497 C 19.029 16.224,17.869 17.722,16.311 18.736 C 15.834 19.047,15.076 19.406,14.500 19.595 C 14.024 19.750,13.297 19.920,13.105 19.920 L 13.005 19.920 12.993 18.770 C 12.980 17.664,12.977 17.614,12.889 17.450 C 12.724 17.140,12.329 16.970,11.874 17.011 C 11.439 17.051,11.141 17.274,11.041 17.635 C 11.018 17.716,11.000 18.257,11.000 18.850 L 11.000 19.920 10.898 19.920 C 10.703 19.920,9.979 19.751,9.500 19.595 C 8.382 19.229,7.352 18.612,6.504 17.801 C 5.535 16.873,4.804 15.724,4.403 14.498 C 4.260 14.058,4.080 13.269,4.080 13.078 C 4.080 13.002,4.120 13.000,5.650 13.000 C 6.578 13.000,7.279 12.983,7.365 12.959 C 7.586 12.898,7.770 12.755,7.880 12.558 C 7.967 12.402,7.980 12.332,7.979 12.000 C 7.978 11.567,7.898 11.355,7.678 11.199 C 7.417 11.013,7.287 11.000,5.634 11.000 C 4.120 11.000,4.080 10.998,4.080 10.922 C 4.080 10.731,4.260 9.942,4.403 9.502 C 4.591 8.929,4.980 8.119,5.309 7.620 C 6.465 5.866,8.313 4.600,10.340 4.177 C 10.582 4.127,10.830 4.084,10.890 4.083 L 11.000 4.080 11.000 5.650 M11.614 11.057 C 11.221 11.180,11.039 11.435,11.009 11.906 C 10.962 12.621,11.306 13.000,12.000 13.000 C 12.698 13.000,13.043 12.616,12.989 11.900 C 12.963 11.563,12.859 11.327,12.678 11.199 C 12.414 11.010,11.957 10.950,11.614 11.057 " stroke="none" fill="black" fill-rule="evenodd"></path></svg>