<svg xmlns="http://www.w3.org/2000/svg" width="24" height="24" viewBox="0 0 24 24" fill="none" stroke="currentColor" stroke-width="2" stroke-linecap="round" stroke-linejoin="round" class="icon icon-tabler icons-tabler-outline icon-tabler-currency-kip"><path d="M8.614 4.057 C 8.377 4.131,8.212 4.261,8.109 4.453 L 8.020 4.620 8.009 7.810 L 7.998 11.000 6.905 11.000 C 5.744 11.000,5.570 11.022,5.322 11.199 C 5.100 11.357,5.020 11.568,5.020 12.000 C 5.020 12.331,5.033 12.403,5.120 12.558 C 5.230 12.755,5.414 12.898,5.635 12.959 C 5.716 12.982,6.270 13.000,6.890 13.000 L 8.000 13.000 8.000 16.110 C 8.000 18.070,8.015 19.274,8.041 19.365 C 8.148 19.750,8.437 19.962,8.896 19.991 C 9.381 20.022,9.699 19.882,9.880 19.558 L 9.980 19.380 10.000 16.237 L 10.020 13.093 10.300 13.149 C 12.251 13.540,14.007 15.111,14.671 17.060 C 14.847 17.576,14.916 17.938,14.966 18.620 C 14.990 18.950,15.026 19.285,15.045 19.364 C 15.136 19.741,15.436 19.962,15.896 19.991 C 16.378 20.021,16.700 19.881,16.875 19.564 C 16.997 19.343,17.029 18.867,16.963 18.235 C 16.806 16.723,16.244 15.303,15.326 14.100 C 15.225 13.968,14.955 13.667,14.725 13.430 L 14.307 13.000 16.264 13.000 C 17.451 13.000,18.277 12.984,18.365 12.959 C 18.586 12.898,18.770 12.755,18.880 12.558 C 18.967 12.402,18.980 12.332,18.979 12.000 C 18.978 11.567,18.898 11.355,18.678 11.199 C 18.410 11.008,18.315 11.000,16.247 11.000 L 14.307 11.000 14.725 10.570 C 14.955 10.333,15.225 10.032,15.326 9.900 C 16.244 8.697,16.806 7.277,16.963 5.765 C 17.058 4.855,16.966 4.390,16.649 4.182 C 16.198 3.887,15.426 3.979,15.170 4.358 C 15.046 4.542,15.017 4.688,14.966 5.380 C 14.916 6.062,14.847 6.424,14.671 6.940 C 14.286 8.071,13.544 9.081,12.557 9.819 C 11.856 10.343,11.118 10.668,10.111 10.896 L 10.002 10.921 9.991 7.770 L 9.980 4.620 9.891 4.453 C 9.842 4.362,9.746 4.247,9.678 4.199 C 9.414 4.010,8.957 3.950,8.614 4.057 " stroke="none" fill="black" fill-rule="evenodd"></path></svg>