<svg xmlns="http://www.w3.org/2000/svg" width="24" height="24" viewBox="0 0 24 24" fill="none" stroke="currentColor" stroke-width="2" stroke-linecap="round" stroke-linejoin="round" class="icon icon-tabler icons-tabler-outline icon-tabler-ironing-steam"><path d="M8.614 3.057 C 8.376 3.132,8.212 3.261,8.109 3.453 C 8.035 3.592,8.020 3.684,8.020 4.000 C 8.020 4.331,8.033 4.403,8.120 4.558 C 8.230 4.755,8.414 4.898,8.635 4.959 C 8.728 4.985,10.185 5.000,12.660 5.000 C 15.141 5.000,16.634 5.016,16.800 5.042 C 17.497 5.153,18.162 5.738,18.367 6.420 C 18.404 6.546,18.640 7.864,18.640 7.950 C 18.640 7.990,17.719 8.000,14.170 8.000 C 11.413 8.000,9.534 8.016,9.266 8.041 C 8.274 8.135,7.384 8.385,6.501 8.817 C 3.988 10.045,2.328 12.431,2.037 15.231 C 1.970 15.881,1.999 16.336,2.122 16.559 C 2.230 16.755,2.413 16.898,2.635 16.959 C 2.851 17.019,19.967 17.015,20.247 16.955 C 21.068 16.779,21.678 16.108,21.806 15.240 C 21.842 14.997,21.798 14.698,21.104 10.540 C 20.697 8.097,20.325 5.973,20.277 5.820 C 20.082 5.185,19.809 4.730,19.327 4.231 C 18.810 3.697,18.160 3.313,17.440 3.115 L 17.100 3.022 12.940 3.013 C 9.587 3.006,8.748 3.014,8.614 3.057 M19.394 12.483 C 19.621 13.849,19.800 14.974,19.790 14.983 C 19.781 14.993,16.245 14.996,11.933 14.990 L 4.093 14.980 4.149 14.700 C 4.180 14.546,4.261 14.258,4.329 14.060 C 5.080 11.862,7.081 10.270,9.380 10.043 C 9.556 10.025,11.788 10.008,14.340 10.005 L 18.981 10.000 19.394 12.483 M7.570 18.044 C 7.477 18.090,7.353 18.185,7.295 18.254 C 7.237 18.323,6.920 18.919,6.592 19.579 C 5.912 20.946,5.873 21.076,6.040 21.420 C 6.145 21.637,6.398 21.840,6.712 21.959 C 7.111 22.112,7.475 22.029,7.709 21.734 C 7.777 21.648,8.096 21.048,8.419 20.399 C 8.931 19.372,9.009 19.189,9.027 18.980 C 9.054 18.661,8.940 18.440,8.639 18.229 C 8.259 17.963,7.871 17.895,7.570 18.044 M15.759 18.021 C 15.484 18.106,15.161 18.351,15.049 18.560 C 14.969 18.711,14.956 18.779,14.973 18.980 C 14.991 19.189,15.070 19.373,15.591 20.421 C 15.920 21.081,16.240 21.682,16.303 21.756 C 16.444 21.924,16.688 22.038,16.908 22.039 C 17.290 22.041,17.807 21.737,17.960 21.420 C 18.127 21.076,18.088 20.946,17.408 19.579 C 17.080 18.919,16.763 18.322,16.704 18.253 C 16.482 17.989,16.138 17.905,15.759 18.021 M11.614 18.057 C 11.377 18.131,11.212 18.261,11.109 18.453 C 11.023 18.614,11.020 18.665,11.008 19.908 C 11.000 20.720,11.011 21.254,11.038 21.352 C 11.144 21.747,11.432 21.961,11.896 21.991 C 12.381 22.022,12.699 21.882,12.880 21.558 L 12.980 21.380 12.980 20.000 C 12.980 18.650,12.978 18.616,12.891 18.453 C 12.842 18.362,12.746 18.247,12.678 18.199 C 12.414 18.010,11.957 17.950,11.614 18.057 " stroke="none" fill="black" fill-rule="evenodd"></path></svg>