<svg xmlns="http://www.w3.org/2000/svg" width="24" height="24" viewBox="0 0 24 24" fill="none" stroke="currentColor" stroke-width="2" stroke-linecap="round" stroke-linejoin="round" class="icon icon-tabler icons-tabler-outline icon-tabler-sort-ascending-shapes"><path d="M14.477 3.073 C 13.806 3.249,13.238 3.823,13.060 4.508 C 13.010 4.698,13.000 5.123,13.000 7.000 C 13.000 9.455,13.003 9.491,13.225 9.930 C 13.361 10.199,13.801 10.639,14.070 10.775 C 14.509 10.997,14.545 11.000,17.000 11.000 C 19.455 11.000,19.491 10.997,19.930 10.775 C 20.196 10.640,20.638 10.200,20.771 9.937 C 20.996 9.494,21.000 9.442,20.999 7.014 C 20.999 4.601,20.991 4.496,20.781 4.083 C 20.646 3.816,20.297 3.449,20.017 3.281 C 19.564 3.008,19.524 3.005,17.000 3.005 C 14.992 3.005,14.711 3.012,14.477 3.073 M6.614 5.057 C 6.377 5.131,6.212 5.261,6.109 5.453 L 6.020 5.620 6.009 10.597 L 5.999 15.574 5.269 14.852 C 4.856 14.443,4.467 14.094,4.372 14.045 C 4.021 13.868,3.640 13.958,3.299 14.299 C 2.952 14.646,2.863 15.011,3.040 15.363 C 3.099 15.480,3.635 16.051,4.635 17.062 C 5.463 17.899,6.174 18.634,6.216 18.697 C 6.318 18.850,6.762 19.049,7.000 19.049 C 7.238 19.049,7.682 18.850,7.784 18.697 C 7.826 18.634,8.537 17.899,9.365 17.062 C 10.365 16.051,10.901 15.480,10.960 15.363 C 11.137 15.011,11.048 14.646,10.701 14.299 C 10.360 13.958,9.979 13.868,9.628 14.045 C 9.533 14.094,9.144 14.443,8.731 14.852 L 8.002 15.574 7.991 10.597 L 7.980 5.620 7.891 5.453 C 7.842 5.362,7.746 5.247,7.678 5.199 C 7.414 5.010,6.957 4.950,6.614 5.057 M19.000 7.000 L 19.000 9.000 17.000 9.000 L 15.000 9.000 15.000 7.000 L 15.000 5.000 17.000 5.000 L 19.000 5.000 19.000 7.000 M16.693 13.044 C 16.579 13.087,16.416 13.191,16.331 13.274 C 16.118 13.480,12.572 19.557,12.488 19.859 C 12.438 20.040,12.437 20.105,12.479 20.256 C 12.549 20.505,12.756 20.732,13.047 20.877 L 13.293 21.000 16.999 21.000 C 21.096 21.000,20.984 21.007,21.226 20.751 C 21.396 20.572,21.442 20.472,21.481 20.194 C 21.504 20.032,21.499 19.896,21.465 19.768 C 21.406 19.540,17.887 13.492,17.681 13.264 C 17.413 12.967,17.084 12.893,16.693 13.044 M17.894 17.520 L 18.745 18.980 17.872 18.991 C 17.393 18.997,16.607 18.997,16.128 18.991 L 15.255 18.980 16.113 17.509 C 16.585 16.699,16.987 16.042,17.007 16.049 C 17.026 16.055,17.426 16.718,17.894 17.520 " stroke="none" fill="black" fill-rule="evenodd"></path></svg>