<svg xmlns="http://www.w3.org/2000/svg" width="24" height="24" viewBox="0 0 24 24" fill="none" stroke="currentColor" stroke-width="2" stroke-linecap="round" stroke-linejoin="round" class="icon icon-tabler icons-tabler-outline icon-tabler-currency-yen-off"><path d="M2.626 2.045 C 2.420 2.154,2.146 2.433,2.038 2.644 C 1.924 2.867,1.924 3.132,2.039 3.363 C 2.103 3.489,3.338 4.752,6.354 7.770 L 10.579 12.000 9.196 12.000 C 7.724 12.000,7.579 12.015,7.322 12.199 C 7.100 12.357,7.020 12.568,7.020 13.000 C 7.020 13.331,7.033 13.403,7.120 13.558 C 7.230 13.755,7.414 13.898,7.635 13.959 C 7.721 13.983,8.435 14.000,9.390 14.000 L 11.000 14.000 11.000 15.000 L 11.000 16.000 9.406 16.000 C 7.710 16.000,7.584 16.012,7.322 16.199 C 7.100 16.357,7.020 16.568,7.020 17.000 C 7.020 17.331,7.033 17.403,7.120 17.558 C 7.230 17.755,7.414 17.898,7.635 17.959 C 7.721 17.983,8.435 18.000,9.390 18.000 L 11.000 18.000 11.000 18.610 C 11.000 18.945,11.019 19.285,11.041 19.365 C 11.148 19.750,11.437 19.962,11.896 19.991 C 12.381 20.022,12.699 19.882,12.880 19.558 C 12.974 19.391,12.981 19.338,12.994 18.690 L 13.008 18.000 14.614 18.000 C 15.562 18.000,16.278 17.984,16.360 17.960 L 16.498 17.920 18.479 19.896 C 19.842 21.255,20.515 21.899,20.637 21.960 C 20.989 22.137,21.354 22.048,21.701 21.701 C 22.048 21.355,22.137 20.990,21.961 20.637 C 21.898 20.512,20.698 19.280,17.853 16.420 C 15.643 14.198,13.795 12.340,13.747 12.290 C 13.699 12.241,13.480 12.022,13.260 11.803 C 13.040 11.585,12.815 11.361,12.760 11.305 C 8.434 6.972,3.506 2.111,3.372 2.044 C 3.152 1.934,2.835 1.935,2.626 2.045 M16.620 4.026 C 16.554 4.061,16.449 4.137,16.386 4.195 C 16.240 4.329,12.843 9.079,12.720 9.320 C 12.518 9.716,12.641 10.127,13.054 10.439 C 13.522 10.792,13.905 10.803,14.263 10.473 C 14.467 10.285,17.838 5.581,17.958 5.318 C 18.123 4.952,18.039 4.593,17.718 4.303 C 17.375 3.993,16.907 3.875,16.620 4.026 M13.800 15.220 L 14.579 16.000 13.790 16.000 L 13.000 16.000 13.000 15.220 C 13.000 14.791,13.005 14.440,13.010 14.440 C 13.016 14.440,13.371 14.791,13.800 15.220 " stroke="none" fill="black" fill-rule="evenodd"></path></svg>