<svg xmlns="http://www.w3.org/2000/svg" width="24" height="24" viewBox="0 0 24 24" fill="none" stroke="currentColor" stroke-width="2" stroke-linecap="round" stroke-linejoin="round" class="icon icon-tabler icons-tabler-outline icon-tabler-infinity-off"><path d="M2.626 2.045 C 2.420 2.154,2.146 2.433,2.038 2.644 C 1.924 2.868,1.924 3.133,2.040 3.363 C 2.101 3.484,2.700 4.113,3.932 5.348 C 5.092 6.513,5.714 7.164,5.677 7.176 C 4.748 7.484,4.182 7.805,3.586 8.362 C 2.174 9.681,1.649 11.719,2.246 13.560 C 2.609 14.680,3.461 15.725,4.509 16.337 C 4.843 16.533,5.457 16.770,5.920 16.884 C 6.425 17.007,7.437 17.019,7.960 16.907 C 8.725 16.743,9.402 16.444,9.964 16.021 C 10.512 15.609,11.590 14.498,11.927 13.999 L 11.994 13.900 12.065 13.998 C 12.449 14.529,13.380 15.501,13.912 15.925 C 14.254 16.199,14.675 16.451,15.016 16.588 C 15.246 16.681,15.407 16.832,17.860 19.279 C 19.676 21.090,20.513 21.898,20.637 21.960 C 20.990 22.137,21.354 22.048,21.701 21.701 C 22.116 21.286,22.159 20.868,21.832 20.440 C 21.758 20.343,11.732 10.300,6.260 4.842 C 4.450 3.037,3.484 2.101,3.372 2.045 C 3.152 1.934,2.835 1.934,2.626 2.045 M16.400 7.044 C 15.515 7.157,14.692 7.485,14.020 7.993 C 13.681 8.249,13.062 8.824,12.876 9.056 C 12.789 9.164,12.692 9.345,12.659 9.458 C 12.605 9.642,12.606 9.685,12.663 9.879 C 12.752 10.176,13.127 10.556,13.432 10.658 C 13.832 10.790,13.999 10.714,14.634 10.112 C 15.144 9.629,15.413 9.431,15.781 9.270 C 16.997 8.734,18.373 9.033,19.237 10.020 C 19.645 10.485,19.872 10.979,19.962 11.595 C 20.050 12.201,19.958 12.739,19.662 13.343 C 19.456 13.761,19.194 14.074,18.746 14.436 C 18.418 14.700,18.241 14.971,18.240 15.208 C 18.239 15.532,18.599 16.076,18.924 16.242 C 19.343 16.456,19.868 16.209,20.606 15.453 C 21.122 14.925,21.506 14.285,21.757 13.536 C 22.099 12.514,22.073 11.305,21.685 10.245 C 21.363 9.366,20.668 8.467,19.880 7.911 C 18.897 7.217,17.589 6.891,16.400 7.044 M7.398 9.039 L 7.656 9.076 9.205 10.625 L 10.755 12.174 10.518 12.520 C 9.840 13.510,8.867 14.457,8.250 14.726 C 7.389 15.101,6.534 15.086,5.697 14.681 C 5.085 14.384,4.627 13.935,4.328 13.340 C 4.004 12.693,3.924 11.953,4.103 11.249 C 4.475 9.791,5.916 8.825,7.398 9.039 " stroke="none" fill="black" fill-rule="evenodd"></path></svg>