<svg xmlns="http://www.w3.org/2000/svg" width="24" height="24" viewBox="0 0 24 24" fill="none" stroke="currentColor" stroke-width="2" stroke-linecap="round" stroke-linejoin="round" class="icon icon-tabler icons-tabler-outline icon-tabler-logic-nor"><path d="M5.620 4.081 C 5.226 4.233,4.963 4.552,4.961 4.880 C 4.960 4.958,5.087 5.390,5.242 5.840 C 5.476 6.523,5.731 7.376,5.855 7.890 L 5.882 8.000 3.847 8.000 C 1.678 8.000,1.591 8.007,1.322 8.199 C 1.100 8.357,1.020 8.568,1.020 9.000 C 1.020 9.331,1.033 9.403,1.120 9.558 C 1.230 9.755,1.414 9.898,1.635 9.959 C 1.724 9.984,2.638 10.000,4.005 10.000 L 6.230 10.000 6.255 10.230 C 6.356 11.133,6.356 12.867,6.255 13.770 L 6.230 14.000 4.021 14.000 C 1.665 14.000,1.593 14.005,1.322 14.199 C 1.100 14.357,1.020 14.568,1.020 15.000 C 1.020 15.331,1.033 15.403,1.120 15.558 C 1.230 15.755,1.414 15.898,1.635 15.959 C 1.724 15.984,2.581 16.000,3.833 16.000 C 5.769 16.000,5.884 16.004,5.865 16.070 C 5.854 16.108,5.789 16.356,5.721 16.620 C 5.652 16.884,5.460 17.504,5.293 17.999 C 4.953 19.009,4.942 19.118,5.134 19.537 C 5.347 20.003,5.683 20.079,6.740 19.901 C 9.232 19.479,11.229 18.581,12.717 17.214 C 13.372 16.612,13.989 15.791,14.347 15.047 C 14.450 14.834,14.538 14.654,14.543 14.647 C 14.548 14.640,14.622 14.670,14.707 14.713 C 15.090 14.909,15.433 14.979,16.000 14.979 C 16.453 14.979,16.588 14.964,16.840 14.886 C 17.645 14.635,18.318 14.069,18.688 13.330 L 18.853 13.000 20.537 13.000 C 21.541 13.000,22.278 12.983,22.365 12.959 C 22.586 12.898,22.770 12.755,22.880 12.558 C 22.967 12.402,22.980 12.332,22.979 12.000 C 22.978 11.567,22.898 11.355,22.678 11.199 C 22.415 11.011,22.295 11.000,20.520 11.000 L 18.853 11.000 18.688 10.670 C 18.321 9.937,17.641 9.362,16.861 9.125 C 16.595 9.044,16.451 9.027,16.020 9.025 C 15.421 9.022,15.027 9.110,14.619 9.336 L 14.382 9.467 14.166 9.084 C 13.567 8.019,12.879 7.237,11.810 6.407 C 10.484 5.377,8.694 4.584,6.646 4.121 C 6.028 3.981,5.893 3.976,5.620 4.081 M8.068 6.618 C 9.412 7.110,10.773 7.995,11.612 8.922 C 12.237 9.613,12.716 10.524,12.903 11.380 C 12.998 11.816,12.998 12.703,12.903 13.140 C 12.561 14.708,11.365 16.067,9.541 16.961 C 9.044 17.204,8.020 17.582,7.644 17.660 C 7.516 17.687,7.510 17.684,7.535 17.594 C 8.569 13.932,8.626 10.635,7.717 7.089 C 7.538 6.394,7.544 6.425,7.610 6.450 C 7.638 6.460,7.844 6.536,8.068 6.618 M16.310 11.061 C 16.688 11.173,17.000 11.598,17.000 12.001 C 17.000 12.331,16.784 12.696,16.484 12.872 C 16.328 12.963,16.254 12.980,16.000 12.980 C 15.746 12.980,15.672 12.963,15.516 12.872 C 14.932 12.528,14.831 11.775,15.307 11.299 C 15.582 11.024,15.918 10.944,16.310 11.061 " stroke="none" fill="black" fill-rule="evenodd"></path></svg>