<svg xmlns="http://www.w3.org/2000/svg" width="24" height="24" viewBox="0 0 24 24" fill="none" stroke="currentColor" stroke-width="2" stroke-linecap="round" stroke-linejoin="round" class="icon icon-tabler icons-tabler-outline icon-tabler-corner-right-up-double"><path d="M13.620 3.046 C 13.385 3.167,9.154 7.408,9.039 7.637 C 8.863 7.990,8.952 8.355,9.299 8.701 C 9.646 9.048,10.011 9.137,10.363 8.960 C 10.483 8.900,11.092 8.321,12.270 7.147 L 14.000 5.422 15.730 7.147 C 16.908 8.321,17.517 8.900,17.637 8.960 C 17.989 9.137,18.354 9.048,18.701 8.701 C 19.048 8.355,19.137 7.990,18.961 7.637 C 18.840 7.396,14.612 3.164,14.372 3.044 C 14.151 2.934,13.836 2.935,13.620 3.046 M13.530 8.083 C 13.393 8.150,13.249 8.252,13.210 8.311 C 13.172 8.369,12.237 9.327,11.134 10.439 C 9.766 11.818,9.101 12.516,9.040 12.637 C 8.863 12.989,8.952 13.354,9.299 13.701 C 9.646 14.048,10.011 14.137,10.363 13.960 C 10.479 13.901,10.961 13.452,11.770 12.647 L 13.000 11.423 12.999 13.801 C 12.999 16.395,12.989 16.525,12.772 16.931 C 12.625 17.208,12.191 17.643,11.930 17.775 C 11.478 18.004,11.543 18.000,8.038 18.000 C 4.589 18.000,4.602 17.999,4.322 18.199 C 4.100 18.357,4.020 18.568,4.020 19.000 C 4.020 19.331,4.033 19.403,4.120 19.558 C 4.230 19.755,4.414 19.898,4.635 19.959 C 4.727 19.985,5.991 20.000,8.074 20.000 C 11.203 20.000,11.387 19.996,11.757 19.921 C 13.384 19.589,14.589 18.384,14.921 16.757 C 14.995 16.393,15.000 16.204,15.000 13.895 L 15.000 11.423 16.230 12.647 C 17.039 13.452,17.521 13.901,17.637 13.960 C 17.989 14.137,18.354 14.048,18.701 13.701 C 19.048 13.354,19.137 12.989,18.960 12.637 C 18.899 12.516,18.234 11.818,16.866 10.439 C 15.763 9.327,14.828 8.369,14.789 8.310 C 14.751 8.252,14.604 8.149,14.464 8.082 C 14.120 7.918,13.871 7.918,13.530 8.083 " stroke="none" fill="black" fill-rule="evenodd"></path></svg>