<svg xmlns="http://www.w3.org/2000/svg" width="24" height="24" viewBox="0 0 24 24" fill="none" stroke="currentColor" stroke-width="2" stroke-linecap="round" stroke-linejoin="round" class="icon icon-tabler icons-tabler-outline icon-tabler-air-balloon"><path d="M11.520 1.023 C 10.576 1.131,10.251 1.200,9.620 1.427 C 6.621 2.507,4.719 5.526,5.037 8.700 C 5.312 11.442,6.861 14.359,8.829 15.837 C 9.523 16.359,10.133 16.661,10.917 16.871 C 11.259 16.962,11.375 16.973,12.000 16.973 C 12.625 16.973,12.741 16.962,13.083 16.871 C 14.130 16.590,14.957 16.106,15.833 15.260 C 17.004 14.130,17.908 12.649,18.477 10.928 C 19.133 8.945,19.164 7.262,18.573 5.620 C 17.716 3.236,15.588 1.478,13.100 1.097 C 12.728 1.040,11.767 0.995,11.520 1.023 M12.118 3.425 C 12.410 4.046,12.663 5.025,12.818 6.140 C 13.038 7.711,13.038 10.285,12.818 11.861 C 12.655 13.036,12.323 14.260,12.050 14.700 L 12.000 14.780 11.950 14.700 C 11.754 14.383,11.472 13.490,11.321 12.701 C 11.097 11.530,11.023 10.614,11.023 9.000 C 11.022 7.053,11.164 5.754,11.521 4.436 C 11.675 3.869,11.927 3.240,12.000 3.240 C 12.017 3.240,12.070 3.323,12.118 3.425 M9.532 4.130 C 9.357 4.804,9.184 5.824,9.094 6.720 C 8.993 7.711,8.993 10.286,9.093 11.271 C 9.166 11.994,9.314 12.960,9.418 13.402 C 9.507 13.778,9.496 13.800,9.317 13.600 C 8.044 12.169,7.198 10.275,7.037 8.496 C 6.895 6.935,7.433 5.466,8.535 4.410 C 8.822 4.135,9.550 3.600,9.638 3.600 C 9.655 3.600,9.608 3.839,9.532 4.130 M14.767 3.849 C 15.786 4.530,16.537 5.584,16.839 6.760 C 17.354 8.763,16.458 11.604,14.683 13.600 C 14.594 13.699,14.522 13.760,14.521 13.735 C 14.521 13.711,14.564 13.477,14.618 13.215 C 14.891 11.893,14.980 10.850,14.980 8.980 C 14.979 6.838,14.821 5.406,14.423 3.955 C 14.369 3.760,14.341 3.600,14.360 3.600 C 14.379 3.600,14.562 3.712,14.767 3.849 M10.477 18.073 C 9.806 18.249,9.238 18.823,9.060 19.508 C 8.976 19.828,8.976 21.172,9.060 21.492 C 9.153 21.852,9.310 22.118,9.596 22.404 C 9.882 22.690,10.148 22.847,10.508 22.940 C 10.839 23.027,13.161 23.027,13.492 22.940 C 13.852 22.847,14.118 22.690,14.404 22.404 C 14.895 21.913,15.000 21.579,14.999 20.514 C 14.999 19.459,14.903 19.124,14.465 18.653 C 14.198 18.366,13.870 18.164,13.523 18.073 C 13.134 17.972,10.866 17.972,10.477 18.073 M13.000 20.500 L 13.000 21.000 12.000 21.000 L 11.000 21.000 11.000 20.500 L 11.000 20.000 12.000 20.000 L 13.000 20.000 13.000 20.500 " stroke="none" fill="black" fill-rule="evenodd"></path></svg>