<svg xmlns="http://www.w3.org/2000/svg" width="24" height="24" viewBox="0 0 24 24" fill="none" stroke="currentColor" stroke-width="2" stroke-linecap="round" stroke-linejoin="round" class="icon icon-tabler icons-tabler-outline icon-tabler-brand-typescript"><path d="M4.499 2.043 C 3.380 2.232,2.461 3.048,2.114 4.160 L 2.020 4.460 2.020 12.000 L 2.020 19.540 2.114 19.840 C 2.422 20.827,3.173 21.578,4.160 21.886 L 4.460 21.980 12.000 21.980 L 19.540 21.980 19.840 21.886 C 20.827 21.578,21.578 20.827,21.886 19.840 L 21.980 19.540 21.980 12.000 L 21.980 4.460 21.886 4.160 C 21.581 3.182,20.832 2.428,19.861 2.121 L 19.540 2.020 12.120 2.014 C 8.039 2.011,4.609 2.024,4.499 2.043 M19.310 4.061 C 19.589 4.144,19.856 4.411,19.939 4.690 C 19.993 4.870,20.000 5.755,20.000 12.001 C 20.000 17.907,19.991 19.138,19.945 19.290 C 19.872 19.533,19.707 19.740,19.484 19.872 L 19.300 19.980 12.000 19.980 L 4.700 19.980 4.516 19.872 C 4.415 19.813,4.284 19.700,4.225 19.623 C 3.986 19.309,4.000 19.795,4.000 12.022 C 4.000 5.758,4.007 4.870,4.061 4.690 C 4.140 4.421,4.412 4.143,4.673 4.063 C 4.964 3.974,19.009 3.971,19.310 4.061 M8.614 11.057 C 8.377 11.131,8.212 11.261,8.109 11.453 C 8.035 11.592,8.020 11.684,8.020 12.000 C 8.020 12.331,8.033 12.403,8.120 12.558 C 8.230 12.755,8.414 12.898,8.635 12.959 C 8.715 12.981,9.055 13.000,9.390 13.000 L 10.000 13.000 10.000 15.610 C 10.000 17.235,10.016 18.275,10.041 18.365 C 10.148 18.750,10.437 18.962,10.896 18.991 C 11.381 19.022,11.699 18.882,11.880 18.558 L 11.980 18.380 11.991 15.690 L 12.003 13.000 12.611 13.000 C 12.946 13.000,13.285 12.981,13.365 12.959 C 13.586 12.898,13.770 12.755,13.880 12.558 C 13.967 12.402,13.980 12.332,13.979 12.000 C 13.978 11.567,13.898 11.355,13.678 11.199 C 13.406 11.005,13.336 11.000,10.984 11.003 C 9.293 11.005,8.741 11.017,8.614 11.057 M15.736 11.059 C 14.942 11.232,14.249 11.928,14.057 12.745 C 13.957 13.166,13.995 13.924,14.135 14.320 C 14.465 15.253,15.322 15.916,16.294 15.987 C 16.473 16.000,16.670 16.037,16.732 16.068 C 16.906 16.156,17.000 16.344,17.000 16.610 C 17.000 16.956,16.939 17.000,16.459 17.000 C 16.025 17.000,15.902 16.961,15.640 16.740 C 15.162 16.337,14.785 16.349,14.322 16.782 C 13.962 17.119,13.863 17.495,14.040 17.860 C 14.248 18.290,15.013 18.813,15.620 18.940 C 15.997 19.019,16.938 19.018,17.276 18.939 C 18.068 18.752,18.754 18.059,18.943 17.255 C 19.043 16.834,19.005 16.076,18.865 15.680 C 18.734 15.308,18.460 14.900,18.165 14.636 C 17.765 14.279,17.072 14.003,16.568 14.001 C 16.205 13.999,16.000 13.780,16.000 13.390 C 16.000 13.044,16.061 13.000,16.537 13.000 C 16.978 13.000,17.074 13.030,17.329 13.244 C 17.561 13.439,17.814 13.558,18.000 13.559 C 18.213 13.559,18.518 13.395,18.732 13.165 C 19.197 12.666,19.156 12.223,18.596 11.705 C 18.260 11.394,17.790 11.151,17.352 11.062 C 16.973 10.986,16.082 10.984,15.736 11.059 " stroke="none" fill="black" fill-rule="evenodd"></path></svg>