<svg xmlns="http://www.w3.org/2000/svg" width="24" height="24" viewBox="0 0 24 24" fill="none" stroke="currentColor" stroke-width="2" stroke-linecap="round" stroke-linejoin="round" class="icon icon-tabler icons-tabler-outline icon-tabler-brand-x"><path d="M19.620 3.046 C 19.521 3.097,18.285 4.300,16.400 6.181 L 13.340 9.234 11.201 6.312 C 10.024 4.705,8.985 3.323,8.890 3.240 C 8.792 3.154,8.644 3.070,8.542 3.045 C 8.260 2.974,3.869 2.983,3.629 3.055 C 3.190 3.187,3.021 3.439,3.020 3.960 C 3.020 4.237,3.036 4.327,3.106 4.445 C 3.153 4.525,4.600 6.511,6.322 8.859 L 9.452 13.127 6.290 16.294 C 4.058 18.529,3.102 19.512,3.039 19.637 C 2.863 19.990,2.952 20.355,3.299 20.701 C 3.646 21.048,4.010 21.137,4.363 20.961 C 4.488 20.898,5.445 19.969,7.600 17.819 L 10.660 14.767 12.740 17.612 C 13.884 19.177,14.907 20.552,15.013 20.666 C 15.334 21.012,15.229 21.000,17.897 21.000 C 19.330 21.000,20.275 20.984,20.365 20.959 C 20.587 20.898,20.770 20.755,20.879 20.558 C 20.963 20.408,20.979 20.327,20.979 20.040 C 20.980 19.763,20.964 19.673,20.894 19.555 C 20.847 19.475,19.400 17.489,17.678 15.141 L 14.548 10.873 17.710 7.706 C 19.942 5.471,20.898 4.488,20.961 4.363 C 21.137 4.010,21.048 3.645,20.701 3.299 C 20.361 2.959,19.967 2.867,19.620 3.046 M9.985 8.040 C 11.201 9.701,12.330 11.240,12.494 11.460 C 13.338 12.598,18.000 18.967,18.000 18.983 C 18.000 18.993,17.601 18.997,17.113 18.991 L 16.227 18.980 11.113 12.007 C 8.301 8.172,6.000 5.027,6.000 5.017 C 6.000 5.007,6.399 5.003,6.887 5.009 L 7.773 5.020 9.985 8.040 " stroke="none" fill="black" fill-rule="evenodd"></path></svg>