<svg xmlns="http://www.w3.org/2000/svg" width="24" height="24" viewBox="0 0 24 24" fill="none" stroke="currentColor" stroke-width="2" stroke-linecap="round" stroke-linejoin="round" class="icon icon-tabler icons-tabler-outline icon-tabler-currency-xrp"><path d="M4.626 4.045 C 4.420 4.154,4.146 4.433,4.038 4.644 C 3.924 4.867,3.925 5.132,4.039 5.363 C 4.165 5.617,8.140 9.577,8.585 9.891 C 10.667 11.362,13.333 11.362,15.415 9.891 C 15.860 9.577,19.835 5.617,19.961 5.363 C 20.136 5.010,20.047 4.645,19.701 4.299 C 19.361 3.958,18.980 3.868,18.628 4.045 C 18.519 4.100,17.750 4.835,16.420 6.158 C 14.286 8.281,14.132 8.415,13.530 8.676 C 13.000 8.908,12.648 8.977,12.000 8.977 C 11.352 8.977,11.000 8.908,10.470 8.676 C 9.868 8.415,9.714 8.281,7.580 6.158 C 6.250 4.835,5.481 4.100,5.372 4.045 C 5.152 3.934,4.835 3.934,4.626 4.045 M11.360 13.046 C 10.370 13.149,9.351 13.550,8.512 14.166 C 8.050 14.506,4.160 18.394,4.039 18.637 C 3.864 18.990,3.953 19.355,4.299 19.701 C 4.646 20.048,5.011 20.137,5.363 19.960 C 5.484 19.899,6.185 19.230,7.580 17.843 C 8.759 16.670,9.713 15.754,9.840 15.672 C 10.223 15.425,10.642 15.235,11.037 15.130 C 11.364 15.043,11.506 15.028,12.000 15.028 C 12.494 15.028,12.636 15.043,12.963 15.130 C 13.358 15.235,13.777 15.425,14.160 15.672 C 14.287 15.754,15.241 16.670,16.420 17.843 C 17.815 19.230,18.516 19.899,18.637 19.960 C 18.989 20.137,19.354 20.048,19.701 19.701 C 20.047 19.355,20.136 18.990,19.961 18.637 C 19.840 18.394,15.950 14.506,15.488 14.166 C 14.622 13.530,13.630 13.148,12.566 13.041 C 12.096 12.994,11.847 12.995,11.360 13.046 " stroke="none" fill="black" fill-rule="evenodd"></path></svg>