<svg xmlns="http://www.w3.org/2000/svg" width="24" height="24" viewBox="0 0 24 24" fill="none" stroke="currentColor" stroke-width="2" stroke-linecap="round" stroke-linejoin="round" class="icon icon-tabler icons-tabler-outline icon-tabler-time-duration-15"><path d="M11.614 2.057 C 11.223 2.180,11.039 2.436,11.009 2.900 C 10.978 3.379,11.119 3.701,11.437 3.876 C 11.589 3.960,11.690 3.977,12.216 4.006 C 13.571 4.081,14.556 4.331,15.614 4.870 C 17.912 6.040,19.511 8.239,19.896 10.760 C 19.932 10.991,19.976 11.452,19.994 11.784 C 20.023 12.310,20.040 12.411,20.124 12.563 C 20.286 12.856,20.574 13.000,21.000 13.000 C 21.428 13.000,21.713 12.856,21.880 12.558 C 21.976 12.388,21.980 12.352,21.977 11.720 C 21.969 9.661,21.217 7.571,19.847 5.800 C 19.510 5.365,18.639 4.494,18.200 4.154 C 16.616 2.928,14.808 2.213,12.860 2.043 C 12.234 1.988,11.820 1.993,11.614 2.057 M7.080 3.266 C 6.695 3.398,6.509 3.704,6.509 4.207 C 6.509 4.628,6.641 4.910,6.913 5.070 C 7.083 5.170,7.136 5.180,7.500 5.180 C 7.864 5.180,7.917 5.170,8.087 5.070 C 8.361 4.909,8.490 4.629,8.488 4.203 C 8.487 3.844,8.403 3.607,8.215 3.434 C 7.976 3.214,7.455 3.137,7.080 3.266 M3.745 6.579 C 3.371 6.712,3.173 7.090,3.209 7.603 C 3.247 8.127,3.476 8.399,3.954 8.488 C 4.454 8.581,4.914 8.403,5.084 8.051 C 5.202 7.807,5.229 7.400,5.145 7.112 C 5.070 6.852,4.855 6.630,4.613 6.563 C 4.400 6.504,3.931 6.513,3.745 6.579 M8.614 8.057 C 8.377 8.131,8.212 8.261,8.109 8.453 L 8.020 8.620 8.009 11.912 C 8.002 14.060,8.012 15.257,8.039 15.356 C 8.144 15.747,8.434 15.961,8.896 15.991 C 9.381 16.022,9.699 15.882,9.880 15.558 L 9.980 15.380 9.980 12.000 L 9.980 8.620 9.891 8.453 C 9.842 8.362,9.746 8.247,9.678 8.199 C 9.414 8.010,8.957 7.950,8.614 8.057 M11.614 8.057 C 11.377 8.131,11.212 8.261,11.109 8.453 C 11.021 8.618,11.020 8.647,11.008 10.410 C 11.001 11.557,11.012 12.255,11.038 12.354 C 11.100 12.583,11.242 12.768,11.442 12.880 C 11.619 12.980,11.626 12.980,12.810 12.992 L 14.000 13.004 14.000 13.502 L 14.000 14.000 12.906 14.000 C 11.744 14.000,11.570 14.022,11.322 14.199 C 11.100 14.357,11.020 14.568,11.020 15.000 C 11.020 15.331,11.033 15.403,11.120 15.558 C 11.230 15.755,11.414 15.898,11.635 15.959 C 11.718 15.982,12.313 16.000,13.022 16.000 C 14.367 16.000,14.522 15.982,14.930 15.775 C 15.196 15.640,15.638 15.200,15.771 14.937 C 15.959 14.566,16.000 14.312,15.999 13.514 C 15.999 12.459,15.903 12.124,15.465 11.653 C 14.998 11.150,14.590 11.006,13.630 11.002 L 13.000 11.000 13.000 10.500 L 13.000 10.000 14.110 10.000 C 14.730 10.000,15.284 9.982,15.365 9.959 C 15.586 9.898,15.770 9.755,15.880 9.558 C 15.967 9.402,15.980 9.332,15.979 9.000 C 15.978 8.687,15.962 8.591,15.890 8.453 C 15.786 8.256,15.623 8.131,15.371 8.055 C 15.114 7.978,11.862 7.980,11.614 8.057 M2.614 11.057 C 2.221 11.180,2.039 11.435,2.009 11.906 C 1.962 12.621,2.306 13.000,3.000 13.000 C 3.698 13.000,4.043 12.616,3.989 11.900 C 3.963 11.563,3.859 11.327,3.678 11.199 C 3.414 11.010,2.957 10.950,2.614 11.057 M3.745 15.579 C 3.371 15.712,3.173 16.090,3.209 16.603 C 3.247 17.127,3.476 17.399,3.954 17.488 C 4.454 17.581,4.914 17.403,5.084 17.051 C 5.202 16.807,5.229 16.400,5.145 16.112 C 5.070 15.852,4.855 15.630,4.613 15.563 C 4.400 15.504,3.931 15.513,3.745 15.579 M19.345 15.579 C 18.971 15.712,18.773 16.090,18.809 16.603 C 18.847 17.127,19.076 17.399,19.554 17.488 C 20.054 17.581,20.514 17.403,20.684 17.051 C 20.802 16.807,20.829 16.400,20.745 16.112 C 20.670 15.852,20.455 15.630,20.213 15.563 C 20.000 15.504,19.531 15.513,19.345 15.579 M7.080 18.866 C 6.695 18.998,6.509 19.304,6.509 19.807 C 6.509 20.228,6.641 20.510,6.913 20.670 C 7.083 20.770,7.136 20.780,7.500 20.780 C 7.864 20.780,7.917 20.770,8.087 20.670 C 8.361 20.509,8.490 20.229,8.488 19.803 C 8.487 19.444,8.403 19.207,8.215 19.034 C 7.976 18.814,7.455 18.737,7.080 18.866 M16.080 18.866 C 15.695 18.998,15.509 19.304,15.509 19.807 C 15.509 20.228,15.641 20.510,15.913 20.670 C 16.083 20.770,16.136 20.780,16.500 20.780 C 16.864 20.780,16.917 20.770,17.087 20.670 C 17.361 20.509,17.490 20.229,17.488 19.803 C 17.487 19.444,17.403 19.207,17.215 19.034 C 16.976 18.814,16.455 18.737,16.080 18.866 M11.614 20.057 C 11.221 20.180,11.039 20.435,11.009 20.906 C 10.962 21.621,11.306 22.000,12.000 22.000 C 12.698 22.000,13.043 21.616,12.989 20.900 C 12.963 20.563,12.859 20.327,12.678 20.199 C 12.414 20.010,11.957 19.950,11.614 20.057 " stroke="none" fill="black" fill-rule="evenodd"></path></svg>