<svg xmlns="http://www.w3.org/2000/svg" width="24" height="24" viewBox="0 0 24 24" fill="none" stroke="currentColor" stroke-width="2" stroke-linecap="round" stroke-linejoin="round" class="icon icon-tabler icons-tabler-outline icon-tabler-bookmark"><path d="M9.400 2.044 C 7.761 2.229,6.261 3.290,5.526 4.785 C 5.347 5.148,5.197 5.571,5.094 6.000 C 5.027 6.282,5.022 6.748,5.011 13.718 C 4.997 22.009,4.974 21.343,5.287 21.698 C 5.580 22.031,5.944 22.127,6.302 21.965 C 6.391 21.924,7.709 21.061,9.232 20.046 L 12.000 18.200 14.765 20.043 C 16.286 21.058,17.602 21.913,17.690 21.944 C 18.146 22.104,18.669 21.935,18.880 21.558 L 18.980 21.380 18.980 13.880 C 18.980 6.779,18.976 6.362,18.907 6.040 C 18.625 4.721,17.863 3.576,16.800 2.874 C 16.046 2.375,15.396 2.135,14.552 2.043 C 14.092 1.992,9.849 1.994,9.400 2.044 M14.861 4.122 C 15.820 4.422,16.574 5.176,16.879 6.139 L 16.980 6.460 16.991 12.793 C 17.000 17.906,16.992 19.120,16.951 19.095 C 16.923 19.079,15.902 18.400,14.683 17.587 C 13.463 16.775,12.406 16.085,12.334 16.055 C 12.165 15.984,11.835 15.984,11.666 16.055 C 11.594 16.085,10.537 16.775,9.317 17.587 C 8.098 18.400,7.077 19.079,7.049 19.095 C 7.008 19.120,7.000 17.906,7.009 12.793 L 7.020 6.460 7.121 6.139 C 7.468 5.043,8.384 4.234,9.499 4.042 C 9.609 4.023,10.789 4.011,12.120 4.015 L 14.540 4.022 14.861 4.122 " stroke="none" fill="black" fill-rule="evenodd"></path></svg>