<svg xmlns="http://www.w3.org/2000/svg" width="24" height="24" viewBox="0 0 24 24" fill="none" stroke="currentColor" stroke-width="2" stroke-linecap="round" stroke-linejoin="round" class="icon icon-tabler icons-tabler-outline icon-tabler-brand-soundcloud"><path d="M11.614 6.057 C 11.377 6.131,11.212 6.261,11.109 6.453 L 11.020 6.620 11.009 11.914 C 11.002 15.393,11.013 17.259,11.039 17.358 C 11.100 17.584,11.243 17.768,11.442 17.880 L 11.620 17.980 14.970 17.991 C 18.130 18.001,18.340 17.997,18.690 17.926 C 19.475 17.764,20.144 17.410,20.727 16.849 C 21.309 16.287,21.706 15.620,21.888 14.895 C 22.018 14.381,22.016 13.601,21.884 13.100 C 21.697 12.388,21.362 11.800,20.842 11.278 C 20.062 10.492,19.197 10.085,18.158 10.015 L 17.777 9.989 17.667 9.678 C 17.061 7.968,15.874 6.815,14.194 6.303 C 13.375 6.054,12.033 5.926,11.614 6.057 M8.614 7.057 C 8.377 7.131,8.212 7.261,8.109 7.453 L 8.020 7.620 8.009 12.413 C 8.002 15.560,8.013 17.258,8.039 17.357 C 8.144 17.747,8.434 17.961,8.896 17.991 C 9.381 18.022,9.699 17.882,9.880 17.558 L 9.980 17.380 9.980 12.500 L 9.980 7.620 9.891 7.453 C 9.842 7.362,9.746 7.247,9.678 7.199 C 9.414 7.010,8.957 6.950,8.614 7.057 M13.457 8.178 C 14.778 8.513,15.568 9.378,15.944 10.897 C 16.110 11.567,16.203 11.737,16.492 11.889 C 16.644 11.969,16.739 11.980,17.500 12.003 C 18.109 12.021,18.385 12.045,18.503 12.090 C 19.267 12.380,19.829 12.988,19.962 13.672 C 20.149 14.629,19.444 15.673,18.430 15.943 C 18.261 15.988,17.716 15.999,15.610 16.000 L 13.000 16.000 13.000 12.040 C 13.000 9.815,13.015 8.080,13.035 8.080 C 13.054 8.080,13.244 8.124,13.457 8.178 M5.614 9.057 C 5.377 9.131,5.212 9.261,5.109 9.453 L 5.020 9.620 5.009 13.413 C 5.002 15.894,5.012 17.258,5.039 17.357 C 5.144 17.747,5.434 17.961,5.896 17.991 C 6.381 18.022,6.699 17.882,6.880 17.558 L 6.980 17.380 6.980 13.500 L 6.980 9.620 6.891 9.453 C 6.842 9.362,6.746 9.247,6.678 9.199 C 6.414 9.010,5.957 8.950,5.614 9.057 M2.614 13.057 C 2.377 13.131,2.212 13.261,2.109 13.453 C 2.023 13.614,2.020 13.665,2.008 14.908 C 2.000 15.720,2.011 16.254,2.038 16.352 C 2.144 16.747,2.432 16.961,2.896 16.991 C 3.381 17.022,3.699 16.882,3.880 16.558 L 3.980 16.380 3.980 15.000 C 3.980 13.650,3.978 13.616,3.891 13.453 C 3.842 13.362,3.746 13.247,3.678 13.199 C 3.414 13.010,2.957 12.950,2.614 13.057 " stroke="none" fill="black" fill-rule="evenodd"></path></svg>