<svg xmlns="http://www.w3.org/2000/svg" width="24" height="24" viewBox="0 0 24 24" fill="none" stroke="currentColor" stroke-width="2" stroke-linecap="round" stroke-linejoin="round" class="icon icon-tabler icons-tabler-outline icon-tabler-chevron-left-pipe"><path d="M17.620 5.046 C 17.383 5.167,11.154 11.406,11.039 11.637 C 10.986 11.744,10.951 11.889,10.951 12.000 C 10.951 12.111,10.986 12.256,11.039 12.363 C 11.164 12.613,17.387 18.836,17.637 18.961 C 17.990 19.137,18.355 19.047,18.701 18.701 C 19.048 18.354,19.137 17.990,18.961 17.637 C 18.898 17.513,18.058 16.644,16.147 14.730 L 13.421 12.000 16.147 9.270 C 18.058 7.356,18.898 6.487,18.961 6.363 C 19.137 6.010,19.048 5.646,18.701 5.299 C 18.361 4.959,17.968 4.867,17.620 5.046 M6.614 5.057 C 6.377 5.131,6.212 5.261,6.109 5.453 L 6.020 5.620 6.010 11.914 C 6.003 16.059,6.013 18.259,6.039 18.358 C 6.144 18.747,6.434 18.961,6.896 18.991 C 7.381 19.022,7.699 18.882,7.880 18.558 L 7.980 18.380 7.980 12.000 L 7.980 5.620 7.891 5.453 C 7.842 5.362,7.746 5.247,7.678 5.199 C 7.414 5.010,6.957 4.950,6.614 5.057 " stroke="none" fill="black" fill-rule="evenodd"></path></svg>