<svg xmlns="http://www.w3.org/2000/svg" width="24" height="24" viewBox="0 0 24 24" fill="none" stroke="currentColor" stroke-width="2" stroke-linecap="round" stroke-linejoin="round" class="icon icon-tabler icons-tabler-outline icon-tabler-brackets"><path d="M4.614 3.057 C 4.377 3.131,4.212 3.261,4.109 3.453 L 4.020 3.620 4.010 11.914 C 4.003 17.391,4.013 20.260,4.040 20.358 C 4.100 20.584,4.243 20.769,4.442 20.880 L 4.620 20.980 6.410 20.992 C 7.557 20.999,8.255 20.988,8.354 20.962 C 8.583 20.900,8.768 20.758,8.880 20.558 C 8.967 20.402,8.980 20.332,8.979 20.000 C 8.978 19.567,8.898 19.355,8.678 19.199 C 8.430 19.022,8.256 19.000,7.094 19.000 L 6.000 19.000 6.000 12.000 L 6.000 5.000 7.110 5.000 C 7.730 5.000,8.284 4.982,8.365 4.959 C 8.586 4.898,8.770 4.755,8.880 4.558 C 8.967 4.402,8.980 4.332,8.979 4.000 C 8.978 3.687,8.962 3.591,8.890 3.453 C 8.786 3.256,8.623 3.131,8.371 3.055 C 8.114 2.978,4.862 2.980,4.614 3.057 M15.614 3.057 C 15.377 3.131,15.212 3.261,15.109 3.453 C 15.035 3.592,15.020 3.684,15.020 4.000 C 15.020 4.331,15.033 4.403,15.120 4.558 C 15.230 4.755,15.414 4.898,15.635 4.959 C 15.716 4.982,16.270 5.000,16.890 5.000 L 18.000 5.000 18.000 12.000 L 18.000 19.000 16.906 19.000 C 15.744 19.000,15.570 19.022,15.322 19.199 C 15.100 19.357,15.020 19.568,15.020 20.000 C 15.020 20.331,15.033 20.403,15.120 20.558 C 15.230 20.755,15.414 20.898,15.635 20.959 C 15.829 21.013,19.171 21.013,19.365 20.959 C 19.586 20.898,19.770 20.755,19.880 20.558 L 19.980 20.380 19.980 12.000 L 19.980 3.620 19.891 3.453 C 19.785 3.256,19.622 3.131,19.371 3.055 C 19.114 2.978,15.862 2.980,15.614 3.057 " stroke="none" fill="black" fill-rule="evenodd"></path></svg>