<svg xmlns="http://www.w3.org/2000/svg" width="24" height="24" viewBox="0 0 24 24" fill="none" stroke="currentColor" stroke-width="2" stroke-linecap="round" stroke-linejoin="round" class="icon icon-tabler icons-tabler-outline icon-tabler-brand-javascript"><path d="M3.678 3.054 C 3.239 3.173,3.039 3.407,3.012 3.834 C 3.000 4.032,3.254 5.963,4.012 11.445 C 5.127 19.506,5.048 19.049,5.368 19.281 C 5.481 19.363,6.412 19.691,8.668 20.443 C 11.221 21.294,11.850 21.490,12.016 21.487 C 12.170 21.484,12.976 21.231,15.336 20.443 C 17.083 19.860,18.518 19.359,18.601 19.304 C 18.772 19.191,18.894 19.010,18.955 18.780 C 18.978 18.692,19.449 15.344,20.002 11.340 C 20.770 5.777,21.001 4.006,20.984 3.830 C 20.942 3.408,20.754 3.171,20.371 3.055 C 20.115 2.978,3.963 2.978,3.678 3.054 M18.825 5.170 C 18.811 5.264,18.422 8.094,17.960 11.460 C 17.497 14.826,17.110 17.619,17.100 17.667 C 17.083 17.743,16.765 17.858,14.540 18.600 L 12.000 19.447 9.460 18.600 C 7.235 17.858,6.917 17.743,6.900 17.667 C 6.890 17.619,6.503 14.826,6.040 11.460 C 5.578 8.094,5.189 5.264,5.175 5.170 L 5.151 5.000 12.000 5.000 L 18.849 5.000 18.825 5.170 M7.180 7.039 C 6.715 7.159,6.514 7.447,6.512 7.997 C 6.510 8.348,6.582 8.556,6.771 8.751 C 6.987 8.974,7.155 9.000,8.387 9.000 L 9.480 9.000 9.480 11.680 C 9.480 13.154,9.471 14.360,9.459 14.360 C 9.448 14.360,9.275 14.278,9.075 14.178 C 8.642 13.960,8.400 13.918,8.141 14.017 C 7.666 14.199,7.316 15.007,7.532 15.424 C 7.661 15.674,7.914 15.837,9.060 16.407 C 10.057 16.904,10.228 16.977,10.434 16.992 C 10.777 17.017,11.075 16.919,11.250 16.726 C 11.513 16.434,11.500 16.684,11.500 12.000 C 11.500 7.256,11.515 7.524,11.230 7.251 C 10.974 7.008,10.899 7.000,9.009 7.004 C 8.069 7.006,7.246 7.022,7.180 7.039 M13.637 7.055 C 13.193 7.150,12.784 7.517,12.593 7.990 C 12.501 8.219,12.500 8.230,12.500 10.000 C 12.500 11.770,12.501 11.781,12.593 12.010 C 12.763 12.431,13.096 12.766,13.488 12.912 C 13.607 12.956,13.842 12.980,14.250 12.991 C 14.575 13.000,14.840 13.013,14.840 13.019 C 14.840 13.065,14.597 14.695,14.590 14.701 C 14.584 14.705,14.241 14.792,13.826 14.895 C 13.007 15.098,12.825 15.172,12.666 15.360 C 12.392 15.686,12.448 16.362,12.783 16.752 C 12.943 16.939,13.119 17.009,13.420 17.006 C 13.643 17.003,15.817 16.475,16.000 16.379 C 16.148 16.302,16.348 16.080,16.415 15.918 C 16.515 15.679,16.932 12.664,16.907 12.360 C 16.857 11.752,16.405 11.211,15.822 11.061 C 15.666 11.021,15.399 11.000,15.052 11.000 L 14.520 11.000 14.520 10.000 L 14.520 9.000 15.613 9.000 C 16.845 9.000,17.013 8.974,17.229 8.751 C 17.418 8.556,17.486 8.355,17.486 7.997 C 17.486 7.491,17.303 7.196,16.909 7.064 C 16.747 7.010,16.497 7.001,15.289 7.003 C 14.340 7.006,13.785 7.023,13.637 7.055 " stroke="none" fill="black" fill-rule="evenodd"></path></svg>