<svg xmlns="http://www.w3.org/2000/svg" width="24" height="24" viewBox="0 0 24 24" fill="none" stroke="currentColor" stroke-width="2" stroke-linecap="round" stroke-linejoin="round" class="icon icon-tabler icons-tabler-outline icon-tabler-melon"><path d="M17.225 2.337 C 17.140 2.368,17.012 2.436,16.940 2.487 C 16.794 2.591,12.739 6.463,12.408 6.814 C 12.167 7.070,12.080 7.247,12.080 7.480 C 12.080 7.697,12.141 7.830,12.449 8.283 C 12.874 8.909,13.023 9.418,12.986 10.120 C 12.960 10.612,12.888 10.914,12.704 11.300 C 12.345 12.057,11.677 12.625,10.840 12.886 C 10.588 12.965,10.454 12.980,10.000 12.980 C 9.545 12.980,9.413 12.965,9.161 12.886 C 8.753 12.758,8.471 12.609,8.130 12.343 C 7.562 11.898,7.254 11.854,6.834 12.157 C 6.754 12.215,5.899 13.016,4.934 13.937 C 1.959 16.776,2.007 16.725,1.969 17.121 C 1.941 17.409,2.068 17.622,2.522 18.054 C 4.229 19.677,6.586 20.733,9.000 20.957 C 11.697 21.207,14.414 20.429,16.637 18.770 C 17.246 18.316,18.316 17.246,18.770 16.637 C 21.737 12.662,21.743 7.324,18.786 3.387 C 18.066 2.429,17.680 2.169,17.225 2.337 M17.594 5.170 C 17.876 5.606,18.321 6.521,18.494 7.023 C 18.841 8.031,18.977 8.868,18.977 10.000 C 18.977 10.888,18.919 11.397,18.733 12.160 C 18.209 14.312,16.843 16.249,14.960 17.511 C 14.139 18.061,12.901 18.582,11.908 18.797 C 9.969 19.215,7.917 18.975,6.132 18.121 C 5.440 17.790,4.540 17.223,4.540 17.118 C 4.540 17.097,4.859 16.776,5.248 16.406 C 5.638 16.035,6.291 15.412,6.699 15.020 L 7.442 14.308 7.771 14.472 C 8.918 15.044,10.277 15.155,11.486 14.776 C 12.551 14.443,13.551 13.691,14.171 12.756 C 15.074 11.395,15.252 9.625,14.633 8.144 C 14.406 7.601,14.410 7.651,14.585 7.478 C 14.987 7.079,17.342 4.841,17.360 4.841 C 17.371 4.841,17.476 4.989,17.594 5.170 " stroke="none" fill="black" fill-rule="evenodd"></path></svg>