<svg xmlns="http://www.w3.org/2000/svg" width="24" height="24" viewBox="0 0 24 24" fill="none" stroke="currentColor" stroke-width="2" stroke-linecap="round" stroke-linejoin="round" class="icon icon-tabler icons-tabler-outline icon-tabler-bell-check"><path d="M11.499 2.040 C 10.389 2.242,9.473 3.037,9.139 4.090 C 9.055 4.357,9.049 4.365,8.767 4.538 C 7.862 5.096,6.970 5.956,6.363 6.856 C 5.849 7.617,5.469 8.462,5.244 9.341 C 5.042 10.129,5.029 10.285,5.001 12.280 L 4.975 14.180 4.871 14.472 C 4.642 15.112,4.157 15.720,3.591 16.077 C 3.126 16.369,2.975 16.639,3.009 17.115 C 3.041 17.565,3.255 17.854,3.635 17.959 C 3.724 17.984,4.598 18.000,5.884 18.000 L 7.988 18.000 8.014 18.332 C 8.142 20.004,9.360 21.450,10.987 21.863 C 11.892 22.092,12.322 21.892,12.475 21.168 C 12.618 20.494,12.350 20.117,11.620 19.963 C 10.766 19.782,10.126 19.088,10.022 18.230 L 9.994 18.000 10.850 18.000 C 11.825 18.000,12.023 17.964,12.229 17.751 C 12.418 17.556,12.486 17.355,12.486 16.997 C 12.486 16.491,12.303 16.196,11.909 16.064 C 11.741 16.008,11.387 16.000,9.047 16.000 L 6.376 16.000 6.527 15.690 C 6.666 15.404,6.804 15.009,6.924 14.560 C 6.955 14.441,6.981 13.739,6.999 12.480 C 7.021 10.961,7.040 10.510,7.094 10.230 C 7.391 8.673,8.325 7.245,9.620 6.370 C 9.752 6.281,10.031 6.116,10.240 6.004 C 10.790 5.709,11.000 5.441,11.000 5.033 C 11.000 4.483,11.467 4.000,12.000 4.000 C 12.536 4.000,13.000 4.483,13.000 5.040 C 13.000 5.261,13.108 5.533,13.252 5.672 C 13.322 5.740,13.551 5.889,13.760 6.002 C 14.256 6.271,14.592 6.500,14.955 6.815 C 15.936 7.665,16.658 8.929,16.906 10.230 C 16.960 10.511,16.979 10.959,17.000 12.500 C 17.029 14.492,17.039 14.610,17.211 14.942 C 17.379 15.267,17.705 15.432,18.090 15.386 C 18.758 15.307,19.134 14.926,19.062 14.403 C 19.048 14.302,19.022 13.356,19.004 12.300 C 18.971 10.289,18.957 10.125,18.756 9.341 C 18.252 7.369,16.952 5.599,15.233 4.538 C 14.951 4.365,14.945 4.357,14.861 4.090 C 14.567 3.165,13.787 2.400,12.861 2.129 C 12.500 2.023,11.832 1.980,11.499 2.040 M20.620 16.046 C 20.525 16.095,19.753 16.834,18.731 17.853 L 17.001 19.577 16.271 18.854 C 15.856 18.444,15.467 18.094,15.372 18.045 C 15.021 17.868,14.640 17.958,14.299 18.299 C 13.952 18.646,13.863 19.010,14.040 19.363 C 14.162 19.607,16.393 21.838,16.637 21.960 C 16.868 22.076,17.132 22.076,17.363 21.961 C 17.486 21.899,18.197 21.215,19.706 19.706 C 21.215 18.197,21.899 17.486,21.961 17.363 C 22.137 17.010,22.048 16.645,21.701 16.299 C 21.361 15.959,20.967 15.867,20.620 16.046 " stroke="none" fill="black" fill-rule="evenodd"></path></svg>