<svg xmlns="http://www.w3.org/2000/svg" width="24" height="24" viewBox="0 0 24 24" fill="none" stroke="currentColor" stroke-width="2" stroke-linecap="round" stroke-linejoin="round" class="icon icon-tabler icons-tabler-outline icon-tabler-wash-dry-dip"><path d="M5.358 2.061 C 3.731 2.315,2.417 3.584,2.083 5.227 C 2.001 5.627,2.000 5.723,2.000 12.000 C 2.000 18.277,2.001 18.373,2.083 18.773 C 2.311 19.892,2.985 20.851,3.956 21.436 C 4.285 21.635,4.810 21.832,5.243 21.921 C 5.622 21.998,5.805 22.000,12.000 22.000 C 18.195 22.000,18.378 21.998,18.757 21.921 C 20.117 21.643,21.193 20.755,21.704 19.488 C 21.779 19.300,21.877 18.972,21.921 18.757 C 21.998 18.378,22.000 18.195,22.000 12.000 C 22.000 5.805,21.998 5.622,21.921 5.243 C 21.628 3.806,20.637 2.680,19.245 2.204 C 18.646 1.999,18.690 2.000,11.960 2.004 C 6.959 2.007,5.631 2.018,5.358 2.061 M18.523 4.073 C 19.212 4.253,19.795 4.860,19.941 5.549 C 20.027 5.954,20.027 18.046,19.941 18.451 C 19.863 18.821,19.710 19.091,19.400 19.404 C 19.119 19.690,18.854 19.846,18.492 19.940 C 18.147 20.030,5.853 20.030,5.508 19.940 C 4.823 19.762,4.249 19.194,4.073 18.523 C 4.010 18.280,4.004 17.786,4.002 12.028 C 4.000 5.109,3.986 5.479,4.265 5.014 C 4.546 4.543,4.988 4.201,5.477 4.073 C 5.720 4.010,6.211 4.005,12.000 4.005 C 17.789 4.005,18.280 4.010,18.523 4.073 M7.614 6.057 C 7.377 6.131,7.212 6.261,7.109 6.453 L 7.020 6.620 7.009 11.914 C 7.002 15.393,7.013 17.259,7.039 17.358 C 7.144 17.747,7.434 17.961,7.896 17.991 C 8.381 18.022,8.699 17.882,8.880 17.558 L 8.980 17.380 8.980 12.000 L 8.980 6.620 8.891 6.453 C 8.842 6.362,8.746 6.247,8.678 6.199 C 8.414 6.010,7.957 5.950,7.614 6.057 M11.614 6.057 C 11.377 6.131,11.212 6.261,11.109 6.453 L 11.020 6.620 11.009 11.914 C 11.002 15.393,11.013 17.259,11.039 17.358 C 11.144 17.747,11.434 17.961,11.896 17.991 C 12.381 18.022,12.699 17.882,12.880 17.558 L 12.980 17.380 12.980 12.000 L 12.980 6.620 12.891 6.453 C 12.842 6.362,12.746 6.247,12.678 6.199 C 12.414 6.010,11.957 5.950,11.614 6.057 M15.614 6.057 C 15.377 6.131,15.212 6.261,15.109 6.453 L 15.020 6.620 15.009 11.914 C 15.002 15.393,15.013 17.259,15.039 17.358 C 15.144 17.747,15.434 17.961,15.896 17.991 C 16.381 18.022,16.699 17.882,16.880 17.558 L 16.980 17.380 16.980 12.000 L 16.980 6.620 16.891 6.453 C 16.842 6.362,16.746 6.247,16.678 6.199 C 16.414 6.010,15.957 5.950,15.614 6.057 " stroke="none" fill="black" fill-rule="evenodd"></path></svg>