<svg xmlns="http://www.w3.org/2000/svg" width="24" height="24" viewBox="0 0 24 24" fill="none" stroke="currentColor" stroke-width="2" stroke-linecap="round" stroke-linejoin="round" class="icon icon-tabler icons-tabler-outline icon-tabler-movie-off"><path d="M2.626 2.045 C 2.257 2.239,1.951 2.673,1.951 3.000 C 1.951 3.293,2.085 3.492,2.702 4.120 L 3.273 4.700 3.146 5.060 L 3.020 5.420 3.020 11.980 L 3.020 18.540 3.114 18.840 C 3.422 19.827,4.173 20.578,5.160 20.886 L 5.460 20.980 12.020 20.980 L 18.580 20.980 18.940 20.854 L 19.300 20.727 19.880 21.298 C 20.205 21.617,20.538 21.908,20.637 21.959 C 20.988 22.137,21.353 22.049,21.701 21.701 C 22.048 21.354,22.137 20.990,21.960 20.637 C 21.887 20.492,19.510 18.054,16.747 15.293 C 14.425 12.971,12.838 11.384,12.760 11.306 C 12.705 11.250,11.805 10.350,10.760 9.305 C 9.715 8.260,8.806 7.351,8.740 7.285 C 6.556 5.089,3.505 2.111,3.372 2.044 C 3.152 1.934,2.835 1.935,2.626 2.045 M7.614 3.057 C 7.377 3.132,7.212 3.261,7.109 3.453 C 7.035 3.592,7.020 3.684,7.020 4.000 C 7.020 4.331,7.033 4.403,7.120 4.558 C 7.230 4.755,7.414 4.898,7.635 4.959 C 7.727 4.985,9.095 5.000,11.390 5.000 L 15.000 5.000 15.000 8.615 C 15.000 12.617,14.993 12.503,15.255 12.753 C 15.503 12.989,15.596 13.000,17.381 13.000 L 19.000 13.000 19.000 14.610 C 19.000 15.565,19.017 16.279,19.041 16.365 C 19.148 16.750,19.437 16.962,19.896 16.991 C 20.381 17.022,20.699 16.882,20.880 16.558 L 20.980 16.380 20.980 10.920 L 20.980 5.460 20.886 5.160 C 20.581 4.182,19.832 3.428,18.861 3.121 L 18.540 3.020 13.160 3.012 C 8.811 3.006,7.748 3.014,7.614 3.057 M18.310 5.061 C 18.452 5.103,18.571 5.178,18.697 5.303 C 18.948 5.554,19.000 5.751,19.000 6.447 L 19.000 7.000 18.000 7.000 L 17.000 7.000 17.000 6.000 L 17.000 5.000 17.553 5.000 C 17.931 5.000,18.170 5.019,18.310 5.061 M5.300 6.720 L 5.578 7.000 5.289 7.000 L 5.000 7.000 5.000 6.720 C 5.000 6.566,5.005 6.440,5.011 6.440 C 5.017 6.440,5.147 6.566,5.300 6.720 M7.000 10.000 L 7.000 11.000 6.000 11.000 L 5.000 11.000 5.000 10.000 L 5.000 9.000 6.000 9.000 L 7.000 9.000 7.000 10.000 M19.000 10.000 L 19.000 11.000 18.000 11.000 L 17.000 11.000 17.000 10.000 L 17.000 9.000 18.000 9.000 L 19.000 9.000 19.000 10.000 M9.300 10.720 L 9.578 11.000 9.289 11.000 L 9.000 11.000 9.000 10.720 C 9.000 10.566,9.005 10.440,9.011 10.440 C 9.017 10.440,9.147 10.566,9.300 10.720 M7.000 14.000 L 7.000 15.000 6.000 15.000 L 5.000 15.000 5.000 14.000 L 5.000 13.000 6.000 13.000 L 7.000 13.000 7.000 14.000 M13.290 14.710 L 15.000 16.420 15.000 17.710 L 15.000 19.000 12.000 19.000 L 9.000 19.000 9.000 16.000 L 9.000 13.000 10.290 13.000 L 11.580 13.000 13.290 14.710 M7.000 18.003 L 7.000 19.007 6.350 18.993 C 5.728 18.981,5.692 18.975,5.516 18.872 C 5.415 18.813,5.284 18.700,5.225 18.623 C 5.038 18.377,5.000 18.202,5.000 17.575 L 5.000 17.000 6.000 17.000 L 7.000 17.000 7.000 18.003 M17.300 18.720 L 17.578 19.000 17.289 19.000 L 17.000 19.000 17.000 18.720 C 17.000 18.566,17.005 18.440,17.011 18.440 C 17.017 18.440,17.147 18.566,17.300 18.720 " stroke="none" fill="black" fill-rule="evenodd"></path></svg>