<svg xmlns="http://www.w3.org/2000/svg" width="24" height="24" viewBox="0 0 24 24" fill="none" stroke="currentColor" stroke-width="2" stroke-linecap="round" stroke-linejoin="round" class="icon icon-tabler icons-tabler-outline icon-tabler-arrow-forward-up-double"><path d="M10.626 5.045 C 10.257 5.239,9.951 5.673,9.951 6.000 C 9.951 6.333,10.056 6.467,11.353 7.770 L 12.577 9.000 10.207 9.000 C 7.773 9.000,7.308 9.022,6.760 9.162 C 5.370 9.517,4.158 10.500,3.526 11.785 C 3.333 12.177,3.187 12.599,3.093 13.040 C 2.992 13.511,2.992 14.489,3.093 14.960 C 3.523 16.967,4.991 18.448,7.000 18.902 C 7.377 18.987,9.091 19.032,9.345 18.964 C 9.583 18.900,9.767 18.761,9.880 18.558 C 9.967 18.402,9.980 18.332,9.979 18.000 C 9.978 17.572,9.898 17.355,9.686 17.204 C 9.459 17.043,9.356 17.026,8.380 16.998 C 7.546 16.974,7.383 16.959,7.140 16.881 C 6.174 16.573,5.415 15.813,5.125 14.861 C 5.042 14.588,5.027 14.458,5.027 14.000 C 5.027 13.542,5.042 13.412,5.125 13.139 C 5.415 12.187,6.178 11.423,7.139 11.122 L 7.460 11.022 10.020 11.009 L 12.580 10.996 11.355 12.228 C 10.549 13.038,10.099 13.521,10.040 13.637 C 9.863 13.989,9.952 14.354,10.299 14.701 C 10.646 15.048,11.011 15.137,11.363 14.960 C 11.484 14.899,12.182 14.234,13.561 12.866 C 14.673 11.763,15.634 10.826,15.696 10.784 C 15.850 10.682,16.049 10.239,16.049 10.000 C 16.049 9.745,15.851 9.321,15.676 9.201 C 15.601 9.150,14.640 8.213,13.540 7.118 C 12.232 5.817,11.482 5.099,11.372 5.044 C 11.152 4.934,10.835 4.935,10.626 5.045 M15.626 5.045 C 15.420 5.154,15.146 5.433,15.038 5.644 C 14.924 5.868,14.924 6.133,15.040 6.363 C 15.100 6.483,15.679 7.092,16.853 8.270 L 18.578 10.000 16.853 11.730 C 15.679 12.908,15.100 13.517,15.040 13.637 C 14.863 13.989,14.952 14.354,15.299 14.701 C 15.645 15.048,16.010 15.137,16.363 14.961 C 16.612 14.836,20.836 10.612,20.961 10.363 C 21.014 10.256,21.049 10.111,21.049 10.000 C 21.049 9.889,21.014 9.744,20.961 9.637 C 20.840 9.396,16.612 5.164,16.372 5.044 C 16.152 4.934,15.835 4.935,15.626 5.045 " stroke="none" fill="black" fill-rule="evenodd"></path></svg>