<svg xmlns="http://www.w3.org/2000/svg" width="24" height="24" viewBox="0 0 24 24" fill="none" stroke="currentColor" stroke-width="2" stroke-linecap="round" stroke-linejoin="round" class="icon icon-tabler icons-tabler-outline icon-tabler-tallymark-3"><path d="M7.614 4.057 C 7.377 4.131,7.212 4.261,7.109 4.453 L 7.020 4.620 7.010 11.914 C 7.003 16.725,7.013 19.259,7.039 19.358 C 7.144 19.747,7.434 19.962,7.896 19.991 C 8.381 20.022,8.699 19.882,8.880 19.558 L 8.980 19.380 8.980 12.000 L 8.980 4.620 8.891 4.453 C 8.842 4.362,8.746 4.247,8.678 4.199 C 8.414 4.010,7.957 3.950,7.614 4.057 M11.614 4.057 C 11.377 4.131,11.212 4.261,11.109 4.453 L 11.020 4.620 11.010 11.914 C 11.003 16.725,11.013 19.259,11.039 19.358 C 11.144 19.747,11.434 19.962,11.896 19.991 C 12.381 20.022,12.699 19.882,12.880 19.558 L 12.980 19.380 12.980 12.000 L 12.980 4.620 12.891 4.453 C 12.842 4.362,12.746 4.247,12.678 4.199 C 12.414 4.010,11.957 3.950,11.614 4.057 M15.614 4.057 C 15.377 4.131,15.212 4.261,15.109 4.453 L 15.020 4.620 15.010 11.914 C 15.003 16.725,15.013 19.259,15.039 19.358 C 15.144 19.747,15.434 19.962,15.896 19.991 C 16.381 20.022,16.699 19.882,16.880 19.558 L 16.980 19.380 16.980 12.000 L 16.980 4.620 16.891 4.453 C 16.842 4.362,16.746 4.247,16.678 4.199 C 16.414 4.010,15.957 3.950,15.614 4.057 " stroke="none" fill="black" fill-rule="evenodd"></path></svg>