<svg xmlns="http://www.w3.org/2000/svg" width="24" height="24" viewBox="0 0 24 24" fill="none" stroke="currentColor" stroke-width="2" stroke-linecap="round" stroke-linejoin="round" class="icon icon-tabler icons-tabler-outline icon-tabler-cash-off"><path d="M2.626 2.045 C 2.257 2.239,1.951 2.673,1.951 3.000 C 1.951 3.288,2.085 3.493,2.654 4.072 L 3.177 4.603 2.967 4.804 C 2.527 5.227,2.288 5.606,2.114 6.161 L 2.020 6.460 2.020 10.000 L 2.020 13.540 2.114 13.840 C 2.419 14.818,3.166 15.570,4.140 15.882 C 4.379 15.958,4.536 15.974,5.205 15.990 L 5.991 16.009 6.010 16.795 C 6.026 17.464,6.042 17.621,6.118 17.860 C 6.427 18.824,7.158 19.557,8.140 19.886 L 8.420 19.980 13.499 19.991 L 18.578 20.002 19.519 20.936 C 20.114 21.527,20.525 21.903,20.637 21.960 C 20.989 22.137,21.354 22.048,21.701 21.701 C 22.048 21.354,22.137 20.989,21.959 20.637 C 21.888 20.496,20.615 19.146,19.748 18.293 C 19.663 18.208,9.961 8.508,9.760 8.306 C 9.705 8.250,8.805 7.350,7.760 6.306 C 6.715 5.261,5.815 4.360,5.760 4.304 C 5.004 3.531,3.504 2.112,3.372 2.045 C 3.152 1.934,2.836 1.934,2.626 2.045 M8.614 4.057 C 8.376 4.132,8.212 4.261,8.109 4.453 C 8.035 4.592,8.020 4.684,8.020 5.000 C 8.020 5.331,8.033 5.403,8.120 5.558 C 8.230 5.755,8.414 5.898,8.635 5.959 C 8.727 5.985,9.947 6.000,11.943 6.000 C 15.532 6.000,15.382 5.988,15.697 6.303 C 15.948 6.554,16.000 6.751,16.000 7.447 L 16.000 8.000 14.406 8.000 C 12.710 8.000,12.584 8.012,12.322 8.199 C 12.100 8.357,12.020 8.568,12.020 9.000 C 12.020 9.331,12.033 9.403,12.120 9.558 C 12.230 9.755,12.414 9.898,12.635 9.959 C 12.727 9.985,13.947 10.000,15.943 10.000 C 19.532 10.000,19.382 9.988,19.697 10.303 C 20.012 10.618,20.000 10.468,20.000 14.057 C 20.000 16.053,20.015 17.273,20.041 17.365 C 20.148 17.750,20.437 17.962,20.896 17.991 C 21.381 18.022,21.699 17.882,21.880 17.558 L 21.980 17.380 21.980 13.920 L 21.980 10.460 21.886 10.160 C 21.580 9.179,20.819 8.415,19.861 8.126 C 19.585 8.043,19.433 8.027,18.775 8.010 L 18.009 7.991 17.990 7.205 C 17.974 6.536,17.958 6.379,17.882 6.140 C 17.573 5.174,16.822 4.424,15.861 4.122 L 15.540 4.021 12.160 4.012 C 9.452 4.006,8.747 4.014,8.614 4.057 M5.920 7.340 L 7.180 8.600 6.969 8.803 C 6.536 9.218,6.299 9.589,6.116 10.140 C 6.025 10.413,6.023 10.463,6.009 12.213 L 5.995 14.007 5.347 13.993 C 4.728 13.981,4.692 13.975,4.516 13.872 C 4.415 13.813,4.284 13.700,4.225 13.623 C 3.994 13.320,4.000 13.423,4.000 10.021 C 4.000 6.678,4.001 6.667,4.198 6.412 C 4.298 6.283,4.554 6.080,4.617 6.080 C 4.641 6.080,5.227 6.647,5.920 7.340 M9.975 11.395 L 11.290 12.710 11.209 12.925 C 10.958 13.599,10.973 14.478,11.247 15.133 C 11.526 15.801,12.194 16.469,12.867 16.753 C 13.518 17.027,14.401 17.042,15.075 16.791 L 15.290 16.710 15.935 17.356 L 16.580 18.001 12.640 17.991 L 8.700 17.980 8.516 17.872 C 8.415 17.813,8.284 17.700,8.225 17.623 C 7.994 17.320,8.000 17.423,8.000 14.021 C 8.000 10.678,8.001 10.667,8.198 10.412 C 8.298 10.283,8.554 10.080,8.617 10.080 C 8.641 10.080,9.252 10.672,9.975 11.395 " stroke="none" fill="black" fill-rule="evenodd"></path></svg>