<svg xmlns="http://www.w3.org/2000/svg" width="24" height="24" viewBox="0 0 24 24" fill="none" stroke="currentColor" stroke-width="2" stroke-linecap="round" stroke-linejoin="round" class="icon icon-tabler icons-tabler-outline icon-tabler-car-4wd"><path d="M6.499 2.040 C 5.363 2.246,4.461 3.048,4.114 4.160 C 4.022 4.453,4.020 4.497,4.020 6.000 C 4.020 7.503,4.022 7.547,4.114 7.840 C 4.422 8.827,5.174 9.579,6.160 9.886 C 6.594 10.021,7.406 10.021,7.840 9.886 C 9.023 9.518,9.876 8.489,9.984 7.302 L 10.011 7.000 10.506 7.000 L 11.000 7.000 11.000 12.000 L 11.000 17.000 10.506 17.000 L 10.011 17.000 9.984 16.698 C 9.877 15.518,9.018 14.478,7.861 14.125 C 7.588 14.042,7.458 14.027,7.000 14.027 C 6.542 14.027,6.412 14.042,6.139 14.125 C 5.178 14.418,4.420 15.180,4.114 16.160 C 4.022 16.453,4.020 16.497,4.020 18.000 C 4.020 19.503,4.022 19.547,4.114 19.840 C 4.422 20.827,5.174 21.579,6.160 21.886 C 6.594 22.021,7.406 22.021,7.840 21.886 C 9.023 21.518,9.876 20.489,9.984 19.302 L 10.011 19.000 12.000 19.000 L 13.989 19.000 14.016 19.302 C 14.124 20.489,14.977 21.518,16.160 21.886 C 16.412 21.964,16.547 21.979,17.000 21.979 C 17.453 21.979,17.588 21.964,17.840 21.886 C 18.826 21.579,19.578 20.827,19.886 19.840 C 19.978 19.547,19.980 19.503,19.980 18.000 C 19.980 16.497,19.978 16.453,19.886 16.160 C 19.580 15.180,18.822 14.418,17.861 14.125 C 17.588 14.042,17.458 14.027,17.000 14.027 C 16.542 14.027,16.412 14.042,16.139 14.125 C 14.982 14.478,14.123 15.518,14.016 16.698 L 13.989 17.000 13.494 17.000 L 13.000 17.000 13.000 12.000 L 13.000 7.000 13.494 7.000 L 13.989 7.000 14.016 7.302 C 14.124 8.489,14.977 9.518,16.160 9.886 C 16.594 10.021,17.406 10.021,17.840 9.886 C 18.826 9.579,19.578 8.827,19.886 7.840 C 19.978 7.547,19.980 7.503,19.980 6.000 C 19.980 4.497,19.978 4.453,19.886 4.160 C 19.580 3.180,18.822 2.418,17.861 2.125 C 17.588 2.042,17.458 2.027,17.000 2.027 C 16.542 2.027,16.412 2.042,16.139 2.125 C 14.982 2.478,14.123 3.518,14.016 4.698 L 13.989 5.000 12.000 5.000 L 10.011 5.000 9.984 4.698 C 9.877 3.517,9.007 2.464,7.861 2.129 C 7.500 2.023,6.832 1.980,6.499 2.040 M7.310 4.061 C 7.589 4.144,7.856 4.411,7.939 4.690 C 8.023 4.972,8.028 7.015,7.945 7.290 C 7.872 7.533,7.707 7.740,7.484 7.872 C 7.328 7.963,7.254 7.980,7.000 7.980 C 6.746 7.980,6.672 7.963,6.516 7.872 C 6.415 7.813,6.284 7.700,6.225 7.623 C 6.014 7.347,6.000 7.245,6.000 6.022 C 6.000 4.695,6.019 4.587,6.304 4.303 C 6.583 4.024,6.916 3.944,7.310 4.061 M17.310 4.061 C 17.589 4.144,17.856 4.411,17.939 4.690 C 18.023 4.972,18.028 7.015,17.945 7.290 C 17.872 7.533,17.707 7.740,17.484 7.872 C 17.328 7.963,17.254 7.980,17.000 7.980 C 16.746 7.980,16.672 7.963,16.516 7.872 C 16.415 7.813,16.284 7.700,16.225 7.623 C 16.014 7.347,16.000 7.245,16.000 6.022 C 16.000 4.695,16.019 4.587,16.304 4.303 C 16.583 4.024,16.916 3.944,17.310 4.061 M7.334 16.064 C 7.596 16.153,7.861 16.427,7.939 16.690 C 8.023 16.972,8.028 19.015,7.945 19.290 C 7.872 19.533,7.707 19.740,7.484 19.872 C 7.328 19.963,7.254 19.980,7.000 19.980 C 6.746 19.980,6.672 19.963,6.516 19.872 C 6.303 19.747,6.141 19.550,6.058 19.316 C 5.972 19.071,5.974 16.982,6.061 16.690 C 6.215 16.172,6.803 15.883,7.334 16.064 M17.334 16.064 C 17.596 16.153,17.861 16.427,17.939 16.690 C 18.023 16.972,18.028 19.015,17.945 19.290 C 17.872 19.533,17.707 19.740,17.484 19.872 C 17.328 19.963,17.254 19.980,17.000 19.980 C 16.746 19.980,16.672 19.963,16.516 19.872 C 16.303 19.747,16.141 19.550,16.058 19.316 C 15.972 19.071,15.974 16.982,16.061 16.690 C 16.215 16.172,16.803 15.883,17.334 16.064 " stroke="none" fill="black" fill-rule="evenodd"></path></svg>