<svg xmlns="http://www.w3.org/2000/svg" width="24" height="24" viewBox="0 0 24 24" fill="none" stroke="currentColor" stroke-width="2" stroke-linecap="round" stroke-linejoin="round" class="icon icon-tabler icons-tabler-outline icon-tabler-arrows-sort"><path d="M6.530 4.085 C 6.392 4.152,6.248 4.254,6.210 4.312 C 6.171 4.370,5.237 5.327,4.134 6.439 C 2.766 7.818,2.101 8.516,2.040 8.637 C 1.863 8.989,1.952 9.354,2.299 9.701 C 2.646 10.048,3.011 10.137,3.363 9.960 C 3.479 9.901,3.961 9.452,4.770 8.647 L 6.000 7.423 6.000 13.321 C 6.000 17.150,6.015 19.271,6.041 19.365 C 6.148 19.750,6.437 19.962,6.896 19.991 C 7.381 20.022,7.699 19.882,7.880 19.558 L 7.980 19.380 7.991 13.402 L 8.001 7.424 9.231 8.647 C 10.039 9.452,10.521 9.901,10.637 9.960 C 10.989 10.137,11.354 10.048,11.701 9.701 C 12.048 9.354,12.137 8.989,11.960 8.637 C 11.899 8.516,11.234 7.818,9.866 6.439 C 8.763 5.327,7.829 4.370,7.790 4.312 C 7.752 4.254,7.604 4.151,7.460 4.083 C 7.113 3.919,6.873 3.920,6.530 4.085 M16.614 4.057 C 16.377 4.131,16.212 4.261,16.109 4.453 L 16.020 4.620 16.009 10.598 L 15.999 16.576 14.769 15.353 C 14.001 14.588,13.477 14.098,13.372 14.045 C 13.020 13.868,12.639 13.958,12.299 14.299 C 11.952 14.646,11.863 15.011,12.040 15.363 C 12.101 15.484,12.766 16.182,14.134 17.561 C 15.237 18.673,16.174 19.634,16.216 19.696 C 16.318 19.850,16.761 20.049,17.000 20.049 C 17.239 20.049,17.682 19.850,17.784 19.696 C 17.826 19.634,18.763 18.673,19.866 17.561 C 21.234 16.182,21.899 15.484,21.960 15.363 C 22.137 15.011,22.048 14.646,21.701 14.299 C 21.361 13.958,20.980 13.868,20.628 14.045 C 20.523 14.098,19.999 14.588,19.231 15.353 L 18.001 16.576 17.991 10.598 L 17.980 4.620 17.891 4.453 C 17.842 4.362,17.746 4.247,17.678 4.199 C 17.414 4.010,16.957 3.950,16.614 4.057 " stroke="none" fill="black" fill-rule="evenodd"></path></svg>