<svg xmlns="http://www.w3.org/2000/svg" width="24" height="24" viewBox="0 0 24 24" fill="none" stroke="currentColor" stroke-width="2" stroke-linecap="round" stroke-linejoin="round" class="icon icon-tabler icons-tabler-outline icon-tabler-text-wrap-disabled"><path d="M3.614 5.057 C 3.377 5.131,3.212 5.261,3.109 5.453 C 3.035 5.592,3.020 5.684,3.020 6.000 C 3.020 6.331,3.033 6.403,3.120 6.558 C 3.230 6.755,3.414 6.898,3.635 6.959 C 3.834 7.015,14.166 7.015,14.365 6.959 C 14.586 6.898,14.770 6.755,14.880 6.558 C 14.967 6.402,14.980 6.332,14.979 6.000 C 14.978 5.567,14.898 5.355,14.678 5.199 C 14.390 4.994,14.565 5.000,8.984 5.003 C 4.830 5.005,3.746 5.016,3.614 5.057 M17.626 8.045 C 17.257 8.239,16.951 8.673,16.951 9.000 C 16.951 9.307,17.079 9.487,17.853 10.270 L 18.575 11.000 11.194 11.000 C 3.267 11.000,3.613 10.991,3.322 11.199 C 3.100 11.357,3.020 11.568,3.020 12.000 C 3.020 12.331,3.033 12.403,3.120 12.558 C 3.230 12.755,3.414 12.898,3.635 12.959 C 3.730 12.986,6.345 13.000,11.178 13.000 L 18.575 13.000 17.853 13.730 C 17.420 14.168,17.095 14.531,17.041 14.637 C 16.863 14.988,16.952 15.354,17.299 15.701 C 17.646 16.048,18.011 16.137,18.363 15.960 C 18.480 15.901,19.051 15.365,20.062 14.365 C 20.899 13.537,21.634 12.826,21.697 12.784 C 21.850 12.682,22.049 12.238,22.049 11.998 C 22.049 11.889,22.013 11.743,21.961 11.637 C 21.841 11.397,18.611 8.163,18.372 8.044 C 18.152 7.934,17.835 7.935,17.626 8.045 M3.614 17.057 C 3.377 17.131,3.212 17.261,3.109 17.453 C 3.035 17.592,3.020 17.684,3.020 18.000 C 3.020 18.331,3.033 18.403,3.120 18.558 C 3.230 18.755,3.414 18.898,3.635 18.959 C 3.834 19.015,14.166 19.015,14.365 18.959 C 14.586 18.898,14.770 18.755,14.880 18.558 C 14.967 18.402,14.980 18.332,14.979 18.000 C 14.978 17.567,14.898 17.355,14.678 17.199 C 14.390 16.994,14.565 17.000,8.984 17.003 C 4.830 17.005,3.746 17.016,3.614 17.057 " stroke="none" fill="black" fill-rule="evenodd"></path></svg>