<svg xmlns="http://www.w3.org/2000/svg" width="24" height="24" viewBox="0 0 24 24" fill="none" stroke="currentColor" stroke-width="2" stroke-linecap="round" stroke-linejoin="round" class="icon icon-tabler icons-tabler-outline icon-tabler-zodiac-cancer"><path d="M11.640 4.005 C 10.173 4.124,8.709 4.454,7.464 4.946 C 4.466 6.131,2.579 8.047,2.055 10.440 C 1.945 10.942,1.957 12.174,2.078 12.759 C 2.361 14.124,3.244 15.193,4.512 15.704 C 6.560 16.529,8.874 15.540,9.705 13.484 C 9.994 12.770,10.070 11.976,9.921 11.243 C 9.628 9.806,8.637 8.680,7.244 8.204 C 7.028 8.130,6.555 8.041,6.111 7.992 C 6.012 7.981,6.033 7.959,6.331 7.761 C 7.076 7.265,8.267 6.728,9.205 6.464 C 10.361 6.138,11.318 6.002,12.660 5.972 C 14.047 5.941,15.107 6.057,16.408 6.383 C 17.030 6.538,17.230 6.550,17.465 6.443 C 17.727 6.324,17.893 6.069,17.981 5.649 C 18.078 5.184,17.939 4.852,17.568 4.664 C 17.080 4.418,15.531 4.107,14.260 4.001 C 13.699 3.954,12.243 3.956,11.640 4.005 M17.358 8.061 C 16.230 8.237,15.143 8.974,14.569 9.953 C 13.696 11.441,13.848 13.269,14.954 14.584 C 15.629 15.386,16.624 15.893,17.721 15.994 L 18.000 16.020 17.617 16.274 C 16.372 17.099,14.695 17.687,12.860 17.941 C 12.214 18.031,10.478 18.066,9.808 18.002 C 9.093 17.935,8.403 17.817,7.663 17.636 C 6.949 17.461,6.773 17.449,6.535 17.557 C 6.273 17.676,6.107 17.931,6.019 18.349 C 5.921 18.820,6.067 19.159,6.448 19.350 C 6.858 19.554,8.340 19.864,9.480 19.983 C 10.341 20.073,12.240 20.043,13.100 19.925 C 14.802 19.692,16.136 19.295,17.540 18.602 C 20.142 17.318,21.731 15.378,22.004 13.148 C 22.062 12.676,22.020 11.745,21.918 11.236 C 21.584 9.572,20.268 8.309,18.605 8.058 C 18.144 7.989,17.816 7.990,17.358 8.061 M6.523 10.073 C 7.262 10.266,7.850 10.924,7.967 11.690 C 8.067 12.343,7.873 12.933,7.403 13.404 C 7.002 13.807,6.547 14.000,6.000 14.000 C 5.485 14.000,5.038 13.822,4.653 13.465 C 3.323 12.229,4.189 10.005,6.000 10.005 C 6.143 10.005,6.378 10.036,6.523 10.073 M18.523 10.073 C 19.262 10.266,19.850 10.924,19.967 11.690 C 20.067 12.343,19.873 12.933,19.403 13.404 C 19.002 13.807,18.547 14.000,18.000 14.000 C 17.485 14.000,17.038 13.822,16.653 13.465 C 15.323 12.229,16.189 10.005,18.000 10.005 C 18.143 10.005,18.378 10.036,18.523 10.073 " stroke="none" fill="black" fill-rule="evenodd"></path></svg>