<svg xmlns="http://www.w3.org/2000/svg" width="24" height="24" viewBox="0 0 24 24" fill="none" stroke="currentColor" stroke-width="2" stroke-linecap="round" stroke-linejoin="round" class="icon icon-tabler icons-tabler-outline icon-tabler-scuba-diving"><path d="M1.626 1.045 C 1.420 1.154,1.146 1.433,1.038 1.644 C 0.924 1.868,0.924 2.133,1.040 2.363 C 1.100 2.482,1.626 3.040,2.640 4.060 L 4.151 5.580 4.883 7.540 C 5.594 9.445,5.620 9.505,5.797 9.682 C 5.931 9.814,6.478 10.146,7.820 10.908 L 9.660 11.952 12.400 12.862 C 13.907 13.362,15.146 13.776,15.154 13.782 C 15.161 13.789,15.371 14.606,15.620 15.599 C 15.869 16.591,16.105 17.451,16.143 17.511 C 16.246 17.667,18.577 20.464,18.795 20.693 C 19.147 21.061,19.464 21.136,19.857 20.943 C 20.138 20.806,20.460 20.464,20.521 20.237 C 20.573 20.043,20.548 19.811,20.457 19.634 C 20.423 19.569,19.854 18.866,19.192 18.071 C 18.530 17.277,17.964 16.581,17.934 16.524 C 17.903 16.467,17.671 15.586,17.418 14.566 C 17.165 13.546,16.934 12.655,16.905 12.586 C 16.821 12.386,16.656 12.216,16.450 12.119 C 16.346 12.069,14.928 11.583,13.300 11.039 L 10.340 10.050 8.860 9.203 C 8.046 8.736,7.360 8.334,7.335 8.308 C 7.310 8.281,6.980 7.432,6.602 6.420 C 6.224 5.408,5.871 4.517,5.819 4.440 C 5.638 4.177,2.549 1.133,2.372 1.044 C 2.152 0.934,1.835 0.934,1.626 1.045 M10.780 6.989 C 10.562 7.028,10.511 7.050,10.378 7.167 C 10.096 7.415,9.908 7.980,9.998 8.313 C 10.056 8.527,10.242 8.740,10.476 8.857 C 10.577 8.908,11.724 9.303,13.024 9.735 C 15.511 10.561,15.632 10.591,15.931 10.466 C 16.400 10.270,16.685 9.361,16.403 8.964 C 16.204 8.685,16.083 8.635,13.588 7.807 C 11.321 7.054,10.977 6.954,10.780 6.989 M19.477 10.073 C 18.806 10.249,18.238 10.823,18.060 11.508 C 17.941 11.962,18.003 12.492,18.225 12.930 C 18.361 13.199,18.801 13.639,19.070 13.775 C 19.659 14.073,20.341 14.073,20.930 13.775 C 21.196 13.640,21.638 13.200,21.771 12.937 C 21.994 12.498,22.052 12.007,21.940 11.529 C 21.858 11.182,21.720 10.927,21.465 10.653 C 21.074 10.232,20.560 10.005,20.000 10.005 C 19.857 10.005,19.622 10.036,19.477 10.073 " stroke="none" fill="black" fill-rule="evenodd"></path></svg>