<svg xmlns="http://www.w3.org/2000/svg" width="24" height="24" viewBox="0 0 24 24" fill="none" stroke="currentColor" stroke-width="2" stroke-linecap="round" stroke-linejoin="round" class="icon icon-tabler icons-tabler-outline icon-tabler-layout-cards"><path d="M5.499 3.042 C 4.372 3.239,3.461 4.048,3.114 5.160 L 3.020 5.460 3.020 12.000 L 3.020 18.540 3.114 18.840 C 3.422 19.827,4.173 20.578,5.160 20.886 C 5.453 20.978,5.497 20.980,7.000 20.980 C 8.503 20.980,8.547 20.978,8.840 20.886 C 9.827 20.578,10.578 19.827,10.886 18.840 L 10.980 18.540 10.980 12.000 L 10.980 5.460 10.886 5.160 C 10.581 4.181,9.825 3.421,8.861 3.124 C 8.548 3.027,8.504 3.024,7.120 3.015 C 6.339 3.010,5.609 3.022,5.499 3.042 M15.499 3.042 C 14.372 3.239,13.461 4.048,13.114 5.160 L 13.020 5.460 13.020 9.000 L 13.020 12.540 13.114 12.840 C 13.422 13.827,14.173 14.578,15.160 14.886 C 15.453 14.978,15.497 14.980,17.000 14.980 C 18.503 14.980,18.547 14.978,18.840 14.886 C 19.827 14.578,20.578 13.827,20.886 12.840 L 20.980 12.540 20.980 9.000 L 20.980 5.460 20.886 5.160 C 20.581 4.181,19.825 3.421,18.861 3.124 C 18.548 3.027,18.504 3.024,17.120 3.015 C 16.339 3.010,15.609 3.022,15.499 3.042 M8.310 5.061 C 8.589 5.144,8.856 5.411,8.939 5.690 C 8.992 5.869,9.000 6.651,9.000 12.001 C 9.000 17.059,8.991 18.139,8.945 18.290 C 8.872 18.533,8.707 18.740,8.484 18.872 L 8.300 18.980 7.000 18.980 L 5.700 18.980 5.516 18.872 C 5.303 18.747,5.141 18.550,5.058 18.316 C 4.968 18.060,4.971 5.993,5.061 5.690 C 5.140 5.421,5.412 5.143,5.673 5.063 C 5.952 4.977,8.023 4.975,8.310 5.061 M18.310 5.061 C 18.589 5.144,18.856 5.411,18.939 5.690 C 19.025 5.980,19.031 12.004,18.945 12.290 C 18.872 12.533,18.707 12.740,18.484 12.872 L 18.300 12.980 17.000 12.980 L 15.700 12.980 15.516 12.872 C 15.303 12.747,15.141 12.550,15.058 12.316 C 14.969 12.063,14.971 5.991,15.061 5.690 C 15.140 5.421,15.412 5.143,15.673 5.063 C 15.952 4.977,18.023 4.975,18.310 5.061 " stroke="none" fill="black" fill-rule="evenodd"></path></svg>