<svg xmlns="http://www.w3.org/2000/svg" width="24" height="24" viewBox="0 0 24 24" fill="none" stroke="currentColor" stroke-width="2" stroke-linecap="round" stroke-linejoin="round" class="icon icon-tabler icons-tabler-outline icon-tabler-brand-dolby-digital"><path d="M2.740 5.035 C 2.421 5.120,2.198 5.324,2.111 5.612 C 2.035 5.862,2.036 18.142,2.112 18.392 C 2.192 18.656,2.407 18.868,2.673 18.945 C 2.862 19.000,3.039 19.007,3.838 18.987 C 4.784 18.963,5.133 18.923,5.740 18.765 C 7.930 18.198,9.739 16.580,10.540 14.473 C 10.856 13.640,10.977 12.955,10.977 12.000 C 10.977 11.263,10.935 10.903,10.778 10.280 C 10.095 7.588,7.838 5.540,5.060 5.094 C 4.654 5.029,2.926 4.985,2.740 5.035 M19.453 5.042 C 16.856 5.255,14.512 7.009,13.549 9.460 C 12.759 11.472,12.967 13.834,14.093 15.639 C 14.697 16.606,15.620 17.502,16.584 18.057 C 17.240 18.435,18.169 18.770,18.927 18.902 C 19.404 18.985,21.106 19.029,21.344 18.965 C 21.583 18.900,21.767 18.761,21.880 18.558 L 21.980 18.380 21.980 12.000 L 21.980 5.620 21.891 5.453 C 21.785 5.256,21.622 5.131,21.371 5.055 C 21.170 4.995,20.115 4.987,19.453 5.042 M4.512 7.043 C 5.925 7.197,7.182 7.919,8.025 9.061 C 8.755 10.051,9.087 11.255,8.964 12.470 C 8.938 12.728,8.889 13.048,8.856 13.180 C 8.409 14.933,7.062 16.322,5.340 16.803 C 5.023 16.892,4.405 17.000,4.210 17.000 L 4.080 17.000 4.080 12.000 C 4.080 9.250,4.090 7.000,4.102 7.000 C 4.113 7.000,4.298 7.019,4.512 7.043 M20.000 12.000 L 20.000 17.000 19.860 17.000 C 19.782 17.000,19.546 16.972,19.334 16.938 C 17.143 16.586,15.457 14.897,15.121 12.720 C 15.069 12.386,15.069 11.614,15.121 11.280 C 15.293 10.162,15.809 9.173,16.624 8.399 C 17.509 7.558,18.633 7.081,19.910 7.005 L 20.000 7.000 20.000 12.000 " stroke="none" fill="black" fill-rule="evenodd"></path></svg>