<svg xmlns="http://www.w3.org/2000/svg" width="24" height="24" viewBox="0 0 24 24" fill="none" stroke="currentColor" stroke-width="2" stroke-linecap="round" stroke-linejoin="round" class="icon icon-tabler icons-tabler-outline icon-tabler-meteor"><path d="M12.653 2.043 C 12.478 2.129,4.898 8.540,4.340 9.074 C 3.034 10.321,2.250 11.913,2.042 13.740 C 1.840 15.508,2.396 17.515,3.490 18.967 C 4.675 20.540,6.317 21.539,8.320 21.906 C 8.903 22.013,10.152 22.005,10.760 21.890 C 12.417 21.577,13.680 20.912,14.872 19.725 C 16.233 18.370,21.794 12.610,21.880 12.467 C 21.966 12.323,21.980 12.253,21.978 11.960 C 21.976 11.570,21.889 11.349,21.678 11.199 C 21.413 11.010,21.300 11.000,19.454 11.000 C 18.500 11.000,17.720 10.992,17.720 10.982 C 17.720 10.972,18.656 9.278,19.801 7.219 C 20.945 5.159,21.908 3.410,21.941 3.332 C 22.033 3.112,22.016 2.828,21.896 2.575 C 21.653 2.061,21.234 1.852,20.775 2.015 C 20.690 2.045,19.013 2.963,17.048 4.055 C 15.084 5.147,13.462 6.040,13.444 6.040 C 13.426 6.040,13.544 5.379,13.706 4.571 C 13.868 3.764,14.000 3.033,14.000 2.949 C 14.000 2.618,13.674 2.163,13.331 2.015 C 13.143 1.934,12.848 1.946,12.653 2.043 M18.356 5.690 C 18.330 5.740,17.581 7.091,16.692 8.692 C 15.802 10.294,15.049 11.678,15.017 11.767 C 14.945 11.972,14.944 12.205,15.014 12.371 C 15.086 12.542,15.337 12.781,15.560 12.891 C 15.733 12.977,15.794 12.981,17.177 13.000 L 18.613 13.020 15.890 15.820 C 13.354 18.428,12.916 18.849,12.418 19.166 C 11.392 19.816,9.968 20.121,8.780 19.945 C 6.909 19.666,5.424 18.600,4.588 16.936 C 4.280 16.322,4.114 15.726,4.036 14.950 C 3.886 13.471,4.445 11.856,5.491 10.742 C 5.723 10.494,11.405 5.637,11.433 5.661 C 11.440 5.668,11.344 6.182,11.219 6.806 C 10.959 8.100,10.949 8.318,11.130 8.591 C 11.348 8.921,11.941 9.087,12.340 8.929 C 12.450 8.886,13.854 8.119,15.460 7.225 C 17.066 6.331,18.385 5.600,18.391 5.600 C 18.398 5.600,18.382 5.640,18.356 5.690 M8.873 11.060 C 8.136 11.200,7.468 11.565,6.958 12.105 C 6.559 12.527,6.314 12.957,6.133 13.548 C 6.038 13.863,6.026 13.963,6.026 14.500 C 6.026 15.037,6.038 15.137,6.133 15.452 C 6.725 17.393,8.674 18.429,10.588 17.821 C 11.604 17.498,12.497 16.606,12.820 15.591 C 12.943 15.205,12.999 14.860,12.999 14.500 C 12.999 12.928,11.904 11.515,10.378 11.118 C 9.959 11.009,9.280 10.983,8.873 11.060 M10.119 13.143 C 10.417 13.279,10.727 13.592,10.865 13.896 C 10.960 14.105,10.976 14.192,10.976 14.500 C 10.976 14.808,10.960 14.895,10.865 15.104 C 10.725 15.413,10.417 15.720,10.100 15.868 C 9.893 15.965,9.810 15.980,9.500 15.980 C 9.190 15.980,9.107 15.965,8.900 15.868 C 8.583 15.720,8.275 15.413,8.135 15.104 C 8.040 14.896,8.024 14.808,8.024 14.500 C 8.023 14.191,8.039 14.106,8.134 13.900 C 8.327 13.478,8.749 13.129,9.174 13.039 C 9.441 12.982,9.870 13.030,10.119 13.143 " stroke="none" fill="black" fill-rule="evenodd"></path></svg>