<svg xmlns="http://www.w3.org/2000/svg" width="24" height="24" viewBox="0 0 24 24" fill="none" stroke="currentColor" stroke-width="2" stroke-linecap="round" stroke-linejoin="round" class="icon icon-tabler icons-tabler-outline icon-tabler-hammer"><path d="M12.105 2.449 C 11.741 2.491,11.409 2.654,11.038 2.973 C 10.541 3.401,8.266 5.725,8.124 5.950 C 7.730 6.574,7.740 7.475,8.146 8.080 C 8.227 8.201,8.677 8.688,9.145 9.161 L 9.997 10.023 6.676 13.341 C 4.849 15.167,3.241 16.800,3.103 16.971 C 2.622 17.567,2.423 18.133,2.426 18.900 C 2.429 19.797,2.704 20.460,3.335 21.091 C 3.958 21.714,4.611 21.980,5.520 21.980 C 6.208 21.980,6.695 21.843,7.221 21.501 C 7.378 21.399,8.653 20.156,10.928 17.886 L 14.397 14.426 15.315 15.329 C 16.138 16.141,16.263 16.248,16.532 16.378 C 16.955 16.581,17.352 16.635,17.777 16.547 C 18.384 16.423,18.390 16.418,20.062 14.753 C 21.079 13.741,21.630 13.163,21.721 13.012 C 22.061 12.451,22.083 11.685,21.776 11.069 C 21.693 10.901,20.894 10.081,17.686 6.868 C 15.494 4.673,13.609 2.816,13.498 2.741 C 13.112 2.483,12.651 2.387,12.105 2.449 M16.200 8.220 L 19.980 12.000 18.690 13.290 L 17.400 14.580 13.610 10.790 L 9.820 7.000 11.100 5.720 C 11.804 5.016,12.389 4.440,12.400 4.440 C 12.411 4.440,14.121 6.141,16.200 8.220 M12.200 12.220 L 12.980 13.001 9.560 16.414 C 7.301 18.669,6.089 19.851,5.990 19.896 C 5.456 20.138,4.814 19.916,4.548 19.396 C 4.405 19.115,4.392 18.741,4.516 18.460 C 4.579 18.316,5.326 17.542,7.988 14.859 C 9.854 12.980,11.389 11.441,11.400 11.441 C 11.412 11.440,11.772 11.791,12.200 12.220 " stroke="none" fill="black" fill-rule="evenodd"></path></svg>