<svg xmlns="http://www.w3.org/2000/svg" width="24" height="24" viewBox="0 0 24 24" fill="none" stroke="currentColor" stroke-width="2" stroke-linecap="round" stroke-linejoin="round" class="icon icon-tabler icons-tabler-outline icon-tabler-logic-nand"><path d="M4.614 4.057 C 4.377 4.131,4.212 4.261,4.109 4.453 C 4.022 4.617,4.020 4.650,4.008 6.310 L 3.997 8.000 2.905 8.000 C 1.744 8.000,1.570 8.022,1.322 8.199 C 1.100 8.357,1.020 8.568,1.020 9.000 C 1.020 9.331,1.033 9.403,1.120 9.558 C 1.230 9.755,1.414 9.898,1.635 9.959 C 1.716 9.982,2.270 10.000,2.890 10.000 L 4.000 10.000 4.000 12.000 L 4.000 14.000 2.906 14.000 C 1.744 14.000,1.570 14.022,1.322 14.199 C 1.100 14.357,1.020 14.568,1.020 15.000 C 1.020 15.331,1.033 15.403,1.120 15.558 C 1.230 15.755,1.414 15.898,1.635 15.959 C 1.716 15.982,2.270 16.000,2.890 16.000 L 4.000 16.000 4.000 17.610 C 4.000 18.565,4.017 19.279,4.041 19.365 C 4.102 19.586,4.245 19.770,4.442 19.880 L 4.620 19.980 6.060 19.993 C 7.960 20.010,8.796 19.945,9.920 19.695 C 10.972 19.461,12.145 18.959,12.920 18.411 C 13.483 18.013,14.318 17.163,14.679 16.620 C 15.014 16.116,15.295 15.563,15.482 15.039 C 15.588 14.745,15.624 14.682,15.676 14.705 C 15.711 14.721,15.893 14.788,16.080 14.855 C 16.395 14.967,16.461 14.976,16.980 14.978 C 17.459 14.980,17.583 14.966,17.840 14.886 C 18.646 14.635,19.318 14.068,19.688 13.330 L 19.853 13.000 21.037 13.000 C 21.706 13.000,22.283 12.982,22.365 12.959 C 22.586 12.898,22.770 12.755,22.880 12.558 C 22.967 12.402,22.980 12.332,22.979 12.000 C 22.978 11.567,22.898 11.355,22.678 11.199 C 22.427 11.020,22.261 11.000,21.020 11.000 L 19.853 11.000 19.688 10.670 C 19.509 10.313,19.246 9.982,18.911 9.695 C 18.053 8.959,16.783 8.802,15.676 9.295 C 15.625 9.318,15.588 9.255,15.482 8.961 C 14.880 7.277,13.604 5.845,11.978 5.030 C 10.887 4.482,9.561 4.150,8.040 4.042 C 7.184 3.981,4.823 3.992,4.614 4.057 M8.600 6.100 C 11.077 6.441,12.705 7.534,13.513 9.400 C 14.061 10.667,14.143 12.578,13.712 14.060 C 13.585 14.495,13.199 15.265,12.920 15.639 C 12.122 16.709,10.925 17.434,9.420 17.757 C 8.645 17.924,8.229 17.966,7.110 17.988 L 6.000 18.011 6.000 11.999 L 6.000 5.988 7.070 6.013 C 7.678 6.027,8.339 6.064,8.600 6.100 M17.310 11.061 C 17.688 11.173,18.000 11.598,18.000 12.001 C 18.000 12.331,17.784 12.696,17.484 12.872 C 17.328 12.963,17.254 12.980,17.000 12.980 C 16.746 12.980,16.672 12.963,16.516 12.872 C 15.932 12.528,15.831 11.775,16.307 11.299 C 16.582 11.024,16.918 10.944,17.310 11.061 " stroke="none" fill="black" fill-rule="evenodd"></path></svg>