<svg xmlns="http://www.w3.org/2000/svg" width="24" height="24" viewBox="0 0 24 24" fill="none" stroke="currentColor" stroke-width="2" stroke-linecap="round" stroke-linejoin="round" class="icon icon-tabler icons-tabler-outline icon-tabler-transfer-vertical"><path d="M9.614 3.057 C 9.377 3.131,9.212 3.261,9.109 3.453 L 9.020 3.620 9.000 10.664 L 8.980 17.708 6.780 15.691 C 5.570 14.581,4.508 13.631,4.420 13.580 C 4.049 13.363,3.720 13.413,3.364 13.742 C 2.869 14.201,2.816 14.657,3.207 15.102 C 3.431 15.357,9.363 20.777,9.525 20.875 C 9.628 20.937,9.768 20.976,9.931 20.989 C 10.375 21.024,10.702 20.876,10.880 20.558 L 10.980 20.380 10.980 12.000 L 10.980 3.620 10.891 3.453 C 10.842 3.362,10.746 3.247,10.678 3.199 C 10.414 3.010,9.957 2.950,9.614 3.057 M13.614 3.057 C 13.377 3.131,13.212 3.261,13.109 3.453 L 13.020 3.620 13.010 11.914 C 13.003 17.391,13.013 20.260,13.040 20.358 C 13.144 20.747,13.434 20.962,13.896 20.991 C 14.381 21.022,14.699 20.882,14.880 20.558 L 14.980 20.380 15.000 13.336 L 15.020 6.292 17.240 8.327 C 18.728 9.692,19.525 10.395,19.658 10.461 C 20.013 10.638,20.303 10.574,20.657 10.239 C 20.918 9.993,21.044 9.746,21.046 9.481 C 21.048 9.212,20.928 9.014,20.532 8.638 C 19.907 8.044,14.685 3.272,14.556 3.177 C 14.315 2.999,13.948 2.953,13.614 3.057 " stroke="none" fill="black" fill-rule="evenodd"></path></svg>