<svg xmlns="http://www.w3.org/2000/svg" width="24" height="24" viewBox="0 0 24 24" fill="none" stroke="currentColor" stroke-width="2" stroke-linecap="round" stroke-linejoin="round" class="icon icon-tabler icons-tabler-outline icon-tabler-arrow-big-up-lines"><path d="M11.703 2.445 C 11.510 2.466,11.334 2.519,11.123 2.622 C 10.830 2.765,10.710 2.880,7.314 6.275 C 4.675 8.913,3.777 9.834,3.684 10.000 C 3.503 10.322,3.428 10.613,3.425 11.000 C 3.419 11.752,3.837 12.436,4.509 12.775 C 4.926 12.986,5.060 13.000,6.586 13.000 L 7.996 13.000 8.008 14.190 C 8.020 15.374,8.020 15.381,8.120 15.558 C 8.230 15.755,8.414 15.898,8.635 15.959 C 8.832 16.014,15.168 16.014,15.365 15.959 C 15.586 15.898,15.770 15.755,15.880 15.558 C 15.979 15.381,15.980 15.374,15.993 14.190 L 16.005 13.000 17.414 13.000 C 18.940 13.000,19.074 12.986,19.491 12.775 C 20.505 12.263,20.880 11.003,20.315 10.000 C 20.222 9.835,19.321 8.910,16.686 6.275 C 13.354 2.944,13.166 2.763,12.889 2.627 C 12.628 2.499,12.486 2.463,12.100 2.426 C 12.034 2.420,11.855 2.428,11.703 2.445 M15.300 7.720 L 18.580 11.000 16.696 11.000 C 14.689 11.000,14.589 11.008,14.322 11.199 C 14.254 11.247,14.158 11.362,14.109 11.453 C 14.024 11.613,14.020 11.668,14.008 12.810 L 13.996 14.000 12.000 14.000 L 10.005 14.000 9.993 12.810 C 9.981 11.669,9.976 11.613,9.891 11.453 C 9.842 11.362,9.746 11.247,9.678 11.199 C 9.411 11.008,9.311 11.000,7.304 11.000 L 5.420 11.000 8.700 7.720 C 10.504 5.916,11.989 4.440,12.000 4.440 C 12.011 4.440,13.496 5.916,15.300 7.720 M8.614 17.057 C 8.377 17.131,8.212 17.261,8.109 17.453 C 8.035 17.592,8.020 17.684,8.020 18.000 C 8.020 18.331,8.033 18.403,8.120 18.558 C 8.230 18.755,8.414 18.898,8.635 18.959 C 8.832 19.014,15.168 19.014,15.365 18.959 C 15.586 18.898,15.770 18.755,15.880 18.558 C 15.967 18.402,15.980 18.332,15.979 18.000 C 15.978 17.567,15.898 17.355,15.678 17.199 C 15.398 16.999,15.411 17.000,11.984 17.003 C 9.472 17.005,8.744 17.017,8.614 17.057 M8.614 20.057 C 8.377 20.131,8.212 20.261,8.109 20.453 C 8.035 20.592,8.020 20.684,8.020 21.000 C 8.020 21.331,8.033 21.403,8.120 21.558 C 8.230 21.755,8.414 21.898,8.635 21.959 C 8.832 22.014,15.168 22.014,15.365 21.959 C 15.586 21.898,15.770 21.755,15.880 21.558 C 15.967 21.402,15.980 21.332,15.979 21.000 C 15.978 20.567,15.898 20.355,15.678 20.199 C 15.398 19.999,15.411 20.000,11.984 20.003 C 9.472 20.005,8.744 20.017,8.614 20.057 " stroke="none" fill="black" fill-rule="evenodd"></path></svg>