<svg xmlns="http://www.w3.org/2000/svg" width="24" height="24" viewBox="0 0 24 24" fill="none" stroke="currentColor" stroke-width="2" stroke-linecap="round" stroke-linejoin="round" class="icon icon-tabler icons-tabler-outline icon-tabler-brand-google-one"><path d="M12.340 2.062 C 12.008 2.135,11.475 2.379,11.212 2.580 C 10.903 2.816,5.809 7.800,5.616 8.055 C 5.401 8.339,5.191 8.767,5.094 9.120 C 4.994 9.483,4.994 10.357,5.094 10.720 C 5.378 11.751,6.170 12.565,7.200 12.886 C 7.451 12.965,7.584 12.980,8.020 12.979 C 8.753 12.977,9.245 12.824,9.761 12.439 L 9.980 12.276 10.002 15.908 C 10.025 19.837,10.015 19.655,10.239 20.178 C 10.501 20.789,11.068 21.373,11.714 21.698 C 12.438 22.062,13.562 22.062,14.286 21.698 C 14.956 21.361,15.520 20.767,15.783 20.121 C 16.013 19.555,16.003 19.927,15.991 11.840 L 15.980 4.420 15.886 4.140 C 15.559 3.167,14.834 2.437,13.887 2.130 C 13.491 2.002,12.764 1.970,12.340 2.062 M13.263 4.059 C 13.520 4.136,13.714 4.300,13.861 4.566 C 13.964 4.751,13.980 4.821,13.978 5.080 C 13.976 5.553,13.916 5.639,12.900 6.630 L 12.020 7.487 12.009 6.196 C 11.997 4.681,12.010 4.596,12.303 4.303 C 12.579 4.028,12.891 3.948,13.263 4.059 M9.312 10.134 C 8.552 10.874,8.366 10.999,8.020 10.999 C 7.642 10.999,7.320 10.782,7.109 10.385 C 6.984 10.150,6.986 9.691,7.112 9.440 C 7.175 9.315,7.626 8.844,8.591 7.895 L 9.980 6.530 9.992 7.995 L 10.005 9.460 9.312 10.134 M13.991 15.080 L 13.980 19.260 13.894 19.420 C 13.703 19.773,13.385 19.968,13.000 19.968 C 12.615 19.968,12.297 19.773,12.106 19.420 L 12.020 19.260 12.009 14.781 L 11.999 10.301 12.989 9.337 L 13.980 8.373 13.991 9.636 C 13.996 10.331,13.996 12.781,13.991 15.080 " stroke="none" fill="black" fill-rule="evenodd"></path></svg>