<svg xmlns="http://www.w3.org/2000/svg" width="24" height="24" viewBox="0 0 24 24" fill="none" stroke="currentColor" stroke-width="2" stroke-linecap="round" stroke-linejoin="round" class="icon icon-tabler icons-tabler-outline icon-tabler-circuit-resistor"><path d="M5.625 6.019 C 5.448 6.082,5.261 6.246,5.169 6.420 C 5.134 6.486,4.706 7.539,4.217 8.760 L 3.328 10.980 2.493 11.000 C 1.695 11.019,1.649 11.025,1.459 11.122 C 1.119 11.297,0.978 11.606,1.009 12.104 C 1.038 12.563,1.250 12.852,1.635 12.959 C 1.717 12.982,2.300 13.000,2.983 13.000 C 4.346 13.000,4.442 12.985,4.699 12.721 C 4.829 12.588,4.930 12.369,5.359 11.300 L 5.867 10.036 6.938 13.608 C 7.527 15.573,8.046 17.279,8.091 17.400 C 8.195 17.681,8.442 17.936,8.672 17.998 C 9.008 18.088,9.537 17.918,9.761 17.646 C 9.907 17.471,9.882 17.549,11.062 13.610 C 11.564 11.933,11.987 10.560,12.000 10.560 C 12.013 10.560,12.481 12.082,13.039 13.943 C 13.597 15.803,14.093 17.410,14.140 17.513 C 14.248 17.745,14.467 17.943,14.681 18.000 C 15.007 18.088,15.540 17.914,15.761 17.646 C 15.907 17.471,15.882 17.549,17.062 13.610 C 17.564 11.933,17.987 10.560,18.001 10.560 C 18.014 10.560,18.139 10.943,18.278 11.410 C 18.416 11.877,18.566 12.346,18.611 12.452 C 18.710 12.687,18.947 12.897,19.180 12.956 C 19.406 13.013,22.161 13.016,22.365 12.959 C 22.586 12.898,22.770 12.755,22.880 12.558 C 22.967 12.402,22.980 12.332,22.979 12.000 C 22.978 11.567,22.898 11.355,22.678 11.199 C 22.435 11.025,22.249 11.000,21.216 11.000 L 20.245 11.000 20.145 10.670 C 20.090 10.489,19.792 9.495,19.482 8.463 C 19.172 7.431,18.881 6.526,18.835 6.452 C 18.730 6.282,18.542 6.138,18.322 6.061 C 18.103 5.983,17.671 5.982,17.524 6.058 C 17.354 6.146,17.177 6.369,17.089 6.607 C 17.045 6.724,16.563 8.309,16.017 10.130 C 15.471 11.951,15.013 13.440,15.000 13.440 C 14.987 13.440,14.564 12.068,14.062 10.390 C 12.808 6.206,12.908 6.505,12.705 6.303 C 12.603 6.201,12.457 6.106,12.340 6.066 C 12.100 5.984,11.675 5.980,11.524 6.058 C 11.354 6.146,11.177 6.369,11.089 6.607 C 11.045 6.724,10.563 8.309,10.017 10.130 C 9.471 11.951,9.014 13.440,9.000 13.440 C 8.987 13.440,8.513 11.897,7.947 10.010 C 7.270 7.757,6.883 6.529,6.818 6.430 C 6.693 6.241,6.464 6.096,6.172 6.019 C 5.895 5.948,5.825 5.947,5.625 6.019 " stroke="none" fill="black" fill-rule="evenodd"></path></svg>