<svg xmlns="http://www.w3.org/2000/svg" width="24" height="24" viewBox="0 0 24 24" fill="none" stroke="currentColor" stroke-width="2" stroke-linecap="round" stroke-linejoin="round" class="icon icon-tabler icons-tabler-outline icon-tabler-calendar-question"><path d="M7.614 2.057 C 7.377 2.131,7.212 2.261,7.109 2.453 C 7.029 2.603,7.019 2.689,7.007 3.305 L 6.994 3.991 6.227 4.010 C 5.567 4.027,5.415 4.043,5.139 4.126 C 4.181 4.415,3.420 5.179,3.114 6.160 L 3.020 6.460 3.020 13.000 L 3.020 19.540 3.114 19.840 C 3.418 20.816,4.149 21.554,5.140 21.886 L 5.420 21.980 10.312 21.991 C 13.560 21.998,15.255 21.988,15.356 21.961 C 15.584 21.900,15.768 21.758,15.880 21.558 C 15.967 21.402,15.980 21.332,15.979 21.000 C 15.977 20.469,15.852 20.247,15.455 20.071 C 15.365 20.031,14.304 20.016,10.520 20.000 L 5.700 19.980 5.516 19.872 C 5.415 19.813,5.284 19.700,5.225 19.623 C 4.992 19.317,5.000 19.464,5.000 15.575 L 5.000 12.001 12.690 11.990 L 20.380 11.980 20.540 11.894 C 20.761 11.775,20.862 11.654,20.939 11.418 C 20.997 11.238,21.003 10.953,20.991 8.818 C 20.978 6.432,20.978 6.419,20.885 6.140 C 20.559 5.159,19.808 4.412,18.861 4.126 C 18.585 4.043,18.433 4.027,17.774 4.010 L 17.008 3.991 16.993 3.305 C 16.975 2.524,16.927 2.364,16.649 2.182 C 16.199 1.887,15.426 1.979,15.170 2.358 C 15.029 2.568,15.000 2.739,15.000 3.390 L 15.000 4.000 12.004 4.000 L 9.008 4.000 8.993 3.310 C 8.976 2.541,8.930 2.378,8.678 2.199 C 8.414 2.010,7.957 1.950,7.614 2.057 M7.000 6.610 C 7.000 6.946,7.019 7.285,7.041 7.365 C 7.148 7.750,7.437 7.962,7.896 7.991 C 8.381 8.022,8.699 7.882,8.880 7.558 C 8.974 7.391,8.981 7.338,8.994 6.690 L 9.008 6.000 12.004 6.000 L 15.000 6.000 15.000 6.610 C 15.000 6.946,15.019 7.285,15.041 7.365 C 15.148 7.750,15.437 7.962,15.896 7.991 C 16.381 8.022,16.699 7.882,16.880 7.558 C 16.974 7.391,16.981 7.338,16.994 6.690 L 17.008 6.000 17.557 6.000 C 18.249 6.000,18.446 6.052,18.697 6.303 C 18.993 6.599,19.000 6.650,19.000 8.447 L 19.000 10.000 12.000 10.000 L 5.000 10.000 5.000 8.447 C 5.000 6.649,5.007 6.599,5.304 6.303 C 5.554 6.052,5.727 6.006,6.430 6.003 L 7.000 6.000 7.000 6.610 M18.440 14.058 C 18.297 14.089,18.102 14.142,18.008 14.176 C 17.203 14.466,16.442 15.217,16.440 15.722 C 16.439 16.052,16.769 16.475,17.174 16.663 C 17.548 16.838,17.807 16.775,18.193 16.419 C 18.501 16.134,18.650 16.048,18.893 16.015 C 19.121 15.984,19.458 16.082,19.640 16.234 C 19.988 16.522,20.086 17.066,19.863 17.470 C 19.668 17.823,19.453 17.951,18.970 18.001 C 18.245 18.076,17.960 18.406,18.012 19.110 C 18.069 19.867,18.595 20.142,19.591 19.936 C 20.218 19.807,20.691 19.543,21.146 19.069 C 21.488 18.713,21.648 18.463,21.797 18.055 C 22.409 16.374,21.489 14.571,19.780 14.102 C 19.448 14.010,18.765 13.988,18.440 14.058 M18.614 21.057 C 18.221 21.180,18.039 21.435,18.009 21.906 C 17.962 22.621,18.306 23.000,19.000 23.000 C 19.698 23.000,20.043 22.616,19.989 21.900 C 19.963 21.563,19.859 21.327,19.678 21.199 C 19.414 21.010,18.957 20.950,18.614 21.057 " stroke="none" fill="black" fill-rule="evenodd"></path></svg>