<svg xmlns="http://www.w3.org/2000/svg" width="24" height="24" viewBox="0 0 24 24" fill="none" stroke="currentColor" stroke-width="2" stroke-linecap="round" stroke-linejoin="round" class="icon icon-tabler icons-tabler-outline icon-tabler-scale-off"><path d="M2.626 2.045 C 2.257 2.239,1.951 2.673,1.951 3.000 C 1.951 3.337,2.052 3.462,3.454 4.871 L 4.778 6.201 3.399 8.962 L 2.020 11.722 2.007 12.031 C 1.990 12.414,2.115 13.056,2.289 13.479 C 2.714 14.516,3.490 15.292,4.512 15.704 C 6.560 16.529,8.874 15.540,9.705 13.484 C 9.780 13.299,9.889 12.914,9.947 12.629 C 10.045 12.148,10.049 12.090,10.001 11.845 C 9.952 11.592,9.880 11.420,9.733 11.200 C 9.696 11.145,9.966 11.397,10.333 11.760 L 11.000 12.419 11.000 15.710 L 11.000 19.000 8.906 19.000 C 6.674 19.000,6.592 19.006,6.322 19.199 C 6.100 19.357,6.020 19.568,6.020 20.000 C 6.020 20.331,6.033 20.403,6.120 20.558 C 6.230 20.755,6.414 20.898,6.635 20.959 C 6.834 21.015,17.166 21.015,17.365 20.959 C 17.586 20.898,17.770 20.755,17.880 20.558 C 17.967 20.402,17.980 20.332,17.979 20.000 C 17.978 19.567,17.898 19.355,17.678 19.199 C 17.408 19.006,17.326 19.000,15.094 19.000 L 13.000 19.000 13.000 16.710 L 13.000 14.421 16.730 18.147 C 19.380 20.794,20.511 21.898,20.637 21.961 C 20.990 22.137,21.355 22.048,21.701 21.701 C 22.048 21.355,22.137 20.990,21.961 20.637 C 21.887 20.490,17.867 16.413,12.747 11.293 C 10.287 8.833,3.632 2.222,3.560 2.167 C 3.263 1.941,2.910 1.895,2.626 2.045 M11.614 2.057 C 11.377 2.131,11.212 2.261,11.109 2.453 C 11.027 2.606,11.019 2.684,11.007 3.390 C 11.000 3.814,10.982 4.160,10.967 4.160 C 10.952 4.160,10.521 4.232,10.008 4.319 C 8.953 4.499,8.771 4.565,8.580 4.836 C 8.468 4.995,8.460 5.031,8.462 5.354 C 8.464 5.626,8.484 5.745,8.557 5.910 C 8.707 6.249,8.989 6.440,9.340 6.439 C 9.406 6.439,9.775 6.385,10.160 6.320 C 10.545 6.255,10.892 6.201,10.930 6.200 C 10.995 6.200,11.000 6.275,11.000 7.210 C 11.000 7.765,11.019 8.285,11.041 8.365 C 11.148 8.750,11.437 8.962,11.896 8.991 C 12.381 9.022,12.699 8.882,12.880 8.558 C 12.979 8.382,12.980 8.367,12.993 7.290 C 13.005 6.301,13.012 6.200,13.073 6.201 C 13.177 6.202,16.446 6.753,16.466 6.773 C 16.476 6.783,15.996 7.769,15.400 8.965 C 14.265 11.244,14.228 11.337,14.316 11.666 C 14.404 11.993,14.902 12.343,15.341 12.389 C 15.605 12.416,15.863 12.304,16.034 12.087 C 16.098 12.006,16.562 11.117,17.065 10.110 C 17.568 9.103,17.989 8.280,18.000 8.280 C 18.011 8.280,18.460 9.159,18.997 10.233 C 19.967 12.176,19.973 12.188,19.949 12.389 C 19.897 12.822,19.507 13.406,19.090 13.674 C 18.985 13.741,18.749 13.853,18.564 13.923 C 18.161 14.077,17.959 14.257,17.882 14.533 C 17.752 14.996,18.072 15.712,18.467 15.842 C 18.972 16.009,20.012 15.589,20.723 14.931 C 20.997 14.677,21.327 14.249,21.531 13.880 C 21.825 13.351,22.027 12.518,21.993 11.977 C 21.977 11.725,21.917 11.596,20.491 8.727 C 19.674 7.084,18.975 5.654,18.939 5.548 C 18.888 5.401,18.824 5.320,18.666 5.201 C 18.408 5.006,18.287 4.960,18.036 4.960 C 17.927 4.960,16.759 4.780,15.440 4.560 C 14.121 4.340,13.035 4.160,13.025 4.160 C 13.015 4.160,13.001 3.814,12.993 3.390 C 12.980 2.689,12.971 2.605,12.890 2.453 C 12.842 2.362,12.746 2.247,12.678 2.199 C 12.414 2.010,11.957 1.950,11.614 2.057 M7.004 10.250 L 7.988 12.220 7.937 12.470 C 7.865 12.817,7.705 13.095,7.400 13.404 C 7.004 13.806,6.548 14.000,6.000 14.000 C 5.485 14.000,5.038 13.822,4.653 13.465 C 4.361 13.194,4.163 12.868,4.073 12.511 L 4.002 12.235 4.991 10.258 C 5.535 9.170,5.989 8.280,6.000 8.280 C 6.011 8.280,6.463 9.166,7.004 10.250 " stroke="none" fill="black" fill-rule="evenodd"></path></svg>