<svg xmlns="http://www.w3.org/2000/svg" width="24" height="24" viewBox="0 0 24 24" fill="none" stroke="currentColor" stroke-width="2" stroke-linecap="round" stroke-linejoin="round" class="icon icon-tabler icons-tabler-outline icon-tabler-ticket"><path d="M4.499 4.043 C 3.390 4.231,2.482 5.029,2.115 6.140 C 2.025 6.414,2.023 6.461,2.009 8.307 C 2.000 9.553,2.009 10.247,2.037 10.351 C 2.146 10.754,2.410 10.945,2.933 10.999 C 3.350 11.042,3.509 11.108,3.717 11.321 C 3.880 11.490,4.000 11.777,4.000 12.001 C 4.000 12.176,3.897 12.462,3.779 12.618 C 3.599 12.853,3.377 12.959,2.976 13.000 C 2.417 13.058,2.146 13.245,2.037 13.649 C 2.009 13.753,2.000 14.447,2.009 15.693 C 2.023 17.539,2.025 17.586,2.115 17.860 C 2.441 18.846,3.184 19.581,4.160 19.886 L 4.460 19.980 12.000 19.980 L 19.540 19.980 19.840 19.886 C 20.240 19.762,20.609 19.563,20.891 19.321 C 21.391 18.893,21.702 18.430,21.886 17.840 C 21.979 17.543,21.980 17.523,21.980 15.580 C 21.980 13.630,21.980 13.619,21.891 13.453 C 21.736 13.163,21.520 13.052,21.007 12.999 C 20.626 12.959,20.398 12.849,20.225 12.623 C 19.914 12.215,19.938 11.677,20.283 11.321 C 20.490 11.108,20.650 11.042,21.062 11.000 C 21.535 10.951,21.736 10.837,21.905 10.520 C 21.975 10.389,21.980 10.258,21.980 8.420 C 21.980 6.477,21.979 6.457,21.886 6.160 C 21.581 5.182,20.832 4.428,19.861 4.121 L 19.540 4.020 12.120 4.014 C 8.039 4.011,4.609 4.024,4.499 4.043 M14.000 6.610 C 14.000 6.946,14.019 7.285,14.041 7.365 C 14.148 7.750,14.437 7.962,14.896 7.991 C 15.381 8.022,15.699 7.882,15.880 7.558 C 15.974 7.391,15.981 7.338,15.994 6.690 L 16.008 6.000 17.557 6.000 C 19.350 6.000,19.401 6.007,19.697 6.303 C 19.981 6.587,20.000 6.695,20.000 8.020 L 20.000 9.145 19.670 9.313 C 18.922 9.693,18.365 10.355,18.114 11.160 C 17.979 11.594,17.979 12.406,18.114 12.840 C 18.365 13.645,18.931 14.318,19.670 14.688 L 20.000 14.853 20.000 15.980 C 20.000 17.208,19.980 17.354,19.779 17.618 C 19.718 17.698,19.585 17.813,19.484 17.872 L 19.300 17.980 17.654 17.992 L 16.008 18.003 15.993 17.312 C 15.975 16.523,15.927 16.364,15.649 16.182 C 15.199 15.887,14.426 15.979,14.170 16.358 C 14.029 16.568,14.000 16.739,14.000 17.391 L 14.000 18.001 9.350 17.991 L 4.700 17.980 4.516 17.872 C 4.415 17.813,4.284 17.700,4.225 17.623 C 4.014 17.346,4.000 17.247,4.000 16.002 L 4.000 14.853 4.330 14.688 C 5.069 14.318,5.635 13.645,5.886 12.840 C 6.021 12.406,6.021 11.594,5.886 11.160 C 5.635 10.355,5.078 9.693,4.330 9.313 L 4.000 9.145 4.000 8.020 C 4.000 6.695,4.019 6.587,4.304 6.303 C 4.619 5.987,4.296 6.006,9.430 6.003 L 14.000 6.000 14.000 6.610 M14.614 10.057 C 14.377 10.131,14.212 10.261,14.109 10.453 C 14.023 10.614,14.020 10.665,14.008 11.908 C 14.000 12.720,14.011 13.254,14.038 13.352 C 14.144 13.747,14.432 13.961,14.896 13.991 C 15.381 14.022,15.699 13.882,15.880 13.558 L 15.980 13.380 15.980 12.000 C 15.980 10.650,15.978 10.616,15.891 10.453 C 15.842 10.362,15.746 10.247,15.678 10.199 C 15.414 10.010,14.957 9.950,14.614 10.057 " stroke="none" fill="black" fill-rule="evenodd"></path></svg>