<svg xmlns="http://www.w3.org/2000/svg" width="24" height="24" viewBox="0 0 24 24" fill="none" stroke="currentColor" stroke-width="2" stroke-linecap="round" stroke-linejoin="round" class="icon icon-tabler icons-tabler-outline icon-tabler-sun"><path d="M11.614 2.057 C 11.377 2.131,11.212 2.261,11.109 2.453 C 11.027 2.606,11.019 2.684,11.007 3.405 C 10.999 3.880,11.011 4.252,11.037 4.349 C 11.144 4.748,11.430 4.961,11.896 4.991 C 12.381 5.022,12.699 4.882,12.880 4.558 C 12.978 4.383,12.980 4.364,12.980 3.500 C 12.980 2.667,12.975 2.611,12.891 2.453 C 12.842 2.362,12.746 2.247,12.678 2.199 C 12.414 2.010,11.957 1.950,11.614 2.057 M5.226 4.645 C 4.857 4.839,4.551 5.273,4.551 5.600 C 4.551 5.897,4.682 6.093,5.274 6.684 C 5.882 7.289,6.046 7.388,6.384 7.350 C 6.795 7.303,7.311 6.778,7.350 6.365 C 7.381 6.045,7.266 5.859,6.664 5.255 C 6.376 4.966,6.064 4.691,5.972 4.645 C 5.752 4.534,5.435 4.534,5.226 4.645 M18.020 4.647 C 17.782 4.770,16.822 5.744,16.723 5.961 C 16.558 6.325,16.651 6.662,17.017 7.018 C 17.400 7.393,17.766 7.453,18.152 7.205 C 18.417 7.035,19.249 6.179,19.359 5.961 C 19.537 5.612,19.448 5.246,19.101 4.899 C 18.761 4.559,18.366 4.467,18.020 4.647 M11.400 7.044 C 9.761 7.229,8.261 8.290,7.526 9.785 C 7.158 10.533,7.020 11.136,7.020 12.000 C 7.020 12.670,7.078 13.044,7.268 13.600 C 7.846 15.291,9.253 16.525,11.040 16.907 C 11.511 17.008,12.489 17.008,12.960 16.907 C 14.488 16.580,15.748 15.630,16.433 14.288 C 16.838 13.494,16.980 12.899,16.980 12.000 C 16.980 11.101,16.838 10.506,16.433 9.713 C 15.794 8.461,14.604 7.510,13.240 7.162 C 12.669 7.016,12.019 6.974,11.400 7.044 M12.861 9.129 C 13.804 9.405,14.584 10.183,14.875 11.139 C 14.958 11.412,14.973 11.542,14.973 12.000 C 14.973 12.458,14.958 12.588,14.875 12.861 C 14.582 13.822,13.819 14.581,12.840 14.886 C 12.406 15.021,11.594 15.021,11.160 14.886 C 10.181 14.581,9.418 13.822,9.125 12.861 C 9.042 12.588,9.027 12.458,9.027 12.000 C 9.027 11.542,9.042 11.412,9.125 11.139 C 9.456 10.054,10.371 9.245,11.499 9.040 C 11.832 8.980,12.500 9.023,12.861 9.129 M2.614 11.057 C 2.377 11.131,2.212 11.261,2.109 11.453 C 2.035 11.592,2.020 11.684,2.020 12.000 C 2.020 12.331,2.033 12.403,2.120 12.558 C 2.230 12.755,2.414 12.898,2.635 12.959 C 2.823 13.012,4.177 13.012,4.365 12.959 C 4.586 12.898,4.770 12.755,4.880 12.558 C 4.967 12.402,4.980 12.332,4.979 12.000 C 4.978 11.687,4.962 11.591,4.890 11.453 C 4.786 11.256,4.623 11.131,4.371 11.055 C 4.126 10.982,2.851 10.983,2.614 11.057 M19.614 11.057 C 19.377 11.131,19.212 11.261,19.109 11.453 C 19.035 11.592,19.020 11.684,19.020 12.000 C 19.020 12.331,19.033 12.403,19.120 12.558 C 19.230 12.755,19.414 12.898,19.635 12.959 C 19.823 13.012,21.177 13.012,21.365 12.959 C 21.586 12.898,21.770 12.755,21.880 12.558 C 21.967 12.402,21.980 12.332,21.979 12.000 C 21.978 11.687,21.962 11.591,21.890 11.453 C 21.786 11.256,21.623 11.131,21.371 11.055 C 21.126 10.982,19.851 10.983,19.614 11.057 M6.060 16.687 C 5.994 16.712,5.868 16.781,5.780 16.842 C 5.531 17.012,4.740 17.843,4.640 18.039 C 4.463 18.388,4.552 18.754,4.899 19.101 C 5.246 19.448,5.612 19.537,5.961 19.359 C 6.179 19.248,7.035 18.417,7.206 18.150 C 7.455 17.763,7.387 17.383,7.002 16.999 C 6.705 16.703,6.340 16.582,6.060 16.687 M17.460 16.687 C 17.270 16.758,17.019 16.945,16.883 17.116 C 16.629 17.437,16.579 17.722,16.723 18.039 C 16.827 18.268,17.788 19.234,18.037 19.360 C 18.389 19.537,18.754 19.448,19.101 19.101 C 19.448 18.754,19.537 18.389,19.360 18.037 C 19.244 17.808,18.273 16.838,18.062 16.741 C 17.864 16.650,17.617 16.628,17.460 16.687 M11.614 19.057 C 11.377 19.131,11.212 19.261,11.109 19.453 C 11.027 19.606,11.019 19.684,11.007 20.405 C 10.999 20.880,11.011 21.252,11.037 21.349 C 11.144 21.748,11.430 21.961,11.896 21.991 C 12.381 22.022,12.699 21.882,12.880 21.558 C 12.978 21.383,12.980 21.364,12.980 20.500 C 12.980 19.667,12.975 19.611,12.891 19.453 C 12.842 19.362,12.746 19.247,12.678 19.199 C 12.414 19.010,11.957 18.950,11.614 19.057 " stroke="none" fill="black" fill-rule="evenodd"></path></svg>