<svg xmlns="http://www.w3.org/2000/svg" width="24" height="24" viewBox="0 0 24 24" fill="none" stroke="currentColor" stroke-width="2" stroke-linecap="round" stroke-linejoin="round" class="icon icon-tabler icons-tabler-outline icon-tabler-run"><path d="M12.477 2.073 C 11.806 2.249,11.238 2.823,11.060 3.508 C 10.941 3.962,11.003 4.492,11.225 4.930 C 11.361 5.199,11.801 5.639,12.070 5.775 C 12.659 6.073,13.341 6.073,13.930 5.775 C 14.196 5.640,14.638 5.200,14.771 4.937 C 14.994 4.498,15.052 4.007,14.940 3.529 C 14.858 3.182,14.720 2.927,14.465 2.653 C 14.074 2.232,13.560 2.005,13.000 2.005 C 12.857 2.005,12.622 2.036,12.477 2.073 M11.520 7.058 C 11.421 7.089,10.287 7.324,9.000 7.581 C 6.474 8.084,6.358 8.118,6.172 8.395 C 6.122 8.470,6.063 8.596,6.041 8.675 C 5.987 8.869,5.987 12.171,6.041 12.365 C 6.148 12.750,6.437 12.962,6.896 12.991 C 7.381 13.022,7.699 12.882,7.880 12.558 L 7.980 12.380 7.992 11.099 L 8.005 9.818 9.367 9.546 C 10.115 9.397,10.737 9.284,10.748 9.295 C 10.759 9.306,10.595 10.350,10.384 11.616 C 10.173 12.882,10.000 13.979,10.000 14.053 C 10.000 14.230,10.069 14.430,10.182 14.583 C 10.232 14.650,11.111 15.334,12.136 16.102 L 14.000 17.499 14.000 19.360 C 14.000 20.483,14.016 21.277,14.041 21.365 C 14.148 21.750,14.437 21.962,14.896 21.991 C 15.381 22.022,15.699 21.882,15.880 21.558 L 15.980 21.380 15.990 19.080 L 16.000 16.780 15.890 16.560 C 15.784 16.349,15.700 16.280,13.940 14.955 C 12.581 13.933,12.102 13.551,12.106 13.495 C 12.118 13.356,12.653 10.140,12.667 10.123 C 12.675 10.113,13.073 10.495,13.552 10.970 C 14.188 11.602,14.471 11.856,14.602 11.912 C 14.902 12.040,17.809 12.992,17.985 13.020 C 18.471 13.096,18.876 12.728,19.000 12.097 C 19.088 11.647,18.907 11.319,18.460 11.119 C 18.328 11.059,17.616 10.810,16.879 10.565 L 15.538 10.119 14.219 8.788 C 13.493 8.056,12.871 7.413,12.835 7.358 C 12.799 7.303,12.673 7.206,12.555 7.141 C 12.378 7.045,12.285 7.023,12.020 7.013 C 11.823 7.005,11.631 7.023,11.520 7.058 M9.260 15.583 C 9.042 15.731,8.990 15.804,8.702 16.364 L 8.443 16.869 6.271 16.432 C 3.845 15.944,3.710 15.930,3.410 16.129 C 3.171 16.287,3.030 16.599,3.009 17.016 C 2.995 17.300,3.005 17.362,3.090 17.520 C 3.282 17.878,3.248 17.868,6.227 18.465 C 7.695 18.759,8.974 19.000,9.069 19.000 C 9.289 19.000,9.503 18.911,9.675 18.748 C 9.844 18.587,10.744 16.796,10.781 16.546 C 10.840 16.152,10.647 15.849,10.192 15.621 C 9.823 15.437,9.495 15.423,9.260 15.583 " stroke="none" fill="black" fill-rule="evenodd"></path></svg>