<svg xmlns="http://www.w3.org/2000/svg" width="24" height="24" viewBox="0 0 24 24" fill="none" stroke="currentColor" stroke-width="2" stroke-linecap="round" stroke-linejoin="round" class="icon icon-tabler icons-tabler-outline icon-tabler-view-360"><path d="M11.080 2.045 C 9.507 2.184,7.883 2.751,6.540 3.630 C 5.905 4.045,5.499 4.378,4.919 4.958 C 2.953 6.926,1.919 9.544,2.013 12.320 C 2.084 14.439,2.752 16.328,4.033 18.040 C 4.430 18.570,5.305 19.464,5.800 19.847 C 7.242 20.961,8.787 21.624,10.600 21.907 C 11.247 22.008,12.753 22.008,13.400 21.907 C 15.638 21.557,17.504 20.620,19.062 19.062 C 20.620 17.504,21.557 15.638,21.907 13.400 C 22.008 12.753,22.008 11.247,21.907 10.600 C 21.624 8.786,20.959 7.238,19.847 5.800 C 19.510 5.365,18.639 4.494,18.200 4.154 C 16.133 2.555,13.646 1.818,11.080 2.045 M12.438 4.128 C 12.538 4.176,12.717 4.307,12.835 4.418 C 13.372 4.923,13.785 5.636,14.188 6.756 L 14.323 7.131 14.091 7.107 C 13.276 7.019,11.958 6.988,11.070 7.034 C 10.559 7.060,10.037 7.093,9.910 7.107 L 9.681 7.131 9.776 6.856 C 10.131 5.823,10.529 5.089,11.020 4.565 C 11.525 4.025,11.951 3.894,12.438 4.128 M8.235 5.290 C 8.022 5.783,7.782 6.478,7.610 7.100 L 7.499 7.499 7.100 7.610 C 6.477 7.782,5.879 7.990,5.335 8.221 L 4.836 8.434 5.004 8.127 C 5.570 7.093,6.508 6.062,7.492 5.392 C 7.681 5.263,8.395 4.841,8.425 4.840 C 8.428 4.840,8.342 5.043,8.235 5.290 M16.467 5.365 C 17.478 6.046,18.419 7.073,18.996 8.127 L 19.164 8.434 18.665 8.221 C 18.121 7.990,17.523 7.782,16.900 7.610 L 16.501 7.499 16.390 7.100 C 16.218 6.477,15.978 5.782,15.764 5.289 L 15.569 4.838 15.875 5.005 C 16.043 5.097,16.309 5.259,16.467 5.365 M13.100 9.041 C 13.688 9.078,14.761 9.188,14.787 9.213 C 14.820 9.247,14.927 10.385,14.968 11.146 C 15.004 11.829,15.004 12.230,14.968 12.886 C 14.927 13.621,14.819 14.754,14.787 14.787 C 14.762 14.811,13.775 14.923,13.260 14.960 C 12.539 15.011,11.406 15.011,10.720 14.960 C 10.213 14.922,9.236 14.810,9.213 14.787 C 9.180 14.753,9.072 13.615,9.032 12.870 C 8.996 12.202,8.996 11.798,9.032 11.130 C 9.072 10.381,9.180 9.247,9.214 9.213 C 9.236 9.191,10.352 9.072,10.818 9.043 C 11.544 8.996,12.386 8.996,13.100 9.041 M7.080 10.125 C 6.976 11.141,6.989 13.191,7.106 14.129 L 7.130 14.318 6.795 14.203 C 5.736 13.839,4.955 13.395,4.457 12.873 C 3.886 12.275,3.873 11.744,4.418 11.165 C 4.920 10.631,5.635 10.216,6.740 9.818 C 6.938 9.746,7.105 9.693,7.111 9.698 C 7.117 9.704,7.103 9.896,7.080 10.125 M17.923 10.075 C 18.570 10.346,19.203 10.762,19.582 11.165 C 20.127 11.744,20.114 12.275,19.543 12.873 C 19.045 13.394,18.264 13.839,17.206 14.203 L 16.872 14.317 16.897 14.089 C 17.033 12.821,17.033 11.177,16.897 9.909 L 16.872 9.678 17.246 9.813 C 17.452 9.887,17.757 10.005,17.923 10.075 M6.220 16.119 C 6.484 16.208,6.880 16.329,7.100 16.390 L 7.499 16.501 7.610 16.900 C 7.782 17.521,8.022 18.217,8.234 18.708 L 8.428 19.155 8.224 19.053 C 8.112 18.996,7.867 18.851,7.680 18.730 C 6.567 18.008,5.618 16.994,5.005 15.875 L 4.838 15.569 5.289 15.764 C 5.537 15.872,5.956 16.031,6.220 16.119 M18.998 15.870 C 18.382 16.995,17.434 18.007,16.320 18.730 C 16.133 18.851,15.888 18.996,15.776 19.053 L 15.572 19.155 15.766 18.708 C 15.978 18.217,16.218 17.521,16.390 16.900 L 16.501 16.501 16.900 16.390 C 17.537 16.214,18.225 15.975,18.700 15.764 C 18.942 15.657,19.146 15.567,19.154 15.565 C 19.161 15.562,19.091 15.700,18.998 15.870 M10.680 16.961 C 11.648 17.031,13.093 17.004,14.091 16.897 L 14.322 16.872 14.187 17.246 C 13.776 18.387,13.365 19.090,12.805 19.609 C 12.555 19.841,12.227 20.000,12.000 20.000 C 11.773 20.000,11.445 19.841,11.195 19.609 C 10.635 19.090,10.224 18.387,9.813 17.246 L 9.678 16.872 9.909 16.897 C 10.036 16.910,10.383 16.939,10.680 16.961 " stroke="none" fill="black" fill-rule="evenodd"></path></svg>