<svg xmlns="http://www.w3.org/2000/svg" width="24" height="24" viewBox="0 0 24 24" fill="none" stroke="currentColor" stroke-width="2" stroke-linecap="round" stroke-linejoin="round" class="icon icon-tabler icons-tabler-outline icon-tabler-square-letter-w"><path d="M4.499 2.043 C 3.380 2.232,2.461 3.048,2.114 4.160 L 2.020 4.460 2.020 12.000 L 2.020 19.540 2.114 19.840 C 2.422 20.827,3.173 21.578,4.160 21.886 L 4.460 21.980 12.000 21.980 L 19.540 21.980 19.840 21.886 C 20.827 21.578,21.578 20.827,21.886 19.840 L 21.980 19.540 21.980 12.000 L 21.980 4.460 21.886 4.160 C 21.581 3.182,20.832 2.428,19.861 2.121 L 19.540 2.020 12.120 2.014 C 8.039 2.011,4.609 2.024,4.499 2.043 M19.310 4.061 C 19.589 4.144,19.856 4.411,19.939 4.690 C 19.993 4.870,20.000 5.755,20.000 12.001 C 20.000 17.907,19.991 19.138,19.945 19.290 C 19.872 19.533,19.707 19.740,19.484 19.872 L 19.300 19.980 12.000 19.980 L 4.700 19.980 4.516 19.872 C 4.415 19.813,4.284 19.700,4.225 19.623 C 3.986 19.309,4.000 19.795,4.000 12.022 C 4.000 5.758,4.007 4.870,4.061 4.690 C 4.140 4.421,4.412 4.143,4.673 4.063 C 4.964 3.974,19.009 3.971,19.310 4.061 M8.709 7.044 C 8.258 7.150,8.039 7.397,8.013 7.830 C 8.001 8.021,8.148 9.305,8.513 12.205 C 9.092 16.802,9.061 16.640,9.404 16.867 C 9.559 16.970,9.606 16.980,9.937 16.980 C 10.233 16.979,10.330 16.963,10.464 16.892 C 10.771 16.728,10.837 16.609,11.422 15.146 C 11.726 14.384,11.986 13.760,12.000 13.760 C 12.014 13.760,12.256 14.341,12.539 15.050 C 13.121 16.512,13.188 16.658,13.346 16.808 C 13.484 16.938,13.715 17.040,13.875 17.040 C 14.076 17.040,14.493 16.888,14.651 16.757 C 14.956 16.505,14.923 16.683,15.488 12.200 C 15.852 9.303,15.999 8.021,15.987 7.830 C 15.954 7.283,15.616 7.023,14.937 7.021 C 14.605 7.020,14.560 7.030,14.404 7.133 C 14.081 7.346,14.065 7.414,13.772 9.774 C 13.630 10.921,13.504 11.887,13.493 11.920 C 13.483 11.953,13.340 11.648,13.177 11.242 C 13.014 10.836,12.831 10.442,12.770 10.367 C 12.548 10.092,12.014 9.910,11.688 9.998 C 11.494 10.050,11.266 10.235,11.171 10.416 C 11.135 10.484,10.976 10.864,10.816 11.260 C 10.657 11.656,10.517 11.953,10.507 11.920 C 10.496 11.887,10.370 10.921,10.228 9.774 C 9.947 7.508,9.913 7.352,9.655 7.172 C 9.416 7.006,9.070 6.959,8.709 7.044 " stroke="none" fill="black" fill-rule="evenodd"></path></svg>