<svg xmlns="http://www.w3.org/2000/svg" width="24" height="24" viewBox="0 0 24 24" fill="none" stroke="currentColor" stroke-width="2" stroke-linecap="round" stroke-linejoin="round" class="icon icon-tabler icons-tabler-outline icon-tabler-cloud-upload"><path d="M11.520 4.024 C 9.137 4.370,7.159 5.826,6.321 7.851 C 6.278 7.956,6.219 8.048,6.191 8.056 C 6.163 8.064,6.014 8.093,5.860 8.120 C 4.193 8.415,2.633 9.584,1.862 11.117 C 1.503 11.830,1.309 12.663,1.309 13.500 C 1.309 15.299,2.174 16.919,3.702 17.982 C 4.586 18.598,5.843 18.997,6.900 18.999 C 7.431 19.000,7.700 18.879,7.880 18.558 C 7.967 18.402,7.980 18.332,7.979 18.000 C 7.978 17.687,7.962 17.591,7.890 17.453 C 7.733 17.157,7.404 17.000,6.939 17.000 C 6.615 17.000,6.092 16.907,5.739 16.787 C 4.631 16.409,3.780 15.542,3.434 14.439 C 3.352 14.177,3.340 14.060,3.340 13.500 C 3.340 12.940,3.352 12.823,3.434 12.561 C 3.777 11.469,4.605 10.617,5.705 10.227 C 6.057 10.102,6.333 10.050,6.902 10.005 C 7.589 9.950,7.791 9.807,7.959 9.260 C 8.260 8.281,8.523 7.831,9.138 7.247 C 9.512 6.892,9.833 6.675,10.336 6.439 C 11.697 5.799,13.317 5.798,14.665 6.438 C 15.546 6.856,16.193 7.444,16.638 8.230 C 16.989 8.851,17.163 9.683,17.079 10.340 C 16.962 11.262,16.981 11.455,17.213 11.687 C 17.470 11.943,17.604 11.974,18.600 12.004 C 19.580 12.033,19.741 12.063,20.180 12.294 C 20.322 12.368,20.552 12.551,20.742 12.740 C 21.264 13.259,21.479 13.771,21.479 14.500 C 21.479 15.226,21.265 15.737,20.742 16.264 C 20.501 16.506,20.345 16.624,20.120 16.734 C 19.683 16.948,19.382 16.998,18.536 16.999 C 17.565 17.000,17.308 17.082,17.109 17.453 C 17.035 17.592,17.020 17.684,17.020 18.000 C 17.020 18.331,17.033 18.403,17.120 18.558 C 17.230 18.755,17.414 18.898,17.635 18.959 C 17.860 19.022,19.281 19.009,19.700 18.941 C 20.333 18.838,20.942 18.602,21.460 18.259 C 24.341 16.351,24.117 12.078,21.054 10.511 C 20.509 10.233,20.026 10.093,19.354 10.020 L 19.128 9.995 19.101 9.668 C 18.923 7.477,17.645 5.659,15.580 4.658 C 14.361 4.067,12.847 3.831,11.520 4.024 M11.530 11.083 C 11.393 11.150,11.249 11.252,11.210 11.310 C 11.172 11.369,10.463 12.101,9.635 12.938 C 8.635 13.949,8.099 14.520,8.040 14.637 C 7.863 14.989,7.952 15.354,8.299 15.701 C 8.646 16.048,9.012 16.137,9.363 15.959 C 9.469 15.905,9.832 15.580,10.270 15.147 L 11.000 14.425 11.000 17.822 C 11.000 19.975,11.015 21.273,11.041 21.365 C 11.148 21.750,11.437 21.962,11.896 21.991 C 12.381 22.022,12.699 21.882,12.880 21.558 L 12.980 21.380 12.991 17.903 L 13.002 14.427 13.731 15.148 C 14.168 15.581,14.531 15.905,14.637 15.959 C 14.988 16.137,15.354 16.048,15.701 15.701 C 16.048 15.354,16.137 14.989,15.960 14.637 C 15.901 14.520,15.365 13.949,14.365 12.938 C 13.537 12.101,12.828 11.369,12.789 11.310 C 12.751 11.252,12.604 11.149,12.464 11.082 C 12.120 10.918,11.871 10.918,11.530 11.083 " stroke="none" fill="black" fill-rule="evenodd"></path></svg>