<svg xmlns="http://www.w3.org/2000/svg" width="24" height="24" viewBox="0 0 24 24" fill="none" stroke="currentColor" stroke-width="2" stroke-linecap="round" stroke-linejoin="round" class="icon icon-tabler icons-tabler-outline icon-tabler-cardboards-off"><path d="M2.626 2.045 C 2.257 2.239,1.951 2.673,1.951 3.000 C 1.951 3.316,2.074 3.483,2.968 4.385 L 3.806 5.230 3.553 5.372 C 2.871 5.755,2.350 6.402,2.114 7.160 L 2.020 7.460 2.020 12.280 L 2.020 17.100 2.130 17.452 C 2.511 18.667,3.340 19.495,4.548 19.868 C 4.895 19.975,4.917 19.977,6.020 19.978 C 7.069 19.980,7.163 19.974,7.500 19.886 C 7.936 19.773,8.519 19.505,8.859 19.262 C 9.263 18.974,9.539 18.674,10.472 17.510 C 11.474 16.259,11.520 16.221,12.000 16.221 C 12.480 16.221,12.526 16.260,13.527 17.509 C 14.011 18.113,14.511 18.711,14.637 18.837 C 15.110 19.310,15.803 19.703,16.480 19.882 C 16.769 19.959,16.951 19.975,17.700 19.989 L 18.580 20.007 19.520 20.938 C 20.113 21.526,20.526 21.903,20.637 21.960 C 20.989 22.137,21.354 22.048,21.701 21.701 C 22.049 21.354,22.137 20.988,21.959 20.637 C 21.903 20.526,21.459 20.041,20.772 19.340 C 20.169 18.724,19.654 18.200,19.628 18.175 C 19.578 18.128,6.937 5.484,6.760 5.305 C 5.632 4.159,3.503 2.111,3.372 2.045 C 3.152 1.934,2.835 1.934,2.626 2.045 M9.614 5.057 C 9.377 5.132,9.212 5.261,9.109 5.453 C 9.035 5.592,9.020 5.684,9.020 6.000 C 9.020 6.331,9.033 6.403,9.120 6.558 C 9.230 6.755,9.414 6.898,9.635 6.959 C 9.728 6.985,11.443 7.000,14.443 7.000 C 19.705 7.000,19.375 6.981,19.697 7.303 C 20.023 7.630,20.004 7.281,19.997 12.651 L 19.990 17.402 20.100 17.559 C 20.281 17.821,20.737 17.988,21.165 17.949 C 21.541 17.915,21.766 17.718,21.913 17.293 C 21.974 17.117,21.980 16.686,21.980 12.280 L 21.980 7.460 21.886 7.160 C 21.581 6.182,20.832 5.428,19.861 5.121 L 19.540 5.020 14.660 5.012 C 10.721 5.006,9.748 5.014,9.614 5.057 M7.136 8.556 L 8.692 10.112 8.456 10.057 C 7.406 9.810,6.333 10.460,6.060 11.508 C 5.941 11.962,6.003 12.492,6.225 12.930 C 6.361 13.199,6.801 13.639,7.070 13.775 C 7.659 14.073,8.341 14.073,8.930 13.775 C 9.196 13.640,9.638 13.200,9.771 12.937 C 9.990 12.506,10.052 12.007,9.945 11.550 C 9.915 11.423,9.893 11.320,9.895 11.320 C 9.898 11.320,10.582 12.002,11.416 12.836 L 12.931 14.351 12.715 14.290 C 12.404 14.203,11.613 14.204,11.280 14.292 C 10.907 14.392,10.416 14.637,10.139 14.862 C 9.849 15.098,9.948 14.985,8.860 16.326 C 8.367 16.934,7.899 17.485,7.819 17.551 C 7.618 17.716,7.307 17.866,7.008 17.942 C 6.807 17.993,6.589 18.003,5.948 17.993 C 5.159 17.980,5.134 17.977,4.896 17.867 C 4.587 17.724,4.279 17.415,4.132 17.100 L 4.020 16.860 4.009 12.384 C 3.997 7.318,3.979 7.628,4.303 7.303 C 4.531 7.076,4.742 7.006,5.220 7.003 L 5.580 7.000 7.136 8.556 M15.605 10.045 C 14.933 10.157,14.242 10.787,14.240 11.290 C 14.240 11.584,14.382 11.784,15.142 12.560 C 15.541 12.967,15.889 13.339,15.914 13.387 C 15.995 13.542,16.360 13.688,16.668 13.688 C 17.034 13.690,17.233 13.602,17.479 13.334 C 18.355 12.375,18.068 10.821,16.905 10.233 C 16.502 10.029,16.074 9.967,15.605 10.045 " stroke="none" fill="black" fill-rule="evenodd"></path></svg>