<svg xmlns="http://www.w3.org/2000/svg" width="24" height="24" viewBox="0 0 24 24" fill="none" stroke="currentColor" stroke-width="2" stroke-linecap="round" stroke-linejoin="round" class="icon icon-tabler icons-tabler-outline icon-tabler-shopping-cart-cog"><path d="M3.614 2.057 C 3.377 2.131,3.212 2.261,3.109 2.453 C 3.035 2.592,3.020 2.684,3.020 3.000 C 3.020 3.331,3.033 3.403,3.120 3.558 C 3.230 3.755,3.414 3.898,3.635 3.959 C 3.715 3.981,4.054 4.000,4.390 4.000 L 5.000 4.000 5.000 10.073 L 5.000 16.145 4.670 16.313 C 3.922 16.693,3.365 17.355,3.114 18.160 C 2.979 18.594,2.979 19.406,3.114 19.840 C 3.421 20.826,4.174 21.579,5.160 21.886 C 5.594 22.021,6.406 22.021,6.840 21.886 C 7.826 21.579,8.579 20.826,8.886 19.840 C 9.032 19.372,9.015 18.479,8.854 18.057 C 8.835 18.008,9.069 18.000,10.526 18.000 C 11.537 18.000,12.278 17.983,12.365 17.959 C 12.586 17.898,12.770 17.755,12.880 17.558 C 12.967 17.402,12.980 17.332,12.979 17.000 C 12.978 16.567,12.898 16.355,12.678 16.199 C 12.403 16.003,12.363 16.000,9.594 16.000 L 7.000 16.000 7.000 15.000 L 7.000 14.000 11.610 14.000 C 14.575 14.000,16.272 13.985,16.365 13.959 C 16.586 13.898,16.770 13.755,16.880 13.558 C 16.967 13.402,16.980 13.332,16.979 13.000 C 16.978 12.567,16.898 12.355,16.678 12.199 C 16.392 11.995,16.516 12.000,11.594 12.000 L 7.000 12.000 7.000 9.040 C 7.000 7.412,7.010 6.080,7.023 6.080 C 7.182 6.080,18.820 6.926,18.832 6.939 C 18.842 6.948,18.703 7.978,18.525 9.228 C 18.346 10.478,18.200 11.573,18.200 11.663 C 18.200 11.761,18.244 11.912,18.310 12.043 C 18.461 12.340,18.713 12.479,19.162 12.510 C 19.696 12.546,20.006 12.358,20.137 11.917 C 20.247 11.547,21.010 6.086,20.988 5.830 C 20.949 5.383,20.698 5.113,20.251 5.037 C 20.070 5.007,7.306 4.080,7.067 4.080 C 7.017 4.080,7.005 3.960,6.993 3.350 C 6.979 2.691,6.969 2.604,6.890 2.453 C 6.786 2.256,6.622 2.131,6.371 2.055 C 6.117 1.979,3.859 1.981,3.614 2.057 M18.545 14.579 C 18.320 14.659,18.128 14.863,18.059 15.096 C 18.023 15.217,18.000 15.462,18.000 15.721 L 18.000 16.148 17.708 16.292 C 17.548 16.371,17.333 16.500,17.232 16.577 L 17.047 16.718 16.654 16.495 C 16.190 16.232,15.942 16.167,15.680 16.239 C 15.342 16.331,14.969 16.847,14.930 17.278 C 14.897 17.640,15.080 17.876,15.667 18.228 L 16.014 18.437 16.017 19.002 L 16.020 19.567 15.660 19.780 C 15.272 20.009,15.043 20.223,14.961 20.431 C 14.799 20.844,15.227 21.638,15.680 21.761 C 15.944 21.833,16.212 21.764,16.668 21.505 L 17.053 21.286 17.234 21.425 C 17.335 21.501,17.548 21.629,17.708 21.708 L 18.000 21.852 18.000 22.279 C 18.000 22.963,18.137 23.255,18.537 23.422 C 18.750 23.510,19.249 23.511,19.460 23.423 C 19.864 23.254,20.000 22.965,20.000 22.277 L 20.000 21.848 20.269 21.721 C 20.418 21.652,20.632 21.525,20.746 21.439 L 20.954 21.282 21.331 21.502 C 21.942 21.858,22.304 21.879,22.636 21.579 C 22.842 21.393,23.041 21.009,23.066 20.749 C 23.105 20.358,22.939 20.136,22.340 19.778 L 21.980 19.562 21.983 18.999 L 21.986 18.437 22.333 18.228 C 22.743 17.982,22.940 17.805,23.025 17.605 C 23.213 17.165,22.799 16.371,22.312 16.237 C 22.059 16.167,21.806 16.235,21.346 16.495 L 20.953 16.718 20.768 16.577 C 20.667 16.500,20.452 16.371,20.292 16.292 L 20.000 16.148 20.000 15.721 C 20.000 15.173,19.933 14.937,19.723 14.747 C 19.636 14.669,19.497 14.586,19.413 14.563 C 19.200 14.504,18.731 14.513,18.545 14.579 M6.310 18.061 C 6.688 18.173,7.000 18.598,7.000 19.001 C 7.000 19.331,6.784 19.696,6.484 19.872 C 6.328 19.963,6.254 19.980,6.000 19.980 C 5.746 19.980,5.672 19.963,5.516 19.872 C 4.935 19.530,4.833 18.774,5.304 18.303 C 5.583 18.024,5.916 17.944,6.310 18.061 M19.260 18.044 C 19.497 18.107,19.701 18.263,19.849 18.494 C 19.968 18.679,19.980 18.727,19.980 19.003 C 19.980 19.287,19.970 19.322,19.831 19.531 C 19.613 19.859,19.389 19.980,19.000 19.979 C 18.665 19.978,18.526 19.923,18.308 19.705 C 18.104 19.501,18.022 19.300,18.022 19.000 C 18.022 18.334,18.621 17.871,19.260 18.044 " stroke="none" fill="black" fill-rule="evenodd"></path></svg>