<svg xmlns="http://www.w3.org/2000/svg" width="24" height="24" viewBox="0 0 24 24" fill="none" stroke="currentColor" stroke-width="2" stroke-linecap="round" stroke-linejoin="round" class="icon icon-tabler icons-tabler-outline icon-tabler-radio-off"><path d="M2.626 2.045 C 2.257 2.239,1.951 2.673,1.951 3.000 C 1.951 3.329,2.061 3.471,3.246 4.662 L 4.361 5.785 4.111 5.902 C 3.613 6.136,3.159 6.719,3.044 7.272 C 3.013 7.421,3.000 9.240,3.000 13.374 C 3.000 19.775,2.990 19.465,3.220 19.919 C 3.363 20.203,3.756 20.605,4.032 20.753 C 4.530 21.018,3.980 21.001,12.155 20.999 L 19.570 20.997 20.017 21.434 C 20.263 21.674,20.543 21.910,20.639 21.960 C 20.988 22.137,21.354 22.048,21.701 21.701 C 22.048 21.355,22.137 20.990,21.961 20.637 C 21.887 20.491,17.725 16.269,12.734 11.280 C 8.824 7.371,7.781 6.328,7.726 6.272 C 7.351 5.886,3.635 2.226,3.560 2.168 C 3.266 1.942,2.910 1.895,2.626 2.045 M13.920 1.988 C 13.737 2.019,8.615 4.081,8.396 4.211 C 8.123 4.375,7.994 4.593,7.993 4.891 C 7.993 5.269,8.217 5.731,8.489 5.911 C 8.629 6.003,8.694 6.019,8.917 6.016 C 9.164 6.012,9.344 5.947,11.855 4.940 C 13.578 4.250,14.588 3.824,14.695 3.744 C 14.929 3.567,15.051 3.315,15.026 3.060 C 14.996 2.745,14.848 2.400,14.664 2.215 C 14.452 2.001,14.234 1.935,13.920 1.988 M10.687 6.043 C 10.438 6.092,10.255 6.220,10.130 6.433 C 10.031 6.601,10.020 6.658,10.020 7.000 C 10.020 7.331,10.033 7.403,10.120 7.558 C 10.230 7.755,10.414 7.898,10.635 7.959 C 10.728 7.985,12.260 8.000,14.890 8.000 L 19.000 8.000 19.000 9.500 L 19.000 11.000 17.406 11.000 C 15.710 11.000,15.584 11.012,15.322 11.199 C 15.100 11.357,15.020 11.568,15.020 12.000 C 15.020 12.331,15.033 12.403,15.120 12.558 C 15.230 12.755,15.414 12.898,15.635 12.959 C 15.721 12.983,16.435 13.000,17.390 13.000 L 19.000 13.000 19.000 14.610 C 19.000 15.565,19.017 16.279,19.041 16.365 C 19.102 16.586,19.245 16.770,19.442 16.880 C 19.597 16.967,19.669 16.980,20.000 16.980 C 20.331 16.980,20.403 16.967,20.558 16.880 C 20.755 16.770,20.898 16.586,20.959 16.365 C 20.985 16.272,20.999 14.704,20.997 11.980 C 20.996 8.105,20.989 7.717,20.927 7.477 C 20.743 6.773,20.097 6.174,19.383 6.043 C 19.095 5.991,10.954 5.990,10.687 6.043 M8.080 9.500 L 9.580 11.000 8.794 11.000 L 8.008 11.000 7.993 10.310 C 7.975 9.523,7.927 9.364,7.649 9.182 C 7.199 8.887,6.426 8.979,6.170 9.358 C 6.029 9.568,6.000 9.739,6.000 10.390 L 6.000 11.000 5.500 11.000 L 5.000 11.000 5.000 9.500 L 5.000 8.000 5.790 8.000 L 6.580 8.000 8.080 9.500 M14.580 16.000 L 17.580 19.000 11.290 19.000 L 5.000 19.000 5.000 16.000 L 5.000 13.000 8.290 13.000 L 11.580 13.000 14.580 16.000 M12.614 15.057 C 12.221 15.180,12.039 15.435,12.009 15.906 C 11.962 16.621,12.306 17.000,13.000 17.000 C 13.698 17.000,14.043 16.616,13.989 15.900 C 13.963 15.563,13.859 15.327,13.678 15.199 C 13.414 15.010,12.957 14.950,12.614 15.057 " stroke="none" fill="black" fill-rule="evenodd"></path></svg>