<svg xmlns="http://www.w3.org/2000/svg" width="24" height="24" viewBox="0 0 24 24" fill="none" stroke="currentColor" stroke-width="2" stroke-linecap="round" stroke-linejoin="round" class="icon icon-tabler icons-tabler-outline icon-tabler-bible"><path d="M6.499 3.043 C 5.383 3.230,4.461 4.048,4.114 5.160 L 4.020 5.460 4.020 12.000 L 4.020 18.540 4.114 18.840 C 4.418 19.816,5.149 20.554,6.140 20.886 L 6.420 20.980 12.813 20.991 C 17.061 20.998,19.256 20.988,19.357 20.961 C 19.584 20.900,19.768 20.758,19.880 20.558 L 19.980 20.380 19.980 12.000 L 19.980 3.620 19.891 3.453 C 19.842 3.362,19.746 3.247,19.678 3.199 C 19.388 2.992,19.647 3.000,12.944 3.005 C 9.510 3.007,6.609 3.025,6.499 3.043 M18.000 9.999 L 18.000 14.998 12.230 15.010 C 6.918 15.021,6.443 15.028,6.240 15.091 C 6.119 15.128,6.015 15.159,6.010 15.160 C 6.005 15.160,6.000 13.075,6.000 10.527 C 6.000 5.297,5.981 5.625,6.304 5.303 C 6.622 4.984,6.183 5.006,12.430 5.003 L 18.000 5.000 18.000 9.999 M11.614 6.057 C 11.377 6.131,11.212 6.261,11.109 6.453 C 11.029 6.603,11.019 6.689,11.007 7.310 L 10.993 8.000 10.403 8.000 C 9.577 8.000,9.299 8.097,9.109 8.453 C 9.035 8.592,9.020 8.684,9.020 9.000 C 9.020 9.331,9.033 9.403,9.120 9.558 C 9.230 9.755,9.414 9.898,9.635 9.959 C 9.715 9.981,10.055 10.000,10.390 10.000 L 11.000 10.000 11.000 11.610 C 11.000 12.565,11.017 13.279,11.041 13.365 C 11.148 13.750,11.437 13.962,11.896 13.991 C 12.381 14.022,12.699 13.882,12.880 13.558 L 12.980 13.380 12.992 11.690 L 13.004 10.000 13.612 10.000 C 13.946 10.000,14.285 9.981,14.365 9.959 C 14.586 9.898,14.770 9.755,14.880 9.558 C 14.967 9.402,14.980 9.332,14.979 9.000 C 14.978 8.687,14.962 8.591,14.890 8.453 C 14.702 8.098,14.423 8.000,13.598 8.000 L 13.008 8.000 12.993 7.310 C 12.976 6.541,12.930 6.378,12.678 6.199 C 12.414 6.010,11.957 5.950,11.614 6.057 M18.000 18.001 L 18.000 19.001 12.350 18.991 L 6.700 18.980 6.516 18.872 C 5.935 18.530,5.833 17.774,6.304 17.303 C 6.622 16.984,6.183 17.006,12.430 17.003 L 18.000 17.000 18.000 18.001 " stroke="none" fill="black" fill-rule="evenodd"></path></svg>