<svg xmlns="http://www.w3.org/2000/svg" width="24" height="24" viewBox="0 0 24 24" fill="none" stroke="currentColor" stroke-width="2" stroke-linecap="round" stroke-linejoin="round" class="icon icon-tabler icons-tabler-outline icon-tabler-layout-align-bottom"><path d="M10.499 3.042 C 9.372 3.239,8.461 4.048,8.114 5.160 L 8.020 5.460 8.020 10.000 L 8.020 14.540 8.114 14.840 C 8.422 15.827,9.173 16.578,10.160 16.886 C 10.453 16.978,10.497 16.980,12.000 16.980 C 13.503 16.980,13.547 16.978,13.840 16.886 C 14.827 16.578,15.578 15.827,15.886 14.840 L 15.980 14.540 15.980 10.000 L 15.980 5.460 15.886 5.160 C 15.581 4.181,14.825 3.421,13.861 3.124 C 13.548 3.027,13.504 3.024,12.120 3.015 C 11.339 3.010,10.609 3.022,10.499 3.042 M13.310 5.061 C 13.589 5.144,13.856 5.411,13.939 5.690 C 13.992 5.867,14.000 6.441,14.000 10.001 C 14.000 14.458,14.007 14.319,13.779 14.618 C 13.718 14.698,13.585 14.813,13.484 14.872 L 13.300 14.980 12.000 14.980 L 10.700 14.980 10.516 14.872 C 10.415 14.813,10.282 14.698,10.221 14.618 C 9.993 14.319,10.000 14.458,10.000 10.001 C 10.000 5.359,9.983 5.623,10.304 5.303 C 10.584 5.022,10.675 5.006,11.983 5.003 C 12.878 5.001,13.147 5.012,13.310 5.061 M3.614 19.057 C 3.377 19.131,3.212 19.261,3.109 19.453 C 3.035 19.592,3.020 19.684,3.020 20.000 C 3.020 20.331,3.033 20.403,3.120 20.558 C 3.230 20.755,3.414 20.898,3.635 20.959 C 3.835 21.015,20.165 21.015,20.365 20.959 C 20.586 20.898,20.770 20.755,20.880 20.558 C 20.967 20.402,20.980 20.332,20.979 20.000 C 20.978 19.567,20.898 19.355,20.678 19.199 C 20.386 18.990,20.799 19.000,11.984 19.003 C 5.367 19.005,3.748 19.015,3.614 19.057 " stroke="none" fill="black" fill-rule="evenodd"></path></svg>