<svg xmlns="http://www.w3.org/2000/svg" width="24" height="24" viewBox="0 0 24 24" fill="none" stroke="currentColor" stroke-width="2" stroke-linecap="round" stroke-linejoin="round" class="icon icon-tabler icons-tabler-outline icon-tabler-letter-y-small"><path d="M9.801 7.024 C 9.187 7.189,8.888 7.576,8.992 8.071 C 9.018 8.193,9.480 9.398,10.019 10.748 L 11.000 13.202 11.000 14.711 C 11.000 15.598,11.017 16.280,11.041 16.365 C 11.148 16.750,11.437 16.962,11.896 16.991 C 12.381 17.022,12.699 16.882,12.880 16.558 L 12.980 16.380 13.000 14.760 L 13.020 13.140 13.991 10.717 C 14.525 9.384,14.982 8.194,15.008 8.071 C 15.118 7.547,14.759 7.133,14.078 6.997 C 13.674 6.916,13.336 7.089,13.144 7.476 C 13.093 7.577,12.821 8.240,12.539 8.950 C 12.256 9.660,12.014 10.240,12.000 10.240 C 11.986 10.240,11.744 9.660,11.461 8.950 C 11.179 8.240,10.907 7.577,10.856 7.476 C 10.744 7.250,10.531 7.058,10.331 7.002 C 10.139 6.949,10.070 6.952,9.801 7.024 " stroke="none" fill="black" fill-rule="evenodd"></path></svg>