<svg xmlns="http://www.w3.org/2000/svg" width="24" height="24" viewBox="0 0 24 24" fill="none" stroke="currentColor" stroke-width="2" stroke-linecap="round" stroke-linejoin="round" class="icon icon-tabler icons-tabler-outline icon-tabler-octahedron-off"><path d="M11.491 1.060 C 11.354 1.090,11.111 1.183,10.951 1.267 C 10.692 1.403,10.512 1.569,9.300 2.791 C 8.361 3.737,7.906 4.225,7.830 4.365 C 7.621 4.752,7.707 5.105,8.101 5.477 C 8.353 5.716,8.528 5.800,8.769 5.799 C 9.107 5.797,9.246 5.694,10.150 4.771 L 11.000 3.903 11.000 6.061 C 11.000 7.384,11.016 8.276,11.041 8.365 C 11.148 8.750,11.437 8.962,11.896 8.991 C 12.381 9.022,12.699 8.882,12.880 8.558 L 12.980 8.380 13.000 6.158 L 13.020 3.936 16.774 7.730 C 18.839 9.817,20.520 11.534,20.509 11.545 C 20.498 11.555,19.741 11.787,18.828 12.059 C 17.914 12.331,17.088 12.589,16.993 12.632 C 16.771 12.732,16.577 12.926,16.517 13.108 C 16.453 13.304,16.491 13.702,16.597 13.942 C 16.708 14.194,16.937 14.430,17.119 14.480 C 17.401 14.559,17.564 14.528,18.692 14.185 L 18.884 14.127 18.598 14.427 C 18.159 14.889,18.071 15.171,18.247 15.545 C 18.351 15.767,18.652 16.078,18.865 16.182 C 19.065 16.281,19.373 16.281,19.580 16.183 C 19.758 16.099,22.500 13.350,22.690 13.065 C 23.079 12.483,23.098 11.626,22.734 11.012 C 22.632 10.838,21.418 9.586,18.070 6.199 C 15.582 3.680,13.463 1.555,13.363 1.475 C 12.844 1.064,12.167 0.914,11.491 1.060 M2.626 2.045 C 2.420 2.154,2.146 2.433,2.038 2.644 C 1.924 2.868,1.924 3.133,2.040 3.363 C 2.100 3.483,2.649 4.062,3.741 5.157 L 5.353 6.775 3.387 8.771 C 2.305 9.868,1.371 10.839,1.311 10.927 C 1.094 11.249,1.025 11.500,1.022 11.980 C 1.020 12.476,1.074 12.688,1.294 13.037 C 1.418 13.233,3.325 15.182,8.599 20.500 C 10.459 22.376,10.690 22.595,10.945 22.730 C 11.660 23.105,12.528 23.079,13.180 22.662 C 13.300 22.585,14.211 21.701,15.312 20.594 L 17.235 18.660 18.848 20.266 C 19.937 21.351,20.518 21.900,20.637 21.960 C 20.989 22.137,21.354 22.048,21.701 21.701 C 22.116 21.286,22.159 20.867,21.832 20.440 C 21.778 20.369,14.268 12.807,12.748 11.293 C 5.510 4.082,3.518 2.117,3.372 2.044 C 3.152 1.934,2.835 1.935,2.626 2.045 M10.991 13.105 L 10.980 13.787 7.246 12.676 C 5.193 12.065,3.502 11.555,3.489 11.543 C 3.477 11.530,4.212 10.772,5.122 9.859 L 6.778 8.199 8.890 10.310 L 11.002 12.422 10.991 13.105 M7.980 14.981 C 9.432 15.411,10.705 15.791,10.810 15.825 L 11.000 15.886 11.000 17.985 L 11.000 20.083 8.972 18.032 C 7.856 16.903,6.528 15.561,6.022 15.049 C 5.350 14.370,5.132 14.128,5.220 14.158 C 5.286 14.180,6.528 14.550,7.980 14.981 M14.977 16.397 L 15.814 17.235 14.417 18.651 L 13.020 20.067 13.010 17.987 C 13.004 16.843,13.007 15.899,13.018 15.889 C 13.044 15.863,14.008 15.567,14.080 15.563 C 14.114 15.561,14.517 15.937,14.977 16.397 " stroke="none" fill="black" fill-rule="evenodd"></path></svg>