<svg xmlns="http://www.w3.org/2000/svg" width="24" height="24" viewBox="0 0 24 24" fill="none" stroke="currentColor" stroke-width="2" stroke-linecap="round" stroke-linejoin="round" class="icon icon-tabler icons-tabler-outline icon-tabler-currency-nano"><path d="M6.755 3.015 C 6.442 3.127,6.087 3.432,5.998 3.665 C 5.938 3.823,5.955 4.125,6.034 4.300 C 6.074 4.388,7.027 5.931,8.151 7.730 L 10.195 11.000 8.504 11.000 C 6.703 11.000,6.586 11.011,6.322 11.199 C 6.100 11.357,6.020 11.568,6.020 12.000 C 6.020 12.331,6.033 12.403,6.120 12.558 C 6.230 12.755,6.414 12.898,6.635 12.959 C 6.722 12.983,7.467 13.000,8.488 13.000 L 10.195 13.000 9.570 14.000 L 8.946 15.000 7.879 15.000 C 6.745 15.000,6.569 15.022,6.322 15.199 C 6.139 15.329,6.030 15.573,6.009 15.900 C 5.978 16.381,6.119 16.700,6.442 16.880 C 6.599 16.968,6.682 16.981,7.151 17.000 L 7.683 17.020 6.955 18.180 C 6.034 19.648,5.960 19.787,5.960 20.047 C 5.960 20.304,6.043 20.475,6.266 20.681 C 6.759 21.136,7.303 21.155,7.683 20.733 C 7.758 20.649,8.323 19.774,8.937 18.790 L 10.054 17.000 12.000 17.000 L 13.946 17.000 15.063 18.790 C 15.677 19.774,16.242 20.649,16.317 20.733 C 16.697 21.155,17.241 21.136,17.734 20.681 C 17.957 20.475,18.040 20.304,18.040 20.047 C 18.040 19.787,17.966 19.648,17.045 18.180 L 16.317 17.020 16.849 16.998 C 17.534 16.971,17.708 16.891,17.904 16.520 C 17.961 16.412,17.978 16.292,17.978 16.000 C 17.978 15.567,17.899 15.356,17.678 15.199 C 17.431 15.022,17.255 15.000,16.121 15.000 L 15.054 15.000 14.430 14.000 L 13.805 13.000 15.512 13.000 C 16.533 13.000,17.278 12.983,17.365 12.959 C 17.586 12.898,17.770 12.755,17.880 12.558 C 17.967 12.402,17.980 12.332,17.979 12.000 C 17.978 11.567,17.898 11.355,17.678 11.199 C 17.414 11.011,17.297 11.000,15.496 11.000 L 13.805 11.000 15.849 7.730 C 16.973 5.931,17.926 4.388,17.966 4.300 C 18.056 4.101,18.061 3.795,17.976 3.618 C 17.896 3.449,17.621 3.193,17.397 3.078 C 17.303 3.030,17.125 2.982,17.001 2.971 C 16.729 2.946,16.526 3.034,16.317 3.267 C 16.242 3.351,15.244 4.919,14.100 6.750 C 12.956 8.582,12.011 10.080,12.000 10.080 C 11.989 10.080,11.044 8.582,9.900 6.750 C 8.756 4.919,7.758 3.351,7.683 3.267 C 7.426 2.982,7.099 2.893,6.755 3.015 M12.351 14.450 L 12.682 14.980 12.341 14.992 C 12.153 14.998,11.847 14.998,11.659 14.992 L 11.318 14.980 11.649 14.450 C 11.831 14.159,11.989 13.920,12.000 13.920 C 12.011 13.920,12.169 14.159,12.351 14.450 " stroke="none" fill="black" fill-rule="evenodd"></path></svg>