<svg xmlns="http://www.w3.org/2000/svg" width="24" height="24" viewBox="0 0 24 24" fill="none" stroke="currentColor" stroke-width="2" stroke-linecap="round" stroke-linejoin="round" class="icon icon-tabler icons-tabler-outline icon-tabler-track"><path d="M14.620 3.047 C 14.532 3.093,14.132 3.455,13.732 3.851 L 13.003 4.572 12.759 4.345 C 12.445 4.055,12.258 3.960,12.000 3.960 C 11.749 3.960,11.534 4.064,11.299 4.299 C 10.957 4.641,10.863 5.013,11.035 5.349 C 11.081 5.440,11.221 5.624,11.346 5.760 L 11.574 6.006 10.540 7.040 L 9.505 8.075 9.260 7.846 C 9.124 7.719,8.943 7.581,8.857 7.539 C 8.653 7.438,8.347 7.439,8.140 7.540 C 7.926 7.644,7.614 7.961,7.519 8.170 C 7.356 8.528,7.444 8.831,7.833 9.246 L 8.075 9.505 7.040 10.540 L 6.006 11.574 5.760 11.346 C 5.445 11.055,5.259 10.960,5.000 10.960 C 4.749 10.960,4.534 11.064,4.299 11.299 C 3.957 11.641,3.863 12.013,4.035 12.349 C 4.081 12.440,4.220 12.624,4.345 12.759 L 4.572 13.003 3.851 13.732 C 3.079 14.513,2.951 14.693,2.951 15.000 C 2.951 15.477,3.523 16.049,4.000 16.049 C 4.308 16.049,4.487 15.921,5.271 15.146 L 6.002 14.422 7.790 16.210 L 9.578 17.998 8.854 18.729 C 8.079 19.513,7.951 19.692,7.951 20.000 C 7.951 20.477,8.523 21.049,9.000 21.049 C 9.307 21.049,9.487 20.921,10.268 20.149 L 10.997 19.428 11.241 19.655 C 11.549 19.939,11.760 20.049,12.000 20.049 C 12.477 20.049,13.049 19.477,13.049 19.000 C 13.049 18.760,12.939 18.549,12.654 18.240 L 12.426 17.994 13.460 16.960 L 14.495 15.925 14.755 16.168 C 15.080 16.472,15.301 16.576,15.569 16.550 C 15.833 16.525,16.169 16.293,16.375 15.992 C 16.671 15.563,16.612 15.230,16.156 14.743 L 15.925 14.495 16.960 13.460 L 17.994 12.426 18.240 12.654 C 18.549 12.939,18.760 13.049,19.000 13.049 C 19.477 13.049,20.049 12.477,20.049 12.000 C 20.049 11.760,19.939 11.549,19.655 11.241 L 19.428 10.997 20.149 10.268 C 20.581 9.832,20.905 9.469,20.959 9.363 C 21.137 9.012,21.048 8.646,20.701 8.299 C 20.360 7.958,19.979 7.868,19.628 8.045 C 19.533 8.094,19.143 8.444,18.729 8.854 L 17.998 9.578 16.210 7.790 L 14.422 6.002 15.146 5.271 C 15.580 4.832,15.905 4.469,15.959 4.363 C 16.137 4.012,16.048 3.646,15.701 3.299 C 15.360 2.958,14.966 2.866,14.620 3.047 M14.800 9.220 L 16.580 11.000 15.540 12.040 L 14.500 13.080 12.710 11.290 L 10.920 9.500 11.950 8.470 C 12.516 7.904,12.989 7.440,13.000 7.440 C 13.011 7.440,13.821 8.241,14.800 9.220 M12.040 15.540 L 11.000 16.580 9.210 14.790 L 7.420 13.000 8.460 11.960 L 9.500 10.920 11.290 12.710 L 13.080 14.500 12.040 15.540 " stroke="none" fill="black" fill-rule="evenodd"></path></svg>