<svg xmlns="http://www.w3.org/2000/svg" width="24" height="24" viewBox="0 0 24 24" fill="none" stroke="currentColor" stroke-width="2" stroke-linecap="round" stroke-linejoin="round" class="icon icon-tabler icons-tabler-outline icon-tabler-device-ipad-pause"><path d="M5.499 2.043 C 4.380 2.233,3.461 3.048,3.114 4.160 L 3.020 4.460 3.020 12.000 L 3.020 19.540 3.114 19.840 C 3.418 20.816,4.149 21.554,5.140 21.886 L 5.420 21.980 9.311 21.991 C 11.892 21.999,13.253 21.989,13.355 21.961 C 13.583 21.900,13.768 21.758,13.880 21.558 C 13.967 21.402,13.980 21.332,13.979 21.000 C 13.977 20.469,13.852 20.247,13.455 20.071 C 13.366 20.031,12.493 20.016,9.520 20.000 L 5.700 19.980 5.516 19.872 C 5.415 19.813,5.284 19.700,5.225 19.623 C 4.986 19.309,5.000 19.795,5.000 12.022 C 5.000 4.006,4.975 4.631,5.303 4.303 C 5.629 3.977,5.126 4.000,12.000 4.000 C 18.874 4.000,18.371 3.977,18.697 4.303 C 19.017 4.624,19.000 4.353,19.000 9.057 C 19.000 11.723,19.015 13.272,19.041 13.365 C 19.148 13.750,19.437 13.962,19.896 13.991 C 20.381 14.022,20.699 13.882,20.880 13.558 L 20.980 13.380 20.980 8.920 L 20.980 4.460 20.886 4.160 C 20.581 3.182,19.832 2.428,18.861 2.121 L 18.540 2.020 12.120 2.014 C 8.589 2.011,5.609 2.024,5.499 2.043 M16.614 16.057 C 16.377 16.131,16.212 16.261,16.109 16.453 L 16.020 16.620 16.009 19.412 C 16.002 21.226,16.012 22.257,16.039 22.356 C 16.144 22.747,16.433 22.961,16.896 22.991 C 17.381 23.022,17.699 22.882,17.880 22.558 L 17.980 22.380 17.980 19.500 L 17.980 16.620 17.891 16.453 C 17.842 16.362,17.746 16.247,17.678 16.199 C 17.414 16.010,16.957 15.950,16.614 16.057 M20.614 16.057 C 20.377 16.131,20.212 16.261,20.109 16.453 L 20.020 16.620 20.009 19.412 C 20.002 21.226,20.012 22.257,20.039 22.356 C 20.144 22.747,20.433 22.961,20.896 22.991 C 21.381 23.022,21.699 22.882,21.880 22.558 L 21.980 22.380 21.980 19.500 L 21.980 16.620 21.891 16.453 C 21.842 16.362,21.746 16.247,21.678 16.199 C 21.414 16.010,20.957 15.950,20.614 16.057 M8.614 17.057 C 8.377 17.131,8.212 17.261,8.109 17.453 C 8.035 17.592,8.020 17.684,8.020 18.000 C 8.020 18.331,8.033 18.403,8.120 18.558 C 8.230 18.755,8.414 18.898,8.635 18.959 C 8.831 19.014,13.169 19.014,13.365 18.959 C 13.586 18.898,13.770 18.755,13.880 18.558 C 13.967 18.402,13.980 18.332,13.979 18.000 C 13.978 17.567,13.898 17.355,13.678 17.199 C 13.406 17.005,13.336 17.000,10.984 17.003 C 9.293 17.005,8.741 17.017,8.614 17.057 " stroke="none" fill="black" fill-rule="evenodd"></path></svg>