<svg xmlns="http://www.w3.org/2000/svg" width="24" height="24" viewBox="0 0 24 24" fill="none" stroke="currentColor" stroke-width="2" stroke-linecap="round" stroke-linejoin="round" class="icon icon-tabler icons-tabler-outline icon-tabler-direction-sign"><path d="M11.511 2.062 C 10.926 2.204,11.131 2.017,6.666 6.474 C 4.403 8.732,2.474 10.683,2.379 10.810 C 2.120 11.155,2.020 11.487,2.020 12.000 C 2.020 12.513,2.120 12.845,2.379 13.190 C 2.474 13.317,4.412 15.276,6.686 17.545 C 11.162 22.011,10.922 21.792,11.520 21.944 C 12.036 22.075,12.710 21.957,13.140 21.661 C 13.250 21.585,15.214 19.646,17.505 17.351 C 22.015 12.834,21.792 13.078,21.944 12.480 C 22.075 11.964,21.957 11.290,21.661 10.860 C 21.585 10.750,19.655 8.794,17.371 6.514 C 13.684 2.831,13.192 2.354,12.970 2.243 C 12.502 2.010,11.988 1.947,11.511 2.062 M16.020 8.000 L 20.020 12.000 16.010 16.010 L 12.000 20.020 7.990 16.010 L 3.980 12.000 7.980 8.000 C 10.180 5.800,11.989 4.000,12.000 4.000 C 12.011 4.000,13.820 5.800,16.020 8.000 M11.691 7.519 C 11.462 7.622,11.142 7.929,11.038 8.143 C 10.937 8.353,10.929 8.609,11.019 8.823 C 11.063 8.930,11.403 9.300,12.091 9.990 L 13.098 11.000 10.455 11.000 C 7.633 11.000,7.598 11.002,7.322 11.199 C 7.100 11.357,7.020 11.568,7.020 12.000 C 7.020 12.331,7.033 12.403,7.120 12.558 C 7.230 12.755,7.414 12.898,7.635 12.959 C 7.726 12.984,8.781 13.000,10.439 13.000 L 13.098 13.000 12.091 14.010 C 11.037 15.067,10.953 15.177,10.953 15.500 C 10.953 15.733,11.044 15.925,11.268 16.165 C 11.482 16.395,11.787 16.559,12.000 16.559 C 12.321 16.558,12.430 16.466,14.266 14.648 C 15.238 13.687,16.107 12.837,16.197 12.760 C 16.382 12.603,16.558 12.232,16.558 12.000 C 16.558 11.768,16.382 11.397,16.198 11.240 C 16.107 11.163,15.238 10.313,14.267 9.352 C 12.430 7.535,12.319 7.442,12.000 7.442 C 11.923 7.442,11.784 7.476,11.691 7.519 " stroke="none" fill="black" fill-rule="evenodd"></path></svg>