<svg xmlns="http://www.w3.org/2000/svg" width="24" height="24" viewBox="0 0 24 24" fill="none" stroke="currentColor" stroke-width="2" stroke-linecap="round" stroke-linejoin="round" class="icon icon-tabler icons-tabler-outline icon-tabler-bolt"><path d="M12.525 2.080 C 12.237 2.239,12.209 2.265,12.099 2.482 C 12.047 2.585,10.222 5.120,8.043 8.116 C 5.179 12.054,4.070 13.609,4.037 13.731 C 4.012 13.824,4.000 14.011,4.011 14.147 C 4.044 14.567,4.267 14.857,4.635 14.959 C 4.725 14.984,5.765 15.000,7.390 15.000 L 10.000 15.000 10.000 18.102 L 10.000 21.205 10.102 21.421 C 10.218 21.666,10.373 21.812,10.660 21.946 C 11.029 22.118,11.388 22.049,11.665 21.754 C 11.734 21.680,13.619 19.104,15.854 16.029 C 18.788 11.991,19.930 10.391,19.963 10.269 C 20.024 10.047,19.984 9.644,19.883 9.445 C 19.838 9.358,19.746 9.247,19.678 9.199 C 19.403 9.003,19.363 9.000,16.591 9.000 L 13.995 9.000 14.003 5.850 L 14.012 2.700 13.907 2.494 C 13.785 2.254,13.652 2.147,13.335 2.038 C 13.007 1.926,12.784 1.937,12.525 2.080 M12.120 10.558 C 12.230 10.755,12.414 10.898,12.635 10.959 C 12.724 10.984,13.606 11.000,14.908 11.000 L 17.037 11.000 14.528 14.449 L 12.020 17.898 12.000 15.759 C 11.980 13.643,11.979 13.618,11.891 13.453 C 11.842 13.362,11.746 13.247,11.678 13.199 C 11.408 13.006,11.327 13.000,9.075 13.000 L 6.963 13.000 9.472 9.551 L 11.980 6.102 12.000 8.241 L 12.020 10.380 12.120 10.558 " stroke="none" fill="black" fill-rule="evenodd"></path></svg>