<svg xmlns="http://www.w3.org/2000/svg" width="24" height="24" viewBox="0 0 24 24" fill="none" stroke="currentColor" stroke-width="2" stroke-linecap="round" stroke-linejoin="round" class="icon icon-tabler icons-tabler-outline icon-tabler-brand-upwork"><path d="M2.614 6.057 C 2.377 6.131,2.212 6.261,2.109 6.453 L 2.020 6.620 2.009 9.489 C 1.998 12.265,2.001 12.371,2.082 12.768 C 2.357 14.119,3.247 15.194,4.512 15.704 C 6.567 16.532,8.908 15.522,9.714 13.460 C 9.972 12.800,9.972 12.796,9.997 10.724 L 10.020 8.829 11.311 10.767 L 12.602 12.705 12.480 13.222 C 12.310 13.936,11.830 15.782,11.374 17.480 C 10.953 19.041,10.925 19.236,11.076 19.503 C 11.241 19.796,11.687 20.013,12.120 20.013 C 12.386 20.013,12.545 19.937,12.730 19.721 C 12.909 19.512,12.974 19.295,13.780 16.220 C 13.947 15.582,14.102 14.991,14.124 14.907 L 14.164 14.755 14.316 14.892 C 14.678 15.219,15.269 15.553,15.802 15.731 C 16.397 15.929,16.728 15.978,17.480 15.976 C 18.104 15.975,18.222 15.963,18.563 15.871 C 20.550 15.336,21.890 13.711,21.988 11.717 C 22.090 9.646,20.736 7.754,18.743 7.181 C 17.764 6.900,16.467 6.972,15.510 7.361 C 14.526 7.762,13.741 8.596,13.337 9.671 L 13.209 10.012 11.963 8.146 C 11.016 6.726,10.682 6.256,10.569 6.182 C 10.326 6.023,10.111 5.992,9.354 6.007 C 8.699 6.019,8.646 6.026,8.459 6.122 C 8.245 6.233,8.105 6.404,8.041 6.635 C 8.016 6.726,8.000 7.797,8.000 9.480 C 7.999 12.423,7.992 12.519,7.772 12.931 C 7.625 13.208,7.191 13.643,6.930 13.775 C 6.349 14.070,5.658 14.073,5.088 13.784 C 4.674 13.574,4.241 13.070,4.091 12.623 C 4.030 12.441,4.020 12.113,4.001 9.520 L 3.980 6.620 3.891 6.453 C 3.842 6.362,3.746 6.247,3.678 6.199 C 3.414 6.010,2.957 5.950,2.614 6.057 M18.020 9.060 C 18.741 9.211,19.395 9.713,19.715 10.362 C 20.087 11.118,20.090 11.878,19.723 12.620 C 19.318 13.439,18.546 13.942,17.620 13.989 C 16.500 14.047,15.623 13.594,14.946 12.610 L 14.753 12.328 14.919 11.515 C 15.154 10.367,15.335 9.941,15.756 9.548 C 15.965 9.352,16.148 9.247,16.461 9.145 C 16.902 9.001,17.565 8.965,18.020 9.060 " stroke="none" fill="black" fill-rule="evenodd"></path></svg>