<svg xmlns="http://www.w3.org/2000/svg" width="24" height="24" viewBox="0 0 24 24" fill="none" stroke="currentColor" stroke-width="2" stroke-linecap="round" stroke-linejoin="round" class="icon icon-tabler icons-tabler-outline icon-tabler-square-letter-a"><path d="M4.499 2.043 C 3.380 2.232,2.461 3.048,2.114 4.160 L 2.020 4.460 2.020 12.000 L 2.020 19.540 2.114 19.840 C 2.422 20.827,3.173 21.578,4.160 21.886 L 4.460 21.980 12.000 21.980 L 19.540 21.980 19.840 21.886 C 20.827 21.578,21.578 20.827,21.886 19.840 L 21.980 19.540 21.980 12.000 L 21.980 4.460 21.886 4.160 C 21.581 3.182,20.832 2.428,19.861 2.121 L 19.540 2.020 12.120 2.014 C 8.039 2.011,4.609 2.024,4.499 2.043 M19.310 4.061 C 19.589 4.144,19.856 4.411,19.939 4.690 C 19.993 4.870,20.000 5.755,20.000 12.001 C 20.000 17.907,19.991 19.138,19.945 19.290 C 19.872 19.533,19.707 19.740,19.484 19.872 L 19.300 19.980 12.000 19.980 L 4.700 19.980 4.516 19.872 C 4.415 19.813,4.284 19.700,4.225 19.623 C 3.986 19.309,4.000 19.795,4.000 12.022 C 4.000 5.758,4.007 4.870,4.061 4.690 C 4.140 4.421,4.412 4.143,4.673 4.063 C 4.964 3.974,19.009 3.971,19.310 4.061 M11.499 7.040 C 10.374 7.244,9.487 8.025,9.114 9.140 L 9.021 9.420 9.009 12.810 C 9.001 15.058,9.011 16.252,9.038 16.354 C 9.144 16.747,9.433 16.961,9.896 16.991 C 10.381 17.022,10.699 16.882,10.880 16.558 C 10.979 16.381,10.980 16.374,10.993 15.190 L 11.005 14.000 12.003 14.000 L 13.000 14.000 13.000 15.110 C 13.000 15.730,13.018 16.284,13.041 16.365 C 13.148 16.750,13.437 16.962,13.896 16.991 C 14.381 17.022,14.699 16.882,14.880 16.558 L 14.980 16.380 14.980 12.920 L 14.980 9.460 14.886 9.160 C 14.580 8.178,13.810 7.407,12.861 7.129 C 12.500 7.023,11.832 6.980,11.499 7.040 M12.310 9.061 C 12.452 9.103,12.571 9.178,12.697 9.303 C 12.978 9.584,13.000 9.703,13.000 10.947 L 13.000 12.000 12.000 12.000 L 11.000 12.000 11.000 10.947 C 11.000 9.702,11.022 9.585,11.304 9.303 C 11.583 9.024,11.916 8.944,12.310 9.061 " stroke="none" fill="black" fill-rule="evenodd"></path></svg>