<svg xmlns="http://www.w3.org/2000/svg" width="24" height="24" viewBox="0 0 24 24" fill="none" stroke="currentColor" stroke-width="2" stroke-linecap="round" stroke-linejoin="round" class="icon icon-tabler icons-tabler-outline icon-tabler-car-turbine"><path d="M17.477 2.073 C 16.806 2.249,16.238 2.823,16.060 3.508 C 16.027 3.634,16.000 3.795,16.000 3.866 L 16.000 3.995 13.050 4.010 C 9.852 4.027,9.816 4.029,8.840 4.267 C 7.266 4.649,5.774 5.499,4.602 6.680 C 3.898 7.390,3.399 8.092,2.939 9.020 C 1.688 11.542,1.688 14.458,2.939 16.980 C 3.404 17.918,3.897 18.609,4.621 19.337 C 7.349 22.077,11.483 22.777,14.940 21.084 C 17.772 19.696,19.646 16.990,19.962 13.830 C 19.988 13.571,20.002 13.053,19.994 12.680 L 19.978 12.000 20.121 12.000 C 20.322 12.000,20.685 11.899,20.930 11.775 C 21.196 11.640,21.638 11.200,21.771 10.937 C 22.003 10.479,22.000 10.537,21.999 7.014 C 21.999 3.515,21.999 3.511,21.781 3.083 C 21.551 2.628,21.022 2.203,20.523 2.073 C 20.134 1.972,17.866 1.972,17.477 2.073 M20.000 7.000 L 20.000 10.000 19.000 10.000 L 18.000 10.000 18.000 7.000 L 18.000 4.000 19.000 4.000 L 20.000 4.000 20.000 7.000 M16.000 7.015 L 16.000 8.031 15.910 8.055 C 15.756 8.096,13.075 8.082,11.967 8.035 C 10.825 7.986,10.336 8.014,9.760 8.161 C 8.369 8.518,7.158 9.500,6.526 10.785 C 6.333 11.177,6.187 11.599,6.093 12.040 C 5.992 12.511,5.992 13.489,6.093 13.960 C 6.526 15.984,8.016 17.474,10.040 17.907 C 10.511 18.008,11.489 18.008,11.960 17.907 C 13.488 17.580,14.748 16.630,15.433 15.288 C 15.838 14.494,15.980 13.899,15.980 13.000 C 15.980 12.330,15.922 11.957,15.732 11.400 C 15.618 11.067,15.345 10.504,15.182 10.265 C 15.124 10.180,15.081 10.105,15.088 10.099 C 15.095 10.093,15.299 10.081,15.543 10.074 L 15.986 10.060 16.028 10.327 C 16.156 11.146,16.856 11.844,17.680 11.974 L 17.953 12.017 17.982 12.433 C 18.066 13.673,17.803 15.032,17.274 16.090 C 16.238 18.161,14.333 19.552,12.020 19.926 C 11.607 19.992,10.393 19.992,9.980 19.926 C 6.873 19.424,4.513 17.047,4.076 13.980 C 3.967 13.217,4.022 12.093,4.205 11.340 C 4.875 8.582,7.267 6.419,10.020 6.083 C 10.589 6.013,10.565 6.014,13.350 6.007 L 16.000 6.000 16.000 7.015 M9.992 11.159 L 9.980 11.474 9.408 11.230 C 9.076 11.088,8.842 10.966,8.848 10.938 C 8.872 10.842,9.348 10.477,9.660 10.317 L 9.980 10.153 9.992 10.498 C 9.998 10.688,9.998 10.986,9.992 11.159 M12.460 10.380 C 12.718 10.524,13.133 10.859,13.152 10.938 C 13.162 10.980,12.985 11.065,12.130 11.426 L 12.000 11.481 12.000 10.822 L 12.000 10.162 12.110 10.203 C 12.171 10.226,12.328 10.306,12.460 10.380 M8.980 13.221 C 9.178 13.305,9.347 13.379,9.355 13.385 C 9.371 13.397,8.444 14.520,8.417 14.520 C 8.409 14.520,8.357 14.432,8.302 14.324 C 8.152 14.028,8.041 13.584,8.013 13.169 L 7.988 12.798 8.304 12.933 C 8.478 13.008,8.782 13.137,8.980 13.221 M13.987 13.170 C 13.959 13.584,13.848 14.029,13.698 14.324 C 13.643 14.432,13.591 14.520,13.583 14.520 C 13.556 14.520,12.629 13.397,12.645 13.385 C 12.663 13.371,13.973 12.806,13.996 12.803 C 14.005 12.801,14.001 12.967,13.987 13.170 M11.542 15.210 L 12.050 15.820 11.815 15.897 C 11.627 15.958,11.464 15.973,11.000 15.973 C 10.536 15.973,10.373 15.958,10.185 15.897 L 9.950 15.820 10.458 15.210 C 10.738 14.874,10.982 14.600,11.000 14.600 C 11.018 14.600,11.262 14.874,11.542 15.210 " stroke="none" fill="black" fill-rule="evenodd"></path></svg>