<svg xmlns="http://www.w3.org/2000/svg" width="24" height="24" viewBox="0 0 24 24" fill="none" stroke="currentColor" stroke-width="2" stroke-linecap="round" stroke-linejoin="round" class="icon icon-tabler icons-tabler-outline icon-tabler-carrot-off"><path d="M15.660 1.069 C 15.046 1.319,14.153 2.138,13.630 2.932 C 13.104 3.728,12.884 4.811,13.069 5.685 L 13.143 6.030 12.739 6.010 C 12.273 5.986,11.686 6.045,11.200 6.166 C 10.302 6.387,10.044 6.768,10.279 7.526 C 10.474 8.154,10.866 8.323,11.640 8.114 C 12.105 7.988,12.906 7.988,13.380 8.116 C 14.613 8.446,15.550 9.382,15.886 10.620 C 16.012 11.084,16.010 11.884,15.881 12.360 C 15.706 13.010,15.779 13.338,16.153 13.589 C 16.625 13.905,17.162 13.915,17.464 13.613 C 17.647 13.431,17.742 13.207,17.871 12.660 C 17.961 12.281,17.975 12.126,17.977 11.540 L 17.980 10.860 18.320 10.929 C 19.815 11.235,21.423 10.490,22.549 8.971 C 23.149 8.163,23.149 7.839,22.550 7.029 C 21.719 5.905,20.559 5.168,19.410 5.033 L 19.011 4.987 18.986 4.703 C 18.897 3.653,18.320 2.610,17.367 1.775 C 16.583 1.088,16.103 0.889,15.660 1.069 M2.626 2.045 C 2.420 2.154,2.146 2.433,2.038 2.644 C 1.924 2.868,1.924 3.132,2.040 3.363 C 2.102 3.487,2.936 4.349,4.830 6.247 L 7.532 8.953 7.273 9.347 C 6.456 10.588,5.589 12.220,4.651 14.280 C 3.587 16.620,2.075 20.418,1.982 20.985 C 1.941 21.236,2.022 21.473,2.214 21.663 C 2.401 21.849,2.754 22.000,3.001 22.000 C 3.296 22.000,5.720 21.078,8.080 20.068 C 11.001 18.819,13.075 17.765,14.654 16.728 L 15.048 16.470 17.754 19.171 C 19.651 21.064,20.513 21.898,20.637 21.960 C 20.990 22.137,21.354 22.048,21.701 21.701 C 22.047 21.355,22.136 20.990,21.961 20.637 C 21.839 20.392,3.616 2.165,3.372 2.044 C 3.152 1.934,2.834 1.935,2.626 2.045 M16.269 3.491 C 16.751 3.994,16.972 4.446,16.976 4.940 C 16.979 5.228,16.965 5.286,16.844 5.520 C 16.648 5.900,16.514 6.070,16.176 6.377 L 15.874 6.650 15.714 6.495 C 15.510 6.297,15.232 5.881,15.115 5.599 C 15.043 5.424,15.025 5.304,15.025 5.000 C 15.025 4.574,15.088 4.371,15.346 3.969 C 15.485 3.751,15.944 3.240,16.000 3.240 C 16.015 3.240,16.136 3.353,16.269 3.491 M19.600 7.120 C 19.899 7.238,20.296 7.510,20.559 7.777 L 20.777 8.000 20.559 8.223 C 20.286 8.501,19.832 8.809,19.553 8.905 C 19.265 9.005,18.735 9.005,18.447 8.905 C 18.190 8.816,17.718 8.506,17.504 8.285 L 17.348 8.125 17.619 7.832 C 17.977 7.445,18.387 7.159,18.760 7.035 C 18.920 6.982,19.363 7.027,19.600 7.120 M13.510 15.089 C 13.363 15.201,12.257 15.853,11.720 16.144 C 10.642 16.729,8.594 17.689,7.020 18.350 C 6.020 18.769,4.746 19.280,4.733 19.266 C 4.701 19.234,5.873 16.432,6.455 15.151 C 6.775 14.445,7.467 12.999,7.500 12.966 C 7.511 12.956,7.732 13.154,7.991 13.408 C 8.512 13.918,8.719 14.049,9.000 14.049 C 9.477 14.049,10.049 13.477,10.049 13.000 C 10.049 12.697,9.919 12.511,9.197 11.780 L 8.525 11.100 8.748 10.746 L 8.972 10.393 11.286 12.706 C 13.598 15.017,13.600 15.020,13.510 15.089 " stroke="none" fill="black" fill-rule="evenodd"></path></svg>