<svg xmlns="http://www.w3.org/2000/svg" width="24" height="24" viewBox="0 0 24 24" fill="none" stroke="currentColor" stroke-width="2" stroke-linecap="round" stroke-linejoin="round" class="icon icon-tabler icons-tabler-outline icon-tabler-number-15-small"><path d="M8.620 7.046 C 8.390 7.165,6.153 9.411,6.040 9.637 C 5.863 9.990,5.952 10.354,6.299 10.701 C 6.641 11.043,7.013 11.137,7.349 10.965 C 7.440 10.919,7.623 10.780,7.757 10.656 L 8.000 10.431 8.000 13.326 C 8.000 15.141,8.015 16.274,8.041 16.365 C 8.148 16.750,8.437 16.962,8.896 16.991 C 9.381 17.022,9.699 16.882,9.880 16.558 L 9.980 16.380 9.980 12.040 L 9.980 7.700 9.871 7.514 C 9.758 7.323,9.558 7.141,9.332 7.025 C 9.153 6.934,8.818 6.944,8.620 7.046 M12.614 7.057 C 12.377 7.131,12.212 7.261,12.109 7.453 C 12.020 7.619,12.020 7.629,12.009 9.911 C 12.001 11.392,12.012 12.256,12.039 12.355 C 12.100 12.583,12.242 12.768,12.442 12.880 L 12.620 12.980 14.310 12.992 L 16.000 13.003 16.000 14.002 L 16.000 15.000 15.005 15.000 L 14.010 15.000 13.983 14.794 C 13.930 14.393,13.743 14.167,13.371 14.055 C 12.861 13.902,12.305 14.077,12.113 14.453 C 12.008 14.659,11.973 15.095,12.037 15.404 C 12.148 15.941,12.595 16.534,13.070 16.775 C 13.479 16.982,13.632 17.000,15.000 17.000 C 16.368 17.000,16.521 16.982,16.930 16.775 C 17.196 16.640,17.638 16.200,17.771 15.937 C 17.979 15.527,18.000 15.352,17.999 14.014 C 17.999 12.682,17.974 12.463,17.781 12.083 C 17.646 11.816,17.297 11.449,17.017 11.281 C 16.609 11.035,16.405 11.005,15.130 11.002 L 14.000 11.000 14.000 10.000 L 14.000 9.000 15.610 9.000 C 16.565 9.000,17.279 8.983,17.365 8.959 C 17.586 8.898,17.770 8.755,17.880 8.558 C 17.967 8.402,17.980 8.332,17.979 8.000 C 17.978 7.567,17.898 7.355,17.678 7.199 C 17.406 7.005,17.336 7.000,14.984 7.003 C 13.293 7.005,12.741 7.017,12.614 7.057 " stroke="none" fill="black" fill-rule="evenodd"></path></svg>