<svg xmlns="http://www.w3.org/2000/svg" width="24" height="24" viewBox="0 0 24 24" fill="none" stroke="currentColor" stroke-width="2" stroke-linecap="round" stroke-linejoin="round" class="icon icon-tabler icons-tabler-outline icon-tabler-bucket-off"><path d="M2.626 2.045 C 2.257 2.239,1.951 2.673,1.951 3.000 C 1.951 3.310,2.077 3.486,2.888 4.305 L 3.645 5.070 3.502 5.295 C 3.305 5.602,3.127 6.063,3.052 6.454 C 2.972 6.873,3.002 7.702,3.122 8.400 C 3.252 9.156,6.031 19.315,6.212 19.697 C 6.457 20.213,6.883 20.700,7.380 21.031 C 8.366 21.688,9.852 22.000,12.000 22.000 C 14.595 22.000,16.203 21.555,17.165 20.571 C 17.483 20.246,17.667 19.981,17.822 19.625 L 17.938 19.360 19.199 20.616 C 20.031 21.444,20.520 21.901,20.637 21.960 C 20.989 22.137,21.354 22.048,21.701 21.701 C 22.116 21.287,22.159 20.869,21.833 20.440 C 21.791 20.385,19.521 18.096,16.788 15.354 C 14.056 12.611,11.784 10.331,11.740 10.287 C 11.696 10.243,9.833 8.389,7.600 6.167 C 4.856 3.437,3.485 2.101,3.372 2.044 C 3.152 1.934,2.835 1.935,2.626 2.045 M11.100 2.026 C 9.728 2.109,8.171 2.390,7.303 2.712 C 6.756 2.915,6.551 3.254,6.661 3.779 C 6.758 4.242,6.990 4.549,7.309 4.638 C 7.531 4.699,7.569 4.694,8.193 4.522 C 9.925 4.043,11.660 3.898,13.480 4.080 C 16.065 4.338,18.285 5.327,18.848 6.470 C 18.961 6.699,18.980 6.779,18.977 7.019 C 18.974 7.402,18.832 7.688,18.460 8.061 C 17.749 8.775,16.617 9.308,15.023 9.677 C 14.633 9.767,14.246 9.876,14.162 9.919 C 13.803 10.102,13.673 10.457,13.778 10.964 C 13.886 11.485,14.179 11.760,14.624 11.760 C 15.267 11.760,17.138 11.215,18.014 10.773 C 18.121 10.719,18.215 10.682,18.224 10.691 C 18.233 10.700,18.032 11.488,17.778 12.443 C 17.269 14.355,17.238 14.544,17.395 14.821 C 17.563 15.118,17.994 15.328,18.437 15.328 C 18.895 15.328,19.128 15.094,19.314 14.448 C 19.668 13.217,20.810 8.795,20.882 8.380 C 21.003 7.672,21.029 6.866,20.943 6.440 C 20.789 5.678,20.515 5.198,19.860 4.537 C 19.158 3.830,18.383 3.349,17.226 2.901 C 15.517 2.241,13.151 1.903,11.100 2.026 M6.580 8.001 L 8.020 9.441 7.686 9.319 C 6.147 8.759,5.109 7.896,5.015 7.100 C 4.992 6.906,5.054 6.560,5.112 6.560 C 5.128 6.560,5.788 7.208,6.580 8.001 M6.263 10.896 C 7.078 11.260,7.978 11.538,8.925 11.718 C 9.423 11.812,10.193 11.920,10.371 11.920 C 10.489 11.920,10.763 12.183,13.418 14.838 L 16.335 17.755 16.204 18.188 C 16.132 18.425,16.036 18.705,15.992 18.808 C 15.896 19.033,15.571 19.353,15.297 19.491 C 14.634 19.826,13.512 19.999,12.000 19.999 C 10.489 19.999,9.366 19.826,8.705 19.492 C 8.462 19.370,8.136 19.069,8.039 18.879 C 7.999 18.800,7.496 17.009,6.921 14.898 C 6.345 12.787,5.850 10.975,5.820 10.870 C 5.789 10.765,5.768 10.680,5.772 10.680 C 5.777 10.680,5.998 10.777,6.263 10.896 " stroke="none" fill="black" fill-rule="evenodd"></path></svg>