<svg xmlns="http://www.w3.org/2000/svg" width="24" height="24" viewBox="0 0 24 24" fill="none" stroke="currentColor" stroke-width="2" stroke-linecap="round" stroke-linejoin="round" class="icon icon-tabler icons-tabler-outline icon-tabler-math-pi"><path d="M3.614 3.057 C 3.377 3.131,3.212 3.261,3.109 3.453 C 3.035 3.592,3.020 3.684,3.020 4.000 C 3.020 4.331,3.033 4.403,3.120 4.558 C 3.230 4.755,3.414 4.898,3.635 4.959 C 3.716 4.982,4.270 5.000,4.890 5.000 L 6.000 5.000 6.000 12.610 C 6.000 17.585,6.014 20.270,6.041 20.365 C 6.148 20.750,6.437 20.962,6.896 20.991 C 7.381 21.022,7.699 20.882,7.880 20.558 L 7.980 20.380 7.991 12.690 L 8.001 5.000 12.001 5.000 L 16.000 5.000 16.000 12.610 C 16.000 17.585,16.014 20.270,16.041 20.365 C 16.148 20.750,16.437 20.962,16.896 20.991 C 17.381 21.022,17.699 20.882,17.880 20.558 L 17.980 20.380 17.991 12.690 L 18.001 5.000 19.111 5.000 C 19.730 5.000,20.284 4.982,20.365 4.959 C 20.586 4.898,20.770 4.755,20.880 4.558 C 20.967 4.402,20.980 4.332,20.979 4.000 C 20.978 3.567,20.898 3.355,20.678 3.199 C 20.386 2.990,20.799 3.000,11.984 3.003 C 5.367 3.005,3.748 3.015,3.614 3.057 " stroke="none" fill="black" fill-rule="evenodd"></path></svg>