<svg xmlns="http://www.w3.org/2000/svg" width="24" height="24" viewBox="0 0 24 24" fill="none" stroke="currentColor" stroke-width="2" stroke-linecap="round" stroke-linejoin="round" class="icon icon-tabler icons-tabler-outline icon-tabler-heart-broken"><path d="M7.360 3.026 C 6.162 3.208,5.471 3.463,4.598 4.045 C 4.166 4.333,3.397 5.077,3.113 5.480 C 2.372 6.534,1.996 7.723,1.998 9.000 C 2.002 10.545,2.525 11.886,3.571 13.033 C 3.774 13.255,5.539 15.017,7.494 16.949 C 9.448 18.880,11.095 20.532,11.154 20.620 C 11.302 20.843,11.697 21.038,12.000 21.038 C 12.303 21.038,12.698 20.843,12.846 20.620 C 12.905 20.532,14.579 18.853,16.566 16.889 C 18.554 14.925,20.313 13.170,20.476 12.989 C 21.406 11.955,21.931 10.640,21.989 9.200 C 22.102 6.363,20.086 3.764,17.308 3.164 C 15.509 2.775,13.677 3.197,12.252 4.327 L 12.004 4.524 11.772 4.335 C 10.964 3.676,9.925 3.220,8.860 3.057 C 8.535 3.007,7.611 2.988,7.360 3.026 M8.971 5.114 C 9.578 5.276,10.183 5.594,10.634 5.989 L 10.809 6.141 9.895 7.971 C 9.018 9.728,8.981 9.811,8.983 10.031 C 8.985 10.289,9.083 10.516,9.266 10.685 C 9.329 10.742,10.109 11.334,11.000 12.000 C 11.891 12.665,12.644 13.232,12.673 13.259 C 12.715 13.299,12.567 13.625,11.873 15.016 L 11.020 16.724 11.006 17.162 L 10.993 17.600 8.014 14.650 C 6.376 13.027,4.940 11.574,4.822 11.420 C 4.228 10.641,3.965 9.792,4.013 8.802 C 4.051 8.007,4.301 7.268,4.736 6.660 C 5.330 5.832,6.304 5.223,7.321 5.043 C 7.686 4.979,8.613 5.019,8.971 5.114 M16.820 5.107 C 18.030 5.342,19.092 6.188,19.626 7.344 C 20.025 8.208,20.089 9.298,19.796 10.240 C 19.675 10.628,19.449 11.063,19.193 11.400 C 19.066 11.567,17.644 13.008,15.983 14.653 L 13.000 17.607 13.000 17.424 C 13.000 17.266,13.133 16.975,14.009 15.220 C 14.981 13.274,15.019 13.190,15.017 12.969 C 15.015 12.711,14.917 12.484,14.734 12.315 C 14.671 12.258,13.891 11.666,13.000 11.000 C 12.109 10.335,11.356 9.768,11.327 9.741 C 11.284 9.700,11.419 9.402,12.074 8.096 C 12.954 6.340,13.005 6.263,13.565 5.841 C 14.510 5.129,15.632 4.876,16.820 5.107 " stroke="none" fill="black" fill-rule="evenodd"></path></svg>