<svg xmlns="http://www.w3.org/2000/svg" width="24" height="24" viewBox="0 0 24 24" fill="none" stroke="currentColor" stroke-width="2" stroke-linecap="round" stroke-linejoin="round" class="icon icon-tabler icons-tabler-outline icon-tabler-paw-off"><path d="M2.626 2.045 C 2.420 2.154,2.146 2.433,2.038 2.644 C 1.924 2.867,1.924 3.132,2.039 3.363 C 2.102 3.489,3.214 4.628,5.884 7.300 C 7.950 9.369,9.640 11.074,9.640 11.090 C 9.640 11.106,9.544 11.243,9.427 11.394 C 9.240 11.637,9.005 12.020,8.285 13.259 C 8.036 13.688,7.645 14.071,7.040 14.478 C 6.004 15.176,5.705 15.421,5.384 15.840 C 5.058 16.266,4.878 16.666,4.776 17.194 C 4.704 17.569,4.705 18.382,4.778 18.726 C 5.059 20.053,6.200 21.003,7.508 20.999 C 8.078 20.998,8.566 20.889,10.000 20.446 C 11.923 19.851,12.104 19.854,14.260 20.521 C 15.355 20.860,15.765 20.953,16.300 20.986 C 17.101 21.034,17.785 20.799,18.324 20.290 L 18.603 20.027 19.532 20.949 C 20.117 21.530,20.526 21.903,20.637 21.960 C 20.989 22.137,21.354 22.048,21.701 21.701 C 22.048 21.354,22.137 20.989,21.960 20.637 C 21.901 20.522,21.389 19.971,20.493 19.060 C 19.735 18.290,19.085 17.630,19.048 17.593 C 19.011 17.557,15.533 14.088,11.320 9.885 C 7.107 5.683,3.615 2.210,3.560 2.168 C 3.264 1.942,2.910 1.895,2.626 2.045 M8.671 3.039 C 8.333 3.100,8.080 3.204,7.780 3.405 C 7.459 3.620,7.262 3.869,7.222 4.112 C 7.156 4.509,7.545 5.100,7.991 5.278 C 8.216 5.368,8.525 5.297,8.871 5.076 C 8.964 5.016,9.033 5.000,9.111 5.019 C 9.279 5.060,9.632 5.452,9.763 5.741 C 9.920 6.087,9.963 6.295,9.997 6.883 C 10.031 7.456,10.104 7.646,10.358 7.814 C 10.509 7.914,10.831 8.000,11.055 8.000 C 11.465 8.000,11.832 7.754,11.934 7.410 C 11.997 7.200,11.985 7.180,12.081 7.660 C 12.219 8.344,12.555 8.966,13.018 9.389 C 13.961 10.253,15.303 10.192,16.267 9.243 C 17.087 8.435,17.496 7.392,17.491 6.120 C 17.488 5.475,17.377 4.980,17.119 4.459 C 16.475 3.159,15.121 2.653,13.911 3.261 C 13.029 3.704,12.301 4.771,12.098 5.920 C 12.007 6.434,11.992 6.461,11.956 6.170 C 11.884 5.589,11.632 4.903,11.312 4.412 C 10.879 3.749,10.315 3.291,9.691 3.097 C 9.453 3.023,8.922 2.993,8.671 3.039 M15.152 5.099 C 15.217 5.154,15.313 5.303,15.365 5.429 C 15.448 5.631,15.460 5.724,15.460 6.180 C 15.460 6.607,15.444 6.750,15.371 6.980 C 15.209 7.492,14.790 8.000,14.530 8.000 C 14.395 8.000,14.223 7.805,14.115 7.528 C 14.040 7.339,14.025 7.221,14.024 6.840 C 14.024 6.363,14.106 5.980,14.281 5.640 C 14.436 5.338,14.798 5.001,14.967 5.000 C 15.004 5.000,15.087 5.045,15.152 5.099 M3.802 7.041 C 3.448 7.116,3.044 7.346,2.764 7.631 C 2.456 7.946,2.287 8.243,2.135 8.741 C 2.036 9.069,2.026 9.158,2.024 9.760 C 2.022 10.467,2.078 10.785,2.309 11.399 C 2.898 12.968,4.088 14.003,5.297 13.999 C 5.846 13.998,6.345 13.772,6.757 13.337 C 7.674 12.372,7.753 10.669,6.955 9.065 C 6.704 8.562,6.532 8.326,6.103 7.900 C 5.665 7.465,5.335 7.246,4.920 7.116 C 4.623 7.023,4.064 6.986,3.802 7.041 M19.300 7.059 C 18.773 7.176,18.295 7.469,17.817 7.968 C 17.457 8.344,17.275 8.604,17.035 9.085 C 16.515 10.127,16.367 11.248,16.621 12.220 C 16.786 12.849,17.258 13.489,17.753 13.753 C 19.023 14.430,20.604 13.651,21.460 11.928 C 21.853 11.137,22.022 10.394,21.988 9.600 C 21.951 8.737,21.704 8.099,21.216 7.610 C 20.710 7.102,20.013 6.902,19.300 7.059 M4.498 9.127 C 5.041 9.486,5.480 10.431,5.480 11.236 C 5.479 11.790,5.381 12.034,5.180 11.983 C 5.025 11.945,4.564 11.471,4.407 11.188 C 4.222 10.857,4.044 10.295,4.015 9.953 C 3.977 9.493,4.101 9.000,4.254 9.000 C 4.283 9.000,4.393 9.057,4.498 9.127 M19.900 9.180 C 19.965 9.311,19.979 9.419,19.977 9.780 C 19.976 10.170,19.961 10.263,19.846 10.599 C 19.671 11.108,19.516 11.368,19.199 11.688 C 18.905 11.983,18.742 12.058,18.653 11.938 C 18.562 11.812,18.520 11.595,18.520 11.236 C 18.520 10.633,18.754 9.962,19.135 9.477 C 19.320 9.242,19.656 8.990,19.759 9.009 C 19.792 9.015,19.856 9.092,19.900 9.180 M17.085 18.712 C 17.038 18.779,16.917 18.873,16.816 18.922 C 16.505 19.072,16.117 19.005,14.626 18.541 C 13.253 18.115,12.765 18.020,11.960 18.024 C 11.239 18.028,10.739 18.126,9.517 18.501 C 7.610 19.086,7.330 19.116,6.988 18.774 C 6.798 18.585,6.720 18.341,6.720 17.940 C 6.720 17.231,6.878 17.020,7.968 16.268 C 9.295 15.353,9.559 15.067,10.341 13.705 C 10.595 13.262,10.868 12.812,10.946 12.704 L 11.089 12.509 14.130 15.550 L 17.171 18.592 17.085 18.712 " stroke="none" fill="black" fill-rule="evenodd"></path></svg>