<svg xmlns="http://www.w3.org/2000/svg" width="24" height="24" viewBox="0 0 24 24" fill="none" stroke="currentColor" stroke-width="2" stroke-linecap="round" stroke-linejoin="round" class="icon icon-tabler icons-tabler-outline icon-tabler-bookmark-minus"><path d="M9.400 2.044 C 7.761 2.229,6.261 3.290,5.526 4.785 C 5.347 5.148,5.197 5.571,5.094 6.000 C 5.027 6.282,5.022 6.748,5.011 13.718 C 4.997 22.009,4.974 21.343,5.287 21.698 C 5.580 22.031,5.944 22.127,6.302 21.965 C 6.597 21.830,12.696 17.738,12.833 17.582 C 12.998 17.394,13.040 17.285,13.040 17.047 C 13.039 16.696,12.726 16.206,12.394 16.037 C 12.203 15.940,11.910 15.939,11.698 16.035 C 11.609 16.076,10.538 16.774,9.318 17.587 C 8.098 18.400,7.077 19.079,7.049 19.095 C 7.008 19.120,7.000 17.906,7.009 12.793 L 7.020 6.460 7.121 6.139 C 7.430 5.164,8.217 4.387,9.178 4.112 C 9.499 4.020,9.510 4.020,12.000 4.020 C 14.490 4.020,14.501 4.020,14.822 4.112 C 15.783 4.388,16.572 5.165,16.878 6.139 L 16.979 6.460 17.000 10.920 L 17.020 15.380 17.120 15.558 C 17.287 15.856,17.572 16.000,18.000 16.000 C 18.428 16.000,18.713 15.856,18.880 15.558 L 18.980 15.380 18.980 10.880 C 18.980 6.680,18.975 6.357,18.907 6.040 C 18.625 4.721,17.863 3.576,16.800 2.874 C 16.046 2.375,15.396 2.135,14.552 2.043 C 14.092 1.992,9.849 1.994,9.400 2.044 M15.614 18.057 C 15.377 18.131,15.212 18.261,15.109 18.453 C 15.035 18.592,15.020 18.684,15.020 19.000 C 15.020 19.331,15.033 19.403,15.120 19.558 C 15.230 19.755,15.414 19.898,15.635 19.959 C 15.832 20.014,22.168 20.014,22.365 19.959 C 22.586 19.898,22.770 19.755,22.880 19.558 C 22.967 19.402,22.980 19.332,22.979 19.000 C 22.978 18.567,22.898 18.355,22.678 18.199 C 22.398 17.999,22.411 18.000,18.984 18.003 C 16.472 18.005,15.744 18.017,15.614 18.057 " stroke="none" fill="black" fill-rule="evenodd"></path></svg>