<svg xmlns="http://www.w3.org/2000/svg" width="24" height="24" viewBox="0 0 24 24" fill="none" stroke="currentColor" stroke-width="2" stroke-linecap="round" stroke-linejoin="round" class="icon icon-tabler icons-tabler-outline icon-tabler-brand-sentry"><path d="M11.632 3.001 C 11.077 3.067,10.559 3.284,10.124 3.633 C 9.811 3.885,9.622 4.103,9.391 4.480 C 8.970 5.167,7.490 7.753,7.428 7.911 C 7.322 8.177,7.339 8.431,7.476 8.648 C 7.617 8.869,7.801 9.000,8.385 9.293 C 9.566 9.884,10.592 10.632,11.530 11.585 C 13.244 13.325,14.371 15.475,14.799 17.820 C 14.840 18.040,14.884 18.346,14.899 18.500 C 14.913 18.654,14.934 18.829,14.946 18.890 L 14.966 19.000 13.967 19.000 C 12.868 19.000,12.920 19.013,12.920 18.747 C 12.920 18.592,12.798 17.942,12.682 17.480 C 12.352 16.165,11.562 14.649,10.630 13.540 C 9.619 12.338,8.183 11.296,6.808 10.766 C 6.282 10.563,5.954 10.620,5.666 10.965 C 5.452 11.223,3.417 14.770,3.365 14.978 C 3.257 15.404,3.362 15.756,3.654 15.954 C 3.745 16.016,3.991 16.125,4.200 16.197 C 5.173 16.531,5.857 17.056,6.367 17.860 C 6.556 18.157,6.740 18.547,6.826 18.832 L 6.878 19.005 5.789 18.992 C 4.755 18.981,4.692 18.976,4.535 18.892 C 4.200 18.713,4.045 18.443,4.000 17.961 C 3.961 17.544,3.861 17.321,3.649 17.182 C 3.267 16.929,2.584 16.955,2.266 17.235 C 2.081 17.397,2.022 17.597,2.021 18.060 C 2.020 18.562,2.087 18.859,2.299 19.300 C 2.691 20.117,3.425 20.704,4.320 20.918 C 4.635 20.994,4.789 20.999,6.440 20.999 C 7.510 21.000,8.278 20.984,8.365 20.959 C 8.586 20.898,8.770 20.755,8.880 20.558 C 8.975 20.390,8.980 20.348,8.976 19.800 C 8.971 19.148,8.886 18.650,8.676 18.056 C 8.201 16.708,7.272 15.565,6.080 14.857 C 5.937 14.773,5.813 14.699,5.805 14.693 C 5.793 14.686,6.735 13.022,6.783 12.965 C 6.803 12.943,7.377 13.296,7.738 13.552 C 8.140 13.836,9.073 14.759,9.370 15.165 C 10.116 16.184,10.607 17.268,10.836 18.400 C 10.905 18.737,10.962 19.298,11.014 20.127 C 11.041 20.569,11.259 20.857,11.644 20.961 C 11.744 20.988,13.114 20.998,15.648 20.990 C 19.994 20.978,19.656 21.002,20.357 20.652 C 20.655 20.503,20.802 20.396,21.061 20.142 C 21.902 19.315,22.191 18.168,21.833 17.080 C 21.777 16.908,20.567 14.781,18.250 10.780 C 16.326 7.458,14.670 4.608,14.571 4.448 C 13.933 3.411,12.814 2.860,11.632 3.001 M12.436 5.079 C 12.515 5.120,12.636 5.213,12.705 5.286 C 12.801 5.389,19.299 16.540,19.852 17.552 C 20.068 17.946,19.994 18.399,19.661 18.728 C 19.405 18.980,19.287 19.000,18.059 19.000 L 16.973 19.000 16.923 18.530 C 16.582 15.290,15.103 12.254,12.760 9.986 C 11.950 9.201,10.962 8.444,10.120 7.960 C 9.955 7.866,9.814 7.783,9.807 7.778 C 9.792 7.766,11.088 5.520,11.210 5.348 C 11.308 5.207,11.554 5.050,11.750 5.001 C 11.949 4.952,12.258 4.987,12.436 5.079 " stroke="none" fill="black" fill-rule="evenodd"></path></svg>