<svg xmlns="http://www.w3.org/2000/svg" width="24" height="24" viewBox="0 0 24 24" fill="none" stroke="currentColor" stroke-width="2" stroke-linecap="round" stroke-linejoin="round" class="icon icon-tabler icons-tabler-outline icon-tabler-sun-high"><path d="M11.614 1.057 C 11.377 1.131,11.212 1.261,11.109 1.453 C 11.023 1.614,11.020 1.665,11.008 2.908 C 11.000 3.720,11.011 4.254,11.038 4.352 C 11.144 4.747,11.432 4.961,11.896 4.991 C 12.381 5.022,12.699 4.882,12.880 4.558 L 12.980 4.380 12.980 3.000 C 12.980 1.650,12.978 1.616,12.891 1.453 C 12.842 1.362,12.746 1.247,12.678 1.199 C 12.414 1.010,11.957 0.950,11.614 1.057 M4.559 3.978 C 4.344 4.090,4.018 4.426,3.938 4.620 C 3.906 4.695,3.880 4.835,3.881 4.929 C 3.883 5.260,3.992 5.407,4.932 6.348 C 5.867 7.282,6.022 7.398,6.340 7.398 C 6.812 7.398,7.402 6.810,7.399 6.342 C 7.397 6.021,7.283 5.868,6.348 4.932 C 5.401 3.985,5.259 3.881,4.920 3.883 C 4.810 3.883,4.669 3.921,4.559 3.978 M18.720 3.963 C 18.592 4.021,18.285 4.300,17.652 4.932 C 16.717 5.868,16.603 6.021,16.601 6.342 C 16.598 6.810,17.188 7.398,17.660 7.398 C 17.978 7.398,18.133 7.282,19.068 6.348 C 20.008 5.407,20.117 5.260,20.119 4.929 C 20.120 4.693,20.038 4.517,19.813 4.277 C 19.460 3.899,19.094 3.794,18.720 3.963 M11.240 7.019 C 9.731 7.266,8.366 8.243,7.653 9.583 C 6.941 10.920,6.859 12.420,7.421 13.822 C 8.316 16.054,10.701 17.331,13.060 16.841 C 14.788 16.482,16.224 15.215,16.776 13.560 C 16.964 12.997,17.040 12.530,17.040 11.936 C 17.040 9.575,15.413 7.580,13.060 7.057 C 12.667 6.969,11.667 6.948,11.240 7.019 M12.820 9.057 C 13.644 9.282,14.351 9.863,14.722 10.620 C 14.919 11.022,15.000 11.325,15.029 11.770 C 15.084 12.638,14.772 13.458,14.149 14.074 C 13.533 14.684,12.926 14.935,12.060 14.936 C 11.483 14.937,11.208 14.873,10.700 14.622 C 9.950 14.252,9.369 13.539,9.154 12.726 C 9.058 12.363,9.040 11.668,9.118 11.300 C 9.349 10.208,10.285 9.278,11.414 9.020 C 11.730 8.947,12.494 8.968,12.820 9.057 M1.614 11.057 C 1.377 11.131,1.212 11.261,1.109 11.453 C 1.035 11.592,1.020 11.684,1.020 12.000 C 1.020 12.331,1.033 12.403,1.120 12.558 C 1.230 12.755,1.414 12.898,1.635 12.959 C 1.826 13.012,4.174 13.012,4.365 12.959 C 4.586 12.898,4.770 12.755,4.880 12.558 C 4.967 12.402,4.980 12.332,4.979 12.000 C 4.978 11.687,4.962 11.591,4.890 11.453 C 4.786 11.256,4.623 11.131,4.371 11.055 C 4.117 10.979,1.859 10.981,1.614 11.057 M19.614 11.057 C 19.377 11.131,19.212 11.261,19.109 11.453 C 19.035 11.592,19.020 11.684,19.020 12.000 C 19.020 12.331,19.033 12.403,19.120 12.558 C 19.230 12.755,19.414 12.898,19.635 12.959 C 19.826 13.012,22.174 13.012,22.365 12.959 C 22.586 12.898,22.770 12.755,22.880 12.558 C 22.967 12.402,22.980 12.332,22.979 12.000 C 22.978 11.687,22.962 11.591,22.890 11.453 C 22.786 11.256,22.623 11.131,22.371 11.055 C 22.117 10.979,19.859 10.981,19.614 11.057 M6.000 16.686 C 5.741 16.810,4.074 18.475,3.963 18.720 C 3.867 18.933,3.857 19.188,3.938 19.382 C 4.019 19.575,4.375 19.941,4.577 20.039 C 4.670 20.084,4.824 20.120,4.923 20.119 C 5.260 20.117,5.404 20.012,6.348 19.068 C 7.283 18.132,7.397 17.979,7.399 17.658 C 7.401 17.321,7.051 16.852,6.668 16.678 C 6.447 16.578,6.221 16.580,6.000 16.686 M17.293 16.699 C 16.913 16.892,16.602 17.324,16.602 17.660 C 16.602 17.978,16.718 18.133,17.652 19.068 C 18.593 20.008,18.740 20.117,19.071 20.119 C 19.312 20.120,19.487 20.036,19.739 19.797 C 20.112 19.445,20.208 19.098,20.038 18.723 C 19.941 18.510,18.408 16.945,18.105 16.751 C 17.832 16.575,17.571 16.559,17.293 16.699 M11.614 19.057 C 11.377 19.131,11.212 19.261,11.109 19.453 C 11.023 19.614,11.020 19.665,11.008 20.908 C 11.000 21.720,11.011 22.254,11.038 22.352 C 11.144 22.747,11.432 22.961,11.896 22.991 C 12.381 23.022,12.699 22.882,12.880 22.558 L 12.980 22.380 12.980 21.000 C 12.980 19.650,12.978 19.616,12.891 19.453 C 12.842 19.362,12.746 19.247,12.678 19.199 C 12.414 19.010,11.957 18.950,11.614 19.057 " stroke="none" fill="black" fill-rule="evenodd"></path></svg>