<svg xmlns="http://www.w3.org/2000/svg" width="24" height="24" viewBox="0 0 24 24" fill="none" stroke="currentColor" stroke-width="2" stroke-linecap="round" stroke-linejoin="round" class="icon icon-tabler icons-tabler-outline icon-tabler-horse-toy"><path d="M18.600 2.023 C 18.523 2.032,18.271 2.059,18.040 2.083 C 16.778 2.218,15.624 2.583,14.700 3.140 C 13.247 4.016,12.237 5.403,11.433 7.629 L 11.300 7.999 8.540 8.000 C 5.590 8.001,5.304 8.016,4.755 8.204 C 3.368 8.679,2.372 9.805,2.083 11.227 C 1.847 12.381,2.105 12.941,2.896 12.991 C 3.375 13.021,3.700 12.881,3.871 12.572 C 3.938 12.450,3.972 12.297,4.000 11.993 C 4.046 11.479,4.117 11.239,4.312 10.937 C 4.596 10.498,5.041 10.175,5.513 10.065 C 5.649 10.033,5.760 10.012,5.760 10.019 C 5.760 10.037,4.359 16.689,4.334 16.789 C 4.312 16.877,4.309 16.876,4.146 16.744 C 3.756 16.428,3.410 16.373,3.072 16.571 C 2.744 16.763,2.443 17.217,2.441 17.522 C 2.440 17.726,2.617 18.053,2.833 18.244 C 3.090 18.472,4.036 19.181,4.477 19.478 C 6.662 20.947,8.872 21.775,11.108 21.964 C 11.753 22.019,12.906 21.989,13.506 21.902 C 15.887 21.557,18.121 20.564,20.432 18.823 C 21.188 18.253,21.339 18.112,21.463 17.857 C 21.626 17.524,21.567 17.238,21.253 16.850 C 21.047 16.597,20.791 16.461,20.521 16.463 C 20.281 16.464,20.132 16.527,19.844 16.746 C 19.747 16.820,19.662 16.875,19.654 16.868 C 19.632 16.845,18.080 10.225,18.080 10.150 C 18.080 10.082,18.424 9.360,18.456 9.360 C 18.465 9.360,18.769 9.505,19.131 9.683 C 19.716 9.969,19.816 10.006,20.013 10.006 C 20.141 10.006,20.301 9.976,20.388 9.936 C 20.620 9.829,22.297 8.153,22.421 7.903 C 22.548 7.648,22.549 7.405,22.424 7.136 C 22.253 6.768,19.832 2.437,19.730 2.315 C 19.523 2.069,19.125 1.966,18.600 2.023 M19.337 5.666 C 19.833 6.560,20.240 7.303,20.240 7.317 C 20.240 7.331,20.141 7.440,20.020 7.560 L 19.800 7.777 19.010 7.386 C 18.092 6.932,17.899 6.885,17.584 7.038 C 17.484 7.086,17.354 7.183,17.295 7.253 C 17.237 7.322,16.928 7.903,16.609 8.543 C 16.162 9.441,16.025 9.752,16.011 9.904 C 15.997 10.061,16.181 10.895,16.938 14.111 C 17.458 16.318,17.874 18.138,17.862 18.156 C 17.815 18.233,16.659 18.873,16.627 18.840 C 16.616 18.829,16.216 17.839,15.738 16.640 C 14.898 14.535,14.861 14.454,14.681 14.276 C 14.550 14.149,14.438 14.079,14.309 14.046 C 14.050 13.981,9.950 13.981,9.691 14.046 C 9.562 14.079,9.449 14.149,9.319 14.276 C 9.139 14.454,9.102 14.534,8.258 16.650 C 7.778 17.854,7.368 18.840,7.347 18.840 C 7.306 18.840,6.538 18.423,6.282 18.261 C 6.193 18.205,6.120 18.132,6.120 18.100 C 6.120 18.068,6.481 16.326,6.923 14.230 C 7.364 12.135,7.745 10.325,7.768 10.210 L 7.811 10.000 9.998 10.000 C 12.475 10.000,12.435 10.004,12.711 9.705 C 12.797 9.612,12.897 9.455,12.932 9.358 C 13.518 7.740,13.746 7.190,14.047 6.660 C 14.903 5.154,16.059 4.399,17.968 4.101 C 18.150 4.073,18.330 4.047,18.367 4.045 C 18.415 4.041,18.687 4.497,19.337 5.666 M13.976 17.640 C 14.332 18.531,14.654 19.335,14.690 19.426 L 14.756 19.592 14.448 19.677 C 14.279 19.724,13.879 19.810,13.560 19.868 C 13.036 19.964,12.886 19.974,12.000 19.974 C 11.114 19.974,10.964 19.964,10.440 19.868 C 10.121 19.810,9.721 19.724,9.552 19.677 L 9.244 19.592 9.318 19.406 C 9.358 19.304,9.665 18.536,10.000 17.700 C 10.335 16.864,10.624 16.139,10.644 16.089 L 10.678 15.999 12.003 16.009 L 13.328 16.020 13.976 17.640 " stroke="none" fill="black" fill-rule="evenodd"></path></svg>