<svg xmlns="http://www.w3.org/2000/svg" width="24" height="24" viewBox="0 0 24 24" fill="none" stroke="currentColor" stroke-width="2" stroke-linecap="round" stroke-linejoin="round" class="icon icon-tabler icons-tabler-outline icon-tabler-aspect-ratio"><path d="M4.499 4.043 C 3.380 4.232,2.461 5.048,2.114 6.160 L 2.020 6.460 2.020 12.000 L 2.020 17.540 2.114 17.840 C 2.422 18.827,3.173 19.578,4.160 19.886 L 4.460 19.980 12.000 19.980 L 19.540 19.980 19.840 19.886 C 20.827 19.578,21.578 18.827,21.886 17.840 L 21.980 17.540 21.980 12.000 L 21.980 6.460 21.886 6.160 C 21.581 5.182,20.832 4.428,19.861 4.121 L 19.540 4.020 12.120 4.014 C 8.039 4.011,4.609 4.024,4.499 4.043 M19.310 6.061 C 19.589 6.144,19.856 6.411,19.939 6.690 C 19.992 6.868,20.000 7.546,20.000 12.001 C 20.000 16.212,19.990 17.139,19.945 17.290 C 19.872 17.533,19.707 17.740,19.484 17.872 L 19.300 17.980 12.000 17.980 L 4.700 17.980 4.516 17.872 C 4.303 17.747,4.141 17.550,4.058 17.316 C 3.969 17.061,3.971 6.993,4.061 6.690 C 4.140 6.421,4.412 6.143,4.673 6.063 C 4.964 5.974,19.009 5.971,19.310 6.061 M6.614 8.057 C 6.377 8.131,6.212 8.261,6.109 8.453 C 6.021 8.618,6.020 8.647,6.008 10.410 C 6.001 11.557,6.012 12.255,6.038 12.354 C 6.144 12.747,6.433 12.961,6.896 12.991 C 7.381 13.022,7.699 12.882,7.880 12.558 C 7.979 12.381,7.980 12.374,7.993 11.190 L 8.005 10.000 9.113 10.000 C 9.731 10.000,10.284 9.982,10.365 9.959 C 10.586 9.898,10.770 9.755,10.880 9.558 C 10.967 9.402,10.980 9.332,10.979 9.000 C 10.978 8.687,10.962 8.591,10.890 8.453 C 10.786 8.256,10.623 8.131,10.371 8.055 C 10.114 7.978,6.862 7.980,6.614 8.057 M16.614 11.057 C 16.377 11.131,16.212 11.261,16.109 11.453 C 16.024 11.613,16.020 11.668,16.008 12.810 L 15.996 14.000 14.904 14.000 C 13.744 14.000,13.570 14.022,13.322 14.199 C 13.100 14.357,13.020 14.568,13.020 15.000 C 13.020 15.331,13.033 15.403,13.120 15.558 C 13.230 15.755,13.414 15.898,13.635 15.959 C 13.829 16.013,17.171 16.013,17.365 15.959 C 17.586 15.898,17.770 15.755,17.880 15.558 L 17.980 15.380 17.980 13.500 C 17.980 11.633,17.979 11.619,17.891 11.453 C 17.842 11.362,17.746 11.247,17.678 11.199 C 17.414 11.010,16.957 10.950,16.614 11.057 " stroke="none" fill="black" fill-rule="evenodd"></path></svg>