<svg xmlns="http://www.w3.org/2000/svg" width="24" height="24" viewBox="0 0 24 24" fill="none" stroke="currentColor" stroke-width="2" stroke-linecap="round" stroke-linejoin="round" class="icon icon-tabler icons-tabler-outline icon-tabler-mood-pin"><path d="M11.064 2.041 C 9.037 2.272,7.255 2.992,5.760 4.184 C 5.329 4.528,4.540 5.318,4.186 5.760 C 2.085 8.384,1.446 11.923,2.499 15.102 C 3.218 17.273,4.580 19.065,6.460 20.314 C 7.725 21.154,9.054 21.670,10.563 21.907 C 11.219 22.010,12.770 22.011,13.063 21.909 C 13.446 21.775,13.640 21.472,13.640 21.006 C 13.640 20.539,13.486 20.228,13.182 20.081 C 13.019 20.002,12.943 19.995,12.264 19.998 C 11.137 20.003,10.404 19.897,9.500 19.596 C 7.401 18.900,5.696 17.383,4.757 15.376 C 3.931 13.613,3.782 11.667,4.325 9.761 C 4.921 7.671,6.439 5.842,8.382 4.870 C 9.565 4.278,10.651 4.022,11.980 4.021 C 12.761 4.021,13.214 4.067,13.780 4.205 C 16.250 4.808,18.165 6.356,19.243 8.621 C 19.739 9.663,19.909 10.435,20.014 12.127 C 20.051 12.735,20.435 13.038,21.105 12.988 C 21.725 12.942,21.958 12.681,21.991 11.995 C 22.051 10.767,21.671 9.059,21.043 7.740 C 19.594 4.698,16.787 2.615,13.440 2.100 C 12.946 2.023,11.526 1.989,11.064 2.041 M8.614 9.055 C 8.220 9.184,8.039 9.437,8.009 9.900 C 7.978 10.381,8.119 10.699,8.442 10.880 C 8.597 10.967,8.669 10.980,9.000 10.980 C 9.312 10.980,9.408 10.964,9.540 10.894 C 9.866 10.718,10.000 10.459,10.000 10.000 C 10.000 9.357,9.713 9.048,9.083 9.016 C 8.893 9.006,8.718 9.021,8.614 9.055 M14.614 9.055 C 14.220 9.184,14.039 9.437,14.009 9.900 C 13.978 10.381,14.119 10.699,14.442 10.880 C 14.597 10.967,14.669 10.980,15.000 10.980 C 15.312 10.980,15.408 10.964,15.540 10.894 C 15.866 10.718,16.000 10.459,16.000 10.000 C 16.000 9.357,15.713 9.048,15.083 9.016 C 14.893 9.006,14.718 9.021,14.614 9.055 M9.125 14.051 C 8.758 14.238,8.439 14.692,8.440 15.025 C 8.442 15.511,9.343 16.316,10.295 16.683 C 10.859 16.901,11.269 16.974,11.940 16.977 C 12.765 16.981,13.017 16.886,13.212 16.499 C 13.438 16.050,13.250 15.307,12.860 15.104 C 12.726 15.035,12.598 15.017,12.080 14.996 C 11.553 14.975,11.412 14.955,11.140 14.862 C 10.753 14.731,10.637 14.662,10.244 14.327 C 10.077 14.185,9.882 14.044,9.811 14.014 C 9.616 13.932,9.326 13.948,9.125 14.051 M18.340 14.060 C 17.913 14.130,17.642 14.217,17.275 14.399 C 16.236 14.915,15.537 15.720,15.185 16.807 C 14.791 18.021,15.052 19.450,15.851 20.460 C 16.273 20.993,18.165 22.676,18.610 22.914 C 18.892 23.065,19.097 23.072,19.373 22.941 C 19.537 22.863,20.661 21.912,21.461 21.175 C 22.256 20.442,22.645 19.846,22.868 19.015 C 22.962 18.669,22.975 18.543,22.976 18.000 C 22.977 17.486,22.962 17.325,22.890 17.059 C 22.555 15.825,21.863 14.972,20.736 14.406 C 20.015 14.045,19.175 13.924,18.340 14.060 M19.383 16.043 C 19.962 16.149,20.496 16.556,20.760 17.093 C 20.848 17.273,20.941 17.528,20.964 17.660 C 21.049 18.125,20.934 18.671,20.660 19.101 C 20.538 19.293,19.979 19.839,19.309 20.421 L 18.997 20.691 18.909 20.614 C 17.924 19.754,17.524 19.372,17.355 19.130 C 17.082 18.739,16.949 18.129,17.035 17.660 C 17.107 17.269,17.361 16.802,17.640 16.550 C 18.143 16.095,18.729 15.924,19.383 16.043 M18.614 17.057 C 18.221 17.180,18.039 17.435,18.009 17.906 C 17.962 18.621,18.306 19.000,19.000 19.000 C 19.698 19.000,20.043 18.616,19.989 17.900 C 19.963 17.563,19.859 17.327,19.678 17.199 C 19.414 17.010,18.957 16.950,18.614 17.057 " stroke="none" fill="black" fill-rule="evenodd"></path></svg>