<svg xmlns="http://www.w3.org/2000/svg" width="24" height="24" viewBox="0 0 24 24" fill="none" stroke="currentColor" stroke-width="2" stroke-linecap="round" stroke-linejoin="round" class="icon icon-tabler icons-tabler-outline icon-tabler-brand-visa"><path d="M6.561 8.047 C 6.462 8.098,6.327 8.212,6.261 8.300 C 6.194 8.388,5.888 9.067,5.580 9.808 L 5.020 11.155 5.000 9.887 C 4.981 8.673,4.976 8.613,4.891 8.453 C 4.785 8.256,4.622 8.131,4.371 8.055 C 4.117 7.979,2.883 7.979,2.629 8.055 C 2.224 8.177,2.040 8.428,2.009 8.900 C 1.968 9.532,2.251 9.922,2.797 9.987 L 3.000 10.011 3.000 12.616 C 3.000 14.237,3.016 15.275,3.041 15.365 C 3.102 15.586,3.245 15.770,3.442 15.880 C 3.610 15.974,3.654 15.980,4.220 15.980 C 4.805 15.980,4.825 15.977,5.011 15.868 C 5.116 15.806,5.245 15.689,5.298 15.608 C 5.442 15.387,7.955 9.323,8.009 9.068 C 8.099 8.639,7.859 8.263,7.383 8.085 C 7.020 7.949,6.773 7.938,6.561 8.047 M9.592 8.040 C 9.399 8.098,9.247 8.237,9.144 8.451 C 9.060 8.624,8.952 9.203,8.521 11.789 C 8.234 13.510,8.000 15.013,8.001 15.129 C 8.002 15.433,8.115 15.653,8.343 15.798 C 8.717 16.035,9.293 16.068,9.592 15.870 C 9.904 15.664,9.904 15.664,10.479 12.211 C 10.766 10.490,11.000 8.987,10.999 8.871 C 10.997 8.457,10.781 8.191,10.338 8.057 C 10.132 7.996,9.767 7.987,9.592 8.040 M14.294 8.042 C 13.575 8.169,12.870 8.704,12.541 9.371 C 12.215 10.029,12.106 11.175,12.321 11.680 C 12.622 12.387,13.233 12.872,13.953 12.974 C 14.129 13.000,14.283 13.029,14.294 13.040 C 14.321 13.068,14.205 13.677,14.154 13.770 C 14.081 13.908,13.874 14.000,13.640 13.999 C 13.432 13.999,13.415 13.991,13.327 13.856 C 13.266 13.762,13.161 13.679,13.015 13.613 C 12.823 13.525,12.752 13.514,12.448 13.526 C 12.193 13.536,12.057 13.562,11.940 13.624 C 11.356 13.929,11.362 14.966,11.952 15.556 C 12.339 15.943,12.620 16.018,13.583 15.991 C 14.376 15.968,14.642 15.898,15.116 15.583 C 15.818 15.116,16.113 14.553,16.285 13.357 C 16.381 12.687,16.178 12.089,15.690 11.602 C 15.347 11.260,15.012 11.093,14.539 11.028 C 14.150 10.975,14.164 10.999,14.260 10.541 C 14.342 10.154,14.466 10.032,14.799 10.008 L 15.041 9.990 15.200 10.171 C 15.405 10.403,15.615 10.487,16.000 10.488 C 16.512 10.490,16.829 10.288,16.946 9.884 C 17.140 9.216,16.764 8.435,16.104 8.135 C 15.871 8.029,15.828 8.023,15.180 8.014 C 14.806 8.009,14.407 8.021,14.294 8.042 M19.643 8.066 C 19.546 8.102,19.393 8.205,19.303 8.296 C 19.155 8.445,19.016 8.757,17.823 11.620 C 16.432 14.958,16.405 15.034,16.516 15.366 C 16.581 15.564,16.782 15.756,17.058 15.885 C 17.718 16.194,18.153 16.017,18.446 15.320 L 18.580 15.001 19.282 15.001 L 19.984 15.000 20.032 15.232 C 20.100 15.560,20.268 15.808,20.498 15.919 C 20.658 15.997,20.732 16.007,20.998 15.992 C 21.402 15.968,21.716 15.824,21.870 15.591 C 22.062 15.302,22.055 15.234,21.482 11.800 C 20.904 8.338,20.904 8.336,20.594 8.131 C 20.391 7.997,19.920 7.965,19.643 8.066 M19.636 12.910 C 19.639 12.980,19.618 13.000,19.540 13.000 C 19.421 13.000,19.417 12.970,19.510 12.777 C 19.576 12.638,19.580 12.635,19.606 12.726 C 19.620 12.778,19.634 12.861,19.636 12.910 " stroke="none" fill="black" fill-rule="evenodd"></path></svg>