<svg xmlns="http://www.w3.org/2000/svg" width="24" height="24" viewBox="0 0 24 24" fill="none" stroke="currentColor" stroke-width="2" stroke-linecap="round" stroke-linejoin="round" class="icon icon-tabler icons-tabler-outline icon-tabler-layout-distribute-vertical"><path d="M3.614 3.057 C 3.377 3.131,3.212 3.261,3.109 3.453 L 3.020 3.620 3.010 11.914 C 3.003 17.391,3.013 20.260,3.040 20.358 C 3.144 20.747,3.434 20.962,3.896 20.991 C 4.381 21.022,4.699 20.882,4.880 20.558 L 4.980 20.380 4.980 12.000 L 4.980 3.620 4.891 3.453 C 4.842 3.362,4.746 3.247,4.678 3.199 C 4.414 3.010,3.957 2.950,3.614 3.057 M19.614 3.057 C 19.377 3.131,19.212 3.261,19.109 3.453 L 19.020 3.620 19.010 11.914 C 19.003 17.391,19.013 20.260,19.040 20.358 C 19.144 20.747,19.434 20.962,19.896 20.991 C 20.381 21.022,20.699 20.882,20.880 20.558 L 20.980 20.380 20.980 12.000 L 20.980 3.620 20.891 3.453 C 20.842 3.362,20.746 3.247,20.678 3.199 C 20.414 3.010,19.957 2.950,19.614 3.057 M10.499 5.042 C 9.372 5.239,8.461 6.048,8.114 7.160 L 8.020 7.460 8.020 12.000 L 8.020 16.540 8.114 16.840 C 8.422 17.827,9.173 18.578,10.160 18.886 C 10.453 18.978,10.497 18.980,12.000 18.980 C 13.503 18.980,13.547 18.978,13.840 18.886 C 14.827 18.578,15.578 17.827,15.886 16.840 L 15.980 16.540 15.980 12.000 L 15.980 7.460 15.886 7.160 C 15.581 6.181,14.825 5.421,13.861 5.124 C 13.548 5.027,13.504 5.024,12.120 5.015 C 11.339 5.010,10.609 5.022,10.499 5.042 M13.310 7.061 C 13.589 7.144,13.856 7.411,13.939 7.690 C 13.992 7.867,14.000 8.441,14.000 12.001 C 14.000 16.458,14.007 16.319,13.779 16.618 C 13.718 16.698,13.585 16.813,13.484 16.872 L 13.300 16.980 12.000 16.980 L 10.700 16.980 10.516 16.872 C 10.303 16.747,10.141 16.550,10.058 16.316 C 9.969 16.062,9.971 7.992,10.061 7.690 C 10.140 7.421,10.412 7.143,10.673 7.063 C 10.952 6.977,13.023 6.975,13.310 7.061 " stroke="none" fill="black" fill-rule="evenodd"></path></svg>