<svg xmlns="http://www.w3.org/2000/svg" width="24" height="24" viewBox="0 0 24 24" fill="none" stroke="currentColor" stroke-width="2" stroke-linecap="round" stroke-linejoin="round" class="icon icon-tabler icons-tabler-outline icon-tabler-arrows-transfer-up"><path d="M16.530 2.083 C 16.393 2.150,16.249 2.252,16.210 2.310 C 16.172 2.369,15.463 3.101,14.635 3.938 C 13.635 4.949,13.099 5.520,13.040 5.637 C 12.863 5.989,12.952 6.354,13.299 6.701 C 13.646 7.048,14.012 7.137,14.363 6.959 C 14.469 6.905,14.832 6.580,15.270 6.147 L 16.000 5.425 16.000 13.322 C 16.000 18.490,16.014 21.270,16.041 21.365 C 16.148 21.750,16.437 21.962,16.896 21.991 C 17.381 22.022,17.699 21.882,17.880 21.558 L 17.980 21.380 17.990 13.403 L 18.001 5.426 18.730 6.147 C 19.168 6.580,19.531 6.905,19.637 6.959 C 19.988 7.137,20.354 7.048,20.701 6.701 C 21.048 6.354,21.137 5.989,20.960 5.637 C 20.901 5.520,20.365 4.949,19.365 3.938 C 18.537 3.101,17.828 2.369,17.789 2.310 C 17.751 2.252,17.604 2.149,17.464 2.082 C 17.120 1.918,16.871 1.918,16.530 2.083 M6.614 2.057 C 6.377 2.131,6.212 2.261,6.109 2.453 C 6.023 2.614,6.020 2.665,6.008 3.908 C 6.000 4.720,6.011 5.254,6.038 5.352 C 6.144 5.747,6.432 5.961,6.896 5.991 C 7.381 6.022,7.699 5.882,7.880 5.558 L 7.980 5.380 7.980 4.000 C 7.980 2.650,7.978 2.616,7.891 2.453 C 7.842 2.362,7.746 2.247,7.678 2.199 C 7.414 2.010,6.957 1.950,6.614 2.057 M6.614 8.057 C 6.377 8.131,6.212 8.261,6.109 8.453 C 6.023 8.614,6.020 8.665,6.008 9.908 C 6.000 10.720,6.011 11.254,6.038 11.352 C 6.144 11.747,6.432 11.961,6.896 11.991 C 7.381 12.022,7.699 11.882,7.880 11.558 L 7.980 11.380 7.980 10.000 C 7.980 8.650,7.978 8.616,7.891 8.453 C 7.842 8.362,7.746 8.247,7.678 8.199 C 7.414 8.010,6.957 7.950,6.614 8.057 M6.614 14.057 C 6.377 14.131,6.212 14.261,6.109 14.453 C 6.021 14.618,6.020 14.640,6.009 16.596 L 5.997 18.572 5.269 17.852 C 4.856 17.443,4.467 17.094,4.372 17.045 C 4.021 16.868,3.640 16.958,3.299 17.299 C 2.952 17.646,2.863 18.011,3.040 18.363 C 3.099 18.480,3.635 19.051,4.635 20.062 C 5.463 20.899,6.174 21.634,6.216 21.697 C 6.318 21.850,6.762 22.049,7.000 22.049 C 7.238 22.049,7.682 21.850,7.784 21.697 C 7.826 21.634,8.537 20.899,9.365 20.062 C 10.365 19.051,10.901 18.480,10.960 18.363 C 11.137 18.011,11.048 17.646,10.701 17.299 C 10.360 16.958,9.979 16.868,9.628 17.045 C 9.533 17.094,9.144 17.443,8.732 17.851 L 8.004 18.572 7.992 16.596 C 7.980 14.640,7.979 14.618,7.891 14.453 C 7.842 14.362,7.746 14.247,7.678 14.199 C 7.414 14.010,6.957 13.950,6.614 14.057 " stroke="none" fill="black" fill-rule="evenodd"></path></svg>