<svg xmlns="http://www.w3.org/2000/svg" width="24" height="24" viewBox="0 0 24 24" fill="none" stroke="currentColor" stroke-width="2" stroke-linecap="round" stroke-linejoin="round" class="icon icon-tabler icons-tabler-outline icon-tabler-arrow-down-right-circle"><path d="M6.860 3.990 C 5.531 4.073,4.401 5.013,4.101 6.287 C 4.025 6.610,4.024 7.299,4.100 7.657 C 4.132 7.809,4.242 8.106,4.345 8.316 C 4.505 8.646,4.584 8.752,4.916 9.084 C 5.248 9.416,5.354 9.495,5.684 9.655 C 5.895 9.758,6.199 9.869,6.360 9.903 C 6.918 10.019,7.642 9.967,8.119 9.776 L 8.288 9.708 11.924 13.344 L 15.560 16.980 14.609 17.000 C 13.686 17.019,13.652 17.023,13.459 17.122 C 13.144 17.284,13.000 17.560,13.000 18.000 C 13.000 18.428,13.144 18.713,13.442 18.880 L 13.620 18.980 15.780 19.007 C 16.968 19.023,17.999 19.036,18.071 19.037 C 18.224 19.040,18.669 18.847,18.768 18.735 C 18.878 18.611,19.041 18.209,19.038 18.069 C 19.036 17.998,19.023 16.968,19.008 15.780 C 18.980 13.649,18.979 13.618,18.891 13.453 C 18.689 13.076,18.138 12.902,17.629 13.055 C 17.378 13.131,17.215 13.256,17.109 13.453 C 17.026 13.609,17.019 13.684,17.000 14.590 L 16.980 15.560 13.349 11.929 L 9.719 8.299 9.817 8.049 C 9.963 7.675,10.014 7.384,10.010 6.940 C 9.994 5.244,8.544 3.885,6.860 3.990 M7.578 6.150 C 7.666 6.212,7.792 6.340,7.859 6.435 C 7.966 6.587,7.981 6.645,7.993 6.933 C 8.004 7.243,7.998 7.271,7.873 7.479 C 7.691 7.778,7.440 7.931,7.094 7.953 C 6.769 7.974,6.541 7.892,6.325 7.675 C 5.880 7.230,5.964 6.471,6.494 6.143 C 6.827 5.938,7.280 5.941,7.578 6.150 " stroke="none" fill="black" fill-rule="evenodd"></path></svg>