<svg xmlns="http://www.w3.org/2000/svg" width="24" height="24" viewBox="0 0 24 24" fill="none" stroke="currentColor" stroke-width="2" stroke-linecap="round" stroke-linejoin="round" class="icon icon-tabler icons-tabler-outline icon-tabler-eye"><path d="M11.160 5.043 C 7.815 5.297,4.962 7.199,2.619 10.738 C 2.100 11.523,2.001 11.724,2.001 12.000 C 2.001 12.276,2.100 12.477,2.619 13.262 C 4.132 15.547,5.851 17.148,7.771 18.060 C 9.808 19.027,12.212 19.258,14.441 18.699 C 17.143 18.021,19.383 16.259,21.421 13.207 C 21.652 12.862,21.881 12.529,21.930 12.467 C 22.008 12.369,22.020 12.307,22.020 12.000 C 22.020 11.693,22.008 11.631,21.930 11.533 C 21.881 11.471,21.652 11.138,21.421 10.793 C 20.686 9.692,20.197 9.080,19.403 8.266 C 18.365 7.201,17.130 6.324,15.960 5.818 C 14.465 5.172,12.866 4.914,11.160 5.043 M13.209 7.098 C 14.011 7.221,14.582 7.400,15.385 7.781 C 16.918 8.508,18.342 9.818,19.573 11.635 C 19.698 11.819,19.800 11.984,19.800 12.000 C 19.800 12.041,19.401 12.627,19.106 13.020 C 18.287 14.110,17.246 15.107,16.272 15.734 C 14.552 16.841,12.497 17.240,10.500 16.854 C 8.266 16.423,6.309 15.017,4.605 12.620 C 4.198 12.048,4.185 12.023,4.244 11.910 C 4.320 11.765,4.894 10.970,5.188 10.600 C 5.576 10.114,6.435 9.243,6.885 8.881 C 7.448 8.426,8.021 8.063,8.615 7.781 C 9.453 7.383,10.146 7.174,10.927 7.083 C 11.132 7.059,11.363 7.032,11.440 7.023 C 11.707 6.992,12.822 7.039,13.209 7.098 M11.499 9.040 C 10.363 9.246,9.460 10.049,9.114 11.160 C 8.979 11.594,8.979 12.406,9.114 12.840 C 9.421 13.826,10.174 14.579,11.160 14.886 C 11.594 15.021,12.406 15.021,12.840 14.886 C 13.826 14.579,14.579 13.826,14.886 12.840 C 15.021 12.406,15.021 11.594,14.886 11.160 C 14.581 10.179,13.810 9.407,12.861 9.129 C 12.500 9.023,11.832 8.980,11.499 9.040 M12.310 11.061 C 12.688 11.173,13.000 11.598,13.000 12.001 C 13.000 12.331,12.784 12.696,12.484 12.872 C 12.328 12.963,12.254 12.980,12.000 12.980 C 11.746 12.980,11.672 12.963,11.516 12.872 C 10.935 12.530,10.833 11.774,11.304 11.303 C 11.583 11.024,11.916 10.944,12.310 11.061 " stroke="none" fill="black" fill-rule="evenodd"></path></svg>