<svg xmlns="http://www.w3.org/2000/svg" width="24" height="24" viewBox="0 0 24 24" fill="none" stroke="currentColor" stroke-width="2" stroke-linecap="round" stroke-linejoin="round" class="icon icon-tabler icons-tabler-outline icon-tabler-currency-lyd"><path d="M20.614 4.057 C 20.377 4.131,20.212 4.261,20.109 4.453 L 20.020 4.620 20.000 9.940 C 19.984 14.076,19.969 15.285,19.930 15.373 C 19.842 15.572,19.672 15.761,19.484 15.872 L 19.300 15.980 17.711 15.992 C 16.670 15.999,16.066 15.989,15.962 15.961 C 15.623 15.869,15.490 15.714,15.100 14.960 C 14.709 14.204,14.563 14.034,14.249 13.975 C 13.895 13.909,13.330 14.156,13.100 14.479 C 12.995 14.627,12.980 14.681,12.980 14.922 C 12.980 15.188,12.992 15.220,13.331 15.895 C 13.524 16.279,13.761 16.695,13.857 16.819 C 14.323 17.418,15.008 17.829,15.763 17.960 C 15.940 17.991,16.596 18.001,17.802 17.991 C 19.532 17.977,19.588 17.974,19.860 17.884 C 20.845 17.560,21.581 16.817,21.886 15.840 L 21.980 15.540 21.980 10.080 L 21.980 4.620 21.891 4.453 C 21.842 4.362,21.746 4.247,21.678 4.199 C 21.414 4.010,20.957 3.950,20.614 4.057 M4.692 7.044 C 4.446 7.139,4.091 7.445,4.014 7.628 C 3.939 7.807,3.946 8.043,4.033 8.270 C 4.073 8.374,4.750 9.548,5.538 10.878 C 6.503 12.508,6.976 13.343,6.989 13.442 C 7.015 13.631,6.906 13.865,6.757 13.942 C 6.666 13.989,6.424 14.000,5.506 14.000 L 4.369 14.000 3.997 13.596 C 3.556 13.118,3.313 12.961,3.020 12.961 C 2.658 12.962,2.271 13.220,2.065 13.597 C 1.931 13.844,1.920 14.077,2.030 14.327 C 2.130 14.553,3.002 15.487,3.301 15.687 C 3.723 15.971,3.791 15.980,5.480 15.980 C 6.915 15.980,6.992 15.976,7.260 15.892 C 8.017 15.653,8.617 15.061,8.868 14.303 C 8.959 14.027,8.976 13.909,8.978 13.500 C 8.980 13.099,8.964 12.973,8.885 12.731 C 8.817 12.522,8.381 11.749,7.319 9.951 C 6.509 8.581,5.781 7.383,5.700 7.289 C 5.420 6.964,5.102 6.886,4.692 7.044 M10.614 14.055 C 10.220 14.184,10.039 14.437,10.009 14.900 C 9.978 15.381,10.119 15.699,10.442 15.880 C 10.597 15.967,10.669 15.980,11.000 15.980 C 11.312 15.980,11.408 15.964,11.540 15.894 C 11.866 15.718,12.000 15.459,12.000 15.000 C 12.000 14.357,11.713 14.048,11.083 14.016 C 10.893 14.006,10.718 14.021,10.614 14.055 " stroke="none" fill="black" fill-rule="evenodd"></path></svg>