<svg xmlns="http://www.w3.org/2000/svg" width="24" height="24" viewBox="0 0 24 24" fill="none" stroke="currentColor" stroke-width="2" stroke-linecap="round" stroke-linejoin="round" class="icon icon-tabler icons-tabler-outline icon-tabler-layout-align-middle"><path d="M10.499 5.042 C 9.382 5.237,8.482 6.030,8.116 7.140 C 8.026 7.413,8.023 7.467,8.009 9.210 L 7.995 11.000 5.904 11.000 C 3.674 11.000,3.592 11.006,3.322 11.199 C 3.100 11.357,3.020 11.568,3.020 12.000 C 3.020 12.331,3.033 12.403,3.120 12.558 C 3.230 12.755,3.414 12.898,3.635 12.959 C 3.724 12.984,4.599 13.000,5.887 13.000 L 7.995 13.000 8.009 14.790 C 8.023 16.533,8.026 16.587,8.116 16.860 C 8.440 17.845,9.183 18.581,10.160 18.886 C 10.453 18.978,10.497 18.980,12.000 18.980 C 13.503 18.980,13.547 18.978,13.840 18.886 C 14.817 18.581,15.560 17.845,15.884 16.860 C 15.974 16.587,15.977 16.533,15.991 14.790 L 16.005 13.000 18.113 13.000 C 19.401 13.000,20.276 12.984,20.365 12.959 C 20.586 12.898,20.770 12.755,20.880 12.558 C 20.967 12.402,20.980 12.332,20.979 12.000 C 20.978 11.567,20.898 11.355,20.678 11.199 C 20.408 11.006,20.326 11.000,18.096 11.000 L 16.005 11.000 15.991 9.210 C 15.977 7.467,15.974 7.413,15.884 7.140 C 15.562 6.162,14.815 5.418,13.861 5.124 C 13.548 5.027,13.504 5.024,12.120 5.015 C 11.339 5.010,10.609 5.022,10.499 5.042 M13.310 7.061 C 13.589 7.144,13.856 7.411,13.939 7.690 C 13.992 7.867,14.000 8.441,14.000 12.001 C 14.000 16.458,14.007 16.319,13.779 16.618 C 13.718 16.698,13.585 16.813,13.484 16.872 L 13.300 16.980 12.000 16.980 L 10.700 16.980 10.516 16.872 C 10.303 16.747,10.141 16.550,10.058 16.316 C 9.969 16.062,9.971 7.992,10.061 7.690 C 10.140 7.421,10.412 7.143,10.673 7.063 C 10.952 6.977,13.023 6.975,13.310 7.061 " stroke="none" fill="black" fill-rule="evenodd"></path></svg>