<svg xmlns="http://www.w3.org/2000/svg" width="24" height="24" viewBox="0 0 24 24" fill="none" stroke="currentColor" stroke-width="2" stroke-linecap="round" stroke-linejoin="round" class="icon icon-tabler icons-tabler-outline icon-tabler-circle-arrow-down"><path d="M11.080 2.045 C 9.507 2.184,7.883 2.751,6.540 3.630 C 5.905 4.045,5.499 4.378,4.919 4.958 C 2.953 6.926,1.919 9.544,2.013 12.320 C 2.084 14.439,2.752 16.328,4.033 18.040 C 4.430 18.570,5.305 19.464,5.800 19.847 C 7.242 20.961,8.787 21.624,10.600 21.907 C 11.247 22.008,12.753 22.008,13.400 21.907 C 15.638 21.557,17.504 20.620,19.062 19.062 C 20.620 17.504,21.557 15.638,21.907 13.400 C 22.008 12.753,22.008 11.247,21.907 10.600 C 21.624 8.786,20.959 7.238,19.847 5.800 C 19.510 5.365,18.639 4.494,18.200 4.154 C 16.133 2.555,13.646 1.818,11.080 2.045 M12.734 4.041 C 14.574 4.216,16.228 4.976,17.554 6.256 C 20.043 8.658,20.702 12.394,19.183 15.499 C 18.749 16.387,18.223 17.105,17.496 17.801 C 16.876 18.394,16.262 18.819,15.471 19.200 C 13.267 20.265,10.733 20.265,8.529 19.200 C 7.477 18.693,6.612 18.015,5.847 17.100 C 3.848 14.711,3.440 11.302,4.816 8.500 C 6.162 5.760,8.867 4.049,11.920 4.005 C 12.129 4.003,12.495 4.019,12.734 4.041 M11.614 7.057 C 11.377 7.131,11.212 7.261,11.109 7.453 L 11.020 7.620 11.009 10.598 L 10.998 13.575 9.769 12.352 C 9.000 11.588,8.477 11.098,8.372 11.045 C 8.020 10.868,7.639 10.958,7.299 11.299 C 6.952 11.646,6.863 12.011,7.040 12.363 C 7.101 12.484,7.766 13.182,9.134 14.561 C 10.237 15.673,11.174 16.634,11.215 16.696 C 11.322 16.856,11.750 17.049,12.000 17.049 C 12.250 17.049,12.678 16.856,12.785 16.696 C 12.826 16.634,13.763 15.673,14.866 14.561 C 16.234 13.182,16.899 12.484,16.960 12.363 C 17.137 12.011,17.048 11.646,16.701 11.299 C 16.361 10.958,15.980 10.868,15.628 11.045 C 15.523 11.098,15.000 11.587,14.231 12.352 L 13.002 13.575 12.991 10.597 L 12.980 7.620 12.891 7.453 C 12.842 7.362,12.746 7.247,12.678 7.199 C 12.414 7.010,11.957 6.950,11.614 7.057 " stroke="none" fill="black" fill-rule="evenodd"></path></svg>