<svg xmlns="http://www.w3.org/2000/svg" width="24" height="24" viewBox="0 0 24 24" fill="none" stroke="currentColor" stroke-width="2" stroke-linecap="round" stroke-linejoin="round" class="icon icon-tabler icons-tabler-outline icon-tabler-brand-webflow"><path d="M13.180 5.056 C 11.914 5.219,11.018 5.651,10.158 6.516 C 9.461 7.217,9.044 7.931,8.440 9.460 C 8.257 9.922,8.096 10.314,8.080 10.332 C 8.065 10.350,8.030 10.170,8.004 9.932 C 7.844 8.502,7.378 7.493,6.443 6.556 C 5.767 5.877,4.988 5.418,4.100 5.174 C 3.666 5.055,2.877 5.004,2.608 5.077 C 2.249 5.175,2.000 5.539,2.000 5.967 C 2.000 6.178,3.990 19.092,4.062 19.347 C 4.132 19.597,4.273 19.773,4.495 19.892 C 4.644 19.972,4.715 19.980,5.240 19.977 C 6.611 19.970,8.057 19.500,9.200 18.689 C 9.665 18.360,10.380 17.652,10.690 17.215 C 10.952 16.846,11.282 16.238,11.446 15.822 C 11.507 15.667,11.558 15.558,11.559 15.581 C 11.559 15.603,11.666 16.449,11.796 17.461 C 11.942 18.599,12.058 19.365,12.101 19.471 C 12.138 19.565,12.241 19.703,12.328 19.778 C 12.554 19.971,12.788 20.017,13.398 19.987 C 15.893 19.865,18.052 18.512,19.193 16.357 C 19.407 15.953,22.927 6.457,23.011 6.059 C 23.045 5.896,23.043 5.808,23.003 5.674 C 22.900 5.327,22.405 5.000,21.983 5.000 C 21.662 5.000,20.984 5.081,20.639 5.160 C 19.208 5.488,17.946 6.414,16.983 7.840 C 16.696 8.265,16.223 9.211,16.017 9.773 C 15.930 10.008,15.851 10.200,15.840 10.200 C 15.829 10.200,15.633 9.215,15.405 8.010 C 15.176 6.805,14.963 5.739,14.931 5.640 C 14.850 5.394,14.707 5.216,14.508 5.112 C 14.298 5.003,13.768 4.981,13.180 5.056 M13.200 7.114 C 13.200 7.133,13.390 8.145,13.621 9.364 C 13.853 10.583,14.158 12.207,14.300 12.974 C 14.452 13.802,14.587 14.427,14.632 14.514 C 14.749 14.742,14.994 14.904,15.334 14.980 C 15.577 15.034,15.661 15.037,15.805 14.999 C 16.168 14.901,16.299 14.729,16.553 14.019 C 17.076 12.559,18.005 10.178,18.238 9.700 C 18.567 9.028,18.907 8.537,19.346 8.103 C 19.649 7.802,20.313 7.335,20.392 7.366 C 20.443 7.386,17.561 15.178,17.382 15.505 C 16.918 16.353,16.110 17.107,15.221 17.524 C 14.902 17.674,14.326 17.859,14.036 17.905 C 13.890 17.929,13.885 17.925,13.862 17.795 C 13.849 17.721,13.643 16.094,13.405 14.179 C 12.934 10.399,12.953 10.503,12.666 10.251 C 12.401 10.018,11.803 9.913,11.536 10.052 C 11.394 10.127,11.229 10.300,11.149 10.460 C 11.116 10.526,10.745 11.610,10.326 12.868 C 9.906 14.127,9.497 15.288,9.416 15.448 C 8.882 16.513,7.901 17.345,6.740 17.717 C 6.344 17.844,5.893 17.947,5.863 17.916 C 5.835 17.888,4.235 7.475,4.249 7.411 C 4.266 7.332,4.760 7.679,5.046 7.972 C 5.479 8.414,5.780 8.936,5.900 9.453 C 5.953 9.682,6.305 12.630,6.462 14.160 C 6.501 14.536,6.553 14.843,6.596 14.940 C 6.815 15.436,7.655 15.692,8.057 15.385 C 8.137 15.324,8.244 15.208,8.294 15.127 C 8.345 15.046,8.878 13.747,9.479 12.240 C 10.081 10.733,10.662 9.320,10.772 9.100 C 11.314 8.009,11.876 7.471,12.780 7.175 C 13.080 7.077,13.200 7.060,13.200 7.114 " stroke="none" fill="black" fill-rule="evenodd"></path></svg>