<svg xmlns="http://www.w3.org/2000/svg" width="24" height="24" viewBox="0 0 24 24" fill="none" stroke="currentColor" stroke-width="2" stroke-linecap="round" stroke-linejoin="round" class="icon icon-tabler icons-tabler-outline icon-tabler-arrow-narrow-down"><path d="M11.614 4.057 C 11.377 4.131,11.212 4.261,11.109 4.453 L 11.020 4.620 11.009 10.598 L 10.999 16.576 9.769 15.353 C 9.001 14.588,8.477 14.098,8.372 14.045 C 8.020 13.868,7.639 13.958,7.299 14.299 C 6.952 14.646,6.863 15.011,7.040 15.363 C 7.101 15.484,7.766 16.182,9.134 17.561 C 10.237 18.673,11.174 19.634,11.215 19.696 C 11.322 19.856,11.750 20.049,12.000 20.049 C 12.250 20.049,12.678 19.856,12.785 19.696 C 12.826 19.634,13.763 18.673,14.866 17.561 C 16.234 16.182,16.899 15.484,16.960 15.363 C 17.137 15.011,17.048 14.646,16.701 14.299 C 16.361 13.958,15.980 13.868,15.628 14.045 C 15.523 14.098,14.999 14.588,14.231 15.353 L 13.001 16.576 12.991 10.598 L 12.980 4.620 12.891 4.453 C 12.842 4.362,12.746 4.247,12.678 4.199 C 12.414 4.010,11.957 3.950,11.614 4.057 " stroke="none" fill="black" fill-rule="evenodd"></path></svg>