<svg xmlns="http://www.w3.org/2000/svg" width="24" height="24" viewBox="0 0 24 24" fill="none" stroke="currentColor" stroke-width="2" stroke-linecap="round" stroke-linejoin="round" class="icon icon-tabler icons-tabler-outline icon-tabler-user-bolt"><path d="M11.400 2.044 C 9.761 2.229,8.261 3.290,7.526 4.785 C 7.158 5.533,7.020 6.136,7.020 7.000 C 7.020 7.670,7.078 8.044,7.268 8.600 C 7.846 10.291,9.253 11.525,11.040 11.907 C 11.511 12.008,12.489 12.008,12.960 11.907 C 14.488 11.580,15.748 10.630,16.433 9.288 C 16.838 8.494,16.980 7.899,16.980 7.000 C 16.980 6.101,16.838 5.506,16.433 4.713 C 15.794 3.461,14.604 2.510,13.240 2.162 C 12.669 2.016,12.019 1.974,11.400 2.044 M12.861 4.129 C 13.804 4.405,14.584 5.183,14.875 6.139 C 14.958 6.412,14.973 6.542,14.973 7.000 C 14.973 7.458,14.958 7.588,14.875 7.861 C 14.582 8.822,13.819 9.581,12.840 9.886 C 12.406 10.021,11.594 10.021,11.160 9.886 C 10.181 9.581,9.418 8.822,9.125 7.861 C 9.042 7.588,9.027 7.458,9.027 7.000 C 9.027 6.542,9.042 6.412,9.125 6.139 C 9.456 5.054,10.371 4.245,11.499 4.040 C 11.832 3.980,12.500 4.023,12.861 4.129 M9.400 14.044 C 7.761 14.229,6.261 15.290,5.526 16.785 C 5.344 17.154,5.194 17.581,5.097 18.000 C 5.041 18.245,5.025 18.563,5.011 19.744 C 5.000 20.701,5.008 21.243,5.037 21.348 C 5.144 21.748,5.430 21.961,5.896 21.991 C 6.381 22.022,6.699 21.882,6.880 21.558 L 6.980 21.380 7.003 19.920 C 7.026 18.520,7.031 18.447,7.125 18.139 C 7.420 17.173,8.215 16.388,9.178 16.112 C 9.498 16.021,9.514 16.020,11.920 16.020 C 13.251 16.020,14.494 16.036,14.683 16.055 C 15.082 16.096,15.253 16.056,15.461 15.873 C 15.704 15.660,15.856 15.076,15.760 14.720 C 15.655 14.325,15.287 14.120,14.540 14.040 C 14.105 13.993,9.823 13.996,9.400 14.044 M18.620 15.026 C 18.554 15.061,18.448 15.137,18.385 15.195 C 18.251 15.318,16.144 18.459,16.035 18.698 C 15.944 18.898,15.939 19.204,16.024 19.382 C 16.059 19.456,16.168 19.591,16.266 19.681 C 16.585 19.975,16.597 19.978,17.930 20.000 L 19.120 20.020 18.615 20.777 C 18.033 21.649,17.962 21.788,17.961 22.054 C 17.960 22.304,18.044 22.477,18.266 22.681 C 18.749 23.127,19.289 23.155,19.665 22.754 C 19.872 22.534,21.885 19.481,21.950 19.289 C 22.073 18.929,21.941 18.385,21.686 18.204 C 21.441 18.030,21.382 18.022,20.110 18.001 L 18.880 17.980 19.385 17.223 C 19.967 16.351,20.038 16.212,20.039 15.946 C 20.040 15.696,19.956 15.523,19.734 15.319 C 19.383 14.996,18.913 14.872,18.620 15.026 " stroke="none" fill="black" fill-rule="evenodd"></path></svg>