<svg xmlns="http://www.w3.org/2000/svg" width="24" height="24" viewBox="0 0 24 24" fill="none" stroke="currentColor" stroke-width="2" stroke-linecap="round" stroke-linejoin="round" class="icon icon-tabler icons-tabler-outline icon-tabler-bookmark-ai"><path d="M9.400 2.044 C 7.761 2.229,6.261 3.290,5.526 4.785 C 5.347 5.148,5.197 5.571,5.094 6.000 C 5.027 6.282,5.022 6.748,5.011 13.718 C 4.997 22.009,4.974 21.343,5.287 21.698 C 5.580 22.032,5.944 22.127,6.302 21.965 C 6.467 21.890,10.452 19.249,10.736 19.026 C 10.940 18.866,11.097 18.531,11.069 18.319 C 11.019 17.948,10.677 17.462,10.378 17.337 C 10.215 17.269,9.981 17.264,9.796 17.325 C 9.721 17.349,9.111 17.733,8.440 18.177 C 7.769 18.622,7.170 19.018,7.109 19.058 L 6.998 19.130 7.009 12.795 L 7.020 6.460 7.121 6.139 C 7.430 5.164,8.217 4.387,9.178 4.112 C 9.499 4.020,9.510 4.020,12.000 4.020 C 14.490 4.020,14.501 4.020,14.822 4.112 C 15.784 4.388,16.574 5.168,16.877 6.139 L 16.977 6.460 16.999 9.160 C 17.022 12.122,17.012 12.011,17.265 12.248 C 17.445 12.417,17.659 12.487,18.000 12.488 C 18.530 12.491,18.866 12.261,18.960 11.833 C 18.993 11.679,19.002 10.882,18.990 8.960 C 18.977 6.595,18.967 6.267,18.904 6.000 C 18.593 4.674,17.847 3.566,16.800 2.874 C 16.046 2.375,15.396 2.135,14.552 2.043 C 14.092 1.992,9.849 1.994,9.400 2.044 M15.499 14.040 C 14.374 14.244,13.485 15.027,13.115 16.140 C 13.022 16.419,13.022 16.432,13.009 18.808 C 13.000 20.389,13.010 21.249,13.038 21.352 C 13.144 21.747,13.432 21.961,13.896 21.991 C 14.381 22.022,14.699 21.882,14.880 21.558 C 14.974 21.391,14.981 21.338,14.994 20.690 L 15.008 20.000 16.004 20.000 L 17.000 20.000 17.000 20.610 C 17.000 20.946,17.019 21.285,17.041 21.365 C 17.148 21.750,17.437 21.962,17.896 21.991 C 18.381 22.022,18.699 21.882,18.880 21.558 L 18.980 21.380 18.980 18.920 L 18.980 16.460 18.886 16.160 C 18.580 15.178,17.810 14.407,16.861 14.129 C 16.500 14.023,15.832 13.980,15.499 14.040 M20.614 14.057 C 20.377 14.131,20.212 14.261,20.109 14.453 L 20.020 14.620 20.009 17.912 C 20.002 20.060,20.012 21.257,20.039 21.356 C 20.144 21.747,20.434 21.961,20.896 21.991 C 21.381 22.022,21.699 21.882,21.880 21.558 L 21.980 21.380 21.980 18.000 L 21.980 14.620 21.891 14.453 C 21.842 14.362,21.746 14.247,21.678 14.199 C 21.414 14.010,20.957 13.950,20.614 14.057 M16.334 16.064 C 16.446 16.102,16.593 16.200,16.700 16.306 C 16.948 16.554,17.000 16.753,17.000 17.447 L 17.000 18.000 16.000 18.000 L 15.000 18.000 15.000 17.447 C 15.000 16.753,15.052 16.554,15.301 16.306 C 15.587 16.019,15.952 15.934,16.334 16.064 " stroke="none" fill="black" fill-rule="evenodd"></path></svg>