<svg xmlns="http://www.w3.org/2000/svg" width="24" height="24" viewBox="0 0 24 24" fill="none" stroke="currentColor" stroke-width="2" stroke-linecap="round" stroke-linejoin="round" class="icon icon-tabler icons-tabler-outline icon-tabler-clock-star"><path d="M11.080 2.045 C 7.233 2.385,3.845 5.028,2.568 8.685 C 2.166 9.836,2.022 10.712,2.022 12.000 C 2.022 13.038,2.071 13.479,2.285 14.355 C 2.830 16.588,4.160 18.613,5.980 19.980 C 7.390 21.040,8.935 21.669,10.752 21.923 C 11.224 21.989,11.510 21.928,11.750 21.709 C 11.993 21.486,12.092 20.773,11.926 20.435 C 11.768 20.114,11.578 20.027,10.760 19.898 C 7.963 19.459,5.619 17.578,4.562 14.925 C 3.747 12.880,3.835 10.509,4.797 8.543 C 5.955 6.179,8.086 4.569,10.660 4.116 C 11.319 4.000,12.534 3.991,13.198 4.096 C 15.835 4.515,18.015 6.126,19.196 8.531 C 19.609 9.370,19.865 10.285,19.960 11.260 C 19.983 11.502,20.030 11.784,20.064 11.887 C 20.188 12.269,20.585 12.478,21.085 12.426 C 21.502 12.382,21.733 12.243,21.892 11.940 C 22.031 11.674,22.000 11.050,21.794 10.000 C 21.229 7.113,19.301 4.550,16.637 3.145 C 14.964 2.263,13.004 1.875,11.080 2.045 M11.614 6.057 C 11.377 6.131,11.212 6.261,11.109 6.453 L 11.020 6.620 11.020 9.460 L 11.020 12.300 11.126 12.480 C 11.272 12.727,12.416 13.847,12.637 13.959 C 12.988 14.137,13.353 14.049,13.701 13.701 C 14.048 13.354,14.137 12.988,13.960 12.639 C 13.910 12.543,13.675 12.264,13.436 12.020 L 13.003 11.576 12.991 9.098 C 12.980 6.623,12.980 6.620,12.891 6.453 C 12.842 6.362,12.746 6.247,12.678 6.199 C 12.414 6.010,11.957 5.950,11.614 6.057 M17.372 13.072 C 17.112 13.165,16.870 13.331,16.723 13.517 C 16.661 13.596,16.403 14.074,16.150 14.580 L 15.689 15.501 14.657 15.651 C 13.546 15.812,13.351 15.870,13.063 16.122 C 12.745 16.402,12.575 16.831,12.611 17.267 C 12.646 17.710,12.753 17.864,13.623 18.726 C 14.233 19.330,14.399 19.517,14.384 19.580 C 14.373 19.624,14.289 20.107,14.197 20.653 L 14.030 21.645 14.095 21.913 C 14.262 22.595,14.870 23.044,15.552 22.989 C 15.821 22.968,16.039 22.871,17.330 22.198 L 17.800 21.953 18.270 22.198 C 19.561 22.871,19.779 22.968,20.048 22.989 C 20.724 23.043,21.333 22.598,21.503 21.925 C 21.576 21.635,21.580 21.680,21.357 20.400 L 21.200 19.500 21.979 18.726 C 22.844 17.867,22.944 17.722,22.986 17.276 C 23.027 16.835,22.860 16.406,22.537 16.122 C 22.249 15.870,22.054 15.812,20.943 15.651 L 19.911 15.501 19.434 14.548 C 18.905 13.491,18.773 13.315,18.370 13.130 C 18.069 12.992,17.662 12.969,17.372 13.072 M18.121 16.405 C 18.445 17.059,18.612 17.261,18.907 17.352 C 18.991 17.378,19.336 17.439,19.672 17.487 L 20.285 17.574 19.787 18.077 C 19.512 18.354,19.259 18.638,19.223 18.709 C 19.109 18.939,19.107 19.150,19.216 19.772 C 19.273 20.097,19.320 20.390,19.320 20.423 C 19.320 20.465,19.131 20.386,18.690 20.158 C 18.091 19.848,18.047 19.832,17.800 19.832 C 17.553 19.832,17.509 19.848,16.910 20.158 C 16.417 20.412,16.280 20.468,16.280 20.415 C 16.280 20.378,16.327 20.084,16.384 19.763 C 16.493 19.150,16.492 18.939,16.377 18.709 C 16.341 18.638,16.088 18.354,15.813 18.077 L 15.315 17.574 15.928 17.487 C 16.264 17.439,16.609 17.378,16.693 17.352 C 16.988 17.261,17.155 17.059,17.479 16.405 C 17.643 16.072,17.788 15.800,17.800 15.800 C 17.812 15.800,17.957 16.072,18.121 16.405 " stroke="none" fill="black" fill-rule="evenodd"></path></svg>