<svg xmlns="http://www.w3.org/2000/svg" width="24" height="24" viewBox="0 0 24 24" fill="none" stroke="currentColor" stroke-width="2" stroke-linecap="round" stroke-linejoin="round" class="icon icon-tabler icons-tabler-outline icon-tabler-letter-m"><path d="M17.577 3.033 C 17.488 3.075,17.357 3.179,17.288 3.263 C 17.201 3.368,16.352 5.305,14.594 9.408 C 13.181 12.704,12.014 15.400,12.000 15.400 C 11.986 15.400,10.823 12.714,9.417 9.430 C 6.990 3.764,6.851 3.451,6.678 3.276 C 6.463 3.059,6.203 2.976,5.849 3.013 C 5.432 3.056,5.139 3.282,5.041 3.635 C 4.985 3.835,4.985 20.165,5.041 20.365 C 5.148 20.750,5.437 20.962,5.896 20.991 C 6.381 21.022,6.699 20.882,6.880 20.558 L 6.980 20.380 7.000 14.650 L 7.020 8.919 9.091 13.752 C 10.499 17.038,11.202 18.633,11.288 18.737 C 11.430 18.909,11.676 19.038,11.866 19.039 C 11.935 19.040,12.112 19.003,12.260 18.957 C 12.779 18.797,12.598 19.152,14.920 13.730 L 16.980 8.919 17.000 14.650 L 17.020 20.380 17.120 20.558 C 17.287 20.856,17.572 21.000,18.000 21.000 C 18.428 21.000,18.713 20.856,18.880 20.558 L 18.980 20.380 18.990 12.102 C 19.002 2.786,19.029 3.578,18.695 3.284 C 18.383 3.010,17.872 2.895,17.577 3.033 " stroke="none" fill="black" fill-rule="evenodd"></path></svg>