<svg xmlns="http://www.w3.org/2000/svg" width="24" height="24" viewBox="0 0 24 24" fill="none" stroke="currentColor" stroke-width="2" stroke-linecap="round" stroke-linejoin="round" class="icon icon-tabler icons-tabler-outline icon-tabler-arrow-bar-right"><path d="M3.614 3.057 C 3.377 3.131,3.212 3.261,3.109 3.453 L 3.020 3.620 3.010 11.914 C 3.003 17.391,3.013 20.260,3.040 20.358 C 3.144 20.747,3.434 20.962,3.896 20.991 C 4.381 21.022,4.699 20.882,4.880 20.558 L 4.980 20.380 4.980 12.000 L 4.980 3.620 4.891 3.453 C 4.842 3.362,4.746 3.247,4.678 3.199 C 4.414 3.010,3.957 2.950,3.614 3.057 M15.626 7.045 C 15.257 7.239,14.951 7.673,14.951 8.000 C 14.951 8.333,15.056 8.467,16.353 9.770 L 17.577 11.000 13.695 11.000 C 9.539 11.000,9.605 10.997,9.322 11.199 C 9.100 11.357,9.020 11.568,9.020 12.000 C 9.020 12.331,9.033 12.403,9.120 12.558 C 9.230 12.755,9.414 12.898,9.635 12.959 C 9.728 12.985,11.190 13.000,13.679 13.000 L 17.577 13.000 16.353 14.230 C 15.548 15.039,15.099 15.521,15.040 15.637 C 14.863 15.989,14.952 16.354,15.299 16.701 C 15.646 17.048,16.011 17.137,16.363 16.960 C 16.484 16.899,17.182 16.234,18.561 14.866 C 19.673 13.763,20.634 12.826,20.696 12.785 C 20.856 12.678,21.049 12.250,21.049 12.000 C 21.049 11.734,20.858 11.325,20.675 11.200 C 20.601 11.150,19.640 10.213,18.540 9.118 C 17.232 7.817,16.482 7.099,16.372 7.044 C 16.152 6.934,15.835 6.935,15.626 7.045 " stroke="none" fill="black" fill-rule="evenodd"></path></svg>