<svg xmlns="http://www.w3.org/2000/svg" width="24" height="24" viewBox="0 0 24 24" fill="none" stroke="currentColor" stroke-width="2" stroke-linecap="round" stroke-linejoin="round" class="icon icon-tabler icons-tabler-outline icon-tabler-grid-4x4"><path d="M5.614 2.057 C 5.377 2.131,5.212 2.261,5.109 2.453 C 5.024 2.613,5.020 2.668,5.008 3.810 L 4.996 5.000 3.904 5.000 C 2.744 5.000,2.570 5.022,2.322 5.199 C 2.100 5.357,2.020 5.568,2.020 6.000 C 2.020 6.331,2.033 6.403,2.120 6.558 C 2.230 6.755,2.414 6.898,2.635 6.959 C 2.716 6.982,3.270 7.000,3.890 7.000 L 5.000 7.000 5.000 9.000 L 5.000 11.000 3.906 11.000 C 2.744 11.000,2.570 11.022,2.322 11.199 C 2.100 11.357,2.020 11.568,2.020 12.000 C 2.020 12.331,2.033 12.403,2.120 12.558 C 2.230 12.755,2.414 12.898,2.635 12.959 C 2.716 12.982,3.270 13.000,3.890 13.000 L 5.000 13.000 5.000 15.000 L 5.000 17.000 3.906 17.000 C 2.744 17.000,2.570 17.022,2.322 17.199 C 2.100 17.357,2.020 17.568,2.020 18.000 C 2.020 18.331,2.033 18.403,2.120 18.558 C 2.230 18.755,2.414 18.898,2.635 18.959 C 2.716 18.982,3.270 19.000,3.890 19.000 L 5.000 19.000 5.000 20.110 C 5.000 20.730,5.018 21.284,5.041 21.365 C 5.148 21.750,5.437 21.962,5.896 21.991 C 6.381 22.022,6.699 21.882,6.880 21.558 C 6.979 21.381,6.980 21.374,6.993 20.190 L 7.005 19.000 9.003 19.000 L 11.000 19.000 11.000 20.110 C 11.000 20.730,11.018 21.284,11.041 21.365 C 11.148 21.750,11.437 21.962,11.896 21.991 C 12.381 22.022,12.699 21.882,12.880 21.558 C 12.979 21.381,12.980 21.374,12.993 20.190 L 13.005 19.000 15.003 19.000 L 17.000 19.000 17.000 20.110 C 17.000 20.730,17.018 21.284,17.041 21.365 C 17.148 21.750,17.437 21.962,17.896 21.991 C 18.381 22.022,18.699 21.882,18.880 21.558 C 18.979 21.381,18.980 21.374,18.993 20.190 L 19.005 19.000 20.113 19.000 C 20.731 19.000,21.284 18.982,21.365 18.959 C 21.586 18.898,21.770 18.755,21.880 18.558 C 21.967 18.402,21.980 18.332,21.979 18.000 C 21.978 17.567,21.898 17.355,21.678 17.199 C 21.430 17.022,21.256 17.000,20.094 17.000 L 19.000 17.000 19.000 15.000 L 19.000 13.000 20.110 13.000 C 20.730 13.000,21.284 12.982,21.365 12.959 C 21.586 12.898,21.770 12.755,21.880 12.558 C 21.967 12.402,21.980 12.332,21.979 12.000 C 21.978 11.567,21.898 11.355,21.678 11.199 C 21.430 11.022,21.256 11.000,20.094 11.000 L 19.000 11.000 19.000 9.000 L 19.000 7.000 20.110 7.000 C 20.730 7.000,21.284 6.982,21.365 6.959 C 21.586 6.898,21.770 6.755,21.880 6.558 C 21.967 6.402,21.980 6.332,21.979 6.000 C 21.978 5.567,21.898 5.355,21.678 5.199 C 21.430 5.022,21.256 5.000,20.096 5.000 L 19.005 5.000 18.993 3.810 C 18.980 2.662,18.977 2.614,18.889 2.450 C 18.724 2.140,18.329 1.970,17.874 2.011 C 17.439 2.051,17.141 2.274,17.041 2.635 C 17.018 2.716,17.000 3.270,17.000 3.890 L 17.000 5.000 15.003 5.000 L 13.005 5.000 12.993 3.810 C 12.980 2.662,12.977 2.614,12.889 2.450 C 12.724 2.140,12.329 1.970,11.874 2.011 C 11.439 2.051,11.141 2.274,11.041 2.635 C 11.018 2.716,11.000 3.270,11.000 3.890 L 11.000 5.000 9.003 5.000 L 7.005 5.000 6.993 3.810 C 6.981 2.669,6.976 2.613,6.891 2.453 C 6.842 2.362,6.746 2.247,6.678 2.199 C 6.414 2.010,5.957 1.950,5.614 2.057 M11.000 9.000 L 11.000 11.000 9.000 11.000 L 7.000 11.000 7.000 9.000 L 7.000 7.000 9.000 7.000 L 11.000 7.000 11.000 9.000 M17.000 9.000 L 17.000 11.000 15.000 11.000 L 13.000 11.000 13.000 9.000 L 13.000 7.000 15.000 7.000 L 17.000 7.000 17.000 9.000 M11.000 15.000 L 11.000 17.000 9.000 17.000 L 7.000 17.000 7.000 15.000 L 7.000 13.000 9.000 13.000 L 11.000 13.000 11.000 15.000 M17.000 15.000 L 17.000 17.000 15.000 17.000 L 13.000 17.000 13.000 15.000 L 13.000 13.000 15.000 13.000 L 17.000 13.000 17.000 15.000 " stroke="none" fill="black" fill-rule="evenodd"></path></svg>