<svg xmlns="http://www.w3.org/2000/svg" width="24" height="24" viewBox="0 0 24 24" fill="none" stroke="currentColor" stroke-width="2" stroke-linecap="round" stroke-linejoin="round" class="icon icon-tabler icons-tabler-outline icon-tabler-mask-off"><path d="M2.626 2.045 C 2.257 2.239,1.951 2.673,1.951 3.000 C 1.951 3.293,2.085 3.492,2.702 4.120 L 3.273 4.700 3.146 5.060 L 3.020 5.420 3.020 11.980 L 3.020 18.540 3.114 18.840 C 3.422 19.827,4.173 20.578,5.160 20.886 L 5.460 20.980 12.020 20.980 L 18.580 20.980 18.940 20.854 L 19.300 20.727 19.880 21.298 C 20.205 21.617,20.538 21.908,20.637 21.959 C 20.988 22.137,21.353 22.049,21.701 21.701 C 22.047 21.355,22.136 20.990,21.961 20.637 C 21.839 20.392,3.616 2.165,3.372 2.044 C 3.152 1.934,2.834 1.935,2.626 2.045 M7.614 3.057 C 7.377 3.132,7.212 3.261,7.109 3.453 C 7.035 3.592,7.020 3.684,7.020 4.000 C 7.020 4.331,7.033 4.403,7.120 4.558 C 7.230 4.755,7.414 4.898,7.635 4.959 C 7.729 4.985,9.608 5.000,12.943 5.000 C 18.764 5.000,18.373 4.979,18.697 5.303 C 19.021 5.627,19.000 5.236,19.000 11.057 C 19.000 14.392,19.015 16.271,19.041 16.365 C 19.148 16.750,19.437 16.962,19.896 16.991 C 20.381 17.022,20.699 16.882,20.880 16.558 L 20.980 16.380 20.980 10.920 L 20.980 5.460 20.886 5.160 C 20.581 4.182,19.832 3.428,18.861 3.121 L 18.540 3.020 13.160 3.012 C 8.811 3.006,7.748 3.014,7.614 3.057 M8.392 10.267 C 7.932 11.283,7.872 12.256,8.206 13.280 C 8.731 14.889,10.282 16.000,12.003 16.000 C 12.632 16.000,13.366 15.820,13.865 15.542 L 14.031 15.451 15.805 17.226 L 17.580 19.001 11.640 18.990 L 5.700 18.980 5.516 18.872 C 5.415 18.813,5.284 18.700,5.225 18.623 C 4.987 18.311,5.000 18.677,5.000 12.285 L 5.000 6.420 6.767 8.187 L 8.534 9.954 8.392 10.267 M12.840 8.330 C 12.622 8.447,12.435 8.682,12.323 8.980 C 12.221 9.254,12.218 9.489,12.316 9.700 C 12.409 9.903,12.505 9.988,12.900 10.219 C 13.324 10.466,13.523 10.666,13.780 11.100 C 14.019 11.504,14.115 11.609,14.329 11.698 C 14.520 11.778,14.697 11.776,14.943 11.694 C 15.369 11.551,15.685 11.249,15.745 10.928 C 15.821 10.524,15.333 9.634,14.730 9.076 C 14.273 8.653,13.615 8.291,13.234 8.254 C 13.058 8.237,12.988 8.250,12.840 8.330 M12.467 13.946 C 12.451 13.962,12.279 13.983,12.085 13.992 C 10.799 14.054,9.813 12.920,10.026 11.626 L 10.052 11.472 11.274 12.694 C 11.947 13.367,12.483 13.930,12.467 13.946 " stroke="none" fill="black" fill-rule="evenodd"></path></svg>