<svg xmlns="http://www.w3.org/2000/svg" width="24" height="24" viewBox="0 0 24 24" fill="none" stroke="currentColor" stroke-width="2" stroke-linecap="round" stroke-linejoin="round" class="icon icon-tabler icons-tabler-outline icon-tabler-circuit-motor"><path d="M11.207 4.043 C 8.804 4.275,6.612 5.620,5.264 7.689 C 4.953 8.166,4.594 8.924,4.405 9.500 C 4.249 9.979,4.080 10.703,4.080 10.898 L 4.080 11.000 2.946 11.000 C 1.741 11.000,1.572 11.021,1.322 11.199 C 1.100 11.357,1.020 11.568,1.020 12.000 C 1.020 12.331,1.033 12.403,1.120 12.558 C 1.230 12.755,1.414 12.898,1.635 12.959 C 1.717 12.982,2.283 13.000,2.930 13.000 L 4.080 13.000 4.080 13.102 C 4.080 13.297,4.249 14.021,4.405 14.500 C 4.807 15.728,5.494 16.820,6.446 17.741 C 7.114 18.389,7.706 18.803,8.529 19.200 C 11.259 20.519,14.467 20.184,16.900 18.326 C 17.239 18.067,17.925 17.394,18.211 17.040 C 18.799 16.313,19.307 15.380,19.595 14.500 C 19.751 14.021,19.920 13.297,19.920 13.102 L 19.920 13.000 21.070 13.000 C 21.717 13.000,22.283 12.982,22.365 12.959 C 22.586 12.898,22.770 12.755,22.880 12.558 C 22.967 12.402,22.980 12.332,22.979 12.000 C 22.978 11.567,22.898 11.355,22.678 11.199 C 22.428 11.021,22.259 11.000,21.054 11.000 L 19.920 11.000 19.920 10.898 C 19.920 10.472,19.549 9.249,19.200 8.529 C 18.693 7.477,18.015 6.612,17.100 5.847 C 15.483 4.494,13.337 3.837,11.207 4.043 M12.564 6.039 C 14.921 6.269,16.913 7.837,17.671 10.060 C 18.168 11.517,18.068 13.251,17.410 14.580 C 16.550 16.316,15.056 17.478,13.160 17.885 C 12.554 18.015,11.446 18.015,10.840 17.885 C 8.941 17.478,7.451 16.319,6.590 14.580 C 5.932 13.251,5.832 11.517,6.329 10.060 C 6.618 9.212,7.080 8.470,7.731 7.805 C 9.008 6.503,10.757 5.864,12.564 6.039 M13.620 9.047 C 13.532 9.093,13.132 9.456,12.730 9.853 L 12.001 10.574 11.267 9.850 C 10.577 9.169,10.520 9.122,10.300 9.058 C 9.726 8.891,9.177 9.143,9.041 9.635 C 8.986 9.831,8.986 14.169,9.041 14.365 C 9.148 14.750,9.437 14.962,9.896 14.991 C 10.381 15.022,10.699 14.882,10.880 14.558 C 10.978 14.384,10.980 14.359,10.993 13.409 L 11.006 12.437 11.246 12.659 C 11.814 13.185,12.186 13.185,12.757 12.656 L 13.000 12.431 13.000 13.326 C 13.000 13.818,13.019 14.285,13.041 14.365 C 13.148 14.750,13.437 14.962,13.896 14.991 C 14.381 15.022,14.699 14.882,14.880 14.558 L 14.980 14.380 14.980 12.040 L 14.980 9.700 14.871 9.514 C 14.758 9.323,14.558 9.141,14.332 9.025 C 14.152 8.934,13.818 8.944,13.620 9.047 " stroke="none" fill="black" fill-rule="evenodd"></path></svg>