<svg xmlns="http://www.w3.org/2000/svg" width="24" height="24" viewBox="0 0 24 24" fill="none" stroke="currentColor" stroke-width="2" stroke-linecap="round" stroke-linejoin="round" class="icon icon-tabler icons-tabler-outline icon-tabler-letter-r-small"><path d="M9.614 7.056 C 9.376 7.133,9.212 7.262,9.109 7.453 L 9.020 7.620 9.009 11.913 C 9.002 14.727,9.013 16.258,9.039 16.357 C 9.144 16.747,9.434 16.961,9.896 16.991 C 10.381 17.022,10.699 16.882,10.880 16.558 L 10.980 16.380 10.992 15.027 L 11.005 13.674 12.172 15.227 C 13.475 16.960,13.553 17.040,13.935 17.040 C 14.304 17.039,14.789 16.735,14.963 16.394 C 15.067 16.191,15.064 15.884,14.955 15.668 C 14.909 15.576,14.432 14.913,13.895 14.196 C 13.359 13.479,12.920 12.881,12.920 12.866 C 12.920 12.852,12.945 12.840,12.975 12.840 C 13.092 12.840,13.670 12.513,13.891 12.323 C 14.394 11.890,14.703 11.429,14.886 10.840 C 15.021 10.406,15.021 9.594,14.886 9.160 C 14.581 8.182,13.825 7.421,12.861 7.124 C 12.550 7.028,12.498 7.024,11.160 7.013 C 10.090 7.005,9.743 7.014,9.614 7.056 M12.310 9.061 C 12.688 9.173,13.000 9.598,13.000 10.001 C 13.000 10.176,12.897 10.462,12.779 10.618 C 12.587 10.870,12.359 10.974,11.954 10.993 C 11.761 11.002,11.467 10.997,11.301 10.981 L 11.000 10.953 11.000 9.977 L 11.000 9.000 11.553 9.000 C 11.931 9.000,12.170 9.019,12.310 9.061 " stroke="none" fill="black" fill-rule="evenodd"></path></svg>