<svg xmlns="http://www.w3.org/2000/svg" width="24" height="24" viewBox="0 0 24 24" fill="none" stroke="currentColor" stroke-width="2" stroke-linecap="round" stroke-linejoin="round" class="icon icon-tabler icons-tabler-outline icon-tabler-arrow-move-right"><path d="M17.626 8.045 C 17.257 8.239,16.951 8.673,16.951 9.000 C 16.951 9.307,17.079 9.487,17.853 10.270 L 18.575 11.000 14.694 11.000 C 10.539 11.000,10.605 10.997,10.322 11.199 C 10.100 11.357,10.020 11.568,10.020 12.000 C 10.020 12.331,10.033 12.403,10.120 12.558 C 10.230 12.755,10.414 12.898,10.635 12.959 C 10.728 12.985,12.190 13.000,14.678 13.000 L 18.575 13.000 17.853 13.730 C 17.420 14.168,17.095 14.531,17.041 14.637 C 16.863 14.988,16.952 15.354,17.299 15.701 C 17.646 16.048,18.011 16.137,18.363 15.960 C 18.480 15.901,19.051 15.365,20.062 14.365 C 20.899 13.537,21.634 12.826,21.697 12.784 C 21.850 12.682,22.049 12.238,22.049 12.000 C 22.049 11.745,21.851 11.321,21.676 11.201 C 21.601 11.150,20.865 10.438,20.040 9.618 C 19.085 8.670,18.479 8.098,18.372 8.044 C 18.152 7.934,17.835 7.934,17.626 8.045 M4.499 9.040 C 3.363 9.246,2.460 10.049,2.114 11.160 C 1.979 11.594,1.979 12.406,2.114 12.840 C 2.421 13.826,3.174 14.579,4.160 14.886 C 4.594 15.021,5.406 15.021,5.840 14.886 C 6.826 14.579,7.579 13.826,7.886 12.840 C 8.021 12.406,8.021 11.594,7.886 11.160 C 7.581 10.179,6.810 9.407,5.861 9.129 C 5.500 9.023,4.832 8.980,4.499 9.040 M5.310 11.061 C 5.688 11.173,6.000 11.598,6.000 12.001 C 6.000 12.331,5.784 12.696,5.484 12.872 C 5.328 12.963,5.254 12.980,5.000 12.980 C 4.746 12.980,4.672 12.963,4.516 12.872 C 3.935 12.530,3.833 11.774,4.304 11.303 C 4.583 11.024,4.916 10.944,5.310 11.061 " stroke="none" fill="black" fill-rule="evenodd"></path></svg>