<svg xmlns="http://www.w3.org/2000/svg" width="24" height="24" viewBox="0 0 24 24" fill="none" stroke="currentColor" stroke-width="2" stroke-linecap="round" stroke-linejoin="round" class="icon icon-tabler icons-tabler-outline icon-tabler-api-app"><path d="M10.873 2.060 C 10.136 2.200,9.468 2.565,8.958 3.105 C 8.561 3.525,8.318 3.950,8.131 4.548 L 8.021 4.900 8.009 8.551 C 8.001 10.973,8.011 12.253,8.039 12.354 C 8.144 12.747,8.433 12.961,8.896 12.991 C 9.381 13.022,9.699 12.882,9.880 12.558 L 9.980 12.380 10.000 8.760 L 10.020 5.140 10.133 4.896 C 10.276 4.586,10.586 4.278,10.900 4.134 C 11.106 4.039,11.192 4.023,11.500 4.023 C 11.808 4.023,11.894 4.039,12.100 4.134 C 12.417 4.279,12.725 4.586,12.863 4.893 C 12.960 5.110,12.974 5.199,12.998 5.758 C 13.021 6.317,13.034 6.400,13.122 6.559 C 13.286 6.856,13.572 7.000,14.000 7.000 C 14.428 7.000,14.714 6.856,14.879 6.558 C 14.968 6.398,14.980 6.324,14.993 5.838 C 15.002 5.540,14.989 5.167,14.964 5.010 C 14.747 3.607,13.729 2.470,12.378 2.118 C 11.959 2.009,11.280 1.983,10.873 2.060 M11.614 8.057 C 11.222 8.181,11.039 8.436,11.009 8.900 C 10.978 9.381,11.119 9.699,11.442 9.880 L 11.620 9.980 15.240 10.000 L 18.860 10.020 19.100 10.132 C 19.417 10.280,19.725 10.587,19.865 10.896 C 19.960 11.105,19.976 11.192,19.976 11.500 C 19.976 11.808,19.960 11.895,19.865 12.104 C 19.724 12.414,19.416 12.721,19.100 12.866 C 18.882 12.966,18.804 12.979,18.257 12.999 C 17.715 13.020,17.633 13.033,17.457 13.124 C 17.119 13.297,16.978 13.607,17.009 14.104 C 17.038 14.563,17.250 14.852,17.635 14.959 C 17.823 15.012,18.708 15.011,19.031 14.959 C 19.429 14.894,19.872 14.737,20.240 14.531 C 20.709 14.268,21.268 13.709,21.531 13.240 C 22.666 11.214,21.630 8.746,19.378 8.111 C 19.060 8.022,19.056 8.021,15.420 8.013 C 12.498 8.006,11.747 8.014,11.614 8.057 M4.873 9.063 C 4.147 9.194,3.470 9.562,2.958 10.105 C 2.559 10.527,2.314 10.957,2.133 11.548 C 2.038 11.863,2.026 11.963,2.026 12.500 C 2.026 13.037,2.038 13.137,2.133 13.452 C 2.500 14.655,3.334 15.490,4.548 15.869 L 4.900 15.979 8.551 15.991 C 10.973 15.999,12.253 15.989,12.354 15.961 C 12.583 15.900,12.768 15.758,12.880 15.558 C 12.967 15.402,12.980 15.332,12.979 15.000 C 12.977 14.469,12.852 14.247,12.455 14.071 C 12.366 14.031,11.535 14.016,8.740 14.000 L 5.140 13.980 4.900 13.868 C 4.583 13.720,4.275 13.413,4.135 13.104 C 4.040 12.895,4.024 12.808,4.024 12.500 C 4.024 12.192,4.040 12.105,4.135 11.896 C 4.275 11.587,4.584 11.279,4.896 11.136 C 5.106 11.040,5.196 11.026,5.756 11.002 C 6.546 10.967,6.703 10.901,6.904 10.520 C 7.018 10.305,7.009 9.679,6.890 9.453 C 6.786 9.256,6.623 9.131,6.371 9.055 C 6.134 8.984,5.285 8.988,4.873 9.063 M14.614 11.057 C 14.377 11.131,14.212 11.261,14.109 11.453 L 14.020 11.620 14.000 15.240 L 13.980 18.860 13.868 19.100 C 13.721 19.415,13.413 19.724,13.104 19.867 C 12.894 19.965,12.811 19.980,12.500 19.980 C 12.189 19.980,12.106 19.965,11.896 19.867 C 11.587 19.725,11.278 19.414,11.137 19.106 C 11.042 18.898,11.027 18.804,11.001 18.246 C 10.968 17.530,10.909 17.353,10.649 17.182 C 10.198 16.887,9.426 16.979,9.170 17.358 C 9.016 17.586,8.989 17.773,9.011 18.460 C 9.028 18.997,9.048 19.157,9.136 19.452 C 9.713 21.386,11.674 22.429,13.588 21.821 C 14.606 21.497,15.497 20.606,15.821 19.588 C 15.875 19.417,15.938 19.156,15.961 19.008 C 15.988 18.834,15.999 17.490,15.991 15.180 L 15.980 11.620 15.891 11.453 C 15.842 11.362,15.746 11.247,15.678 11.199 C 15.414 11.010,14.957 10.950,14.614 11.057 " stroke="none" fill="black" fill-rule="evenodd"></path></svg>