<svg xmlns="http://www.w3.org/2000/svg" width="24" height="24" viewBox="0 0 24 24" fill="none" stroke="currentColor" stroke-width="2" stroke-linecap="round" stroke-linejoin="round" class="icon icon-tabler icons-tabler-outline icon-tabler-cell"><path d="M7.680 3.055 C 7.603 3.085,6.601 3.579,5.454 4.153 C 3.205 5.279,3.155 5.311,3.046 5.674 C 2.981 5.894,2.981 11.106,3.046 11.326 C 3.154 11.684,3.228 11.732,5.184 12.711 L 7.000 13.620 7.000 15.895 C 7.000 17.506,7.014 18.216,7.046 18.326 C 7.156 18.692,7.198 18.718,9.546 19.892 L 11.722 20.980 12.000 20.980 L 12.278 20.980 14.454 19.892 C 16.802 18.718,16.844 18.692,16.954 18.326 C 16.986 18.216,17.000 17.506,17.000 15.895 L 17.000 13.620 18.816 12.711 C 20.772 11.732,20.846 11.684,20.954 11.326 C 21.019 11.106,21.019 5.894,20.954 5.674 C 20.844 5.308,20.802 5.282,18.454 4.108 L 16.278 3.020 16.001 3.020 L 15.724 3.020 13.862 3.950 L 12.000 4.879 10.144 3.952 C 8.442 3.103,8.268 3.025,8.054 3.013 C 7.923 3.007,7.758 3.025,7.680 3.055 M9.500 5.870 L 11.000 6.620 11.000 8.500 L 11.000 10.380 9.500 11.130 L 8.000 11.880 6.500 11.130 L 5.000 10.380 5.000 8.500 L 5.000 6.620 6.490 5.872 C 7.310 5.461,7.984 5.123,7.990 5.122 C 7.995 5.121,8.675 5.457,9.500 5.870 M17.500 5.870 L 19.000 6.620 19.000 8.500 L 19.000 10.380 17.500 11.130 L 16.000 11.880 14.500 11.130 L 13.000 10.380 13.000 8.500 L 13.000 6.620 14.490 5.872 C 15.309 5.461,15.984 5.123,15.990 5.122 C 15.995 5.121,16.675 5.457,17.500 5.870 M13.500 12.870 L 15.000 13.620 15.000 15.500 L 15.000 17.380 13.500 18.130 L 12.000 18.880 10.500 18.130 L 9.000 17.380 9.000 15.500 L 9.000 13.620 10.490 12.872 C 11.309 12.461,11.984 12.123,11.990 12.122 C 11.995 12.121,12.675 12.457,13.500 12.870 " stroke="none" fill="black" fill-rule="evenodd"></path></svg>