<svg xmlns="http://www.w3.org/2000/svg" width="24" height="24" viewBox="0 0 24 24" fill="none" stroke="currentColor" stroke-width="2" stroke-linecap="round" stroke-linejoin="round" class="icon icon-tabler icons-tabler-outline icon-tabler-squares-diagonal"><path d="M5.499 3.043 C 4.379 3.234,3.461 4.048,3.114 5.160 L 3.020 5.460 3.020 10.000 L 3.020 14.540 3.114 14.840 C 3.419 15.818,4.166 16.570,5.140 16.882 C 5.379 16.958,5.536 16.974,6.205 16.990 L 6.991 17.009 7.010 17.795 C 7.026 18.466,7.042 18.620,7.119 18.860 C 7.317 19.474,7.684 20.002,8.167 20.370 C 8.515 20.633,8.757 20.759,9.161 20.886 L 9.460 20.980 14.000 20.980 L 18.540 20.980 18.840 20.886 C 19.827 20.578,20.578 19.827,20.886 18.840 L 20.980 18.540 20.980 14.000 L 20.980 9.460 20.886 9.161 C 20.637 8.369,20.125 7.743,19.400 7.347 C 18.939 7.095,18.640 7.033,17.775 7.011 L 17.009 6.991 16.990 6.205 C 16.974 5.536,16.958 5.379,16.882 5.140 C 16.573 4.174,15.823 3.425,14.861 3.121 L 14.540 3.020 10.120 3.014 C 7.689 3.011,5.609 3.024,5.499 3.043 M14.310 5.061 C 14.452 5.103,14.571 5.178,14.697 5.303 C 14.948 5.554,15.000 5.751,15.000 6.445 L 15.000 6.996 12.230 7.009 L 9.460 7.022 9.139 7.122 C 8.181 7.423,7.441 8.160,7.115 9.140 L 7.021 9.420 7.009 12.213 L 6.996 15.007 6.348 14.993 C 5.728 14.981,5.692 14.975,5.516 14.872 C 5.303 14.747,5.141 14.550,5.058 14.316 C 4.969 14.062,4.971 5.992,5.061 5.690 C 5.140 5.421,5.412 5.143,5.673 5.063 C 5.962 4.974,14.011 4.972,14.310 5.061 M13.300 13.280 L 9.020 17.560 9.010 13.731 C 8.998 9.392,8.983 9.623,9.303 9.303 C 9.617 8.989,9.375 9.006,13.720 9.003 L 17.580 9.000 13.300 13.280 M18.961 18.224 C 18.905 18.484,18.724 18.731,18.486 18.871 L 18.300 18.980 14.360 18.991 L 10.420 19.001 14.700 14.720 L 18.980 10.440 18.992 14.230 C 19.001 16.863,18.991 18.082,18.961 18.224 " stroke="none" fill="black" fill-rule="evenodd"></path></svg>