<svg xmlns="http://www.w3.org/2000/svg" width="24" height="24" viewBox="0 0 24 24" fill="none" stroke="currentColor" stroke-width="2" stroke-linecap="round" stroke-linejoin="round" class="icon icon-tabler icons-tabler-outline icon-tabler-keyframe"><path d="M11.467 4.065 C 10.960 4.174,10.460 4.456,10.120 4.825 C 9.672 5.311,5.524 10.348,5.389 10.570 C 5.306 10.706,5.190 10.963,5.131 11.139 C 5.037 11.423,5.025 11.522,5.025 12.000 C 5.025 12.478,5.037 12.577,5.131 12.860 C 5.190 13.036,5.302 13.288,5.381 13.420 C 5.604 13.795,10.103 19.186,10.383 19.413 C 10.662 19.641,10.885 19.761,11.263 19.887 C 11.659 20.019,12.341 20.019,12.737 19.887 C 13.228 19.723,13.595 19.492,13.900 19.155 C 14.391 18.613,18.484 13.639,18.611 13.430 C 18.694 13.294,18.810 13.037,18.869 12.861 C 18.963 12.577,18.975 12.478,18.975 12.000 C 18.975 11.522,18.963 11.423,18.869 11.140 C 18.810 10.964,18.698 10.712,18.619 10.580 C 18.395 10.203,13.896 4.814,13.617 4.587 C 13.013 4.097,12.217 3.904,11.467 4.065 M12.283 6.091 C 12.415 6.180,16.720 11.325,16.892 11.600 C 16.959 11.707,16.980 11.801,16.980 12.000 C 16.980 12.199,16.959 12.293,16.892 12.400 C 16.720 12.675,12.415 17.820,12.283 17.909 C 12.108 18.027,11.892 18.027,11.717 17.909 C 11.584 17.819,7.280 12.675,7.108 12.400 C 7.041 12.293,7.020 12.198,7.020 12.000 C 7.020 11.802,7.041 11.707,7.108 11.600 C 7.280 11.325,11.584 6.181,11.717 6.091 C 11.892 5.973,12.108 5.973,12.283 6.091 " stroke="none" fill="black" fill-rule="evenodd"></path></svg>