<svg xmlns="http://www.w3.org/2000/svg" width="24" height="24" viewBox="0 0 24 24" fill="none" stroke="currentColor" stroke-width="2" stroke-linecap="round" stroke-linejoin="round" class="icon icon-tabler icons-tabler-outline icon-tabler-square-chevrons-right"><path d="M4.499 2.043 C 3.380 2.232,2.461 3.048,2.114 4.160 L 2.020 4.460 2.020 12.000 L 2.020 19.540 2.114 19.840 C 2.422 20.827,3.173 21.578,4.160 21.886 L 4.460 21.980 12.000 21.980 L 19.540 21.980 19.840 21.886 C 20.827 21.578,21.578 20.827,21.886 19.840 L 21.980 19.540 21.980 12.000 L 21.980 4.460 21.886 4.160 C 21.581 3.182,20.832 2.428,19.861 2.121 L 19.540 2.020 12.120 2.014 C 8.039 2.011,4.609 2.024,4.499 2.043 M19.310 4.061 C 19.589 4.144,19.856 4.411,19.939 4.690 C 19.993 4.870,20.000 5.755,20.000 12.001 C 20.000 17.907,19.991 19.138,19.945 19.290 C 19.872 19.533,19.707 19.740,19.484 19.872 L 19.300 19.980 12.000 19.980 L 4.700 19.980 4.516 19.872 C 4.415 19.813,4.284 19.700,4.225 19.623 C 3.986 19.309,4.000 19.795,4.000 12.022 C 4.000 5.758,4.007 4.870,4.061 4.690 C 4.140 4.421,4.412 4.143,4.673 4.063 C 4.964 3.974,19.009 3.971,19.310 4.061 M7.626 8.045 C 7.257 8.239,6.951 8.673,6.951 9.000 C 6.951 9.333,7.056 9.467,8.353 10.770 L 9.577 12.000 8.353 13.230 C 7.548 14.039,7.099 14.521,7.040 14.637 C 6.863 14.989,6.952 15.354,7.299 15.701 C 7.645 16.048,8.010 16.137,8.363 15.961 C 8.610 15.837,11.837 12.610,11.961 12.363 C 12.014 12.256,12.049 12.111,12.049 12.000 C 12.049 11.889,12.014 11.744,11.961 11.637 C 11.841 11.397,8.611 8.163,8.372 8.044 C 8.152 7.934,7.835 7.935,7.626 8.045 M12.626 8.045 C 12.257 8.239,11.951 8.673,11.951 9.000 C 11.951 9.333,12.056 9.467,13.353 10.770 L 14.577 12.000 13.353 13.230 C 12.548 14.039,12.099 14.521,12.040 14.637 C 11.863 14.989,11.952 15.354,12.299 15.701 C 12.645 16.048,13.010 16.137,13.363 15.961 C 13.484 15.900,14.065 15.347,15.206 14.206 C 16.347 13.065,16.900 12.484,16.961 12.363 C 17.014 12.256,17.049 12.111,17.049 12.000 C 17.049 11.889,17.014 11.744,16.961 11.637 C 16.841 11.397,13.611 8.163,13.372 8.044 C 13.152 7.934,12.835 7.935,12.626 8.045 " stroke="none" fill="black" fill-rule="evenodd"></path></svg>