<svg xmlns="http://www.w3.org/2000/svg" width="24" height="24" viewBox="0 0 24 24" fill="none" stroke="currentColor" stroke-width="2" stroke-linecap="round" stroke-linejoin="round" class="icon icon-tabler icons-tabler-outline icon-tabler-magnet-off"><path d="M2.626 2.045 C 2.257 2.239,1.951 2.673,1.951 3.000 C 1.951 3.279,2.081 3.486,2.567 3.984 L 3.004 4.431 3.002 8.985 C 3.000 12.750,3.010 13.623,3.058 14.020 C 3.197 15.152,3.445 15.994,3.926 16.960 C 5.310 19.740,7.792 21.503,10.940 21.942 C 11.517 22.022,12.767 22.003,13.342 21.904 C 14.754 21.663,16.099 21.130,17.120 20.409 C 17.445 20.179,17.909 19.803,18.038 19.664 L 18.135 19.558 19.298 20.714 C 20.057 21.469,20.522 21.902,20.637 21.960 C 20.989 22.137,21.354 22.048,21.701 21.701 C 22.048 21.355,22.137 20.990,21.961 20.637 C 21.897 20.510,20.170 18.752,15.853 14.420 C 12.543 11.098,9.795 8.340,9.747 8.290 C 9.699 8.241,9.480 8.022,9.260 7.803 C 9.040 7.585,8.809 7.355,8.747 7.293 C 7.378 5.922,3.633 2.222,3.560 2.167 C 3.261 1.941,2.909 1.895,2.626 2.045 M6.614 2.055 C 6.220 2.184,6.039 2.437,6.009 2.900 C 5.965 3.591,6.248 3.929,6.933 3.999 C 7.340 4.041,7.503 4.105,7.699 4.301 C 7.895 4.497,7.959 4.660,8.001 5.067 C 8.068 5.718,8.370 6.000,9.000 6.000 C 9.428 6.000,9.713 5.856,9.880 5.558 C 9.971 5.396,9.980 5.338,9.979 4.920 C 9.978 4.555,9.959 4.398,9.885 4.160 C 9.583 3.181,8.809 2.405,7.861 2.129 C 7.459 2.013,6.851 1.976,6.614 2.055 M16.499 2.041 C 15.379 2.240,14.487 3.025,14.114 4.140 L 14.021 4.420 14.009 7.810 C 14.001 10.058,14.011 11.252,14.038 11.354 C 14.144 11.747,14.433 11.961,14.896 11.991 C 15.381 12.022,15.699 11.882,15.880 11.558 C 15.979 11.381,15.980 11.374,15.993 10.190 L 16.005 9.000 17.503 9.000 L 19.000 9.000 19.000 11.116 C 19.000 13.692,18.966 14.112,18.676 15.095 C 18.549 15.527,18.530 15.811,18.615 16.014 C 18.698 16.213,18.980 16.431,19.273 16.521 C 19.826 16.692,20.194 16.563,20.420 16.119 C 20.534 15.895,20.727 15.233,20.834 14.700 C 20.995 13.890,21.006 13.499,20.993 8.860 L 20.980 4.420 20.886 4.140 C 20.556 3.156,19.810 2.414,18.861 2.125 C 18.567 2.036,18.462 2.027,17.620 2.016 C 17.114 2.010,16.609 2.021,16.499 2.041 M18.310 4.061 C 18.452 4.103,18.571 4.178,18.697 4.303 C 18.978 4.584,19.000 4.703,19.000 5.947 L 19.000 7.000 17.500 7.000 L 16.000 7.000 16.000 5.947 C 16.000 4.702,16.022 4.585,16.304 4.303 C 16.558 4.048,16.723 4.006,17.483 4.003 C 17.931 4.001,18.163 4.017,18.310 4.061 M5.300 6.720 L 5.578 7.000 5.289 7.000 L 5.000 7.000 5.000 6.720 C 5.000 6.566,5.005 6.440,5.011 6.440 C 5.017 6.440,5.147 6.566,5.300 6.720 M7.789 9.210 L 7.996 9.420 8.010 11.540 C 8.023 13.582,8.027 13.672,8.112 13.976 C 8.517 15.427,9.556 16.473,10.989 16.870 C 11.337 16.966,11.448 16.978,12.000 16.978 C 12.466 16.977,12.684 16.960,12.880 16.907 C 13.500 16.738,13.982 16.515,14.399 16.202 L 14.617 16.038 15.669 17.089 C 16.247 17.667,16.720 18.150,16.720 18.163 C 16.720 18.193,16.249 18.575,15.978 18.765 C 14.925 19.502,13.600 19.937,12.251 19.988 C 11.361 20.021,10.682 19.925,9.800 19.640 C 9.344 19.493,8.487 19.079,8.100 18.818 C 6.560 17.779,5.460 16.103,5.112 14.263 C 5.035 13.852,5.027 13.645,5.011 11.410 L 4.994 9.000 6.288 9.000 L 7.583 9.000 7.789 9.210 M13.147 14.620 C 13.126 14.685,12.720 14.874,12.462 14.939 C 11.797 15.108,11.100 14.907,10.599 14.403 C 10.296 14.097,10.104 13.736,10.042 13.354 C 10.019 13.214,10.000 12.722,10.000 12.260 L 10.000 11.420 11.580 13.000 C 12.449 13.869,13.154 14.598,13.147 14.620 " stroke="none" fill="black" fill-rule="evenodd"></path></svg>