<svg xmlns="http://www.w3.org/2000/svg" width="24" height="24" viewBox="0 0 24 24" fill="none" stroke="currentColor" stroke-width="2" stroke-linecap="round" stroke-linejoin="round" class="icon icon-tabler icons-tabler-outline icon-tabler-wheel"><path d="M11.080 2.045 C 9.507 2.184,7.883 2.751,6.540 3.630 C 5.905 4.045,5.499 4.378,4.919 4.958 C 2.953 6.926,1.919 9.544,2.013 12.320 C 2.084 14.439,2.752 16.328,4.033 18.040 C 4.430 18.570,5.305 19.464,5.800 19.847 C 7.242 20.961,8.787 21.624,10.600 21.907 C 11.247 22.008,12.753 22.008,13.400 21.907 C 15.638 21.557,17.504 20.620,19.062 19.062 C 20.620 17.504,21.557 15.638,21.907 13.400 C 22.008 12.753,22.008 11.247,21.907 10.600 C 21.624 8.786,20.959 7.238,19.847 5.800 C 19.510 5.365,18.639 4.494,18.200 4.154 C 16.133 2.555,13.646 1.818,11.080 2.045 M12.734 4.041 C 13.627 4.126,14.608 4.384,15.287 4.712 L 15.594 4.860 14.412 6.525 L 13.230 8.190 13.025 8.136 C 12.600 8.023,12.028 7.982,11.590 8.034 C 11.365 8.060,11.088 8.106,10.975 8.136 L 10.770 8.190 9.588 6.525 L 8.406 4.860 8.713 4.712 C 9.831 4.171,11.381 3.913,12.734 4.041 M7.800 7.460 C 8.313 8.186,8.810 8.889,8.905 9.023 L 9.076 9.265 8.897 9.483 C 8.595 9.849,8.294 10.429,8.143 10.930 C 8.124 10.995,7.992 11.000,6.101 11.000 C 4.124 11.000,4.080 10.998,4.080 10.922 C 4.080 10.879,4.117 10.651,4.163 10.414 C 4.389 9.243,5.008 7.918,5.759 7.000 C 5.876 6.857,6.143 6.566,6.352 6.353 C 6.731 5.967,6.733 5.966,6.800 6.053 C 6.836 6.101,7.286 6.734,7.800 7.460 M18.152 6.900 C 18.975 7.879,19.599 9.180,19.837 10.414 C 19.883 10.651,19.920 10.879,19.920 10.922 C 19.920 10.998,19.876 11.000,17.899 11.000 C 16.009 11.000,15.876 10.995,15.855 10.930 C 15.677 10.371,15.409 9.854,15.103 9.483 L 14.925 9.267 15.153 8.942 C 15.278 8.763,15.803 8.020,16.320 7.290 L 17.260 5.963 17.554 6.251 C 17.716 6.410,17.985 6.702,18.152 6.900 M12.523 10.073 C 13.262 10.266,13.850 10.924,13.967 11.690 C 14.067 12.343,13.873 12.933,13.403 13.404 C 13.002 13.807,12.547 14.000,12.000 14.000 C 11.485 14.000,11.038 13.822,10.653 13.465 C 9.323 12.229,10.189 10.005,12.000 10.005 C 12.143 10.005,12.378 10.036,12.523 10.073 M8.143 13.070 C 8.293 13.571,8.595 14.151,8.897 14.517 L 9.075 14.733 8.847 15.058 C 8.722 15.237,8.197 15.980,7.680 16.710 L 6.740 18.037 6.446 17.749 C 5.509 16.831,4.793 15.691,4.403 14.498 C 4.260 14.058,4.080 13.269,4.080 13.078 C 4.080 13.002,4.124 13.000,6.101 13.000 C 7.992 13.000,8.124 13.005,8.143 13.070 M19.920 13.078 C 19.920 13.270,19.740 14.058,19.596 14.497 C 19.201 15.701,18.492 16.830,17.554 17.749 L 17.260 18.037 16.320 16.710 C 15.803 15.980,15.278 15.237,15.153 15.058 L 14.925 14.733 15.103 14.517 C 15.409 14.146,15.677 13.629,15.855 13.070 C 15.876 13.005,16.009 13.000,17.899 13.000 C 19.876 13.000,19.920 13.002,19.920 13.078 M12.000 15.973 C 12.491 15.973,12.684 15.956,12.926 15.893 L 13.232 15.813 14.413 17.476 L 15.594 19.140 15.287 19.288 C 14.646 19.598,13.659 19.867,12.832 19.958 C 11.477 20.106,9.861 19.843,8.713 19.288 L 8.406 19.140 9.587 17.476 L 10.768 15.813 11.074 15.893 C 11.316 15.956,11.509 15.973,12.000 15.973 " stroke="none" fill="black" fill-rule="evenodd"></path></svg>