<svg xmlns="http://www.w3.org/2000/svg" width="24" height="24" viewBox="0 0 24 24" fill="none" stroke="currentColor" stroke-width="2" stroke-linecap="round" stroke-linejoin="round" class="icon icon-tabler icons-tabler-outline icon-tabler-steam"><path d="M11.477 2.073 C 10.806 2.249,10.238 2.823,10.060 3.508 C 9.941 3.962,10.003 4.492,10.225 4.930 C 10.361 5.199,10.801 5.639,11.070 5.775 C 11.659 6.073,12.341 6.073,12.930 5.775 C 13.196 5.640,13.638 5.200,13.771 4.937 C 13.994 4.498,14.052 4.007,13.940 3.529 C 13.858 3.182,13.720 2.927,13.465 2.653 C 13.074 2.232,12.560 2.005,12.000 2.005 C 11.857 2.005,11.622 2.036,11.477 2.073 M5.260 4.487 C 4.822 4.651,4.439 5.129,4.441 5.509 C 4.443 5.845,4.521 5.938,6.312 7.725 C 8.179 9.588,8.187 9.594,8.584 9.550 C 8.839 9.521,9.176 9.283,9.380 8.986 C 9.524 8.775,9.540 8.728,9.540 8.505 C 9.540 8.295,9.521 8.228,9.412 8.059 C 9.224 7.768,6.059 4.631,5.862 4.541 C 5.664 4.450,5.417 4.428,5.260 4.487 M18.260 4.489 C 18.017 4.576,17.787 4.787,16.212 6.367 C 15.014 7.569,14.584 8.026,14.523 8.160 C 14.358 8.525,14.451 8.861,14.817 9.218 C 15.199 9.592,15.567 9.653,15.949 9.407 C 16.054 9.339,16.871 8.549,17.764 7.652 C 19.538 5.870,19.586 5.809,19.551 5.438 C 19.507 4.981,18.940 4.446,18.500 4.446 C 18.434 4.446,18.326 4.466,18.260 4.489 M3.477 10.073 C 3.130 10.164,2.802 10.366,2.535 10.653 C 2.178 11.038,2.000 11.485,2.000 12.000 C 2.000 12.546,2.193 13.001,2.596 13.404 C 2.999 13.807,3.454 14.000,4.000 14.000 C 4.546 14.000,5.001 13.807,5.404 13.404 C 5.920 12.889,6.106 12.236,5.940 11.529 C 5.858 11.182,5.720 10.927,5.465 10.653 C 5.074 10.232,4.560 10.005,4.000 10.005 C 3.857 10.005,3.622 10.036,3.477 10.073 M19.477 10.073 C 18.806 10.249,18.238 10.823,18.060 11.508 C 17.941 11.962,18.003 12.492,18.225 12.930 C 18.361 13.199,18.801 13.639,19.070 13.775 C 19.659 14.073,20.341 14.073,20.930 13.775 C 21.196 13.640,21.638 13.200,21.771 12.937 C 21.994 12.498,22.052 12.007,21.940 11.529 C 21.858 11.182,21.720 10.927,21.465 10.653 C 21.074 10.232,20.560 10.005,20.000 10.005 C 19.857 10.005,19.622 10.036,19.477 10.073 M8.260 14.489 C 8.017 14.576,7.787 14.787,6.212 16.367 C 5.014 17.569,4.584 18.026,4.523 18.160 C 4.358 18.525,4.451 18.861,4.817 19.218 C 5.199 19.592,5.567 19.653,5.949 19.407 C 6.054 19.339,6.871 18.549,7.764 17.652 C 9.538 15.870,9.586 15.809,9.551 15.438 C 9.507 14.981,8.940 14.446,8.500 14.446 C 8.434 14.446,8.326 14.466,8.260 14.489 M15.260 14.487 C 14.822 14.651,14.439 15.129,14.441 15.509 C 14.443 15.845,14.521 15.938,16.312 17.725 C 18.179 19.588,18.187 19.594,18.584 19.550 C 18.839 19.521,19.176 19.283,19.380 18.986 C 19.524 18.775,19.540 18.728,19.540 18.505 C 19.540 18.295,19.521 18.228,19.412 18.059 C 19.224 17.768,16.059 14.631,15.862 14.541 C 15.664 14.450,15.417 14.428,15.260 14.487 M11.477 18.073 C 10.806 18.249,10.238 18.823,10.060 19.508 C 9.941 19.962,10.003 20.492,10.225 20.930 C 10.361 21.199,10.801 21.639,11.070 21.775 C 11.659 22.073,12.341 22.073,12.930 21.775 C 13.196 21.640,13.638 21.200,13.771 20.937 C 13.994 20.498,14.052 20.007,13.940 19.529 C 13.858 19.182,13.720 18.927,13.465 18.653 C 13.074 18.232,12.560 18.005,12.000 18.005 C 11.857 18.005,11.622 18.036,11.477 18.073 " stroke="none" fill="black" fill-rule="evenodd"></path></svg>