<svg xmlns="http://www.w3.org/2000/svg" width="24" height="24" viewBox="0 0 24 24" fill="none" stroke="currentColor" stroke-width="2" stroke-linecap="round" stroke-linejoin="round" class="icon icon-tabler icons-tabler-outline icon-tabler-number-9"><path d="M11.400 3.044 C 9.761 3.229,8.261 4.290,7.526 5.785 C 7.333 6.177,7.187 6.599,7.093 7.040 C 6.986 7.538,6.986 9.462,7.093 9.960 C 7.526 11.984,9.016 13.474,11.040 13.907 C 11.511 14.008,12.489 14.008,12.960 13.907 C 13.611 13.768,14.271 13.493,14.773 13.153 L 15.005 12.996 14.991 14.768 C 14.977 16.524,14.976 16.543,14.877 16.861 C 14.577 17.827,13.818 18.582,12.840 18.886 C 12.406 19.021,11.594 19.021,11.160 18.886 C 10.579 18.705,10.107 18.391,9.695 17.911 C 9.277 17.423,9.067 16.869,9.003 16.082 C 8.959 15.531,8.881 15.334,8.649 15.182 C 8.198 14.887,7.426 14.979,7.170 15.358 C 7.026 15.572,6.989 15.781,7.011 16.240 C 7.125 18.533,8.752 20.417,11.040 20.907 C 11.286 20.960,11.552 20.980,12.000 20.980 C 12.898 20.980,13.494 20.838,14.286 20.433 C 15.630 19.748,16.580 18.489,16.907 16.960 C 16.975 16.642,16.980 16.316,16.980 12.000 C 16.980 7.684,16.975 7.358,16.907 7.040 C 16.576 5.491,15.600 4.219,14.213 3.525 C 13.352 3.095,12.397 2.932,11.400 3.044 M12.861 5.129 C 13.815 5.408,14.611 6.213,14.888 7.178 C 14.973 7.476,14.980 7.576,14.980 8.500 C 14.980 9.424,14.973 9.524,14.888 9.822 C 14.610 10.792,13.830 11.578,12.840 11.886 C 12.588 11.964,12.453 11.979,12.000 11.979 C 11.547 11.979,11.412 11.964,11.160 11.886 C 10.170 11.578,9.390 10.792,9.112 9.822 C 9.027 9.524,9.020 9.424,9.020 8.500 C 9.020 7.576,9.027 7.476,9.112 7.178 C 9.426 6.083,10.359 5.247,11.499 5.040 C 11.832 4.980,12.500 5.023,12.861 5.129 " stroke="none" fill="black" fill-rule="evenodd"></path></svg>