<svg xmlns="http://www.w3.org/2000/svg" width="24" height="24" viewBox="0 0 24 24" fill="none" stroke="currentColor" stroke-width="2" stroke-linecap="round" stroke-linejoin="round" class="icon icon-tabler icons-tabler-outline icon-tabler-tags-off"><path d="M2.626 2.045 C 2.257 2.239,1.951 2.673,1.951 3.000 C 1.951 3.316,2.074 3.483,2.968 4.385 L 3.806 5.230 3.553 5.372 C 2.882 5.749,2.367 6.382,2.115 7.140 C 2.022 7.419,2.022 7.425,2.009 9.943 C 1.995 12.692,1.998 12.740,2.223 13.305 C 2.283 13.456,2.404 13.688,2.491 13.820 C 2.664 14.081,8.440 19.901,8.863 20.241 C 9.195 20.507,9.630 20.734,10.060 20.865 C 10.382 20.963,10.482 20.975,11.000 20.975 C 11.516 20.975,11.619 20.963,11.932 20.867 C 12.744 20.618,12.922 20.482,14.571 18.843 L 16.002 17.422 16.548 17.968 L 17.094 18.515 17.021 18.678 C 16.870 19.013,16.966 19.368,17.299 19.701 C 17.631 20.033,17.987 20.130,18.321 19.980 L 18.483 19.907 19.471 20.888 C 20.102 21.514,20.524 21.903,20.637 21.960 C 20.989 22.137,21.354 22.048,21.701 21.701 C 22.047 21.355,22.137 20.990,21.961 20.637 C 21.897 20.510,19.774 18.356,14.353 12.920 C 10.218 8.773,6.795 5.340,6.747 5.292 C 5.625 4.153,3.503 2.111,3.372 2.045 C 3.152 1.934,2.835 1.934,2.626 2.045 M14.626 5.045 C 14.420 5.154,14.146 5.433,14.038 5.644 C 13.924 5.868,13.924 6.133,14.040 6.363 C 14.102 6.485,14.918 7.334,16.695 9.120 C 19.541 11.982,19.509 11.945,19.783 12.750 C 20.124 13.753,20.057 14.751,19.581 15.736 C 19.262 16.397,19.265 16.669,19.597 17.001 C 19.919 17.323,20.392 17.475,20.728 17.364 C 21.142 17.227,21.659 16.240,21.908 15.109 C 22.019 14.604,22.007 13.407,21.885 12.840 C 21.704 11.999,21.356 11.204,20.894 10.580 C 20.537 10.099,15.617 5.165,15.372 5.044 C 15.152 4.934,14.834 4.935,14.626 5.045 M10.400 5.556 C 10.111 5.648,9.747 5.963,9.613 6.235 C 9.520 6.424,9.522 6.738,9.617 6.940 C 9.668 7.049,10.667 8.075,12.736 10.144 C 16.014 13.422,15.979 13.391,16.340 13.350 C 16.578 13.323,16.770 13.219,16.994 12.994 C 17.219 12.770,17.323 12.578,17.350 12.340 C 17.391 11.978,17.423 12.014,14.144 8.736 C 12.237 6.829,11.047 5.668,10.957 5.628 C 10.777 5.546,10.529 5.514,10.400 5.556 M10.080 11.500 L 14.580 16.000 13.220 17.361 C 11.631 18.953,11.593 18.980,11.001 18.980 C 10.377 18.980,10.609 19.175,7.207 15.784 C 5.474 14.056,4.157 12.712,4.107 12.620 C 4.021 12.462,4.020 12.436,4.009 10.185 C 3.996 7.574,3.992 7.615,4.303 7.303 C 4.531 7.076,4.742 7.006,5.220 7.003 L 5.580 7.000 10.080 11.500 M6.660 9.037 C 6.215 9.146,6.000 9.459,6.000 9.998 C 6.000 10.654,6.342 11.000,6.991 11.000 C 7.428 10.999,7.712 10.858,7.880 10.558 C 7.967 10.402,7.980 10.332,7.979 10.000 C 7.978 9.567,7.898 9.355,7.678 9.199 C 7.435 9.025,6.995 8.956,6.660 9.037 " stroke="none" fill="black" fill-rule="evenodd"></path></svg>