<svg xmlns="http://www.w3.org/2000/svg" width="24" height="24" viewBox="0 0 24 24" fill="none" stroke="currentColor" stroke-width="2" stroke-linecap="round" stroke-linejoin="round" class="icon icon-tabler icons-tabler-outline icon-tabler-irregular-polyhedron"><path d="M11.473 1.038 C 11.371 1.057,11.182 1.103,11.053 1.140 C 10.748 1.228,4.605 3.676,4.297 3.832 C 3.538 4.216,3.079 5.113,3.239 5.901 C 3.266 6.032,3.664 7.458,4.124 9.070 L 4.960 12.000 4.092 15.030 C 3.246 17.981,3.223 18.069,3.224 18.420 C 3.225 18.831,3.321 19.156,3.544 19.504 C 3.684 19.722,4.019 20.043,4.218 20.148 C 4.353 20.219,9.893 22.435,10.617 22.707 C 11.638 23.091,12.339 23.099,13.303 22.738 C 13.925 22.505,19.654 20.215,19.784 20.148 C 19.848 20.114,20.010 19.987,20.145 19.864 C 20.610 19.442,20.871 18.713,20.765 18.133 C 20.737 17.983,20.338 16.542,19.877 14.930 L 19.040 12.000 19.876 9.070 C 20.336 7.458,20.734 6.032,20.761 5.901 C 20.921 5.113,20.462 4.216,19.703 3.832 C 19.348 3.652,13.216 1.216,12.875 1.119 C 12.544 1.025,11.783 0.981,11.473 1.038 M14.948 4.064 C 16.382 4.634,17.543 5.111,17.528 5.124 C 17.512 5.137,16.330 5.560,14.900 6.064 C 12.309 6.977,12.299 6.980,11.980 6.976 C 11.669 6.972,11.589 6.947,9.100 6.066 C 7.692 5.567,6.513 5.149,6.480 5.136 C 6.422 5.114,11.210 3.179,11.620 3.059 C 12.077 2.925,12.096 2.931,14.948 4.064 M8.088 7.822 C 9.437 8.296,10.643 8.722,10.770 8.768 L 11.000 8.851 11.000 10.790 C 11.000 12.402,10.991 12.725,10.946 12.708 C 10.916 12.696,9.994 12.368,8.896 11.977 C 7.798 11.587,6.879 11.248,6.852 11.224 C 6.826 11.200,6.540 10.253,6.217 9.120 C 5.894 7.987,5.621 7.038,5.610 7.010 C 5.600 6.982,5.601 6.960,5.614 6.960 C 5.626 6.960,6.739 7.348,8.088 7.822 M18.390 7.010 C 18.379 7.038,18.105 7.992,17.779 9.132 C 17.330 10.704,17.170 11.213,17.114 11.243 C 17.074 11.265,16.154 11.599,15.071 11.986 C 13.988 12.373,13.079 12.698,13.051 12.709 C 13.010 12.725,13.000 12.341,13.000 10.789 L 13.000 8.849 13.410 8.703 C 15.706 7.890,18.347 6.963,18.374 6.962 C 18.393 6.961,18.400 6.982,18.390 7.010 M8.846 14.079 C 10.015 14.497,10.979 14.845,10.986 14.853 C 10.994 14.861,10.996 16.181,10.990 17.786 L 10.980 20.706 8.112 19.563 C 6.534 18.934,5.240 18.406,5.234 18.388 C 5.218 18.334,6.658 13.321,6.690 13.320 C 6.706 13.320,7.676 13.662,8.846 14.079 M18.058 15.838 C 18.452 17.223,18.771 18.370,18.766 18.388 C 18.760 18.406,17.466 18.934,15.888 19.563 L 13.020 20.706 13.010 17.786 C 13.004 16.181,13.006 14.861,13.014 14.853 C 13.036 14.831,17.255 13.324,17.300 13.322 C 17.322 13.321,17.663 14.453,18.058 15.838 " stroke="none" fill="black" fill-rule="evenodd"></path></svg>