<svg xmlns="http://www.w3.org/2000/svg" width="24" height="24" viewBox="0 0 24 24" fill="none" stroke="currentColor" stroke-width="2" stroke-linecap="round" stroke-linejoin="round" class="icon icon-tabler icons-tabler-outline icon-tabler-phone-outgoing"><path d="M17.719 2.999 L 15.658 3.020 15.459 3.122 C 15.119 3.297,14.978 3.606,15.009 4.104 C 15.038 4.563,15.250 4.852,15.635 4.959 C 15.715 4.981,16.185 5.000,16.679 5.000 L 17.578 5.000 15.853 6.730 C 14.679 7.908,14.100 8.517,14.040 8.637 C 13.863 8.989,13.952 9.354,14.299 9.701 C 14.646 10.048,15.011 10.137,15.363 9.960 C 15.483 9.900,16.092 9.321,17.270 8.147 L 19.000 6.422 19.000 7.321 C 19.000 7.815,19.019 8.285,19.041 8.365 C 19.148 8.750,19.437 8.962,19.896 8.991 C 20.381 9.022,20.699 8.882,20.880 8.558 L 20.980 8.380 21.008 6.220 C 21.023 5.032,21.036 4.001,21.038 3.929 C 21.041 3.739,20.834 3.310,20.690 3.207 C 20.467 3.048,20.205 2.959,19.987 2.969 C 19.873 2.974,18.852 2.987,17.719 2.999 M4.499 3.043 C 3.383 3.230,2.461 4.048,2.114 5.160 C 2.032 5.421,2.021 5.536,2.025 6.040 C 2.036 7.459,2.448 9.403,3.102 11.122 C 4.798 15.580,8.420 19.202,12.878 20.898 C 14.597 21.552,16.541 21.964,17.960 21.975 C 18.464 21.979,18.579 21.968,18.840 21.886 C 19.816 21.581,20.557 20.847,20.885 19.860 C 20.978 19.582,20.978 19.567,20.991 17.207 C 21.006 14.494,21.013 14.564,20.695 14.284 C 20.540 14.148,20.148 13.979,17.888 13.074 C 15.561 12.144,15.230 12.021,14.997 12.007 C 14.699 11.990,14.504 12.064,14.310 12.268 C 14.250 12.332,13.960 12.783,13.667 13.270 L 13.133 14.156 12.797 13.931 C 11.752 13.234,10.772 12.253,10.069 11.202 C 9.944 11.016,9.846 10.861,9.851 10.856 C 9.856 10.852,10.256 10.611,10.740 10.321 C 11.224 10.031,11.688 9.727,11.772 9.647 C 11.974 9.451,12.060 9.169,12.000 8.895 C 11.976 8.788,11.487 7.521,10.913 6.080 C 9.896 3.530,9.863 3.455,9.681 3.276 C 9.551 3.149,9.438 3.079,9.309 3.046 C 9.091 2.992,4.824 2.989,4.499 3.043 M9.040 6.799 C 9.672 8.381,9.744 8.583,9.686 8.623 C 9.650 8.647,9.234 8.898,8.763 9.180 C 7.590 9.882,7.480 9.992,7.480 10.459 C 7.480 10.655,7.512 10.745,7.752 11.212 C 8.052 11.799,8.567 12.597,8.984 13.120 C 9.332 13.558,10.442 14.668,10.880 15.016 C 11.403 15.433,12.201 15.948,12.788 16.248 C 13.255 16.488,13.345 16.520,13.541 16.520 C 13.805 16.520,14.015 16.425,14.189 16.226 C 14.256 16.150,14.541 15.704,14.822 15.234 C 15.103 14.764,15.353 14.350,15.377 14.314 C 15.417 14.256,15.619 14.328,17.201 14.960 L 18.980 15.672 18.992 17.346 C 19.000 18.454,18.990 19.089,18.961 19.224 C 18.905 19.484,18.724 19.731,18.486 19.871 C 18.317 19.970,18.266 19.980,17.920 19.976 C 17.711 19.973,17.369 19.949,17.160 19.923 C 14.143 19.536,11.371 18.301,9.120 16.340 C 6.378 13.952,4.546 10.533,4.106 6.980 C 3.960 5.804,3.981 5.625,4.303 5.303 C 4.601 5.005,4.608 5.004,6.594 5.013 L 8.328 5.020 9.040 6.799 " stroke="none" fill="black" fill-rule="evenodd"></path></svg>