<svg xmlns="http://www.w3.org/2000/svg" width="24" height="24" viewBox="0 0 24 24" fill="none" stroke="currentColor" stroke-width="2" stroke-linecap="round" stroke-linejoin="round" class="icon icon-tabler icons-tabler-outline icon-tabler-device-speaker"><path d="M6.499 2.043 C 5.379 2.233,4.461 3.048,4.114 4.160 L 4.020 4.460 4.020 12.000 L 4.020 19.540 4.114 19.840 C 4.422 20.827,5.173 21.578,6.160 21.886 L 6.460 21.980 12.000 21.980 L 17.540 21.980 17.840 21.886 C 18.827 21.578,19.578 20.827,19.886 19.840 L 19.980 19.540 19.980 12.000 L 19.980 4.460 19.886 4.160 C 19.581 3.182,18.832 2.428,17.861 2.121 L 17.540 2.020 12.120 2.014 C 9.139 2.011,6.609 2.024,6.499 2.043 M17.310 4.061 C 17.589 4.144,17.856 4.411,17.939 4.690 C 17.993 4.870,18.000 5.755,18.000 12.001 C 18.000 17.907,17.991 19.138,17.945 19.290 C 17.872 19.533,17.707 19.740,17.484 19.872 L 17.300 19.980 12.000 19.980 L 6.700 19.980 6.516 19.872 C 6.415 19.813,6.284 19.700,6.225 19.623 C 5.986 19.309,6.000 19.795,6.000 12.022 C 6.000 4.005,5.975 4.631,6.304 4.303 C 6.621 3.985,6.234 4.006,11.983 4.003 C 16.458 4.000,17.131 4.008,17.310 4.061 M11.614 6.057 C 11.221 6.180,11.039 6.435,11.009 6.906 C 10.962 7.621,11.306 8.000,12.000 8.000 C 12.698 8.000,13.043 7.616,12.989 6.900 C 12.963 6.563,12.859 6.327,12.678 6.199 C 12.414 6.010,11.957 5.950,11.614 6.057 M11.358 10.061 C 10.230 10.237,9.143 10.974,8.569 11.953 C 7.320 14.083,8.233 16.785,10.512 17.704 C 12.558 18.528,14.877 17.538,15.704 15.488 C 16.090 14.530,16.090 13.469,15.705 12.516 C 15.172 11.197,14.001 10.269,12.605 10.058 C 12.144 9.989,11.816 9.990,11.358 10.061 M12.523 12.073 C 13.262 12.266,13.850 12.924,13.967 13.690 C 14.067 14.343,13.873 14.933,13.403 15.404 C 13.002 15.807,12.547 16.000,12.000 16.000 C 11.485 16.000,11.038 15.822,10.653 15.465 C 9.323 14.229,10.189 12.005,12.000 12.005 C 12.143 12.005,12.378 12.036,12.523 12.073 " stroke="none" fill="black" fill-rule="evenodd"></path></svg>