<svg xmlns="http://www.w3.org/2000/svg" width="24" height="24" viewBox="0 0 24 24" fill="none" stroke="currentColor" stroke-width="2" stroke-linecap="round" stroke-linejoin="round" class="icon icon-tabler icons-tabler-outline icon-tabler-brand-mantine"><path d="M11.080 2.045 C 9.507 2.184,7.883 2.751,6.540 3.630 C 5.905 4.045,5.499 4.378,4.919 4.958 C 2.953 6.926,1.919 9.544,2.013 12.320 C 2.084 14.439,2.752 16.328,4.033 18.040 C 4.430 18.570,5.305 19.464,5.800 19.847 C 7.242 20.961,8.787 21.624,10.600 21.907 C 11.247 22.008,12.753 22.008,13.400 21.907 C 15.638 21.557,17.504 20.620,19.062 19.062 C 20.620 17.504,21.557 15.638,21.907 13.400 C 22.008 12.753,22.008 11.247,21.907 10.600 C 21.624 8.786,20.959 7.238,19.847 5.800 C 19.510 5.365,18.639 4.494,18.200 4.154 C 16.133 2.555,13.646 1.818,11.080 2.045 M12.734 4.041 C 14.574 4.216,16.228 4.976,17.554 6.256 C 20.043 8.658,20.702 12.394,19.183 15.499 C 18.749 16.387,18.223 17.105,17.496 17.801 C 16.876 18.394,16.262 18.819,15.471 19.200 C 13.267 20.265,10.733 20.265,8.529 19.200 C 7.477 18.693,6.612 18.015,5.847 17.100 C 3.848 14.711,3.440 11.302,4.816 8.500 C 6.162 5.760,8.867 4.049,11.920 4.005 C 12.129 4.003,12.495 4.019,12.734 4.041 M10.555 7.074 C 10.061 7.388,9.828 7.985,10.039 8.398 C 10.085 8.488,10.294 8.706,10.539 8.919 C 10.792 9.139,11.003 9.360,11.067 9.473 C 11.126 9.576,11.234 9.727,11.306 9.809 C 11.772 10.336,12.067 11.503,11.964 12.414 C 11.879 13.169,11.584 13.949,11.281 14.220 C 11.232 14.264,11.150 14.381,11.099 14.480 C 11.005 14.664,10.866 14.807,10.388 15.217 C 10.239 15.345,10.081 15.519,10.038 15.603 C 9.828 16.015,10.062 16.613,10.555 16.926 C 10.787 17.073,11.054 17.079,11.342 16.945 C 11.550 16.848,12.196 16.332,12.374 16.119 L 12.475 16.000 13.347 16.000 C 13.827 16.000,14.285 15.981,14.365 15.959 C 14.586 15.898,14.770 15.755,14.880 15.558 C 14.967 15.402,14.980 15.332,14.979 15.000 C 14.978 14.687,14.962 14.591,14.890 14.453 C 14.732 14.155,14.404 14.000,13.929 14.000 C 13.680 14.000,13.672 13.997,13.697 13.910 C 14.072 12.637,14.097 11.599,13.780 10.407 C 13.725 10.201,13.680 10.025,13.680 10.016 C 13.680 10.007,13.802 10.000,13.950 10.000 C 14.430 9.999,14.706 9.868,14.880 9.558 C 14.967 9.402,14.980 9.332,14.979 9.000 C 14.978 8.567,14.898 8.355,14.678 8.199 C 14.441 8.029,14.241 8.000,13.336 8.000 L 12.485 8.000 12.273 7.789 C 11.483 7.004,10.990 6.799,10.555 7.074 M9.614 11.055 C 9.220 11.184,9.039 11.437,9.009 11.900 C 8.978 12.381,9.119 12.699,9.442 12.880 C 9.597 12.967,9.669 12.980,10.000 12.980 C 10.312 12.980,10.408 12.964,10.540 12.894 C 10.866 12.718,11.000 12.459,11.000 12.000 C 11.000 11.357,10.713 11.048,10.083 11.016 C 9.893 11.006,9.718 11.021,9.614 11.055 " stroke="none" fill="black" fill-rule="evenodd"></path></svg>