<svg xmlns="http://www.w3.org/2000/svg" width="24" height="24" viewBox="0 0 24 24" fill="none" stroke="currentColor" stroke-width="2" stroke-linecap="round" stroke-linejoin="round" class="icon icon-tabler icons-tabler-outline icon-tabler-pencil-check"><path d="M15.814 3.737 C 15.278 3.839,14.795 4.041,14.300 4.371 C 13.990 4.577,3.279 15.266,3.127 15.520 L 3.020 15.700 3.020 18.040 L 3.020 20.380 3.120 20.558 C 3.232 20.758,3.417 20.900,3.645 20.961 C 3.744 20.988,4.595 20.999,6.049 20.991 L 8.300 20.980 8.480 20.873 C 8.737 20.720,19.464 9.967,19.656 9.670 C 19.882 9.320,20.068 8.922,20.187 8.532 C 20.284 8.213,20.294 8.118,20.297 7.520 C 20.300 6.804,20.246 6.517,20.009 5.980 C 19.543 4.923,18.559 4.080,17.460 3.796 C 17.046 3.689,16.219 3.659,15.814 3.737 M16.982 5.742 C 17.940 5.992,18.514 6.999,18.258 7.982 C 18.176 8.297,18.037 8.526,17.745 8.832 L 17.504 9.084 16.212 7.792 L 14.921 6.501 15.141 6.279 C 15.660 5.754,16.306 5.566,16.982 5.742 M11.830 14.750 L 7.580 19.000 6.290 19.000 L 5.000 19.000 5.000 17.710 L 5.000 16.420 9.250 12.170 L 13.500 7.920 14.790 9.210 L 16.080 10.500 11.830 14.750 M20.620 16.046 C 20.525 16.095,19.753 16.834,18.731 17.853 L 17.001 19.577 16.271 18.854 C 15.856 18.444,15.467 18.094,15.372 18.045 C 15.021 17.868,14.640 17.958,14.299 18.299 C 13.952 18.646,13.863 19.010,14.040 19.363 C 14.162 19.607,16.393 21.838,16.637 21.960 C 16.868 22.076,17.132 22.076,17.363 21.961 C 17.486 21.899,18.197 21.215,19.706 19.706 C 21.215 18.197,21.899 17.486,21.961 17.363 C 22.137 17.010,22.048 16.645,21.701 16.299 C 21.361 15.959,20.967 15.867,20.620 16.046 " stroke="none" fill="black" fill-rule="evenodd"></path></svg>