<svg xmlns="http://www.w3.org/2000/svg" width="24" height="24" viewBox="0 0 24 24" fill="none" stroke="currentColor" stroke-width="2" stroke-linecap="round" stroke-linejoin="round" class="icon icon-tabler icons-tabler-outline icon-tabler-math-x-divide-y"><path d="M8.626 2.045 C 8.257 2.239,7.951 2.673,7.951 3.000 C 7.951 3.333,8.056 3.467,9.353 4.770 L 10.577 6.000 9.353 7.230 C 8.056 8.533,7.951 8.667,7.951 9.000 C 7.951 9.477,8.523 10.049,9.000 10.049 C 9.333 10.049,9.467 9.944,10.770 8.647 L 12.000 7.423 13.230 8.647 C 14.533 9.944,14.667 10.049,15.000 10.049 C 15.477 10.049,16.049 9.477,16.049 9.000 C 16.049 8.667,15.944 8.533,14.647 7.230 L 13.423 6.000 14.647 4.770 C 15.452 3.961,15.901 3.479,15.960 3.363 C 16.137 3.011,16.048 2.646,15.701 2.299 C 15.361 1.958,14.980 1.868,14.628 2.045 C 14.523 2.098,13.999 2.588,13.230 3.353 L 12.000 4.577 10.770 3.353 C 10.001 2.588,9.477 2.098,9.372 2.045 C 9.152 1.934,8.835 1.934,8.626 2.045 M4.614 11.057 C 4.377 11.131,4.212 11.261,4.109 11.453 C 4.035 11.592,4.020 11.684,4.020 12.000 C 4.020 12.331,4.033 12.403,4.120 12.558 C 4.230 12.755,4.414 12.898,4.635 12.959 C 4.835 13.015,19.165 13.015,19.365 12.959 C 19.586 12.898,19.770 12.755,19.880 12.558 C 19.967 12.402,19.980 12.332,19.979 12.000 C 19.978 11.567,19.898 11.355,19.678 11.199 C 19.387 10.991,19.720 11.000,11.984 11.003 C 6.188 11.005,4.747 11.016,4.614 11.057 M8.652 14.058 C 8.402 14.174,8.111 14.433,8.024 14.618 C 7.939 14.796,7.944 15.102,8.035 15.302 C 8.076 15.391,8.725 16.387,9.477 17.516 C 10.230 18.644,10.837 19.590,10.827 19.617 C 10.816 19.645,10.526 20.105,10.183 20.641 C 9.487 21.725,9.395 21.933,9.476 22.236 C 9.537 22.466,9.638 22.603,9.876 22.777 C 10.277 23.071,10.664 23.121,10.969 22.919 C 11.070 22.852,11.196 22.740,11.249 22.669 C 11.449 22.404,15.889 15.468,15.962 15.307 C 16.055 15.102,16.062 14.798,15.976 14.618 C 15.889 14.433,15.598 14.174,15.348 14.058 C 14.961 13.877,14.602 13.950,14.317 14.267 C 14.242 14.351,13.703 15.162,13.120 16.070 C 12.537 16.977,12.049 17.720,12.036 17.720 C 12.023 17.720,11.519 16.978,10.916 16.071 C 10.313 15.164,9.758 14.353,9.683 14.268 C 9.400 13.951,9.040 13.877,8.652 14.058 " stroke="none" fill="black" fill-rule="evenodd"></path></svg>