<svg xmlns="http://www.w3.org/2000/svg" width="24" height="24" viewBox="0 0 24 24" fill="none" stroke="currentColor" stroke-width="2" stroke-linecap="round" stroke-linejoin="round" class="icon icon-tabler icons-tabler-outline icon-tabler-file-dislike"><path d="M6.499 2.043 C 5.393 2.228,4.487 3.025,4.114 4.140 L 4.021 4.420 4.009 7.810 C 4.001 10.058,4.011 11.252,4.038 11.354 C 4.144 11.747,4.433 11.961,4.896 11.991 C 5.381 12.022,5.699 11.882,5.880 11.558 L 5.980 11.380 6.000 8.060 C 6.022 4.340,6.001 4.594,6.321 4.283 C 6.622 3.992,6.514 4.000,9.947 4.000 L 13.000 4.000 13.000 5.632 C 13.000 7.399,13.010 7.507,13.225 7.930 C 13.361 8.199,13.801 8.639,14.070 8.775 C 14.493 8.990,14.601 9.000,16.368 9.000 L 18.000 9.000 18.000 14.054 C 18.000 18.220,17.990 19.139,17.945 19.290 C 17.872 19.533,17.707 19.740,17.484 19.872 L 17.300 19.980 15.720 20.001 C 13.995 20.025,13.980 20.027,13.752 20.267 C 13.583 20.444,13.513 20.658,13.512 21.000 C 13.510 21.368,13.598 21.600,13.811 21.787 C 14.048 21.995,14.198 22.009,15.980 21.992 C 17.520 21.977,17.590 21.973,17.860 21.884 C 18.844 21.561,19.581 20.817,19.886 19.840 L 19.980 19.540 19.980 13.580 L 19.980 7.620 19.890 7.452 C 19.841 7.360,19.724 7.231,19.630 7.165 C 19.498 7.073,15.263 2.838,14.719 2.254 C 14.473 1.991,14.626 2.000,10.463 2.005 C 8.393 2.007,6.609 2.025,6.499 2.043 M15.800 6.220 L 16.579 7.000 15.790 7.000 L 15.000 7.000 15.000 6.220 C 15.000 5.791,15.005 5.440,15.010 5.440 C 15.016 5.440,15.371 5.791,15.800 6.220 M3.477 13.072 C 2.802 13.252,2.238 13.824,2.060 14.508 C 1.972 14.844,1.972 18.156,2.060 18.492 C 2.153 18.852,2.310 19.118,2.596 19.404 C 3.107 19.915,3.412 20.006,4.593 19.996 L 5.446 19.988 6.332 21.364 C 6.927 22.289,7.290 22.812,7.439 22.961 C 8.436 23.955,10.174 23.657,10.776 22.388 C 10.971 21.976,11.000 21.778,11.000 20.842 L 11.000 20.008 11.710 19.992 C 12.317 19.978,12.457 19.962,12.675 19.885 C 13.370 19.641,13.844 19.113,13.968 18.447 C 14.059 17.958,13.998 17.740,13.234 15.823 C 12.856 14.875,12.505 14.034,12.455 13.953 C 12.304 13.712,12.120 13.522,11.883 13.366 C 11.329 12.999,11.262 12.992,8.680 13.007 C 6.581 13.020,6.580 13.020,6.340 13.115 C 6.041 13.232,5.960 13.232,5.660 13.116 C 5.441 13.031,5.348 13.022,4.580 13.012 C 3.880 13.003,3.696 13.013,3.477 13.072 M5.000 16.500 L 5.000 18.000 4.500 18.000 L 4.000 18.000 4.000 16.500 L 4.000 15.000 4.500 15.000 L 5.000 15.000 5.000 16.500 M11.352 16.500 L 11.953 18.000 10.883 18.000 C 9.745 18.000,9.569 18.022,9.322 18.199 C 9.254 18.247,9.158 18.362,9.109 18.453 C 9.023 18.615,9.019 18.667,9.000 20.080 C 8.981 21.475,8.977 21.540,8.905 21.540 C 8.850 21.540,8.584 21.159,7.915 20.121 L 7.000 18.701 7.000 16.851 L 7.000 15.000 8.876 15.000 L 10.752 15.000 11.352 16.500 " stroke="none" fill="black" fill-rule="evenodd"></path></svg>