<svg xmlns="http://www.w3.org/2000/svg" width="24" height="24" viewBox="0 0 24 24" fill="none" stroke="currentColor" stroke-width="2" stroke-linecap="round" stroke-linejoin="round" class="icon icon-tabler icons-tabler-outline icon-tabler-inbox"><path d="M5.499 3.043 C 4.380 3.233,3.461 4.048,3.114 5.160 L 3.020 5.460 3.020 12.000 L 3.020 18.540 3.114 18.840 C 3.422 19.827,4.173 20.578,5.160 20.886 L 5.460 20.980 12.000 20.980 L 18.540 20.980 18.840 20.886 C 19.827 20.578,20.578 19.827,20.886 18.840 L 20.980 18.540 20.980 12.000 L 20.980 5.460 20.886 5.160 C 20.581 4.182,19.832 3.428,18.861 3.121 L 18.540 3.020 12.120 3.014 C 8.589 3.011,5.609 3.024,5.499 3.043 M18.310 5.061 C 18.589 5.144,18.856 5.411,18.939 5.690 C 18.991 5.865,19.000 6.331,19.000 8.947 L 19.000 12.000 17.947 12.000 C 17.099 12.000,16.852 12.012,16.677 12.064 C 16.471 12.125,16.387 12.201,15.018 13.564 L 13.577 15.000 12.000 15.000 L 10.423 15.000 8.982 13.564 C 7.613 12.201,7.529 12.125,7.323 12.064 C 7.148 12.012,6.901 12.000,6.053 12.000 L 5.000 12.000 5.000 8.947 C 5.000 5.480,4.989 5.618,5.304 5.303 C 5.623 4.983,5.120 5.006,11.983 5.003 C 17.353 5.000,18.131 5.007,18.310 5.061 M7.960 15.383 C 8.719 16.143,9.421 16.814,9.520 16.873 L 9.700 16.980 12.000 16.980 L 14.300 16.980 14.480 16.873 C 14.579 16.814,15.281 16.143,16.040 15.383 L 17.420 14.000 18.210 14.000 L 19.000 14.000 19.000 16.054 C 19.000 18.283,18.996 18.334,18.779 18.618 C 18.718 18.698,18.585 18.813,18.484 18.872 L 18.300 18.980 12.000 18.980 L 5.700 18.980 5.516 18.872 C 5.415 18.813,5.284 18.700,5.225 18.623 C 5.000 18.328,5.000 18.328,5.000 16.075 L 5.000 14.000 5.790 14.000 L 6.580 14.000 7.960 15.383 " stroke="none" fill="black" fill-rule="evenodd"></path></svg>