<svg xmlns="http://www.w3.org/2000/svg" width="24" height="24" viewBox="0 0 24 24" fill="none" stroke="currentColor" stroke-width="2" stroke-linecap="round" stroke-linejoin="round" class="icon icon-tabler icons-tabler-outline icon-tabler-layout-navbar-inactive"><path d="M5.499 3.043 C 4.380 3.233,3.461 4.048,3.114 5.160 L 3.020 5.460 3.020 12.000 L 3.020 18.540 3.114 18.840 C 3.422 19.827,4.173 20.578,5.160 20.886 L 5.460 20.980 12.000 20.980 L 18.540 20.980 18.840 20.886 C 19.827 20.578,20.578 19.827,20.886 18.840 L 20.980 18.540 20.980 12.000 L 20.980 5.460 20.886 5.160 C 20.581 4.182,19.832 3.428,18.861 3.121 L 18.540 3.020 12.120 3.014 C 8.589 3.011,5.609 3.024,5.499 3.043 M18.310 5.061 C 18.452 5.103,18.571 5.178,18.697 5.303 C 18.978 5.584,19.000 5.704,19.000 6.938 L 19.000 7.982 18.756 8.028 C 18.272 8.120,18.042 8.388,18.009 8.900 C 17.968 9.532,18.251 9.922,18.797 9.987 L 19.000 10.011 19.000 14.059 C 19.000 18.453,19.006 18.320,18.779 18.618 C 18.718 18.698,18.585 18.813,18.484 18.872 L 18.300 18.980 12.000 18.980 L 5.700 18.980 5.516 18.872 C 5.415 18.813,5.284 18.700,5.225 18.623 C 4.990 18.315,5.000 18.510,5.000 14.081 L 5.000 10.011 5.198 9.988 C 5.533 9.948,5.752 9.807,5.893 9.540 C 6.018 9.303,6.016 8.691,5.888 8.450 C 5.773 8.232,5.551 8.086,5.244 8.028 L 5.000 7.982 5.000 6.938 C 5.000 5.703,5.022 5.584,5.304 5.303 C 5.623 4.983,5.120 5.006,11.983 5.003 C 17.353 5.000,18.131 5.007,18.310 5.061 M8.614 8.057 C 8.377 8.131,8.212 8.261,8.109 8.453 C 8.035 8.592,8.020 8.684,8.020 9.000 C 8.020 9.331,8.033 9.403,8.120 9.558 C 8.230 9.755,8.414 9.898,8.635 9.959 C 8.823 10.012,10.177 10.012,10.365 9.959 C 10.586 9.898,10.770 9.755,10.880 9.558 C 10.967 9.402,10.980 9.332,10.979 9.000 C 10.978 8.687,10.962 8.591,10.890 8.453 C 10.786 8.256,10.623 8.131,10.371 8.055 C 10.126 7.982,8.851 7.983,8.614 8.057 M13.614 8.057 C 13.377 8.131,13.212 8.261,13.109 8.453 C 13.035 8.592,13.020 8.684,13.020 9.000 C 13.020 9.331,13.033 9.403,13.120 9.558 C 13.230 9.755,13.414 9.898,13.635 9.959 C 13.823 10.012,15.177 10.012,15.365 9.959 C 15.586 9.898,15.770 9.755,15.880 9.558 C 15.967 9.402,15.980 9.332,15.979 9.000 C 15.978 8.687,15.962 8.591,15.890 8.453 C 15.786 8.256,15.623 8.131,15.371 8.055 C 15.126 7.982,13.851 7.983,13.614 8.057 " stroke="none" fill="black" fill-rule="evenodd"></path></svg>