<svg xmlns="http://www.w3.org/2000/svg" width="24" height="24" viewBox="0 0 24 24" fill="none" stroke="currentColor" stroke-width="2" stroke-linecap="round" stroke-linejoin="round" class="icon icon-tabler icons-tabler-outline icon-tabler-arrows-left"><path d="M5.620 3.046 C 5.528 3.094,4.826 3.758,3.960 4.618 C 3.135 5.438,2.399 6.150,2.324 6.201 C 2.149 6.321,1.951 6.745,1.951 7.000 C 1.951 7.238,2.150 7.682,2.303 7.784 C 2.366 7.826,3.101 8.537,3.938 9.365 C 4.949 10.365,5.520 10.901,5.637 10.960 C 5.989 11.137,6.354 11.048,6.701 10.701 C 7.048 10.354,7.137 9.988,6.959 9.637 C 6.905 9.531,6.580 9.168,6.147 8.730 L 5.425 8.000 13.322 8.000 C 18.490 8.000,21.270 7.986,21.365 7.959 C 21.586 7.898,21.770 7.755,21.880 7.558 C 21.967 7.402,21.980 7.332,21.979 7.000 C 21.978 6.567,21.898 6.355,21.678 6.199 C 21.386 5.991,21.772 6.000,13.306 6.000 L 5.425 6.000 6.147 5.270 C 6.580 4.832,6.905 4.469,6.959 4.363 C 7.137 4.012,7.048 3.646,6.701 3.299 C 6.361 2.959,5.967 2.867,5.620 3.046 M5.620 13.046 C 5.528 13.094,4.826 13.758,3.960 14.618 C 3.135 15.438,2.399 16.150,2.324 16.201 C 2.149 16.321,1.951 16.745,1.951 17.000 C 1.951 17.238,2.150 17.682,2.303 17.784 C 2.366 17.826,3.101 18.537,3.938 19.365 C 4.949 20.365,5.520 20.901,5.637 20.960 C 5.989 21.137,6.354 21.048,6.701 20.701 C 7.048 20.354,7.137 19.988,6.959 19.637 C 6.905 19.531,6.580 19.168,6.147 18.730 L 5.425 18.000 13.322 18.000 C 18.490 18.000,21.270 17.986,21.365 17.959 C 21.586 17.898,21.770 17.755,21.880 17.558 C 21.967 17.402,21.980 17.332,21.979 17.000 C 21.978 16.567,21.898 16.355,21.678 16.199 C 21.386 15.991,21.772 16.000,13.306 16.000 L 5.425 16.000 6.147 15.270 C 6.580 14.832,6.905 14.469,6.959 14.363 C 7.137 14.012,7.048 13.646,6.701 13.299 C 6.361 12.959,5.967 12.867,5.620 13.046 " stroke="none" fill="black" fill-rule="evenodd"></path></svg>