<svg xmlns="http://www.w3.org/2000/svg" width="24" height="24" viewBox="0 0 24 24" fill="none" stroke="currentColor" stroke-width="2" stroke-linecap="round" stroke-linejoin="round" class="icon icon-tabler icons-tabler-outline icon-tabler-bus-off"><path d="M2.626 2.045 C 2.420 2.154,2.146 2.433,2.038 2.644 C 1.853 3.007,1.945 3.330,2.362 3.775 L 2.603 4.033 2.390 4.095 C 1.952 4.223,1.431 4.663,1.216 5.088 C 0.990 5.533,1.000 5.249,1.000 11.478 C 1.000 15.201,1.015 17.271,1.041 17.365 C 1.102 17.586,1.245 17.770,1.442 17.880 C 1.610 17.974,1.662 17.981,2.387 18.000 L 3.155 18.020 3.316 18.340 C 3.686 19.071,4.360 19.637,5.160 19.886 C 5.594 20.021,6.406 20.021,6.840 19.886 C 7.645 19.635,8.318 19.069,8.688 18.330 L 8.853 18.000 12.009 18.000 L 15.164 18.000 15.264 18.224 C 15.756 19.338,16.923 20.051,18.155 19.990 L 18.540 19.971 19.500 20.921 C 20.105 21.519,20.526 21.903,20.637 21.960 C 20.989 22.137,21.354 22.048,21.701 21.701 C 22.115 21.287,22.159 20.871,21.833 20.440 C 21.792 20.385,19.306 17.880,16.309 14.873 C 13.312 11.866,10.815 9.361,10.760 9.305 C 10.705 9.250,10.030 8.575,9.260 7.805 C 8.490 7.036,7.815 6.361,7.760 6.305 C 7.705 6.249,7.255 5.799,6.760 5.305 C 6.265 4.811,5.815 4.360,5.760 4.304 C 4.998 3.525,3.504 2.112,3.372 2.045 C 3.152 1.934,2.836 1.934,2.626 2.045 M8.614 4.057 C 8.376 4.132,8.212 4.261,8.109 4.453 C 8.035 4.592,8.020 4.684,8.020 5.000 C 8.020 5.331,8.033 5.403,8.120 5.558 C 8.230 5.755,8.414 5.898,8.635 5.959 C 8.716 5.982,9.270 6.000,9.890 6.000 L 11.000 6.000 11.000 7.110 C 11.000 7.730,11.018 8.284,11.041 8.365 C 11.148 8.750,11.437 8.962,11.896 8.991 C 12.381 9.022,12.699 8.882,12.880 8.558 C 12.979 8.381,12.980 8.374,12.993 7.190 L 13.005 6.000 14.097 6.000 L 15.188 6.000 15.315 6.590 C 15.385 6.915,15.528 7.585,15.634 8.080 L 15.827 8.980 14.742 9.000 C 13.676 9.020,13.654 9.022,13.459 9.122 C 13.119 9.297,12.978 9.606,13.009 10.104 C 13.038 10.563,13.250 10.852,13.635 10.959 C 13.718 10.982,14.313 11.000,15.021 11.000 L 16.262 11.000 16.395 11.630 C 16.544 12.337,16.627 12.561,16.811 12.751 C 17.043 12.991,17.129 13.000,19.167 13.000 L 21.000 13.000 21.000 14.491 L 21.000 15.982 20.756 16.028 C 20.450 16.086,20.227 16.232,20.111 16.450 C 20.035 16.592,20.020 16.682,20.020 17.000 C 20.020 17.331,20.033 17.403,20.120 17.558 C 20.230 17.755,20.414 17.898,20.635 17.959 C 20.823 18.012,22.177 18.012,22.365 17.959 C 22.586 17.898,22.770 17.755,22.880 17.558 L 22.980 17.380 22.993 14.500 C 23.001 12.622,22.990 11.446,22.961 11.120 C 22.847 9.831,22.536 8.675,22.018 7.620 C 21.077 5.705,19.709 4.521,17.939 4.092 C 17.687 4.031,17.237 4.023,13.220 4.014 C 9.631 4.006,8.748 4.014,8.614 4.057 M5.290 6.710 L 6.000 7.421 6.000 8.210 L 6.000 9.000 4.500 9.000 L 3.000 9.000 3.000 7.500 L 3.000 6.000 3.790 6.000 L 4.581 6.000 5.290 6.710 M17.691 6.099 C 17.991 6.178,18.480 6.426,18.784 6.655 C 19.645 7.302,20.397 8.553,20.738 9.904 C 20.827 10.257,20.920 10.763,20.920 10.891 L 20.920 11.001 19.612 10.991 L 18.303 10.980 17.893 9.060 C 17.668 8.004,17.431 6.893,17.366 6.590 L 17.250 6.040 17.356 6.040 C 17.415 6.040,17.566 6.067,17.691 6.099 M12.080 13.500 L 14.580 16.000 11.716 16.000 L 8.853 16.000 8.688 15.670 C 8.321 14.938,7.642 14.363,6.861 14.125 C 6.588 14.042,6.458 14.027,6.000 14.027 C 5.542 14.027,5.412 14.042,5.139 14.125 C 4.358 14.363,3.679 14.938,3.312 15.670 C 3.195 15.904,3.125 16.000,3.073 16.000 C 3.003 16.000,3.000 15.899,3.000 13.500 L 3.000 11.000 6.290 11.000 L 9.580 11.000 12.080 13.500 M6.334 16.064 C 6.698 16.188,7.000 16.613,7.000 17.001 C 7.000 17.331,6.784 17.696,6.484 17.872 C 6.328 17.963,6.254 17.980,6.000 17.980 C 5.746 17.980,5.672 17.963,5.516 17.872 C 4.937 17.531,4.833 16.774,5.301 16.306 C 5.587 16.019,5.952 15.934,6.334 16.064 " stroke="none" fill="black" fill-rule="evenodd"></path></svg>