<svg xmlns="http://www.w3.org/2000/svg" width="24" height="24" viewBox="0 0 24 24" fill="none" stroke="currentColor" stroke-width="2" stroke-linecap="round" stroke-linejoin="round" class="icon icon-tabler icons-tabler-outline icon-tabler-math-1-divide-2"><path d="M11.620 2.046 C 11.390 2.165,9.153 4.411,9.040 4.637 C 8.863 4.990,8.952 5.354,9.299 5.701 C 9.641 6.043,10.013 6.137,10.349 5.965 C 10.440 5.919,10.623 5.780,10.757 5.656 L 11.000 5.431 11.000 7.326 C 11.000 8.471,11.016 9.277,11.041 9.365 C 11.148 9.750,11.437 9.962,11.896 9.991 C 12.381 10.022,12.699 9.882,12.880 9.558 L 12.980 9.380 12.980 6.040 L 12.980 2.700 12.871 2.514 C 12.758 2.323,12.558 2.141,12.332 2.025 C 12.153 1.934,11.818 1.944,11.620 2.046 M4.614 11.057 C 4.377 11.131,4.212 11.261,4.109 11.453 C 4.035 11.592,4.020 11.684,4.020 12.000 C 4.020 12.331,4.033 12.403,4.120 12.558 C 4.230 12.755,4.414 12.898,4.635 12.959 C 4.835 13.015,19.165 13.015,19.365 12.959 C 19.586 12.898,19.770 12.755,19.880 12.558 C 19.967 12.402,19.980 12.332,19.979 12.000 C 19.978 11.567,19.898 11.355,19.678 11.199 C 19.387 10.991,19.720 11.000,11.984 11.003 C 6.188 11.005,4.747 11.016,4.614 11.057 M9.614 14.057 C 9.377 14.131,9.212 14.261,9.109 14.453 C 9.035 14.592,9.020 14.684,9.020 15.000 C 9.020 15.331,9.033 15.403,9.120 15.558 C 9.230 15.755,9.414 15.898,9.635 15.959 C 9.721 15.983,10.435 16.000,11.390 16.000 L 13.000 16.000 13.000 16.500 L 13.000 17.000 11.870 17.002 C 10.595 17.005,10.391 17.035,9.983 17.281 C 9.703 17.449,9.354 17.816,9.219 18.083 C 9.036 18.443,9.000 18.677,9.000 19.500 C 9.000 20.329,9.036 20.556,9.225 20.930 C 9.361 21.199,9.801 21.639,10.070 21.775 C 10.497 21.991,10.591 22.000,12.478 22.000 C 13.522 22.000,14.278 21.983,14.365 21.959 C 14.586 21.898,14.770 21.755,14.880 21.558 C 14.967 21.402,14.980 21.332,14.979 21.000 C 14.978 20.567,14.898 20.355,14.678 20.199 C 14.416 20.012,14.290 20.000,12.594 20.000 L 11.000 20.000 11.000 19.500 L 11.000 19.000 12.132 19.000 C 13.358 19.000,13.528 18.979,13.930 18.775 C 14.196 18.640,14.638 18.200,14.771 17.937 C 14.959 17.566,15.000 17.312,14.999 16.514 C 14.999 15.716,14.954 15.424,14.781 15.083 C 14.646 14.816,14.297 14.449,14.017 14.281 C 13.578 14.017,13.468 14.005,11.520 14.005 C 10.204 14.005,9.739 14.018,9.614 14.057 " stroke="none" fill="black" fill-rule="evenodd"></path></svg>