<svg xmlns="http://www.w3.org/2000/svg" width="24" height="24" viewBox="0 0 24 24" fill="none" stroke="currentColor" stroke-width="2" stroke-linecap="round" stroke-linejoin="round" class="icon icon-tabler icons-tabler-outline icon-tabler-tower-off"><path d="M2.626 2.045 C 2.257 2.239,1.951 2.673,1.951 3.000 C 1.951 3.278,2.081 3.486,2.565 3.982 L 3.000 4.427 3.000 6.530 C 3.000 9.483,2.918 9.172,4.210 11.120 C 4.597 11.703,4.933 12.252,4.956 12.340 C 4.986 12.449,5.000 13.734,5.000 16.382 C 5.000 20.604,4.994 20.473,5.225 20.930 C 5.361 21.199,5.801 21.639,6.070 21.775 C 6.534 22.010,6.267 22.000,12.000 22.000 C 17.733 22.000,17.466 22.010,17.930 21.775 C 18.353 21.560,18.797 21.017,18.919 20.564 L 18.966 20.390 19.713 21.130 C 20.164 21.576,20.530 21.905,20.637 21.959 C 20.988 22.137,21.354 22.048,21.701 21.701 C 22.048 21.354,22.137 20.989,21.960 20.637 C 21.889 20.496,20.055 18.587,18.748 17.293 C 18.440 16.988,4.841 3.386,4.760 3.302 C 4.372 2.898,3.502 2.113,3.367 2.044 C 3.153 1.934,2.835 1.935,2.626 2.045 M10.477 2.073 C 9.806 2.249,9.238 2.823,9.060 3.508 C 9.013 3.687,9.000 4.006,9.000 4.978 C 9.000 5.687,9.018 6.282,9.041 6.365 C 9.148 6.750,9.437 6.962,9.896 6.991 C 10.381 7.022,10.699 6.882,10.880 6.558 C 10.979 6.381,10.980 6.374,10.993 5.190 L 11.005 4.000 12.000 4.000 L 12.996 4.000 13.008 5.190 C 13.020 6.374,13.020 6.381,13.120 6.558 C 13.230 6.755,13.414 6.898,13.635 6.959 C 13.829 7.013,17.171 7.013,17.365 6.959 C 17.586 6.898,17.770 6.755,17.880 6.558 C 17.979 6.381,17.980 6.374,17.993 5.190 L 18.005 4.000 18.503 4.000 L 19.000 4.000 19.000 6.250 C 19.000 7.732,18.985 8.555,18.956 8.660 C 18.933 8.748,18.597 9.297,18.210 9.880 C 17.222 11.369,17.172 11.464,17.060 12.054 C 16.990 12.421,16.976 14.130,17.041 14.365 C 17.148 14.750,17.437 14.962,17.896 14.991 C 18.381 15.022,18.699 14.882,18.880 14.558 C 18.977 14.385,18.981 14.354,19.002 13.360 C 19.015 12.759,19.043 12.298,19.069 12.237 C 19.093 12.181,19.435 11.650,19.829 11.057 C 20.771 9.640,20.830 9.528,20.938 8.956 C 21.028 8.485,21.029 3.907,20.940 3.529 C 20.858 3.182,20.720 2.927,20.465 2.653 C 19.978 2.129,19.602 2.005,18.500 2.005 C 17.398 2.005,17.022 2.129,16.535 2.653 C 16.108 3.112,16.000 3.460,16.000 4.368 L 16.000 5.000 15.500 5.000 L 15.000 5.000 14.999 4.390 C 14.999 3.471,14.887 3.107,14.465 2.653 C 14.198 2.366,13.870 2.164,13.523 2.073 C 13.134 1.972,10.866 1.972,10.477 2.073 M11.236 13.105 C 10.252 13.354,9.454 14.120,9.115 15.140 C 9.023 15.418,9.022 15.438,9.009 17.710 L 8.996 20.000 7.998 20.000 L 7.000 20.000 7.000 16.184 C 7.000 12.081,6.998 12.033,6.792 11.520 C 6.672 11.219,6.596 11.095,5.790 9.880 C 5.403 9.297,5.067 8.748,5.044 8.660 C 5.018 8.565,5.000 8.077,5.000 7.460 L 5.000 6.420 8.297 9.717 L 11.595 13.015 11.236 13.105 M12.334 15.064 C 12.446 15.102,12.593 15.200,12.700 15.306 C 13.001 15.607,13.000 15.598,13.000 17.947 L 13.000 20.000 12.000 20.000 L 11.000 20.000 11.000 17.947 C 11.000 15.598,10.999 15.607,11.301 15.306 C 11.587 15.019,11.952 14.934,12.334 15.064 M17.000 19.210 L 17.000 20.000 16.000 20.000 L 15.000 20.000 15.000 18.210 L 15.000 16.421 16.000 17.420 L 17.000 18.419 17.000 19.210 " stroke="none" fill="black" fill-rule="evenodd"></path></svg>