<svg xmlns="http://www.w3.org/2000/svg" width="24" height="24" viewBox="0 0 24 24" fill="none" stroke="currentColor" stroke-width="2" stroke-linecap="round" stroke-linejoin="round" class="icon icon-tabler icons-tabler-outline icon-tabler-devices-2"><path d="M13.477 3.073 C 12.806 3.249,12.238 3.823,12.060 4.508 C 12.008 4.707,12.000 5.691,12.000 12.000 C 12.000 19.922,11.987 19.460,12.225 19.930 C 12.361 20.199,12.801 20.639,13.070 20.775 C 13.522 21.004,13.453 21.000,17.000 21.000 C 20.547 21.000,20.478 21.004,20.930 20.775 C 21.196 20.640,21.638 20.200,21.771 19.937 C 22.014 19.459,22.000 19.929,21.999 12.014 C 21.999 4.156,22.009 4.532,21.781 4.083 C 21.646 3.816,21.297 3.449,21.017 3.281 C 20.548 2.999,20.636 3.005,17.000 3.005 C 14.047 3.005,13.715 3.011,13.477 3.073 M3.477 4.073 C 2.806 4.249,2.238 4.823,2.060 5.508 C 2.009 5.704,2.000 6.350,2.000 10.000 C 2.000 14.640,1.992 14.471,2.225 14.930 C 2.361 15.199,2.801 15.639,3.070 15.775 C 3.506 15.996,3.557 16.000,5.868 16.000 L 8.000 16.000 8.000 17.000 L 8.000 18.000 7.406 18.000 C 6.577 18.000,6.300 18.097,6.109 18.453 C 6.035 18.592,6.020 18.684,6.020 19.000 C 6.020 19.331,6.033 19.403,6.120 19.558 C 6.230 19.755,6.414 19.898,6.635 19.959 C 6.829 20.013,10.171 20.013,10.365 19.959 C 10.586 19.898,10.770 19.755,10.880 19.558 C 10.967 19.402,10.980 19.332,10.979 19.000 C 10.978 18.685,10.963 18.591,10.888 18.450 C 10.773 18.232,10.551 18.086,10.244 18.028 L 10.000 17.982 10.000 16.996 L 10.000 16.011 10.198 15.988 C 10.533 15.948,10.752 15.807,10.893 15.540 C 10.962 15.410,10.978 15.310,10.978 15.000 C 10.978 14.567,10.899 14.356,10.678 14.199 C 10.399 14.000,10.401 14.000,7.094 14.000 L 4.000 14.000 4.000 10.000 L 4.000 6.000 7.110 6.000 C 9.070 6.000,10.274 5.985,10.365 5.959 C 10.586 5.898,10.770 5.755,10.880 5.558 C 10.967 5.402,10.980 5.332,10.979 5.000 C 10.978 4.567,10.898 4.355,10.678 4.199 C 10.398 3.999,10.412 4.000,6.964 4.002 C 4.050 4.004,3.715 4.011,3.477 4.073 M20.000 12.000 L 20.000 19.000 17.000 19.000 L 14.000 19.000 14.000 12.000 L 14.000 5.000 17.000 5.000 L 20.000 5.000 20.000 12.000 M16.614 7.057 C 16.221 7.180,16.039 7.435,16.009 7.906 C 15.962 8.621,16.306 9.000,17.000 9.000 C 17.698 9.000,18.043 8.616,17.989 7.900 C 17.963 7.563,17.859 7.327,17.678 7.199 C 17.414 7.010,16.957 6.950,16.614 7.057 M16.477 14.073 C 15.806 14.249,15.238 14.823,15.060 15.508 C 14.941 15.962,15.003 16.492,15.225 16.930 C 15.361 17.199,15.801 17.639,16.070 17.775 C 16.659 18.073,17.341 18.073,17.930 17.775 C 18.196 17.640,18.638 17.200,18.771 16.937 C 18.994 16.498,19.052 16.007,18.940 15.529 C 18.858 15.182,18.720 14.927,18.465 14.653 C 18.074 14.232,17.560 14.005,17.000 14.005 C 16.857 14.005,16.622 14.036,16.477 14.073 " stroke="none" fill="black" fill-rule="evenodd"></path></svg>