<svg xmlns="http://www.w3.org/2000/svg" width="24" height="24" viewBox="0 0 24 24" fill="none" stroke="currentColor" stroke-width="2" stroke-linecap="round" stroke-linejoin="round" class="icon icon-tabler icons-tabler-outline icon-tabler-swipe-right"><path d="M7.400 7.044 C 5.761 7.229,4.261 8.290,3.526 9.785 C 3.158 10.533,3.020 11.136,3.020 12.000 C 3.020 12.670,3.078 13.044,3.268 13.600 C 3.846 15.291,5.253 16.525,7.040 16.907 C 7.511 17.008,8.489 17.008,8.960 16.907 C 10.207 16.640,11.295 15.946,12.034 14.948 C 12.382 14.476,12.775 13.624,12.861 13.150 L 12.889 13.000 15.232 13.000 L 17.575 13.000 16.853 13.730 C 16.420 14.168,16.095 14.531,16.041 14.637 C 15.863 14.988,15.952 15.354,16.299 15.701 C 16.646 16.048,17.011 16.137,17.363 15.960 C 17.480 15.901,18.051 15.365,19.062 14.365 C 19.899 13.537,20.634 12.826,20.697 12.784 C 20.850 12.682,21.049 12.238,21.049 12.000 C 21.049 11.745,20.851 11.321,20.676 11.201 C 20.601 11.150,19.865 10.438,19.040 9.618 C 18.085 8.670,17.479 8.098,17.372 8.044 C 17.020 7.868,16.639 7.959,16.299 8.299 C 15.952 8.646,15.863 9.012,16.041 9.363 C 16.095 9.469,16.420 9.832,16.853 10.270 L 17.575 11.000 15.234 11.000 L 12.893 11.000 12.842 10.773 C 12.660 9.961,12.116 9.031,11.452 8.396 C 10.365 7.358,8.912 6.874,7.400 7.044 M8.861 9.129 C 9.804 9.405,10.584 10.183,10.875 11.139 C 10.958 11.412,10.973 11.542,10.973 12.000 C 10.973 12.458,10.958 12.588,10.875 12.861 C 10.582 13.822,9.819 14.581,8.840 14.886 C 8.406 15.021,7.594 15.021,7.160 14.886 C 6.181 14.581,5.418 13.822,5.125 12.861 C 5.042 12.588,5.027 12.458,5.027 12.000 C 5.027 11.542,5.042 11.412,5.125 11.139 C 5.456 10.054,6.371 9.245,7.499 9.040 C 7.832 8.980,8.500 9.023,8.861 9.129 " stroke="none" fill="black" fill-rule="evenodd"></path></svg>