<svg xmlns="http://www.w3.org/2000/svg" width="24" height="24" viewBox="0 0 24 24" fill="none" stroke="currentColor" stroke-width="2" stroke-linecap="round" stroke-linejoin="round" class="icon icon-tabler icons-tabler-outline icon-tabler-books"><path d="M5.477 3.072 C 4.803 3.251,4.238 3.824,4.060 4.508 C 3.970 4.854,3.970 19.146,4.060 19.492 C 4.246 20.209,4.874 20.814,5.586 20.961 C 5.721 20.989,6.270 21.000,7.128 20.992 L 8.460 20.980 8.730 20.867 L 9.000 20.755 9.270 20.867 L 9.540 20.980 10.872 20.992 C 11.730 21.000,12.279 20.989,12.414 20.961 C 13.086 20.822,13.695 20.264,13.925 19.580 C 13.967 19.454,13.983 18.754,13.999 16.291 L 14.020 13.163 14.916 16.416 C 15.408 18.206,15.856 19.764,15.910 19.879 C 16.069 20.212,16.436 20.573,16.802 20.756 C 17.194 20.953,17.492 21.016,17.880 20.988 C 18.047 20.976,18.729 20.831,19.415 20.663 C 20.850 20.310,21.056 20.224,21.436 19.818 C 21.833 19.393,22.037 18.831,21.987 18.297 C 21.957 17.973,18.232 4.426,18.089 4.120 C 18.028 3.989,17.879 3.793,17.723 3.635 C 17.317 3.229,16.791 3.000,16.262 3.000 C 16.030 3.000,15.817 3.045,14.171 3.441 L 13.441 3.616 13.331 3.511 C 13.128 3.318,12.757 3.125,12.462 3.059 C 12.222 3.006,11.955 2.997,10.877 3.008 C 9.626 3.020,9.571 3.024,9.340 3.115 C 9.041 3.232,8.959 3.232,8.660 3.115 C 8.427 3.023,8.381 3.020,7.080 3.011 C 5.912 3.003,5.706 3.011,5.477 3.072 M8.000 6.000 L 8.000 7.000 7.000 7.000 L 6.000 7.000 6.000 6.000 L 6.000 5.000 7.000 5.000 L 8.000 5.000 8.000 6.000 M12.000 10.000 L 12.000 15.000 11.000 15.000 L 10.000 15.000 10.000 10.000 L 10.000 5.000 11.000 5.000 L 12.000 5.000 12.000 10.000 M16.307 5.064 C 16.321 5.100,16.462 5.599,16.620 6.174 C 16.815 6.881,16.894 7.228,16.864 7.244 C 16.796 7.282,14.639 7.812,14.624 7.795 C 14.604 7.771,13.998 5.549,14.009 5.540 C 14.028 5.527,16.178 5.007,16.231 5.004 C 16.259 5.002,16.294 5.029,16.307 5.064 M8.000 14.000 L 8.000 19.000 7.000 19.000 L 6.000 19.000 6.000 14.000 L 6.000 9.000 7.000 9.000 L 8.000 9.000 8.000 14.000 M18.157 11.755 C 18.535 13.127,18.839 14.254,18.832 14.259 C 18.825 14.264,18.312 14.394,17.691 14.549 L 16.563 14.830 16.523 14.705 C 16.427 14.401,15.157 9.750,15.168 9.741 C 15.175 9.736,15.684 9.606,16.300 9.453 C 17.052 9.265,17.428 9.188,17.445 9.217 C 17.459 9.241,17.780 10.383,18.157 11.755 M19.687 17.310 C 19.856 17.921,19.981 18.433,19.967 18.448 C 19.916 18.500,17.750 19.006,17.718 18.973 C 17.682 18.936,17.084 16.788,17.103 16.766 C 17.119 16.747,19.243 16.208,19.321 16.204 C 19.367 16.201,19.455 16.466,19.687 17.310 M12.000 18.000 L 12.000 19.000 11.000 19.000 L 10.000 19.000 10.000 18.000 L 10.000 17.000 11.000 17.000 L 12.000 17.000 12.000 18.000 " stroke="none" fill="black" fill-rule="evenodd"></path></svg>