<svg xmlns="http://www.w3.org/2000/svg" width="24" height="24" viewBox="0 0 24 24" fill="none" stroke="currentColor" stroke-width="2" stroke-linecap="round" stroke-linejoin="round" class="icon icon-tabler icons-tabler-outline icon-tabler-device-imac-x"><path d="M3.477 2.073 C 2.806 2.249,2.238 2.823,2.060 3.508 C 2.008 3.706,2.000 4.577,2.000 10.000 C 2.000 16.828,1.988 16.462,2.225 16.930 C 2.361 17.199,2.801 17.639,3.070 17.775 C 3.514 18.000,3.518 18.000,6.301 18.000 L 8.864 18.000 8.742 18.990 L 8.619 19.980 8.137 20.001 C 7.724 20.018,7.627 20.036,7.458 20.123 C 7.119 20.297,6.978 20.606,7.009 21.104 C 7.038 21.563,7.250 21.852,7.635 21.959 C 7.832 22.014,13.168 22.014,13.365 21.959 C 13.586 21.898,13.770 21.755,13.880 21.558 C 13.967 21.402,13.980 21.332,13.979 21.000 C 13.978 20.567,13.898 20.355,13.678 20.199 C 13.424 20.018,13.268 20.000,11.914 20.000 C 11.213 20.000,10.640 19.987,10.640 19.970 C 10.640 19.953,10.694 19.517,10.760 19.000 C 10.826 18.483,10.880 18.047,10.880 18.030 C 10.880 18.014,11.407 18.000,12.050 18.000 C 12.710 18.000,13.283 17.982,13.365 17.959 C 13.586 17.898,13.770 17.755,13.880 17.558 C 13.967 17.402,13.980 17.332,13.979 17.000 C 13.978 16.567,13.898 16.355,13.678 16.199 C 13.392 15.995,13.516 16.000,8.594 16.000 L 4.000 16.000 4.000 15.000 L 4.000 14.001 12.690 13.990 L 21.380 13.980 21.540 13.894 C 21.757 13.777,21.860 13.656,21.936 13.429 C 21.993 13.257,22.000 12.739,21.999 8.509 C 21.999 3.382,22.004 3.523,21.781 3.083 C 21.646 2.816,21.297 2.449,21.017 2.281 C 20.523 1.983,21.217 2.005,12.000 2.005 C 4.321 2.005,3.721 2.009,3.477 2.073 M20.000 8.000 L 20.000 12.000 12.000 12.000 L 4.000 12.000 4.000 8.000 L 4.000 4.000 12.000 4.000 L 20.000 4.000 20.000 8.000 M16.626 16.045 C 16.257 16.239,15.951 16.673,15.951 17.000 C 15.951 17.323,16.068 17.478,17.103 18.520 L 18.077 19.500 17.103 20.480 C 16.068 21.522,15.951 21.677,15.951 22.000 C 15.951 22.477,16.523 23.049,17.000 23.049 C 17.323 23.049,17.478 22.932,18.520 21.897 L 19.500 20.923 20.480 21.897 C 21.522 22.932,21.677 23.049,22.000 23.049 C 22.477 23.049,23.049 22.477,23.049 22.000 C 23.049 21.677,22.932 21.522,21.897 20.480 L 20.923 19.500 21.897 18.520 C 22.518 17.895,22.903 17.476,22.960 17.363 C 23.137 17.011,23.048 16.646,22.701 16.299 C 22.360 15.958,21.979 15.868,21.628 16.045 C 21.527 16.096,21.072 16.515,20.480 17.103 L 19.500 18.077 18.520 17.103 C 17.927 16.514,17.474 16.096,17.372 16.045 C 17.152 15.934,16.835 15.934,16.626 16.045 " stroke="none" fill="black" fill-rule="evenodd"></path></svg>