<svg xmlns="http://www.w3.org/2000/svg" width="24" height="24" viewBox="0 0 24 24" fill="none" stroke="currentColor" stroke-width="2" stroke-linecap="round" stroke-linejoin="round" class="icon icon-tabler icons-tabler-outline icon-tabler-arrow-curve-right"><path d="M13.530 2.083 C 13.393 2.150,13.249 2.252,13.210 2.311 C 13.172 2.369,12.237 3.327,11.134 4.439 C 9.766 5.818,9.101 6.516,9.040 6.637 C 8.863 6.989,8.952 7.354,9.299 7.701 C 9.646 8.048,10.011 8.137,10.363 7.960 C 10.479 7.901,10.961 7.452,11.770 6.647 L 13.000 5.423 13.000 6.533 C 13.000 8.341,12.891 8.941,12.375 9.970 C 11.930 10.858,11.349 11.516,10.413 12.193 C 9.169 13.091,8.464 13.896,7.847 15.120 C 7.396 16.016,7.151 16.826,7.042 17.780 C 6.988 18.249,6.987 21.173,7.041 21.365 C 7.148 21.750,7.437 21.962,7.896 21.991 C 8.381 22.022,8.699 21.882,8.880 21.558 L 8.980 21.380 9.007 19.620 C 9.022 18.652,9.052 17.768,9.074 17.656 C 9.199 17.014,9.339 16.599,9.625 16.030 C 10.069 15.144,10.649 14.487,11.580 13.814 C 12.831 12.911,13.548 12.090,14.159 10.860 C 14.506 10.164,14.705 9.607,14.836 8.971 C 14.969 8.326,14.999 7.903,14.999 6.621 L 15.000 5.423 16.230 6.647 C 17.039 7.452,17.521 7.901,17.637 7.960 C 17.989 8.137,18.354 8.048,18.701 7.701 C 19.048 7.354,19.137 6.989,18.960 6.637 C 18.899 6.516,18.234 5.818,16.866 4.439 C 15.763 3.327,14.828 2.369,14.789 2.310 C 14.751 2.252,14.604 2.149,14.464 2.082 C 14.120 1.918,13.871 1.918,13.530 2.083 " stroke="none" fill="black" fill-rule="evenodd"></path></svg>