<svg xmlns="http://www.w3.org/2000/svg" width="24" height="24" viewBox="0 0 24 24" fill="none" stroke="currentColor" stroke-width="2" stroke-linecap="round" stroke-linejoin="round" class="icon icon-tabler icons-tabler-outline icon-tabler-variable-minus"><path d="M4.570 3.044 C 4.330 3.163,4.220 3.311,3.950 3.880 C 2.988 5.905,2.416 7.924,2.194 10.080 C 2.129 10.719,2.128 12.505,2.194 13.180 C 2.368 14.970,2.776 16.793,3.419 18.648 C 3.744 19.585,4.128 20.524,4.257 20.695 C 4.433 20.929,4.685 21.051,4.940 21.026 C 5.437 20.979,5.900 20.673,6.003 20.326 C 6.073 20.092,6.024 19.873,5.739 19.153 C 4.549 16.146,4.023 13.382,4.160 10.859 C 4.275 8.739,4.733 6.973,5.727 4.810 C 6.065 4.076,6.105 3.849,5.951 3.560 C 5.783 3.247,5.272 2.960,4.883 2.960 C 4.804 2.960,4.664 2.998,4.570 3.044 M18.759 3.021 C 18.484 3.106,18.161 3.351,18.049 3.560 C 17.893 3.852,17.934 4.066,18.293 4.846 C 19.319 7.078,19.758 8.848,19.861 11.180 C 19.902 12.121,19.815 13.253,19.595 14.640 C 19.491 15.297,19.516 15.446,19.775 15.706 C 20.076 16.007,20.728 16.113,21.076 15.918 C 21.354 15.761,21.465 15.540,21.580 14.905 C 22.122 11.925,21.913 8.962,20.961 6.120 C 20.615 5.088,19.975 3.610,19.741 3.305 C 19.505 2.995,19.163 2.897,18.759 3.021 M8.614 8.055 C 8.375 8.133,8.211 8.262,8.109 8.453 C 8.035 8.592,8.020 8.684,8.020 9.000 C 8.020 9.331,8.033 9.403,8.120 9.558 C 8.230 9.755,8.414 9.898,8.635 9.959 C 8.715 9.981,9.052 10.000,9.385 10.000 L 9.989 10.000 10.078 10.210 C 10.127 10.325,10.327 10.859,10.522 11.395 L 10.877 12.370 10.532 12.835 C 9.927 13.652,9.490 14.136,9.013 14.521 C 8.619 14.837,8.349 14.958,7.941 15.000 C 7.424 15.053,7.185 15.209,7.064 15.571 C 6.931 15.970,7.013 16.500,7.247 16.746 C 7.606 17.121,8.534 17.074,9.418 16.635 C 10.039 16.326,10.788 15.701,11.400 14.980 C 11.560 14.791,11.701 14.647,11.712 14.659 C 11.724 14.671,11.822 14.910,11.928 15.190 C 12.166 15.813,12.386 16.193,12.670 16.470 C 13.057 16.850,13.477 16.993,13.819 16.863 C 14.026 16.784,14.310 16.490,14.429 16.231 C 14.629 15.798,14.575 15.529,14.218 15.177 C 13.944 14.906,13.929 14.875,13.476 13.592 C 13.342 13.211,13.208 12.842,13.178 12.771 C 13.126 12.645,13.130 12.634,13.347 12.331 C 14.171 11.181,14.925 10.414,15.501 10.141 C 15.651 10.070,15.839 10.023,16.059 10.000 C 16.409 9.964,16.640 9.873,16.787 9.714 C 17.021 9.459,17.069 8.786,16.876 8.438 C 16.691 8.102,16.384 7.978,15.820 8.012 C 15.211 8.049,14.581 8.298,13.944 8.751 C 13.612 8.988,12.845 9.721,12.490 10.140 C 12.310 10.352,12.283 10.371,12.257 10.300 C 11.840 9.150,11.574 8.688,11.154 8.379 C 10.722 8.061,10.580 8.027,9.620 8.013 C 8.996 8.004,8.737 8.015,8.614 8.055 M15.614 18.057 C 15.377 18.131,15.212 18.261,15.109 18.453 C 15.035 18.592,15.020 18.684,15.020 19.000 C 15.020 19.331,15.033 19.403,15.120 19.558 C 15.230 19.755,15.414 19.898,15.635 19.959 C 15.832 20.014,22.168 20.014,22.365 19.959 C 22.586 19.898,22.770 19.755,22.880 19.558 C 22.967 19.402,22.980 19.332,22.979 19.000 C 22.978 18.567,22.898 18.355,22.678 18.199 C 22.398 17.999,22.411 18.000,18.984 18.003 C 16.472 18.005,15.744 18.017,15.614 18.057 " stroke="none" fill="black" fill-rule="evenodd"></path></svg>