<svg xmlns="http://www.w3.org/2000/svg" width="24" height="24" viewBox="0 0 24 24" fill="none" stroke="currentColor" stroke-width="2" stroke-linecap="round" stroke-linejoin="round" class="icon icon-tabler icons-tabler-outline icon-tabler-chart-sankey"><path d="M2.614 2.057 C 2.377 2.131,2.212 2.261,2.109 2.453 L 2.020 2.620 2.020 12.000 L 2.020 21.380 2.120 21.558 C 2.230 21.755,2.414 21.898,2.635 21.959 C 2.835 22.015,21.165 22.015,21.365 21.959 C 21.586 21.898,21.770 21.755,21.880 21.558 C 21.967 21.402,21.980 21.332,21.979 21.000 C 21.978 20.567,21.898 20.355,21.678 20.199 C 21.386 19.990,21.827 20.000,12.594 20.000 L 4.000 20.000 4.000 14.518 L 4.000 9.036 4.250 9.062 C 6.306 9.275,7.826 9.895,9.231 11.094 C 9.693 11.488,10.420 12.236,11.319 13.240 C 13.508 15.687,14.840 16.683,16.825 17.356 C 17.999 17.754,19.504 18.000,20.756 18.000 C 21.440 17.999,21.687 17.902,21.880 17.558 C 21.967 17.402,21.980 17.332,21.979 17.000 C 21.978 16.687,21.962 16.591,21.890 16.453 C 21.717 16.127,21.408 16.000,20.784 16.000 C 20.022 16.000,18.868 15.856,18.167 15.675 C 17.288 15.448,16.363 15.049,15.700 14.611 C 14.861 14.058,14.220 13.458,12.867 11.960 C 10.797 9.668,9.859 8.875,8.320 8.117 C 7.173 7.551,6.212 7.298,4.260 7.047 C 4.087 7.025,7.283 7.009,12.600 7.005 C 18.234 7.002,21.270 6.986,21.365 6.959 C 21.586 6.898,21.770 6.755,21.880 6.558 C 21.967 6.402,21.980 6.332,21.979 6.000 C 21.978 5.567,21.898 5.355,21.678 5.199 C 21.386 4.990,21.827 5.000,12.596 5.000 L 4.005 5.000 3.993 3.810 C 3.981 2.669,3.976 2.613,3.891 2.453 C 3.842 2.362,3.746 2.247,3.678 2.199 C 3.414 2.010,2.957 1.950,2.614 2.057 " stroke="none" fill="black" fill-rule="evenodd"></path></svg>