<svg xmlns="http://www.w3.org/2000/svg" width="24" height="24" viewBox="0 0 24 24" fill="none" stroke="currentColor" stroke-width="2" stroke-linecap="round" stroke-linejoin="round" class="icon icon-tabler icons-tabler-outline icon-tabler-brand-binance"><path d="M11.620 1.046 C 11.383 1.167,5.154 7.406,5.039 7.637 C 4.924 7.868,4.924 8.132,5.040 8.363 C 5.162 8.607,7.393 10.838,7.637 10.960 C 7.869 11.076,8.132 11.076,8.363 10.960 C 8.483 10.900,9.092 10.321,10.270 9.147 L 12.000 7.422 13.730 9.147 C 14.908 10.321,15.517 10.900,15.637 10.960 C 15.868 11.076,16.131 11.076,16.363 10.960 C 16.607 10.838,18.838 8.607,18.960 8.363 C 19.076 8.132,19.076 7.868,18.961 7.637 C 18.840 7.394,12.614 1.164,12.372 1.044 C 12.151 0.934,11.836 0.935,11.620 1.046 M14.300 5.720 L 16.580 8.000 16.290 8.289 L 16.001 8.579 14.270 6.854 C 13.147 5.734,12.481 5.099,12.372 5.044 C 12.150 4.933,11.850 4.933,11.628 5.044 C 11.519 5.099,10.853 5.734,9.730 6.854 L 7.999 8.579 7.710 8.289 L 7.420 8.000 9.700 5.720 C 10.954 4.466,11.989 3.440,12.000 3.440 C 12.011 3.440,13.046 4.466,14.300 5.720 M3.620 9.046 C 3.390 9.165,1.153 11.411,1.040 11.637 C 0.924 11.868,0.924 12.132,1.040 12.363 C 1.162 12.607,3.393 14.838,3.637 14.960 C 3.868 15.076,4.132 15.076,4.363 14.960 C 4.607 14.838,6.838 12.607,6.960 12.363 C 7.014 12.256,7.049 12.111,7.049 12.000 C 7.049 11.889,7.014 11.744,6.960 11.637 C 6.842 11.400,4.608 9.162,4.372 9.044 C 4.151 8.934,3.836 8.935,3.620 9.046 M11.620 9.046 C 11.390 9.165,9.153 11.411,9.040 11.637 C 8.986 11.744,8.951 11.889,8.951 12.000 C 8.951 12.334,9.057 12.468,10.294 13.706 C 11.532 14.943,11.666 15.049,12.000 15.049 C 12.334 15.049,12.468 14.943,13.706 13.706 C 14.943 12.468,15.049 12.334,15.049 12.000 C 15.049 11.889,15.014 11.744,14.960 11.637 C 14.842 11.400,12.608 9.162,12.372 9.044 C 12.151 8.934,11.836 8.935,11.620 9.046 M19.620 9.046 C 19.390 9.165,17.153 11.411,17.040 11.637 C 16.986 11.744,16.951 11.889,16.951 12.000 C 16.951 12.111,16.986 12.256,17.040 12.363 C 17.162 12.607,19.393 14.838,19.637 14.960 C 19.868 15.076,20.132 15.076,20.363 14.960 C 20.607 14.838,22.838 12.607,22.960 12.363 C 23.076 12.132,23.076 11.868,22.960 11.637 C 22.842 11.400,20.608 9.162,20.372 9.044 C 20.151 8.934,19.836 8.935,19.620 9.046 M4.300 11.720 L 4.579 12.001 4.289 12.290 L 4.000 12.579 3.711 12.290 L 3.421 12.001 3.700 11.720 C 3.853 11.566,3.988 11.440,4.000 11.440 C 4.012 11.440,4.147 11.566,4.300 11.720 M12.300 11.720 L 12.579 12.001 12.289 12.290 L 12.000 12.579 11.711 12.290 L 11.421 12.001 11.700 11.720 C 11.853 11.566,11.988 11.440,12.000 11.440 C 12.012 11.440,12.147 11.566,12.300 11.720 M20.300 11.720 L 20.579 12.001 20.289 12.290 L 20.000 12.579 19.711 12.290 L 19.421 12.001 19.700 11.720 C 19.853 11.566,19.988 11.440,20.000 11.440 C 20.012 11.440,20.147 11.566,20.300 11.720 M7.620 13.046 C 7.390 13.165,5.153 15.411,5.040 15.637 C 4.924 15.868,4.924 16.132,5.039 16.363 C 5.164 16.613,11.387 22.836,11.637 22.961 C 11.868 23.076,12.132 23.076,12.363 22.961 C 12.582 22.851,18.216 17.244,18.412 16.941 C 18.520 16.773,18.540 16.704,18.540 16.500 C 18.540 16.296,18.520 16.227,18.412 16.059 C 18.231 15.778,16.060 13.633,15.860 13.538 C 15.654 13.440,15.346 13.439,15.140 13.537 C 15.037 13.586,14.449 14.141,13.490 15.095 L 12.000 16.578 10.270 14.853 C 9.147 13.734,8.481 13.099,8.372 13.044 C 8.151 12.934,7.836 12.935,7.620 13.046 M9.739 17.156 C 10.910 18.323,11.517 18.900,11.637 18.960 C 11.869 19.076,12.132 19.076,12.363 18.960 C 12.482 18.900,13.027 18.386,14.021 17.396 L 15.502 15.920 15.791 16.211 L 16.079 16.501 14.040 18.540 L 12.000 20.580 9.711 18.290 L 7.421 16.001 7.699 15.721 C 7.853 15.566,7.987 15.440,7.998 15.440 C 8.009 15.440,8.792 16.212,9.739 17.156 " stroke="none" fill="black" fill-rule="evenodd"></path></svg>