<svg xmlns="http://www.w3.org/2000/svg" width="24" height="24" viewBox="0 0 24 24" fill="none" stroke="currentColor" stroke-width="2" stroke-linecap="round" stroke-linejoin="round" class="icon icon-tabler icons-tabler-outline icon-tabler-chart-infographic"><path d="M6.400 2.044 C 4.761 2.229,3.261 3.290,2.526 4.785 C 2.333 5.177,2.187 5.599,2.093 6.040 C 1.992 6.511,1.992 7.489,2.093 7.960 C 2.526 9.984,4.016 11.474,6.040 11.907 C 6.511 12.008,7.489 12.008,7.960 11.907 C 9.488 11.580,10.748 10.630,11.433 9.288 C 11.838 8.494,11.980 7.899,11.980 7.000 C 11.980 6.101,11.838 5.506,11.433 4.713 C 10.794 3.461,9.604 2.510,8.240 2.162 C 7.669 2.016,7.019 1.974,6.400 2.044 M6.106 7.540 C 6.204 7.723,6.282 7.799,6.480 7.905 C 6.608 7.974,6.757 7.982,8.234 8.000 L 9.847 8.020 9.683 8.340 C 9.302 9.081,8.640 9.637,7.840 9.886 C 7.588 9.964,7.453 9.979,7.000 9.979 C 6.547 9.979,6.412 9.964,6.160 9.886 C 5.181 9.581,4.418 8.822,4.125 7.861 C 4.042 7.588,4.027 7.458,4.027 7.000 C 4.027 6.542,4.042 6.412,4.125 6.139 C 4.361 5.363,4.925 4.695,5.660 4.317 L 5.980 4.153 6.000 5.766 C 6.019 7.320,6.023 7.386,6.106 7.540 M8.460 4.380 C 9.022 4.695,9.586 5.332,9.797 5.890 L 9.838 6.000 8.919 6.000 L 8.000 6.000 8.000 5.081 L 8.000 4.162 8.110 4.203 C 8.171 4.226,8.328 4.306,8.460 4.380 M20.614 11.057 C 20.377 11.131,20.212 11.261,20.109 11.453 L 20.020 11.620 20.009 16.413 C 20.002 19.560,20.013 21.258,20.039 21.357 C 20.144 21.747,20.434 21.961,20.896 21.991 C 21.381 22.022,21.699 21.882,21.880 21.558 L 21.980 21.380 21.980 16.500 L 21.980 11.620 21.891 11.453 C 21.842 11.362,21.746 11.247,21.678 11.199 C 21.414 11.010,20.957 10.950,20.614 11.057 M12.614 12.057 C 12.377 12.131,12.212 12.261,12.109 12.453 L 12.020 12.620 12.009 16.913 C 12.002 19.727,12.013 21.258,12.039 21.357 C 12.144 21.747,12.434 21.961,12.896 21.991 C 13.381 22.022,13.699 21.882,13.880 21.558 L 13.980 21.380 13.980 17.000 L 13.980 12.620 13.891 12.453 C 13.842 12.362,13.746 12.247,13.678 12.199 C 13.414 12.010,12.957 11.950,12.614 12.057 M16.614 13.057 C 16.377 13.131,16.212 13.261,16.109 13.453 L 16.020 13.620 16.009 17.413 C 16.002 19.894,16.012 21.258,16.039 21.357 C 16.144 21.747,16.434 21.961,16.896 21.991 C 17.381 22.022,17.699 21.882,17.880 21.558 L 17.980 21.380 17.980 17.500 L 17.980 13.620 17.891 13.453 C 17.842 13.362,17.746 13.247,17.678 13.199 C 17.414 13.010,16.957 12.950,16.614 13.057 M8.614 16.057 C 8.377 16.131,8.212 16.261,8.109 16.453 C 8.020 16.619,8.020 16.629,8.009 18.911 C 8.001 20.392,8.012 21.256,8.039 21.355 C 8.144 21.747,8.433 21.961,8.896 21.991 C 9.381 22.022,9.699 21.882,9.880 21.558 L 9.980 21.380 9.980 19.000 L 9.980 16.620 9.891 16.453 C 9.842 16.362,9.746 16.247,9.678 16.199 C 9.414 16.010,8.957 15.950,8.614 16.057 " stroke="none" fill="black" fill-rule="evenodd"></path></svg>