<svg xmlns="http://www.w3.org/2000/svg" width="24" height="24" viewBox="0 0 24 24" fill="none" stroke="currentColor" stroke-width="2" stroke-linecap="round" stroke-linejoin="round" class="icon icon-tabler icons-tabler-outline icon-tabler-car-fan-auto"><path d="M11.614 2.055 C 11.375 2.133,11.211 2.262,11.109 2.453 L 11.020 2.620 11.009 5.852 L 10.998 9.085 9.789 7.533 C 9.124 6.680,8.478 5.882,8.353 5.760 C 7.474 4.900,6.084 4.769,5.034 5.447 C 4.691 5.668,4.331 6.051,4.153 6.385 C 4.072 6.536,3.560 7.803,3.016 9.200 C 2.264 11.129,2.022 11.793,2.009 11.960 C 1.977 12.376,2.132 12.707,2.442 12.880 L 2.620 12.980 5.843 13.000 L 9.067 13.020 7.548 14.200 C 6.712 14.849,5.919 15.490,5.784 15.623 C 5.488 15.918,5.274 16.272,5.132 16.700 C 5.040 16.976,5.025 17.085,5.026 17.500 C 5.027 17.909,5.043 18.028,5.133 18.300 C 5.191 18.476,5.306 18.736,5.389 18.878 C 5.597 19.233,6.041 19.666,6.383 19.847 C 6.535 19.928,7.803 20.440,9.200 20.984 C 11.127 21.735,11.793 21.978,11.960 21.991 C 12.376 22.023,12.707 21.868,12.880 21.558 L 12.980 21.380 12.991 18.144 L 13.002 14.908 13.103 15.044 C 13.298 15.309,13.542 15.534,13.717 15.611 C 14.044 15.756,14.448 15.632,14.802 15.278 C 15.016 15.064,15.095 14.896,15.093 14.660 C 15.091 14.391,15.006 14.237,14.502 13.588 C 14.270 13.288,14.080 13.033,14.080 13.021 C 14.080 13.010,14.562 13.000,15.150 13.000 C 15.743 13.000,16.284 12.982,16.365 12.959 C 16.586 12.898,16.770 12.755,16.880 12.558 C 16.967 12.402,16.980 12.332,16.979 12.000 C 16.978 11.687,16.962 11.591,16.890 11.453 C 16.699 11.092,16.428 11.000,15.550 11.000 L 14.912 11.000 16.465 9.790 C 17.320 9.125,18.118 8.479,18.239 8.356 C 18.515 8.076,18.731 7.714,18.868 7.300 C 18.960 7.024,18.975 6.915,18.974 6.500 C 18.973 6.092,18.957 5.972,18.868 5.700 C 18.637 4.996,18.151 4.420,17.517 4.098 C 17.415 4.047,16.191 3.560,14.796 3.017 C 12.072 1.956,11.991 1.932,11.614 2.055 M14.889 5.200 C 15.836 5.570,16.659 5.907,16.716 5.949 C 16.848 6.045,17.000 6.340,17.000 6.500 C 17.000 6.568,16.960 6.703,16.910 6.801 C 16.833 6.953,16.550 7.190,14.940 8.447 C 13.906 9.255,13.047 9.917,13.030 9.918 C 13.013 9.919,13.000 8.695,13.000 7.197 L 13.000 4.475 13.083 4.501 C 13.128 4.515,13.941 4.830,14.889 5.200 M6.800 7.090 C 6.952 7.167,7.191 7.453,8.446 9.060 C 9.254 10.094,9.916 10.954,9.917 10.970 C 9.919 10.987,8.696 11.000,7.200 11.000 C 5.704 11.000,4.480 10.991,4.480 10.980 C 4.480 10.940,5.811 7.538,5.881 7.400 C 5.967 7.228,6.060 7.142,6.241 7.063 C 6.437 6.978,6.595 6.986,6.800 7.090 M18.499 14.040 C 17.374 14.244,16.485 15.027,16.115 16.140 C 16.022 16.419,16.022 16.432,16.009 18.808 C 16.000 20.389,16.010 21.249,16.038 21.352 C 16.144 21.747,16.432 21.961,16.896 21.991 C 17.381 22.022,17.699 21.882,17.880 21.558 C 17.974 21.391,17.981 21.338,17.994 20.690 L 18.008 20.000 19.004 20.000 L 20.000 20.000 20.000 20.610 C 20.000 20.946,20.019 21.285,20.041 21.365 C 20.148 21.750,20.437 21.962,20.896 21.991 C 21.381 22.022,21.699 21.882,21.880 21.558 L 21.980 21.380 21.980 18.920 L 21.980 16.460 21.886 16.160 C 21.580 15.178,20.810 14.407,19.861 14.129 C 19.500 14.023,18.832 13.980,18.499 14.040 M11.000 16.800 C 11.000 18.296,10.990 19.520,10.977 19.520 C 10.887 19.520,7.392 18.127,7.286 18.048 C 7.135 17.937,7.002 17.681,7.001 17.498 C 7.000 17.432,7.040 17.297,7.090 17.199 C 7.167 17.047,7.450 16.811,9.060 15.553 C 10.094 14.746,10.954 14.084,10.970 14.083 C 10.987 14.081,11.000 15.304,11.000 16.800 M19.334 16.064 C 19.446 16.102,19.593 16.200,19.700 16.306 C 19.948 16.554,20.000 16.753,20.000 17.447 L 20.000 18.000 19.000 18.000 L 18.000 18.000 18.000 17.447 C 18.000 16.753,18.052 16.554,18.301 16.306 C 18.587 16.019,18.952 15.934,19.334 16.064 " stroke="none" fill="black" fill-rule="evenodd"></path></svg>