<svg xmlns="http://www.w3.org/2000/svg" width="24" height="24" viewBox="0 0 24 24" fill="none" stroke="currentColor" stroke-width="2" stroke-linecap="round" stroke-linejoin="round" class="icon icon-tabler icons-tabler-outline icon-tabler-brand-codepen"><path d="M11.573 2.066 C 11.481 2.098,11.328 2.193,11.233 2.276 C 11.052 2.435,2.806 7.932,2.437 8.140 C 2.283 8.227,2.192 8.315,2.109 8.458 L 1.993 8.656 1.993 12.000 L 1.993 15.344 2.083 15.502 C 2.221 15.743,2.280 15.799,2.534 15.927 C 2.835 16.079,11.114 21.599,11.220 21.719 C 11.393 21.913,11.592 21.980,12.000 21.980 C 12.408 21.980,12.607 21.913,12.780 21.719 C 12.886 21.599,21.293 15.998,21.508 15.904 C 21.695 15.821,21.785 15.734,21.916 15.503 L 22.006 15.346 22.006 12.078 C 22.006 9.882,21.992 8.758,21.963 8.651 C 21.894 8.394,21.760 8.235,21.493 8.094 C 21.162 7.920,12.987 2.469,12.768 2.277 C 12.673 2.194,12.512 2.098,12.411 2.063 C 12.183 1.985,11.796 1.987,11.573 2.066 M11.000 6.673 L 11.000 8.467 9.350 9.566 C 8.443 10.171,7.654 10.696,7.599 10.732 C 7.498 10.798,7.491 10.794,6.179 9.919 C 5.453 9.436,4.860 9.022,4.860 9.000 C 4.860 8.969,10.944 4.880,10.990 4.880 C 10.995 4.880,11.000 5.687,11.000 6.673 M16.190 6.994 C 17.823 8.082,19.160 8.985,19.160 9.000 C 19.160 9.035,16.553 10.773,16.500 10.773 C 16.478 10.773,15.681 10.254,14.730 9.620 L 13.000 8.467 13.000 6.669 L 13.000 4.871 13.110 4.942 C 13.171 4.982,14.557 5.905,16.190 6.994 M13.355 11.100 C 14.082 11.584,14.678 11.989,14.678 12.000 C 14.678 12.011,14.075 12.421,13.339 12.910 L 12.000 13.800 10.661 12.910 C 9.925 12.421,9.322 12.011,9.322 12.000 C 9.322 11.971,11.975 10.204,12.006 10.213 C 12.020 10.217,12.627 10.616,13.355 11.100 M4.954 11.500 C 5.352 11.764,5.678 11.989,5.678 12.000 C 5.678 12.016,4.606 12.739,4.115 13.054 L 4.000 13.128 4.000 12.000 L 4.000 10.872 4.115 10.946 C 4.179 10.987,4.556 11.236,4.954 11.500 M19.991 12.560 L 19.980 13.120 19.151 12.570 C 18.695 12.267,18.322 12.011,18.322 12.000 C 18.322 11.989,18.695 11.733,19.151 11.430 L 19.980 10.880 19.991 11.440 C 19.997 11.748,19.997 12.252,19.991 12.560 M9.350 14.434 L 11.000 15.533 11.000 17.331 L 11.000 19.129 10.890 19.058 C 9.531 18.172,4.841 15.017,4.849 14.993 C 4.855 14.975,5.453 14.564,6.179 14.081 C 7.491 13.206,7.498 13.202,7.599 13.268 C 7.654 13.304,8.443 13.829,9.350 14.434 M17.930 14.154 C 18.607 14.604,19.160 14.985,19.160 15.000 C 19.160 15.019,14.128 18.395,13.110 19.058 L 13.000 19.129 13.000 17.331 L 13.000 15.533 14.749 14.367 C 16.491 13.206,16.498 13.202,16.599 13.268 C 16.654 13.304,17.253 13.703,17.930 14.154 " stroke="none" fill="black" fill-rule="evenodd"></path></svg>