<svg xmlns="http://www.w3.org/2000/svg" width="24" height="24" viewBox="0 0 24 24" fill="none" stroke="currentColor" stroke-width="2" stroke-linecap="round" stroke-linejoin="round" class="icon icon-tabler icons-tabler-outline icon-tabler-address-book"><path d="M7.499 3.043 C 6.388 3.231,5.470 4.041,5.118 5.140 C 5.042 5.379,5.026 5.536,5.010 6.210 L 4.991 7.000 4.402 7.000 C 3.577 7.000,3.299 7.097,3.109 7.453 C 3.035 7.592,3.020 7.684,3.020 8.000 C 3.020 8.331,3.033 8.403,3.120 8.558 C 3.230 8.755,3.414 8.898,3.635 8.959 C 3.715 8.981,4.054 9.000,4.390 9.000 L 5.000 9.000 5.000 10.000 L 5.000 11.000 4.406 11.000 C 3.577 11.000,3.300 11.097,3.109 11.453 C 3.035 11.592,3.020 11.684,3.020 12.000 C 3.020 12.331,3.033 12.403,3.120 12.558 C 3.230 12.755,3.414 12.898,3.635 12.959 C 3.715 12.981,4.054 13.000,4.390 13.000 L 5.000 13.000 5.000 14.000 L 5.000 15.000 4.406 15.000 C 3.577 15.000,3.300 15.097,3.109 15.453 C 3.035 15.592,3.020 15.684,3.020 16.000 C 3.020 16.331,3.033 16.403,3.120 16.558 C 3.230 16.755,3.414 16.898,3.635 16.959 C 3.715 16.981,4.052 17.000,4.385 17.000 L 4.991 17.000 5.010 17.790 C 5.026 18.464,5.042 18.621,5.118 18.860 C 5.430 19.834,6.182 20.581,7.160 20.886 L 7.460 20.980 13.000 20.980 L 18.540 20.980 18.840 20.886 C 19.827 20.578,20.578 19.827,20.886 18.840 L 20.980 18.540 20.980 12.000 L 20.980 5.460 20.886 5.160 C 20.581 4.182,19.832 3.428,18.861 3.121 L 18.540 3.020 13.120 3.014 C 10.139 3.011,7.609 3.024,7.499 3.043 M18.310 5.061 C 18.589 5.144,18.856 5.411,18.939 5.690 C 18.992 5.869,19.000 6.651,19.000 12.001 C 19.000 17.059,18.991 18.139,18.945 18.290 C 18.872 18.533,18.707 18.740,18.484 18.872 L 18.300 18.980 13.000 18.980 L 7.700 18.980 7.516 18.872 C 7.415 18.813,7.284 18.700,7.225 18.623 C 7.038 18.378,7.000 18.202,7.000 17.581 L 7.000 17.011 7.198 16.988 C 7.533 16.948,7.752 16.807,7.893 16.540 C 8.018 16.303,8.016 15.691,7.888 15.450 C 7.773 15.232,7.551 15.086,7.244 15.028 L 7.000 14.982 7.000 13.996 L 7.000 13.011 7.197 12.988 C 7.539 12.947,7.754 12.805,7.904 12.520 C 8.018 12.303,8.009 11.679,7.888 11.450 C 7.773 11.232,7.551 11.086,7.244 11.028 L 7.000 10.982 7.000 9.996 L 7.000 9.011 7.198 8.988 C 7.533 8.948,7.752 8.807,7.893 8.540 C 8.018 8.303,8.016 7.691,7.888 7.450 C 7.773 7.232,7.551 7.086,7.244 7.028 L 7.000 6.982 7.000 6.438 C 7.000 5.751,7.053 5.553,7.304 5.303 C 7.621 4.985,7.234 5.006,12.983 5.003 C 17.458 5.000,18.131 5.008,18.310 5.061 M12.499 8.040 C 11.363 8.246,10.460 9.049,10.114 10.160 C 9.979 10.594,9.979 11.406,10.114 11.840 C 10.421 12.826,11.174 13.579,12.160 13.886 C 12.594 14.021,13.406 14.021,13.840 13.886 C 14.807 13.585,15.552 12.852,15.872 11.887 C 15.961 11.620,15.974 11.508,15.977 11.020 C 15.980 10.539,15.967 10.418,15.886 10.160 C 15.580 9.178,14.810 8.407,13.861 8.129 C 13.500 8.023,12.832 7.980,12.499 8.040 M13.310 10.061 C 13.688 10.173,14.000 10.598,14.000 11.001 C 14.000 11.331,13.784 11.696,13.484 11.872 C 13.328 11.963,13.254 11.980,13.000 11.980 C 12.746 11.980,12.672 11.963,12.516 11.872 C 11.935 11.530,11.833 10.774,12.304 10.303 C 12.583 10.024,12.916 9.944,13.310 10.061 M9.614 15.057 C 9.377 15.131,9.212 15.261,9.109 15.453 C 9.035 15.592,9.020 15.684,9.020 16.000 C 9.020 16.331,9.033 16.403,9.120 16.558 C 9.230 16.755,9.414 16.898,9.635 16.959 C 9.832 17.014,16.168 17.014,16.365 16.959 C 16.586 16.898,16.770 16.755,16.880 16.558 C 16.967 16.402,16.980 16.332,16.979 16.000 C 16.978 15.567,16.898 15.355,16.678 15.199 C 16.398 14.999,16.411 15.000,12.984 15.003 C 10.472 15.005,9.744 15.017,9.614 15.057 " stroke="none" fill="black" fill-rule="evenodd"></path></svg>