<svg xmlns="http://www.w3.org/2000/svg" width="24" height="24" viewBox="0 0 24 24" fill="none" stroke="currentColor" stroke-width="2" stroke-linecap="round" stroke-linejoin="round" class="icon icon-tabler icons-tabler-outline icon-tabler-help-circle"><path d="M11.080 2.045 C 9.507 2.184,7.883 2.751,6.540 3.630 C 5.905 4.045,5.499 4.378,4.919 4.958 C 2.953 6.926,1.919 9.544,2.013 12.320 C 2.084 14.439,2.752 16.328,4.033 18.040 C 4.430 18.570,5.305 19.464,5.800 19.847 C 7.242 20.961,8.787 21.624,10.600 21.907 C 11.247 22.008,12.753 22.008,13.400 21.907 C 15.638 21.557,17.504 20.620,19.062 19.062 C 20.620 17.504,21.557 15.638,21.907 13.400 C 22.008 12.753,22.008 11.247,21.907 10.600 C 21.624 8.786,20.959 7.238,19.847 5.800 C 19.510 5.365,18.639 4.494,18.200 4.154 C 16.133 2.555,13.646 1.818,11.080 2.045 M12.734 4.041 C 14.574 4.216,16.228 4.976,17.554 6.256 C 20.043 8.658,20.702 12.394,19.183 15.499 C 18.749 16.387,18.223 17.105,17.496 17.801 C 16.876 18.394,16.262 18.819,15.471 19.200 C 13.267 20.265,10.733 20.265,8.529 19.200 C 7.477 18.693,6.612 18.015,5.847 17.100 C 3.848 14.711,3.440 11.302,4.816 8.500 C 6.162 5.760,8.867 4.049,11.920 4.005 C 12.129 4.003,12.495 4.019,12.734 4.041 M11.440 8.058 C 11.297 8.089,11.102 8.142,11.008 8.176 C 10.203 8.466,9.442 9.217,9.440 9.722 C 9.439 10.052,9.769 10.475,10.174 10.663 C 10.548 10.838,10.807 10.775,11.193 10.419 C 11.607 10.036,11.852 9.947,12.236 10.039 C 12.926 10.205,13.220 11.013,12.802 11.591 C 12.616 11.848,12.390 11.958,11.953 12.003 C 11.311 12.069,11.046 12.320,11.009 12.896 C 10.978 13.381,11.118 13.699,11.442 13.880 C 11.602 13.970,11.664 13.980,12.060 13.979 C 12.770 13.977,13.316 13.781,13.893 13.323 C 14.574 12.782,14.948 12.031,14.989 11.119 C 15.014 10.566,14.932 10.176,14.683 9.664 C 14.320 8.917,13.597 8.324,12.780 8.101 C 12.447 8.010,11.765 7.988,11.440 8.058 M11.614 15.057 C 11.221 15.180,11.039 15.435,11.009 15.906 C 10.962 16.621,11.306 17.000,12.000 17.000 C 12.698 17.000,13.043 16.616,12.989 15.900 C 12.963 15.563,12.859 15.327,12.678 15.199 C 12.414 15.010,11.957 14.950,11.614 15.057 " stroke="none" fill="black" fill-rule="evenodd"></path></svg>