<svg xmlns="http://www.w3.org/2000/svg" width="24" height="24" viewBox="0 0 24 24" fill="none" stroke="currentColor" stroke-width="2" stroke-linecap="round" stroke-linejoin="round" class="icon icon-tabler icons-tabler-outline icon-tabler-notes-off"><path d="M2.626 2.045 C 2.257 2.239,1.951 2.673,1.951 3.000 C 1.951 3.321,2.070 3.479,3.064 4.481 L 3.998 5.422 4.009 12.501 L 4.020 19.580 4.114 19.860 C 4.446 20.851,5.184 21.582,6.160 21.886 L 6.460 21.980 12.000 21.980 L 17.540 21.980 17.839 21.886 C 18.394 21.712,18.773 21.473,19.196 21.033 L 19.397 20.823 19.928 21.346 C 20.221 21.633,20.540 21.909,20.637 21.959 C 20.988 22.137,21.353 22.049,21.701 21.701 C 22.048 21.354,22.137 20.989,21.959 20.637 C 21.888 20.496,20.623 19.155,19.748 18.293 C 19.671 18.216,12.018 10.565,11.760 10.306 C 11.705 10.251,10.355 8.901,8.760 7.306 C 7.165 5.711,5.815 4.360,5.760 4.304 C 5.006 3.533,3.504 2.112,3.372 2.045 C 3.152 1.934,2.836 1.934,2.626 2.045 M6.614 2.057 C 6.377 2.132,6.212 2.261,6.109 2.453 C 6.035 2.592,6.020 2.684,6.020 3.000 C 6.020 3.331,6.033 3.403,6.120 3.558 C 6.230 3.755,6.414 3.898,6.635 3.959 C 6.729 3.985,8.608 4.000,11.943 4.000 C 17.764 4.000,17.373 3.979,17.697 4.303 C 18.021 4.627,18.000 4.236,18.000 10.057 C 18.000 13.392,18.015 15.271,18.041 15.365 C 18.148 15.750,18.437 15.962,18.896 15.991 C 19.381 16.022,19.699 15.882,19.880 15.558 L 19.980 15.380 19.980 9.920 L 19.980 4.460 19.886 4.160 C 19.581 3.182,18.832 2.428,17.861 2.121 L 17.540 2.020 12.160 2.012 C 7.811 2.006,6.748 2.014,6.614 2.057 M10.614 6.057 C 10.377 6.131,10.212 6.261,10.109 6.453 C 10.035 6.592,10.020 6.684,10.020 7.000 C 10.020 7.331,10.033 7.403,10.120 7.558 C 10.230 7.755,10.414 7.898,10.635 7.959 C 10.831 8.014,15.169 8.014,15.365 7.959 C 15.586 7.898,15.770 7.755,15.880 7.558 C 15.967 7.402,15.980 7.332,15.979 7.000 C 15.978 6.567,15.898 6.355,15.678 6.199 C 15.406 6.005,15.336 6.000,12.984 6.003 C 11.293 6.005,10.741 6.017,10.614 6.057 M8.598 10.040 C 8.597 10.051,8.521 10.097,8.428 10.143 C 8.121 10.293,7.978 10.621,8.009 11.104 C 8.038 11.563,8.250 11.852,8.635 11.959 C 8.715 11.981,9.185 12.000,9.680 12.000 L 10.581 12.000 11.580 13.000 L 12.579 14.000 10.696 14.000 C 8.689 14.000,8.589 14.008,8.322 14.199 C 8.100 14.357,8.020 14.568,8.020 15.000 C 8.020 15.331,8.033 15.403,8.120 15.558 C 8.230 15.755,8.414 15.898,8.635 15.959 C 8.831 16.014,13.169 16.014,13.365 15.959 C 13.585 15.898,13.770 15.755,13.875 15.564 L 13.971 15.391 15.945 17.365 C 17.031 18.451,17.920 19.359,17.920 19.382 C 17.920 19.476,17.661 19.768,17.486 19.871 L 17.300 19.980 12.000 19.980 L 6.700 19.980 6.516 19.872 C 6.415 19.813,6.284 19.700,6.225 19.623 C 5.987 19.311,6.000 19.677,6.000 13.285 L 6.000 7.420 7.300 8.720 C 8.015 9.435,8.599 10.029,8.598 10.040 " stroke="none" fill="black" fill-rule="evenodd"></path></svg>