<svg xmlns="http://www.w3.org/2000/svg" width="24" height="24" viewBox="0 0 24 24" fill="none" stroke="currentColor" stroke-width="2" stroke-linecap="round" stroke-linejoin="round" class="icon icon-tabler icons-tabler-outline icon-tabler-heart-minus"><path d="M7.360 3.026 C 6.162 3.208,5.471 3.463,4.598 4.045 C 4.166 4.333,3.397 5.077,3.113 5.480 C 2.372 6.534,1.996 7.723,1.998 9.000 C 2.002 10.483,2.516 11.856,3.469 12.924 C 3.618 13.091,4.856 14.332,6.220 15.682 C 7.584 17.032,9.321 18.751,10.080 19.504 C 10.993 20.408,11.520 20.901,11.637 20.960 C 11.989 21.137,12.354 21.048,12.701 20.701 C 13.048 20.354,13.137 19.989,12.960 19.637 C 12.877 19.474,11.288 17.880,6.105 12.762 C 5.056 11.726,4.734 11.361,4.500 10.943 C 3.870 9.817,3.837 8.356,4.415 7.212 C 4.639 6.769,4.809 6.532,5.150 6.186 C 5.969 5.355,6.989 4.959,8.180 5.011 C 9.402 5.065,10.316 5.550,11.233 6.631 C 11.603 7.066,11.953 7.158,12.391 6.935 C 12.558 6.849,12.691 6.731,12.911 6.469 C 13.938 5.253,15.500 4.760,17.060 5.160 C 17.908 5.377,18.806 6.021,19.304 6.768 C 19.750 7.435,19.971 8.161,19.972 8.960 C 19.973 9.928,19.731 10.688,19.193 11.402 C 19.068 11.569,18.326 12.335,17.543 13.107 C 16.033 14.596,15.962 14.682,15.962 15.040 C 15.962 15.278,16.067 15.498,16.289 15.727 C 16.628 16.075,17.002 16.177,17.344 16.016 C 17.503 15.941,20.141 13.388,20.555 12.909 C 21.426 11.899,21.933 10.588,21.989 9.200 C 22.102 6.363,20.086 3.764,17.308 3.164 C 15.509 2.775,13.677 3.197,12.252 4.327 L 12.004 4.524 11.772 4.335 C 10.964 3.676,9.925 3.220,8.860 3.057 C 8.535 3.007,7.611 2.988,7.360 3.026 M15.614 18.057 C 15.377 18.131,15.212 18.261,15.109 18.453 C 15.035 18.592,15.020 18.684,15.020 19.000 C 15.020 19.331,15.033 19.403,15.120 19.558 C 15.230 19.755,15.414 19.898,15.635 19.959 C 15.832 20.014,22.168 20.014,22.365 19.959 C 22.586 19.898,22.770 19.755,22.880 19.558 C 22.967 19.402,22.980 19.332,22.979 19.000 C 22.978 18.567,22.898 18.355,22.678 18.199 C 22.398 17.999,22.411 18.000,18.984 18.003 C 16.472 18.005,15.744 18.017,15.614 18.057 " stroke="none" fill="black" fill-rule="evenodd"></path></svg>