<svg xmlns="http://www.w3.org/2000/svg" width="24" height="24" viewBox="0 0 24 24" fill="none" stroke="currentColor" stroke-width="2" stroke-linecap="round" stroke-linejoin="round" class="icon icon-tabler icons-tabler-outline icon-tabler-receipt-refund"><path d="M6.499 2.043 C 5.390 2.231,4.488 3.024,4.114 4.140 L 4.020 4.420 4.000 12.780 C 3.979 21.724,3.971 21.345,4.173 21.647 C 4.297 21.832,4.689 22.038,4.920 22.038 C 5.226 22.040,5.627 21.891,5.780 21.719 C 5.824 21.669,6.311 21.328,6.863 20.959 L 7.866 20.289 8.663 21.079 C 9.515 21.924,9.687 22.049,10.000 22.049 C 10.307 22.049,10.487 21.921,11.270 21.147 L 12.000 20.425 12.730 21.147 C 13.513 21.921,13.693 22.049,14.000 22.049 C 14.313 22.049,14.485 21.924,15.337 21.079 L 16.134 20.289 17.332 21.088 C 17.990 21.527,18.601 21.912,18.690 21.943 C 19.146 22.104,19.669 21.936,19.880 21.558 L 19.980 21.380 19.980 12.920 L 19.980 4.460 19.886 4.160 C 19.581 3.182,18.832 2.428,17.861 2.121 L 17.540 2.020 12.120 2.014 C 9.139 2.011,6.609 2.024,6.499 2.043 M17.310 4.061 C 17.592 4.144,17.858 4.412,17.940 4.693 C 17.993 4.876,17.999 5.769,17.990 12.011 L 17.980 19.120 17.260 18.638 C 16.864 18.372,16.468 18.118,16.380 18.072 C 16.172 17.962,15.837 17.957,15.620 18.059 C 15.526 18.103,15.157 18.434,14.730 18.855 L 14.000 19.575 13.270 18.853 C 12.856 18.444,12.467 18.094,12.372 18.045 C 12.149 17.933,11.851 17.933,11.628 18.045 C 11.533 18.094,11.144 18.444,10.730 18.853 L 10.000 19.575 9.270 18.855 C 8.843 18.434,8.474 18.103,8.380 18.059 C 8.163 17.957,7.828 17.962,7.620 18.072 C 7.532 18.118,7.136 18.372,6.740 18.638 L 6.020 19.120 6.010 12.011 C 5.999 4.009,5.975 4.631,6.303 4.303 C 6.621 3.985,6.233 4.006,11.983 4.003 C 16.458 4.000,17.131 4.008,17.310 4.061 M10.620 7.046 C 10.390 7.165,8.153 9.411,8.040 9.637 C 7.987 9.743,7.951 9.889,7.951 9.998 C 7.951 10.238,8.150 10.682,8.303 10.784 C 8.365 10.826,8.876 11.312,9.438 11.865 C 10.522 12.931,10.678 13.049,11.000 13.049 C 11.477 13.049,12.049 12.477,12.049 12.000 C 12.049 11.760,11.939 11.549,11.656 11.243 L 11.431 11.000 12.268 11.000 C 13.276 11.000,13.426 11.032,13.697 11.303 C 13.982 11.588,14.000 11.692,14.000 13.057 C 14.000 13.713,14.018 14.283,14.041 14.365 C 14.148 14.750,14.437 14.962,14.896 14.991 C 15.381 15.022,15.699 14.882,15.880 14.558 L 15.980 14.380 15.980 12.920 C 15.980 11.501,15.977 11.452,15.886 11.160 C 15.580 10.180,14.822 9.418,13.861 9.125 C 13.564 9.034,13.462 9.025,12.489 9.009 L 11.439 8.992 11.660 8.753 C 12.055 8.326,12.144 8.000,11.962 7.644 C 11.852 7.428,11.576 7.150,11.365 7.043 C 11.152 6.934,10.835 6.935,10.620 7.046 " stroke="none" fill="black" fill-rule="evenodd"></path></svg>