<svg xmlns="http://www.w3.org/2000/svg" width="24" height="24" viewBox="0 0 24 24" fill="none" stroke="currentColor" stroke-width="2" stroke-linecap="round" stroke-linejoin="round" class="icon icon-tabler icons-tabler-outline icon-tabler-sign-right"><path d="M9.614 2.057 C 9.377 2.131,9.212 2.261,9.109 2.453 C 9.024 2.613,9.020 2.668,9.008 3.808 L 8.996 4.997 7.327 5.008 L 5.658 5.020 5.459 5.122 C 5.245 5.233,5.105 5.404,5.041 5.635 C 4.986 5.832,4.986 11.168,5.041 11.365 C 5.102 11.586,5.245 11.770,5.442 11.880 L 5.620 11.980 7.310 11.992 L 9.000 12.003 9.000 16.002 L 9.000 20.000 8.406 20.000 C 7.577 20.000,7.300 20.097,7.109 20.453 C 7.035 20.592,7.020 20.684,7.020 21.000 C 7.020 21.331,7.033 21.403,7.120 21.558 C 7.230 21.755,7.414 21.898,7.635 21.959 C 7.831 22.014,12.169 22.014,12.365 21.959 C 12.586 21.898,12.770 21.755,12.880 21.558 C 12.967 21.402,12.980 21.332,12.979 21.000 C 12.978 20.687,12.962 20.591,12.890 20.453 C 12.702 20.097,12.424 20.000,11.594 20.000 L 11.000 20.000 11.000 16.001 L 11.000 12.002 13.630 11.991 L 16.260 11.980 16.455 11.884 C 16.626 11.800,16.784 11.620,17.769 10.388 C 18.386 9.617,18.916 8.923,18.949 8.846 C 19.151 8.361,19.119 8.302,17.783 6.629 C 16.784 5.380,16.626 5.200,16.455 5.116 L 16.260 5.020 13.633 5.009 L 11.005 4.998 10.993 3.809 C 10.981 2.669,10.976 2.613,10.891 2.453 C 10.842 2.362,10.746 2.247,10.678 2.199 C 10.414 2.010,9.957 1.950,9.614 2.057 M16.085 7.710 C 16.397 8.101,16.667 8.439,16.685 8.462 C 16.704 8.487,16.477 8.804,16.118 9.252 L 15.519 10.000 11.259 10.000 L 7.000 10.000 7.000 8.500 L 7.000 7.000 11.259 7.000 L 15.518 7.000 16.085 7.710 " stroke="none" fill="black" fill-rule="evenodd"></path></svg>