<svg xmlns="http://www.w3.org/2000/svg" width="24" height="24" viewBox="0 0 24 24" fill="none" stroke="currentColor" stroke-width="2" stroke-linecap="round" stroke-linejoin="round" class="icon icon-tabler icons-tabler-outline icon-tabler-info-square-rounded"><path d="M10.349 2.044 C 7.535 2.178,5.738 2.713,4.406 3.814 C 3.787 4.326,3.247 5.075,2.885 5.924 C 2.566 6.671,2.342 7.527,2.205 8.520 C 2.051 9.633,2.021 10.208,2.021 12.000 C 2.021 13.792,2.051 14.367,2.205 15.480 C 2.744 19.396,4.610 21.251,8.560 21.800 C 9.623 21.948,10.220 21.979,12.000 21.979 C 13.780 21.979,14.377 21.948,15.440 21.800 C 16.241 21.689,16.753 21.574,17.401 21.361 C 20.018 20.502,21.344 18.717,21.800 15.440 C 21.948 14.377,21.979 13.780,21.979 12.000 C 21.979 10.220,21.948 9.623,21.800 8.560 C 21.494 6.357,20.759 4.778,19.594 3.814 C 18.657 3.040,17.469 2.539,15.960 2.283 C 14.520 2.039,12.378 1.947,10.349 2.044 M13.500 4.041 C 16.040 4.168,17.512 4.591,18.435 5.458 C 19.509 6.468,19.999 8.517,19.999 12.000 C 19.999 15.490,19.511 17.527,18.430 18.548 C 17.356 19.562,15.410 20.000,11.992 20.000 C 8.581 19.999,6.644 19.561,5.570 18.548 C 4.489 17.527,4.001 15.490,4.001 12.000 C 4.001 10.005,4.176 8.385,4.505 7.320 C 5.052 5.555,6.056 4.719,8.129 4.302 C 9.412 4.045,11.521 3.942,13.500 4.041 M11.614 8.055 C 11.220 8.184,11.039 8.437,11.009 8.900 C 10.978 9.381,11.119 9.699,11.442 9.880 C 11.597 9.967,11.669 9.980,12.000 9.980 C 12.312 9.980,12.408 9.964,12.540 9.894 C 12.866 9.718,13.000 9.459,13.000 9.000 C 13.000 8.357,12.713 8.048,12.083 8.016 C 11.893 8.006,11.718 8.021,11.614 8.055 M10.614 11.057 C 10.223 11.180,10.039 11.436,10.009 11.900 C 9.968 12.532,10.251 12.922,10.797 12.987 L 11.000 13.011 11.000 14.616 C 11.000 15.567,11.017 16.279,11.041 16.365 C 11.102 16.586,11.245 16.770,11.442 16.880 C 11.612 16.976,11.654 16.981,12.405 16.993 C 12.880 17.001,13.252 16.989,13.349 16.963 C 13.583 16.900,13.767 16.760,13.880 16.558 C 13.967 16.402,13.980 16.332,13.979 16.000 C 13.978 15.685,13.963 15.591,13.888 15.450 C 13.773 15.232,13.551 15.086,13.246 15.028 L 13.004 14.982 12.992 13.301 C 12.980 11.651,12.978 11.617,12.891 11.453 C 12.785 11.256,12.622 11.131,12.371 11.055 C 12.126 10.982,10.851 10.983,10.614 11.057 " stroke="none" fill="black" fill-rule="evenodd"></path></svg>