<svg xmlns="http://www.w3.org/2000/svg" width="24" height="24" viewBox="0 0 24 24" fill="none" stroke="currentColor" stroke-width="2" stroke-linecap="round" stroke-linejoin="round" class="icon icon-tabler icons-tabler-outline icon-tabler-folder-heart"><path d="M4.499 3.043 C 3.383 3.230,2.461 4.048,2.114 5.160 L 2.020 5.460 2.020 11.500 L 2.020 17.540 2.114 17.840 C 2.418 18.816,3.151 19.555,4.140 19.886 L 4.420 19.979 7.520 19.992 C 9.763 20.002,10.679 19.993,10.833 19.959 C 11.261 19.866,11.486 19.537,11.486 19.003 C 11.486 18.656,11.418 18.446,11.248 18.267 C 11.003 18.009,11.166 18.022,7.780 18.000 L 4.700 17.980 4.516 17.872 C 4.415 17.813,4.284 17.700,4.225 17.623 C 3.987 17.311,4.000 17.655,4.000 11.522 C 4.000 5.182,3.978 5.628,4.303 5.303 C 4.605 5.002,4.618 5.000,6.737 5.000 L 8.580 5.000 9.960 6.383 C 10.719 7.143,11.421 7.814,11.520 7.873 L 11.700 7.980 15.480 8.000 C 19.716 8.022,19.404 7.999,19.717 8.321 C 19.980 8.593,20.000 8.714,20.000 10.057 C 20.000 10.713,20.018 11.283,20.041 11.365 C 20.148 11.750,20.437 11.962,20.896 11.991 C 21.381 12.022,21.699 11.882,21.880 11.558 L 21.980 11.380 21.980 9.920 C 21.980 8.501,21.977 8.452,21.886 8.160 C 21.581 7.182,20.831 6.427,19.861 6.122 L 19.540 6.021 15.980 6.009 L 12.421 5.997 10.980 4.563 C 9.613 3.200,9.529 3.125,9.323 3.064 C 9.134 3.008,8.816 3.001,6.903 3.005 C 5.691 3.007,4.609 3.025,4.499 3.043 M15.699 14.037 C 14.670 14.202,13.737 14.905,13.305 15.840 C 13.072 16.345,13.021 16.592,13.024 17.200 C 13.026 17.692,13.037 17.773,13.149 18.111 C 13.314 18.608,13.546 18.985,13.936 19.393 C 14.114 19.578,14.984 20.440,15.868 21.306 C 17.563 22.967,17.651 23.038,18.000 23.038 C 18.345 23.038,18.445 22.958,19.971 21.466 C 22.507 18.986,22.575 18.908,22.818 18.213 C 23.020 17.636,23.050 16.947,22.900 16.380 C 22.746 15.802,22.353 15.189,21.871 14.775 C 20.903 13.943,19.453 13.773,18.325 14.360 L 18.013 14.522 17.697 14.363 C 17.245 14.135,16.862 14.039,16.340 14.020 C 16.098 14.012,15.810 14.019,15.699 14.037 M16.753 16.136 C 16.861 16.191,17.080 16.356,17.239 16.502 C 17.843 17.056,18.170 17.055,18.773 16.497 C 19.226 16.077,19.559 15.955,20.020 16.041 C 20.841 16.193,21.259 17.127,20.806 17.797 C 20.748 17.883,20.101 18.542,19.368 19.262 C 18.242 20.369,18.025 20.565,17.961 20.535 C 17.919 20.516,17.278 19.898,16.537 19.163 C 15.024 17.661,15.020 17.657,15.023 17.160 C 15.025 16.915,15.045 16.822,15.133 16.651 C 15.292 16.341,15.584 16.126,15.980 16.025 C 16.156 15.980,16.559 16.038,16.753 16.136 " stroke="none" fill="black" fill-rule="evenodd"></path></svg>