<svg xmlns="http://www.w3.org/2000/svg" width="24" height="24" viewBox="0 0 24 24" fill="none" stroke="currentColor" stroke-width="2" stroke-linecap="round" stroke-linejoin="round" class="icon icon-tabler icons-tabler-outline icon-tabler-messages"><path d="M10.477 2.073 C 9.806 2.249,9.238 2.823,9.060 3.508 C 9.009 3.702,9.000 4.237,9.000 7.000 C 9.000 10.547,8.996 10.478,9.225 10.930 C 9.361 11.199,9.801 11.639,10.070 11.775 C 10.523 12.005,10.439 12.000,14.159 12.000 L 17.582 12.000 18.861 13.291 C 19.564 14.001,20.174 14.634,20.216 14.696 C 20.318 14.850,20.761 15.049,21.000 15.049 C 21.201 15.049,21.654 14.864,21.768 14.735 C 21.879 14.609,22.041 14.208,22.036 14.069 C 22.034 13.998,22.020 11.609,22.005 8.760 C 21.976 3.223,21.987 3.489,21.777 3.073 C 21.646 2.815,21.293 2.447,21.017 2.281 C 20.535 1.991,20.809 2.005,15.500 2.005 C 11.129 2.005,10.718 2.010,10.477 2.073 M20.000 7.787 L 20.000 11.574 19.267 10.851 C 18.603 10.195,18.515 10.122,18.320 10.064 C 18.131 10.008,17.688 10.000,14.553 10.000 L 11.000 10.000 11.000 7.000 L 11.000 4.000 15.500 4.000 L 20.000 4.000 20.000 7.787 M3.477 9.073 C 2.789 9.253,2.184 9.886,2.041 10.577 C 2.012 10.714,2.002 12.484,2.009 16.040 L 2.020 21.300 2.129 21.486 C 2.411 21.965,2.945 22.170,3.363 21.960 C 3.481 21.900,4.016 21.397,4.981 20.435 L 6.422 19.000 9.843 19.000 C 13.561 19.000,13.477 19.005,13.930 18.775 C 14.196 18.640,14.638 18.200,14.771 17.937 C 14.988 17.509,15.006 17.347,14.992 15.925 C 14.980 14.657,14.977 14.615,14.889 14.450 C 14.724 14.140,14.329 13.970,13.874 14.011 C 13.439 14.051,13.141 14.274,13.041 14.635 C 13.018 14.716,13.000 15.270,13.000 15.890 L 13.000 17.000 9.447 17.000 C 6.312 17.000,5.869 17.008,5.680 17.064 C 5.485 17.122,5.397 17.195,4.733 17.851 L 4.000 18.574 4.000 14.787 L 4.000 11.000 5.110 11.000 C 5.730 11.000,6.284 10.982,6.365 10.959 C 6.586 10.898,6.770 10.755,6.880 10.558 C 6.967 10.402,6.980 10.332,6.979 10.000 C 6.978 9.567,6.898 9.355,6.678 9.199 C 6.424 9.018,6.266 9.000,4.964 9.002 C 3.941 9.004,3.697 9.016,3.477 9.073 " stroke="none" fill="black" fill-rule="evenodd"></path></svg>