<svg xmlns="http://www.w3.org/2000/svg" width="24" height="24" viewBox="0 0 24 24" fill="none" stroke="currentColor" stroke-width="2" stroke-linecap="round" stroke-linejoin="round" class="icon icon-tabler icons-tabler-outline icon-tabler-brand-loom"><path d="M11.460 2.028 C 10.365 2.100,9.076 2.544,8.140 3.172 C 7.196 3.806,6.346 4.722,5.881 5.609 C 5.806 5.750,5.731 5.825,5.581 5.905 C 4.384 6.549,3.333 7.663,2.720 8.938 C 1.750 10.956,1.766 13.183,2.765 15.169 C 3.358 16.349,4.381 17.431,5.488 18.048 C 5.676 18.153,5.813 18.259,5.841 18.320 C 6.001 18.677,6.736 19.654,7.106 20.003 C 7.695 20.557,8.266 20.955,8.940 21.280 C 10.739 22.147,12.685 22.230,14.533 21.517 C 15.981 20.959,17.230 19.903,18.007 18.581 C 18.110 18.404,18.210 18.246,18.228 18.229 C 18.245 18.212,18.413 18.107,18.600 17.995 C 20.239 17.021,21.400 15.401,21.835 13.480 C 22.232 11.731,21.870 9.727,20.887 8.225 C 20.243 7.240,19.363 6.414,18.416 5.904 C 18.283 5.832,18.190 5.748,18.149 5.662 C 18.039 5.431,17.717 4.950,17.439 4.600 C 16.824 3.827,16.008 3.182,15.064 2.723 C 13.926 2.170,12.748 1.943,11.460 2.028 M12.953 4.100 C 13.550 4.215,14.249 4.500,14.753 4.833 L 14.974 4.980 14.677 5.009 C 13.435 5.132,12.689 5.332,11.795 5.783 C 10.652 6.358,9.555 7.408,8.934 8.520 C 8.830 8.707,8.713 8.905,8.674 8.960 C 8.589 9.082,8.272 10.054,8.165 10.520 C 8.092 10.835,8.010 11.444,7.989 11.819 L 7.980 11.978 7.812 11.719 C 7.169 10.729,6.889 9.468,7.057 8.326 C 7.128 7.842,7.281 7.298,7.401 7.100 C 7.441 7.034,7.508 6.888,7.551 6.775 C 7.665 6.474,8.026 5.944,8.358 5.589 C 9.153 4.741,10.243 4.187,11.400 4.042 C 11.795 3.993,12.537 4.021,12.953 4.100 M15.944 7.099 C 16.291 7.165,16.817 7.331,16.901 7.401 C 16.928 7.424,17.060 7.485,17.194 7.538 C 17.766 7.762,18.506 8.364,18.983 8.995 C 19.260 9.360,19.621 10.051,19.757 10.475 C 19.876 10.846,19.955 11.304,19.984 11.791 C 20.042 12.762,19.725 13.911,19.167 14.752 L 19.020 14.972 18.975 14.476 C 18.882 13.463,18.666 12.688,18.242 11.843 C 17.595 10.557,16.693 9.636,15.266 8.805 C 14.641 8.441,13.518 8.119,12.595 8.038 C 12.323 8.015,12.085 7.991,12.066 7.986 C 12.019 7.974,12.416 7.714,12.705 7.568 C 13.261 7.287,13.814 7.116,14.400 7.042 C 14.792 6.993,15.536 7.020,15.944 7.099 M5.118 10.260 C 5.496 12.153,6.496 13.694,8.040 14.766 C 8.183 14.865,8.408 15.006,8.540 15.078 C 8.672 15.151,8.843 15.252,8.920 15.303 C 9.055 15.393,9.920 15.688,10.429 15.818 C 10.762 15.903,11.443 15.998,11.740 16.001 L 11.980 16.003 11.861 16.100 C 11.664 16.261,10.916 16.630,10.535 16.755 C 10.337 16.820,9.978 16.904,9.738 16.942 C 8.880 17.077,7.798 16.944,7.140 16.623 C 6.986 16.547,6.743 16.433,6.600 16.368 C 6.052 16.119,5.301 15.444,4.880 14.819 C 4.503 14.262,4.221 13.585,4.101 12.954 C 3.859 11.676,4.106 10.402,4.815 9.281 L 4.980 9.020 5.025 9.520 C 5.050 9.795,5.091 10.128,5.118 10.260 M12.587 10.041 C 13.044 10.100,13.602 10.242,13.678 10.318 C 13.812 10.452,14.000 11.469,14.000 12.065 C 14.000 12.403,13.875 13.167,13.769 13.480 C 13.698 13.688,13.683 13.704,13.497 13.766 C 12.629 14.059,11.485 14.068,10.595 13.789 C 10.258 13.684,10.267 13.698,10.111 13.020 C 10.010 12.582,9.989 11.526,10.073 11.140 C 10.172 10.681,10.293 10.316,10.356 10.283 C 10.463 10.227,11.083 10.083,11.380 10.045 C 11.778 9.995,12.224 9.993,12.587 10.041 M16.179 12.260 C 16.521 12.795,16.774 13.417,16.908 14.052 C 17.002 14.503,17.001 15.542,16.906 15.960 C 16.802 16.411,16.693 16.744,16.585 16.931 C 16.532 17.024,16.467 17.168,16.441 17.251 C 16.289 17.732,15.416 18.735,14.801 19.138 C 13.984 19.672,13.148 19.943,12.180 19.985 C 11.167 20.030,10.062 19.721,9.245 19.166 L 9.031 19.020 9.525 18.975 C 10.120 18.920,10.428 18.866,10.883 18.736 C 12.515 18.270,13.895 17.272,14.805 15.899 C 15.330 15.108,15.562 14.574,15.818 13.571 C 15.895 13.269,16.000 12.498,16.000 12.233 C 16.000 12.127,16.008 12.040,16.019 12.040 C 16.029 12.040,16.101 12.139,16.179 12.260 " stroke="none" fill="black" fill-rule="evenodd"></path></svg>