<svg xmlns="http://www.w3.org/2000/svg" width="24" height="24" viewBox="0 0 24 24" fill="none" stroke="currentColor" stroke-width="2" stroke-linecap="round" stroke-linejoin="round" class="icon icon-tabler icons-tabler-outline icon-tabler-map-pin-exclamation"><path d="M11.440 2.024 C 10.657 2.091,10.033 2.203,9.430 2.383 C 7.424 2.983,5.678 4.275,4.514 6.021 C 3.477 7.575,2.940 9.460,3.012 11.300 C 3.088 13.260,3.717 14.982,4.941 16.580 C 5.226 16.953,9.374 21.158,9.999 21.708 C 11.174 22.743,12.826 22.743,14.001 21.709 C 14.552 21.224,15.862 19.873,15.948 19.700 C 16.068 19.461,16.084 19.309,16.015 19.075 C 15.926 18.777,15.542 18.393,15.243 18.305 C 14.996 18.231,14.749 18.268,14.544 18.408 C 14.476 18.454,14.006 18.902,13.500 19.404 C 12.496 20.398,12.386 20.478,11.998 20.479 C 11.577 20.481,11.581 20.484,9.056 17.951 C 7.778 16.669,6.629 15.488,6.503 15.327 C 4.644 12.964,4.514 9.607,6.184 7.120 C 7.602 5.007,10.031 3.827,12.531 4.035 C 14.738 4.220,16.593 5.303,17.807 7.117 C 18.693 8.440,19.089 9.961,18.965 11.562 C 18.906 12.320,18.936 12.496,19.162 12.722 C 19.455 13.015,20.123 13.117,20.469 12.922 C 20.875 12.693,20.971 12.334,20.976 11.040 C 20.980 10.075,20.935 9.669,20.736 8.860 C 20.507 7.932,20.015 6.797,19.521 6.059 C 18.072 3.890,15.805 2.458,13.255 2.099 C 12.841 2.040,11.764 1.996,11.440 2.024 M11.358 7.061 C 10.230 7.237,9.143 7.974,8.569 8.953 C 7.320 11.083,8.233 13.785,10.512 14.704 C 12.558 15.528,14.877 14.538,15.704 12.488 C 16.090 11.530,16.090 10.469,15.705 9.516 C 15.172 8.197,14.001 7.269,12.605 7.058 C 12.144 6.989,11.816 6.990,11.358 7.061 M12.523 9.073 C 13.262 9.266,13.850 9.924,13.967 10.690 C 14.067 11.343,13.873 11.933,13.403 12.404 C 13.002 12.807,12.547 13.000,12.000 13.000 C 11.485 13.000,11.038 12.822,10.653 12.465 C 9.323 11.229,10.189 9.005,12.000 9.005 C 12.143 9.005,12.378 9.036,12.523 9.073 M18.614 15.057 C 18.377 15.131,18.212 15.261,18.109 15.453 C 18.021 15.618,18.020 15.647,18.008 17.410 C 18.001 18.557,18.012 19.255,18.038 19.354 C 18.144 19.747,18.433 19.961,18.896 19.991 C 19.381 20.022,19.699 19.882,19.880 19.558 L 19.980 19.380 19.980 17.500 C 19.980 15.633,19.979 15.619,19.891 15.453 C 19.842 15.362,19.746 15.247,19.678 15.199 C 19.414 15.010,18.957 14.950,18.614 15.057 M18.614 21.057 C 18.221 21.180,18.039 21.435,18.009 21.906 C 17.962 22.621,18.306 23.000,19.000 23.000 C 19.698 23.000,20.043 22.616,19.989 21.900 C 19.963 21.563,19.859 21.327,19.678 21.199 C 19.414 21.010,18.957 20.950,18.614 21.057 " stroke="none" fill="black" fill-rule="evenodd"></path></svg>