<svg xmlns="http://www.w3.org/2000/svg" width="24" height="24" viewBox="0 0 24 24" fill="none" stroke="currentColor" stroke-width="2" stroke-linecap="round" stroke-linejoin="round" class="icon icon-tabler icons-tabler-outline icon-tabler-keyboard"><path d="M3.499 5.043 C 2.380 5.232,1.461 6.048,1.114 7.160 L 1.020 7.460 1.020 12.000 L 1.020 16.540 1.114 16.840 C 1.422 17.827,2.173 18.578,3.160 18.886 L 3.460 18.980 12.000 18.980 L 20.540 18.980 20.840 18.886 C 21.827 18.578,22.578 17.827,22.886 16.840 L 22.980 16.540 22.980 12.000 L 22.980 7.460 22.886 7.160 C 22.581 6.182,21.832 5.428,20.861 5.121 L 20.540 5.020 12.120 5.014 C 7.489 5.011,3.609 5.024,3.499 5.043 M20.310 7.061 C 20.589 7.144,20.856 7.411,20.939 7.690 C 20.992 7.867,21.000 8.441,21.000 12.001 C 21.000 16.458,21.007 16.319,20.779 16.618 C 20.718 16.698,20.585 16.813,20.484 16.872 L 20.300 16.980 12.000 16.980 L 3.700 16.980 3.516 16.872 C 3.303 16.747,3.141 16.550,3.058 16.316 C 2.969 16.062,2.971 7.992,3.061 7.690 C 3.140 7.421,3.412 7.143,3.673 7.063 C 3.833 7.014,5.030 7.005,11.983 7.003 C 19.144 7.000,20.130 7.007,20.310 7.061 M5.614 9.057 C 5.221 9.180,5.039 9.435,5.009 9.906 C 4.962 10.621,5.306 11.000,6.000 11.000 C 6.698 11.000,7.043 10.616,6.989 9.900 C 6.963 9.563,6.859 9.327,6.678 9.199 C 6.414 9.010,5.957 8.950,5.614 9.057 M9.614 9.057 C 9.221 9.180,9.039 9.435,9.009 9.906 C 8.962 10.621,9.306 11.000,10.000 11.000 C 10.698 11.000,11.043 10.616,10.989 9.900 C 10.963 9.563,10.859 9.327,10.678 9.199 C 10.414 9.010,9.957 8.950,9.614 9.057 M13.614 9.057 C 13.221 9.180,13.039 9.435,13.009 9.906 C 12.962 10.621,13.306 11.000,14.000 11.000 C 14.698 11.000,15.043 10.616,14.989 9.900 C 14.963 9.563,14.859 9.327,14.678 9.199 C 14.414 9.010,13.957 8.950,13.614 9.057 M17.614 9.057 C 17.221 9.180,17.039 9.435,17.009 9.906 C 16.962 10.621,17.306 11.000,18.000 11.000 C 18.698 11.000,19.043 10.616,18.989 9.900 C 18.963 9.563,18.859 9.327,18.678 9.199 C 18.414 9.010,17.957 8.950,17.614 9.057 M5.614 13.057 C 5.221 13.180,5.039 13.435,5.009 13.906 C 4.962 14.621,5.306 15.000,6.000 15.000 C 6.698 15.000,7.043 14.616,6.989 13.900 C 6.963 13.563,6.859 13.327,6.678 13.199 C 6.414 13.010,5.957 12.950,5.614 13.057 M9.649 13.038 C 9.266 13.132,9.039 13.437,9.009 13.900 C 8.978 14.381,9.119 14.699,9.442 14.880 L 9.620 14.980 11.935 14.992 C 13.950 15.002,14.275 14.995,14.439 14.940 C 14.769 14.831,14.960 14.546,14.991 14.117 C 15.027 13.607,14.823 13.214,14.451 13.079 C 14.331 13.036,13.837 13.023,12.040 13.015 C 10.797 13.010,9.721 13.020,9.649 13.038 M17.614 13.057 C 17.221 13.180,17.039 13.435,17.009 13.906 C 16.962 14.621,17.306 15.000,18.000 15.000 C 18.698 15.000,19.043 14.616,18.989 13.900 C 18.963 13.563,18.859 13.327,18.678 13.199 C 18.414 13.010,17.957 12.950,17.614 13.057 " stroke="none" fill="black" fill-rule="evenodd"></path></svg>