<svg xmlns="http://www.w3.org/2000/svg" width="24" height="24" viewBox="0 0 24 24" fill="none" stroke="currentColor" stroke-width="2" stroke-linecap="round" stroke-linejoin="round" class="icon icon-tabler icons-tabler-outline icon-tabler-arrow-roundabout-left"><path d="M15.380 3.043 C 13.717 3.207,12.205 4.071,11.181 5.443 C 10.656 6.145,10.332 6.882,10.103 7.890 L 10.078 8.000 7.751 8.000 L 5.423 8.000 6.647 6.770 C 7.452 5.961,7.901 5.479,7.960 5.363 C 8.137 5.011,8.048 4.646,7.701 4.299 C 7.361 3.959,6.980 3.868,6.628 4.044 C 6.518 4.099,5.768 4.817,4.460 6.118 C 3.360 7.213,2.399 8.150,2.324 8.201 C 2.149 8.321,1.951 8.745,1.951 9.000 C 1.951 9.239,2.150 9.682,2.304 9.784 C 2.366 9.826,3.327 10.763,4.439 11.866 C 5.818 13.234,6.516 13.899,6.637 13.960 C 6.989 14.137,7.354 14.048,7.701 13.701 C 8.048 13.354,8.137 12.989,7.960 12.637 C 7.901 12.521,7.452 12.039,6.647 11.230 L 5.423 10.000 8.321 10.000 C 10.140 10.000,11.274 9.985,11.365 9.959 C 11.583 9.899,11.770 9.756,11.872 9.570 C 11.944 9.441,11.972 9.300,12.002 8.932 C 12.070 8.098,12.159 7.756,12.464 7.160 C 12.829 6.446,13.446 5.829,14.160 5.464 C 14.611 5.233,14.930 5.129,15.395 5.058 C 15.879 4.986,16.121 4.986,16.605 5.058 C 18.074 5.280,19.310 6.324,19.797 7.755 C 19.897 8.050,20.000 8.680,20.000 9.000 C 20.000 10.365,19.213 11.747,18.047 12.431 C 17.451 12.780,16.881 12.948,16.110 12.998 C 15.730 13.023,15.604 13.048,15.450 13.127 C 15.244 13.233,15.104 13.407,15.041 13.635 C 14.986 13.833,14.986 21.167,15.041 21.365 C 15.148 21.750,15.437 21.962,15.896 21.991 C 16.381 22.022,16.699 21.882,16.880 21.558 L 16.980 21.380 16.991 18.150 L 17.002 14.921 17.111 14.896 C 18.456 14.592,19.394 14.087,20.269 13.195 C 21.109 12.340,21.626 11.369,21.885 10.160 C 22.015 9.554,22.015 8.446,21.885 7.840 C 21.626 6.631,21.109 5.660,20.269 4.805 C 18.978 3.490,17.230 2.860,15.380 3.043 " stroke="none" fill="black" fill-rule="evenodd"></path></svg>