<svg xmlns="http://www.w3.org/2000/svg" width="24" height="24" viewBox="0 0 24 24" fill="none" stroke="currentColor" stroke-width="2" stroke-linecap="round" stroke-linejoin="round" class="icon icon-tabler icons-tabler-outline icon-tabler-chevrons-down"><path d="M6.626 6.045 C 6.420 6.154,6.146 6.433,6.038 6.644 C 5.924 6.867,5.924 7.132,6.039 7.363 C 6.164 7.613,11.387 12.836,11.637 12.961 C 11.868 13.076,12.132 13.076,12.363 12.961 C 12.613 12.836,17.836 7.613,17.961 7.363 C 18.137 7.010,18.047 6.645,17.701 6.299 C 17.361 5.959,16.980 5.868,16.628 6.044 C 16.517 6.100,15.705 6.881,14.230 8.353 L 12.000 10.578 9.770 8.353 C 8.295 6.881,7.483 6.100,7.372 6.044 C 7.152 5.934,6.835 5.935,6.626 6.045 M6.626 12.045 C 6.420 12.154,6.146 12.433,6.038 12.644 C 5.924 12.867,5.924 13.132,6.039 13.363 C 6.164 13.613,11.387 18.836,11.637 18.961 C 11.868 19.076,12.132 19.076,12.363 18.961 C 12.613 18.836,17.836 13.613,17.961 13.363 C 18.137 13.010,18.047 12.645,17.701 12.299 C 17.361 11.959,16.980 11.868,16.628 12.044 C 16.517 12.100,15.705 12.881,14.230 14.353 L 12.000 16.578 9.770 14.353 C 8.295 12.881,7.483 12.100,7.372 12.044 C 7.152 11.934,6.835 11.935,6.626 12.045 " stroke="none" fill="black" fill-rule="evenodd"></path></svg>