<svg xmlns="http://www.w3.org/2000/svg" width="24" height="24" viewBox="0 0 24 24" fill="none" stroke="currentColor" stroke-width="2" stroke-linecap="round" stroke-linejoin="round" class="icon icon-tabler icons-tabler-outline icon-tabler-flip-vertical"><path d="M11.614 2.057 C 11.377 2.131,11.212 2.261,11.109 2.453 L 11.020 2.620 11.010 11.914 C 11.003 18.056,11.013 21.260,11.040 21.358 C 11.144 21.747,11.435 21.962,11.896 21.991 C 12.381 22.022,12.699 21.882,12.880 21.558 L 12.980 21.380 12.980 12.000 L 12.980 2.620 12.891 2.453 C 12.842 2.362,12.746 2.247,12.678 2.199 C 12.414 2.010,11.957 1.950,11.614 2.057 M7.648 6.002 C 7.417 6.095,7.194 6.292,7.114 6.473 C 7.069 6.576,5.904 8.924,4.526 11.691 L 2.020 16.722 2.020 17.051 C 2.020 17.328,2.036 17.408,2.120 17.558 C 2.230 17.755,2.414 17.898,2.635 17.959 C 2.832 18.014,8.168 18.014,8.365 17.959 C 8.586 17.898,8.770 17.755,8.880 17.558 L 8.980 17.380 9.001 12.060 L 9.021 6.740 8.922 6.525 C 8.797 6.257,8.633 6.129,8.290 6.034 C 8.000 5.954,7.793 5.944,7.648 6.002 M15.697 6.033 C 15.387 6.125,15.234 6.234,15.101 6.462 L 14.994 6.644 14.998 11.932 C 15.001 15.195,15.017 17.275,15.041 17.364 C 15.100 17.584,15.244 17.769,15.442 17.880 L 15.620 17.980 18.412 17.991 C 20.226 17.998,21.257 17.988,21.356 17.961 C 21.584 17.900,21.769 17.758,21.879 17.558 C 21.961 17.410,21.978 17.324,21.979 17.051 L 21.980 16.723 19.474 11.691 C 18.096 8.924,16.931 6.575,16.885 6.471 C 16.822 6.328,16.748 6.246,16.579 6.134 C 16.308 5.954,16.061 5.926,15.697 6.033 M7.000 13.640 L 7.000 16.000 5.820 16.000 C 5.171 16.000,4.640 15.991,4.640 15.980 C 4.640 15.954,6.977 11.280,6.990 11.280 C 6.995 11.280,7.000 12.342,7.000 13.640 M19.358 15.970 C 19.359 15.987,18.829 16.000,18.180 16.000 L 17.000 16.000 17.002 13.630 L 17.004 11.260 18.180 13.600 C 18.827 14.887,19.357 15.954,19.358 15.970 " stroke="none" fill="black" fill-rule="evenodd"></path></svg>