<svg xmlns="http://www.w3.org/2000/svg" width="24" height="24" viewBox="0 0 24 24" fill="none" stroke="currentColor" stroke-width="2" stroke-linecap="round" stroke-linejoin="round" class="icon icon-tabler icons-tabler-outline icon-tabler-record-mail-off"><path d="M2.626 2.045 C 2.420 2.154,2.146 2.433,2.038 2.644 C 1.924 2.868,1.924 3.132,2.040 3.363 C 2.101 3.486,2.810 4.223,4.352 5.769 C 5.575 6.995,6.568 8.005,6.558 8.014 C 6.548 8.023,6.416 8.051,6.264 8.077 C 5.197 8.260,4.124 9.006,3.569 9.953 C 2.696 11.441,2.848 13.269,3.954 14.584 C 4.529 15.266,5.331 15.735,6.243 15.921 C 6.616 15.997,6.799 16.000,10.606 16.000 L 14.579 16.000 17.519 18.936 C 19.589 21.002,20.513 21.898,20.637 21.961 C 20.990 22.137,21.354 22.048,21.701 21.701 C 22.048 21.354,22.137 20.990,21.960 20.637 C 21.888 20.493,18.846 17.386,15.747 14.293 C 7.596 6.155,3.514 2.115,3.372 2.044 C 3.152 1.934,2.835 1.935,2.626 2.045 M16.560 8.026 C 15.807 8.139,15.174 8.385,14.643 8.770 C 13.972 9.256,13.398 10.051,13.401 10.492 C 13.403 10.805,13.697 11.160,14.109 11.349 C 14.554 11.553,14.911 11.451,15.230 11.029 C 15.532 10.630,15.811 10.375,16.120 10.220 C 16.886 9.834,17.784 9.984,18.400 10.600 C 18.695 10.895,18.857 11.192,18.942 11.593 C 19.014 11.932,19.013 12.118,18.940 12.430 C 18.815 12.960,18.522 13.360,17.939 13.800 C 17.634 14.030,17.508 14.257,17.530 14.541 C 17.557 14.900,17.857 15.365,18.163 15.521 C 18.458 15.672,18.766 15.614,19.206 15.326 C 20.898 14.215,21.478 12.024,20.563 10.195 C 20.098 9.267,19.242 8.532,18.239 8.203 C 17.754 8.043,16.984 7.962,16.560 8.026 M7.523 10.073 C 8.262 10.266,8.850 10.924,8.967 11.690 C 9.067 12.343,8.873 12.933,8.403 13.404 C 8.002 13.807,7.547 14.000,7.000 14.000 C 6.485 14.000,6.038 13.822,5.653 13.465 C 4.323 12.229,5.189 10.005,7.000 10.005 C 7.143 10.005,7.378 10.036,7.523 10.073 M11.800 13.220 L 12.579 14.000 11.526 14.000 C 10.947 14.000,10.480 13.987,10.488 13.970 C 10.702 13.544,10.867 13.075,10.928 12.721 C 10.955 12.566,10.986 12.440,10.999 12.440 C 11.011 12.440,11.371 12.791,11.800 13.220 " stroke="none" fill="black" fill-rule="evenodd"></path></svg>