<svg xmlns="http://www.w3.org/2000/svg" width="24" height="24" viewBox="0 0 24 24" fill="none" stroke="currentColor" stroke-width="2" stroke-linecap="round" stroke-linejoin="round" class="icon icon-tabler icons-tabler-outline icon-tabler-square-letter-q"><path d="M4.499 2.043 C 3.380 2.232,2.461 3.048,2.114 4.160 L 2.020 4.460 2.020 12.000 L 2.020 19.540 2.114 19.840 C 2.422 20.827,3.173 21.578,4.160 21.886 L 4.460 21.980 12.000 21.980 L 19.540 21.980 19.840 21.886 C 20.827 21.578,21.578 20.827,21.886 19.840 L 21.980 19.540 21.980 12.000 L 21.980 4.460 21.886 4.160 C 21.581 3.182,20.832 2.428,19.861 2.121 L 19.540 2.020 12.120 2.014 C 8.039 2.011,4.609 2.024,4.499 2.043 M19.310 4.061 C 19.589 4.144,19.856 4.411,19.939 4.690 C 19.993 4.870,20.000 5.755,20.000 12.001 C 20.000 17.907,19.991 19.138,19.945 19.290 C 19.872 19.533,19.707 19.740,19.484 19.872 L 19.300 19.980 12.000 19.980 L 4.700 19.980 4.516 19.872 C 4.415 19.813,4.284 19.700,4.225 19.623 C 3.986 19.309,4.000 19.795,4.000 12.022 C 4.000 5.758,4.007 4.870,4.061 4.690 C 4.140 4.421,4.412 4.143,4.673 4.063 C 4.964 3.974,19.009 3.971,19.310 4.061 M11.499 7.040 C 10.363 7.246,9.461 8.048,9.114 9.160 L 9.020 9.460 9.020 12.000 L 9.020 14.540 9.114 14.840 C 9.422 15.827,10.173 16.578,11.160 16.886 C 11.417 16.966,11.541 16.980,12.020 16.978 C 12.540 16.976,12.606 16.967,12.940 16.852 L 13.300 16.727 13.420 16.818 C 13.874 17.160,14.279 17.123,14.701 16.701 C 15.123 16.279,15.160 15.874,14.818 15.420 L 14.727 15.300 14.854 14.940 L 14.980 14.580 14.980 12.020 L 14.980 9.460 14.886 9.160 C 14.580 8.178,13.810 7.407,12.861 7.129 C 12.500 7.023,11.832 6.980,11.499 7.040 M12.310 9.061 C 12.452 9.103,12.571 9.178,12.697 9.303 C 13.001 9.608,13.000 9.597,13.000 11.927 L 13.000 13.960 12.898 13.960 C 12.570 13.960,12.047 14.462,11.961 14.860 C 11.937 14.968,11.921 14.979,11.799 14.969 C 11.616 14.953,11.357 14.797,11.221 14.618 C 11.004 14.333,11.000 14.287,11.000 12.001 C 11.000 9.588,10.998 9.609,11.304 9.303 C 11.583 9.024,11.916 8.944,12.310 9.061 " stroke="none" fill="black" fill-rule="evenodd"></path></svg>