<svg xmlns="http://www.w3.org/2000/svg" width="24" height="24" viewBox="0 0 24 24" fill="none" stroke="currentColor" stroke-width="2" stroke-linecap="round" stroke-linejoin="round" class="icon icon-tabler icons-tabler-outline icon-tabler-braille"><path d="M7.477 3.073 C 6.806 3.249,6.238 3.823,6.060 4.508 C 5.941 4.962,6.003 5.492,6.225 5.930 C 6.361 6.199,6.801 6.639,7.070 6.775 C 7.659 7.073,8.341 7.073,8.930 6.775 C 9.196 6.640,9.638 6.200,9.771 5.937 C 9.994 5.498,10.052 5.007,9.940 4.529 C 9.858 4.182,9.720 3.927,9.465 3.653 C 8.948 3.097,8.211 2.882,7.477 3.073 M15.477 3.073 C 14.806 3.249,14.238 3.823,14.060 4.508 C 13.941 4.962,14.003 5.492,14.225 5.930 C 14.361 6.199,14.801 6.639,15.070 6.775 C 15.659 7.073,16.341 7.073,16.930 6.775 C 17.196 6.640,17.638 6.200,17.771 5.937 C 17.994 5.498,18.052 5.007,17.940 4.529 C 17.858 4.182,17.720 3.927,17.465 3.653 C 16.948 3.097,16.211 2.882,15.477 3.073 M7.614 11.055 C 7.220 11.184,7.039 11.437,7.009 11.900 C 6.978 12.381,7.119 12.699,7.442 12.880 C 7.597 12.967,7.669 12.980,8.000 12.980 C 8.312 12.980,8.408 12.964,8.540 12.894 C 8.866 12.718,9.000 12.459,9.000 12.000 C 9.000 11.357,8.713 11.048,8.083 11.016 C 7.893 11.006,7.718 11.021,7.614 11.055 M15.614 11.055 C 15.220 11.184,15.039 11.437,15.009 11.900 C 14.978 12.381,15.119 12.699,15.442 12.880 C 15.597 12.967,15.669 12.980,16.000 12.980 C 16.312 12.980,16.408 12.964,16.540 12.894 C 16.866 12.718,17.000 12.459,17.000 12.000 C 17.000 11.357,16.713 11.048,16.083 11.016 C 15.893 11.006,15.718 11.021,15.614 11.055 M7.477 17.073 C 6.806 17.249,6.238 17.823,6.060 18.508 C 5.941 18.962,6.003 19.492,6.225 19.930 C 6.361 20.199,6.801 20.639,7.070 20.775 C 7.659 21.073,8.341 21.073,8.930 20.775 C 9.196 20.640,9.638 20.200,9.771 19.937 C 9.994 19.498,10.052 19.007,9.940 18.529 C 9.858 18.182,9.720 17.927,9.465 17.653 C 9.074 17.232,8.560 17.005,8.000 17.005 C 7.857 17.005,7.622 17.036,7.477 17.073 M15.614 18.055 C 15.220 18.184,15.039 18.437,15.009 18.900 C 14.978 19.381,15.119 19.699,15.442 19.880 C 15.597 19.967,15.669 19.980,16.000 19.980 C 16.312 19.980,16.408 19.964,16.540 19.894 C 16.866 19.718,17.000 19.459,17.000 19.000 C 17.000 18.357,16.713 18.048,16.083 18.016 C 15.893 18.006,15.718 18.021,15.614 18.055 " stroke="none" fill="black" fill-rule="evenodd"></path></svg>