<svg xmlns="http://www.w3.org/2000/svg" width="24" height="24" viewBox="0 0 24 24" fill="none" stroke="currentColor" stroke-width="2" stroke-linecap="round" stroke-linejoin="round" class="icon icon-tabler icons-tabler-outline icon-tabler-gender-third"><path d="M15.380 6.043 C 13.717 6.207,12.205 7.071,11.181 8.443 C 10.656 9.145,10.332 9.882,10.103 10.890 L 10.078 11.000 9.214 11.000 L 8.350 11.000 5.965 9.091 C 4.653 8.041,3.484 7.130,3.367 7.067 C 2.964 6.847,2.536 6.968,2.213 7.392 C 2.142 7.486,2.065 7.629,2.042 7.711 C 1.986 7.913,1.985 16.163,2.041 16.365 C 2.102 16.586,2.245 16.770,2.442 16.880 C 2.593 16.965,2.672 16.980,2.960 16.980 C 3.235 16.980,3.327 16.964,3.445 16.895 C 3.524 16.848,4.660 15.952,5.969 14.905 L 8.350 13.000 9.214 13.000 L 10.078 13.000 10.103 13.110 C 10.332 14.118,10.656 14.854,11.180 15.557 C 12.082 16.765,13.335 17.562,14.840 17.885 C 15.446 18.015,16.554 18.015,17.160 17.885 C 18.397 17.620,19.412 17.068,20.269 16.195 C 21.109 15.340,21.626 14.369,21.885 13.160 C 22.015 12.554,22.015 11.446,21.885 10.840 C 21.626 9.631,21.109 8.660,20.269 7.805 C 18.978 6.490,17.230 5.860,15.380 6.043 M16.605 8.058 C 18.074 8.280,19.310 9.324,19.797 10.755 C 19.897 11.050,20.000 11.680,20.000 12.000 C 20.000 12.322,19.897 12.951,19.796 13.245 C 19.321 14.632,18.195 15.628,16.773 15.917 C 14.563 16.368,12.396 14.845,12.058 12.605 C 11.986 12.121,11.986 11.879,12.058 11.395 C 12.314 9.698,13.675 8.324,15.358 8.061 C 15.816 7.990,16.144 7.989,16.605 8.058 M6.360 12.000 C 6.360 12.017,5.829 12.457,5.180 12.976 L 4.000 13.921 4.000 12.000 L 4.000 10.079 5.180 11.024 C 5.829 11.543,6.360 11.983,6.360 12.000 " stroke="none" fill="black" fill-rule="evenodd"></path></svg>