<svg xmlns="http://www.w3.org/2000/svg" width="24" height="24" viewBox="0 0 24 24" fill="none" stroke="currentColor" stroke-width="2" stroke-linecap="round" stroke-linejoin="round" class="icon icon-tabler icons-tabler-outline icon-tabler-bell-x"><path d="M11.499 2.040 C 10.389 2.242,9.473 3.037,9.139 4.090 C 9.055 4.357,9.049 4.365,8.767 4.538 C 7.862 5.096,6.970 5.956,6.363 6.856 C 5.849 7.617,5.469 8.462,5.244 9.341 C 5.042 10.129,5.029 10.285,5.001 12.280 L 4.975 14.180 4.871 14.472 C 4.642 15.112,4.157 15.720,3.591 16.077 C 3.126 16.369,2.975 16.639,3.009 17.115 C 3.041 17.565,3.255 17.854,3.635 17.959 C 3.724 17.984,4.600 18.000,5.890 18.000 L 8.000 18.000 8.000 18.155 C 8.000 18.240,8.026 18.460,8.059 18.645 C 8.284 19.933,9.068 20.996,10.220 21.574 C 11.284 22.108,12.603 22.134,13.624 21.640 C 13.970 21.473,14.111 21.332,14.198 21.066 C 14.328 20.670,14.012 19.973,13.623 19.796 C 13.394 19.692,13.212 19.702,12.789 19.842 C 12.147 20.055,11.651 20.042,11.134 19.797 C 10.854 19.663,10.532 19.390,10.357 19.135 C 10.201 18.909,10.048 18.498,10.015 18.220 L 9.989 18.000 11.604 18.000 C 12.563 18.000,13.279 17.983,13.365 17.959 C 13.586 17.898,13.770 17.755,13.880 17.558 C 13.967 17.402,13.980 17.332,13.979 17.000 C 13.978 16.567,13.898 16.355,13.678 16.199 C 13.397 15.999,13.425 16.000,9.782 16.000 L 6.376 16.000 6.527 15.690 C 6.666 15.404,6.804 15.009,6.924 14.560 C 6.955 14.441,6.981 13.739,6.999 12.480 C 7.021 10.961,7.040 10.510,7.094 10.230 C 7.391 8.673,8.325 7.245,9.620 6.370 C 9.752 6.281,10.031 6.116,10.240 6.004 C 10.790 5.709,11.000 5.441,11.000 5.033 C 11.000 4.483,11.467 4.000,12.000 4.000 C 12.536 4.000,13.000 4.483,13.000 5.040 C 13.000 5.261,13.108 5.533,13.252 5.672 C 13.322 5.740,13.551 5.889,13.760 6.002 C 14.256 6.271,14.592 6.500,14.955 6.815 C 15.937 7.666,16.661 8.935,16.906 10.230 C 16.955 10.492,16.978 10.932,16.996 11.980 C 17.020 13.378,17.020 13.380,17.120 13.558 C 17.287 13.856,17.572 14.000,18.000 14.000 C 18.428 14.000,18.713 13.856,18.880 13.558 C 18.980 13.381,18.980 13.376,18.993 12.160 C 19.010 10.607,18.946 9.968,18.682 9.063 C 18.405 8.113,17.863 7.087,17.211 6.280 C 16.710 5.660,15.911 4.957,15.233 4.538 C 14.951 4.365,14.945 4.357,14.861 4.090 C 14.567 3.165,13.787 2.400,12.861 2.129 C 12.500 2.023,11.832 1.980,11.499 2.040 M16.626 16.045 C 16.257 16.239,15.951 16.673,15.951 17.000 C 15.951 17.323,16.068 17.478,17.103 18.520 L 18.077 19.500 17.103 20.480 C 16.068 21.522,15.951 21.677,15.951 22.000 C 15.951 22.477,16.523 23.049,17.000 23.049 C 17.323 23.049,17.478 22.932,18.520 21.897 L 19.500 20.923 20.480 21.897 C 21.522 22.932,21.677 23.049,22.000 23.049 C 22.477 23.049,23.049 22.477,23.049 22.000 C 23.049 21.677,22.932 21.522,21.897 20.480 L 20.923 19.500 21.897 18.520 C 22.518 17.895,22.903 17.476,22.960 17.363 C 23.137 17.011,23.048 16.646,22.701 16.299 C 22.360 15.958,21.979 15.868,21.628 16.045 C 21.527 16.096,21.072 16.515,20.480 17.103 L 19.500 18.077 18.520 17.103 C 17.927 16.514,17.474 16.096,17.372 16.045 C 17.152 15.934,16.835 15.934,16.626 16.045 " stroke="none" fill="black" fill-rule="evenodd"></path></svg>