<svg xmlns="http://www.w3.org/2000/svg" width="24" height="24" viewBox="0 0 24 24" fill="none" stroke="currentColor" stroke-width="2" stroke-linecap="round" stroke-linejoin="round" class="icon icon-tabler icons-tabler-outline icon-tabler-chart-arrows"><path d="M17.626 2.045 C 17.257 2.239,16.951 2.673,16.951 3.000 C 16.951 3.307,17.079 3.487,17.853 4.270 L 18.575 5.000 11.290 5.000 L 4.005 5.000 3.993 3.810 C 3.980 2.662,3.977 2.614,3.889 2.450 C 3.724 2.140,3.329 1.970,2.874 2.011 C 2.439 2.051,2.141 2.274,2.041 2.635 C 1.985 2.835,1.985 21.165,2.041 21.365 C 2.148 21.750,2.437 21.962,2.896 21.991 C 3.381 22.022,3.699 21.882,3.880 21.558 C 3.979 21.381,3.980 21.374,3.993 20.190 L 4.005 19.000 9.290 19.000 L 14.575 19.000 13.853 19.730 C 13.420 20.168,13.095 20.531,13.041 20.637 C 12.863 20.988,12.952 21.354,13.299 21.701 C 13.646 22.048,14.011 22.137,14.363 21.960 C 14.480 21.901,15.051 21.365,16.062 20.365 C 16.899 19.537,17.634 18.826,17.697 18.784 C 17.850 18.682,18.049 18.238,18.049 18.000 C 18.049 17.745,17.851 17.321,17.676 17.201 C 17.601 17.150,16.865 16.438,16.040 15.618 C 15.085 14.670,14.479 14.098,14.372 14.044 C 14.020 13.868,13.639 13.959,13.299 14.299 C 12.952 14.646,12.863 15.012,13.041 15.363 C 13.095 15.469,13.420 15.832,13.853 16.270 L 14.575 17.000 9.288 17.000 L 4.000 17.000 4.000 15.000 L 4.000 13.000 6.788 13.000 L 9.575 13.000 8.853 13.730 C 8.420 14.168,8.095 14.531,8.041 14.637 C 7.863 14.988,7.952 15.354,8.299 15.701 C 8.646 16.048,9.011 16.137,9.363 15.960 C 9.480 15.901,10.051 15.365,11.062 14.365 C 11.899 13.537,12.634 12.826,12.697 12.784 C 12.850 12.682,13.049 12.238,13.049 12.000 C 13.049 11.745,12.851 11.321,12.676 11.201 C 12.601 11.150,11.865 10.438,11.040 9.618 C 10.085 8.670,9.479 8.098,9.372 8.044 C 9.020 7.868,8.639 7.959,8.299 8.299 C 7.952 8.646,7.863 9.012,8.041 9.363 C 8.095 9.469,8.420 9.832,8.853 10.270 L 9.575 11.000 6.788 11.000 L 4.000 11.000 4.000 9.000 L 4.000 7.000 11.288 7.000 L 18.575 7.000 17.853 7.730 C 17.420 8.168,17.095 8.531,17.041 8.637 C 16.863 8.988,16.952 9.354,17.299 9.701 C 17.646 10.048,18.011 10.137,18.363 9.960 C 18.480 9.901,19.051 9.365,20.062 8.365 C 20.899 7.537,21.634 6.826,21.697 6.784 C 21.850 6.682,22.049 6.238,22.049 6.000 C 22.049 5.745,21.851 5.321,21.676 5.201 C 21.601 5.150,20.865 4.438,20.040 3.618 C 19.085 2.670,18.479 2.098,18.372 2.044 C 18.152 1.934,17.835 1.934,17.626 2.045 " stroke="none" fill="black" fill-rule="evenodd"></path></svg>