<svg xmlns="http://www.w3.org/2000/svg" width="24" height="24" viewBox="0 0 24 24" fill="none" stroke="currentColor" stroke-width="2" stroke-linecap="round" stroke-linejoin="round" class="icon icon-tabler icons-tabler-outline icon-tabler-code"><path d="M13.491 3.081 C 13.137 3.261,13.286 2.735,11.044 11.703 C 9.585 17.541,8.997 19.954,8.995 20.121 C 8.989 20.528,9.205 20.789,9.672 20.940 C 10.263 21.130,10.720 20.939,10.913 20.420 C 10.938 20.354,11.867 16.660,12.979 12.210 C 14.554 5.906,15.000 4.066,15.000 3.874 C 15.000 3.683,14.977 3.588,14.900 3.456 C 14.681 3.082,13.899 2.874,13.491 3.081 M6.620 7.046 C 6.385 7.167,2.154 11.408,2.039 11.637 C 1.924 11.868,1.924 12.132,2.039 12.363 C 2.164 12.612,6.388 16.836,6.637 16.961 C 6.990 17.137,7.355 17.048,7.701 16.701 C 8.048 16.354,8.137 15.989,7.960 15.637 C 7.900 15.517,7.321 14.908,6.147 13.730 L 4.422 12.000 6.147 10.270 C 7.321 9.092,7.900 8.483,7.960 8.363 C 8.137 8.011,8.048 7.646,7.701 7.299 C 7.361 6.959,6.968 6.867,6.620 7.046 M16.626 7.045 C 16.420 7.154,16.146 7.433,16.038 7.644 C 15.924 7.868,15.924 8.133,16.040 8.363 C 16.100 8.483,16.679 9.092,17.853 10.270 L 19.578 12.000 17.853 13.730 C 16.679 14.908,16.100 15.517,16.040 15.637 C 15.863 15.989,15.952 16.354,16.299 16.701 C 16.645 17.048,17.010 17.137,17.363 16.961 C 17.612 16.836,21.836 12.612,21.961 12.363 C 22.014 12.256,22.049 12.111,22.049 12.000 C 22.049 11.889,22.014 11.744,21.961 11.637 C 21.840 11.396,17.612 7.164,17.372 7.044 C 17.152 6.934,16.835 6.935,16.626 7.045 " stroke="none" fill="black" fill-rule="evenodd"></path></svg>