<svg xmlns="http://www.w3.org/2000/svg" width="24" height="24" viewBox="0 0 24 24" fill="none" stroke="currentColor" stroke-width="2" stroke-linecap="round" stroke-linejoin="round" class="icon icon-tabler icons-tabler-outline icon-tabler-map-pin-check"><path d="M11.400 2.023 C 11.323 2.032,11.089 2.059,10.880 2.083 C 8.949 2.303,7.040 3.242,5.621 4.669 C 4.230 6.068,3.354 7.847,3.075 9.840 C 3.008 10.321,3.006 11.667,3.072 12.140 C 3.304 13.803,3.917 15.258,4.953 16.600 C 5.222 16.950,9.402 21.183,9.988 21.699 C 10.572 22.214,11.172 22.458,11.860 22.459 C 12.225 22.460,12.276 22.450,12.447 22.350 C 12.722 22.188,12.859 21.893,12.859 21.460 C 12.860 20.858,12.637 20.609,11.994 20.497 C 11.809 20.464,11.595 20.397,11.503 20.343 C 11.267 20.203,6.744 15.649,6.455 15.260 C 6.094 14.773,5.903 14.462,5.682 13.992 C 4.643 11.789,4.821 9.198,6.149 7.180 C 7.230 5.537,8.824 4.484,10.800 4.111 C 11.441 3.989,12.533 3.990,13.207 4.113 C 15.476 4.525,17.372 5.981,18.342 8.057 C 19.001 9.469,19.159 11.040,18.800 12.631 C 18.658 13.259,18.652 13.437,18.763 13.665 C 18.953 14.059,19.712 14.325,20.131 14.145 C 20.296 14.074,20.499 13.860,20.575 13.678 C 20.786 13.172,20.953 12.182,20.986 11.240 C 21.072 8.797,20.103 6.373,18.343 4.630 C 16.951 3.251,15.199 2.380,13.245 2.097 C 12.831 2.037,11.681 1.991,11.400 2.023 M11.358 7.061 C 10.230 7.237,9.143 7.974,8.569 8.953 C 7.320 11.083,8.233 13.785,10.512 14.704 C 12.558 15.528,14.877 14.538,15.704 12.488 C 16.090 11.530,16.090 10.469,15.705 9.516 C 15.172 8.197,14.001 7.269,12.605 7.058 C 12.144 6.989,11.816 6.990,11.358 7.061 M12.523 9.073 C 13.262 9.266,13.850 9.924,13.967 10.690 C 14.067 11.343,13.873 11.933,13.403 12.404 C 13.002 12.807,12.547 13.000,12.000 13.000 C 11.485 13.000,11.038 12.822,10.653 12.465 C 9.323 11.229,10.189 9.005,12.000 9.005 C 12.143 9.005,12.378 9.036,12.523 9.073 M20.620 16.046 C 20.525 16.095,19.753 16.834,18.731 17.853 L 17.001 19.577 16.271 18.854 C 15.856 18.444,15.467 18.094,15.372 18.045 C 15.021 17.868,14.640 17.958,14.299 18.299 C 13.952 18.646,13.863 19.010,14.040 19.363 C 14.162 19.607,16.393 21.838,16.637 21.960 C 16.868 22.076,17.132 22.076,17.363 21.961 C 17.486 21.899,18.197 21.215,19.706 19.706 C 21.215 18.197,21.899 17.486,21.961 17.363 C 22.137 17.010,22.048 16.645,21.701 16.299 C 21.361 15.959,20.967 15.867,20.620 16.046 " stroke="none" fill="black" fill-rule="evenodd"></path></svg>