<svg xmlns="http://www.w3.org/2000/svg" width="24" height="24" viewBox="0 0 24 24" fill="none" stroke="currentColor" stroke-width="2" stroke-linecap="round" stroke-linejoin="round" class="icon icon-tabler icons-tabler-outline icon-tabler-check"><path d="M19.620 6.046 C 19.519 6.097,17.704 7.882,14.730 10.853 L 10.000 15.579 7.770 13.354 C 6.295 11.881,5.483 11.100,5.372 11.044 C 5.020 10.868,4.639 10.959,4.299 11.299 C 3.953 11.645,3.863 12.010,4.039 12.363 C 4.164 12.613,9.387 17.836,9.637 17.961 C 9.868 18.076,10.132 18.076,10.363 17.961 C 10.615 17.835,20.835 7.615,20.961 7.363 C 21.136 7.010,21.047 6.645,20.701 6.299 C 20.361 5.959,19.968 5.867,19.620 6.046 " stroke="none" fill="black" fill-rule="evenodd"></path></svg>