<svg xmlns="http://www.w3.org/2000/svg" width="24" height="24" viewBox="0 0 24 24" fill="none" stroke="currentColor" stroke-width="2" stroke-linecap="round" stroke-linejoin="round" class="icon icon-tabler icons-tabler-outline icon-tabler-cricket"><path d="M18.488 2.041 C 17.955 2.115,17.533 2.288,17.100 2.610 C 16.968 2.708,16.219 3.420,15.437 4.192 L 14.013 5.594 13.577 5.156 C 13.014 4.591,12.821 4.463,12.523 4.461 C 12.092 4.459,12.632 3.944,5.932 10.740 C 4.523 12.170,3.284 13.445,3.180 13.573 C 2.399 14.535,1.927 15.968,2.020 17.100 C 2.129 18.436,2.629 19.552,3.518 20.443 C 4.282 21.208,5.120 21.664,6.171 21.885 C 6.744 22.006,7.616 22.006,8.188 21.885 C 9.100 21.693,9.897 21.296,10.594 20.686 L 10.848 20.463 11.023 20.666 C 11.386 21.087,11.939 21.473,12.512 21.704 C 14.560 22.529,16.874 21.540,17.705 19.484 C 18.090 18.531,18.090 17.470,17.704 16.512 C 17.477 15.949,17.083 15.380,16.684 15.039 L 16.502 14.883 17.929 13.478 C 19.446 11.984,19.561 11.846,19.559 11.502 C 19.558 11.218,19.426 11.014,18.910 10.491 L 18.423 9.999 18.662 9.750 C 18.793 9.613,19.432 8.961,20.083 8.301 C 20.733 7.640,21.351 6.978,21.457 6.829 C 22.133 5.872,22.179 4.548,21.571 3.511 C 21.306 3.057,20.764 2.562,20.254 2.306 C 19.792 2.074,19.049 1.962,18.488 2.041 M19.357 4.104 C 19.540 4.181,19.783 4.415,19.891 4.620 C 19.954 4.740,19.976 4.856,19.978 5.080 C 19.980 5.343,19.965 5.406,19.860 5.587 C 19.783 5.720,19.094 6.452,17.928 7.638 C 16.655 8.933,16.092 9.532,16.038 9.651 C 15.941 9.866,15.941 10.133,16.038 10.348 C 16.082 10.445,16.317 10.724,16.596 11.011 L 17.077 11.505 16.788 11.792 L 16.499 12.079 14.209 9.789 L 11.920 7.500 12.208 7.212 L 12.496 6.924 12.990 7.405 C 13.306 7.713,13.550 7.916,13.666 7.967 C 13.925 8.081,14.160 8.071,14.400 7.933 C 14.526 7.862,15.267 7.163,16.412 6.036 C 17.409 5.054,18.275 4.219,18.336 4.179 C 18.606 4.002,19.036 3.971,19.357 4.104 M12.800 11.220 L 15.059 13.479 14.783 13.757 L 14.508 14.034 14.164 14.013 C 13.762 13.989,13.136 14.073,12.756 14.204 C 11.087 14.775,10.000 16.293,10.000 18.051 L 10.000 18.469 9.509 18.944 C 8.963 19.473,8.667 19.669,8.180 19.824 C 7.503 20.039,6.859 20.039,6.180 19.824 C 5.715 19.676,5.389 19.469,4.976 19.060 C 4.568 18.655,4.343 18.309,4.173 17.820 C 4.069 17.521,4.062 17.457,4.061 16.840 C 4.060 16.255,4.070 16.149,4.152 15.904 C 4.273 15.544,4.433 15.230,4.630 14.968 C 4.784 14.764,10.471 8.960,10.517 8.960 C 10.530 8.960,11.557 9.977,12.800 11.220 M14.420 16.064 C 14.508 16.098,14.652 16.143,14.740 16.165 C 15.110 16.257,15.580 16.686,15.798 17.131 C 16.055 17.657,16.053 18.346,15.793 18.880 C 15.638 19.198,15.227 19.625,14.930 19.775 C 14.174 20.158,13.299 20.049,12.681 19.493 C 12.435 19.273,12.160 18.872,12.160 18.735 C 12.160 18.685,12.124 18.552,12.080 18.440 C 11.869 17.904,12.087 17.105,12.583 16.598 C 13.057 16.114,13.904 15.868,14.420 16.064 " stroke="none" fill="black" fill-rule="evenodd"></path></svg>