<svg xmlns="http://www.w3.org/2000/svg" width="24" height="24" viewBox="0 0 24 24" fill="none" stroke="currentColor" stroke-width="2" stroke-linecap="round" stroke-linejoin="round" class="icon icon-tabler icons-tabler-outline icon-tabler-brand-threejs"><path d="M2.653 2.074 C 2.196 2.232,1.986 2.487,1.989 2.877 C 1.991 3.035,2.240 4.043,2.836 6.308 C 3.300 8.072,3.680 9.570,3.680 9.638 C 3.680 9.706,3.715 9.837,3.758 9.930 C 3.848 10.126,5.376 15.923,5.414 16.211 C 5.428 16.316,5.464 16.451,5.495 16.511 C 5.526 16.571,5.870 17.835,6.260 19.320 C 6.650 20.805,7.001 22.124,7.041 22.251 C 7.233 22.871,7.867 23.212,8.361 22.960 C 8.457 22.910,8.735 22.678,8.978 22.443 C 9.221 22.208,10.194 21.274,11.140 20.367 C 12.086 19.460,13.067 18.515,13.320 18.267 C 13.573 18.019,14.581 17.046,15.560 16.105 C 16.539 15.164,17.556 14.184,17.820 13.926 C 18.084 13.669,19.313 12.481,20.551 11.285 C 21.894 9.989,22.833 9.052,22.878 8.965 C 22.919 8.884,22.971 8.718,22.994 8.596 C 23.072 8.174,22.920 7.842,22.568 7.664 C 22.464 7.612,20.904 7.142,19.100 6.620 C 17.296 6.099,15.705 5.628,15.565 5.576 C 15.425 5.523,15.276 5.480,15.234 5.480 C 15.121 5.480,10.078 4.013,9.875 3.921 C 9.779 3.877,9.654 3.841,9.597 3.841 C 9.540 3.840,8.064 3.426,6.317 2.920 C 4.570 2.414,3.077 2.001,3.000 2.001 C 2.923 2.002,2.767 2.035,2.653 2.074 M5.967 4.900 C 6.766 5.131,7.450 5.333,7.487 5.350 C 7.539 5.373,7.310 5.607,6.423 6.438 C 5.802 7.020,5.277 7.501,5.257 7.507 C 5.229 7.516,4.741 5.733,4.453 4.570 C 4.441 4.520,4.449 4.480,4.472 4.480 C 4.495 4.480,5.168 4.669,5.967 4.900 M12.134 6.685 C 12.753 6.864,13.283 7.022,13.312 7.038 C 13.347 7.056,13.071 7.379,12.461 8.034 C 11.948 8.584,11.550 8.980,11.540 8.951 C 11.520 8.895,10.920 6.406,10.920 6.378 C 10.920 6.339,11.049 6.372,12.134 6.685 M9.300 8.223 C 9.485 8.990,9.633 9.620,9.628 9.624 C 9.624 9.628,8.965 9.469,8.165 9.270 L 6.709 8.910 7.184 8.465 C 7.446 8.220,7.948 7.747,8.300 7.414 C 8.652 7.081,8.945 6.813,8.952 6.819 C 8.958 6.825,9.115 7.457,9.300 8.223 M18.412 8.503 C 19.297 8.759,20.025 8.972,20.032 8.979 C 20.049 8.996,17.685 11.280,17.651 11.280 C 17.634 11.279,17.415 10.564,17.165 9.690 C 16.914 8.815,16.700 8.074,16.688 8.043 C 16.672 8.002,16.686 7.994,16.735 8.013 C 16.774 8.027,17.528 8.248,18.412 8.503 M15.200 10.091 C 15.427 10.877,15.603 11.531,15.591 11.542 C 15.573 11.561,13.020 10.673,12.887 10.602 C 12.850 10.582,13.124 10.261,13.786 9.547 C 14.524 8.750,14.744 8.536,14.763 8.590 C 14.777 8.628,14.974 9.304,15.200 10.091 M7.693 11.212 L 9.166 11.581 8.055 12.776 C 7.125 13.775,6.938 13.958,6.912 13.895 C 6.871 13.800,6.120 10.942,6.120 10.884 C 6.120 10.860,6.143 10.841,6.170 10.841 C 6.197 10.842,6.883 11.009,7.693 11.212 M14.393 13.265 L 15.286 13.580 14.353 14.490 C 13.840 14.991,13.356 15.453,13.278 15.517 L 13.136 15.634 12.782 14.147 C 12.588 13.329,12.420 12.637,12.410 12.609 C 12.399 12.579,12.617 12.638,12.945 12.754 C 13.250 12.862,13.902 13.092,14.393 13.265 M10.861 14.714 C 11.051 15.513,11.200 16.173,11.193 16.180 C 11.169 16.202,8.320 15.461,8.330 15.435 C 8.336 15.421,8.817 14.895,9.400 14.266 C 10.230 13.371,10.466 13.137,10.488 13.191 C 10.503 13.229,10.671 13.914,10.861 14.714 M9.250 17.762 C 9.970 17.946,10.560 18.108,10.560 18.122 C 10.560 18.154,8.552 20.085,8.536 20.069 C 8.520 20.053,7.840 17.470,7.840 17.426 C 7.840 17.407,7.862 17.400,7.890 17.410 C 7.918 17.420,8.530 17.579,9.250 17.762 " stroke="none" fill="black" fill-rule="evenodd"></path></svg>