<svg xmlns="http://www.w3.org/2000/svg" width="24" height="24" viewBox="0 0 24 24" fill="none" stroke="currentColor" stroke-width="2" stroke-linecap="round" stroke-linejoin="round" class="icon icon-tabler icons-tabler-outline icon-tabler-parentheses"><path d="M6.647 3.021 C 6.260 3.189,5.198 4.608,4.567 5.801 C 3.787 7.274,3.276 8.954,3.101 10.614 C 3.023 11.361,3.023 12.639,3.101 13.386 C 3.379 16.032,4.480 18.599,6.191 20.586 C 6.574 21.032,6.924 21.148,7.336 20.966 C 7.560 20.867,7.902 20.532,7.987 20.330 C 8.137 19.972,8.053 19.721,7.593 19.148 C 6.241 17.463,5.445 15.648,5.133 13.540 C 5.033 12.861,5.033 11.139,5.133 10.460 C 5.445 8.352,6.241 6.537,7.593 4.852 C 7.791 4.606,7.973 4.341,7.999 4.264 C 8.113 3.917,8.031 3.627,7.732 3.329 C 7.391 2.988,6.987 2.873,6.647 3.021 M16.652 3.043 C 16.249 3.243,15.948 3.639,15.953 3.964 C 15.957 4.235,16.035 4.388,16.407 4.852 C 17.715 6.480,18.534 8.319,18.846 10.326 C 18.923 10.817,18.936 11.060,18.936 12.000 C 18.936 12.940,18.923 13.183,18.846 13.674 C 18.534 15.681,17.715 17.520,16.407 19.148 C 16.035 19.612,15.957 19.765,15.953 20.036 C 15.946 20.495,16.531 21.047,17.024 21.047 C 17.411 21.047,17.666 20.824,18.383 19.859 C 19.414 18.473,20.156 16.894,20.578 15.189 C 20.854 14.075,20.959 13.194,20.959 12.000 C 20.959 10.806,20.854 9.925,20.578 8.811 C 20.145 7.060,19.406 5.507,18.313 4.049 C 17.845 3.426,17.540 3.101,17.344 3.019 C 17.142 2.935,16.851 2.945,16.652 3.043 " stroke="none" fill="black" fill-rule="evenodd"></path></svg>