<svg xmlns="http://www.w3.org/2000/svg" width="24" height="24" viewBox="0 0 24 24" fill="none" stroke="currentColor" stroke-width="2" stroke-linecap="round" stroke-linejoin="round" class="icon icon-tabler icons-tabler-outline icon-tabler-bat"><path d="M8.595 3.040 C 8.515 3.083,8.377 3.200,8.288 3.301 C 8.004 3.623,8.000 3.654,8.000 5.427 L 8.000 7.000 7.798 7.000 C 7.538 7.000,7.035 6.896,6.780 6.789 C 6.185 6.540,5.573 5.988,4.987 5.170 C 4.578 4.600,4.408 4.470,4.067 4.467 C 3.679 4.463,3.350 4.684,2.881 5.260 C 1.983 6.365,1.438 7.698,1.223 9.320 C 1.086 10.346,0.965 13.046,1.040 13.362 C 1.108 13.642,1.310 13.851,1.597 13.936 C 1.890 14.022,2.078 14.017,2.437 13.911 C 2.829 13.795,3.552 13.788,3.860 13.896 C 4.839 14.240,5.516 14.949,5.976 16.113 C 6.253 16.814,6.482 17.000,7.069 17.000 C 7.785 17.000,8.521 17.151,9.038 17.406 C 9.755 17.758,10.391 18.630,10.921 19.988 C 11.147 20.567,11.211 20.686,11.374 20.830 C 11.634 21.057,11.877 21.084,12.336 20.934 C 12.663 20.827,12.832 20.619,13.055 20.048 C 13.614 18.620,14.231 17.765,14.964 17.404 C 15.479 17.151,16.216 17.000,16.931 17.000 C 17.518 17.000,17.747 16.814,18.024 16.113 C 18.486 14.946,19.182 14.218,20.140 13.900 C 20.433 13.803,20.967 13.780,21.280 13.852 C 21.423 13.884,21.675 13.942,21.840 13.980 C 22.086 14.037,22.171 14.041,22.311 14.003 C 22.531 13.943,22.738 13.759,22.873 13.504 C 22.977 13.305,22.980 13.285,22.972 12.660 C 22.960 11.738,22.886 10.310,22.816 9.660 C 22.623 7.855,22.075 6.436,21.118 5.260 C 20.480 4.476,20.066 4.292,19.583 4.577 C 19.376 4.699,19.235 4.852,18.917 5.300 C 18.432 5.984,17.782 6.555,17.220 6.789 C 16.966 6.896,16.462 7.000,16.204 7.000 L 16.004 7.000 15.992 5.310 C 15.980 3.651,15.978 3.617,15.891 3.453 C 15.785 3.256,15.622 3.131,15.371 3.055 C 15.136 2.985,14.893 2.985,14.690 3.057 C 14.601 3.088,13.960 3.493,13.265 3.957 L 12.000 4.801 10.733 3.955 C 10.035 3.490,9.392 3.076,9.303 3.036 C 9.091 2.940,8.781 2.942,8.595 3.040 M10.816 6.412 C 11.210 6.674,11.592 6.914,11.665 6.945 C 11.835 7.016,12.165 7.016,12.334 6.945 C 12.407 6.915,12.807 6.663,13.223 6.385 L 13.980 5.880 13.991 6.990 C 14.004 8.236,13.977 8.497,13.792 8.880 C 13.639 9.197,13.228 9.624,12.930 9.775 C 12.346 10.071,11.658 10.073,11.083 9.781 C 10.816 9.646,10.449 9.297,10.281 9.017 C 10.033 8.605,10.005 8.411,10.002 7.068 C 10.000 6.124,10.010 5.881,10.050 5.905 C 10.078 5.921,10.422 6.149,10.816 6.412 M4.095 7.258 C 4.190 7.402,4.814 7.939,5.157 8.171 C 5.918 8.686,6.922 8.999,7.811 9.000 C 8.073 9.000,8.126 9.011,8.143 9.070 C 8.510 10.292,9.362 11.240,10.512 11.704 C 11.231 11.994,12.023 12.070,12.757 11.921 C 14.127 11.641,15.230 10.723,15.711 9.460 C 15.778 9.284,15.843 9.109,15.855 9.070 C 15.874 9.011,15.928 9.000,16.189 9.000 C 17.078 8.999,18.082 8.686,18.843 8.171 C 19.186 7.939,19.810 7.402,19.905 7.258 C 19.940 7.204,19.982 7.160,19.998 7.160 C 20.051 7.160,20.431 8.011,20.535 8.360 C 20.745 9.067,20.862 9.931,20.906 11.084 L 20.932 11.787 20.573 11.813 C 19.511 11.888,18.615 12.273,17.732 13.033 C 17.283 13.419,16.671 14.240,16.413 14.802 L 16.311 15.024 15.896 15.073 C 14.302 15.262,13.119 15.977,12.229 17.289 C 12.114 17.458,12.011 17.598,11.999 17.599 C 11.988 17.599,11.885 17.460,11.771 17.290 C 10.897 15.987,9.698 15.262,8.101 15.073 C 7.690 15.024,7.682 15.021,7.635 14.901 C 7.541 14.663,7.158 14.043,6.919 13.741 C 5.982 12.563,4.800 11.910,3.427 11.813 L 3.068 11.787 3.094 11.084 C 3.138 9.931,3.255 9.067,3.465 8.360 C 3.569 8.011,3.949 7.160,4.002 7.160 C 4.018 7.160,4.060 7.204,4.095 7.258 " stroke="none" fill="black" fill-rule="evenodd"></path></svg>