<svg xmlns="http://www.w3.org/2000/svg" width="24" height="24" viewBox="0 0 24 24" fill="none" stroke="currentColor" stroke-width="2" stroke-linecap="round" stroke-linejoin="round" class="icon icon-tabler icons-tabler-outline icon-tabler-highlight-off"><path d="M2.626 2.045 C 2.420 2.154,2.146 2.433,2.038 2.644 C 1.924 2.867,1.924 3.132,2.039 3.363 C 2.102 3.487,2.942 4.356,4.854 6.270 L 7.579 9.000 4.874 11.710 C 3.386 13.201,2.135 14.483,2.094 14.560 C 2.024 14.692,2.020 14.840,2.020 17.040 L 2.020 19.380 2.120 19.558 C 2.232 19.758,2.417 19.900,2.645 19.961 C 2.744 19.988,3.595 19.999,5.049 19.991 C 7.150 19.981,7.309 19.975,7.440 19.906 C 7.517 19.865,8.800 18.614,10.290 17.126 L 13.000 14.421 13.790 15.210 L 14.579 15.999 13.374 17.210 C 12.711 17.875,12.135 18.483,12.095 18.560 C 12.040 18.664,12.021 18.787,12.020 19.040 C 12.020 19.329,12.035 19.407,12.120 19.558 C 12.230 19.755,12.414 19.898,12.635 19.959 C 12.726 19.985,13.860 20.000,15.678 20.000 L 18.576 20.000 19.518 20.935 C 20.114 21.526,20.525 21.903,20.637 21.960 C 20.989 22.137,21.354 22.048,21.701 21.701 C 22.048 21.354,22.137 20.989,21.959 20.637 C 21.888 20.496,20.623 19.155,19.748 18.293 C 19.700 18.245,16.033 14.588,11.600 10.167 C 6.038 4.619,3.488 2.102,3.372 2.044 C 3.152 1.934,2.834 1.935,2.626 2.045 M14.866 2.719 C 14.347 2.814,13.785 3.047,13.300 3.371 C 13.164 3.462,12.426 4.164,11.592 4.996 C 10.033 6.550,9.963 6.637,9.961 6.997 C 9.960 7.229,10.075 7.460,10.307 7.693 C 10.649 8.034,10.995 8.122,11.353 7.960 C 11.459 7.912,11.717 7.693,12.013 7.402 L 12.500 6.923 13.789 8.210 L 15.077 9.497 14.604 9.979 C 14.344 10.244,14.090 10.541,14.041 10.638 C 13.863 10.988,13.951 11.354,14.299 11.701 C 14.646 12.048,15.011 12.137,15.363 11.960 C 15.570 11.856,18.102 9.360,18.495 8.872 C 18.784 8.513,19.035 8.028,19.188 7.531 C 19.287 7.208,19.296 7.126,19.296 6.500 C 19.296 5.873,19.287 5.792,19.186 5.460 C 18.785 4.143,17.843 3.205,16.532 2.816 C 16.243 2.731,16.079 2.710,15.620 2.698 C 15.312 2.690,14.973 2.700,14.866 2.719 M15.980 4.734 C 16.297 4.819,16.520 4.953,16.784 5.216 C 17.163 5.596,17.319 5.969,17.320 6.503 C 17.320 7.021,17.155 7.403,16.745 7.832 L 16.504 8.084 15.212 6.792 L 13.921 5.501 14.131 5.289 C 14.542 4.871,14.955 4.686,15.480 4.683 C 15.645 4.682,15.870 4.705,15.980 4.734 M10.300 11.720 L 11.580 13.000 10.040 14.540 L 8.500 16.080 7.210 14.790 L 5.920 13.500 7.450 11.970 C 8.291 11.129,8.989 10.440,9.000 10.440 C 9.011 10.440,9.596 11.016,10.300 11.720 M18.614 14.057 C 18.377 14.131,18.212 14.261,18.109 14.453 C 18.035 14.592,18.020 14.684,18.020 15.000 C 18.020 15.331,18.033 15.403,18.120 15.558 C 18.230 15.755,18.414 15.898,18.635 15.959 C 18.715 15.981,19.055 16.000,19.390 16.000 L 20.000 16.000 20.000 16.610 C 20.000 16.945,20.019 17.285,20.041 17.365 C 20.148 17.750,20.437 17.962,20.896 17.991 C 21.381 18.022,21.699 17.882,21.880 17.558 L 21.980 17.380 21.980 16.000 C 21.980 14.650,21.978 14.616,21.891 14.453 C 21.785 14.256,21.622 14.131,21.371 14.055 C 21.117 13.979,18.859 13.981,18.614 14.057 M6.831 17.749 L 6.582 18.000 5.291 18.000 L 4.000 18.000 4.000 16.711 L 4.000 15.422 4.249 15.171 L 4.499 14.919 5.789 16.209 L 7.079 17.499 6.831 17.749 M16.300 17.720 L 16.578 18.000 16.000 18.000 L 15.422 18.000 15.700 17.720 C 15.853 17.566,15.988 17.440,16.000 17.440 C 16.012 17.440,16.147 17.566,16.300 17.720 " stroke="none" fill="black" fill-rule="evenodd"></path></svg>