<svg xmlns="http://www.w3.org/2000/svg" width="24" height="24" viewBox="0 0 24 24" fill="none" stroke="currentColor" stroke-width="2" stroke-linecap="round" stroke-linejoin="round" class="icon icon-tabler icons-tabler-outline icon-tabler-navigation-down"><path d="M11.731 2.038 C 11.482 2.128,11.312 2.242,11.205 2.394 C 11.094 2.549,3.206 19.639,3.088 19.980 C 2.808 20.787,3.255 21.654,4.091 21.923 C 4.583 22.082,4.491 22.107,8.674 20.686 C 10.749 19.980,12.525 19.358,12.621 19.302 C 12.969 19.098,13.095 18.757,12.983 18.320 C 12.896 17.978,12.752 17.742,12.551 17.609 C 12.405 17.513,12.349 17.500,12.083 17.504 C 11.796 17.507,11.614 17.564,8.620 18.585 C 6.882 19.178,5.455 19.651,5.449 19.638 C 5.434 19.606,11.971 5.440,12.000 5.440 C 12.012 5.440,12.849 7.232,13.860 9.423 C 15.055 12.013,15.743 13.459,15.828 13.558 C 15.899 13.641,16.019 13.739,16.095 13.775 C 16.409 13.924,16.924 13.808,17.261 13.510 C 17.546 13.260,17.621 13.002,17.518 12.629 C 17.444 12.365,12.841 2.426,12.725 2.282 C 12.577 2.098,12.309 1.960,12.104 1.961 C 12.014 1.962,11.846 1.997,11.731 2.038 M18.614 15.057 C 18.377 15.131,18.212 15.261,18.109 15.453 C 18.021 15.618,18.020 15.640,18.009 17.596 L 17.997 19.572 17.269 18.852 C 16.856 18.443,16.467 18.094,16.372 18.045 C 16.021 17.868,15.640 17.958,15.299 18.299 C 14.952 18.646,14.863 19.011,15.040 19.363 C 15.099 19.480,15.635 20.051,16.635 21.062 C 17.463 21.899,18.174 22.634,18.216 22.697 C 18.318 22.850,18.762 23.049,19.000 23.049 C 19.238 23.049,19.682 22.850,19.784 22.697 C 19.826 22.634,20.537 21.899,21.365 21.062 C 22.365 20.051,22.901 19.480,22.960 19.363 C 23.137 19.011,23.048 18.646,22.701 18.299 C 22.360 17.958,21.979 17.868,21.628 18.045 C 21.533 18.094,21.144 18.443,20.732 18.851 L 20.004 19.572 19.992 17.596 C 19.980 15.640,19.979 15.618,19.891 15.453 C 19.842 15.362,19.746 15.247,19.678 15.199 C 19.414 15.010,18.957 14.950,18.614 15.057 " stroke="none" fill="black" fill-rule="evenodd"></path></svg>