<svg xmlns="http://www.w3.org/2000/svg" width="24" height="24" viewBox="0 0 24 24" fill="none" stroke="currentColor" stroke-width="2" stroke-linecap="round" stroke-linejoin="round" class="icon icon-tabler icons-tabler-outline icon-tabler-arrow-elbow-right"><path d="M2.626 7.045 C 2.420 7.154,2.146 7.433,2.038 7.644 C 1.924 7.867,1.924 8.132,2.039 8.363 C 2.165 8.614,11.386 17.835,11.637 17.961 C 11.868 18.076,12.132 18.076,12.363 17.961 C 12.489 17.898,13.620 16.794,16.270 14.147 L 20.000 10.421 20.000 12.320 C 20.000 13.470,20.016 14.277,20.041 14.365 C 20.148 14.750,20.437 14.962,20.896 14.991 C 21.381 15.022,21.699 14.882,21.880 14.558 L 21.980 14.380 22.007 11.220 C 22.022 9.482,22.035 8.001,22.037 7.929 C 22.041 7.739,21.835 7.310,21.688 7.206 C 21.370 6.979,21.538 6.989,18.028 6.997 C 14.592 7.006,14.593 7.006,14.322 7.199 C 14.100 7.357,14.020 7.568,14.020 8.000 C 14.020 8.331,14.033 8.403,14.120 8.558 C 14.230 8.755,14.414 8.898,14.635 8.959 C 14.723 8.984,15.531 9.000,16.680 9.000 L 18.580 9.000 15.290 12.290 L 12.000 15.580 7.770 11.354 C 4.885 8.472,3.486 7.101,3.372 7.044 C 3.152 6.934,2.835 6.935,2.626 7.045 " stroke="none" fill="black" fill-rule="evenodd"></path></svg>