<svg xmlns="http://www.w3.org/2000/svg" width="24" height="24" viewBox="0 0 24 24" fill="none" stroke="currentColor" stroke-width="2" stroke-linecap="round" stroke-linejoin="round" class="icon icon-tabler icons-tabler-outline icon-tabler-pilcrow-left"><path d="M8.358 2.061 C 7.230 2.237,6.143 2.974,5.569 3.953 C 4.320 6.083,5.233 8.785,7.512 9.704 C 8.059 9.924,8.521 10.000,9.316 10.000 L 10.000 10.000 10.000 12.110 C 10.000 13.400,10.016 14.276,10.041 14.365 C 10.148 14.750,10.437 14.962,10.896 14.991 C 11.381 15.022,11.699 14.882,11.880 14.558 L 11.980 14.380 11.991 9.190 L 12.001 4.000 13.001 4.000 L 14.000 4.000 14.000 9.110 C 14.000 12.410,14.015 14.271,14.041 14.365 C 14.148 14.750,14.437 14.962,14.896 14.991 C 15.381 15.022,15.699 14.882,15.880 14.558 L 15.980 14.380 15.991 9.195 L 16.001 4.011 16.199 3.988 C 16.533 3.948,16.752 3.807,16.893 3.540 C 17.017 3.305,17.016 2.691,16.890 2.453 C 16.786 2.256,16.623 2.131,16.371 2.055 C 16.107 1.976,8.870 1.981,8.358 2.061 M10.000 6.000 L 10.000 8.000 9.368 8.000 C 8.460 8.000,8.112 7.892,7.653 7.465 C 6.665 6.547,6.829 4.981,7.987 4.279 C 8.341 4.065,8.640 4.005,9.370 4.002 L 10.000 4.000 10.000 6.000 M5.620 14.046 C 5.528 14.094,4.826 14.758,3.960 15.618 C 3.135 16.438,2.399 17.150,2.324 17.201 C 2.149 17.321,1.951 17.745,1.951 18.000 C 1.951 18.238,2.150 18.682,2.303 18.784 C 2.366 18.826,3.101 19.537,3.938 20.365 C 4.949 21.365,5.520 21.901,5.637 21.960 C 5.989 22.137,6.354 22.048,6.701 21.701 C 7.048 21.354,7.137 20.988,6.959 20.637 C 6.905 20.531,6.580 20.168,6.147 19.730 L 5.425 19.000 13.322 19.000 C 18.490 19.000,21.270 18.986,21.365 18.959 C 21.586 18.898,21.770 18.755,21.880 18.558 C 21.967 18.402,21.980 18.332,21.979 18.000 C 21.978 17.567,21.898 17.355,21.678 17.199 C 21.386 16.991,21.772 17.000,13.306 17.000 L 5.425 17.000 6.147 16.270 C 6.580 15.832,6.905 15.469,6.959 15.363 C 7.137 15.012,7.048 14.646,6.701 14.299 C 6.361 13.959,5.967 13.867,5.620 14.046 " stroke="none" fill="black" fill-rule="evenodd"></path></svg>