<svg xmlns="http://www.w3.org/2000/svg" width="24" height="24" viewBox="0 0 24 24" fill="none" stroke="currentColor" stroke-width="2" stroke-linecap="round" stroke-linejoin="round" class="icon icon-tabler icons-tabler-outline icon-tabler-first-aid-kit-off"><path d="M2.626 2.045 C 2.420 2.154,2.146 2.433,2.038 2.644 C 1.924 2.868,1.924 3.133,2.040 3.363 C 2.100 3.483,2.682 4.095,3.864 5.280 L 5.599 7.021 5.277 7.093 C 4.289 7.315,3.435 8.132,3.114 9.160 L 3.020 9.460 3.020 14.000 L 3.020 18.540 3.114 18.840 C 3.422 19.827,4.173 20.578,5.160 20.886 L 5.460 20.980 12.020 20.980 L 18.580 20.980 18.940 20.854 L 19.300 20.727 19.880 21.298 C 20.205 21.617,20.538 21.908,20.637 21.959 C 20.988 22.137,21.353 22.049,21.701 21.701 C 22.048 21.354,22.137 20.990,21.961 20.637 C 21.898 20.513,20.830 19.412,18.353 16.920 C 16.418 14.973,14.795 13.340,14.747 13.292 C 14.699 13.243,14.255 12.799,13.760 12.305 C 13.265 11.811,12.815 11.361,12.760 11.306 C 12.705 11.250,11.805 10.350,10.760 9.306 C 9.715 8.261,8.815 7.361,8.760 7.305 C 8.705 7.250,7.508 6.062,6.100 4.667 C 4.415 2.996,3.482 2.100,3.372 2.044 C 3.152 1.934,2.835 1.935,2.626 2.045 M9.513 3.040 C 9.176 3.099,8.864 3.204,8.601 3.347 C 8.025 3.661,7.618 4.094,7.547 4.468 C 7.459 4.929,8.099 5.638,8.603 5.640 C 8.782 5.640,9.042 5.511,9.302 5.291 C 9.656 4.993,9.589 5.000,11.978 5.000 C 14.414 5.000,14.391 4.997,14.697 5.303 C 14.948 5.554,15.000 5.751,15.000 6.447 L 15.000 7.000 13.406 7.000 C 11.710 7.000,11.584 7.012,11.322 7.199 C 11.100 7.357,11.020 7.568,11.020 8.000 C 11.020 8.331,11.033 8.403,11.120 8.558 C 11.230 8.755,11.414 8.898,11.635 8.959 C 11.727 8.985,12.947 9.000,14.943 9.000 C 18.532 9.000,18.382 8.988,18.697 9.303 C 19.012 9.618,19.000 9.468,19.000 13.057 C 19.000 15.053,19.015 16.273,19.041 16.365 C 19.148 16.750,19.437 16.962,19.896 16.991 C 20.381 17.022,20.699 16.882,20.880 16.558 L 20.980 16.380 20.980 12.920 L 20.980 9.460 20.886 9.160 C 20.580 8.179,19.819 7.415,18.861 7.126 C 18.585 7.043,18.433 7.027,17.775 7.010 L 17.009 6.991 16.990 6.205 C 16.974 5.536,16.958 5.379,16.882 5.140 C 16.573 4.174,15.820 3.422,14.861 3.122 L 14.540 3.022 12.120 3.015 C 10.789 3.011,9.616 3.022,9.513 3.040 M9.290 10.710 L 11.000 12.420 11.000 12.710 L 11.000 13.000 10.406 13.000 C 9.577 13.000,9.300 13.097,9.109 13.453 C 9.035 13.592,9.020 13.684,9.020 14.000 C 9.020 14.331,9.033 14.403,9.120 14.558 C 9.230 14.755,9.414 14.898,9.635 14.959 C 9.715 14.981,10.055 15.000,10.390 15.000 L 11.000 15.000 11.000 15.610 C 11.000 15.945,11.019 16.285,11.041 16.365 C 11.148 16.750,11.437 16.962,11.896 16.991 C 12.381 17.022,12.699 16.882,12.880 16.558 C 12.974 16.391,12.981 16.338,12.994 15.690 L 13.008 15.000 13.294 15.000 L 13.580 15.000 15.580 17.000 L 17.580 19.001 11.640 18.990 L 5.700 18.980 5.516 18.872 C 5.415 18.813,5.284 18.700,5.225 18.623 C 4.990 18.315,5.000 18.515,5.000 14.022 C 5.000 9.356,4.983 9.624,5.304 9.303 C 5.573 9.033,5.701 9.006,6.720 9.003 L 7.580 9.000 9.290 10.710 " stroke="none" fill="black" fill-rule="evenodd"></path></svg>