<svg xmlns="http://www.w3.org/2000/svg" width="24" height="24" viewBox="0 0 24 24" fill="none" stroke="currentColor" stroke-width="2" stroke-linecap="round" stroke-linejoin="round" class="icon icon-tabler icons-tabler-outline icon-tabler-walk"><path d="M12.477 2.073 C 11.806 2.249,11.238 2.823,11.060 3.508 C 10.941 3.962,11.003 4.492,11.225 4.930 C 11.361 5.199,11.801 5.639,12.070 5.775 C 12.659 6.073,13.341 6.073,13.930 5.775 C 14.196 5.640,14.638 5.200,14.771 4.937 C 14.994 4.498,15.052 4.007,14.940 3.529 C 14.858 3.182,14.720 2.927,14.465 2.653 C 14.074 2.232,13.560 2.005,13.000 2.005 C 12.857 2.005,12.622 2.036,12.477 2.073 M11.540 7.060 C 11.452 7.093,10.528 7.335,9.487 7.597 C 8.051 7.958,7.556 8.099,7.437 8.177 C 7.314 8.258,7.039 8.642,6.194 9.909 C 5.597 10.803,5.076 11.609,5.035 11.698 C 4.944 11.898,4.939 12.204,5.024 12.382 C 5.111 12.567,5.402 12.826,5.652 12.942 C 6.040 13.123,6.400 13.049,6.683 12.732 C 6.758 12.647,7.223 11.971,7.716 11.229 C 8.548 9.976,8.623 9.877,8.756 9.842 C 9.447 9.660,10.726 9.353,10.740 9.366 C 10.749 9.376,10.585 10.409,10.375 11.662 C 9.978 14.032,9.964 14.175,10.103 14.448 C 10.139 14.521,10.850 15.264,11.681 16.100 L 13.193 17.620 14.193 19.623 C 14.743 20.724,15.243 21.685,15.305 21.758 C 15.445 21.925,15.689 22.038,15.908 22.039 C 16.290 22.041,16.807 21.737,16.960 21.420 C 17.138 21.052,17.132 21.035,15.933 18.620 L 14.861 16.460 13.466 15.055 L 12.072 13.649 12.362 11.895 C 12.522 10.930,12.659 10.132,12.667 10.123 C 12.675 10.113,13.073 10.495,13.552 10.970 C 14.188 11.602,14.471 11.856,14.602 11.912 C 14.902 12.040,17.809 12.992,17.985 13.020 C 18.471 13.096,18.876 12.728,19.000 12.097 C 19.088 11.647,18.907 11.319,18.460 11.119 C 18.328 11.059,17.616 10.810,16.879 10.565 L 15.538 10.119 14.219 8.788 C 13.493 8.056,12.871 7.413,12.835 7.358 C 12.799 7.303,12.673 7.206,12.555 7.141 C 12.379 7.045,12.284 7.022,12.020 7.012 C 11.802 7.003,11.649 7.018,11.540 7.060 M9.535 16.090 C 9.377 16.195,9.032 16.629,7.731 18.360 C 6.846 19.537,6.085 20.576,6.041 20.670 C 5.937 20.888,5.935 21.195,6.037 21.394 C 6.211 21.735,6.696 22.039,7.065 22.040 C 7.459 22.040,7.487 22.010,9.265 19.643 C 10.148 18.468,10.909 17.428,10.955 17.332 C 11.063 17.110,11.066 16.809,10.963 16.606 C 10.789 16.265,10.304 15.961,9.935 15.960 C 9.769 15.960,9.691 15.985,9.535 16.090 " stroke="none" fill="black" fill-rule="evenodd"></path></svg>