<svg xmlns="http://www.w3.org/2000/svg" width="24" height="24" viewBox="0 0 24 24" fill="none" stroke="currentColor" stroke-width="2" stroke-linecap="round" stroke-linejoin="round" class="icon icon-tabler icons-tabler-outline icon-tabler-adjustments-x"><path d="M5.614 3.057 C 5.377 3.131,5.212 3.261,5.109 3.453 C 5.022 3.617,5.020 3.656,5.000 5.387 L 4.980 7.153 4.660 7.317 C 3.919 7.698,3.363 8.360,3.114 9.160 C 2.979 9.594,2.979 10.406,3.114 10.840 C 3.365 11.645,3.931 12.318,4.670 12.688 L 5.000 12.853 5.000 16.537 C 5.000 18.881,5.015 20.273,5.041 20.365 C 5.148 20.750,5.437 20.962,5.896 20.991 C 6.381 21.022,6.699 20.882,6.880 20.558 L 6.980 20.380 7.000 16.613 L 7.020 12.845 7.340 12.684 C 8.072 12.314,8.637 11.640,8.886 10.840 C 9.021 10.406,9.021 9.594,8.886 9.160 C 8.637 8.360,8.081 7.698,7.340 7.317 L 7.020 7.153 7.000 5.387 C 6.980 3.656,6.978 3.617,6.891 3.453 C 6.842 3.362,6.746 3.247,6.678 3.199 C 6.414 3.010,5.957 2.950,5.614 3.057 M11.614 3.057 C 11.377 3.131,11.212 3.261,11.109 3.453 L 11.020 3.620 11.009 8.406 L 10.999 13.192 10.889 13.219 C 10.685 13.270,10.152 13.619,9.895 13.870 C 9.449 14.304,9.189 14.793,9.057 15.443 C 8.791 16.754,9.493 18.140,10.710 18.707 L 11.000 18.842 11.000 19.531 C 11.000 19.910,11.019 20.285,11.041 20.365 C 11.148 20.750,11.437 20.962,11.896 20.991 C 12.381 21.022,12.699 20.882,12.880 20.558 C 12.975 20.388,12.981 20.344,12.994 19.611 L 13.007 18.843 13.310 18.691 C 13.879 18.407,14.159 18.052,14.109 17.678 C 14.062 17.330,13.763 16.888,13.468 16.732 C 13.395 16.694,13.245 16.664,13.118 16.662 C 12.935 16.660,12.843 16.687,12.602 16.813 C 12.239 17.003,11.979 17.039,11.681 16.940 C 10.991 16.711,10.782 15.805,11.303 15.299 C 11.763 14.852,12.401 14.916,12.838 15.453 C 13.106 15.782,13.271 15.889,13.544 15.912 C 13.729 15.927,13.800 15.911,14.015 15.805 C 14.329 15.651,14.617 15.354,14.680 15.120 C 14.829 14.565,14.115 13.654,13.221 13.259 L 13.002 13.162 12.991 8.391 L 12.980 3.620 12.891 3.453 C 12.842 3.362,12.746 3.247,12.678 3.199 C 12.414 3.010,11.957 2.950,11.614 3.057 M17.614 3.057 C 17.229 3.178,17.041 3.435,17.009 3.885 L 16.990 4.150 16.665 4.316 C 15.922 4.693,15.364 5.357,15.114 6.160 C 14.979 6.594,14.979 7.406,15.114 7.840 C 15.365 8.645,15.931 9.318,16.670 9.688 L 17.000 9.853 17.000 11.537 C 17.000 12.541,17.017 13.278,17.041 13.365 C 17.148 13.750,17.437 13.962,17.896 13.991 C 18.381 14.022,18.699 13.882,18.880 13.558 L 18.980 13.380 19.000 11.613 L 19.020 9.845 19.340 9.684 C 20.072 9.314,20.637 8.640,20.886 7.840 C 21.021 7.406,21.021 6.594,20.886 6.160 C 20.636 5.357,20.078 4.693,19.335 4.316 L 19.011 4.151 18.988 3.879 C 18.961 3.561,18.853 3.323,18.678 3.199 C 18.414 3.010,17.957 2.950,17.614 3.057 M18.310 6.061 C 18.688 6.173,19.000 6.598,19.000 7.001 C 19.000 7.331,18.784 7.696,18.484 7.872 C 18.328 7.963,18.254 7.980,18.000 7.980 C 17.746 7.980,17.672 7.963,17.516 7.872 C 16.935 7.530,16.833 6.774,17.304 6.303 C 17.583 6.024,17.916 5.944,18.310 6.061 M6.310 9.061 C 6.688 9.173,7.000 9.598,7.000 10.001 C 7.000 10.331,6.784 10.696,6.484 10.872 C 6.328 10.963,6.254 10.980,6.000 10.980 C 5.746 10.980,5.672 10.963,5.516 10.872 C 4.935 10.530,4.833 9.774,5.304 9.303 C 5.583 9.024,5.916 8.944,6.310 9.061 M16.626 16.045 C 16.257 16.239,15.951 16.673,15.951 17.000 C 15.951 17.323,16.068 17.478,17.103 18.520 L 18.077 19.500 17.103 20.480 C 16.068 21.522,15.951 21.677,15.951 22.000 C 15.951 22.477,16.523 23.049,17.000 23.049 C 17.323 23.049,17.478 22.932,18.520 21.897 L 19.500 20.923 20.480 21.897 C 21.522 22.932,21.677 23.049,22.000 23.049 C 22.477 23.049,23.049 22.477,23.049 22.000 C 23.049 21.677,22.932 21.522,21.897 20.480 L 20.923 19.500 21.897 18.520 C 22.518 17.895,22.903 17.476,22.960 17.363 C 23.137 17.011,23.048 16.646,22.701 16.299 C 22.360 15.958,21.979 15.868,21.628 16.045 C 21.527 16.096,21.072 16.515,20.480 17.103 L 19.500 18.077 18.520 17.103 C 17.927 16.514,17.474 16.096,17.372 16.045 C 17.152 15.934,16.835 15.934,16.626 16.045 " stroke="none" fill="black" fill-rule="evenodd"></path></svg>