<svg xmlns="http://www.w3.org/2000/svg" width="24" height="24" viewBox="0 0 24 24" fill="none" stroke="currentColor" stroke-width="2" stroke-linecap="round" stroke-linejoin="round" class="icon icon-tabler icons-tabler-outline icon-tabler-arrow-left-right"><path d="M6.620 4.046 C 6.525 4.095,5.652 4.932,4.460 6.118 C 3.360 7.213,2.399 8.150,2.324 8.201 C 2.149 8.321,1.951 8.745,1.951 9.000 C 1.951 9.239,2.150 9.682,2.304 9.784 C 2.366 9.826,3.327 10.763,4.439 11.866 C 5.818 13.234,6.516 13.899,6.637 13.960 C 6.989 14.137,7.354 14.048,7.701 13.701 C 8.048 13.354,8.137 12.989,7.960 12.637 C 7.901 12.521,7.452 12.039,6.647 11.230 L 5.423 10.000 6.321 10.000 C 7.637 10.001,8.101 10.086,8.840 10.464 C 9.739 10.924,10.462 11.771,10.797 12.755 C 10.984 13.305,10.999 13.594,11.000 16.500 C 11.000 18.198,11.016 19.274,11.041 19.365 C 11.148 19.750,11.437 19.962,11.896 19.991 C 12.381 20.022,12.699 19.882,12.880 19.558 L 12.980 19.380 13.003 16.400 C 13.023 13.827,13.035 13.383,13.092 13.145 C 13.373 11.973,14.131 10.991,15.160 10.464 C 15.899 10.086,16.363 10.001,17.679 10.000 L 18.577 10.000 17.353 11.230 C 16.548 12.039,16.099 12.521,16.040 12.637 C 15.863 12.989,15.952 13.354,16.299 13.701 C 16.646 14.048,17.011 14.137,17.363 13.960 C 17.484 13.899,18.182 13.234,19.561 11.866 C 20.673 10.763,21.634 9.826,21.696 9.784 C 21.850 9.682,22.049 9.239,22.049 9.000 C 22.049 8.745,21.851 8.321,21.676 8.201 C 21.601 8.150,20.640 7.213,19.540 6.118 C 18.232 4.817,17.482 4.099,17.372 4.044 C 17.020 3.868,16.639 3.959,16.299 4.299 C 15.952 4.646,15.863 5.011,16.040 5.363 C 16.099 5.479,16.548 5.961,17.353 6.770 L 18.577 8.000 17.699 8.001 C 16.396 8.003,15.799 8.077,15.060 8.329 C 13.970 8.701,12.929 9.449,12.249 10.350 C 12.129 10.510,12.017 10.640,12.000 10.640 C 11.983 10.640,11.871 10.510,11.750 10.350 C 11.070 9.450,10.026 8.699,8.940 8.329 C 8.201 8.077,7.604 8.003,6.301 8.001 L 5.423 8.000 6.647 6.770 C 7.452 5.961,7.901 5.479,7.960 5.363 C 8.137 5.011,8.048 4.646,7.701 4.299 C 7.361 3.959,6.967 3.867,6.620 4.046 " stroke="none" fill="black" fill-rule="evenodd"></path></svg>