<svg xmlns="http://www.w3.org/2000/svg" width="24" height="24" viewBox="0 0 24 24" fill="none" stroke="currentColor" stroke-width="2" stroke-linecap="round" stroke-linejoin="round" class="icon icon-tabler icons-tabler-outline icon-tabler-pin-end"><path d="M3.477 4.073 C 2.806 4.249,2.238 4.823,2.060 5.508 C 2.008 5.706,2.000 6.577,2.000 12.000 C 2.000 18.828,1.988 18.462,2.225 18.930 C 2.361 19.199,2.801 19.639,3.070 19.775 C 3.532 20.009,3.315 20.000,8.478 20.000 C 11.531 20.000,13.272 19.985,13.365 19.959 C 13.586 19.898,13.770 19.755,13.880 19.558 C 13.967 19.402,13.980 19.332,13.979 19.000 C 13.978 18.567,13.898 18.355,13.678 18.199 C 13.392 17.995,13.516 18.000,8.594 18.000 L 4.000 18.000 4.000 12.000 L 4.000 6.000 12.000 6.000 L 20.000 6.000 20.000 8.610 C 20.000 10.235,20.016 11.275,20.041 11.365 C 20.148 11.750,20.437 11.962,20.896 11.991 C 21.381 12.022,21.699 11.882,21.880 11.558 L 21.980 11.380 21.991 8.592 C 22.004 5.564,22.001 5.516,21.782 5.083 C 21.646 4.816,21.297 4.449,21.017 4.281 C 20.523 3.983,21.217 4.005,12.000 4.005 C 4.321 4.005,3.721 4.009,3.477 4.073 M9.597 8.050 C 9.507 8.088,9.378 8.159,9.311 8.207 C 9.166 8.310,8.959 8.739,8.963 8.929 C 8.964 9.001,8.977 10.032,8.993 11.220 L 9.020 13.380 9.120 13.558 C 9.287 13.856,9.572 14.000,10.000 14.000 C 10.428 14.000,10.713 13.856,10.880 13.558 C 10.978 13.384,10.980 13.359,10.993 12.405 L 11.006 11.429 12.233 12.650 C 13.533 13.944,13.667 14.049,14.000 14.049 C 14.477 14.049,15.049 13.477,15.049 13.000 C 15.049 12.667,14.944 12.533,13.647 11.230 L 12.423 10.000 13.321 10.000 C 13.816 10.000,14.285 9.981,14.365 9.959 C 14.586 9.898,14.770 9.755,14.880 9.558 C 14.967 9.402,14.980 9.332,14.979 9.000 C 14.978 8.685,14.963 8.591,14.888 8.450 C 14.783 8.252,14.574 8.102,14.320 8.043 C 14.211 8.018,13.278 7.997,11.951 7.991 C 9.941 7.981,9.748 7.986,9.597 8.050 M18.499 14.040 C 17.363 14.246,16.460 15.049,16.114 16.160 C 15.979 16.594,15.979 17.406,16.114 17.840 C 16.421 18.826,17.174 19.579,18.160 19.886 C 18.594 20.021,19.406 20.021,19.840 19.886 C 20.826 19.579,21.579 18.826,21.886 17.840 C 22.021 17.406,22.021 16.594,21.886 16.160 C 21.581 15.179,20.810 14.407,19.861 14.129 C 19.500 14.023,18.832 13.980,18.499 14.040 M19.334 16.064 C 19.698 16.188,20.000 16.613,20.000 17.001 C 20.000 17.331,19.784 17.696,19.484 17.872 C 19.328 17.963,19.254 17.980,19.000 17.980 C 18.746 17.980,18.672 17.963,18.516 17.872 C 17.937 17.531,17.833 16.774,18.301 16.306 C 18.587 16.019,18.952 15.934,19.334 16.064 " stroke="none" fill="black" fill-rule="evenodd"></path></svg>