<svg xmlns="http://www.w3.org/2000/svg" width="24" height="24" viewBox="0 0 24 24" fill="none" stroke="currentColor" stroke-width="2" stroke-linecap="round" stroke-linejoin="round" class="icon icon-tabler icons-tabler-outline icon-tabler-device-mobile-bolt"><path d="M7.499 2.043 C 6.379 2.234,5.461 3.048,5.114 4.160 L 5.020 4.460 5.020 12.000 L 5.020 19.540 5.114 19.840 C 5.418 20.816,6.151 21.555,7.140 21.886 L 7.420 21.979 10.520 21.992 C 12.763 22.002,13.679 21.993,13.833 21.959 C 14.261 21.866,14.486 21.537,14.486 21.003 C 14.486 20.656,14.418 20.446,14.248 20.267 C 14.003 20.009,14.166 20.022,10.780 20.000 L 7.700 19.980 7.516 19.872 C 7.415 19.813,7.284 19.700,7.225 19.623 C 6.986 19.309,7.000 19.795,7.000 12.022 C 7.000 4.006,6.975 4.631,7.303 4.303 C 7.584 4.022,7.703 4.000,8.942 4.000 L 9.989 4.000 10.013 4.203 C 10.058 4.583,10.288 4.863,10.635 4.959 C 10.826 5.012,13.174 5.012,13.365 4.959 C 13.712 4.863,13.935 4.593,13.983 4.210 L 14.009 4.000 15.057 4.000 C 16.297 4.000,16.416 4.022,16.697 4.303 C 17.015 4.621,17.000 4.411,17.000 8.557 C 17.000 10.888,17.015 12.273,17.041 12.365 C 17.148 12.750,17.437 12.962,17.896 12.991 C 18.381 13.022,18.699 12.882,18.880 12.558 L 18.980 12.380 18.980 8.420 L 18.980 4.460 18.886 4.160 C 18.581 3.182,17.832 2.428,16.861 2.121 L 16.540 2.020 12.120 2.014 C 9.689 2.011,7.609 2.024,7.499 2.043 M18.620 15.026 C 18.554 15.061,18.448 15.137,18.385 15.195 C 18.251 15.318,16.144 18.459,16.035 18.698 C 15.944 18.898,15.939 19.204,16.024 19.382 C 16.059 19.456,16.168 19.591,16.266 19.681 C 16.585 19.975,16.597 19.978,17.930 20.000 L 19.120 20.020 18.615 20.777 C 18.033 21.649,17.962 21.788,17.961 22.054 C 17.960 22.304,18.044 22.477,18.266 22.681 C 18.749 23.127,19.289 23.155,19.665 22.754 C 19.872 22.534,21.885 19.481,21.950 19.289 C 22.073 18.929,21.941 18.385,21.686 18.204 C 21.441 18.030,21.382 18.022,20.110 18.001 L 18.880 17.980 19.385 17.223 C 19.967 16.351,20.038 16.212,20.039 15.946 C 20.040 15.696,19.956 15.523,19.734 15.319 C 19.383 14.996,18.913 14.872,18.620 15.026 M11.614 16.057 C 11.221 16.180,11.039 16.435,11.009 16.906 C 10.962 17.621,11.306 18.000,12.000 18.000 C 12.698 18.000,13.043 17.616,12.989 16.900 C 12.963 16.563,12.859 16.327,12.678 16.199 C 12.414 16.010,11.957 15.950,11.614 16.057 " stroke="none" fill="black" fill-rule="evenodd"></path></svg>