<svg xmlns="http://www.w3.org/2000/svg" width="24" height="24" viewBox="0 0 24 24" fill="none" stroke="currentColor" stroke-width="2" stroke-linecap="round" stroke-linejoin="round" class="icon icon-tabler icons-tabler-outline icon-tabler-container-off"><path d="M2.626 2.045 C 2.257 2.239,1.951 2.673,1.951 3.000 C 1.951 3.285,2.084 3.491,2.626 4.043 C 2.898 4.320,3.120 4.565,3.120 4.588 C 3.120 4.612,3.194 4.691,3.285 4.765 C 3.375 4.839,4.248 5.692,5.225 6.659 L 7.000 8.419 7.000 13.841 C 7.000 19.748,6.990 19.465,7.225 19.930 C 7.361 20.199,7.801 20.639,8.070 20.775 C 8.522 21.004,8.454 21.000,11.993 21.000 C 15.539 21.000,15.479 21.003,15.937 20.771 C 16.048 20.715,16.259 20.550,16.404 20.404 C 16.841 19.968,17.000 19.548,17.000 18.835 L 17.000 18.421 18.060 19.480 C 18.643 20.063,19.120 20.560,19.120 20.585 C 19.120 20.610,19.193 20.691,19.282 20.765 C 19.371 20.839,19.674 21.119,19.955 21.386 C 20.236 21.653,20.545 21.911,20.641 21.960 C 20.987 22.137,21.355 22.048,21.701 21.701 C 22.048 21.354,22.137 20.988,21.960 20.640 C 21.888 20.499,21.189 19.721,20.750 19.293 C 20.680 19.225,17.233 15.780,16.760 15.306 C 16.705 15.251,14.905 13.451,12.760 11.306 C 10.615 9.161,8.815 7.361,8.760 7.306 C 8.705 7.250,7.805 6.350,6.760 5.306 C 5.715 4.261,4.815 3.359,4.760 3.302 C 4.371 2.898,3.502 2.113,3.367 2.044 C 3.153 1.934,2.835 1.935,2.626 2.045 M8.530 3.061 C 7.871 3.204,7.242 3.804,7.240 4.290 C 7.240 4.373,7.277 4.521,7.323 4.618 C 7.424 4.832,7.749 5.166,7.952 5.264 C 8.244 5.405,8.681 5.322,8.896 5.084 C 8.972 5.000,8.972 5.000,11.986 5.000 L 15.000 5.000 15.000 8.610 C 15.000 10.905,15.015 12.273,15.041 12.365 C 15.148 12.750,15.437 12.962,15.896 12.991 C 16.381 13.022,16.699 12.882,16.880 12.558 L 16.980 12.380 16.991 8.590 C 17.003 4.472,17.005 4.525,16.782 4.083 C 16.646 3.816,16.297 3.449,16.017 3.281 C 15.548 2.999,15.634 3.005,12.020 3.005 C 9.443 3.006,8.729 3.017,8.530 3.061 M19.614 3.057 C 19.221 3.180,19.039 3.435,19.009 3.906 C 18.962 4.621,19.306 5.000,20.000 5.000 C 20.698 5.000,21.043 4.616,20.989 3.900 C 20.963 3.563,20.859 3.327,20.678 3.199 C 20.414 3.010,19.957 2.950,19.614 3.057 M3.614 7.057 C 3.221 7.180,3.039 7.435,3.009 7.906 C 2.962 8.621,3.306 9.000,4.000 9.000 C 4.698 9.000,5.043 8.616,4.989 7.900 C 4.963 7.563,4.859 7.327,4.678 7.199 C 4.414 7.010,3.957 6.950,3.614 7.057 M19.614 7.057 C 19.221 7.180,19.039 7.435,19.009 7.906 C 18.962 8.621,19.306 9.000,20.000 9.000 C 20.698 9.000,21.043 8.616,20.989 7.900 C 20.963 7.563,20.859 7.327,20.678 7.199 C 20.414 7.010,19.957 6.950,19.614 7.057 M15.000 17.710 L 15.000 19.000 12.000 19.000 L 9.000 19.000 9.000 14.710 L 9.000 10.420 12.000 13.420 L 15.000 16.420 15.000 17.710 M3.614 11.057 C 3.221 11.180,3.039 11.435,3.009 11.906 C 2.962 12.621,3.306 13.000,4.000 13.000 C 4.698 13.000,5.043 12.616,4.989 11.900 C 4.963 11.563,4.859 11.327,4.678 11.199 C 4.414 11.010,3.957 10.950,3.614 11.057 M19.614 11.057 C 19.221 11.180,19.039 11.435,19.009 11.906 C 18.962 12.621,19.306 13.000,20.000 13.000 C 20.698 13.000,21.043 12.616,20.989 11.900 C 20.963 11.563,20.859 11.327,20.678 11.199 C 20.414 11.010,19.957 10.950,19.614 11.057 M3.614 15.057 C 3.221 15.180,3.039 15.435,3.009 15.906 C 2.962 16.621,3.306 17.000,4.000 17.000 C 4.698 17.000,5.043 16.616,4.989 15.900 C 4.963 15.563,4.859 15.327,4.678 15.199 C 4.414 15.010,3.957 14.950,3.614 15.057 M19.614 15.057 C 19.221 15.180,19.039 15.435,19.009 15.906 C 18.962 16.621,19.306 17.000,20.000 17.000 C 20.698 17.000,21.043 16.616,20.989 15.900 C 20.963 15.563,20.859 15.327,20.678 15.199 C 20.414 15.010,19.957 14.950,19.614 15.057 M3.614 19.057 C 3.221 19.180,3.039 19.435,3.009 19.906 C 2.962 20.621,3.306 21.000,4.000 21.000 C 4.698 21.000,5.043 20.616,4.989 19.900 C 4.963 19.563,4.859 19.327,4.678 19.199 C 4.414 19.010,3.957 18.950,3.614 19.057 " stroke="none" fill="black" fill-rule="evenodd"></path></svg>