<svg xmlns="http://www.w3.org/2000/svg" width="24" height="24" viewBox="0 0 24 24" fill="none" stroke="currentColor" stroke-width="2" stroke-linecap="round" stroke-linejoin="round" class="icon icon-tabler icons-tabler-outline icon-tabler-wifi"><path d="M11.220 5.023 C 11.132 5.032,10.862 5.059,10.620 5.082 C 7.808 5.360,4.988 6.676,2.993 8.640 C 2.611 9.017,2.560 9.083,2.501 9.288 C 2.420 9.570,2.463 9.772,2.664 10.045 C 3.000 10.503,3.463 10.672,3.859 10.481 C 3.949 10.437,4.229 10.211,4.481 9.978 C 6.484 8.129,8.913 7.121,11.620 7.015 C 13.440 6.943,15.209 7.326,16.900 8.160 C 17.938 8.671,18.771 9.249,19.639 10.059 C 19.847 10.253,20.089 10.444,20.178 10.485 C 20.525 10.642,20.875 10.550,21.213 10.213 C 21.636 9.789,21.674 9.383,21.331 8.933 C 21.200 8.760,20.339 7.995,19.909 7.668 C 18.053 6.262,15.928 5.399,13.580 5.099 C 13.121 5.040,11.556 4.990,11.220 5.023 M11.320 9.025 C 9.458 9.195,7.763 9.866,6.380 10.978 C 5.604 11.603,5.280 12.004,5.280 12.340 C 5.280 12.798,5.881 13.398,6.340 13.398 C 6.586 13.398,6.788 13.283,7.222 12.896 C 7.881 12.307,8.370 11.977,9.049 11.665 C 10.046 11.205,10.878 11.025,12.000 11.025 C 13.138 11.025,13.958 11.205,14.980 11.681 C 15.673 12.003,16.118 12.305,16.794 12.912 C 17.204 13.279,17.415 13.398,17.660 13.398 C 18.144 13.398,18.761 12.753,18.710 12.300 C 18.681 12.039,18.562 11.839,18.261 11.544 C 17.177 10.479,15.707 9.658,14.216 9.284 C 13.954 9.218,13.551 9.136,13.320 9.101 C 12.908 9.039,11.676 8.992,11.320 9.025 M11.400 13.044 C 10.363 13.160,9.318 13.655,8.547 14.396 C 8.008 14.913,7.983 15.388,8.468 15.871 C 8.716 16.118,8.925 16.220,9.180 16.217 C 9.436 16.214,9.584 16.135,9.980 15.791 C 10.370 15.453,10.715 15.254,11.139 15.125 C 11.412 15.042,11.542 15.027,12.000 15.027 C 12.458 15.027,12.588 15.042,12.861 15.125 C 13.285 15.254,13.630 15.453,14.020 15.791 C 14.416 16.135,14.564 16.214,14.820 16.217 C 15.075 16.220,15.284 16.118,15.532 15.871 C 16.031 15.374,15.993 14.905,15.410 14.355 C 14.350 13.355,12.889 12.877,11.400 13.044 M11.614 17.055 C 11.220 17.184,11.039 17.437,11.009 17.900 C 10.978 18.381,11.119 18.699,11.442 18.880 C 11.597 18.967,11.669 18.980,12.000 18.980 C 12.312 18.980,12.408 18.964,12.540 18.894 C 12.866 18.718,13.000 18.459,13.000 18.000 C 13.000 17.357,12.713 17.048,12.083 17.016 C 11.893 17.006,11.718 17.021,11.614 17.055 " stroke="none" fill="black" fill-rule="evenodd"></path></svg>