<svg xmlns="http://www.w3.org/2000/svg" width="24" height="24" viewBox="0 0 24 24" fill="none" stroke="currentColor" stroke-width="2" stroke-linecap="round" stroke-linejoin="round" class="icon icon-tabler icons-tabler-outline icon-tabler-stars"><path d="M11.572 2.072 C 11.312 2.165,11.070 2.331,10.923 2.517 C 10.861 2.596,10.603 3.074,10.350 3.580 L 9.889 4.501 8.857 4.651 C 7.746 4.812,7.551 4.870,7.263 5.122 C 6.945 5.402,6.775 5.831,6.811 6.267 C 6.846 6.710,6.953 6.864,7.823 7.726 C 8.433 8.330,8.599 8.517,8.584 8.580 C 8.573 8.624,8.489 9.107,8.397 9.653 L 8.230 10.645 8.295 10.913 C 8.462 11.595,9.070 12.044,9.752 11.989 C 10.021 11.968,10.239 11.871,11.530 11.198 L 12.000 10.953 12.470 11.198 C 13.761 11.871,13.979 11.968,14.248 11.989 C 14.924 12.043,15.533 11.598,15.703 10.925 C 15.776 10.635,15.780 10.680,15.557 9.400 L 15.400 8.500 16.179 7.726 C 17.044 6.867,17.144 6.722,17.186 6.276 C 17.227 5.835,17.060 5.406,16.737 5.122 C 16.449 4.870,16.254 4.812,15.143 4.651 L 14.111 4.501 13.634 3.548 C 13.105 2.491,12.973 2.315,12.570 2.130 C 12.269 1.992,11.862 1.969,11.572 2.072 M12.321 5.405 C 12.645 6.059,12.812 6.261,13.107 6.352 C 13.191 6.378,13.536 6.439,13.872 6.487 L 14.485 6.574 13.987 7.077 C 13.712 7.354,13.459 7.638,13.423 7.709 C 13.309 7.939,13.307 8.150,13.416 8.772 C 13.473 9.097,13.520 9.390,13.520 9.423 C 13.520 9.465,13.331 9.386,12.890 9.158 C 12.291 8.848,12.247 8.832,12.000 8.832 C 11.753 8.832,11.709 8.848,11.110 9.158 C 10.617 9.412,10.480 9.468,10.480 9.415 C 10.480 9.378,10.527 9.084,10.584 8.763 C 10.693 8.150,10.692 7.939,10.577 7.709 C 10.541 7.638,10.288 7.354,10.013 7.077 L 9.515 6.574 10.128 6.487 C 10.464 6.439,10.809 6.378,10.893 6.352 C 11.188 6.261,11.355 6.059,11.679 5.405 C 11.843 5.072,11.988 4.800,12.000 4.800 C 12.012 4.800,12.157 5.072,12.321 5.405 M5.772 12.072 C 5.512 12.165,5.270 12.331,5.123 12.517 C 5.061 12.596,4.803 13.074,4.550 13.580 L 4.089 14.501 3.057 14.651 C 1.946 14.812,1.751 14.870,1.463 15.122 C 1.145 15.402,0.975 15.831,1.011 16.267 C 1.046 16.710,1.153 16.864,2.023 17.726 C 2.633 18.330,2.799 18.517,2.784 18.580 C 2.773 18.624,2.689 19.107,2.597 19.653 L 2.430 20.645 2.495 20.913 C 2.662 21.595,3.270 22.044,3.952 21.989 C 4.221 21.968,4.439 21.871,5.730 21.198 L 6.200 20.953 6.670 21.198 C 7.961 21.871,8.179 21.968,8.448 21.989 C 9.124 22.043,9.733 21.598,9.903 20.925 C 9.976 20.635,9.980 20.680,9.757 19.400 L 9.600 18.500 10.379 17.726 C 11.244 16.867,11.344 16.722,11.386 16.276 C 11.427 15.835,11.260 15.406,10.937 15.122 C 10.649 14.870,10.454 14.812,9.343 14.651 L 8.311 14.501 7.834 13.548 C 7.305 12.491,7.173 12.315,6.770 12.130 C 6.469 11.992,6.062 11.969,5.772 12.072 M17.372 12.072 C 17.112 12.165,16.870 12.331,16.723 12.517 C 16.661 12.596,16.403 13.074,16.150 13.580 L 15.689 14.501 14.657 14.651 C 13.546 14.812,13.351 14.870,13.063 15.122 C 12.745 15.402,12.575 15.831,12.611 16.267 C 12.646 16.710,12.753 16.864,13.623 17.726 C 14.233 18.330,14.399 18.517,14.384 18.580 C 14.373 18.624,14.289 19.107,14.197 19.653 L 14.030 20.645 14.095 20.913 C 14.262 21.595,14.870 22.044,15.552 21.989 C 15.821 21.968,16.039 21.871,17.330 21.198 L 17.800 20.953 18.270 21.198 C 19.561 21.871,19.779 21.968,20.048 21.989 C 20.724 22.043,21.333 21.598,21.503 20.925 C 21.576 20.635,21.580 20.680,21.357 19.400 L 21.200 18.500 21.979 17.726 C 22.844 16.867,22.944 16.722,22.986 16.276 C 23.027 15.835,22.860 15.406,22.537 15.122 C 22.249 14.870,22.054 14.812,20.943 14.651 L 19.911 14.501 19.434 13.548 C 18.905 12.491,18.773 12.315,18.370 12.130 C 18.069 11.992,17.662 11.969,17.372 12.072 M6.521 15.405 C 6.845 16.059,7.012 16.261,7.307 16.352 C 7.391 16.378,7.736 16.439,8.072 16.487 L 8.685 16.574 8.187 17.077 C 7.912 17.354,7.659 17.638,7.623 17.709 C 7.509 17.939,7.507 18.150,7.616 18.772 C 7.673 19.097,7.720 19.390,7.720 19.423 C 7.720 19.465,7.531 19.386,7.090 19.158 C 6.491 18.848,6.447 18.832,6.200 18.832 C 5.953 18.832,5.909 18.848,5.310 19.158 C 4.817 19.412,4.680 19.468,4.680 19.415 C 4.680 19.378,4.727 19.084,4.784 18.763 C 4.893 18.150,4.892 17.939,4.777 17.709 C 4.741 17.638,4.488 17.354,4.213 17.077 L 3.715 16.574 4.328 16.487 C 4.664 16.439,5.009 16.378,5.093 16.352 C 5.388 16.261,5.555 16.059,5.879 15.405 C 6.043 15.072,6.188 14.800,6.200 14.800 C 6.212 14.800,6.357 15.072,6.521 15.405 M18.121 15.405 C 18.445 16.059,18.612 16.261,18.907 16.352 C 18.991 16.378,19.336 16.439,19.672 16.487 L 20.285 16.574 19.787 17.077 C 19.512 17.354,19.259 17.638,19.223 17.709 C 19.109 17.939,19.107 18.150,19.216 18.772 C 19.273 19.097,19.320 19.390,19.320 19.423 C 19.320 19.465,19.131 19.386,18.690 19.158 C 18.091 18.848,18.047 18.832,17.800 18.832 C 17.553 18.832,17.509 18.848,16.910 19.158 C 16.417 19.412,16.280 19.468,16.280 19.415 C 16.280 19.378,16.327 19.084,16.384 18.763 C 16.493 18.150,16.492 17.939,16.377 17.709 C 16.341 17.638,16.088 17.354,15.813 17.077 L 15.315 16.574 15.928 16.487 C 16.264 16.439,16.609 16.378,16.693 16.352 C 16.988 16.261,17.155 16.059,17.479 15.405 C 17.643 15.072,17.788 14.800,17.800 14.800 C 17.812 14.800,17.957 15.072,18.121 15.405 " stroke="none" fill="black" fill-rule="evenodd"></path></svg>