<svg xmlns="http://www.w3.org/2000/svg" width="24" height="24" viewBox="0 0 24 24" fill="none" stroke="currentColor" stroke-width="2" stroke-linecap="round" stroke-linejoin="round" class="icon icon-tabler icons-tabler-outline icon-tabler-checks"><path d="M16.620 6.046 C 16.384 6.167,11.154 11.407,11.039 11.637 C 10.863 11.990,10.953 12.355,11.299 12.701 C 11.645 13.047,12.010 13.137,12.363 12.961 C 12.613 12.836,17.836 7.613,17.961 7.363 C 18.137 7.010,18.047 6.645,17.701 6.299 C 17.361 5.959,16.968 5.867,16.620 6.046 M21.620 6.046 C 21.519 6.097,19.704 7.882,16.730 10.853 L 12.000 15.579 9.770 13.354 C 8.295 11.881,7.483 11.100,7.372 11.044 C 7.020 10.868,6.639 10.959,6.299 11.299 C 5.953 11.645,5.863 12.010,6.039 12.363 C 6.164 12.613,11.387 17.836,11.637 17.961 C 11.868 18.076,12.132 18.076,12.363 17.961 C 12.615 17.835,22.835 7.615,22.961 7.363 C 23.136 7.010,23.047 6.645,22.701 6.299 C 22.361 5.959,21.968 5.867,21.620 6.046 M1.626 11.045 C 1.420 11.154,1.146 11.433,1.038 11.644 C 0.924 11.867,0.924 12.132,1.039 12.363 C 1.164 12.613,6.387 17.836,6.637 17.961 C 6.990 18.137,7.355 18.047,7.701 17.701 C 8.047 17.355,8.137 16.990,7.961 16.637 C 7.840 16.395,2.613 11.164,2.372 11.044 C 2.152 10.934,1.834 10.935,1.626 11.045 " stroke="none" fill="black" fill-rule="evenodd"></path></svg>