<svg xmlns="http://www.w3.org/2000/svg" width="24" height="24" viewBox="0 0 24 24" fill="none" stroke="currentColor" stroke-width="2" stroke-linecap="round" stroke-linejoin="round" class="icon icon-tabler icons-tabler-outline icon-tabler-cloud-data-connection"><path d="M11.520 3.027 C 11.242 3.056,10.580 3.209,10.303 3.308 C 9.562 3.575,8.926 3.990,8.380 4.564 C 8.028 4.933,7.838 5.200,7.636 5.610 C 7.551 5.783,7.479 5.880,7.436 5.880 C 7.287 5.880,6.642 6.095,6.325 6.250 C 4.960 6.917,4.080 8.245,4.013 9.740 C 3.964 10.854,4.370 11.889,5.178 12.705 C 5.757 13.290,6.426 13.672,7.248 13.887 C 7.558 13.968,7.692 13.975,9.290 13.990 L 11.000 14.005 11.000 14.575 L 11.000 15.145 10.670 15.313 C 10.091 15.607,9.597 16.102,9.312 16.670 L 9.147 17.000 5.980 17.000 C 2.594 17.000,2.601 17.000,2.322 17.199 C 2.100 17.357,2.020 17.568,2.020 18.000 C 2.020 18.331,2.033 18.403,2.120 18.558 C 2.230 18.755,2.414 18.898,2.635 18.959 C 2.727 18.985,3.954 19.000,5.963 19.000 L 9.147 19.000 9.312 19.330 C 9.682 20.069,10.355 20.635,11.160 20.886 C 11.594 21.021,12.406 21.021,12.840 20.886 C 13.645 20.635,14.318 20.069,14.688 19.330 L 14.853 19.000 18.037 19.000 C 20.046 19.000,21.273 18.985,21.365 18.959 C 21.586 18.898,21.770 18.755,21.880 18.558 C 21.967 18.402,21.980 18.332,21.979 18.000 C 21.978 17.567,21.898 17.355,21.678 17.199 C 21.399 17.000,21.406 17.000,18.020 17.000 L 14.853 17.000 14.688 16.670 C 14.403 16.102,13.909 15.607,13.330 15.313 L 13.000 15.145 13.000 14.575 L 13.000 14.005 15.090 13.990 C 17.373 13.973,17.286 13.981,17.916 13.721 C 18.528 13.469,19.173 12.909,19.515 12.333 C 20.696 10.346,19.600 7.788,17.346 7.272 C 17.145 7.226,16.976 7.186,16.972 7.183 C 16.968 7.180,16.945 7.052,16.921 6.899 C 16.824 6.285,16.555 5.607,16.189 5.060 C 15.968 4.730,15.361 4.140,14.980 3.885 C 14.564 3.607,14.020 3.349,13.583 3.222 C 12.985 3.049,12.111 2.966,11.520 3.027 M12.551 5.041 C 13.244 5.154,13.775 5.417,14.244 5.880 C 14.790 6.420,15.032 7.096,14.927 7.789 C 14.827 8.446,14.895 8.743,15.191 8.938 C 15.451 9.110,15.658 9.160,16.115 9.160 C 16.900 9.161,17.263 9.271,17.588 9.607 C 18.013 10.046,18.112 10.754,17.819 11.263 C 17.706 11.459,17.428 11.744,17.268 11.826 C 16.928 12.002,17.011 11.999,12.376 12.000 C 8.150 12.000,7.961 11.997,7.670 11.922 C 7.313 11.831,7.089 11.724,6.835 11.523 C 6.024 10.880,5.784 9.894,6.223 9.007 C 6.575 8.294,7.378 7.804,8.200 7.800 C 8.776 7.798,9.071 7.567,9.245 6.984 C 9.473 6.215,9.913 5.704,10.660 5.340 C 11.250 5.051,11.941 4.942,12.551 5.041 M12.310 17.061 C 12.688 17.173,13.000 17.598,13.000 18.001 C 13.000 18.331,12.784 18.696,12.484 18.872 C 12.328 18.963,12.254 18.980,12.000 18.980 C 11.746 18.980,11.672 18.963,11.516 18.872 C 10.935 18.530,10.833 17.774,11.304 17.303 C 11.583 17.024,11.916 16.944,12.310 17.061 " stroke="none" fill="black" fill-rule="evenodd"></path></svg>