<svg xmlns="http://www.w3.org/2000/svg" width="24" height="24" viewBox="0 0 24 24" fill="none" stroke="currentColor" stroke-width="2" stroke-linecap="round" stroke-linejoin="round" class="icon icon-tabler icons-tabler-outline icon-tabler-microphone-2-off"><path d="M2.626 2.045 C 2.420 2.154,2.146 2.433,2.038 2.644 C 1.924 2.867,1.924 3.132,2.039 3.363 C 2.102 3.488,3.093 4.506,5.424 6.841 C 7.237 8.656,8.720 10.154,8.720 10.171 C 8.720 10.187,7.318 11.803,5.604 13.761 C 2.295 17.544,2.313 17.520,2.114 18.160 C 2.033 18.418,2.020 18.539,2.023 19.020 C 2.026 19.508,2.039 19.620,2.128 19.887 C 2.448 20.852,3.193 21.585,4.160 21.886 C 4.594 22.021,5.406 22.021,5.840 21.886 C 6.479 21.687,6.456 21.706,10.239 18.396 C 12.197 16.682,13.813 15.280,13.829 15.280 C 13.846 15.280,15.344 16.763,17.159 18.576 C 19.494 20.907,20.512 21.898,20.637 21.961 C 20.990 22.137,21.355 22.048,21.701 21.701 C 22.047 21.355,22.136 20.990,21.961 20.637 C 21.839 20.392,3.616 2.165,3.372 2.044 C 3.152 1.934,2.834 1.935,2.626 2.045 M15.320 2.041 C 13.977 2.206,12.724 2.811,11.787 3.747 C 10.986 4.546,10.490 5.403,10.203 6.480 C 9.961 7.388,10.092 7.813,10.679 8.020 C 11.103 8.169,11.493 8.132,11.736 7.918 C 11.914 7.762,11.986 7.600,12.119 7.065 C 12.180 6.820,12.284 6.500,12.351 6.353 C 12.854 5.246,13.891 4.396,15.111 4.091 C 15.308 4.042,15.545 4.025,16.000 4.027 C 16.529 4.029,16.676 4.044,17.000 4.130 C 17.723 4.321,18.286 4.646,18.820 5.180 C 19.525 5.885,19.909 6.726,19.982 7.724 C 20.066 8.885,19.652 9.984,18.810 10.836 C 18.276 11.377,17.707 11.691,16.884 11.899 C 16.655 11.957,16.401 12.039,16.319 12.080 C 15.963 12.262,15.833 12.619,15.938 13.124 C 16.085 13.830,16.503 14.044,17.340 13.842 C 19.072 13.426,20.488 12.335,21.298 10.793 C 21.561 10.294,21.762 9.730,21.886 9.148 C 22.003 8.601,22.014 7.481,21.907 6.940 C 21.533 5.034,20.356 3.476,18.660 2.640 C 18.116 2.372,17.709 2.233,17.136 2.119 C 16.673 2.027,15.755 1.988,15.320 2.041 M11.299 12.719 C 11.985 13.405,12.403 13.852,12.379 13.873 C 11.531 14.638,5.549 19.833,5.447 19.893 C 5.218 20.028,4.763 20.017,4.514 19.871 C 3.995 19.565,3.851 18.863,4.212 18.402 C 4.399 18.164,10.136 11.606,10.160 11.603 C 10.171 11.601,10.684 12.104,11.299 12.719 " stroke="none" fill="black" fill-rule="evenodd"></path></svg>