<svg xmlns="http://www.w3.org/2000/svg" width="24" height="24" viewBox="0 0 24 24" fill="none" stroke="currentColor" stroke-width="2" stroke-linecap="round" stroke-linejoin="round" class="icon icon-tabler icons-tabler-outline icon-tabler-award"><path d="M11.540 2.023 C 10.715 2.102,10.250 2.200,9.620 2.427 C 7.452 3.207,5.779 5.052,5.223 7.275 C 5.064 7.908,5.023 8.264,5.023 9.000 C 5.023 9.977,5.150 10.675,5.484 11.541 C 5.574 11.774,5.639 11.986,5.628 12.014 C 5.617 12.042,4.902 13.287,4.039 14.782 C 3.176 16.277,2.445 17.570,2.415 17.655 C 2.249 18.124,2.473 18.558,3.006 18.799 C 3.228 18.900,3.397 18.900,4.880 18.800 C 5.529 18.756,6.136 18.720,6.230 18.720 L 6.400 18.720 7.099 20.117 C 7.483 20.885,7.852 21.576,7.919 21.653 C 8.082 21.838,8.268 21.920,8.526 21.920 C 8.800 21.920,9.180 21.746,9.343 21.547 C 9.407 21.468,10.026 20.422,10.718 19.222 C 11.410 18.022,11.986 17.040,11.999 17.040 C 12.011 17.040,12.569 17.989,13.238 19.150 C 13.907 20.311,14.516 21.353,14.591 21.467 C 14.751 21.710,14.977 21.879,15.194 21.919 C 15.478 21.971,15.923 21.801,16.146 21.555 C 16.193 21.503,16.540 20.843,16.916 20.090 L 17.600 18.720 17.770 18.720 C 17.864 18.720,18.471 18.756,19.120 18.800 C 20.877 18.918,21.033 18.909,21.298 18.676 C 21.583 18.426,21.676 17.807,21.483 17.440 C 21.431 17.341,20.715 16.094,19.892 14.668 C 19.069 13.242,18.386 12.051,18.375 12.021 C 18.363 11.990,18.428 11.771,18.518 11.533 C 18.857 10.641,18.977 9.976,18.977 9.000 C 18.977 8.056,18.876 7.462,18.573 6.620 C 17.715 4.237,15.581 2.473,13.102 2.098 C 12.726 2.041,11.813 1.997,11.540 2.023 M12.552 4.043 C 14.608 4.268,16.321 5.753,16.839 7.760 C 17.160 9.004,16.934 10.598,16.317 11.451 C 16.252 11.540,16.200 11.635,16.200 11.663 C 16.200 11.760,15.731 12.342,15.414 12.640 C 14.734 13.278,13.901 13.709,12.980 13.900 C 12.540 13.991,11.460 13.991,11.020 13.900 C 10.098 13.709,9.269 13.281,8.593 12.647 C 8.270 12.344,7.800 11.760,7.800 11.663 C 7.800 11.635,7.748 11.540,7.683 11.451 C 7.195 10.777,6.930 9.580,7.036 8.530 C 7.085 8.040,7.181 7.609,7.320 7.248 C 8.146 5.096,10.274 3.793,12.552 4.043 M7.254 14.133 C 7.827 14.647,8.276 14.957,8.910 15.274 C 9.231 15.435,9.892 15.686,10.193 15.761 C 10.288 15.785,10.360 15.819,10.353 15.837 C 10.346 15.855,9.963 16.523,9.502 17.322 L 8.664 18.775 8.259 17.951 C 8.037 17.498,7.807 17.064,7.749 16.988 C 7.507 16.671,7.279 16.638,5.969 16.726 C 5.590 16.751,5.268 16.761,5.255 16.748 C 5.232 16.726,6.878 13.840,6.913 13.840 C 6.921 13.840,7.075 13.972,7.254 14.133 M17.934 15.283 C 18.393 16.076,18.757 16.736,18.745 16.749 C 18.732 16.762,18.410 16.751,18.031 16.726 C 17.004 16.657,16.739 16.664,16.529 16.765 C 16.285 16.884,16.146 17.093,15.716 17.991 C 15.513 18.415,15.334 18.748,15.318 18.731 C 15.281 18.691,13.640 15.845,13.640 15.821 C 13.640 15.811,13.717 15.784,13.810 15.760 C 14.117 15.682,14.774 15.432,15.090 15.274 C 15.717 14.961,16.277 14.571,16.800 14.085 C 16.943 13.952,17.069 13.843,17.080 13.842 C 17.092 13.841,17.476 14.489,17.934 15.283 " stroke="none" fill="black" fill-rule="evenodd"></path></svg>