<svg xmlns="http://www.w3.org/2000/svg" width="24" height="24" viewBox="0 0 24 24" fill="none" stroke="currentColor" stroke-width="2" stroke-linecap="round" stroke-linejoin="round" class="icon icon-tabler icons-tabler-outline icon-tabler-brand-mercedes"><path d="M11.080 2.045 C 9.507 2.184,7.883 2.751,6.540 3.630 C 5.905 4.045,5.499 4.378,4.919 4.958 C 2.953 6.926,1.919 9.544,2.013 12.320 C 2.084 14.439,2.752 16.328,4.033 18.040 C 4.430 18.570,5.305 19.464,5.800 19.847 C 7.242 20.961,8.787 21.624,10.600 21.907 C 11.247 22.008,12.753 22.008,13.400 21.907 C 15.638 21.557,17.504 20.620,19.062 19.062 C 20.620 17.504,21.557 15.638,21.907 13.400 C 22.008 12.753,22.008 11.247,21.907 10.600 C 21.624 8.786,20.959 7.238,19.847 5.800 C 19.510 5.365,18.639 4.494,18.200 4.154 C 16.133 2.555,13.646 1.818,11.080 2.045 M10.998 7.790 L 10.996 11.500 8.133 13.540 C 6.558 14.662,5.200 15.631,5.114 15.694 L 4.959 15.808 4.760 15.391 C 3.907 13.605,3.775 11.427,4.403 9.502 C 4.591 8.929,4.980 8.119,5.309 7.620 C 6.465 5.866,8.313 4.600,10.340 4.177 C 10.582 4.127,10.830 4.084,10.890 4.083 L 11.000 4.080 10.998 7.790 M13.586 4.163 C 15.033 4.442,16.450 5.189,17.554 6.256 C 20.002 8.619,20.688 12.318,19.245 15.376 L 19.042 15.808 18.886 15.694 C 18.800 15.631,17.442 14.662,15.867 13.540 L 13.004 11.500 13.002 7.790 C 13.000 4.138,13.001 4.080,13.078 4.080 C 13.121 4.080,13.349 4.117,13.586 4.163 M14.945 15.335 L 17.878 17.430 17.509 17.786 C 16.883 18.390,16.272 18.814,15.471 19.200 C 13.267 20.265,10.733 20.265,8.529 19.200 C 7.728 18.814,7.117 18.390,6.491 17.786 L 6.122 17.430 9.051 15.336 C 10.662 14.185,11.987 13.242,11.996 13.241 C 12.004 13.241,13.332 14.183,14.945 15.335 " stroke="none" fill="black" fill-rule="evenodd"></path></svg>