<svg xmlns="http://www.w3.org/2000/svg" width="24" height="24" viewBox="0 0 24 24" fill="none" stroke="currentColor" stroke-width="2" stroke-linecap="round" stroke-linejoin="round" class="icon icon-tabler icons-tabler-outline icon-tabler-shirt"><path d="M8.910 3.002 C 8.701 3.036,2.903 4.958,2.580 5.100 C 2.470 5.148,2.322 5.247,2.252 5.320 C 1.996 5.583,2.000 5.532,2.000 8.517 C 2.000 10.204,2.016 11.274,2.041 11.365 C 2.102 11.586,2.245 11.770,2.442 11.880 C 2.619 11.980,2.626 11.980,3.810 11.992 L 5.000 12.004 5.000 15.634 C 5.000 19.581,4.994 19.475,5.225 19.930 C 5.361 20.199,5.801 20.639,6.070 20.775 C 6.534 21.010,6.267 21.000,12.000 21.000 C 17.733 21.000,17.466 21.010,17.930 20.775 C 18.196 20.640,18.638 20.200,18.771 19.937 C 19.005 19.476,19.000 19.574,19.000 15.624 L 19.000 12.000 20.110 12.000 C 20.730 12.000,21.284 11.982,21.365 11.959 C 21.586 11.898,21.770 11.755,21.880 11.558 L 21.980 11.380 21.991 8.604 C 22.004 5.502,22.010 5.583,21.729 5.309 C 21.647 5.229,21.508 5.134,21.420 5.097 C 20.968 4.906,15.188 3.007,15.035 2.999 C 14.705 2.981,14.614 3.000,14.422 3.127 C 14.104 3.338,14.028 3.515,13.964 4.196 C 13.914 4.735,13.777 5.029,13.403 5.404 C 13.002 5.807,12.547 6.000,12.000 6.000 C 11.317 6.000,10.695 5.654,10.312 5.063 C 10.123 4.770,10.047 4.525,10.002 4.056 C 9.927 3.274,9.539 2.900,8.910 3.002 M8.319 5.550 C 8.621 6.293,9.238 7.003,9.956 7.436 C 10.512 7.771,11.341 8.000,12.000 8.000 C 12.659 8.000,13.488 7.771,14.044 7.436 C 14.763 7.003,15.379 6.293,15.682 5.549 C 15.733 5.422,15.795 5.324,15.818 5.333 C 15.841 5.341,16.792 5.658,17.930 6.037 L 20.000 6.727 20.000 8.361 L 20.000 9.996 18.829 10.008 C 17.662 10.020,17.657 10.020,17.459 10.122 C 17.245 10.233,17.105 10.404,17.041 10.635 C 17.015 10.728,17.000 12.260,17.000 14.890 L 17.000 19.000 12.001 19.000 L 7.002 19.000 6.991 14.810 L 6.980 10.620 6.891 10.453 C 6.842 10.362,6.746 10.247,6.678 10.199 C 6.430 10.022,6.256 10.000,5.094 10.000 L 4.000 10.000 4.000 8.363 L 4.000 6.727 6.090 6.026 C 7.240 5.641,8.190 5.325,8.203 5.323 C 8.215 5.321,8.267 5.424,8.319 5.550 " stroke="none" fill="black" fill-rule="evenodd"></path></svg>