<svg xmlns="http://www.w3.org/2000/svg" width="24" height="24" viewBox="0 0 24 24" fill="none" stroke="currentColor" stroke-width="2" stroke-linecap="round" stroke-linejoin="round" class="icon icon-tabler icons-tabler-outline icon-tabler-arrow-left-square"><path d="M5.620 8.046 C 5.528 8.094,4.826 8.758,3.960 9.618 C 3.135 10.438,2.399 11.150,2.324 11.201 C 2.149 11.321,1.951 11.745,1.951 12.000 C 1.951 12.238,2.150 12.682,2.303 12.784 C 2.366 12.826,3.101 13.537,3.938 14.365 C 4.949 15.365,5.520 15.901,5.637 15.960 C 5.989 16.137,6.354 16.048,6.701 15.701 C 7.048 15.354,7.137 14.988,6.959 14.637 C 6.905 14.531,6.580 14.168,6.147 13.730 L 5.425 13.000 10.709 13.000 L 15.993 13.000 16.007 13.690 C 16.019 14.339,16.026 14.391,16.120 14.558 C 16.230 14.755,16.414 14.898,16.635 14.959 C 16.831 15.014,21.169 15.014,21.365 14.959 C 21.586 14.898,21.770 14.755,21.880 14.558 L 21.980 14.380 21.980 12.000 L 21.980 9.620 21.891 9.453 C 21.785 9.256,21.622 9.131,21.371 9.055 C 21.102 8.974,16.898 8.974,16.629 9.055 C 16.378 9.131,16.215 9.256,16.109 9.453 C 16.029 9.603,16.019 9.689,16.007 10.310 L 15.993 11.000 10.709 11.000 L 5.425 11.000 6.147 10.270 C 6.580 9.832,6.905 9.469,6.959 9.363 C 7.137 9.012,7.048 8.646,6.701 8.299 C 6.361 7.959,5.967 7.867,5.620 8.046 M20.000 12.000 L 20.000 13.000 19.000 13.000 L 18.000 13.000 18.000 12.000 L 18.000 11.000 19.000 11.000 L 20.000 11.000 20.000 12.000 " stroke="none" fill="black" fill-rule="evenodd"></path></svg>