<svg xmlns="http://www.w3.org/2000/svg" width="24" height="24" viewBox="0 0 24 24" fill="none" stroke="currentColor" stroke-width="2" stroke-linecap="round" stroke-linejoin="round" class="icon icon-tabler icons-tabler-outline icon-tabler-clock-heart"><path d="M11.100 2.042 C 5.817 2.535,1.835 7.038,2.013 12.320 C 2.077 14.236,2.622 15.939,3.679 17.531 C 5.349 20.047,8.026 21.651,11.060 21.956 C 11.701 22.020,12.028 21.912,12.230 21.567 C 12.331 21.395,12.340 21.346,12.340 20.957 C 12.340 20.560,12.333 20.524,12.227 20.364 C 12.067 20.121,11.819 20.020,11.246 19.962 C 8.560 19.692,6.220 18.131,4.949 15.760 C 3.804 13.624,3.697 11.011,4.665 8.824 C 6.053 5.686,9.193 3.780,12.554 4.034 C 13.499 4.105,14.201 4.267,15.024 4.602 C 17.659 5.674,19.566 8.142,19.921 10.940 C 20.005 11.603,20.109 11.830,20.411 12.003 C 20.549 12.082,20.635 12.100,20.880 12.099 C 21.576 12.097,21.959 11.766,21.960 11.165 C 21.960 10.889,21.847 10.185,21.715 9.645 C 20.810 5.934,17.883 3.066,14.160 2.243 C 13.283 2.050,11.957 1.963,11.100 2.042 M11.614 6.057 C 11.377 6.131,11.212 6.261,11.109 6.453 L 11.020 6.620 11.020 9.460 L 11.020 12.300 11.126 12.480 C 11.277 12.738,11.962 13.388,12.187 13.487 C 12.579 13.661,13.051 13.464,13.375 12.992 C 13.662 12.575,13.612 12.239,13.197 11.785 L 13.003 11.572 12.991 9.096 C 12.980 6.623,12.980 6.620,12.891 6.453 C 12.842 6.362,12.746 6.247,12.678 6.199 C 12.414 6.010,11.957 5.950,11.614 6.057 M15.699 14.037 C 14.670 14.202,13.737 14.905,13.305 15.840 C 13.072 16.345,13.021 16.592,13.024 17.200 C 13.026 17.692,13.037 17.773,13.149 18.111 C 13.314 18.608,13.546 18.985,13.936 19.393 C 14.114 19.578,14.984 20.440,15.868 21.306 C 17.563 22.967,17.651 23.038,18.000 23.038 C 18.345 23.038,18.445 22.958,19.971 21.466 C 22.507 18.986,22.575 18.908,22.818 18.213 C 23.020 17.636,23.050 16.947,22.900 16.380 C 22.746 15.802,22.353 15.189,21.871 14.775 C 20.903 13.943,19.453 13.773,18.325 14.360 L 18.013 14.522 17.697 14.363 C 17.245 14.135,16.862 14.039,16.340 14.020 C 16.098 14.012,15.810 14.019,15.699 14.037 M16.753 16.136 C 16.861 16.191,17.080 16.356,17.239 16.502 C 17.843 17.056,18.170 17.055,18.773 16.497 C 19.226 16.077,19.559 15.955,20.020 16.041 C 20.841 16.193,21.259 17.127,20.806 17.797 C 20.748 17.883,20.101 18.542,19.368 19.262 C 18.242 20.369,18.025 20.565,17.961 20.535 C 17.919 20.516,17.278 19.898,16.537 19.163 C 15.024 17.661,15.020 17.657,15.023 17.160 C 15.025 16.915,15.045 16.822,15.133 16.651 C 15.292 16.341,15.584 16.126,15.980 16.025 C 16.156 15.980,16.559 16.038,16.753 16.136 " stroke="none" fill="black" fill-rule="evenodd"></path></svg>