<svg xmlns="http://www.w3.org/2000/svg" width="24" height="24" viewBox="0 0 24 24" fill="none" stroke="currentColor" stroke-width="2" stroke-linecap="round" stroke-linejoin="round" class="icon icon-tabler icons-tabler-outline icon-tabler-devices-off"><path d="M2.626 2.045 C 2.541 2.090,2.394 2.204,2.299 2.299 C 1.852 2.746,1.837 3.183,2.250 3.658 L 2.387 3.816 2.295 3.951 C 2.245 4.025,2.162 4.188,2.112 4.313 L 2.020 4.540 2.009 10.880 C 2.002 15.191,2.012 17.285,2.041 17.423 C 2.148 17.941,2.602 18.538,3.070 18.775 C 3.529 19.007,3.373 19.000,7.868 19.000 L 12.000 19.000 12.000 19.132 C 12.000 19.323,12.104 19.690,12.225 19.930 C 12.361 20.199,12.801 20.639,13.070 20.775 C 13.518 21.002,13.485 21.000,16.655 21.000 L 19.573 21.000 20.018 21.435 C 20.263 21.674,20.543 21.910,20.639 21.960 C 20.988 22.137,21.354 22.048,21.701 21.701 C 22.048 21.354,22.137 20.988,21.960 20.640 C 21.888 20.499,21.181 19.712,20.750 19.293 C 20.683 19.228,14.370 12.917,13.760 12.306 C 13.705 12.251,11.680 10.226,9.260 7.806 C 6.840 5.386,4.815 3.360,4.760 3.302 C 4.372 2.898,3.502 2.113,3.367 2.044 C 3.153 1.934,2.835 1.935,2.626 2.045 M7.614 3.057 C 7.377 3.131,7.212 3.261,7.109 3.453 C 7.035 3.592,7.020 3.684,7.020 4.000 C 7.020 4.331,7.033 4.403,7.120 4.558 C 7.230 4.755,7.414 4.898,7.635 4.959 C 7.728 4.985,9.425 5.000,12.390 5.000 L 17.000 5.000 17.000 6.000 L 17.000 7.000 15.370 7.002 C 13.545 7.005,13.417 7.020,12.983 7.281 C 12.703 7.449,12.354 7.816,12.219 8.083 C 12.083 8.351,12.000 8.690,12.000 8.978 C 12.001 9.620,12.295 9.953,12.896 9.991 C 13.533 10.031,13.915 9.757,13.983 9.210 L 14.009 9.000 14.499 9.000 L 14.989 9.000 15.013 9.203 C 15.058 9.583,15.288 9.863,15.635 9.959 C 15.826 10.012,18.174 10.012,18.365 9.959 C 18.712 9.863,18.935 9.593,18.983 9.210 L 19.009 9.000 19.505 9.000 L 20.000 9.000 20.000 13.110 C 20.000 15.740,20.015 17.272,20.041 17.365 C 20.148 17.750,20.437 17.962,20.896 17.991 C 21.381 18.022,21.699 17.882,21.880 17.558 L 21.980 17.380 21.991 13.090 C 22.003 8.426,22.007 8.528,21.782 8.083 C 21.646 7.816,21.297 7.449,21.017 7.281 C 20.658 7.065,20.361 7.005,19.630 7.002 L 19.000 7.000 18.999 5.890 C 18.999 4.691,18.970 4.456,18.781 4.083 C 18.646 3.816,18.297 3.449,18.017 3.281 C 17.535 2.991,17.806 3.005,12.520 3.005 C 8.741 3.005,7.746 3.016,7.614 3.057 M12.000 15.210 L 12.000 17.000 8.000 17.000 L 4.000 17.000 4.000 11.210 L 4.000 5.420 8.000 9.420 L 12.000 13.420 12.000 15.210 M15.800 17.220 L 17.580 19.000 15.790 19.000 L 14.000 19.000 14.000 17.220 C 14.000 16.241,14.005 15.440,14.010 15.440 C 14.016 15.440,14.821 16.241,15.800 17.220 " stroke="none" fill="black" fill-rule="evenodd"></path></svg>