<svg xmlns="http://www.w3.org/2000/svg" width="24" height="24" viewBox="0 0 24 24" fill="none" stroke="currentColor" stroke-width="2" stroke-linecap="round" stroke-linejoin="round" class="icon icon-tabler icons-tabler-outline icon-tabler-png"><path d="M2.614 7.056 C 2.376 7.133,2.212 7.262,2.109 7.453 L 2.020 7.620 2.009 11.913 C 2.002 14.727,2.013 16.258,2.039 16.357 C 2.144 16.747,2.434 16.961,2.896 16.991 C 3.381 17.022,3.699 16.882,3.880 16.558 L 3.980 16.380 3.992 14.695 L 4.004 13.009 4.792 12.990 C 5.464 12.974,5.621 12.958,5.860 12.882 C 6.835 12.570,7.582 11.817,7.886 10.840 C 8.021 10.406,8.021 9.594,7.886 9.160 C 7.581 8.182,6.825 7.421,5.861 7.124 C 5.550 7.028,5.498 7.024,4.160 7.013 C 3.090 7.005,2.743 7.014,2.614 7.056 M9.614 7.055 C 9.375 7.133,9.211 7.262,9.109 7.453 L 9.020 7.620 9.009 11.913 C 9.002 14.727,9.013 16.258,9.039 16.357 C 9.144 16.747,9.434 16.961,9.896 16.991 C 10.381 17.022,10.699 16.882,10.880 16.558 L 10.980 16.380 10.993 14.320 L 11.006 12.260 12.113 14.467 C 12.722 15.681,13.265 16.723,13.320 16.783 C 13.456 16.929,13.705 17.038,13.908 17.039 C 14.338 17.041,14.852 16.688,14.954 16.320 C 14.992 16.181,15.001 15.175,14.992 11.880 L 14.980 7.620 14.889 7.450 C 14.724 7.140,14.329 6.970,13.874 7.011 C 13.439 7.051,13.141 7.274,13.041 7.635 C 13.016 7.723,13.000 8.564,12.998 9.760 L 12.996 11.740 11.908 9.573 C 11.310 8.381,10.775 7.357,10.720 7.299 C 10.483 7.046,9.980 6.935,9.614 7.055 M18.499 7.043 C 17.383 7.230,16.461 8.048,16.114 9.160 L 16.020 9.460 16.020 12.000 L 16.020 14.540 16.114 14.840 C 16.419 15.817,17.158 16.562,18.140 16.884 C 18.405 16.971,18.492 16.976,19.804 16.991 C 20.715 17.001,21.243 16.992,21.348 16.963 C 21.583 16.900,21.767 16.760,21.880 16.558 L 21.980 16.380 21.980 14.000 L 21.980 11.620 21.891 11.453 C 21.785 11.256,21.622 11.131,21.371 11.055 C 21.117 10.979,19.883 10.979,19.629 11.055 C 19.224 11.177,19.040 11.428,19.009 11.900 C 18.968 12.532,19.251 12.922,19.797 12.987 L 20.000 13.011 20.000 14.009 L 20.000 15.007 19.350 14.993 C 18.728 14.981,18.692 14.975,18.516 14.872 C 18.415 14.813,18.284 14.700,18.225 14.623 C 18.000 14.327,18.000 14.332,18.000 12.022 C 18.000 9.586,17.997 9.609,18.303 9.303 C 18.588 9.018,18.692 9.000,20.057 9.000 C 20.713 9.000,21.283 8.982,21.365 8.959 C 21.586 8.898,21.770 8.755,21.880 8.558 C 21.967 8.402,21.980 8.332,21.979 8.000 C 21.978 7.567,21.898 7.355,21.678 7.199 C 21.423 7.017,21.269 7.000,19.944 7.005 C 19.260 7.007,18.609 7.025,18.499 7.043 M5.310 9.061 C 5.688 9.173,6.000 9.598,6.000 10.001 C 6.000 10.331,5.784 10.696,5.484 10.872 C 5.308 10.975,5.272 10.981,4.650 10.993 L 4.000 11.007 4.000 10.003 L 4.000 9.000 4.553 9.000 C 4.931 9.000,5.170 9.019,5.310 9.061 " stroke="none" fill="black" fill-rule="evenodd"></path></svg>