<svg xmlns="http://www.w3.org/2000/svg" width="24" height="24" viewBox="0 0 24 24" fill="none" stroke="currentColor" stroke-width="2" stroke-linecap="round" stroke-linejoin="round" class="icon icon-tabler icons-tabler-outline icon-tabler-http-get"><path d="M4.499 7.043 C 3.383 7.230,2.461 8.048,2.114 9.160 L 2.020 9.460 2.020 12.000 L 2.020 14.540 2.114 14.840 C 2.419 15.817,3.158 16.562,4.140 16.884 C 4.405 16.971,4.492 16.976,5.804 16.991 C 6.715 17.001,7.243 16.992,7.348 16.963 C 7.583 16.900,7.767 16.760,7.880 16.558 L 7.980 16.380 7.980 14.000 L 7.980 11.620 7.891 11.453 C 7.785 11.256,7.622 11.131,7.371 11.055 C 7.117 10.979,5.883 10.979,5.629 11.055 C 5.224 11.177,5.040 11.428,5.009 11.900 C 4.968 12.532,5.251 12.922,5.797 12.987 L 6.000 13.011 6.000 14.009 L 6.000 15.007 5.350 14.993 C 4.728 14.981,4.692 14.975,4.516 14.872 C 4.415 14.813,4.284 14.700,4.225 14.623 C 4.000 14.327,4.000 14.332,4.000 12.022 C 4.000 9.586,3.997 9.609,4.303 9.303 C 4.588 9.018,4.692 9.000,6.057 9.000 C 6.713 9.000,7.283 8.982,7.365 8.959 C 7.586 8.898,7.770 8.755,7.880 8.558 C 7.967 8.402,7.980 8.332,7.979 8.000 C 7.978 7.567,7.898 7.355,7.678 7.199 C 7.423 7.017,7.269 7.000,5.944 7.005 C 5.260 7.007,4.609 7.025,4.499 7.043 M9.614 7.057 C 9.377 7.131,9.212 7.261,9.109 7.453 L 9.020 7.620 9.009 11.913 C 9.002 14.727,9.013 16.258,9.039 16.357 C 9.100 16.584,9.242 16.768,9.442 16.880 L 9.620 16.980 11.911 16.991 C 13.392 16.999,14.256 16.988,14.355 16.961 C 14.583 16.900,14.768 16.758,14.880 16.558 C 14.967 16.402,14.980 16.332,14.979 16.000 C 14.978 15.567,14.898 15.355,14.678 15.199 C 14.416 15.012,14.290 15.000,12.594 15.000 L 11.000 15.000 11.000 14.000 L 11.000 13.000 11.853 13.000 C 12.825 13.000,13.023 12.964,13.229 12.751 C 13.418 12.556,13.486 12.355,13.486 11.997 C 13.486 11.491,13.303 11.196,12.909 11.064 C 12.757 11.013,12.539 11.000,11.859 11.000 L 11.000 11.000 11.000 10.000 L 11.000 9.000 12.610 9.000 C 13.565 9.000,14.279 8.983,14.365 8.959 C 14.586 8.898,14.770 8.755,14.880 8.558 C 14.967 8.402,14.980 8.332,14.979 8.000 C 14.978 7.567,14.898 7.355,14.678 7.199 C 14.406 7.005,14.336 7.000,11.984 7.003 C 10.293 7.005,9.741 7.017,9.614 7.057 M16.614 7.057 C 16.377 7.131,16.212 7.261,16.109 7.453 C 16.035 7.592,16.020 7.684,16.020 8.000 C 16.020 8.331,16.033 8.403,16.120 8.558 C 16.230 8.755,16.414 8.898,16.635 8.959 C 16.715 8.981,17.055 9.000,17.390 9.000 L 18.000 9.000 18.000 12.610 C 18.000 14.905,18.015 16.273,18.041 16.365 C 18.148 16.750,18.437 16.962,18.896 16.991 C 19.381 17.022,19.699 16.882,19.880 16.558 L 19.980 16.380 19.991 12.690 L 20.002 9.000 20.611 9.000 C 20.946 9.000,21.285 8.981,21.365 8.959 C 21.586 8.898,21.770 8.755,21.880 8.558 C 21.967 8.402,21.980 8.332,21.979 8.000 C 21.978 7.567,21.898 7.355,21.678 7.199 C 21.406 7.005,21.336 7.000,18.984 7.003 C 17.293 7.005,16.741 7.017,16.614 7.057 " stroke="none" fill="black" fill-rule="evenodd"></path></svg>