<svg xmlns="http://www.w3.org/2000/svg" width="24" height="24" viewBox="0 0 24 24" fill="none" stroke="currentColor" stroke-width="2" stroke-linecap="round" stroke-linejoin="round" class="icon icon-tabler icons-tabler-outline icon-tabler-photo-hexagon"><path d="M11.542 1.044 C 11.206 1.093,10.917 1.183,10.607 1.334 C 10.326 1.471,3.711 5.363,3.400 5.574 C 2.940 5.886,2.556 6.345,2.298 6.892 C 2.004 7.516,2.023 7.205,2.009 11.720 C 1.999 15.327,2.005 15.816,2.062 16.100 C 2.197 16.773,2.552 17.405,3.043 17.852 C 3.266 18.054,4.217 18.675,6.849 20.339 C 8.779 21.559,10.434 22.596,10.527 22.644 C 11.438 23.109,12.561 23.109,13.471 22.645 C 13.630 22.564,20.226 18.402,20.600 18.147 C 21.088 17.814,21.516 17.281,21.752 16.712 C 22.005 16.102,22.000 16.202,22.000 11.844 C 22.000 7.576,22.004 7.665,21.787 7.068 C 21.605 6.567,21.270 6.102,20.812 5.713 C 20.635 5.563,19.382 4.802,17.082 3.447 C 15.178 2.326,13.548 1.372,13.460 1.329 C 12.903 1.057,12.187 0.950,11.542 1.044 M12.595 3.138 C 12.880 3.282,18.999 6.893,19.338 7.116 C 19.491 7.217,19.675 7.377,19.747 7.472 C 20.003 7.808,20.000 7.765,20.000 10.815 L 20.000 13.575 19.250 12.835 C 18.838 12.427,18.380 12.010,18.234 11.906 C 17.688 11.521,17.158 11.352,16.500 11.352 C 15.663 11.352,15.009 11.633,14.283 12.305 L 13.995 12.572 12.747 11.332 C 11.477 10.070,11.172 9.811,10.703 9.598 C 9.983 9.272,9.051 9.264,8.341 9.578 C 7.812 9.812,7.582 10.012,5.769 11.816 L 3.998 13.579 4.009 10.740 L 4.020 7.900 4.129 7.693 C 4.190 7.578,4.301 7.425,4.376 7.353 C 4.561 7.174,11.452 3.117,11.680 3.052 C 11.947 2.976,12.350 3.013,12.595 3.138 M14.614 7.055 C 14.220 7.184,14.039 7.437,14.009 7.900 C 13.978 8.381,14.119 8.699,14.442 8.880 C 14.597 8.967,14.669 8.980,15.000 8.980 C 15.312 8.980,15.408 8.964,15.540 8.894 C 15.866 8.718,16.000 8.459,16.000 8.000 C 16.000 7.357,15.713 7.048,15.083 7.016 C 14.893 7.006,14.718 7.021,14.614 7.055 M9.920 11.450 C 10.057 11.512,10.743 12.172,12.780 14.202 C 14.648 16.062,15.514 16.898,15.637 16.960 C 15.989 17.137,16.354 17.048,16.701 16.701 C 17.048 16.354,17.137 15.988,16.959 15.637 C 16.905 15.531,16.580 15.168,16.147 14.730 L 15.424 13.999 15.642 13.778 C 15.921 13.494,16.212 13.349,16.498 13.349 C 16.896 13.349,16.983 13.416,18.430 14.855 C 19.162 15.582,19.760 16.190,19.760 16.206 C 19.760 16.221,19.707 16.287,19.641 16.352 C 19.480 16.514,12.716 20.791,12.440 20.906 C 12.151 21.027,11.850 21.027,11.560 20.907 C 11.368 20.827,4.700 16.636,4.443 16.434 C 4.389 16.392,4.319 16.320,4.287 16.274 C 4.232 16.195,4.336 16.084,6.525 13.894 C 7.787 12.630,8.882 11.558,8.958 11.510 C 9.270 11.315,9.580 11.295,9.920 11.450 " stroke="none" fill="black" fill-rule="evenodd"></path></svg>