<svg xmlns="http://www.w3.org/2000/svg" width="24" height="24" viewBox="0 0 24 24" fill="none" stroke="currentColor" stroke-width="2" stroke-linecap="round" stroke-linejoin="round" class="icon icon-tabler icons-tabler-outline icon-tabler-devices-down"><path d="M3.477 3.073 C 2.806 3.249,2.238 3.823,2.060 4.508 C 2.008 4.706,2.000 5.577,2.000 11.000 C 2.000 17.828,1.988 17.462,2.225 17.930 C 2.361 18.199,2.801 18.639,3.070 18.775 C 3.529 19.008,3.362 19.000,7.978 19.000 C 10.696 19.000,12.272 18.985,12.365 18.959 C 12.587 18.898,12.770 18.755,12.878 18.560 C 12.958 18.415,12.976 18.324,12.978 18.061 C 12.979 17.885,12.968 17.686,12.953 17.620 L 12.926 17.500 13.128 17.488 C 13.384 17.474,13.584 17.390,13.751 17.229 C 14.007 16.981,14.000 17.109,14.000 12.853 L 14.000 9.000 14.494 9.000 L 14.989 9.000 15.013 9.203 C 15.058 9.583,15.288 9.863,15.635 9.959 C 15.826 10.012,18.174 10.012,18.365 9.959 C 18.712 9.863,18.935 9.593,18.983 9.210 L 19.009 9.000 19.505 9.000 L 20.000 9.000 20.000 10.853 C 20.000 12.913,20.009 12.997,20.249 13.229 C 20.442 13.416,20.647 13.487,20.997 13.488 C 21.501 13.490,21.827 13.289,21.941 12.904 C 22.028 12.612,22.027 8.898,21.940 8.529 C 21.858 8.182,21.720 7.927,21.465 7.653 C 20.998 7.150,20.590 7.006,19.630 7.002 L 19.000 7.000 18.999 5.890 C 18.999 4.691,18.970 4.456,18.781 4.083 C 18.646 3.816,18.297 3.449,18.017 3.281 C 17.527 2.986,18.042 3.005,10.500 3.005 C 4.239 3.005,3.721 3.010,3.477 3.073 M17.000 6.000 L 17.000 7.000 15.370 7.002 C 13.963 7.004,13.704 7.014,13.477 7.073 C 12.789 7.253,12.184 7.886,12.041 8.577 C 11.989 8.825,12.002 16.824,12.054 16.930 C 12.087 16.996,11.882 17.000,8.044 17.000 L 4.000 17.000 4.000 11.000 L 4.000 5.000 10.500 5.000 L 17.000 5.000 17.000 6.000 M18.614 15.057 C 18.377 15.131,18.212 15.261,18.109 15.453 C 18.021 15.618,18.020 15.640,18.009 17.596 L 17.997 19.572 17.269 18.852 C 16.856 18.443,16.467 18.094,16.372 18.045 C 16.021 17.868,15.640 17.958,15.299 18.299 C 14.952 18.646,14.863 19.011,15.040 19.363 C 15.099 19.480,15.635 20.051,16.635 21.062 C 17.463 21.899,18.174 22.634,18.216 22.697 C 18.318 22.850,18.762 23.049,19.000 23.049 C 19.238 23.049,19.682 22.850,19.784 22.697 C 19.826 22.634,20.537 21.899,21.365 21.062 C 22.365 20.051,22.901 19.480,22.960 19.363 C 23.137 19.011,23.048 18.646,22.701 18.299 C 22.360 17.958,21.979 17.868,21.628 18.045 C 21.533 18.094,21.144 18.443,20.732 18.851 L 20.004 19.572 19.992 17.596 C 19.980 15.640,19.979 15.618,19.891 15.453 C 19.842 15.362,19.746 15.247,19.678 15.199 C 19.414 15.010,18.957 14.950,18.614 15.057 " stroke="none" fill="black" fill-rule="evenodd"></path></svg>