<svg xmlns="http://www.w3.org/2000/svg" width="24" height="24" viewBox="0 0 24 24" fill="none" stroke="currentColor" stroke-width="2" stroke-linecap="round" stroke-linejoin="round" class="icon icon-tabler icons-tabler-outline icon-tabler-bookmarks"><path d="M10.614 2.057 C 10.377 2.131,10.212 2.261,10.109 2.453 C 10.035 2.592,10.020 2.684,10.020 3.000 C 10.020 3.331,10.033 3.403,10.120 3.558 C 10.230 3.755,10.414 3.898,10.635 3.959 C 10.725 3.984,11.815 4.001,13.520 4.002 C 16.576 4.005,16.556 4.003,17.017 4.281 C 17.294 4.448,17.618 4.787,17.772 5.071 C 18.005 5.503,17.999 5.306,18.000 11.520 C 18.000 15.213,18.015 17.271,18.041 17.365 C 18.148 17.750,18.437 17.962,18.896 17.991 C 19.381 18.022,19.699 17.882,19.880 17.558 L 19.980 17.380 19.991 11.509 C 20.001 5.772,19.999 5.630,19.921 5.246 C 19.628 3.806,18.638 2.681,17.245 2.204 C 16.695 2.016,16.410 2.000,13.500 2.003 C 11.385 2.005,10.743 2.017,10.614 2.057 M7.358 6.061 C 5.731 6.315,4.417 7.584,4.083 9.227 C 4.001 9.626,4.000 9.730,4.000 15.389 C 4.000 21.822,3.978 21.348,4.288 21.699 C 4.551 21.998,4.797 22.087,5.161 22.014 C 5.234 21.999,6.350 21.353,7.643 20.578 L 9.994 19.168 12.227 20.510 C 13.455 21.248,14.546 21.885,14.650 21.926 C 15.125 22.110,15.660 21.950,15.880 21.558 L 15.980 21.380 15.991 15.509 C 16.001 9.772,15.999 9.630,15.921 9.246 C 15.628 7.806,14.638 6.681,13.245 6.204 C 12.709 6.020,12.378 6.000,9.960 6.004 C 8.291 6.007,7.611 6.022,7.358 6.061 M12.523 8.073 C 13.022 8.203,13.516 8.599,13.772 9.071 C 14.003 9.498,13.999 9.396,13.999 14.528 L 14.000 19.236 12.153 18.128 L 10.306 17.020 10.000 17.020 L 9.694 17.020 7.847 18.128 L 6.000 19.236 6.000 14.516 C 6.000 9.273,5.990 9.472,6.265 9.014 C 6.546 8.543,6.988 8.201,7.477 8.073 C 7.711 8.012,7.992 8.005,10.000 8.005 C 12.008 8.005,12.289 8.012,12.523 8.073 " stroke="none" fill="black" fill-rule="evenodd"></path></svg>