<svg xmlns="http://www.w3.org/2000/svg" width="24" height="24" viewBox="0 0 24 24" fill="none" stroke="currentColor" stroke-width="2" stroke-linecap="round" stroke-linejoin="round" class="icon icon-tabler icons-tabler-outline icon-tabler-paw"><path d="M8.560 3.054 C 7.615 3.273,6.915 4.040,6.614 5.185 C 6.483 5.683,6.466 6.459,6.574 7.011 C 6.917 8.766,8.117 10.000,9.479 10.000 C 9.771 10.000,10.267 9.873,10.533 9.731 C 10.799 9.588,11.341 9.047,11.516 8.748 C 11.679 8.470,11.914 7.802,11.947 7.522 C 11.960 7.411,11.984 7.320,12.000 7.320 C 12.016 7.320,12.040 7.411,12.053 7.522 C 12.086 7.802,12.321 8.470,12.484 8.748 C 12.682 9.087,13.206 9.597,13.512 9.750 C 14.431 10.209,15.482 10.016,16.267 9.243 C 17.087 8.435,17.496 7.392,17.491 6.120 C 17.488 5.475,17.377 4.980,17.119 4.459 C 16.392 2.990,14.792 2.566,13.514 3.505 C 13.053 3.843,12.551 4.527,12.316 5.137 C 12.189 5.467,12.042 6.059,12.041 6.250 C 12.040 6.310,12.022 6.360,12.000 6.360 C 11.978 6.360,11.960 6.310,11.959 6.250 C 11.958 6.059,11.811 5.467,11.684 5.137 C 11.311 4.171,10.515 3.355,9.691 3.097 C 9.427 3.014,8.830 2.991,8.560 3.054 M9.195 5.057 C 9.460 5.195,9.741 5.611,9.886 6.080 C 10.016 6.503,10.016 7.196,9.885 7.528 C 9.777 7.804,9.605 8.000,9.470 8.000 C 9.209 8.000,8.789 7.492,8.630 6.985 C 8.556 6.751,8.540 6.607,8.540 6.180 C 8.540 5.724,8.552 5.631,8.635 5.429 C 8.729 5.201,8.912 5.000,9.025 5.000 C 9.057 5.000,9.134 5.026,9.195 5.057 M15.152 5.099 C 15.217 5.154,15.313 5.303,15.365 5.429 C 15.448 5.631,15.460 5.724,15.460 6.180 C 15.460 6.607,15.444 6.750,15.371 6.980 C 15.209 7.492,14.790 8.000,14.530 8.000 C 14.395 8.000,14.223 7.805,14.115 7.528 C 14.040 7.339,14.025 7.221,14.024 6.840 C 14.024 6.363,14.106 5.980,14.281 5.640 C 14.436 5.338,14.798 5.001,14.967 5.000 C 15.004 5.000,15.087 5.045,15.152 5.099 M3.802 7.041 C 3.448 7.116,3.044 7.346,2.764 7.631 C 2.456 7.946,2.287 8.243,2.135 8.741 C 2.036 9.069,2.026 9.158,2.024 9.760 C 2.022 10.467,2.078 10.785,2.309 11.399 C 2.898 12.968,4.088 14.003,5.297 13.999 C 5.846 13.998,6.345 13.772,6.757 13.337 C 7.674 12.372,7.753 10.669,6.955 9.065 C 6.704 8.562,6.532 8.326,6.103 7.900 C 5.665 7.465,5.335 7.246,4.920 7.116 C 4.623 7.023,4.064 6.986,3.802 7.041 M19.300 7.059 C 18.773 7.176,18.295 7.469,17.817 7.968 C 17.457 8.344,17.275 8.604,17.035 9.085 C 16.515 10.127,16.367 11.248,16.621 12.220 C 16.786 12.849,17.258 13.489,17.753 13.753 C 19.023 14.430,20.604 13.651,21.460 11.928 C 21.853 11.137,22.022 10.394,21.988 9.600 C 21.951 8.737,21.704 8.099,21.216 7.610 C 20.710 7.102,20.013 6.902,19.300 7.059 M4.498 9.127 C 5.041 9.486,5.480 10.431,5.480 11.236 C 5.479 11.790,5.381 12.034,5.180 11.983 C 5.025 11.945,4.564 11.471,4.407 11.188 C 4.222 10.857,4.044 10.295,4.015 9.953 C 3.977 9.493,4.101 9.000,4.254 9.000 C 4.283 9.000,4.393 9.057,4.498 9.127 M19.900 9.180 C 19.965 9.311,19.979 9.419,19.977 9.780 C 19.976 10.170,19.961 10.263,19.846 10.599 C 19.671 11.108,19.516 11.368,19.199 11.688 C 18.905 11.983,18.742 12.058,18.653 11.938 C 18.562 11.812,18.520 11.595,18.520 11.236 C 18.520 10.633,18.754 9.962,19.135 9.477 C 19.320 9.242,19.656 8.990,19.759 9.009 C 19.792 9.015,19.856 9.092,19.900 9.180 M11.463 10.042 C 10.953 10.128,10.385 10.406,9.988 10.764 C 9.533 11.176,9.155 11.726,8.300 13.225 C 8.029 13.700,7.667 14.054,6.980 14.517 C 6.190 15.050,5.856 15.309,5.576 15.610 C 4.978 16.248,4.713 16.978,4.713 17.980 C 4.714 18.602,4.795 18.968,5.046 19.479 C 5.181 19.753,5.282 19.887,5.576 20.181 C 6.113 20.717,6.585 20.937,7.303 20.986 C 7.918 21.029,8.489 20.917,9.873 20.483 C 11.880 19.853,12.120 19.853,14.127 20.483 C 15.511 20.917,16.082 21.029,16.697 20.986 C 17.415 20.937,17.887 20.717,18.424 20.181 C 18.718 19.887,18.819 19.753,18.954 19.479 C 19.205 18.967,19.286 18.602,19.286 17.980 C 19.286 16.914,18.991 16.170,18.283 15.451 C 18.127 15.292,17.616 14.876,17.149 14.526 C 15.977 13.648,15.848 13.505,15.239 12.420 C 14.498 11.099,13.963 10.512,13.227 10.211 C 12.791 10.032,11.984 9.955,11.463 10.042 M12.594 12.131 C 12.780 12.255,13.103 12.723,13.619 13.620 C 13.835 13.994,14.093 14.408,14.193 14.540 C 14.526 14.980,15.052 15.457,15.926 16.110 C 16.817 16.776,17.016 16.963,17.167 17.275 C 17.264 17.474,17.311 17.976,17.263 18.294 C 17.225 18.549,17.034 18.816,16.814 18.923 C 16.500 19.075,16.162 19.016,14.617 18.539 C 13.597 18.224,13.046 18.096,12.450 18.033 C 11.646 17.948,10.900 18.071,9.383 18.539 C 8.284 18.878,7.959 18.960,7.620 18.986 C 7.376 19.005,7.317 18.995,7.160 18.911 C 7.042 18.847,6.939 18.747,6.860 18.620 C 6.744 18.433,6.740 18.410,6.740 17.943 C 6.740 17.532,6.753 17.432,6.827 17.273 C 6.945 17.016,7.197 16.787,7.836 16.354 C 8.645 15.806,8.944 15.568,9.320 15.175 C 9.708 14.771,9.810 14.625,10.322 13.738 C 10.997 12.571,11.302 12.177,11.624 12.056 C 11.873 11.964,12.402 12.004,12.594 12.131 " stroke="none" fill="black" fill-rule="evenodd"></path></svg>