<svg xmlns="http://www.w3.org/2000/svg" width="24" height="24" viewBox="0 0 24 24" fill="none" stroke="currentColor" stroke-width="2" stroke-linecap="round" stroke-linejoin="round" class="icon icon-tabler icons-tabler-outline icon-tabler-tools-kitchen-2"><path d="M18.652 2.038 C 18.456 2.127,17.976 2.576,17.330 3.276 C 14.155 6.715,12.928 9.917,13.006 14.563 L 13.020 15.386 13.142 15.583 C 13.219 15.709,13.328 15.816,13.442 15.880 L 13.620 15.980 15.810 15.992 L 18.000 16.003 18.000 16.492 L 18.000 16.982 17.756 17.028 C 17.450 17.086,17.228 17.232,17.111 17.450 C 17.021 17.618,17.020 17.636,17.008 19.410 C 17.001 20.557,17.012 21.255,17.038 21.354 C 17.100 21.583,17.242 21.768,17.442 21.880 C 17.612 21.976,17.654 21.981,18.405 21.993 C 18.880 22.001,19.252 21.989,19.349 21.963 C 19.583 21.900,19.767 21.760,19.880 21.558 L 19.980 21.380 19.990 12.126 C 19.998 5.826,19.988 2.822,19.959 2.718 C 19.856 2.333,19.392 1.959,19.022 1.961 C 18.911 1.961,18.745 1.996,18.652 2.038 M4.614 3.057 C 4.377 3.131,4.212 3.261,4.109 3.453 C 4.021 3.618,4.020 3.644,4.009 5.486 C 3.998 7.250,4.002 7.376,4.081 7.764 C 4.359 9.129,5.278 10.230,6.540 10.711 C 6.716 10.778,6.891 10.843,6.930 10.855 C 6.996 10.876,7.000 11.159,7.000 16.049 C 7.000 19.390,7.015 21.271,7.041 21.365 C 7.148 21.750,7.437 21.962,7.896 21.991 C 8.381 22.022,8.699 21.882,8.880 21.558 L 8.980 21.380 8.991 16.128 C 9.001 11.188,9.006 10.876,9.071 10.855 C 10.341 10.451,11.237 9.645,11.704 8.488 C 11.985 7.789,12.005 7.583,11.992 5.485 C 11.980 3.634,11.979 3.619,11.889 3.450 C 11.724 3.140,11.329 2.970,10.874 3.011 C 10.439 3.051,10.141 3.274,10.041 3.635 C 10.017 3.722,10.000 4.467,10.000 5.480 C 9.999 7.338,9.980 7.541,9.773 7.931 C 9.666 8.133,9.122 8.720,9.042 8.720 C 9.017 8.720,8.999 7.809,8.991 6.170 L 8.980 3.620 8.889 3.450 C 8.724 3.140,8.329 2.970,7.874 3.011 C 7.439 3.051,7.141 3.274,7.041 3.635 C 7.016 3.725,7.000 4.719,7.000 6.250 C 7.000 7.609,6.986 8.720,6.968 8.720 C 6.891 8.720,6.453 8.281,6.313 8.064 C 6.024 7.617,6.027 7.638,6.002 5.520 C 5.980 3.653,5.978 3.617,5.891 3.453 C 5.842 3.362,5.746 3.247,5.678 3.199 C 5.414 3.010,4.957 2.950,4.614 3.057 M18.000 9.780 L 18.000 14.000 16.500 14.000 L 15.000 14.000 15.001 13.910 C 15.001 13.861,15.019 13.496,15.041 13.100 C 15.178 10.607,15.724 8.874,16.987 6.928 C 17.301 6.444,17.949 5.560,17.990 5.560 C 17.995 5.560,18.000 7.459,18.000 9.780 " stroke="none" fill="black" fill-rule="evenodd"></path></svg>