<svg xmlns="http://www.w3.org/2000/svg" width="24" height="24" viewBox="0 0 24 24" fill="none" stroke="currentColor" stroke-width="2" stroke-linecap="round" stroke-linejoin="round" class="icon icon-tabler icons-tabler-outline icon-tabler-caret-left-right"><path d="M9.620 5.046 C 9.383 5.167,3.154 11.406,3.039 11.637 C 2.924 11.868,2.924 12.132,3.040 12.363 C 3.102 12.487,4.029 13.445,6.134 15.561 C 7.787 17.223,9.174 18.633,9.216 18.696 C 9.318 18.850,9.761 19.049,9.999 19.049 C 10.187 19.049,10.593 18.894,10.735 18.768 C 10.848 18.668,11.041 18.223,11.036 18.071 C 11.034 17.999,11.020 15.186,11.006 11.820 L 10.980 5.700 10.871 5.514 C 10.758 5.323,10.558 5.141,10.332 5.025 C 10.154 4.934,9.818 4.944,9.620 5.046 M13.660 5.027 C 13.436 5.147,13.239 5.327,13.129 5.514 L 13.020 5.700 12.994 11.820 C 12.980 15.186,12.966 17.999,12.964 18.071 C 12.959 18.223,13.152 18.668,13.265 18.768 C 13.407 18.894,13.813 19.049,14.001 19.049 C 14.239 19.049,14.682 18.850,14.784 18.696 C 14.826 18.633,16.213 17.223,17.866 15.561 C 19.971 13.445,20.898 12.487,20.960 12.363 C 21.076 12.132,21.076 11.868,20.961 11.637 C 20.840 11.394,14.614 5.164,14.372 5.044 C 14.168 4.942,13.833 4.935,13.660 5.027 M9.000 12.010 L 9.000 15.580 7.210 13.790 L 5.420 12.000 7.200 10.220 C 8.179 9.241,8.984 8.440,8.990 8.440 C 8.995 8.440,9.000 10.046,9.000 12.010 M16.790 13.790 L 15.000 15.580 15.000 12.000 L 15.000 8.420 16.790 10.210 L 18.580 12.000 16.790 13.790 " stroke="none" fill="black" fill-rule="evenodd"></path></svg>