<svg xmlns="http://www.w3.org/2000/svg" width="24" height="24" viewBox="0 0 24 24" fill="none" stroke="currentColor" stroke-width="2" stroke-linecap="round" stroke-linejoin="round" class="icon icon-tabler icons-tabler-outline icon-tabler-route-alt-right"><path d="M18.219 1.999 L 15.658 2.020 15.459 2.122 C 15.119 2.297,14.978 2.606,15.009 3.104 C 15.038 3.563,15.250 3.852,15.635 3.959 C 15.719 3.983,16.365 4.000,17.179 4.000 L 18.578 4.000 15.515 7.070 C 13.831 8.758,12.369 10.251,12.266 10.388 C 11.596 11.275,11.184 12.276,11.044 13.356 C 10.986 13.801,10.983 21.158,11.041 21.365 C 11.148 21.750,11.437 21.962,11.896 21.991 C 12.381 22.022,12.699 21.882,12.880 21.558 L 12.980 21.380 13.002 17.420 C 13.024 13.545,13.026 13.453,13.109 13.140 C 13.263 12.563,13.508 12.064,13.865 11.600 C 13.958 11.479,15.376 10.039,17.017 8.400 L 20.000 5.420 20.000 6.820 C 20.000 7.634,20.017 8.281,20.041 8.365 C 20.148 8.750,20.437 8.962,20.896 8.991 C 21.381 9.022,21.699 8.882,21.880 8.558 L 21.980 8.380 22.007 5.720 C 22.022 4.257,22.036 3.001,22.037 2.929 C 22.041 2.740,21.834 2.310,21.690 2.207 C 21.466 2.048,21.205 1.959,20.987 1.969 C 20.873 1.974,19.627 1.988,18.219 1.999 M2.614 2.057 C 2.377 2.131,2.212 2.261,2.109 2.453 L 2.020 2.620 2.009 5.412 C 2.002 7.226,2.012 8.257,2.039 8.356 C 2.144 8.747,2.433 8.961,2.896 8.991 C 3.381 9.022,3.699 8.882,3.880 8.558 L 3.980 8.380 3.992 6.190 L 4.003 4.000 6.112 4.000 C 7.401 4.000,8.276 3.984,8.365 3.959 C 8.586 3.898,8.770 3.755,8.880 3.558 C 8.967 3.402,8.980 3.332,8.979 3.000 C 8.978 2.567,8.898 2.355,8.678 2.199 C 8.401 2.002,8.373 2.000,5.484 2.003 C 3.382 2.005,2.743 2.017,2.614 2.057 M5.614 5.057 C 5.221 5.180,5.039 5.435,5.009 5.906 C 4.962 6.621,5.306 7.000,6.000 7.000 C 6.698 7.000,7.043 6.616,6.989 5.900 C 6.963 5.563,6.859 5.327,6.678 5.199 C 6.414 5.010,5.957 4.950,5.614 5.057 M7.760 7.040 C 7.497 7.087,7.388 7.138,7.247 7.279 C 6.920 7.606,6.921 8.432,7.249 8.749 C 7.442 8.936,7.647 9.007,7.997 9.008 C 8.348 9.010,8.556 8.938,8.751 8.749 C 9.087 8.424,9.080 7.598,8.738 7.265 C 8.539 7.073,8.118 6.976,7.760 7.040 M9.614 9.057 C 9.221 9.180,9.039 9.435,9.009 9.906 C 8.962 10.621,9.306 11.000,10.000 11.000 C 10.698 11.000,11.043 10.616,10.989 9.900 C 10.963 9.563,10.859 9.327,10.678 9.199 C 10.414 9.010,9.957 8.950,9.614 9.057 " stroke="none" fill="black" fill-rule="evenodd"></path></svg>