<svg xmlns="http://www.w3.org/2000/svg" width="24" height="24" viewBox="0 0 24 24" fill="none" stroke="currentColor" stroke-width="2" stroke-linecap="round" stroke-linejoin="round" class="icon icon-tabler icons-tabler-outline icon-tabler-mood-plus"><path d="M11.120 2.040 C 8.734 2.283,6.625 3.264,4.982 4.896 C 3.389 6.479,2.472 8.297,2.094 10.620 C 1.995 11.233,1.994 12.756,2.092 13.380 C 2.309 14.745,2.737 15.970,3.380 17.060 C 4.821 19.502,7.211 21.211,10.000 21.793 C 10.727 21.945,11.089 21.979,11.960 21.980 C 12.808 21.980,12.823 21.979,13.047 21.874 C 13.210 21.797,13.306 21.719,13.387 21.596 C 13.493 21.436,13.500 21.400,13.500 21.003 C 13.500 20.630,13.489 20.560,13.405 20.414 C 13.202 20.060,13.021 20.000,12.164 20.000 C 11.109 19.999,10.380 19.888,9.484 19.591 C 6.893 18.732,4.891 16.570,4.244 13.934 C 4.061 13.186,4.020 12.841,4.021 12.040 C 4.021 11.224,4.067 10.828,4.247 10.080 C 4.925 7.262,7.147 5.000,9.947 4.278 C 11.831 3.792,13.710 3.961,15.406 4.770 C 17.131 5.591,18.430 6.898,19.252 8.638 C 19.768 9.730,20.000 10.854,20.000 12.264 C 20.000 12.905,20.032 13.038,20.235 13.252 C 20.422 13.448,20.703 13.534,21.094 13.514 C 21.604 13.487,21.868 13.253,21.964 12.740 C 22.022 12.437,21.985 11.178,21.903 10.616 C 21.256 6.199,17.874 2.791,13.473 2.118 C 12.867 2.026,11.654 1.985,11.120 2.040 M8.614 9.055 C 8.220 9.184,8.039 9.437,8.009 9.900 C 7.978 10.381,8.119 10.699,8.442 10.880 C 8.597 10.967,8.669 10.980,9.000 10.980 C 9.312 10.980,9.408 10.964,9.540 10.894 C 9.866 10.718,10.000 10.459,10.000 10.000 C 10.000 9.357,9.713 9.048,9.083 9.016 C 8.893 9.006,8.718 9.021,8.614 9.055 M14.614 9.055 C 14.220 9.184,14.039 9.437,14.009 9.900 C 13.978 10.381,14.119 10.699,14.442 10.880 C 14.597 10.967,14.669 10.980,15.000 10.980 C 15.312 10.980,15.408 10.964,15.540 10.894 C 15.866 10.718,16.000 10.459,16.000 10.000 C 16.000 9.357,15.713 9.048,15.083 9.016 C 14.893 9.006,14.718 9.021,14.614 9.055 M9.171 14.019 C 8.968 14.108,8.637 14.440,8.535 14.660 C 8.351 15.052,8.423 15.307,8.838 15.723 C 9.809 16.697,11.304 17.168,12.707 16.940 C 13.682 16.782,14.521 16.366,15.162 15.723 C 15.469 15.415,15.561 15.243,15.560 14.975 C 15.559 14.681,15.155 14.157,14.820 14.018 C 14.620 13.934,14.327 13.945,14.143 14.044 C 14.057 14.090,13.859 14.235,13.703 14.366 C 13.198 14.792,12.642 14.999,12.000 14.999 C 11.358 14.999,10.802 14.792,10.297 14.366 C 10.141 14.235,9.943 14.090,9.857 14.044 C 9.674 13.946,9.365 13.935,9.171 14.019 M18.614 15.057 C 18.377 15.131,18.212 15.261,18.109 15.453 C 18.024 15.613,18.020 15.668,18.008 16.810 L 17.996 18.000 16.904 18.000 C 15.744 18.000,15.570 18.022,15.322 18.199 C 15.100 18.357,15.020 18.568,15.020 19.000 C 15.020 19.331,15.033 19.403,15.120 19.558 C 15.230 19.755,15.414 19.898,15.635 19.959 C 15.716 19.982,16.270 20.000,16.890 20.000 L 18.000 20.000 18.000 21.110 C 18.000 21.730,18.018 22.284,18.041 22.365 C 18.148 22.750,18.437 22.962,18.896 22.991 C 19.381 23.022,19.699 22.882,19.880 22.558 C 19.979 22.381,19.980 22.374,19.993 21.190 L 20.005 20.000 21.113 20.000 C 21.731 20.000,22.284 19.982,22.365 19.959 C 22.586 19.898,22.770 19.755,22.880 19.558 C 22.967 19.402,22.980 19.332,22.979 19.000 C 22.978 18.567,22.898 18.355,22.678 18.199 C 22.430 18.022,22.256 18.000,21.096 18.000 L 20.005 18.000 19.993 16.810 C 19.981 15.669,19.976 15.613,19.891 15.453 C 19.842 15.362,19.746 15.247,19.678 15.199 C 19.414 15.010,18.957 14.950,18.614 15.057 " stroke="none" fill="black" fill-rule="evenodd"></path></svg>