<svg xmlns="http://www.w3.org/2000/svg" width="24" height="24" viewBox="0 0 24 24" fill="none" stroke="currentColor" stroke-width="2" stroke-linecap="round" stroke-linejoin="round" class="icon icon-tabler icons-tabler-outline icon-tabler-basket-pause"><path d="M8.780 2.989 C 8.562 3.028,8.511 3.050,8.378 3.167 C 8.299 3.236,8.193 3.375,8.143 3.476 C 8.092 3.577,7.802 4.410,7.497 5.327 L 6.943 6.994 5.721 7.010 C 4.375 7.027,4.276 7.042,3.730 7.299 C 3.346 7.480,3.148 7.620,2.862 7.915 C 2.529 8.256,2.314 8.609,2.159 9.067 C 2.037 9.427,2.026 9.501,2.024 9.960 C 2.023 10.432,2.059 10.664,2.673 14.140 C 3.329 17.851,3.379 18.106,3.548 18.538 C 3.919 19.493,4.860 20.394,5.866 20.758 C 6.528 20.997,6.579 21.000,10.055 21.000 C 12.052 21.000,13.273 20.985,13.365 20.959 C 13.586 20.898,13.770 20.755,13.880 20.558 C 13.967 20.402,13.980 20.332,13.979 20.000 C 13.977 19.469,13.852 19.247,13.455 19.071 C 13.366 19.032,12.598 19.015,10.080 18.999 L 6.820 18.978 6.565 18.884 C 5.980 18.667,5.481 18.122,5.322 17.526 C 5.261 17.298,4.000 10.084,4.000 9.962 C 4.000 9.759,4.126 9.481,4.300 9.302 C 4.551 9.044,4.736 9.000,5.585 9.000 L 6.275 9.000 6.159 9.344 C 5.986 9.855,5.944 10.110,5.998 10.313 C 6.089 10.649,6.427 10.906,6.903 11.000 C 7.205 11.059,7.422 11.008,7.623 10.832 C 7.814 10.664,7.893 10.498,8.160 9.700 L 8.387 9.020 12.000 9.020 L 15.613 9.020 15.840 9.700 C 16.107 10.498,16.186 10.664,16.377 10.832 C 16.571 11.002,16.799 11.059,17.067 11.005 C 17.569 10.905,17.911 10.652,18.002 10.314 C 18.057 10.110,18.015 9.856,17.840 9.341 L 17.723 8.994 18.492 9.007 C 19.203 9.019,19.274 9.027,19.451 9.114 C 19.698 9.236,19.901 9.500,19.964 9.782 C 20.009 9.985,19.996 10.092,19.763 11.421 C 19.455 13.181,19.452 13.206,19.547 13.458 C 19.671 13.789,19.978 13.976,20.480 14.027 C 20.924 14.072,21.253 13.885,21.393 13.508 C 21.436 13.393,21.592 12.607,21.740 11.760 C 21.982 10.374,22.007 10.182,21.989 9.840 C 21.951 9.120,21.650 8.440,21.138 7.915 C 20.852 7.620,20.654 7.480,20.270 7.299 C 19.724 7.042,19.625 7.027,18.279 7.010 L 17.057 6.994 16.503 5.327 C 16.198 4.410,15.914 3.588,15.870 3.500 C 15.693 3.141,15.465 2.990,15.103 2.992 C 14.591 2.995,14.102 3.300,14.000 3.679 C 13.932 3.933,13.975 4.106,14.480 5.621 C 14.722 6.346,14.920 6.952,14.920 6.969 C 14.920 6.986,13.606 7.000,12.000 7.000 C 10.394 7.000,9.080 6.986,9.080 6.969 C 9.080 6.952,9.278 6.346,9.520 5.621 C 9.761 4.897,9.979 4.203,10.003 4.080 C 10.065 3.768,10.001 3.550,9.786 3.337 C 9.558 3.110,9.062 2.939,8.780 2.989 M11.499 11.040 C 10.363 11.246,9.460 12.049,9.114 13.160 C 8.979 13.594,8.979 14.406,9.114 14.840 C 9.421 15.826,10.174 16.579,11.160 16.886 C 11.594 17.021,12.406 17.021,12.840 16.886 C 13.826 16.579,14.579 15.826,14.886 14.840 C 15.021 14.406,15.021 13.594,14.886 13.160 C 14.581 12.179,13.810 11.407,12.861 11.129 C 12.500 11.023,11.832 10.980,11.499 11.040 M12.310 13.061 C 12.688 13.173,13.000 13.598,13.000 14.001 C 13.000 14.331,12.784 14.696,12.484 14.872 C 12.328 14.963,12.254 14.980,12.000 14.980 C 11.746 14.980,11.672 14.963,11.516 14.872 C 10.935 14.530,10.833 13.774,11.304 13.303 C 11.583 13.024,11.916 12.944,12.310 13.061 M16.614 16.057 C 16.377 16.131,16.212 16.261,16.109 16.453 L 16.020 16.620 16.009 19.412 C 16.002 21.226,16.012 22.257,16.039 22.356 C 16.144 22.747,16.433 22.961,16.896 22.991 C 17.381 23.022,17.699 22.882,17.880 22.558 L 17.980 22.380 17.980 19.500 L 17.980 16.620 17.891 16.453 C 17.842 16.362,17.746 16.247,17.678 16.199 C 17.414 16.010,16.957 15.950,16.614 16.057 M20.614 16.057 C 20.377 16.131,20.212 16.261,20.109 16.453 L 20.020 16.620 20.009 19.412 C 20.002 21.226,20.012 22.257,20.039 22.356 C 20.144 22.747,20.433 22.961,20.896 22.991 C 21.381 23.022,21.699 22.882,21.880 22.558 L 21.980 22.380 21.980 19.500 L 21.980 16.620 21.891 16.453 C 21.842 16.362,21.746 16.247,21.678 16.199 C 21.414 16.010,20.957 15.950,20.614 16.057 " stroke="none" fill="black" fill-rule="evenodd"></path></svg>