<svg xmlns="http://www.w3.org/2000/svg" width="24" height="24" viewBox="0 0 24 24" fill="none" stroke="currentColor" stroke-width="2" stroke-linecap="round" stroke-linejoin="round" class="icon icon-tabler icons-tabler-outline icon-tabler-script"><path d="M8.499 3.043 C 7.390 3.231,6.488 4.024,6.114 5.140 L 6.020 5.420 6.009 9.210 L 5.997 13.000 5.889 13.000 C 5.663 13.001,5.001 13.120,4.755 13.204 C 3.847 13.515,3.028 14.170,2.569 14.953 C 1.696 16.441,1.848 18.269,2.954 19.584 C 3.529 20.266,4.331 20.735,5.243 20.921 C 5.622 20.998,5.805 21.000,12.000 21.000 C 18.195 21.000,18.378 20.998,18.757 20.921 C 20.117 20.643,21.193 19.755,21.704 18.488 C 21.779 18.300,21.877 17.970,21.921 17.753 C 22.000 17.367,22.002 17.232,21.991 11.389 L 21.980 5.420 21.886 5.140 C 21.556 4.158,20.821 3.425,19.861 3.121 L 19.540 3.020 14.120 3.014 C 11.139 3.011,8.609 3.024,8.499 3.043 M19.310 5.061 C 19.589 5.144,19.856 5.411,19.939 5.690 C 20.028 5.989,20.030 17.032,19.941 17.451 C 19.863 17.821,19.710 18.091,19.400 18.404 C 19.119 18.690,18.854 18.846,18.492 18.940 C 18.172 19.024,16.828 19.024,16.508 18.940 C 15.823 18.762,15.249 18.194,15.073 17.523 C 14.848 16.661,15.181 15.810,15.937 15.314 C 16.239 15.116,16.481 15.044,16.983 15.003 C 17.744 14.940,17.978 14.704,17.978 14.000 C 17.978 13.567,17.899 13.356,17.678 13.199 C 17.392 12.995,17.516 13.000,12.594 13.000 L 8.000 13.000 8.000 9.447 C 8.000 5.423,7.985 5.621,8.304 5.303 C 8.621 4.985,8.234 5.006,13.983 5.003 C 18.458 5.000,19.131 5.008,19.310 5.061 M13.520 15.032 C 13.520 15.050,13.503 15.081,13.483 15.102 C 13.394 15.194,13.158 15.859,13.082 16.228 C 12.976 16.748,12.976 17.252,13.082 17.772 C 13.158 18.141,13.394 18.806,13.483 18.898 C 13.503 18.919,13.520 18.950,13.520 18.968 C 13.520 18.986,11.769 19.000,9.628 19.000 C 5.410 19.000,5.525 19.006,5.083 18.781 C 4.975 18.727,4.782 18.585,4.653 18.465 C 3.665 17.547,3.829 15.981,4.987 15.279 C 5.456 14.995,5.296 15.005,9.630 15.002 C 11.770 15.001,13.520 15.014,13.520 15.032 " stroke="none" fill="black" fill-rule="evenodd"></path></svg>