<svg xmlns="http://www.w3.org/2000/svg" width="24" height="24" viewBox="0 0 24 24" fill="none" stroke="currentColor" stroke-width="2" stroke-linecap="round" stroke-linejoin="round" class="icon icon-tabler icons-tabler-outline icon-tabler-relation-many-to-many"><path d="M4.499 4.043 C 3.380 4.232,2.461 5.048,2.114 6.160 L 2.020 6.460 2.020 12.000 L 2.020 17.540 2.114 17.840 C 2.422 18.827,3.173 19.578,4.160 19.886 L 4.460 19.980 12.000 19.980 L 19.540 19.980 19.840 19.886 C 20.827 19.578,21.578 18.827,21.886 17.840 L 21.980 17.540 21.980 12.000 L 21.980 6.460 21.886 6.160 C 21.581 5.182,20.832 4.428,19.861 4.121 L 19.540 4.020 12.120 4.014 C 8.039 4.011,4.609 4.024,4.499 4.043 M19.310 6.061 C 19.589 6.144,19.856 6.411,19.939 6.690 C 19.992 6.868,20.000 7.546,20.000 12.001 C 20.000 16.212,19.990 17.139,19.945 17.290 C 19.872 17.533,19.707 17.740,19.484 17.872 L 19.300 17.980 12.000 17.980 L 4.700 17.980 4.516 17.872 C 4.303 17.747,4.141 17.550,4.058 17.316 C 3.969 17.061,3.971 6.993,4.061 6.690 C 4.140 6.421,4.412 6.143,4.673 6.063 C 4.964 5.974,19.009 5.971,19.310 6.061 M5.614 9.055 C 5.375 9.133,5.211 9.262,5.109 9.453 C 5.020 9.619,5.020 9.629,5.009 11.911 C 5.001 13.392,5.012 14.256,5.039 14.355 C 5.144 14.747,5.433 14.961,5.896 14.991 C 6.381 15.022,6.699 14.882,6.879 14.558 C 6.971 14.393,6.980 14.329,6.999 13.704 L 7.020 13.027 7.680 13.904 C 8.435 14.906,8.583 15.040,8.935 15.040 C 9.328 15.039,9.728 14.781,9.900 14.417 L 10.003 14.198 9.992 11.909 C 9.980 9.629,9.980 9.619,9.891 9.453 C 9.785 9.256,9.622 9.131,9.371 9.055 C 8.861 8.902,8.310 9.076,8.110 9.453 C 8.032 9.600,8.019 9.700,8.001 10.296 L 7.980 10.973 7.320 10.097 C 6.755 9.348,6.633 9.209,6.472 9.127 C 6.241 9.010,5.852 8.977,5.614 9.055 M14.614 9.055 C 14.375 9.133,14.211 9.262,14.109 9.453 C 14.020 9.619,14.020 9.629,14.009 11.911 C 14.001 13.392,14.012 14.256,14.039 14.355 C 14.144 14.747,14.433 14.961,14.896 14.991 C 15.381 15.022,15.699 14.882,15.879 14.558 C 15.971 14.393,15.980 14.329,15.999 13.704 L 16.020 13.027 16.680 13.904 C 17.435 14.906,17.583 15.040,17.935 15.040 C 18.328 15.039,18.728 14.781,18.900 14.417 L 19.003 14.198 18.992 11.909 C 18.980 9.629,18.980 9.619,18.891 9.453 C 18.785 9.256,18.622 9.131,18.371 9.055 C 17.861 8.902,17.310 9.076,17.110 9.453 C 17.032 9.600,17.019 9.700,17.001 10.296 L 16.980 10.973 16.320 10.097 C 15.755 9.348,15.633 9.209,15.472 9.127 C 15.241 9.010,14.852 8.977,14.614 9.055 M11.545 9.579 C 11.171 9.712,10.973 10.090,11.009 10.603 C 11.047 11.127,11.276 11.399,11.754 11.488 C 12.254 11.581,12.714 11.403,12.884 11.051 C 13.002 10.807,13.029 10.400,12.945 10.112 C 12.870 9.852,12.655 9.630,12.413 9.563 C 12.200 9.504,11.731 9.513,11.545 9.579 M11.545 12.579 C 11.171 12.712,10.973 13.090,11.009 13.603 C 11.047 14.127,11.276 14.399,11.754 14.488 C 12.254 14.581,12.714 14.403,12.884 14.051 C 13.002 13.807,13.029 13.400,12.945 13.112 C 12.870 12.852,12.655 12.630,12.413 12.563 C 12.200 12.504,11.731 12.513,11.545 12.579 " stroke="none" fill="black" fill-rule="evenodd"></path></svg>