<svg xmlns="http://www.w3.org/2000/svg" width="24" height="24" viewBox="0 0 24 24" fill="none" stroke="currentColor" stroke-width="2" stroke-linecap="round" stroke-linejoin="round" class="icon icon-tabler icons-tabler-outline icon-tabler-gender-bigender"><path d="M16.719 1.999 L 14.658 2.020 14.459 2.122 C 14.119 2.297,13.978 2.606,14.009 3.104 C 14.038 3.563,14.250 3.852,14.635 3.959 C 14.715 3.981,15.185 4.000,15.680 4.000 L 16.580 4.000 15.171 5.409 L 13.761 6.818 13.371 6.612 C 12.689 6.253,12.228 6.113,11.470 6.036 C 10.742 5.962,9.898 6.070,9.248 6.320 C 8.067 6.774,7.072 7.675,6.526 8.785 C 6.158 9.533,6.020 10.136,6.020 11.000 C 6.020 11.670,6.078 12.044,6.268 12.600 C 6.681 13.808,7.542 14.819,8.653 15.402 C 9.073 15.622,9.446 15.769,9.773 15.842 L 10.000 15.893 10.000 16.946 L 10.000 18.000 8.906 18.000 C 7.744 18.000,7.570 18.022,7.322 18.199 C 7.100 18.357,7.020 18.568,7.020 19.000 C 7.020 19.331,7.033 19.403,7.120 19.558 C 7.230 19.755,7.414 19.898,7.635 19.959 C 7.716 19.982,8.270 20.000,8.890 20.000 L 10.000 20.000 10.000 21.110 C 10.000 21.730,10.018 22.284,10.041 22.365 C 10.148 22.750,10.437 22.962,10.896 22.991 C 11.381 23.022,11.699 22.882,11.880 22.558 C 11.979 22.381,11.980 22.374,11.993 21.190 L 12.005 20.000 13.113 20.000 C 13.731 20.000,14.284 19.982,14.365 19.959 C 14.586 19.898,14.770 19.755,14.880 19.558 C 14.967 19.402,14.980 19.332,14.979 19.000 C 14.978 18.567,14.898 18.355,14.678 18.199 C 14.430 18.022,14.256 18.000,13.094 18.000 L 12.000 18.000 12.000 16.946 L 12.000 15.893 12.227 15.842 C 13.016 15.665,13.963 15.116,14.586 14.474 C 15.243 13.796,15.700 12.927,15.907 11.960 C 15.960 11.714,15.980 11.448,15.980 11.000 C 15.980 10.083,15.837 9.499,15.408 8.667 L 15.185 8.235 16.593 6.828 L 18.000 5.420 18.000 6.320 C 18.000 6.815,18.019 7.285,18.041 7.365 C 18.148 7.750,18.437 7.962,18.896 7.991 C 19.381 8.022,19.699 7.882,19.880 7.558 L 19.980 7.380 20.008 5.220 C 20.023 4.032,20.036 3.001,20.038 2.929 C 20.041 2.739,19.834 2.310,19.690 2.207 C 19.467 2.048,19.205 1.959,18.987 1.969 C 18.873 1.974,17.852 1.987,16.719 1.999 M11.861 8.129 C 12.804 8.405,13.584 9.183,13.875 10.139 C 13.958 10.412,13.973 10.542,13.973 11.000 C 13.973 11.458,13.958 11.588,13.875 11.861 C 13.582 12.822,12.819 13.581,11.840 13.886 C 11.406 14.021,10.594 14.021,10.160 13.886 C 9.181 13.581,8.418 12.822,8.125 11.861 C 8.042 11.588,8.027 11.458,8.027 11.000 C 8.027 10.542,8.042 10.412,8.125 10.139 C 8.456 9.054,9.371 8.245,10.499 8.040 C 10.832 7.980,11.500 8.023,11.861 8.129 " stroke="none" fill="black" fill-rule="evenodd"></path></svg>