<svg xmlns="http://www.w3.org/2000/svg" width="24" height="24" viewBox="0 0 24 24" fill="none" stroke="currentColor" stroke-width="2" stroke-linecap="round" stroke-linejoin="round" class="icon icon-tabler icons-tabler-outline icon-tabler-droplet-search"><path d="M11.491 2.060 C 10.998 2.168,10.492 2.465,10.176 2.833 C 10.103 2.920,8.915 4.662,7.537 6.705 C 5.491 9.740,4.986 10.515,4.779 10.940 C 4.004 12.530,3.807 14.240,4.202 15.952 C 4.766 18.400,6.555 20.450,8.968 21.416 C 9.723 21.718,10.632 21.926,11.443 21.983 C 12.231 22.038,12.594 21.774,12.665 21.094 C 12.710 20.656,12.538 20.274,12.227 20.123 C 12.099 20.061,11.886 20.020,11.474 19.977 C 10.597 19.886,9.906 19.695,9.238 19.359 C 8.216 18.845,7.253 17.927,6.713 16.950 C 5.819 15.335,5.778 13.395,6.604 11.753 C 6.828 11.307,11.656 4.155,11.790 4.070 C 11.923 3.986,12.048 3.981,12.192 4.056 C 12.266 4.094,13.091 5.286,14.791 7.810 C 16.160 9.844,17.348 11.575,17.431 11.657 C 17.630 11.857,17.812 11.930,18.062 11.911 C 18.328 11.890,18.600 11.754,18.834 11.525 C 19.140 11.227,19.191 10.895,18.991 10.502 C 18.946 10.413,17.782 8.666,16.406 6.620 C 14.638 3.993,13.835 2.833,13.673 2.673 C 13.139 2.144,12.253 1.895,11.491 2.060 M17.358 14.061 C 16.230 14.237,15.143 14.974,14.569 15.953 C 13.320 18.083,14.233 20.785,16.512 21.704 C 17.475 22.092,18.529 22.091,19.498 21.700 C 19.691 21.622,19.887 21.532,19.933 21.500 C 20.012 21.444,20.052 21.476,20.738 22.155 C 21.512 22.921,21.693 23.049,22.000 23.049 C 22.477 23.049,23.049 22.477,23.049 22.000 C 23.049 21.693,22.921 21.512,22.155 20.738 C 21.476 20.052,21.444 20.012,21.500 19.933 C 21.619 19.762,21.844 19.135,21.921 18.757 C 22.070 18.024,21.994 17.230,21.705 16.516 C 21.172 15.197,20.001 14.269,18.605 14.058 C 18.144 13.989,17.816 13.990,17.358 14.061 M18.523 16.073 C 19.262 16.266,19.850 16.924,19.967 17.690 C 20.067 18.343,19.873 18.933,19.403 19.404 C 19.002 19.807,18.547 20.000,18.000 20.000 C 17.485 20.000,17.038 19.822,16.653 19.465 C 15.323 18.229,16.189 16.005,18.000 16.005 C 18.143 16.005,18.378 16.036,18.523 16.073 " stroke="none" fill="black" fill-rule="evenodd"></path></svg>