<svg xmlns="http://www.w3.org/2000/svg" width="24" height="24" viewBox="0 0 24 24" fill="none" stroke="currentColor" stroke-width="2" stroke-linecap="round" stroke-linejoin="round" class="icon icon-tabler icons-tabler-outline icon-tabler-arrow-rotary-first-right"><path d="M7.358 3.061 C 5.731 3.315,4.417 4.584,4.083 6.227 C 3.700 8.105,4.756 10.031,6.540 10.711 C 6.716 10.778,6.891 10.843,6.930 10.855 C 6.996 10.876,7.000 11.135,7.000 15.549 C 7.000 18.555,7.015 20.272,7.041 20.365 C 7.148 20.750,7.437 20.962,7.896 20.991 C 8.381 21.022,8.699 20.882,8.880 20.558 L 8.980 20.380 9.000 15.627 L 9.020 10.874 9.295 10.778 C 9.446 10.725,9.673 10.630,9.800 10.566 L 10.031 10.451 13.305 13.725 L 16.580 17.000 15.196 17.000 C 13.724 17.000,13.579 17.015,13.322 17.199 C 13.139 17.329,13.030 17.573,13.009 17.900 C 12.978 18.381,13.119 18.699,13.442 18.880 L 13.620 18.980 16.280 19.007 C 17.743 19.022,18.999 19.035,19.071 19.037 C 19.224 19.040,19.669 18.847,19.768 18.735 C 19.878 18.610,20.041 18.208,20.037 18.069 C 20.036 17.998,20.022 16.743,20.007 15.280 L 19.980 12.620 19.889 12.450 C 19.724 12.140,19.329 11.970,18.874 12.011 C 18.439 12.051,18.141 12.274,18.041 12.635 C 18.017 12.719,18.000 13.366,18.000 14.180 L 18.000 15.580 14.721 12.301 C 11.514 9.094,11.444 9.020,11.502 8.931 C 11.627 8.740,11.844 8.131,11.921 7.757 C 12.070 7.024,11.994 6.230,11.705 5.516 C 11.172 4.197,10.001 3.269,8.605 3.058 C 8.144 2.989,7.816 2.990,7.358 3.061 M8.523 5.073 C 9.262 5.266,9.850 5.924,9.967 6.690 C 10.067 7.343,9.873 7.933,9.403 8.404 C 9.002 8.807,8.547 9.000,8.000 9.000 C 7.485 9.000,7.038 8.822,6.653 8.465 C 5.323 7.229,6.189 5.005,8.000 5.005 C 8.143 5.005,8.378 5.036,8.523 5.073 " stroke="none" fill="black" fill-rule="evenodd"></path></svg>