<svg xmlns="http://www.w3.org/2000/svg" width="24" height="24" viewBox="0 0 24 24" fill="none" stroke="currentColor" stroke-width="2" stroke-linecap="round" stroke-linejoin="round" class="icon icon-tabler icons-tabler-outline icon-tabler-currency-hryvnia"><path d="M9.925 4.059 C 9.164 4.200,8.463 4.577,7.937 5.127 C 7.525 5.559,7.306 5.918,7.122 6.468 C 6.846 7.291,7.009 7.726,7.672 7.940 C 7.789 7.977,7.991 8.008,8.120 8.008 C 8.539 8.008,8.792 7.792,8.952 7.298 C 9.079 6.904,9.222 6.665,9.454 6.452 C 9.703 6.225,9.954 6.094,10.248 6.038 C 10.360 6.017,11.273 6.000,12.277 6.000 C 14.297 6.000,14.389 6.009,14.795 6.252 C 15.067 6.415,15.257 6.631,15.415 6.960 C 15.529 7.198,15.540 7.254,15.540 7.620 C 15.540 7.953,15.524 8.054,15.448 8.220 C 15.309 8.522,15.168 8.708,14.958 8.861 L 14.769 9.000 10.291 9.000 C 5.493 9.000,5.607 8.995,5.322 9.199 C 5.100 9.357,5.020 9.568,5.020 10.000 C 5.020 10.331,5.033 10.403,5.120 10.558 C 5.230 10.755,5.414 10.898,5.635 10.959 C 5.725 10.984,6.726 11.000,8.260 11.001 L 10.740 11.003 9.619 11.571 C 8.429 12.175,8.128 12.364,7.734 12.755 L 7.487 13.000 6.650 13.000 C 5.759 13.000,5.559 13.030,5.322 13.199 C 5.100 13.357,5.020 13.568,5.020 14.000 C 5.020 14.331,5.033 14.403,5.120 14.558 C 5.304 14.888,5.565 14.999,6.149 15.000 L 6.518 15.000 6.489 15.130 C 6.473 15.202,6.462 15.548,6.464 15.900 C 6.467 16.412,6.484 16.600,6.550 16.841 C 6.779 17.681,7.125 18.284,7.687 18.822 C 8.246 19.358,8.766 19.660,9.492 19.868 L 9.860 19.974 11.760 19.990 C 13.062 20.001,13.759 19.991,13.976 19.960 C 14.672 19.859,15.348 19.535,15.881 19.048 C 16.375 18.598,16.673 18.144,16.878 17.533 C 17.038 17.053,17.046 16.705,16.900 16.456 C 16.682 16.084,15.919 15.877,15.506 16.077 C 15.293 16.180,15.141 16.387,15.044 16.705 C 14.853 17.332,14.488 17.729,13.928 17.917 C 13.695 17.996,13.595 18.000,11.997 18.000 C 10.172 18.000,10.068 17.990,9.605 17.771 C 9.291 17.623,8.880 17.217,8.703 16.880 C 8.448 16.394,8.377 15.803,8.513 15.280 L 8.580 15.020 13.480 15.000 C 18.169 14.981,18.386 14.977,18.520 14.905 C 18.876 14.715,18.978 14.514,18.978 14.000 C 18.978 13.567,18.899 13.356,18.678 13.199 C 18.397 12.999,18.428 13.000,14.724 12.998 L 11.260 12.996 13.240 12.000 L 15.220 11.004 16.720 11.002 C 17.594 11.001,18.280 10.983,18.365 10.959 C 18.586 10.898,18.770 10.755,18.880 10.558 C 18.967 10.402,18.980 10.332,18.979 10.000 C 18.978 9.687,18.962 9.591,18.890 9.453 C 18.714 9.121,18.411 9.000,17.754 9.000 C 17.515 9.000,17.320 8.984,17.320 8.965 C 17.320 8.946,17.347 8.865,17.381 8.785 C 17.498 8.505,17.569 8.062,17.569 7.619 C 17.570 6.238,16.794 5.000,15.540 4.379 C 14.821 4.023,14.838 4.025,12.380 4.014 C 10.691 4.007,10.156 4.017,9.925 4.059 " stroke="none" fill="black" fill-rule="evenodd"></path></svg>