<svg xmlns="http://www.w3.org/2000/svg" width="24" height="24" viewBox="0 0 24 24" fill="none" stroke="currentColor" stroke-width="2" stroke-linecap="round" stroke-linejoin="round" class="icon icon-tabler icons-tabler-outline icon-tabler-medal-2"><path d="M8.900 2.005 C 8.639 2.037,8.449 2.120,8.266 2.280 C 8.087 2.437,8.053 2.496,7.962 2.814 C 7.923 2.949,7.256 4.536,6.480 6.340 C 5.673 8.215,5.043 9.731,5.010 9.880 C 4.963 10.087,4.961 10.175,4.997 10.311 C 5.056 10.528,5.242 10.740,5.476 10.857 C 5.577 10.908,6.763 11.316,8.110 11.764 C 9.457 12.213,10.559 12.598,10.558 12.620 C 10.557 12.642,10.391 12.984,10.188 13.380 L 9.820 14.100 8.494 14.324 C 7.378 14.513,7.139 14.565,6.987 14.654 C 6.676 14.836,6.439 15.206,6.441 15.509 C 6.443 15.816,6.563 15.976,7.519 16.938 L 8.435 17.860 8.215 19.380 C 8.074 20.353,8.002 20.974,8.014 21.105 C 8.049 21.481,8.315 21.866,8.621 21.983 C 8.968 22.115,9.077 22.078,10.606 21.316 L 12.000 20.622 13.363 21.301 L 14.727 21.980 15.013 21.979 C 15.393 21.978,15.706 21.840,15.862 21.604 C 16.043 21.331,16.035 21.104,15.785 19.380 L 15.564 17.860 16.440 16.980 C 17.365 16.050,17.449 15.937,17.501 15.539 C 17.532 15.305,17.478 15.068,17.350 14.879 C 17.184 14.633,16.995 14.576,15.530 14.328 L 14.180 14.100 13.812 13.380 C 13.609 12.984,13.443 12.642,13.442 12.620 C 13.441 12.598,14.543 12.213,15.890 11.764 C 17.238 11.316,18.407 10.915,18.489 10.874 C 18.884 10.676,19.072 10.365,19.023 9.993 C 19.004 9.850,18.504 8.636,17.428 6.122 C 15.955 2.682,15.849 2.449,15.678 2.276 C 15.541 2.138,15.446 2.080,15.298 2.045 C 15.084 1.995,9.277 1.958,8.900 2.005 M12.498 7.181 C 13.154 8.931,13.684 10.368,13.675 10.376 C 13.620 10.423,12.658 10.714,12.637 10.690 C 12.622 10.673,12.119 9.184,11.519 7.380 C 10.919 5.576,10.420 4.077,10.410 4.050 C 10.396 4.012,10.500 4.000,10.848 4.000 L 11.305 4.000 12.498 7.181 M15.472 6.640 C 16.094 8.092,16.612 9.305,16.624 9.336 C 16.640 9.377,16.513 9.436,16.139 9.560 C 15.858 9.654,15.618 9.714,15.600 9.694 C 15.581 9.676,15.107 8.436,14.546 6.940 C 13.986 5.444,13.508 4.171,13.484 4.110 L 13.442 4.000 13.891 4.000 L 14.341 4.000 15.472 6.640 M9.649 8.128 C 10.061 9.364,10.393 10.380,10.387 10.387 C 10.380 10.393,9.695 10.172,8.865 9.895 C 7.731 9.517,7.360 9.378,7.376 9.336 C 7.508 8.993,8.860 5.880,8.877 5.880 C 8.890 5.880,9.237 6.891,9.649 8.128 M12.330 14.899 C 12.651 15.544,12.829 15.788,13.055 15.895 C 13.163 15.946,14.229 16.160,14.376 16.160 C 14.397 16.160,14.252 16.327,14.053 16.530 C 13.854 16.733,13.650 16.981,13.600 17.080 C 13.483 17.310,13.486 17.525,13.619 18.434 C 13.674 18.815,13.720 19.152,13.720 19.182 C 13.720 19.217,13.455 19.106,12.983 18.874 C 11.983 18.382,12.017 18.382,11.017 18.874 C 10.545 19.106,10.280 19.217,10.280 19.182 C 10.280 19.152,10.326 18.815,10.381 18.434 C 10.514 17.525,10.517 17.310,10.400 17.080 C 10.350 16.981,10.146 16.733,9.947 16.530 C 9.748 16.327,9.603 16.160,9.624 16.160 C 9.771 16.160,10.837 15.946,10.945 15.895 C 11.171 15.788,11.349 15.544,11.670 14.899 C 11.840 14.559,11.988 14.280,12.000 14.280 C 12.012 14.280,12.160 14.559,12.330 14.899 " stroke="none" fill="black" fill-rule="evenodd"></path></svg>