<svg xmlns="http://www.w3.org/2000/svg" width="24" height="24" viewBox="0 0 24 24" fill="none" stroke="currentColor" stroke-width="2" stroke-linecap="round" stroke-linejoin="round" class="icon icon-tabler icons-tabler-outline icon-tabler-mood-look-right"><path d="M11.080 2.045 C 9.507 2.184,7.883 2.751,6.540 3.630 C 5.905 4.045,5.499 4.378,4.919 4.958 C 2.953 6.926,1.919 9.544,2.013 12.320 C 2.084 14.439,2.752 16.328,4.033 18.040 C 4.430 18.570,5.305 19.464,5.800 19.847 C 7.242 20.961,8.787 21.624,10.600 21.907 C 11.247 22.008,12.753 22.008,13.400 21.907 C 15.638 21.557,17.504 20.620,19.062 19.062 C 20.620 17.504,21.557 15.638,21.907 13.400 C 22.008 12.753,22.008 11.247,21.907 10.600 C 21.624 8.786,20.959 7.238,19.847 5.800 C 19.510 5.365,18.639 4.494,18.200 4.154 C 16.133 2.555,13.646 1.818,11.080 2.045 M12.734 4.041 C 14.574 4.216,16.228 4.976,17.554 6.256 C 19.568 8.199,20.398 10.992,19.797 13.795 L 19.753 14.000 17.783 14.000 C 15.683 14.000,15.590 14.007,15.322 14.199 C 15.139 14.329,15.030 14.573,15.009 14.900 C 14.978 15.381,15.119 15.699,15.442 15.880 L 15.620 15.980 17.274 16.000 L 18.927 16.020 18.691 16.380 C 18.249 17.053,17.501 17.865,16.900 18.325 C 15.492 19.404,13.747 20.000,12.000 20.000 C 10.253 20.000,8.508 19.404,7.100 18.325 C 6.747 18.055,6.190 17.510,5.847 17.100 C 3.848 14.711,3.440 11.302,4.816 8.500 C 6.162 5.760,8.867 4.049,11.920 4.005 C 12.129 4.003,12.495 4.019,12.734 4.041 M14.660 8.037 C 14.215 8.146,14.000 8.459,14.000 8.998 C 14.000 9.654,14.342 10.000,14.991 10.000 C 15.428 9.999,15.712 9.858,15.880 9.558 C 15.967 9.402,15.980 9.332,15.979 9.000 C 15.978 8.567,15.898 8.355,15.678 8.199 C 15.435 8.025,14.995 7.956,14.660 8.037 " stroke="none" fill="black" fill-rule="evenodd"></path></svg>