<svg xmlns="http://www.w3.org/2000/svg" width="24" height="24" viewBox="0 0 24 24" fill="none" stroke="currentColor" stroke-width="2" stroke-linecap="round" stroke-linejoin="round" class="icon icon-tabler icons-tabler-outline icon-tabler-brand-shazam"><path d="M11.080 2.045 C 9.507 2.184,7.883 2.751,6.540 3.630 C 5.905 4.045,5.499 4.378,4.919 4.958 C 2.953 6.926,1.919 9.544,2.013 12.320 C 2.084 14.439,2.752 16.328,4.033 18.040 C 4.430 18.570,5.305 19.464,5.800 19.847 C 7.242 20.961,8.787 21.624,10.600 21.907 C 11.247 22.008,12.753 22.008,13.400 21.907 C 15.638 21.557,17.504 20.620,19.062 19.062 C 20.620 17.504,21.557 15.638,21.907 13.400 C 22.008 12.753,22.008 11.247,21.907 10.600 C 21.624 8.786,20.959 7.238,19.847 5.800 C 19.510 5.365,18.639 4.494,18.200 4.154 C 16.133 2.555,13.646 1.818,11.080 2.045 M12.734 4.041 C 14.574 4.216,16.228 4.976,17.554 6.256 C 20.043 8.658,20.702 12.394,19.183 15.499 C 18.749 16.387,18.223 17.105,17.496 17.801 C 16.876 18.394,16.262 18.819,15.471 19.200 C 13.267 20.265,10.733 20.265,8.529 19.200 C 7.477 18.693,6.612 18.015,5.847 17.100 C 3.848 14.711,3.440 11.302,4.816 8.500 C 6.162 5.760,8.867 4.049,11.920 4.005 C 12.129 4.003,12.495 4.019,12.734 4.041 M10.620 6.046 C 10.426 6.147,7.385 9.161,7.018 9.617 C 6.692 10.021,6.426 10.551,6.293 11.060 C 6.144 11.633,6.144 12.367,6.293 12.940 C 6.646 14.291,7.709 15.354,9.060 15.707 C 9.633 15.856,10.367 15.856,10.940 15.707 C 11.449 15.574,11.979 15.308,12.383 14.983 C 12.868 14.592,14.854 12.573,14.960 12.363 C 15.137 12.011,15.048 11.646,14.701 11.299 C 14.361 10.958,13.980 10.868,13.628 11.045 C 13.524 11.097,13.009 11.577,12.280 12.298 C 11.631 12.941,11.046 13.504,10.980 13.548 C 10.564 13.827,9.855 13.904,9.380 13.721 C 8.375 13.334,7.910 12.219,8.343 11.235 C 8.446 11.001,8.598 10.836,10.163 9.260 C 11.311 8.103,11.900 7.482,11.960 7.363 C 12.137 7.011,12.048 6.646,11.701 6.299 C 11.361 5.959,10.967 5.867,10.620 6.046 M13.611 8.204 C 12.904 8.270,12.179 8.565,11.620 9.015 C 11.132 9.408,9.147 11.426,9.040 11.637 C 8.863 11.989,8.952 12.354,9.299 12.701 C 9.646 13.048,10.011 13.137,10.363 12.959 C 10.478 12.901,10.962 12.451,11.743 11.676 C 12.816 10.611,12.974 10.469,13.213 10.357 C 13.918 10.027,14.736 10.169,15.283 10.717 C 15.822 11.256,15.968 12.057,15.657 12.765 C 15.554 12.999,15.402 13.164,13.837 14.740 C 12.689 15.897,12.100 16.518,12.040 16.637 C 11.863 16.989,11.952 17.354,12.299 17.701 C 12.646 18.048,13.011 18.137,13.363 17.960 C 13.573 17.855,16.580 14.883,16.984 14.380 C 17.307 13.979,17.568 13.458,17.705 12.940 C 17.795 12.602,17.811 12.456,17.811 12.000 C 17.811 11.544,17.795 11.398,17.705 11.060 C 17.216 9.209,15.520 8.026,13.611 8.204 " stroke="none" fill="black" fill-rule="evenodd"></path></svg>