<svg xmlns="http://www.w3.org/2000/svg" width="24" height="24" viewBox="0 0 24 24" fill="none" stroke="currentColor" stroke-width="2" stroke-linecap="round" stroke-linejoin="round" class="icon icon-tabler icons-tabler-outline icon-tabler-ambulance"><path d="M3.477 4.073 C 2.806 4.249,2.238 4.823,2.060 5.508 C 2.008 5.706,2.000 6.518,2.000 11.478 C 2.000 15.201,2.015 17.271,2.041 17.365 C 2.102 17.586,2.245 17.770,2.442 17.880 C 2.610 17.974,2.662 17.981,3.387 18.000 L 4.155 18.020 4.316 18.340 C 4.686 19.071,5.360 19.637,6.160 19.886 C 6.594 20.021,7.406 20.021,7.840 19.886 C 8.645 19.635,9.318 19.069,9.688 18.330 L 9.853 18.000 12.000 18.000 L 14.147 18.000 14.312 18.330 C 14.682 19.069,15.355 19.635,16.160 19.886 C 16.594 20.021,17.406 20.021,17.840 19.886 C 18.645 19.635,19.318 19.069,19.688 18.330 L 19.853 18.000 20.537 18.000 C 20.912 18.000,21.285 17.981,21.365 17.959 C 21.586 17.898,21.770 17.755,21.880 17.558 L 21.980 17.380 22.000 14.140 C 22.015 11.752,22.008 10.851,21.974 10.715 C 21.918 10.495,21.830 10.314,21.741 10.241 C 21.705 10.211,21.034 9.115,20.248 7.805 C 19.463 6.494,18.753 5.355,18.672 5.273 C 18.405 5.004,18.366 5.000,16.058 5.000 L 14.010 5.000 13.983 4.794 C 13.948 4.531,13.835 4.310,13.678 4.199 C 13.392 3.995,13.527 4.000,8.464 4.002 C 4.132 4.004,3.718 4.010,3.477 4.073 M12.000 11.000 L 12.000 16.000 10.927 16.000 L 9.853 16.000 9.688 15.670 C 9.321 14.938,8.642 14.363,7.861 14.125 C 7.588 14.042,7.458 14.027,7.000 14.027 C 6.542 14.027,6.412 14.042,6.139 14.125 C 5.358 14.363,4.679 14.938,4.312 15.670 C 4.195 15.904,4.125 16.000,4.073 16.000 C 4.003 16.000,4.000 15.825,4.000 11.000 L 4.000 6.000 8.000 6.000 L 12.000 6.000 12.000 11.000 M7.614 7.057 C 7.377 7.131,7.212 7.261,7.109 7.453 C 7.029 7.603,7.019 7.689,7.007 8.310 L 6.993 9.000 6.403 9.000 C 5.577 9.000,5.299 9.097,5.109 9.453 C 5.035 9.592,5.020 9.684,5.020 10.000 C 5.020 10.331,5.033 10.403,5.120 10.558 C 5.230 10.755,5.414 10.898,5.635 10.959 C 5.715 10.981,6.055 11.000,6.390 11.000 L 7.000 11.000 7.000 11.610 C 7.000 11.945,7.019 12.285,7.041 12.365 C 7.148 12.750,7.437 12.962,7.896 12.991 C 8.381 13.022,8.699 12.882,8.880 12.558 C 8.974 12.391,8.981 12.338,8.994 11.690 L 9.008 11.000 9.614 11.000 C 9.947 11.000,10.285 10.981,10.365 10.959 C 10.586 10.898,10.770 10.755,10.880 10.558 C 10.967 10.402,10.980 10.332,10.979 10.000 C 10.978 9.687,10.962 9.591,10.890 9.453 C 10.702 9.098,10.423 9.000,9.598 9.000 L 9.008 9.000 8.993 8.310 C 8.976 7.541,8.930 7.378,8.678 7.199 C 8.414 7.010,7.957 6.950,7.614 7.057 M18.314 8.477 C 18.801 9.289,19.200 9.964,19.200 9.977 C 19.200 9.990,18.030 10.000,16.600 10.000 L 14.000 10.000 14.000 8.500 L 14.000 7.000 15.714 7.000 L 17.429 7.000 18.314 8.477 M20.000 14.000 C 20.000 15.914,19.997 16.000,19.927 16.000 C 19.875 16.000,19.805 15.904,19.688 15.670 C 19.321 14.938,18.642 14.363,17.861 14.125 C 17.588 14.042,17.458 14.027,17.000 14.027 C 16.542 14.027,16.412 14.042,16.139 14.125 C 15.358 14.363,14.679 14.938,14.312 15.670 C 14.195 15.904,14.125 16.000,14.073 16.000 C 14.003 16.000,14.000 15.914,14.000 14.000 L 14.000 12.000 17.000 12.000 L 20.000 12.000 20.000 14.000 M7.334 16.064 C 7.698 16.188,8.000 16.613,8.000 17.001 C 8.000 17.331,7.784 17.696,7.484 17.872 C 7.328 17.963,7.254 17.980,7.000 17.980 C 6.746 17.980,6.672 17.963,6.516 17.872 C 5.937 17.531,5.833 16.774,6.301 16.306 C 6.587 16.019,6.952 15.934,7.334 16.064 M17.334 16.064 C 17.698 16.188,18.000 16.613,18.000 17.001 C 18.000 17.331,17.784 17.696,17.484 17.872 C 17.328 17.963,17.254 17.980,17.000 17.980 C 16.746 17.980,16.672 17.963,16.516 17.872 C 15.934 17.529,15.831 16.775,16.304 16.303 C 16.587 16.019,16.954 15.935,17.334 16.064 " stroke="none" fill="black" fill-rule="evenodd"></path></svg>