<svg xmlns="http://www.w3.org/2000/svg" width="24" height="24" viewBox="0 0 24 24" fill="none" stroke="currentColor" stroke-width="2" stroke-linecap="round" stroke-linejoin="round" class="icon icon-tabler icons-tabler-outline icon-tabler-egg-cracked"><path d="M11.260 2.064 C 10.750 2.153,10.309 2.306,9.766 2.582 C 6.944 4.015,4.644 7.988,4.094 12.380 C 4.005 13.090,3.994 14.803,4.074 15.340 C 4.424 17.677,5.513 19.479,7.300 20.676 C 8.917 21.759,11.145 22.214,13.198 21.879 C 17.084 21.245,19.598 18.652,19.964 14.900 C 20.021 14.319,19.990 13.124,19.899 12.360 C 19.479 8.827,17.778 5.333,15.580 3.488 C 14.192 2.322,12.660 1.817,11.260 2.064 M13.260 4.338 C 14.890 5.119,16.473 7.312,17.332 9.980 C 17.952 11.907,18.155 14.136,17.839 15.562 C 17.544 16.896,16.779 18.058,15.692 18.822 C 14.527 19.642,12.733 20.108,11.288 19.966 C 9.129 19.753,7.538 18.749,6.676 17.054 C 6.055 15.833,5.886 14.518,6.103 12.590 C 6.317 10.695,6.945 8.840,7.939 7.164 C 8.594 6.062,9.554 5.020,10.375 4.522 C 10.517 4.435,10.527 4.434,10.505 4.504 C 10.216 5.418,9.480 7.953,9.480 8.032 C 9.481 8.235,9.565 8.446,9.711 8.607 C 9.791 8.696,10.488 9.219,11.259 9.769 C 12.029 10.320,12.665 10.774,12.671 10.779 C 12.677 10.784,12.327 11.407,11.894 12.164 C 11.461 12.921,11.073 13.626,11.033 13.730 C 10.892 14.097,10.953 14.388,11.224 14.652 C 11.533 14.952,12.019 15.106,12.332 15.003 C 12.600 14.914,12.792 14.635,13.806 12.860 C 14.969 10.825,14.998 10.769,15.027 10.523 C 15.054 10.295,14.957 10.043,14.769 9.855 C 14.679 9.765,12.063 7.867,11.705 7.633 C 11.678 7.615,11.838 7.021,12.157 5.953 C 12.429 5.044,12.667 4.258,12.686 4.207 C 12.728 4.093,12.768 4.102,13.260 4.338 " stroke="none" fill="black" fill-rule="evenodd"></path></svg>