<svg xmlns="http://www.w3.org/2000/svg" width="24" height="24" viewBox="0 0 24 24" fill="none" stroke="currentColor" stroke-width="2" stroke-linecap="round" stroke-linejoin="round" class="icon icon-tabler icons-tabler-outline icon-tabler-mood-check"><path d="M11.080 2.042 C 9.165 2.226,7.360 2.948,5.800 4.154 C 5.303 4.538,4.429 5.432,4.033 5.960 C 2.625 7.841,1.935 10.012,2.013 12.320 C 2.084 14.439,2.752 16.328,4.033 18.040 C 4.430 18.570,5.305 19.464,5.800 19.847 C 7.524 21.179,9.476 21.901,11.580 21.986 C 12.410 22.019,12.669 21.934,12.880 21.558 C 12.967 21.402,12.980 21.332,12.979 21.000 C 12.978 20.687,12.962 20.591,12.890 20.453 C 12.726 20.143,12.405 20.000,11.872 20.000 C 10.261 20.000,8.463 19.369,7.100 18.325 C 6.747 18.055,6.190 17.510,5.847 17.100 C 3.848 14.711,3.440 11.302,4.816 8.500 C 5.618 6.867,6.867 5.618,8.500 4.816 C 12.404 2.899,17.147 4.491,19.130 8.386 C 19.812 9.725,20.082 11.133,19.960 12.710 C 19.904 13.433,19.920 13.570,20.092 13.815 C 20.283 14.087,20.997 14.248,21.374 14.105 C 21.732 13.968,21.861 13.726,21.942 13.042 C 22.207 10.815,21.610 8.396,20.316 6.460 C 18.720 4.071,16.245 2.514,13.380 2.097 C 12.880 2.024,11.585 1.993,11.080 2.042 M8.614 9.055 C 8.220 9.184,8.039 9.437,8.009 9.900 C 7.978 10.381,8.119 10.699,8.442 10.880 C 8.597 10.967,8.669 10.980,9.000 10.980 C 9.312 10.980,9.408 10.964,9.540 10.894 C 9.866 10.718,10.000 10.459,10.000 10.000 C 10.000 9.357,9.713 9.048,9.083 9.016 C 8.893 9.006,8.718 9.021,8.614 9.055 M14.614 9.055 C 14.220 9.184,14.039 9.437,14.009 9.900 C 13.978 10.381,14.119 10.699,14.442 10.880 C 14.597 10.967,14.669 10.980,15.000 10.980 C 15.312 10.980,15.408 10.964,15.540 10.894 C 15.866 10.718,16.000 10.459,16.000 10.000 C 16.000 9.357,15.713 9.048,15.083 9.016 C 14.893 9.006,14.718 9.021,14.614 9.055 M9.171 14.019 C 8.968 14.108,8.637 14.440,8.535 14.660 C 8.351 15.052,8.423 15.307,8.838 15.723 C 9.809 16.697,11.304 17.168,12.707 16.940 C 13.682 16.782,14.521 16.366,15.162 15.723 C 15.469 15.415,15.561 15.243,15.560 14.975 C 15.559 14.681,15.155 14.157,14.820 14.018 C 14.620 13.934,14.327 13.945,14.143 14.044 C 14.057 14.090,13.859 14.235,13.703 14.366 C 13.198 14.792,12.642 14.999,12.000 14.999 C 11.358 14.999,10.802 14.792,10.297 14.366 C 10.141 14.235,9.943 14.090,9.857 14.044 C 9.674 13.946,9.365 13.935,9.171 14.019 M20.620 16.046 C 20.525 16.095,19.753 16.834,18.731 17.853 L 17.001 19.577 16.271 18.854 C 15.856 18.444,15.467 18.094,15.372 18.045 C 15.021 17.868,14.640 17.958,14.299 18.299 C 13.952 18.646,13.863 19.010,14.040 19.363 C 14.162 19.607,16.393 21.838,16.637 21.960 C 16.868 22.076,17.132 22.076,17.363 21.961 C 17.486 21.899,18.197 21.215,19.706 19.706 C 21.215 18.197,21.899 17.486,21.961 17.363 C 22.137 17.010,22.048 16.645,21.701 16.299 C 21.361 15.959,20.967 15.867,20.620 16.046 " stroke="none" fill="black" fill-rule="evenodd"></path></svg>