<svg xmlns="http://www.w3.org/2000/svg" width="24" height="24" viewBox="0 0 24 24" fill="none" stroke="currentColor" stroke-width="2" stroke-linecap="round" stroke-linejoin="round" class="icon icon-tabler icons-tabler-outline icon-tabler-clock-play"><path d="M11.140 2.042 C 9.707 2.187,8.478 2.555,7.279 3.200 C 6.190 3.785,5.220 4.556,4.461 5.440 C 3.192 6.916,2.454 8.509,2.114 10.502 C 1.994 11.203,1.985 12.700,2.096 13.400 C 2.485 15.865,3.642 17.988,5.440 19.535 C 6.724 20.640,8.060 21.328,9.680 21.719 C 10.416 21.896,10.897 21.961,11.680 21.987 C 12.973 22.031,13.646 21.902,13.867 21.569 C 14.146 21.148,14.016 20.344,13.628 20.087 L 13.466 19.980 12.243 19.978 C 10.940 19.975,10.795 19.960,9.980 19.743 C 7.550 19.096,5.571 17.364,4.607 15.040 C 3.920 13.385,3.820 11.567,4.318 9.794 C 4.697 8.442,5.345 7.360,6.396 6.320 C 7.872 4.861,9.663 4.093,11.780 4.011 C 13.056 3.962,14.303 4.232,15.500 4.818 C 17.218 5.657,18.518 7.003,19.299 8.750 C 19.937 10.178,20.143 11.719,19.898 13.221 C 19.779 13.948,19.874 14.276,20.264 14.487 C 20.691 14.719,21.228 14.713,21.500 14.474 C 21.700 14.299,21.788 14.077,21.885 13.500 C 22.006 12.788,22.016 11.338,21.905 10.620 C 21.595 8.618,20.825 6.936,19.533 5.436 C 17.972 3.624,15.666 2.394,13.240 2.080 C 12.772 2.019,11.576 1.997,11.140 2.042 M11.614 6.057 C 11.377 6.131,11.212 6.261,11.109 6.453 L 11.020 6.620 11.020 9.460 L 11.020 12.300 11.127 12.480 C 11.281 12.739,13.416 14.848,13.637 14.960 C 13.989 15.137,14.354 15.048,14.701 14.701 C 15.048 14.354,15.137 13.989,14.960 13.637 C 14.903 13.525,14.527 13.114,13.937 12.520 L 13.003 11.579 12.991 9.100 C 12.980 6.623,12.980 6.620,12.891 6.453 C 12.842 6.362,12.746 6.247,12.678 6.199 C 12.414 6.010,11.957 5.950,11.614 6.057 M16.595 15.040 C 16.515 15.083,16.377 15.200,16.288 15.301 C 15.987 15.642,16.000 15.474,16.000 19.037 C 16.000 21.046,16.015 22.273,16.041 22.365 C 16.143 22.734,16.433 22.956,16.858 22.990 C 17.007 23.002,17.172 22.990,17.264 22.960 C 17.521 22.877,22.641 19.785,22.808 19.613 C 22.889 19.529,22.974 19.409,22.998 19.347 C 23.106 19.061,22.981 18.593,22.727 18.333 C 22.562 18.164,17.513 15.116,17.236 15.019 C 17.012 14.939,16.770 14.948,16.595 15.040 M18.994 18.366 C 19.514 18.677,19.961 18.951,19.987 18.976 C 20.022 19.009,19.777 19.174,19.017 19.628 L 18.000 20.236 18.000 19.018 C 18.000 18.348,18.011 17.800,18.024 17.800 C 18.037 17.800,18.473 18.054,18.994 18.366 " stroke="none" fill="black" fill-rule="evenodd"></path></svg>