<svg xmlns="http://www.w3.org/2000/svg" width="24" height="24" viewBox="0 0 24 24" fill="none" stroke="currentColor" stroke-width="2" stroke-linecap="round" stroke-linejoin="round" class="icon icon-tabler icons-tabler-outline icon-tabler-shopping-cart-search"><path d="M3.614 2.057 C 3.377 2.131,3.212 2.261,3.109 2.453 C 3.035 2.592,3.020 2.684,3.020 3.000 C 3.020 3.331,3.033 3.403,3.120 3.558 C 3.230 3.755,3.414 3.898,3.635 3.959 C 3.715 3.981,4.054 4.000,4.390 4.000 L 5.000 4.000 5.000 10.073 L 5.000 16.145 4.670 16.313 C 3.922 16.693,3.365 17.355,3.114 18.160 C 2.979 18.594,2.979 19.406,3.114 19.840 C 3.421 20.826,4.174 21.579,5.160 21.886 C 5.594 22.021,6.406 22.021,6.840 21.886 C 7.826 21.579,8.579 20.826,8.886 19.840 C 9.032 19.372,9.015 18.479,8.854 18.057 C 8.835 18.008,9.004 18.000,10.026 18.000 C 10.702 18.000,11.283 17.982,11.365 17.959 C 11.586 17.898,11.770 17.755,11.880 17.558 C 11.967 17.402,11.980 17.332,11.979 17.000 C 11.978 16.567,11.898 16.355,11.678 16.199 C 11.408 16.006,11.326 16.000,9.094 16.000 L 7.000 16.000 7.000 15.000 L 7.000 14.000 10.110 14.000 C 12.070 14.000,13.274 13.985,13.365 13.959 C 13.586 13.898,13.770 13.755,13.880 13.558 C 13.967 13.402,13.980 13.332,13.979 13.000 C 13.978 12.567,13.898 12.355,13.678 12.199 C 13.399 12.000,13.401 12.000,10.094 12.000 L 7.000 12.000 7.000 9.040 C 7.000 7.412,7.010 6.080,7.023 6.080 C 7.182 6.080,18.820 6.926,18.832 6.939 C 18.842 6.948,18.721 7.852,18.565 8.948 C 18.408 10.044,18.280 11.030,18.281 11.140 C 18.282 11.366,18.383 11.617,18.525 11.748 C 18.768 11.971,19.301 12.092,19.639 12.000 C 19.895 11.931,20.135 11.681,20.215 11.399 C 20.328 11.001,21.010 6.085,20.988 5.830 C 20.949 5.383,20.698 5.113,20.251 5.037 C 20.070 5.007,7.306 4.080,7.067 4.080 C 7.017 4.080,7.005 3.960,6.993 3.350 C 6.979 2.691,6.969 2.604,6.890 2.453 C 6.786 2.256,6.622 2.131,6.371 2.055 C 6.117 1.979,3.859 1.981,3.614 2.057 M17.358 14.061 C 16.230 14.237,15.143 14.974,14.569 15.953 C 13.320 18.083,14.233 20.785,16.512 21.704 C 17.475 22.092,18.529 22.091,19.498 21.700 C 19.691 21.622,19.887 21.532,19.933 21.500 C 20.012 21.444,20.052 21.476,20.738 22.155 C 21.512 22.921,21.693 23.049,22.000 23.049 C 22.477 23.049,23.049 22.477,23.049 22.000 C 23.049 21.693,22.921 21.512,22.155 20.738 C 21.476 20.052,21.444 20.012,21.500 19.933 C 21.619 19.762,21.844 19.135,21.921 18.757 C 22.070 18.024,21.994 17.230,21.705 16.516 C 21.172 15.197,20.001 14.269,18.605 14.058 C 18.144 13.989,17.816 13.990,17.358 14.061 M18.523 16.073 C 19.262 16.266,19.850 16.924,19.967 17.690 C 20.067 18.343,19.873 18.933,19.403 19.404 C 19.002 19.807,18.547 20.000,18.000 20.000 C 17.485 20.000,17.038 19.822,16.653 19.465 C 15.323 18.229,16.189 16.005,18.000 16.005 C 18.143 16.005,18.378 16.036,18.523 16.073 M6.310 18.061 C 6.688 18.173,7.000 18.598,7.000 19.001 C 7.000 19.331,6.784 19.696,6.484 19.872 C 6.328 19.963,6.254 19.980,6.000 19.980 C 5.746 19.980,5.672 19.963,5.516 19.872 C 4.935 19.530,4.833 18.774,5.304 18.303 C 5.583 18.024,5.916 17.944,6.310 18.061 " stroke="none" fill="black" fill-rule="evenodd"></path></svg>