<svg xmlns="http://www.w3.org/2000/svg" width="24" height="24" viewBox="0 0 24 24" fill="none" stroke="currentColor" stroke-width="2" stroke-linecap="round" stroke-linejoin="round" class="icon icon-tabler icons-tabler-outline icon-tabler-h-3"><path d="M2.614 5.057 C 2.223 5.180,2.039 5.436,2.009 5.900 C 1.968 6.532,2.251 6.922,2.797 6.987 L 3.000 7.011 3.000 11.996 L 3.000 16.982 2.756 17.028 C 2.450 17.086,2.227 17.232,2.111 17.450 C 2.035 17.592,2.020 17.682,2.020 18.000 C 2.020 18.331,2.033 18.403,2.120 18.558 C 2.230 18.755,2.414 18.898,2.635 18.959 C 2.826 19.012,5.174 19.012,5.365 18.959 C 5.586 18.898,5.770 18.755,5.880 18.558 C 5.967 18.402,5.980 18.332,5.979 18.000 C 5.978 17.685,5.963 17.591,5.888 17.450 C 5.773 17.232,5.551 17.086,5.244 17.028 L 5.000 16.982 5.000 14.991 L 5.000 13.000 8.000 13.000 L 11.000 13.000 11.000 14.991 L 11.000 16.982 10.756 17.028 C 10.450 17.086,10.227 17.232,10.111 17.450 C 10.035 17.592,10.020 17.682,10.020 18.000 C 10.020 18.331,10.033 18.403,10.120 18.558 C 10.230 18.755,10.414 18.898,10.635 18.959 C 10.826 19.012,13.174 19.012,13.365 18.959 C 13.586 18.898,13.770 18.755,13.880 18.558 C 13.967 18.402,13.980 18.332,13.979 18.000 C 13.978 17.685,13.963 17.591,13.888 17.450 C 13.773 17.232,13.551 17.086,13.244 17.028 L 13.000 16.982 13.000 11.996 L 13.000 7.011 13.197 6.988 C 13.539 6.947,13.754 6.805,13.904 6.520 C 14.018 6.305,14.009 5.679,13.890 5.453 C 13.786 5.256,13.623 5.131,13.371 5.055 C 13.108 4.976,10.892 4.976,10.629 5.055 C 10.224 5.177,10.040 5.428,10.009 5.900 C 9.968 6.532,10.251 6.922,10.797 6.987 L 11.000 7.011 11.000 9.006 L 11.000 11.000 8.000 11.000 L 5.000 11.000 5.000 9.006 L 5.000 7.011 5.197 6.988 C 5.539 6.947,5.754 6.805,5.904 6.520 C 6.018 6.305,6.009 5.679,5.890 5.453 C 5.786 5.256,5.623 5.131,5.371 5.055 C 5.117 4.979,2.859 4.981,2.614 5.057 M18.499 9.040 C 17.371 9.245,16.455 10.054,16.122 11.140 C 16.018 11.479,15.972 12.113,16.035 12.344 C 16.146 12.749,16.428 12.961,16.896 12.991 C 17.592 13.035,17.918 12.762,17.996 12.072 C 18.045 11.644,18.108 11.490,18.321 11.283 C 18.490 11.120,18.777 11.000,19.000 11.000 C 19.402 11.000,19.827 11.312,19.939 11.690 C 20.014 11.942,20.015 12.056,19.945 12.290 C 19.813 12.727,19.508 12.949,18.967 12.999 C 18.426 13.050,18.188 13.201,18.064 13.571 C 17.931 13.970,18.013 14.500,18.247 14.745 C 18.386 14.891,18.690 15.000,18.957 15.000 C 19.520 15.000,20.000 15.461,20.000 16.001 C 20.000 16.331,19.784 16.696,19.484 16.872 C 19.328 16.963,19.254 16.980,19.000 16.980 C 18.746 16.980,18.672 16.963,18.516 16.872 C 18.324 16.759,18.151 16.563,18.076 16.373 C 18.051 16.311,18.015 16.111,17.996 15.929 C 17.954 15.534,17.853 15.316,17.649 15.182 C 17.198 14.887,16.426 14.979,16.170 15.358 C 16.027 15.570,15.988 15.782,16.013 16.200 C 16.088 17.445,16.934 18.504,18.160 18.886 C 18.594 19.021,19.406 19.021,19.840 18.886 C 20.826 18.579,21.579 17.826,21.886 16.840 C 22.021 16.406,22.021 15.593,21.886 15.161 C 21.766 14.779,21.609 14.470,21.402 14.208 L 21.238 14.000 21.402 13.792 C 21.609 13.530,21.766 13.221,21.886 12.839 C 22.021 12.407,22.021 11.594,21.886 11.160 C 21.581 10.179,20.810 9.407,19.861 9.129 C 19.500 9.023,18.832 8.980,18.499 9.040 " stroke="none" fill="black" fill-rule="evenodd"></path></svg>