<svg xmlns="http://www.w3.org/2000/svg" width="24" height="24" viewBox="0 0 24 24" fill="none" stroke="currentColor" stroke-width="2" stroke-linecap="round" stroke-linejoin="round" class="icon icon-tabler icons-tabler-outline icon-tabler-shield-half"><path d="M11.528 2.082 C 11.384 2.154,11.232 2.269,11.159 2.362 C 11.090 2.448,10.869 2.643,10.667 2.794 C 9.437 3.717,8.156 4.321,6.632 4.697 C 5.770 4.909,5.293 4.968,4.180 4.998 C 3.619 5.014,3.135 5.045,3.078 5.069 C 2.911 5.139,2.722 5.319,2.635 5.490 C 2.590 5.578,2.484 5.926,2.399 6.264 C 1.692 9.077,1.966 12.080,3.174 14.745 C 3.846 16.230,4.635 17.360,5.838 18.561 C 7.190 19.910,8.625 20.858,10.260 21.479 C 11.155 21.819,11.758 22.000,12.001 22.000 C 12.248 22.000,13.034 21.760,13.840 21.439 C 16.052 20.556,17.996 19.050,19.450 17.092 C 21.456 14.390,22.339 10.892,21.858 7.560 C 21.743 6.770,21.500 5.754,21.358 5.476 C 21.277 5.318,21.085 5.138,20.922 5.069 C 20.865 5.045,20.381 5.014,19.820 4.998 C 18.684 4.967,18.185 4.904,17.300 4.680 C 15.824 4.306,14.520 3.687,13.338 2.798 C 13.133 2.645,12.910 2.448,12.841 2.362 C 12.663 2.137,12.292 1.960,12.000 1.960 C 11.827 1.960,11.715 1.989,11.528 2.082 M10.981 19.593 C 10.922 19.652,9.862 19.130,9.200 18.717 C 6.465 17.008,4.620 14.198,4.141 11.009 C 3.971 9.878,3.996 8.433,4.203 7.360 C 4.277 6.977,4.255 7.000,4.556 7.000 C 5.918 7.000,7.853 6.543,9.397 5.856 C 9.912 5.627,10.832 5.137,10.940 5.034 C 10.981 4.995,11.021 19.552,10.981 19.593 M13.840 5.490 C 14.626 5.917,15.886 6.395,16.860 6.637 C 17.693 6.843,18.808 7.000,19.444 7.000 C 19.668 7.000,19.718 7.012,19.734 7.070 C 19.831 7.430,19.923 8.149,19.958 8.820 C 20.108 11.735,19.143 14.478,17.176 16.727 C 16.278 17.754,14.859 18.800,13.591 19.371 C 13.312 19.497,13.064 19.600,13.041 19.600 C 13.013 19.600,13.000 17.313,13.000 12.300 L 13.000 5.001 13.250 5.153 C 13.388 5.237,13.653 5.389,13.840 5.490 " stroke="none" fill="black" fill-rule="evenodd"></path></svg>