<svg xmlns="http://www.w3.org/2000/svg" width="24" height="24" viewBox="0 0 24 24" fill="none" stroke="currentColor" stroke-width="2" stroke-linecap="round" stroke-linejoin="round" class="icon icon-tabler icons-tabler-outline icon-tabler-chevron-compact-up"><path d="M7.631 10.573 C 4.583 11.716,3.400 12.177,3.291 12.265 C 3.067 12.443,2.950 12.692,2.974 12.940 C 3.004 13.255,3.152 13.600,3.336 13.785 C 3.553 14.004,3.771 14.071,4.064 14.010 C 4.183 13.985,6.017 13.313,8.140 12.517 L 12.000 11.070 15.860 12.517 C 17.983 13.313,19.817 13.985,19.936 14.010 C 20.229 14.071,20.447 14.004,20.664 13.785 C 20.848 13.600,20.996 13.255,21.026 12.940 C 21.051 12.685,20.929 12.433,20.696 12.258 C 20.454 12.075,12.239 9.000,11.996 9.001 C 11.863 9.001,10.792 9.387,7.631 10.573 " stroke="none" fill="black" fill-rule="evenodd"></path></svg>