<svg xmlns="http://www.w3.org/2000/svg" width="24" height="24" viewBox="0 0 24 24" fill="none" stroke="currentColor" stroke-width="2" stroke-linecap="round" stroke-linejoin="round" class="icon icon-tabler icons-tabler-outline icon-tabler-rotate-rectangle"><path d="M11.720 1.945 C 11.182 2.004,10.792 2.141,10.360 2.424 C 10.026 2.642,9.190 3.489,9.104 3.695 C 8.963 4.035,9.061 4.385,9.388 4.711 C 9.636 4.958,9.845 5.060,10.100 5.057 C 10.376 5.054,10.514 4.970,10.985 4.517 C 11.209 4.302,11.471 4.085,11.566 4.037 C 11.807 3.914,12.193 3.915,12.440 4.038 C 12.696 4.165,19.835 11.304,19.962 11.560 C 20.086 11.808,20.086 12.192,19.962 12.440 C 19.839 12.687,12.653 19.874,12.420 19.983 C 12.205 20.083,11.795 20.083,11.580 19.983 C 11.347 19.874,4.161 12.687,4.038 12.440 C 3.914 12.191,3.914 11.808,4.039 11.560 C 4.098 11.444,4.469 11.039,5.084 10.420 L 6.039 9.460 6.041 10.320 C 6.042 11.254,6.070 11.462,6.227 11.689 C 6.389 11.925,6.629 12.020,7.060 12.020 C 7.447 12.019,7.644 11.951,7.827 11.754 C 8.017 11.550,8.018 11.536,8.049 9.300 C 8.065 8.134,8.081 7.107,8.084 7.017 C 8.094 6.775,7.903 6.377,7.709 6.237 C 7.439 6.041,7.317 6.033,4.940 6.047 C 2.903 6.059,2.727 6.066,2.571 6.134 C 2.223 6.286,2.069 6.584,2.073 7.095 C 2.077 7.478,2.214 7.758,2.473 7.910 L 2.660 8.020 3.630 8.033 C 4.163 8.039,4.600 8.057,4.600 8.070 C 4.600 8.084,4.119 8.583,3.530 9.178 C 2.401 10.319,2.282 10.471,2.097 11.000 C 1.811 11.819,1.899 12.778,2.330 13.520 C 2.512 13.834,10.166 21.488,10.480 21.670 C 11.020 21.983,11.736 22.130,12.350 22.052 C 12.753 22.001,13.202 21.854,13.520 21.670 C 13.834 21.488,21.488 13.834,21.670 13.520 C 21.854 13.202,22.001 12.753,22.052 12.350 C 22.130 11.736,21.983 11.019,21.670 10.480 C 21.577 10.321,20.496 9.211,17.741 6.447 C 15.650 4.351,13.857 2.573,13.756 2.498 C 13.226 2.105,12.373 1.874,11.720 1.945 " stroke="none" fill="black" fill-rule="evenodd"></path></svg>