<svg xmlns="http://www.w3.org/2000/svg" width="24" height="24" viewBox="0 0 24 24" fill="none" stroke="currentColor" stroke-width="2" stroke-linecap="round" stroke-linejoin="round" class="icon icon-tabler icons-tabler-outline icon-tabler-moon"><path d="M11.000 2.046 C 8.768 2.275,6.702 3.233,5.072 4.795 C 3.433 6.366,2.402 8.417,2.074 10.760 C 1.993 11.336,2.005 12.786,2.096 13.380 C 2.509 16.097,3.894 18.420,6.060 20.030 C 8.123 21.564,10.822 22.255,13.360 21.900 C 16.192 21.503,18.739 19.910,20.301 17.560 C 20.866 16.711,21.322 15.766,21.318 15.453 C 21.316 15.251,21.210 14.965,21.056 14.749 C 20.807 14.398,20.436 14.342,19.820 14.562 C 18.282 15.110,16.901 15.139,15.440 14.652 C 12.696 13.738,10.859 11.057,11.016 8.196 C 11.105 6.575,11.694 5.203,12.813 4.008 C 13.270 3.519,13.356 3.379,13.388 3.064 C 13.437 2.587,13.197 2.182,12.793 2.062 C 12.560 1.993,11.599 1.984,11.000 2.046 M10.113 4.270 C 10.106 4.287,9.997 4.509,9.871 4.765 C 9.508 5.499,9.286 6.189,9.111 7.115 C 9.038 7.508,9.024 7.723,9.024 8.500 C 9.024 9.472,9.052 9.713,9.264 10.566 C 9.852 12.936,11.444 14.935,13.639 16.058 C 14.908 16.707,16.446 17.053,17.770 16.987 C 18.029 16.974,18.240 16.977,18.240 16.992 C 18.240 17.008,18.051 17.221,17.820 17.467 C 15.924 19.481,13.149 20.374,10.460 19.836 C 7.701 19.284,5.500 17.399,4.486 14.720 C 4.122 13.756,3.947 12.494,4.033 11.450 C 4.196 9.471,4.922 7.834,6.247 6.459 C 6.942 5.737,7.604 5.256,8.514 4.811 C 9.191 4.479,10.167 4.149,10.113 4.270 " stroke="none" fill="black" fill-rule="evenodd"></path></svg>