<svg xmlns="http://www.w3.org/2000/svg" width="24" height="24" viewBox="0 0 24 24" fill="none" stroke="currentColor" stroke-width="2" stroke-linecap="round" stroke-linejoin="round" class="icon icon-tabler icons-tabler-outline icon-tabler-hierarchy-off"><path d="M2.626 2.045 C 2.420 2.154,2.146 2.433,2.038 2.644 C 1.924 2.867,1.924 3.132,2.039 3.363 C 2.103 3.489,3.394 4.807,6.564 7.980 C 9.004 10.423,10.999 12.448,10.997 12.480 C 10.996 12.513,9.952 13.391,8.678 14.431 L 6.360 16.322 6.244 16.262 C 5.745 16.004,4.751 15.939,4.139 16.125 C 3.179 16.417,2.419 17.181,2.114 18.160 C 1.979 18.594,1.979 19.406,2.114 19.840 C 2.421 20.826,3.174 21.579,4.160 21.886 C 4.594 22.021,5.406 22.021,5.840 21.886 C 6.826 21.579,7.579 20.826,7.886 19.840 C 7.964 19.588,7.979 19.453,7.979 19.000 C 7.979 18.480,7.940 18.251,7.776 17.825 C 7.761 17.785,8.407 17.233,9.837 16.063 C 10.982 15.125,11.944 14.348,11.974 14.337 C 12.028 14.316,16.240 17.730,16.240 17.795 C 16.240 17.813,16.205 17.930,16.162 18.055 C 15.851 18.957,16.031 20.012,16.627 20.791 C 17.431 21.840,18.755 22.244,20.002 21.819 L 20.293 21.720 20.416 21.814 C 20.872 22.160,21.278 22.125,21.701 21.701 C 22.048 21.355,22.137 20.990,21.961 20.637 C 21.885 20.486,18.837 17.395,12.747 11.293 C 8.533 7.070,3.506 2.111,3.372 2.044 C 3.152 1.934,2.835 1.935,2.626 2.045 M11.499 2.040 C 10.363 2.246,9.460 3.049,9.114 4.160 C 8.979 4.594,8.979 5.406,9.114 5.840 C 9.364 6.643,9.932 7.318,10.665 7.685 L 10.990 7.848 11.009 8.119 C 11.051 8.699,11.389 9.000,12.000 9.000 C 12.611 9.000,12.939 8.709,12.988 8.125 L 13.011 7.848 13.335 7.685 C 14.068 7.318,14.636 6.643,14.886 5.840 C 15.021 5.406,15.021 4.594,14.886 4.160 C 14.581 3.179,13.810 2.407,12.861 2.129 C 12.500 2.023,11.832 1.980,11.499 2.040 M12.310 4.061 C 12.688 4.173,13.000 4.598,13.000 5.001 C 13.000 5.331,12.784 5.696,12.484 5.872 C 12.328 5.963,12.254 5.980,12.000 5.980 C 11.746 5.980,11.672 5.963,11.516 5.872 C 10.935 5.530,10.833 4.774,11.304 4.303 C 11.583 4.024,11.916 3.944,12.310 4.061 M5.310 18.061 C 5.688 18.173,6.000 18.598,6.000 19.001 C 6.000 19.331,5.784 19.696,5.484 19.872 C 5.328 19.963,5.254 19.980,5.000 19.980 C 4.746 19.980,4.672 19.963,4.516 19.872 C 3.935 19.530,3.833 18.774,4.304 18.303 C 4.583 18.024,4.916 17.944,5.310 18.061 " stroke="none" fill="black" fill-rule="evenodd"></path></svg>