<svg xmlns="http://www.w3.org/2000/svg" width="24" height="24" viewBox="0 0 24 24" fill="none" stroke="currentColor" stroke-width="2" stroke-linecap="round" stroke-linejoin="round" class="icon icon-tabler icons-tabler-outline icon-tabler-sort-9-0"><path d="M4.477 7.073 C 3.806 7.249,3.238 7.823,3.060 8.508 C 3.013 8.687,3.000 9.009,3.000 10.000 C 3.000 11.368,3.018 11.521,3.225 11.930 C 3.361 12.199,3.801 12.639,4.070 12.775 C 4.472 12.979,4.642 13.000,5.868 13.000 L 7.000 13.000 7.000 14.000 L 7.000 15.000 6.005 15.000 L 5.010 15.000 4.983 14.794 C 4.930 14.393,4.743 14.167,4.371 14.055 C 3.861 13.902,3.305 14.077,3.113 14.453 C 3.008 14.659,2.973 15.095,3.037 15.404 C 3.148 15.941,3.595 16.534,4.070 16.775 C 4.479 16.982,4.632 17.000,6.000 17.000 C 7.368 17.000,7.521 16.982,7.930 16.775 C 8.196 16.640,8.638 16.200,8.771 15.937 C 9.003 15.479,9.000 15.537,8.999 12.014 C 8.999 8.515,8.999 8.511,8.781 8.083 C 8.551 7.628,8.022 7.203,7.523 7.073 C 7.134 6.972,4.866 6.972,4.477 7.073 M17.499 7.040 C 16.363 7.246,15.461 8.048,15.114 9.160 L 15.020 9.460 15.020 12.000 L 15.020 14.540 15.114 14.840 C 15.422 15.827,16.174 16.579,17.160 16.886 C 17.594 17.021,18.406 17.021,18.840 16.886 C 19.826 16.579,20.578 15.827,20.886 14.840 L 20.980 14.540 20.980 12.000 L 20.980 9.460 20.886 9.160 C 20.580 8.178,19.810 7.407,18.861 7.129 C 18.500 7.023,17.832 6.980,17.499 7.040 M7.000 10.000 L 7.000 11.000 6.000 11.000 L 5.000 11.000 5.000 10.000 L 5.000 9.000 6.000 9.000 L 7.000 9.000 7.000 10.000 M18.310 9.061 C 18.589 9.144,18.856 9.411,18.939 9.690 C 19.025 9.978,19.030 14.007,18.945 14.290 C 18.872 14.533,18.707 14.740,18.484 14.872 C 18.328 14.963,18.254 14.980,18.000 14.980 C 17.746 14.980,17.672 14.963,17.516 14.872 C 17.415 14.813,17.284 14.700,17.225 14.623 C 17.000 14.327,17.000 14.332,17.000 12.022 C 17.000 9.586,16.997 9.609,17.304 9.303 C 17.583 9.024,17.916 8.944,18.310 9.061 M10.614 11.057 C 10.377 11.131,10.212 11.261,10.109 11.453 C 10.035 11.592,10.020 11.684,10.020 12.000 C 10.020 12.331,10.033 12.403,10.120 12.558 C 10.230 12.755,10.414 12.898,10.635 12.959 C 10.826 13.012,13.174 13.012,13.365 12.959 C 13.586 12.898,13.770 12.755,13.880 12.558 C 13.967 12.402,13.980 12.332,13.979 12.000 C 13.978 11.687,13.962 11.591,13.890 11.453 C 13.786 11.256,13.623 11.131,13.371 11.055 C 13.117 10.979,10.859 10.981,10.614 11.057 " stroke="none" fill="black" fill-rule="evenodd"></path></svg>