<svg xmlns="http://www.w3.org/2000/svg" width="24" height="24" viewBox="0 0 24 24" fill="none" stroke="currentColor" stroke-width="2" stroke-linecap="round" stroke-linejoin="round" class="icon icon-tabler icons-tabler-outline icon-tabler-sticker"><path d="M11.340 3.025 C 10.068 3.149,9.089 3.415,8.060 3.918 C 6.244 4.804,4.840 6.202,3.939 8.020 C 2.688 10.542,2.688 13.458,3.939 15.980 C 4.404 16.918,4.897 17.609,5.621 18.337 C 8.349 21.077,12.483 21.777,15.940 20.084 C 17.418 19.360,18.615 18.305,19.531 16.920 C 20.116 16.037,20.608 14.838,20.817 13.791 C 20.917 13.289,21.055 12.164,21.045 11.929 C 21.037 11.722,20.830 11.309,20.679 11.198 C 20.461 11.038,12.962 3.553,12.857 3.392 C 12.805 3.311,12.676 3.194,12.571 3.132 C 12.395 3.029,12.345 3.020,11.940 3.015 C 11.698 3.012,11.428 3.016,11.340 3.025 M10.680 5.137 C 10.680 5.146,10.633 5.349,10.575 5.587 C 10.476 5.996,10.471 6.059,10.493 6.720 C 10.528 7.814,10.748 8.701,11.217 9.642 C 12.400 12.019,14.829 13.520,17.490 13.520 C 17.920 13.520,18.099 13.501,18.436 13.419 C 18.665 13.364,18.857 13.324,18.864 13.331 C 18.871 13.337,18.835 13.504,18.785 13.701 C 18.083 16.452,15.859 18.467,13.020 18.926 C 12.607 18.992,11.393 18.992,10.980 18.926 C 7.873 18.424,5.513 16.047,5.076 12.980 C 5.010 12.517,5.010 11.483,5.076 11.020 C 5.476 8.213,7.507 5.948,10.280 5.217 C 10.658 5.117,10.680 5.113,10.680 5.137 M17.950 11.486 C 17.775 11.537,17.049 11.519,16.677 11.455 C 15.593 11.270,14.632 10.761,13.885 9.978 C 13.198 9.258,12.759 8.420,12.578 7.481 C 12.503 7.092,12.461 6.387,12.498 6.141 L 12.527 5.947 15.284 8.704 C 17.710 11.130,18.030 11.463,17.950 11.486 " stroke="none" fill="black" fill-rule="evenodd"></path></svg>