<svg xmlns="http://www.w3.org/2000/svg" width="24" height="24" viewBox="0 0 24 24" fill="none" stroke="currentColor" stroke-width="2" stroke-linecap="round" stroke-linejoin="round" class="icon icon-tabler icons-tabler-outline icon-tabler-nfc-off"><path d="M2.626 2.045 C 2.257 2.239,1.951 2.673,1.951 3.000 C 1.951 3.307,2.079 3.488,2.845 4.262 C 3.516 4.940,3.556 4.989,3.502 5.065 C 3.378 5.242,3.160 5.846,3.082 6.228 C 3.002 6.625,3.000 6.738,3.000 12.000 C 3.000 17.266,3.002 17.375,3.083 17.773 C 3.311 18.892,3.985 19.851,4.956 20.436 C 5.285 20.635,5.810 20.832,6.243 20.921 C 6.620 20.997,6.802 21.000,12.000 21.000 C 17.198 21.000,17.380 20.997,17.757 20.921 C 18.135 20.844,18.762 20.619,18.933 20.500 C 19.012 20.444,19.052 20.476,19.738 21.155 C 20.170 21.583,20.531 21.905,20.637 21.959 C 20.988 22.137,21.354 22.048,21.701 21.701 C 22.048 21.354,22.137 20.990,21.960 20.637 C 21.899 20.515,21.094 19.676,19.353 17.920 C 17.968 16.523,16.796 15.341,16.747 15.293 C 16.536 15.083,8.850 7.396,8.760 7.305 C 8.705 7.250,7.508 6.062,6.100 4.667 C 4.415 2.996,3.482 2.100,3.372 2.044 C 3.152 1.934,2.835 1.935,2.626 2.045 M7.614 3.057 C 7.377 3.131,7.212 3.261,7.109 3.453 C 7.035 3.592,7.020 3.684,7.020 4.000 C 7.020 4.331,7.033 4.403,7.120 4.558 C 7.230 4.755,7.414 4.898,7.635 4.959 C 7.725 4.984,8.815 5.001,10.520 5.002 C 13.576 5.005,13.556 5.003,14.017 5.281 C 14.294 5.448,14.618 5.787,14.772 6.071 C 14.992 6.478,14.999 6.576,15.000 9.520 C 15.000 11.203,15.016 12.274,15.041 12.365 C 15.148 12.750,15.437 12.962,15.896 12.991 C 16.381 13.022,16.699 12.882,16.880 12.558 L 16.980 12.380 16.991 9.512 C 17.002 6.769,16.999 6.628,16.922 6.249 C 16.847 5.881,16.603 5.189,16.517 5.102 C 16.435 5.018,16.497 5.000,16.870 5.002 C 17.345 5.005,17.704 5.092,18.017 5.281 C 18.294 5.448,18.618 5.787,18.772 6.071 C 19.003 6.498,18.999 6.397,19.000 11.520 C 19.000 14.543,19.015 16.272,19.041 16.365 C 19.148 16.750,19.437 16.962,19.896 16.991 C 20.381 17.022,20.699 16.882,20.880 16.558 L 20.980 16.380 20.991 11.510 C 21.001 6.770,20.999 6.630,20.921 6.246 C 20.628 4.806,19.638 3.681,18.245 3.204 C 17.660 3.004,17.565 3.000,12.500 3.003 C 8.743 3.005,7.746 3.016,7.614 3.057 M6.050 7.470 L 7.000 8.419 7.000 12.893 C 7.000 17.253,7.002 17.378,7.082 17.772 C 7.158 18.141,7.394 18.806,7.483 18.898 C 7.565 18.982,7.503 19.000,7.128 19.000 C 6.481 19.000,6.068 18.850,5.653 18.465 C 5.366 18.198,5.164 17.870,5.073 17.523 C 5.010 17.281,5.004 16.842,5.003 12.040 C 5.002 9.169,5.012 6.753,5.026 6.670 C 5.039 6.588,5.061 6.520,5.075 6.520 C 5.088 6.520,5.527 6.947,6.050 7.470 M10.519 12.107 C 10.351 12.221,10.124 12.475,10.035 12.649 C 9.924 12.867,9.926 13.135,10.040 13.363 C 10.102 13.487,10.908 14.321,12.714 16.133 C 14.136 17.559,15.352 18.763,15.415 18.809 C 15.479 18.855,15.596 18.916,15.675 18.945 C 15.908 19.028,10.827 19.024,10.508 18.940 C 9.823 18.762,9.249 18.194,9.073 17.523 C 9.011 17.285,9.004 16.939,9.002 13.840 L 9.000 10.420 9.809 11.230 L 10.619 12.039 10.519 12.107 M17.465 18.949 C 17.448 18.966,17.169 18.985,16.847 18.990 C 16.294 19.000,16.269 18.997,16.418 18.942 C 16.644 18.859,16.767 18.757,16.875 18.562 L 16.971 18.391 17.234 18.654 C 17.378 18.799,17.482 18.931,17.465 18.949 " stroke="none" fill="black" fill-rule="evenodd"></path></svg>