<svg xmlns="http://www.w3.org/2000/svg" width="24" height="24" viewBox="0 0 24 24" fill="none" stroke="currentColor" stroke-width="2" stroke-linecap="round" stroke-linejoin="round" class="icon icon-tabler icons-tabler-outline icon-tabler-sort-ascending-letters"><path d="M16.393 2.040 C 15.247 2.223,14.507 2.799,14.186 3.760 C 14.131 3.925,14.067 4.201,14.043 4.373 C 13.986 4.785,13.984 10.162,14.041 10.365 C 14.148 10.750,14.437 10.962,14.896 10.991 C 15.381 11.022,15.699 10.882,15.880 10.558 C 15.979 10.381,15.980 10.374,15.993 9.190 L 16.005 8.000 17.003 8.000 L 18.000 8.000 18.000 9.110 C 18.000 9.730,18.018 10.284,18.041 10.365 C 18.148 10.750,18.437 10.962,18.896 10.991 C 19.381 11.022,19.699 10.882,19.880 10.558 L 19.980 10.380 19.992 7.560 C 20.004 4.557,19.993 4.315,19.816 3.772 C 19.541 2.928,18.892 2.339,17.995 2.119 C 17.612 2.025,16.754 1.983,16.393 2.040 M17.667 4.108 C 17.937 4.248,17.977 4.390,17.994 5.250 L 18.009 6.000 17.000 6.000 L 15.991 6.000 16.007 5.250 C 16.028 4.277,16.090 4.134,16.532 4.039 C 16.817 3.978,17.496 4.020,17.667 4.108 M6.614 5.057 C 6.377 5.131,6.212 5.261,6.109 5.453 L 6.020 5.620 6.009 10.597 L 5.999 15.574 5.269 14.852 C 4.856 14.443,4.467 14.094,4.372 14.045 C 4.021 13.868,3.640 13.958,3.299 14.299 C 2.952 14.646,2.863 15.011,3.040 15.363 C 3.099 15.480,3.635 16.051,4.635 17.062 C 5.463 17.899,6.174 18.634,6.216 18.697 C 6.318 18.850,6.762 19.049,7.000 19.049 C 7.238 19.049,7.682 18.850,7.784 18.697 C 7.826 18.634,8.537 17.899,9.365 17.062 C 10.365 16.051,10.901 15.480,10.960 15.363 C 11.137 15.011,11.048 14.646,10.701 14.299 C 10.360 13.958,9.979 13.868,9.628 14.045 C 9.533 14.094,9.144 14.443,8.731 14.852 L 8.002 15.574 7.991 10.597 L 7.980 5.620 7.891 5.453 C 7.842 5.362,7.746 5.247,7.678 5.199 C 7.414 5.010,6.957 4.950,6.614 5.057 M14.614 13.057 C 14.376 13.132,14.212 13.261,14.109 13.453 C 14.035 13.592,14.020 13.684,14.020 14.000 C 14.020 14.331,14.033 14.403,14.120 14.558 C 14.230 14.755,14.414 14.898,14.635 14.959 C 14.718 14.982,15.315 15.000,16.027 15.000 L 17.275 15.000 15.692 17.770 C 14.821 19.293,14.082 20.618,14.049 20.714 C 13.967 20.954,14.002 21.342,14.125 21.565 C 14.230 21.755,14.415 21.898,14.635 21.959 C 14.831 22.014,19.169 22.014,19.365 21.959 C 19.586 21.898,19.770 21.755,19.880 21.558 C 19.967 21.402,19.980 21.332,19.979 21.000 C 19.978 20.567,19.898 20.355,19.678 20.199 C 19.425 20.018,19.265 20.000,17.956 20.000 L 16.725 20.000 18.310 17.230 C 19.181 15.707,19.927 14.374,19.967 14.270 C 20.113 13.890,20.047 13.606,19.749 13.332 C 19.392 13.004,19.539 13.021,17.020 13.012 C 15.256 13.005,14.745 13.015,14.614 13.057 " stroke="none" fill="black" fill-rule="evenodd"></path></svg>