<svg xmlns="http://www.w3.org/2000/svg" width="24" height="24" viewBox="0 0 24 24" fill="none" stroke="currentColor" stroke-width="2" stroke-linecap="round" stroke-linejoin="round" class="icon icon-tabler icons-tabler-outline icon-tabler-robot"><path d="M11.614 1.057 C 11.377 1.131,11.212 1.261,11.109 1.453 C 11.029 1.603,11.019 1.689,11.007 2.307 L 10.993 2.995 9.227 3.009 C 7.477 3.023,7.457 3.024,7.139 3.123 C 6.173 3.423,5.419 4.181,5.114 5.160 L 5.020 5.460 5.020 8.000 L 5.020 10.540 5.114 10.840 C 5.483 12.024,6.511 12.876,7.698 12.984 L 8.000 13.011 8.000 13.196 L 8.000 13.380 6.230 14.266 C 5.256 14.753,4.386 15.206,4.295 15.272 C 4.061 15.444,3.943 15.703,3.972 15.984 C 4.017 16.421,4.303 16.861,4.621 16.983 C 4.967 17.115,5.079 17.078,6.588 16.325 C 7.344 15.948,7.971 15.640,7.981 15.640 C 7.992 15.640,8.000 16.895,8.000 18.430 C 8.000 20.176,8.015 21.274,8.041 21.365 C 8.148 21.750,8.437 21.962,8.896 21.991 C 9.381 22.022,9.699 21.882,9.880 21.558 C 9.979 21.381,9.980 21.374,9.993 20.190 L 10.005 19.000 12.003 19.000 L 14.000 19.000 14.000 20.110 C 14.000 20.730,14.018 21.284,14.041 21.365 C 14.148 21.750,14.437 21.962,14.896 21.991 C 15.381 22.022,15.699 21.882,15.880 21.558 L 15.980 21.380 15.991 18.510 C 15.997 16.931,16.010 15.640,16.020 15.640 C 16.030 15.640,16.656 15.948,17.412 16.325 C 18.923 17.078,19.032 17.115,19.381 16.982 C 19.694 16.862,19.984 16.415,20.028 15.980 C 20.057 15.704,19.938 15.443,19.705 15.272 C 19.614 15.206,18.744 14.753,17.770 14.266 L 16.000 13.380 16.000 13.196 L 16.000 13.011 16.302 12.984 C 17.489 12.876,18.517 12.024,18.886 10.840 L 18.980 10.540 18.980 8.000 L 18.980 5.460 18.886 5.160 C 18.581 4.181,17.827 3.423,16.861 3.123 C 16.543 3.024,16.523 3.023,14.774 3.009 L 13.008 2.995 12.993 2.307 C 12.976 1.541,12.929 1.378,12.678 1.199 C 12.414 1.010,11.957 0.950,11.614 1.057 M16.310 5.061 C 16.589 5.144,16.856 5.411,16.939 5.690 C 17.025 5.978,17.030 10.007,16.945 10.290 C 16.872 10.533,16.707 10.740,16.484 10.872 L 16.300 10.980 12.000 10.980 L 7.700 10.980 7.516 10.872 C 7.303 10.747,7.141 10.550,7.058 10.316 C 6.970 10.065,6.972 5.988,7.061 5.690 C 7.140 5.421,7.412 5.143,7.673 5.063 C 7.962 4.974,16.011 4.972,16.310 5.061 M9.614 7.057 C 9.221 7.180,9.039 7.435,9.009 7.906 C 8.962 8.621,9.306 9.000,10.000 9.000 C 10.698 9.000,11.043 8.616,10.989 7.900 C 10.963 7.563,10.859 7.327,10.678 7.199 C 10.414 7.010,9.957 6.950,9.614 7.057 M13.614 7.057 C 13.221 7.180,13.039 7.435,13.009 7.906 C 12.962 8.621,13.306 9.000,14.000 9.000 C 14.698 9.000,15.043 8.616,14.989 7.900 C 14.963 7.563,14.859 7.327,14.678 7.199 C 14.414 7.010,13.957 6.950,13.614 7.057 M13.996 15.000 L 14.001 17.000 12.000 17.000 L 9.999 17.000 10.004 15.000 L 10.009 13.000 12.000 13.000 L 13.991 13.000 13.996 15.000 " stroke="none" fill="black" fill-rule="evenodd"></path></svg>