<svg xmlns="http://www.w3.org/2000/svg" width="24" height="24" viewBox="0 0 24 24" fill="none" stroke="currentColor" stroke-width="2" stroke-linecap="round" stroke-linejoin="round" class="icon icon-tabler icons-tabler-outline icon-tabler-square-letter-v"><path d="M4.499 2.043 C 3.380 2.232,2.461 3.048,2.114 4.160 L 2.020 4.460 2.020 12.000 L 2.020 19.540 2.114 19.840 C 2.422 20.827,3.173 21.578,4.160 21.886 L 4.460 21.980 12.000 21.980 L 19.540 21.980 19.840 21.886 C 20.827 21.578,21.578 20.827,21.886 19.840 L 21.980 19.540 21.980 12.000 L 21.980 4.460 21.886 4.160 C 21.581 3.182,20.832 2.428,19.861 2.121 L 19.540 2.020 12.120 2.014 C 8.039 2.011,4.609 2.024,4.499 2.043 M19.310 4.061 C 19.589 4.144,19.856 4.411,19.939 4.690 C 19.993 4.870,20.000 5.755,20.000 12.001 C 20.000 17.907,19.991 19.138,19.945 19.290 C 19.872 19.533,19.707 19.740,19.484 19.872 L 19.300 19.980 12.000 19.980 L 4.700 19.980 4.516 19.872 C 4.415 19.813,4.284 19.700,4.225 19.623 C 3.986 19.309,4.000 19.795,4.000 12.022 C 4.000 5.758,4.007 4.870,4.061 4.690 C 4.140 4.421,4.412 4.143,4.673 4.063 C 4.964 3.974,19.009 3.971,19.310 4.061 M9.633 7.077 C 9.165 7.260,8.989 7.481,8.995 7.879 C 8.997 8.043,9.312 9.367,10.044 12.297 C 11.185 16.859,11.143 16.726,11.482 16.916 C 11.606 16.986,11.708 17.009,11.894 17.008 C 12.360 17.005,12.752 16.780,12.897 16.434 C 12.931 16.353,13.417 14.450,13.979 12.204 C 15.094 7.746,15.088 7.777,14.900 7.456 C 14.681 7.083,13.919 6.877,13.504 7.078 C 13.164 7.243,13.148 7.286,12.555 9.659 C 12.261 10.837,12.011 11.800,12.000 11.800 C 11.989 11.800,11.739 10.837,11.445 9.659 C 10.855 7.298,10.835 7.242,10.505 7.083 C 10.287 6.977,9.895 6.974,9.633 7.077 " stroke="none" fill="black" fill-rule="evenodd"></path></svg>