<svg xmlns="http://www.w3.org/2000/svg" width="24" height="24" viewBox="0 0 24 24" fill="none" stroke="currentColor" stroke-width="2" stroke-linecap="round" stroke-linejoin="round" class="icon icon-tabler icons-tabler-outline icon-tabler-camera-code"><path d="M8.477 3.073 C 7.806 3.249,7.238 3.823,7.060 4.508 C 7.027 4.634,7.000 4.820,7.000 4.922 C 7.000 5.332,6.811 5.680,6.484 5.872 C 6.303 5.978,6.286 5.980,5.380 6.005 C 4.569 6.027,4.422 6.041,4.139 6.126 C 3.183 6.413,2.420 7.179,2.114 8.160 L 2.020 8.460 2.020 13.500 L 2.020 18.540 2.114 18.840 C 2.418 19.816,3.150 20.555,4.140 20.886 L 4.420 20.979 7.810 20.991 C 10.058 20.999,11.252 20.989,11.354 20.962 C 11.583 20.900,11.768 20.758,11.880 20.558 C 11.967 20.402,11.980 20.332,11.979 20.000 C 11.977 19.469,11.852 19.247,11.455 19.071 C 11.366 19.032,10.588 19.015,8.020 19.000 L 4.700 18.980 4.516 18.872 C 4.415 18.813,4.284 18.700,4.225 18.623 C 3.989 18.314,4.000 18.562,4.000 13.522 C 4.000 8.339,3.984 8.630,4.283 8.321 C 4.552 8.044,4.623 8.028,5.660 7.997 C 6.452 7.974,6.619 7.958,6.860 7.881 C 8.030 7.509,8.877 6.480,8.984 5.302 L 9.011 5.000 12.000 5.000 L 14.989 5.000 15.016 5.302 C 15.123 6.480,15.970 7.509,17.140 7.881 C 17.381 7.958,17.548 7.974,18.340 7.997 C 19.377 8.028,19.448 8.044,19.717 8.321 C 20.000 8.614,20.000 8.610,20.000 11.057 C 20.000 12.383,20.016 13.276,20.041 13.365 C 20.148 13.750,20.437 13.962,20.896 13.991 C 21.381 14.022,21.699 13.882,21.880 13.558 L 21.980 13.380 21.980 10.920 L 21.980 8.460 21.886 8.160 C 21.580 7.179,20.817 6.413,19.861 6.126 C 19.578 6.041,19.431 6.027,18.620 6.005 C 17.714 5.980,17.697 5.978,17.516 5.872 C 17.197 5.684,17.001 5.340,16.999 4.965 C 16.999 4.713,16.901 4.319,16.781 4.083 C 16.646 3.816,16.297 3.449,16.017 3.281 C 15.548 2.999,15.636 3.005,12.000 3.005 C 9.047 3.005,8.715 3.011,8.477 3.073 M11.380 9.059 C 10.981 9.122,10.766 9.180,10.460 9.308 C 9.330 9.782,8.453 10.789,8.133 11.980 C 8.039 12.329,8.025 12.459,8.023 13.000 C 8.020 13.559,8.031 13.658,8.130 14.014 C 8.562 15.559,9.742 16.638,11.330 16.940 C 11.745 17.018,12.292 17.016,12.649 16.935 C 12.896 16.879,12.958 16.845,13.123 16.680 C 13.277 16.527,13.319 16.454,13.342 16.304 C 13.423 15.758,13.245 15.259,12.906 15.085 C 12.726 14.992,12.675 14.985,12.220 14.993 C 11.796 15.000,11.685 14.988,11.424 14.905 C 11.046 14.785,10.773 14.612,10.529 14.338 C 10.155 13.919,9.972 13.395,10.016 12.868 C 10.090 11.977,10.658 11.295,11.506 11.078 C 11.874 10.984,12.144 10.979,12.455 11.060 C 12.845 11.162,13.122 11.320,13.400 11.600 C 13.692 11.893,13.847 12.170,13.946 12.575 C 14.005 12.814,14.008 12.906,13.967 13.295 C 13.897 13.970,14.005 14.233,14.436 14.435 C 14.627 14.524,14.714 14.540,15.027 14.540 C 15.335 14.540,15.412 14.527,15.505 14.457 C 15.832 14.214,15.954 13.884,15.989 13.156 C 16.106 10.657,13.865 8.664,11.380 9.059 M16.620 16.046 C 16.390 16.165,14.153 18.411,14.040 18.637 C 13.986 18.744,13.951 18.889,13.951 19.000 C 13.951 19.334,14.057 19.468,15.294 20.706 C 16.532 21.943,16.666 22.049,17.000 22.049 C 17.477 22.049,18.049 21.477,18.049 21.000 C 18.049 20.693,17.921 20.513,17.147 19.730 L 16.425 19.000 17.147 18.270 C 17.580 17.832,17.905 17.469,17.959 17.363 C 18.137 17.012,18.048 16.646,17.701 16.299 C 17.361 15.959,16.967 15.867,16.620 16.046 M19.626 16.045 C 19.257 16.239,18.951 16.673,18.951 17.000 C 18.951 17.307,19.079 17.487,19.853 18.270 L 20.575 19.000 19.853 19.730 C 19.420 20.168,19.095 20.531,19.041 20.637 C 18.863 20.988,18.952 21.354,19.299 21.701 C 19.646 22.048,20.010 22.137,20.363 21.960 C 20.607 21.838,22.838 19.607,22.960 19.363 C 23.076 19.132,23.076 18.868,22.960 18.637 C 22.842 18.400,20.608 16.162,20.372 16.044 C 20.152 15.934,19.835 15.935,19.626 16.045 " stroke="none" fill="black" fill-rule="evenodd"></path></svg>