<svg xmlns="http://www.w3.org/2000/svg" width="24" height="24" viewBox="0 0 24 24" fill="none" stroke="currentColor" stroke-width="2" stroke-linecap="round" stroke-linejoin="round" class="icon icon-tabler icons-tabler-outline icon-tabler-shovel"><path d="M16.626 3.045 C 16.257 3.239,15.951 3.673,15.951 4.000 C 15.951 4.283,16.083 4.489,16.604 5.021 L 17.077 5.503 13.788 8.792 L 10.500 12.080 9.760 11.338 C 9.353 10.930,8.927 10.525,8.814 10.437 C 8.199 9.959,7.415 9.872,6.720 10.206 C 6.489 10.317,6.284 10.506,4.908 11.875 C 3.353 13.422,2.988 13.826,2.721 14.291 C 2.242 15.126,2.032 15.906,2.030 16.860 C 2.026 18.243,2.546 19.509,3.519 20.481 C 5.056 22.019,7.445 22.417,9.368 21.457 C 10.070 21.106,10.262 20.943,11.952 19.263 C 12.839 18.381,13.619 17.575,13.686 17.471 C 14.061 16.887,14.099 16.161,13.787 15.520 C 13.682 15.303,13.518 15.115,12.792 14.378 L 11.924 13.496 15.212 10.209 L 18.500 6.923 18.980 7.396 C 19.244 7.656,19.540 7.909,19.638 7.959 C 19.988 8.137,20.353 8.049,20.701 7.701 C 21.048 7.355,21.137 6.990,20.961 6.637 C 20.841 6.397,17.611 3.163,17.372 3.044 C 17.152 2.934,16.835 2.935,16.626 3.045 M9.800 14.220 L 11.980 16.400 10.560 17.823 C 9.204 19.182,8.858 19.492,8.500 19.670 C 7.795 20.020,6.933 20.076,6.140 19.824 C 5.684 19.679,5.351 19.470,4.956 19.080 C 4.566 18.694,4.326 18.320,4.167 17.851 C 4.071 17.565,4.062 17.487,4.062 16.880 C 4.062 16.269,4.070 16.196,4.170 15.900 C 4.380 15.278,4.459 15.181,6.078 13.550 C 6.902 12.720,7.586 12.040,7.598 12.040 C 7.610 12.040,8.601 13.021,9.800 14.220 " stroke="none" fill="black" fill-rule="evenodd"></path></svg>