<svg xmlns="http://www.w3.org/2000/svg" width="24" height="24" viewBox="0 0 24 24" fill="none" stroke="currentColor" stroke-width="2" stroke-linecap="round" stroke-linejoin="round" class="icon icon-tabler icons-tabler-outline icon-tabler-heart-question"><path d="M7.360 3.026 C 6.162 3.208,5.471 3.463,4.598 4.045 C 4.166 4.333,3.397 5.077,3.113 5.480 C 2.372 6.534,1.996 7.723,1.998 9.000 C 2.002 10.483,2.516 11.856,3.469 12.924 C 3.618 13.091,4.856 14.332,6.220 15.682 C 7.584 17.032,9.321 18.751,10.080 19.504 C 10.948 20.364,11.522 20.902,11.628 20.955 C 11.851 21.067,12.150 21.067,12.372 20.955 C 12.614 20.833,14.973 18.479,15.079 18.253 C 15.237 17.918,15.150 17.567,14.829 17.243 C 14.480 16.890,14.136 16.789,13.787 16.935 C 13.697 16.972,13.310 17.311,12.818 17.783 L 11.999 18.569 11.549 18.137 C 9.995 16.639,4.999 11.652,4.822 11.420 C 4.549 11.062,4.387 10.770,4.243 10.374 C 3.870 9.352,3.935 8.162,4.415 7.212 C 4.639 6.769,4.809 6.532,5.150 6.186 C 5.969 5.355,6.989 4.959,8.180 5.011 C 9.402 5.065,10.316 5.550,11.233 6.631 C 11.350 6.769,11.520 6.919,11.610 6.965 C 11.983 7.155,12.451 7.013,12.790 6.607 C 12.894 6.482,13.079 6.280,13.200 6.158 C 14.402 4.950,16.386 4.662,17.862 5.483 C 18.928 6.075,19.563 6.880,19.866 8.020 C 19.957 8.360,19.973 8.507,19.976 9.000 C 19.981 9.661,19.930 9.924,19.673 10.574 C 19.476 11.072,19.448 11.264,19.537 11.498 C 19.713 11.959,20.487 12.295,20.931 12.105 C 21.223 11.980,21.466 11.574,21.714 10.800 C 21.917 10.167,21.976 9.774,21.978 9.040 C 21.980 8.321,21.938 8.008,21.756 7.368 C 21.463 6.336,21.002 5.557,20.222 4.779 C 19.189 3.747,17.923 3.159,16.490 3.044 C 14.900 2.916,13.416 3.385,12.133 4.423 L 12.006 4.526 11.773 4.336 C 10.964 3.676,9.926 3.220,8.860 3.057 C 8.535 3.007,7.611 2.988,7.360 3.026 M18.440 14.058 C 18.297 14.089,18.102 14.142,18.008 14.176 C 17.203 14.466,16.442 15.217,16.440 15.722 C 16.439 16.052,16.769 16.475,17.174 16.663 C 17.548 16.838,17.807 16.775,18.193 16.419 C 18.501 16.134,18.650 16.048,18.893 16.015 C 19.121 15.984,19.458 16.082,19.640 16.234 C 19.988 16.522,20.086 17.066,19.863 17.470 C 19.668 17.823,19.453 17.951,18.970 18.001 C 18.245 18.076,17.960 18.406,18.012 19.110 C 18.069 19.867,18.595 20.142,19.591 19.936 C 20.218 19.807,20.691 19.543,21.146 19.069 C 21.488 18.713,21.648 18.463,21.797 18.055 C 22.409 16.374,21.489 14.571,19.780 14.102 C 19.448 14.010,18.765 13.988,18.440 14.058 M18.614 21.057 C 18.221 21.180,18.039 21.435,18.009 21.906 C 17.962 22.621,18.306 23.000,19.000 23.000 C 19.698 23.000,20.043 22.616,19.989 21.900 C 19.963 21.563,19.859 21.327,19.678 21.199 C 19.414 21.010,18.957 20.950,18.614 21.057 " stroke="none" fill="black" fill-rule="evenodd"></path></svg>