<svg xmlns="http://www.w3.org/2000/svg" width="24" height="24" viewBox="0 0 24 24" fill="none" stroke="currentColor" stroke-width="2" stroke-linecap="round" stroke-linejoin="round" class="icon icon-tabler icons-tabler-outline icon-tabler-shirt-off"><path d="M2.626 2.045 C 2.257 2.239,1.951 2.673,1.951 3.000 C 1.951 3.299,2.083 3.491,2.753 4.170 C 3.094 4.516,3.366 4.806,3.357 4.814 C 3.348 4.822,3.214 4.870,3.060 4.920 C 2.619 5.064,2.390 5.177,2.252 5.320 C 1.996 5.583,2.000 5.532,2.000 8.517 C 2.000 10.204,2.016 11.274,2.041 11.365 C 2.102 11.586,2.245 11.770,2.442 11.880 C 2.619 11.980,2.626 11.980,3.810 11.992 L 5.000 12.004 5.000 15.634 C 5.000 19.581,4.994 19.475,5.225 19.930 C 5.361 20.199,5.801 20.639,6.070 20.775 C 6.534 21.010,6.267 21.000,12.000 21.000 C 17.733 21.000,17.466 21.010,17.930 20.775 C 18.045 20.716,18.264 20.544,18.416 20.392 L 18.692 20.116 19.576 20.993 C 20.129 21.541,20.527 21.904,20.637 21.960 C 20.989 22.137,21.354 22.048,21.701 21.701 C 22.048 21.354,22.137 20.989,21.960 20.637 C 21.888 20.495,20.078 18.610,18.735 17.280 C 18.534 17.081,5.991 4.538,5.926 4.472 C 5.207 3.732,3.501 2.110,3.372 2.045 C 3.152 1.934,2.836 1.934,2.626 2.045 M8.910 3.002 C 8.649 3.045,7.988 3.267,7.713 3.405 C 7.185 3.669,7.076 4.178,7.411 4.812 C 7.558 5.091,7.705 5.203,7.998 5.262 C 8.213 5.305,8.219 5.310,8.300 5.512 C 8.574 6.192,9.027 6.395,9.645 6.112 L 9.870 6.009 9.756 6.235 C 9.455 6.831,9.619 7.282,10.251 7.589 C 11.245 8.075,12.380 8.126,13.417 7.733 C 14.406 7.358,15.204 6.602,15.642 5.627 C 15.718 5.458,15.798 5.326,15.820 5.334 C 15.842 5.342,16.792 5.658,17.930 6.037 L 20.000 6.727 20.000 8.361 L 20.000 9.996 18.829 10.008 C 17.662 10.020,17.657 10.020,17.459 10.122 C 17.245 10.233,17.105 10.404,17.041 10.635 C 16.987 10.829,16.987 14.171,17.041 14.365 C 17.148 14.750,17.437 14.962,17.896 14.991 C 18.381 15.022,18.699 14.882,18.880 14.558 C 18.979 14.381,18.980 14.374,18.993 13.190 L 19.005 12.000 20.113 12.000 C 20.731 12.000,21.284 11.982,21.365 11.959 C 21.586 11.898,21.770 11.755,21.880 11.558 L 21.980 11.380 21.991 8.604 C 22.004 5.501,22.010 5.583,21.729 5.310 C 21.647 5.230,21.499 5.130,21.400 5.088 C 21.301 5.046,19.853 4.557,18.183 4.001 L 15.146 2.990 14.866 3.013 C 14.657 3.031,14.541 3.065,14.404 3.150 C 14.131 3.318,14.040 3.512,13.996 4.020 C 13.938 4.687,13.743 5.112,13.317 5.495 C 12.863 5.903,12.179 6.087,11.600 5.958 C 11.501 5.935,11.264 5.855,11.074 5.779 C 10.720 5.637,10.490 5.608,10.298 5.681 C 10.203 5.717,10.194 5.713,10.221 5.651 C 10.307 5.446,10.289 5.163,10.167 4.807 C 10.093 4.592,10.028 4.298,10.005 4.069 C 9.923 3.270,9.543 2.899,8.910 3.002 M10.990 12.410 L 17.000 18.420 17.000 18.710 L 17.000 19.000 12.001 19.000 L 7.002 19.000 6.991 14.810 L 6.980 10.620 6.891 10.453 C 6.842 10.362,6.746 10.247,6.678 10.199 C 6.430 10.022,6.256 10.000,5.094 10.000 L 4.000 10.000 4.000 8.363 L 4.000 6.727 4.470 6.566 C 4.729 6.478,4.949 6.405,4.960 6.403 C 4.971 6.401,7.684 9.104,10.990 12.410 " stroke="none" fill="black" fill-rule="evenodd"></path></svg>