<svg xmlns="http://www.w3.org/2000/svg" width="24" height="24" viewBox="0 0 24 24" fill="none" stroke="currentColor" stroke-width="2" stroke-linecap="round" stroke-linejoin="round" class="icon icon-tabler icons-tabler-outline icon-tabler-flag-minus"><path d="M8.020 2.603 C 7.232 2.664,6.510 2.868,5.788 3.234 C 5.074 3.596,4.332 4.170,4.126 4.520 L 4.020 4.700 4.010 12.954 C 4.003 18.404,4.013 21.259,4.040 21.358 C 4.144 21.747,4.434 21.962,4.896 21.991 C 5.381 22.022,5.699 21.882,5.880 21.558 L 5.980 21.380 5.991 17.914 L 6.002 14.448 6.145 14.339 C 6.224 14.279,6.453 14.143,6.654 14.037 C 7.790 13.440,9.185 13.436,10.329 14.027 C 10.708 14.223,10.943 14.396,11.505 14.896 C 11.924 15.269,12.515 15.668,12.929 15.856 C 13.343 16.045,14.079 16.277,14.356 16.306 C 14.915 16.364,15.286 16.012,15.378 15.335 C 15.418 15.040,15.345 14.815,15.146 14.617 C 15.000 14.472,14.910 14.430,14.390 14.263 C 13.665 14.030,13.286 13.810,12.689 13.277 C 12.110 12.760,11.757 12.511,11.212 12.234 C 10.473 11.860,9.774 11.665,8.944 11.604 C 8.005 11.535,6.956 11.704,6.150 12.056 L 6.000 12.121 6.000 8.785 L 6.000 5.449 6.144 5.340 C 6.224 5.279,6.453 5.143,6.654 5.037 C 7.792 4.439,9.185 4.436,10.332 5.028 C 10.723 5.230,10.913 5.370,11.474 5.868 C 12.961 7.188,14.901 7.703,16.799 7.280 C 17.122 7.208,17.772 6.998,17.930 6.914 C 17.996 6.879,18.000 7.065,18.000 10.549 C 18.000 12.885,18.015 14.273,18.041 14.365 C 18.148 14.750,18.437 14.962,18.896 14.991 C 19.381 15.022,19.699 14.882,19.880 14.558 L 19.980 14.380 19.980 9.540 L 19.980 4.700 19.871 4.514 C 19.677 4.185,19.324 3.960,19.000 3.960 C 18.751 3.960,18.577 4.045,18.264 4.319 C 17.878 4.658,17.638 4.826,17.300 4.993 C 16.682 5.298,16.178 5.416,15.500 5.416 C 14.822 5.416,14.318 5.298,13.700 4.993 C 13.332 4.811,13.113 4.652,12.593 4.191 C 12.133 3.783,11.801 3.545,11.360 3.308 C 10.331 2.754,9.192 2.514,8.020 2.603 M15.614 18.057 C 15.377 18.131,15.212 18.261,15.109 18.453 C 15.035 18.592,15.020 18.684,15.020 19.000 C 15.020 19.331,15.033 19.403,15.120 19.558 C 15.230 19.755,15.414 19.898,15.635 19.959 C 15.832 20.014,22.168 20.014,22.365 19.959 C 22.586 19.898,22.770 19.755,22.880 19.558 C 22.967 19.402,22.980 19.332,22.979 19.000 C 22.978 18.567,22.898 18.355,22.678 18.199 C 22.398 17.999,22.411 18.000,18.984 18.003 C 16.472 18.005,15.744 18.017,15.614 18.057 " stroke="none" fill="black" fill-rule="evenodd"></path></svg>