<svg xmlns="http://www.w3.org/2000/svg" width="24" height="24" viewBox="0 0 24 24" fill="none" stroke="currentColor" stroke-width="2" stroke-linecap="round" stroke-linejoin="round" class="icon icon-tabler icons-tabler-outline icon-tabler-corner-left-down-double"><path d="M11.358 3.061 C 9.731 3.315,8.417 4.584,8.083 6.227 C 8.004 6.611,8.000 6.764,8.000 9.105 L 8.000 11.577 6.770 10.353 C 6.001 9.588,5.477 9.098,5.372 9.045 C 5.020 8.868,4.639 8.958,4.299 9.299 C 3.952 9.646,3.863 10.011,4.040 10.363 C 4.101 10.484,4.766 11.182,6.134 12.561 C 7.237 13.673,8.174 14.634,8.216 14.696 C 8.318 14.850,8.761 15.049,9.000 15.049 C 9.239 15.049,9.682 14.850,9.784 14.696 C 9.826 14.634,10.763 13.673,11.866 12.561 C 13.234 11.182,13.899 10.484,13.960 10.363 C 14.137 10.011,14.048 9.646,13.701 9.299 C 13.361 8.958,12.980 8.868,12.628 9.045 C 12.523 9.098,11.999 9.588,11.230 10.353 L 10.000 11.577 10.002 9.159 C 10.004 7.006,10.012 6.711,10.073 6.477 C 10.201 5.988,10.543 5.546,11.014 5.265 C 11.458 4.998,11.434 5.000,15.008 5.000 C 17.036 5.000,18.273 4.985,18.365 4.959 C 18.586 4.898,18.770 4.755,18.880 4.558 C 18.967 4.402,18.980 4.332,18.979 4.000 C 18.978 3.567,18.898 3.355,18.678 3.199 C 18.398 2.999,18.414 3.000,14.944 3.004 C 12.456 3.007,11.620 3.020,11.358 3.061 M4.626 14.045 C 4.420 14.154,4.146 14.433,4.038 14.644 C 3.924 14.867,3.924 15.132,4.039 15.363 C 4.164 15.612,8.388 19.836,8.637 19.961 C 8.868 20.076,9.132 20.076,9.363 19.961 C 9.612 19.836,13.836 15.612,13.961 15.363 C 14.137 15.010,14.048 14.645,13.701 14.299 C 13.361 13.959,12.980 13.868,12.628 14.044 C 12.519 14.099,11.853 14.734,10.730 15.853 L 9.000 17.578 7.270 15.853 C 6.147 14.734,5.481 14.099,5.372 14.044 C 5.152 13.934,4.835 13.935,4.626 14.045 " stroke="none" fill="black" fill-rule="evenodd"></path></svg>