<svg xmlns="http://www.w3.org/2000/svg" width="24" height="24" viewBox="0 0 24 24" fill="none" stroke="currentColor" stroke-width="2" stroke-linecap="round" stroke-linejoin="round" class="icon icon-tabler icons-tabler-outline icon-tabler-bandage"><path d="M15.500 2.083 C 14.200 2.185,13.006 2.707,11.994 3.616 C 11.384 4.164,3.509 12.078,3.306 12.348 C 1.897 14.216,1.661 16.571,2.676 18.642 C 3.229 19.771,4.229 20.771,5.358 21.324 C 7.427 22.338,9.787 22.102,11.652 20.694 C 11.922 20.491,19.836 12.616,20.384 12.006 C 22.436 9.722,22.471 6.385,20.466 4.080 C 19.652 3.145,18.428 2.427,17.225 2.182 C 16.969 2.129,15.995 2.029,15.920 2.047 C 15.909 2.049,15.720 2.066,15.500 2.083 M16.806 4.143 C 18.294 4.424,19.542 5.670,19.862 7.192 C 19.948 7.599,19.948 8.401,19.862 8.808 C 19.744 9.371,19.463 9.971,19.100 10.437 C 19.004 10.560,17.021 12.561,14.693 14.884 C 10.178 19.389,10.234 19.338,9.547 19.628 C 9.003 19.858,8.618 19.934,8.000 19.934 C 7.382 19.934,6.997 19.858,6.453 19.628 C 5.290 19.137,4.399 18.055,4.140 16.820 C 4.051 16.395,4.051 15.605,4.140 15.180 C 4.256 14.625,4.536 14.030,4.900 13.563 C 5.102 13.304,13.381 5.032,13.620 4.851 C 14.512 4.173,15.641 3.922,16.806 4.143 M11.614 9.057 C 11.221 9.180,11.039 9.435,11.009 9.906 C 10.962 10.621,11.306 11.000,12.000 11.000 C 12.698 11.000,13.043 10.616,12.989 9.900 C 12.963 9.563,12.859 9.327,12.678 9.199 C 12.414 9.010,11.957 8.950,11.614 9.057 M9.614 11.057 C 9.221 11.180,9.039 11.435,9.009 11.906 C 8.962 12.621,9.306 13.000,10.000 13.000 C 10.698 13.000,11.043 12.616,10.989 11.900 C 10.963 11.563,10.859 11.327,10.678 11.199 C 10.414 11.010,9.957 10.950,9.614 11.057 M13.614 11.057 C 13.221 11.180,13.039 11.435,13.009 11.906 C 12.962 12.621,13.306 13.000,14.000 13.000 C 14.698 13.000,15.043 12.616,14.989 11.900 C 14.963 11.563,14.859 11.327,14.678 11.199 C 14.414 11.010,13.957 10.950,13.614 11.057 M11.614 13.057 C 11.221 13.180,11.039 13.435,11.009 13.906 C 10.962 14.621,11.306 15.000,12.000 15.000 C 12.698 15.000,13.043 14.616,12.989 13.900 C 12.963 13.563,12.859 13.327,12.678 13.199 C 12.414 13.010,11.957 12.950,11.614 13.057 " stroke="none" fill="black" fill-rule="evenodd"></path></svg>