<svg xmlns="http://www.w3.org/2000/svg" width="24" height="24" viewBox="0 0 24 24" fill="none" stroke="currentColor" stroke-width="2" stroke-linecap="round" stroke-linejoin="round" class="icon icon-tabler icons-tabler-outline icon-tabler-navigation-question"><path d="M11.731 2.038 C 11.482 2.128,11.312 2.242,11.205 2.394 C 11.094 2.549,3.206 19.639,3.088 19.980 C 2.808 20.787,3.255 21.654,4.091 21.923 C 4.581 22.081,4.511 22.100,8.449 20.762 L 11.998 19.556 13.485 20.058 C 14.304 20.334,15.038 20.560,15.117 20.560 C 15.578 20.560,15.916 20.220,16.038 19.633 C 16.116 19.252,15.988 18.935,15.677 18.738 C 15.592 18.684,14.781 18.388,13.875 18.080 C 12.440 17.592,12.197 17.520,11.984 17.523 C 11.774 17.525,11.305 17.674,8.600 18.594 C 6.873 19.182,5.455 19.651,5.449 19.638 C 5.434 19.606,11.971 5.440,12.000 5.440 C 12.012 5.440,12.748 7.013,13.635 8.936 C 14.532 10.879,15.301 12.496,15.368 12.577 C 15.616 12.877,15.963 12.953,16.380 12.797 C 16.981 12.572,17.233 12.136,17.059 11.623 C 16.935 11.258,12.832 2.415,12.725 2.282 C 12.577 2.098,12.309 1.960,12.104 1.961 C 12.014 1.962,11.846 1.997,11.731 2.038 M18.440 14.058 C 18.297 14.089,18.102 14.142,18.008 14.176 C 17.203 14.466,16.442 15.217,16.440 15.722 C 16.439 16.052,16.769 16.475,17.174 16.663 C 17.548 16.838,17.807 16.775,18.193 16.419 C 18.501 16.134,18.650 16.048,18.893 16.015 C 19.121 15.984,19.458 16.082,19.640 16.234 C 19.988 16.522,20.086 17.066,19.863 17.470 C 19.668 17.823,19.453 17.951,18.970 18.001 C 18.245 18.076,17.960 18.406,18.012 19.110 C 18.069 19.867,18.595 20.142,19.591 19.936 C 20.218 19.807,20.691 19.543,21.146 19.069 C 21.488 18.713,21.648 18.463,21.797 18.055 C 22.409 16.374,21.489 14.571,19.780 14.102 C 19.448 14.010,18.765 13.988,18.440 14.058 M18.614 21.057 C 18.221 21.180,18.039 21.435,18.009 21.906 C 17.962 22.621,18.306 23.000,19.000 23.000 C 19.698 23.000,20.043 22.616,19.989 21.900 C 19.963 21.563,19.859 21.327,19.678 21.199 C 19.414 21.010,18.957 20.950,18.614 21.057 " stroke="none" fill="black" fill-rule="evenodd"></path></svg>