<svg xmlns="http://www.w3.org/2000/svg" width="24" height="24" viewBox="0 0 24 24" fill="none" stroke="currentColor" stroke-width="2" stroke-linecap="round" stroke-linejoin="round" class="icon icon-tabler icons-tabler-outline icon-tabler-table-plus"><path d="M4.499 2.043 C 3.380 2.232,2.461 3.048,2.114 4.160 L 2.020 4.460 2.020 12.000 L 2.020 19.540 2.114 19.840 C 2.418 20.816,3.149 21.554,4.140 21.886 L 4.420 21.980 8.520 21.993 C 11.508 22.002,12.678 21.993,12.833 21.959 C 13.262 21.866,13.486 21.537,13.486 21.000 C 13.486 20.491,13.304 20.196,12.909 20.064 C 12.757 20.013,12.539 20.000,11.859 20.000 L 11.000 20.000 11.000 15.500 L 11.000 11.000 15.500 11.000 L 20.000 11.000 20.000 11.853 C 20.000 12.825,20.036 13.023,20.249 13.229 C 20.442 13.416,20.647 13.487,21.000 13.488 C 21.531 13.491,21.866 13.261,21.959 12.833 C 21.993 12.678,22.002 11.508,21.993 8.520 L 21.980 4.420 21.886 4.140 C 21.557 3.158,20.821 2.425,19.861 2.121 L 19.540 2.020 12.120 2.014 C 8.039 2.011,4.609 2.024,4.499 2.043 M9.000 6.500 L 9.000 9.000 6.500 9.000 L 4.000 9.000 4.000 6.947 C 4.000 4.594,3.998 4.608,4.304 4.303 C 4.604 4.003,4.575 4.006,6.930 4.003 L 9.000 4.000 9.000 6.500 M19.310 4.061 C 19.452 4.103,19.571 4.178,19.697 4.303 C 20.002 4.608,20.000 4.595,20.000 6.947 L 20.000 9.000 15.500 9.000 L 11.000 9.000 11.000 6.500 L 11.000 4.000 15.053 4.000 C 18.564 4.000,19.133 4.008,19.310 4.061 M9.000 15.501 L 9.000 20.003 6.850 19.991 L 4.700 19.980 4.516 19.872 C 4.415 19.813,4.284 19.700,4.225 19.623 C 3.990 19.315,4.000 19.511,4.000 15.075 L 4.000 11.000 6.500 11.000 L 9.000 11.000 9.000 15.501 M18.614 15.057 C 18.377 15.131,18.212 15.261,18.109 15.453 C 18.024 15.613,18.020 15.668,18.008 16.810 L 17.996 18.000 16.904 18.000 C 15.744 18.000,15.570 18.022,15.322 18.199 C 15.100 18.357,15.020 18.568,15.020 19.000 C 15.020 19.331,15.033 19.403,15.120 19.558 C 15.230 19.755,15.414 19.898,15.635 19.959 C 15.716 19.982,16.270 20.000,16.890 20.000 L 18.000 20.000 18.000 21.110 C 18.000 21.730,18.018 22.284,18.041 22.365 C 18.148 22.750,18.437 22.962,18.896 22.991 C 19.381 23.022,19.699 22.882,19.880 22.558 C 19.979 22.381,19.980 22.374,19.993 21.190 L 20.005 20.000 21.113 20.000 C 21.731 20.000,22.284 19.982,22.365 19.959 C 22.586 19.898,22.770 19.755,22.880 19.558 C 22.967 19.402,22.980 19.332,22.979 19.000 C 22.978 18.567,22.898 18.355,22.678 18.199 C 22.430 18.022,22.256 18.000,21.096 18.000 L 20.005 18.000 19.993 16.810 C 19.981 15.669,19.976 15.613,19.891 15.453 C 19.842 15.362,19.746 15.247,19.678 15.199 C 19.414 15.010,18.957 14.950,18.614 15.057 " stroke="none" fill="black" fill-rule="evenodd"></path></svg>