<svg xmlns="http://www.w3.org/2000/svg" width="24" height="24" viewBox="0 0 24 24" fill="none" stroke="currentColor" stroke-width="2" stroke-linecap="round" stroke-linejoin="round" class="icon icon-tabler icons-tabler-outline icon-tabler-folder-off"><path d="M2.626 2.045 C 2.257 2.239,1.951 2.673,1.951 3.000 C 1.951 3.253,2.068 3.465,2.402 3.816 L 2.680 4.109 2.605 4.205 C 2.343 4.537,2.120 5.058,2.041 5.522 C 2.010 5.705,2.000 7.504,2.008 11.680 L 2.020 17.580 2.114 17.860 C 2.443 18.840,3.160 19.557,4.140 19.886 L 4.420 19.980 11.499 19.991 L 18.578 20.002 19.519 20.936 C 20.114 21.527,20.525 21.903,20.637 21.960 C 20.989 22.137,21.354 22.048,21.701 21.701 C 22.048 21.354,22.137 20.989,21.959 20.637 C 21.888 20.495,20.598 19.128,19.735 18.280 C 19.679 18.225,16.039 14.594,11.647 10.211 C 7.254 5.829,3.615 2.209,3.560 2.167 C 3.262 1.941,2.910 1.895,2.626 2.045 M7.614 3.057 C 7.377 3.131,7.212 3.261,7.109 3.453 C 7.035 3.592,7.020 3.684,7.020 4.000 C 7.020 4.331,7.033 4.403,7.120 4.558 C 7.307 4.893,7.564 4.999,8.180 5.000 L 8.580 5.000 9.960 6.383 C 10.719 7.143,11.421 7.814,11.520 7.873 L 11.700 7.980 15.480 8.000 C 19.716 8.022,19.404 7.999,19.717 8.321 C 20.014 8.628,20.000 8.391,20.000 13.057 C 20.000 15.723,20.015 17.272,20.041 17.365 C 20.148 17.750,20.437 17.962,20.896 17.991 C 21.381 18.022,21.699 17.882,21.880 17.558 L 21.980 17.380 21.980 12.920 L 21.980 8.460 21.886 8.160 C 21.581 7.182,20.831 6.427,19.861 6.122 L 19.540 6.021 15.980 6.009 L 12.421 5.997 10.980 4.563 C 9.281 2.870,9.490 2.998,8.443 3.003 C 8.018 3.004,7.720 3.024,7.614 3.057 M10.360 11.780 L 16.580 18.001 10.640 17.990 L 4.700 17.980 4.516 17.872 C 4.415 17.813,4.284 17.700,4.225 17.623 C 3.987 17.311,4.000 17.656,4.000 11.510 C 4.000 6.025,4.009 5.560,4.116 5.560 C 4.129 5.560,6.939 8.359,10.360 11.780 " stroke="none" fill="black" fill-rule="evenodd"></path></svg>