<svg xmlns="http://www.w3.org/2000/svg" width="24" height="24" viewBox="0 0 24 24" fill="none" stroke="currentColor" stroke-width="2" stroke-linecap="round" stroke-linejoin="round" class="icon icon-tabler icons-tabler-outline icon-tabler-file-type-txt"><path d="M6.499 2.043 C 5.390 2.231,4.488 3.024,4.114 4.140 L 4.020 4.420 4.009 8.311 C 4.001 10.892,4.011 12.253,4.039 12.355 C 4.144 12.747,4.433 12.961,4.896 12.991 C 5.381 13.022,5.699 12.882,5.880 12.558 L 5.980 12.380 6.000 8.560 C 6.022 4.280,5.999 4.597,6.321 4.283 C 6.622 3.992,6.514 4.000,9.947 4.000 L 13.000 4.000 13.000 5.618 C 13.000 6.649,13.016 7.313,13.044 7.448 C 13.189 8.140,13.857 8.807,14.552 8.955 C 14.689 8.984,15.335 9.000,16.382 9.000 L 18.000 9.000 18.000 10.610 C 18.000 11.565,18.017 12.279,18.041 12.365 C 18.148 12.750,18.437 12.962,18.896 12.991 C 19.381 13.022,19.699 12.882,19.880 12.558 L 19.980 12.380 19.980 10.000 L 19.980 7.620 19.880 7.442 C 19.825 7.343,19.708 7.214,19.620 7.154 C 19.440 7.032,14.900 2.479,14.788 2.309 C 14.748 2.249,14.640 2.159,14.548 2.110 L 14.380 2.020 10.540 2.014 C 8.428 2.011,6.609 2.024,6.499 2.043 M15.800 6.220 L 16.579 7.000 15.790 7.000 L 15.000 7.000 15.000 6.220 C 15.000 5.791,15.005 5.440,15.010 5.440 C 15.016 5.440,15.371 5.791,15.800 6.220 M9.652 14.058 C 9.402 14.174,9.111 14.433,9.024 14.618 C 8.939 14.796,8.944 15.102,9.036 15.303 C 9.076 15.392,9.490 16.035,9.955 16.733 L 10.801 18.000 9.955 19.267 C 9.490 19.965,9.076 20.608,9.036 20.697 C 8.944 20.898,8.939 21.204,9.024 21.382 C 9.111 21.567,9.402 21.826,9.652 21.942 C 10.040 22.123,10.400 22.049,10.683 21.732 C 10.758 21.647,11.079 21.187,11.396 20.709 C 11.713 20.231,11.985 19.840,12.000 19.840 C 12.015 19.840,12.287 20.231,12.604 20.709 C 12.921 21.187,13.242 21.647,13.317 21.732 C 13.600 22.049,13.960 22.123,14.348 21.942 C 14.598 21.826,14.889 21.567,14.976 21.382 C 15.061 21.204,15.056 20.898,14.964 20.697 C 14.924 20.608,14.510 19.965,14.045 19.267 L 13.199 18.000 14.045 16.733 C 14.510 16.035,14.924 15.392,14.964 15.303 C 15.056 15.102,15.061 14.796,14.976 14.618 C 14.889 14.433,14.598 14.174,14.348 14.058 C 13.960 13.877,13.600 13.951,13.317 14.268 C 13.242 14.353,12.921 14.813,12.604 15.291 C 12.287 15.769,12.015 16.160,12.000 16.160 C 11.985 16.160,11.713 15.769,11.396 15.291 C 11.079 14.813,10.758 14.353,10.683 14.268 C 10.400 13.951,10.040 13.877,9.652 14.058 M4.180 14.039 C 3.715 14.159,3.514 14.447,3.512 14.997 C 3.510 15.348,3.582 15.556,3.771 15.751 C 3.938 15.923,4.208 16.000,4.647 16.000 L 5.000 16.000 5.000 18.610 C 5.000 20.235,5.016 21.275,5.041 21.365 C 5.148 21.750,5.437 21.962,5.896 21.991 C 6.381 22.022,6.699 21.882,6.880 21.558 L 6.980 21.380 6.991 18.690 L 7.003 16.000 7.354 16.000 C 8.156 16.000,8.486 15.707,8.486 14.997 C 8.486 14.491,8.303 14.196,7.909 14.064 C 7.744 14.009,7.475 14.001,6.009 14.004 C 5.069 14.006,4.246 14.022,4.180 14.039 M16.180 14.039 C 15.715 14.159,15.514 14.447,15.512 14.997 C 15.510 15.348,15.582 15.556,15.771 15.751 C 15.938 15.923,16.208 16.000,16.647 16.000 L 17.000 16.000 17.000 18.610 C 17.000 20.235,17.016 21.275,17.041 21.365 C 17.148 21.750,17.437 21.962,17.896 21.991 C 18.381 22.022,18.699 21.882,18.880 21.558 L 18.980 21.380 18.991 18.690 L 19.003 16.000 19.354 16.000 C 20.156 16.000,20.486 15.707,20.486 14.997 C 20.486 14.491,20.303 14.196,19.909 14.064 C 19.744 14.009,19.475 14.001,18.009 14.004 C 17.069 14.006,16.246 14.022,16.180 14.039 " stroke="none" fill="black" fill-rule="evenodd"></path></svg>