<svg xmlns="http://www.w3.org/2000/svg" width="24" height="24" viewBox="0 0 24 24" fill="none" stroke="currentColor" stroke-width="2" stroke-linecap="round" stroke-linejoin="round" class="icon icon-tabler icons-tabler-outline icon-tabler-photo-x"><path d="M5.358 2.061 C 4.725 2.160,4.119 2.424,3.562 2.843 C 2.860 3.373,2.355 4.142,2.109 5.060 C 2.023 5.377,2.022 5.426,1.996 10.660 C 1.981 13.564,1.968 15.967,1.966 16.000 C 1.964 16.033,1.978 16.636,1.996 17.340 C 2.024 18.433,2.041 18.667,2.112 18.940 C 2.511 20.484,3.687 21.603,5.243 21.921 C 5.616 21.997,5.798 22.000,9.426 22.000 C 11.844 22.000,13.272 21.985,13.365 21.959 C 13.586 21.898,13.770 21.755,13.880 21.558 C 13.967 21.402,13.980 21.332,13.979 21.000 C 13.978 20.567,13.898 20.355,13.678 20.199 C 13.396 19.997,13.449 20.000,9.462 20.000 C 5.425 20.000,5.524 20.005,5.083 19.781 C 4.816 19.646,4.449 19.297,4.281 19.017 C 4.045 18.625,4.005 18.385,4.002 17.340 L 4.000 16.419 6.450 13.971 C 9.109 11.315,9.069 11.349,9.504 11.349 C 9.905 11.349,9.963 11.396,11.800 13.220 C 12.912 14.324,13.554 14.932,13.656 14.978 C 13.871 15.076,14.158 15.069,14.369 14.961 C 14.464 14.912,14.840 14.576,15.221 14.199 C 15.969 13.457,16.132 13.349,16.504 13.349 C 16.756 13.349,16.978 13.450,17.280 13.702 C 17.585 13.956,17.779 14.049,18.004 14.049 C 18.489 14.049,19.047 13.478,19.047 12.982 C 19.047 12.656,18.845 12.370,18.347 11.994 C 17.749 11.542,17.203 11.352,16.500 11.352 C 15.663 11.352,15.009 11.633,14.283 12.305 L 13.995 12.572 12.747 11.332 C 11.477 10.070,11.172 9.811,10.703 9.598 C 9.983 9.272,9.051 9.264,8.341 9.578 C 7.812 9.812,7.582 10.012,5.770 11.815 L 4.000 13.577 4.002 9.659 C 4.004 6.088,4.011 5.717,4.073 5.477 C 4.201 4.988,4.543 4.546,5.014 4.265 C 5.479 3.986,5.109 4.000,12.028 4.002 C 18.979 4.005,18.529 3.987,19.017 4.281 C 19.294 4.448,19.618 4.787,19.772 5.071 C 19.999 5.490,19.999 5.487,20.000 9.520 C 20.000 11.873,20.015 13.273,20.041 13.365 C 20.148 13.750,20.437 13.962,20.896 13.991 C 21.381 14.022,21.699 13.882,21.880 13.558 L 21.980 13.380 21.991 9.511 C 22.002 5.769,21.999 5.629,21.921 5.247 C 21.721 4.264,21.198 3.416,20.438 2.843 C 19.866 2.412,19.276 2.160,18.605 2.058 C 18.059 1.976,5.887 1.979,5.358 2.061 M14.614 7.055 C 14.220 7.184,14.039 7.437,14.009 7.900 C 13.978 8.381,14.119 8.699,14.442 8.880 C 14.597 8.967,14.669 8.980,15.000 8.980 C 15.312 8.980,15.408 8.964,15.540 8.894 C 15.866 8.718,16.000 8.459,16.000 8.000 C 16.000 7.357,15.713 7.048,15.083 7.016 C 14.893 7.006,14.718 7.021,14.614 7.055 M16.626 16.045 C 16.257 16.239,15.951 16.673,15.951 17.000 C 15.951 17.323,16.068 17.478,17.103 18.520 L 18.077 19.500 17.103 20.480 C 16.068 21.522,15.951 21.677,15.951 22.000 C 15.951 22.477,16.523 23.049,17.000 23.049 C 17.323 23.049,17.478 22.932,18.520 21.897 L 19.500 20.923 20.480 21.897 C 21.522 22.932,21.677 23.049,22.000 23.049 C 22.477 23.049,23.049 22.477,23.049 22.000 C 23.049 21.677,22.932 21.522,21.897 20.480 L 20.923 19.500 21.897 18.520 C 22.518 17.895,22.903 17.476,22.960 17.363 C 23.137 17.011,23.048 16.646,22.701 16.299 C 22.360 15.958,21.979 15.868,21.628 16.045 C 21.527 16.096,21.072 16.515,20.480 17.103 L 19.500 18.077 18.520 17.103 C 17.927 16.514,17.474 16.096,17.372 16.045 C 17.152 15.934,16.835 15.934,16.626 16.045 " stroke="none" fill="black" fill-rule="evenodd"></path></svg>