<svg xmlns="http://www.w3.org/2000/svg" width="24" height="24" viewBox="0 0 24 24" fill="none" stroke="currentColor" stroke-width="2" stroke-linecap="round" stroke-linejoin="round" class="icon icon-tabler icons-tabler-outline icon-tabler-brand-fiverr"><path d="M12.540 2.026 C 10.765 2.166,9.276 2.842,8.059 4.059 C 7.034 5.084,6.318 6.462,6.100 7.828 L 6.074 7.996 4.866 8.008 C 3.659 8.020,3.657 8.020,3.459 8.122 C 3.245 8.233,3.105 8.404,3.041 8.635 C 2.986 8.831,2.986 13.169,3.041 13.365 C 3.102 13.586,3.245 13.770,3.442 13.880 C 3.619 13.980,3.626 13.980,4.810 13.992 L 6.000 14.004 6.000 17.612 C 6.000 19.906,6.015 21.273,6.041 21.365 C 6.102 21.586,6.245 21.770,6.442 21.880 L 6.620 21.980 8.911 21.991 C 10.392 21.999,11.256 21.988,11.355 21.961 C 11.583 21.900,11.768 21.758,11.880 21.558 L 11.980 21.380 11.991 18.190 L 12.002 15.000 13.001 15.000 L 14.000 15.000 14.000 18.110 C 14.000 20.070,14.015 21.274,14.041 21.365 C 14.102 21.586,14.245 21.770,14.442 21.880 L 14.620 21.980 16.911 21.991 C 18.392 21.999,19.256 21.988,19.355 21.961 C 19.583 21.900,19.768 21.758,19.880 21.558 L 19.980 21.380 19.980 15.500 L 19.980 9.620 19.891 9.453 C 19.842 9.362,19.746 9.247,19.678 9.199 C 19.396 8.998,19.439 9.000,15.589 9.000 L 11.990 9.000 12.016 8.836 C 12.067 8.517,12.260 8.255,12.560 8.095 C 12.686 8.027,12.833 8.018,14.040 8.000 C 15.249 7.982,15.394 7.973,15.520 7.905 C 15.718 7.799,15.796 7.723,15.894 7.540 C 15.979 7.382,15.980 7.357,15.980 5.000 L 15.980 2.620 15.891 2.453 C 15.842 2.362,15.746 2.247,15.678 2.199 C 15.422 2.016,15.270 2.000,13.944 2.007 C 13.260 2.010,12.628 2.019,12.540 2.026 M14.000 4.995 L 14.000 5.991 13.210 6.011 C 12.394 6.032,12.185 6.066,11.776 6.245 C 11.101 6.539,10.445 7.216,10.198 7.874 C 10.033 8.311,9.993 8.664,10.007 9.552 C 10.020 10.349,10.024 10.387,10.120 10.558 C 10.230 10.755,10.414 10.898,10.635 10.959 C 10.727 10.985,12.095 11.000,14.390 11.000 L 18.000 11.000 18.000 15.500 L 18.000 20.000 17.001 20.000 L 16.002 20.000 15.991 16.810 L 15.980 13.620 15.889 13.450 C 15.784 13.253,15.576 13.103,15.320 13.041 C 15.197 13.010,14.434 13.000,12.899 13.008 L 10.658 13.020 10.459 13.122 C 10.245 13.233,10.105 13.404,10.041 13.635 C 10.015 13.726,10.000 14.930,10.000 16.890 L 10.000 20.000 9.001 20.000 L 8.002 20.000 7.991 16.310 L 7.980 12.620 7.891 12.453 C 7.842 12.362,7.746 12.247,7.678 12.199 C 7.430 12.022,7.256 12.000,6.094 12.000 L 5.000 12.000 5.000 11.000 L 5.000 10.000 6.110 10.000 C 6.730 10.000,7.284 9.982,7.365 9.959 C 7.712 9.863,7.940 9.587,7.977 9.220 C 7.988 9.110,8.016 8.804,8.040 8.540 C 8.064 8.276,8.118 7.925,8.161 7.760 C 8.672 5.778,10.391 4.271,12.400 4.044 C 12.565 4.026,12.992 4.008,13.350 4.005 L 14.000 4.000 14.000 4.995 " stroke="none" fill="black" fill-rule="evenodd"></path></svg>