<svg xmlns="http://www.w3.org/2000/svg" width="24" height="24" viewBox="0 0 24 24" fill="none" stroke="currentColor" stroke-width="2" stroke-linecap="round" stroke-linejoin="round" class="icon icon-tabler icons-tabler-outline icon-tabler-server"><path d="M5.358 3.061 C 3.731 3.315,2.417 4.584,2.083 6.227 C 2.009 6.590,2.000 6.776,2.000 8.000 C 2.000 9.223,2.009 9.410,2.082 9.772 C 2.243 10.562,2.566 11.174,3.155 11.810 L 3.331 12.000 3.155 12.190 C 2.566 12.826,2.243 13.438,2.082 14.228 C 2.009 14.590,2.000 14.777,2.000 16.000 C 2.000 17.224,2.009 17.410,2.083 17.773 C 2.311 18.892,2.985 19.851,3.956 20.436 C 4.285 20.635,4.810 20.832,5.243 20.921 C 5.622 20.998,5.805 21.000,12.000 21.000 C 18.195 21.000,18.378 20.998,18.757 20.921 C 20.117 20.643,21.193 19.755,21.704 18.488 C 21.964 17.841,22.000 17.542,22.000 16.000 C 22.000 14.793,21.991 14.587,21.921 14.243 C 21.758 13.443,21.434 12.826,20.845 12.190 L 20.669 12.000 20.845 11.810 C 21.434 11.174,21.758 10.557,21.921 9.757 C 21.991 9.413,22.000 9.207,22.000 8.000 C 22.000 6.459,21.964 6.157,21.705 5.516 C 21.172 4.197,20.001 3.269,18.605 3.058 C 18.059 2.976,5.887 2.979,5.358 3.061 M18.523 5.073 C 19.212 5.253,19.795 5.860,19.941 6.549 C 20.023 6.933,20.023 9.067,19.941 9.451 C 19.863 9.821,19.710 10.091,19.400 10.404 C 19.119 10.690,18.854 10.846,18.492 10.940 C 18.147 11.030,5.853 11.030,5.508 10.940 C 4.823 10.762,4.249 10.194,4.073 9.523 C 3.976 9.151,3.968 6.936,4.062 6.522 C 4.215 5.850,4.801 5.250,5.477 5.073 C 5.720 5.010,6.211 5.005,12.000 5.005 C 17.789 5.005,18.280 5.010,18.523 5.073 M6.614 7.057 C 6.221 7.180,6.039 7.435,6.009 7.906 C 5.962 8.621,6.306 9.000,7.000 9.000 C 7.698 9.000,8.043 8.616,7.989 7.900 C 7.963 7.563,7.859 7.327,7.678 7.199 C 7.414 7.010,6.957 6.950,6.614 7.057 M18.523 13.073 C 19.212 13.253,19.795 13.860,19.941 14.549 C 20.023 14.933,20.023 17.067,19.941 17.451 C 19.863 17.821,19.710 18.091,19.400 18.404 C 19.119 18.690,18.854 18.846,18.492 18.940 C 18.147 19.030,5.853 19.030,5.508 18.940 C 4.823 18.762,4.249 18.194,4.073 17.523 C 3.976 17.151,3.968 14.936,4.062 14.522 C 4.215 13.850,4.801 13.250,5.477 13.073 C 5.720 13.010,6.211 13.005,12.000 13.005 C 17.789 13.005,18.280 13.010,18.523 13.073 M6.614 15.057 C 6.221 15.180,6.039 15.435,6.009 15.906 C 5.962 16.621,6.306 17.000,7.000 17.000 C 7.698 17.000,8.043 16.616,7.989 15.900 C 7.963 15.563,7.859 15.327,7.678 15.199 C 7.414 15.010,6.957 14.950,6.614 15.057 " stroke="none" fill="black" fill-rule="evenodd"></path></svg>