<svg xmlns="http://www.w3.org/2000/svg" width="24" height="24" viewBox="0 0 24 24" fill="none" stroke="currentColor" stroke-width="2" stroke-linecap="round" stroke-linejoin="round" class="icon icon-tabler icons-tabler-outline icon-tabler-report-off"><path d="M2.626 2.045 C 2.257 2.239,1.951 2.673,1.951 3.000 C 1.951 3.327,2.064 3.474,3.202 4.620 L 4.273 5.700 4.147 6.060 L 4.020 6.420 4.020 12.980 L 4.020 19.540 4.114 19.840 C 4.422 20.827,5.173 21.578,6.160 21.886 L 6.460 21.980 12.000 21.980 L 17.540 21.980 17.839 21.886 C 18.394 21.712,18.773 21.473,19.196 21.033 L 19.397 20.823 19.928 21.346 C 20.221 21.633,20.540 21.909,20.637 21.959 C 20.988 22.137,21.353 22.049,21.701 21.701 C 22.048 21.354,22.137 20.989,21.959 20.637 C 21.888 20.496,20.623 19.155,19.748 18.293 C 19.700 18.245,16.033 14.588,11.600 10.167 C 6.038 4.619,3.488 2.102,3.372 2.044 C 3.152 1.934,2.834 1.935,2.626 2.045 M10.499 2.042 C 9.380 2.238,8.455 3.054,8.122 4.140 C 8.018 4.479,7.972 5.113,8.035 5.344 C 8.146 5.749,8.428 5.961,8.896 5.991 C 9.592 6.035,9.918 5.762,9.996 5.072 C 10.045 4.644,10.108 4.490,10.321 4.283 C 10.591 4.022,10.720 4.000,12.000 4.000 C 13.303 4.000,13.414 4.020,13.697 4.303 C 13.970 4.577,14.057 4.919,13.945 5.290 C 13.872 5.533,13.707 5.740,13.484 5.872 L 13.300 5.980 11.979 6.000 C 10.658 6.020,10.657 6.020,10.459 6.122 C 10.119 6.297,9.978 6.606,10.009 7.104 C 10.039 7.570,10.252 7.856,10.652 7.963 C 10.757 7.992,11.285 8.001,12.196 7.991 C 13.508 7.976,13.595 7.971,13.860 7.884 C 14.661 7.622,15.323 7.059,15.688 6.330 L 15.853 6.000 16.479 6.000 C 17.256 6.000,17.439 6.046,17.697 6.303 C 18.017 6.624,18.000 6.353,18.000 11.057 C 18.000 13.723,18.015 15.272,18.041 15.365 C 18.148 15.750,18.437 15.962,18.896 15.991 C 19.381 16.022,19.699 15.882,19.880 15.558 L 19.980 15.380 19.980 10.920 L 19.980 6.460 19.886 6.160 C 19.580 5.180,18.820 4.416,17.861 4.125 C 17.577 4.040,17.442 4.026,16.694 4.010 L 15.849 3.991 15.686 3.666 C 15.322 2.939,14.643 2.365,13.861 2.124 C 13.548 2.027,13.504 2.024,12.120 2.015 C 11.339 2.010,10.609 2.022,10.499 2.042 M17.920 19.382 C 17.920 19.476,17.661 19.768,17.486 19.871 L 17.300 19.980 12.000 19.980 L 6.700 19.980 6.516 19.872 C 6.415 19.813,6.284 19.700,6.225 19.623 C 5.987 19.311,6.000 19.677,6.000 13.285 L 6.000 7.420 11.960 13.380 C 15.238 16.658,17.920 19.359,17.920 19.382 " stroke="none" fill="black" fill-rule="evenodd"></path></svg>