<svg xmlns="http://www.w3.org/2000/svg" width="24" height="24" viewBox="0 0 24 24" fill="none" stroke="currentColor" stroke-width="2" stroke-linecap="round" stroke-linejoin="round" class="icon icon-tabler icons-tabler-outline icon-tabler-brand-tether"><path d="M6.949 2.043 C 6.108 2.168,5.130 2.699,4.477 3.384 C 4.333 3.536,4.141 3.769,4.051 3.902 C 3.829 4.232,1.315 9.500,1.189 9.900 C 1.032 10.401,0.986 10.777,1.011 11.371 C 1.057 12.459,1.449 13.467,2.092 14.150 C 2.351 14.426,9.196 20.897,9.450 21.108 C 9.859 21.446,10.413 21.719,11.033 21.889 C 11.450 22.003,12.437 22.014,12.871 21.909 C 13.438 21.772,13.966 21.534,14.380 21.230 C 14.792 20.927,21.659 14.448,22.005 14.036 C 22.258 13.735,22.334 13.618,22.514 13.256 C 23.035 12.211,23.143 10.898,22.794 9.841 C 22.650 9.403,20.131 4.170,19.912 3.852 C 19.668 3.499,19.156 3.002,18.777 2.751 C 18.398 2.499,17.811 2.223,17.420 2.112 L 17.100 2.021 12.140 2.015 C 9.412 2.011,7.076 2.024,6.949 2.043 M16.848 4.045 C 17.358 4.152,18.031 4.612,18.295 5.033 C 18.419 5.230,20.813 10.246,20.904 10.500 C 20.993 10.746,21.003 11.470,20.923 11.800 C 20.849 12.107,20.639 12.549,20.475 12.743 C 20.163 13.114,13.407 19.475,13.117 19.672 C 12.515 20.080,11.583 20.104,10.965 19.728 C 10.707 19.571,3.906 13.187,3.555 12.772 C 3.453 12.652,3.324 12.460,3.268 12.347 C 3.035 11.870,2.943 11.145,3.056 10.668 C 3.099 10.483,3.516 9.567,4.366 7.788 C 5.052 6.354,5.655 5.112,5.708 5.029 C 5.962 4.623,6.599 4.179,7.100 4.056 C 7.375 3.989,16.532 3.978,16.848 4.045 M7.614 7.057 C 7.377 7.131,7.212 7.261,7.109 7.453 C 7.035 7.592,7.020 7.684,7.020 8.000 C 7.020 8.331,7.033 8.403,7.120 8.558 C 7.230 8.755,7.414 8.898,7.635 8.959 C 7.721 8.983,8.435 9.000,9.390 9.000 L 11.000 9.000 11.000 12.110 C 11.000 14.070,11.015 15.274,11.041 15.365 C 11.148 15.750,11.437 15.962,11.896 15.991 C 12.381 16.022,12.699 15.882,12.880 15.558 L 12.980 15.380 12.991 12.190 L 13.002 9.000 14.611 9.000 C 15.566 9.000,16.279 8.983,16.365 8.959 C 16.586 8.898,16.770 8.755,16.880 8.558 C 16.967 8.402,16.980 8.332,16.979 8.000 C 16.978 7.567,16.898 7.355,16.678 7.199 C 16.393 6.996,16.487 7.000,11.984 7.003 C 8.651 7.005,7.746 7.016,7.614 7.057 " stroke="none" fill="black" fill-rule="evenodd"></path></svg>