<svg xmlns="http://www.w3.org/2000/svg" width="24" height="24" viewBox="0 0 24 24" fill="none" stroke="currentColor" stroke-width="2" stroke-linecap="round" stroke-linejoin="round" class="icon icon-tabler icons-tabler-outline icon-tabler-device-watch-stats-2"><path d="M8.614 2.057 C 8.377 2.131,8.212 2.261,8.109 2.453 C 8.024 2.613,8.019 2.674,8.000 3.873 L 7.980 5.126 7.720 5.217 C 6.350 5.697,5.370 6.816,5.083 8.227 C 5.003 8.618,5.000 8.755,5.000 12.000 C 5.000 15.243,5.003 15.382,5.082 15.772 C 5.359 17.128,6.281 18.231,7.540 18.711 C 7.716 18.778,7.891 18.843,7.928 18.854 C 7.989 18.874,7.997 18.992,8.008 20.128 C 8.020 21.379,8.020 21.380,8.120 21.558 C 8.230 21.755,8.414 21.898,8.635 21.959 C 8.832 22.014,15.168 22.014,15.365 21.959 C 15.586 21.898,15.770 21.755,15.880 21.558 C 15.980 21.380,15.980 21.378,15.993 20.128 C 16.004 18.995,16.012 18.873,16.073 18.854 C 16.661 18.668,17.163 18.400,17.584 18.046 C 18.266 17.471,18.735 16.669,18.921 15.757 C 18.996 15.387,19.000 15.202,19.000 12.000 C 19.000 8.798,18.996 8.613,18.921 8.243 C 18.630 6.816,17.654 5.699,16.280 5.217 L 16.020 5.126 16.000 3.873 C 15.981 2.674,15.976 2.613,15.891 2.453 C 15.785 2.256,15.622 2.131,15.371 2.055 C 15.109 1.977,8.866 1.979,8.614 2.057 M14.000 4.500 L 14.000 5.000 12.000 5.000 L 10.000 5.000 10.000 4.500 L 10.000 4.000 12.000 4.000 L 14.000 4.000 14.000 4.500 M15.523 7.073 C 16.212 7.253,16.795 7.860,16.941 8.549 C 17.026 8.950,17.026 15.050,16.941 15.451 C 16.863 15.821,16.710 16.091,16.400 16.404 C 16.119 16.690,15.854 16.846,15.492 16.940 C 15.150 17.029,8.850 17.029,8.508 16.940 C 7.823 16.762,7.249 16.194,7.073 15.523 C 7.011 15.285,7.004 14.950,7.002 12.028 C 7.000 8.431,6.998 8.459,7.265 8.014 C 7.546 7.543,7.988 7.201,8.477 7.073 C 8.715 7.011,9.047 7.005,12.000 7.005 C 14.953 7.005,15.285 7.011,15.523 7.073 M11.499 9.043 C 10.382 9.230,9.460 10.049,9.114 11.160 C 8.979 11.594,8.979 12.406,9.114 12.840 C 9.421 13.826,10.174 14.579,11.160 14.886 C 11.594 15.021,12.406 15.021,12.840 14.886 C 13.826 14.579,14.582 13.823,14.885 12.840 C 15.018 12.410,15.021 11.697,14.891 11.453 C 14.689 11.076,14.138 10.902,13.629 11.055 C 13.220 11.178,13.055 11.409,13.000 11.934 C 12.982 12.113,12.947 12.311,12.923 12.373 C 12.851 12.561,12.677 12.758,12.484 12.872 C 12.328 12.963,12.254 12.980,12.000 12.980 C 11.746 12.980,11.672 12.963,11.516 12.872 C 10.947 12.538,10.834 11.784,11.283 11.321 C 11.490 11.108,11.650 11.042,12.062 11.000 C 12.535 10.951,12.738 10.836,12.904 10.520 C 13.018 10.305,13.009 9.679,12.890 9.453 C 12.687 9.070,12.198 8.926,11.499 9.043 M14.000 19.500 L 14.000 20.000 12.000 20.000 L 10.000 20.000 10.000 19.500 L 10.000 19.000 12.000 19.000 L 14.000 19.000 14.000 19.500 " stroke="none" fill="black" fill-rule="evenodd"></path></svg>