<svg xmlns="http://www.w3.org/2000/svg" width="24" height="24" viewBox="0 0 24 24" fill="none" stroke="currentColor" stroke-width="2" stroke-linecap="round" stroke-linejoin="round" class="icon icon-tabler icons-tabler-outline icon-tabler-file-type-bmp"><path d="M6.499 2.043 C 5.393 2.228,4.488 3.024,4.114 4.140 L 4.020 4.420 4.009 8.311 C 4.001 10.892,4.011 12.253,4.039 12.355 C 4.144 12.747,4.433 12.961,4.896 12.991 C 5.381 13.022,5.699 12.882,5.880 12.558 L 5.980 12.380 6.000 8.560 C 6.022 4.280,5.999 4.597,6.321 4.283 C 6.622 3.992,6.514 4.000,9.947 4.000 L 13.000 4.000 13.000 5.632 C 13.000 7.399,13.010 7.507,13.225 7.930 C 13.361 8.199,13.801 8.639,14.070 8.775 C 14.493 8.990,14.601 9.000,16.368 9.000 L 18.000 9.000 18.000 10.610 C 18.000 11.565,18.017 12.279,18.041 12.365 C 18.148 12.750,18.437 12.962,18.896 12.991 C 19.381 13.022,19.699 12.882,19.880 12.558 L 19.980 12.380 19.980 10.000 L 19.980 7.620 19.890 7.452 C 19.841 7.360,19.724 7.231,19.630 7.165 C 19.498 7.073,15.263 2.838,14.719 2.254 C 14.473 1.991,14.626 2.000,10.463 2.005 C 8.393 2.007,6.609 2.025,6.499 2.043 M15.800 6.220 L 16.579 7.000 15.790 7.000 L 15.000 7.000 15.000 6.220 C 15.000 5.791,15.005 5.440,15.010 5.440 C 15.016 5.440,15.371 5.791,15.800 6.220 M14.688 14.002 C 14.487 14.083,14.295 14.284,13.417 15.340 C 12.711 16.188,12.492 16.428,12.457 16.390 C 12.432 16.362,12.012 15.860,11.524 15.273 C 10.503 14.044,10.473 14.020,9.959 14.020 C 9.471 14.020,9.152 14.234,9.041 14.635 C 8.986 14.832,8.986 21.168,9.041 21.365 C 9.148 21.750,9.437 21.962,9.896 21.991 C 10.381 22.022,10.699 21.882,10.880 21.558 L 10.980 21.380 11.000 19.583 L 11.020 17.786 11.316 18.143 C 11.930 18.883,12.137 19.047,12.458 19.047 C 12.828 19.047,13.060 18.883,13.591 18.250 L 13.980 17.786 14.000 19.583 L 14.020 21.380 14.120 21.558 C 14.287 21.856,14.572 22.000,15.000 22.000 C 15.428 22.000,15.713 21.856,15.880 21.558 L 15.980 21.380 15.991 18.124 C 16.004 14.449,16.016 14.613,15.704 14.304 C 15.404 14.006,14.987 13.882,14.688 14.002 M3.614 14.057 C 3.377 14.131,3.212 14.261,3.109 14.453 L 3.020 14.620 3.009 17.912 C 3.002 20.060,3.012 21.257,3.039 21.356 C 3.100 21.584,3.242 21.768,3.442 21.880 L 3.620 21.980 4.820 21.980 L 6.020 21.980 6.320 21.869 C 7.044 21.601,7.608 21.036,7.868 20.320 C 7.965 20.052,7.976 19.965,7.976 19.500 C 7.976 19.035,7.965 18.949,7.868 18.684 C 7.809 18.521,7.705 18.301,7.636 18.194 L 7.512 18.000 7.636 17.806 C 7.705 17.699,7.809 17.479,7.868 17.316 C 7.965 17.051,7.976 16.965,7.976 16.500 C 7.976 16.035,7.965 15.948,7.868 15.680 C 7.732 15.306,7.458 14.898,7.165 14.636 C 6.887 14.387,6.390 14.137,6.020 14.060 C 5.647 13.982,3.861 13.980,3.614 14.057 M17.614 14.057 C 17.377 14.131,17.212 14.261,17.109 14.453 L 17.020 14.620 17.009 17.912 C 17.002 20.060,17.012 21.257,17.039 21.356 C 17.144 21.747,17.434 21.961,17.896 21.991 C 18.381 22.022,18.699 21.882,18.880 21.558 C 18.979 21.381,18.980 21.374,18.993 20.195 L 19.005 19.010 19.513 18.991 C 19.925 18.975,20.076 18.951,20.320 18.865 C 21.031 18.614,21.605 18.041,21.867 17.320 C 21.965 17.051,21.976 16.966,21.976 16.500 C 21.976 16.035,21.965 15.948,21.868 15.680 C 21.732 15.306,21.458 14.898,21.165 14.636 C 20.887 14.387,20.390 14.137,20.020 14.060 C 19.647 13.982,17.861 13.980,17.614 14.057 M5.748 16.078 C 6.076 16.278,6.076 16.722,5.748 16.922 C 5.650 16.981,5.547 17.000,5.310 17.000 L 5.000 17.000 5.000 16.500 L 5.000 16.000 5.310 16.000 C 5.547 16.000,5.650 16.019,5.748 16.078 M19.748 16.078 C 19.893 16.167,20.000 16.346,20.000 16.500 C 20.000 16.654,19.893 16.833,19.748 16.922 C 19.650 16.981,19.547 17.000,19.310 17.000 L 19.000 17.000 19.000 16.500 L 19.000 16.000 19.310 16.000 C 19.547 16.000,19.650 16.019,19.748 16.078 M5.748 19.078 C 6.076 19.278,6.076 19.722,5.748 19.922 C 5.650 19.981,5.547 20.000,5.310 20.000 L 5.000 20.000 5.000 19.500 L 5.000 19.000 5.310 19.000 C 5.547 19.000,5.650 19.019,5.748 19.078 " stroke="none" fill="black" fill-rule="evenodd"></path></svg>