<svg xmlns="http://www.w3.org/2000/svg" width="24" height="24" viewBox="0 0 24 24" fill="none" stroke="currentColor" stroke-width="2" stroke-linecap="round" stroke-linejoin="round" class="icon icon-tabler icons-tabler-outline icon-tabler-mood-sick"><path d="M11.080 2.045 C 9.507 2.184,7.883 2.751,6.540 3.630 C 5.905 4.045,5.499 4.378,4.919 4.958 C 2.953 6.926,1.919 9.544,2.013 12.320 C 2.084 14.439,2.752 16.328,4.033 18.040 C 4.430 18.570,5.305 19.464,5.800 19.847 C 7.242 20.961,8.787 21.624,10.600 21.907 C 11.247 22.008,12.753 22.008,13.400 21.907 C 15.638 21.557,17.504 20.620,19.062 19.062 C 20.620 17.504,21.557 15.638,21.907 13.400 C 22.008 12.753,22.008 11.247,21.907 10.600 C 21.624 8.786,20.959 7.238,19.847 5.800 C 19.510 5.365,18.639 4.494,18.200 4.154 C 16.133 2.555,13.646 1.818,11.080 2.045 M12.734 4.041 C 14.574 4.216,16.228 4.976,17.554 6.256 C 20.043 8.658,20.702 12.394,19.183 15.499 C 18.749 16.387,18.223 17.105,17.496 17.801 C 16.876 18.394,16.262 18.819,15.471 19.200 C 13.267 20.265,10.733 20.265,8.529 19.200 C 7.477 18.693,6.612 18.015,5.847 17.100 C 3.848 14.711,3.440 11.302,4.816 8.500 C 6.162 5.760,8.867 4.049,11.920 4.005 C 12.129 4.003,12.495 4.019,12.734 4.041 M8.660 9.037 C 8.215 9.146,8.000 9.459,8.000 9.998 C 8.000 10.654,8.342 11.000,8.991 11.000 C 9.428 10.999,9.712 10.858,9.880 10.558 C 9.967 10.402,9.980 10.332,9.979 10.000 C 9.978 9.567,9.898 9.355,9.678 9.199 C 9.435 9.025,8.995 8.956,8.660 9.037 M14.660 9.037 C 14.215 9.146,14.000 9.459,14.000 9.998 C 14.000 10.654,14.342 11.000,14.991 11.000 C 15.428 10.999,15.712 10.858,15.880 10.558 C 15.967 10.402,15.980 10.332,15.979 10.000 C 15.978 9.567,15.898 9.355,15.678 9.199 C 15.435 9.025,14.995 8.956,14.660 9.037 M8.763 14.005 C 8.535 14.073,8.328 14.244,7.716 14.866 C 7.084 15.508,6.951 15.706,6.951 16.000 C 6.951 16.477,7.523 17.049,8.000 17.049 C 8.256 17.049,8.471 16.929,8.832 16.582 L 9.137 16.290 9.599 16.597 C 10.138 16.957,10.248 17.007,10.500 17.007 C 10.756 17.007,10.860 16.958,11.470 16.552 L 12.000 16.199 12.530 16.552 C 13.140 16.958,13.244 17.007,13.500 17.007 C 13.752 17.007,13.862 16.957,14.401 16.597 L 14.863 16.290 15.168 16.582 C 15.336 16.743,15.550 16.914,15.644 16.962 C 15.987 17.137,16.356 17.046,16.701 16.701 C 17.048 16.354,17.137 15.989,16.960 15.637 C 16.843 15.405,15.598 14.160,15.380 14.059 C 15.174 13.962,14.828 13.963,14.640 14.060 C 14.563 14.100,14.285 14.276,14.021 14.453 C 13.758 14.629,13.523 14.773,13.500 14.773 C 13.477 14.773,13.235 14.624,12.964 14.443 C 12.380 14.051,12.268 14.000,12.000 14.000 C 11.732 14.000,11.620 14.051,11.036 14.443 C 10.765 14.624,10.523 14.773,10.500 14.773 C 10.477 14.773,10.242 14.629,9.979 14.453 C 9.715 14.276,9.446 14.104,9.379 14.070 C 9.216 13.986,8.929 13.955,8.763 14.005 " stroke="none" fill="black" fill-rule="evenodd"></path></svg>