<svg xmlns="http://www.w3.org/2000/svg" width="24" height="24" viewBox="0 0 24 24" fill="none" stroke="currentColor" stroke-width="2" stroke-linecap="round" stroke-linejoin="round" class="icon icon-tabler icons-tabler-outline icon-tabler-box-multiple-2"><path d="M8.499 2.043 C 7.388 2.231,6.470 3.041,6.118 4.140 C 6.042 4.379,6.026 4.536,6.010 5.205 L 5.991 5.991 5.225 6.010 C 4.567 6.027,4.415 6.043,4.139 6.126 C 3.181 6.415,2.420 7.179,2.114 8.160 L 2.020 8.460 2.020 14.000 L 2.020 19.540 2.114 19.840 C 2.422 20.827,3.173 21.578,4.160 21.886 L 4.460 21.980 10.000 21.980 L 15.540 21.980 15.840 21.886 C 16.818 21.581,17.570 20.834,17.882 19.860 C 17.958 19.621,17.974 19.464,17.990 18.795 L 18.009 18.009 18.795 17.990 C 19.464 17.974,19.621 17.958,19.860 17.882 C 20.834 17.570,21.581 16.818,21.886 15.840 L 21.980 15.540 21.980 10.000 L 21.980 4.460 21.886 4.160 C 21.581 3.182,20.832 2.428,19.861 2.121 L 19.540 2.020 14.120 2.014 C 11.139 2.011,8.609 2.024,8.499 2.043 M19.310 4.061 C 19.589 4.144,19.856 4.411,19.939 4.690 C 19.992 4.868,20.000 5.546,20.000 10.001 C 20.000 14.212,19.990 15.139,19.945 15.290 C 19.872 15.533,19.707 15.740,19.484 15.872 L 19.300 15.980 14.000 15.980 L 8.700 15.980 8.516 15.872 C 8.303 15.747,8.141 15.550,8.058 15.316 C 7.969 15.061,7.971 4.993,8.061 4.690 C 8.140 4.421,8.412 4.143,8.673 4.063 C 8.963 3.974,19.010 3.972,19.310 4.061 M13.499 5.040 C 12.371 5.245,11.455 6.054,11.122 7.140 C 11.018 7.479,10.972 8.113,11.035 8.344 C 11.146 8.749,11.428 8.961,11.896 8.991 C 12.592 9.035,12.918 8.762,12.996 8.072 C 13.045 7.644,13.108 7.490,13.321 7.283 C 13.490 7.120,13.777 7.000,14.000 7.000 C 14.412 7.000,14.829 7.313,14.944 7.709 C 15.022 7.978,15.003 8.159,14.862 8.467 C 14.689 8.847,14.520 9.079,12.782 11.340 C 11.869 12.528,11.085 13.576,11.041 13.670 C 10.873 14.022,10.961 14.407,11.275 14.690 C 11.616 14.998,11.440 14.979,13.951 14.991 C 15.405 14.999,16.256 14.988,16.355 14.961 C 16.583 14.900,16.768 14.758,16.880 14.558 C 16.968 14.402,16.980 14.333,16.979 14.000 C 16.977 13.468,16.850 13.244,16.455 13.072 C 16.376 13.037,15.983 13.015,15.193 13.001 L 14.046 12.980 15.046 11.680 C 16.395 9.927,16.594 9.618,16.845 8.880 C 16.964 8.531,16.975 8.458,16.977 7.980 C 16.979 7.544,16.964 7.412,16.886 7.160 C 16.581 6.179,15.811 5.407,14.861 5.129 C 14.500 5.023,13.832 4.980,13.499 5.040 M6.009 11.790 L 6.020 15.580 6.114 15.860 C 6.442 16.840,7.160 17.558,8.140 17.886 L 8.420 17.980 12.210 17.991 L 16.000 18.003 16.000 18.555 C 16.000 19.352,15.890 19.633,15.484 19.872 L 15.300 19.980 10.000 19.980 L 4.700 19.980 4.516 19.872 C 4.415 19.813,4.284 19.700,4.225 19.623 C 3.988 19.312,4.000 19.608,4.000 14.022 C 4.000 8.240,3.979 8.627,4.304 8.303 C 4.554 8.053,4.728 8.006,5.429 8.003 L 5.997 8.000 6.009 11.790 " stroke="none" fill="black" fill-rule="evenodd"></path></svg>