<svg xmlns="http://www.w3.org/2000/svg" width="24" height="24" viewBox="0 0 24 24" fill="none" stroke="currentColor" stroke-width="2" stroke-linecap="round" stroke-linejoin="round" class="icon icon-tabler icons-tabler-outline icon-tabler-wind"><path d="M12.934 2.059 C 12.549 2.129,12.396 2.181,12.020 2.369 C 11.579 2.590,11.256 2.827,10.956 3.152 C 10.348 3.810,9.991 4.803,10.211 5.224 C 10.402 5.589,11.068 5.871,11.478 5.761 C 11.750 5.687,11.934 5.486,12.105 5.072 C 12.297 4.611,12.538 4.335,12.912 4.151 C 13.153 4.032,13.212 4.020,13.539 4.020 C 13.860 4.020,13.929 4.034,14.164 4.145 C 14.753 4.424,15.077 4.978,15.029 5.623 C 14.988 6.163,14.672 6.614,14.168 6.853 L 13.900 6.980 9.279 7.000 L 4.658 7.020 4.459 7.122 C 4.119 7.297,3.978 7.606,4.009 8.104 C 4.039 8.567,4.253 8.856,4.644 8.961 C 4.746 8.988,6.371 8.998,9.488 8.990 L 14.180 8.979 14.468 8.890 C 15.094 8.697,15.480 8.471,15.955 8.020 C 16.663 7.348,16.989 6.628,17.029 5.640 C 17.062 4.841,16.895 4.232,16.469 3.592 C 16.266 3.289,15.892 2.880,15.639 2.686 C 14.940 2.149,13.841 1.894,12.934 2.059 M2.614 11.057 C 2.223 11.180,2.039 11.436,2.009 11.900 C 1.978 12.381,2.119 12.699,2.442 12.880 L 2.620 12.980 10.760 13.000 L 18.900 13.020 19.168 13.147 C 19.672 13.386,19.988 13.837,20.029 14.377 C 20.077 15.022,19.753 15.576,19.164 15.855 C 18.929 15.966,18.860 15.980,18.539 15.980 C 18.212 15.980,18.153 15.968,17.912 15.849 C 17.544 15.668,17.290 15.382,17.118 14.956 C 16.897 14.407,16.698 14.240,16.263 14.240 C 15.813 14.240,15.373 14.464,15.212 14.776 C 14.972 15.238,15.382 16.275,16.076 16.961 C 16.810 17.687,17.694 18.036,18.680 17.988 C 19.904 17.929,20.889 17.347,21.544 16.295 C 21.911 15.707,22.064 15.088,22.030 14.334 C 21.986 13.379,21.658 12.654,20.974 11.995 C 20.527 11.566,20.038 11.282,19.420 11.095 C 19.192 11.026,18.779 11.022,10.980 11.013 C 4.310 11.006,2.749 11.014,2.614 11.057 M3.614 15.056 C 3.222 15.181,3.039 15.436,3.009 15.900 C 2.978 16.381,3.119 16.699,3.442 16.880 L 3.620 16.980 6.760 17.000 L 9.900 17.020 10.168 17.147 C 10.672 17.386,10.988 17.837,11.029 18.377 C 11.077 19.022,10.753 19.576,10.164 19.855 C 9.929 19.966,9.860 19.980,9.539 19.980 C 9.212 19.980,9.153 19.968,8.912 19.849 C 8.544 19.668,8.290 19.382,8.118 18.956 C 7.897 18.407,7.698 18.240,7.263 18.240 C 6.813 18.240,6.373 18.464,6.212 18.776 C 6.113 18.966,6.128 19.294,6.252 19.662 C 6.569 20.599,7.341 21.393,8.299 21.765 C 9.208 22.118,10.232 22.065,11.142 21.617 C 12.066 21.163,12.815 20.146,13.001 19.094 C 13.114 18.451,12.981 17.519,12.695 16.948 C 12.346 16.254,11.614 15.568,10.900 15.268 C 10.291 15.013,10.488 15.025,6.980 15.014 C 4.413 15.006,3.747 15.014,3.614 15.056 " stroke="none" fill="black" fill-rule="evenodd"></path></svg>