<svg xmlns="http://www.w3.org/2000/svg" width="24" height="24" viewBox="0 0 24 24" fill="none" stroke="currentColor" stroke-width="2" stroke-linecap="round" stroke-linejoin="round" class="icon icon-tabler icons-tabler-outline icon-tabler-number-12-small"><path d="M8.620 7.046 C 8.390 7.165,6.153 9.411,6.040 9.637 C 5.863 9.990,5.952 10.354,6.299 10.701 C 6.641 11.043,7.013 11.137,7.349 10.965 C 7.440 10.919,7.623 10.780,7.757 10.656 L 8.000 10.431 8.000 13.326 C 8.000 15.141,8.015 16.274,8.041 16.365 C 8.148 16.750,8.437 16.962,8.896 16.991 C 9.381 17.022,9.699 16.882,9.880 16.558 L 9.980 16.380 9.980 12.040 L 9.980 7.700 9.871 7.514 C 9.758 7.323,9.558 7.141,9.332 7.025 C 9.153 6.934,8.818 6.944,8.620 7.046 M12.614 7.057 C 12.377 7.131,12.212 7.261,12.109 7.453 C 12.035 7.592,12.020 7.684,12.020 8.000 C 12.020 8.331,12.033 8.403,12.120 8.558 C 12.230 8.755,12.414 8.898,12.635 8.959 C 12.721 8.983,13.435 9.000,14.390 9.000 L 16.000 9.000 16.000 10.000 L 16.000 11.000 14.870 11.002 C 13.595 11.005,13.391 11.035,12.983 11.281 C 12.703 11.449,12.354 11.816,12.219 12.083 C 12.019 12.478,12.000 12.640,12.000 14.000 C 12.000 15.368,12.018 15.521,12.225 15.930 C 12.361 16.199,12.801 16.639,13.070 16.775 C 13.497 16.991,13.591 17.000,15.478 17.000 C 16.522 17.000,17.278 16.983,17.365 16.959 C 17.586 16.898,17.770 16.755,17.880 16.558 C 17.967 16.402,17.980 16.332,17.979 16.000 C 17.978 15.567,17.898 15.355,17.678 15.199 C 17.416 15.012,17.290 15.000,15.594 15.000 L 14.000 15.000 14.000 14.000 L 14.000 13.000 15.132 13.000 C 16.358 13.000,16.528 12.979,16.930 12.775 C 17.196 12.640,17.638 12.200,17.771 11.937 C 17.979 11.527,18.000 11.352,17.999 10.014 C 17.999 8.682,17.974 8.463,17.781 8.083 C 17.646 7.816,17.297 7.449,17.017 7.281 C 16.578 7.017,16.468 7.005,14.520 7.005 C 13.204 7.005,12.739 7.018,12.614 7.057 " stroke="none" fill="black" fill-rule="evenodd"></path></svg>