<svg xmlns="http://www.w3.org/2000/svg" width="24" height="24" viewBox="0 0 24 24" fill="none" stroke="currentColor" stroke-width="2" stroke-linecap="round" stroke-linejoin="round" class="icon icon-tabler icons-tabler-outline icon-tabler-brand-d3"><path d="M2.614 3.057 C 2.223 3.180,2.039 3.436,2.009 3.900 C 1.978 4.381,2.119 4.699,2.442 4.880 C 2.620 4.980,2.622 4.980,4.040 5.006 C 5.503 5.033,5.773 5.059,6.360 5.234 C 8.539 5.881,10.254 7.825,10.796 10.260 C 10.938 10.896,10.974 11.244,10.974 12.000 C 10.974 12.756,10.938 13.104,10.796 13.740 C 10.234 16.264,8.378 18.286,6.120 18.835 C 5.567 18.969,5.165 19.000,3.957 19.000 C 2.740 19.000,2.572 19.020,2.322 19.199 C 2.100 19.357,2.020 19.568,2.020 20.000 C 2.020 20.331,2.033 20.403,2.120 20.558 C 2.230 20.755,2.414 20.898,2.635 20.959 C 2.828 21.013,5.095 21.012,5.592 20.958 C 9.181 20.568,12.116 17.660,12.837 13.780 C 13.523 10.085,12.000 6.268,9.060 4.313 C 8.010 3.615,6.766 3.167,5.526 3.042 C 4.919 2.981,2.824 2.992,2.614 3.057 M11.614 3.057 C 11.223 3.180,11.039 3.436,11.009 3.900 C 10.978 4.381,11.119 4.699,11.442 4.880 L 11.620 4.980 14.780 5.000 L 17.940 5.020 18.201 5.122 C 19.470 5.617,20.205 7.093,19.940 8.614 C 19.825 9.271,19.577 9.771,19.131 10.244 C 18.834 10.558,18.581 10.731,18.207 10.874 C 17.940 10.977,17.939 10.977,16.299 10.998 L 14.658 11.020 14.459 11.122 C 14.144 11.284,14.000 11.560,14.000 12.000 C 14.000 12.428,14.144 12.713,14.442 12.880 L 14.620 12.980 16.280 13.001 C 17.931 13.023,17.941 13.024,18.201 13.123 C 19.466 13.609,20.205 15.093,19.940 16.614 C 19.825 17.271,19.577 17.771,19.131 18.244 C 18.836 18.557,18.583 18.730,18.207 18.876 L 17.940 18.980 14.799 19.000 L 11.658 19.020 11.459 19.122 C 11.119 19.297,10.978 19.606,11.009 20.104 C 11.038 20.563,11.250 20.852,11.635 20.959 C 11.726 20.985,12.900 21.000,14.800 21.000 C 18.061 21.000,18.142 20.996,18.776 20.783 C 19.452 20.556,19.981 20.221,20.520 19.681 C 21.835 18.364,22.317 16.355,21.775 14.460 C 21.549 13.669,20.992 12.737,20.440 12.226 L 20.195 12.000 20.440 11.774 C 20.992 11.263,21.549 10.331,21.775 9.540 C 22.151 8.228,22.049 6.908,21.479 5.692 C 20.786 4.215,19.475 3.228,17.961 3.042 C 17.433 2.977,11.827 2.991,11.614 3.057 " stroke="none" fill="black" fill-rule="evenodd"></path></svg>