<svg xmlns="http://www.w3.org/2000/svg" width="24" height="24" viewBox="0 0 24 24" fill="none" stroke="currentColor" stroke-width="2" stroke-linecap="round" stroke-linejoin="round" class="icon icon-tabler icons-tabler-outline icon-tabler-ripple-off"><path d="M2.626 2.045 C 2.257 2.239,1.951 2.673,1.951 3.000 C 1.951 3.319,2.071 3.481,3.025 4.441 L 3.919 5.343 3.610 5.495 C 3.100 5.745,2.339 6.229,2.183 6.402 C 2.004 6.600,1.960 6.710,1.960 6.953 C 1.961 7.304,2.274 7.794,2.606 7.963 C 2.796 8.060,3.089 8.061,3.300 7.966 C 3.388 7.926,3.622 7.793,3.820 7.671 C 4.211 7.430,4.843 7.108,5.214 6.961 L 5.448 6.868 6.774 8.194 L 8.100 9.520 7.480 9.521 C 5.856 9.523,4.387 9.973,2.781 10.963 C 2.330 11.241,2.071 11.473,1.998 11.665 C 1.887 11.958,2.014 12.398,2.303 12.718 C 2.501 12.937,2.708 13.040,2.948 13.039 C 3.174 13.038,3.341 12.968,3.800 12.680 C 4.586 12.187,5.468 11.816,6.286 11.633 C 6.643 11.553,6.809 11.540,7.500 11.540 C 8.191 11.540,8.357 11.553,8.714 11.633 C 9.520 11.813,10.493 12.221,11.153 12.656 C 11.339 12.778,12.121 13.534,13.740 15.158 L 16.060 17.485 15.860 17.460 C 14.738 17.317,13.791 16.942,12.458 16.113 C 10.619 14.968,9.228 14.521,7.500 14.521 C 6.138 14.521,4.994 14.804,3.667 15.467 C 2.725 15.938,2.105 16.383,1.998 16.665 C 1.887 16.958,2.014 17.398,2.303 17.718 C 2.501 17.937,2.708 18.040,2.948 18.039 C 3.174 18.038,3.341 17.968,3.800 17.680 C 4.586 17.187,5.468 16.816,6.286 16.633 C 6.643 16.553,6.809 16.540,7.500 16.540 C 8.191 16.540,8.357 16.553,8.714 16.633 C 9.632 16.838,10.403 17.181,11.520 17.880 C 13.151 18.902,14.460 19.370,15.988 19.479 C 16.534 19.518,17.279 19.484,17.728 19.398 L 17.936 19.359 19.198 20.615 C 20.031 21.443,20.520 21.901,20.637 21.960 C 20.989 22.137,21.354 22.048,21.701 21.701 C 22.048 21.354,22.137 20.989,21.960 20.637 C 21.901 20.522,21.379 19.960,20.454 19.020 C 19.674 18.228,18.994 17.538,18.942 17.487 C 18.837 17.384,6.597 5.142,6.414 4.958 C 5.246 3.779,3.505 2.112,3.372 2.045 C 3.152 1.934,2.835 1.934,2.626 2.045 M9.489 5.005 C 9.219 5.138,8.994 5.527,8.937 5.957 C 8.880 6.382,9.116 6.693,9.650 6.899 C 10.154 7.094,10.838 7.453,11.515 7.876 C 12.257 8.341,12.910 8.681,13.512 8.915 C 16.077 9.914,18.726 9.608,21.254 8.021 C 21.674 7.757,21.931 7.522,22.002 7.335 C 22.113 7.042,21.986 6.602,21.697 6.282 C 21.499 6.063,21.292 5.960,21.052 5.961 C 20.828 5.962,20.652 6.036,20.240 6.300 C 19.220 6.957,17.995 7.393,16.940 7.475 C 15.504 7.587,14.164 7.186,12.540 6.159 C 11.442 5.464,10.252 4.920,9.831 4.920 C 9.737 4.920,9.583 4.958,9.489 5.005 M20.636 11.072 C 20.517 11.133,20.249 11.290,20.040 11.419 C 19.284 11.887,18.415 12.226,17.480 12.416 C 16.901 12.534,16.711 12.639,16.570 12.919 C 16.413 13.230,16.467 13.781,16.686 14.101 C 16.877 14.379,17.262 14.491,17.729 14.404 C 19.051 14.159,20.199 13.701,21.367 12.953 C 21.689 12.746,21.937 12.505,22.002 12.335 C 22.113 12.042,21.986 11.602,21.697 11.282 C 21.388 10.940,21.028 10.869,20.636 11.072 " stroke="none" fill="black" fill-rule="evenodd"></path></svg>