<svg xmlns="http://www.w3.org/2000/svg" width="24" height="24" viewBox="0 0 24 24" fill="none" stroke="currentColor" stroke-width="2" stroke-linecap="round" stroke-linejoin="round" class="icon icon-tabler icons-tabler-outline icon-tabler-alarm-snooze"><path d="M6.636 3.070 C 6.429 3.176,3.941 4.965,3.553 5.287 C 3.121 5.646,3.089 6.095,3.462 6.602 C 3.775 7.029,4.205 7.159,4.604 6.946 C 4.815 6.834,7.563 4.843,7.754 4.665 C 8.053 4.385,8.124 4.003,7.942 3.644 C 7.628 3.024,7.143 2.811,6.636 3.070 M16.557 3.073 C 16.210 3.293,15.960 3.699,15.960 4.040 C 15.960 4.278,16.055 4.486,16.246 4.665 C 16.437 4.843,19.185 6.834,19.396 6.946 C 19.795 7.159,20.225 7.029,20.538 6.602 C 20.911 6.095,20.879 5.646,20.447 5.287 C 20.059 4.965,17.571 3.176,17.364 3.070 C 17.067 2.918,16.800 2.919,16.557 3.073 M11.207 5.043 C 9.656 5.193,8.096 5.846,6.900 6.847 C 5.985 7.612,5.307 8.477,4.800 9.529 C 3.734 11.734,3.735 14.267,4.801 16.474 C 5.225 17.352,5.730 18.049,6.446 18.741 C 7.114 19.389,7.706 19.803,8.529 20.200 C 11.259 21.519,14.467 21.184,16.900 19.326 C 17.239 19.067,17.925 18.394,18.211 18.040 C 20.163 15.625,20.547 12.317,19.200 9.529 C 18.693 8.477,18.015 7.612,17.100 6.847 C 15.483 5.494,13.337 4.837,11.207 5.043 M12.564 7.039 C 14.921 7.269,16.913 8.837,17.671 11.060 C 18.168 12.517,18.068 14.251,17.410 15.580 C 16.550 17.316,15.056 18.478,13.160 18.885 C 12.554 19.015,11.446 19.015,10.840 18.885 C 8.941 18.478,7.451 17.319,6.590 15.580 C 5.932 14.251,5.832 12.517,6.329 11.060 C 6.618 10.212,7.080 9.470,7.731 8.805 C 9.008 7.503,10.757 6.864,12.564 7.039 M9.614 10.057 C 9.377 10.131,9.212 10.261,9.109 10.453 C 9.035 10.592,9.020 10.684,9.020 11.000 C 9.020 11.331,9.033 11.403,9.120 11.558 C 9.230 11.755,9.414 11.898,9.635 11.959 C 9.715 11.981,10.184 12.000,10.679 12.000 L 11.577 12.000 10.353 13.230 C 9.056 14.534,8.951 14.667,8.951 15.001 C 8.951 15.309,9.192 15.681,9.514 15.871 L 9.700 15.980 11.951 15.991 C 13.405 15.999,14.256 15.988,14.355 15.961 C 14.583 15.900,14.768 15.758,14.880 15.558 C 14.967 15.402,14.980 15.332,14.979 15.000 C 14.978 14.567,14.898 14.355,14.678 14.199 C 14.439 14.028,14.243 14.000,13.305 14.000 L 12.422 14.000 13.626 12.790 C 14.289 12.125,14.865 11.517,14.906 11.440 C 14.962 11.334,14.979 11.217,14.978 10.960 C 14.975 10.436,14.808 10.187,14.371 10.055 C 14.112 9.977,9.864 9.979,9.614 10.057 " stroke="none" fill="black" fill-rule="evenodd"></path></svg>