<svg xmlns="http://www.w3.org/2000/svg" width="24" height="24" viewBox="0 0 24 24" fill="none" stroke="currentColor" stroke-width="2" stroke-linecap="round" stroke-linejoin="round" class="icon icon-tabler icons-tabler-outline icon-tabler-currency-ethereum"><path d="M11.600 2.038 C 11.523 2.079,11.404 2.173,11.335 2.247 C 11.183 2.408,5.132 11.481,5.059 11.656 C 4.905 12.025,4.956 12.389,5.197 12.654 C 5.280 12.745,6.681 14.818,8.308 17.260 C 10.636 20.752,11.301 21.724,11.424 21.809 C 11.896 22.135,12.326 22.115,12.665 21.754 C 12.793 21.617,18.811 12.609,18.937 12.365 C 19.029 12.187,19.062 11.846,19.003 11.669 C 18.977 11.591,18.888 11.449,18.804 11.353 C 18.721 11.258,17.320 9.182,15.692 6.740 C 12.602 2.104,12.659 2.183,12.271 2.022 C 12.072 1.939,11.772 1.946,11.600 2.038 M13.533 7.100 C 14.362 8.343,15.040 9.369,15.040 9.379 C 15.040 9.390,14.418 9.089,13.657 8.709 L 12.274 8.020 12.000 8.020 L 11.726 8.020 10.343 8.709 C 9.582 9.089,8.960 9.390,8.960 9.379 C 8.960 9.340,11.974 4.840,12.000 4.840 C 12.015 4.840,12.705 5.857,13.533 7.100 M13.690 10.966 L 15.380 11.812 13.690 12.376 L 12.000 12.939 10.310 12.376 L 8.620 11.812 10.300 10.968 C 11.224 10.504,11.985 10.123,11.990 10.122 C 11.996 10.121,12.761 10.501,13.690 10.966 M12.000 14.999 C 12.125 14.999,12.694 14.828,13.850 14.443 C 14.768 14.137,15.520 13.895,15.520 13.904 C 15.520 13.941,12.025 19.160,12.000 19.160 C 11.975 19.160,8.480 13.941,8.480 13.904 C 8.480 13.895,9.232 14.137,10.150 14.443 C 11.306 14.828,11.875 14.999,12.000 14.999 " stroke="none" fill="black" fill-rule="evenodd"></path></svg>