<svg xmlns="http://www.w3.org/2000/svg" width="24" height="24" viewBox="0 0 24 24" fill="none" stroke="currentColor" stroke-width="2" stroke-linecap="round" stroke-linejoin="round" class="icon icon-tabler icons-tabler-outline icon-tabler-creative-commons-zero"><path d="M11.080 2.045 C 9.507 2.184,7.883 2.751,6.540 3.630 C 5.905 4.045,5.499 4.378,4.919 4.958 C 2.953 6.926,1.919 9.544,2.013 12.320 C 2.084 14.439,2.752 16.328,4.033 18.040 C 4.430 18.570,5.305 19.464,5.800 19.847 C 7.242 20.961,8.787 21.624,10.600 21.907 C 11.247 22.008,12.753 22.008,13.400 21.907 C 15.638 21.557,17.504 20.620,19.062 19.062 C 20.620 17.504,21.557 15.638,21.907 13.400 C 22.008 12.753,22.008 11.247,21.907 10.600 C 21.624 8.786,20.959 7.238,19.847 5.800 C 19.510 5.365,18.639 4.494,18.200 4.154 C 16.133 2.555,13.646 1.818,11.080 2.045 M12.734 4.041 C 14.574 4.216,16.228 4.976,17.554 6.256 C 20.043 8.658,20.702 12.394,19.183 15.499 C 18.749 16.387,18.223 17.105,17.496 17.801 C 16.876 18.394,16.262 18.819,15.471 19.200 C 13.267 20.265,10.733 20.265,8.529 19.200 C 7.477 18.693,6.612 18.015,5.847 17.100 C 3.848 14.711,3.440 11.302,4.816 8.500 C 6.162 5.760,8.867 4.049,11.920 4.005 C 12.129 4.003,12.495 4.019,12.734 4.041 M11.526 7.043 C 10.542 7.171,9.527 7.864,8.899 8.838 C 8.527 9.415,8.278 10.038,8.114 10.800 C 7.984 11.410,7.984 12.592,8.115 13.200 C 8.269 13.918,8.521 14.565,8.856 15.100 C 8.925 15.210,9.007 15.350,9.038 15.412 C 9.117 15.567,9.730 16.150,10.020 16.346 C 11.507 17.355,13.252 17.173,14.526 15.876 C 15.195 15.194,15.646 14.304,15.887 13.188 C 16.015 12.597,16.015 11.403,15.887 10.812 C 15.728 10.075,15.469 9.413,15.135 8.889 C 15.061 8.773,15.000 8.661,15.000 8.639 C 15.000 8.565,14.422 7.993,14.107 7.755 C 13.307 7.152,12.468 6.921,11.526 7.043 M12.518 9.107 L 12.681 9.180 11.405 11.093 C 10.703 12.146,10.120 12.992,10.108 12.973 C 10.097 12.955,10.066 12.762,10.038 12.544 C 9.983 12.102,10.007 11.495,10.097 11.074 C 10.304 10.106,10.960 9.244,11.635 9.053 C 11.871 8.986,12.306 9.013,12.518 9.107 M13.956 11.396 C 14.124 12.679,13.758 13.880,12.983 14.594 C 12.679 14.873,12.406 14.980,12.000 14.979 C 11.746 14.979,11.617 14.959,11.489 14.899 L 11.319 14.820 12.589 12.913 C 13.288 11.864,13.872 11.018,13.886 11.033 C 13.900 11.048,13.932 11.211,13.956 11.396 " stroke="none" fill="black" fill-rule="evenodd"></path></svg>