<svg xmlns="http://www.w3.org/2000/svg" width="24" height="24" viewBox="0 0 24 24" fill="none" stroke="currentColor" stroke-width="2" stroke-linecap="round" stroke-linejoin="round" class="icon icon-tabler icons-tabler-outline icon-tabler-ice-skating"><path d="M5.520 4.045 C 4.819 4.158,4.128 4.813,3.963 5.520 C 3.940 5.619,3.732 7.582,3.501 9.882 C 3.033 14.553,3.042 14.334,3.303 14.870 C 3.568 15.413,4.103 15.837,4.672 15.956 C 4.806 15.984,5.459 16.000,6.442 16.000 L 8.000 16.000 8.000 17.000 L 8.000 18.000 5.406 18.000 C 2.637 18.000,2.597 18.003,2.322 18.199 C 2.100 18.357,2.020 18.568,2.020 19.000 C 2.020 19.331,2.033 19.403,2.120 19.558 C 2.230 19.755,2.414 19.898,2.635 19.959 C 2.730 19.986,5.789 20.000,11.522 20.000 C 21.062 20.000,20.457 20.014,20.930 19.775 C 21.196 19.640,21.638 19.200,21.771 18.937 C 22.103 18.282,22.060 17.470,21.678 17.199 C 21.315 16.940,20.685 16.940,20.322 17.199 C 20.165 17.310,20.042 17.550,20.012 17.803 L 19.989 18.000 17.994 18.000 L 16.000 18.000 16.000 17.000 L 16.000 16.000 17.632 16.000 C 19.399 16.000,19.507 15.990,19.930 15.775 C 20.196 15.640,20.638 15.200,20.771 14.937 C 20.973 14.540,21.010 14.293,20.989 13.480 C 20.968 12.626,20.928 12.437,20.658 11.895 C 20.290 11.159,19.534 10.527,18.780 10.326 C 18.692 10.302,17.513 10.066,16.160 9.801 C 14.807 9.536,13.594 9.281,13.465 9.233 C 13.336 9.186,13.125 9.069,12.995 8.973 C 12.568 8.659,12.476 8.489,11.764 6.711 C 11.403 5.808,11.058 5.007,10.982 4.894 C 10.699 4.474,10.183 4.131,9.703 4.043 C 9.415 3.991,5.847 3.992,5.520 4.045 M9.899 7.440 C 10.578 9.131,10.609 9.203,10.771 9.460 C 11.309 10.315,12.180 10.967,13.123 11.222 C 13.242 11.254,14.435 11.497,15.773 11.761 C 17.112 12.025,18.273 12.269,18.353 12.303 C 18.539 12.380,18.782 12.613,18.892 12.820 C 18.963 12.953,18.980 13.065,18.993 13.490 L 19.008 14.000 12.064 14.000 C 5.478 14.000,5.120 13.996,5.119 13.930 C 5.119 13.821,5.885 6.106,5.902 6.050 C 5.915 6.010,6.279 6.001,7.623 6.010 L 9.328 6.020 9.899 7.440 M14.000 17.000 L 14.000 18.000 12.000 18.000 L 10.000 18.000 10.000 17.000 L 10.000 16.000 12.000 16.000 L 14.000 16.000 14.000 17.000 " stroke="none" fill="black" fill-rule="evenodd"></path></svg>