<svg xmlns="http://www.w3.org/2000/svg" width="24" height="24" viewBox="0 0 24 24" fill="none" stroke="currentColor" stroke-width="2" stroke-linecap="round" stroke-linejoin="round" class="icon icon-tabler icons-tabler-outline icon-tabler-currency-lira"><path d="M9.614 4.057 C 9.377 4.131,9.212 4.261,9.109 4.453 C 9.021 4.618,9.020 4.643,9.009 6.501 L 8.997 8.382 7.229 9.267 C 6.256 9.754,5.386 10.206,5.295 10.272 C 5.061 10.444,4.943 10.703,4.972 10.984 C 5.017 11.421,5.303 11.861,5.621 11.983 C 5.967 12.115,6.079 12.078,7.588 11.325 C 8.344 10.948,8.971 10.640,8.981 10.640 C 8.992 10.640,9.000 11.032,9.000 11.510 L 9.000 12.380 7.230 13.266 C 6.256 13.753,5.386 14.206,5.295 14.272 C 5.061 14.444,4.943 14.703,4.972 14.984 C 5.017 15.421,5.303 15.861,5.621 15.983 C 5.967 16.115,6.079 16.078,7.588 15.325 C 8.344 14.948,8.971 14.640,8.981 14.640 C 8.992 14.640,9.000 15.896,9.000 17.430 C 9.000 19.176,9.015 20.274,9.041 20.365 C 9.102 20.587,9.245 20.770,9.441 20.878 C 9.664 21.001,10.119 21.030,10.769 20.963 C 12.341 20.800,13.831 20.188,15.040 19.211 C 15.394 18.925,16.067 18.239,16.326 17.900 C 17.243 16.699,17.806 15.277,17.963 13.765 C 18.058 12.855,17.966 12.390,17.649 12.182 C 17.198 11.887,16.426 11.979,16.170 12.358 C 16.046 12.542,16.017 12.688,15.966 13.380 C 15.916 14.062,15.847 14.424,15.671 14.940 C 15.286 16.071,14.544 17.081,13.557 17.819 C 12.856 18.343,12.119 18.668,11.110 18.897 L 11.000 18.922 11.000 16.271 L 11.000 13.620 12.770 12.734 C 13.743 12.247,14.614 11.794,14.705 11.728 C 15.070 11.460,15.130 11.028,14.872 10.522 C 14.724 10.232,14.484 10.019,14.259 9.977 C 13.967 9.922,13.770 9.997,12.395 10.683 C 11.649 11.055,11.030 11.360,11.019 11.360 C 11.009 11.360,11.000 10.968,11.000 10.490 L 11.000 9.620 12.770 8.734 C 13.743 8.247,14.614 7.794,14.705 7.728 C 15.070 7.460,15.130 7.028,14.872 6.522 C 14.724 6.232,14.484 6.019,14.259 5.977 C 13.967 5.922,13.770 5.997,12.395 6.683 C 11.649 7.055,11.031 7.360,11.022 7.360 C 11.012 7.360,10.999 6.744,10.992 5.990 C 10.980 4.662,10.977 4.615,10.891 4.453 C 10.842 4.362,10.746 4.247,10.678 4.199 C 10.414 4.010,9.957 3.950,9.614 4.057 " stroke="none" fill="black" fill-rule="evenodd"></path></svg>