<svg xmlns="http://www.w3.org/2000/svg" width="24" height="24" viewBox="0 0 24 24" fill="none" stroke="currentColor" stroke-width="2" stroke-linecap="round" stroke-linejoin="round" class="icon icon-tabler icons-tabler-outline icon-tabler-brand-rumble"><path d="M8.360 2.022 C 8.305 2.032,8.134 2.060,7.980 2.085 C 7.006 2.243,6.062 2.738,5.320 3.480 C 4.612 4.188,4.198 4.929,3.900 6.023 C 3.319 8.156,3.058 9.925,3.012 12.040 C 2.964 14.281,3.235 16.396,3.819 18.340 C 4.382 20.212,5.725 21.457,7.645 21.887 C 8.171 22.005,9.145 22.015,9.673 21.908 C 11.158 21.607,13.031 20.944,14.660 20.141 C 16.789 19.092,18.509 17.876,20.174 16.241 C 21.014 15.416,21.317 15.032,21.640 14.380 C 22.514 12.616,22.355 10.638,21.208 9.020 C 20.689 8.287,19.194 6.901,17.820 5.878 C 15.524 4.167,12.870 2.866,10.440 2.260 C 10.143 2.186,9.792 2.106,9.660 2.082 C 9.401 2.035,8.523 1.994,8.360 2.022 M9.800 4.158 C 13.116 4.986,16.505 6.982,19.083 9.625 C 19.914 10.478,20.243 11.249,20.188 12.218 C 20.134 13.171,19.804 13.808,18.903 14.700 C 16.456 17.123,13.428 18.850,10.035 19.759 C 9.229 19.975,8.974 20.014,8.524 19.989 C 8.058 19.963,7.762 19.887,7.340 19.685 C 6.730 19.393,6.281 18.967,5.982 18.399 C 5.812 18.075,5.561 17.201,5.379 16.300 C 4.753 13.197,4.924 9.740,5.868 6.420 C 6.156 5.406,6.695 4.729,7.545 4.314 C 8.259 3.965,8.862 3.924,9.800 4.158 M9.920 8.060 C 9.543 8.146,9.191 8.334,8.901 8.605 C 8.404 9.070,8.245 9.445,8.121 10.443 C 7.972 11.641,7.975 13.636,8.127 14.280 C 8.268 14.878,8.760 15.504,9.284 15.753 C 9.791 15.994,10.299 16.056,10.800 15.938 C 11.762 15.711,14.319 14.233,14.959 13.534 C 15.355 13.101,15.593 12.417,15.541 11.865 C 15.489 11.331,15.246 10.806,14.880 10.440 C 14.256 9.816,11.998 8.433,11.080 8.112 C 10.784 8.009,10.251 7.985,9.920 8.060 M10.909 10.233 C 11.168 10.361,11.533 10.554,11.720 10.661 C 12.461 11.084,13.517 11.839,13.525 11.950 C 13.533 12.074,13.514 12.138,13.449 12.212 C 13.282 12.398,12.296 13.038,11.600 13.413 C 11.164 13.647,10.372 14.000,10.282 14.000 C 10.114 14.000,10.079 13.882,10.031 13.144 C 9.996 12.603,9.997 12.249,10.034 11.629 C 10.112 10.330,10.183 10.007,10.389 10.001 C 10.417 10.001,10.651 10.105,10.909 10.233 " stroke="none" fill="black" fill-rule="evenodd"></path></svg>