<svg xmlns="http://www.w3.org/2000/svg" width="24" height="24" viewBox="0 0 24 24" fill="none" stroke="currentColor" stroke-width="2" stroke-linecap="round" stroke-linejoin="round" class="icon icon-tabler icons-tabler-outline icon-tabler-bus-stop"><path d="M3.477 2.073 C 2.806 2.249,2.238 2.823,2.060 3.508 C 1.971 3.847,1.971 8.153,2.060 8.492 C 2.153 8.852,2.310 9.118,2.596 9.404 C 2.958 9.767,3.457 10.000,3.868 10.000 L 4.000 10.000 4.000 15.110 C 4.000 18.410,4.015 20.271,4.041 20.365 C 4.148 20.750,4.437 20.962,4.896 20.991 C 5.381 21.022,5.699 20.882,5.880 20.558 L 5.980 20.380 5.991 15.190 L 6.001 10.000 6.132 10.000 C 6.323 10.000,6.690 9.896,6.930 9.775 C 7.196 9.640,7.638 9.200,7.771 8.937 C 7.996 8.494,8.000 8.442,7.999 6.014 C 7.999 3.601,7.991 3.496,7.781 3.083 C 7.551 2.628,7.022 2.203,6.523 2.073 C 6.134 1.972,3.866 1.972,3.477 2.073 M6.000 6.000 L 6.000 8.000 5.000 8.000 L 4.000 8.000 4.000 6.000 L 4.000 4.000 5.000 4.000 L 6.000 4.000 6.000 6.000 M9.614 4.057 C 9.376 4.132,9.212 4.261,9.109 4.453 C 9.035 4.592,9.020 4.684,9.020 5.000 C 9.020 5.331,9.033 5.403,9.120 5.558 C 9.230 5.755,9.414 5.898,9.635 5.959 C 9.715 5.981,10.055 6.000,10.390 6.000 L 11.000 6.000 11.000 7.497 L 11.000 8.994 10.070 9.009 C 9.057 9.025,8.965 9.043,8.752 9.267 C 8.584 9.443,8.513 9.658,8.512 9.997 C 8.510 10.348,8.582 10.556,8.771 10.751 C 9.017 11.006,8.928 11.000,12.778 11.000 L 16.262 11.000 16.395 11.630 C 16.544 12.337,16.627 12.561,16.811 12.751 C 17.043 12.991,17.129 13.000,19.167 13.000 L 21.000 13.000 21.000 14.500 C 21.000 15.929,20.997 16.000,20.927 16.000 C 20.875 16.000,20.805 15.904,20.688 15.670 C 20.321 14.938,19.642 14.363,18.861 14.125 C 18.588 14.042,18.458 14.027,18.000 14.027 C 17.542 14.027,17.412 14.042,17.139 14.125 C 16.358 14.363,15.679 14.938,15.312 15.670 L 15.147 16.000 11.480 16.000 C 7.555 16.000,7.604 15.998,7.322 16.199 C 7.100 16.357,7.020 16.568,7.020 17.000 C 7.020 17.331,7.033 17.403,7.120 17.558 C 7.230 17.755,7.414 17.898,7.635 17.959 C 7.727 17.985,9.119 18.000,11.463 18.000 L 15.147 18.000 15.312 18.330 C 15.682 19.069,16.355 19.635,17.160 19.886 C 17.594 20.021,18.406 20.021,18.840 19.886 C 19.645 19.635,20.318 19.069,20.688 18.330 L 20.853 18.000 21.537 18.000 C 21.912 18.000,22.285 17.981,22.365 17.959 C 22.586 17.898,22.770 17.755,22.880 17.558 L 22.980 17.380 22.993 14.500 C 23.001 12.622,22.990 11.446,22.961 11.120 C 22.847 9.831,22.536 8.675,22.018 7.620 C 21.077 5.705,19.707 4.520,17.939 4.092 C 17.688 4.031,17.261 4.023,13.720 4.014 C 10.541 4.006,9.748 4.014,9.614 4.057 M15.200 6.030 C 15.200 6.055,15.767 8.725,15.816 8.930 C 15.831 8.996,15.745 9.000,14.416 9.000 L 13.000 9.000 13.000 7.500 L 13.000 6.000 14.100 6.000 C 14.705 6.000,15.200 6.014,15.200 6.030 M17.691 6.099 C 17.991 6.178,18.480 6.426,18.784 6.655 C 19.645 7.302,20.397 8.553,20.738 9.904 C 20.827 10.257,20.920 10.763,20.920 10.891 L 20.920 11.001 19.612 10.991 L 18.303 10.980 17.893 9.060 C 17.668 8.004,17.431 6.893,17.366 6.590 L 17.250 6.040 17.356 6.040 C 17.415 6.040,17.566 6.067,17.691 6.099 M18.334 16.064 C 18.698 16.188,19.000 16.613,19.000 17.001 C 19.000 17.331,18.784 17.696,18.484 17.872 C 18.328 17.963,18.254 17.980,18.000 17.980 C 17.746 17.980,17.672 17.963,17.516 17.872 C 16.937 17.531,16.833 16.774,17.301 16.306 C 17.587 16.019,17.952 15.934,18.334 16.064 " stroke="none" fill="black" fill-rule="evenodd"></path></svg>