<svg xmlns="http://www.w3.org/2000/svg" width="24" height="24" viewBox="0 0 24 24" fill="none" stroke="currentColor" stroke-width="2" stroke-linecap="round" stroke-linejoin="round" class="icon icon-tabler icons-tabler-outline icon-tabler-fall"><path d="M5.477 3.073 C 4.806 3.249,4.238 3.823,4.060 4.508 C 3.941 4.962,4.003 5.492,4.225 5.930 C 4.361 6.199,4.801 6.639,5.070 6.775 C 5.659 7.073,6.341 7.073,6.930 6.775 C 7.196 6.640,7.638 6.200,7.771 5.937 C 7.994 5.498,8.052 5.007,7.940 4.529 C 7.858 4.182,7.720 3.927,7.465 3.653 C 6.948 3.097,6.211 2.882,5.477 3.073 M14.620 4.046 C 14.527 4.094,13.852 4.735,13.015 5.568 L 11.570 7.007 9.629 6.995 L 7.688 6.984 7.534 7.086 C 7.308 7.236,7.217 7.351,5.587 9.540 C 4.101 11.536,4.000 11.692,4.000 11.995 C 4.000 12.064,4.245 13.102,4.545 14.301 C 5.140 16.682,5.160 16.735,5.482 16.916 C 5.692 17.035,6.045 17.038,6.372 16.924 C 6.649 16.827,6.790 16.724,6.910 16.527 C 7.076 16.255,7.046 16.051,6.541 14.040 L 6.085 12.221 7.032 10.952 C 7.554 10.254,7.989 9.683,8.000 9.683 C 8.011 9.683,8.483 10.303,9.050 11.061 L 10.080 12.439 10.527 14.229 L 10.975 16.020 10.482 18.487 C 9.938 21.213,9.929 21.289,10.130 21.592 C 10.287 21.829,10.601 21.970,11.016 21.991 C 11.300 22.005,11.362 21.995,11.520 21.910 C 11.878 21.718,11.868 21.752,12.465 18.773 C 12.759 17.305,13.000 16.054,13.000 15.992 C 13.000 15.907,12.103 12.248,11.934 11.642 C 11.919 11.588,11.478 10.972,10.955 10.274 L 10.004 9.004 11.152 8.992 L 12.300 8.980 12.480 8.873 C 12.744 8.716,15.849 5.584,15.960 5.363 C 16.137 5.011,16.048 4.646,15.701 4.299 C 15.361 3.959,14.967 3.867,14.620 4.046 M13.180 11.038 C 12.713 11.162,12.514 11.447,12.512 11.997 C 12.510 12.348,12.582 12.556,12.771 12.751 C 12.991 12.978,13.143 13.000,14.526 13.000 L 15.758 13.000 17.771 14.005 C 19.973 15.105,20.017 15.121,20.381 14.982 C 20.694 14.862,20.984 14.415,21.028 13.980 C 21.057 13.704,20.938 13.443,20.705 13.272 C 20.614 13.206,19.581 12.672,18.408 12.086 L 16.277 11.020 14.788 11.013 C 13.970 11.009,13.246 11.021,13.180 11.038 " stroke="none" fill="black" fill-rule="evenodd"></path></svg>