<svg xmlns="http://www.w3.org/2000/svg" width="24" height="24" viewBox="0 0 24 24" fill="none" stroke="currentColor" stroke-width="2" stroke-linecap="round" stroke-linejoin="round" class="icon icon-tabler icons-tabler-outline icon-tabler-beta"><path d="M11.400 3.044 C 9.761 3.229,8.261 4.290,7.526 5.785 C 7.347 6.148,7.197 6.571,7.094 7.000 C 7.027 7.282,7.022 7.750,7.011 14.753 C 7.003 19.711,7.012 22.257,7.039 22.357 C 7.144 22.747,7.434 22.961,7.896 22.991 C 8.381 23.022,8.699 22.882,8.880 22.558 C 8.980 22.381,8.980 22.376,9.000 21.069 L 9.020 19.759 9.300 19.963 C 11.212 21.358,13.844 21.338,15.763 19.915 C 17.806 18.401,18.538 15.749,17.570 13.376 C 17.223 12.526,16.565 11.686,15.790 11.103 L 15.480 10.870 15.743 10.605 C 16.188 10.156,16.545 9.567,16.759 8.929 C 17.077 7.980,17.077 7.020,16.759 6.071 C 16.213 4.440,14.761 3.253,13.060 3.044 C 12.650 2.994,11.844 2.994,11.400 3.044 M13.020 5.060 C 13.963 5.257,14.743 6.037,14.940 6.980 C 15.148 7.976,14.734 9.001,13.892 9.574 C 13.434 9.885,13.138 9.966,12.336 9.997 C 11.712 10.020,11.635 10.032,11.456 10.124 C 11.144 10.284,11.000 10.561,11.000 11.000 C 11.000 11.428,11.144 11.714,11.442 11.879 C 11.606 11.969,11.678 11.979,12.360 12.006 C 13.205 12.039,13.535 12.106,14.005 12.342 C 14.778 12.731,15.321 13.284,15.678 14.046 C 15.906 14.532,15.978 14.881,15.978 15.500 C 15.978 16.119,15.906 16.468,15.678 16.954 C 15.223 17.925,14.401 18.617,13.360 18.905 C 12.993 19.007,12.007 19.007,11.640 18.905 C 10.604 18.618,9.797 17.942,9.325 16.965 C 9.005 16.304,9.020 16.554,9.020 11.760 L 9.020 7.500 9.112 7.178 C 9.426 6.083,10.378 5.231,11.499 5.043 C 11.837 4.986,12.715 4.996,13.020 5.060 " stroke="none" fill="black" fill-rule="evenodd"></path></svg>