<svg xmlns="http://www.w3.org/2000/svg" width="24" height="24" viewBox="0 0 24 24" fill="none" stroke="currentColor" stroke-width="2" stroke-linecap="round" stroke-linejoin="round" class="icon icon-tabler icons-tabler-outline icon-tabler-scale-outline"><path d="M6.400 2.044 C 4.761 2.229,3.261 3.290,2.526 4.785 C 2.333 5.177,2.187 5.599,2.093 6.040 C 2.024 6.360,2.020 6.717,2.020 12.000 C 2.020 17.283,2.024 17.640,2.093 17.960 C 2.526 19.984,4.016 21.474,6.040 21.907 C 6.360 21.976,6.717 21.980,12.000 21.980 C 17.283 21.980,17.640 21.976,17.960 21.907 C 19.488 21.580,20.748 20.630,21.433 19.288 C 21.662 18.839,21.805 18.439,21.907 17.960 C 21.976 17.640,21.980 17.283,21.980 12.000 C 21.980 6.717,21.976 6.360,21.907 6.040 C 21.625 4.721,20.863 3.576,19.800 2.874 C 19.046 2.375,18.396 2.135,17.552 2.043 C 17.082 1.991,6.857 1.993,6.400 2.044 M17.861 4.121 C 18.836 4.430,19.613 5.217,19.888 6.178 L 19.980 6.500 19.980 12.000 L 19.980 17.500 19.888 17.822 C 19.610 18.792,18.831 19.577,17.840 19.886 L 17.540 19.980 12.000 19.980 L 6.460 19.980 6.160 19.886 C 5.169 19.577,4.390 18.792,4.112 17.822 L 4.020 17.500 4.020 12.000 L 4.020 6.500 4.112 6.178 C 4.426 5.083,5.375 4.234,6.499 4.043 C 6.609 4.024,9.139 4.011,12.120 4.014 L 17.540 4.020 17.861 4.121 M11.200 6.044 C 9.473 6.210,7.782 6.986,6.506 8.200 C 5.965 8.713,5.849 9.042,6.059 9.463 C 6.192 9.731,9.332 12.820,9.605 12.953 C 9.954 13.122,10.270 13.048,10.680 12.702 C 11.149 12.306,11.754 12.135,12.330 12.233 C 12.701 12.297,12.982 12.427,13.307 12.685 C 13.649 12.958,13.819 13.040,14.038 13.039 C 14.386 13.037,14.485 12.959,16.011 11.466 C 17.752 9.764,17.905 9.605,17.985 9.415 C 18.064 9.225,18.064 8.974,17.984 8.783 C 17.908 8.602,17.454 8.124,17.040 7.789 C 15.411 6.472,13.302 5.841,11.200 6.044 M12.564 8.039 C 13.561 8.137,14.483 8.459,15.310 9.001 L 15.520 9.139 14.770 9.890 C 14.358 10.303,13.988 10.651,13.948 10.664 C 13.909 10.676,13.855 10.670,13.828 10.649 C 13.729 10.573,13.170 10.366,12.895 10.305 C 12.043 10.115,11.144 10.208,10.351 10.569 L 10.081 10.691 9.299 9.940 C 8.869 9.527,8.524 9.169,8.531 9.144 C 8.572 9.016,9.567 8.492,10.120 8.307 C 10.881 8.053,11.739 7.959,12.564 8.039 " stroke="none" fill="black" fill-rule="evenodd"></path></svg>