<svg xmlns="http://www.w3.org/2000/svg" width="24" height="24" viewBox="0 0 24 24" fill="none" stroke="currentColor" stroke-width="2" stroke-linecap="round" stroke-linejoin="round" class="icon icon-tabler icons-tabler-outline icon-tabler-terminal-2"><path d="M4.499 3.043 C 3.380 3.232,2.461 4.048,2.114 5.160 L 2.020 5.460 2.020 12.000 L 2.020 18.540 2.114 18.840 C 2.422 19.827,3.173 20.578,4.160 20.886 L 4.460 20.980 12.000 20.980 L 19.540 20.980 19.840 20.886 C 20.827 20.578,21.578 19.827,21.886 18.840 L 21.980 18.540 21.980 12.000 L 21.980 5.460 21.886 5.160 C 21.581 4.182,20.832 3.428,19.861 3.121 L 19.540 3.020 12.120 3.014 C 8.039 3.011,4.609 3.024,4.499 3.043 M19.310 5.061 C 19.589 5.144,19.856 5.411,19.939 5.690 C 19.992 5.869,20.000 6.651,20.000 12.001 C 20.000 17.059,19.991 18.139,19.945 18.290 C 19.872 18.533,19.707 18.740,19.484 18.872 L 19.300 18.980 12.000 18.980 L 4.700 18.980 4.516 18.872 C 4.303 18.747,4.141 18.550,4.058 18.316 C 3.968 18.060,3.971 5.993,4.061 5.690 C 4.140 5.421,4.412 5.143,4.673 5.063 C 4.964 4.974,19.009 4.971,19.310 5.061 M7.626 8.045 C 7.257 8.239,6.951 8.673,6.951 9.000 C 6.951 9.333,7.056 9.467,8.353 10.770 L 9.577 12.000 8.353 13.230 C 7.548 14.039,7.099 14.521,7.040 14.637 C 6.863 14.989,6.952 15.354,7.299 15.701 C 7.645 16.048,8.010 16.137,8.363 15.961 C 8.610 15.837,11.837 12.610,11.961 12.363 C 12.014 12.256,12.049 12.111,12.049 12.000 C 12.049 11.889,12.014 11.744,11.961 11.637 C 11.841 11.397,8.611 8.163,8.372 8.044 C 8.152 7.934,7.835 7.935,7.626 8.045 M12.614 14.057 C 12.377 14.131,12.212 14.261,12.109 14.453 C 12.035 14.592,12.020 14.684,12.020 15.000 C 12.020 15.331,12.033 15.403,12.120 15.558 C 12.230 15.755,12.414 15.898,12.635 15.959 C 12.722 15.983,13.470 16.000,14.500 16.000 C 15.530 16.000,16.278 15.983,16.365 15.959 C 16.586 15.898,16.770 15.755,16.880 15.558 C 16.967 15.402,16.980 15.332,16.979 15.000 C 16.978 14.687,16.962 14.591,16.890 14.453 C 16.786 14.256,16.623 14.131,16.371 14.055 C 16.114 13.978,12.862 13.980,12.614 14.057 " stroke="none" fill="black" fill-rule="evenodd"></path></svg>