<svg xmlns="http://www.w3.org/2000/svg" width="24" height="24" viewBox="0 0 24 24" fill="none" stroke="currentColor" stroke-width="2" stroke-linecap="round" stroke-linejoin="round" class="icon icon-tabler icons-tabler-outline icon-tabler-arrow-up-left-circle"><path d="M5.597 5.050 C 5.507 5.088,5.378 5.159,5.311 5.207 C 5.166 5.310,4.959 5.739,4.963 5.929 C 4.964 6.001,4.977 7.032,4.993 8.220 L 5.020 10.380 5.120 10.558 C 5.287 10.856,5.572 11.000,6.000 11.000 C 6.428 11.000,6.713 10.856,6.880 10.558 C 6.977 10.385,6.981 10.352,7.000 9.410 L 7.020 8.440 10.651 12.071 L 14.281 15.701 14.183 15.951 C 14.037 16.325,13.986 16.616,13.990 17.060 C 14.000 18.172,14.611 19.164,15.600 19.677 C 16.895 20.348,18.431 20.009,19.344 18.852 C 19.767 18.317,19.960 17.747,19.959 17.044 C 19.958 16.490,19.883 16.151,19.655 15.684 C 19.495 15.354,19.417 15.249,19.085 14.918 C 18.757 14.592,18.644 14.508,18.320 14.350 C 17.812 14.101,17.417 14.023,16.802 14.050 C 16.444 14.065,16.269 14.094,16.022 14.177 L 15.705 14.285 12.072 10.652 L 8.440 7.020 9.410 7.000 C 10.304 6.982,10.393 6.973,10.540 6.894 C 10.875 6.715,10.978 6.504,10.978 6.000 C 10.978 5.684,10.963 5.592,10.888 5.450 C 10.783 5.252,10.574 5.102,10.320 5.043 C 10.211 5.018,9.278 4.997,7.951 4.991 C 5.941 4.981,5.748 4.986,5.597 5.050 M17.383 16.116 C 17.767 16.290,17.981 16.658,17.953 17.094 C 17.913 17.729,17.314 18.160,16.714 17.986 C 16.269 17.857,15.995 17.490,15.995 17.025 C 15.995 16.626,16.182 16.316,16.527 16.144 C 16.785 16.015,17.136 16.004,17.383 16.116 " stroke="none" fill="black" fill-rule="evenodd"></path></svg>