<svg xmlns="http://www.w3.org/2000/svg" width="24" height="24" viewBox="0 0 24 24" fill="none" stroke="currentColor" stroke-width="2" stroke-linecap="round" stroke-linejoin="round" class="icon icon-tabler icons-tabler-outline icon-tabler-currency-paanga"><path d="M17.614 3.057 C 17.377 3.131,17.212 3.261,17.109 3.453 C 17.029 3.603,17.019 3.689,17.007 4.310 L 16.993 5.000 16.887 5.000 C 16.663 5.001,16.000 5.120,15.755 5.204 C 14.847 5.515,14.028 6.170,13.569 6.953 C 12.320 9.083,13.233 11.785,15.512 12.704 C 16.082 12.933,16.511 13.000,17.446 13.002 C 18.376 13.005,18.635 13.051,19.017 13.281 C 19.902 13.814,20.243 14.955,19.793 15.880 C 19.638 16.198,19.227 16.625,18.930 16.775 C 18.492 16.997,18.452 17.000,16.038 17.000 C 13.664 17.000,13.594 17.005,13.322 17.199 C 13.100 17.357,13.020 17.568,13.020 18.000 C 13.020 18.331,13.033 18.403,13.120 18.558 C 13.230 18.755,13.414 18.898,13.635 18.959 C 13.716 18.982,14.270 19.000,14.890 19.000 L 16.000 19.000 16.000 19.610 C 16.000 19.945,16.019 20.285,16.041 20.365 C 16.148 20.750,16.437 20.962,16.896 20.991 C 17.381 21.022,17.699 20.882,17.880 20.558 C 17.974 20.391,17.981 20.338,17.994 19.690 L 18.008 19.000 18.188 19.000 C 18.663 19.000,19.562 18.727,20.044 18.436 C 21.487 17.567,22.250 15.860,21.921 14.243 C 21.628 12.806,20.637 11.680,19.245 11.204 C 18.834 11.063,18.289 11.000,17.478 11.000 C 16.448 11.000,16.128 10.906,15.653 10.465 C 14.654 9.537,14.830 7.974,16.014 7.265 C 16.441 7.008,16.537 7.000,19.008 7.000 C 20.366 7.000,21.276 6.984,21.365 6.959 C 21.586 6.898,21.770 6.755,21.880 6.558 C 21.967 6.402,21.980 6.332,21.979 6.000 C 21.978 5.567,21.898 5.355,21.678 5.199 C 21.430 5.022,21.256 5.000,20.098 5.000 L 19.008 5.000 18.993 4.310 C 18.976 3.541,18.930 3.378,18.678 3.199 C 18.414 3.010,17.957 2.950,17.614 3.057 M2.614 5.057 C 2.377 5.131,2.212 5.261,2.109 5.453 C 2.035 5.592,2.020 5.684,2.020 6.000 C 2.020 6.331,2.033 6.403,2.120 6.558 C 2.230 6.755,2.414 6.898,2.635 6.959 C 2.721 6.983,3.435 7.000,4.390 7.000 L 6.000 7.000 6.000 12.610 C 6.000 16.245,6.015 18.271,6.041 18.365 C 6.148 18.750,6.437 18.962,6.896 18.991 C 7.381 19.022,7.699 18.882,7.880 18.558 L 7.980 18.380 7.991 12.690 L 8.001 7.000 9.611 7.000 C 10.565 7.000,11.279 6.983,11.365 6.959 C 11.586 6.898,11.770 6.755,11.880 6.558 C 11.967 6.402,11.980 6.332,11.979 6.000 C 11.978 5.567,11.898 5.355,11.678 5.199 C 11.393 4.996,11.487 5.000,6.984 5.003 C 3.651 5.005,2.746 5.016,2.614 5.057 " stroke="none" fill="black" fill-rule="evenodd"></path></svg>