<svg xmlns="http://www.w3.org/2000/svg" width="24" height="24" viewBox="0 0 24 24" fill="none" stroke="currentColor" stroke-width="2" stroke-linecap="round" stroke-linejoin="round" class="icon icon-tabler icons-tabler-outline icon-tabler-sun-off"><path d="M2.626 2.045 C 2.420 2.154,2.146 2.433,2.038 2.644 C 1.924 2.867,1.924 3.132,2.039 3.363 C 2.102 3.487,2.972 4.385,4.964 6.381 C 6.524 7.943,7.800 9.237,7.800 9.256 C 7.800 9.275,7.746 9.379,7.680 9.487 C 7.140 10.364,6.883 11.714,7.056 12.766 C 7.228 13.816,7.672 14.701,8.410 15.466 C 9.859 16.966,12.042 17.413,13.947 16.599 C 14.151 16.512,14.406 16.387,14.513 16.320 C 14.621 16.254,14.725 16.200,14.744 16.200 C 14.763 16.200,16.057 17.476,17.619 19.036 C 19.615 21.028,20.513 21.898,20.637 21.961 C 20.990 22.137,21.354 22.048,21.701 21.701 C 22.047 21.355,22.136 20.990,21.961 20.637 C 21.839 20.392,3.616 2.165,3.372 2.044 C 3.152 1.934,2.834 1.935,2.626 2.045 M11.614 2.057 C 11.377 2.131,11.212 2.261,11.109 2.453 C 11.027 2.606,11.019 2.684,11.007 3.405 C 10.999 3.880,11.011 4.252,11.037 4.349 C 11.144 4.748,11.430 4.961,11.896 4.991 C 12.381 5.022,12.699 4.882,12.880 4.558 C 12.978 4.383,12.980 4.364,12.980 3.500 C 12.980 2.667,12.975 2.611,12.891 2.453 C 12.842 2.362,12.746 2.247,12.678 2.199 C 12.414 2.010,11.957 1.950,11.614 2.057 M18.020 4.647 C 17.782 4.770,16.822 5.744,16.723 5.961 C 16.558 6.325,16.651 6.662,17.017 7.018 C 17.400 7.393,17.766 7.453,18.152 7.205 C 18.417 7.035,19.249 6.179,19.359 5.961 C 19.537 5.612,19.448 5.246,19.101 4.899 C 18.761 4.559,18.366 4.467,18.020 4.647 M11.614 7.057 C 11.223 7.180,11.039 7.436,11.009 7.900 C 10.978 8.377,11.119 8.701,11.435 8.875 C 11.572 8.951,11.701 8.977,12.078 9.005 C 12.859 9.063,13.421 9.275,13.912 9.696 C 14.602 10.288,14.923 10.947,14.995 11.922 C 15.023 12.299,15.049 12.428,15.125 12.565 C 15.286 12.856,15.575 13.000,16.000 13.000 C 16.428 13.000,16.713 12.856,16.880 12.558 C 16.972 12.394,16.980 12.340,16.979 11.880 C 16.978 10.314,16.128 8.752,14.800 7.874 C 14.046 7.375,13.396 7.135,12.552 7.043 C 12.057 6.988,11.822 6.992,11.614 7.057 M13.256 14.726 C 13.201 14.815,12.558 14.969,12.158 14.989 C 10.925 15.052,9.835 14.407,9.301 13.300 C 9.065 12.811,9.020 12.596,9.021 11.980 C 9.023 11.462,9.065 11.228,9.225 10.842 L 9.283 10.703 11.279 12.699 C 12.377 13.797,13.267 14.709,13.256 14.726 M2.614 11.057 C 2.377 11.131,2.212 11.261,2.109 11.453 C 2.035 11.592,2.020 11.684,2.020 12.000 C 2.020 12.331,2.033 12.403,2.120 12.558 C 2.230 12.755,2.414 12.898,2.635 12.959 C 2.823 13.012,4.177 13.012,4.365 12.959 C 4.586 12.898,4.770 12.755,4.880 12.558 C 4.967 12.402,4.980 12.332,4.979 12.000 C 4.978 11.687,4.962 11.591,4.890 11.453 C 4.786 11.256,4.623 11.131,4.371 11.055 C 4.126 10.982,2.851 10.983,2.614 11.057 M19.614 11.057 C 19.377 11.131,19.212 11.261,19.109 11.453 C 19.035 11.592,19.020 11.684,19.020 12.000 C 19.020 12.331,19.033 12.403,19.120 12.558 C 19.230 12.755,19.414 12.898,19.635 12.959 C 19.823 13.012,21.177 13.012,21.365 12.959 C 21.586 12.898,21.770 12.755,21.880 12.558 C 21.967 12.402,21.980 12.332,21.979 12.000 C 21.978 11.687,21.962 11.591,21.890 11.453 C 21.786 11.256,21.623 11.131,21.371 11.055 C 21.126 10.982,19.851 10.983,19.614 11.057 M6.060 16.687 C 5.994 16.712,5.868 16.781,5.780 16.842 C 5.531 17.012,4.740 17.843,4.640 18.039 C 4.463 18.388,4.552 18.754,4.899 19.101 C 5.246 19.448,5.612 19.537,5.961 19.359 C 6.179 19.248,7.035 18.417,7.206 18.150 C 7.455 17.763,7.387 17.383,7.002 16.999 C 6.705 16.703,6.340 16.582,6.060 16.687 M11.614 19.057 C 11.377 19.131,11.212 19.261,11.109 19.453 C 11.027 19.606,11.019 19.684,11.007 20.405 C 10.999 20.880,11.011 21.252,11.037 21.349 C 11.144 21.748,11.430 21.961,11.896 21.991 C 12.381 22.022,12.699 21.882,12.880 21.558 C 12.978 21.383,12.980 21.364,12.980 20.500 C 12.980 19.667,12.975 19.611,12.891 19.453 C 12.842 19.362,12.746 19.247,12.678 19.199 C 12.414 19.010,11.957 18.950,11.614 19.057 " stroke="none" fill="black" fill-rule="evenodd"></path></svg>