<svg xmlns="http://www.w3.org/2000/svg" width="24" height="24" viewBox="0 0 24 24" fill="none" stroke="currentColor" stroke-width="2" stroke-linecap="round" stroke-linejoin="round" class="icon icon-tabler icons-tabler-outline icon-tabler-pill"><path d="M15.500 2.083 C 14.200 2.185,13.006 2.707,11.994 3.616 C 11.384 4.164,3.509 12.078,3.306 12.348 C 1.897 14.216,1.661 16.571,2.676 18.642 C 3.229 19.771,4.229 20.771,5.358 21.324 C 7.427 22.338,9.787 22.102,11.652 20.694 C 11.922 20.491,19.836 12.616,20.384 12.006 C 22.436 9.722,22.471 6.385,20.466 4.080 C 19.652 3.145,18.428 2.427,17.225 2.182 C 16.969 2.129,15.995 2.029,15.920 2.047 C 15.909 2.049,15.720 2.066,15.500 2.083 M16.806 4.143 C 18.294 4.424,19.542 5.670,19.862 7.192 C 19.948 7.599,19.948 8.401,19.862 8.808 C 19.744 9.371,19.463 9.972,19.100 10.437 C 19.004 10.560,18.155 11.429,17.213 12.370 L 15.500 14.080 12.710 11.290 L 9.920 8.500 11.690 6.736 C 13.486 4.946,13.617 4.826,13.991 4.605 C 14.837 4.107,15.789 3.950,16.806 4.143 M12.270 17.304 C 10.344 19.223,10.185 19.359,9.547 19.628 C 9.003 19.858,8.618 19.934,8.000 19.934 C 7.382 19.934,6.997 19.858,6.453 19.628 C 5.290 19.137,4.399 18.055,4.140 16.820 C 4.051 16.395,4.051 15.605,4.140 15.180 C 4.249 14.662,4.532 14.040,4.851 13.620 C 4.918 13.532,5.766 12.663,6.736 11.690 L 8.500 9.920 11.290 12.710 L 14.081 15.500 12.270 17.304 " stroke="none" fill="black" fill-rule="evenodd"></path></svg>