<svg xmlns="http://www.w3.org/2000/svg" width="24" height="24" viewBox="0 0 24 24" fill="none" stroke="currentColor" stroke-width="2" stroke-linecap="round" stroke-linejoin="round" class="icon icon-tabler icons-tabler-outline icon-tabler-go-game"><path d="M5.614 2.057 C 5.229 2.178,5.041 2.435,5.009 2.885 L 4.990 3.150 4.665 3.316 C 4.091 3.607,3.596 4.103,3.312 4.670 L 3.147 5.000 2.980 5.000 C 2.765 5.000,2.480 5.086,2.322 5.199 C 2.139 5.329,2.030 5.573,2.009 5.900 C 1.966 6.571,2.267 6.947,2.881 6.991 L 3.152 7.010 3.315 7.335 C 3.597 7.900,4.102 8.404,4.670 8.688 L 5.000 8.853 5.000 9.927 L 5.000 11.000 3.906 11.000 C 2.744 11.000,2.570 11.022,2.322 11.199 C 2.100 11.357,2.020 11.568,2.020 12.000 C 2.020 12.331,2.033 12.403,2.120 12.558 C 2.230 12.755,2.414 12.898,2.635 12.959 C 2.716 12.982,3.270 13.000,3.890 13.000 L 5.000 13.000 5.000 14.073 L 5.000 15.145 4.670 15.313 C 4.091 15.607,3.597 16.102,3.312 16.670 L 3.147 17.000 2.980 17.000 C 2.765 17.000,2.480 17.086,2.322 17.199 C 2.139 17.329,2.030 17.573,2.009 17.900 C 1.966 18.571,2.267 18.947,2.881 18.991 L 3.152 19.010 3.315 19.335 C 3.596 19.898,4.102 20.404,4.665 20.685 L 4.990 20.848 5.009 21.119 C 5.051 21.699,5.389 22.000,6.000 22.000 C 6.611 22.000,6.939 21.709,6.988 21.125 L 7.011 20.848 7.335 20.685 C 7.900 20.403,8.404 19.898,8.688 19.330 L 8.853 19.000 9.927 19.000 L 11.000 19.000 11.000 20.110 C 11.000 20.730,11.018 21.284,11.041 21.365 C 11.148 21.750,11.437 21.962,11.896 21.991 C 12.381 22.022,12.699 21.882,12.880 21.558 C 12.979 21.381,12.980 21.374,12.993 20.190 L 13.005 19.000 14.076 19.000 L 15.147 19.000 15.312 19.330 C 15.596 19.898,16.100 20.403,16.665 20.685 L 16.990 20.848 17.009 21.119 C 17.051 21.699,17.389 22.000,18.000 22.000 C 18.611 22.000,18.939 21.709,18.988 21.125 L 19.011 20.848 19.335 20.685 C 19.900 20.403,20.404 19.898,20.688 19.330 L 20.853 19.000 21.037 19.000 C 21.427 18.999,21.718 18.847,21.880 18.558 C 21.967 18.402,21.980 18.332,21.979 18.000 C 21.978 17.687,21.962 17.591,21.890 17.453 C 21.744 17.178,21.403 17.000,21.020 17.000 L 20.853 17.000 20.688 16.670 C 20.403 16.102,19.909 15.607,19.330 15.313 L 19.000 15.145 19.000 14.073 L 19.000 13.000 20.110 13.000 C 20.730 13.000,21.284 12.982,21.365 12.959 C 21.586 12.898,21.770 12.755,21.880 12.558 C 21.967 12.402,21.980 12.332,21.979 12.000 C 21.978 11.567,21.898 11.355,21.678 11.199 C 21.430 11.022,21.256 11.000,20.094 11.000 L 19.000 11.000 19.000 9.000 L 19.000 7.000 20.110 7.000 C 20.730 7.000,21.284 6.982,21.365 6.959 C 21.586 6.898,21.770 6.755,21.880 6.558 C 21.967 6.402,21.980 6.332,21.979 6.000 C 21.978 5.567,21.898 5.355,21.678 5.199 C 21.430 5.022,21.256 5.000,20.096 5.000 L 19.005 5.000 18.993 3.810 C 18.980 2.662,18.977 2.614,18.889 2.450 C 18.724 2.140,18.329 1.970,17.874 2.011 C 17.439 2.051,17.141 2.274,17.041 2.635 C 17.018 2.716,17.000 3.270,17.000 3.890 L 17.000 5.000 15.003 5.000 L 13.005 5.000 12.993 3.810 C 12.980 2.662,12.977 2.614,12.889 2.450 C 12.724 2.140,12.329 1.970,11.874 2.011 C 11.439 2.051,11.141 2.274,11.041 2.635 C 11.018 2.716,11.000 3.270,11.000 3.890 L 11.000 5.000 9.927 5.000 L 8.853 5.000 8.688 4.670 C 8.404 4.104,7.909 3.607,7.335 3.316 L 7.011 3.151 6.988 2.879 C 6.961 2.561,6.853 2.323,6.678 2.199 C 6.414 2.010,5.957 1.950,5.614 2.057 M6.310 5.061 C 6.688 5.173,7.000 5.598,7.000 6.001 C 7.000 6.331,6.784 6.696,6.484 6.872 C 6.328 6.963,6.254 6.980,6.000 6.980 C 5.746 6.980,5.672 6.963,5.516 6.872 C 4.935 6.530,4.833 5.774,5.304 5.303 C 5.583 5.024,5.916 4.944,6.310 5.061 M11.000 8.073 L 11.000 9.145 10.670 9.313 C 10.091 9.607,9.597 10.102,9.312 10.670 L 9.147 11.000 8.073 11.000 L 7.000 11.000 7.000 9.927 L 7.000 8.853 7.330 8.688 C 7.692 8.506,8.016 8.247,8.323 7.891 C 8.433 7.764,8.597 7.511,8.688 7.330 L 8.853 7.000 9.927 7.000 L 11.000 7.000 11.000 8.073 M17.000 9.000 L 17.000 11.000 15.927 11.000 L 14.853 11.000 14.688 10.670 C 14.403 10.102,13.909 9.607,13.330 9.313 L 13.000 9.145 13.000 8.073 L 13.000 7.000 15.000 7.000 L 17.000 7.000 17.000 9.000 M12.310 11.061 C 12.688 11.173,13.000 11.598,13.000 12.001 C 13.000 12.331,12.784 12.696,12.484 12.872 C 12.328 12.963,12.254 12.980,12.000 12.980 C 11.746 12.980,11.672 12.963,11.516 12.872 C 10.935 12.530,10.833 11.774,11.304 11.303 C 11.583 11.024,11.916 10.944,12.310 11.061 M9.312 13.330 C 9.494 13.692,9.753 14.016,10.109 14.323 C 10.236 14.433,10.489 14.597,10.670 14.688 L 11.000 14.853 11.000 15.927 L 11.000 17.000 9.927 17.000 L 8.853 17.000 8.688 16.670 C 8.403 16.102,7.909 15.607,7.330 15.313 L 7.000 15.145 7.000 14.073 L 7.000 13.000 8.073 13.000 L 9.147 13.000 9.312 13.330 M17.000 14.073 L 17.000 15.145 16.670 15.313 C 16.091 15.607,15.597 16.102,15.312 16.670 L 15.147 17.000 14.073 17.000 L 13.000 17.000 13.000 15.927 L 13.000 14.853 13.330 14.688 C 13.692 14.506,14.016 14.247,14.323 13.891 C 14.433 13.764,14.597 13.512,14.688 13.330 L 14.853 13.000 15.927 13.000 L 17.000 13.000 17.000 14.073 M6.310 17.061 C 6.688 17.173,7.000 17.598,7.000 18.001 C 7.000 18.331,6.784 18.696,6.484 18.872 C 6.328 18.963,6.254 18.980,6.000 18.980 C 5.746 18.980,5.672 18.963,5.516 18.872 C 4.935 18.530,4.833 17.774,5.304 17.303 C 5.583 17.024,5.916 16.944,6.310 17.061 M18.310 17.061 C 18.688 17.173,19.000 17.598,19.000 18.001 C 19.000 18.331,18.784 18.696,18.484 18.872 C 18.328 18.963,18.254 18.980,18.000 18.980 C 17.746 18.980,17.672 18.963,17.516 18.872 C 16.935 18.530,16.833 17.774,17.304 17.303 C 17.583 17.024,17.916 16.944,18.310 17.061 " stroke="none" fill="black" fill-rule="evenodd"></path></svg>