<svg xmlns="http://www.w3.org/2000/svg" width="24" height="24" viewBox="0 0 24 24" fill="none" stroke="currentColor" stroke-width="2" stroke-linecap="round" stroke-linejoin="round" class="icon icon-tabler icons-tabler-outline icon-tabler-smoking"><path d="M15.614 4.057 C 15.377 4.131,15.212 4.261,15.110 4.453 C 15.034 4.598,15.020 4.697,15.007 5.189 C 14.980 6.239,15.209 6.911,15.813 7.551 C 16.368 8.138,17.015 8.433,17.900 8.501 C 18.315 8.532,18.486 8.593,18.674 8.772 C 18.928 9.016,18.972 9.157,18.999 9.800 C 19.020 10.316,19.034 10.400,19.121 10.558 C 19.286 10.856,19.572 11.000,20.000 11.000 C 20.428 11.000,20.714 10.856,20.879 10.558 C 20.969 10.397,20.980 10.326,20.994 9.814 C 21.010 9.190,20.949 8.768,20.783 8.359 C 20.509 7.686,19.909 7.070,19.226 6.760 C 18.893 6.609,18.720 6.569,18.188 6.519 C 17.701 6.474,17.519 6.413,17.326 6.228 C 17.074 5.986,17.029 5.843,16.999 5.200 C 16.970 4.552,16.909 4.363,16.678 4.199 C 16.414 4.010,15.957 3.950,15.614 4.057 M3.477 12.073 C 2.806 12.249,2.238 12.823,2.060 13.508 C 2.013 13.687,2.000 14.009,2.000 15.000 C 2.000 16.368,2.018 16.521,2.225 16.930 C 2.361 17.199,2.801 17.639,3.070 17.775 C 3.542 18.014,2.983 18.000,12.000 18.000 C 21.017 18.000,20.458 18.014,20.930 17.775 C 21.196 17.640,21.638 17.200,21.771 16.937 C 21.979 16.527,22.000 16.352,21.999 15.014 C 21.999 13.682,21.974 13.463,21.781 13.083 C 21.646 12.816,21.297 12.449,21.017 12.281 C 20.523 11.983,21.217 12.005,12.000 12.005 C 4.321 12.005,3.721 12.009,3.477 12.073 M7.000 15.000 L 7.000 16.000 5.500 16.000 L 4.000 16.000 4.000 15.000 L 4.000 14.000 5.500 14.000 L 7.000 14.000 7.000 15.000 M20.000 15.000 L 20.000 16.000 14.500 16.000 L 9.000 16.000 9.000 15.000 L 9.000 14.000 14.500 14.000 L 20.000 14.000 20.000 15.000 " stroke="none" fill="black" fill-rule="evenodd"></path></svg>