<svg xmlns="http://www.w3.org/2000/svg" width="24" height="24" viewBox="0 0 24 24" fill="none" stroke="currentColor" stroke-width="2" stroke-linecap="round" stroke-linejoin="round" class="icon icon-tabler icons-tabler-outline icon-tabler-clock-24"><path d="M11.080 2.045 C 9.206 2.210,7.361 2.947,5.800 4.154 C 5.005 4.769,4.015 5.884,3.470 6.780 C 2.020 9.162,1.620 12.076,2.380 14.715 C 3.151 17.390,4.947 19.593,7.400 20.875 C 7.954 21.164,8.749 21.477,9.010 21.508 C 9.396 21.555,9.750 21.306,9.910 20.875 C 10.039 20.531,10.056 20.347,9.980 20.121 C 9.890 19.849,9.688 19.686,9.209 19.499 C 8.074 19.055,7.263 18.539,6.447 17.744 C 5.428 16.748,4.671 15.495,4.303 14.192 C 3.882 12.700,3.919 10.986,4.403 9.502 C 4.953 7.820,6.121 6.296,7.620 5.309 C 9.618 3.993,12.199 3.653,14.498 4.403 C 16.483 5.051,18.172 6.504,19.130 8.386 C 19.669 9.444,19.919 10.429,19.994 11.784 C 20.023 12.310,20.040 12.411,20.124 12.563 C 20.286 12.856,20.574 13.000,21.000 13.000 C 21.428 13.000,21.713 12.856,21.880 12.558 C 21.976 12.388,21.980 12.352,21.977 11.720 C 21.969 9.661,21.217 7.571,19.847 5.800 C 19.510 5.365,18.639 4.494,18.200 4.154 C 16.133 2.555,13.646 1.818,11.080 2.045 M11.614 6.057 C 11.377 6.131,11.212 6.261,11.109 6.453 L 11.020 6.620 11.009 9.412 C 11.002 11.226,11.012 12.257,11.039 12.356 C 11.144 12.747,11.433 12.961,11.896 12.991 C 12.381 13.022,12.699 12.882,12.880 12.558 L 12.980 12.380 12.980 9.500 L 12.980 6.620 12.891 6.453 C 12.842 6.362,12.746 6.247,12.678 6.199 C 12.414 6.010,11.957 5.950,11.614 6.057 M11.614 14.057 C 11.377 14.131,11.212 14.261,11.109 14.453 C 11.035 14.592,11.020 14.684,11.020 15.000 C 11.020 15.331,11.033 15.403,11.120 15.558 C 11.230 15.755,11.414 15.898,11.635 15.959 C 11.716 15.982,12.270 16.000,12.890 16.000 L 14.000 16.000 14.000 16.500 L 14.000 17.000 13.370 17.002 C 12.410 17.006,12.002 17.150,11.535 17.653 C 11.091 18.131,11.000 18.446,11.000 19.500 C 11.000 20.329,11.036 20.556,11.225 20.930 C 11.361 21.199,11.801 21.639,12.070 21.775 C 12.478 21.982,12.633 22.000,13.978 22.000 C 14.687 22.000,15.282 21.982,15.365 21.959 C 15.586 21.898,15.770 21.755,15.880 21.558 C 15.967 21.402,15.980 21.332,15.979 21.000 C 15.978 20.567,15.898 20.355,15.678 20.199 C 15.430 20.022,15.256 20.000,14.094 20.000 L 13.000 20.000 13.000 19.500 L 13.000 19.000 13.632 19.000 C 14.574 19.000,14.927 18.881,15.404 18.404 C 15.895 17.913,16.000 17.579,15.999 16.514 C 15.999 15.716,15.954 15.424,15.781 15.083 C 15.646 14.816,15.297 14.449,15.017 14.281 C 14.600 14.030,14.416 14.005,13.020 14.005 C 12.115 14.005,11.735 14.019,11.614 14.057 M17.614 14.057 C 17.377 14.131,17.212 14.261,17.109 14.453 C 17.023 14.614,17.020 14.664,17.008 15.914 C 17.000 16.736,17.012 17.283,17.039 17.416 C 17.114 17.779,17.299 18.107,17.591 18.399 C 18.073 18.882,18.424 19.000,19.368 19.000 L 20.000 19.000 20.000 20.110 C 20.000 20.730,20.018 21.284,20.041 21.365 C 20.148 21.750,20.437 21.962,20.896 21.991 C 21.381 22.022,21.699 21.882,21.880 21.558 L 21.980 21.380 21.980 18.000 L 21.980 14.620 21.889 14.450 C 21.724 14.140,21.329 13.970,20.874 14.011 C 20.439 14.051,20.141 14.274,20.041 14.635 C 20.018 14.716,20.000 15.270,20.000 15.890 L 20.000 17.000 19.503 17.000 L 19.005 17.000 18.993 15.810 C 18.981 14.669,18.976 14.613,18.891 14.453 C 18.842 14.362,18.746 14.247,18.678 14.199 C 18.414 14.010,17.957 13.950,17.614 14.057 " stroke="none" fill="black" fill-rule="evenodd"></path></svg>