<svg xmlns="http://www.w3.org/2000/svg" width="24" height="24" viewBox="0 0 24 24" fill="none" stroke="currentColor" stroke-width="2" stroke-linecap="round" stroke-linejoin="round" class="icon icon-tabler icons-tabler-outline icon-tabler-circle-plus-2"><path d="M11.320 2.023 C 11.243 2.033,11.009 2.059,10.800 2.082 C 9.492 2.224,8.038 2.724,6.827 3.447 C 5.934 3.980,4.857 4.926,4.192 5.760 C 3.072 7.166,2.404 8.714,2.094 10.620 C 1.995 11.233,1.994 12.756,2.092 13.380 C 2.346 14.978,2.891 16.383,3.740 17.624 C 5.218 19.783,7.432 21.257,10.000 21.793 C 10.708 21.941,11.092 21.978,11.920 21.979 C 12.890 21.980,13.023 21.953,13.267 21.699 C 13.486 21.470,13.553 21.190,13.485 20.783 C 13.429 20.451,13.325 20.271,13.108 20.127 C 12.948 20.021,12.938 20.020,12.003 19.993 C 11.317 19.974,10.939 19.944,10.617 19.884 C 7.218 19.251,4.687 16.674,4.091 13.240 C 4.045 12.972,4.025 12.618,4.024 12.040 C 4.023 11.141,4.071 10.750,4.280 9.940 C 4.987 7.198,7.201 4.986,9.947 4.278 C 11.506 3.876,13.041 3.919,14.498 4.406 C 16.621 5.115,18.289 6.599,19.252 8.638 C 19.768 9.731,19.997 10.852,20.001 12.300 C 20.002 12.931,20.049 13.099,20.277 13.291 C 20.578 13.545,21.222 13.592,21.574 13.386 C 21.712 13.305,21.781 13.226,21.867 13.050 L 21.980 12.820 21.978 11.980 C 21.977 11.123,21.935 10.675,21.794 10.000 C 20.926 5.861,17.642 2.751,13.473 2.119 C 12.966 2.042,11.654 1.984,11.320 2.023 M18.614 15.057 C 18.377 15.131,18.212 15.261,18.109 15.453 C 18.024 15.613,18.020 15.668,18.008 16.810 L 17.996 18.000 16.904 18.000 C 15.744 18.000,15.570 18.022,15.322 18.199 C 15.100 18.357,15.020 18.568,15.020 19.000 C 15.020 19.331,15.033 19.403,15.120 19.558 C 15.230 19.755,15.414 19.898,15.635 19.959 C 15.716 19.982,16.270 20.000,16.890 20.000 L 18.000 20.000 18.000 21.110 C 18.000 21.730,18.018 22.284,18.041 22.365 C 18.148 22.750,18.437 22.962,18.896 22.991 C 19.381 23.022,19.699 22.882,19.880 22.558 C 19.979 22.381,19.980 22.374,19.993 21.190 L 20.005 20.000 21.113 20.000 C 21.731 20.000,22.284 19.982,22.365 19.959 C 22.586 19.898,22.770 19.755,22.880 19.558 C 22.967 19.402,22.980 19.332,22.979 19.000 C 22.978 18.567,22.898 18.355,22.678 18.199 C 22.430 18.022,22.256 18.000,21.096 18.000 L 20.005 18.000 19.993 16.810 C 19.981 15.669,19.976 15.613,19.891 15.453 C 19.842 15.362,19.746 15.247,19.678 15.199 C 19.414 15.010,18.957 14.950,18.614 15.057 " stroke="none" fill="black" fill-rule="evenodd"></path></svg>