<svg xmlns="http://www.w3.org/2000/svg" width="24" height="24" viewBox="0 0 24 24" fill="none" stroke="currentColor" stroke-width="2" stroke-linecap="round" stroke-linejoin="round" class="icon icon-tabler icons-tabler-outline icon-tabler-play-card-off"><path d="M2.626 2.045 C 2.257 2.239,1.951 2.673,1.951 3.000 C 1.951 3.321,2.070 3.479,3.064 4.481 L 3.998 5.422 4.009 12.501 L 4.020 19.580 4.114 19.860 C 4.446 20.851,5.184 21.582,6.160 21.886 L 6.460 21.980 12.000 21.980 L 17.540 21.980 17.839 21.886 C 18.394 21.712,18.773 21.473,19.196 21.033 L 19.397 20.823 19.928 21.346 C 20.221 21.633,20.540 21.909,20.637 21.959 C 20.988 22.137,21.353 22.049,21.701 21.701 C 22.048 21.354,22.137 20.989,21.959 20.637 C 21.888 20.496,20.606 19.137,19.748 18.293 C 19.598 18.145,5.866 4.413,5.760 4.304 C 5.007 3.534,3.504 2.112,3.372 2.045 C 3.152 1.934,2.836 1.934,2.626 2.045 M6.614 2.057 C 6.377 2.132,6.212 2.261,6.109 2.453 C 6.035 2.592,6.020 2.684,6.020 3.000 C 6.020 3.331,6.033 3.403,6.120 3.558 C 6.230 3.755,6.414 3.898,6.635 3.959 C 6.729 3.985,8.608 4.000,11.943 4.000 C 17.764 4.000,17.373 3.979,17.697 4.303 C 18.021 4.627,18.000 4.236,18.000 10.057 C 18.000 13.392,18.015 15.271,18.041 15.365 C 18.148 15.750,18.437 15.962,18.896 15.991 C 19.381 16.022,19.699 15.882,19.880 15.558 L 19.980 15.380 19.980 9.920 L 19.980 4.460 19.886 4.160 C 19.581 3.182,18.832 2.428,17.861 2.121 L 17.540 2.020 12.160 2.012 C 7.811 2.006,6.748 2.014,6.614 2.057 M8.930 10.418 C 8.916 10.441,8.743 10.675,8.545 10.938 C 8.347 11.201,8.141 11.495,8.087 11.592 C 7.966 11.809,7.952 12.120,8.053 12.344 C 8.092 12.430,8.847 13.463,9.732 14.640 L 11.340 16.780 11.593 16.910 C 11.785 17.008,11.898 17.040,12.059 17.040 C 12.410 17.040,12.567 16.903,13.240 16.010 L 13.820 15.241 14.710 16.130 C 15.199 16.619,15.599 17.028,15.598 17.040 C 15.597 17.051,15.521 17.097,15.428 17.143 C 15.121 17.293,14.978 17.621,15.009 18.104 C 15.049 18.731,15.422 19.035,16.100 18.991 C 16.515 18.964,16.811 18.787,16.919 18.502 L 16.964 18.385 17.442 18.862 C 17.705 19.124,17.920 19.358,17.920 19.381 C 17.920 19.476,17.661 19.768,17.486 19.871 L 17.300 19.980 12.000 19.980 L 6.700 19.980 6.516 19.872 C 6.415 19.813,6.284 19.700,6.225 19.623 C 5.987 19.311,6.000 19.677,6.000 13.285 L 6.000 7.420 7.478 8.898 C 8.290 9.710,8.944 10.394,8.930 10.418 M11.406 12.826 L 12.393 13.812 12.206 14.064 C 12.104 14.203,12.011 14.317,12.000 14.317 C 11.968 14.317,10.302 12.075,10.287 12.012 C 10.274 11.957,10.347 11.840,10.395 11.840 C 10.408 11.840,10.863 12.284,11.406 12.826 " stroke="none" fill="black" fill-rule="evenodd"></path></svg>