<svg xmlns="http://www.w3.org/2000/svg" width="24" height="24" viewBox="0 0 24 24" fill="none" stroke="currentColor" stroke-width="2" stroke-linecap="round" stroke-linejoin="round" class="icon icon-tabler icons-tabler-outline icon-tabler-chevron-up-right"><path d="M7.614 7.057 C 7.377 7.131,7.212 7.261,7.109 7.453 C 7.035 7.592,7.020 7.684,7.020 8.000 C 7.020 8.331,7.033 8.403,7.120 8.558 C 7.230 8.755,7.414 8.898,7.635 8.959 C 7.727 8.985,9.095 9.000,11.390 9.000 L 15.000 9.000 15.000 12.610 C 15.000 14.905,15.015 16.273,15.041 16.365 C 15.148 16.750,15.437 16.962,15.896 16.991 C 16.381 17.022,16.699 16.882,16.880 16.558 L 16.980 16.380 16.980 12.000 L 16.980 7.620 16.891 7.453 C 16.785 7.256,16.622 7.131,16.371 7.055 C 16.108 6.976,7.867 6.978,7.614 7.057 " stroke="none" fill="black" fill-rule="evenodd"></path></svg>