<svg xmlns="http://www.w3.org/2000/svg" width="24" height="24" viewBox="0 0 24 24" fill="none" stroke="currentColor" stroke-width="2" stroke-linecap="round" stroke-linejoin="round" class="icon icon-tabler icons-tabler-outline icon-tabler-hours-24"><path d="M11.420 3.044 C 9.220 3.163,7.123 4.116,5.514 5.728 L 5.007 6.235 4.993 5.428 C 4.980 4.682,4.972 4.607,4.889 4.450 C 4.724 4.141,4.329 3.970,3.874 4.011 C 3.434 4.051,3.138 4.276,3.039 4.645 C 3.012 4.744,3.001 5.608,3.009 7.089 L 3.020 9.380 3.120 9.558 C 3.234 9.761,3.417 9.900,3.656 9.964 C 3.864 10.021,8.153 10.016,8.364 9.959 C 8.584 9.900,8.769 9.756,8.880 9.558 C 8.967 9.402,8.980 9.332,8.979 9.000 C 8.977 8.469,8.850 8.243,8.455 8.072 C 8.377 8.038,7.994 8.015,7.264 8.001 L 6.188 7.980 6.396 7.720 C 7.237 6.668,8.420 5.834,9.702 5.388 C 11.539 4.749,13.830 4.970,15.501 5.948 C 16.653 6.623,17.631 7.630,18.233 8.760 C 18.594 9.439,18.819 10.095,18.964 10.900 C 19.068 11.470,19.181 11.720,19.404 11.867 C 19.559 11.970,19.606 11.980,19.937 11.980 C 20.247 11.980,20.333 11.964,20.527 11.874 C 20.962 11.670,21.073 11.320,20.941 10.573 C 20.554 8.387,19.372 6.382,17.671 5.028 C 16.207 3.862,14.339 3.134,12.620 3.057 C 12.356 3.046,12.095 3.031,12.040 3.026 C 11.985 3.020,11.706 3.028,11.420 3.044 M3.709 12.041 C 3.448 12.107,3.244 12.236,3.130 12.408 C 3.029 12.560,3.020 12.606,3.020 12.957 C 3.021 13.791,3.457 15.229,4.025 16.271 C 4.262 16.707,4.725 17.395,5.035 17.773 C 5.386 18.201,6.169 18.948,6.602 19.269 C 7.786 20.146,8.224 20.241,8.689 19.724 C 8.983 19.397,9.111 18.953,8.998 18.653 C 8.929 18.470,8.731 18.294,8.200 17.941 C 7.572 17.525,7.093 17.105,6.677 16.608 C 5.766 15.518,5.254 14.417,5.020 13.040 C 4.891 12.283,4.683 12.038,4.149 12.016 C 3.990 12.009,3.792 12.020,3.709 12.041 M11.614 14.057 C 11.377 14.131,11.212 14.261,11.109 14.453 C 11.035 14.592,11.020 14.684,11.020 15.000 C 11.020 15.331,11.033 15.403,11.120 15.558 C 11.230 15.755,11.414 15.898,11.635 15.959 C 11.716 15.982,12.270 16.000,12.890 16.000 L 14.000 16.000 14.000 16.500 L 14.000 17.000 13.370 17.002 C 12.410 17.006,12.002 17.150,11.535 17.653 C 11.091 18.131,11.000 18.446,11.000 19.500 C 11.000 20.329,11.036 20.556,11.225 20.930 C 11.361 21.199,11.801 21.639,12.070 21.775 C 12.478 21.982,12.633 22.000,13.978 22.000 C 14.687 22.000,15.282 21.982,15.365 21.959 C 15.586 21.898,15.770 21.755,15.880 21.558 C 15.967 21.402,15.980 21.332,15.979 21.000 C 15.978 20.567,15.898 20.355,15.678 20.199 C 15.430 20.022,15.256 20.000,14.094 20.000 L 13.000 20.000 13.000 19.500 L 13.000 19.000 13.632 19.000 C 14.574 19.000,14.927 18.881,15.404 18.404 C 15.895 17.913,16.000 17.579,15.999 16.514 C 15.999 15.716,15.954 15.424,15.781 15.083 C 15.646 14.816,15.297 14.449,15.017 14.281 C 14.600 14.030,14.416 14.005,13.020 14.005 C 12.115 14.005,11.735 14.019,11.614 14.057 M17.614 14.057 C 17.377 14.131,17.212 14.261,17.109 14.453 C 17.023 14.614,17.020 14.664,17.008 15.914 C 17.000 16.736,17.012 17.283,17.039 17.416 C 17.114 17.779,17.299 18.107,17.591 18.399 C 18.073 18.882,18.424 19.000,19.368 19.000 L 20.000 19.000 20.000 20.110 C 20.000 20.730,20.018 21.284,20.041 21.365 C 20.148 21.750,20.437 21.962,20.896 21.991 C 21.381 22.022,21.699 21.882,21.880 21.558 L 21.980 21.380 21.980 18.000 L 21.980 14.620 21.889 14.450 C 21.724 14.140,21.329 13.970,20.874 14.011 C 20.439 14.051,20.141 14.274,20.041 14.635 C 20.018 14.716,20.000 15.270,20.000 15.890 L 20.000 17.000 19.503 17.000 L 19.005 17.000 18.993 15.810 C 18.981 14.669,18.976 14.613,18.891 14.453 C 18.842 14.362,18.746 14.247,18.678 14.199 C 18.414 14.010,17.957 13.950,17.614 14.057 " stroke="none" fill="black" fill-rule="evenodd"></path></svg>