<svg xmlns="http://www.w3.org/2000/svg" width="24" height="24" viewBox="0 0 24 24" fill="none" stroke="currentColor" stroke-width="2" stroke-linecap="round" stroke-linejoin="round" class="icon icon-tabler icons-tabler-outline icon-tabler-asterisk"><path d="M11.614 2.057 C 11.377 2.131,11.212 2.261,11.109 2.453 L 11.020 2.620 11.000 6.451 L 10.980 10.281 7.700 8.435 C 5.896 7.420,4.357 6.563,4.281 6.530 C 4.205 6.498,4.040 6.470,3.916 6.469 C 3.551 6.466,3.298 6.667,3.074 7.140 C 2.879 7.550,2.941 7.914,3.250 8.185 C 3.323 8.250,4.854 9.131,6.652 10.142 C 8.449 11.153,9.920 11.990,9.920 12.002 C 9.920 12.015,8.455 12.849,6.664 13.857 C 4.873 14.864,3.343 15.742,3.263 15.808 C 2.926 16.086,2.872 16.454,3.101 16.911 C 3.351 17.411,3.687 17.616,4.103 17.523 C 4.246 17.491,5.307 16.915,7.643 15.600 L 10.980 13.724 11.000 17.552 L 11.020 21.380 11.120 21.558 C 11.287 21.856,11.572 22.000,12.000 22.000 C 12.428 22.000,12.713 21.856,12.880 21.558 L 12.980 21.380 13.000 17.552 L 13.020 13.724 16.357 15.600 C 18.693 16.915,19.754 17.491,19.897 17.523 C 20.299 17.613,20.630 17.422,20.878 16.957 C 21.127 16.491,21.078 16.089,20.737 15.808 C 20.657 15.742,19.127 14.864,17.336 13.857 C 15.545 12.849,14.080 12.015,14.080 12.002 C 14.080 11.990,15.551 11.153,17.348 10.142 C 19.146 9.131,20.677 8.250,20.750 8.185 C 20.824 8.121,20.922 7.995,20.967 7.906 C 21.162 7.525,20.897 6.830,20.453 6.556 C 20.283 6.450,19.936 6.438,19.719 6.530 C 19.643 6.563,18.104 7.420,16.300 8.435 L 13.020 10.281 13.000 6.451 L 12.980 2.620 12.891 2.453 C 12.842 2.362,12.746 2.247,12.678 2.199 C 12.414 2.010,11.957 1.950,11.614 2.057 " stroke="none" fill="black" fill-rule="evenodd"></path></svg>