<svg xmlns="http://www.w3.org/2000/svg" width="24" height="24" viewBox="0 0 24 24" fill="none" stroke="currentColor" stroke-width="2" stroke-linecap="round" stroke-linejoin="round" class="icon icon-tabler icons-tabler-outline icon-tabler-playlist-x"><path d="M4.614 7.057 C 4.377 7.131,4.212 7.261,4.109 7.453 C 4.035 7.592,4.020 7.684,4.020 8.000 C 4.020 8.331,4.033 8.403,4.120 8.558 C 4.230 8.755,4.414 8.898,4.635 8.959 C 4.835 9.015,19.165 9.015,19.365 8.959 C 19.586 8.898,19.770 8.755,19.880 8.558 C 19.967 8.402,19.980 8.332,19.979 8.000 C 19.978 7.567,19.898 7.355,19.678 7.199 C 19.387 6.991,19.720 7.000,11.984 7.003 C 6.188 7.005,4.747 7.016,4.614 7.057 M4.614 11.057 C 4.377 11.131,4.212 11.261,4.109 11.453 C 4.035 11.592,4.020 11.684,4.020 12.000 C 4.020 12.331,4.033 12.403,4.120 12.558 C 4.230 12.755,4.414 12.898,4.635 12.959 C 4.833 13.014,12.167 13.014,12.365 12.959 C 12.586 12.898,12.770 12.755,12.880 12.558 C 12.967 12.402,12.980 12.332,12.979 12.000 C 12.978 11.567,12.898 11.355,12.678 11.199 C 12.395 10.997,12.449 11.000,8.484 11.003 C 5.561 11.005,4.745 11.016,4.614 11.057 M15.626 13.045 C 15.257 13.239,14.951 13.673,14.951 14.000 C 14.951 14.307,15.079 14.487,15.853 15.270 L 16.575 16.000 15.853 16.730 C 15.079 17.513,14.951 17.693,14.951 18.000 C 14.951 18.477,15.523 19.049,16.000 19.049 C 16.307 19.049,16.487 18.921,17.270 18.147 L 18.000 17.425 18.730 18.147 C 19.513 18.921,19.693 19.049,20.000 19.049 C 20.477 19.049,21.049 18.477,21.049 18.000 C 21.049 17.693,20.921 17.513,20.147 16.730 L 19.425 16.000 20.147 15.270 C 20.580 14.832,20.905 14.469,20.959 14.363 C 21.137 14.012,21.048 13.646,20.701 13.299 C 20.360 12.958,19.979 12.868,19.628 13.045 C 19.533 13.094,19.144 13.444,18.730 13.853 L 18.000 14.575 17.270 13.853 C 16.856 13.444,16.467 13.094,16.372 13.045 C 16.152 12.934,15.836 12.934,15.626 13.045 M4.614 15.057 C 4.377 15.131,4.212 15.261,4.109 15.453 C 4.035 15.592,4.020 15.684,4.020 16.000 C 4.020 16.331,4.033 16.403,4.120 16.558 C 4.230 16.755,4.414 16.898,4.635 16.959 C 4.833 17.014,12.167 17.014,12.365 16.959 C 12.586 16.898,12.770 16.755,12.880 16.558 C 12.967 16.402,12.980 16.332,12.979 16.000 C 12.978 15.567,12.898 15.355,12.678 15.199 C 12.395 14.997,12.449 15.000,8.484 15.003 C 5.561 15.005,4.745 15.016,4.614 15.057 " stroke="none" fill="black" fill-rule="evenodd"></path></svg>