<svg xmlns="http://www.w3.org/2000/svg" width="24" height="24" viewBox="0 0 24 24" fill="none" stroke="currentColor" stroke-width="2" stroke-linecap="round" stroke-linejoin="round" class="icon icon-tabler icons-tabler-outline icon-tabler-windsock"><path d="M5.614 2.057 C 5.377 2.131,5.212 2.261,5.109 2.453 L 5.020 2.620 5.010 11.310 L 4.999 20.000 4.406 20.000 C 3.577 20.000,3.300 20.097,3.109 20.453 C 3.035 20.592,3.020 20.684,3.020 21.000 C 3.020 21.331,3.033 21.403,3.120 21.558 C 3.230 21.755,3.414 21.898,3.635 21.959 C 3.831 22.014,8.169 22.014,8.365 21.959 C 8.586 21.898,8.770 21.755,8.880 21.558 C 8.967 21.402,8.980 21.332,8.979 21.000 C 8.978 20.687,8.962 20.591,8.890 20.453 C 8.702 20.097,8.424 20.000,7.594 20.000 L 7.000 20.000 7.000 15.960 C 7.000 13.738,7.010 11.920,7.022 11.920 C 7.034 11.920,9.541 11.712,12.592 11.459 C 16.055 11.171,18.220 10.975,18.352 10.937 C 18.642 10.854,18.862 10.649,18.940 10.388 C 19.028 10.090,19.029 5.913,18.941 5.616 C 18.846 5.297,18.575 5.085,18.180 5.024 C 18.092 5.010,15.635 4.802,12.720 4.561 C 9.805 4.320,7.327 4.112,7.214 4.099 L 7.008 4.075 6.993 3.348 C 6.979 2.691,6.969 2.604,6.890 2.453 C 6.841 2.362,6.746 2.247,6.678 2.199 C 6.414 2.010,5.957 1.950,5.614 2.057 M8.110 6.185 L 9.000 6.254 9.000 8.007 C 9.000 9.718,8.998 9.760,8.922 9.760 C 8.825 9.760,7.497 9.871,7.210 9.902 L 7.000 9.926 7.000 8.000 L 7.000 6.074 7.110 6.095 C 7.170 6.106,7.620 6.147,8.110 6.185 M11.980 6.501 C 12.398 6.535,12.799 6.572,12.871 6.583 L 13.001 6.604 12.991 8.012 L 12.980 9.420 11.990 9.501 L 11.000 9.581 11.000 8.011 L 11.000 6.440 11.110 6.440 C 11.171 6.440,11.562 6.467,11.980 6.501 M16.000 6.840 C 16.495 6.883,16.922 6.919,16.950 6.919 C 16.989 6.920,17.000 7.162,17.000 7.997 L 17.000 9.074 16.790 9.098 C 16.503 9.129,15.175 9.240,15.078 9.240 C 15.002 9.240,15.000 9.203,15.000 8.000 C 15.000 7.034,15.011 6.760,15.050 6.761 C 15.078 6.761,15.505 6.797,16.000 6.840 " stroke="none" fill="black" fill-rule="evenodd"></path></svg>