<svg xmlns="http://www.w3.org/2000/svg" width="24" height="24" viewBox="0 0 24 24" fill="none" stroke="currentColor" stroke-width="2" stroke-linecap="round" stroke-linejoin="round" class="icon icon-tabler icons-tabler-outline icon-tabler-needle-thread"><path d="M11.422 2.042 C 10.742 2.149,10.308 2.367,9.834 2.841 C 9.553 3.122,9.458 3.250,9.328 3.524 C 9.119 3.963,9.041 4.282,9.013 4.820 C 8.965 5.763,9.290 6.822,9.970 7.928 L 10.233 8.357 9.625 9.128 C 8.607 10.420,7.420 11.961,6.527 13.150 C 6.061 13.772,5.660 14.280,5.638 14.280 C 5.583 14.280,5.362 14.166,4.890 13.893 C 4.097 13.436,3.368 12.812,3.141 12.395 C 3.069 12.262,3.018 12.089,2.993 11.887 C 2.945 11.495,2.837 11.298,2.583 11.142 C 2.399 11.028,2.361 11.020,2.000 11.020 C 1.639 11.020,1.601 11.028,1.417 11.142 C 1.151 11.306,1.033 11.524,1.009 11.898 C 0.972 12.479,1.229 13.214,1.675 13.801 C 2.179 14.465,3.287 15.341,4.203 15.801 C 4.344 15.872,4.466 15.935,4.473 15.941 C 4.480 15.948,4.325 16.184,4.129 16.466 C 3.396 17.519,2.778 18.524,2.404 19.275 C 2.133 19.817,2.018 20.134,1.951 20.521 C 1.844 21.150,2.117 21.693,2.674 21.954 C 3.006 22.110,3.445 22.101,3.948 21.929 C 5.018 21.562,6.789 20.454,9.622 18.376 L 10.345 17.846 10.954 17.942 C 12.459 18.177,13.964 18.129,14.940 17.815 C 16.029 17.464,16.863 16.758,17.215 15.888 C 17.333 15.594,17.339 15.554,17.339 15.020 C 17.339 14.490,17.332 14.439,17.207 14.080 C 17.135 13.871,16.985 13.531,16.875 13.324 C 16.712 13.018,16.684 12.939,16.727 12.900 C 16.772 12.859,19.162 10.943,19.311 10.828 C 19.349 10.799,19.507 10.930,19.911 11.328 C 20.507 11.914,20.710 12.049,21.000 12.049 C 21.477 12.049,22.049 11.477,22.049 11.000 C 22.049 10.716,21.917 10.510,21.381 9.960 L 20.894 9.460 21.107 9.180 C 21.819 8.247,22.140 6.933,21.938 5.775 C 21.764 4.779,21.344 3.985,20.620 3.284 C 19.898 2.585,19.115 2.197,18.152 2.060 C 17.623 1.985,17.273 1.985,16.801 2.062 C 16.108 2.174,15.522 2.410,14.923 2.818 L 14.601 3.037 14.294 2.817 C 13.889 2.526,13.257 2.219,12.860 2.118 C 12.489 2.024,11.773 1.986,11.422 2.042 M12.590 4.139 C 12.848 4.257,13.284 4.528,13.270 4.562 C 13.246 4.616,11.577 6.675,11.556 6.678 C 11.525 6.681,11.229 6.042,11.146 5.794 C 10.909 5.086,10.992 4.375,11.336 4.162 C 11.647 3.970,12.198 3.960,12.590 4.139 M18.240 4.121 C 19.174 4.428,19.815 5.182,19.963 6.148 C 20.058 6.769,19.884 7.464,19.502 7.989 C 19.325 8.231,19.140 8.387,16.360 10.633 L 15.460 11.359 15.340 11.228 C 13.621 9.342,12.800 8.420,12.800 8.374 C 12.800 8.343,14.664 6.015,14.713 5.984 C 14.732 5.973,14.946 6.186,15.189 6.459 L 15.632 6.954 15.536 7.144 C 15.352 7.508,15.442 7.853,15.817 8.218 C 16.199 8.592,16.566 8.653,16.950 8.407 C 17.246 8.216,18.368 7.057,18.478 6.827 C 18.657 6.451,18.483 5.977,18.050 5.663 C 17.783 5.469,17.560 5.412,17.324 5.478 C 17.223 5.506,17.121 5.531,17.097 5.534 C 17.074 5.537,16.877 5.342,16.661 5.100 C 16.444 4.858,16.223 4.612,16.170 4.554 L 16.072 4.448 16.253 4.342 C 16.474 4.212,16.810 4.092,17.090 4.042 C 17.403 3.986,17.941 4.023,18.240 4.121 M11.849 10.350 C 12.016 10.543,12.539 11.123,13.012 11.640 C 13.485 12.157,13.863 12.593,13.853 12.610 C 13.808 12.686,10.472 15.261,9.100 16.279 C 7.513 17.458,5.579 18.802,4.781 19.282 L 4.623 19.377 4.718 19.219 C 5.223 18.372,6.591 16.411,7.913 14.640 C 9.247 12.852,11.461 10.000,11.515 10.000 C 11.531 10.000,11.681 10.158,11.849 10.350 M15.200 14.447 C 15.329 14.719,15.383 14.983,15.343 15.142 C 15.309 15.279,15.034 15.573,14.825 15.695 C 14.591 15.832,14.199 15.959,13.816 16.021 C 13.472 16.077,12.777 16.111,12.739 16.073 C 12.727 16.060,13.231 15.649,13.860 15.159 C 14.489 14.668,15.013 14.252,15.024 14.233 C 15.062 14.173,15.082 14.198,15.200 14.447 " stroke="none" fill="black" fill-rule="evenodd"></path></svg>