<svg xmlns="http://www.w3.org/2000/svg" width="24" height="24" viewBox="0 0 24 24" fill="none" stroke="currentColor" stroke-width="2" stroke-linecap="round" stroke-linejoin="round" class="icon icon-tabler icons-tabler-outline icon-tabler-calendar-sad"><path d="M7.614 2.057 C 7.377 2.131,7.212 2.261,7.109 2.453 C 7.029 2.603,7.019 2.689,7.007 3.305 L 6.994 3.991 6.227 4.010 C 5.567 4.027,5.415 4.043,5.139 4.126 C 4.181 4.415,3.420 5.179,3.114 6.160 L 3.020 6.460 3.020 13.000 L 3.020 19.540 3.114 19.840 C 3.422 20.827,4.173 21.578,5.160 21.886 L 5.460 21.980 12.000 21.980 L 18.540 21.980 18.840 21.886 C 19.827 21.578,20.578 20.827,20.886 19.840 L 20.980 19.540 20.980 13.000 L 20.980 6.460 20.886 6.160 C 20.580 5.179,19.819 4.415,18.861 4.126 C 18.585 4.043,18.433 4.027,17.774 4.010 L 17.008 3.991 16.993 3.305 C 16.975 2.524,16.927 2.364,16.649 2.182 C 16.199 1.887,15.426 1.979,15.170 2.358 C 15.029 2.568,15.000 2.739,15.000 3.390 L 15.000 4.000 12.004 4.000 L 9.008 4.000 8.993 3.310 C 8.976 2.541,8.930 2.378,8.678 2.199 C 8.414 2.010,7.957 1.950,7.614 2.057 M7.000 6.610 C 7.000 6.946,7.019 7.285,7.041 7.365 C 7.148 7.750,7.437 7.962,7.896 7.991 C 8.381 8.022,8.699 7.882,8.880 7.558 C 8.974 7.391,8.981 7.338,8.994 6.690 L 9.008 6.000 12.004 6.000 L 15.000 6.000 15.000 6.610 C 15.000 6.946,15.019 7.285,15.041 7.365 C 15.148 7.750,15.437 7.962,15.896 7.991 C 16.381 8.022,16.699 7.882,16.880 7.558 C 16.974 7.391,16.981 7.338,16.994 6.690 L 17.008 6.000 17.557 6.000 C 18.249 6.000,18.446 6.052,18.697 6.303 C 18.993 6.599,19.000 6.650,19.000 8.447 L 19.000 10.000 12.000 10.000 L 5.000 10.000 5.000 8.447 C 5.000 6.649,5.007 6.599,5.304 6.303 C 5.554 6.052,5.727 6.006,6.430 6.003 L 7.000 6.000 7.000 6.610 M19.000 15.554 C 19.000 19.410,19.005 19.322,18.779 19.618 C 18.718 19.698,18.585 19.813,18.484 19.872 L 18.300 19.980 12.000 19.980 L 5.700 19.980 5.516 19.872 C 5.415 19.813,5.284 19.700,5.225 19.623 C 4.992 19.317,5.000 19.464,5.000 15.575 L 5.000 12.000 12.000 12.000 L 19.000 12.000 19.000 15.554 M9.590 13.061 C 9.189 13.190,8.969 13.589,9.011 14.109 C 9.055 14.660,9.342 14.947,9.890 14.988 C 10.291 15.018,10.587 14.928,10.778 14.717 C 10.942 14.536,11.000 14.349,11.000 14.000 C 11.000 13.531,10.871 13.279,10.548 13.114 C 10.333 13.004,9.851 12.978,9.590 13.061 M13.590 13.061 C 13.189 13.190,12.969 13.589,13.011 14.109 C 13.055 14.660,13.342 14.947,13.890 14.988 C 14.291 15.018,14.587 14.928,14.778 14.717 C 14.942 14.536,15.000 14.349,15.000 14.000 C 15.000 13.531,14.871 13.279,14.548 13.114 C 14.333 13.004,13.851 12.978,13.590 13.061 M11.580 16.404 C 10.908 16.457,10.299 16.652,9.714 17.003 C 9.339 17.228,9.112 17.431,9.021 17.623 C 8.878 17.925,8.995 18.377,9.303 18.718 C 9.671 19.125,10.002 19.144,10.624 18.791 C 11.098 18.523,11.324 18.442,11.710 18.405 C 12.064 18.370,12.511 18.410,12.780 18.500 C 12.890 18.537,13.158 18.668,13.376 18.791 C 13.851 19.060,14.114 19.106,14.386 18.967 C 14.728 18.793,15.039 18.308,15.040 17.948 C 15.040 17.592,14.827 17.322,14.291 17.004 C 13.489 16.527,12.579 16.326,11.580 16.404 " stroke="none" fill="black" fill-rule="evenodd"></path></svg>