<svg xmlns="http://www.w3.org/2000/svg" width="24" height="24" viewBox="0 0 24 24" fill="none" stroke="currentColor" stroke-width="2" stroke-linecap="round" stroke-linejoin="round" class="icon icon-tabler icons-tabler-outline icon-tabler-currency-taka"><path d="M8.499 4.040 C 7.371 4.245,6.455 5.054,6.122 6.140 C 6.018 6.479,5.972 7.113,6.035 7.344 C 6.146 7.749,6.428 7.961,6.896 7.991 C 7.592 8.035,7.918 7.762,7.996 7.072 C 8.045 6.644,8.108 6.490,8.321 6.283 C 8.490 6.120,8.777 6.000,9.000 6.000 C 9.237 6.000,9.514 6.120,9.697 6.303 C 9.993 6.599,10.000 6.650,10.000 8.447 L 10.000 10.000 8.906 10.000 C 7.744 10.000,7.570 10.022,7.322 10.199 C 7.100 10.357,7.020 10.568,7.020 11.000 C 7.020 11.331,7.033 11.403,7.120 11.558 C 7.230 11.755,7.414 11.898,7.635 11.959 C 7.716 11.982,8.270 12.000,8.890 12.000 L 10.000 12.000 10.000 14.184 C 10.000 16.233,10.005 16.392,10.083 16.773 C 10.357 18.118,11.249 19.195,12.512 19.704 C 13.471 20.090,14.529 20.090,15.488 19.704 C 16.636 19.241,17.524 18.255,17.850 17.080 C 17.872 17.003,17.948 16.875,18.020 16.795 C 18.339 16.441,18.494 16.009,18.490 15.480 C 18.484 14.686,18.062 14.038,17.320 13.683 C 17.023 13.542,17.014 13.540,16.500 13.540 C 15.986 13.540,15.977 13.542,15.680 13.683 C 15.338 13.847,14.987 14.149,14.800 14.441 C 14.412 15.045,14.410 15.953,14.797 16.555 C 14.919 16.746,15.240 17.072,15.440 17.209 L 15.540 17.278 15.325 17.481 C 14.733 18.041,13.832 18.161,13.083 17.781 C 12.816 17.646,12.449 17.297,12.281 17.017 C 12.011 16.568,12.005 16.509,12.002 14.130 L 12.000 12.000 13.110 12.000 C 13.730 12.000,14.284 11.982,14.365 11.959 C 14.586 11.898,14.770 11.755,14.880 11.558 C 14.967 11.402,14.980 11.332,14.979 11.000 C 14.978 10.567,14.898 10.355,14.678 10.199 C 14.430 10.022,14.256 10.000,13.096 10.000 L 12.005 10.000 11.991 8.210 C 11.977 6.467,11.974 6.413,11.884 6.140 C 11.561 5.160,10.800 4.404,9.861 4.129 C 9.500 4.023,8.832 3.980,8.499 4.040 " stroke="none" fill="black" fill-rule="evenodd"></path></svg>