<svg xmlns="http://www.w3.org/2000/svg" width="24" height="24" viewBox="0 0 24 24" fill="none" stroke="currentColor" stroke-width="2" stroke-linecap="round" stroke-linejoin="round" class="icon icon-tabler icons-tabler-outline icon-tabler-circuit-battery"><path d="M9.614 4.057 C 9.377 4.131,9.212 4.261,9.109 4.453 L 9.020 4.620 9.010 11.914 C 9.003 16.725,9.013 19.259,9.039 19.358 C 9.144 19.747,9.434 19.962,9.896 19.991 C 10.381 20.022,10.699 19.882,10.880 19.558 L 10.980 19.380 10.980 12.000 L 10.980 4.620 10.891 4.453 C 10.842 4.362,10.746 4.247,10.678 4.199 C 10.414 4.010,9.957 3.950,9.614 4.057 M17.614 4.057 C 17.377 4.131,17.212 4.261,17.109 4.453 L 17.020 4.620 17.010 11.914 C 17.003 16.725,17.013 19.259,17.039 19.358 C 17.144 19.747,17.434 19.962,17.896 19.991 C 18.381 20.022,18.699 19.882,18.880 19.558 L 18.980 19.380 18.991 16.190 L 19.002 13.000 20.611 13.000 C 21.566 13.000,22.279 12.983,22.365 12.959 C 22.586 12.898,22.770 12.755,22.880 12.558 C 22.967 12.402,22.980 12.332,22.979 12.000 C 22.978 11.567,22.898 11.355,22.678 11.199 C 22.416 11.012,22.290 11.000,20.595 11.000 L 19.002 11.000 18.991 7.810 L 18.980 4.620 18.891 4.453 C 18.842 4.362,18.746 4.247,18.678 4.199 C 18.414 4.010,17.957 3.950,17.614 4.057 M5.614 8.057 C 5.377 8.131,5.212 8.261,5.109 8.453 C 5.024 8.613,5.020 8.668,5.008 9.810 L 4.996 11.000 3.404 11.000 C 1.710 11.000,1.584 11.012,1.322 11.199 C 1.100 11.357,1.020 11.568,1.020 12.000 C 1.020 12.331,1.033 12.403,1.120 12.558 C 1.230 12.755,1.414 12.898,1.635 12.959 C 1.721 12.983,2.435 13.000,3.390 13.000 L 5.000 13.000 5.000 14.110 C 5.000 14.730,5.018 15.284,5.041 15.365 C 5.148 15.750,5.437 15.962,5.896 15.991 C 6.381 16.022,6.699 15.882,6.880 15.558 L 6.980 15.380 6.980 12.000 L 6.980 8.620 6.891 8.453 C 6.842 8.362,6.746 8.247,6.678 8.199 C 6.414 8.010,5.957 7.950,5.614 8.057 M13.614 8.057 C 13.377 8.131,13.212 8.261,13.109 8.453 L 13.020 8.620 13.009 11.912 C 13.002 14.060,13.012 15.257,13.039 15.356 C 13.144 15.747,13.434 15.961,13.896 15.991 C 14.381 16.022,14.699 15.882,14.880 15.558 L 14.980 15.380 14.980 12.000 L 14.980 8.620 14.891 8.453 C 14.842 8.362,14.746 8.247,14.678 8.199 C 14.414 8.010,13.957 7.950,13.614 8.057 " stroke="none" fill="black" fill-rule="evenodd"></path></svg>