<svg xmlns="http://www.w3.org/2000/svg" width="24" height="24" viewBox="0 0 24 24" fill="none" stroke="currentColor" stroke-width="2" stroke-linecap="round" stroke-linejoin="round" class="icon icon-tabler icons-tabler-outline icon-tabler-bread-off"><path d="M2.626 2.045 C 2.257 2.239,1.951 2.673,1.951 3.000 C 1.951 3.276,2.080 3.484,2.547 3.964 L 2.965 4.392 2.803 4.606 C 2.040 5.613,1.806 6.970,2.188 8.178 C 2.344 8.673,2.563 9.096,2.838 9.436 L 2.980 9.613 3.000 14.096 L 3.020 18.580 3.114 18.860 C 3.446 19.851,4.184 20.582,5.160 20.886 L 5.460 20.980 12.020 20.980 L 18.580 20.980 18.940 20.854 L 19.300 20.727 19.880 21.298 C 20.205 21.617,20.538 21.908,20.637 21.959 C 20.988 22.137,21.353 22.049,21.701 21.701 C 22.047 21.355,22.136 20.990,21.961 20.637 C 21.839 20.392,3.616 2.165,3.372 2.044 C 3.152 1.934,2.834 1.935,2.626 2.045 M7.649 3.039 C 7.267 3.131,7.039 3.437,7.009 3.900 C 6.978 4.381,7.119 4.699,7.442 4.880 L 7.620 4.980 13.020 5.000 L 18.420 5.020 18.647 5.106 C 19.162 5.301,19.559 5.661,19.787 6.140 C 20.154 6.915,20.015 7.755,19.411 8.403 C 18.979 8.866,19.022 8.426,19.009 12.573 C 19.002 14.947,19.012 16.258,19.039 16.357 C 19.144 16.747,19.434 16.961,19.896 16.991 C 20.381 17.022,20.699 16.882,20.880 16.558 L 20.980 16.380 21.000 13.000 L 21.020 9.620 21.229 9.350 C 21.844 8.553,22.130 7.332,21.938 6.322 C 21.859 5.905,21.672 5.372,21.489 5.044 C 20.980 4.130,20.055 3.416,19.005 3.127 L 18.620 3.020 13.200 3.014 C 10.219 3.010,7.721 3.021,7.649 3.039 M11.000 12.420 L 17.580 19.001 11.640 18.990 L 5.700 18.980 5.516 18.872 C 5.328 18.761,5.158 18.572,5.070 18.373 C 5.031 18.285,5.015 17.208,5.000 13.600 L 4.980 8.940 4.893 8.780 C 4.846 8.692,4.732 8.548,4.640 8.460 C 4.407 8.237,4.254 8.006,4.131 7.690 C 4.041 7.459,4.026 7.359,4.026 7.000 C 4.026 6.699,4.046 6.524,4.098 6.380 C 4.176 6.161,4.352 5.840,4.394 5.840 C 4.408 5.840,7.381 8.801,11.000 12.420 " stroke="none" fill="black" fill-rule="evenodd"></path></svg>