<svg xmlns="http://www.w3.org/2000/svg" width="24" height="24" viewBox="0 0 24 24" fill="none" stroke="currentColor" stroke-width="2" stroke-linecap="round" stroke-linejoin="round" class="icon icon-tabler icons-tabler-outline icon-tabler-gender-demigirl"><path d="M11.380 3.043 C 8.784 3.299,6.676 5.219,6.115 7.840 C 5.984 8.450,5.984 9.558,6.114 10.160 C 6.441 11.670,7.235 12.918,8.443 13.820 C 9.146 14.344,9.882 14.668,10.890 14.897 L 11.000 14.922 11.000 15.961 L 11.000 17.000 9.906 17.000 C 8.744 17.000,8.570 17.022,8.322 17.199 C 8.100 17.357,8.020 17.568,8.020 18.000 C 8.020 18.331,8.033 18.403,8.120 18.558 C 8.230 18.755,8.414 18.898,8.635 18.959 C 8.716 18.982,9.270 19.000,9.890 19.000 L 11.000 19.000 11.000 20.110 C 11.000 20.730,11.018 21.284,11.041 21.365 C 11.148 21.750,11.437 21.962,11.896 21.991 C 12.381 22.022,12.699 21.882,12.880 21.558 L 12.980 21.380 12.991 18.150 L 13.002 14.921 13.111 14.896 C 14.456 14.592,15.394 14.087,16.269 13.195 C 17.109 12.340,17.626 11.369,17.885 10.160 C 18.015 9.554,18.015 8.446,17.885 7.840 C 17.626 6.631,17.109 5.660,16.269 4.805 C 14.978 3.490,13.230 2.860,11.380 3.043 M12.605 5.058 C 14.074 5.280,15.310 6.324,15.797 7.755 C 15.897 8.050,16.000 8.680,16.000 9.000 C 16.000 9.322,15.897 9.951,15.796 10.245 C 15.321 11.632,14.195 12.628,12.773 12.917 C 10.563 13.368,8.396 11.845,8.058 9.605 C 7.986 9.121,7.986 8.879,8.058 8.395 C 8.314 6.698,9.675 5.324,11.358 5.061 C 11.816 4.990,12.144 4.989,12.605 5.058 " stroke="none" fill="black" fill-rule="evenodd"></path></svg>