<svg xmlns="http://www.w3.org/2000/svg" width="24" height="24" viewBox="0 0 24 24" fill="none" stroke="currentColor" stroke-width="2" stroke-linecap="round" stroke-linejoin="round" class="icon icon-tabler icons-tabler-outline icon-tabler-building-factory-2"><path d="M15.560 2.053 C 15.011 2.210,14.652 2.552,14.494 3.070 C 14.462 3.175,14.176 4.835,13.858 6.760 C 13.539 8.685,13.274 10.275,13.268 10.293 C 13.263 10.311,12.637 9.830,11.879 9.223 C 10.364 8.011,10.300 7.973,9.871 8.011 C 9.439 8.051,9.141 8.275,9.041 8.635 C 9.018 8.716,9.000 9.257,9.000 9.850 L 9.000 10.921 7.250 9.520 C 5.335 7.988,5.310 7.972,4.871 8.011 C 4.439 8.051,4.141 8.275,4.041 8.635 C 4.015 8.729,4.000 10.755,4.000 14.390 L 4.000 20.000 3.406 20.000 C 2.577 20.000,2.300 20.097,2.109 20.453 C 2.035 20.592,2.020 20.684,2.020 21.000 C 2.020 21.331,2.033 21.403,2.120 21.558 C 2.230 21.755,2.414 21.898,2.635 21.959 C 2.835 22.015,21.165 22.015,21.365 21.959 C 21.586 21.898,21.770 21.755,21.880 21.558 C 21.967 21.402,21.980 21.332,21.979 21.000 C 21.978 20.687,21.962 20.591,21.890 20.453 C 21.702 20.097,21.424 20.000,20.594 20.000 L 20.002 20.000 19.989 16.310 L 19.977 12.620 19.252 7.855 C 18.449 2.576,18.498 2.816,18.132 2.449 C 18.035 2.353,17.835 2.217,17.688 2.147 L 17.420 2.020 16.580 2.011 C 15.993 2.005,15.686 2.017,15.560 2.053 M16.640 4.014 C 16.640 4.051,17.803 11.794,17.823 11.890 L 17.846 12.000 16.599 12.000 L 15.352 12.000 15.202 11.882 L 15.053 11.763 15.689 7.932 C 16.039 5.824,16.332 4.077,16.341 4.050 C 16.355 4.007,16.640 3.973,16.640 4.014 M9.663 13.961 C 9.765 14.011,9.907 14.040,10.048 14.040 C 10.233 14.040,10.304 14.018,10.464 13.910 C 10.694 13.755,10.901 13.495,10.958 13.289 C 10.982 13.204,11.000 12.696,11.000 12.110 L 11.000 11.079 12.704 12.443 C 13.641 13.194,14.474 13.846,14.554 13.894 C 14.696 13.978,14.743 13.980,16.350 13.992 L 18.000 14.003 18.000 17.002 L 18.000 20.000 12.000 20.000 L 6.000 20.000 6.000 15.540 L 6.000 11.079 7.750 12.480 C 8.713 13.251,9.573 13.917,9.663 13.961 M8.614 16.057 C 8.377 16.131,8.212 16.261,8.109 16.453 C 8.035 16.592,8.020 16.684,8.020 17.000 C 8.020 17.331,8.033 17.403,8.120 17.558 C 8.230 17.755,8.414 17.898,8.635 17.959 C 8.823 18.012,10.177 18.012,10.365 17.959 C 10.586 17.898,10.770 17.755,10.880 17.558 C 10.967 17.402,10.980 17.332,10.979 17.000 C 10.978 16.687,10.962 16.591,10.890 16.453 C 10.786 16.256,10.623 16.131,10.371 16.055 C 10.126 15.982,8.851 15.983,8.614 16.057 M13.614 16.057 C 13.377 16.131,13.212 16.261,13.109 16.453 C 13.035 16.592,13.020 16.684,13.020 17.000 C 13.020 17.331,13.033 17.403,13.120 17.558 C 13.230 17.755,13.414 17.898,13.635 17.959 C 13.823 18.012,15.177 18.012,15.365 17.959 C 15.586 17.898,15.770 17.755,15.880 17.558 C 15.967 17.402,15.980 17.332,15.979 17.000 C 15.978 16.687,15.962 16.591,15.890 16.453 C 15.786 16.256,15.623 16.131,15.371 16.055 C 15.126 15.982,13.851 15.983,13.614 16.057 " stroke="none" fill="black" fill-rule="evenodd"></path></svg>