<svg xmlns="http://www.w3.org/2000/svg" width="24" height="24" viewBox="0 0 24 24" fill="none" stroke="currentColor" stroke-width="2" stroke-linecap="round" stroke-linejoin="round" class="icon icon-tabler icons-tabler-outline icon-tabler-cpu-off"><path d="M2.626 2.045 C 2.257 2.239,1.951 2.673,1.951 3.000 C 1.951 3.320,2.071 3.480,3.075 4.500 L 4.020 5.460 4.008 7.230 L 3.995 9.000 3.404 9.000 C 2.577 9.000,2.299 9.097,2.109 9.453 C 2.035 9.592,2.020 9.684,2.020 10.000 C 2.020 10.331,2.033 10.403,2.120 10.558 C 2.230 10.755,2.414 10.898,2.635 10.959 C 2.715 10.981,3.054 11.000,3.390 11.000 L 4.000 11.000 4.000 12.000 L 4.000 13.000 3.406 13.000 C 2.577 13.000,2.300 13.097,2.109 13.453 C 2.035 13.592,2.020 13.684,2.020 14.000 C 2.020 14.331,2.033 14.403,2.120 14.558 C 2.230 14.755,2.414 14.898,2.635 14.959 C 2.715 14.981,3.054 15.000,3.390 15.000 L 4.000 15.000 4.000 16.632 C 4.000 18.399,4.010 18.507,4.225 18.930 C 4.361 19.199,4.801 19.639,5.070 19.775 C 5.493 19.990,5.601 20.000,7.368 20.000 L 9.000 20.000 9.000 20.610 C 9.000 20.946,9.019 21.285,9.041 21.365 C 9.148 21.750,9.437 21.962,9.896 21.991 C 10.381 22.022,10.699 21.882,10.880 21.558 C 10.974 21.391,10.981 21.338,10.994 20.690 L 11.008 20.000 12.004 20.000 L 13.000 20.000 13.000 20.610 C 13.000 20.946,13.019 21.285,13.041 21.365 C 13.148 21.750,13.437 21.962,13.896 21.991 C 14.381 22.022,14.699 21.882,14.880 21.558 C 14.974 21.391,14.981 21.338,14.994 20.690 L 15.008 20.000 16.654 19.996 C 17.559 19.994,18.345 19.978,18.400 19.962 C 18.491 19.935,18.591 20.022,19.480 20.901 C 20.099 21.513,20.525 21.903,20.637 21.960 C 20.989 22.137,21.354 22.048,21.701 21.701 C 22.048 21.354,22.137 20.990,21.960 20.637 C 21.888 20.492,18.858 17.399,15.747 14.293 C 15.358 13.904,9.837 8.384,9.760 8.306 C 9.705 8.250,8.283 6.838,6.600 5.167 C 4.562 3.143,3.484 2.100,3.372 2.044 C 3.152 1.934,2.835 1.935,2.626 2.045 M9.614 2.057 C 9.377 2.131,9.212 2.261,9.109 2.453 C 9.030 2.603,9.019 2.689,9.007 3.301 L 8.994 3.983 8.753 4.029 C 8.449 4.086,8.227 4.232,8.111 4.450 C 8.035 4.592,8.020 4.682,8.020 5.000 C 8.020 5.331,8.033 5.403,8.120 5.558 C 8.230 5.755,8.414 5.898,8.635 5.959 C 8.728 5.985,10.425 6.000,13.390 6.000 L 18.000 6.000 18.000 10.610 C 18.000 13.575,18.015 15.272,18.041 15.365 C 18.148 15.750,18.437 15.962,18.896 15.991 C 19.533 16.031,19.915 15.757,19.983 15.210 L 20.009 15.000 20.615 15.000 C 20.948 15.000,21.285 14.981,21.365 14.959 C 21.586 14.898,21.770 14.755,21.880 14.558 C 21.967 14.402,21.980 14.332,21.979 14.000 C 21.978 13.687,21.962 13.591,21.890 13.453 C 21.702 13.097,21.424 13.000,20.594 13.000 L 20.000 13.000 20.000 12.000 L 20.000 11.000 20.610 11.000 C 20.946 11.000,21.285 10.981,21.365 10.959 C 21.586 10.898,21.770 10.755,21.880 10.558 C 21.967 10.402,21.980 10.332,21.979 10.000 C 21.978 9.687,21.962 9.591,21.890 9.453 C 21.702 9.097,21.424 9.000,20.594 9.000 L 20.000 9.000 19.999 7.390 C 19.999 5.652,19.982 5.479,19.781 5.083 C 19.646 4.816,19.297 4.449,19.017 4.281 C 18.584 4.020,18.455 4.005,16.634 4.002 L 15.008 4.000 14.993 3.310 C 14.975 2.523,14.927 2.364,14.649 2.182 C 14.199 1.887,13.426 1.979,13.170 2.358 C 13.029 2.568,13.000 2.739,13.000 3.390 L 13.000 4.000 12.004 4.000 L 11.008 4.000 10.993 3.310 C 10.976 2.541,10.930 2.378,10.678 2.199 C 10.414 2.010,9.957 1.950,9.614 2.057 M8.000 12.320 C 8.000 14.139,8.015 15.274,8.041 15.365 C 8.102 15.586,8.245 15.770,8.442 15.880 L 8.620 15.980 11.601 15.991 L 14.583 16.002 15.581 17.001 L 16.579 18.000 11.290 18.000 L 6.000 18.000 6.000 12.710 L 6.000 7.421 7.000 8.420 L 8.000 9.419 8.000 12.320 M12.614 8.057 C 12.377 8.131,12.212 8.261,12.109 8.453 C 12.035 8.592,12.020 8.684,12.020 9.000 C 12.020 9.331,12.033 9.403,12.120 9.558 C 12.230 9.755,12.414 9.898,12.635 9.959 C 12.715 9.981,13.055 10.000,13.390 10.000 L 14.000 10.000 14.000 10.610 C 14.000 10.945,14.019 11.285,14.041 11.365 C 14.148 11.750,14.437 11.962,14.896 11.991 C 15.381 12.022,15.699 11.882,15.880 11.558 L 15.980 11.380 15.980 10.000 C 15.980 8.650,15.978 8.616,15.891 8.453 C 15.785 8.256,15.622 8.131,15.371 8.055 C 15.117 7.979,12.859 7.981,12.614 8.057 M11.300 12.720 L 12.580 14.000 11.290 14.000 L 10.000 14.000 10.000 12.720 C 10.000 12.016,10.005 11.440,10.010 11.440 C 10.016 11.440,10.596 12.016,11.300 12.720 " stroke="none" fill="black" fill-rule="evenodd"></path></svg>