<svg xmlns="http://www.w3.org/2000/svg" width="24" height="24" viewBox="0 0 24 24" fill="none" stroke="currentColor" stroke-width="2" stroke-linecap="round" stroke-linejoin="round" class="icon icon-tabler icons-tabler-outline icon-tabler-arrow-autofit-left"><path d="M5.499 3.043 C 4.390 3.231,3.487 4.025,3.114 5.140 L 3.021 5.420 3.009 8.810 C 3.001 11.058,3.011 12.252,3.038 12.354 C 3.144 12.747,3.433 12.961,3.896 12.991 C 4.381 13.022,4.699 12.882,4.880 12.558 L 4.980 12.380 5.000 9.060 C 5.022 5.340,5.001 5.594,5.321 5.283 C 5.633 4.981,5.174 5.000,12.000 5.000 C 18.874 5.000,18.371 4.977,18.697 5.303 C 19.017 5.624,19.000 5.353,19.000 10.057 C 19.000 12.723,19.015 14.272,19.041 14.365 C 19.148 14.750,19.437 14.962,19.896 14.991 C 20.381 15.022,20.699 14.882,20.880 14.558 L 20.980 14.380 20.980 9.920 L 20.980 5.460 20.886 5.160 C 20.581 4.182,19.832 3.428,18.861 3.121 L 18.540 3.020 12.120 3.014 C 8.589 3.011,5.609 3.024,5.499 3.043 M5.620 14.046 C 5.528 14.094,4.826 14.758,3.960 15.618 C 3.135 16.438,2.399 17.150,2.324 17.201 C 2.149 17.321,1.951 17.745,1.951 18.000 C 1.951 18.238,2.150 18.682,2.303 18.784 C 2.366 18.826,3.101 19.537,3.938 20.365 C 4.949 21.365,5.520 21.901,5.637 21.960 C 5.989 22.137,6.354 22.048,6.701 21.701 C 7.048 21.354,7.137 20.988,6.959 20.637 C 6.905 20.531,6.580 20.168,6.147 19.730 L 5.425 19.000 12.822 19.000 C 17.655 19.000,20.270 18.986,20.365 18.959 C 20.586 18.898,20.770 18.755,20.880 18.558 C 20.967 18.402,20.980 18.332,20.979 18.000 C 20.978 17.567,20.898 17.355,20.678 17.199 C 20.387 16.991,20.733 17.000,12.806 17.000 L 5.425 17.000 6.147 16.270 C 6.580 15.832,6.905 15.469,6.959 15.363 C 7.137 15.012,7.048 14.646,6.701 14.299 C 6.361 13.959,5.967 13.867,5.620 14.046 " stroke="none" fill="black" fill-rule="evenodd"></path></svg>