<svg xmlns="http://www.w3.org/2000/svg" width="24" height="24" viewBox="0 0 24 24" fill="none" stroke="currentColor" stroke-width="2" stroke-linecap="round" stroke-linejoin="round" class="icon icon-tabler icons-tabler-outline icon-tabler-brand-linktree"><path d="M11.614 1.057 C 11.377 1.131,11.212 1.261,11.109 1.453 L 11.020 1.620 11.009 4.598 L 10.998 7.576 9.009 5.594 C 7.697 4.287,6.966 3.587,6.860 3.537 C 6.651 3.438,6.345 3.439,6.140 3.540 C 5.926 3.644,5.614 3.961,5.519 4.170 C 5.476 4.264,5.442 4.412,5.442 4.500 C 5.442 4.847,5.500 4.915,7.591 7.010 L 9.578 9.000 6.695 9.000 C 3.615 9.000,3.600 9.001,3.322 9.199 C 3.100 9.357,3.020 9.568,3.020 10.000 C 3.020 10.331,3.033 10.403,3.120 10.558 C 3.230 10.755,3.414 10.898,3.635 10.959 C 3.726 10.985,4.860 11.000,6.679 11.000 L 9.578 11.000 7.591 12.990 C 6.089 14.495,5.585 15.024,5.523 15.160 C 5.361 15.519,5.449 15.853,5.798 16.202 C 6.149 16.553,6.483 16.641,6.837 16.474 C 6.975 16.410,7.640 15.771,9.510 13.905 L 12.000 11.422 14.510 13.926 C 17.251 16.660,17.176 16.596,17.584 16.550 C 17.995 16.503,18.511 15.978,18.550 15.565 C 18.587 15.183,18.568 15.160,16.405 12.990 L 14.422 11.000 17.321 11.000 C 19.140 11.000,20.274 10.985,20.365 10.959 C 20.586 10.898,20.770 10.755,20.880 10.558 C 20.967 10.402,20.980 10.332,20.979 10.000 C 20.978 9.567,20.898 9.355,20.678 9.199 C 20.400 9.001,20.385 9.000,17.305 9.000 L 14.422 9.000 16.405 7.010 C 18.565 4.843,18.587 4.816,18.551 4.438 C 18.502 3.934,17.836 3.367,17.397 3.455 C 17.094 3.515,16.942 3.651,14.991 5.594 L 13.002 7.576 12.991 4.598 L 12.980 1.620 12.891 1.453 C 12.842 1.362,12.746 1.247,12.678 1.199 C 12.414 1.010,11.957 0.950,11.614 1.057 M11.614 14.057 C 11.377 14.131,11.212 14.261,11.109 14.453 L 11.020 14.620 11.009 18.413 C 11.002 20.894,11.012 22.258,11.039 22.357 C 11.144 22.747,11.434 22.961,11.896 22.991 C 12.381 23.022,12.699 22.882,12.880 22.558 L 12.980 22.380 12.980 18.500 L 12.980 14.620 12.891 14.453 C 12.842 14.362,12.746 14.247,12.678 14.199 C 12.414 14.010,11.957 13.950,11.614 14.057 " stroke="none" fill="black" fill-rule="evenodd"></path></svg>