<svg xmlns="http://www.w3.org/2000/svg" width="24" height="24" viewBox="0 0 24 24" fill="none" stroke="currentColor" stroke-width="2" stroke-linecap="round" stroke-linejoin="round" class="icon icon-tabler icons-tabler-outline icon-tabler-table-off"><path d="M2.626 2.045 C 2.420 2.154,2.146 2.433,2.038 2.644 C 1.884 2.945,1.931 3.246,2.182 3.580 L 2.273 3.700 2.146 4.060 L 2.020 4.420 2.020 11.980 L 2.020 19.540 2.114 19.840 C 2.422 20.827,3.173 21.578,4.160 21.886 L 4.460 21.980 12.020 21.980 L 19.580 21.980 19.940 21.854 L 20.300 21.727 20.420 21.818 C 20.874 22.160,21.279 22.123,21.701 21.701 C 22.048 21.355,22.137 20.990,21.961 20.637 C 21.885 20.486,18.134 16.691,10.728 9.272 C 7.292 5.831,3.507 2.112,3.372 2.044 C 3.152 1.934,2.835 1.935,2.626 2.045 M6.614 2.057 C 6.377 2.132,6.212 2.261,6.109 2.453 C 6.035 2.592,6.020 2.684,6.020 3.000 C 6.020 3.331,6.033 3.403,6.120 3.558 C 6.230 3.755,6.414 3.898,6.635 3.959 C 6.716 3.982,7.270 4.000,7.890 4.000 L 9.000 4.000 9.000 5.110 C 9.000 5.730,9.018 6.284,9.041 6.365 C 9.148 6.750,9.437 6.962,9.896 6.991 C 10.381 7.022,10.699 6.882,10.880 6.558 C 10.979 6.381,10.980 6.374,10.993 5.190 L 11.005 4.000 15.055 4.000 C 19.634 4.000,19.377 3.983,19.697 4.303 C 20.002 4.608,20.000 4.595,20.000 6.947 L 20.000 9.000 16.906 9.000 C 13.599 9.000,13.601 9.000,13.322 9.199 C 13.100 9.357,13.020 9.568,13.020 10.000 C 13.020 10.331,13.033 10.403,13.120 10.558 C 13.230 10.755,13.414 10.898,13.635 10.959 C 13.726 10.985,14.930 11.000,16.890 11.000 L 20.000 11.000 20.000 14.110 C 20.000 16.070,20.015 17.274,20.041 17.365 C 20.148 17.750,20.437 17.962,20.896 17.991 C 21.381 18.022,21.699 17.882,21.880 17.558 L 21.980 17.380 21.980 10.920 L 21.980 4.460 21.886 4.160 C 21.581 3.182,20.832 2.428,19.861 2.121 L 19.540 2.020 13.160 2.012 C 7.990 2.006,6.748 2.014,6.614 2.057 M5.800 7.220 L 7.580 9.000 5.790 9.000 L 4.000 9.000 4.000 7.220 C 4.000 6.241,4.005 5.440,4.010 5.440 C 4.016 5.440,4.821 6.241,5.800 7.220 M9.000 15.501 L 9.000 20.003 6.850 19.991 L 4.700 19.980 4.516 19.872 C 4.415 19.813,4.284 19.700,4.225 19.623 C 3.990 19.315,4.000 19.511,4.000 15.075 L 4.000 11.000 6.500 11.000 L 9.000 11.000 9.000 15.501 M14.800 16.220 L 18.580 20.000 14.790 20.000 L 11.000 20.000 11.000 16.220 C 11.000 14.141,11.005 12.440,11.010 12.440 C 11.016 12.440,12.721 14.141,14.800 16.220 " stroke="none" fill="black" fill-rule="evenodd"></path></svg>