<svg xmlns="http://www.w3.org/2000/svg" width="24" height="24" viewBox="0 0 24 24" fill="none" stroke="currentColor" stroke-width="2" stroke-linecap="round" stroke-linejoin="round" class="icon icon-tabler icons-tabler-outline icon-tabler-brand-google-play"><path d="M4.402 2.045 C 4.090 2.098,3.794 2.245,3.558 2.466 C 3.316 2.692,3.178 2.914,3.075 3.245 C 3.003 3.479,3.000 3.774,3.000 12.000 C 3.000 20.226,3.003 20.521,3.075 20.755 C 3.178 21.083,3.315 21.307,3.551 21.528 C 4.023 21.969,4.687 22.109,5.266 21.889 C 5.608 21.759,20.233 13.317,20.445 13.127 C 20.574 13.012,20.689 12.852,20.788 12.652 C 20.926 12.373,20.937 12.323,20.937 12.000 C 20.937 11.677,20.926 11.627,20.788 11.348 C 20.688 11.146,20.574 10.989,20.444 10.873 C 20.214 10.668,5.488 2.178,5.229 2.101 C 4.976 2.026,4.646 2.003,4.402 2.045 M8.056 8.875 C 9.609 10.578,10.880 11.984,10.880 12.000 C 10.880 12.025,5.446 18.002,5.116 18.339 L 5.000 18.458 5.000 12.000 L 5.000 5.542 5.116 5.661 C 5.181 5.726,6.504 7.173,8.056 8.875 M10.920 7.639 C 12.229 8.392,13.348 9.038,13.407 9.074 L 13.514 9.140 12.901 9.814 C 12.564 10.184,12.279 10.490,12.267 10.494 C 12.242 10.501,8.280 6.169,8.280 6.136 C 8.280 6.123,8.338 6.149,8.410 6.192 C 8.482 6.236,9.611 6.887,10.920 7.639 M16.920 11.092 C 17.723 11.554,18.403 11.949,18.430 11.971 C 18.467 11.999,18.042 12.263,16.891 12.925 L 15.302 13.840 15.214 13.750 C 14.942 13.471,13.640 12.023,13.640 12.000 C 13.640 11.985,14.011 11.566,14.465 11.068 C 15.224 10.236,15.298 10.167,15.375 10.208 C 15.422 10.233,16.117 10.631,16.920 11.092 M12.916 14.200 C 13.246 14.563,13.503 14.871,13.488 14.884 C 13.473 14.897,12.356 15.542,11.006 16.317 C 9.656 17.093,8.486 17.766,8.406 17.813 L 8.260 17.898 8.320 17.812 C 8.468 17.600,12.262 13.486,12.287 13.512 C 12.303 13.527,12.585 13.837,12.916 14.200 " stroke="none" fill="black" fill-rule="evenodd"></path></svg>