<svg xmlns="http://www.w3.org/2000/svg" width="24" height="24" viewBox="0 0 24 24" fill="none" stroke="currentColor" stroke-width="2" stroke-linecap="round" stroke-linejoin="round" class="icon icon-tabler icons-tabler-outline icon-tabler-navigation-exclamation"><path d="M11.731 2.038 C 11.482 2.128,11.312 2.242,11.205 2.394 C 11.094 2.549,3.206 19.639,3.088 19.980 C 2.808 20.787,3.255 21.654,4.091 21.923 C 4.581 22.081,4.511 22.100,8.450 20.762 L 11.999 19.556 13.490 20.061 C 15.106 20.609,15.271 20.644,15.575 20.500 C 16.037 20.281,16.284 19.375,15.988 18.986 C 15.927 18.907,15.801 18.798,15.709 18.744 C 15.616 18.690,14.795 18.392,13.885 18.083 C 12.440 17.591,12.199 17.520,11.985 17.523 C 11.773 17.525,11.312 17.671,8.600 18.594 C 6.873 19.182,5.455 19.651,5.449 19.638 C 5.434 19.606,11.971 5.440,12.000 5.440 C 12.012 5.440,12.850 7.233,13.861 9.425 C 15.262 12.463,15.735 13.451,15.850 13.582 C 16.039 13.796,16.290 13.901,16.536 13.867 C 16.925 13.813,17.366 13.536,17.496 13.264 C 17.575 13.097,17.579 12.783,17.505 12.575 C 17.369 12.194,12.824 2.405,12.725 2.282 C 12.578 2.098,12.309 1.960,12.104 1.961 C 12.014 1.962,11.846 1.997,11.731 2.038 M18.614 15.057 C 18.377 15.131,18.212 15.261,18.109 15.453 C 18.021 15.618,18.020 15.647,18.008 17.410 C 18.001 18.557,18.012 19.255,18.038 19.354 C 18.144 19.747,18.433 19.961,18.896 19.991 C 19.381 20.022,19.699 19.882,19.880 19.558 L 19.980 19.380 19.980 17.500 C 19.980 15.633,19.979 15.619,19.891 15.453 C 19.842 15.362,19.746 15.247,19.678 15.199 C 19.414 15.010,18.957 14.950,18.614 15.057 M18.614 21.057 C 18.221 21.180,18.039 21.435,18.009 21.906 C 17.962 22.621,18.306 23.000,19.000 23.000 C 19.698 23.000,20.043 22.616,19.989 21.900 C 19.963 21.563,19.859 21.327,19.678 21.199 C 19.414 21.010,18.957 20.950,18.614 21.057 " stroke="none" fill="black" fill-rule="evenodd"></path></svg>