<svg xmlns="http://www.w3.org/2000/svg" width="24" height="24" viewBox="0 0 24 24" fill="none" stroke="currentColor" stroke-width="2" stroke-linecap="round" stroke-linejoin="round" class="icon icon-tabler icons-tabler-outline icon-tabler-cactus-off"><path d="M2.626 2.045 C 2.420 2.154,2.146 2.433,2.038 2.644 C 1.924 2.867,1.924 3.132,2.039 3.363 C 2.102 3.488,3.130 4.543,5.564 6.981 L 9.000 10.421 9.000 11.211 L 9.000 12.000 8.868 12.000 C 8.321 12.000,7.661 11.603,7.312 11.063 C 7.061 10.675,7.032 10.529,7.003 9.520 C 6.973 8.501,6.939 8.372,6.649 8.182 C 6.199 7.887,5.426 7.979,5.170 8.358 C 5.024 8.575,5.000 8.741,5.000 9.574 C 5.000 10.219,5.015 10.443,5.083 10.773 C 5.357 12.118,6.249 13.195,7.512 13.704 C 7.885 13.854,8.527 14.000,8.816 14.000 L 9.000 14.000 9.000 17.000 L 9.000 20.000 7.906 20.000 C 6.744 20.000,6.570 20.022,6.322 20.199 C 6.100 20.357,6.020 20.568,6.020 21.000 C 6.020 21.331,6.033 21.403,6.120 21.558 C 6.230 21.755,6.414 21.898,6.635 21.959 C 6.834 22.015,17.166 22.015,17.365 21.959 C 17.586 21.898,17.770 21.755,17.880 21.558 C 17.967 21.402,17.980 21.332,17.979 21.000 C 17.978 20.567,17.898 20.355,17.678 20.199 C 17.430 20.022,17.256 20.000,16.094 20.000 L 15.000 20.000 15.000 18.506 L 15.000 17.012 15.270 16.986 L 15.540 16.961 18.000 19.416 C 19.716 21.129,20.514 21.899,20.637 21.960 C 20.990 22.137,21.354 22.048,21.701 21.701 C 22.116 21.286,22.159 20.867,21.832 20.440 C 21.777 20.369,15.850 14.388,14.748 13.293 C 14.608 13.153,10.871 9.417,10.760 9.306 C 10.705 9.250,9.058 7.613,7.100 5.667 C 4.709 3.290,3.485 2.101,3.372 2.044 C 3.152 1.934,2.835 1.935,2.626 2.045 M11.499 2.040 C 10.373 2.244,9.472 3.039,9.118 4.140 C 9.039 4.386,9.026 4.528,9.010 5.300 C 8.998 5.873,9.007 6.238,9.036 6.344 C 9.144 6.748,9.428 6.961,9.896 6.991 C 10.381 7.022,10.699 6.882,10.879 6.558 C 10.973 6.390,10.980 6.336,11.001 5.560 C 11.027 4.632,11.048 4.548,11.321 4.283 C 11.490 4.120,11.777 4.000,12.000 4.000 C 12.237 4.000,12.514 4.120,12.697 4.303 C 13.008 4.615,13.000 4.526,13.000 7.557 C 13.000 9.218,13.016 10.274,13.041 10.365 C 13.148 10.750,13.437 10.962,13.896 10.991 C 14.381 11.022,14.699 10.882,14.880 10.558 L 14.980 10.380 14.980 7.420 L 14.980 4.460 14.886 4.160 C 14.580 3.178,13.810 2.407,12.861 2.129 C 12.500 2.023,11.832 1.980,11.499 2.040 M17.614 7.057 C 17.377 7.131,17.212 7.261,17.109 7.453 L 17.020 7.620 16.999 10.480 C 16.979 13.121,16.972 13.365,16.900 13.670 C 16.804 14.081,16.847 14.300,17.068 14.528 C 17.295 14.761,17.556 14.857,17.966 14.859 C 18.294 14.860,18.320 14.854,18.466 14.736 C 18.661 14.579,18.809 14.286,18.905 13.867 C 18.975 13.563,18.980 13.335,18.980 10.580 L 18.980 7.620 18.891 7.453 C 18.842 7.362,18.746 7.247,18.678 7.199 C 18.414 7.010,17.957 6.950,17.614 7.057 M13.000 17.210 L 13.000 20.000 12.000 20.000 L 11.000 20.000 11.000 16.210 L 11.000 12.421 12.000 13.420 L 13.000 14.419 13.000 17.210 " stroke="none" fill="black" fill-rule="evenodd"></path></svg>