<svg xmlns="http://www.w3.org/2000/svg" width="24" height="24" viewBox="0 0 24 24" fill="none" stroke="currentColor" stroke-width="2" stroke-linecap="round" stroke-linejoin="round" class="icon icon-tabler icons-tabler-outline icon-tabler-pentagon-number-1"><path d="M11.340 0.865 C 11.186 0.897,10.907 1.000,10.720 1.093 C 10.300 1.302,2.269 7.122,1.888 7.494 C 1.447 7.924,1.193 8.393,1.064 9.018 C 0.983 9.411,0.983 9.760,1.063 10.152 C 1.168 10.662,4.267 20.142,4.432 20.460 C 4.535 20.656,4.686 20.848,4.939 21.101 C 5.342 21.504,5.660 21.708,6.140 21.871 L 6.460 21.980 12.000 21.980 L 17.540 21.980 17.860 21.871 C 18.340 21.708,18.658 21.504,19.061 21.101 C 19.314 20.848,19.465 20.656,19.568 20.460 C 19.733 20.143,22.831 10.663,22.936 10.152 C 23.135 9.187,22.816 8.173,22.094 7.474 C 21.717 7.110,13.682 1.293,13.280 1.093 C 12.715 0.812,11.997 0.728,11.340 0.865 M12.403 2.890 C 12.660 3.021,20.640 8.824,20.769 8.974 C 20.922 9.152,21.015 9.449,20.988 9.675 C 20.954 9.956,17.867 19.415,17.755 19.580 C 17.642 19.748,17.426 19.907,17.237 19.961 C 17.051 20.014,6.949 20.014,6.763 19.961 C 6.556 19.901,6.326 19.724,6.221 19.543 C 6.103 19.339,3.043 9.928,3.012 9.675 C 2.985 9.449,3.078 9.152,3.231 8.974 C 3.360 8.824,11.340 3.021,11.597 2.890 C 11.836 2.768,12.164 2.768,12.403 2.890 M11.620 7.046 C 11.390 7.165,9.153 9.411,9.040 9.637 C 8.863 9.990,8.952 10.354,9.299 10.701 C 9.641 11.043,10.013 11.137,10.349 10.965 C 10.440 10.919,10.623 10.780,10.757 10.656 L 11.000 10.431 11.000 13.326 C 11.000 15.141,11.015 16.274,11.041 16.365 C 11.148 16.750,11.437 16.962,11.896 16.991 C 12.381 17.022,12.699 16.882,12.880 16.558 L 12.980 16.380 12.980 12.040 L 12.980 7.700 12.871 7.514 C 12.758 7.323,12.558 7.141,12.332 7.025 C 12.153 6.934,11.818 6.944,11.620 7.046 " stroke="none" fill="black" fill-rule="evenodd"></path></svg>