<svg xmlns="http://www.w3.org/2000/svg" width="24" height="24" viewBox="0 0 24 24" fill="none" stroke="currentColor" stroke-width="2" stroke-linecap="round" stroke-linejoin="round" class="icon icon-tabler icons-tabler-outline icon-tabler-chart-area-line"><path d="M15.688 3.000 C 15.638 3.021,15.537 3.084,15.465 3.139 C 15.393 3.194,14.301 4.479,13.038 5.994 L 10.743 8.750 8.979 7.871 C 7.245 7.006,7.212 6.992,6.965 6.992 C 6.505 6.992,6.540 6.955,4.731 9.360 C 3.846 10.537,3.085 11.576,3.041 11.670 C 2.937 11.888,2.935 12.195,3.037 12.394 C 3.211 12.735,3.696 13.039,4.065 13.040 C 4.451 13.040,4.514 12.974,5.960 11.052 C 6.675 10.102,7.271 9.314,7.285 9.301 C 7.299 9.287,8.091 9.666,9.045 10.141 C 10.641 10.936,10.798 11.006,11.001 11.011 C 11.464 11.022,11.367 11.120,13.835 8.157 L 16.060 5.485 17.760 7.178 C 18.914 8.328,19.517 8.900,19.637 8.960 C 19.989 9.137,20.354 9.048,20.701 8.701 C 21.048 8.354,21.137 7.990,20.960 7.637 C 20.846 7.410,16.800 3.337,16.480 3.127 C 16.299 3.009,16.217 2.981,16.020 2.972 C 15.888 2.966,15.739 2.978,15.688 3.000 M15.686 9.003 C 15.634 9.024,15.538 9.079,15.472 9.126 C 15.406 9.173,14.559 10.203,13.591 11.416 C 12.622 12.628,11.805 13.647,11.774 13.679 C 11.726 13.730,11.495 13.626,9.964 12.862 C 8.275 12.020,8.199 11.987,7.974 11.987 C 7.710 11.987,7.485 12.083,7.315 12.266 C 7.257 12.329,6.346 13.676,5.290 15.260 C 4.235 16.844,3.331 18.176,3.281 18.220 C 3.171 18.318,3.069 18.518,3.001 18.770 C 2.861 19.288,3.155 19.829,3.649 19.962 C 3.856 20.018,20.156 20.015,20.364 19.959 C 20.584 19.900,20.769 19.756,20.880 19.558 L 20.980 19.380 20.980 16.540 L 20.980 13.700 20.873 13.520 C 20.813 13.420,19.832 12.410,18.673 11.254 C 16.415 9.003,16.361 8.957,15.971 8.963 C 15.866 8.964,15.738 8.982,15.686 9.003 M17.550 12.970 L 19.000 14.420 19.000 16.210 L 19.000 18.000 12.438 18.000 C 7.198 18.000,5.881 17.990,5.905 17.950 C 6.118 17.595,8.331 14.320,8.358 14.320 C 8.379 14.320,9.159 14.700,10.090 15.164 C 11.725 15.979,11.793 16.008,12.028 16.011 C 12.473 16.015,12.446 16.042,14.352 13.658 C 15.292 12.483,16.069 11.521,16.080 11.521 C 16.091 11.520,16.752 12.172,17.550 12.970 " stroke="none" fill="black" fill-rule="evenodd"></path></svg>