<svg xmlns="http://www.w3.org/2000/svg" width="24" height="24" viewBox="0 0 24 24" fill="none" stroke="currentColor" stroke-width="2" stroke-linecap="round" stroke-linejoin="round" class="icon icon-tabler icons-tabler-outline icon-tabler-wash-temperature-1"><path d="M2.619 5.070 C 2.191 5.223,2.003 5.467,2.001 5.872 C 2.000 5.989,2.108 6.730,2.240 7.520 C 2.372 8.310,2.480 9.019,2.480 9.095 C 2.480 9.172,2.497 9.280,2.518 9.336 C 2.539 9.391,2.827 11.066,3.158 13.058 C 3.489 15.051,3.797 16.793,3.843 16.930 C 4.117 17.746,4.782 18.467,5.549 18.779 C 6.111 19.007,5.905 19.000,12.000 19.000 C 18.116 19.000,17.897 19.008,18.460 18.772 C 19.245 18.444,19.890 17.739,20.157 16.920 C 20.204 16.777,20.494 15.139,20.801 13.280 C 21.109 11.421,21.396 9.702,21.440 9.460 C 21.646 8.335,22.000 6.061,21.999 5.872 C 21.998 5.569,21.885 5.347,21.660 5.204 C 21.285 4.966,20.705 4.934,20.403 5.133 C 20.133 5.312,20.066 5.517,19.855 6.800 C 19.752 7.427,19.655 7.954,19.640 7.972 C 19.604 8.013,18.923 7.864,18.752 7.777 C 18.680 7.740,18.521 7.649,18.399 7.575 C 18.093 7.387,17.630 7.217,17.149 7.113 C 16.560 6.986,15.440 6.986,14.851 7.113 C 14.370 7.217,13.907 7.387,13.601 7.575 C 13.238 7.796,13.132 7.841,12.768 7.921 C 12.307 8.023,11.693 8.023,11.232 7.921 C 10.868 7.841,10.762 7.796,10.399 7.575 C 10.093 7.387,9.630 7.217,9.149 7.113 C 8.560 6.986,7.440 6.986,6.851 7.113 C 6.370 7.217,5.907 7.387,5.601 7.575 C 5.479 7.649,5.320 7.740,5.248 7.777 C 5.077 7.864,4.396 8.013,4.360 7.972 C 4.345 7.954,4.248 7.427,4.145 6.800 C 3.934 5.513,3.868 5.312,3.594 5.131 C 3.383 4.991,2.920 4.962,2.619 5.070 M8.856 9.099 C 9.043 9.139,9.261 9.232,9.533 9.387 C 10.253 9.798,11.064 10.000,12.000 10.000 C 12.934 10.000,13.747 9.798,14.463 9.390 C 14.985 9.092,15.255 9.027,15.980 9.026 C 16.732 9.025,17.014 9.091,17.533 9.387 C 17.981 9.643,18.544 9.847,19.010 9.921 C 19.180 9.949,19.320 9.978,19.320 9.986 C 19.320 10.137,18.261 16.286,18.215 16.400 C 18.135 16.601,17.819 16.890,17.609 16.952 C 17.381 17.021,6.619 17.021,6.391 16.952 C 6.181 16.890,5.865 16.601,5.785 16.400 C 5.739 16.286,4.680 10.137,4.680 9.986 C 4.680 9.978,4.819 9.949,4.990 9.921 C 5.452 9.848,6.017 9.644,6.463 9.391 C 6.875 9.157,7.043 9.098,7.456 9.039 C 7.779 8.993,8.511 9.025,8.856 9.099 M11.614 12.055 C 11.220 12.184,11.039 12.437,11.009 12.900 C 10.978 13.381,11.119 13.699,11.442 13.880 C 11.597 13.967,11.669 13.980,12.000 13.980 C 12.312 13.980,12.408 13.964,12.540 13.894 C 12.866 13.718,13.000 13.459,13.000 13.000 C 13.000 12.357,12.713 12.048,12.083 12.016 C 11.893 12.006,11.718 12.021,11.614 12.055 " stroke="none" fill="black" fill-rule="evenodd"></path></svg>