<svg xmlns="http://www.w3.org/2000/svg" width="24" height="24" viewBox="0 0 24 24" fill="none" stroke="currentColor" stroke-width="2" stroke-linecap="round" stroke-linejoin="round" class="icon icon-tabler icons-tabler-outline icon-tabler-mood-happy"><path d="M11.080 2.045 C 9.507 2.184,7.883 2.751,6.540 3.630 C 5.905 4.045,5.499 4.378,4.919 4.958 C 2.953 6.926,1.919 9.544,2.013 12.320 C 2.084 14.439,2.752 16.328,4.033 18.040 C 4.430 18.570,5.305 19.464,5.800 19.847 C 7.242 20.961,8.787 21.624,10.600 21.907 C 11.247 22.008,12.753 22.008,13.400 21.907 C 15.638 21.557,17.504 20.620,19.062 19.062 C 20.620 17.504,21.557 15.638,21.907 13.400 C 22.008 12.753,22.008 11.247,21.907 10.600 C 21.624 8.786,20.959 7.238,19.847 5.800 C 19.510 5.365,18.639 4.494,18.200 4.154 C 16.133 2.555,13.646 1.818,11.080 2.045 M12.734 4.041 C 14.574 4.216,16.228 4.976,17.554 6.256 C 20.043 8.658,20.702 12.394,19.183 15.499 C 18.749 16.387,18.223 17.105,17.496 17.801 C 16.876 18.394,16.262 18.819,15.471 19.200 C 13.267 20.265,10.733 20.265,8.529 19.200 C 7.477 18.693,6.612 18.015,5.847 17.100 C 3.848 14.711,3.440 11.302,4.816 8.500 C 6.162 5.760,8.867 4.049,11.920 4.005 C 12.129 4.003,12.495 4.019,12.734 4.041 M8.614 8.055 C 8.220 8.184,8.039 8.437,8.009 8.900 C 7.978 9.381,8.119 9.699,8.442 9.880 C 8.597 9.967,8.669 9.980,9.000 9.980 C 9.312 9.980,9.408 9.964,9.540 9.894 C 9.866 9.718,10.000 9.459,10.000 9.000 C 10.000 8.357,9.713 8.048,9.083 8.016 C 8.893 8.006,8.718 8.021,8.614 8.055 M14.614 8.055 C 14.220 8.184,14.039 8.437,14.009 8.900 C 13.978 9.381,14.119 9.699,14.442 9.880 C 14.597 9.967,14.669 9.980,15.000 9.980 C 15.312 9.980,15.408 9.964,15.540 9.894 C 15.866 9.718,16.000 9.459,16.000 9.000 C 16.000 8.357,15.713 8.048,15.083 8.016 C 14.893 8.006,14.718 8.021,14.614 8.055 M7.614 12.057 C 7.377 12.131,7.212 12.261,7.109 12.453 C 7.030 12.600,7.020 12.679,7.021 13.120 C 7.024 14.905,8.083 16.601,9.713 17.433 C 10.506 17.838,11.101 17.980,12.000 17.980 C 12.898 17.980,13.494 17.838,14.286 17.433 C 15.913 16.604,16.978 14.898,16.979 13.120 C 16.980 12.679,16.969 12.600,16.891 12.453 C 16.785 12.256,16.622 12.131,16.371 12.055 C 16.108 11.976,7.867 11.978,7.614 12.057 M14.797 14.110 C 14.579 14.687,13.977 15.353,13.400 15.656 C 12.922 15.907,12.609 15.979,12.000 15.979 C 11.391 15.979,11.078 15.907,10.600 15.656 C 10.023 15.353,9.421 14.687,9.203 14.110 L 9.162 14.000 12.000 14.000 L 14.838 14.000 14.797 14.110 " stroke="none" fill="black" fill-rule="evenodd"></path></svg>