<svg xmlns="http://www.w3.org/2000/svg" width="24" height="24" viewBox="0 0 24 24" fill="none" stroke="currentColor" stroke-width="2" stroke-linecap="round" stroke-linejoin="round" class="icon icon-tabler icons-tabler-outline icon-tabler-train"><path d="M2.640 5.036 C 2.321 5.137,2.155 5.294,2.062 5.580 C 2.004 5.760,2.000 6.205,2.016 10.100 C 2.025 12.476,2.031 14.483,2.029 14.560 C 2.007 15.238,2.020 15.380,2.120 15.558 C 2.232 15.757,2.416 15.900,2.643 15.961 C 2.743 15.988,5.607 15.998,11.187 15.991 L 19.580 15.980 19.860 15.886 C 20.851 15.554,21.582 14.816,21.886 13.840 C 21.970 13.573,21.980 13.466,21.977 12.860 C 21.974 12.086,21.908 11.633,21.697 10.935 C 21.280 9.553,20.472 8.371,19.302 7.429 C 18.743 6.979,18.279 6.686,17.580 6.342 C 16.204 5.665,14.840 5.302,12.820 5.075 C 12.349 5.022,2.800 4.986,2.640 5.036 M7.000 8.500 L 7.000 10.000 5.500 10.000 L 4.000 10.000 4.000 8.500 L 4.000 7.000 5.500 7.000 L 7.000 7.000 7.000 8.500 M11.790 7.026 L 12.000 7.051 12.000 8.526 L 12.000 10.000 10.500 10.000 L 9.000 10.000 9.000 8.500 L 9.000 7.000 10.290 7.000 C 11.000 7.001,11.675 7.012,11.790 7.026 M14.720 7.423 C 16.040 7.755,17.067 8.226,17.943 8.904 C 18.255 9.145,19.000 9.893,19.000 9.965 C 19.000 9.985,17.927 10.000,16.500 10.000 L 14.000 10.000 14.000 8.640 C 14.000 7.331,14.003 7.280,14.076 7.280 C 14.118 7.280,14.408 7.344,14.720 7.423 M19.933 12.190 C 19.999 12.729,20.004 13.105,19.948 13.286 C 19.871 13.534,19.707 13.740,19.484 13.872 L 19.300 13.980 11.650 13.990 L 4.000 14.001 4.000 13.000 L 4.000 12.000 11.955 12.000 L 19.910 12.000 19.933 12.190 M2.614 18.057 C 2.377 18.131,2.212 18.261,2.109 18.453 C 2.035 18.592,2.020 18.684,2.020 19.000 C 2.020 19.331,2.033 19.403,2.120 19.558 C 2.230 19.755,2.414 19.898,2.635 19.959 C 2.835 20.015,21.165 20.015,21.365 19.959 C 21.586 19.898,21.770 19.755,21.880 19.558 C 21.967 19.402,21.980 19.332,21.979 19.000 C 21.978 18.567,21.898 18.355,21.678 18.199 C 21.385 17.990,21.877 18.000,11.984 18.003 C 4.546 18.005,2.748 18.015,2.614 18.057 " stroke="none" fill="black" fill-rule="evenodd"></path></svg>