<svg xmlns="http://www.w3.org/2000/svg" width="24" height="24" viewBox="0 0 24 24" fill="none" stroke="currentColor" stroke-width="2" stroke-linecap="round" stroke-linejoin="round" class="icon icon-tabler icons-tabler-outline icon-tabler-list-tree"><path d="M4.614 5.057 C 4.221 5.180,4.039 5.435,4.009 5.906 C 3.962 6.621,4.306 7.000,5.000 7.000 C 5.698 7.000,6.043 6.616,5.989 5.900 C 5.963 5.563,5.859 5.327,5.678 5.199 C 5.414 5.010,4.957 4.950,4.614 5.057 M8.614 5.057 C 8.377 5.131,8.212 5.261,8.109 5.453 C 8.035 5.592,8.020 5.684,8.020 6.000 C 8.020 6.331,8.033 6.403,8.120 6.558 C 8.230 6.755,8.414 6.898,8.635 6.959 C 8.834 7.015,20.166 7.015,20.365 6.959 C 20.586 6.898,20.770 6.755,20.880 6.558 C 20.967 6.402,20.980 6.332,20.979 6.000 C 20.978 5.567,20.898 5.355,20.678 5.199 C 20.389 4.993,20.604 5.000,14.484 5.003 C 9.919 5.005,8.747 5.016,8.614 5.057 M7.614 11.057 C 7.221 11.180,7.039 11.435,7.009 11.906 C 6.962 12.621,7.306 13.000,8.000 13.000 C 8.698 13.000,9.043 12.616,8.989 11.900 C 8.963 11.563,8.859 11.327,8.678 11.199 C 8.414 11.010,7.957 10.950,7.614 11.057 M11.614 11.057 C 11.377 11.131,11.212 11.261,11.109 11.453 C 11.035 11.592,11.020 11.684,11.020 12.000 C 11.020 12.331,11.033 12.403,11.120 12.558 C 11.230 12.755,11.414 12.898,11.635 12.959 C 11.833 13.014,20.167 13.014,20.365 12.959 C 20.586 12.898,20.770 12.755,20.880 12.558 C 20.967 12.402,20.980 12.332,20.979 12.000 C 20.978 11.567,20.898 11.355,20.678 11.199 C 20.393 10.996,20.487 11.000,15.984 11.003 C 12.651 11.005,11.746 11.016,11.614 11.057 M10.614 17.057 C 10.221 17.180,10.039 17.435,10.009 17.906 C 9.962 18.621,10.306 19.000,11.000 19.000 C 11.698 19.000,12.043 18.616,11.989 17.900 C 11.963 17.563,11.859 17.327,11.678 17.199 C 11.414 17.010,10.957 16.950,10.614 17.057 M14.614 17.057 C 14.377 17.131,14.212 17.261,14.109 17.453 C 14.035 17.592,14.020 17.684,14.020 18.000 C 14.020 18.331,14.033 18.403,14.120 18.558 C 14.230 18.755,14.414 18.898,14.635 18.959 C 14.832 19.014,20.168 19.014,20.365 18.959 C 20.586 18.898,20.770 18.755,20.880 18.558 C 20.967 18.402,20.980 18.332,20.979 18.000 C 20.978 17.567,20.898 17.355,20.678 17.199 C 20.401 17.002,20.373 17.000,17.484 17.003 C 15.382 17.005,14.743 17.017,14.614 17.057 " stroke="none" fill="black" fill-rule="evenodd"></path></svg>