<svg xmlns="http://www.w3.org/2000/svg" width="24" height="24" viewBox="0 0 24 24" fill="none" stroke="currentColor" stroke-width="2" stroke-linecap="round" stroke-linejoin="round" class="icon icon-tabler icons-tabler-outline icon-tabler-arrow-right-rhombus"><path d="M17.626 8.045 C 17.257 8.239,16.951 8.673,16.951 9.000 C 16.951 9.307,17.079 9.487,17.853 10.270 L 18.575 11.000 13.499 11.000 L 8.423 11.000 7.221 9.807 C 6.467 9.057,5.961 8.585,5.860 8.538 C 5.654 8.440,5.346 8.440,5.140 8.537 C 4.914 8.644,2.159 11.398,2.039 11.637 C 1.924 11.868,1.924 12.132,2.039 12.363 C 2.099 12.482,2.592 13.004,3.554 13.968 C 5.052 15.468,5.161 15.557,5.497 15.559 C 5.816 15.561,5.962 15.445,7.221 14.194 L 8.423 13.000 13.499 13.000 L 18.575 13.000 17.853 13.730 C 17.420 14.168,17.095 14.531,17.041 14.637 C 16.863 14.988,16.952 15.354,17.299 15.701 C 17.646 16.048,18.011 16.137,18.363 15.960 C 18.480 15.901,19.051 15.365,20.062 14.365 C 20.899 13.537,21.634 12.826,21.697 12.784 C 21.850 12.682,22.049 12.238,22.049 12.000 C 22.049 11.745,21.851 11.321,21.676 11.201 C 21.601 11.150,20.865 10.438,20.040 9.618 C 19.085 8.670,18.479 8.098,18.372 8.044 C 18.152 7.934,17.835 7.934,17.626 8.045 M6.040 12.540 L 5.501 13.080 4.961 12.540 L 4.421 12.000 4.960 11.460 L 5.499 10.920 6.039 11.460 L 6.579 12.000 6.040 12.540 " stroke="none" fill="black" fill-rule="evenodd"></path></svg>