<svg xmlns="http://www.w3.org/2000/svg" width="24" height="24" viewBox="0 0 24 24" fill="none" stroke="currentColor" stroke-width="2" stroke-linecap="round" stroke-linejoin="round" class="icon icon-tabler icons-tabler-outline icon-tabler-grid-3x3"><path d="M7.614 2.057 C 7.377 2.131,7.212 2.261,7.109 2.453 C 7.021 2.619,7.020 2.633,7.009 4.810 L 6.997 7.000 4.905 7.000 C 2.674 7.000,2.592 7.006,2.322 7.199 C 2.100 7.357,2.020 7.568,2.020 8.000 C 2.020 8.331,2.033 8.403,2.120 8.558 C 2.230 8.755,2.414 8.898,2.635 8.959 C 2.724 8.984,3.600 9.000,4.890 9.000 L 7.000 9.000 7.000 12.000 L 7.000 15.000 4.906 15.000 C 2.674 15.000,2.592 15.006,2.322 15.199 C 2.100 15.357,2.020 15.568,2.020 16.000 C 2.020 16.331,2.033 16.403,2.120 16.558 C 2.230 16.755,2.414 16.898,2.635 16.959 C 2.724 16.984,3.600 17.000,4.890 17.000 L 7.000 17.000 7.000 19.110 C 7.000 20.400,7.016 21.276,7.041 21.365 C 7.148 21.750,7.437 21.962,7.896 21.991 C 8.381 22.022,8.699 21.882,8.880 21.558 L 8.980 21.380 8.992 19.190 L 9.003 17.000 12.002 17.000 L 15.000 17.000 15.000 19.110 C 15.000 20.400,15.016 21.276,15.041 21.365 C 15.148 21.750,15.437 21.962,15.896 21.991 C 16.381 22.022,16.699 21.882,16.880 21.558 L 16.980 21.380 16.992 19.190 L 17.003 17.000 19.112 17.000 C 20.401 17.000,21.276 16.984,21.365 16.959 C 21.586 16.898,21.770 16.755,21.880 16.558 C 21.967 16.402,21.980 16.332,21.979 16.000 C 21.978 15.567,21.898 15.355,21.678 15.199 C 21.408 15.006,21.326 15.000,19.094 15.000 L 17.000 15.000 17.000 12.000 L 17.000 9.000 19.110 9.000 C 20.400 9.000,21.276 8.984,21.365 8.959 C 21.586 8.898,21.770 8.755,21.880 8.558 C 21.967 8.402,21.980 8.332,21.979 8.000 C 21.978 7.567,21.898 7.355,21.678 7.199 C 21.408 7.006,21.326 7.000,19.095 7.000 L 17.003 7.000 16.992 4.810 C 16.980 2.620,16.980 2.620,16.889 2.450 C 16.724 2.140,16.329 1.970,15.874 2.011 C 15.439 2.051,15.141 2.274,15.041 2.635 C 15.016 2.724,15.000 3.600,15.000 4.890 L 15.000 7.000 12.002 7.000 L 9.003 7.000 8.992 4.810 C 8.980 2.633,8.979 2.619,8.891 2.453 C 8.842 2.362,8.746 2.247,8.678 2.199 C 8.414 2.010,7.957 1.950,7.614 2.057 M15.000 12.000 L 15.000 15.000 12.000 15.000 L 9.000 15.000 9.000 12.000 L 9.000 9.000 12.000 9.000 L 15.000 9.000 15.000 12.000 " stroke="none" fill="black" fill-rule="evenodd"></path></svg>