<svg xmlns="http://www.w3.org/2000/svg" width="24" height="24" viewBox="0 0 24 24" fill="none" stroke="currentColor" stroke-width="2" stroke-linecap="round" stroke-linejoin="round" class="icon icon-tabler icons-tabler-outline icon-tabler-wash-dry-flat"><path d="M5.358 2.061 C 3.731 2.315,2.417 3.584,2.083 5.227 C 2.001 5.627,2.000 5.723,2.000 12.000 C 2.000 18.277,2.001 18.373,2.083 18.773 C 2.311 19.892,2.985 20.851,3.956 21.436 C 4.285 21.635,4.810 21.832,5.243 21.921 C 5.622 21.998,5.805 22.000,12.000 22.000 C 18.195 22.000,18.378 21.998,18.757 21.921 C 20.117 21.643,21.193 20.755,21.704 19.488 C 21.779 19.300,21.877 18.972,21.921 18.757 C 21.998 18.378,22.000 18.195,22.000 12.000 C 22.000 5.805,21.998 5.622,21.921 5.243 C 21.628 3.806,20.637 2.680,19.245 2.204 C 18.646 1.999,18.690 2.000,11.960 2.004 C 6.959 2.007,5.631 2.018,5.358 2.061 M18.523 4.073 C 19.212 4.253,19.795 4.860,19.941 5.549 C 20.027 5.954,20.027 18.046,19.941 18.451 C 19.863 18.821,19.710 19.091,19.400 19.404 C 19.119 19.690,18.854 19.846,18.492 19.940 C 18.147 20.030,5.853 20.030,5.508 19.940 C 4.823 19.762,4.249 19.194,4.073 18.523 C 4.010 18.280,4.004 17.786,4.002 12.028 C 4.000 5.109,3.986 5.479,4.265 5.014 C 4.546 4.543,4.988 4.201,5.477 4.073 C 5.720 4.010,6.211 4.005,12.000 4.005 C 17.789 4.005,18.280 4.010,18.523 4.073 M6.614 11.057 C 6.377 11.131,6.212 11.261,6.109 11.453 C 6.035 11.592,6.020 11.684,6.020 12.000 C 6.020 12.331,6.033 12.403,6.120 12.558 C 6.230 12.755,6.414 12.898,6.635 12.959 C 6.834 13.015,17.166 13.015,17.365 12.959 C 17.586 12.898,17.770 12.755,17.880 12.558 C 17.967 12.402,17.980 12.332,17.979 12.000 C 17.978 11.567,17.898 11.355,17.678 11.199 C 17.390 10.994,17.565 11.000,11.984 11.003 C 7.830 11.005,6.746 11.016,6.614 11.057 " stroke="none" fill="black" fill-rule="evenodd"></path></svg>