<svg xmlns="http://www.w3.org/2000/svg" width="24" height="24" viewBox="0 0 24 24" fill="none" stroke="currentColor" stroke-width="2" stroke-linecap="round" stroke-linejoin="round" class="icon icon-tabler icons-tabler-outline icon-tabler-world-longitude"><path d="M11.259 2.001 C 11.215 2.017,11.063 2.043,10.920 2.059 C 9.074 2.263,7.316 2.983,5.800 4.154 C 5.005 4.769,4.015 5.884,3.470 6.780 C 2.106 9.020,1.666 11.743,2.260 14.260 C 2.697 16.112,3.581 17.701,4.919 19.042 C 6.137 20.263,7.496 21.081,9.120 21.573 C 11.046 22.156,12.954 22.156,14.880 21.573 C 16.494 21.085,17.859 20.265,19.062 19.062 C 20.620 17.504,21.557 15.638,21.907 13.400 C 22.008 12.753,22.008 11.247,21.907 10.600 C 21.624 8.786,20.959 7.238,19.847 5.800 C 19.510 5.365,18.639 4.494,18.200 4.154 C 16.407 2.766,14.264 2.013,12.019 1.981 C 11.644 1.976,11.302 1.985,11.259 2.001 M10.998 12.010 L 10.997 19.260 10.733 18.980 C 9.286 17.443,8.342 15.448,8.056 13.320 C 7.966 12.646,7.966 11.354,8.056 10.680 C 8.338 8.580,9.229 6.673,10.666 5.090 C 10.831 4.909,10.974 4.760,10.983 4.760 C 10.992 4.760,10.999 8.023,10.998 12.010 M13.760 5.580 C 14.905 6.982,15.695 8.825,15.944 10.680 C 16.034 11.354,16.034 12.646,15.944 13.320 C 15.658 15.446,14.713 17.444,13.267 18.980 L 13.003 19.260 13.003 12.000 L 13.003 4.740 13.267 5.020 C 13.412 5.174,13.634 5.426,13.760 5.580 M7.944 5.350 C 5.312 9.383,5.313 14.620,7.947 18.655 L 8.205 19.051 8.013 18.939 C 7.212 18.474,6.467 17.842,5.847 17.100 C 3.848 14.711,3.440 11.302,4.816 8.500 C 5.500 7.107,6.553 5.952,7.868 5.152 C 8.040 5.047,8.184 4.961,8.189 4.961 C 8.194 4.960,8.084 5.135,7.944 5.350 M16.467 5.367 C 16.833 5.611,17.183 5.897,17.554 6.256 C 20.043 8.658,20.702 12.394,19.183 15.499 C 18.479 16.939,17.364 18.140,15.987 18.939 L 15.795 19.051 16.053 18.655 C 17.052 17.125,17.686 15.396,17.945 13.500 C 18.043 12.777,18.043 11.223,17.945 10.500 C 17.686 8.606,17.052 6.875,16.055 5.348 L 15.799 4.956 15.990 5.066 C 16.094 5.126,16.309 5.261,16.467 5.367 " stroke="none" fill="black" fill-rule="evenodd"></path></svg>