<svg xmlns="http://www.w3.org/2000/svg" width="24" height="24" viewBox="0 0 24 24" fill="none" stroke="currentColor" stroke-width="2" stroke-linecap="round" stroke-linejoin="round" class="icon icon-tabler icons-tabler-outline icon-tabler-home-ribbon"><path d="M11.620 2.046 C 11.382 2.168,2.155 11.405,2.039 11.637 C 1.830 12.056,2.036 12.589,2.514 12.871 C 2.693 12.976,2.726 12.981,3.348 12.993 L 3.997 13.007 4.009 16.293 L 4.021 19.580 4.114 19.860 C 4.442 20.839,5.162 21.559,6.140 21.885 L 6.420 21.979 9.309 21.991 C 11.224 21.999,12.251 21.989,12.353 21.962 C 12.583 21.900,12.768 21.759,12.880 21.558 C 12.967 21.402,12.980 21.332,12.979 21.000 C 12.978 20.567,12.898 20.355,12.678 20.199 C 12.430 20.022,12.256 20.000,11.094 20.000 L 10.000 20.000 10.000 17.447 C 10.000 14.538,9.993 14.614,10.303 14.303 C 10.578 14.028,10.718 14.000,11.800 14.000 C 12.829 14.000,13.020 13.967,13.229 13.751 C 13.418 13.556,13.486 13.355,13.486 12.997 C 13.486 12.483,13.302 12.192,12.893 12.060 C 12.713 12.001,12.536 11.995,11.573 12.009 C 10.532 12.025,10.439 12.033,10.139 12.124 C 9.188 12.416,8.442 13.158,8.115 14.140 L 8.021 14.420 8.009 17.213 L 7.996 20.007 7.348 19.993 C 6.728 19.981,6.692 19.975,6.516 19.872 C 6.328 19.761,6.158 19.572,6.070 19.373 C 6.032 19.286,6.015 18.375,6.000 15.440 L 5.980 11.620 5.890 11.451 C 5.803 11.289,5.556 11.080,5.451 11.080 C 5.423 11.080,5.400 11.066,5.400 11.050 C 5.400 11.033,6.885 9.535,8.700 7.720 L 12.000 4.421 15.730 8.146 C 18.380 10.794,19.511 11.898,19.637 11.961 C 19.990 12.137,20.355 12.048,20.701 11.701 C 21.047 11.355,21.136 10.990,20.961 10.637 C 20.839 10.394,12.615 2.165,12.372 2.044 C 12.151 1.934,11.836 1.935,11.620 2.046 M15.614 14.057 C 15.377 14.131,15.212 14.261,15.109 14.453 L 15.020 14.620 15.009 18.377 C 14.997 22.586,14.982 22.352,15.287 22.698 C 15.566 23.016,15.887 23.113,16.240 22.986 C 16.318 22.959,16.851 22.653,17.427 22.308 C 18.002 21.963,18.482 21.680,18.494 21.680 C 18.505 21.680,18.952 21.944,19.487 22.266 C 20.022 22.589,20.546 22.886,20.650 22.926 C 21.125 23.110,21.660 22.950,21.880 22.558 L 21.980 22.380 21.980 18.500 L 21.980 14.620 21.891 14.453 C 21.785 14.256,21.622 14.131,21.371 14.055 C 21.110 13.977,15.865 13.979,15.614 14.057 M20.000 18.119 L 20.000 20.238 19.537 19.958 C 18.833 19.533,18.772 19.506,18.500 19.506 C 18.228 19.506,18.167 19.533,17.463 19.958 L 17.000 20.238 17.000 18.119 L 17.000 16.000 18.500 16.000 L 20.000 16.000 20.000 18.119 " stroke="none" fill="black" fill-rule="evenodd"></path></svg>