<svg xmlns="http://www.w3.org/2000/svg" width="24" height="24" viewBox="0 0 24 24" fill="none" stroke="currentColor" stroke-width="2" stroke-linecap="round" stroke-linejoin="round" class="icon icon-tabler icons-tabler-outline icon-tabler-guitar-pick"><path d="M10.780 2.024 C 8.982 2.116,7.777 2.340,6.630 2.796 C 5.032 3.431,3.850 4.558,3.359 5.915 C 3.077 6.694,2.977 7.398,3.013 8.357 C 3.065 9.731,3.311 10.970,3.859 12.620 C 4.745 15.284,5.918 17.526,7.344 19.276 C 7.770 19.799,8.838 20.861,9.178 21.100 C 9.507 21.331,10.117 21.637,10.480 21.753 C 11.006 21.922,11.396 21.980,12.000 21.980 C 12.840 21.980,13.422 21.846,14.162 21.483 C 14.684 21.227,15.016 20.982,15.575 20.440 C 18.182 17.916,20.317 13.708,20.841 10.060 C 21.262 7.133,20.843 5.423,19.364 4.031 C 18.208 2.943,16.448 2.286,14.140 2.081 C 13.654 2.037,11.296 1.998,10.780 2.024 M13.400 4.041 C 14.310 4.093,14.976 4.179,15.554 4.320 C 17.490 4.794,18.541 5.646,18.889 7.025 C 18.967 7.333,18.978 7.480,18.976 8.140 C 18.972 9.206,18.852 10.099,18.558 11.235 C 17.914 13.724,16.544 16.352,14.919 18.220 C 14.340 18.885,13.698 19.480,13.380 19.646 C 12.881 19.907,12.573 19.980,11.980 19.977 C 11.502 19.975,11.430 19.965,11.086 19.847 C 10.597 19.679,10.266 19.459,9.789 18.983 C 8.551 17.747,7.603 16.348,6.739 14.480 C 5.360 11.496,4.733 8.603,5.120 7.005 C 5.551 5.226,7.377 4.221,10.500 4.044 C 11.325 3.997,12.603 3.996,13.400 4.041 " stroke="none" fill="black" fill-rule="evenodd"></path></svg>