<svg xmlns="http://www.w3.org/2000/svg" width="24" height="24" viewBox="0 0 24 24" fill="none" stroke="currentColor" stroke-width="2" stroke-linecap="round" stroke-linejoin="round" class="icon icon-tabler icons-tabler-outline icon-tabler-route-off"><path d="M2.626 2.045 C 2.257 2.239,1.951 2.673,1.951 3.000 C 1.951 3.335,2.054 3.464,3.404 4.821 L 4.679 6.102 4.522 6.402 C 3.233 8.862,4.443 11.873,7.080 12.767 C 7.698 12.977,7.972 13.000,9.860 13.000 L 11.580 13.000 14.080 15.500 L 16.580 18.000 14.196 18.000 C 11.653 18.000,11.595 18.004,11.322 18.199 C 11.100 18.357,11.020 18.568,11.020 19.000 C 11.020 19.331,11.033 19.403,11.120 19.558 C 11.230 19.755,11.414 19.898,11.635 19.959 C 11.834 20.014,16.751 20.014,17.132 19.958 C 17.291 19.936,17.605 19.860,17.831 19.791 L 18.243 19.666 19.351 20.768 C 20.070 21.483,20.522 21.902,20.637 21.960 C 20.989 22.137,21.354 22.048,21.701 21.701 C 22.048 21.355,22.137 20.990,21.961 20.637 C 21.885 20.486,18.837 17.395,12.747 11.293 C 8.533 7.070,3.506 2.111,3.372 2.044 C 3.152 1.934,2.835 1.935,2.626 2.045 M17.499 2.040 C 16.363 2.246,15.460 3.049,15.114 4.160 C 14.979 4.594,14.979 5.406,15.114 5.840 C 15.421 6.826,16.174 7.579,17.160 7.886 C 17.594 8.021,18.406 8.021,18.840 7.886 C 19.826 7.579,20.579 6.826,20.886 5.840 C 21.021 5.406,21.021 4.594,20.886 4.160 C 20.581 3.179,19.810 2.407,18.861 2.129 C 18.500 2.023,17.832 1.980,17.499 2.040 M8.180 4.039 C 7.715 4.159,7.514 4.447,7.512 4.997 C 7.510 5.348,7.582 5.556,7.771 5.751 C 8.005 5.993,8.076 6.000,10.257 6.000 C 11.449 6.000,12.277 5.984,12.365 5.959 C 12.586 5.898,12.770 5.755,12.880 5.558 C 12.967 5.402,12.980 5.332,12.979 5.000 C 12.978 4.567,12.898 4.355,12.678 4.199 C 12.409 4.007,12.317 4.000,10.244 4.004 C 9.175 4.006,8.246 4.022,8.180 4.039 M18.310 4.061 C 18.688 4.173,19.000 4.598,19.000 5.001 C 19.000 5.331,18.784 5.696,18.484 5.872 C 18.328 5.963,18.254 5.980,18.000 5.980 C 17.746 5.980,17.672 5.963,17.516 5.872 C 16.935 5.530,16.833 4.774,17.304 4.303 C 17.583 4.024,17.916 3.944,18.310 4.061 M8.901 10.991 C 8.412 10.999,8.171 10.986,7.972 10.939 C 7.432 10.814,6.828 10.439,6.540 10.049 C 6.048 9.386,5.888 8.556,6.106 7.805 L 6.169 7.589 7.865 9.285 L 9.560 10.980 8.901 10.991 M15.614 11.057 C 15.377 11.132,15.212 11.261,15.110 11.453 C 14.991 11.679,14.982 12.305,15.096 12.520 C 15.300 12.907,15.447 12.966,16.300 13.001 C 16.881 13.025,17.023 13.044,17.273 13.132 C 18.059 13.406,18.634 13.989,18.892 14.773 C 18.959 14.979,18.973 15.131,18.976 15.680 C 18.980 16.307,18.985 16.349,19.081 16.520 C 19.225 16.779,19.503 16.921,19.922 16.950 C 20.306 16.976,20.537 16.903,20.717 16.697 C 20.922 16.464,20.979 16.190,20.975 15.460 C 20.973 14.907,20.958 14.768,20.870 14.437 C 20.634 13.551,20.306 12.980,19.663 12.337 C 18.718 11.393,17.692 10.995,16.220 11.003 C 15.978 11.004,15.705 11.029,15.614 11.057 M5.499 16.040 C 4.363 16.246,3.460 17.049,3.114 18.160 C 2.979 18.594,2.979 19.406,3.114 19.840 C 3.421 20.826,4.174 21.579,5.160 21.886 C 5.412 21.964,5.547 21.979,6.000 21.979 C 6.453 21.979,6.588 21.964,6.840 21.886 C 7.826 21.579,8.579 20.826,8.886 19.840 C 9.021 19.406,9.021 18.594,8.886 18.160 C 8.581 17.179,7.810 16.407,6.861 16.129 C 6.500 16.023,5.832 15.980,5.499 16.040 M6.310 18.061 C 6.688 18.173,7.000 18.598,7.000 19.001 C 7.000 19.331,6.784 19.696,6.484 19.872 C 6.328 19.963,6.254 19.980,6.000 19.980 C 5.746 19.980,5.672 19.963,5.516 19.872 C 4.935 19.530,4.833 18.774,5.304 18.303 C 5.583 18.024,5.916 17.944,6.310 18.061 " stroke="none" fill="black" fill-rule="evenodd"></path></svg>