<svg xmlns="http://www.w3.org/2000/svg" width="24" height="24" viewBox="0 0 24 24" fill="none" stroke="currentColor" stroke-width="2" stroke-linecap="round" stroke-linejoin="round" class="icon icon-tabler icons-tabler-outline icon-tabler-panorama-vertical-off"><path d="M2.626 2.045 C 2.420 2.154,2.146 2.433,2.038 2.644 C 1.924 2.868,1.924 3.133,2.040 3.363 C 2.100 3.482,2.641 4.054,3.707 5.124 L 5.285 6.707 5.383 7.084 C 5.606 7.940,5.806 9.076,5.927 10.180 C 5.998 10.825,5.998 13.177,5.927 13.820 C 5.732 15.597,5.429 16.957,4.838 18.720 C 4.546 19.592,4.520 19.696,4.520 19.991 C 4.520 20.920,5.138 21.703,6.058 21.939 C 6.267 21.992,7.012 22.000,12.011 22.000 C 18.354 22.000,18.043 22.013,18.506 21.735 C 18.808 21.555,19.050 21.318,19.229 21.029 L 19.372 20.798 19.916 21.333 C 20.215 21.628,20.540 21.909,20.637 21.959 C 20.988 22.137,21.353 22.049,21.701 21.701 C 22.048 21.354,22.137 20.989,21.960 20.637 C 21.900 20.518,21.347 19.934,20.257 18.840 C 16.247 14.814,3.650 2.236,3.560 2.168 C 3.264 1.942,2.910 1.895,2.626 2.045 M6.614 2.057 C 6.377 2.131,6.212 2.261,6.109 2.453 C 6.035 2.592,6.020 2.684,6.020 3.000 C 6.020 3.331,6.033 3.403,6.120 3.558 C 6.230 3.755,6.414 3.898,6.635 3.959 C 6.729 3.985,8.677 4.000,12.154 4.000 C 16.437 4.000,17.525 4.010,17.509 4.050 C 16.914 5.604,16.431 7.505,16.206 9.180 C 16.069 10.201,16.028 10.857,16.028 12.040 C 16.028 13.346,16.055 13.520,16.300 13.772 C 16.700 14.184,17.627 14.089,17.910 13.607 L 18.020 13.420 18.028 12.260 C 18.036 11.007,18.082 10.259,18.203 9.380 C 18.405 7.911,18.730 6.601,19.284 5.020 C 19.597 4.124,19.599 3.670,19.292 3.064 C 19.153 2.790,18.790 2.421,18.500 2.259 C 18.017 1.988,18.322 2.001,12.260 2.003 C 7.878 2.005,6.747 2.016,6.614 2.057 M17.224 19.131 C 17.359 19.532,17.482 19.892,17.499 19.930 C 17.527 19.996,17.251 20.000,12.024 20.000 C 8.997 20.000,6.520 19.992,6.520 19.983 C 6.520 19.974,6.593 19.763,6.682 19.513 C 7.285 17.831,7.700 16.024,7.900 14.215 C 8.052 12.832,8.032 10.538,7.857 9.400 C 7.837 9.275,8.333 9.758,12.408 13.831 L 16.980 18.402 17.224 19.131 " stroke="none" fill="black" fill-rule="evenodd"></path></svg>