<svg xmlns="http://www.w3.org/2000/svg" width="24" height="24" viewBox="0 0 24 24" fill="none" stroke="currentColor" stroke-width="2" stroke-linecap="round" stroke-linejoin="round" class="icon icon-tabler icons-tabler-outline icon-tabler-brand-alpine-js"><path d="M7.140 6.039 C 7.037 6.090,6.101 6.999,4.515 8.589 C 1.927 11.182,1.952 11.154,1.952 11.500 C 1.952 11.845,1.930 11.820,4.475 14.373 C 5.854 15.757,6.969 16.843,7.060 16.893 L 7.220 16.980 11.840 17.005 C 14.381 17.019,16.505 17.032,16.560 17.035 C 16.615 17.038,16.764 17.002,16.892 16.955 C 17.066 16.890,17.161 16.823,17.272 16.686 C 17.353 16.586,18.439 15.477,19.685 14.222 C 22.059 11.831,22.048 11.843,22.048 11.500 C 22.048 11.154,22.073 11.182,19.485 8.589 C 17.841 6.940,16.966 6.092,16.857 6.039 C 16.662 5.944,16.373 5.937,16.169 6.022 C 16.066 6.064,15.392 6.711,14.010 8.091 L 12.000 10.099 9.990 8.091 C 8.608 6.711,7.934 6.064,7.831 6.022 C 7.626 5.936,7.333 5.944,7.140 6.039 M10.820 11.720 L 14.099 15.000 11.000 15.000 L 7.900 15.000 6.170 13.270 C 5.219 12.319,4.440 11.522,4.440 11.500 C 4.440 11.448,7.447 8.440,7.500 8.440 C 7.522 8.440,9.016 9.916,10.820 11.720 M18.050 9.950 C 18.880 10.780,19.560 11.478,19.560 11.500 C 19.560 11.552,16.553 14.560,16.500 14.560 C 16.448 14.560,13.440 11.553,13.440 11.500 C 13.440 11.448,16.447 8.440,16.500 8.440 C 16.522 8.440,17.219 9.119,18.050 9.950 " stroke="none" fill="black" fill-rule="evenodd"></path></svg>