<svg xmlns="http://www.w3.org/2000/svg" width="24" height="24" viewBox="0 0 24 24" fill="none" stroke="currentColor" stroke-width="2" stroke-linecap="round" stroke-linejoin="round" class="icon icon-tabler icons-tabler-outline icon-tabler-briefcase-off"><path d="M2.626 2.045 C 2.257 2.239,1.951 2.673,1.951 3.000 C 1.951 3.334,2.056 3.466,3.364 4.781 L 4.598 6.021 4.277 6.093 C 3.299 6.313,2.454 7.114,2.116 8.140 C 2.025 8.416,2.023 8.453,2.002 10.760 C 1.990 12.047,1.990 14.333,2.001 15.840 C 2.023 18.568,2.023 18.581,2.115 18.860 C 2.437 19.835,3.159 20.557,4.140 20.886 L 4.420 20.980 11.996 20.989 L 19.572 20.999 20.018 21.434 C 20.263 21.674,20.543 21.910,20.639 21.960 C 20.988 22.137,21.354 22.048,21.701 21.701 C 22.115 21.287,22.159 20.872,21.833 20.440 C 21.778 20.367,15.931 14.481,12.760 11.305 C 12.705 11.250,11.580 10.126,10.260 8.806 C 8.940 7.486,7.815 6.361,7.760 6.305 C 7.705 6.249,6.733 5.287,5.600 4.167 C 4.268 2.849,3.480 2.099,3.372 2.045 C 3.152 1.934,2.835 1.934,2.626 2.045 M9.540 2.043 C 8.901 2.136,8.399 2.401,7.880 2.920 C 7.577 3.223,7.468 3.365,7.342 3.620 C 7.080 4.150,7.099 4.544,7.400 4.816 C 7.699 5.085,8.103 5.230,8.424 5.182 C 8.660 5.146,8.911 4.922,9.088 4.591 C 9.157 4.461,9.278 4.302,9.355 4.238 C 9.643 4.001,9.652 4.000,11.980 4.000 C 14.414 4.000,14.391 3.998,14.697 4.303 C 14.948 4.554,15.000 4.751,15.000 5.447 L 15.000 6.000 12.906 6.000 C 10.674 6.000,10.592 6.006,10.322 6.199 C 10.100 6.357,10.020 6.568,10.020 7.000 C 10.020 7.331,10.033 7.403,10.120 7.558 C 10.230 7.755,10.414 7.898,10.635 7.959 C 10.728 7.985,12.277 8.000,14.943 8.000 C 19.647 8.000,19.376 7.983,19.697 8.303 C 19.997 8.603,20.000 8.629,20.000 10.640 L 20.000 12.386 19.410 12.631 C 19.085 12.765,18.559 12.968,18.240 13.082 C 17.921 13.195,17.601 13.324,17.529 13.368 C 17.215 13.559,17.094 13.882,17.181 14.297 C 17.311 14.920,17.677 15.248,18.167 15.183 C 18.349 15.159,19.064 14.922,19.730 14.665 L 20.000 14.561 20.000 15.890 C 20.000 16.658,20.017 17.281,20.041 17.365 C 20.148 17.750,20.437 17.962,20.896 17.991 C 21.381 18.022,21.699 17.882,21.880 17.558 L 21.980 17.380 22.000 15.240 C 22.011 14.063,22.010 12.047,21.998 10.760 C 21.977 8.455,21.975 8.416,21.884 8.140 C 21.563 7.163,20.814 6.417,19.861 6.124 C 19.555 6.030,19.482 6.025,18.275 6.009 L 17.009 5.993 16.990 5.207 C 16.974 4.536,16.958 4.379,16.882 4.140 C 16.573 3.174,15.820 2.422,14.861 2.122 L 14.540 2.022 12.160 2.015 C 10.851 2.011,9.672 2.024,9.540 2.043 M8.850 10.270 C 10.098 11.518,11.120 12.560,11.120 12.585 C 11.120 12.610,11.194 12.691,11.284 12.765 C 11.374 12.839,11.726 13.170,12.066 13.500 L 12.684 14.100 12.452 14.129 C 12.195 14.161,11.310 14.137,10.480 14.075 C 8.567 13.933,6.517 13.434,4.650 12.657 L 4.000 12.386 4.000 10.640 C 4.000 8.628,4.003 8.603,4.304 8.303 C 4.573 8.033,4.701 8.006,5.720 8.003 L 6.580 8.000 8.850 10.270 M5.343 15.045 C 8.145 15.990,11.121 16.327,14.096 16.037 L 14.571 15.991 16.075 17.496 L 17.580 19.001 11.140 18.990 L 4.700 18.980 4.516 18.872 C 4.415 18.813,4.284 18.700,4.225 18.623 C 4.003 18.332,4.000 18.303,4.000 16.355 L 4.000 14.561 4.270 14.667 C 4.419 14.726,4.901 14.896,5.343 15.045 " stroke="none" fill="black" fill-rule="evenodd"></path></svg>