<svg xmlns="http://www.w3.org/2000/svg" width="24" height="24" viewBox="0 0 24 24" fill="none" stroke="currentColor" stroke-width="2" stroke-linecap="round" stroke-linejoin="round" class="icon icon-tabler icons-tabler-outline icon-tabler-shovel-pitchforks"><path d="M4.614 2.057 C 4.377 2.131,4.212 2.261,4.109 2.453 C 4.035 2.592,4.020 2.684,4.020 3.000 C 4.020 3.331,4.033 3.403,4.120 3.558 C 4.230 3.755,4.414 3.898,4.635 3.959 C 4.715 3.981,5.054 4.000,5.390 4.000 L 6.000 4.000 6.000 8.998 L 6.000 13.996 4.829 14.008 C 3.662 14.020,3.657 14.020,3.459 14.122 C 3.245 14.233,3.105 14.404,3.041 14.635 C 3.016 14.722,3.000 15.496,3.000 16.574 C 3.000 18.229,3.006 18.399,3.083 18.773 C 3.357 20.118,4.249 21.195,5.512 21.704 C 7.560 22.529,9.874 21.540,10.705 19.484 C 10.985 18.791,11.005 18.582,10.992 16.485 C 10.980 14.644,10.979 14.618,10.891 14.453 C 10.842 14.362,10.746 14.247,10.678 14.199 C 10.430 14.022,10.256 14.000,9.094 14.000 L 8.000 14.000 8.000 9.000 L 8.000 4.000 8.610 4.000 C 8.945 4.000,9.285 3.981,9.365 3.959 C 9.586 3.898,9.770 3.755,9.880 3.558 C 9.967 3.402,9.980 3.332,9.979 3.000 C 9.978 2.567,9.898 2.355,9.678 2.199 C 9.406 2.005,9.336 2.000,6.984 2.003 C 5.293 2.005,4.741 2.017,4.614 2.057 M16.614 2.057 C 16.377 2.131,16.212 2.261,16.109 2.453 L 16.020 2.620 16.000 8.373 L 15.980 14.126 15.720 14.217 C 14.350 14.697,13.370 15.816,13.083 17.227 C 13.006 17.601,13.000 17.771,13.000 19.426 C 13.000 20.504,13.016 21.278,13.041 21.365 C 13.148 21.750,13.437 21.962,13.896 21.991 C 14.381 22.022,14.699 21.882,14.880 21.558 L 14.980 21.380 15.002 19.480 C 15.027 17.361,15.024 17.382,15.313 16.937 C 15.466 16.701,15.751 16.411,15.914 16.323 L 16.000 16.277 16.000 18.749 C 16.000 20.281,16.016 21.275,16.041 21.365 C 16.148 21.750,16.437 21.962,16.896 21.991 C 17.381 22.022,17.699 21.882,17.880 21.558 L 17.980 21.380 18.000 18.827 L 18.020 16.274 18.181 16.391 C 18.396 16.547,18.638 16.826,18.773 17.075 C 18.979 17.453,18.999 17.661,19.000 19.520 C 19.000 20.533,19.017 21.278,19.041 21.365 C 19.148 21.750,19.437 21.962,19.896 21.991 C 20.381 22.022,20.699 21.882,20.880 21.558 L 20.980 21.380 20.992 19.515 C 21.003 17.771,20.998 17.625,20.922 17.252 C 20.630 15.816,19.658 14.700,18.280 14.217 L 18.020 14.126 18.000 8.373 L 17.980 2.620 17.891 2.453 C 17.842 2.362,17.746 2.247,17.678 2.199 C 17.414 2.010,16.957 1.950,16.614 2.057 M8.999 17.090 C 8.999 18.293,8.964 18.571,8.772 18.931 C 8.625 19.208,8.191 19.643,7.930 19.775 C 7.346 20.071,6.658 20.073,6.083 19.781 C 5.816 19.646,5.449 19.297,5.281 19.017 C 5.035 18.609,5.005 18.405,5.002 17.130 L 5.000 16.000 7.000 16.000 L 9.000 16.000 8.999 17.090 " stroke="none" fill="black" fill-rule="evenodd"></path></svg>