<svg xmlns="http://www.w3.org/2000/svg" width="24" height="24" viewBox="0 0 24 24" fill="none" stroke="currentColor" stroke-width="2" stroke-linecap="round" stroke-linejoin="round" class="icon icon-tabler icons-tabler-outline icon-tabler-device-sim-2"><path d="M5.477 2.073 C 4.805 2.249,4.238 2.823,4.060 3.508 C 4.008 3.707,4.000 4.805,4.000 12.000 C 4.000 21.017,3.986 20.458,4.225 20.930 C 4.361 21.199,4.801 21.639,5.070 21.775 C 5.538 22.012,5.172 22.000,12.000 22.000 C 18.828 22.000,18.462 22.012,18.930 21.775 C 19.196 21.640,19.638 21.200,19.771 20.937 C 20.013 20.461,20.000 20.854,19.999 13.774 C 19.998 7.367,19.997 7.298,19.917 7.120 C 19.856 6.982,19.280 6.383,17.468 4.567 C 16.134 3.230,15.030 2.157,14.940 2.107 L 14.780 2.020 10.260 2.012 C 6.091 2.005,5.720 2.009,5.477 2.073 M16.050 5.950 L 18.000 7.900 18.000 13.950 L 18.000 20.000 12.000 20.000 L 6.000 20.000 6.000 12.000 L 6.000 4.000 10.050 4.000 L 14.100 4.000 16.050 5.950 M9.614 8.057 C 9.377 8.131,9.212 8.261,9.109 8.453 C 9.035 8.592,9.020 8.684,9.020 9.000 C 9.020 9.331,9.033 9.403,9.120 9.558 C 9.230 9.755,9.414 9.898,9.635 9.959 C 9.721 9.983,10.435 10.000,11.390 10.000 L 13.000 10.000 13.000 11.000 L 13.000 12.000 11.870 12.002 C 10.595 12.005,10.391 12.035,9.983 12.281 C 9.703 12.449,9.354 12.816,9.219 13.083 C 9.019 13.478,9.000 13.640,9.000 15.000 C 9.000 16.368,9.018 16.521,9.225 16.930 C 9.361 17.199,9.801 17.639,10.070 17.775 C 10.497 17.991,10.591 18.000,12.478 18.000 C 13.522 18.000,14.278 17.983,14.365 17.959 C 14.586 17.898,14.770 17.755,14.880 17.558 C 14.967 17.402,14.980 17.332,14.979 17.000 C 14.978 16.567,14.898 16.355,14.678 16.199 C 14.416 16.012,14.290 16.000,12.594 16.000 L 11.000 16.000 11.000 15.000 L 11.000 14.000 12.132 14.000 C 13.358 14.000,13.528 13.979,13.930 13.775 C 14.196 13.640,14.638 13.200,14.771 12.937 C 14.979 12.527,15.000 12.352,14.999 11.014 C 14.999 9.682,14.974 9.463,14.781 9.083 C 14.646 8.816,14.297 8.449,14.017 8.281 C 13.578 8.017,13.468 8.005,11.520 8.005 C 10.204 8.005,9.739 8.018,9.614 8.057 " stroke="none" fill="black" fill-rule="evenodd"></path></svg>