<svg xmlns="http://www.w3.org/2000/svg" width="24" height="24" viewBox="0 0 24 24" fill="none" stroke="currentColor" stroke-width="2" stroke-linecap="round" stroke-linejoin="round" class="icon icon-tabler icons-tabler-outline icon-tabler-meteor-off"><path d="M2.626 2.045 C 2.420 2.154,2.146 2.433,2.038 2.644 C 1.924 2.868,1.924 3.132,2.040 3.363 C 2.101 3.485,2.751 4.164,4.122 5.540 L 6.116 7.540 5.335 8.200 C 4.484 8.918,4.012 9.369,3.670 9.789 C 2.451 11.289,1.837 13.342,2.042 15.232 C 2.229 16.954,2.925 18.450,4.118 19.692 C 5.251 20.873,6.620 21.594,8.320 21.906 C 8.903 22.013,10.152 22.005,10.760 21.890 C 11.681 21.716,12.583 21.390,13.276 20.980 C 13.970 20.570,14.379 20.222,15.498 19.089 L 16.576 17.998 18.518 19.935 C 19.852 21.265,20.516 21.899,20.637 21.960 C 20.989 22.137,21.354 22.048,21.701 21.701 C 22.047 21.355,22.136 20.990,21.961 20.637 C 21.839 20.392,3.616 2.165,3.372 2.044 C 3.152 1.934,2.834 1.935,2.626 2.045 M12.654 2.042 C 12.510 2.114,9.454 4.668,9.027 5.074 C 8.596 5.483,8.597 5.966,9.028 6.444 C 9.350 6.800,9.728 6.901,10.088 6.726 C 10.183 6.680,10.521 6.419,10.840 6.146 C 11.159 5.873,11.426 5.655,11.433 5.661 C 11.440 5.667,11.344 6.182,11.219 6.806 C 10.959 8.100,10.949 8.318,11.130 8.591 C 11.327 8.889,11.903 9.076,12.264 8.960 C 12.350 8.932,13.725 8.185,15.320 7.300 C 18.819 5.359,18.418 5.572,18.358 5.687 C 18.331 5.738,17.581 7.091,16.692 8.692 C 15.802 10.294,15.049 11.678,15.017 11.767 C 14.945 11.972,14.944 12.205,15.014 12.371 C 15.086 12.542,15.337 12.781,15.560 12.891 C 15.733 12.977,15.795 12.981,17.171 13.000 L 18.601 13.020 18.117 13.533 C 17.610 14.071,17.482 14.273,17.481 14.542 C 17.479 14.886,17.812 15.324,18.221 15.516 C 18.512 15.653,18.765 15.614,19.062 15.385 C 19.324 15.183,21.771 12.650,21.880 12.467 C 21.966 12.323,21.980 12.253,21.978 11.960 C 21.976 11.570,21.889 11.349,21.678 11.199 C 21.413 11.010,21.300 11.000,19.454 11.000 C 18.500 11.000,17.720 10.992,17.720 10.982 C 17.720 10.972,18.656 9.278,19.801 7.219 C 20.945 5.159,21.908 3.410,21.941 3.332 C 22.033 3.112,22.016 2.828,21.896 2.575 C 21.653 2.061,21.234 1.852,20.775 2.015 C 20.690 2.045,19.013 2.963,17.048 4.055 C 15.084 5.147,13.462 6.040,13.444 6.040 C 13.426 6.040,13.544 5.379,13.706 4.571 C 13.868 3.764,14.000 3.033,14.000 2.949 C 14.000 2.618,13.674 2.163,13.331 2.015 C 13.143 1.935,12.848 1.946,12.654 2.042 M9.271 11.009 C 8.382 11.098,7.661 11.420,7.067 11.995 C 6.626 12.420,6.324 12.922,6.133 13.548 C 6.038 13.863,6.026 13.963,6.026 14.500 C 6.026 15.037,6.038 15.137,6.133 15.452 C 6.581 16.920,7.808 17.902,9.300 17.987 C 10.710 18.068,12.006 17.304,12.655 16.012 C 12.810 15.702,12.957 15.154,12.986 14.771 L 13.012 14.433 14.083 15.503 L 15.155 16.574 14.187 17.572 C 12.846 18.957,12.355 19.320,11.348 19.675 C 10.027 20.141,8.611 20.089,7.288 19.526 C 5.727 18.862,4.537 17.407,4.143 15.680 C 3.805 14.202,4.139 12.560,5.034 11.300 C 5.343 10.865,5.618 10.591,6.557 9.789 L 7.533 8.954 8.547 9.967 L 9.561 10.980 9.271 11.009 M10.119 13.143 C 10.417 13.279,10.727 13.592,10.865 13.896 C 10.960 14.105,10.976 14.192,10.976 14.500 C 10.976 14.808,10.960 14.895,10.865 15.104 C 10.725 15.413,10.417 15.720,10.100 15.868 C 9.893 15.965,9.810 15.980,9.500 15.980 C 9.190 15.980,9.107 15.965,8.900 15.868 C 8.583 15.720,8.275 15.413,8.135 15.104 C 8.040 14.896,8.024 14.808,8.024 14.500 C 8.023 14.191,8.039 14.106,8.134 13.900 C 8.327 13.478,8.749 13.129,9.174 13.039 C 9.441 12.982,9.870 13.030,10.119 13.143 " stroke="none" fill="black" fill-rule="evenodd"></path></svg>