<svg xmlns="http://www.w3.org/2000/svg" width="24" height="24" viewBox="0 0 24 24" fill="none" stroke="currentColor" stroke-width="2" stroke-linecap="round" stroke-linejoin="round" class="icon icon-tabler icons-tabler-outline icon-tabler-login-2"><path d="M10.499 3.042 C 9.388 3.232,8.479 4.033,8.116 5.140 C 8.029 5.405,8.024 5.492,8.009 6.804 C 7.999 7.715,8.008 8.243,8.037 8.348 C 8.144 8.748,8.430 8.961,8.896 8.991 C 9.381 9.022,9.699 8.882,9.880 8.558 C 9.980 8.381,9.980 8.376,10.001 7.060 C 10.024 5.577,10.025 5.571,10.321 5.283 C 10.625 4.988,10.453 5.000,14.500 5.000 C 18.583 5.000,18.379 4.985,18.697 5.303 C 19.023 5.629,19.000 5.126,19.000 12.001 C 19.000 17.059,18.991 18.139,18.945 18.290 C 18.872 18.533,18.707 18.740,18.484 18.872 L 18.300 18.980 14.500 18.980 L 10.700 18.980 10.516 18.872 C 10.327 18.761,10.157 18.570,10.071 18.373 C 10.037 18.295,10.015 17.854,10.001 16.940 C 9.981 15.665,9.977 15.614,9.889 15.450 C 9.724 15.140,9.329 14.970,8.874 15.011 C 8.431 15.051,8.138 15.276,8.037 15.652 C 8.008 15.757,7.999 16.285,8.009 17.196 C 8.024 18.508,8.029 18.595,8.116 18.860 C 8.438 19.842,9.183 20.581,10.160 20.886 L 10.460 20.980 14.500 20.980 L 18.540 20.980 18.840 20.886 C 19.827 20.578,20.578 19.827,20.886 18.840 L 20.980 18.540 20.980 12.000 L 20.980 5.460 20.886 5.160 C 20.581 4.182,19.831 3.427,18.861 3.121 L 18.540 3.020 14.620 3.014 C 12.464 3.011,10.609 3.024,10.499 3.042 M12.626 8.045 C 12.257 8.239,11.951 8.673,11.951 9.000 C 11.951 9.307,12.079 9.487,12.853 10.270 L 13.575 11.000 8.194 11.000 C 2.423 11.000,2.610 10.994,2.322 11.199 C 2.100 11.357,2.020 11.568,2.020 12.000 C 2.020 12.331,2.033 12.403,2.120 12.558 C 2.230 12.755,2.414 12.898,2.635 12.959 C 2.729 12.985,4.685 13.000,8.178 13.000 L 13.575 13.000 12.853 13.730 C 12.420 14.168,12.095 14.531,12.041 14.637 C 11.863 14.988,11.952 15.354,12.299 15.701 C 12.646 16.048,13.011 16.137,13.363 15.960 C 13.480 15.901,14.051 15.365,15.062 14.365 C 15.899 13.537,16.634 12.826,16.697 12.784 C 16.765 12.739,16.858 12.604,16.930 12.445 C 17.084 12.104,17.088 11.878,16.941 11.609 C 16.797 11.345,13.614 8.166,13.372 8.044 C 13.152 7.934,12.835 7.935,12.626 8.045 " stroke="none" fill="black" fill-rule="evenodd"></path></svg>