<svg xmlns="http://www.w3.org/2000/svg" width="24" height="24" viewBox="0 0 24 24" fill="none" stroke="currentColor" stroke-width="2" stroke-linecap="round" stroke-linejoin="round" class="icon icon-tabler icons-tabler-outline icon-tabler-pointer-plus"><path d="M3.497 3.075 C 3.223 3.242,3.000 3.661,3.000 4.006 C 3.000 4.217,6.978 18.009,7.128 18.318 C 7.302 18.677,7.698 19.065,8.083 19.255 C 8.769 19.593,9.494 19.579,10.148 19.216 C 10.480 19.031,10.733 18.778,11.039 18.320 C 11.179 18.111,11.535 17.584,11.830 17.149 L 12.366 16.358 12.661 16.634 C 13.013 16.962,13.190 17.055,13.460 17.055 C 13.695 17.055,13.860 16.977,14.107 16.749 C 14.481 16.404,14.593 16.017,14.422 15.660 C 14.378 15.567,14.027 15.178,13.590 14.735 C 12.733 13.867,12.548 13.739,12.161 13.744 C 11.885 13.748,11.729 13.827,11.523 14.070 C 11.434 14.174,10.875 14.979,10.281 15.859 C 9.688 16.738,9.166 17.471,9.123 17.487 C 9.071 17.506,9.017 17.492,8.966 17.448 C 8.908 17.398,8.439 15.819,7.182 11.445 C 6.244 8.181,5.484 5.503,5.494 5.493 C 5.509 5.478,16.768 8.696,17.288 8.864 C 17.481 8.927,17.548 9.016,17.501 9.150 C 17.488 9.189,16.745 9.706,15.850 10.300 C 14.955 10.894,14.145 11.457,14.049 11.552 C 13.841 11.756,13.722 12.000,13.721 12.222 C 13.719 12.526,13.868 12.731,14.669 13.528 C 15.461 14.315,15.631 14.437,15.942 14.439 C 16.405 14.442,16.996 13.854,16.999 13.390 C 17.000 13.173,16.868 12.922,16.595 12.624 L 16.356 12.363 17.548 11.568 C 18.866 10.689,19.050 10.527,19.288 10.035 C 19.597 9.398,19.601 8.791,19.302 8.138 C 19.085 7.665,18.561 7.181,18.091 7.019 C 18.008 6.991,14.835 6.075,11.040 4.984 C 3.576 2.838,3.795 2.893,3.497 3.075 M18.614 15.057 C 18.377 15.131,18.212 15.261,18.109 15.453 C 18.024 15.613,18.020 15.668,18.008 16.810 L 17.996 18.000 16.904 18.000 C 15.744 18.000,15.570 18.022,15.322 18.199 C 15.100 18.357,15.020 18.568,15.020 19.000 C 15.020 19.331,15.033 19.403,15.120 19.558 C 15.230 19.755,15.414 19.898,15.635 19.959 C 15.716 19.982,16.270 20.000,16.890 20.000 L 18.000 20.000 18.000 21.110 C 18.000 21.730,18.018 22.284,18.041 22.365 C 18.148 22.750,18.437 22.962,18.896 22.991 C 19.381 23.022,19.699 22.882,19.880 22.558 C 19.979 22.381,19.980 22.374,19.993 21.190 L 20.005 20.000 21.113 20.000 C 21.731 20.000,22.284 19.982,22.365 19.959 C 22.586 19.898,22.770 19.755,22.880 19.558 C 22.967 19.402,22.980 19.332,22.979 19.000 C 22.978 18.567,22.898 18.355,22.678 18.199 C 22.430 18.022,22.256 18.000,21.096 18.000 L 20.005 18.000 19.993 16.810 C 19.981 15.669,19.976 15.613,19.891 15.453 C 19.842 15.362,19.746 15.247,19.678 15.199 C 19.414 15.010,18.957 14.950,18.614 15.057 " stroke="none" fill="black" fill-rule="evenodd"></path></svg>