<svg xmlns="http://www.w3.org/2000/svg" width="24" height="24" viewBox="0 0 24 24" fill="none" stroke="currentColor" stroke-width="2" stroke-linecap="round" stroke-linejoin="round" class="icon icon-tabler icons-tabler-outline icon-tabler-chart-arcs-3"><path d="M11.649 2.036 C 11.263 2.136,11.039 2.438,11.009 2.900 C 10.979 3.370,11.119 3.698,11.421 3.868 C 11.591 3.963,11.668 3.975,12.565 4.038 C 14.004 4.140,15.283 4.578,16.460 5.372 C 18.329 6.631,19.535 8.538,19.906 10.820 C 19.993 11.354,20.002 12.522,19.924 13.060 C 19.655 14.914,18.847 16.500,17.527 17.767 C 15.955 19.277,13.878 20.070,11.720 19.987 C 10.563 19.942,9.577 19.698,8.523 19.196 C 8.019 18.957,7.715 18.770,7.157 18.355 C 6.671 17.996,6.516 17.920,6.260 17.920 C 6.011 17.920,5.837 18.001,5.619 18.219 C 5.273 18.565,5.155 18.996,5.318 19.317 C 5.417 19.510,5.568 19.662,5.958 19.958 C 7.302 20.982,8.870 21.636,10.620 21.904 C 11.289 22.006,12.714 22.008,13.360 21.908 C 15.918 21.509,18.072 20.318,19.636 18.440 C 20.880 16.945,21.584 15.375,21.906 13.380 C 22.006 12.759,22.007 11.280,21.908 10.640 C 21.468 7.793,19.996 5.399,17.697 3.791 C 16.403 2.885,14.783 2.268,13.220 2.085 C 12.705 2.025,11.803 1.997,11.649 2.036 M11.614 6.057 C 11.223 6.180,11.039 6.436,11.009 6.900 C 10.978 7.377,11.119 7.701,11.435 7.875 C 11.571 7.950,11.701 7.976,12.069 8.004 C 12.883 8.065,13.242 8.158,13.840 8.464 C 14.739 8.924,15.462 9.771,15.797 10.755 C 15.897 11.050,16.000 11.680,16.000 12.000 C 16.000 12.322,15.897 12.951,15.796 13.245 C 15.321 14.632,14.195 15.628,12.773 15.917 C 11.037 16.271,9.236 15.393,8.443 13.804 C 8.157 13.232,8.068 12.882,8.003 12.073 C 7.959 11.531,7.880 11.334,7.649 11.182 C 7.198 10.887,6.426 10.979,6.170 11.358 C 6.023 11.576,5.988 11.779,6.012 12.280 C 6.124 14.714,7.756 16.886,10.060 17.672 C 10.754 17.909,11.179 17.975,12.000 17.975 C 12.822 17.975,13.248 17.909,13.940 17.672 C 15.954 16.982,17.426 15.298,17.885 13.160 C 18.015 12.554,18.015 11.446,17.885 10.840 C 17.426 8.702,15.950 7.014,13.940 6.329 C 13.146 6.058,12.029 5.928,11.614 6.057 M11.477 10.073 C 10.806 10.249,10.238 10.823,10.060 11.508 C 9.941 11.962,10.003 12.492,10.225 12.930 C 10.361 13.199,10.801 13.639,11.070 13.775 C 11.659 14.073,12.341 14.073,12.930 13.775 C 13.196 13.640,13.638 13.200,13.771 12.937 C 13.994 12.498,14.052 12.007,13.940 11.529 C 13.858 11.182,13.720 10.927,13.465 10.653 C 13.074 10.232,12.560 10.005,12.000 10.005 C 11.857 10.005,11.622 10.036,11.477 10.073 " stroke="none" fill="black" fill-rule="evenodd"></path></svg>