<svg xmlns="http://www.w3.org/2000/svg" width="24" height="24" viewBox="0 0 24 24" fill="none" stroke="currentColor" stroke-width="2" stroke-linecap="round" stroke-linejoin="round" class="icon icon-tabler icons-tabler-outline icon-tabler-brand-kick"><path d="M3.614 3.057 C 3.377 3.131,3.212 3.261,3.109 3.453 L 3.020 3.620 3.010 11.914 C 3.003 17.391,3.013 20.260,3.040 20.358 C 3.100 20.584,3.243 20.769,3.442 20.880 L 3.620 20.980 6.412 20.991 C 8.226 20.998,9.257 20.988,9.356 20.961 C 9.584 20.900,9.768 20.758,9.880 20.558 L 9.980 20.380 9.992 18.690 L 10.004 17.000 10.499 17.000 L 10.993 17.000 11.007 17.690 C 11.019 18.339,11.026 18.391,11.120 18.558 C 11.230 18.755,11.414 18.898,11.635 18.959 C 11.715 18.981,12.053 19.000,12.387 19.000 L 12.993 19.000 13.007 19.690 C 13.019 20.339,13.026 20.391,13.120 20.558 C 13.230 20.755,13.414 20.898,13.635 20.959 C 13.832 21.014,20.168 21.014,20.365 20.959 C 20.586 20.898,20.770 20.755,20.880 20.558 L 20.980 20.380 20.980 18.000 L 20.980 15.620 20.891 15.453 C 20.701 15.097,20.423 15.000,19.598 15.000 L 19.008 15.000 18.993 14.310 C 18.979 13.694,18.968 13.602,18.890 13.453 C 18.702 13.097,18.424 13.000,17.594 13.000 L 17.000 13.000 17.000 12.000 L 17.000 11.000 17.610 11.000 C 17.945 11.000,18.285 10.981,18.365 10.959 C 18.586 10.898,18.770 10.755,18.880 10.558 C 18.974 10.391,18.981 10.338,18.994 9.690 L 19.008 9.000 19.614 9.000 C 19.947 9.000,20.285 8.981,20.365 8.959 C 20.586 8.898,20.770 8.755,20.880 8.558 L 20.980 8.380 20.980 6.000 L 20.980 3.620 20.891 3.453 C 20.785 3.256,20.622 3.131,20.371 3.055 C 20.100 2.974,13.900 2.974,13.629 3.055 C 13.378 3.131,13.215 3.256,13.109 3.453 C 13.029 3.603,13.019 3.689,13.007 4.310 L 12.993 5.000 12.403 5.000 C 11.577 5.000,11.299 5.097,11.109 5.453 C 11.029 5.603,11.019 5.689,11.007 6.310 L 10.993 7.000 10.499 7.000 L 10.004 7.000 9.992 5.310 C 9.980 3.651,9.978 3.617,9.891 3.453 C 9.785 3.256,9.622 3.131,9.371 3.055 C 9.110 2.977,3.865 2.979,3.614 3.057 M8.008 6.690 L 8.020 8.380 8.120 8.558 C 8.230 8.755,8.414 8.898,8.635 8.959 C 8.829 9.013,12.171 9.013,12.365 8.959 C 12.586 8.898,12.770 8.755,12.880 8.558 C 12.974 8.391,12.981 8.338,12.994 7.690 L 13.008 7.000 13.614 7.000 C 13.947 7.000,14.285 6.981,14.365 6.959 C 14.586 6.898,14.770 6.755,14.880 6.558 C 14.974 6.391,14.981 6.338,14.994 5.690 L 15.008 5.000 17.004 5.000 L 19.000 5.000 19.000 6.000 L 19.000 7.000 18.406 7.000 C 17.577 7.000,17.299 7.097,17.109 7.453 C 17.029 7.603,17.019 7.689,17.007 8.307 L 16.993 8.993 16.325 9.007 C 15.701 9.019,15.645 9.027,15.459 9.122 C 15.245 9.233,15.105 9.404,15.041 9.635 C 14.986 9.831,14.986 14.169,15.041 14.365 C 15.102 14.586,15.245 14.770,15.442 14.880 C 15.609 14.974,15.661 14.981,16.310 14.993 L 17.000 15.007 17.000 15.613 C 17.000 15.947,17.019 16.285,17.041 16.365 C 17.102 16.586,17.245 16.770,17.442 16.880 C 17.609 16.974,17.661 16.981,18.310 16.993 L 19.000 17.007 19.000 18.003 L 19.000 19.000 17.004 19.000 L 15.008 19.000 14.993 18.310 C 14.979 17.694,14.968 17.602,14.890 17.453 C 14.702 17.098,14.423 17.000,13.598 17.000 L 13.008 17.000 12.993 16.310 C 12.979 15.694,12.968 15.602,12.890 15.453 C 12.786 15.256,12.623 15.131,12.371 15.055 C 12.104 14.975,8.896 14.975,8.629 15.055 C 8.378 15.131,8.215 15.256,8.109 15.453 C 8.022 15.617,8.020 15.650,8.008 17.310 L 7.997 19.000 6.498 19.000 L 5.000 19.000 5.000 12.000 L 5.000 5.000 6.498 5.000 L 7.997 5.000 8.008 6.690 " stroke="none" fill="black" fill-rule="evenodd"></path></svg>