<svg xmlns="http://www.w3.org/2000/svg" width="24" height="24" viewBox="0 0 24 24" fill="none" stroke="currentColor" stroke-width="2" stroke-linecap="round" stroke-linejoin="round" class="icon icon-tabler icons-tabler-outline icon-tabler-message-bolt"><path d="M5.358 3.061 C 3.731 3.315,2.417 4.584,2.083 6.227 C 2.002 6.622,2.000 6.744,2.000 11.000 C 2.000 15.256,2.002 15.378,2.083 15.773 C 2.357 17.118,3.249 18.195,4.512 18.704 C 5.059 18.924,5.521 19.000,6.316 19.000 L 7.000 19.000 7.000 20.073 C 7.000 21.293,7.018 21.392,7.288 21.699 C 7.566 22.015,7.888 22.112,8.240 21.986 C 8.506 21.891,13.655 18.772,13.808 18.613 C 13.889 18.529,13.974 18.409,13.998 18.347 C 14.107 18.058,13.985 17.611,13.714 17.302 C 13.419 16.968,13.115 16.885,12.730 17.034 C 12.626 17.075,11.745 17.586,10.774 18.170 L 9.007 19.232 8.993 18.426 C 8.980 17.686,8.971 17.606,8.890 17.453 C 8.842 17.362,8.746 17.247,8.678 17.199 C 8.425 17.019,8.265 17.000,6.962 17.000 C 5.643 17.000,5.476 16.981,5.083 16.781 C 4.816 16.646,4.449 16.297,4.281 16.017 C 3.993 15.539,4.005 15.751,4.005 11.000 C 4.005 7.102,4.010 6.718,4.073 6.477 C 4.201 5.988,4.543 5.546,5.014 5.265 C 5.479 4.986,5.109 5.000,12.028 5.002 C 18.979 5.005,18.529 4.987,19.017 5.281 C 19.294 5.448,19.618 5.787,19.772 6.071 C 19.994 6.482,19.999 6.554,19.999 9.763 C 20.000 13.018,19.998 12.986,20.249 13.229 C 20.442 13.416,20.647 13.487,20.997 13.488 C 21.348 13.490,21.556 13.418,21.751 13.229 C 22.003 12.985,22.000 13.028,22.000 9.669 C 22.000 6.797,21.996 6.611,21.921 6.243 C 21.628 4.806,20.637 3.680,19.245 3.204 C 18.646 2.999,18.690 3.000,11.960 3.004 C 6.959 3.007,5.631 3.018,5.358 3.061 M7.614 8.057 C 7.377 8.131,7.212 8.261,7.109 8.453 C 7.035 8.592,7.020 8.684,7.020 9.000 C 7.020 9.331,7.033 9.403,7.120 9.558 C 7.230 9.755,7.414 9.898,7.635 9.959 C 7.833 10.014,16.167 10.014,16.365 9.959 C 16.586 9.898,16.770 9.755,16.880 9.558 C 16.967 9.402,16.980 9.332,16.979 9.000 C 16.978 8.567,16.898 8.355,16.678 8.199 C 16.393 7.996,16.487 8.000,11.984 8.003 C 8.651 8.005,7.746 8.016,7.614 8.057 M7.614 12.057 C 7.377 12.131,7.212 12.261,7.109 12.453 C 7.035 12.592,7.020 12.684,7.020 13.000 C 7.020 13.331,7.033 13.403,7.120 13.558 C 7.230 13.755,7.414 13.898,7.635 13.959 C 7.832 14.014,14.168 14.014,14.365 13.959 C 14.586 13.898,14.770 13.755,14.880 13.558 C 14.967 13.402,14.980 13.332,14.979 13.000 C 14.978 12.567,14.898 12.355,14.678 12.199 C 14.398 11.999,14.411 12.000,10.984 12.003 C 8.472 12.005,7.744 12.017,7.614 12.057 M18.620 15.026 C 18.554 15.061,18.448 15.137,18.385 15.195 C 18.251 15.318,16.144 18.459,16.035 18.698 C 15.944 18.898,15.939 19.204,16.024 19.382 C 16.059 19.456,16.168 19.591,16.266 19.681 C 16.585 19.975,16.597 19.978,17.930 20.000 L 19.120 20.020 18.615 20.777 C 18.033 21.649,17.962 21.788,17.961 22.054 C 17.960 22.304,18.044 22.477,18.266 22.681 C 18.749 23.127,19.289 23.155,19.665 22.754 C 19.872 22.534,21.885 19.481,21.950 19.289 C 22.073 18.929,21.941 18.385,21.686 18.204 C 21.441 18.030,21.382 18.022,20.110 18.001 L 18.880 17.980 19.385 17.223 C 19.967 16.351,20.038 16.212,20.039 15.946 C 20.040 15.696,19.956 15.523,19.734 15.319 C 19.383 14.996,18.913 14.872,18.620 15.026 " stroke="none" fill="black" fill-rule="evenodd"></path></svg>