<svg xmlns="http://www.w3.org/2000/svg" width="24" height="24" viewBox="0 0 24 24" fill="none" stroke="currentColor" stroke-width="2" stroke-linecap="round" stroke-linejoin="round" class="icon icon-tabler icons-tabler-outline icon-tabler-brand-office"><path d="M12.780 2.027 C 12.736 2.037,10.623 2.967,8.085 4.093 C 4.443 5.708,3.434 6.172,3.299 6.290 C 2.982 6.568,3.000 6.287,3.000 10.986 C 3.000 15.065,3.002 15.162,3.080 15.372 C 3.188 15.659,3.398 15.897,3.620 15.982 C 3.986 16.122,4.015 16.111,6.384 14.928 C 7.576 14.332,8.614 13.790,8.691 13.722 C 8.990 13.460,8.978 13.569,9.000 10.986 L 9.020 8.672 10.340 8.144 C 11.066 7.854,11.737 7.586,11.830 7.548 L 12.000 7.481 12.000 12.240 L 12.000 17.000 7.927 17.000 C 3.385 17.000,3.582 16.989,3.314 17.269 C 3.129 17.462,3.059 17.602,3.000 17.903 C 2.916 18.328,3.082 18.659,3.476 18.857 C 3.577 18.908,5.728 19.638,8.255 20.479 C 12.426 21.868,12.869 22.008,13.056 21.992 C 13.373 21.966,20.458 18.925,20.701 18.711 C 21.026 18.425,21.002 19.018,20.990 11.418 L 20.980 4.660 20.869 4.471 C 20.800 4.354,20.692 4.243,20.584 4.180 C 20.366 4.052,13.204 1.998,13.001 2.005 C 12.923 2.007,12.824 2.017,12.780 2.027 M16.060 4.914 L 18.980 5.748 18.990 11.544 L 19.000 17.340 15.981 18.634 L 12.962 19.927 11.591 19.467 L 10.220 19.006 11.720 19.003 C 12.591 19.001,13.281 18.983,13.365 18.959 C 13.586 18.898,13.770 18.755,13.880 18.558 L 13.980 18.380 13.980 12.000 L 13.980 5.620 13.889 5.450 C 13.728 5.148,13.319 4.965,12.912 5.013 C 12.782 5.029,11.770 5.413,10.097 6.082 C 7.854 6.978,7.460 7.148,7.306 7.283 C 6.993 7.558,7.000 7.498,7.000 10.098 L 7.000 12.381 6.020 12.870 C 5.481 13.140,5.031 13.360,5.020 13.360 C 5.009 13.360,5.000 12.076,5.000 10.507 L 5.000 7.653 9.010 5.869 C 11.216 4.887,13.047 4.083,13.080 4.082 C 13.113 4.081,14.454 4.455,16.060 4.914 " stroke="none" fill="black" fill-rule="evenodd"></path></svg>