<svg xmlns="http://www.w3.org/2000/svg" width="24" height="24" viewBox="0 0 24 24" fill="none" stroke="currentColor" stroke-width="2" stroke-linecap="round" stroke-linejoin="round" class="icon icon-tabler icons-tabler-outline icon-tabler-pray"><path d="M11.477 3.073 C 10.806 3.249,10.238 3.823,10.060 4.508 C 9.941 4.962,10.003 5.492,10.225 5.930 C 10.361 6.199,10.801 6.639,11.070 6.775 C 11.659 7.073,12.341 7.073,12.930 6.775 C 13.196 6.640,13.638 6.200,13.771 5.937 C 13.994 5.498,14.052 5.007,13.940 4.529 C 13.858 4.182,13.720 3.927,13.465 3.653 C 12.948 3.097,12.211 2.882,11.477 3.073 M10.614 8.057 C 10.377 8.131,10.212 8.261,10.109 8.453 L 10.020 8.620 10.020 12.460 C 10.020 16.126,10.023 16.306,10.094 16.440 C 10.135 16.517,10.711 17.125,11.374 17.790 L 12.578 19.000 9.695 19.000 C 6.615 19.000,6.600 19.001,6.322 19.199 C 6.100 19.357,6.020 19.568,6.020 20.000 C 6.020 20.331,6.033 20.403,6.120 20.558 C 6.230 20.755,6.414 20.898,6.635 20.959 C 6.833 21.014,15.167 21.014,15.365 20.959 C 15.587 20.898,15.770 20.755,15.879 20.558 C 15.963 20.408,15.979 20.327,15.979 20.040 C 15.980 19.742,15.967 19.678,15.873 19.520 C 15.813 19.421,14.918 18.494,13.883 17.460 L 12.000 15.580 12.000 13.290 L 12.000 11.000 13.270 11.952 C 13.968 12.475,14.617 12.934,14.711 12.972 C 14.935 13.061,15.139 13.057,15.360 12.957 C 15.600 12.849,17.829 10.625,17.960 10.363 C 18.137 10.010,18.048 9.646,17.701 9.299 C 17.360 8.958,16.979 8.868,16.628 9.045 C 16.531 9.094,16.130 9.458,15.680 9.903 L 14.900 10.675 13.200 9.399 C 12.128 8.594,11.435 8.100,11.323 8.061 C 11.111 7.988,10.841 7.986,10.614 8.057 " stroke="none" fill="black" fill-rule="evenodd"></path></svg>