<svg xmlns="http://www.w3.org/2000/svg" width="24" height="24" viewBox="0 0 24 24" fill="none" stroke="currentColor" stroke-width="2" stroke-linecap="round" stroke-linejoin="round" class="icon icon-tabler icons-tabler-outline icon-tabler-grip-horizontal"><path d="M4.477 7.073 C 3.806 7.249,3.238 7.823,3.060 8.508 C 2.941 8.962,3.003 9.492,3.225 9.930 C 3.361 10.199,3.801 10.639,4.070 10.775 C 4.659 11.073,5.341 11.073,5.930 10.775 C 6.196 10.640,6.638 10.200,6.771 9.937 C 6.994 9.498,7.052 9.007,6.940 8.529 C 6.858 8.182,6.720 7.927,6.465 7.653 C 6.074 7.232,5.560 7.005,5.000 7.005 C 4.857 7.005,4.622 7.036,4.477 7.073 M11.477 7.073 C 10.806 7.249,10.238 7.823,10.060 8.508 C 9.941 8.962,10.003 9.492,10.225 9.930 C 10.361 10.199,10.801 10.639,11.070 10.775 C 11.659 11.073,12.341 11.073,12.930 10.775 C 13.196 10.640,13.638 10.200,13.771 9.937 C 13.994 9.498,14.052 9.007,13.940 8.529 C 13.858 8.182,13.720 7.927,13.465 7.653 C 13.074 7.232,12.560 7.005,12.000 7.005 C 11.857 7.005,11.622 7.036,11.477 7.073 M18.477 7.073 C 17.806 7.249,17.238 7.823,17.060 8.508 C 16.941 8.962,17.003 9.492,17.225 9.930 C 17.361 10.199,17.801 10.639,18.070 10.775 C 18.659 11.073,19.341 11.073,19.930 10.775 C 20.196 10.640,20.638 10.200,20.771 9.937 C 20.994 9.498,21.052 9.007,20.940 8.529 C 20.858 8.182,20.720 7.927,20.465 7.653 C 20.074 7.232,19.560 7.005,19.000 7.005 C 18.857 7.005,18.622 7.036,18.477 7.073 M4.477 13.073 C 3.806 13.249,3.238 13.823,3.060 14.508 C 2.941 14.962,3.003 15.492,3.225 15.930 C 3.361 16.199,3.801 16.639,4.070 16.775 C 4.659 17.073,5.341 17.073,5.930 16.775 C 6.196 16.640,6.638 16.200,6.771 15.937 C 7.161 15.168,7.043 14.275,6.471 13.659 C 6.074 13.232,5.563 13.005,5.000 13.005 C 4.857 13.005,4.622 13.036,4.477 13.073 M11.477 13.073 C 10.806 13.249,10.238 13.823,10.060 14.508 C 9.941 14.962,10.003 15.492,10.225 15.930 C 10.361 16.199,10.801 16.639,11.070 16.775 C 11.659 17.073,12.341 17.073,12.930 16.775 C 13.196 16.640,13.638 16.200,13.771 15.937 C 14.161 15.168,14.043 14.275,13.471 13.659 C 13.074 13.232,12.563 13.005,12.000 13.005 C 11.857 13.005,11.622 13.036,11.477 13.073 M18.477 13.073 C 17.806 13.249,17.238 13.823,17.060 14.508 C 16.941 14.962,17.003 15.492,17.225 15.930 C 17.361 16.199,17.801 16.639,18.070 16.775 C 18.659 17.073,19.341 17.073,19.930 16.775 C 20.196 16.640,20.638 16.200,20.771 15.937 C 21.161 15.168,21.043 14.275,20.471 13.659 C 20.074 13.232,19.563 13.005,19.000 13.005 C 18.857 13.005,18.622 13.036,18.477 13.073 " stroke="none" fill="black" fill-rule="evenodd"></path></svg>