<svg xmlns="http://www.w3.org/2000/svg" width="24" height="24" viewBox="0 0 24 24" fill="none" stroke="currentColor" stroke-width="2" stroke-linecap="round" stroke-linejoin="round" class="icon icon-tabler icons-tabler-outline icon-tabler-toilet-paper-off"><path d="M2.626 2.045 C 2.257 2.239,1.951 2.673,1.951 3.000 C 1.951 3.281,2.082 3.488,2.588 4.005 L 3.046 4.473 2.988 4.586 C 2.956 4.649,2.866 4.880,2.786 5.100 C 1.817 7.790,1.735 11.523,2.584 14.301 C 3.178 16.242,4.150 17.527,5.300 17.891 C 5.693 18.016,6.307 18.016,6.700 17.891 C 7.061 17.777,7.425 17.559,7.745 17.266 L 8.000 17.033 8.000 18.589 C 8.000 20.344,8.005 20.378,8.288 20.699 C 8.595 21.048,8.950 21.130,9.340 20.943 C 9.450 20.890,10.062 20.497,10.700 20.068 L 11.860 19.289 13.180 20.599 C 14.345 21.755,14.523 21.916,14.697 21.974 C 14.927 22.051,15.006 22.055,15.213 21.997 C 15.297 21.974,15.989 21.539,16.752 21.032 L 18.138 20.109 18.539 20.239 L 18.940 20.369 19.700 21.119 C 20.513 21.922,20.691 22.049,21.000 22.049 C 21.477 22.049,22.049 21.477,22.049 21.000 C 22.049 20.691,21.922 20.514,21.117 19.700 C 19.367 17.931,3.651 2.237,3.560 2.168 C 3.264 1.942,2.910 1.895,2.626 2.045 M6.614 2.057 C 6.377 2.132,6.212 2.261,6.109 2.453 C 6.035 2.592,6.020 2.684,6.020 3.000 C 6.020 3.331,6.033 3.403,6.120 3.558 C 6.230 3.755,6.414 3.898,6.635 3.959 C 6.729 3.985,8.776 4.000,12.440 4.001 C 16.805 4.002,18.119 4.014,18.183 4.051 C 18.814 4.419,19.438 5.704,19.743 7.264 C 19.971 8.431,19.970 8.401,19.996 13.060 L 20.020 17.380 20.120 17.558 C 20.287 17.856,20.572 18.000,21.000 18.000 C 21.428 18.000,21.713 17.856,21.880 17.558 L 21.980 17.380 21.992 13.420 C 22.000 10.851,21.990 9.235,21.961 8.820 C 21.778 6.123,20.976 3.890,19.796 2.785 C 19.440 2.452,19.161 2.276,18.753 2.127 L 18.460 2.020 12.620 2.012 C 7.901 2.006,6.748 2.015,6.614 2.057 M6.317 7.737 L 8.013 9.433 7.988 10.327 C 7.960 11.311,7.893 11.970,7.743 12.737 C 7.464 14.163,6.899 15.405,6.325 15.852 C 6.079 16.044,5.921 16.044,5.675 15.852 C 5.073 15.384,4.497 14.073,4.226 12.560 C 4.058 11.625,4.022 11.171,4.024 10.020 C 4.025 8.893,4.081 8.227,4.244 7.360 C 4.336 6.873,4.557 6.040,4.595 6.040 C 4.609 6.040,5.384 6.803,6.317 7.737 M5.614 9.055 C 5.220 9.184,5.039 9.437,5.009 9.900 C 4.978 10.381,5.119 10.699,5.442 10.880 C 5.597 10.967,5.669 10.980,6.000 10.980 C 6.312 10.980,6.408 10.964,6.540 10.894 C 6.866 10.718,7.000 10.459,7.000 10.000 C 7.000 9.357,6.713 9.048,6.083 9.016 C 5.893 9.006,5.718 9.021,5.614 9.055 M16.990 18.450 C 16.985 18.466,16.566 18.757,16.060 19.096 L 15.140 19.711 13.840 18.422 C 13.006 17.596,12.483 17.107,12.380 17.059 C 12.174 16.962,11.828 16.963,11.640 17.060 C 11.563 17.100,11.185 17.342,10.800 17.599 C 10.415 17.855,10.078 18.079,10.050 18.095 C 10.010 18.119,10.000 17.443,10.000 14.772 L 10.000 11.420 13.500 14.920 C 15.425 16.845,16.996 18.433,16.990 18.450 " stroke="none" fill="black" fill-rule="evenodd"></path></svg>