<svg xmlns="http://www.w3.org/2000/svg" width="24" height="24" viewBox="0 0 24 24" fill="none" stroke="currentColor" stroke-width="2" stroke-linecap="round" stroke-linejoin="round" class="icon icon-tabler icons-tabler-outline icon-tabler-file-pencil"><path d="M6.499 2.043 C 5.383 2.230,4.461 3.048,4.114 4.160 L 4.020 4.460 4.020 12.000 L 4.020 19.540 4.114 19.840 C 4.422 20.827,5.173 21.578,6.160 21.886 L 6.460 21.980 12.000 21.980 L 17.540 21.980 17.840 21.886 C 18.827 21.578,19.578 20.827,19.886 19.840 L 19.980 19.540 19.980 13.580 L 19.980 7.620 19.890 7.452 C 19.841 7.360,19.724 7.231,19.630 7.165 C 19.498 7.073,15.263 2.838,14.719 2.254 C 14.473 1.991,14.626 2.000,10.463 2.005 C 8.393 2.007,6.609 2.025,6.499 2.043 M13.000 5.632 C 13.000 7.399,13.010 7.507,13.225 7.930 C 13.361 8.199,13.801 8.639,14.070 8.775 C 14.493 8.990,14.601 9.000,16.368 9.000 L 18.000 9.000 18.000 14.054 C 18.000 18.220,17.990 19.139,17.945 19.290 C 17.872 19.533,17.707 19.740,17.484 19.872 L 17.300 19.980 12.000 19.980 L 6.700 19.980 6.516 19.872 C 6.415 19.813,6.284 19.700,6.225 19.623 C 5.986 19.309,6.000 19.795,6.000 12.022 C 6.000 4.005,5.975 4.631,6.304 4.303 C 6.613 3.994,6.464 4.006,9.930 4.003 L 13.000 4.000 13.000 5.632 M15.800 6.220 L 16.579 7.000 15.790 7.000 L 15.000 7.000 15.000 6.220 C 15.000 5.791,15.005 5.440,15.010 5.440 C 15.016 5.440,15.371 5.791,15.800 6.220 M13.386 9.663 C 13.257 9.695,13.023 9.786,12.866 9.867 C 12.604 10.002,12.353 10.241,9.907 12.677 C 8.386 14.193,7.188 15.418,7.127 15.520 L 7.020 15.700 7.020 17.040 L 7.020 18.380 7.120 18.558 C 7.232 18.759,7.417 18.900,7.648 18.962 C 7.746 18.989,8.267 19.000,9.052 18.992 L 10.300 18.980 10.480 18.873 C 10.582 18.812,11.807 17.614,13.323 16.093 C 15.741 13.665,15.999 13.394,16.129 13.140 C 16.208 12.986,16.302 12.749,16.337 12.614 C 16.418 12.298,16.418 11.702,16.337 11.386 C 16.126 10.570,15.400 9.851,14.596 9.661 C 14.280 9.587,13.698 9.588,13.386 9.663 M14.283 11.717 C 14.376 11.810,14.400 11.869,14.400 12.006 L 14.400 12.178 11.990 14.589 L 9.581 17.000 9.290 17.000 L 9.000 17.000 9.000 16.710 L 9.000 16.419 11.411 14.010 L 13.822 11.600 13.994 11.600 C 14.131 11.600,14.190 11.624,14.283 11.717 " stroke="none" fill="black" fill-rule="evenodd"></path></svg>