<svg xmlns="http://www.w3.org/2000/svg" width="24" height="24" viewBox="0 0 24 24" fill="none" stroke="currentColor" stroke-width="2" stroke-linecap="round" stroke-linejoin="round" class="icon icon-tabler icons-tabler-outline icon-tabler-currency-rufiyaa"><path d="M17.806 6.023 C 17.245 6.174,16.388 6.720,15.386 7.565 C 15.037 7.859,14.691 8.151,14.617 8.213 L 14.482 8.326 13.443 7.702 C 12.358 7.050,12.172 6.960,11.913 6.960 C 11.346 6.960,10.788 7.834,11.014 8.371 C 11.103 8.582,11.381 8.800,12.146 9.259 L 12.870 9.694 12.765 9.779 C 10.464 11.660,7.339 13.484,3.894 14.958 C 3.336 15.197,3.116 15.363,3.018 15.620 C 2.840 16.085,3.211 16.866,3.674 17.003 C 3.923 17.077,4.166 17.016,4.935 16.684 C 8.567 15.118,11.691 13.254,14.369 11.054 C 14.538 10.914,14.685 10.800,14.695 10.800 C 14.704 10.800,15.148 11.061,15.680 11.379 C 16.659 11.965,16.818 12.039,17.092 12.040 C 17.640 12.041,18.198 11.186,17.998 10.653 C 17.919 10.444,17.663 10.236,16.989 9.831 C 16.620 9.609,16.323 9.414,16.329 9.397 C 16.348 9.344,17.201 8.646,17.531 8.413 C 17.702 8.292,18.021 8.105,18.240 7.996 C 18.719 7.759,18.892 7.615,18.983 7.378 C 19.158 6.918,18.789 6.130,18.340 6.005 C 18.139 5.949,18.072 5.951,17.806 6.023 M19.614 15.055 C 19.220 15.184,19.039 15.437,19.009 15.900 C 18.978 16.381,19.119 16.699,19.442 16.880 C 19.597 16.967,19.669 16.980,20.000 16.980 C 20.312 16.980,20.408 16.964,20.540 16.894 C 20.866 16.718,21.000 16.459,21.000 16.000 C 21.000 15.357,20.713 15.048,20.083 15.016 C 19.893 15.006,19.718 15.021,19.614 15.055 " stroke="none" fill="black" fill-rule="evenodd"></path></svg>