<svg xmlns="http://www.w3.org/2000/svg" width="24" height="24" viewBox="0 0 24 24" fill="none" stroke="currentColor" stroke-width="2" stroke-linecap="round" stroke-linejoin="round" class="icon icon-tabler icons-tabler-outline icon-tabler-robot-face"><path d="M7.633 2.077 C 6.996 2.326,6.878 2.644,7.099 3.516 C 7.155 3.735,7.200 3.932,7.200 3.953 C 7.200 3.976,6.845 3.999,6.330 4.010 C 5.556 4.026,5.425 4.039,5.139 4.125 C 4.180 4.416,3.420 5.180,3.114 6.160 L 3.020 6.460 3.020 13.000 L 3.020 19.540 3.114 19.840 C 3.422 20.827,4.173 21.578,5.160 21.886 L 5.460 21.980 12.000 21.980 L 18.540 21.980 18.840 21.886 C 19.827 21.578,20.578 20.827,20.886 19.840 L 20.980 19.540 20.980 13.000 L 20.980 6.460 20.886 6.160 C 20.580 5.180,19.820 4.416,18.861 4.125 C 18.575 4.039,18.444 4.026,17.670 4.010 C 17.056 3.997,16.800 3.978,16.801 3.946 C 16.801 3.921,16.846 3.729,16.900 3.520 C 17.032 3.010,17.032 2.682,16.900 2.456 C 16.681 2.083,15.919 1.877,15.504 2.078 C 15.227 2.212,15.115 2.418,14.943 3.109 C 14.862 3.434,14.778 3.768,14.757 3.850 L 14.717 4.000 12.000 4.000 L 9.283 4.000 9.243 3.850 C 9.222 3.768,9.138 3.434,9.057 3.109 C 8.886 2.425,8.772 2.212,8.505 2.083 C 8.287 1.977,7.895 1.974,7.633 2.077 M7.757 6.150 C 7.778 6.232,7.862 6.566,7.943 6.891 C 8.109 7.558,8.220 7.769,8.482 7.916 C 8.692 8.035,9.045 8.038,9.372 7.924 C 9.983 7.711,10.121 7.334,9.900 6.480 C 9.846 6.271,9.801 6.078,9.801 6.050 C 9.800 6.011,10.266 6.000,12.000 6.000 C 13.534 6.000,14.200 6.013,14.200 6.043 C 14.200 6.066,14.155 6.265,14.099 6.484 C 13.876 7.365,14.019 7.729,14.672 7.940 C 15.143 8.091,15.569 7.992,15.774 7.683 C 15.899 7.494,15.935 7.392,16.081 6.800 C 16.149 6.525,16.222 6.232,16.244 6.150 L 16.283 6.000 17.194 6.000 C 18.283 6.000,18.422 6.028,18.697 6.303 C 19.023 6.629,19.000 6.126,19.000 13.001 C 19.000 18.059,18.991 19.139,18.945 19.290 C 18.872 19.533,18.707 19.740,18.484 19.872 L 18.300 19.980 12.000 19.980 L 5.700 19.980 5.516 19.872 C 5.415 19.813,5.284 19.700,5.225 19.623 C 4.987 19.311,5.000 19.701,5.000 13.022 C 5.000 6.123,4.977 6.629,5.304 6.303 C 5.576 6.030,5.694 6.006,6.788 6.003 L 7.717 6.000 7.757 6.150 M8.614 10.057 C 8.377 10.131,8.212 10.261,8.109 10.453 C 8.027 10.606,8.019 10.684,8.007 11.405 C 7.999 11.880,8.011 12.252,8.037 12.349 C 8.144 12.748,8.430 12.961,8.896 12.991 C 9.381 13.022,9.699 12.882,9.880 12.558 C 9.978 12.383,9.980 12.364,9.980 11.500 C 9.980 10.667,9.975 10.611,9.891 10.453 C 9.842 10.362,9.746 10.247,9.678 10.199 C 9.414 10.010,8.957 9.950,8.614 10.057 M14.614 10.057 C 14.377 10.131,14.212 10.261,14.109 10.453 C 14.027 10.606,14.019 10.684,14.007 11.405 C 13.999 11.880,14.011 12.252,14.037 12.349 C 14.144 12.748,14.430 12.961,14.896 12.991 C 15.381 13.022,15.699 12.882,15.880 12.558 C 15.978 12.383,15.980 12.364,15.980 11.500 C 15.980 10.667,15.975 10.611,15.891 10.453 C 15.842 10.362,15.746 10.247,15.678 10.199 C 15.414 10.010,14.957 9.950,14.614 10.057 M8.597 15.039 C 8.157 15.272,7.848 15.940,7.998 16.335 C 8.188 16.834,9.652 17.619,10.892 17.888 C 11.476 18.014,12.524 18.014,13.108 17.888 C 14.348 17.619,15.812 16.834,16.002 16.335 C 16.113 16.042,15.986 15.602,15.697 15.282 C 15.499 15.062,15.292 14.960,15.047 14.960 C 14.840 14.960,14.712 15.016,14.101 15.373 C 13.714 15.600,13.298 15.776,12.887 15.889 C 12.641 15.956,12.465 15.973,12.000 15.973 C 11.535 15.973,11.359 15.956,11.113 15.889 C 10.702 15.776,10.286 15.600,9.899 15.373 C 9.277 15.009,9.162 14.960,8.944 14.962 C 8.824 14.963,8.681 14.995,8.597 15.039 " stroke="none" fill="black" fill-rule="evenodd"></path></svg>