<svg xmlns="http://www.w3.org/2000/svg" width="24" height="24" viewBox="0 0 24 24" fill="none" stroke="currentColor" stroke-width="2" stroke-linecap="round" stroke-linejoin="round" class="icon icon-tabler icons-tabler-outline icon-tabler-hand-off"><path d="M11.960 1.062 C 11.605 1.138,11.107 1.393,10.832 1.639 C 10.526 1.912,10.233 2.360,10.119 2.726 L 10.027 3.022 9.544 3.022 C 8.837 3.022,8.349 3.199,7.838 3.642 C 7.282 4.123,7.247 4.649,7.739 5.141 C 7.974 5.376,8.189 5.480,8.440 5.480 C 8.674 5.480,8.810 5.419,9.122 5.174 C 9.384 4.970,9.551 4.948,9.764 5.091 C 9.990 5.244,9.999 5.290,10.000 6.300 C 10.000 6.806,10.019 7.285,10.041 7.365 C 10.148 7.750,10.437 7.962,10.896 7.991 C 11.381 8.022,11.699 7.882,11.880 7.558 L 11.980 7.380 12.000 5.360 C 12.022 3.165,12.015 3.223,12.253 3.078 C 12.415 2.979,12.585 2.979,12.748 3.078 C 13.013 3.240,13.000 3.042,13.000 6.808 C 13.000 8.970,13.015 10.273,13.041 10.365 C 13.148 10.750,13.437 10.962,13.896 10.991 C 14.381 11.022,14.699 10.882,14.880 10.558 L 14.980 10.380 15.000 7.860 C 15.022 5.121,15.012 5.224,15.253 5.078 C 15.487 4.935,15.774 5.009,15.922 5.252 C 15.997 5.376,16.000 5.479,16.000 8.800 C 16.000 10.967,16.015 12.273,16.041 12.365 C 16.148 12.750,16.437 12.962,16.896 12.991 C 17.381 13.022,17.699 12.882,17.880 12.558 L 17.980 12.380 18.000 9.860 C 18.022 7.121,18.012 7.224,18.253 7.078 C 18.415 6.979,18.585 6.979,18.748 7.078 C 19.016 7.242,19.000 6.939,19.000 11.788 C 18.999 14.460,18.984 16.321,18.959 16.540 C 18.915 16.940,18.840 17.315,18.801 17.340 C 18.782 17.351,13.168 11.744,11.745 10.294 C 11.720 10.268,11.061 9.608,10.280 8.827 C 9.499 8.046,8.815 7.361,8.760 7.306 C 8.705 7.250,7.508 6.062,6.100 4.667 C 4.415 2.996,3.482 2.100,3.372 2.044 C 3.020 1.868,2.639 1.959,2.299 2.299 C 1.952 2.646,1.863 3.010,2.040 3.363 C 2.101 3.486,2.866 4.279,4.564 5.981 L 7.000 8.421 7.000 9.407 L 7.000 10.393 6.798 10.295 C 6.193 10.003,5.305 9.986,4.660 10.253 C 4.096 10.486,3.505 11.026,3.265 11.528 C 3.070 11.936,2.990 12.276,2.985 12.720 C 2.979 13.192,3.048 13.515,3.237 13.890 C 3.915 15.234,6.156 19.538,6.253 19.680 C 6.606 20.200,7.312 20.942,7.820 21.327 C 8.767 22.045,9.903 22.571,11.146 22.867 L 11.620 22.980 13.140 22.980 C 14.199 22.980,14.763 22.964,15.000 22.927 C 16.499 22.695,17.824 22.036,18.900 20.986 L 19.235 20.659 19.847 21.264 C 20.509 21.917,20.703 22.049,21.000 22.049 C 21.477 22.049,22.049 21.477,22.049 21.000 C 22.049 20.690,21.923 20.514,21.116 19.699 L 20.363 18.939 20.523 18.519 C 20.705 18.041,20.851 17.494,20.927 17.000 C 20.969 16.732,20.980 15.629,20.980 11.820 L 20.980 6.980 20.869 6.680 C 20.478 5.616,19.458 4.945,18.338 5.014 L 17.977 5.037 17.879 4.728 C 17.542 3.662,16.477 2.944,15.338 3.014 L 14.977 3.037 14.879 2.728 C 14.500 1.530,13.211 0.794,11.960 1.062 M10.000 11.819 C 10.001 12.437,10.107 12.693,10.442 12.880 C 10.593 12.964,10.672 12.980,10.960 12.980 C 11.147 12.980,11.346 12.967,11.401 12.951 C 11.495 12.925,11.760 13.180,14.661 16.084 L 17.820 19.244 17.458 19.592 C 16.765 20.258,15.977 20.679,15.000 20.903 C 14.549 21.006,12.259 21.034,11.759 20.942 C 10.936 20.791,9.883 20.348,9.226 19.877 C 8.815 19.583,8.332 19.123,8.073 18.780 C 7.972 18.646,7.372 17.528,6.721 16.260 C 6.077 15.006,5.425 13.748,5.271 13.464 C 5.033 13.023,4.993 12.920,4.994 12.754 C 4.998 12.172,5.643 11.848,6.092 12.201 C 6.152 12.248,6.397 12.672,6.677 13.211 C 7.172 14.164,7.217 14.237,7.415 14.390 C 7.612 14.543,7.800 14.571,8.146 14.500 C 8.501 14.427,8.574 14.394,8.751 14.226 C 8.988 14.002,9.000 13.895,9.000 12.063 L 9.000 10.421 9.500 10.920 L 10.000 11.419 10.000 11.819 " stroke="none" fill="black" fill-rule="evenodd"></path></svg>