<svg xmlns="http://www.w3.org/2000/svg" width="24" height="24" viewBox="0 0 24 24" fill="none" stroke="currentColor" stroke-width="2" stroke-linecap="round" stroke-linejoin="round" class="icon icon-tabler icons-tabler-outline icon-tabler-wash-dry-off"><path d="M2.626 2.045 C 2.420 2.154,2.146 2.433,2.038 2.644 C 1.857 3.000,1.945 3.326,2.338 3.750 C 2.541 3.970,2.552 3.993,2.499 4.069 C 2.381 4.238,2.156 4.866,2.079 5.243 C 2.002 5.622,2.000 5.805,2.000 12.000 C 2.000 18.277,2.001 18.373,2.083 18.773 C 2.311 19.892,2.985 20.851,3.956 21.436 C 4.285 21.635,4.810 21.832,5.243 21.921 C 5.622 21.998,5.805 22.000,12.000 22.000 C 18.195 22.000,18.378 21.998,18.757 21.921 C 19.134 21.844,19.762 21.619,19.931 21.501 C 20.007 21.448,20.030 21.459,20.250 21.662 C 20.380 21.783,20.560 21.919,20.651 21.965 C 20.987 22.137,21.359 22.043,21.701 21.701 C 22.047 21.355,22.136 20.990,21.961 20.637 C 21.839 20.392,3.616 2.165,3.372 2.044 C 3.152 1.934,2.834 1.935,2.626 2.045 M6.614 2.057 C 6.377 2.131,6.212 2.261,6.109 2.453 C 6.035 2.592,6.020 2.684,6.020 3.000 C 6.020 3.331,6.033 3.403,6.120 3.558 C 6.230 3.755,6.414 3.898,6.635 3.959 C 6.729 3.985,8.805 4.000,12.520 4.002 C 18.921 4.005,18.531 3.988,19.017 4.281 C 19.294 4.448,19.618 4.787,19.772 5.071 C 20.005 5.503,19.999 5.306,20.000 11.520 C 20.000 15.213,20.015 17.271,20.041 17.365 C 20.148 17.750,20.437 17.962,20.896 17.991 C 21.381 18.022,21.699 17.882,21.880 17.558 L 21.980 17.380 21.991 11.509 C 22.001 5.772,21.999 5.630,21.921 5.246 C 21.628 3.806,20.638 2.681,19.245 2.204 C 18.651 2.000,18.645 2.000,12.500 2.003 C 7.922 2.005,6.747 2.016,6.614 2.057 M11.298 12.718 C 15.257 16.677,18.482 19.931,18.465 19.948 C 18.415 19.998,5.818 20.009,5.577 19.959 C 4.887 19.816,4.253 19.211,4.073 18.523 C 4.010 18.280,4.004 17.787,4.003 12.040 C 4.002 8.619,4.012 5.753,4.026 5.670 C 4.039 5.588,4.062 5.520,4.075 5.520 C 4.089 5.520,7.339 8.759,11.298 12.718 " stroke="none" fill="black" fill-rule="evenodd"></path></svg>