<svg xmlns="http://www.w3.org/2000/svg" width="24" height="24" viewBox="0 0 24 24" fill="none" stroke="currentColor" stroke-width="2" stroke-linecap="round" stroke-linejoin="round" class="icon icon-tabler icons-tabler-outline icon-tabler-vaccine"><path d="M16.626 2.045 C 16.257 2.239,15.951 2.673,15.951 3.000 C 15.951 3.308,16.079 3.487,16.854 4.271 L 17.577 5.002 16.040 6.540 L 14.502 8.079 13.261 6.846 C 12.478 6.068,11.961 5.585,11.860 5.538 C 11.651 5.438,11.345 5.439,11.140 5.540 C 10.926 5.644,10.614 5.961,10.519 6.170 C 10.356 6.528,10.444 6.831,10.833 7.246 L 11.075 7.505 8.155 10.423 C 6.510 12.066,5.188 13.419,5.127 13.520 L 5.020 13.700 5.009 15.640 L 4.997 17.580 3.563 19.020 C 2.603 19.984,2.100 20.519,2.040 20.637 C 1.863 20.989,1.952 21.354,2.299 21.701 C 2.646 22.048,3.011 22.137,3.363 21.960 C 3.481 21.900,4.016 21.397,4.980 20.437 L 6.420 19.003 8.360 18.991 L 10.300 18.980 10.480 18.873 C 10.581 18.812,11.934 17.490,13.577 15.845 L 16.495 12.925 16.755 13.168 C 17.080 13.472,17.301 13.576,17.569 13.550 C 17.989 13.510,18.510 12.987,18.550 12.565 C 18.585 12.201,18.511 12.105,17.154 10.739 L 15.921 9.498 17.460 7.960 L 18.998 6.423 19.729 7.146 C 20.168 7.580,20.531 7.905,20.637 7.959 C 20.988 8.137,21.354 8.048,21.701 7.701 C 22.048 7.355,22.137 6.990,21.961 6.637 C 21.840 6.396,17.612 2.164,17.372 2.044 C 17.152 1.934,16.835 1.935,16.626 2.045 M12.330 14.250 L 9.580 17.000 8.290 17.000 L 7.000 17.000 7.000 15.711 L 7.000 14.422 7.248 14.172 L 7.496 13.922 7.979 14.395 C 8.511 14.917,8.717 15.049,9.000 15.049 C 9.477 15.049,10.049 14.477,10.049 14.000 C 10.049 13.717,9.916 13.509,9.396 12.980 L 8.923 12.500 9.710 11.711 L 10.496 10.923 10.979 11.396 C 11.511 11.917,11.717 12.049,12.000 12.049 C 12.477 12.049,13.049 11.477,13.049 11.000 C 13.049 10.717,12.917 10.511,12.396 9.979 L 11.923 9.497 12.211 9.208 L 12.499 8.920 13.790 10.210 L 15.080 11.500 12.330 14.250 " stroke="none" fill="black" fill-rule="evenodd"></path></svg>