<svg xmlns="http://www.w3.org/2000/svg" width="24" height="24" viewBox="0 0 24 24" fill="none" stroke="currentColor" stroke-width="2" stroke-linecap="round" stroke-linejoin="round" class="icon icon-tabler icons-tabler-outline icon-tabler-box-align-bottom-right"><path d="M3.614 3.057 C 3.221 3.180,3.039 3.435,3.009 3.906 C 2.962 4.621,3.306 5.000,4.000 5.000 C 4.698 5.000,5.043 4.616,4.989 3.900 C 4.963 3.563,4.859 3.327,4.678 3.199 C 4.414 3.010,3.957 2.950,3.614 3.057 M8.614 3.057 C 8.221 3.180,8.039 3.435,8.009 3.906 C 7.962 4.621,8.306 5.000,9.000 5.000 C 9.698 5.000,10.043 4.616,9.989 3.900 C 9.963 3.563,9.859 3.327,9.678 3.199 C 9.414 3.010,8.957 2.950,8.614 3.057 M14.614 3.057 C 14.221 3.180,14.039 3.435,14.009 3.906 C 13.962 4.621,14.306 5.000,15.000 5.000 C 15.698 5.000,16.043 4.616,15.989 3.900 C 15.963 3.563,15.859 3.327,15.678 3.199 C 15.414 3.010,14.957 2.950,14.614 3.057 M19.614 3.057 C 19.221 3.180,19.039 3.435,19.009 3.906 C 18.962 4.621,19.306 5.000,20.000 5.000 C 20.698 5.000,21.043 4.616,20.989 3.900 C 20.963 3.563,20.859 3.327,20.678 3.199 C 20.414 3.010,19.957 2.950,19.614 3.057 M3.614 8.057 C 3.221 8.180,3.039 8.435,3.009 8.906 C 2.962 9.621,3.306 10.000,4.000 10.000 C 4.698 10.000,5.043 9.616,4.989 8.900 C 4.963 8.563,4.859 8.327,4.678 8.199 C 4.414 8.010,3.957 7.950,3.614 8.057 M19.614 8.057 C 19.221 8.180,19.039 8.435,19.009 8.906 C 18.962 9.621,19.306 10.000,20.000 10.000 C 20.698 10.000,21.043 9.616,20.989 8.900 C 20.963 8.563,20.859 8.327,20.678 8.199 C 20.414 8.010,19.957 7.950,19.614 8.057 M13.477 12.073 C 12.806 12.249,12.238 12.823,12.060 13.508 C 12.010 13.700,12.000 14.180,12.000 16.500 C 12.000 19.501,11.999 19.484,12.225 19.930 C 12.361 20.199,12.801 20.639,13.070 20.775 C 13.516 21.001,13.499 21.000,16.500 21.000 C 19.501 21.000,19.484 21.001,19.930 20.775 C 20.196 20.640,20.638 20.200,20.771 19.937 C 21.000 19.485,21.000 19.489,20.999 16.514 C 20.999 13.558,20.995 13.505,20.781 13.083 C 20.646 12.816,20.297 12.449,20.017 12.281 C 19.555 12.003,19.580 12.005,16.500 12.005 C 14.020 12.005,13.713 12.012,13.477 12.073 M3.614 14.057 C 3.221 14.180,3.039 14.435,3.009 14.906 C 2.962 15.621,3.306 16.000,4.000 16.000 C 4.698 16.000,5.043 15.616,4.989 14.900 C 4.963 14.563,4.859 14.327,4.678 14.199 C 4.414 14.010,3.957 13.950,3.614 14.057 M19.000 16.500 L 19.000 19.000 16.500 19.000 L 14.000 19.000 14.000 16.500 L 14.000 14.000 16.500 14.000 L 19.000 14.000 19.000 16.500 M3.614 19.057 C 3.221 19.180,3.039 19.435,3.009 19.906 C 2.962 20.621,3.306 21.000,4.000 21.000 C 4.698 21.000,5.043 20.616,4.989 19.900 C 4.963 19.563,4.859 19.327,4.678 19.199 C 4.414 19.010,3.957 18.950,3.614 19.057 M8.614 19.057 C 8.221 19.180,8.039 19.435,8.009 19.906 C 7.962 20.621,8.306 21.000,9.000 21.000 C 9.698 21.000,10.043 20.616,9.989 19.900 C 9.963 19.563,9.859 19.327,9.678 19.199 C 9.414 19.010,8.957 18.950,8.614 19.057 " stroke="none" fill="black" fill-rule="evenodd"></path></svg>