<svg xmlns="http://www.w3.org/2000/svg" width="24" height="24" viewBox="0 0 24 24" fill="none" stroke="currentColor" stroke-width="2" stroke-linecap="round" stroke-linejoin="round" class="icon icon-tabler icons-tabler-outline icon-tabler-road-sign"><path d="M11.419 1.058 C 11.095 1.117,10.735 1.255,10.409 1.445 C 10.238 1.545,9.118 2.637,5.967 5.779 C 3.650 8.090,1.676 10.088,1.582 10.220 C 1.360 10.530,1.230 10.790,1.114 11.161 C 1.035 11.413,1.021 11.546,1.021 12.000 C 1.021 12.454,1.035 12.587,1.114 12.839 C 1.230 13.210,1.360 13.470,1.582 13.780 C 1.793 14.075,10.029 22.302,10.280 22.469 C 10.553 22.651,10.831 22.782,11.161 22.886 C 11.413 22.965,11.546 22.979,12.000 22.979 C 12.454 22.979,12.587 22.965,12.839 22.886 C 13.169 22.782,13.447 22.651,13.720 22.469 C 13.971 22.302,22.207 14.075,22.418 13.780 C 22.640 13.470,22.770 13.210,22.886 12.839 C 22.965 12.587,22.979 12.454,22.979 12.000 C 22.979 11.546,22.965 11.413,22.886 11.161 C 22.770 10.790,22.640 10.530,22.418 10.220 C 22.324 10.088,20.350 8.090,18.033 5.779 C 14.882 2.637,13.762 1.545,13.591 1.445 C 12.918 1.053,12.176 0.921,11.419 1.058 M12.451 3.103 C 12.635 3.195,20.785 11.342,20.891 11.540 C 20.956 11.662,20.976 11.771,20.976 12.000 C 20.976 12.229,20.956 12.338,20.891 12.460 C 20.784 12.661,12.637 20.803,12.440 20.905 C 12.341 20.957,12.213 20.978,12.000 20.978 C 11.787 20.978,11.659 20.957,11.560 20.905 C 11.366 20.804,3.217 12.662,3.108 12.460 C 2.994 12.248,2.986 11.768,3.095 11.560 C 3.182 11.392,11.328 3.222,11.500 3.131 C 11.566 3.095,11.674 3.052,11.740 3.035 C 11.911 2.990,12.299 3.028,12.451 3.103 M12.626 8.045 C 12.420 8.154,12.146 8.433,12.038 8.644 C 11.856 9.001,11.945 9.326,12.341 9.754 L 12.564 9.995 11.052 10.009 C 9.622 10.023,9.528 10.028,9.310 10.110 C 8.833 10.288,8.423 10.645,8.220 11.060 C 8.020 11.470,8.000 11.642,8.000 12.978 C 8.000 13.687,8.018 14.282,8.041 14.365 C 8.148 14.750,8.437 14.962,8.896 14.991 C 9.381 15.022,9.699 14.882,9.880 14.558 C 9.979 14.381,9.980 14.374,9.993 13.190 L 10.005 12.000 11.287 12.000 L 12.569 12.000 12.344 12.243 C 12.061 12.549,11.951 12.760,11.951 13.000 C 11.951 13.477,12.523 14.049,13.000 14.049 C 13.322 14.049,13.478 13.931,14.562 12.865 C 15.124 12.312,15.635 11.826,15.697 11.784 C 15.850 11.682,16.049 11.238,16.049 11.000 C 16.049 10.745,15.851 10.321,15.676 10.200 C 15.601 10.149,15.090 9.662,14.540 9.119 C 13.939 8.524,13.473 8.096,13.372 8.045 C 13.152 7.934,12.835 7.934,12.626 8.045 " stroke="none" fill="black" fill-rule="evenodd"></path></svg>