<svg xmlns="http://www.w3.org/2000/svg" width="24" height="24" viewBox="0 0 24 24" fill="none" stroke="currentColor" stroke-width="2" stroke-linecap="round" stroke-linejoin="round" class="icon icon-tabler icons-tabler-outline icon-tabler-device-sim-1"><path d="M5.477 2.073 C 4.805 2.249,4.238 2.823,4.060 3.508 C 4.008 3.707,4.000 4.805,4.000 12.000 C 4.000 21.017,3.986 20.458,4.225 20.930 C 4.361 21.199,4.801 21.639,5.070 21.775 C 5.538 22.012,5.172 22.000,12.000 22.000 C 18.828 22.000,18.462 22.012,18.930 21.775 C 19.196 21.640,19.638 21.200,19.771 20.937 C 20.013 20.461,20.000 20.854,19.999 13.774 C 19.998 7.367,19.997 7.298,19.917 7.120 C 19.856 6.982,19.280 6.383,17.468 4.567 C 16.134 3.230,15.030 2.157,14.940 2.107 L 14.780 2.020 10.260 2.012 C 6.091 2.005,5.720 2.009,5.477 2.073 M16.050 5.950 L 18.000 7.900 18.000 13.950 L 18.000 20.000 12.000 20.000 L 6.000 20.000 6.000 12.000 L 6.000 4.000 10.050 4.000 L 14.100 4.000 16.050 5.950 M11.620 8.046 C 11.390 8.165,9.153 10.411,9.040 10.637 C 8.863 10.990,8.952 11.354,9.299 11.701 C 9.641 12.043,10.013 12.137,10.349 11.965 C 10.440 11.919,10.623 11.780,10.757 11.656 L 11.000 11.431 11.000 14.326 C 11.000 16.141,11.015 17.274,11.041 17.365 C 11.148 17.750,11.437 17.962,11.896 17.991 C 12.381 18.022,12.699 17.882,12.880 17.558 L 12.980 17.380 12.980 13.040 L 12.980 8.700 12.871 8.514 C 12.758 8.323,12.558 8.141,12.332 8.025 C 12.153 7.934,11.818 7.944,11.620 8.046 " stroke="none" fill="black" fill-rule="evenodd"></path></svg>