<svg xmlns="http://www.w3.org/2000/svg" width="24" height="24" viewBox="0 0 24 24" fill="none" stroke="currentColor" stroke-width="2" stroke-linecap="round" stroke-linejoin="round" class="icon icon-tabler icons-tabler-outline icon-tabler-keyframe-align-center"><path d="M11.614 1.057 C 11.377 1.131,11.212 1.261,11.109 1.453 C 11.023 1.614,11.020 1.665,11.008 2.908 C 11.000 3.720,11.011 4.254,11.038 4.352 C 11.144 4.747,11.432 4.961,11.896 4.991 C 12.381 5.022,12.699 4.882,12.880 4.558 L 12.980 4.380 12.980 3.000 C 12.980 1.650,12.978 1.616,12.891 1.453 C 12.842 1.362,12.746 1.247,12.678 1.199 C 12.414 1.010,11.957 0.950,11.614 1.057 M11.602 6.044 C 11.318 6.099,10.877 6.330,10.650 6.543 C 10.383 6.792,7.443 10.582,7.280 10.887 C 6.922 11.556,6.915 12.361,7.262 13.060 C 7.432 13.401,10.330 17.160,10.658 17.463 C 11.432 18.179,12.592 18.170,13.361 17.442 C 13.610 17.207,16.443 13.574,16.670 13.200 C 17.074 12.533,17.100 11.670,16.738 10.940 C 16.573 10.608,13.676 6.849,13.350 6.543 C 12.894 6.116,12.217 5.923,11.602 6.044 M13.482 9.910 C 14.280 10.938,14.953 11.829,14.976 11.890 C 15.005 11.967,15.005 12.033,14.976 12.110 C 14.929 12.232,12.048 15.960,12.000 15.960 C 11.952 15.960,9.071 12.232,9.024 12.110 C 8.995 12.033,8.995 11.967,9.024 11.890 C 9.071 11.768,11.952 8.040,12.000 8.040 C 12.016 8.040,12.683 8.882,13.482 9.910 M2.614 11.057 C 2.377 11.131,2.212 11.261,2.109 11.453 C 2.035 11.592,2.020 11.684,2.020 12.000 C 2.020 12.331,2.033 12.403,2.120 12.558 C 2.230 12.755,2.414 12.898,2.635 12.959 C 2.826 13.012,5.174 13.012,5.365 12.959 C 5.586 12.898,5.770 12.755,5.880 12.558 C 5.967 12.402,5.980 12.332,5.979 12.000 C 5.978 11.687,5.962 11.591,5.890 11.453 C 5.786 11.256,5.623 11.131,5.371 11.055 C 5.117 10.979,2.859 10.981,2.614 11.057 M18.614 11.057 C 18.377 11.131,18.212 11.261,18.109 11.453 C 18.035 11.592,18.020 11.684,18.020 12.000 C 18.020 12.331,18.033 12.403,18.120 12.558 C 18.230 12.755,18.414 12.898,18.635 12.959 C 18.826 13.012,21.174 13.012,21.365 12.959 C 21.586 12.898,21.770 12.755,21.880 12.558 C 21.967 12.402,21.980 12.332,21.979 12.000 C 21.978 11.687,21.962 11.591,21.890 11.453 C 21.786 11.256,21.623 11.131,21.371 11.055 C 21.117 10.979,18.859 10.981,18.614 11.057 M11.614 19.057 C 11.377 19.131,11.212 19.261,11.109 19.453 C 11.023 19.614,11.020 19.665,11.008 20.908 C 11.000 21.720,11.011 22.254,11.038 22.352 C 11.144 22.747,11.432 22.961,11.896 22.991 C 12.381 23.022,12.699 22.882,12.880 22.558 L 12.980 22.380 12.980 21.000 C 12.980 19.650,12.978 19.616,12.891 19.453 C 12.842 19.362,12.746 19.247,12.678 19.199 C 12.414 19.010,11.957 18.950,11.614 19.057 " stroke="none" fill="black" fill-rule="evenodd"></path></svg>