<svg xmlns="http://www.w3.org/2000/svg" width="24" height="24" viewBox="0 0 24 24" fill="none" stroke="currentColor" stroke-width="2" stroke-linecap="round" stroke-linejoin="round" class="icon icon-tabler icons-tabler-outline icon-tabler-antenna"><path d="M19.614 3.057 C 19.377 3.131,19.212 3.261,19.109 3.453 C 19.022 3.617,19.020 3.650,19.008 5.310 L 18.997 7.000 17.998 7.000 L 17.000 7.000 17.000 5.647 C 17.000 4.091,16.984 3.984,16.723 3.747 C 16.536 3.578,16.351 3.520,16.000 3.520 C 15.649 3.520,15.464 3.578,15.277 3.747 C 15.016 3.984,15.000 4.091,15.000 5.647 L 15.000 7.000 14.003 7.000 L 13.005 7.000 12.993 5.810 C 12.980 4.662,12.977 4.614,12.889 4.450 C 12.724 4.140,12.329 3.970,11.874 4.011 C 11.439 4.051,11.141 4.274,11.041 4.635 C 11.018 4.716,11.000 5.270,11.000 5.890 L 11.000 7.000 10.000 7.000 L 9.000 7.000 9.000 6.147 C 9.000 5.138,8.966 4.967,8.723 4.747 C 8.536 4.578,8.351 4.520,8.000 4.520 C 7.649 4.520,7.464 4.578,7.277 4.747 C 7.034 4.967,7.000 5.138,7.000 6.147 L 7.000 7.000 6.004 7.000 L 5.008 7.000 4.993 6.310 C 4.979 5.690,4.969 5.603,4.888 5.450 C 4.725 5.141,4.330 4.970,3.874 5.011 C 3.439 5.051,3.141 5.274,3.041 5.635 C 2.986 5.831,2.986 10.169,3.041 10.365 C 3.148 10.750,3.437 10.962,3.896 10.991 C 4.381 11.022,4.699 10.882,4.880 10.558 C 4.974 10.391,4.981 10.338,4.994 9.690 L 5.008 9.000 6.004 9.000 L 7.000 9.000 7.000 9.853 C 7.000 10.825,7.036 11.023,7.249 11.229 C 7.442 11.416,7.647 11.487,7.997 11.488 C 8.348 11.490,8.556 11.418,8.751 11.229 C 8.964 11.023,9.000 10.825,9.000 9.853 L 9.000 9.000 10.000 9.000 L 11.000 9.000 11.000 15.110 C 11.000 19.080,11.015 21.271,11.041 21.365 C 11.148 21.750,11.437 21.962,11.896 21.991 C 12.381 22.022,12.699 21.882,12.880 21.558 L 12.980 21.380 12.991 15.190 L 13.001 9.000 14.001 9.000 L 15.000 9.000 15.000 10.353 C 15.000 11.867,15.018 12.006,15.249 12.229 C 15.442 12.416,15.647 12.487,15.997 12.488 C 16.348 12.490,16.556 12.418,16.751 12.229 C 16.982 12.006,17.000 11.867,17.000 10.353 L 17.000 9.000 18.000 9.000 L 19.000 9.000 19.000 10.610 C 19.000 11.565,19.017 12.279,19.041 12.365 C 19.148 12.750,19.437 12.962,19.896 12.991 C 20.381 13.022,20.699 12.882,20.880 12.558 L 20.980 12.380 20.980 8.000 L 20.980 3.620 20.891 3.453 C 20.842 3.362,20.746 3.247,20.678 3.199 C 20.414 3.010,19.957 2.950,19.614 3.057 " stroke="none" fill="black" fill-rule="evenodd"></path></svg>