<svg xmlns="http://www.w3.org/2000/svg" width="24" height="24" viewBox="0 0 24 24" fill="none" stroke="currentColor" stroke-width="2" stroke-linecap="round" stroke-linejoin="round" class="icon icon-tabler icons-tabler-outline icon-tabler-schema-off"><path d="M5.614 1.057 C 5.377 1.131,5.212 1.261,5.109 1.453 C 5.035 1.592,5.020 1.684,5.020 2.000 C 5.020 2.331,5.033 2.403,5.120 2.558 C 5.230 2.755,5.414 2.898,5.635 2.959 C 5.721 2.983,6.435 3.000,7.390 3.000 L 9.000 3.000 9.000 4.610 C 9.000 5.565,9.017 6.279,9.041 6.365 C 9.148 6.750,9.437 6.962,9.896 6.991 C 10.381 7.022,10.699 6.882,10.880 6.558 L 10.980 6.380 10.980 4.000 L 10.980 1.620 10.891 1.453 C 10.785 1.256,10.622 1.131,10.371 1.055 C 10.112 0.977,5.864 0.979,5.614 1.057 M2.626 2.045 C 2.257 2.239,1.951 2.673,1.951 3.000 C 1.951 3.321,2.070 3.480,3.061 4.480 L 3.993 5.420 4.007 5.900 C 4.019 6.322,4.033 6.402,4.120 6.558 C 4.307 6.893,4.563 6.999,5.181 7.000 L 5.581 7.000 6.031 7.451 L 6.480 7.901 6.480 8.448 L 6.480 8.995 5.569 9.007 C 4.682 9.020,4.652 9.023,4.459 9.122 C 4.245 9.233,4.105 9.404,4.041 9.635 C 3.986 9.831,3.986 14.169,4.041 14.365 C 4.102 14.586,4.245 14.770,4.442 14.880 C 4.615 14.977,4.644 14.980,5.550 14.993 L 6.480 15.005 6.480 16.000 L 6.480 16.995 5.569 17.007 C 4.682 17.020,4.652 17.023,4.459 17.122 C 4.242 17.234,4.103 17.407,4.039 17.645 C 4.012 17.744,4.001 18.608,4.009 20.089 L 4.020 22.380 4.120 22.558 C 4.230 22.755,4.414 22.898,4.635 22.959 C 4.832 23.014,10.168 23.014,10.365 22.959 C 10.586 22.898,10.770 22.755,10.880 22.558 L 10.980 22.380 10.980 20.000 L 10.980 17.620 10.891 17.453 C 10.686 17.071,10.446 17.000,9.354 17.000 L 8.520 17.000 8.520 16.000 L 8.520 15.000 9.370 15.000 C 9.838 15.000,10.285 14.981,10.365 14.959 C 10.586 14.898,10.770 14.755,10.880 14.558 C 10.974 14.391,10.981 14.338,10.994 13.690 L 11.008 13.000 11.294 13.000 L 11.579 13.000 16.020 17.436 C 19.193 20.606,20.511 21.897,20.637 21.961 C 20.990 22.137,21.355 22.048,21.701 21.701 C 22.048 21.355,22.137 20.990,21.961 20.637 C 21.898 20.511,20.566 19.148,17.353 15.920 C 14.868 13.423,12.795 11.340,12.747 11.292 C 12.699 11.243,12.255 10.799,11.760 10.305 C 11.265 9.811,10.815 9.361,10.760 9.306 C 10.705 9.250,10.132 8.677,9.488 8.032 C 8.843 7.388,8.276 6.820,8.228 6.771 C 8.179 6.723,7.852 6.395,7.500 6.044 C 7.148 5.693,6.815 5.360,6.760 5.303 C 6.705 5.247,6.480 5.022,6.260 4.803 C 6.040 4.585,5.815 4.360,5.760 4.304 C 4.970 3.499,3.504 2.112,3.372 2.045 C 3.152 1.934,2.836 1.934,2.626 2.045 M14.614 9.057 C 14.377 9.131,14.212 9.261,14.109 9.453 C 14.027 9.606,14.019 9.684,14.007 10.405 C 13.999 10.880,14.011 11.252,14.037 11.349 C 14.144 11.748,14.430 11.961,14.896 11.991 C 15.533 12.031,15.915 11.757,15.983 11.210 L 16.009 11.000 17.505 11.000 L 19.000 11.000 19.000 12.000 L 19.000 13.000 18.406 13.000 C 17.577 13.000,17.300 13.097,17.109 13.453 C 17.035 13.592,17.020 13.684,17.020 14.000 C 17.020 14.331,17.033 14.403,17.120 14.558 C 17.230 14.755,17.414 14.898,17.635 14.959 C 17.826 15.012,20.174 15.012,20.365 14.959 C 20.586 14.898,20.770 14.755,20.880 14.558 L 20.980 14.380 20.980 12.000 L 20.980 9.620 20.891 9.453 C 20.785 9.256,20.622 9.131,20.371 9.055 C 20.110 8.977,14.865 8.979,14.614 9.057 M9.000 12.000 L 9.000 13.000 7.500 13.000 L 6.000 13.000 6.000 12.000 L 6.000 11.000 7.500 11.000 L 9.000 11.000 9.000 12.000 M9.000 20.000 L 9.000 21.000 7.500 21.000 L 6.000 21.000 6.000 20.000 L 6.000 19.000 7.500 19.000 L 9.000 19.000 9.000 20.000 " stroke="none" fill="black" fill-rule="evenodd"></path></svg>