<svg xmlns="http://www.w3.org/2000/svg" width="24" height="24" viewBox="0 0 24 24" fill="none" stroke="currentColor" stroke-width="2" stroke-linecap="round" stroke-linejoin="round" class="icon icon-tabler icons-tabler-outline icon-tabler-lollipop-off"><path d="M2.626 2.045 C 2.420 2.154,2.146 2.433,2.038 2.644 C 1.924 2.868,1.924 3.132,2.040 3.363 C 2.101 3.485,2.777 4.190,4.224 5.641 L 6.320 7.742 6.222 8.129 C 5.863 9.542,5.933 11.086,6.423 12.557 C 6.694 13.372,7.077 14.117,7.535 14.720 L 7.672 14.900 4.900 17.680 C 2.958 19.628,2.102 20.513,2.039 20.637 C 1.863 20.990,1.952 21.354,2.299 21.701 C 2.646 22.048,3.010 22.137,3.363 21.961 C 3.487 21.898,4.372 21.042,6.320 19.100 L 9.100 16.328 9.280 16.465 C 9.883 16.923,10.628 17.306,11.443 17.577 C 12.922 18.069,14.353 18.134,15.860 17.778 L 16.260 17.684 18.360 19.778 C 19.810 21.223,20.515 21.899,20.637 21.960 C 20.990 22.137,21.354 22.048,21.701 21.701 C 22.048 21.354,22.137 20.989,21.960 20.637 C 21.862 20.440,21.294 19.869,10.391 8.974 C 5.670 4.257,3.488 2.102,3.372 2.044 C 3.152 1.934,2.835 1.935,2.626 2.045 M13.020 2.065 C 11.302 2.283,9.710 3.039,8.486 4.217 C 8.016 4.670,7.900 5.008,8.084 5.388 C 8.185 5.597,8.475 5.896,8.675 5.997 C 8.918 6.120,9.050 6.131,9.294 6.049 L 9.518 5.973 9.513 6.357 C 9.507 6.844,9.562 7.042,9.760 7.240 C 10.102 7.582,10.897 7.583,11.238 7.242 C 11.413 7.067,11.465 6.904,11.518 6.360 C 11.567 5.854,11.607 5.705,11.789 5.340 C 11.965 4.990,12.469 4.478,12.820 4.293 C 13.241 4.072,13.477 4.022,14.080 4.027 C 15.391 4.037,16.512 4.420,17.618 5.236 L 17.977 5.500 17.378 5.525 C 17.046 5.538,16.656 5.579,16.500 5.616 C 14.693 6.050,13.355 7.482,13.059 9.300 C 12.912 10.205,13.047 10.720,13.480 10.907 C 13.557 10.940,13.818 10.984,14.060 11.004 C 14.849 11.069,15.237 11.239,15.744 11.740 C 15.994 11.987,16.105 12.134,16.230 12.386 C 16.393 12.715,16.433 12.885,16.517 13.613 C 16.563 14.016,16.650 14.193,16.875 14.341 C 17.149 14.521,17.729 14.541,18.048 14.382 C 18.167 14.323,18.169 14.323,18.108 14.391 C 18.010 14.499,17.882 14.806,17.881 14.935 C 17.879 15.191,17.973 15.376,18.241 15.647 C 18.455 15.863,18.547 15.925,18.724 15.977 C 19.064 16.076,19.280 15.996,19.666 15.629 C 20.779 14.572,21.576 13.029,21.888 11.329 C 22.011 10.657,22.011 9.344,21.889 8.680 C 21.567 6.940,20.858 5.575,19.642 4.356 C 17.902 2.611,15.435 1.758,13.020 2.065 M18.116 7.581 C 18.842 7.753,19.575 8.402,19.839 9.107 C 20.145 9.925,19.943 11.505,19.390 12.620 C 19.146 13.113,18.654 13.841,18.458 14.001 C 18.391 14.055,18.388 14.053,18.416 13.980 C 18.582 13.550,18.467 12.547,18.167 11.812 C 17.677 10.605,16.659 9.649,15.430 9.239 C 15.282 9.190,15.160 9.132,15.160 9.110 C 15.160 8.982,15.460 8.539,15.740 8.255 C 16.090 7.900,16.453 7.683,16.872 7.582 C 17.179 7.508,17.801 7.507,18.116 7.581 M9.536 10.956 C 11.195 12.616,11.120 12.495,10.498 12.493 C 10.081 12.492,9.818 12.429,9.400 12.230 C 8.693 11.894,8.164 11.180,8.043 10.399 C 7.994 10.083,7.985 9.480,8.030 9.480 C 8.047 9.480,8.724 10.144,9.536 10.956 M13.554 14.974 L 14.527 15.948 14.338 15.974 C 13.770 16.052,12.867 15.940,12.122 15.699 C 11.427 15.474,10.649 15.045,10.200 14.638 L 10.020 14.475 10.287 14.498 C 10.830 14.546,11.755 14.373,12.286 14.126 C 12.426 14.060,12.549 14.005,12.560 14.003 C 12.571 14.002,13.019 14.438,13.554 14.974 " stroke="none" fill="black" fill-rule="evenodd"></path></svg>