<svg xmlns="http://www.w3.org/2000/svg" width="24" height="24" viewBox="0 0 24 24" fill="none" stroke="currentColor" stroke-width="2" stroke-linecap="round" stroke-linejoin="round" class="icon icon-tabler icons-tabler-outline icon-tabler-hexagon-minus-2"><path d="M11.542 1.044 C 11.206 1.093,10.917 1.183,10.607 1.334 C 10.326 1.471,3.711 5.363,3.400 5.574 C 2.940 5.886,2.556 6.345,2.298 6.892 C 2.004 7.516,2.023 7.205,2.009 11.720 C 1.999 15.327,2.005 15.816,2.062 16.100 C 2.197 16.773,2.552 17.405,3.043 17.852 C 3.266 18.054,4.217 18.675,6.849 20.339 C 8.779 21.559,10.434 22.596,10.527 22.644 C 11.453 23.116,12.552 23.110,13.505 22.628 C 13.920 22.417,14.127 22.147,14.127 21.813 C 14.127 21.425,13.841 20.933,13.520 20.767 C 13.281 20.644,13.014 20.669,12.560 20.857 C 12.145 21.030,11.887 21.042,11.560 20.907 C 11.284 20.791,4.519 16.513,4.356 16.350 C 4.290 16.284,4.188 16.138,4.128 16.025 L 4.020 15.820 4.020 11.860 L 4.020 7.900 4.129 7.693 C 4.190 7.578,4.301 7.425,4.376 7.353 C 4.581 7.155,11.457 3.115,11.700 3.049 C 11.976 2.974,12.346 3.011,12.597 3.139 C 12.881 3.282,19.000 6.894,19.338 7.116 C 19.491 7.217,19.675 7.377,19.747 7.472 C 20.008 7.814,20.000 7.681,20.000 11.637 C 20.000 13.914,20.015 15.273,20.041 15.365 C 20.148 15.750,20.437 15.962,20.896 15.991 C 21.381 16.022,21.699 15.882,21.880 15.558 L 21.980 15.380 21.993 11.680 C 22.002 8.942,21.993 7.907,21.958 7.700 C 21.823 6.911,21.439 6.244,20.812 5.713 C 20.635 5.563,19.382 4.802,17.082 3.447 C 15.178 2.326,13.548 1.372,13.460 1.329 C 12.903 1.057,12.187 0.950,11.542 1.044 M15.614 18.057 C 15.377 18.131,15.212 18.261,15.109 18.453 C 15.035 18.592,15.020 18.684,15.020 19.000 C 15.020 19.331,15.033 19.403,15.120 19.558 C 15.230 19.755,15.414 19.898,15.635 19.959 C 15.832 20.014,22.168 20.014,22.365 19.959 C 22.586 19.898,22.770 19.755,22.880 19.558 C 22.967 19.402,22.980 19.332,22.979 19.000 C 22.978 18.567,22.898 18.355,22.678 18.199 C 22.398 17.999,22.411 18.000,18.984 18.003 C 16.472 18.005,15.744 18.017,15.614 18.057 " stroke="none" fill="black" fill-rule="evenodd"></path></svg>