<svg xmlns="http://www.w3.org/2000/svg" width="24" height="24" viewBox="0 0 24 24" fill="none" stroke="currentColor" stroke-width="2" stroke-linecap="round" stroke-linejoin="round" class="icon icon-tabler icons-tabler-outline icon-tabler-shield-exclamation"><path d="M11.660 2.055 C 11.550 2.107,11.271 2.306,11.040 2.497 C 9.764 3.555,8.299 4.286,6.632 4.697 C 5.770 4.909,5.293 4.968,4.180 4.998 C 3.619 5.014,3.135 5.045,3.078 5.069 C 2.911 5.139,2.722 5.319,2.635 5.490 C 2.590 5.578,2.484 5.926,2.399 6.264 C 1.692 9.077,1.966 12.080,3.174 14.745 C 3.846 16.230,4.635 17.360,5.838 18.561 C 6.977 19.698,8.147 20.530,9.480 21.151 C 10.322 21.543,11.679 22.000,12.001 22.000 C 12.297 22.000,13.549 21.581,14.400 21.197 C 14.939 20.954,15.665 20.549,15.813 20.409 C 16.092 20.143,16.154 19.780,15.981 19.409 C 15.757 18.927,15.489 18.719,15.096 18.721 C 14.891 18.722,14.811 18.748,14.480 18.922 C 13.630 19.371,12.920 19.677,12.245 19.887 L 11.991 19.966 11.605 19.839 C 10.338 19.419,9.273 18.850,8.221 18.032 C 6.268 16.513,4.807 14.194,4.281 11.776 C 3.973 10.360,3.944 8.703,4.203 7.360 C 4.277 6.977,4.255 7.000,4.556 7.000 C 5.546 7.000,6.988 6.731,8.218 6.316 C 9.511 5.880,10.721 5.248,11.850 4.417 L 12.000 4.307 12.150 4.417 C 13.285 5.252,14.483 5.878,15.784 6.317 C 17.011 6.731,18.454 7.000,19.444 7.000 C 19.754 7.000,19.725 6.963,19.816 7.480 C 19.939 8.177,19.974 8.601,19.974 9.380 C 19.974 10.225,19.939 10.592,19.774 11.500 C 19.655 12.151,19.665 12.376,19.824 12.606 C 20.024 12.894,20.663 13.105,21.031 13.004 C 21.248 12.944,21.473 12.747,21.567 12.533 C 21.660 12.324,21.810 11.587,21.905 10.880 C 22.002 10.149,22.002 8.550,21.905 7.860 C 21.769 6.901,21.511 5.776,21.357 5.475 C 21.277 5.317,21.084 5.137,20.922 5.069 C 20.865 5.045,20.381 5.014,19.820 4.998 C 18.684 4.967,18.185 4.904,17.300 4.680 C 15.680 4.270,14.198 3.525,12.960 2.498 C 12.505 2.120,12.220 1.961,12.000 1.961 C 11.923 1.961,11.770 2.003,11.660 2.055 M18.614 15.057 C 18.377 15.131,18.212 15.261,18.109 15.453 C 18.021 15.618,18.020 15.647,18.008 17.410 C 18.001 18.557,18.012 19.255,18.038 19.354 C 18.144 19.747,18.433 19.961,18.896 19.991 C 19.381 20.022,19.699 19.882,19.880 19.558 L 19.980 19.380 19.980 17.500 C 19.980 15.633,19.979 15.619,19.891 15.453 C 19.842 15.362,19.746 15.247,19.678 15.199 C 19.414 15.010,18.957 14.950,18.614 15.057 M18.614 21.057 C 18.221 21.180,18.039 21.435,18.009 21.906 C 17.962 22.621,18.306 23.000,19.000 23.000 C 19.698 23.000,20.043 22.616,19.989 21.900 C 19.963 21.563,19.859 21.327,19.678 21.199 C 19.414 21.010,18.957 20.950,18.614 21.057 " stroke="none" fill="black" fill-rule="evenodd"></path></svg>