<svg xmlns="http://www.w3.org/2000/svg" width="24" height="24" viewBox="0 0 24 24" fill="none" stroke="currentColor" stroke-width="2" stroke-linecap="round" stroke-linejoin="round" class="icon icon-tabler icons-tabler-outline icon-tabler-cloud-question"><path d="M11.320 4.044 C 10.902 4.092,10.295 4.225,9.864 4.364 C 9.364 4.525,8.537 4.945,8.080 5.270 C 7.615 5.601,6.942 6.268,6.620 6.720 C 6.388 7.045,5.920 7.917,5.920 8.025 C 5.920 8.055,5.879 8.086,5.830 8.095 C 4.523 8.335,3.578 8.793,2.695 9.615 C 2.245 10.034,1.884 10.528,1.580 11.140 C 1.187 11.930,1.000 12.701,1.001 13.520 C 1.004 15.982,2.739 18.176,5.180 18.805 C 5.936 18.999,5.914 18.999,10.443 18.999 C 15.090 19.000,14.967 19.006,15.215 18.775 C 15.402 18.600,15.490 18.351,15.488 18.000 C 15.486 17.535,15.357 17.287,15.020 17.106 L 14.860 17.020 10.440 16.998 C 6.104 16.976,6.015 16.974,5.740 16.892 C 4.928 16.649,4.436 16.359,3.935 15.827 C 2.312 14.102,2.890 11.397,5.098 10.377 C 5.508 10.188,5.955 10.082,6.515 10.043 C 7.289 9.990,7.456 9.857,7.668 9.124 C 7.927 8.227,8.426 7.509,9.179 6.949 C 10.607 5.887,12.648 5.706,14.265 6.498 C 15.998 7.347,16.860 8.915,16.583 10.715 C 16.510 11.183,16.520 11.323,16.644 11.567 C 16.739 11.753,16.905 11.871,17.207 11.965 C 17.531 12.066,18.596 12.073,18.922 11.976 C 19.196 11.894,19.414 11.685,19.481 11.439 C 19.555 11.164,19.515 10.653,19.404 10.456 C 19.297 10.266,19.056 10.097,18.840 10.060 C 18.667 10.031,18.641 9.979,18.640 9.660 C 18.638 8.844,18.168 7.546,17.573 6.710 C 17.259 6.270,16.583 5.600,16.119 5.271 C 15.656 4.942,14.829 4.522,14.327 4.360 C 13.389 4.059,12.251 3.939,11.320 4.044 M18.440 14.058 C 18.297 14.089,18.102 14.142,18.008 14.176 C 17.203 14.466,16.442 15.217,16.440 15.722 C 16.439 16.052,16.769 16.475,17.174 16.663 C 17.548 16.838,17.807 16.775,18.193 16.419 C 18.501 16.134,18.650 16.048,18.893 16.015 C 19.121 15.984,19.458 16.082,19.640 16.234 C 19.988 16.522,20.086 17.066,19.863 17.470 C 19.668 17.823,19.453 17.951,18.970 18.001 C 18.245 18.076,17.960 18.406,18.012 19.110 C 18.069 19.867,18.595 20.142,19.591 19.936 C 20.218 19.807,20.691 19.543,21.146 19.069 C 21.488 18.713,21.648 18.463,21.797 18.055 C 22.409 16.374,21.489 14.571,19.780 14.102 C 19.448 14.010,18.765 13.988,18.440 14.058 M18.614 21.057 C 18.221 21.180,18.039 21.435,18.009 21.906 C 17.962 22.621,18.306 23.000,19.000 23.000 C 19.698 23.000,20.043 22.616,19.989 21.900 C 19.963 21.563,19.859 21.327,19.678 21.199 C 19.414 21.010,18.957 20.950,18.614 21.057 " stroke="none" fill="black" fill-rule="evenodd"></path></svg>