<svg xmlns="http://www.w3.org/2000/svg" width="24" height="24" viewBox="0 0 24 24" fill="none" stroke="currentColor" stroke-width="2" stroke-linecap="round" stroke-linejoin="round" class="icon icon-tabler icons-tabler-outline icon-tabler-pinned-off"><path d="M2.626 2.045 C 2.420 2.154,2.146 2.433,2.038 2.644 C 1.924 2.868,1.924 3.132,2.040 3.363 C 2.102 3.487,2.915 4.328,4.748 6.165 L 7.368 8.790 7.074 8.900 C 6.472 9.126,6.381 9.195,5.467 10.115 C 4.559 11.029,4.442 11.187,4.442 11.500 C 4.442 11.838,4.528 11.943,6.091 13.510 L 7.578 15.000 5.591 16.990 C 4.089 18.495,3.585 19.024,3.523 19.160 C 3.361 19.519,3.449 19.853,3.798 20.202 C 4.149 20.553,4.483 20.641,4.837 20.474 C 4.973 20.410,5.533 19.877,7.010 18.405 L 8.999 16.423 10.510 17.926 C 12.156 19.564,12.194 19.594,12.578 19.550 C 12.861 19.518,13.080 19.345,13.989 18.429 C 14.876 17.536,14.867 17.548,15.100 16.926 L 15.210 16.632 17.835 19.252 C 19.672 21.085,20.513 21.898,20.637 21.960 C 20.990 22.137,21.354 22.048,21.701 21.701 C 22.116 21.286,22.159 20.868,21.832 20.440 C 21.790 20.385,19.070 17.653,15.788 14.368 C 4.990 3.563,3.550 2.134,3.372 2.044 C 3.152 1.934,2.835 1.935,2.626 2.045 M14.171 3.019 C 13.968 3.108,13.637 3.440,13.535 3.660 C 13.420 3.905,13.417 4.085,13.522 4.318 L 13.603 4.495 12.226 5.878 C 11.468 6.638,10.816 7.323,10.777 7.400 C 10.683 7.582,10.684 7.897,10.779 8.094 C 10.881 8.307,11.203 8.627,11.409 8.721 C 11.618 8.815,11.859 8.821,12.065 8.737 C 12.174 8.692,12.635 8.260,13.610 7.287 L 15.001 5.901 16.550 7.450 L 18.099 8.999 16.713 10.390 C 15.740 11.365,15.308 11.826,15.263 11.935 C 15.179 12.141,15.185 12.382,15.279 12.590 C 15.374 12.799,15.685 13.116,15.900 13.221 C 16.100 13.319,16.411 13.320,16.600 13.223 C 16.677 13.184,17.362 12.532,18.122 11.774 L 19.505 10.397 19.682 10.478 C 19.915 10.583,20.095 10.580,20.340 10.465 C 20.569 10.358,20.896 10.027,20.986 9.812 C 21.070 9.610,21.062 9.350,20.964 9.150 C 20.857 8.928,15.120 3.181,14.875 3.050 C 14.680 2.945,14.372 2.932,14.171 3.019 M11.296 12.716 L 13.652 15.073 13.397 15.757 L 13.141 16.441 12.820 16.760 L 12.499 17.079 9.709 14.289 L 6.919 11.499 7.240 11.180 L 7.562 10.860 8.211 10.613 C 8.568 10.477,8.878 10.364,8.900 10.363 C 8.922 10.361,10.000 11.420,11.296 12.716 " stroke="none" fill="black" fill-rule="evenodd"></path></svg>