<svg xmlns="http://www.w3.org/2000/svg" width="24" height="24" viewBox="0 0 24 24" fill="none" stroke="currentColor" stroke-width="2" stroke-linecap="round" stroke-linejoin="round" class="icon icon-tabler icons-tabler-outline icon-tabler-file-type-zip"><path d="M6.499 2.043 C 5.393 2.228,4.488 3.024,4.114 4.140 L 4.020 4.420 4.009 8.311 C 4.001 10.892,4.011 12.253,4.039 12.355 C 4.144 12.747,4.433 12.961,4.896 12.991 C 5.381 13.022,5.699 12.882,5.880 12.558 L 5.980 12.380 6.000 8.560 C 6.022 4.280,5.999 4.597,6.321 4.283 C 6.622 3.992,6.514 4.000,9.947 4.000 L 13.000 4.000 13.000 5.632 C 13.000 7.399,13.010 7.507,13.225 7.930 C 13.361 8.199,13.801 8.639,14.070 8.775 C 14.493 8.990,14.601 9.000,16.368 9.000 L 18.000 9.000 18.000 10.610 C 18.000 11.565,18.017 12.279,18.041 12.365 C 18.148 12.750,18.437 12.962,18.896 12.991 C 19.381 13.022,19.699 12.882,19.880 12.558 L 19.980 12.380 19.980 10.000 L 19.980 7.620 19.890 7.452 C 19.841 7.360,19.724 7.231,19.630 7.165 C 19.498 7.073,15.263 2.838,14.719 2.254 C 14.473 1.991,14.626 2.000,10.463 2.005 C 8.393 2.007,6.609 2.025,6.499 2.043 M15.800 6.220 L 16.579 7.000 15.790 7.000 L 15.000 7.000 15.000 6.220 C 15.000 5.791,15.005 5.440,15.010 5.440 C 15.016 5.440,15.371 5.791,15.800 6.220 M4.614 14.057 C 4.377 14.131,4.212 14.261,4.109 14.453 C 4.035 14.592,4.020 14.684,4.020 15.000 C 4.020 15.331,4.033 15.403,4.120 15.558 C 4.230 15.755,4.414 15.898,4.635 15.959 C 4.715 15.981,5.135 16.000,5.570 16.000 C 6.005 16.000,6.360 16.009,6.360 16.019 C 6.360 16.030,5.828 17.105,5.177 18.409 C 3.857 21.056,3.860 21.048,4.040 21.420 C 4.096 21.535,4.201 21.658,4.315 21.742 C 4.666 21.999,4.676 22.000,6.537 22.000 C 7.541 22.000,8.278 21.983,8.365 21.959 C 8.586 21.898,8.770 21.755,8.880 21.558 C 8.967 21.402,8.980 21.332,8.979 21.000 C 8.978 20.567,8.898 20.355,8.678 20.199 C 8.445 20.033,8.237 20.000,7.414 20.000 C 6.988 20.000,6.640 19.991,6.640 19.981 C 6.640 19.970,7.167 18.907,7.810 17.619 L 8.980 15.276 8.978 14.948 C 8.974 14.436,8.803 14.185,8.371 14.055 C 8.114 13.978,4.862 13.980,4.614 14.057 M11.614 14.057 C 11.377 14.131,11.212 14.261,11.109 14.453 L 11.020 14.620 11.009 17.912 C 11.002 20.060,11.012 21.257,11.039 21.356 C 11.144 21.747,11.434 21.961,11.896 21.991 C 12.381 22.022,12.699 21.882,12.880 21.558 L 12.980 21.380 12.980 18.000 L 12.980 14.620 12.891 14.453 C 12.842 14.362,12.746 14.247,12.678 14.199 C 12.414 14.010,11.957 13.950,11.614 14.057 M15.614 14.057 C 15.377 14.131,15.212 14.261,15.109 14.453 L 15.020 14.620 15.009 17.912 C 15.002 20.060,15.012 21.257,15.039 21.356 C 15.144 21.747,15.434 21.961,15.896 21.991 C 16.381 22.022,16.699 21.882,16.880 21.558 C 16.979 21.381,16.980 21.374,16.993 20.195 L 17.005 19.010 17.513 18.991 C 17.925 18.975,18.076 18.951,18.320 18.865 C 19.031 18.614,19.605 18.041,19.867 17.320 C 19.965 17.051,19.976 16.966,19.976 16.500 C 19.976 16.035,19.965 15.948,19.868 15.680 C 19.732 15.306,19.458 14.898,19.165 14.636 C 18.887 14.387,18.390 14.137,18.020 14.060 C 17.647 13.982,15.861 13.980,15.614 14.057 M17.748 16.078 C 17.893 16.167,18.000 16.346,18.000 16.500 C 18.000 16.654,17.893 16.833,17.748 16.922 C 17.650 16.981,17.547 17.000,17.310 17.000 L 17.000 17.000 17.000 16.500 L 17.000 16.000 17.310 16.000 C 17.547 16.000,17.650 16.019,17.748 16.078 " stroke="none" fill="black" fill-rule="evenodd"></path></svg>