<svg xmlns="http://www.w3.org/2000/svg" width="24" height="24" viewBox="0 0 24 24" fill="none" stroke="currentColor" stroke-width="2" stroke-linecap="round" stroke-linejoin="round" class="icon icon-tabler icons-tabler-outline icon-tabler-brand-livewire"><path d="M10.940 3.045 C 6.217 3.496,2.225 7.131,1.241 11.880 C 1.096 12.581,1.038 13.101,1.013 13.945 C 0.952 15.936,1.315 17.585,2.211 19.400 C 2.503 19.990,2.567 20.090,2.819 20.341 C 3.263 20.786,3.758 21.000,4.340 21.000 C 5.150 21.000,5.747 20.617,6.335 19.720 C 6.686 19.185,6.789 19.071,6.881 19.120 C 6.919 19.141,7.122 19.389,7.333 19.673 C 7.544 19.956,7.821 20.285,7.950 20.404 C 8.815 21.205,10.063 21.201,10.882 20.395 C 11.009 20.270,11.243 19.972,11.402 19.733 C 11.744 19.220,11.868 19.078,11.948 19.109 C 11.980 19.121,12.184 19.368,12.400 19.658 C 12.616 19.948,12.904 20.288,13.040 20.414 C 13.892 21.203,15.148 21.197,15.955 20.402 C 16.079 20.279,16.313 19.982,16.476 19.740 C 16.824 19.222,16.949 19.078,17.025 19.107 C 17.055 19.119,17.257 19.365,17.473 19.654 C 17.926 20.259,18.286 20.613,18.608 20.770 C 19.251 21.083,19.959 21.077,20.565 20.754 C 21.377 20.321,22.212 18.857,22.659 17.080 C 23.036 15.581,23.100 13.866,22.837 12.307 C 22.112 8.017,18.973 4.509,14.846 3.377 C 13.641 3.046,12.206 2.924,10.940 3.045 M13.280 5.102 C 14.151 5.233,14.991 5.496,15.825 5.898 C 16.768 6.352,17.517 6.888,18.273 7.650 C 19.050 8.433,19.549 9.134,20.020 10.100 C 20.476 11.037,20.747 11.909,20.906 12.960 C 21.003 13.598,21.003 14.929,20.907 15.560 C 20.775 16.427,20.503 17.382,20.189 18.086 C 20.084 18.321,19.732 18.867,19.632 18.950 C 19.542 19.025,19.452 18.938,19.007 18.347 C 18.584 17.786,18.448 17.646,18.105 17.418 C 17.816 17.226,17.486 17.119,17.104 17.093 C 16.262 17.037,15.599 17.421,15.022 18.300 C 14.892 18.498,14.725 18.736,14.650 18.830 C 14.534 18.976,14.504 18.994,14.435 18.957 C 14.392 18.934,14.201 18.705,14.011 18.447 C 13.822 18.190,13.545 17.860,13.397 17.713 C 12.560 16.886,11.278 16.870,10.444 17.677 C 10.317 17.800,10.082 18.098,9.922 18.340 C 9.543 18.910,9.452 19.009,9.354 18.957 C 9.313 18.935,9.099 18.676,8.880 18.382 C 8.661 18.088,8.380 17.757,8.256 17.647 C 7.399 16.883,6.159 16.896,5.365 17.678 C 5.241 17.800,4.994 18.116,4.815 18.380 C 4.636 18.644,4.453 18.892,4.409 18.932 C 4.333 19.001,4.327 19.001,4.257 18.932 C 4.152 18.827,3.713 17.887,3.542 17.400 C 3.172 16.348,3.024 15.453,3.024 14.260 C 3.024 12.716,3.311 11.466,3.979 10.100 C 4.453 9.130,4.952 8.431,5.727 7.650 C 7.250 6.115,9.156 5.227,11.360 5.025 C 11.708 4.993,12.865 5.039,13.280 5.102 M11.080 6.023 C 10.361 6.106,9.764 6.276,9.197 6.561 C 8.099 7.113,7.133 8.107,6.593 9.238 C 6.152 10.162,5.969 11.057,6.011 12.076 C 6.073 13.532,6.531 14.687,7.383 15.534 C 7.764 15.912,8.084 16.145,8.547 16.377 C 10.202 17.210,12.798 17.210,14.453 16.377 C 16.023 15.587,16.904 14.093,16.989 12.076 C 17.031 11.057,16.848 10.162,16.407 9.238 C 15.641 7.633,14.108 6.414,12.460 6.099 C 12.156 6.041,11.325 5.995,11.080 6.023 M12.318 8.121 C 13.255 8.385,14.106 9.116,14.574 10.060 C 14.902 10.721,15.030 11.348,14.985 12.079 C 14.931 12.968,14.672 13.644,14.208 14.108 C 13.783 14.534,13.363 14.743,12.600 14.906 C 12.118 15.010,10.882 15.010,10.400 14.906 C 9.637 14.743,9.217 14.534,8.792 14.108 C 8.328 13.644,8.069 12.968,8.015 12.080 C 7.991 11.678,8.041 11.072,8.116 10.870 C 8.146 10.788,8.156 10.795,8.240 10.961 C 8.364 11.204,8.814 11.645,9.070 11.775 C 9.659 12.073,10.341 12.073,10.930 11.775 C 11.196 11.640,11.638 11.200,11.771 10.937 C 12.065 10.358,12.068 9.649,11.781 9.083 C 11.641 8.805,11.290 8.442,11.005 8.279 C 10.872 8.203,10.762 8.128,10.761 8.112 C 10.761 8.097,10.845 8.073,10.950 8.059 C 11.055 8.045,11.158 8.026,11.180 8.017 C 11.282 7.975,12.047 8.045,12.318 8.121 " stroke="none" fill="black" fill-rule="evenodd"></path></svg>