<svg xmlns="http://www.w3.org/2000/svg" width="24" height="24" viewBox="0 0 24 24" fill="none" stroke="currentColor" stroke-width="2" stroke-linecap="round" stroke-linejoin="round" class="icon icon-tabler icons-tabler-outline icon-tabler-navigation-bolt"><path d="M11.731 2.038 C 11.482 2.128,11.312 2.242,11.205 2.394 C 11.094 2.549,3.206 19.639,3.088 19.980 C 2.808 20.787,3.255 21.654,4.091 21.923 C 4.581 22.081,4.511 22.100,8.450 20.762 L 11.999 19.556 12.498 19.718 C 13.016 19.886,13.164 19.906,13.401 19.840 C 13.792 19.732,14.140 19.027,14.035 18.559 C 13.948 18.171,13.741 18.029,12.801 17.714 C 12.352 17.563,12.169 17.521,11.981 17.523 C 11.775 17.525,11.291 17.679,8.600 18.594 C 6.873 19.182,5.455 19.651,5.449 19.638 C 5.434 19.606,11.971 5.440,12.000 5.440 C 12.012 5.440,12.857 7.249,13.877 9.460 C 15.126 12.168,15.776 13.531,15.866 13.637 C 16.119 13.931,16.514 13.993,16.943 13.803 C 17.494 13.559,17.706 13.154,17.539 12.663 C 17.415 12.298,12.832 2.415,12.725 2.282 C 12.577 2.098,12.309 1.960,12.104 1.961 C 12.014 1.962,11.846 1.997,11.731 2.038 M18.620 15.026 C 18.554 15.061,18.448 15.137,18.385 15.195 C 18.251 15.318,16.144 18.459,16.035 18.698 C 15.944 18.898,15.939 19.204,16.024 19.382 C 16.059 19.456,16.168 19.591,16.266 19.681 C 16.585 19.975,16.597 19.978,17.930 20.000 L 19.120 20.020 18.615 20.777 C 18.033 21.649,17.962 21.788,17.961 22.054 C 17.960 22.304,18.044 22.477,18.266 22.681 C 18.749 23.127,19.289 23.155,19.665 22.754 C 19.872 22.534,21.885 19.481,21.950 19.289 C 22.073 18.929,21.941 18.385,21.686 18.204 C 21.441 18.030,21.382 18.022,20.110 18.001 L 18.880 17.980 19.385 17.223 C 19.967 16.351,20.038 16.212,20.039 15.946 C 20.040 15.696,19.956 15.523,19.734 15.319 C 19.383 14.996,18.913 14.872,18.620 15.026 " stroke="none" fill="black" fill-rule="evenodd"></path></svg>