<svg xmlns="http://www.w3.org/2000/svg" width="24" height="24" viewBox="0 0 24 24" fill="none" stroke="currentColor" stroke-width="2" stroke-linecap="round" stroke-linejoin="round" class="icon icon-tabler icons-tabler-outline icon-tabler-sandbox"><path d="M12.480 2.083 C 12.078 2.318,11.853 3.109,12.076 3.503 C 12.250 3.811,12.419 3.885,13.806 4.260 L 14.513 4.451 14.458 4.635 C 14.429 4.737,14.089 5.925,13.703 7.275 C 13.318 8.626,12.992 9.741,12.980 9.753 C 12.968 9.765,12.711 9.688,12.409 9.582 C 11.191 9.153,10.539 9.027,9.520 9.024 C 8.556 9.022,7.755 9.163,6.848 9.495 C 6.246 9.716,6.019 9.926,5.975 10.304 C 5.930 10.684,6.192 11.242,6.500 11.422 C 6.751 11.569,7.007 11.555,7.564 11.363 C 8.412 11.070,9.214 10.963,9.981 11.039 C 10.558 11.097,10.967 11.196,11.720 11.459 C 12.490 11.728,13.003 11.858,13.612 11.938 C 14.729 12.084,15.880 11.951,17.051 11.538 C 17.550 11.363,17.633 11.319,17.814 11.133 C 18.053 10.887,18.093 10.635,17.957 10.232 C 17.712 9.505,17.302 9.333,16.492 9.618 C 16.049 9.774,15.563 9.900,15.244 9.941 C 15.033 9.968,15.029 9.967,15.048 9.875 C 15.093 9.649,16.416 5.056,16.445 5.023 C 16.464 5.002,16.858 5.090,17.406 5.240 C 18.425 5.518,18.619 5.550,18.866 5.484 C 19.291 5.369,19.622 4.649,19.481 4.145 C 19.424 3.941,19.212 3.714,18.992 3.622 C 18.863 3.569,16.563 2.923,15.769 2.717 C 15.610 2.676,14.950 2.498,14.304 2.321 C 13.000 1.965,12.742 1.931,12.480 2.083 M5.659 4.058 C 5.066 4.166,4.565 4.437,4.101 4.900 C 3.734 5.266,3.520 5.606,3.381 6.047 C 3.315 6.255,3.079 7.695,2.652 10.507 L 2.021 14.660 2.009 16.006 C 1.998 17.246,2.004 17.386,2.081 17.765 C 2.222 18.457,2.509 19.054,2.954 19.584 C 3.529 20.266,4.331 20.735,5.243 20.921 C 5.622 20.998,5.805 21.000,12.000 21.000 C 18.195 21.000,18.378 20.998,18.757 20.921 C 20.117 20.643,21.193 19.755,21.704 18.488 C 21.970 17.827,22.005 17.529,21.991 16.006 L 21.979 14.660 21.470 11.300 C 21.190 9.452,20.931 7.825,20.894 7.685 C 20.760 7.168,20.367 6.937,19.795 7.041 C 19.500 7.094,19.301 7.189,19.153 7.346 C 19.007 7.500,18.960 7.641,18.960 7.923 C 18.960 8.111,19.734 13.460,19.823 13.890 L 19.846 14.000 12.000 14.000 L 4.154 14.000 4.177 13.890 C 4.189 13.830,4.433 12.216,4.720 10.305 C 5.006 8.394,5.261 6.760,5.286 6.675 C 5.347 6.474,5.565 6.221,5.774 6.109 C 5.938 6.021,5.963 6.020,8.160 6.000 C 10.334 5.980,10.383 5.978,10.540 5.894 C 10.875 5.715,10.978 5.504,10.978 5.000 C 10.978 4.686,10.963 4.591,10.890 4.453 C 10.786 4.256,10.623 4.131,10.371 4.055 C 10.117 3.979,6.082 3.981,5.659 4.058 M19.999 16.590 C 19.998 17.558,19.879 17.919,19.400 18.404 C 19.119 18.690,18.854 18.846,18.492 18.940 C 18.147 19.030,5.853 19.030,5.508 18.940 C 4.823 18.762,4.249 18.194,4.073 17.523 C 4.023 17.331,4.004 17.090,4.002 16.630 L 4.000 16.000 12.000 16.000 L 20.000 16.000 19.999 16.590 " stroke="none" fill="black" fill-rule="evenodd"></path></svg>