<svg xmlns="http://www.w3.org/2000/svg" width="24" height="24" viewBox="0 0 24 24" fill="none" stroke="currentColor" stroke-width="2" stroke-linecap="round" stroke-linejoin="round" class="icon icon-tabler icons-tabler-outline icon-tabler-click"><path d="M11.614 2.057 C 11.377 2.131,11.212 2.261,11.109 2.453 C 11.021 2.618,11.020 2.647,11.008 4.410 C 11.001 5.557,11.012 6.255,11.038 6.354 C 11.144 6.747,11.433 6.961,11.896 6.991 C 12.381 7.022,12.699 6.882,12.880 6.558 L 12.980 6.380 12.980 4.500 C 12.980 2.633,12.979 2.619,12.891 2.453 C 12.842 2.362,12.746 2.247,12.678 2.199 C 12.414 2.010,11.957 1.950,11.614 2.057 M5.226 4.645 C 5.020 4.754,4.746 5.033,4.638 5.244 C 4.524 5.468,4.524 5.732,4.640 5.963 C 4.762 6.208,7.192 8.638,7.437 8.760 C 7.790 8.937,8.154 8.848,8.501 8.501 C 8.848 8.154,8.937 7.790,8.760 7.437 C 8.641 7.199,6.208 4.762,5.972 4.644 C 5.752 4.534,5.435 4.535,5.226 4.645 M18.020 4.646 C 17.789 4.765,15.353 7.211,15.240 7.437 C 15.063 7.790,15.152 8.154,15.499 8.501 C 15.846 8.848,16.210 8.937,16.563 8.760 C 16.808 8.638,19.238 6.208,19.360 5.963 C 19.537 5.610,19.448 5.246,19.101 4.899 C 18.761 4.559,18.367 4.467,18.020 4.646 M11.720 11.000 C 11.523 11.035,11.442 11.087,11.231 11.312 C 11.114 11.438,11.028 11.575,10.998 11.685 C 10.935 11.918,10.971 12.324,11.069 12.490 C 11.112 12.563,11.809 14.608,12.618 17.035 C 13.811 20.613,14.113 21.478,14.216 21.613 C 14.372 21.817,14.723 22.004,15.000 22.031 C 15.279 22.058,15.524 21.958,15.696 21.747 C 15.770 21.655,16.263 20.716,16.792 19.660 L 17.752 17.740 19.644 16.800 C 21.713 15.772,21.813 15.709,21.933 15.336 C 21.968 15.228,22.007 15.075,22.021 14.996 C 22.077 14.679,21.874 14.321,21.544 14.152 C 21.454 14.106,19.418 13.414,17.020 12.615 C 14.622 11.815,12.595 11.125,12.516 11.081 C 12.363 10.996,11.969 10.956,11.720 11.000 M2.614 11.057 C 2.377 11.131,2.212 11.261,2.109 11.453 C 2.035 11.592,2.020 11.684,2.020 12.000 C 2.020 12.331,2.033 12.403,2.120 12.558 C 2.230 12.755,2.414 12.898,2.635 12.959 C 2.722 12.983,3.470 13.000,4.500 13.000 C 5.530 13.000,6.278 12.983,6.365 12.959 C 6.586 12.898,6.770 12.755,6.880 12.558 C 6.967 12.402,6.980 12.332,6.979 12.000 C 6.978 11.687,6.962 11.591,6.890 11.453 C 6.786 11.256,6.623 11.131,6.371 11.055 C 6.114 10.978,2.862 10.980,2.614 11.057 M16.060 14.414 L 18.380 15.188 17.417 15.671 C 16.888 15.936,16.397 16.201,16.327 16.260 C 16.237 16.336,16.049 16.666,15.693 17.374 L 15.187 18.380 14.413 16.060 C 13.988 14.784,13.629 13.707,13.616 13.666 C 13.597 13.608,13.608 13.597,13.666 13.616 C 13.707 13.629,14.784 13.988,16.060 14.414 M7.420 15.246 C 7.189 15.365,4.753 17.811,4.640 18.037 C 4.463 18.390,4.552 18.754,4.899 19.101 C 5.246 19.448,5.610 19.537,5.963 19.360 C 6.208 19.238,8.638 16.808,8.760 16.563 C 8.937 16.210,8.848 15.846,8.501 15.499 C 8.161 15.159,7.767 15.067,7.420 15.246 " stroke="none" fill="black" fill-rule="evenodd"></path></svg>