<svg xmlns="http://www.w3.org/2000/svg" width="24" height="24" viewBox="0 0 24 24" fill="none" stroke="currentColor" stroke-width="2" stroke-linecap="round" stroke-linejoin="round" class="icon icon-tabler icons-tabler-outline icon-tabler-air-traffic-control"><path d="M10.614 2.057 C 10.223 2.180,10.039 2.436,10.009 2.900 C 9.968 3.532,10.251 3.922,10.797 3.987 L 11.000 4.011 11.000 4.504 L 11.000 4.996 8.250 5.010 C 5.784 5.021,5.475 5.030,5.260 5.092 C 4.519 5.307,3.919 5.733,3.509 6.336 C 3.076 6.974,2.902 7.833,3.058 8.568 C 3.186 9.169,4.969 15.025,5.121 15.340 C 5.392 15.904,5.911 16.418,6.492 16.697 C 6.995 16.939,7.168 16.970,8.130 16.990 L 9.000 17.008 9.000 19.114 C 9.000 20.401,9.016 21.276,9.041 21.365 C 9.148 21.750,9.437 21.962,9.896 21.991 C 10.381 22.022,10.699 21.882,10.880 21.558 L 10.980 21.380 10.992 19.190 L 11.003 17.000 12.002 17.000 L 13.000 17.000 13.000 19.110 C 13.000 20.400,13.016 21.276,13.041 21.365 C 13.148 21.750,13.437 21.962,13.896 21.991 C 14.381 22.022,14.699 21.882,14.880 21.558 L 14.980 21.380 14.992 19.190 L 15.003 17.000 15.738 17.000 C 16.212 17.000,16.580 16.980,16.775 16.942 C 17.701 16.765,18.538 16.112,18.919 15.267 C 19.040 15.001,20.848 9.013,20.942 8.568 C 21.224 7.236,20.453 5.782,19.180 5.246 C 18.639 5.018,18.723 5.024,15.750 5.010 L 13.000 4.996 13.000 4.504 L 13.000 4.011 13.197 3.988 C 13.539 3.947,13.754 3.805,13.904 3.520 C 14.018 3.305,14.009 2.679,13.890 2.453 C 13.786 2.256,13.623 2.131,13.371 2.055 C 13.117 1.979,10.859 1.981,10.614 2.057 M7.640 7.014 C 7.640 7.051,8.803 14.794,8.823 14.890 L 8.846 15.000 8.253 15.000 C 7.927 15.000,7.593 14.981,7.511 14.958 C 7.294 14.898,7.038 14.686,6.933 14.480 C 6.882 14.381,6.432 12.941,5.932 11.280 C 5.131 8.616,5.023 8.227,5.022 7.980 C 5.020 7.744,5.037 7.670,5.131 7.511 C 5.192 7.408,5.304 7.275,5.380 7.217 C 5.624 7.031,5.787 7.006,6.750 7.003 C 7.240 7.001,7.640 7.006,7.640 7.014 M14.317 7.090 C 14.316 7.140,14.050 8.935,13.727 11.080 L 13.139 14.980 12.000 14.980 L 10.861 14.980 10.273 11.080 C 9.950 8.935,9.684 7.140,9.683 7.090 L 9.680 7.000 12.000 7.000 L 14.320 7.000 14.317 7.090 M18.295 7.057 C 18.545 7.132,18.726 7.275,18.865 7.508 C 19.090 7.885,19.094 7.865,18.047 11.340 C 17.358 13.625,17.090 14.461,17.008 14.579 C 16.947 14.667,16.810 14.793,16.702 14.859 C 16.508 14.979,16.503 14.980,15.829 14.993 L 15.152 15.007 15.176 14.893 C 15.196 14.795,16.360 7.052,16.360 7.014 C 16.360 7.006,16.753 7.000,17.234 7.000 C 17.872 7.000,18.158 7.015,18.295 7.057 " stroke="none" fill="black" fill-rule="evenodd"></path></svg>