<svg xmlns="http://www.w3.org/2000/svg" width="24" height="24" viewBox="0 0 24 24" fill="none" stroke="currentColor" stroke-width="2" stroke-linecap="round" stroke-linejoin="round" class="icon icon-tabler icons-tabler-outline icon-tabler-square-f9"><path d="M4.499 2.043 C 3.380 2.232,2.461 3.048,2.114 4.160 L 2.020 4.460 2.020 12.000 L 2.020 19.540 2.114 19.840 C 2.422 20.827,3.173 21.578,4.160 21.886 L 4.460 21.980 12.000 21.980 L 19.540 21.980 19.840 21.886 C 20.827 21.578,21.578 20.827,21.886 19.840 L 21.980 19.540 21.980 12.000 L 21.980 4.460 21.886 4.160 C 21.581 3.182,20.832 2.428,19.861 2.121 L 19.540 2.020 12.120 2.014 C 8.039 2.011,4.609 2.024,4.499 2.043 M19.310 4.061 C 19.589 4.144,19.856 4.411,19.939 4.690 C 19.993 4.870,20.000 5.755,20.000 12.001 C 20.000 17.907,19.991 19.138,19.945 19.290 C 19.872 19.533,19.707 19.740,19.484 19.872 L 19.300 19.980 12.000 19.980 L 4.700 19.980 4.516 19.872 C 4.415 19.813,4.284 19.700,4.225 19.623 C 3.986 19.309,4.000 19.795,4.000 12.022 C 4.000 5.758,4.007 4.870,4.061 4.690 C 4.140 4.421,4.412 4.143,4.673 4.063 C 4.964 3.974,19.009 3.971,19.310 4.061 M7.614 8.057 C 7.377 8.131,7.212 8.261,7.109 8.453 L 7.020 8.620 7.009 11.912 C 7.002 14.060,7.012 15.257,7.039 15.356 C 7.144 15.747,7.434 15.961,7.896 15.991 C 8.381 16.022,8.699 15.882,8.880 15.558 C 8.979 15.381,8.980 15.374,8.993 14.190 L 9.005 13.000 9.613 13.000 C 9.947 13.000,10.285 12.981,10.365 12.959 C 10.586 12.898,10.770 12.755,10.880 12.558 C 10.967 12.402,10.980 12.332,10.979 12.000 C 10.978 11.687,10.962 11.591,10.890 11.453 C 10.702 11.097,10.424 11.000,9.594 11.000 L 9.000 11.000 9.000 10.500 L 9.000 10.000 9.610 10.000 C 9.945 10.000,10.285 9.981,10.365 9.959 C 10.586 9.898,10.770 9.755,10.880 9.558 C 10.967 9.402,10.980 9.332,10.979 9.000 C 10.978 8.687,10.962 8.591,10.890 8.453 C 10.786 8.256,10.623 8.131,10.371 8.055 C 10.117 7.979,7.859 7.981,7.614 8.057 M13.360 8.056 C 12.910 8.156,12.467 8.481,12.230 8.887 C 12.035 9.219,12.000 9.464,12.000 10.500 C 12.000 11.765,12.069 12.025,12.522 12.478 C 12.952 12.909,13.259 13.000,14.276 13.000 L 15.000 13.000 15.000 13.500 L 15.000 14.000 14.488 14.000 L 13.977 14.000 13.929 13.823 C 13.835 13.470,13.495 13.267,13.000 13.267 C 12.492 13.267,12.176 13.463,12.061 13.848 C 11.897 14.400,12.076 15.032,12.522 15.478 C 12.975 15.931,13.235 16.000,14.500 16.000 C 15.765 16.000,16.025 15.931,16.478 15.478 C 16.719 15.237,16.857 15.001,16.937 14.693 C 17.031 14.327,17.031 9.673,16.937 9.307 C 16.772 8.673,16.224 8.162,15.581 8.044 C 15.260 7.984,13.641 7.993,13.360 8.056 M15.000 10.500 L 15.000 11.000 14.500 11.000 L 14.000 11.000 14.000 10.500 L 14.000 10.000 14.500 10.000 L 15.000 10.000 15.000 10.500 " stroke="none" fill="black" fill-rule="evenodd"></path></svg>