<svg xmlns="http://www.w3.org/2000/svg" width="24" height="24" viewBox="0 0 24 24" fill="none" stroke="currentColor" stroke-width="2" stroke-linecap="round" stroke-linejoin="round" class="icon icon-tabler icons-tabler-outline icon-tabler-radius-top-left"><path d="M12.340 4.027 C 9.490 4.269,7.051 5.705,5.468 8.073 C 4.940 8.862,4.412 10.124,4.203 11.092 C 4.013 11.975,4.000 12.281,4.000 15.860 C 4.000 17.987,4.015 19.273,4.041 19.365 C 4.148 19.750,4.437 19.962,4.896 19.991 C 5.381 20.022,5.699 19.882,5.880 19.558 L 5.980 19.380 6.004 15.820 C 6.028 12.081,6.031 12.017,6.217 11.280 C 6.837 8.825,8.825 6.837,11.280 6.217 C 12.019 6.031,12.080 6.028,15.820 6.004 C 19.196 5.981,19.387 5.976,19.520 5.905 C 19.876 5.715,19.978 5.514,19.978 5.000 C 19.978 4.567,19.899 4.356,19.678 4.199 C 19.397 3.998,19.424 4.000,15.844 4.007 C 14.005 4.010,12.428 4.020,12.340 4.027 " stroke="none" fill="black" fill-rule="evenodd"></path></svg>