<svg xmlns="http://www.w3.org/2000/svg" width="24" height="24" viewBox="0 0 24 24" fill="none" stroke="currentColor" stroke-width="2" stroke-linecap="round" stroke-linejoin="round" class="icon icon-tabler icons-tabler-outline icon-tabler-droplets"><path d="M11.654 2.039 C 11.433 2.086,11.137 2.241,10.934 2.416 C 10.761 2.566,8.664 5.743,8.411 6.240 C 7.783 7.474,7.890 9.067,8.681 10.245 C 9.064 10.814,9.801 11.420,10.430 11.681 C 11.016 11.926,11.274 11.974,12.000 11.974 C 12.548 11.974,12.712 11.959,12.967 11.889 C 14.429 11.487,15.503 10.419,15.865 9.008 C 16.106 8.070,16.013 7.102,15.603 6.280 C 15.345 5.761,13.299 2.640,13.089 2.444 C 12.719 2.099,12.141 1.935,11.654 2.039 M12.869 5.675 C 13.336 6.397,13.766 7.092,13.825 7.220 C 14.137 7.902,13.986 8.786,13.460 9.352 C 12.659 10.214,11.341 10.214,10.540 9.352 C 9.991 8.761,9.857 7.883,10.205 7.165 C 10.334 6.898,11.959 4.361,12.000 4.362 C 12.011 4.362,12.402 4.953,12.869 5.675 M5.620 12.054 C 5.362 12.121,5.141 12.238,4.934 12.416 C 4.761 12.566,2.664 15.742,2.411 16.240 C 1.783 17.474,1.890 19.067,2.681 20.245 C 3.064 20.814,3.801 21.420,4.430 21.681 C 5.016 21.926,5.274 21.974,6.000 21.974 C 6.548 21.974,6.712 21.959,6.967 21.889 C 8.429 21.487,9.503 20.419,9.865 19.008 C 10.106 18.070,10.013 17.102,9.603 16.280 C 9.345 15.761,7.299 12.640,7.089 12.444 C 6.703 12.084,6.110 11.926,5.620 12.054 M17.654 12.039 C 17.433 12.086,17.137 12.241,16.934 12.416 C 16.761 12.566,14.664 15.743,14.411 16.240 C 13.783 17.474,13.890 19.067,14.681 20.245 C 15.064 20.814,15.801 21.420,16.430 21.681 C 17.016 21.926,17.274 21.974,18.000 21.974 C 18.548 21.974,18.712 21.959,18.967 21.889 C 20.429 21.487,21.503 20.419,21.865 19.008 C 22.106 18.070,22.013 17.102,21.603 16.280 C 21.345 15.761,19.299 12.640,19.089 12.444 C 18.719 12.099,18.141 11.935,17.654 12.039 M6.869 15.675 C 7.336 16.397,7.766 17.092,7.825 17.220 C 8.137 17.902,7.986 18.786,7.460 19.352 C 6.659 20.214,5.341 20.214,4.540 19.352 C 3.991 18.761,3.857 17.883,4.205 17.165 C 4.334 16.898,5.959 14.361,6.000 14.362 C 6.011 14.362,6.402 14.953,6.869 15.675 M18.869 15.675 C 19.336 16.397,19.766 17.092,19.825 17.220 C 20.137 17.902,19.986 18.786,19.460 19.352 C 18.659 20.214,17.341 20.214,16.540 19.352 C 15.991 18.761,15.857 17.883,16.205 17.165 C 16.334 16.898,17.959 14.361,18.000 14.362 C 18.011 14.362,18.402 14.953,18.869 15.675 " stroke="none" fill="black" fill-rule="evenodd"></path></svg>