<svg xmlns="http://www.w3.org/2000/svg" width="24" height="24" viewBox="0 0 24 24" fill="none" stroke="currentColor" stroke-width="2" stroke-linecap="round" stroke-linejoin="round" class="icon icon-tabler icons-tabler-outline icon-tabler-a-b-2"><path d="M5.620 2.022 C 5.576 2.032,5.441 2.060,5.320 2.084 C 5.028 2.140,4.436 2.431,4.151 2.657 C 3.819 2.921,3.499 3.328,3.299 3.740 C 3.006 4.346,3.000 4.406,3.000 6.968 C 3.000 8.353,3.016 9.276,3.041 9.365 C 3.148 9.750,3.437 9.962,3.896 9.991 C 4.381 10.022,4.699 9.882,4.880 9.558 C 4.974 9.391,4.981 9.338,4.994 8.690 L 5.008 8.000 6.004 8.000 L 7.000 8.000 7.000 8.610 C 7.000 8.945,7.019 9.285,7.041 9.365 C 7.148 9.750,7.437 9.962,7.896 9.991 C 8.381 10.022,8.699 9.882,8.880 9.558 L 8.980 9.380 8.992 7.060 C 9.002 5.065,8.994 4.695,8.939 4.420 C 8.814 3.788,8.369 3.071,7.849 2.658 C 7.579 2.444,7.070 2.182,6.760 2.098 C 6.541 2.038,5.772 1.987,5.620 2.022 M11.449 2.101 C 11.294 2.180,11.210 2.257,11.129 2.394 C 11.030 2.563,11.020 2.616,11.020 2.980 C 11.020 3.344,11.030 3.397,11.130 3.567 C 11.213 3.709,11.292 3.779,11.454 3.859 C 11.645 3.952,11.741 3.968,12.304 3.999 C 13.035 4.039,13.384 4.088,13.926 4.223 C 16.134 4.774,17.999 6.238,19.058 8.250 C 19.648 9.370,19.890 10.304,19.994 11.868 C 20.039 12.528,20.116 12.693,20.458 12.861 C 20.862 13.058,21.455 12.995,21.725 12.724 C 21.955 12.494,22.018 12.223,21.986 11.591 C 21.858 9.062,20.894 6.812,19.182 5.045 C 17.851 3.671,16.239 2.739,14.400 2.280 C 13.702 2.105,13.172 2.036,12.380 2.013 C 11.660 1.993,11.660 1.993,11.449 2.101 M6.425 4.113 C 6.607 4.207,6.801 4.404,6.905 4.600 C 6.966 4.715,6.982 4.852,6.993 5.370 L 7.007 6.000 6.000 6.000 L 4.993 6.000 5.007 5.370 C 5.022 4.680,5.047 4.590,5.294 4.327 C 5.596 4.006,6.051 3.920,6.425 4.113 M2.447 11.104 C 2.293 11.181,2.211 11.256,2.129 11.394 C 2.021 11.578,2.020 11.586,2.022 12.300 C 2.029 15.414,3.755 18.512,6.500 20.338 C 6.967 20.649,8.014 21.176,8.565 21.377 C 9.519 21.725,10.721 21.953,11.680 21.966 C 12.326 21.975,12.519 21.931,12.724 21.725 C 13.203 21.246,13.012 20.199,12.419 20.047 C 12.331 20.025,11.963 19.988,11.600 19.964 C 10.822 19.914,10.400 19.844,9.766 19.662 C 7.890 19.122,6.229 17.861,5.190 16.189 C 4.452 15.000,4.000 13.458,4.000 12.129 C 4.000 11.711,3.911 11.421,3.725 11.235 C 3.548 11.059,3.359 11.001,2.958 11.000 C 2.712 11.000,2.617 11.020,2.447 11.104 M15.614 14.057 C 15.377 14.131,15.212 14.261,15.109 14.453 L 15.020 14.620 15.009 17.912 C 15.002 20.060,15.012 21.257,15.039 21.356 C 15.100 21.584,15.242 21.768,15.442 21.880 L 15.620 21.980 17.425 21.992 C 19.463 22.005,19.601 21.991,20.120 21.732 C 20.534 21.525,21.005 21.054,21.212 20.640 C 21.670 19.723,21.546 18.631,20.900 17.893 L 20.720 17.687 20.803 17.493 C 20.996 17.048,21.048 16.457,20.940 15.940 C 20.754 15.047,19.953 14.246,19.060 14.060 C 18.679 13.980,15.867 13.978,15.614 14.057 M18.844 16.145 C 19.017 16.319,19.045 16.565,18.912 16.759 C 18.758 16.987,18.704 16.999,17.810 16.999 L 17.000 17.000 17.000 16.498 L 17.000 15.996 17.859 16.008 L 18.719 16.020 18.844 16.145 M19.348 19.174 C 19.479 19.318,19.488 19.344,19.470 19.528 C 19.455 19.684,19.423 19.755,19.325 19.854 L 19.199 19.980 18.099 19.992 L 17.000 20.004 17.000 19.500 L 17.000 18.996 18.103 19.008 L 19.206 19.020 19.348 19.174 " stroke="none" fill="black" fill-rule="evenodd"></path></svg>