<svg xmlns="http://www.w3.org/2000/svg" width="24" height="24" viewBox="0 0 24 24" fill="none" stroke="currentColor" stroke-width="2" stroke-linecap="round" stroke-linejoin="round" class="icon icon-tabler icons-tabler-outline icon-tabler-brand-trello"><path d="M5.499 3.043 C 4.380 3.233,3.461 4.048,3.114 5.160 L 3.020 5.460 3.020 12.000 L 3.020 18.540 3.114 18.840 C 3.422 19.827,4.173 20.578,5.160 20.886 L 5.460 20.980 12.000 20.980 L 18.540 20.980 18.840 20.886 C 19.827 20.578,20.578 19.827,20.886 18.840 L 20.980 18.540 20.980 12.000 L 20.980 5.460 20.886 5.160 C 20.581 4.182,19.832 3.428,18.861 3.121 L 18.540 3.020 12.120 3.014 C 8.589 3.011,5.609 3.024,5.499 3.043 M18.310 5.061 C 18.589 5.144,18.856 5.411,18.939 5.690 C 18.992 5.869,19.000 6.651,19.000 12.001 C 19.000 17.059,18.991 18.139,18.945 18.290 C 18.872 18.533,18.707 18.740,18.484 18.872 L 18.300 18.980 12.000 18.980 L 5.700 18.980 5.516 18.872 C 5.303 18.747,5.141 18.550,5.058 18.316 C 4.968 18.060,4.971 5.993,5.061 5.690 C 5.140 5.421,5.412 5.143,5.673 5.063 C 5.963 4.974,18.010 4.972,18.310 5.061 M6.614 6.057 C 6.377 6.131,6.212 6.261,6.109 6.453 L 6.020 6.620 6.009 11.914 C 6.002 15.393,6.013 17.259,6.039 17.358 C 6.100 17.584,6.243 17.768,6.442 17.880 L 6.620 17.980 8.410 17.992 C 9.557 17.999,10.255 17.988,10.354 17.962 C 10.583 17.900,10.768 17.758,10.880 17.558 L 10.980 17.380 10.980 12.000 L 10.980 6.620 10.891 6.453 C 10.785 6.256,10.622 6.131,10.371 6.055 C 10.114 5.978,6.862 5.980,6.614 6.057 M13.614 6.057 C 13.377 6.131,13.212 6.261,13.109 6.453 L 13.020 6.620 13.009 9.912 C 13.002 12.060,13.012 13.257,13.039 13.356 C 13.100 13.584,13.242 13.768,13.442 13.880 L 13.620 13.980 15.410 13.992 C 16.557 13.999,17.255 13.988,17.354 13.962 C 17.583 13.900,17.768 13.758,17.880 13.558 L 17.980 13.380 17.980 10.000 L 17.980 6.620 17.891 6.453 C 17.785 6.256,17.622 6.131,17.371 6.055 C 17.114 5.978,13.862 5.980,13.614 6.057 M9.000 12.000 L 9.000 16.000 8.500 16.000 L 8.000 16.000 8.000 12.000 L 8.000 8.000 8.500 8.000 L 9.000 8.000 9.000 12.000 M16.000 10.000 L 16.000 12.000 15.500 12.000 L 15.000 12.000 15.000 10.000 L 15.000 8.000 15.500 8.000 L 16.000 8.000 16.000 10.000 " stroke="none" fill="black" fill-rule="evenodd"></path></svg>