<svg xmlns="http://www.w3.org/2000/svg" width="24" height="24" viewBox="0 0 24 24" fill="none" stroke="currentColor" stroke-width="2" stroke-linecap="round" stroke-linejoin="round" class="icon icon-tabler icons-tabler-outline icon-tabler-live-photo"><path d="M11.614 2.057 C 11.221 2.180,11.039 2.435,11.009 2.906 C 10.962 3.621,11.306 4.000,12.000 4.000 C 12.698 4.000,13.043 3.616,12.989 2.900 C 12.963 2.563,12.859 2.327,12.678 2.199 C 12.414 2.010,11.957 1.950,11.614 2.057 M7.836 2.920 C 7.340 3.006,7.111 3.316,7.111 3.900 C 7.111 4.253,7.181 4.461,7.360 4.640 C 7.703 4.983,8.497 4.983,8.840 4.640 C 9.156 4.324,9.184 3.544,8.890 3.196 C 8.696 2.965,8.250 2.848,7.836 2.920 M15.636 2.920 C 15.140 3.006,14.911 3.316,14.911 3.900 C 14.911 4.253,14.981 4.461,15.160 4.640 C 15.503 4.983,16.297 4.983,16.640 4.640 C 16.956 4.324,16.984 3.544,16.690 3.196 C 16.496 2.965,16.050 2.848,15.636 2.920 M4.600 5.435 C 4.429 5.491,4.264 5.588,4.174 5.686 C 4.052 5.819,3.960 6.124,3.960 6.391 C 3.961 7.019,4.260 7.353,4.856 7.391 C 5.538 7.434,5.901 7.141,5.948 6.510 C 6.000 5.804,5.690 5.437,5.022 5.414 C 4.845 5.407,4.655 5.417,4.600 5.435 M18.680 5.435 C 18.509 5.491,18.344 5.588,18.254 5.686 C 18.132 5.819,18.040 6.124,18.040 6.391 C 18.041 7.019,18.340 7.353,18.936 7.391 C 19.618 7.434,19.981 7.141,20.028 6.510 C 20.080 5.804,19.770 5.437,19.102 5.414 C 18.925 5.407,18.735 5.417,18.680 5.435 M11.380 6.043 C 8.784 6.299,6.676 8.219,6.115 10.840 C 5.984 11.450,5.984 12.558,6.114 13.160 C 6.639 15.588,8.417 17.365,10.840 17.885 C 11.446 18.015,12.554 18.015,13.160 17.885 C 14.397 17.620,15.412 17.068,16.269 16.195 C 17.109 15.340,17.626 14.369,17.885 13.160 C 18.015 12.554,18.015 11.446,17.885 10.840 C 17.626 9.631,17.109 8.660,16.269 7.805 C 14.978 6.490,13.230 5.860,11.380 6.043 M12.605 8.058 C 14.074 8.280,15.310 9.324,15.797 10.755 C 15.897 11.050,16.000 11.680,16.000 12.000 C 16.000 12.322,15.897 12.951,15.796 13.245 C 15.321 14.632,14.195 15.628,12.773 15.917 C 10.563 16.368,8.396 14.845,8.058 12.605 C 7.986 12.121,7.986 11.879,8.058 11.395 C 8.314 9.698,9.675 8.324,11.358 8.061 C 11.816 7.990,12.144 7.989,12.605 8.058 M2.900 9.037 C 2.456 9.145,2.240 9.460,2.240 9.995 C 2.241 10.371,2.302 10.553,2.495 10.746 C 2.701 10.952,2.914 11.015,3.320 10.991 C 3.839 10.960,4.104 10.748,4.203 10.283 C 4.254 10.046,4.229 9.705,4.145 9.507 C 3.982 9.118,3.427 8.909,2.900 9.037 M20.377 9.054 C 20.008 9.175,19.821 9.428,19.775 9.870 C 19.727 10.326,19.898 10.725,20.210 10.886 C 20.419 10.993,20.899 11.031,21.159 10.960 C 21.388 10.899,21.654 10.640,21.715 10.420 C 21.779 10.191,21.770 9.759,21.699 9.556 C 21.575 9.207,21.311 9.040,20.843 9.016 C 20.655 9.006,20.478 9.021,20.377 9.054 M11.477 10.073 C 10.806 10.249,10.238 10.823,10.060 11.508 C 9.941 11.962,10.003 12.492,10.225 12.930 C 10.361 13.199,10.801 13.639,11.070 13.775 C 11.659 14.073,12.341 14.073,12.930 13.775 C 13.196 13.640,13.638 13.200,13.771 12.937 C 13.994 12.498,14.052 12.007,13.940 11.529 C 13.858 11.182,13.720 10.927,13.465 10.653 C 13.074 10.232,12.560 10.005,12.000 10.005 C 11.857 10.005,11.622 10.036,11.477 10.073 M2.900 13.037 C 2.456 13.145,2.240 13.460,2.240 13.995 C 2.241 14.371,2.302 14.553,2.495 14.746 C 2.701 14.952,2.914 15.015,3.320 14.991 C 3.839 14.960,4.104 14.748,4.203 14.283 C 4.254 14.046,4.229 13.705,4.145 13.507 C 3.982 13.118,3.427 12.909,2.900 13.037 M20.377 13.054 C 20.008 13.175,19.821 13.428,19.775 13.870 C 19.727 14.326,19.898 14.725,20.210 14.886 C 20.419 14.993,20.899 15.031,21.159 14.960 C 21.388 14.899,21.654 14.640,21.715 14.420 C 21.779 14.191,21.770 13.759,21.699 13.556 C 21.575 13.207,21.311 13.040,20.843 13.016 C 20.655 13.006,20.478 13.021,20.377 13.054 M4.720 16.640 C 4.457 16.687,4.348 16.738,4.207 16.879 C 3.880 17.206,3.881 18.032,4.209 18.349 C 4.402 18.536,4.607 18.607,4.957 18.608 C 5.308 18.610,5.516 18.538,5.711 18.349 C 6.047 18.024,6.040 17.198,5.698 16.865 C 5.499 16.673,5.078 16.576,4.720 16.640 M18.800 16.640 C 18.537 16.687,18.428 16.738,18.287 16.879 C 17.960 17.206,17.961 18.032,18.289 18.349 C 18.482 18.536,18.687 18.607,19.037 18.608 C 19.388 18.610,19.596 18.538,19.791 18.349 C 20.127 18.024,20.120 17.198,19.778 16.865 C 19.579 16.673,19.158 16.576,18.800 16.640 M7.711 19.158 C 7.312 19.286,7.109 19.608,7.110 20.111 C 7.110 20.772,7.452 21.120,8.100 21.120 C 8.748 21.120,9.086 20.776,9.088 20.113 C 9.090 19.853,9.072 19.764,8.982 19.580 C 8.825 19.260,8.620 19.148,8.163 19.133 C 7.974 19.127,7.771 19.138,7.711 19.158 M15.511 19.158 C 15.112 19.286,14.909 19.608,14.910 20.111 C 14.910 20.772,15.252 21.120,15.900 21.120 C 16.548 21.120,16.886 20.776,16.888 20.113 C 16.890 19.853,16.872 19.764,16.782 19.580 C 16.625 19.260,16.420 19.148,15.963 19.133 C 15.774 19.127,15.571 19.138,15.511 19.158 M11.614 20.057 C 11.221 20.180,11.039 20.435,11.009 20.906 C 10.962 21.621,11.306 22.000,12.000 22.000 C 12.698 22.000,13.043 21.616,12.989 20.900 C 12.963 20.563,12.859 20.327,12.678 20.199 C 12.414 20.010,11.957 19.950,11.614 20.057 " stroke="none" fill="black" fill-rule="evenodd"></path></svg>