<svg xmlns="http://www.w3.org/2000/svg" width="24" height="24" viewBox="0 0 24 24" fill="none" stroke="currentColor" stroke-width="2" stroke-linecap="round" stroke-linejoin="round" class="icon icon-tabler icons-tabler-outline icon-tabler-message-circle-dollar"><path d="M10.720 3.058 C 8.206 3.382,6.036 4.438,4.419 6.125 C 4.024 6.537,3.591 7.094,3.303 7.558 C 1.713 10.129,1.587 13.147,2.958 15.790 L 3.193 16.242 2.612 17.971 C 2.082 19.547,2.030 19.726,2.025 20.000 C 2.019 20.386,2.160 20.706,2.410 20.872 C 2.721 21.077,2.863 21.061,5.358 20.526 L 7.576 20.050 7.978 20.209 C 8.832 20.548,9.728 20.782,10.640 20.905 C 11.233 20.984,12.592 20.994,13.140 20.923 C 13.925 20.820,14.200 20.530,14.149 19.857 C 14.122 19.511,14.019 19.257,13.844 19.110 C 13.625 18.925,13.465 18.905,12.640 18.957 C 11.088 19.056,9.731 18.815,8.347 18.196 C 8.154 18.109,7.918 18.027,7.823 18.014 C 7.693 17.996,7.269 18.072,6.103 18.319 C 5.251 18.500,4.547 18.641,4.538 18.631 C 4.529 18.622,4.680 18.139,4.874 17.557 C 5.068 16.976,5.250 16.404,5.278 16.288 C 5.346 16.007,5.295 15.828,5.010 15.348 C 4.580 14.622,4.368 14.125,4.205 13.460 C 4.078 12.941,4.036 12.574,4.036 11.980 C 4.036 11.386,4.078 11.019,4.205 10.500 C 4.820 7.992,6.978 5.977,9.820 5.259 C 10.651 5.048,11.273 4.986,12.260 5.012 C 13.684 5.050,14.654 5.278,15.860 5.857 C 17.876 6.825,19.267 8.430,19.800 10.400 C 19.966 11.016,20.051 11.184,20.267 11.320 C 20.485 11.459,20.721 11.496,21.002 11.436 C 21.463 11.339,21.730 11.135,21.825 10.810 C 21.896 10.565,21.883 10.451,21.719 9.840 C 21.025 7.267,19.051 5.057,16.416 3.903 C 15.564 3.530,14.823 3.311,13.804 3.134 C 13.303 3.046,13.073 3.030,12.180 3.018 C 11.461 3.008,11.010 3.020,10.720 3.058 M18.614 13.057 C 18.250 13.171,18.061 13.411,18.008 13.826 L 17.980 14.049 17.759 14.118 C 17.003 14.351,16.361 14.979,16.118 15.722 C 16.034 15.976,16.020 16.094,16.022 16.520 C 16.024 16.960,16.038 17.056,16.133 17.320 C 16.394 18.039,16.964 18.609,17.680 18.867 C 17.961 18.968,18.033 18.976,18.800 18.992 C 19.702 19.010,19.786 19.030,19.922 19.252 C 20.021 19.415,20.021 19.585,19.922 19.748 C 19.770 19.997,19.750 20.000,18.208 20.000 C 16.724 20.000,16.580 20.015,16.322 20.199 C 16.100 20.357,16.020 20.568,16.020 21.000 C 16.020 21.331,16.033 21.403,16.120 21.558 C 16.230 21.755,16.414 21.898,16.635 21.959 C 16.715 21.981,17.052 22.000,17.384 22.000 L 17.989 22.000 18.013 22.203 C 18.074 22.715,18.426 23.000,19.000 23.000 C 19.582 23.000,19.923 22.720,19.984 22.193 L 20.010 21.966 20.294 21.873 C 21.001 21.642,21.605 21.046,21.868 20.320 C 21.965 20.052,21.976 19.965,21.976 19.500 C 21.976 19.035,21.965 18.948,21.868 18.680 C 21.646 18.068,21.195 17.561,20.620 17.277 C 20.172 17.055,19.869 17.002,19.068 17.001 C 18.319 17.000,18.216 16.974,18.078 16.748 C 17.979 16.585,17.979 16.415,18.078 16.252 C 18.230 16.003,18.249 16.000,19.808 16.000 C 20.630 16.000,21.280 15.983,21.365 15.959 C 21.586 15.898,21.770 15.755,21.880 15.558 C 21.967 15.402,21.980 15.332,21.979 15.000 C 21.978 14.687,21.962 14.591,21.890 14.453 C 21.702 14.098,21.423 14.000,20.599 14.000 L 20.010 14.000 19.983 13.794 C 19.948 13.531,19.835 13.310,19.678 13.199 C 19.414 13.010,18.957 12.950,18.614 13.057 " stroke="none" fill="black" fill-rule="evenodd"></path></svg>