<svg xmlns="http://www.w3.org/2000/svg" width="24" height="24" viewBox="0 0 24 24" fill="none" stroke="currentColor" stroke-width="2" stroke-linecap="round" stroke-linejoin="round" class="icon icon-tabler icons-tabler-outline icon-tabler-hearts-off"><path d="M2.626 2.045 C 2.257 2.239,1.951 2.673,1.951 3.000 C 1.951 3.306,2.080 3.488,2.831 4.248 L 3.531 4.956 3.324 5.219 C 2.719 5.988,2.333 6.801,2.116 7.760 C 2.033 8.126,2.021 8.283,2.021 8.980 C 2.020 9.601,2.036 9.856,2.092 10.120 C 2.323 11.203,2.830 12.223,3.507 12.964 C 3.657 13.128,4.887 14.359,6.240 15.700 C 7.593 17.040,9.321 18.752,10.080 19.504 C 10.948 20.363,11.522 20.902,11.628 20.955 C 11.851 21.067,12.150 21.067,12.372 20.955 C 12.467 20.906,12.856 20.556,13.270 20.147 L 14.001 19.424 14.751 20.170 C 15.540 20.955,15.669 21.047,15.987 21.047 C 16.312 21.047,16.489 20.920,17.259 20.134 L 17.977 19.400 19.219 20.635 C 20.036 21.449,20.521 21.901,20.637 21.960 C 20.989 22.137,21.354 22.048,21.701 21.701 C 22.047 21.355,22.136 20.990,21.961 20.637 C 21.839 20.392,3.616 2.165,3.372 2.044 C 3.152 1.934,2.834 1.935,2.626 2.045 M7.545 3.059 C 7.210 3.178,7.000 3.532,7.000 3.977 C 7.000 4.438,7.207 4.790,7.547 4.911 C 7.631 4.941,7.916 4.981,8.180 5.001 C 9.396 5.092,10.274 5.534,11.077 6.458 C 11.267 6.678,11.481 6.891,11.553 6.933 C 11.994 7.191,12.456 7.028,12.929 6.449 C 13.467 5.790,14.300 5.288,15.175 5.093 C 15.568 5.006,16.404 5.009,16.820 5.098 C 18.312 5.419,19.487 6.545,19.858 8.010 C 19.987 8.519,20.022 9.006,19.962 9.468 C 19.909 9.872,19.824 10.232,19.768 10.288 C 19.747 10.309,19.644 10.291,19.516 10.244 C 18.584 9.903,17.524 9.953,16.620 10.382 C 16.366 10.502,16.229 10.593,15.548 11.092 C 15.086 11.430,14.948 11.632,14.953 11.966 C 14.957 12.295,15.333 12.861,15.629 12.986 C 15.998 13.141,16.454 12.976,17.046 12.472 C 17.537 12.053,18.083 11.929,18.719 12.090 C 19.630 12.321,20.200 13.407,19.904 14.352 C 19.821 14.618,19.692 14.817,19.384 15.159 C 19.041 15.538,18.920 15.754,18.921 15.983 C 18.924 16.455,19.505 17.041,19.969 17.039 C 20.206 17.038,20.442 16.920,20.702 16.675 C 22.047 15.403,22.371 13.589,21.537 12.007 L 21.362 11.674 21.455 11.487 C 21.507 11.384,21.604 11.138,21.672 10.940 C 22.589 8.258,21.506 5.332,19.050 3.857 C 16.973 2.609,14.313 2.764,12.361 4.246 L 11.999 4.520 11.770 4.333 C 10.930 3.648,9.826 3.174,8.761 3.042 C 8.296 2.984,7.732 2.992,7.545 3.059 M7.731 9.151 L 10.482 11.902 10.339 12.230 C 10.087 12.813,10.028 13.105,10.025 13.780 C 10.023 14.399,10.056 14.604,10.242 15.111 C 10.481 15.762,10.725 16.088,11.747 17.122 L 12.598 17.984 12.301 18.279 L 12.004 18.574 11.552 18.139 C 10.066 16.709,5.073 11.729,4.862 11.467 C 4.253 10.714,3.959 9.775,4.014 8.762 C 4.045 8.177,4.150 7.765,4.397 7.260 C 4.573 6.898,4.898 6.400,4.957 6.400 C 4.970 6.400,6.218 7.638,7.731 9.151 M16.290 18.289 L 16.001 18.578 15.757 18.339 C 15.622 18.208,14.793 17.366,13.914 16.469 C 12.496 15.023,12.302 14.810,12.195 14.581 C 12.059 14.292,11.977 13.838,12.018 13.614 L 12.046 13.466 14.313 15.733 L 16.580 18.000 16.290 18.289 " stroke="none" fill="black" fill-rule="evenodd"></path></svg>