<svg xmlns="http://www.w3.org/2000/svg" width="24" height="24" viewBox="0 0 24 24" fill="none" stroke="currentColor" stroke-width="2" stroke-linecap="round" stroke-linejoin="round" class="icon icon-tabler icons-tabler-outline icon-tabler-device-floppy"><path d="M5.499 3.043 C 4.383 3.230,3.461 4.048,3.114 5.160 L 3.020 5.460 3.020 12.000 L 3.020 18.540 3.114 18.840 C 3.422 19.827,4.173 20.578,5.160 20.886 L 5.460 20.980 12.000 20.980 L 18.540 20.980 18.840 20.886 C 19.827 20.578,20.578 19.827,20.886 18.840 L 20.980 18.540 20.980 13.120 L 20.980 7.700 20.873 7.520 C 20.813 7.420,19.832 6.409,18.653 5.234 C 16.621 3.208,16.532 3.125,16.323 3.064 C 16.128 3.007,15.555 3.000,10.903 3.005 C 8.041 3.007,5.609 3.025,5.499 3.043 M7.008 6.690 L 7.020 8.380 7.120 8.558 C 7.230 8.755,7.414 8.898,7.635 8.959 C 7.832 9.014,14.168 9.014,14.365 8.959 C 14.586 8.898,14.770 8.755,14.880 8.558 L 14.980 8.380 14.992 6.690 L 15.004 5.000 15.292 5.000 L 15.580 5.000 17.290 6.710 L 19.000 8.420 19.000 13.263 C 19.000 17.252,18.990 18.139,18.945 18.290 C 18.872 18.533,18.707 18.740,18.484 18.872 L 18.300 18.980 12.000 18.980 L 5.700 18.980 5.516 18.872 C 5.415 18.813,5.284 18.700,5.225 18.623 C 4.987 18.311,5.000 18.701,5.000 12.022 C 5.000 5.123,4.977 5.629,5.304 5.303 C 5.554 5.053,5.728 5.006,6.428 5.003 L 6.997 5.000 7.008 6.690 M13.000 6.000 L 13.000 7.000 11.000 7.000 L 9.000 7.000 9.000 6.000 L 9.000 5.000 11.000 5.000 L 13.000 5.000 13.000 6.000 M11.499 11.040 C 10.363 11.246,9.460 12.049,9.114 13.160 C 8.979 13.594,8.979 14.406,9.114 14.840 C 9.421 15.826,10.174 16.579,11.160 16.886 C 11.594 17.021,12.406 17.021,12.840 16.886 C 13.826 16.579,14.579 15.826,14.886 14.840 C 15.021 14.406,15.021 13.594,14.886 13.160 C 14.581 12.179,13.810 11.407,12.861 11.129 C 12.500 11.023,11.832 10.980,11.499 11.040 M12.310 13.061 C 12.688 13.173,13.000 13.598,13.000 14.001 C 13.000 14.331,12.784 14.696,12.484 14.872 C 12.328 14.963,12.254 14.980,12.000 14.980 C 11.746 14.980,11.672 14.963,11.516 14.872 C 10.935 14.530,10.833 13.774,11.304 13.303 C 11.583 13.024,11.916 12.944,12.310 13.061 " stroke="none" fill="black" fill-rule="evenodd"></path></svg>