<svg xmlns="http://www.w3.org/2000/svg" width="24" height="24" viewBox="0 0 24 24" fill="none" stroke="currentColor" stroke-width="2" stroke-linecap="round" stroke-linejoin="round" class="icon icon-tabler icons-tabler-outline icon-tabler-brand-docker"><path d="M10.614 3.057 C 10.377 3.131,10.212 3.261,10.109 3.453 C 10.024 3.613,10.020 3.668,10.008 4.810 L 9.996 6.000 8.904 6.000 C 7.744 6.000,7.570 6.022,7.322 6.199 C 7.254 6.247,7.158 6.362,7.109 6.453 C 7.024 6.613,7.020 6.668,7.008 7.810 L 6.996 9.000 5.904 9.000 C 4.744 9.000,4.570 9.022,4.322 9.199 C 4.254 9.247,4.158 9.362,4.109 9.453 C 4.024 9.613,4.020 9.668,4.008 10.810 L 3.996 12.000 3.404 12.000 C 2.577 12.000,2.300 12.097,2.109 12.453 C 2.026 12.608,2.020 12.670,2.022 13.320 C 2.031 16.283,3.214 18.685,5.289 19.953 C 6.440 20.657,7.767 21.000,9.338 21.000 C 13.348 20.999,16.702 19.631,18.755 17.160 C 19.105 16.739,19.426 16.308,19.593 16.033 C 19.654 15.933,19.732 15.869,19.832 15.837 C 20.076 15.758,20.481 15.540,20.800 15.317 C 21.436 14.872,22.659 13.487,22.941 12.892 C 23.140 12.475,23.037 12.081,22.654 11.792 C 22.471 11.653,22.357 11.608,21.912 11.495 C 21.204 11.315,20.720 11.079,20.386 10.749 C 20.059 10.426,19.847 10.108,19.501 9.422 C 19.196 8.816,19.029 8.632,18.736 8.577 C 18.541 8.540,18.098 8.654,17.900 8.792 C 17.700 8.931,17.193 9.671,16.921 10.220 C 16.671 10.725,16.562 11.115,16.532 11.610 L 16.508 12.000 15.755 12.000 L 15.002 12.000 14.991 7.810 L 14.980 3.620 14.891 3.453 C 14.785 3.256,14.622 3.131,14.371 3.055 C 14.114 2.978,10.862 2.980,10.614 3.057 M13.000 5.500 L 13.000 6.000 12.500 6.000 L 12.000 6.000 12.000 5.500 L 12.000 5.000 12.500 5.000 L 13.000 5.000 13.000 5.500 M10.000 8.500 L 10.000 9.000 9.500 9.000 L 9.000 9.000 9.000 8.500 L 9.000 8.000 9.500 8.000 L 10.000 8.000 10.000 8.500 M13.000 8.500 L 13.000 9.000 12.500 9.000 L 12.000 9.000 12.000 8.500 L 12.000 8.000 12.500 8.000 L 13.000 8.000 13.000 8.500 M7.000 11.500 L 7.000 12.000 6.500 12.000 L 6.000 12.000 6.000 11.500 L 6.000 11.000 6.500 11.000 L 7.000 11.000 7.000 11.500 M10.000 11.500 L 10.000 12.000 9.500 12.000 L 9.000 12.000 9.000 11.500 L 9.000 11.000 9.500 11.000 L 10.000 11.000 10.000 11.500 M13.000 11.500 L 13.000 12.000 12.500 12.000 L 12.000 12.000 12.000 11.500 L 12.000 11.000 12.500 11.000 L 13.000 11.000 13.000 11.500 M18.905 12.084 C 19.254 12.441,19.714 12.783,20.090 12.964 C 20.195 13.015,20.280 13.068,20.280 13.083 C 20.280 13.137,19.708 13.649,19.497 13.784 C 19.379 13.859,19.169 13.949,19.031 13.983 C 18.460 14.123,18.391 14.178,18.000 14.800 C 16.475 17.225,14.241 18.520,10.880 18.928 C 10.235 19.006,8.463 18.994,8.060 18.908 C 7.661 18.824,7.160 18.676,7.161 18.644 C 7.161 18.631,7.283 18.554,7.431 18.474 C 8.099 18.112,8.522 17.704,8.579 17.366 C 8.653 16.931,8.144 16.258,7.682 16.180 C 7.449 16.141,7.247 16.216,6.826 16.497 C 6.335 16.825,6.090 16.915,5.532 16.971 C 4.983 17.026,5.011 17.044,4.705 16.427 C 4.378 15.765,4.165 15.031,4.086 14.290 L 4.055 14.000 10.601 14.000 C 17.761 14.000,17.340 14.014,17.690 13.763 C 18.163 13.423,18.605 12.478,18.551 11.921 C 18.540 11.810,18.536 11.720,18.541 11.720 C 18.546 11.720,18.710 11.884,18.905 12.084 M9.614 15.057 C 9.221 15.180,9.039 15.435,9.009 15.906 C 8.962 16.621,9.306 17.000,10.000 17.000 C 10.698 17.000,11.043 16.616,10.989 15.900 C 10.963 15.563,10.859 15.327,10.678 15.199 C 10.414 15.010,9.957 14.950,9.614 15.057 " stroke="none" fill="black" fill-rule="evenodd"></path></svg>