<svg xmlns="http://www.w3.org/2000/svg" width="24" height="24" viewBox="0 0 24 24" fill="none" stroke="currentColor" stroke-width="2" stroke-linecap="round" stroke-linejoin="round" class="icon icon-tabler icons-tabler-outline icon-tabler-blur"><path d="M11.160 2.041 C 9.816 2.169,8.702 2.488,7.507 3.086 C 5.569 4.058,4.046 5.581,3.079 7.515 C 1.314 11.045,1.753 15.165,4.226 18.280 C 4.565 18.707,5.275 19.417,5.720 19.774 C 8.562 22.053,12.348 22.621,15.731 21.275 C 18.520 20.166,20.712 17.768,21.577 14.880 C 21.887 13.842,21.980 13.165,21.978 11.960 C 21.976 10.931,21.921 10.436,21.717 9.622 C 20.999 6.753,19.078 4.354,16.465 3.064 C 15.395 2.535,14.348 2.220,13.203 2.081 C 12.708 2.021,11.598 2.000,11.160 2.041 M11.000 12.000 L 11.000 19.920 10.904 19.920 C 10.852 19.920,10.631 19.884,10.413 19.841 C 9.265 19.610,8.142 19.098,7.140 18.348 C 6.680 18.003,5.864 17.166,5.534 16.700 C 4.702 15.525,4.237 14.324,4.057 12.882 C 3.846 11.193,4.291 9.243,5.227 7.754 C 6.289 6.065,8.055 4.757,9.920 4.279 C 10.286 4.186,10.764 4.091,10.910 4.084 L 11.000 4.080 11.000 12.000 M13.614 4.162 C 14.175 4.276,14.903 4.524,15.423 4.779 L 15.860 4.994 14.430 4.997 L 13.000 5.000 13.000 4.540 L 13.000 4.080 13.104 4.080 C 13.161 4.080,13.390 4.117,13.614 4.162 M18.489 7.314 C 18.611 7.487,18.759 7.712,18.819 7.814 L 18.928 8.000 15.964 8.000 L 13.000 8.000 13.000 7.500 L 13.000 7.000 15.634 7.000 L 18.267 7.000 18.489 7.314 M19.799 10.190 C 19.825 10.295,19.869 10.520,19.897 10.690 L 19.946 11.000 16.473 11.000 L 13.000 11.000 13.000 10.500 L 13.000 10.000 16.375 10.000 L 19.751 10.000 19.799 10.190 M19.904 13.210 C 19.890 13.325,19.849 13.550,19.815 13.710 L 19.752 14.000 16.376 14.000 L 13.000 14.000 13.000 13.500 L 13.000 13.000 16.465 13.000 L 19.930 13.000 19.904 13.210 M18.875 16.090 C 18.798 16.237,18.518 16.647,18.371 16.830 L 18.235 17.000 15.617 17.000 L 13.000 17.000 13.000 16.500 L 13.000 16.000 15.961 16.000 L 18.923 16.000 18.875 16.090 M15.818 19.038 C 15.749 19.106,14.948 19.446,14.538 19.581 C 14.069 19.735,13.554 19.861,13.230 19.901 L 13.000 19.929 13.000 19.465 L 13.000 19.000 14.428 19.000 C 15.328 19.000,15.842 19.014,15.818 19.038 " stroke="none" fill="black" fill-rule="evenodd"></path></svg>