<svg xmlns="http://www.w3.org/2000/svg" width="24" height="24" viewBox="0 0 24 24" fill="none" stroke="currentColor" stroke-width="2" stroke-linecap="round" stroke-linejoin="round" class="icon icon-tabler icons-tabler-outline icon-tabler-device-airtag"><path d="M11.340 3.024 C 10.026 3.160,9.091 3.415,8.060 3.918 C 6.244 4.804,4.840 6.202,3.939 8.020 C 2.688 10.542,2.688 13.458,3.939 15.980 C 4.404 16.918,4.897 17.609,5.621 18.337 C 8.349 21.077,12.483 21.777,15.940 20.084 C 16.871 19.628,17.631 19.085,18.358 18.358 C 21.079 15.637,21.771 11.506,20.084 8.060 C 18.773 5.384,16.266 3.546,13.320 3.101 C 12.911 3.039,11.662 2.991,11.340 3.024 M13.102 5.098 C 16.099 5.551,18.491 7.985,18.924 11.020 C 18.990 11.483,18.990 12.517,18.924 12.980 C 18.487 16.047,16.126 18.424,13.020 18.926 C 12.607 18.992,11.393 18.992,10.980 18.926 C 7.873 18.424,5.515 16.050,5.076 12.980 C 5.010 12.517,5.010 11.438,5.077 11.000 C 5.469 8.421,7.200 6.298,9.620 5.427 C 10.250 5.200,10.715 5.102,11.540 5.023 C 11.813 4.997,12.726 5.041,13.102 5.098 M8.614 8.055 C 8.220 8.184,8.039 8.437,8.009 8.900 C 7.978 9.377,8.119 9.701,8.435 9.875 C 8.572 9.951,8.699 9.976,9.073 10.003 C 9.707 10.049,9.890 10.074,10.240 10.163 C 11.979 10.601,13.399 12.021,13.837 13.760 C 13.926 14.110,13.951 14.293,13.997 14.927 C 14.024 15.301,14.049 15.428,14.125 15.565 C 14.286 15.856,14.575 16.000,15.000 16.000 C 15.428 16.000,15.713 15.856,15.880 15.558 C 15.973 15.392,15.980 15.345,15.977 14.840 C 15.961 11.787,13.788 9.024,10.780 8.234 C 10.094 8.053,8.915 7.956,8.614 8.055 M8.614 11.057 C 8.223 11.180,8.039 11.436,8.009 11.900 C 7.978 12.377,8.119 12.701,8.434 12.874 C 8.563 12.946,8.704 12.977,9.012 13.002 C 9.477 13.040,9.719 13.105,9.987 13.262 C 10.402 13.505,10.783 13.971,10.902 14.382 C 10.935 14.496,10.978 14.771,10.998 14.993 C 11.060 15.718,11.341 16.000,12.000 16.000 C 12.426 16.000,12.714 15.856,12.876 15.563 C 13.086 15.182,13.010 14.271,12.705 13.516 C 12.172 12.197,11.001 11.269,9.605 11.058 C 9.139 10.988,8.836 10.988,8.614 11.057 M8.614 14.057 C 8.221 14.180,8.039 14.435,8.009 14.906 C 7.962 15.621,8.306 16.000,9.000 16.000 C 9.698 16.000,10.043 15.616,9.989 14.900 C 9.963 14.563,9.859 14.327,9.678 14.199 C 9.414 14.010,8.957 13.950,8.614 14.057 " stroke="none" fill="black" fill-rule="evenodd"></path></svg>