<svg xmlns="http://www.w3.org/2000/svg" width="24" height="24" viewBox="0 0 24 24" fill="none" stroke="currentColor" stroke-width="2" stroke-linecap="round" stroke-linejoin="round" class="icon icon-tabler icons-tabler-outline icon-tabler-bell-question"><path d="M11.499 2.040 C 10.389 2.242,9.473 3.037,9.139 4.090 C 9.055 4.357,9.049 4.365,8.767 4.538 C 7.862 5.096,6.970 5.956,6.363 6.856 C 5.849 7.617,5.469 8.462,5.244 9.341 C 5.042 10.129,5.029 10.285,5.001 12.280 L 4.975 14.180 4.871 14.472 C 4.642 15.112,4.157 15.720,3.591 16.077 C 3.126 16.369,2.975 16.639,3.009 17.115 C 3.041 17.565,3.255 17.854,3.635 17.959 C 3.724 17.984,4.600 18.000,5.890 18.000 L 8.000 18.000 8.000 18.175 C 8.000 18.432,8.104 18.980,8.213 19.300 C 8.605 20.450,9.551 21.395,10.700 21.787 C 12.183 22.293,13.815 21.891,14.903 20.753 C 15.702 19.918,16.139 18.644,15.798 18.145 C 15.740 18.060,15.602 17.949,15.460 17.873 C 15.255 17.763,15.171 17.742,14.880 17.730 C 14.582 17.718,14.520 17.728,14.381 17.809 C 14.174 17.929,14.069 18.091,13.938 18.492 C 13.797 18.919,13.610 19.226,13.339 19.474 C 12.144 20.566,10.218 19.843,10.022 18.230 L 9.994 18.000 11.850 18.000 C 13.913 18.000,13.997 17.991,14.229 17.751 C 14.418 17.556,14.486 17.355,14.486 16.997 C 14.486 16.491,14.303 16.196,13.909 16.064 C 13.739 16.007,13.303 16.000,10.047 16.000 L 6.376 16.000 6.527 15.690 C 6.666 15.404,6.804 15.009,6.924 14.560 C 6.955 14.441,6.981 13.739,6.999 12.480 C 7.021 10.961,7.040 10.510,7.094 10.230 C 7.391 8.673,8.325 7.245,9.620 6.370 C 9.752 6.281,10.031 6.116,10.240 6.004 C 10.790 5.709,11.000 5.441,11.000 5.033 C 11.000 4.483,11.467 4.000,12.000 4.000 C 12.536 4.000,13.000 4.483,13.000 5.040 C 13.000 5.261,13.108 5.533,13.252 5.672 C 13.322 5.740,13.551 5.889,13.760 6.002 C 14.256 6.271,14.592 6.500,14.955 6.815 C 15.732 7.488,16.404 8.508,16.711 9.480 C 16.865 9.965,16.906 10.176,16.979 10.839 C 17.046 11.447,17.134 11.679,17.358 11.830 C 17.621 12.007,18.019 12.050,18.387 11.940 C 18.913 11.784,19.060 11.416,18.962 10.502 C 18.854 9.495,18.614 8.672,18.171 7.780 C 17.515 6.459,16.459 5.294,15.233 4.538 C 14.951 4.365,14.945 4.357,14.861 4.090 C 14.567 3.165,13.787 2.400,12.861 2.129 C 12.500 2.023,11.832 1.980,11.499 2.040 M18.440 14.058 C 18.297 14.089,18.102 14.142,18.008 14.176 C 17.203 14.466,16.442 15.217,16.440 15.722 C 16.439 16.052,16.769 16.475,17.174 16.663 C 17.548 16.838,17.807 16.775,18.193 16.419 C 18.501 16.134,18.650 16.048,18.893 16.015 C 19.121 15.984,19.458 16.082,19.640 16.234 C 19.988 16.522,20.086 17.066,19.863 17.470 C 19.668 17.823,19.453 17.951,18.970 18.001 C 18.245 18.076,17.960 18.406,18.012 19.110 C 18.069 19.867,18.595 20.142,19.591 19.936 C 20.218 19.807,20.691 19.543,21.146 19.069 C 21.488 18.713,21.648 18.463,21.797 18.055 C 22.409 16.374,21.489 14.571,19.780 14.102 C 19.448 14.010,18.765 13.988,18.440 14.058 M18.614 21.057 C 18.221 21.180,18.039 21.435,18.009 21.906 C 17.962 22.621,18.306 23.000,19.000 23.000 C 19.698 23.000,20.043 22.616,19.989 21.900 C 19.963 21.563,19.859 21.327,19.678 21.199 C 19.414 21.010,18.957 20.950,18.614 21.057 " stroke="none" fill="black" fill-rule="evenodd"></path></svg>