<svg xmlns="http://www.w3.org/2000/svg" width="24" height="24" viewBox="0 0 24 24" fill="none" stroke="currentColor" stroke-width="2" stroke-linecap="round" stroke-linejoin="round" class="icon icon-tabler icons-tabler-outline icon-tabler-arrow-up-right-circle"><path d="M15.719 4.999 L 13.658 5.020 13.459 5.122 C 13.144 5.284,13.000 5.560,13.000 6.000 C 13.000 6.428,13.144 6.713,13.442 6.880 C 13.615 6.977,13.648 6.981,14.590 7.000 L 15.560 7.020 11.929 10.651 L 8.299 14.281 8.059 14.188 C 7.715 14.053,7.362 13.993,6.924 13.995 C 4.916 14.005,3.480 16.038,4.141 17.932 C 4.479 18.899,5.269 19.636,6.230 19.883 C 6.612 19.981,7.224 19.989,7.639 19.903 C 7.801 19.869,8.105 19.758,8.316 19.655 C 8.646 19.495,8.752 19.416,9.084 19.084 C 9.416 18.752,9.495 18.646,9.655 18.316 C 9.906 17.801,9.972 17.472,9.950 16.840 C 9.936 16.429,9.914 16.283,9.824 16.022 L 9.715 15.705 13.348 12.072 L 16.980 8.440 17.000 9.410 C 17.019 10.352,17.023 10.385,17.120 10.558 C 17.287 10.856,17.572 11.000,18.000 11.000 C 18.428 11.000,18.713 10.856,18.880 10.558 L 18.980 10.380 19.008 8.220 C 19.023 7.032,19.036 6.001,19.038 5.929 C 19.041 5.739,18.834 5.310,18.690 5.207 C 18.467 5.048,18.205 4.959,17.987 4.969 C 17.873 4.974,16.852 4.987,15.719 4.999 M7.508 16.145 C 8.036 16.471,8.119 17.231,7.675 17.675 C 7.230 18.120,6.471 18.036,6.143 17.506 C 5.586 16.605,6.607 15.587,7.508 16.145 " stroke="none" fill="black" fill-rule="evenodd"></path></svg>