<svg xmlns="http://www.w3.org/2000/svg" width="24" height="24" viewBox="0 0 24 24" fill="none" stroke="currentColor" stroke-width="2" stroke-linecap="round" stroke-linejoin="round" class="icon icon-tabler icons-tabler-outline icon-tabler-pointer-x"><path d="M3.497 3.075 C 3.223 3.242,3.000 3.661,3.000 4.006 C 3.000 4.217,6.978 18.009,7.128 18.318 C 7.302 18.677,7.698 19.065,8.083 19.255 C 8.769 19.593,9.494 19.579,10.148 19.216 C 10.480 19.031,10.733 18.778,11.039 18.320 C 11.179 18.111,11.534 17.585,11.829 17.150 L 12.364 16.361 12.572 16.517 C 13.021 16.853,13.393 16.814,13.822 16.385 C 14.017 16.191,14.086 16.088,14.142 15.910 C 14.274 15.491,14.159 15.287,13.334 14.476 C 12.705 13.860,12.514 13.740,12.160 13.745 C 11.885 13.748,11.729 13.827,11.523 14.070 C 11.434 14.174,10.875 14.979,10.281 15.859 C 9.688 16.738,9.166 17.471,9.123 17.487 C 9.071 17.506,9.017 17.492,8.966 17.448 C 8.908 17.398,8.439 15.819,7.182 11.445 C 6.244 8.181,5.484 5.503,5.494 5.493 C 5.509 5.478,16.768 8.696,17.288 8.864 C 17.481 8.927,17.548 9.016,17.501 9.150 C 17.488 9.189,16.745 9.706,15.850 10.300 C 14.955 10.894,14.145 11.457,14.049 11.552 C 13.718 11.878,13.641 12.225,13.820 12.584 C 13.943 12.831,15.180 14.066,15.420 14.182 C 15.776 14.354,16.164 14.242,16.509 13.867 C 16.917 13.425,16.930 13.067,16.556 12.603 L 16.361 12.360 17.551 11.566 C 18.866 10.689,19.050 10.527,19.288 10.035 C 19.597 9.398,19.601 8.791,19.302 8.138 C 19.085 7.665,18.561 7.181,18.091 7.019 C 18.008 6.991,14.835 6.075,11.040 4.984 C 3.576 2.838,3.795 2.893,3.497 3.075 M16.626 16.045 C 16.257 16.239,15.951 16.673,15.951 17.000 C 15.951 17.323,16.068 17.478,17.103 18.520 L 18.077 19.500 17.103 20.480 C 16.068 21.522,15.951 21.677,15.951 22.000 C 15.951 22.477,16.523 23.049,17.000 23.049 C 17.323 23.049,17.478 22.932,18.520 21.897 L 19.500 20.923 20.480 21.897 C 21.522 22.932,21.677 23.049,22.000 23.049 C 22.477 23.049,23.049 22.477,23.049 22.000 C 23.049 21.677,22.932 21.522,21.897 20.480 L 20.923 19.500 21.897 18.520 C 22.518 17.895,22.903 17.476,22.960 17.363 C 23.137 17.011,23.048 16.646,22.701 16.299 C 22.360 15.958,21.979 15.868,21.628 16.045 C 21.527 16.096,21.072 16.515,20.480 17.103 L 19.500 18.077 18.520 17.103 C 17.927 16.514,17.474 16.096,17.372 16.045 C 17.152 15.934,16.835 15.934,16.626 16.045 " stroke="none" fill="black" fill-rule="evenodd"></path></svg>