<svg xmlns="http://www.w3.org/2000/svg" width="24" height="24" viewBox="0 0 24 24" fill="none" stroke="currentColor" stroke-width="2" stroke-linecap="round" stroke-linejoin="round" class="icon icon-tabler icons-tabler-outline icon-tabler-octahedron"><path d="M11.491 1.060 C 11.354 1.090,11.113 1.182,10.955 1.265 C 10.695 1.402,10.475 1.610,8.642 3.458 C 4.019 8.117,1.421 10.763,1.315 10.921 C 1.093 11.251,1.025 11.498,1.022 11.980 C 1.020 12.476,1.074 12.688,1.294 13.037 C 1.418 13.233,3.325 15.182,8.599 20.500 C 10.459 22.376,10.690 22.595,10.945 22.730 C 11.660 23.105,12.528 23.079,13.180 22.662 C 13.300 22.585,14.224 21.686,15.366 20.534 C 20.203 15.657,22.573 13.241,22.683 13.077 C 23.080 12.481,23.101 11.631,22.734 11.012 C 22.632 10.838,21.418 9.586,18.070 6.199 C 15.582 3.680,13.463 1.555,13.363 1.475 C 12.844 1.064,12.167 0.914,11.491 1.060 M10.990 11.310 L 10.980 13.787 7.246 12.676 C 5.193 12.065,3.503 11.557,3.492 11.545 C 3.481 11.534,5.161 9.817,7.226 7.730 L 10.980 3.936 10.990 6.385 C 10.996 7.732,10.996 9.948,10.990 11.310 M16.943 7.896 C 20.053 11.041,20.528 11.537,20.459 11.566 C 20.416 11.585,18.742 12.086,16.740 12.681 C 14.738 13.275,13.078 13.770,13.050 13.779 C 13.010 13.794,13.000 12.791,13.000 8.849 L 13.000 3.901 13.174 4.081 C 13.270 4.179,14.966 5.896,16.943 7.896 M7.980 14.981 C 9.432 15.411,10.705 15.791,10.810 15.825 L 11.000 15.886 11.000 17.985 L 11.000 20.083 8.972 18.032 C 7.856 16.903,6.528 15.561,6.022 15.049 C 5.350 14.370,5.132 14.128,5.220 14.158 C 5.286 14.180,6.528 14.550,7.980 14.981 M17.918 15.110 C 17.378 15.655,16.051 16.996,14.969 18.090 L 13.000 20.080 13.000 17.982 L 13.000 15.884 13.210 15.819 C 13.453 15.743,18.851 14.129,18.879 14.124 C 18.889 14.122,18.457 14.566,17.918 15.110 " stroke="none" fill="black" fill-rule="evenodd"></path></svg>