<svg xmlns="http://www.w3.org/2000/svg" width="24" height="24" viewBox="0 0 24 24" fill="none" stroke="currentColor" stroke-width="2" stroke-linecap="round" stroke-linejoin="round" class="icon icon-tabler icons-tabler-outline icon-tabler-kerning"><path d="M14.625 3.017 C 14.438 3.086,14.258 3.250,14.158 3.445 C 14.024 3.706,8.037 19.712,7.991 19.935 C 7.928 20.235,7.995 20.449,8.220 20.666 C 8.501 20.936,9.043 21.098,9.338 21.001 C 9.529 20.938,9.744 20.748,9.841 20.559 C 9.978 20.290,15.963 4.288,16.009 4.065 C 16.072 3.765,16.005 3.551,15.780 3.334 C 15.491 3.057,14.936 2.904,14.625 3.017 M2.759 8.021 C 2.484 8.106,2.161 8.351,2.049 8.560 C 1.969 8.711,1.956 8.779,1.973 8.980 C 1.991 9.199,2.134 9.503,3.592 12.422 C 4.472 14.183,5.242 15.684,5.304 15.757 C 5.537 16.035,5.900 16.106,6.305 15.955 C 6.737 15.793,6.708 15.841,8.440 12.367 L 10.020 9.198 10.020 8.923 C 10.020 8.680,10.006 8.627,9.900 8.479 C 9.670 8.156,9.105 7.909,8.751 7.975 C 8.669 7.991,8.525 8.061,8.431 8.132 C 8.273 8.250,8.174 8.430,7.140 10.490 C 6.524 11.716,6.011 12.720,6.000 12.720 C 5.989 12.720,5.491 11.742,4.894 10.548 C 4.296 9.353,3.761 8.319,3.703 8.251 C 3.482 7.989,3.137 7.905,2.759 8.021 M17.873 8.060 C 17.136 8.200,16.468 8.565,15.958 9.105 C 15.561 9.526,15.316 9.952,15.132 10.548 L 15.023 10.900 15.009 13.047 C 15.000 14.468,15.010 15.248,15.038 15.351 C 15.144 15.747,15.431 15.961,15.896 15.991 C 16.381 16.022,16.699 15.882,16.880 15.558 C 16.974 15.391,16.981 15.338,16.994 14.690 L 17.008 14.000 18.504 14.000 L 20.000 14.000 20.000 14.610 C 20.000 14.945,20.019 15.285,20.041 15.365 C 20.148 15.750,20.437 15.962,20.896 15.991 C 21.381 16.022,21.699 15.882,21.880 15.558 L 21.980 15.380 21.992 13.321 C 21.999 12.027,21.988 11.162,21.962 10.993 C 21.747 9.608,20.722 8.468,19.378 8.118 C 18.959 8.009,18.280 7.983,17.873 8.060 M19.119 10.143 C 19.417 10.279,19.728 10.592,19.862 10.892 C 19.951 11.090,19.974 11.210,19.991 11.566 L 20.011 12.000 18.500 12.000 L 16.989 12.000 17.009 11.565 C 17.026 11.206,17.049 11.088,17.137 10.895 C 17.326 10.479,17.751 10.129,18.174 10.039 C 18.441 9.982,18.870 10.030,19.119 10.143 " stroke="none" fill="black" fill-rule="evenodd"></path></svg>