<svg xmlns="http://www.w3.org/2000/svg" width="24" height="24" viewBox="0 0 24 24" fill="none" stroke="currentColor" stroke-width="2" stroke-linecap="round" stroke-linejoin="round" class="icon icon-tabler icons-tabler-outline icon-tabler-empathize-off"><path d="M2.626 2.045 C 2.420 2.154,2.146 2.433,2.038 2.644 C 1.924 2.867,1.924 3.132,2.039 3.363 C 2.102 3.488,3.072 4.485,5.344 6.761 C 7.113 8.532,8.560 9.992,8.560 10.004 C 8.560 10.017,8.429 10.050,8.270 10.079 C 7.532 10.209,6.863 10.556,6.272 11.113 C 5.431 11.906,5.003 12.900,5.001 14.062 C 4.999 15.038,5.288 15.878,5.877 16.609 C 6.006 16.769,7.333 18.118,8.826 19.607 C 11.512 22.286,11.542 22.315,11.770 22.380 C 11.984 22.441,12.016 22.441,12.230 22.380 C 12.456 22.315,12.492 22.281,14.570 20.208 L 16.680 18.102 18.570 19.987 C 19.866 21.279,20.516 21.899,20.637 21.960 C 20.989 22.137,21.354 22.048,21.701 21.701 C 22.047 21.355,22.136 20.990,21.961 20.637 C 21.839 20.392,3.616 2.165,3.372 2.044 C 3.152 1.934,2.834 1.935,2.626 2.045 M11.405 2.058 C 10.996 2.136,10.752 2.220,10.381 2.413 C 9.257 2.996,8.526 4.162,8.512 5.395 C 8.507 5.845,8.566 6.046,8.760 6.240 C 9.102 6.582,9.897 6.583,10.238 6.242 C 10.405 6.075,10.467 5.896,10.504 5.479 C 10.555 4.913,10.780 4.514,11.206 4.239 C 11.822 3.841,12.704 3.984,13.157 4.557 C 13.590 5.103,13.593 5.888,13.164 6.430 C 12.874 6.797,12.566 6.946,11.985 7.001 C 11.251 7.071,10.964 7.395,11.009 8.104 C 11.057 8.857,11.593 9.139,12.606 8.943 C 14.034 8.668,15.094 7.646,15.420 6.231 C 15.509 5.847,15.509 5.153,15.420 4.769 C 15.233 3.956,14.800 3.263,14.165 2.759 C 13.842 2.502,13.187 2.186,12.800 2.099 C 12.388 2.007,11.768 1.989,11.405 2.058 M14.545 10.056 C 14.165 10.198,13.977 10.554,14.009 11.075 C 14.042 11.640,14.258 11.882,14.800 11.961 C 14.965 11.985,15.208 12.021,15.340 12.042 C 16.201 12.174,17.000 13.087,17.000 13.940 C 17.000 14.167,17.103 14.541,17.203 14.676 C 17.413 14.960,17.948 15.079,18.408 14.945 C 18.668 14.870,18.890 14.654,18.957 14.413 C 19.022 14.179,19.007 13.660,18.924 13.260 C 18.757 12.455,18.401 11.794,17.823 11.217 C 17.256 10.650,16.674 10.312,15.927 10.114 C 15.521 10.007,14.762 9.975,14.545 10.056 M9.528 12.044 C 9.981 12.139,10.214 12.292,10.859 12.918 C 11.540 13.579,11.723 13.696,12.041 13.674 L 12.240 13.660 13.750 15.170 L 15.260 16.680 13.630 18.310 L 12.000 19.940 9.719 17.660 C 8.464 16.406,7.383 15.296,7.317 15.194 C 7.051 14.782,6.932 14.126,7.036 13.643 C 7.197 12.892,7.794 12.260,8.530 12.062 C 8.787 11.993,9.243 11.985,9.528 12.044 " stroke="none" fill="black" fill-rule="evenodd"></path></svg>