<svg xmlns="http://www.w3.org/2000/svg" width="24" height="24" viewBox="0 0 24 24" fill="none" stroke="currentColor" stroke-width="2" stroke-linecap="round" stroke-linejoin="round" class="icon icon-tabler icons-tabler-outline icon-tabler-basket-question"><path d="M8.780 2.989 C 8.562 3.028,8.511 3.050,8.378 3.167 C 8.299 3.236,8.193 3.375,8.143 3.476 C 8.092 3.577,7.802 4.410,7.497 5.327 L 6.943 6.994 5.721 7.010 C 4.375 7.027,4.276 7.042,3.730 7.299 C 3.346 7.480,3.148 7.620,2.862 7.915 C 2.529 8.256,2.314 8.609,2.159 9.067 C 2.037 9.427,2.026 9.501,2.024 9.960 C 2.023 10.432,2.059 10.664,2.673 14.140 C 3.329 17.851,3.379 18.106,3.548 18.538 C 3.919 19.493,4.860 20.394,5.866 20.758 C 6.544 21.003,6.482 21.000,11.055 21.000 C 13.722 21.000,15.272 20.985,15.365 20.959 C 15.586 20.898,15.770 20.755,15.880 20.558 C 15.967 20.402,15.980 20.332,15.979 20.000 C 15.977 19.469,15.852 19.247,15.455 19.071 C 15.365 19.031,14.409 19.016,11.080 19.000 L 6.820 18.979 6.565 18.884 C 5.979 18.666,5.481 18.122,5.322 17.526 C 5.261 17.298,4.000 10.084,4.000 9.962 C 4.000 9.759,4.126 9.481,4.300 9.302 C 4.551 9.044,4.736 9.000,5.585 9.000 L 6.275 9.000 6.159 9.344 C 5.986 9.855,5.944 10.110,5.998 10.313 C 6.089 10.649,6.427 10.906,6.903 11.000 C 7.205 11.059,7.422 11.008,7.623 10.832 C 7.814 10.664,7.893 10.498,8.160 9.700 L 8.387 9.020 12.000 9.020 L 15.613 9.020 15.840 9.700 C 16.107 10.498,16.186 10.664,16.377 10.832 C 16.571 11.002,16.799 11.059,17.067 11.005 C 17.569 10.905,17.911 10.652,18.002 10.314 C 18.057 10.110,18.015 9.856,17.840 9.341 L 17.723 8.994 18.492 9.007 C 19.203 9.019,19.274 9.027,19.451 9.114 C 19.697 9.235,19.901 9.500,19.963 9.779 C 20.006 9.968,19.998 10.071,19.900 10.649 C 19.780 11.357,19.784 11.566,19.920 11.790 C 20.027 11.966,20.253 12.105,20.559 12.183 C 21.052 12.309,21.443 12.178,21.644 11.820 C 21.818 11.509,21.975 10.638,21.976 9.980 C 21.976 9.494,21.967 9.434,21.842 9.067 C 21.685 8.608,21.470 8.256,21.138 7.915 C 20.852 7.620,20.654 7.480,20.270 7.299 C 19.724 7.042,19.625 7.027,18.279 7.010 L 17.057 6.994 16.503 5.327 C 16.198 4.410,15.914 3.588,15.870 3.500 C 15.693 3.141,15.465 2.990,15.103 2.992 C 14.591 2.995,14.102 3.300,14.000 3.679 C 13.932 3.933,13.975 4.106,14.480 5.621 C 14.722 6.346,14.920 6.952,14.920 6.969 C 14.920 6.986,13.606 7.000,12.000 7.000 C 10.394 7.000,9.080 6.986,9.080 6.969 C 9.080 6.952,9.278 6.346,9.520 5.621 C 9.761 4.897,9.979 4.203,10.003 4.080 C 10.065 3.768,10.001 3.550,9.786 3.337 C 9.558 3.110,9.062 2.939,8.780 2.989 M11.499 11.040 C 10.363 11.246,9.460 12.049,9.114 13.160 C 8.979 13.594,8.979 14.406,9.114 14.840 C 9.421 15.826,10.174 16.579,11.160 16.886 C 11.594 17.021,12.406 17.021,12.840 16.886 C 13.826 16.579,14.579 15.826,14.886 14.840 C 15.021 14.406,15.021 13.594,14.886 13.160 C 14.581 12.179,13.810 11.407,12.861 11.129 C 12.500 11.023,11.832 10.980,11.499 11.040 M12.310 13.061 C 12.688 13.173,13.000 13.598,13.000 14.001 C 13.000 14.331,12.784 14.696,12.484 14.872 C 12.328 14.963,12.254 14.980,12.000 14.980 C 11.746 14.980,11.672 14.963,11.516 14.872 C 10.935 14.530,10.833 13.774,11.304 13.303 C 11.583 13.024,11.916 12.944,12.310 13.061 M18.440 14.058 C 18.297 14.089,18.102 14.142,18.008 14.176 C 17.203 14.466,16.442 15.217,16.440 15.722 C 16.439 16.052,16.769 16.475,17.174 16.663 C 17.548 16.838,17.807 16.775,18.193 16.419 C 18.501 16.134,18.650 16.048,18.893 16.015 C 19.121 15.984,19.458 16.082,19.640 16.234 C 19.988 16.522,20.086 17.066,19.863 17.470 C 19.668 17.823,19.453 17.951,18.970 18.001 C 18.245 18.076,17.960 18.406,18.012 19.110 C 18.069 19.867,18.595 20.142,19.591 19.936 C 20.218 19.807,20.691 19.543,21.146 19.069 C 21.488 18.713,21.648 18.463,21.797 18.055 C 22.409 16.374,21.489 14.571,19.780 14.102 C 19.448 14.010,18.765 13.988,18.440 14.058 M18.614 21.057 C 18.221 21.180,18.039 21.435,18.009 21.906 C 17.962 22.621,18.306 23.000,19.000 23.000 C 19.698 23.000,20.043 22.616,19.989 21.900 C 19.963 21.563,19.859 21.327,19.678 21.199 C 19.414 21.010,18.957 20.950,18.614 21.057 " stroke="none" fill="black" fill-rule="evenodd"></path></svg>