<svg xmlns="http://www.w3.org/2000/svg" width="24" height="24" viewBox="0 0 24 24" fill="none" stroke="currentColor" stroke-width="2" stroke-linecap="round" stroke-linejoin="round" class="icon icon-tabler icons-tabler-outline icon-tabler-circuit-changeover"><path d="M17.499 4.040 C 16.399 4.240,15.459 5.052,15.140 6.081 L 15.071 6.301 11.301 7.854 L 7.530 9.406 7.327 9.304 C 6.924 9.099,6.549 9.022,5.980 9.025 C 5.549 9.027,5.405 9.044,5.139 9.125 C 4.359 9.362,3.679 9.937,3.312 10.670 L 3.147 11.000 2.480 11.000 C 1.570 11.000,1.304 11.088,1.109 11.453 C 1.035 11.592,1.020 11.684,1.020 12.000 C 1.020 12.331,1.033 12.403,1.120 12.558 C 1.230 12.755,1.414 12.898,1.635 12.959 C 1.715 12.981,2.088 13.000,2.463 13.000 L 3.147 13.000 3.312 13.330 C 3.682 14.068,4.354 14.635,5.160 14.886 C 5.418 14.967,5.539 14.980,6.020 14.977 C 6.508 14.974,6.620 14.961,6.887 14.872 C 7.852 14.552,8.584 13.808,8.886 12.840 C 8.967 12.582,8.979 12.462,8.976 11.980 C 8.974 11.590,8.953 11.362,8.910 11.230 C 8.876 11.125,8.860 11.032,8.875 11.023 C 8.897 11.009,14.309 8.777,15.088 8.460 L 15.317 8.367 15.415 8.534 C 15.777 9.145,16.447 9.664,17.160 9.886 C 17.594 10.021,18.406 10.021,18.840 9.886 C 19.645 9.635,20.318 9.069,20.688 8.330 L 20.853 8.000 21.537 8.000 C 21.912 8.000,22.285 7.981,22.365 7.959 C 22.586 7.898,22.770 7.755,22.880 7.558 C 22.967 7.402,22.980 7.332,22.979 7.000 C 22.978 6.687,22.962 6.591,22.890 6.453 C 22.697 6.088,22.430 6.000,21.520 6.000 L 20.853 6.000 20.688 5.670 C 20.320 4.935,19.631 4.354,18.861 4.129 C 18.500 4.023,17.832 3.980,17.499 4.040 M18.310 6.061 C 18.688 6.173,19.000 6.598,19.000 7.001 C 19.000 7.331,18.784 7.696,18.484 7.872 C 18.328 7.964,18.254 7.980,17.997 7.980 C 17.729 7.980,17.671 7.966,17.502 7.860 C 17.219 7.683,17.081 7.468,17.040 7.141 C 16.994 6.769,17.066 6.541,17.304 6.303 C 17.583 6.024,17.916 5.944,18.310 6.061 M6.310 11.061 C 6.688 11.173,7.000 11.598,7.000 12.001 C 7.000 12.331,6.784 12.696,6.484 12.872 C 6.328 12.963,6.254 12.980,6.000 12.980 C 5.746 12.980,5.672 12.963,5.516 12.872 C 4.935 12.530,4.833 11.774,5.304 11.303 C 5.583 11.024,5.916 10.944,6.310 11.061 M17.499 14.040 C 16.363 14.246,15.460 15.049,15.114 16.160 C 14.979 16.594,14.979 17.406,15.114 17.840 C 15.421 18.826,16.174 19.579,17.160 19.886 C 17.594 20.021,18.406 20.021,18.840 19.886 C 19.645 19.635,20.318 19.069,20.688 18.330 L 20.853 18.000 21.537 18.000 C 21.912 18.000,22.285 17.981,22.365 17.959 C 22.586 17.898,22.770 17.755,22.880 17.558 C 22.967 17.402,22.980 17.332,22.979 17.000 C 22.978 16.687,22.962 16.591,22.890 16.453 C 22.697 16.088,22.430 16.000,21.520 16.000 L 20.853 16.000 20.688 15.670 C 20.320 14.935,19.631 14.354,18.861 14.129 C 18.500 14.023,17.832 13.980,17.499 14.040 M18.334 16.064 C 18.698 16.188,19.000 16.613,19.000 17.001 C 19.000 17.331,18.784 17.696,18.484 17.872 C 18.328 17.963,18.254 17.980,18.000 17.980 C 17.746 17.980,17.672 17.963,17.516 17.872 C 16.937 17.531,16.833 16.774,17.301 16.306 C 17.587 16.019,17.952 15.934,18.334 16.064 " stroke="none" fill="black" fill-rule="evenodd"></path></svg>