<svg xmlns="http://www.w3.org/2000/svg" width="24" height="24" viewBox="0 0 24 24" fill="none" stroke="currentColor" stroke-width="2" stroke-linecap="round" stroke-linejoin="round" class="icon icon-tabler icons-tabler-outline icon-tabler-hexagon-letter-c"><path d="M11.542 1.044 C 11.206 1.093,10.917 1.183,10.607 1.334 C 10.326 1.471,3.711 5.363,3.400 5.574 C 2.940 5.886,2.556 6.345,2.298 6.892 C 2.004 7.516,2.023 7.205,2.009 11.720 C 1.999 15.327,2.005 15.816,2.062 16.100 C 2.197 16.773,2.552 17.405,3.043 17.852 C 3.266 18.054,4.217 18.675,6.849 20.339 C 8.779 21.559,10.434 22.596,10.527 22.644 C 11.438 23.109,12.561 23.109,13.471 22.645 C 13.630 22.564,20.226 18.402,20.600 18.147 C 21.088 17.814,21.516 17.281,21.752 16.712 C 22.005 16.102,22.000 16.202,22.000 11.844 C 22.000 7.576,22.004 7.665,21.787 7.068 C 21.605 6.567,21.270 6.102,20.812 5.713 C 20.635 5.563,19.382 4.802,17.082 3.447 C 15.178 2.326,13.548 1.372,13.460 1.329 C 12.903 1.057,12.187 0.950,11.542 1.044 M12.595 3.138 C 12.880 3.282,18.999 6.893,19.338 7.116 C 19.491 7.217,19.675 7.378,19.748 7.473 C 20.012 7.819,20.003 7.655,19.991 11.943 L 19.980 15.820 19.872 16.025 C 19.812 16.138,19.709 16.284,19.643 16.351 C 19.481 16.513,12.718 20.790,12.440 20.906 C 12.151 21.027,11.850 21.027,11.560 20.907 C 11.284 20.791,4.519 16.513,4.356 16.350 C 4.290 16.284,4.188 16.138,4.128 16.025 L 4.020 15.820 4.020 11.860 L 4.020 7.900 4.129 7.693 C 4.190 7.578,4.301 7.425,4.376 7.353 C 4.561 7.174,11.452 3.117,11.680 3.052 C 11.947 2.976,12.350 3.013,12.595 3.138 M11.499 7.040 C 10.363 7.246,9.461 8.048,9.114 9.160 L 9.020 9.460 9.020 12.000 L 9.020 14.540 9.114 14.840 C 9.422 15.827,10.174 16.579,11.160 16.886 C 11.594 17.021,12.406 17.021,12.840 16.886 C 13.826 16.579,14.582 15.823,14.885 14.840 C 14.959 14.602,14.978 14.445,14.979 14.080 C 14.980 13.662,14.971 13.604,14.880 13.442 C 14.816 13.328,14.709 13.219,14.583 13.142 C 14.399 13.028,14.361 13.020,14.000 13.020 C 13.639 13.020,13.601 13.028,13.417 13.142 C 13.151 13.306,13.045 13.507,13.001 13.929 C 12.982 14.111,12.947 14.311,12.923 14.373 C 12.851 14.561,12.677 14.758,12.484 14.872 C 12.328 14.963,12.254 14.980,12.000 14.980 C 11.746 14.980,11.672 14.963,11.516 14.872 C 11.303 14.747,11.141 14.550,11.058 14.316 C 10.970 14.065,10.972 9.988,11.061 9.690 C 11.173 9.312,11.598 9.000,12.000 9.000 C 12.223 9.000,12.510 9.120,12.679 9.283 C 12.892 9.491,12.958 9.650,13.001 10.067 C 13.068 10.718,13.370 11.000,14.000 11.000 C 14.428 11.000,14.713 10.856,14.880 10.558 C 14.971 10.396,14.980 10.338,14.979 9.920 C 14.978 9.555,14.959 9.398,14.885 9.160 C 14.583 8.182,13.811 7.407,12.861 7.129 C 12.500 7.023,11.832 6.980,11.499 7.040 " stroke="none" fill="black" fill-rule="evenodd"></path></svg>