<svg xmlns="http://www.w3.org/2000/svg" width="24" height="24" viewBox="0 0 24 24" fill="none" stroke="currentColor" stroke-width="2" stroke-linecap="round" stroke-linejoin="round" class="icon icon-tabler icons-tabler-outline icon-tabler-brand-slack"><path d="M9.499 3.040 C 8.363 3.246,7.460 4.049,7.114 5.160 C 6.969 5.625,6.985 6.521,7.145 6.938 C 7.161 6.981,6.998 6.995,6.313 7.010 C 5.558 7.026,5.423 7.039,5.139 7.125 C 4.180 7.416,3.419 8.181,3.114 9.160 C 2.979 9.594,2.979 10.407,3.114 10.839 C 3.234 11.221,3.391 11.530,3.598 11.792 L 3.762 12.000 3.598 12.208 C 3.391 12.470,3.234 12.779,3.114 13.161 C 2.979 13.593,2.979 14.406,3.114 14.840 C 3.421 15.826,4.174 16.579,5.160 16.886 C 5.625 17.031,6.521 17.015,6.938 16.855 C 6.981 16.839,6.995 17.005,7.010 17.707 C 7.026 18.471,7.039 18.615,7.118 18.860 C 7.432 19.836,8.183 20.582,9.160 20.886 C 9.594 21.021,10.407 21.021,10.839 20.886 C 11.221 20.766,11.530 20.609,11.792 20.402 L 12.000 20.238 12.208 20.402 C 12.470 20.609,12.779 20.766,13.161 20.886 C 13.593 21.021,14.406 21.021,14.840 20.886 C 15.826 20.579,16.579 19.826,16.886 18.840 C 17.031 18.375,17.015 17.479,16.855 17.062 C 16.839 17.019,17.005 17.005,17.707 16.990 C 18.471 16.974,18.615 16.961,18.860 16.882 C 19.836 16.568,20.582 15.817,20.886 14.840 C 21.021 14.406,21.021 13.593,20.886 13.161 C 20.766 12.779,20.609 12.470,20.402 12.208 L 20.238 12.000 20.402 11.792 C 20.609 11.530,20.766 11.221,20.886 10.839 C 21.021 10.407,21.021 9.594,20.886 9.160 C 20.581 8.181,19.821 7.417,18.861 7.125 C 18.594 7.044,18.452 7.027,18.020 7.025 C 17.713 7.024,17.426 7.044,17.320 7.074 C 17.221 7.102,17.110 7.133,17.074 7.144 C 17.015 7.161,17.007 7.075,16.990 6.291 C 16.974 5.529,16.961 5.385,16.882 5.140 C 16.571 4.171,15.811 3.414,14.861 3.125 C 14.405 2.987,13.643 2.981,13.180 3.113 C 12.825 3.215,12.429 3.416,12.170 3.627 L 12.000 3.765 11.830 3.627 C 11.575 3.419,11.176 3.215,10.840 3.121 C 10.498 3.025,9.812 2.984,9.499 3.040 M10.310 5.061 C 10.452 5.103,10.571 5.178,10.697 5.303 C 10.948 5.555,11.000 5.750,11.000 6.451 L 11.000 7.007 10.350 6.993 C 9.728 6.981,9.692 6.975,9.516 6.872 C 8.935 6.530,8.833 5.774,9.304 5.303 C 9.583 5.024,9.916 4.944,10.310 5.061 M14.310 5.061 C 14.452 5.103,14.571 5.178,14.697 5.303 C 15.007 5.614,15.000 5.538,15.000 8.447 L 15.000 11.000 14.000 11.000 L 13.000 11.000 13.000 8.447 C 13.000 5.538,12.993 5.614,13.304 5.303 C 13.583 5.024,13.916 4.944,14.310 5.061 M11.000 10.001 L 11.000 11.002 8.350 10.991 L 5.700 10.980 5.516 10.872 C 4.935 10.530,4.833 9.774,5.304 9.303 C 5.609 8.997,5.520 9.006,8.430 9.003 L 11.000 9.000 11.000 10.001 M18.310 9.061 C 18.688 9.173,19.000 9.598,19.000 10.001 C 19.000 10.331,18.784 10.696,18.484 10.872 C 18.308 10.975,18.272 10.981,17.650 10.993 L 17.000 11.007 17.000 10.451 C 17.000 9.750,17.052 9.555,17.304 9.303 C 17.583 9.024,17.916 8.944,18.310 9.061 M7.000 13.554 C 7.000 14.352,6.890 14.633,6.484 14.872 C 6.328 14.963,6.254 14.980,6.000 14.980 C 5.746 14.980,5.672 14.963,5.516 14.872 C 5.415 14.813,5.282 14.698,5.221 14.618 C 4.908 14.208,4.943 13.664,5.304 13.303 C 5.554 13.052,5.727 13.006,6.430 13.003 L 7.000 13.000 7.000 13.554 M11.000 15.554 C 11.000 18.325,11.000 18.328,10.779 18.618 C 10.718 18.698,10.585 18.813,10.484 18.872 C 10.328 18.963,10.254 18.980,10.000 18.980 C 9.746 18.980,9.672 18.963,9.516 18.872 C 9.415 18.813,9.284 18.700,9.225 18.623 C 8.996 18.323,9.000 18.373,9.000 15.575 L 9.000 13.000 10.000 13.000 L 11.000 13.000 11.000 15.554 M18.310 13.061 C 18.688 13.173,19.000 13.598,19.000 14.001 C 19.000 14.331,18.784 14.696,18.484 14.872 L 18.300 14.980 15.650 14.991 L 13.000 15.002 13.000 14.001 L 13.000 13.000 15.553 13.000 C 17.722 13.000,18.136 13.009,18.310 13.061 M14.310 17.061 C 14.688 17.173,15.000 17.598,15.000 18.001 C 15.000 18.331,14.784 18.696,14.484 18.872 C 14.328 18.963,14.254 18.980,14.000 18.980 C 13.746 18.980,13.672 18.963,13.516 18.872 C 13.415 18.813,13.284 18.700,13.225 18.623 C 13.038 18.377,13.000 18.202,13.000 17.575 L 13.000 17.000 13.553 17.000 C 13.931 17.000,14.170 17.019,14.310 17.061 " stroke="none" fill="black" fill-rule="evenodd"></path></svg>