<svg xmlns="http://www.w3.org/2000/svg" width="24" height="24" viewBox="0 0 24 24" fill="none" stroke="currentColor" stroke-width="2" stroke-linecap="round" stroke-linejoin="round" class="icon icon-tabler icons-tabler-outline icon-tabler-corner-right-up"><path d="M14.620 4.046 C 14.385 4.167,10.154 8.408,10.039 8.637 C 9.863 8.990,9.952 9.355,10.299 9.701 C 10.646 10.048,11.011 10.137,11.363 9.960 C 11.479 9.901,11.961 9.452,12.770 8.647 L 14.000 7.423 13.999 11.301 C 13.999 15.527,14.000 15.505,13.772 15.931 C 13.625 16.208,13.191 16.643,12.930 16.775 C 12.478 17.004,12.543 17.000,9.038 17.000 C 5.589 17.000,5.602 16.999,5.322 17.199 C 5.100 17.357,5.020 17.568,5.020 18.000 C 5.020 18.331,5.033 18.403,5.120 18.558 C 5.230 18.755,5.414 18.898,5.635 18.959 C 5.727 18.985,6.991 19.000,9.074 19.000 C 12.203 19.000,12.387 18.996,12.757 18.921 C 14.384 18.589,15.589 17.384,15.921 15.757 C 15.997 15.384,16.000 15.201,16.000 11.395 L 16.000 7.423 17.230 8.647 C 18.039 9.452,18.521 9.901,18.637 9.960 C 18.989 10.137,19.354 10.048,19.701 9.701 C 20.048 9.354,20.137 8.989,19.960 8.637 C 19.899 8.516,19.234 7.818,17.866 6.439 C 16.763 5.327,15.829 4.370,15.790 4.312 C 15.752 4.254,15.604 4.151,15.460 4.083 C 15.144 3.933,14.863 3.921,14.620 4.046 " stroke="none" fill="black" fill-rule="evenodd"></path></svg>