<svg xmlns="http://www.w3.org/2000/svg" width="24" height="24" viewBox="0 0 24 24" fill="none" stroke="currentColor" stroke-width="2" stroke-linecap="round" stroke-linejoin="round" class="icon icon-tabler icons-tabler-outline icon-tabler-brand-walmart"><path d="M11.614 2.057 C 11.377 2.131,11.212 2.261,11.109 2.453 L 11.020 2.620 11.009 5.432 C 11.002 7.260,11.012 8.297,11.039 8.396 C 11.144 8.787,11.433 9.001,11.896 9.031 C 12.381 9.062,12.699 8.922,12.880 8.598 L 12.980 8.420 12.980 5.520 L 12.980 2.620 12.891 2.453 C 12.842 2.362,12.746 2.247,12.678 2.199 C 12.414 2.010,11.957 1.950,11.614 2.057 M3.665 6.499 C 3.317 6.623,2.998 7.102,2.970 7.540 C 2.956 7.752,2.968 7.801,3.073 7.966 C 3.139 8.068,3.271 8.204,3.366 8.269 C 3.588 8.420,7.807 10.769,8.134 10.924 C 8.686 11.185,9.148 10.986,9.433 10.364 C 9.630 9.932,9.542 9.532,9.192 9.267 C 8.972 9.102,4.434 6.588,4.220 6.513 C 3.980 6.428,3.870 6.426,3.665 6.499 M19.887 6.485 C 19.773 6.506,18.885 6.977,17.327 7.842 C 16.014 8.571,14.881 9.212,14.808 9.267 C 14.453 9.535,14.366 9.930,14.566 10.362 C 14.854 10.987,15.313 11.185,15.865 10.924 C 16.347 10.696,20.616 8.303,20.749 8.187 C 20.824 8.121,20.922 7.995,20.967 7.906 C 21.074 7.697,21.050 7.376,20.907 7.093 C 20.651 6.590,20.337 6.402,19.887 6.485 M8.298 13.003 C 8.111 13.057,3.355 15.710,3.226 15.832 C 2.919 16.124,2.883 16.509,3.122 16.957 C 3.369 17.421,3.701 17.613,4.101 17.523 C 4.237 17.493,5.083 17.045,6.678 16.159 C 7.984 15.433,9.114 14.793,9.188 14.736 C 9.543 14.466,9.631 14.070,9.433 13.636 C 9.185 13.095,8.772 12.865,8.298 13.003 M15.100 13.035 C 14.901 13.125,14.697 13.353,14.577 13.618 C 14.452 13.894,14.425 14.076,14.480 14.278 C 14.572 14.623,14.713 14.716,17.300 16.149 C 18.877 17.022,19.769 17.493,19.900 17.523 C 20.298 17.614,20.631 17.421,20.878 16.957 C 21.128 16.489,21.078 16.089,20.735 15.806 C 20.563 15.664,15.961 13.099,15.733 13.018 C 15.521 12.942,15.289 12.948,15.100 13.035 M11.614 15.017 C 11.377 15.091,11.212 15.221,11.109 15.413 L 11.020 15.580 11.009 18.392 C 11.002 20.220,11.012 21.257,11.039 21.356 C 11.144 21.747,11.433 21.961,11.896 21.991 C 12.381 22.022,12.699 21.882,12.880 21.558 L 12.980 21.380 12.980 18.480 L 12.980 15.580 12.891 15.413 C 12.842 15.322,12.746 15.207,12.678 15.159 C 12.414 14.970,11.957 14.910,11.614 15.017 " stroke="none" fill="black" fill-rule="evenodd"></path></svg>