<svg xmlns="http://www.w3.org/2000/svg" width="24" height="24" viewBox="0 0 24 24" fill="none" stroke="currentColor" stroke-width="2" stroke-linecap="round" stroke-linejoin="round" class="icon icon-tabler icons-tabler-outline icon-tabler-brand-symfony"><path d="M11.280 1.023 C 11.203 1.032,10.951 1.059,10.720 1.083 C 9.216 1.243,7.644 1.781,6.303 2.595 C 4.894 3.450,3.555 4.769,2.661 6.180 C 2.377 6.629,1.893 7.614,1.701 8.133 C 0.645 10.997,0.785 14.041,2.097 16.780 C 2.643 17.918,3.276 18.801,4.238 19.762 C 5.199 20.724,6.082 21.357,7.220 21.903 C 10.967 23.699,15.288 23.270,18.637 20.770 C 19.246 20.316,20.316 19.246,20.770 18.637 C 23.744 14.652,23.744 9.348,20.770 5.363 C 20.316 4.755,19.247 3.686,18.640 3.235 C 17.045 2.049,15.365 1.360,13.423 1.096 C 13.000 1.038,11.574 0.990,11.280 1.023 M13.320 3.101 C 15.883 3.488,18.124 4.931,19.560 7.120 C 19.863 7.583,20.303 8.479,20.492 9.020 C 20.838 10.013,20.977 10.865,20.977 12.000 C 20.977 12.888,20.919 13.397,20.733 14.160 C 20.209 16.312,18.843 18.249,16.960 19.511 C 16.139 20.061,14.901 20.582,13.908 20.797 C 11.268 21.366,8.479 20.708,6.370 19.019 C 4.857 17.807,3.722 16.029,3.267 14.160 C 3.081 13.397,3.023 12.888,3.023 12.000 C 3.023 10.507,3.280 9.379,3.920 8.060 C 4.971 5.891,6.877 4.221,9.160 3.466 C 9.865 3.233,10.432 3.118,11.340 3.024 C 11.662 2.991,12.911 3.039,13.320 3.101 M15.469 5.061 C 14.193 5.315,13.124 6.642,12.535 8.700 C 12.460 8.964,12.393 9.196,12.387 9.215 C 12.381 9.234,12.260 9.148,12.118 9.024 C 11.269 8.280,10.614 8.026,9.540 8.022 C 9.105 8.021,8.976 8.035,8.753 8.110 C 7.988 8.365,7.352 9.012,7.109 9.780 C 7.040 9.996,7.020 10.156,7.021 10.480 C 7.021 10.856,7.033 10.926,7.135 11.148 C 7.349 11.614,7.702 11.874,8.640 12.256 C 9.039 12.418,9.034 12.412,8.940 12.588 C 8.882 12.697,8.795 12.771,8.623 12.859 C 8.405 12.970,8.353 12.980,7.983 12.979 C 7.431 12.979,7.245 12.892,6.840 12.442 C 6.500 12.066,6.326 11.960,6.052 11.960 C 5.698 11.961,5.177 12.294,5.024 12.618 C 4.851 12.982,5.014 13.435,5.507 13.959 C 6.216 14.714,7.094 15.050,8.192 14.988 C 8.735 14.957,9.044 14.878,9.516 14.653 C 9.831 14.502,9.948 14.417,10.240 14.126 C 10.522 13.846,10.620 13.715,10.755 13.440 C 11.005 12.927,11.060 12.481,10.938 11.964 C 10.773 11.261,10.302 10.775,9.439 10.418 C 9.122 10.286,9.087 10.262,9.123 10.195 C 9.220 10.013,9.495 9.962,9.943 10.043 C 10.251 10.099,10.414 10.198,10.900 10.621 C 11.292 10.963,11.807 11.332,11.962 11.381 C 12.005 11.394,12.040 11.427,12.040 11.453 C 12.038 11.606,11.912 12.897,11.860 13.294 C 11.602 15.263,11.058 16.590,10.381 16.906 C 10.060 17.055,10.015 17.041,9.988 16.776 C 9.956 16.464,9.823 16.277,9.532 16.134 C 9.329 16.034,9.255 16.020,8.937 16.020 C 8.606 16.020,8.559 16.030,8.404 16.133 C 8.142 16.306,8.027 16.589,8.007 17.108 C 7.981 17.779,8.170 18.225,8.639 18.596 C 9.397 19.195,10.858 19.114,11.754 18.424 C 12.950 17.504,13.651 15.659,13.946 12.655 L 14.014 11.971 14.637 11.990 C 15.120 12.004,15.321 11.994,15.530 11.945 C 16.473 11.722,17.048 10.931,16.989 9.938 C 16.958 9.422,16.789 9.181,16.371 9.055 C 16.021 8.950,15.588 9.009,15.322 9.199 C 15.165 9.310,15.042 9.550,15.012 9.803 L 14.989 10.000 14.684 9.999 C 14.517 9.999,14.357 9.984,14.329 9.966 C 14.289 9.941,14.304 9.834,14.399 9.463 C 14.707 8.267,15.240 7.322,15.742 7.079 C 15.832 7.036,15.925 7.000,15.948 7.000 C 15.972 7.000,16.002 7.077,16.016 7.170 C 16.060 7.464,16.216 7.743,16.404 7.867 C 16.559 7.970,16.606 7.980,16.937 7.980 C 17.397 7.980,17.693 7.860,17.862 7.604 C 18.169 7.141,17.922 6.095,17.378 5.553 C 16.899 5.075,16.246 4.907,15.469 5.061 " stroke="none" fill="black" fill-rule="evenodd"></path></svg>