<svg xmlns="http://www.w3.org/2000/svg" width="24" height="24" viewBox="0 0 24 24" fill="none" stroke="currentColor" stroke-width="2" stroke-linecap="round" stroke-linejoin="round" class="icon icon-tabler icons-tabler-outline icon-tabler-brand-blackberry"><path d="M3.689 4.039 C 3.457 4.094,3.255 4.261,3.145 4.488 C 3.034 4.718,2.480 6.889,2.480 7.094 C 2.481 7.474,2.701 7.768,3.092 7.914 C 3.313 7.996,3.386 8.000,4.793 8.000 C 6.386 8.000,6.512 7.987,6.930 7.775 C 7.196 7.640,7.638 7.200,7.771 6.937 C 8.065 6.358,8.068 5.649,7.781 5.083 C 7.646 4.816,7.297 4.449,7.017 4.281 C 6.601 4.030,6.415 4.004,5.040 4.006 C 4.369 4.007,3.761 4.022,3.689 4.039 M10.689 4.039 C 10.457 4.094,10.255 4.261,10.145 4.488 C 10.034 4.718,9.480 6.889,9.480 7.094 C 9.481 7.474,9.701 7.768,10.092 7.914 C 10.313 7.996,10.386 8.000,11.793 8.000 C 13.386 8.000,13.512 7.987,13.930 7.775 C 14.196 7.640,14.638 7.200,14.771 6.937 C 15.065 6.358,15.068 5.649,14.781 5.083 C 14.646 4.816,14.297 4.449,14.017 4.281 C 13.601 4.030,13.415 4.004,12.040 4.006 C 11.369 4.007,10.761 4.022,10.689 4.039 M17.689 7.039 C 17.457 7.094,17.255 7.261,17.145 7.488 C 17.034 7.718,16.480 9.889,16.480 10.094 C 16.481 10.474,16.701 10.768,17.092 10.914 C 17.313 10.996,17.386 11.000,18.793 11.000 C 20.386 11.000,20.512 10.987,20.930 10.775 C 21.196 10.640,21.638 10.200,21.771 9.937 C 22.065 9.358,22.068 8.649,21.781 8.083 C 21.646 7.816,21.297 7.449,21.017 7.281 C 20.601 7.030,20.415 7.004,19.040 7.006 C 18.369 7.007,17.761 7.022,17.689 7.039 M2.689 10.039 C 2.457 10.094,2.255 10.261,2.145 10.488 C 2.034 10.718,1.480 12.889,1.480 13.094 C 1.481 13.474,1.701 13.768,2.092 13.914 C 2.313 13.996,2.386 14.000,3.793 14.000 C 5.386 14.000,5.512 13.987,5.930 13.775 C 6.196 13.640,6.638 13.200,6.771 12.937 C 7.065 12.358,7.068 11.649,6.781 11.083 C 6.646 10.816,6.297 10.449,6.017 10.281 C 5.601 10.030,5.415 10.004,4.040 10.006 C 3.369 10.007,2.761 10.022,2.689 10.039 M9.689 10.039 C 9.457 10.094,9.255 10.261,9.145 10.488 C 9.034 10.718,8.480 12.889,8.480 13.094 C 8.481 13.474,8.701 13.768,9.092 13.914 C 9.313 13.996,9.386 14.000,10.793 14.000 C 12.386 14.000,12.512 13.987,12.930 13.775 C 13.196 13.640,13.638 13.200,13.771 12.937 C 14.065 12.358,14.068 11.649,13.781 11.083 C 13.646 10.816,13.297 10.449,13.017 10.281 C 12.601 10.030,12.415 10.004,11.040 10.006 C 10.369 10.007,9.761 10.022,9.689 10.039 M16.689 13.039 C 16.457 13.094,16.255 13.261,16.145 13.488 C 16.034 13.718,15.480 15.889,15.480 16.094 C 15.481 16.474,15.701 16.768,16.092 16.914 C 16.313 16.996,16.386 17.000,17.793 17.000 C 19.386 17.000,19.512 16.987,19.930 16.775 C 20.196 16.640,20.638 16.200,20.771 15.937 C 21.065 15.358,21.068 14.649,20.781 14.083 C 20.646 13.816,20.297 13.449,20.017 13.281 C 19.601 13.030,19.415 13.004,18.040 13.006 C 17.369 13.007,16.761 13.022,16.689 13.039 M8.689 16.039 C 8.457 16.094,8.255 16.261,8.145 16.488 C 8.034 16.718,7.480 18.889,7.480 19.094 C 7.481 19.474,7.701 19.768,8.092 19.914 C 8.313 19.996,8.386 20.000,9.793 20.000 C 11.386 20.000,11.512 19.987,11.930 19.775 C 12.196 19.640,12.638 19.200,12.771 18.937 C 13.065 18.358,13.068 17.649,12.781 17.083 C 12.646 16.816,12.297 16.449,12.017 16.281 C 11.601 16.030,11.415 16.004,10.040 16.006 C 9.369 16.007,8.761 16.022,8.689 16.039 " stroke="none" fill="black" fill-rule="evenodd"></path></svg>