<svg xmlns="http://www.w3.org/2000/svg" width="24" height="24" viewBox="0 0 24 24" fill="none" stroke="currentColor" stroke-width="2" stroke-linecap="round" stroke-linejoin="round" class="icon icon-tabler icons-tabler-outline icon-tabler-brand-feedly"><path d="M11.400 2.044 C 10.556 2.139,9.658 2.506,8.964 3.039 C 8.593 3.325,3.242 8.684,2.993 9.020 C 2.552 9.614,2.258 10.274,2.093 11.041 C 1.992 11.511,1.992 12.489,2.093 12.959 C 2.258 13.726,2.552 14.386,2.993 14.980 C 3.091 15.112,4.649 16.702,6.456 18.514 C 9.090 21.156,9.780 21.827,9.940 21.904 L 10.140 21.999 12.000 21.999 L 13.860 21.999 14.060 21.904 C 14.220 21.827,14.910 21.156,17.544 18.514 C 19.351 16.702,20.909 15.112,21.007 14.980 C 21.448 14.386,21.742 13.726,21.907 12.959 C 22.008 12.489,22.008 11.511,21.907 11.041 C 21.785 10.477,21.544 9.852,21.276 9.411 C 21.012 8.975,20.493 8.427,17.934 5.876 C 14.999 2.951,14.917 2.877,14.208 2.523 C 13.356 2.097,12.393 1.933,11.400 2.044 M12.861 4.129 C 13.305 4.259,13.648 4.462,14.086 4.855 C 14.554 5.276,19.221 9.962,19.388 10.180 C 19.594 10.449,19.791 10.843,19.886 11.180 C 20.067 11.817,19.991 12.745,19.714 13.293 C 19.490 13.736,19.217 14.028,16.304 16.950 L 13.263 20.000 12.000 20.000 L 10.737 20.000 7.696 16.950 C 4.783 14.028,4.510 13.736,4.286 13.293 C 4.009 12.745,3.933 11.817,4.114 11.180 C 4.209 10.843,4.406 10.449,4.612 10.180 C 4.779 9.962,9.446 5.276,9.914 4.855 C 10.449 4.375,10.883 4.152,11.499 4.040 C 11.832 3.980,12.500 4.023,12.861 4.129 M12.110 6.805 C 12.028 6.823,11.893 6.882,11.810 6.936 C 11.728 6.989,10.586 8.110,9.273 9.426 C 6.925 11.781,6.885 11.824,6.821 12.048 C 6.768 12.234,6.764 12.306,6.802 12.446 C 6.923 12.897,7.421 13.327,7.822 13.327 C 8.209 13.327,8.217 13.320,10.768 10.768 C 13.323 8.213,13.327 8.209,13.327 7.818 C 13.327 7.592,13.160 7.282,12.930 7.080 C 12.646 6.829,12.387 6.743,12.110 6.805 M11.860 11.357 C 11.736 11.429,11.187 11.948,10.412 12.727 C 9.100 14.044,9.002 14.168,9.002 14.500 C 9.002 14.966,9.588 15.560,10.048 15.560 C 10.381 15.560,10.513 15.454,11.868 14.104 C 13.244 12.732,13.317 12.639,13.319 12.268 C 13.320 12.030,13.212 11.810,12.981 11.579 C 12.618 11.216,12.234 11.140,11.860 11.357 M12.482 15.203 C 12.256 15.305,11.444 16.112,11.320 16.357 C 11.139 16.716,11.225 17.067,11.579 17.421 C 11.933 17.775,12.284 17.861,12.643 17.680 C 12.888 17.556,13.695 16.744,13.797 16.518 C 13.901 16.289,13.902 16.030,13.799 15.817 C 13.701 15.615,13.335 15.259,13.142 15.178 C 12.949 15.097,12.693 15.107,12.482 15.203 " stroke="none" fill="black" fill-rule="evenodd"></path></svg>