<svg xmlns="http://www.w3.org/2000/svg" width="24" height="24" viewBox="0 0 24 24" fill="none" stroke="currentColor" stroke-width="2" stroke-linecap="round" stroke-linejoin="round" class="icon icon-tabler icons-tabler-outline icon-tabler-cast-off"><path d="M2.626 2.045 C 2.257 2.239,1.951 2.673,1.951 3.000 C 1.951 3.304,2.080 3.489,2.807 4.224 L 3.483 4.908 3.189 5.204 C 2.705 5.692,2.304 6.388,2.195 6.932 C 2.089 7.458,2.436 7.865,3.109 8.004 C 3.600 8.106,3.869 7.924,4.165 7.290 C 4.315 6.968,4.411 6.824,4.610 6.620 C 4.749 6.477,4.881 6.360,4.902 6.360 C 4.923 6.360,7.559 8.979,10.760 12.180 L 16.580 18.000 15.696 18.000 C 14.757 18.000,14.561 18.028,14.322 18.199 C 14.100 18.357,14.020 18.568,14.020 19.000 C 14.020 19.331,14.033 19.403,14.120 19.558 C 14.232 19.759,14.417 19.900,14.647 19.962 C 14.745 19.988,15.487 20.002,16.685 19.998 L 18.569 19.993 19.514 20.931 C 20.113 21.525,20.525 21.903,20.637 21.960 C 20.989 22.137,21.354 22.048,21.701 21.701 C 22.048 21.354,22.137 20.988,21.959 20.637 C 21.902 20.525,21.445 20.028,20.710 19.280 C 20.073 18.631,19.532 18.082,19.509 18.060 C 19.485 18.038,15.910 14.470,11.563 10.132 C 7.216 5.793,3.615 2.209,3.560 2.167 C 3.263 1.941,2.910 1.895,2.626 2.045 M8.638 4.054 C 8.198 4.174,8.020 4.453,8.020 5.023 C 8.020 5.358,8.030 5.402,8.142 5.583 C 8.219 5.709,8.328 5.816,8.442 5.880 L 8.620 5.980 13.520 6.000 C 19.001 6.023,18.583 6.000,19.063 6.314 C 19.358 6.508,19.554 6.712,19.735 7.014 C 20.007 7.468,20.000 7.330,20.000 11.988 C 20.000 16.118,19.999 16.186,19.914 16.600 C 19.812 17.098,19.841 17.272,20.062 17.517 C 20.276 17.753,20.550 17.857,20.963 17.859 C 21.277 17.860,21.318 17.851,21.452 17.749 C 21.649 17.599,21.777 17.367,21.887 16.960 L 21.980 16.620 21.980 12.000 L 21.980 7.380 21.890 7.053 C 21.774 6.631,21.573 6.161,21.385 5.868 C 20.815 4.984,19.910 4.348,18.855 4.091 C 18.607 4.030,18.107 4.023,13.700 4.014 C 9.900 4.006,8.780 4.015,8.638 4.054 M2.649 10.036 C 2.262 10.137,2.039 10.438,2.009 10.900 C 1.978 11.377,2.119 11.701,2.434 11.874 C 2.580 11.955,2.706 11.977,3.313 12.023 C 4.323 12.101,4.653 12.165,5.380 12.427 C 7.324 13.126,8.874 14.676,9.573 16.620 C 9.835 17.347,9.899 17.677,9.977 18.687 C 10.023 19.294,10.045 19.420,10.126 19.566 C 10.286 19.856,10.576 20.000,11.000 20.000 C 11.426 20.000,11.714 19.856,11.876 19.563 C 12.131 19.101,11.970 17.479,11.538 16.169 C 10.483 12.962,7.659 10.592,4.310 10.101 C 3.797 10.026,2.833 9.989,2.649 10.036 M2.614 14.057 C 2.223 14.180,2.039 14.436,2.009 14.900 C 1.978 15.377,2.119 15.701,2.435 15.875 C 2.572 15.951,2.701 15.977,3.078 16.005 C 3.859 16.063,4.421 16.275,4.912 16.696 C 5.602 17.288,5.923 17.947,5.995 18.922 C 6.023 19.299,6.049 19.428,6.125 19.565 C 6.286 19.856,6.575 20.000,7.000 20.000 C 7.428 20.000,7.713 19.856,7.880 19.558 C 7.972 19.394,7.980 19.340,7.979 18.880 C 7.978 17.314,7.128 15.752,5.800 14.874 C 5.046 14.375,4.396 14.135,3.552 14.043 C 3.057 13.988,2.822 13.992,2.614 14.057 M2.614 18.055 C 2.220 18.184,2.039 18.437,2.009 18.900 C 1.978 19.381,2.119 19.699,2.442 19.880 C 2.597 19.967,2.669 19.980,3.000 19.980 C 3.312 19.980,3.408 19.964,3.540 19.894 C 3.866 19.718,4.000 19.459,4.000 19.000 C 4.000 18.357,3.713 18.048,3.083 18.016 C 2.893 18.006,2.718 18.021,2.614 18.055 " stroke="none" fill="black" fill-rule="evenodd"></path></svg>