<svg xmlns="http://www.w3.org/2000/svg" width="24" height="24" viewBox="0 0 24 24" fill="none" stroke="currentColor" stroke-width="2" stroke-linecap="round" stroke-linejoin="round" class="icon icon-tabler icons-tabler-outline icon-tabler-browser-x"><path d="M4.477 3.073 C 3.806 3.249,3.238 3.823,3.060 4.508 C 3.008 4.707,3.000 5.691,3.000 12.000 C 3.000 19.922,2.987 19.460,3.225 19.930 C 3.361 20.199,3.801 20.639,4.070 20.775 C 4.540 21.013,4.078 21.000,12.000 21.000 C 19.922 21.000,19.460 21.013,19.930 20.775 C 20.196 20.640,20.638 20.200,20.771 19.937 C 21.014 19.459,21.000 19.929,20.999 12.014 C 20.999 4.156,21.009 4.532,20.781 4.083 C 20.646 3.816,20.297 3.449,20.017 3.281 C 19.525 2.985,20.100 3.005,12.000 3.005 C 5.266 3.005,4.721 3.010,4.477 3.073 M7.000 6.000 L 7.000 7.000 6.000 7.000 L 5.000 7.000 5.000 6.000 L 5.000 5.000 6.000 5.000 L 7.000 5.000 7.000 6.000 M19.000 6.000 L 19.000 7.000 14.000 7.000 L 9.000 7.000 9.000 6.000 L 9.000 5.000 14.000 5.000 L 19.000 5.000 19.000 6.000 M19.000 14.000 L 19.000 19.000 12.000 19.000 L 5.000 19.000 5.000 14.000 L 5.000 9.000 12.000 9.000 L 19.000 9.000 19.000 14.000 M9.626 11.045 C 9.257 11.239,8.951 11.673,8.951 12.000 C 8.951 12.307,9.079 12.487,9.853 13.270 L 10.575 14.000 9.853 14.730 C 9.079 15.513,8.951 15.693,8.951 16.000 C 8.951 16.477,9.523 17.049,10.000 17.049 C 10.307 17.049,10.487 16.921,11.270 16.147 L 12.000 15.425 12.730 16.147 C 13.513 16.921,13.693 17.049,14.000 17.049 C 14.477 17.049,15.049 16.477,15.049 16.000 C 15.049 15.693,14.921 15.513,14.147 14.730 L 13.425 14.000 14.147 13.270 C 14.580 12.832,14.905 12.469,14.959 12.363 C 15.137 12.012,15.048 11.646,14.701 11.299 C 14.360 10.958,13.979 10.868,13.628 11.045 C 13.533 11.094,13.144 11.444,12.730 11.853 L 12.000 12.575 11.270 11.853 C 10.856 11.444,10.467 11.094,10.372 11.045 C 10.152 10.934,9.836 10.934,9.626 11.045 " stroke="none" fill="black" fill-rule="evenodd"></path></svg>