<svg xmlns="http://www.w3.org/2000/svg" width="24" height="24" viewBox="0 0 24 24" fill="none" stroke="currentColor" stroke-width="2" stroke-linecap="round" stroke-linejoin="round" class="icon icon-tabler icons-tabler-outline icon-tabler-charging-pile"><path d="M5.499 3.042 C 4.388 3.233,3.488 4.024,3.114 5.140 L 3.020 5.420 3.009 12.201 L 2.998 18.982 2.755 19.028 C 2.450 19.086,2.227 19.232,2.111 19.450 C 2.035 19.592,2.020 19.682,2.020 20.000 C 2.020 20.331,2.033 20.403,2.120 20.558 C 2.230 20.755,2.414 20.898,2.635 20.959 C 2.834 21.015,15.166 21.015,15.365 20.959 C 15.586 20.898,15.770 20.755,15.880 20.558 C 15.967 20.402,15.980 20.332,15.979 20.000 C 15.978 19.685,15.963 19.591,15.888 19.450 C 15.773 19.232,15.551 19.086,15.244 19.028 L 15.000 18.982 15.000 15.491 C 15.000 12.628,15.009 12.000,15.053 12.000 C 15.240 12.000,15.531 12.137,15.697 12.303 C 15.995 12.602,16.000 12.636,16.001 14.577 C 16.001 16.465,16.017 16.610,16.265 17.120 C 16.378 17.351,16.491 17.499,16.756 17.761 C 17.280 18.279,17.785 18.490,18.500 18.490 C 19.215 18.490,19.720 18.279,20.244 17.761 C 20.509 17.499,20.622 17.351,20.735 17.120 C 21.009 16.558,21.003 16.665,20.991 12.469 L 20.980 8.700 20.873 8.520 C 20.721 8.265,17.585 5.151,17.372 5.044 C 17.151 4.934,16.850 4.933,16.635 5.043 C 16.424 5.150,16.148 5.428,16.038 5.644 C 15.856 6.002,15.945 6.326,16.344 6.757 L 16.569 7.000 16.344 7.243 C 16.061 7.549,15.951 7.760,15.951 8.000 C 15.951 8.477,16.523 9.049,17.000 9.049 C 17.240 9.049,17.451 8.939,17.760 8.654 L 18.005 8.426 18.503 8.923 L 19.000 9.419 19.000 12.753 C 19.000 16.395,19.008 16.267,18.773 16.421 C 18.648 16.503,18.351 16.506,18.238 16.427 C 18.015 16.271,18.022 16.331,17.998 14.300 C 17.977 12.477,17.973 12.412,17.884 12.140 C 17.695 11.565,17.381 11.098,16.911 10.695 C 16.474 10.320,15.893 10.078,15.288 10.018 L 15.004 9.990 14.991 7.705 C 14.978 5.438,14.977 5.418,14.885 5.140 C 14.560 4.161,13.820 3.424,12.861 3.122 L 12.540 3.021 9.120 3.014 C 7.239 3.011,5.609 3.023,5.499 3.042 M12.310 5.061 C 12.452 5.103,12.571 5.178,12.697 5.303 C 12.948 5.554,13.000 5.751,13.000 6.447 L 13.000 7.000 9.000 7.000 L 5.000 7.000 5.000 6.447 C 5.000 5.750,5.052 5.554,5.304 5.303 C 5.613 4.993,5.459 5.006,8.983 5.003 C 11.668 5.000,12.134 5.009,12.310 5.061 M13.000 14.000 L 13.000 19.000 9.000 19.000 L 5.000 19.000 5.000 14.000 L 5.000 9.000 9.000 9.000 L 13.000 9.000 13.000 14.000 M8.780 10.478 C 8.577 10.527,8.414 10.631,8.286 10.793 C 8.218 10.878,7.795 11.561,7.346 12.311 C 6.459 13.791,6.391 13.943,6.480 14.261 C 6.545 14.491,6.740 14.714,7.006 14.861 C 7.217 14.978,7.230 14.980,7.970 15.000 L 8.720 15.020 8.454 15.460 C 7.906 16.369,7.845 16.622,8.090 16.983 C 8.322 17.325,8.865 17.604,9.171 17.538 C 9.386 17.492,9.584 17.371,9.712 17.210 C 9.859 17.025,11.347 14.556,11.430 14.360 C 11.508 14.177,11.502 13.731,11.420 13.534 C 11.385 13.449,11.307 13.329,11.248 13.267 C 11.043 13.052,10.928 13.026,10.070 13.002 L 9.280 12.980 9.546 12.540 C 10.085 11.645,10.150 11.389,9.924 11.032 C 9.691 10.665,9.130 10.393,8.780 10.478 " stroke="none" fill="black" fill-rule="evenodd"></path></svg>