<svg xmlns="http://www.w3.org/2000/svg" width="24" height="24" viewBox="0 0 24 24" fill="none" stroke="currentColor" stroke-width="2" stroke-linecap="round" stroke-linejoin="round" class="icon icon-tabler icons-tabler-outline icon-tabler-math-integrals"><path d="M10.480 2.060 C 9.545 2.272,8.864 3.053,8.420 4.423 C 8.143 5.276,7.998 6.008,7.499 9.052 C 7.356 9.927,7.149 11.115,7.038 11.692 C 6.827 12.799,6.592 14.154,6.321 15.840 C 5.913 18.375,5.577 19.577,5.185 19.907 C 5.079 19.996,5.038 20.006,4.867 19.986 C 4.529 19.946,4.202 19.693,4.076 19.373 C 4.051 19.311,4.015 19.111,3.996 18.929 C 3.954 18.534,3.853 18.316,3.649 18.182 C 3.198 17.887,2.426 17.979,2.170 18.358 C 2.027 18.570,1.988 18.782,2.013 19.200 C 2.088 20.446,2.936 21.507,4.160 21.886 C 4.595 22.020,5.343 22.020,5.731 21.887 C 6.621 21.579,7.243 20.752,7.657 19.324 C 7.879 18.560,8.018 17.850,8.400 15.540 C 8.600 14.330,8.843 12.926,8.940 12.420 C 9.201 11.060,9.332 10.305,9.600 8.640 C 9.951 6.460,10.158 5.474,10.405 4.800 C 10.585 4.310,10.822 4.000,11.016 4.000 C 11.224 4.000,11.515 4.124,11.679 4.283 C 11.892 4.491,11.958 4.650,12.001 5.067 C 12.068 5.718,12.370 6.000,13.000 6.000 C 13.428 6.000,13.713 5.856,13.880 5.558 C 13.971 5.396,13.980 5.338,13.979 4.920 C 13.978 4.555,13.959 4.398,13.885 4.160 C 13.583 3.182,12.810 2.406,11.861 2.129 C 11.447 2.008,10.841 1.978,10.480 2.060 M18.480 2.060 C 17.545 2.272,16.864 3.053,16.420 4.423 C 16.143 5.276,15.998 6.008,15.499 9.052 C 15.356 9.927,15.149 11.115,15.038 11.692 C 14.827 12.799,14.592 14.154,14.321 15.840 C 13.913 18.375,13.577 19.577,13.185 19.907 C 13.079 19.996,13.038 20.006,12.867 19.986 C 12.529 19.946,12.202 19.693,12.076 19.373 C 12.051 19.311,12.015 19.111,11.996 18.929 C 11.954 18.534,11.853 18.316,11.649 18.182 C 11.198 17.887,10.426 17.979,10.170 18.358 C 10.027 18.570,9.988 18.782,10.013 19.200 C 10.088 20.446,10.936 21.507,12.160 21.886 C 12.595 22.020,13.343 22.020,13.731 21.887 C 14.621 21.579,15.243 20.752,15.657 19.324 C 15.879 18.560,16.018 17.850,16.400 15.540 C 16.600 14.330,16.843 12.926,16.940 12.420 C 17.201 11.060,17.332 10.305,17.600 8.640 C 17.951 6.460,18.158 5.474,18.405 4.800 C 18.585 4.310,18.822 4.000,19.016 4.000 C 19.224 4.000,19.515 4.124,19.679 4.283 C 19.892 4.491,19.958 4.650,20.001 5.067 C 20.068 5.718,20.370 6.000,21.000 6.000 C 21.428 6.000,21.713 5.856,21.880 5.558 C 21.971 5.396,21.980 5.338,21.979 4.920 C 21.978 4.555,21.959 4.398,21.885 4.160 C 21.583 3.182,20.810 2.406,19.861 2.129 C 19.447 2.008,18.841 1.978,18.480 2.060 " stroke="none" fill="black" fill-rule="evenodd"></path></svg>