<svg xmlns="http://www.w3.org/2000/svg" width="24" height="24" viewBox="0 0 24 24" fill="none" stroke="currentColor" stroke-width="2" stroke-linecap="round" stroke-linejoin="round" class="icon icon-tabler icons-tabler-outline icon-tabler-home-search"><path d="M11.620 2.046 C 11.382 2.168,2.155 11.405,2.039 11.637 C 1.830 12.056,2.036 12.589,2.514 12.871 C 2.693 12.976,2.726 12.981,3.348 12.993 L 3.997 13.007 4.009 16.293 L 4.021 19.580 4.114 19.860 C 4.442 20.839,5.162 21.560,6.140 21.885 L 6.420 21.979 9.120 21.992 C 12.081 22.007,12.142 22.003,12.389 21.787 C 12.602 21.600,12.686 21.376,12.686 21.000 C 12.686 20.491,12.504 20.196,12.109 20.064 C 11.955 20.012,11.730 20.000,10.959 20.000 L 10.000 20.000 10.000 17.447 C 10.000 14.538,9.993 14.614,10.303 14.303 C 10.588 14.018,10.692 14.000,12.057 14.000 C 12.713 14.000,13.283 13.982,13.365 13.959 C 13.586 13.898,13.770 13.755,13.880 13.558 C 13.967 13.402,13.980 13.332,13.979 13.000 C 13.978 12.552,13.893 12.342,13.649 12.182 C 13.381 12.007,13.224 11.992,11.796 12.009 C 10.512 12.024,10.447 12.029,10.139 12.124 C 9.186 12.417,8.442 13.159,8.115 14.140 L 8.021 14.420 8.009 17.213 L 7.996 20.007 7.348 19.993 C 6.728 19.981,6.692 19.975,6.516 19.872 C 6.328 19.761,6.158 19.572,6.070 19.373 C 6.032 19.286,6.015 18.375,6.000 15.440 L 5.980 11.620 5.890 11.451 C 5.803 11.289,5.556 11.080,5.451 11.080 C 5.423 11.080,5.400 11.066,5.400 11.050 C 5.400 11.033,6.885 9.535,8.700 7.720 L 12.000 4.421 16.230 8.646 C 19.248 11.662,20.511 12.897,20.637 12.961 C 20.990 13.137,21.355 13.048,21.701 12.701 C 22.047 12.355,22.136 11.990,21.961 11.637 C 21.839 11.393,12.615 2.165,12.372 2.044 C 12.151 1.934,11.836 1.935,11.620 2.046 M17.358 14.061 C 16.230 14.237,15.143 14.974,14.569 15.953 C 13.320 18.083,14.233 20.785,16.512 21.704 C 17.475 22.092,18.529 22.091,19.498 21.700 C 19.691 21.622,19.887 21.532,19.933 21.500 C 20.012 21.444,20.052 21.476,20.738 22.155 C 21.512 22.921,21.693 23.049,22.000 23.049 C 22.477 23.049,23.049 22.477,23.049 22.000 C 23.049 21.693,22.921 21.512,22.155 20.738 C 21.476 20.052,21.444 20.012,21.500 19.933 C 21.619 19.762,21.844 19.135,21.921 18.757 C 22.070 18.024,21.994 17.230,21.705 16.516 C 21.172 15.197,20.001 14.269,18.605 14.058 C 18.144 13.989,17.816 13.990,17.358 14.061 M18.523 16.073 C 19.262 16.266,19.850 16.924,19.967 17.690 C 20.067 18.343,19.873 18.933,19.403 19.404 C 19.002 19.807,18.547 20.000,18.000 20.000 C 17.485 20.000,17.038 19.822,16.653 19.465 C 15.323 18.229,16.189 16.005,18.000 16.005 C 18.143 16.005,18.378 16.036,18.523 16.073 " stroke="none" fill="black" fill-rule="evenodd"></path></svg>