<svg xmlns="http://www.w3.org/2000/svg" width="24" height="24" viewBox="0 0 24 24" fill="none" stroke="currentColor" stroke-width="2" stroke-linecap="round" stroke-linejoin="round" class="icon icon-tabler icons-tabler-outline icon-tabler-navigation-code"><path d="M11.731 2.036 C 11.481 2.129,11.311 2.244,11.205 2.394 C 11.094 2.549,3.206 19.639,3.088 19.980 C 2.926 20.445,3.006 20.946,3.308 21.375 C 3.582 21.764,4.130 22.024,4.609 21.993 C 4.945 21.971,11.364 19.805,11.640 19.620 C 12.030 19.360,12.106 18.874,11.841 18.336 C 11.741 18.132,11.670 18.046,11.526 17.953 C 11.349 17.840,11.324 17.835,11.020 17.854 C 10.735 17.873,10.410 17.974,8.080 18.768 C 6.639 19.260,5.455 19.651,5.449 19.637 C 5.434 19.606,11.971 5.440,12.000 5.440 C 12.012 5.440,12.867 7.271,13.899 9.508 C 14.932 11.745,15.831 13.657,15.898 13.756 C 16.075 14.017,16.312 14.132,16.622 14.109 C 17.085 14.074,17.600 13.713,17.663 13.380 C 17.729 13.028,17.719 13.006,15.259 7.672 C 13.947 4.827,12.830 2.433,12.777 2.350 C 12.552 2.005,12.144 1.883,11.731 2.036 M16.620 16.046 C 16.390 16.165,14.153 18.411,14.040 18.637 C 13.986 18.744,13.951 18.889,13.951 19.000 C 13.951 19.334,14.057 19.468,15.294 20.706 C 16.532 21.943,16.666 22.049,17.000 22.049 C 17.477 22.049,18.049 21.477,18.049 21.000 C 18.049 20.693,17.921 20.513,17.147 19.730 L 16.425 19.000 17.147 18.270 C 17.580 17.832,17.905 17.469,17.959 17.363 C 18.137 17.012,18.048 16.646,17.701 16.299 C 17.361 15.959,16.967 15.867,16.620 16.046 M19.626 16.045 C 19.257 16.239,18.951 16.673,18.951 17.000 C 18.951 17.307,19.079 17.487,19.853 18.270 L 20.575 19.000 19.853 19.730 C 19.420 20.168,19.095 20.531,19.041 20.637 C 18.863 20.988,18.952 21.354,19.299 21.701 C 19.646 22.048,20.010 22.137,20.363 21.960 C 20.607 21.838,22.838 19.607,22.960 19.363 C 23.076 19.132,23.076 18.868,22.960 18.637 C 22.842 18.400,20.608 16.162,20.372 16.044 C 20.152 15.934,19.835 15.935,19.626 16.045 " stroke="none" fill="black" fill-rule="evenodd"></path></svg>