<svg xmlns="http://www.w3.org/2000/svg" width="24" height="24" viewBox="0 0 24 24" fill="none" stroke="currentColor" stroke-width="2" stroke-linecap="round" stroke-linejoin="round" class="icon icon-tabler icons-tabler-outline icon-tabler-schema"><path d="M4.614 1.057 C 4.377 1.131,4.212 1.261,4.109 1.453 C 4.020 1.619,4.020 1.629,4.009 3.911 C 4.001 5.392,4.012 6.256,4.039 6.355 C 4.100 6.583,4.242 6.768,4.442 6.880 C 4.615 6.977,4.644 6.980,5.550 6.993 L 6.480 7.005 6.480 8.000 L 6.480 8.995 5.569 9.007 C 4.682 9.020,4.652 9.023,4.459 9.122 C 4.245 9.233,4.105 9.404,4.041 9.635 C 3.986 9.831,3.986 14.169,4.041 14.365 C 4.102 14.586,4.245 14.770,4.442 14.880 C 4.615 14.977,4.644 14.980,5.550 14.993 L 6.480 15.005 6.480 16.000 L 6.480 16.995 5.569 17.007 C 4.682 17.020,4.652 17.023,4.459 17.122 C 4.242 17.234,4.103 17.407,4.039 17.645 C 4.012 17.744,4.001 18.608,4.009 20.089 L 4.020 22.380 4.120 22.558 C 4.230 22.755,4.414 22.898,4.635 22.959 C 4.832 23.014,10.168 23.014,10.365 22.959 C 10.586 22.898,10.770 22.755,10.880 22.558 L 10.980 22.380 10.980 20.000 L 10.980 17.620 10.891 17.453 C 10.686 17.071,10.446 17.000,9.354 17.000 L 8.520 17.000 8.520 16.000 L 8.520 15.000 9.370 15.000 C 9.838 15.000,10.285 14.981,10.365 14.959 C 10.586 14.898,10.770 14.755,10.880 14.558 C 10.974 14.391,10.981 14.338,10.994 13.690 L 11.008 13.000 12.501 13.000 L 13.993 13.000 14.007 13.690 C 14.019 14.339,14.026 14.391,14.120 14.558 C 14.230 14.755,14.414 14.898,14.635 14.959 C 14.832 15.014,20.168 15.014,20.365 14.959 C 20.586 14.898,20.770 14.755,20.880 14.558 L 20.980 14.380 20.980 12.000 L 20.980 9.620 20.891 9.453 C 20.785 9.256,20.622 9.131,20.371 9.055 C 20.101 8.974,14.899 8.974,14.629 9.055 C 14.378 9.131,14.215 9.256,14.109 9.453 C 14.029 9.603,14.019 9.689,14.007 10.310 L 13.993 11.000 12.501 11.000 L 11.008 11.000 10.993 10.310 C 10.976 9.541,10.930 9.378,10.678 9.199 C 10.441 9.030,10.240 9.000,9.354 9.000 L 8.520 9.000 8.520 8.000 L 8.520 7.000 9.370 7.000 C 9.838 7.000,10.285 6.981,10.365 6.959 C 10.586 6.898,10.770 6.755,10.880 6.558 L 10.980 6.380 10.980 4.000 L 10.980 1.620 10.891 1.453 C 10.785 1.256,10.622 1.131,10.371 1.055 C 10.110 0.977,4.865 0.979,4.614 1.057 M9.000 4.000 L 9.000 5.000 7.500 5.000 L 6.000 5.000 6.000 4.000 L 6.000 3.000 7.500 3.000 L 9.000 3.000 9.000 4.000 M9.000 12.000 L 9.000 13.000 7.500 13.000 L 6.000 13.000 6.000 12.000 L 6.000 11.000 7.500 11.000 L 9.000 11.000 9.000 12.000 M19.000 12.000 L 19.000 13.000 17.500 13.000 L 16.000 13.000 16.000 12.000 L 16.000 11.000 17.500 11.000 L 19.000 11.000 19.000 12.000 M9.000 20.000 L 9.000 21.000 7.500 21.000 L 6.000 21.000 6.000 20.000 L 6.000 19.000 7.500 19.000 L 9.000 19.000 9.000 20.000 " stroke="none" fill="black" fill-rule="evenodd"></path></svg>