<svg xmlns="http://www.w3.org/2000/svg" width="24" height="24" viewBox="0 0 24 24" fill="none" stroke="currentColor" stroke-width="2" stroke-linecap="round" stroke-linejoin="round" class="icon icon-tabler icons-tabler-outline icon-tabler-world-minus"><path d="M11.155 2.010 C 11.106 2.028,10.929 2.061,10.763 2.083 C 6.593 2.636,3.254 5.621,2.288 9.660 C 2.069 10.574,2.021 11.002,2.022 12.020 C 2.024 12.996,2.066 13.390,2.263 14.240 C 2.879 16.910,4.507 19.146,6.873 20.577 C 8.002 21.259,9.268 21.704,10.640 21.902 C 10.893 21.939,11.131 21.985,11.168 22.005 C 11.208 22.026,11.560 22.026,12.031 22.005 C 12.875 21.968,13.060 21.926,13.270 21.724 C 13.594 21.412,13.603 20.607,13.287 20.265 C 13.100 20.063,12.907 20.002,12.458 20.001 L 12.056 20.000 11.732 19.370 C 11.209 18.355,10.912 17.624,10.597 16.580 C 10.511 16.294,10.440 16.046,10.440 16.029 C 10.440 16.011,12.775 15.999,15.630 16.001 C 18.951 16.004,20.857 15.991,20.924 15.966 C 20.981 15.945,21.100 15.844,21.190 15.742 C 21.323 15.590,21.381 15.467,21.513 15.049 C 21.822 14.072,21.948 13.333,21.987 12.280 C 22.071 10.001,21.318 7.716,19.858 5.820 C 19.235 5.010,18.104 4.012,17.171 3.447 C 16.097 2.797,14.779 2.318,13.580 2.142 C 13.338 2.106,13.059 2.057,12.960 2.033 C 12.748 1.980,11.284 1.962,11.155 2.010 M12.352 4.790 C 12.707 5.489,12.950 6.059,13.199 6.780 C 13.345 7.204,13.560 7.917,13.560 7.978 C 13.560 7.990,12.858 8.000,12.000 8.000 C 11.142 8.000,10.440 7.987,10.440 7.970 C 10.440 7.909,10.759 6.887,10.896 6.508 C 11.171 5.750,11.919 4.160,12.001 4.160 C 12.017 4.160,12.175 4.444,12.352 4.790 M9.356 4.964 C 9.079 5.618,8.615 6.993,8.480 7.560 C 8.430 7.769,8.377 7.954,8.362 7.970 C 8.347 7.987,7.603 7.996,6.708 7.990 L 5.080 7.980 5.290 7.660 C 6.097 6.428,7.161 5.480,8.454 4.842 C 8.884 4.629,9.562 4.353,9.590 4.378 C 9.596 4.383,9.491 4.647,9.356 4.964 M15.540 4.840 C 16.831 5.473,17.901 6.424,18.710 7.660 L 18.920 7.980 17.292 7.990 C 16.397 7.996,15.653 7.987,15.638 7.970 C 15.623 7.954,15.569 7.769,15.519 7.560 C 15.329 6.774,14.979 5.743,14.604 4.862 C 14.492 4.598,14.400 4.379,14.400 4.374 C 14.400 4.342,15.143 4.645,15.540 4.840 M8.021 10.090 C 7.981 10.271,7.920 11.422,7.920 12.000 C 7.920 12.578,7.981 13.729,8.021 13.910 L 8.042 14.000 6.147 14.000 L 4.252 14.000 4.188 13.690 C 4.049 13.016,4.024 12.755,4.025 12.000 C 4.025 11.247,4.064 10.864,4.207 10.210 L 4.253 10.000 6.147 10.000 L 8.042 10.000 8.021 10.090 M13.973 10.210 C 14.092 11.231,14.100 12.506,13.996 13.530 L 13.948 14.000 11.999 14.000 L 10.050 14.000 10.027 13.810 C 9.938 13.082,9.907 11.960,9.954 11.190 C 9.982 10.745,10.014 10.295,10.027 10.190 L 10.050 10.000 12.000 10.000 L 13.949 10.000 13.973 10.210 M19.760 10.030 C 19.761 10.046,19.795 10.231,19.837 10.440 C 20.051 11.505,20.044 12.532,19.814 13.670 L 19.747 14.000 17.849 14.000 L 15.951 14.000 15.975 13.870 C 16.103 13.176,16.107 10.858,15.981 10.110 L 15.962 10.000 17.861 10.000 C 18.905 10.000,19.760 10.014,19.760 10.030 M8.507 16.540 C 8.686 17.235,9.059 18.333,9.350 19.020 C 9.505 19.385,9.571 19.584,9.539 19.592 C 9.470 19.609,8.721 19.304,8.306 19.091 C 7.020 18.427,5.890 17.353,5.105 16.050 C 5.081 16.009,5.405 16.001,6.724 16.010 L 8.373 16.020 8.507 16.540 M15.614 18.057 C 15.377 18.131,15.212 18.261,15.109 18.453 C 15.035 18.592,15.020 18.684,15.020 19.000 C 15.020 19.331,15.033 19.403,15.120 19.558 C 15.230 19.755,15.414 19.898,15.635 19.959 C 15.832 20.014,22.168 20.014,22.365 19.959 C 22.586 19.898,22.770 19.755,22.880 19.558 C 22.967 19.402,22.980 19.332,22.979 19.000 C 22.978 18.567,22.898 18.355,22.678 18.199 C 22.398 17.999,22.411 18.000,18.984 18.003 C 16.472 18.005,15.744 18.017,15.614 18.057 " stroke="none" fill="black" fill-rule="evenodd"></path></svg>