<svg xmlns="http://www.w3.org/2000/svg" width="24" height="24" viewBox="0 0 24 24" fill="none" stroke="currentColor" stroke-width="2" stroke-linecap="round" stroke-linejoin="round" class="icon icon-tabler icons-tabler-outline icon-tabler-file-orientation"><path d="M6.499 2.043 C 5.383 2.230,4.461 3.048,4.114 4.160 L 4.020 4.460 4.020 12.000 L 4.020 19.540 4.114 19.840 C 4.419 20.816,5.154 21.559,6.140 21.885 C 6.414 21.975,6.461 21.977,8.307 21.991 C 9.553 22.000,10.247 21.991,10.351 21.963 C 10.583 21.900,10.767 21.759,10.880 21.558 C 10.967 21.402,10.980 21.332,10.979 21.000 C 10.977 20.469,10.851 20.245,10.455 20.071 C 10.370 20.034,9.860 20.016,8.520 20.000 L 6.700 19.980 6.516 19.872 C 6.415 19.813,6.284 19.700,6.225 19.623 C 5.986 19.309,6.000 19.795,6.000 12.022 C 6.000 4.006,5.975 4.631,6.303 4.303 C 6.618 3.989,6.481 4.000,9.947 4.000 L 13.000 4.000 13.000 5.632 C 13.000 7.399,13.010 7.507,13.225 7.930 C 13.361 8.199,13.801 8.639,14.070 8.775 C 14.493 8.990,14.601 9.000,16.368 9.000 L 18.000 9.000 18.000 9.610 C 18.000 9.945,18.019 10.285,18.041 10.365 C 18.148 10.750,18.437 10.962,18.896 10.991 C 19.381 11.022,19.699 10.882,19.880 10.558 L 19.980 10.380 19.980 9.000 C 19.980 7.647,19.978 7.617,19.890 7.452 C 19.841 7.360,19.724 7.231,19.630 7.165 C 19.498 7.073,15.263 2.838,14.719 2.254 C 14.473 1.991,14.626 2.000,10.463 2.005 C 8.393 2.007,6.609 2.025,6.499 2.043 M15.800 6.220 L 16.579 7.000 15.790 7.000 L 15.000 7.000 15.000 6.220 C 15.000 5.791,15.005 5.440,15.010 5.440 C 15.016 5.440,15.371 5.791,15.800 6.220 M19.530 12.083 C 19.393 12.150,19.249 12.252,19.210 12.310 C 19.172 12.368,18.688 12.876,18.135 13.438 C 17.069 14.522,16.951 14.678,16.951 15.000 C 16.951 15.477,17.523 16.049,18.000 16.049 C 18.240 16.049,18.451 15.939,18.757 15.656 L 19.000 15.431 19.000 16.769 C 19.000 18.225,18.985 18.347,18.779 18.618 C 18.718 18.698,18.585 18.813,18.484 18.872 L 18.300 18.980 16.864 18.992 L 15.428 19.004 15.655 18.759 C 16.055 18.326,16.145 18.002,15.962 17.644 C 15.852 17.428,15.576 17.150,15.365 17.043 C 15.150 16.933,14.849 16.934,14.628 17.045 C 14.527 17.096,14.061 17.524,13.460 18.119 C 12.910 18.662,12.399 19.149,12.324 19.200 C 12.149 19.321,11.951 19.745,11.951 20.000 C 11.951 20.238,12.150 20.682,12.303 20.784 C 12.365 20.826,12.876 21.312,13.438 21.865 C 14.522 22.931,14.678 23.049,15.000 23.049 C 15.477 23.049,16.049 22.477,16.049 22.000 C 16.049 21.761,15.939 21.549,15.659 21.246 L 15.437 21.006 17.008 20.991 C 18.520 20.977,18.591 20.973,18.860 20.884 C 19.834 20.564,20.564 19.834,20.884 18.860 C 20.973 18.591,20.977 18.520,20.991 17.008 L 21.006 15.437 21.246 15.659 C 21.549 15.939,21.761 16.049,22.000 16.049 C 22.477 16.049,23.049 15.477,23.049 15.000 C 23.049 14.678,22.931 14.522,21.865 13.438 C 21.312 12.876,20.828 12.368,20.789 12.310 C 20.751 12.251,20.604 12.149,20.464 12.082 C 20.120 11.918,19.871 11.918,19.530 12.083 " stroke="none" fill="black" fill-rule="evenodd"></path></svg>