<svg xmlns="http://www.w3.org/2000/svg" width="24" height="24" viewBox="0 0 24 24" fill="none" stroke="currentColor" stroke-width="2" stroke-linecap="round" stroke-linejoin="round" class="icon icon-tabler icons-tabler-outline icon-tabler-align-box-left-stretch"><path d="M4.499 2.043 C 3.380 2.232,2.461 3.048,2.114 4.160 L 2.020 4.460 2.020 12.000 L 2.020 19.540 2.114 19.840 C 2.422 20.827,3.173 21.578,4.160 21.886 L 4.460 21.980 12.000 21.980 L 19.540 21.980 19.840 21.886 C 20.827 21.578,21.578 20.827,21.886 19.840 L 21.980 19.540 21.980 12.000 L 21.980 4.460 21.886 4.160 C 21.581 3.182,20.832 2.428,19.861 2.121 L 19.540 2.020 12.120 2.014 C 8.039 2.011,4.609 2.024,4.499 2.043 M19.310 4.061 C 19.589 4.144,19.856 4.411,19.939 4.690 C 19.993 4.870,20.000 5.755,20.000 12.001 C 20.000 17.907,19.991 19.138,19.945 19.290 C 19.872 19.533,19.707 19.740,19.484 19.872 L 19.300 19.980 12.000 19.980 L 4.700 19.980 4.516 19.872 C 4.415 19.813,4.284 19.700,4.225 19.623 C 3.986 19.309,4.000 19.795,4.000 12.022 C 4.000 5.758,4.007 4.870,4.061 4.690 C 4.140 4.421,4.412 4.143,4.673 4.063 C 4.964 3.974,19.009 3.971,19.310 4.061 M6.614 6.057 C 6.377 6.131,6.212 6.261,6.109 6.453 C 6.035 6.592,6.020 6.684,6.020 7.000 C 6.020 7.331,6.033 7.403,6.120 7.558 C 6.230 7.755,6.414 7.898,6.635 7.959 C 6.831 8.014,11.169 8.014,11.365 7.959 C 11.586 7.898,11.770 7.755,11.880 7.558 C 11.967 7.402,11.980 7.332,11.979 7.000 C 11.978 6.567,11.898 6.355,11.678 6.199 C 11.406 6.005,11.336 6.000,8.984 6.003 C 7.293 6.005,6.741 6.017,6.614 6.057 M6.614 11.057 C 6.377 11.131,6.212 11.261,6.109 11.453 C 6.035 11.592,6.020 11.684,6.020 12.000 C 6.020 12.331,6.033 12.403,6.120 12.558 C 6.230 12.755,6.414 12.898,6.635 12.959 C 6.832 13.014,13.168 13.014,13.365 12.959 C 13.586 12.898,13.770 12.755,13.880 12.558 C 13.967 12.402,13.980 12.332,13.979 12.000 C 13.978 11.567,13.898 11.355,13.678 11.199 C 13.398 10.999,13.411 11.000,9.984 11.003 C 7.472 11.005,6.744 11.017,6.614 11.057 M6.614 16.057 C 6.377 16.131,6.212 16.261,6.109 16.453 C 6.035 16.592,6.020 16.684,6.020 17.000 C 6.020 17.331,6.033 17.403,6.120 17.558 C 6.230 17.755,6.414 17.898,6.635 17.959 C 6.826 18.012,9.174 18.012,9.365 17.959 C 9.586 17.898,9.770 17.755,9.880 17.558 C 9.967 17.402,9.980 17.332,9.979 17.000 C 9.978 16.687,9.962 16.591,9.890 16.453 C 9.786 16.256,9.623 16.131,9.371 16.055 C 9.117 15.979,6.859 15.981,6.614 16.057 " stroke="none" fill="black" fill-rule="evenodd"></path></svg>