<svg xmlns="http://www.w3.org/2000/svg" width="24" height="24" viewBox="0 0 24 24" fill="none" stroke="currentColor" stroke-width="2" stroke-linecap="round" stroke-linejoin="round" class="icon icon-tabler icons-tabler-outline icon-tabler-corner-right-down-double"><path d="M4.614 3.057 C 4.377 3.131,4.212 3.261,4.109 3.453 C 4.035 3.592,4.020 3.684,4.020 4.000 C 4.020 4.331,4.033 4.403,4.120 4.558 C 4.230 4.755,4.414 4.898,4.635 4.959 C 4.726 4.985,5.980 5.000,8.020 5.002 C 11.633 5.005,11.549 4.999,12.017 5.281 C 12.294 5.448,12.618 5.787,12.772 6.071 C 12.989 6.472,12.999 6.603,12.999 9.199 L 13.000 11.577 11.770 10.353 C 11.001 9.588,10.477 9.098,10.372 9.045 C 10.020 8.868,9.639 8.958,9.299 9.299 C 8.952 9.646,8.863 10.011,9.040 10.363 C 9.101 10.484,9.766 11.182,11.134 12.561 C 12.237 13.673,13.174 14.634,13.216 14.696 C 13.318 14.850,13.761 15.049,14.000 15.049 C 14.239 15.049,14.682 14.850,14.784 14.696 C 14.826 14.634,15.763 13.673,16.866 12.561 C 18.234 11.182,18.899 10.484,18.960 10.363 C 19.137 10.011,19.048 9.646,18.701 9.299 C 18.361 8.958,17.980 8.868,17.628 9.045 C 17.523 9.098,16.999 9.588,16.230 10.353 L 15.000 11.577 15.000 9.105 C 15.000 6.336,14.991 6.223,14.705 5.516 C 14.172 4.197,13.001 3.269,11.605 3.058 C 11.070 2.978,4.871 2.977,4.614 3.057 M9.626 14.045 C 9.420 14.154,9.146 14.433,9.038 14.644 C 8.924 14.867,8.924 15.132,9.039 15.363 C 9.164 15.612,13.388 19.836,13.637 19.961 C 13.868 20.076,14.132 20.076,14.363 19.961 C 14.612 19.836,18.836 15.612,18.961 15.363 C 19.137 15.010,19.048 14.645,18.701 14.299 C 18.361 13.959,17.980 13.868,17.628 14.044 C 17.519 14.099,16.853 14.734,15.730 15.853 L 14.000 17.578 12.270 15.853 C 11.147 14.734,10.481 14.099,10.372 14.044 C 10.152 13.934,9.835 13.935,9.626 14.045 " stroke="none" fill="black" fill-rule="evenodd"></path></svg>