<svg xmlns="http://www.w3.org/2000/svg" width="24" height="24" viewBox="0 0 24 24" fill="none" stroke="currentColor" stroke-width="2" stroke-linecap="round" stroke-linejoin="round" class="icon icon-tabler icons-tabler-outline icon-tabler-border-corner-square"><path d="M4.477 3.073 C 3.806 3.249,3.238 3.823,3.060 4.508 C 3.008 4.707,3.000 5.745,3.000 12.478 C 3.000 17.541,3.014 20.270,3.041 20.365 C 3.148 20.750,3.437 20.962,3.896 20.991 C 4.381 21.022,4.699 20.882,4.880 20.558 L 4.980 20.380 4.991 12.690 L 5.001 5.000 12.611 5.000 C 17.585 5.000,20.270 4.986,20.365 4.959 C 20.586 4.898,20.770 4.755,20.880 4.558 C 20.967 4.402,20.980 4.332,20.979 4.000 C 20.978 3.567,20.898 3.355,20.678 3.199 C 20.386 2.991,20.761 3.000,12.464 3.002 C 5.296 3.004,4.721 3.010,4.477 3.073 " stroke="none" fill="black" fill-rule="evenodd"></path></svg>