<svg xmlns="http://www.w3.org/2000/svg" width="24" height="24" viewBox="0 0 24 24" fill="none" stroke="currentColor" stroke-width="2" stroke-linecap="round" stroke-linejoin="round" class="icon icon-tabler icons-tabler-outline icon-tabler-shield-search"><path d="M11.660 2.055 C 11.550 2.107,11.271 2.306,11.040 2.497 C 9.764 3.555,8.299 4.286,6.632 4.697 C 5.770 4.909,5.293 4.968,4.180 4.998 C 3.619 5.014,3.135 5.045,3.078 5.069 C 2.911 5.139,2.722 5.319,2.635 5.490 C 2.590 5.578,2.484 5.926,2.399 6.264 C 1.692 9.077,1.966 12.080,3.174 14.745 C 3.846 16.230,4.635 17.360,5.838 18.561 C 7.485 20.206,9.230 21.238,11.460 21.887 C 11.921 22.021,12.284 22.042,12.471 21.944 C 12.785 21.782,13.001 21.356,13.008 20.889 C 13.014 20.427,12.789 20.205,12.100 19.994 C 10.837 19.607,10.117 19.289,9.200 18.717 C 6.465 17.008,4.620 14.198,4.141 11.009 C 3.971 9.878,3.996 8.433,4.203 7.360 C 4.277 6.977,4.255 7.000,4.556 7.000 C 5.546 7.000,6.988 6.731,8.218 6.316 C 9.511 5.880,10.721 5.248,11.850 4.417 L 12.000 4.307 12.150 4.417 C 13.285 5.252,14.483 5.878,15.784 6.317 C 17.011 6.731,18.454 7.000,19.444 7.000 C 19.733 7.000,19.720 6.991,19.775 7.242 C 20.010 8.309,20.034 9.826,19.837 11.152 C 19.791 11.456,19.767 11.762,19.781 11.838 C 19.849 12.203,20.081 12.434,20.486 12.542 C 21.067 12.697,21.504 12.522,21.674 12.068 C 21.792 11.752,21.914 10.908,21.967 10.031 C 22.034 8.944,21.957 7.930,21.721 6.785 C 21.608 6.235,21.444 5.647,21.357 5.475 C 21.277 5.318,21.084 5.137,20.922 5.069 C 20.865 5.045,20.381 5.014,19.820 4.998 C 18.684 4.967,18.185 4.904,17.300 4.680 C 15.680 4.270,14.198 3.525,12.960 2.498 C 12.505 2.120,12.220 1.961,12.000 1.961 C 11.923 1.961,11.770 2.003,11.660 2.055 M17.358 14.061 C 16.230 14.237,15.143 14.974,14.569 15.953 C 13.320 18.083,14.233 20.785,16.512 21.704 C 17.475 22.092,18.529 22.091,19.498 21.700 C 19.691 21.622,19.887 21.532,19.933 21.500 C 20.012 21.444,20.052 21.476,20.738 22.155 C 21.512 22.921,21.693 23.049,22.000 23.049 C 22.477 23.049,23.049 22.477,23.049 22.000 C 23.049 21.693,22.921 21.512,22.155 20.738 C 21.476 20.052,21.444 20.012,21.500 19.933 C 21.619 19.762,21.844 19.135,21.921 18.757 C 22.070 18.024,21.994 17.230,21.705 16.516 C 21.172 15.197,20.001 14.269,18.605 14.058 C 18.144 13.989,17.816 13.990,17.358 14.061 M18.523 16.073 C 19.262 16.266,19.850 16.924,19.967 17.690 C 20.067 18.343,19.873 18.933,19.403 19.404 C 19.002 19.807,18.547 20.000,18.000 20.000 C 17.485 20.000,17.038 19.822,16.653 19.465 C 15.323 18.229,16.189 16.005,18.000 16.005 C 18.143 16.005,18.378 16.036,18.523 16.073 " stroke="none" fill="black" fill-rule="evenodd"></path></svg>