<svg xmlns="http://www.w3.org/2000/svg" width="24" height="24" viewBox="0 0 24 24" fill="none" stroke="currentColor" stroke-width="2" stroke-linecap="round" stroke-linejoin="round" class="icon icon-tabler icons-tabler-outline icon-tabler-circuit-inductor"><path d="M6.499 9.040 C 5.373 9.244,4.470 10.041,4.118 11.140 C 4.042 11.379,4.026 11.536,4.010 12.210 L 3.991 13.000 2.902 13.000 C 1.744 13.000,1.570 13.022,1.322 13.199 C 1.100 13.357,1.020 13.568,1.020 14.000 C 1.020 14.331,1.033 14.403,1.120 14.558 C 1.230 14.755,1.414 14.898,1.635 14.959 C 1.829 15.013,5.171 15.013,5.365 14.959 C 5.586 14.898,5.770 14.755,5.880 14.558 C 5.980 14.381,5.980 14.376,6.001 13.060 C 6.024 11.577,6.025 11.571,6.321 11.283 C 6.490 11.120,6.777 11.000,7.000 11.000 C 7.237 11.000,7.514 11.120,7.697 11.303 C 7.982 11.588,8.000 11.692,8.000 13.057 C 8.000 13.713,8.018 14.283,8.041 14.365 C 8.148 14.750,8.437 14.962,8.896 14.991 C 9.381 15.022,9.699 14.882,9.880 14.558 C 9.978 14.383,9.980 14.362,10.001 13.260 C 10.022 12.140,10.022 12.140,10.133 11.900 C 10.279 11.583,10.587 11.275,10.896 11.135 C 11.105 11.040,11.192 11.024,11.500 11.024 C 11.808 11.024,11.895 11.040,12.104 11.135 C 12.413 11.275,12.721 11.583,12.867 11.900 L 12.979 12.140 12.999 13.260 C 13.020 14.362,13.022 14.383,13.120 14.558 C 13.287 14.856,13.572 15.000,14.000 15.000 C 14.428 15.000,14.713 14.856,14.880 14.558 C 14.978 14.383,14.980 14.361,15.001 13.260 C 15.023 12.140,15.023 12.140,15.134 11.896 C 15.276 11.586,15.584 11.279,15.900 11.134 C 16.106 11.039,16.192 11.023,16.500 11.023 C 16.808 11.023,16.894 11.039,17.100 11.134 C 17.415 11.278,17.724 11.586,17.866 11.896 L 17.978 12.140 17.999 13.260 C 18.020 14.362,18.022 14.383,18.120 14.558 C 18.230 14.755,18.414 14.898,18.635 14.959 C 18.829 15.013,22.171 15.013,22.365 14.959 C 22.586 14.898,22.770 14.755,22.880 14.558 C 22.967 14.402,22.980 14.332,22.979 14.000 C 22.978 13.567,22.898 13.355,22.678 13.199 C 22.430 13.022,22.256 13.000,21.094 13.000 L 20.000 13.000 20.000 12.610 C 20.000 12.396,19.981 12.107,19.959 11.969 C 19.736 10.597,18.727 9.481,17.378 9.114 C 16.960 9.001,16.117 8.990,15.707 9.092 C 15.141 9.233,14.513 9.564,14.153 9.910 L 14.005 10.051 13.818 9.886 C 13.406 9.524,12.912 9.260,12.364 9.111 C 11.925 8.991,11.069 8.992,10.622 9.114 C 10.228 9.222,9.738 9.457,9.411 9.697 C 9.273 9.798,9.153 9.880,9.144 9.880 C 9.134 9.880,9.031 9.798,8.913 9.697 C 8.415 9.270,7.822 9.045,7.120 9.019 C 6.889 9.011,6.609 9.020,6.499 9.040 " stroke="none" fill="black" fill-rule="evenodd"></path></svg>