<svg xmlns="http://www.w3.org/2000/svg" width="24" height="24" viewBox="0 0 24 24" fill="none" stroke="currentColor" stroke-width="2" stroke-linecap="round" stroke-linejoin="round" class="icon icon-tabler icons-tabler-outline icon-tabler-box"><path d="M11.645 2.003 C 11.593 2.024,11.485 2.093,11.405 2.156 C 11.195 2.323,3.934 6.403,3.720 6.475 C 3.464 6.561,3.153 6.882,3.056 7.161 C 2.982 7.373,2.981 7.535,3.000 12.100 C 3.022 17.327,3.000 16.913,3.277 17.191 C 3.343 17.257,5.148 18.295,7.288 19.499 C 9.429 20.703,11.216 21.720,11.260 21.759 C 11.456 21.934,11.608 21.980,12.000 21.980 C 12.392 21.980,12.544 21.934,12.740 21.759 C 12.784 21.720,14.539 20.721,16.640 19.541 C 18.741 18.360,20.523 17.350,20.600 17.298 C 20.762 17.186,20.906 16.988,20.959 16.802 C 20.981 16.725,20.999 14.744,21.002 11.973 L 21.007 7.275 20.901 7.059 C 20.776 6.803,20.506 6.552,20.270 6.472 C 20.063 6.402,12.798 2.317,12.596 2.157 C 12.516 2.094,12.403 2.024,12.343 2.001 C 12.210 1.950,11.774 1.952,11.645 2.003 M15.017 5.846 C 16.625 6.750,17.944 7.493,17.949 7.497 C 17.971 7.515,12.054 10.820,12.000 10.820 C 11.893 10.820,6.037 7.505,6.090 7.475 C 9.751 5.406,11.993 4.165,12.037 4.182 C 12.068 4.193,13.409 4.942,15.017 5.846 M8.023 10.910 L 10.998 12.580 10.999 15.931 L 11.000 19.282 10.850 19.204 C 10.768 19.161,9.422 18.407,7.860 17.527 L 5.020 15.928 5.010 12.584 C 5.004 10.745,5.011 9.240,5.024 9.240 C 5.037 9.240,6.387 9.992,8.023 10.910 M18.990 12.584 L 18.980 15.928 16.140 17.527 C 14.578 18.407,13.232 19.161,13.150 19.204 L 13.000 19.282 13.001 15.931 L 13.002 12.580 15.971 10.911 C 17.604 9.994,18.954 9.242,18.970 9.241 C 18.987 9.241,18.996 10.745,18.990 12.584 " stroke="none" fill="black" fill-rule="evenodd"></path></svg>