<svg xmlns="http://www.w3.org/2000/svg" width="24" height="24" viewBox="0 0 24 24" fill="none" stroke="currentColor" stroke-width="2" stroke-linecap="round" stroke-linejoin="round" class="icon icon-tabler icons-tabler-outline icon-tabler-question-mark"><path d="M11.000 4.025 C 9.823 4.171,8.927 4.586,8.147 5.347 C 7.469 6.009,7.067 6.880,7.013 7.800 C 6.978 8.386,7.098 8.689,7.438 8.876 C 7.644 8.990,8.089 9.033,8.344 8.965 C 8.772 8.849,8.943 8.601,8.999 8.014 C 9.043 7.551,9.105 7.357,9.303 7.058 C 9.583 6.637,10.141 6.257,10.720 6.094 C 11.104 5.985,12.896 5.985,13.280 6.094 C 13.687 6.208,14.133 6.461,14.414 6.735 C 14.871 7.182,15.026 7.586,14.989 8.240 C 14.964 8.690,14.872 8.963,14.630 9.309 C 14.400 9.638,14.178 9.812,13.681 10.055 C 13.108 10.335,12.834 10.524,12.476 10.883 C 11.829 11.534,11.336 12.487,11.119 13.509 C 11.014 14.002,10.967 15.026,11.037 15.307 C 11.144 15.741,11.411 15.957,11.883 15.991 C 12.183 16.012,12.525 15.931,12.695 15.797 C 12.916 15.623,12.971 15.437,13.003 14.755 C 13.040 13.975,13.136 13.565,13.412 13.003 C 13.708 12.402,13.980 12.136,14.620 11.825 C 15.217 11.535,15.497 11.337,15.880 10.935 C 16.374 10.416,16.692 9.855,16.884 9.160 C 16.966 8.865,16.978 8.729,16.979 8.140 C 16.980 7.551,16.968 7.414,16.887 7.120 C 16.473 5.602,15.233 4.488,13.540 4.112 C 13.243 4.046,13.002 4.030,12.160 4.020 C 11.599 4.014,11.077 4.016,11.000 4.025 M11.614 18.057 C 11.221 18.180,11.039 18.435,11.009 18.906 C 10.962 19.621,11.306 20.000,12.000 20.000 C 12.698 20.000,13.043 19.616,12.989 18.900 C 12.963 18.563,12.859 18.327,12.678 18.199 C 12.414 18.010,11.957 17.950,11.614 18.057 " stroke="none" fill="black" fill-rule="evenodd"></path></svg>