<svg xmlns="http://www.w3.org/2000/svg" width="24" height="24" viewBox="0 0 24 24" fill="none" stroke="currentColor" stroke-width="2" stroke-linecap="round" stroke-linejoin="round" class="icon icon-tabler icons-tabler-outline icon-tabler-brand-python"><path d="M9.499 2.042 C 8.386 2.234,7.482 3.030,7.116 4.140 C 7.026 4.413,7.023 4.467,7.009 6.207 L 6.995 7.993 5.727 8.009 C 4.518 8.025,4.445 8.030,4.139 8.124 C 3.176 8.420,2.420 9.180,2.114 10.160 L 2.020 10.460 2.020 13.000 L 2.020 15.540 2.114 15.840 C 2.419 16.817,3.159 17.563,4.140 17.884 C 4.403 17.969,4.499 17.976,5.705 17.991 L 6.991 18.007 7.010 18.793 C 7.026 19.464,7.042 19.621,7.118 19.860 C 7.430 20.834,8.182 21.581,9.160 21.886 L 9.460 21.980 12.000 21.980 L 14.540 21.980 14.840 21.886 C 15.817 21.581,16.560 20.845,16.884 19.860 C 16.974 19.587,16.977 19.533,16.991 17.793 L 17.005 16.007 18.293 15.991 C 19.502 15.976,19.597 15.969,19.860 15.884 C 20.841 15.563,21.581 14.817,21.886 13.840 L 21.980 13.540 21.980 11.000 L 21.980 8.460 21.886 8.160 C 21.580 7.180,20.824 6.420,19.861 6.124 C 19.555 6.030,19.482 6.025,18.275 6.009 L 17.009 5.993 16.990 5.207 C 16.974 4.536,16.958 4.379,16.882 4.140 C 16.573 3.174,15.820 2.422,14.861 2.122 L 14.540 2.022 12.120 2.015 C 10.789 2.011,9.609 2.023,9.499 2.042 M14.310 4.061 C 14.589 4.144,14.856 4.411,14.939 4.690 C 15.025 4.979,15.031 10.006,14.945 10.290 C 14.872 10.533,14.707 10.740,14.484 10.872 L 14.300 10.980 11.880 11.002 L 9.460 11.023 9.139 11.123 C 8.183 11.420,7.434 12.166,7.116 13.140 C 7.031 13.403,7.024 13.498,7.009 14.712 L 6.993 16.004 5.847 15.992 L 4.700 15.980 4.516 15.872 C 4.415 15.813,4.284 15.700,4.225 15.623 C 4.000 15.327,4.000 15.332,4.000 13.022 C 4.000 10.586,3.997 10.609,4.303 10.303 C 4.621 9.985,4.411 10.000,8.557 10.000 C 10.888 10.000,12.273 9.985,12.365 9.959 C 12.586 9.898,12.770 9.755,12.880 9.558 C 12.967 9.402,12.980 9.332,12.979 9.000 C 12.978 8.567,12.898 8.355,12.678 8.199 C 12.416 8.012,12.290 8.000,10.594 8.000 L 9.000 8.000 9.000 6.447 C 9.000 4.649,9.007 4.599,9.304 4.303 C 9.604 4.002,9.569 4.006,11.983 4.003 C 13.772 4.000,14.138 4.010,14.310 4.061 M10.614 5.057 C 10.221 5.180,10.039 5.435,10.009 5.906 C 9.962 6.621,10.306 7.000,11.000 7.000 C 11.698 7.000,12.043 6.616,11.989 5.900 C 11.963 5.563,11.859 5.327,11.678 5.199 C 11.414 5.010,10.957 4.950,10.614 5.057 M19.310 8.061 C 19.589 8.144,19.856 8.411,19.939 8.690 C 20.025 8.978,20.030 13.007,19.945 13.290 C 19.872 13.533,19.707 13.740,19.484 13.872 L 19.300 13.980 15.479 14.000 L 11.658 14.020 11.459 14.122 C 11.119 14.297,10.978 14.606,11.009 15.104 C 11.038 15.563,11.250 15.852,11.635 15.959 C 11.721 15.983,12.435 16.000,13.390 16.000 L 15.000 16.000 15.000 17.554 C 15.000 19.242,14.989 19.342,14.779 19.618 C 14.718 19.698,14.585 19.813,14.484 19.872 L 14.300 19.980 12.000 19.980 L 9.700 19.980 9.516 19.872 C 9.415 19.813,9.284 19.700,9.225 19.623 C 8.996 19.323,9.000 19.378,9.000 16.522 C 9.000 13.560,8.995 13.619,9.283 13.321 C 9.589 13.007,9.448 13.023,12.160 12.999 C 14.553 12.977,14.583 12.976,14.860 12.885 C 15.836 12.562,16.566 11.831,16.884 10.860 C 16.969 10.597,16.976 10.502,16.991 9.290 L 17.007 8.000 18.056 8.000 C 18.879 8.000,19.150 8.013,19.310 8.061 M12.614 17.057 C 12.221 17.180,12.039 17.435,12.009 17.906 C 11.962 18.621,12.306 19.000,13.000 19.000 C 13.698 19.000,14.043 18.616,13.989 17.900 C 13.963 17.563,13.859 17.327,13.678 17.199 C 13.414 17.010,12.957 16.950,12.614 17.057 " stroke="none" fill="black" fill-rule="evenodd"></path></svg>