<svg xmlns="http://www.w3.org/2000/svg" width="24" height="24" viewBox="0 0 24 24" fill="none" stroke="currentColor" stroke-width="2" stroke-linecap="round" stroke-linejoin="round" class="icon icon-tabler icons-tabler-outline icon-tabler-arrows-move-vertical"><path d="M11.530 2.083 C 11.393 2.150,11.249 2.252,11.210 2.310 C 11.172 2.369,10.463 3.101,9.635 3.938 C 8.635 4.949,8.099 5.520,8.040 5.637 C 7.863 5.989,7.952 6.354,8.299 6.701 C 8.646 7.048,9.012 7.137,9.363 6.959 C 9.469 6.905,9.832 6.580,10.270 6.147 L 11.000 5.425 11.000 7.322 C 11.000 8.470,11.016 9.277,11.041 9.365 C 11.148 9.750,11.437 9.962,11.896 9.991 C 12.381 10.022,12.699 9.882,12.880 9.558 L 12.980 9.380 12.992 7.404 L 13.004 5.428 13.732 6.149 C 14.168 6.581,14.531 6.905,14.637 6.959 C 14.988 7.137,15.354 7.048,15.701 6.701 C 16.048 6.354,16.137 5.989,15.960 5.637 C 15.901 5.520,15.365 4.949,14.365 3.938 C 13.537 3.101,12.828 2.369,12.789 2.310 C 12.751 2.252,12.604 2.149,12.464 2.082 C 12.120 1.918,11.871 1.918,11.530 2.083 M11.614 14.057 C 11.377 14.131,11.212 14.261,11.109 14.453 C 11.021 14.618,11.020 14.640,11.009 16.596 L 10.997 18.572 10.269 17.852 C 9.856 17.443,9.467 17.094,9.372 17.045 C 9.021 16.868,8.640 16.958,8.299 17.299 C 7.952 17.646,7.863 18.011,8.040 18.363 C 8.099 18.480,8.635 19.051,9.635 20.062 C 10.463 20.899,11.174 21.634,11.216 21.697 C 11.318 21.850,11.762 22.049,12.000 22.049 C 12.238 22.049,12.682 21.850,12.784 21.697 C 12.826 21.634,13.537 20.899,14.365 20.062 C 15.365 19.051,15.901 18.480,15.960 18.363 C 16.137 18.011,16.048 17.646,15.701 17.299 C 15.360 16.958,14.979 16.868,14.628 17.045 C 14.533 17.094,14.144 17.443,13.732 17.851 L 13.004 18.572 12.992 16.596 C 12.980 14.640,12.979 14.618,12.891 14.453 C 12.842 14.362,12.746 14.247,12.678 14.199 C 12.414 14.010,11.957 13.950,11.614 14.057 " stroke="none" fill="black" fill-rule="evenodd"></path></svg>