<svg xmlns="http://www.w3.org/2000/svg" width="24" height="24" viewBox="0 0 24 24" fill="none" stroke="currentColor" stroke-width="2" stroke-linecap="round" stroke-linejoin="round" class="icon icon-tabler icons-tabler-outline icon-tabler-ruler-3"><path d="M3.631 7.062 C 3.075 7.197,2.468 7.676,2.230 8.167 C 2.000 8.644,2.001 8.616,2.001 12.082 C 2.000 15.539,1.996 15.479,2.225 15.930 C 2.361 16.199,2.801 16.639,3.070 16.775 C 3.542 17.014,2.989 17.000,11.940 17.000 C 20.908 17.000,20.337 17.015,20.838 16.772 C 21.137 16.627,21.597 16.165,21.755 15.850 C 22.002 15.360,21.999 15.405,21.999 12.000 C 21.999 9.407,21.989 8.859,21.940 8.650 C 21.758 7.878,21.122 7.242,20.350 7.060 C 19.986 6.974,3.986 6.976,3.631 7.062 M5.000 10.110 C 5.000 10.730,5.018 11.284,5.041 11.365 C 5.148 11.750,5.437 11.962,5.896 11.991 C 6.381 12.022,6.699 11.882,6.880 11.558 C 6.979 11.381,6.980 11.374,6.993 10.190 L 7.005 9.000 7.503 9.000 L 8.000 9.000 8.000 9.610 C 8.000 9.945,8.019 10.285,8.041 10.365 C 8.148 10.750,8.437 10.962,8.896 10.991 C 9.381 11.022,9.699 10.882,9.880 10.558 C 9.974 10.391,9.981 10.338,9.994 9.690 L 10.008 9.000 10.504 9.000 L 11.000 9.000 11.000 10.110 C 11.000 10.730,11.018 11.284,11.041 11.365 C 11.148 11.750,11.437 11.962,11.896 11.991 C 12.381 12.022,12.699 11.882,12.880 11.558 C 12.979 11.381,12.980 11.374,12.993 10.190 L 13.005 9.000 13.503 9.000 L 14.000 9.000 14.000 9.610 C 14.000 9.945,14.019 10.285,14.041 10.365 C 14.148 10.750,14.437 10.962,14.896 10.991 C 15.381 11.022,15.699 10.882,15.880 10.558 C 15.974 10.391,15.981 10.338,15.994 9.690 L 16.008 9.000 16.504 9.000 L 17.000 9.000 17.000 10.110 C 17.000 10.730,17.018 11.284,17.041 11.365 C 17.148 11.750,17.437 11.962,17.896 11.991 C 18.381 12.022,18.699 11.882,18.880 11.558 C 18.979 11.381,18.980 11.374,18.993 10.190 L 19.005 9.000 19.478 9.000 C 19.873 9.000,19.955 9.011,19.976 9.063 C 20.007 9.146,20.007 14.854,19.976 14.937 C 19.954 14.994,19.212 15.000,11.976 15.000 L 4.000 15.000 4.000 12.063 C 4.000 10.448,4.011 9.098,4.024 9.063 C 4.045 9.010,4.127 9.000,4.524 9.000 L 5.000 9.000 5.000 10.110 " stroke="none" fill="black" fill-rule="evenodd"></path></svg>