<svg xmlns="http://www.w3.org/2000/svg" width="24" height="24" viewBox="0 0 24 24" fill="none" stroke="currentColor" stroke-width="2" stroke-linecap="round" stroke-linejoin="round" class="icon icon-tabler icons-tabler-outline icon-tabler-dental-off"><path d="M2.626 2.045 C 2.257 2.239,1.951 2.673,1.951 3.000 C 1.951 3.317,2.073 3.482,2.988 4.405 L 3.846 5.270 3.703 5.554 C 3.155 6.643,2.970 7.757,3.013 9.720 C 3.087 13.062,3.611 15.749,4.634 18.034 C 5.028 18.914,5.700 19.987,6.107 20.387 C 6.615 20.887,7.487 21.107,8.296 20.940 C 9.036 20.787,9.646 20.409,10.077 19.838 C 10.458 19.332,10.912 18.375,11.288 17.282 C 11.481 16.722,11.677 16.338,11.862 16.158 L 12.000 16.024 12.138 16.158 C 12.320 16.334,12.514 16.713,12.711 17.280 C 13.266 18.870,13.794 19.833,14.372 20.311 C 15.033 20.858,16.006 21.113,16.793 20.945 C 17.377 20.821,17.806 20.551,18.162 20.085 L 18.378 19.801 19.419 20.836 C 20.088 21.501,20.523 21.902,20.637 21.960 C 20.989 22.137,21.354 22.048,21.701 21.701 C 22.048 21.354,22.137 20.989,21.960 20.637 C 21.856 20.431,21.900 20.475,11.271 9.854 C 5.923 4.510,3.488 2.102,3.372 2.044 C 3.152 1.934,2.834 1.935,2.626 2.045 M7.614 3.057 C 7.223 3.180,7.039 3.436,7.009 3.900 C 6.978 4.377,7.119 4.701,7.433 4.874 C 7.563 4.946,7.706 4.977,8.041 5.005 C 8.859 5.076,9.412 5.266,10.580 5.880 C 10.998 6.100,12.115 6.669,13.062 7.145 C 14.950 8.093,15.021 8.119,15.381 7.982 C 15.694 7.862,15.984 7.415,16.028 6.980 C 16.057 6.704,15.938 6.443,15.705 6.272 C 15.614 6.206,15.248 6.005,14.890 5.826 C 14.533 5.648,14.240 5.490,14.240 5.476 C 14.240 5.439,14.845 5.217,15.220 5.115 C 15.681 4.990,16.456 4.989,16.892 5.112 C 17.658 5.330,18.184 5.765,18.519 6.460 C 18.937 7.325,19.059 8.394,18.963 10.340 C 18.875 12.131,18.720 13.270,18.341 14.900 C 18.228 15.385,18.234 15.562,18.371 15.809 C 18.526 16.088,18.946 16.287,19.382 16.289 C 19.663 16.290,19.815 16.224,19.990 16.025 C 20.154 15.839,20.248 15.572,20.416 14.816 C 20.771 13.222,20.942 11.697,20.986 9.720 C 21.019 8.253,20.955 7.555,20.701 6.620 C 20.200 4.779,18.971 3.540,17.248 3.139 C 17.110 3.107,16.780 3.060,16.515 3.035 C 15.344 2.923,14.230 3.207,12.648 4.019 L 11.997 4.354 11.348 4.020 C 10.992 3.836,10.498 3.603,10.252 3.502 C 9.271 3.102,8.101 2.905,7.614 3.057 M12.664 14.109 C 12.657 14.116,12.602 14.104,12.543 14.081 C 12.361 14.012,11.913 13.989,11.660 14.035 C 11.126 14.134,10.583 14.513,10.146 15.094 C 9.853 15.483,9.649 15.898,9.404 16.608 C 8.930 17.977,8.542 18.706,8.191 18.885 C 7.992 18.986,7.587 19.032,7.504 18.963 C 7.472 18.937,7.331 18.741,7.190 18.528 C 5.916 16.605,5.213 13.932,5.037 10.340 C 4.962 8.818,5.019 7.908,5.241 7.086 L 5.331 6.751 9.004 10.424 C 11.024 12.444,12.671 14.102,12.664 14.109 M16.739 18.638 C 16.633 18.795,16.510 18.944,16.467 18.967 C 16.354 19.027,16.001 18.983,15.807 18.884 C 15.459 18.706,15.070 17.977,14.596 16.610 C 14.485 16.288,14.348 15.933,14.293 15.822 C 14.206 15.646,14.371 15.798,15.562 16.986 L 16.931 18.351 16.739 18.638 " stroke="none" fill="black" fill-rule="evenodd"></path></svg>