<svg xmlns="http://www.w3.org/2000/svg" width="24" height="24" viewBox="0 0 24 24" fill="none" stroke="currentColor" stroke-width="2" stroke-linecap="round" stroke-linejoin="round" class="icon icon-tabler icons-tabler-outline icon-tabler-spaces"><path d="M11.420 2.023 C 11.354 2.033,11.156 2.060,10.980 2.083 C 9.814 2.238,8.495 2.820,7.540 3.600 C 6.412 4.523,5.557 5.898,5.179 7.397 C 5.082 7.781,5.002 8.451,5.001 8.882 L 5.000 9.265 4.750 9.449 C 3.918 10.063,3.208 10.932,2.721 11.933 C 1.486 14.476,1.868 17.415,3.716 19.581 C 5.202 21.323,7.633 22.252,9.886 21.937 C 10.468 21.856,11.120 21.686,11.617 21.486 L 12.014 21.325 12.158 21.399 C 12.427 21.536,13.137 21.766,13.600 21.865 C 14.175 21.988,15.118 22.033,15.700 21.964 C 17.422 21.761,18.748 21.129,19.944 19.941 C 20.623 19.266,21.131 18.513,21.462 17.688 C 22.100 16.099,22.168 14.397,21.656 12.844 C 21.469 12.276,21.021 11.386,20.690 10.923 C 20.340 10.435,19.734 9.803,19.325 9.500 L 19.000 9.260 18.999 8.880 C 18.996 7.129,18.241 5.361,16.941 4.058 C 15.900 3.014,14.658 2.372,13.146 2.095 C 12.830 2.037,11.663 1.989,11.420 2.023 M12.960 4.098 C 14.530 4.432,15.765 5.379,16.477 6.794 C 16.678 7.193,16.870 7.765,16.906 8.065 L 16.931 8.282 16.828 8.243 C 16.771 8.221,16.530 8.166,16.292 8.120 C 14.955 7.862,13.390 8.051,12.100 8.626 C 11.924 8.704,11.725 8.791,11.658 8.820 C 11.514 8.880,10.899 9.317,10.492 9.648 C 9.757 10.245,8.982 11.270,8.608 12.139 C 8.532 12.315,8.461 12.469,8.451 12.480 C 8.419 12.513,8.048 12.082,7.835 11.764 C 7.312 10.984,6.999 9.935,7.001 8.960 C 7.004 7.158,8.070 5.413,9.675 4.585 C 10.233 4.297,10.777 4.126,11.460 4.024 C 11.701 3.988,12.668 4.036,12.960 4.098 M15.960 10.098 C 16.367 10.180,16.726 10.298,17.017 10.445 C 17.151 10.513,17.350 10.614,17.460 10.670 C 18.442 11.170,19.337 12.245,19.732 13.400 C 19.921 13.952,19.979 14.331,19.977 14.980 C 19.975 15.852,19.832 16.493,19.480 17.204 C 18.908 18.364,17.847 19.311,16.660 19.722 C 15.987 19.955,15.013 20.056,14.349 19.961 L 13.999 19.912 14.210 19.672 C 15.175 18.573,15.766 17.267,15.943 15.844 C 16.017 15.243,16.017 14.312,15.943 13.988 C 15.911 13.852,15.855 13.605,15.818 13.440 C 15.707 12.947,15.529 12.448,15.281 11.940 C 14.998 11.357,14.754 10.979,14.344 10.487 C 14.173 10.282,14.039 10.108,14.046 10.100 C 14.054 10.093,14.186 10.069,14.340 10.046 C 14.701 9.993,15.575 10.021,15.960 10.098 M12.260 11.210 C 12.790 11.683,13.110 12.085,13.397 12.640 C 13.594 13.022,13.800 13.524,13.800 13.623 C 13.800 13.692,13.265 13.862,12.785 13.945 C 12.118 14.062,11.204 13.988,10.466 13.759 C 10.196 13.676,10.192 13.672,10.215 13.555 C 10.291 13.174,10.646 12.476,11.009 11.995 C 11.218 11.717,11.931 11.000,11.997 11.000 C 12.012 11.000,12.130 11.095,12.260 11.210 M5.480 11.561 C 5.480 11.640,5.876 12.422,6.067 12.722 C 6.973 14.142,8.343 15.198,9.899 15.677 C 10.690 15.921,11.089 15.977,12.040 15.976 C 12.893 15.976,13.097 15.953,13.830 15.773 C 13.949 15.744,13.947 15.806,13.818 16.306 C 13.702 16.754,13.412 17.391,13.132 17.813 C 12.789 18.330,12.047 19.035,11.684 19.189 C 11.609 19.220,11.482 19.299,11.403 19.363 C 11.231 19.501,10.695 19.724,10.262 19.837 C 9.763 19.968,9.307 20.013,8.760 19.986 C 7.505 19.925,6.466 19.474,5.532 18.587 C 4.724 17.819,4.194 16.752,4.037 15.573 C 3.981 15.154,4.009 14.426,4.098 14.006 C 4.271 13.191,4.716 12.289,5.224 11.723 C 5.402 11.526,5.480 11.476,5.480 11.561 " stroke="none" fill="black" fill-rule="evenodd"></path></svg>