<svg xmlns="http://www.w3.org/2000/svg" width="24" height="24" viewBox="0 0 24 24" fill="none" stroke="currentColor" stroke-width="2" stroke-linecap="round" stroke-linejoin="round" class="icon icon-tabler icons-tabler-outline icon-tabler-inbox-off"><path d="M2.626 2.045 C 2.257 2.239,1.951 2.673,1.951 3.000 C 1.951 3.293,2.085 3.492,2.702 4.120 L 3.273 4.700 3.146 5.060 L 3.020 5.420 3.020 11.980 L 3.020 18.540 3.114 18.840 C 3.422 19.827,4.173 20.578,5.160 20.886 L 5.460 20.980 12.020 20.980 L 18.580 20.980 18.940 20.854 L 19.300 20.727 19.880 21.298 C 20.205 21.617,20.538 21.908,20.637 21.959 C 20.988 22.137,21.353 22.049,21.701 21.701 C 22.047 21.355,22.136 20.990,21.961 20.637 C 21.839 20.392,3.616 2.165,3.372 2.044 C 3.152 1.934,2.834 1.935,2.626 2.045 M7.614 3.057 C 7.377 3.132,7.212 3.261,7.109 3.453 C 7.035 3.592,7.020 3.684,7.020 4.000 C 7.020 4.331,7.033 4.403,7.120 4.558 C 7.230 4.755,7.414 4.898,7.635 4.959 C 7.729 4.985,9.608 5.000,12.943 5.000 C 18.764 5.000,18.373 4.979,18.697 5.303 C 19.011 5.618,19.000 5.481,19.000 8.947 L 19.000 12.000 17.906 12.000 C 16.744 12.000,16.570 12.022,16.322 12.199 C 16.100 12.357,16.020 12.568,16.020 13.000 C 16.020 13.331,16.033 13.403,16.120 13.558 C 16.230 13.755,16.414 13.898,16.635 13.959 C 16.716 13.982,17.270 14.000,17.890 14.000 L 19.000 14.000 19.000 15.110 C 19.000 15.730,19.018 16.284,19.041 16.365 C 19.148 16.750,19.437 16.962,19.896 16.991 C 20.381 17.022,20.699 16.882,20.880 16.558 L 20.980 16.380 20.980 10.920 L 20.980 5.460 20.886 5.160 C 20.581 4.182,19.832 3.428,18.861 3.121 L 18.540 3.020 13.160 3.012 C 8.811 3.006,7.748 3.014,7.614 3.057 M11.992 14.990 L 10.424 15.001 8.982 13.565 C 7.613 12.201,7.529 12.125,7.323 12.064 C 7.148 12.012,6.901 12.000,6.053 12.000 L 5.000 12.000 5.000 9.210 L 5.000 6.420 9.280 10.700 L 13.560 14.980 11.992 14.990 M7.960 15.383 C 8.719 16.143,9.421 16.814,9.520 16.873 L 9.700 16.980 12.000 16.980 C 14.611 16.980,14.387 17.008,14.790 16.627 L 15.004 16.424 16.292 17.713 L 17.580 19.001 11.640 18.990 L 5.700 18.980 5.516 18.872 C 5.415 18.813,5.284 18.700,5.225 18.623 C 5.000 18.328,5.000 18.328,5.000 16.075 L 5.000 14.000 5.790 14.000 L 6.580 14.000 7.960 15.383 " stroke="none" fill="black" fill-rule="evenodd"></path></svg>