<svg xmlns="http://www.w3.org/2000/svg" width="24" height="24" viewBox="0 0 24 24" fill="none" stroke="currentColor" stroke-width="2" stroke-linecap="round" stroke-linejoin="round" class="icon icon-tabler icons-tabler-outline icon-tabler-circle-arrow-down-left"><path d="M11.080 2.045 C 9.507 2.184,7.883 2.751,6.540 3.630 C 5.905 4.045,5.499 4.378,4.919 4.958 C 2.953 6.926,1.919 9.544,2.013 12.320 C 2.084 14.439,2.752 16.328,4.033 18.040 C 4.430 18.570,5.305 19.464,5.800 19.847 C 7.242 20.961,8.787 21.624,10.600 21.907 C 11.247 22.008,12.753 22.008,13.400 21.907 C 15.638 21.557,17.504 20.620,19.062 19.062 C 20.620 17.504,21.557 15.638,21.907 13.400 C 22.008 12.753,22.008 11.247,21.907 10.600 C 21.624 8.786,20.959 7.238,19.847 5.800 C 19.510 5.365,18.639 4.494,18.200 4.154 C 16.133 2.555,13.646 1.818,11.080 2.045 M12.734 4.041 C 14.574 4.216,16.228 4.976,17.554 6.256 C 20.043 8.658,20.702 12.394,19.183 15.499 C 18.749 16.387,18.223 17.105,17.496 17.801 C 16.876 18.394,16.262 18.819,15.471 19.200 C 13.267 20.265,10.733 20.265,8.529 19.200 C 7.477 18.693,6.612 18.015,5.847 17.100 C 3.848 14.711,3.440 11.302,4.816 8.500 C 6.162 5.760,8.867 4.049,11.920 4.005 C 12.129 4.003,12.495 4.019,12.734 4.041 M14.620 8.046 C 14.523 8.096,13.579 9.008,12.232 10.352 L 10.004 12.575 9.992 10.597 C 9.980 8.640,9.979 8.618,9.891 8.453 C 9.785 8.256,9.622 8.131,9.371 8.055 C 8.862 7.902,8.311 8.076,8.109 8.453 L 8.020 8.620 7.993 11.780 C 7.979 13.518,7.965 14.998,7.963 15.069 C 7.959 15.208,8.121 15.610,8.232 15.735 C 8.331 15.848,8.777 16.040,8.929 16.037 C 9.001 16.035,10.482 16.021,12.220 16.007 C 15.349 15.980,15.382 15.979,15.540 15.894 C 15.875 15.715,15.978 15.504,15.978 15.000 C 15.978 14.567,15.899 14.356,15.678 14.199 C 15.411 14.008,15.311 14.000,13.304 14.000 L 11.422 14.000 13.647 11.770 C 15.189 10.224,15.899 9.486,15.960 9.363 C 16.137 9.010,16.048 8.646,15.701 8.299 C 15.361 7.959,14.967 7.867,14.620 8.046 " stroke="none" fill="black" fill-rule="evenodd"></path></svg>