<svg xmlns="http://www.w3.org/2000/svg" width="24" height="24" viewBox="0 0 24 24" fill="none" stroke="currentColor" stroke-width="2" stroke-linecap="round" stroke-linejoin="round" class="icon icon-tabler icons-tabler-outline icon-tabler-folders-off"><path d="M2.626 2.045 C 2.420 2.154,2.146 2.433,2.038 2.644 C 1.924 2.868,1.924 3.133,2.040 3.363 C 2.100 3.483,2.678 4.091,3.848 5.264 L 5.566 6.989 5.013 7.011 C 4.596 7.027,4.381 7.056,4.139 7.127 C 3.186 7.410,2.420 8.179,2.114 9.160 L 2.020 9.460 2.020 14.500 L 2.020 19.540 2.114 19.840 C 2.422 20.827,3.173 21.578,4.160 21.886 L 4.460 21.980 10.000 21.980 L 15.540 21.980 15.840 21.886 C 16.817 21.581,17.584 20.820,17.876 19.866 C 17.922 19.715,17.960 19.545,17.960 19.487 C 17.960 19.399,18.154 19.576,19.210 20.627 C 20.034 21.446,20.521 21.901,20.637 21.960 C 20.989 22.137,21.354 22.048,21.701 21.701 C 22.048 21.354,22.137 20.989,21.960 20.637 C 21.900 20.517,21.225 19.806,19.854 18.420 C 18.744 17.298,17.785 16.329,17.722 16.266 C 17.533 16.079,7.855 6.401,7.753 6.299 C 7.702 6.247,6.733 5.287,5.600 4.167 C 4.268 2.849,3.480 2.099,3.372 2.045 C 3.152 1.934,2.835 1.934,2.626 2.045 M8.440 3.060 C 7.929 3.163,7.445 3.404,7.270 3.643 C 7.090 3.890,7.102 4.252,7.305 4.658 C 7.569 5.187,7.927 5.312,8.576 5.100 C 8.878 5.001,8.901 5.000,10.232 5.000 L 11.581 5.000 12.460 5.883 C 12.944 6.368,13.421 6.814,13.520 6.873 L 13.700 6.980 16.480 7.000 C 19.595 7.022,19.409 7.004,19.717 7.321 C 20.012 7.625,20.000 7.453,20.000 11.501 C 20.000 14.497,19.990 15.139,19.943 15.296 C 19.912 15.400,19.802 15.585,19.698 15.712 C 19.438 16.025,19.346 16.242,19.370 16.487 C 19.404 16.845,19.817 17.311,20.213 17.439 C 20.387 17.495,20.588 17.468,20.798 17.361 C 20.933 17.292,21.266 16.977,21.434 16.759 C 21.584 16.564,21.795 16.137,21.887 15.840 L 21.980 15.540 21.980 11.500 L 21.980 7.460 21.886 7.160 C 21.581 6.181,20.829 5.425,19.861 5.122 L 19.540 5.022 16.981 5.009 L 14.421 4.996 13.480 4.062 C 12.607 3.196,12.523 3.124,12.322 3.064 C 12.137 3.009,11.858 3.001,10.403 3.004 C 9.170 3.006,8.628 3.022,8.440 3.060 M6.009 12.290 L 6.021 15.580 6.114 15.860 C 6.441 16.839,7.160 17.558,8.140 17.886 L 8.420 17.980 12.210 17.991 L 16.000 18.003 16.000 18.555 C 16.000 19.352,15.890 19.633,15.484 19.872 L 15.300 19.980 10.000 19.980 L 4.700 19.980 4.516 19.872 C 4.415 19.813,4.284 19.700,4.225 19.623 C 3.989 19.314,4.000 19.562,4.000 14.522 C 4.000 9.298,3.981 9.625,4.304 9.303 C 4.554 9.053,4.728 9.006,5.428 9.003 L 5.997 9.000 6.009 12.290 M13.890 15.991 C 13.522 15.997,12.203 15.997,10.960 15.991 L 8.700 15.980 8.516 15.872 C 8.415 15.813,8.284 15.700,8.225 15.623 C 7.995 15.321,8.000 15.399,8.000 12.285 L 8.000 9.420 11.280 12.700 L 14.560 15.980 13.890 15.991 " stroke="none" fill="black" fill-rule="evenodd"></path></svg>