<svg xmlns="http://www.w3.org/2000/svg" width="24" height="24" viewBox="0 0 24 24" fill="none" stroke="currentColor" stroke-width="2" stroke-linecap="round" stroke-linejoin="round" class="icon icon-tabler icons-tabler-outline icon-tabler-solar-panel-2"><path d="M7.614 1.057 C 7.377 1.131,7.212 1.261,7.109 1.453 C 7.030 1.600,7.020 1.679,7.021 2.120 C 7.024 3.905,8.083 5.601,9.713 6.433 C 10.506 6.838,11.101 6.980,12.000 6.980 C 12.898 6.980,13.494 6.838,14.286 6.433 C 15.913 5.604,16.978 3.898,16.979 2.120 C 16.980 1.679,16.969 1.600,16.891 1.453 C 16.689 1.076,16.138 0.902,15.629 1.055 C 15.179 1.191,15.045 1.407,14.995 2.084 C 14.922 3.063,14.601 3.713,13.892 4.321 C 13.609 4.563,13.239 4.762,12.840 4.886 C 12.406 5.021,11.594 5.021,11.160 4.886 C 10.579 4.705,10.107 4.391,9.695 3.911 C 9.277 3.423,9.067 2.869,9.003 2.082 C 8.960 1.550,8.885 1.346,8.678 1.199 C 8.414 1.010,7.957 0.950,7.614 1.057 M3.614 2.057 C 3.377 2.131,3.212 2.261,3.109 2.453 C 3.035 2.592,3.020 2.684,3.020 3.000 C 3.020 3.331,3.033 3.403,3.120 3.558 C 3.230 3.755,3.414 3.898,3.635 3.959 C 3.823 4.012,5.177 4.012,5.365 3.959 C 5.586 3.898,5.770 3.755,5.880 3.558 C 5.967 3.402,5.980 3.332,5.979 3.000 C 5.978 2.687,5.962 2.591,5.890 2.453 C 5.786 2.256,5.623 2.131,5.371 2.055 C 5.126 1.982,3.851 1.983,3.614 2.057 M18.614 2.057 C 18.377 2.131,18.212 2.261,18.109 2.453 C 18.035 2.592,18.020 2.684,18.020 3.000 C 18.020 3.331,18.033 3.403,18.120 3.558 C 18.230 3.755,18.414 3.898,18.635 3.959 C 18.823 4.012,20.177 4.012,20.365 3.959 C 20.586 3.898,20.770 3.755,20.880 3.558 C 20.967 3.402,20.980 3.332,20.979 3.000 C 20.978 2.687,20.962 2.591,20.890 2.453 C 20.786 2.256,20.623 2.131,20.371 2.055 C 20.126 1.982,18.851 1.983,18.614 2.057 M6.420 6.247 C 6.182 6.370,5.222 7.344,5.123 7.561 C 4.958 7.925,5.051 8.262,5.417 8.618 C 5.800 8.993,6.166 9.053,6.552 8.805 C 6.817 8.635,7.649 7.779,7.759 7.561 C 7.937 7.212,7.848 6.846,7.501 6.499 C 7.161 6.159,6.766 6.067,6.420 6.247 M16.826 6.245 C 16.457 6.439,16.151 6.873,16.151 7.200 C 16.151 7.493,16.283 7.694,16.856 8.268 C 17.414 8.828,17.611 8.958,17.900 8.958 C 18.379 8.958,18.960 8.377,18.959 7.900 C 18.958 7.611,18.827 7.413,18.268 6.856 C 17.978 6.566,17.664 6.291,17.572 6.245 C 17.352 6.134,17.035 6.134,16.826 6.245 M11.614 8.057 C 11.377 8.131,11.212 8.261,11.109 8.453 C 11.027 8.606,11.019 8.684,11.007 9.405 C 10.999 9.880,11.011 10.252,11.037 10.349 C 11.144 10.748,11.430 10.961,11.896 10.991 C 12.381 11.022,12.699 10.882,12.880 10.558 C 12.978 10.383,12.980 10.364,12.980 9.500 C 12.980 8.667,12.975 8.611,12.891 8.453 C 12.842 8.362,12.746 8.247,12.678 8.199 C 12.414 8.010,11.957 7.950,11.614 8.057 M5.331 12.061 C 4.822 12.171,4.273 12.582,4.025 13.038 C 3.946 13.183,3.783 13.750,3.492 14.893 C 3.261 15.799,3.040 16.684,2.999 16.860 C 2.959 17.036,2.781 17.762,2.603 18.474 C 2.270 19.809,2.241 20.009,2.324 20.408 C 2.481 21.158,3.122 21.799,3.872 21.956 C 4.172 22.018,19.828 22.018,20.128 21.956 C 20.878 21.799,21.519 21.158,21.676 20.408 C 21.759 20.009,21.730 19.809,21.397 18.474 C 21.219 17.762,21.041 17.036,21.001 16.860 C 20.960 16.684,20.738 15.798,20.508 14.892 C 20.043 13.069,20.001 12.961,19.613 12.581 C 19.342 12.317,19.005 12.134,18.651 12.059 C 18.259 11.976,5.713 11.977,5.331 12.061 M8.742 14.990 L 8.619 15.980 6.945 15.990 C 5.611 15.999,5.275 15.991,5.289 15.950 C 5.300 15.923,5.414 15.473,5.543 14.950 L 5.778 14.000 7.321 14.000 L 8.864 14.000 8.742 14.990 M13.120 14.030 C 13.120 14.047,13.174 14.483,13.240 15.000 C 13.306 15.517,13.360 15.954,13.360 15.970 C 13.360 15.987,12.748 16.000,12.000 16.000 C 11.252 16.000,10.640 15.987,10.640 15.970 C 10.640 15.954,10.694 15.517,10.760 15.000 C 10.826 14.483,10.880 14.047,10.880 14.030 C 10.880 14.013,11.384 14.000,12.000 14.000 C 12.616 14.000,13.120 14.013,13.120 14.030 M18.457 14.950 C 18.586 15.473,18.700 15.923,18.711 15.950 C 18.725 15.991,18.389 15.999,17.055 15.990 L 15.381 15.980 15.258 14.990 L 15.136 14.000 16.679 14.000 L 18.222 14.000 18.457 14.950 M8.360 18.030 C 8.360 18.047,8.306 18.483,8.240 19.000 C 8.174 19.517,8.120 19.953,8.120 19.970 C 8.120 19.987,7.254 20.000,6.196 20.000 C 4.673 20.000,4.275 19.990,4.290 19.950 C 4.300 19.922,4.414 19.473,4.543 18.950 L 4.778 18.000 6.569 18.000 C 7.554 18.000,8.360 18.014,8.360 18.030 M13.742 19.010 L 13.864 20.000 12.000 20.000 L 10.136 20.000 10.263 19.010 C 10.333 18.465,10.393 18.015,10.395 18.010 C 10.398 18.004,11.124 18.004,12.009 18.010 L 13.619 18.020 13.742 19.010 M19.457 18.950 C 19.586 19.473,19.700 19.922,19.710 19.950 C 19.725 19.990,19.327 20.000,17.804 20.000 C 16.746 20.000,15.880 19.987,15.880 19.970 C 15.880 19.953,15.826 19.517,15.760 19.000 C 15.694 18.483,15.640 18.047,15.640 18.030 C 15.640 18.014,16.446 18.000,17.431 18.000 L 19.222 18.000 19.457 18.950 " stroke="none" fill="black" fill-rule="evenodd"></path></svg>