<svg xmlns="http://www.w3.org/2000/svg" width="24" height="24" viewBox="0 0 24 24" fill="none" stroke="currentColor" stroke-width="2" stroke-linecap="round" stroke-linejoin="round" class="icon icon-tabler icons-tabler-outline icon-tabler-brand-nexo"><path d="M6.686 2.040 C 6.551 2.098,1.525 5.115,1.368 5.233 C 1.295 5.288,1.187 5.415,1.128 5.516 L 1.020 5.700 1.020 12.000 L 1.020 18.300 1.129 18.486 C 1.190 18.589,1.325 18.734,1.429 18.810 C 1.687 18.996,6.483 21.869,6.658 21.942 C 6.821 22.010,7.146 22.018,7.307 21.958 C 7.369 21.935,8.396 21.267,9.590 20.472 L 11.759 19.028 14.140 20.456 C 15.449 21.242,16.587 21.912,16.669 21.946 C 16.768 21.988,16.900 22.003,17.064 21.992 C 17.309 21.977,17.335 21.963,19.906 20.422 C 21.333 19.566,22.559 18.822,22.632 18.767 C 22.705 18.712,22.813 18.585,22.872 18.484 L 22.980 18.300 22.980 12.000 L 22.980 5.700 22.872 5.516 C 22.813 5.415,22.705 5.288,22.632 5.233 C 22.559 5.178,21.331 4.433,19.903 3.577 L 17.306 2.020 17.000 2.020 L 16.694 2.020 14.347 3.428 L 12.000 4.836 9.655 3.429 L 7.310 2.022 7.045 2.011 C 6.899 2.006,6.738 2.019,6.686 2.040 M11.510 6.880 L 16.000 9.572 16.000 11.404 L 16.000 13.236 11.730 10.673 C 9.382 9.263,7.382 8.083,7.286 8.050 C 7.054 7.970,6.689 8.004,6.446 8.129 C 6.241 8.234,6.102 8.411,6.039 8.644 C 6.012 8.743,6.002 9.926,6.009 12.048 L 6.020 15.300 6.129 15.486 C 6.190 15.589,6.325 15.734,6.429 15.810 C 6.534 15.886,7.322 16.367,8.180 16.879 C 9.038 17.392,9.763 17.832,9.791 17.858 C 9.832 17.895,9.541 18.107,8.417 18.855 C 7.536 19.443,6.969 19.797,6.932 19.782 C 6.899 19.770,6.001 19.237,4.936 18.598 L 3.000 17.436 3.000 12.000 L 3.000 6.564 4.990 5.368 C 6.085 4.710,6.989 4.175,7.000 4.180 C 7.011 4.184,9.040 5.399,11.510 6.880 M19.010 5.380 L 21.000 6.572 21.000 12.004 L 21.000 17.436 19.000 18.636 L 17.000 19.836 12.500 17.136 L 8.000 14.436 8.000 12.614 C 8.000 11.172,8.010 10.796,8.050 10.811 C 8.078 10.822,10.022 11.984,12.371 13.394 C 14.720 14.804,16.709 15.976,16.791 15.998 C 17.160 16.101,17.439 16.010,17.713 15.698 C 18.016 15.355,18.003 15.524,17.991 11.917 L 17.980 8.700 17.870 8.514 C 17.810 8.411,17.711 8.290,17.650 8.245 C 17.590 8.200,16.735 7.680,15.751 7.091 C 14.767 6.502,13.963 6.011,13.963 6.000 C 13.963 5.974,16.974 4.169,17.000 4.180 C 17.011 4.185,17.916 4.724,19.010 5.380 " stroke="none" fill="black" fill-rule="evenodd"></path></svg>