<svg xmlns="http://www.w3.org/2000/svg" width="24" height="24" viewBox="0 0 24 24" fill="none" stroke="currentColor" stroke-width="2" stroke-linecap="round" stroke-linejoin="round" class="icon icon-tabler icons-tabler-outline icon-tabler-brand-qq"><path d="M11.340 1.047 C 9.952 1.203,8.530 1.934,7.557 2.992 C 6.116 4.558,5.292 6.638,5.026 9.380 L 4.972 9.941 4.468 11.280 C 3.620 13.536,3.428 14.126,3.225 15.120 C 2.788 17.255,3.002 18.499,3.875 18.892 C 4.014 18.955,4.145 18.976,4.400 18.978 C 4.702 18.980,4.770 18.966,5.010 18.852 C 5.310 18.710,5.646 18.417,5.899 18.076 L 6.065 17.851 6.112 18.276 C 6.164 18.739,6.268 19.159,6.421 19.523 C 6.476 19.652,6.520 19.765,6.520 19.774 C 6.520 19.783,6.375 19.885,6.197 20.002 C 5.458 20.487,5.065 21.184,5.191 21.785 C 5.323 22.418,5.723 22.792,6.427 22.941 C 6.835 23.027,17.165 23.027,17.573 22.941 C 18.277 22.792,18.677 22.418,18.809 21.785 C 18.935 21.187,18.539 20.485,17.804 20.003 L 17.483 19.792 17.601 19.558 C 17.739 19.285,17.899 18.755,17.938 18.440 C 17.986 18.056,17.988 18.055,18.177 18.312 C 18.778 19.128,19.778 19.228,20.455 18.539 C 20.688 18.303,20.850 18.004,20.946 17.632 C 21.080 17.109,20.933 15.748,20.600 14.447 C 20.398 13.657,20.121 12.840,19.363 10.806 L 19.000 9.831 19.000 9.306 C 18.997 5.888,17.387 2.983,14.763 1.661 C 13.726 1.139,12.489 0.917,11.340 1.047 M12.637 3.061 C 14.524 3.368,16.056 4.877,16.675 7.040 C 16.880 7.753,17.050 8.985,16.952 9.045 C 16.730 9.182,15.320 9.599,14.616 9.734 C 13.553 9.940,13.134 9.978,11.940 9.977 C 10.709 9.975,10.237 9.931,9.191 9.718 C 8.318 9.540,7.080 9.159,7.080 9.069 C 7.080 8.961,7.255 8.025,7.345 7.652 C 8.098 4.525,10.235 2.672,12.637 3.061 M9.798 5.055 C 8.966 5.234,8.328 5.979,8.254 6.861 C 8.225 7.200,8.335 7.694,8.506 7.989 C 8.652 8.242,9.053 8.633,9.305 8.769 C 9.876 9.076,10.611 9.071,11.205 8.754 C 11.419 8.640,11.843 8.246,11.953 8.060 L 12.000 7.980 12.047 8.060 C 12.157 8.246,12.581 8.640,12.795 8.754 C 13.585 9.175,14.510 9.046,15.135 8.426 C 15.272 8.291,15.433 8.095,15.494 7.990 C 15.625 7.763,15.760 7.260,15.760 7.000 C 15.760 6.740,15.625 6.237,15.494 6.010 C 15.433 5.905,15.275 5.712,15.142 5.580 C 14.356 4.802,13.095 4.814,12.335 5.608 C 12.203 5.747,12.073 5.896,12.047 5.940 L 12.000 6.020 11.953 5.940 C 11.843 5.754,11.419 5.360,11.204 5.245 C 10.780 5.019,10.278 4.951,9.798 5.055 M17.751 12.220 C 18.161 13.328,18.545 14.468,18.658 14.908 C 18.834 15.596,18.889 16.016,18.780 15.840 C 18.728 15.755,18.257 15.464,17.832 15.254 C 17.187 14.935,16.756 14.900,16.399 15.136 C 16.218 15.256,16.100 15.425,16.038 15.652 C 16.015 15.736,15.991 16.335,15.984 16.992 C 15.972 18.241,15.955 18.378,15.769 18.743 C 15.723 18.832,15.574 19.012,15.438 19.143 C 15.062 19.502,14.960 19.682,14.960 19.985 C 14.960 20.122,14.977 20.280,14.998 20.335 C 15.048 20.466,15.298 20.742,15.496 20.887 L 15.652 21.000 12.000 21.000 L 8.348 21.000 8.504 20.887 C 8.702 20.742,8.952 20.466,9.002 20.335 C 9.023 20.280,9.040 20.122,9.040 19.985 C 9.040 19.690,8.938 19.503,8.602 19.180 C 8.383 18.970,8.237 18.727,8.166 18.459 C 8.097 18.197,8.041 17.426,8.036 16.662 C 8.030 15.863,7.972 15.548,7.787 15.305 C 7.659 15.138,7.316 14.960,7.121 14.960 C 6.927 14.960,6.528 15.067,6.380 15.158 C 6.314 15.199,6.101 15.324,5.907 15.437 C 5.712 15.550,5.456 15.714,5.337 15.802 C 5.085 15.989,5.087 15.994,5.203 15.449 C 5.385 14.597,5.588 13.974,6.304 12.080 C 6.491 11.585,6.652 11.157,6.661 11.129 C 6.675 11.089,6.711 11.092,6.829 11.142 C 7.425 11.392,9.115 11.778,10.180 11.906 C 10.998 12.005,12.906 12.006,13.660 11.908 C 13.946 11.871,14.271 11.830,14.382 11.816 L 14.583 11.791 14.737 12.445 C 14.951 13.361,15.024 13.579,15.171 13.747 C 15.337 13.936,15.517 14.007,15.821 14.005 C 16.315 14.001,16.779 13.726,16.875 13.379 C 16.944 13.132,16.932 13.032,16.744 12.239 C 16.647 11.832,16.562 11.458,16.554 11.408 C 16.541 11.327,16.578 11.305,16.920 11.185 C 17.176 11.096,17.309 11.067,17.326 11.096 C 17.340 11.120,17.532 11.626,17.751 12.220 " stroke="none" fill="black" fill-rule="evenodd"></path></svg>