<svg xmlns="http://www.w3.org/2000/svg" width="24" height="24" viewBox="0 0 24 24" fill="none" stroke="currentColor" stroke-width="2" stroke-linecap="round" stroke-linejoin="round" class="icon icon-tabler icons-tabler-outline icon-tabler-target-off"><path d="M2.626 2.045 C 2.257 2.239,1.951 2.673,1.951 3.000 C 1.951 3.327,2.064 3.474,3.188 4.605 L 4.247 5.670 3.965 6.051 C 2.989 7.366,2.353 8.911,2.093 10.600 C 1.993 11.245,1.993 12.755,2.093 13.400 C 2.445 15.685,3.475 17.680,5.106 19.237 C 6.613 20.676,8.470 21.579,10.600 21.907 C 11.245 22.007,12.755 22.007,13.400 21.907 C 15.089 21.647,16.634 21.011,17.949 20.035 L 18.330 19.753 19.395 20.812 C 20.082 21.494,20.523 21.902,20.637 21.960 C 20.989 22.137,21.354 22.048,21.701 21.701 C 22.047 21.355,22.136 20.990,21.961 20.637 C 21.839 20.392,3.616 2.165,3.372 2.044 C 3.152 1.934,2.834 1.935,2.626 2.045 M11.080 2.043 C 9.906 2.161,8.803 2.463,7.751 2.955 C 7.283 3.174,7.110 3.305,6.998 3.523 C 6.788 3.935,7.068 4.679,7.521 4.913 C 7.791 5.053,8.035 5.018,8.598 4.761 C 10.427 3.926,12.291 3.777,14.226 4.313 C 16.341 4.899,18.237 6.498,19.205 8.512 C 20.096 10.364,20.244 12.530,19.614 14.460 C 19.556 14.636,19.401 15.023,19.268 15.320 C 18.968 15.993,18.931 16.255,19.094 16.534 C 19.261 16.818,19.801 17.122,20.137 17.119 C 20.322 17.118,20.564 16.992,20.717 16.817 C 21.059 16.428,21.602 14.987,21.817 13.900 C 22.373 11.090,21.634 8.057,19.845 5.800 C 18.248 3.787,15.898 2.445,13.360 2.097 C 12.823 2.023,11.572 1.994,11.080 2.043 M11.300 6.043 C 10.641 6.123,10.305 6.277,10.154 6.570 C 9.937 6.992,10.146 7.800,10.525 8.003 C 10.700 8.096,10.976 8.112,11.397 8.052 C 13.138 7.804,14.791 8.663,15.569 10.220 C 15.948 10.979,16.034 11.567,15.946 12.800 C 15.915 13.238,15.918 13.269,16.007 13.440 C 16.173 13.759,16.585 13.941,17.079 13.913 C 17.616 13.883,17.831 13.607,17.944 12.800 C 18.151 11.334,17.759 9.743,16.893 8.529 C 15.997 7.274,14.626 6.402,13.072 6.099 C 12.668 6.020,11.736 5.991,11.300 6.043 M6.404 7.824 L 7.109 8.528 6.958 8.754 C 6.362 9.648,6.003 10.861,6.001 11.989 C 5.997 14.585,7.690 16.916,10.160 17.715 C 10.916 17.960,11.950 18.060,12.691 17.962 C 13.609 17.840,14.529 17.513,15.207 17.068 L 15.473 16.892 16.177 17.597 C 16.563 17.984,16.880 18.313,16.880 18.328 C 16.880 18.343,16.688 18.484,16.453 18.641 C 13.626 20.531,9.910 20.438,7.206 18.409 C 6.812 18.113,6.098 17.424,5.789 17.041 C 3.830 14.613,3.451 11.282,4.818 8.496 C 5.056 8.011,5.609 7.120,5.672 7.120 C 5.687 7.120,6.016 7.437,6.404 7.824 M9.305 10.725 L 10.031 11.450 10.010 11.855 C 9.976 12.535,10.148 12.991,10.608 13.444 C 11.033 13.863,11.497 14.026,12.164 13.989 L 12.549 13.968 13.274 14.694 C 13.674 15.094,14.000 15.435,14.000 15.453 C 14.000 15.509,13.394 15.763,13.000 15.873 C 12.659 15.968,12.555 15.979,11.980 15.976 C 11.460 15.974,11.282 15.957,11.033 15.889 C 9.275 15.407,8.103 13.967,8.013 12.180 C 7.979 11.510,8.106 10.890,8.404 10.257 C 8.471 10.116,8.538 10.000,8.552 10.000 C 8.567 10.000,8.906 10.326,9.305 10.725 " stroke="none" fill="black" fill-rule="evenodd"></path></svg>