<svg xmlns="http://www.w3.org/2000/svg" width="24" height="24" viewBox="0 0 24 24" fill="none" stroke="currentColor" stroke-width="2" stroke-linecap="round" stroke-linejoin="round" class="icon icon-tabler icons-tabler-outline icon-tabler-mouse"><path d="M9.400 2.044 C 7.761 2.229,6.261 3.290,5.526 4.785 C 5.333 5.177,5.187 5.599,5.093 6.040 C 5.024 6.360,5.020 6.717,5.020 12.000 C 5.020 17.283,5.024 17.640,5.093 17.960 C 5.526 19.984,7.016 21.474,9.040 21.907 C 9.349 21.973,9.618 21.980,12.000 21.980 C 14.382 21.980,14.651 21.973,14.960 21.907 C 16.488 21.580,17.748 20.630,18.433 19.288 C 18.662 18.839,18.805 18.439,18.907 17.960 C 18.976 17.640,18.980 17.283,18.980 12.000 C 18.980 6.717,18.976 6.360,18.907 6.040 C 18.625 4.721,17.863 3.576,16.800 2.874 C 16.046 2.375,15.396 2.135,14.552 2.043 C 14.092 1.992,9.849 1.994,9.400 2.044 M14.861 4.122 C 15.833 4.427,16.612 5.217,16.888 6.178 L 16.980 6.500 16.980 12.000 L 16.980 17.500 16.888 17.822 C 16.610 18.792,15.831 19.577,14.840 19.886 L 14.540 19.980 12.000 19.980 L 9.460 19.980 9.160 19.886 C 8.169 19.577,7.390 18.792,7.112 17.822 L 7.020 17.500 7.020 12.000 L 7.020 6.500 7.112 6.178 C 7.426 5.083,8.371 4.237,9.499 4.042 C 9.609 4.023,10.789 4.011,12.120 4.015 L 14.540 4.022 14.861 4.122 M11.614 6.057 C 11.377 6.131,11.212 6.261,11.109 6.453 C 11.020 6.619,11.020 6.629,11.009 8.911 C 11.001 10.392,11.012 11.256,11.039 11.355 C 11.144 11.747,11.433 11.961,11.896 11.991 C 12.381 12.022,12.699 11.882,12.880 11.558 L 12.980 11.380 12.980 9.000 L 12.980 6.620 12.891 6.453 C 12.842 6.362,12.746 6.247,12.678 6.199 C 12.414 6.010,11.957 5.950,11.614 6.057 " stroke="none" fill="black" fill-rule="evenodd"></path></svg>