<svg xmlns="http://www.w3.org/2000/svg" width="24" height="24" viewBox="0 0 24 24" fill="none" stroke="currentColor" stroke-width="2" stroke-linecap="round" stroke-linejoin="round" class="icon icon-tabler icons-tabler-outline icon-tabler-coin-pound"><path d="M11.080 2.045 C 9.507 2.184,7.883 2.751,6.540 3.630 C 5.905 4.045,5.499 4.378,4.919 4.958 C 2.953 6.926,1.919 9.544,2.013 12.320 C 2.084 14.439,2.752 16.328,4.033 18.040 C 4.430 18.570,5.305 19.464,5.800 19.847 C 7.242 20.961,8.787 21.624,10.600 21.907 C 11.247 22.008,12.753 22.008,13.400 21.907 C 15.638 21.557,17.504 20.620,19.062 19.062 C 20.620 17.504,21.557 15.638,21.907 13.400 C 22.008 12.753,22.008 11.247,21.907 10.600 C 21.624 8.786,20.959 7.238,19.847 5.800 C 19.510 5.365,18.639 4.494,18.200 4.154 C 16.133 2.555,13.646 1.818,11.080 2.045 M12.734 4.041 C 14.574 4.216,16.228 4.976,17.554 6.256 C 20.043 8.658,20.702 12.394,19.183 15.499 C 18.749 16.387,18.223 17.105,17.496 17.801 C 16.876 18.394,16.262 18.819,15.471 19.200 C 13.267 20.265,10.733 20.265,8.529 19.200 C 7.477 18.693,6.612 18.015,5.847 17.100 C 3.848 14.711,3.440 11.302,4.816 8.500 C 6.162 5.760,8.867 4.049,11.920 4.005 C 12.129 4.003,12.495 4.019,12.734 4.041 M12.499 6.040 C 11.373 6.244,10.478 7.034,10.116 8.140 C 10.031 8.403,10.024 8.498,10.009 9.710 L 9.993 11.000 9.403 11.000 C 8.577 11.000,8.299 11.097,8.109 11.453 C 8.035 11.592,8.020 11.684,8.020 12.000 C 8.020 12.331,8.033 12.403,8.120 12.558 C 8.230 12.755,8.414 12.898,8.635 12.959 C 8.715 12.981,9.055 13.000,9.390 13.000 L 10.000 13.000 10.000 13.554 C 10.000 14.169,9.955 14.387,9.779 14.618 C 9.599 14.853,9.377 14.959,8.976 15.000 C 8.248 15.076,7.964 15.399,8.009 16.104 C 8.038 16.563,8.250 16.852,8.635 16.959 C 8.832 17.014,15.168 17.014,15.365 16.959 C 15.586 16.898,15.770 16.755,15.880 16.558 C 15.967 16.402,15.980 16.332,15.979 16.000 C 15.978 15.567,15.898 15.355,15.678 15.199 C 15.414 15.011,15.296 15.000,13.514 15.000 C 12.593 15.000,11.840 14.995,11.840 14.990 C 11.841 14.985,11.870 14.890,11.906 14.780 C 11.953 14.634,11.976 14.365,11.990 13.790 L 12.009 13.000 12.615 13.000 C 12.948 13.000,13.285 12.981,13.365 12.959 C 13.586 12.898,13.770 12.755,13.880 12.558 C 13.967 12.402,13.980 12.332,13.979 12.000 C 13.978 11.687,13.962 11.591,13.890 11.453 C 13.702 11.097,13.424 11.000,12.594 11.000 L 12.000 11.000 12.000 9.947 C 12.000 8.703,12.022 8.584,12.303 8.303 C 12.486 8.120,12.763 8.000,13.000 8.000 C 13.223 8.000,13.510 8.120,13.679 8.283 C 13.892 8.491,13.958 8.650,14.001 9.067 C 14.068 9.718,14.370 10.000,15.000 10.000 C 15.428 10.000,15.713 9.856,15.880 9.558 C 15.971 9.396,15.980 9.338,15.979 8.920 C 15.978 8.555,15.959 8.398,15.885 8.160 C 15.583 7.182,14.811 6.407,13.861 6.129 C 13.500 6.023,12.832 5.980,12.499 6.040 " stroke="none" fill="black" fill-rule="evenodd"></path></svg>