<svg xmlns="http://www.w3.org/2000/svg" width="24" height="24" viewBox="0 0 24 24" fill="none" stroke="currentColor" stroke-width="2" stroke-linecap="round" stroke-linejoin="round" class="icon icon-tabler icons-tabler-outline icon-tabler-file-alert"><path d="M6.499 2.043 C 5.383 2.230,4.461 3.048,4.114 4.160 L 4.020 4.460 4.020 12.000 L 4.020 19.540 4.114 19.840 C 4.422 20.827,5.173 21.578,6.160 21.886 L 6.460 21.980 12.000 21.980 L 17.540 21.980 17.840 21.886 C 18.827 21.578,19.578 20.827,19.886 19.840 L 19.980 19.540 19.980 13.580 L 19.980 7.620 19.890 7.452 C 19.841 7.360,19.724 7.231,19.630 7.165 C 19.498 7.073,15.263 2.838,14.719 2.254 C 14.473 1.991,14.626 2.000,10.463 2.005 C 8.393 2.007,6.609 2.025,6.499 2.043 M13.000 5.632 C 13.000 7.399,13.010 7.507,13.225 7.930 C 13.361 8.199,13.801 8.639,14.070 8.775 C 14.493 8.990,14.601 9.000,16.368 9.000 L 18.000 9.000 18.000 14.054 C 18.000 18.220,17.990 19.139,17.945 19.290 C 17.872 19.533,17.707 19.740,17.484 19.872 L 17.300 19.980 12.000 19.980 L 6.700 19.980 6.516 19.872 C 6.415 19.813,6.284 19.700,6.225 19.623 C 5.986 19.309,6.000 19.795,6.000 12.022 C 6.000 4.005,5.975 4.631,6.304 4.303 C 6.613 3.994,6.464 4.006,9.930 4.003 L 13.000 4.000 13.000 5.632 M15.800 6.220 L 16.579 7.000 15.790 7.000 L 15.000 7.000 15.000 6.220 C 15.000 5.791,15.005 5.440,15.010 5.440 C 15.016 5.440,15.371 5.791,15.800 6.220 M11.614 10.057 C 11.377 10.131,11.212 10.261,11.109 10.453 C 11.021 10.618,11.020 10.647,11.008 12.410 C 11.001 13.557,11.012 14.255,11.038 14.354 C 11.144 14.747,11.433 14.961,11.896 14.991 C 12.381 15.022,12.699 14.882,12.880 14.558 L 12.980 14.380 12.980 12.500 C 12.980 10.633,12.979 10.619,12.891 10.453 C 12.842 10.362,12.746 10.247,12.678 10.199 C 12.414 10.010,11.957 9.950,11.614 10.057 M11.614 16.055 C 11.220 16.184,11.039 16.437,11.009 16.900 C 10.978 17.381,11.119 17.699,11.442 17.880 C 11.597 17.967,11.669 17.980,12.000 17.980 C 12.312 17.980,12.408 17.964,12.540 17.894 C 12.866 17.718,13.000 17.459,13.000 17.000 C 13.000 16.357,12.713 16.048,12.083 16.016 C 11.893 16.006,11.718 16.021,11.614 16.055 " stroke="none" fill="black" fill-rule="evenodd"></path></svg>