<svg xmlns="http://www.w3.org/2000/svg" width="24" height="24" viewBox="0 0 24 24" fill="none" stroke="currentColor" stroke-width="2" stroke-linecap="round" stroke-linejoin="round" class="icon icon-tabler icons-tabler-outline icon-tabler-chart-dots-2"><path d="M2.614 2.057 C 2.377 2.131,2.212 2.261,2.109 2.453 L 2.020 2.620 2.020 12.000 L 2.020 21.380 2.120 21.558 C 2.230 21.755,2.414 21.898,2.635 21.959 C 2.835 22.015,21.165 22.015,21.365 21.959 C 21.586 21.898,21.770 21.755,21.880 21.558 C 21.967 21.402,21.980 21.332,21.979 21.000 C 21.978 20.567,21.898 20.355,21.678 20.199 C 21.386 19.990,21.827 20.000,12.594 20.000 L 4.001 20.000 3.990 11.310 L 3.980 2.620 3.891 2.453 C 3.842 2.362,3.746 2.247,3.678 2.199 C 3.414 2.010,2.957 1.950,2.614 2.057 M12.499 2.040 C 11.363 2.246,10.460 3.049,10.114 4.160 C 9.979 4.594,9.979 5.406,10.114 5.840 C 10.421 6.827,11.181 7.586,12.160 7.884 C 12.480 7.982,13.141 8.012,13.600 7.951 L 13.820 7.921 14.689 9.086 L 15.558 10.251 15.484 10.355 C 15.273 10.655,15.073 11.197,15.023 11.603 L 14.996 11.826 13.220 12.536 L 11.443 13.247 11.312 13.094 C 10.882 12.597,10.397 12.278,9.820 12.113 C 9.357 11.981,8.595 11.987,8.139 12.125 C 7.179 12.417,6.419 13.181,6.114 14.160 C 5.979 14.594,5.979 15.406,6.114 15.840 C 6.421 16.826,7.174 17.579,8.160 17.886 C 8.594 18.021,9.406 18.021,9.840 17.886 C 10.983 17.530,11.838 16.534,11.977 15.397 L 12.004 15.174 13.780 14.464 L 15.557 13.753 15.688 13.906 C 16.120 14.405,16.558 14.697,17.161 14.886 C 17.593 15.021,18.406 15.021,18.840 14.886 C 19.826 14.579,20.579 13.826,20.886 12.840 C 21.021 12.406,21.021 11.594,20.886 11.160 C 20.577 10.168,19.781 9.380,18.822 9.116 C 18.476 9.021,17.875 8.993,17.420 9.050 L 17.180 9.081 16.314 7.918 L 15.447 6.756 15.605 6.488 C 15.769 6.208,15.960 5.673,15.961 5.488 C 15.961 5.429,15.976 5.356,15.995 5.327 C 16.014 5.297,17.185 4.983,18.704 4.602 C 20.176 4.232,21.432 3.909,21.495 3.884 C 21.827 3.752,22.000 3.489,22.000 3.116 C 22.000 2.422,21.663 2.000,21.107 2.000 C 20.946 2.000,20.108 2.193,18.240 2.660 C 16.789 3.023,15.578 3.320,15.549 3.320 C 15.521 3.320,15.414 3.222,15.313 3.101 C 14.730 2.407,14.011 2.053,13.120 2.019 C 12.889 2.011,12.609 2.020,12.499 2.040 M13.310 4.061 C 13.687 4.173,14.001 4.599,14.000 4.997 C 13.999 5.327,13.809 5.654,13.506 5.849 C 13.322 5.967,13.273 5.980,13.001 5.980 C 12.746 5.980,12.672 5.963,12.516 5.872 C 11.935 5.530,11.833 4.774,12.304 4.303 C 12.583 4.024,12.916 3.944,13.310 4.061 M18.310 11.061 C 18.688 11.173,19.000 11.598,19.000 12.001 C 19.000 12.331,18.784 12.696,18.484 12.872 C 18.328 12.964,18.254 12.980,17.997 12.980 C 17.729 12.980,17.671 12.966,17.502 12.860 C 16.875 12.468,16.842 11.581,17.439 11.185 C 17.721 10.999,17.978 10.962,18.310 11.061 M9.310 14.061 C 9.688 14.173,10.000 14.598,10.000 15.001 C 10.000 15.331,9.784 15.696,9.484 15.872 C 9.328 15.963,9.254 15.980,9.000 15.980 C 8.746 15.980,8.672 15.963,8.516 15.872 C 7.935 15.530,7.833 14.774,8.304 14.303 C 8.583 14.024,8.916 13.944,9.310 14.061 " stroke="none" fill="black" fill-rule="evenodd"></path></svg>