<svg xmlns="http://www.w3.org/2000/svg" width="24" height="24" viewBox="0 0 24 24" fill="none" stroke="currentColor" stroke-width="2" stroke-linecap="round" stroke-linejoin="round" class="icon icon-tabler icons-tabler-outline icon-tabler-gender-androgyne"><path d="M16.719 3.999 L 14.658 4.020 14.459 4.122 C 14.119 4.297,13.978 4.606,14.009 5.104 C 14.038 5.563,14.250 5.852,14.635 5.959 C 14.715 5.981,15.185 6.000,15.680 6.000 L 16.580 6.000 15.791 6.788 L 15.003 7.577 14.512 7.096 C 13.970 6.568,13.801 6.461,13.500 6.461 C 13.245 6.461,13.033 6.565,12.788 6.809 C 12.451 7.144,12.362 7.485,12.520 7.833 C 12.568 7.938,12.791 8.202,13.087 8.504 L 13.576 9.003 13.024 9.556 L 12.471 10.110 12.266 9.974 C 10.776 8.990,8.780 8.742,7.060 9.329 C 5.054 10.013,3.575 11.703,3.114 13.840 C 3.039 14.191,3.024 14.381,3.024 15.000 C 3.024 15.619,3.039 15.809,3.114 16.160 C 3.638 18.587,5.417 20.365,7.840 20.885 C 8.446 21.015,9.554 21.015,10.160 20.885 C 11.397 20.620,12.412 20.068,13.269 19.195 C 14.109 18.340,14.626 17.369,14.885 16.160 C 15.015 15.554,15.015 14.446,14.885 13.840 C 14.723 13.083,14.410 12.313,14.040 11.755 L 13.890 11.529 14.443 10.977 L 14.996 10.425 15.510 10.926 C 16.085 11.486,16.258 11.586,16.584 11.550 C 16.995 11.503,17.511 10.978,17.550 10.565 C 17.580 10.256,17.461 10.058,16.904 9.488 L 16.423 8.997 17.212 8.209 L 18.000 7.420 18.000 8.320 C 18.000 8.815,18.019 9.285,18.041 9.365 C 18.148 9.750,18.437 9.962,18.896 9.991 C 19.381 10.022,19.699 9.882,19.880 9.558 L 19.980 9.380 20.008 7.220 C 20.023 6.032,20.036 5.001,20.038 4.929 C 20.041 4.739,19.834 4.310,19.690 4.207 C 19.467 4.048,19.205 3.959,18.987 3.969 C 18.873 3.974,17.852 3.987,16.719 3.999 M9.605 11.058 C 10.855 11.247,11.964 12.042,12.536 13.160 C 12.767 13.611,12.871 13.930,12.942 14.395 C 13.014 14.879,13.014 15.121,12.942 15.605 C 12.691 17.265,11.434 18.579,9.773 18.917 C 7.563 19.368,5.396 17.845,5.058 15.605 C 4.986 15.121,4.986 14.879,5.058 14.395 C 5.314 12.698,6.675 11.324,8.358 11.061 C 8.816 10.990,9.144 10.989,9.605 11.058 " stroke="none" fill="black" fill-rule="evenodd"></path></svg>