<svg xmlns="http://www.w3.org/2000/svg" width="24" height="24" viewBox="0 0 24 24" fill="none" stroke="currentColor" stroke-width="2" stroke-linecap="round" stroke-linejoin="round" class="icon icon-tabler icons-tabler-outline icon-tabler-caret-up"><path d="M11.620 7.046 C 11.383 7.167,5.154 13.406,5.039 13.637 C 4.830 14.056,5.036 14.589,5.514 14.871 L 5.700 14.980 11.820 15.006 C 15.186 15.020,17.999 15.034,18.071 15.036 C 18.223 15.041,18.668 14.848,18.768 14.735 C 18.894 14.593,19.049 14.187,19.049 13.999 C 19.049 13.745,18.851 13.321,18.676 13.201 C 18.601 13.150,17.190 11.763,15.540 10.118 C 13.527 8.112,12.485 7.100,12.372 7.044 C 12.151 6.934,11.836 6.935,11.620 7.046 M13.800 11.220 L 15.580 13.000 12.000 13.000 L 8.420 13.000 10.200 11.220 C 11.179 10.241,11.989 9.440,12.000 9.440 C 12.011 9.440,12.821 10.241,13.800 11.220 " stroke="none" fill="black" fill-rule="evenodd"></path></svg>