<svg xmlns="http://www.w3.org/2000/svg" width="24" height="24" viewBox="0 0 24 24" fill="none" stroke="currentColor" stroke-width="2" stroke-linecap="round" stroke-linejoin="round" class="icon icon-tabler icons-tabler-outline icon-tabler-brand-algolia"><path d="M11.320 3.028 C 9.644 3.154,7.997 3.777,6.600 4.814 C 6.094 5.189,5.172 6.117,4.774 6.651 C 2.148 10.175,2.470 15.065,5.537 18.232 C 6.734 19.468,8.185 20.317,9.795 20.722 C 11.412 21.129,13.048 21.086,14.589 20.595 C 15.533 20.294,15.909 20.056,16.005 19.700 C 16.120 19.274,15.801 18.582,15.411 18.415 C 15.185 18.318,14.969 18.350,14.300 18.578 C 13.305 18.917,12.596 19.029,11.720 18.986 C 10.470 18.925,9.370 18.589,8.352 17.958 C 6.606 16.875,5.415 15.099,5.094 13.100 C 5.008 12.564,5.008 11.436,5.094 10.900 C 5.416 8.894,6.606 7.125,8.368 6.033 C 9.048 5.611,10.055 5.233,10.874 5.093 C 11.207 5.036,11.727 5.024,14.630 5.011 L 18.000 4.995 18.000 10.786 L 18.000 16.577 16.510 15.095 C 15.556 14.147,14.962 13.587,14.860 13.538 C 14.656 13.441,14.345 13.439,14.152 13.534 C 14.071 13.574,13.875 13.721,13.718 13.859 C 13.207 14.309,12.710 14.489,11.980 14.488 C 11.221 14.487,10.671 14.245,10.151 13.682 C 9.710 13.207,9.520 12.697,9.520 11.993 C 9.520 11.235,9.712 10.767,10.240 10.240 C 10.795 9.684,11.275 9.501,12.100 9.529 C 12.644 9.547,13.011 9.649,13.420 9.895 C 13.978 10.231,14.305 10.634,14.529 11.260 C 14.757 11.896,15.075 12.101,15.648 11.981 C 16.237 11.858,16.520 11.571,16.520 11.097 C 16.520 10.866,16.328 10.284,16.119 9.883 C 15.517 8.725,14.225 7.818,12.836 7.577 C 12.325 7.488,11.357 7.517,10.895 7.634 C 9.713 7.934,8.638 8.760,8.059 9.813 C 7.759 10.359,7.587 10.933,7.525 11.588 C 7.262 14.386,9.575 16.717,12.377 16.477 C 13.057 16.419,13.644 16.253,14.156 15.974 L 14.413 15.835 16.436 17.853 C 17.831 19.244,18.515 19.899,18.637 19.960 C 19.056 20.170,19.589 19.965,19.871 19.486 L 19.980 19.300 19.980 11.460 L 19.980 3.620 19.891 3.453 C 19.842 3.362,19.746 3.247,19.678 3.199 C 19.394 2.996,19.462 3.000,15.344 3.007 C 13.230 3.011,11.419 3.020,11.320 3.028 " stroke="none" fill="black" fill-rule="evenodd"></path></svg>