<svg xmlns="http://www.w3.org/2000/svg" width="24" height="24" viewBox="0 0 24 24" fill="none" stroke="currentColor" stroke-width="2" stroke-linecap="round" stroke-linejoin="round" class="icon icon-tabler icons-tabler-outline icon-tabler-device-imac-cog"><path d="M3.477 2.073 C 2.806 2.249,2.238 2.823,2.060 3.508 C 2.008 3.706,2.000 4.577,2.000 10.000 C 2.000 16.828,1.988 16.462,2.225 16.930 C 2.361 17.199,2.801 17.639,3.070 17.775 C 3.514 18.000,3.518 18.000,6.301 18.000 L 8.864 18.000 8.742 18.990 L 8.619 19.980 8.137 20.001 C 7.724 20.018,7.627 20.036,7.458 20.123 C 7.119 20.297,6.978 20.606,7.009 21.104 C 7.038 21.563,7.250 21.852,7.635 21.959 C 7.831 22.014,12.169 22.014,12.365 21.959 C 12.586 21.898,12.770 21.755,12.880 21.558 C 12.967 21.402,12.980 21.332,12.979 21.000 C 12.978 20.567,12.898 20.355,12.678 20.199 C 12.445 20.033,12.237 20.000,11.414 20.000 C 10.988 20.000,10.640 19.987,10.640 19.970 C 10.640 19.953,10.694 19.517,10.760 19.000 C 10.826 18.483,10.880 18.047,10.880 18.030 C 10.880 18.014,11.182 18.000,11.550 18.000 C 11.918 18.000,12.285 17.981,12.365 17.959 C 12.586 17.898,12.770 17.755,12.880 17.558 C 12.967 17.402,12.980 17.332,12.979 17.000 C 12.978 16.567,12.898 16.355,12.678 16.199 C 12.394 15.996,12.477 16.000,8.094 16.000 L 4.000 16.000 4.000 15.000 L 4.000 14.000 10.110 14.000 C 14.080 14.000,16.271 13.985,16.365 13.959 C 16.586 13.898,16.770 13.755,16.880 13.558 C 16.967 13.402,16.980 13.332,16.979 13.000 C 16.978 12.567,16.898 12.355,16.678 12.199 C 16.389 11.993,16.632 12.000,10.094 12.000 L 4.000 12.000 4.000 8.000 L 4.000 4.000 12.000 4.000 L 20.000 4.000 20.000 8.110 C 20.000 10.740,20.015 12.272,20.041 12.365 C 20.148 12.750,20.437 12.962,20.896 12.991 C 21.381 13.022,21.699 12.882,21.880 12.558 L 21.980 12.380 21.991 8.090 C 22.003 3.426,22.007 3.528,21.782 3.083 C 21.646 2.816,21.297 2.449,21.017 2.281 C 20.523 1.983,21.217 2.005,12.000 2.005 C 4.321 2.005,3.721 2.009,3.477 2.073 M18.545 14.579 C 18.320 14.659,18.128 14.863,18.059 15.096 C 18.023 15.217,18.000 15.462,18.000 15.721 L 18.000 16.148 17.708 16.292 C 17.548 16.371,17.333 16.500,17.232 16.577 L 17.047 16.718 16.654 16.495 C 16.190 16.232,15.942 16.167,15.680 16.239 C 15.342 16.331,14.969 16.847,14.930 17.278 C 14.897 17.640,15.080 17.876,15.667 18.228 L 16.014 18.437 16.017 19.002 L 16.020 19.567 15.660 19.780 C 15.272 20.009,15.043 20.223,14.961 20.431 C 14.799 20.844,15.227 21.638,15.680 21.761 C 15.944 21.833,16.212 21.764,16.668 21.505 L 17.053 21.286 17.234 21.425 C 17.335 21.501,17.548 21.629,17.708 21.708 L 18.000 21.852 18.000 22.279 C 18.000 22.963,18.137 23.255,18.537 23.422 C 18.750 23.510,19.249 23.511,19.460 23.423 C 19.864 23.254,20.000 22.965,20.000 22.277 L 20.000 21.848 20.269 21.721 C 20.418 21.652,20.632 21.525,20.746 21.439 L 20.954 21.282 21.331 21.502 C 21.942 21.858,22.304 21.879,22.636 21.579 C 22.842 21.393,23.041 21.009,23.066 20.749 C 23.105 20.358,22.939 20.136,22.340 19.778 L 21.980 19.562 21.983 18.999 L 21.986 18.437 22.333 18.228 C 22.743 17.982,22.940 17.805,23.025 17.605 C 23.213 17.165,22.799 16.371,22.312 16.237 C 22.059 16.167,21.806 16.235,21.346 16.495 L 20.953 16.718 20.768 16.577 C 20.667 16.500,20.452 16.371,20.292 16.292 L 20.000 16.148 20.000 15.721 C 20.000 15.173,19.933 14.937,19.723 14.747 C 19.636 14.669,19.497 14.586,19.413 14.563 C 19.200 14.504,18.731 14.513,18.545 14.579 M19.260 18.044 C 19.497 18.107,19.701 18.263,19.849 18.494 C 19.968 18.679,19.980 18.727,19.980 19.003 C 19.980 19.287,19.970 19.322,19.831 19.531 C 19.613 19.859,19.389 19.980,19.000 19.979 C 18.665 19.978,18.526 19.923,18.308 19.705 C 18.104 19.501,18.022 19.300,18.022 19.000 C 18.022 18.334,18.621 17.871,19.260 18.044 " stroke="none" fill="black" fill-rule="evenodd"></path></svg>