<svg xmlns="http://www.w3.org/2000/svg" width="24" height="24" viewBox="0 0 24 24" fill="none" stroke="currentColor" stroke-width="2" stroke-linecap="round" stroke-linejoin="round" class="icon icon-tabler icons-tabler-outline icon-tabler-user-pentagon"><path d="M11.340 0.865 C 11.186 0.897,10.907 1.000,10.720 1.093 C 10.300 1.302,2.269 7.122,1.888 7.494 C 1.447 7.924,1.193 8.393,1.064 9.018 C 0.983 9.411,0.983 9.760,1.063 10.152 C 1.168 10.662,4.267 20.143,4.430 20.454 C 4.514 20.614,4.718 20.885,4.917 21.102 C 5.209 21.419,5.308 21.499,5.583 21.634 C 5.760 21.721,6.030 21.834,6.183 21.886 L 6.460 21.980 11.869 21.991 C 17.866 22.003,17.495 22.018,18.217 21.733 C 18.579 21.591,18.629 21.557,18.941 21.240 C 19.336 20.840,19.446 20.699,19.602 20.394 C 19.744 20.116,22.848 10.581,22.936 10.152 C 23.135 9.187,22.816 8.173,22.094 7.474 C 21.717 7.110,13.682 1.293,13.280 1.093 C 12.715 0.812,11.997 0.728,11.340 0.865 M12.403 2.890 C 12.660 3.021,20.640 8.824,20.769 8.974 C 20.922 9.152,21.015 9.449,20.988 9.675 C 20.968 9.835,18.521 17.447,18.441 17.594 C 18.421 17.631,18.378 17.589,18.300 17.454 C 17.666 16.362,16.489 15.481,15.240 15.162 C 14.700 15.024,14.222 15.000,12.000 15.000 C 9.778 15.000,9.300 15.024,8.760 15.162 C 7.521 15.478,6.321 16.370,5.719 17.421 C 5.628 17.580,5.580 17.633,5.559 17.595 C 5.480 17.450,3.032 9.836,3.012 9.675 C 2.985 9.449,3.078 9.152,3.231 8.974 C 3.360 8.824,11.340 3.021,11.597 2.890 C 11.836 2.768,12.164 2.768,12.403 2.890 M11.358 6.061 C 10.230 6.237,9.143 6.974,8.569 7.953 C 7.320 10.083,8.233 12.785,10.512 13.704 C 12.558 14.528,14.877 13.538,15.704 11.488 C 16.090 10.530,16.090 9.469,15.705 8.516 C 15.172 7.197,14.001 6.269,12.605 6.058 C 12.144 5.989,11.816 5.990,11.358 6.061 M12.523 8.073 C 13.262 8.266,13.850 8.924,13.967 9.690 C 14.067 10.343,13.873 10.933,13.403 11.404 C 13.002 11.807,12.547 12.000,12.000 12.000 C 11.485 12.000,11.038 11.822,10.653 11.465 C 9.323 10.229,10.189 8.005,12.000 8.005 C 12.143 8.005,12.378 8.036,12.523 8.073 M14.861 17.122 C 16.032 17.489,16.863 18.504,16.982 19.714 L 17.010 20.000 12.000 20.000 L 6.990 20.000 7.018 19.714 C 7.151 18.365,8.166 17.272,9.499 17.042 C 9.609 17.023,10.789 17.011,12.120 17.015 L 14.540 17.022 14.861 17.122 " stroke="none" fill="black" fill-rule="evenodd"></path></svg>