<svg xmlns="http://www.w3.org/2000/svg" width="24" height="24" viewBox="0 0 24 24" fill="none" stroke="currentColor" stroke-width="2" stroke-linecap="round" stroke-linejoin="round" class="icon icon-tabler icons-tabler-outline icon-tabler-number-24-small"><path d="M5.614 7.057 C 5.377 7.131,5.212 7.261,5.109 7.453 C 5.035 7.592,5.020 7.684,5.020 8.000 C 5.020 8.331,5.033 8.403,5.120 8.558 C 5.230 8.755,5.414 8.898,5.635 8.959 C 5.721 8.983,6.435 9.000,7.390 9.000 L 9.000 9.000 9.000 10.000 L 9.000 11.000 7.870 11.002 C 6.595 11.005,6.391 11.035,5.983 11.281 C 5.703 11.449,5.354 11.816,5.219 12.083 C 5.019 12.478,5.000 12.640,5.000 14.000 C 5.000 15.368,5.018 15.521,5.225 15.930 C 5.361 16.199,5.801 16.639,6.070 16.775 C 6.497 16.991,6.591 17.000,8.478 17.000 C 9.522 17.000,10.278 16.983,10.365 16.959 C 10.586 16.898,10.770 16.755,10.880 16.558 C 10.967 16.402,10.980 16.332,10.979 16.000 C 10.978 15.567,10.898 15.355,10.678 15.199 C 10.416 15.012,10.290 15.000,8.594 15.000 L 7.000 15.000 7.000 14.000 L 7.000 13.000 8.132 13.000 C 9.358 13.000,9.528 12.979,9.930 12.775 C 10.196 12.640,10.638 12.200,10.771 11.937 C 10.979 11.527,11.000 11.352,10.999 10.014 C 10.999 8.682,10.974 8.463,10.781 8.083 C 10.646 7.816,10.297 7.449,10.017 7.281 C 9.578 7.017,9.468 7.005,7.520 7.005 C 6.204 7.005,5.739 7.018,5.614 7.057 M13.614 7.057 C 13.377 7.131,13.212 7.261,13.109 7.453 C 13.021 7.618,13.020 7.646,13.008 9.416 C 12.996 11.353,13.004 11.460,13.202 11.877 C 13.348 12.186,13.771 12.623,14.070 12.775 C 14.472 12.979,14.642 13.000,15.868 13.000 L 17.000 13.000 17.000 14.610 C 17.000 15.565,17.017 16.279,17.041 16.365 C 17.148 16.750,17.437 16.962,17.896 16.991 C 18.381 17.022,18.699 16.882,18.880 16.558 L 18.980 16.380 18.980 12.000 L 18.980 7.620 18.889 7.450 C 18.724 7.140,18.329 6.970,17.874 7.011 C 17.439 7.051,17.141 7.274,17.041 7.635 C 17.017 7.721,17.000 8.435,17.000 9.390 L 17.000 11.000 16.002 11.000 L 15.004 11.000 14.992 9.310 C 14.980 7.651,14.978 7.617,14.891 7.453 C 14.842 7.362,14.746 7.247,14.678 7.199 C 14.414 7.010,13.957 6.950,13.614 7.057 " stroke="none" fill="black" fill-rule="evenodd"></path></svg>