<svg xmlns="http://www.w3.org/2000/svg" width="24" height="24" viewBox="0 0 24 24" fill="none" stroke="currentColor" stroke-width="2" stroke-linecap="round" stroke-linejoin="round" class="icon icon-tabler icons-tabler-outline icon-tabler-letter-n-small"><path d="M9.614 7.055 C 9.375 7.133,9.211 7.262,9.109 7.453 L 9.020 7.620 9.009 11.913 C 9.002 14.727,9.013 16.258,9.039 16.357 C 9.144 16.747,9.434 16.961,9.896 16.991 C 10.381 17.022,10.699 16.882,10.880 16.558 L 10.980 16.380 10.993 14.320 L 11.006 12.260 12.113 14.467 C 12.722 15.681,13.265 16.723,13.320 16.783 C 13.456 16.929,13.705 17.038,13.908 17.039 C 14.338 17.041,14.852 16.688,14.954 16.320 C 14.992 16.181,15.001 15.175,14.992 11.880 L 14.980 7.620 14.889 7.450 C 14.724 7.140,14.329 6.970,13.874 7.011 C 13.439 7.051,13.141 7.274,13.041 7.635 C 13.016 7.723,13.000 8.564,12.998 9.760 L 12.996 11.740 11.908 9.573 C 11.310 8.381,10.775 7.357,10.720 7.299 C 10.483 7.046,9.980 6.935,9.614 7.055 " stroke="none" fill="black" fill-rule="evenodd"></path></svg>