<svg xmlns="http://www.w3.org/2000/svg" width="24" height="24" viewBox="0 0 24 24" fill="none" stroke="currentColor" stroke-width="2" stroke-linecap="round" stroke-linejoin="round" class="icon icon-tabler icons-tabler-outline icon-tabler-separator"><path d="M2.614 11.057 C 2.221 11.180,2.039 11.435,2.009 11.906 C 1.962 12.621,2.306 13.000,3.000 13.000 C 3.698 13.000,4.043 12.616,3.989 11.900 C 3.963 11.563,3.859 11.327,3.678 11.199 C 3.414 11.010,2.957 10.950,2.614 11.057 M6.614 11.057 C 6.377 11.131,6.212 11.261,6.109 11.453 C 6.035 11.592,6.020 11.684,6.020 12.000 C 6.020 12.331,6.033 12.403,6.120 12.558 C 6.230 12.755,6.414 12.898,6.635 12.959 C 6.834 13.015,17.166 13.015,17.365 12.959 C 17.586 12.898,17.770 12.755,17.880 12.558 C 17.967 12.402,17.980 12.332,17.979 12.000 C 17.978 11.567,17.898 11.355,17.678 11.199 C 17.390 10.994,17.565 11.000,11.984 11.003 C 7.830 11.005,6.746 11.016,6.614 11.057 M20.614 11.057 C 20.221 11.180,20.039 11.435,20.009 11.906 C 19.962 12.621,20.306 13.000,21.000 13.000 C 21.698 13.000,22.043 12.616,21.989 11.900 C 21.963 11.563,21.859 11.327,21.678 11.199 C 21.414 11.010,20.957 10.950,20.614 11.057 " stroke="none" fill="black" fill-rule="evenodd"></path></svg>