<svg xmlns="http://www.w3.org/2000/svg" width="24" height="24" viewBox="0 0 24 24" fill="none" stroke="currentColor" stroke-width="2" stroke-linecap="round" stroke-linejoin="round" class="icon icon-tabler icons-tabler-outline icon-tabler-truck-loading"><path d="M1.614 2.055 C 1.375 2.133,1.211 2.262,1.109 2.453 C 1.035 2.592,1.020 2.684,1.020 3.000 C 1.020 3.331,1.033 3.403,1.120 3.558 C 1.230 3.755,1.414 3.898,1.635 3.959 C 1.715 3.981,2.078 4.000,2.443 4.000 C 3.240 4.000,3.432 4.044,3.679 4.283 C 4.006 4.601,3.978 4.086,4.000 10.160 L 4.020 15.580 4.114 15.860 C 4.312 16.450,4.620 16.903,5.109 17.321 C 5.360 17.537,5.760 17.763,6.032 17.843 C 6.148 17.877,6.197 17.911,6.182 17.948 C 6.055 18.281,6.022 18.496,6.021 19.000 C 6.021 19.455,6.035 19.587,6.114 19.840 C 6.421 20.826,7.174 21.579,8.160 21.886 C 8.594 22.021,9.406 22.021,9.840 21.886 C 10.826 21.579,11.579 20.826,11.886 19.840 C 12.032 19.372,12.015 18.479,11.854 18.057 C 11.835 18.008,12.066 18.000,13.500 18.000 C 14.934 18.000,15.165 18.008,15.146 18.057 C 15.052 18.303,15.023 18.524,15.022 19.000 C 15.021 19.456,15.035 19.587,15.114 19.840 C 15.421 20.826,16.174 21.579,17.160 21.886 C 17.594 22.021,18.406 22.021,18.840 21.886 C 19.826 21.579,20.579 20.826,20.886 19.840 C 21.032 19.372,21.015 18.479,20.854 18.057 C 20.835 18.009,20.939 18.000,21.526 18.000 C 21.908 18.000,22.285 17.981,22.365 17.959 C 22.586 17.898,22.770 17.755,22.880 17.558 C 22.967 17.402,22.980 17.332,22.979 17.000 C 22.977 16.469,22.852 16.247,22.455 16.071 C 22.364 16.030,20.736 16.016,14.520 16.000 L 6.700 15.980 6.516 15.872 C 6.328 15.761,6.158 15.572,6.070 15.373 C 6.031 15.285,6.016 14.056,6.000 9.840 L 5.980 4.420 5.886 4.140 C 5.556 3.155,4.809 2.413,3.861 2.125 C 3.571 2.037,3.455 2.027,2.660 2.014 C 1.997 2.004,1.739 2.014,1.614 2.055 M11.358 5.061 C 9.731 5.315,8.417 6.584,8.083 8.227 C 8.009 8.590,8.000 8.776,8.000 10.000 C 8.000 11.224,8.009 11.410,8.083 11.773 C 8.357 13.118,9.249 14.195,10.512 14.704 C 11.220 14.989,11.346 15.000,14.000 15.000 C 16.205 15.000,16.394 14.995,16.757 14.921 C 18.384 14.589,19.589 13.384,19.921 11.757 C 19.991 11.413,20.000 11.207,20.000 10.000 C 20.000 8.459,19.964 8.157,19.705 7.516 C 19.172 6.197,18.001 5.269,16.605 5.058 C 16.076 4.979,11.873 4.981,11.358 5.061 M16.523 7.073 C 17.212 7.253,17.795 7.860,17.941 8.549 C 18.023 8.933,18.023 11.067,17.941 11.451 C 17.863 11.821,17.710 12.091,17.400 12.404 C 17.119 12.690,16.854 12.846,16.492 12.940 C 16.153 13.029,11.847 13.029,11.508 12.940 C 10.823 12.762,10.249 12.194,10.073 11.523 C 9.976 11.151,9.968 8.936,10.062 8.522 C 10.215 7.850,10.801 7.250,11.477 7.073 C 11.711 7.012,11.992 7.005,14.000 7.005 C 16.008 7.005,16.289 7.012,16.523 7.073 M9.310 18.061 C 9.688 18.173,10.000 18.598,10.000 19.001 C 10.000 19.331,9.784 19.696,9.484 19.872 C 9.328 19.963,9.254 19.980,9.000 19.980 C 8.746 19.980,8.672 19.963,8.516 19.872 C 7.935 19.530,7.833 18.774,8.304 18.303 C 8.583 18.024,8.916 17.944,9.310 18.061 M18.310 18.061 C 18.688 18.173,19.000 18.598,19.000 19.001 C 19.000 19.331,18.784 19.696,18.484 19.872 C 18.328 19.963,18.254 19.980,18.000 19.980 C 17.746 19.980,17.672 19.963,17.516 19.872 C 16.935 19.530,16.833 18.774,17.304 18.303 C 17.583 18.024,17.916 17.944,18.310 18.061 " stroke="none" fill="black" fill-rule="evenodd"></path></svg>