<svg xmlns="http://www.w3.org/2000/svg" width="24" height="24" viewBox="0 0 24 24" fill="none" stroke="currentColor" stroke-width="2" stroke-linecap="round" stroke-linejoin="round" class="icon icon-tabler icons-tabler-outline icon-tabler-clover"><path d="M9.480 2.058 C 8.291 2.313,7.377 3.189,7.076 4.363 C 6.993 4.684,7.004 5.552,7.094 5.880 C 7.196 6.249,7.410 6.677,7.631 6.952 C 7.735 7.082,8.639 8.017,9.640 9.030 C 10.916 10.321,11.513 10.899,11.637 10.961 C 11.868 11.076,12.132 11.076,12.363 10.960 C 12.487 10.898,13.086 10.319,14.360 9.030 C 15.361 8.017,16.265 7.082,16.369 6.952 C 16.590 6.677,16.804 6.249,16.906 5.880 C 16.996 5.552,17.007 4.684,16.924 4.363 C 16.701 3.492,16.086 2.723,15.307 2.340 C 14.788 2.085,14.516 2.022,13.940 2.022 C 13.262 2.022,12.786 2.166,12.220 2.542 L 12.000 2.688 11.790 2.549 C 11.252 2.194,10.787 2.042,10.160 2.018 C 9.892 2.008,9.646 2.022,9.480 2.058 M10.485 4.096 C 10.559 4.131,10.791 4.303,11.000 4.479 C 11.433 4.843,11.784 5.040,12.000 5.040 C 12.216 5.040,12.567 4.843,13.000 4.479 C 13.485 4.072,13.587 4.022,13.940 4.022 C 14.369 4.022,14.682 4.217,14.887 4.611 C 15.022 4.871,15.014 5.314,14.870 5.580 C 14.797 5.714,14.305 6.243,13.381 7.180 L 12.000 8.580 10.603 7.160 C 9.734 6.276,9.174 5.676,9.120 5.570 C 9.014 5.360,8.977 5.033,9.035 4.818 C 9.130 4.467,9.434 4.145,9.766 4.043 C 9.944 3.989,10.317 4.016,10.485 4.096 M4.559 7.040 C 3.759 7.167,2.971 7.689,2.502 8.400 C 1.817 9.440,1.845 10.813,2.572 11.830 L 2.694 12.000 2.572 12.170 C 1.971 13.010,1.840 14.097,2.222 15.065 C 2.577 15.963,3.400 16.677,4.363 16.924 C 4.684 17.007,5.552 16.996,5.880 16.906 C 6.249 16.804,6.677 16.590,6.952 16.369 C 7.082 16.265,8.017 15.361,9.030 14.360 C 10.319 13.086,10.898 12.487,10.960 12.363 C 11.076 12.132,11.076 11.868,10.960 11.637 C 10.898 11.513,10.319 10.914,9.030 9.640 C 8.017 8.639,7.082 7.735,6.953 7.631 C 6.686 7.417,6.248 7.197,5.898 7.102 C 5.614 7.025,4.869 6.990,4.559 7.040 M18.460 7.026 C 17.943 7.109,17.416 7.335,17.048 7.631 C 16.918 7.735,15.983 8.639,14.970 9.640 C 13.679 10.916,13.101 11.513,13.039 11.637 C 12.986 11.744,12.951 11.889,12.951 12.000 C 12.951 12.111,12.986 12.256,13.039 12.363 C 13.101 12.487,13.679 13.084,14.970 14.360 C 15.983 15.361,16.918 16.265,17.048 16.369 C 17.323 16.590,17.751 16.804,18.120 16.906 C 18.448 16.996,19.316 17.007,19.637 16.924 C 20.193 16.782,20.695 16.494,21.089 16.093 C 21.492 15.684,21.711 15.316,21.886 14.758 C 22.021 14.328,22.021 13.552,21.886 13.121 C 21.779 12.779,21.604 12.416,21.428 12.170 L 21.306 12.000 21.428 11.830 C 21.604 11.584,21.779 11.221,21.886 10.879 C 22.021 10.448,22.021 9.672,21.886 9.242 C 21.554 8.184,20.817 7.442,19.780 7.122 C 19.501 7.036,18.740 6.981,18.460 7.026 M5.566 9.118 C 5.677 9.175,6.254 9.712,7.160 10.603 L 8.580 12.000 7.160 13.399 C 6.224 14.321,5.679 14.829,5.560 14.889 C 5.280 15.031,4.851 15.018,4.563 14.860 C 4.152 14.633,3.937 14.180,4.031 13.735 C 4.079 13.503,4.150 13.392,4.576 12.875 C 4.885 12.500,5.039 12.208,5.039 12.000 C 5.039 11.792,4.885 11.500,4.576 11.125 C 4.141 10.597,4.087 10.514,4.035 10.286 C 3.915 9.765,4.210 9.256,4.748 9.055 C 4.957 8.977,5.346 9.007,5.566 9.118 M19.390 9.115 C 19.781 9.315,19.978 9.631,19.978 10.060 C 19.978 10.413,19.928 10.515,19.521 11.000 C 19.159 11.430,18.960 11.784,18.960 11.996 C 18.961 12.208,19.114 12.498,19.424 12.875 C 19.850 13.392,19.921 13.503,19.969 13.735 C 20.063 14.180,19.848 14.633,19.437 14.860 C 19.149 15.018,18.720 15.031,18.440 14.889 C 18.321 14.829,17.777 14.322,16.840 13.399 L 15.420 12.000 16.800 10.638 C 17.559 9.890,18.246 9.234,18.326 9.181 C 18.406 9.128,18.532 9.066,18.606 9.044 C 18.809 8.981,19.198 9.017,19.390 9.115 M11.620 13.046 C 11.450 13.133,7.972 16.622,7.631 17.048 C 7.410 17.323,7.196 17.751,7.094 18.120 C 7.004 18.448,6.993 19.316,7.076 19.637 C 7.218 20.193,7.506 20.695,7.907 21.089 C 8.316 21.492,8.684 21.711,9.242 21.886 C 9.672 22.021,10.448 22.021,10.879 21.886 C 11.221 21.779,11.584 21.604,11.830 21.428 L 12.000 21.306 12.170 21.428 C 12.416 21.604,12.779 21.779,13.121 21.886 C 13.371 21.964,13.506 21.980,13.940 21.980 C 14.522 21.980,14.828 21.909,15.318 21.660 C 16.108 21.258,16.700 20.513,16.924 19.637 C 17.007 19.316,16.996 18.448,16.906 18.120 C 16.804 17.751,16.590 17.323,16.369 17.048 C 16.005 16.593,12.549 13.132,12.372 13.044 C 12.151 12.934,11.836 12.935,11.620 13.046 M13.409 16.850 C 14.261 17.722,14.825 18.329,14.884 18.440 C 15.015 18.688,15.016 19.142,14.886 19.392 C 14.694 19.761,14.322 20.000,13.940 20.000 C 13.652 20.000,13.440 19.894,13.020 19.541 C 12.492 19.096,12.290 18.987,12.000 18.987 C 11.710 18.987,11.508 19.096,10.980 19.541 C 10.560 19.894,10.348 20.000,10.060 20.000 C 9.678 20.000,9.309 19.763,9.113 19.392 C 8.982 19.145,8.983 18.691,9.114 18.442 C 9.200 18.277,11.928 15.440,12.000 15.440 C 12.016 15.440,12.650 16.075,13.409 16.850 " stroke="none" fill="black" fill-rule="evenodd"></path></svg>