<svg xmlns="http://www.w3.org/2000/svg" width="24" height="24" viewBox="0 0 24 24" fill="none" stroke="currentColor" stroke-width="2" stroke-linecap="round" stroke-linejoin="round" class="icon icon-tabler icons-tabler-outline icon-tabler-packages"><path d="M11.660 1.054 C 11.594 1.085,10.432 1.773,9.078 2.585 C 7.724 3.396,6.551 4.094,6.471 4.135 C 6.277 4.235,6.147 4.382,6.061 4.600 C 5.996 4.766,5.991 4.979,5.996 7.360 L 6.001 9.940 3.811 11.247 C 2.606 11.965,1.578 12.566,1.526 12.581 C 1.328 12.638,1.124 12.875,1.049 13.134 C 0.983 13.363,0.980 13.586,0.999 16.340 L 1.020 19.300 1.128 19.484 C 1.187 19.585,1.299 19.716,1.377 19.775 C 1.454 19.834,2.584 20.522,3.889 21.305 C 5.193 22.087,6.314 22.768,6.380 22.818 C 6.607 22.989,6.750 23.040,7.000 23.040 C 7.258 23.040,7.398 22.987,7.640 22.801 C 7.717 22.742,8.728 22.125,9.886 21.430 L 11.993 20.168 14.126 21.447 C 15.300 22.151,16.314 22.768,16.380 22.818 C 16.607 22.989,16.750 23.040,17.000 23.040 C 17.258 23.040,17.398 22.987,17.640 22.801 C 17.717 22.742,18.842 22.057,20.140 21.280 C 21.438 20.502,22.559 19.821,22.632 19.767 C 22.705 19.712,22.813 19.585,22.872 19.484 L 22.980 19.300 23.001 16.340 C 23.020 13.625,23.016 13.364,22.954 13.188 C 22.859 12.919,22.631 12.656,22.386 12.536 C 22.273 12.480,21.239 11.873,20.089 11.187 L 17.999 9.940 18.005 7.360 L 18.011 4.780 17.909 4.580 C 17.781 4.330,17.559 4.116,17.300 3.992 C 17.190 3.939,16.022 3.250,14.705 2.459 L 12.309 1.022 12.045 1.010 C 11.880 1.003,11.735 1.020,11.660 1.054 M13.486 4.062 C 14.242 4.516,14.902 4.914,14.954 4.947 C 15.046 5.006,15.008 5.032,13.524 5.922 L 12.000 6.836 10.481 5.928 C 9.646 5.429,8.963 5.011,8.963 5.000 C 8.963 4.989,9.642 4.573,10.471 4.076 C 11.584 3.409,11.997 3.181,12.046 3.205 C 12.082 3.223,12.730 3.609,13.486 4.062 M15.999 8.350 L 15.998 9.940 14.693 10.720 C 13.976 11.149,13.301 11.551,13.194 11.613 L 13.000 11.727 13.000 10.145 L 13.000 8.564 14.490 7.665 C 15.309 7.171,15.985 6.765,15.990 6.763 C 15.995 6.761,15.999 7.475,15.999 8.350 M9.523 7.686 L 11.000 8.571 11.000 10.149 L 11.000 11.727 10.806 11.613 C 10.699 11.551,10.024 11.149,9.307 10.720 L 8.002 9.940 8.001 8.370 C 8.001 7.506,8.010 6.800,8.023 6.800 C 8.036 6.800,8.711 7.199,9.523 7.686 M8.563 12.606 C 9.375 13.093,10.040 13.502,10.040 13.516 C 10.039 13.529,9.364 13.948,8.538 14.447 L 7.036 15.354 5.525 14.447 C 4.693 13.948,4.009 13.524,4.004 13.505 C 3.990 13.454,6.972 11.677,7.033 11.700 C 7.063 11.711,7.751 12.119,8.563 12.606 M18.534 12.586 C 19.329 13.062,19.994 13.464,20.012 13.479 C 20.029 13.495,19.358 13.917,18.522 14.419 L 17.000 15.331 15.479 14.420 C 14.643 13.918,13.967 13.499,13.978 13.489 C 14.074 13.393,16.993 11.685,17.034 11.700 C 17.064 11.712,17.739 12.110,18.534 12.586 M4.693 16.280 L 5.998 17.060 5.999 18.648 L 6.000 20.236 4.500 19.336 L 3.000 18.436 3.000 16.854 L 3.000 15.273 3.194 15.387 C 3.301 15.449,3.976 15.851,4.693 16.280 M14.693 16.280 L 15.998 17.060 15.999 18.648 L 16.000 20.236 14.500 19.336 L 13.000 18.436 13.000 16.854 L 13.000 15.273 13.194 15.387 C 13.301 15.449,13.976 15.851,14.693 16.280 M21.000 16.858 L 21.000 18.436 19.500 19.336 L 18.000 20.236 18.001 18.648 L 18.002 17.060 19.491 16.170 C 20.310 15.681,20.984 15.280,20.990 15.280 C 20.996 15.280,21.000 15.990,21.000 16.858 M11.000 16.878 L 11.000 18.436 9.500 19.336 L 8.000 20.236 8.002 18.668 L 8.004 17.100 9.472 16.212 C 10.279 15.723,10.954 15.323,10.970 15.322 C 10.987 15.321,11.000 16.021,11.000 16.878 " stroke="none" fill="black" fill-rule="evenodd"></path></svg>