<svg xmlns="http://www.w3.org/2000/svg" width="24" height="24" viewBox="0 0 24 24" fill="none" stroke="currentColor" stroke-width="2" stroke-linecap="round" stroke-linejoin="round" class="icon icon-tabler icons-tabler-outline icon-tabler-arrow-up-from-arc"><path d="M11.080 2.045 C 9.507 2.184,7.883 2.751,6.540 3.630 C 5.905 4.045,5.499 4.378,4.919 4.958 C 3.265 6.614,2.275 8.717,2.041 11.074 C 1.989 11.600,1.989 12.178,2.041 12.365 C 2.148 12.750,2.437 12.962,2.896 12.991 C 3.377 13.021,3.700 12.881,3.874 12.567 C 3.955 12.420,3.973 12.310,4.004 11.788 C 4.086 10.410,4.332 9.443,4.870 8.386 C 5.667 6.820,6.911 5.597,8.500 4.816 C 10.349 3.908,12.522 3.758,14.498 4.403 C 16.483 5.051,18.172 6.504,19.130 8.386 C 19.669 9.444,19.919 10.429,19.994 11.784 C 20.023 12.310,20.040 12.411,20.124 12.563 C 20.286 12.856,20.574 13.000,21.000 13.000 C 21.428 13.000,21.713 12.856,21.880 12.558 C 21.976 12.388,21.980 12.352,21.977 11.720 C 21.969 9.661,21.217 7.571,19.847 5.800 C 19.510 5.365,18.639 4.494,18.200 4.154 C 16.133 2.555,13.646 1.818,11.080 2.045 M11.614 8.057 C 11.377 8.131,11.212 8.261,11.109 8.453 L 11.020 8.620 11.009 13.598 L 10.999 18.576 9.769 17.353 C 9.001 16.588,8.477 16.098,8.372 16.045 C 8.020 15.868,7.639 15.958,7.299 16.299 C 6.952 16.646,6.863 17.011,7.040 17.363 C 7.101 17.484,7.766 18.182,9.134 19.561 C 10.237 20.673,11.174 21.634,11.216 21.696 C 11.318 21.850,11.761 22.049,12.000 22.049 C 12.239 22.049,12.682 21.850,12.784 21.696 C 12.826 21.634,13.763 20.673,14.866 19.561 C 16.234 18.182,16.899 17.484,16.960 17.363 C 17.137 17.011,17.048 16.646,16.701 16.299 C 16.361 15.958,15.980 15.868,15.628 16.045 C 15.523 16.098,14.999 16.588,14.231 17.352 L 13.002 18.576 12.991 13.598 L 12.980 8.620 12.891 8.453 C 12.842 8.362,12.746 8.247,12.678 8.199 C 12.414 8.010,11.957 7.950,11.614 8.057 " stroke="none" fill="black" fill-rule="evenodd"></path></svg>