<svg xmlns="http://www.w3.org/2000/svg" width="24" height="24" viewBox="0 0 24 24" fill="none" stroke="currentColor" stroke-width="2" stroke-linecap="round" stroke-linejoin="round" class="icon icon-tabler icons-tabler-outline icon-tabler-message-user"><path d="M5.358 3.061 C 3.731 3.315,2.417 4.584,2.083 6.227 C 2.002 6.622,2.000 6.744,2.000 11.000 C 2.000 15.256,2.002 15.378,2.083 15.773 C 2.357 17.118,3.249 18.195,4.512 18.704 C 5.059 18.924,5.521 19.000,6.316 19.000 L 7.000 19.000 7.000 20.073 C 7.000 21.293,7.018 21.392,7.288 21.699 C 7.566 22.015,7.888 22.112,8.240 21.986 C 8.506 21.891,13.655 18.772,13.808 18.613 C 13.889 18.529,13.974 18.409,13.998 18.347 C 14.107 18.058,13.985 17.611,13.714 17.302 C 13.419 16.968,13.115 16.885,12.730 17.034 C 12.626 17.075,11.745 17.586,10.774 18.170 L 9.007 19.232 8.993 18.426 C 8.980 17.686,8.971 17.606,8.890 17.453 C 8.842 17.362,8.746 17.247,8.678 17.199 C 8.425 17.019,8.265 17.000,6.962 17.000 C 5.643 17.000,5.476 16.981,5.083 16.781 C 4.816 16.646,4.449 16.297,4.281 16.017 C 3.993 15.539,4.005 15.751,4.005 11.000 C 4.005 7.102,4.010 6.718,4.073 6.477 C 4.201 5.988,4.543 5.546,5.014 5.265 C 5.479 4.986,5.109 5.000,12.028 5.002 C 18.979 5.005,18.529 4.987,19.017 5.281 C 19.294 5.448,19.618 5.787,19.772 6.071 C 19.990 6.474,19.999 6.598,19.999 9.263 C 20.000 11.969,20.002 11.990,20.249 12.229 C 20.442 12.416,20.647 12.487,20.997 12.488 C 21.348 12.490,21.556 12.418,21.751 12.229 C 21.999 11.989,22.000 11.979,22.000 9.169 C 22.000 6.328,21.992 6.225,21.705 5.516 C 21.172 4.197,20.001 3.269,18.605 3.058 C 18.059 2.976,5.887 2.979,5.358 3.061 M18.499 14.040 C 17.363 14.246,16.460 15.049,16.114 16.160 C 15.979 16.594,15.979 17.406,16.114 17.840 C 16.241 18.247,16.438 18.609,16.700 18.917 L 16.918 19.174 16.620 19.337 C 15.890 19.736,15.356 20.378,15.122 21.140 C 15.018 21.479,14.972 22.113,15.035 22.344 C 15.146 22.749,15.428 22.961,15.896 22.991 C 16.592 23.035,16.918 22.762,16.996 22.072 C 17.045 21.644,17.108 21.490,17.321 21.283 C 17.591 21.022,17.720 21.000,19.000 21.000 C 20.280 21.000,20.409 21.022,20.679 21.283 C 20.892 21.491,20.958 21.650,21.001 22.067 C 21.068 22.718,21.370 23.000,22.000 23.000 C 22.428 23.000,22.713 22.856,22.880 22.558 C 22.971 22.396,22.980 22.338,22.979 21.920 C 22.978 21.555,22.959 21.398,22.885 21.160 C 22.644 20.377,22.117 19.740,21.380 19.337 L 21.082 19.174 21.300 18.917 C 21.562 18.609,21.759 18.247,21.886 17.840 C 22.021 17.406,22.021 16.594,21.886 16.160 C 21.581 15.179,20.810 14.407,19.861 14.129 C 19.500 14.023,18.832 13.980,18.499 14.040 M19.334 16.064 C 19.698 16.188,20.000 16.613,20.000 17.001 C 20.000 17.331,19.784 17.696,19.484 17.872 C 19.328 17.963,19.254 17.980,19.000 17.980 C 18.746 17.980,18.672 17.963,18.516 17.872 C 17.937 17.531,17.833 16.774,18.301 16.306 C 18.587 16.019,18.952 15.934,19.334 16.064 " stroke="none" fill="black" fill-rule="evenodd"></path></svg>