<svg xmlns="http://www.w3.org/2000/svg" width="24" height="24" viewBox="0 0 24 24" fill="none" stroke="currentColor" stroke-width="2" stroke-linecap="round" stroke-linejoin="round" class="icon icon-tabler icons-tabler-outline icon-tabler-parking-off"><path d="M2.626 2.045 C 2.257 2.239,1.951 2.673,1.951 3.000 C 1.951 3.293,2.085 3.492,2.702 4.120 L 3.273 4.700 3.146 5.060 L 3.020 5.420 3.020 11.980 L 3.020 18.540 3.114 18.840 C 3.422 19.827,4.173 20.578,5.160 20.886 L 5.460 20.980 12.020 20.980 L 18.580 20.980 18.940 20.854 L 19.300 20.727 19.880 21.298 C 20.205 21.617,20.538 21.908,20.637 21.959 C 20.988 22.137,21.353 22.049,21.701 21.701 C 22.048 21.355,22.137 20.990,21.961 20.637 C 21.898 20.511,20.566 19.148,17.353 15.920 C 14.868 13.423,12.795 11.341,12.747 11.292 C 12.699 11.244,12.030 10.575,11.260 9.805 C 10.490 9.036,9.815 8.361,9.760 8.305 C 9.705 8.250,8.283 6.838,6.600 5.167 C 4.562 3.143,3.484 2.100,3.372 2.044 C 3.152 1.934,2.835 1.935,2.626 2.045 M7.614 3.057 C 7.377 3.132,7.212 3.261,7.109 3.453 C 7.035 3.592,7.020 3.684,7.020 4.000 C 7.020 4.331,7.033 4.403,7.120 4.558 C 7.230 4.755,7.414 4.898,7.635 4.959 C 7.729 4.985,9.608 5.000,12.943 5.000 C 18.764 5.000,18.373 4.979,18.697 5.303 C 19.021 5.627,19.000 5.236,19.000 11.057 C 19.000 14.392,19.015 16.271,19.041 16.365 C 19.148 16.750,19.437 16.962,19.896 16.991 C 20.381 17.022,20.699 16.882,20.880 16.558 L 20.980 16.380 20.980 10.920 L 20.980 5.460 20.886 5.160 C 20.581 4.182,19.832 3.428,18.861 3.121 L 18.540 3.020 13.160 3.012 C 8.811 3.006,7.748 3.014,7.614 3.057 M8.000 12.820 C 8.000 14.974,8.015 16.273,8.041 16.365 C 8.148 16.750,8.437 16.962,8.896 16.991 C 9.381 17.022,9.699 16.882,9.880 16.558 L 9.980 16.380 9.992 14.690 L 10.004 13.000 10.792 13.000 L 11.580 13.000 14.580 16.000 L 17.580 19.001 11.640 18.990 L 5.700 18.980 5.516 18.872 C 5.415 18.813,5.284 18.700,5.225 18.623 C 4.987 18.311,5.000 18.677,5.000 12.285 L 5.000 6.420 6.500 7.920 L 8.000 9.420 8.000 12.820 M11.614 7.055 C 11.375 7.133,11.211 7.262,11.109 7.453 C 11.035 7.592,11.020 7.684,11.020 8.000 C 11.020 8.331,11.033 8.403,11.120 8.558 C 11.230 8.755,11.414 8.898,11.635 8.959 C 11.715 8.981,12.079 9.000,12.444 9.000 C 13.406 9.000,13.640 9.093,13.877 9.566 C 14.028 9.869,14.034 10.059,13.904 10.428 C 13.851 10.577,13.796 10.757,13.781 10.827 C 13.714 11.154,13.980 11.549,14.395 11.735 C 15.161 12.078,15.625 11.759,15.925 10.680 C 15.994 10.432,15.994 9.593,15.924 9.323 C 15.744 8.619,15.280 7.932,14.730 7.553 C 14.495 7.392,14.028 7.176,13.740 7.096 C 13.411 7.005,11.860 6.975,11.614 7.055 " stroke="none" fill="black" fill-rule="evenodd"></path></svg>