<svg xmlns="http://www.w3.org/2000/svg" width="24" height="24" viewBox="0 0 24 24" fill="none" stroke="currentColor" stroke-width="2" stroke-linecap="round" stroke-linejoin="round" class="icon icon-tabler icons-tabler-outline icon-tabler-math"><path d="M11.637 4.062 C 11.397 4.136,11.186 4.346,11.088 4.609 C 11.045 4.725,10.276 7.392,9.378 10.535 L 7.746 16.250 6.783 14.328 C 6.253 13.271,5.775 12.358,5.720 12.299 C 5.665 12.240,5.548 12.153,5.460 12.106 C 5.308 12.024,5.240 12.019,4.080 12.008 C 2.778 11.995,2.612 12.012,2.351 12.182 C 2.105 12.343,2.020 12.553,2.020 13.000 C 2.020 13.331,2.033 13.403,2.120 13.558 C 2.230 13.755,2.414 13.898,2.635 13.959 C 2.715 13.981,3.140 14.000,3.580 14.000 L 4.380 14.000 5.760 16.768 C 7.274 19.805,7.274 19.805,7.684 19.941 C 7.953 20.031,8.300 20.034,8.464 19.949 C 8.611 19.872,8.828 19.634,8.887 19.486 C 8.910 19.428,9.788 16.374,10.839 12.700 L 12.749 6.020 16.064 6.000 C 19.205 5.981,19.387 5.976,19.520 5.905 C 19.876 5.715,19.978 5.514,19.978 5.000 C 19.978 4.567,19.899 4.356,19.678 4.199 C 19.395 3.997,19.447 4.000,15.504 4.003 C 12.453 4.005,11.789 4.015,11.637 4.062 M13.626 12.045 C 13.257 12.239,12.951 12.673,12.951 13.000 C 12.951 13.333,13.056 13.467,14.353 14.770 L 15.577 16.000 14.353 17.230 C 13.056 18.533,12.951 18.667,12.951 19.000 C 12.951 19.477,13.523 20.049,14.000 20.049 C 14.333 20.049,14.467 19.944,15.770 18.647 L 17.000 17.423 18.230 18.647 C 19.533 19.944,19.667 20.049,20.000 20.049 C 20.477 20.049,21.049 19.477,21.049 19.000 C 21.049 18.667,20.944 18.533,19.647 17.230 L 18.423 16.000 19.647 14.770 C 20.452 13.961,20.901 13.479,20.960 13.363 C 21.137 13.011,21.048 12.646,20.701 12.299 C 20.361 11.958,19.980 11.868,19.628 12.045 C 19.523 12.098,18.999 12.588,18.230 13.353 L 17.000 14.577 15.770 13.353 C 15.001 12.588,14.477 12.098,14.372 12.045 C 14.152 11.934,13.835 11.934,13.626 12.045 " stroke="none" fill="black" fill-rule="evenodd"></path></svg>