<svg xmlns="http://www.w3.org/2000/svg" width="24" height="24" viewBox="0 0 24 24" fill="none" stroke="currentColor" stroke-width="2" stroke-linecap="round" stroke-linejoin="round" class="icon icon-tabler icons-tabler-outline icon-tabler-lambda"><path d="M6.614 3.055 C 6.220 3.184,6.039 3.437,6.009 3.900 C 5.978 4.376,6.120 4.701,6.432 4.873 C 6.556 4.942,6.709 4.976,7.010 5.005 C 7.502 5.050,7.666 5.091,7.976 5.245 C 9.069 5.786,10.109 7.364,11.218 10.163 L 11.449 10.746 8.316 15.083 C 6.592 17.468,5.133 19.510,5.072 19.620 C 4.799 20.115,5.037 20.656,5.654 20.943 C 6.009 21.109,6.337 21.061,6.614 20.805 C 6.677 20.747,7.962 18.990,9.470 16.900 C 10.978 14.810,12.233 13.077,12.259 13.049 C 12.295 13.009,12.374 13.177,12.618 13.809 C 13.771 16.804,14.672 18.433,15.799 19.562 C 16.568 20.332,17.382 20.778,18.315 20.941 C 19.164 21.090,19.648 20.972,19.880 20.558 C 19.967 20.402,19.980 20.332,19.979 20.000 C 19.977 19.291,19.749 19.069,18.951 18.998 C 18.105 18.923,17.488 18.552,16.818 17.716 C 15.952 16.636,15.324 15.309,13.882 11.505 C 13.155 9.586,12.883 8.910,12.491 8.040 C 11.745 6.386,11.054 5.296,10.221 4.457 C 9.492 3.723,8.727 3.282,7.860 3.096 C 7.452 3.008,6.818 2.987,6.614 3.055 " stroke="none" fill="black" fill-rule="evenodd"></path></svg>