<svg xmlns="http://www.w3.org/2000/svg" width="24" height="24" viewBox="0 0 24 24" fill="none" stroke="currentColor" stroke-width="2" stroke-linecap="round" stroke-linejoin="round" class="icon icon-tabler icons-tabler-outline icon-tabler-crown"><path d="M11.620 5.026 C 11.554 5.061,11.448 5.137,11.385 5.195 C 11.322 5.253,10.496 6.461,9.550 7.880 C 8.604 9.299,7.816 10.476,7.797 10.496 C 7.779 10.516,6.851 9.801,5.677 8.861 C 4.529 7.943,3.524 7.153,3.445 7.106 C 3.332 7.039,3.235 7.020,3.000 7.020 C 2.614 7.020,2.291 7.164,2.130 7.409 C 1.918 7.728,1.894 7.570,3.018 13.190 C 3.582 16.012,4.069 18.379,4.098 18.450 C 4.182 18.649,4.311 18.793,4.494 18.891 L 4.660 18.980 12.000 18.980 L 19.340 18.980 19.508 18.890 C 19.684 18.796,19.836 18.620,19.914 18.420 C 19.985 18.237,22.000 8.123,22.000 7.948 C 22.000 7.619,21.670 7.155,21.337 7.016 C 21.119 6.925,20.848 6.946,20.620 7.072 C 20.510 7.133,19.479 7.936,18.328 8.857 C 17.154 9.796,16.221 10.516,16.203 10.496 C 16.185 10.476,15.396 9.299,14.450 7.879 C 12.664 5.198,12.649 5.179,12.271 5.022 C 12.082 4.943,11.774 4.945,11.620 5.026 M13.604 10.209 C 14.471 11.511,15.242 12.647,15.317 12.732 C 15.598 13.047,15.962 13.123,16.340 12.945 C 16.450 12.893,17.195 12.326,17.996 11.685 C 18.797 11.043,19.456 10.523,19.462 10.529 C 19.468 10.535,19.182 11.993,18.826 13.770 L 18.181 17.000 12.000 17.000 L 5.819 17.000 5.174 13.770 C 4.818 11.993,4.532 10.535,4.538 10.529 C 4.544 10.523,5.212 11.050,6.024 11.700 C 6.836 12.350,7.573 12.917,7.663 12.961 C 7.990 13.120,8.349 13.051,8.646 12.772 C 8.704 12.718,9.477 11.585,10.362 10.256 C 11.248 8.927,11.985 7.840,12.000 7.840 C 12.015 7.840,12.737 8.906,13.604 10.209 " stroke="none" fill="black" fill-rule="evenodd"></path></svg>