<svg xmlns="http://www.w3.org/2000/svg" width="24" height="24" viewBox="0 0 24 24" fill="none" stroke="currentColor" stroke-width="2" stroke-linecap="round" stroke-linejoin="round" class="icon icon-tabler icons-tabler-outline icon-tabler-bleach-chlorine"><path d="M11.632 2.001 C 11.077 2.067,10.559 2.284,10.124 2.633 C 9.811 2.885,9.622 3.103,9.391 3.480 C 8.874 4.323,2.222 15.843,2.174 15.977 C 1.996 16.479,1.951 17.104,2.058 17.606 C 2.247 18.497,2.861 19.292,3.660 19.680 C 4.336 20.007,3.577 19.980,11.980 19.980 C 20.428 19.980,19.639 20.011,20.357 19.652 C 20.655 19.503,20.803 19.396,21.061 19.142 C 21.902 18.315,22.191 17.168,21.833 16.080 C 21.777 15.908,20.567 13.781,18.250 9.780 C 16.326 6.458,14.670 3.608,14.571 3.448 C 13.933 2.411,12.814 1.860,11.632 2.001 M12.436 4.079 C 12.515 4.120,12.636 4.213,12.705 4.286 C 12.801 4.389,19.299 15.540,19.852 16.552 C 20.068 16.946,19.994 17.399,19.660 17.729 C 19.363 18.022,19.950 18.002,11.918 17.990 L 4.700 17.980 4.535 17.892 C 4.220 17.723,4.002 17.366,4.001 17.013 C 4.000 16.855,4.031 16.746,4.133 16.553 C 4.311 16.215,11.108 4.491,11.209 4.348 C 11.309 4.207,11.554 4.050,11.750 4.001 C 11.949 3.952,12.258 3.987,12.436 4.079 M9.499 11.043 C 8.382 11.230,7.460 12.049,7.114 13.160 C 6.979 13.594,6.979 14.406,7.114 14.840 C 7.418 15.817,8.164 16.568,9.140 16.882 C 9.386 16.961,9.528 16.974,10.300 16.990 C 10.873 17.002,11.238 16.993,11.344 16.964 C 11.583 16.900,11.766 16.761,11.880 16.558 C 11.967 16.402,11.980 16.332,11.979 16.000 C 11.978 15.572,11.898 15.355,11.686 15.204 C 11.462 15.045,11.353 15.026,10.520 15.003 C 9.721 14.981,9.695 14.977,9.516 14.872 C 8.935 14.530,8.833 13.774,9.303 13.303 C 9.563 13.043,9.741 13.000,10.557 13.000 C 10.922 13.000,11.285 12.981,11.365 12.959 C 11.586 12.898,11.770 12.755,11.880 12.558 C 11.967 12.402,11.980 12.332,11.979 12.000 C 11.978 11.687,11.962 11.591,11.890 11.453 C 11.786 11.256,11.623 11.131,11.371 11.055 C 11.164 10.993,9.848 10.985,9.499 11.043 M13.614 11.057 C 13.377 11.131,13.212 11.261,13.109 11.453 C 13.020 11.619,13.020 11.629,13.009 13.911 C 13.001 15.392,13.012 16.256,13.039 16.355 C 13.100 16.583,13.242 16.768,13.442 16.880 L 13.620 16.980 14.908 16.992 C 15.720 17.000,16.254 16.989,16.352 16.962 C 16.583 16.900,16.768 16.759,16.880 16.558 C 16.967 16.402,16.980 16.332,16.979 16.000 C 16.978 15.687,16.962 15.591,16.890 15.453 C 16.702 15.098,16.423 15.000,15.596 15.000 L 15.004 15.000 14.992 13.310 C 14.980 11.651,14.978 11.617,14.891 11.453 C 14.842 11.362,14.746 11.247,14.678 11.199 C 14.414 11.010,13.957 10.950,13.614 11.057 " stroke="none" fill="black" fill-rule="evenodd"></path></svg>