<svg xmlns="http://www.w3.org/2000/svg" width="24" height="24" viewBox="0 0 24 24" fill="none" stroke="currentColor" stroke-width="2" stroke-linecap="round" stroke-linejoin="round" class="icon icon-tabler icons-tabler-outline icon-tabler-hierarchy"><path d="M11.499 2.040 C 10.363 2.246,9.460 3.049,9.114 4.160 C 8.979 4.594,8.979 5.406,9.114 5.840 C 9.365 6.645,9.931 7.318,10.670 7.688 L 11.000 7.853 10.997 10.197 L 10.995 12.540 8.678 14.431 L 6.360 16.322 6.244 16.262 C 5.745 16.004,4.751 15.939,4.139 16.125 C 3.179 16.417,2.419 17.181,2.114 18.160 C 1.979 18.594,1.979 19.406,2.114 19.840 C 2.421 20.826,3.174 21.579,4.160 21.886 C 4.594 22.021,5.406 22.021,5.840 21.886 C 6.826 21.579,7.579 20.826,7.886 19.840 C 7.964 19.588,7.979 19.453,7.979 19.000 C 7.979 18.480,7.940 18.251,7.776 17.825 C 7.748 17.751,11.945 14.306,12.026 14.337 C 12.056 14.348,13.018 15.125,14.163 16.063 C 15.593 17.233,16.239 17.785,16.224 17.825 C 16.060 18.251,16.021 18.480,16.021 19.000 C 16.021 19.453,16.036 19.588,16.114 19.840 C 16.421 20.826,17.174 21.579,18.160 21.886 C 18.594 22.021,19.406 22.021,19.840 21.886 C 20.826 21.579,21.579 20.826,21.886 19.840 C 22.021 19.406,22.021 18.594,21.886 18.160 C 21.581 17.181,20.821 16.417,19.861 16.125 C 19.249 15.939,18.255 16.004,17.756 16.262 L 17.640 16.322 15.322 14.431 L 13.005 12.540 13.003 10.197 L 13.000 7.853 13.330 7.688 C 14.069 7.318,14.635 6.645,14.886 5.840 C 15.021 5.406,15.021 4.594,14.886 4.160 C 14.581 3.179,13.810 2.407,12.861 2.129 C 12.500 2.023,11.832 1.980,11.499 2.040 M12.310 4.061 C 12.688 4.173,13.000 4.598,13.000 5.001 C 13.000 5.331,12.784 5.696,12.484 5.872 C 12.328 5.963,12.254 5.980,12.000 5.980 C 11.746 5.980,11.672 5.963,11.516 5.872 C 10.935 5.530,10.833 4.774,11.304 4.303 C 11.583 4.024,11.916 3.944,12.310 4.061 M5.310 18.061 C 5.688 18.173,6.000 18.598,6.000 19.001 C 6.000 19.331,5.784 19.696,5.484 19.872 C 5.328 19.963,5.254 19.980,5.000 19.980 C 4.746 19.980,4.672 19.963,4.516 19.872 C 3.935 19.530,3.833 18.774,4.304 18.303 C 4.583 18.024,4.916 17.944,5.310 18.061 M19.310 18.061 C 19.688 18.173,20.000 18.598,20.000 19.001 C 20.000 19.331,19.784 19.696,19.484 19.872 C 19.328 19.963,19.254 19.980,19.000 19.980 C 18.746 19.980,18.672 19.963,18.516 19.872 C 17.935 19.530,17.833 18.774,18.304 18.303 C 18.583 18.024,18.916 17.944,19.310 18.061 " stroke="none" fill="black" fill-rule="evenodd"></path></svg>