<svg xmlns="http://www.w3.org/2000/svg" width="24" height="24" viewBox="0 0 24 24" fill="none" stroke="currentColor" stroke-width="2" stroke-linecap="round" stroke-linejoin="round" class="icon icon-tabler icons-tabler-outline icon-tabler-arrow-forward-up"><path d="M14.626 5.045 C 14.257 5.239,13.951 5.673,13.951 6.000 C 13.951 6.333,14.056 6.467,15.353 7.770 L 16.577 9.000 12.207 9.000 C 7.717 9.000,7.350 9.011,6.760 9.162 C 5.370 9.517,4.158 10.500,3.526 11.785 C 3.333 12.177,3.187 12.599,3.093 13.040 C 2.992 13.511,2.992 14.489,3.093 14.960 C 3.523 16.967,4.991 18.448,7.000 18.902 C 7.377 18.987,9.091 19.032,9.345 18.964 C 9.583 18.900,9.767 18.761,9.880 18.558 C 9.967 18.402,9.980 18.332,9.979 18.000 C 9.978 17.572,9.898 17.355,9.686 17.204 C 9.459 17.043,9.356 17.026,8.380 16.998 C 7.546 16.974,7.383 16.959,7.140 16.881 C 6.174 16.573,5.415 15.813,5.125 14.861 C 5.042 14.588,5.027 14.458,5.027 14.000 C 5.027 13.542,5.042 13.412,5.125 13.139 C 5.415 12.187,6.175 11.426,7.139 11.121 L 7.460 11.020 12.020 11.009 L 16.579 10.998 15.354 12.229 C 14.549 13.038,14.099 13.521,14.040 13.637 C 13.863 13.989,13.952 14.354,14.299 14.701 C 14.646 15.048,15.011 15.137,15.363 14.960 C 15.484 14.899,16.182 14.234,17.561 12.866 C 18.673 11.763,19.634 10.826,19.696 10.784 C 19.850 10.682,20.049 10.239,20.049 10.000 C 20.049 9.745,19.851 9.321,19.676 9.201 C 19.601 9.150,18.640 8.213,17.540 7.118 C 16.232 5.817,15.482 5.099,15.372 5.044 C 15.152 4.934,14.835 4.935,14.626 5.045 " stroke="none" fill="black" fill-rule="evenodd"></path></svg>