<svg xmlns="http://www.w3.org/2000/svg" width="24" height="24" viewBox="0 0 24 24" fill="none" stroke="currentColor" stroke-width="2" stroke-linecap="round" stroke-linejoin="round" class="icon icon-tabler icons-tabler-outline icon-tabler-zeppelin-off"><path d="M2.626 2.045 C 2.257 2.239,1.951 2.673,1.951 3.000 C 1.951 3.283,2.083 3.490,2.605 4.022 C 3.078 4.504,3.079 4.505,3.039 4.642 C 3.017 4.721,3.000 5.431,2.999 6.320 L 2.999 7.860 2.651 8.140 C 1.986 8.675,1.219 9.357,1.124 9.500 C 0.900 9.833,0.896 10.177,1.110 10.492 C 1.210 10.638,1.865 11.222,2.620 11.838 L 2.980 12.132 3.000 13.716 L 3.020 15.300 3.128 15.485 C 3.414 15.970,3.895 16.164,4.327 15.968 C 4.422 15.924,4.885 15.569,5.355 15.178 L 6.209 14.468 6.335 14.543 C 7.161 15.036,7.578 15.265,8.229 15.587 L 8.997 15.966 9.009 18.173 L 9.020 20.380 9.120 20.558 C 9.230 20.755,9.414 20.898,9.635 20.959 C 9.832 21.014,16.168 21.014,16.365 20.959 C 16.586 20.898,16.770 20.755,16.880 20.558 C 16.978 20.384,16.980 20.359,16.993 19.404 L 17.006 18.428 18.733 20.150 C 19.909 21.322,20.517 21.900,20.637 21.960 C 20.989 22.137,21.354 22.048,21.701 21.701 C 22.048 21.354,22.137 20.990,21.960 20.637 C 21.884 20.485,20.353 18.915,16.747 15.292 C 16.699 15.244,13.708 12.262,10.100 8.666 C 5.610 4.191,3.487 2.102,3.372 2.044 C 3.152 1.934,2.835 1.935,2.626 2.045 M12.920 3.023 C 12.843 3.033,12.609 3.059,12.400 3.082 C 11.392 3.192,10.087 3.568,8.962 4.073 C 8.383 4.333,8.155 4.520,8.081 4.795 C 8.000 5.099,8.137 5.554,8.400 5.854 C 8.718 6.216,9.001 6.228,9.740 5.910 C 11.453 5.174,12.718 4.928,14.220 5.036 C 16.001 5.165,17.534 5.650,18.762 6.472 C 19.944 7.264,20.661 8.208,20.925 9.320 C 21.009 9.674,20.988 10.479,20.885 10.860 C 20.588 11.963,19.693 13.006,18.382 13.778 C 17.808 14.116,17.615 14.419,17.717 14.825 C 17.817 15.224,18.125 15.636,18.388 15.723 C 18.591 15.790,18.917 15.750,19.165 15.629 C 19.469 15.480,20.166 15.018,20.520 14.731 C 20.832 14.478,21.405 13.911,21.663 13.600 C 22.256 12.885,22.719 11.910,22.926 10.940 C 23.007 10.562,22.996 9.413,22.907 9.000 C 22.663 7.857,22.126 6.861,21.283 5.987 C 20.782 5.469,20.449 5.190,19.880 4.813 C 18.477 3.884,16.713 3.271,14.899 3.084 C 14.453 3.038,13.139 2.998,12.920 3.023 M5.323 7.402 C 5.711 7.726,5.811 7.774,6.110 7.777 L 6.359 7.780 9.970 11.390 L 13.580 15.000 13.339 15.000 C 12.800 15.000,11.900 14.844,11.180 14.625 C 10.492 14.416,9.997 14.219,9.247 13.857 C 8.437 13.466,8.052 13.251,7.181 12.705 C 6.830 12.485,6.479 12.282,6.401 12.254 C 6.062 12.133,5.814 12.208,5.369 12.564 L 5.020 12.845 5.000 12.112 C 4.974 11.166,4.988 11.192,4.179 10.530 C 3.850 10.260,3.575 10.024,3.569 10.006 C 3.563 9.988,3.806 9.774,4.109 9.530 C 4.758 9.008,4.810 8.956,4.917 8.720 C 4.989 8.561,4.998 8.458,4.999 7.850 C 5.000 7.470,5.007 7.160,5.016 7.160 C 5.025 7.160,5.163 7.269,5.323 7.402 M11.720 16.817 C 12.501 16.970,13.083 17.015,13.940 16.986 C 14.358 16.972,14.768 16.949,14.850 16.935 L 15.000 16.910 15.000 17.955 L 15.000 19.000 13.000 19.000 L 11.000 19.000 11.000 17.822 L 11.000 16.644 11.110 16.681 C 11.171 16.701,11.445 16.762,11.720 16.817 " stroke="none" fill="black" fill-rule="evenodd"></path></svg>