<svg xmlns="http://www.w3.org/2000/svg" width="24" height="24" viewBox="0 0 24 24" fill="none" stroke="currentColor" stroke-width="2" stroke-linecap="round" stroke-linejoin="round" class="icon icon-tabler icons-tabler-outline icon-tabler-number-23-small"><path d="M5.614 7.057 C 5.377 7.131,5.212 7.261,5.109 7.453 C 5.035 7.592,5.020 7.684,5.020 8.000 C 5.020 8.331,5.033 8.403,5.120 8.558 C 5.230 8.755,5.414 8.898,5.635 8.959 C 5.721 8.983,6.435 9.000,7.390 9.000 L 9.000 9.000 9.000 10.000 L 9.000 11.000 7.870 11.002 C 6.595 11.005,6.391 11.035,5.983 11.281 C 5.703 11.449,5.354 11.816,5.219 12.083 C 5.019 12.478,5.000 12.640,5.000 14.000 C 5.000 15.368,5.018 15.521,5.225 15.930 C 5.361 16.199,5.801 16.639,6.070 16.775 C 6.497 16.991,6.591 17.000,8.478 17.000 C 9.522 17.000,10.278 16.983,10.365 16.959 C 10.586 16.898,10.770 16.755,10.880 16.558 C 10.967 16.402,10.980 16.332,10.979 16.000 C 10.978 15.567,10.898 15.355,10.678 15.199 C 10.416 15.012,10.290 15.000,8.594 15.000 L 7.000 15.000 7.000 14.000 L 7.000 13.000 8.132 13.000 C 9.358 13.000,9.528 12.979,9.930 12.775 C 10.196 12.640,10.638 12.200,10.771 11.937 C 10.979 11.527,11.000 11.352,10.999 10.014 C 10.999 8.682,10.974 8.463,10.781 8.083 C 10.646 7.816,10.297 7.449,10.017 7.281 C 9.578 7.017,9.468 7.005,7.520 7.005 C 6.204 7.005,5.739 7.018,5.614 7.057 M12.614 7.057 C 12.377 7.131,12.212 7.261,12.109 7.453 C 12.035 7.592,12.020 7.684,12.020 8.000 C 12.020 8.331,12.033 8.403,12.120 8.558 C 12.230 8.755,12.414 8.898,12.635 8.959 C 12.720 8.983,13.373 9.000,14.200 9.000 C 15.538 9.000,15.627 9.005,15.748 9.078 C 15.970 9.214,16.000 9.324,16.000 10.008 C 16.000 10.544,15.990 10.636,15.922 10.748 C 15.778 10.984,15.701 11.000,14.708 11.000 C 13.756 11.000,13.562 11.028,13.322 11.199 C 13.100 11.357,13.020 11.568,13.020 12.000 C 13.020 12.331,13.033 12.403,13.120 12.558 C 13.230 12.755,13.414 12.898,13.635 12.959 C 13.715 12.981,14.190 13.000,14.692 13.000 C 15.703 13.000,15.777 13.015,15.922 13.252 C 15.990 13.364,16.000 13.456,16.000 13.992 C 16.000 14.676,15.970 14.786,15.748 14.922 C 15.627 14.995,15.538 15.000,14.216 15.000 C 12.723 15.000,12.580 15.015,12.322 15.199 C 12.100 15.357,12.020 15.568,12.020 16.000 C 12.020 16.331,12.033 16.403,12.120 16.558 C 12.233 16.759,12.417 16.900,12.649 16.963 C 12.752 16.990,13.368 17.000,14.413 16.992 L 16.020 16.979 16.320 16.869 C 17.039 16.605,17.601 16.043,17.869 15.320 C 17.980 15.021,17.980 15.016,17.980 14.000 C 17.980 12.987,17.979 12.978,17.870 12.684 C 17.810 12.521,17.705 12.301,17.636 12.194 L 17.512 12.000 17.636 11.806 C 17.705 11.699,17.810 11.479,17.870 11.316 C 17.979 11.022,17.980 11.013,17.980 10.000 C 17.980 8.985,17.979 8.978,17.869 8.680 C 17.643 8.064,17.194 7.561,16.620 7.277 C 16.100 7.020,15.941 7.001,14.260 7.003 C 13.162 7.005,12.737 7.019,12.614 7.057 " stroke="none" fill="black" fill-rule="evenodd"></path></svg>