<svg xmlns="http://www.w3.org/2000/svg" width="24" height="24" viewBox="0 0 24 24" fill="none" stroke="currentColor" stroke-width="2" stroke-linecap="round" stroke-linejoin="round" class="icon icon-tabler icons-tabler-outline icon-tabler-brand-mixpanel"><path d="M3.764 8.582 C 2.397 8.879,1.324 9.981,1.063 11.359 C 0.752 12.997,1.670 14.645,3.236 15.258 C 4.028 15.569,4.972 15.569,5.764 15.258 C 7.102 14.734,8.000 13.425,8.000 12.000 C 8.000 10.364,6.826 8.921,5.218 8.580 C 4.871 8.507,4.107 8.508,3.764 8.582 M12.499 9.040 C 11.363 9.246,10.460 10.049,10.114 11.160 C 9.979 11.594,9.979 12.406,10.114 12.840 C 10.421 13.826,11.174 14.579,12.160 14.886 C 12.594 15.021,13.406 15.021,13.840 14.886 C 14.807 14.585,15.552 13.852,15.872 12.887 C 15.961 12.620,15.974 12.508,15.977 12.020 C 15.980 11.539,15.967 11.418,15.886 11.160 C 15.580 10.178,14.810 9.407,13.861 9.129 C 13.500 9.023,12.832 8.980,12.499 9.040 M19.872 9.582 C 19.237 9.736,18.556 10.286,18.266 10.880 C 17.916 11.594,17.916 12.404,18.265 13.120 C 18.378 13.351,18.491 13.499,18.756 13.761 C 19.280 14.279,19.785 14.490,20.500 14.490 C 21.215 14.490,21.720 14.279,22.244 13.761 C 22.509 13.499,22.622 13.351,22.735 13.120 C 23.084 12.404,23.084 11.594,22.734 10.880 C 22.444 10.286,21.753 9.732,21.116 9.581 C 20.801 9.507,20.179 9.508,19.872 9.582 M5.047 10.615 C 5.729 10.896,6.084 11.544,5.960 12.281 C 5.811 13.161,4.835 13.716,3.991 13.401 C 2.704 12.919,2.679 11.139,3.953 10.615 C 4.126 10.544,4.256 10.522,4.500 10.522 C 4.744 10.522,4.874 10.544,5.047 10.615 M13.310 11.061 C 13.688 11.173,14.000 11.598,14.000 12.001 C 14.000 12.331,13.784 12.696,13.484 12.872 C 13.328 12.963,13.254 12.980,13.000 12.980 C 12.746 12.980,12.672 12.963,12.516 12.872 C 11.935 12.530,11.833 11.774,12.304 11.303 C 12.583 11.024,12.916 10.944,13.310 11.061 M20.757 11.578 C 20.876 11.640,21.000 11.854,21.000 12.000 C 21.000 12.134,20.885 12.348,20.773 12.421 C 20.718 12.457,20.595 12.487,20.500 12.487 C 20.405 12.487,20.282 12.457,20.227 12.421 C 20.115 12.348,20.000 12.134,20.000 12.000 C 20.000 11.859,20.122 11.642,20.235 11.580 C 20.372 11.506,20.615 11.505,20.757 11.578 " stroke="none" fill="black" fill-rule="evenodd"></path></svg>