<svg xmlns="http://www.w3.org/2000/svg" width="24" height="24" viewBox="0 0 24 24" fill="none" stroke="currentColor" stroke-width="2" stroke-linecap="round" stroke-linejoin="round" class="icon icon-tabler icons-tabler-outline icon-tabler-coin-rupee"><path d="M11.080 2.045 C 9.507 2.184,7.883 2.751,6.540 3.630 C 5.905 4.045,5.499 4.378,4.919 4.958 C 2.953 6.926,1.919 9.544,2.013 12.320 C 2.084 14.439,2.752 16.328,4.033 18.040 C 4.430 18.570,5.305 19.464,5.800 19.847 C 7.242 20.961,8.787 21.624,10.600 21.907 C 11.247 22.008,12.753 22.008,13.400 21.907 C 15.638 21.557,17.504 20.620,19.062 19.062 C 20.620 17.504,21.557 15.638,21.907 13.400 C 22.008 12.753,22.008 11.247,21.907 10.600 C 21.624 8.786,20.959 7.238,19.847 5.800 C 19.510 5.365,18.639 4.494,18.200 4.154 C 16.133 2.555,13.646 1.818,11.080 2.045 M12.734 4.041 C 14.574 4.216,16.228 4.976,17.554 6.256 C 20.043 8.658,20.702 12.394,19.183 15.499 C 18.749 16.387,18.223 17.105,17.496 17.801 C 16.876 18.394,16.262 18.819,15.471 19.200 C 13.267 20.265,10.733 20.265,8.529 19.200 C 7.477 18.693,6.612 18.015,5.847 17.100 C 3.848 14.711,3.440 11.302,4.816 8.500 C 6.162 5.760,8.867 4.049,11.920 4.005 C 12.129 4.003,12.495 4.019,12.734 4.041 M8.614 7.057 C 8.377 7.131,8.212 7.261,8.109 7.453 C 8.035 7.592,8.020 7.684,8.020 8.000 C 8.020 8.331,8.033 8.403,8.120 8.558 C 8.230 8.755,8.414 8.898,8.635 8.959 C 8.715 8.981,9.100 9.000,9.492 9.000 C 10.326 9.000,10.636 9.055,10.986 9.265 C 11.246 9.420,11.545 9.696,11.654 9.880 L 11.725 10.000 10.269 10.000 C 8.719 10.000,8.581 10.014,8.322 10.199 C 8.100 10.357,8.020 10.568,8.020 11.000 C 8.020 11.331,8.033 11.403,8.120 11.558 C 8.230 11.755,8.414 11.898,8.635 11.959 C 8.720 11.983,9.389 12.000,10.252 12.000 L 11.725 12.000 11.652 12.124 C 11.546 12.306,11.143 12.667,10.917 12.781 C 10.561 12.962,10.320 13.000,9.538 13.000 C 8.766 13.000,8.552 13.035,8.322 13.199 C 8.108 13.351,8.021 13.571,8.020 13.960 C 8.020 14.258,8.033 14.322,8.127 14.480 C 8.284 14.744,11.416 17.849,11.637 17.960 C 11.989 18.137,12.354 18.048,12.701 17.701 C 13.048 17.354,13.137 16.989,12.959 16.637 C 12.904 16.528,12.555 16.143,12.048 15.631 C 11.361 14.938,11.239 14.798,11.303 14.775 C 12.432 14.374,13.299 13.540,13.711 12.460 C 13.778 12.284,13.843 12.108,13.855 12.070 C 13.875 12.007,13.945 12.000,14.549 12.000 C 14.918 12.000,15.285 11.981,15.365 11.959 C 15.586 11.898,15.770 11.755,15.880 11.558 C 15.967 11.402,15.980 11.332,15.979 11.000 C 15.978 10.572,15.898 10.355,15.686 10.204 C 15.463 10.046,15.350 10.024,14.607 10.002 L 13.873 9.980 13.781 9.720 C 13.706 9.509,13.583 9.218,13.488 9.030 C 13.480 9.014,13.866 9.000,14.347 9.000 C 14.827 9.000,15.285 8.981,15.365 8.959 C 15.586 8.898,15.770 8.755,15.880 8.558 C 15.967 8.402,15.980 8.332,15.979 8.000 C 15.978 7.567,15.898 7.355,15.678 7.199 C 15.398 6.999,15.411 7.000,11.984 7.003 C 9.472 7.005,8.744 7.017,8.614 7.057 " stroke="none" fill="black" fill-rule="evenodd"></path></svg>