<svg xmlns="http://www.w3.org/2000/svg" width="24" height="24" viewBox="0 0 24 24" fill="none" stroke="currentColor" stroke-width="2" stroke-linecap="round" stroke-linejoin="round" class="icon icon-tabler icons-tabler-outline icon-tabler-vip"><path d="M2.614 4.057 C 2.377 4.131,2.212 4.261,2.109 4.453 C 2.035 4.592,2.020 4.684,2.020 5.000 C 2.020 5.331,2.033 5.403,2.120 5.558 C 2.230 5.755,2.414 5.898,2.635 5.959 C 2.835 6.015,21.165 6.015,21.365 5.959 C 21.586 5.898,21.770 5.755,21.880 5.558 C 21.967 5.402,21.980 5.332,21.979 5.000 C 21.978 4.567,21.898 4.355,21.678 4.199 C 21.385 3.990,21.877 4.000,11.984 4.003 C 4.546 4.005,2.748 4.015,2.614 4.057 M3.918 8.001 C 3.297 8.103,2.905 8.528,2.980 9.015 C 3.011 9.214,5.021 15.281,5.122 15.480 C 5.161 15.557,5.253 15.678,5.327 15.748 C 5.550 15.963,5.723 16.000,6.500 16.000 C 7.276 16.000,7.449 15.963,7.675 15.748 C 7.749 15.678,7.850 15.530,7.899 15.420 C 8.031 15.125,9.990 9.208,10.020 9.015 C 10.104 8.472,9.581 7.996,8.897 7.992 C 8.535 7.990,8.307 8.142,8.130 8.500 C 8.086 8.588,7.702 9.709,7.276 10.990 L 6.500 13.321 5.716 10.970 C 5.285 9.678,4.895 8.546,4.849 8.456 C 4.660 8.088,4.340 7.932,3.918 8.001 M11.614 8.057 C 11.377 8.131,11.212 8.261,11.109 8.453 L 11.020 8.620 11.009 11.912 C 11.002 14.060,11.012 15.257,11.039 15.356 C 11.144 15.747,11.434 15.961,11.896 15.991 C 12.381 16.022,12.699 15.882,12.880 15.558 L 12.980 15.380 12.980 12.000 L 12.980 8.620 12.891 8.453 C 12.842 8.362,12.746 8.247,12.678 8.199 C 12.414 8.010,11.957 7.950,11.614 8.057 M15.614 8.056 C 15.376 8.133,15.212 8.262,15.109 8.453 L 15.020 8.620 15.009 11.912 C 15.002 14.060,15.012 15.257,15.039 15.356 C 15.144 15.747,15.434 15.961,15.896 15.991 C 16.381 16.022,16.699 15.882,16.880 15.558 C 16.974 15.391,16.981 15.338,16.994 14.695 L 17.008 14.009 17.794 13.990 C 18.464 13.974,18.621 13.958,18.860 13.882 C 19.835 13.570,20.582 12.817,20.886 11.840 C 20.964 11.588,20.979 11.453,20.979 11.000 C 20.979 10.547,20.964 10.412,20.886 10.160 C 20.581 9.182,19.825 8.421,18.861 8.124 C 18.550 8.028,18.498 8.024,17.160 8.013 C 16.090 8.005,15.743 8.014,15.614 8.056 M18.310 10.061 C 18.688 10.173,19.000 10.598,19.000 11.001 C 19.000 11.331,18.784 11.696,18.484 11.872 C 18.308 11.975,18.272 11.981,17.650 11.993 L 17.000 12.007 17.000 11.003 L 17.000 10.000 17.553 10.000 C 17.931 10.000,18.170 10.019,18.310 10.061 M2.614 18.057 C 2.377 18.131,2.212 18.261,2.109 18.453 C 2.035 18.592,2.020 18.684,2.020 19.000 C 2.020 19.331,2.033 19.403,2.120 19.558 C 2.230 19.755,2.414 19.898,2.635 19.959 C 2.835 20.015,21.165 20.015,21.365 19.959 C 21.586 19.898,21.770 19.755,21.880 19.558 C 21.967 19.402,21.980 19.332,21.979 19.000 C 21.978 18.567,21.898 18.355,21.678 18.199 C 21.385 17.990,21.877 18.000,11.984 18.003 C 4.546 18.005,2.748 18.015,2.614 18.057 " stroke="none" fill="black" fill-rule="evenodd"></path></svg>