<svg xmlns="http://www.w3.org/2000/svg" width="24" height="24" viewBox="0 0 24 24" fill="none" stroke="currentColor" stroke-width="2" stroke-linecap="round" stroke-linejoin="round" class="icon icon-tabler icons-tabler-outline icon-tabler-trending-down-2"><path d="M2.614 5.057 C 2.377 5.131,2.212 5.261,2.109 5.453 C 2.035 5.592,2.020 5.684,2.020 6.000 C 2.020 6.331,2.033 6.403,2.120 6.558 C 2.230 6.755,2.414 6.898,2.635 6.959 C 2.725 6.984,3.678 7.000,5.128 7.000 L 7.476 7.000 10.828 11.789 C 12.672 14.424,14.245 16.644,14.324 16.724 C 14.595 16.996,14.631 17.000,16.715 17.000 L 18.575 17.000 17.853 17.730 C 17.420 18.168,17.095 18.531,17.041 18.637 C 16.863 18.988,16.952 19.354,17.299 19.701 C 17.646 20.048,18.011 20.137,18.363 19.960 C 18.480 19.901,19.051 19.365,20.062 18.365 C 20.899 17.537,21.634 16.826,21.697 16.784 C 21.850 16.682,22.049 16.238,22.049 16.000 C 22.049 15.745,21.851 15.321,21.676 15.201 C 21.601 15.150,20.865 14.438,20.040 13.618 C 19.085 12.670,18.479 12.098,18.372 12.044 C 18.020 11.868,17.639 11.959,17.299 12.299 C 16.952 12.646,16.863 13.012,17.041 13.363 C 17.095 13.469,17.420 13.832,17.853 14.270 L 18.575 15.000 17.050 15.000 L 15.524 15.000 12.172 10.211 C 10.328 7.576,8.753 5.354,8.672 5.273 C 8.397 4.997,8.431 5.000,5.443 5.003 C 3.375 5.005,2.743 5.017,2.614 5.057 " stroke="none" fill="black" fill-rule="evenodd"></path></svg>