<svg xmlns="http://www.w3.org/2000/svg" width="24" height="24" viewBox="0 0 24 24" fill="none" stroke="currentColor" stroke-width="2" stroke-linecap="round" stroke-linejoin="round" class="icon icon-tabler icons-tabler-outline icon-tabler-skull"><path d="M11.133 3.041 C 9.001 3.248,7.066 4.122,5.604 5.537 C 4.794 6.322,4.264 7.046,3.816 7.980 C 2.969 9.746,2.779 11.643,3.261 13.527 C 3.530 14.581,4.121 15.758,4.797 16.590 L 5.000 16.840 5.000 18.052 C 5.000 19.364,5.019 19.524,5.225 19.930 C 5.361 20.199,5.801 20.639,6.070 20.775 C 6.534 21.010,6.267 21.000,12.000 21.000 C 17.733 21.000,17.466 21.010,17.930 20.775 C 18.196 20.640,18.638 20.200,18.771 19.937 C 18.978 19.529,19.000 19.349,19.000 18.044 L 19.000 16.840 19.203 16.590 C 19.875 15.763,20.452 14.622,20.723 13.580 C 20.892 12.931,20.961 12.454,20.987 11.760 C 21.059 9.803,20.374 7.805,19.113 6.300 C 17.646 4.548,15.661 3.444,13.360 3.101 C 12.849 3.025,11.634 2.992,11.133 3.041 M13.059 5.083 C 14.410 5.279,15.679 5.842,16.715 6.704 C 17.086 7.013,17.642 7.634,17.927 8.058 C 18.900 9.507,19.219 11.235,18.822 12.900 C 18.581 13.907,18.162 14.718,17.434 15.584 C 16.985 16.118,17.002 16.037,17.001 17.630 L 17.000 19.000 16.003 19.000 L 15.005 19.000 14.993 17.810 C 14.980 16.662,14.977 16.614,14.889 16.450 C 14.724 16.140,14.329 15.970,13.874 16.011 C 13.439 16.051,13.141 16.274,13.041 16.635 C 13.018 16.716,13.000 17.270,13.000 17.890 L 13.000 19.000 12.003 19.000 L 11.005 19.000 10.993 17.810 C 10.980 16.662,10.977 16.614,10.889 16.450 C 10.724 16.140,10.329 15.970,9.874 16.011 C 9.439 16.051,9.141 16.274,9.041 16.635 C 9.018 16.716,9.000 17.270,9.000 17.890 L 9.000 19.000 8.000 19.000 L 7.000 19.000 6.999 17.630 C 6.998 16.037,7.015 16.118,6.566 15.584 C 5.838 14.718,5.419 13.907,5.178 12.900 C 4.704 10.913,5.246 8.876,6.667 7.311 C 7.259 6.659,7.926 6.159,8.729 5.766 C 9.601 5.339,10.370 5.133,11.500 5.023 C 11.748 4.999,12.746 5.037,13.059 5.083 M8.477 9.073 C 7.806 9.249,7.238 9.823,7.060 10.508 C 6.941 10.962,7.003 11.492,7.225 11.930 C 7.361 12.199,7.801 12.639,8.070 12.775 C 8.659 13.073,9.341 13.073,9.930 12.775 C 10.196 12.640,10.638 12.200,10.771 11.937 C 10.994 11.498,11.052 11.007,10.940 10.529 C 10.858 10.182,10.720 9.927,10.465 9.653 C 10.074 9.232,9.560 9.005,9.000 9.005 C 8.857 9.005,8.622 9.036,8.477 9.073 M14.477 9.073 C 13.806 9.249,13.238 9.823,13.060 10.508 C 12.941 10.962,13.003 11.492,13.225 11.930 C 13.361 12.199,13.801 12.639,14.070 12.775 C 14.659 13.073,15.341 13.073,15.930 12.775 C 16.196 12.640,16.638 12.200,16.771 11.937 C 16.994 11.498,17.052 11.007,16.940 10.529 C 16.858 10.182,16.720 9.927,16.465 9.653 C 16.074 9.232,15.560 9.005,15.000 9.005 C 14.857 9.005,14.622 9.036,14.477 9.073 " stroke="none" fill="black" fill-rule="evenodd"></path></svg>