<svg xmlns="http://www.w3.org/2000/svg" width="24" height="24" viewBox="0 0 24 24" fill="none" stroke="currentColor" stroke-width="2" stroke-linecap="round" stroke-linejoin="round" class="icon icon-tabler icons-tabler-outline icon-tabler-number-20-small"><path d="M5.614 7.057 C 5.377 7.131,5.212 7.261,5.109 7.453 C 5.035 7.592,5.020 7.684,5.020 8.000 C 5.020 8.331,5.033 8.403,5.120 8.558 C 5.230 8.755,5.414 8.898,5.635 8.959 C 5.721 8.983,6.435 9.000,7.390 9.000 L 9.000 9.000 9.000 10.000 L 9.000 11.000 7.870 11.002 C 6.595 11.005,6.391 11.035,5.983 11.281 C 5.703 11.449,5.354 11.816,5.219 12.083 C 5.019 12.478,5.000 12.640,5.000 14.000 C 5.000 15.368,5.018 15.521,5.225 15.930 C 5.361 16.199,5.801 16.639,6.070 16.775 C 6.497 16.991,6.591 17.000,8.478 17.000 C 9.522 17.000,10.278 16.983,10.365 16.959 C 10.586 16.898,10.770 16.755,10.880 16.558 C 10.967 16.402,10.980 16.332,10.979 16.000 C 10.978 15.567,10.898 15.355,10.678 15.199 C 10.416 15.012,10.290 15.000,8.594 15.000 L 7.000 15.000 7.000 14.000 L 7.000 13.000 8.132 13.000 C 9.358 13.000,9.528 12.979,9.930 12.775 C 10.196 12.640,10.638 12.200,10.771 11.937 C 10.979 11.527,11.000 11.352,10.999 10.014 C 10.999 8.682,10.974 8.463,10.781 8.083 C 10.646 7.816,10.297 7.449,10.017 7.281 C 9.578 7.017,9.468 7.005,7.520 7.005 C 6.204 7.005,5.739 7.018,5.614 7.057 M15.499 7.040 C 14.363 7.246,13.461 8.048,13.114 9.160 L 13.020 9.460 13.020 12.000 L 13.020 14.540 13.114 14.840 C 13.422 15.827,14.174 16.579,15.160 16.886 C 15.594 17.021,16.406 17.021,16.840 16.886 C 17.826 16.579,18.578 15.827,18.886 14.840 L 18.980 14.540 18.980 12.000 L 18.980 9.460 18.886 9.160 C 18.580 8.178,17.810 7.407,16.861 7.129 C 16.500 7.023,15.832 6.980,15.499 7.040 M16.310 9.061 C 16.589 9.144,16.856 9.411,16.939 9.690 C 17.025 9.978,17.030 14.007,16.945 14.290 C 16.872 14.533,16.707 14.740,16.484 14.872 C 16.328 14.963,16.254 14.980,16.000 14.980 C 15.746 14.980,15.672 14.963,15.516 14.872 C 15.415 14.813,15.284 14.700,15.225 14.623 C 14.999 14.327,15.000 14.334,15.000 12.002 C 15.000 9.564,14.995 9.612,15.307 9.299 C 15.582 9.024,15.918 8.944,16.310 9.061 " stroke="none" fill="black" fill-rule="evenodd"></path></svg>