<svg xmlns="http://www.w3.org/2000/svg" width="24" height="24" viewBox="0 0 24 24" fill="none" stroke="currentColor" stroke-width="2" stroke-linecap="round" stroke-linejoin="round" class="icon icon-tabler icons-tabler-outline icon-tabler-hdr"><path d="M2.614 7.057 C 2.377 7.131,2.212 7.261,2.109 7.453 L 2.020 7.620 2.009 11.913 C 2.002 14.727,2.013 16.258,2.039 16.357 C 2.144 16.747,2.434 16.961,2.896 16.991 C 3.381 17.022,3.699 16.882,3.880 16.558 L 3.980 16.380 3.992 14.690 L 4.004 13.000 5.002 13.000 L 6.000 13.000 6.000 14.610 C 6.000 15.565,6.017 16.279,6.041 16.365 C 6.148 16.750,6.437 16.962,6.896 16.991 C 7.381 17.022,7.699 16.882,7.880 16.558 L 7.980 16.380 7.980 12.000 L 7.980 7.620 7.889 7.450 C 7.724 7.140,7.329 6.970,6.874 7.011 C 6.439 7.051,6.141 7.274,6.041 7.635 C 6.017 7.721,6.000 8.435,6.000 9.390 L 6.000 11.000 5.002 11.000 L 4.004 11.000 3.992 9.310 C 3.980 7.651,3.978 7.617,3.891 7.453 C 3.842 7.362,3.746 7.247,3.678 7.199 C 3.414 7.010,2.957 6.950,2.614 7.057 M9.614 7.056 C 9.376 7.133,9.212 7.262,9.109 7.453 L 9.020 7.620 9.009 11.913 C 9.002 14.727,9.013 16.258,9.039 16.357 C 9.100 16.584,9.242 16.768,9.442 16.880 L 9.620 16.980 11.080 16.980 C 12.499 16.980,12.548 16.977,12.840 16.886 C 13.827 16.578,14.578 15.827,14.886 14.840 L 14.980 14.540 14.980 12.000 L 14.980 9.460 14.886 9.160 C 14.581 8.181,13.825 7.421,12.861 7.124 C 12.550 7.028,12.498 7.024,11.160 7.013 C 10.090 7.005,9.743 7.014,9.614 7.056 M16.614 7.056 C 16.376 7.133,16.212 7.262,16.109 7.453 L 16.020 7.620 16.009 11.913 C 16.002 14.727,16.013 16.258,16.039 16.357 C 16.144 16.747,16.434 16.961,16.896 16.991 C 17.381 17.022,17.699 16.882,17.880 16.558 L 17.980 16.380 17.992 15.027 L 18.005 13.674 19.172 15.227 C 20.475 16.960,20.553 17.040,20.935 17.040 C 21.304 17.039,21.789 16.735,21.963 16.394 C 22.067 16.191,22.064 15.884,21.955 15.668 C 21.909 15.576,21.430 14.910,20.890 14.189 C 20.350 13.468,19.916 12.872,19.924 12.865 C 19.933 12.858,20.001 12.831,20.076 12.806 C 20.648 12.613,21.345 11.992,21.656 11.400 C 21.907 10.922,21.979 10.609,21.979 10.000 C 21.979 9.547,21.964 9.412,21.886 9.160 C 21.581 8.182,20.825 7.421,19.861 7.124 C 19.550 7.028,19.498 7.024,18.160 7.013 C 17.090 7.005,16.743 7.014,16.614 7.056 M12.310 9.061 C 12.589 9.144,12.856 9.411,12.939 9.690 C 13.025 9.978,13.030 14.007,12.945 14.290 C 12.872 14.533,12.707 14.740,12.484 14.872 C 12.308 14.975,12.272 14.981,11.650 14.993 L 11.000 15.007 11.000 12.003 L 11.000 9.000 11.553 9.000 C 11.931 9.000,12.170 9.019,12.310 9.061 M19.310 9.061 C 19.688 9.173,20.000 9.598,20.000 10.001 C 20.000 10.176,19.897 10.462,19.779 10.618 C 19.587 10.870,19.359 10.974,18.954 10.993 C 18.761 11.002,18.467 10.997,18.301 10.981 L 18.000 10.953 18.000 9.977 L 18.000 9.000 18.553 9.000 C 18.931 9.000,19.170 9.019,19.310 9.061 " stroke="none" fill="black" fill-rule="evenodd"></path></svg>