<svg xmlns="http://www.w3.org/2000/svg" width="24" height="24" viewBox="0 0 24 24" fill="none" stroke="currentColor" stroke-width="2" stroke-linecap="round" stroke-linejoin="round" class="icon icon-tabler icons-tabler-outline icon-tabler-brand-zeit"><path d="M11.684 3.045 C 11.560 3.094,11.400 3.200,11.308 3.295 C 11.117 3.491,2.078 19.541,1.999 19.824 C 1.896 20.192,2.007 20.497,2.337 20.749 C 2.691 21.020,1.902 21.000,12.035 21.000 C 18.065 21.000,21.270 20.986,21.365 20.959 C 21.583 20.899,21.770 20.756,21.871 20.572 C 21.993 20.351,22.031 19.948,21.951 19.715 C 21.887 19.526,12.945 3.605,12.755 3.340 C 12.496 2.980,12.116 2.875,11.684 3.045 M15.648 12.530 L 19.276 18.980 15.638 18.990 C 13.637 18.996,10.363 18.996,8.362 18.990 L 4.724 18.980 8.352 12.530 C 10.347 8.983,11.989 6.080,12.000 6.080 C 12.011 6.080,13.653 8.983,15.648 12.530 " stroke="none" fill="black" fill-rule="evenodd"></path></svg>