<svg xmlns="http://www.w3.org/2000/svg" width="24" height="24" viewBox="0 0 24 24" fill="none" stroke="currentColor" stroke-width="2" stroke-linecap="round" stroke-linejoin="round" class="icon icon-tabler icons-tabler-outline icon-tabler-row-remove"><path d="M4.477 4.073 C 3.806 4.249,3.238 4.823,3.060 5.508 C 3.010 5.698,3.000 6.123,3.000 8.000 C 3.000 10.455,3.003 10.491,3.225 10.930 C 3.361 11.199,3.801 11.639,4.070 11.775 C 4.540 12.013,4.078 12.000,12.000 12.000 C 19.922 12.000,19.460 12.013,19.930 11.775 C 20.196 11.640,20.638 11.200,20.771 10.937 C 20.996 10.494,21.000 10.442,20.999 8.014 C 20.999 5.601,20.991 5.496,20.781 5.083 C 20.646 4.816,20.297 4.449,20.017 4.281 C 19.525 3.985,20.100 4.005,12.000 4.005 C 5.266 4.005,4.721 4.010,4.477 4.073 M19.000 8.000 L 19.000 10.000 12.000 10.000 L 5.000 10.000 5.000 8.000 L 5.000 6.000 12.000 6.000 L 19.000 6.000 19.000 8.000 M9.626 15.045 C 9.257 15.239,8.951 15.673,8.951 16.000 C 8.951 16.307,9.079 16.487,9.853 17.270 L 10.575 18.000 9.853 18.730 C 9.079 19.513,8.951 19.693,8.951 20.000 C 8.951 20.477,9.523 21.049,10.000 21.049 C 10.307 21.049,10.487 20.921,11.270 20.147 L 12.000 19.425 12.730 20.147 C 13.513 20.921,13.693 21.049,14.000 21.049 C 14.477 21.049,15.049 20.477,15.049 20.000 C 15.049 19.693,14.921 19.513,14.147 18.730 L 13.425 18.000 14.147 17.270 C 14.580 16.832,14.905 16.469,14.959 16.363 C 15.137 16.012,15.048 15.646,14.701 15.299 C 14.360 14.958,13.979 14.868,13.628 15.045 C 13.533 15.094,13.144 15.444,12.730 15.853 L 12.000 16.575 11.270 15.853 C 10.856 15.444,10.467 15.094,10.372 15.045 C 10.152 14.934,9.836 14.934,9.626 15.045 " stroke="none" fill="black" fill-rule="evenodd"></path></svg>