<svg xmlns="http://www.w3.org/2000/svg" width="24" height="24" viewBox="0 0 24 24" fill="none" stroke="currentColor" stroke-width="2" stroke-linecap="round" stroke-linejoin="round" class="icon icon-tabler icons-tabler-outline icon-tabler-vector-bezier-2"><path d="M3.477 2.073 C 2.806 2.249,2.238 2.823,2.060 3.508 C 2.013 3.687,2.000 4.009,2.000 5.000 C 2.000 6.368,2.018 6.521,2.225 6.930 C 2.361 7.199,2.801 7.639,3.070 7.775 C 3.479 7.982,3.632 8.000,5.000 8.000 C 6.368 8.000,6.521 7.982,6.930 7.775 C 7.224 7.626,7.652 7.186,7.793 6.888 L 7.907 6.647 8.130 6.738 C 9.396 7.252,10.431 8.664,10.814 10.400 C 10.927 10.910,10.999 11.591,11.000 12.140 C 11.001 12.588,11.090 13.379,11.195 13.880 C 11.507 15.356,12.096 16.561,13.018 17.610 L 13.361 18.000 12.051 18.000 L 10.740 17.999 10.652 17.870 C 10.072 17.018,8.863 16.751,7.983 17.281 C 7.068 17.831,6.741 18.975,7.225 19.930 C 7.361 20.199,7.801 20.639,8.070 20.775 C 8.653 21.070,9.342 21.073,9.915 20.782 C 10.138 20.670,10.503 20.349,10.644 20.142 L 10.740 20.001 13.370 20.000 L 16.000 20.000 16.000 20.132 C 16.000 20.323,16.104 20.690,16.225 20.930 C 16.361 21.199,16.801 21.639,17.070 21.775 C 17.479 21.982,17.632 22.000,19.000 22.000 C 20.368 22.000,20.521 21.982,20.930 21.775 C 21.196 21.640,21.638 21.200,21.771 20.937 C 21.979 20.527,22.000 20.352,21.999 19.014 C 21.999 17.682,21.974 17.463,21.781 17.083 C 21.551 16.628,21.022 16.203,20.523 16.073 C 20.134 15.972,17.866 15.972,17.477 16.073 C 16.959 16.208,16.427 16.648,16.201 17.125 L 16.093 17.353 15.870 17.262 C 14.601 16.747,13.570 15.340,13.186 13.600 C 13.073 13.090,13.001 12.409,13.000 11.860 C 12.999 11.412,12.910 10.621,12.805 10.120 C 12.492 8.639,11.897 7.427,10.962 6.367 L 10.638 6.000 11.949 6.000 L 13.260 6.001 13.356 6.142 C 13.497 6.349,13.862 6.670,14.085 6.782 C 14.658 7.073,15.347 7.070,15.930 6.775 C 16.196 6.640,16.638 6.200,16.771 5.937 C 17.065 5.358,17.068 4.649,16.781 4.083 C 16.646 3.816,16.297 3.449,16.017 3.281 C 15.137 2.751,13.928 3.018,13.348 3.870 L 13.260 3.999 10.639 4.000 L 8.018 4.000 7.969 3.692 C 7.905 3.287,7.743 2.953,7.471 2.659 C 7.198 2.366,6.872 2.164,6.523 2.073 C 6.134 1.972,3.866 1.972,3.477 2.073 M6.000 5.000 L 6.000 6.000 5.000 6.000 L 4.000 6.000 4.000 5.000 L 4.000 4.000 5.000 4.000 L 6.000 4.000 6.000 5.000 M20.000 19.000 L 20.000 20.000 19.000 20.000 L 18.000 20.000 18.000 19.000 L 18.000 18.000 19.000 18.000 L 20.000 18.000 20.000 19.000 " stroke="none" fill="black" fill-rule="evenodd"></path></svg>