<svg xmlns="http://www.w3.org/2000/svg" width="24" height="24" viewBox="0 0 24 24" fill="none" stroke="currentColor" stroke-width="2" stroke-linecap="round" stroke-linejoin="round" class="icon icon-tabler icons-tabler-outline icon-tabler-square-rounded-letter-c"><path d="M10.349 2.044 C 7.535 2.178,5.738 2.713,4.406 3.814 C 3.787 4.326,3.247 5.075,2.885 5.924 C 2.566 6.671,2.342 7.527,2.205 8.520 C 2.051 9.633,2.021 10.208,2.021 12.000 C 2.021 13.792,2.051 14.367,2.205 15.480 C 2.744 19.396,4.610 21.251,8.560 21.800 C 9.623 21.948,10.220 21.979,12.000 21.979 C 13.780 21.979,14.377 21.948,15.440 21.800 C 16.241 21.689,16.753 21.574,17.401 21.361 C 20.018 20.502,21.344 18.717,21.800 15.440 C 21.948 14.377,21.979 13.780,21.979 12.000 C 21.979 10.220,21.948 9.623,21.800 8.560 C 21.494 6.357,20.759 4.778,19.594 3.814 C 18.657 3.040,17.469 2.539,15.960 2.283 C 14.520 2.039,12.378 1.947,10.349 2.044 M13.500 4.041 C 16.040 4.168,17.512 4.591,18.435 5.458 C 19.509 6.468,19.999 8.517,19.999 12.000 C 19.999 15.490,19.511 17.527,18.430 18.548 C 17.356 19.562,15.410 20.000,11.992 20.000 C 8.581 19.999,6.644 19.561,5.570 18.548 C 4.489 17.527,4.001 15.490,4.001 12.000 C 4.001 10.005,4.176 8.385,4.505 7.320 C 5.052 5.555,6.056 4.719,8.129 4.302 C 9.412 4.045,11.521 3.942,13.500 4.041 M11.499 7.040 C 10.363 7.246,9.461 8.048,9.114 9.160 L 9.020 9.460 9.020 12.000 L 9.020 14.540 9.114 14.840 C 9.422 15.827,10.174 16.579,11.160 16.886 C 11.594 17.021,12.406 17.021,12.840 16.886 C 13.826 16.579,14.582 15.823,14.885 14.840 C 14.959 14.602,14.978 14.445,14.979 14.080 C 14.980 13.662,14.971 13.604,14.880 13.442 C 14.816 13.328,14.709 13.219,14.583 13.142 C 14.399 13.028,14.361 13.020,14.000 13.020 C 13.639 13.020,13.601 13.028,13.417 13.142 C 13.151 13.306,13.045 13.507,13.001 13.929 C 12.982 14.111,12.947 14.311,12.923 14.373 C 12.851 14.561,12.677 14.758,12.484 14.872 C 12.328 14.963,12.254 14.980,12.000 14.980 C 11.746 14.980,11.672 14.963,11.516 14.872 C 11.303 14.747,11.141 14.550,11.058 14.316 C 10.970 14.065,10.972 9.988,11.061 9.690 C 11.173 9.312,11.598 9.000,12.000 9.000 C 12.223 9.000,12.510 9.120,12.679 9.283 C 12.892 9.491,12.958 9.650,13.001 10.067 C 13.068 10.718,13.370 11.000,14.000 11.000 C 14.428 11.000,14.713 10.856,14.880 10.558 C 14.971 10.396,14.980 10.338,14.979 9.920 C 14.978 9.555,14.959 9.398,14.885 9.160 C 14.583 8.182,13.811 7.407,12.861 7.129 C 12.500 7.023,11.832 6.980,11.499 7.040 " stroke="none" fill="black" fill-rule="evenodd"></path></svg>