<svg xmlns="http://www.w3.org/2000/svg" width="24" height="24" viewBox="0 0 24 24" fill="none" stroke="currentColor" stroke-width="2" stroke-linecap="round" stroke-linejoin="round" class="icon icon-tabler icons-tabler-outline icon-tabler-adjustments-off"><path d="M2.626 2.045 C 2.420 2.154,2.146 2.433,2.038 2.644 C 1.924 2.868,1.924 3.133,2.040 3.363 C 2.100 3.481,2.603 4.016,3.565 4.981 L 5.000 6.422 5.000 6.784 L 5.000 7.145 4.670 7.313 C 3.922 7.693,3.365 8.355,3.114 9.160 C 2.979 9.594,2.979 10.406,3.114 10.840 C 3.365 11.645,3.931 12.318,4.670 12.688 L 5.000 12.853 5.000 16.537 C 5.000 18.881,5.015 20.273,5.041 20.365 C 5.148 20.750,5.437 20.962,5.896 20.991 C 6.381 21.022,6.699 20.882,6.880 20.558 L 6.980 20.380 7.000 16.613 L 7.020 12.845 7.340 12.684 C 7.870 12.416,8.388 11.911,8.656 11.400 C 8.806 11.114,8.960 10.651,8.960 10.486 C 8.960 10.396,9.109 10.529,9.980 11.400 L 11.000 12.419 11.000 12.782 L 11.000 13.145 10.670 13.313 C 9.922 13.693,9.365 14.355,9.114 15.160 C 8.979 15.594,8.979 16.406,9.114 16.840 C 9.365 17.645,9.931 18.318,10.670 18.688 L 11.000 18.853 11.000 19.537 C 11.000 19.912,11.019 20.285,11.041 20.365 C 11.148 20.750,11.437 20.962,11.896 20.991 C 12.381 21.022,12.699 20.882,12.880 20.558 C 12.974 20.390,12.981 20.338,13.000 19.613 L 13.020 18.845 13.340 18.684 C 13.870 18.416,14.388 17.911,14.656 17.400 C 14.806 17.114,14.960 16.651,14.960 16.486 C 14.960 16.396,15.109 16.529,15.980 17.400 L 17.000 18.419 17.000 19.320 C 17.000 19.815,17.019 20.285,17.041 20.365 C 17.148 20.750,17.437 20.962,17.896 20.991 C 18.378 21.021,18.700 20.881,18.875 20.565 L 18.969 20.394 19.715 21.132 C 20.164 21.577,20.530 21.905,20.637 21.959 C 20.988 22.137,21.354 22.048,21.701 21.701 C 22.048 21.354,22.137 20.989,21.960 20.637 C 21.888 20.495,20.133 18.667,18.748 17.293 C 18.654 17.199,12.927 11.474,12.760 11.306 C 12.705 11.251,11.355 9.901,9.760 8.306 C 8.165 6.711,6.815 5.361,6.760 5.305 C 5.629 4.156,3.503 2.111,3.372 2.045 C 3.152 1.934,2.835 1.934,2.626 2.045 M11.614 3.057 C 11.377 3.131,11.212 3.261,11.109 3.453 C 11.020 3.619,11.020 3.629,11.009 5.911 C 11.001 7.392,11.012 8.256,11.039 8.355 C 11.144 8.747,11.433 8.961,11.896 8.991 C 12.381 9.022,12.699 8.882,12.880 8.558 L 12.980 8.380 12.980 6.000 L 12.980 3.620 12.891 3.453 C 12.842 3.362,12.746 3.247,12.678 3.199 C 12.414 3.010,11.957 2.950,11.614 3.057 M17.614 3.057 C 17.229 3.178,17.041 3.435,17.009 3.885 L 16.990 4.150 16.665 4.316 C 15.922 4.693,15.364 5.357,15.114 6.160 C 14.979 6.594,14.979 7.406,15.114 7.840 C 15.365 8.645,15.931 9.318,16.670 9.688 L 17.000 9.853 17.000 12.037 C 17.000 13.376,17.016 14.276,17.041 14.365 C 17.148 14.750,17.437 14.962,17.896 14.991 C 18.381 15.022,18.699 14.882,18.880 14.558 L 18.980 14.380 19.000 12.113 L 19.020 9.845 19.340 9.684 C 20.072 9.314,20.637 8.640,20.886 7.840 C 21.021 7.406,21.021 6.594,20.886 6.160 C 20.636 5.357,20.078 4.693,19.335 4.316 L 19.011 4.151 18.988 3.879 C 18.961 3.561,18.853 3.323,18.678 3.199 C 18.414 3.010,17.957 2.950,17.614 3.057 M18.310 6.061 C 18.688 6.173,19.000 6.598,19.000 7.001 C 19.000 7.331,18.784 7.696,18.484 7.872 C 18.328 7.963,18.254 7.980,18.000 7.980 C 17.746 7.980,17.672 7.963,17.516 7.872 C 16.935 7.530,16.833 6.774,17.304 6.303 C 17.583 6.024,17.916 5.944,18.310 6.061 M6.310 9.061 C 6.688 9.173,7.000 9.598,7.000 10.001 C 7.000 10.331,6.784 10.696,6.484 10.872 C 6.328 10.963,6.254 10.980,6.000 10.980 C 5.746 10.980,5.672 10.963,5.516 10.872 C 4.935 10.530,4.833 9.774,5.304 9.303 C 5.583 9.024,5.916 8.944,6.310 9.061 M12.334 15.064 C 12.698 15.188,13.000 15.613,13.000 16.001 C 13.000 16.331,12.784 16.696,12.484 16.872 C 12.328 16.963,12.254 16.980,12.000 16.980 C 11.746 16.980,11.672 16.963,11.516 16.872 C 10.937 16.531,10.833 15.774,11.301 15.306 C 11.587 15.019,11.952 14.934,12.334 15.064 " stroke="none" fill="black" fill-rule="evenodd"></path></svg>