<svg xmlns="http://www.w3.org/2000/svg" width="24" height="24" viewBox="0 0 24 24" fill="none" stroke="currentColor" stroke-width="2" stroke-linecap="round" stroke-linejoin="round" class="icon icon-tabler icons-tabler-outline icon-tabler-device-desktop-analytics"><path d="M3.477 3.073 C 2.806 3.249,2.238 3.823,2.060 4.508 C 2.008 4.705,2.000 5.464,2.000 10.000 C 2.000 15.733,1.990 15.466,2.225 15.930 C 2.361 16.199,2.801 16.639,3.070 16.775 C 3.506 16.996,3.557 17.000,5.868 17.000 L 8.000 17.000 8.000 18.000 L 8.000 19.000 7.406 19.000 C 6.577 19.000,6.300 19.097,6.109 19.453 C 6.035 19.592,6.020 19.684,6.020 20.000 C 6.020 20.331,6.033 20.403,6.120 20.558 C 6.230 20.755,6.414 20.898,6.635 20.959 C 6.834 21.015,17.166 21.015,17.365 20.959 C 17.586 20.898,17.770 20.755,17.880 20.558 C 17.967 20.402,17.980 20.332,17.979 20.000 C 17.978 19.687,17.962 19.591,17.890 19.453 C 17.702 19.097,17.424 19.000,16.594 19.000 L 16.000 19.000 16.000 18.000 L 16.000 17.000 18.132 17.000 C 20.443 17.000,20.494 16.996,20.930 16.775 C 21.196 16.640,21.638 16.200,21.771 15.937 C 22.010 15.466,22.000 15.732,21.999 10.014 C 21.999 4.337,22.006 4.525,21.781 4.083 C 21.646 3.816,21.297 3.449,21.017 3.281 C 20.523 2.983,21.217 3.005,12.000 3.005 C 4.321 3.005,3.721 3.009,3.477 3.073 M20.000 10.000 L 20.000 15.000 12.000 15.000 L 4.000 15.000 4.000 10.000 L 4.000 5.000 12.000 5.000 L 20.000 5.000 20.000 10.000 M8.614 7.057 C 8.377 7.131,8.212 7.261,8.109 7.453 C 8.020 7.619,8.020 7.629,8.009 9.911 C 8.001 11.392,8.012 12.256,8.039 12.355 C 8.144 12.747,8.433 12.961,8.896 12.991 C 9.381 13.022,9.699 12.882,9.880 12.558 L 9.980 12.380 9.980 10.000 L 9.980 7.620 9.891 7.453 C 9.842 7.362,9.746 7.247,9.678 7.199 C 9.414 7.010,8.957 6.950,8.614 7.057 M14.614 9.057 C 14.377 9.131,14.212 9.261,14.109 9.453 C 14.023 9.614,14.020 9.665,14.008 10.908 C 14.000 11.720,14.011 12.254,14.038 12.352 C 14.144 12.747,14.432 12.961,14.896 12.991 C 15.381 13.022,15.699 12.882,15.880 12.558 L 15.980 12.380 15.980 11.000 C 15.980 9.650,15.978 9.616,15.891 9.453 C 15.842 9.362,15.746 9.247,15.678 9.199 C 15.414 9.010,14.957 8.950,14.614 9.057 M11.640 10.035 C 11.097 10.213,11.000 10.434,11.000 11.500 C 11.000 12.326,11.040 12.528,11.247 12.746 C 11.580 13.095,12.454 13.077,12.786 12.714 C 12.958 12.526,13.000 12.291,13.000 11.509 C 13.000 11.108,12.981 10.715,12.959 10.635 C 12.847 10.232,12.558 10.031,12.062 10.014 C 11.885 10.007,11.695 10.017,11.640 10.035 M14.000 18.000 L 14.000 19.000 12.000 19.000 L 10.000 19.000 10.000 18.000 L 10.000 17.000 12.000 17.000 L 14.000 17.000 14.000 18.000 " stroke="none" fill="black" fill-rule="evenodd"></path></svg>