<svg xmlns="http://www.w3.org/2000/svg" width="24" height="24" viewBox="0 0 24 24" fill="none" stroke="currentColor" stroke-width="2" stroke-linecap="round" stroke-linejoin="round" class="icon icon-tabler icons-tabler-outline icon-tabler-pentagon-number-3"><path d="M11.340 0.865 C 11.186 0.897,10.907 1.000,10.720 1.093 C 10.300 1.302,2.269 7.122,1.888 7.494 C 1.447 7.924,1.193 8.393,1.064 9.018 C 0.983 9.411,0.983 9.760,1.063 10.152 C 1.168 10.662,4.267 20.142,4.432 20.460 C 4.535 20.656,4.686 20.848,4.939 21.101 C 5.342 21.504,5.660 21.708,6.140 21.871 L 6.460 21.980 12.000 21.980 L 17.540 21.980 17.860 21.871 C 18.340 21.708,18.658 21.504,19.061 21.101 C 19.314 20.848,19.465 20.656,19.568 20.460 C 19.733 20.143,22.831 10.663,22.936 10.152 C 23.135 9.187,22.816 8.173,22.094 7.474 C 21.717 7.110,13.682 1.293,13.280 1.093 C 12.715 0.812,11.997 0.728,11.340 0.865 M12.403 2.890 C 12.660 3.021,20.640 8.824,20.769 8.974 C 20.922 9.152,21.015 9.449,20.988 9.675 C 20.954 9.956,17.867 19.415,17.755 19.580 C 17.642 19.748,17.426 19.907,17.237 19.961 C 17.051 20.014,6.949 20.014,6.763 19.961 C 6.556 19.901,6.326 19.724,6.221 19.543 C 6.103 19.339,3.043 9.928,3.012 9.675 C 2.985 9.449,3.078 9.152,3.231 8.974 C 3.360 8.824,11.340 3.021,11.597 2.890 C 11.836 2.768,12.164 2.768,12.403 2.890 M9.614 7.057 C 9.377 7.131,9.212 7.261,9.109 7.453 C 9.035 7.592,9.020 7.684,9.020 8.000 C 9.020 8.331,9.033 8.403,9.120 8.558 C 9.230 8.755,9.414 8.898,9.635 8.959 C 9.720 8.983,10.373 9.000,11.200 9.000 C 12.538 9.000,12.627 9.005,12.748 9.078 C 12.970 9.214,13.000 9.324,13.000 10.008 C 13.000 10.544,12.990 10.636,12.922 10.748 C 12.778 10.984,12.701 11.000,11.708 11.000 C 10.756 11.000,10.562 11.028,10.322 11.199 C 10.100 11.357,10.020 11.568,10.020 12.000 C 10.020 12.331,10.033 12.403,10.120 12.558 C 10.230 12.755,10.414 12.898,10.635 12.959 C 10.715 12.981,11.190 13.000,11.692 13.000 C 12.703 13.000,12.777 13.015,12.922 13.252 C 12.990 13.364,13.000 13.456,13.000 13.992 C 13.000 14.676,12.970 14.786,12.748 14.922 C 12.627 14.995,12.538 15.000,11.216 15.000 C 9.723 15.000,9.580 15.015,9.322 15.199 C 9.100 15.357,9.020 15.568,9.020 16.000 C 9.020 16.331,9.033 16.403,9.120 16.558 C 9.233 16.759,9.417 16.900,9.649 16.963 C 9.752 16.990,10.368 17.000,11.413 16.992 L 13.020 16.979 13.320 16.869 C 14.039 16.605,14.601 16.043,14.869 15.320 C 14.980 15.021,14.980 15.016,14.980 14.000 C 14.980 12.987,14.979 12.978,14.870 12.684 C 14.810 12.521,14.705 12.301,14.636 12.194 L 14.512 12.000 14.636 11.806 C 14.705 11.699,14.810 11.479,14.870 11.316 C 14.979 11.022,14.980 11.013,14.980 10.000 C 14.980 8.985,14.979 8.978,14.869 8.680 C 14.643 8.064,14.194 7.561,13.620 7.277 C 13.100 7.020,12.941 7.001,11.260 7.003 C 10.162 7.005,9.737 7.019,9.614 7.057 " stroke="none" fill="black" fill-rule="evenodd"></path></svg>