<svg xmlns="http://www.w3.org/2000/svg" width="24" height="24" viewBox="0 0 24 24" fill="none" stroke="currentColor" stroke-width="2" stroke-linecap="round" stroke-linejoin="round" class="icon icon-tabler icons-tabler-outline icon-tabler-torii"><path d="M3.494 3.082 C 3.194 3.231,3.002 3.624,2.995 4.105 C 2.991 4.403,3.098 4.626,3.317 4.777 C 3.473 4.885,3.901 5.016,4.570 5.161 L 5.000 5.255 5.000 6.128 L 5.000 7.000 4.406 7.000 C 3.577 7.000,3.300 7.097,3.109 7.453 C 3.035 7.592,3.020 7.684,3.020 8.000 C 3.020 8.331,3.033 8.403,3.120 8.558 C 3.230 8.755,3.414 8.898,3.635 8.959 C 3.715 8.981,4.054 9.000,4.390 9.000 L 5.000 9.000 5.000 14.610 C 5.000 18.245,5.015 20.271,5.041 20.365 C 5.148 20.750,5.437 20.962,5.896 20.991 C 6.381 21.022,6.699 20.882,6.880 20.558 L 6.980 20.380 6.991 14.690 L 7.001 9.000 12.001 9.000 L 17.000 9.000 17.000 14.610 C 17.000 18.245,17.015 20.271,17.041 20.365 C 17.148 20.750,17.437 20.962,17.896 20.991 C 18.381 21.022,18.699 20.882,18.880 20.558 L 18.980 20.380 18.991 14.690 L 19.001 9.000 19.611 9.000 C 19.946 9.000,20.285 8.981,20.365 8.959 C 20.586 8.898,20.770 8.755,20.880 8.558 C 20.967 8.402,20.980 8.332,20.979 8.000 C 20.978 7.687,20.962 7.591,20.890 7.453 C 20.702 7.097,20.424 7.000,19.594 7.000 L 19.000 7.000 19.000 6.128 L 19.000 5.255 19.430 5.161 C 20.746 4.875,21.000 4.705,21.000 4.111 C 21.000 3.626,20.809 3.229,20.503 3.081 C 20.262 2.965,19.975 2.978,19.311 3.136 C 17.741 3.510,16.038 3.774,14.200 3.928 C 13.380 3.996,10.620 3.996,9.800 3.928 C 7.962 3.774,6.259 3.510,4.689 3.136 C 4.023 2.977,3.732 2.964,3.494 3.082 M7.420 5.679 C 8.102 5.789,9.936 5.960,10.439 5.960 C 10.583 5.961,10.768 5.972,10.850 5.986 L 11.000 6.010 11.000 6.505 L 11.000 7.000 9.000 7.000 L 7.000 7.000 7.000 6.320 C 7.000 5.541,6.958 5.605,7.420 5.679 M17.000 6.320 L 17.000 7.000 15.000 7.000 L 13.000 7.000 13.000 6.505 L 13.000 6.010 13.150 5.986 C 13.232 5.972,13.417 5.961,13.561 5.960 C 14.058 5.960,15.939 5.784,16.540 5.683 C 16.650 5.665,16.799 5.647,16.870 5.645 L 17.000 5.640 17.000 6.320 " stroke="none" fill="black" fill-rule="evenodd"></path></svg>