<svg xmlns="http://www.w3.org/2000/svg" width="24" height="24" viewBox="0 0 24 24" fill="none" stroke="currentColor" stroke-width="2" stroke-linecap="round" stroke-linejoin="round" class="icon icon-tabler icons-tabler-outline icon-tabler-masks-theater-off"><path d="M2.626 2.045 C 2.420 2.154,2.146 2.433,2.038 2.644 C 1.886 2.942,1.939 3.275,2.189 3.590 C 2.260 3.679,2.258 3.683,2.020 3.936 C 1.491 4.499,1.202 5.216,1.201 5.971 C 1.200 6.143,1.335 7.746,1.500 9.535 C 1.737 12.114,1.819 12.865,1.895 13.163 C 2.152 14.173,2.570 14.892,3.320 15.616 C 4.073 16.341,4.956 16.772,6.047 16.945 C 6.549 17.024,8.809 17.006,9.051 16.920 C 9.313 16.826,9.511 16.623,9.585 16.370 C 9.688 16.015,9.609 15.512,9.414 15.280 C 9.196 15.021,9.203 15.022,7.620 14.997 C 6.264 14.976,6.164 14.969,5.900 14.883 C 4.741 14.506,3.938 13.563,3.784 12.400 C 3.737 12.047,3.200 6.106,3.200 5.942 C 3.200 5.729,3.362 5.402,3.549 5.238 L 3.692 5.112 4.646 6.066 C 5.171 6.590,5.599 7.029,5.598 7.040 C 5.597 7.051,5.521 7.097,5.428 7.143 C 5.121 7.293,4.978 7.621,5.009 8.104 C 5.049 8.731,5.422 9.035,6.100 8.991 C 6.515 8.964,6.811 8.787,6.919 8.502 L 6.964 8.384 8.600 10.022 L 10.236 11.660 10.518 14.724 C 10.740 17.142,10.820 17.867,10.895 18.164 C 11.152 19.173,11.570 19.892,12.320 20.616 C 13.073 21.342,13.956 21.772,15.049 21.945 C 15.360 21.994,15.689 22.003,16.689 21.989 C 17.774 21.974,17.988 21.960,18.300 21.888 C 18.779 21.777,19.061 21.676,19.493 21.460 L 19.852 21.281 20.163 21.578 C 20.334 21.742,20.551 21.915,20.645 21.962 C 20.987 22.137,21.356 22.046,21.701 21.701 C 22.048 21.354,22.137 20.989,21.960 20.637 C 21.900 20.517,21.211 19.793,19.814 18.380 C 18.683 17.236,17.694 16.237,17.617 16.160 C 17.539 16.083,16.257 14.801,14.768 13.312 C 13.279 11.823,11.991 10.536,11.908 10.452 C 9.809 8.356,4.771 3.316,4.707 3.249 C 4.349 2.875,3.500 2.111,3.367 2.043 C 3.153 1.934,2.834 1.935,2.626 2.045 M7.614 3.056 C 7.376 3.132,7.212 3.262,7.109 3.453 C 7.035 3.592,7.020 3.684,7.020 4.000 C 7.020 4.331,7.033 4.403,7.120 4.558 C 7.230 4.755,7.414 4.898,7.635 4.959 C 7.721 4.983,8.437 5.000,9.380 5.002 C 11.101 5.004,11.146 5.008,11.419 5.217 C 11.652 5.394,11.767 5.638,11.803 6.028 C 11.844 6.474,11.955 6.696,12.219 6.860 C 12.400 6.972,12.441 6.980,12.797 6.980 C 13.094 6.980,13.211 6.963,13.320 6.905 C 13.670 6.719,13.800 6.457,13.800 5.935 C 13.800 5.036,13.368 4.188,12.622 3.623 C 12.295 3.374,12.051 3.246,11.660 3.116 C 11.386 3.026,11.340 3.024,9.580 3.013 C 8.163 3.005,7.745 3.014,7.614 3.056 M12.614 8.057 C 12.222 8.181,12.039 8.436,12.009 8.900 C 11.978 9.381,12.119 9.699,12.442 9.880 L 12.620 9.980 16.363 10.000 L 20.106 10.020 20.303 10.141 C 20.541 10.288,20.746 10.577,20.782 10.820 C 20.799 10.931,20.699 12.196,20.516 14.196 C 20.228 17.348,20.225 17.397,20.291 17.609 C 20.371 17.861,20.550 18.052,20.785 18.135 C 21.443 18.367,22.029 18.152,22.180 17.623 C 22.211 17.511,22.366 16.025,22.523 14.320 C 22.834 10.939,22.844 10.667,22.679 10.140 C 22.425 9.325,21.864 8.672,21.100 8.302 C 20.492 8.007,20.766 8.024,16.560 8.014 C 13.521 8.006,12.747 8.014,12.614 8.057 M7.154 10.525 C 6.741 10.559,6.339 10.686,5.863 10.933 C 5.209 11.274,4.960 11.554,4.960 11.946 C 4.961 12.304,5.271 12.792,5.606 12.963 C 5.882 13.104,6.081 13.071,6.625 12.795 C 7.230 12.489,7.461 12.457,8.040 12.602 C 8.522 12.723,8.695 12.686,8.966 12.406 C 9.247 12.116,9.396 11.566,9.278 11.253 C 9.091 10.759,8.165 10.441,7.154 10.525 M17.614 12.055 C 17.220 12.184,17.039 12.437,17.009 12.900 C 16.978 13.381,17.119 13.699,17.442 13.880 C 17.597 13.967,17.669 13.980,18.000 13.980 C 18.312 13.980,18.408 13.964,18.540 13.894 C 18.866 13.718,19.000 13.459,19.000 13.000 C 19.000 12.357,18.713 12.048,18.083 12.016 C 17.893 12.006,17.718 12.021,17.614 12.055 M14.291 15.777 C 14.277 15.801,14.226 15.874,14.177 15.940 C 13.853 16.377,13.901 16.899,14.294 17.215 C 14.817 17.636,15.586 17.937,16.266 17.987 L 16.592 18.011 17.483 18.903 L 18.373 19.794 18.077 19.887 C 17.792 19.976,17.729 19.980,16.500 19.980 C 15.270 19.980,15.208 19.976,14.920 19.886 C 14.089 19.627,13.444 19.083,13.058 18.317 C 12.820 17.843,12.805 17.745,12.565 15.088 L 12.456 13.877 13.386 14.806 C 13.897 15.317,14.304 15.754,14.291 15.777 " stroke="none" fill="black" fill-rule="evenodd"></path></svg>