<svg xmlns="http://www.w3.org/2000/svg" width="24" height="24" viewBox="0 0 24 24" fill="none" stroke="currentColor" stroke-width="2" stroke-linecap="round" stroke-linejoin="round" class="icon icon-tabler icons-tabler-outline icon-tabler-brand-framer-motion"><path d="M3.660 3.027 C 3.436 3.147,3.239 3.327,3.129 3.514 L 3.020 3.700 3.010 11.954 C 3.003 17.404,3.013 20.259,3.040 20.358 C 3.100 20.584,3.243 20.769,3.442 20.880 C 3.593 20.965,3.671 20.980,3.960 20.980 C 4.213 20.979,4.336 20.960,4.440 20.905 C 4.517 20.865,5.349 20.064,6.290 19.127 L 8.000 17.422 9.730 19.146 C 10.908 20.321,11.517 20.900,11.637 20.960 C 11.868 21.076,12.132 21.076,12.363 20.960 C 12.483 20.900,13.092 20.321,14.270 19.146 L 16.000 17.422 17.710 19.127 C 18.651 20.064,19.482 20.863,19.558 20.901 C 19.634 20.939,19.805 20.979,19.938 20.990 C 20.374 21.024,20.703 20.874,20.880 20.558 L 20.980 20.380 21.006 16.220 C 21.020 13.932,21.031 12.033,21.031 12.000 C 21.031 11.967,21.020 10.086,21.006 7.820 L 20.980 3.700 20.871 3.514 C 20.591 3.039,20.049 2.834,19.628 3.044 C 19.514 3.101,18.263 4.324,15.730 6.853 L 12.000 10.579 8.270 6.853 C 5.737 4.324,4.486 3.101,4.372 3.044 C 4.168 2.942,3.834 2.935,3.660 3.027 M7.790 14.790 L 5.000 17.580 5.000 12.000 L 5.000 6.420 7.790 9.210 L 10.580 12.000 7.790 14.790 M15.500 15.080 L 12.000 18.580 10.710 17.290 L 9.420 16.000 14.200 11.220 L 18.980 6.440 18.990 9.010 L 19.001 11.579 15.500 15.080 M19.000 16.010 L 19.000 17.580 18.210 16.790 L 17.421 16.000 18.200 15.220 C 18.629 14.791,18.984 14.440,18.990 14.440 C 18.995 14.440,19.000 15.146,19.000 16.010 " stroke="none" fill="black" fill-rule="evenodd"></path></svg>