<svg xmlns="http://www.w3.org/2000/svg" width="24" height="24" viewBox="0 0 24 24" fill="none" stroke="currentColor" stroke-width="2" stroke-linecap="round" stroke-linejoin="round" class="icon icon-tabler icons-tabler-outline icon-tabler-signal-h-plus"><path d="M6.614 7.057 C 6.377 7.131,6.212 7.261,6.109 7.453 L 6.020 7.620 6.009 11.913 C 6.002 14.727,6.013 16.258,6.039 16.357 C 6.144 16.747,6.434 16.961,6.896 16.991 C 7.381 17.022,7.699 16.882,7.880 16.558 L 7.980 16.380 7.992 14.690 L 8.004 13.000 9.002 13.000 L 10.000 13.000 10.000 14.610 C 10.000 15.565,10.017 16.279,10.041 16.365 C 10.148 16.750,10.437 16.962,10.896 16.991 C 11.381 17.022,11.699 16.882,11.880 16.558 L 11.980 16.380 11.980 12.000 L 11.980 7.620 11.889 7.450 C 11.724 7.140,11.329 6.970,10.874 7.011 C 10.439 7.051,10.141 7.274,10.041 7.635 C 10.017 7.721,10.000 8.435,10.000 9.390 L 10.000 11.000 9.002 11.000 L 8.004 11.000 7.992 9.310 C 7.980 7.651,7.978 7.617,7.891 7.453 C 7.842 7.362,7.746 7.247,7.678 7.199 C 7.414 7.010,6.957 6.950,6.614 7.057 M15.614 9.057 C 15.377 9.131,15.212 9.261,15.109 9.453 C 15.029 9.603,15.019 9.689,15.007 10.310 L 14.993 11.000 14.403 11.000 C 13.577 11.000,13.299 11.097,13.109 11.453 C 13.035 11.592,13.020 11.684,13.020 12.000 C 13.020 12.331,13.033 12.403,13.120 12.558 C 13.230 12.755,13.414 12.898,13.635 12.959 C 13.715 12.981,14.055 13.000,14.390 13.000 L 15.000 13.000 15.000 13.610 C 15.000 13.945,15.019 14.285,15.041 14.365 C 15.148 14.750,15.437 14.962,15.896 14.991 C 16.381 15.022,16.699 14.882,16.880 14.558 C 16.974 14.391,16.981 14.338,16.994 13.690 L 17.008 13.000 17.614 13.000 C 17.947 13.000,18.285 12.981,18.365 12.959 C 18.586 12.898,18.770 12.755,18.880 12.558 C 18.967 12.402,18.980 12.332,18.979 12.000 C 18.978 11.687,18.962 11.591,18.890 11.453 C 18.702 11.098,18.423 11.000,17.598 11.000 L 17.008 11.000 16.993 10.310 C 16.976 9.541,16.930 9.378,16.678 9.199 C 16.414 9.010,15.957 8.950,15.614 9.057 " stroke="none" fill="black" fill-rule="evenodd"></path></svg>