<svg xmlns="http://www.w3.org/2000/svg" width="24" height="24" viewBox="0 0 24 24" fill="none" stroke="currentColor" stroke-width="2" stroke-linecap="round" stroke-linejoin="round" class="icon icon-tabler icons-tabler-outline icon-tabler-gender-intergender"><path d="M8.380 3.043 C 5.784 3.299,3.681 5.215,3.114 7.840 C 2.984 8.446,2.984 9.554,3.114 10.160 C 3.638 12.587,5.417 14.365,7.840 14.885 C 8.190 14.960,8.383 14.975,9.000 14.975 C 9.803 14.975,10.253 14.907,10.876 14.693 L 11.171 14.591 12.874 16.295 L 14.578 17.998 13.854 18.729 C 13.079 19.513,12.951 19.692,12.951 20.000 C 12.951 20.477,13.523 21.049,14.000 21.049 C 14.307 21.049,14.487 20.921,15.270 20.147 L 16.000 19.425 16.730 20.147 C 17.168 20.580,17.531 20.905,17.637 20.959 C 17.988 21.137,18.354 21.048,18.701 20.701 C 19.048 20.354,19.137 19.990,18.961 19.637 C 18.898 19.513,17.995 18.581,15.908 16.491 L 12.944 13.522 13.233 13.233 L 13.522 12.944 16.491 15.908 C 18.581 17.995,19.513 18.898,19.637 18.961 C 20.056 19.170,20.589 18.965,20.871 18.486 L 20.980 18.300 20.980 15.960 L 20.980 13.620 20.889 13.450 C 20.724 13.140,20.329 12.970,19.874 13.011 C 19.439 13.051,19.141 13.274,19.041 13.635 C 19.019 13.715,19.000 14.185,19.000 14.680 L 19.000 15.580 16.796 13.376 L 14.591 11.171 14.693 10.876 C 14.907 10.253,14.975 9.803,14.975 9.000 C 14.975 8.383,14.960 8.190,14.885 7.840 C 14.626 6.631,14.109 5.660,13.269 4.805 C 11.978 3.490,10.230 2.860,8.380 3.043 M9.605 5.058 C 11.074 5.280,12.310 6.324,12.797 7.755 C 12.897 8.050,13.000 8.680,13.000 9.000 C 13.000 9.322,12.897 9.951,12.796 10.245 C 12.321 11.632,11.195 12.628,9.773 12.917 C 7.563 13.368,5.396 11.845,5.058 9.605 C 4.986 9.121,4.986 8.879,5.058 8.395 C 5.314 6.698,6.675 5.324,8.358 5.061 C 8.816 4.990,9.144 4.989,9.605 5.058 " stroke="none" fill="black" fill-rule="evenodd"></path></svg>