<svg xmlns="http://www.w3.org/2000/svg" width="24" height="24" viewBox="0 0 24 24" fill="none" stroke="currentColor" stroke-width="2" stroke-linecap="round" stroke-linejoin="round" class="icon icon-tabler icons-tabler-outline icon-tabler-ballpen-off"><path d="M2.626 2.045 C 2.420 2.154,2.146 2.433,2.038 2.644 C 1.924 2.867,1.924 3.132,2.039 3.363 C 2.102 3.488,3.074 4.487,5.353 6.770 L 8.578 9.999 6.715 11.870 C 4.664 13.929,4.514 14.110,4.242 14.849 C 4.058 15.349,4.023 15.563,4.022 16.180 C 4.022 16.851,4.078 17.125,4.347 17.753 L 4.490 18.086 3.810 18.773 C 3.080 19.511,2.951 19.696,2.951 20.000 C 2.951 20.477,3.523 21.049,4.000 21.049 C 4.304 21.049,4.489 20.920,5.227 20.190 L 5.914 19.510 6.253 19.656 C 6.858 19.916,7.144 19.974,7.820 19.976 C 8.438 19.977,8.648 19.943,9.151 19.758 C 9.890 19.486,10.071 19.336,12.130 17.285 L 14.001 15.422 17.230 18.647 C 19.513 20.926,20.512 21.898,20.637 21.961 C 20.990 22.137,21.355 22.048,21.701 21.701 C 22.047 21.355,22.136 20.990,21.961 20.637 C 21.839 20.392,3.616 2.165,3.372 2.044 C 3.152 1.934,2.834 1.935,2.626 2.045 M17.311 2.041 C 16.869 2.116,16.405 2.321,16.020 2.613 C 15.618 2.918,11.142 7.434,11.040 7.637 C 10.863 7.990,10.952 8.354,11.299 8.701 C 11.646 9.048,12.012 9.137,12.363 8.959 C 12.469 8.905,12.832 8.580,13.271 8.146 L 14.002 7.422 15.290 8.710 L 16.578 9.998 15.854 10.729 C 15.079 11.513,14.951 11.692,14.951 12.000 C 14.951 12.477,15.523 13.049,16.000 13.049 C 16.308 13.049,16.487 12.921,17.271 12.146 L 18.002 11.422 18.790 12.210 L 19.578 12.998 18.854 13.729 C 18.079 14.513,17.951 14.692,17.951 15.000 C 17.951 15.477,18.523 16.049,19.000 16.049 C 19.334 16.049,19.468 15.943,20.706 14.706 C 21.943 13.468,22.049 13.334,22.049 13.000 C 22.049 12.667,21.944 12.533,20.648 11.231 L 19.424 10.002 20.422 8.991 C 21.072 8.333,21.467 7.900,21.554 7.751 C 21.959 7.061,22.090 6.313,21.937 5.572 C 21.778 4.801,21.583 4.514,20.473 3.416 C 19.571 2.524,19.315 2.330,18.817 2.165 C 18.354 2.011,17.775 1.963,17.311 2.041 M18.283 4.120 C 18.517 4.238,19.759 5.479,19.884 5.720 C 20.012 5.966,20.015 6.390,19.892 6.620 C 19.844 6.708,19.399 7.185,18.903 7.680 L 18.000 8.580 16.710 7.290 L 15.420 6.000 16.320 5.097 C 17.174 4.241,17.324 4.112,17.560 4.035 C 17.724 3.981,18.093 4.025,18.283 4.120 M11.300 12.720 L 12.580 14.000 10.766 15.814 C 9.637 16.943,8.875 17.674,8.746 17.752 C 7.412 18.557,5.721 17.330,6.045 15.792 C 6.152 15.280,6.159 15.272,8.134 13.290 C 9.148 12.273,9.988 11.440,9.999 11.440 C 10.011 11.440,10.596 12.016,11.300 12.720 " stroke="none" fill="black" fill-rule="evenodd"></path></svg>