<svg xmlns="http://www.w3.org/2000/svg" width="24" height="24" viewBox="0 0 24 24" fill="none" stroke="currentColor" stroke-width="2" stroke-linecap="round" stroke-linejoin="round" class="icon icon-tabler icons-tabler-outline icon-tabler-eye-exclamation"><path d="M11.160 5.043 C 7.815 5.297,4.962 7.199,2.619 10.738 C 2.100 11.523,2.001 11.724,2.001 12.000 C 2.001 12.276,2.100 12.477,2.619 13.262 C 4.375 15.914,6.415 17.651,8.699 18.438 C 9.942 18.866,11.017 19.029,12.320 18.987 C 13.375 18.953,14.170 18.814,15.132 18.495 C 15.614 18.335,15.851 18.181,15.972 17.947 C 16.180 17.543,15.936 16.787,15.516 16.540 C 15.311 16.420,14.993 16.442,14.426 16.618 C 11.755 17.444,9.123 16.925,6.900 15.132 C 6.437 14.758,5.580 13.892,5.188 13.400 C 4.894 13.030,4.320 12.235,4.244 12.090 C 4.185 11.977,4.198 11.952,4.605 11.380 C 5.092 10.695,5.417 10.304,5.980 9.725 C 6.846 8.835,7.662 8.233,8.615 7.781 C 9.786 7.225,10.690 7.023,12.000 7.023 C 13.310 7.023,14.214 7.225,15.385 7.781 C 16.920 8.509,18.341 9.818,19.576 11.639 C 19.732 11.869,19.799 12.005,19.785 12.059 C 19.774 12.104,19.743 12.221,19.718 12.320 C 19.646 12.599,19.720 12.814,19.974 13.061 C 20.582 13.654,21.157 13.595,21.623 12.893 C 22.036 12.271,22.094 11.968,21.882 11.549 C 21.724 11.238,21.071 10.256,20.671 9.729 C 19.313 7.937,17.629 6.540,15.960 5.818 C 14.465 5.172,12.866 4.914,11.160 5.043 M11.499 9.040 C 10.363 9.246,9.460 10.049,9.114 11.160 C 8.979 11.594,8.979 12.406,9.114 12.840 C 9.421 13.826,10.174 14.579,11.160 14.886 C 11.594 15.021,12.406 15.021,12.840 14.886 C 13.826 14.579,14.579 13.826,14.886 12.840 C 15.021 12.406,15.021 11.594,14.886 11.160 C 14.581 10.179,13.810 9.407,12.861 9.129 C 12.500 9.023,11.832 8.980,11.499 9.040 M12.310 11.061 C 12.688 11.173,13.000 11.598,13.000 12.001 C 13.000 12.331,12.784 12.696,12.484 12.872 C 12.328 12.963,12.254 12.980,12.000 12.980 C 11.746 12.980,11.672 12.963,11.516 12.872 C 10.935 12.530,10.833 11.774,11.304 11.303 C 11.583 11.024,11.916 10.944,12.310 11.061 M18.614 15.057 C 18.377 15.131,18.212 15.261,18.109 15.453 C 18.021 15.618,18.020 15.647,18.008 17.410 C 18.001 18.557,18.012 19.255,18.038 19.354 C 18.144 19.747,18.433 19.961,18.896 19.991 C 19.381 20.022,19.699 19.882,19.880 19.558 L 19.980 19.380 19.980 17.500 C 19.980 15.633,19.979 15.619,19.891 15.453 C 19.842 15.362,19.746 15.247,19.678 15.199 C 19.414 15.010,18.957 14.950,18.614 15.057 M18.614 21.057 C 18.221 21.180,18.039 21.435,18.009 21.906 C 17.962 22.621,18.306 23.000,19.000 23.000 C 19.698 23.000,20.043 22.616,19.989 21.900 C 19.963 21.563,19.859 21.327,19.678 21.199 C 19.414 21.010,18.957 20.950,18.614 21.057 " stroke="none" fill="black" fill-rule="evenodd"></path></svg>