<svg xmlns="http://www.w3.org/2000/svg" width="24" height="24" viewBox="0 0 24 24" fill="none" stroke="currentColor" stroke-width="2" stroke-linecap="round" stroke-linejoin="round" class="icon icon-tabler icons-tabler-outline icon-tabler-brand-gravatar"><path d="M11.649 2.039 C 11.442 2.088,11.209 2.266,11.111 2.450 L 11.020 2.620 11.020 6.863 L 11.020 11.106 11.140 11.301 C 11.319 11.590,11.555 11.700,12.000 11.700 C 12.445 11.700,12.681 11.590,12.860 11.301 L 12.980 11.106 12.991 7.590 L 13.002 4.073 13.211 4.100 C 13.468 4.134,14.136 4.291,14.460 4.394 C 16.488 5.037,18.219 6.541,19.176 8.491 C 20.492 11.172,20.196 14.362,18.406 16.774 C 16.549 19.279,13.358 20.478,10.320 19.814 C 8.173 19.345,6.338 18.045,5.191 16.180 C 3.466 13.377,3.643 9.782,5.634 7.167 C 5.763 6.998,6.018 6.698,6.200 6.500 C 6.566 6.102,6.687 5.882,6.687 5.615 C 6.687 5.140,6.125 4.591,5.640 4.591 C 5.281 4.591,4.959 4.836,4.315 5.600 C 2.583 7.654,1.736 10.523,2.077 13.180 C 2.289 14.838,2.788 16.191,3.680 17.531 C 6.727 22.108,12.879 23.374,17.463 20.367 C 18.131 19.928,18.503 19.624,19.081 19.044 C 19.628 18.494,19.968 18.077,20.371 17.460 C 22.138 14.754,22.484 11.361,21.300 8.335 C 20.061 5.166,17.169 2.778,13.845 2.180 C 12.960 2.021,11.989 1.959,11.649 2.039 " stroke="none" fill="black" fill-rule="evenodd"></path></svg>