<svg xmlns="http://www.w3.org/2000/svg" width="24" height="24" viewBox="0 0 24 24" fill="none" stroke="currentColor" stroke-width="2" stroke-linecap="round" stroke-linejoin="round" class="icon icon-tabler icons-tabler-outline icon-tabler-flask"><path d="M8.614 2.057 C 8.223 2.180,8.039 2.436,8.009 2.900 C 7.968 3.532,8.251 3.922,8.797 3.987 L 9.000 4.011 9.000 6.416 L 9.000 8.821 6.978 14.379 C 5.603 18.160,4.949 20.009,4.934 20.160 C 4.863 20.835,5.266 21.533,5.908 21.847 L 6.180 21.980 12.000 21.980 L 17.820 21.980 18.092 21.847 C 18.734 21.533,19.137 20.835,19.066 20.160 C 19.051 20.009,18.397 18.160,17.022 14.379 L 15.000 8.821 15.000 6.416 L 15.000 4.011 15.197 3.988 C 15.539 3.947,15.754 3.805,15.904 3.520 C 16.018 3.305,16.009 2.679,15.890 2.453 C 15.786 2.256,15.623 2.131,15.371 2.055 C 15.109 1.977,8.866 1.979,8.614 2.057 M13.000 6.000 L 13.000 8.000 12.000 8.000 L 11.000 8.000 11.000 6.000 L 11.000 4.000 12.000 4.000 L 13.000 4.000 13.000 6.000 M15.097 14.950 C 16.085 17.673,16.902 19.922,16.911 19.950 C 16.925 19.990,15.925 20.000,12.000 20.000 C 8.075 20.000,7.075 19.990,7.089 19.950 C 7.098 19.922,7.915 17.673,8.903 14.950 L 10.700 10.000 12.000 10.000 L 13.300 10.000 15.097 14.950 " stroke="none" fill="black" fill-rule="evenodd"></path></svg>