<svg xmlns="http://www.w3.org/2000/svg" width="24" height="24" viewBox="0 0 24 24" fill="none" stroke="currentColor" stroke-width="2" stroke-linecap="round" stroke-linejoin="round" class="icon icon-tabler icons-tabler-outline icon-tabler-device-mobile-pin"><path d="M7.499 2.043 C 6.379 2.234,5.461 3.048,5.114 4.160 L 5.020 4.460 5.020 12.000 L 5.020 19.540 5.114 19.840 C 5.418 20.816,6.152 21.556,7.140 21.885 C 7.420 21.978,7.422 21.978,10.020 21.992 C 12.873 22.007,12.943 22.003,13.189 21.787 C 13.401 21.601,13.486 21.376,13.486 21.003 C 13.486 20.656,13.418 20.446,13.248 20.267 C 13.006 20.012,13.112 20.022,10.280 20.000 L 7.700 19.980 7.516 19.872 C 7.415 19.813,7.284 19.700,7.225 19.623 C 6.986 19.309,7.000 19.795,7.000 12.022 C 7.000 4.006,6.975 4.631,7.303 4.303 C 7.584 4.022,7.703 4.000,8.942 4.000 L 9.989 4.000 10.013 4.203 C 10.058 4.583,10.288 4.863,10.635 4.959 C 10.826 5.012,13.174 5.012,13.365 4.959 C 13.712 4.863,13.935 4.593,13.983 4.210 L 14.009 4.000 15.057 4.000 C 16.297 4.000,16.416 4.022,16.697 4.303 C 17.012 4.618,17.000 4.468,17.000 8.057 C 17.000 10.053,17.015 11.273,17.041 11.365 C 17.148 11.750,17.437 11.962,17.896 11.991 C 18.381 12.022,18.699 11.882,18.880 11.558 L 18.980 11.380 18.980 7.920 L 18.980 4.460 18.886 4.160 C 18.581 3.182,17.832 2.428,16.861 2.121 L 16.540 2.020 12.120 2.014 C 9.689 2.011,7.609 2.024,7.499 2.043 M18.340 14.060 C 17.913 14.130,17.642 14.217,17.275 14.399 C 16.236 14.915,15.537 15.720,15.185 16.807 C 14.791 18.021,15.052 19.450,15.851 20.460 C 16.273 20.993,18.165 22.676,18.610 22.914 C 18.892 23.065,19.097 23.072,19.373 22.941 C 19.537 22.863,20.661 21.912,21.461 21.175 C 22.256 20.442,22.645 19.846,22.868 19.015 C 22.962 18.669,22.975 18.543,22.976 18.000 C 22.977 17.486,22.962 17.325,22.890 17.059 C 22.555 15.825,21.863 14.972,20.736 14.406 C 20.015 14.045,19.175 13.924,18.340 14.060 M11.614 16.057 C 11.221 16.180,11.039 16.435,11.009 16.906 C 10.962 17.621,11.306 18.000,12.000 18.000 C 12.698 18.000,13.043 17.616,12.989 16.900 C 12.963 16.563,12.859 16.327,12.678 16.199 C 12.414 16.010,11.957 15.950,11.614 16.057 M19.383 16.043 C 19.962 16.149,20.496 16.556,20.760 17.093 C 20.848 17.273,20.941 17.528,20.964 17.660 C 21.049 18.125,20.934 18.671,20.660 19.101 C 20.538 19.293,19.979 19.839,19.309 20.421 L 18.997 20.691 18.909 20.614 C 17.924 19.754,17.524 19.372,17.355 19.130 C 17.082 18.739,16.949 18.129,17.035 17.660 C 17.107 17.269,17.361 16.802,17.640 16.550 C 18.143 16.095,18.729 15.924,19.383 16.043 M18.614 17.057 C 18.221 17.180,18.039 17.435,18.009 17.906 C 17.962 18.621,18.306 19.000,19.000 19.000 C 19.698 19.000,20.043 18.616,19.989 17.900 C 19.963 17.563,19.859 17.327,19.678 17.199 C 19.414 17.010,18.957 16.950,18.614 17.057 " stroke="none" fill="black" fill-rule="evenodd"></path></svg>