<svg xmlns="http://www.w3.org/2000/svg" width="24" height="24" viewBox="0 0 24 24" fill="none" stroke="currentColor" stroke-width="2" stroke-linecap="round" stroke-linejoin="round" class="icon icon-tabler icons-tabler-outline icon-tabler-text-scan-2"><path d="M5.499 3.043 C 4.392 3.229,3.479 4.033,3.116 5.140 C 3.029 5.405,3.024 5.492,3.009 6.804 C 2.999 7.715,3.008 8.243,3.037 8.348 C 3.144 8.748,3.430 8.961,3.896 8.991 C 4.381 9.022,4.699 8.882,4.880 8.558 C 4.980 8.381,4.980 8.376,5.001 7.060 C 5.024 5.577,5.025 5.571,5.321 5.283 C 5.593 5.020,5.714 5.000,7.057 5.000 C 7.713 5.000,8.283 4.982,8.365 4.959 C 8.586 4.898,8.770 4.755,8.880 4.558 C 8.967 4.402,8.980 4.332,8.979 4.000 C 8.978 3.567,8.898 3.355,8.678 3.199 C 8.423 3.017,8.269 3.000,6.944 3.005 C 6.260 3.007,5.609 3.025,5.499 3.043 M15.614 3.056 C 15.376 3.133,15.211 3.262,15.109 3.453 C 15.035 3.592,15.020 3.684,15.020 4.000 C 15.020 4.331,15.033 4.403,15.120 4.558 C 15.230 4.755,15.414 4.898,15.635 4.959 C 15.717 4.982,16.287 5.000,16.943 5.000 C 18.308 5.000,18.412 5.018,18.697 5.303 C 18.982 5.588,19.000 5.692,19.000 7.057 C 19.000 7.713,19.018 8.283,19.041 8.365 C 19.148 8.750,19.437 8.962,19.896 8.991 C 20.381 9.022,20.699 8.882,20.880 8.558 L 20.980 8.380 20.980 6.920 C 20.980 5.501,20.977 5.452,20.886 5.160 C 20.581 4.181,19.825 3.421,18.861 3.124 C 18.550 3.028,18.498 3.024,17.160 3.013 C 16.090 3.005,15.743 3.014,15.614 3.056 M7.614 8.057 C 7.377 8.131,7.212 8.261,7.109 8.453 C 7.035 8.592,7.020 8.684,7.020 9.000 C 7.020 9.331,7.033 9.403,7.120 9.558 C 7.230 9.755,7.414 9.898,7.635 9.959 C 7.832 10.014,14.168 10.014,14.365 9.959 C 14.586 9.898,14.770 9.755,14.880 9.558 C 14.967 9.402,14.980 9.332,14.979 9.000 C 14.978 8.567,14.898 8.355,14.678 8.199 C 14.398 7.999,14.411 8.000,10.984 8.003 C 8.472 8.005,7.744 8.017,7.614 8.057 M7.614 11.057 C 7.377 11.131,7.212 11.261,7.109 11.453 C 7.035 11.592,7.020 11.684,7.020 12.000 C 7.020 12.331,7.033 12.403,7.120 12.558 C 7.230 12.755,7.414 12.898,7.635 12.959 C 7.833 13.014,16.167 13.014,16.365 12.959 C 16.586 12.898,16.770 12.755,16.880 12.558 C 16.967 12.402,16.980 12.332,16.979 12.000 C 16.978 11.567,16.898 11.355,16.678 11.199 C 16.393 10.996,16.487 11.000,11.984 11.003 C 8.651 11.005,7.746 11.016,7.614 11.057 M7.614 14.057 C 7.377 14.131,7.212 14.261,7.109 14.453 C 7.035 14.592,7.020 14.684,7.020 15.000 C 7.020 15.331,7.033 15.403,7.120 15.558 C 7.230 15.755,7.414 15.898,7.635 15.959 C 7.831 16.014,12.169 16.014,12.365 15.959 C 12.586 15.898,12.770 15.755,12.880 15.558 C 12.967 15.402,12.980 15.332,12.979 15.000 C 12.978 14.567,12.898 14.355,12.678 14.199 C 12.406 14.005,12.336 14.000,9.984 14.003 C 8.293 14.005,7.741 14.017,7.614 14.057 M3.614 15.057 C 3.377 15.131,3.212 15.261,3.109 15.453 C 3.022 15.617,3.020 15.647,3.020 17.080 C 3.020 18.499,3.023 18.548,3.114 18.840 C 3.419 19.817,4.158 20.562,5.140 20.884 C 5.405 20.971,5.492 20.976,6.804 20.991 C 7.715 21.001,8.243 20.992,8.348 20.963 C 8.583 20.900,8.767 20.760,8.880 20.558 C 8.967 20.402,8.980 20.332,8.979 20.000 C 8.977 19.469,8.850 19.243,8.455 19.072 C 8.375 19.037,7.942 19.016,7.020 19.001 L 5.700 18.980 5.516 18.872 C 5.327 18.761,5.157 18.570,5.071 18.373 C 5.037 18.295,5.015 17.854,5.001 16.940 C 4.981 15.672,4.976 15.613,4.891 15.453 C 4.842 15.362,4.746 15.247,4.678 15.199 C 4.414 15.010,3.957 14.950,3.614 15.057 M19.614 15.057 C 19.377 15.131,19.212 15.261,19.109 15.453 C 19.024 15.613,19.019 15.673,18.999 16.940 C 18.984 17.847,18.962 18.295,18.929 18.373 C 18.843 18.570,18.673 18.761,18.484 18.872 L 18.300 18.980 16.979 19.000 C 15.658 19.020,15.657 19.020,15.459 19.122 C 15.119 19.297,14.978 19.606,15.009 20.104 C 15.039 20.570,15.252 20.856,15.652 20.963 C 15.757 20.992,16.285 21.001,17.196 20.991 C 18.508 20.976,18.595 20.971,18.860 20.884 C 19.842 20.562,20.581 19.817,20.886 18.840 C 20.977 18.548,20.980 18.499,20.980 17.080 C 20.980 15.647,20.978 15.617,20.891 15.453 C 20.842 15.362,20.746 15.247,20.678 15.199 C 20.414 15.010,19.957 14.950,19.614 15.057 " stroke="none" fill="black" fill-rule="evenodd"></path></svg>