<svg xmlns="http://www.w3.org/2000/svg" width="24" height="24" viewBox="0 0 24 24" fill="none" stroke="currentColor" stroke-width="2" stroke-linecap="round" stroke-linejoin="round" class="icon icon-tabler icons-tabler-outline icon-tabler-horseshoe"><path d="M11.140 2.024 C 9.265 2.168,8.120 2.447,6.820 3.078 C 4.355 4.275,2.746 6.562,2.204 9.640 C 2.053 10.499,2.020 10.919,2.023 11.940 C 2.025 12.789,2.039 13.012,2.113 13.417 C 2.291 14.384,2.615 15.155,3.229 16.074 C 3.411 16.347,3.560 16.577,3.560 16.585 C 3.560 16.593,3.313 16.724,3.010 16.876 C 2.330 17.217,2.154 17.344,2.045 17.569 C 1.942 17.781,1.939 17.992,2.033 18.260 C 2.128 18.532,4.229 21.672,4.421 21.830 C 4.687 22.049,5.007 22.079,5.380 21.919 C 6.061 21.627,7.922 20.710,8.184 20.537 C 8.572 20.281,9.119 19.717,9.331 19.357 C 9.665 18.788,9.840 18.149,9.840 17.506 C 9.839 17.068,9.746 16.648,9.527 16.096 C 9.289 15.498,9.169 15.089,9.061 14.499 C 8.878 13.512,8.854 12.368,9.000 11.600 C 9.259 10.230,9.924 9.414,11.028 9.113 C 11.288 9.042,11.451 9.027,12.000 9.027 C 12.549 9.027,12.712 9.042,12.972 9.113 C 14.143 9.432,14.809 10.316,15.042 11.860 C 15.102 12.254,15.102 13.328,15.042 13.840 C 14.964 14.509,14.804 15.194,14.594 15.755 C 14.247 16.685,14.192 16.896,14.171 17.380 C 14.139 18.081,14.304 18.734,14.669 19.357 C 14.881 19.718,15.428 20.281,15.816 20.536 C 16.078 20.710,18.070 21.692,18.640 21.929 C 18.997 22.078,19.320 22.044,19.579 21.830 C 19.732 21.704,21.826 18.607,21.965 18.302 C 22.056 18.102,22.061 17.796,21.976 17.618 C 21.866 17.384,21.588 17.175,21.003 16.881 C 20.693 16.726,20.440 16.593,20.440 16.585 C 20.440 16.577,20.589 16.347,20.771 16.074 C 21.385 15.155,21.709 14.384,21.887 13.417 C 21.961 13.012,21.975 12.789,21.977 11.940 C 21.982 10.355,21.792 9.176,21.315 7.815 C 20.564 5.673,19.139 4.040,17.186 3.083 C 16.093 2.547,15.098 2.266,13.700 2.099 C 13.203 2.040,11.561 1.991,11.140 2.024 M13.600 4.101 C 16.463 4.470,18.361 5.822,19.318 8.176 C 19.966 9.768,20.180 12.044,19.817 13.476 C 19.660 14.095,19.498 14.402,18.781 15.440 C 17.991 16.584,17.838 17.038,18.089 17.487 C 18.198 17.681,18.393 17.817,19.000 18.120 C 19.275 18.257,19.507 18.376,19.516 18.384 C 19.525 18.392,19.345 18.681,19.116 19.025 C 18.887 19.369,18.689 19.667,18.676 19.688 C 18.648 19.731,17.184 19.049,16.942 18.880 C 16.559 18.612,16.329 18.309,16.217 17.924 C 16.122 17.599,16.163 17.271,16.363 16.759 C 16.759 15.746,16.984 14.768,17.080 13.640 C 17.154 12.771,17.118 12.043,16.957 11.183 C 16.537 8.943,15.141 7.464,13.100 7.097 C 12.549 6.998,11.451 6.998,10.900 7.097 C 9.132 7.415,7.841 8.564,7.260 10.337 C 6.650 12.198,6.791 14.594,7.636 16.757 C 7.832 17.257,7.873 17.566,7.788 17.890 C 7.682 18.292,7.447 18.612,7.058 18.881 C 6.812 19.051,5.351 19.731,5.324 19.688 C 5.311 19.667,5.113 19.369,4.884 19.025 C 4.655 18.681,4.475 18.392,4.484 18.384 C 4.493 18.376,4.725 18.257,5.000 18.120 C 5.607 17.817,5.802 17.681,5.911 17.487 C 6.162 17.038,6.009 16.584,5.219 15.440 C 4.999 15.121,4.761 14.770,4.692 14.660 C 4.074 13.684,3.887 12.440,4.084 10.600 C 4.338 8.215,5.399 6.302,7.060 5.231 C 8.117 4.549,9.501 4.141,11.160 4.024 C 11.620 3.992,13.121 4.039,13.600 4.101 " stroke="none" fill="black" fill-rule="evenodd"></path></svg>