<svg xmlns="http://www.w3.org/2000/svg" width="24" height="24" viewBox="0 0 24 24" fill="none" stroke="currentColor" stroke-width="2" stroke-linecap="round" stroke-linejoin="round" class="icon icon-tabler icons-tabler-outline icon-tabler-auth-2fa"><path d="M4.400 7.060 C 3.254 7.291,2.351 8.158,2.081 9.286 C 1.881 10.120,2.061 10.579,2.653 10.739 C 3.172 10.880,3.630 10.761,3.832 10.433 C 3.877 10.360,3.942 10.159,3.978 9.986 C 4.083 9.476,4.241 9.246,4.600 9.083 C 5.061 8.875,5.611 9.069,5.862 9.530 C 5.955 9.701,5.976 9.789,5.975 10.000 C 5.975 10.165,5.950 10.307,5.908 10.388 C 5.871 10.458,5.547 10.908,5.188 11.388 C 3.550 13.577,2.181 15.428,2.104 15.558 C 2.036 15.672,2.020 15.766,2.020 16.040 C 2.020 16.328,2.035 16.407,2.120 16.558 C 2.230 16.755,2.414 16.898,2.635 16.959 C 2.831 17.014,7.169 17.014,7.365 16.959 C 7.586 16.898,7.770 16.755,7.880 16.558 C 7.967 16.402,7.980 16.332,7.979 16.000 C 7.977 15.469,7.850 15.244,7.455 15.072 C 7.376 15.037,6.980 15.015,6.174 15.001 L 5.007 14.980 6.286 13.263 C 6.990 12.319,7.618 11.442,7.682 11.315 C 7.888 10.908,7.976 10.516,7.977 10.000 C 7.978 9.475,7.915 9.183,7.701 8.730 C 7.526 8.359,7.370 8.134,7.109 7.875 C 6.408 7.180,5.364 6.866,4.400 7.060 M9.614 7.057 C 9.377 7.131,9.212 7.261,9.109 7.453 L 9.020 7.620 9.009 11.913 C 9.002 14.727,9.013 16.258,9.039 16.357 C 9.144 16.747,9.434 16.961,9.896 16.991 C 10.381 17.022,10.699 16.882,10.880 16.558 L 10.980 16.380 10.992 14.690 L 11.004 13.000 12.112 13.000 C 12.731 13.000,13.284 12.982,13.365 12.959 C 13.586 12.898,13.770 12.755,13.880 12.558 C 13.967 12.402,13.980 12.332,13.979 12.000 C 13.978 11.567,13.898 11.355,13.678 11.199 C 13.430 11.022,13.256 11.000,12.094 11.000 L 11.000 11.000 11.000 10.000 L 11.000 9.000 12.610 9.000 C 13.565 9.000,14.279 8.983,14.365 8.959 C 14.586 8.898,14.770 8.755,14.880 8.558 C 14.967 8.402,14.980 8.332,14.979 8.000 C 14.978 7.567,14.898 7.355,14.678 7.199 C 14.406 7.005,14.336 7.000,11.984 7.003 C 10.293 7.005,9.741 7.017,9.614 7.057 M18.499 7.040 C 17.374 7.244,16.487 8.025,16.114 9.140 L 16.021 9.420 16.009 12.810 C 16.001 15.058,16.011 16.252,16.038 16.354 C 16.144 16.747,16.433 16.961,16.896 16.991 C 17.381 17.022,17.699 16.882,17.880 16.558 C 17.979 16.381,17.980 16.374,17.993 15.190 L 18.005 14.000 19.003 14.000 L 20.000 14.000 20.000 15.110 C 20.000 15.730,20.018 16.284,20.041 16.365 C 20.148 16.750,20.437 16.962,20.896 16.991 C 21.381 17.022,21.699 16.882,21.880 16.558 L 21.980 16.380 21.980 12.920 L 21.980 9.460 21.886 9.160 C 21.580 8.178,20.810 7.407,19.861 7.129 C 19.500 7.023,18.832 6.980,18.499 7.040 M19.310 9.061 C 19.452 9.103,19.571 9.178,19.697 9.303 C 19.978 9.584,20.000 9.703,20.000 10.947 L 20.000 12.000 19.000 12.000 L 18.000 12.000 18.000 10.947 C 18.000 9.702,18.022 9.585,18.304 9.303 C 18.583 9.024,18.916 8.944,19.310 9.061 " stroke="none" fill="black" fill-rule="evenodd"></path></svg>