<svg xmlns="http://www.w3.org/2000/svg" width="24" height="24" viewBox="0 0 24 24" fill="none" stroke="currentColor" stroke-width="2" stroke-linecap="round" stroke-linejoin="round" class="icon icon-tabler icons-tabler-outline icon-tabler-git-pull-request-closed"><path d="M15.626 3.045 C 15.257 3.239,14.951 3.673,14.951 4.000 C 14.951 4.307,15.079 4.487,15.853 5.270 L 16.575 6.000 15.853 6.730 C 15.079 7.513,14.951 7.693,14.951 8.000 C 14.951 8.477,15.523 9.049,16.000 9.049 C 16.307 9.049,16.487 8.921,17.270 8.147 L 18.000 7.425 18.730 8.147 C 19.513 8.921,19.693 9.049,20.000 9.049 C 20.477 9.049,21.049 8.477,21.049 8.000 C 21.049 7.693,20.921 7.513,20.147 6.730 L 19.425 6.000 20.147 5.270 C 20.580 4.832,20.905 4.469,20.959 4.363 C 21.137 4.012,21.048 3.646,20.701 3.299 C 20.360 2.958,19.979 2.868,19.628 3.045 C 19.533 3.094,19.144 3.444,18.730 3.853 L 18.000 4.575 17.270 3.853 C 16.856 3.444,16.467 3.094,16.372 3.045 C 16.152 2.934,15.836 2.934,15.626 3.045 M5.499 3.040 C 4.363 3.246,3.460 4.049,3.114 5.160 C 2.979 5.594,2.979 6.406,3.114 6.840 C 3.365 7.645,3.931 8.318,4.670 8.688 L 5.000 8.853 5.000 11.999 L 5.000 15.145 4.670 15.313 C 3.922 15.693,3.365 16.355,3.114 17.160 C 2.979 17.594,2.979 18.406,3.114 18.840 C 3.421 19.826,4.174 20.579,5.160 20.886 C 5.594 21.021,6.406 21.021,6.840 20.886 C 7.826 20.579,8.579 19.826,8.886 18.840 C 9.021 18.406,9.021 17.594,8.886 17.160 C 8.635 16.355,8.078 15.693,7.330 15.313 L 7.000 15.145 7.000 11.999 L 7.000 8.853 7.330 8.688 C 8.069 8.318,8.635 7.645,8.886 6.840 C 9.021 6.406,9.021 5.594,8.886 5.160 C 8.581 4.179,7.810 3.407,6.861 3.129 C 6.500 3.023,5.832 2.980,5.499 3.040 M6.310 5.061 C 6.688 5.173,7.000 5.598,7.000 6.001 C 7.000 6.331,6.784 6.696,6.484 6.872 C 6.328 6.963,6.254 6.980,6.000 6.980 C 5.746 6.980,5.672 6.963,5.516 6.872 C 4.935 6.530,4.833 5.774,5.304 5.303 C 5.583 5.024,5.916 4.944,6.310 5.061 M17.614 10.057 C 17.377 10.131,17.212 10.261,17.109 10.453 C 17.021 10.619,17.020 10.638,17.000 12.886 L 16.980 15.153 16.660 15.317 C 15.919 15.698,15.363 16.360,15.114 17.160 C 14.979 17.594,14.979 18.406,15.114 18.840 C 15.421 19.826,16.174 20.579,17.160 20.886 C 17.594 21.021,18.406 21.021,18.840 20.886 C 19.826 20.579,20.579 19.826,20.886 18.840 C 20.964 18.588,20.979 18.453,20.979 18.000 C 20.979 17.547,20.964 17.412,20.886 17.160 C 20.637 16.360,20.081 15.698,19.340 15.317 L 19.020 15.153 19.000 12.886 C 18.980 10.638,18.979 10.619,18.891 10.453 C 18.842 10.362,18.746 10.247,18.678 10.199 C 18.414 10.010,17.957 9.950,17.614 10.057 M6.310 17.061 C 6.688 17.173,7.000 17.598,7.000 18.001 C 7.000 18.331,6.784 18.696,6.484 18.872 C 6.328 18.963,6.254 18.980,6.000 18.980 C 5.746 18.980,5.672 18.963,5.516 18.872 C 4.935 18.530,4.833 17.774,5.304 17.303 C 5.583 17.024,5.916 16.944,6.310 17.061 M18.310 17.061 C 18.688 17.173,19.000 17.598,19.000 18.001 C 19.000 18.331,18.784 18.696,18.484 18.872 C 18.328 18.963,18.254 18.980,18.000 18.980 C 17.746 18.980,17.672 18.963,17.516 18.872 C 16.935 18.530,16.833 17.774,17.304 17.303 C 17.583 17.024,17.916 16.944,18.310 17.061 " stroke="none" fill="black" fill-rule="evenodd"></path></svg>