<svg xmlns="http://www.w3.org/2000/svg" width="24" height="24" viewBox="0 0 24 24" fill="none" stroke="currentColor" stroke-width="2" stroke-linecap="round" stroke-linejoin="round" class="icon icon-tabler icons-tabler-outline icon-tabler-chart-pie-2"><path d="M11.080 2.045 C 9.507 2.184,7.883 2.751,6.540 3.630 C 5.905 4.045,5.499 4.378,4.919 4.958 C 2.953 6.926,1.919 9.544,2.013 12.320 C 2.084 14.439,2.752 16.328,4.033 18.040 C 4.430 18.570,5.305 19.464,5.800 19.847 C 7.242 20.961,8.787 21.624,10.600 21.907 C 11.247 22.008,12.753 22.008,13.400 21.907 C 15.638 21.557,17.504 20.620,19.062 19.062 C 20.620 17.504,21.557 15.638,21.907 13.400 C 22.008 12.753,22.008 11.247,21.907 10.600 C 21.624 8.786,20.959 7.238,19.847 5.800 C 19.510 5.365,18.639 4.494,18.200 4.154 C 16.133 2.555,13.646 1.818,11.080 2.045 M11.000 8.150 C 11.000 10.753,11.015 12.272,11.041 12.365 C 11.102 12.586,11.245 12.770,11.442 12.880 L 11.620 12.980 15.770 12.991 C 19.840 13.001,19.920 13.003,19.920 13.079 C 19.920 13.121,19.883 13.349,19.837 13.586 C 19.600 14.814,18.976 16.116,18.153 17.100 C 17.388 18.015,16.523 18.693,15.471 19.200 C 13.267 20.265,10.733 20.265,8.529 19.200 C 7.738 18.819,7.124 18.394,6.504 17.801 C 4.495 15.878,3.630 13.155,4.161 10.422 C 4.391 9.239,5.007 7.919,5.759 7.000 C 6.946 5.549,8.573 4.546,10.340 4.177 C 10.582 4.127,10.830 4.084,10.890 4.083 L 11.000 4.080 11.000 8.150 M13.586 4.163 C 14.494 4.338,15.587 4.786,16.380 5.309 C 17.879 6.296,19.047 7.820,19.597 9.502 C 19.740 9.942,19.920 10.731,19.920 10.922 C 19.920 10.999,19.863 11.000,16.460 11.000 L 13.000 11.000 13.000 7.540 C 13.000 4.137,13.001 4.080,13.078 4.080 C 13.121 4.080,13.349 4.117,13.586 4.163 " stroke="none" fill="black" fill-rule="evenodd"></path></svg>