<svg xmlns="http://www.w3.org/2000/svg" width="24" height="24" viewBox="0 0 24 24" fill="none" stroke="currentColor" stroke-width="2" stroke-linecap="round" stroke-linejoin="round" class="icon icon-tabler icons-tabler-outline icon-tabler-world-off"><path d="M2.626 2.045 C 2.257 2.239,1.951 2.673,1.951 3.000 C 1.951 3.327,2.064 3.474,3.192 4.609 L 4.254 5.677 4.071 5.910 C 2.531 7.871,1.783 10.598,2.084 13.160 C 2.296 14.968,3.045 16.765,4.192 18.218 C 4.479 18.581,5.419 19.521,5.782 19.808 C 7.198 20.926,8.841 21.628,10.668 21.895 C 10.893 21.928,11.109 21.971,11.148 21.991 C 11.247 22.040,12.782 22.018,12.980 21.964 C 13.068 21.941,13.382 21.884,13.678 21.837 C 15.197 21.601,16.899 20.865,18.090 19.929 L 18.323 19.746 19.391 20.808 C 20.081 21.493,20.523 21.902,20.637 21.960 C 20.989 22.137,21.354 22.048,21.701 21.701 C 22.048 21.354,22.137 20.990,21.960 20.637 C 21.898 20.514,20.961 19.543,18.855 17.420 C 17.195 15.748,15.756 14.299,15.657 14.200 C 15.557 14.101,14.207 12.751,12.656 11.200 C 11.105 9.649,9.797 8.341,9.748 8.292 C 5.609 4.177,3.639 2.228,3.560 2.167 C 3.263 1.942,2.910 1.895,2.626 2.045 M11.153 2.012 C 11.102 2.032,10.925 2.065,10.760 2.085 C 9.762 2.210,8.855 2.466,7.889 2.894 C 7.239 3.182,7.019 3.381,6.940 3.753 C 6.901 3.940,7.048 4.376,7.233 4.621 C 7.560 5.054,7.889 5.094,8.560 4.783 C 9.100 4.533,9.600 4.349,9.600 4.402 C 9.600 4.424,9.558 4.528,9.506 4.631 C 9.343 4.959,9.045 5.732,8.999 5.946 C 8.881 6.499,9.344 6.980,10.042 7.031 C 10.533 7.066,10.748 6.872,11.041 6.130 C 11.249 5.603,11.948 4.160,11.996 4.160 C 12.045 4.160,12.594 5.248,12.836 5.824 C 13.123 6.511,13.560 7.804,13.560 7.970 C 13.560 7.986,13.392 8.000,13.186 8.000 C 12.594 8.000,12.281 8.132,12.109 8.453 C 12.035 8.592,12.020 8.684,12.020 9.000 C 12.020 9.331,12.033 9.403,12.120 9.558 C 12.230 9.755,12.414 9.898,12.635 9.959 C 12.715 9.981,13.046 10.000,13.370 10.000 C 13.955 10.000,13.960 10.001,13.961 10.090 C 13.963 10.303,14.082 11.313,14.122 11.453 C 14.178 11.651,14.419 11.889,14.626 11.951 C 15.041 12.076,15.608 11.959,15.833 11.701 C 16.023 11.486,16.055 11.329,16.026 10.758 C 16.012 10.479,15.989 10.195,15.975 10.126 L 15.950 10.000 17.849 10.000 L 19.749 10.000 19.834 10.430 C 20.051 11.532,20.047 12.619,19.822 13.673 C 19.788 13.834,19.760 13.973,19.760 13.983 C 19.760 13.992,19.547 14.000,19.286 14.000 C 18.374 14.000,18.053 14.226,18.009 14.900 C 17.968 15.532,18.251 15.922,18.797 15.987 C 18.992 16.010,19.000 16.016,19.001 16.136 C 19.003 16.443,19.262 16.763,19.653 16.942 C 20.290 17.233,20.671 17.051,21.029 16.286 C 22.348 13.463,22.316 10.324,20.939 7.539 C 19.485 4.600,16.593 2.530,13.344 2.103 C 13.114 2.073,12.902 2.034,12.874 2.016 C 12.801 1.971,11.268 1.968,11.153 2.012 M15.564 4.840 C 16.371 5.244,17.079 5.764,17.722 6.426 C 18.200 6.919,18.675 7.530,18.875 7.910 L 18.923 8.000 17.280 8.000 C 16.000 8.000,15.634 7.989,15.624 7.950 C 15.616 7.923,15.552 7.675,15.480 7.400 C 15.297 6.691,14.950 5.679,14.654 4.986 C 14.514 4.660,14.400 4.386,14.400 4.377 C 14.400 4.339,15.187 4.652,15.564 4.840 M6.140 7.560 L 6.579 8.000 5.827 8.000 C 5.237 8.000,5.081 7.989,5.104 7.950 C 5.218 7.753,5.653 7.120,5.675 7.120 C 5.689 7.120,5.899 7.318,6.140 7.560 M8.024 10.110 C 7.978 10.330,7.921 11.396,7.920 12.022 C 7.920 12.593,7.968 13.508,8.017 13.870 L 8.035 14.001 6.151 13.990 L 4.266 13.980 4.216 13.759 C 3.980 12.718,3.977 11.352,4.209 10.230 L 4.256 10.000 6.151 10.000 L 8.046 10.000 8.024 10.110 M11.314 13.991 C 10.629 13.996,10.063 13.996,10.058 13.991 C 10.023 13.954,9.954 12.967,9.934 12.220 L 9.911 11.340 11.236 12.660 L 12.561 13.980 11.314 13.991 M8.542 16.660 C 8.750 17.436,9.085 18.410,9.375 19.082 C 9.494 19.356,9.587 19.584,9.582 19.590 C 9.558 19.618,8.929 19.373,8.528 19.180 C 7.271 18.575,6.190 17.634,5.364 16.423 C 5.230 16.226,5.120 16.050,5.120 16.032 C 5.120 16.014,5.851 16.004,6.745 16.010 L 8.370 16.020 8.542 16.660 M13.538 16.130 C 13.465 16.460,13.054 17.655,12.835 18.169 C 12.568 18.800,12.047 19.840,12.000 19.840 C 11.954 19.840,11.395 18.726,11.167 18.180 C 10.943 17.646,10.631 16.756,10.537 16.383 C 10.503 16.249,10.467 16.108,10.455 16.070 C 10.436 16.004,10.528 16.000,12.000 16.000 L 13.566 16.000 13.538 16.130 M16.880 18.328 C 16.880 18.376,16.063 18.900,15.690 19.091 C 15.334 19.274,14.711 19.532,14.507 19.582 L 14.395 19.610 14.463 19.455 C 14.812 18.663,15.175 17.679,15.365 17.007 L 15.414 16.835 16.147 17.567 C 16.550 17.970,16.880 18.312,16.880 18.328 " stroke="none" fill="black" fill-rule="evenodd"></path></svg>