<svg xmlns="http://www.w3.org/2000/svg" width="24" height="24" viewBox="0 0 24 24" fill="none" stroke="currentColor" stroke-width="2" stroke-linecap="round" stroke-linejoin="round" class="icon icon-tabler icons-tabler-outline icon-tabler-building-pavilion"><path d="M11.664 2.063 C 11.458 2.138,11.267 2.287,11.167 2.449 C 11.123 2.521,11.022 2.767,10.943 2.995 C 10.325 4.777,8.975 6.243,7.140 7.124 C 5.960 7.691,4.879 7.944,3.420 7.996 C 2.711 8.021,2.601 8.034,2.454 8.111 C 2.243 8.221,2.136 8.358,2.060 8.613 C 1.889 9.187,2.123 10.314,2.566 11.047 C 2.893 11.590,3.425 12.121,3.957 12.434 C 4.176 12.563,4.630 12.760,4.930 12.855 C 4.996 12.876,5.000 13.082,5.000 16.439 L 5.000 20.000 3.906 20.000 C 2.744 20.000,2.570 20.022,2.322 20.199 C 2.100 20.357,2.020 20.568,2.020 21.000 C 2.020 21.331,2.033 21.403,2.120 21.558 C 2.230 21.755,2.414 21.898,2.635 21.959 C 2.833 22.014,10.167 22.014,10.365 21.959 C 10.586 21.898,10.770 21.755,10.880 21.558 L 10.980 21.380 11.000 19.560 C 11.022 17.519,11.013 17.582,11.321 17.283 C 11.490 17.120,11.777 17.000,12.000 17.000 C 12.223 17.000,12.510 17.120,12.679 17.283 C 12.987 17.582,12.978 17.519,13.000 19.560 L 13.020 21.380 13.120 21.558 C 13.230 21.755,13.414 21.898,13.635 21.959 C 13.833 22.014,21.167 22.014,21.365 21.959 C 21.586 21.898,21.770 21.755,21.880 21.558 C 21.967 21.402,21.980 21.332,21.979 21.000 C 21.978 20.567,21.898 20.355,21.678 20.199 C 21.430 20.022,21.256 20.000,20.094 20.000 L 19.000 20.000 19.000 16.439 C 19.000 13.082,19.004 12.876,19.070 12.855 C 20.342 12.450,21.237 11.646,21.704 10.488 C 22.098 9.509,22.090 8.492,21.686 8.204 C 21.471 8.051,21.343 8.028,20.560 7.998 C 20.131 7.981,19.591 7.937,19.360 7.901 C 16.839 7.499,14.734 6.131,13.569 4.136 C 13.370 3.795,13.178 3.357,12.996 2.826 C 12.853 2.412,12.688 2.168,12.478 2.059 C 12.333 1.984,11.873 1.986,11.664 2.063 M12.184 5.691 C 12.998 6.930,14.374 8.124,15.834 8.857 C 16.917 9.401,18.307 9.809,19.530 9.941 L 19.760 9.966 19.642 10.138 C 19.379 10.520,18.946 10.822,18.492 10.940 C 18.147 11.030,5.853 11.030,5.508 10.940 C 5.054 10.822,4.621 10.520,4.358 10.138 L 4.240 9.966 4.470 9.941 C 5.693 9.809,7.083 9.401,8.166 8.857 C 9.626 8.124,11.002 6.930,11.816 5.691 C 11.906 5.554,11.989 5.442,12.000 5.442 C 12.011 5.442,12.094 5.554,12.184 5.691 M17.000 16.500 L 17.000 20.000 16.003 20.000 L 15.007 20.000 14.991 18.710 C 14.976 17.498,14.969 17.403,14.884 17.140 C 14.565 16.165,13.812 15.415,12.861 15.125 C 12.588 15.042,12.458 15.027,12.000 15.027 C 11.542 15.027,11.412 15.042,11.139 15.125 C 10.188 15.415,9.435 16.165,9.116 17.140 C 9.031 17.403,9.024 17.498,9.009 18.710 L 8.993 20.000 7.997 20.000 L 7.000 20.000 7.000 16.500 L 7.000 13.000 12.000 13.000 L 17.000 13.000 17.000 16.500 " stroke="none" fill="black" fill-rule="evenodd"></path></svg>