<svg xmlns="http://www.w3.org/2000/svg" width="24" height="24" viewBox="0 0 24 24" fill="none" stroke="currentColor" stroke-width="2" stroke-linecap="round" stroke-linejoin="round" class="icon icon-tabler icons-tabler-outline icon-tabler-square-rounded-letter-x"><path d="M10.349 2.044 C 7.535 2.178,5.738 2.713,4.406 3.814 C 3.787 4.326,3.247 5.075,2.885 5.924 C 2.566 6.671,2.342 7.527,2.205 8.520 C 2.051 9.633,2.021 10.208,2.021 12.000 C 2.021 13.792,2.051 14.367,2.205 15.480 C 2.744 19.396,4.610 21.251,8.560 21.800 C 9.623 21.948,10.220 21.979,12.000 21.979 C 13.780 21.979,14.377 21.948,15.440 21.800 C 16.241 21.689,16.753 21.574,17.401 21.361 C 20.018 20.502,21.344 18.717,21.800 15.440 C 21.948 14.377,21.979 13.780,21.979 12.000 C 21.979 10.220,21.948 9.623,21.800 8.560 C 21.494 6.357,20.759 4.778,19.594 3.814 C 18.657 3.040,17.469 2.539,15.960 2.283 C 14.520 2.039,12.378 1.947,10.349 2.044 M13.500 4.041 C 16.040 4.168,17.512 4.591,18.435 5.458 C 19.509 6.468,19.999 8.517,19.999 12.000 C 19.999 15.490,19.511 17.527,18.430 18.548 C 17.356 19.562,15.410 20.000,11.992 20.000 C 8.581 19.999,6.644 19.561,5.570 18.548 C 4.489 17.527,4.001 15.490,4.001 12.000 C 4.001 10.005,4.176 8.385,4.505 7.320 C 5.052 5.555,6.056 4.719,8.129 4.302 C 9.412 4.045,11.521 3.942,13.500 4.041 M9.759 7.021 C 9.484 7.106,9.161 7.351,9.049 7.560 C 8.969 7.711,8.956 7.779,8.973 7.980 C 8.991 8.195,9.092 8.418,9.936 10.110 L 10.879 12.000 9.937 13.890 C 8.880 16.009,8.864 16.056,9.040 16.420 C 9.145 16.637,9.398 16.840,9.712 16.959 C 10.110 17.111,10.475 17.029,10.708 16.735 C 10.775 16.650,11.089 16.063,11.405 15.430 C 11.721 14.797,11.989 14.280,12.000 14.280 C 12.011 14.280,12.284 14.807,12.606 15.452 C 12.928 16.097,13.243 16.684,13.304 16.758 C 13.445 16.924,13.688 17.038,13.908 17.039 C 14.290 17.041,14.807 16.737,14.960 16.420 C 15.136 16.056,15.120 16.009,14.063 13.890 L 13.121 12.000 14.070 10.098 L 15.020 8.197 15.020 7.922 C 15.020 7.681,15.005 7.627,14.900 7.479 C 14.670 7.156,14.105 6.909,13.751 6.975 C 13.669 6.991,13.525 7.061,13.431 7.132 C 13.278 7.247,13.195 7.390,12.640 8.490 C 12.299 9.166,12.011 9.720,12.000 9.720 C 11.989 9.720,11.716 9.193,11.394 8.548 C 11.072 7.903,10.761 7.320,10.703 7.251 C 10.482 6.989,10.137 6.905,9.759 7.021 " stroke="none" fill="black" fill-rule="evenodd"></path></svg>