<svg xmlns="http://www.w3.org/2000/svg" width="24" height="24" viewBox="0 0 24 24" fill="none" stroke="currentColor" stroke-width="2" stroke-linecap="round" stroke-linejoin="round" class="icon icon-tabler icons-tabler-outline icon-tabler-http-trace"><path d="M2.614 7.057 C 2.377 7.131,2.212 7.261,2.109 7.453 C 2.035 7.592,2.020 7.684,2.020 8.000 C 2.020 8.331,2.033 8.403,2.120 8.558 C 2.230 8.755,2.414 8.898,2.635 8.959 C 2.715 8.981,3.054 9.000,3.390 9.000 L 4.000 9.000 4.000 12.610 C 4.000 14.905,4.015 16.273,4.041 16.365 C 4.148 16.750,4.437 16.962,4.896 16.991 C 5.381 17.022,5.699 16.882,5.880 16.558 L 5.980 16.380 5.991 12.690 L 6.002 9.000 6.611 9.000 C 6.946 9.000,7.285 8.981,7.365 8.959 C 7.586 8.898,7.770 8.755,7.880 8.558 C 7.967 8.402,7.980 8.332,7.979 8.000 C 7.978 7.567,7.898 7.355,7.678 7.199 C 7.406 7.005,7.336 7.000,4.984 7.003 C 3.293 7.005,2.741 7.017,2.614 7.057 M9.614 7.056 C 9.376 7.133,9.212 7.262,9.109 7.453 L 9.020 7.620 9.009 11.913 C 9.002 14.727,9.013 16.258,9.039 16.357 C 9.144 16.747,9.434 16.961,9.896 16.991 C 10.381 17.022,10.699 16.882,10.880 16.558 L 10.980 16.380 10.992 15.027 L 11.005 13.674 12.172 15.227 C 13.475 16.960,13.553 17.040,13.935 17.040 C 14.304 17.039,14.789 16.735,14.963 16.394 C 15.067 16.191,15.064 15.884,14.955 15.668 C 14.909 15.576,14.432 14.913,13.895 14.196 C 13.359 13.479,12.920 12.881,12.920 12.866 C 12.920 12.852,12.945 12.840,12.975 12.840 C 13.092 12.840,13.670 12.513,13.891 12.323 C 14.394 11.890,14.703 11.429,14.886 10.840 C 15.021 10.406,15.021 9.594,14.886 9.160 C 14.581 8.182,13.825 7.421,12.861 7.124 C 12.550 7.028,12.498 7.024,11.160 7.013 C 10.090 7.005,9.743 7.014,9.614 7.056 M18.499 7.040 C 17.374 7.244,16.487 8.025,16.114 9.140 L 16.021 9.420 16.009 12.810 C 16.001 15.058,16.011 16.252,16.038 16.354 C 16.144 16.747,16.433 16.961,16.896 16.991 C 17.381 17.022,17.699 16.882,17.880 16.558 C 17.979 16.381,17.980 16.374,17.993 15.190 L 18.005 14.000 19.003 14.000 L 20.000 14.000 20.000 15.110 C 20.000 15.730,20.018 16.284,20.041 16.365 C 20.148 16.750,20.437 16.962,20.896 16.991 C 21.381 17.022,21.699 16.882,21.880 16.558 L 21.980 16.380 21.980 12.920 L 21.980 9.460 21.886 9.160 C 21.580 8.178,20.810 7.407,19.861 7.129 C 19.500 7.023,18.832 6.980,18.499 7.040 M12.310 9.061 C 12.688 9.173,13.000 9.598,13.000 10.001 C 13.000 10.176,12.897 10.462,12.779 10.618 C 12.587 10.870,12.359 10.974,11.954 10.993 C 11.761 11.002,11.467 10.997,11.301 10.981 L 11.000 10.953 11.000 9.977 L 11.000 9.000 11.553 9.000 C 11.931 9.000,12.170 9.019,12.310 9.061 M19.310 9.061 C 19.452 9.103,19.571 9.178,19.697 9.303 C 19.978 9.584,20.000 9.703,20.000 10.947 L 20.000 12.000 19.000 12.000 L 18.000 12.000 18.000 10.947 C 18.000 9.702,18.022 9.585,18.304 9.303 C 18.583 9.024,18.916 8.944,19.310 9.061 " stroke="none" fill="black" fill-rule="evenodd"></path></svg>