<svg xmlns="http://www.w3.org/2000/svg" width="24" height="24" viewBox="0 0 24 24" fill="none" stroke="currentColor" stroke-width="2" stroke-linecap="round" stroke-linejoin="round" class="icon icon-tabler icons-tabler-outline icon-tabler-link"><path d="M14.340 3.044 C 13.127 3.168,11.908 3.717,10.980 4.555 C 10.640 4.862,10.124 5.469,10.034 5.669 C 9.868 6.035,9.970 6.420,10.313 6.725 C 10.677 7.048,11.036 7.126,11.384 6.958 C 11.510 6.897,11.673 6.749,11.902 6.485 C 12.398 5.913,12.817 5.596,13.434 5.326 C 14.270 4.959,15.383 4.910,16.244 5.203 C 18.032 5.811,19.178 7.589,18.965 9.425 C 18.841 10.495,18.368 11.362,17.495 12.117 C 17.083 12.474,16.948 12.691,16.954 12.984 C 16.964 13.490,17.500 14.047,17.976 14.047 C 18.236 14.047,18.456 13.929,18.861 13.575 C 19.519 13.001,19.927 12.496,20.294 11.800 C 21.537 9.445,21.094 6.589,19.196 4.731 C 17.889 3.453,16.170 2.855,14.340 3.044 M14.620 8.046 C 14.383 8.167,8.154 14.406,8.039 14.637 C 7.863 14.990,7.953 15.355,8.299 15.701 C 8.645 16.047,9.010 16.137,9.363 15.961 C 9.613 15.836,15.836 9.613,15.961 9.363 C 16.137 9.010,16.047 8.645,15.701 8.299 C 15.361 7.959,14.968 7.867,14.620 8.046 M5.649 10.045 C 5.347 10.194,4.599 10.894,4.244 11.360 C 3.680 12.100,3.321 12.889,3.113 13.846 C 2.984 14.444,2.984 15.557,3.114 16.154 C 3.436 17.641,4.201 18.860,5.380 19.765 C 7.211 21.169,9.731 21.386,11.819 20.318 C 12.727 19.854,13.523 19.124,13.918 18.394 C 14.199 17.875,13.974 17.349,13.346 17.057 C 12.900 16.849,12.536 16.970,12.171 17.446 C 11.753 17.992,11.488 18.225,10.960 18.510 C 10.318 18.857,9.584 19.024,8.860 18.987 C 6.920 18.890,5.347 17.488,5.058 15.600 C 4.986 15.122,4.986 14.879,5.058 14.395 C 5.189 13.527,5.571 12.789,6.206 12.178 C 6.835 11.573,6.927 11.472,6.988 11.326 C 7.070 11.132,7.061 10.878,6.964 10.660 C 6.870 10.448,6.558 10.125,6.354 10.029 C 6.154 9.934,5.859 9.941,5.649 10.045 " stroke="none" fill="black" fill-rule="evenodd"></path></svg>