<svg xmlns="http://www.w3.org/2000/svg" width="24" height="24" viewBox="0 0 24 24" fill="none" stroke="currentColor" stroke-width="2" stroke-linecap="round" stroke-linejoin="round" class="icon icon-tabler icons-tabler-outline icon-tabler-chart-bar-off"><path d="M2.626 2.045 C 2.420 2.154,2.146 2.433,2.038 2.644 C 1.924 2.867,1.924 3.132,2.039 3.363 C 2.102 3.487,2.998 4.411,5.064 6.481 L 8.000 9.421 8.000 10.211 L 8.000 11.000 5.870 11.002 C 3.491 11.005,3.432 11.011,2.983 11.281 C 2.703 11.449,2.354 11.816,2.219 12.083 C 1.997 12.520,2.000 12.467,2.000 16.000 C 2.000 19.547,1.996 19.478,2.225 19.930 C 2.361 20.199,2.801 20.639,3.070 20.775 C 3.541 21.014,3.016 21.000,11.655 21.000 L 19.573 21.000 20.018 21.435 C 20.263 21.674,20.543 21.910,20.639 21.960 C 20.988 22.137,21.354 22.048,21.701 21.701 C 22.048 21.354,22.137 20.988,21.960 20.640 C 21.888 20.499,21.185 19.717,20.750 19.293 C 20.683 19.228,16.925 15.472,15.734 14.279 C 15.664 14.209,14.311 12.857,12.727 11.273 C 11.143 9.689,9.805 8.351,9.753 8.299 C 9.702 8.247,8.283 6.838,6.600 5.167 C 4.562 3.143,3.484 2.100,3.372 2.044 C 3.152 1.934,2.835 1.935,2.626 2.045 M15.477 3.073 C 14.806 3.249,14.238 3.823,14.060 4.508 C 14.014 4.685,14.000 4.994,14.000 5.868 L 14.000 7.000 12.906 7.000 C 11.744 7.000,11.570 7.022,11.322 7.199 C 11.100 7.357,11.020 7.568,11.020 8.000 C 11.020 8.331,11.033 8.403,11.120 8.558 C 11.230 8.755,11.414 8.898,11.635 8.959 C 11.716 8.982,12.270 9.000,12.890 9.000 L 14.000 9.000 14.000 10.119 C 14.000 11.358,14.023 11.510,14.247 11.746 C 14.580 12.095,15.454 12.077,15.786 11.714 C 16.001 11.479,16.000 11.492,16.000 8.119 L 16.000 5.000 18.000 5.000 L 20.000 5.000 20.000 11.110 C 20.000 15.080,20.015 17.271,20.041 17.365 C 20.148 17.750,20.437 17.962,20.896 17.991 C 21.381 18.022,21.699 17.882,21.880 17.558 L 21.980 17.380 21.991 11.089 C 22.002 4.242,22.011 4.536,21.782 4.083 C 21.646 3.816,21.297 3.449,21.017 3.281 C 20.564 3.008,20.524 3.005,18.000 3.005 C 15.992 3.005,15.711 3.012,15.477 3.073 M14.000 17.210 L 14.000 19.000 12.000 19.000 L 10.000 19.000 10.000 15.210 L 10.000 11.420 12.000 13.420 L 14.000 15.420 14.000 17.210 M8.000 16.000 L 8.000 19.000 6.000 19.000 L 4.000 19.000 4.000 16.000 L 4.000 13.000 6.000 13.000 L 8.000 13.000 8.000 16.000 M16.800 18.220 L 17.579 19.000 16.790 19.000 L 16.000 19.000 16.000 18.220 C 16.000 17.791,16.005 17.440,16.010 17.440 C 16.016 17.440,16.371 17.791,16.800 18.220 " stroke="none" fill="black" fill-rule="evenodd"></path></svg>