<svg xmlns="http://www.w3.org/2000/svg" width="24" height="24" viewBox="0 0 24 24" fill="none" stroke="currentColor" stroke-width="2" stroke-linecap="round" stroke-linejoin="round" class="icon icon-tabler icons-tabler-outline icon-tabler-table"><path d="M4.499 2.043 C 3.380 2.232,2.461 3.048,2.114 4.160 L 2.020 4.460 2.020 12.000 L 2.020 19.540 2.114 19.840 C 2.422 20.827,3.173 21.578,4.160 21.886 L 4.460 21.980 12.000 21.980 L 19.540 21.980 19.840 21.886 C 20.827 21.578,21.578 20.827,21.886 19.840 L 21.980 19.540 21.980 12.000 L 21.980 4.460 21.886 4.160 C 21.581 3.182,20.832 2.428,19.861 2.121 L 19.540 2.020 12.120 2.014 C 8.039 2.011,4.609 2.024,4.499 2.043 M9.000 6.500 L 9.000 9.000 6.500 9.000 L 4.000 9.000 4.000 6.947 C 4.000 4.594,3.998 4.608,4.304 4.303 C 4.604 4.003,4.575 4.006,6.930 4.003 L 9.000 4.000 9.000 6.500 M19.310 4.061 C 19.452 4.103,19.571 4.178,19.697 4.303 C 20.002 4.608,20.000 4.595,20.000 6.947 L 20.000 9.000 15.500 9.000 L 11.000 9.000 11.000 6.500 L 11.000 4.000 15.053 4.000 C 18.564 4.000,19.133 4.008,19.310 4.061 M9.000 15.501 L 9.000 20.003 6.850 19.991 L 4.700 19.980 4.516 19.872 C 4.415 19.813,4.284 19.700,4.225 19.623 C 3.990 19.315,4.000 19.511,4.000 15.075 L 4.000 11.000 6.500 11.000 L 9.000 11.000 9.000 15.501 M20.000 15.054 C 20.000 19.453,20.006 19.320,19.779 19.618 C 19.718 19.698,19.585 19.813,19.484 19.872 L 19.300 19.980 15.150 19.991 L 11.000 20.001 11.000 15.501 L 11.000 11.000 15.500 11.000 L 20.000 11.000 20.000 15.054 " stroke="none" fill="black" fill-rule="evenodd"></path></svg>