<svg xmlns="http://www.w3.org/2000/svg" width="24" height="24" viewBox="0 0 24 24" fill="none" stroke="currentColor" stroke-width="2" stroke-linecap="round" stroke-linejoin="round" class="icon icon-tabler icons-tabler-outline icon-tabler-vaccine-bottle-off"><path d="M2.626 2.045 C 2.420 2.154,2.146 2.433,2.038 2.644 C 1.924 2.868,1.924 3.132,2.040 3.363 C 2.101 3.486,2.863 4.276,4.553 5.970 L 6.978 8.399 6.773 8.610 C 6.481 8.909,6.269 9.261,6.135 9.668 L 6.020 10.020 6.020 14.780 L 6.020 19.540 6.114 19.840 C 6.422 20.827,7.173 21.578,8.160 21.886 L 8.460 21.980 12.000 21.980 L 15.540 21.980 15.840 21.886 C 16.817 21.581,17.584 20.820,17.876 19.866 C 17.922 19.715,17.960 19.545,17.960 19.487 C 17.960 19.399,18.154 19.576,19.210 20.627 C 20.034 21.446,20.521 21.901,20.637 21.960 C 20.989 22.137,21.354 22.048,21.701 21.701 C 22.048 21.354,22.137 20.989,21.960 20.637 C 21.888 20.494,19.724 18.261,17.748 16.293 C 17.509 16.054,12.846 11.393,12.760 11.305 C 11.783 10.319,3.632 2.223,3.560 2.168 C 3.264 1.942,2.910 1.895,2.626 2.045 M9.477 2.073 C 8.806 2.249,8.238 2.823,8.060 3.508 C 7.990 3.777,7.976 5.131,8.041 5.365 C 8.137 5.710,8.417 5.942,8.792 5.987 L 8.990 6.010 9.013 6.208 C 9.058 6.583,9.290 6.863,9.635 6.959 C 9.721 6.983,10.435 7.000,11.390 7.000 L 13.000 7.000 13.000 7.122 C 13.000 7.382,13.130 7.875,13.279 8.180 C 13.662 8.965,14.290 9.476,15.129 9.687 C 15.533 9.788,15.714 9.877,15.823 10.026 C 15.951 10.202,16.000 10.386,16.000 10.697 L 16.000 10.982 15.756 11.028 C 15.272 11.120,15.042 11.388,15.009 11.900 C 14.969 12.530,15.252 12.923,15.792 12.987 L 15.990 13.010 16.013 13.208 C 16.074 13.715,16.428 14.000,17.000 14.000 C 17.428 14.000,17.713 13.856,17.880 13.558 L 17.980 13.380 17.980 11.700 L 17.980 10.020 17.864 9.666 C 17.560 8.740,16.784 8.033,15.815 7.801 C 15.252 7.666,15.003 7.401,15.001 6.940 C 15.001 6.756,15.012 6.733,15.142 6.644 C 15.347 6.504,15.669 6.139,15.779 5.922 C 15.959 5.567,16.000 5.305,15.999 4.514 C 15.999 3.716,15.954 3.424,15.781 3.083 C 15.646 2.816,15.297 2.449,15.017 2.281 C 14.564 2.008,14.524 2.005,12.000 2.005 C 9.992 2.005,9.711 2.012,9.477 2.073 M14.000 4.500 L 14.000 5.000 12.000 5.000 L 10.000 5.000 10.000 4.500 L 10.000 4.000 12.000 4.000 L 14.000 4.000 14.000 4.500 M9.000 10.420 L 9.579 11.000 8.789 11.000 L 8.000 11.000 8.000 10.715 C 8.000 10.558,8.022 10.357,8.048 10.269 C 8.094 10.115,8.310 9.840,8.385 9.840 C 8.405 9.840,8.682 10.101,9.000 10.420 M12.080 13.500 L 12.579 14.000 11.696 14.000 C 10.757 14.000,10.561 14.028,10.322 14.199 C 10.100 14.357,10.020 14.568,10.020 15.000 C 10.020 15.331,10.033 15.403,10.120 15.558 C 10.232 15.759,10.417 15.900,10.648 15.962 C 10.746 15.989,11.280 16.000,12.092 15.992 L 13.380 15.980 13.558 15.880 C 13.716 15.792,13.791 15.710,13.940 15.463 C 13.974 15.408,14.109 15.526,14.780 16.199 L 15.579 17.000 11.790 17.000 L 8.000 17.000 8.000 15.000 L 8.000 13.000 9.791 13.000 L 11.581 13.000 12.080 13.500 M16.000 19.054 C 16.000 19.181,15.882 19.483,15.779 19.618 C 15.718 19.698,15.585 19.813,15.484 19.872 L 15.300 19.980 12.000 19.980 L 8.700 19.980 8.516 19.872 C 8.240 19.709,8.000 19.339,8.000 19.075 C 8.000 19.002,8.116 19.000,12.000 19.000 C 15.318 19.000,16.000 19.009,16.000 19.054 " stroke="none" fill="black" fill-rule="evenodd"></path></svg>