<svg xmlns="http://www.w3.org/2000/svg" width="24" height="24" viewBox="0 0 24 24" fill="none" stroke="currentColor" stroke-width="2" stroke-linecap="round" stroke-linejoin="round" class="icon icon-tabler icons-tabler-outline icon-tabler-file-like"><path d="M6.499 2.043 C 5.393 2.228,4.488 3.024,4.114 4.140 L 4.020 4.420 4.007 8.320 C 3.998 11.159,4.007 12.278,4.041 12.433 C 4.133 12.859,4.463 13.086,4.994 13.088 C 5.348 13.090,5.555 13.019,5.751 12.829 C 6.007 12.582,6.000 12.694,6.000 8.600 C 6.000 4.406,5.985 4.622,6.303 4.303 C 6.618 3.989,6.481 4.000,9.947 4.000 L 13.000 4.000 13.000 5.632 C 13.000 7.399,13.010 7.507,13.225 7.930 C 13.361 8.199,13.801 8.639,14.070 8.775 C 14.493 8.990,14.601 9.000,16.368 9.000 L 18.000 9.000 18.000 14.054 C 18.000 18.220,17.990 19.139,17.945 19.290 C 17.872 19.533,17.707 19.740,17.484 19.872 L 17.300 19.980 15.820 20.002 C 14.206 20.025,14.178 20.029,13.952 20.267 C 13.783 20.444,13.713 20.658,13.712 21.000 C 13.710 21.368,13.798 21.600,14.011 21.787 C 14.246 21.993,14.405 22.009,16.080 21.992 C 17.514 21.977,17.592 21.972,17.860 21.884 C 18.843 21.561,19.581 20.817,19.886 19.840 L 19.980 19.540 19.980 13.580 L 19.980 7.620 19.890 7.452 C 19.841 7.360,19.724 7.231,19.630 7.165 C 19.498 7.073,15.263 2.838,14.719 2.254 C 14.473 1.991,14.626 2.000,10.463 2.005 C 8.393 2.007,6.609 2.025,6.499 2.043 M15.800 6.220 L 16.579 7.000 15.790 7.000 L 15.000 7.000 15.000 6.220 C 15.000 5.791,15.005 5.440,15.010 5.440 C 15.016 5.440,15.371 5.791,15.800 6.220 M8.411 11.497 C 8.064 11.581,7.679 11.796,7.439 12.037 C 7.293 12.184,6.916 12.728,6.331 13.637 L 5.444 15.015 4.632 15.004 C 3.998 14.996,3.758 15.008,3.536 15.059 C 2.839 15.218,2.243 15.802,2.060 16.508 C 1.972 16.844,1.972 20.156,2.060 20.492 C 2.247 21.211,2.874 21.813,3.590 21.962 C 3.724 21.990,4.120 22.001,4.633 21.993 C 5.431 21.979,5.469 21.974,5.730 21.866 L 6.000 21.755 6.270 21.867 L 6.540 21.980 8.740 21.993 C 10.336 22.002,11.000 21.993,11.160 21.958 C 11.649 21.852,12.143 21.517,12.409 21.111 C 12.485 20.995,12.857 20.125,13.234 19.177 C 13.998 17.260,14.059 17.042,13.968 16.553 C 13.866 16.003,13.512 15.532,12.999 15.262 C 12.605 15.055,12.319 15.001,11.610 15.001 L 11.000 15.000 11.000 14.162 C 11.000 13.222,10.971 13.025,10.776 12.612 C 10.367 11.751,9.347 11.271,8.411 11.497 M9.000 14.921 L 9.020 16.380 9.120 16.558 C 9.230 16.755,9.414 16.898,9.635 16.959 C 9.716 16.982,10.262 17.000,10.866 17.000 L 11.953 17.000 11.352 18.500 L 10.752 20.000 8.876 20.000 L 7.000 20.000 7.000 18.148 L 7.000 16.297 7.825 15.018 C 8.279 14.315,8.694 13.671,8.747 13.587 C 8.809 13.491,8.869 13.440,8.912 13.448 C 8.974 13.460,8.982 13.589,9.000 14.921 M5.000 18.500 L 5.000 20.000 4.500 20.000 L 4.000 20.000 4.000 18.500 L 4.000 17.000 4.500 17.000 L 5.000 17.000 5.000 18.500 " stroke="none" fill="black" fill-rule="evenodd"></path></svg>