<svg xmlns="http://www.w3.org/2000/svg" width="24" height="24" viewBox="0 0 24 24" fill="none" stroke="currentColor" stroke-width="2" stroke-linecap="round" stroke-linejoin="round" class="icon icon-tabler icons-tabler-outline icon-tabler-campfire"><path d="M13.700 2.057 C 13.516 2.116,12.831 2.484,12.281 2.818 C 9.774 4.344,8.028 6.432,7.338 8.729 C 7.007 9.828,6.914 11.104,7.099 11.980 C 7.520 13.976,9.025 15.476,11.040 15.907 C 11.511 16.008,12.489 16.008,12.960 15.907 C 14.488 15.580,15.748 14.630,16.433 13.288 C 17.027 12.123,17.156 10.827,16.813 9.468 C 16.691 8.984,16.538 8.611,15.988 7.460 C 15.496 6.431,15.353 6.045,15.221 5.384 C 15.102 4.792,15.048 4.281,15.005 3.340 C 14.977 2.726,14.959 2.595,14.887 2.453 C 14.699 2.085,14.165 1.907,13.700 2.057 M13.156 5.221 C 13.343 6.436,13.656 7.317,14.481 8.961 C 14.993 9.981,15.126 10.977,14.870 11.863 C 14.596 12.808,13.821 13.581,12.840 13.886 C 12.406 14.021,11.594 14.021,11.160 13.886 C 10.179 13.581,9.404 12.808,9.130 11.863 C 8.842 10.868,9.084 9.364,9.724 8.165 C 10.377 6.943,11.373 5.858,12.672 4.952 C 12.884 4.805,13.061 4.688,13.067 4.693 C 13.072 4.699,13.112 4.936,13.156 5.221 M3.494 16.082 C 3.194 16.231,3.002 16.624,2.995 17.105 C 2.991 17.403,3.098 17.626,3.317 17.777 C 3.497 17.901,3.726 17.965,5.970 18.524 C 6.977 18.774,7.800 18.988,7.800 19.000 C 7.800 19.011,6.870 19.253,5.734 19.537 C 3.433 20.111,3.268 20.169,3.095 20.464 C 3.011 20.608,2.992 20.690,2.995 20.893 C 3.005 21.567,3.344 22.004,3.860 22.009 C 4.016 22.010,5.203 21.729,8.039 21.020 L 12.000 20.030 15.961 21.020 C 18.797 21.729,19.984 22.010,20.140 22.009 C 20.655 22.004,21.000 21.556,21.000 20.892 C 21.000 20.682,20.979 20.592,20.900 20.457 C 20.732 20.170,20.554 20.108,18.266 19.537 C 17.130 19.253,16.200 19.011,16.200 19.000 C 16.200 18.988,17.024 18.774,18.030 18.524 C 20.274 17.965,20.503 17.901,20.683 17.777 C 20.901 17.628,21.000 17.419,21.000 17.111 C 21.000 16.422,20.661 16.000,20.107 16.000 C 19.943 16.000,18.778 16.276,15.940 16.985 L 12.000 17.970 8.060 16.985 C 5.195 16.269,4.058 16.000,3.890 16.000 C 3.739 16.000,3.603 16.028,3.494 16.082 " stroke="none" fill="black" fill-rule="evenodd"></path></svg>