<svg xmlns="http://www.w3.org/2000/svg" width="24" height="24" viewBox="0 0 24 24" fill="none" stroke="currentColor" stroke-width="2" stroke-linecap="round" stroke-linejoin="round" class="icon icon-tabler icons-tabler-outline icon-tabler-file-type-vue"><path d="M6.499 2.043 C 5.393 2.228,4.488 3.024,4.114 4.140 L 4.020 4.420 4.009 8.311 C 4.001 10.892,4.011 12.253,4.039 12.355 C 4.144 12.747,4.433 12.961,4.896 12.991 C 5.381 13.022,5.699 12.882,5.880 12.558 L 5.980 12.380 6.000 8.560 C 6.022 4.280,5.999 4.597,6.321 4.283 C 6.622 3.992,6.514 4.000,9.947 4.000 L 13.000 4.000 13.000 5.632 C 13.000 7.399,13.010 7.507,13.225 7.930 C 13.361 8.199,13.801 8.639,14.070 8.775 C 14.493 8.990,14.601 9.000,16.368 9.000 L 18.000 9.000 18.000 10.610 C 18.000 11.565,18.017 12.279,18.041 12.365 C 18.148 12.750,18.437 12.962,18.896 12.991 C 19.381 13.022,19.699 12.882,19.880 12.558 L 19.980 12.380 19.980 10.000 L 19.980 7.620 19.890 7.452 C 19.841 7.360,19.724 7.231,19.630 7.165 C 19.498 7.073,15.263 2.838,14.719 2.254 C 14.473 1.991,14.626 2.000,10.463 2.005 C 8.393 2.007,6.609 2.025,6.499 2.043 M15.800 6.220 L 16.579 7.000 15.790 7.000 L 15.000 7.000 15.000 6.220 C 15.000 5.791,15.005 5.440,15.010 5.440 C 15.016 5.440,15.371 5.791,15.800 6.220 M3.918 14.001 C 3.297 14.103,2.905 14.528,2.980 15.015 C 3.015 15.237,5.026 21.290,5.143 21.524 C 5.397 22.030,5.906 22.161,6.480 21.868 C 6.833 21.687,6.823 21.712,7.953 18.313 C 8.526 16.590,9.006 15.106,9.020 15.015 C 9.104 14.472,8.581 13.996,7.897 13.992 C 7.535 13.990,7.307 14.141,7.130 14.500 C 7.086 14.588,6.819 15.357,6.536 16.210 C 6.253 17.063,6.011 17.760,6.000 17.760 C 5.989 17.760,5.747 17.063,5.464 16.210 C 5.181 15.357,4.908 14.577,4.857 14.476 C 4.663 14.090,4.349 13.931,3.918 14.001 M10.614 14.057 C 10.377 14.131,10.212 14.261,10.109 14.453 L 10.020 14.620 10.020 17.320 L 10.020 20.020 10.131 20.320 C 10.399 21.044,10.964 21.608,11.680 21.868 C 11.948 21.965,12.035 21.976,12.500 21.976 C 12.966 21.976,13.051 21.965,13.320 21.867 C 14.039 21.606,14.604 21.041,14.869 20.320 L 14.980 20.020 14.980 17.320 L 14.980 14.620 14.889 14.450 C 14.724 14.140,14.329 13.970,13.874 14.011 C 13.439 14.051,13.141 14.274,13.041 14.635 C 13.016 14.725,13.000 15.703,13.000 17.200 C 13.000 19.529,12.997 19.625,12.922 19.748 C 12.774 19.991,12.487 20.065,12.253 19.922 C 12.012 19.776,12.022 19.879,12.000 17.140 C 11.980 14.629,11.980 14.619,11.891 14.453 C 11.842 14.362,11.746 14.247,11.678 14.199 C 11.414 14.010,10.957 13.950,10.614 14.057 M16.614 14.057 C 16.377 14.131,16.212 14.261,16.109 14.453 L 16.020 14.620 16.009 17.912 C 16.002 20.060,16.012 21.257,16.039 21.356 C 16.100 21.584,16.242 21.768,16.442 21.880 L 16.620 21.980 18.410 21.992 C 19.557 21.999,20.255 21.988,20.354 21.962 C 20.583 21.900,20.768 21.758,20.880 21.558 C 20.967 21.402,20.980 21.332,20.979 21.000 C 20.978 20.567,20.898 20.355,20.678 20.199 C 20.430 20.022,20.256 20.000,19.094 20.000 L 18.000 20.000 18.000 19.500 L 18.000 19.000 18.610 19.000 C 18.945 19.000,19.285 18.981,19.365 18.959 C 19.586 18.898,19.770 18.755,19.880 18.558 C 19.967 18.402,19.980 18.332,19.979 18.000 C 19.978 17.687,19.962 17.591,19.890 17.453 C 19.702 17.097,19.424 17.000,18.594 17.000 L 18.000 17.000 18.000 16.500 L 18.000 16.000 19.110 16.000 C 19.730 16.000,20.284 15.982,20.365 15.959 C 20.586 15.898,20.770 15.755,20.880 15.558 C 20.967 15.402,20.980 15.332,20.979 15.000 C 20.978 14.687,20.962 14.591,20.890 14.453 C 20.786 14.256,20.623 14.131,20.371 14.055 C 20.114 13.978,16.862 13.980,16.614 14.057 " stroke="none" fill="black" fill-rule="evenodd"></path></svg>