<svg xmlns="http://www.w3.org/2000/svg" width="24" height="24" viewBox="0 0 24 24" fill="none" stroke="currentColor" stroke-width="2" stroke-linecap="round" stroke-linejoin="round" class="icon icon-tabler icons-tabler-outline icon-tabler-arrow-bar-up"><path d="M11.771 2.977 C 11.524 3.056,11.249 3.228,11.173 3.352 C 11.136 3.411,10.211 4.360,9.117 5.460 C 7.754 6.831,7.101 7.516,7.040 7.637 C 6.863 7.990,6.952 8.354,7.299 8.701 C 7.646 9.048,8.011 9.137,8.363 8.960 C 8.479 8.901,8.961 8.452,9.770 7.647 L 11.000 6.423 11.000 10.321 C 11.000 12.810,11.015 14.272,11.041 14.365 C 11.148 14.750,11.437 14.962,11.896 14.991 C 12.381 15.022,12.699 14.882,12.880 14.558 L 12.980 14.380 12.991 10.402 L 13.002 6.425 14.231 7.648 C 15.039 8.452,15.521 8.901,15.637 8.960 C 15.989 9.137,16.354 9.048,16.701 8.701 C 17.048 8.354,17.137 7.989,16.960 7.637 C 16.899 7.516,16.234 6.818,14.866 5.439 C 13.763 4.327,12.829 3.370,12.790 3.311 C 12.711 3.191,12.292 2.974,12.080 2.943 C 12.003 2.932,11.864 2.947,11.771 2.977 M3.614 19.057 C 3.377 19.131,3.212 19.261,3.109 19.453 C 3.035 19.592,3.020 19.684,3.020 20.000 C 3.020 20.331,3.033 20.403,3.120 20.558 C 3.230 20.755,3.414 20.898,3.635 20.959 C 3.835 21.015,20.165 21.015,20.365 20.959 C 20.586 20.898,20.770 20.755,20.880 20.558 C 20.967 20.402,20.980 20.332,20.979 20.000 C 20.978 19.567,20.898 19.355,20.678 19.199 C 20.386 18.990,20.799 19.000,11.984 19.003 C 5.367 19.005,3.748 19.015,3.614 19.057 " stroke="none" fill="black" fill-rule="evenodd"></path></svg>