<svg xmlns="http://www.w3.org/2000/svg" width="24" height="24" viewBox="0 0 24 24" fill="none" stroke="currentColor" stroke-width="2" stroke-linecap="round" stroke-linejoin="round" class="icon icon-tabler icons-tabler-outline icon-tabler-number-28-small"><path d="M5.614 7.057 C 5.377 7.131,5.212 7.261,5.109 7.453 C 5.035 7.592,5.020 7.684,5.020 8.000 C 5.020 8.331,5.033 8.403,5.120 8.558 C 5.230 8.755,5.414 8.898,5.635 8.959 C 5.721 8.983,6.435 9.000,7.390 9.000 L 9.000 9.000 9.000 10.000 L 9.000 11.000 7.870 11.002 C 6.595 11.005,6.391 11.035,5.983 11.281 C 5.703 11.449,5.354 11.816,5.219 12.083 C 5.019 12.478,5.000 12.640,5.000 14.000 C 5.000 15.368,5.018 15.521,5.225 15.930 C 5.361 16.199,5.801 16.639,6.070 16.775 C 6.497 16.991,6.591 17.000,8.478 17.000 C 9.522 17.000,10.278 16.983,10.365 16.959 C 10.586 16.898,10.770 16.755,10.880 16.558 C 10.967 16.402,10.980 16.332,10.979 16.000 C 10.978 15.567,10.898 15.355,10.678 15.199 C 10.416 15.012,10.290 15.000,8.594 15.000 L 7.000 15.000 7.000 14.000 L 7.000 13.000 8.132 13.000 C 9.358 13.000,9.528 12.979,9.930 12.775 C 10.196 12.640,10.638 12.200,10.771 11.937 C 10.979 11.527,11.000 11.352,10.999 10.014 C 10.999 8.682,10.974 8.463,10.781 8.083 C 10.646 7.816,10.297 7.449,10.017 7.281 C 9.578 7.017,9.468 7.005,7.520 7.005 C 6.204 7.005,5.739 7.018,5.614 7.057 M14.477 7.073 C 13.785 7.254,13.184 7.886,13.039 8.586 C 13.011 8.721,13.000 9.270,13.008 10.128 L 13.020 11.460 13.133 11.730 L 13.245 12.000 13.133 12.270 L 13.020 12.540 13.008 13.872 C 12.994 15.320,13.008 15.468,13.202 15.877 C 13.348 16.186,13.771 16.623,14.070 16.775 C 14.479 16.982,14.632 17.000,16.000 17.000 C 17.368 17.000,17.521 16.982,17.930 16.775 C 18.196 16.640,18.638 16.200,18.771 15.937 C 18.989 15.508,19.006 15.349,18.992 13.905 C 18.980 12.624,18.976 12.572,18.885 12.340 C 18.768 12.040,18.768 11.959,18.885 11.660 C 18.977 11.428,18.980 11.378,18.992 10.115 C 19.005 8.695,18.983 8.480,18.782 8.083 C 18.551 7.628,18.022 7.203,17.523 7.073 C 17.134 6.972,14.866 6.972,14.477 7.073 M17.000 10.000 L 17.000 11.000 16.000 11.000 L 15.000 11.000 15.000 10.000 L 15.000 9.000 16.000 9.000 L 17.000 9.000 17.000 10.000 M17.000 14.000 L 17.000 15.000 16.000 15.000 L 15.000 15.000 15.000 14.000 L 15.000 13.000 16.000 13.000 L 17.000 13.000 17.000 14.000 " stroke="none" fill="black" fill-rule="evenodd"></path></svg>