<svg xmlns="http://www.w3.org/2000/svg" width="24" height="24" viewBox="0 0 24 24" fill="none" stroke="currentColor" stroke-width="2" stroke-linecap="round" stroke-linejoin="round" class="icon icon-tabler icons-tabler-outline icon-tabler-trash-x"><path d="M9.477 2.073 C 8.806 2.249,8.238 2.823,8.060 3.508 C 8.014 3.685,8.000 3.994,8.000 4.868 L 8.000 6.000 5.906 6.000 C 3.674 6.000,3.592 6.006,3.322 6.199 C 3.139 6.329,3.030 6.573,3.009 6.900 C 2.967 7.552,3.261 7.937,3.842 7.990 C 3.973 8.001,4.080 8.018,4.080 8.026 C 4.080 8.035,4.296 10.638,4.560 13.811 C 4.957 18.583,5.054 19.628,5.124 19.860 C 5.408 20.812,6.180 21.580,7.160 21.886 L 7.460 21.980 12.000 21.980 L 16.540 21.980 16.840 21.886 C 17.820 21.580,18.592 20.812,18.876 19.860 C 18.946 19.628,19.043 18.583,19.440 13.811 C 19.704 10.638,19.920 8.035,19.920 8.026 C 19.920 8.018,20.025 8.002,20.153 7.990 C 20.397 7.968,20.655 7.860,20.765 7.734 C 20.933 7.543,20.978 7.387,20.978 7.000 C 20.978 6.567,20.899 6.356,20.678 6.199 C 20.408 6.006,20.326 6.000,18.094 6.000 L 16.000 6.000 15.999 4.890 C 15.999 3.691,15.970 3.456,15.781 3.083 C 15.646 2.816,15.297 2.449,15.017 2.281 C 14.564 2.008,14.524 2.005,12.000 2.005 C 9.992 2.005,9.711 2.012,9.477 2.073 M14.000 5.000 L 14.000 6.000 12.000 6.000 L 10.000 6.000 10.000 5.000 L 10.000 4.000 12.000 4.000 L 14.000 4.000 14.000 5.000 M17.900 8.150 C 17.889 8.232,17.681 10.712,17.439 13.660 C 17.198 16.608,16.981 19.112,16.958 19.224 C 16.906 19.483,16.725 19.730,16.486 19.871 L 16.300 19.980 12.000 19.980 L 7.700 19.980 7.516 19.872 C 7.324 19.759,7.151 19.563,7.076 19.373 C 7.051 19.311,6.827 16.812,6.578 13.820 C 6.329 10.828,6.116 8.295,6.104 8.190 L 6.084 8.000 12.002 8.000 L 17.921 8.000 17.900 8.150 M9.626 11.045 C 9.257 11.239,8.951 11.673,8.951 12.000 C 8.951 12.307,9.079 12.487,9.853 13.270 L 10.575 14.000 9.853 14.730 C 9.079 15.513,8.951 15.693,8.951 16.000 C 8.951 16.477,9.523 17.049,10.000 17.049 C 10.307 17.049,10.487 16.921,11.270 16.147 L 12.000 15.425 12.730 16.147 C 13.513 16.921,13.693 17.049,14.000 17.049 C 14.477 17.049,15.049 16.477,15.049 16.000 C 15.049 15.693,14.921 15.513,14.147 14.730 L 13.425 14.000 14.147 13.270 C 14.580 12.832,14.905 12.469,14.959 12.363 C 15.137 12.012,15.048 11.646,14.701 11.299 C 14.360 10.958,13.979 10.868,13.628 11.045 C 13.533 11.094,13.144 11.444,12.730 11.853 L 12.000 12.575 11.270 11.853 C 10.856 11.444,10.467 11.094,10.372 11.045 C 10.152 10.934,9.836 10.934,9.626 11.045 " stroke="none" fill="black" fill-rule="evenodd"></path></svg>