<svg xmlns="http://www.w3.org/2000/svg" width="24" height="24" viewBox="0 0 24 24" fill="none" stroke="currentColor" stroke-width="2" stroke-linecap="round" stroke-linejoin="round" class="icon icon-tabler icons-tabler-outline icon-tabler-brand-google-fit"><path d="M16.760 4.058 C 16.066 4.159,15.371 4.427,14.763 4.828 C 14.502 5.000,14.129 5.343,13.209 6.256 L 11.999 7.457 10.849 6.315 C 9.646 5.118,9.412 4.917,8.920 4.648 C 8.216 4.264,7.557 4.083,6.749 4.050 C 4.842 3.973,3.089 5.003,2.240 6.700 C 1.861 7.457,1.712 8.080,1.713 8.900 C 1.713 9.656,1.854 10.296,2.163 10.955 C 2.533 11.746,2.442 11.647,7.117 16.326 C 10.237 19.449,11.510 20.698,11.637 20.761 C 11.868 20.876,12.132 20.876,12.363 20.761 C 12.490 20.698,13.766 19.446,16.903 16.306 C 21.503 11.702,21.477 11.729,21.831 11.020 C 22.374 9.929,22.472 8.585,22.095 7.392 C 21.709 6.171,20.835 5.136,19.697 4.552 C 18.799 4.092,17.743 3.914,16.760 4.058 M18.300 6.121 C 19.064 6.356,19.712 6.921,20.066 7.661 C 20.237 8.020,20.319 8.405,20.319 8.860 C 20.319 9.353,20.235 9.711,20.016 10.160 L 19.831 10.540 15.916 14.460 L 12.001 18.380 9.970 16.350 L 7.940 14.320 11.540 10.716 C 13.520 8.734,15.301 6.970,15.498 6.796 C 15.996 6.357,16.478 6.120,17.060 6.026 C 17.330 5.982,18.022 6.035,18.300 6.121 M7.167 6.098 C 7.523 6.174,7.849 6.309,8.139 6.501 C 8.403 6.676,9.377 7.610,10.103 8.384 L 10.574 8.886 8.557 10.903 L 6.540 12.920 5.448 11.830 C 4.795 11.179,4.286 10.635,4.182 10.480 C 3.969 10.161,3.822 9.817,3.764 9.503 C 3.703 9.171,3.710 8.552,3.780 8.223 C 3.990 7.232,4.914 6.322,5.936 6.099 C 6.261 6.029,6.837 6.028,7.167 6.098 " stroke="none" fill="black" fill-rule="evenodd"></path></svg>