<svg xmlns="http://www.w3.org/2000/svg" width="24" height="24" viewBox="0 0 24 24" fill="none" stroke="currentColor" stroke-width="2" stroke-linecap="round" stroke-linejoin="round" class="icon icon-tabler icons-tabler-outline icon-tabler-cane"><path d="M11.200 2.039 C 10.617 2.117,10.207 2.250,9.623 2.551 C 8.667 3.044,7.712 4.014,7.158 5.052 C 6.948 5.448,6.908 5.742,7.033 5.986 C 7.243 6.398,7.872 6.710,8.274 6.602 C 8.511 6.538,8.687 6.366,8.946 5.946 C 9.261 5.436,9.466 5.178,9.823 4.845 C 10.195 4.497,10.571 4.267,10.989 4.131 C 11.251 4.045,11.373 4.029,11.760 4.031 C 12.303 4.033,12.646 4.111,13.173 4.354 C 14.787 5.100,15.325 6.313,14.791 8.000 C 14.725 8.209,14.617 8.487,14.551 8.617 C 14.486 8.747,13.009 11.483,11.269 14.697 C 9.530 17.911,8.072 20.630,8.030 20.740 C 7.870 21.152,7.992 21.512,8.380 21.780 C 8.922 22.153,9.433 22.115,9.745 21.677 C 9.892 21.471,16.181 9.855,16.403 9.380 C 16.593 8.974,16.777 8.412,16.888 7.900 C 17.013 7.320,17.014 6.287,16.890 5.792 C 16.666 4.898,16.352 4.345,15.703 3.699 C 15.459 3.456,15.116 3.162,14.940 3.046 C 14.287 2.614,13.416 2.246,12.700 2.100 C 12.317 2.022,11.561 1.992,11.200 2.039 " stroke="none" fill="black" fill-rule="evenodd"></path></svg>