<svg xmlns="http://www.w3.org/2000/svg" width="24" height="24" viewBox="0 0 24 24" fill="none" stroke="currentColor" stroke-width="2" stroke-linecap="round" stroke-linejoin="round" class="icon icon-tabler icons-tabler-outline icon-tabler-circle-letter-m"><path d="M11.080 2.045 C 9.507 2.184,7.883 2.751,6.540 3.630 C 5.905 4.045,5.499 4.378,4.919 4.958 C 2.953 6.926,1.919 9.544,2.013 12.320 C 2.084 14.439,2.752 16.328,4.033 18.040 C 4.430 18.570,5.305 19.464,5.800 19.847 C 7.242 20.961,8.787 21.624,10.600 21.907 C 11.247 22.008,12.753 22.008,13.400 21.907 C 15.638 21.557,17.504 20.620,19.062 19.062 C 20.620 17.504,21.557 15.638,21.907 13.400 C 22.008 12.753,22.008 11.247,21.907 10.600 C 21.624 8.786,20.959 7.238,19.847 5.800 C 19.510 5.365,18.639 4.494,18.200 4.154 C 16.133 2.555,13.646 1.818,11.080 2.045 M12.734 4.041 C 14.574 4.216,16.228 4.976,17.554 6.256 C 20.043 8.658,20.702 12.394,19.183 15.499 C 18.749 16.387,18.223 17.105,17.496 17.801 C 16.876 18.394,16.262 18.819,15.471 19.200 C 13.267 20.265,10.733 20.265,8.529 19.200 C 7.477 18.693,6.612 18.015,5.847 17.100 C 3.848 14.711,3.440 11.302,4.816 8.500 C 6.162 5.760,8.867 4.049,11.920 4.005 C 12.129 4.003,12.495 4.019,12.734 4.041 M14.597 7.039 C 14.518 7.081,14.391 7.185,14.313 7.271 C 14.236 7.356,13.699 8.217,13.120 9.183 C 12.541 10.149,12.050 10.963,12.028 10.991 C 12.000 11.028,11.696 10.553,10.917 9.251 C 10.327 8.266,9.774 7.385,9.687 7.292 C 9.398 6.987,8.859 6.917,8.444 7.130 C 8.244 7.233,8.104 7.409,8.041 7.635 C 7.986 7.833,7.986 16.167,8.041 16.365 C 8.148 16.750,8.437 16.962,8.896 16.991 C 9.381 17.022,9.699 16.882,9.880 16.558 L 9.980 16.380 9.992 14.003 L 10.003 11.626 10.602 12.622 C 11.228 13.662,11.358 13.834,11.618 13.968 C 11.915 14.121,12.392 14.006,12.689 13.708 C 12.761 13.636,13.081 13.141,13.400 12.607 L 13.980 11.638 14.000 14.009 L 14.020 16.380 14.120 16.558 C 14.287 16.856,14.572 17.000,15.000 17.000 C 15.428 17.000,15.713 16.856,15.880 16.558 L 15.980 16.380 15.980 12.040 L 15.980 7.700 15.872 7.516 C 15.611 7.072,14.981 6.836,14.597 7.039 " stroke="none" fill="black" fill-rule="evenodd"></path></svg>