<svg xmlns="http://www.w3.org/2000/svg" width="24" height="24" viewBox="0 0 24 24" fill="none" stroke="currentColor" stroke-width="2" stroke-linecap="round" stroke-linejoin="round" class="icon icon-tabler icons-tabler-outline icon-tabler-brackets-angle-off"><path d="M2.626 2.045 C 2.420 2.154,2.146 2.433,2.038 2.644 C 1.924 2.868,1.924 3.133,2.040 3.363 C 2.100 3.482,2.627 4.040,3.659 5.075 L 5.189 6.611 3.648 9.075 C 2.801 10.430,2.084 11.597,2.054 11.668 C 1.985 11.834,1.985 12.166,2.054 12.332 C 2.146 12.552,7.198 20.612,7.333 20.754 C 7.617 21.052,7.971 21.118,8.348 20.942 C 8.598 20.826,8.889 20.567,8.976 20.382 C 9.061 20.205,9.056 19.899,8.966 19.700 C 8.925 19.612,7.837 17.851,6.546 15.786 C 5.256 13.722,4.200 12.018,4.200 12.000 C 4.200 11.974,6.563 8.161,6.628 8.082 C 6.648 8.057,16.240 17.650,16.240 17.695 C 16.240 17.714,15.985 18.136,15.674 18.634 C 15.017 19.684,14.962 19.793,14.961 20.054 C 14.960 20.304,15.044 20.477,15.266 20.681 C 15.628 21.015,16.075 21.127,16.392 20.964 C 16.624 20.844,16.760 20.673,17.242 19.900 C 17.489 19.504,17.698 19.172,17.706 19.162 C 17.715 19.153,18.338 19.758,19.091 20.508 C 20.002 21.415,20.519 21.901,20.637 21.960 C 20.989 22.137,21.354 22.048,21.701 21.701 C 22.047 21.355,22.136 20.990,21.961 20.637 C 21.839 20.392,3.616 2.165,3.372 2.044 C 3.152 1.934,2.834 1.935,2.626 2.045 M15.755 3.015 C 15.442 3.127,15.087 3.432,14.998 3.665 C 14.938 3.823,14.955 4.125,15.034 4.300 C 15.075 4.388,16.163 6.149,17.454 8.214 C 18.744 10.278,19.800 11.982,19.800 12.001 C 19.800 12.019,19.447 12.598,19.015 13.287 C 18.583 13.976,18.187 14.630,18.135 14.740 C 17.906 15.225,18.111 15.692,18.678 15.979 C 19.097 16.191,19.429 16.149,19.720 15.845 C 19.894 15.663,21.872 12.537,21.958 12.307 C 22.017 12.151,22.011 11.823,21.946 11.668 C 21.854 11.448,16.802 3.388,16.667 3.246 C 16.412 2.978,16.088 2.896,15.755 3.015 M7.614 3.055 C 7.220 3.184,7.039 3.437,7.009 3.900 C 6.978 4.381,7.119 4.699,7.442 4.880 C 7.597 4.967,7.669 4.980,8.000 4.980 C 8.312 4.980,8.408 4.964,8.540 4.894 C 8.866 4.718,9.000 4.459,9.000 4.000 C 9.000 3.357,8.713 3.048,8.083 3.016 C 7.893 3.006,7.718 3.021,7.614 3.055 " stroke="none" fill="black" fill-rule="evenodd"></path></svg>