<svg xmlns="http://www.w3.org/2000/svg" width="24" height="24" viewBox="0 0 24 24" fill="none" stroke="currentColor" stroke-width="2" stroke-linecap="round" stroke-linejoin="round" class="icon icon-tabler icons-tabler-outline icon-tabler-list-numbers"><path d="M5.660 3.066 C 5.479 3.122,5.352 3.235,4.294 4.294 C 3.056 5.532,2.951 5.666,2.951 6.000 C 2.951 6.477,3.523 7.049,4.000 7.049 C 4.240 7.049,4.451 6.939,4.757 6.656 L 5.000 6.431 5.000 8.326 C 5.000 9.471,5.016 10.277,5.041 10.365 C 5.148 10.750,5.437 10.962,5.896 10.991 C 6.381 11.022,6.699 10.882,6.880 10.558 L 6.980 10.380 6.980 7.000 L 6.980 3.620 6.891 3.453 C 6.687 3.071,6.174 2.910,5.660 3.066 M10.614 5.057 C 10.377 5.131,10.212 5.261,10.109 5.453 C 10.035 5.592,10.020 5.684,10.020 6.000 C 10.020 6.331,10.033 6.403,10.120 6.558 C 10.230 6.755,10.414 6.898,10.635 6.959 C 10.834 7.014,20.166 7.014,20.365 6.959 C 20.586 6.898,20.770 6.755,20.880 6.558 C 20.967 6.402,20.980 6.332,20.979 6.000 C 20.978 5.567,20.898 5.355,20.678 5.199 C 20.392 4.995,20.526 5.000,15.484 5.003 C 11.740 5.005,10.746 5.016,10.614 5.057 M10.614 11.057 C 10.377 11.131,10.212 11.261,10.109 11.453 C 10.035 11.592,10.020 11.684,10.020 12.000 C 10.020 12.331,10.033 12.403,10.120 12.558 C 10.230 12.755,10.414 12.898,10.635 12.959 C 10.834 13.014,20.166 13.014,20.365 12.959 C 20.586 12.898,20.770 12.755,20.880 12.558 C 20.967 12.402,20.980 12.332,20.979 12.000 C 20.978 11.567,20.898 11.355,20.678 11.199 C 20.392 10.995,20.526 11.000,15.484 11.003 C 11.740 11.005,10.746 11.016,10.614 11.057 M5.499 13.040 C 4.371 13.245,3.455 14.054,3.122 15.140 C 3.018 15.479,2.972 16.113,3.035 16.344 C 3.146 16.749,3.428 16.961,3.896 16.991 C 4.592 17.035,4.918 16.762,4.996 16.072 C 5.045 15.645,5.108 15.490,5.318 15.287 C 5.714 14.902,6.305 14.911,6.701 15.307 C 6.891 15.497,7.029 15.841,6.985 16.013 C 6.934 16.206,6.423 16.679,4.833 18.006 C 3.002 19.533,2.959 19.578,2.961 19.964 C 2.962 20.239,3.065 20.467,3.290 20.692 C 3.603 21.005,3.558 21.000,6.037 21.000 C 7.376 21.000,8.276 20.984,8.365 20.959 C 8.586 20.898,8.770 20.755,8.880 20.558 C 8.967 20.402,8.980 20.332,8.979 20.000 C 8.978 19.572,8.898 19.355,8.686 19.204 C 8.460 19.044,8.352 19.024,7.562 19.002 L 6.784 18.980 7.222 18.615 C 7.774 18.155,8.500 17.403,8.670 17.115 C 8.920 16.694,8.978 16.472,8.978 15.940 C 8.978 15.551,8.961 15.403,8.885 15.160 C 8.583 14.181,7.811 13.407,6.861 13.129 C 6.500 13.023,5.832 12.980,5.499 13.040 M11.614 17.057 C 11.377 17.131,11.212 17.261,11.109 17.453 C 11.035 17.592,11.020 17.684,11.020 18.000 C 11.020 18.331,11.033 18.403,11.120 18.558 C 11.230 18.755,11.414 18.898,11.635 18.959 C 11.833 19.014,20.167 19.014,20.365 18.959 C 20.586 18.898,20.770 18.755,20.880 18.558 C 20.967 18.402,20.980 18.332,20.979 18.000 C 20.978 17.567,20.898 17.355,20.678 17.199 C 20.393 16.996,20.487 17.000,15.984 17.003 C 12.651 17.005,11.746 17.016,11.614 17.057 " stroke="none" fill="black" fill-rule="evenodd"></path></svg>