<svg xmlns="http://www.w3.org/2000/svg" width="24" height="24" viewBox="0 0 24 24" fill="none" stroke="currentColor" stroke-width="2" stroke-linecap="round" stroke-linejoin="round" class="icon icon-tabler icons-tabler-outline icon-tabler-cloud-search"><path d="M11.320 4.044 C 10.902 4.092,10.295 4.225,9.864 4.364 C 9.364 4.525,8.537 4.945,8.080 5.270 C 7.615 5.601,6.942 6.268,6.620 6.720 C 6.388 7.045,5.920 7.917,5.920 8.025 C 5.920 8.055,5.879 8.086,5.830 8.095 C 4.523 8.335,3.578 8.793,2.695 9.615 C 2.245 10.034,1.884 10.528,1.580 11.140 C 1.187 11.930,1.000 12.701,1.001 13.520 C 1.004 15.982,2.739 18.176,5.180 18.805 C 5.904 18.991,6.042 18.999,8.700 18.999 C 10.267 18.999,11.275 18.984,11.365 18.959 C 11.586 18.898,11.770 18.755,11.880 18.558 C 11.967 18.403,11.980 18.331,11.980 17.997 C 11.980 17.641,11.972 17.600,11.860 17.419 C 11.774 17.281,11.682 17.195,11.541 17.122 L 11.342 17.020 8.681 16.997 C 5.800 16.972,5.931 16.982,5.296 16.748 C 4.583 16.486,3.846 15.867,3.456 15.204 C 2.716 13.942,2.909 12.310,3.930 11.219 C 4.609 10.493,5.432 10.119,6.515 10.043 C 7.289 9.990,7.456 9.857,7.668 9.124 C 7.927 8.227,8.426 7.509,9.179 6.949 C 10.607 5.887,12.648 5.706,14.265 6.498 C 15.998 7.347,16.860 8.915,16.583 10.715 C 16.510 11.183,16.520 11.323,16.644 11.567 C 16.739 11.753,16.905 11.871,17.207 11.965 C 17.531 12.066,18.596 12.073,18.922 11.976 C 19.196 11.894,19.414 11.685,19.481 11.439 C 19.555 11.164,19.515 10.653,19.404 10.456 C 19.297 10.266,19.056 10.097,18.840 10.060 C 18.667 10.031,18.641 9.979,18.640 9.660 C 18.638 8.844,18.168 7.546,17.573 6.710 C 17.259 6.270,16.583 5.600,16.119 5.271 C 15.656 4.942,14.829 4.522,14.327 4.360 C 13.389 4.059,12.251 3.939,11.320 4.044 M17.358 14.061 C 16.230 14.237,15.143 14.974,14.569 15.953 C 13.320 18.083,14.233 20.785,16.512 21.704 C 17.475 22.092,18.529 22.091,19.498 21.700 C 19.691 21.622,19.887 21.532,19.933 21.500 C 20.012 21.444,20.052 21.476,20.738 22.155 C 21.512 22.921,21.693 23.049,22.000 23.049 C 22.477 23.049,23.049 22.477,23.049 22.000 C 23.049 21.693,22.921 21.512,22.155 20.738 C 21.476 20.052,21.444 20.012,21.500 19.933 C 21.619 19.762,21.844 19.135,21.921 18.757 C 22.070 18.024,21.994 17.230,21.705 16.516 C 21.172 15.197,20.001 14.269,18.605 14.058 C 18.144 13.989,17.816 13.990,17.358 14.061 M18.523 16.073 C 19.262 16.266,19.850 16.924,19.967 17.690 C 20.067 18.343,19.873 18.933,19.403 19.404 C 19.002 19.807,18.547 20.000,18.000 20.000 C 17.485 20.000,17.038 19.822,16.653 19.465 C 15.323 18.229,16.189 16.005,18.000 16.005 C 18.143 16.005,18.378 16.036,18.523 16.073 " stroke="none" fill="black" fill-rule="evenodd"></path></svg>