<svg xmlns="http://www.w3.org/2000/svg" width="24" height="24" viewBox="0 0 24 24" fill="none" stroke="currentColor" stroke-width="2" stroke-linecap="round" stroke-linejoin="round" class="icon icon-tabler icons-tabler-outline icon-tabler-mood-search"><path d="M11.080 2.045 C 9.507 2.184,7.883 2.751,6.540 3.630 C 5.905 4.045,5.499 4.378,4.919 4.958 C 2.953 6.926,1.919 9.544,2.013 12.320 C 2.084 14.439,2.752 16.328,4.033 18.040 C 4.430 18.570,5.305 19.464,5.800 19.847 C 7.524 21.179,9.476 21.901,11.580 21.986 C 12.410 22.019,12.669 21.934,12.880 21.558 C 12.967 21.402,12.980 21.332,12.979 21.000 C 12.978 20.687,12.962 20.591,12.890 20.453 C 12.726 20.143,12.405 20.000,11.872 20.000 C 10.261 20.000,8.463 19.369,7.100 18.325 C 6.747 18.055,6.190 17.510,5.847 17.100 C 4.102 15.014,3.551 12.113,4.403 9.502 C 4.953 7.820,6.121 6.296,7.620 5.309 C 9.618 3.993,12.199 3.653,14.498 4.403 C 16.483 5.051,18.172 6.504,19.130 8.386 C 19.669 9.444,19.919 10.429,19.994 11.784 C 20.023 12.310,20.040 12.411,20.124 12.563 C 20.286 12.856,20.574 13.000,21.000 13.000 C 21.428 13.000,21.713 12.856,21.880 12.558 C 21.976 12.388,21.980 12.352,21.977 11.720 C 21.969 9.661,21.217 7.571,19.847 5.800 C 19.510 5.365,18.639 4.494,18.200 4.154 C 16.133 2.555,13.646 1.818,11.080 2.045 M8.614 9.055 C 8.220 9.184,8.039 9.437,8.009 9.900 C 7.978 10.381,8.119 10.699,8.442 10.880 C 8.597 10.967,8.669 10.980,9.000 10.980 C 9.312 10.980,9.408 10.964,9.540 10.894 C 9.866 10.718,10.000 10.459,10.000 10.000 C 10.000 9.357,9.713 9.048,9.083 9.016 C 8.893 9.006,8.718 9.021,8.614 9.055 M14.614 9.055 C 14.220 9.184,14.039 9.437,14.009 9.900 C 13.978 10.381,14.119 10.699,14.442 10.880 C 14.597 10.967,14.669 10.980,15.000 10.980 C 15.312 10.980,15.408 10.964,15.540 10.894 C 15.866 10.718,16.000 10.459,16.000 10.000 C 16.000 9.357,15.713 9.048,15.083 9.016 C 14.893 9.006,14.718 9.021,14.614 9.055 M9.125 14.051 C 9.029 14.100,8.857 14.240,8.743 14.363 C 8.286 14.857,8.343 15.274,8.947 15.840 C 9.677 16.524,10.660 16.928,11.740 16.986 C 12.393 17.021,12.681 16.913,12.880 16.558 C 12.967 16.402,12.980 16.332,12.979 16.000 C 12.978 15.687,12.962 15.591,12.890 15.453 C 12.725 15.141,12.515 15.045,11.891 14.997 C 11.421 14.961,10.947 14.832,10.684 14.670 C 10.609 14.624,10.411 14.470,10.244 14.327 C 10.077 14.185,9.882 14.044,9.811 14.014 C 9.616 13.932,9.326 13.948,9.125 14.051 M17.358 14.061 C 16.230 14.237,15.143 14.974,14.569 15.953 C 13.320 18.083,14.233 20.785,16.512 21.704 C 17.475 22.092,18.529 22.091,19.498 21.700 C 19.691 21.622,19.887 21.532,19.933 21.500 C 20.012 21.444,20.052 21.476,20.738 22.155 C 21.512 22.921,21.693 23.049,22.000 23.049 C 22.477 23.049,23.049 22.477,23.049 22.000 C 23.049 21.693,22.921 21.512,22.155 20.738 C 21.476 20.052,21.444 20.012,21.500 19.933 C 21.619 19.762,21.844 19.135,21.921 18.757 C 22.070 18.024,21.994 17.230,21.705 16.516 C 21.172 15.197,20.001 14.269,18.605 14.058 C 18.144 13.989,17.816 13.990,17.358 14.061 M18.523 16.073 C 19.262 16.266,19.850 16.924,19.967 17.690 C 20.067 18.343,19.873 18.933,19.403 19.404 C 19.002 19.807,18.547 20.000,18.000 20.000 C 17.485 20.000,17.038 19.822,16.653 19.465 C 15.323 18.229,16.189 16.005,18.000 16.005 C 18.143 16.005,18.378 16.036,18.523 16.073 " stroke="none" fill="black" fill-rule="evenodd"></path></svg>