<svg xmlns="http://www.w3.org/2000/svg" width="24" height="24" viewBox="0 0 24 24" fill="none" stroke="currentColor" stroke-width="2" stroke-linecap="round" stroke-linejoin="round" class="icon icon-tabler icons-tabler-outline icon-tabler-slice"><path d="M17.620 3.046 C 17.518 3.098,14.712 5.870,9.940 10.632 C 5.804 14.759,2.373 18.178,2.316 18.229 C 2.191 18.340,2.001 18.679,1.958 18.867 C 1.900 19.125,2.049 19.555,2.257 19.728 C 2.436 19.876,2.793 20.038,2.983 20.055 C 3.091 20.066,3.342 20.110,3.540 20.154 C 5.351 20.559,7.424 20.603,9.280 20.275 C 12.414 19.723,15.290 18.200,17.492 15.925 C 17.916 15.487,18.038 15.280,18.038 15.000 C 18.038 14.676,17.926 14.515,17.151 13.733 L 16.423 12.998 19.147 10.269 C 21.058 8.355,21.898 7.487,21.961 7.363 C 22.076 7.132,22.076 6.868,21.961 6.637 C 21.841 6.397,18.611 3.163,18.372 3.044 C 18.151 2.934,17.836 2.935,17.620 3.046 M18.800 6.220 L 19.579 7.000 16.854 9.730 C 14.942 11.644,14.102 12.513,14.039 12.637 C 13.923 12.870,13.924 13.132,14.041 13.363 C 14.095 13.469,14.421 13.834,14.855 14.273 L 15.580 15.007 15.340 15.225 C 14.783 15.730,13.846 16.405,13.140 16.807 C 11.698 17.630,9.899 18.214,8.184 18.418 C 7.218 18.533,5.926 18.532,5.196 18.415 L 5.032 18.388 11.506 11.914 C 15.067 8.353,17.989 5.440,18.000 5.440 C 18.012 5.440,18.371 5.791,18.800 6.220 " stroke="none" fill="black" fill-rule="evenodd"></path></svg>