<svg xmlns="http://www.w3.org/2000/svg" width="24" height="24" viewBox="0 0 24 24" fill="none" stroke="currentColor" stroke-width="2" stroke-linecap="round" stroke-linejoin="round" class="icon icon-tabler icons-tabler-outline icon-tabler-key"><path d="M13.993 2.040 C 13.375 2.138,12.887 2.327,12.360 2.671 C 12.087 2.849,11.710 3.203,10.438 4.476 C 8.767 6.150,8.596 6.352,8.332 6.961 C 7.830 8.123,7.914 9.445,8.558 10.516 L 8.748 10.833 7.991 11.586 C 7.575 12.001,7.186 12.421,7.127 12.520 C 7.025 12.692,7.019 12.728,7.007 13.350 L 6.993 14.000 6.403 14.000 C 5.577 14.000,5.299 14.097,5.109 14.453 C 5.029 14.603,5.019 14.689,5.007 15.310 L 4.993 16.000 4.444 16.000 C 3.681 16.000,3.573 16.037,3.142 16.445 C 2.590 16.967,2.311 17.385,2.118 17.980 C 2.037 18.230,2.025 18.361,2.009 19.195 C 1.989 20.243,2.016 20.472,2.210 20.880 C 2.351 21.177,2.711 21.563,3.012 21.738 C 3.375 21.950,3.682 22.000,4.604 22.000 C 5.506 22.000,5.864 21.954,6.280 21.786 C 6.837 21.561,6.864 21.537,10.080 18.333 L 13.180 15.244 13.419 15.402 C 13.704 15.590,14.129 15.773,14.553 15.889 C 14.804 15.958,14.973 15.973,15.480 15.973 C 16.171 15.973,16.465 15.916,17.039 15.668 C 17.643 15.406,17.853 15.229,19.484 13.601 C 20.334 12.754,21.111 11.951,21.211 11.817 C 22.205 10.495,22.256 8.712,21.340 7.318 C 21.194 7.096,20.620 6.496,19.082 4.956 C 16.885 2.757,16.721 2.615,16.054 2.325 C 15.473 2.073,14.572 1.948,13.993 2.040 M15.154 4.114 C 15.269 4.158,15.447 4.248,15.551 4.315 C 15.655 4.382,16.624 5.324,17.705 6.408 C 19.477 8.187,19.682 8.406,19.798 8.645 C 20.055 9.175,20.054 9.785,19.798 10.315 C 19.684 10.550,19.502 10.748,18.185 12.072 C 17.368 12.893,16.621 13.617,16.524 13.681 C 15.960 14.058,15.222 14.095,14.599 13.780 C 14.488 13.723,14.227 13.515,14.019 13.317 C 13.475 12.799,13.198 12.700,12.803 12.886 C 12.664 12.951,11.795 13.794,9.180 16.402 C 7.288 18.288,5.677 19.865,5.600 19.906 C 5.482 19.969,5.346 19.982,4.727 19.993 L 3.994 20.006 4.007 19.273 C 4.021 18.474,4.033 18.428,4.285 18.141 L 4.408 18.000 5.314 18.000 C 5.812 18.000,6.285 17.981,6.365 17.959 C 6.586 17.898,6.770 17.755,6.880 17.558 C 6.974 17.391,6.981 17.338,6.994 16.690 L 7.008 16.000 7.614 16.000 C 7.947 16.000,8.285 15.981,8.365 15.959 C 8.586 15.898,8.770 15.755,8.880 15.558 C 8.978 15.384,8.980 15.360,8.993 14.400 L 9.005 13.420 10.021 12.399 C 11.087 11.326,11.198 11.181,11.198 10.860 C 11.198 10.605,11.070 10.387,10.678 9.975 C 10.117 9.387,9.930 8.883,10.030 8.235 C 10.122 7.639,10.163 7.587,11.875 5.875 C 13.246 4.504,13.449 4.316,13.680 4.205 C 13.823 4.136,14.021 4.062,14.120 4.041 C 14.386 3.985,14.913 4.023,15.154 4.114 M14.614 8.055 C 14.220 8.184,14.039 8.437,14.009 8.900 C 13.978 9.381,14.119 9.699,14.442 9.880 C 14.597 9.967,14.669 9.980,15.000 9.980 C 15.312 9.980,15.408 9.964,15.540 9.894 C 15.866 9.718,16.000 9.459,16.000 9.000 C 16.000 8.357,15.713 8.048,15.083 8.016 C 14.893 8.006,14.718 8.021,14.614 8.055 " stroke="none" fill="black" fill-rule="evenodd"></path></svg>