<svg xmlns="http://www.w3.org/2000/svg" width="24" height="24" viewBox="0 0 24 24" fill="none" stroke="currentColor" stroke-width="2" stroke-linecap="round" stroke-linejoin="round" class="icon icon-tabler icons-tabler-outline icon-tabler-currency-rubel"><path d="M7.614 4.057 C 7.377 4.131,7.212 4.261,7.109 4.453 L 7.020 4.620 7.009 7.310 L 6.998 10.000 6.405 10.000 C 5.577 10.000,5.300 10.097,5.109 10.453 C 5.035 10.592,5.020 10.684,5.020 11.000 C 5.020 11.331,5.033 11.403,5.120 11.558 C 5.230 11.755,5.414 11.898,5.635 11.959 C 5.715 11.981,6.055 12.000,6.390 12.000 L 7.000 12.000 7.000 13.000 L 7.000 14.000 6.406 14.000 C 5.577 14.000,5.300 14.097,5.109 14.453 C 5.035 14.592,5.020 14.684,5.020 15.000 C 5.020 15.331,5.033 15.403,5.120 15.558 C 5.230 15.755,5.414 15.898,5.635 15.959 C 5.715 15.981,6.055 16.000,6.390 16.000 L 7.000 16.000 7.000 17.610 C 7.000 18.565,7.017 19.279,7.041 19.365 C 7.148 19.750,7.437 19.962,7.896 19.991 C 8.381 20.022,8.699 19.882,8.880 19.558 L 8.980 19.380 8.992 17.690 L 9.004 16.000 11.612 16.000 C 13.236 16.000,14.275 15.984,14.365 15.959 C 14.586 15.898,14.770 15.755,14.880 15.558 C 14.967 15.402,14.980 15.332,14.979 15.000 C 14.978 14.567,14.898 14.355,14.678 14.199 C 14.403 14.003,14.363 14.000,11.594 14.000 L 9.000 14.000 9.000 13.000 L 9.000 12.000 11.684 12.000 C 14.204 12.000,14.391 11.995,14.757 11.921 C 16.117 11.643,17.193 10.755,17.704 9.488 C 18.090 8.530,18.090 7.469,17.705 6.516 C 17.172 5.197,16.001 4.269,14.605 4.058 C 14.070 3.978,7.871 3.977,7.614 4.057 M14.523 6.073 C 15.262 6.266,15.850 6.924,15.967 7.690 C 16.029 8.098,15.967 8.522,15.793 8.880 C 15.638 9.198,15.227 9.625,14.930 9.775 C 14.485 10.000,14.489 10.000,11.632 10.000 L 9.000 10.000 9.000 8.000 L 9.000 6.000 11.630 6.002 C 13.982 6.004,14.288 6.012,14.523 6.073 " stroke="none" fill="black" fill-rule="evenodd"></path></svg>