<svg xmlns="http://www.w3.org/2000/svg" width="24" height="24" viewBox="0 0 24 24" fill="none" stroke="currentColor" stroke-width="2" stroke-linecap="round" stroke-linejoin="round" class="icon icon-tabler icons-tabler-outline icon-tabler-shopping-cart-star"><path d="M3.614 2.057 C 3.377 2.131,3.212 2.261,3.109 2.453 C 3.035 2.592,3.020 2.684,3.020 3.000 C 3.020 3.331,3.033 3.403,3.120 3.558 C 3.230 3.755,3.414 3.898,3.635 3.959 C 3.715 3.981,4.054 4.000,4.390 4.000 L 5.000 4.000 5.000 10.073 L 5.000 16.145 4.670 16.313 C 3.922 16.693,3.365 17.355,3.114 18.160 C 2.979 18.594,2.979 19.406,3.114 19.840 C 3.421 20.826,4.174 21.579,5.160 21.886 C 5.594 22.021,6.406 22.021,6.840 21.886 C 7.826 21.579,8.579 20.826,8.886 19.840 C 9.032 19.372,9.015 18.479,8.854 18.057 C 8.835 18.010,8.905 18.000,9.268 18.000 C 9.797 18.000,10.052 17.934,10.229 17.751 C 10.418 17.556,10.486 17.355,10.486 16.997 C 10.486 16.491,10.303 16.196,9.909 16.064 C 9.748 16.010,9.497 16.000,8.359 16.000 L 7.000 16.000 7.000 15.000 L 7.000 14.000 9.853 14.000 C 13.009 14.000,12.987 14.002,13.229 13.751 C 13.418 13.556,13.486 13.355,13.486 12.997 C 13.486 12.491,13.303 12.196,12.909 12.064 C 12.740 12.008,12.371 12.000,9.859 12.000 L 7.000 12.000 7.000 9.040 C 7.000 7.412,7.010 6.080,7.023 6.080 C 7.182 6.080,18.820 6.926,18.832 6.939 C 18.842 6.948,18.746 7.672,18.621 8.548 C 18.495 9.424,18.391 10.248,18.389 10.380 C 18.383 10.859,18.602 11.130,19.098 11.258 C 19.492 11.360,19.783 11.321,20.035 11.130 C 20.301 10.930,20.327 10.816,20.681 8.340 C 21.027 5.928,21.040 5.740,20.890 5.450 C 20.786 5.247,20.535 5.085,20.251 5.037 C 20.070 5.007,7.306 4.080,7.067 4.080 C 7.017 4.080,7.005 3.960,6.993 3.350 C 6.979 2.691,6.969 2.604,6.890 2.453 C 6.786 2.256,6.622 2.131,6.371 2.055 C 6.117 1.979,3.859 1.981,3.614 2.057 M17.372 13.072 C 17.112 13.165,16.870 13.331,16.723 13.517 C 16.661 13.596,16.403 14.074,16.150 14.580 L 15.689 15.501 14.657 15.651 C 13.546 15.812,13.351 15.870,13.063 16.122 C 12.745 16.402,12.575 16.831,12.611 17.267 C 12.646 17.710,12.753 17.864,13.623 18.726 C 14.233 19.330,14.399 19.517,14.384 19.580 C 14.373 19.624,14.289 20.107,14.197 20.653 L 14.030 21.645 14.095 21.913 C 14.262 22.595,14.870 23.044,15.552 22.989 C 15.821 22.968,16.039 22.871,17.330 22.198 L 17.800 21.953 18.270 22.198 C 19.561 22.871,19.779 22.968,20.048 22.989 C 20.724 23.043,21.333 22.598,21.503 21.925 C 21.576 21.635,21.580 21.680,21.357 20.400 L 21.200 19.500 21.979 18.726 C 22.844 17.867,22.944 17.722,22.986 17.276 C 23.027 16.835,22.860 16.406,22.537 16.122 C 22.249 15.870,22.054 15.812,20.943 15.651 L 19.911 15.501 19.434 14.548 C 18.905 13.491,18.773 13.315,18.370 13.130 C 18.069 12.992,17.662 12.969,17.372 13.072 M18.121 16.405 C 18.445 17.059,18.612 17.261,18.907 17.352 C 18.991 17.378,19.336 17.439,19.672 17.487 L 20.285 17.574 19.787 18.077 C 19.512 18.354,19.259 18.638,19.223 18.709 C 19.109 18.939,19.107 19.150,19.216 19.772 C 19.273 20.097,19.320 20.390,19.320 20.423 C 19.320 20.465,19.131 20.386,18.690 20.158 C 18.091 19.848,18.047 19.832,17.800 19.832 C 17.553 19.832,17.509 19.848,16.910 20.158 C 16.417 20.412,16.280 20.468,16.280 20.415 C 16.280 20.378,16.327 20.084,16.384 19.763 C 16.493 19.150,16.492 18.939,16.377 18.709 C 16.341 18.638,16.088 18.354,15.813 18.077 L 15.315 17.574 15.928 17.487 C 16.264 17.439,16.609 17.378,16.693 17.352 C 16.988 17.261,17.155 17.059,17.479 16.405 C 17.643 16.072,17.788 15.800,17.800 15.800 C 17.812 15.800,17.957 16.072,18.121 16.405 M6.310 18.061 C 6.688 18.173,7.000 18.598,7.000 19.001 C 7.000 19.331,6.784 19.696,6.484 19.872 C 6.328 19.963,6.254 19.980,6.000 19.980 C 5.746 19.980,5.672 19.963,5.516 19.872 C 4.935 19.530,4.833 18.774,5.304 18.303 C 5.583 18.024,5.916 17.944,6.310 18.061 " stroke="none" fill="black" fill-rule="evenodd"></path></svg>