<svg xmlns="http://www.w3.org/2000/svg" width="24" height="24" viewBox="0 0 24 24" fill="none" stroke="currentColor" stroke-width="2" stroke-linecap="round" stroke-linejoin="round" class="icon icon-tabler icons-tabler-outline icon-tabler-sunrise"><path d="M11.530 2.085 C 11.392 2.152,11.248 2.254,11.210 2.311 C 11.171 2.369,10.463 3.101,9.635 3.938 C 8.635 4.949,8.099 5.520,8.040 5.637 C 7.863 5.989,7.952 6.354,8.299 6.701 C 8.646 7.048,9.012 7.137,9.363 6.959 C 9.469 6.905,9.832 6.580,10.270 6.147 L 11.000 5.425 11.000 7.322 C 11.000 8.470,11.016 9.277,11.041 9.365 C 11.148 9.750,11.437 9.962,11.896 9.991 C 12.381 10.022,12.699 9.882,12.880 9.558 L 12.980 9.380 12.992 7.404 L 13.004 5.428 13.732 6.149 C 14.168 6.581,14.531 6.905,14.637 6.959 C 14.988 7.137,15.354 7.048,15.701 6.701 C 16.048 6.355,16.137 5.990,15.961 5.637 C 15.841 5.397,12.611 2.163,12.372 2.044 C 12.124 1.921,11.842 1.935,11.530 2.085 M5.226 9.645 C 4.857 9.839,4.551 10.273,4.551 10.600 C 4.551 10.897,4.682 11.093,5.274 11.684 C 5.882 12.289,6.046 12.388,6.384 12.350 C 6.795 12.303,7.311 11.778,7.350 11.365 C 7.381 11.045,7.266 10.859,6.664 10.255 C 6.376 9.966,6.064 9.691,5.972 9.645 C 5.752 9.534,5.435 9.534,5.226 9.645 M18.020 9.647 C 17.782 9.770,16.822 10.744,16.723 10.961 C 16.558 11.325,16.651 11.662,17.017 12.018 C 17.400 12.393,17.766 12.453,18.152 12.205 C 18.417 12.035,19.249 11.179,19.359 10.961 C 19.537 10.612,19.448 10.246,19.101 9.899 C 18.761 9.559,18.366 9.467,18.020 9.647 M11.400 12.044 C 9.761 12.229,8.261 13.290,7.526 14.785 C 7.213 15.421,7.046 16.061,7.011 16.760 C 6.980 17.391,7.093 17.686,7.438 17.876 C 7.644 17.990,8.089 18.033,8.344 17.965 C 8.796 17.842,8.948 17.602,9.003 16.923 C 9.024 16.659,9.083 16.302,9.132 16.131 C 9.402 15.199,10.186 14.415,11.139 14.125 C 11.412 14.042,11.542 14.027,12.000 14.027 C 12.458 14.027,12.588 14.042,12.861 14.125 C 13.815 14.416,14.598 15.199,14.869 16.134 C 14.921 16.315,14.975 16.652,14.995 16.922 C 15.023 17.299,15.049 17.428,15.125 17.565 C 15.286 17.856,15.575 18.000,16.000 18.000 C 16.428 18.000,16.713 17.856,16.880 17.558 C 16.972 17.394,16.980 17.340,16.979 16.880 C 16.977 15.079,15.887 13.362,14.213 12.525 C 13.352 12.095,12.397 11.932,11.400 12.044 M2.614 16.057 C 2.377 16.131,2.212 16.261,2.109 16.453 C 2.035 16.592,2.020 16.684,2.020 17.000 C 2.020 17.331,2.033 17.403,2.120 17.558 C 2.230 17.755,2.414 17.898,2.635 17.959 C 2.823 18.012,4.177 18.012,4.365 17.959 C 4.586 17.898,4.770 17.755,4.880 17.558 C 4.967 17.402,4.980 17.332,4.979 17.000 C 4.978 16.687,4.962 16.591,4.890 16.453 C 4.786 16.256,4.623 16.131,4.371 16.055 C 4.126 15.982,2.851 15.983,2.614 16.057 M19.614 16.057 C 19.377 16.131,19.212 16.261,19.109 16.453 C 19.035 16.592,19.020 16.684,19.020 17.000 C 19.020 17.331,19.033 17.403,19.120 17.558 C 19.230 17.755,19.414 17.898,19.635 17.959 C 19.823 18.012,21.177 18.012,21.365 17.959 C 21.586 17.898,21.770 17.755,21.880 17.558 C 21.967 17.402,21.980 17.332,21.979 17.000 C 21.978 16.687,21.962 16.591,21.890 16.453 C 21.786 16.256,21.623 16.131,21.371 16.055 C 21.126 15.982,19.851 15.983,19.614 16.057 M2.614 20.057 C 2.377 20.131,2.212 20.261,2.109 20.453 C 2.035 20.592,2.020 20.684,2.020 21.000 C 2.020 21.331,2.033 21.403,2.120 21.558 C 2.230 21.755,2.414 21.898,2.635 21.959 C 2.835 22.015,21.165 22.015,21.365 21.959 C 21.586 21.898,21.770 21.755,21.880 21.558 C 21.967 21.402,21.980 21.332,21.979 21.000 C 21.978 20.567,21.898 20.355,21.678 20.199 C 21.385 19.990,21.877 20.000,11.984 20.003 C 4.546 20.005,2.748 20.015,2.614 20.057 " stroke="none" fill="black" fill-rule="evenodd"></path></svg>