<svg xmlns="http://www.w3.org/2000/svg" width="24" height="24" viewBox="0 0 24 24" fill="none" stroke="currentColor" stroke-width="2" stroke-linecap="round" stroke-linejoin="round" class="icon icon-tabler icons-tabler-outline icon-tabler-volume-2"><path d="M9.634 3.170 C 9.313 3.283,9.084 3.436,8.875 3.678 C 8.789 3.778,7.996 4.792,7.114 5.930 L 5.509 8.000 4.625 8.002 C 3.923 8.004,3.686 8.019,3.477 8.073 C 2.806 8.249,2.238 8.823,2.060 9.508 C 1.971 9.847,1.971 14.153,2.060 14.492 C 2.153 14.852,2.310 15.118,2.596 15.404 C 3.105 15.914,3.399 16.000,4.623 16.000 L 5.509 16.000 7.114 18.070 C 7.996 19.209,8.789 20.222,8.875 20.322 C 9.533 21.085,10.748 21.131,11.463 20.421 C 11.589 20.296,11.726 20.098,11.823 19.902 L 11.980 19.584 11.980 12.000 L 11.980 4.416 11.824 4.100 C 11.624 3.696,11.384 3.456,10.983 3.257 C 10.694 3.115,10.638 3.101,10.284 3.090 C 9.964 3.080,9.856 3.093,9.634 3.170 M9.990 15.243 L 9.980 18.486 8.475 16.551 C 7.647 15.486,6.932 14.541,6.886 14.451 C 6.795 14.274,6.661 14.161,6.403 14.046 C 6.254 13.979,6.142 13.975,5.120 13.992 L 4.000 14.011 4.000 12.007 L 4.000 10.004 5.131 9.992 C 6.252 9.980,6.264 9.979,6.461 9.879 C 6.641 9.787,6.816 9.578,8.320 7.646 L 9.980 5.514 9.990 8.757 C 9.996 10.541,9.996 13.459,9.990 15.243 M14.555 7.074 C 14.060 7.388,13.828 7.985,14.039 8.399 C 14.086 8.489,14.287 8.700,14.520 8.902 C 15.370 9.638,15.844 10.516,15.963 11.574 C 16.113 12.906,15.591 14.178,14.516 15.104 C 14.284 15.303,14.086 15.510,14.039 15.601 C 13.828 16.015,14.060 16.612,14.555 16.926 C 14.927 17.161,15.300 17.057,15.902 16.549 C 17.218 15.439,17.999 13.745,17.999 12.000 C 17.999 10.278,17.250 8.629,15.951 7.490 C 15.344 6.958,14.933 6.835,14.555 7.074 " stroke="none" fill="black" fill-rule="evenodd"></path></svg>