<svg xmlns="http://www.w3.org/2000/svg" width="24" height="24" viewBox="0 0 24 24" fill="none" stroke="currentColor" stroke-width="2" stroke-linecap="round" stroke-linejoin="round" class="icon icon-tabler icons-tabler-outline icon-tabler-archive"><path d="M4.499 3.043 C 3.380 3.232,2.460 4.049,2.114 5.160 C 1.979 5.594,1.979 6.406,2.114 6.840 C 2.363 7.640,2.928 8.314,3.660 8.684 L 3.980 8.845 4.000 13.713 L 4.020 18.580 4.114 18.860 C 4.446 19.851,5.184 20.582,6.160 20.886 L 6.460 20.980 12.000 20.980 L 17.540 20.980 17.840 20.886 C 18.816 20.582,19.554 19.851,19.886 18.860 L 19.980 18.580 20.000 13.713 L 20.020 8.845 20.340 8.684 C 21.072 8.314,21.637 7.640,21.886 6.840 C 22.021 6.406,22.021 5.594,21.886 5.160 C 21.582 4.183,20.832 3.428,19.861 3.121 L 19.540 3.020 12.120 3.014 C 8.039 3.011,4.609 3.024,4.499 3.043 M19.310 5.061 C 19.688 5.173,20.000 5.598,20.000 6.001 C 20.000 6.331,19.784 6.696,19.484 6.872 L 19.300 6.980 12.000 6.980 L 4.700 6.980 4.516 6.872 C 3.935 6.530,3.833 5.774,4.304 5.303 C 4.421 5.185,4.552 5.100,4.673 5.063 C 4.964 4.974,19.009 4.971,19.310 5.061 M18.000 13.554 C 18.000 18.497,18.008 18.318,17.779 18.618 C 17.718 18.698,17.585 18.813,17.484 18.872 L 17.300 18.980 12.000 18.980 L 6.700 18.980 6.516 18.872 C 6.415 18.813,6.284 18.700,6.225 18.623 C 5.989 18.314,6.000 18.557,6.000 13.575 L 6.000 9.000 12.000 9.000 L 18.000 9.000 18.000 13.554 M9.614 11.057 C 9.377 11.131,9.212 11.261,9.109 11.453 C 9.035 11.592,9.020 11.684,9.020 12.000 C 9.020 12.331,9.033 12.403,9.120 12.558 C 9.230 12.755,9.414 12.898,9.635 12.959 C 9.831 13.014,14.169 13.014,14.365 12.959 C 14.586 12.898,14.770 12.755,14.880 12.558 C 14.967 12.402,14.980 12.332,14.979 12.000 C 14.978 11.567,14.898 11.355,14.678 11.199 C 14.406 11.005,14.336 11.000,11.984 11.003 C 10.293 11.005,9.741 11.017,9.614 11.057 " stroke="none" fill="black" fill-rule="evenodd"></path></svg>