<svg xmlns="http://www.w3.org/2000/svg" width="24" height="24" viewBox="0 0 24 24" fill="none" stroke="currentColor" stroke-width="2" stroke-linecap="round" stroke-linejoin="round" class="icon icon-tabler icons-tabler-outline icon-tabler-coin-monero"><path d="M11.080 2.045 C 9.507 2.184,7.883 2.751,6.540 3.630 C 5.905 4.045,5.499 4.378,4.919 4.958 C 2.953 6.926,1.919 9.544,2.013 12.320 C 2.084 14.439,2.752 16.328,4.033 18.040 C 4.430 18.570,5.305 19.464,5.800 19.847 C 7.242 20.961,8.787 21.624,10.600 21.907 C 11.247 22.008,12.753 22.008,13.400 21.907 C 15.638 21.557,17.504 20.620,19.062 19.062 C 20.620 17.504,21.557 15.638,21.907 13.400 C 22.008 12.753,22.008 11.247,21.907 10.600 C 21.624 8.786,20.959 7.238,19.847 5.800 C 19.510 5.365,18.639 4.494,18.200 4.154 C 16.133 2.555,13.646 1.818,11.080 2.045 M12.734 4.041 C 14.574 4.216,16.228 4.976,17.554 6.256 C 19.767 8.392,20.556 11.623,19.580 14.550 L 19.430 15.000 18.216 15.000 L 17.002 15.000 16.991 11.850 L 16.980 8.700 16.871 8.514 C 16.591 8.039,16.049 7.834,15.628 8.044 C 15.519 8.099,14.853 8.734,13.730 9.853 L 12.000 11.577 10.270 9.852 C 8.561 8.148,8.537 8.126,8.303 8.059 C 7.725 7.892,7.178 8.142,7.041 8.635 C 7.015 8.726,7.000 9.930,7.000 11.890 L 7.000 15.000 5.785 15.000 L 4.570 15.000 4.420 14.550 C 3.757 12.562,3.901 10.363,4.816 8.500 C 6.162 5.760,8.867 4.049,11.920 4.005 C 12.129 4.003,12.495 4.019,12.734 4.041 M11.637 13.960 C 11.745 14.014,11.888 14.049,12.000 14.049 C 12.333 14.049,12.467 13.944,13.770 12.647 L 15.000 11.423 15.000 13.821 C 15.000 15.305,15.016 16.275,15.041 16.365 C 15.102 16.586,15.245 16.770,15.442 16.880 C 15.619 16.980,15.624 16.980,16.935 17.000 L 18.250 17.020 17.802 17.489 C 17.071 18.254,16.381 18.761,15.474 19.199 C 13.266 20.266,10.734 20.266,8.526 19.199 C 7.619 18.761,6.929 18.254,6.198 17.489 L 5.750 17.020 7.065 17.000 C 8.250 16.982,8.394 16.973,8.520 16.905 C 8.718 16.799,8.796 16.723,8.894 16.540 C 8.979 16.382,8.980 16.348,8.991 13.903 L 9.003 11.426 10.231 12.648 C 11.039 13.452,11.521 13.901,11.637 13.960 " stroke="none" fill="black" fill-rule="evenodd"></path></svg>