<svg xmlns="http://www.w3.org/2000/svg" width="24" height="24" viewBox="0 0 24 24" fill="none" stroke="currentColor" stroke-width="2" stroke-linecap="round" stroke-linejoin="round" class="icon icon-tabler icons-tabler-outline icon-tabler-circuit-ground-digital"><path d="M11.614 2.057 C 11.377 2.131,11.212 2.261,11.109 2.453 L 11.020 2.620 11.009 7.310 L 10.999 12.000 8.426 12.000 C 5.543 12.000,5.637 11.991,5.301 12.288 C 5.199 12.377,5.081 12.519,5.038 12.603 C 4.935 12.806,4.936 13.111,5.041 13.330 C 5.085 13.424,6.521 15.363,8.231 17.640 L 11.340 21.780 11.593 21.910 C 11.785 22.008,11.898 22.040,12.059 22.040 C 12.479 22.040,12.353 22.189,15.711 17.720 C 17.389 15.487,18.811 13.579,18.871 13.480 C 18.968 13.321,18.980 13.261,18.978 12.960 C 18.976 12.570,18.889 12.349,18.678 12.199 C 18.403 12.003,18.363 12.000,15.594 12.000 L 13.002 12.000 12.991 7.310 L 12.980 2.620 12.891 2.453 C 12.842 2.362,12.746 2.247,12.678 2.199 C 12.414 2.010,11.957 1.950,11.614 2.057 M14.010 16.658 C 12.916 18.120,12.011 19.316,12.000 19.316 C 11.989 19.316,11.084 18.120,9.990 16.658 L 8.000 14.000 12.000 14.000 L 16.000 14.000 14.010 16.658 " stroke="none" fill="black" fill-rule="evenodd"></path></svg>