<svg xmlns="http://www.w3.org/2000/svg" width="24" height="24" viewBox="0 0 24 24" fill="none" stroke="currentColor" stroke-width="2" stroke-linecap="round" stroke-linejoin="round" class="icon icon-tabler icons-tabler-outline icon-tabler-svg"><path d="M3.477 7.073 C 2.806 7.249,2.238 7.823,2.060 8.508 C 2.013 8.687,2.000 9.009,2.000 10.000 C 2.000 11.368,2.018 11.521,2.225 11.930 C 2.361 12.199,2.801 12.639,3.070 12.775 C 3.472 12.979,3.642 13.000,4.868 13.000 L 6.000 13.000 6.000 14.000 L 6.000 15.000 4.406 15.000 C 2.710 15.000,2.584 15.012,2.322 15.199 C 2.100 15.357,2.020 15.568,2.020 16.000 C 2.020 16.331,2.033 16.403,2.120 16.558 C 2.230 16.755,2.414 16.898,2.635 16.959 C 2.722 16.983,3.478 17.000,4.522 17.000 C 6.409 17.000,6.503 16.991,6.930 16.775 C 7.196 16.640,7.638 16.200,7.771 15.937 C 7.979 15.527,8.000 15.352,7.999 14.014 C 7.999 12.682,7.974 12.463,7.781 12.083 C 7.646 11.816,7.297 11.449,7.017 11.281 C 6.609 11.035,6.405 11.005,5.130 11.002 L 4.000 11.000 4.000 10.000 L 4.000 9.000 5.610 9.000 C 6.565 9.000,7.279 8.983,7.365 8.959 C 7.586 8.898,7.770 8.755,7.880 8.558 C 7.967 8.402,7.980 8.332,7.979 8.000 C 7.978 7.567,7.898 7.355,7.678 7.199 C 7.413 7.010,7.301 7.000,5.464 7.002 C 3.968 7.004,3.705 7.014,3.477 7.073 M9.619 7.070 C 9.193 7.222,9.000 7.476,9.000 7.886 C 9.000 8.124,10.481 16.098,10.581 16.403 C 10.660 16.642,10.894 16.868,11.140 16.942 C 11.408 17.023,12.592 17.023,12.860 16.942 C 13.106 16.868,13.340 16.642,13.419 16.403 C 13.452 16.302,13.822 14.393,14.242 12.160 C 15.081 7.695,15.077 7.721,14.871 7.410 C 14.798 7.299,14.691 7.212,14.532 7.134 C 14.329 7.034,14.255 7.020,13.937 7.020 C 13.610 7.020,13.558 7.031,13.411 7.128 C 13.109 7.328,13.093 7.386,12.531 10.390 C 12.250 11.892,12.011 13.120,12.000 13.120 C 11.989 13.120,11.750 11.892,11.469 10.390 C 10.907 7.387,10.891 7.328,10.589 7.128 C 10.376 6.987,9.927 6.960,9.619 7.070 M18.499 7.043 C 17.383 7.230,16.461 8.048,16.114 9.160 L 16.020 9.460 16.020 12.000 L 16.020 14.540 16.114 14.840 C 16.419 15.817,17.158 16.562,18.140 16.884 C 18.405 16.971,18.492 16.976,19.804 16.991 C 20.715 17.001,21.243 16.992,21.348 16.963 C 21.583 16.900,21.767 16.760,21.880 16.558 L 21.980 16.380 21.980 14.000 L 21.980 11.620 21.891 11.453 C 21.785 11.256,21.622 11.131,21.371 11.055 C 21.117 10.979,19.883 10.979,19.629 11.055 C 19.224 11.177,19.040 11.428,19.009 11.900 C 18.968 12.532,19.251 12.922,19.797 12.987 L 20.000 13.011 20.000 14.009 L 20.000 15.007 19.350 14.993 C 18.728 14.981,18.692 14.975,18.516 14.872 C 18.415 14.813,18.284 14.700,18.225 14.623 C 18.000 14.327,18.000 14.332,18.000 12.022 C 18.000 9.586,17.997 9.609,18.303 9.303 C 18.588 9.018,18.692 9.000,20.057 9.000 C 20.713 9.000,21.283 8.982,21.365 8.959 C 21.586 8.898,21.770 8.755,21.880 8.558 C 21.967 8.402,21.980 8.332,21.979 8.000 C 21.978 7.567,21.898 7.355,21.678 7.199 C 21.423 7.017,21.269 7.000,19.944 7.005 C 19.260 7.007,18.609 7.025,18.499 7.043 " stroke="none" fill="black" fill-rule="evenodd"></path></svg>