<svg xmlns="http://www.w3.org/2000/svg" width="24" height="24" viewBox="0 0 24 24" fill="none" stroke="currentColor" stroke-width="2" stroke-linecap="round" stroke-linejoin="round" class="icon icon-tabler icons-tabler-outline icon-tabler-fridge-off"><path d="M2.626 2.045 C 2.257 2.239,1.951 2.673,1.951 3.000 C 1.951 3.321,2.070 3.479,3.064 4.481 L 3.998 5.422 4.009 12.501 L 4.020 19.580 4.114 19.860 C 4.446 20.851,5.184 21.582,6.160 21.886 L 6.460 21.980 12.000 21.980 L 17.540 21.980 17.839 21.886 C 18.394 21.712,18.773 21.473,19.196 21.033 L 19.397 20.823 19.928 21.346 C 20.221 21.633,20.540 21.909,20.637 21.959 C 20.988 22.137,21.353 22.049,21.701 21.701 C 22.048 21.354,22.137 20.989,21.959 20.637 C 21.888 20.496,20.619 19.150,19.748 18.293 C 19.668 18.213,10.991 9.538,10.760 9.306 C 10.705 9.251,9.580 8.126,8.260 6.806 C 6.940 5.486,5.815 4.360,5.760 4.304 C 5.005 3.532,3.504 2.112,3.372 2.045 C 3.152 1.934,2.836 1.934,2.626 2.045 M6.614 2.057 C 6.377 2.132,6.212 2.261,6.109 2.453 C 6.035 2.592,6.020 2.684,6.020 3.000 C 6.020 3.331,6.033 3.403,6.120 3.558 C 6.230 3.755,6.414 3.898,6.635 3.959 C 6.729 3.985,8.608 4.000,11.943 4.000 C 17.764 4.000,17.373 3.979,17.697 4.303 C 18.002 4.608,18.000 4.595,18.000 6.947 L 18.000 9.000 15.906 9.000 C 13.674 9.000,13.592 9.006,13.322 9.199 C 13.100 9.357,13.020 9.568,13.020 10.000 C 13.020 10.331,13.033 10.403,13.120 10.558 C 13.230 10.755,13.414 10.898,13.635 10.959 C 13.724 10.984,14.600 11.000,15.890 11.000 L 18.000 11.000 18.000 13.110 C 18.000 14.400,18.016 15.276,18.041 15.365 C 18.148 15.750,18.437 15.962,18.896 15.991 C 19.381 16.022,19.699 15.882,19.880 15.558 L 19.980 15.380 19.980 9.920 L 19.980 4.460 19.886 4.160 C 19.581 3.182,18.832 2.428,17.861 2.121 L 17.540 2.020 12.160 2.012 C 7.811 2.006,6.748 2.014,6.614 2.057 M6.800 8.220 L 7.579 9.000 6.790 9.000 L 6.000 9.000 6.000 8.220 C 6.000 7.791,6.005 7.440,6.010 7.440 C 6.016 7.440,6.371 7.791,6.800 8.220 M13.750 15.170 C 16.043 17.463,17.920 19.359,17.920 19.382 C 17.920 19.476,17.661 19.768,17.486 19.871 L 17.300 19.980 12.000 19.980 L 6.700 19.980 6.516 19.872 C 6.415 19.813,6.284 19.700,6.225 19.623 C 5.990 19.315,6.000 19.511,6.000 15.075 L 6.000 11.000 7.790 11.000 L 9.580 11.000 13.750 15.170 M8.614 12.057 C 8.377 12.131,8.212 12.261,8.109 12.453 C 8.021 12.618,8.020 12.647,8.008 14.410 C 8.001 15.557,8.012 16.255,8.038 16.354 C 8.144 16.747,8.433 16.961,8.896 16.991 C 9.381 17.022,9.699 16.882,9.880 16.558 L 9.980 16.380 9.980 14.500 C 9.980 12.633,9.979 12.619,9.891 12.453 C 9.842 12.362,9.746 12.247,9.678 12.199 C 9.414 12.010,8.957 11.950,8.614 12.057 " stroke="none" fill="black" fill-rule="evenodd"></path></svg>