<svg xmlns="http://www.w3.org/2000/svg" width="24" height="24" viewBox="0 0 24 24" fill="none" stroke="currentColor" stroke-width="2" stroke-linecap="round" stroke-linejoin="round" class="icon icon-tabler icons-tabler-outline icon-tabler-circuit-switch-open"><path d="M14.636 4.071 C 14.517 4.132,12.854 5.332,10.940 6.739 C 8.866 8.263,7.428 9.295,7.380 9.292 C 7.336 9.289,7.173 9.241,7.017 9.185 C 6.019 8.825,4.870 9.025,4.089 9.695 C 3.754 9.982,3.491 10.313,3.312 10.670 L 3.147 11.000 2.480 11.000 C 1.570 11.000,1.304 11.088,1.109 11.453 C 1.035 11.592,1.020 11.684,1.020 12.000 C 1.020 12.331,1.033 12.403,1.120 12.558 C 1.230 12.755,1.414 12.898,1.635 12.959 C 1.715 12.981,2.088 13.000,2.463 13.000 L 3.147 13.000 3.312 13.330 C 3.682 14.068,4.354 14.635,5.160 14.886 C 5.418 14.967,5.539 14.980,6.020 14.977 C 6.508 14.974,6.620 14.961,6.887 14.872 C 7.852 14.552,8.584 13.808,8.886 12.840 C 8.967 12.582,8.980 12.461,8.977 11.980 C 8.974 11.493,8.961 11.380,8.873 11.114 L 8.771 10.809 12.175 8.314 C 14.047 6.942,15.648 5.758,15.732 5.683 C 16.051 5.398,16.129 5.012,15.942 4.644 C 15.628 4.024,15.142 3.811,14.636 4.071 M17.499 9.040 C 16.363 9.246,15.460 10.049,15.114 11.160 C 14.979 11.594,14.979 12.406,15.114 12.840 C 15.421 13.826,16.174 14.579,17.160 14.886 C 17.594 15.021,18.406 15.021,18.840 14.886 C 19.645 14.635,20.318 14.069,20.688 13.330 L 20.853 13.000 21.537 13.000 C 21.912 13.000,22.285 12.981,22.365 12.959 C 22.586 12.898,22.770 12.755,22.880 12.558 C 22.967 12.402,22.980 12.332,22.979 12.000 C 22.978 11.687,22.962 11.591,22.890 11.453 C 22.697 11.088,22.430 11.000,21.520 11.000 L 20.853 11.000 20.688 10.670 C 20.320 9.935,19.631 9.354,18.861 9.129 C 18.500 9.023,17.832 8.980,17.499 9.040 M6.310 11.061 C 6.688 11.173,7.000 11.598,7.000 12.001 C 7.000 12.331,6.784 12.696,6.484 12.872 C 6.328 12.963,6.254 12.980,6.000 12.980 C 5.746 12.980,5.672 12.963,5.516 12.872 C 4.935 12.530,4.833 11.774,5.304 11.303 C 5.583 11.024,5.916 10.944,6.310 11.061 M18.310 11.061 C 18.688 11.173,19.000 11.598,19.000 12.001 C 19.000 12.331,18.784 12.696,18.484 12.872 C 18.328 12.963,18.254 12.980,18.000 12.980 C 17.746 12.980,17.672 12.963,17.516 12.872 C 16.935 12.530,16.833 11.774,17.304 11.303 C 17.583 11.024,17.916 10.944,18.310 11.061 " stroke="none" fill="black" fill-rule="evenodd"></path></svg>