<svg xmlns="http://www.w3.org/2000/svg" width="24" height="24" viewBox="0 0 24 24" fill="none" stroke="currentColor" stroke-width="2" stroke-linecap="round" stroke-linejoin="round" class="icon icon-tabler icons-tabler-outline icon-tabler-heart-cog"><path d="M7.360 3.026 C 6.162 3.208,5.471 3.463,4.598 4.045 C 4.166 4.333,3.397 5.077,3.113 5.480 C 2.372 6.534,1.996 7.723,1.998 9.000 C 2.002 10.483,2.516 11.856,3.469 12.924 C 3.618 13.091,4.856 14.332,6.220 15.682 C 7.584 17.032,9.321 18.751,10.080 19.504 C 10.993 20.408,11.520 20.901,11.637 20.960 C 11.989 21.137,12.354 21.048,12.701 20.701 C 13.048 20.354,13.137 19.989,12.960 19.637 C 12.877 19.474,11.288 17.880,6.105 12.762 C 5.056 11.726,4.734 11.361,4.500 10.943 C 3.870 9.817,3.837 8.356,4.415 7.212 C 4.639 6.769,4.809 6.532,5.150 6.186 C 5.969 5.355,6.989 4.959,8.180 5.011 C 9.402 5.065,10.316 5.550,11.233 6.631 C 11.599 7.062,11.944 7.155,12.382 6.941 C 12.552 6.858,12.678 6.745,12.925 6.457 C 14.845 4.212,18.357 4.666,19.618 7.323 C 19.862 7.835,19.968 8.332,19.975 8.980 C 19.978 9.398,19.961 9.621,19.906 9.860 C 19.822 10.224,19.610 10.763,19.453 11.010 C 19.276 11.292,19.160 11.593,19.160 11.775 C 19.160 12.132,19.486 12.505,19.952 12.680 C 20.525 12.897,20.882 12.643,21.364 11.678 C 21.576 11.252,21.773 10.677,21.886 10.154 C 22.004 9.611,22.014 8.540,21.907 7.960 C 21.546 6.004,20.217 4.315,18.416 3.526 C 16.414 2.649,14.100 2.925,12.357 4.248 L 11.999 4.520 11.770 4.333 C 10.964 3.676,9.924 3.220,8.860 3.057 C 8.535 3.007,7.611 2.988,7.360 3.026 M18.545 14.579 C 18.320 14.659,18.128 14.863,18.059 15.096 C 18.023 15.217,18.000 15.462,18.000 15.721 L 18.000 16.148 17.708 16.292 C 17.548 16.371,17.333 16.500,17.232 16.577 L 17.047 16.718 16.654 16.495 C 16.190 16.232,15.942 16.167,15.680 16.239 C 15.342 16.331,14.969 16.847,14.930 17.278 C 14.897 17.640,15.080 17.876,15.667 18.228 L 16.014 18.437 16.017 19.002 L 16.020 19.567 15.660 19.780 C 15.272 20.009,15.043 20.223,14.961 20.431 C 14.799 20.844,15.227 21.638,15.680 21.761 C 15.944 21.833,16.212 21.764,16.668 21.505 L 17.053 21.286 17.234 21.425 C 17.335 21.501,17.548 21.629,17.708 21.708 L 18.000 21.852 18.000 22.279 C 18.000 22.963,18.137 23.255,18.537 23.422 C 18.750 23.510,19.249 23.511,19.460 23.423 C 19.864 23.254,20.000 22.965,20.000 22.277 L 20.000 21.848 20.269 21.721 C 20.418 21.652,20.632 21.525,20.746 21.439 L 20.954 21.282 21.331 21.502 C 21.942 21.858,22.304 21.879,22.636 21.579 C 22.842 21.393,23.041 21.009,23.066 20.749 C 23.105 20.358,22.939 20.136,22.340 19.778 L 21.980 19.562 21.983 18.999 L 21.986 18.437 22.333 18.228 C 22.743 17.982,22.940 17.805,23.025 17.605 C 23.213 17.165,22.799 16.371,22.312 16.237 C 22.059 16.167,21.806 16.235,21.346 16.495 L 20.953 16.718 20.768 16.577 C 20.667 16.500,20.452 16.371,20.292 16.292 L 20.000 16.148 20.000 15.721 C 20.000 15.173,19.933 14.937,19.723 14.747 C 19.636 14.669,19.497 14.586,19.413 14.563 C 19.200 14.504,18.731 14.513,18.545 14.579 M19.260 18.044 C 19.497 18.107,19.701 18.263,19.849 18.494 C 19.968 18.679,19.980 18.727,19.980 19.003 C 19.980 19.287,19.970 19.322,19.831 19.531 C 19.613 19.859,19.389 19.980,19.000 19.979 C 18.665 19.978,18.526 19.923,18.308 19.705 C 18.104 19.501,18.022 19.300,18.022 19.000 C 18.022 18.334,18.621 17.871,19.260 18.044 " stroke="none" fill="black" fill-rule="evenodd"></path></svg>