<svg xmlns="http://www.w3.org/2000/svg" width="24" height="24" viewBox="0 0 24 24" fill="none" stroke="currentColor" stroke-width="2" stroke-linecap="round" stroke-linejoin="round" class="icon icon-tabler icons-tabler-outline icon-tabler-caravan"><path d="M14.820 3.020 C 14.710 3.049,13.042 3.750,11.113 4.577 C 9.185 5.404,7.577 6.080,7.542 6.080 C 7.506 6.080,7.338 6.109,7.169 6.143 C 4.842 6.624,2.925 8.403,2.261 10.700 C 2.024 11.520,2.020 11.571,2.020 14.160 L 2.020 16.540 2.114 16.840 C 2.419 17.818,3.164 18.568,4.140 18.882 C 4.385 18.961,4.529 18.974,5.286 18.990 L 6.151 19.009 6.314 19.334 C 6.682 20.069,7.357 20.636,8.160 20.886 C 8.594 21.021,9.406 21.021,9.840 20.886 C 10.640 20.637,11.314 20.072,11.684 19.340 L 11.845 19.020 15.213 19.000 L 18.580 18.979 18.860 18.886 C 19.667 18.616,20.324 18.057,20.688 17.330 L 20.853 17.000 21.537 17.000 C 21.912 17.000,22.285 16.981,22.365 16.959 C 22.586 16.898,22.770 16.755,22.880 16.558 C 22.967 16.402,22.980 16.332,22.979 16.000 C 22.978 15.687,22.962 15.591,22.890 15.453 C 22.702 15.097,22.423 15.000,21.595 15.000 L 21.003 15.000 20.991 11.710 L 20.979 8.420 20.886 8.140 C 20.557 7.157,19.810 6.413,18.861 6.125 C 18.572 6.038,18.449 6.026,17.632 6.010 L 16.724 5.992 16.336 4.826 C 16.123 4.185,15.916 3.595,15.876 3.515 C 15.763 3.290,15.598 3.115,15.422 3.035 C 15.232 2.949,15.093 2.945,14.820 3.020 M14.496 5.667 C 14.553 5.836,14.593 5.980,14.585 5.988 C 14.578 5.995,14.199 5.997,13.743 5.991 L 12.915 5.980 13.627 5.673 C 14.019 5.504,14.352 5.365,14.366 5.363 C 14.381 5.361,14.439 5.498,14.496 5.667 M18.315 8.062 C 18.589 8.144,18.857 8.413,18.939 8.690 C 18.992 8.866,19.000 9.389,19.000 12.501 C 19.000 16.415,19.005 16.321,18.779 16.618 C 18.718 16.698,18.585 16.813,18.484 16.872 L 18.300 16.980 15.077 16.991 L 11.854 17.002 11.688 16.671 C 11.321 15.938,10.642 15.363,9.861 15.125 C 9.588 15.042,9.458 15.027,9.000 15.027 C 8.542 15.027,8.412 15.042,8.139 15.125 C 7.357 15.363,6.679 15.938,6.311 16.673 L 6.144 17.006 5.422 16.993 C 4.721 16.980,4.695 16.977,4.516 16.872 C 4.415 16.813,4.284 16.700,4.225 16.623 C 4.001 16.330,4.000 16.314,4.000 14.225 C 4.000 13.067,4.018 12.157,4.044 11.940 C 4.289 9.940,5.919 8.294,7.900 8.045 C 8.054 8.026,10.415 8.008,13.148 8.006 C 17.432 8.003,18.143 8.011,18.315 8.062 M13.174 10.040 C 12.753 10.127,12.330 10.476,12.132 10.900 L 12.020 11.140 12.020 12.500 L 12.020 13.860 12.133 14.104 C 12.276 14.413,12.585 14.721,12.900 14.868 L 13.140 14.980 14.500 14.980 L 15.860 14.980 16.100 14.868 C 16.415 14.721,16.724 14.413,16.867 14.104 L 16.980 13.860 16.980 12.500 L 16.980 11.140 16.868 10.900 C 16.721 10.585,16.413 10.276,16.104 10.133 L 15.860 10.020 14.600 10.013 C 13.907 10.009,13.265 10.021,13.174 10.040 M15.000 12.500 L 15.000 13.000 14.500 13.000 L 14.000 13.000 14.000 12.500 L 14.000 12.000 14.500 12.000 L 15.000 12.000 15.000 12.500 M9.310 17.061 C 9.688 17.173,10.000 17.598,10.000 18.001 C 10.000 18.331,9.784 18.696,9.484 18.872 C 9.328 18.963,9.254 18.980,9.000 18.980 C 8.746 18.980,8.672 18.963,8.516 18.872 C 7.935 18.530,7.833 17.774,8.304 17.303 C 8.583 17.024,8.916 16.944,9.310 17.061 " stroke="none" fill="black" fill-rule="evenodd"></path></svg>