<svg xmlns="http://www.w3.org/2000/svg" width="24" height="24" viewBox="0 0 24 24" fill="none" stroke="currentColor" stroke-width="2" stroke-linecap="round" stroke-linejoin="round" class="icon icon-tabler icons-tabler-outline icon-tabler-no-copyright"><path d="M11.080 2.045 C 9.507 2.184,7.883 2.751,6.540 3.630 C 5.905 4.045,5.499 4.378,4.919 4.958 C 2.953 6.926,1.919 9.544,2.013 12.320 C 2.084 14.439,2.752 16.328,4.033 18.040 C 4.430 18.570,5.305 19.464,5.800 19.847 C 7.242 20.961,8.787 21.624,10.600 21.907 C 11.247 22.008,12.753 22.008,13.400 21.907 C 15.638 21.557,17.504 20.620,19.062 19.062 C 20.620 17.504,21.557 15.638,21.907 13.400 C 22.008 12.753,22.008 11.247,21.907 10.600 C 21.624 8.786,20.959 7.238,19.847 5.800 C 19.510 5.365,18.639 4.494,18.200 4.154 C 16.133 2.555,13.646 1.818,11.080 2.045 M12.734 4.041 C 14.574 4.216,16.228 4.976,17.554 6.256 C 20.044 8.659,20.701 12.389,19.183 15.501 C 18.952 15.974,18.392 16.880,18.330 16.880 C 18.316 16.880,18.016 16.595,17.663 16.248 C 17.306 15.897,16.949 15.581,16.860 15.538 C 16.652 15.438,16.346 15.439,16.140 15.540 C 15.926 15.644,15.614 15.961,15.519 16.170 C 15.476 16.264,15.442 16.412,15.442 16.500 C 15.442 16.795,15.568 16.978,16.241 17.658 C 16.592 18.014,16.880 18.317,16.880 18.331 C 16.880 18.392,15.935 18.977,15.480 19.197 C 13.265 20.265,10.737 20.267,8.529 19.200 C 7.477 18.693,6.612 18.015,5.847 17.100 C 3.847 14.709,3.440 11.305,4.818 8.496 C 5.050 8.022,5.608 7.120,5.669 7.120 C 5.682 7.120,5.992 7.414,6.357 7.773 C 7.091 8.496,7.238 8.589,7.584 8.550 C 7.995 8.503,8.511 7.978,8.550 7.565 C 8.582 7.238,8.470 7.066,7.753 6.337 C 7.405 5.984,7.120 5.684,7.120 5.670 C 7.120 5.608,8.019 5.052,8.496 4.818 C 9.815 4.171,11.277 3.903,12.734 4.041 M11.378 8.055 C 10.313 8.230,9.356 8.829,8.716 9.720 C 8.549 9.953,8.437 10.164,8.302 10.500 C 8.075 11.063,8.020 11.355,8.020 12.000 C 8.020 12.645,8.075 12.937,8.302 13.500 C 8.680 14.439,9.363 15.158,10.300 15.603 C 10.916 15.895,11.296 15.978,12.020 15.978 C 12.549 15.978,12.666 15.965,13.011 15.870 C 13.662 15.689,14.186 15.412,14.651 15.001 C 15.168 14.543,15.181 14.028,14.687 13.536 C 14.243 13.094,13.861 13.093,13.289 13.533 C 12.999 13.756,12.798 13.858,12.492 13.937 C 11.454 14.206,10.343 13.556,10.073 12.523 C 9.708 11.126,10.859 9.832,12.287 10.034 C 12.672 10.088,12.954 10.209,13.279 10.459 C 13.868 10.912,14.232 10.913,14.687 10.463 C 15.051 10.103,15.147 9.689,14.944 9.344 C 14.761 9.031,14.200 8.602,13.648 8.351 C 13.011 8.063,12.076 7.941,11.378 8.055 " stroke="none" fill="black" fill-rule="evenodd"></path></svg>