<svg xmlns="http://www.w3.org/2000/svg" width="24" height="24" viewBox="0 0 24 24" fill="none" stroke="currentColor" stroke-width="2" stroke-linecap="round" stroke-linejoin="round" class="icon icon-tabler icons-tabler-outline icon-tabler-current-location-off"><path d="M11.614 1.057 C 11.377 1.131,11.212 1.261,11.109 1.453 C 11.029 1.604,11.019 1.688,11.007 2.329 L 10.994 3.038 10.867 3.058 C 10.338 3.145,10.182 3.175,9.900 3.244 C 9.204 3.416,8.345 3.739,8.052 3.937 C 7.808 4.104,7.680 4.332,7.680 4.602 C 7.680 5.257,8.205 5.834,8.716 5.740 C 8.795 5.726,9.061 5.634,9.307 5.538 C 10.198 5.186,10.825 5.049,11.700 5.012 C 13.207 4.950,14.653 5.351,15.880 6.172 C 17.932 7.545,19.091 9.832,18.987 12.300 C 18.949 13.180,18.828 13.738,18.479 14.642 C 18.196 15.376,18.205 15.640,18.527 15.948 C 18.600 16.018,18.759 16.121,18.880 16.177 C 19.356 16.396,19.692 16.352,19.979 16.033 C 20.302 15.674,20.746 14.381,20.921 13.290 L 20.967 13.000 21.594 13.000 C 21.938 13.000,22.285 12.981,22.365 12.959 C 22.586 12.898,22.770 12.755,22.880 12.558 C 22.967 12.402,22.980 12.332,22.979 12.000 C 22.978 11.687,22.962 11.591,22.890 11.453 C 22.700 11.095,22.425 11.000,21.574 11.000 C 20.971 11.000,20.961 10.999,20.944 10.910 C 20.934 10.861,20.889 10.612,20.844 10.357 C 20.431 8.040,19.113 5.999,17.120 4.591 C 16.047 3.833,14.572 3.260,13.260 3.091 L 13.020 3.060 12.999 2.340 C 12.975 1.539,12.929 1.378,12.678 1.199 C 12.414 1.010,11.957 0.950,11.614 1.057 M2.626 2.045 C 2.420 2.154,2.146 2.433,2.038 2.644 C 1.924 2.868,1.924 3.133,2.040 3.363 C 2.099 3.481,2.599 4.013,3.541 4.960 L 4.953 6.380 4.693 6.740 C 3.864 7.886,3.282 9.299,3.076 10.670 L 3.026 11.000 2.419 11.000 C 1.576 11.000,1.300 11.095,1.109 11.453 C 1.035 11.592,1.020 11.684,1.020 12.000 C 1.020 12.331,1.033 12.403,1.120 12.558 C 1.230 12.755,1.414 12.898,1.635 12.959 C 1.715 12.981,2.061 13.000,2.404 13.000 L 3.029 13.000 3.056 13.230 C 3.071 13.356,3.118 13.631,3.162 13.840 C 3.895 17.371,6.629 20.105,10.160 20.838 C 10.369 20.882,10.643 20.929,10.770 20.944 L 11.000 20.971 11.000 21.596 C 11.000 21.939,11.019 22.285,11.041 22.365 C 11.148 22.750,11.437 22.962,11.896 22.991 C 12.381 23.022,12.699 22.882,12.880 22.558 C 12.974 22.390,12.981 22.339,12.994 21.676 L 13.008 20.973 13.334 20.924 C 14.721 20.716,16.152 20.120,17.320 19.265 L 17.620 19.046 19.040 20.458 C 19.987 21.401,20.519 21.901,20.637 21.960 C 20.989 22.137,21.354 22.048,21.701 21.701 C 22.047 21.355,22.137 20.990,21.961 20.637 C 21.897 20.509,19.811 18.394,14.466 13.040 C 4.930 3.486,3.582 2.150,3.372 2.044 C 3.152 1.934,2.835 1.934,2.626 2.045 M8.392 10.267 C 8.110 10.890,8.000 11.377,8.000 12.000 C 8.000 13.522,8.857 14.908,10.220 15.589 C 11.340 16.149,12.807 16.130,13.866 15.542 L 14.031 15.451 15.115 16.535 L 16.199 17.620 15.830 17.865 C 14.991 18.420,13.967 18.809,12.948 18.960 C 12.544 19.020,11.334 19.022,11.000 18.963 C 9.267 18.659,8.039 18.023,6.913 16.846 C 6.411 16.321,6.055 15.811,5.722 15.140 C 5.420 14.533,5.253 14.056,5.112 13.400 C 5.032 13.030,5.022 12.867,5.022 12.020 C 5.022 11.169,5.032 11.012,5.113 10.640 C 5.307 9.751,5.682 8.847,6.147 8.150 L 6.380 7.800 7.457 8.877 L 8.534 9.954 8.392 10.267 M12.924 8.293 C 12.495 8.455,12.138 9.188,12.279 9.616 C 12.353 9.842,12.495 9.980,12.893 10.216 C 13.325 10.472,13.526 10.669,13.777 11.087 C 14.089 11.605,14.362 11.769,14.765 11.683 C 15.164 11.597,15.593 11.283,15.683 11.011 C 15.794 10.675,15.619 10.165,15.196 9.594 C 14.565 8.743,13.439 8.098,12.924 8.293 M12.411 13.965 C 12.350 13.979,12.161 13.993,11.992 13.995 C 10.758 14.014,9.819 12.882,10.026 11.626 L 10.052 11.472 11.287 12.706 C 12.465 13.884,12.516 13.941,12.411 13.965 " stroke="none" fill="black" fill-rule="evenodd"></path></svg>