<svg xmlns="http://www.w3.org/2000/svg" width="24" height="24" viewBox="0 0 24 24" fill="none" stroke="currentColor" stroke-width="2" stroke-linecap="round" stroke-linejoin="round" class="icon icon-tabler icons-tabler-outline icon-tabler-map-pin-minus"><path d="M11.380 2.025 C 10.868 2.068,10.217 2.177,9.723 2.304 C 6.590 3.107,4.108 5.598,3.286 8.765 C 3.120 9.404,3.042 9.950,3.014 10.680 C 2.930 12.823,3.631 14.933,5.000 16.660 C 5.140 16.836,6.344 18.071,7.677 19.405 C 10.128 21.858,10.288 22.003,10.795 22.228 C 11.902 22.719,13.459 22.440,13.742 21.701 C 13.817 21.503,13.800 21.263,13.689 20.981 C 13.454 20.384,13.031 20.190,12.420 20.400 C 12.292 20.444,12.096 20.480,11.984 20.480 C 11.569 20.479,11.571 20.481,9.036 17.935 C 7.701 16.592,6.589 15.442,6.452 15.259 C 5.113 13.479,4.682 11.265,5.261 9.140 C 5.842 7.008,7.443 5.251,9.520 4.468 C 10.395 4.138,11.031 4.025,12.020 4.025 C 13.179 4.024,14.150 4.251,15.158 4.759 C 17.952 6.168,19.470 9.304,18.855 12.398 C 18.747 12.940,18.518 13.586,18.213 14.209 C 17.865 14.917,17.819 15.124,17.952 15.385 C 18.133 15.740,18.611 16.039,18.996 16.040 C 19.436 16.040,19.674 15.797,20.098 14.913 C 21.077 12.872,21.264 10.547,20.619 8.418 C 19.599 5.056,16.782 2.623,13.300 2.102 C 12.866 2.037,11.770 1.993,11.380 2.025 M11.358 7.061 C 10.230 7.237,9.143 7.974,8.569 8.953 C 7.320 11.083,8.233 13.785,10.512 14.704 C 12.558 15.528,14.877 14.538,15.704 12.488 C 16.090 11.530,16.090 10.469,15.705 9.516 C 15.172 8.197,14.001 7.269,12.605 7.058 C 12.144 6.989,11.816 6.990,11.358 7.061 M12.523 9.073 C 13.262 9.266,13.850 9.924,13.967 10.690 C 14.067 11.343,13.873 11.933,13.403 12.404 C 13.002 12.807,12.547 13.000,12.000 13.000 C 11.485 13.000,11.038 12.822,10.653 12.465 C 9.323 11.229,10.189 9.005,12.000 9.005 C 12.143 9.005,12.378 9.036,12.523 9.073 M15.614 18.057 C 15.377 18.131,15.212 18.261,15.109 18.453 C 15.035 18.592,15.020 18.684,15.020 19.000 C 15.020 19.331,15.033 19.403,15.120 19.558 C 15.230 19.755,15.414 19.898,15.635 19.959 C 15.832 20.014,22.168 20.014,22.365 19.959 C 22.586 19.898,22.770 19.755,22.880 19.558 C 22.967 19.402,22.980 19.332,22.979 19.000 C 22.978 18.567,22.898 18.355,22.678 18.199 C 22.398 17.999,22.411 18.000,18.984 18.003 C 16.472 18.005,15.744 18.017,15.614 18.057 " stroke="none" fill="black" fill-rule="evenodd"></path></svg>