<svg xmlns="http://www.w3.org/2000/svg" width="24" height="24" viewBox="0 0 24 24" fill="none" stroke="currentColor" stroke-width="2" stroke-linecap="round" stroke-linejoin="round" class="icon icon-tabler icons-tabler-outline icon-tabler-fence-off"><path d="M2.626 2.045 C 2.420 2.154,2.146 2.433,2.038 2.644 C 1.924 2.868,1.924 3.133,2.040 3.363 C 2.100 3.481,2.603 4.016,3.565 4.981 L 5.000 6.422 5.000 8.708 L 5.000 10.993 4.329 11.007 C 3.701 11.019,3.645 11.027,3.459 11.122 C 3.245 11.233,3.105 11.404,3.041 11.635 C 2.986 11.831,2.986 16.169,3.041 16.365 C 3.102 16.586,3.245 16.770,3.442 16.880 C 3.609 16.974,3.661 16.981,4.308 16.993 L 4.997 17.007 5.008 18.693 L 5.020 20.380 5.120 20.558 C 5.230 20.755,5.414 20.898,5.635 20.959 C 5.831 21.014,10.169 21.014,10.365 20.959 C 10.586 20.898,10.770 20.755,10.880 20.558 L 10.980 20.380 10.992 18.690 L 11.004 17.000 12.000 17.000 L 12.997 17.000 13.008 18.690 L 13.020 20.380 13.120 20.558 C 13.230 20.755,13.414 20.898,13.635 20.959 C 13.831 21.014,18.169 21.014,18.365 20.959 C 18.585 20.898,18.770 20.755,18.875 20.565 L 18.969 20.394 19.715 21.132 C 20.164 21.577,20.530 21.905,20.637 21.959 C 20.988 22.137,21.354 22.048,21.701 21.701 C 22.048 21.354,22.137 20.989,21.960 20.637 C 21.886 20.491,20.528 19.076,18.748 17.292 C 18.700 17.243,18.255 16.799,17.760 16.305 C 17.265 15.811,16.815 15.361,16.760 15.306 C 16.705 15.250,15.805 14.350,14.760 13.306 C 13.715 12.261,12.815 11.361,12.760 11.305 C 12.705 11.249,12.255 10.799,11.760 10.305 C 11.265 9.811,10.815 9.361,10.760 9.306 C 10.705 9.250,9.805 8.350,8.760 7.306 C 7.715 6.261,6.815 5.361,6.760 5.305 C 5.625 4.153,3.503 2.111,3.372 2.045 C 3.152 1.934,2.835 1.934,2.626 2.045 M7.626 3.045 C 7.420 3.154,7.146 3.433,7.038 3.644 C 6.924 3.868,6.924 4.132,7.040 4.363 C 7.162 4.607,9.393 6.838,9.637 6.960 C 9.990 7.137,10.354 7.048,10.701 6.701 C 11.048 6.354,11.137 5.990,10.960 5.637 C 10.842 5.400,8.608 3.162,8.372 3.044 C 8.152 2.934,7.835 2.935,7.626 3.045 M15.620 3.047 C 15.414 3.154,13.268 5.283,13.127 5.520 L 13.020 5.700 13.009 7.951 C 13.001 9.405,13.012 10.256,13.039 10.355 C 13.144 10.747,13.433 10.961,13.896 10.991 C 14.381 11.022,14.699 10.882,14.880 10.558 L 14.980 10.380 14.992 8.398 L 15.003 6.415 15.502 5.918 L 16.000 5.421 16.500 5.920 L 17.000 6.419 17.000 8.709 L 17.000 11.000 16.406 11.000 C 15.577 11.000,15.300 11.097,15.109 11.453 C 15.035 11.592,15.020 11.684,15.020 12.000 C 15.020 12.331,15.033 12.403,15.120 12.558 C 15.230 12.755,15.414 12.898,15.635 12.959 C 15.721 12.983,16.435 13.000,17.390 13.000 L 19.000 13.000 19.000 14.610 C 19.000 15.565,19.017 16.279,19.041 16.365 C 19.148 16.750,19.437 16.962,19.896 16.991 C 20.381 17.022,20.699 16.882,20.880 16.558 L 20.980 16.380 20.980 14.000 L 20.980 11.620 20.891 11.453 C 20.700 11.097,20.423 11.000,19.595 11.000 L 19.002 11.000 18.991 8.350 L 18.980 5.700 18.873 5.520 C 18.724 5.269,16.584 3.152,16.372 3.045 C 16.151 2.934,15.836 2.934,15.620 3.047 M9.000 10.710 L 9.000 11.000 8.000 11.000 L 7.000 11.000 7.000 9.710 L 7.000 8.421 8.000 9.420 L 9.000 10.419 9.000 10.710 M12.580 14.000 L 13.579 15.000 9.290 15.000 L 5.000 15.000 5.000 14.000 L 5.000 13.000 8.290 13.000 L 11.581 13.000 12.580 14.000 M9.000 18.000 L 9.000 19.000 8.000 19.000 L 7.000 19.000 7.000 18.000 L 7.000 17.000 8.000 17.000 L 9.000 17.000 9.000 18.000 M16.290 17.710 L 17.000 18.421 17.000 18.710 L 17.000 19.000 16.000 19.000 L 15.000 19.000 15.000 18.000 L 15.000 17.000 15.290 17.000 L 15.581 17.000 16.290 17.710 " stroke="none" fill="black" fill-rule="evenodd"></path></svg>