<svg xmlns="http://www.w3.org/2000/svg" width="24" height="24" viewBox="0 0 24 24" fill="none" stroke="currentColor" stroke-width="2" stroke-linecap="round" stroke-linejoin="round" class="icon icon-tabler icons-tabler-outline icon-tabler-quotes"><path d="M3.558 5.074 C 3.331 5.220,3.259 5.302,2.982 5.730 C 2.568 6.369,2.283 7.064,2.111 7.856 C 1.985 8.438,1.985 9.562,2.111 10.144 C 2.283 10.935,2.568 11.630,2.981 12.270 C 3.251 12.687,3.408 12.860,3.608 12.964 C 3.919 13.124,4.364 13.017,4.718 12.697 C 4.940 12.496,5.040 12.293,5.040 12.040 C 5.040 11.818,4.981 11.680,4.704 11.250 C 4.152 10.393,3.927 9.507,4.030 8.589 C 4.104 7.924,4.311 7.361,4.704 6.750 C 4.981 6.320,5.040 6.182,5.040 5.960 C 5.040 5.707,4.940 5.504,4.718 5.303 C 4.331 4.954,3.883 4.865,3.558 5.074 M7.558 5.074 C 7.331 5.220,7.259 5.302,6.982 5.730 C 6.568 6.369,6.283 7.064,6.111 7.856 C 5.985 8.438,5.985 9.562,6.111 10.144 C 6.283 10.935,6.568 11.630,6.981 12.270 C 7.251 12.687,7.408 12.860,7.608 12.964 C 7.919 13.124,8.364 13.017,8.718 12.697 C 8.940 12.496,9.040 12.293,9.040 12.040 C 9.040 11.818,8.981 11.680,8.704 11.250 C 8.311 10.639,8.104 10.076,8.030 9.411 C 7.927 8.493,8.152 7.607,8.704 6.750 C 8.981 6.320,9.040 6.182,9.040 5.960 C 9.040 5.707,8.940 5.504,8.718 5.303 C 8.331 4.954,7.883 4.865,7.558 5.074 M15.654 11.057 C 15.035 11.345,14.796 11.890,15.075 12.380 C 15.138 12.490,15.281 12.730,15.393 12.914 C 15.816 13.605,15.975 14.177,15.975 15.000 C 15.975 15.823,15.816 16.395,15.393 17.086 C 14.988 17.749,14.961 17.806,14.961 18.032 C 14.960 18.293,15.056 18.493,15.282 18.697 C 15.758 19.127,16.292 19.149,16.666 18.754 C 16.994 18.406,17.484 17.508,17.696 16.864 C 17.917 16.199,17.976 15.801,17.976 15.000 C 17.976 14.199,17.917 13.801,17.696 13.136 C 17.497 12.534,17.011 11.625,16.706 11.284 C 16.414 10.959,16.038 10.878,15.654 11.057 M19.654 11.057 C 19.035 11.345,18.796 11.890,19.075 12.380 C 19.138 12.490,19.281 12.730,19.393 12.914 C 19.816 13.605,19.975 14.177,19.975 15.000 C 19.975 15.823,19.816 16.395,19.393 17.086 C 18.988 17.749,18.961 17.806,18.961 18.032 C 18.960 18.293,19.056 18.493,19.282 18.697 C 19.758 19.127,20.292 19.149,20.666 18.754 C 20.994 18.406,21.484 17.508,21.696 16.864 C 21.917 16.199,21.976 15.801,21.976 15.000 C 21.976 14.199,21.917 13.801,21.696 13.136 C 21.497 12.534,21.011 11.625,20.706 11.284 C 20.414 10.959,20.038 10.878,19.654 11.057 " stroke="none" fill="black" fill-rule="evenodd"></path></svg>