<svg xmlns="http://www.w3.org/2000/svg" width="24" height="24" viewBox="0 0 24 24" fill="none" stroke="currentColor" stroke-width="2" stroke-linecap="round" stroke-linejoin="round" class="icon icon-tabler icons-tabler-outline icon-tabler-sum-off"><path d="M2.626 2.045 C 2.420 2.154,2.146 2.433,2.038 2.644 C 1.924 2.867,1.924 3.132,2.039 3.363 C 2.102 3.489,3.348 4.762,6.381 7.800 L 10.634 12.060 7.936 15.200 C 6.452 16.927,5.189 18.421,5.129 18.520 C 5.033 18.678,5.020 18.741,5.020 19.040 C 5.020 19.328,5.035 19.407,5.120 19.558 C 5.232 19.758,5.416 19.900,5.643 19.961 C 5.742 19.988,7.775 19.998,11.627 19.991 L 17.460 19.980 17.686 19.889 C 17.811 19.838,17.973 19.755,18.046 19.704 L 18.180 19.611 19.320 20.741 C 20.058 21.472,20.523 21.902,20.637 21.960 C 20.989 22.137,21.354 22.048,21.701 21.701 C 22.048 21.354,22.137 20.989,21.960 20.637 C 21.888 20.495,20.103 18.637,18.748 17.293 C 18.700 17.245,15.258 13.813,11.100 9.667 C 5.890 4.472,3.488 2.102,3.372 2.044 C 3.152 1.934,2.834 1.935,2.626 2.045 M8.614 4.057 C 8.377 4.131,8.212 4.261,8.109 4.453 C 8.035 4.592,8.020 4.684,8.020 5.000 C 8.020 5.331,8.033 5.403,8.120 5.558 C 8.230 5.755,8.414 5.898,8.635 5.959 C 8.728 5.985,10.260 6.000,12.890 6.000 L 17.000 6.000 17.000 7.110 C 17.000 7.730,17.018 8.284,17.041 8.365 C 17.148 8.750,17.437 8.962,17.896 8.991 C 18.381 9.022,18.699 8.882,18.880 8.558 L 18.980 8.380 18.992 7.097 C 19.006 5.700,18.983 5.481,18.782 5.083 C 18.646 4.816,18.297 4.449,18.017 4.281 C 17.539 3.993,17.749 4.005,13.020 4.005 C 9.652 4.005,8.746 4.016,8.614 4.057 M14.483 17.990 C 13.341 17.996,11.459 17.996,10.300 17.990 L 8.195 17.980 10.125 15.728 L 12.055 13.475 14.308 15.728 L 16.560 17.980 14.483 17.990 " stroke="none" fill="black" fill-rule="evenodd"></path></svg>