<svg xmlns="http://www.w3.org/2000/svg" width="24" height="24" viewBox="0 0 24 24" fill="none" stroke="currentColor" stroke-width="2" stroke-linecap="round" stroke-linejoin="round" class="icon icon-tabler icons-tabler-outline icon-tabler-map-pin-x"><path d="M11.340 2.027 C 8.131 2.292,5.329 4.182,3.937 7.020 C 2.384 10.184,2.793 13.876,5.004 16.663 C 5.280 17.011,9.564 21.338,10.031 21.740 C 10.582 22.215,11.140 22.435,11.881 22.469 C 12.268 22.487,12.397 22.476,12.681 22.405 C 13.584 22.177,14.136 21.699,14.069 21.203 C 14.013 20.780,13.644 20.286,13.320 20.200 C 13.075 20.134,12.871 20.170,12.506 20.343 C 12.225 20.477,12.173 20.489,11.947 20.471 C 11.810 20.460,11.626 20.414,11.539 20.368 C 11.322 20.257,6.768 15.680,6.454 15.260 C 5.605 14.120,5.167 12.988,5.039 11.600 C 4.806 9.079,6.019 6.573,8.154 5.166 C 10.032 3.929,12.409 3.668,14.499 4.470 C 17.569 5.648,19.399 8.794,18.915 12.060 C 18.859 12.441,18.742 12.900,18.578 13.391 C 18.421 13.857,18.406 14.101,18.517 14.345 C 18.691 14.729,19.396 15.020,19.815 14.882 C 20.150 14.771,20.325 14.506,20.574 13.734 C 21.296 11.495,21.090 9.048,19.998 6.875 C 19.636 6.156,19.000 5.282,18.400 4.680 C 16.862 3.137,14.902 2.223,12.740 2.041 C 12.287 2.003,11.698 1.997,11.340 2.027 M11.358 7.061 C 10.230 7.237,9.143 7.974,8.569 8.953 C 7.320 11.083,8.233 13.785,10.512 14.704 C 12.558 15.528,14.877 14.538,15.704 12.488 C 16.090 11.530,16.090 10.469,15.705 9.516 C 15.172 8.197,14.001 7.269,12.605 7.058 C 12.144 6.989,11.816 6.990,11.358 7.061 M12.523 9.073 C 13.262 9.266,13.850 9.924,13.967 10.690 C 14.067 11.343,13.873 11.933,13.403 12.404 C 13.002 12.807,12.547 13.000,12.000 13.000 C 11.485 13.000,11.038 12.822,10.653 12.465 C 9.323 11.229,10.189 9.005,12.000 9.005 C 12.143 9.005,12.378 9.036,12.523 9.073 M16.626 16.045 C 16.257 16.239,15.951 16.673,15.951 17.000 C 15.951 17.323,16.068 17.478,17.103 18.520 L 18.077 19.500 17.103 20.480 C 16.068 21.522,15.951 21.677,15.951 22.000 C 15.951 22.477,16.523 23.049,17.000 23.049 C 17.323 23.049,17.478 22.932,18.520 21.897 L 19.500 20.923 20.480 21.897 C 21.522 22.932,21.677 23.049,22.000 23.049 C 22.477 23.049,23.049 22.477,23.049 22.000 C 23.049 21.677,22.932 21.522,21.897 20.480 L 20.923 19.500 21.897 18.520 C 22.518 17.895,22.903 17.476,22.960 17.363 C 23.137 17.011,23.048 16.646,22.701 16.299 C 22.360 15.958,21.979 15.868,21.628 16.045 C 21.527 16.096,21.072 16.515,20.480 17.103 L 19.500 18.077 18.520 17.103 C 17.927 16.514,17.474 16.096,17.372 16.045 C 17.152 15.934,16.835 15.934,16.626 16.045 " stroke="none" fill="black" fill-rule="evenodd"></path></svg>