<svg xmlns="http://www.w3.org/2000/svg" width="24" height="24" viewBox="0 0 24 24" fill="none" stroke="currentColor" stroke-width="2" stroke-linecap="round" stroke-linejoin="round" class="icon icon-tabler icons-tabler-outline icon-tabler-a-b"><path d="M11.614 5.057 C 11.377 5.131,11.212 5.261,11.109 5.453 L 11.020 5.620 11.010 11.914 C 11.003 16.059,11.013 18.259,11.039 18.358 C 11.144 18.747,11.434 18.961,11.896 18.991 C 12.381 19.022,12.699 18.882,12.880 18.558 L 12.980 18.380 12.980 12.000 L 12.980 5.620 12.891 5.453 C 12.842 5.362,12.746 5.247,12.678 5.199 C 12.414 5.010,11.957 4.950,11.614 5.057 M4.873 7.060 C 4.136 7.200,3.468 7.565,2.958 8.105 C 2.561 8.525,2.317 8.950,2.131 9.548 L 2.021 9.900 2.009 13.050 C 2.001 15.138,2.011 16.252,2.038 16.354 C 2.144 16.747,2.432 16.961,2.896 16.991 C 3.381 17.022,3.699 16.882,3.880 16.558 L 3.980 16.380 3.992 14.690 L 4.004 13.000 5.502 13.000 L 7.000 13.000 7.000 14.610 C 7.000 15.565,7.017 16.279,7.041 16.365 C 7.148 16.750,7.437 16.962,7.896 16.991 C 8.381 17.022,8.699 16.882,8.880 16.558 L 8.980 16.380 8.991 13.320 C 8.999 11.350,8.988 10.164,8.961 9.992 C 8.748 8.609,7.722 7.468,6.378 7.118 C 5.959 7.009,5.280 6.983,4.873 7.060 M15.614 7.056 C 15.376 7.132,15.212 7.262,15.109 7.453 L 15.020 7.620 15.009 11.913 C 15.002 14.727,15.013 16.258,15.039 16.357 C 15.100 16.584,15.242 16.768,15.442 16.880 L 15.620 16.980 17.580 16.980 C 19.523 16.980,19.543 16.979,19.840 16.886 C 20.827 16.578,21.579 15.826,21.886 14.840 C 22.021 14.406,22.021 13.593,21.886 13.161 C 21.766 12.779,21.609 12.470,21.402 12.208 L 21.238 12.000 21.402 11.792 C 21.609 11.530,21.766 11.221,21.886 10.839 C 22.021 10.407,22.021 9.594,21.886 9.160 C 21.582 8.182,20.827 7.424,19.861 7.123 C 19.540 7.023,19.538 7.023,17.660 7.013 C 16.181 7.005,15.744 7.014,15.614 7.056 M6.119 9.143 C 6.417 9.279,6.728 9.592,6.862 9.892 C 6.951 10.090,6.974 10.210,6.991 10.566 L 7.011 11.000 5.500 11.000 L 3.989 11.000 4.009 10.565 C 4.026 10.206,4.049 10.088,4.137 9.895 C 4.326 9.479,4.751 9.129,5.174 9.039 C 5.441 8.982,5.870 9.030,6.119 9.143 M19.310 9.061 C 19.688 9.173,20.000 9.598,20.000 10.001 C 20.000 10.331,19.784 10.696,19.484 10.872 L 19.300 10.980 18.150 10.992 L 17.000 11.005 17.000 10.002 L 17.000 9.000 18.053 9.000 C 18.879 9.000,19.150 9.013,19.310 9.061 M19.310 13.061 C 19.688 13.173,20.000 13.598,20.000 14.001 C 20.000 14.331,19.784 14.696,19.484 14.872 L 19.300 14.980 18.150 14.992 L 17.000 15.005 17.000 14.002 L 17.000 13.000 18.053 13.000 C 18.879 13.000,19.150 13.013,19.310 13.061 " stroke="none" fill="black" fill-rule="evenodd"></path></svg>