<svg xmlns="http://www.w3.org/2000/svg" width="24" height="24" viewBox="0 0 24 24" fill="none" stroke="currentColor" stroke-width="2" stroke-linecap="round" stroke-linejoin="round" class="icon icon-tabler icons-tabler-outline icon-tabler-seeding-off"><path d="M2.626 2.045 C 2.420 2.154,2.146 2.433,2.038 2.644 C 1.933 2.850,1.924 3.134,2.018 3.316 C 2.075 3.426,2.078 3.475,2.038 3.653 C 1.970 3.958,2.012 6.710,2.092 7.140 C 2.375 8.660,3.015 9.897,4.059 10.941 C 5.103 11.985,6.342 12.626,7.860 12.908 C 8.086 12.949,8.594 12.973,9.590 12.988 L 11.000 13.008 11.000 16.614 C 11.000 18.906,11.015 20.273,11.041 20.365 C 11.148 20.750,11.437 20.962,11.896 20.991 C 12.381 21.022,12.699 20.882,12.880 20.558 L 12.980 20.380 12.992 18.190 L 13.003 16.000 13.791 16.000 L 14.579 16.000 17.519 18.936 C 19.589 21.002,20.513 21.898,20.637 21.961 C 20.990 22.137,21.354 22.048,21.701 21.701 C 22.048 21.354,22.137 20.990,21.960 20.637 C 21.898 20.513,20.962 19.544,18.853 17.420 C 17.193 15.748,15.789 14.335,15.733 14.280 C 15.678 14.225,15.004 13.550,14.237 12.780 C 13.470 12.010,12.789 11.329,12.725 11.266 C 12.561 11.107,4.868 3.415,4.753 3.296 C 4.375 2.901,3.501 2.112,3.367 2.044 C 3.153 1.934,2.835 1.935,2.626 2.045 M8.180 3.613 C 8.114 3.643,7.991 3.744,7.907 3.837 C 7.594 4.184,7.478 4.686,7.637 5.013 C 7.738 5.222,7.859 5.323,8.311 5.573 C 9.312 6.127,9.879 6.694,10.427 7.691 C 10.682 8.153,10.785 8.278,10.991 8.369 C 11.355 8.530,11.911 8.373,12.239 8.016 C 12.507 7.726,12.507 7.372,12.241 6.842 C 11.577 5.522,10.468 4.420,9.116 3.738 C 8.776 3.566,8.394 3.515,8.180 3.613 M6.800 8.224 L 9.580 11.007 8.940 10.987 C 8.059 10.958,7.495 10.824,6.785 10.474 C 5.675 9.928,4.774 8.933,4.320 7.752 C 4.118 7.228,4.000 6.506,4.000 5.802 C 4.000 5.603,4.005 5.440,4.010 5.440 C 4.016 5.440,5.271 6.693,6.800 8.224 M17.540 7.026 C 16.567 7.103,15.865 7.285,15.020 7.680 C 14.349 7.993,13.879 8.308,13.267 8.855 C 12.588 9.460,12.539 9.946,13.101 10.477 C 13.353 10.716,13.528 10.800,13.769 10.799 C 14.007 10.798,14.217 10.690,14.520 10.413 C 15.416 9.595,16.337 9.164,17.448 9.043 C 17.662 9.019,18.324 9.000,18.918 9.000 L 20.000 9.000 20.000 9.131 C 20.000 9.729,19.794 10.546,19.483 11.180 C 19.079 12.004,18.509 12.658,17.728 13.192 C 17.315 13.475,17.182 13.626,17.127 13.871 C 17.031 14.296,17.395 14.940,17.823 15.103 C 18.154 15.230,18.459 15.129,19.068 14.693 C 20.524 13.652,21.524 12.086,21.886 10.280 C 21.969 9.867,21.978 9.707,21.979 8.720 C 21.980 7.658,21.977 7.614,21.891 7.453 C 21.842 7.362,21.746 7.247,21.678 7.199 C 21.411 7.009,21.304 7.000,19.444 7.007 C 18.485 7.010,17.628 7.019,17.540 7.026 " stroke="none" fill="black" fill-rule="evenodd"></path></svg>