<svg xmlns="http://www.w3.org/2000/svg" width="24" height="24" viewBox="0 0 24 24" fill="none" stroke="currentColor" stroke-width="2" stroke-linecap="round" stroke-linejoin="round" class="icon icon-tabler icons-tabler-outline icon-tabler-pin-invoke"><path d="M3.477 4.073 C 2.806 4.249,2.238 4.823,2.060 5.508 C 2.008 5.706,2.000 6.577,2.000 12.000 C 2.000 18.828,1.988 18.462,2.225 18.930 C 2.361 19.199,2.801 19.639,3.070 19.775 C 3.542 20.014,2.983 20.000,12.000 20.000 C 21.017 20.000,20.458 20.014,20.930 19.775 C 21.196 19.640,21.638 19.200,21.771 18.937 C 22.005 18.476,22.004 18.496,21.991 15.429 L 21.980 12.620 21.889 12.450 C 21.724 12.140,21.329 11.970,20.874 12.011 C 20.439 12.051,20.141 12.274,20.041 12.635 C 20.016 12.725,20.000 13.765,20.000 15.390 L 20.000 18.000 12.000 18.000 L 4.000 18.000 4.000 12.000 L 4.000 6.000 8.610 6.000 C 11.575 6.000,13.272 5.985,13.365 5.959 C 13.586 5.898,13.770 5.755,13.880 5.558 C 13.967 5.402,13.980 5.332,13.979 5.000 C 13.978 4.567,13.898 4.355,13.678 4.199 C 13.392 3.995,13.527 4.000,8.464 4.002 C 4.132 4.004,3.718 4.010,3.477 4.073 M18.499 4.040 C 17.363 4.246,16.460 5.049,16.114 6.160 C 15.979 6.594,15.979 7.406,16.114 7.840 C 16.421 8.826,17.174 9.579,18.160 9.886 C 18.594 10.021,19.406 10.021,19.840 9.886 C 20.826 9.579,21.579 8.826,21.886 7.840 C 22.021 7.406,22.021 6.594,21.886 6.160 C 21.581 5.179,20.810 4.407,19.861 4.129 C 19.500 4.023,18.832 3.980,18.499 4.040 M19.310 6.061 C 19.688 6.173,20.000 6.598,20.000 7.001 C 20.000 7.331,19.784 7.696,19.484 7.872 C 19.328 7.963,19.254 7.980,19.000 7.980 C 18.746 7.980,18.672 7.963,18.516 7.872 C 17.935 7.530,17.833 6.774,18.304 6.303 C 18.583 6.024,18.916 5.944,19.310 6.061 M11.719 9.999 L 9.658 10.020 9.459 10.122 C 9.119 10.297,8.978 10.606,9.009 11.104 C 9.038 11.563,9.250 11.852,9.635 11.959 C 9.715 11.981,10.184 12.000,10.679 12.000 L 11.577 12.000 10.353 13.230 C 9.056 14.533,8.951 14.667,8.951 15.000 C 8.951 15.477,9.523 16.049,10.000 16.049 C 10.333 16.049,10.467 15.944,11.770 14.647 L 13.000 13.423 13.000 14.321 C 13.000 14.816,13.019 15.285,13.041 15.365 C 13.148 15.750,13.437 15.962,13.896 15.991 C 14.381 16.022,14.699 15.882,14.880 15.558 L 14.980 15.380 15.008 13.220 C 15.023 12.032,15.036 11.001,15.038 10.929 C 15.041 10.739,14.834 10.310,14.690 10.207 C 14.467 10.048,14.205 9.959,13.987 9.969 C 13.873 9.974,12.852 9.987,11.719 9.999 " stroke="none" fill="black" fill-rule="evenodd"></path></svg>