<svg xmlns="http://www.w3.org/2000/svg" width="24" height="24" viewBox="0 0 24 24" fill="none" stroke="currentColor" stroke-width="2" stroke-linecap="round" stroke-linejoin="round" class="icon icon-tabler icons-tabler-outline icon-tabler-arrow-right"><path d="M12.626 5.045 C 12.420 5.154,12.146 5.433,12.038 5.644 C 11.924 5.868,11.924 6.132,12.040 6.363 C 12.101 6.486,12.811 7.224,14.353 8.770 L 16.578 11.000 10.696 11.000 C 4.384 11.000,4.611 10.993,4.322 11.199 C 4.100 11.357,4.020 11.568,4.020 12.000 C 4.020 12.331,4.033 12.403,4.120 12.558 C 4.230 12.755,4.414 12.898,4.635 12.959 C 4.729 12.985,6.851 13.000,10.679 13.000 L 16.578 13.000 14.353 15.230 C 12.811 16.776,12.101 17.514,12.040 17.637 C 11.863 17.990,11.952 18.354,12.299 18.701 C 12.646 19.048,13.010 19.137,13.363 18.960 C 13.487 18.898,14.445 17.971,16.561 15.866 C 18.223 14.213,19.633 12.826,19.696 12.785 C 19.856 12.678,20.049 12.250,20.049 12.000 C 20.049 11.734,19.858 11.325,19.675 11.200 C 19.601 11.150,18.190 9.763,16.540 8.118 C 14.527 6.112,13.485 5.100,13.372 5.044 C 13.152 4.934,12.835 4.935,12.626 5.045 " stroke="none" fill="black" fill-rule="evenodd"></path></svg>