<svg xmlns="http://www.w3.org/2000/svg" width="24" height="24" viewBox="0 0 24 24" fill="none" stroke="currentColor" stroke-width="2" stroke-linecap="round" stroke-linejoin="round" class="icon icon-tabler icons-tabler-outline icon-tabler-sun-wind"><path d="M10.614 2.057 C 10.377 2.131,10.212 2.261,10.109 2.453 C 10.027 2.606,10.019 2.684,10.007 3.405 C 9.999 3.880,10.011 4.252,10.037 4.349 C 10.144 4.748,10.430 4.961,10.896 4.991 C 11.381 5.022,11.699 4.882,11.880 4.558 C 11.978 4.383,11.980 4.364,11.980 3.500 C 11.980 2.667,11.975 2.611,11.891 2.453 C 11.842 2.362,11.746 2.247,11.678 2.199 C 11.414 2.010,10.957 1.950,10.614 2.057 M4.226 4.645 C 3.857 4.839,3.551 5.273,3.551 5.600 C 3.551 5.897,3.682 6.093,4.274 6.684 C 4.882 7.289,5.046 7.388,5.384 7.350 C 5.795 7.303,6.311 6.778,6.350 6.365 C 6.381 6.045,6.266 5.859,5.664 5.255 C 5.376 4.966,5.064 4.691,4.972 4.645 C 4.752 4.534,4.435 4.534,4.226 4.645 M17.020 4.647 C 16.782 4.770,15.822 5.744,15.723 5.961 C 15.558 6.325,15.651 6.662,16.017 7.018 C 16.400 7.393,16.766 7.453,17.152 7.205 C 17.417 7.035,18.249 6.179,18.359 5.961 C 18.537 5.612,18.448 5.246,18.101 4.899 C 17.761 4.559,17.366 4.467,17.020 4.647 M10.225 7.063 C 9.134 7.233,8.165 7.746,7.369 8.575 C 6.710 9.262,6.305 10.044,6.092 11.040 C 5.983 11.554,5.994 12.576,6.114 13.059 C 6.446 14.397,7.153 15.429,8.232 16.150 C 8.907 16.602,9.323 16.621,9.679 16.215 C 10.002 15.847,10.122 15.356,9.964 15.048 C 9.871 14.867,9.792 14.795,9.372 14.503 C 8.386 13.820,7.885 12.729,8.039 11.600 C 8.177 10.591,8.785 9.745,9.690 9.303 C 10.134 9.086,10.424 9.024,11.000 9.023 C 11.587 9.022,11.860 9.084,12.340 9.326 C 12.880 9.599,13.151 9.849,13.564 10.453 C 13.884 10.920,14.079 11.052,14.420 11.032 C 14.968 10.999,15.516 10.530,15.519 10.092 C 15.522 9.731,15.121 9.072,14.546 8.489 C 14.132 8.068,13.783 7.812,13.260 7.546 C 12.333 7.074,11.256 6.903,10.225 7.063 M19.614 8.055 C 19.220 8.184,19.039 8.437,19.009 8.900 C 18.965 9.591,19.248 9.929,19.933 9.999 C 20.350 10.042,20.509 10.108,20.717 10.321 C 20.880 10.490,21.000 10.777,21.000 11.001 C 21.000 11.331,20.784 11.696,20.484 11.872 L 20.300 11.980 17.479 12.000 L 14.658 12.020 14.459 12.122 C 14.119 12.297,13.978 12.606,14.009 13.104 C 14.039 13.568,14.253 13.856,14.647 13.962 C 14.749 13.989,15.776 13.999,17.691 13.991 L 20.580 13.979 20.860 13.885 C 21.849 13.556,22.582 12.815,22.886 11.840 C 23.021 11.406,23.021 10.594,22.886 10.160 C 22.581 9.179,21.809 8.405,20.861 8.129 C 20.459 8.013,19.851 7.976,19.614 8.055 M1.614 11.057 C 1.377 11.131,1.212 11.261,1.109 11.453 C 1.035 11.592,1.020 11.684,1.020 12.000 C 1.020 12.331,1.033 12.403,1.120 12.558 C 1.230 12.755,1.414 12.898,1.635 12.959 C 1.823 13.012,3.177 13.012,3.365 12.959 C 3.586 12.898,3.770 12.755,3.880 12.558 C 3.967 12.402,3.980 12.332,3.979 12.000 C 3.978 11.687,3.962 11.591,3.890 11.453 C 3.786 11.256,3.623 11.131,3.371 11.055 C 3.126 10.982,1.851 10.983,1.614 11.057 M11.614 15.057 C 11.376 15.132,11.212 15.261,11.109 15.453 C 11.035 15.592,11.020 15.684,11.020 16.000 C 11.020 16.331,11.033 16.403,11.120 16.558 C 11.230 16.755,11.414 16.898,11.635 16.959 C 11.727 16.985,12.947 17.000,14.943 17.000 C 18.532 17.000,18.382 16.988,18.697 17.303 C 18.970 17.577,19.057 17.919,18.945 18.290 C 18.872 18.531,18.708 18.740,18.490 18.868 C 18.335 18.959,18.247 18.976,17.819 19.002 C 17.410 19.026,17.296 19.047,17.154 19.125 C 16.839 19.300,16.699 19.622,16.729 20.104 C 16.759 20.572,16.971 20.855,17.376 20.965 C 17.638 21.036,18.522 20.986,18.860 20.880 C 19.828 20.577,20.582 19.818,20.886 18.840 C 21.021 18.406,21.021 17.594,20.886 17.160 C 20.585 16.194,19.862 15.458,18.887 15.125 L 18.580 15.020 15.180 15.012 C 12.457 15.005,11.747 15.014,11.614 15.057 M5.060 16.687 C 4.994 16.712,4.868 16.781,4.780 16.842 C 4.531 17.012,3.740 17.843,3.640 18.039 C 3.463 18.388,3.552 18.754,3.899 19.101 C 4.246 19.448,4.612 19.537,4.961 19.359 C 5.179 19.248,6.035 18.417,6.206 18.150 C 6.455 17.763,6.387 17.383,6.002 16.999 C 5.705 16.703,5.340 16.582,5.060 16.687 M10.614 19.057 C 10.377 19.131,10.212 19.261,10.109 19.453 C 10.027 19.606,10.019 19.684,10.007 20.405 C 9.999 20.880,10.011 21.252,10.037 21.349 C 10.144 21.748,10.430 21.961,10.896 21.991 C 11.381 22.022,11.699 21.882,11.880 21.558 C 11.978 21.383,11.980 21.364,11.980 20.500 C 11.980 19.667,11.975 19.611,11.891 19.453 C 11.842 19.362,11.746 19.247,11.678 19.199 C 11.414 19.010,10.957 18.950,10.614 19.057 " stroke="none" fill="black" fill-rule="evenodd"></path></svg>