<svg xmlns="http://www.w3.org/2000/svg" width="24" height="24" viewBox="0 0 24 24" fill="none" stroke="currentColor" stroke-width="2" stroke-linecap="round" stroke-linejoin="round" class="icon icon-tabler icons-tabler-outline icon-tabler-square-rounded-letter-k"><path d="M10.349 2.044 C 7.535 2.178,5.738 2.713,4.406 3.814 C 3.787 4.326,3.247 5.075,2.885 5.924 C 2.566 6.671,2.342 7.527,2.205 8.520 C 2.051 9.633,2.021 10.208,2.021 12.000 C 2.021 13.792,2.051 14.367,2.205 15.480 C 2.744 19.396,4.610 21.251,8.560 21.800 C 9.623 21.948,10.220 21.979,12.000 21.979 C 13.780 21.979,14.377 21.948,15.440 21.800 C 16.241 21.689,16.753 21.574,17.401 21.361 C 20.018 20.502,21.344 18.717,21.800 15.440 C 21.948 14.377,21.979 13.780,21.979 12.000 C 21.979 10.220,21.948 9.623,21.800 8.560 C 21.494 6.357,20.759 4.778,19.594 3.814 C 18.657 3.040,17.469 2.539,15.960 2.283 C 14.520 2.039,12.378 1.947,10.349 2.044 M13.500 4.041 C 16.040 4.168,17.512 4.591,18.435 5.458 C 19.509 6.468,19.999 8.517,19.999 12.000 C 19.999 15.490,19.511 17.527,18.430 18.548 C 17.356 19.562,15.410 20.000,11.992 20.000 C 8.581 19.999,6.644 19.561,5.570 18.548 C 4.489 17.527,4.001 15.490,4.001 12.000 C 4.001 10.005,4.176 8.385,4.505 7.320 C 5.052 5.555,6.056 4.719,8.129 4.302 C 9.412 4.045,11.521 3.942,13.500 4.041 M13.597 7.037 C 13.518 7.079,13.392 7.183,13.317 7.267 C 13.242 7.351,12.694 8.199,12.100 9.150 L 11.020 10.881 11.000 9.250 C 10.980 7.651,10.978 7.617,10.889 7.450 C 10.724 7.140,10.329 6.970,9.874 7.011 C 9.439 7.051,9.141 7.274,9.041 7.635 C 8.986 7.833,8.986 16.167,9.041 16.365 C 9.148 16.750,9.437 16.962,9.896 16.991 C 10.381 17.022,10.699 16.882,10.880 16.558 L 10.980 16.380 11.000 14.750 L 11.020 13.119 12.100 14.850 C 12.694 15.801,13.242 16.649,13.317 16.733 C 13.602 17.050,13.961 17.123,14.348 16.942 C 14.598 16.826,14.889 16.567,14.976 16.382 C 15.061 16.205,15.056 15.898,14.965 15.700 C 14.925 15.612,14.395 14.743,13.786 13.770 L 12.680 12.000 13.786 10.230 C 14.395 9.257,14.925 8.388,14.965 8.300 C 15.056 8.102,15.061 7.795,14.976 7.618 C 14.896 7.448,14.621 7.193,14.395 7.078 C 14.151 6.953,13.784 6.934,13.597 7.037 " stroke="none" fill="black" fill-rule="evenodd"></path></svg>