<svg xmlns="http://www.w3.org/2000/svg" width="24" height="24" viewBox="0 0 24 24" fill="none" stroke="currentColor" stroke-width="2" stroke-linecap="round" stroke-linejoin="round" class="icon icon-tabler icons-tabler-outline icon-tabler-crop-5-4"><path d="M5.499 4.043 C 4.380 4.233,3.461 5.048,3.114 6.160 L 3.020 6.460 3.020 12.000 L 3.020 17.540 3.114 17.840 C 3.422 18.827,4.173 19.578,5.160 19.886 L 5.460 19.980 12.000 19.980 L 18.540 19.980 18.840 19.886 C 19.827 19.578,20.578 18.827,20.886 17.840 L 20.980 17.540 20.980 12.000 L 20.980 6.460 20.886 6.160 C 20.581 5.182,19.832 4.428,18.861 4.121 L 18.540 4.020 12.120 4.014 C 8.589 4.011,5.609 4.024,5.499 4.043 M18.310 6.061 C 18.589 6.144,18.856 6.411,18.939 6.690 C 18.992 6.868,19.000 7.546,19.000 12.001 C 19.000 16.212,18.990 17.139,18.945 17.290 C 18.872 17.533,18.707 17.740,18.484 17.872 L 18.300 17.980 12.000 17.980 L 5.700 17.980 5.516 17.872 C 5.303 17.747,5.141 17.550,5.058 17.316 C 4.969 17.061,4.971 6.993,5.061 6.690 C 5.140 6.421,5.412 6.143,5.673 6.063 C 5.963 5.974,18.010 5.972,18.310 6.061 " stroke="none" fill="black" fill-rule="evenodd"></path></svg>