<svg xmlns="http://www.w3.org/2000/svg" width="24" height="24" viewBox="0 0 24 24" fill="none" stroke="currentColor" stroke-width="2" stroke-linecap="round" stroke-linejoin="round" class="icon icon-tabler icons-tabler-outline icon-tabler-compass"><path d="M11.080 2.045 C 9.507 2.184,7.883 2.751,6.540 3.630 C 5.905 4.045,5.499 4.378,4.919 4.958 C 2.953 6.926,1.919 9.544,2.013 12.320 C 2.084 14.439,2.752 16.328,4.033 18.040 C 4.430 18.570,5.305 19.464,5.800 19.847 C 7.242 20.961,8.787 21.624,10.600 21.907 C 11.247 22.008,12.753 22.008,13.400 21.907 C 15.638 21.557,17.504 20.620,19.062 19.062 C 20.620 17.504,21.557 15.638,21.907 13.400 C 22.008 12.753,22.008 11.247,21.907 10.600 C 21.624 8.786,20.959 7.238,19.847 5.800 C 19.510 5.365,18.639 4.494,18.200 4.154 C 16.133 2.555,13.646 1.818,11.080 2.045 M11.000 4.650 C 11.000 4.964,11.019 5.285,11.041 5.365 C 11.148 5.750,11.437 5.962,11.896 5.991 C 12.381 6.022,12.699 5.882,12.880 5.558 C 12.972 5.393,12.980 5.334,12.994 4.730 C 13.011 3.974,12.943 4.039,13.586 4.163 C 14.494 4.338,15.586 4.786,16.380 5.309 C 17.026 5.734,17.725 6.369,18.241 7.000 C 18.991 7.917,19.611 9.243,19.837 10.414 C 19.962 11.063,20.013 11.000,19.366 11.000 C 18.580 11.000,18.297 11.102,18.109 11.453 C 18.035 11.592,18.020 11.684,18.020 12.000 C 18.020 12.331,18.033 12.403,18.120 12.558 C 18.230 12.755,18.414 12.898,18.635 12.959 C 18.715 12.981,19.037 13.000,19.350 13.000 C 20.015 13.000,19.962 12.936,19.837 13.586 C 19.600 14.814,18.976 16.116,18.153 17.100 C 17.810 17.510,17.253 18.055,16.900 18.325 C 16.200 18.861,15.320 19.327,14.500 19.595 C 14.026 19.750,13.297 19.920,13.106 19.920 L 13.008 19.920 12.993 19.270 C 12.975 18.527,12.922 18.361,12.649 18.182 C 12.199 17.887,11.426 17.979,11.170 18.358 C 11.030 18.566,11.000 18.738,11.000 19.350 L 11.000 19.920 10.898 19.920 C 10.472 19.920,9.249 19.549,8.529 19.200 C 7.477 18.693,6.612 18.015,5.847 17.100 C 5.021 16.113,4.401 14.818,4.163 13.586 C 4.038 12.936,3.985 13.000,4.650 13.000 C 4.964 13.000,5.285 12.981,5.365 12.959 C 5.586 12.898,5.770 12.755,5.880 12.558 C 5.967 12.402,5.980 12.332,5.979 12.000 C 5.978 11.687,5.962 11.591,5.890 11.453 C 5.705 11.103,5.420 11.000,4.634 11.000 C 3.987 11.000,4.038 11.063,4.163 10.414 C 4.389 9.243,5.009 7.917,5.759 7.000 C 6.946 5.549,8.573 4.546,10.340 4.177 C 10.582 4.127,10.830 4.084,10.890 4.083 L 11.000 4.080 11.000 4.650 M15.910 7.002 C 15.664 7.042,9.757 9.013,9.520 9.134 C 9.170 9.313,9.172 9.307,8.119 12.465 C 7.584 14.067,7.112 15.437,7.069 15.510 C 6.970 15.677,6.935 16.082,7.000 16.320 C 7.067 16.570,7.430 16.933,7.680 17.000 C 7.924 17.066,8.315 17.030,8.506 16.924 C 8.591 16.877,9.952 16.408,11.532 15.881 C 13.112 15.355,14.468 14.885,14.546 14.836 C 14.836 14.657,14.865 14.585,15.962 11.292 C 16.953 8.321,17.009 8.136,16.989 7.922 C 16.978 7.795,16.924 7.606,16.867 7.494 C 16.660 7.086,16.356 6.930,15.910 7.002 M14.390 9.650 C 14.380 9.678,14.115 10.474,13.801 11.420 C 13.487 12.366,13.210 13.160,13.185 13.185 C 13.140 13.230,9.636 14.409,9.613 14.387 C 9.598 14.371,10.746 10.919,10.791 10.842 C 10.818 10.797,14.233 9.616,14.374 9.603 C 14.393 9.601,14.400 9.623,14.390 9.650 " stroke="none" fill="black" fill-rule="evenodd"></path></svg>