<svg xmlns="http://www.w3.org/2000/svg" width="24" height="24" viewBox="0 0 24 24" fill="none" stroke="currentColor" stroke-width="2" stroke-linecap="round" stroke-linejoin="round" class="icon icon-tabler icons-tabler-outline icon-tabler-photo-down"><path d="M5.358 2.061 C 4.725 2.160,4.119 2.424,3.562 2.843 C 2.860 3.373,2.355 4.142,2.109 5.060 C 2.023 5.377,2.022 5.426,1.996 10.660 C 1.981 13.564,1.968 15.967,1.966 16.000 C 1.964 16.033,1.978 16.636,1.996 17.340 C 2.024 18.433,2.041 18.667,2.112 18.940 C 2.511 20.484,3.687 21.603,5.243 21.921 C 5.614 21.996,5.798 22.000,9.169 22.000 C 13.077 22.000,12.983 22.006,13.229 21.751 C 13.418 21.556,13.486 21.355,13.486 20.997 C 13.486 20.491,13.303 20.196,12.909 20.064 C 12.739 20.007,12.318 20.000,9.227 20.000 C 5.447 20.000,5.522 20.004,5.083 19.781 C 4.816 19.646,4.449 19.297,4.281 19.017 C 4.045 18.625,4.005 18.385,4.002 17.340 L 4.000 16.419 6.450 13.971 C 9.109 11.315,9.069 11.349,9.504 11.349 C 9.914 11.349,9.927 11.360,12.280 13.702 C 13.780 15.194,14.515 15.899,14.637 15.960 C 14.989 16.137,15.354 16.048,15.701 15.701 C 16.043 15.359,16.137 14.987,15.965 14.651 C 15.919 14.560,15.779 14.376,15.654 14.241 L 15.427 13.996 15.624 13.795 C 15.859 13.554,16.077 13.419,16.318 13.365 C 16.459 13.333,16.575 13.342,16.884 13.409 C 17.225 13.482,17.296 13.486,17.456 13.441 C 17.917 13.312,18.278 12.565,18.115 12.076 C 17.968 11.637,17.322 11.346,16.500 11.349 C 16.010 11.350,15.697 11.425,15.219 11.655 C 14.856 11.829,14.542 12.054,14.190 12.394 L 14.000 12.577 12.750 11.335 C 11.477 10.070,11.172 9.811,10.703 9.598 C 9.983 9.272,9.051 9.264,8.341 9.578 C 7.812 9.812,7.582 10.012,5.770 11.815 L 4.000 13.577 4.002 9.659 C 4.004 6.088,4.011 5.717,4.073 5.477 C 4.201 4.988,4.543 4.546,5.014 4.265 C 5.479 3.986,5.109 4.000,12.028 4.002 C 18.979 4.005,18.529 3.987,19.017 4.281 C 19.294 4.448,19.618 4.787,19.772 5.071 C 19.997 5.488,19.999 5.510,19.999 9.263 C 20.000 13.067,19.995 12.983,20.249 13.229 C 20.442 13.416,20.647 13.487,20.997 13.488 C 21.348 13.490,21.556 13.418,21.751 13.229 C 22.006 12.983,22.000 13.077,22.000 9.169 C 22.000 5.798,21.996 5.614,21.921 5.243 C 21.628 3.806,20.637 2.680,19.245 2.204 C 18.646 1.999,18.690 2.000,11.960 2.004 C 6.959 2.007,5.631 2.018,5.358 2.061 M14.614 7.055 C 14.220 7.184,14.039 7.437,14.009 7.900 C 13.978 8.381,14.119 8.699,14.442 8.880 C 14.597 8.967,14.669 8.980,15.000 8.980 C 15.312 8.980,15.408 8.964,15.540 8.894 C 15.866 8.718,16.000 8.459,16.000 8.000 C 16.000 7.357,15.713 7.048,15.083 7.016 C 14.893 7.006,14.718 7.021,14.614 7.055 M18.614 15.057 C 18.377 15.131,18.212 15.261,18.109 15.453 C 18.021 15.618,18.020 15.640,18.009 17.596 L 17.997 19.572 17.269 18.852 C 16.856 18.443,16.467 18.094,16.372 18.045 C 16.021 17.868,15.640 17.958,15.299 18.299 C 14.952 18.646,14.863 19.011,15.040 19.363 C 15.099 19.480,15.635 20.051,16.635 21.062 C 17.463 21.899,18.174 22.634,18.216 22.697 C 18.318 22.850,18.762 23.049,19.000 23.049 C 19.238 23.049,19.682 22.850,19.784 22.697 C 19.826 22.634,20.537 21.899,21.365 21.062 C 22.365 20.051,22.901 19.480,22.960 19.363 C 23.137 19.011,23.048 18.646,22.701 18.299 C 22.360 17.958,21.979 17.868,21.628 18.045 C 21.533 18.094,21.144 18.443,20.732 18.851 L 20.004 19.572 19.992 17.596 C 19.980 15.640,19.979 15.618,19.891 15.453 C 19.842 15.362,19.746 15.247,19.678 15.199 C 19.414 15.010,18.957 14.950,18.614 15.057 " stroke="none" fill="black" fill-rule="evenodd"></path></svg>