<svg xmlns="http://www.w3.org/2000/svg" width="24" height="24" viewBox="0 0 24 24" fill="none" stroke="currentColor" stroke-width="2" stroke-linecap="round" stroke-linejoin="round" class="icon icon-tabler icons-tabler-outline icon-tabler-hierarchy-3"><path d="M11.499 2.040 C 10.363 2.246,9.460 3.049,9.114 4.160 C 8.979 4.594,8.979 5.407,9.114 5.839 C 9.234 6.221,9.391 6.530,9.597 6.791 C 9.686 6.905,9.760 7.012,9.760 7.029 C 9.760 7.046,9.467 7.498,9.110 8.034 L 8.460 9.008 7.960 9.019 C 7.571 9.027,7.389 9.051,7.139 9.126 C 6.182 9.414,5.419 10.180,5.114 11.160 C 4.979 11.594,4.979 12.407,5.114 12.839 C 5.234 13.221,5.391 13.530,5.597 13.791 C 5.686 13.905,5.760 14.012,5.760 14.029 C 5.760 14.046,5.467 14.498,5.110 15.034 L 4.460 16.008 3.960 16.019 C 3.571 16.027,3.389 16.051,3.139 16.126 C 2.182 16.414,1.419 17.180,1.114 18.160 C 0.979 18.594,0.979 19.406,1.114 19.840 C 1.421 20.826,2.174 21.579,3.160 21.886 C 3.594 22.021,4.406 22.021,4.840 21.886 C 5.807 21.585,6.552 20.852,6.872 19.887 C 6.961 19.620,6.974 19.508,6.977 19.020 C 6.980 18.539,6.967 18.418,6.886 18.161 C 6.766 17.777,6.609 17.469,6.400 17.205 C 6.309 17.089,6.243 16.970,6.254 16.940 C 6.266 16.910,6.561 16.457,6.911 15.933 L 7.547 14.980 8.004 14.986 L 8.460 14.991 9.110 15.966 C 9.467 16.501,9.760 16.954,9.760 16.971 C 9.760 16.988,9.686 17.095,9.597 17.209 C 9.391 17.470,9.234 17.779,9.114 18.161 C 8.979 18.593,8.979 19.406,9.114 19.840 C 9.421 20.826,10.174 21.579,11.160 21.886 C 11.594 22.021,12.406 22.021,12.840 21.886 C 13.826 21.579,14.579 20.826,14.886 19.840 C 15.021 19.406,15.021 18.593,14.886 18.161 C 14.766 17.779,14.609 17.470,14.403 17.209 C 14.314 17.095,14.240 16.988,14.240 16.971 C 14.240 16.954,14.532 16.501,14.890 15.966 L 15.540 14.991 15.996 14.986 L 16.453 14.980 17.089 15.933 C 17.439 16.457,17.734 16.910,17.746 16.940 C 17.757 16.970,17.691 17.089,17.600 17.205 C 17.391 17.470,17.234 17.778,17.114 18.161 C 16.979 18.593,16.979 19.406,17.114 19.840 C 17.421 20.826,18.174 21.579,19.160 21.886 C 19.594 22.021,20.406 22.021,20.840 21.886 C 21.826 21.579,22.579 20.826,22.886 19.840 C 23.021 19.406,23.021 18.594,22.886 18.160 C 22.581 17.180,21.818 16.414,20.861 16.126 C 20.611 16.051,20.429 16.027,20.040 16.019 L 19.540 16.008 18.890 15.034 C 18.532 14.498,18.240 14.046,18.240 14.029 C 18.240 14.012,18.314 13.905,18.403 13.791 C 18.609 13.530,18.766 13.221,18.886 12.839 C 19.021 12.407,19.021 11.594,18.886 11.160 C 18.581 10.180,17.818 9.414,16.861 9.126 C 16.611 9.051,16.429 9.027,16.040 9.019 L 15.540 9.008 14.890 8.034 C 14.533 7.498,14.240 7.046,14.240 7.029 C 14.240 7.012,14.314 6.905,14.403 6.791 C 14.609 6.530,14.766 6.221,14.886 5.839 C 15.021 5.407,15.021 4.594,14.886 4.160 C 14.581 3.179,13.810 2.407,12.861 2.129 C 12.500 2.023,11.832 1.980,11.499 2.040 M12.310 4.061 C 12.688 4.173,13.000 4.598,13.000 5.001 C 13.000 5.331,12.784 5.696,12.484 5.872 C 12.328 5.963,12.254 5.980,12.000 5.980 C 11.746 5.980,11.672 5.963,11.516 5.872 C 10.935 5.530,10.833 4.774,11.304 4.303 C 11.583 4.024,11.916 3.944,12.310 4.061 M13.110 8.966 C 13.468 9.501,13.760 9.954,13.760 9.971 C 13.760 9.988,13.686 10.095,13.597 10.209 C 13.391 10.470,13.234 10.779,13.114 11.161 C 13.035 11.412,13.021 11.546,13.021 12.000 C 13.021 12.454,13.035 12.588,13.114 12.839 C 13.234 13.222,13.391 13.530,13.600 13.795 C 13.691 13.911,13.757 14.030,13.746 14.060 C 13.734 14.090,13.439 14.543,13.089 15.067 L 12.453 16.020 11.997 16.016 L 11.541 16.011 10.891 15.036 C 10.533 14.499,10.240 14.046,10.240 14.029 C 10.240 14.012,10.314 13.905,10.403 13.791 C 10.609 13.530,10.766 13.221,10.886 12.839 C 10.965 12.588,10.979 12.454,10.979 12.000 C 10.979 11.546,10.965 11.412,10.886 11.161 C 10.766 10.778,10.609 10.470,10.400 10.205 C 10.309 10.089,10.243 9.970,10.254 9.940 C 10.266 9.910,10.561 9.457,10.911 8.933 L 11.547 7.980 12.004 7.986 L 12.460 7.991 13.110 8.966 M8.310 11.061 C 8.688 11.173,9.000 11.598,9.000 12.001 C 9.000 12.331,8.784 12.696,8.484 12.872 C 8.328 12.963,8.254 12.980,8.000 12.980 C 7.746 12.980,7.672 12.963,7.516 12.872 C 6.932 12.528,6.831 11.775,7.307 11.299 C 7.582 11.024,7.918 10.944,8.310 11.061 M16.310 11.061 C 16.688 11.173,17.000 11.598,17.000 12.001 C 17.000 12.331,16.784 12.696,16.484 12.872 C 16.328 12.963,16.254 12.980,16.000 12.980 C 15.746 12.980,15.672 12.963,15.516 12.872 C 14.932 12.528,14.831 11.775,15.307 11.299 C 15.582 11.024,15.918 10.944,16.310 11.061 M4.310 18.061 C 4.688 18.173,5.000 18.598,5.000 19.001 C 5.000 19.331,4.784 19.696,4.484 19.872 C 4.328 19.963,4.254 19.980,4.000 19.980 C 3.746 19.980,3.672 19.963,3.516 19.872 C 2.935 19.530,2.833 18.774,3.304 18.303 C 3.583 18.024,3.916 17.944,4.310 18.061 M12.310 18.061 C 12.688 18.173,13.000 18.598,13.000 19.001 C 13.000 19.331,12.784 19.696,12.484 19.872 C 12.328 19.963,12.254 19.980,12.000 19.980 C 11.746 19.980,11.672 19.963,11.516 19.872 C 10.935 19.530,10.833 18.774,11.304 18.303 C 11.583 18.024,11.916 17.944,12.310 18.061 M20.310 18.061 C 20.688 18.173,21.000 18.598,21.000 19.001 C 21.000 19.331,20.784 19.696,20.484 19.872 C 20.328 19.963,20.254 19.980,20.000 19.980 C 19.746 19.980,19.672 19.963,19.516 19.872 C 18.935 19.530,18.833 18.774,19.304 18.303 C 19.583 18.024,19.916 17.944,20.310 18.061 " stroke="none" fill="black" fill-rule="evenodd"></path></svg>