<svg xmlns="http://www.w3.org/2000/svg" width="24" height="24" viewBox="0 0 24 24" fill="none" stroke="currentColor" stroke-width="2" stroke-linecap="round" stroke-linejoin="round" class="icon icon-tabler icons-tabler-outline icon-tabler-presentation"><path d="M2.614 3.057 C 2.223 3.180,2.039 3.436,2.009 3.900 C 1.968 4.532,2.251 4.922,2.796 4.987 L 2.998 5.011 3.009 9.795 L 3.020 14.580 3.114 14.860 C 3.443 15.840,4.162 16.560,5.140 16.885 L 5.420 16.979 8.210 16.991 L 11.000 17.004 11.000 18.002 L 11.000 19.000 9.906 19.000 C 8.744 19.000,8.570 19.022,8.322 19.199 C 8.100 19.357,8.020 19.568,8.020 20.000 C 8.020 20.331,8.033 20.403,8.120 20.558 C 8.230 20.755,8.414 20.898,8.635 20.959 C 8.832 21.014,15.168 21.014,15.365 20.959 C 15.586 20.898,15.770 20.755,15.880 20.558 C 15.967 20.402,15.980 20.332,15.979 20.000 C 15.978 19.567,15.898 19.355,15.678 19.199 C 15.430 19.022,15.256 19.000,14.094 19.000 L 13.000 19.000 13.000 18.002 L 13.000 17.004 15.790 16.991 L 18.580 16.979 18.860 16.885 C 19.838 16.560,20.557 15.840,20.886 14.860 L 20.980 14.580 20.991 9.795 L 21.002 5.011 21.198 4.988 C 21.539 4.947,21.754 4.805,21.904 4.520 C 22.018 4.305,22.009 3.679,21.890 3.453 C 21.786 3.256,21.623 3.131,21.371 3.055 C 21.106 2.976,2.868 2.978,2.614 3.057 M19.000 9.554 C 19.000 14.497,19.008 14.318,18.779 14.618 C 18.718 14.698,18.585 14.813,18.484 14.872 L 18.300 14.980 12.000 14.980 L 5.700 14.980 5.516 14.872 C 5.415 14.813,5.284 14.700,5.225 14.623 C 4.989 14.314,5.000 14.557,5.000 9.575 L 5.000 5.000 12.000 5.000 L 19.000 5.000 19.000 9.554 M15.620 7.047 C 15.529 7.094,14.926 7.661,14.230 8.353 L 13.001 9.576 12.270 8.853 C 11.856 8.444,11.467 8.094,11.372 8.045 C 11.150 7.933,10.852 7.933,10.628 8.044 C 10.389 8.163,7.159 11.397,7.039 11.637 C 6.863 11.990,6.952 12.355,7.299 12.701 C 7.646 13.048,8.011 13.137,8.363 12.960 C 8.479 12.901,8.961 12.452,9.770 11.647 L 10.999 10.424 11.730 11.147 C 12.168 11.580,12.531 11.905,12.637 11.959 C 12.868 12.076,13.130 12.077,13.363 11.961 C 13.610 11.837,16.837 8.610,16.961 8.363 C 17.137 8.010,17.048 7.645,16.701 7.299 C 16.361 6.959,15.967 6.867,15.620 7.047 " stroke="none" fill="black" fill-rule="evenodd"></path></svg>