<svg xmlns="http://www.w3.org/2000/svg" width="24" height="24" viewBox="0 0 24 24" fill="none" stroke="currentColor" stroke-width="2" stroke-linecap="round" stroke-linejoin="round" class="icon icon-tabler icons-tabler-outline icon-tabler-traffic-lights"><path d="M11.380 1.043 C 8.783 1.299,6.694 3.202,6.113 5.840 L 6.020 6.260 6.020 12.000 L 6.020 17.740 6.113 18.160 C 6.650 20.599,8.417 22.365,10.840 22.885 C 11.446 23.015,12.554 23.015,13.160 22.885 C 14.397 22.620,15.412 22.068,16.269 21.195 C 17.107 20.342,17.618 19.384,17.887 18.160 L 17.980 17.740 17.980 12.000 L 17.980 6.260 17.887 5.840 C 17.618 4.616,17.107 3.658,16.269 2.805 C 14.978 1.490,13.230 0.860,11.380 1.043 M12.605 3.058 C 14.074 3.280,15.310 4.324,15.797 5.755 C 15.998 6.347,16.000 6.400,16.000 12.000 C 16.000 17.602,15.998 17.656,15.796 18.245 C 15.321 19.632,14.195 20.628,12.773 20.917 C 10.563 21.368,8.396 19.845,8.058 17.605 C 7.972 17.033,7.972 6.967,8.058 6.395 C 8.314 4.698,9.675 3.324,11.358 3.061 C 11.816 2.990,12.144 2.989,12.605 3.058 M11.477 5.073 C 10.806 5.249,10.238 5.823,10.060 6.508 C 9.941 6.962,10.003 7.492,10.225 7.930 C 10.361 8.199,10.801 8.639,11.070 8.775 C 11.659 9.073,12.341 9.073,12.930 8.775 C 13.196 8.640,13.638 8.200,13.771 7.937 C 14.161 7.168,14.043 6.275,13.471 5.659 C 13.074 5.232,12.563 5.005,12.000 5.005 C 11.857 5.005,11.622 5.036,11.477 5.073 M11.477 10.073 C 10.806 10.249,10.238 10.823,10.060 11.508 C 9.941 11.962,10.003 12.492,10.225 12.930 C 10.361 13.199,10.801 13.639,11.070 13.775 C 11.659 14.073,12.341 14.073,12.930 13.775 C 13.196 13.640,13.638 13.200,13.771 12.937 C 13.994 12.498,14.052 12.007,13.940 11.529 C 13.858 11.182,13.720 10.927,13.465 10.653 C 13.074 10.232,12.560 10.005,12.000 10.005 C 11.857 10.005,11.622 10.036,11.477 10.073 M11.477 15.073 C 10.806 15.249,10.238 15.823,10.060 16.508 C 9.941 16.962,10.003 17.492,10.225 17.930 C 10.361 18.199,10.801 18.639,11.070 18.775 C 11.659 19.073,12.341 19.073,12.930 18.775 C 13.196 18.640,13.638 18.200,13.771 17.937 C 13.994 17.498,14.052 17.007,13.940 16.529 C 13.858 16.182,13.720 15.927,13.465 15.653 C 13.074 15.232,12.560 15.005,12.000 15.005 C 11.857 15.005,11.622 15.036,11.477 15.073 " stroke="none" fill="black" fill-rule="evenodd"></path></svg>