<svg xmlns="http://www.w3.org/2000/svg" width="24" height="24" viewBox="0 0 24 24" fill="none" stroke="currentColor" stroke-width="2" stroke-linecap="round" stroke-linejoin="round" class="icon icon-tabler icons-tabler-outline icon-tabler-playstation-circle"><path d="M11.080 2.045 C 9.507 2.184,7.883 2.751,6.540 3.630 C 5.905 4.045,5.499 4.378,4.919 4.958 C 2.953 6.926,1.919 9.544,2.013 12.320 C 2.084 14.439,2.752 16.328,4.033 18.040 C 4.430 18.570,5.305 19.464,5.800 19.847 C 7.242 20.961,8.787 21.624,10.600 21.907 C 11.247 22.008,12.753 22.008,13.400 21.907 C 15.638 21.557,17.504 20.620,19.062 19.062 C 20.620 17.504,21.557 15.638,21.907 13.400 C 22.008 12.753,22.008 11.247,21.907 10.600 C 21.624 8.786,20.959 7.238,19.847 5.800 C 19.510 5.365,18.639 4.494,18.200 4.154 C 16.133 2.555,13.646 1.818,11.080 2.045 M12.734 4.041 C 14.574 4.216,16.228 4.976,17.554 6.256 C 20.043 8.658,20.702 12.394,19.183 15.499 C 18.749 16.387,18.223 17.105,17.496 17.801 C 16.876 18.394,16.262 18.819,15.471 19.200 C 13.267 20.265,10.733 20.265,8.529 19.200 C 7.477 18.693,6.612 18.015,5.847 17.100 C 3.848 14.711,3.440 11.302,4.816 8.500 C 6.162 5.760,8.867 4.049,11.920 4.005 C 12.129 4.003,12.495 4.019,12.734 4.041 M11.081 6.583 C 9.032 6.957,7.417 8.353,6.778 10.304 C 6.422 11.391,6.422 12.609,6.778 13.696 C 7.327 15.374,8.626 16.673,10.304 17.222 C 11.391 17.578,12.609 17.578,13.696 17.222 C 15.374 16.673,16.673 15.374,17.222 13.696 C 17.861 11.747,17.338 9.568,15.884 8.120 C 15.053 7.294,14.069 6.788,12.890 6.582 C 12.459 6.506,11.499 6.507,11.081 6.583 M12.752 8.583 C 13.393 8.713,13.945 9.022,14.462 9.538 C 15.172 10.248,15.480 10.993,15.480 12.000 C 15.480 12.979,15.186 13.712,14.504 14.431 C 13.840 15.131,12.995 15.487,12.000 15.487 C 10.994 15.487,10.153 15.129,9.479 14.414 C 8.813 13.707,8.520 12.970,8.520 12.000 C 8.520 10.993,8.828 10.248,9.538 9.538 C 10.045 9.032,10.601 8.717,11.220 8.586 C 11.598 8.506,12.366 8.504,12.752 8.583 " stroke="none" fill="black" fill-rule="evenodd"></path></svg>