<svg xmlns="http://www.w3.org/2000/svg" width="24" height="24" viewBox="0 0 24 24" fill="none" stroke="currentColor" stroke-width="2" stroke-linecap="round" stroke-linejoin="round" class="icon icon-tabler icons-tabler-outline icon-tabler-brand-meta"><path d="M6.842 5.041 C 4.834 5.322,3.306 7.321,2.424 10.820 C 2.119 12.030,2.022 12.815,2.022 14.060 C 2.023 15.231,2.096 15.767,2.366 16.586 C 2.580 17.234,2.822 17.653,3.226 18.078 C 3.853 18.737,4.615 19.045,5.478 18.988 C 6.901 18.895,8.624 17.378,10.669 14.418 C 11.037 13.886,11.775 12.726,11.895 12.490 C 11.932 12.418,11.978 12.360,11.997 12.360 C 12.017 12.360,12.091 12.463,12.162 12.590 C 12.397 13.008,13.037 14.000,13.468 14.615 C 15.455 17.450,17.127 18.897,18.522 18.988 C 19.385 19.045,20.147 18.737,20.774 18.078 C 21.178 17.653,21.420 17.234,21.634 16.586 C 21.907 15.758,21.978 15.232,21.976 14.040 C 21.975 12.710,21.858 11.845,21.501 10.528 C 20.988 8.634,20.288 7.203,19.434 6.301 C 19.027 5.871,18.679 5.606,18.220 5.378 C 17.695 5.117,17.330 5.033,16.700 5.027 C 16.047 5.021,15.785 5.084,15.140 5.402 C 14.193 5.868,13.295 6.682,12.321 7.960 C 12.162 8.169,12.017 8.340,12.000 8.340 C 11.982 8.340,11.835 8.166,11.673 7.953 C 11.021 7.097,10.337 6.389,9.688 5.900 C 9.284 5.596,8.495 5.194,8.120 5.102 C 7.797 5.022,7.184 4.993,6.842 5.041 M7.862 7.117 C 8.643 7.462,9.608 8.447,10.675 9.986 L 10.846 10.231 10.718 10.486 C 10.223 11.467,9.234 13.029,8.363 14.200 C 7.175 15.799,5.885 16.995,5.345 16.999 C 5.103 17.001,4.903 16.906,4.677 16.682 C 4.499 16.505,4.428 16.395,4.330 16.140 C 3.787 14.729,3.940 12.374,4.724 10.092 C 5.431 8.037,6.385 6.943,7.409 7.016 C 7.557 7.027,7.761 7.072,7.862 7.117 M17.087 7.079 C 17.745 7.282,18.283 7.872,18.823 8.980 C 19.114 9.579,19.462 10.588,19.659 11.410 C 20.099 13.242,20.103 15.028,19.668 16.140 C 19.463 16.663,19.064 17.002,18.655 16.999 C 18.115 16.995,16.824 15.798,15.637 14.200 C 14.742 12.996,13.789 11.492,13.283 10.486 L 13.155 10.233 13.365 9.926 C 14.441 8.357,15.575 7.255,16.320 7.054 C 16.583 6.983,16.799 6.990,17.087 7.079 " stroke="none" fill="black" fill-rule="evenodd"></path></svg>