<svg xmlns="http://www.w3.org/2000/svg" width="24" height="24" viewBox="0 0 24 24" fill="none" stroke="currentColor" stroke-width="2" stroke-linecap="round" stroke-linejoin="round" class="icon icon-tabler icons-tabler-outline icon-tabler-bus"><path d="M2.477 4.073 C 1.805 4.250,1.238 4.823,1.060 5.508 C 1.008 5.706,1.000 6.518,1.000 11.478 C 1.000 15.201,1.015 17.271,1.041 17.365 C 1.102 17.586,1.245 17.770,1.442 17.880 C 1.610 17.974,1.662 17.981,2.387 18.000 L 3.155 18.020 3.316 18.340 C 3.686 19.071,4.360 19.637,5.160 19.886 C 5.594 20.021,6.406 20.021,6.840 19.886 C 7.645 19.635,8.318 19.069,8.688 18.330 L 8.853 18.000 12.000 18.000 L 15.147 18.000 15.312 18.330 C 15.682 19.069,16.355 19.635,17.160 19.886 C 17.594 20.021,18.406 20.021,18.840 19.886 C 19.645 19.635,20.318 19.069,20.688 18.330 L 20.853 18.000 21.537 18.000 C 21.912 18.000,22.285 17.981,22.365 17.959 C 22.586 17.898,22.770 17.755,22.880 17.558 L 22.980 17.380 22.993 14.500 C 23.001 12.622,22.990 11.446,22.961 11.120 C 22.847 9.831,22.536 8.675,22.018 7.620 C 21.077 5.705,19.714 4.526,17.939 4.091 C 17.682 4.028,17.086 4.022,10.200 4.013 C 3.238 4.004,2.722 4.008,2.477 4.073 M6.000 7.500 L 6.000 9.000 4.500 9.000 L 3.000 9.000 3.000 7.500 L 3.000 6.000 4.500 6.000 L 6.000 6.000 6.000 7.500 M11.000 7.500 L 11.000 9.000 9.500 9.000 L 8.000 9.000 8.000 7.500 L 8.000 6.000 9.500 6.000 L 11.000 6.000 11.000 7.500 M15.200 6.030 C 15.200 6.055,15.767 8.725,15.816 8.930 C 15.831 8.996,15.745 9.000,14.416 9.000 L 13.000 9.000 13.000 7.500 L 13.000 6.000 14.100 6.000 C 14.705 6.000,15.200 6.014,15.200 6.030 M17.691 6.099 C 17.991 6.178,18.480 6.426,18.784 6.655 C 19.645 7.302,20.397 8.553,20.738 9.904 C 20.827 10.257,20.920 10.763,20.920 10.891 L 20.920 11.001 19.612 10.991 L 18.303 10.980 17.893 9.060 C 17.668 8.004,17.431 6.893,17.366 6.590 L 17.250 6.040 17.356 6.040 C 17.415 6.040,17.566 6.067,17.691 6.099 M16.395 11.630 C 16.544 12.337,16.627 12.561,16.811 12.751 C 17.043 12.991,17.129 13.000,19.167 13.000 L 21.000 13.000 21.000 14.500 C 21.000 15.929,20.997 16.000,20.927 16.000 C 20.875 16.000,20.805 15.904,20.688 15.670 C 20.321 14.938,19.642 14.363,18.861 14.125 C 18.588 14.042,18.458 14.027,18.000 14.027 C 17.542 14.027,17.412 14.042,17.139 14.125 C 16.358 14.363,15.679 14.938,15.312 15.670 L 15.147 16.000 12.000 16.000 L 8.853 16.000 8.688 15.670 C 8.321 14.938,7.642 14.363,6.861 14.125 C 6.588 14.042,6.458 14.027,6.000 14.027 C 5.542 14.027,5.412 14.042,5.139 14.125 C 4.358 14.363,3.679 14.938,3.312 15.670 C 3.195 15.904,3.125 16.000,3.073 16.000 C 3.003 16.000,3.000 15.899,3.000 13.500 L 3.000 11.000 9.631 11.000 L 16.262 11.000 16.395 11.630 M6.334 16.064 C 6.698 16.188,7.000 16.613,7.000 17.001 C 7.000 17.331,6.784 17.696,6.484 17.872 C 6.328 17.963,6.254 17.980,6.000 17.980 C 5.746 17.980,5.672 17.963,5.516 17.872 C 4.937 17.531,4.833 16.774,5.301 16.306 C 5.587 16.019,5.952 15.934,6.334 16.064 M18.334 16.064 C 18.698 16.188,19.000 16.613,19.000 17.001 C 19.000 17.331,18.784 17.696,18.484 17.872 C 18.328 17.963,18.254 17.980,18.000 17.980 C 17.746 17.980,17.672 17.963,17.516 17.872 C 16.937 17.531,16.833 16.774,17.301 16.306 C 17.587 16.019,17.952 15.934,18.334 16.064 " stroke="none" fill="black" fill-rule="evenodd"></path></svg>