<svg xmlns="http://www.w3.org/2000/svg" width="24" height="24" viewBox="0 0 24 24" fill="none" stroke="currentColor" stroke-width="2" stroke-linecap="round" stroke-linejoin="round" class="icon icon-tabler icons-tabler-outline icon-tabler-world-question"><path d="M11.153 2.011 C 11.102 2.031,10.879 2.071,10.659 2.100 C 8.515 2.386,6.529 3.365,4.979 4.900 C 4.713 5.164,4.386 5.515,4.254 5.680 C 1.295 9.363,1.249 14.436,4.140 18.176 C 4.508 18.652,5.287 19.434,5.780 19.824 C 7.211 20.954,8.694 21.587,10.700 21.924 C 11.237 22.014,12.669 22.041,13.000 21.968 C 13.099 21.946,13.333 21.906,13.520 21.879 C 14.291 21.767,15.512 21.408,15.909 21.177 C 16.001 21.122,16.127 21.013,16.188 20.934 C 16.485 20.543,16.236 19.666,15.758 19.419 C 15.571 19.322,15.222 19.346,14.808 19.484 C 14.603 19.552,14.426 19.599,14.415 19.588 C 14.404 19.577,14.438 19.481,14.492 19.374 C 14.668 19.021,15.011 18.103,15.031 17.932 C 15.061 17.669,15.008 17.490,14.850 17.315 C 14.591 17.027,14.050 16.838,13.713 16.916 C 13.379 16.994,13.230 17.186,12.935 17.927 C 12.719 18.469,12.052 19.840,12.004 19.840 C 11.919 19.840,11.177 18.268,10.896 17.492 C 10.759 17.113,10.440 16.091,10.440 16.030 C 10.440 16.014,11.175 16.000,12.073 16.000 C 13.893 16.000,14.000 15.988,14.229 15.751 C 14.418 15.556,14.486 15.355,14.486 14.997 C 14.486 14.491,14.303 14.196,13.909 14.064 C 13.744 14.009,13.457 14.000,11.884 14.000 L 10.050 14.000 10.027 13.810 C 10.014 13.706,9.982 13.255,9.954 12.810 C 9.907 12.040,9.938 10.918,10.027 10.190 L 10.050 10.000 12.000 10.000 L 13.950 10.000 13.977 10.241 C 14.034 10.745,14.077 11.563,14.079 12.163 C 14.080 12.885,14.129 13.089,14.344 13.278 C 14.646 13.543,15.297 13.595,15.660 13.382 C 15.791 13.305,15.862 13.224,15.947 13.050 C 16.055 12.831,16.061 12.788,16.074 12.166 C 16.087 11.566,16.026 10.305,15.973 10.090 L 15.951 10.000 17.852 10.000 L 19.753 10.000 19.794 10.190 C 19.864 10.522,19.915 10.848,19.960 11.260 C 20.015 11.758,20.137 12.037,20.367 12.189 C 20.498 12.276,20.584 12.298,20.858 12.312 C 21.278 12.334,21.529 12.258,21.726 12.049 C 21.947 11.816,21.975 11.702,21.947 11.167 C 21.855 9.408,21.053 7.338,19.893 5.868 C 18.251 3.787,15.949 2.462,13.345 2.099 C 13.106 2.066,12.890 2.026,12.866 2.011 C 12.800 1.970,11.261 1.970,11.153 2.011 M12.311 4.710 C 12.635 5.343,12.970 6.118,13.176 6.713 C 13.310 7.098,13.560 7.922,13.560 7.976 C 13.560 7.989,12.858 8.000,12.000 8.000 C 11.142 8.000,10.440 7.987,10.440 7.970 C 10.440 7.909,10.759 6.887,10.896 6.508 C 11.170 5.752,11.918 4.160,12.000 4.160 C 12.016 4.160,12.157 4.407,12.311 4.710 M15.519 4.824 C 16.796 5.442,17.920 6.439,18.720 7.664 L 18.926 7.980 17.296 7.990 C 16.399 7.996,15.653 7.987,15.639 7.970 C 15.624 7.954,15.563 7.742,15.502 7.500 C 15.339 6.848,14.922 5.618,14.644 4.969 C 14.510 4.656,14.400 4.391,14.400 4.380 C 14.400 4.342,15.079 4.611,15.519 4.824 M9.454 4.730 C 9.070 5.619,8.686 6.733,8.492 7.520 C 8.435 7.751,8.377 7.954,8.362 7.970 C 8.347 7.987,7.601 7.996,6.704 7.990 L 5.074 7.980 5.343 7.580 C 6.178 6.338,7.169 5.468,8.467 4.834 C 8.914 4.616,9.430 4.410,9.548 4.403 C 9.578 4.401,9.542 4.528,9.454 4.730 M8.021 10.090 C 7.981 10.271,7.920 11.422,7.920 12.000 C 7.920 12.578,7.981 13.729,8.021 13.910 L 8.042 14.000 6.144 14.000 L 4.247 14.000 4.201 13.790 C 4.068 13.173,4.026 12.748,4.025 12.000 C 4.025 11.230,4.059 10.858,4.184 10.290 L 4.248 10.000 6.145 10.000 L 8.042 10.000 8.021 10.090 M18.440 14.058 C 18.297 14.089,18.102 14.142,18.008 14.176 C 17.203 14.466,16.442 15.217,16.440 15.722 C 16.439 16.052,16.769 16.475,17.174 16.663 C 17.548 16.838,17.807 16.775,18.193 16.419 C 18.501 16.134,18.650 16.048,18.893 16.015 C 19.121 15.984,19.458 16.082,19.640 16.234 C 19.988 16.522,20.086 17.066,19.863 17.470 C 19.668 17.823,19.453 17.951,18.970 18.001 C 18.245 18.076,17.960 18.406,18.012 19.110 C 18.069 19.867,18.595 20.142,19.591 19.936 C 20.218 19.807,20.691 19.543,21.146 19.069 C 21.488 18.713,21.648 18.463,21.797 18.055 C 22.409 16.374,21.489 14.571,19.780 14.102 C 19.448 14.010,18.765 13.988,18.440 14.058 M8.507 16.540 C 8.687 17.240,9.060 18.333,9.357 19.036 C 9.490 19.352,9.600 19.617,9.600 19.625 C 9.600 19.651,9.016 19.428,8.626 19.253 C 7.843 18.902,7.159 18.432,6.486 17.781 C 5.960 17.273,5.346 16.510,5.124 16.090 L 5.077 15.999 6.725 16.010 L 8.373 16.020 8.507 16.540 M18.614 21.057 C 18.221 21.180,18.039 21.435,18.009 21.906 C 17.962 22.621,18.306 23.000,19.000 23.000 C 19.698 23.000,20.043 22.616,19.989 21.900 C 19.963 21.563,19.859 21.327,19.678 21.199 C 19.414 21.010,18.957 20.950,18.614 21.057 " stroke="none" fill="black" fill-rule="evenodd"></path></svg>