<svg xmlns="http://www.w3.org/2000/svg" width="24" height="24" viewBox="0 0 24 24" fill="none" stroke="currentColor" stroke-width="2" stroke-linecap="round" stroke-linejoin="round" class="icon icon-tabler icons-tabler-outline icon-tabler-brand-baidu"><path d="M8.560 2.064 C 7.900 2.241,7.316 2.899,7.092 3.720 C 7.042 3.907,7.022 4.127,7.022 4.500 C 7.022 4.873,7.042 5.093,7.092 5.280 C 7.313 6.089,7.858 6.719,8.513 6.921 C 8.982 7.066,9.521 6.989,9.930 6.719 C 10.213 6.531,10.528 6.165,10.691 5.836 C 10.919 5.373,10.978 5.098,10.978 4.500 C 10.978 4.127,10.958 3.907,10.908 3.720 C 10.576 2.503,9.571 1.794,8.560 2.064 M14.560 2.064 C 13.900 2.241,13.316 2.899,13.092 3.720 C 13.042 3.907,13.022 4.127,13.022 4.500 C 13.022 4.873,13.042 5.093,13.092 5.280 C 13.313 6.089,13.858 6.719,14.513 6.921 C 14.982 7.066,15.521 6.989,15.930 6.719 C 16.213 6.531,16.528 6.165,16.691 5.836 C 16.919 5.373,16.978 5.098,16.978 4.500 C 16.978 4.127,16.958 3.907,16.908 3.720 C 16.576 2.503,15.571 1.794,14.560 2.064 M4.560 7.064 C 3.900 7.241,3.316 7.899,3.092 8.720 C 2.994 9.080,2.994 9.920,3.092 10.280 C 3.313 11.089,3.858 11.719,4.513 11.921 C 4.982 12.066,5.521 11.989,5.930 11.719 C 6.213 11.531,6.528 11.165,6.691 10.836 C 6.919 10.373,6.978 10.098,6.978 9.500 C 6.978 9.127,6.958 8.907,6.908 8.720 C 6.576 7.503,5.571 6.794,4.560 7.064 M18.560 7.064 C 17.900 7.241,17.316 7.899,17.092 8.720 C 17.042 8.907,17.022 9.127,17.022 9.500 C 17.022 9.873,17.042 10.093,17.092 10.280 C 17.313 11.089,17.858 11.719,18.513 11.921 C 18.982 12.066,19.521 11.989,19.930 11.719 C 20.213 11.531,20.528 11.165,20.691 10.836 C 20.919 10.373,20.978 10.098,20.978 9.500 C 20.978 9.127,20.958 8.907,20.908 8.720 C 20.576 7.503,19.571 6.794,18.560 7.064 M11.240 9.060 C 10.420 9.216,9.633 9.641,9.076 10.228 C 8.955 10.355,8.696 10.690,8.502 10.970 C 8.072 11.591,7.664 12.034,7.047 12.548 C 5.664 13.701,5.084 14.299,4.624 15.047 C 3.873 16.268,3.807 17.610,4.434 18.875 C 4.958 19.931,6.133 20.748,7.373 20.917 C 8.115 21.019,9.249 20.954,10.534 20.738 C 11.720 20.538,12.485 20.544,13.360 20.761 C 13.841 20.880,14.458 20.962,15.061 20.988 C 17.178 21.076,18.755 20.346,19.527 18.920 C 19.858 18.308,19.973 17.864,19.977 17.180 C 19.979 16.754,19.963 16.598,19.887 16.320 C 19.652 15.458,19.127 14.677,18.400 14.108 C 17.166 13.140,16.085 12.069,15.288 11.020 C 14.602 10.117,14.025 9.617,13.324 9.319 C 12.680 9.045,11.857 8.943,11.240 9.060 M12.453 11.120 C 12.581 11.169,12.797 11.292,12.932 11.394 C 13.170 11.573,13.288 11.710,13.980 12.606 C 14.548 13.342,16.022 14.772,17.040 15.577 C 17.946 16.292,18.205 17.098,17.792 17.915 C 17.442 18.607,16.745 18.945,15.580 18.988 C 14.981 19.010,14.338 18.944,13.760 18.801 C 12.766 18.555,11.525 18.525,10.460 18.720 C 9.530 18.891,9.253 18.923,8.500 18.947 C 7.874 18.966,7.696 18.959,7.491 18.906 C 6.902 18.754,6.450 18.414,6.219 17.947 C 5.884 17.269,5.947 16.671,6.430 15.945 C 6.748 15.467,7.061 15.165,8.612 13.840 C 9.223 13.318,9.736 12.733,10.228 12.000 C 10.338 11.835,10.507 11.624,10.603 11.531 C 10.808 11.332,11.179 11.125,11.460 11.053 C 11.729 10.984,12.169 11.014,12.453 11.120 " stroke="none" fill="black" fill-rule="evenodd"></path></svg>