<svg xmlns="http://www.w3.org/2000/svg" width="24" height="24" viewBox="0 0 24 24" fill="none" stroke="currentColor" stroke-width="2" stroke-linecap="round" stroke-linejoin="round" class="icon icon-tabler icons-tabler-outline icon-tabler-vaccine-off"><path d="M2.626 2.045 C 2.420 2.154,2.146 2.433,2.038 2.644 C 1.924 2.867,1.924 3.132,2.039 3.363 C 2.102 3.488,3.074 4.488,5.353 6.770 L 8.579 10.000 6.874 11.710 C 5.936 12.650,5.135 13.483,5.094 13.560 C 5.025 13.690,5.019 13.840,5.009 15.640 L 4.997 17.580 3.563 19.020 C 2.603 19.984,2.100 20.519,2.040 20.637 C 1.863 20.989,1.952 21.354,2.299 21.701 C 2.646 22.048,3.011 22.137,3.363 21.960 C 3.481 21.900,4.016 21.397,4.980 20.437 L 6.420 19.003 8.360 18.991 C 10.160 18.981,10.310 18.975,10.440 18.906 C 10.517 18.865,11.350 18.064,12.290 17.126 L 14.000 15.421 17.230 18.647 C 19.512 20.926,20.512 21.898,20.637 21.961 C 20.990 22.137,21.355 22.048,21.701 21.701 C 22.047 21.355,22.136 20.990,21.961 20.637 C 21.839 20.392,3.616 2.165,3.372 2.044 C 3.152 1.934,2.834 1.935,2.626 2.045 M16.626 2.045 C 16.257 2.239,15.951 2.673,15.951 3.000 C 15.951 3.308,16.079 3.487,16.854 4.271 L 17.577 5.002 16.040 6.540 L 14.502 8.079 13.261 6.846 C 12.478 6.068,11.961 5.585,11.860 5.538 C 11.651 5.438,11.345 5.439,11.140 5.540 C 10.926 5.644,10.614 5.961,10.519 6.170 C 10.355 6.531,10.444 6.830,10.841 7.254 L 11.091 7.522 11.019 7.682 C 10.870 8.013,10.968 8.370,11.299 8.701 C 11.632 9.034,11.987 9.130,12.322 8.979 L 12.485 8.905 13.790 10.210 L 15.095 11.515 15.021 11.678 C 14.870 12.013,14.966 12.368,15.299 12.701 C 15.630 13.032,15.987 13.130,16.318 12.981 L 16.478 12.909 16.746 13.160 C 17.080 13.472,17.299 13.576,17.569 13.550 C 17.989 13.510,18.510 12.987,18.550 12.565 C 18.585 12.201,18.511 12.105,17.154 10.739 L 15.921 9.498 17.460 7.960 L 18.998 6.423 19.729 7.146 C 20.168 7.580,20.531 7.905,20.637 7.959 C 20.988 8.137,21.354 8.048,21.701 7.701 C 22.048 7.355,22.137 6.990,21.961 6.637 C 21.840 6.396,17.612 2.164,17.372 2.044 C 17.152 1.934,16.835 1.935,16.626 2.045 M11.300 12.720 L 12.580 14.000 11.080 15.500 L 9.580 17.000 8.290 17.000 L 7.000 17.000 7.000 15.711 L 7.000 14.422 7.248 14.172 L 7.496 13.922 7.979 14.395 C 8.511 14.917,8.717 15.049,9.000 15.049 C 9.477 15.049,10.049 14.477,10.049 14.000 C 10.049 13.717,9.916 13.509,9.396 12.980 L 8.923 12.500 9.451 11.970 C 9.741 11.678,9.988 11.440,10.000 11.440 C 10.011 11.440,10.596 12.016,11.300 12.720 " stroke="none" fill="black" fill-rule="evenodd"></path></svg>