<svg xmlns="http://www.w3.org/2000/svg" width="24" height="24" viewBox="0 0 24 24" fill="none" stroke="currentColor" stroke-width="2" stroke-linecap="round" stroke-linejoin="round" class="icon icon-tabler icons-tabler-outline icon-tabler-square-rounded-percentage"><path d="M10.349 2.044 C 7.535 2.178,5.738 2.713,4.406 3.814 C 3.787 4.326,3.247 5.075,2.885 5.924 C 2.566 6.671,2.342 7.527,2.205 8.520 C 2.051 9.633,2.021 10.208,2.021 12.000 C 2.021 13.792,2.051 14.367,2.205 15.480 C 2.744 19.396,4.610 21.251,8.560 21.800 C 9.623 21.948,10.220 21.979,12.000 21.979 C 13.780 21.979,14.377 21.948,15.440 21.800 C 16.241 21.689,16.753 21.574,17.401 21.361 C 20.018 20.502,21.344 18.717,21.800 15.440 C 21.948 14.377,21.979 13.780,21.979 12.000 C 21.979 10.220,21.948 9.623,21.800 8.560 C 21.494 6.357,20.759 4.778,19.594 3.814 C 18.657 3.040,17.469 2.539,15.960 2.283 C 14.520 2.039,12.378 1.947,10.349 2.044 M13.500 4.041 C 16.040 4.168,17.512 4.591,18.435 5.458 C 19.509 6.468,19.999 8.517,19.999 12.000 C 19.999 15.490,19.511 17.527,18.430 18.548 C 17.356 19.562,15.410 20.000,11.992 20.000 C 8.581 19.999,6.644 19.561,5.570 18.548 C 4.489 17.527,4.001 15.490,4.001 12.000 C 4.001 10.005,4.176 8.385,4.505 7.320 C 5.052 5.555,6.056 4.719,8.129 4.302 C 9.412 4.045,11.521 3.942,13.500 4.041 M14.827 8.046 C 14.743 8.064,14.599 8.133,14.507 8.197 C 14.207 8.407,8.099 14.565,8.022 14.736 C 7.864 15.082,7.961 15.434,8.308 15.781 C 8.643 16.116,8.994 16.202,9.360 16.037 C 9.605 15.927,15.827 9.711,15.961 9.443 C 16.142 9.079,16.023 8.648,15.650 8.320 C 15.365 8.068,15.107 7.983,14.827 8.046 M8.545 8.179 C 8.171 8.312,7.975 8.692,8.009 9.218 C 8.047 9.818,8.379 10.120,9.000 10.120 C 9.620 10.120,9.943 9.827,9.988 9.225 C 10.030 8.681,9.808 8.273,9.413 8.163 C 9.200 8.104,8.731 8.113,8.545 8.179 M14.614 14.177 C 14.221 14.300,14.039 14.555,14.009 15.026 C 13.974 15.563,14.197 15.969,14.587 16.077 C 14.784 16.132,15.216 16.132,15.413 16.077 C 15.807 15.968,16.030 15.559,15.989 15.020 C 15.963 14.683,15.859 14.447,15.678 14.319 C 15.414 14.130,14.957 14.070,14.614 14.177 " stroke="none" fill="black" fill-rule="evenodd"></path></svg>