<svg xmlns="http://www.w3.org/2000/svg" width="24" height="24" viewBox="0 0 24 24" fill="none" stroke="currentColor" stroke-width="2" stroke-linecap="round" stroke-linejoin="round" class="icon icon-tabler icons-tabler-outline icon-tabler-pointer-cancel"><path d="M3.497 3.075 C 3.223 3.242,3.000 3.661,3.000 4.006 C 3.000 4.217,6.978 18.009,7.128 18.318 C 7.208 18.483,7.348 18.670,7.519 18.842 C 8.372 19.695,9.745 19.716,10.590 18.889 C 10.696 18.785,11.122 18.196,11.536 17.580 C 11.951 16.964,12.312 16.436,12.339 16.407 C 12.379 16.364,12.418 16.370,12.553 16.441 C 12.928 16.636,13.281 16.552,13.648 16.180 C 13.981 15.842,14.069 15.524,13.923 15.186 C 13.803 14.907,12.920 14.013,12.610 13.857 C 12.344 13.722,12.022 13.705,11.812 13.813 C 11.609 13.919,11.426 14.164,10.281 15.859 C 9.688 16.738,9.166 17.471,9.123 17.487 C 9.071 17.506,9.017 17.492,8.966 17.448 C 8.908 17.398,8.439 15.819,7.182 11.445 C 6.244 8.181,5.484 5.503,5.494 5.493 C 5.509 5.478,16.768 8.696,17.288 8.864 C 17.481 8.927,17.548 9.016,17.501 9.150 C 17.488 9.189,16.745 9.706,15.850 10.300 C 14.955 10.894,14.145 11.457,14.049 11.552 C 13.717 11.878,13.641 12.225,13.820 12.585 C 13.942 12.830,14.940 13.826,15.180 13.942 C 15.546 14.119,15.934 13.999,16.296 13.596 C 16.614 13.242,16.662 12.890,16.440 12.529 C 16.396 12.457,16.360 12.390,16.360 12.379 C 16.360 12.369,16.896 12.003,17.550 11.566 C 18.866 10.689,19.050 10.527,19.288 10.035 C 19.597 9.398,19.601 8.791,19.302 8.138 C 19.085 7.665,18.561 7.181,18.091 7.019 C 18.008 6.991,14.835 6.075,11.040 4.984 C 3.576 2.838,3.795 2.893,3.497 3.075 M18.358 15.061 C 17.230 15.237,16.143 15.974,15.569 16.953 C 14.320 19.083,15.233 21.785,17.512 22.704 C 19.558 23.528,21.877 22.538,22.704 20.488 C 23.090 19.530,23.090 18.469,22.705 17.516 C 22.172 16.197,21.001 15.269,19.605 15.058 C 19.144 14.989,18.816 14.990,18.358 15.061 M19.470 17.057 C 19.485 17.071,18.954 17.626,18.290 18.290 C 17.626 18.954,17.072 19.486,17.059 19.472 C 17.045 19.459,17.024 19.314,17.012 19.150 C 16.940 18.202,17.563 17.318,18.477 17.071 C 18.735 17.001,19.405 16.991,19.470 17.057 M20.982 18.784 C 21.047 19.396,20.844 19.961,20.398 20.410 C 20.104 20.705,19.779 20.885,19.404 20.963 C 19.181 21.010,18.584 20.997,18.532 20.945 C 18.504 20.918,20.872 18.520,20.927 18.520 C 20.941 18.520,20.966 18.639,20.982 18.784 " stroke="none" fill="black" fill-rule="evenodd"></path></svg>