<svg xmlns="http://www.w3.org/2000/svg" width="24" height="24" viewBox="0 0 24 24" fill="none" stroke="currentColor" stroke-width="2" stroke-linecap="round" stroke-linejoin="round" class="icon icon-tabler icons-tabler-outline icon-tabler-mist"><path d="M4.614 4.057 C 4.377 4.131,4.212 4.261,4.109 4.453 C 4.035 4.592,4.020 4.684,4.020 5.000 C 4.020 5.331,4.033 5.403,4.120 5.558 C 4.230 5.755,4.414 5.898,4.635 5.959 C 4.722 5.983,5.470 6.000,6.500 6.000 C 7.530 6.000,8.278 5.983,8.365 5.959 C 8.586 5.898,8.770 5.755,8.880 5.558 C 8.967 5.402,8.980 5.332,8.979 5.000 C 8.978 4.687,8.962 4.591,8.890 4.453 C 8.786 4.256,8.623 4.131,8.371 4.055 C 8.114 3.978,4.862 3.980,4.614 4.057 M11.614 4.057 C 11.377 4.131,11.212 4.261,11.109 4.453 C 11.035 4.592,11.020 4.684,11.020 5.000 C 11.020 5.331,11.033 5.403,11.120 5.558 C 11.230 5.755,11.414 5.898,11.635 5.959 C 11.834 6.014,21.166 6.014,21.365 5.959 C 21.586 5.898,21.770 5.755,21.880 5.558 C 21.967 5.402,21.980 5.332,21.979 5.000 C 21.978 4.567,21.898 4.355,21.678 4.199 C 21.392 3.995,21.526 4.000,16.484 4.003 C 12.740 4.005,11.746 4.016,11.614 4.057 M2.614 9.057 C 2.377 9.131,2.212 9.261,2.109 9.453 C 2.035 9.592,2.020 9.684,2.020 10.000 C 2.020 10.331,2.033 10.403,2.120 10.558 C 2.230 10.755,2.414 10.898,2.635 10.959 C 2.834 11.015,14.166 11.015,14.365 10.959 C 14.586 10.898,14.770 10.755,14.880 10.558 C 14.967 10.402,14.980 10.332,14.979 10.000 C 14.978 9.567,14.898 9.355,14.678 9.199 C 14.389 8.993,14.604 9.000,8.484 9.003 C 3.919 9.005,2.747 9.016,2.614 9.057 M17.614 9.057 C 17.377 9.131,17.212 9.261,17.109 9.453 C 17.035 9.592,17.020 9.684,17.020 10.000 C 17.020 10.331,17.033 10.403,17.120 10.558 C 17.230 10.755,17.414 10.898,17.635 10.959 C 17.823 11.012,19.177 11.012,19.365 10.959 C 19.586 10.898,19.770 10.755,19.880 10.558 C 19.967 10.402,19.980 10.332,19.979 10.000 C 19.978 9.687,19.962 9.591,19.890 9.453 C 19.786 9.256,19.623 9.131,19.371 9.055 C 19.126 8.982,17.851 8.983,17.614 9.057 M4.614 14.057 C 4.377 14.131,4.212 14.261,4.109 14.453 C 4.035 14.592,4.020 14.684,4.020 15.000 C 4.020 15.331,4.033 15.403,4.120 15.558 C 4.230 15.755,4.414 15.898,4.635 15.959 C 4.832 16.014,10.168 16.014,10.365 15.959 C 10.586 15.898,10.770 15.755,10.880 15.558 C 10.967 15.402,10.980 15.332,10.979 15.000 C 10.978 14.567,10.898 14.355,10.678 14.199 C 10.401 14.002,10.373 14.000,7.484 14.003 C 5.382 14.005,4.743 14.017,4.614 14.057 M13.614 14.057 C 13.377 14.131,13.212 14.261,13.109 14.453 C 13.035 14.592,13.020 14.684,13.020 15.000 C 13.020 15.331,13.033 15.403,13.120 15.558 C 13.230 15.755,13.414 15.898,13.635 15.959 C 13.833 16.014,21.167 16.014,21.365 15.959 C 21.586 15.898,21.770 15.755,21.880 15.558 C 21.967 15.402,21.980 15.332,21.979 15.000 C 21.978 14.567,21.898 14.355,21.678 14.199 C 21.395 13.997,21.449 14.000,17.484 14.003 C 14.561 14.005,13.745 14.016,13.614 14.057 M2.614 19.057 C 2.377 19.131,2.212 19.261,2.109 19.453 C 2.035 19.592,2.020 19.684,2.020 20.000 C 2.020 20.331,2.033 20.403,2.120 20.558 C 2.230 20.755,2.414 20.898,2.635 20.959 C 2.834 21.014,12.166 21.014,12.365 20.959 C 12.586 20.898,12.770 20.755,12.880 20.558 C 12.967 20.402,12.980 20.332,12.979 20.000 C 12.978 19.567,12.898 19.355,12.678 19.199 C 12.392 18.995,12.526 19.000,7.484 19.003 C 3.740 19.005,2.746 19.016,2.614 19.057 M15.614 19.057 C 15.377 19.131,15.212 19.261,15.109 19.453 C 15.035 19.592,15.020 19.684,15.020 20.000 C 15.020 20.331,15.033 20.403,15.120 20.558 C 15.230 20.755,15.414 20.898,15.635 20.959 C 15.722 20.983,16.470 21.000,17.500 21.000 C 18.530 21.000,19.278 20.983,19.365 20.959 C 19.586 20.898,19.770 20.755,19.880 20.558 C 19.967 20.402,19.980 20.332,19.979 20.000 C 19.978 19.687,19.962 19.591,19.890 19.453 C 19.786 19.256,19.623 19.131,19.371 19.055 C 19.114 18.978,15.862 18.980,15.614 19.057 " stroke="none" fill="black" fill-rule="evenodd"></path></svg>