<svg xmlns="http://www.w3.org/2000/svg" width="24" height="24" viewBox="0 0 24 24" fill="none" stroke="currentColor" stroke-width="2" stroke-linecap="round" stroke-linejoin="round" class="icon icon-tabler icons-tabler-outline icon-tabler-number-25-small"><path d="M5.614 7.057 C 5.377 7.131,5.212 7.261,5.109 7.453 C 5.035 7.592,5.020 7.684,5.020 8.000 C 5.020 8.331,5.033 8.403,5.120 8.558 C 5.230 8.755,5.414 8.898,5.635 8.959 C 5.721 8.983,6.435 9.000,7.390 9.000 L 9.000 9.000 9.000 10.000 L 9.000 11.000 7.870 11.002 C 6.595 11.005,6.391 11.035,5.983 11.281 C 5.703 11.449,5.354 11.816,5.219 12.083 C 5.019 12.478,5.000 12.640,5.000 14.000 C 5.000 15.368,5.018 15.521,5.225 15.930 C 5.361 16.199,5.801 16.639,6.070 16.775 C 6.497 16.991,6.591 17.000,8.478 17.000 C 9.522 17.000,10.278 16.983,10.365 16.959 C 10.586 16.898,10.770 16.755,10.880 16.558 C 10.967 16.402,10.980 16.332,10.979 16.000 C 10.978 15.567,10.898 15.355,10.678 15.199 C 10.416 15.012,10.290 15.000,8.594 15.000 L 7.000 15.000 7.000 14.000 L 7.000 13.000 8.132 13.000 C 9.358 13.000,9.528 12.979,9.930 12.775 C 10.196 12.640,10.638 12.200,10.771 11.937 C 10.979 11.527,11.000 11.352,10.999 10.014 C 10.999 8.682,10.974 8.463,10.781 8.083 C 10.646 7.816,10.297 7.449,10.017 7.281 C 9.578 7.017,9.468 7.005,7.520 7.005 C 6.204 7.005,5.739 7.018,5.614 7.057 M13.614 7.057 C 13.377 7.131,13.212 7.261,13.109 7.453 C 13.020 7.619,13.020 7.629,13.009 9.911 C 13.001 11.392,13.012 12.256,13.039 12.355 C 13.100 12.583,13.242 12.768,13.442 12.880 L 13.620 12.980 15.310 12.992 L 17.000 13.003 17.000 14.002 L 17.000 15.000 16.005 15.000 L 15.010 15.000 14.983 14.794 C 14.930 14.393,14.743 14.167,14.371 14.055 C 13.861 13.902,13.305 14.077,13.113 14.453 C 13.008 14.659,12.973 15.095,13.037 15.404 C 13.148 15.941,13.595 16.534,14.070 16.775 C 14.479 16.982,14.632 17.000,16.000 17.000 C 17.368 17.000,17.521 16.982,17.930 16.775 C 18.196 16.640,18.638 16.200,18.771 15.937 C 18.979 15.527,19.000 15.352,18.999 14.014 C 18.999 12.682,18.974 12.463,18.781 12.083 C 18.646 11.816,18.297 11.449,18.017 11.281 C 17.609 11.035,17.405 11.005,16.130 11.002 L 15.000 11.000 15.000 10.000 L 15.000 9.000 16.610 9.000 C 17.565 9.000,18.279 8.983,18.365 8.959 C 18.586 8.898,18.770 8.755,18.880 8.558 C 18.967 8.402,18.980 8.332,18.979 8.000 C 18.978 7.567,18.898 7.355,18.678 7.199 C 18.406 7.005,18.336 7.000,15.984 7.003 C 14.293 7.005,13.741 7.017,13.614 7.057 " stroke="none" fill="black" fill-rule="evenodd"></path></svg>