<svg xmlns="http://www.w3.org/2000/svg" width="24" height="24" viewBox="0 0 24 24" fill="none" stroke="currentColor" stroke-width="2" stroke-linecap="round" stroke-linejoin="round" class="icon icon-tabler icons-tabler-outline icon-tabler-tree"><path d="M9.480 2.039 C 9.039 2.095,8.718 2.195,8.260 2.419 C 7.194 2.938,6.427 3.865,6.134 4.989 C 5.987 5.553,5.964 6.242,6.074 6.778 L 6.157 7.176 6.008 7.351 C 5.540 7.906,5.228 8.531,5.075 9.220 C 5.044 9.362,5.022 9.697,5.023 10.040 C 5.025 10.634,5.063 10.864,5.242 11.350 C 5.397 11.773,5.768 12.417,5.936 12.557 C 5.986 12.599,6.000 12.690,6.000 12.989 C 6.000 14.040,6.413 15.042,7.160 15.801 C 7.545 16.192,7.933 16.462,8.397 16.664 C 8.984 16.918,9.248 16.966,10.170 16.989 L 11.000 17.009 11.000 19.115 C 11.000 20.402,11.016 21.276,11.041 21.365 C 11.148 21.750,11.437 21.962,11.896 21.991 C 12.381 22.022,12.699 21.882,12.880 21.558 L 12.980 21.380 12.992 19.190 L 13.003 17.000 13.694 17.000 C 14.074 17.000,14.492 16.981,14.623 16.958 C 16.595 16.606,18.000 14.952,18.000 12.980 C 18.000 12.689,18.014 12.598,18.064 12.557 C 18.232 12.417,18.603 11.773,18.758 11.350 C 18.934 10.873,18.973 10.633,18.976 10.040 C 18.978 9.692,18.957 9.364,18.925 9.220 C 18.771 8.528,18.460 7.906,17.989 7.349 L 17.839 7.170 17.900 6.915 C 17.991 6.542,18.020 5.873,17.963 5.477 C 17.905 5.073,17.684 4.389,17.513 4.082 C 17.005 3.174,16.087 2.442,15.102 2.161 C 14.666 2.036,14.086 1.988,13.606 2.038 C 13.010 2.099,12.693 2.190,12.171 2.449 L 12.001 2.534 11.787 2.429 C 11.438 2.258,11.189 2.169,10.876 2.105 C 10.502 2.028,9.818 1.995,9.480 2.039 M10.320 4.042 C 10.650 4.095,10.939 4.227,11.280 4.480 C 11.863 4.912,12.137 4.912,12.720 4.480 C 13.075 4.217,13.359 4.091,13.711 4.041 C 14.813 3.885,15.802 4.628,15.965 5.733 C 16.024 6.138,15.970 6.480,15.781 6.896 C 15.581 7.334,15.543 7.509,15.601 7.723 C 15.668 7.971,15.765 8.091,16.097 8.337 C 16.257 8.455,16.451 8.630,16.529 8.726 C 16.968 9.267,17.104 10.010,16.881 10.657 C 16.771 10.978,16.668 11.132,16.330 11.489 C 15.906 11.936,15.870 12.056,15.967 12.691 C 16.066 13.340,15.869 13.937,15.403 14.404 C 14.927 14.882,14.574 15.000,13.628 15.000 L 12.994 15.000 13.015 14.030 C 13.026 13.497,13.039 13.033,13.042 13.000 C 13.046 12.967,13.035 12.826,13.019 12.688 L 12.988 12.436 13.929 11.488 C 14.525 10.888,14.903 10.475,14.960 10.363 C 15.137 10.011,15.048 9.646,14.701 9.299 C 14.466 9.064,14.251 8.960,14.000 8.960 C 13.743 8.960,13.555 9.055,13.246 9.341 L 13.006 9.563 12.993 8.591 C 12.981 7.672,12.975 7.611,12.889 7.450 C 12.724 7.140,12.329 6.970,11.874 7.011 C 11.439 7.051,11.141 7.274,11.041 7.635 C 11.017 7.719,11.000 8.364,11.000 9.174 L 11.000 10.569 10.757 10.344 C 10.445 10.055,10.258 9.960,10.000 9.960 C 9.749 9.960,9.534 10.064,9.299 10.299 C 8.952 10.646,8.863 11.011,9.040 11.363 C 9.097 11.475,9.474 11.886,10.065 12.482 L 11.000 13.424 11.000 14.212 L 11.000 15.000 10.368 15.000 C 9.412 15.000,9.088 14.893,8.617 14.423 C 8.304 14.110,8.114 13.778,8.038 13.410 C 7.994 13.196,7.997 13.050,8.065 12.374 C 8.100 12.022,8.039 11.884,7.685 11.507 C 7.331 11.130,7.229 10.978,7.119 10.657 C 6.948 10.161,6.977 9.644,7.202 9.164 C 7.363 8.819,7.552 8.596,7.903 8.337 C 8.235 8.091,8.332 7.971,8.399 7.723 C 8.457 7.508,8.421 7.344,8.219 6.900 C 7.942 6.292,7.943 5.703,8.223 5.119 C 8.528 4.482,9.222 4.037,9.960 4.005 C 10.015 4.003,10.177 4.019,10.320 4.042 " stroke="none" fill="black" fill-rule="evenodd"></path></svg>