<svg xmlns="http://www.w3.org/2000/svg" width="24" height="24" viewBox="0 0 24 24" fill="none" stroke="currentColor" stroke-width="2" stroke-linecap="round" stroke-linejoin="round" class="icon icon-tabler icons-tabler-outline icon-tabler-map-code"><path d="M20.780 3.016 C 20.692 3.045,19.355 3.700,17.810 4.474 L 15.000 5.880 12.370 4.559 C 10.923 3.832,9.650 3.188,9.541 3.129 C 9.369 3.034,9.297 3.020,9.000 3.020 C 8.703 3.020,8.631 3.034,8.459 3.129 C 8.350 3.188,6.935 3.903,5.315 4.717 C 2.132 6.316,2.159 6.300,2.046 6.674 C 2.012 6.789,2.000 8.552,2.000 13.493 C 2.000 20.068,2.001 20.160,2.080 20.372 C 2.188 20.659,2.398 20.897,2.620 20.982 C 2.995 21.125,2.954 21.142,6.108 19.566 L 8.999 18.121 9.894 18.566 C 10.889 19.060,11.055 19.106,11.381 18.982 C 11.694 18.862,11.984 18.415,12.028 17.980 C 12.057 17.704,11.938 17.443,11.705 17.272 C 11.614 17.206,11.194 16.978,10.770 16.766 L 10.000 16.381 10.000 11.010 C 10.000 8.057,10.009 5.640,10.020 5.640 C 10.031 5.640,10.931 6.085,12.020 6.630 L 14.000 7.620 14.000 10.663 C 14.000 14.028,13.997 13.985,14.249 14.229 C 14.442 14.416,14.647 14.487,14.997 14.488 C 15.348 14.490,15.556 14.418,15.751 14.229 C 16.003 13.985,16.000 14.028,16.000 10.663 L 16.000 7.620 17.980 6.630 C 19.069 6.085,19.969 5.640,19.980 5.640 C 19.991 5.640,20.000 7.345,20.000 9.430 C 20.000 11.846,20.015 13.272,20.041 13.365 C 20.148 13.750,20.437 13.962,20.896 13.991 C 21.381 14.022,21.699 13.882,21.880 13.558 L 21.980 13.380 21.991 8.614 C 22.001 3.932,22.000 3.843,21.922 3.634 C 21.719 3.092,21.282 2.856,20.780 3.016 M8.000 11.010 L 8.000 16.380 6.020 17.370 C 4.931 17.915,4.031 18.360,4.020 18.360 C 4.009 18.360,4.000 15.943,4.000 12.990 L 4.000 7.620 5.970 6.632 C 7.054 6.089,7.954 5.643,7.970 5.642 C 7.987 5.641,8.000 8.057,8.000 11.010 M16.620 16.046 C 16.390 16.165,14.153 18.411,14.040 18.637 C 13.986 18.744,13.951 18.889,13.951 19.000 C 13.951 19.334,14.057 19.468,15.294 20.706 C 16.532 21.943,16.666 22.049,17.000 22.049 C 17.477 22.049,18.049 21.477,18.049 21.000 C 18.049 20.693,17.921 20.513,17.147 19.730 L 16.425 19.000 17.147 18.270 C 17.580 17.832,17.905 17.469,17.959 17.363 C 18.137 17.012,18.048 16.646,17.701 16.299 C 17.361 15.959,16.967 15.867,16.620 16.046 M19.626 16.045 C 19.257 16.239,18.951 16.673,18.951 17.000 C 18.951 17.307,19.079 17.487,19.853 18.270 L 20.575 19.000 19.853 19.730 C 19.420 20.168,19.095 20.531,19.041 20.637 C 18.863 20.988,18.952 21.354,19.299 21.701 C 19.646 22.048,20.010 22.137,20.363 21.960 C 20.607 21.838,22.838 19.607,22.960 19.363 C 23.076 19.132,23.076 18.868,22.960 18.637 C 22.842 18.400,20.608 16.162,20.372 16.044 C 20.152 15.934,19.835 15.935,19.626 16.045 " stroke="none" fill="black" fill-rule="evenodd"></path></svg>