<svg xmlns="http://www.w3.org/2000/svg" width="24" height="24" viewBox="0 0 24 24" fill="none" stroke="currentColor" stroke-width="2" stroke-linecap="round" stroke-linejoin="round" class="icon icon-tabler icons-tabler-outline icon-tabler-share-off"><path d="M2.626 2.045 C 2.420 2.154,2.146 2.433,2.038 2.644 C 1.924 2.868,1.924 3.132,2.040 3.363 C 2.101 3.486,2.816 4.229,4.374 5.791 L 6.620 8.042 6.220 8.017 C 4.251 7.895,2.482 9.268,2.083 11.227 C 1.749 12.862,2.506 14.562,3.956 15.436 C 4.512 15.771,5.341 16.000,6.000 16.000 C 6.659 16.000,7.488 15.771,8.044 15.436 C 8.313 15.274,8.760 14.916,8.918 14.736 L 9.037 14.600 11.549 15.896 L 14.060 17.191 14.040 17.406 C 13.991 17.933,14.030 18.572,14.135 18.977 C 14.579 20.676,16.044 21.878,17.803 21.987 C 18.436 22.027,19.193 21.867,19.780 21.570 L 20.019 21.449 20.253 21.665 C 20.381 21.784,20.560 21.919,20.651 21.965 C 20.987 22.137,21.359 22.043,21.701 21.701 C 22.048 21.354,22.137 20.990,21.960 20.637 C 21.897 20.510,20.279 18.866,16.246 14.828 C 5.468 4.039,3.548 2.133,3.372 2.044 C 3.152 1.934,2.835 1.935,2.626 2.045 M17.358 2.061 C 16.230 2.237,15.143 2.974,14.569 3.953 C 14.163 4.646,13.978 5.374,14.016 6.140 C 14.029 6.404,14.044 6.663,14.050 6.716 C 14.059 6.804,13.976 6.856,13.100 7.309 C 11.966 7.895,11.868 7.958,11.729 8.195 C 11.578 8.453,11.585 8.699,11.753 9.058 C 11.988 9.560,12.344 9.783,12.749 9.682 C 12.854 9.656,13.395 9.402,13.952 9.118 L 14.963 8.601 15.082 8.736 C 15.240 8.916,15.687 9.274,15.956 9.436 C 16.075 9.508,16.325 9.628,16.512 9.704 C 18.558 10.528,20.877 9.538,21.704 7.488 C 22.090 6.530,22.090 5.469,21.705 4.516 C 21.172 3.197,20.001 2.269,18.605 2.058 C 18.144 1.989,17.816 1.990,17.358 2.061 M18.523 4.073 C 19.262 4.266,19.850 4.924,19.967 5.690 C 20.067 6.343,19.873 6.933,19.403 7.404 C 19.002 7.807,18.547 8.000,18.000 8.000 C 17.453 8.000,16.997 7.806,16.599 7.404 C 15.810 6.608,15.803 5.395,16.583 4.598 C 17.081 4.090,17.820 3.890,18.523 4.073 M6.523 10.073 C 7.477 10.322,8.121 11.313,7.968 12.296 C 7.902 12.724,7.717 13.086,7.401 13.404 C 7.003 13.806,6.547 14.000,6.000 14.000 C 5.485 14.000,5.038 13.822,4.653 13.465 C 3.323 12.229,4.189 10.005,6.000 10.005 C 6.143 10.005,6.378 10.036,6.523 10.073 M11.440 12.865 L 12.900 14.330 11.660 13.700 C 10.978 13.353,10.308 13.007,10.170 12.931 L 9.920 12.793 9.950 12.627 C 9.967 12.535,9.980 12.221,9.980 11.930 C 9.980 11.638,9.980 11.400,9.980 11.400 C 9.980 11.400,10.637 12.059,11.440 12.865 M18.869 14.254 C 18.636 14.325,18.456 14.496,18.325 14.770 C 18.009 15.436,18.140 15.810,18.821 16.181 C 19.274 16.429,19.528 16.667,19.753 17.056 C 20.089 17.636,20.361 17.810,20.788 17.719 C 21.065 17.659,21.440 17.439,21.585 17.250 C 21.835 16.924,21.784 16.542,21.409 15.910 C 21.036 15.282,20.477 14.778,19.780 14.440 C 19.348 14.230,19.109 14.181,18.869 14.254 M17.298 18.718 C 17.957 19.378,18.482 19.931,18.465 19.948 C 18.448 19.966,18.241 19.978,18.007 19.976 C 17.517 19.972,17.262 19.898,16.900 19.658 C 16.301 19.261,15.954 18.532,16.020 17.810 C 16.035 17.651,16.059 17.520,16.074 17.520 C 16.088 17.520,16.640 18.059,17.298 18.718 " stroke="none" fill="black" fill-rule="evenodd"></path></svg>