<svg xmlns="http://www.w3.org/2000/svg" width="24" height="24" viewBox="0 0 24 24" fill="none" stroke="currentColor" stroke-width="2" stroke-linecap="round" stroke-linejoin="round" class="icon icon-tabler icons-tabler-outline icon-tabler-moon-2"><path d="M11.080 2.042 C 9.165 2.226,7.360 2.948,5.800 4.154 C 5.303 4.538,4.429 5.432,4.033 5.960 C 2.625 7.841,1.935 10.012,2.013 12.320 C 2.084 14.439,2.752 16.328,4.033 18.040 C 4.430 18.570,5.305 19.464,5.800 19.847 C 7.242 20.961,8.787 21.624,10.600 21.907 C 11.244 22.007,12.752 22.007,13.400 21.907 C 14.355 21.760,15.271 21.490,16.100 21.112 C 16.342 21.001,16.639 20.877,16.759 20.835 C 16.880 20.793,17.033 20.707,17.099 20.645 C 17.166 20.583,17.364 20.437,17.540 20.320 C 18.096 19.953,18.524 19.599,19.062 19.062 C 20.620 17.504,21.557 15.638,21.907 13.400 C 22.008 12.753,22.008 11.247,21.907 10.600 C 21.452 7.687,19.959 5.331,17.500 3.647 C 17.302 3.511,17.095 3.364,17.040 3.320 C 16.985 3.276,16.850 3.206,16.740 3.164 C 16.630 3.122,16.333 2.993,16.080 2.878 C 15.254 2.503,14.383 2.251,13.400 2.102 C 12.892 2.025,11.603 1.991,11.080 2.042 M13.120 4.080 C 13.605 4.156,13.598 4.152,13.415 4.256 C 13.327 4.306,13.139 4.425,12.997 4.520 C 9.686 6.746,8.232 10.848,9.405 14.659 C 10.023 16.666,11.325 18.385,13.114 19.555 C 13.320 19.690,13.508 19.800,13.532 19.800 C 13.560 19.800,13.562 19.813,13.538 19.835 C 13.474 19.894,12.892 19.965,12.277 19.989 C 10.432 20.060,8.594 19.469,7.100 18.325 C 6.747 18.055,6.190 17.510,5.847 17.100 C 3.848 14.711,3.440 11.302,4.816 8.500 C 6.047 5.996,8.429 4.333,11.207 4.040 C 11.605 3.998,12.756 4.022,13.120 4.080 M16.521 5.400 C 16.846 5.621,17.205 5.919,17.554 6.256 C 20.043 8.658,20.702 12.394,19.183 15.499 C 19.043 15.786,18.822 16.182,18.692 16.380 C 18.189 17.143,17.398 17.972,16.676 18.491 C 16.236 18.808,16.234 18.808,15.605 18.574 C 13.111 17.645,11.368 15.447,11.057 12.840 C 10.745 10.217,11.911 7.670,14.100 6.193 C 14.676 5.804,15.919 5.244,16.212 5.241 C 16.252 5.240,16.391 5.312,16.521 5.400 " stroke="none" fill="black" fill-rule="evenodd"></path></svg>