<svg xmlns="http://www.w3.org/2000/svg" width="24" height="24" viewBox="0 0 24 24" fill="none" stroke="currentColor" stroke-width="2" stroke-linecap="round" stroke-linejoin="round" class="icon icon-tabler icons-tabler-outline icon-tabler-navigation-south"><path d="M10.477 2.073 C 9.806 2.249,9.238 2.823,9.060 3.508 C 9.017 3.672,9.000 3.953,9.000 4.500 C 9.000 5.329,9.036 5.556,9.225 5.930 C 9.361 6.199,9.801 6.639,10.070 6.775 C 10.472 6.979,10.642 7.000,11.868 7.000 L 13.000 7.000 13.000 7.500 L 13.000 8.000 11.988 8.000 L 10.977 8.000 10.929 7.823 C 10.835 7.470,10.495 7.267,10.000 7.267 C 9.492 7.267,9.176 7.463,9.061 7.848 C 8.897 8.400,9.076 9.032,9.522 9.478 C 9.763 9.719,9.999 9.857,10.307 9.937 C 10.655 10.027,13.149 10.030,13.492 9.940 C 13.852 9.847,14.118 9.690,14.404 9.404 C 14.895 8.913,15.000 8.579,14.999 7.514 C 14.999 6.716,14.954 6.424,14.781 6.083 C 14.646 5.816,14.297 5.449,14.017 5.281 C 13.609 5.035,13.405 5.005,12.130 5.002 L 11.000 5.000 11.000 4.500 L 11.000 4.000 12.015 4.000 L 13.030 4.000 13.056 4.129 C 13.147 4.584,13.695 4.849,14.283 4.723 C 14.727 4.628,14.955 4.345,14.990 3.846 C 15.049 2.997,14.426 2.200,13.581 2.044 C 13.440 2.018,12.821 2.001,12.043 2.002 C 10.945 2.004,10.699 2.015,10.477 2.073 M11.728 12.036 C 11.275 12.192,11.423 11.936,9.107 16.561 C 6.763 21.241,6.852 21.031,7.040 21.420 C 7.145 21.637,7.406 21.846,7.694 21.944 C 8.077 22.073,8.124 22.056,10.148 21.046 L 12.000 20.121 13.892 21.066 C 15.966 22.101,16.019 22.120,16.383 21.981 C 16.605 21.896,16.843 21.613,16.941 21.316 C 17.081 20.897,17.161 21.084,14.889 16.539 C 13.745 14.250,12.761 12.320,12.703 12.251 C 12.567 12.089,12.296 11.960,12.097 11.961 C 12.011 11.962,11.845 11.996,11.728 12.036 M12.872 16.984 C 13.341 17.922,13.717 18.697,13.707 18.706 C 13.698 18.715,13.371 18.565,12.980 18.371 C 12.299 18.035,12.258 18.020,12.000 18.020 C 11.742 18.020,11.701 18.035,11.020 18.371 C 10.629 18.565,10.302 18.715,10.293 18.706 C 10.273 18.686,11.970 15.280,12.000 15.280 C 12.011 15.280,12.404 16.047,12.872 16.984 " stroke="none" fill="black" fill-rule="evenodd"></path></svg>