<svg xmlns="http://www.w3.org/2000/svg" width="24" height="24" viewBox="0 0 24 24" fill="none" stroke="currentColor" stroke-width="2" stroke-linecap="round" stroke-linejoin="round" class="icon icon-tabler icons-tabler-outline icon-tabler-receipt-off"><path d="M2.626 2.045 C 2.257 2.239,1.951 2.673,1.951 3.000 C 1.951 3.321,2.070 3.479,3.066 4.483 L 4.002 5.426 3.999 13.310 C 3.996 18.729,4.009 21.243,4.038 21.351 C 4.106 21.604,4.244 21.770,4.501 21.909 C 4.771 22.054,4.984 22.074,5.286 21.983 C 5.533 21.908,5.683 21.827,5.780 21.719 C 5.824 21.669,6.311 21.328,6.863 20.959 L 7.866 20.289 8.663 21.079 C 9.515 21.924,9.687 22.049,10.000 22.049 C 10.307 22.049,10.487 21.921,11.270 21.147 L 12.000 20.425 12.730 21.147 C 13.513 21.921,13.693 22.049,14.000 22.049 C 14.313 22.049,14.485 21.924,15.337 21.079 L 16.134 20.289 17.332 21.088 C 17.990 21.527,18.601 21.912,18.690 21.943 C 19.142 22.103,19.671 21.935,19.874 21.567 L 19.967 21.398 20.225 21.639 C 20.367 21.771,20.557 21.918,20.649 21.964 C 20.987 22.137,21.358 22.044,21.701 21.701 C 22.048 21.354,22.137 20.988,21.959 20.637 C 21.890 20.501,20.484 19.011,19.747 18.294 C 19.697 18.245,15.932 14.479,15.760 14.306 C 15.705 14.250,14.805 13.350,13.760 12.306 C 12.715 11.261,11.815 10.361,11.760 10.306 C 11.705 10.251,10.355 8.901,8.760 7.306 C 7.165 5.711,5.815 4.360,5.760 4.304 C 5.006 3.533,3.504 2.112,3.372 2.045 C 3.152 1.934,2.836 1.934,2.626 2.045 M6.614 2.057 C 6.377 2.132,6.212 2.261,6.109 2.453 C 6.035 2.592,6.020 2.684,6.020 3.000 C 6.020 3.331,6.033 3.403,6.120 3.558 C 6.230 3.755,6.414 3.898,6.635 3.959 C 6.729 3.985,8.608 4.000,11.943 4.000 C 17.764 4.000,17.373 3.979,17.697 4.303 C 18.021 4.627,18.000 4.236,18.000 10.057 C 18.000 13.392,18.015 15.271,18.041 15.365 C 18.148 15.750,18.437 15.962,18.896 15.991 C 19.381 16.022,19.699 15.882,19.880 15.558 L 19.980 15.380 19.980 9.920 L 19.980 4.460 19.886 4.160 C 19.581 3.182,18.832 2.428,17.861 2.121 L 17.540 2.020 12.160 2.012 C 7.811 2.006,6.748 2.014,6.614 2.057 M10.614 6.057 C 10.377 6.131,10.212 6.261,10.109 6.453 C 10.035 6.592,10.020 6.684,10.020 7.000 C 10.020 7.331,10.033 7.403,10.120 7.558 C 10.230 7.755,10.414 7.898,10.635 7.959 C 10.831 8.014,15.169 8.014,15.365 7.959 C 15.586 7.898,15.770 7.755,15.880 7.558 C 15.967 7.402,15.980 7.332,15.979 7.000 C 15.978 6.567,15.898 6.355,15.678 6.199 C 15.406 6.005,15.336 6.000,12.984 6.003 C 11.293 6.005,10.741 6.017,10.614 6.057 M8.598 10.040 C 8.597 10.051,8.521 10.097,8.428 10.143 C 8.121 10.293,7.978 10.621,8.009 11.104 C 8.038 11.563,8.250 11.852,8.635 11.959 C 8.715 11.981,9.185 12.000,9.680 12.000 L 10.581 12.000 11.598 13.018 C 12.158 13.579,12.608 14.042,12.598 14.048 C 12.588 14.055,12.508 14.098,12.420 14.145 C 12.117 14.306,11.979 14.627,12.009 15.104 C 12.038 15.563,12.250 15.852,12.635 15.959 C 12.715 15.981,13.185 16.000,13.680 16.000 L 14.580 16.000 15.840 17.265 C 16.992 18.421,17.074 18.512,16.800 18.331 C 16.635 18.221,16.437 18.099,16.360 18.060 C 16.172 17.962,15.825 17.962,15.620 18.059 C 15.526 18.103,15.157 18.434,14.730 18.855 L 14.000 19.575 13.270 18.853 C 12.856 18.444,12.467 18.094,12.372 18.045 C 12.265 17.992,12.128 17.960,12.000 17.960 C 11.872 17.960,11.735 17.992,11.628 18.045 C 11.533 18.094,11.144 18.444,10.730 18.853 L 10.000 19.575 9.270 18.855 C 8.843 18.434,8.474 18.103,8.380 18.059 C 8.174 17.962,7.828 17.962,7.640 18.060 C 7.563 18.100,7.185 18.342,6.800 18.599 C 6.415 18.855,6.078 19.079,6.050 19.095 C 6.010 19.119,6.000 17.943,6.000 13.273 L 6.000 7.420 7.300 8.720 C 8.015 9.435,8.599 10.029,8.598 10.040 M14.614 10.057 C 14.221 10.180,14.039 10.435,14.009 10.906 C 13.962 11.621,14.306 12.000,15.000 12.000 C 15.698 12.000,16.043 11.616,15.989 10.900 C 15.963 10.563,15.859 10.327,15.678 10.199 C 15.414 10.010,14.957 9.950,14.614 10.057 " stroke="none" fill="black" fill-rule="evenodd"></path></svg>