<svg xmlns="http://www.w3.org/2000/svg" width="24" height="24" viewBox="0 0 24 24" fill="none" stroke="currentColor" stroke-width="2" stroke-linecap="round" stroke-linejoin="round" class="icon icon-tabler icons-tabler-outline icon-tabler-chart-pie-4"><path d="M11.080 2.045 C 9.507 2.184,7.883 2.751,6.540 3.630 C 5.905 4.045,5.499 4.378,4.919 4.958 C 2.953 6.926,1.919 9.544,2.013 12.320 C 2.084 14.439,2.752 16.328,4.033 18.040 C 4.430 18.570,5.305 19.464,5.800 19.847 C 7.242 20.961,8.790 21.625,10.600 21.906 C 11.171 21.995,12.710 22.008,13.260 21.928 C 15.068 21.666,16.640 21.023,18.020 19.982 C 18.572 19.566,19.464 18.696,19.847 18.200 C 20.961 16.758,21.624 15.213,21.907 13.400 C 22.008 12.753,22.008 11.247,21.907 10.600 C 21.624 8.786,20.959 7.238,19.847 5.800 C 19.510 5.365,18.639 4.494,18.200 4.154 C 16.133 2.555,13.646 1.818,11.080 2.045 M11.000 7.810 L 10.999 11.540 8.150 13.950 L 5.300 16.359 5.231 16.270 C 5.070 16.062,4.547 14.944,4.403 14.498 C 3.482 11.664,4.191 8.585,6.256 6.446 C 7.356 5.306,8.815 4.496,10.340 4.177 C 10.582 4.127,10.830 4.084,10.890 4.083 L 11.000 4.080 11.000 7.810 M13.586 4.163 C 14.494 4.338,15.587 4.786,16.380 5.309 C 17.879 6.296,19.047 7.820,19.597 9.502 C 19.740 9.942,19.920 10.731,19.920 10.922 C 19.920 10.999,19.863 11.000,16.460 11.000 L 13.000 11.000 13.000 7.540 C 13.000 4.137,13.001 4.080,13.078 4.080 C 13.121 4.080,13.349 4.117,13.586 4.163 M19.920 13.078 C 19.920 13.121,19.883 13.349,19.837 13.586 C 19.600 14.817,18.973 16.123,18.152 17.100 C 17.830 17.483,17.253 18.068,17.227 18.038 C 17.207 18.016,13.947 13.121,13.905 13.050 C 13.881 13.010,14.490 13.000,16.898 13.000 C 19.867 13.000,19.920 13.001,19.920 13.078 M13.668 16.300 C 14.678 17.818,15.519 19.083,15.536 19.111 C 15.602 19.222,14.404 19.673,13.620 19.833 C 11.232 20.321,8.721 19.690,6.867 18.137 L 6.594 17.909 6.674 17.828 C 6.917 17.585,11.784 13.494,11.805 13.515 C 11.819 13.529,12.657 14.782,13.668 16.300 " stroke="none" fill="black" fill-rule="evenodd"></path></svg>