<svg xmlns="http://www.w3.org/2000/svg" width="24" height="24" viewBox="0 0 24 24" fill="none" stroke="currentColor" stroke-width="2" stroke-linecap="round" stroke-linejoin="round" class="icon icon-tabler icons-tabler-outline icon-tabler-haze-moon"><path d="M11.260 2.024 C 9.963 2.146,9.001 2.438,8.000 3.013 C 6.153 4.072,4.808 5.849,4.269 7.940 C 4.069 8.719,4.022 9.116,4.022 10.040 C 4.022 10.952,4.057 11.251,4.261 12.047 C 4.471 12.868,4.910 13.844,5.392 14.560 L 5.675 14.980 4.166 15.000 L 2.658 15.020 2.459 15.122 C 2.119 15.297,1.978 15.606,2.009 16.104 C 2.039 16.567,2.253 16.856,2.644 16.961 C 2.856 17.018,21.145 17.018,21.356 16.961 C 21.584 16.900,21.768 16.758,21.880 16.558 C 21.967 16.402,21.980 16.332,21.979 16.000 C 21.978 15.567,21.898 15.355,21.678 15.199 C 21.414 15.011,21.296 15.000,19.514 15.000 C 18.593 15.000,17.840 14.989,17.840 14.976 C 17.840 14.962,17.892 14.886,17.955 14.806 C 18.393 14.249,18.947 13.159,18.988 12.775 C 19.028 12.405,18.809 11.951,18.498 11.759 C 18.266 11.616,17.997 11.634,17.420 11.832 C 16.747 12.064,16.298 12.135,15.700 12.106 C 13.600 12.003,11.872 10.509,11.376 8.370 C 11.294 8.016,11.276 7.836,11.276 7.354 C 11.276 5.934,11.643 4.968,12.594 3.884 C 12.820 3.627,12.975 3.413,13.000 3.324 C 13.058 3.112,13.049 2.755,12.979 2.556 C 12.838 2.158,12.584 2.031,11.900 2.018 C 11.636 2.013,11.348 2.015,11.260 2.024 M9.859 4.430 C 9.255 5.855,9.107 7.235,9.401 8.688 C 9.829 10.803,11.260 12.628,13.181 13.509 C 13.913 13.845,14.541 14.009,15.391 14.087 L 15.921 14.136 15.711 14.351 C 15.595 14.469,15.373 14.663,15.217 14.783 L 14.934 15.000 11.762 15.000 L 8.590 15.000 8.319 14.799 C 8.170 14.689,7.881 14.424,7.678 14.212 C 6.548 13.030,5.931 11.371,6.013 9.740 C 6.094 8.153,6.680 6.804,7.760 5.717 C 8.281 5.193,8.693 4.889,9.265 4.605 C 9.820 4.331,9.913 4.303,9.859 4.430 M2.614 19.057 C 2.377 19.131,2.212 19.261,2.109 19.453 C 2.035 19.592,2.020 19.684,2.020 20.000 C 2.020 20.331,2.033 20.403,2.120 20.558 C 2.230 20.755,2.414 20.898,2.635 20.959 C 2.835 21.015,21.165 21.015,21.365 20.959 C 21.586 20.898,21.770 20.755,21.880 20.558 C 21.967 20.402,21.980 20.332,21.979 20.000 C 21.978 19.567,21.898 19.355,21.678 19.199 C 21.385 18.990,21.877 19.000,11.984 19.003 C 4.546 19.005,2.748 19.015,2.614 19.057 " stroke="none" fill="black" fill-rule="evenodd"></path></svg>