<svg xmlns="http://www.w3.org/2000/svg" width="24" height="24" viewBox="0 0 24 24" fill="none" stroke="currentColor" stroke-width="2" stroke-linecap="round" stroke-linejoin="round" class="icon icon-tabler icons-tabler-outline icon-tabler-chart-arcs"><path d="M11.614 2.057 C 11.223 2.180,11.039 2.436,11.009 2.900 C 10.978 3.379,11.119 3.701,11.437 3.876 C 11.589 3.960,11.690 3.977,12.216 4.006 C 13.571 4.081,14.556 4.331,15.614 4.870 C 17.180 5.667,18.403 6.911,19.184 8.500 C 20.263 10.697,20.263 13.291,19.183 15.499 C 18.749 16.387,18.223 17.105,17.496 17.801 C 16.876 18.394,16.262 18.819,15.471 19.200 C 13.267 20.265,10.733 20.265,8.529 19.200 C 6.942 18.434,5.672 17.189,4.870 15.614 C 4.333 14.558,4.086 13.589,4.004 12.217 C 3.964 11.527,3.902 11.348,3.649 11.182 C 3.198 10.887,2.426 10.979,2.170 11.358 C 2.015 11.588,1.988 11.773,2.014 12.420 C 2.097 14.468,2.777 16.363,4.033 18.040 C 4.430 18.570,5.305 19.464,5.800 19.847 C 7.242 20.961,8.787 21.624,10.600 21.907 C 11.247 22.008,12.753 22.008,13.400 21.907 C 15.638 21.557,17.504 20.620,19.062 19.062 C 20.620 17.504,21.557 15.638,21.907 13.400 C 21.961 13.054,21.978 12.707,21.978 12.000 C 21.978 11.293,21.961 10.946,21.907 10.600 C 21.557 8.362,20.619 6.494,19.062 4.939 C 17.858 3.736,16.486 2.913,14.866 2.423 C 13.775 2.092,12.103 1.904,11.614 2.057 M11.420 6.025 C 10.491 6.167,9.859 6.360,9.210 6.699 C 7.149 7.775,5.912 9.926,6.011 12.260 C 6.070 13.633,6.554 14.843,7.488 15.948 C 8.741 17.431,10.881 18.231,12.813 17.940 C 13.436 17.846,13.686 17.696,13.826 17.330 C 13.954 16.994,13.837 16.441,13.581 16.176 C 13.348 15.933,13.178 15.893,12.644 15.952 C 12.037 16.020,11.690 16.012,11.235 15.919 C 10.437 15.756,9.786 15.418,9.239 14.880 C 8.840 14.489,8.622 14.181,8.376 13.663 C 8.105 13.090,8.023 12.698,8.026 11.980 C 8.028 11.468,8.043 11.324,8.131 10.995 C 8.418 9.911,9.148 8.988,10.113 8.486 C 10.940 8.056,11.710 7.923,12.600 8.058 C 13.485 8.192,14.181 8.541,14.808 9.165 C 15.357 9.710,15.716 10.363,15.904 11.153 C 16.044 11.744,16.139 11.910,16.420 12.050 C 16.627 12.154,16.845 12.169,17.150 12.100 C 17.968 11.914,18.110 11.362,17.677 10.063 C 17.399 9.229,16.918 8.456,16.272 7.806 C 15.750 7.280,15.311 6.962,14.660 6.639 C 13.797 6.211,13.112 6.044,12.120 6.020 C 11.801 6.013,11.486 6.015,11.420 6.025 M11.477 10.073 C 10.806 10.249,10.238 10.823,10.060 11.508 C 9.941 11.962,10.003 12.492,10.225 12.930 C 10.361 13.199,10.801 13.639,11.070 13.775 C 11.659 14.073,12.341 14.073,12.930 13.775 C 13.196 13.640,13.638 13.200,13.771 12.937 C 13.994 12.498,14.052 12.007,13.940 11.529 C 13.858 11.182,13.720 10.927,13.465 10.653 C 13.074 10.232,12.560 10.005,12.000 10.005 C 11.857 10.005,11.622 10.036,11.477 10.073 " stroke="none" fill="black" fill-rule="evenodd"></path></svg>