<svg xmlns="http://www.w3.org/2000/svg" width="24" height="24" viewBox="0 0 24 24" fill="none" stroke="currentColor" stroke-width="2" stroke-linecap="round" stroke-linejoin="round" class="icon icon-tabler icons-tabler-outline icon-tabler-filter-heart"><path d="M3.614 3.057 C 3.377 3.131,3.212 3.261,3.109 3.453 C 3.022 3.615,3.020 3.659,3.008 5.058 C 2.998 6.259,3.007 6.550,3.061 6.816 C 3.145 7.230,3.272 7.538,3.496 7.871 C 3.596 8.019,4.650 9.208,5.838 10.513 L 7.999 12.886 8.009 17.093 L 8.020 21.300 8.127 21.504 C 8.348 21.921,8.666 22.085,9.094 22.000 C 9.496 21.921,11.401 21.255,11.574 21.132 C 11.662 21.071,11.776 20.939,11.828 20.840 C 11.953 20.603,11.936 20.269,11.783 19.934 C 11.517 19.353,11.164 19.237,10.398 19.479 C 10.190 19.545,10.015 19.599,10.010 19.599 C 10.005 19.600,10.000 17.957,10.000 15.950 L 9.999 12.300 9.905 12.100 C 9.837 11.957,9.158 11.182,7.503 9.363 C 6.233 7.968,5.155 6.753,5.107 6.663 C 5.028 6.515,5.019 6.430,5.007 5.750 L 4.994 5.000 12.000 5.000 L 19.006 5.000 18.993 5.730 C 18.982 6.347,18.969 6.482,18.906 6.600 C 18.865 6.677,17.972 7.604,16.922 8.660 C 15.644 9.945,14.988 10.633,14.939 10.740 C 14.845 10.943,14.843 11.259,14.936 11.435 C 15.041 11.633,15.310 11.911,15.516 12.031 C 15.735 12.160,16.022 12.171,16.260 12.062 C 16.369 12.011,17.060 11.346,18.421 9.984 C 20.490 7.911,20.567 7.823,20.787 7.278 C 20.987 6.783,21.006 6.580,20.992 5.042 C 20.980 3.660,20.977 3.615,20.891 3.453 C 20.785 3.256,20.622 3.131,20.371 3.055 C 20.106 2.976,3.868 2.978,3.614 3.057 M15.699 14.037 C 14.670 14.202,13.737 14.905,13.305 15.840 C 13.072 16.345,13.021 16.592,13.024 17.200 C 13.026 17.692,13.037 17.773,13.149 18.111 C 13.314 18.608,13.546 18.985,13.936 19.393 C 14.114 19.578,14.984 20.440,15.868 21.306 C 17.563 22.967,17.651 23.038,18.000 23.038 C 18.345 23.038,18.445 22.958,19.971 21.466 C 22.507 18.986,22.575 18.908,22.818 18.213 C 23.020 17.636,23.050 16.947,22.900 16.380 C 22.746 15.802,22.353 15.189,21.871 14.775 C 20.903 13.943,19.453 13.773,18.325 14.360 L 18.013 14.522 17.697 14.363 C 17.245 14.135,16.862 14.039,16.340 14.020 C 16.098 14.012,15.810 14.019,15.699 14.037 M16.753 16.136 C 16.861 16.191,17.080 16.356,17.239 16.502 C 17.843 17.056,18.170 17.055,18.773 16.497 C 19.226 16.077,19.559 15.955,20.020 16.041 C 20.841 16.193,21.259 17.127,20.806 17.797 C 20.748 17.883,20.101 18.542,19.368 19.262 C 18.242 20.369,18.025 20.565,17.961 20.535 C 17.919 20.516,17.278 19.898,16.537 19.163 C 15.024 17.661,15.020 17.657,15.023 17.160 C 15.025 16.915,15.045 16.822,15.133 16.651 C 15.292 16.341,15.584 16.126,15.980 16.025 C 16.156 15.980,16.559 16.038,16.753 16.136 " stroke="none" fill="black" fill-rule="evenodd"></path></svg>