<svg xmlns="http://www.w3.org/2000/svg" width="24" height="24" viewBox="0 0 24 24" fill="none" stroke="currentColor" stroke-width="2" stroke-linecap="round" stroke-linejoin="round" class="icon icon-tabler icons-tabler-outline icon-tabler-augmented-reality-off"><path d="M2.626 2.045 C 2.257 2.239,1.951 2.673,1.951 3.000 C 1.951 3.293,2.085 3.492,2.702 4.120 L 3.273 4.700 3.147 5.060 L 3.022 5.420 3.008 6.804 C 2.999 7.710,3.009 8.243,3.037 8.348 C 3.144 8.748,3.430 8.961,3.896 8.991 C 4.381 9.022,4.699 8.882,4.880 8.558 C 4.977 8.385,4.981 8.352,5.000 7.410 L 5.020 6.439 6.312 7.732 L 7.605 9.025 7.410 9.146 C 7.285 9.224,7.174 9.337,7.101 9.462 L 6.987 9.656 6.995 12.158 C 7.004 14.975,6.998 14.906,7.291 15.186 C 7.384 15.275,8.279 15.858,9.280 16.480 C 10.281 17.103,11.154 17.661,11.220 17.721 C 11.429 17.911,11.770 18.039,12.072 18.040 C 12.234 18.040,12.527 17.926,12.578 17.843 C 12.591 17.822,13.125 17.477,13.765 17.077 L 14.929 16.349 16.254 17.674 L 17.580 19.000 16.696 19.000 C 15.757 19.000,15.561 19.028,15.322 19.199 C 15.100 19.357,15.020 19.568,15.020 20.000 C 15.020 20.331,15.033 20.403,15.120 20.558 C 15.233 20.760,15.417 20.900,15.652 20.963 C 15.757 20.991,16.290 21.001,17.196 20.992 L 18.580 20.978 18.940 20.853 L 19.300 20.727 19.880 21.298 C 20.205 21.617,20.538 21.908,20.637 21.959 C 20.988 22.137,21.353 22.049,21.701 21.701 C 22.048 21.355,22.137 20.990,21.961 20.637 C 21.898 20.511,20.593 19.177,17.426 16.000 C 8.807 7.353,3.548 2.132,3.372 2.044 C 3.152 1.934,2.835 1.935,2.626 2.045 M15.614 3.056 C 15.376 3.133,15.211 3.262,15.109 3.453 C 15.035 3.592,15.020 3.684,15.020 4.000 C 15.020 4.331,15.033 4.403,15.120 4.558 C 15.230 4.755,15.414 4.898,15.635 4.959 C 15.717 4.982,16.287 5.000,16.943 5.000 C 18.308 5.000,18.412 5.018,18.697 5.303 C 18.982 5.588,19.000 5.692,19.000 7.057 C 19.000 7.713,19.018 8.283,19.041 8.365 C 19.148 8.750,19.437 8.962,19.896 8.991 C 20.381 9.022,20.699 8.882,20.880 8.558 L 20.980 8.380 20.980 6.920 C 20.980 5.501,20.977 5.452,20.886 5.160 C 20.581 4.181,19.825 3.421,18.861 3.124 C 18.550 3.028,18.498 3.024,17.160 3.013 C 16.090 3.005,15.743 3.014,15.614 3.056 M11.700 6.552 C 11.453 6.639,10.915 6.999,10.808 7.149 C 10.695 7.308,10.625 7.570,10.655 7.726 C 10.694 7.929,10.854 8.247,11.001 8.415 C 11.226 8.672,11.514 8.777,11.815 8.713 L 11.993 8.675 13.056 9.340 L 14.120 10.005 14.003 10.104 C 13.853 10.230,13.720 10.505,13.720 10.691 C 13.720 11.010,14.056 11.578,14.334 11.727 C 14.469 11.800,14.712 11.833,14.863 11.799 L 15.000 11.768 15.000 11.994 C 15.001 12.619,15.301 12.953,15.896 12.991 C 16.381 13.022,16.699 12.882,16.879 12.558 C 16.977 12.382,16.979 12.364,17.005 11.120 L 17.032 9.860 16.934 9.640 C 16.810 9.362,16.601 9.144,16.320 9.001 C 16.199 8.939,15.272 8.371,14.260 7.738 C 13.248 7.105,12.341 6.563,12.244 6.533 C 12.017 6.465,11.943 6.467,11.700 6.552 M11.000 14.128 L 11.000 15.202 10.790 15.069 C 10.675 14.996,10.225 14.714,9.790 14.443 L 9.000 13.951 9.000 12.878 L 9.000 11.805 10.000 12.430 L 11.000 13.054 11.000 14.128 M13.469 14.902 C 13.464 14.905,13.357 14.974,13.230 15.054 L 13.000 15.199 13.000 14.811 L 13.000 14.423 13.239 14.659 C 13.370 14.789,13.474 14.898,13.469 14.902 M3.614 15.057 C 3.377 15.131,3.212 15.261,3.109 15.453 C 3.022 15.617,3.020 15.647,3.020 17.080 C 3.020 18.499,3.023 18.548,3.114 18.840 C 3.419 19.817,4.158 20.562,5.140 20.884 C 5.405 20.971,5.492 20.976,6.804 20.991 C 7.715 21.001,8.243 20.992,8.348 20.963 C 8.583 20.900,8.767 20.760,8.880 20.558 C 8.967 20.402,8.980 20.332,8.979 20.000 C 8.977 19.469,8.850 19.243,8.455 19.072 C 8.375 19.037,7.942 19.016,7.020 19.001 L 5.700 18.980 5.516 18.872 C 5.327 18.761,5.157 18.570,5.071 18.373 C 5.037 18.295,5.015 17.854,5.001 16.940 C 4.981 15.672,4.976 15.613,4.891 15.453 C 4.842 15.362,4.746 15.247,4.678 15.199 C 4.414 15.010,3.957 14.950,3.614 15.057 " stroke="none" fill="black" fill-rule="evenodd"></path></svg>