<svg xmlns="http://www.w3.org/2000/svg" width="24" height="24" viewBox="0 0 24 24" fill="none" stroke="currentColor" stroke-width="2" stroke-linecap="round" stroke-linejoin="round" class="icon icon-tabler icons-tabler-outline icon-tabler-calendar-share"><path d="M7.614 2.057 C 7.377 2.131,7.212 2.261,7.109 2.453 C 7.029 2.603,7.019 2.689,7.007 3.305 L 6.994 3.991 6.227 4.010 C 5.567 4.027,5.415 4.043,5.139 4.126 C 4.181 4.415,3.420 5.179,3.114 6.160 L 3.020 6.460 3.020 13.000 L 3.020 19.540 3.114 19.840 C 3.418 20.816,4.150 21.555,5.140 21.886 L 5.420 21.979 8.810 21.991 C 11.058 21.999,12.252 21.989,12.354 21.962 C 12.583 21.900,12.768 21.758,12.880 21.558 C 12.967 21.402,12.980 21.332,12.979 21.000 C 12.977 20.469,12.852 20.247,12.455 20.071 C 12.366 20.032,11.588 20.015,9.020 20.000 L 5.700 19.980 5.516 19.872 C 5.415 19.813,5.284 19.700,5.225 19.623 C 4.992 19.317,5.000 19.464,5.000 15.575 L 5.000 12.000 12.000 12.000 L 19.000 12.000 19.000 12.610 C 19.000 12.945,19.019 13.285,19.041 13.365 C 19.148 13.750,19.437 13.962,19.896 13.991 C 20.381 14.022,20.699 13.882,20.880 13.558 L 20.980 13.380 20.980 9.920 L 20.980 6.460 20.886 6.160 C 20.580 5.179,19.819 4.415,18.861 4.126 C 18.585 4.043,18.433 4.027,17.774 4.010 L 17.008 3.991 16.993 3.305 C 16.975 2.524,16.927 2.364,16.649 2.182 C 16.199 1.887,15.426 1.979,15.170 2.358 C 15.029 2.568,15.000 2.739,15.000 3.390 L 15.000 4.000 12.004 4.000 L 9.008 4.000 8.993 3.310 C 8.976 2.541,8.930 2.378,8.678 2.199 C 8.414 2.010,7.957 1.950,7.614 2.057 M7.000 6.610 C 7.000 6.946,7.019 7.285,7.041 7.365 C 7.148 7.750,7.437 7.962,7.896 7.991 C 8.381 8.022,8.699 7.882,8.880 7.558 C 8.974 7.391,8.981 7.338,8.994 6.690 L 9.008 6.000 12.004 6.000 L 15.000 6.000 15.000 6.610 C 15.000 6.946,15.019 7.285,15.041 7.365 C 15.148 7.750,15.437 7.962,15.896 7.991 C 16.381 8.022,16.699 7.882,16.880 7.558 C 16.974 7.391,16.981 7.338,16.994 6.690 L 17.008 6.000 17.557 6.000 C 18.249 6.000,18.446 6.052,18.697 6.303 C 18.993 6.599,19.000 6.650,19.000 8.447 L 19.000 10.000 12.000 10.000 L 5.000 10.000 5.000 8.447 C 5.000 6.649,5.007 6.599,5.304 6.303 C 5.554 6.052,5.727 6.006,6.430 6.003 L 7.000 6.000 7.000 6.610 M18.460 15.999 C 15.916 16.022,15.992 16.015,15.752 16.267 C 15.584 16.443,15.513 16.658,15.512 16.997 C 15.510 17.348,15.582 17.556,15.771 17.751 C 15.988 17.976,16.151 18.000,17.436 18.000 L 18.578 18.000 16.853 19.730 C 15.679 20.908,15.100 21.517,15.040 21.637 C 14.863 21.989,14.952 22.354,15.299 22.701 C 15.646 23.048,16.011 23.137,16.363 22.960 C 16.483 22.900,17.092 22.321,18.270 21.147 L 20.000 19.422 20.000 20.564 C 20.000 21.849,20.024 22.012,20.249 22.229 C 20.442 22.416,20.647 22.487,20.997 22.488 C 21.336 22.490,21.552 22.419,21.735 22.248 C 21.985 22.013,21.977 22.088,22.007 19.460 C 22.022 18.140,22.036 17.001,22.037 16.929 C 22.041 16.740,21.834 16.310,21.690 16.207 C 21.467 16.048,21.205 15.959,20.987 15.969 C 20.873 15.974,19.736 15.987,18.460 15.999 " stroke="none" fill="black" fill-rule="evenodd"></path></svg>