<svg xmlns="http://www.w3.org/2000/svg" width="24" height="24" viewBox="0 0 24 24" fill="none" stroke="currentColor" stroke-width="2" stroke-linecap="round" stroke-linejoin="round" class="icon icon-tabler icons-tabler-outline icon-tabler-transfer"><path d="M9.177 3.017 C 9.109 3.046,8.987 3.129,8.904 3.201 C 8.636 3.437,3.223 9.363,3.120 9.534 C 3.034 9.676,3.020 9.748,3.020 10.040 C 3.020 10.328,3.035 10.407,3.120 10.558 C 3.230 10.755,3.414 10.898,3.635 10.959 C 3.835 11.015,20.165 11.015,20.365 10.959 C 20.586 10.898,20.770 10.755,20.880 10.558 C 20.967 10.402,20.980 10.332,20.979 10.000 C 20.977 9.469,20.852 9.247,20.455 9.071 C 20.364 9.031,18.887 9.016,13.316 9.000 L 6.292 8.980 8.327 6.760 C 10.374 4.528,10.560 4.299,10.560 4.027 C 10.560 3.686,10.250 3.248,9.875 3.057 C 9.657 2.947,9.374 2.931,9.177 3.017 M3.614 13.057 C 3.223 13.180,3.039 13.436,3.009 13.900 C 2.978 14.381,3.119 14.699,3.442 14.880 L 3.620 14.980 10.664 15.000 L 17.708 15.020 15.673 17.240 C 14.308 18.728,13.605 19.525,13.539 19.658 C 13.366 20.003,13.427 20.295,13.744 20.638 C 14.201 21.131,14.658 21.183,15.102 20.793 C 15.366 20.561,20.779 14.634,20.880 14.466 C 20.966 14.323,20.980 14.254,20.978 13.960 C 20.975 13.436,20.808 13.187,20.371 13.055 C 20.106 12.976,3.868 12.978,3.614 13.057 " stroke="none" fill="black" fill-rule="evenodd"></path></svg>