<svg xmlns="http://www.w3.org/2000/svg" width="24" height="24" viewBox="0 0 24 24" fill="none" stroke="currentColor" stroke-width="2" stroke-linecap="round" stroke-linejoin="round" class="icon icon-tabler icons-tabler-outline icon-tabler-inner-shadow-top-right"><path d="M11.080 2.045 C 9.507 2.184,7.883 2.751,6.540 3.630 C 5.905 4.045,5.499 4.378,4.919 4.958 C 2.953 6.926,1.919 9.544,2.013 12.320 C 2.084 14.439,2.752 16.328,4.033 18.040 C 4.430 18.570,5.305 19.464,5.800 19.847 C 7.242 20.961,8.787 21.624,10.600 21.907 C 11.247 22.008,12.753 22.008,13.400 21.907 C 15.638 21.557,17.504 20.620,19.062 19.062 C 20.620 17.504,21.557 15.638,21.907 13.400 C 22.008 12.753,22.008 11.247,21.907 10.600 C 21.624 8.786,20.959 7.238,19.847 5.800 C 19.510 5.365,18.639 4.494,18.200 4.154 C 16.133 2.555,13.646 1.818,11.080 2.045 M12.734 4.041 C 14.574 4.216,16.228 4.976,17.554 6.256 C 20.043 8.658,20.702 12.394,19.183 15.499 C 18.749 16.387,18.223 17.105,17.496 17.801 C 16.876 18.394,16.262 18.819,15.471 19.200 C 13.267 20.265,10.733 20.265,8.529 19.200 C 7.477 18.693,6.612 18.015,5.847 17.100 C 3.848 14.711,3.440 11.302,4.816 8.500 C 6.162 5.760,8.867 4.049,11.920 4.005 C 12.129 4.003,12.495 4.019,12.734 4.041 M11.614 5.055 C 11.220 5.184,11.039 5.437,11.009 5.900 C 10.978 6.377,11.119 6.701,11.435 6.875 C 11.572 6.951,11.699 6.976,12.073 7.003 C 12.707 7.049,12.890 7.074,13.240 7.163 C 14.979 7.601,16.399 9.021,16.837 10.760 C 16.926 11.110,16.951 11.293,16.997 11.927 C 17.024 12.301,17.049 12.428,17.125 12.565 C 17.286 12.856,17.575 13.000,18.000 13.000 C 18.428 13.000,18.713 12.856,18.880 12.558 C 18.973 12.392,18.980 12.345,18.977 11.840 C 18.961 8.787,16.788 6.024,13.780 5.234 C 13.094 5.053,11.915 4.956,11.614 5.055 " stroke="none" fill="black" fill-rule="evenodd"></path></svg>