<svg xmlns="http://www.w3.org/2000/svg" width="24" height="24" viewBox="0 0 24 24" fill="none" stroke="currentColor" stroke-width="2" stroke-linecap="round" stroke-linejoin="round" class="icon icon-tabler icons-tabler-outline icon-tabler-at-off"><path d="M2.626 2.045 C 2.257 2.239,1.951 2.673,1.951 3.000 C 1.951 3.327,2.064 3.474,3.189 4.606 L 4.248 5.671 4.049 5.926 C 3.273 6.917,2.624 8.270,2.303 9.567 C 2.103 10.374,2.042 10.825,2.014 11.720 C 1.987 12.587,2.045 13.243,2.224 14.080 C 3.012 17.782,5.848 20.739,9.497 21.664 C 11.425 22.153,13.258 22.094,15.120 21.482 C 16.279 21.101,16.555 20.864,16.512 20.286 C 16.479 19.828,16.169 19.378,15.823 19.281 C 15.595 19.217,15.402 19.251,14.882 19.445 C 13.227 20.065,11.627 20.154,9.966 19.720 C 7.877 19.174,6.137 17.827,5.023 15.896 C 4.489 14.971,4.141 13.821,4.033 12.628 C 3.944 11.638,4.099 10.374,4.425 9.426 C 4.673 8.707,5.188 7.722,5.569 7.239 L 5.679 7.100 6.749 8.170 L 7.820 9.241 7.744 9.370 C 7.448 9.871,7.215 10.468,7.093 11.040 C 6.991 11.514,6.991 12.533,7.093 12.980 C 7.260 13.719,7.544 14.367,7.944 14.922 C 8.243 15.338,8.812 15.884,9.240 16.168 C 10.636 17.093,12.410 17.256,13.947 16.599 C 14.151 16.512,14.406 16.387,14.513 16.320 C 14.621 16.254,14.725 16.200,14.744 16.200 C 14.763 16.200,16.057 17.476,17.619 19.036 C 19.615 21.028,20.513 21.898,20.637 21.961 C 20.990 22.137,21.354 22.048,21.701 21.701 C 22.047 21.355,22.136 20.990,21.961 20.637 C 21.839 20.392,3.616 2.165,3.372 2.044 C 3.152 1.934,2.834 1.935,2.626 2.045 M10.950 2.041 C 9.779 2.175,8.618 2.511,7.638 3.000 C 7.101 3.267,6.911 3.490,6.914 3.850 C 6.917 4.262,7.192 4.743,7.520 4.913 C 7.785 5.050,8.003 5.015,8.627 4.739 C 9.804 4.217,10.780 4.001,11.972 4.000 C 13.143 4.000,14.197 4.217,15.228 4.673 C 17.761 5.793,19.505 8.105,19.926 10.900 C 19.963 11.146,19.980 11.671,19.980 12.561 L 19.980 13.862 19.852 14.121 C 19.698 14.433,19.514 14.628,19.159 14.858 C 18.853 15.056,18.744 15.191,18.672 15.457 C 18.627 15.627,18.631 15.671,18.715 15.911 C 18.876 16.371,19.103 16.623,19.449 16.723 C 19.766 16.815,20.349 16.544,20.868 16.063 C 21.363 15.605,21.701 15.047,21.889 14.380 C 21.975 14.075,21.979 13.992,21.979 12.580 C 21.980 11.573,21.963 10.985,21.928 10.740 C 21.751 9.514,21.463 8.582,20.935 7.522 C 20.412 6.471,19.813 5.653,18.952 4.816 C 18.142 4.028,17.437 3.537,16.340 2.997 C 15.415 2.541,14.558 2.274,13.453 2.098 C 12.989 2.024,11.409 1.988,10.950 2.041 M11.614 7.057 C 11.223 7.180,11.039 7.436,11.009 7.900 C 10.978 8.377,11.119 8.701,11.435 8.875 C 11.572 8.951,11.701 8.977,12.078 9.005 C 12.859 9.063,13.421 9.275,13.912 9.696 C 14.602 10.288,14.923 10.947,14.995 11.922 C 15.023 12.299,15.049 12.428,15.125 12.565 C 15.286 12.856,15.575 13.000,16.000 13.000 C 16.428 13.000,16.713 12.856,16.880 12.558 C 16.972 12.394,16.980 12.340,16.979 11.880 C 16.978 10.314,16.128 8.752,14.800 7.874 C 14.046 7.375,13.396 7.135,12.552 7.043 C 12.057 6.988,11.822 6.992,11.614 7.057 M13.256 14.726 C 13.201 14.815,12.558 14.969,12.158 14.989 C 11.146 15.040,10.226 14.618,9.626 13.827 C 9.366 13.485,9.240 13.241,9.114 12.839 C 9.035 12.587,9.021 12.455,9.021 12.000 C 9.022 11.460,9.061 11.235,9.225 10.842 L 9.283 10.703 11.279 12.699 C 12.377 13.797,13.267 14.709,13.256 14.726 " stroke="none" fill="black" fill-rule="evenodd"></path></svg>