<svg xmlns="http://www.w3.org/2000/svg" width="24" height="24" viewBox="0 0 24 24" fill="none" stroke="currentColor" stroke-width="2" stroke-linecap="round" stroke-linejoin="round" class="icon icon-tabler icons-tabler-outline icon-tabler-unlink"><path d="M6.614 1.057 C 6.377 1.131,6.212 1.261,6.109 1.453 C 6.023 1.614,6.020 1.665,6.008 2.908 C 6.000 3.720,6.011 4.254,6.038 4.352 C 6.144 4.747,6.432 4.961,6.896 4.991 C 7.381 5.022,7.699 4.882,7.880 4.558 L 7.980 4.380 7.980 3.000 C 7.980 1.650,7.978 1.616,7.891 1.453 C 7.842 1.362,7.746 1.247,7.678 1.199 C 7.414 1.010,6.957 0.950,6.614 1.057 M14.340 3.044 C 13.127 3.168,11.908 3.717,10.980 4.555 C 10.640 4.862,10.124 5.469,10.034 5.669 C 9.868 6.035,9.970 6.420,10.313 6.725 C 10.677 7.048,11.036 7.126,11.384 6.958 C 11.510 6.897,11.673 6.749,11.902 6.485 C 12.398 5.913,12.817 5.596,13.434 5.326 C 14.270 4.959,15.383 4.910,16.244 5.203 C 18.032 5.811,19.178 7.589,18.965 9.425 C 18.841 10.495,18.368 11.362,17.495 12.117 C 17.083 12.474,16.948 12.691,16.954 12.984 C 16.964 13.490,17.500 14.047,17.976 14.047 C 18.236 14.047,18.456 13.929,18.861 13.575 C 19.519 13.001,19.927 12.496,20.294 11.800 C 21.537 9.445,21.094 6.589,19.196 4.731 C 17.889 3.453,16.170 2.855,14.340 3.044 M1.614 6.057 C 1.377 6.131,1.212 6.261,1.109 6.453 C 1.035 6.592,1.020 6.684,1.020 7.000 C 1.020 7.331,1.033 7.403,1.120 7.558 C 1.230 7.755,1.414 7.898,1.635 7.959 C 1.826 8.012,4.174 8.012,4.365 7.959 C 4.586 7.898,4.770 7.755,4.880 7.558 C 4.967 7.402,4.980 7.332,4.979 7.000 C 4.978 6.687,4.962 6.591,4.890 6.453 C 4.786 6.256,4.623 6.131,4.371 6.055 C 4.117 5.979,1.859 5.981,1.614 6.057 M14.620 8.046 C 14.383 8.167,8.154 14.406,8.039 14.637 C 7.863 14.990,7.953 15.355,8.299 15.701 C 8.645 16.047,9.010 16.137,9.363 15.961 C 9.613 15.836,15.836 9.613,15.961 9.363 C 16.137 9.010,16.047 8.645,15.701 8.299 C 15.361 7.959,14.968 7.867,14.620 8.046 M5.649 10.045 C 5.347 10.194,4.599 10.894,4.244 11.360 C 3.680 12.100,3.321 12.889,3.113 13.846 C 2.984 14.444,2.984 15.557,3.114 16.154 C 3.436 17.641,4.201 18.860,5.380 19.765 C 7.211 21.169,9.731 21.386,11.819 20.318 C 12.727 19.854,13.523 19.124,13.918 18.394 C 14.199 17.875,13.974 17.349,13.346 17.057 C 12.900 16.849,12.536 16.970,12.171 17.446 C 11.753 17.992,11.488 18.225,10.960 18.510 C 10.318 18.857,9.584 19.024,8.860 18.987 C 6.920 18.890,5.347 17.488,5.058 15.600 C 4.986 15.122,4.986 14.879,5.058 14.395 C 5.189 13.527,5.571 12.789,6.206 12.178 C 6.835 11.573,6.927 11.472,6.988 11.326 C 7.070 11.132,7.061 10.878,6.964 10.660 C 6.870 10.448,6.558 10.125,6.354 10.029 C 6.154 9.934,5.859 9.941,5.649 10.045 M19.614 16.057 C 19.377 16.131,19.212 16.261,19.109 16.453 C 19.035 16.592,19.020 16.684,19.020 17.000 C 19.020 17.331,19.033 17.403,19.120 17.558 C 19.230 17.755,19.414 17.898,19.635 17.959 C 19.826 18.012,22.174 18.012,22.365 17.959 C 22.586 17.898,22.770 17.755,22.880 17.558 C 22.967 17.402,22.980 17.332,22.979 17.000 C 22.978 16.687,22.962 16.591,22.890 16.453 C 22.786 16.256,22.623 16.131,22.371 16.055 C 22.117 15.979,19.859 15.981,19.614 16.057 M16.614 19.057 C 16.377 19.131,16.212 19.261,16.109 19.453 C 16.023 19.614,16.020 19.665,16.008 20.908 C 16.000 21.720,16.011 22.254,16.038 22.352 C 16.144 22.747,16.432 22.961,16.896 22.991 C 17.381 23.022,17.699 22.882,17.880 22.558 L 17.980 22.380 17.980 21.000 C 17.980 19.650,17.978 19.616,17.891 19.453 C 17.842 19.362,17.746 19.247,17.678 19.199 C 17.414 19.010,16.957 18.950,16.614 19.057 " stroke="none" fill="black" fill-rule="evenodd"></path></svg>