<svg xmlns="http://www.w3.org/2000/svg" width="24" height="24" viewBox="0 0 24 24" fill="none" stroke="currentColor" stroke-width="2" stroke-linecap="round" stroke-linejoin="round" class="icon icon-tabler icons-tabler-outline icon-tabler-brand-fortnite"><path d="M7.614 2.057 C 7.377 2.131,7.212 2.261,7.109 2.453 L 7.020 2.620 7.008 11.840 C 6.999 18.462,7.008 21.118,7.040 21.266 C 7.098 21.538,7.277 21.801,7.482 21.916 C 7.772 22.079,7.932 22.054,10.274 21.464 C 12.625 20.872,12.696 20.846,12.880 20.518 L 12.980 20.340 12.991 17.434 L 13.002 14.527 14.151 14.513 C 15.443 14.497,15.532 14.479,15.787 14.189 C 15.998 13.949,16.007 13.829,15.993 11.620 C 15.980 9.641,15.979 9.618,15.891 9.453 C 15.842 9.362,15.746 9.247,15.678 9.199 C 15.430 9.022,15.256 9.000,14.094 9.000 L 13.000 9.000 13.000 8.500 L 13.000 8.000 14.082 8.000 C 14.739 8.000,15.234 7.983,15.340 7.956 C 15.568 7.899,15.813 7.686,15.900 7.471 C 16.007 7.206,16.518 3.083,16.479 2.795 C 16.426 2.407,16.247 2.177,15.909 2.064 C 15.738 2.007,15.283 2.000,11.749 2.003 C 8.609 2.005,7.745 2.016,7.614 2.057 M14.360 4.030 C 14.360 4.046,14.306 4.483,14.240 5.000 C 14.174 5.517,14.120 5.953,14.120 5.968 C 14.120 5.983,13.566 6.001,12.889 6.008 L 11.658 6.020 11.459 6.122 C 11.245 6.233,11.105 6.404,11.041 6.635 C 10.987 6.829,10.987 10.171,11.041 10.365 C 11.102 10.586,11.245 10.770,11.442 10.880 C 11.619 10.980,11.626 10.980,12.810 10.992 L 14.000 11.004 14.000 11.762 L 14.000 12.520 12.870 12.520 C 12.197 12.520,11.678 12.538,11.587 12.563 C 11.503 12.586,11.364 12.669,11.277 12.747 C 10.994 13.004,11.000 12.922,11.000 16.258 L 11.000 19.222 10.050 19.457 C 9.527 19.586,9.078 19.700,9.050 19.710 C 9.010 19.725,9.000 18.139,9.000 11.864 L 9.000 4.000 11.680 4.000 C 13.154 4.000,14.360 4.014,14.360 4.030 " stroke="none" fill="black" fill-rule="evenodd"></path></svg>