<svg xmlns="http://www.w3.org/2000/svg" width="24" height="24" viewBox="0 0 24 24" fill="none" stroke="currentColor" stroke-width="2" stroke-linecap="round" stroke-linejoin="round" class="icon icon-tabler icons-tabler-outline icon-tabler-eye-off"><path d="M2.626 2.045 C 2.420 2.154,2.146 2.433,2.038 2.644 C 1.924 2.868,1.924 3.133,2.040 3.363 C 2.101 3.484,2.705 4.118,3.952 5.368 L 5.775 7.197 5.657 7.288 C 5.389 7.498,4.791 8.059,4.403 8.464 C 3.839 9.055,3.246 9.806,2.700 10.621 C 2.108 11.504,2.001 11.715,2.001 12.000 C 2.001 12.276,2.100 12.477,2.619 13.262 C 4.135 15.552,5.852 17.150,7.771 18.059 C 9.966 19.098,12.570 19.288,14.890 18.579 C 15.348 18.439,16.029 18.171,16.344 18.007 L 16.500 17.926 18.480 19.899 C 19.840 21.254,20.516 21.899,20.637 21.960 C 20.989 22.137,21.354 22.048,21.701 21.701 C 22.048 21.354,22.137 20.989,21.960 20.637 C 21.853 20.424,20.068 18.623,10.440 9.014 C 5.685 4.269,3.488 2.102,3.372 2.044 C 3.152 1.934,2.834 1.935,2.626 2.045 M11.280 5.027 C 10.537 5.082,9.840 5.215,9.587 5.352 C 9.295 5.509,9.179 5.732,9.183 6.128 C 9.186 6.389,9.206 6.475,9.315 6.696 C 9.540 7.153,9.805 7.258,10.452 7.147 C 11.213 7.016,11.868 6.980,12.533 7.031 C 13.672 7.120,14.400 7.310,15.380 7.778 C 16.886 8.495,18.236 9.720,19.472 11.488 C 19.804 11.963,19.813 11.982,19.755 12.090 C 19.586 12.411,18.790 13.450,18.261 14.040 C 17.962 14.374,17.801 14.668,17.800 14.882 C 17.800 15.082,17.972 15.404,18.184 15.600 C 18.529 15.918,18.878 15.997,19.222 15.835 C 19.612 15.652,20.760 14.247,21.592 12.937 C 21.938 12.393,22.000 12.246,21.999 11.985 C 21.999 11.726,21.891 11.509,21.381 10.738 C 19.572 8.005,17.487 6.268,15.080 5.487 C 13.910 5.107,12.505 4.937,11.280 5.027 M8.247 9.670 L 9.274 10.700 9.149 11.060 C 9.033 11.395,9.024 11.459,9.022 11.980 C 9.020 12.459,9.034 12.583,9.114 12.840 C 9.422 13.827,10.173 14.578,11.160 14.886 C 11.417 14.966,11.541 14.980,12.020 14.978 C 12.541 14.976,12.605 14.967,12.940 14.851 L 13.300 14.726 14.153 15.576 L 15.005 16.426 14.573 16.571 C 13.720 16.859,13.204 16.954,12.315 16.988 C 10.370 17.062,8.582 16.461,6.972 15.193 C 6.344 14.698,5.465 13.779,4.894 13.020 C 4.577 12.598,4.200 12.044,4.200 12.000 C 4.200 11.948,4.604 11.364,5.004 10.840 C 5.352 10.382,6.021 9.644,6.440 9.256 C 6.684 9.029,7.164 8.640,7.198 8.640 C 7.211 8.640,7.683 9.104,8.247 9.670 " stroke="none" fill="black" fill-rule="evenodd"></path></svg>