<svg xmlns="http://www.w3.org/2000/svg" width="24" height="24" viewBox="0 0 24 24" fill="none" stroke="currentColor" stroke-width="2" stroke-linecap="round" stroke-linejoin="round" class="icon icon-tabler icons-tabler-outline icon-tabler-adjustments-share"><path d="M5.614 3.057 C 5.377 3.131,5.212 3.261,5.109 3.453 C 5.022 3.617,5.020 3.656,5.000 5.387 L 4.980 7.153 4.660 7.317 C 3.919 7.698,3.363 8.360,3.114 9.160 C 2.979 9.594,2.979 10.406,3.114 10.840 C 3.365 11.645,3.931 12.318,4.670 12.688 L 5.000 12.853 5.000 16.537 C 5.000 18.881,5.015 20.273,5.041 20.365 C 5.148 20.750,5.437 20.962,5.896 20.991 C 6.381 21.022,6.699 20.882,6.880 20.558 L 6.980 20.380 7.000 16.613 L 7.020 12.845 7.340 12.684 C 8.072 12.314,8.637 11.640,8.886 10.840 C 9.021 10.406,9.021 9.594,8.886 9.160 C 8.637 8.360,8.081 7.698,7.340 7.317 L 7.020 7.153 7.000 5.387 C 6.980 3.656,6.978 3.617,6.891 3.453 C 6.842 3.362,6.746 3.247,6.678 3.199 C 6.414 3.010,5.957 2.950,5.614 3.057 M11.614 3.057 C 11.377 3.131,11.212 3.261,11.109 3.453 L 11.020 3.620 11.009 8.392 L 10.999 13.163 10.817 13.241 C 10.717 13.284,10.515 13.397,10.368 13.493 C 8.967 14.403,8.582 16.260,9.502 17.663 C 9.799 18.116,10.373 18.594,10.810 18.751 L 11.000 18.819 11.000 19.519 C 11.000 19.905,11.019 20.285,11.041 20.365 C 11.148 20.750,11.437 20.962,11.896 20.991 C 12.381 21.022,12.699 20.882,12.880 20.558 C 12.976 20.388,12.981 20.346,12.994 19.590 C 13.004 18.989,13.019 18.800,13.058 18.800 C 13.161 18.800,13.441 18.555,13.524 18.393 C 13.700 18.048,13.553 17.388,13.237 17.102 C 13.010 16.897,12.813 16.857,12.413 16.936 C 12.002 17.016,11.902 17.016,11.660 16.934 C 11.299 16.811,11.000 16.396,11.000 16.020 C 11.000 15.768,11.119 15.479,11.295 15.303 C 11.679 14.919,12.243 14.908,12.679 15.275 C 13.081 15.614,13.418 15.694,13.743 15.529 C 13.944 15.426,14.296 15.056,14.377 14.860 C 14.456 14.673,14.458 14.439,14.382 14.258 C 14.254 13.952,13.688 13.465,13.218 13.257 L 13.002 13.162 12.991 8.391 L 12.980 3.620 12.891 3.453 C 12.842 3.362,12.746 3.247,12.678 3.199 C 12.414 3.010,11.957 2.950,11.614 3.057 M17.614 3.057 C 17.229 3.178,17.041 3.435,17.009 3.885 L 16.990 4.150 16.665 4.316 C 15.922 4.693,15.364 5.357,15.114 6.160 C 14.979 6.594,14.979 7.406,15.114 7.840 C 15.365 8.645,15.931 9.318,16.670 9.688 L 17.000 9.853 17.000 11.537 C 17.000 12.541,17.017 13.278,17.041 13.365 C 17.148 13.750,17.437 13.962,17.896 13.991 C 18.381 14.022,18.699 13.882,18.880 13.558 L 18.980 13.380 19.000 11.613 L 19.020 9.845 19.340 9.684 C 20.072 9.314,20.637 8.640,20.886 7.840 C 21.021 7.406,21.021 6.594,20.886 6.160 C 20.636 5.357,20.078 4.693,19.335 4.316 L 19.011 4.151 18.988 3.879 C 18.961 3.561,18.853 3.323,18.678 3.199 C 18.414 3.010,17.957 2.950,17.614 3.057 M18.310 6.061 C 18.688 6.173,19.000 6.598,19.000 7.001 C 19.000 7.331,18.784 7.696,18.484 7.872 C 18.328 7.963,18.254 7.980,18.000 7.980 C 17.746 7.980,17.672 7.963,17.516 7.872 C 16.935 7.530,16.833 6.774,17.304 6.303 C 17.583 6.024,17.916 5.944,18.310 6.061 M6.310 9.061 C 6.688 9.173,7.000 9.598,7.000 10.001 C 7.000 10.331,6.784 10.696,6.484 10.872 C 6.328 10.963,6.254 10.980,6.000 10.980 C 5.746 10.980,5.672 10.963,5.516 10.872 C 4.935 10.530,4.833 9.774,5.304 9.303 C 5.583 9.024,5.916 8.944,6.310 9.061 M18.460 15.999 C 15.916 16.022,15.992 16.015,15.752 16.267 C 15.584 16.443,15.513 16.658,15.512 16.997 C 15.510 17.348,15.582 17.556,15.771 17.751 C 15.988 17.976,16.151 18.000,17.436 18.000 L 18.578 18.000 16.853 19.730 C 15.679 20.908,15.100 21.517,15.040 21.637 C 14.863 21.989,14.952 22.354,15.299 22.701 C 15.646 23.048,16.011 23.137,16.363 22.960 C 16.483 22.900,17.092 22.321,18.270 21.147 L 20.000 19.422 20.000 20.564 C 20.000 21.849,20.024 22.012,20.249 22.229 C 20.442 22.416,20.647 22.487,20.997 22.488 C 21.336 22.490,21.552 22.419,21.735 22.248 C 21.985 22.013,21.977 22.088,22.007 19.460 C 22.022 18.140,22.036 17.001,22.037 16.929 C 22.041 16.740,21.834 16.310,21.690 16.207 C 21.467 16.048,21.205 15.959,20.987 15.969 C 20.873 15.974,19.736 15.987,18.460 15.999 " stroke="none" fill="black" fill-rule="evenodd"></path></svg>