<svg xmlns="http://www.w3.org/2000/svg" width="24" height="24" viewBox="0 0 24 24" fill="none" stroke="currentColor" stroke-width="2" stroke-linecap="round" stroke-linejoin="round" class="icon icon-tabler icons-tabler-outline icon-tabler-medical-cross-off"><path d="M2.626 2.045 C 2.257 2.239,1.951 2.673,1.951 3.000 C 1.951 3.326,2.065 3.475,3.170 4.587 L 4.210 5.634 4.069 5.807 C 3.873 6.047,2.771 7.960,2.670 8.235 C 2.548 8.565,2.550 9.128,2.674 9.491 C 2.793 9.838,3.033 10.196,3.276 10.388 C 3.381 10.472,4.028 10.864,4.713 11.260 C 5.399 11.655,5.960 11.989,5.960 12.002 C 5.960 12.014,5.416 12.339,4.751 12.722 C 4.086 13.106,3.441 13.494,3.318 13.585 C 3.047 13.784,2.801 14.138,2.675 14.509 C 2.555 14.863,2.546 15.399,2.655 15.720 C 2.696 15.841,3.002 16.416,3.335 16.997 C 4.014 18.183,4.201 18.417,4.646 18.636 C 4.787 18.705,5.049 18.793,5.229 18.830 C 5.509 18.888,5.596 18.890,5.847 18.848 C 6.222 18.785,6.514 18.641,7.880 17.848 L 8.980 17.209 9.000 18.835 C 9.020 20.405,9.024 20.468,9.111 20.684 C 9.363 21.311,9.883 21.777,10.508 21.940 C 10.839 22.027,13.161 22.027,13.492 21.940 C 14.146 21.770,14.708 21.237,14.924 20.580 C 14.962 20.464,14.982 19.983,14.998 18.815 L 15.020 17.210 15.931 17.737 L 16.842 18.264 18.651 20.068 C 19.887 21.300,20.516 21.899,20.637 21.960 C 20.989 22.137,21.354 22.048,21.701 21.701 C 22.048 21.354,22.137 20.989,21.960 20.637 C 21.901 20.519,21.389 19.975,20.420 19.000 C 19.337 17.910,18.958 17.504,18.924 17.398 C 18.869 17.224,18.661 17.018,18.340 16.820 C 18.164 16.711,16.150 14.723,10.820 9.399 C 5.791 4.376,3.488 2.102,3.372 2.044 C 3.152 1.934,2.834 1.935,2.626 2.045 M10.477 2.073 C 9.806 2.249,9.238 2.823,9.060 3.508 C 9.013 3.687,9.000 4.006,9.000 4.978 C 9.000 5.687,9.018 6.282,9.041 6.365 C 9.148 6.750,9.437 6.962,9.896 6.991 C 10.381 7.022,10.699 6.882,10.880 6.558 C 10.979 6.381,10.980 6.374,10.993 5.190 L 11.005 4.000 12.003 4.000 L 13.000 4.000 13.000 6.375 C 13.000 9.056,12.999 9.041,13.284 9.299 C 13.474 9.470,13.699 9.532,14.059 9.513 L 14.340 9.497 16.375 8.322 C 18.409 7.147,18.410 7.147,18.475 7.234 C 18.511 7.283,18.736 7.665,18.976 8.083 C 19.257 8.576,19.398 8.858,19.372 8.884 C 19.351 8.905,18.444 9.436,17.357 10.064 C 16.270 10.691,15.310 11.271,15.225 11.353 C 15.140 11.434,15.046 11.558,15.015 11.629 C 14.885 11.931,15.011 12.407,15.293 12.684 C 15.400 12.789,16.158 13.250,17.400 13.966 C 18.467 14.582,19.355 15.100,19.372 15.117 C 19.390 15.135,19.322 15.309,19.220 15.504 C 19.000 15.926,18.962 16.129,19.057 16.377 C 19.191 16.728,19.728 17.089,20.116 17.089 C 20.493 17.089,20.741 16.877,21.090 16.260 C 21.347 15.804,21.419 15.565,21.419 15.160 C 21.420 14.524,21.135 13.918,20.682 13.585 C 20.558 13.494,19.913 13.106,19.248 12.723 C 18.584 12.339,18.040 12.015,18.040 12.002 C 18.040 11.990,18.618 11.646,19.324 11.240 C 20.747 10.420,20.969 10.250,21.191 9.805 C 21.455 9.278,21.499 8.712,21.317 8.217 C 21.179 7.846,20.050 5.928,19.852 5.730 C 19.467 5.345,19.004 5.155,18.440 5.150 C 18.236 5.149,18.011 5.174,17.877 5.213 C 17.697 5.266,16.466 5.945,15.190 6.696 L 15.000 6.808 14.999 5.294 C 14.999 3.660,14.981 3.476,14.781 3.083 C 14.551 2.628,14.022 2.203,13.523 2.073 C 13.134 1.972,10.866 1.972,10.477 2.073 M5.802 7.276 C 5.900 7.339,7.627 9.040,9.640 11.056 C 12.881 14.301,13.294 14.728,13.250 14.790 C 13.223 14.828,13.160 14.932,13.110 15.020 L 13.020 15.180 13.009 17.590 L 12.998 20.000 11.999 20.000 L 11.000 20.000 11.000 17.625 C 11.000 15.520,10.992 15.226,10.934 15.043 C 10.855 14.801,10.641 14.586,10.413 14.523 C 10.153 14.451,9.777 14.470,9.588 14.564 C 9.496 14.611,8.577 15.135,7.547 15.729 C 6.517 16.324,5.646 16.812,5.612 16.815 C 5.548 16.820,4.588 15.216,4.612 15.143 C 4.619 15.123,5.506 14.598,6.582 13.977 C 7.659 13.356,8.628 12.770,8.735 12.676 C 8.955 12.482,9.040 12.317,9.040 12.083 C 9.040 11.849,8.898 11.508,8.727 11.333 C 8.631 11.234,7.893 10.785,6.639 10.064 C 5.573 9.450,4.675 8.925,4.644 8.896 C 4.596 8.853,4.632 8.766,4.882 8.332 C 5.415 7.404,5.563 7.160,5.594 7.160 C 5.611 7.160,5.704 7.212,5.802 7.276 " stroke="none" fill="black" fill-rule="evenodd"></path></svg>