<svg xmlns="http://www.w3.org/2000/svg" width="24" height="24" viewBox="0 0 24 24" fill="none" stroke="currentColor" stroke-width="2" stroke-linecap="round" stroke-linejoin="round" class="icon icon-tabler icons-tabler-outline icon-tabler-checkbox"><path d="M5.499 3.043 C 4.383 3.230,3.461 4.048,3.114 5.160 L 3.020 5.460 3.020 12.000 L 3.020 18.540 3.114 18.840 C 3.422 19.827,4.173 20.578,5.160 20.886 L 5.460 20.980 12.000 20.980 L 18.540 20.980 18.840 20.886 C 19.827 20.578,20.578 19.827,20.886 18.840 L 20.980 18.540 20.980 15.080 L 20.980 11.620 20.889 11.450 C 20.724 11.140,20.329 10.970,19.874 11.011 C 19.439 11.051,19.141 11.274,19.041 11.635 C 19.015 11.727,19.000 12.948,19.000 14.944 C 19.000 18.376,19.003 18.324,18.779 18.618 C 18.718 18.698,18.585 18.813,18.484 18.872 L 18.300 18.980 12.000 18.980 L 5.700 18.980 5.516 18.872 C 5.415 18.813,5.284 18.700,5.225 18.623 C 4.987 18.311,5.000 18.701,5.000 12.022 C 5.000 5.123,4.977 5.629,5.303 5.303 C 5.625 4.981,5.295 5.000,10.557 5.000 C 13.557 5.000,15.272 4.985,15.365 4.959 C 15.586 4.898,15.770 4.755,15.880 4.558 C 15.967 4.402,15.980 4.332,15.979 4.000 C 15.978 3.567,15.898 3.355,15.678 3.199 C 15.391 2.995,15.530 3.000,10.444 3.005 C 7.835 3.007,5.609 3.025,5.499 3.043 M19.620 5.046 C 19.520 5.097,18.054 6.532,15.730 8.853 L 12.001 12.578 10.770 11.354 C 10.001 10.588,9.477 10.098,9.372 10.045 C 9.020 9.868,8.639 9.958,8.299 10.299 C 7.952 10.645,7.863 11.010,8.039 11.363 C 8.163 11.610,11.390 14.837,11.637 14.961 C 11.868 15.076,12.132 15.076,12.363 14.961 C 12.614 14.835,20.835 6.614,20.961 6.363 C 21.136 6.010,21.047 5.645,20.701 5.299 C 20.361 4.959,19.968 4.867,19.620 5.046 " stroke="none" fill="black" fill-rule="evenodd"></path></svg>