<svg xmlns="http://www.w3.org/2000/svg" width="24" height="24" viewBox="0 0 24 24" fill="none" stroke="currentColor" stroke-width="2" stroke-linecap="round" stroke-linejoin="round" class="icon icon-tabler icons-tabler-outline icon-tabler-heart-bolt"><path d="M7.360 3.026 C 6.162 3.208,5.471 3.463,4.598 4.045 C 4.166 4.333,3.397 5.077,3.113 5.480 C 2.372 6.534,1.996 7.723,1.998 9.000 C 2.002 10.483,2.516 11.856,3.469 12.924 C 3.618 13.091,4.856 14.332,6.220 15.682 C 7.584 17.032,9.321 18.751,10.080 19.504 C 10.993 20.408,11.520 20.901,11.637 20.960 C 11.869 21.076,12.131 21.076,12.363 20.960 C 12.600 20.841,13.841 19.600,13.960 19.363 C 14.137 19.011,14.048 18.646,13.701 18.299 C 13.466 18.064,13.251 17.960,13.000 17.960 C 12.742 17.960,12.555 18.055,12.243 18.344 L 11.999 18.570 11.550 18.137 C 9.995 16.639,4.999 11.652,4.822 11.420 C 4.549 11.062,4.387 10.770,4.243 10.374 C 3.870 9.352,3.935 8.162,4.415 7.212 C 4.639 6.769,4.809 6.532,5.150 6.186 C 5.969 5.355,6.989 4.959,8.180 5.011 C 9.402 5.065,10.316 5.550,11.233 6.631 C 11.599 7.062,11.944 7.155,12.382 6.941 C 12.552 6.858,12.678 6.745,12.925 6.457 C 13.527 5.753,14.281 5.295,15.175 5.092 C 15.519 5.014,16.389 5.005,16.740 5.076 C 17.802 5.292,18.728 5.902,19.317 6.773 C 19.525 7.080,19.785 7.670,19.884 8.060 C 19.960 8.359,19.976 8.522,19.974 9.020 C 19.972 9.535,19.957 9.675,19.868 10.011 C 19.755 10.436,19.545 10.890,19.282 11.277 C 19.050 11.618,18.962 11.829,18.962 12.040 C 18.962 12.289,19.074 12.513,19.298 12.710 C 19.804 13.155,20.296 13.162,20.687 12.729 C 21.203 12.158,21.667 11.165,21.889 10.160 C 22.015 9.586,22.014 8.420,21.887 7.848 C 21.604 6.574,21.122 5.681,20.241 4.797 C 19.332 3.884,18.356 3.361,17.101 3.111 C 16.526 2.997,15.573 2.991,14.980 3.097 C 13.989 3.275,13.038 3.703,12.252 4.327 L 12.004 4.524 11.772 4.335 C 10.964 3.676,9.925 3.220,8.860 3.057 C 8.535 3.007,7.611 2.988,7.360 3.026 M18.620 15.026 C 18.554 15.061,18.448 15.137,18.385 15.195 C 18.251 15.318,16.144 18.459,16.035 18.698 C 15.944 18.898,15.939 19.204,16.024 19.382 C 16.059 19.456,16.168 19.591,16.266 19.681 C 16.585 19.975,16.597 19.978,17.930 20.000 L 19.120 20.020 18.615 20.777 C 18.033 21.649,17.962 21.788,17.961 22.054 C 17.960 22.304,18.044 22.477,18.266 22.681 C 18.749 23.127,19.289 23.155,19.665 22.754 C 19.872 22.534,21.885 19.481,21.950 19.289 C 22.073 18.929,21.941 18.385,21.686 18.204 C 21.441 18.030,21.382 18.022,20.110 18.001 L 18.880 17.980 19.385 17.223 C 19.967 16.351,20.038 16.212,20.039 15.946 C 20.040 15.696,19.956 15.523,19.734 15.319 C 19.383 14.996,18.913 14.872,18.620 15.026 " stroke="none" fill="black" fill-rule="evenodd"></path></svg>