<svg xmlns="http://www.w3.org/2000/svg" width="24" height="24" viewBox="0 0 24 24" fill="none" stroke="currentColor" stroke-width="2" stroke-linecap="round" stroke-linejoin="round" class="icon icon-tabler icons-tabler-outline icon-tabler-arrow-ramp-left"><path d="M16.530 2.083 C 16.393 2.150,16.249 2.252,16.210 2.311 C 16.172 2.369,15.237 3.327,14.134 4.439 C 12.766 5.818,12.101 6.516,12.040 6.637 C 11.863 6.989,11.952 7.354,12.299 7.701 C 12.646 8.048,13.011 8.137,13.363 7.960 C 13.479 7.901,13.961 7.452,14.770 6.647 L 16.000 5.423 16.000 8.664 C 16.000 12.270,15.994 12.180,16.261 12.448 C 16.602 12.788,17.398 12.788,17.739 12.448 C 18.006 12.180,18.000 12.270,18.000 8.664 L 18.000 5.423 19.230 6.647 C 20.039 7.452,20.521 7.901,20.637 7.960 C 20.989 8.137,21.354 8.048,21.701 7.701 C 22.048 7.354,22.137 6.989,21.960 6.637 C 21.899 6.516,21.234 5.818,19.866 4.439 C 18.763 3.327,17.828 2.369,17.789 2.310 C 17.751 2.252,17.604 2.149,17.464 2.082 C 17.120 1.918,16.871 1.918,16.530 2.083 M6.620 5.046 C 6.525 5.095,5.652 5.932,4.460 7.118 C 3.360 8.213,2.399 9.150,2.324 9.201 C 2.149 9.321,1.951 9.745,1.951 10.000 C 1.951 10.239,2.150 10.682,2.304 10.784 C 2.366 10.826,3.327 11.763,4.439 12.866 C 5.818 14.234,6.516 14.899,6.637 14.960 C 6.989 15.137,7.354 15.048,7.701 14.701 C 8.048 14.354,8.137 13.989,7.960 13.637 C 7.901 13.521,7.452 13.039,6.647 12.230 L 5.423 11.000 5.901 11.000 C 8.651 11.003,11.135 12.018,13.042 13.920 C 14.032 14.908,14.745 15.971,15.254 17.220 C 15.717 18.356,15.997 19.745,16.000 20.920 C 16.000 21.085,16.019 21.285,16.041 21.365 C 16.148 21.750,16.437 21.962,16.896 21.991 C 17.381 22.022,17.699 21.882,17.880 21.558 C 17.977 21.385,17.980 21.360,17.975 20.640 C 17.958 18.278,17.085 15.770,15.592 13.794 C 13.626 11.192,10.743 9.519,7.500 9.096 C 7.258 9.065,6.694 9.028,6.248 9.013 L 5.435 8.988 6.653 7.764 C 7.453 6.959,7.901 6.479,7.960 6.363 C 8.137 6.011,8.048 5.646,7.701 5.299 C 7.361 4.959,6.967 4.867,6.620 5.046 " stroke="none" fill="black" fill-rule="evenodd"></path></svg>