<svg xmlns="http://www.w3.org/2000/svg" width="24" height="24" viewBox="0 0 24 24" fill="none" stroke="currentColor" stroke-width="2" stroke-linecap="round" stroke-linejoin="round" class="icon icon-tabler icons-tabler-outline icon-tabler-satellite"><path d="M12.620 2.047 C 12.529 2.094,11.926 2.661,11.231 3.353 L 10.001 4.576 9.091 3.674 C 8.279 2.871,8.147 2.757,7.879 2.625 C 7.339 2.359,6.664 2.359,6.121 2.624 C 5.840 2.761,5.721 2.869,4.292 4.295 C 2.861 5.724,2.756 5.838,2.626 6.112 C 2.344 6.703,2.343 7.289,2.623 7.878 C 2.751 8.149,2.847 8.261,3.670 9.089 L 4.577 10.000 3.353 11.230 C 2.548 12.039,2.099 12.521,2.040 12.637 C 1.924 12.868,1.924 13.131,2.039 13.363 C 2.163 13.610,5.390 16.837,5.637 16.961 C 5.869 17.076,6.132 17.076,6.363 16.960 C 6.480 16.901,6.970 16.443,7.802 15.614 L 9.065 14.358 9.248 14.439 C 9.544 14.570,9.970 14.619,10.308 14.562 C 10.786 14.481,11.103 14.300,11.582 13.835 L 12.000 13.428 12.512 13.928 C 13.084 14.486,13.258 14.586,13.584 14.550 C 13.995 14.503,14.511 13.978,14.550 13.565 C 14.580 13.257,14.461 13.058,13.906 12.490 L 13.427 12.001 13.834 11.582 C 14.300 11.103,14.481 10.786,14.562 10.308 C 14.619 9.970,14.570 9.544,14.439 9.248 L 14.358 9.065 15.614 7.802 C 16.443 6.970,16.901 6.480,16.960 6.363 C 17.076 6.132,17.076 5.869,16.961 5.637 C 16.841 5.397,13.611 2.163,13.372 2.044 C 13.151 1.934,12.835 1.935,12.620 2.047 M9.800 7.220 L 12.580 10.000 11.290 11.290 L 10.000 12.580 7.210 9.790 L 4.420 7.000 5.700 5.720 C 6.404 5.016,6.989 4.440,7.000 4.440 C 7.011 4.440,8.271 5.691,9.800 7.220 M13.800 5.220 L 14.579 6.000 13.790 6.790 L 13.000 7.580 12.210 6.790 L 11.421 6.000 12.200 5.220 C 12.629 4.791,12.989 4.440,13.000 4.440 C 13.011 4.440,13.371 4.791,13.800 5.220 M6.800 12.220 L 7.579 13.000 6.790 13.790 L 6.000 14.580 5.210 13.790 L 4.421 13.000 5.200 12.220 C 5.629 11.791,5.989 11.440,6.000 11.440 C 6.011 11.440,6.371 11.791,6.800 12.220 M16.545 13.579 C 16.188 13.706,16.033 13.987,15.983 14.597 C 15.950 14.989,15.812 15.291,15.547 15.552 C 15.264 15.831,14.972 15.957,14.509 16.001 C 14.088 16.041,13.907 16.105,13.752 16.267 C 13.584 16.443,13.513 16.658,13.512 16.997 C 13.508 17.806,14.012 18.124,15.031 17.959 C 15.786 17.836,16.404 17.516,16.960 16.960 C 17.516 16.404,17.836 15.786,17.959 15.031 C 18.090 14.223,17.894 13.696,17.413 13.563 C 17.200 13.504,16.731 13.513,16.545 13.579 M20.614 14.057 C 20.179 14.193,20.044 14.416,19.996 15.078 C 19.951 15.706,19.926 15.890,19.838 16.240 C 19.493 17.615,18.496 18.844,17.212 19.476 C 16.562 19.796,15.963 19.947,15.151 19.997 C 14.570 20.033,14.330 20.121,14.170 20.358 C 13.965 20.662,13.943 21.236,14.124 21.562 C 14.320 21.919,14.605 22.021,15.300 21.985 C 17.101 21.894,18.687 21.195,19.941 19.941 C 21.238 18.644,21.968 16.930,21.977 15.160 C 21.980 14.675,21.971 14.603,21.891 14.453 C 21.842 14.362,21.746 14.247,21.678 14.199 C 21.414 14.010,20.957 13.950,20.614 14.057 " stroke="none" fill="black" fill-rule="evenodd"></path></svg>