<svg xmlns="http://www.w3.org/2000/svg" width="24" height="24" viewBox="0 0 24 24" fill="none" stroke="currentColor" stroke-width="2" stroke-linecap="round" stroke-linejoin="round" class="icon icon-tabler icons-tabler-outline icon-tabler-filter-check"><path d="M3.614 3.057 C 3.377 3.131,3.212 3.261,3.109 3.453 C 3.022 3.615,3.020 3.659,3.008 5.058 C 2.998 6.259,3.007 6.550,3.061 6.816 C 3.145 7.230,3.272 7.538,3.496 7.871 C 3.596 8.019,4.650 9.208,5.838 10.513 L 7.999 12.886 8.009 17.093 L 8.020 21.300 8.127 21.504 C 8.346 21.918,8.666 22.085,9.084 22.002 C 9.210 21.978,9.846 21.779,10.498 21.560 C 11.791 21.126,11.979 21.032,12.120 20.741 C 12.318 20.331,12.111 19.634,11.713 19.370 C 11.471 19.211,11.164 19.224,10.560 19.421 C 10.307 19.503,10.078 19.579,10.050 19.589 C 10.010 19.605,10.000 18.861,10.000 15.954 L 9.999 12.300 9.905 12.100 C 9.837 11.957,9.158 11.182,7.503 9.363 C 6.233 7.968,5.155 6.753,5.107 6.663 C 5.028 6.515,5.019 6.430,5.007 5.750 L 4.994 5.000 12.000 5.000 L 19.006 5.000 18.993 5.730 C 18.982 6.346,18.968 6.482,18.906 6.600 C 18.865 6.677,17.783 7.793,16.500 9.080 C 15.218 10.367,14.135 11.483,14.094 11.560 C 14.026 11.689,14.019 11.837,14.008 13.450 C 14.001 14.570,14.012 15.255,14.038 15.354 C 14.144 15.747,14.432 15.961,14.896 15.991 C 15.381 16.022,15.699 15.882,15.880 15.558 L 15.980 15.380 15.992 13.900 L 16.004 12.420 18.212 10.200 C 20.495 7.905,20.567 7.824,20.787 7.278 C 20.987 6.783,21.006 6.580,20.992 5.042 C 20.980 3.660,20.977 3.615,20.891 3.453 C 20.785 3.256,20.622 3.131,20.371 3.055 C 20.106 2.976,3.868 2.978,3.614 3.057 M20.620 16.046 C 20.525 16.095,19.753 16.834,18.731 17.853 L 17.001 19.577 16.271 18.854 C 15.856 18.444,15.467 18.094,15.372 18.045 C 15.021 17.868,14.640 17.958,14.299 18.299 C 13.952 18.646,13.863 19.010,14.040 19.363 C 14.162 19.607,16.393 21.838,16.637 21.960 C 16.868 22.076,17.132 22.076,17.363 21.961 C 17.486 21.899,18.197 21.215,19.706 19.706 C 21.215 18.197,21.899 17.486,21.961 17.363 C 22.137 17.010,22.048 16.645,21.701 16.299 C 21.361 15.959,20.967 15.867,20.620 16.046 " stroke="none" fill="black" fill-rule="evenodd"></path></svg>