<svg xmlns="http://www.w3.org/2000/svg" width="24" height="24" viewBox="0 0 24 24" fill="none" stroke="currentColor" stroke-width="2" stroke-linecap="round" stroke-linejoin="round" class="icon icon-tabler icons-tabler-outline icon-tabler-database-export"><path d="M10.920 2.023 C 8.675 2.170,7.174 2.468,5.740 3.051 C 4.888 3.397,4.317 3.758,3.797 4.277 C 3.497 4.577,3.383 4.725,3.268 4.960 C 2.981 5.546,3.000 5.057,3.000 12.000 C 3.000 18.943,2.981 18.454,3.268 19.040 C 3.533 19.583,4.306 20.270,5.104 20.672 C 5.913 21.079,7.201 21.484,8.360 21.696 C 9.448 21.895,10.397 21.975,11.700 21.978 C 12.774 21.980,12.827 21.976,12.980 21.894 C 13.321 21.710,13.461 21.452,13.457 21.020 C 13.453 20.554,13.326 20.286,13.026 20.116 C 12.866 20.025,12.820 20.020,11.700 19.993 C 10.091 19.955,9.060 19.835,7.930 19.558 C 6.578 19.225,5.413 18.669,5.098 18.206 L 5.000 18.061 5.000 16.346 C 5.000 14.990,5.010 14.636,5.050 14.653 C 5.077 14.665,5.285 14.756,5.510 14.855 C 6.726 15.390,8.196 15.735,10.080 15.928 C 10.752 15.997,13.214 15.995,13.900 15.926 C 14.704 15.845,15.466 15.727,15.631 15.658 C 16.096 15.464,16.265 14.988,16.081 14.392 C 15.937 13.925,15.623 13.725,15.109 13.772 C 14.972 13.784,14.536 13.835,14.140 13.885 C 13.521 13.962,13.224 13.975,12.020 13.977 C 10.641 13.978,10.243 13.955,9.260 13.817 C 7.383 13.552,5.524 12.832,5.098 12.206 L 5.000 12.061 5.000 10.346 C 5.000 8.990,5.010 8.636,5.050 8.653 C 5.077 8.665,5.285 8.756,5.510 8.855 C 6.726 9.390,8.195 9.735,10.080 9.928 C 10.745 9.996,13.255 9.996,13.920 9.928 C 15.805 9.735,17.274 9.390,18.490 8.855 C 18.715 8.756,18.922 8.665,18.950 8.653 C 18.990 8.636,19.000 9.006,19.000 10.426 C 19.000 11.504,19.016 12.278,19.041 12.365 C 19.148 12.750,19.437 12.962,19.896 12.991 C 20.381 13.022,20.699 12.882,20.880 12.558 L 20.980 12.380 20.991 9.065 C 21.003 5.380,21.013 5.534,20.732 4.960 C 20.618 4.725,20.503 4.577,20.203 4.277 C 19.992 4.067,19.712 3.825,19.581 3.739 C 18.248 2.872,16.465 2.340,14.080 2.098 C 13.533 2.042,11.398 1.992,10.920 2.023 M13.993 4.098 C 15.623 4.269,16.937 4.603,17.940 5.102 C 18.442 5.352,18.824 5.639,18.939 5.853 C 19.018 5.999,19.018 6.001,18.940 6.146 C 18.598 6.780,16.682 7.543,14.740 7.817 C 13.773 7.953,13.353 7.978,12.000 7.978 C 10.647 7.978,10.227 7.953,9.260 7.817 C 7.318 7.543,5.402 6.780,5.060 6.146 C 4.982 6.001,4.982 5.999,5.061 5.853 C 5.313 5.384,6.529 4.787,7.936 4.441 C 8.751 4.240,9.579 4.127,10.980 4.023 C 11.416 3.991,13.453 4.042,13.993 4.098 M18.626 15.045 C 18.257 15.239,17.951 15.673,17.951 16.000 C 17.951 16.307,18.079 16.487,18.853 17.270 L 19.575 18.000 17.694 18.000 C 15.689 18.000,15.589 18.008,15.322 18.199 C 15.100 18.357,15.020 18.568,15.020 19.000 C 15.020 19.331,15.033 19.403,15.120 19.558 C 15.230 19.755,15.414 19.898,15.635 19.959 C 15.723 19.984,16.530 20.000,17.678 20.000 L 19.575 20.000 18.853 20.730 C 18.420 21.168,18.095 21.531,18.041 21.637 C 17.863 21.988,17.952 22.354,18.299 22.701 C 18.646 23.048,19.011 23.137,19.363 22.960 C 19.480 22.901,20.051 22.365,21.062 21.365 C 21.899 20.537,22.634 19.826,22.697 19.784 C 22.850 19.682,23.049 19.238,23.049 19.000 C 23.049 18.745,22.851 18.321,22.676 18.201 C 22.601 18.150,21.865 17.438,21.040 16.618 C 20.085 15.670,19.479 15.098,19.372 15.044 C 19.152 14.934,18.835 14.934,18.626 15.045 " stroke="none" fill="black" fill-rule="evenodd"></path></svg>