<svg xmlns="http://www.w3.org/2000/svg" width="24" height="24" viewBox="0 0 24 24" fill="none" stroke="currentColor" stroke-width="2" stroke-linecap="round" stroke-linejoin="round" class="icon icon-tabler icons-tabler-outline icon-tabler-fountain-off"><path d="M2.626 2.045 C 2.420 2.154,2.146 2.433,2.038 2.644 C 1.924 2.868,1.924 3.132,2.040 3.363 C 2.101 3.486,2.813 4.226,4.364 5.780 L 6.599 8.021 6.277 8.093 C 5.297 8.314,4.430 9.137,4.122 10.140 C 4.018 10.479,3.972 11.113,4.035 11.344 C 4.146 11.749,4.428 11.961,4.896 11.991 C 5.592 12.035,5.918 11.762,5.996 11.072 C 6.045 10.644,6.108 10.490,6.321 10.283 C 6.490 10.120,6.777 10.000,7.000 10.000 C 7.237 10.000,7.514 10.120,7.697 10.303 C 8.002 10.608,8.000 10.595,8.000 12.947 L 8.000 15.000 5.406 15.000 C 2.637 15.000,2.597 15.003,2.322 15.199 C 2.254 15.247,2.158 15.362,2.109 15.453 C 2.023 15.615,2.020 15.662,2.008 16.984 C 1.997 18.243,2.003 18.381,2.081 18.763 C 2.222 19.457,2.508 20.054,2.954 20.584 C 3.529 21.266,4.331 21.735,5.243 21.921 C 5.622 21.998,5.805 22.000,12.000 22.000 C 18.195 22.000,18.378 21.998,18.757 21.921 C 19.134 21.844,19.762 21.619,19.931 21.501 C 20.007 21.448,20.030 21.459,20.250 21.662 C 20.380 21.783,20.560 21.919,20.651 21.965 C 20.987 22.137,21.359 22.043,21.701 21.701 C 22.048 21.354,22.137 20.990,21.960 20.637 C 21.899 20.515,21.094 19.676,19.353 17.920 C 17.968 16.523,16.796 15.340,16.747 15.290 C 16.699 15.241,16.480 15.022,16.260 14.803 C 16.040 14.585,15.815 14.360,15.760 14.305 C 15.705 14.250,15.030 13.575,14.260 12.805 C 13.490 12.036,12.815 11.361,12.760 11.306 C 12.705 11.250,10.608 9.163,8.100 6.667 C 5.004 3.585,3.486 2.101,3.372 2.044 C 3.152 1.934,2.835 1.935,2.626 2.045 M8.580 2.028 C 7.948 2.085,7.079 2.420,6.716 2.748 C 6.520 2.926,6.400 3.149,6.400 3.337 C 6.400 3.704,6.734 4.242,7.060 4.400 C 7.311 4.522,7.557 4.495,7.932 4.306 C 8.341 4.100,8.538 4.039,8.880 4.013 C 9.659 3.953,10.413 4.387,10.761 5.095 C 10.849 5.274,10.938 5.517,10.960 5.635 C 10.982 5.754,11.000 6.384,11.000 7.035 C 11.000 7.706,11.018 8.283,11.041 8.365 C 11.148 8.750,11.437 8.962,11.896 8.991 C 12.381 9.022,12.699 8.882,12.880 8.558 C 12.980 8.380,12.980 8.379,13.003 6.980 C 13.028 5.416,13.037 5.360,13.314 4.937 C 13.803 4.192,14.611 3.865,15.478 4.062 C 15.956 4.171,16.389 4.485,16.686 4.938 C 16.881 5.235,16.953 5.478,16.998 5.993 C 17.060 6.718,17.341 7.000,18.000 7.000 C 18.426 7.000,18.714 6.856,18.876 6.563 C 19.154 6.060,18.935 4.792,18.421 3.932 C 17.961 3.161,17.142 2.511,16.245 2.204 C 15.951 2.103,15.322 2.000,15.000 2.000 C 14.678 2.000,14.049 2.103,13.755 2.204 C 13.195 2.396,12.495 2.828,12.131 3.208 L 12.001 3.343 11.751 3.107 C 10.898 2.304,9.771 1.921,8.580 2.028 M16.499 8.040 C 15.371 8.245,14.455 9.054,14.122 10.140 C 14.018 10.479,13.972 11.113,14.035 11.344 C 14.146 11.749,14.428 11.961,14.896 11.991 C 15.592 12.035,15.918 11.762,15.996 11.072 C 16.045 10.644,16.108 10.490,16.321 10.283 C 16.490 10.120,16.777 10.000,17.000 10.000 C 17.223 10.000,17.510 10.120,17.679 10.283 C 17.892 10.491,17.958 10.650,18.001 11.067 C 18.068 11.718,18.370 12.000,19.000 12.000 C 19.428 12.000,19.713 11.856,19.880 11.558 C 19.971 11.396,19.980 11.338,19.979 10.920 C 19.978 10.555,19.959 10.398,19.885 10.160 C 19.583 9.182,18.811 8.407,17.861 8.129 C 17.500 8.023,16.832 7.980,16.499 8.040 M11.000 13.709 L 11.000 15.000 10.500 15.000 L 10.000 15.000 10.000 13.211 L 10.000 11.421 10.500 11.920 L 11.000 12.419 11.000 13.709 M13.300 14.720 L 13.578 15.000 13.289 15.000 L 13.000 15.000 13.000 14.720 C 13.000 14.566,13.005 14.440,13.011 14.440 C 13.017 14.440,13.147 14.566,13.300 14.720 M19.614 15.057 C 19.223 15.180,19.039 15.436,19.009 15.900 C 18.969 16.530,19.252 16.923,19.792 16.987 L 19.990 17.010 20.013 17.208 C 20.074 17.715,20.428 18.000,21.000 18.000 C 21.428 18.000,21.713 17.856,21.880 17.558 C 21.978 17.383,21.980 17.364,21.980 16.500 C 21.980 15.667,21.975 15.611,21.891 15.453 C 21.785 15.256,21.622 15.131,21.371 15.055 C 21.126 14.982,19.851 14.983,19.614 15.057 M17.038 18.458 C 17.840 19.261,18.482 19.931,18.465 19.948 C 18.415 19.998,5.818 20.009,5.577 19.959 C 5.082 19.857,4.556 19.475,4.281 19.017 C 4.065 18.658,4.005 18.361,4.002 17.630 L 4.000 17.000 9.790 17.000 L 15.580 17.000 17.038 18.458 " stroke="none" fill="black" fill-rule="evenodd"></path></svg>