<svg xmlns="http://www.w3.org/2000/svg" width="24" height="24" viewBox="0 0 24 24" fill="none" stroke="currentColor" stroke-width="2" stroke-linecap="round" stroke-linejoin="round" class="icon icon-tabler icons-tabler-outline icon-tabler-location-off"><path d="M2.626 2.045 C 2.420 2.154,2.146 2.433,2.038 2.644 C 1.924 2.868,1.924 3.133,2.040 3.363 C 2.101 3.484,2.726 4.139,4.032 5.449 C 5.079 6.499,5.928 7.365,5.918 7.375 C 5.908 7.384,5.151 7.661,4.236 7.991 C 3.321 8.321,2.502 8.636,2.416 8.690 C 2.187 8.835,1.928 9.134,1.807 9.393 C 1.716 9.588,1.701 9.673,1.700 10.001 C 1.700 10.350,1.711 10.404,1.829 10.644 C 2.089 11.173,2.005 11.122,5.825 13.033 L 9.260 14.752 10.972 18.181 C 12.877 21.995,12.827 21.910,13.356 22.171 C 13.596 22.289,13.650 22.300,13.999 22.300 C 14.328 22.299,14.412 22.284,14.609 22.192 C 14.875 22.068,15.208 21.772,15.339 21.541 C 15.389 21.453,15.696 20.642,16.020 19.740 C 16.344 18.838,16.617 18.092,16.626 18.082 C 16.635 18.072,17.501 18.921,18.551 19.968 C 19.861 21.274,20.516 21.899,20.637 21.960 C 20.989 22.137,21.354 22.048,21.701 21.701 C 22.116 21.286,22.159 20.868,21.832 20.440 C 21.761 20.347,11.301 9.870,5.940 4.523 C 4.351 2.937,3.483 2.100,3.372 2.044 C 3.152 1.934,2.835 1.935,2.626 2.045 M20.897 2.000 C 20.709 2.039,10.618 5.674,10.270 5.829 C 9.860 6.011,9.645 6.345,9.700 6.711 C 9.808 7.432,10.241 7.832,10.792 7.718 C 10.908 7.693,12.869 7.000,15.148 6.177 C 17.428 5.353,19.299 4.686,19.307 4.693 C 19.314 4.701,18.635 6.604,17.797 8.924 C 16.960 11.243,16.264 13.225,16.252 13.330 C 16.194 13.809,16.570 14.200,17.202 14.320 C 17.560 14.388,17.890 14.247,18.076 13.947 C 18.220 13.714,21.970 3.282,21.990 3.060 C 22.021 2.703,21.771 2.209,21.484 2.063 C 21.338 1.988,21.088 1.961,20.897 2.000 M14.552 17.913 C 14.270 18.698,14.014 19.403,13.984 19.479 L 13.929 19.619 12.388 16.537 C 11.541 14.842,10.798 13.397,10.738 13.325 C 10.654 13.225,9.919 12.840,7.505 11.632 C 5.786 10.772,4.398 10.061,4.420 10.053 C 4.442 10.045,5.144 9.789,5.980 9.485 L 7.500 8.932 11.283 12.709 L 15.067 16.486 14.552 17.913 " stroke="none" fill="black" fill-rule="evenodd"></path></svg>