<svg xmlns="http://www.w3.org/2000/svg" width="24" height="24" viewBox="0 0 24 24" fill="none" stroke="currentColor" stroke-width="2" stroke-linecap="round" stroke-linejoin="round" class="icon icon-tabler icons-tabler-outline icon-tabler-wallet"><path d="M5.499 3.043 C 4.383 3.230,3.461 4.048,3.114 5.160 L 3.020 5.460 3.020 12.000 L 3.020 18.540 3.114 18.840 C 3.418 19.816,4.149 20.554,5.140 20.886 L 5.420 20.980 11.820 20.991 C 16.188 20.998,18.284 20.988,18.422 20.960 C 18.938 20.852,19.538 20.398,19.771 19.937 C 19.976 19.534,20.000 19.342,20.000 18.130 L 20.000 17.011 20.197 16.988 C 20.538 16.947,20.752 16.806,20.905 16.520 C 20.976 16.388,20.980 16.249,20.980 14.000 L 20.980 11.620 20.889 11.450 C 20.772 11.232,20.550 11.086,20.244 11.028 L 20.000 10.982 19.999 9.881 C 19.999 8.382,19.931 8.122,19.404 7.597 C 19.080 7.274,18.742 7.099,18.310 7.031 L 18.000 6.982 17.999 5.881 C 17.999 4.691,17.970 4.455,17.781 4.083 C 17.646 3.816,17.297 3.449,17.017 3.281 C 16.532 2.989,16.870 3.004,10.980 3.007 C 8.076 3.008,5.609 3.025,5.499 3.043 M16.000 6.001 L 16.000 7.001 10.850 6.991 L 5.700 6.980 5.516 6.872 C 4.935 6.530,4.833 5.774,5.304 5.303 C 5.621 4.986,5.240 5.006,10.930 5.003 L 16.000 5.000 16.000 6.001 M5.220 8.910 C 5.406 8.975,5.854 8.981,11.710 8.991 L 18.000 9.002 18.000 9.997 L 18.000 10.993 16.730 11.009 C 15.518 11.025,15.445 11.030,15.139 11.124 C 14.176 11.420,13.419 12.181,13.114 13.160 C 12.979 13.594,12.979 14.406,13.114 14.840 C 13.418 15.816,14.158 16.563,15.140 16.884 C 15.403 16.969,15.498 16.976,16.710 16.991 L 18.000 17.007 18.000 18.004 L 18.000 19.001 11.850 18.990 L 5.700 18.980 5.516 18.872 C 5.415 18.813,5.284 18.700,5.225 18.623 C 4.989 18.314,5.000 18.564,5.000 13.495 C 5.000 10.935,5.005 8.840,5.010 8.840 C 5.016 8.841,5.110 8.872,5.220 8.910 M19.000 14.002 L 19.000 15.003 17.350 14.992 L 15.700 14.980 15.516 14.872 C 14.932 14.528,14.831 13.775,15.307 13.299 C 15.595 13.011,15.632 13.006,17.430 13.003 L 19.000 13.000 19.000 14.002 " stroke="none" fill="black" fill-rule="evenodd"></path></svg>