<svg xmlns="http://www.w3.org/2000/svg" width="24" height="24" viewBox="0 0 24 24" fill="none" stroke="currentColor" stroke-width="2" stroke-linecap="round" stroke-linejoin="round" class="icon icon-tabler icons-tabler-outline icon-tabler-device-mobile-off"><path d="M2.626 2.045 C 2.420 2.154,2.146 2.433,2.038 2.644 C 1.924 2.868,1.924 3.133,2.040 3.363 C 2.100 3.481,2.603 4.016,3.564 4.980 L 4.998 6.421 5.009 13.000 L 5.020 19.580 5.114 19.860 C 5.446 20.851,6.184 21.582,7.160 21.886 L 7.460 21.980 12.000 21.980 L 16.540 21.980 16.840 21.886 C 17.598 21.650,18.289 21.091,18.644 20.426 L 18.769 20.193 19.614 21.031 C 20.138 21.551,20.527 21.904,20.637 21.960 C 20.989 22.137,21.354 22.048,21.701 21.701 C 22.048 21.354,22.137 20.989,21.960 20.637 C 21.889 20.496,20.064 18.596,18.748 17.293 C 18.589 17.136,6.862 5.409,6.760 5.305 C 5.632 4.159,3.503 2.111,3.372 2.045 C 3.152 1.934,2.835 1.934,2.626 2.045 M7.460 2.059 C 6.607 2.222,6.120 2.599,6.120 3.100 C 6.120 3.296,6.248 3.643,6.399 3.853 C 6.666 4.225,7.014 4.301,7.567 4.107 C 7.870 4.001,7.887 4.000,8.931 4.000 L 9.989 4.000 10.013 4.203 C 10.058 4.583,10.288 4.863,10.635 4.959 C 10.826 5.012,13.174 5.012,13.365 4.959 C 13.712 4.863,13.935 4.593,13.983 4.210 L 14.009 4.000 15.057 4.000 C 16.297 4.000,16.416 4.022,16.697 4.303 C 17.019 4.625,17.000 4.295,17.000 9.557 C 17.000 12.557,17.015 14.272,17.041 14.365 C 17.148 14.750,17.437 14.962,17.896 14.991 C 18.381 15.022,18.699 14.882,18.880 14.558 L 18.980 14.380 18.980 9.420 L 18.980 4.460 18.886 4.160 C 18.581 3.182,17.832 2.428,16.861 2.121 L 16.540 2.020 12.140 2.013 C 8.619 2.007,7.684 2.017,7.460 2.059 M17.000 18.764 C 17.000 19.336,16.851 19.656,16.484 19.872 L 16.300 19.980 12.000 19.980 L 7.700 19.980 7.516 19.872 C 7.415 19.813,7.284 19.700,7.225 19.623 C 6.988 19.312,7.000 19.630,7.000 13.785 L 7.000 8.420 12.000 13.420 L 17.000 18.420 17.000 18.764 M11.614 16.057 C 11.221 16.180,11.039 16.435,11.009 16.906 C 10.962 17.621,11.306 18.000,12.000 18.000 C 12.698 18.000,13.043 17.616,12.989 16.900 C 12.963 16.563,12.859 16.327,12.678 16.199 C 12.414 16.010,11.957 15.950,11.614 16.057 " stroke="none" fill="black" fill-rule="evenodd"></path></svg>