<svg xmlns="http://www.w3.org/2000/svg" width="24" height="24" viewBox="0 0 24 24" fill="none" stroke="currentColor" stroke-width="2" stroke-linecap="round" stroke-linejoin="round" class="icon icon-tabler icons-tabler-outline icon-tabler-placeholder"><path d="M12.620 1.046 C 12.528 1.094,11.826 1.758,10.960 2.618 C 10.135 3.438,9.399 4.150,9.324 4.201 C 9.149 4.321,8.951 4.745,8.951 5.000 C 8.951 5.238,9.150 5.682,9.303 5.784 C 9.366 5.826,10.101 6.537,10.938 7.365 C 11.949 8.365,12.520 8.901,12.637 8.960 C 12.989 9.137,13.354 9.048,13.701 8.701 C 14.048 8.354,14.137 7.988,13.959 7.637 C 13.906 7.532,13.577 7.163,13.145 6.725 L 12.420 5.990 13.100 6.013 C 14.258 6.052,15.053 6.235,15.987 6.680 C 17.643 7.468,18.878 8.800,19.538 10.509 C 20.046 11.824,20.133 13.328,19.782 14.721 C 19.360 16.391,18.325 17.857,16.880 18.829 C 15.285 19.902,13.192 20.268,11.342 19.795 C 11.165 19.750,10.815 19.643,10.566 19.557 C 9.826 19.302,9.497 19.354,9.221 19.771 C 9.053 20.025,8.936 20.440,8.974 20.646 C 9.041 20.995,9.329 21.242,9.924 21.456 C 10.897 21.806,11.689 21.957,12.720 21.988 C 13.581 22.013,14.236 21.949,15.048 21.758 C 16.400 21.440,17.699 20.799,18.720 19.945 C 20.775 18.227,21.903 15.912,21.988 13.240 C 22.023 12.114,21.896 11.243,21.539 10.174 C 20.759 7.837,19.158 6.008,16.940 4.918 C 15.684 4.301,14.335 4.000,12.824 4.000 L 12.425 4.000 13.147 3.270 C 13.580 2.832,13.905 2.469,13.959 2.363 C 14.137 2.012,14.048 1.646,13.701 1.299 C 13.361 0.959,12.967 0.867,12.620 1.046 M6.620 8.046 C 6.385 8.167,2.154 12.408,2.039 12.637 C 1.924 12.868,1.924 13.132,2.039 13.363 C 2.164 13.612,6.388 17.836,6.637 17.961 C 6.868 18.076,7.132 18.076,7.363 17.961 C 7.612 17.836,11.836 13.612,11.961 13.363 C 12.014 13.256,12.049 13.111,12.049 13.000 C 12.049 12.889,12.014 12.744,11.961 12.637 C 11.840 12.396,7.612 8.164,7.372 8.044 C 7.151 7.934,6.836 7.935,6.620 8.046 M8.300 11.720 L 9.580 13.000 8.290 14.290 L 7.000 15.580 5.710 14.290 L 4.420 13.000 5.700 11.720 C 6.404 11.016,6.989 10.440,7.000 10.440 C 7.011 10.440,7.596 11.016,8.300 11.720 " stroke="none" fill="black" fill-rule="evenodd"></path></svg>