<svg xmlns="http://www.w3.org/2000/svg" width="24" height="24" viewBox="0 0 24 24" fill="none" stroke="currentColor" stroke-width="2" stroke-linecap="round" stroke-linejoin="round" class="icon icon-tabler icons-tabler-outline icon-tabler-arrows-maximize"><path d="M3.597 3.050 C 3.507 3.088,3.378 3.159,3.311 3.207 C 3.166 3.310,2.959 3.739,2.963 3.929 C 2.964 4.001,2.977 5.032,2.993 6.220 L 3.020 8.380 3.120 8.558 C 3.287 8.856,3.572 9.000,4.000 9.000 C 4.428 9.000,4.713 8.856,4.880 8.558 C 4.978 8.384,4.980 8.359,4.993 7.404 L 5.006 6.428 7.233 8.650 C 8.777 10.190,9.514 10.899,9.637 10.960 C 9.990 11.137,10.354 11.048,10.701 10.701 C 11.048 10.354,11.137 9.990,10.960 9.637 C 10.899 9.514,10.189 8.776,8.647 7.230 L 6.422 5.000 7.321 5.000 C 7.815 5.000,8.285 4.981,8.365 4.959 C 8.586 4.898,8.770 4.755,8.880 4.558 C 8.967 4.402,8.980 4.332,8.979 4.000 C 8.978 3.685,8.963 3.591,8.888 3.450 C 8.783 3.252,8.574 3.102,8.320 3.043 C 8.211 3.018,7.278 2.997,5.951 2.991 C 3.941 2.981,3.748 2.986,3.597 3.050 M17.719 2.999 L 15.658 3.020 15.459 3.122 C 15.119 3.297,14.978 3.606,15.009 4.104 C 15.038 4.563,15.250 4.852,15.635 4.959 C 15.715 4.981,16.185 5.000,16.679 5.000 L 17.578 5.000 15.353 7.230 C 13.811 8.776,13.101 9.514,13.040 9.637 C 12.863 9.990,12.952 10.354,13.299 10.701 C 13.646 11.048,14.010 11.137,14.363 10.960 C 14.486 10.899,15.224 10.189,16.770 8.647 L 19.000 6.422 19.000 7.321 C 19.000 7.815,19.019 8.285,19.041 8.365 C 19.148 8.750,19.437 8.962,19.896 8.991 C 20.381 9.022,20.699 8.882,20.880 8.558 L 20.980 8.380 21.008 6.220 C 21.023 5.032,21.036 4.001,21.038 3.929 C 21.041 3.739,20.834 3.310,20.690 3.207 C 20.467 3.048,20.205 2.959,19.987 2.969 C 19.873 2.974,18.852 2.987,17.719 2.999 M9.620 13.046 C 9.523 13.096,8.579 14.007,7.233 15.350 L 5.006 17.572 4.993 16.596 C 4.981 15.677,4.975 15.610,4.891 15.453 C 4.689 15.076,4.138 14.902,3.629 15.055 C 3.378 15.131,3.215 15.256,3.109 15.453 C 3.021 15.618,3.020 15.649,2.993 17.780 C 2.977 18.968,2.964 19.998,2.962 20.069 C 2.959 20.208,3.122 20.611,3.232 20.735 C 3.331 20.847,3.776 21.040,3.929 21.037 C 4.001 21.036,5.032 21.023,6.220 21.007 C 8.325 20.981,8.384 20.978,8.540 20.894 C 8.875 20.715,8.978 20.504,8.978 20.000 C 8.978 19.567,8.899 19.356,8.678 19.199 C 8.439 19.028,8.243 19.000,7.304 19.000 L 6.422 19.000 8.647 16.770 C 10.189 15.224,10.899 14.486,10.960 14.363 C 11.137 14.010,11.048 13.646,10.701 13.299 C 10.361 12.959,9.967 12.867,9.620 13.046 M13.626 13.045 C 13.420 13.154,13.146 13.433,13.038 13.644 C 12.924 13.868,12.924 14.132,13.040 14.363 C 13.101 14.486,13.811 15.224,15.353 16.770 L 17.578 19.000 16.696 19.000 C 15.757 19.000,15.561 19.028,15.322 19.199 C 15.139 19.329,15.030 19.573,15.009 19.900 C 14.978 20.381,15.119 20.699,15.442 20.880 L 15.620 20.980 17.780 21.007 C 18.968 21.023,19.999 21.036,20.071 21.037 C 20.224 21.040,20.669 20.847,20.768 20.735 C 20.878 20.611,21.041 20.209,21.038 20.069 C 21.036 19.998,21.023 18.968,21.008 17.780 C 20.980 15.637,20.979 15.619,20.889 15.450 C 20.724 15.140,20.329 14.970,19.874 15.011 C 19.439 15.051,19.141 15.274,19.041 15.635 C 19.019 15.715,19.000 16.185,19.000 16.679 L 19.000 17.578 16.770 15.353 C 15.295 13.881,14.483 13.100,14.372 13.044 C 14.152 12.934,13.835 12.935,13.626 13.045 " stroke="none" fill="black" fill-rule="evenodd"></path></svg>