<svg xmlns="http://www.w3.org/2000/svg" width="24" height="24" viewBox="0 0 24 24" fill="none" stroke="currentColor" stroke-width="2" stroke-linecap="round" stroke-linejoin="round" class="icon icon-tabler icons-tabler-outline icon-tabler-arrow-up-tail"><path d="M11.530 2.083 C 11.393 2.150,11.249 2.252,11.210 2.310 C 11.172 2.369,10.463 3.101,9.635 3.938 C 8.635 4.949,8.099 5.520,8.040 5.637 C 7.863 5.989,7.952 6.354,8.299 6.701 C 8.646 7.048,9.012 7.137,9.363 6.959 C 9.469 6.905,9.832 6.580,10.270 6.147 L 11.000 5.425 11.000 11.501 L 11.000 17.578 9.565 19.019 C 8.603 19.984,8.100 20.519,8.040 20.637 C 7.863 20.989,7.952 21.354,8.299 21.701 C 8.646 22.048,9.011 22.137,9.363 21.960 C 9.479 21.901,9.961 21.452,10.770 20.647 L 12.000 19.423 13.230 20.647 C 14.039 21.452,14.521 21.901,14.637 21.960 C 14.989 22.137,15.354 22.048,15.701 21.701 C 16.048 21.354,16.137 20.989,15.960 20.637 C 15.900 20.519,15.397 19.984,14.435 19.019 L 13.000 17.578 13.000 11.501 L 13.000 5.425 13.730 6.147 C 14.168 6.580,14.531 6.905,14.637 6.959 C 14.988 7.137,15.354 7.048,15.701 6.701 C 16.048 6.354,16.137 5.989,15.960 5.637 C 15.901 5.520,15.365 4.949,14.365 3.938 C 13.537 3.101,12.828 2.369,12.789 2.310 C 12.751 2.252,12.604 2.149,12.464 2.082 C 12.120 1.918,11.871 1.918,11.530 2.083 " stroke="none" fill="black" fill-rule="evenodd"></path></svg>