<svg xmlns="http://www.w3.org/2000/svg" width="24" height="24" viewBox="0 0 24 24" fill="none" stroke="currentColor" stroke-width="2" stroke-linecap="round" stroke-linejoin="round" class="icon icon-tabler icons-tabler-outline icon-tabler-brand-netflix"><path d="M4.588 2.061 C 4.359 2.146,4.219 2.261,4.102 2.460 L 3.996 2.640 3.999 11.929 C 4.001 17.833,4.016 21.271,4.041 21.363 C 4.100 21.584,4.244 21.769,4.442 21.880 L 4.620 21.980 6.911 21.991 C 8.392 21.999,9.256 21.988,9.355 21.961 C 9.583 21.900,9.768 21.758,9.880 21.558 L 9.980 21.380 9.991 17.722 L 10.002 14.064 12.099 17.837 C 13.252 19.913,14.243 21.661,14.302 21.722 C 14.361 21.784,14.497 21.872,14.605 21.918 C 14.797 22.001,14.839 22.002,17.090 21.991 C 19.369 21.980,19.381 21.980,19.546 21.891 C 19.738 21.789,19.845 21.665,19.948 21.428 C 20.017 21.267,20.019 20.874,20.000 11.940 L 19.980 2.620 19.889 2.450 C 19.784 2.253,19.576 2.103,19.320 2.041 C 19.197 2.010,18.434 2.000,16.899 2.008 L 14.658 2.020 14.459 2.122 C 14.245 2.233,14.105 2.404,14.041 2.635 C 14.015 2.727,14.000 4.085,14.000 6.360 L 14.000 9.940 11.903 6.166 C 10.750 4.090,9.764 2.347,9.713 2.292 C 9.662 2.237,9.548 2.153,9.460 2.106 C 9.302 2.021,9.270 2.020,7.020 2.012 C 5.143 2.006,4.713 2.014,4.588 2.061 M12.840 11.964 C 15.271 16.343,17.266 19.943,17.273 19.963 C 17.281 19.985,16.941 19.999,16.433 19.999 L 15.580 19.997 11.160 12.036 C 8.729 7.657,6.734 4.057,6.727 4.037 C 6.719 4.015,7.059 4.001,7.567 4.001 L 8.420 4.003 12.840 11.964 M18.000 10.570 L 18.000 17.140 17.000 15.340 L 16.000 13.540 16.000 8.770 L 16.000 4.000 17.000 4.000 L 18.000 4.000 18.000 10.570 M8.000 15.230 L 8.000 20.000 7.000 20.000 L 6.000 20.000 6.000 13.430 L 6.000 6.860 7.000 8.660 L 8.000 10.460 8.000 15.230 " stroke="none" fill="black" fill-rule="evenodd"></path></svg>