<svg xmlns="http://www.w3.org/2000/svg" width="24" height="24" viewBox="0 0 24 24" fill="none" stroke="currentColor" stroke-width="2" stroke-linecap="round" stroke-linejoin="round" class="icon icon-tabler icons-tabler-outline icon-tabler-door-exit"><path d="M6.499 2.043 C 5.393 2.228,4.488 3.024,4.114 4.140 L 4.020 4.420 4.009 12.210 L 3.999 20.000 3.406 20.000 C 2.577 20.000,2.300 20.097,2.109 20.453 C 2.035 20.592,2.020 20.684,2.020 21.000 C 2.020 21.331,2.033 21.403,2.120 21.558 C 2.230 21.755,2.414 21.898,2.635 21.959 C 2.835 22.015,21.165 22.015,21.365 21.959 C 21.586 21.898,21.770 21.755,21.880 21.558 C 21.967 21.402,21.980 21.332,21.979 21.000 C 21.978 20.567,21.898 20.355,21.678 20.199 C 21.416 20.012,21.290 20.000,19.594 20.000 L 18.000 20.000 18.000 16.647 C 18.000 12.880,18.009 13.006,17.723 12.747 C 17.536 12.578,17.351 12.520,17.000 12.520 C 16.649 12.520,16.464 12.578,16.277 12.747 C 15.991 13.006,16.000 12.880,16.000 16.647 L 16.000 20.000 11.000 20.000 L 6.000 20.000 6.000 12.447 C 6.000 3.956,5.975 4.631,6.303 4.303 C 6.622 3.984,6.383 4.000,10.800 4.000 C 15.114 4.000,14.981 4.007,15.229 3.751 C 15.418 3.556,15.486 3.355,15.486 2.997 C 15.486 2.491,15.303 2.196,14.909 2.064 C 14.738 2.007,14.283 2.001,10.709 2.005 C 8.504 2.007,6.609 2.025,6.499 2.043 M17.626 3.045 C 17.257 3.239,16.951 3.673,16.951 4.000 C 16.951 4.307,17.079 4.487,17.853 5.270 L 18.575 6.000 16.194 6.000 C 13.653 6.000,13.595 6.004,13.322 6.199 C 13.100 6.357,13.020 6.568,13.020 7.000 C 13.020 7.331,13.033 7.403,13.120 7.558 C 13.230 7.755,13.414 7.898,13.635 7.959 C 13.725 7.984,14.695 8.000,16.178 8.000 L 18.575 8.000 17.853 8.730 C 17.420 9.168,17.095 9.531,17.041 9.637 C 16.863 9.988,16.952 10.354,17.299 10.701 C 17.646 11.048,18.011 11.137,18.363 10.960 C 18.480 10.901,19.051 10.365,20.062 9.365 C 20.899 8.537,21.634 7.826,21.697 7.784 C 21.850 7.682,22.049 7.238,22.049 7.000 C 22.049 6.745,21.851 6.321,21.676 6.201 C 21.601 6.150,20.865 5.438,20.040 4.618 C 19.085 3.670,18.479 3.098,18.372 3.044 C 18.152 2.934,17.835 2.934,17.626 3.045 M12.614 11.057 C 12.221 11.180,12.039 11.435,12.009 11.906 C 11.962 12.621,12.306 13.000,13.000 13.000 C 13.698 13.000,14.043 12.616,13.989 11.900 C 13.963 11.563,13.859 11.327,13.678 11.199 C 13.414 11.010,12.957 10.950,12.614 11.057 " stroke="none" fill="black" fill-rule="evenodd"></path></svg>