<svg xmlns="http://www.w3.org/2000/svg" width="24" height="24" viewBox="0 0 24 24" fill="none" stroke="currentColor" stroke-width="2" stroke-linecap="round" stroke-linejoin="round" class="icon icon-tabler icons-tabler-outline icon-tabler-cash-banknote"><path d="M4.499 5.043 C 3.380 5.232,2.461 6.048,2.114 7.160 L 2.020 7.460 2.020 12.000 L 2.020 16.540 2.114 16.840 C 2.422 17.827,3.173 18.578,4.160 18.886 L 4.460 18.980 12.000 18.980 L 19.540 18.980 19.840 18.886 C 20.827 18.578,21.578 17.827,21.886 16.840 L 21.980 16.540 21.980 12.000 L 21.980 7.460 21.886 7.160 C 21.581 6.182,20.832 5.428,19.861 5.121 L 19.540 5.020 12.120 5.014 C 8.039 5.011,4.609 5.024,4.499 5.043 M19.310 7.061 C 19.589 7.144,19.856 7.411,19.939 7.690 C 19.992 7.867,20.000 8.441,20.000 12.001 C 20.000 16.458,20.007 16.319,19.779 16.618 C 19.718 16.698,19.585 16.813,19.484 16.872 L 19.300 16.980 12.000 16.980 L 4.700 16.980 4.516 16.872 C 4.303 16.747,4.141 16.550,4.058 16.316 C 3.969 16.062,3.971 7.992,4.061 7.690 C 4.140 7.421,4.412 7.143,4.673 7.063 C 4.964 6.974,19.009 6.971,19.310 7.061 M11.358 8.061 C 10.230 8.237,9.143 8.974,8.569 9.953 C 7.320 12.083,8.233 14.785,10.512 15.704 C 12.558 16.528,14.877 15.538,15.704 13.488 C 16.090 12.530,16.090 11.469,15.705 10.516 C 15.172 9.197,14.001 8.269,12.605 8.058 C 12.144 7.989,11.816 7.990,11.358 8.061 M12.523 10.073 C 13.262 10.266,13.850 10.924,13.967 11.690 C 14.067 12.343,13.873 12.933,13.403 13.404 C 13.002 13.807,12.547 14.000,12.000 14.000 C 11.485 14.000,11.038 13.822,10.653 13.465 C 9.323 12.229,10.189 10.005,12.000 10.005 C 12.143 10.005,12.378 10.036,12.523 10.073 M5.614 11.055 C 5.220 11.184,5.039 11.437,5.009 11.900 C 4.978 12.381,5.119 12.699,5.442 12.880 C 5.597 12.967,5.669 12.980,6.000 12.980 C 6.312 12.980,6.408 12.964,6.540 12.894 C 6.866 12.718,7.000 12.459,7.000 12.000 C 7.000 11.357,6.713 11.048,6.083 11.016 C 5.893 11.006,5.718 11.021,5.614 11.055 M17.614 11.055 C 17.220 11.184,17.039 11.437,17.009 11.900 C 16.978 12.381,17.119 12.699,17.442 12.880 C 17.597 12.967,17.669 12.980,18.000 12.980 C 18.312 12.980,18.408 12.964,18.540 12.894 C 18.866 12.718,19.000 12.459,19.000 12.000 C 19.000 11.357,18.713 11.048,18.083 11.016 C 17.893 11.006,17.718 11.021,17.614 11.055 " stroke="none" fill="black" fill-rule="evenodd"></path></svg>