<svg xmlns="http://www.w3.org/2000/svg" width="24" height="24" viewBox="0 0 24 24" fill="none" stroke="currentColor" stroke-width="2" stroke-linecap="round" stroke-linejoin="round" class="icon icon-tabler icons-tabler-outline icon-tabler-underline"><path d="M6.614 4.057 C 6.377 4.131,6.212 4.261,6.109 4.453 L 6.020 4.620 6.020 7.680 C 6.020 10.730,6.020 10.741,6.113 11.160 C 6.650 13.599,8.417 15.365,10.840 15.885 C 11.190 15.960,11.383 15.975,12.000 15.975 C 12.822 15.975,13.248 15.909,13.940 15.672 C 15.954 14.982,17.413 13.314,17.887 11.160 C 17.980 10.741,17.980 10.730,17.980 7.680 L 17.980 4.620 17.889 4.450 C 17.724 4.140,17.329 3.970,16.874 4.011 C 16.439 4.051,16.141 4.274,16.041 4.635 C 16.016 4.726,16.000 5.802,16.000 7.500 C 15.999 10.408,15.984 10.697,15.796 11.245 C 15.135 13.176,13.185 14.316,11.227 13.917 C 9.663 13.599,8.470 12.433,8.092 10.855 C 8.035 10.617,8.023 10.173,8.003 7.600 L 7.980 4.620 7.891 4.453 C 7.842 4.362,7.746 4.247,7.678 4.199 C 7.414 4.010,6.957 3.950,6.614 4.057 M4.614 18.057 C 4.377 18.131,4.212 18.261,4.109 18.453 C 4.035 18.592,4.020 18.684,4.020 19.000 C 4.020 19.331,4.033 19.403,4.120 19.558 C 4.230 19.755,4.414 19.898,4.635 19.959 C 4.835 20.015,19.165 20.015,19.365 19.959 C 19.586 19.898,19.770 19.755,19.880 19.558 C 19.967 19.402,19.980 19.332,19.979 19.000 C 19.978 18.567,19.898 18.355,19.678 18.199 C 19.387 17.991,19.720 18.000,11.984 18.003 C 6.188 18.005,4.747 18.016,4.614 18.057 " stroke="none" fill="black" fill-rule="evenodd"></path></svg>