<svg xmlns="http://www.w3.org/2000/svg" width="24" height="24" viewBox="0 0 24 24" fill="none" stroke="currentColor" stroke-width="2" stroke-linecap="round" stroke-linejoin="round" class="icon icon-tabler icons-tabler-outline icon-tabler-brand-linkedin"><path d="M5.499 3.043 C 4.380 3.233,3.461 4.048,3.114 5.160 L 3.020 5.460 3.020 12.000 L 3.020 18.540 3.114 18.840 C 3.422 19.827,4.173 20.578,5.160 20.886 L 5.460 20.980 12.000 20.980 L 18.540 20.980 18.840 20.886 C 19.827 20.578,20.578 19.827,20.886 18.840 L 20.980 18.540 20.980 12.000 L 20.980 5.460 20.886 5.160 C 20.581 4.182,19.832 3.428,18.861 3.121 L 18.540 3.020 12.120 3.014 C 8.589 3.011,5.609 3.024,5.499 3.043 M18.310 5.061 C 18.589 5.144,18.856 5.411,18.939 5.690 C 18.992 5.869,19.000 6.651,19.000 12.001 C 19.000 17.059,18.991 18.139,18.945 18.290 C 18.872 18.533,18.707 18.740,18.484 18.872 L 18.300 18.980 12.000 18.980 L 5.700 18.980 5.516 18.872 C 5.303 18.747,5.141 18.550,5.058 18.316 C 4.968 18.060,4.971 5.993,5.061 5.690 C 5.140 5.421,5.412 5.143,5.673 5.063 C 5.963 4.974,18.010 4.972,18.310 5.061 M7.614 7.057 C 7.221 7.180,7.039 7.435,7.009 7.906 C 6.962 8.621,7.306 9.000,8.000 9.000 C 8.698 9.000,9.043 8.616,8.989 7.900 C 8.963 7.563,8.859 7.327,8.678 7.199 C 8.414 7.010,7.957 6.950,7.614 7.057 M7.614 10.057 C 7.377 10.131,7.212 10.261,7.109 10.453 L 7.020 10.620 7.009 13.412 C 7.002 15.226,7.012 16.257,7.039 16.356 C 7.144 16.747,7.433 16.961,7.896 16.991 C 8.381 17.022,8.699 16.882,8.880 16.558 L 8.980 16.380 8.980 13.500 L 8.980 10.620 8.891 10.453 C 8.842 10.362,8.746 10.247,8.678 10.199 C 8.414 10.010,7.957 9.950,7.614 10.057 M11.614 10.055 C 11.375 10.133,11.211 10.262,11.109 10.453 L 11.020 10.620 11.009 13.412 C 11.002 15.226,11.012 16.257,11.039 16.356 C 11.144 16.747,11.433 16.961,11.896 16.991 C 12.381 17.022,12.699 16.882,12.880 16.558 L 12.980 16.380 13.000 14.560 C 13.022 12.519,13.013 12.582,13.321 12.283 C 13.490 12.120,13.777 12.000,14.000 12.000 C 14.237 12.000,14.514 12.120,14.697 12.303 C 14.995 12.601,15.000 12.638,15.000 14.557 C 15.000 15.548,15.017 16.279,15.041 16.365 C 15.148 16.750,15.437 16.962,15.896 16.991 C 16.381 17.022,16.699 16.882,16.880 16.558 L 16.980 16.380 16.980 14.420 C 16.980 12.477,16.979 12.457,16.886 12.160 C 16.580 11.180,15.822 10.418,14.861 10.125 C 14.588 10.042,14.458 10.027,14.000 10.027 C 13.531 10.027,13.414 10.041,13.112 10.133 L 12.764 10.238 12.561 10.133 C 12.316 10.006,11.875 9.970,11.614 10.055 " stroke="none" fill="black" fill-rule="evenodd"></path></svg>