<svg xmlns="http://www.w3.org/2000/svg" width="24" height="24" viewBox="0 0 24 24" fill="none" stroke="currentColor" stroke-width="2" stroke-linecap="round" stroke-linejoin="round" class="icon icon-tabler icons-tabler-outline icon-tabler-user-screen"><path d="M5.358 3.061 C 3.728 3.315,2.417 4.584,2.081 6.233 C 1.999 6.638,1.998 6.710,2.009 11.152 L 2.021 15.660 2.114 15.980 C 2.475 17.231,3.338 18.234,4.439 18.682 C 5.031 18.923,5.379 18.921,5.659 18.676 C 5.918 18.448,6.095 17.920,6.033 17.562 C 5.976 17.239,5.812 17.099,5.140 16.794 C 4.598 16.549,4.138 15.946,4.042 15.354 C 4.015 15.191,4.001 13.607,4.003 10.920 C 4.004 7.102,4.011 6.717,4.073 6.477 C 4.201 5.988,4.543 5.546,5.014 5.265 C 5.479 4.986,5.109 5.000,12.028 5.002 C 18.979 5.005,18.529 4.987,19.017 5.281 C 19.294 5.448,19.618 5.787,19.772 6.071 C 20.001 6.494,19.999 6.448,19.999 10.960 C 19.999 13.672,19.985 15.190,19.957 15.360 C 19.857 15.981,19.411 16.540,18.780 16.838 C 18.582 16.931,18.360 17.053,18.286 17.109 C 18.125 17.231,18.002 17.483,18.001 17.694 C 17.999 18.084,18.255 18.586,18.540 18.751 C 19.008 19.021,20.047 18.598,20.821 17.822 C 21.443 17.197,21.838 16.420,21.958 15.580 C 21.983 15.407,21.999 13.650,21.999 10.966 C 22.000 6.798,21.997 6.618,21.921 6.243 C 21.628 4.806,20.637 3.680,19.245 3.204 C 18.646 2.999,18.690 3.000,11.960 3.004 C 6.959 3.007,5.631 3.018,5.358 3.061 M11.499 11.040 C 10.363 11.246,9.460 12.049,9.114 13.160 C 8.979 13.594,8.979 14.406,9.114 14.840 C 9.421 15.826,10.174 16.579,11.160 16.886 C 11.594 17.021,12.406 17.021,12.840 16.886 C 13.826 16.579,14.579 15.826,14.886 14.840 C 15.021 14.406,15.021 13.594,14.886 13.160 C 14.581 12.179,13.810 11.407,12.861 11.129 C 12.500 11.023,11.832 10.980,11.499 11.040 M12.310 13.061 C 12.688 13.173,13.000 13.598,13.000 14.001 C 13.000 14.331,12.784 14.696,12.484 14.872 C 12.328 14.963,12.254 14.980,12.000 14.980 C 11.746 14.980,11.672 14.963,11.516 14.872 C 10.935 14.530,10.833 13.774,11.304 13.303 C 11.583 13.024,11.916 12.944,12.310 13.061 M9.499 18.042 C 8.384 18.235,7.455 19.054,7.122 20.140 C 7.018 20.479,6.972 21.113,7.035 21.344 C 7.146 21.749,7.428 21.961,7.896 21.991 C 8.592 22.035,8.918 21.762,8.996 21.072 C 9.045 20.644,9.108 20.490,9.321 20.283 C 9.613 20.000,9.616 20.000,12.000 20.000 C 14.384 20.000,14.387 20.000,14.679 20.283 C 14.892 20.491,14.958 20.650,15.001 21.067 C 15.068 21.718,15.370 22.000,16.000 22.000 C 16.428 22.000,16.713 21.856,16.880 21.558 C 16.971 21.396,16.980 21.338,16.979 20.920 C 16.978 20.555,16.959 20.398,16.885 20.160 C 16.584 19.185,15.829 18.425,14.861 18.122 L 14.540 18.022 12.120 18.015 C 10.789 18.011,9.609 18.023,9.499 18.042 " stroke="none" fill="black" fill-rule="evenodd"></path></svg>