<svg xmlns="http://www.w3.org/2000/svg" width="24" height="24" viewBox="0 0 24 24" fill="none" stroke="currentColor" stroke-width="2" stroke-linecap="round" stroke-linejoin="round" class="icon icon-tabler icons-tabler-outline icon-tabler-xd"><path d="M5.759 7.021 C 5.484 7.106,5.161 7.351,5.049 7.560 C 4.969 7.711,4.956 7.779,4.973 7.980 C 4.991 8.195,5.092 8.418,5.936 10.110 L 6.879 12.000 5.937 13.890 C 4.880 16.009,4.864 16.056,5.040 16.420 C 5.145 16.637,5.398 16.840,5.712 16.959 C 6.110 17.111,6.475 17.029,6.708 16.735 C 6.775 16.650,7.089 16.063,7.405 15.430 C 7.721 14.797,7.989 14.280,8.000 14.280 C 8.011 14.280,8.284 14.807,8.606 15.452 C 8.928 16.097,9.243 16.684,9.304 16.758 C 9.445 16.924,9.688 17.038,9.908 17.039 C 10.290 17.041,10.807 16.737,10.960 16.420 C 11.136 16.056,11.120 16.009,10.063 13.890 L 9.121 12.000 10.070 10.098 L 11.020 8.197 11.020 7.922 C 11.020 7.681,11.005 7.627,10.900 7.479 C 10.670 7.156,10.105 6.909,9.751 6.975 C 9.669 6.991,9.525 7.061,9.431 7.132 C 9.278 7.247,9.195 7.390,8.640 8.490 C 8.299 9.166,8.011 9.720,8.000 9.720 C 7.989 9.720,7.716 9.193,7.394 8.548 C 7.072 7.903,6.761 7.320,6.703 7.251 C 6.482 6.989,6.137 6.905,5.759 7.021 M13.614 7.056 C 13.376 7.133,13.212 7.262,13.109 7.453 L 13.020 7.620 13.009 11.913 C 13.002 14.727,13.013 16.258,13.039 16.357 C 13.100 16.584,13.242 16.768,13.442 16.880 L 13.620 16.980 15.080 16.980 C 16.499 16.980,16.548 16.977,16.840 16.886 C 17.827 16.578,18.578 15.827,18.886 14.840 L 18.980 14.540 18.980 12.000 L 18.980 9.460 18.886 9.160 C 18.581 8.181,17.825 7.421,16.861 7.124 C 16.550 7.028,16.498 7.024,15.160 7.013 C 14.090 7.005,13.743 7.014,13.614 7.056 M16.310 9.061 C 16.589 9.144,16.856 9.411,16.939 9.690 C 17.025 9.978,17.030 14.007,16.945 14.290 C 16.872 14.533,16.707 14.740,16.484 14.872 C 16.308 14.975,16.272 14.981,15.650 14.993 L 15.000 15.007 15.000 12.003 L 15.000 9.000 15.553 9.000 C 15.931 9.000,16.170 9.019,16.310 9.061 " stroke="none" fill="black" fill-rule="evenodd"></path></svg>