<svg xmlns="http://www.w3.org/2000/svg" width="24" height="24" viewBox="0 0 24 24" fill="none" stroke="currentColor" stroke-width="2" stroke-linecap="round" stroke-linejoin="round" class="icon icon-tabler icons-tabler-outline icon-tabler-clock-stop"><path d="M11.080 2.045 C 9.507 2.184,7.883 2.751,6.540 3.630 C 5.905 4.045,5.499 4.378,4.919 4.958 C 2.953 6.926,1.919 9.544,2.013 12.320 C 2.084 14.439,2.752 16.328,4.033 18.040 C 4.430 18.570,5.305 19.464,5.800 19.847 C 7.524 21.179,9.476 21.901,11.580 21.986 C 12.410 22.019,12.669 21.934,12.880 21.558 C 12.967 21.402,12.980 21.332,12.979 21.000 C 12.978 20.687,12.962 20.591,12.890 20.453 C 12.726 20.143,12.405 20.000,11.872 20.000 C 10.261 20.000,8.463 19.369,7.100 18.325 C 6.747 18.055,6.190 17.510,5.847 17.100 C 4.102 15.014,3.551 12.113,4.403 9.502 C 4.953 7.820,6.121 6.296,7.620 5.309 C 9.618 3.993,12.199 3.653,14.498 4.403 C 16.483 5.051,18.172 6.504,19.130 8.386 C 19.669 9.444,19.919 10.429,19.994 11.784 C 20.023 12.310,20.040 12.411,20.124 12.563 C 20.286 12.856,20.574 13.000,21.000 13.000 C 21.428 13.000,21.713 12.856,21.880 12.558 C 21.976 12.388,21.980 12.352,21.977 11.720 C 21.969 9.661,21.217 7.571,19.847 5.800 C 19.510 5.365,18.639 4.494,18.200 4.154 C 16.133 2.555,13.646 1.818,11.080 2.045 M11.614 6.057 C 11.377 6.131,11.212 6.261,11.109 6.453 L 11.020 6.620 11.020 9.460 L 11.020 12.300 11.126 12.480 C 11.272 12.727,12.416 13.847,12.637 13.959 C 12.988 14.137,13.353 14.049,13.701 13.701 C 14.048 13.354,14.137 12.988,13.960 12.639 C 13.910 12.543,13.675 12.264,13.436 12.020 L 13.003 11.576 12.991 9.098 C 12.980 6.623,12.980 6.620,12.891 6.453 C 12.842 6.362,12.746 6.247,12.678 6.199 C 12.414 6.010,11.957 5.950,11.614 6.057 M15.614 15.057 C 15.377 15.131,15.212 15.261,15.109 15.453 L 15.020 15.620 15.020 19.000 L 15.020 22.380 15.120 22.558 C 15.230 22.755,15.414 22.898,15.635 22.959 C 15.832 23.014,22.168 23.014,22.365 22.959 C 22.586 22.898,22.770 22.755,22.880 22.558 L 22.980 22.380 22.980 19.000 L 22.980 15.620 22.891 15.453 C 22.785 15.256,22.622 15.131,22.371 15.055 C 22.109 14.977,15.866 14.979,15.614 15.057 M21.000 19.000 L 21.000 21.000 19.000 21.000 L 17.000 21.000 17.000 19.000 L 17.000 17.000 19.000 17.000 L 21.000 17.000 21.000 19.000 " stroke="none" fill="black" fill-rule="evenodd"></path></svg>