<svg xmlns="http://www.w3.org/2000/svg" width="24" height="24" viewBox="0 0 24 24" fill="none" stroke="currentColor" stroke-width="2" stroke-linecap="round" stroke-linejoin="round" class="icon icon-tabler icons-tabler-outline icon-tabler-car-crane"><path d="M13.020 3.479 C 8.180 4.291,4.116 4.956,3.989 4.958 C 3.862 4.959,3.697 4.985,3.623 5.016 C 3.411 5.105,3.177 5.342,3.080 5.570 L 2.990 5.779 2.997 8.380 L 3.004 10.981 2.758 11.028 C 2.450 11.086,2.228 11.231,2.111 11.450 L 2.020 11.620 2.020 14.580 L 2.020 17.540 2.114 17.840 C 2.422 18.827,3.174 19.579,4.160 19.886 C 4.594 20.021,5.407 20.021,5.839 19.886 C 6.351 19.726,6.743 19.491,7.107 19.127 L 7.234 19.000 11.000 19.000 L 14.766 19.000 14.893 19.127 C 15.257 19.491,15.649 19.726,16.161 19.886 C 16.412 19.965,16.546 19.979,17.000 19.979 C 17.454 19.979,17.588 19.965,17.839 19.886 C 18.351 19.726,18.743 19.491,19.107 19.127 L 19.234 19.000 20.227 19.000 C 20.773 19.000,21.285 18.981,21.365 18.959 C 21.586 18.898,21.770 18.755,21.880 18.558 L 21.980 18.380 21.980 14.820 L 21.980 11.260 21.887 10.840 C 21.618 9.616,21.107 8.658,20.269 7.805 C 19.258 6.775,18.009 6.180,16.564 6.039 C 16.353 6.019,15.197 6.002,13.996 6.001 C 11.667 6.000,11.593 6.005,11.322 6.199 C 11.254 6.247,11.158 6.362,11.109 6.453 C 11.021 6.619,11.020 6.633,11.009 8.810 L 10.997 11.000 9.999 11.000 L 9.000 11.000 9.000 9.415 C 9.000 8.312,8.986 7.781,8.953 7.672 C 8.863 7.373,8.676 7.222,7.920 6.840 C 7.339 6.547,7.237 6.483,7.320 6.463 C 7.481 6.426,20.873 4.200,20.940 4.200 C 20.990 4.200,21.000 4.282,21.000 4.710 C 21.000 4.990,21.019 5.285,21.041 5.365 C 21.148 5.750,21.437 5.962,21.896 5.991 C 22.381 6.022,22.699 5.882,22.880 5.558 L 22.980 5.380 22.980 4.040 L 22.980 2.700 22.866 2.468 C 22.789 2.311,22.701 2.202,22.594 2.131 C 22.272 1.918,22.644 1.865,13.020 3.479 M6.020 8.130 L 7.000 8.619 7.000 9.810 L 7.000 11.000 6.000 11.000 L 5.000 11.000 5.000 9.320 C 5.000 8.396,5.009 7.640,5.020 7.640 C 5.031 7.640,5.481 7.860,6.020 8.130 M14.895 10.130 C 15.244 11.302,15.566 12.346,15.611 12.452 C 15.710 12.687,15.947 12.897,16.180 12.956 C 16.295 12.985,16.981 13.000,18.178 13.000 L 20.000 13.000 19.995 14.830 C 19.993 15.889,19.977 16.580,19.959 16.471 C 19.778 15.400,18.930 14.451,17.861 14.125 C 17.588 14.042,17.458 14.027,17.000 14.027 C 16.542 14.027,16.412 14.042,16.139 14.125 C 14.982 14.478,14.123 15.518,14.016 16.698 L 13.989 17.000 13.494 17.000 L 13.000 17.000 13.000 12.500 L 13.000 8.000 13.630 8.000 L 14.260 8.001 14.895 10.130 M16.855 8.100 C 18.184 8.381,19.319 9.395,19.780 10.712 L 19.874 10.980 18.571 10.991 C 17.854 10.996,17.260 10.994,17.251 10.984 C 17.242 10.975,17.046 10.340,16.816 9.574 C 16.587 8.807,16.389 8.149,16.377 8.110 C 16.349 8.021,16.472 8.018,16.855 8.100 M11.000 15.000 L 11.000 17.000 9.506 17.000 L 8.011 17.000 7.984 16.698 C 7.877 15.518,7.017 14.476,5.861 14.125 C 5.594 14.044,5.452 14.027,5.020 14.025 C 4.713 14.024,4.426 14.044,4.320 14.074 C 4.221 14.102,4.109 14.134,4.070 14.145 C 4.006 14.164,4.000 14.119,4.000 13.583 L 4.000 13.000 7.500 13.000 L 11.000 13.000 11.000 15.000 M5.334 16.064 C 5.698 16.188,6.000 16.613,6.000 17.001 C 6.000 17.331,5.784 17.696,5.484 17.872 C 5.328 17.963,5.254 17.980,5.000 17.980 C 4.746 17.980,4.672 17.963,4.516 17.872 C 3.937 17.531,3.833 16.774,4.301 16.306 C 4.587 16.019,4.952 15.934,5.334 16.064 M17.334 16.064 C 17.698 16.188,18.000 16.613,18.000 17.001 C 18.000 17.331,17.784 17.696,17.484 17.872 C 17.328 17.963,17.254 17.980,17.000 17.980 C 16.746 17.980,16.672 17.963,16.516 17.872 C 15.934 17.529,15.831 16.775,16.304 16.303 C 16.587 16.019,16.954 15.935,17.334 16.064 " stroke="none" fill="black" fill-rule="evenodd"></path></svg>