<svg xmlns="http://www.w3.org/2000/svg" width="24" height="24" viewBox="0 0 24 24" fill="none" stroke="currentColor" stroke-width="2" stroke-linecap="round" stroke-linejoin="round" class="icon icon-tabler icons-tabler-outline icon-tabler-clock-off"><path d="M2.626 2.045 C 2.257 2.239,1.951 2.673,1.951 3.000 C 1.951 3.327,2.064 3.474,3.188 4.605 L 4.247 5.670 3.989 6.005 C 2.798 7.550,2.068 9.537,1.965 11.517 C 1.836 13.963,2.625 16.413,4.148 18.300 C 4.560 18.811,5.189 19.440,5.700 19.852 C 7.298 21.142,9.327 21.919,11.389 22.032 C 13.160 22.129,14.874 21.769,16.480 20.964 C 17.096 20.655,17.875 20.151,18.210 19.845 L 18.321 19.744 19.390 20.807 C 20.081 21.493,20.523 21.902,20.637 21.960 C 20.989 22.137,21.354 22.048,21.701 21.701 C 22.047 21.355,22.136 20.990,21.961 20.637 C 21.839 20.392,3.616 2.165,3.372 2.044 C 3.152 1.934,2.834 1.935,2.626 2.045 M11.180 2.041 C 10.023 2.145,9.011 2.404,7.959 2.866 C 7.340 3.138,7.119 3.293,7.000 3.540 C 6.928 3.690,6.914 3.770,6.932 3.940 C 6.975 4.359,7.232 4.771,7.544 4.922 C 7.812 5.052,8.053 5.015,8.610 4.759 C 10.262 3.998,11.958 3.814,13.740 4.201 C 16.080 4.709,18.085 6.282,19.174 8.465 C 19.828 9.776,20.122 11.481,19.943 12.922 C 19.831 13.822,19.647 14.470,19.254 15.360 C 18.984 15.969,18.949 16.189,19.080 16.460 C 19.233 16.777,19.750 17.081,20.132 17.079 C 20.352 17.078,20.595 16.964,20.738 16.796 C 20.801 16.721,20.933 16.489,21.031 16.280 C 22.348 13.470,22.315 10.321,20.939 7.539 C 19.480 4.590,16.598 2.532,13.320 2.100 C 12.749 2.025,11.690 1.996,11.180 2.041 M11.614 6.057 C 11.377 6.131,11.212 6.261,11.109 6.453 C 11.027 6.606,11.019 6.684,11.007 7.405 C 10.999 7.880,11.011 8.252,11.037 8.349 C 11.144 8.748,11.430 8.961,11.896 8.991 C 12.381 9.022,12.699 8.882,12.880 8.558 C 12.978 8.383,12.980 8.364,12.980 7.500 C 12.980 6.667,12.975 6.611,12.891 6.453 C 12.842 6.362,12.746 6.247,12.678 6.199 C 12.414 6.010,11.957 5.950,11.614 6.057 M11.300 12.722 L 16.900 18.324 16.780 18.424 C 16.553 18.613,15.999 18.963,15.618 19.159 C 13.977 20.002,12.065 20.258,10.280 19.874 C 9.420 19.689,8.373 19.265,7.680 18.821 C 6.414 18.011,5.354 16.811,4.724 15.477 C 3.476 12.831,3.775 9.670,5.495 7.327 C 5.578 7.213,5.659 7.120,5.673 7.120 C 5.688 7.120,8.220 9.641,11.300 12.722 " stroke="none" fill="black" fill-rule="evenodd"></path></svg>