<svg xmlns="http://www.w3.org/2000/svg" width="24" height="24" viewBox="0 0 24 24" fill="none" stroke="currentColor" stroke-width="2" stroke-linecap="round" stroke-linejoin="round" class="icon icon-tabler icons-tabler-outline icon-tabler-math-xy"><path d="M3.626 8.045 C 3.257 8.239,2.951 8.673,2.951 9.000 C 2.951 9.333,3.056 9.467,4.353 10.770 L 5.577 12.000 4.353 13.230 C 3.056 14.533,2.951 14.667,2.951 15.000 C 2.951 15.477,3.523 16.049,4.000 16.049 C 4.333 16.049,4.467 15.944,5.770 14.647 L 7.000 13.423 8.230 14.647 C 9.533 15.944,9.667 16.049,10.000 16.049 C 10.477 16.049,11.049 15.477,11.049 15.000 C 11.049 14.667,10.944 14.533,9.647 13.230 L 8.423 12.000 9.647 10.770 C 10.452 9.961,10.901 9.479,10.960 9.363 C 11.137 9.011,11.048 8.646,10.701 8.299 C 10.361 7.958,9.980 7.868,9.628 8.045 C 9.523 8.098,8.999 8.588,8.230 9.353 L 7.000 10.577 5.770 9.353 C 5.001 8.588,4.477 8.098,4.372 8.045 C 4.152 7.934,3.835 7.934,3.626 8.045 M13.692 8.044 C 13.446 8.139,13.091 8.445,13.014 8.628 C 12.939 8.807,12.946 9.044,13.033 9.270 C 13.073 9.374,13.709 10.477,14.446 11.720 C 15.183 12.963,15.836 14.065,15.896 14.169 L 16.007 14.358 15.141 15.980 C 14.665 16.872,14.250 17.675,14.218 17.766 C 14.083 18.148,14.194 18.500,14.524 18.743 C 15.082 19.153,15.624 19.127,15.945 18.677 C 16.101 18.458,20.865 9.532,20.967 9.270 C 21.121 8.868,21.018 8.508,20.676 8.257 C 20.143 7.865,19.601 7.872,19.287 8.273 C 19.224 8.354,18.717 9.275,18.161 10.320 C 17.605 11.365,17.139 12.232,17.125 12.246 C 17.111 12.261,16.579 11.393,15.943 10.318 C 15.264 9.170,14.727 8.306,14.643 8.226 C 14.352 7.947,14.080 7.895,13.692 8.044 " stroke="none" fill="black" fill-rule="evenodd"></path></svg>