<svg xmlns="http://www.w3.org/2000/svg" width="24" height="24" viewBox="0 0 24 24" fill="none" stroke="currentColor" stroke-width="2" stroke-linecap="round" stroke-linejoin="round" class="icon icon-tabler icons-tabler-outline icon-tabler-ticket-off"><path d="M2.626 2.045 C 2.257 2.239,1.951 2.673,1.951 3.000 C 1.951 3.288,2.085 3.493,2.654 4.072 L 3.177 4.603 2.967 4.804 C 2.536 5.218,2.299 5.589,2.116 6.140 C 2.025 6.415,2.023 6.457,2.009 8.307 C 2.000 9.553,2.009 10.247,2.037 10.351 C 2.146 10.754,2.410 10.945,2.933 10.999 C 3.350 11.042,3.509 11.108,3.717 11.321 C 3.880 11.490,4.000 11.777,4.000 12.001 C 4.000 12.176,3.897 12.462,3.779 12.618 C 3.599 12.853,3.377 12.959,2.976 13.000 C 2.417 13.058,2.146 13.245,2.037 13.649 C 2.009 13.753,2.000 14.447,2.009 15.693 C 2.023 17.539,2.025 17.586,2.115 17.860 C 2.437 18.835,3.159 19.557,4.140 19.886 L 4.420 19.980 11.499 19.991 L 18.578 20.002 19.519 20.936 C 20.114 21.527,20.525 21.903,20.637 21.960 C 20.989 22.137,21.354 22.048,21.701 21.701 C 22.048 21.354,22.137 20.989,21.959 20.637 C 21.888 20.496,20.606 19.137,19.748 18.293 C 19.598 18.145,5.866 4.413,5.760 4.304 C 5.007 3.534,3.504 2.112,3.372 2.045 C 3.152 1.934,2.836 1.934,2.626 2.045 M8.614 4.057 C 8.377 4.132,8.212 4.261,8.109 4.453 C 8.035 4.592,8.020 4.684,8.020 5.000 C 8.020 5.331,8.033 5.403,8.120 5.558 C 8.230 5.755,8.414 5.898,8.635 5.959 C 8.725 5.984,9.765 6.000,11.390 6.000 L 14.000 6.000 14.000 6.610 C 14.000 6.946,14.019 7.285,14.041 7.365 C 14.148 7.750,14.437 7.962,14.896 7.991 C 15.381 8.022,15.699 7.882,15.880 7.558 C 15.974 7.391,15.981 7.338,15.994 6.690 L 16.008 6.000 17.557 6.000 C 19.350 6.000,19.401 6.007,19.697 6.303 C 19.981 6.587,20.000 6.695,20.000 8.020 L 20.000 9.145 19.670 9.313 C 18.922 9.693,18.365 10.355,18.114 11.160 C 17.979 11.594,17.979 12.406,18.114 12.840 C 18.365 13.645,18.931 14.318,19.670 14.688 L 20.000 14.853 20.000 16.037 C 20.000 16.706,20.018 17.283,20.041 17.365 C 20.148 17.750,20.437 17.962,20.896 17.991 C 21.381 18.022,21.699 17.882,21.880 17.558 L 21.980 17.380 21.980 15.500 C 21.980 13.633,21.979 13.619,21.891 13.453 C 21.736 13.163,21.520 13.052,21.007 12.999 C 20.626 12.959,20.398 12.849,20.225 12.623 C 19.914 12.215,19.938 11.677,20.283 11.321 C 20.490 11.108,20.650 11.042,21.062 11.000 C 21.535 10.951,21.736 10.837,21.905 10.520 C 21.975 10.389,21.980 10.258,21.980 8.420 C 21.980 6.477,21.979 6.457,21.886 6.160 C 21.581 5.182,20.832 4.428,19.861 4.121 L 19.540 4.020 14.160 4.012 C 9.811 4.006,8.748 4.014,8.614 4.057 M9.638 11.058 C 12.376 13.796,14.608 16.042,14.598 16.048 C 14.588 16.055,14.508 16.098,14.420 16.145 C 14.240 16.240,14.100 16.421,14.041 16.635 C 14.019 16.715,14.000 17.055,14.000 17.391 L 14.000 18.001 9.350 17.991 L 4.700 17.980 4.516 17.872 C 4.415 17.813,4.284 17.700,4.225 17.623 C 4.014 17.346,4.000 17.247,4.000 16.002 L 4.000 14.853 4.330 14.688 C 5.069 14.318,5.635 13.645,5.886 12.840 C 6.021 12.406,6.021 11.594,5.886 11.160 C 5.635 10.355,5.078 9.693,4.330 9.313 L 4.000 9.145 4.000 8.019 C 4.000 6.821,4.022 6.639,4.198 6.412 C 4.297 6.283,4.554 6.080,4.617 6.080 C 4.641 6.080,6.900 8.320,9.638 11.058 M16.300 17.720 L 16.578 18.000 16.289 18.000 L 16.000 18.000 16.000 17.720 C 16.000 17.566,16.005 17.440,16.011 17.440 C 16.017 17.440,16.147 17.566,16.300 17.720 " stroke="none" fill="black" fill-rule="evenodd"></path></svg>