<svg xmlns="http://www.w3.org/2000/svg" width="24" height="24" viewBox="0 0 24 24" fill="none" stroke="currentColor" stroke-width="2" stroke-linecap="round" stroke-linejoin="round" class="icon icon-tabler icons-tabler-outline icon-tabler-api-app-off"><path d="M2.626 2.045 C 2.420 2.154,2.146 2.433,2.038 2.644 C 1.924 2.867,1.924 3.132,2.039 3.363 C 2.102 3.487,2.998 4.411,5.064 6.481 L 8.000 9.421 8.000 10.821 C 8.000 11.635,8.017 12.281,8.041 12.365 C 8.148 12.750,8.437 12.962,8.896 12.991 C 9.381 13.022,9.700 12.881,9.878 12.559 C 9.963 12.406,9.979 12.317,9.993 11.906 L 10.010 11.430 12.007 13.425 L 14.003 15.420 13.992 17.140 L 13.980 18.860 13.868 19.100 C 13.721 19.415,13.413 19.724,13.104 19.867 C 12.894 19.965,12.811 19.980,12.500 19.980 C 12.189 19.980,12.106 19.965,11.896 19.867 C 11.587 19.725,11.278 19.414,11.137 19.106 C 11.042 18.898,11.027 18.804,11.001 18.246 C 10.968 17.530,10.909 17.353,10.649 17.182 C 10.198 16.887,9.426 16.979,9.170 17.358 C 9.016 17.586,8.989 17.773,9.011 18.460 C 9.028 18.997,9.048 19.157,9.136 19.452 C 9.314 20.050,9.558 20.474,9.978 20.915 C 10.906 21.890,12.283 22.236,13.588 21.821 C 14.604 21.498,15.497 20.606,15.820 19.591 C 15.965 19.133,15.999 18.852,16.000 18.101 L 16.000 17.422 18.230 19.647 C 19.776 21.189,20.514 21.899,20.637 21.960 C 20.990 22.137,21.354 22.048,21.701 21.701 C 22.048 21.354,22.137 20.990,21.960 20.637 C 21.888 20.492,18.858 17.399,15.747 14.293 C 15.358 13.904,9.837 8.384,9.760 8.306 C 9.705 8.250,8.283 6.838,6.600 5.167 C 4.562 3.143,3.484 2.100,3.372 2.044 C 3.152 1.934,2.835 1.935,2.626 2.045 M10.821 2.062 C 10.162 2.187,9.584 2.504,9.038 3.040 C 8.594 3.476,8.388 3.799,8.192 4.366 C 8.084 4.678,8.063 4.800,8.061 5.103 C 8.060 5.431,8.070 5.481,8.168 5.629 C 8.327 5.870,8.638 6.011,9.056 6.030 C 9.603 6.056,9.838 5.876,10.002 5.304 C 10.046 5.148,10.122 4.934,10.169 4.829 C 10.279 4.584,10.616 4.266,10.910 4.128 C 11.105 4.037,11.194 4.021,11.501 4.021 C 11.828 4.020,11.887 4.032,12.125 4.150 C 12.442 4.306,12.725 4.594,12.868 4.907 C 12.959 5.105,12.974 5.203,12.997 5.756 C 13.021 6.317,13.034 6.400,13.122 6.559 C 13.286 6.856,13.572 7.000,14.000 7.000 C 14.428 7.000,14.714 6.856,14.879 6.558 C 14.969 6.397,14.980 6.326,14.993 5.820 C 15.024 4.645,14.750 3.865,14.038 3.104 C 13.587 2.622,13.019 2.284,12.380 2.118 C 11.953 2.007,11.247 1.981,10.821 2.062 M12.614 8.057 C 12.222 8.181,12.039 8.436,12.009 8.900 C 11.978 9.381,12.119 9.699,12.442 9.880 L 12.620 9.980 15.740 10.000 L 18.860 10.020 19.104 10.133 C 19.414 10.276,19.722 10.586,19.866 10.900 C 19.961 11.106,19.977 11.192,19.977 11.500 C 19.977 11.808,19.961 11.894,19.866 12.100 C 19.721 12.416,19.414 12.724,19.104 12.865 C 18.883 12.965,18.803 12.978,18.257 12.999 C 17.715 13.020,17.633 13.033,17.457 13.124 C 17.119 13.297,16.978 13.607,17.009 14.104 C 17.038 14.563,17.250 14.852,17.635 14.959 C 17.823 15.012,18.708 15.011,19.031 14.959 C 19.429 14.894,19.872 14.737,20.240 14.531 C 20.709 14.268,21.268 13.709,21.531 13.240 C 22.666 11.214,21.629 8.745,19.378 8.111 C 19.063 8.023,19.035 8.022,15.920 8.013 C 13.408 8.006,12.747 8.014,12.614 8.057 M4.873 9.063 C 4.147 9.194,3.470 9.562,2.958 10.105 C 2.559 10.527,2.314 10.957,2.133 11.548 C 2.038 11.863,2.026 11.963,2.026 12.500 C 2.026 13.037,2.038 13.137,2.133 13.452 C 2.500 14.655,3.334 15.490,4.548 15.869 L 4.900 15.979 8.551 15.991 C 10.973 15.999,12.253 15.989,12.354 15.961 C 12.583 15.900,12.768 15.758,12.880 15.558 C 12.967 15.402,12.980 15.332,12.979 15.000 C 12.977 14.469,12.852 14.247,12.455 14.071 C 12.366 14.031,11.535 14.016,8.740 14.000 L 5.140 13.980 4.900 13.868 C 4.583 13.720,4.275 13.413,4.135 13.104 C 4.040 12.895,4.024 12.808,4.024 12.500 C 4.024 12.192,4.040 12.105,4.135 11.896 C 4.275 11.587,4.584 11.279,4.896 11.136 C 5.106 11.040,5.196 11.026,5.756 11.002 C 6.546 10.967,6.703 10.901,6.904 10.520 C 7.018 10.305,7.009 9.679,6.890 9.453 C 6.786 9.256,6.623 9.131,6.371 9.055 C 6.134 8.984,5.285 8.988,4.873 9.063 " stroke="none" fill="black" fill-rule="evenodd"></path></svg>