<svg xmlns="http://www.w3.org/2000/svg" width="24" height="24" viewBox="0 0 24 24" fill="none" stroke="currentColor" stroke-width="2" stroke-linecap="round" stroke-linejoin="round" class="icon icon-tabler icons-tabler-outline icon-tabler-zodiac-capricorn"><path d="M3.614 3.057 C 3.223 3.180,3.039 3.436,3.009 3.900 C 2.978 4.377,3.119 4.701,3.434 4.874 C 3.563 4.946,3.704 4.977,4.012 5.002 C 4.237 5.021,4.511 5.064,4.623 5.097 C 5.054 5.228,5.534 5.635,5.772 6.072 C 6.003 6.496,5.999 6.397,6.000 11.520 C 6.000 14.543,6.015 16.272,6.041 16.365 C 6.148 16.750,6.437 16.962,6.896 16.991 C 7.381 17.022,7.699 16.882,7.880 16.558 L 7.980 16.380 8.000 11.480 C 8.023 5.999,8.000 6.417,8.314 5.937 C 8.810 5.181,9.661 4.848,10.523 5.073 C 11.212 5.253,11.795 5.860,11.941 6.549 C 12.027 6.954,12.027 18.046,11.941 18.451 C 11.863 18.821,11.710 19.091,11.400 19.404 C 11.015 19.795,10.547 20.000,10.038 20.000 C 9.391 20.000,9.048 20.300,9.009 20.900 C 8.978 21.381,9.119 21.701,9.442 21.879 C 9.940 22.154,11.210 21.933,12.064 21.424 C 12.530 21.145,13.146 20.545,13.383 20.137 C 13.424 20.067,13.436 20.070,13.583 20.184 C 13.844 20.386,14.154 20.559,14.512 20.704 C 16.558 21.528,18.877 20.538,19.704 18.488 C 20.090 17.530,20.090 16.469,19.705 15.516 C 19.172 14.197,18.001 13.269,16.605 13.058 C 16.121 12.986,15.879 12.986,15.395 13.058 C 14.972 13.122,14.621 13.231,14.271 13.406 C 14.145 13.469,14.033 13.520,14.021 13.520 C 14.010 13.520,14.000 11.970,14.000 10.076 C 14.000 6.798,13.996 6.614,13.921 6.243 C 13.628 4.806,12.637 3.680,11.245 3.204 C 10.951 3.103,10.322 3.000,10.000 3.000 C 9.001 3.000,7.971 3.422,7.192 4.151 L 7.000 4.331 6.808 4.151 C 6.168 3.552,5.419 3.181,4.605 3.058 C 4.139 2.988,3.836 2.988,3.614 3.057 M16.523 15.073 C 17.262 15.266,17.850 15.924,17.967 16.690 C 18.067 17.343,17.873 17.933,17.403 18.404 C 17.002 18.807,16.547 19.000,16.000 19.000 C 15.485 19.000,15.038 18.822,14.653 18.465 C 13.323 17.229,14.189 15.005,16.000 15.005 C 16.143 15.005,16.378 15.036,16.523 15.073 " stroke="none" fill="black" fill-rule="evenodd"></path></svg>