<svg xmlns="http://www.w3.org/2000/svg" width="24" height="24" viewBox="0 0 24 24" fill="none" stroke="currentColor" stroke-width="2" stroke-linecap="round" stroke-linejoin="round" class="icon icon-tabler icons-tabler-outline icon-tabler-zoom-exclamation"><path d="M9.207 2.043 C 7.656 2.193,6.096 2.846,4.900 3.847 C 3.985 4.612,3.307 5.477,2.800 6.529 C 1.453 9.317,1.837 12.625,3.789 15.040 C 4.075 15.394,4.761 16.067,5.100 16.326 C 6.974 17.757,9.329 18.302,11.620 17.833 C 12.581 17.637,13.717 17.154,14.500 16.608 L 14.900 16.329 17.680 19.101 C 19.627 21.042,20.513 21.898,20.637 21.961 C 20.990 22.137,21.354 22.048,21.701 21.701 C 22.048 21.354,22.137 20.990,21.961 20.637 C 21.898 20.513,21.042 19.627,19.101 17.680 L 16.329 14.900 16.608 14.500 C 16.761 14.280,17.009 13.854,17.158 13.553 C 18.265 11.323,18.280 8.765,17.200 6.529 C 16.693 5.477,16.015 4.612,15.100 3.847 C 13.483 2.494,11.337 1.837,9.207 2.043 M10.564 4.039 C 12.921 4.269,14.913 5.837,15.671 8.060 C 16.168 9.517,16.068 11.251,15.410 12.580 C 14.550 14.316,13.056 15.478,11.160 15.885 C 10.554 16.015,9.446 16.015,8.840 15.885 C 6.941 15.478,5.451 14.319,4.590 12.580 C 3.932 11.251,3.832 9.517,4.329 8.060 C 4.618 7.212,5.080 6.470,5.731 5.805 C 7.008 4.503,8.757 3.864,10.564 4.039 M9.614 6.057 C 9.377 6.131,9.212 6.261,9.109 6.453 C 9.021 6.618,9.020 6.647,9.008 8.410 C 9.001 9.557,9.012 10.255,9.038 10.354 C 9.144 10.747,9.433 10.961,9.896 10.991 C 10.381 11.022,10.699 10.882,10.880 10.558 L 10.980 10.380 10.980 8.500 C 10.980 6.633,10.979 6.619,10.891 6.453 C 10.842 6.362,10.746 6.247,10.678 6.199 C 10.414 6.010,9.957 5.950,9.614 6.057 M9.614 12.057 C 9.221 12.180,9.039 12.435,9.009 12.906 C 8.962 13.621,9.306 14.000,10.000 14.000 C 10.698 14.000,11.043 13.616,10.989 12.900 C 10.963 12.563,10.859 12.327,10.678 12.199 C 10.414 12.010,9.957 11.950,9.614 12.057 " stroke="none" fill="black" fill-rule="evenodd"></path></svg>