<svg xmlns="http://www.w3.org/2000/svg" width="24" height="24" viewBox="0 0 24 24" fill="none" stroke="currentColor" stroke-width="2" stroke-linecap="round" stroke-linejoin="round" class="icon icon-tabler icons-tabler-outline icon-tabler-arrow-rotary-last-right"><path d="M15.219 1.999 L 12.658 2.020 12.459 2.122 C 12.119 2.297,11.978 2.606,12.009 3.104 C 12.038 3.563,12.250 3.852,12.635 3.959 C 12.719 3.983,13.366 4.000,14.180 4.000 L 15.580 4.000 13.303 6.277 L 11.026 8.554 10.763 8.423 C 10.379 8.231,10.039 8.124,9.605 8.058 C 9.121 7.986,8.879 7.986,8.395 8.058 C 6.156 8.396,4.632 10.563,5.082 12.772 C 5.359 14.128,6.281 15.231,7.540 15.711 C 7.716 15.778,7.891 15.843,7.930 15.855 C 7.996 15.876,8.000 16.040,8.000 18.549 C 8.000 20.215,8.016 21.274,8.041 21.365 C 8.148 21.750,8.437 21.962,8.896 21.991 C 9.381 22.022,9.699 21.882,9.880 21.558 L 9.980 21.380 9.991 18.628 C 10.002 16.069,10.007 15.875,10.071 15.855 C 11.339 15.453,12.237 14.645,12.704 13.488 C 12.994 12.769,13.070 11.977,12.921 11.243 C 12.844 10.868,12.627 10.260,12.502 10.069 C 12.444 9.980,12.493 9.926,14.721 7.699 L 17.000 5.420 17.000 6.820 C 17.000 7.634,17.017 8.281,17.041 8.365 C 17.148 8.750,17.437 8.962,17.896 8.991 C 18.381 9.022,18.699 8.882,18.880 8.558 L 18.980 8.380 19.007 5.720 C 19.022 4.257,19.036 3.001,19.037 2.929 C 19.041 2.740,18.834 2.310,18.690 2.207 C 18.466 2.048,18.205 1.959,17.987 1.969 C 17.873 1.974,16.627 1.988,15.219 1.999 M9.523 10.073 C 10.262 10.266,10.850 10.924,10.967 11.690 C 11.067 12.343,10.873 12.933,10.403 13.404 C 10.002 13.807,9.547 14.000,9.000 14.000 C 8.485 14.000,8.038 13.822,7.653 13.465 C 6.323 12.229,7.189 10.005,9.000 10.005 C 9.143 10.005,9.378 10.036,9.523 10.073 " stroke="none" fill="black" fill-rule="evenodd"></path></svg>