<svg xmlns="http://www.w3.org/2000/svg" width="24" height="24" viewBox="0 0 24 24" fill="none" stroke="currentColor" stroke-width="2" stroke-linecap="round" stroke-linejoin="round" class="icon icon-tabler icons-tabler-outline icon-tabler-id-off"><path d="M2.626 2.045 C 2.257 2.239,1.951 2.673,1.951 3.000 C 1.951 3.276,2.080 3.484,2.547 3.964 L 2.965 4.392 2.802 4.606 C 2.593 4.881,2.340 5.366,2.216 5.732 C 1.996 6.377,2.000 6.252,2.000 12.029 C 2.000 17.266,2.002 17.375,2.083 17.773 C 2.311 18.892,2.985 19.851,3.956 20.436 C 4.286 20.636,4.810 20.832,5.247 20.921 C 5.633 21.000,5.766 21.001,12.150 20.990 L 18.660 20.978 18.977 20.888 C 19.152 20.839,19.303 20.790,19.314 20.779 C 19.325 20.768,19.587 21.009,19.897 21.314 C 20.210 21.622,20.539 21.909,20.637 21.959 C 20.988 22.137,21.353 22.049,21.701 21.701 C 22.048 21.354,22.137 20.990,21.960 20.637 C 21.888 20.493,19.305 17.845,16.747 15.293 C 9.802 8.363,3.636 2.225,3.560 2.168 C 3.264 1.942,2.910 1.895,2.626 2.045 M7.614 3.057 C 7.377 3.131,7.212 3.261,7.109 3.453 C 7.035 3.592,7.020 3.684,7.020 4.000 C 7.020 4.331,7.033 4.403,7.120 4.558 C 7.230 4.755,7.414 4.898,7.635 4.959 C 7.729 4.985,9.640 5.000,13.020 5.002 C 18.863 5.005,18.533 4.990,19.017 5.281 C 19.294 5.448,19.618 5.787,19.772 6.071 C 20.004 6.500,19.999 6.352,20.000 12.020 C 20.000 15.378,20.015 17.271,20.041 17.365 C 20.148 17.750,20.437 17.962,20.896 17.991 C 21.381 18.022,21.699 17.882,21.880 17.558 L 21.980 17.380 21.991 12.010 C 22.001 6.771,21.999 6.630,21.921 6.246 C 21.628 4.806,20.638 3.681,19.245 3.204 C 18.655 3.002,18.605 3.000,13.000 3.003 C 8.832 3.005,7.746 3.016,7.614 3.057 M5.545 6.965 L 6.671 8.091 6.496 8.353 C 6.143 8.879,5.973 9.513,6.013 10.155 C 6.042 10.632,6.120 10.928,6.322 11.340 C 6.685 12.076,7.427 12.687,8.220 12.900 C 8.593 13.000,9.246 13.021,9.575 12.944 C 9.962 12.853,10.418 12.662,10.682 12.482 L 10.908 12.328 12.244 13.664 L 13.580 15.000 10.196 15.000 C 6.577 15.000,6.603 14.999,6.322 15.199 C 6.100 15.357,6.020 15.568,6.020 16.000 C 6.020 16.331,6.033 16.403,6.120 16.558 C 6.230 16.755,6.414 16.898,6.635 16.959 C 6.728 16.985,8.356 17.000,11.180 17.000 L 15.581 17.000 16.580 18.000 L 17.579 19.000 11.658 19.000 C 5.225 19.000,5.534 19.010,5.083 18.781 C 4.806 18.641,4.446 18.293,4.271 17.998 C 3.984 17.511,3.996 17.796,4.009 11.880 L 4.020 6.580 4.127 6.313 C 4.237 6.040,4.350 5.840,4.394 5.840 C 4.408 5.840,4.926 6.346,5.545 6.965 M14.614 7.057 C 14.377 7.131,14.212 7.261,14.109 7.453 C 14.035 7.592,14.020 7.684,14.020 8.000 C 14.020 8.331,14.033 8.403,14.120 8.558 C 14.230 8.755,14.414 8.898,14.635 8.959 C 14.826 9.012,17.174 9.012,17.365 8.959 C 17.586 8.898,17.770 8.755,17.880 8.558 C 17.967 8.402,17.980 8.332,17.979 8.000 C 17.978 7.687,17.962 7.591,17.890 7.453 C 17.786 7.256,17.623 7.131,17.371 7.055 C 17.117 6.979,14.859 6.981,14.614 7.057 M8.799 10.219 C 9.160 10.581,9.448 10.884,9.438 10.893 C 9.386 10.937,9.130 11.000,9.001 11.000 C 8.348 11.000,7.859 10.341,8.046 9.715 C 8.072 9.630,8.104 9.560,8.117 9.560 C 8.130 9.560,8.437 9.856,8.799 10.219 M15.614 11.057 C 15.377 11.131,15.212 11.261,15.109 11.453 C 15.035 11.592,15.020 11.684,15.020 12.000 C 15.020 12.331,15.033 12.403,15.120 12.558 C 15.230 12.755,15.414 12.898,15.635 12.959 C 15.823 13.012,17.177 13.012,17.365 12.959 C 17.586 12.898,17.770 12.755,17.880 12.558 C 17.967 12.402,17.980 12.332,17.979 12.000 C 17.978 11.687,17.962 11.591,17.890 11.453 C 17.786 11.256,17.623 11.131,17.371 11.055 C 17.126 10.982,15.851 10.983,15.614 11.057 " stroke="none" fill="black" fill-rule="evenodd"></path></svg>