<svg xmlns="http://www.w3.org/2000/svg" width="24" height="24" viewBox="0 0 24 24" fill="none" stroke="currentColor" stroke-width="2" stroke-linecap="round" stroke-linejoin="round" class="icon icon-tabler icons-tabler-outline icon-tabler-mug"><path d="M3.642 4.044 C 3.295 4.112,2.886 4.343,2.604 4.632 C 2.318 4.923,2.157 5.204,2.061 5.578 C 1.971 5.928,1.969 14.908,2.059 15.461 C 2.194 16.294,2.567 17.201,3.030 17.822 C 3.752 18.789,4.839 19.528,5.976 19.825 C 6.594 19.986,6.854 19.999,9.500 19.999 C 12.146 19.999,12.406 19.986,13.024 19.825 C 14.154 19.530,15.248 18.788,15.960 17.835 C 16.242 17.457,16.559 16.846,16.717 16.376 L 16.836 16.020 17.988 15.997 C 19.092 15.974,19.155 15.969,19.497 15.865 C 20.186 15.655,20.622 15.383,21.125 14.848 C 21.474 14.477,21.741 14.004,21.888 13.497 C 21.977 13.189,21.980 13.134,21.980 11.500 C 21.980 9.866,21.977 9.811,21.888 9.503 C 21.615 8.558,20.936 7.768,20.028 7.338 C 19.461 7.069,19.221 7.029,18.050 7.010 L 17.000 6.992 17.000 6.405 C 17.000 5.504,16.866 5.112,16.396 4.632 C 16.103 4.332,15.704 4.112,15.325 4.041 C 15.056 3.990,3.901 3.993,3.642 4.044 M14.980 10.620 C 14.980 15.787,14.999 15.445,14.679 16.107 C 14.215 17.066,13.342 17.736,12.286 17.943 C 11.857 18.027,7.143 18.027,6.714 17.943 C 5.658 17.736,4.785 17.066,4.321 16.107 C 4.004 15.450,4.025 15.811,4.010 10.682 C 4.003 8.164,4.007 6.080,4.018 6.052 C 4.034 6.009,5.051 6.002,9.509 6.010 L 14.980 6.020 14.980 10.620 M18.821 9.044 C 19.277 9.128,19.691 9.433,19.886 9.829 C 19.980 10.019,19.980 10.028,19.980 11.500 C 19.980 12.971,19.979 12.981,19.886 13.170 C 19.769 13.409,19.500 13.688,19.279 13.800 C 18.930 13.978,18.783 13.999,17.870 14.000 L 17.000 14.000 17.000 11.500 L 17.000 9.000 17.793 9.000 C 18.229 9.000,18.691 9.020,18.821 9.044 " stroke="none" fill="black" fill-rule="evenodd"></path></svg>