<svg xmlns="http://www.w3.org/2000/svg" width="24" height="24" viewBox="0 0 24 24" fill="none" stroke="currentColor" stroke-width="2" stroke-linecap="round" stroke-linejoin="round" class="icon icon-tabler icons-tabler-outline icon-tabler-armchair"><path d="M7.358 2.061 C 5.731 2.315,4.417 3.584,4.083 5.227 C 4.005 5.609,4.000 5.766,4.000 7.889 L 4.000 10.145 3.670 10.313 C 2.922 10.693,2.365 11.354,2.114 12.160 L 2.020 12.460 2.020 15.000 L 2.020 17.540 2.114 17.840 C 2.483 19.024,3.511 19.876,4.698 19.984 L 5.000 20.011 5.000 20.616 C 5.000 20.948,5.019 21.285,5.041 21.365 C 5.148 21.750,5.437 21.962,5.896 21.991 C 6.381 22.022,6.699 21.882,6.880 21.558 C 6.974 21.391,6.981 21.338,6.994 20.690 L 7.008 20.000 12.004 20.000 L 17.000 20.000 17.000 20.610 C 17.000 20.946,17.019 21.285,17.041 21.365 C 17.148 21.750,17.437 21.962,17.896 21.991 C 18.381 22.022,18.699 21.882,18.880 21.558 C 18.974 21.391,18.981 21.338,18.994 20.695 L 19.008 20.010 19.306 19.983 C 20.489 19.876,21.517 19.022,21.886 17.840 L 21.980 17.540 21.980 15.000 L 21.980 12.460 21.886 12.160 C 21.635 11.354,21.078 10.693,20.330 10.313 L 20.000 10.145 20.000 7.889 C 20.000 5.361,19.987 5.214,19.705 4.516 C 19.172 3.197,18.001 2.269,16.605 2.058 C 16.063 1.977,7.884 1.979,7.358 2.061 M16.523 4.073 C 17.022 4.203,17.516 4.599,17.772 5.071 C 17.987 5.468,17.999 5.621,17.999 7.983 L 18.000 10.145 17.670 10.313 C 16.931 10.689,16.372 11.347,16.118 12.140 C 16.042 12.379,16.026 12.536,16.010 13.210 L 15.991 14.000 12.000 14.000 L 8.009 14.000 7.990 13.210 C 7.974 12.536,7.958 12.379,7.882 12.140 C 7.628 11.347,7.069 10.689,6.330 10.313 L 6.000 10.145 6.000 7.971 C 6.000 5.541,6.009 5.441,6.265 5.014 C 6.546 4.543,6.988 4.201,7.477 4.073 C 7.718 4.010,8.102 4.005,12.000 4.005 C 15.898 4.005,16.282 4.010,16.523 4.073 M5.308 12.060 C 5.438 12.099,5.571 12.179,5.679 12.283 C 5.976 12.572,5.977 12.577,6.000 14.060 C 6.020 15.376,6.020 15.381,6.120 15.558 C 6.230 15.755,6.414 15.898,6.635 15.959 C 6.834 16.015,17.166 16.015,17.365 15.959 C 17.586 15.898,17.770 15.755,17.880 15.558 C 17.980 15.381,17.980 15.376,18.001 14.060 C 18.024 12.577,18.025 12.571,18.321 12.283 C 18.490 12.120,18.777 12.000,19.000 12.000 C 19.402 12.000,19.827 12.312,19.939 12.690 C 20.025 12.978,20.030 17.007,19.945 17.290 C 19.872 17.533,19.707 17.740,19.484 17.872 L 19.300 17.980 12.000 17.980 L 4.700 17.980 4.516 17.872 C 4.415 17.813,4.284 17.700,4.225 17.623 C 4.000 17.327,4.000 17.332,4.000 15.022 C 4.000 12.586,3.997 12.609,4.304 12.303 C 4.582 12.024,4.916 11.944,5.308 12.060 " stroke="none" fill="black" fill-rule="evenodd"></path></svg>