<svg xmlns="http://www.w3.org/2000/svg" width="24" height="24" viewBox="0 0 24 24" fill="none" stroke="currentColor" stroke-width="2" stroke-linecap="round" stroke-linejoin="round" class="icon icon-tabler icons-tabler-outline icon-tabler-ship-off"><path d="M2.626 2.045 C 2.257 2.239,1.951 2.673,1.951 3.000 C 1.951 3.334,2.055 3.466,3.372 4.789 C 4.056 5.476,4.607 6.043,4.598 6.049 C 4.588 6.055,4.508 6.098,4.420 6.145 C 4.240 6.240,4.100 6.421,4.041 6.635 C 4.016 6.725,4.000 7.764,4.000 9.387 L 4.000 11.993 3.350 12.007 C 2.730 12.019,2.689 12.025,2.468 12.134 C 2.309 12.212,2.202 12.299,2.129 12.410 C 1.925 12.717,1.936 12.803,2.533 15.771 C 3.132 18.751,3.122 18.718,3.480 18.910 C 3.638 18.995,3.700 19.005,3.984 18.991 C 4.401 18.970,4.713 18.829,4.871 18.590 C 5.067 18.295,5.051 18.133,4.622 16.001 C 4.412 14.957,4.240 14.079,4.240 14.051 C 4.240 14.010,5.049 14.000,8.410 14.000 L 12.580 14.000 14.600 16.020 L 16.619 18.039 16.239 18.014 C 15.352 17.956,14.488 18.225,13.797 18.773 C 13.675 18.870,13.440 19.109,13.276 19.304 C 13.111 19.499,12.905 19.707,12.818 19.767 C 12.373 20.070,11.627 20.070,11.182 19.767 C 11.095 19.707,10.889 19.499,10.724 19.304 C 10.560 19.109,10.325 18.870,10.203 18.773 C 9.075 17.877,7.509 17.753,6.261 18.460 C 5.891 18.669,5.604 18.915,5.276 19.304 C 5.111 19.499,4.905 19.707,4.818 19.767 C 4.493 19.988,3.972 20.059,3.561 19.937 C 3.261 19.848,3.089 19.728,2.820 19.421 C 2.408 18.952,2.091 18.853,1.654 19.057 C 1.019 19.352,0.796 19.888,1.090 20.409 C 1.628 21.361,2.798 22.000,4.004 22.000 C 5.073 22.000,6.008 21.552,6.721 20.698 C 7.144 20.192,7.496 20.000,8.000 20.000 C 8.504 20.000,8.856 20.192,9.278 20.697 C 9.995 21.556,10.924 22.000,12.004 22.000 C 13.073 22.000,14.008 21.552,14.721 20.698 C 15.144 20.192,15.496 20.000,16.000 20.000 C 16.504 20.000,16.856 20.192,17.278 20.697 C 18.048 21.619,19.022 22.048,20.214 21.990 C 20.489 21.976,20.692 21.983,20.736 22.008 C 20.861 22.078,21.173 22.056,21.352 21.964 C 21.512 21.883,21.863 21.567,22.503 20.928 C 23.138 20.294,23.211 19.748,22.718 19.303 C 22.359 18.979,21.894 18.870,21.600 19.042 C 21.523 19.087,21.361 19.231,21.240 19.362 L 21.020 19.601 17.427 15.991 C 15.451 14.005,13.795 12.341,13.747 12.293 C 13.699 12.245,12.355 10.901,10.760 9.306 C 9.165 7.711,7.815 6.361,7.760 6.305 C 7.705 6.249,6.733 5.287,5.600 4.167 C 4.268 2.849,3.480 2.099,3.372 2.045 C 3.152 1.934,2.835 1.934,2.626 2.045 M10.614 6.057 C 10.377 6.131,10.212 6.261,10.109 6.453 C 10.035 6.592,10.020 6.684,10.020 7.000 C 10.020 7.331,10.033 7.403,10.120 7.558 C 10.230 7.755,10.414 7.898,10.635 7.959 C 10.715 7.981,11.160 8.000,11.624 8.000 L 12.467 8.000 14.240 10.660 C 15.215 12.123,16.047 13.396,16.089 13.489 C 16.189 13.714,16.262 13.789,16.500 13.913 L 16.700 14.017 18.030 14.004 C 18.762 13.997,19.360 14.001,19.360 14.013 C 19.360 14.026,19.203 14.352,19.012 14.740 C 18.705 15.359,18.662 15.474,18.647 15.700 C 18.633 15.923,18.645 15.981,18.736 16.137 C 18.794 16.236,18.923 16.373,19.022 16.441 C 19.231 16.585,19.598 16.720,19.776 16.719 C 19.960 16.718,20.203 16.592,20.353 16.422 C 20.426 16.339,20.822 15.596,21.233 14.772 L 21.980 13.274 21.978 12.947 C 21.975 12.571,21.885 12.346,21.678 12.199 C 21.412 12.009,21.307 12.000,19.360 12.000 L 17.534 12.000 15.629 9.144 C 14.435 7.354,13.678 6.256,13.599 6.200 C 13.346 6.019,13.184 6.000,11.944 6.003 C 11.107 6.005,10.733 6.020,10.614 6.057 M8.580 10.000 L 10.580 12.000 8.290 12.000 L 6.000 12.000 6.000 10.000 L 6.000 8.000 6.290 8.000 L 6.580 8.000 8.580 10.000 " stroke="none" fill="black" fill-rule="evenodd"></path></svg>