<svg xmlns="http://www.w3.org/2000/svg" width="24" height="24" viewBox="0 0 24 24" fill="none" stroke="currentColor" stroke-width="2" stroke-linecap="round" stroke-linejoin="round" class="icon icon-tabler icons-tabler-outline icon-tabler-barrel-off"><path d="M2.626 2.045 C 2.257 2.239,1.951 2.673,1.951 3.000 C 1.951 3.326,2.065 3.475,3.163 4.580 L 4.196 5.620 3.981 6.260 C 3.602 7.390,3.535 7.640,3.319 8.736 C 2.900 10.866,2.900 13.168,3.317 15.260 C 3.490 16.123,3.559 16.404,3.755 17.047 C 4.108 18.202,4.473 19.140,4.730 19.558 C 5.196 20.315,5.941 20.817,6.806 20.958 C 7.154 21.015,16.844 21.016,17.192 20.959 C 17.682 20.879,18.227 20.639,18.569 20.353 L 18.765 20.189 19.612 21.029 C 20.138 21.550,20.527 21.904,20.637 21.960 C 20.989 22.137,21.354 22.048,21.701 21.701 C 22.116 21.287,22.159 20.870,21.833 20.440 C 21.791 20.385,20.649 19.224,19.296 17.860 C 17.943 16.496,16.793 15.338,16.742 15.286 C 16.592 15.134,15.738 14.281,15.628 14.172 C 15.532 14.078,10.078 8.625,9.867 8.413 C 9.813 8.357,9.561 8.105,9.308 7.852 C 9.055 7.599,8.806 7.350,8.754 7.298 C 7.625 6.166,3.633 2.223,3.560 2.168 C 3.264 1.942,2.910 1.895,2.626 2.045 M7.614 3.057 C 7.376 3.132,7.212 3.261,7.109 3.453 C 7.035 3.592,7.020 3.684,7.020 4.000 C 7.020 4.331,7.033 4.403,7.120 4.558 C 7.230 4.755,7.414 4.898,7.635 4.959 C 7.715 4.981,7.992 5.000,8.250 5.000 C 8.775 5.000,8.756 4.987,8.679 5.300 C 8.657 5.388,8.638 5.573,8.637 5.712 C 8.633 6.170,8.845 6.439,9.317 6.577 C 9.768 6.708,10.124 6.639,10.356 6.375 C 10.521 6.187,10.567 6.061,10.698 5.440 L 10.786 5.020 12.001 5.020 L 13.217 5.020 13.287 5.360 C 13.326 5.547,13.403 5.952,13.460 6.260 C 13.516 6.568,13.571 6.861,13.582 6.910 L 13.602 7.000 12.707 7.000 C 11.756 7.000,11.562 7.028,11.322 7.199 C 11.100 7.357,11.020 7.568,11.020 8.000 C 11.020 8.331,11.033 8.403,11.120 8.558 C 11.230 8.755,11.414 8.898,11.635 8.959 C 11.715 8.981,12.243 9.000,12.808 9.000 L 13.836 9.000 13.856 9.130 C 13.886 9.323,13.916 9.734,13.960 10.540 C 13.981 10.936,14.016 11.321,14.038 11.396 C 14.098 11.602,14.241 11.785,14.419 11.888 C 14.558 11.967,14.636 11.980,14.980 11.980 C 15.344 11.980,15.397 11.970,15.567 11.870 C 15.781 11.744,15.898 11.577,15.958 11.309 C 15.998 11.129,15.971 10.285,15.895 9.329 L 15.869 8.999 17.283 9.009 L 18.696 9.020 18.726 9.164 C 18.818 9.604,18.924 10.509,18.965 11.199 C 19.039 12.450,18.946 13.695,18.675 15.080 C 18.565 15.640,18.558 15.721,18.602 15.920 C 18.691 16.326,19.126 16.607,19.680 16.615 C 19.990 16.620,20.223 16.509,20.375 16.283 C 20.496 16.104,20.535 15.978,20.656 15.380 C 21.101 13.181,21.110 10.917,20.681 8.736 C 20.473 7.682,20.264 6.919,19.922 5.966 C 19.464 4.693,19.253 4.298,18.796 3.862 C 18.385 3.469,17.950 3.223,17.400 3.073 C 17.126 2.998,7.847 2.983,7.614 3.057 M17.042 5.061 C 17.263 5.139,17.450 5.282,17.557 5.455 C 17.625 5.565,18.160 6.920,18.160 6.983 C 18.160 6.992,17.584 7.000,16.880 7.000 L 15.600 7.000 15.600 6.902 C 15.600 6.848,15.536 6.456,15.457 6.032 C 15.379 5.607,15.304 5.202,15.292 5.130 L 15.270 5.000 16.070 5.000 C 16.683 5.000,16.910 5.014,17.042 5.061 M7.836 9.256 L 8.089 9.511 8.044 10.366 C 7.972 11.750,7.992 13.173,8.103 14.631 L 8.132 15.001 6.716 14.991 L 5.300 14.980 5.213 14.460 C 5.165 14.174,5.103 13.715,5.074 13.440 C 5.010 12.812,5.009 11.168,5.074 10.560 C 5.126 10.068,5.276 9.080,5.306 9.030 C 5.317 9.014,5.833 9.000,6.454 9.000 L 7.582 9.000 7.836 9.256 M11.874 14.990 C 10.946 14.996,10.177 14.990,10.164 14.977 C 10.119 14.932,10.046 13.736,10.019 12.580 L 9.991 11.420 11.776 13.200 L 13.560 14.980 11.874 14.990 M8.400 17.093 C 8.400 17.144,8.464 17.536,8.543 17.963 C 8.621 18.390,8.696 18.800,8.708 18.872 L 8.731 19.004 7.874 18.992 C 7.046 18.980,7.011 18.977,6.819 18.878 C 6.710 18.822,6.565 18.703,6.498 18.615 C 6.400 18.486,5.997 17.520,5.863 17.090 L 5.835 17.000 7.117 17.000 L 8.400 17.000 8.400 17.093 M13.582 17.090 C 13.572 17.140,13.498 17.522,13.419 17.940 C 13.340 18.358,13.258 18.768,13.236 18.851 L 13.197 19.001 11.989 18.991 L 10.781 18.980 10.617 18.140 C 10.527 17.678,10.443 17.233,10.429 17.150 L 10.405 17.000 12.003 17.000 L 13.602 17.000 13.582 17.090 M17.279 18.829 C 17.075 18.972,16.878 19.000,16.075 19.000 C 15.462 19.000,15.280 18.988,15.280 18.950 C 15.280 18.922,15.341 18.575,15.416 18.180 C 15.491 17.784,15.565 17.363,15.581 17.245 L 15.609 17.030 16.482 17.902 C 17.294 18.713,17.351 18.779,17.279 18.829 " stroke="none" fill="black" fill-rule="evenodd"></path></svg>