<svg xmlns="http://www.w3.org/2000/svg" width="24" height="24" viewBox="0 0 24 24" fill="none" stroke="currentColor" stroke-width="2" stroke-linecap="round" stroke-linejoin="round" class="icon icon-tabler icons-tabler-outline icon-tabler-perspective-off"><path d="M2.626 2.045 C 2.257 2.239,1.951 2.673,1.951 3.000 C 1.951 3.321,2.070 3.479,3.065 4.482 L 4.000 5.424 4.000 12.263 C 4.000 18.312,4.007 19.131,4.062 19.341 C 4.160 19.717,4.278 19.919,4.580 20.224 C 4.995 20.646,5.427 20.839,5.960 20.840 C 6.103 20.840,8.818 20.469,11.994 20.015 L 17.768 19.190 19.114 20.531 C 20.008 21.421,20.520 21.901,20.637 21.960 C 20.989 22.137,21.354 22.048,21.701 21.701 C 22.048 21.354,22.137 20.989,21.960 20.637 C 21.887 20.493,20.175 18.707,18.816 17.360 C 18.553 17.099,5.833 4.380,5.766 4.312 C 5.095 3.619,3.500 2.111,3.372 2.045 C 3.152 1.934,2.836 1.934,2.626 2.045 M8.358 3.507 C 7.937 3.562,7.734 3.712,7.602 4.065 C 7.505 4.323,7.492 4.777,7.575 4.971 C 7.657 5.162,7.859 5.345,8.066 5.416 C 8.167 5.450,10.403 5.785,13.035 6.160 C 15.667 6.535,17.860 6.850,17.910 6.861 L 18.000 6.882 18.000 11.051 C 18.000 13.720,18.015 15.272,18.041 15.365 C 18.148 15.750,18.437 15.962,18.896 15.991 C 19.381 16.022,19.699 15.882,19.880 15.558 L 19.980 15.380 19.991 11.030 C 20.003 6.300,20.007 6.408,19.782 5.963 C 19.655 5.714,19.280 5.307,19.054 5.174 C 18.958 5.118,18.788 5.037,18.675 4.994 C 18.537 4.942,16.883 4.690,13.605 4.222 C 8.812 3.538,8.475 3.492,8.358 3.507 M15.960 17.403 C 15.960 17.416,13.777 17.737,11.110 18.118 C 8.443 18.498,6.202 18.819,6.130 18.830 L 6.000 18.850 6.000 13.135 L 6.000 7.420 10.980 12.400 C 13.719 15.139,15.960 17.390,15.960 17.403 " stroke="none" fill="black" fill-rule="evenodd"></path></svg>