<svg xmlns="http://www.w3.org/2000/svg" width="24" height="24" viewBox="0 0 24 24" fill="none" stroke="currentColor" stroke-width="2" stroke-linecap="round" stroke-linejoin="round" class="icon icon-tabler icons-tabler-outline icon-tabler-building-circus"><path d="M11.614 2.055 C 11.375 2.133,11.211 2.262,11.109 2.453 C 11.021 2.617,11.020 2.651,11.000 4.509 L 10.980 6.398 10.720 6.663 C 9.806 7.594,7.947 8.770,6.380 9.410 C 5.462 9.785,4.821 9.950,4.106 9.997 C 3.426 10.041,3.200 10.166,3.064 10.571 C 2.929 10.975,3.019 11.528,3.255 11.753 C 3.460 11.949,3.686 12.000,4.341 12.000 C 4.866 12.000,4.920 12.007,4.920 12.070 C 4.920 12.108,4.884 12.532,4.840 13.012 C 4.482 16.931,3.969 19.247,3.203 20.400 C 3.001 20.704,2.960 20.813,2.960 21.043 C 2.960 21.290,3.061 21.497,3.275 21.690 C 3.615 21.998,3.442 21.979,5.939 21.991 C 8.094 22.002,8.187 22.000,8.446 21.921 C 9.050 21.737,9.817 21.042,10.534 20.029 C 10.949 19.441,11.526 18.375,11.843 17.611 C 11.919 17.429,11.989 17.281,12.000 17.281 C 12.011 17.281,12.081 17.429,12.157 17.611 C 12.521 18.489,13.125 19.573,13.623 20.240 C 14.321 21.177,14.975 21.745,15.560 21.923 C 15.811 21.999,15.920 22.002,18.061 21.991 C 20.558 21.979,20.385 21.998,20.725 21.690 C 21.138 21.318,21.148 20.909,20.760 20.340 C 20.130 19.417,19.623 17.329,19.281 14.252 C 19.232 13.812,19.080 12.168,19.080 12.073 C 19.080 12.015,19.156 12.005,19.730 11.993 C 20.302 11.981,20.399 11.969,20.540 11.893 C 20.756 11.778,20.860 11.656,20.936 11.429 C 21.054 11.075,21.009 10.624,20.828 10.355 C 20.665 10.114,20.456 10.033,19.900 9.997 C 19.179 9.950,18.540 9.786,17.620 9.410 C 16.038 8.764,14.154 7.568,13.270 6.649 L 13.000 6.368 13.000 5.684 L 13.000 5.000 13.585 5.000 C 13.914 5.000,14.239 4.980,14.326 4.954 C 14.677 4.848,14.982 4.428,15.028 3.988 C 15.057 3.703,14.941 3.445,14.705 3.272 C 14.614 3.206,14.036 2.899,13.419 2.592 C 12.384 2.075,12.278 2.031,12.039 2.016 C 11.885 2.007,11.712 2.023,11.614 2.055 M12.372 8.551 C 12.901 8.997,13.169 9.197,13.806 9.623 L 14.371 10.000 12.000 10.000 L 9.629 10.000 10.204 9.616 C 10.777 9.234,11.399 8.762,11.780 8.422 C 11.890 8.323,11.985 8.242,11.992 8.242 C 11.999 8.241,12.170 8.380,12.372 8.551 M11.000 12.110 C 10.999 12.171,10.981 12.481,10.958 12.800 C 10.840 14.484,10.394 16.105,9.637 17.601 C 9.168 18.529,8.691 19.231,8.193 19.729 L 7.923 20.000 6.762 20.000 L 5.600 20.000 5.681 19.790 C 5.984 18.999,6.343 17.304,6.578 15.560 C 6.689 14.729,6.860 13.082,6.903 12.430 L 6.931 12.000 8.965 12.000 L 11.000 12.000 11.000 12.110 M17.097 12.430 C 17.267 15.039,17.771 18.158,18.257 19.609 L 18.388 20.000 17.233 20.000 L 16.077 20.000 15.807 19.729 C 15.309 19.231,14.832 18.529,14.363 17.601 C 13.606 16.105,13.160 14.484,13.042 12.800 C 13.019 12.481,13.001 12.171,13.000 12.110 L 13.000 12.000 15.035 12.000 L 17.069 12.000 17.097 12.430 " stroke="none" fill="black" fill-rule="evenodd"></path></svg>