<svg xmlns="http://www.w3.org/2000/svg" width="24" height="24" viewBox="0 0 24 24" fill="none" stroke="currentColor" stroke-width="2" stroke-linecap="round" stroke-linejoin="round" class="icon icon-tabler icons-tabler-outline icon-tabler-headset-off"><path d="M2.626 2.045 C 2.257 2.239,1.951 2.673,1.951 3.000 C 1.951 3.332,2.058 3.468,3.325 4.741 C 3.982 5.402,4.520 5.954,4.520 5.968 C 4.520 5.982,4.432 6.135,4.325 6.309 C 3.691 7.330,3.253 8.570,3.071 9.860 C 3.033 10.130,3.020 11.131,3.020 13.880 L 3.020 17.540 3.114 17.840 C 3.422 18.827,4.173 19.578,5.160 19.886 C 5.442 19.974,5.521 19.980,6.500 19.980 C 7.479 19.980,7.558 19.974,7.840 19.886 C 8.827 19.578,9.578 18.827,9.886 17.840 C 9.979 17.542,9.980 17.527,9.980 15.500 C 9.980 13.473,9.979 13.458,9.886 13.160 C 9.577 12.169,8.792 11.390,7.822 11.112 C 7.524 11.027,7.424 11.020,6.500 11.020 C 5.677 11.020,5.458 11.032,5.262 11.088 C 5.131 11.126,5.015 11.148,5.004 11.138 C 4.994 11.127,5.007 10.844,5.033 10.509 C 5.083 9.877,5.198 9.290,5.380 8.740 C 5.500 8.376,5.938 7.440,5.987 7.440 C 6.005 7.440,7.814 9.236,10.007 11.430 L 13.995 15.420 14.011 16.500 C 14.025 17.489,14.034 17.604,14.117 17.860 C 14.423 18.804,15.170 19.566,16.077 19.861 C 16.280 19.926,16.289 19.935,16.217 19.989 C 16.055 20.111,15.436 20.400,15.052 20.534 C 14.240 20.817,13.498 20.942,12.317 20.996 C 11.620 21.028,11.594 21.032,11.410 21.146 C 11.291 21.220,11.183 21.330,11.120 21.442 C 11.033 21.597,11.020 21.669,11.020 22.000 C 11.020 22.331,11.033 22.403,11.120 22.558 C 11.233 22.761,11.416 22.899,11.656 22.965 C 11.972 23.052,13.422 22.960,14.300 22.799 C 15.387 22.598,16.552 22.154,17.340 21.639 C 17.743 21.376,18.426 20.697,18.600 20.387 L 18.731 20.155 19.595 21.012 C 20.134 21.546,20.527 21.904,20.637 21.960 C 20.989 22.137,21.354 22.048,21.701 21.701 C 22.116 21.286,22.159 20.869,21.833 20.440 C 21.778 20.368,17.392 15.938,15.747 14.293 C 9.190 7.736,3.509 2.112,3.372 2.044 C 3.152 1.934,2.835 1.935,2.626 2.045 M11.300 2.024 C 10.420 2.117,9.750 2.258,9.080 2.489 C 8.494 2.692,7.551 3.150,7.329 3.341 C 6.923 3.690,6.898 4.106,7.249 4.654 C 7.428 4.932,7.673 5.080,7.958 5.080 C 8.152 5.080,8.258 5.043,8.800 4.782 C 9.141 4.618,9.586 4.428,9.790 4.361 C 13.127 3.248,16.780 4.797,18.300 7.969 C 18.745 8.898,18.997 9.956,18.999 10.913 C 19.000 11.135,18.991 11.163,18.930 11.145 C 18.892 11.134,18.779 11.101,18.680 11.073 C 18.554 11.036,18.207 11.020,17.520 11.020 C 16.439 11.020,16.278 11.044,15.749 11.288 C 15.155 11.561,14.996 11.985,15.261 12.585 C 15.396 12.892,15.610 13.108,15.849 13.179 C 16.067 13.244,16.206 13.226,16.644 13.079 C 16.836 13.014,16.987 13.000,17.491 13.000 C 18.255 13.000,18.440 13.047,18.697 13.303 C 18.982 13.588,19.000 13.692,19.000 15.057 C 19.000 15.713,19.018 16.283,19.041 16.365 C 19.148 16.750,19.437 16.962,19.896 16.991 C 20.381 17.022,20.699 16.882,20.880 16.558 L 20.980 16.380 20.992 13.500 C 21.000 11.633,20.989 10.458,20.961 10.160 C 20.744 7.873,19.624 5.694,17.904 4.214 C 16.592 3.085,15.012 2.357,13.320 2.101 C 12.912 2.039,11.623 1.990,11.300 2.024 M7.310 13.061 C 7.589 13.144,7.856 13.411,7.939 13.690 C 8.024 13.976,8.029 17.010,7.945 17.290 C 7.872 17.533,7.707 17.740,7.484 17.872 C 7.301 17.980,7.297 17.980,6.500 17.980 C 5.703 17.980,5.699 17.980,5.516 17.872 C 5.303 17.747,5.141 17.550,5.058 17.316 C 4.971 17.067,4.973 13.986,5.061 13.690 C 5.140 13.421,5.412 13.143,5.673 13.063 C 5.941 12.981,7.035 12.979,7.310 13.061 " stroke="none" fill="black" fill-rule="evenodd"></path></svg>