<svg xmlns="http://www.w3.org/2000/svg" width="24" height="24" viewBox="0 0 24 24" fill="none" stroke="currentColor" stroke-width="2" stroke-linecap="round" stroke-linejoin="round" class="icon icon-tabler icons-tabler-outline icon-tabler-brand-airtable"><path d="M7.220 3.534 C 4.690 4.377,2.546 5.105,2.456 5.151 C 1.969 5.401,1.844 5.916,2.132 6.480 C 2.317 6.841,2.165 6.781,7.188 8.456 C 10.516 9.565,11.871 10.000,11.999 10.000 C 12.127 10.000,13.456 9.574,16.699 8.495 C 19.186 7.667,21.328 6.941,21.460 6.882 C 21.860 6.702,22.083 6.353,22.021 6.004 C 21.939 5.534,21.762 5.267,21.432 5.111 C 21.315 5.057,19.186 4.334,16.699 3.506 C 13.445 2.422,12.128 2.000,11.999 2.000 C 11.870 2.000,10.530 2.430,7.220 3.534 M14.910 5.030 C 16.477 5.552,17.760 5.989,17.760 6.000 C 17.760 6.011,16.464 6.452,14.880 6.980 L 12.000 7.939 9.120 6.980 C 7.536 6.452,6.240 6.011,6.240 6.000 C 6.240 5.971,11.882 4.087,11.980 4.083 C 12.024 4.081,13.342 4.507,14.910 5.030 M2.780 8.980 C 2.758 8.987,2.691 9.004,2.631 9.017 C 2.472 9.052,2.251 9.263,2.127 9.496 L 2.020 9.700 2.009 13.953 C 2.002 16.740,2.013 18.258,2.039 18.357 C 2.100 18.584,2.242 18.768,2.442 18.880 C 2.590 18.963,2.673 18.980,2.940 18.980 L 3.260 18.980 6.894 17.421 C 10.857 15.722,10.809 15.746,10.936 15.373 C 11.029 15.099,11.031 12.298,10.938 12.035 C 10.872 11.847,10.685 11.627,10.516 11.538 C 10.309 11.430,3.256 9.032,3.040 8.997 C 2.919 8.977,2.820 8.962,2.820 8.963 C 2.820 8.965,2.802 8.972,2.780 8.980 M17.193 10.196 C 15.198 10.853,13.501 11.430,13.422 11.479 C 13.239 11.592,13.100 11.776,13.044 11.980 C 12.986 12.194,12.982 21.155,13.041 21.365 C 13.102 21.586,13.245 21.770,13.442 21.880 C 13.590 21.963,13.673 21.980,13.940 21.980 L 14.260 21.980 17.894 20.421 C 20.854 19.152,21.560 18.835,21.701 18.711 C 22.021 18.429,22.003 18.724,21.991 13.897 L 21.980 9.620 21.891 9.453 C 21.740 9.172,21.400 8.998,21.004 9.001 C 20.873 9.002,19.767 9.349,17.193 10.196 M7.880 12.730 L 8.980 13.107 8.991 13.724 L 9.002 14.340 6.531 15.396 C 5.172 15.977,4.046 16.460,4.030 16.469 C 4.014 16.478,4.000 15.341,4.000 13.944 L 4.000 11.403 5.390 11.878 C 6.155 12.139,7.275 12.522,7.880 12.730 M20.000 14.370 L 20.000 17.340 17.530 18.397 C 16.172 18.977,15.047 19.460,15.030 19.469 C 15.013 19.478,15.000 18.030,15.000 16.252 L 15.001 13.020 17.450 12.214 C 18.798 11.770,19.922 11.406,19.950 11.404 C 19.990 11.401,20.000 12.019,20.000 14.370 " stroke="none" fill="black" fill-rule="evenodd"></path></svg>