<svg xmlns="http://www.w3.org/2000/svg" width="24" height="24" viewBox="0 0 24 24" fill="none" stroke="currentColor" stroke-width="2" stroke-linecap="round" stroke-linejoin="round" class="icon icon-tabler icons-tabler-outline icon-tabler-presentation-analytics"><path d="M2.614 3.057 C 2.223 3.180,2.039 3.436,2.009 3.900 C 1.968 4.532,2.251 4.922,2.796 4.987 L 2.998 5.011 3.009 9.795 L 3.020 14.580 3.114 14.860 C 3.443 15.840,4.162 16.560,5.140 16.885 L 5.420 16.979 8.210 16.991 L 11.000 17.004 11.000 18.002 L 11.000 19.000 9.906 19.000 C 8.744 19.000,8.570 19.022,8.322 19.199 C 8.100 19.357,8.020 19.568,8.020 20.000 C 8.020 20.331,8.033 20.403,8.120 20.558 C 8.230 20.755,8.414 20.898,8.635 20.959 C 8.832 21.014,15.168 21.014,15.365 20.959 C 15.586 20.898,15.770 20.755,15.880 20.558 C 15.967 20.402,15.980 20.332,15.979 20.000 C 15.978 19.567,15.898 19.355,15.678 19.199 C 15.430 19.022,15.256 19.000,14.094 19.000 L 13.000 19.000 13.000 18.002 L 13.000 17.004 15.790 16.991 L 18.580 16.979 18.860 16.885 C 19.838 16.560,20.557 15.840,20.886 14.860 L 20.980 14.580 20.991 9.795 L 21.002 5.011 21.198 4.988 C 21.539 4.947,21.754 4.805,21.904 4.520 C 22.018 4.305,22.009 3.679,21.890 3.453 C 21.786 3.256,21.623 3.131,21.371 3.055 C 21.106 2.976,2.868 2.978,2.614 3.057 M19.000 9.554 C 19.000 14.497,19.008 14.318,18.779 14.618 C 18.718 14.698,18.585 14.813,18.484 14.872 L 18.300 14.980 12.000 14.980 L 5.700 14.980 5.516 14.872 C 5.415 14.813,5.284 14.700,5.225 14.623 C 4.989 14.314,5.000 14.557,5.000 9.575 L 5.000 5.000 12.000 5.000 L 19.000 5.000 19.000 9.554 M8.614 7.057 C 8.377 7.131,8.212 7.261,8.109 7.453 C 8.020 7.619,8.020 7.629,8.009 9.911 C 8.001 11.392,8.012 12.256,8.039 12.355 C 8.144 12.747,8.433 12.961,8.896 12.991 C 9.381 13.022,9.699 12.882,9.880 12.558 L 9.980 12.380 9.980 10.000 L 9.980 7.620 9.891 7.453 C 9.842 7.362,9.746 7.247,9.678 7.199 C 9.414 7.010,8.957 6.950,8.614 7.057 M14.614 9.057 C 14.377 9.131,14.212 9.261,14.109 9.453 C 14.023 9.614,14.020 9.665,14.008 10.908 C 14.000 11.720,14.011 12.254,14.038 12.352 C 14.144 12.747,14.432 12.961,14.896 12.991 C 15.381 13.022,15.699 12.882,15.880 12.558 L 15.980 12.380 15.980 11.000 C 15.980 9.650,15.978 9.616,15.891 9.453 C 15.842 9.362,15.746 9.247,15.678 9.199 C 15.414 9.010,14.957 8.950,14.614 9.057 M11.614 10.057 C 11.377 10.131,11.212 10.261,11.109 10.453 C 11.027 10.606,11.019 10.684,11.007 11.405 C 10.999 11.880,11.011 12.252,11.037 12.349 C 11.144 12.748,11.430 12.961,11.896 12.991 C 12.381 13.022,12.699 12.882,12.880 12.558 C 12.978 12.383,12.980 12.364,12.980 11.500 C 12.980 10.667,12.975 10.611,12.891 10.453 C 12.842 10.362,12.746 10.247,12.678 10.199 C 12.414 10.010,11.957 9.950,11.614 10.057 " stroke="none" fill="black" fill-rule="evenodd"></path></svg>