<svg xmlns="http://www.w3.org/2000/svg" width="24" height="24" viewBox="0 0 24 24" fill="none" stroke="currentColor" stroke-width="2" stroke-linecap="round" stroke-linejoin="round" class="icon icon-tabler icons-tabler-outline icon-tabler-network"><path d="M11.480 2.022 C 11.425 2.032,11.218 2.059,11.020 2.083 C 8.295 2.412,5.904 4.553,5.223 7.275 C 5.064 7.908,5.023 8.264,5.023 9.000 C 5.023 9.736,5.064 10.092,5.223 10.725 C 5.837 13.181,7.823 15.166,10.275 15.777 C 10.487 15.830,10.737 15.885,10.830 15.900 L 11.000 15.927 11.000 16.536 L 11.000 17.145 10.670 17.313 C 10.091 17.607,9.597 18.102,9.312 18.670 L 9.147 19.000 5.980 19.000 C 2.594 19.000,2.601 19.000,2.322 19.199 C 2.100 19.357,2.020 19.568,2.020 20.000 C 2.020 20.331,2.033 20.403,2.120 20.558 C 2.230 20.755,2.414 20.898,2.635 20.959 C 2.727 20.985,3.954 21.000,5.963 21.000 L 9.147 21.000 9.312 21.330 C 9.682 22.069,10.355 22.635,11.160 22.886 C 11.594 23.021,12.406 23.021,12.840 22.886 C 13.645 22.635,14.318 22.069,14.688 21.330 L 14.853 21.000 18.037 21.000 C 20.046 21.000,21.273 20.985,21.365 20.959 C 21.586 20.898,21.770 20.755,21.880 20.558 C 21.967 20.402,21.980 20.332,21.979 20.000 C 21.978 19.567,21.898 19.355,21.678 19.199 C 21.399 19.000,21.406 19.000,18.020 19.000 L 14.853 19.000 14.688 18.670 C 14.403 18.102,13.909 17.607,13.330 17.313 L 13.000 17.145 13.000 16.536 L 13.000 15.927 13.170 15.900 C 13.727 15.812,14.555 15.542,15.090 15.274 C 16.724 14.457,17.965 13.070,18.573 11.380 C 18.876 10.538,18.977 9.944,18.977 9.000 C 18.977 8.056,18.876 7.462,18.573 6.620 C 17.715 4.235,15.605 2.491,13.100 2.095 C 12.739 2.038,11.668 1.990,11.480 2.022 M12.143 4.250 C 12.292 4.426,12.491 4.866,12.614 5.291 C 12.788 5.891,12.959 7.123,12.960 7.770 L 12.960 8.000 12.000 8.000 L 11.040 8.000 11.040 7.770 C 11.041 7.128,11.215 5.875,11.385 5.286 C 11.546 4.732,11.868 4.120,12.000 4.120 C 12.018 4.120,12.082 4.179,12.143 4.250 M9.344 5.206 C 9.200 5.849,9.128 6.363,9.077 7.100 C 9.053 7.452,9.025 7.799,9.015 7.870 L 8.996 8.000 8.054 8.000 L 7.111 8.000 7.139 7.850 C 7.272 7.121,7.826 6.127,8.453 5.489 C 8.722 5.215,9.392 4.698,9.429 4.736 C 9.438 4.745,9.400 4.957,9.344 5.206 M15.024 5.034 C 15.616 5.478,16.121 6.085,16.459 6.760 C 16.638 7.117,16.815 7.597,16.861 7.850 L 16.889 8.000 15.949 8.000 L 15.009 8.000 14.985 7.910 C 14.972 7.861,14.961 7.719,14.961 7.596 C 14.959 7.033,14.800 5.809,14.639 5.127 C 14.595 4.944,14.560 4.776,14.560 4.755 C 14.560 4.700,14.661 4.761,15.024 5.034 M9.015 10.130 C 9.025 10.201,9.053 10.548,9.077 10.900 C 9.128 11.637,9.200 12.151,9.344 12.794 C 9.400 13.043,9.438 13.255,9.429 13.265 C 9.391 13.303,8.889 12.927,8.562 12.616 C 7.882 11.968,7.281 10.927,7.139 10.150 L 7.111 10.000 8.054 10.000 L 8.996 10.000 9.015 10.130 M12.960 10.230 C 12.959 10.874,12.788 12.105,12.615 12.709 C 12.493 13.136,12.244 13.665,12.104 13.797 L 12.000 13.894 11.896 13.797 C 11.756 13.665,11.507 13.136,11.385 12.709 C 11.212 12.105,11.041 10.874,11.040 10.230 L 11.040 10.000 12.000 10.000 L 12.960 10.000 12.960 10.230 M16.861 10.150 C 16.772 10.637,16.406 11.421,16.010 11.970 C 15.742 12.343,15.204 12.867,14.841 13.110 C 14.701 13.204,14.580 13.273,14.571 13.264 C 14.562 13.255,14.600 13.043,14.655 12.794 C 14.818 12.063,14.957 10.984,14.960 10.420 C 14.960 10.288,14.972 10.139,14.985 10.090 L 15.009 10.000 15.949 10.000 L 16.889 10.000 16.861 10.150 M12.310 19.061 C 12.688 19.173,13.000 19.598,13.000 20.001 C 13.000 20.331,12.784 20.696,12.484 20.872 C 12.328 20.963,12.254 20.980,12.000 20.980 C 11.746 20.980,11.672 20.963,11.516 20.872 C 10.935 20.530,10.833 19.774,11.304 19.303 C 11.583 19.024,11.916 18.944,12.310 19.061 " stroke="none" fill="black" fill-rule="evenodd"></path></svg>