<svg xmlns="http://www.w3.org/2000/svg" width="24" height="24" viewBox="0 0 24 24" fill="none" stroke="currentColor" stroke-width="2" stroke-linecap="round" stroke-linejoin="round" class="icon icon-tabler icons-tabler-outline icon-tabler-olympics"><path d="M5.358 5.061 C 3.150 5.405,1.636 7.582,2.082 9.772 C 2.408 11.370,3.625 12.593,5.211 12.914 C 5.546 12.982,5.557 12.987,5.502 13.065 C 5.378 13.242,5.160 13.846,5.082 14.228 C 4.702 16.095,5.727 17.984,7.512 18.704 C 8.471 19.090,9.529 19.090,10.488 18.704 C 11.005 18.495,11.351 18.271,11.810 17.845 L 12.000 17.669 12.190 17.845 C 12.649 18.271,12.995 18.495,13.512 18.704 C 15.558 19.528,17.877 18.538,18.704 16.488 C 18.994 15.769,19.070 14.977,18.921 14.243 C 18.844 13.865,18.619 13.238,18.500 13.068 C 18.443 12.986,18.450 12.983,18.789 12.914 C 20.113 12.646,21.198 11.742,21.704 10.488 C 22.090 9.530,22.090 8.469,21.705 7.516 C 21.172 6.197,20.001 5.269,18.605 5.058 C 18.121 4.986,17.879 4.986,17.395 5.058 C 16.581 5.181,15.832 5.552,15.192 6.151 L 15.000 6.331 14.808 6.151 C 14.168 5.552,13.419 5.181,12.605 5.058 C 12.121 4.986,11.879 4.986,11.395 5.058 C 10.581 5.181,9.832 5.552,9.192 6.151 L 9.000 6.331 8.808 6.151 C 8.168 5.552,7.419 5.181,6.605 5.058 C 6.144 4.989,5.816 4.990,5.358 5.061 M6.523 7.073 C 7.262 7.266,7.850 7.924,7.967 8.690 C 8.067 9.343,7.873 9.933,7.403 10.404 C 7.002 10.807,6.547 11.000,6.000 11.000 C 5.485 11.000,5.038 10.822,4.653 10.465 C 3.323 9.229,4.189 7.005,6.000 7.005 C 6.143 7.005,6.378 7.036,6.523 7.073 M12.523 7.073 C 13.262 7.266,13.850 7.924,13.967 8.690 C 14.067 9.343,13.873 9.933,13.403 10.404 C 13.002 10.807,12.547 11.000,12.000 11.000 C 11.485 11.000,11.038 10.822,10.653 10.465 C 9.323 9.229,10.189 7.005,12.000 7.005 C 12.143 7.005,12.378 7.036,12.523 7.073 M18.523 7.073 C 19.262 7.266,19.850 7.924,19.967 8.690 C 20.067 9.343,19.873 9.933,19.403 10.404 C 19.002 10.807,18.547 11.000,18.000 11.000 C 17.485 11.000,17.038 10.822,16.653 10.465 C 15.323 9.229,16.189 7.005,18.000 7.005 C 18.143 7.005,18.378 7.036,18.523 7.073 M9.523 13.073 C 10.262 13.266,10.850 13.924,10.967 14.690 C 11.067 15.343,10.873 15.933,10.403 16.404 C 10.002 16.807,9.547 17.000,9.000 17.000 C 8.485 17.000,8.038 16.822,7.653 16.465 C 6.323 15.229,7.189 13.005,9.000 13.005 C 9.143 13.005,9.378 13.036,9.523 13.073 M15.523 13.073 C 16.262 13.266,16.850 13.924,16.967 14.690 C 17.067 15.343,16.873 15.933,16.403 16.404 C 16.002 16.807,15.547 17.000,15.000 17.000 C 14.485 17.000,14.038 16.822,13.653 16.465 C 12.323 15.229,13.189 13.005,15.000 13.005 C 15.143 13.005,15.378 13.036,15.523 13.073 " stroke="none" fill="black" fill-rule="evenodd"></path></svg>