<svg xmlns="http://www.w3.org/2000/svg" width="24" height="24" viewBox="0 0 24 24" fill="none" stroke="currentColor" stroke-width="2" stroke-linecap="round" stroke-linejoin="round" class="icon icon-tabler icons-tabler-outline icon-tabler-square-rotated-off"><path d="M2.626 2.045 C 2.420 2.154,2.146 2.433,2.038 2.644 C 1.924 2.868,1.924 3.133,2.040 3.363 C 2.100 3.483,2.684 4.097,3.873 5.290 L 5.618 7.040 4.215 8.450 C 3.443 9.225,2.736 9.958,2.643 10.078 C 2.204 10.643,1.962 11.454,2.012 12.192 C 2.063 12.940,2.327 13.572,2.820 14.131 C 2.980 14.312,4.657 16.002,6.546 17.886 C 10.095 21.426,10.201 21.524,10.740 21.749 C 11.164 21.927,11.437 21.976,12.000 21.977 C 12.443 21.978,12.597 21.961,12.857 21.887 C 13.217 21.784,13.659 21.573,13.898 21.390 C 13.987 21.321,14.713 20.617,15.510 19.824 L 16.960 18.382 18.710 20.127 C 19.903 21.316,20.517 21.900,20.637 21.960 C 20.989 22.137,21.354 22.048,21.701 21.701 C 22.047 21.355,22.136 20.990,21.961 20.637 C 21.839 20.392,3.616 2.165,3.372 2.044 C 3.152 1.934,2.834 1.935,2.626 2.045 M11.546 2.043 C 10.913 2.129,10.364 2.390,9.837 2.852 C 9.257 3.361,8.184 4.485,8.088 4.683 C 7.887 5.099,8.067 5.595,8.536 5.917 C 8.800 6.099,9.000 6.137,9.272 6.058 C 9.487 5.996,9.548 5.943,10.402 5.097 C 11.434 4.075,11.506 4.026,12.000 4.026 C 12.553 4.026,12.308 3.811,16.231 7.732 C 20.192 11.688,19.982 11.449,19.977 12.020 C 19.975 12.269,19.954 12.380,19.883 12.520 C 19.826 12.633,19.476 13.019,18.940 13.560 C 18.435 14.070,18.055 14.488,18.004 14.588 C 17.830 14.937,17.921 15.315,18.263 15.657 C 18.602 15.996,18.953 16.083,19.317 15.918 C 19.509 15.831,20.908 14.477,21.299 14.000 C 22.096 13.028,22.216 11.660,21.608 10.460 C 21.477 10.201,21.183 9.896,17.743 6.447 C 15.628 4.326,13.919 2.644,13.787 2.553 C 13.179 2.135,12.314 1.938,11.546 2.043 M11.300 12.720 L 15.540 16.960 14.120 18.381 C 13.157 19.344,12.644 19.829,12.527 19.886 C 12.286 20.003,11.912 20.026,11.617 19.942 L 11.380 19.874 7.809 16.307 C 3.823 12.326,4.020 12.550,4.023 12.000 C 4.025 11.480,4.027 11.477,5.611 9.890 C 6.385 9.115,7.028 8.480,7.039 8.480 C 7.051 8.480,8.968 10.388,11.300 12.720 " stroke="none" fill="black" fill-rule="evenodd"></path></svg>