<svg xmlns="http://www.w3.org/2000/svg" width="24" height="24" viewBox="0 0 24 24" fill="none" stroke="currentColor" stroke-width="2" stroke-linecap="round" stroke-linejoin="round" class="icon icon-tabler icons-tabler-outline icon-tabler-number-7-small"><path d="M9.614 7.057 C 9.377 7.131,9.212 7.261,9.109 7.453 C 9.035 7.592,9.020 7.684,9.020 8.000 C 9.020 8.331,9.033 8.403,9.120 8.558 C 9.230 8.755,9.414 8.898,9.635 8.959 C 9.720 8.983,10.390 9.000,11.253 9.000 C 12.637 9.000,12.724 9.004,12.704 9.070 C 12.693 9.109,12.304 10.658,11.841 12.514 C 11.256 14.853,10.997 15.959,10.995 16.120 C 10.989 16.528,11.205 16.789,11.672 16.940 C 12.263 17.130,12.720 16.939,12.913 16.420 C 12.938 16.354,13.419 14.455,13.983 12.200 C 14.925 8.429,15.006 8.080,14.985 7.852 C 14.946 7.413,14.761 7.173,14.371 7.055 C 14.112 6.977,9.864 6.979,9.614 7.057 " stroke="none" fill="black" fill-rule="evenodd"></path></svg>