<svg xmlns="http://www.w3.org/2000/svg" width="24" height="24" viewBox="0 0 24 24" fill="none" stroke="currentColor" stroke-width="2" stroke-linecap="round" stroke-linejoin="round" class="icon icon-tabler icons-tabler-outline icon-tabler-activity-heartbeat"><path d="M8.491 5.081 C 8.159 5.250,8.154 5.264,7.443 8.109 C 7.087 9.534,6.778 10.768,6.757 10.850 L 6.717 11.000 4.765 11.000 C 2.684 11.000,2.590 11.008,2.322 11.199 C 2.100 11.357,2.020 11.568,2.020 12.000 C 2.020 12.331,2.033 12.403,2.120 12.558 C 2.230 12.755,2.414 12.898,2.635 12.959 C 2.841 13.017,7.589 13.014,7.817 12.956 C 8.032 12.902,8.258 12.721,8.360 12.520 C 8.403 12.436,8.595 11.741,8.786 10.975 L 9.134 9.583 10.601 13.981 C 11.407 16.401,12.105 18.454,12.151 18.544 C 12.321 18.874,12.679 19.077,12.996 19.021 C 13.447 18.942,13.734 18.761,13.877 18.466 C 13.925 18.367,14.253 16.976,14.640 15.236 C 15.013 13.555,15.329 12.135,15.343 12.080 C 15.365 11.989,15.378 12.002,15.488 12.220 C 15.677 12.598,15.801 12.757,15.997 12.873 L 16.180 12.980 18.691 12.991 C 20.319 12.998,21.257 12.988,21.355 12.961 C 21.584 12.900,21.768 12.758,21.880 12.558 C 21.967 12.402,21.980 12.332,21.979 12.000 C 21.978 11.567,21.898 11.355,21.678 11.199 C 21.409 11.007,21.322 11.000,19.154 11.000 L 17.120 11.000 16.475 9.710 C 15.776 8.310,15.689 8.185,15.336 8.065 C 15.052 7.968,14.691 7.980,14.476 8.093 C 14.133 8.274,14.141 8.249,13.444 11.383 C 13.098 12.941,12.804 14.198,12.793 14.178 C 12.781 14.157,12.127 12.208,11.341 9.847 C 9.781 5.164,9.842 5.318,9.461 5.122 C 9.182 4.979,8.731 4.960,8.491 5.081 " stroke="none" fill="black" fill-rule="evenodd"></path></svg>