<svg xmlns="http://www.w3.org/2000/svg" width="24" height="24" viewBox="0 0 24 24" fill="none" stroke="currentColor" stroke-width="2" stroke-linecap="round" stroke-linejoin="round" class="icon icon-tabler icons-tabler-outline icon-tabler-usb"><path d="M11.582 2.089 C 11.363 2.209,11.254 2.333,10.227 3.617 C 9.613 4.385,9.076 5.087,9.036 5.177 C 8.944 5.378,8.939 5.684,9.024 5.862 C 9.106 6.035,9.440 6.347,9.631 6.429 C 9.738 6.475,9.951 6.499,10.390 6.512 L 11.000 6.530 11.000 10.369 C 11.000 13.880,10.994 14.206,10.936 14.184 C 10.900 14.170,10.225 13.771,9.436 13.297 L 8.000 12.436 8.000 11.588 L 8.001 10.740 8.142 10.644 C 8.347 10.504,8.669 10.139,8.779 9.922 C 8.993 9.499,9.051 9.001,8.940 8.529 C 8.858 8.182,8.720 7.927,8.465 7.653 C 7.659 6.786,6.341 6.786,5.535 7.653 C 4.824 8.419,4.816 9.562,5.516 10.328 C 5.626 10.449,5.779 10.590,5.856 10.643 L 5.996 10.739 6.008 12.019 L 6.020 13.300 6.129 13.486 C 6.190 13.589,6.325 13.734,6.429 13.810 C 6.534 13.886,7.516 14.484,8.610 15.140 L 10.600 16.332 10.391 16.470 C 9.772 16.877,9.332 17.460,9.114 18.160 C 8.979 18.594,8.979 19.406,9.114 19.840 C 9.421 20.826,10.174 21.579,11.160 21.886 C 11.412 21.964,11.547 21.979,12.000 21.979 C 12.453 21.979,12.588 21.964,12.840 21.886 C 13.826 21.579,14.579 20.826,14.886 19.840 C 15.021 19.406,15.021 18.594,14.886 18.160 C 14.638 17.364,14.081 16.698,13.348 16.321 L 13.036 16.161 13.015 15.670 L 12.995 15.178 15.267 14.268 C 16.517 13.767,17.590 13.320,17.650 13.275 C 17.711 13.230,17.810 13.109,17.870 13.006 C 17.980 12.820,17.980 12.819,17.993 11.915 L 18.005 11.011 18.200 10.987 C 18.538 10.947,18.753 10.805,18.905 10.520 C 18.974 10.391,18.980 10.272,18.980 9.000 C 18.980 7.650,18.978 7.616,18.891 7.453 C 18.785 7.256,18.622 7.131,18.371 7.055 C 18.108 6.976,15.892 6.976,15.629 7.055 C 15.378 7.131,15.215 7.256,15.109 7.453 C 15.023 7.614,15.020 7.665,15.008 8.908 C 15.000 9.720,15.011 10.254,15.038 10.352 C 15.134 10.709,15.412 10.941,15.797 10.987 L 16.000 11.011 16.000 11.418 L 16.000 11.825 14.530 12.412 C 13.721 12.736,13.046 13.000,13.030 13.000 C 13.013 13.000,13.000 11.544,13.000 9.765 L 13.000 6.530 13.650 6.511 C 14.370 6.490,14.521 6.451,14.752 6.229 C 14.990 5.998,15.070 5.444,14.914 5.100 C 14.813 4.875,12.651 2.208,12.476 2.093 C 12.351 2.010,12.252 1.980,12.065 1.970 C 11.850 1.959,11.791 1.974,11.582 2.089 M12.310 18.061 C 12.688 18.173,13.000 18.598,13.000 19.001 C 13.000 19.331,12.784 19.696,12.484 19.872 C 12.328 19.963,12.254 19.980,12.000 19.980 C 11.746 19.980,11.672 19.963,11.516 19.872 C 10.935 19.530,10.833 18.774,11.304 18.303 C 11.583 18.024,11.916 17.944,12.310 18.061 " stroke="none" fill="black" fill-rule="evenodd"></path></svg>