<svg xmlns="http://www.w3.org/2000/svg" width="24" height="24" viewBox="0 0 24 24" fill="none" stroke="currentColor" stroke-width="2" stroke-linecap="round" stroke-linejoin="round" class="icon icon-tabler icons-tabler-outline icon-tabler-home-hand"><path d="M11.620 2.046 C 11.382 2.168,2.155 11.405,2.039 11.637 C 1.830 12.056,2.036 12.589,2.514 12.871 C 2.693 12.976,2.726 12.981,3.348 12.993 L 3.997 13.007 4.009 16.293 L 4.021 19.580 4.114 19.860 C 4.442 20.839,5.164 21.562,6.140 21.885 C 6.416 21.976,6.450 21.978,8.520 21.992 C 10.838 22.008,10.947 21.999,11.189 21.787 C 11.402 21.600,11.486 21.376,11.486 21.000 C 11.486 20.296,11.152 20.000,10.359 20.000 L 10.000 20.000 10.000 17.447 C 10.000 14.538,9.993 14.614,10.303 14.303 C 10.588 14.018,10.692 14.000,12.057 14.000 C 12.713 14.000,13.283 13.982,13.365 13.959 C 13.586 13.898,13.770 13.755,13.880 13.558 C 13.967 13.402,13.980 13.332,13.979 13.000 C 13.978 12.552,13.893 12.342,13.649 12.182 C 13.381 12.007,13.224 11.992,11.796 12.009 C 10.512 12.024,10.447 12.029,10.139 12.124 C 9.186 12.417,8.442 13.159,8.115 14.140 L 8.021 14.420 8.009 17.213 L 7.996 20.007 7.348 19.993 C 6.728 19.981,6.692 19.975,6.516 19.872 C 6.328 19.761,6.158 19.572,6.070 19.373 C 6.032 19.286,6.015 18.375,6.000 15.440 L 5.980 11.620 5.890 11.451 C 5.803 11.289,5.556 11.080,5.451 11.080 C 5.423 11.080,5.400 11.066,5.400 11.050 C 5.400 11.033,6.885 9.535,8.700 7.720 L 11.999 4.421 14.730 7.146 C 16.644 9.058,17.513 9.898,17.637 9.961 C 17.990 10.137,18.354 10.048,18.701 9.701 C 19.047 9.355,19.137 8.990,18.961 8.637 C 18.840 8.394,12.614 2.164,12.372 2.044 C 12.151 1.934,11.836 1.935,11.620 2.046 M17.100 11.025 C 16.213 11.163,15.423 11.798,15.126 12.611 C 15.020 12.899,15.020 12.906,15.008 14.245 L 14.995 15.589 14.548 15.570 C 13.749 15.537,13.221 15.737,12.669 16.284 C 12.429 16.522,12.328 16.658,12.224 16.886 C 11.922 17.545,11.925 18.195,12.233 18.800 C 12.405 19.137,14.177 21.587,14.454 21.871 C 14.968 22.397,15.800 22.831,16.540 22.958 C 16.741 22.993,17.348 23.003,18.680 22.993 L 20.540 22.978 20.860 22.870 C 21.679 22.593,22.249 21.960,22.494 21.057 C 22.938 19.414,23.089 18.186,22.936 17.448 C 22.700 16.299,21.643 15.320,20.353 15.055 L 20.006 14.983 19.992 13.942 C 19.979 12.934,19.976 12.891,19.874 12.611 C 19.619 11.911,18.988 11.328,18.240 11.103 C 18.021 11.037,17.329 10.990,17.100 11.025 M17.736 13.056 C 18.004 13.168,18.000 13.139,18.000 14.759 C 18.000 15.614,18.017 16.280,18.041 16.365 C 18.102 16.587,18.245 16.770,18.442 16.880 C 18.609 16.973,18.666 16.981,19.340 17.000 C 20.016 17.019,20.074 17.027,20.289 17.128 C 20.595 17.271,20.900 17.578,20.962 17.805 C 21.048 18.119,20.949 18.888,20.658 20.158 C 20.545 20.654,20.495 20.777,20.360 20.900 C 20.274 20.977,20.215 20.980,18.506 20.980 L 16.740 20.980 16.460 20.848 C 16.306 20.775,16.112 20.669,16.030 20.612 C 15.929 20.543,15.563 20.067,14.936 19.192 C 13.915 17.768,13.906 17.751,14.159 17.621 C 14.223 17.587,14.348 17.560,14.435 17.560 C 14.617 17.560,14.700 17.618,15.160 18.065 C 15.515 18.410,15.683 18.491,16.042 18.489 C 16.349 18.488,16.566 18.408,16.751 18.229 C 16.996 17.992,17.000 17.946,17.000 15.502 C 17.000 13.066,16.989 13.173,17.255 13.057 C 17.417 12.987,17.570 12.986,17.736 13.056 " stroke="none" fill="black" fill-rule="evenodd"></path></svg>