<svg xmlns="http://www.w3.org/2000/svg" width="24" height="24" viewBox="0 0 24 24" fill="none" stroke="currentColor" stroke-width="2" stroke-linecap="round" stroke-linejoin="round" class="icon icon-tabler icons-tabler-outline icon-tabler-tools-kitchen"><path d="M19.652 2.038 C 19.456 2.127,18.976 2.576,18.330 3.276 C 15.155 6.715,13.928 9.917,14.006 14.563 L 14.020 15.386 14.142 15.583 C 14.219 15.709,14.328 15.816,14.442 15.880 L 14.620 15.980 16.810 15.992 L 19.000 16.003 19.000 16.492 L 19.000 16.982 18.756 17.028 C 18.450 17.086,18.228 17.232,18.111 17.450 C 18.021 17.618,18.020 17.636,18.008 19.410 C 18.001 20.557,18.012 21.255,18.038 21.354 C 18.100 21.583,18.242 21.768,18.442 21.880 C 18.612 21.976,18.654 21.981,19.405 21.993 C 19.880 22.001,20.252 21.989,20.349 21.963 C 20.583 21.900,20.767 21.760,20.880 21.558 L 20.980 21.380 20.990 12.126 C 20.998 5.826,20.988 2.822,20.959 2.718 C 20.856 2.333,20.392 1.959,20.022 1.961 C 19.911 1.961,19.745 1.996,19.652 2.038 M3.709 2.044 C 3.240 2.154,3.000 2.449,3.000 2.916 C 3.000 3.247,4.001 12.134,4.063 12.352 C 4.099 12.478,4.181 12.627,4.266 12.721 C 4.496 12.977,4.635 13.000,5.907 13.000 L 7.000 13.000 7.000 14.991 L 7.000 16.982 6.756 17.028 C 6.450 17.086,6.228 17.232,6.111 17.450 C 6.021 17.618,6.020 17.636,6.008 19.410 C 6.001 20.557,6.012 21.255,6.038 21.354 C 6.100 21.583,6.242 21.768,6.442 21.880 L 6.620 21.980 7.908 21.992 C 8.720 22.000,9.254 21.989,9.352 21.962 C 9.583 21.900,9.768 21.759,9.880 21.558 L 9.980 21.380 9.980 19.500 C 9.980 17.622,9.980 17.620,9.889 17.450 C 9.772 17.232,9.550 17.086,9.244 17.028 L 9.000 16.982 9.000 14.991 L 9.000 13.000 10.093 13.000 C 11.365 13.000,11.504 12.977,11.734 12.721 C 11.819 12.627,11.901 12.478,11.937 12.352 C 12.032 12.019,13.012 3.107,12.984 2.830 C 12.956 2.549,12.843 2.316,12.678 2.199 C 12.393 1.996,12.485 2.000,8.024 2.004 C 5.734 2.006,3.792 2.024,3.709 2.044 M10.870 4.110 C 10.859 4.171,10.681 5.745,10.475 7.610 L 10.101 11.000 8.000 11.000 L 5.899 11.000 5.525 7.610 C 5.319 5.745,5.141 4.171,5.130 4.110 L 5.110 4.000 8.000 4.000 L 10.890 4.000 10.870 4.110 M19.000 9.780 L 19.000 14.000 17.500 14.000 L 16.000 14.000 16.001 13.910 C 16.001 13.861,16.019 13.496,16.041 13.100 C 16.178 10.607,16.724 8.874,17.987 6.928 C 18.301 6.444,18.949 5.560,18.990 5.560 C 18.995 5.560,19.000 7.459,19.000 9.780 " stroke="none" fill="black" fill-rule="evenodd"></path></svg>