<svg xmlns="http://www.w3.org/2000/svg" width="24" height="24" viewBox="0 0 24 24" fill="none" stroke="currentColor" stroke-width="2" stroke-linecap="round" stroke-linejoin="round" class="icon icon-tabler icons-tabler-outline icon-tabler-escalator-down"><path d="M17.614 2.057 C 17.377 2.131,17.212 2.261,17.109 2.453 C 17.020 2.620,17.020 2.623,17.009 5.096 L 16.998 7.573 16.269 6.852 C 15.856 6.443,15.467 6.094,15.372 6.045 C 15.021 5.868,14.640 5.958,14.299 6.299 C 13.952 6.646,13.863 7.011,14.040 7.363 C 14.099 7.480,14.635 8.051,15.635 9.062 C 16.463 9.899,17.174 10.634,17.216 10.697 C 17.318 10.850,17.762 11.049,18.000 11.049 C 18.238 11.049,18.682 10.850,18.784 10.697 C 18.826 10.634,19.537 9.899,20.365 9.062 C 21.365 8.051,21.901 7.480,21.960 7.363 C 22.137 7.011,22.048 6.646,21.701 6.299 C 21.360 5.958,20.979 5.868,20.628 6.045 C 20.533 6.094,20.144 6.443,19.731 6.852 L 19.003 7.572 18.991 5.096 C 18.980 2.623,18.980 2.620,18.891 2.453 C 18.842 2.362,18.746 2.247,18.678 2.199 C 18.414 2.010,17.957 1.950,17.614 2.057 M3.873 6.061 C 3.142 6.197,2.469 6.563,1.958 7.105 C 1.559 7.527,1.314 7.957,1.133 8.548 C 1.038 8.863,1.026 8.963,1.026 9.500 C 1.026 10.037,1.038 10.137,1.133 10.452 C 1.501 11.657,2.347 12.503,3.548 12.866 C 3.870 12.963,3.974 12.973,4.764 12.990 L 5.627 13.009 10.204 17.130 C 12.721 19.396,14.897 21.338,15.040 21.445 C 15.354 21.679,15.782 21.865,16.187 21.943 C 16.550 22.012,19.623 22.025,20.031 21.959 C 20.786 21.836,21.404 21.516,21.960 20.960 C 22.516 20.404,22.836 19.786,22.959 19.031 C 23.200 17.545,22.397 16.026,21.018 15.357 C 20.459 15.086,20.177 15.032,19.216 15.010 L 18.373 14.991 13.796 10.870 C 11.279 8.604,9.116 6.672,8.989 6.577 C 8.721 6.378,8.353 6.195,8.016 6.096 C 7.810 6.035,7.553 6.025,5.980 6.015 C 4.560 6.007,4.115 6.017,3.873 6.061 M7.626 8.096 C 7.779 8.168,9.046 9.285,12.633 12.514 C 15.274 14.891,17.495 16.868,17.568 16.907 C 17.682 16.969,17.844 16.982,18.780 17.000 C 19.856 17.022,19.861 17.022,20.100 17.133 C 20.417 17.279,20.725 17.587,20.865 17.896 C 20.960 18.105,20.976 18.192,20.976 18.500 C 20.976 18.808,20.960 18.895,20.865 19.104 C 20.725 19.413,20.417 19.720,20.100 19.868 L 19.860 19.980 18.245 19.992 C 16.848 20.002,16.605 19.995,16.437 19.939 C 16.271 19.884,15.611 19.305,11.772 15.850 C 6.312 10.937,6.574 11.170,6.424 11.088 C 6.319 11.031,6.133 11.017,5.220 11.000 C 4.140 10.980,4.140 10.980,3.900 10.868 C 3.583 10.720,3.275 10.413,3.135 10.104 C 3.040 9.896,3.024 9.808,3.024 9.500 C 3.023 9.191,3.039 9.106,3.134 8.900 C 3.328 8.477,3.755 8.124,4.174 8.042 C 4.265 8.024,5.033 8.007,5.880 8.005 L 7.420 8.001 7.626 8.096 " stroke="none" fill="black" fill-rule="evenodd"></path></svg>