<svg xmlns="http://www.w3.org/2000/svg" width="24" height="24" viewBox="0 0 24 24" fill="none" stroke="currentColor" stroke-width="2" stroke-linecap="round" stroke-linejoin="round" class="icon icon-tabler icons-tabler-outline icon-tabler-math-function-off"><path d="M2.626 2.045 C 2.420 2.154,2.146 2.433,2.038 2.644 C 1.924 2.867,1.924 3.132,2.039 3.363 C 2.102 3.487,2.940 4.353,4.845 6.262 L 7.562 8.983 7.369 9.982 L 7.177 10.980 5.917 11.000 C 4.663 11.020,4.657 11.020,4.459 11.122 C 4.119 11.297,3.978 11.606,4.009 12.104 C 4.038 12.563,4.250 12.852,4.635 12.959 C 4.715 12.981,5.225 13.000,5.770 13.000 C 6.649 13.000,6.760 13.007,6.760 13.064 C 6.760 13.154,6.221 15.935,6.057 16.693 C 5.736 18.172,5.424 19.198,5.146 19.686 L 4.979 19.980 4.676 19.976 C 4.333 19.971,4.163 19.907,4.091 19.755 C 4.063 19.697,4.024 19.416,4.004 19.130 C 3.963 18.550,3.893 18.352,3.678 18.199 C 3.315 17.940,2.685 17.940,2.322 18.199 C 2.036 18.402,1.943 18.869,2.039 19.628 C 2.189 20.823,2.727 21.528,3.721 21.832 C 4.086 21.944,4.707 22.015,5.094 21.990 C 6.137 21.922,6.831 21.159,7.399 19.453 C 7.735 18.446,7.963 17.457,8.493 14.720 L 8.822 13.020 10.101 12.999 C 10.805 12.988,11.407 12.965,11.440 12.949 C 11.484 12.927,11.843 13.263,12.780 14.201 L 14.060 15.483 13.920 15.600 C 13.649 15.825,13.310 15.967,12.956 16.003 C 12.251 16.074,11.965 16.406,12.009 17.104 C 12.057 17.849,12.581 18.137,13.534 17.940 C 14.087 17.826,14.598 17.579,15.164 17.152 L 15.487 16.909 17.974 19.390 C 19.709 21.122,20.514 21.899,20.637 21.960 C 20.990 22.137,21.354 22.048,21.701 21.701 C 22.048 21.355,22.137 20.990,21.961 20.637 C 21.897 20.510,20.115 18.698,15.650 14.220 C 12.227 10.788,9.416 7.969,9.404 7.956 C 9.391 7.943,8.066 6.626,6.460 5.030 C 4.519 3.102,3.484 2.100,3.372 2.044 C 3.152 1.934,2.835 1.935,2.626 2.045 M10.510 2.072 C 10.009 2.208,9.528 2.617,9.166 3.215 C 8.849 3.739,8.410 4.960,8.372 5.422 C 8.354 5.656,8.363 5.730,8.431 5.862 C 8.536 6.066,8.657 6.176,8.889 6.279 C 9.472 6.537,9.982 6.427,10.202 5.995 C 10.247 5.908,10.364 5.586,10.462 5.282 C 10.641 4.728,10.908 4.133,11.020 4.040 C 11.092 3.981,11.611 4.018,11.763 4.094 C 11.915 4.170,11.959 4.315,11.995 4.872 C 12.023 5.304,12.045 5.420,12.124 5.564 C 12.286 5.856,12.575 6.000,13.000 6.000 C 13.817 6.000,14.105 5.514,13.961 4.375 C 13.766 2.825,12.922 2.089,11.260 2.019 C 10.873 2.003,10.728 2.013,10.510 2.072 M13.614 9.055 C 13.375 9.133,13.211 9.262,13.109 9.453 C 13.035 9.592,13.020 9.684,13.020 10.000 C 13.020 10.331,13.033 10.403,13.120 10.558 C 13.230 10.755,13.414 10.898,13.635 10.959 C 13.715 10.981,14.052 11.000,14.384 11.000 L 14.988 11.000 15.094 11.250 C 15.152 11.388,15.342 11.893,15.517 12.373 C 15.833 13.240,15.948 13.461,16.153 13.589 C 16.212 13.626,16.339 13.735,16.437 13.831 C 16.760 14.151,17.193 14.301,17.498 14.201 C 17.717 14.128,17.887 13.960,18.240 13.464 C 19.122 12.229,19.869 11.461,20.502 11.141 C 20.644 11.069,20.815 11.025,21.051 11.001 C 21.530 10.951,21.735 10.840,21.893 10.540 C 22.018 10.303,22.016 9.691,21.888 9.450 C 21.664 9.026,21.112 8.907,20.281 9.102 C 19.487 9.289,18.491 9.999,17.644 10.980 L 17.288 11.392 17.199 11.146 C 16.755 9.912,16.359 9.378,15.693 9.117 C 15.481 9.034,15.384 9.024,14.620 9.013 C 13.996 9.004,13.737 9.015,13.614 9.055 M9.440 10.860 L 9.576 11.000 9.392 11.000 C 9.198 11.000,9.194 10.994,9.262 10.770 C 9.283 10.701,9.288 10.703,9.440 10.860 " stroke="none" fill="black" fill-rule="evenodd"></path></svg>