<svg xmlns="http://www.w3.org/2000/svg" width="24" height="24" viewBox="0 0 24 24" fill="none" stroke="currentColor" stroke-width="2" stroke-linecap="round" stroke-linejoin="round" class="icon icon-tabler icons-tabler-outline icon-tabler-pin"><path d="M14.171 3.019 C 13.968 3.108,13.637 3.440,13.535 3.660 C 13.420 3.905,13.417 4.085,13.523 4.318 L 13.603 4.496 12.034 6.066 L 10.465 7.636 8.622 8.324 C 7.609 8.702,6.679 9.065,6.555 9.129 C 6.387 9.216,6.113 9.464,5.467 10.115 C 4.559 11.029,4.442 11.187,4.442 11.500 C 4.442 11.838,4.528 11.943,6.091 13.510 L 7.578 15.000 5.591 16.990 C 4.089 18.495,3.585 19.024,3.523 19.160 C 3.361 19.519,3.449 19.853,3.798 20.202 C 4.149 20.553,4.483 20.641,4.837 20.474 C 4.973 20.410,5.533 19.877,7.010 18.405 L 9.000 16.422 10.490 17.909 C 12.054 19.469,12.161 19.557,12.497 19.559 C 12.794 19.561,12.981 19.425,13.815 18.603 C 14.252 18.172,14.675 17.738,14.755 17.639 C 14.871 17.493,15.045 17.069,15.635 15.493 L 16.371 13.529 17.937 11.963 L 19.504 10.397 19.682 10.477 C 19.915 10.583,20.095 10.580,20.340 10.465 C 20.569 10.358,20.896 10.027,20.986 9.812 C 21.070 9.610,21.062 9.350,20.964 9.150 C 20.857 8.928,15.120 3.181,14.875 3.050 C 14.680 2.945,14.372 2.932,14.171 3.019 M16.560 7.460 L 18.099 9.000 16.356 10.750 L 14.612 12.500 13.882 14.460 L 13.152 16.420 12.826 16.750 L 12.500 17.080 9.709 14.289 L 6.919 11.499 7.250 11.174 L 7.580 10.849 9.540 10.118 L 11.500 9.388 13.240 7.654 C 14.197 6.701,14.989 5.920,15.000 5.920 C 15.011 5.920,15.713 6.613,16.560 7.460 " stroke="none" fill="black" fill-rule="evenodd"></path></svg>