<svg xmlns="http://www.w3.org/2000/svg" width="24" height="24" viewBox="0 0 24 24" fill="none" stroke="currentColor" stroke-width="2" stroke-linecap="round" stroke-linejoin="round" class="icon icon-tabler icons-tabler-outline icon-tabler-cube-plus"><path d="M11.541 1.042 C 11.239 1.089,10.964 1.179,10.660 1.331 C 10.282 1.519,3.737 5.267,3.380 5.499 C 3.089 5.689,2.726 6.022,2.528 6.280 C 2.354 6.507,2.128 7.063,2.044 7.472 C 1.982 7.769,1.983 16.232,2.044 16.528 C 2.204 17.302,2.670 18.034,3.260 18.439 C 3.348 18.500,5.049 19.483,7.040 20.624 C 11.262 23.044,11.123 22.978,12.000 22.977 C 12.508 22.977,12.563 22.969,12.933 22.842 C 13.405 22.681,13.757 22.463,13.904 22.241 C 14.117 21.919,14.064 21.492,13.761 21.091 C 13.579 20.850,13.409 20.736,13.181 20.702 L 13.000 20.675 13.000 16.627 L 13.000 12.579 16.463 10.579 C 18.367 9.480,19.942 8.574,19.963 8.567 C 19.985 8.559,20.000 9.369,20.000 10.629 C 20.000 12.934,20.006 12.994,20.249 13.229 C 20.442 13.416,20.647 13.487,21.000 13.488 C 21.530 13.491,21.866 13.261,21.959 12.833 C 21.993 12.680,22.002 11.889,21.993 10.040 L 21.980 7.460 21.865 7.120 C 21.742 6.753,21.595 6.440,21.472 6.280 C 21.306 6.064,20.929 5.703,20.720 5.561 C 20.399 5.342,13.677 1.496,13.300 1.315 C 13.124 1.231,12.873 1.135,12.743 1.101 C 12.438 1.023,11.847 0.994,11.541 1.042 M12.259 3.045 C 12.422 3.090,18.921 6.789,18.919 6.835 C 18.918 6.849,17.361 7.757,15.459 8.854 L 12.000 10.847 8.541 8.854 C 6.639 7.757,5.082 6.848,5.081 6.834 C 5.079 6.792,11.572 3.090,11.724 3.046 C 11.910 2.993,12.071 2.992,12.259 3.045 M7.537 10.579 L 11.000 12.579 11.000 16.574 C 11.000 19.754,10.990 20.565,10.950 20.549 C 10.724 20.459,4.426 16.811,4.311 16.703 C 4.000 16.411,4.021 16.721,4.009 12.406 C 4.002 9.977,4.012 8.558,4.036 8.566 C 4.057 8.574,5.633 9.480,7.537 10.579 M18.614 15.057 C 18.377 15.131,18.212 15.261,18.109 15.453 C 18.024 15.613,18.020 15.668,18.008 16.810 L 17.996 18.000 16.904 18.000 C 15.744 18.000,15.570 18.022,15.322 18.199 C 15.100 18.357,15.020 18.568,15.020 19.000 C 15.020 19.331,15.033 19.403,15.120 19.558 C 15.230 19.755,15.414 19.898,15.635 19.959 C 15.716 19.982,16.270 20.000,16.890 20.000 L 18.000 20.000 18.000 21.110 C 18.000 21.730,18.018 22.284,18.041 22.365 C 18.148 22.750,18.437 22.962,18.896 22.991 C 19.381 23.022,19.699 22.882,19.880 22.558 C 19.979 22.381,19.980 22.374,19.993 21.190 L 20.005 20.000 21.113 20.000 C 21.731 20.000,22.284 19.982,22.365 19.959 C 22.586 19.898,22.770 19.755,22.880 19.558 C 22.967 19.402,22.980 19.332,22.979 19.000 C 22.978 18.567,22.898 18.355,22.678 18.199 C 22.430 18.022,22.256 18.000,21.096 18.000 L 20.005 18.000 19.993 16.810 C 19.981 15.669,19.976 15.613,19.891 15.453 C 19.842 15.362,19.746 15.247,19.678 15.199 C 19.414 15.010,18.957 14.950,18.614 15.057 " stroke="none" fill="black" fill-rule="evenodd"></path></svg>