<svg xmlns="http://www.w3.org/2000/svg" width="24" height="24" viewBox="0 0 24 24" fill="none" stroke="currentColor" stroke-width="2" stroke-linecap="round" stroke-linejoin="round" class="icon icon-tabler icons-tabler-outline icon-tabler-eye-cog"><path d="M11.160 5.043 C 7.815 5.297,4.962 7.199,2.619 10.738 C 2.100 11.523,2.001 11.724,2.001 12.000 C 2.001 12.276,2.100 12.477,2.619 13.262 C 4.585 16.232,6.875 18.026,9.559 18.699 C 10.556 18.949,11.940 19.077,12.365 18.959 C 12.586 18.898,12.770 18.755,12.880 18.558 C 12.967 18.402,12.980 18.332,12.979 18.000 C 12.978 17.687,12.962 17.591,12.890 17.453 C 12.725 17.141,12.406 17.000,11.864 17.000 C 11.490 17.000,10.959 16.943,10.500 16.854 C 8.266 16.423,6.309 15.017,4.605 12.620 C 4.198 12.048,4.185 12.023,4.244 11.910 C 4.320 11.765,4.894 10.970,5.188 10.600 C 5.576 10.114,6.435 9.243,6.885 8.881 C 7.448 8.426,8.021 8.063,8.615 7.781 C 9.786 7.225,10.690 7.023,12.000 7.023 C 13.310 7.023,14.214 7.225,15.385 7.781 C 16.266 8.199,17.005 8.725,17.794 9.496 C 18.638 10.321,19.288 11.149,20.058 12.380 C 20.374 12.885,20.632 13.063,21.001 13.029 C 21.125 13.018,21.304 12.969,21.399 12.921 C 21.642 12.797,21.948 12.498,22.003 12.332 C 22.069 12.132,22.030 11.843,21.904 11.584 C 21.766 11.302,20.984 10.129,20.621 9.658 C 19.253 7.887,17.603 6.528,15.960 5.818 C 14.465 5.172,12.866 4.914,11.160 5.043 M11.499 9.040 C 10.363 9.246,9.460 10.049,9.114 11.160 C 8.979 11.594,8.979 12.406,9.114 12.840 C 9.421 13.826,10.174 14.579,11.160 14.886 C 11.594 15.021,12.406 15.021,12.840 14.886 C 13.826 14.579,14.579 13.826,14.886 12.840 C 15.021 12.406,15.021 11.594,14.886 11.160 C 14.581 10.179,13.810 9.407,12.861 9.129 C 12.500 9.023,11.832 8.980,11.499 9.040 M12.310 11.061 C 12.688 11.173,13.000 11.598,13.000 12.001 C 13.000 12.331,12.784 12.696,12.484 12.872 C 12.328 12.963,12.254 12.980,12.000 12.980 C 11.746 12.980,11.672 12.963,11.516 12.872 C 10.935 12.530,10.833 11.774,11.304 11.303 C 11.583 11.024,11.916 10.944,12.310 11.061 M18.545 14.579 C 18.320 14.659,18.128 14.863,18.059 15.096 C 18.023 15.217,18.000 15.462,18.000 15.721 L 18.000 16.148 17.708 16.292 C 17.548 16.371,17.333 16.500,17.232 16.577 L 17.047 16.718 16.654 16.495 C 16.190 16.232,15.942 16.167,15.680 16.239 C 15.342 16.331,14.969 16.847,14.930 17.278 C 14.897 17.640,15.080 17.876,15.667 18.228 L 16.014 18.437 16.017 19.002 L 16.020 19.567 15.660 19.780 C 15.272 20.009,15.043 20.223,14.961 20.431 C 14.799 20.844,15.227 21.638,15.680 21.761 C 15.944 21.833,16.212 21.764,16.668 21.505 L 17.053 21.286 17.234 21.425 C 17.335 21.501,17.548 21.629,17.708 21.708 L 18.000 21.852 18.000 22.279 C 18.000 22.963,18.137 23.255,18.537 23.422 C 18.750 23.510,19.249 23.511,19.460 23.423 C 19.864 23.254,20.000 22.965,20.000 22.277 L 20.000 21.848 20.269 21.721 C 20.418 21.652,20.632 21.525,20.746 21.439 L 20.954 21.282 21.331 21.502 C 21.942 21.858,22.304 21.879,22.636 21.579 C 22.842 21.393,23.041 21.009,23.066 20.749 C 23.105 20.358,22.939 20.136,22.340 19.778 L 21.980 19.562 21.983 18.999 L 21.986 18.437 22.333 18.228 C 22.743 17.982,22.940 17.805,23.025 17.605 C 23.213 17.165,22.799 16.371,22.312 16.237 C 22.059 16.167,21.806 16.235,21.346 16.495 L 20.953 16.718 20.768 16.577 C 20.667 16.500,20.452 16.371,20.292 16.292 L 20.000 16.148 20.000 15.721 C 20.000 15.173,19.933 14.937,19.723 14.747 C 19.636 14.669,19.497 14.586,19.413 14.563 C 19.200 14.504,18.731 14.513,18.545 14.579 M19.260 18.044 C 19.497 18.107,19.701 18.263,19.849 18.494 C 19.968 18.679,19.980 18.727,19.980 19.003 C 19.980 19.287,19.970 19.322,19.831 19.531 C 19.613 19.859,19.389 19.980,19.000 19.979 C 18.665 19.978,18.526 19.923,18.308 19.705 C 18.104 19.501,18.022 19.300,18.022 19.000 C 18.022 18.334,18.621 17.871,19.260 18.044 " stroke="none" fill="black" fill-rule="evenodd"></path></svg>