<svg xmlns="http://www.w3.org/2000/svg" width="24" height="24" viewBox="0 0 24 24" fill="none" stroke="currentColor" stroke-width="2" stroke-linecap="round" stroke-linejoin="round" class="icon icon-tabler icons-tabler-outline icon-tabler-video-off"><path d="M2.626 2.045 C 2.257 2.239,1.951 2.673,1.951 3.000 C 1.951 3.316,2.074 3.483,2.968 4.385 L 3.806 5.230 3.553 5.372 C 2.871 5.755,2.350 6.402,2.114 7.160 L 2.020 7.460 2.020 12.000 L 2.020 16.540 2.114 16.840 C 2.422 17.827,3.173 18.578,4.160 18.886 L 4.460 18.980 9.000 18.980 L 13.540 18.980 13.840 18.886 C 14.599 18.649,15.289 18.091,15.644 17.426 L 15.769 17.191 18.115 19.531 C 19.746 21.159,20.514 21.899,20.637 21.960 C 20.990 22.137,21.354 22.048,21.701 21.701 C 22.048 21.354,22.137 20.990,21.960 20.637 C 21.898 20.513,20.962 19.544,18.853 17.420 C 17.193 15.748,15.795 14.341,15.747 14.293 C 15.384 13.931,6.838 5.384,6.760 5.305 C 5.631 4.158,3.503 2.111,3.372 2.045 C 3.152 1.934,2.835 1.934,2.626 2.045 M9.614 5.056 C 9.376 5.132,9.212 5.262,9.109 5.453 C 9.035 5.592,9.020 5.684,9.020 6.000 C 9.020 6.331,9.033 6.403,9.120 6.558 C 9.230 6.755,9.414 6.898,9.635 6.959 C 9.721 6.983,10.452 7.000,11.443 7.000 C 13.362 7.000,13.399 7.005,13.697 7.303 C 13.995 7.602,14.000 7.637,14.000 9.566 C 14.000 11.410,14.010 11.496,14.247 11.746 C 14.580 12.095,15.454 12.077,15.786 11.714 C 15.919 11.569,16.000 11.271,16.000 10.928 L 16.000 10.620 17.980 9.630 C 19.069 9.085,19.969 8.640,19.980 8.640 C 19.991 8.640,20.000 10.157,20.000 12.011 L 20.000 15.381 19.797 15.477 C 19.420 15.657,19.243 15.996,19.319 16.397 C 19.451 17.092,19.869 17.446,20.420 17.330 C 21.148 17.178,21.746 16.595,21.938 15.850 C 21.995 15.628,22.001 15.194,21.991 11.890 L 21.980 8.180 21.886 7.946 C 21.651 7.364,21.157 6.889,20.612 6.720 C 20.256 6.610,19.724 6.611,19.396 6.722 C 19.262 6.766,18.453 7.153,17.597 7.582 C 16.741 8.010,16.034 8.360,16.026 8.360 C 16.018 8.360,16.002 8.149,15.989 7.890 C 15.974 7.576,15.937 7.327,15.879 7.140 C 15.582 6.183,14.819 5.421,13.861 5.123 C 13.540 5.023,13.538 5.023,11.660 5.013 C 10.181 5.005,9.744 5.014,9.614 5.056 M9.790 11.210 L 14.000 15.420 14.000 15.764 C 14.000 16.336,13.851 16.656,13.484 16.872 L 13.300 16.980 9.000 16.980 L 4.700 16.980 4.516 16.872 C 4.415 16.813,4.284 16.700,4.225 16.623 C 3.990 16.315,4.000 16.515,4.000 12.022 C 4.000 7.356,3.983 7.624,4.304 7.303 C 4.531 7.076,4.742 7.006,5.220 7.003 L 5.580 7.000 9.790 11.210 " stroke="none" fill="black" fill-rule="evenodd"></path></svg>