<svg xmlns="http://www.w3.org/2000/svg" width="24" height="24" viewBox="0 0 24 24" fill="none" stroke="currentColor" stroke-width="2" stroke-linecap="round" stroke-linejoin="round" class="icon icon-tabler icons-tabler-outline icon-tabler-time-duration-off"><path d="M2.626 2.045 C 2.420 2.154,2.146 2.433,2.038 2.644 C 1.924 2.867,1.924 3.132,2.039 3.363 C 2.103 3.491,4.171 5.585,9.504 10.920 C 13.561 14.979,16.880 18.313,16.880 18.328 C 16.880 18.383,16.015 18.932,15.603 19.138 C 14.526 19.677,13.546 19.927,12.237 19.997 C 11.629 20.029,11.587 20.036,11.408 20.147 C 11.151 20.306,11.032 20.529,11.009 20.896 C 10.978 21.381,11.118 21.699,11.442 21.880 C 11.612 21.976,11.648 21.980,12.280 21.977 C 14.286 21.969,16.415 21.219,18.093 19.929 L 18.327 19.750 19.393 20.810 C 20.081 21.494,20.523 21.902,20.637 21.960 C 20.989 22.137,21.354 22.048,21.701 21.701 C 22.047 21.355,22.136 20.990,21.961 20.637 C 21.839 20.392,3.616 2.165,3.372 2.044 C 3.152 1.934,2.834 1.935,2.626 2.045 M11.649 2.036 C 11.262 2.137,11.039 2.438,11.009 2.900 C 10.978 3.377,11.119 3.701,11.434 3.874 C 11.581 3.956,11.689 3.974,12.212 4.004 C 13.548 4.081,14.434 4.301,15.500 4.819 C 17.820 5.946,19.425 8.086,19.884 10.662 C 19.988 11.248,20.009 12.484,19.924 13.080 C 19.811 13.880,19.600 14.587,19.222 15.434 C 18.936 16.075,18.939 16.323,19.235 16.651 C 19.396 16.830,19.766 17.024,20.020 17.062 C 20.476 17.131,20.758 16.891,21.092 16.150 C 21.501 15.240,21.756 14.382,21.907 13.400 C 21.996 12.824,22.007 11.286,21.926 10.740 C 21.678 9.075,21.183 7.765,20.301 6.440 C 18.704 4.042,16.101 2.435,13.240 2.082 C 12.765 2.023,11.806 1.996,11.649 2.036 M3.745 6.579 C 3.371 6.712,3.173 7.090,3.209 7.603 C 3.247 8.127,3.476 8.399,3.954 8.488 C 4.454 8.581,4.914 8.403,5.084 8.051 C 5.202 7.807,5.229 7.400,5.145 7.112 C 5.070 6.852,4.855 6.630,4.613 6.563 C 4.400 6.504,3.931 6.513,3.745 6.579 M2.614 11.057 C 2.221 11.180,2.039 11.435,2.009 11.906 C 1.962 12.621,2.306 13.000,3.000 13.000 C 3.698 13.000,4.043 12.616,3.989 11.900 C 3.963 11.563,3.859 11.327,3.678 11.199 C 3.414 11.010,2.957 10.950,2.614 11.057 M3.745 15.579 C 3.371 15.712,3.173 16.090,3.209 16.603 C 3.247 17.127,3.476 17.399,3.954 17.488 C 4.454 17.581,4.914 17.403,5.084 17.051 C 5.202 16.807,5.229 16.400,5.145 16.112 C 5.070 15.852,4.855 15.630,4.613 15.563 C 4.400 15.504,3.931 15.513,3.745 15.579 M7.080 18.866 C 6.695 18.998,6.509 19.304,6.509 19.807 C 6.509 20.228,6.641 20.510,6.913 20.670 C 7.083 20.770,7.136 20.780,7.500 20.780 C 7.864 20.780,7.917 20.770,8.087 20.670 C 8.361 20.509,8.490 20.229,8.488 19.803 C 8.487 19.444,8.403 19.207,8.215 19.034 C 7.976 18.814,7.455 18.737,7.080 18.866 " stroke="none" fill="black" fill-rule="evenodd"></path></svg>