<svg xmlns="http://www.w3.org/2000/svg" width="24" height="24" viewBox="0 0 24 24" fill="none" stroke="currentColor" stroke-width="2" stroke-linecap="round" stroke-linejoin="round" class="icon icon-tabler icons-tabler-outline icon-tabler-anchor-off"><path d="M2.626 2.045 C 2.420 2.154,2.146 2.433,2.038 2.644 C 1.924 2.867,1.924 3.132,2.039 3.363 C 2.103 3.489,3.394 4.807,6.564 7.980 L 11.000 12.421 11.000 16.170 C 11.000 19.488,10.993 19.920,10.940 19.920 C 10.906 19.920,10.722 19.885,10.530 19.841 C 9.419 19.591,8.352 19.072,7.512 18.373 C 6.333 17.391,5.422 15.860,5.140 14.386 C 5.107 14.214,5.080 14.059,5.080 14.042 C 5.080 14.024,5.154 13.998,5.244 13.984 C 5.553 13.935,5.759 13.794,5.893 13.540 C 6.017 13.305,6.016 12.691,5.890 12.453 C 5.786 12.256,5.623 12.131,5.371 12.055 C 5.108 11.976,2.892 11.976,2.629 12.055 C 2.224 12.177,2.040 12.428,2.009 12.900 C 1.968 13.545,2.248 13.919,2.826 13.991 C 3.050 14.019,3.060 14.025,3.070 14.140 C 3.135 14.892,3.468 16.016,3.875 16.860 C 5.236 19.682,7.767 21.503,10.940 21.943 C 11.825 22.065,13.118 21.986,14.100 21.748 C 15.105 21.505,16.170 21.041,16.989 20.492 C 17.376 20.232,17.908 19.809,18.057 19.643 L 18.135 19.558 19.297 20.714 C 20.056 21.469,20.522 21.902,20.637 21.960 C 20.989 22.137,21.354 22.048,21.701 21.701 C 22.048 21.355,22.137 20.990,21.961 20.637 C 21.885 20.486,18.837 17.395,12.747 11.293 C 8.533 7.070,3.506 2.111,3.372 2.044 C 3.152 1.934,2.835 1.935,2.626 2.045 M11.313 2.057 C 10.498 2.202,9.751 2.600,9.139 3.216 C 8.473 3.887,8.029 4.881,8.137 5.457 C 8.189 5.737,8.500 5.988,8.940 6.106 C 9.498 6.255,9.831 6.059,10.080 5.438 C 10.264 4.978,10.407 4.756,10.667 4.524 C 11.149 4.095,11.761 3.924,12.369 4.050 C 12.799 4.139,13.087 4.290,13.381 4.580 C 13.689 4.884,13.823 5.117,13.927 5.530 C 14.092 6.181,13.933 6.816,13.475 7.336 C 13.253 7.589,13.018 7.742,12.615 7.901 C 12.197 8.065,12.033 8.186,11.924 8.412 C 11.824 8.619,11.818 8.829,11.903 9.123 C 12.091 9.766,12.499 10.007,13.116 9.841 C 14.257 9.534,15.313 8.554,15.746 7.402 C 16.074 6.528,16.078 5.509,15.757 4.627 C 15.298 3.363,14.158 2.370,12.860 2.100 C 12.425 2.009,11.696 1.989,11.313 2.057 M18.614 12.057 C 18.223 12.180,18.039 12.436,18.009 12.900 C 17.970 13.512,18.239 13.906,18.750 13.983 C 18.843 13.997,18.920 14.024,18.920 14.042 C 18.920 14.126,18.786 14.702,18.675 15.097 C 18.458 15.864,18.549 16.162,19.085 16.432 C 19.672 16.729,20.170 16.614,20.418 16.123 C 20.591 15.782,20.920 14.482,20.920 14.140 C 20.920 14.012,20.922 14.011,21.153 13.990 C 21.525 13.956,21.748 13.817,21.904 13.520 C 22.018 13.305,22.009 12.679,21.890 12.453 C 21.786 12.256,21.623 12.131,21.371 12.055 C 21.117 11.979,18.859 11.981,18.614 12.057 M16.720 18.162 C 16.720 18.227,15.940 18.806,15.500 19.068 C 14.919 19.414,13.867 19.789,13.170 19.900 L 13.000 19.927 13.000 17.174 L 13.000 14.420 14.860 16.280 C 15.883 17.303,16.720 18.150,16.720 18.162 " stroke="none" fill="black" fill-rule="evenodd"></path></svg>