<svg xmlns="http://www.w3.org/2000/svg" width="24" height="24" viewBox="0 0 24 24" fill="none" stroke="currentColor" stroke-width="2" stroke-linecap="round" stroke-linejoin="round" class="icon icon-tabler icons-tabler-outline icon-tabler-signal-2g"><path d="M4.614 7.057 C 4.377 7.131,4.212 7.261,4.109 7.453 C 4.035 7.592,4.020 7.684,4.020 8.000 C 4.020 8.331,4.033 8.403,4.120 8.558 C 4.230 8.755,4.414 8.898,4.635 8.959 C 4.724 8.984,5.600 9.000,6.890 9.000 L 9.000 9.000 9.000 10.000 L 9.000 11.000 7.370 11.002 C 5.545 11.005,5.417 11.020,4.983 11.281 C 4.703 11.449,4.354 11.816,4.219 12.083 C 4.019 12.478,4.000 12.640,4.000 14.000 C 4.000 15.368,4.018 15.521,4.225 15.930 C 4.361 16.199,4.801 16.639,5.070 16.775 C 5.508 16.997,5.547 17.000,7.978 17.000 C 9.357 17.000,10.276 16.984,10.365 16.959 C 10.586 16.898,10.770 16.755,10.880 16.558 C 10.967 16.402,10.980 16.332,10.979 16.000 C 10.978 15.567,10.898 15.355,10.678 15.199 C 10.408 15.006,10.326 15.000,8.094 15.000 L 6.000 15.000 6.000 14.000 L 6.000 13.000 7.632 13.000 C 9.399 13.000,9.507 12.990,9.930 12.775 C 10.196 12.640,10.638 12.200,10.771 11.937 C 10.979 11.527,11.000 11.352,10.999 10.014 C 10.999 8.682,10.974 8.463,10.781 8.083 C 10.646 7.816,10.297 7.449,10.017 7.281 C 9.565 7.009,9.522 7.005,7.020 7.005 C 5.294 7.005,4.742 7.017,4.614 7.057 M15.499 7.043 C 14.383 7.230,13.461 8.048,13.114 9.160 L 13.020 9.460 13.020 12.000 L 13.020 14.540 13.114 14.840 C 13.419 15.816,14.154 16.559,15.140 16.885 C 15.414 16.975,15.461 16.977,17.307 16.991 C 18.553 17.000,19.247 16.991,19.351 16.963 C 19.583 16.900,19.767 16.759,19.880 16.558 L 19.980 16.380 19.980 14.000 L 19.980 11.620 19.891 11.453 C 19.694 11.086,19.432 11.000,18.500 11.000 C 17.768 11.000,17.549 11.037,17.322 11.199 C 17.139 11.329,17.030 11.573,17.009 11.900 C 16.968 12.532,17.251 12.922,17.797 12.987 L 18.000 13.011 18.000 14.008 L 18.000 15.005 16.850 14.992 L 15.700 14.980 15.516 14.872 C 15.415 14.813,15.284 14.700,15.225 14.623 C 14.999 14.327,15.000 14.334,15.000 12.002 C 15.000 9.564,14.995 9.612,15.306 9.300 C 15.601 9.005,15.641 9.000,17.557 9.000 C 18.548 9.000,19.279 8.983,19.365 8.959 C 19.586 8.898,19.770 8.755,19.880 8.558 C 19.967 8.402,19.980 8.332,19.979 8.000 C 19.978 7.567,19.898 7.355,19.678 7.199 C 19.412 7.009,19.303 7.000,17.444 7.005 C 16.485 7.007,15.609 7.025,15.499 7.043 " stroke="none" fill="black" fill-rule="evenodd"></path></svg>