<svg xmlns="http://www.w3.org/2000/svg" width="24" height="24" viewBox="0 0 24 24" fill="none" stroke="currentColor" stroke-width="2" stroke-linecap="round" stroke-linejoin="round" class="icon icon-tabler icons-tabler-outline icon-tabler-target-arrow"><path d="M11.080 2.043 C 7.989 2.339,5.215 4.038,3.543 6.660 C 3.302 7.038,2.839 7.958,2.667 8.400 C 1.873 10.443,1.791 12.816,2.440 14.921 C 3.594 18.661,6.786 21.372,10.660 21.903 C 14.421 22.419,18.179 20.725,20.298 17.560 C 21.338 16.007,21.907 14.244,21.985 12.340 C 22.013 11.661,21.954 10.834,21.858 10.552 C 21.779 10.319,21.547 10.101,21.312 10.038 C 21.089 9.977,20.652 10.013,20.431 10.111 C 20.337 10.153,20.203 10.251,20.134 10.330 C 19.951 10.538,19.915 10.763,19.965 11.364 C 20.158 13.640,19.340 15.906,17.724 17.573 C 17.057 18.261,16.402 18.737,15.540 19.162 C 14.049 19.896,12.492 20.151,10.912 19.919 C 9.145 19.660,7.723 18.973,6.488 17.781 C 5.498 16.826,4.838 15.796,4.425 14.557 C 3.756 12.551,3.880 10.465,4.780 8.570 C 5.587 6.873,6.827 5.630,8.540 4.800 C 9.917 4.133,10.899 3.962,12.940 4.035 C 13.500 4.055,13.739 3.933,13.902 3.543 C 14.005 3.295,14.025 2.838,13.943 2.621 C 13.862 2.410,13.627 2.193,13.410 2.128 C 13.031 2.015,11.833 1.971,11.080 2.043 M17.660 2.067 C 17.477 2.122,17.326 2.261,15.847 3.734 C 14.960 4.617,14.186 5.421,14.127 5.520 L 14.020 5.700 14.009 7.140 L 13.997 8.580 13.269 9.311 L 12.540 10.041 12.196 10.015 C 11.533 9.965,10.972 10.181,10.534 10.653 C 9.954 11.280,9.834 12.159,10.225 12.930 C 10.361 13.199,10.801 13.639,11.070 13.775 C 11.659 14.073,12.341 14.073,12.930 13.775 C 13.196 13.640,13.638 13.200,13.771 12.937 C 13.973 12.539,14.051 12.009,13.964 11.634 L 13.930 11.489 14.675 10.746 L 15.420 10.003 16.860 9.991 L 18.300 9.980 18.480 9.873 C 18.744 9.716,21.849 6.584,21.960 6.363 C 22.138 6.008,22.046 5.639,21.694 5.296 C 21.412 5.023,21.288 5.000,20.055 5.000 L 19.005 5.000 18.993 3.810 C 18.981 2.669,18.976 2.613,18.891 2.453 C 18.687 2.071,18.174 1.910,17.660 2.067 M17.121 6.558 C 17.306 6.892,17.563 6.999,18.179 7.000 L 18.579 7.000 18.080 7.500 L 17.581 8.000 16.791 8.000 L 16.000 8.000 16.000 7.211 L 16.000 6.421 16.490 5.930 L 16.980 5.438 17.001 5.909 C 17.019 6.312,17.036 6.406,17.121 6.558 M11.380 6.043 C 8.784 6.299,6.676 8.219,6.115 10.840 C 5.984 11.450,5.984 12.558,6.114 13.160 C 6.639 15.588,8.417 17.365,10.840 17.885 C 11.190 17.960,11.383 17.975,12.000 17.975 C 12.822 17.975,13.248 17.909,13.940 17.672 C 16.302 16.863,17.958 14.610,17.976 12.180 C 17.980 11.673,17.972 11.604,17.891 11.453 C 17.689 11.076,17.138 10.902,16.629 11.055 C 16.181 11.190,16.045 11.408,15.996 12.074 C 15.937 12.863,15.844 13.230,15.557 13.804 C 15.014 14.892,13.989 15.670,12.773 15.917 C 10.563 16.368,8.396 14.845,8.058 12.605 C 7.986 12.121,7.986 11.879,8.058 11.395 C 8.280 9.926,9.324 8.690,10.755 8.203 C 11.049 8.103,11.678 8.001,12.000 8.000 C 12.428 7.999,12.713 7.856,12.880 7.558 C 12.967 7.402,12.980 7.332,12.979 7.000 C 12.978 6.687,12.962 6.591,12.890 6.453 C 12.679 6.053,12.303 5.951,11.380 6.043 " stroke="none" fill="black" fill-rule="evenodd"></path></svg>