<svg xmlns="http://www.w3.org/2000/svg" width="24" height="24" viewBox="0 0 24 24" fill="none" stroke="currentColor" stroke-width="2" stroke-linecap="round" stroke-linejoin="round" class="icon icon-tabler icons-tabler-outline icon-tabler-lock-search"><path d="M11.400 2.044 C 9.761 2.229,8.261 3.290,7.526 4.785 C 7.345 5.153,7.194 5.578,7.096 6.000 C 7.037 6.256,7.024 6.571,7.011 8.145 L 6.995 9.990 6.712 10.018 C 5.496 10.138,4.485 10.971,4.114 12.160 L 4.020 12.460 4.020 16.000 L 4.020 19.540 4.114 19.840 C 4.418 20.816,5.152 21.556,6.140 21.885 C 6.420 21.978,6.422 21.978,9.020 21.992 C 11.873 22.007,11.943 22.003,12.189 21.787 C 12.401 21.601,12.486 21.376,12.486 21.003 C 12.486 20.656,12.418 20.446,12.248 20.267 C 12.006 20.012,12.112 20.022,9.280 20.000 L 6.700 19.980 6.516 19.872 C 6.415 19.813,6.284 19.700,6.225 19.623 C 5.994 19.320,6.000 19.423,6.000 16.022 C 6.000 12.472,5.988 12.618,6.303 12.303 C 6.627 11.979,6.236 12.000,12.057 12.000 C 15.392 12.000,17.271 11.985,17.365 11.959 C 17.586 11.898,17.770 11.755,17.880 11.558 C 17.967 11.402,17.980 11.332,17.979 11.000 C 17.978 10.685,17.963 10.591,17.888 10.450 C 17.773 10.232,17.551 10.086,17.246 10.028 L 17.005 9.983 16.989 8.141 C 16.976 6.571,16.963 6.256,16.904 6.000 C 16.543 4.449,15.584 3.211,14.213 2.525 C 13.352 2.095,12.397 1.932,11.400 2.044 M12.861 4.129 C 13.803 4.404,14.578 5.178,14.877 6.139 C 14.976 6.457,14.977 6.477,14.991 8.230 L 15.005 10.000 12.000 10.000 L 8.995 10.000 9.009 8.230 C 9.023 6.477,9.024 6.457,9.123 6.139 C 9.462 5.049,10.371 4.245,11.499 4.040 C 11.832 3.980,12.500 4.023,12.861 4.129 M17.358 14.061 C 16.230 14.237,15.143 14.974,14.569 15.953 C 13.320 18.083,14.233 20.785,16.512 21.704 C 17.475 22.092,18.529 22.091,19.498 21.700 C 19.691 21.622,19.887 21.532,19.933 21.500 C 20.012 21.444,20.052 21.476,20.738 22.155 C 21.512 22.921,21.693 23.049,22.000 23.049 C 22.477 23.049,23.049 22.477,23.049 22.000 C 23.049 21.693,22.921 21.512,22.155 20.738 C 21.476 20.052,21.444 20.012,21.500 19.933 C 21.619 19.762,21.844 19.135,21.921 18.757 C 22.070 18.024,21.994 17.230,21.705 16.516 C 21.172 15.197,20.001 14.269,18.605 14.058 C 18.144 13.989,17.816 13.990,17.358 14.061 M18.523 16.073 C 19.262 16.266,19.850 16.924,19.967 17.690 C 20.067 18.343,19.873 18.933,19.403 19.404 C 19.002 19.807,18.547 20.000,18.000 20.000 C 17.485 20.000,17.038 19.822,16.653 19.465 C 15.323 18.229,16.189 16.005,18.000 16.005 C 18.143 16.005,18.378 16.036,18.523 16.073 " stroke="none" fill="black" fill-rule="evenodd"></path></svg>