<svg xmlns="http://www.w3.org/2000/svg" width="24" height="24" viewBox="0 0 24 24" fill="none" stroke="currentColor" stroke-width="2" stroke-linecap="round" stroke-linejoin="round" class="icon icon-tabler icons-tabler-outline icon-tabler-book-2"><path d="M6.499 3.043 C 5.383 3.230,4.461 4.048,4.114 5.160 L 4.020 5.460 4.020 12.000 L 4.020 18.540 4.114 18.840 C 4.418 19.816,5.149 20.554,6.140 20.886 L 6.420 20.980 12.813 20.991 C 17.061 20.998,19.256 20.988,19.357 20.961 C 19.584 20.900,19.768 20.758,19.880 20.558 L 19.980 20.380 19.980 12.000 L 19.980 3.620 19.891 3.453 C 19.842 3.362,19.746 3.247,19.678 3.199 C 19.388 2.992,19.647 3.000,12.944 3.005 C 9.510 3.007,6.609 3.025,6.499 3.043 M18.000 9.999 L 18.000 14.998 12.230 15.010 C 6.918 15.021,6.443 15.028,6.240 15.091 C 6.119 15.128,6.015 15.159,6.010 15.160 C 6.005 15.160,6.000 13.075,6.000 10.527 C 6.000 5.297,5.981 5.625,6.304 5.303 C 6.622 4.984,6.183 5.006,12.430 5.003 L 18.000 5.000 18.000 9.999 M8.614 7.057 C 8.377 7.131,8.212 7.261,8.109 7.453 C 8.035 7.592,8.020 7.684,8.020 8.000 C 8.020 8.331,8.033 8.403,8.120 8.558 C 8.230 8.755,8.414 8.898,8.635 8.959 C 8.832 9.014,15.168 9.014,15.365 8.959 C 15.586 8.898,15.770 8.755,15.880 8.558 C 15.967 8.402,15.980 8.332,15.979 8.000 C 15.978 7.567,15.898 7.355,15.678 7.199 C 15.398 6.999,15.411 7.000,11.984 7.003 C 9.472 7.005,8.744 7.017,8.614 7.057 M18.000 18.001 L 18.000 19.001 12.350 18.991 L 6.700 18.980 6.516 18.872 C 5.935 18.530,5.833 17.774,6.304 17.303 C 6.622 16.984,6.183 17.006,12.430 17.003 L 18.000 17.000 18.000 18.001 " stroke="none" fill="black" fill-rule="evenodd"></path></svg>