<svg xmlns="http://www.w3.org/2000/svg" width="24" height="24" viewBox="0 0 24 24" fill="none" stroke="currentColor" stroke-width="2" stroke-linecap="round" stroke-linejoin="round" class="icon icon-tabler icons-tabler-outline icon-tabler-arrows-exchange-2"><path d="M6.620 5.046 C 6.413 5.153,2.272 9.276,2.127 9.520 C 2.033 9.677,2.020 9.743,2.020 10.040 C 2.020 10.328,2.035 10.407,2.120 10.558 C 2.230 10.755,2.414 10.898,2.635 10.959 C 2.835 11.015,17.165 11.015,17.365 10.959 C 17.586 10.898,17.770 10.755,17.880 10.558 C 17.967 10.402,17.980 10.332,17.979 10.000 C 17.978 9.567,17.898 9.355,17.678 9.199 C 17.389 8.993,17.616 9.000,11.305 9.000 L 5.423 9.000 6.647 7.770 C 7.452 6.961,7.901 6.479,7.960 6.363 C 8.137 6.011,8.048 5.646,7.701 5.299 C 7.361 4.959,6.967 4.867,6.620 5.046 M6.614 13.057 C 6.377 13.131,6.212 13.261,6.109 13.453 C 6.035 13.592,6.020 13.684,6.020 14.000 C 6.020 14.331,6.033 14.403,6.120 14.558 C 6.230 14.755,6.414 14.898,6.635 14.959 C 6.729 14.985,8.850 15.000,12.679 15.000 L 18.577 15.000 17.353 16.230 C 16.548 17.039,16.099 17.521,16.040 17.637 C 15.863 17.989,15.952 18.354,16.299 18.701 C 16.646 19.048,17.010 19.137,17.363 18.960 C 17.585 18.849,21.714 14.748,21.873 14.480 C 21.967 14.322,21.980 14.259,21.978 13.960 C 21.975 13.436,21.808 13.187,21.371 13.055 C 21.107 12.976,6.868 12.978,6.614 13.057 " stroke="none" fill="black" fill-rule="evenodd"></path></svg>