<svg xmlns="http://www.w3.org/2000/svg" width="24" height="24" viewBox="0 0 24 24" fill="none" stroke="currentColor" stroke-width="2" stroke-linecap="round" stroke-linejoin="round" class="icon icon-tabler icons-tabler-outline icon-tabler-brand-peanut"><path d="M6.560 6.585 C 5.821 6.720,5.039 7.037,4.388 7.466 C 3.992 7.726,3.227 8.500,2.951 8.920 C 2.529 9.560,2.277 10.150,2.114 10.883 C 2.034 11.238,2.021 11.407,2.023 12.020 C 2.024 12.653,2.037 12.794,2.130 13.190 C 2.702 15.628,4.706 17.327,7.223 17.505 C 8.051 17.564,8.879 17.382,10.020 16.892 C 11.349 16.321,11.791 16.200,12.253 16.281 C 12.633 16.347,13.070 16.501,13.900 16.860 C 14.764 17.235,15.039 17.330,15.520 17.421 C 16.349 17.577,17.192 17.529,18.049 17.276 C 20.028 16.692,21.496 15.069,21.907 13.011 C 22.012 12.488,22.001 11.432,21.887 10.908 C 21.719 10.142,21.482 9.587,21.038 8.924 C 20.033 7.421,18.325 6.521,16.475 6.520 C 15.586 6.520,15.087 6.640,13.977 7.120 C 13.579 7.292,13.057 7.501,12.817 7.585 C 12.429 7.720,12.337 7.737,12.000 7.737 C 11.668 7.737,11.566 7.718,11.200 7.592 C 10.969 7.513,10.465 7.310,10.080 7.141 C 8.921 6.633,8.604 6.555,7.620 6.536 C 7.091 6.526,6.810 6.539,6.560 6.585 M8.375 8.616 C 8.504 8.652,8.882 8.801,9.215 8.947 C 10.631 9.567,11.234 9.737,12.020 9.736 C 12.785 9.736,13.247 9.606,14.727 8.974 C 15.603 8.599,15.914 8.520,16.505 8.520 C 17.146 8.520,17.713 8.675,18.300 9.011 C 18.703 9.242,19.285 9.842,19.531 10.280 C 20.223 11.513,20.119 12.997,19.261 14.136 C 18.375 15.314,16.779 15.808,15.422 15.324 C 15.245 15.260,14.812 15.083,14.460 14.929 C 13.377 14.457,12.693 14.272,12.020 14.269 C 11.303 14.267,10.657 14.444,9.360 14.999 C 8.225 15.485,7.789 15.578,7.094 15.479 C 5.630 15.273,4.489 14.276,4.113 12.875 C 3.995 12.434,3.987 11.605,4.097 11.180 C 4.432 9.879,5.462 8.879,6.774 8.580 C 7.106 8.504,8.053 8.525,8.375 8.616 " stroke="none" fill="black" fill-rule="evenodd"></path></svg>