<svg xmlns="http://www.w3.org/2000/svg" width="24" height="24" viewBox="0 0 24 24" fill="none" stroke="currentColor" stroke-width="2" stroke-linecap="round" stroke-linejoin="round" class="icon icon-tabler icons-tabler-outline icon-tabler-arrow-rotary-straight"><path d="M12.530 2.083 C 12.393 2.150,12.249 2.252,12.210 2.311 C 12.172 2.369,11.237 3.327,10.134 4.439 C 8.766 5.818,8.101 6.516,8.040 6.637 C 7.863 6.989,7.952 7.354,8.299 7.701 C 8.646 8.048,9.011 8.137,9.363 7.960 C 9.479 7.901,9.961 7.451,10.770 6.646 L 12.001 5.422 11.990 7.274 L 11.980 9.126 11.720 9.217 C 10.350 9.697,9.370 10.816,9.083 12.227 C 8.700 14.105,9.756 16.031,11.540 16.711 C 11.716 16.778,11.892 16.843,11.930 16.855 C 11.996 16.876,12.000 17.016,12.000 19.049 C 12.000 20.380,12.016 21.276,12.041 21.365 C 12.148 21.750,12.437 21.962,12.896 21.991 C 13.381 22.022,13.699 21.882,13.880 21.558 L 13.980 21.380 13.992 19.128 C 14.002 17.044,14.008 16.875,14.072 16.855 C 15.339 16.453,16.237 15.645,16.704 14.488 C 17.560 12.365,16.464 9.983,14.280 9.217 L 14.020 9.126 14.010 7.274 L 13.999 5.422 15.230 6.646 C 16.039 7.451,16.521 7.901,16.637 7.960 C 16.989 8.137,17.354 8.048,17.701 7.701 C 18.048 7.354,18.137 6.989,17.960 6.637 C 17.899 6.516,17.234 5.818,15.866 4.439 C 14.763 3.327,13.828 2.369,13.789 2.310 C 13.751 2.252,13.604 2.149,13.464 2.082 C 13.120 1.918,12.871 1.918,12.530 2.083 M13.523 11.073 C 14.262 11.266,14.850 11.924,14.967 12.690 C 15.067 13.343,14.873 13.933,14.403 14.404 C 14.002 14.807,13.547 15.000,13.000 15.000 C 12.485 15.000,12.038 14.822,11.653 14.465 C 10.323 13.229,11.189 11.005,13.000 11.005 C 13.143 11.005,13.378 11.036,13.523 11.073 " stroke="none" fill="black" fill-rule="evenodd"></path></svg>