<svg xmlns="http://www.w3.org/2000/svg" width="24" height="24" viewBox="0 0 24 24" fill="none" stroke="currentColor" stroke-width="2" stroke-linecap="round" stroke-linejoin="round" class="icon icon-tabler icons-tabler-outline icon-tabler-wiper"><path d="M10.700 4.005 C 7.609 4.300,4.505 5.850,2.447 8.127 C 1.962 8.664,1.876 8.873,1.985 9.248 C 2.044 9.452,2.157 9.570,5.013 12.424 C 8.133 15.541,8.154 15.560,8.500 15.560 C 8.699 15.560,8.961 15.425,9.230 15.186 C 9.650 14.812,10.290 14.397,10.352 14.458 C 10.367 14.474,10.456 14.929,10.548 15.469 L 10.717 16.452 10.516 16.672 C 9.953 17.288,9.839 18.169,10.225 18.930 C 10.361 19.199,10.801 19.639,11.070 19.775 C 11.659 20.073,12.341 20.073,12.930 19.775 C 13.196 19.640,13.638 19.200,13.771 18.937 C 14.067 18.353,14.069 17.649,13.775 17.069 C 13.638 16.799,13.202 16.369,12.915 16.221 L 12.691 16.105 12.521 15.111 C 12.427 14.564,12.357 14.109,12.366 14.101 C 12.402 14.065,13.065 14.210,13.364 14.319 C 13.886 14.510,14.291 14.759,14.770 15.186 C 15.186 15.556,15.475 15.635,15.830 15.474 C 16.102 15.351,21.837 9.628,21.957 9.360 C 22.058 9.136,22.061 8.869,21.965 8.660 C 21.812 8.326,20.795 7.312,19.980 6.682 C 18.011 5.157,15.663 4.226,13.220 4.001 C 12.705 3.953,11.218 3.956,10.700 4.005 M13.120 6.001 C 15.452 6.244,17.548 7.170,19.351 8.756 L 19.603 8.977 17.517 11.063 L 15.430 13.150 15.118 12.956 C 14.310 12.455,13.369 12.160,12.372 12.093 C 12.016 12.069,12.003 12.065,11.982 11.964 C 11.958 11.851,10.960 6.046,10.960 6.021 C 10.960 5.958,12.562 5.943,13.120 6.001 M9.492 9.330 C 9.773 10.963,10.001 12.332,10.001 12.370 C 10.000 12.409,9.980 12.440,9.955 12.440 C 9.867 12.440,9.189 12.766,8.882 12.956 L 8.570 13.150 6.483 11.063 L 4.396 8.975 4.768 8.655 C 5.909 7.674,7.034 7.025,8.440 6.536 C 8.715 6.441,8.950 6.362,8.962 6.361 C 8.974 6.361,9.212 7.697,9.492 9.330 " stroke="none" fill="black" fill-rule="evenodd"></path></svg>