<svg xmlns="http://www.w3.org/2000/svg" width="24" height="24" viewBox="0 0 24 24" fill="none" stroke="currentColor" stroke-width="2" stroke-linecap="round" stroke-linejoin="round" class="icon icon-tabler icons-tabler-outline icon-tabler-sort-0-9"><path d="M5.499 7.040 C 4.363 7.246,3.461 8.048,3.114 9.160 L 3.020 9.460 3.020 12.000 L 3.020 14.540 3.114 14.840 C 3.422 15.827,4.174 16.579,5.160 16.886 C 5.594 17.021,6.406 17.021,6.840 16.886 C 7.826 16.579,8.578 15.827,8.886 14.840 L 8.980 14.540 8.980 12.000 L 8.980 9.460 8.886 9.160 C 8.580 8.178,7.810 7.407,6.861 7.129 C 6.500 7.023,5.832 6.980,5.499 7.040 M16.477 7.073 C 15.806 7.249,15.238 7.823,15.060 8.508 C 15.013 8.687,15.000 9.009,15.000 10.000 C 15.000 11.368,15.018 11.521,15.225 11.930 C 15.361 12.199,15.801 12.639,16.070 12.775 C 16.472 12.979,16.642 13.000,17.868 13.000 L 19.000 13.000 19.000 14.000 L 19.000 15.000 18.005 15.000 L 17.010 15.000 16.983 14.794 C 16.930 14.393,16.743 14.167,16.371 14.055 C 15.861 13.902,15.305 14.077,15.113 14.453 C 15.008 14.659,14.973 15.095,15.037 15.404 C 15.148 15.941,15.595 16.534,16.070 16.775 C 16.479 16.982,16.632 17.000,18.000 17.000 C 19.368 17.000,19.521 16.982,19.930 16.775 C 20.196 16.640,20.638 16.200,20.771 15.937 C 21.003 15.479,21.000 15.537,20.999 12.014 C 20.999 8.515,20.999 8.511,20.781 8.083 C 20.551 7.628,20.022 7.203,19.523 7.073 C 19.134 6.972,16.866 6.972,16.477 7.073 M6.310 9.061 C 6.452 9.103,6.571 9.178,6.697 9.303 C 7.002 9.609,7.000 9.589,7.000 12.001 C 7.000 14.287,6.996 14.333,6.779 14.618 C 6.718 14.698,6.585 14.813,6.484 14.872 C 6.328 14.963,6.254 14.980,6.000 14.980 C 5.746 14.980,5.672 14.963,5.516 14.872 C 5.415 14.813,5.284 14.700,5.225 14.623 C 5.000 14.327,5.000 14.332,5.000 12.022 C 5.000 9.586,4.997 9.609,5.304 9.303 C 5.583 9.024,5.916 8.944,6.310 9.061 M19.000 10.000 L 19.000 11.000 18.000 11.000 L 17.000 11.000 17.000 10.000 L 17.000 9.000 18.000 9.000 L 19.000 9.000 19.000 10.000 M10.614 11.057 C 10.377 11.131,10.212 11.261,10.109 11.453 C 10.035 11.592,10.020 11.684,10.020 12.000 C 10.020 12.331,10.033 12.403,10.120 12.558 C 10.230 12.755,10.414 12.898,10.635 12.959 C 10.826 13.012,13.174 13.012,13.365 12.959 C 13.586 12.898,13.770 12.755,13.880 12.558 C 13.967 12.402,13.980 12.332,13.979 12.000 C 13.978 11.687,13.962 11.591,13.890 11.453 C 13.786 11.256,13.623 11.131,13.371 11.055 C 13.117 10.979,10.859 10.981,10.614 11.057 " stroke="none" fill="black" fill-rule="evenodd"></path></svg>