<svg xmlns="http://www.w3.org/2000/svg" width="24" height="24" viewBox="0 0 24 24" fill="none" stroke="currentColor" stroke-width="2" stroke-linecap="round" stroke-linejoin="round" class="icon icon-tabler icons-tabler-outline icon-tabler-zoom-money"><path d="M9.207 2.043 C 7.656 2.193,6.096 2.846,4.900 3.847 C 3.985 4.612,3.307 5.477,2.800 6.529 C 1.453 9.317,1.837 12.625,3.789 15.040 C 4.075 15.394,4.761 16.067,5.100 16.326 C 6.974 17.757,9.329 18.302,11.620 17.833 C 12.581 17.637,13.717 17.154,14.500 16.608 L 14.900 16.329 17.680 19.101 C 19.627 21.042,20.513 21.898,20.637 21.961 C 20.990 22.137,21.354 22.048,21.701 21.701 C 22.048 21.354,22.137 20.990,21.961 20.637 C 21.898 20.513,21.042 19.627,19.101 17.680 L 16.329 14.900 16.608 14.500 C 16.761 14.280,17.009 13.854,17.158 13.553 C 18.265 11.323,18.280 8.765,17.200 6.529 C 16.693 5.477,16.015 4.612,15.100 3.847 C 13.483 2.494,11.337 1.837,9.207 2.043 M10.564 4.039 C 12.921 4.269,14.913 5.837,15.671 8.060 C 16.168 9.517,16.068 11.251,15.410 12.580 C 14.550 14.316,13.056 15.478,11.160 15.885 C 10.554 16.015,9.446 16.015,8.840 15.885 C 6.941 15.478,5.451 14.319,4.590 12.580 C 3.932 11.251,3.832 9.517,4.329 8.060 C 4.618 7.212,5.080 6.470,5.731 5.805 C 7.008 4.503,8.757 3.864,10.564 4.039 M9.614 5.057 C 9.250 5.171,9.061 5.411,9.008 5.826 L 8.980 6.049 8.759 6.118 C 8.003 6.351,7.361 6.979,7.118 7.722 C 7.034 7.976,7.020 8.094,7.022 8.520 C 7.024 8.960,7.038 9.056,7.133 9.320 C 7.394 10.039,7.964 10.609,8.680 10.867 C 8.961 10.968,9.033 10.976,9.800 10.992 C 10.702 11.010,10.786 11.030,10.922 11.252 C 11.021 11.415,11.021 11.585,10.922 11.748 C 10.770 11.997,10.750 12.000,9.208 12.000 C 7.724 12.000,7.580 12.015,7.322 12.199 C 7.100 12.357,7.020 12.568,7.020 13.000 C 7.020 13.331,7.033 13.403,7.120 13.558 C 7.230 13.755,7.414 13.898,7.635 13.959 C 7.715 13.981,8.052 14.000,8.384 14.000 L 8.989 14.000 9.013 14.203 C 9.074 14.715,9.426 15.000,10.000 15.000 C 10.582 15.000,10.923 14.720,10.984 14.193 L 11.010 13.966 11.294 13.873 C 12.001 13.642,12.605 13.046,12.868 12.320 C 12.965 12.052,12.976 11.965,12.976 11.500 C 12.976 11.035,12.965 10.948,12.868 10.680 C 12.646 10.068,12.195 9.561,11.620 9.277 C 11.172 9.055,10.869 9.002,10.068 9.001 C 9.319 9.000,9.216 8.974,9.078 8.748 C 8.979 8.585,8.979 8.415,9.078 8.252 C 9.230 8.003,9.249 8.000,10.808 8.000 C 11.630 8.000,12.280 7.983,12.365 7.959 C 12.586 7.898,12.770 7.755,12.880 7.558 C 12.967 7.402,12.980 7.332,12.979 7.000 C 12.978 6.687,12.962 6.591,12.890 6.453 C 12.702 6.098,12.423 6.000,11.599 6.000 L 11.010 6.000 10.983 5.794 C 10.948 5.531,10.835 5.310,10.678 5.199 C 10.414 5.010,9.957 4.950,9.614 5.057 " stroke="none" fill="black" fill-rule="evenodd"></path></svg>