<svg xmlns="http://www.w3.org/2000/svg" width="24" height="24" viewBox="0 0 24 24" fill="none" stroke="currentColor" stroke-width="2" stroke-linecap="round" stroke-linejoin="round" class="icon icon-tabler icons-tabler-outline icon-tabler-circles"><path d="M11.400 2.044 C 9.761 2.229,8.261 3.290,7.526 4.785 C 7.158 5.533,7.020 6.136,7.020 7.000 C 7.020 7.670,7.078 8.044,7.268 8.600 C 7.846 10.291,9.253 11.525,11.040 11.907 C 11.511 12.008,12.489 12.008,12.960 11.907 C 14.488 11.580,15.748 10.630,16.433 9.288 C 16.838 8.494,16.980 7.899,16.980 7.000 C 16.980 6.101,16.838 5.506,16.433 4.713 C 15.794 3.461,14.604 2.510,13.240 2.162 C 12.669 2.016,12.019 1.974,11.400 2.044 M12.861 4.129 C 13.804 4.405,14.584 5.183,14.875 6.139 C 14.958 6.412,14.973 6.542,14.973 7.000 C 14.973 7.458,14.958 7.588,14.875 7.861 C 14.582 8.822,13.819 9.581,12.840 9.886 C 12.406 10.021,11.594 10.021,11.160 9.886 C 10.181 9.581,9.418 8.822,9.125 7.861 C 9.042 7.588,9.027 7.458,9.027 7.000 C 9.027 6.542,9.042 6.412,9.125 6.139 C 9.456 5.054,10.371 4.245,11.499 4.040 C 11.832 3.980,12.500 4.023,12.861 4.129 M5.891 12.044 C 4.010 12.263,2.391 13.587,1.759 15.422 C 1.421 16.405,1.431 17.666,1.786 18.649 C 2.326 20.146,3.459 21.256,4.944 21.742 C 8.179 22.802,11.486 20.404,11.486 17.000 C 11.486 13.996,8.888 11.695,5.891 12.044 M16.891 12.044 C 15.010 12.263,13.391 13.587,12.759 15.422 C 12.421 16.405,12.431 17.666,12.786 18.649 C 13.326 20.146,14.459 21.256,15.944 21.742 C 19.179 22.802,22.486 20.404,22.486 17.000 C 22.486 13.996,19.888 11.695,16.891 12.044 M7.271 14.095 C 8.331 14.387,9.204 15.292,9.421 16.323 C 9.499 16.695,9.496 17.332,9.415 17.692 C 9.163 18.812,8.250 19.701,7.111 19.936 C 5.936 20.179,4.755 19.715,4.054 18.734 C 3.684 18.216,3.520 17.683,3.520 17.000 C 3.520 16.186,3.766 15.543,4.299 14.965 C 4.670 14.562,5.322 14.179,5.800 14.084 C 5.921 14.060,6.056 14.032,6.100 14.022 C 6.252 13.987,7.061 14.037,7.271 14.095 M18.271 14.095 C 19.331 14.387,20.204 15.292,20.421 16.323 C 20.499 16.695,20.496 17.332,20.415 17.692 C 20.163 18.812,19.250 19.701,18.111 19.936 C 16.936 20.179,15.755 19.715,15.054 18.734 C 14.684 18.216,14.520 17.683,14.520 17.000 C 14.520 16.186,14.766 15.543,15.299 14.965 C 15.670 14.562,16.322 14.179,16.800 14.084 C 16.921 14.060,17.056 14.032,17.100 14.022 C 17.252 13.987,18.061 14.037,18.271 14.095 " stroke="none" fill="black" fill-rule="evenodd"></path></svg>