<svg xmlns="http://www.w3.org/2000/svg" width="24" height="24" viewBox="0 0 24 24" fill="none" stroke="currentColor" stroke-width="2" stroke-linecap="round" stroke-linejoin="round" class="icon icon-tabler icons-tabler-outline icon-tabler-pencil-cog"><path d="M15.814 3.737 C 15.278 3.839,14.795 4.041,14.300 4.371 C 13.990 4.577,3.279 15.266,3.127 15.520 L 3.020 15.700 3.020 18.040 L 3.020 20.380 3.120 20.558 C 3.232 20.758,3.417 20.900,3.645 20.961 C 3.744 20.988,4.595 20.999,6.049 20.991 L 8.300 20.980 8.480 20.873 C 8.737 20.720,19.464 9.967,19.656 9.670 C 19.882 9.320,20.068 8.922,20.187 8.532 C 20.284 8.213,20.294 8.118,20.297 7.520 C 20.300 6.804,20.246 6.517,20.009 5.980 C 19.543 4.923,18.559 4.080,17.460 3.796 C 17.046 3.689,16.219 3.659,15.814 3.737 M16.982 5.742 C 17.940 5.992,18.514 6.999,18.258 7.982 C 18.176 8.297,18.037 8.526,17.745 8.832 L 17.504 9.084 16.212 7.792 L 14.921 6.501 15.141 6.279 C 15.660 5.754,16.306 5.566,16.982 5.742 M11.830 14.750 L 7.580 19.000 6.290 19.000 L 5.000 19.000 5.000 17.710 L 5.000 16.420 9.250 12.170 L 13.500 7.920 14.790 9.210 L 16.080 10.500 11.830 14.750 M18.545 14.579 C 18.320 14.659,18.128 14.863,18.059 15.096 C 18.023 15.217,18.000 15.462,18.000 15.721 L 18.000 16.148 17.708 16.292 C 17.548 16.371,17.333 16.500,17.232 16.577 L 17.047 16.718 16.654 16.495 C 16.190 16.232,15.942 16.167,15.680 16.239 C 15.342 16.331,14.969 16.847,14.930 17.278 C 14.897 17.640,15.080 17.876,15.667 18.228 L 16.014 18.437 16.017 19.002 L 16.020 19.567 15.660 19.780 C 15.272 20.009,15.043 20.223,14.961 20.431 C 14.799 20.844,15.227 21.638,15.680 21.761 C 15.944 21.833,16.212 21.764,16.668 21.505 L 17.053 21.286 17.234 21.425 C 17.335 21.501,17.548 21.629,17.708 21.708 L 18.000 21.852 18.000 22.279 C 18.000 22.963,18.137 23.255,18.537 23.422 C 18.750 23.510,19.249 23.511,19.460 23.423 C 19.864 23.254,20.000 22.965,20.000 22.277 L 20.000 21.848 20.269 21.721 C 20.418 21.652,20.632 21.525,20.746 21.439 L 20.954 21.282 21.331 21.502 C 21.942 21.858,22.304 21.879,22.636 21.579 C 22.842 21.393,23.041 21.009,23.066 20.749 C 23.105 20.358,22.939 20.136,22.340 19.778 L 21.980 19.562 21.983 18.999 L 21.986 18.437 22.333 18.228 C 22.743 17.982,22.940 17.805,23.025 17.605 C 23.213 17.165,22.799 16.371,22.312 16.237 C 22.059 16.167,21.806 16.235,21.346 16.495 L 20.953 16.718 20.768 16.577 C 20.667 16.500,20.452 16.371,20.292 16.292 L 20.000 16.148 20.000 15.721 C 20.000 15.173,19.933 14.937,19.723 14.747 C 19.636 14.669,19.497 14.586,19.413 14.563 C 19.200 14.504,18.731 14.513,18.545 14.579 M19.260 18.044 C 19.497 18.107,19.701 18.263,19.849 18.494 C 19.968 18.679,19.980 18.727,19.980 19.003 C 19.980 19.287,19.970 19.322,19.831 19.531 C 19.613 19.859,19.389 19.980,19.000 19.979 C 18.665 19.978,18.526 19.923,18.308 19.705 C 18.104 19.501,18.022 19.300,18.022 19.000 C 18.022 18.334,18.621 17.871,19.260 18.044 " stroke="none" fill="black" fill-rule="evenodd"></path></svg>