<svg xmlns="http://www.w3.org/2000/svg" width="24" height="24" viewBox="0 0 24 24" fill="none" stroke="currentColor" stroke-width="2" stroke-linecap="round" stroke-linejoin="round" class="icon icon-tabler icons-tabler-outline icon-tabler-certificate-2-off"><path d="M2.626 2.045 C 2.420 2.154,2.146 2.433,2.038 2.644 C 1.924 2.868,1.924 3.133,2.040 3.363 C 2.100 3.481,2.603 4.016,3.564 4.980 L 4.998 6.421 5.009 12.000 L 5.020 17.580 5.114 17.860 C 5.443 18.842,6.176 19.573,7.140 19.882 C 7.379 19.958,7.536 19.974,8.210 19.990 L 9.000 20.009 9.000 21.115 C 9.000 21.732,9.018 22.284,9.041 22.365 C 9.102 22.586,9.245 22.770,9.442 22.880 C 9.591 22.964,9.673 22.980,9.945 22.980 L 10.271 22.980 11.135 22.551 L 12.000 22.122 12.895 22.566 C 13.889 23.060,14.055 23.106,14.381 22.982 C 14.596 22.900,14.813 22.652,14.923 22.362 C 14.992 22.180,15.000 22.048,15.000 21.080 L 15.000 20.000 15.650 19.999 C 16.324 19.999,16.664 19.951,17.057 19.804 C 17.273 19.724,17.628 19.527,17.797 19.394 L 17.894 19.317 19.177 20.594 C 20.025 21.438,20.520 21.901,20.637 21.960 C 20.989 22.137,21.354 22.048,21.701 21.701 C 22.116 21.286,22.159 20.869,21.832 20.440 C 21.777 20.368,17.507 16.054,15.748 14.292 C 15.699 14.244,15.030 13.575,14.260 12.805 C 13.490 12.036,12.815 11.361,12.760 11.306 C 12.705 11.251,11.355 9.901,9.760 8.306 C 8.165 6.711,6.815 5.361,6.760 5.305 C 5.629 4.156,3.503 2.111,3.372 2.045 C 3.152 1.934,2.835 1.934,2.626 2.045 M7.402 2.066 C 6.853 2.175,6.328 2.476,6.215 2.747 C 6.127 2.957,6.146 3.286,6.261 3.547 C 6.539 4.175,6.882 4.320,7.572 4.099 L 7.883 4.000 11.994 4.000 C 16.641 4.000,16.377 3.983,16.697 4.303 C 17.019 4.625,17.000 4.295,17.000 9.557 C 17.000 12.557,17.015 14.272,17.041 14.365 C 17.148 14.750,17.437 14.962,17.896 14.991 C 18.381 15.022,18.699 14.882,18.880 14.558 L 18.980 14.380 18.980 9.420 L 18.980 4.460 18.886 4.160 C 18.581 3.182,17.832 2.428,16.861 2.121 L 16.540 2.020 12.120 2.013 C 8.362 2.007,7.655 2.015,7.402 2.066 M10.614 6.057 C 10.377 6.131,10.212 6.261,10.109 6.453 C 10.035 6.592,10.020 6.684,10.020 7.000 C 10.020 7.331,10.033 7.403,10.120 7.558 C 10.230 7.755,10.414 7.898,10.635 7.959 C 10.722 7.983,11.470 8.000,12.500 8.000 C 13.530 8.000,14.278 7.983,14.365 7.959 C 14.586 7.898,14.770 7.755,14.880 7.558 C 14.967 7.402,14.980 7.332,14.979 7.000 C 14.978 6.687,14.962 6.591,14.890 6.453 C 14.786 6.256,14.623 6.131,14.371 6.055 C 14.114 5.978,10.862 5.980,10.614 6.057 M9.846 11.639 C 8.916 12.242,8.304 13.141,8.082 14.228 C 7.853 15.353,8.149 16.584,8.858 17.464 C 9.004 17.646,9.021 17.688,9.007 17.838 L 8.991 18.007 8.345 17.993 C 7.728 17.981,7.692 17.975,7.516 17.872 C 7.415 17.813,7.284 17.700,7.225 17.623 C 6.990 17.314,7.000 17.537,7.000 12.785 L 7.000 8.420 8.536 9.956 L 10.073 11.493 9.846 11.639 M12.795 14.215 L 13.969 15.389 13.906 15.607 C 13.777 16.048,13.339 16.568,12.912 16.784 C 12.347 17.070,11.651 17.069,11.083 16.781 C 10.816 16.646,10.449 16.297,10.281 16.017 C 9.732 15.106,10.026 13.895,10.937 13.310 C 11.113 13.196,11.476 13.045,11.580 13.041 C 11.602 13.041,12.149 13.569,12.795 14.215 M16.440 17.883 C 16.440 17.951,16.072 18.000,15.565 18.000 L 15.000 18.000 15.000 17.903 C 15.000 17.850,14.990 17.782,14.979 17.751 C 14.967 17.721,15.044 17.588,15.149 17.457 C 15.254 17.325,15.376 17.150,15.419 17.069 L 15.498 16.920 15.969 17.389 C 16.228 17.647,16.440 17.870,16.440 17.883 M11.334 18.940 C 11.506 18.973,11.806 19.000,12.000 19.000 C 12.194 19.000,12.494 18.973,12.666 18.940 C 12.839 18.907,12.985 18.880,12.990 18.880 C 12.995 18.880,13.000 19.213,13.000 19.620 C 13.000 20.027,12.993 20.360,12.984 20.360 C 12.975 20.360,12.808 20.284,12.614 20.190 C 12.309 20.044,12.224 20.020,12.000 20.020 C 11.776 20.020,11.691 20.044,11.386 20.190 C 11.192 20.284,11.025 20.360,11.016 20.360 C 11.007 20.360,11.000 20.027,11.000 19.620 C 11.000 19.213,11.005 18.880,11.010 18.880 C 11.015 18.880,11.161 18.907,11.334 18.940 " stroke="none" fill="black" fill-rule="evenodd"></path></svg>