<svg xmlns="http://www.w3.org/2000/svg" width="24" height="24" viewBox="0 0 24 24" fill="none" stroke="currentColor" stroke-width="2" stroke-linecap="round" stroke-linejoin="round" class="icon icon-tabler icons-tabler-outline icon-tabler-brand-aws"><path d="M3.960 4.062 C 3.606 4.138,3.107 4.393,2.835 4.636 C 2.542 4.898,2.265 5.308,2.129 5.681 L 2.020 5.980 2.008 8.590 C 2.001 10.305,2.011 11.252,2.038 11.354 C 2.144 11.747,2.432 11.961,2.896 11.991 C 3.381 12.022,3.699 11.882,3.880 11.558 C 3.974 11.391,3.981 11.338,3.994 10.690 L 4.008 10.000 4.504 10.000 L 5.000 10.000 5.000 10.610 C 5.000 10.945,5.019 11.285,5.041 11.365 C 5.148 11.750,5.437 11.962,5.896 11.991 C 6.381 12.022,6.699 11.882,6.880 11.558 L 6.980 11.380 6.980 8.680 L 6.980 5.980 6.869 5.680 C 6.430 4.486,5.192 3.798,3.960 4.062 M8.619 4.072 C 8.196 4.218,8.000 4.475,8.000 4.883 C 8.000 5.003,8.278 6.493,8.622 8.220 C 9.301 11.624,9.315 11.676,9.610 11.871 C 9.822 12.012,10.216 12.041,10.523 11.939 C 10.902 11.813,11.003 11.668,11.520 10.510 C 11.773 9.944,11.989 9.480,12.000 9.480 C 12.011 9.480,12.234 9.956,12.495 10.538 C 13.010 11.686,13.128 11.871,13.421 11.982 C 13.851 12.147,14.471 11.891,14.678 11.465 C 14.731 11.355,14.988 10.163,15.383 8.196 C 16.071 4.767,16.077 4.721,15.871 4.410 C 15.713 4.171,15.401 4.030,14.984 4.009 C 14.700 3.995,14.638 4.005,14.480 4.090 C 14.143 4.271,14.110 4.362,13.756 6.125 C 13.582 6.987,13.435 7.699,13.429 7.705 C 13.422 7.711,13.294 7.439,13.144 7.101 C 12.993 6.763,12.820 6.426,12.759 6.352 C 12.531 6.075,11.973 5.897,11.659 6.000 C 11.373 6.095,11.206 6.320,10.880 7.048 C 10.716 7.415,10.577 7.710,10.571 7.704 C 10.565 7.698,10.418 6.987,10.244 6.125 C 9.890 4.365,9.856 4.269,9.524 4.093 C 9.306 3.978,8.917 3.969,8.619 4.072 M18.477 4.073 C 17.806 4.249,17.238 4.823,17.060 5.508 C 16.976 5.828,16.976 7.172,17.060 7.492 C 17.153 7.852,17.310 8.118,17.596 8.404 C 18.073 8.881,18.426 9.000,19.368 9.000 L 20.000 9.000 20.000 9.500 L 20.000 10.000 19.488 10.000 L 18.977 10.000 18.929 9.823 C 18.835 9.470,18.495 9.267,18.000 9.267 C 17.492 9.267,17.176 9.463,17.061 9.848 C 16.897 10.400,17.076 11.032,17.522 11.478 C 17.967 11.923,18.245 12.000,19.407 12.000 C 20.598 12.000,20.898 11.910,21.404 11.404 C 21.895 10.913,22.000 10.579,21.999 9.514 C 21.999 8.459,21.903 8.124,21.465 7.653 C 20.998 7.150,20.590 7.006,19.630 7.002 L 19.000 7.000 19.000 6.500 L 19.000 6.000 19.515 6.000 L 20.030 6.000 20.056 6.129 C 20.147 6.584,20.695 6.849,21.283 6.723 C 21.727 6.628,21.955 6.345,21.990 5.846 C 22.049 4.997,21.426 4.200,20.581 4.044 C 20.192 3.972,18.790 3.992,18.477 4.073 M4.724 6.062 C 4.790 6.096,4.879 6.182,4.922 6.252 C 4.992 6.368,5.000 6.457,5.000 7.190 L 5.000 8.000 4.500 8.000 L 4.000 8.000 4.000 7.198 C 4.000 6.307,4.020 6.220,4.252 6.078 C 4.406 5.984,4.563 5.979,4.724 6.062 M16.582 14.057 C 16.350 14.144,16.232 14.246,16.125 14.454 C 16.012 14.674,15.969 15.099,16.035 15.344 C 16.154 15.784,16.411 15.947,17.068 16.003 C 18.615 16.134,19.186 16.237,19.770 16.488 L 19.963 16.571 19.938 16.756 C 19.758 18.044,19.361 19.227,18.741 20.320 C 18.362 20.987,18.358 21.287,18.726 21.645 C 18.974 21.888,19.238 22.013,19.540 22.033 C 19.760 22.047,19.796 22.037,19.980 21.910 C 20.216 21.747,20.411 21.470,20.749 20.814 C 21.462 19.430,21.897 17.837,21.985 16.284 C 22.011 15.818,22.009 15.799,21.904 15.584 C 21.767 15.304,21.596 15.169,20.986 14.861 C 19.976 14.351,18.827 14.093,17.240 14.021 C 16.854 14.004,16.704 14.012,16.582 14.057 M2.610 16.044 C 2.255 16.220,1.960 16.679,1.960 17.055 C 1.960 17.454,2.206 17.707,3.340 18.476 C 5.088 19.660,7.009 20.453,9.110 20.858 C 9.574 20.947,9.745 20.960,10.470 20.960 C 12.862 20.959,15.103 20.472,17.249 19.485 C 18.009 19.136,18.191 18.737,17.895 18.075 C 17.780 17.821,17.511 17.539,17.341 17.497 C 17.103 17.437,16.785 17.504,16.300 17.717 C 14.424 18.540,12.821 18.900,10.820 18.947 C 9.937 18.968,9.825 18.963,9.420 18.882 C 7.430 18.484,5.572 17.665,3.988 16.487 C 3.741 16.304,3.455 16.111,3.351 16.057 C 3.112 15.934,2.842 15.929,2.610 16.044 " stroke="none" fill="black" fill-rule="evenodd"></path></svg>