<svg xmlns="http://www.w3.org/2000/svg" width="24" height="24" viewBox="0 0 24 24" fill="none" stroke="currentColor" stroke-width="2" stroke-linecap="round" stroke-linejoin="round" class="icon icon-tabler icons-tabler-outline icon-tabler-mailbox"><path d="M11.614 2.057 C 11.377 2.131,11.212 2.261,11.109 2.453 L 11.020 2.620 11.009 6.310 L 10.998 10.000 8.649 10.000 C 7.182 10.000,6.165 10.017,5.940 10.044 C 3.932 10.290,2.330 11.876,2.041 13.904 C 2.010 14.125,2.000 15.298,2.008 17.800 L 2.020 21.380 2.120 21.558 C 2.230 21.755,2.414 21.898,2.635 21.959 C 2.835 22.015,21.165 22.015,21.365 21.959 C 21.586 21.898,21.770 21.755,21.880 21.558 L 21.980 21.380 21.980 17.880 C 21.980 14.647,21.974 14.354,21.907 14.040 C 21.497 12.126,20.086 10.633,18.240 10.162 C 17.704 10.025,17.220 10.000,15.082 10.000 L 13.000 10.000 13.000 9.002 L 13.000 8.003 14.650 7.992 L 16.300 7.980 16.480 7.873 C 16.739 7.719,18.848 5.584,18.960 5.363 C 19.076 5.132,19.076 4.869,18.961 4.637 C 18.902 4.520,18.481 4.069,17.706 3.294 C 16.606 2.193,16.528 2.124,16.323 2.064 C 16.135 2.009,15.811 2.000,13.943 2.003 C 12.285 2.005,11.741 2.018,11.614 2.057 M16.080 4.500 L 16.579 5.000 16.080 5.500 L 15.581 6.000 14.291 6.000 L 13.000 6.000 13.000 5.000 L 13.000 4.000 14.291 4.000 L 15.581 4.000 16.080 4.500 M7.020 12.060 C 7.741 12.211,8.395 12.713,8.715 13.362 C 9.001 13.943,8.999 13.908,8.999 17.130 L 9.000 20.000 6.500 20.000 L 4.000 20.000 4.001 17.130 C 4.001 13.908,3.999 13.943,4.285 13.362 C 4.774 12.371,5.914 11.828,7.020 12.060 M17.861 12.122 C 18.823 12.425,19.577 13.179,19.878 14.139 L 19.978 14.460 19.991 17.230 L 20.004 20.000 15.503 20.000 L 11.003 20.000 10.990 16.910 C 10.977 13.881,10.975 13.814,10.889 13.491 C 10.768 13.036,10.591 12.590,10.402 12.269 L 10.244 11.997 13.892 12.009 L 17.540 12.021 17.861 12.122 M5.614 14.057 C 5.377 14.131,5.212 14.261,5.109 14.453 C 5.035 14.592,5.020 14.684,5.020 15.000 C 5.020 15.331,5.033 15.403,5.120 15.558 C 5.230 15.755,5.414 15.898,5.635 15.959 C 5.823 16.012,7.177 16.012,7.365 15.959 C 7.586 15.898,7.770 15.755,7.880 15.558 C 7.967 15.402,7.980 15.332,7.979 15.000 C 7.978 14.687,7.962 14.591,7.890 14.453 C 7.786 14.256,7.623 14.131,7.371 14.055 C 7.126 13.982,5.851 13.983,5.614 14.057 " stroke="none" fill="black" fill-rule="evenodd"></path></svg>