<svg xmlns="http://www.w3.org/2000/svg" width="24" height="24" viewBox="0 0 24 24" fill="none" stroke="currentColor" stroke-width="2" stroke-linecap="round" stroke-linejoin="round" class="icon icon-tabler icons-tabler-outline icon-tabler-shield-off"><path d="M2.626 2.045 C 2.257 2.239,1.951 2.673,1.951 3.000 C 1.951 3.307,2.079 3.487,2.853 4.270 C 3.494 4.918,3.563 5.000,3.465 5.000 C 3.118 5.000,2.785 5.197,2.636 5.489 C 2.590 5.577,2.484 5.926,2.399 6.264 C 1.692 9.077,1.966 12.080,3.174 14.745 C 3.846 16.230,4.635 17.360,5.838 18.561 C 6.977 19.698,8.147 20.530,9.480 21.151 C 10.320 21.541,11.679 22.000,11.999 22.000 C 12.182 22.000,13.012 21.757,13.660 21.513 C 14.942 21.030,16.363 20.190,17.355 19.329 L 17.651 19.073 19.055 20.472 C 19.993 21.406,20.519 21.901,20.637 21.960 C 20.989 22.137,21.354 22.048,21.701 21.701 C 22.048 21.355,22.137 20.990,21.961 20.637 C 21.897 20.509,19.722 18.308,14.146 12.728 C 3.695 2.269,3.569 2.144,3.372 2.045 C 3.152 1.934,2.835 1.934,2.626 2.045 M11.660 2.054 C 11.550 2.106,11.298 2.282,11.100 2.445 C 10.364 3.053,9.834 3.396,8.853 3.898 C 8.293 4.184,8.071 4.364,7.997 4.590 C 7.930 4.792,7.970 5.104,8.099 5.390 C 8.292 5.820,8.634 6.040,9.015 5.979 C 9.478 5.904,10.907 5.113,11.889 4.387 L 11.998 4.306 12.149 4.417 C 13.286 5.252,14.483 5.878,15.784 6.317 C 17.011 6.731,18.454 7.000,19.444 7.000 C 19.733 7.000,19.720 6.991,19.775 7.242 C 19.983 8.187,20.030 9.814,19.879 10.880 C 19.693 12.192,19.374 13.183,18.712 14.508 C 18.390 15.151,18.349 15.260,18.349 15.449 C 18.349 15.707,18.421 15.858,18.643 16.058 C 18.996 16.377,19.488 16.501,19.786 16.347 C 20.082 16.194,20.437 15.633,20.891 14.600 C 21.702 12.755,22.098 10.565,21.966 8.651 C 21.915 7.918,21.840 7.347,21.717 6.760 C 21.600 6.205,21.444 5.644,21.358 5.476 C 21.277 5.318,21.085 5.138,20.922 5.069 C 20.865 5.045,20.381 5.014,19.820 4.998 C 18.684 4.967,18.185 4.904,17.300 4.680 C 15.680 4.270,14.198 3.525,12.960 2.498 C 12.309 1.957,12.053 1.870,11.660 2.054 M10.869 12.290 L 16.238 17.660 15.969 17.883 C 14.900 18.768,13.594 19.473,12.265 19.882 L 11.991 19.966 11.605 19.839 C 10.338 19.419,9.273 18.850,8.221 18.032 C 6.268 16.513,4.807 14.194,4.281 11.776 C 3.973 10.360,3.944 8.703,4.203 7.360 C 4.278 6.973,4.245 7.001,4.633 6.996 C 4.915 6.992,5.387 6.953,5.480 6.926 C 5.491 6.923,7.916 9.336,10.869 12.290 " stroke="none" fill="black" fill-rule="evenodd"></path></svg>