<svg xmlns="http://www.w3.org/2000/svg" width="24" height="24" viewBox="0 0 24 24" fill="none" stroke="currentColor" stroke-width="2" stroke-linecap="round" stroke-linejoin="round" class="icon icon-tabler icons-tabler-outline icon-tabler-device-ipad-horizontal-check"><path d="M4.499 3.043 C 3.380 3.232,2.461 4.048,2.114 5.160 L 2.020 5.460 2.020 12.000 L 2.020 18.540 2.114 18.840 C 2.418 19.816,3.150 20.555,4.140 20.886 L 4.420 20.979 7.810 20.991 C 10.058 20.999,11.252 20.989,11.354 20.962 C 11.583 20.900,11.768 20.758,11.880 20.558 C 11.967 20.402,11.980 20.332,11.979 20.000 C 11.977 19.469,11.852 19.247,11.455 19.071 C 11.366 19.032,10.588 19.015,8.020 19.000 L 4.700 18.980 4.516 18.872 C 4.415 18.813,4.284 18.700,4.225 18.623 C 3.987 18.311,4.000 18.701,4.000 12.022 C 4.000 5.123,3.977 5.629,4.303 5.303 C 4.631 4.976,4.009 5.000,12.000 5.000 C 19.991 5.000,19.369 4.976,19.697 5.303 C 20.015 5.621,20.000 5.411,20.000 9.557 C 20.000 11.888,20.015 13.273,20.041 13.365 C 20.148 13.750,20.437 13.962,20.896 13.991 C 21.381 14.022,21.699 13.882,21.880 13.558 L 21.980 13.380 21.980 9.420 L 21.980 5.460 21.886 5.160 C 21.581 4.182,20.832 3.428,19.861 3.121 L 19.540 3.020 12.120 3.014 C 8.039 3.011,4.609 3.024,4.499 3.043 M20.620 16.046 C 20.525 16.095,19.753 16.834,18.731 17.853 L 17.001 19.577 16.271 18.854 C 15.856 18.444,15.467 18.094,15.372 18.045 C 15.021 17.868,14.640 17.958,14.299 18.299 C 13.952 18.646,13.863 19.010,14.040 19.363 C 14.162 19.607,16.393 21.838,16.637 21.960 C 16.868 22.076,17.132 22.076,17.363 21.961 C 17.486 21.899,18.197 21.215,19.706 19.706 C 21.215 18.197,21.899 17.486,21.961 17.363 C 22.137 17.010,22.048 16.645,21.701 16.299 C 21.361 15.959,20.967 15.867,20.620 16.046 M8.614 16.057 C 8.377 16.131,8.212 16.261,8.109 16.453 C 8.035 16.592,8.020 16.684,8.020 17.000 C 8.020 17.331,8.033 17.403,8.120 17.558 C 8.230 17.755,8.414 17.898,8.635 17.959 C 8.720 17.983,9.386 18.000,10.243 18.000 C 11.877 18.000,12.003 17.984,12.229 17.751 C 12.418 17.556,12.486 17.355,12.486 16.997 C 12.486 16.491,12.303 16.196,11.909 16.064 C 11.746 16.010,11.493 16.000,10.249 16.003 C 9.161 16.005,8.737 16.019,8.614 16.057 " stroke="none" fill="black" fill-rule="evenodd"></path></svg>