<svg xmlns="http://www.w3.org/2000/svg" width="24" height="24" viewBox="0 0 24 24" fill="none" stroke="currentColor" stroke-width="2" stroke-linecap="round" stroke-linejoin="round" class="icon icon-tabler icons-tabler-outline icon-tabler-ribbon-health"><path d="M11.104 2.043 C 8.882 2.350,7.150 3.990,6.781 6.135 C 6.704 6.586,6.703 7.410,6.779 7.845 C 7.077 9.541,8.328 11.853,10.652 15.008 L 10.732 15.116 10.419 15.508 C 9.340 16.858,8.090 18.318,6.744 19.800 C 6.076 20.534,5.953 20.725,5.953 21.022 C 5.953 21.493,6.530 22.047,7.022 22.047 C 7.348 22.047,7.543 21.896,8.318 21.041 C 9.463 19.779,10.396 18.700,11.398 17.480 C 11.714 17.095,11.985 16.780,11.999 16.780 C 12.014 16.780,12.284 17.095,12.600 17.480 C 14.122 19.335,16.219 21.696,16.522 21.897 C 16.737 22.039,16.943 22.078,17.170 22.021 C 17.626 21.905,18.047 21.424,18.047 21.018 C 18.047 20.734,17.921 20.530,17.381 19.940 C 16.205 18.654,14.799 17.021,13.825 15.810 C 13.284 15.138,13.272 15.118,13.332 15.026 C 13.366 14.974,13.578 14.681,13.802 14.376 C 14.027 14.070,14.444 13.469,14.730 13.040 C 16.047 11.061,16.767 9.631,17.127 8.280 C 17.288 7.675,17.328 6.793,17.223 6.165 C 17.123 5.567,16.897 4.938,16.611 4.462 C 15.891 3.264,14.662 2.403,13.240 2.100 C 12.878 2.023,11.511 1.986,11.104 2.043 M13.073 4.117 C 13.850 4.343,14.498 4.830,14.882 5.480 C 15.224 6.060,15.364 6.876,15.241 7.574 C 15.031 8.756,13.998 10.664,12.197 13.189 C 12.100 13.326,12.011 13.438,12.000 13.439 C 11.967 13.440,10.968 12.003,10.589 11.410 C 9.688 10.001,9.062 8.752,8.828 7.900 C 8.698 7.428,8.701 6.546,8.833 6.120 C 9.170 5.036,10.085 4.255,11.273 4.038 C 11.376 4.020,11.757 4.011,12.120 4.018 C 12.645 4.029,12.840 4.049,13.073 4.117 " stroke="none" fill="black" fill-rule="evenodd"></path></svg>