<svg xmlns="http://www.w3.org/2000/svg" width="24" height="24" viewBox="0 0 24 24" fill="none" stroke="currentColor" stroke-width="2" stroke-linecap="round" stroke-linejoin="round" class="icon icon-tabler icons-tabler-outline icon-tabler-bookmark-edit"><path d="M9.400 2.044 C 7.761 2.229,6.261 3.290,5.526 4.785 C 5.347 5.148,5.197 5.571,5.094 6.000 C 5.027 6.282,5.022 6.748,5.011 13.718 C 4.997 22.009,4.974 21.343,5.287 21.698 C 5.580 22.031,5.944 22.127,6.302 21.965 C 6.597 21.830,12.696 17.738,12.833 17.582 C 12.998 17.394,13.040 17.285,13.040 17.047 C 13.039 16.696,12.726 16.206,12.394 16.037 C 12.203 15.940,11.910 15.939,11.698 16.035 C 11.609 16.076,10.538 16.774,9.318 17.587 C 8.098 18.400,7.077 19.079,7.049 19.095 C 7.008 19.120,7.000 17.906,7.009 12.793 L 7.020 6.460 7.121 6.139 C 7.430 5.164,8.217 4.387,9.178 4.112 C 9.499 4.020,9.510 4.020,12.000 4.020 C 14.490 4.020,14.501 4.020,14.822 4.112 C 15.784 4.388,16.575 5.168,16.877 6.139 L 16.977 6.460 16.998 8.920 L 17.020 11.380 17.120 11.558 C 17.287 11.856,17.572 12.000,18.000 12.000 C 18.428 12.000,18.713 11.856,18.880 11.558 L 18.980 11.380 18.980 8.880 C 18.980 6.614,18.973 6.348,18.907 6.040 C 18.625 4.721,17.863 3.576,16.800 2.874 C 16.046 2.375,15.396 2.135,14.552 2.043 C 14.092 1.992,9.849 1.994,9.400 2.044 M19.351 14.039 C 18.947 14.112,18.514 14.292,18.160 14.533 C 17.879 14.725,14.247 18.313,14.126 18.520 L 14.020 18.700 14.008 20.450 C 14.001 21.570,14.012 22.255,14.038 22.354 C 14.100 22.583,14.242 22.768,14.442 22.880 L 14.620 22.980 16.460 22.980 L 18.300 22.980 18.481 22.874 C 18.746 22.718,22.383 19.000,22.554 18.710 C 22.855 18.201,22.998 17.685,22.999 17.108 C 23.001 16.205,22.675 15.462,21.996 14.824 C 21.652 14.500,21.154 14.216,20.720 14.097 C 20.460 14.025,19.620 13.989,19.351 14.039 M20.385 16.112 C 20.594 16.219,20.778 16.402,20.891 16.615 C 21.016 16.850,21.016 17.350,20.891 17.586 C 20.840 17.682,20.129 18.433,19.197 19.376 L 17.591 21.000 16.795 21.000 L 16.000 21.000 16.000 20.205 L 16.000 19.410 17.602 17.825 C 18.483 16.953,19.248 16.211,19.302 16.175 C 19.599 15.980,20.073 15.953,20.385 16.112 " stroke="none" fill="black" fill-rule="evenodd"></path></svg>