<svg xmlns="http://www.w3.org/2000/svg" width="24" height="24" viewBox="0 0 24 24" fill="none" stroke="currentColor" stroke-width="2" stroke-linecap="round" stroke-linejoin="round" class="icon icon-tabler icons-tabler-outline icon-tabler-arrows-diff"><path d="M8.626 3.045 C 8.257 3.239,7.951 3.673,7.951 4.000 C 7.951 4.333,8.056 4.467,9.353 5.770 L 10.577 7.000 6.695 7.000 C 2.539 7.000,2.605 6.997,2.322 7.199 C 2.100 7.357,2.020 7.568,2.020 8.000 C 2.020 8.331,2.033 8.403,2.120 8.558 C 2.230 8.755,2.414 8.898,2.635 8.959 C 2.728 8.985,4.190 9.000,6.679 9.000 L 10.577 9.000 9.353 10.230 C 8.548 11.039,8.099 11.521,8.040 11.637 C 7.863 11.989,7.952 12.354,8.299 12.701 C 8.646 13.048,9.011 13.137,9.363 12.960 C 9.484 12.899,10.182 12.234,11.561 10.866 C 12.673 9.763,13.634 8.826,13.696 8.785 C 13.856 8.678,14.049 8.250,14.049 8.000 C 14.049 7.734,13.858 7.325,13.675 7.200 C 13.601 7.150,12.640 6.213,11.540 5.118 C 10.232 3.817,9.482 3.099,9.372 3.044 C 9.152 2.934,8.835 2.935,8.626 3.045 M14.620 11.046 C 14.525 11.095,13.652 11.932,12.460 13.118 C 11.360 14.213,10.399 15.150,10.325 15.200 C 10.147 15.322,9.945 15.747,9.945 16.000 C 9.945 16.237,10.148 16.681,10.304 16.785 C 10.366 16.826,11.327 17.763,12.439 18.866 C 13.818 20.234,14.516 20.899,14.637 20.960 C 14.989 21.137,15.354 21.048,15.701 20.701 C 16.048 20.354,16.137 19.989,15.960 19.637 C 15.901 19.521,15.452 19.039,14.647 18.230 L 13.423 17.000 17.321 17.000 C 19.810 17.000,21.272 16.985,21.365 16.959 C 21.586 16.898,21.770 16.755,21.880 16.558 C 21.967 16.402,21.980 16.332,21.979 16.000 C 21.978 15.567,21.898 15.355,21.678 15.199 C 21.395 14.997,21.461 15.000,17.305 15.000 L 13.423 15.000 14.647 13.770 C 15.452 12.961,15.901 12.479,15.960 12.363 C 16.137 12.011,16.048 11.646,15.701 11.299 C 15.361 10.959,14.967 10.867,14.620 11.046 " stroke="none" fill="black" fill-rule="evenodd"></path></svg>