<svg xmlns="http://www.w3.org/2000/svg" width="24" height="24" viewBox="0 0 24 24" fill="none" stroke="currentColor" stroke-width="2" stroke-linecap="round" stroke-linejoin="round" class="icon icon-tabler icons-tabler-outline icon-tabler-currency-riyal"><path d="M14.614 8.057 C 14.377 8.131,14.212 8.261,14.109 8.453 C 14.024 8.613,14.019 8.673,13.999 9.940 C 13.984 10.847,13.962 11.295,13.929 11.373 C 13.843 11.570,13.673 11.761,13.484 11.872 C 13.328 11.963,13.254 11.980,13.000 11.980 C 12.746 11.980,12.672 11.963,12.516 11.872 C 12.326 11.760,12.155 11.568,12.072 11.373 C 12.044 11.305,12.015 10.932,12.001 10.440 C 11.974 9.510,11.934 9.369,11.649 9.182 C 11.199 8.887,10.426 8.979,10.170 9.358 C 10.027 9.571,10.000 9.740,10.000 10.444 C 10.000 11.362,9.905 11.624,9.484 11.872 C 9.328 11.963,9.254 11.980,9.000 11.980 C 8.746 11.980,8.672 11.963,8.516 11.872 C 8.326 11.760,8.155 11.568,8.072 11.373 C 8.044 11.305,8.015 10.932,8.001 10.440 C 7.979 9.696,7.969 9.604,7.888 9.450 C 7.726 9.141,7.330 8.970,6.874 9.011 C 6.439 9.051,6.141 9.274,6.041 9.635 C 6.016 9.724,6.000 10.618,6.000 11.944 C 6.000 14.292,5.997 14.332,5.779 14.618 C 5.718 14.698,5.585 14.813,5.484 14.872 C 5.328 14.963,5.254 14.980,5.000 14.980 C 4.746 14.980,4.672 14.963,4.516 14.872 C 4.327 14.760,4.156 14.569,4.072 14.373 C 4.038 14.296,4.016 13.843,4.001 12.940 C 3.980 11.666,3.977 11.614,3.889 11.450 C 3.724 11.141,3.329 10.970,2.874 11.011 C 2.431 11.051,2.138 11.276,2.037 11.652 C 2.008 11.757,1.999 12.285,2.009 13.196 C 2.024 14.508,2.029 14.595,2.116 14.860 C 2.438 15.842,3.184 16.582,4.160 16.886 C 4.594 17.021,5.406 17.021,5.840 16.886 C 6.239 16.762,6.609 16.563,6.891 16.321 C 7.575 15.736,7.933 15.046,7.988 14.208 C 8.006 13.929,8.025 13.841,8.064 13.856 C 8.303 13.948,8.528 13.977,9.000 13.978 C 9.457 13.979,9.586 13.965,9.839 13.886 C 10.221 13.766,10.530 13.609,10.792 13.402 L 11.000 13.238 11.208 13.402 C 11.470 13.609,11.779 13.766,12.161 13.886 C 12.593 14.021,13.406 14.021,13.840 13.886 C 14.826 13.579,15.578 12.827,15.886 11.840 C 15.977 11.548,15.980 11.499,15.980 10.080 C 15.980 8.647,15.978 8.617,15.891 8.453 C 15.842 8.362,15.746 8.247,15.678 8.199 C 15.414 8.010,14.957 7.950,14.614 8.057 M21.614 9.057 C 21.376 9.132,21.212 9.261,21.111 9.453 C 21.030 9.606,21.021 9.700,20.995 10.600 C 20.966 11.604,20.925 11.909,20.762 12.344 C 20.353 13.438,19.548 14.272,18.479 14.711 C 18.104 14.865,17.456 15.000,17.090 15.000 C 16.596 15.000,16.271 15.150,16.109 15.453 C 16.035 15.592,16.020 15.684,16.020 16.000 C 16.020 16.331,16.033 16.403,16.120 16.558 C 16.320 16.916,16.604 17.020,17.282 16.987 C 18.769 16.915,20.126 16.319,21.195 15.269 C 22.067 14.413,22.618 13.400,22.886 12.160 C 22.966 11.785,22.976 11.627,22.978 10.680 C 22.980 9.659,22.977 9.614,22.891 9.453 C 22.842 9.362,22.746 9.247,22.678 9.199 C 22.414 9.010,21.957 8.950,21.614 9.057 M17.614 11.057 C 17.221 11.180,17.039 11.435,17.009 11.906 C 16.962 12.621,17.306 13.000,18.000 13.000 C 18.698 13.000,19.043 12.616,18.989 11.900 C 18.963 11.563,18.859 11.327,18.678 11.199 C 18.414 11.010,17.957 10.950,17.614 11.057 " stroke="none" fill="black" fill-rule="evenodd"></path></svg>