<svg xmlns="http://www.w3.org/2000/svg" width="24" height="24" viewBox="0 0 24 24" fill="none" stroke="currentColor" stroke-width="2" stroke-linecap="round" stroke-linejoin="round" class="icon icon-tabler icons-tabler-outline icon-tabler-resize"><path d="M4.477 3.073 C 3.806 3.249,3.238 3.823,3.060 4.508 C 2.990 4.777,2.976 6.131,3.041 6.365 C 3.148 6.750,3.437 6.962,3.896 6.991 C 4.381 7.022,4.699 6.882,4.880 6.558 C 4.974 6.391,4.981 6.338,4.994 5.690 L 5.008 5.000 5.614 5.000 C 5.947 5.000,6.285 4.981,6.365 4.959 C 6.586 4.898,6.770 4.755,6.880 4.558 C 6.967 4.402,6.980 4.332,6.979 4.000 C 6.978 3.687,6.962 3.591,6.890 3.453 C 6.786 3.256,6.623 3.131,6.371 3.055 C 6.091 2.971,4.822 2.983,4.477 3.073 M10.614 3.057 C 10.377 3.131,10.212 3.261,10.109 3.453 C 10.035 3.592,10.020 3.684,10.020 4.000 C 10.020 4.331,10.033 4.403,10.120 4.558 C 10.230 4.755,10.414 4.898,10.635 4.959 C 10.826 5.012,13.174 5.012,13.365 4.959 C 13.586 4.898,13.770 4.755,13.880 4.558 C 13.967 4.402,13.980 4.332,13.979 4.000 C 13.978 3.687,13.962 3.591,13.890 3.453 C 13.786 3.256,13.623 3.131,13.371 3.055 C 13.117 2.979,10.859 2.981,10.614 3.057 M17.614 3.057 C 17.377 3.131,17.212 3.261,17.109 3.453 C 17.035 3.592,17.020 3.684,17.020 4.000 C 17.020 4.331,17.033 4.403,17.120 4.558 C 17.230 4.755,17.414 4.898,17.635 4.959 C 17.715 4.981,18.055 5.000,18.390 5.000 L 19.000 5.000 19.000 5.610 C 19.000 5.946,19.019 6.285,19.041 6.365 C 19.148 6.750,19.437 6.962,19.896 6.991 C 20.381 7.022,20.699 6.882,20.880 6.558 C 20.976 6.388,20.981 6.345,20.993 5.600 C 21.012 4.489,20.918 4.141,20.465 3.653 C 20.198 3.366,19.870 3.164,19.523 3.073 C 19.189 2.986,17.876 2.975,17.614 3.057 M3.614 10.057 C 3.377 10.131,3.212 10.261,3.109 10.453 L 3.020 10.620 3.009 14.920 C 3.002 17.811,3.012 19.286,3.041 19.423 C 3.148 19.941,3.602 20.538,4.070 20.775 C 4.529 21.008,4.362 21.000,8.978 21.000 C 11.696 21.000,13.272 20.985,13.365 20.959 C 13.586 20.898,13.770 20.755,13.880 20.558 C 13.967 20.402,13.980 20.332,13.979 20.000 C 13.978 19.685,13.963 19.591,13.888 19.450 C 13.773 19.232,13.551 19.086,13.244 19.028 L 13.000 18.982 12.999 15.881 C 12.999 12.527,12.998 12.510,12.781 12.083 C 12.646 11.816,12.297 11.449,12.017 11.281 C 11.550 11.000,11.620 11.005,8.135 11.002 L 5.010 11.000 4.983 10.794 C 4.948 10.531,4.835 10.310,4.678 10.199 C 4.414 10.010,3.957 9.950,3.614 10.057 M19.614 10.057 C 19.377 10.131,19.212 10.261,19.109 10.453 C 19.023 10.614,19.020 10.665,19.008 11.908 C 19.000 12.720,19.011 13.254,19.038 13.352 C 19.144 13.747,19.432 13.961,19.896 13.991 C 20.381 14.022,20.699 13.882,20.880 13.558 L 20.980 13.380 20.980 12.000 C 20.980 10.650,20.978 10.616,20.891 10.453 C 20.842 10.362,20.746 10.247,20.678 10.199 C 20.414 10.010,19.957 9.950,19.614 10.057 M11.000 16.000 L 11.000 19.000 8.000 19.000 L 5.000 19.000 5.000 16.000 L 5.000 13.000 8.000 13.000 L 11.000 13.000 11.000 16.000 M19.614 17.057 C 19.377 17.131,19.212 17.261,19.109 17.453 C 19.029 17.603,19.019 17.689,19.007 18.310 L 18.993 19.000 18.403 19.000 C 17.577 19.000,17.299 19.097,17.109 19.453 C 17.035 19.592,17.020 19.684,17.020 20.000 C 17.020 20.331,17.033 20.403,17.120 20.558 C 17.230 20.755,17.414 20.898,17.635 20.959 C 17.869 21.024,19.223 21.010,19.492 20.940 C 19.852 20.847,20.118 20.690,20.404 20.404 C 20.913 19.895,21.013 19.559,20.993 18.421 C 20.980 17.687,20.971 17.606,20.890 17.453 C 20.842 17.362,20.746 17.247,20.678 17.199 C 20.414 17.010,19.957 16.950,19.614 17.057 " stroke="none" fill="black" fill-rule="evenodd"></path></svg>