<svg xmlns="http://www.w3.org/2000/svg" width="24" height="24" viewBox="0 0 24 24" fill="none" stroke="currentColor" stroke-width="2" stroke-linecap="round" stroke-linejoin="round" class="icon icon-tabler icons-tabler-outline icon-tabler-tooltip"><path d="M6.499 3.043 C 5.379 3.233,4.461 4.048,4.114 5.160 C 4.021 5.458,4.020 5.473,4.020 7.500 C 4.020 9.527,4.021 9.542,4.114 9.840 C 4.419 10.817,5.156 11.561,6.140 11.884 C 6.409 11.973,6.480 11.977,8.000 11.991 L 9.580 12.005 10.520 12.938 C 11.521 13.930,11.679 14.049,12.000 14.049 C 12.321 14.049,12.479 13.930,13.480 12.938 L 14.420 12.005 16.000 11.991 C 17.520 11.977,17.591 11.973,17.860 11.884 C 18.844 11.561,19.581 10.817,19.886 9.840 C 19.979 9.542,19.980 9.527,19.980 7.500 C 19.980 5.473,19.979 5.458,19.886 5.160 C 19.581 4.182,18.832 3.428,17.861 3.121 L 17.540 3.020 12.120 3.014 C 9.139 3.011,6.609 3.024,6.499 3.043 M17.310 5.061 C 17.589 5.144,17.856 5.411,17.939 5.690 C 18.024 5.976,18.029 9.010,17.945 9.290 C 17.872 9.533,17.707 9.740,17.484 9.872 L 17.300 9.980 15.640 10.003 C 14.649 10.017,13.931 10.043,13.858 10.068 C 13.440 10.212,13.252 10.347,12.630 10.956 L 12.000 11.573 11.370 10.956 C 10.748 10.347,10.560 10.212,10.142 10.068 C 10.069 10.043,9.351 10.017,8.360 10.003 L 6.700 9.980 6.516 9.872 C 6.303 9.747,6.141 9.550,6.058 9.316 C 5.971 9.067,5.973 5.986,6.061 5.690 C 6.140 5.421,6.412 5.143,6.673 5.063 C 6.963 4.974,17.010 4.972,17.310 5.061 M11.499 15.040 C 10.363 15.246,9.460 16.049,9.114 17.160 C 8.979 17.594,8.979 18.406,9.114 18.840 C 9.421 19.826,10.174 20.579,11.160 20.886 C 11.412 20.964,11.547 20.979,12.000 20.979 C 12.453 20.979,12.588 20.964,12.840 20.886 C 13.826 20.579,14.579 19.826,14.886 18.840 C 15.021 18.406,15.021 17.594,14.886 17.160 C 14.581 16.179,13.810 15.407,12.861 15.129 C 12.500 15.023,11.832 14.980,11.499 15.040 M12.310 17.061 C 12.688 17.173,13.000 17.598,13.000 18.001 C 13.000 18.331,12.784 18.696,12.484 18.872 C 12.328 18.963,12.254 18.980,12.000 18.980 C 11.746 18.980,11.672 18.963,11.516 18.872 C 10.935 18.530,10.833 17.774,11.304 17.303 C 11.583 17.024,11.916 16.944,12.310 17.061 " stroke="none" fill="black" fill-rule="evenodd"></path></svg>