<svg xmlns="http://www.w3.org/2000/svg" width="24" height="24" viewBox="0 0 24 24" fill="none" stroke="currentColor" stroke-width="2" stroke-linecap="round" stroke-linejoin="round" class="icon icon-tabler icons-tabler-outline icon-tabler-adjustments-plus"><path d="M5.614 3.057 C 5.377 3.131,5.212 3.261,5.109 3.453 C 5.022 3.617,5.020 3.656,5.000 5.387 L 4.980 7.153 4.660 7.317 C 3.919 7.698,3.363 8.360,3.114 9.160 C 2.979 9.594,2.979 10.406,3.114 10.840 C 3.365 11.645,3.931 12.318,4.670 12.688 L 5.000 12.853 5.000 16.537 C 5.000 18.881,5.015 20.273,5.041 20.365 C 5.148 20.750,5.437 20.962,5.896 20.991 C 6.381 21.022,6.699 20.882,6.880 20.558 L 6.980 20.380 7.000 16.613 L 7.020 12.845 7.340 12.684 C 8.072 12.314,8.637 11.640,8.886 10.840 C 9.021 10.406,9.021 9.594,8.886 9.160 C 8.637 8.360,8.081 7.698,7.340 7.317 L 7.020 7.153 7.000 5.387 C 6.980 3.656,6.978 3.617,6.891 3.453 C 6.842 3.362,6.746 3.247,6.678 3.199 C 6.414 3.010,5.957 2.950,5.614 3.057 M11.614 3.057 C 11.377 3.131,11.212 3.261,11.109 3.453 L 11.020 3.620 11.009 8.388 L 10.999 13.155 10.701 13.298 C 9.971 13.649,9.393 14.316,9.127 15.113 C 9.039 15.379,9.025 15.491,9.023 15.960 C 9.020 16.591,9.075 16.845,9.326 17.360 C 9.465 17.647,9.554 17.763,9.895 18.101 C 10.227 18.430,10.363 18.534,10.650 18.679 L 11.000 18.855 11.000 19.537 C 11.000 19.913,11.019 20.285,11.041 20.365 C 11.148 20.750,11.437 20.962,11.896 20.991 C 12.381 21.022,12.699 20.882,12.880 20.558 L 12.980 20.380 12.992 19.094 C 13.000 18.273,12.990 17.750,12.963 17.650 C 12.851 17.236,12.588 17.051,12.038 17.000 C 11.487 16.948,11.189 16.734,11.057 16.295 C 10.983 16.050,10.985 15.898,11.066 15.660 C 11.194 15.285,11.606 15.000,12.020 15.000 C 12.240 15.000,12.514 15.121,12.697 15.300 C 12.843 15.441,12.892 15.529,12.976 15.801 C 13.092 16.179,13.195 16.347,13.393 16.484 C 13.593 16.621,14.125 16.623,14.420 16.487 C 14.662 16.377,14.831 16.224,14.905 16.051 C 15.064 15.679,14.865 14.859,14.478 14.297 C 14.197 13.888,13.565 13.383,13.151 13.237 L 13.002 13.184 12.991 8.402 L 12.980 3.620 12.891 3.453 C 12.842 3.362,12.746 3.247,12.678 3.199 C 12.414 3.010,11.957 2.950,11.614 3.057 M17.614 3.057 C 17.229 3.178,17.041 3.435,17.009 3.885 L 16.990 4.150 16.665 4.316 C 15.922 4.693,15.364 5.357,15.114 6.160 C 14.979 6.594,14.979 7.406,15.114 7.840 C 15.365 8.645,15.931 9.318,16.670 9.688 L 17.000 9.853 17.000 11.037 C 17.000 11.706,17.018 12.283,17.041 12.365 C 17.148 12.750,17.437 12.962,17.896 12.991 C 18.381 13.022,18.699 12.882,18.880 12.558 C 18.979 12.381,18.980 12.373,19.000 11.113 L 19.020 9.845 19.340 9.684 C 20.072 9.314,20.637 8.640,20.886 7.840 C 21.021 7.406,21.021 6.594,20.886 6.160 C 20.636 5.357,20.078 4.693,19.335 4.316 L 19.011 4.151 18.988 3.879 C 18.961 3.561,18.853 3.323,18.678 3.199 C 18.414 3.010,17.957 2.950,17.614 3.057 M18.310 6.061 C 18.688 6.173,19.000 6.598,19.000 7.001 C 19.000 7.331,18.784 7.696,18.484 7.872 C 18.328 7.963,18.254 7.980,18.000 7.980 C 17.746 7.980,17.672 7.963,17.516 7.872 C 16.935 7.530,16.833 6.774,17.304 6.303 C 17.583 6.024,17.916 5.944,18.310 6.061 M6.310 9.061 C 6.688 9.173,7.000 9.598,7.000 10.001 C 7.000 10.331,6.784 10.696,6.484 10.872 C 6.328 10.963,6.254 10.980,6.000 10.980 C 5.746 10.980,5.672 10.963,5.516 10.872 C 4.935 10.530,4.833 9.774,5.304 9.303 C 5.583 9.024,5.916 8.944,6.310 9.061 M18.614 15.057 C 18.377 15.131,18.212 15.261,18.109 15.453 C 18.024 15.613,18.020 15.668,18.008 16.810 L 17.996 18.000 16.904 18.000 C 15.744 18.000,15.570 18.022,15.322 18.199 C 15.100 18.357,15.020 18.568,15.020 19.000 C 15.020 19.331,15.033 19.403,15.120 19.558 C 15.230 19.755,15.414 19.898,15.635 19.959 C 15.716 19.982,16.270 20.000,16.890 20.000 L 18.000 20.000 18.000 21.110 C 18.000 21.730,18.018 22.284,18.041 22.365 C 18.148 22.750,18.437 22.962,18.896 22.991 C 19.381 23.022,19.699 22.882,19.880 22.558 C 19.979 22.381,19.980 22.374,19.993 21.190 L 20.005 20.000 21.113 20.000 C 21.731 20.000,22.284 19.982,22.365 19.959 C 22.586 19.898,22.770 19.755,22.880 19.558 C 22.967 19.402,22.980 19.332,22.979 19.000 C 22.978 18.567,22.898 18.355,22.678 18.199 C 22.430 18.022,22.256 18.000,21.096 18.000 L 20.005 18.000 19.993 16.810 C 19.981 15.669,19.976 15.613,19.891 15.453 C 19.842 15.362,19.746 15.247,19.678 15.199 C 19.414 15.010,18.957 14.950,18.614 15.057 " stroke="none" fill="black" fill-rule="evenodd"></path></svg>