<svg xmlns="http://www.w3.org/2000/svg" width="24" height="24" viewBox="0 0 24 24" fill="none" stroke="currentColor" stroke-width="2" stroke-linecap="round" stroke-linejoin="round" class="icon icon-tabler icons-tabler-outline icon-tabler-share-3"><path d="M12.682 3.004 C 12.512 3.072,12.244 3.318,12.130 3.512 L 12.020 3.700 12.008 5.442 L 11.997 7.185 11.748 7.236 C 11.325 7.322,10.240 7.699,9.692 7.948 C 6.686 9.320,4.445 11.998,3.077 15.852 C 2.538 17.370,1.969 19.647,2.013 20.105 C 2.062 20.604,2.424 20.949,2.944 20.990 C 3.334 21.022,3.522 20.913,4.185 20.272 C 7.089 17.464,9.479 15.826,11.535 15.234 C 11.753 15.171,11.946 15.120,11.965 15.120 C 11.984 15.120,12.000 15.817,12.000 16.670 C 12.000 17.585,12.017 18.279,12.041 18.365 C 12.102 18.586,12.245 18.770,12.442 18.880 C 12.593 18.965,12.671 18.980,12.960 18.980 C 13.211 18.979,13.335 18.961,13.433 18.907 C 13.586 18.824,21.490 11.929,21.756 11.647 C 21.853 11.544,21.958 11.397,21.991 11.320 C 22.115 11.024,22.023 10.645,21.755 10.352 C 21.470 10.039,13.517 3.126,13.349 3.045 C 13.163 2.954,12.854 2.935,12.682 3.004 M16.740 8.603 C 18.225 9.902,19.440 10.981,19.440 11.000 C 19.440 11.033,14.060 15.760,14.023 15.760 C 14.014 15.760,14.000 15.279,13.993 14.690 C 13.981 13.663,13.976 13.613,13.888 13.448 C 13.767 13.221,13.502 13.054,13.206 13.016 C 12.926 12.981,12.151 13.051,11.620 13.159 C 9.745 13.543,7.486 14.773,5.250 16.629 C 5.003 16.834,4.800 16.992,4.800 16.980 C 4.800 16.925,5.177 15.928,5.353 15.518 C 6.650 12.491,8.617 10.456,11.160 9.508 C 11.671 9.318,12.142 9.189,12.859 9.044 C 13.540 8.906,13.712 8.818,13.880 8.518 C 13.979 8.343,13.980 8.325,13.992 7.290 C 13.999 6.713,14.013 6.240,14.023 6.240 C 14.033 6.240,15.256 7.303,16.740 8.603 " stroke="none" fill="black" fill-rule="evenodd"></path></svg>