<svg xmlns="http://www.w3.org/2000/svg" width="24" height="24" viewBox="0 0 24 24" fill="none" stroke="currentColor" stroke-width="2" stroke-linecap="round" stroke-linejoin="round" class="icon icon-tabler icons-tabler-outline icon-tabler-stack-2"><path d="M11.641 3.002 C 11.587 3.025,11.487 3.086,11.419 3.138 C 11.351 3.190,9.533 4.114,7.378 5.192 C 5.223 6.270,3.386 7.206,3.295 7.272 C 3.059 7.445,2.943 7.703,2.972 7.988 C 3.000 8.260,3.162 8.601,3.330 8.742 C 3.400 8.801,5.316 9.778,7.589 10.914 L 11.722 12.980 12.000 12.980 L 12.278 12.980 16.409 10.914 C 18.681 9.778,20.614 8.794,20.705 8.728 C 20.941 8.555,21.057 8.297,21.028 8.012 C 21.000 7.740,20.838 7.399,20.671 7.258 C 20.602 7.200,18.798 6.280,16.663 5.213 C 14.527 4.146,12.683 3.207,12.565 3.126 C 12.370 2.993,12.323 2.979,12.045 2.971 C 11.877 2.965,11.696 2.980,11.641 3.002 M14.860 6.550 C 16.433 7.336,17.720 7.989,17.720 8.000 C 17.720 8.011,16.433 8.664,14.860 9.450 L 12.000 10.880 9.140 9.450 C 7.567 8.664,6.280 8.011,6.280 8.000 C 6.280 7.985,11.936 5.134,11.990 5.122 C 11.995 5.121,13.287 5.763,14.860 6.550 M3.570 11.042 C 3.263 11.198,3.015 11.603,2.972 12.016 C 2.943 12.297,3.061 12.556,3.295 12.728 C 3.386 12.794,5.319 13.778,7.591 14.914 L 11.722 16.980 12.000 16.980 L 12.278 16.980 16.409 14.914 C 18.681 13.778,20.614 12.794,20.705 12.728 C 21.070 12.460,21.130 12.028,20.872 11.522 C 20.654 11.095,20.346 10.917,19.934 10.979 C 19.805 10.998,18.567 11.597,15.874 12.943 L 12.000 14.880 8.110 12.936 C 4.532 11.149,4.201 10.991,3.980 10.974 C 3.787 10.959,3.707 10.972,3.570 11.042 M3.570 15.042 C 3.263 15.198,3.015 15.603,2.972 16.016 C 2.943 16.297,3.061 16.556,3.295 16.728 C 3.386 16.794,5.319 17.778,7.591 18.914 L 11.722 20.980 12.000 20.980 L 12.278 20.980 16.409 18.914 C 18.681 17.778,20.614 16.794,20.705 16.728 C 21.070 16.460,21.130 16.028,20.872 15.522 C 20.654 15.095,20.346 14.917,19.934 14.979 C 19.805 14.998,18.567 15.597,15.874 16.943 L 12.000 18.880 8.110 16.936 C 4.532 15.149,4.201 14.991,3.980 14.974 C 3.787 14.959,3.707 14.972,3.570 15.042 " stroke="none" fill="black" fill-rule="evenodd"></path></svg>