<svg xmlns="http://www.w3.org/2000/svg" width="24" height="24" viewBox="0 0 24 24" fill="none" stroke="currentColor" stroke-width="2" stroke-linecap="round" stroke-linejoin="round" class="icon icon-tabler icons-tabler-outline icon-tabler-arrow-up-square"><path d="M11.530 2.083 C 11.393 2.150,11.249 2.252,11.210 2.310 C 11.172 2.369,10.463 3.101,9.635 3.938 C 8.635 4.949,8.099 5.520,8.040 5.637 C 7.863 5.989,7.952 6.354,8.299 6.701 C 8.646 7.048,9.012 7.137,9.363 6.959 C 9.469 6.905,9.832 6.580,10.270 6.147 L 11.000 5.425 11.000 10.709 L 11.000 15.993 10.329 16.007 C 9.701 16.019,9.645 16.027,9.459 16.122 C 9.245 16.233,9.105 16.404,9.041 16.635 C 8.986 16.831,8.986 21.169,9.041 21.365 C 9.102 21.586,9.245 21.770,9.442 21.880 L 9.620 21.980 11.911 21.991 C 13.392 21.999,14.256 21.988,14.355 21.961 C 14.583 21.900,14.768 21.758,14.880 21.558 L 14.980 21.380 14.980 19.000 L 14.980 16.620 14.891 16.453 C 14.700 16.097,14.423 16.000,13.594 16.000 L 13.000 16.000 13.000 10.712 L 13.000 5.425 13.730 6.147 C 14.168 6.580,14.531 6.905,14.637 6.959 C 14.988 7.137,15.354 7.048,15.701 6.701 C 16.048 6.354,16.137 5.989,15.960 5.637 C 15.901 5.520,15.365 4.949,14.365 3.938 C 13.537 3.101,12.828 2.369,12.789 2.310 C 12.751 2.252,12.604 2.149,12.464 2.082 C 12.120 1.918,11.871 1.918,11.530 2.083 M13.000 19.000 L 13.000 20.000 12.000 20.000 L 11.000 20.000 11.000 19.000 L 11.000 18.000 12.000 18.000 L 13.000 18.000 13.000 19.000 " stroke="none" fill="black" fill-rule="evenodd"></path></svg>