<svg xmlns="http://www.w3.org/2000/svg" width="24" height="24" viewBox="0 0 24 24" fill="none" stroke="currentColor" stroke-width="2" stroke-linecap="round" stroke-linejoin="round" class="icon icon-tabler icons-tabler-outline icon-tabler-arrow-capsule"><path d="M11.540 2.023 C 10.715 2.102,10.250 2.200,9.620 2.427 C 7.203 3.297,5.474 5.417,5.073 8.000 C 4.996 8.493,4.996 15.507,5.073 16.000 C 5.552 19.090,7.881 21.425,10.980 21.926 C 11.392 21.992,12.607 21.992,13.020 21.926 C 16.108 21.428,18.442 19.093,18.924 16.020 C 18.952 15.844,18.976 15.457,18.977 15.160 C 18.980 14.675,18.971 14.603,18.891 14.453 C 18.689 14.076,18.138 13.902,17.629 14.055 C 17.179 14.191,17.045 14.408,16.996 15.078 C 16.951 15.706,16.926 15.890,16.838 16.240 C 16.493 17.615,15.496 18.844,14.212 19.476 C 13.467 19.842,12.862 19.980,12.000 19.980 C 11.330 19.980,10.956 19.922,10.400 19.732 C 8.808 19.188,7.575 17.858,7.162 16.240 C 7.016 15.670,7.000 15.247,7.000 12.000 C 7.000 8.753,7.016 8.330,7.162 7.760 C 7.607 6.015,9.009 4.613,10.760 4.161 C 11.693 3.920,12.875 3.983,13.752 4.320 C 14.120 4.461,14.569 4.703,14.900 4.939 C 16.001 5.723,16.796 7.031,16.942 8.300 L 16.969 8.540 16.255 7.835 C 15.855 7.441,15.466 7.093,15.372 7.045 C 15.021 6.868,14.640 6.958,14.299 7.299 C 13.952 7.646,13.863 8.011,14.040 8.363 C 14.099 8.480,14.635 9.051,15.635 10.062 C 16.463 10.899,17.174 11.634,17.216 11.697 C 17.318 11.850,17.762 12.049,18.000 12.049 C 18.238 12.049,18.682 11.850,18.784 11.697 C 18.826 11.634,19.537 10.899,20.365 10.062 C 21.365 9.051,21.901 8.480,21.960 8.363 C 22.137 8.011,22.048 7.646,21.701 7.299 C 21.360 6.958,20.979 6.868,20.628 7.045 C 20.533 7.094,20.144 7.443,19.731 7.852 C 19.276 8.302,18.996 8.552,18.986 8.516 C 18.977 8.485,18.949 8.282,18.924 8.064 C 18.869 7.582,18.764 7.149,18.573 6.620 C 17.715 4.237,15.581 2.473,13.102 2.098 C 12.726 2.041,11.813 1.997,11.540 2.023 " stroke="none" fill="black" fill-rule="evenodd"></path></svg>