<svg xmlns="http://www.w3.org/2000/svg" width="24" height="24" viewBox="0 0 24 24" fill="none" stroke="currentColor" stroke-width="2" stroke-linecap="round" stroke-linejoin="round" class="icon icon-tabler icons-tabler-outline icon-tabler-corner-down-right"><path d="M5.614 5.057 C 5.377 5.131,5.212 5.261,5.109 5.453 L 5.020 5.620 5.009 8.989 C 4.999 12.271,5.000 12.370,5.082 12.768 C 5.357 14.119,6.247 15.194,7.512 15.704 C 7.700 15.779,8.028 15.877,8.243 15.921 C 8.616 15.997,8.799 16.000,12.605 16.000 L 16.577 16.000 15.353 17.230 C 14.548 18.039,14.099 18.521,14.040 18.637 C 13.863 18.989,13.952 19.354,14.299 19.701 C 14.646 20.048,15.011 20.137,15.363 19.960 C 15.484 19.899,16.182 19.234,17.561 17.866 C 18.673 16.763,19.634 15.826,19.696 15.784 C 19.850 15.682,20.049 15.239,20.049 14.998 C 20.049 14.889,20.013 14.743,19.961 14.637 C 19.840 14.396,15.612 10.164,15.372 10.044 C 15.019 9.868,14.639 9.959,14.299 10.299 C 13.952 10.646,13.863 11.011,14.040 11.363 C 14.099 11.479,14.548 11.961,15.353 12.770 L 16.577 14.000 12.657 14.000 C 8.414 14.000,8.525 14.005,8.088 13.784 C 7.675 13.575,7.242 13.071,7.090 12.623 C 7.028 12.440,7.020 12.091,7.001 9.020 L 6.980 5.620 6.891 5.453 C 6.842 5.362,6.746 5.247,6.678 5.199 C 6.414 5.010,5.957 4.950,5.614 5.057 " stroke="none" fill="black" fill-rule="evenodd"></path></svg>