<svg xmlns="http://www.w3.org/2000/svg" width="24" height="24" viewBox="0 0 24 24" fill="none" stroke="currentColor" stroke-width="2" stroke-linecap="round" stroke-linejoin="round" class="icon icon-tabler icons-tabler-outline icon-tabler-window-off"><path d="M2.626 2.045 C 2.420 2.154,2.146 2.433,2.038 2.644 C 1.924 2.868,1.924 3.133,2.040 3.363 C 2.099 3.480,2.596 4.010,3.519 4.940 L 4.909 6.340 4.737 6.700 C 4.405 7.391,4.171 8.207,4.061 9.052 C 3.970 9.751,3.969 20.144,4.060 20.492 C 4.153 20.852,4.310 21.118,4.596 21.404 C 4.882 21.690,5.148 21.847,5.508 21.940 C 5.853 22.030,18.147 22.030,18.492 21.940 C 18.855 21.846,19.119 21.690,19.415 21.393 L 19.690 21.118 20.079 21.495 C 20.293 21.702,20.546 21.912,20.641 21.961 C 20.987 22.137,21.355 22.047,21.701 21.701 C 22.048 21.354,22.137 20.989,21.959 20.637 C 21.888 20.496,20.638 19.170,19.748 18.293 C 19.556 18.103,13.854 12.400,13.760 12.304 C 13.705 12.247,13.480 12.022,13.260 11.803 C 13.040 11.585,12.815 11.361,12.760 11.305 C 8.434 6.972,3.506 2.111,3.372 2.044 C 3.152 1.934,2.835 1.935,2.626 2.045 M11.220 2.045 C 10.370 2.126,9.463 2.376,8.685 2.744 C 7.861 3.134,7.308 3.536,7.198 3.825 C 7.087 4.118,7.214 4.558,7.503 4.878 C 7.883 5.299,8.261 5.308,8.880 4.912 C 9.410 4.572,10.266 4.221,10.790 4.128 L 11.000 4.091 11.000 6.155 C 11.000 7.415,11.016 8.276,11.041 8.365 C 11.148 8.750,11.437 8.962,11.896 8.991 C 12.381 9.022,12.699 8.882,12.880 8.558 L 12.980 8.380 13.000 6.235 L 13.020 4.091 13.380 4.178 C 15.644 4.724,17.455 6.644,17.904 8.974 C 17.950 9.212,17.972 9.664,17.988 10.650 L 18.009 12.000 17.411 12.000 C 16.576 12.000,16.300 12.096,16.109 12.453 C 16.035 12.592,16.020 12.684,16.020 13.000 C 16.020 13.331,16.033 13.403,16.120 13.558 C 16.230 13.755,16.414 13.898,16.635 13.959 C 16.715 13.981,17.055 14.000,17.390 14.000 L 18.000 14.000 18.000 14.610 C 18.000 14.945,18.019 15.285,18.041 15.365 C 18.148 15.750,18.437 15.962,18.896 15.991 C 19.381 16.022,19.699 15.882,19.880 15.558 L 19.980 15.380 19.980 12.320 C 19.980 10.007,19.967 9.177,19.928 8.920 C 19.364 5.241,16.395 2.404,12.726 2.041 C 12.253 1.994,11.741 1.996,11.220 2.045 M8.500 9.920 L 10.580 12.000 8.286 12.000 L 5.991 12.000 6.012 10.630 C 6.029 9.459,6.043 9.205,6.112 8.880 C 6.182 8.552,6.387 7.840,6.412 7.840 C 6.417 7.840,7.356 8.776,8.500 9.920 M11.000 17.000 L 11.000 20.000 8.500 20.000 L 6.000 20.000 6.000 17.000 L 6.000 14.000 8.500 14.000 L 11.000 14.000 11.000 17.000 M18.000 19.710 L 18.000 20.000 15.500 20.000 L 13.000 20.000 13.000 17.210 L 13.000 14.420 15.500 16.920 L 18.000 19.420 18.000 19.710 " stroke="none" fill="black" fill-rule="evenodd"></path></svg>