<svg xmlns="http://www.w3.org/2000/svg" width="24" height="24" viewBox="0 0 24 24" fill="none" stroke="currentColor" stroke-width="2" stroke-linecap="round" stroke-linejoin="round" class="icon icon-tabler icons-tabler-outline icon-tabler-column-insert-left"><path d="M13.477 3.073 C 12.806 3.249,12.238 3.823,12.060 4.508 C 12.008 4.707,12.000 5.691,12.000 12.000 C 12.000 19.922,11.987 19.460,12.225 19.930 C 12.361 20.199,12.801 20.639,13.070 20.775 C 13.509 20.997,13.545 21.000,16.000 21.000 C 18.455 21.000,18.491 20.997,18.930 20.775 C 19.196 20.640,19.638 20.200,19.771 19.937 C 20.014 19.459,20.000 19.929,19.999 12.014 C 19.999 4.156,20.009 4.532,19.781 4.083 C 19.646 3.816,19.297 3.449,19.017 3.281 C 18.564 3.008,18.524 3.005,16.000 3.005 C 13.992 3.005,13.711 3.012,13.477 3.073 M18.000 12.000 L 18.000 19.000 16.000 19.000 L 14.000 19.000 14.000 12.000 L 14.000 5.000 16.000 5.000 L 18.000 5.000 18.000 12.000 M6.614 9.057 C 6.377 9.131,6.212 9.261,6.109 9.453 C 6.029 9.603,6.019 9.689,6.007 10.310 L 5.993 11.000 5.403 11.000 C 4.577 11.000,4.299 11.097,4.109 11.453 C 4.035 11.592,4.020 11.684,4.020 12.000 C 4.020 12.331,4.033 12.403,4.120 12.558 C 4.230 12.755,4.414 12.898,4.635 12.959 C 4.715 12.981,5.054 13.000,5.390 13.000 L 6.000 13.000 6.000 13.610 C 6.000 13.945,6.019 14.285,6.041 14.365 C 6.148 14.750,6.437 14.962,6.896 14.991 C 7.381 15.022,7.699 14.882,7.880 14.558 C 7.974 14.391,7.981 14.338,7.994 13.690 L 8.008 13.000 8.614 13.000 C 8.947 13.000,9.285 12.981,9.365 12.959 C 9.586 12.898,9.770 12.755,9.880 12.558 C 9.967 12.402,9.980 12.332,9.979 12.000 C 9.978 11.687,9.962 11.591,9.890 11.453 C 9.702 11.098,9.423 11.000,8.598 11.000 L 8.008 11.000 7.993 10.310 C 7.976 9.541,7.930 9.378,7.678 9.199 C 7.414 9.010,6.957 8.950,6.614 9.057 " stroke="none" fill="black" fill-rule="evenodd"></path></svg>