<svg xmlns="http://www.w3.org/2000/svg" width="24" height="24" viewBox="0 0 24 24" fill="none" stroke="currentColor" stroke-width="2" stroke-linecap="round" stroke-linejoin="round" class="icon icon-tabler icons-tabler-outline icon-tabler-device-ipad-minus"><path d="M5.499 2.043 C 4.380 2.233,3.461 3.048,3.114 4.160 L 3.020 4.460 3.020 12.000 L 3.020 19.540 3.114 19.840 C 3.418 20.816,4.150 21.554,5.140 21.886 L 5.420 21.980 9.020 21.993 C 11.635 22.002,12.678 21.993,12.833 21.959 C 13.261 21.866,13.486 21.537,13.486 21.003 C 13.486 20.656,13.418 20.446,13.248 20.267 C 13.001 20.007,13.219 20.022,9.280 20.000 L 5.700 19.980 5.516 19.872 C 5.415 19.813,5.284 19.700,5.225 19.623 C 4.986 19.309,5.000 19.795,5.000 12.022 C 5.000 4.006,4.975 4.631,5.303 4.303 C 5.629 3.977,5.126 4.000,12.000 4.000 C 18.874 4.000,18.371 3.977,18.697 4.303 C 19.021 4.627,19.000 4.236,19.000 10.057 C 19.000 13.392,19.015 15.271,19.041 15.365 C 19.148 15.750,19.437 15.962,19.896 15.991 C 20.381 16.022,20.699 15.882,20.880 15.558 L 20.980 15.380 20.980 9.920 L 20.980 4.460 20.886 4.160 C 20.581 3.182,19.832 2.428,18.861 2.121 L 18.540 2.020 12.120 2.014 C 8.589 2.011,5.609 2.024,5.499 2.043 M8.614 17.057 C 8.377 17.131,8.212 17.261,8.109 17.453 C 8.035 17.592,8.020 17.684,8.020 18.000 C 8.020 18.331,8.033 18.403,8.120 18.558 C 8.230 18.755,8.414 18.898,8.635 18.959 C 8.722 18.983,9.470 19.000,10.500 19.000 C 11.530 19.000,12.278 18.983,12.365 18.959 C 12.586 18.898,12.770 18.755,12.880 18.558 C 12.967 18.402,12.980 18.332,12.979 18.000 C 12.978 17.687,12.962 17.591,12.890 17.453 C 12.786 17.256,12.623 17.131,12.371 17.055 C 12.114 16.978,8.862 16.980,8.614 17.057 M15.614 18.057 C 15.377 18.131,15.212 18.261,15.109 18.453 C 15.035 18.592,15.020 18.684,15.020 19.000 C 15.020 19.331,15.033 19.403,15.120 19.558 C 15.230 19.755,15.414 19.898,15.635 19.959 C 15.832 20.014,22.168 20.014,22.365 19.959 C 22.586 19.898,22.770 19.755,22.880 19.558 C 22.967 19.402,22.980 19.332,22.979 19.000 C 22.978 18.567,22.898 18.355,22.678 18.199 C 22.398 17.999,22.411 18.000,18.984 18.003 C 16.472 18.005,15.744 18.017,15.614 18.057 " stroke="none" fill="black" fill-rule="evenodd"></path></svg>