<svg xmlns="http://www.w3.org/2000/svg" width="24" height="24" viewBox="0 0 24 24" fill="none" stroke="currentColor" stroke-width="2" stroke-linecap="round" stroke-linejoin="round" class="icon icon-tabler icons-tabler-outline icon-tabler-brand-valorant"><path d="M2.640 5.047 C 2.377 5.180,2.142 5.433,2.064 5.667 C 2.005 5.847,1.999 6.177,2.009 9.083 C 2.019 12.098,2.025 12.308,2.092 12.432 C 2.132 12.505,3.558 14.191,5.262 16.179 C 7.939 19.302,8.385 19.805,8.550 19.886 L 8.740 19.980 11.473 19.991 C 13.236 19.998,14.259 19.987,14.357 19.961 C 14.584 19.900,14.769 19.758,14.879 19.558 C 14.963 19.408,14.979 19.327,14.979 19.040 C 14.980 18.761,14.964 18.673,14.892 18.552 C 14.735 18.286,3.615 5.184,3.460 5.082 C 3.243 4.939,2.883 4.924,2.640 5.047 M20.678 5.062 C 20.578 5.093,20.430 5.177,20.351 5.249 C 20.193 5.391,13.826 13.218,13.614 13.530 C 13.460 13.758,13.410 14.022,13.478 14.249 C 13.536 14.442,13.835 14.774,14.059 14.894 C 14.219 14.979,14.235 14.980,16.760 14.980 L 19.300 14.980 19.480 14.873 C 19.702 14.741,21.803 12.634,21.906 12.440 C 21.976 12.307,21.980 12.140,21.980 8.960 L 21.980 5.620 21.891 5.453 C 21.690 5.077,21.172 4.910,20.678 5.062 M7.782 13.200 C 9.780 15.565,11.513 17.613,11.632 17.750 L 11.850 18.000 10.655 18.000 L 9.460 17.999 6.730 14.813 L 4.000 11.626 4.000 10.184 C 4.000 8.777,4.002 8.744,4.074 8.821 C 4.115 8.865,5.784 10.835,7.782 13.200 M19.291 12.289 L 18.581 13.000 17.591 13.000 L 16.602 13.000 18.291 10.921 L 19.980 8.843 19.991 10.211 L 20.001 11.578 19.291 12.289 " stroke="none" fill="black" fill-rule="evenodd"></path></svg>