<svg xmlns="http://www.w3.org/2000/svg" width="24" height="24" viewBox="0 0 24 24" fill="none" stroke="currentColor" stroke-width="2" stroke-linecap="round" stroke-linejoin="round" class="icon icon-tabler icons-tabler-outline icon-tabler-hemisphere-off"><path d="M2.626 2.045 C 2.257 2.239,1.951 2.673,1.951 3.000 C 1.951 3.336,2.053 3.463,3.423 4.840 L 4.717 6.140 4.254 6.358 C 3.022 6.937,2.283 7.665,2.059 8.520 C 2.002 8.734,1.995 8.889,2.014 9.400 C 2.180 13.734,5.138 17.467,9.334 18.637 C 11.590 19.267,14.094 19.063,16.180 18.081 L 16.500 17.930 18.480 19.901 C 19.838 21.252,20.516 21.899,20.637 21.960 C 20.989 22.137,21.354 22.048,21.701 21.701 C 22.048 21.355,22.137 20.990,21.961 20.637 C 21.885 20.487,18.574 17.128,12.747 11.293 C 10.749 9.292,3.631 2.221,3.560 2.167 C 3.263 1.942,2.910 1.895,2.626 2.045 M10.880 5.025 C 10.125 5.062,9.680 5.118,9.527 5.197 C 9.193 5.367,9.061 5.645,9.086 6.126 C 9.111 6.628,9.327 6.934,9.733 7.044 C 9.849 7.075,10.117 7.075,10.687 7.044 C 13.407 6.894,16.108 7.185,18.080 7.840 C 18.289 7.909,18.696 8.081,18.985 8.221 C 19.391 8.418,19.565 8.529,19.755 8.709 C 19.890 8.837,20.000 8.965,20.000 8.993 C 20.000 9.021,19.921 9.128,19.824 9.232 C 19.291 9.801,17.752 10.378,15.960 10.680 C 15.256 10.798,15.167 10.831,14.953 11.044 C 14.742 11.255,14.691 11.435,14.733 11.836 C 14.770 12.192,14.949 12.527,15.163 12.642 C 15.381 12.758,15.646 12.762,16.238 12.659 C 17.555 12.429,18.432 12.189,19.449 11.780 C 19.502 11.759,19.483 11.832,19.360 12.121 C 19.072 12.795,18.714 13.390,18.207 14.037 C 17.862 14.478,17.800 14.605,17.800 14.866 C 17.800 15.117,17.923 15.360,18.153 15.565 C 18.535 15.905,18.921 15.981,19.258 15.783 C 19.543 15.616,20.111 14.912,20.568 14.158 C 21.460 12.688,22.000 10.788,22.000 9.124 C 22.000 8.407,21.788 7.907,21.261 7.378 C 20.086 6.200,17.637 5.392,14.360 5.100 C 13.693 5.040,11.516 4.993,10.880 5.025 M7.880 9.303 L 9.460 10.887 9.240 10.861 C 7.188 10.615,5.455 10.124,4.540 9.529 C 4.294 9.369,4.000 9.077,4.000 8.992 C 4.000 8.965,4.105 8.841,4.234 8.716 C 4.411 8.544,4.590 8.428,4.964 8.243 C 5.359 8.048,6.178 7.722,6.280 7.720 C 6.291 7.720,7.011 8.433,7.880 9.303 M4.860 11.901 C 6.385 12.500,8.563 12.890,10.906 12.983 L 11.591 13.011 13.299 14.719 L 15.008 16.428 14.514 16.592 C 12.536 17.247,10.411 17.110,8.540 16.206 C 6.986 15.455,5.760 14.280,4.947 12.760 C 4.787 12.462,4.468 11.760,4.492 11.760 C 4.497 11.760,4.662 11.824,4.860 11.901 " stroke="none" fill="black" fill-rule="evenodd"></path></svg>