<svg xmlns="http://www.w3.org/2000/svg" width="24" height="24" viewBox="0 0 24 24" fill="none" stroke="currentColor" stroke-width="2" stroke-linecap="round" stroke-linejoin="round" class="icon icon-tabler icons-tabler-outline icon-tabler-squares-selected"><path d="M5.499 3.043 C 4.379 3.234,3.461 4.048,3.114 5.160 L 3.020 5.460 3.020 10.000 L 3.020 14.540 3.114 14.840 C 3.419 15.818,4.166 16.570,5.140 16.882 C 5.379 16.958,5.536 16.974,6.205 16.990 L 6.991 17.009 7.010 17.795 C 7.026 18.466,7.042 18.620,7.119 18.860 C 7.317 19.474,7.684 20.002,8.167 20.370 C 8.505 20.626,8.747 20.753,9.140 20.883 C 9.412 20.973,9.476 20.977,11.440 21.004 C 12.551 21.020,13.478 21.032,13.500 21.032 C 13.522 21.032,14.674 21.019,16.060 21.004 C 18.549 20.977,18.583 20.976,18.860 20.885 C 19.835 20.563,20.563 19.835,20.885 18.860 C 20.976 18.583,20.977 18.549,21.004 16.060 C 21.019 14.674,21.032 13.522,21.032 13.500 C 21.032 13.478,21.020 12.551,21.004 11.440 C 20.977 9.476,20.973 9.412,20.883 9.140 C 20.556 8.149,19.794 7.395,18.840 7.118 C 18.594 7.046,18.401 7.027,17.775 7.011 L 17.009 6.991 16.990 6.205 C 16.974 5.536,16.958 5.379,16.882 5.140 C 16.573 4.174,15.823 3.425,14.861 3.121 L 14.540 3.020 10.120 3.014 C 7.689 3.011,5.609 3.024,5.499 3.043 M14.310 5.061 C 14.452 5.103,14.571 5.178,14.697 5.303 C 14.947 5.554,15.000 5.751,15.000 6.442 L 15.000 6.989 12.390 6.996 C 10.936 7.000,9.670 7.020,9.532 7.042 C 8.401 7.219,7.488 8.012,7.115 9.140 C 7.024 9.417,7.023 9.451,6.996 11.940 C 6.981 13.326,6.965 14.478,6.960 14.500 C 6.956 14.522,6.965 14.645,6.982 14.774 L 7.012 15.007 6.356 14.994 C 5.727 14.981,5.692 14.976,5.516 14.872 C 5.303 14.747,5.141 14.550,5.058 14.316 C 4.969 14.062,4.971 5.992,5.061 5.690 C 5.140 5.421,5.412 5.143,5.673 5.063 C 5.962 4.974,14.011 4.972,14.310 5.061 M10.560 10.540 L 9.020 12.080 9.009 10.993 C 8.997 9.703,9.016 9.590,9.303 9.303 C 9.584 9.022,9.675 9.006,10.980 9.003 L 12.100 9.000 10.560 10.540 M13.300 13.280 L 9.020 17.560 9.009 16.231 L 8.999 14.901 11.949 11.951 L 14.900 9.000 16.240 9.000 L 17.580 9.000 13.300 13.280 M16.051 16.049 L 13.100 19.000 11.760 19.000 L 10.420 19.000 14.700 14.720 L 18.980 10.440 18.991 11.769 L 19.001 13.099 16.051 16.049 M18.961 18.224 C 18.905 18.484,18.724 18.731,18.486 18.871 L 18.300 18.980 17.100 18.992 L 15.900 19.003 17.440 17.461 L 18.980 15.920 18.992 16.970 C 19.000 17.630,18.988 18.096,18.961 18.224 " stroke="none" fill="black" fill-rule="evenodd"></path></svg>