<svg xmlns="http://www.w3.org/2000/svg" width="24" height="24" viewBox="0 0 24 24" fill="none" stroke="currentColor" stroke-width="2" stroke-linecap="round" stroke-linejoin="round" class="icon icon-tabler icons-tabler-outline icon-tabler-hexagon-number-5"><path d="M11.542 1.044 C 11.206 1.093,10.917 1.183,10.607 1.334 C 10.326 1.471,3.711 5.363,3.400 5.574 C 2.940 5.886,2.556 6.345,2.298 6.892 C 2.004 7.516,2.023 7.205,2.009 11.720 C 1.999 15.327,2.005 15.816,2.062 16.100 C 2.197 16.773,2.552 17.405,3.043 17.852 C 3.266 18.054,4.217 18.675,6.849 20.339 C 8.779 21.559,10.434 22.596,10.527 22.644 C 11.438 23.109,12.561 23.109,13.471 22.645 C 13.630 22.564,20.226 18.402,20.600 18.147 C 21.088 17.814,21.516 17.281,21.752 16.712 C 22.005 16.102,22.000 16.202,22.000 11.844 C 22.000 7.576,22.004 7.665,21.787 7.068 C 21.605 6.567,21.270 6.102,20.812 5.713 C 20.635 5.563,19.382 4.802,17.082 3.447 C 15.178 2.326,13.548 1.372,13.460 1.329 C 12.903 1.057,12.187 0.950,11.542 1.044 M12.595 3.138 C 12.880 3.282,18.999 6.893,19.338 7.116 C 19.491 7.217,19.675 7.378,19.748 7.473 C 20.012 7.819,20.003 7.655,19.991 11.943 L 19.980 15.820 19.872 16.025 C 19.812 16.138,19.709 16.284,19.643 16.351 C 19.481 16.513,12.718 20.790,12.440 20.906 C 12.151 21.027,11.850 21.027,11.560 20.907 C 11.284 20.791,4.519 16.513,4.356 16.350 C 4.290 16.284,4.188 16.138,4.128 16.025 L 4.020 15.820 4.020 11.860 L 4.020 7.900 4.129 7.693 C 4.190 7.578,4.301 7.425,4.376 7.353 C 4.561 7.174,11.452 3.117,11.680 3.052 C 11.947 2.976,12.350 3.013,12.595 3.138 M9.614 7.057 C 9.377 7.131,9.212 7.261,9.109 7.453 C 9.020 7.619,9.020 7.629,9.009 9.911 C 9.001 11.392,9.012 12.256,9.039 12.355 C 9.100 12.583,9.242 12.768,9.442 12.880 L 9.620 12.980 11.310 12.992 L 13.000 13.003 13.000 14.002 L 13.000 15.000 12.005 15.000 L 11.010 15.000 10.983 14.794 C 10.930 14.393,10.743 14.167,10.371 14.055 C 9.861 13.902,9.305 14.077,9.113 14.453 C 9.008 14.659,8.973 15.095,9.037 15.404 C 9.148 15.941,9.595 16.534,10.070 16.775 C 10.479 16.982,10.632 17.000,12.000 17.000 C 13.368 17.000,13.521 16.982,13.930 16.775 C 14.196 16.640,14.638 16.200,14.771 15.937 C 14.979 15.527,15.000 15.352,14.999 14.014 C 14.999 12.682,14.974 12.463,14.781 12.083 C 14.646 11.816,14.297 11.449,14.017 11.281 C 13.609 11.035,13.405 11.005,12.130 11.002 L 11.000 11.000 11.000 10.000 L 11.000 9.000 12.610 9.000 C 13.565 9.000,14.279 8.983,14.365 8.959 C 14.586 8.898,14.770 8.755,14.880 8.558 C 14.967 8.402,14.980 8.332,14.979 8.000 C 14.978 7.567,14.898 7.355,14.678 7.199 C 14.406 7.005,14.336 7.000,11.984 7.003 C 10.293 7.005,9.741 7.017,9.614 7.057 " stroke="none" fill="black" fill-rule="evenodd"></path></svg>