<svg xmlns="http://www.w3.org/2000/svg" width="24" height="24" viewBox="0 0 24 24" fill="none" stroke="currentColor" stroke-width="2" stroke-linecap="round" stroke-linejoin="round" class="icon icon-tabler icons-tabler-outline icon-tabler-news-off"><path d="M2.626 2.045 C 2.257 2.239,1.951 2.673,1.951 3.000 C 1.951 3.278,2.081 3.486,2.567 3.983 L 3.003 4.430 3.001 10.895 C 2.998 17.295,2.999 17.364,3.082 17.769 C 3.357 19.118,4.247 20.194,5.512 20.704 C 5.700 20.779,6.030 20.877,6.246 20.921 C 6.632 21.000,6.769 21.001,12.590 20.990 C 18.530 20.979,18.540 20.979,18.800 20.894 C 18.943 20.848,19.110 20.786,19.171 20.758 C 19.280 20.707,19.289 20.715,19.871 21.288 C 20.203 21.615,20.537 21.908,20.637 21.959 C 20.988 22.137,21.353 22.049,21.701 21.701 C 22.048 21.354,22.137 20.990,21.960 20.637 C 21.887 20.492,19.510 18.054,16.747 15.293 C 14.525 13.071,12.837 11.384,12.760 11.306 C 12.705 11.250,10.608 9.163,8.100 6.667 C 5.004 3.585,3.486 2.101,3.372 2.044 C 3.152 1.934,2.835 1.935,2.626 2.045 M7.614 3.057 C 7.377 3.131,7.212 3.261,7.109 3.453 C 7.035 3.592,7.020 3.684,7.020 4.000 C 7.020 4.331,7.033 4.403,7.120 4.558 C 7.230 4.755,7.414 4.898,7.635 4.959 C 7.727 4.985,9.095 5.000,11.390 5.000 L 15.000 5.000 15.000 8.610 C 15.000 10.905,15.015 12.273,15.041 12.365 C 15.148 12.750,15.437 12.962,15.896 12.991 C 16.381 13.022,16.699 12.882,16.880 12.558 L 16.980 12.380 16.991 9.690 L 17.003 7.000 18.001 7.000 L 19.000 7.000 19.000 11.610 C 19.000 14.575,19.015 16.272,19.041 16.365 C 19.148 16.750,19.437 16.962,19.896 16.991 C 20.381 17.022,20.699 16.882,20.880 16.558 L 20.980 16.380 20.991 11.590 C 21.003 6.380,21.008 6.530,20.782 6.083 C 20.646 5.816,20.297 5.449,20.017 5.281 C 19.609 5.035,19.404 5.005,18.139 5.002 L 17.018 5.000 16.969 4.692 C 16.942 4.523,16.869 4.275,16.806 4.141 C 16.665 3.839,16.321 3.464,16.017 3.281 C 15.543 2.995,15.691 3.005,11.520 3.005 C 8.562 3.005,7.745 3.016,7.614 3.057 M8.609 11.000 C 7.686 11.019,7.652 11.023,7.459 11.122 C 7.119 11.297,6.978 11.606,7.009 12.104 C 7.038 12.563,7.250 12.852,7.635 12.959 C 7.723 12.984,8.531 13.000,9.680 13.000 L 11.580 13.000 13.290 14.710 L 15.000 16.420 15.001 17.360 C 15.001 18.238,15.032 18.580,15.142 18.926 C 15.165 18.998,15.041 19.000,10.951 19.000 C 6.381 19.000,6.527 19.007,6.083 18.781 C 5.816 18.646,5.449 18.297,5.281 18.017 C 4.989 17.532,5.005 17.884,5.002 11.840 L 5.000 6.420 7.280 8.700 L 9.561 10.980 8.609 11.000 M7.614 15.057 C 7.377 15.131,7.212 15.261,7.109 15.453 C 7.035 15.592,7.020 15.684,7.020 16.000 C 7.020 16.331,7.033 16.403,7.120 16.558 C 7.230 16.755,7.414 16.898,7.635 16.959 C 7.831 17.014,12.169 17.014,12.365 16.959 C 12.586 16.898,12.770 16.755,12.880 16.558 C 12.967 16.402,12.980 16.332,12.979 16.000 C 12.978 15.567,12.898 15.355,12.678 15.199 C 12.406 15.005,12.336 15.000,9.984 15.003 C 8.293 15.005,7.741 15.017,7.614 15.057 " stroke="none" fill="black" fill-rule="evenodd"></path></svg>