<svg xmlns="http://www.w3.org/2000/svg" width="24" height="24" viewBox="0 0 24 24" fill="none" stroke="currentColor" stroke-width="2" stroke-linecap="round" stroke-linejoin="round" class="icon icon-tabler icons-tabler-outline icon-tabler-microwave"><path d="M3.477 5.073 C 2.806 5.249,2.238 5.823,2.060 6.508 C 2.008 6.705,2.000 7.464,2.000 12.000 C 2.000 17.733,1.990 17.466,2.225 17.930 C 2.361 18.199,2.801 18.639,3.070 18.775 C 3.542 19.014,2.983 19.000,12.000 19.000 C 21.017 19.000,20.458 19.014,20.930 18.775 C 21.196 18.640,21.638 18.200,21.771 17.937 C 22.010 17.466,22.000 17.732,21.999 12.014 C 21.999 6.337,22.006 6.525,21.781 6.083 C 21.646 5.816,21.297 5.449,21.017 5.281 C 20.523 4.983,21.217 5.005,12.000 5.005 C 4.321 5.005,3.721 5.009,3.477 5.073 M14.000 12.000 L 14.000 17.000 9.000 17.000 L 4.000 17.000 4.000 12.000 L 4.000 7.000 9.000 7.000 L 14.000 7.000 14.000 12.000 M20.000 12.000 L 20.000 17.000 18.000 17.000 L 16.000 17.000 16.000 12.000 L 16.000 7.000 18.000 7.000 L 20.000 7.000 20.000 12.000 M17.614 8.055 C 17.220 8.184,17.039 8.437,17.009 8.900 C 16.978 9.381,17.119 9.699,17.442 9.880 C 17.597 9.967,17.669 9.980,18.000 9.980 C 18.312 9.980,18.408 9.964,18.540 9.894 C 18.866 9.718,19.000 9.459,19.000 9.000 C 19.000 8.357,18.713 8.048,18.083 8.016 C 17.893 8.006,17.718 8.021,17.614 8.055 M7.213 9.074 C 6.876 9.160,6.340 9.409,6.009 9.634 C 5.542 9.951,5.388 10.232,5.475 10.609 C 5.564 10.998,5.925 11.433,6.227 11.517 C 6.527 11.600,6.658 11.564,7.184 11.252 C 7.670 10.965,7.748 10.956,8.100 11.143 C 9.367 11.816,9.986 12.026,10.599 11.990 C 11.024 11.964,11.378 11.847,11.728 11.615 C 12.203 11.299,12.559 10.813,12.560 10.478 C 12.561 9.999,11.881 9.391,11.415 9.454 C 11.181 9.487,11.042 9.563,10.773 9.806 C 10.576 9.985,10.534 10.006,10.416 9.987 C 10.224 9.956,9.577 9.672,9.183 9.446 C 8.495 9.052,7.808 8.922,7.213 9.074 M17.614 11.055 C 17.220 11.184,17.039 11.437,17.009 11.900 C 16.978 12.381,17.119 12.699,17.442 12.880 C 17.597 12.967,17.669 12.980,18.000 12.980 C 18.312 12.980,18.408 12.964,18.540 12.894 C 18.866 12.718,19.000 12.459,19.000 12.000 C 19.000 11.357,18.713 11.048,18.083 11.016 C 17.893 11.006,17.718 11.021,17.614 11.055 M7.213 12.074 C 6.876 12.160,6.340 12.409,6.009 12.634 C 5.542 12.951,5.388 13.232,5.475 13.609 C 5.564 13.998,5.925 14.433,6.227 14.517 C 6.527 14.600,6.658 14.564,7.184 14.252 C 7.670 13.965,7.748 13.956,8.100 14.143 C 9.367 14.816,9.986 15.026,10.599 14.990 C 11.024 14.964,11.378 14.847,11.728 14.615 C 12.203 14.299,12.559 13.813,12.560 13.478 C 12.561 12.999,11.881 12.391,11.415 12.454 C 11.181 12.487,11.042 12.563,10.773 12.806 C 10.576 12.985,10.534 13.006,10.416 12.987 C 10.224 12.956,9.577 12.672,9.183 12.446 C 8.495 12.052,7.808 11.922,7.213 12.074 M17.614 14.055 C 17.220 14.184,17.039 14.437,17.009 14.900 C 16.978 15.381,17.119 15.699,17.442 15.880 C 17.597 15.967,17.669 15.980,18.000 15.980 C 18.312 15.980,18.408 15.964,18.540 15.894 C 18.866 15.718,19.000 15.459,19.000 15.000 C 19.000 14.357,18.713 14.048,18.083 14.016 C 17.893 14.006,17.718 14.021,17.614 14.055 " stroke="none" fill="black" fill-rule="evenodd"></path></svg>