<svg xmlns="http://www.w3.org/2000/svg" width="24" height="24" viewBox="0 0 24 24" fill="none" stroke="currentColor" stroke-width="2" stroke-linecap="round" stroke-linejoin="round" class="icon icon-tabler icons-tabler-outline icon-tabler-arrow-iteration"><path d="M7.842 4.043 C 4.969 4.320,2.626 6.503,2.095 9.399 C 2.014 9.839,1.975 11.121,2.035 11.344 C 2.145 11.748,2.428 11.961,2.896 11.991 C 3.380 12.022,3.700 11.881,3.877 11.562 C 3.965 11.401,3.976 11.323,4.004 10.643 C 4.020 10.229,4.063 9.759,4.100 9.582 C 4.569 7.339,6.691 5.789,8.955 6.034 C 10.252 6.175,11.340 6.800,12.128 7.857 C 13.271 9.388,13.271 11.609,12.129 13.143 C 11.402 14.120,10.414 14.731,9.225 14.938 C 8.925 14.990,8.395 15.000,5.841 15.000 C 2.604 15.000,2.601 15.000,2.322 15.199 C 2.100 15.357,2.020 15.568,2.020 16.000 C 2.020 16.331,2.033 16.403,2.120 16.558 C 2.230 16.755,2.414 16.898,2.635 16.959 C 2.730 16.986,5.510 17.000,10.678 17.000 L 18.575 17.000 17.853 17.730 C 17.420 18.168,17.095 18.531,17.041 18.637 C 16.863 18.988,16.952 19.354,17.299 19.701 C 17.646 20.048,18.011 20.137,18.363 19.960 C 18.480 19.901,19.051 19.365,20.062 18.365 C 20.899 17.537,21.634 16.826,21.697 16.784 C 21.850 16.682,22.049 16.238,22.049 16.000 C 22.049 15.745,21.851 15.321,21.676 15.201 C 21.601 15.150,20.865 14.438,20.040 13.618 C 19.085 12.670,18.479 12.098,18.372 12.044 C 18.020 11.868,17.639 11.959,17.299 12.299 C 16.952 12.646,16.863 13.012,17.041 13.363 C 17.095 13.469,17.420 13.832,17.853 14.270 L 18.575 15.000 15.887 15.000 L 13.199 15.000 13.444 14.710 C 14.862 13.026,15.344 10.791,14.739 8.699 C 14.218 6.897,12.916 5.384,11.220 4.609 C 10.136 4.113,9.033 3.929,7.842 4.043 " stroke="none" fill="black" fill-rule="evenodd"></path></svg>