<svg xmlns="http://www.w3.org/2000/svg" width="24" height="24" viewBox="0 0 24 24" fill="none" stroke="currentColor" stroke-width="2" stroke-linecap="round" stroke-linejoin="round" class="icon icon-tabler icons-tabler-outline icon-tabler-bell-ringing"><path d="M5.460 2.035 C 5.131 2.185,4.176 3.121,3.576 3.881 C 3.142 4.431,2.624 5.248,2.298 5.897 C 1.935 6.620,1.888 6.853,2.047 7.159 C 2.281 7.612,3.025 7.892,3.437 7.682 C 3.656 7.570,3.753 7.437,4.089 6.792 C 4.666 5.685,5.097 5.101,6.009 4.187 C 6.379 3.817,6.719 3.440,6.766 3.349 C 6.892 3.101,6.854 2.795,6.659 2.501 C 6.340 2.020,5.882 1.842,5.460 2.035 M17.771 2.080 C 17.560 2.202,17.284 2.518,17.203 2.733 C 17.141 2.895,17.150 3.167,17.223 3.341 C 17.263 3.436,17.485 3.685,17.826 4.014 C 18.752 4.911,19.335 5.686,19.901 6.773 C 20.247 7.437,20.343 7.569,20.563 7.682 C 20.975 7.892,21.719 7.612,21.953 7.159 C 22.108 6.859,22.064 6.621,21.724 5.939 C 21.081 4.649,20.158 3.424,19.132 2.497 C 18.894 2.283,18.628 2.074,18.540 2.034 C 18.292 1.922,18.019 1.938,17.771 2.080 M11.499 2.040 C 10.389 2.242,9.473 3.037,9.139 4.090 C 9.055 4.357,9.049 4.365,8.767 4.538 C 7.862 5.096,6.970 5.956,6.363 6.856 C 5.849 7.617,5.469 8.462,5.244 9.341 C 5.042 10.129,5.029 10.285,5.001 12.280 L 4.975 14.180 4.871 14.472 C 4.642 15.112,4.157 15.720,3.591 16.077 C 3.126 16.369,2.975 16.639,3.009 17.115 C 3.041 17.565,3.255 17.854,3.635 17.959 C 3.724 17.984,4.600 18.000,5.890 18.000 L 8.000 18.000 8.000 18.184 C 8.000 18.466,8.151 19.144,8.289 19.479 C 8.714 20.516,9.490 21.292,10.512 21.704 C 12.558 22.528,14.877 21.538,15.704 19.488 C 15.854 19.115,16.000 18.473,16.000 18.184 L 16.000 18.000 18.110 18.000 L 20.220 17.999 20.423 17.905 C 20.876 17.694,21.162 17.046,20.986 16.629 C 20.911 16.451,20.756 16.306,20.373 16.053 C 19.798 15.673,19.359 15.114,19.129 14.472 L 19.025 14.180 18.999 12.280 C 18.971 10.285,18.958 10.129,18.756 9.341 C 18.252 7.369,16.952 5.599,15.233 4.538 C 14.951 4.365,14.945 4.357,14.861 4.090 C 14.567 3.165,13.787 2.400,12.861 2.129 C 12.500 2.023,11.832 1.980,11.499 2.040 M12.310 4.061 C 12.704 4.178,13.000 4.598,13.000 5.040 C 13.000 5.261,13.108 5.533,13.252 5.672 C 13.322 5.740,13.551 5.889,13.760 6.002 C 14.256 6.271,14.592 6.500,14.955 6.815 C 15.936 7.665,16.658 8.929,16.906 10.230 C 16.960 10.510,16.979 10.961,17.001 12.480 C 17.019 13.739,17.045 14.441,17.076 14.560 C 17.196 15.009,17.334 15.404,17.473 15.690 L 17.624 16.000 12.000 16.000 L 6.376 16.000 6.527 15.690 C 6.666 15.404,6.804 15.009,6.924 14.560 C 6.955 14.441,6.981 13.739,6.999 12.480 C 7.021 10.961,7.040 10.510,7.094 10.230 C 7.462 8.300,8.813 6.586,10.508 5.898 C 10.708 5.817,10.799 5.725,10.937 5.464 C 11.021 5.304,11.039 5.218,11.034 5.004 C 11.027 4.678,11.098 4.500,11.322 4.283 C 11.589 4.024,11.928 3.947,12.310 4.061 M13.981 18.224 C 13.917 18.740,13.704 19.147,13.319 19.493 C 12.706 20.044,11.825 20.158,11.083 19.781 C 10.816 19.646,10.449 19.297,10.281 19.017 C 10.138 18.780,10.006 18.360,10.002 18.130 L 10.000 18.000 12.005 18.000 L 14.009 18.000 13.981 18.224 " stroke="none" fill="black" fill-rule="evenodd"></path></svg>