<svg xmlns="http://www.w3.org/2000/svg" width="24" height="24" viewBox="0 0 24 24" fill="none" stroke="currentColor" stroke-width="2" stroke-linecap="round" stroke-linejoin="round" class="icon icon-tabler icons-tabler-outline icon-tabler-git-compare"><path d="M13.620 2.046 C 13.528 2.094,12.826 2.758,11.960 3.618 C 11.135 4.438,10.399 5.150,10.324 5.201 C 10.149 5.321,9.951 5.745,9.951 6.000 C 9.951 6.238,10.150 6.682,10.303 6.784 C 10.366 6.826,11.101 7.537,11.938 8.365 C 12.949 9.365,13.520 9.901,13.637 9.960 C 13.989 10.137,14.354 10.048,14.701 9.701 C 15.048 9.354,15.137 8.988,14.959 8.637 C 14.905 8.531,14.580 8.168,14.147 7.730 L 13.425 7.000 14.765 7.000 C 16.327 7.000,16.406 7.012,16.697 7.303 C 17.015 7.621,17.000 7.415,17.000 11.520 L 17.000 15.145 16.670 15.313 C 15.922 15.693,15.365 16.355,15.114 17.160 C 14.979 17.594,14.979 18.406,15.114 18.840 C 15.421 19.826,16.174 20.579,17.160 20.886 C 17.594 21.021,18.406 21.021,18.840 20.886 C 19.826 20.579,20.579 19.826,20.886 18.840 C 20.964 18.588,20.979 18.453,20.979 18.000 C 20.979 17.547,20.964 17.412,20.886 17.160 C 20.637 16.360,20.081 15.698,19.340 15.317 L 19.020 15.153 19.000 11.286 L 18.980 7.420 18.886 7.140 C 18.557 6.157,17.815 5.419,16.861 5.123 C 16.547 5.026,16.506 5.024,14.985 5.009 L 13.430 4.994 14.150 4.267 C 14.581 3.831,14.905 3.469,14.959 3.363 C 15.137 3.012,15.048 2.646,14.701 2.299 C 14.361 1.959,13.967 1.867,13.620 2.046 M5.499 3.040 C 4.363 3.246,3.460 4.049,3.114 5.160 C 2.979 5.594,2.979 6.406,3.114 6.840 C 3.363 7.640,3.928 8.314,4.660 8.684 L 4.980 8.845 5.000 12.713 L 5.020 16.580 5.114 16.860 C 5.442 17.840,6.167 18.564,7.140 18.884 C 7.409 18.973,7.480 18.977,8.995 18.991 L 10.570 19.006 9.850 19.733 C 9.419 20.169,9.095 20.531,9.041 20.637 C 8.863 20.988,8.952 21.354,9.299 21.701 C 9.646 22.048,10.011 22.137,10.363 21.960 C 10.480 21.901,11.051 21.365,12.062 20.365 C 12.899 19.537,13.634 18.826,13.697 18.784 C 13.850 18.682,14.049 18.238,14.049 18.000 C 14.049 17.745,13.851 17.321,13.676 17.201 C 13.601 17.150,12.865 16.438,12.040 15.618 C 11.085 14.670,10.479 14.098,10.372 14.044 C 10.020 13.868,9.639 13.959,9.299 14.299 C 8.952 14.646,8.863 15.012,9.041 15.363 C 9.095 15.469,9.420 15.833,9.855 16.272 L 10.579 17.004 9.140 16.992 L 7.700 16.980 7.516 16.872 C 7.415 16.813,7.284 16.700,7.225 16.623 C 6.992 16.317,7.000 16.471,7.000 12.502 L 7.000 8.853 7.330 8.688 C 8.069 8.318,8.635 7.645,8.886 6.840 C 9.021 6.406,9.021 5.594,8.886 5.160 C 8.581 4.179,7.810 3.407,6.861 3.129 C 6.500 3.023,5.832 2.980,5.499 3.040 M6.310 5.061 C 6.688 5.173,7.000 5.598,7.000 6.001 C 7.000 6.331,6.784 6.696,6.484 6.872 C 6.328 6.963,6.254 6.980,6.000 6.980 C 5.746 6.980,5.672 6.963,5.516 6.872 C 4.935 6.530,4.833 5.774,5.304 5.303 C 5.583 5.024,5.916 4.944,6.310 5.061 M18.310 17.061 C 18.688 17.173,19.000 17.598,19.000 18.001 C 19.000 18.331,18.784 18.696,18.484 18.872 C 18.328 18.963,18.254 18.980,18.000 18.980 C 17.746 18.980,17.672 18.963,17.516 18.872 C 16.935 18.530,16.833 17.774,17.304 17.303 C 17.583 17.024,17.916 16.944,18.310 17.061 " stroke="none" fill="black" fill-rule="evenodd"></path></svg>