<svg xmlns="http://www.w3.org/2000/svg" width="24" height="24" viewBox="0 0 24 24" fill="none" stroke="currentColor" stroke-width="2" stroke-linecap="round" stroke-linejoin="round" class="icon icon-tabler icons-tabler-outline icon-tabler-text-spellcheck"><path d="M7.900 3.045 C 7.211 3.131,6.422 3.450,5.857 3.871 C 4.880 4.598,4.269 5.586,4.062 6.775 C 4.009 7.080,4.000 7.703,4.000 11.175 C 4.000 13.761,4.015 15.272,4.041 15.365 C 4.148 15.750,4.437 15.962,4.896 15.991 C 5.381 16.022,5.699 15.882,5.880 15.558 L 5.980 15.380 5.992 13.190 L 6.003 11.000 8.502 11.000 L 11.000 11.000 11.000 13.110 C 11.000 14.400,11.016 15.276,11.041 15.365 C 11.148 15.750,11.437 15.962,11.896 15.991 C 12.381 16.022,12.699 15.882,12.880 15.558 L 12.980 15.380 12.992 11.300 C 13.000 8.425,12.991 7.127,12.959 6.904 C 12.607 4.435,10.378 2.736,7.900 3.045 M9.020 5.060 C 9.741 5.211,10.395 5.713,10.715 6.362 C 10.958 6.855,10.998 7.108,10.999 8.130 L 11.000 9.000 8.500 9.000 L 6.000 9.000 6.001 8.130 C 6.002 7.108,6.042 6.855,6.285 6.362 C 6.774 5.371,7.914 4.828,9.020 5.060 M19.620 13.046 C 19.521 13.097,18.229 14.357,16.230 16.353 L 13.001 19.578 11.770 18.354 C 11.001 17.588,10.477 17.098,10.372 17.045 C 10.020 16.868,9.639 16.958,9.299 17.299 C 8.952 17.645,8.863 18.010,9.039 18.363 C 9.163 18.610,12.390 21.837,12.637 21.961 C 12.868 22.076,13.132 22.076,13.363 21.961 C 13.614 21.836,20.836 14.614,20.961 14.363 C 21.136 14.010,21.047 13.645,20.701 13.299 C 20.361 12.959,19.967 12.867,19.620 13.046 " stroke="none" fill="black" fill-rule="evenodd"></path></svg>