<svg xmlns="http://www.w3.org/2000/svg" width="24" height="24" viewBox="0 0 24 24" fill="none" stroke="currentColor" stroke-width="2" stroke-linecap="round" stroke-linejoin="round" class="icon icon-tabler icons-tabler-outline icon-tabler-arrows-right-left"><path d="M17.626 3.045 C 17.257 3.239,16.951 3.673,16.951 4.000 C 16.951 4.307,17.079 4.487,17.853 5.270 L 18.575 6.000 10.694 6.000 C 2.228 6.000,2.614 5.991,2.322 6.199 C 2.100 6.357,2.020 6.568,2.020 7.000 C 2.020 7.331,2.033 7.403,2.120 7.558 C 2.230 7.755,2.414 7.898,2.635 7.959 C 2.730 7.986,5.510 8.000,10.678 8.000 L 18.575 8.000 17.853 8.730 C 17.420 9.168,17.095 9.531,17.041 9.637 C 16.863 9.988,16.952 10.354,17.299 10.701 C 17.646 11.048,18.011 11.137,18.363 10.960 C 18.480 10.901,19.051 10.365,20.062 9.365 C 20.899 8.537,21.634 7.826,21.697 7.784 C 21.850 7.682,22.049 7.238,22.049 7.000 C 22.049 6.745,21.851 6.321,21.676 6.201 C 21.601 6.150,20.865 5.438,20.040 4.618 C 19.085 3.670,18.479 3.098,18.372 3.044 C 18.152 2.934,17.835 2.934,17.626 3.045 M5.620 13.046 C 5.528 13.094,4.826 13.758,3.960 14.618 C 3.135 15.438,2.399 16.150,2.324 16.201 C 2.149 16.321,1.951 16.745,1.951 17.000 C 1.951 17.238,2.150 17.682,2.303 17.784 C 2.366 17.826,3.101 18.537,3.938 19.365 C 4.949 20.365,5.520 20.901,5.637 20.960 C 5.989 21.137,6.354 21.048,6.701 20.701 C 7.048 20.354,7.137 19.988,6.959 19.637 C 6.905 19.531,6.580 19.168,6.147 18.730 L 5.425 18.000 13.322 18.000 C 18.490 18.000,21.270 17.986,21.365 17.959 C 21.586 17.898,21.770 17.755,21.880 17.558 C 21.967 17.402,21.980 17.332,21.979 17.000 C 21.978 16.567,21.898 16.355,21.678 16.199 C 21.386 15.991,21.772 16.000,13.306 16.000 L 5.425 16.000 6.147 15.270 C 6.580 14.832,6.905 14.469,6.959 14.363 C 7.137 14.012,7.048 13.646,6.701 13.299 C 6.361 12.959,5.967 12.867,5.620 13.046 " stroke="none" fill="black" fill-rule="evenodd"></path></svg>