<svg xmlns="http://www.w3.org/2000/svg" width="24" height="24" viewBox="0 0 24 24" fill="none" stroke="currentColor" stroke-width="2" stroke-linecap="round" stroke-linejoin="round" class="icon icon-tabler icons-tabler-outline icon-tabler-car-crash"><path d="M4.739 4.999 L 2.658 5.020 2.459 5.122 C 2.119 5.297,1.978 5.606,2.009 6.104 C 2.038 6.563,2.250 6.852,2.635 6.959 C 2.715 6.981,3.054 7.000,3.390 7.000 L 4.000 7.000 4.000 8.500 L 4.000 10.000 3.406 10.000 C 2.577 10.000,2.300 10.097,2.109 10.453 C 2.035 10.592,2.020 10.684,2.020 11.000 C 2.020 11.331,2.033 11.403,2.120 11.558 C 2.230 11.755,2.414 11.898,2.635 11.959 C 2.728 11.985,4.443 12.000,7.443 12.000 C 12.705 12.000,12.375 11.981,12.697 12.303 C 12.993 12.599,13.000 12.650,13.000 14.447 C 13.000 15.927,12.997 16.000,12.927 16.000 C 12.875 16.000,12.805 15.904,12.688 15.670 C 12.321 14.938,11.642 14.363,10.861 14.125 C 10.588 14.042,10.458 14.027,10.000 14.027 C 9.542 14.027,9.412 14.042,9.139 14.125 C 8.358 14.363,7.679 14.938,7.312 15.670 L 7.147 16.000 4.980 16.000 C 2.669 16.000,2.593 16.006,2.322 16.199 C 2.100 16.357,2.020 16.568,2.020 17.000 C 2.020 17.331,2.033 17.403,2.120 17.558 C 2.230 17.755,2.414 17.898,2.635 17.959 C 2.724 17.984,3.624 18.000,4.963 18.000 L 7.147 18.000 7.312 18.330 C 7.682 19.069,8.355 19.635,9.160 19.886 C 9.594 20.021,10.406 20.021,10.840 19.886 C 11.645 19.635,12.318 19.069,12.688 18.330 L 12.853 18.000 13.537 18.000 C 13.912 18.000,14.285 17.981,14.365 17.959 C 14.586 17.898,14.770 17.755,14.880 17.558 L 14.980 17.380 14.980 14.920 L 14.980 12.460 14.886 12.160 C 14.580 11.179,13.813 10.410,12.861 10.128 C 12.624 10.058,12.400 10.027,12.006 10.011 L 11.471 9.988 9.719 7.798 C 8.755 6.594,7.929 5.536,7.884 5.447 C 7.743 5.172,7.353 4.956,7.020 4.970 C 6.910 4.974,5.883 4.987,4.739 4.999 M13.614 5.057 C 13.377 5.131,13.212 5.261,13.109 5.453 C 13.023 5.614,13.020 5.665,13.008 6.908 C 13.000 7.720,13.011 8.254,13.038 8.352 C 13.144 8.747,13.432 8.961,13.896 8.991 C 14.381 9.022,14.699 8.882,14.880 8.558 L 14.980 8.380 14.980 7.000 C 14.980 5.650,14.978 5.616,14.891 5.453 C 14.842 5.362,14.746 5.247,14.678 5.199 C 14.414 5.010,13.957 4.950,13.614 5.057 M18.620 6.046 C 18.375 6.173,16.623 7.939,16.523 8.160 C 16.358 8.526,16.451 8.862,16.817 9.218 C 17.199 9.592,17.566 9.653,17.949 9.407 C 18.229 9.227,19.850 7.578,19.960 7.363 C 20.137 7.011,20.048 6.646,19.701 6.299 C 19.361 5.959,18.967 5.867,18.620 6.046 M7.720 8.500 L 8.921 10.000 7.461 10.000 L 6.000 10.000 6.000 8.500 L 6.000 7.000 6.259 7.000 L 6.519 7.000 7.720 8.500 M18.614 11.057 C 18.377 11.131,18.212 11.261,18.109 11.453 C 18.035 11.592,18.020 11.684,18.020 12.000 C 18.020 12.331,18.033 12.403,18.120 12.558 C 18.230 12.755,18.414 12.898,18.635 12.959 C 18.826 13.012,21.174 13.012,21.365 12.959 C 21.586 12.898,21.770 12.755,21.880 12.558 C 21.967 12.402,21.980 12.332,21.979 12.000 C 21.978 11.687,21.962 11.591,21.890 11.453 C 21.786 11.256,21.623 11.131,21.371 11.055 C 21.117 10.979,18.859 10.981,18.614 11.057 M17.260 14.487 C 16.822 14.651,16.439 15.129,16.441 15.509 C 16.443 15.821,16.561 15.977,17.532 16.946 C 18.128 17.540,18.524 17.903,18.637 17.960 C 18.989 18.137,19.354 18.048,19.701 17.701 C 20.048 17.354,20.137 16.989,19.960 16.637 C 19.841 16.399,18.081 14.641,17.862 14.541 C 17.664 14.450,17.417 14.428,17.260 14.487 M10.334 16.064 C 10.698 16.188,11.000 16.613,11.000 17.001 C 11.000 17.331,10.784 17.696,10.484 17.872 C 10.328 17.963,10.254 17.980,10.000 17.980 C 9.746 17.980,9.672 17.963,9.516 17.872 C 8.937 17.531,8.833 16.774,9.301 16.306 C 9.587 16.019,9.952 15.934,10.334 16.064 " stroke="none" fill="black" fill-rule="evenodd"></path></svg>