<svg xmlns="http://www.w3.org/2000/svg" width="24" height="24" viewBox="0 0 24 24" fill="none" stroke="currentColor" stroke-width="2" stroke-linecap="round" stroke-linejoin="round" class="icon icon-tabler icons-tabler-outline icon-tabler-circuit-switch-closed"><path d="M5.499 9.040 C 4.549 9.212,3.740 9.816,3.312 10.670 L 3.147 11.000 2.480 11.000 C 1.570 11.000,1.304 11.088,1.109 11.453 C 1.035 11.592,1.020 11.684,1.020 12.000 C 1.020 12.331,1.033 12.403,1.120 12.558 C 1.230 12.755,1.414 12.898,1.635 12.959 C 1.715 12.981,2.088 13.000,2.463 13.000 L 3.147 13.000 3.312 13.330 C 3.682 14.068,4.354 14.635,5.160 14.886 C 5.418 14.967,5.539 14.980,6.020 14.977 C 6.508 14.974,6.620 14.961,6.887 14.872 C 7.671 14.612,8.327 14.050,8.688 13.330 L 8.853 13.000 12.000 13.000 L 15.147 13.000 15.312 13.330 C 15.682 14.069,16.355 14.635,17.160 14.886 C 17.594 15.021,18.406 15.021,18.840 14.886 C 19.645 14.635,20.318 14.069,20.688 13.330 L 20.853 13.000 21.537 13.000 C 21.912 13.000,22.285 12.981,22.365 12.959 C 22.586 12.898,22.770 12.755,22.880 12.558 C 22.967 12.402,22.980 12.332,22.979 12.000 C 22.978 11.687,22.962 11.591,22.890 11.453 C 22.697 11.088,22.430 11.000,21.520 11.000 L 20.853 11.000 20.688 10.670 C 20.321 9.938,19.642 9.363,18.861 9.125 C 18.588 9.042,18.458 9.027,18.000 9.027 C 17.542 9.027,17.412 9.042,17.139 9.125 C 16.358 9.363,15.679 9.938,15.312 10.670 L 15.147 11.000 12.000 11.000 L 8.853 11.000 8.688 10.670 C 8.320 9.935,7.631 9.354,6.861 9.129 C 6.500 9.023,5.832 8.980,5.499 9.040 M6.310 11.061 C 6.688 11.173,7.000 11.598,7.000 12.001 C 7.000 12.331,6.784 12.696,6.484 12.872 C 6.328 12.963,6.254 12.980,6.000 12.980 C 5.746 12.980,5.672 12.963,5.516 12.872 C 4.935 12.530,4.833 11.774,5.304 11.303 C 5.583 11.024,5.916 10.944,6.310 11.061 M18.310 11.061 C 18.688 11.173,19.000 11.598,19.000 12.001 C 19.000 12.331,18.784 12.696,18.484 12.872 C 18.328 12.963,18.254 12.980,18.000 12.980 C 17.746 12.980,17.672 12.963,17.516 12.872 C 16.935 12.530,16.833 11.774,17.304 11.303 C 17.583 11.024,17.916 10.944,18.310 11.061 " stroke="none" fill="black" fill-rule="evenodd"></path></svg>