<svg xmlns="http://www.w3.org/2000/svg" width="24" height="24" viewBox="0 0 24 24" fill="none" stroke="currentColor" stroke-width="2" stroke-linecap="round" stroke-linejoin="round" class="icon icon-tabler icons-tabler-outline icon-tabler-relation-one-to-one"><path d="M4.499 4.043 C 3.380 4.232,2.461 5.048,2.114 6.160 L 2.020 6.460 2.020 12.000 L 2.020 17.540 2.114 17.840 C 2.422 18.827,3.173 19.578,4.160 19.886 L 4.460 19.980 12.000 19.980 L 19.540 19.980 19.840 19.886 C 20.827 19.578,21.578 18.827,21.886 17.840 L 21.980 17.540 21.980 12.000 L 21.980 6.460 21.886 6.160 C 21.581 5.182,20.832 4.428,19.861 4.121 L 19.540 4.020 12.120 4.014 C 8.039 4.011,4.609 4.024,4.499 4.043 M19.310 6.061 C 19.589 6.144,19.856 6.411,19.939 6.690 C 19.992 6.868,20.000 7.546,20.000 12.001 C 20.000 16.212,19.990 17.139,19.945 17.290 C 19.872 17.533,19.707 17.740,19.484 17.872 L 19.300 17.980 12.000 17.980 L 4.700 17.980 4.516 17.872 C 4.303 17.747,4.141 17.550,4.058 17.316 C 3.969 17.061,3.971 6.993,4.061 6.690 C 4.140 6.421,4.412 6.143,4.673 6.063 C 4.964 5.974,19.009 5.971,19.310 6.061 M7.614 9.057 C 7.223 9.180,7.039 9.436,7.009 9.900 C 6.968 10.532,7.251 10.922,7.797 10.987 L 8.000 11.011 8.000 12.616 C 8.000 13.567,8.017 14.279,8.041 14.365 C 8.148 14.750,8.437 14.962,8.896 14.991 C 9.381 15.022,9.699 14.882,9.880 14.558 L 9.980 14.380 9.980 12.000 L 9.980 9.620 9.891 9.453 C 9.785 9.256,9.622 9.131,9.371 9.055 C 9.126 8.982,7.851 8.983,7.614 9.057 M14.614 9.057 C 14.223 9.180,14.039 9.436,14.009 9.900 C 13.968 10.532,14.251 10.922,14.797 10.987 L 15.000 11.011 15.000 12.616 C 15.000 13.567,15.017 14.279,15.041 14.365 C 15.148 14.750,15.437 14.962,15.896 14.991 C 16.381 15.022,16.699 14.882,16.880 14.558 L 16.980 14.380 16.980 12.000 L 16.980 9.620 16.891 9.453 C 16.785 9.256,16.622 9.131,16.371 9.055 C 16.126 8.982,14.851 8.983,14.614 9.057 M11.545 9.579 C 11.171 9.712,10.973 10.090,11.009 10.603 C 11.047 11.127,11.276 11.399,11.754 11.488 C 12.254 11.581,12.714 11.403,12.884 11.051 C 13.002 10.807,13.029 10.400,12.945 10.112 C 12.870 9.852,12.655 9.630,12.413 9.563 C 12.200 9.504,11.731 9.513,11.545 9.579 M11.545 12.579 C 11.171 12.712,10.973 13.090,11.009 13.603 C 11.047 14.127,11.276 14.399,11.754 14.488 C 12.254 14.581,12.714 14.403,12.884 14.051 C 13.002 13.807,13.029 13.400,12.945 13.112 C 12.870 12.852,12.655 12.630,12.413 12.563 C 12.200 12.504,11.731 12.513,11.545 12.579 " stroke="none" fill="black" fill-rule="evenodd"></path></svg>