<svg xmlns="http://www.w3.org/2000/svg" width="24" height="24" viewBox="0 0 24 24" fill="none" stroke="currentColor" stroke-width="2" stroke-linecap="round" stroke-linejoin="round" class="icon icon-tabler icons-tabler-outline icon-tabler-device-watch-cancel"><path d="M8.614 2.057 C 8.377 2.131,8.212 2.261,8.109 2.453 C 8.024 2.613,8.019 2.674,8.000 3.873 L 7.980 5.126 7.720 5.217 C 6.350 5.697,5.370 6.816,5.083 8.227 C 5.003 8.618,5.000 8.755,5.000 12.000 C 5.000 15.243,5.003 15.382,5.082 15.772 C 5.359 17.128,6.281 18.231,7.540 18.711 C 7.716 18.778,7.891 18.843,7.928 18.854 C 7.989 18.874,7.997 18.992,8.008 20.128 C 8.020 21.379,8.020 21.380,8.120 21.558 C 8.230 21.755,8.414 21.898,8.635 21.959 C 8.829 22.013,12.171 22.013,12.365 21.959 C 12.586 21.898,12.770 21.755,12.880 21.558 C 12.967 21.402,12.980 21.332,12.979 21.000 C 12.978 20.567,12.898 20.355,12.678 20.199 C 12.430 20.022,12.256 20.000,11.094 20.000 L 10.000 20.000 10.000 19.500 L 10.000 19.000 11.110 19.000 C 11.730 19.000,12.284 18.982,12.365 18.959 C 12.586 18.898,12.770 18.755,12.880 18.558 C 12.967 18.402,12.980 18.332,12.979 18.000 C 12.978 17.567,12.898 17.355,12.678 17.199 C 12.413 17.010,12.299 17.000,10.462 17.000 C 8.602 17.000,8.495 16.990,8.083 16.781 C 7.816 16.646,7.449 16.297,7.281 16.017 C 6.999 15.548,7.005 15.636,7.005 12.000 C 7.005 9.047,7.011 8.715,7.073 8.477 C 7.201 7.988,7.543 7.546,8.014 7.265 C 8.459 6.998,8.431 7.000,12.028 7.002 C 15.632 7.005,15.549 6.999,16.017 7.281 C 16.294 7.448,16.618 7.787,16.772 8.071 C 16.979 8.455,16.999 8.659,17.000 10.520 C 17.000 11.533,17.017 12.278,17.041 12.365 C 17.148 12.750,17.437 12.962,17.896 12.991 C 18.381 13.022,18.699 12.882,18.880 12.558 L 18.980 12.380 18.992 10.515 C 19.003 8.771,18.998 8.625,18.922 8.252 C 18.630 6.816,17.658 5.700,16.280 5.217 L 16.020 5.126 16.000 3.873 C 15.981 2.674,15.976 2.613,15.891 2.453 C 15.785 2.256,15.622 2.131,15.371 2.055 C 15.109 1.977,8.866 1.979,8.614 2.057 M14.000 4.500 L 14.000 5.000 12.000 5.000 L 10.000 5.000 10.000 4.500 L 10.000 4.000 12.000 4.000 L 14.000 4.000 14.000 4.500 M18.358 15.061 C 17.230 15.237,16.143 15.974,15.569 16.953 C 14.320 19.083,15.233 21.785,17.512 22.704 C 19.558 23.528,21.877 22.538,22.704 20.488 C 23.090 19.530,23.090 18.469,22.705 17.516 C 22.172 16.197,21.001 15.269,19.605 15.058 C 19.144 14.989,18.816 14.990,18.358 15.061 M19.470 17.057 C 19.485 17.071,18.954 17.626,18.290 18.290 C 17.626 18.954,17.072 19.486,17.059 19.472 C 17.045 19.459,17.024 19.314,17.012 19.150 C 16.940 18.202,17.563 17.318,18.477 17.071 C 18.735 17.001,19.405 16.991,19.470 17.057 M20.982 18.784 C 21.047 19.396,20.844 19.961,20.398 20.410 C 20.104 20.705,19.779 20.885,19.404 20.963 C 19.181 21.010,18.584 20.997,18.532 20.945 C 18.504 20.918,20.872 18.520,20.927 18.520 C 20.941 18.520,20.966 18.639,20.982 18.784 " stroke="none" fill="black" fill-rule="evenodd"></path></svg>