<svg xmlns="http://www.w3.org/2000/svg" width="24" height="24" viewBox="0 0 24 24" fill="none" stroke="currentColor" stroke-width="2" stroke-linecap="round" stroke-linejoin="round" class="icon icon-tabler icons-tabler-outline icon-tabler-space-off"><path d="M2.626 2.045 C 2.420 2.154,2.146 2.433,2.038 2.644 C 1.924 2.867,1.924 3.132,2.039 3.363 C 2.103 3.490,3.470 4.884,6.854 8.270 L 11.579 13.000 8.292 13.000 L 5.004 13.000 4.992 11.310 C 4.980 9.641,4.979 9.618,4.889 9.450 C 4.724 9.140,4.329 8.970,3.874 9.011 C 3.439 9.051,3.141 9.274,3.041 9.635 C 3.017 9.722,3.000 10.478,3.000 11.522 C 3.000 13.409,3.009 13.503,3.225 13.930 C 3.361 14.199,3.801 14.639,4.070 14.775 C 4.530 15.008,4.346 15.000,9.158 15.000 L 13.579 15.000 17.019 18.436 C 19.457 20.870,20.512 21.898,20.637 21.961 C 20.990 22.137,21.355 22.048,21.701 21.701 C 22.048 21.354,22.137 20.990,21.961 20.637 C 21.887 20.491,18.611 17.155,14.747 13.293 C 8.485 7.032,3.509 2.113,3.372 2.044 C 3.152 1.934,2.835 1.935,2.626 2.045 M19.614 9.057 C 19.377 9.131,19.212 9.261,19.109 9.453 C 19.022 9.617,19.020 9.650,19.008 11.310 L 18.997 13.000 18.405 13.000 C 17.577 13.000,17.299 13.097,17.109 13.453 C 17.035 13.592,17.020 13.684,17.020 14.000 C 17.020 14.331,17.033 14.403,17.120 14.558 C 17.230 14.755,17.414 14.898,17.635 14.959 C 17.715 14.981,18.114 15.000,18.522 15.000 C 19.328 15.000,19.558 14.963,19.930 14.775 C 20.196 14.640,20.638 14.200,20.771 13.937 C 20.996 13.493,21.005 13.397,20.992 11.427 C 20.980 9.646,20.979 9.618,20.891 9.453 C 20.842 9.362,20.746 9.247,20.678 9.199 C 20.414 9.010,19.957 8.950,19.614 9.057 " stroke="none" fill="black" fill-rule="evenodd"></path></svg>