<svg xmlns="http://www.w3.org/2000/svg" width="24" height="24" viewBox="0 0 24 24" fill="none" stroke="currentColor" stroke-width="2" stroke-linecap="round" stroke-linejoin="round" class="icon icon-tabler icons-tabler-outline icon-tabler-brackets-contain-start"><path d="M4.614 3.057 C 4.377 3.131,4.212 3.261,4.109 3.453 L 4.020 3.620 4.010 11.914 C 4.003 17.391,4.013 20.260,4.040 20.358 C 4.100 20.584,4.243 20.769,4.442 20.880 L 4.620 20.980 6.911 20.991 C 8.392 20.999,9.256 20.988,9.355 20.961 C 9.583 20.900,9.768 20.758,9.880 20.558 C 9.967 20.402,9.980 20.332,9.979 20.000 C 9.978 19.567,9.898 19.355,9.678 19.199 C 9.416 19.012,9.290 19.000,7.594 19.000 L 6.000 19.000 6.000 12.000 L 6.000 5.000 7.610 5.000 C 8.565 5.000,9.279 4.983,9.365 4.959 C 9.586 4.898,9.770 4.755,9.880 4.558 C 9.967 4.402,9.980 4.332,9.979 4.000 C 9.978 3.567,9.898 3.355,9.678 3.199 C 9.406 3.005,9.336 3.000,6.984 3.003 C 5.293 3.005,4.741 3.017,4.614 3.057 M9.660 15.037 C 9.215 15.146,9.000 15.459,9.000 15.998 C 9.000 16.654,9.342 17.000,9.991 17.000 C 10.428 16.999,10.712 16.858,10.880 16.558 C 10.967 16.402,10.980 16.332,10.979 16.000 C 10.978 15.567,10.898 15.355,10.678 15.199 C 10.435 15.025,9.995 14.956,9.660 15.037 M13.660 15.037 C 13.215 15.146,13.000 15.459,13.000 15.998 C 13.000 16.654,13.342 17.000,13.991 17.000 C 14.428 16.999,14.712 16.858,14.880 16.558 C 14.967 16.402,14.980 16.332,14.979 16.000 C 14.978 15.567,14.898 15.355,14.678 15.199 C 14.435 15.025,13.995 14.956,13.660 15.037 M17.660 15.037 C 17.215 15.146,17.000 15.459,17.000 15.998 C 17.000 16.654,17.342 17.000,17.991 17.000 C 18.428 16.999,18.712 16.858,18.880 16.558 C 18.967 16.402,18.980 16.332,18.979 16.000 C 18.978 15.567,18.898 15.355,18.678 15.199 C 18.435 15.025,17.995 14.956,17.660 15.037 " stroke="none" fill="black" fill-rule="evenodd"></path></svg>