<svg xmlns="http://www.w3.org/2000/svg" width="24" height="24" viewBox="0 0 24 24" fill="none" stroke="currentColor" stroke-width="2" stroke-linecap="round" stroke-linejoin="round" class="icon icon-tabler icons-tabler-outline icon-tabler-eye-edit"><path d="M11.160 5.043 C 7.815 5.297,4.962 7.199,2.619 10.738 C 2.105 11.515,2.001 11.725,2.001 11.992 C 2.000 12.277,2.104 12.487,2.653 13.309 C 3.397 14.422,4.012 15.171,4.846 15.980 C 6.558 17.643,8.421 18.589,10.600 18.903 C 11.498 19.032,11.868 18.932,12.063 18.504 C 12.278 18.036,12.219 17.495,11.926 17.230 C 11.741 17.063,11.613 17.018,11.160 16.960 C 10.295 16.849,9.667 16.686,8.960 16.389 C 7.336 15.708,5.838 14.389,4.481 12.445 C 4.141 11.958,4.131 12.042,4.600 11.384 C 5.096 10.690,5.418 10.303,5.980 9.725 C 6.846 8.835,7.662 8.233,8.615 7.781 C 9.785 7.226,10.685 7.024,12.000 7.023 C 13.300 7.021,14.330 7.255,15.437 7.803 C 16.420 8.290,17.161 8.841,18.020 9.726 C 18.597 10.320,18.826 10.593,19.339 11.300 C 19.530 11.564,19.735 11.831,19.794 11.894 C 20.150 12.274,20.701 12.237,21.174 11.801 C 21.396 11.597,21.480 11.424,21.479 11.174 C 21.478 10.923,21.385 10.723,21.035 10.226 C 20.305 9.191,19.128 7.905,18.320 7.263 C 16.200 5.578,13.823 4.841,11.160 5.043 M11.499 9.040 C 10.363 9.246,9.460 10.049,9.114 11.160 C 8.979 11.594,8.979 12.406,9.114 12.840 C 9.421 13.826,10.174 14.579,11.160 14.886 C 11.594 15.021,12.406 15.021,12.840 14.886 C 13.826 14.579,14.579 13.826,14.886 12.840 C 15.021 12.406,15.021 11.594,14.886 11.160 C 14.581 10.179,13.810 9.407,12.861 9.129 C 12.500 9.023,11.832 8.980,11.499 9.040 M12.310 11.061 C 12.688 11.173,13.000 11.598,13.000 12.001 C 13.000 12.331,12.784 12.696,12.484 12.872 C 12.328 12.963,12.254 12.980,12.000 12.980 C 11.746 12.980,11.672 12.963,11.516 12.872 C 10.935 12.530,10.833 11.774,11.304 11.303 C 11.583 11.024,11.916 10.944,12.310 11.061 M19.351 14.039 C 18.947 14.112,18.514 14.292,18.160 14.533 C 17.879 14.725,14.247 18.313,14.126 18.520 L 14.020 18.700 14.008 20.450 C 14.001 21.570,14.012 22.255,14.038 22.354 C 14.100 22.583,14.242 22.768,14.442 22.880 L 14.620 22.980 16.460 22.980 L 18.300 22.980 18.481 22.874 C 18.746 22.718,22.383 19.000,22.554 18.710 C 22.855 18.201,22.998 17.685,22.999 17.108 C 23.001 16.205,22.675 15.462,21.996 14.824 C 21.652 14.500,21.154 14.216,20.720 14.097 C 20.460 14.025,19.620 13.989,19.351 14.039 M20.385 16.112 C 20.594 16.219,20.778 16.402,20.891 16.615 C 21.016 16.850,21.016 17.350,20.891 17.586 C 20.840 17.682,20.129 18.433,19.197 19.376 L 17.591 21.000 16.795 21.000 L 16.000 21.000 16.000 20.205 L 16.000 19.410 17.602 17.825 C 18.483 16.953,19.248 16.211,19.302 16.175 C 19.599 15.980,20.073 15.953,20.385 16.112 " stroke="none" fill="black" fill-rule="evenodd"></path></svg>