<svg xmlns="http://www.w3.org/2000/svg" width="24" height="24" viewBox="0 0 24 24" fill="none" stroke="currentColor" stroke-width="2" stroke-linecap="round" stroke-linejoin="round" class="icon icon-tabler icons-tabler-outline icon-tabler-hexagons"><path d="M11.680 3.055 C 11.603 3.085,10.601 3.579,9.454 4.153 C 7.205 5.279,7.155 5.311,7.046 5.674 C 7.014 5.784,7.000 6.494,7.000 8.105 L 7.000 10.380 5.184 11.289 C 3.228 12.268,3.154 12.316,3.046 12.674 C 2.981 12.894,2.981 18.106,3.046 18.326 C 3.156 18.692,3.198 18.718,5.546 19.892 L 7.722 20.980 7.999 20.980 L 8.276 20.980 10.138 20.050 L 12.000 19.121 13.862 20.050 L 15.724 20.980 16.001 20.980 L 16.278 20.980 18.454 19.892 C 20.802 18.718,20.844 18.692,20.954 18.326 C 21.019 18.106,21.019 12.894,20.954 12.674 C 20.846 12.316,20.772 12.268,18.816 11.289 L 17.000 10.380 17.000 8.105 C 17.000 6.494,16.986 5.784,16.954 5.674 C 16.844 5.308,16.802 5.282,14.460 4.111 C 12.454 3.108,12.272 3.025,12.055 3.014 C 11.923 3.007,11.758 3.025,11.680 3.055 M13.500 5.870 L 15.000 6.620 15.000 8.500 L 15.000 10.380 13.500 11.130 L 12.000 11.880 10.500 11.130 L 9.000 10.380 9.000 8.500 L 9.000 6.620 10.490 5.872 C 11.309 5.461,11.984 5.123,11.990 5.122 C 11.995 5.121,12.675 5.457,13.500 5.870 M9.500 12.870 L 11.000 13.620 11.000 15.500 L 11.000 17.380 9.500 18.130 L 8.000 18.880 6.500 18.130 L 5.000 17.380 5.000 15.500 L 5.000 13.620 6.490 12.872 C 7.310 12.461,7.984 12.123,7.990 12.122 C 7.995 12.121,8.675 12.457,9.500 12.870 M17.500 12.870 L 19.000 13.620 19.000 15.500 L 19.000 17.380 17.500 18.130 L 16.000 18.880 14.500 18.130 L 13.000 17.380 13.000 15.500 L 13.000 13.620 14.490 12.872 C 15.309 12.461,15.984 12.123,15.990 12.122 C 15.995 12.121,16.675 12.457,17.500 12.870 " stroke="none" fill="black" fill-rule="evenodd"></path></svg>