<svg xmlns="http://www.w3.org/2000/svg" width="24" height="24" viewBox="0 0 24 24" fill="none" stroke="currentColor" stroke-width="2" stroke-linecap="round" stroke-linejoin="round" class="icon icon-tabler icons-tabler-outline icon-tabler-number-0-small"><path d="M11.499 7.040 C 10.363 7.246,9.461 8.048,9.114 9.160 L 9.020 9.460 9.020 12.000 L 9.020 14.540 9.114 14.840 C 9.422 15.827,10.174 16.579,11.160 16.886 C 11.594 17.021,12.406 17.021,12.840 16.886 C 13.826 16.579,14.578 15.827,14.886 14.840 L 14.980 14.540 14.980 12.000 L 14.980 9.460 14.886 9.160 C 14.580 8.178,13.810 7.407,12.861 7.129 C 12.500 7.023,11.832 6.980,11.499 7.040 M12.310 9.061 C 12.589 9.144,12.856 9.411,12.939 9.690 C 13.025 9.978,13.030 14.007,12.945 14.290 C 12.872 14.533,12.707 14.740,12.484 14.872 C 12.328 14.963,12.254 14.980,12.000 14.980 C 11.746 14.980,11.672 14.963,11.516 14.872 C 11.415 14.813,11.284 14.700,11.225 14.623 C 11.000 14.327,11.000 14.332,11.000 12.022 C 11.000 9.586,10.997 9.609,11.304 9.303 C 11.583 9.024,11.916 8.944,12.310 9.061 " stroke="none" fill="black" fill-rule="evenodd"></path></svg>