<svg xmlns="http://www.w3.org/2000/svg" width="24" height="24" viewBox="0 0 24 24" fill="none" stroke="currentColor" stroke-width="2" stroke-linecap="round" stroke-linejoin="round" class="icon icon-tabler icons-tabler-outline icon-tabler-device-computer-camera"><path d="M11.207 2.043 C 9.656 2.193,8.096 2.846,6.900 3.847 C 5.985 4.612,5.307 5.477,4.800 6.529 C 3.481 9.259,3.815 12.462,5.674 14.900 C 5.775 15.032,6.060 15.348,6.308 15.603 C 6.557 15.858,6.760 16.077,6.760 16.089 C 6.760 16.101,6.380 16.748,5.915 17.526 C 5.450 18.303,5.020 19.045,4.958 19.174 C 4.701 19.709,4.707 20.299,4.975 20.862 C 5.150 21.232,5.515 21.615,5.840 21.772 C 6.337 22.011,6.036 22.000,12.000 22.000 C 17.964 22.000,17.663 22.011,18.160 21.772 C 18.282 21.713,18.491 21.555,18.630 21.416 C 19.222 20.827,19.395 19.941,19.061 19.210 C 19.008 19.095,18.577 18.354,18.102 17.564 C 17.628 16.774,17.240 16.114,17.240 16.097 C 17.240 16.080,17.443 15.858,17.692 15.603 C 18.386 14.890,18.792 14.317,19.200 13.471 C 20.265 11.267,20.265 8.733,19.200 6.529 C 18.693 5.477,18.015 4.612,17.100 3.847 C 15.483 2.494,13.337 1.837,11.207 2.043 M12.564 4.039 C 14.921 4.269,16.913 5.837,17.671 8.060 C 18.168 9.517,18.068 11.251,17.410 12.580 C 16.550 14.316,15.056 15.478,13.160 15.885 C 12.554 16.015,11.446 16.015,10.840 15.885 C 8.941 15.478,7.451 14.319,6.590 12.580 C 5.932 11.251,5.832 9.517,6.329 8.060 C 6.618 7.212,7.080 6.470,7.731 5.805 C 9.008 4.503,10.757 3.864,12.564 4.039 M11.358 6.061 C 10.230 6.237,9.143 6.974,8.569 7.953 C 7.320 10.083,8.233 12.785,10.512 13.704 C 12.558 14.528,14.877 13.538,15.704 11.488 C 16.090 10.530,16.090 9.469,15.705 8.516 C 15.172 7.197,14.001 6.269,12.605 6.058 C 12.144 5.989,11.816 5.990,11.358 6.061 M12.523 8.073 C 13.262 8.266,13.850 8.924,13.967 9.690 C 14.067 10.343,13.873 10.933,13.403 11.404 C 13.002 11.807,12.547 12.000,12.000 12.000 C 11.485 12.000,11.038 11.822,10.653 11.465 C 9.323 10.229,10.189 8.005,12.000 8.005 C 12.143 8.005,12.378 8.036,12.523 8.073 M8.863 17.357 C 10.846 18.212,13.147 18.211,15.148 17.352 C 15.356 17.263,15.540 17.206,15.557 17.225 C 15.606 17.279,17.200 19.950,17.200 19.976 C 17.200 19.989,14.860 20.000,12.000 20.000 C 9.140 20.000,6.800 19.990,6.800 19.977 C 6.800 19.935,8.451 17.200,8.476 17.200 C 8.489 17.200,8.663 17.271,8.863 17.357 " stroke="none" fill="black" fill-rule="evenodd"></path></svg>