<svg xmlns="http://www.w3.org/2000/svg" width="24" height="24" viewBox="0 0 24 24" fill="none" stroke="currentColor" stroke-width="2" stroke-linecap="round" stroke-linejoin="round" class="icon icon-tabler icons-tabler-outline icon-tabler-brand-teams"><path d="M13.313 2.057 C 12.502 2.201,11.748 2.603,11.139 3.216 C 10.502 3.858,10.084 4.770,10.014 5.669 L 9.988 5.998 6.323 6.009 L 2.658 6.020 2.459 6.122 C 2.245 6.233,2.105 6.404,2.041 6.635 C 1.985 6.834,1.985 17.166,2.041 17.365 C 2.102 17.586,2.245 17.770,2.442 17.880 L 2.620 17.980 4.982 17.991 L 7.344 18.002 7.492 18.351 C 7.805 19.089,8.257 19.737,8.873 20.327 C 9.706 21.126,10.672 21.631,11.854 21.888 C 12.441 22.016,13.556 22.014,14.160 21.885 C 15.804 21.533,17.162 20.604,18.060 19.216 C 18.191 19.013,18.194 19.011,18.446 18.983 C 19.119 18.909,19.687 18.739,20.286 18.433 C 21.630 17.748,22.580 16.489,22.907 14.960 C 22.974 14.648,22.980 14.370,22.980 11.620 L 22.980 8.620 22.891 8.453 C 22.690 8.078,22.438 8.000,21.429 8.000 C 20.723 8.000,20.673 7.995,20.700 7.930 C 21.257 6.557,21.023 5.165,20.064 4.132 C 19.380 3.397,18.555 3.035,17.540 3.025 C 17.276 3.022,16.987 3.033,16.899 3.049 C 16.748 3.076,16.723 3.066,16.519 2.898 C 16.051 2.513,15.445 2.221,14.860 2.100 C 14.425 2.009,13.696 1.989,13.313 2.057 M14.494 4.078 C 15.004 4.209,15.381 4.482,15.674 4.931 C 15.851 5.203,16.000 5.682,16.000 5.981 C 16.000 6.619,15.678 7.225,15.110 7.656 C 14.930 7.793,14.356 7.999,14.154 7.999 L 14.008 8.000 13.993 7.310 C 13.979 6.694,13.968 6.602,13.890 6.453 C 13.702 6.097,13.424 6.000,12.594 6.000 C 11.910 6.000,11.951 6.033,12.061 5.567 C 12.158 5.154,12.308 4.885,12.598 4.600 C 13.136 4.073,13.779 3.896,14.494 4.078 M18.260 5.219 C 18.798 5.533,19.098 6.214,18.960 6.805 C 18.853 7.266,18.525 7.671,18.102 7.864 C 17.882 7.965,17.455 8.043,17.487 7.976 C 17.778 7.371,17.865 7.125,17.941 6.685 C 18.031 6.174,18.011 5.506,17.895 5.110 C 17.877 5.048,17.888 5.045,17.987 5.082 C 18.049 5.106,18.172 5.167,18.260 5.219 M11.999 12.002 L 12.001 16.000 8.001 16.000 L 4.000 16.000 4.000 11.999 L 4.000 7.998 7.998 8.001 L 11.996 8.004 11.999 12.002 M5.614 9.057 C 5.377 9.131,5.212 9.261,5.109 9.453 C 5.035 9.592,5.020 9.684,5.020 10.000 C 5.020 10.331,5.033 10.403,5.120 10.558 C 5.230 10.755,5.414 10.898,5.635 10.959 C 5.715 10.981,6.055 11.000,6.390 11.000 L 7.000 11.000 7.000 12.610 C 7.000 13.565,7.017 14.279,7.041 14.365 C 7.148 14.750,7.437 14.962,7.896 14.991 C 8.381 15.022,8.699 14.882,8.880 14.558 L 8.980 14.380 8.992 12.690 L 9.004 11.000 9.612 11.000 C 9.946 11.000,10.285 10.981,10.365 10.959 C 10.586 10.898,10.770 10.755,10.880 10.558 C 10.967 10.402,10.980 10.332,10.979 10.000 C 10.978 9.567,10.898 9.355,10.678 9.199 C 10.406 9.005,10.336 9.000,7.984 9.003 C 6.293 9.005,5.741 9.017,5.614 9.057 M17.000 13.110 C 17.000 16.437,16.987 16.687,16.796 17.245 C 16.485 18.153,15.830 18.972,15.047 19.431 C 13.938 20.081,12.607 20.176,11.441 19.686 C 10.839 19.433,10.144 18.869,9.744 18.307 C 9.643 18.166,9.560 18.039,9.560 18.025 C 9.560 18.011,10.383 18.000,11.390 18.000 C 12.493 18.000,13.278 17.984,13.365 17.959 C 13.586 17.898,13.770 17.755,13.880 17.558 L 13.980 17.380 13.991 13.690 L 14.002 10.000 15.501 10.000 L 17.000 10.000 17.000 13.110 M20.991 12.270 L 20.978 14.540 20.878 14.861 C 20.632 15.648,20.061 16.322,19.330 16.688 C 19.148 16.779,18.995 16.846,18.990 16.837 C 18.984 16.827,18.985 15.286,18.992 13.410 L 19.004 10.000 20.004 10.000 L 21.004 10.000 20.991 12.270 " stroke="none" fill="black" fill-rule="evenodd"></path></svg>