<svg xmlns="http://www.w3.org/2000/svg" width="24" height="24" viewBox="0 0 24 24" fill="none" stroke="currentColor" stroke-width="2" stroke-linecap="round" stroke-linejoin="round" class="icon icon-tabler icons-tabler-outline icon-tabler-chart-circles"><path d="M8.842 3.043 C 6.232 3.295,3.995 5.161,3.261 7.700 C 3.072 8.352,3.023 8.724,3.023 9.500 C 3.023 10.276,3.072 10.648,3.261 11.300 C 3.883 13.452,5.568 15.126,7.738 15.750 L 8.136 15.864 8.250 16.262 C 8.947 18.687,10.899 20.442,13.420 20.910 C 13.915 21.002,15.085 21.002,15.580 20.910 C 18.351 20.396,20.396 18.351,20.910 15.580 C 21.002 15.085,21.002 13.915,20.910 13.420 C 20.559 11.527,19.493 9.954,17.892 8.966 C 17.381 8.651,16.653 8.346,16.002 8.175 C 15.868 8.139,15.861 8.127,15.750 7.739 C 15.146 5.637,13.585 4.016,11.500 3.325 C 10.672 3.050,9.766 2.955,8.842 3.043 M10.060 5.044 C 11.656 5.240,13.099 6.351,13.677 7.829 L 13.758 8.039 13.669 8.056 C 13.620 8.066,13.423 8.102,13.231 8.137 C 12.541 8.263,11.739 8.576,11.108 8.966 C 9.512 9.951,8.418 11.563,8.098 13.396 C 8.066 13.582,8.034 13.739,8.028 13.745 C 8.022 13.751,7.878 13.696,7.709 13.622 C 5.925 12.847,4.833 10.985,5.033 9.060 C 5.297 6.527,7.540 4.736,10.060 5.044 M13.937 10.230 C 13.772 11.365,13.004 12.562,12.015 13.223 C 11.483 13.579,10.792 13.856,10.225 13.941 L 10.034 13.970 10.062 13.775 C 10.112 13.430,10.279 12.909,10.460 12.537 C 11.052 11.311,12.228 10.388,13.560 10.102 C 13.977 10.013,13.969 10.010,13.937 10.230 M16.640 10.546 C 17.436 10.978,18.147 11.724,18.540 12.537 C 19.261 14.026,19.099 15.841,18.129 17.143 C 17.402 18.120,16.414 18.731,15.225 18.938 C 14.356 19.090,13.305 18.934,12.511 18.536 C 11.550 18.056,10.701 17.137,10.324 16.172 L 10.242 15.963 10.391 15.940 C 12.362 15.629,13.950 14.593,15.021 12.920 C 15.457 12.240,15.795 11.309,15.940 10.391 L 15.963 10.242 16.172 10.324 C 16.286 10.369,16.497 10.469,16.640 10.546 " stroke="none" fill="black" fill-rule="evenodd"></path></svg>