<svg xmlns="http://www.w3.org/2000/svg" width="24" height="24" viewBox="0 0 24 24" fill="none" stroke="currentColor" stroke-width="2" stroke-linecap="round" stroke-linejoin="round" class="icon icon-tabler icons-tabler-outline icon-tabler-firetruck"><path d="M20.911 2.002 C 20.679 2.040,2.877 7.967,2.540 8.118 C 2.093 8.319,1.912 8.647,2.000 9.097 C 2.094 9.573,2.351 9.911,2.687 10.002 C 2.919 10.064,3.131 10.017,4.142 9.679 C 4.602 9.526,4.983 9.400,4.989 9.400 C 4.995 9.400,5.000 9.759,5.000 10.198 L 5.000 10.996 3.829 11.008 C 2.662 11.020,2.657 11.020,2.459 11.122 C 2.241 11.234,2.103 11.407,2.038 11.647 C 2.011 11.749,2.001 12.776,2.009 14.691 L 2.021 17.580 2.115 17.860 C 2.444 18.849,3.185 19.582,4.160 19.886 C 4.594 20.021,5.407 20.021,5.839 19.886 C 6.351 19.726,6.743 19.491,7.107 19.127 L 7.234 19.000 11.000 19.000 L 14.766 19.000 14.893 19.127 C 15.257 19.491,15.649 19.726,16.161 19.886 C 16.412 19.965,16.546 19.979,17.000 19.979 C 17.454 19.979,17.588 19.965,17.839 19.886 C 18.351 19.726,18.743 19.491,19.107 19.127 L 19.234 19.000 20.227 19.000 C 20.773 19.000,21.285 18.981,21.365 18.959 C 21.586 18.898,21.770 18.755,21.880 18.558 L 21.980 18.380 21.980 14.820 L 21.980 11.260 21.887 10.840 C 21.465 8.920,20.323 7.453,18.580 6.590 C 17.780 6.194,16.875 6.008,15.700 5.998 L 15.220 5.994 18.300 4.963 C 19.994 4.396,21.454 3.894,21.544 3.848 C 21.919 3.657,22.082 3.320,22.000 2.903 C 21.867 2.227,21.483 1.909,20.911 2.002 M11.000 9.200 L 11.000 11.000 9.000 11.000 L 7.000 11.000 7.000 9.863 L 7.000 8.727 8.970 8.066 C 10.053 7.703,10.954 7.405,10.970 7.403 C 10.987 7.401,11.000 8.210,11.000 9.200 M14.895 10.130 C 15.244 11.302,15.566 12.346,15.611 12.452 C 15.710 12.687,15.947 12.897,16.180 12.956 C 16.295 12.985,16.981 13.000,18.178 13.000 L 20.000 13.000 19.995 14.830 C 19.993 15.889,19.977 16.580,19.959 16.471 C 19.778 15.400,18.930 14.451,17.861 14.125 C 17.588 14.042,17.458 14.027,17.000 14.027 C 16.542 14.027,16.412 14.042,16.139 14.125 C 14.982 14.478,14.123 15.518,14.016 16.698 L 13.989 17.000 13.494 17.000 L 13.000 17.000 13.000 12.500 L 13.000 8.000 13.630 8.000 L 14.260 8.001 14.895 10.130 M16.855 8.100 C 18.184 8.381,19.319 9.395,19.780 10.712 L 19.874 10.980 18.571 10.991 C 17.854 10.996,17.260 10.994,17.251 10.984 C 17.242 10.975,17.046 10.340,16.816 9.574 C 16.587 8.807,16.389 8.149,16.377 8.110 C 16.349 8.021,16.472 8.018,16.855 8.100 M11.000 15.000 L 11.000 17.000 9.506 17.000 L 8.011 17.000 7.984 16.698 C 7.877 15.518,7.017 14.476,5.861 14.125 C 5.594 14.044,5.452 14.027,5.020 14.025 C 4.713 14.024,4.426 14.044,4.320 14.074 C 4.221 14.102,4.109 14.134,4.070 14.145 C 4.006 14.164,4.000 14.119,4.000 13.583 L 4.000 13.000 7.500 13.000 L 11.000 13.000 11.000 15.000 M5.334 16.064 C 5.698 16.188,6.000 16.613,6.000 17.001 C 6.000 17.331,5.784 17.696,5.484 17.872 C 5.328 17.963,5.254 17.980,5.000 17.980 C 4.746 17.980,4.672 17.963,4.516 17.872 C 3.937 17.531,3.833 16.774,4.301 16.306 C 4.587 16.019,4.952 15.934,5.334 16.064 M17.334 16.064 C 17.698 16.188,18.000 16.613,18.000 17.001 C 18.000 17.331,17.784 17.696,17.484 17.872 C 17.328 17.963,17.254 17.980,17.000 17.980 C 16.746 17.980,16.672 17.963,16.516 17.872 C 15.934 17.529,15.831 16.775,16.304 16.303 C 16.587 16.019,16.954 15.935,17.334 16.064 " stroke="none" fill="black" fill-rule="evenodd"></path></svg>