<svg xmlns="http://www.w3.org/2000/svg" width="24" height="24" viewBox="0 0 24 24" fill="none" stroke="currentColor" stroke-width="2" stroke-linecap="round" stroke-linejoin="round" class="icon icon-tabler icons-tabler-outline icon-tabler-variable"><path d="M4.570 3.044 C 4.330 3.163,4.220 3.311,3.950 3.880 C 2.988 5.905,2.416 7.924,2.194 10.080 C 2.129 10.719,2.128 12.505,2.194 13.180 C 2.368 14.970,2.776 16.793,3.419 18.648 C 3.744 19.585,4.128 20.524,4.257 20.695 C 4.433 20.929,4.685 21.051,4.940 21.026 C 5.437 20.979,5.900 20.673,6.003 20.326 C 6.073 20.092,6.024 19.873,5.739 19.153 C 4.549 16.146,4.023 13.382,4.160 10.859 C 4.275 8.739,4.733 6.973,5.727 4.810 C 6.065 4.076,6.105 3.849,5.951 3.560 C 5.783 3.247,5.272 2.960,4.883 2.960 C 4.804 2.960,4.664 2.998,4.570 3.044 M18.759 3.021 C 18.484 3.106,18.161 3.351,18.049 3.560 C 17.895 3.849,17.935 4.076,18.273 4.810 C 19.168 6.758,19.588 8.247,19.804 10.240 C 19.864 10.791,19.863 12.407,19.803 13.040 C 19.615 15.010,19.143 16.888,18.281 19.096 C 17.974 19.884,17.926 20.090,17.997 20.326 C 18.100 20.673,18.563 20.979,19.060 21.026 C 19.315 21.051,19.567 20.929,19.743 20.695 C 20.036 20.307,20.851 17.985,21.238 16.440 C 21.682 14.668,21.857 13.303,21.856 11.620 C 21.856 9.622,21.585 7.998,20.926 6.040 C 20.575 4.995,19.926 3.514,19.705 3.253 C 19.482 2.988,19.138 2.904,18.759 3.021 M8.614 8.055 C 8.375 8.133,8.211 8.262,8.109 8.453 C 8.035 8.592,8.020 8.684,8.020 9.000 C 8.020 9.331,8.033 9.403,8.120 9.558 C 8.230 9.755,8.414 9.898,8.635 9.959 C 8.715 9.981,9.052 10.000,9.385 10.000 L 9.989 10.000 10.078 10.210 C 10.127 10.325,10.327 10.859,10.523 11.396 L 10.878 12.373 10.704 12.616 C 10.088 13.479,9.341 14.307,8.887 14.631 C 8.566 14.859,8.232 14.998,7.996 14.999 C 7.593 15.001,7.256 15.175,7.113 15.453 C 7.010 15.653,6.971 16.106,7.035 16.344 C 7.192 16.924,7.766 17.132,8.622 16.921 C 9.623 16.673,10.492 16.038,11.587 14.753 L 11.712 14.607 11.801 14.853 C 12.302 16.234,12.710 16.732,13.508 16.940 C 13.777 17.010,15.131 17.024,15.365 16.959 C 15.586 16.898,15.770 16.755,15.880 16.558 C 15.967 16.402,15.980 16.332,15.979 16.000 C 15.978 15.687,15.962 15.591,15.890 15.453 C 15.702 15.098,15.423 15.000,14.597 15.000 L 14.006 15.000 13.846 14.590 C 13.758 14.365,13.570 13.856,13.427 13.460 C 13.285 13.064,13.157 12.713,13.144 12.679 C 13.107 12.591,13.910 11.540,14.426 11.001 C 15.111 10.286,15.480 10.060,16.058 10.000 C 16.530 9.952,16.735 9.838,16.893 9.540 C 17.018 9.303,17.016 8.691,16.888 8.450 C 16.594 7.894,15.650 7.857,14.620 8.362 C 13.963 8.684,13.279 9.244,12.647 9.976 L 12.288 10.392 12.199 10.146 C 11.755 8.912,11.359 8.378,10.693 8.117 C 10.481 8.034,10.384 8.024,9.620 8.013 C 8.996 8.004,8.737 8.015,8.614 8.055 " stroke="none" fill="black" fill-rule="evenodd"></path></svg>