<svg xmlns="http://www.w3.org/2000/svg" width="24" height="24" viewBox="0 0 24 24" fill="none" stroke="currentColor" stroke-width="2" stroke-linecap="round" stroke-linejoin="round" class="icon icon-tabler icons-tabler-outline icon-tabler-swipe-down"><path d="M11.400 3.044 C 9.761 3.229,8.261 4.290,7.526 5.785 C 7.158 6.533,7.020 7.136,7.020 8.000 C 7.020 8.670,7.078 9.044,7.268 9.600 C 7.681 10.808,8.542 11.819,9.653 12.402 C 10.073 12.622,10.446 12.769,10.773 12.842 L 11.000 12.893 11.000 15.234 L 11.000 17.575 10.270 16.853 C 9.856 16.444,9.467 16.094,9.372 16.045 C 9.021 15.868,8.640 15.958,8.299 16.299 C 7.952 16.646,7.863 17.011,8.040 17.363 C 8.099 17.480,8.635 18.051,9.635 19.062 C 10.463 19.899,11.174 20.634,11.216 20.697 C 11.318 20.850,11.762 21.049,12.000 21.049 C 12.238 21.049,12.682 20.850,12.784 20.697 C 12.826 20.634,13.537 19.899,14.365 19.062 C 15.365 18.051,15.901 17.480,15.960 17.363 C 16.137 17.011,16.048 16.646,15.701 16.299 C 15.360 15.958,14.979 15.868,14.628 16.045 C 14.533 16.094,14.144 16.444,13.730 16.853 L 13.000 17.575 13.000 15.234 L 13.000 12.893 13.227 12.842 C 14.016 12.665,14.963 12.116,15.586 11.474 C 16.243 10.796,16.700 9.927,16.907 8.960 C 16.960 8.714,16.980 8.448,16.980 8.000 C 16.980 7.101,16.838 6.506,16.433 5.713 C 15.794 4.461,14.604 3.510,13.240 3.162 C 12.669 3.016,12.019 2.974,11.400 3.044 M12.861 5.129 C 13.804 5.405,14.584 6.183,14.875 7.139 C 14.958 7.412,14.973 7.542,14.973 8.000 C 14.973 8.458,14.958 8.588,14.875 8.861 C 14.582 9.822,13.819 10.581,12.840 10.886 C 12.406 11.021,11.594 11.021,11.160 10.886 C 10.181 10.581,9.418 9.822,9.125 8.861 C 9.042 8.588,9.027 8.458,9.027 8.000 C 9.027 7.542,9.042 7.412,9.125 7.139 C 9.456 6.054,10.371 5.245,11.499 5.040 C 11.832 4.980,12.500 5.023,12.861 5.129 " stroke="none" fill="black" fill-rule="evenodd"></path></svg>