<svg xmlns="http://www.w3.org/2000/svg" width="24" height="24" viewBox="0 0 24 24" fill="none" stroke="currentColor" stroke-width="2" stroke-linecap="round" stroke-linejoin="round" class="icon icon-tabler icons-tabler-outline icon-tabler-horse"><path d="M4.670 3.057 C 4.463 3.131,4.342 3.216,4.227 3.369 C 4.172 3.441,3.422 4.913,2.560 6.640 C 1.059 9.647,0.992 9.790,0.991 10.007 C 0.988 10.394,1.054 10.479,2.330 11.746 C 3.931 13.336,3.831 13.310,5.084 12.477 C 5.456 12.230,5.767 12.035,5.775 12.044 C 5.782 12.053,5.647 13.455,5.474 15.160 C 5.301 16.865,5.158 18.440,5.157 18.660 C 5.154 19.132,5.237 19.444,5.469 19.834 C 5.648 20.136,6.098 20.575,6.388 20.731 C 7.117 21.123,8.264 21.079,9.080 20.629 C 9.488 20.404,9.753 20.167,10.077 19.739 C 10.294 19.453,10.333 19.366,10.934 17.865 C 11.231 17.122,11.521 16.453,11.579 16.378 C 11.636 16.303,11.768 16.192,11.871 16.131 L 12.060 16.020 13.000 16.020 L 13.940 16.020 14.129 16.131 C 14.232 16.192,14.364 16.303,14.421 16.378 C 14.479 16.453,14.769 17.122,15.066 17.865 C 15.667 19.366,15.706 19.453,15.923 19.739 C 16.247 20.167,16.512 20.404,16.920 20.629 C 17.736 21.079,18.883 21.123,19.612 20.731 C 19.889 20.582,20.369 20.122,20.537 19.844 C 20.721 19.540,20.839 19.160,20.862 18.800 C 20.875 18.598,20.759 17.172,20.507 14.440 C 20.301 12.207,20.139 10.372,20.147 10.362 C 20.180 10.323,20.668 10.874,20.772 11.069 C 20.968 11.435,20.999 11.698,21.000 13.020 C 21.000 13.698,21.018 14.283,21.041 14.365 C 21.148 14.750,21.437 14.962,21.896 14.991 C 22.381 15.022,22.699 14.882,22.880 14.558 L 22.980 14.380 22.992 13.018 C 23.006 11.479,22.971 11.175,22.705 10.516 C 22.263 9.421,21.381 8.593,20.245 8.204 C 19.676 8.009,19.478 8.000,15.569 8.000 C 12.682 8.000,11.915 7.990,11.904 7.950 C 11.896 7.923,11.841 7.729,11.782 7.520 C 11.097 5.114,8.633 3.306,5.680 3.041 C 5.083 2.988,4.854 2.991,4.670 3.057 M6.127 5.119 C 7.286 5.344,8.280 5.870,9.023 6.650 C 9.390 7.035,9.621 7.392,9.781 7.819 C 9.910 8.161,9.950 8.371,9.996 8.948 C 10.047 9.584,10.209 9.841,10.635 9.959 C 10.727 9.985,12.108 10.000,14.430 10.000 C 16.438 10.000,18.081 10.014,18.082 10.030 C 18.083 10.046,18.260 11.986,18.475 14.340 C 18.750 17.347,18.856 18.659,18.831 18.750 C 18.726 19.140,17.910 19.057,17.579 18.622 C 17.521 18.547,17.231 17.878,16.934 17.135 C 16.333 15.634,16.294 15.547,16.077 15.261 C 15.737 14.811,15.435 14.555,14.980 14.328 C 14.447 14.061,14.077 14.000,13.000 14.000 C 11.953 14.000,11.580 14.059,11.053 14.306 C 10.549 14.543,9.981 15.078,9.724 15.560 C 9.660 15.681,9.364 16.389,9.066 17.133 C 8.769 17.877,8.479 18.547,8.421 18.622 C 8.216 18.891,7.741 19.064,7.425 18.985 C 7.278 18.948,7.160 18.805,7.159 18.662 C 7.158 18.595,7.350 16.601,7.586 14.231 C 8.014 9.940,8.015 9.922,7.947 9.706 C 7.867 9.453,7.619 9.152,7.397 9.038 C 7.203 8.939,6.912 8.938,6.697 9.036 C 6.608 9.076,5.994 9.470,5.333 9.911 L 4.132 10.713 3.676 10.256 L 3.221 9.799 4.410 7.420 C 5.171 5.897,5.621 5.040,5.659 5.040 C 5.691 5.040,5.901 5.076,6.127 5.119 " stroke="none" fill="black" fill-rule="evenodd"></path></svg>