<svg xmlns="http://www.w3.org/2000/svg" width="24" height="24" viewBox="0 0 24 24" fill="none" stroke="currentColor" stroke-width="2" stroke-linecap="round" stroke-linejoin="round" class="icon icon-tabler icons-tabler-outline icon-tabler-chart-bubble"><path d="M13.860 2.047 C 12.632 2.185,11.479 2.751,10.579 3.659 C 8.483 5.771,8.480 9.201,10.573 11.333 C 12.170 12.960,14.501 13.436,16.624 12.570 C 17.899 12.049,19.049 10.899,19.570 9.624 C 20.316 7.797,20.073 5.798,18.915 4.237 C 17.740 2.652,15.830 1.825,13.860 2.047 M15.405 4.115 C 16.375 4.366,17.232 5.094,17.678 6.046 C 17.906 6.532,17.978 6.881,17.978 7.500 C 17.978 8.119,17.906 8.468,17.678 8.954 C 17.223 9.925,16.401 10.617,15.360 10.905 C 14.993 11.007,14.007 11.007,13.640 10.905 C 12.412 10.565,11.437 9.601,11.111 8.405 C 10.992 7.968,10.992 7.032,11.111 6.595 C 11.467 5.286,12.615 4.251,13.942 4.042 C 14.297 3.986,15.050 4.024,15.405 4.115 M5.358 12.061 C 4.230 12.237,3.143 12.974,2.569 13.953 C 1.320 16.083,2.233 18.785,4.512 19.704 C 6.558 20.528,8.877 19.538,9.704 17.488 C 10.090 16.530,10.090 15.469,9.705 14.516 C 9.172 13.197,8.001 12.269,6.605 12.058 C 6.144 11.989,5.816 11.990,5.358 12.061 M6.523 14.073 C 7.262 14.266,7.850 14.924,7.967 15.690 C 8.067 16.343,7.873 16.933,7.403 17.404 C 7.002 17.807,6.547 18.000,6.000 18.000 C 5.485 18.000,5.038 17.822,4.653 17.465 C 3.323 16.229,4.189 14.005,6.000 14.005 C 6.143 14.005,6.378 14.036,6.523 14.073 M15.499 16.040 C 14.363 16.246,13.460 17.049,13.114 18.160 C 12.979 18.594,12.979 19.406,13.114 19.840 C 13.421 20.826,14.174 21.579,15.160 21.886 C 15.412 21.964,15.547 21.979,16.000 21.979 C 16.453 21.979,16.588 21.964,16.840 21.886 C 17.826 21.579,18.579 20.826,18.886 19.840 C 19.021 19.406,19.021 18.594,18.886 18.160 C 18.581 17.179,17.810 16.407,16.861 16.129 C 16.500 16.023,15.832 15.980,15.499 16.040 M16.310 18.061 C 16.688 18.173,17.000 18.598,17.000 19.001 C 17.000 19.331,16.784 19.696,16.484 19.872 C 16.328 19.963,16.254 19.980,16.000 19.980 C 15.746 19.980,15.672 19.963,15.516 19.872 C 14.932 19.528,14.831 18.775,15.307 18.299 C 15.582 18.024,15.918 17.944,16.310 18.061 " stroke="none" fill="black" fill-rule="evenodd"></path></svg>