<svg xmlns="http://www.w3.org/2000/svg" width="24" height="24" viewBox="0 0 24 24" fill="none" stroke="currentColor" stroke-width="2" stroke-linecap="round" stroke-linejoin="round" class="icon icon-tabler icons-tabler-outline icon-tabler-device-watch-off"><path d="M2.626 2.045 C 2.420 2.154,2.146 2.433,2.038 2.644 C 1.924 2.868,1.924 3.133,2.040 3.363 C 2.100 3.483,2.677 4.090,3.844 5.261 C 5.489 6.911,5.558 6.986,5.501 7.066 C 5.381 7.238,5.157 7.864,5.079 8.243 C 5.004 8.613,5.000 8.798,5.000 12.000 C 5.000 15.243,5.003 15.382,5.082 15.772 C 5.359 17.128,6.281 18.231,7.540 18.711 C 7.716 18.778,7.891 18.843,7.928 18.854 C 7.989 18.874,7.997 18.992,8.008 20.128 C 8.020 21.379,8.020 21.380,8.120 21.558 C 8.230 21.755,8.414 21.898,8.635 21.959 C 8.832 22.014,15.168 22.014,15.365 21.959 C 15.586 21.898,15.770 21.755,15.880 21.558 C 15.979 21.381,15.980 21.372,16.000 20.127 L 16.020 18.874 16.292 18.778 C 16.442 18.726,16.667 18.631,16.792 18.567 L 17.020 18.452 18.740 20.162 C 19.906 21.320,20.517 21.900,20.637 21.960 C 20.989 22.137,21.354 22.048,21.701 21.701 C 22.047 21.355,22.136 20.990,21.961 20.637 C 21.839 20.392,3.616 2.165,3.372 2.044 C 3.152 1.934,2.834 1.935,2.626 2.045 M8.614 2.057 C 8.377 2.131,8.212 2.261,8.109 2.453 C 8.023 2.614,8.020 2.665,8.008 3.908 C 8.000 4.720,8.011 5.254,8.038 5.352 C 8.134 5.707,8.412 5.941,8.792 5.987 L 8.990 6.010 9.013 6.208 C 9.058 6.583,9.290 6.863,9.635 6.959 C 9.725 6.984,10.815 7.001,12.520 7.002 C 15.576 7.005,15.556 7.003,16.017 7.281 C 16.294 7.448,16.618 7.787,16.772 8.071 C 16.992 8.478,16.999 8.576,17.000 11.520 C 17.000 13.203,17.016 14.274,17.041 14.365 C 17.148 14.750,17.437 14.962,17.896 14.991 C 18.381 15.022,18.699 14.882,18.880 14.558 L 18.980 14.380 18.991 11.512 C 19.002 8.769,18.999 8.628,18.922 8.249 C 18.630 6.816,17.657 5.700,16.280 5.217 L 16.020 5.126 16.000 3.873 C 15.981 2.674,15.976 2.613,15.891 2.453 C 15.785 2.256,15.622 2.131,15.371 2.055 C 15.109 1.977,8.866 1.979,8.614 2.057 M14.000 4.500 L 14.000 5.000 12.000 5.000 L 10.000 5.000 10.000 4.500 L 10.000 4.000 12.000 4.000 L 14.000 4.000 14.000 4.500 M11.298 12.718 C 13.607 15.027,15.482 16.931,15.465 16.948 C 15.415 16.999,8.818 17.009,8.578 16.960 C 7.886 16.816,7.253 16.212,7.073 15.523 C 7.011 15.285,7.004 14.952,7.002 12.076 C 7.000 9.111,7.012 8.520,7.076 8.520 C 7.089 8.520,8.989 10.409,11.298 12.718 M14.000 19.500 L 14.000 20.000 12.000 20.000 L 10.000 20.000 10.000 19.500 L 10.000 19.000 12.000 19.000 L 14.000 19.000 14.000 19.500 " stroke="none" fill="black" fill-rule="evenodd"></path></svg>