<svg xmlns="http://www.w3.org/2000/svg" width="24" height="24" viewBox="0 0 24 24" fill="none" stroke="currentColor" stroke-width="2" stroke-linecap="round" stroke-linejoin="round" class="icon icon-tabler icons-tabler-outline icon-tabler-device-ipad-down"><path d="M5.499 2.043 C 4.380 2.233,3.461 3.048,3.114 4.160 L 3.020 4.460 3.020 12.000 L 3.020 19.540 3.114 19.840 C 3.418 20.816,4.150 21.554,5.140 21.886 L 5.420 21.980 9.020 21.993 C 11.635 22.002,12.678 21.993,12.833 21.959 C 13.261 21.866,13.486 21.537,13.486 21.003 C 13.486 20.656,13.418 20.446,13.248 20.267 C 13.001 20.007,13.219 20.022,9.280 20.000 L 5.700 19.980 5.516 19.872 C 5.415 19.813,5.284 19.700,5.225 19.623 C 4.986 19.309,5.000 19.795,5.000 12.022 C 5.000 4.006,4.975 4.631,5.303 4.303 C 5.629 3.977,5.126 4.000,12.000 4.000 C 18.874 4.000,18.371 3.977,18.697 4.303 C 19.015 4.621,19.000 4.411,19.000 8.557 C 19.000 10.888,19.015 12.273,19.041 12.365 C 19.148 12.750,19.437 12.962,19.896 12.991 C 20.381 13.022,20.699 12.882,20.880 12.558 L 20.980 12.380 20.980 8.420 L 20.980 4.460 20.886 4.160 C 20.581 3.182,19.832 2.428,18.861 2.121 L 18.540 2.020 12.120 2.014 C 8.589 2.011,5.609 2.024,5.499 2.043 M18.614 15.057 C 18.377 15.131,18.212 15.261,18.109 15.453 C 18.021 15.618,18.020 15.640,18.009 17.596 L 17.997 19.572 17.269 18.852 C 16.856 18.443,16.467 18.094,16.372 18.045 C 16.021 17.868,15.640 17.958,15.299 18.299 C 14.952 18.646,14.863 19.011,15.040 19.363 C 15.099 19.480,15.635 20.051,16.635 21.062 C 17.463 21.899,18.174 22.634,18.216 22.697 C 18.318 22.850,18.762 23.049,19.000 23.049 C 19.238 23.049,19.682 22.850,19.784 22.697 C 19.826 22.634,20.537 21.899,21.365 21.062 C 22.365 20.051,22.901 19.480,22.960 19.363 C 23.137 19.011,23.048 18.646,22.701 18.299 C 22.360 17.958,21.979 17.868,21.628 18.045 C 21.533 18.094,21.144 18.443,20.732 18.851 L 20.004 19.572 19.992 17.596 C 19.980 15.640,19.979 15.618,19.891 15.453 C 19.842 15.362,19.746 15.247,19.678 15.199 C 19.414 15.010,18.957 14.950,18.614 15.057 M8.614 17.057 C 8.377 17.131,8.212 17.261,8.109 17.453 C 8.035 17.592,8.020 17.684,8.020 18.000 C 8.020 18.331,8.033 18.403,8.120 18.558 C 8.230 18.755,8.414 18.898,8.635 18.959 C 8.722 18.983,9.470 19.000,10.500 19.000 C 11.530 19.000,12.278 18.983,12.365 18.959 C 12.586 18.898,12.770 18.755,12.880 18.558 C 12.967 18.402,12.980 18.332,12.979 18.000 C 12.978 17.687,12.962 17.591,12.890 17.453 C 12.786 17.256,12.623 17.131,12.371 17.055 C 12.114 16.978,8.862 16.980,8.614 17.057 " stroke="none" fill="black" fill-rule="evenodd"></path></svg>