<svg xmlns="http://www.w3.org/2000/svg" width="24" height="24" viewBox="0 0 24 24" fill="none" stroke="currentColor" stroke-width="2" stroke-linecap="round" stroke-linejoin="round" class="icon icon-tabler icons-tabler-outline icon-tabler-forklift"><path d="M8.614 4.057 C 8.376 4.132,8.212 4.261,8.109 4.453 C 8.029 4.603,8.019 4.689,8.007 5.310 L 7.993 6.000 6.403 6.000 C 4.710 6.000,4.584 6.012,4.322 6.199 C 4.254 6.247,4.158 6.362,4.109 6.453 C 4.022 6.617,4.020 6.650,4.008 8.307 L 3.997 9.993 3.327 10.007 C 2.701 10.019,2.645 10.027,2.459 10.122 C 2.242 10.234,2.103 10.407,2.038 10.646 C 2.011 10.748,2.001 11.942,2.009 14.190 L 2.021 17.580 2.114 17.860 C 2.445 18.850,3.185 19.583,4.160 19.886 C 4.594 20.021,5.406 20.021,5.840 19.886 C 6.645 19.635,7.318 19.069,7.688 18.330 L 7.853 18.000 9.500 18.000 L 11.147 18.000 11.312 18.330 C 11.682 19.069,12.355 19.635,13.160 19.886 C 13.594 20.021,14.406 20.021,14.840 19.886 C 15.816 19.582,16.559 18.845,16.884 17.860 C 16.974 17.587,16.977 17.533,16.991 15.790 L 17.005 14.000 17.499 14.000 L 17.993 14.000 18.007 14.690 C 18.019 15.339,18.026 15.391,18.120 15.558 C 18.230 15.755,18.414 15.898,18.635 15.959 C 18.829 16.013,22.171 16.013,22.365 15.959 C 22.586 15.898,22.770 15.755,22.880 15.558 C 22.967 15.402,22.980 15.332,22.979 15.000 C 22.978 14.567,22.898 14.355,22.678 14.199 C 22.430 14.022,22.256 14.000,21.094 14.000 L 20.002 14.000 19.991 9.310 L 19.980 4.620 19.889 4.450 C 19.724 4.140,19.329 3.970,18.874 4.011 C 18.439 4.051,18.141 4.274,18.041 4.635 C 18.015 4.727,18.000 6.095,18.000 8.390 L 18.000 12.000 17.494 12.000 L 16.988 12.000 17.012 11.488 C 17.039 10.925,16.994 10.626,16.847 10.394 C 16.801 10.321,16.106 8.954,15.305 7.357 C 14.503 5.761,13.798 4.397,13.739 4.326 C 13.679 4.255,13.556 4.157,13.465 4.108 C 13.301 4.021,13.286 4.020,11.040 4.012 C 9.263 4.006,8.744 4.015,8.614 4.057 M13.370 7.980 C 13.915 9.069,14.360 9.969,14.360 9.980 C 14.360 9.991,13.379 10.000,12.180 10.000 L 10.000 10.000 10.000 8.000 L 10.000 6.000 11.190 6.000 L 12.380 6.000 13.370 7.980 M8.000 9.000 L 8.000 10.000 7.000 10.000 L 6.000 10.000 6.000 9.000 L 6.000 8.000 7.000 8.000 L 8.000 8.000 8.000 9.000 M15.000 13.083 C 15.000 14.095,14.995 14.164,14.930 14.145 C 14.892 14.134,14.779 14.102,14.680 14.074 C 14.574 14.044,14.287 14.024,13.980 14.025 C 13.548 14.027,13.406 14.044,13.139 14.125 C 12.359 14.362,11.679 14.937,11.312 15.670 L 11.147 16.000 9.500 16.000 L 7.853 16.000 7.688 15.670 C 7.321 14.937,6.641 14.362,5.861 14.125 C 5.594 14.044,5.452 14.027,5.020 14.025 C 4.713 14.024,4.426 14.044,4.320 14.074 C 4.221 14.102,4.109 14.134,4.070 14.145 C 4.005 14.164,4.000 14.095,4.000 13.083 L 4.000 12.000 9.500 12.000 L 15.000 12.000 15.000 13.083 M5.334 16.064 C 5.698 16.188,6.000 16.613,6.000 17.001 C 6.000 17.331,5.784 17.696,5.484 17.872 C 5.328 17.963,5.254 17.980,5.000 17.980 C 4.746 17.980,4.672 17.963,4.516 17.872 C 3.937 17.531,3.833 16.774,4.301 16.306 C 4.587 16.019,4.952 15.934,5.334 16.064 M14.334 16.064 C 14.698 16.188,15.000 16.613,15.000 17.001 C 15.000 17.331,14.784 17.696,14.484 17.872 C 14.328 17.963,14.254 17.980,14.000 17.980 C 13.746 17.980,13.672 17.963,13.516 17.872 C 12.937 17.531,12.833 16.774,13.301 16.306 C 13.587 16.019,13.952 15.934,14.334 16.064 " stroke="none" fill="black" fill-rule="evenodd"></path></svg>