<svg xmlns="http://www.w3.org/2000/svg" width="24" height="24" viewBox="0 0 24 24" fill="none" stroke="currentColor" stroke-width="2" stroke-linecap="round" stroke-linejoin="round" class="icon icon-tabler icons-tabler-outline icon-tabler-message-circle-code"><path d="M10.720 3.058 C 8.206 3.382,6.036 4.438,4.419 6.125 C 4.024 6.537,3.591 7.094,3.303 7.558 C 1.713 10.129,1.587 13.147,2.958 15.790 L 3.193 16.242 2.612 17.971 C 2.082 19.547,2.030 19.726,2.025 20.000 C 2.019 20.386,2.160 20.706,2.410 20.872 C 2.721 21.077,2.863 21.061,5.357 20.526 L 7.574 20.050 7.848 20.163 C 8.846 20.575,10.356 20.929,11.102 20.927 C 11.534 20.925,11.858 20.716,11.960 20.371 C 12.033 20.127,12.052 19.753,12.003 19.569 C 11.947 19.363,11.770 19.153,11.574 19.060 C 11.494 19.022,11.156 18.949,10.824 18.897 C 9.819 18.742,9.279 18.590,8.422 18.224 C 8.180 18.121,7.908 18.026,7.817 18.013 C 7.695 17.997,7.239 18.078,6.103 18.319 C 5.251 18.500,4.547 18.641,4.538 18.631 C 4.529 18.622,4.680 18.139,4.874 17.557 C 5.068 16.976,5.250 16.404,5.278 16.288 C 5.346 16.007,5.295 15.828,5.010 15.348 C 4.580 14.622,4.368 14.125,4.205 13.460 C 4.078 12.941,4.036 12.574,4.036 11.980 C 4.036 11.386,4.078 11.019,4.205 10.500 C 4.820 7.992,6.978 5.977,9.820 5.259 C 10.651 5.048,11.273 4.986,12.260 5.012 C 13.684 5.050,14.654 5.278,15.860 5.857 C 18.154 6.959,19.662 8.930,19.963 11.220 C 19.996 11.468,20.001 11.791,19.979 12.260 C 19.931 13.279,19.934 13.357,20.034 13.550 C 20.146 13.768,20.350 13.901,20.694 13.980 C 21.272 14.114,21.691 13.920,21.860 13.441 C 22.019 12.991,22.042 11.378,21.900 10.600 C 21.468 8.214,20.080 6.161,17.940 4.739 C 16.697 3.913,15.413 3.414,13.804 3.134 C 13.303 3.046,13.073 3.030,12.180 3.018 C 11.461 3.008,11.010 3.020,10.720 3.058 M16.620 16.046 C 16.390 16.165,14.153 18.411,14.040 18.637 C 13.986 18.744,13.951 18.889,13.951 19.000 C 13.951 19.334,14.057 19.468,15.294 20.706 C 16.532 21.943,16.666 22.049,17.000 22.049 C 17.477 22.049,18.049 21.477,18.049 21.000 C 18.049 20.693,17.921 20.513,17.147 19.730 L 16.425 19.000 17.147 18.270 C 17.580 17.832,17.905 17.469,17.959 17.363 C 18.137 17.012,18.048 16.646,17.701 16.299 C 17.361 15.959,16.967 15.867,16.620 16.046 M19.626 16.045 C 19.257 16.239,18.951 16.673,18.951 17.000 C 18.951 17.307,19.079 17.487,19.853 18.270 L 20.575 19.000 19.853 19.730 C 19.420 20.168,19.095 20.531,19.041 20.637 C 18.863 20.988,18.952 21.354,19.299 21.701 C 19.646 22.048,20.010 22.137,20.363 21.960 C 20.607 21.838,22.838 19.607,22.960 19.363 C 23.076 19.132,23.076 18.868,22.960 18.637 C 22.842 18.400,20.608 16.162,20.372 16.044 C 20.152 15.934,19.835 15.935,19.626 16.045 " stroke="none" fill="black" fill-rule="evenodd"></path></svg>