<svg xmlns="http://www.w3.org/2000/svg" width="24" height="24" viewBox="0 0 24 24" fill="none" stroke="currentColor" stroke-width="2" stroke-linecap="round" stroke-linejoin="round" class="icon icon-tabler icons-tabler-outline icon-tabler-file-star"><path d="M6.499 2.043 C 5.383 2.230,4.461 3.048,4.114 4.160 L 4.020 4.460 4.020 12.000 L 4.020 19.540 4.114 19.840 C 4.422 20.827,5.173 21.578,6.160 21.886 L 6.460 21.980 12.000 21.980 L 17.540 21.980 17.840 21.886 C 18.827 21.578,19.578 20.827,19.886 19.840 L 19.980 19.540 19.980 13.580 L 19.980 7.620 19.890 7.452 C 19.841 7.360,19.724 7.231,19.630 7.165 C 19.498 7.073,15.263 2.838,14.719 2.254 C 14.473 1.991,14.626 2.000,10.463 2.005 C 8.393 2.007,6.609 2.025,6.499 2.043 M13.000 5.632 C 13.000 7.399,13.010 7.507,13.225 7.930 C 13.361 8.199,13.801 8.639,14.070 8.775 C 14.493 8.990,14.601 9.000,16.368 9.000 L 18.000 9.000 18.000 14.054 C 18.000 18.220,17.990 19.139,17.945 19.290 C 17.872 19.533,17.707 19.740,17.484 19.872 L 17.300 19.980 12.000 19.980 L 6.700 19.980 6.516 19.872 C 6.415 19.813,6.284 19.700,6.225 19.623 C 5.986 19.309,6.000 19.795,6.000 12.022 C 6.000 4.005,5.975 4.631,6.304 4.303 C 6.613 3.994,6.464 4.006,9.930 4.003 L 13.000 4.000 13.000 5.632 M15.800 6.220 L 16.579 7.000 15.790 7.000 L 15.000 7.000 15.000 6.220 C 15.000 5.791,15.005 5.440,15.010 5.440 C 15.016 5.440,15.371 5.791,15.800 6.220 M11.372 9.072 C 11.112 9.165,10.870 9.331,10.723 9.517 C 10.661 9.596,10.403 10.074,10.150 10.580 L 9.689 11.501 8.657 11.651 C 7.546 11.812,7.351 11.870,7.063 12.122 C 6.745 12.402,6.575 12.831,6.611 13.267 C 6.646 13.710,6.753 13.864,7.623 14.726 C 8.233 15.330,8.399 15.517,8.384 15.580 C 8.373 15.624,8.289 16.107,8.197 16.653 L 8.030 17.645 8.095 17.913 C 8.262 18.595,8.870 19.044,9.552 18.989 C 9.821 18.968,10.039 18.871,11.330 18.198 L 11.800 17.953 12.270 18.198 C 13.561 18.871,13.779 18.968,14.048 18.989 C 14.724 19.043,15.333 18.598,15.503 17.925 C 15.576 17.635,15.580 17.680,15.357 16.400 L 15.200 15.500 15.979 14.726 C 16.844 13.867,16.944 13.722,16.986 13.276 C 17.027 12.835,16.860 12.406,16.537 12.122 C 16.249 11.870,16.054 11.812,14.943 11.651 L 13.911 11.501 13.434 10.548 C 12.905 9.491,12.773 9.315,12.370 9.130 C 12.069 8.992,11.662 8.969,11.372 9.072 M12.121 12.405 C 12.445 13.059,12.612 13.261,12.907 13.352 C 12.991 13.378,13.336 13.439,13.672 13.487 L 14.285 13.574 13.787 14.077 C 13.512 14.354,13.259 14.638,13.223 14.709 C 13.109 14.939,13.107 15.150,13.216 15.772 C 13.273 16.097,13.320 16.390,13.320 16.423 C 13.320 16.465,13.131 16.386,12.690 16.158 C 12.091 15.848,12.047 15.832,11.800 15.832 C 11.553 15.832,11.509 15.848,10.910 16.158 C 10.417 16.412,10.280 16.468,10.280 16.415 C 10.280 16.378,10.327 16.084,10.384 15.763 C 10.493 15.150,10.492 14.939,10.377 14.709 C 10.341 14.638,10.088 14.354,9.813 14.077 L 9.315 13.574 9.928 13.487 C 10.264 13.439,10.609 13.378,10.693 13.352 C 10.988 13.261,11.155 13.059,11.479 12.405 C 11.643 12.072,11.788 11.800,11.800 11.800 C 11.812 11.800,11.957 12.072,12.121 12.405 " stroke="none" fill="black" fill-rule="evenodd"></path></svg>