<svg xmlns="http://www.w3.org/2000/svg" width="24" height="24" viewBox="0 0 24 24" fill="none" stroke="currentColor" stroke-width="2" stroke-linecap="round" stroke-linejoin="round" class="icon icon-tabler icons-tabler-outline icon-tabler-hand-sanitizer"><path d="M8.499 2.043 C 7.391 2.229,6.455 3.054,6.122 4.140 C 6.018 4.479,5.972 5.113,6.035 5.344 C 6.146 5.749,6.428 5.961,6.896 5.991 C 7.592 6.035,7.918 5.762,7.996 5.072 C 8.045 4.644,8.108 4.490,8.321 4.283 C 8.589 4.024,8.725 4.000,9.947 4.000 L 11.000 4.000 11.000 5.500 L 11.000 7.000 10.390 7.000 C 9.713 7.000,9.141 7.072,8.755 7.204 C 7.368 7.679,6.372 8.805,6.083 10.227 C 6.002 10.625,6.000 10.734,6.000 15.926 C 6.000 19.349,6.015 21.271,6.041 21.365 C 6.102 21.586,6.245 21.770,6.442 21.880 L 6.620 21.980 11.914 21.991 C 15.393 21.998,17.259 21.987,17.358 21.961 C 17.584 21.900,17.768 21.757,17.880 21.558 L 17.980 21.380 17.991 16.010 C 18.001 10.771,17.999 10.630,17.921 10.246 C 17.721 9.264,17.198 8.416,16.438 7.843 C 15.619 7.226,14.863 7.001,13.610 7.000 L 13.000 7.000 13.000 5.500 L 13.000 4.000 14.110 4.000 C 14.730 4.000,15.284 3.982,15.365 3.959 C 15.586 3.898,15.770 3.755,15.880 3.558 C 15.967 3.402,15.980 3.332,15.979 3.000 C 15.978 2.567,15.898 2.355,15.678 2.199 C 15.397 1.999,15.415 2.000,11.944 2.005 C 10.160 2.007,8.609 2.025,8.499 2.043 M14.523 9.073 C 15.022 9.203,15.516 9.599,15.772 10.071 C 16.002 10.497,15.999 10.407,15.999 15.410 L 16.000 20.000 12.000 20.000 L 8.000 20.000 8.000 15.398 C 8.000 10.286,7.991 10.471,8.265 10.014 C 8.546 9.543,8.988 9.201,9.477 9.073 C 9.711 9.012,9.992 9.005,12.000 9.005 C 14.008 9.005,14.289 9.012,14.523 9.073 M11.614 10.057 C 11.377 10.131,11.212 10.261,11.109 10.453 C 11.029 10.603,11.019 10.689,11.007 11.310 L 10.993 12.000 10.403 12.000 C 9.577 12.000,9.299 12.097,9.109 12.453 C 9.035 12.592,9.020 12.684,9.020 13.000 C 9.020 13.331,9.033 13.403,9.120 13.558 C 9.230 13.755,9.414 13.898,9.635 13.959 C 9.715 13.981,10.055 14.000,10.390 14.000 L 11.000 14.000 11.000 14.610 C 11.000 14.945,11.019 15.285,11.041 15.365 C 11.148 15.750,11.437 15.962,11.896 15.991 C 12.381 16.022,12.699 15.882,12.880 15.558 C 12.974 15.391,12.981 15.338,12.994 14.690 L 13.008 14.000 13.614 14.000 C 13.947 14.000,14.285 13.981,14.365 13.959 C 14.586 13.898,14.770 13.755,14.880 13.558 C 14.967 13.402,14.980 13.332,14.979 13.000 C 14.978 12.687,14.962 12.591,14.890 12.453 C 14.702 12.098,14.423 12.000,13.598 12.000 L 13.008 12.000 12.993 11.310 C 12.976 10.541,12.930 10.378,12.678 10.199 C 12.414 10.010,11.957 9.950,11.614 10.057 " stroke="none" fill="black" fill-rule="evenodd"></path></svg>