<svg xmlns="http://www.w3.org/2000/svg" width="24" height="24" viewBox="0 0 24 24" fill="none" stroke="currentColor" stroke-width="2" stroke-linecap="round" stroke-linejoin="round" class="icon icon-tabler icons-tabler-outline icon-tabler-stairs"><path d="M16.614 4.057 C 16.377 4.131,16.212 4.261,16.109 4.453 C 16.021 4.619,16.020 4.633,16.009 6.810 L 15.997 9.000 13.905 9.000 C 11.674 9.000,11.592 9.006,11.322 9.199 C 11.254 9.247,11.158 9.362,11.109 9.453 C 11.021 9.619,11.020 9.633,11.009 11.810 L 10.997 14.000 8.905 14.000 C 6.674 14.000,6.592 14.006,6.322 14.199 C 6.254 14.247,6.158 14.362,6.109 14.453 C 6.021 14.619,6.020 14.633,6.009 16.810 L 5.997 19.000 3.905 19.000 C 1.674 19.000,1.592 19.006,1.322 19.199 C 1.100 19.357,1.020 19.568,1.020 20.000 C 1.020 20.331,1.033 20.403,1.120 20.558 C 1.230 20.755,1.414 20.898,1.635 20.959 C 1.832 21.014,7.168 21.014,7.365 20.959 C 7.586 20.898,7.770 20.755,7.880 20.558 L 7.980 20.380 7.992 18.190 L 8.003 16.000 10.112 16.000 C 11.401 16.000,12.276 15.984,12.365 15.959 C 12.586 15.898,12.770 15.755,12.880 15.558 L 12.980 15.380 12.992 13.190 L 13.003 11.000 15.112 11.000 C 16.401 11.000,17.276 10.984,17.365 10.959 C 17.586 10.898,17.770 10.755,17.880 10.558 L 17.980 10.380 17.992 8.190 L 18.003 6.000 20.112 6.000 C 21.401 6.000,22.276 5.984,22.365 5.959 C 22.586 5.898,22.770 5.755,22.880 5.558 C 22.967 5.402,22.980 5.332,22.979 5.000 C 22.978 4.567,22.898 4.355,22.678 4.199 C 22.401 4.002,22.373 4.000,19.484 4.003 C 17.382 4.005,16.743 4.017,16.614 4.057 " stroke="none" fill="black" fill-rule="evenodd"></path></svg>