<svg xmlns="http://www.w3.org/2000/svg" width="24" height="24" viewBox="0 0 24 24" fill="none" stroke="currentColor" stroke-width="2" stroke-linecap="round" stroke-linejoin="round" class="icon icon-tabler icons-tabler-outline icon-tabler-quote"><path d="M5.477 5.073 C 4.806 5.249,4.238 5.823,4.060 6.508 C 4.011 6.694,4.000 7.066,4.000 8.500 C 4.000 10.411,4.009 10.503,4.225 10.930 C 4.361 11.199,4.801 11.639,5.070 11.775 C 5.493 11.990,5.601 12.000,7.368 12.000 L 9.000 12.000 9.000 12.650 C 8.999 13.008,8.981 13.462,8.959 13.660 C 8.765 15.374,7.875 16.381,6.060 16.941 C 5.433 17.134,5.221 17.249,5.093 17.469 C 4.920 17.764,4.979 18.332,5.218 18.677 C 5.475 19.048,5.843 19.096,6.620 18.860 C 9.233 18.068,10.676 16.395,10.957 13.832 C 10.984 13.587,11.000 12.207,10.999 10.112 C 10.999 6.506,10.999 6.512,10.781 6.083 C 10.646 5.816,10.297 5.449,10.017 5.281 C 9.578 5.016,9.470 5.005,7.500 5.005 C 5.965 5.005,5.706 5.013,5.477 5.073 M14.477 5.073 C 13.806 5.249,13.238 5.823,13.060 6.508 C 13.011 6.694,13.000 7.066,13.000 8.500 C 13.000 10.411,13.009 10.503,13.225 10.930 C 13.361 11.199,13.801 11.639,14.070 11.775 C 14.493 11.990,14.601 12.000,16.368 12.000 L 18.000 12.000 18.000 12.650 C 17.999 13.008,17.981 13.462,17.959 13.660 C 17.765 15.374,16.875 16.381,15.060 16.941 C 14.433 17.134,14.221 17.249,14.093 17.469 C 13.920 17.764,13.979 18.332,14.218 18.677 C 14.475 19.048,14.843 19.096,15.620 18.860 C 18.233 18.068,19.676 16.395,19.957 13.832 C 19.984 13.587,20.000 12.207,19.999 10.112 C 19.999 6.506,19.999 6.512,19.781 6.083 C 19.646 5.816,19.297 5.449,19.017 5.281 C 18.578 5.016,18.470 5.005,16.500 5.005 C 14.965 5.005,14.706 5.013,14.477 5.073 M9.000 8.500 L 9.000 10.000 7.500 10.000 L 6.000 10.000 6.000 8.500 L 6.000 7.000 7.500 7.000 L 9.000 7.000 9.000 8.500 M18.000 8.500 L 18.000 10.000 16.500 10.000 L 15.000 10.000 15.000 8.500 L 15.000 7.000 16.500 7.000 L 18.000 7.000 18.000 8.500 " stroke="none" fill="black" fill-rule="evenodd"></path></svg>