<svg xmlns="http://www.w3.org/2000/svg" width="24" height="24" viewBox="0 0 24 24" fill="none" stroke="currentColor" stroke-width="2" stroke-linecap="round" stroke-linejoin="round" class="icon icon-tabler icons-tabler-outline icon-tabler-cell-signal-off"><path d="M2.626 2.045 C 2.420 2.154,2.146 2.433,2.038 2.644 C 1.924 2.867,1.924 3.132,2.039 3.363 C 2.102 3.489,3.270 4.683,6.093 7.510 L 10.059 11.479 6.675 14.870 C 3.031 18.521,3.168 18.368,3.040 18.916 C 2.856 19.700,3.330 20.572,4.110 20.887 L 4.340 20.980 11.957 20.990 L 19.574 21.001 20.019 21.435 C 20.263 21.674,20.543 21.910,20.639 21.960 C 20.988 22.137,21.354 22.048,21.701 21.701 C 22.048 21.354,22.137 20.988,21.960 20.640 C 21.888 20.499,21.179 19.710,20.750 19.293 C 20.700 19.245,16.808 15.363,12.100 10.667 C 6.186 4.767,3.488 2.102,3.372 2.044 C 3.152 1.934,2.834 1.935,2.626 2.045 M18.860 3.055 C 18.386 3.171,18.373 3.182,15.414 6.138 C 13.433 8.116,12.582 8.992,12.519 9.117 C 12.333 9.490,12.444 9.889,12.832 10.244 C 13.197 10.577,13.587 10.629,13.940 10.390 C 14.006 10.345,15.172 9.200,16.530 7.844 L 19.000 5.380 19.000 10.800 C 19.000 14.308,19.015 16.271,19.041 16.365 C 19.102 16.586,19.245 16.770,19.442 16.880 C 19.597 16.967,19.669 16.980,20.000 16.980 C 20.331 16.980,20.403 16.967,20.558 16.880 C 20.755 16.770,20.898 16.586,20.959 16.365 C 20.985 16.271,21.000 14.168,21.000 10.378 C 21.000 3.931,21.014 4.288,20.748 3.846 C 20.503 3.439,20.111 3.156,19.655 3.060 C 19.329 2.991,19.131 2.990,18.860 3.055 M14.540 15.960 L 17.580 19.000 11.480 19.000 L 5.380 19.000 8.420 15.960 C 10.092 14.288,11.469 12.920,11.480 12.920 C 11.491 12.920,12.868 14.288,14.540 15.960 " stroke="none" fill="black" fill-rule="evenodd"></path></svg>