<svg xmlns="http://www.w3.org/2000/svg" width="24" height="24" viewBox="0 0 24 24" fill="none" stroke="currentColor" stroke-width="2" stroke-linecap="round" stroke-linejoin="round" class="icon icon-tabler icons-tabler-outline icon-tabler-fountain"><path d="M8.358 2.061 C 6.731 2.315,5.417 3.584,5.083 5.227 C 4.847 6.381,5.105 6.941,5.896 6.991 C 6.375 7.021,6.700 6.881,6.871 6.572 C 6.938 6.450,6.972 6.297,7.000 5.993 C 7.046 5.476,7.117 5.238,7.314 4.937 C 7.810 4.181,8.661 3.848,9.523 4.073 C 10.022 4.203,10.516 4.599,10.772 5.071 C 11.002 5.497,10.999 5.407,10.999 10.410 L 11.000 15.000 10.502 15.000 L 10.004 15.000 9.991 12.710 C 9.978 10.438,9.977 10.418,9.885 10.140 C 9.560 9.160,8.811 8.415,7.861 8.125 C 7.588 8.042,7.458 8.027,7.000 8.027 C 6.542 8.027,6.412 8.042,6.139 8.125 C 5.186 8.416,4.415 9.185,4.122 10.140 C 4.018 10.479,3.972 11.113,4.035 11.344 C 4.146 11.749,4.428 11.961,4.896 11.991 C 5.592 12.035,5.918 11.762,5.996 11.072 C 6.045 10.644,6.108 10.490,6.321 10.283 C 6.490 10.120,6.777 10.000,7.000 10.000 C 7.237 10.000,7.514 10.120,7.697 10.303 C 8.002 10.608,8.000 10.595,8.000 12.947 L 8.000 15.000 5.406 15.000 C 2.637 15.000,2.597 15.003,2.322 15.199 C 2.254 15.247,2.158 15.362,2.109 15.453 C 2.023 15.615,2.020 15.662,2.008 16.984 C 1.997 18.243,2.003 18.381,2.081 18.763 C 2.222 19.457,2.508 20.054,2.954 20.584 C 3.529 21.266,4.331 21.735,5.243 21.921 C 5.622 21.998,5.805 22.000,12.000 22.000 C 18.195 22.000,18.378 21.998,18.757 21.921 C 20.117 21.643,21.193 20.755,21.704 19.488 C 21.972 18.823,22.006 18.523,21.992 16.982 C 21.980 15.662,21.977 15.615,21.891 15.453 C 21.842 15.362,21.746 15.247,21.678 15.199 C 21.403 15.003,21.363 15.000,18.594 15.000 L 16.000 15.000 16.000 12.947 C 16.000 10.595,15.998 10.608,16.303 10.303 C 16.486 10.120,16.763 10.000,17.000 10.000 C 17.223 10.000,17.510 10.120,17.679 10.283 C 17.892 10.491,17.958 10.650,18.001 11.067 C 18.068 11.718,18.370 12.000,19.000 12.000 C 19.428 12.000,19.713 11.856,19.880 11.558 C 19.971 11.396,19.980 11.338,19.979 10.920 C 19.978 10.555,19.959 10.398,19.885 10.160 C 19.584 9.184,18.822 8.418,17.861 8.125 C 17.588 8.042,17.458 8.027,17.000 8.027 C 16.542 8.027,16.412 8.042,16.139 8.125 C 15.189 8.415,14.440 9.160,14.115 10.140 C 14.023 10.418,14.022 10.438,14.009 12.710 L 13.996 15.000 13.498 15.000 L 13.000 15.000 13.000 10.398 C 13.000 5.286,12.991 5.471,13.265 5.014 C 13.546 4.543,13.988 4.201,14.477 4.073 C 15.339 3.848,16.190 4.181,16.686 4.938 C 16.881 5.235,16.953 5.478,16.998 5.993 C 17.060 6.718,17.341 7.000,18.000 7.000 C 18.426 7.000,18.714 6.856,18.876 6.563 C 19.086 6.182,19.010 5.271,18.705 4.516 C 18.172 3.197,17.001 2.269,15.605 2.058 C 15.121 1.986,14.879 1.986,14.395 2.058 C 13.581 2.181,12.832 2.552,12.192 3.151 L 12.000 3.331 11.808 3.151 C 11.168 2.552,10.419 2.181,9.605 2.058 C 9.144 1.989,8.816 1.990,8.358 2.061 M19.999 17.590 C 19.998 18.558,19.879 18.919,19.400 19.404 C 19.119 19.690,18.854 19.846,18.492 19.940 C 18.147 20.030,5.853 20.030,5.508 19.940 C 4.823 19.762,4.249 19.194,4.073 18.523 C 4.023 18.331,4.004 18.090,4.002 17.630 L 4.000 17.000 12.000 17.000 L 20.000 17.000 19.999 17.590 " stroke="none" fill="black" fill-rule="evenodd"></path></svg>