<svg xmlns="http://www.w3.org/2000/svg" width="24" height="24" viewBox="0 0 24 24" fill="none" stroke="currentColor" stroke-width="2" stroke-linecap="round" stroke-linejoin="round" class="icon icon-tabler icons-tabler-outline icon-tabler-ai"><path d="M9.499 7.040 C 8.374 7.244,7.487 8.025,7.114 9.140 L 7.021 9.420 7.009 12.810 C 7.001 15.058,7.011 16.252,7.038 16.354 C 7.144 16.747,7.433 16.961,7.896 16.991 C 8.381 17.022,8.699 16.882,8.880 16.558 C 8.979 16.381,8.980 16.374,8.993 15.190 L 9.005 14.000 10.003 14.000 L 11.000 14.000 11.000 15.110 C 11.000 15.730,11.018 16.284,11.041 16.365 C 11.148 16.750,11.437 16.962,11.896 16.991 C 12.381 17.022,12.699 16.882,12.880 16.558 L 12.980 16.380 12.980 12.920 L 12.980 9.460 12.886 9.160 C 12.580 8.178,11.810 7.407,10.861 7.129 C 10.500 7.023,9.832 6.980,9.499 7.040 M15.614 7.057 C 15.377 7.131,15.212 7.261,15.109 7.453 L 15.020 7.620 15.009 11.913 C 15.002 14.727,15.013 16.258,15.039 16.357 C 15.144 16.747,15.434 16.961,15.896 16.991 C 16.381 17.022,16.699 16.882,16.880 16.558 L 16.980 16.380 16.980 12.000 L 16.980 7.620 16.891 7.453 C 16.842 7.362,16.746 7.247,16.678 7.199 C 16.414 7.010,15.957 6.950,15.614 7.057 M10.310 9.061 C 10.452 9.103,10.571 9.178,10.697 9.303 C 10.978 9.584,11.000 9.703,11.000 10.947 L 11.000 12.000 10.000 12.000 L 9.000 12.000 9.000 10.947 C 9.000 9.702,9.022 9.585,9.304 9.303 C 9.583 9.024,9.916 8.944,10.310 9.061 " stroke="none" fill="black" fill-rule="evenodd"></path></svg>