<svg xmlns="http://www.w3.org/2000/svg" width="24" height="24" viewBox="0 0 24 24" fill="none" stroke="currentColor" stroke-width="2" stroke-linecap="round" stroke-linejoin="round" class="icon icon-tabler icons-tabler-outline icon-tabler-brand-nuxt"><path d="M9.496 5.057 C 9.055 5.158,8.621 5.435,8.354 5.787 C 8.164 6.039,2.295 15.878,2.177 16.144 C 1.700 17.217,2.246 18.459,3.383 18.889 C 3.617 18.978,3.650 18.979,5.890 18.991 C 7.370 18.999,8.214 18.989,8.314 18.962 C 8.543 18.900,8.728 18.758,8.840 18.558 C 8.927 18.402,8.940 18.332,8.939 18.000 C 8.938 17.567,8.858 17.355,8.638 17.199 C 8.368 17.006,8.285 17.000,6.069 17.000 C 4.357 17.000,3.995 16.991,4.012 16.947 C 4.053 16.841,9.923 7.020,9.951 7.010 C 9.968 7.004,10.296 7.505,10.680 8.124 C 11.110 8.813,11.444 9.307,11.546 9.401 C 11.732 9.573,11.984 9.660,12.195 9.625 C 12.547 9.568,12.987 9.245,13.124 8.942 C 13.218 8.736,13.219 8.570,13.127 8.330 C 13.005 8.013,11.625 5.836,11.403 5.611 C 11.179 5.383,10.864 5.188,10.574 5.098 C 10.290 5.010,9.785 4.991,9.496 5.057 M15.524 8.063 C 15.069 8.186,14.585 8.540,14.354 8.920 C 13.758 9.900,10.173 16.186,10.114 16.354 C 9.755 17.374,10.299 18.507,11.340 18.904 C 11.532 18.977,11.722 18.980,15.879 18.991 C 18.909 18.998,20.283 18.989,20.430 18.958 C 20.950 18.850,21.503 18.436,21.753 17.967 C 22.012 17.480,22.064 16.858,21.886 16.353 C 21.823 16.174,18.024 9.520,17.614 8.870 C 17.199 8.213,16.283 7.859,15.524 8.063 M18.014 13.561 L 19.986 16.980 17.993 16.990 C 16.897 16.996,15.103 16.996,14.008 16.990 L 12.015 16.980 13.993 13.548 C 15.080 11.661,15.987 10.122,16.007 10.129 C 16.027 10.136,16.930 11.680,18.014 13.561 " stroke="none" fill="black" fill-rule="evenodd"></path></svg>