<svg xmlns="http://www.w3.org/2000/svg" width="24" height="24" viewBox="0 0 24 24" fill="none" stroke="currentColor" stroke-width="2" stroke-linecap="round" stroke-linejoin="round" class="icon icon-tabler icons-tabler-outline icon-tabler-stairs-up"><path d="M5.530 2.083 C 5.393 2.150,5.249 2.252,5.210 2.310 C 5.172 2.369,4.463 3.101,3.635 3.938 C 2.635 4.949,2.099 5.520,2.040 5.637 C 1.863 5.989,1.952 6.354,2.299 6.701 C 2.646 7.048,3.012 7.137,3.363 6.959 C 3.469 6.905,3.832 6.580,4.270 6.147 L 5.000 5.425 5.000 7.822 C 5.000 9.305,5.016 10.275,5.041 10.365 C 5.148 10.750,5.437 10.962,5.896 10.991 C 6.381 11.022,6.699 10.882,6.880 10.558 L 6.980 10.380 6.991 7.904 L 7.003 5.428 7.731 6.148 C 8.168 6.581,8.531 6.905,8.637 6.959 C 8.988 7.137,9.354 7.048,9.701 6.701 C 10.048 6.354,10.137 5.989,9.960 5.637 C 9.901 5.520,9.365 4.949,8.365 3.938 C 7.537 3.101,6.828 2.369,6.789 2.310 C 6.751 2.252,6.604 2.149,6.464 2.082 C 6.120 1.918,5.871 1.918,5.530 2.083 M16.614 5.057 C 16.377 5.131,16.212 5.261,16.109 5.453 C 16.021 5.619,16.020 5.633,16.009 7.810 L 15.997 10.000 13.905 10.000 C 11.674 10.000,11.592 10.006,11.322 10.199 C 11.254 10.247,11.158 10.362,11.109 10.453 C 11.021 10.619,11.020 10.633,11.009 12.810 L 10.997 15.000 8.905 15.000 C 6.674 15.000,6.592 15.006,6.322 15.199 C 6.254 15.247,6.158 15.362,6.109 15.453 C 6.021 15.619,6.020 15.633,6.009 17.810 L 5.997 20.000 3.905 20.000 C 1.674 20.000,1.592 20.006,1.322 20.199 C 1.100 20.357,1.020 20.568,1.020 21.000 C 1.020 21.331,1.033 21.403,1.120 21.558 C 1.230 21.755,1.414 21.898,1.635 21.959 C 1.832 22.014,7.168 22.014,7.365 21.959 C 7.586 21.898,7.770 21.755,7.880 21.558 L 7.980 21.380 7.992 19.190 L 8.003 17.000 10.112 17.000 C 11.401 17.000,12.276 16.984,12.365 16.959 C 12.586 16.898,12.770 16.755,12.880 16.558 L 12.980 16.380 12.992 14.190 L 13.003 12.000 15.112 12.000 C 16.401 12.000,17.276 11.984,17.365 11.959 C 17.586 11.898,17.770 11.755,17.880 11.558 L 17.980 11.380 17.992 9.190 L 18.003 7.000 20.112 7.000 C 21.401 7.000,22.276 6.984,22.365 6.959 C 22.586 6.898,22.770 6.755,22.880 6.558 C 22.967 6.402,22.980 6.332,22.979 6.000 C 22.978 5.567,22.898 5.355,22.678 5.199 C 22.401 5.002,22.373 5.000,19.484 5.003 C 17.382 5.005,16.743 5.017,16.614 5.057 " stroke="none" fill="black" fill-rule="evenodd"></path></svg>