<svg xmlns="http://www.w3.org/2000/svg" width="24" height="24" viewBox="0 0 24 24" fill="none" stroke="currentColor" stroke-width="2" stroke-linecap="round" stroke-linejoin="round" class="icon icon-tabler icons-tabler-outline icon-tabler-disabled-2"><path d="M16.499 3.040 C 15.363 3.246,14.460 4.049,14.114 5.160 C 13.979 5.594,13.979 6.406,14.114 6.840 C 14.421 7.826,15.174 8.579,16.160 8.886 C 16.594 9.021,17.406 9.021,17.840 8.886 C 18.826 8.579,19.579 7.826,19.886 6.840 C 20.021 6.406,20.021 5.594,19.886 5.160 C 19.581 4.179,18.810 3.407,17.861 3.129 C 17.500 3.023,16.832 2.980,16.499 3.040 M17.310 5.061 C 17.688 5.173,18.000 5.598,18.000 6.001 C 18.000 6.331,17.784 6.696,17.484 6.872 C 17.328 6.963,17.254 6.980,17.000 6.980 C 16.746 6.980,16.672 6.963,16.516 6.872 C 15.932 6.528,15.831 5.775,16.307 5.299 C 16.582 5.024,16.918 4.944,17.310 5.061 M7.737 6.535 C 5.399 7.121,5.269 7.167,5.093 7.469 C 4.846 7.890,5.059 8.678,5.484 8.917 C 5.766 9.076,5.955 9.048,7.959 8.543 L 9.779 8.085 11.228 9.171 C 12.592 10.193,12.675 10.262,12.626 10.339 C 12.198 11.008,10.098 14.571,10.052 14.705 C 10.010 14.829,9.996 14.969,10.010 15.141 C 10.044 15.568,10.265 15.856,10.635 15.959 C 10.723 15.984,11.521 16.000,12.650 16.000 L 14.519 16.000 16.442 18.402 C 18.558 21.046,18.552 21.040,18.955 21.040 C 19.319 21.040,19.731 20.780,19.945 20.415 C 20.088 20.171,20.071 19.811,19.904 19.558 C 19.841 19.464,18.858 18.223,17.719 16.799 C 15.856 14.470,15.629 14.202,15.454 14.116 C 15.264 14.022,15.235 14.020,14.013 14.008 L 12.766 13.996 13.848 12.193 C 14.444 11.201,14.958 10.305,14.991 10.201 C 15.071 9.951,15.030 9.694,14.877 9.483 C 14.716 9.260,10.508 6.103,10.293 6.043 C 10.209 6.020,10.077 6.001,10.000 6.002 C 9.923 6.002,8.905 6.242,7.737 6.535 M8.400 10.027 C 6.434 10.222,4.738 11.290,3.746 12.958 C 2.883 14.409,2.687 16.255,3.222 17.891 C 3.354 18.295,3.683 18.968,3.927 19.331 C 4.821 20.664,6.226 21.584,7.860 21.908 C 8.351 22.005,9.478 22.005,9.963 21.908 C 11.273 21.647,12.332 21.078,13.223 20.154 C 13.945 19.407,14.121 19.011,13.925 18.580 C 13.795 18.295,13.308 17.940,13.019 17.920 C 12.611 17.892,12.461 17.980,12.022 18.509 C 11.352 19.315,10.594 19.753,9.546 19.940 C 8.281 20.167,6.909 19.702,6.013 18.744 C 4.723 17.364,4.558 15.311,5.612 13.740 C 5.837 13.404,6.362 12.895,6.737 12.650 C 7.360 12.241,7.960 12.055,8.820 12.005 C 9.431 11.969,9.631 11.906,9.797 11.695 C 9.931 11.525,10.012 11.183,9.991 10.883 C 9.939 10.166,9.481 9.919,8.400 10.027 " stroke="none" fill="black" fill-rule="evenodd"></path></svg>