<svg xmlns="http://www.w3.org/2000/svg" width="24" height="24" viewBox="0 0 24 24" fill="none" stroke="currentColor" stroke-width="2" stroke-linecap="round" stroke-linejoin="round" class="icon icon-tabler icons-tabler-outline icon-tabler-rewind-backward-40"><path d="M6.620 2.046 C 6.528 2.094,5.826 2.758,4.960 3.618 C 4.135 4.438,3.399 5.150,3.324 5.201 C 3.149 5.321,2.951 5.745,2.951 6.000 C 2.951 6.238,3.150 6.682,3.303 6.784 C 3.366 6.826,4.101 7.537,4.938 8.365 C 5.949 9.365,6.520 9.901,6.637 9.960 C 6.989 10.137,7.354 10.048,7.701 9.701 C 8.048 9.354,8.137 8.988,7.959 8.637 C 7.905 8.531,7.580 8.167,7.146 7.729 L 6.422 6.997 11.061 7.011 C 15.151 7.024,15.733 7.033,15.980 7.090 C 16.959 7.315,17.763 7.739,18.452 8.395 C 19.182 9.089,19.687 10.008,19.907 11.040 C 20.007 11.513,20.006 12.490,19.905 12.958 C 19.800 13.439,19.659 13.845,19.452 14.260 C 19.206 14.754,18.976 15.067,18.492 15.566 C 18.265 15.800,18.052 16.056,18.020 16.135 C 17.883 16.461,17.981 16.815,18.302 17.158 C 18.872 17.767,19.376 17.624,20.271 16.601 C 21.201 15.537,21.785 14.208,21.963 12.745 C 22.056 11.983,21.973 10.970,21.752 10.160 C 21.045 7.572,18.933 5.632,16.260 5.111 C 15.829 5.027,15.728 5.025,11.124 5.011 L 6.428 4.997 7.149 4.268 C 7.581 3.832,7.905 3.469,7.959 3.363 C 8.137 3.012,8.048 2.646,7.701 2.299 C 7.361 1.959,6.967 1.867,6.620 2.046 M5.614 13.057 C 5.377 13.131,5.212 13.261,5.109 13.453 C 5.023 13.614,5.020 13.664,5.008 14.914 C 5.000 15.736,5.012 16.283,5.039 16.416 C 5.114 16.779,5.299 17.107,5.591 17.399 C 6.073 17.882,6.424 18.000,7.368 18.000 L 8.000 18.000 8.000 19.110 C 8.000 19.730,8.018 20.284,8.041 20.365 C 8.148 20.750,8.437 20.962,8.896 20.991 C 9.381 21.022,9.699 20.882,9.880 20.558 L 9.980 20.380 9.980 17.000 L 9.980 13.620 9.889 13.450 C 9.724 13.140,9.329 12.970,8.874 13.011 C 8.439 13.051,8.141 13.274,8.041 13.635 C 8.018 13.716,8.000 14.270,8.000 14.890 L 8.000 16.000 7.503 16.000 L 7.005 16.000 6.993 14.810 C 6.981 13.669,6.976 13.613,6.891 13.453 C 6.842 13.362,6.746 13.247,6.678 13.199 C 6.414 13.010,5.957 12.950,5.614 13.057 M12.960 13.062 C 12.605 13.138,12.107 13.393,11.832 13.639 C 11.532 13.907,11.239 14.352,11.118 14.722 L 11.020 15.020 11.020 17.020 L 11.020 19.020 11.131 19.320 C 11.399 20.044,11.964 20.608,12.680 20.868 C 12.948 20.965,13.035 20.976,13.500 20.976 C 13.965 20.976,14.052 20.965,14.320 20.868 C 15.036 20.608,15.601 20.044,15.869 19.320 L 15.980 19.020 15.980 17.000 L 15.980 14.980 15.869 14.680 C 15.430 13.486,14.192 12.798,12.960 13.062 M13.724 15.062 C 13.790 15.096,13.879 15.182,13.922 15.252 C 13.996 15.373,14.000 15.464,14.000 17.000 C 14.000 18.536,13.996 18.627,13.922 18.748 C 13.722 19.076,13.278 19.076,13.078 18.748 C 13.004 18.627,13.000 18.536,13.000 17.008 C 13.000 15.228,12.999 15.232,13.252 15.078 C 13.406 14.984,13.563 14.979,13.724 15.062 " stroke="none" fill="black" fill-rule="evenodd"></path></svg>