<svg xmlns="http://www.w3.org/2000/svg" width="24" height="24" viewBox="0 0 24 24" fill="none" stroke="currentColor" stroke-width="2" stroke-linecap="round" stroke-linejoin="round" class="icon icon-tabler icons-tabler-outline icon-tabler-box-align-left"><path d="M4.580 3.046 C 4.098 3.140,3.550 3.535,3.281 3.982 C 2.985 4.475,3.005 3.903,3.003 11.980 C 3.001 19.871,2.990 19.465,3.225 19.931 C 3.462 20.398,4.059 20.852,4.579 20.960 C 4.714 20.988,5.724 20.998,7.581 20.991 L 10.380 20.980 10.558 20.880 C 10.755 20.770,10.898 20.586,10.959 20.365 C 11.015 20.165,11.015 3.835,10.959 3.635 C 10.895 3.404,10.755 3.233,10.541 3.122 L 10.342 3.020 7.561 3.014 C 5.905 3.010,4.699 3.023,4.580 3.046 M14.669 3.044 C 14.214 3.151,14.001 3.457,14.000 4.003 C 14.000 4.690,14.384 5.037,15.096 4.992 C 15.732 4.951,16.035 4.581,15.991 3.900 C 15.969 3.556,15.855 3.317,15.649 3.182 C 15.398 3.017,15.013 2.963,14.669 3.044 M19.669 3.044 C 19.214 3.151,19.001 3.457,19.000 4.003 C 19.000 4.690,19.384 5.037,20.096 4.992 C 20.732 4.951,21.035 4.581,20.991 3.900 C 20.969 3.556,20.855 3.317,20.649 3.182 C 20.398 3.017,20.013 2.963,19.669 3.044 M9.000 12.000 L 9.000 19.000 7.000 19.000 L 5.000 19.000 5.000 12.000 L 5.000 5.000 7.000 5.000 L 9.000 5.000 9.000 12.000 M19.669 8.044 C 19.214 8.151,19.001 8.457,19.000 9.003 C 19.000 9.690,19.384 10.037,20.096 9.992 C 20.732 9.951,21.035 9.581,20.991 8.900 C 20.969 8.556,20.855 8.317,20.649 8.182 C 20.398 8.017,20.013 7.963,19.669 8.044 M19.669 14.044 C 19.214 14.151,19.001 14.457,19.000 15.003 C 19.000 15.690,19.384 16.037,20.096 15.992 C 20.732 15.951,21.035 15.581,20.991 14.900 C 20.969 14.556,20.855 14.317,20.649 14.182 C 20.398 14.017,20.013 13.963,19.669 14.044 M14.627 19.057 C 14.232 19.163,14.039 19.426,14.009 19.899 C 13.960 20.655,14.344 21.040,15.096 20.992 C 15.572 20.961,15.854 20.751,15.965 20.344 C 16.030 20.104,15.990 19.653,15.886 19.450 C 15.696 19.079,15.163 18.913,14.627 19.057 M19.627 19.057 C 19.232 19.163,19.039 19.426,19.009 19.899 C 18.960 20.655,19.344 21.040,20.096 20.992 C 20.572 20.961,20.854 20.751,20.965 20.344 C 21.030 20.104,20.990 19.653,20.886 19.450 C 20.696 19.079,20.163 18.913,19.627 19.057 " stroke="none" fill="black" fill-rule="evenodd"></path></svg>