<svg xmlns="http://www.w3.org/2000/svg" width="24" height="24" viewBox="0 0 24 24" fill="none" stroke="currentColor" stroke-width="2" stroke-linecap="round" stroke-linejoin="round" class="icon icon-tabler icons-tabler-outline icon-tabler-mail-x"><path d="M4.499 4.043 C 3.424 4.225,2.474 5.039,2.145 6.060 C 1.982 6.569,1.979 6.672,2.000 12.240 L 2.021 17.580 2.114 17.860 C 2.441 18.838,3.160 19.557,4.140 19.886 L 4.420 19.980 9.020 19.993 C 12.381 20.002,13.677 19.993,13.833 19.959 C 14.261 19.866,14.486 19.537,14.486 19.003 C 14.486 18.656,14.418 18.446,14.248 18.267 C 13.998 18.004,14.327 18.022,9.280 18.000 L 4.700 17.980 4.516 17.872 C 4.415 17.813,4.283 17.700,4.224 17.621 C 3.990 17.314,3.999 17.508,4.010 13.010 L 4.020 8.880 7.778 11.385 C 9.845 12.763,11.595 13.915,11.667 13.945 C 11.834 14.015,12.166 14.015,12.333 13.945 C 12.405 13.915,14.155 12.763,16.222 11.385 L 19.980 8.880 20.000 11.130 L 20.020 13.380 20.120 13.558 C 20.287 13.856,20.572 14.000,21.000 14.000 C 21.428 14.000,21.713 13.856,21.880 13.558 L 21.980 13.380 22.000 10.140 C 22.021 6.773,22.014 6.553,21.855 6.060 C 21.569 5.172,20.789 4.415,19.861 4.121 L 19.540 4.020 12.120 4.014 C 8.039 4.011,4.609 4.024,4.499 4.043 M19.310 6.061 C 19.453 6.103,19.571 6.178,19.698 6.304 C 19.798 6.404,19.880 6.500,19.880 6.517 C 19.880 6.533,18.107 7.729,15.940 9.173 L 12.000 11.800 8.060 9.173 C 5.893 7.729,4.120 6.533,4.120 6.517 C 4.120 6.429,4.502 6.116,4.673 6.063 C 4.964 5.974,19.009 5.971,19.310 6.061 M16.626 16.045 C 16.257 16.239,15.951 16.673,15.951 17.000 C 15.951 17.323,16.068 17.478,17.103 18.520 L 18.077 19.500 17.103 20.480 C 16.068 21.522,15.951 21.677,15.951 22.000 C 15.951 22.477,16.523 23.049,17.000 23.049 C 17.323 23.049,17.478 22.932,18.520 21.897 L 19.500 20.923 20.480 21.897 C 21.522 22.932,21.677 23.049,22.000 23.049 C 22.477 23.049,23.049 22.477,23.049 22.000 C 23.049 21.677,22.932 21.522,21.897 20.480 L 20.923 19.500 21.897 18.520 C 22.518 17.895,22.903 17.476,22.960 17.363 C 23.137 17.011,23.048 16.646,22.701 16.299 C 22.360 15.958,21.979 15.868,21.628 16.045 C 21.527 16.096,21.072 16.515,20.480 17.103 L 19.500 18.077 18.520 17.103 C 17.927 16.514,17.474 16.096,17.372 16.045 C 17.152 15.934,16.835 15.934,16.626 16.045 " stroke="none" fill="black" fill-rule="evenodd"></path></svg>