<svg xmlns="http://www.w3.org/2000/svg" width="24" height="24" viewBox="0 0 24 24" fill="none" stroke="currentColor" stroke-width="2" stroke-linecap="round" stroke-linejoin="round" class="icon icon-tabler icons-tabler-outline icon-tabler-mood-share"><path d="M11.140 2.044 C 9.039 2.241,7.189 3.009,5.560 4.362 C 3.699 5.908,2.459 8.149,2.097 10.620 C 2.010 11.219,1.980 12.298,2.037 12.860 C 2.196 14.454,2.660 15.870,3.453 17.180 C 4.770 19.355,6.882 20.950,9.355 21.637 C 10.550 21.969,12.128 22.100,12.521 21.901 C 12.871 21.723,12.977 21.514,12.979 21.000 C 12.980 20.668,12.967 20.598,12.880 20.442 C 12.817 20.330,12.709 20.220,12.591 20.146 C 12.411 20.035,12.371 20.028,11.771 19.998 C 10.504 19.934,9.620 19.719,8.570 19.218 C 6.979 18.459,5.651 17.174,4.885 15.649 C 3.991 13.872,3.775 11.941,4.257 10.037 C 4.610 8.645,5.244 7.498,6.219 6.485 C 7.492 5.165,8.989 4.386,10.827 4.091 C 11.466 3.988,12.741 3.999,13.360 4.111 C 16.765 4.732,19.355 7.369,19.905 10.775 C 19.972 11.189,19.996 12.075,19.962 12.900 C 19.946 13.284,19.954 13.363,20.027 13.524 C 20.167 13.834,20.502 14.006,20.980 14.012 C 21.524 14.019,21.812 13.774,21.925 13.209 C 22.008 12.791,21.996 11.178,21.906 10.620 C 21.533 8.324,20.617 6.494,19.062 4.938 C 16.975 2.849,14.031 1.774,11.140 2.044 M8.614 9.055 C 8.220 9.184,8.039 9.437,8.009 9.900 C 7.978 10.381,8.119 10.699,8.442 10.880 C 8.597 10.967,8.669 10.980,9.000 10.980 C 9.312 10.980,9.408 10.964,9.540 10.894 C 9.866 10.718,10.000 10.459,10.000 10.000 C 10.000 9.357,9.713 9.048,9.083 9.016 C 8.893 9.006,8.718 9.021,8.614 9.055 M14.614 9.055 C 14.220 9.184,14.039 9.437,14.009 9.900 C 13.978 10.381,14.119 10.699,14.442 10.880 C 14.597 10.967,14.669 10.980,15.000 10.980 C 15.312 10.980,15.408 10.964,15.540 10.894 C 15.866 10.718,16.000 10.459,16.000 10.000 C 16.000 9.357,15.713 9.048,15.083 9.016 C 14.893 9.006,14.718 9.021,14.614 9.055 M9.125 14.051 C 9.029 14.100,8.857 14.240,8.743 14.363 C 8.286 14.857,8.343 15.274,8.947 15.840 C 9.683 16.530,10.665 16.930,11.760 16.986 C 12.857 17.042,13.465 16.819,13.603 16.311 C 13.717 15.889,13.534 15.290,13.229 15.088 L 13.066 14.980 12.263 14.979 C 11.486 14.979,11.449 14.975,11.140 14.866 C 10.751 14.730,10.635 14.660,10.244 14.327 C 10.077 14.185,9.882 14.044,9.811 14.014 C 9.616 13.932,9.326 13.948,9.125 14.051 M18.460 15.999 C 15.916 16.022,15.992 16.015,15.752 16.267 C 15.584 16.443,15.513 16.658,15.512 16.997 C 15.510 17.348,15.582 17.556,15.771 17.751 C 15.988 17.976,16.151 18.000,17.436 18.000 L 18.578 18.000 16.853 19.730 C 15.679 20.908,15.100 21.517,15.040 21.637 C 14.863 21.989,14.952 22.354,15.299 22.701 C 15.646 23.048,16.011 23.137,16.363 22.960 C 16.483 22.900,17.092 22.321,18.270 21.147 L 20.000 19.422 20.000 20.564 C 20.000 21.849,20.024 22.012,20.249 22.229 C 20.442 22.416,20.647 22.487,20.997 22.488 C 21.336 22.490,21.552 22.419,21.735 22.248 C 21.985 22.013,21.977 22.088,22.007 19.460 C 22.022 18.140,22.036 17.001,22.037 16.929 C 22.041 16.740,21.834 16.310,21.690 16.207 C 21.467 16.048,21.205 15.959,20.987 15.969 C 20.873 15.974,19.736 15.987,18.460 15.999 " stroke="none" fill="black" fill-rule="evenodd"></path></svg>