<svg xmlns="http://www.w3.org/2000/svg" width="24" height="24" viewBox="0 0 24 24" fill="none" stroke="currentColor" stroke-width="2" stroke-linecap="round" stroke-linejoin="round" class="icon icon-tabler icons-tabler-outline icon-tabler-brand-envato"><path d="M19.209 2.116 C 17.922 2.564,15.418 4.708,13.480 7.020 C 12.153 8.603,10.025 11.734,7.119 16.380 C 5.197 19.453,5.137 19.566,5.237 19.911 C 5.336 20.254,5.528 20.424,6.188 20.754 C 7.915 21.619,9.810 22.048,11.640 21.987 C 13.037 21.941,14.289 21.623,15.535 20.997 C 16.394 20.566,17.000 20.121,17.643 19.452 C 19.331 17.693,20.441 15.026,20.818 11.820 C 20.983 10.423,21.043 8.324,20.964 6.700 C 20.924 5.857,20.758 3.470,20.701 2.893 C 20.623 2.119,20.054 1.822,19.209 2.116 M18.904 5.740 C 18.991 7.031,19.003 9.654,18.927 10.580 C 18.784 12.322,18.501 13.744,18.059 14.947 C 17.829 15.573,17.320 16.579,16.970 17.100 C 16.200 18.244,15.387 18.922,14.180 19.423 C 12.314 20.197,10.250 20.187,8.050 19.392 C 7.868 19.326,7.720 19.257,7.720 19.239 C 7.720 19.197,8.791 17.468,9.812 15.860 C 11.802 12.726,13.481 10.251,14.521 8.920 C 15.657 7.465,17.012 6.083,18.357 5.006 C 18.608 4.805,18.818 4.645,18.823 4.650 C 18.828 4.656,18.864 5.146,18.904 5.740 M9.700 6.152 C 9.590 6.190,9.230 6.371,8.900 6.554 C 6.183 8.062,4.149 10.093,3.417 12.030 C 3.155 12.723,3.000 13.623,3.000 14.446 C 3.000 15.428,3.229 16.703,3.583 17.692 C 3.636 17.842,3.680 18.009,3.680 18.064 C 3.680 18.343,4.033 18.707,4.413 18.820 C 4.989 18.991,5.472 18.772,5.664 18.252 C 5.711 18.125,6.904 15.649,8.314 12.752 C 9.725 9.854,10.896 7.406,10.917 7.312 C 11.009 6.891,10.733 6.338,10.340 6.156 C 10.141 6.064,9.958 6.063,9.700 6.152 M7.309 10.238 C 6.994 10.938,5.053 14.878,5.024 14.879 C 5.003 14.880,4.998 14.635,5.013 14.290 C 5.061 13.196,5.320 12.438,5.949 11.561 C 6.202 11.208,7.289 10.040,7.365 10.040 C 7.383 10.040,7.358 10.129,7.309 10.238 " stroke="none" fill="black" fill-rule="evenodd"></path></svg>