<svg xmlns="http://www.w3.org/2000/svg" width="24" height="24" viewBox="0 0 24 24" fill="none" stroke="currentColor" stroke-width="2" stroke-linecap="round" stroke-linejoin="round" class="icon icon-tabler icons-tabler-outline icon-tabler-hexagon-letter-m"><path d="M11.542 1.044 C 11.206 1.093,10.917 1.183,10.607 1.334 C 10.326 1.471,3.711 5.363,3.400 5.574 C 2.940 5.886,2.556 6.345,2.298 6.892 C 2.004 7.516,2.023 7.205,2.009 11.720 C 1.999 15.327,2.005 15.816,2.062 16.100 C 2.197 16.773,2.552 17.405,3.043 17.852 C 3.266 18.054,4.217 18.675,6.849 20.339 C 8.779 21.559,10.434 22.596,10.527 22.644 C 11.438 23.109,12.561 23.109,13.471 22.645 C 13.630 22.564,20.226 18.402,20.600 18.147 C 21.088 17.814,21.516 17.281,21.752 16.712 C 22.005 16.102,22.000 16.202,22.000 11.844 C 22.000 7.576,22.004 7.665,21.787 7.068 C 21.605 6.567,21.270 6.102,20.812 5.713 C 20.635 5.563,19.382 4.802,17.082 3.447 C 15.178 2.326,13.548 1.372,13.460 1.329 C 12.903 1.057,12.187 0.950,11.542 1.044 M12.595 3.138 C 12.880 3.282,18.999 6.893,19.338 7.116 C 19.491 7.217,19.675 7.378,19.748 7.473 C 20.012 7.819,20.003 7.655,19.991 11.943 L 19.980 15.820 19.872 16.025 C 19.812 16.138,19.709 16.284,19.643 16.351 C 19.481 16.513,12.718 20.790,12.440 20.906 C 12.151 21.027,11.850 21.027,11.560 20.907 C 11.284 20.791,4.519 16.513,4.356 16.350 C 4.290 16.284,4.188 16.138,4.128 16.025 L 4.020 15.820 4.020 11.860 L 4.020 7.900 4.129 7.693 C 4.190 7.578,4.301 7.425,4.376 7.353 C 4.561 7.174,11.452 3.117,11.680 3.052 C 11.947 2.976,12.350 3.013,12.595 3.138 M14.597 7.039 C 14.518 7.081,14.391 7.185,14.313 7.271 C 14.236 7.356,13.699 8.217,13.120 9.183 C 12.541 10.149,12.050 10.963,12.028 10.991 C 12.000 11.028,11.696 10.553,10.917 9.251 C 10.327 8.266,9.774 7.385,9.687 7.292 C 9.398 6.987,8.859 6.917,8.444 7.130 C 8.244 7.233,8.104 7.409,8.041 7.635 C 7.986 7.833,7.986 16.167,8.041 16.365 C 8.148 16.750,8.437 16.962,8.896 16.991 C 9.381 17.022,9.699 16.882,9.880 16.558 L 9.980 16.380 9.992 14.003 L 10.003 11.626 10.602 12.622 C 11.228 13.662,11.358 13.834,11.618 13.968 C 11.915 14.121,12.392 14.006,12.689 13.708 C 12.761 13.636,13.081 13.141,13.400 12.607 L 13.980 11.638 14.000 14.009 L 14.020 16.380 14.120 16.558 C 14.287 16.856,14.572 17.000,15.000 17.000 C 15.428 17.000,15.713 16.856,15.880 16.558 L 15.980 16.380 15.980 12.040 L 15.980 7.700 15.872 7.516 C 15.611 7.072,14.981 6.836,14.597 7.039 " stroke="none" fill="black" fill-rule="evenodd"></path></svg>