<svg xmlns="http://www.w3.org/2000/svg" width="24" height="24" viewBox="0 0 24 24" fill="none" stroke="currentColor" stroke-width="2" stroke-linecap="round" stroke-linejoin="round" class="icon icon-tabler icons-tabler-outline icon-tabler-arrow-move-down"><path d="M11.499 2.040 C 10.363 2.246,9.460 3.049,9.114 4.160 C 8.979 4.594,8.979 5.406,9.114 5.840 C 9.421 6.826,10.174 7.579,11.160 7.886 C 11.594 8.021,12.406 8.021,12.840 7.886 C 13.826 7.579,14.579 6.826,14.886 5.840 C 15.021 5.406,15.021 4.594,14.886 4.160 C 14.581 3.179,13.810 2.407,12.861 2.129 C 12.500 2.023,11.832 1.980,11.499 2.040 M12.310 4.061 C 12.688 4.173,13.000 4.598,13.000 5.001 C 13.000 5.331,12.784 5.696,12.484 5.872 C 12.328 5.963,12.254 5.980,12.000 5.980 C 11.746 5.980,11.672 5.963,11.516 5.872 C 10.935 5.530,10.833 4.774,11.304 4.303 C 11.583 4.024,11.916 3.944,12.310 4.061 M11.614 10.057 C 11.377 10.131,11.212 10.261,11.109 10.453 L 11.020 10.620 11.009 14.597 L 10.998 18.574 10.269 17.852 C 9.856 17.443,9.467 17.094,9.372 17.045 C 9.021 16.868,8.640 16.958,8.299 17.299 C 7.952 17.646,7.863 18.011,8.040 18.363 C 8.099 18.480,8.635 19.051,9.635 20.062 C 10.463 20.899,11.174 21.634,11.216 21.697 C 11.318 21.850,11.762 22.049,12.000 22.049 C 12.238 22.049,12.682 21.850,12.784 21.697 C 12.826 21.634,13.537 20.899,14.365 20.062 C 15.365 19.051,15.901 18.480,15.960 18.363 C 16.137 18.011,16.048 17.646,15.701 17.299 C 15.360 16.958,14.979 16.868,14.628 17.045 C 14.533 17.094,14.144 17.443,13.731 17.852 L 13.002 18.573 12.991 14.597 L 12.980 10.620 12.891 10.453 C 12.842 10.362,12.746 10.247,12.678 10.199 C 12.414 10.010,11.957 9.950,11.614 10.057 " stroke="none" fill="black" fill-rule="evenodd"></path></svg>