<svg xmlns="http://www.w3.org/2000/svg" width="24" height="24" viewBox="0 0 24 24" fill="none" stroke="currentColor" stroke-width="2" stroke-linecap="round" stroke-linejoin="round" class="icon icon-tabler icons-tabler-outline icon-tabler-ankh"><path d="M11.400 2.044 C 9.761 2.229,8.261 3.290,7.526 4.785 C 7.143 5.563,7.020 6.129,7.021 7.100 C 7.023 7.850,7.057 8.138,7.227 8.820 C 7.485 9.856,8.044 10.965,8.696 11.734 L 8.922 12.000 7.367 12.000 C 5.713 12.000,5.583 12.013,5.322 12.199 C 5.100 12.357,5.020 12.568,5.020 13.000 C 5.020 13.331,5.033 13.403,5.120 13.558 C 5.230 13.755,5.414 13.898,5.635 13.959 C 5.725 13.984,6.765 14.000,8.390 14.000 L 11.000 14.000 11.000 17.610 C 11.000 19.905,11.015 21.273,11.041 21.365 C 11.148 21.750,11.437 21.962,11.896 21.991 C 12.381 22.022,12.699 21.882,12.880 21.558 L 12.980 21.380 12.991 17.690 L 13.002 14.000 15.611 14.000 C 17.235 14.000,18.275 13.984,18.365 13.959 C 18.586 13.898,18.770 13.755,18.880 13.558 C 18.967 13.402,18.980 13.332,18.979 13.000 C 18.978 12.567,18.898 12.355,18.678 12.199 C 18.417 12.013,18.287 12.000,16.633 12.000 L 15.078 12.000 15.304 11.734 C 16.779 9.995,17.382 7.319,16.732 5.400 C 16.198 3.822,14.850 2.573,13.240 2.162 C 12.669 2.016,12.019 1.974,11.400 2.044 M12.861 4.129 C 13.804 4.405,14.583 5.183,14.875 6.139 C 14.959 6.414,14.973 6.544,14.976 7.040 C 14.981 8.167,14.706 9.067,14.053 10.057 C 13.610 10.730,12.796 11.473,12.128 11.816 C 11.996 11.884,11.994 11.883,11.737 11.740 C 10.681 11.149,9.738 10.013,9.306 8.809 C 9.107 8.256,9.027 7.760,9.026 7.080 C 9.026 6.534,9.037 6.422,9.124 6.139 C 9.458 5.052,10.371 4.245,11.499 4.040 C 11.832 3.980,12.500 4.023,12.861 4.129 " stroke="none" fill="black" fill-rule="evenodd"></path></svg>