<svg xmlns="http://www.w3.org/2000/svg" width="24" height="24" viewBox="0 0 24 24" fill="none" stroke="currentColor" stroke-width="2" stroke-linecap="round" stroke-linejoin="round" class="icon icon-tabler icons-tabler-outline icon-tabler-rewind-forward-10"><path d="M16.626 2.045 C 16.257 2.239,15.951 2.673,15.951 3.000 C 15.951 3.307,16.079 3.488,16.851 4.268 L 17.571 4.996 12.896 5.012 C 7.946 5.030,8.034 5.027,7.280 5.217 C 4.820 5.839,2.845 7.813,2.221 10.275 C 1.404 13.502,2.969 16.861,5.960 18.296 C 6.755 18.677,7.686 18.938,8.164 18.912 C 8.674 18.885,8.955 18.548,8.992 17.922 C 9.025 17.346,8.796 17.073,8.165 16.938 C 7.045 16.699,6.295 16.322,5.589 15.644 C 4.614 14.707,4.108 13.635,4.016 12.310 C 3.986 11.880,4.051 11.192,4.161 10.760 C 4.609 9.013,6.015 7.607,7.760 7.162 C 8.350 7.011,8.717 7.000,13.206 7.000 L 17.575 7.000 16.853 7.730 C 16.420 8.168,16.095 8.531,16.041 8.637 C 15.863 8.988,15.952 9.354,16.299 9.701 C 16.646 10.048,17.011 10.137,17.363 9.960 C 17.480 9.901,18.051 9.365,19.062 8.365 C 19.899 7.537,20.634 6.826,20.697 6.784 C 20.850 6.682,21.049 6.238,21.049 6.000 C 21.049 5.745,20.851 5.321,20.676 5.201 C 20.601 5.150,19.865 4.438,19.040 3.618 C 18.085 2.670,17.479 2.098,17.372 2.044 C 17.152 1.934,16.835 1.934,16.626 2.045 M11.614 13.057 C 11.377 13.131,11.212 13.261,11.109 13.453 L 11.020 13.620 11.009 16.912 C 11.002 19.060,11.012 20.257,11.039 20.356 C 11.144 20.747,11.434 20.961,11.896 20.991 C 12.381 21.022,12.699 20.882,12.880 20.558 L 12.980 20.380 12.980 17.000 L 12.980 13.620 12.891 13.453 C 12.842 13.362,12.746 13.247,12.678 13.199 C 12.414 13.010,11.957 12.950,11.614 13.057 M15.960 13.062 C 15.605 13.138,15.107 13.393,14.832 13.639 C 14.532 13.907,14.239 14.352,14.118 14.722 L 14.020 15.020 14.020 17.020 L 14.020 19.020 14.131 19.320 C 14.399 20.044,14.964 20.608,15.680 20.868 C 15.948 20.965,16.035 20.976,16.500 20.976 C 16.965 20.976,17.052 20.965,17.320 20.868 C 18.036 20.608,18.601 20.044,18.869 19.320 L 18.980 19.020 18.980 17.000 L 18.980 14.980 18.869 14.680 C 18.430 13.486,17.192 12.798,15.960 13.062 M16.724 15.062 C 16.790 15.096,16.879 15.182,16.922 15.252 C 16.996 15.373,17.000 15.464,17.000 17.000 C 17.000 18.536,16.996 18.627,16.922 18.748 C 16.722 19.076,16.278 19.076,16.078 18.748 C 16.004 18.627,16.000 18.536,16.000 17.008 C 16.000 15.228,15.999 15.232,16.252 15.078 C 16.406 14.984,16.563 14.979,16.724 15.062 " stroke="none" fill="black" fill-rule="evenodd"></path></svg>