<svg xmlns="http://www.w3.org/2000/svg" width="24" height="24" viewBox="0 0 24 24" fill="none" stroke="currentColor" stroke-width="2" stroke-linecap="round" stroke-linejoin="round" class="icon icon-tabler icons-tabler-outline icon-tabler-equal"><path d="M4.614 9.057 C 4.377 9.131,4.212 9.261,4.109 9.453 C 4.035 9.592,4.020 9.684,4.020 10.000 C 4.020 10.331,4.033 10.403,4.120 10.558 C 4.230 10.755,4.414 10.898,4.635 10.959 C 4.835 11.015,19.165 11.015,19.365 10.959 C 19.586 10.898,19.770 10.755,19.880 10.558 C 19.967 10.402,19.980 10.332,19.979 10.000 C 19.978 9.567,19.898 9.355,19.678 9.199 C 19.387 8.991,19.720 9.000,11.984 9.003 C 6.188 9.005,4.747 9.016,4.614 9.057 M4.614 13.057 C 4.377 13.131,4.212 13.261,4.109 13.453 C 4.035 13.592,4.020 13.684,4.020 14.000 C 4.020 14.331,4.033 14.403,4.120 14.558 C 4.230 14.755,4.414 14.898,4.635 14.959 C 4.835 15.015,19.165 15.015,19.365 14.959 C 19.586 14.898,19.770 14.755,19.880 14.558 C 19.967 14.402,19.980 14.332,19.979 14.000 C 19.978 13.567,19.898 13.355,19.678 13.199 C 19.387 12.991,19.720 13.000,11.984 13.003 C 6.188 13.005,4.747 13.016,4.614 13.057 " stroke="none" fill="black" fill-rule="evenodd"></path></svg>