<svg xmlns="http://www.w3.org/2000/svg" width="24" height="24" viewBox="0 0 24 24" fill="none" stroke="currentColor" stroke-width="2" stroke-linecap="round" stroke-linejoin="round" class="icon icon-tabler icons-tabler-outline icon-tabler-player-track-prev"><path d="M9.646 4.044 C 9.478 4.130,1.515 11.056,1.245 11.352 C 0.977 11.645,0.885 12.024,1.009 12.320 C 1.042 12.397,1.147 12.544,1.244 12.647 C 1.519 12.939,9.419 19.827,9.565 19.903 C 9.637 19.940,9.805 19.979,9.938 19.990 C 10.374 20.024,10.703 19.874,10.880 19.558 L 10.980 19.380 10.991 12.126 C 10.998 7.196,10.988 4.823,10.959 4.718 C 10.907 4.521,10.709 4.265,10.489 4.107 C 10.256 3.940,9.903 3.913,9.646 4.044 M20.646 4.044 C 20.478 4.130,12.515 11.056,12.245 11.352 C 11.977 11.645,11.885 12.024,12.009 12.320 C 12.042 12.397,12.147 12.544,12.244 12.647 C 12.519 12.939,20.419 19.827,20.565 19.903 C 20.637 19.940,20.805 19.979,20.938 19.990 C 21.374 20.024,21.703 19.874,21.880 19.558 L 21.980 19.380 21.991 12.126 C 21.998 7.196,21.988 4.823,21.959 4.718 C 21.907 4.521,21.709 4.265,21.489 4.107 C 21.256 3.940,20.903 3.913,20.646 4.044 M9.000 12.000 C 9.000 14.618,8.991 16.760,8.980 16.760 C 8.924 16.760,3.558 12.025,3.571 11.987 C 3.588 11.937,8.924 7.248,8.970 7.243 C 8.986 7.241,9.000 9.382,9.000 12.000 M20.000 12.000 C 20.000 14.618,19.991 16.760,19.980 16.760 C 19.924 16.760,14.558 12.025,14.571 11.987 C 14.588 11.937,19.924 7.248,19.970 7.243 C 19.987 7.241,20.000 9.382,20.000 12.000 " stroke="none" fill="black" fill-rule="evenodd"></path></svg>