<svg xmlns="http://www.w3.org/2000/svg" width="24" height="24" viewBox="0 0 24 24" fill="none" stroke="currentColor" stroke-width="2" stroke-linecap="round" stroke-linejoin="round" class="icon icon-tabler icons-tabler-outline icon-tabler-curling"><path d="M7.614 4.057 C 7.376 4.132,7.212 4.261,7.109 4.453 C 7.035 4.592,7.020 4.684,7.020 5.000 C 7.020 5.331,7.033 5.403,7.120 5.558 C 7.230 5.755,7.414 5.898,7.635 5.959 C 7.727 5.985,8.947 6.000,10.943 6.000 C 14.532 6.000,14.382 5.988,14.697 6.303 C 14.948 6.554,15.000 6.751,15.000 7.447 L 15.000 8.000 11.418 8.000 C 7.741 8.000,7.338 8.014,6.760 8.162 C 5.370 8.517,4.158 9.500,3.526 10.785 C 3.333 11.177,3.187 11.599,3.093 12.040 C 3.029 12.337,3.020 12.585,3.020 14.000 C 3.020 15.415,3.029 15.663,3.093 15.960 C 3.526 17.984,5.016 19.474,7.040 19.907 C 7.358 19.975,7.684 19.980,12.000 19.980 C 16.316 19.980,16.642 19.975,16.960 19.907 C 18.488 19.580,19.748 18.630,20.433 17.288 C 20.662 16.839,20.805 16.439,20.907 15.960 C 20.971 15.663,20.980 15.415,20.980 14.000 C 20.980 12.585,20.971 12.337,20.907 12.040 C 20.572 10.476,19.597 9.214,18.180 8.510 C 17.876 8.359,17.387 8.182,17.154 8.139 L 17.009 8.113 16.990 7.266 C 16.974 6.531,16.960 6.383,16.882 6.140 C 16.572 5.173,15.821 4.424,14.861 4.122 L 14.540 4.021 11.160 4.012 C 8.452 4.006,7.747 4.014,7.614 4.057 M16.861 10.121 C 18.035 10.492,18.863 11.504,18.982 12.714 L 19.010 13.000 12.000 13.000 L 4.990 13.000 5.018 12.714 C 5.151 11.365,6.168 10.269,7.499 10.043 C 7.609 10.024,9.689 10.011,12.120 10.014 L 16.540 10.020 16.861 10.121 M18.982 15.286 C 18.862 16.505,18.030 17.515,16.840 17.886 L 16.540 17.980 12.000 17.980 L 7.460 17.980 7.160 17.886 C 6.578 17.705,6.107 17.391,5.695 16.911 C 5.320 16.473,5.078 15.893,5.018 15.286 L 4.990 15.000 12.000 15.000 L 19.010 15.000 18.982 15.286 " stroke="none" fill="black" fill-rule="evenodd"></path></svg>