<svg xmlns="http://www.w3.org/2000/svg" width="24" height="24" viewBox="0 0 24 24" fill="none" stroke="currentColor" stroke-width="2" stroke-linecap="round" stroke-linejoin="round" class="icon icon-tabler icons-tabler-outline icon-tabler-layout-bottombar-collapse"><path d="M5.499 3.043 C 4.380 3.233,3.461 4.048,3.114 5.160 L 3.020 5.460 3.020 12.000 L 3.020 18.540 3.114 18.840 C 3.422 19.827,4.173 20.578,5.160 20.886 L 5.460 20.980 12.000 20.980 L 18.540 20.980 18.840 20.886 C 19.827 20.578,20.578 19.827,20.886 18.840 L 20.980 18.540 20.980 12.000 L 20.980 5.460 20.886 5.160 C 20.581 4.182,19.832 3.428,18.861 3.121 L 18.540 3.020 12.120 3.014 C 8.589 3.011,5.609 3.024,5.499 3.043 M18.310 5.061 C 18.589 5.144,18.856 5.411,18.939 5.690 C 18.992 5.867,19.000 6.436,19.000 9.947 L 19.000 14.000 12.000 14.000 L 5.000 14.000 5.000 9.947 C 5.000 5.365,4.983 5.623,5.304 5.303 C 5.623 4.983,5.120 5.006,11.983 5.003 C 17.353 5.000,18.131 5.007,18.310 5.061 M9.626 7.045 C 9.420 7.154,9.146 7.433,9.038 7.644 C 8.924 7.868,8.924 8.132,9.040 8.363 C 9.162 8.607,11.393 10.838,11.637 10.960 C 11.868 11.076,12.132 11.076,12.363 10.960 C 12.607 10.838,14.838 8.607,14.960 8.363 C 15.137 8.010,15.048 7.646,14.701 7.299 C 14.360 6.958,13.979 6.868,13.628 7.045 C 13.533 7.094,13.144 7.444,12.730 7.853 L 12.000 8.575 11.270 7.853 C 10.856 7.444,10.467 7.094,10.372 7.045 C 10.152 6.934,9.836 6.934,9.626 7.045 M19.000 17.054 C 19.000 18.203,18.978 18.356,18.779 18.618 C 18.718 18.698,18.585 18.813,18.484 18.872 L 18.300 18.980 12.000 18.980 L 5.700 18.980 5.516 18.872 C 5.415 18.813,5.284 18.700,5.225 18.623 C 5.016 18.349,5.000 18.241,5.000 17.075 L 5.000 16.000 12.000 16.000 L 19.000 16.000 19.000 17.054 " stroke="none" fill="black" fill-rule="evenodd"></path></svg>