<svg xmlns="http://www.w3.org/2000/svg" width="24" height="24" viewBox="0 0 24 24" fill="none" stroke="currentColor" stroke-width="2" stroke-linecap="round" stroke-linejoin="round" class="icon icon-tabler icons-tabler-outline icon-tabler-cloud-lock"><path d="M11.800 3.986 C 11.745 3.994,11.565 4.020,11.400 4.043 C 9.204 4.359,7.198 5.824,6.380 7.710 C 6.273 7.957,6.226 8.022,6.153 8.031 C 4.434 8.233,2.924 9.174,1.994 10.622 C 1.717 11.052,1.465 11.693,1.318 12.340 C 1.189 12.903,1.187 13.840,1.313 14.428 C 1.667 16.081,2.757 17.478,4.253 18.198 C 4.660 18.394,4.908 18.457,5.135 18.423 C 5.552 18.360,5.920 17.833,5.920 17.298 C 5.920 16.925,5.746 16.710,5.240 16.459 C 4.425 16.054,3.921 15.563,3.542 14.805 C 3.267 14.257,3.159 13.618,3.238 13.016 C 3.390 11.852,4.089 10.902,5.180 10.375 C 5.681 10.132,6.067 10.042,6.760 10.005 C 7.411 9.970,7.568 9.921,7.757 9.691 C 7.820 9.614,7.902 9.450,7.938 9.326 C 8.220 8.369,8.449 7.958,9.020 7.378 C 9.477 6.914,9.760 6.711,10.335 6.438 C 11.427 5.918,12.730 5.818,13.960 6.161 C 14.125 6.207,14.458 6.340,14.700 6.456 C 15.775 6.973,16.560 7.823,16.913 8.851 C 17.049 9.249,17.053 9.277,17.056 9.900 C 17.058 10.252,17.044 10.684,17.025 10.860 C 16.970 11.371,17.100 11.689,17.442 11.880 C 17.613 11.976,17.656 11.980,18.560 12.005 C 19.584 12.033,19.734 12.060,20.180 12.294 C 20.322 12.368,20.552 12.551,20.742 12.740 C 21.264 13.259,21.479 13.771,21.479 14.500 C 21.479 15.187,21.266 15.723,20.794 16.220 C 20.322 16.718,19.838 16.936,19.069 16.997 C 18.736 17.024,18.590 17.055,18.447 17.129 C 18.119 17.297,17.978 17.612,18.009 18.104 C 18.048 18.719,18.378 18.999,19.060 19.000 C 19.850 19.000,20.770 18.716,21.460 18.259 C 24.341 16.351,24.117 12.078,21.054 10.511 C 20.510 10.233,20.025 10.093,19.355 10.020 L 19.131 9.996 19.103 9.622 C 19.047 8.859,18.744 7.862,18.374 7.220 C 17.199 5.186,14.932 3.941,12.449 3.965 C 12.147 3.968,11.855 3.978,11.800 3.986 M11.499 10.040 C 10.373 10.244,9.470 11.041,9.118 12.140 C 9.042 12.378,9.026 12.536,9.010 13.202 L 8.991 13.983 8.685 14.032 C 8.259 14.099,7.918 14.275,7.596 14.597 C 7.310 14.882,7.154 15.147,7.060 15.508 C 6.972 15.844,6.972 19.156,7.060 19.492 C 7.153 19.852,7.310 20.118,7.596 20.404 C 7.882 20.690,8.148 20.847,8.508 20.940 C 8.860 21.032,15.136 21.029,15.491 20.937 C 15.863 20.841,16.114 20.694,16.404 20.404 C 16.694 20.114,16.841 19.863,16.937 19.491 C 17.027 19.144,17.029 15.909,16.940 15.529 C 16.852 15.156,16.699 14.891,16.404 14.597 C 16.082 14.275,15.741 14.099,15.315 14.032 L 15.009 13.983 14.990 13.202 C 14.974 12.536,14.958 12.378,14.882 12.140 C 14.571 11.170,13.801 10.404,12.861 10.129 C 12.500 10.023,11.832 9.980,11.499 10.040 M12.310 12.061 C 12.452 12.103,12.571 12.178,12.697 12.303 C 12.948 12.554,13.000 12.751,13.000 13.447 L 13.000 14.000 12.000 14.000 L 11.000 14.000 11.000 13.447 C 11.000 12.750,11.052 12.554,11.304 12.303 C 11.583 12.024,11.916 11.944,12.310 12.061 M15.000 17.500 L 15.000 19.000 12.000 19.000 L 9.000 19.000 9.000 17.500 L 9.000 16.000 12.000 16.000 L 15.000 16.000 15.000 17.500 " stroke="none" fill="black" fill-rule="evenodd"></path></svg>