<svg xmlns="http://www.w3.org/2000/svg" width="24" height="24" viewBox="0 0 24 24" fill="none" stroke="currentColor" stroke-width="2" stroke-linecap="round" stroke-linejoin="round" class="icon icon-tabler icons-tabler-outline icon-tabler-universe"><path d="M11.340 2.026 C 10.564 2.089,9.948 2.199,9.203 2.407 C 8.545 2.592,8.245 2.821,8.175 3.194 C 8.111 3.536,8.346 4.136,8.621 4.329 C 8.880 4.511,9.097 4.515,9.683 4.348 C 11.035 3.964,12.145 3.905,13.480 4.145 C 14.182 4.272,15.045 4.567,15.659 4.892 L 15.977 5.060 16.027 5.334 C 16.103 5.757,16.277 6.086,16.590 6.398 C 16.995 6.803,17.451 7.000,17.986 7.000 C 18.230 7.000,18.237 7.003,18.373 7.170 C 18.449 7.264,18.619 7.511,18.750 7.720 C 20.253 10.113,20.404 13.006,19.159 15.543 C 17.951 18.005,15.527 19.679,12.766 19.958 C 10.380 20.199,7.889 19.274,6.243 17.534 C 4.415 15.603,3.656 13.016,4.165 10.444 C 4.462 8.941,5.101 7.704,6.201 6.500 C 6.574 6.091,6.678 5.902,6.679 5.628 C 6.680 5.390,6.572 5.170,6.341 4.939 C 5.996 4.594,5.615 4.507,5.248 4.690 C 4.899 4.865,3.993 5.932,3.470 6.784 C 2.738 7.978,2.285 9.272,2.071 10.780 C 2.004 11.257,2.006 12.793,2.075 13.260 C 2.397 15.444,3.252 17.257,4.703 18.829 C 5.693 19.902,7.144 20.867,8.537 21.380 C 9.056 21.572,10.017 21.813,10.620 21.905 C 11.206 21.993,12.668 22.007,13.220 21.929 C 14.874 21.694,16.220 21.192,17.531 20.320 C 19.636 18.921,21.120 16.805,21.715 14.355 C 21.941 13.423,21.980 13.075,21.978 11.980 C 21.976 10.905,21.922 10.436,21.699 9.556 C 21.398 8.367,20.799 7.083,20.110 6.149 L 19.851 5.798 19.926 5.530 C 20.015 5.208,20.020 4.869,19.940 4.529 C 19.858 4.182,19.720 3.927,19.465 3.653 C 18.863 3.005,17.975 2.826,17.155 3.187 L 16.931 3.286 16.571 3.106 C 15.401 2.518,14.132 2.151,12.893 2.043 C 12.442 2.003,11.720 1.996,11.340 2.026 M11.240 6.044 C 10.581 6.128,9.944 6.326,9.320 6.641 C 8.821 6.892,8.628 7.037,8.497 7.261 C 8.403 7.423,8.392 7.475,8.409 7.694 C 8.458 8.294,8.974 8.813,9.458 8.746 C 9.556 8.733,9.848 8.615,10.108 8.485 C 10.809 8.133,11.328 8.000,11.993 8.000 C 12.335 8.000,12.937 8.098,13.253 8.204 C 13.947 8.437,14.662 8.936,15.104 9.494 C 15.548 10.055,15.829 10.685,15.940 11.369 C 16.015 11.833,16.015 12.116,15.942 12.605 C 15.697 14.229,14.485 15.524,12.854 15.906 C 12.477 15.995,11.582 16.006,11.234 15.927 L 11.008 15.876 10.960 15.619 C 10.775 14.639,9.854 13.936,8.853 14.012 L 8.558 14.034 8.439 13.797 C 8.109 13.144,8.026 12.759,8.022 11.860 C 8.019 11.201,8.011 11.125,7.930 10.960 C 7.785 10.666,7.408 10.480,6.961 10.480 C 6.419 10.481,6.126 10.757,6.041 11.348 C 5.866 12.561,6.223 14.101,6.942 15.226 C 7.060 15.410,7.070 15.448,7.038 15.586 C 6.945 15.986,7.020 16.526,7.225 16.930 C 7.361 17.199,7.801 17.639,8.070 17.775 C 8.648 18.068,9.344 18.073,9.905 17.788 L 10.088 17.695 10.429 17.786 C 11.466 18.063,12.574 18.063,13.580 17.787 C 15.196 17.343,16.601 16.189,17.357 14.687 C 18.981 11.456,17.362 7.496,13.940 6.329 C 13.109 6.045,12.076 5.936,11.240 6.044 M11.477 10.073 C 10.806 10.249,10.238 10.823,10.060 11.508 C 9.941 11.962,10.003 12.492,10.225 12.930 C 10.361 13.199,10.801 13.639,11.070 13.775 C 11.659 14.073,12.341 14.073,12.930 13.775 C 13.196 13.640,13.638 13.200,13.771 12.937 C 13.994 12.498,14.052 12.007,13.940 11.529 C 13.858 11.182,13.720 10.927,13.465 10.653 C 13.074 10.232,12.560 10.005,12.000 10.005 C 11.857 10.005,11.622 10.036,11.477 10.073 " stroke="none" fill="black" fill-rule="evenodd"></path></svg>