<svg xmlns="http://www.w3.org/2000/svg" width="24" height="24" viewBox="0 0 24 24" fill="none" stroke="currentColor" stroke-width="2" stroke-linecap="round" stroke-linejoin="round" class="icon icon-tabler icons-tabler-outline icon-tabler-photo-sensor-3"><path d="M5.499 3.043 C 4.392 3.229,3.472 4.039,3.118 5.140 C 3.039 5.386,3.026 5.528,3.010 6.300 C 2.998 6.873,3.007 7.238,3.036 7.344 C 3.144 7.748,3.428 7.961,3.896 7.991 C 4.381 8.022,4.699 7.882,4.879 7.558 C 4.973 7.390,4.980 7.336,5.001 6.560 C 5.027 5.632,5.048 5.548,5.321 5.283 C 5.568 5.044,5.760 5.000,6.557 5.000 C 6.922 5.000,7.285 4.981,7.365 4.959 C 7.586 4.898,7.770 4.755,7.880 4.558 C 7.967 4.402,7.980 4.332,7.979 4.000 C 7.978 3.687,7.962 3.591,7.890 3.453 C 7.786 3.256,7.623 3.131,7.371 3.055 C 7.164 2.993,5.848 2.985,5.499 3.043 M11.614 3.057 C 11.377 3.131,11.212 3.261,11.109 3.453 C 11.023 3.614,11.020 3.665,11.008 4.908 C 11.000 5.720,11.011 6.254,11.038 6.352 C 11.144 6.747,11.432 6.961,11.896 6.991 C 12.381 7.022,12.699 6.882,12.880 6.558 L 12.980 6.380 12.980 5.000 C 12.980 3.650,12.978 3.616,12.891 3.453 C 12.842 3.362,12.746 3.247,12.678 3.199 C 12.414 3.010,11.957 2.950,11.614 3.057 M16.614 3.055 C 16.375 3.133,16.211 3.262,16.109 3.453 C 16.035 3.592,16.020 3.684,16.020 4.000 C 16.020 4.331,16.033 4.403,16.120 4.558 C 16.230 4.755,16.414 4.898,16.635 4.959 C 16.715 4.981,17.078 5.000,17.443 5.000 C 18.259 5.000,18.437 5.043,18.697 5.303 C 18.957 5.563,19.000 5.741,19.000 6.557 C 19.000 6.922,19.019 7.285,19.041 7.365 C 19.148 7.750,19.437 7.962,19.896 7.991 C 20.381 8.022,20.699 7.882,20.880 7.558 C 20.979 7.382,20.980 7.370,20.980 6.420 C 20.980 5.525,20.974 5.440,20.886 5.160 C 20.580 4.180,19.820 3.416,18.861 3.125 C 18.571 3.037,18.455 3.027,17.660 3.014 C 16.997 3.004,16.739 3.014,16.614 3.055 M11.358 8.061 C 10.230 8.237,9.143 8.974,8.569 9.953 C 7.320 12.083,8.233 14.785,10.512 15.704 C 12.558 16.528,14.877 15.538,15.704 13.488 C 16.090 12.530,16.090 11.469,15.705 10.516 C 15.172 9.197,14.001 8.269,12.605 8.058 C 12.144 7.989,11.816 7.990,11.358 8.061 M12.523 10.073 C 13.262 10.266,13.850 10.924,13.967 11.690 C 14.067 12.343,13.873 12.933,13.403 13.404 C 13.002 13.807,12.547 14.000,12.000 14.000 C 11.485 14.000,11.038 13.822,10.653 13.465 C 9.323 12.229,10.189 10.005,12.000 10.005 C 12.143 10.005,12.378 10.036,12.523 10.073 M3.614 11.057 C 3.377 11.131,3.212 11.261,3.109 11.453 C 3.035 11.592,3.020 11.684,3.020 12.000 C 3.020 12.331,3.033 12.403,3.120 12.558 C 3.230 12.755,3.414 12.898,3.635 12.959 C 3.826 13.012,6.174 13.012,6.365 12.959 C 6.586 12.898,6.770 12.755,6.880 12.558 C 6.967 12.402,6.980 12.332,6.979 12.000 C 6.978 11.687,6.962 11.591,6.890 11.453 C 6.786 11.256,6.623 11.131,6.371 11.055 C 6.117 10.979,3.859 10.981,3.614 11.057 M17.614 11.057 C 17.377 11.131,17.212 11.261,17.109 11.453 C 17.035 11.592,17.020 11.684,17.020 12.000 C 17.020 12.331,17.033 12.403,17.120 12.558 C 17.230 12.755,17.414 12.898,17.635 12.959 C 17.826 13.012,20.174 13.012,20.365 12.959 C 20.586 12.898,20.770 12.755,20.880 12.558 C 20.967 12.402,20.980 12.332,20.979 12.000 C 20.978 11.687,20.962 11.591,20.890 11.453 C 20.786 11.256,20.623 11.131,20.371 11.055 C 20.117 10.979,17.859 10.981,17.614 11.057 M3.614 16.057 C 3.377 16.131,3.212 16.261,3.109 16.453 C 3.024 16.612,3.020 16.664,3.020 17.580 C 3.020 18.475,3.026 18.560,3.114 18.840 C 3.419 19.818,4.164 20.568,5.140 20.882 C 5.386 20.961,5.528 20.974,6.300 20.990 C 6.873 21.002,7.238 20.993,7.344 20.964 C 7.583 20.900,7.766 20.761,7.880 20.558 C 7.967 20.402,7.980 20.332,7.979 20.000 C 7.978 19.572,7.898 19.355,7.686 19.204 C 7.462 19.045,7.353 19.026,6.520 19.003 C 5.721 18.981,5.695 18.977,5.516 18.872 C 5.326 18.760,5.155 18.568,5.072 18.373 C 5.044 18.305,5.015 17.932,5.001 17.440 C 4.979 16.701,4.968 16.604,4.889 16.453 C 4.841 16.362,4.746 16.247,4.678 16.199 C 4.414 16.010,3.957 15.950,3.614 16.057 M19.614 16.057 C 19.377 16.132,19.212 16.261,19.110 16.453 C 19.031 16.604,19.020 16.699,18.998 17.440 C 18.984 17.926,18.955 18.306,18.927 18.373 C 18.846 18.567,18.674 18.760,18.484 18.872 C 18.304 18.978,18.282 18.980,17.479 19.000 C 16.696 19.019,16.648 19.025,16.459 19.122 C 16.119 19.297,15.978 19.606,16.009 20.104 C 16.039 20.572,16.252 20.856,16.656 20.964 C 16.762 20.993,17.127 21.002,17.700 20.990 C 18.472 20.974,18.614 20.961,18.860 20.882 C 19.836 20.568,20.581 19.818,20.886 18.840 C 20.974 18.560,20.980 18.475,20.980 17.580 C 20.980 16.664,20.976 16.612,20.891 16.453 C 20.842 16.362,20.746 16.247,20.678 16.199 C 20.414 16.010,19.957 15.950,19.614 16.057 M11.614 17.057 C 11.377 17.131,11.212 17.261,11.109 17.453 C 11.023 17.614,11.020 17.665,11.008 18.908 C 11.000 19.720,11.011 20.254,11.038 20.352 C 11.144 20.747,11.432 20.961,11.896 20.991 C 12.381 21.022,12.699 20.882,12.880 20.558 L 12.980 20.380 12.980 19.000 C 12.980 17.650,12.978 17.616,12.891 17.453 C 12.842 17.362,12.746 17.247,12.678 17.199 C 12.414 17.010,11.957 16.950,11.614 17.057 " stroke="none" fill="black" fill-rule="evenodd"></path></svg>