<svg xmlns="http://www.w3.org/2000/svg" width="24" height="24" viewBox="0 0 24 24" fill="none" stroke="currentColor" stroke-width="2" stroke-linecap="round" stroke-linejoin="round" class="icon icon-tabler icons-tabler-outline icon-tabler-corner-left-up"><path d="M8.620 4.046 C 8.385 4.167,4.154 8.408,4.039 8.637 C 3.863 8.990,3.952 9.355,4.299 9.701 C 4.646 10.048,5.011 10.137,5.363 9.960 C 5.479 9.901,5.961 9.452,6.770 8.647 L 8.000 7.423 8.000 11.395 C 8.000 15.251,8.002 15.379,8.083 15.773 C 8.311 16.892,8.985 17.851,9.956 18.436 C 10.285 18.635,10.810 18.832,11.243 18.921 C 11.613 18.996,11.797 19.000,14.926 19.000 C 17.009 19.000,18.273 18.985,18.365 18.959 C 18.586 18.898,18.770 18.755,18.880 18.558 C 18.967 18.402,18.980 18.332,18.979 18.000 C 18.978 17.567,18.898 17.355,18.678 17.199 C 18.398 16.999,18.411 17.000,14.962 17.000 C 11.470 17.000,11.520 17.003,11.083 16.781 C 10.816 16.646,10.449 16.297,10.281 16.017 C 9.995 15.542,10.005 15.710,10.002 11.341 L 10.000 7.423 11.230 8.647 C 12.039 9.452,12.521 9.901,12.637 9.960 C 12.989 10.137,13.354 10.048,13.701 9.701 C 14.048 9.354,14.137 8.989,13.960 8.637 C 13.899 8.516,13.234 7.818,11.866 6.439 C 10.763 5.327,9.829 4.370,9.790 4.312 C 9.752 4.254,9.604 4.151,9.460 4.083 C 9.144 3.933,8.863 3.921,8.620 4.046 " stroke="none" fill="black" fill-rule="evenodd"></path></svg>