<svg xmlns="http://www.w3.org/2000/svg" width="24" height="24" viewBox="0 0 24 24" fill="none" stroke="currentColor" stroke-width="2" stroke-linecap="round" stroke-linejoin="round" class="icon icon-tabler icons-tabler-outline icon-tabler-hourglass-high"><path d="M6.477 2.073 C 5.782 2.255,5.184 2.886,5.037 3.593 C 4.970 3.917,5.013 6.716,5.092 7.140 C 5.472 9.182,6.550 10.797,8.304 11.950 C 8.379 11.999,8.379 12.001,8.304 12.050 C 6.550 13.203,5.472 14.818,5.092 16.860 C 5.013 17.284,4.970 20.083,5.037 20.407 C 5.148 20.941,5.596 21.535,6.070 21.775 C 6.534 22.010,6.267 22.000,12.000 22.000 C 17.733 22.000,17.466 22.010,17.930 21.775 C 18.196 21.640,18.638 21.200,18.771 20.937 C 18.997 20.492,19.009 20.362,18.988 18.700 C 18.973 17.600,18.951 17.092,18.908 16.860 C 18.529 14.823,17.447 13.201,15.696 12.050 C 15.621 12.001,15.621 11.999,15.696 11.950 C 17.447 10.799,18.530 9.177,18.908 7.140 C 18.951 6.909,18.973 6.402,18.987 5.320 C 19.009 3.684,18.992 3.498,18.782 3.083 C 18.646 2.816,18.297 2.449,18.017 2.281 C 17.533 1.989,17.867 2.005,12.000 2.005 C 7.157 2.005,6.719 2.010,6.477 2.073 M17.000 5.000 L 17.000 6.000 12.000 6.000 L 7.000 6.000 7.000 5.000 L 7.000 4.000 12.000 4.000 L 17.000 4.000 17.000 5.000 M16.559 8.030 C 16.559 8.046,16.485 8.195,16.396 8.360 C 15.784 9.484,14.796 10.323,13.600 10.732 C 13.044 10.922,12.670 10.980,12.000 10.980 C 11.330 10.980,10.956 10.922,10.400 10.732 C 9.426 10.399,8.545 9.748,7.963 8.932 C 7.751 8.635,7.440 8.093,7.440 8.021 C 7.440 8.009,9.492 8.000,12.000 8.000 C 14.508 8.000,16.560 8.014,16.559 8.030 M12.552 13.043 C 14.413 13.246,16.001 14.479,16.680 16.248 C 16.931 16.901,17.000 17.476,17.000 18.918 L 17.000 20.000 12.000 20.000 L 7.000 20.000 7.000 18.918 C 7.000 17.476,7.069 16.901,7.320 16.248 C 8.146 14.096,10.274 12.793,12.552 13.043 " stroke="none" fill="black" fill-rule="evenodd"></path></svg>