<svg xmlns="http://www.w3.org/2000/svg" width="24" height="24" viewBox="0 0 24 24" fill="none" stroke="currentColor" stroke-width="2" stroke-linecap="round" stroke-linejoin="round" class="icon icon-tabler icons-tabler-outline icon-tabler-droplet-share"><path d="M11.491 2.060 C 10.998 2.168,10.492 2.465,10.176 2.833 C 10.103 2.920,8.915 4.662,7.537 6.705 C 5.491 9.740,4.986 10.515,4.779 10.940 C 4.004 12.530,3.807 14.240,4.202 15.952 C 4.717 18.188,6.240 20.084,8.368 21.140 C 9.468 21.685,10.739 22.000,11.837 22.000 C 12.435 21.999,12.694 21.890,12.880 21.558 C 12.967 21.403,12.980 21.331,12.980 20.997 C 12.980 20.641,12.972 20.600,12.860 20.419 C 12.668 20.110,12.490 20.039,11.793 19.998 C 10.856 19.942,10.092 19.757,9.335 19.402 C 8.291 18.913,7.271 17.959,6.713 16.950 C 5.819 15.335,5.778 13.395,6.604 11.753 C 6.828 11.307,11.656 4.155,11.790 4.070 C 11.850 4.032,11.945 4.000,12.000 4.000 C 12.055 4.000,12.150 4.032,12.211 4.070 C 12.358 4.163,17.105 11.205,17.384 11.745 C 17.588 12.138,17.745 12.582,17.925 13.275 C 17.997 13.554,18.039 13.640,18.176 13.781 C 18.418 14.032,18.723 14.097,19.140 13.986 C 19.504 13.889,19.746 13.709,19.837 13.467 C 19.991 13.061,19.690 11.861,19.184 10.864 C 18.845 10.197,14.003 3.000,13.673 2.673 C 13.139 2.144,12.253 1.895,11.491 2.060 M18.460 15.999 C 15.916 16.022,15.992 16.015,15.752 16.267 C 15.584 16.443,15.513 16.658,15.512 16.997 C 15.510 17.348,15.582 17.556,15.771 17.751 C 15.988 17.976,16.151 18.000,17.436 18.000 L 18.578 18.000 16.853 19.730 C 15.679 20.908,15.100 21.517,15.040 21.637 C 14.863 21.989,14.952 22.354,15.299 22.701 C 15.646 23.048,16.011 23.137,16.363 22.960 C 16.483 22.900,17.092 22.321,18.270 21.147 L 20.000 19.422 20.000 20.564 C 20.000 21.849,20.024 22.012,20.249 22.229 C 20.442 22.416,20.647 22.487,20.997 22.488 C 21.336 22.490,21.552 22.419,21.735 22.248 C 21.985 22.013,21.977 22.088,22.007 19.460 C 22.022 18.140,22.036 17.001,22.037 16.929 C 22.041 16.740,21.834 16.310,21.690 16.207 C 21.467 16.048,21.205 15.959,20.987 15.969 C 20.873 15.974,19.736 15.987,18.460 15.999 " stroke="none" fill="black" fill-rule="evenodd"></path></svg>