<svg xmlns="http://www.w3.org/2000/svg" width="24" height="24" viewBox="0 0 24 24" fill="none" stroke="currentColor" stroke-width="2" stroke-linecap="round" stroke-linejoin="round" class="icon icon-tabler icons-tabler-outline icon-tabler-vip-off"><path d="M2.626 2.045 C 2.420 2.154,2.146 2.433,2.038 2.644 C 1.852 3.008,1.945 3.330,2.366 3.780 C 2.501 3.924,2.604 4.046,2.596 4.051 C 2.587 4.056,2.508 4.098,2.420 4.145 C 2.117 4.306,1.979 4.627,2.009 5.104 C 2.038 5.563,2.250 5.852,2.635 5.959 C 2.715 5.981,3.185 6.000,3.680 6.000 L 4.580 6.000 6.215 7.635 L 7.850 9.270 7.175 11.295 L 6.500 13.321 5.717 10.970 C 5.286 9.678,4.901 8.557,4.862 8.480 C 4.689 8.139,4.457 7.990,4.103 7.992 C 3.419 7.996,2.896 8.472,2.980 9.015 C 3.011 9.214,5.021 15.281,5.122 15.480 C 5.224 15.680,5.433 15.867,5.635 15.938 C 5.884 16.026,7.116 16.026,7.365 15.938 C 7.558 15.870,7.774 15.683,7.869 15.502 C 7.903 15.437,8.261 14.393,8.665 13.182 C 9.069 11.971,9.410 10.954,9.422 10.922 C 9.437 10.883,9.693 11.114,10.222 11.642 L 11.000 12.419 11.000 13.820 C 11.000 14.634,11.017 15.281,11.041 15.365 C 11.148 15.750,11.437 15.962,11.896 15.991 C 12.380 16.022,12.700 15.881,12.877 15.561 C 12.959 15.412,12.978 15.311,12.997 14.912 L 13.020 14.439 14.800 16.220 L 16.580 18.000 9.696 18.000 C 2.306 18.000,2.612 17.992,2.322 18.199 C 2.100 18.357,2.020 18.568,2.020 19.000 C 2.020 19.331,2.033 19.403,2.120 19.558 C 2.230 19.755,2.414 19.898,2.635 19.959 C 2.730 19.986,5.511 20.000,10.678 20.000 L 18.576 20.000 19.518 20.935 C 20.114 21.526,20.525 21.903,20.637 21.960 C 20.989 22.137,21.354 22.048,21.701 21.701 C 22.048 21.354,22.137 20.989,21.959 20.637 C 21.888 20.496,20.630 19.162,19.748 18.293 C 19.645 18.191,12.908 11.454,12.760 11.305 C 12.705 11.250,11.130 9.675,9.260 7.805 C 7.390 5.936,5.815 4.360,5.760 4.304 C 4.985 3.514,3.504 2.112,3.372 2.045 C 3.152 1.934,2.836 1.934,2.626 2.045 M8.614 4.057 C 8.377 4.131,8.212 4.261,8.109 4.453 C 8.035 4.592,8.020 4.684,8.020 5.000 C 8.020 5.331,8.033 5.403,8.120 5.558 C 8.230 5.755,8.414 5.898,8.635 5.959 C 8.834 6.015,21.166 6.015,21.365 5.959 C 21.586 5.898,21.770 5.755,21.880 5.558 C 21.967 5.402,21.980 5.332,21.979 5.000 C 21.978 4.567,21.898 4.355,21.678 4.199 C 21.388 3.992,21.642 4.000,14.984 4.003 C 10.009 4.005,8.747 4.016,8.614 4.057 M15.614 8.056 C 15.376 8.133,15.212 8.262,15.109 8.453 C 15.021 8.618,15.020 8.647,15.008 10.410 C 15.001 11.557,15.012 12.255,15.038 12.354 C 15.134 12.707,15.413 12.942,15.792 12.987 L 15.990 13.010 16.013 13.208 C 16.059 13.591,16.292 13.866,16.656 13.964 C 16.762 13.993,17.127 14.002,17.700 13.990 C 18.472 13.974,18.614 13.961,18.860 13.882 C 19.836 13.568,20.582 12.817,20.886 11.840 C 20.964 11.588,20.979 11.453,20.979 11.000 C 20.979 10.547,20.964 10.412,20.886 10.160 C 20.581 9.182,19.825 8.421,18.861 8.124 C 18.550 8.028,18.498 8.024,17.160 8.013 C 16.090 8.005,15.743 8.014,15.614 8.056 M18.310 10.061 C 18.688 10.173,19.000 10.598,19.000 11.001 C 19.000 11.331,18.784 11.696,18.484 11.872 C 18.308 11.975,18.272 11.981,17.650 11.993 L 17.000 12.007 17.000 11.003 L 17.000 10.000 17.553 10.000 C 17.931 10.000,18.170 10.019,18.310 10.061 " stroke="none" fill="black" fill-rule="evenodd"></path></svg>