<svg xmlns="http://www.w3.org/2000/svg" width="24" height="24" viewBox="0 0 24 24" fill="none" stroke="currentColor" stroke-width="2" stroke-linecap="round" stroke-linejoin="round" class="icon icon-tabler icons-tabler-outline icon-tabler-radar-off"><path d="M2.626 2.045 C 2.257 2.239,1.951 2.673,1.951 3.000 C 1.951 3.327,2.064 3.474,3.189 4.606 C 3.885 5.306,4.239 5.689,4.219 5.722 C 4.202 5.749,4.098 5.890,3.988 6.035 C 2.668 7.773,1.926 10.140,2.012 12.340 C 2.111 14.853,3.084 17.147,4.819 18.956 C 5.801 19.979,7.114 20.849,8.420 21.342 C 9.113 21.603,9.495 21.560,9.764 21.188 C 9.899 21.002,10.040 20.579,10.039 20.366 C 10.038 20.150,9.908 19.900,9.729 19.771 C 9.568 19.655,9.541 19.642,8.860 19.359 C 7.731 18.889,6.578 18.019,5.788 17.040 C 3.826 14.607,3.462 11.296,4.845 8.453 C 5.007 8.120,5.545 7.248,5.665 7.122 C 5.675 7.112,6.004 7.425,6.397 7.817 L 7.111 8.531 6.952 8.775 C 6.251 9.853,5.893 11.351,6.038 12.600 C 6.227 14.239,6.945 15.577,8.200 16.631 C 8.571 16.942,8.775 17.044,9.031 17.046 C 9.284 17.048,9.503 16.937,9.711 16.700 C 10.035 16.332,10.127 15.928,9.961 15.601 C 9.914 15.509,9.714 15.301,9.476 15.096 C 8.801 14.516,8.350 13.804,8.133 12.980 C 8.044 12.639,8.028 12.498,8.029 12.020 C 8.030 11.420,8.084 11.083,8.254 10.633 C 8.342 10.399,8.505 10.047,8.546 10.002 C 8.555 9.992,8.902 10.322,9.316 10.736 L 10.070 11.489 10.036 11.634 C 9.876 12.321,10.230 13.197,10.837 13.618 L 11.000 13.731 11.000 17.475 C 11.000 19.861,11.015 21.273,11.041 21.365 C 11.102 21.586,11.245 21.770,11.442 21.880 C 11.613 21.976,11.647 21.980,12.280 21.977 C 14.289 21.968,16.415 21.219,18.093 19.929 L 18.327 19.750 19.393 20.810 C 20.081 21.494,20.523 21.902,20.637 21.960 C 20.989 22.137,21.354 22.048,21.701 21.701 C 22.047 21.355,22.136 20.990,21.961 20.637 C 21.839 20.392,3.616 2.165,3.372 2.044 C 3.152 1.934,2.834 1.935,2.626 2.045 M11.460 2.025 C 10.086 2.128,8.858 2.438,7.793 2.951 C 7.263 3.206,7.036 3.391,6.956 3.631 C 6.825 4.030,7.127 4.720,7.523 4.922 C 7.797 5.061,8.026 5.030,8.597 4.776 C 9.253 4.484,9.815 4.298,10.393 4.180 C 12.103 3.831,13.952 4.063,15.500 4.819 C 17.335 5.714,18.713 7.222,19.482 9.176 C 19.763 9.891,20.052 10.109,20.577 10.002 C 21.209 9.874,21.565 9.487,21.507 8.993 C 21.455 8.561,20.901 7.356,20.397 6.580 C 18.830 4.168,16.272 2.527,13.452 2.123 C 12.914 2.047,11.862 1.994,11.460 2.025 M11.560 6.027 C 11.196 6.054,10.619 6.167,10.432 6.247 C 10.117 6.383,9.921 6.674,9.920 7.008 C 9.920 7.180,10.003 7.527,10.083 7.684 C 10.182 7.880,10.409 8.071,10.583 8.103 C 10.741 8.133,11.073 8.112,11.600 8.039 C 12.865 7.865,14.236 8.433,15.114 9.494 C 15.448 9.898,15.663 10.040,15.938 10.040 C 16.304 10.039,16.790 9.733,16.963 9.394 C 17.152 9.023,17.021 8.635,16.509 8.051 C 16.007 7.479,15.479 7.064,14.795 6.705 C 13.786 6.174,12.686 5.944,11.560 6.027 M15.614 11.057 C 15.376 11.132,15.212 11.261,15.109 11.453 C 15.035 11.592,15.020 11.684,15.020 12.000 C 15.020 12.331,15.033 12.403,15.120 12.558 C 15.230 12.755,15.414 12.898,15.635 12.959 C 15.724 12.984,16.587 13.000,17.850 13.000 C 19.875 13.000,19.920 13.002,19.920 13.078 C 19.920 13.267,19.741 14.055,19.602 14.478 C 19.519 14.732,19.358 15.143,19.244 15.391 C 19.016 15.891,18.970 16.100,19.036 16.346 C 19.163 16.818,19.948 17.203,20.418 17.023 C 20.714 16.910,20.933 16.588,21.245 15.811 C 21.745 14.565,21.970 13.483,21.976 12.300 C 21.980 11.646,21.976 11.613,21.880 11.442 C 21.816 11.328,21.709 11.219,21.583 11.142 L 21.386 11.020 18.583 11.012 C 16.357 11.006,15.746 11.015,15.614 11.057 M16.880 18.328 C 16.880 18.344,16.678 18.491,16.430 18.656 C 15.607 19.203,14.567 19.639,13.612 19.836 C 13.388 19.882,13.159 19.920,13.102 19.920 L 13.000 19.920 13.000 17.170 L 13.000 14.420 14.940 16.360 C 16.007 17.427,16.880 18.312,16.880 18.328 " stroke="none" fill="black" fill-rule="evenodd"></path></svg>