<svg xmlns="http://www.w3.org/2000/svg" width="24" height="24" viewBox="0 0 24 24" fill="none" stroke="currentColor" stroke-width="2" stroke-linecap="round" stroke-linejoin="round" class="icon icon-tabler icons-tabler-outline icon-tabler-lamp-2"><path d="M11.520 2.043 C 10.883 2.137,10.402 2.390,9.896 2.896 C 9.494 3.299,9.292 3.619,9.128 4.113 C 9.039 4.380,9.026 4.492,9.023 4.980 C 9.020 5.461,9.033 5.582,9.114 5.840 C 9.246 6.263,9.439 6.611,9.742 6.970 L 10.003 7.280 9.672 7.494 C 3.473 11.496,2.362 12.224,2.225 12.372 C 1.945 12.674,1.881 12.991,2.032 13.331 C 2.079 13.436,3.182 14.729,4.934 16.730 C 6.488 18.506,7.760 19.969,7.760 19.980 C 7.760 19.991,7.097 20.000,6.286 20.000 C 4.718 20.000,4.581 20.014,4.322 20.199 C 4.139 20.329,4.030 20.573,4.009 20.900 C 3.978 21.381,4.119 21.699,4.442 21.880 L 4.620 21.980 7.280 22.005 C 8.743 22.019,9.958 22.031,9.980 22.031 C 10.002 22.031,11.001 22.020,12.200 22.006 C 14.225 21.982,14.390 21.975,14.520 21.905 C 14.876 21.715,14.978 21.514,14.978 21.000 C 14.978 20.567,14.899 20.356,14.678 20.199 C 14.411 20.009,14.310 20.000,12.321 20.000 L 10.454 20.000 7.497 16.620 C 5.871 14.760,4.543 13.228,4.546 13.213 C 4.549 13.199,5.863 12.339,7.466 11.302 L 10.380 9.416 10.406 10.138 C 10.448 11.330,10.618 12.032,11.105 13.020 C 11.397 13.615,11.738 14.109,12.164 14.558 C 12.504 14.915,12.731 15.049,13.000 15.049 C 13.316 15.049,13.483 14.926,14.387 14.030 L 15.233 13.191 15.427 13.339 C 15.685 13.536,16.187 13.775,16.580 13.887 C 16.851 13.964,16.992 13.978,17.500 13.977 C 18.035 13.975,18.138 13.963,18.452 13.867 C 20.061 13.374,21.072 11.968,20.987 10.340 C 20.974 10.098,20.934 9.783,20.898 9.640 C 20.815 9.310,20.531 8.721,20.327 8.455 L 20.169 8.250 20.966 7.455 C 21.837 6.585,21.950 6.447,22.021 6.170 C 22.116 5.794,21.974 5.511,21.483 5.103 C 19.837 3.732,17.605 3.199,15.391 3.649 L 14.963 3.736 14.351 3.138 C 13.956 2.751,13.648 2.487,13.480 2.389 C 12.927 2.068,12.206 1.940,11.520 2.043 M12.425 4.105 C 12.508 4.144,12.684 4.281,12.818 4.409 L 13.060 4.643 12.944 4.731 C 12.547 5.033,11.991 5.589,11.732 5.941 L 11.645 6.060 11.439 5.860 C 11.326 5.750,11.190 5.587,11.137 5.497 C 10.818 4.959,11.113 4.230,11.726 4.044 C 11.907 3.988,12.241 4.018,12.425 4.105 M17.640 5.538 C 18.162 5.609,18.677 5.757,19.118 5.964 L 19.457 6.123 16.281 9.299 C 14.534 11.046,13.090 12.466,13.071 12.455 C 13.053 12.443,12.975 12.309,12.898 12.155 C 11.900 10.175,12.443 7.613,14.126 6.359 C 15.075 5.652,16.324 5.360,17.640 5.538 M18.834 9.830 C 19.210 10.579,18.890 11.488,18.120 11.856 C 17.885 11.968,17.824 11.980,17.480 11.979 C 17.168 11.978,17.062 11.961,16.890 11.884 C 16.774 11.832,16.680 11.779,16.680 11.765 C 16.680 11.743,18.727 9.680,18.749 9.680 C 18.754 9.680,18.792 9.748,18.834 9.830 " stroke="none" fill="black" fill-rule="evenodd"></path></svg>