<svg xmlns="http://www.w3.org/2000/svg" width="24" height="24" viewBox="0 0 24 24" fill="none" stroke="currentColor" stroke-width="2" stroke-linecap="round" stroke-linejoin="round" class="icon icon-tabler icons-tabler-outline icon-tabler-lock-open"><path d="M11.400 1.044 C 9.761 1.229,8.261 2.290,7.526 3.785 C 7.345 4.151,7.195 4.576,7.096 5.000 C 7.034 5.264,7.024 5.583,7.011 7.645 L 6.996 9.990 6.712 10.018 C 5.496 10.138,4.485 10.971,4.114 12.160 L 4.020 12.460 4.020 16.000 L 4.020 19.540 4.114 19.840 C 4.422 20.827,5.173 21.578,6.160 21.886 L 6.460 21.980 12.000 21.980 L 17.540 21.980 17.840 21.886 C 18.827 21.578,19.578 20.827,19.886 19.840 L 19.980 19.540 19.980 16.000 L 19.980 12.460 19.886 12.160 C 19.581 11.182,18.832 10.428,17.861 10.121 L 17.540 10.020 13.268 10.009 L 8.996 9.998 9.009 7.729 L 9.022 5.460 9.122 5.139 C 9.423 4.178,10.186 3.415,11.139 3.125 C 11.412 3.042,11.542 3.027,12.000 3.027 C 12.458 3.027,12.588 3.042,12.861 3.125 C 13.815 3.416,14.598 4.199,14.869 5.134 C 14.921 5.315,14.975 5.652,14.995 5.922 C 15.023 6.299,15.049 6.428,15.125 6.565 C 15.286 6.856,15.575 7.000,16.000 7.000 C 16.428 7.000,16.713 6.856,16.880 6.558 C 16.972 6.394,16.980 6.340,16.979 5.880 C 16.977 4.079,15.887 2.362,14.213 1.525 C 13.352 1.095,12.397 0.932,11.400 1.044 M17.310 12.061 C 17.589 12.144,17.856 12.411,17.939 12.690 C 18.025 12.980,18.031 19.004,17.945 19.290 C 17.872 19.533,17.707 19.740,17.484 19.872 L 17.300 19.980 12.000 19.980 L 6.700 19.980 6.516 19.872 C 6.303 19.747,6.141 19.550,6.058 19.316 C 5.969 19.063,5.971 12.991,6.061 12.690 C 6.140 12.421,6.412 12.143,6.673 12.063 C 6.963 11.974,17.010 11.972,17.310 12.061 M11.477 14.073 C 10.806 14.249,10.238 14.823,10.060 15.508 C 9.941 15.962,10.003 16.492,10.225 16.930 C 10.361 17.199,10.801 17.639,11.070 17.775 C 11.659 18.073,12.341 18.073,12.930 17.775 C 13.196 17.640,13.638 17.200,13.771 16.937 C 13.994 16.498,14.052 16.007,13.940 15.529 C 13.858 15.182,13.720 14.927,13.465 14.653 C 13.074 14.232,12.560 14.005,12.000 14.005 C 11.857 14.005,11.622 14.036,11.477 14.073 " stroke="none" fill="black" fill-rule="evenodd"></path></svg>