<svg xmlns="http://www.w3.org/2000/svg" width="24" height="24" viewBox="0 0 24 24" fill="none" stroke="currentColor" stroke-width="2" stroke-linecap="round" stroke-linejoin="round" class="icon icon-tabler icons-tabler-outline icon-tabler-building-mosque"><path d="M11.499 1.043 C 10.382 1.230,9.460 2.049,9.114 3.160 C 8.979 3.594,8.979 4.406,9.114 4.840 C 9.365 5.646,9.931 6.318,10.672 6.689 C 10.986 6.846,11.003 6.862,10.992 6.974 C 10.981 7.088,10.967 7.096,10.700 7.150 C 10.334 7.223,9.771 7.417,9.420 7.590 C 7.689 8.447,6.532 9.929,6.117 11.820 C 6.039 12.177,6.028 12.370,6.011 13.610 L 5.992 15.000 5.496 15.000 L 5.000 15.000 5.000 13.461 L 5.000 11.921 5.190 11.824 C 5.450 11.691,5.734 11.388,5.868 11.100 C 5.968 10.885,5.980 10.816,5.980 10.440 C 5.980 10.148,5.956 9.929,5.900 9.720 C 5.811 9.383,4.878 7.458,4.705 7.253 C 4.533 7.049,4.276 6.945,4.012 6.972 C 3.739 7.001,3.399 7.162,3.256 7.332 C 3.083 7.536,2.190 9.382,2.100 9.720 C 2.044 9.929,2.020 10.147,2.020 10.440 C 2.020 10.816,2.032 10.885,2.132 11.100 C 2.266 11.388,2.550 11.691,2.810 11.824 L 3.000 11.921 3.000 15.952 L 3.000 19.982 2.756 20.028 C 2.450 20.086,2.227 20.232,2.111 20.450 C 2.035 20.592,2.020 20.682,2.020 21.000 C 2.020 21.331,2.033 21.403,2.120 21.558 C 2.230 21.755,2.414 21.898,2.635 21.959 C 2.833 22.014,10.167 22.014,10.365 21.959 C 10.586 21.898,10.770 21.755,10.880 21.558 C 10.980 21.381,10.980 21.376,11.001 20.060 C 11.024 18.577,11.025 18.571,11.321 18.283 C 11.490 18.120,11.777 18.000,12.000 18.000 C 12.223 18.000,12.510 18.120,12.679 18.283 C 12.976 18.572,12.977 18.577,13.000 20.060 C 13.020 21.376,13.020 21.381,13.120 21.558 C 13.230 21.755,13.414 21.898,13.635 21.959 C 13.833 22.014,21.167 22.014,21.365 21.959 C 21.586 21.898,21.770 21.755,21.880 21.558 C 21.967 21.402,21.980 21.332,21.979 21.000 C 21.978 20.685,21.963 20.591,21.888 20.450 C 21.773 20.232,21.551 20.086,21.244 20.028 L 21.000 19.982 21.000 15.952 L 21.000 11.921 21.190 11.824 C 21.450 11.691,21.734 11.388,21.868 11.100 C 21.968 10.885,21.980 10.816,21.980 10.440 C 21.980 10.148,21.956 9.929,21.900 9.720 C 21.811 9.383,20.878 7.458,20.705 7.253 C 20.533 7.049,20.276 6.945,20.012 6.972 C 19.739 7.001,19.399 7.162,19.256 7.332 C 19.083 7.536,18.190 9.382,18.100 9.720 C 18.044 9.929,18.020 10.147,18.020 10.440 C 18.020 10.816,18.032 10.885,18.132 11.100 C 18.266 11.388,18.550 11.691,18.810 11.824 L 19.000 11.921 19.000 13.461 L 19.000 15.000 18.504 15.000 L 18.008 15.000 17.989 13.610 C 17.972 12.370,17.961 12.177,17.883 11.820 C 17.467 9.924,16.315 8.449,14.580 7.590 C 14.229 7.417,13.666 7.223,13.300 7.150 C 13.033 7.096,13.019 7.088,13.008 6.974 C 12.997 6.862,13.014 6.846,13.328 6.689 C 14.069 6.318,14.637 5.643,14.885 4.840 C 15.018 4.410,15.021 3.697,14.891 3.453 C 14.689 3.076,14.138 2.902,13.629 3.055 C 13.220 3.178,13.055 3.409,13.000 3.934 C 12.982 4.113,12.947 4.311,12.923 4.373 C 12.851 4.561,12.677 4.758,12.484 4.872 C 12.328 4.963,12.254 4.980,12.000 4.980 C 11.746 4.980,11.672 4.963,11.516 4.872 C 10.947 4.538,10.834 3.784,11.283 3.321 C 11.490 3.108,11.650 3.042,12.062 3.000 C 12.535 2.951,12.738 2.836,12.904 2.520 C 13.018 2.305,13.009 1.679,12.890 1.453 C 12.687 1.070,12.198 0.926,11.499 1.043 M12.605 9.058 C 14.062 9.278,15.287 10.302,15.780 11.712 L 15.874 11.980 13.937 11.990 C 12.872 11.996,11.128 11.996,10.063 11.990 L 8.126 11.980 8.220 11.712 C 8.707 10.320,9.934 9.283,11.358 9.061 C 11.816 8.990,12.144 8.989,12.605 9.058 M16.008 15.190 C 16.020 16.374,16.020 16.381,16.120 16.558 C 16.230 16.755,16.414 16.898,16.635 16.959 C 16.716 16.982,17.270 17.000,17.890 17.000 L 19.000 17.000 19.000 18.500 L 19.000 20.000 17.005 20.000 L 15.009 20.000 14.990 19.210 C 14.974 18.536,14.958 18.379,14.882 18.140 C 14.572 17.172,13.813 16.415,12.861 16.125 C 12.588 16.042,12.458 16.027,12.000 16.027 C 11.542 16.027,11.412 16.042,11.139 16.125 C 10.187 16.415,9.428 17.172,9.118 18.140 C 9.042 18.379,9.026 18.536,9.010 19.210 L 8.991 20.000 6.995 20.000 L 5.000 20.000 5.000 18.500 L 5.000 17.000 6.110 17.000 C 6.730 17.000,7.284 16.982,7.365 16.959 C 7.586 16.898,7.770 16.755,7.880 16.558 C 7.979 16.381,7.980 16.374,7.993 15.190 L 8.005 14.000 12.000 14.000 L 15.996 14.000 16.008 15.190 " stroke="none" fill="black" fill-rule="evenodd"></path></svg>