<svg xmlns="http://www.w3.org/2000/svg" width="24" height="24" viewBox="0 0 24 24" fill="none" stroke="currentColor" stroke-width="2" stroke-linecap="round" stroke-linejoin="round" class="icon icon-tabler icons-tabler-outline icon-tabler-music-dollar"><path d="M8.614 3.057 C 8.377 3.131,8.212 3.261,8.109 3.453 L 8.020 3.620 8.009 8.570 C 8.004 11.293,7.990 13.520,7.978 13.520 C 7.967 13.520,7.855 13.469,7.729 13.406 C 7.245 13.164,6.548 13.000,6.000 13.000 C 4.635 13.000,3.253 13.787,2.569 14.953 C 1.320 17.083,2.233 19.785,4.512 20.704 C 5.231 20.994,6.023 21.070,6.757 20.921 C 8.384 20.589,9.589 19.384,9.921 17.757 C 9.997 17.383,10.000 17.200,10.000 13.184 L 10.000 9.000 14.000 9.000 L 18.000 9.000 18.000 9.610 C 18.000 9.945,18.019 10.285,18.041 10.365 C 18.148 10.750,18.437 10.962,18.896 10.991 C 19.381 11.022,19.699 10.882,19.880 10.558 L 19.980 10.380 19.980 7.000 L 19.980 3.620 19.891 3.453 C 19.785 3.256,19.622 3.131,19.371 3.055 C 19.107 2.976,8.867 2.978,8.614 3.057 M18.000 6.000 L 18.000 7.000 14.000 7.000 L 10.000 7.000 10.000 6.000 L 10.000 5.000 14.000 5.000 L 18.000 5.000 18.000 6.000 M18.614 13.057 C 18.250 13.171,18.061 13.411,18.008 13.826 L 17.980 14.049 17.759 14.118 C 17.003 14.351,16.361 14.979,16.118 15.722 C 16.034 15.976,16.020 16.094,16.022 16.520 C 16.024 16.960,16.038 17.056,16.133 17.320 C 16.394 18.039,16.964 18.609,17.680 18.867 C 17.961 18.968,18.033 18.976,18.800 18.992 C 19.702 19.010,19.786 19.030,19.922 19.252 C 20.021 19.415,20.021 19.585,19.922 19.748 C 19.770 19.997,19.750 20.000,18.208 20.000 C 16.724 20.000,16.580 20.015,16.322 20.199 C 16.100 20.357,16.020 20.568,16.020 21.000 C 16.020 21.331,16.033 21.403,16.120 21.558 C 16.230 21.755,16.414 21.898,16.635 21.959 C 16.715 21.981,17.052 22.000,17.384 22.000 L 17.989 22.000 18.013 22.203 C 18.074 22.715,18.426 23.000,19.000 23.000 C 19.582 23.000,19.923 22.720,19.984 22.193 L 20.010 21.966 20.294 21.873 C 21.001 21.642,21.605 21.046,21.868 20.320 C 21.965 20.052,21.976 19.965,21.976 19.500 C 21.976 19.035,21.965 18.948,21.868 18.680 C 21.646 18.068,21.195 17.561,20.620 17.277 C 20.172 17.055,19.869 17.002,19.068 17.001 C 18.319 17.000,18.216 16.974,18.078 16.748 C 17.979 16.585,17.979 16.415,18.078 16.252 C 18.230 16.003,18.249 16.000,19.808 16.000 C 20.630 16.000,21.280 15.983,21.365 15.959 C 21.586 15.898,21.770 15.755,21.880 15.558 C 21.967 15.402,21.980 15.332,21.979 15.000 C 21.978 14.687,21.962 14.591,21.890 14.453 C 21.702 14.098,21.423 14.000,20.599 14.000 L 20.010 14.000 19.983 13.794 C 19.948 13.531,19.835 13.310,19.678 13.199 C 19.414 13.010,18.957 12.950,18.614 13.057 M6.523 15.073 C 7.262 15.266,7.850 15.924,7.967 16.690 C 8.067 17.343,7.873 17.933,7.403 18.404 C 7.002 18.807,6.547 19.000,6.000 19.000 C 5.485 19.000,5.038 18.822,4.653 18.465 C 3.323 17.229,4.189 15.005,6.000 15.005 C 6.143 15.005,6.378 15.036,6.523 15.073 " stroke="none" fill="black" fill-rule="evenodd"></path></svg>