<svg xmlns="http://www.w3.org/2000/svg" width="24" height="24" viewBox="0 0 24 24" fill="none" stroke="currentColor" stroke-width="2" stroke-linecap="round" stroke-linejoin="round" class="icon icon-tabler icons-tabler-outline icon-tabler-layout-sidebar-right-inactive"><path d="M5.499 3.043 C 4.380 3.233,3.461 4.048,3.114 5.160 L 3.020 5.460 3.020 12.000 L 3.020 18.540 3.114 18.840 C 3.422 19.827,4.173 20.578,5.160 20.886 L 5.460 20.980 12.000 20.980 L 18.540 20.980 18.840 20.886 C 19.827 20.578,20.578 19.827,20.886 18.840 L 20.980 18.540 20.980 12.000 L 20.980 5.460 20.886 5.160 C 20.581 4.182,19.832 3.428,18.861 3.121 L 18.540 3.020 12.120 3.014 C 8.589 3.011,5.609 3.024,5.499 3.043 M14.013 5.203 C 14.074 5.715,14.426 6.000,15.000 6.000 C 15.574 6.000,15.919 5.723,15.983 5.210 L 16.009 5.000 17.057 5.000 C 18.297 5.000,18.416 5.022,18.697 5.303 C 19.023 5.629,19.000 5.126,19.000 12.001 C 19.000 17.059,18.991 18.139,18.945 18.290 C 18.872 18.533,18.707 18.740,18.484 18.872 L 18.300 18.980 17.155 18.992 L 16.011 19.004 15.983 18.796 C 15.915 18.284,15.564 18.000,15.000 18.000 C 14.437 18.000,14.072 18.296,14.012 18.803 L 13.989 19.001 9.844 18.991 L 5.700 18.980 5.516 18.872 C 5.415 18.813,5.284 18.700,5.225 18.623 C 4.987 18.311,5.000 18.701,5.000 12.022 C 5.000 5.123,4.977 5.629,5.304 5.303 C 5.618 4.989,5.353 5.006,9.924 5.003 L 13.989 5.000 14.013 5.203 M14.614 8.057 C 14.377 8.131,14.212 8.261,14.109 8.453 C 14.027 8.606,14.019 8.684,14.007 9.405 C 13.999 9.880,14.011 10.252,14.037 10.349 C 14.144 10.748,14.430 10.961,14.896 10.991 C 15.381 11.022,15.699 10.882,15.880 10.558 C 15.978 10.383,15.980 10.364,15.980 9.500 C 15.980 8.667,15.975 8.611,15.891 8.453 C 15.842 8.362,15.746 8.247,15.678 8.199 C 15.414 8.010,14.957 7.950,14.614 8.057 M14.614 13.057 C 14.377 13.131,14.212 13.261,14.109 13.453 C 14.027 13.606,14.019 13.684,14.007 14.405 C 13.999 14.880,14.011 15.252,14.037 15.349 C 14.144 15.748,14.430 15.961,14.896 15.991 C 15.381 16.022,15.699 15.882,15.880 15.558 C 15.978 15.383,15.980 15.364,15.980 14.500 C 15.980 13.667,15.975 13.611,15.891 13.453 C 15.842 13.362,15.746 13.247,15.678 13.199 C 15.414 13.010,14.957 12.950,14.614 13.057 " stroke="none" fill="black" fill-rule="evenodd"></path></svg>