<svg xmlns="http://www.w3.org/2000/svg" width="24" height="24" viewBox="0 0 24 24" fill="none" stroke="currentColor" stroke-width="2" stroke-linecap="round" stroke-linejoin="round" class="icon icon-tabler icons-tabler-outline icon-tabler-devices-pc"><path d="M2.614 4.057 C 2.377 4.131,2.212 4.261,2.109 4.453 L 2.020 4.620 2.010 11.914 C 2.003 16.725,2.013 19.259,2.039 19.358 C 2.100 19.584,2.243 19.769,2.442 19.880 L 2.620 19.980 5.912 19.991 C 8.060 19.998,9.257 19.988,9.356 19.961 C 9.584 19.900,9.768 19.758,9.880 19.558 L 9.980 19.380 9.980 12.000 L 9.980 4.620 9.891 4.453 C 9.785 4.256,9.622 4.131,9.371 4.055 C 9.109 3.977,2.866 3.979,2.614 4.057 M8.000 12.000 L 8.000 18.000 6.000 18.000 L 4.000 18.000 4.000 12.000 L 4.000 6.000 6.000 6.000 L 8.000 6.000 8.000 12.000 M11.614 8.057 C 11.377 8.131,11.212 8.261,11.109 8.453 L 11.020 8.620 11.009 12.413 C 11.002 14.894,11.012 16.258,11.039 16.357 C 11.100 16.584,11.242 16.768,11.442 16.880 L 11.620 16.980 13.810 16.991 L 16.000 17.003 16.000 17.501 L 16.000 18.000 14.906 18.000 C 13.744 18.000,13.570 18.022,13.322 18.199 C 13.100 18.357,13.020 18.568,13.020 19.000 C 13.020 19.331,13.033 19.403,13.120 19.558 C 13.230 19.755,13.414 19.898,13.635 19.959 C 13.832 20.014,20.168 20.014,20.365 19.959 C 20.586 19.898,20.770 19.755,20.880 19.558 C 20.967 19.402,20.980 19.332,20.979 19.000 C 20.978 18.567,20.898 18.355,20.678 18.199 C 20.430 18.022,20.256 18.000,19.094 18.000 L 18.000 18.000 18.000 17.500 L 18.000 17.000 20.110 17.000 C 21.400 17.000,22.276 16.984,22.365 16.959 C 22.586 16.898,22.770 16.755,22.880 16.558 L 22.980 16.380 22.980 12.500 L 22.980 8.620 22.891 8.453 C 22.785 8.256,22.622 8.131,22.371 8.055 C 22.107 7.976,11.867 7.978,11.614 8.057 M21.000 12.500 L 21.000 15.000 17.000 15.000 L 13.000 15.000 13.000 12.500 L 13.000 10.000 17.000 10.000 L 21.000 10.000 21.000 12.500 M5.614 12.057 C 5.221 12.180,5.039 12.435,5.009 12.906 C 4.962 13.621,5.306 14.000,6.000 14.000 C 6.698 14.000,7.043 13.616,6.989 12.900 C 6.963 12.563,6.859 12.327,6.678 12.199 C 6.414 12.010,5.957 11.950,5.614 12.057 M5.614 15.057 C 5.221 15.180,5.039 15.435,5.009 15.906 C 4.962 16.621,5.306 17.000,6.000 17.000 C 6.698 17.000,7.043 16.616,6.989 15.900 C 6.963 15.563,6.859 15.327,6.678 15.199 C 6.414 15.010,5.957 14.950,5.614 15.057 " stroke="none" fill="black" fill-rule="evenodd"></path></svg>