<svg xmlns="http://www.w3.org/2000/svg" width="24" height="24" viewBox="0 0 24 24" fill="none" stroke="currentColor" stroke-width="2" stroke-linecap="round" stroke-linejoin="round" class="icon icon-tabler icons-tabler-outline icon-tabler-corner-down-left-double"><path d="M18.614 4.057 C 18.377 4.131,18.212 4.261,18.109 4.453 L 18.020 4.620 17.999 8.020 C 17.980 11.088,17.971 11.440,17.910 11.623 C 17.759 12.070,17.326 12.574,16.912 12.784 C 16.491 12.997,16.454 13.000,13.843 13.000 L 11.423 13.000 12.647 11.770 C 13.452 10.961,13.901 10.479,13.960 10.363 C 14.137 10.011,14.048 9.646,13.701 9.299 C 13.361 8.959,12.980 8.868,12.628 9.044 C 12.518 9.099,11.768 9.817,10.460 11.118 C 9.360 12.213,8.399 13.150,8.324 13.201 C 8.149 13.321,7.951 13.745,7.951 14.000 C 7.951 14.239,8.150 14.682,8.304 14.784 C 8.366 14.826,9.327 15.763,10.439 16.866 C 11.818 18.234,12.516 18.899,12.637 18.960 C 12.989 19.137,13.354 19.048,13.701 18.701 C 14.048 18.354,14.137 17.989,13.960 17.637 C 13.901 17.521,13.452 17.039,12.647 16.230 L 11.423 15.000 13.895 15.000 C 16.204 15.000,16.393 14.995,16.757 14.921 C 18.386 14.589,19.589 13.384,19.922 11.752 C 19.999 11.372,20.002 11.231,19.991 7.988 L 19.980 4.620 19.891 4.453 C 19.842 4.362,19.746 4.247,19.678 4.199 C 19.414 4.010,18.957 3.950,18.614 4.057 M7.620 9.046 C 7.385 9.167,3.154 13.408,3.039 13.637 C 2.924 13.868,2.924 14.132,3.039 14.363 C 3.164 14.612,7.388 18.836,7.637 18.961 C 7.990 19.137,8.355 19.048,8.701 18.701 C 9.048 18.354,9.137 17.989,8.960 17.637 C 8.900 17.517,8.321 16.908,7.147 15.730 L 5.422 14.000 7.147 12.270 C 8.321 11.092,8.900 10.483,8.960 10.363 C 9.137 10.011,9.048 9.646,8.701 9.299 C 8.361 8.959,7.968 8.867,7.620 9.046 " stroke="none" fill="black" fill-rule="evenodd"></path></svg>