<svg xmlns="http://www.w3.org/2000/svg" width="24" height="24" viewBox="0 0 24 24" fill="none" stroke="currentColor" stroke-width="2" stroke-linecap="round" stroke-linejoin="round" class="icon icon-tabler icons-tabler-outline icon-tabler-device-tablet-code"><path d="M5.477 2.073 C 4.806 2.249,4.238 2.823,4.060 3.508 C 3.969 3.854,3.969 20.146,4.060 20.492 C 4.153 20.852,4.310 21.118,4.596 21.404 C 4.882 21.690,5.148 21.847,5.508 21.940 C 5.847 22.029,11.606 22.029,11.904 21.941 C 12.290 21.827,12.486 21.508,12.486 20.997 C 12.486 20.491,12.303 20.196,11.909 20.064 C 11.740 20.008,11.371 20.000,8.859 20.000 L 6.000 20.000 6.000 12.000 L 6.000 4.000 12.000 4.000 L 18.000 4.000 18.000 8.610 C 18.000 11.575,18.015 13.272,18.041 13.365 C 18.148 13.750,18.437 13.962,18.896 13.991 C 19.381 14.022,19.699 13.882,19.880 13.558 L 19.980 13.380 19.991 8.590 C 20.003 3.380,20.008 3.530,19.782 3.083 C 19.646 2.816,19.297 2.449,19.017 2.281 C 18.528 1.987,18.983 2.005,12.000 2.005 C 6.211 2.005,5.720 2.010,5.477 2.073 M11.560 15.053 C 11.182 15.142,10.880 15.313,10.600 15.597 C 9.973 16.234,9.830 17.099,10.220 17.900 C 10.418 18.307,10.830 18.675,11.153 18.735 C 11.482 18.795,11.971 18.504,12.201 18.110 C 12.309 17.925,12.322 17.870,12.310 17.651 C 12.299 17.448,12.273 17.368,12.168 17.219 C 12.098 17.119,12.040 17.030,12.040 17.020 C 12.040 17.010,12.086 17.020,12.143 17.041 C 12.291 17.097,12.622 17.089,12.771 17.025 C 13.072 16.896,13.316 16.489,13.350 16.058 C 13.376 15.732,13.313 15.556,13.102 15.370 C 12.770 15.078,12.070 14.934,11.560 15.053 M16.620 16.046 C 16.390 16.165,14.153 18.411,14.040 18.637 C 13.986 18.744,13.951 18.889,13.951 19.000 C 13.951 19.334,14.057 19.468,15.294 20.706 C 16.532 21.943,16.666 22.049,17.000 22.049 C 17.477 22.049,18.049 21.477,18.049 21.000 C 18.049 20.693,17.921 20.513,17.147 19.730 L 16.425 19.000 17.147 18.270 C 17.580 17.832,17.905 17.469,17.959 17.363 C 18.137 17.012,18.048 16.646,17.701 16.299 C 17.361 15.959,16.967 15.867,16.620 16.046 M19.626 16.045 C 19.257 16.239,18.951 16.673,18.951 17.000 C 18.951 17.307,19.079 17.487,19.853 18.270 L 20.575 19.000 19.853 19.730 C 19.420 20.168,19.095 20.531,19.041 20.637 C 18.863 20.988,18.952 21.354,19.299 21.701 C 19.646 22.048,20.010 22.137,20.363 21.960 C 20.607 21.838,22.838 19.607,22.960 19.363 C 23.076 19.132,23.076 18.868,22.960 18.637 C 22.842 18.400,20.608 16.162,20.372 16.044 C 20.152 15.934,19.835 15.935,19.626 16.045 " stroke="none" fill="black" fill-rule="evenodd"></path></svg>