<svg xmlns="http://www.w3.org/2000/svg" width="24" height="24" viewBox="0 0 24 24" fill="none" stroke="currentColor" stroke-width="2" stroke-linecap="round" stroke-linejoin="round" class="icon icon-tabler icons-tabler-outline icon-tabler-building-cottage"><path d="M11.600 2.091 C 11.479 2.142,10.162 2.738,8.673 3.416 C 6.862 4.239,5.918 4.689,5.824 4.774 C 5.725 4.863,5.302 5.588,4.397 7.220 C 3.689 8.496,3.085 9.610,3.055 9.695 C 3.009 9.823,3.000 10.721,3.000 14.916 L 3.000 19.982 2.756 20.028 C 2.450 20.086,2.227 20.232,2.111 20.450 C 2.035 20.592,2.020 20.682,2.020 21.000 C 2.020 21.331,2.033 21.403,2.120 21.558 C 2.230 21.755,2.414 21.898,2.635 21.959 C 2.730 21.986,5.946 22.000,12.000 22.000 C 18.054 22.000,21.270 21.986,21.365 21.959 C 21.586 21.898,21.770 21.755,21.880 21.558 C 21.967 21.402,21.980 21.332,21.979 21.000 C 21.978 20.685,21.963 20.591,21.888 20.450 C 21.773 20.232,21.551 20.086,21.244 20.028 L 21.000 19.982 21.000 14.916 C 21.000 10.721,20.991 9.823,20.945 9.695 C 20.915 9.610,20.311 8.496,19.603 7.220 C 18.696 5.583,18.275 4.863,18.175 4.773 C 18.080 4.688,17.094 4.219,15.149 3.335 C 11.932 1.873,12.031 1.908,11.600 2.091 M14.420 5.197 L 16.780 6.270 17.890 8.265 L 19.000 10.260 19.000 15.130 L 19.000 20.000 17.500 20.000 L 16.000 20.000 15.999 17.890 C 15.999 15.612,15.990 15.494,15.781 15.083 C 15.646 14.816,15.297 14.449,15.017 14.281 C 14.564 14.008,14.524 14.005,12.000 14.005 C 9.476 14.005,9.436 14.008,8.983 14.281 C 8.703 14.449,8.354 14.816,8.219 15.083 C 8.005 15.504,8.000 15.567,8.000 17.868 L 8.000 20.000 6.500 20.000 L 5.000 20.000 5.000 15.130 L 5.000 10.260 6.110 8.265 L 7.220 6.270 9.580 5.197 C 10.878 4.607,11.967 4.123,12.000 4.123 C 12.033 4.123,13.122 4.607,14.420 5.197 M11.499 6.040 C 10.363 6.246,9.460 7.049,9.114 8.160 C 8.979 8.594,8.979 9.406,9.114 9.840 C 9.421 10.826,10.174 11.579,11.160 11.886 C 11.594 12.021,12.406 12.021,12.840 11.886 C 13.826 11.579,14.579 10.826,14.886 9.840 C 15.021 9.406,15.021 8.594,14.886 8.160 C 14.581 7.179,13.810 6.407,12.861 6.129 C 12.500 6.023,11.832 5.980,11.499 6.040 M12.310 8.061 C 12.688 8.173,13.000 8.598,13.000 9.001 C 13.000 9.331,12.784 9.696,12.484 9.872 C 12.328 9.963,12.254 9.980,12.000 9.980 C 11.746 9.980,11.672 9.963,11.516 9.872 C 10.935 9.530,10.833 8.774,11.304 8.303 C 11.583 8.024,11.916 7.944,12.310 8.061 M14.000 18.000 L 14.000 20.000 12.000 20.000 L 10.000 20.000 10.000 18.000 L 10.000 16.000 12.000 16.000 L 14.000 16.000 14.000 18.000 " stroke="none" fill="black" fill-rule="evenodd"></path></svg>