<svg xmlns="http://www.w3.org/2000/svg" width="24" height="24" viewBox="0 0 24 24" fill="none" stroke="currentColor" stroke-width="2" stroke-linecap="round" stroke-linejoin="round" class="icon icon-tabler icons-tabler-outline icon-tabler-currency-ripple"><path d="M16.358 3.061 C 14.150 3.405,12.636 5.582,13.082 7.772 C 13.195 8.326,13.497 9.028,13.750 9.327 C 13.801 9.387,13.739 9.478,13.162 10.197 L 12.518 11.000 11.698 11.000 C 10.952 11.000,10.875 10.994,10.855 10.930 C 10.843 10.892,10.778 10.716,10.711 10.540 C 10.213 9.232,9.008 8.270,7.605 8.058 C 7.121 7.986,6.879 7.986,6.395 8.058 C 4.155 8.396,2.632 10.563,3.083 12.773 C 3.357 14.118,4.249 15.195,5.512 15.704 C 6.231 15.994,7.023 16.070,7.757 15.921 C 9.127 15.641,10.230 14.723,10.711 13.460 C 10.778 13.284,10.843 13.108,10.855 13.070 C 10.875 13.006,10.952 13.000,11.698 13.000 L 12.518 13.000 13.162 13.803 C 13.739 14.522,13.801 14.613,13.750 14.673 C 13.632 14.813,13.432 15.178,13.301 15.495 C 12.460 17.526,13.458 19.876,15.512 20.704 C 17.558 21.528,19.877 20.538,20.704 18.488 C 21.090 17.530,21.090 16.469,20.705 15.516 C 20.263 14.421,19.381 13.593,18.244 13.204 C 17.456 12.934,16.377 12.955,15.609 13.257 L 15.363 13.353 14.821 12.676 L 14.279 12.000 14.821 11.324 L 15.363 10.647 15.611 10.745 C 16.249 10.995,17.064 11.062,17.757 10.921 C 19.117 10.643,20.193 9.755,20.704 8.488 C 21.090 7.530,21.090 6.469,20.705 5.516 C 20.172 4.197,19.001 3.269,17.605 3.058 C 17.144 2.989,16.816 2.990,16.358 3.061 M17.523 5.073 C 18.262 5.266,18.850 5.924,18.967 6.690 C 19.067 7.343,18.873 7.933,18.403 8.404 C 18.002 8.807,17.547 9.000,17.000 9.000 C 16.485 9.000,16.038 8.822,15.653 8.465 C 14.323 7.229,15.189 5.005,17.000 5.005 C 17.143 5.005,17.378 5.036,17.523 5.073 M7.523 10.073 C 8.262 10.266,8.850 10.924,8.967 11.690 C 9.067 12.343,8.873 12.933,8.403 13.404 C 8.002 13.807,7.547 14.000,7.000 14.000 C 6.485 14.000,6.038 13.822,5.653 13.465 C 4.323 12.229,5.189 10.005,7.000 10.005 C 7.143 10.005,7.378 10.036,7.523 10.073 M17.523 15.073 C 18.262 15.266,18.850 15.924,18.967 16.690 C 19.067 17.343,18.873 17.933,18.403 18.404 C 18.002 18.807,17.547 19.000,17.000 19.000 C 16.485 19.000,16.038 18.822,15.653 18.465 C 14.323 17.229,15.189 15.005,17.000 15.005 C 17.143 15.005,17.378 15.036,17.523 15.073 " stroke="none" fill="black" fill-rule="evenodd"></path></svg>