<svg xmlns="http://www.w3.org/2000/svg" width="24" height="24" viewBox="0 0 24 24" fill="none" stroke="currentColor" stroke-width="2" stroke-linecap="round" stroke-linejoin="round" class="icon icon-tabler icons-tabler-outline icon-tabler-triangle"><path d="M11.360 1.743 C 10.997 1.820,10.351 2.154,10.057 2.417 C 9.924 2.536,9.724 2.765,9.614 2.927 C 9.333 3.337,1.373 16.642,1.258 16.894 C 1.083 17.275,1.021 17.588,1.021 18.080 C 1.021 18.622,1.087 18.912,1.318 19.380 C 1.603 19.956,2.045 20.398,2.620 20.682 C 3.280 21.007,2.416 20.980,12.000 20.980 C 21.583 20.980,20.719 21.007,21.380 20.682 C 21.947 20.403,22.401 19.949,22.682 19.380 C 22.913 18.912,22.979 18.622,22.979 18.080 C 22.979 17.589,22.917 17.275,22.744 16.897 C 22.629 16.647,14.665 3.334,14.386 2.927 C 14.276 2.765,14.076 2.536,13.943 2.417 C 13.633 2.140,13.002 1.820,12.607 1.739 C 12.252 1.667,11.711 1.669,11.360 1.743 M12.380 3.756 C 12.468 3.797,12.588 3.882,12.647 3.945 C 12.789 4.099,20.880 17.616,20.952 17.820 C 21.108 18.266,20.805 18.829,20.340 18.956 C 20.114 19.018,3.907 19.018,3.663 18.956 C 3.165 18.831,2.862 18.202,3.076 17.740 C 3.207 17.457,11.243 4.064,11.353 3.945 C 11.508 3.778,11.744 3.682,12.000 3.682 C 12.130 3.682,12.286 3.712,12.380 3.756 " stroke="none" fill="black" fill-rule="evenodd"></path></svg>