<svg xmlns="http://www.w3.org/2000/svg" width="24" height="24" viewBox="0 0 24 24" fill="none" stroke="currentColor" stroke-width="2" stroke-linecap="round" stroke-linejoin="round" class="icon icon-tabler icons-tabler-outline icon-tabler-brand-miniprogram"><path d="M11.080 2.045 C 9.507 2.184,7.883 2.751,6.540 3.630 C 5.905 4.045,5.499 4.378,4.919 4.958 C 2.953 6.926,1.919 9.544,2.013 12.320 C 2.084 14.439,2.752 16.328,4.033 18.040 C 4.430 18.570,5.305 19.464,5.800 19.847 C 7.242 20.961,8.787 21.624,10.600 21.907 C 11.247 22.008,12.753 22.008,13.400 21.907 C 15.638 21.557,17.504 20.620,19.062 19.062 C 20.620 17.504,21.557 15.638,21.907 13.400 C 22.008 12.753,22.008 11.247,21.907 10.600 C 21.624 8.786,20.959 7.238,19.847 5.800 C 19.510 5.365,18.639 4.494,18.200 4.154 C 16.133 2.555,13.646 1.818,11.080 2.045 M12.734 4.041 C 14.574 4.216,16.228 4.976,17.554 6.256 C 20.043 8.658,20.702 12.394,19.183 15.499 C 18.749 16.387,18.223 17.105,17.496 17.801 C 16.876 18.394,16.262 18.819,15.471 19.200 C 13.267 20.265,10.733 20.265,8.529 19.200 C 7.477 18.693,6.612 18.015,5.847 17.100 C 3.848 14.711,3.440 11.302,4.816 8.500 C 6.162 5.760,8.867 4.049,11.920 4.005 C 12.129 4.003,12.495 4.019,12.734 4.041 M13.913 7.057 C 12.747 7.264,11.819 7.976,11.324 9.046 C 11.027 9.686,11.029 9.671,11.003 11.881 L 10.980 13.862 10.852 14.121 C 10.684 14.460,10.441 14.704,10.120 14.856 C 9.889 14.966,9.820 14.980,9.500 14.980 C 9.180 14.980,9.111 14.966,8.880 14.856 C 8.550 14.699,8.301 14.450,8.144 14.120 C 8.033 13.887,8.020 13.822,8.022 13.500 C 8.025 12.986,8.137 12.752,8.588 12.320 C 8.959 11.963,9.040 11.820,9.039 11.531 C 9.038 11.281,8.929 11.049,8.694 10.797 C 8.449 10.535,8.313 10.467,8.038 10.467 C 7.752 10.467,7.492 10.604,7.113 10.955 C 5.341 12.596,5.758 15.529,7.920 16.618 C 8.495 16.908,9.019 17.020,9.652 16.989 C 10.596 16.943,11.397 16.577,12.042 15.895 C 12.332 15.588,12.494 15.347,12.679 14.947 C 12.972 14.316,12.971 14.325,12.997 12.120 L 13.020 10.140 13.127 9.911 C 13.496 9.125,14.405 8.789,15.154 9.163 C 15.444 9.308,15.730 9.607,15.872 9.911 C 15.963 10.105,15.979 10.195,15.979 10.500 C 15.980 10.822,15.966 10.887,15.854 11.120 C 15.727 11.384,15.700 11.416,15.309 11.791 C 15.043 12.045,14.960 12.207,14.960 12.468 C 14.960 13.004,15.567 13.612,16.039 13.549 C 16.332 13.510,16.566 13.360,16.982 12.943 C 17.314 12.611,17.417 12.476,17.570 12.178 C 18.275 10.803,18.087 9.238,17.088 8.156 C 16.622 7.653,16.008 7.281,15.371 7.117 C 14.967 7.014,14.311 6.986,13.913 7.057 " stroke="none" fill="black" fill-rule="evenodd"></path></svg>