<svg xmlns="http://www.w3.org/2000/svg" width="24" height="24" viewBox="0 0 24 24" fill="none" stroke="currentColor" stroke-width="2" stroke-linecap="round" stroke-linejoin="round" class="icon icon-tabler icons-tabler-outline icon-tabler-wash-dry-a"><path d="M11.080 2.045 C 9.507 2.184,7.883 2.751,6.540 3.630 C 5.905 4.045,5.499 4.378,4.919 4.958 C 2.953 6.926,1.919 9.544,2.013 12.320 C 2.084 14.439,2.752 16.328,4.033 18.040 C 4.430 18.570,5.305 19.464,5.800 19.847 C 7.242 20.961,8.787 21.624,10.600 21.907 C 11.247 22.008,12.753 22.008,13.400 21.907 C 15.638 21.557,17.504 20.620,19.062 19.062 C 20.620 17.504,21.557 15.638,21.907 13.400 C 22.008 12.753,22.008 11.247,21.907 10.600 C 21.624 8.786,20.959 7.238,19.847 5.800 C 19.510 5.365,18.639 4.494,18.200 4.154 C 16.133 2.555,13.646 1.818,11.080 2.045 M12.734 4.041 C 14.574 4.216,16.228 4.976,17.554 6.256 C 20.043 8.658,20.702 12.394,19.183 15.499 C 18.749 16.387,18.223 17.105,17.496 17.801 C 16.876 18.394,16.262 18.819,15.471 19.200 C 13.267 20.265,10.733 20.265,8.529 19.200 C 7.477 18.693,6.612 18.015,5.847 17.100 C 3.848 14.711,3.440 11.302,4.816 8.500 C 6.162 5.760,8.867 4.049,11.920 4.005 C 12.129 4.003,12.495 4.019,12.734 4.041 M11.419 7.058 C 11.012 7.121,10.742 7.209,10.342 7.408 C 9.924 7.617,9.727 7.756,9.367 8.097 C 8.658 8.767,8.199 9.638,8.041 10.613 C 7.987 10.946,7.987 16.170,8.041 16.365 C 8.148 16.750,8.437 16.962,8.896 16.991 C 9.381 17.022,9.699 16.882,9.880 16.558 C 9.979 16.381,9.980 16.374,9.993 15.190 L 10.005 14.000 12.003 14.000 L 14.000 14.000 14.000 15.110 C 14.000 15.730,14.018 16.284,14.041 16.365 C 14.148 16.750,14.437 16.962,14.896 16.991 C 15.381 17.022,15.699 16.882,15.880 16.558 L 15.980 16.380 15.993 13.660 C 16.002 11.718,15.992 10.854,15.958 10.640 C 15.801 9.634,15.356 8.780,14.633 8.097 C 14.006 7.503,13.361 7.180,12.560 7.058 C 12.112 6.990,11.855 6.990,11.419 7.058 M12.609 9.119 C 13.235 9.355,13.797 10.027,13.942 10.715 C 13.974 10.862,13.999 11.207,13.999 11.490 L 14.000 12.000 12.000 12.000 L 10.000 12.000 10.001 11.490 C 10.001 11.207,10.026 10.862,10.058 10.715 C 10.189 10.093,10.667 9.471,11.240 9.177 C 11.616 8.985,12.188 8.960,12.609 9.119 " stroke="none" fill="black" fill-rule="evenodd"></path></svg>