<svg xmlns="http://www.w3.org/2000/svg" width="24" height="24" viewBox="0 0 24 24" fill="none" stroke="currentColor" stroke-width="2" stroke-linecap="round" stroke-linejoin="round" class="icon icon-tabler icons-tabler-outline icon-tabler-meat-off"><path d="M2.626 2.045 C 2.420 2.154,2.146 2.433,2.038 2.644 C 1.924 2.868,1.924 3.132,2.040 3.363 C 2.101 3.485,2.798 4.211,4.304 5.721 L 6.481 7.902 6.170 8.055 C 4.963 8.647,3.916 9.389,2.664 10.537 C 1.878 11.258,1.596 11.933,1.653 12.957 C 1.759 14.869,3.153 17.306,5.385 19.482 C 8.008 22.037,10.918 23.313,12.735 22.703 C 13.202 22.546,13.499 22.336,13.967 21.829 C 15.103 20.601,15.750 19.696,16.349 18.500 C 16.470 18.258,16.577 18.052,16.586 18.042 C 16.595 18.032,17.470 18.890,18.531 19.948 C 19.856 21.269,20.516 21.899,20.637 21.960 C 20.989 22.137,21.354 22.048,21.701 21.701 C 22.048 21.354,22.137 20.989,21.960 20.637 C 21.862 20.442,21.247 19.822,10.352 8.932 C 6.671 5.254,3.615 2.210,3.560 2.168 C 3.264 1.942,2.910 1.895,2.626 2.045 M16.503 2.040 C 15.120 2.290,14.080 3.450,14.010 4.820 C 13.988 5.255,14.057 5.713,14.202 6.096 L 14.280 6.300 13.828 6.752 L 13.376 7.204 13.078 7.124 C 12.267 6.906,11.664 6.862,11.377 7.001 C 11.082 7.144,10.915 7.482,10.909 7.952 C 10.905 8.302,11.014 8.556,11.226 8.693 C 11.413 8.813,11.551 8.856,12.020 8.940 C 12.553 9.036,12.773 9.107,13.260 9.340 C 14.549 9.957,15.315 11.026,15.583 12.580 C 15.667 13.069,15.788 13.325,16.004 13.467 C 16.159 13.570,16.206 13.580,16.537 13.580 C 17.379 13.580,17.702 13.173,17.562 12.290 C 17.464 11.675,17.294 11.066,17.088 10.595 L 17.008 10.411 17.357 10.063 L 17.706 9.716 17.907 9.795 C 19.351 10.364,21.025 9.706,21.700 8.304 C 22.254 7.151,22.015 5.766,21.108 4.872 C 20.858 4.625,20.409 4.328,20.120 4.217 C 19.886 4.127,19.887 4.128,19.761 3.829 C 19.409 2.994,18.630 2.322,17.760 2.103 C 17.447 2.024,16.776 1.990,16.503 2.040 M17.303 4.059 C 17.729 4.186,17.952 4.505,18.002 5.060 C 18.061 5.704,18.296 5.939,18.941 5.998 C 19.332 6.034,19.589 6.145,19.761 6.354 C 19.891 6.510,20.000 6.815,20.000 7.020 C 20.000 7.396,19.701 7.811,19.340 7.934 C 18.956 8.065,18.623 7.989,18.275 7.692 C 17.881 7.355,17.584 7.284,17.243 7.447 C 17.127 7.502,16.837 7.754,16.451 8.134 L 15.842 8.733 15.651 8.556 C 15.546 8.458,15.408 8.338,15.344 8.289 L 15.227 8.198 15.853 7.565 C 16.262 7.151,16.507 6.870,16.559 6.755 C 16.714 6.412,16.642 6.114,16.305 5.721 C 16.114 5.498,16.000 5.220,16.000 4.980 C 16.000 4.599,16.309 4.175,16.667 4.065 C 16.917 3.988,17.061 3.987,17.303 4.059 M11.546 12.966 L 15.072 16.492 14.942 16.796 C 14.771 17.194,14.405 17.921,14.226 18.219 C 14.107 18.415,14.079 18.442,14.057 18.378 C 13.692 17.323,12.881 15.963,11.959 14.860 C 10.292 12.867,8.293 11.318,6.412 10.561 L 6.044 10.413 6.432 10.190 C 6.645 10.068,6.919 9.918,7.040 9.858 C 7.257 9.749,7.961 9.443,8.000 9.441 C 8.011 9.441,9.607 11.027,11.546 12.966 M4.625 12.123 C 5.069 12.185,5.502 12.330,6.110 12.621 C 7.303 13.192,8.273 13.907,9.441 15.078 C 10.613 16.251,11.413 17.350,11.945 18.516 C 12.410 19.535,12.537 20.472,12.245 20.735 C 12.050 20.912,11.430 20.886,10.764 20.673 C 9.745 20.347,8.602 19.659,7.500 18.710 C 6.924 18.213,5.951 17.213,5.506 16.660 C 4.336 15.205,3.569 13.538,3.652 12.628 C 3.679 12.324,3.771 12.195,4.004 12.133 C 4.233 12.072,4.257 12.072,4.625 12.123 M7.171 15.019 C 6.968 15.108,6.637 15.440,6.535 15.660 C 6.316 16.126,6.420 16.331,7.326 17.228 C 7.773 17.671,8.077 17.940,8.177 17.982 C 8.373 18.063,8.623 18.065,8.812 17.986 C 9.027 17.896,9.358 17.569,9.465 17.340 C 9.684 16.874,9.580 16.669,8.674 15.772 C 8.249 15.351,7.921 15.060,7.831 15.022 C 7.648 14.946,7.343 14.944,7.171 15.019 " stroke="none" fill="black" fill-rule="evenodd"></path></svg>