<svg xmlns="http://www.w3.org/2000/svg" width="24" height="24" viewBox="0 0 24 24" fill="none" stroke="currentColor" stroke-width="2" stroke-linecap="round" stroke-linejoin="round" class="icon icon-tabler icons-tabler-outline icon-tabler-mail-share"><path d="M4.499 4.043 C 3.424 4.225,2.474 5.039,2.145 6.060 C 1.982 6.569,1.979 6.672,2.000 12.240 L 2.021 17.580 2.114 17.860 C 2.441 18.838,3.160 19.557,4.140 19.886 L 4.420 19.980 8.811 19.991 C 11.726 19.999,13.254 19.989,13.355 19.961 C 13.584 19.900,13.768 19.758,13.880 19.558 C 13.967 19.402,13.980 19.332,13.979 19.000 C 13.977 18.469,13.852 18.247,13.455 18.071 C 13.365 18.031,12.399 18.016,9.020 18.000 L 4.700 17.980 4.516 17.872 C 4.415 17.813,4.283 17.700,4.224 17.621 C 3.990 17.314,3.999 17.508,4.010 13.010 L 4.020 8.880 7.778 11.385 C 9.845 12.763,11.595 13.915,11.667 13.945 C 11.834 14.015,12.166 14.015,12.333 13.945 C 12.405 13.915,14.155 12.763,16.222 11.385 L 19.980 8.880 20.000 11.130 L 20.020 13.380 20.120 13.558 C 20.287 13.856,20.572 14.000,21.000 14.000 C 21.428 14.000,21.713 13.856,21.880 13.558 L 21.980 13.380 22.000 10.140 C 22.021 6.773,22.014 6.553,21.855 6.060 C 21.569 5.172,20.789 4.415,19.861 4.121 L 19.540 4.020 12.120 4.014 C 8.039 4.011,4.609 4.024,4.499 4.043 M19.310 6.061 C 19.453 6.103,19.571 6.178,19.698 6.304 C 19.798 6.404,19.880 6.500,19.880 6.517 C 19.880 6.533,18.107 7.729,15.940 9.173 L 12.000 11.800 8.060 9.173 C 5.893 7.729,4.120 6.533,4.120 6.517 C 4.120 6.429,4.502 6.116,4.673 6.063 C 4.964 5.974,19.009 5.971,19.310 6.061 M18.460 15.999 C 15.916 16.022,15.992 16.015,15.752 16.267 C 15.584 16.443,15.513 16.658,15.512 16.997 C 15.510 17.348,15.582 17.556,15.771 17.751 C 15.988 17.976,16.151 18.000,17.436 18.000 L 18.578 18.000 16.853 19.730 C 15.679 20.908,15.100 21.517,15.040 21.637 C 14.863 21.989,14.952 22.354,15.299 22.701 C 15.646 23.048,16.011 23.137,16.363 22.960 C 16.483 22.900,17.092 22.321,18.270 21.147 L 20.000 19.422 20.000 20.564 C 20.000 21.849,20.024 22.012,20.249 22.229 C 20.442 22.416,20.647 22.487,20.997 22.488 C 21.336 22.490,21.552 22.419,21.735 22.248 C 21.985 22.013,21.977 22.088,22.007 19.460 C 22.022 18.140,22.036 17.001,22.037 16.929 C 22.041 16.740,21.834 16.310,21.690 16.207 C 21.467 16.048,21.205 15.959,20.987 15.969 C 20.873 15.974,19.736 15.987,18.460 15.999 " stroke="none" fill="black" fill-rule="evenodd"></path></svg>