<svg xmlns="http://www.w3.org/2000/svg" width="24" height="24" viewBox="0 0 24 24" fill="none" stroke="currentColor" stroke-width="2" stroke-linecap="round" stroke-linejoin="round" class="icon icon-tabler icons-tabler-outline icon-tabler-menorah"><path d="M3.614 3.057 C 3.377 3.131,3.212 3.261,3.109 3.453 C 3.023 3.615,3.020 3.662,3.007 5.000 C 3.000 5.831,3.012 6.563,3.040 6.840 C 3.349 9.981,5.239 12.708,8.060 14.082 C 8.906 14.494,9.785 14.772,10.620 14.893 L 10.980 14.944 10.990 16.972 L 11.001 19.000 10.407 19.000 C 9.577 19.000,9.300 19.097,9.109 19.453 C 9.035 19.592,9.020 19.684,9.020 20.000 C 9.020 20.331,9.033 20.403,9.120 20.558 C 9.230 20.755,9.414 20.898,9.635 20.959 C 9.831 21.014,14.169 21.014,14.365 20.959 C 14.586 20.898,14.770 20.755,14.880 20.558 C 14.967 20.402,14.980 20.332,14.979 20.000 C 14.978 19.687,14.962 19.591,14.890 19.453 C 14.702 19.097,14.424 19.000,13.593 19.000 L 12.999 19.000 13.010 16.972 L 13.020 14.944 13.380 14.893 C 14.215 14.772,15.094 14.494,15.940 14.082 C 18.760 12.708,20.650 9.983,20.961 6.840 C 20.988 6.561,21.001 5.837,20.993 5.000 C 20.980 3.662,20.977 3.615,20.891 3.453 C 20.785 3.256,20.622 3.131,20.371 3.055 C 19.861 2.902,19.310 3.076,19.110 3.453 C 19.024 3.614,19.020 3.674,18.994 5.180 C 18.961 7.076,18.914 7.431,18.573 8.380 C 17.794 10.546,15.943 12.225,13.725 12.777 C 13.513 12.830,13.263 12.885,13.170 12.900 L 13.000 12.927 13.000 11.910 L 13.000 10.893 13.227 10.842 C 14.016 10.665,14.963 10.116,15.586 9.474 C 16.243 8.796,16.700 7.927,16.907 6.960 C 16.970 6.665,16.980 6.419,16.980 5.120 C 16.980 3.646,16.978 3.617,16.891 3.453 C 16.785 3.256,16.622 3.131,16.371 3.055 C 15.862 2.902,15.311 3.076,15.109 3.453 C 15.023 3.614,15.019 3.670,14.997 5.080 C 14.975 6.482,14.970 6.553,14.876 6.861 C 14.638 7.638,14.065 8.317,13.340 8.684 L 13.020 8.845 13.000 6.233 C 12.980 3.626,12.980 3.620,12.891 3.453 C 12.785 3.256,12.622 3.131,12.371 3.055 C 11.862 2.902,11.311 3.076,11.109 3.453 C 11.020 3.620,11.020 3.626,11.000 6.233 L 10.980 8.845 10.660 8.684 C 9.935 8.317,9.362 7.637,9.125 6.861 C 9.031 6.553,9.026 6.479,9.003 5.080 C 8.980 3.664,8.976 3.615,8.889 3.450 C 8.724 3.141,8.329 2.970,7.874 3.011 C 7.431 3.051,7.138 3.276,7.037 3.652 C 7.008 3.757,7.000 4.299,7.011 5.256 C 7.029 6.805,7.044 6.943,7.268 7.600 C 7.680 8.806,8.541 9.819,9.653 10.402 C 10.073 10.622,10.446 10.769,10.773 10.842 L 11.000 10.893 11.000 11.910 L 11.000 12.927 10.830 12.900 C 10.737 12.885,10.487 12.830,10.275 12.777 C 8.056 12.224,6.206 10.547,5.427 8.380 C 5.086 7.433,5.039 7.077,5.006 5.180 C 4.979 3.678,4.975 3.614,4.890 3.453 C 4.841 3.362,4.746 3.247,4.678 3.199 C 4.414 3.010,3.957 2.950,3.614 3.057 " stroke="none" fill="black" fill-rule="evenodd"></path></svg>