<svg xmlns="http://www.w3.org/2000/svg" width="24" height="24" viewBox="0 0 24 24" fill="none" stroke="currentColor" stroke-width="2" stroke-linecap="round" stroke-linejoin="round" class="icon icon-tabler icons-tabler-outline icon-tabler-zodiac-pisces"><path d="M4.733 2.037 C 4.113 2.260,3.849 2.689,4.017 3.201 C 4.053 3.313,4.192 3.651,4.326 3.952 C 5.055 5.600,5.584 7.443,5.821 9.160 C 5.874 9.548,5.998 10.788,6.000 10.950 C 6.000 10.988,5.855 11.000,5.406 11.000 C 4.577 11.000,4.300 11.097,4.109 11.453 C 4.035 11.592,4.020 11.684,4.020 12.000 C 4.020 12.331,4.033 12.403,4.120 12.558 C 4.230 12.755,4.414 12.898,4.635 12.959 C 4.715 12.981,5.054 13.000,5.390 13.000 C 5.851 13.000,6.000 13.012,6.000 13.050 C 5.998 13.212,5.874 14.452,5.821 14.840 C 5.585 16.554,5.055 18.401,4.329 20.040 C 3.926 20.951,3.892 21.114,4.043 21.427 C 4.252 21.858,4.948 22.147,5.379 21.982 C 5.653 21.878,5.797 21.673,6.133 20.908 C 7.171 18.546,7.773 16.158,7.963 13.650 L 8.013 13.000 12.000 13.000 L 15.987 13.000 16.037 13.650 C 16.231 16.189,16.818 18.515,17.868 20.908 C 18.203 21.673,18.347 21.878,18.621 21.982 C 19.052 22.147,19.748 21.858,19.957 21.427 C 20.108 21.114,20.074 20.951,19.671 20.040 C 18.945 18.401,18.415 16.554,18.179 14.840 C 18.126 14.452,18.002 13.212,18.000 13.050 C 18.000 13.012,18.149 13.000,18.610 13.000 C 18.945 13.000,19.285 12.981,19.365 12.959 C 19.586 12.898,19.770 12.755,19.880 12.558 C 19.967 12.402,19.980 12.332,19.979 12.000 C 19.978 11.687,19.962 11.591,19.890 11.453 C 19.702 11.097,19.424 11.000,18.594 11.000 C 18.145 11.000,18.000 10.988,18.000 10.950 C 18.002 10.788,18.126 9.548,18.179 9.160 C 18.416 7.443,18.945 5.600,19.674 3.952 C 20.082 3.032,20.118 2.820,19.922 2.503 C 19.757 2.237,19.233 1.960,18.894 1.960 C 18.694 1.960,18.426 2.096,18.283 2.269 C 18.149 2.432,17.666 3.513,17.349 4.360 C 16.639 6.257,16.195 8.284,16.037 10.350 L 15.987 11.000 12.000 11.000 L 8.013 11.000 7.963 10.350 C 7.772 7.834,7.178 5.477,6.134 3.095 C 5.805 2.345,5.687 2.169,5.427 2.044 C 5.216 1.941,5.005 1.939,4.733 2.037 " stroke="none" fill="black" fill-rule="evenodd"></path></svg>