<svg xmlns="http://www.w3.org/2000/svg" width="24" height="24" viewBox="0 0 24 24" fill="none" stroke="currentColor" stroke-width="2" stroke-linecap="round" stroke-linejoin="round" class="icon icon-tabler icons-tabler-outline icon-tabler-clock-shield"><path d="M11.060 2.043 C 8.697 2.287,6.628 3.262,4.957 4.920 C 3.410 6.454,2.503 8.235,2.113 10.501 C 1.994 11.194,1.982 12.742,2.090 13.409 C 2.330 14.894,2.850 16.267,3.632 17.479 C 4.934 19.501,7.185 21.107,9.540 21.694 C 10.623 21.965,11.960 22.079,12.424 21.941 C 12.810 21.827,13.006 21.508,13.006 20.997 C 13.006 20.291,12.672 20.000,11.861 20.000 C 10.803 20.000,9.622 19.720,8.580 19.222 C 7.722 18.812,7.103 18.381,6.425 17.723 C 5.717 17.035,5.250 16.388,4.819 15.500 C 3.946 13.702,3.772 11.725,4.317 9.795 C 4.918 7.666,6.431 5.843,8.420 4.850 C 10.313 3.905,12.508 3.745,14.500 4.407 C 16.603 5.106,18.279 6.595,19.243 8.621 C 19.739 9.663,19.909 10.435,20.014 12.127 C 20.051 12.735,20.435 13.038,21.105 12.988 C 21.521 12.957,21.741 12.832,21.890 12.540 C 22.090 12.149,22.000 10.767,21.694 9.540 C 21.350 8.159,20.584 6.675,19.630 5.540 C 18.086 3.705,15.870 2.473,13.440 2.100 C 12.939 2.023,11.571 1.990,11.060 2.043 M11.614 6.057 C 11.377 6.131,11.212 6.261,11.109 6.453 L 11.020 6.620 11.020 9.460 L 11.020 12.300 11.126 12.480 C 11.272 12.727,12.416 13.847,12.637 13.959 C 12.988 14.137,13.353 14.049,13.701 13.701 C 14.048 13.354,14.137 12.988,13.960 12.639 C 13.910 12.543,13.675 12.264,13.436 12.020 L 13.003 11.576 12.991 9.098 C 12.980 6.623,12.980 6.620,12.891 6.453 C 12.842 6.362,12.746 6.247,12.678 6.199 C 12.414 6.010,11.957 5.950,11.614 6.057 M18.260 13.487 C 18.100 13.546,17.945 13.655,17.684 13.890 C 16.977 14.528,16.049 14.919,15.054 14.999 C 14.235 15.064,14.001 15.320,14.000 16.148 C 13.999 17.481,14.372 18.997,14.983 20.155 C 15.723 21.554,16.905 22.645,17.979 22.920 C 18.544 23.064,18.993 22.999,19.614 22.683 C 20.976 21.990,22.103 20.464,22.645 18.580 C 22.983 17.407,23.101 15.873,22.886 15.453 C 22.741 15.168,22.404 15.000,21.977 15.000 C 21.525 15.000,20.807 14.803,20.260 14.529 C 19.898 14.348,19.606 14.148,19.268 13.848 C 19.119 13.716,18.931 13.576,18.850 13.538 C 18.665 13.450,18.416 13.429,18.260 13.487 M18.975 16.102 C 19.484 16.402,20.120 16.668,20.687 16.819 L 20.953 16.890 20.933 17.035 C 20.782 18.088,20.471 18.939,19.954 19.712 C 19.674 20.131,19.087 20.706,18.767 20.874 C 18.535 20.997,18.504 21.003,18.387 20.957 C 18.009 20.807,17.412 20.251,17.043 19.704 C 16.533 18.948,16.218 18.088,16.067 17.034 L 16.046 16.887 16.365 16.801 C 16.987 16.633,17.774 16.285,18.260 15.964 C 18.477 15.820,18.508 15.810,18.580 15.861 C 18.624 15.892,18.802 16.001,18.975 16.102 " stroke="none" fill="black" fill-rule="evenodd"></path></svg>