<svg xmlns="http://www.w3.org/2000/svg" width="24" height="24" viewBox="0 0 24 24" fill="none" stroke="currentColor" stroke-width="2" stroke-linecap="round" stroke-linejoin="round" class="icon icon-tabler icons-tabler-outline icon-tabler-http-head"><path d="M2.614 7.057 C 2.377 7.131,2.212 7.261,2.109 7.453 L 2.020 7.620 2.009 11.913 C 2.002 14.727,2.013 16.258,2.039 16.357 C 2.144 16.747,2.434 16.961,2.896 16.991 C 3.381 17.022,3.699 16.882,3.880 16.558 L 3.980 16.380 3.992 14.690 L 4.004 13.000 5.002 13.000 L 6.000 13.000 6.000 14.610 C 6.000 15.565,6.017 16.279,6.041 16.365 C 6.148 16.750,6.437 16.962,6.896 16.991 C 7.381 17.022,7.699 16.882,7.880 16.558 L 7.980 16.380 7.980 12.000 L 7.980 7.620 7.889 7.450 C 7.724 7.140,7.329 6.970,6.874 7.011 C 6.439 7.051,6.141 7.274,6.041 7.635 C 6.017 7.721,6.000 8.435,6.000 9.390 L 6.000 11.000 5.002 11.000 L 4.004 11.000 3.992 9.310 C 3.980 7.651,3.978 7.617,3.891 7.453 C 3.842 7.362,3.746 7.247,3.678 7.199 C 3.414 7.010,2.957 6.950,2.614 7.057 M9.614 7.057 C 9.377 7.131,9.212 7.261,9.109 7.453 L 9.020 7.620 9.009 11.913 C 9.002 14.727,9.013 16.258,9.039 16.357 C 9.100 16.584,9.242 16.768,9.442 16.880 L 9.620 16.980 11.911 16.991 C 13.392 16.999,14.256 16.988,14.355 16.961 C 14.583 16.900,14.768 16.758,14.880 16.558 C 14.967 16.402,14.980 16.332,14.979 16.000 C 14.978 15.567,14.898 15.355,14.678 15.199 C 14.416 15.012,14.290 15.000,12.594 15.000 L 11.000 15.000 11.000 14.000 L 11.000 13.000 11.853 13.000 C 12.825 13.000,13.023 12.964,13.229 12.751 C 13.418 12.556,13.486 12.355,13.486 11.997 C 13.486 11.491,13.303 11.196,12.909 11.064 C 12.757 11.013,12.539 11.000,11.859 11.000 L 11.000 11.000 11.000 10.000 L 11.000 9.000 12.610 9.000 C 13.565 9.000,14.279 8.983,14.365 8.959 C 14.586 8.898,14.770 8.755,14.880 8.558 C 14.967 8.402,14.980 8.332,14.979 8.000 C 14.978 7.567,14.898 7.355,14.678 7.199 C 14.406 7.005,14.336 7.000,11.984 7.003 C 10.293 7.005,9.741 7.017,9.614 7.057 M18.499 7.040 C 17.374 7.244,16.487 8.025,16.114 9.140 L 16.021 9.420 16.009 12.810 C 16.001 15.058,16.011 16.252,16.038 16.354 C 16.144 16.747,16.433 16.961,16.896 16.991 C 17.381 17.022,17.699 16.882,17.880 16.558 C 17.979 16.381,17.980 16.374,17.993 15.190 L 18.005 14.000 19.003 14.000 L 20.000 14.000 20.000 15.110 C 20.000 15.730,20.018 16.284,20.041 16.365 C 20.148 16.750,20.437 16.962,20.896 16.991 C 21.381 17.022,21.699 16.882,21.880 16.558 L 21.980 16.380 21.980 12.920 L 21.980 9.460 21.886 9.160 C 21.580 8.178,20.810 7.407,19.861 7.129 C 19.500 7.023,18.832 6.980,18.499 7.040 M19.310 9.061 C 19.452 9.103,19.571 9.178,19.697 9.303 C 19.978 9.584,20.000 9.703,20.000 10.947 L 20.000 12.000 19.000 12.000 L 18.000 12.000 18.000 10.947 C 18.000 9.702,18.022 9.585,18.304 9.303 C 18.583 9.024,18.916 8.944,19.310 9.061 " stroke="none" fill="black" fill-rule="evenodd"></path></svg>