<svg xmlns="http://www.w3.org/2000/svg" width="24" height="24" viewBox="0 0 24 24" fill="none" stroke="currentColor" stroke-width="2" stroke-linecap="round" stroke-linejoin="round" class="icon icon-tabler icons-tabler-outline icon-tabler-wash-dry-hang"><path d="M5.358 2.061 C 3.731 2.315,2.417 3.584,2.083 5.227 C 2.001 5.627,2.000 5.723,2.000 12.000 C 2.000 18.277,2.001 18.373,2.083 18.773 C 2.311 19.892,2.985 20.851,3.956 21.436 C 4.285 21.635,4.810 21.832,5.243 21.921 C 5.622 21.998,5.805 22.000,12.000 22.000 C 18.195 22.000,18.378 21.998,18.757 21.921 C 20.117 21.643,21.193 20.755,21.704 19.488 C 21.779 19.300,21.877 18.972,21.921 18.757 C 21.998 18.378,22.000 18.195,22.000 12.000 C 22.000 5.805,21.998 5.622,21.921 5.243 C 21.628 3.806,20.637 2.680,19.245 2.204 C 18.646 1.999,18.690 2.000,11.960 2.004 C 6.959 2.007,5.631 2.018,5.358 2.061 M18.375 4.035 C 18.488 4.060,18.486 4.063,18.159 4.340 C 15.766 6.367,13.395 7.240,11.103 6.940 C 9.381 6.714,7.614 5.845,5.862 4.363 C 5.504 4.061,5.504 4.060,5.622 4.035 C 5.776 4.002,18.224 4.002,18.375 4.035 M5.100 6.325 C 6.527 7.449,8.057 8.253,9.539 8.659 C 10.454 8.910,10.951 8.975,11.960 8.976 C 12.975 8.978,13.394 8.928,14.301 8.698 C 16.047 8.254,17.776 7.295,19.518 5.804 C 19.781 5.579,19.909 5.493,19.938 5.522 C 19.998 5.582,20.019 18.003,19.960 18.360 C 19.896 18.747,19.710 19.096,19.403 19.404 C 19.118 19.690,18.853 19.846,18.492 19.940 C 18.147 20.030,5.853 20.030,5.508 19.940 C 4.801 19.756,4.213 19.156,4.060 18.463 C 4.005 18.212,3.999 17.464,4.009 11.880 C 4.015 8.415,4.035 5.557,4.053 5.529 C 4.077 5.492,4.187 5.565,4.453 5.792 C 4.655 5.964,4.946 6.204,5.100 6.325 " stroke="none" fill="black" fill-rule="evenodd"></path></svg>