<svg xmlns="http://www.w3.org/2000/svg" width="24" height="24" viewBox="0 0 24 24" fill="none" stroke="currentColor" stroke-width="2" stroke-linecap="round" stroke-linejoin="round" class="icon icon-tabler icons-tabler-outline icon-tabler-number-16-small"><path d="M8.620 7.046 C 8.390 7.165,6.153 9.411,6.040 9.637 C 5.863 9.990,5.952 10.354,6.299 10.701 C 6.641 11.043,7.013 11.137,7.349 10.965 C 7.440 10.919,7.623 10.780,7.757 10.656 L 8.000 10.431 8.000 13.326 C 8.000 15.141,8.015 16.274,8.041 16.365 C 8.148 16.750,8.437 16.962,8.896 16.991 C 9.381 17.022,9.699 16.882,9.880 16.558 L 9.980 16.380 9.980 12.040 L 9.980 7.700 9.871 7.514 C 9.758 7.323,9.558 7.141,9.332 7.025 C 9.153 6.934,8.818 6.944,8.620 7.046 M13.477 7.073 C 12.806 7.249,12.238 7.823,12.060 8.508 C 12.009 8.702,12.000 9.237,12.000 12.000 C 12.000 15.547,11.996 15.478,12.225 15.930 C 12.361 16.199,12.801 16.639,13.070 16.775 C 13.479 16.982,13.632 17.000,15.000 17.000 C 16.368 17.000,16.521 16.982,16.930 16.775 C 17.196 16.640,17.638 16.200,17.771 15.937 C 17.979 15.527,18.000 15.352,17.999 14.014 C 17.999 12.682,17.974 12.463,17.781 12.083 C 17.646 11.816,17.297 11.449,17.017 11.281 C 16.609 11.035,16.405 11.005,15.130 11.002 L 14.000 11.000 14.000 10.000 L 14.000 9.000 14.994 9.000 L 15.989 9.000 16.013 9.203 C 16.074 9.715,16.426 10.000,17.000 10.000 C 17.618 10.000,17.944 9.706,17.987 9.110 C 18.027 8.565,17.848 8.065,17.465 7.653 C 17.198 7.366,16.870 7.164,16.523 7.073 C 16.134 6.972,13.866 6.972,13.477 7.073 M16.000 14.000 L 16.000 15.000 15.000 15.000 L 14.000 15.000 14.000 14.000 L 14.000 13.000 15.000 13.000 L 16.000 13.000 16.000 14.000 " stroke="none" fill="black" fill-rule="evenodd"></path></svg>