<svg xmlns="http://www.w3.org/2000/svg" width="24" height="24" viewBox="0 0 24 24" fill="none" stroke="currentColor" stroke-width="2" stroke-linecap="round" stroke-linejoin="round" class="icon icon-tabler icons-tabler-outline icon-tabler-currency-dollar-off"><path d="M2.626 2.045 C 2.420 2.154,2.146 2.433,2.038 2.644 C 1.924 2.868,1.924 3.132,2.040 3.363 C 2.101 3.485,2.767 4.180,4.188 5.605 C 5.965 7.386,6.243 7.680,6.209 7.745 C 6.132 7.893,6.034 8.427,6.011 8.828 C 5.950 9.915,6.391 11.041,7.187 11.828 C 7.657 12.292,8.188 12.612,8.822 12.812 C 9.299 12.963,9.668 13.000,10.673 13.000 L 11.580 13.000 13.380 14.802 C 15.110 16.534,15.177 16.606,15.100 16.666 C 14.979 16.761,14.722 16.870,14.459 16.939 C 14.261 16.990,13.878 17.000,12.074 17.000 C 10.663 17.000,9.851 16.985,9.712 16.956 C 9.371 16.885,9.005 16.684,8.737 16.420 C 8.540 16.227,8.448 16.089,8.264 15.710 C 8.012 15.193,7.897 15.071,7.601 15.005 C 7.166 14.907,6.516 15.184,6.357 15.535 C 6.259 15.751,6.260 16.025,6.362 16.327 C 6.778 17.561,7.840 18.536,9.148 18.885 C 9.393 18.950,9.627 18.972,10.230 18.989 L 11.000 19.009 11.000 20.115 C 11.000 20.732,11.018 21.284,11.041 21.365 C 11.148 21.750,11.437 21.962,11.896 21.991 C 12.381 22.022,12.699 21.882,12.880 21.558 C 12.979 21.381,12.980 21.374,12.993 20.190 L 13.005 19.000 13.657 19.000 C 14.371 19.000,14.807 18.942,15.268 18.784 C 15.635 18.659,16.119 18.407,16.396 18.197 L 16.611 18.033 18.536 19.952 C 19.857 21.270,20.516 21.899,20.637 21.960 C 20.989 22.137,21.354 22.048,21.701 21.701 C 22.116 21.286,22.159 20.868,21.832 20.440 C 21.773 20.362,18.461 17.028,12.747 11.293 C 11.198 9.737,3.631 2.222,3.560 2.168 C 3.264 1.942,2.910 1.895,2.626 2.045 M11.614 2.057 C 11.377 2.131,11.212 2.261,11.109 2.453 C 11.024 2.613,11.020 2.668,11.008 3.810 L 10.996 5.000 10.404 5.000 C 9.773 5.000,9.541 5.042,9.322 5.199 C 9.139 5.329,9.030 5.573,9.009 5.900 C 8.978 6.381,9.119 6.699,9.442 6.880 L 9.620 6.980 11.960 7.000 L 14.300 7.021 14.540 7.116 C 14.853 7.241,15.194 7.474,15.378 7.689 C 15.459 7.783,15.625 8.064,15.747 8.313 C 15.990 8.811,16.146 8.970,16.440 9.020 C 16.801 9.081,17.377 8.850,17.580 8.562 C 17.688 8.409,17.700 8.363,17.699 8.086 C 17.698 7.822,17.678 7.734,17.552 7.447 C 17.136 6.497,16.500 5.836,15.580 5.395 C 14.946 5.091,14.492 5.002,13.573 5.001 L 13.005 5.000 12.993 3.810 C 12.981 2.669,12.976 2.613,12.891 2.453 C 12.842 2.362,12.746 2.247,12.678 2.199 C 12.414 2.010,11.957 1.950,11.614 2.057 M9.465 10.909 C 9.437 10.936,9.091 10.790,8.912 10.675 C 8.556 10.446,8.220 10.001,8.102 9.600 C 8.082 9.535,8.318 9.744,8.775 10.198 C 9.161 10.582,9.472 10.902,9.465 10.909 " stroke="none" fill="black" fill-rule="evenodd"></path></svg>