<svg xmlns="http://www.w3.org/2000/svg" width="24" height="24" viewBox="0 0 24 24" fill="none" stroke="currentColor" stroke-width="2" stroke-linecap="round" stroke-linejoin="round" class="icon icon-tabler icons-tabler-outline icon-tabler-world-code"><path d="M11.167 2.005 C 11.124 2.021,10.885 2.064,10.635 2.100 C 8.773 2.370,7.214 3.039,5.780 4.181 C 3.773 5.779,2.527 7.942,2.094 10.580 C 2.004 11.128,1.991 12.796,2.072 13.300 C 2.380 15.200,3.043 16.777,4.111 18.151 C 4.656 18.852,5.452 19.605,6.260 20.184 C 7.432 21.023,8.923 21.632,10.360 21.858 C 10.591 21.895,10.870 21.943,10.980 21.966 C 11.403 22.054,11.551 22.052,11.825 21.955 C 12.033 21.882,12.128 21.819,12.278 21.655 C 12.670 21.225,12.639 20.854,12.147 20.121 C 11.826 19.642,11.200 18.325,10.900 17.498 C 10.744 17.068,10.440 16.095,10.440 16.026 C 10.440 16.012,11.175 16.000,12.073 16.000 C 13.893 16.000,14.000 15.988,14.229 15.751 C 14.299 15.679,14.385 15.550,14.421 15.464 C 14.507 15.258,14.508 14.745,14.423 14.541 C 14.341 14.345,14.340 14.348,14.483 14.422 C 14.795 14.583,15.367 14.568,15.625 14.391 C 15.815 14.261,15.954 13.980,16.001 13.633 C 16.071 13.111,16.094 11.661,16.044 10.880 C 16.018 10.473,15.987 10.109,15.975 10.070 C 15.956 10.004,16.064 10.000,17.853 10.000 L 19.752 10.000 19.815 10.290 C 19.969 10.997,20.010 11.723,19.962 12.900 C 19.946 13.284,19.954 13.363,20.027 13.524 C 20.169 13.839,20.502 14.006,21.000 14.014 C 21.250 14.018,21.330 14.002,21.478 13.919 C 21.807 13.737,21.899 13.522,21.966 12.780 C 22.075 11.578,21.915 10.165,21.536 8.992 C 20.185 4.813,16.404 2.032,12.012 1.985 C 11.589 1.981,11.209 1.990,11.167 2.005 M12.291 4.670 C 12.826 5.710,13.325 7.002,13.535 7.890 L 13.562 8.000 12.001 8.000 C 11.142 8.000,10.440 7.987,10.440 7.970 C 10.440 7.909,10.759 6.887,10.896 6.508 C 11.169 5.754,11.918 4.160,12.000 4.160 C 12.016 4.160,12.147 4.389,12.291 4.670 M9.357 4.964 C 9.060 5.666,8.687 6.760,8.507 7.460 L 8.373 7.980 6.722 7.990 L 5.072 8.001 5.183 7.810 C 5.704 6.921,6.684 5.920,7.653 5.287 C 8.044 5.032,8.730 4.682,9.140 4.528 C 9.503 4.392,9.576 4.368,9.590 4.379 C 9.596 4.384,9.491 4.647,9.357 4.964 M15.347 4.741 C 16.737 5.388,17.876 6.370,18.688 7.620 L 18.922 7.980 17.293 7.990 C 16.398 7.996,15.653 7.987,15.638 7.970 C 15.623 7.954,15.570 7.769,15.520 7.560 C 15.380 6.972,14.917 5.602,14.645 4.969 C 14.510 4.656,14.400 4.391,14.400 4.380 C 14.400 4.348,14.966 4.563,15.347 4.741 M8.021 10.090 C 7.981 10.271,7.920 11.422,7.920 12.000 C 7.920 12.578,7.981 13.729,8.021 13.910 L 8.042 14.000 6.147 14.000 L 4.252 14.000 4.186 13.690 C 4.048 13.033,4.021 12.759,4.021 11.980 C 4.022 11.203,4.041 11.003,4.187 10.310 L 4.252 10.000 6.147 10.000 L 8.042 10.000 8.021 10.090 M13.974 10.210 C 14.065 10.972,14.091 11.936,14.045 12.807 C 13.996 13.715,14.012 13.968,14.127 14.108 C 14.151 14.137,14.075 14.124,13.944 14.078 C 13.736 14.005,13.605 14.000,11.886 14.000 L 10.050 14.000 10.027 13.810 C 9.938 13.082,9.907 11.960,9.954 11.190 C 9.982 10.745,10.014 10.295,10.027 10.190 L 10.050 10.000 12.000 10.000 L 13.949 10.000 13.974 10.210 M16.620 16.046 C 16.390 16.165,14.153 18.411,14.040 18.637 C 13.986 18.744,13.951 18.889,13.951 19.000 C 13.951 19.334,14.057 19.468,15.294 20.706 C 16.532 21.943,16.666 22.049,17.000 22.049 C 17.477 22.049,18.049 21.477,18.049 21.000 C 18.049 20.693,17.921 20.513,17.147 19.730 L 16.425 19.000 17.147 18.270 C 17.580 17.832,17.905 17.469,17.959 17.363 C 18.137 17.012,18.048 16.646,17.701 16.299 C 17.361 15.959,16.967 15.867,16.620 16.046 M19.626 16.045 C 19.257 16.239,18.951 16.673,18.951 17.000 C 18.951 17.307,19.079 17.487,19.853 18.270 L 20.575 19.000 19.853 19.730 C 19.420 20.168,19.095 20.531,19.041 20.637 C 18.863 20.988,18.952 21.354,19.299 21.701 C 19.646 22.048,20.010 22.137,20.363 21.960 C 20.607 21.838,22.838 19.607,22.960 19.363 C 23.076 19.132,23.076 18.868,22.960 18.637 C 22.842 18.400,20.608 16.162,20.372 16.044 C 20.152 15.934,19.835 15.935,19.626 16.045 M8.507 16.540 C 8.687 17.240,9.060 18.333,9.357 19.036 C 9.490 19.352,9.600 19.617,9.600 19.623 C 9.600 19.661,8.951 19.405,8.532 19.202 C 7.168 18.543,5.895 17.392,5.166 16.159 L 5.071 15.999 6.722 16.010 L 8.373 16.020 8.507 16.540 " stroke="none" fill="black" fill-rule="evenodd"></path></svg>