<svg xmlns="http://www.w3.org/2000/svg" width="24" height="24" viewBox="0 0 24 24" fill="none" stroke="currentColor" stroke-width="2" stroke-linecap="round" stroke-linejoin="round" class="icon icon-tabler icons-tabler-outline icon-tabler-arrow-merge-alt-left"><path d="M11.530 2.083 C 11.393 2.150,11.249 2.252,11.210 2.311 C 11.172 2.369,10.237 3.327,9.134 4.439 C 7.766 5.818,7.101 6.516,7.040 6.637 C 6.863 6.989,6.952 7.354,7.299 7.701 C 7.646 8.048,8.011 8.137,8.363 7.960 C 8.479 7.901,8.961 7.452,9.770 6.647 L 11.000 5.423 11.000 7.033 C 11.000 7.919,10.981 8.818,10.957 9.032 C 10.880 9.742,10.713 10.295,10.375 10.970 C 9.930 11.858,9.349 12.516,8.413 13.193 C 7.169 14.091,6.464 14.896,5.847 16.120 C 5.396 17.016,5.151 17.826,5.042 18.780 C 4.989 19.243,4.988 21.175,5.041 21.365 C 5.148 21.750,5.437 21.962,5.896 21.991 C 6.381 22.022,6.699 21.882,6.880 21.558 C 6.978 21.382,6.980 21.364,7.006 20.140 C 7.020 19.458,7.051 18.798,7.074 18.673 C 7.188 18.046,7.334 17.610,7.625 17.030 C 8.069 16.144,8.649 15.487,9.580 14.814 C 10.831 13.911,11.548 13.090,12.159 11.860 C 12.621 10.931,12.860 10.134,12.959 9.191 C 12.981 8.987,12.999 8.056,12.999 7.121 L 13.000 5.423 14.230 6.647 C 15.039 7.452,15.521 7.901,15.637 7.960 C 15.989 8.137,16.354 8.048,16.701 7.701 C 17.048 7.354,17.137 6.989,16.960 6.637 C 16.899 6.516,16.234 5.818,14.866 4.439 C 13.763 3.327,12.828 2.369,12.789 2.310 C 12.751 2.252,12.604 2.149,12.464 2.082 C 12.120 1.918,11.871 1.918,11.530 2.083 M13.640 12.075 C 13.469 12.131,13.304 12.228,13.214 12.326 C 13.092 12.459,13.000 12.764,13.000 13.031 C 13.001 13.659,13.300 13.993,13.896 14.031 C 14.578 14.074,14.941 13.781,14.988 13.150 C 15.040 12.444,14.730 12.077,14.062 12.054 C 13.885 12.047,13.695 12.057,13.640 12.075 M16.545 14.099 C 16.171 14.232,15.973 14.610,16.009 15.123 C 16.047 15.641,16.282 15.921,16.754 16.008 C 17.254 16.101,17.714 15.923,17.884 15.571 C 18.002 15.327,18.029 14.920,17.945 14.632 C 17.870 14.372,17.655 14.150,17.413 14.083 C 17.200 14.024,16.731 14.033,16.545 14.099 M17.760 17.040 C 17.497 17.087,17.388 17.138,17.247 17.279 C 16.920 17.606,16.921 18.432,17.249 18.749 C 17.442 18.936,17.647 19.007,17.997 19.008 C 18.348 19.010,18.556 18.938,18.751 18.749 C 19.087 18.424,19.080 17.598,18.738 17.265 C 18.539 17.073,18.118 16.976,17.760 17.040 M17.614 20.057 C 17.221 20.180,17.039 20.435,17.009 20.906 C 16.962 21.621,17.306 22.000,18.000 22.000 C 18.698 22.000,19.043 21.616,18.989 20.900 C 18.963 20.563,18.859 20.327,18.678 20.199 C 18.414 20.010,17.957 19.950,17.614 20.057 " stroke="none" fill="black" fill-rule="evenodd"></path></svg>