<svg xmlns="http://www.w3.org/2000/svg" width="24" height="24" viewBox="0 0 24 24" fill="none" stroke="currentColor" stroke-width="2" stroke-linecap="round" stroke-linejoin="round" class="icon icon-tabler icons-tabler-outline icon-tabler-brand-blogger"><path d="M7.380 2.043 C 4.783 2.299,2.694 4.202,2.113 6.840 L 2.020 7.260 2.020 12.000 L 2.020 16.740 2.113 17.160 C 2.650 19.599,4.401 21.350,6.840 21.887 L 7.260 21.980 12.000 21.980 L 16.740 21.980 17.160 21.887 C 18.411 21.612,19.414 21.066,20.269 20.195 C 21.101 19.348,21.615 18.389,21.884 17.180 C 21.968 16.801,21.974 16.670,21.989 14.720 C 22.005 12.763,22.002 12.640,21.923 12.256 C 21.830 11.801,21.640 11.299,21.421 10.932 C 20.961 10.161,20.142 9.511,19.245 9.204 C 19.001 9.120,18.337 9.001,18.115 9.000 L 18.010 9.000 17.988 8.110 C 17.971 7.413,17.948 7.133,17.881 6.820 C 17.626 5.631,17.104 4.655,16.269 3.805 C 15.258 2.775,14.009 2.180,12.564 2.039 C 12.105 1.995,7.837 1.997,7.380 2.043 M12.605 4.058 C 13.855 4.247,14.964 5.042,15.536 6.160 C 15.936 6.942,15.999 7.330,16.000 9.000 C 16.000 9.693,16.018 10.283,16.041 10.365 C 16.102 10.586,16.245 10.770,16.442 10.880 C 16.613 10.976,16.657 10.981,17.520 11.004 C 18.530 11.031,18.673 11.060,19.063 11.312 C 19.516 11.605,19.837 12.058,19.941 12.549 C 20.024 12.940,20.024 16.055,19.942 16.605 C 19.691 18.265,18.434 19.579,16.773 19.917 C 16.378 19.998,16.256 20.000,12.000 20.000 C 7.744 20.000,7.622 19.998,7.227 19.917 C 5.566 19.579,4.309 18.265,4.058 16.605 C 3.973 16.036,3.973 7.964,4.058 7.395 C 4.314 5.698,5.675 4.324,7.358 4.061 C 7.873 3.981,12.076 3.979,12.605 4.058 M7.960 6.062 C 7.605 6.138,7.107 6.393,6.832 6.639 C 6.532 6.907,6.239 7.352,6.118 7.722 C 6.034 7.976,6.020 8.094,6.022 8.520 C 6.024 8.959,6.038 9.056,6.133 9.320 C 6.391 10.035,6.956 10.601,7.680 10.869 L 7.980 10.980 10.000 10.980 L 12.020 10.980 12.320 10.869 C 13.044 10.601,13.608 10.036,13.868 9.320 C 13.965 9.052,13.976 8.965,13.976 8.500 C 13.976 8.035,13.965 7.948,13.868 7.680 C 13.646 7.068,13.195 6.561,12.620 6.277 C 12.087 6.013,11.969 6.001,9.980 6.004 C 8.632 6.006,8.159 6.019,7.960 6.062 M11.748 8.078 C 11.893 8.167,12.000 8.346,12.000 8.500 C 12.000 8.654,11.893 8.833,11.748 8.922 C 11.627 8.996,11.536 9.000,10.008 9.000 C 8.228 9.000,8.232 9.001,8.078 8.748 C 7.935 8.513,8.009 8.226,8.252 8.078 C 8.373 8.004,8.464 8.000,10.000 8.000 C 11.536 8.000,11.627 8.004,11.748 8.078 M7.960 13.062 C 7.605 13.138,7.107 13.393,6.832 13.639 C 6.532 13.907,6.239 14.352,6.118 14.722 C 6.034 14.976,6.020 15.094,6.022 15.520 C 6.024 15.959,6.038 16.056,6.133 16.320 C 6.391 17.035,6.956 17.601,7.680 17.869 L 7.980 17.980 12.000 17.980 L 16.020 17.980 16.320 17.869 C 17.044 17.601,17.608 17.036,17.868 16.320 C 17.965 16.052,17.976 15.965,17.976 15.500 C 17.976 15.035,17.965 14.948,17.868 14.680 C 17.646 14.068,17.195 13.561,16.620 13.277 C 16.047 12.993,16.176 13.001,11.980 13.004 C 8.920 13.006,8.172 13.017,7.960 13.062 M15.724 15.062 C 15.977 15.193,16.068 15.508,15.922 15.748 C 15.759 16.014,15.978 16.000,12.000 16.000 C 8.022 16.000,8.241 16.014,8.078 15.748 C 7.935 15.513,8.009 15.226,8.252 15.078 C 8.376 15.002,8.480 15.000,11.992 15.000 C 15.175 15.000,15.618 15.007,15.724 15.062 " stroke="none" fill="black" fill-rule="evenodd"></path></svg>