<svg xmlns="http://www.w3.org/2000/svg" width="24" height="24" viewBox="0 0 24 24" fill="none" stroke="currentColor" stroke-width="2" stroke-linecap="round" stroke-linejoin="round" class="icon icon-tabler icons-tabler-outline icon-tabler-home-signal"><path d="M11.620 2.046 C 11.382 2.168,2.155 11.405,2.039 11.637 C 1.830 12.056,2.036 12.589,2.514 12.871 C 2.693 12.976,2.726 12.981,3.348 12.993 L 3.997 13.007 4.009 16.293 L 4.021 19.580 4.114 19.860 C 4.442 20.839,5.163 21.561,6.140 21.885 C 6.419 21.978,6.432 21.978,8.808 21.991 C 10.389 22.000,11.249 21.990,11.352 21.962 C 11.583 21.900,11.768 21.759,11.880 21.558 C 11.967 21.402,11.980 21.332,11.979 21.000 C 11.978 20.687,11.962 20.591,11.890 20.453 C 11.702 20.097,11.424 20.000,10.594 20.000 L 10.000 20.000 10.000 17.447 C 10.000 14.538,9.993 14.614,10.303 14.303 C 10.586 14.020,10.697 14.000,12.000 14.000 C 13.303 14.000,13.414 14.020,13.697 14.303 C 13.932 14.538,14.000 14.763,14.000 15.300 C 14.000 15.795,14.070 16.056,14.249 16.229 C 14.442 16.416,14.647 16.487,14.997 16.488 C 15.512 16.490,15.829 16.289,15.947 15.883 C 16.042 15.556,16.003 14.526,15.881 14.140 C 15.572 13.165,14.783 12.387,13.822 12.112 C 13.512 12.023,13.446 12.020,12.000 12.020 C 10.554 12.020,10.488 12.023,10.178 12.112 C 9.219 12.387,8.446 13.147,8.115 14.140 L 8.021 14.420 8.009 17.213 L 7.996 20.007 7.348 19.993 C 6.728 19.981,6.692 19.975,6.516 19.872 C 6.328 19.761,6.158 19.572,6.070 19.373 C 6.032 19.286,6.015 18.375,6.000 15.440 L 5.980 11.620 5.890 11.451 C 5.803 11.289,5.556 11.080,5.451 11.080 C 5.423 11.080,5.400 11.066,5.400 11.050 C 5.400 11.033,6.885 9.535,8.700 7.720 L 12.000 4.420 15.300 7.720 C 17.115 9.535,18.599 11.029,18.598 11.040 C 18.597 11.051,18.521 11.097,18.428 11.143 C 18.243 11.233,18.103 11.412,18.041 11.635 C 17.974 11.875,17.990 12.681,18.066 12.917 C 18.145 13.159,18.359 13.374,18.587 13.437 C 18.784 13.492,19.216 13.492,19.413 13.437 C 19.579 13.391,19.880 13.145,19.880 13.055 C 19.880 13.010,20.006 13.000,20.550 13.000 C 20.918 13.000,21.285 12.981,21.365 12.959 C 21.587 12.898,21.770 12.755,21.879 12.558 C 21.963 12.408,21.979 12.327,21.979 12.040 C 21.980 11.742,21.967 11.678,21.873 11.520 C 21.715 11.256,12.586 2.151,12.372 2.044 C 12.151 1.934,11.836 1.935,11.620 2.046 M20.614 15.057 C 20.377 15.131,20.212 15.261,20.109 15.453 L 20.020 15.620 20.009 18.912 C 20.002 21.060,20.012 22.257,20.039 22.356 C 20.144 22.747,20.434 22.961,20.896 22.991 C 21.381 23.022,21.699 22.882,21.880 22.558 L 21.980 22.380 21.980 19.000 L 21.980 15.620 21.891 15.453 C 21.842 15.362,21.746 15.247,21.678 15.199 C 21.414 15.010,20.957 14.950,20.614 15.057 M17.614 17.057 C 17.377 17.131,17.212 17.261,17.109 17.453 C 17.020 17.619,17.020 17.629,17.009 19.911 C 17.001 21.392,17.012 22.256,17.039 22.355 C 17.144 22.747,17.433 22.961,17.896 22.991 C 18.381 23.022,18.699 22.882,18.880 22.558 L 18.980 22.380 18.980 20.000 L 18.980 17.620 18.891 17.453 C 18.842 17.362,18.746 17.247,18.678 17.199 C 18.414 17.010,17.957 16.950,17.614 17.057 M14.614 19.057 C 14.377 19.131,14.212 19.261,14.109 19.453 C 14.023 19.614,14.020 19.665,14.008 20.908 C 14.000 21.720,14.011 22.254,14.038 22.352 C 14.144 22.747,14.432 22.961,14.896 22.991 C 15.381 23.022,15.699 22.882,15.880 22.558 L 15.980 22.380 15.980 21.000 C 15.980 19.650,15.978 19.616,15.891 19.453 C 15.842 19.362,15.746 19.247,15.678 19.199 C 15.414 19.010,14.957 18.950,14.614 19.057 " stroke="none" fill="black" fill-rule="evenodd"></path></svg>