<svg xmlns="http://www.w3.org/2000/svg" width="24" height="24" viewBox="0 0 24 24" fill="none" stroke="currentColor" stroke-width="2" stroke-linecap="round" stroke-linejoin="round" class="icon icon-tabler icons-tabler-outline icon-tabler-heading-off"><path d="M2.626 2.045 C 2.420 2.154,2.146 2.433,2.038 2.644 C 1.924 2.868,1.924 3.132,2.040 3.363 C 2.101 3.484,2.735 4.148,4.064 5.481 L 6.000 7.422 6.000 12.711 L 6.000 18.000 5.406 18.000 C 4.577 18.000,4.300 18.097,4.109 18.453 C 4.035 18.592,4.020 18.684,4.020 19.000 C 4.020 19.331,4.033 19.403,4.120 19.558 C 4.230 19.755,4.414 19.898,4.635 19.959 C 4.831 20.014,9.169 20.014,9.365 19.959 C 9.586 19.898,9.770 19.755,9.880 19.558 C 9.967 19.402,9.980 19.332,9.979 19.000 C 9.978 18.687,9.962 18.591,9.890 18.453 C 9.702 18.097,9.424 18.000,8.594 18.000 L 8.000 18.000 8.000 15.500 L 8.000 13.000 9.790 13.000 L 11.580 13.000 13.790 15.210 L 16.000 17.420 16.000 17.710 L 16.000 18.000 15.406 18.000 C 14.577 18.000,14.300 18.097,14.109 18.453 C 14.035 18.592,14.020 18.684,14.020 19.000 C 14.020 19.331,14.033 19.403,14.120 19.558 C 14.230 19.755,14.414 19.898,14.635 19.959 C 14.723 19.984,15.530 20.000,16.678 20.000 L 18.576 20.000 19.518 20.935 C 20.114 21.526,20.525 21.903,20.637 21.960 C 20.989 22.137,21.354 22.048,21.701 21.701 C 22.048 21.354,22.137 20.989,21.959 20.637 C 21.887 20.495,20.781 19.322,19.748 18.292 C 19.516 18.060,17.848 16.394,17.760 16.306 C 17.705 16.251,16.580 15.126,15.260 13.806 C 13.940 12.486,12.815 11.361,12.760 11.306 C 12.705 11.251,11.580 10.126,10.260 8.806 C 8.940 7.486,7.815 6.361,7.760 6.305 C 7.705 6.249,6.733 5.287,5.600 4.167 C 4.268 2.849,3.480 2.099,3.372 2.045 C 3.152 1.934,2.835 1.934,2.626 2.045 M14.614 4.057 C 14.377 4.131,14.212 4.261,14.109 4.453 C 14.035 4.592,14.020 4.684,14.020 5.000 C 14.020 5.331,14.033 5.403,14.120 5.558 C 14.230 5.755,14.414 5.898,14.635 5.959 C 14.715 5.981,15.055 6.000,15.390 6.000 L 16.000 6.000 16.000 8.491 L 16.000 10.982 15.756 11.028 C 15.272 11.120,15.042 11.388,15.009 11.900 C 14.969 12.530,15.252 12.923,15.792 12.987 L 15.990 13.010 16.013 13.208 C 16.074 13.715,16.428 14.000,17.000 14.000 C 17.428 14.000,17.713 13.856,17.880 13.558 L 17.980 13.380 17.991 9.690 L 18.002 6.000 18.611 6.000 C 18.946 6.000,19.285 5.981,19.365 5.959 C 19.586 5.898,19.770 5.755,19.880 5.558 C 19.967 5.402,19.980 5.332,19.979 5.000 C 19.978 4.567,19.898 4.355,19.678 4.199 C 19.406 4.005,19.336 4.000,16.984 4.003 C 15.293 4.005,14.741 4.017,14.614 4.057 M8.800 10.220 L 9.579 11.000 8.790 11.000 L 8.000 11.000 8.000 10.220 C 8.000 9.791,8.005 9.440,8.010 9.440 C 8.016 9.440,8.371 9.791,8.800 10.220 " stroke="none" fill="black" fill-rule="evenodd"></path></svg>