<svg xmlns="http://www.w3.org/2000/svg" width="24" height="24" viewBox="0 0 24 24" fill="none" stroke="currentColor" stroke-width="2" stroke-linecap="round" stroke-linejoin="round" class="icon icon-tabler icons-tabler-outline icon-tabler-http-patch"><path d="M2.614 7.056 C 2.376 7.133,2.212 7.262,2.109 7.453 L 2.020 7.620 2.009 11.913 C 2.002 14.727,2.013 16.258,2.039 16.357 C 2.144 16.747,2.434 16.961,2.896 16.991 C 3.381 17.022,3.699 16.882,3.880 16.558 L 3.980 16.380 3.992 14.695 L 4.004 13.009 4.792 12.990 C 5.464 12.974,5.621 12.958,5.860 12.882 C 6.835 12.570,7.582 11.817,7.886 10.840 C 8.021 10.406,8.021 9.594,7.886 9.160 C 7.581 8.182,6.825 7.421,5.861 7.124 C 5.550 7.028,5.498 7.024,4.160 7.013 C 3.090 7.005,2.743 7.014,2.614 7.056 M11.499 7.040 C 10.374 7.244,9.487 8.025,9.114 9.140 L 9.021 9.420 9.009 12.810 C 9.001 15.058,9.011 16.252,9.038 16.354 C 9.144 16.747,9.433 16.961,9.896 16.991 C 10.381 17.022,10.699 16.882,10.880 16.558 C 10.979 16.381,10.980 16.374,10.993 15.190 L 11.005 14.000 12.003 14.000 L 13.000 14.000 13.000 15.110 C 13.000 15.730,13.018 16.284,13.041 16.365 C 13.148 16.750,13.437 16.962,13.896 16.991 C 14.381 17.022,14.699 16.882,14.880 16.558 L 14.980 16.380 14.980 12.920 L 14.980 9.460 14.886 9.160 C 14.580 8.178,13.810 7.407,12.861 7.129 C 12.500 7.023,11.832 6.980,11.499 7.040 M16.614 7.057 C 16.377 7.131,16.212 7.261,16.109 7.453 C 16.035 7.592,16.020 7.684,16.020 8.000 C 16.020 8.331,16.033 8.403,16.120 8.558 C 16.230 8.755,16.414 8.898,16.635 8.959 C 16.715 8.981,17.055 9.000,17.390 9.000 L 18.000 9.000 18.000 12.610 C 18.000 14.905,18.015 16.273,18.041 16.365 C 18.148 16.750,18.437 16.962,18.896 16.991 C 19.381 17.022,19.699 16.882,19.880 16.558 L 19.980 16.380 19.991 12.690 L 20.002 9.000 20.611 9.000 C 20.946 9.000,21.285 8.981,21.365 8.959 C 21.586 8.898,21.770 8.755,21.880 8.558 C 21.967 8.402,21.980 8.332,21.979 8.000 C 21.978 7.567,21.898 7.355,21.678 7.199 C 21.406 7.005,21.336 7.000,18.984 7.003 C 17.293 7.005,16.741 7.017,16.614 7.057 M5.310 9.061 C 5.688 9.173,6.000 9.598,6.000 10.001 C 6.000 10.331,5.784 10.696,5.484 10.872 C 5.308 10.975,5.272 10.981,4.650 10.993 L 4.000 11.007 4.000 10.003 L 4.000 9.000 4.553 9.000 C 4.931 9.000,5.170 9.019,5.310 9.061 M12.310 9.061 C 12.452 9.103,12.571 9.178,12.697 9.303 C 12.978 9.584,13.000 9.703,13.000 10.947 L 13.000 12.000 12.000 12.000 L 11.000 12.000 11.000 10.947 C 11.000 9.702,11.022 9.585,11.304 9.303 C 11.583 9.024,11.916 8.944,12.310 9.061 " stroke="none" fill="black" fill-rule="evenodd"></path></svg>