<svg xmlns="http://www.w3.org/2000/svg" width="24" height="24" viewBox="0 0 24 24" fill="none" stroke="currentColor" stroke-width="2" stroke-linecap="round" stroke-linejoin="round" class="icon icon-tabler icons-tabler-outline icon-tabler-arrow-guide"><path d="M17.626 3.045 C 17.257 3.239,16.951 3.673,16.951 4.000 C 16.951 4.307,17.079 4.487,17.851 5.268 L 18.571 5.996 16.016 6.009 L 13.460 6.022 13.139 6.122 C 12.182 6.422,11.443 7.158,11.114 8.140 L 11.021 8.420 11.000 12.840 C 10.985 16.255,10.969 17.286,10.930 17.373 C 10.842 17.572,10.672 17.761,10.484 17.872 L 10.300 17.980 9.078 17.992 L 7.855 18.004 7.689 17.672 C 7.321 16.938,6.643 16.363,5.861 16.125 C 5.588 16.042,5.458 16.027,5.000 16.027 C 4.542 16.027,4.412 16.042,4.139 16.125 C 3.178 16.418,2.419 17.181,2.114 18.160 C 2.036 18.412,2.021 18.547,2.021 19.000 C 2.021 19.453,2.036 19.588,2.114 19.840 C 2.421 20.826,3.174 21.579,4.160 21.886 C 4.412 21.964,4.547 21.979,5.000 21.979 C 5.453 21.979,5.588 21.964,5.840 21.886 C 6.644 21.636,7.318 21.069,7.686 20.333 L 7.850 20.006 9.215 19.991 C 10.507 19.976,10.595 19.970,10.860 19.884 C 11.831 19.566,12.558 18.840,12.886 17.860 L 12.979 17.580 13.000 13.160 C 13.022 8.207,12.997 8.598,13.321 8.283 C 13.616 7.998,13.591 8.000,16.235 8.000 L 18.575 8.000 17.853 8.730 C 17.420 9.168,17.095 9.531,17.041 9.637 C 16.863 9.988,16.952 10.354,17.299 10.701 C 17.646 11.048,18.011 11.137,18.363 10.960 C 18.480 10.901,19.051 10.365,20.062 9.365 C 20.899 8.537,21.634 7.826,21.697 7.784 C 21.850 7.682,22.049 7.238,22.049 7.000 C 22.049 6.745,21.851 6.321,21.676 6.201 C 21.601 6.150,20.865 5.438,20.040 4.618 C 19.085 3.670,18.479 3.098,18.372 3.044 C 18.152 2.934,17.835 2.934,17.626 3.045 M5.310 18.061 C 5.688 18.173,6.000 18.598,6.000 19.001 C 6.000 19.331,5.784 19.696,5.484 19.872 C 5.328 19.963,5.254 19.980,5.000 19.980 C 4.746 19.980,4.672 19.963,4.516 19.872 C 3.935 19.530,3.833 18.774,4.304 18.303 C 4.583 18.024,4.916 17.944,5.310 18.061 " stroke="none" fill="black" fill-rule="evenodd"></path></svg>