<svg xmlns="http://www.w3.org/2000/svg" width="24" height="24" viewBox="0 0 24 24" fill="none" stroke="currentColor" stroke-width="2" stroke-linecap="round" stroke-linejoin="round" class="icon icon-tabler icons-tabler-outline icon-tabler-device-ipad-horizontal-pause"><path d="M4.499 3.043 C 3.380 3.232,2.461 4.048,2.114 5.160 L 2.020 5.460 2.020 12.000 L 2.020 18.540 2.114 18.840 C 2.418 19.816,3.149 20.554,4.140 20.886 L 4.420 20.980 8.811 20.991 C 11.726 20.999,13.254 20.989,13.355 20.961 C 13.584 20.900,13.768 20.758,13.880 20.558 C 13.967 20.402,13.980 20.332,13.979 20.000 C 13.977 19.469,13.852 19.247,13.455 19.071 C 13.365 19.031,12.399 19.016,9.020 19.000 L 4.700 18.980 4.516 18.872 C 4.415 18.813,4.284 18.700,4.225 18.623 C 3.987 18.311,4.000 18.701,4.000 12.022 C 4.000 5.123,3.977 5.629,4.303 5.303 C 4.631 4.976,4.009 5.000,12.000 5.000 C 19.991 5.000,19.369 4.976,19.697 5.303 C 20.015 5.621,20.000 5.411,20.000 9.557 C 20.000 11.888,20.015 13.273,20.041 13.365 C 20.148 13.750,20.437 13.962,20.896 13.991 C 21.381 14.022,21.699 13.882,21.880 13.558 L 21.980 13.380 21.980 9.420 L 21.980 5.460 21.886 5.160 C 21.581 4.182,20.832 3.428,19.861 3.121 L 19.540 3.020 12.120 3.014 C 8.039 3.011,4.609 3.024,4.499 3.043 M8.614 16.057 C 8.377 16.131,8.212 16.261,8.109 16.453 C 8.035 16.592,8.020 16.684,8.020 17.000 C 8.020 17.331,8.033 17.403,8.120 17.558 C 8.230 17.755,8.414 17.898,8.635 17.959 C 8.831 18.014,13.169 18.014,13.365 17.959 C 13.586 17.898,13.770 17.755,13.880 17.558 C 13.967 17.402,13.980 17.332,13.979 17.000 C 13.978 16.567,13.898 16.355,13.678 16.199 C 13.406 16.005,13.336 16.000,10.984 16.003 C 9.293 16.005,8.741 16.017,8.614 16.057 M16.614 16.057 C 16.377 16.131,16.212 16.261,16.109 16.453 L 16.020 16.620 16.009 19.412 C 16.002 21.226,16.012 22.257,16.039 22.356 C 16.144 22.747,16.433 22.961,16.896 22.991 C 17.381 23.022,17.699 22.882,17.880 22.558 L 17.980 22.380 17.980 19.500 L 17.980 16.620 17.891 16.453 C 17.842 16.362,17.746 16.247,17.678 16.199 C 17.414 16.010,16.957 15.950,16.614 16.057 M20.614 16.057 C 20.377 16.131,20.212 16.261,20.109 16.453 L 20.020 16.620 20.009 19.412 C 20.002 21.226,20.012 22.257,20.039 22.356 C 20.144 22.747,20.433 22.961,20.896 22.991 C 21.381 23.022,21.699 22.882,21.880 22.558 L 21.980 22.380 21.980 19.500 L 21.980 16.620 21.891 16.453 C 21.842 16.362,21.746 16.247,21.678 16.199 C 21.414 16.010,20.957 15.950,20.614 16.057 " stroke="none" fill="black" fill-rule="evenodd"></path></svg>