<svg xmlns="http://www.w3.org/2000/svg" width="24" height="24" viewBox="0 0 24 24" fill="none" stroke="currentColor" stroke-width="2" stroke-linecap="round" stroke-linejoin="round" class="icon icon-tabler icons-tabler-outline icon-tabler-brand-cupra"><path d="M21.740 5.036 C 21.630 5.077,19.404 6.075,16.793 7.255 C 14.182 8.435,12.025 9.400,12.000 9.400 C 11.975 9.400,9.837 8.443,7.247 7.273 C 4.658 6.104,2.450 5.112,2.340 5.069 C 2.077 4.967,1.748 4.993,1.507 5.134 C 1.310 5.249,1.055 5.515,0.998 5.665 C 0.938 5.823,0.955 6.125,1.034 6.300 C 1.113 6.472,3.587 10.449,3.757 10.677 C 3.918 10.892,4.182 11.040,4.403 11.040 C 4.892 11.040,5.408 10.671,5.523 10.239 C 5.597 9.963,5.504 9.718,5.044 8.981 C 4.824 8.630,4.652 8.335,4.661 8.325 C 4.683 8.304,9.520 10.487,9.520 10.518 C 9.520 10.531,8.904 10.819,8.150 11.158 C 6.184 12.042,6.061 12.104,5.888 12.300 C 5.807 12.393,5.708 12.557,5.670 12.664 C 5.588 12.892,5.581 13.277,5.655 13.485 C 5.748 13.744,9.172 19.574,9.339 19.756 C 9.611 20.053,9.887 20.111,10.297 19.958 C 10.552 19.862,10.907 19.561,10.986 19.372 C 11.061 19.193,11.054 18.956,10.967 18.730 C 10.913 18.589,8.582 14.546,7.997 13.578 L 7.923 13.456 9.935 12.548 C 11.041 12.049,11.970 11.640,12.000 11.640 C 12.030 11.640,12.959 12.049,14.065 12.548 L 16.077 13.456 16.003 13.578 C 15.418 14.546,13.087 18.589,13.033 18.730 C 12.946 18.956,12.939 19.193,13.014 19.372 C 13.093 19.561,13.448 19.862,13.703 19.958 C 14.113 20.111,14.389 20.053,14.661 19.756 C 14.828 19.574,18.252 13.744,18.345 13.485 C 18.419 13.277,18.412 12.892,18.330 12.664 C 18.292 12.557,18.193 12.393,18.112 12.300 C 17.939 12.104,17.816 12.042,15.850 11.158 C 15.097 10.819,14.480 10.531,14.480 10.518 C 14.480 10.487,19.317 8.304,19.339 8.325 C 19.348 8.335,19.176 8.630,18.956 8.981 C 18.496 9.718,18.403 9.963,18.477 10.239 C 18.592 10.671,19.108 11.040,19.597 11.040 C 19.818 11.040,20.082 10.892,20.243 10.677 C 20.447 10.404,22.896 6.456,22.946 6.320 C 23.107 5.875,22.853 5.250,22.427 5.044 C 22.217 4.942,22.004 4.939,21.740 5.036 " stroke="none" fill="black" fill-rule="evenodd"></path></svg>