<svg xmlns="http://www.w3.org/2000/svg" width="24" height="24" viewBox="0 0 24 24" fill="none" stroke="currentColor" stroke-width="2" stroke-linecap="round" stroke-linejoin="round" class="icon icon-tabler icons-tabler-outline icon-tabler-zodiac-aries"><path d="M7.440 2.023 C 7.385 2.032,7.205 2.060,7.040 2.084 C 6.004 2.233,4.882 2.762,4.018 3.509 C 3.094 4.308,2.405 5.500,2.113 6.805 C 2.033 7.162,2.020 7.326,2.022 7.980 C 2.024 8.613,2.039 8.810,2.114 9.160 C 2.477 10.845,3.324 12.085,4.768 13.048 C 5.646 13.633,6.849 14.000,7.885 14.000 C 8.433 13.999,8.699 13.881,8.880 13.558 C 8.967 13.402,8.980 13.332,8.979 13.000 C 8.978 12.687,8.962 12.591,8.890 12.453 C 8.721 12.133,8.514 12.043,7.840 11.997 C 6.717 11.920,5.906 11.554,5.140 10.779 C 4.602 10.234,4.255 9.591,4.092 8.834 C 3.986 8.343,3.996 7.534,4.113 7.062 C 4.287 6.363,4.737 5.579,5.235 5.110 C 6.781 3.653,9.160 3.641,10.731 5.081 L 11.000 5.327 11.000 13.274 C 11.000 18.474,11.014 21.270,11.041 21.365 C 11.148 21.750,11.437 21.962,11.896 21.991 C 12.381 22.022,12.699 21.882,12.880 21.558 L 12.980 21.380 12.990 13.353 L 13.001 5.326 13.269 5.080 C 13.773 4.619,14.354 4.298,14.960 4.147 C 15.963 3.896,16.852 3.983,17.740 4.417 C 18.637 4.856,19.188 5.418,19.624 6.337 C 19.884 6.886,19.975 7.306,19.978 7.960 C 19.982 9.102,19.622 10.008,18.860 10.778 C 18.088 11.558,17.277 11.922,16.150 11.996 C 15.568 12.034,15.329 12.123,15.170 12.358 C 14.965 12.662,14.943 13.236,15.124 13.562 C 15.300 13.882,15.569 14.000,16.120 14.000 C 17.065 14.000,18.283 13.652,19.067 13.159 C 20.907 12.003,21.910 10.285,21.987 8.160 C 22.014 7.415,21.925 6.797,21.695 6.122 C 21.103 4.390,19.899 3.114,18.209 2.427 C 17.483 2.132,16.856 2.019,15.960 2.023 C 15.185 2.026,14.760 2.094,14.072 2.325 C 13.398 2.550,12.527 3.039,12.130 3.413 L 12.000 3.536 11.870 3.413 C 11.293 2.869,10.169 2.330,9.170 2.119 C 8.796 2.040,7.692 1.979,7.440 2.023 " stroke="none" fill="black" fill-rule="evenodd"></path></svg>