<svg xmlns="http://www.w3.org/2000/svg" width="24" height="24" viewBox="0 0 24 24" fill="none" stroke="currentColor" stroke-width="2" stroke-linecap="round" stroke-linejoin="round" class="icon icon-tabler icons-tabler-outline icon-tabler-clock-12"><path d="M11.080 2.045 C 9.507 2.184,7.883 2.751,6.540 3.630 C 5.905 4.045,5.499 4.378,4.919 4.958 C 2.953 6.926,1.919 9.544,2.013 12.320 C 2.084 14.439,2.752 16.328,4.033 18.040 C 4.430 18.570,5.305 19.464,5.800 19.847 C 7.524 21.179,9.476 21.901,11.580 21.986 C 12.410 22.019,12.669 21.934,12.880 21.558 C 12.967 21.402,12.980 21.332,12.979 21.000 C 12.978 20.687,12.962 20.591,12.890 20.453 C 12.726 20.143,12.405 20.000,11.872 20.000 C 10.261 20.000,8.463 19.369,7.100 18.325 C 6.747 18.055,6.190 17.510,5.847 17.100 C 4.102 15.014,3.551 12.113,4.403 9.502 C 4.953 7.820,6.121 6.296,7.620 5.309 C 9.618 3.993,12.199 3.653,14.498 4.403 C 16.483 5.051,18.172 6.504,19.130 8.386 C 19.669 9.444,19.919 10.429,19.994 11.784 C 20.023 12.310,20.040 12.411,20.124 12.563 C 20.286 12.856,20.574 13.000,21.000 13.000 C 21.428 13.000,21.713 12.856,21.880 12.558 C 21.976 12.388,21.980 12.352,21.977 11.720 C 21.969 9.661,21.217 7.571,19.847 5.800 C 19.510 5.365,18.639 4.494,18.200 4.154 C 16.133 2.555,13.646 1.818,11.080 2.045 M11.614 6.057 C 11.377 6.131,11.212 6.261,11.109 6.453 L 11.020 6.620 11.020 9.460 L 11.020 12.300 11.126 12.480 C 11.277 12.738,11.962 13.388,12.187 13.487 C 12.579 13.661,13.051 13.464,13.375 12.992 C 13.662 12.575,13.612 12.239,13.197 11.785 L 13.003 11.572 12.991 9.096 C 12.980 6.623,12.980 6.620,12.891 6.453 C 12.842 6.362,12.746 6.247,12.678 6.199 C 12.414 6.010,11.957 5.950,11.614 6.057 M14.614 14.057 C 14.377 14.131,14.212 14.261,14.109 14.453 L 14.020 14.620 14.009 17.912 C 14.002 20.060,14.012 21.257,14.039 21.356 C 14.144 21.747,14.434 21.961,14.896 21.991 C 15.381 22.022,15.699 21.882,15.880 21.558 L 15.980 21.380 15.980 18.000 L 15.980 14.620 15.891 14.453 C 15.842 14.362,15.746 14.247,15.678 14.199 C 15.414 14.010,14.957 13.950,14.614 14.057 M17.614 14.057 C 17.377 14.131,17.212 14.261,17.109 14.453 C 17.035 14.592,17.020 14.684,17.020 15.000 C 17.020 15.331,17.033 15.403,17.120 15.558 C 17.230 15.755,17.414 15.898,17.635 15.959 C 17.716 15.982,18.270 16.000,18.890 16.000 L 20.000 16.000 20.000 16.500 L 20.000 17.000 19.370 17.002 C 18.410 17.006,18.002 17.150,17.535 17.653 C 17.091 18.131,17.000 18.446,17.000 19.500 C 17.000 20.329,17.036 20.556,17.225 20.930 C 17.361 21.199,17.801 21.639,18.070 21.775 C 18.478 21.982,18.633 22.000,19.978 22.000 C 20.687 22.000,21.282 21.982,21.365 21.959 C 21.586 21.898,21.770 21.755,21.880 21.558 C 21.967 21.402,21.980 21.332,21.979 21.000 C 21.978 20.567,21.898 20.355,21.678 20.199 C 21.430 20.022,21.256 20.000,20.094 20.000 L 19.000 20.000 19.000 19.500 L 19.000 19.000 19.632 19.000 C 20.574 19.000,20.927 18.881,21.404 18.404 C 21.895 17.913,22.000 17.579,21.999 16.514 C 21.999 15.716,21.954 15.424,21.781 15.083 C 21.646 14.816,21.297 14.449,21.017 14.281 C 20.600 14.030,20.416 14.005,19.020 14.005 C 18.115 14.005,17.735 14.019,17.614 14.057 " stroke="none" fill="black" fill-rule="evenodd"></path></svg>