<svg xmlns="http://www.w3.org/2000/svg" width="24" height="24" viewBox="0 0 24 24" fill="none" stroke="currentColor" stroke-width="2" stroke-linecap="round" stroke-linejoin="round" class="icon icon-tabler icons-tabler-outline icon-tabler-map"><path d="M20.780 3.016 C 20.692 3.045,19.355 3.700,17.810 4.474 L 15.000 5.880 12.370 4.559 C 10.923 3.832,9.650 3.188,9.541 3.129 C 9.369 3.034,9.297 3.020,9.000 3.020 C 8.703 3.020,8.631 3.034,8.459 3.129 C 8.013 3.372,2.729 6.014,2.587 6.064 C 2.360 6.145,2.220 6.259,2.102 6.461 L 1.996 6.642 1.999 13.402 C 2.002 20.039,2.004 20.167,2.081 20.375 C 2.188 20.660,2.399 20.898,2.620 20.982 C 2.995 21.125,2.953 21.142,6.109 19.565 L 9.001 18.120 11.630 19.442 C 13.077 20.169,14.341 20.813,14.440 20.872 C 14.602 20.969,14.658 20.980,15.000 20.980 C 15.342 20.980,15.398 20.969,15.560 20.872 C 15.659 20.813,17.065 20.098,18.685 19.284 C 21.868 17.684,21.841 17.700,21.954 17.326 C 21.988 17.211,22.000 15.448,22.000 10.507 C 22.000 3.964,21.999 3.839,21.921 3.632 C 21.719 3.092,21.281 2.856,20.780 3.016 M8.000 11.010 L 8.000 16.380 6.020 17.370 C 4.931 17.915,4.031 18.360,4.020 18.360 C 4.009 18.360,4.000 15.943,4.000 12.990 L 4.000 7.620 5.970 6.632 C 7.054 6.089,7.954 5.643,7.970 5.642 C 7.987 5.641,8.000 8.057,8.000 11.010 M12.020 6.630 L 14.000 7.620 14.000 12.990 C 14.000 15.943,13.991 18.360,13.980 18.360 C 13.969 18.360,13.069 17.915,11.980 17.370 L 10.000 16.380 10.000 11.010 C 10.000 8.057,10.009 5.640,10.020 5.640 C 10.031 5.640,10.931 6.085,12.020 6.630 M20.000 11.010 L 20.000 16.380 18.020 17.370 C 16.931 17.915,16.031 18.360,16.020 18.360 C 16.009 18.360,16.000 15.943,16.000 12.990 L 16.000 7.620 17.970 6.632 C 19.053 6.089,19.953 5.643,19.970 5.642 C 19.987 5.641,20.000 8.057,20.000 11.010 " stroke="none" fill="black" fill-rule="evenodd"></path></svg>