<svg xmlns="http://www.w3.org/2000/svg" width="24" height="24" viewBox="0 0 24 24" fill="none" stroke="currentColor" stroke-width="2" stroke-linecap="round" stroke-linejoin="round" class="icon icon-tabler icons-tabler-outline icon-tabler-clock-question"><path d="M11.360 2.024 C 11.283 2.033,11.044 2.059,10.829 2.083 C 8.656 2.317,6.574 3.319,4.988 4.891 C 4.063 5.808,3.389 6.772,2.885 7.900 C 1.367 11.300,1.834 15.190,4.114 18.138 C 5.687 20.173,7.980 21.500,10.620 21.905 C 11.279 22.006,12.705 22.008,13.360 21.907 C 14.367 21.753,15.625 21.379,15.934 21.142 C 16.214 20.927,16.260 20.834,16.260 20.483 C 16.260 20.206,16.244 20.142,16.120 19.898 C 15.829 19.327,15.499 19.252,14.600 19.551 C 13.503 19.917,12.851 20.018,11.800 19.988 C 10.882 19.961,10.324 19.864,9.466 19.583 C 7.766 19.026,6.336 17.919,5.302 16.360 C 4.556 15.236,4.155 14.046,4.034 12.593 C 3.840 10.275,4.698 7.992,6.405 6.284 C 7.546 5.142,9.208 4.325,10.900 4.074 C 11.422 3.996,12.717 4.007,13.220 4.094 C 15.861 4.546,17.962 6.083,19.152 8.431 C 19.608 9.330,19.837 10.130,19.961 11.260 C 20.015 11.758,20.137 12.037,20.367 12.189 C 20.498 12.276,20.584 12.298,20.858 12.312 C 21.278 12.334,21.529 12.258,21.726 12.049 C 21.947 11.816,21.975 11.702,21.947 11.167 C 21.855 9.408,21.053 7.338,19.893 5.868 C 18.253 3.790,15.977 2.477,13.360 2.100 C 12.948 2.041,11.637 1.991,11.360 2.024 M11.614 6.057 C 11.377 6.131,11.212 6.261,11.109 6.453 L 11.020 6.620 11.020 9.460 L 11.020 12.300 11.127 12.480 C 11.281 12.739,13.416 14.848,13.637 14.960 C 13.989 15.137,14.354 15.048,14.701 14.701 C 15.048 14.354,15.137 13.989,14.960 13.637 C 14.903 13.525,14.527 13.114,13.937 12.520 L 13.003 11.579 12.991 9.100 C 12.980 6.623,12.980 6.620,12.891 6.453 C 12.842 6.362,12.746 6.247,12.678 6.199 C 12.414 6.010,11.957 5.950,11.614 6.057 M18.440 14.058 C 18.297 14.089,18.102 14.142,18.008 14.176 C 17.203 14.466,16.442 15.217,16.440 15.722 C 16.439 16.052,16.769 16.475,17.174 16.663 C 17.548 16.838,17.807 16.775,18.193 16.419 C 18.501 16.134,18.650 16.048,18.893 16.015 C 19.121 15.984,19.458 16.082,19.640 16.234 C 19.988 16.522,20.086 17.066,19.863 17.470 C 19.668 17.823,19.453 17.951,18.970 18.001 C 18.245 18.076,17.960 18.406,18.012 19.110 C 18.069 19.867,18.595 20.142,19.591 19.936 C 20.218 19.807,20.691 19.543,21.146 19.069 C 21.488 18.713,21.648 18.463,21.797 18.055 C 22.409 16.374,21.489 14.571,19.780 14.102 C 19.448 14.010,18.765 13.988,18.440 14.058 M18.614 21.057 C 18.221 21.180,18.039 21.435,18.009 21.906 C 17.962 22.621,18.306 23.000,19.000 23.000 C 19.698 23.000,20.043 22.616,19.989 21.900 C 19.963 21.563,19.859 21.327,19.678 21.199 C 19.414 21.010,18.957 20.950,18.614 21.057 " stroke="none" fill="black" fill-rule="evenodd"></path></svg>