<svg xmlns="http://www.w3.org/2000/svg" width="24" height="24" viewBox="0 0 24 24" fill="none" stroke="currentColor" stroke-width="2" stroke-linecap="round" stroke-linejoin="round" class="icon icon-tabler icons-tabler-outline icon-tabler-sitemap-off"><path d="M2.626 2.045 C 2.420 2.154,2.146 2.433,2.038 2.644 C 1.924 2.867,1.924 3.132,2.039 3.363 C 2.102 3.489,3.205 4.619,5.850 7.266 L 9.571 10.992 8.516 11.009 C 7.537 11.025,7.436 11.034,7.139 11.125 C 5.983 11.478,5.123 12.519,5.017 13.694 L 4.990 13.991 4.709 14.018 C 3.496 14.138,2.485 14.972,2.114 16.160 C 2.022 16.453,2.020 16.497,2.020 18.000 C 2.020 19.503,2.022 19.547,2.114 19.840 C 2.422 20.827,3.173 21.578,4.160 21.886 C 4.453 21.978,4.497 21.980,6.000 21.980 C 7.503 21.980,7.547 21.978,7.840 21.886 C 8.827 21.578,9.578 20.827,9.886 19.840 C 9.978 19.547,9.980 19.503,9.980 18.000 C 9.980 16.497,9.978 16.453,9.886 16.160 C 9.705 15.578,9.391 15.107,8.911 14.695 C 8.473 14.320,7.893 14.078,7.286 14.018 C 7.107 14.000,7.000 13.972,7.000 13.942 C 7.000 13.760,7.139 13.468,7.303 13.303 C 7.605 13.002,7.618 13.000,9.737 13.000 L 11.580 13.000 12.927 14.350 L 14.274 15.700 14.147 16.060 L 14.020 16.420 14.020 17.980 C 14.020 19.504,14.022 19.547,14.114 19.840 C 14.422 20.827,15.173 21.578,16.160 21.886 C 16.453 21.978,16.496 21.980,18.020 21.980 L 19.580 21.980 19.940 21.854 L 20.300 21.727 20.420 21.818 C 20.874 22.160,21.279 22.123,21.701 21.701 C 22.048 21.355,22.137 20.990,21.961 20.637 C 21.885 20.486,18.837 17.395,12.747 11.293 C 8.533 7.070,3.506 2.111,3.372 2.044 C 3.152 1.934,2.835 1.935,2.626 2.045 M10.499 2.042 C 9.380 2.238,8.455 3.054,8.122 4.140 C 8.018 4.479,7.972 5.113,8.035 5.344 C 8.146 5.749,8.428 5.961,8.896 5.991 C 9.592 6.035,9.918 5.762,9.996 5.072 C 10.045 4.644,10.108 4.490,10.321 4.283 C 10.591 4.022,10.720 4.000,12.000 4.000 C 13.303 4.000,13.414 4.020,13.697 4.303 C 13.980 4.587,14.000 4.697,14.000 6.001 C 14.000 7.207,13.980 7.354,13.779 7.618 C 13.599 7.853,13.377 7.959,12.976 8.000 C 12.248 8.076,11.964 8.399,12.009 9.104 C 12.039 9.572,12.251 9.854,12.656 9.965 C 12.887 10.028,13.521 9.982,13.860 9.878 C 14.821 9.583,15.581 8.819,15.886 7.840 C 15.978 7.547,15.980 7.503,15.980 6.000 C 15.980 4.497,15.978 4.453,15.886 4.160 C 15.581 3.181,14.825 2.421,13.861 2.124 C 13.548 2.027,13.504 2.024,12.120 2.015 C 11.339 2.010,10.609 2.022,10.499 2.042 M15.614 11.055 C 15.220 11.184,15.039 11.437,15.009 11.900 C 14.965 12.591,15.248 12.929,15.933 12.999 C 16.340 13.041,16.503 13.105,16.699 13.301 C 16.894 13.497,16.959 13.660,17.000 14.062 C 17.061 14.656,17.296 14.928,17.797 14.987 L 17.990 15.010 18.013 15.202 C 18.072 15.705,18.343 15.938,18.937 16.000 C 19.340 16.041,19.503 16.106,19.699 16.301 C 19.895 16.497,19.959 16.660,20.001 17.067 C 20.068 17.718,20.370 18.000,21.000 18.000 C 21.428 18.000,21.713 17.856,21.880 17.558 C 21.971 17.396,21.980 17.338,21.979 16.920 C 21.978 16.555,21.959 16.398,21.885 16.160 C 21.707 15.581,21.392 15.108,20.911 14.695 C 20.475 14.321,19.893 14.078,19.291 14.018 L 19.010 13.991 18.983 13.694 C 18.877 12.517,18.003 11.461,16.861 11.129 C 16.459 11.013,15.851 10.976,15.614 11.055 M7.310 16.061 C 7.589 16.144,7.856 16.411,7.939 16.690 C 8.023 16.972,8.028 19.015,7.945 19.290 C 7.872 19.533,7.707 19.740,7.484 19.872 L 7.300 19.980 6.000 19.980 L 4.700 19.980 4.516 19.872 C 4.303 19.747,4.141 19.550,4.058 19.316 C 3.972 19.071,3.974 16.982,4.061 16.690 C 4.136 16.438,4.404 16.153,4.650 16.067 C 4.901 15.978,7.015 15.973,7.310 16.061 M18.371 19.993 C 18.266 20.000,17.847 20.000,17.440 19.993 C 16.719 19.980,16.695 19.977,16.516 19.872 C 16.415 19.813,16.284 19.700,16.225 19.623 C 16.022 19.357,16.000 19.224,16.000 18.285 L 16.000 17.420 17.281 18.700 L 18.561 19.980 18.371 19.993 " stroke="none" fill="black" fill-rule="evenodd"></path></svg>