<svg xmlns="http://www.w3.org/2000/svg" width="24" height="24" viewBox="0 0 24 24" fill="none" stroke="currentColor" stroke-width="2" stroke-linecap="round" stroke-linejoin="round" class="icon icon-tabler icons-tabler-outline icon-tabler-arrow-ramp-right-2"><path d="M5.614 2.057 C 5.377 2.131,5.212 2.261,5.109 2.453 L 5.020 2.620 5.009 7.258 C 4.997 12.415,4.986 12.172,5.261 12.448 C 5.427 12.614,5.680 12.700,6.000 12.700 C 6.320 12.700,6.573 12.614,6.739 12.448 C 7.015 12.172,7.003 12.414,6.991 7.257 L 6.980 2.620 6.891 2.453 C 6.842 2.362,6.746 2.247,6.678 2.199 C 6.414 2.010,5.957 1.950,5.614 2.057 M15.626 5.045 C 15.257 5.239,14.951 5.673,14.951 6.000 C 14.951 6.333,15.057 6.467,16.347 7.764 L 17.565 8.988 16.752 9.013 C 16.306 9.028,15.742 9.065,15.500 9.096 C 12.216 9.524,9.346 11.206,7.351 13.873 C 6.055 15.606,5.236 17.774,5.043 19.980 C 4.990 20.588,4.989 21.178,5.041 21.365 C 5.148 21.750,5.437 21.962,5.896 21.991 C 6.378 22.021,6.700 21.881,6.875 21.565 C 6.957 21.416,6.974 21.314,7.003 20.767 C 7.047 19.957,7.068 19.769,7.183 19.134 C 7.538 17.183,8.491 15.388,9.940 13.940 C 11.859 12.020,14.337 11.003,17.099 11.000 L 17.577 11.000 16.353 12.230 C 15.548 13.039,15.099 13.521,15.040 13.637 C 14.863 13.989,14.952 14.354,15.299 14.701 C 15.646 15.048,16.011 15.137,16.363 14.960 C 16.484 14.899,17.182 14.234,18.561 12.866 C 19.673 11.763,20.634 10.826,20.696 10.784 C 20.850 10.682,21.049 10.239,21.049 10.000 C 21.049 9.745,20.851 9.321,20.676 9.201 C 20.601 9.150,19.640 8.213,18.540 7.118 C 17.232 5.817,16.482 5.099,16.372 5.044 C 16.152 4.934,15.835 4.935,15.626 5.045 " stroke="none" fill="black" fill-rule="evenodd"></path></svg>