<svg xmlns="http://www.w3.org/2000/svg" width="24" height="24" viewBox="0 0 24 24" fill="none" stroke="currentColor" stroke-width="2" stroke-linecap="round" stroke-linejoin="round" class="icon icon-tabler icons-tabler-outline icon-tabler-brand-twilio"><path d="M11.080 2.045 C 9.507 2.184,7.883 2.751,6.540 3.630 C 5.905 4.045,5.499 4.378,4.919 4.958 C 2.953 6.926,1.919 9.544,2.013 12.320 C 2.084 14.439,2.752 16.328,4.033 18.040 C 4.430 18.570,5.305 19.464,5.800 19.847 C 7.242 20.961,8.787 21.624,10.600 21.907 C 11.247 22.008,12.753 22.008,13.400 21.907 C 15.638 21.557,17.504 20.620,19.062 19.062 C 20.620 17.504,21.557 15.638,21.907 13.400 C 22.008 12.753,22.008 11.247,21.907 10.600 C 21.624 8.786,20.959 7.238,19.847 5.800 C 19.510 5.365,18.639 4.494,18.200 4.154 C 16.133 2.555,13.646 1.818,11.080 2.045 M12.734 4.041 C 14.574 4.216,16.228 4.976,17.554 6.256 C 20.043 8.658,20.702 12.394,19.183 15.499 C 18.749 16.387,18.223 17.105,17.496 17.801 C 16.876 18.394,16.262 18.819,15.471 19.200 C 13.267 20.265,10.733 20.265,8.529 19.200 C 7.477 18.693,6.612 18.015,5.847 17.100 C 3.848 14.711,3.440 11.302,4.816 8.500 C 6.162 5.760,8.867 4.049,11.920 4.005 C 12.129 4.003,12.495 4.019,12.734 4.041 M8.477 7.073 C 7.806 7.249,7.238 7.823,7.060 8.508 C 6.941 8.962,7.003 9.492,7.225 9.930 C 7.361 10.199,7.801 10.639,8.070 10.775 C 8.659 11.073,9.341 11.073,9.930 10.775 C 10.196 10.640,10.638 10.200,10.771 9.937 C 10.994 9.498,11.052 9.007,10.940 8.529 C 10.858 8.182,10.720 7.927,10.465 7.653 C 10.074 7.232,9.560 7.005,9.000 7.005 C 8.857 7.005,8.622 7.036,8.477 7.073 M14.477 7.073 C 13.806 7.249,13.238 7.823,13.060 8.508 C 12.941 8.962,13.003 9.492,13.225 9.930 C 13.361 10.199,13.801 10.639,14.070 10.775 C 14.659 11.073,15.341 11.073,15.930 10.775 C 16.196 10.640,16.638 10.200,16.771 9.937 C 16.994 9.498,17.052 9.007,16.940 8.529 C 16.858 8.182,16.720 7.927,16.465 7.653 C 16.074 7.232,15.560 7.005,15.000 7.005 C 14.857 7.005,14.622 7.036,14.477 7.073 M8.477 13.073 C 7.806 13.249,7.238 13.823,7.060 14.508 C 6.941 14.962,7.003 15.492,7.225 15.930 C 7.361 16.199,7.801 16.639,8.070 16.775 C 8.659 17.073,9.341 17.073,9.930 16.775 C 10.196 16.640,10.638 16.200,10.771 15.937 C 11.161 15.168,11.043 14.275,10.471 13.659 C 10.074 13.232,9.563 13.005,9.000 13.005 C 8.857 13.005,8.622 13.036,8.477 13.073 M14.477 13.073 C 13.806 13.249,13.238 13.823,13.060 14.508 C 12.941 14.962,13.003 15.492,13.225 15.930 C 13.361 16.199,13.801 16.639,14.070 16.775 C 14.659 17.073,15.341 17.073,15.930 16.775 C 16.196 16.640,16.638 16.200,16.771 15.937 C 17.161 15.168,17.043 14.275,16.471 13.659 C 16.074 13.232,15.563 13.005,15.000 13.005 C 14.857 13.005,14.622 13.036,14.477 13.073 " stroke="none" fill="black" fill-rule="evenodd"></path></svg>