<svg xmlns="http://www.w3.org/2000/svg" width="24" height="24" viewBox="0 0 24 24" fill="none" stroke="currentColor" stroke-width="2" stroke-linecap="round" stroke-linejoin="round" class="icon icon-tabler icons-tabler-outline icon-tabler-sailboat-off"><path d="M2.626 2.045 C 2.420 2.154,2.146 2.433,2.038 2.644 C 1.924 2.868,1.924 3.132,2.040 3.363 C 2.101 3.486,2.805 4.218,4.332 5.749 L 6.536 7.957 5.787 9.833 C 5.375 10.865,5.017 11.809,4.992 11.931 C 4.901 12.363,5.140 12.737,5.622 12.917 C 6.083 13.090,6.357 13.066,6.626 12.830 C 6.811 12.667,6.829 12.630,7.481 10.996 C 7.792 10.217,8.059 9.567,8.074 9.551 C 8.090 9.535,8.528 9.949,9.048 10.471 L 9.994 11.420 10.007 11.900 C 10.019 12.322,10.033 12.401,10.120 12.558 C 10.307 12.893,10.563 12.999,11.181 13.000 L 11.581 13.000 12.080 13.500 L 12.579 14.000 7.711 14.000 L 2.843 14.000 2.612 14.086 C 2.172 14.249,1.919 14.622,1.980 15.015 C 2.016 15.239,3.027 18.293,3.143 18.524 C 3.335 18.907,3.675 19.084,4.067 19.005 C 4.569 18.905,4.911 18.652,5.002 18.314 C 5.064 18.081,5.018 17.871,4.679 16.858 C 4.526 16.398,4.400 16.017,4.400 16.011 C 4.400 16.005,6.691 16.000,9.490 16.000 L 14.581 16.000 15.600 17.020 L 16.618 18.039 16.238 18.014 C 15.352 17.956,14.488 18.225,13.797 18.773 C 13.675 18.870,13.440 19.109,13.276 19.304 C 13.111 19.499,12.905 19.707,12.818 19.767 C 12.373 20.070,11.627 20.070,11.182 19.767 C 11.095 19.707,10.889 19.499,10.724 19.304 C 10.560 19.109,10.325 18.870,10.203 18.773 C 9.075 17.877,7.509 17.753,6.261 18.460 C 5.891 18.669,5.604 18.915,5.276 19.304 C 5.111 19.499,4.905 19.707,4.818 19.767 C 4.493 19.988,3.972 20.059,3.561 19.937 C 3.261 19.848,3.089 19.728,2.820 19.421 C 2.408 18.952,2.091 18.853,1.654 19.057 C 1.019 19.352,0.796 19.888,1.090 20.409 C 1.628 21.361,2.798 22.000,4.004 22.000 C 5.073 22.000,6.008 21.552,6.721 20.698 C 7.144 20.192,7.496 20.000,8.000 20.000 C 8.504 20.000,8.856 20.192,9.278 20.697 C 9.995 21.556,10.924 22.000,12.004 22.000 C 13.073 22.000,14.008 21.552,14.721 20.698 C 15.144 20.192,15.496 20.000,16.000 20.000 C 16.504 20.000,16.856 20.192,17.278 20.697 C 18.048 21.619,19.022 22.048,20.214 21.990 C 20.489 21.976,20.692 21.983,20.736 22.008 C 20.861 22.078,21.173 22.056,21.352 21.964 C 21.512 21.883,21.863 21.567,22.503 20.928 C 23.138 20.294,23.211 19.748,22.718 19.303 C 22.359 18.979,21.894 18.870,21.600 19.042 C 21.523 19.087,21.361 19.231,21.240 19.362 L 21.020 19.601 18.427 16.991 C 17.001 15.555,15.795 14.341,15.747 14.292 C 15.699 14.244,15.030 13.575,14.260 12.805 C 13.490 12.036,12.815 11.360,12.760 11.304 C 12.705 11.247,12.480 11.022,12.260 10.803 C 12.040 10.585,11.815 10.360,11.760 10.305 C 10.427 8.966,3.631 2.222,3.560 2.168 C 3.264 1.942,2.910 1.895,2.626 2.045 M10.601 2.080 C 10.308 2.244,10.217 2.336,10.099 2.585 L 10.000 2.795 10.000 5.008 C 10.000 6.366,10.016 7.276,10.041 7.365 C 10.148 7.750,10.437 7.962,10.896 7.991 C 11.381 8.022,11.699 7.882,11.880 7.558 C 11.973 7.392,11.981 7.333,12.000 6.661 L 12.020 5.942 13.974 8.454 C 15.048 9.836,15.921 10.971,15.914 10.977 C 15.906 10.983,15.810 11.010,15.700 11.036 C 15.426 11.103,15.219 11.248,15.111 11.450 C 15.035 11.592,15.020 11.682,15.020 12.000 C 15.020 12.331,15.033 12.403,15.120 12.558 C 15.230 12.755,15.414 12.898,15.635 12.959 C 15.826 13.012,18.174 13.012,18.365 12.959 C 18.587 12.898,18.770 12.755,18.879 12.558 C 18.963 12.408,18.979 12.327,18.979 12.040 C 18.980 11.740,18.967 11.679,18.871 11.520 C 18.812 11.421,17.165 9.288,15.211 6.781 C 12.710 3.569,11.610 2.187,11.489 2.103 C 11.353 2.008,11.267 1.981,11.069 1.970 C 10.851 1.959,10.792 1.972,10.601 2.080 M18.614 14.057 C 18.377 14.131,18.212 14.261,18.109 14.453 C 18.035 14.592,18.020 14.684,18.020 15.000 C 18.020 15.331,18.033 15.403,18.120 15.558 C 18.308 15.894,18.563 15.999,19.190 16.000 C 19.416 16.000,19.600 16.005,19.600 16.010 C 19.599 16.015,19.572 16.108,19.540 16.216 C 19.356 16.821,19.561 17.238,20.146 17.447 C 20.653 17.628,21.082 17.516,21.299 17.145 C 21.355 17.050,21.538 16.561,21.705 16.058 C 21.996 15.188,22.009 15.132,21.988 14.876 C 21.949 14.416,21.768 14.175,21.371 14.055 C 21.117 13.979,18.859 13.981,18.614 14.057 " stroke="none" fill="black" fill-rule="evenodd"></path></svg>