<svg xmlns="http://www.w3.org/2000/svg" width="24" height="24" viewBox="0 0 24 24" fill="none" stroke="currentColor" stroke-width="2" stroke-linecap="round" stroke-linejoin="round" class="icon icon-tabler icons-tabler-outline icon-tabler-clock-cancel"><path d="M11.240 2.025 C 8.247 2.298,5.717 3.708,3.931 6.099 C 2.981 7.372,2.386 8.836,2.094 10.620 C 1.992 11.239,1.992 12.841,2.093 13.436 C 2.580 16.305,4.024 18.629,6.300 20.209 C 8.023 21.405,10.122 22.051,12.093 21.994 C 12.567 21.980,12.647 21.967,12.823 21.877 C 13.097 21.736,13.236 21.503,13.267 21.134 C 13.293 20.818,13.217 20.483,13.077 20.305 C 12.891 20.069,12.732 20.028,11.880 19.995 C 10.481 19.941,9.505 19.700,8.390 19.132 C 6.666 18.254,5.374 16.861,4.625 15.074 C 4.187 14.028,4.023 13.195,4.023 12.020 C 4.024 11.143,4.073 10.741,4.280 9.940 C 4.842 7.761,6.383 5.867,8.420 4.850 C 10.309 3.907,12.493 3.746,14.492 4.402 C 16.505 5.063,18.164 6.489,19.132 8.390 C 19.683 9.473,19.942 10.501,19.984 11.778 C 19.996 12.131,20.025 12.508,20.048 12.616 C 20.136 13.019,20.480 13.240,21.017 13.240 C 21.534 13.239,21.817 13.049,21.942 12.618 C 22.076 12.159,21.964 10.631,21.723 9.640 C 21.030 6.784,19.056 4.327,16.420 3.042 C 14.993 2.346,13.761 2.045,12.240 2.021 C 11.789 2.014,11.339 2.016,11.240 2.025 M11.614 6.057 C 11.377 6.131,11.212 6.261,11.109 6.453 L 11.020 6.620 11.020 9.460 L 11.020 12.300 11.127 12.480 C 11.281 12.739,13.416 14.848,13.637 14.960 C 13.989 15.137,14.354 15.048,14.701 14.701 C 15.048 14.354,15.137 13.989,14.960 13.637 C 14.903 13.525,14.527 13.114,13.937 12.520 L 13.003 11.579 12.991 9.100 C 12.980 6.623,12.980 6.620,12.891 6.453 C 12.842 6.362,12.746 6.247,12.678 6.199 C 12.414 6.010,11.957 5.950,11.614 6.057 M18.358 15.061 C 17.230 15.237,16.143 15.974,15.569 16.953 C 14.320 19.083,15.233 21.785,17.512 22.704 C 19.558 23.528,21.877 22.538,22.704 20.488 C 23.090 19.530,23.090 18.469,22.705 17.516 C 22.172 16.197,21.001 15.269,19.605 15.058 C 19.144 14.989,18.816 14.990,18.358 15.061 M19.470 17.057 C 19.485 17.071,18.954 17.626,18.290 18.290 C 17.626 18.954,17.072 19.486,17.059 19.472 C 17.045 19.459,17.024 19.314,17.012 19.150 C 16.940 18.202,17.563 17.318,18.477 17.071 C 18.735 17.001,19.405 16.991,19.470 17.057 M20.982 18.784 C 21.047 19.396,20.844 19.961,20.398 20.410 C 20.104 20.705,19.779 20.885,19.404 20.963 C 19.181 21.010,18.584 20.997,18.532 20.945 C 18.504 20.918,20.872 18.520,20.927 18.520 C 20.941 18.520,20.966 18.639,20.982 18.784 " stroke="none" fill="black" fill-rule="evenodd"></path></svg>