<svg xmlns="http://www.w3.org/2000/svg" width="24" height="24" viewBox="0 0 24 24" fill="none" stroke="currentColor" stroke-width="2" stroke-linecap="round" stroke-linejoin="round" class="icon icon-tabler icons-tabler-outline icon-tabler-temperature-minus"><path d="M9.499 2.040 C 8.374 2.244,7.488 3.024,7.114 4.140 L 7.020 4.420 7.009 8.700 L 6.998 12.980 6.861 13.074 C 6.655 13.215,6.079 13.827,5.889 14.106 C 4.930 15.519,4.741 17.283,5.379 18.865 C 5.651 19.541,5.988 20.029,6.554 20.567 C 7.143 21.129,7.767 21.503,8.500 21.734 C 9.061 21.911,9.267 21.939,10.000 21.939 C 10.733 21.939,10.939 21.911,11.500 21.734 C 12.251 21.497,12.867 21.123,13.488 20.526 C 15.231 18.853,15.492 16.141,14.106 14.100 C 13.921 13.826,13.343 13.213,13.139 13.074 L 13.002 12.980 12.991 8.700 L 12.980 4.420 12.886 4.140 C 12.555 3.154,11.800 2.403,10.861 2.129 C 10.500 2.023,9.832 1.980,9.499 2.040 M10.310 4.061 C 10.452 4.103,10.571 4.178,10.697 4.303 C 10.993 4.599,11.000 4.650,11.000 6.447 L 11.000 8.000 10.000 8.000 L 9.000 8.000 9.000 6.447 C 9.000 4.649,9.007 4.599,9.304 4.303 C 9.583 4.024,9.916 3.944,10.310 4.061 M15.614 8.057 C 15.377 8.131,15.212 8.261,15.109 8.453 C 15.035 8.592,15.020 8.684,15.020 9.000 C 15.020 9.331,15.033 9.403,15.120 9.558 C 15.230 9.755,15.414 9.898,15.635 9.959 C 15.832 10.014,22.168 10.014,22.365 9.959 C 22.586 9.898,22.770 9.755,22.880 9.558 C 22.967 9.402,22.980 9.332,22.979 9.000 C 22.978 8.567,22.898 8.355,22.678 8.199 C 22.398 7.999,22.411 8.000,18.984 8.003 C 16.472 8.005,15.744 8.017,15.614 8.057 M11.000 11.830 C 11.000 12.897,11.016 13.717,11.039 13.796 C 11.104 14.022,11.247 14.195,11.520 14.376 C 11.871 14.609,12.085 14.793,12.304 15.047 C 12.512 15.289,12.846 15.952,12.926 16.280 C 13.004 16.599,12.992 17.397,12.905 17.720 C 12.631 18.730,11.852 19.533,10.840 19.847 C 10.588 19.925,10.453 19.940,10.000 19.940 C 9.547 19.940,9.412 19.925,9.160 19.847 C 8.148 19.533,7.370 18.732,7.095 17.720 C 7.010 17.408,6.997 16.556,7.073 16.280 C 7.300 15.456,7.872 14.683,8.440 14.434 C 8.663 14.336,8.822 14.189,8.931 13.980 C 9.013 13.823,9.014 13.780,9.004 11.910 L 8.993 10.000 9.996 10.000 L 11.000 10.000 11.000 11.830 " stroke="none" fill="black" fill-rule="evenodd"></path></svg>