<svg xmlns="http://www.w3.org/2000/svg" width="24" height="24" viewBox="0 0 24 24" fill="none" stroke="currentColor" stroke-width="2" stroke-linecap="round" stroke-linejoin="round" class="icon icon-tabler icons-tabler-outline icon-tabler-chart-donut-3"><path d="M11.080 2.045 C 9.507 2.184,7.883 2.751,6.540 3.630 C 5.905 4.045,5.499 4.378,4.919 4.958 C 2.953 6.926,1.919 9.544,2.013 12.320 C 2.084 14.439,2.752 16.328,4.033 18.040 C 4.430 18.570,5.305 19.464,5.800 19.847 C 7.242 20.961,8.787 21.624,10.600 21.907 C 11.247 22.008,12.753 22.008,13.400 21.907 C 15.638 21.557,17.504 20.620,19.062 19.062 C 20.620 17.504,21.557 15.638,21.907 13.400 C 22.008 12.753,22.008 11.247,21.907 10.600 C 21.624 8.786,20.959 7.238,19.847 5.800 C 19.510 5.365,18.639 4.494,18.200 4.154 C 16.133 2.555,13.646 1.818,11.080 2.045 M11.000 5.596 L 11.000 7.111 10.850 7.139 C 10.596 7.185,10.117 7.362,9.760 7.541 C 8.594 8.126,7.691 9.162,7.268 10.400 C 7.078 10.956,7.020 11.330,7.020 12.000 C 7.020 12.829,7.151 13.430,7.484 14.135 L 7.599 14.379 7.510 14.467 C 7.460 14.516,6.943 14.961,6.360 15.457 L 5.300 16.358 5.231 16.269 C 5.071 16.064,4.548 14.945,4.403 14.498 C 3.482 11.664,4.191 8.585,6.256 6.446 C 7.356 5.306,8.815 4.496,10.340 4.177 C 10.582 4.127,10.830 4.084,10.890 4.083 L 11.000 4.080 11.000 5.596 M13.586 4.163 C 14.494 4.338,15.587 4.786,16.380 5.309 C 17.879 6.296,19.047 7.820,19.597 9.502 C 19.740 9.942,19.920 10.731,19.920 10.922 C 19.920 10.998,19.880 11.000,18.406 11.000 L 16.893 11.000 16.842 10.773 C 16.660 9.961,16.116 9.031,15.452 8.396 C 14.832 7.804,13.848 7.266,13.150 7.139 L 13.000 7.111 13.000 5.596 C 13.000 4.120,13.002 4.080,13.078 4.080 C 13.121 4.080,13.349 4.117,13.586 4.163 M12.861 9.129 C 13.804 9.405,14.584 10.183,14.875 11.139 C 14.958 11.412,14.973 11.542,14.973 12.000 C 14.973 12.458,14.958 12.588,14.875 12.861 C 14.582 13.822,13.819 14.581,12.840 14.886 C 12.406 15.021,11.594 15.021,11.160 14.886 C 10.181 14.581,9.418 13.822,9.125 12.861 C 9.042 12.588,9.027 12.458,9.027 12.000 C 9.027 11.542,9.042 11.412,9.125 11.139 C 9.456 10.054,10.371 9.245,11.499 9.040 C 11.832 8.980,12.500 9.023,12.861 9.129 M19.920 13.078 C 19.920 13.270,19.740 14.058,19.596 14.497 C 19.190 15.734,18.467 16.872,17.496 17.801 C 16.029 19.204,14.041 20.000,12.000 20.000 C 10.159 20.000,8.275 19.316,6.867 18.137 L 6.593 17.908 6.707 17.797 C 6.769 17.736,7.286 17.290,7.857 16.806 L 8.893 15.927 9.177 16.119 C 9.730 16.494,10.366 16.763,11.040 16.907 C 11.286 16.960,11.552 16.980,12.000 16.980 C 12.448 16.980,12.714 16.960,12.960 16.907 C 14.207 16.640,15.295 15.946,16.034 14.948 C 16.382 14.476,16.775 13.624,16.861 13.150 L 16.889 13.000 18.404 13.000 C 19.880 13.000,19.920 13.002,19.920 13.078 " stroke="none" fill="black" fill-rule="evenodd"></path></svg>