<svg xmlns="http://www.w3.org/2000/svg" width="24" height="24" viewBox="0 0 24 24" fill="none" stroke="currentColor" stroke-width="2" stroke-linecap="round" stroke-linejoin="round" class="icon icon-tabler icons-tabler-outline icon-tabler-trolley"><path d="M8.580 3.520 C 7.970 3.605,7.439 3.908,7.090 4.372 C 6.957 4.549,4.014 9.114,3.771 9.520 C 3.603 9.800,3.510 10.160,3.506 10.540 C 3.497 11.402,3.862 12.073,4.607 12.567 C 5.364 13.068,7.915 14.677,8.109 14.775 C 8.723 15.085,9.582 15.068,10.213 14.732 C 10.682 14.482,10.869 14.233,12.512 11.671 C 13.355 10.357,14.107 9.178,14.184 9.051 C 14.583 8.389,14.605 7.587,14.245 6.860 C 13.980 6.327,13.846 6.220,11.848 4.949 C 10.864 4.323,9.987 3.775,9.899 3.729 C 9.534 3.544,9.012 3.461,8.580 3.520 M19.620 4.026 C 19.554 4.061,19.448 4.137,19.385 4.195 C 19.322 4.253,17.511 6.937,15.362 10.160 L 11.453 16.020 10.977 16.022 C 10.255 16.026,9.665 16.224,9.169 16.628 C 9.074 16.705,8.972 16.758,8.942 16.746 C 8.911 16.735,8.342 16.362,7.676 15.917 C 7.010 15.473,6.392 15.076,6.303 15.036 C 5.953 14.877,5.588 14.966,5.303 15.282 C 4.994 15.624,4.878 16.075,5.022 16.378 C 5.126 16.598,5.310 16.740,6.678 17.654 L 8.004 18.540 8.017 19.060 C 8.027 19.461,8.050 19.644,8.119 19.860 C 8.428 20.833,9.183 21.582,10.160 21.886 C 10.594 22.021,11.406 22.021,11.840 21.886 C 12.826 21.579,13.579 20.826,13.886 19.840 C 14.021 19.406,14.021 18.593,13.886 18.161 C 13.766 17.779,13.609 17.470,13.403 17.209 C 13.314 17.095,13.240 16.988,13.240 16.971 C 13.240 16.954,14.106 15.641,15.164 14.053 L 17.089 11.166 17.940 11.589 C 18.887 12.059,19.058 12.105,19.381 11.982 C 19.694 11.862,19.984 11.415,20.028 10.980 C 20.057 10.704,19.938 10.443,19.705 10.272 C 19.614 10.206,19.247 10.005,18.890 9.826 C 18.532 9.648,18.240 9.487,18.240 9.470 C 18.240 9.453,18.836 8.545,19.566 7.452 C 20.295 6.358,20.924 5.391,20.965 5.302 C 21.056 5.102,21.061 4.796,20.976 4.618 C 20.889 4.433,20.598 4.174,20.348 4.058 C 20.105 3.944,19.801 3.931,19.620 4.026 M8.978 5.519 C 9.100 5.566,12.335 7.620,12.420 7.706 C 12.573 7.858,12.533 7.930,10.920 10.441 C 10.061 11.776,9.326 12.898,9.286 12.934 C 9.201 13.011,9.070 13.019,8.947 12.954 C 8.801 12.877,5.789 10.958,5.650 10.854 C 5.429 10.687,5.458 10.586,5.952 9.815 C 8.458 5.902,8.702 5.539,8.867 5.483 C 8.871 5.481,8.921 5.498,8.978 5.519 M11.310 18.061 C 11.688 18.173,12.000 18.598,12.000 19.001 C 12.000 19.331,11.784 19.696,11.484 19.872 C 11.328 19.963,11.254 19.980,11.000 19.980 C 10.746 19.980,10.672 19.963,10.516 19.872 C 9.935 19.530,9.833 18.774,10.304 18.303 C 10.583 18.024,10.916 17.944,11.310 18.061 " stroke="none" fill="black" fill-rule="evenodd"></path></svg>