<svg xmlns="http://www.w3.org/2000/svg" width="24" height="24" viewBox="0 0 24 24" fill="none" stroke="currentColor" stroke-width="2" stroke-linecap="round" stroke-linejoin="round" class="icon icon-tabler icons-tabler-outline icon-tabler-zzz-off"><path d="M2.626 2.045 C 2.420 2.154,2.146 2.433,2.038 2.644 C 1.924 2.867,1.924 3.132,2.039 3.363 C 2.102 3.489,3.206 4.620,5.853 7.270 L 9.579 11.000 6.696 11.000 C 3.615 11.000,3.600 11.001,3.322 11.199 C 3.100 11.357,3.020 11.568,3.020 12.000 C 3.020 12.331,3.033 12.403,3.120 12.558 C 3.230 12.755,3.414 12.898,3.635 12.959 C 3.724 12.984,4.600 13.000,5.890 13.000 L 8.000 13.000 5.541 16.279 C 4.188 18.083,3.054 19.624,3.021 19.704 C 2.878 20.045,2.975 20.420,3.275 20.690 C 3.621 21.004,3.318 20.979,6.952 20.991 C 9.074 20.998,10.257 20.988,10.356 20.961 C 10.584 20.900,10.768 20.758,10.880 20.558 C 10.967 20.402,10.980 20.332,10.979 20.000 C 10.978 19.567,10.898 19.355,10.678 19.199 C 10.408 19.006,10.326 19.000,8.094 19.000 L 6.000 19.000 8.460 15.720 C 9.813 13.915,10.920 12.417,10.920 12.390 C 10.920 12.363,13.067 14.485,15.690 17.106 C 19.106 20.519,20.510 21.897,20.637 21.961 C 20.990 22.137,21.355 22.048,21.701 21.701 C 22.047 21.355,22.136 20.990,21.961 20.637 C 21.839 20.392,3.616 2.165,3.372 2.044 C 3.152 1.934,2.834 1.935,2.626 2.045 M13.614 3.057 C 13.377 3.131,13.212 3.261,13.109 3.453 C 13.035 3.592,13.020 3.684,13.020 4.000 C 13.020 4.331,13.033 4.403,13.120 4.558 C 13.230 4.755,13.414 4.898,13.635 4.959 C 13.724 4.984,14.600 5.000,15.890 5.000 L 18.000 5.000 15.968 7.710 C 14.851 9.200,13.906 10.497,13.868 10.591 C 13.728 10.942,13.817 11.259,14.136 11.553 C 14.353 11.752,14.684 11.919,14.864 11.920 C 14.987 11.920,14.989 11.923,15.010 12.158 C 15.048 12.571,15.272 12.859,15.635 12.959 C 15.831 13.014,20.169 13.014,20.365 12.959 C 20.586 12.898,20.770 12.755,20.880 12.558 C 20.967 12.402,20.980 12.332,20.979 12.000 C 20.978 11.567,20.898 11.355,20.678 11.199 C 20.408 11.006,20.326 11.000,18.094 11.000 L 16.000 11.000 18.458 7.723 C 20.294 5.274,20.927 4.402,20.962 4.273 C 21.024 4.047,20.985 3.646,20.883 3.445 C 20.786 3.257,20.621 3.131,20.371 3.055 C 20.109 2.977,13.866 2.979,13.614 3.057 " stroke="none" fill="black" fill-rule="evenodd"></path></svg>