<svg xmlns="http://www.w3.org/2000/svg" width="24" height="24" viewBox="0 0 24 24" fill="none" stroke="currentColor" stroke-width="2" stroke-linecap="round" stroke-linejoin="round" class="icon icon-tabler icons-tabler-outline icon-tabler-credit-card-off"><path d="M2.626 2.045 C 2.257 2.239,1.951 2.673,1.951 3.000 C 1.951 3.303,2.080 3.489,2.795 4.211 L 3.460 4.882 3.160 5.192 C 2.644 5.725,2.316 6.299,2.110 7.024 L 2.021 7.340 2.009 11.848 C 1.998 16.289,1.999 16.362,2.081 16.767 C 2.357 18.119,3.247 19.194,4.512 19.704 C 4.700 19.779,5.029 19.877,5.246 19.921 C 5.629 19.999,5.791 20.001,12.106 19.999 L 18.574 19.998 19.517 20.934 C 20.113 21.526,20.525 21.903,20.637 21.960 C 20.989 22.137,21.354 22.048,21.701 21.701 C 22.116 21.287,22.159 20.870,21.833 20.440 C 21.776 20.364,16.824 15.383,11.747 10.293 C 10.061 8.603,3.632 2.221,3.560 2.167 C 3.262 1.941,2.910 1.895,2.626 2.045 M8.614 4.057 C 8.377 4.131,8.212 4.261,8.109 4.453 C 8.035 4.592,8.020 4.684,8.020 5.000 C 8.020 5.331,8.033 5.403,8.120 5.558 C 8.230 5.755,8.414 5.898,8.635 5.959 C 8.728 5.985,10.475 6.000,13.520 6.002 C 18.805 6.005,18.536 5.991,19.017 6.281 C 19.294 6.448,19.618 6.787,19.772 7.071 C 19.964 7.426,19.999 7.705,19.999 8.910 L 20.000 10.000 17.406 10.000 C 14.637 10.000,14.597 10.003,14.322 10.199 C 14.100 10.357,14.020 10.568,14.020 11.000 C 14.020 11.331,14.033 11.403,14.120 11.558 C 14.230 11.755,14.414 11.898,14.635 11.959 C 14.725 11.984,15.765 12.000,17.390 12.000 L 20.000 12.000 19.999 14.070 C 19.999 15.975,19.993 16.170,19.920 16.520 C 19.828 16.961,19.826 17.008,19.883 17.213 C 19.983 17.572,20.393 17.837,20.902 17.871 C 21.135 17.886,21.214 17.875,21.350 17.805 C 21.656 17.649,21.823 17.325,21.939 16.658 C 21.991 16.361,22.000 15.672,22.000 11.971 C 22.000 7.800,21.997 7.618,21.921 7.243 C 21.628 5.806,20.637 4.680,19.245 4.204 C 18.660 4.004,18.565 4.000,13.500 4.003 C 9.743 4.005,8.746 4.016,8.614 4.057 M6.740 8.160 L 8.580 10.000 6.290 10.000 L 4.000 10.000 4.000 8.950 C 4.000 8.373,4.019 7.786,4.042 7.646 C 4.104 7.262,4.296 6.903,4.605 6.590 C 4.752 6.441,4.878 6.320,4.886 6.320 C 4.894 6.320,5.728 7.148,6.740 8.160 M11.580 13.000 L 12.579 14.000 11.696 14.000 C 10.757 14.000,10.561 14.028,10.322 14.199 C 10.100 14.357,10.020 14.568,10.020 15.000 C 10.020 15.331,10.033 15.403,10.120 15.558 C 10.232 15.759,10.417 15.900,10.648 15.962 C 10.746 15.989,11.280 16.000,12.092 15.992 L 13.380 15.980 13.558 15.880 C 13.716 15.792,13.791 15.711,13.940 15.464 C 13.973 15.408,14.194 15.611,15.280 16.699 L 16.580 18.000 11.158 18.000 C 5.271 18.000,5.533 18.009,5.083 17.781 C 4.816 17.646,4.449 17.297,4.281 17.017 C 4.011 16.568,4.005 16.509,4.002 14.130 L 4.000 12.000 7.290 12.000 L 10.581 12.000 11.580 13.000 M6.614 14.055 C 6.220 14.184,6.039 14.437,6.009 14.900 C 5.978 15.381,6.119 15.699,6.442 15.880 C 6.597 15.967,6.669 15.980,7.000 15.980 C 7.312 15.980,7.408 15.964,7.540 15.894 C 7.866 15.718,8.000 15.459,8.000 15.000 C 8.000 14.357,7.713 14.048,7.083 14.016 C 6.893 14.006,6.718 14.021,6.614 14.055 " stroke="none" fill="black" fill-rule="evenodd"></path></svg>