<svg xmlns="http://www.w3.org/2000/svg" width="24" height="24" viewBox="0 0 24 24" fill="none" stroke="currentColor" stroke-width="2" stroke-linecap="round" stroke-linejoin="round" class="icon icon-tabler icons-tabler-outline icon-tabler-chevron-compact-left"><path d="M12.625 3.017 C 12.438 3.086,12.258 3.250,12.158 3.446 C 12.117 3.526,11.394 5.425,10.552 7.666 C 9.112 11.497,9.021 11.755,9.021 12.000 C 9.021 12.245,9.112 12.503,10.552 16.334 C 11.394 18.575,12.117 20.476,12.159 20.558 C 12.256 20.748,12.471 20.938,12.662 21.001 C 12.957 21.098,13.499 20.936,13.780 20.666 C 14.005 20.449,14.072 20.235,14.010 19.936 C 13.985 19.817,13.313 17.983,12.517 15.860 L 11.070 12.000 12.517 8.140 C 13.313 6.017,13.985 4.183,14.010 4.064 C 14.072 3.765,14.005 3.551,13.780 3.334 C 13.491 3.057,12.936 2.904,12.625 3.017 " stroke="none" fill="black" fill-rule="evenodd"></path></svg>