<svg xmlns="http://www.w3.org/2000/svg" width="24" height="24" viewBox="0 0 24 24" fill="none" stroke="currentColor" stroke-width="2" stroke-linecap="round" stroke-linejoin="round" class="icon icon-tabler icons-tabler-outline icon-tabler-chess-bishop"><path d="M11.477 2.073 C 10.806 2.249,10.238 2.823,10.060 3.508 C 9.903 4.110,10.050 4.773,10.446 5.249 L 10.603 5.438 10.151 5.664 C 7.727 6.876,6.367 8.926,6.059 11.835 C 5.901 13.323,6.089 14.434,6.653 15.340 L 6.753 15.501 6.292 15.738 C 5.729 16.028,5.438 16.294,5.229 16.714 C 5.006 17.158,4.995 17.270,5.008 18.905 L 5.020 20.380 5.120 20.558 C 5.230 20.755,5.414 20.898,5.635 20.959 C 5.834 21.015,18.166 21.015,18.365 20.959 C 18.586 20.898,18.770 20.755,18.880 20.558 L 18.980 20.380 18.992 18.907 C 19.006 17.273,18.994 17.160,18.771 16.714 C 18.562 16.296,18.273 16.030,17.708 15.738 L 17.246 15.498 17.382 15.283 C 17.568 14.987,17.749 14.540,17.867 14.083 C 18.140 13.028,17.971 11.146,17.477 9.734 C 16.853 7.952,15.542 6.492,13.810 5.650 C 13.595 5.545,13.414 5.457,13.406 5.452 C 13.398 5.448,13.463 5.358,13.551 5.252 C 13.948 4.776,14.088 4.156,13.940 3.529 C 13.858 3.182,13.720 2.927,13.465 2.653 C 13.074 2.232,12.560 2.005,12.000 2.005 C 11.857 2.005,11.622 2.036,11.477 2.073 M12.353 7.186 C 12.708 7.326,13.187 7.567,13.464 7.744 L 13.689 7.888 12.409 9.174 C 11.054 10.536,10.951 10.665,10.951 11.000 C 10.951 11.477,11.523 12.049,12.000 12.049 C 12.335 12.049,12.465 11.945,13.803 10.613 C 14.766 9.655,15.077 9.368,15.108 9.408 C 15.215 9.545,15.447 10.019,15.575 10.365 C 15.812 11.005,16.002 12.151,15.998 12.920 C 15.994 13.782,15.600 14.592,15.040 14.885 L 14.860 14.980 12.104 14.991 C 9.045 15.003,9.098 15.007,8.752 14.743 C 8.653 14.667,8.504 14.503,8.422 14.380 C 8.056 13.830,7.957 13.306,8.033 12.326 C 8.165 10.601,8.642 9.429,9.598 8.480 C 10.137 7.945,10.870 7.481,11.660 7.176 C 11.969 7.057,12.032 7.058,12.353 7.186 M16.380 17.309 L 17.000 17.619 17.000 18.309 L 17.000 19.000 12.000 19.000 L 7.000 19.000 7.000 18.309 L 7.000 17.619 7.610 17.312 L 8.220 17.005 11.990 17.002 L 15.759 17.000 16.380 17.309 " stroke="none" fill="black" fill-rule="evenodd"></path></svg>