<svg xmlns="http://www.w3.org/2000/svg" width="24" height="24" viewBox="0 0 24 24" fill="none" stroke="currentColor" stroke-width="2" stroke-linecap="round" stroke-linejoin="round" class="icon icon-tabler icons-tabler-outline icon-tabler-arrow-wave-right-up"><path d="M18.719 8.999 L 16.658 9.020 16.459 9.122 C 16.119 9.297,15.978 9.606,16.009 10.104 C 16.038 10.563,16.250 10.852,16.635 10.959 C 16.715 10.981,17.185 11.000,17.680 11.001 L 18.580 11.003 18.180 11.391 C 17.960 11.605,17.618 11.902,17.420 12.050 C 16.951 12.403,16.127 12.814,15.680 12.919 C 14.894 13.105,13.942 12.970,13.145 12.561 C 12.608 12.285,12.259 11.976,11.740 11.317 C 10.816 10.146,9.662 9.422,8.228 9.113 C 7.635 8.985,6.365 8.985,5.772 9.113 C 4.412 9.406,3.203 10.136,2.387 11.160 C 1.979 11.671,1.867 12.051,2.024 12.382 C 2.177 12.706,2.698 13.039,3.052 13.040 C 3.313 13.040,3.516 12.927,3.747 12.652 C 3.853 12.526,4.048 12.308,4.180 12.167 C 5.308 10.964,7.268 10.650,8.814 11.425 C 9.384 11.710,9.742 12.021,10.262 12.683 C 11.393 14.122,12.911 14.913,14.688 14.987 C 15.828 15.035,16.703 14.813,17.760 14.208 C 18.426 13.827,18.830 13.519,19.570 12.833 L 20.000 12.434 20.000 13.327 C 20.000 13.818,20.019 14.285,20.041 14.365 C 20.148 14.750,20.437 14.962,20.896 14.991 C 21.381 15.022,21.699 14.882,21.880 14.558 L 21.980 14.380 22.008 12.220 C 22.023 11.032,22.036 10.001,22.038 9.929 C 22.041 9.739,21.834 9.310,21.690 9.207 C 21.467 9.048,21.205 8.959,20.987 8.969 C 20.873 8.974,19.852 8.987,18.719 8.999 " stroke="none" fill="black" fill-rule="evenodd"></path></svg>