<svg xmlns="http://www.w3.org/2000/svg" width="24" height="24" viewBox="0 0 24 24" fill="none" stroke="currentColor" stroke-width="2" stroke-linecap="round" stroke-linejoin="round" class="icon icon-tabler icons-tabler-outline icon-tabler-garden-cart-off"><path d="M2.626 2.045 C 2.323 2.205,2.021 2.574,1.962 2.856 C 1.941 2.959,1.910 2.980,1.696 3.039 C 1.200 3.174,1.020 3.431,1.020 4.001 C 1.020 4.444,1.130 4.681,1.419 4.860 L 1.614 4.980 2.475 5.000 L 3.336 5.020 4.168 7.099 L 5.000 9.179 5.000 14.219 C 5.001 19.687,4.991 19.436,5.221 19.905 C 5.610 20.701,6.603 21.161,7.455 20.940 C 7.796 20.851,8.090 20.699,8.317 20.495 C 8.442 20.383,9.179 19.404,10.237 17.947 C 11.182 16.645,11.979 15.548,12.008 15.508 C 12.060 15.439,12.105 15.440,13.153 15.551 C 14.124 15.653,14.252 15.675,14.328 15.750 L 14.413 15.835 14.306 16.074 C 14.091 16.552,14.025 16.890,14.025 17.500 C 14.025 17.954,14.042 18.121,14.113 18.380 C 14.395 19.402,15.073 20.217,16.010 20.661 C 16.519 20.902,16.864 20.975,17.500 20.975 C 18.110 20.975,18.448 20.908,18.924 20.695 L 19.163 20.588 19.811 21.228 C 20.188 21.601,20.534 21.907,20.637 21.959 C 20.988 22.137,21.354 22.049,21.701 21.701 C 22.116 21.286,22.159 20.869,21.832 20.440 C 21.791 20.385,18.849 17.424,15.295 13.860 C 11.742 10.296,8.795 7.340,8.747 7.292 C 8.699 7.244,7.508 6.062,6.100 4.667 C 4.415 2.996,3.482 2.100,3.372 2.044 C 3.152 1.934,2.835 1.935,2.626 2.045 M11.614 7.057 C 11.377 7.131,11.212 7.261,11.109 7.453 C 11.035 7.592,11.020 7.684,11.020 8.000 C 11.020 8.331,11.033 8.403,11.120 8.558 C 11.230 8.755,11.414 8.898,11.635 8.959 C 11.728 8.985,13.154 9.000,15.570 9.000 C 17.655 9.000,19.360 9.008,19.360 9.019 C 19.360 9.029,18.828 10.104,18.178 11.409 C 16.889 13.994,16.880 14.018,17.017 14.378 C 17.100 14.595,17.295 14.772,17.617 14.925 C 18.038 15.124,18.421 15.069,18.682 14.772 C 18.749 14.695,19.519 13.202,20.392 11.454 L 21.980 8.276 21.978 7.948 C 21.974 7.436,21.804 7.185,21.371 7.055 C 21.108 6.976,11.867 6.978,11.614 7.057 M9.780 11.200 C 11.561 12.981,11.961 13.400,11.880 13.400 C 11.704 13.399,10.376 13.244,10.195 13.203 C 9.298 13.000,8.556 12.425,8.147 11.615 C 8.063 11.449,7.656 10.452,7.156 9.190 L 7.081 9.000 7.331 9.000 L 7.580 9.000 9.780 11.200 M7.640 14.125 C 8.135 14.542,8.741 14.867,9.388 15.063 C 9.582 15.121,9.745 15.174,9.752 15.180 C 9.763 15.190,7.112 18.857,7.036 18.938 C 7.015 18.961,7.000 17.866,7.000 16.240 L 7.000 13.504 7.210 13.722 C 7.325 13.842,7.519 14.024,7.640 14.125 M16.800 18.225 L 17.580 19.009 17.348 18.987 C 16.852 18.940,16.370 18.598,16.155 18.140 C 16.060 17.938,15.953 17.440,16.005 17.440 C 16.014 17.440,16.372 17.793,16.800 18.225 " stroke="none" fill="black" fill-rule="evenodd"></path></svg>