<svg xmlns="http://www.w3.org/2000/svg" width="24" height="24" viewBox="0 0 24 24" fill="none" stroke="currentColor" stroke-width="2" stroke-linecap="round" stroke-linejoin="round" class="icon icon-tabler icons-tabler-outline icon-tabler-feather"><path d="M15.880 3.042 C 15.192 3.127,14.343 3.464,13.799 3.867 C 13.656 3.973,13.463 4.109,13.371 4.170 C 13.278 4.230,13.176 4.329,13.144 4.390 C 13.112 4.450,12.243 5.334,11.213 6.352 C 10.183 7.371,9.301 8.244,9.253 8.292 C 9.205 8.341,8.350 9.205,7.353 10.213 C 6.356 11.221,5.461 12.101,5.365 12.168 C 5.166 12.307,4.958 12.702,4.963 12.929 C 4.965 13.001,4.975 14.075,4.985 15.317 L 5.003 17.573 4.067 18.517 C 3.069 19.521,2.951 19.679,2.951 20.000 C 2.951 20.477,3.523 21.049,4.000 21.049 C 4.321 21.049,4.479 20.931,5.483 19.933 L 6.427 18.997 8.683 19.015 C 9.925 19.025,11.001 19.035,11.075 19.036 C 11.291 19.041,11.721 18.809,11.847 18.620 C 11.906 18.532,12.779 17.645,13.787 16.648 C 14.795 15.651,15.674 14.782,15.740 14.715 C 17.106 13.347,19.650 10.807,19.740 10.724 C 19.806 10.662,19.896 10.556,19.940 10.487 C 19.984 10.418,20.105 10.238,20.210 10.086 C 21.249 8.574,21.258 6.562,20.233 5.000 C 19.998 4.643,19.455 4.088,19.098 3.841 C 18.569 3.476,17.995 3.228,17.383 3.102 C 16.990 3.021,16.279 2.993,15.880 3.042 M17.240 5.116 C 17.987 5.352,18.652 6.017,18.882 6.757 C 19.072 7.369,19.012 8.116,18.729 8.678 L 18.576 8.980 16.788 8.990 L 14.999 9.001 15.010 7.212 L 15.020 5.424 15.324 5.271 C 15.491 5.186,15.752 5.091,15.904 5.060 C 16.277 4.982,16.900 5.008,17.240 5.116 M12.001 10.579 L 11.000 11.580 11.000 10.500 L 11.000 9.421 11.990 8.430 L 12.980 7.439 12.991 8.509 L 13.001 9.578 12.001 10.579 M15.580 12.000 L 14.581 13.000 13.501 13.000 L 12.421 13.000 13.420 12.000 L 14.419 11.000 15.499 11.000 L 16.579 11.000 15.580 12.000 M8.001 14.579 L 7.000 15.580 7.000 14.500 L 7.000 13.421 7.990 12.430 L 8.980 11.439 8.991 12.509 L 9.001 13.578 8.001 14.579 M11.580 16.000 L 10.581 17.000 9.501 17.000 L 8.421 17.000 9.420 16.000 L 10.419 15.000 11.499 15.000 L 12.579 15.000 11.580 16.000 " stroke="none" fill="black" fill-rule="evenodd"></path></svg>