<svg xmlns="http://www.w3.org/2000/svg" width="24" height="24" viewBox="0 0 24 24" fill="none" stroke="currentColor" stroke-width="2" stroke-linecap="round" stroke-linejoin="round" class="icon icon-tabler icons-tabler-outline icon-tabler-play-card"><path d="M6.499 2.043 C 5.379 2.233,4.461 3.048,4.114 4.160 L 4.020 4.460 4.020 12.000 L 4.020 19.540 4.114 19.840 C 4.422 20.827,5.173 21.578,6.160 21.886 L 6.460 21.980 12.000 21.980 L 17.540 21.980 17.840 21.886 C 18.827 21.578,19.578 20.827,19.886 19.840 L 19.980 19.540 19.980 12.000 L 19.980 4.460 19.886 4.160 C 19.581 3.182,18.832 2.428,17.861 2.121 L 17.540 2.020 12.120 2.014 C 9.139 2.011,6.609 2.024,6.499 2.043 M17.310 4.061 C 17.589 4.144,17.856 4.411,17.939 4.690 C 17.993 4.870,18.000 5.755,18.000 12.001 C 18.000 17.907,17.991 19.138,17.945 19.290 C 17.872 19.533,17.707 19.740,17.484 19.872 L 17.300 19.980 12.000 19.980 L 6.700 19.980 6.516 19.872 C 6.415 19.813,6.284 19.700,6.225 19.623 C 5.986 19.309,6.000 19.795,6.000 12.022 C 6.000 4.005,5.975 4.631,6.304 4.303 C 6.621 3.985,6.234 4.006,11.983 4.003 C 16.458 4.000,17.131 4.008,17.310 4.061 M7.614 5.055 C 7.220 5.184,7.039 5.437,7.009 5.900 C 6.978 6.381,7.119 6.699,7.442 6.880 C 7.597 6.967,7.669 6.980,8.000 6.980 C 8.312 6.980,8.408 6.964,8.540 6.894 C 8.866 6.718,9.000 6.459,9.000 6.000 C 9.000 5.357,8.713 5.048,8.083 5.016 C 7.893 5.006,7.718 5.021,7.614 5.055 M11.535 7.090 C 11.377 7.195,11.033 7.628,9.732 9.360 C 8.847 10.537,8.092 11.569,8.054 11.654 C 7.965 11.850,7.965 12.150,8.054 12.346 C 8.092 12.431,8.847 13.463,9.732 14.640 L 11.340 16.780 11.593 16.910 C 11.785 17.008,11.898 17.040,12.059 17.040 C 12.461 17.040,12.482 17.016,14.268 14.640 C 15.153 13.463,15.908 12.431,15.946 12.346 C 15.984 12.262,16.015 12.106,16.015 12.000 C 16.015 11.894,15.984 11.738,15.946 11.654 C 15.908 11.569,15.153 10.537,14.268 9.360 L 12.660 7.220 12.407 7.090 C 12.055 6.910,11.804 6.910,11.535 7.090 M12.860 10.809 C 13.322 11.428,13.700 11.964,13.700 12.000 C 13.700 12.061,12.045 14.317,12.000 14.317 C 11.955 14.317,10.300 12.061,10.300 12.000 C 10.300 11.939,11.955 9.683,12.000 9.683 C 12.011 9.683,12.398 10.190,12.860 10.809 M15.614 17.055 C 15.220 17.184,15.039 17.437,15.009 17.900 C 14.978 18.381,15.119 18.699,15.442 18.880 C 15.597 18.967,15.669 18.980,16.000 18.980 C 16.312 18.980,16.408 18.964,16.540 18.894 C 16.866 18.718,17.000 18.459,17.000 18.000 C 17.000 17.357,16.713 17.048,16.083 17.016 C 15.893 17.006,15.718 17.021,15.614 17.055 " stroke="none" fill="black" fill-rule="evenodd"></path></svg>