<svg xmlns="http://www.w3.org/2000/svg" width="24" height="24" viewBox="0 0 24 24" fill="none" stroke="currentColor" stroke-width="2" stroke-linecap="round" stroke-linejoin="round" class="icon icon-tabler icons-tabler-outline icon-tabler-plug"><path d="M14.620 3.046 C 14.527 3.095,13.818 3.768,12.919 4.664 L 11.378 6.199 10.839 5.659 C 10.539 5.358,10.228 5.083,10.137 5.039 C 9.921 4.934,9.635 4.937,9.416 5.046 C 9.148 5.180,6.533 7.834,6.190 8.320 C 4.601 10.573,4.545 13.669,6.053 15.960 L 6.277 16.300 4.703 17.880 C 3.640 18.947,3.100 19.518,3.040 19.637 C 2.863 19.989,2.952 20.354,3.299 20.701 C 3.646 21.048,4.011 21.137,4.363 20.960 C 4.482 20.900,5.053 20.360,6.120 19.297 L 7.700 17.723 8.040 17.947 C 10.032 19.258,12.686 19.404,14.823 18.320 C 15.664 17.894,15.931 17.674,17.470 16.145 C 18.958 14.667,19.047 14.559,19.047 14.220 C 19.047 13.927,18.922 13.740,18.341 13.161 L 17.801 12.622 19.336 11.081 C 20.370 10.042,20.900 9.482,20.960 9.363 C 21.137 9.011,21.048 8.646,20.701 8.299 C 20.361 7.959,19.980 7.868,19.628 8.044 C 19.520 8.099,18.910 8.677,17.920 9.664 L 16.380 11.199 14.590 9.410 L 12.801 7.621 14.336 6.081 C 15.370 5.042,15.900 4.482,15.960 4.363 C 16.137 4.011,16.048 3.646,15.701 3.299 C 15.361 2.959,14.967 2.867,14.620 3.046 M13.190 10.810 C 15.043 12.663,16.560 14.200,16.560 14.225 C 16.560 14.299,14.928 15.874,14.601 16.117 C 12.931 17.355,10.560 17.352,8.902 16.110 C 7.674 15.190,6.960 13.769,6.960 12.245 C 6.961 11.155,7.293 10.173,7.956 9.302 C 8.177 9.012,9.713 7.440,9.775 7.440 C 9.800 7.440,11.336 8.956,13.190 10.810 " stroke="none" fill="black" fill-rule="evenodd"></path></svg>