<svg xmlns="http://www.w3.org/2000/svg" width="24" height="24" viewBox="0 0 24 24" fill="none" stroke="currentColor" stroke-width="2" stroke-linecap="round" stroke-linejoin="round" class="icon icon-tabler icons-tabler-outline icon-tabler-corner-down-right-double"><path d="M3.614 4.057 C 3.377 4.131,3.212 4.261,3.109 4.453 L 3.020 4.620 3.009 7.989 C 2.999 11.271,3.000 11.370,3.082 11.768 C 3.357 13.119,4.247 14.194,5.512 14.704 C 6.225 14.991,6.334 15.000,9.105 15.000 L 11.577 15.000 10.353 16.230 C 9.548 17.039,9.099 17.521,9.040 17.637 C 8.863 17.989,8.952 18.354,9.299 18.701 C 9.646 19.048,10.011 19.137,10.363 18.960 C 10.484 18.899,11.182 18.234,12.561 16.866 C 13.673 15.763,14.634 14.826,14.696 14.784 C 14.850 14.682,15.049 14.239,15.049 14.000 C 15.049 13.745,14.851 13.321,14.676 13.201 C 14.601 13.150,13.640 12.213,12.540 11.118 C 11.232 9.817,10.482 9.099,10.372 9.044 C 10.020 8.868,9.639 8.959,9.299 9.299 C 8.952 9.646,8.863 10.011,9.040 10.363 C 9.099 10.479,9.548 10.961,10.353 11.770 L 11.577 13.000 9.157 13.000 C 6.546 13.000,6.509 12.997,6.088 12.784 C 5.675 12.575,5.242 12.071,5.090 11.623 C 5.028 11.440,5.020 11.091,5.001 8.020 L 4.980 4.620 4.891 4.453 C 4.842 4.362,4.746 4.247,4.678 4.199 C 4.414 4.010,3.957 3.950,3.614 4.057 M14.626 9.045 C 14.420 9.154,14.146 9.433,14.038 9.644 C 13.924 9.868,13.924 10.133,14.040 10.363 C 14.100 10.483,14.679 11.092,15.853 12.270 L 17.578 14.000 15.853 15.730 C 14.679 16.908,14.100 17.517,14.040 17.637 C 13.863 17.989,13.952 18.354,14.299 18.701 C 14.645 19.048,15.010 19.137,15.363 18.961 C 15.612 18.836,19.836 14.612,19.961 14.363 C 20.014 14.256,20.049 14.111,20.049 14.000 C 20.049 13.889,20.014 13.744,19.961 13.637 C 19.840 13.396,15.612 9.164,15.372 9.044 C 15.152 8.934,14.835 8.935,14.626 9.045 " stroke="none" fill="black" fill-rule="evenodd"></path></svg>