<svg xmlns="http://www.w3.org/2000/svg" width="24" height="24" viewBox="0 0 24 24" fill="none" stroke="currentColor" stroke-width="2" stroke-linecap="round" stroke-linejoin="round" class="icon icon-tabler icons-tabler-outline icon-tabler-bong"><path d="M7.614 2.057 C 7.223 2.180,7.039 2.436,7.009 2.900 C 6.968 3.532,7.251 3.922,7.797 3.987 L 8.000 4.011 8.000 7.404 L 8.000 10.796 7.710 10.983 C 6.404 11.826,5.436 13.255,5.117 14.812 C 4.576 17.450,5.929 20.199,8.340 21.363 C 9.199 21.778,9.874 21.952,10.760 21.987 C 12.866 22.070,14.812 21.075,16.003 19.307 C 17.001 17.824,17.273 15.803,16.701 14.122 L 16.599 13.823 18.235 12.182 C 19.344 11.069,19.900 10.483,19.960 10.363 C 20.076 10.132,20.076 9.869,19.960 9.637 C 19.842 9.400,17.608 7.162,17.372 7.044 C 17.149 6.933,16.850 6.933,16.628 7.045 C 16.523 7.098,15.999 7.588,15.230 8.353 L 14.000 9.577 14.000 6.794 L 14.000 4.011 14.197 3.988 C 14.539 3.947,14.754 3.805,14.904 3.520 C 15.018 3.305,15.009 2.679,14.890 2.453 C 14.786 2.256,14.623 2.131,14.371 2.055 C 14.109 1.977,7.866 1.979,7.614 2.057 M12.009 7.870 L 12.020 11.740 12.127 11.923 C 12.250 12.131,12.413 12.253,12.840 12.455 C 13.233 12.641,13.415 12.668,13.686 12.579 C 13.884 12.514,14.013 12.397,15.451 10.966 L 17.001 9.422 17.290 9.711 L 17.579 10.000 16.054 11.530 C 15.215 12.371,14.496 13.123,14.456 13.200 C 14.409 13.290,14.384 13.425,14.384 13.580 C 14.384 13.784,14.415 13.887,14.593 14.271 C 14.819 14.759,14.941 15.201,14.984 15.690 L 15.011 16.000 11.000 16.000 L 6.989 16.000 7.017 15.691 C 7.081 14.987,7.279 14.408,7.659 13.820 C 8.056 13.205,8.549 12.762,9.199 12.438 C 9.642 12.217,9.746 12.137,9.874 11.920 L 9.980 11.740 9.991 7.870 L 10.002 4.000 11.000 4.000 L 11.998 4.000 12.009 7.870 M14.440 18.022 C 14.440 18.096,14.059 18.585,13.802 18.841 C 13.098 19.543,12.201 19.935,11.180 19.987 C 9.818 20.056,8.476 19.393,7.717 18.276 C 7.631 18.149,7.560 18.034,7.560 18.022 C 7.560 18.010,9.108 18.000,11.000 18.000 C 12.892 18.000,14.440 18.010,14.440 18.022 " stroke="none" fill="black" fill-rule="evenodd"></path></svg>