<svg xmlns="http://www.w3.org/2000/svg" width="24" height="24" viewBox="0 0 24 24" fill="none" stroke="currentColor" stroke-width="2" stroke-linecap="round" stroke-linejoin="round" class="icon icon-tabler icons-tabler-outline icon-tabler-screenshot"><path d="M6.499 4.043 C 5.391 4.229,4.455 5.054,4.122 6.140 C 4.018 6.479,3.972 7.113,4.035 7.344 C 4.146 7.749,4.428 7.961,4.896 7.991 C 5.592 8.035,5.918 7.762,5.996 7.072 C 6.044 6.653,6.106 6.497,6.301 6.301 C 6.497 6.106,6.660 6.041,7.062 6.000 C 7.535 5.951,7.738 5.836,7.904 5.520 C 8.018 5.305,8.009 4.679,7.890 4.453 C 7.687 4.070,7.198 3.926,6.499 4.043 M10.614 4.057 C 10.377 4.131,10.212 4.261,10.109 4.453 C 10.035 4.592,10.020 4.684,10.020 5.000 C 10.020 5.331,10.033 5.403,10.120 5.558 C 10.230 5.755,10.414 5.898,10.635 5.959 C 10.826 6.012,13.174 6.012,13.365 5.959 C 13.586 5.898,13.770 5.755,13.880 5.558 C 13.967 5.402,13.980 5.332,13.979 5.000 C 13.978 4.687,13.962 4.591,13.890 4.453 C 13.786 4.256,13.623 4.131,13.371 4.055 C 13.117 3.979,10.859 3.981,10.614 4.057 M16.614 4.055 C 16.220 4.184,16.039 4.437,16.009 4.900 C 15.965 5.591,16.248 5.929,16.933 5.999 C 17.340 6.041,17.503 6.105,17.699 6.301 C 17.895 6.497,17.959 6.660,18.001 7.067 C 18.068 7.718,18.370 8.000,19.000 8.000 C 19.428 8.000,19.713 7.856,19.880 7.558 C 19.971 7.396,19.980 7.338,19.979 6.920 C 19.978 6.555,19.959 6.398,19.885 6.160 C 19.583 5.181,18.809 4.405,17.861 4.129 C 17.459 4.013,16.851 3.976,16.614 4.055 M4.614 10.057 C 4.377 10.131,4.212 10.261,4.109 10.453 C 4.023 10.614,4.020 10.665,4.008 11.908 C 4.000 12.720,4.011 13.254,4.038 13.352 C 4.144 13.747,4.432 13.961,4.896 13.991 C 5.381 14.022,5.699 13.882,5.880 13.558 L 5.980 13.380 5.980 12.000 C 5.980 10.650,5.978 10.616,5.891 10.453 C 5.842 10.362,5.746 10.247,5.678 10.199 C 5.414 10.010,4.957 9.950,4.614 10.057 M18.614 10.057 C 18.377 10.131,18.212 10.261,18.109 10.453 C 18.023 10.614,18.020 10.665,18.008 11.908 C 18.000 12.720,18.011 13.254,18.038 13.352 C 18.144 13.747,18.432 13.961,18.896 13.991 C 19.381 14.022,19.699 13.882,19.880 13.558 L 19.980 13.380 19.980 12.000 C 19.980 10.650,19.978 10.616,19.891 10.453 C 19.842 10.362,19.746 10.247,19.678 10.199 C 19.414 10.010,18.957 9.950,18.614 10.057 M4.614 16.057 C 4.377 16.131,4.212 16.261,4.109 16.453 C 3.979 16.696,3.983 17.409,4.115 17.840 C 4.415 18.814,5.178 19.583,6.140 19.878 C 6.479 19.982,7.113 20.028,7.344 19.965 C 7.584 19.899,7.767 19.761,7.880 19.558 C 7.967 19.402,7.980 19.332,7.979 19.000 C 7.978 18.687,7.962 18.591,7.890 18.453 C 7.737 18.164,7.521 18.052,7.007 17.999 C 6.627 17.959,6.398 17.849,6.226 17.625 C 6.076 17.428,6.036 17.306,5.996 16.929 C 5.956 16.552,5.858 16.327,5.678 16.199 C 5.414 16.010,4.957 15.950,4.614 16.057 M18.614 16.057 C 18.377 16.131,18.212 16.261,18.109 16.453 C 18.029 16.603,18.019 16.689,18.007 17.310 L 17.993 18.000 17.403 18.000 C 16.577 18.000,16.299 18.097,16.109 18.453 C 16.035 18.592,16.020 18.684,16.020 19.000 C 16.020 19.331,16.033 19.403,16.120 19.558 C 16.230 19.755,16.414 19.898,16.635 19.959 C 16.715 19.981,17.055 20.000,17.390 20.000 L 18.000 20.000 18.000 20.610 C 18.000 20.946,18.019 21.285,18.041 21.365 C 18.148 21.750,18.437 21.962,18.896 21.991 C 19.381 22.022,19.699 21.882,19.880 21.558 C 19.974 21.391,19.981 21.338,19.994 20.690 L 20.008 20.000 20.614 20.000 C 20.947 20.000,21.285 19.981,21.365 19.959 C 21.586 19.898,21.770 19.755,21.880 19.558 C 21.967 19.402,21.980 19.332,21.979 19.000 C 21.978 18.687,21.962 18.591,21.890 18.453 C 21.702 18.098,21.423 18.000,20.598 18.000 L 20.008 18.000 19.993 17.310 C 19.976 16.541,19.930 16.378,19.678 16.199 C 19.414 16.010,18.957 15.950,18.614 16.057 M10.614 18.057 C 10.377 18.131,10.212 18.261,10.109 18.453 C 10.035 18.592,10.020 18.684,10.020 19.000 C 10.020 19.331,10.033 19.403,10.120 19.558 C 10.230 19.755,10.414 19.898,10.635 19.959 C 10.826 20.012,13.174 20.012,13.365 19.959 C 13.586 19.898,13.770 19.755,13.880 19.558 C 13.967 19.402,13.980 19.332,13.979 19.000 C 13.978 18.687,13.962 18.591,13.890 18.453 C 13.786 18.256,13.623 18.131,13.371 18.055 C 13.117 17.979,10.859 17.981,10.614 18.057 " stroke="none" fill="black" fill-rule="evenodd"></path></svg>