<svg xmlns="http://www.w3.org/2000/svg" width="24" height="24" viewBox="0 0 24 24" fill="none" stroke="currentColor" stroke-width="2" stroke-linecap="round" stroke-linejoin="round" class="icon icon-tabler icons-tabler-outline icon-tabler-exclamation-mark-off"><path d="M2.626 2.045 C 2.420 2.154,2.146 2.433,2.038 2.644 C 1.924 2.867,1.924 3.132,2.039 3.363 C 2.103 3.489,3.394 4.807,6.564 7.980 L 11.000 12.421 11.000 13.820 C 11.000 14.635,11.017 15.281,11.041 15.365 C 11.148 15.750,11.437 15.962,11.896 15.991 C 12.381 16.022,12.700 15.881,12.878 15.559 C 12.963 15.406,12.979 15.317,12.993 14.906 L 13.010 14.431 16.735 18.152 C 19.382 20.795,20.511 21.898,20.637 21.961 C 20.990 22.137,21.355 22.048,21.701 21.701 C 22.048 21.355,22.137 20.990,21.961 20.637 C 21.885 20.486,18.837 17.395,12.747 11.293 C 8.533 7.070,3.506 2.111,3.372 2.044 C 3.152 1.934,2.835 1.935,2.626 2.045 M11.614 4.057 C 11.377 4.131,11.212 4.261,11.109 4.453 C 11.021 4.618,11.020 4.647,11.008 6.410 C 11.001 7.557,11.012 8.255,11.038 8.354 C 11.144 8.747,11.433 8.961,11.896 8.991 C 12.381 9.022,12.699 8.882,12.880 8.558 L 12.980 8.380 12.980 6.500 C 12.980 4.633,12.979 4.619,12.891 4.453 C 12.842 4.362,12.746 4.247,12.678 4.199 C 12.414 4.010,11.957 3.950,11.614 4.057 M11.614 18.057 C 11.221 18.180,11.039 18.435,11.009 18.906 C 10.962 19.621,11.306 20.000,12.000 20.000 C 12.698 20.000,13.043 19.616,12.989 18.900 C 12.963 18.563,12.859 18.327,12.678 18.199 C 12.414 18.010,11.957 17.950,11.614 18.057 " stroke="none" fill="black" fill-rule="evenodd"></path></svg>