<svg xmlns="http://www.w3.org/2000/svg" width="24" height="24" viewBox="0 0 24 24" fill="none" stroke="currentColor" stroke-width="2" stroke-linecap="round" stroke-linejoin="round" class="icon icon-tabler icons-tabler-outline icon-tabler-text-plus"><path d="M4.614 5.057 C 4.377 5.131,4.212 5.261,4.109 5.453 C 4.035 5.592,4.020 5.684,4.020 6.000 C 4.020 6.331,4.033 6.403,4.120 6.558 C 4.230 6.755,4.414 6.898,4.635 6.959 C 4.835 7.015,19.165 7.015,19.365 6.959 C 19.586 6.898,19.770 6.755,19.880 6.558 C 19.967 6.402,19.980 6.332,19.979 6.000 C 19.978 5.567,19.898 5.355,19.678 5.199 C 19.387 4.991,19.720 5.000,11.984 5.003 C 6.188 5.005,4.747 5.016,4.614 5.057 M4.614 9.057 C 4.377 9.131,4.212 9.261,4.109 9.453 C 4.035 9.592,4.020 9.684,4.020 10.000 C 4.020 10.331,4.033 10.403,4.120 10.558 C 4.230 10.755,4.414 10.898,4.635 10.959 C 4.835 11.015,19.165 11.015,19.365 10.959 C 19.586 10.898,19.770 10.755,19.880 10.558 C 19.967 10.402,19.980 10.332,19.979 10.000 C 19.978 9.567,19.898 9.355,19.678 9.199 C 19.387 8.991,19.720 9.000,11.984 9.003 C 6.188 9.005,4.747 9.016,4.614 9.057 M4.614 13.057 C 4.377 13.131,4.212 13.261,4.109 13.453 C 4.035 13.592,4.020 13.684,4.020 14.000 C 4.020 14.331,4.033 14.403,4.120 14.558 C 4.230 14.755,4.414 14.898,4.635 14.959 C 4.834 15.014,14.166 15.014,14.365 14.959 C 14.586 14.898,14.770 14.755,14.880 14.558 C 14.967 14.402,14.980 14.332,14.979 14.000 C 14.978 13.567,14.898 13.355,14.678 13.199 C 14.392 12.995,14.526 13.000,9.484 13.003 C 5.740 13.005,4.746 13.016,4.614 13.057 M17.614 14.057 C 17.377 14.131,17.212 14.261,17.109 14.453 C 17.024 14.613,17.020 14.668,17.008 15.810 L 16.996 17.000 15.904 17.000 C 14.744 17.000,14.570 17.022,14.322 17.199 C 14.100 17.357,14.020 17.568,14.020 18.000 C 14.020 18.331,14.033 18.403,14.120 18.558 C 14.230 18.755,14.414 18.898,14.635 18.959 C 14.716 18.982,15.270 19.000,15.890 19.000 L 17.000 19.000 17.000 20.110 C 17.000 20.730,17.018 21.284,17.041 21.365 C 17.148 21.750,17.437 21.962,17.896 21.991 C 18.381 22.022,18.699 21.882,18.880 21.558 C 18.979 21.381,18.980 21.374,18.993 20.190 L 19.005 19.000 20.113 19.000 C 20.731 19.000,21.284 18.982,21.365 18.959 C 21.586 18.898,21.770 18.755,21.880 18.558 C 21.967 18.402,21.980 18.332,21.979 18.000 C 21.978 17.567,21.898 17.355,21.678 17.199 C 21.430 17.022,21.256 17.000,20.096 17.000 L 19.005 17.000 18.993 15.810 C 18.981 14.669,18.976 14.613,18.891 14.453 C 18.842 14.362,18.746 14.247,18.678 14.199 C 18.414 14.010,17.957 13.950,17.614 14.057 M4.614 17.057 C 4.377 17.131,4.212 17.261,4.109 17.453 C 4.035 17.592,4.020 17.684,4.020 18.000 C 4.020 18.331,4.033 18.403,4.120 18.558 C 4.230 18.755,4.414 18.898,4.635 18.959 C 4.832 19.014,11.168 19.014,11.365 18.959 C 11.586 18.898,11.770 18.755,11.880 18.558 C 11.967 18.402,11.980 18.332,11.979 18.000 C 11.978 17.567,11.898 17.355,11.678 17.199 C 11.398 16.999,11.411 17.000,7.984 17.003 C 5.472 17.005,4.744 17.017,4.614 17.057 " stroke="none" fill="black" fill-rule="evenodd"></path></svg>