<svg xmlns="http://www.w3.org/2000/svg" width="24" height="24" viewBox="0 0 24 24" fill="none" stroke="currentColor" stroke-width="2" stroke-linecap="round" stroke-linejoin="round" class="icon icon-tabler icons-tabler-outline icon-tabler-topology-ring-3"><path d="M5.499 3.040 C 4.363 3.246,3.460 4.049,3.114 5.160 C 2.979 5.594,2.979 6.406,3.114 6.840 C 3.365 7.645,3.931 8.318,4.670 8.688 L 5.000 8.853 5.000 11.999 L 5.000 15.145 4.670 15.313 C 3.922 15.693,3.365 16.355,3.114 17.160 C 2.979 17.594,2.979 18.406,3.114 18.840 C 3.421 19.826,4.174 20.579,5.160 20.886 C 5.594 21.021,6.406 21.021,6.840 20.886 C 7.645 20.635,8.318 20.069,8.688 19.330 L 8.853 19.000 12.000 19.000 L 15.147 19.000 15.312 19.330 C 15.682 20.069,16.355 20.635,17.160 20.886 C 17.412 20.964,17.547 20.979,18.000 20.979 C 18.453 20.979,18.588 20.964,18.840 20.886 C 19.826 20.579,20.579 19.826,20.886 18.840 C 20.964 18.588,20.979 18.453,20.979 18.000 C 20.979 17.547,20.964 17.412,20.886 17.160 C 20.635 16.355,20.078 15.693,19.330 15.313 L 19.000 15.145 19.000 11.999 L 19.000 8.853 19.330 8.688 C 20.069 8.318,20.635 7.645,20.886 6.840 C 21.021 6.406,21.021 5.594,20.886 5.160 C 20.581 4.181,19.822 3.418,18.861 3.125 C 18.588 3.042,18.458 3.027,18.000 3.027 C 17.542 3.027,17.412 3.042,17.139 3.125 C 16.358 3.363,15.679 3.938,15.312 4.670 L 15.147 5.000 12.000 5.000 L 8.853 5.000 8.688 4.670 C 8.320 3.935,7.631 3.354,6.861 3.129 C 6.500 3.023,5.832 2.980,5.499 3.040 M6.310 5.061 C 6.688 5.173,7.000 5.598,7.000 6.001 C 7.000 6.331,6.784 6.696,6.484 6.872 C 6.328 6.963,6.254 6.980,6.000 6.980 C 5.746 6.980,5.672 6.963,5.516 6.872 C 4.935 6.530,4.833 5.774,5.304 5.303 C 5.583 5.024,5.916 4.944,6.310 5.061 M18.310 5.061 C 18.688 5.173,19.000 5.598,19.000 6.001 C 19.000 6.331,18.784 6.696,18.484 6.872 C 18.328 6.963,18.254 6.980,18.000 6.980 C 17.746 6.980,17.672 6.963,17.516 6.872 C 16.935 6.530,16.833 5.774,17.304 5.303 C 17.583 5.024,17.916 4.944,18.310 5.061 M15.312 7.330 C 15.403 7.511,15.567 7.764,15.677 7.891 C 15.984 8.247,16.308 8.506,16.670 8.688 L 17.000 8.853 17.000 11.999 L 17.000 15.145 16.670 15.313 C 16.091 15.607,15.597 16.102,15.312 16.670 L 15.147 17.000 12.000 17.000 L 8.853 17.000 8.688 16.670 C 8.403 16.102,7.909 15.607,7.330 15.313 L 7.000 15.145 7.000 11.999 L 7.000 8.853 7.330 8.688 C 7.900 8.403,8.403 7.900,8.688 7.330 L 8.853 7.000 12.000 7.000 L 15.147 7.000 15.312 7.330 M6.310 17.061 C 6.688 17.173,7.000 17.598,7.000 18.001 C 7.000 18.331,6.784 18.696,6.484 18.872 C 6.328 18.963,6.254 18.980,6.000 18.980 C 5.746 18.980,5.672 18.963,5.516 18.872 C 4.935 18.530,4.833 17.774,5.304 17.303 C 5.583 17.024,5.916 16.944,6.310 17.061 M18.310 17.061 C 18.688 17.173,19.000 17.598,19.000 18.001 C 19.000 18.331,18.784 18.696,18.484 18.872 C 18.328 18.963,18.254 18.980,18.000 18.980 C 17.746 18.980,17.672 18.963,17.516 18.872 C 16.935 18.530,16.833 17.774,17.304 17.303 C 17.583 17.024,17.916 16.944,18.310 17.061 " stroke="none" fill="black" fill-rule="evenodd"></path></svg>