<svg xmlns="http://www.w3.org/2000/svg" width="24" height="24" viewBox="0 0 24 24" fill="none" stroke="currentColor" stroke-width="2" stroke-linecap="round" stroke-linejoin="round" class="icon icon-tabler icons-tabler-outline icon-tabler-ball-baseball"><path d="M11.080 2.045 C 9.508 2.184,7.887 2.749,6.540 3.629 C 5.905 4.044,5.499 4.376,4.919 4.958 C 3.608 6.272,2.724 7.844,2.285 9.645 C 2.071 10.521,2.022 10.962,2.022 12.000 C 2.022 13.038,2.071 13.479,2.285 14.355 C 2.727 16.167,3.610 17.732,4.939 19.061 C 6.490 20.613,8.383 21.564,10.600 21.907 C 11.245 22.007,12.755 22.007,13.400 21.907 C 15.616 21.565,17.511 20.612,19.061 19.061 C 20.389 17.734,21.274 16.165,21.715 14.355 C 21.929 13.479,21.978 13.038,21.978 12.000 C 21.978 10.962,21.929 10.521,21.715 9.645 C 20.539 4.824,16.036 1.606,11.080 2.045 M11.463 4.330 C 11.433 4.647,11.273 5.473,11.186 5.760 L 11.131 5.940 10.887 5.964 C 10.469 6.004,10.163 6.292,10.019 6.777 C 9.913 7.134,9.956 7.368,10.179 7.631 L 10.290 7.763 10.118 8.011 C 9.826 8.435,9.858 8.420,9.645 8.243 C 9.384 8.026,9.234 7.960,9.000 7.960 C 8.749 7.960,8.534 8.064,8.299 8.299 C 8.070 8.528,7.951 8.768,7.951 9.001 C 7.951 9.216,8.028 9.387,8.244 9.647 L 8.399 9.834 8.250 9.951 C 8.167 10.015,8.025 10.117,7.934 10.177 L 7.768 10.285 7.583 10.144 C 7.481 10.067,7.331 9.991,7.250 9.975 C 6.897 9.909,6.331 10.156,6.103 10.475 C 6.013 10.601,5.981 10.696,5.968 10.878 L 5.951 11.117 5.765 11.177 C 5.358 11.309,4.463 11.478,4.164 11.479 L 4.028 11.480 4.052 11.170 C 4.117 10.344,4.401 9.351,4.817 8.501 C 5.812 6.464,7.595 4.957,9.761 4.323 C 10.246 4.180,10.965 4.048,11.275 4.043 L 11.490 4.040 11.463 4.330 M14.300 4.341 C 16.874 5.121,18.879 7.126,19.659 9.700 C 19.732 9.942,19.805 10.222,19.820 10.322 L 19.847 10.505 19.413 10.555 C 18.813 10.624,18.270 10.733,17.662 10.906 C 17.377 10.986,17.138 11.036,17.131 11.016 C 17.124 10.996,17.033 10.819,16.928 10.621 C 16.718 10.225,16.507 10.024,16.249 9.975 C 15.895 9.909,15.330 10.156,15.100 10.479 C 14.995 10.626,14.980 10.681,14.980 10.914 C 14.981 11.145,15.004 11.228,15.157 11.550 C 15.254 11.754,15.326 11.926,15.317 11.934 C 15.307 11.941,15.174 12.028,15.020 12.127 C 14.866 12.226,14.618 12.400,14.468 12.513 C 14.318 12.627,14.185 12.720,14.172 12.720 C 14.159 12.720,14.009 12.586,13.837 12.422 C 13.461 12.063,13.275 11.960,13.000 11.960 C 12.749 11.960,12.534 12.064,12.299 12.299 C 11.954 12.644,11.863 13.013,12.038 13.355 C 12.085 13.449,12.258 13.666,12.422 13.837 C 12.586 14.009,12.720 14.160,12.720 14.174 C 12.720 14.188,12.626 14.321,12.510 14.471 C 12.395 14.621,12.220 14.868,12.122 15.021 C 12.024 15.175,11.939 15.307,11.932 15.317 C 11.925 15.326,11.760 15.257,11.564 15.164 C 11.107 14.947,10.843 14.913,10.584 15.038 C 10.267 15.192,10.016 15.593,9.972 16.016 C 9.929 16.432,10.131 16.685,10.753 16.994 C 10.993 17.114,11.042 17.154,11.027 17.220 C 11.017 17.264,10.943 17.534,10.863 17.820 C 10.707 18.374,10.573 19.075,10.533 19.550 C 10.504 19.892,10.532 19.882,9.980 19.739 C 8.677 19.400,7.476 18.731,6.504 17.801 C 5.673 17.006,5.069 16.134,4.619 15.080 C 4.453 14.691,4.221 13.947,4.180 13.675 L 4.153 13.491 4.486 13.462 C 4.976 13.420,5.590 13.302,6.180 13.136 C 6.466 13.056,6.736 12.983,6.780 12.973 C 6.846 12.958,6.888 13.012,7.026 13.289 C 7.229 13.699,7.368 13.869,7.578 13.965 C 7.891 14.107,8.303 14.024,8.685 13.743 C 9.091 13.444,9.135 13.065,8.836 12.436 C 8.743 12.240,8.674 12.075,8.683 12.068 C 8.693 12.061,8.825 11.976,8.979 11.878 C 9.132 11.780,9.379 11.605,9.529 11.490 C 9.679 11.375,9.812 11.280,9.826 11.280 C 9.840 11.280,9.991 11.414,10.163 11.578 C 10.531 11.930,10.743 12.049,11.000 12.049 C 11.477 12.049,12.049 11.477,12.049 11.000 C 12.049 10.743,11.930 10.531,11.578 10.163 C 11.414 9.991,11.280 9.840,11.280 9.826 C 11.280 9.812,11.375 9.679,11.490 9.529 C 11.605 9.379,11.780 9.132,11.878 8.979 C 11.976 8.825,12.061 8.693,12.068 8.683 C 12.075 8.674,12.244 8.745,12.444 8.840 C 12.874 9.044,13.120 9.081,13.381 8.982 C 13.694 8.862,13.984 8.415,14.028 7.980 C 14.071 7.569,13.867 7.315,13.247 7.006 C 13.007 6.886,12.958 6.846,12.973 6.780 C 12.983 6.736,13.056 6.466,13.136 6.180 C 13.293 5.619,13.418 4.965,13.463 4.466 L 13.492 4.153 13.676 4.180 C 13.777 4.195,14.058 4.268,14.300 4.341 M19.948 12.830 C 19.883 13.656,19.599 14.649,19.183 15.499 C 18.135 17.644,16.229 19.189,13.925 19.760 C 13.669 19.824,13.307 19.895,13.120 19.919 C 12.933 19.943,12.719 19.970,12.645 19.980 L 12.509 19.997 12.536 19.688 C 12.565 19.362,12.722 18.543,12.814 18.240 L 12.869 18.060 13.104 18.037 C 13.234 18.024,13.397 17.984,13.466 17.948 C 13.706 17.823,13.967 17.403,14.023 17.050 C 14.062 16.806,14.014 16.625,13.855 16.417 L 13.714 16.232 13.884 15.986 C 14.173 15.565,14.142 15.581,14.355 15.757 C 14.613 15.972,14.784 16.049,14.999 16.049 C 15.477 16.049,16.049 15.477,16.049 14.999 C 16.049 14.784,15.972 14.613,15.757 14.355 C 15.580 14.142,15.565 14.174,15.991 13.880 L 16.242 13.707 16.351 13.811 C 16.595 14.045,16.927 14.097,17.288 13.959 C 17.765 13.778,18.040 13.453,18.040 13.071 L 18.040 12.886 18.230 12.827 C 18.667 12.689,19.480 12.534,19.816 12.525 L 19.972 12.520 19.948 12.830 " stroke="none" fill="black" fill-rule="evenodd"></path></svg>