<svg xmlns="http://www.w3.org/2000/svg" width="24" height="24" viewBox="0 0 24 24" fill="none" stroke="currentColor" stroke-width="2" stroke-linecap="round" stroke-linejoin="round" class="icon icon-tabler icons-tabler-outline icon-tabler-brand-prisma"><path d="M11.400 1.125 C 11.257 1.197,11.059 1.339,10.960 1.440 C 10.827 1.576,9.798 3.318,7.003 8.137 C 4.926 11.720,3.184 14.755,3.133 14.882 C 2.949 15.337,2.969 15.946,3.183 16.430 C 3.236 16.550,4.112 17.874,5.129 19.374 C 7.190 22.409,7.291 22.537,7.860 22.820 L 8.180 22.980 8.660 22.979 L 9.140 22.978 14.306 21.590 C 17.148 20.826,19.573 20.164,19.695 20.118 C 20.144 19.950,20.602 19.517,20.797 19.076 C 21.001 18.615,21.046 18.180,20.938 17.720 C 20.894 17.537,19.745 15.127,17.049 9.564 C 13.905 3.078,13.190 1.633,13.048 1.475 C 12.785 1.182,12.440 1.028,12.005 1.009 C 11.680 0.994,11.645 1.001,11.400 1.125 M16.018 12.033 C 17.732 15.568,18.995 18.220,18.975 18.240 C 18.929 18.285,9.794 20.728,9.769 20.702 C 9.753 20.686,12.435 5.239,12.508 4.929 C 12.524 4.858,12.583 4.949,12.778 5.349 C 12.914 5.630,14.373 8.638,16.018 12.033 M9.017 13.220 C 8.393 16.784,7.882 19.726,7.881 19.759 C 7.880 19.810,7.873 19.810,7.825 19.759 C 7.781 19.710,5.125 15.814,5.025 15.649 C 5.005 15.616,5.916 14.007,7.567 11.163 C 8.982 8.724,10.143 6.731,10.146 6.734 C 10.150 6.737,9.642 9.656,9.017 13.220 " stroke="none" fill="black" fill-rule="evenodd"></path></svg>