<svg xmlns="http://www.w3.org/2000/svg" width="24" height="24" viewBox="0 0 24 24" fill="none" stroke="currentColor" stroke-width="2" stroke-linecap="round" stroke-linejoin="round" class="icon icon-tabler icons-tabler-outline icon-tabler-bubble-plus"><path d="M11.734 2.041 C 10.343 2.187,8.960 2.840,7.960 3.820 L 7.660 4.115 7.138 4.158 C 5.755 4.273,4.589 4.801,3.570 5.775 C 2.767 6.543,2.255 7.435,1.963 8.574 C 1.831 9.086,1.789 9.529,1.812 10.157 C 1.835 10.798,1.896 11.131,2.103 11.755 C 2.411 12.682,2.831 13.358,3.527 14.050 L 4.000 14.521 3.958 14.904 C 3.838 15.977,4.243 17.097,5.030 17.870 C 5.284 18.119,5.597 18.356,5.831 18.475 L 6.000 18.562 6.000 19.854 C 6.000 21.316,6.011 21.385,6.288 21.699 C 6.566 22.015,6.888 22.112,7.240 21.986 C 7.317 21.959,8.183 21.454,9.165 20.866 L 10.949 19.795 11.185 19.855 C 11.835 20.021,12.643 20.042,12.921 19.901 C 13.271 19.723,13.377 19.514,13.379 19.000 C 13.380 18.668,13.367 18.598,13.280 18.442 C 13.218 18.331,13.110 18.220,12.995 18.149 C 12.831 18.047,12.755 18.031,12.315 17.998 C 11.834 17.962,11.646 17.925,11.210 17.781 C 11.067 17.733,10.919 17.716,10.744 17.727 C 10.494 17.743,10.463 17.759,9.247 18.488 L 8.006 19.233 7.993 18.386 C 7.981 17.620,7.972 17.525,7.896 17.380 C 7.780 17.157,7.538 16.985,7.193 16.882 C 6.809 16.766,6.609 16.647,6.386 16.399 C 6.031 16.003,5.868 15.487,5.953 15.025 C 5.979 14.884,6.046 14.665,6.103 14.537 C 6.290 14.115,6.273 13.780,6.052 13.518 C 5.997 13.452,5.766 13.272,5.540 13.118 C 5.061 12.792,4.653 12.380,4.391 11.958 C 3.287 10.185,3.784 7.902,5.520 6.762 C 6.214 6.307,6.787 6.148,7.720 6.153 C 8.299 6.156,8.353 6.150,8.542 6.059 C 8.681 5.992,8.810 5.882,8.952 5.707 C 9.226 5.368,9.685 4.936,9.972 4.746 C 12.208 3.267,15.160 4.089,16.338 6.520 C 16.496 6.846,16.663 7.044,16.856 7.135 C 16.924 7.167,17.142 7.222,17.340 7.259 C 18.267 7.428,18.966 7.773,19.649 8.397 C 20.114 8.822,20.610 9.617,20.791 10.227 C 21.054 11.111,21.059 11.767,20.812 12.799 C 20.722 13.174,20.717 13.242,20.759 13.433 C 20.820 13.703,21.032 13.921,21.349 14.040 C 21.844 14.225,22.175 14.183,22.434 13.902 C 22.920 13.374,23.142 11.604,22.883 10.314 C 22.459 8.197,20.977 6.426,18.974 5.640 C 18.751 5.553,18.440 5.450,18.282 5.412 L 17.995 5.343 17.800 5.022 C 16.554 2.970,14.147 1.787,11.734 2.041 M18.614 15.057 C 18.377 15.131,18.212 15.261,18.109 15.453 C 18.024 15.613,18.020 15.668,18.008 16.810 L 17.996 18.000 16.904 18.000 C 15.744 18.000,15.570 18.022,15.322 18.199 C 15.100 18.357,15.020 18.568,15.020 19.000 C 15.020 19.331,15.033 19.403,15.120 19.558 C 15.230 19.755,15.414 19.898,15.635 19.959 C 15.716 19.982,16.270 20.000,16.890 20.000 L 18.000 20.000 18.000 21.110 C 18.000 21.730,18.018 22.284,18.041 22.365 C 18.148 22.750,18.437 22.962,18.896 22.991 C 19.381 23.022,19.699 22.882,19.880 22.558 C 19.979 22.381,19.980 22.374,19.993 21.190 L 20.005 20.000 21.113 20.000 C 21.731 20.000,22.284 19.982,22.365 19.959 C 22.586 19.898,22.770 19.755,22.880 19.558 C 22.967 19.402,22.980 19.332,22.979 19.000 C 22.978 18.567,22.898 18.355,22.678 18.199 C 22.430 18.022,22.256 18.000,21.096 18.000 L 20.005 18.000 19.993 16.810 C 19.981 15.669,19.976 15.613,19.891 15.453 C 19.842 15.362,19.746 15.247,19.678 15.199 C 19.414 15.010,18.957 14.950,18.614 15.057 " stroke="none" fill="black" fill-rule="evenodd"></path></svg>