<svg xmlns="http://www.w3.org/2000/svg" width="24" height="24" viewBox="0 0 24 24" fill="none" stroke="currentColor" stroke-width="2" stroke-linecap="round" stroke-linejoin="round" class="icon icon-tabler icons-tabler-outline icon-tabler-brand-nem"><path d="M11.200 1.026 C 8.035 1.190,5.158 2.074,2.000 3.853 C 1.367 4.210,1.261 4.290,1.128 4.516 C 1.030 4.683,1.019 4.745,1.006 5.179 C 0.998 5.443,1.012 5.974,1.037 6.359 C 1.307 10.505,2.493 13.868,4.775 16.960 C 5.330 17.711,5.870 18.317,6.917 19.360 C 8.366 20.805,9.375 21.628,10.600 22.362 C 11.706 23.024,11.967 23.102,12.416 22.903 C 13.241 22.538,14.599 21.621,15.700 20.685 C 16.282 20.190,18.081 18.378,18.544 17.820 C 21.260 14.544,22.667 10.895,22.963 6.359 C 22.988 5.974,23.002 5.443,22.994 5.179 C 22.981 4.745,22.970 4.683,22.872 4.516 C 22.742 4.295,22.637 4.214,22.040 3.873 C 19.734 2.557,17.517 1.720,15.239 1.303 C 13.931 1.064,12.442 0.962,11.200 1.026 M13.348 3.065 L 13.556 3.091 13.368 3.244 C 13.265 3.329,13.048 3.547,12.888 3.729 C 11.759 5.007,11.163 6.735,11.017 9.150 L 10.990 9.600 10.579 9.995 C 9.540 10.996,8.492 11.669,7.637 11.886 C 7.369 11.953,7.228 11.966,6.922 11.949 C 6.250 11.912,5.810 11.688,5.232 11.087 C 4.511 10.339,3.855 9.121,3.286 7.472 C 3.101 6.933,3.082 6.844,3.060 6.412 C 3.048 6.152,3.029 5.858,3.018 5.758 L 2.999 5.577 3.490 5.310 C 6.021 3.932,8.468 3.210,11.240 3.024 C 11.545 3.003,13.095 3.033,13.348 3.065 M17.527 3.976 C 18.359 4.274,18.981 4.544,19.940 5.023 C 20.446 5.275,20.888 5.504,20.923 5.531 C 20.978 5.574,20.982 5.660,20.953 6.220 C 20.816 8.917,20.156 11.380,18.969 13.623 C 18.661 14.204,18.679 14.175,18.183 14.939 C 17.859 15.438,17.819 15.485,17.809 15.379 C 17.744 14.701,17.471 13.779,17.141 13.124 C 16.419 11.691,15.020 10.379,13.279 9.500 L 13.018 9.368 13.046 8.934 C 13.233 6.050,14.403 4.323,16.471 3.882 C 16.663 3.842,16.868 3.806,16.927 3.804 C 16.986 3.802,17.256 3.879,17.527 3.976 M13.000 11.632 C 14.501 12.538,15.429 13.709,15.730 15.079 C 15.796 15.378,15.814 15.598,15.814 16.100 C 15.814 16.818,15.736 17.291,15.516 17.898 C 15.399 18.221,15.377 18.253,14.996 18.618 C 14.516 19.078,14.014 19.500,13.408 19.951 C 12.877 20.346,12.095 20.840,11.999 20.840 C 11.924 20.840,11.190 20.389,10.750 20.072 C 9.346 19.062,7.505 17.257,6.454 15.860 C 5.972 15.219,5.327 14.211,5.059 13.679 L 4.921 13.404 5.251 13.561 C 6.191 14.008,7.218 14.080,8.276 13.774 C 9.416 13.445,10.639 12.677,11.920 11.488 L 12.220 11.210 12.460 11.330 C 12.591 11.397,12.834 11.532,13.000 11.632 " stroke="none" fill="black" fill-rule="evenodd"></path></svg>