<svg xmlns="http://www.w3.org/2000/svg" width="24" height="24" viewBox="0 0 24 24" fill="none" stroke="currentColor" stroke-width="2" stroke-linecap="round" stroke-linejoin="round" class="icon icon-tabler icons-tabler-outline icon-tabler-mood-annoyed-2"><path d="M11.080 2.045 C 9.507 2.184,7.883 2.751,6.540 3.630 C 5.905 4.045,5.499 4.378,4.919 4.958 C 2.953 6.926,1.919 9.544,2.013 12.320 C 2.084 14.439,2.752 16.328,4.033 18.040 C 4.430 18.570,5.305 19.464,5.800 19.847 C 7.242 20.961,8.787 21.624,10.600 21.907 C 11.247 22.008,12.753 22.008,13.400 21.907 C 15.638 21.557,17.504 20.620,19.062 19.062 C 20.620 17.504,21.557 15.638,21.907 13.400 C 22.008 12.753,22.008 11.247,21.907 10.600 C 21.624 8.786,20.959 7.238,19.847 5.800 C 19.510 5.365,18.639 4.494,18.200 4.154 C 16.133 2.555,13.646 1.818,11.080 2.045 M12.734 4.041 C 14.574 4.216,16.228 4.976,17.554 6.256 C 20.043 8.658,20.702 12.394,19.183 15.499 C 18.749 16.387,18.223 17.105,17.496 17.801 C 16.876 18.394,16.262 18.819,15.471 19.200 C 13.267 20.265,10.733 20.265,8.529 19.200 C 7.477 18.693,6.612 18.015,5.847 17.100 C 3.848 14.711,3.440 11.302,4.816 8.500 C 6.162 5.760,8.867 4.049,11.920 4.005 C 12.129 4.003,12.495 4.019,12.734 4.041 M6.820 8.256 C 6.420 8.383,6.082 8.651,5.997 8.910 C 5.826 9.428,6.343 10.272,7.062 10.648 C 7.534 10.895,7.897 10.979,8.500 10.979 C 9.103 10.979,9.466 10.895,9.938 10.648 C 10.657 10.272,11.174 9.428,11.003 8.910 C 10.905 8.611,10.412 8.273,9.990 8.215 C 9.702 8.176,9.428 8.325,9.194 8.651 C 8.993 8.931,8.855 9.000,8.500 9.000 C 8.159 9.000,8.009 8.929,7.828 8.682 C 7.635 8.420,7.591 8.380,7.380 8.279 C 7.196 8.190,7.047 8.184,6.820 8.256 M13.820 8.256 C 13.420 8.383,13.082 8.651,12.997 8.910 C 12.826 9.428,13.343 10.272,14.062 10.648 C 14.534 10.895,14.897 10.979,15.500 10.979 C 16.103 10.979,16.466 10.895,16.938 10.648 C 17.657 10.272,18.174 9.428,18.003 8.910 C 17.905 8.611,17.412 8.273,16.990 8.215 C 16.702 8.176,16.428 8.325,16.194 8.651 C 15.993 8.931,15.855 9.000,15.500 9.000 C 15.159 9.000,15.009 8.929,14.828 8.682 C 14.635 8.420,14.591 8.380,14.380 8.279 C 14.196 8.190,14.047 8.184,13.820 8.256 M14.280 13.044 C 13.363 13.148,12.584 13.455,11.888 13.988 C 11.528 14.264,11.220 14.600,10.932 15.031 C 10.516 15.655,10.372 16.165,10.530 16.462 C 10.701 16.786,11.135 17.047,11.547 17.073 C 11.760 17.087,11.823 17.074,11.971 16.987 C 12.156 16.879,12.245 16.764,12.522 16.280 C 12.763 15.860,13.103 15.533,13.509 15.330 C 13.902 15.134,14.256 15.051,14.902 15.005 C 15.538 14.959,15.719 14.872,15.904 14.520 C 16.018 14.305,16.009 13.679,15.890 13.453 C 15.676 13.049,15.233 12.937,14.280 13.044 " stroke="none" fill="black" fill-rule="evenodd"></path></svg>