<svg xmlns="http://www.w3.org/2000/svg" width="24" height="24" viewBox="0 0 24 24" fill="none" stroke="currentColor" stroke-width="2" stroke-linecap="round" stroke-linejoin="round" class="icon icon-tabler icons-tabler-outline icon-tabler-fish-hook"><path d="M15.614 2.057 C 15.377 2.131,15.212 2.261,15.109 2.453 C 15.028 2.606,15.019 2.685,15.007 3.384 L 14.994 4.148 14.667 4.315 C 13.922 4.693,13.364 5.356,13.114 6.160 C 12.979 6.594,12.979 7.406,13.114 7.840 C 13.365 8.645,13.931 9.318,14.670 9.688 L 15.000 9.853 15.000 12.537 C 15.000 15.405,14.983 15.698,14.796 16.245 C 14.321 17.632,13.195 18.628,11.773 18.917 C 10.037 19.271,8.236 18.393,7.443 16.804 C 7.085 16.087,7.001 15.614,7.000 14.322 L 7.000 13.425 7.730 14.147 C 8.168 14.580,8.531 14.905,8.637 14.959 C 8.988 15.137,9.354 15.048,9.701 14.701 C 10.047 14.355,10.137 13.990,9.961 13.637 C 9.900 13.516,9.349 12.936,8.206 11.793 C 6.559 10.145,6.537 10.126,6.303 10.058 C 5.718 9.890,5.174 10.144,5.038 10.649 C 5.010 10.753,5.001 11.630,5.011 13.292 C 5.025 15.696,5.028 15.793,5.115 16.180 C 5.661 18.610,7.425 20.367,9.840 20.885 C 10.190 20.960,10.383 20.975,11.000 20.975 C 11.822 20.975,12.248 20.909,12.940 20.672 C 14.946 19.985,16.403 18.325,16.885 16.180 C 16.972 15.791,16.975 15.699,16.997 12.813 L 17.020 9.845 17.340 9.684 C 18.072 9.314,18.637 8.640,18.886 7.840 C 19.021 7.406,19.021 6.594,18.886 6.160 C 18.636 5.357,18.078 4.693,17.334 4.315 L 17.007 4.149 16.993 3.384 C 16.980 2.689,16.970 2.605,16.890 2.453 C 16.842 2.362,16.746 2.247,16.678 2.199 C 16.414 2.010,15.957 1.950,15.614 2.057 M16.310 6.061 C 16.688 6.173,17.000 6.598,17.000 7.001 C 17.000 7.331,16.784 7.696,16.484 7.872 C 16.328 7.963,16.254 7.980,16.000 7.980 C 15.746 7.980,15.672 7.963,15.516 7.872 C 14.932 7.528,14.831 6.775,15.307 6.299 C 15.582 6.024,15.918 5.944,16.310 6.061 " stroke="none" fill="black" fill-rule="evenodd"></path></svg>