<svg xmlns="http://www.w3.org/2000/svg" width="24" height="24" viewBox="0 0 24 24" fill="none" stroke="currentColor" stroke-width="2" stroke-linecap="round" stroke-linejoin="round" class="icon icon-tabler icons-tabler-outline icon-tabler-basket-check"><path d="M8.780 2.989 C 8.562 3.028,8.511 3.050,8.378 3.167 C 8.299 3.236,8.193 3.375,8.143 3.476 C 8.092 3.577,7.802 4.410,7.497 5.327 L 6.943 6.994 5.721 7.010 C 4.375 7.027,4.276 7.042,3.730 7.299 C 3.346 7.480,3.148 7.620,2.862 7.915 C 2.529 8.256,2.314 8.609,2.159 9.067 C 2.037 9.427,2.026 9.501,2.024 9.960 C 2.023 10.432,2.059 10.664,2.673 14.140 C 3.329 17.851,3.379 18.106,3.548 18.538 C 3.919 19.493,4.860 20.394,5.866 20.758 C 6.500 20.987,6.672 21.000,9.055 21.000 C 10.382 21.000,11.276 20.984,11.365 20.959 C 11.586 20.898,11.770 20.755,11.880 20.558 C 11.967 20.402,11.980 20.332,11.979 20.000 C 11.977 19.469,11.852 19.246,11.455 19.071 C 11.369 19.033,10.780 19.015,9.080 18.999 C 6.834 18.977,6.818 18.977,6.565 18.883 C 5.981 18.668,5.482 18.123,5.322 17.526 C 5.261 17.298,4.000 10.084,4.000 9.962 C 4.000 9.759,4.126 9.481,4.300 9.302 C 4.551 9.044,4.736 9.000,5.585 9.000 L 6.275 9.000 6.159 9.344 C 5.986 9.855,5.944 10.110,5.998 10.313 C 6.089 10.649,6.427 10.906,6.903 11.000 C 7.205 11.059,7.422 11.008,7.623 10.832 C 7.814 10.664,7.893 10.498,8.160 9.700 L 8.387 9.020 12.000 9.020 L 15.613 9.020 15.840 9.700 C 16.107 10.498,16.186 10.664,16.377 10.832 C 16.571 11.002,16.799 11.059,17.067 11.005 C 17.569 10.905,17.911 10.652,18.002 10.314 C 18.057 10.110,18.015 9.856,17.840 9.341 L 17.723 8.994 18.492 9.007 C 19.203 9.019,19.274 9.027,19.451 9.114 C 19.698 9.236,19.901 9.500,19.964 9.782 C 20.009 9.985,19.996 10.092,19.765 11.409 C 19.629 12.185,19.508 12.910,19.495 13.020 C 19.428 13.592,19.812 13.982,20.490 14.031 C 20.966 14.066,21.278 13.871,21.415 13.454 C 21.449 13.347,21.597 12.576,21.743 11.740 C 21.982 10.374,22.007 10.182,21.989 9.840 C 21.951 9.120,21.650 8.440,21.138 7.915 C 20.852 7.620,20.654 7.480,20.270 7.299 C 19.724 7.042,19.625 7.027,18.279 7.010 L 17.057 6.994 16.503 5.327 C 16.198 4.410,15.914 3.588,15.870 3.500 C 15.693 3.141,15.465 2.990,15.103 2.992 C 14.591 2.995,14.102 3.300,14.000 3.679 C 13.932 3.933,13.975 4.106,14.480 5.621 C 14.722 6.346,14.920 6.952,14.920 6.969 C 14.920 6.986,13.606 7.000,12.000 7.000 C 10.394 7.000,9.080 6.986,9.080 6.969 C 9.080 6.952,9.278 6.346,9.520 5.621 C 9.761 4.897,9.979 4.203,10.003 4.080 C 10.065 3.768,10.001 3.550,9.786 3.337 C 9.558 3.110,9.062 2.939,8.780 2.989 M11.499 11.040 C 10.363 11.246,9.460 12.049,9.114 13.160 C 8.979 13.594,8.979 14.406,9.114 14.840 C 9.421 15.826,10.174 16.579,11.160 16.886 C 11.594 17.021,12.406 17.021,12.840 16.886 C 13.826 16.579,14.579 15.826,14.886 14.840 C 15.021 14.406,15.021 13.594,14.886 13.160 C 14.581 12.179,13.810 11.407,12.861 11.129 C 12.500 11.023,11.832 10.980,11.499 11.040 M12.310 13.061 C 12.688 13.173,13.000 13.598,13.000 14.001 C 13.000 14.331,12.784 14.696,12.484 14.872 C 12.328 14.963,12.254 14.980,12.000 14.980 C 11.746 14.980,11.672 14.963,11.516 14.872 C 10.935 14.530,10.833 13.774,11.304 13.303 C 11.583 13.024,11.916 12.944,12.310 13.061 M20.620 16.046 C 20.525 16.095,19.753 16.834,18.731 17.853 L 17.001 19.577 16.271 18.854 C 15.856 18.444,15.467 18.094,15.372 18.045 C 15.021 17.868,14.640 17.958,14.299 18.299 C 13.952 18.646,13.863 19.010,14.040 19.363 C 14.162 19.607,16.393 21.838,16.637 21.960 C 16.868 22.076,17.132 22.076,17.363 21.961 C 17.486 21.899,18.197 21.215,19.706 19.706 C 21.215 18.197,21.899 17.486,21.961 17.363 C 22.137 17.010,22.048 16.645,21.701 16.299 C 21.361 15.959,20.967 15.867,20.620 16.046 " stroke="none" fill="black" fill-rule="evenodd"></path></svg>