<svg xmlns="http://www.w3.org/2000/svg" width="24" height="24" viewBox="0 0 24 24" fill="none" stroke="currentColor" stroke-width="2" stroke-linecap="round" stroke-linejoin="round" class="icon icon-tabler icons-tabler-outline icon-tabler-brand-days-counter"><path d="M11.140 2.046 C 8.818 2.246,6.623 3.263,4.977 4.900 C 3.576 6.292,2.665 7.941,2.236 9.860 C 2.105 10.447,2.040 10.978,2.014 11.700 C 1.873 15.544,4.049 19.197,7.518 20.939 C 8.308 21.336,9.528 21.745,10.040 21.786 C 10.259 21.803,10.328 21.792,10.479 21.713 C 10.734 21.581,10.899 21.343,10.979 20.994 C 11.124 20.355,10.914 20.016,10.250 19.819 C 9.054 19.463,8.482 19.226,7.813 18.811 C 6.526 18.011,5.488 16.865,4.825 15.509 C 3.692 13.194,3.754 10.418,4.989 8.182 C 5.277 7.659,5.537 7.277,5.897 6.848 C 8.229 4.070,12.207 3.220,15.466 4.805 C 16.347 5.233,17.124 5.799,17.783 6.491 C 18.739 7.496,19.350 8.581,19.718 9.924 C 19.876 10.502,19.910 10.586,20.054 10.750 C 20.226 10.945,20.383 11.014,20.660 11.014 C 21.341 11.013,21.799 10.643,21.800 10.093 C 21.800 10.023,21.747 9.762,21.683 9.513 C 21.251 7.846,20.415 6.338,19.240 5.108 C 17.151 2.919,14.151 1.785,11.140 2.046 M11.614 7.057 C 11.377 7.131,11.212 7.261,11.109 7.453 L 11.020 7.620 11.020 9.960 L 11.020 12.300 11.127 12.480 C 11.284 12.744,14.416 15.849,14.637 15.960 C 14.989 16.137,15.354 16.048,15.701 15.701 C 16.048 15.354,16.137 14.989,15.960 14.637 C 15.900 14.519,15.397 13.984,14.437 13.020 L 13.003 11.580 12.992 9.600 C 12.980 7.640,12.979 7.618,12.891 7.453 C 12.842 7.362,12.746 7.247,12.678 7.199 C 12.414 7.010,11.957 6.950,11.614 7.057 M20.614 13.057 C 20.377 13.131,20.212 13.261,20.109 13.453 L 20.020 13.620 20.009 16.810 L 19.998 20.000 16.405 20.000 C 12.561 20.000,12.604 19.998,12.322 20.199 C 12.100 20.357,12.020 20.568,12.020 21.000 C 12.020 21.331,12.033 21.403,12.120 21.558 C 12.230 21.755,12.414 21.898,12.635 21.959 C 12.833 22.014,21.167 22.014,21.365 21.959 C 21.586 21.898,21.770 21.755,21.880 21.558 L 21.980 21.380 21.980 17.500 L 21.980 13.620 21.891 13.453 C 21.842 13.362,21.746 13.247,21.678 13.199 C 21.414 13.010,20.957 12.950,20.614 13.057 " stroke="none" fill="black" fill-rule="evenodd"></path></svg>