<svg xmlns="http://www.w3.org/2000/svg" width="24" height="24" viewBox="0 0 24 24" fill="none" stroke="currentColor" stroke-width="2" stroke-linecap="round" stroke-linejoin="round" class="icon icon-tabler icons-tabler-outline icon-tabler-pentagon-number-5"><path d="M11.340 0.865 C 11.186 0.897,10.907 1.000,10.720 1.093 C 10.300 1.302,2.269 7.122,1.888 7.494 C 1.447 7.924,1.193 8.393,1.064 9.018 C 0.983 9.411,0.983 9.760,1.063 10.152 C 1.168 10.662,4.267 20.142,4.432 20.460 C 4.535 20.656,4.686 20.848,4.939 21.101 C 5.342 21.504,5.660 21.708,6.140 21.871 L 6.460 21.980 12.000 21.980 L 17.540 21.980 17.860 21.871 C 18.340 21.708,18.658 21.504,19.061 21.101 C 19.314 20.848,19.465 20.656,19.568 20.460 C 19.733 20.143,22.831 10.663,22.936 10.152 C 23.135 9.187,22.816 8.173,22.094 7.474 C 21.717 7.110,13.682 1.293,13.280 1.093 C 12.715 0.812,11.997 0.728,11.340 0.865 M12.403 2.890 C 12.660 3.021,20.640 8.824,20.769 8.974 C 20.922 9.152,21.015 9.449,20.988 9.675 C 20.954 9.956,17.867 19.415,17.755 19.580 C 17.642 19.748,17.426 19.907,17.237 19.961 C 17.051 20.014,6.949 20.014,6.763 19.961 C 6.556 19.901,6.326 19.724,6.221 19.543 C 6.103 19.339,3.043 9.928,3.012 9.675 C 2.985 9.449,3.078 9.152,3.231 8.974 C 3.360 8.824,11.340 3.021,11.597 2.890 C 11.836 2.768,12.164 2.768,12.403 2.890 M9.614 7.057 C 9.377 7.131,9.212 7.261,9.109 7.453 C 9.020 7.619,9.020 7.629,9.009 9.911 C 9.001 11.392,9.012 12.256,9.039 12.355 C 9.100 12.583,9.242 12.768,9.442 12.880 L 9.620 12.980 11.310 12.992 L 13.000 13.003 13.000 14.002 L 13.000 15.000 12.005 15.000 L 11.010 15.000 10.983 14.794 C 10.930 14.393,10.743 14.167,10.371 14.055 C 9.861 13.902,9.305 14.077,9.113 14.453 C 9.008 14.659,8.973 15.095,9.037 15.404 C 9.148 15.941,9.595 16.534,10.070 16.775 C 10.479 16.982,10.632 17.000,12.000 17.000 C 13.368 17.000,13.521 16.982,13.930 16.775 C 14.196 16.640,14.638 16.200,14.771 15.937 C 14.979 15.527,15.000 15.352,14.999 14.014 C 14.999 12.682,14.974 12.463,14.781 12.083 C 14.646 11.816,14.297 11.449,14.017 11.281 C 13.609 11.035,13.405 11.005,12.130 11.002 L 11.000 11.000 11.000 10.000 L 11.000 9.000 12.610 9.000 C 13.565 9.000,14.279 8.983,14.365 8.959 C 14.586 8.898,14.770 8.755,14.880 8.558 C 14.967 8.402,14.980 8.332,14.979 8.000 C 14.978 7.567,14.898 7.355,14.678 7.199 C 14.406 7.005,14.336 7.000,11.984 7.003 C 10.293 7.005,9.741 7.017,9.614 7.057 " stroke="none" fill="black" fill-rule="evenodd"></path></svg>