<svg xmlns="http://www.w3.org/2000/svg" width="24" height="24" viewBox="0 0 24 24" fill="none" stroke="currentColor" stroke-width="2" stroke-linecap="round" stroke-linejoin="round" class="icon icon-tabler icons-tabler-outline icon-tabler-smoking-no"><path d="M2.626 2.045 C 2.420 2.154,2.146 2.433,2.038 2.644 C 1.924 2.867,1.924 3.132,2.039 3.363 C 2.103 3.489,3.338 4.752,6.354 7.770 L 10.579 12.000 7.160 12.002 C 3.347 12.005,3.453 11.998,2.983 12.281 C 2.703 12.449,2.354 12.816,2.219 13.083 C 2.019 13.478,2.000 13.640,2.000 15.000 C 2.000 16.368,2.018 16.521,2.225 16.930 C 2.361 17.199,2.801 17.639,3.070 17.775 C 3.538 18.012,3.157 18.000,10.157 18.000 L 16.578 18.000 18.519 19.936 C 19.852 21.265,20.516 21.899,20.637 21.960 C 20.989 22.137,21.354 22.048,21.701 21.701 C 22.048 21.354,22.137 20.989,21.960 20.637 C 21.888 20.493,19.820 18.361,17.748 16.293 C 17.528 16.074,13.849 12.395,13.760 12.306 C 13.705 12.251,11.383 9.938,8.600 7.167 C 5.152 3.733,3.486 2.101,3.372 2.044 C 3.152 1.934,2.835 1.935,2.626 2.045 M15.614 4.057 C 15.377 4.131,15.212 4.261,15.110 4.453 C 15.034 4.598,15.020 4.697,15.007 5.189 C 14.980 6.239,15.209 6.911,15.813 7.551 C 16.368 8.138,17.015 8.433,17.900 8.501 C 18.315 8.532,18.486 8.593,18.674 8.772 C 18.928 9.016,18.972 9.157,18.999 9.800 C 19.020 10.316,19.034 10.400,19.121 10.558 C 19.286 10.856,19.572 11.000,20.000 11.000 C 20.428 11.000,20.714 10.856,20.879 10.558 C 20.969 10.397,20.980 10.326,20.994 9.814 C 21.010 9.190,20.949 8.768,20.783 8.359 C 20.509 7.686,19.909 7.070,19.226 6.760 C 18.893 6.609,18.720 6.569,18.188 6.519 C 17.701 6.474,17.519 6.413,17.326 6.228 C 17.074 5.986,17.029 5.843,16.999 5.200 C 16.970 4.552,16.909 4.363,16.678 4.199 C 16.414 4.010,15.957 3.950,15.614 4.057 M16.614 12.057 C 16.377 12.131,16.212 12.261,16.109 12.453 C 16.035 12.592,16.020 12.684,16.020 13.000 C 16.020 13.331,16.033 13.403,16.120 13.558 C 16.230 13.755,16.414 13.898,16.635 13.959 C 16.721 13.983,17.435 14.000,18.390 14.000 L 20.000 14.000 20.000 15.013 L 20.000 16.026 19.902 16.118 C 19.765 16.247,19.640 16.531,19.641 16.710 C 19.642 16.920,19.763 17.164,19.982 17.398 C 20.324 17.764,20.697 17.854,21.075 17.663 C 21.304 17.547,21.645 17.186,21.782 16.915 C 21.981 16.523,22.000 16.357,21.999 15.022 C 21.999 13.681,21.974 13.463,21.781 13.083 C 21.646 12.816,21.297 12.449,21.017 12.281 C 20.578 12.017,20.468 12.005,18.520 12.005 C 17.204 12.005,16.739 12.018,16.614 12.057 M7.000 15.000 L 7.000 16.000 5.500 16.000 L 4.000 16.000 4.000 15.000 L 4.000 14.000 5.500 14.000 L 7.000 14.000 7.000 15.000 M13.580 15.000 L 14.579 16.000 11.790 16.000 L 9.000 16.000 9.000 15.000 L 9.000 14.000 10.790 14.000 L 12.581 14.000 13.580 15.000 " stroke="none" fill="black" fill-rule="evenodd"></path></svg>