<svg xmlns="http://www.w3.org/2000/svg" width="24" height="24" viewBox="0 0 24 24" fill="none" stroke="currentColor" stroke-width="2" stroke-linecap="round" stroke-linejoin="round" class="icon icon-tabler icons-tabler-outline icon-tabler-massage"><path d="M8.477 3.073 C 7.806 3.249,7.238 3.823,7.060 4.508 C 6.941 4.962,7.003 5.492,7.225 5.930 C 7.361 6.199,7.801 6.639,8.070 6.775 C 8.659 7.073,9.341 7.073,9.930 6.775 C 10.196 6.640,10.638 6.200,10.771 5.937 C 10.994 5.498,11.052 5.007,10.940 4.529 C 10.858 4.182,10.720 3.927,10.465 3.653 C 9.948 3.097,9.211 2.882,8.477 3.073 M11.491 7.083 C 11.171 7.242,11.136 7.334,10.643 9.309 C 10.397 10.294,10.179 11.165,10.158 11.244 C 10.123 11.377,10.020 11.454,8.718 12.322 C 7.371 13.218,7.082 13.444,6.998 13.665 C 6.846 14.064,7.160 14.736,7.606 14.963 C 7.797 15.060,8.090 15.061,8.302 14.965 C 8.391 14.924,9.197 14.403,10.091 13.806 C 11.355 12.963,11.742 12.685,11.822 12.564 C 11.899 12.447,12.019 12.033,12.289 10.954 C 12.489 10.154,12.659 9.492,12.667 9.482 C 12.675 9.473,12.773 9.554,12.885 9.662 C 13.670 10.428,13.998 11.612,14.000 13.700 C 14.000 13.986,14.019 14.285,14.041 14.365 C 14.148 14.750,14.437 14.962,14.896 14.991 C 15.381 15.022,15.699 14.882,15.880 14.558 C 15.980 14.381,15.980 14.375,15.977 13.380 C 15.975 12.830,15.952 12.200,15.926 11.980 C 15.728 10.341,15.229 9.180,14.344 8.298 C 13.929 7.884,13.581 7.631,13.085 7.383 C 12.313 6.996,11.845 6.908,11.491 7.083 M3.477 15.073 C 3.130 15.164,2.802 15.366,2.535 15.653 C 2.178 16.038,2.000 16.485,2.000 17.000 C 2.000 17.546,2.193 18.001,2.596 18.404 C 2.999 18.807,3.454 19.000,4.000 19.000 C 4.546 19.000,5.001 18.807,5.404 18.404 C 5.920 17.889,6.106 17.236,5.940 16.529 C 5.858 16.182,5.720 15.927,5.465 15.653 C 5.074 15.232,4.560 15.005,4.000 15.005 C 3.857 15.005,3.622 15.036,3.477 15.073 M7.614 16.057 C 7.377 16.131,7.212 16.261,7.109 16.453 C 7.023 16.615,7.020 16.661,7.008 18.001 L 6.996 19.382 5.228 20.267 C 4.256 20.754,3.386 21.206,3.295 21.272 C 3.061 21.444,2.943 21.703,2.972 21.984 C 3.017 22.421,3.303 22.861,3.621 22.983 C 3.987 23.122,4.014 23.112,6.424 21.907 C 8.805 20.717,8.844 20.693,8.954 20.326 C 8.984 20.225,9.000 19.793,9.000 19.085 L 9.000 18.000 14.610 18.000 C 18.245 18.000,20.271 17.985,20.365 17.959 C 20.586 17.898,20.770 17.755,20.880 17.558 C 20.967 17.402,20.980 17.332,20.979 17.000 C 20.978 16.567,20.898 16.355,20.678 16.199 C 20.388 15.992,20.642 16.000,13.984 16.003 C 9.009 16.005,7.747 16.016,7.614 16.057 M10.614 19.057 C 10.377 19.131,10.212 19.261,10.109 19.453 C 10.035 19.592,10.020 19.684,10.020 20.000 C 10.020 20.331,10.033 20.403,10.120 20.558 C 10.230 20.755,10.414 20.898,10.635 20.959 C 10.834 21.014,20.166 21.014,20.365 20.959 C 20.586 20.898,20.770 20.755,20.880 20.558 C 20.967 20.402,20.980 20.332,20.979 20.000 C 20.978 19.567,20.898 19.355,20.678 19.199 C 20.392 18.995,20.526 19.000,15.484 19.003 C 11.740 19.005,10.746 19.016,10.614 19.057 " stroke="none" fill="black" fill-rule="evenodd"></path></svg>