<svg xmlns="http://www.w3.org/2000/svg" width="24" height="24" viewBox="0 0 24 24" fill="none" stroke="currentColor" stroke-width="2" stroke-linecap="round" stroke-linejoin="round" class="icon icon-tabler icons-tabler-outline icon-tabler-trending-up-3"><path d="M17.626 4.045 C 17.257 4.239,16.951 4.673,16.951 5.000 C 16.951 5.307,17.079 5.488,17.847 6.264 L 18.564 6.989 17.692 7.012 C 16.463 7.044,15.839 7.185,14.957 7.629 C 14.185 8.018,13.629 8.442,13.098 9.046 C 12.957 9.206,11.869 10.725,10.682 12.421 C 9.494 14.117,8.425 15.611,8.306 15.742 C 7.917 16.171,7.282 16.575,6.662 16.786 C 6.113 16.974,5.818 17.000,4.261 17.000 C 2.720 17.000,2.581 17.014,2.322 17.199 C 2.100 17.357,2.020 17.568,2.020 18.000 C 2.020 18.331,2.033 18.403,2.120 18.558 C 2.230 18.755,2.414 18.898,2.635 18.959 C 2.871 19.025,5.740 19.010,6.220 18.941 C 7.522 18.753,8.694 18.172,9.612 17.260 C 10.032 16.841,9.999 16.886,12.301 13.597 C 13.416 12.004,14.428 10.577,14.549 10.427 C 14.968 9.906,15.726 9.404,16.420 9.188 C 16.837 9.058,17.328 9.000,18.018 9.000 L 18.575 9.000 17.853 9.730 C 17.420 10.168,17.095 10.531,17.041 10.637 C 16.863 10.988,16.952 11.354,17.299 11.701 C 17.646 12.048,18.011 12.137,18.363 11.960 C 18.480 11.901,19.051 11.365,20.062 10.365 C 20.899 9.537,21.634 8.826,21.697 8.784 C 21.850 8.682,22.049 8.238,22.049 8.000 C 22.049 7.745,21.851 7.321,21.676 7.201 C 21.601 7.150,20.865 6.438,20.040 5.618 C 19.085 4.670,18.479 4.098,18.372 4.044 C 18.152 3.934,17.835 3.934,17.626 4.045 " stroke="none" fill="black" fill-rule="evenodd"></path></svg>