<svg xmlns="http://www.w3.org/2000/svg" width="24" height="24" viewBox="0 0 24 24" fill="none" stroke="currentColor" stroke-width="2" stroke-linecap="round" stroke-linejoin="round" class="icon icon-tabler icons-tabler-outline icon-tabler-database-off"><path d="M2.626 2.045 C 2.257 2.239,1.951 2.673,1.951 3.000 C 1.951 3.296,2.083 3.491,2.740 4.160 L 3.349 4.780 3.236 5.020 C 2.986 5.552,3.000 5.135,3.000 12.000 C 3.000 18.943,2.981 18.454,3.268 19.040 C 3.533 19.583,4.306 20.270,5.104 20.672 C 6.077 21.161,7.592 21.600,9.000 21.801 C 10.725 22.046,12.919 22.060,14.680 21.837 C 16.237 21.639,17.853 21.198,18.835 20.703 L 19.129 20.554 19.795 21.212 C 20.184 21.597,20.534 21.906,20.637 21.959 C 20.988 22.137,21.354 22.049,21.701 21.701 C 22.048 21.354,22.137 20.990,21.960 20.637 C 21.898 20.513,20.924 19.506,18.712 17.280 C 16.974 15.531,15.524 14.073,15.491 14.040 C 15.413 13.963,9.515 8.068,9.484 8.036 C 9.471 8.023,8.128 6.688,6.500 5.070 C 4.531 3.114,3.484 2.100,3.372 2.044 C 3.152 1.934,2.835 1.935,2.626 2.045 M10.700 2.040 C 9.023 2.149,7.261 2.463,6.871 2.721 C 6.528 2.948,6.422 3.344,6.571 3.842 C 6.702 4.279,6.993 4.520,7.391 4.520 C 7.504 4.520,7.836 4.467,8.128 4.402 C 9.382 4.125,10.419 4.024,12.020 4.023 C 13.657 4.022,14.872 4.148,16.063 4.441 C 17.471 4.787,18.687 5.384,18.939 5.853 C 19.018 5.999,19.018 6.001,18.940 6.146 C 18.781 6.441,18.115 6.876,17.420 7.139 C 16.201 7.601,14.973 7.845,13.289 7.961 C 12.531 8.014,12.315 8.089,12.133 8.364 C 12.027 8.524,12.020 8.560,12.020 8.957 C 12.020 9.346,12.029 9.395,12.130 9.567 C 12.338 9.921,12.632 10.008,13.446 9.954 C 15.498 9.819,17.243 9.427,18.658 8.782 C 18.829 8.704,18.977 8.640,18.985 8.640 C 18.993 8.640,19.000 9.410,19.000 10.351 L 19.000 12.061 18.902 12.206 C 18.755 12.422,18.360 12.699,17.793 12.983 C 17.264 13.249,17.071 13.406,16.995 13.634 C 16.889 13.957,17.076 14.558,17.363 14.818 C 17.668 15.093,17.965 15.089,18.618 14.799 C 18.815 14.712,18.981 14.640,18.988 14.640 C 18.995 14.640,19.000 14.995,19.000 15.430 C 19.000 15.865,19.019 16.285,19.041 16.365 C 19.148 16.750,19.437 16.962,19.896 16.991 C 20.381 17.022,20.699 16.882,20.880 16.558 L 20.980 16.380 20.991 11.064 C 21.003 5.161,21.019 5.546,20.732 4.960 C 20.618 4.725,20.503 4.577,20.203 4.277 C 19.992 4.067,19.712 3.825,19.581 3.739 C 18.442 2.998,16.843 2.464,14.980 2.202 C 13.855 2.044,11.822 1.967,10.700 2.040 M5.514 8.859 C 6.094 9.117,6.882 9.371,7.625 9.537 L 8.258 9.678 10.419 11.843 L 12.580 14.008 11.540 13.986 C 10.080 13.954,9.041 13.831,7.930 13.558 C 6.578 13.225,5.413 12.669,5.098 12.206 L 5.000 12.061 5.000 10.346 C 5.000 8.990,5.010 8.636,5.050 8.653 C 5.077 8.665,5.286 8.757,5.514 8.859 M5.510 14.855 C 6.727 15.391,8.204 15.737,10.080 15.928 C 10.764 15.997,13.134 15.996,13.875 15.926 L 14.451 15.871 16.047 17.467 L 17.642 19.062 17.291 19.189 C 15.680 19.770,13.752 20.037,11.540 19.987 C 10.078 19.954,9.038 19.830,7.930 19.558 C 6.578 19.225,5.413 18.669,5.098 18.206 L 5.000 18.061 5.000 16.346 C 5.000 14.990,5.010 14.636,5.050 14.653 C 5.077 14.665,5.285 14.756,5.510 14.855 " stroke="none" fill="black" fill-rule="evenodd"></path></svg>