<svg xmlns="http://www.w3.org/2000/svg" width="24" height="24" viewBox="0 0 24 24" fill="none" stroke="currentColor" stroke-width="2" stroke-linecap="round" stroke-linejoin="round" class="icon icon-tabler icons-tabler-outline icon-tabler-code-circle-2"><path d="M11.080 2.045 C 9.507 2.184,7.883 2.751,6.540 3.630 C 5.905 4.045,5.499 4.378,4.919 4.958 C 2.953 6.926,1.919 9.544,2.013 12.320 C 2.084 14.439,2.752 16.328,4.033 18.040 C 4.430 18.570,5.305 19.464,5.800 19.847 C 7.242 20.961,8.787 21.624,10.600 21.907 C 11.247 22.008,12.753 22.008,13.400 21.907 C 15.638 21.557,17.504 20.620,19.062 19.062 C 20.620 17.504,21.557 15.638,21.907 13.400 C 22.008 12.753,22.008 11.247,21.907 10.600 C 21.624 8.786,20.959 7.238,19.847 5.800 C 19.510 5.365,18.639 4.494,18.200 4.154 C 16.133 2.555,13.646 1.818,11.080 2.045 M12.734 4.041 C 14.574 4.216,16.228 4.976,17.554 6.256 C 20.043 8.658,20.702 12.394,19.183 15.499 C 18.749 16.387,18.223 17.105,17.496 17.801 C 16.876 18.394,16.262 18.819,15.471 19.200 C 13.267 20.265,10.733 20.265,8.529 19.200 C 7.477 18.693,6.612 18.015,5.847 17.100 C 3.848 14.711,3.440 11.302,4.816 8.500 C 6.162 5.760,8.867 4.049,11.920 4.005 C 12.129 4.003,12.495 4.019,12.734 4.041 M12.526 8.567 C 12.430 8.618,12.300 8.732,12.237 8.820 C 12.113 8.993,10.071 14.553,9.990 14.938 C 9.882 15.452,10.246 15.868,10.922 16.003 C 11.311 16.081,11.660 15.912,11.841 15.558 C 11.979 15.288,13.992 9.705,14.020 9.513 C 14.077 9.136,13.896 8.832,13.500 8.637 C 13.141 8.460,12.773 8.434,12.526 8.567 M8.260 9.489 C 8.029 9.571,7.814 9.759,6.975 10.606 C 6.074 11.517,5.951 11.684,5.951 12.000 C 5.951 12.326,6.066 12.478,7.074 13.484 C 8.113 14.521,8.212 14.592,8.584 14.550 C 8.995 14.503,9.511 13.978,9.550 13.565 C 9.580 13.256,9.461 13.058,8.906 12.490 L 8.427 12.000 8.906 11.510 C 9.459 10.944,9.580 10.743,9.551 10.438 C 9.507 9.981,8.940 9.446,8.500 9.446 C 8.434 9.446,8.326 9.466,8.260 9.489 M15.260 9.487 C 14.822 9.651,14.439 10.129,14.441 10.509 C 14.442 10.777,14.576 10.983,15.086 11.503 L 15.573 12.000 15.086 12.497 C 14.791 12.798,14.568 13.062,14.520 13.167 C 14.358 13.525,14.453 13.864,14.817 14.218 C 15.199 14.592,15.566 14.653,15.949 14.407 C 16.229 14.227,17.850 12.578,17.960 12.363 C 18.076 12.132,18.076 11.869,17.960 11.637 C 17.841 11.399,16.081 9.641,15.862 9.541 C 15.664 9.450,15.417 9.428,15.260 9.487 " stroke="none" fill="black" fill-rule="evenodd"></path></svg>