<svg xmlns="http://www.w3.org/2000/svg" width="24" height="24" viewBox="0 0 24 24" fill="none" stroke="currentColor" stroke-width="2" stroke-linecap="round" stroke-linejoin="round" class="icon icon-tabler icons-tabler-outline icon-tabler-building-factory"><path d="M10.360 3.060 C 9.606 3.189,8.841 3.626,8.362 4.202 C 7.848 4.819,7.823 5.283,8.282 5.697 C 8.637 6.017,9.080 6.123,9.394 5.963 C 9.477 5.921,9.666 5.750,9.815 5.584 C 10.161 5.198,10.463 5.037,10.894 5.009 C 11.458 4.973,11.825 5.155,12.278 5.697 C 12.995 6.556,13.924 7.000,15.004 7.000 C 16.073 7.000,17.008 6.552,17.721 5.698 C 18.175 5.155,18.541 4.973,19.106 5.009 C 19.537 5.037,19.839 5.198,20.185 5.584 C 20.334 5.750,20.523 5.921,20.606 5.963 C 20.920 6.123,21.363 6.017,21.718 5.697 C 22.177 5.283,22.152 4.819,21.638 4.202 C 20.606 2.962,18.709 2.640,17.261 3.460 C 16.891 3.669,16.604 3.915,16.276 4.304 C 15.931 4.712,15.750 4.849,15.437 4.937 C 15.013 5.057,14.507 4.988,14.182 4.767 C 14.095 4.707,13.889 4.499,13.724 4.304 C 13.560 4.109,13.325 3.870,13.203 3.773 C 12.405 3.140,11.385 2.884,10.360 3.060 M5.614 8.057 C 5.213 8.183,5.041 8.431,5.016 8.917 C 5.007 9.084,4.981 9.643,4.958 10.160 C 4.843 12.733,4.436 15.290,3.635 18.488 C 3.482 19.098,3.330 19.687,3.297 19.798 L 3.237 20.000 3.025 20.000 C 2.597 20.000,2.263 20.165,2.109 20.453 C 2.035 20.592,2.020 20.684,2.020 21.000 C 2.020 21.331,2.033 21.403,2.120 21.558 C 2.231 21.757,2.416 21.900,2.642 21.961 C 2.852 22.017,22.146 22.018,22.356 21.961 C 22.584 21.900,22.768 21.758,22.880 21.558 C 22.967 21.402,22.980 21.332,22.979 21.000 C 22.977 20.469,22.851 20.245,22.455 20.071 C 22.373 20.036,21.953 20.015,21.005 20.000 L 19.670 19.980 19.514 19.580 C 19.428 19.360,19.240 18.838,19.096 18.420 C 18.450 16.542,18.138 15.131,18.040 13.646 C 18.015 13.280,17.987 12.887,17.975 12.774 C 17.947 12.484,17.782 12.237,17.535 12.116 L 17.340 12.020 15.256 12.009 L 13.171 11.997 13.147 11.769 C 13.102 11.329,13.038 10.293,13.006 9.451 C 12.973 8.608,12.971 8.600,12.856 8.413 C 12.774 8.281,12.680 8.194,12.541 8.122 L 12.342 8.020 9.061 8.012 C 6.447 8.006,5.746 8.015,5.614 8.057 M11.030 10.280 C 11.100 12.175,11.469 14.808,12.004 17.220 C 12.140 17.830,12.597 19.707,12.664 19.930 C 12.684 19.996,12.491 20.000,9.000 20.000 C 5.509 20.000,5.316 19.996,5.336 19.930 C 5.403 19.707,5.860 17.830,5.996 17.220 C 6.509 14.903,6.865 12.445,6.941 10.680 C 6.955 10.361,6.974 10.077,6.982 10.050 C 6.994 10.010,7.420 10.001,9.009 10.010 L 11.020 10.020 11.030 10.280 M16.056 14.170 C 16.272 15.925,16.522 17.013,17.119 18.800 C 17.313 19.383,17.485 19.892,17.500 19.930 C 17.527 19.996,17.447 20.000,16.149 20.000 C 14.871 20.000,14.767 19.995,14.741 19.930 C 14.680 19.772,14.111 17.483,13.944 16.720 C 13.775 15.954,13.440 14.180,13.440 14.056 C 13.440 14.009,13.656 14.000,14.738 14.000 L 16.035 14.000 16.056 14.170 " stroke="none" fill="black" fill-rule="evenodd"></path></svg>