<svg xmlns="http://www.w3.org/2000/svg" width="24" height="24" viewBox="0 0 24 24" fill="none" stroke="currentColor" stroke-width="2" stroke-linecap="round" stroke-linejoin="round" class="icon icon-tabler icons-tabler-outline icon-tabler-military-award"><path d="M1.614 7.057 C 1.196 7.189,1.023 7.447,1.021 7.940 L 1.020 8.260 2.313 11.275 C 3.025 12.933,3.682 14.416,3.773 14.570 C 3.970 14.900,4.490 15.410,4.818 15.595 C 5.416 15.933,5.770 15.998,6.997 15.999 L 7.974 16.000 8.330 16.379 C 9.074 17.173,9.971 17.678,11.040 17.907 C 11.511 18.008,12.489 18.008,12.960 17.907 C 14.029 17.678,14.941 17.162,15.685 16.365 L 16.025 16.000 17.003 15.999 C 18.230 15.998,18.584 15.933,19.182 15.595 C 19.510 15.410,20.030 14.900,20.227 14.570 C 20.318 14.416,20.975 12.933,21.687 11.275 L 22.980 8.260 22.978 7.940 C 22.974 7.426,22.773 7.151,22.320 7.041 C 22.195 7.010,21.226 7.000,19.160 7.008 L 16.180 7.020 15.989 7.132 C 15.734 7.282,15.655 7.415,15.319 8.260 C 15.162 8.656,15.027 8.985,15.021 8.992 C 15.014 8.999,14.886 8.925,14.735 8.827 C 13.995 8.350,13.350 8.125,12.470 8.036 C 11.335 7.921,10.160 8.216,9.227 8.849 C 9.099 8.936,8.988 9.001,8.981 8.994 C 8.973 8.986,8.838 8.656,8.681 8.260 C 8.345 7.415,8.266 7.282,8.011 7.132 L 7.820 7.020 4.800 7.012 C 2.400 7.006,1.746 7.015,1.614 7.057 M7.177 9.882 L 7.529 10.764 7.428 10.992 C 7.140 11.638,7.023 12.199,7.021 12.940 C 7.021 13.248,7.035 13.614,7.054 13.754 L 7.089 14.008 6.554 13.994 C 6.055 13.981,6.008 13.973,5.831 13.869 C 5.728 13.808,5.598 13.700,5.544 13.629 C 5.471 13.533,3.817 9.754,3.557 9.090 L 3.522 9.000 5.174 9.000 L 6.825 9.000 7.177 9.882 M20.469 9.030 C 20.460 9.046,20.022 10.068,19.496 11.300 C 18.653 13.274,18.521 13.559,18.377 13.704 C 18.147 13.936,17.928 14.000,17.369 14.000 L 16.912 14.000 16.946 13.750 C 16.965 13.613,16.979 13.248,16.979 12.940 C 16.977 12.199,16.860 11.638,16.572 10.992 L 16.471 10.764 16.823 9.882 L 17.175 9.000 18.830 9.000 C 19.740 9.000,20.478 9.014,20.469 9.030 M12.861 10.129 C 13.804 10.405,14.585 11.184,14.875 12.139 C 15.013 12.593,15.019 13.358,14.888 13.813 C 14.608 14.791,13.831 15.578,12.840 15.886 C 12.406 16.021,11.594 16.021,11.160 15.886 C 10.169 15.578,9.392 14.791,9.112 13.813 C 8.981 13.358,8.987 12.593,9.125 12.139 C 9.455 11.055,10.371 10.245,11.499 10.040 C 11.832 9.980,12.500 10.023,12.861 10.129 " stroke="none" fill="black" fill-rule="evenodd"></path></svg>