<svg xmlns="http://www.w3.org/2000/svg" width="24" height="24" viewBox="0 0 24 24" fill="none" stroke="currentColor" stroke-width="2" stroke-linecap="round" stroke-linejoin="round" class="icon icon-tabler icons-tabler-outline icon-tabler-window-minimize"><path d="M5.499 3.043 C 4.390 3.231,3.487 4.025,3.114 5.140 L 3.021 5.420 3.009 8.810 C 3.001 11.058,3.011 12.252,3.038 12.354 C 3.144 12.747,3.433 12.961,3.896 12.991 C 4.381 13.022,4.699 12.882,4.880 12.558 L 4.980 12.380 5.000 9.060 C 5.022 5.340,5.001 5.594,5.321 5.283 C 5.633 4.981,5.174 5.000,12.000 5.000 C 18.874 5.000,18.371 4.977,18.697 5.303 C 19.023 5.629,19.000 5.126,19.000 12.001 C 19.000 17.059,18.991 18.139,18.945 18.290 C 18.872 18.533,18.707 18.740,18.484 18.872 L 18.300 18.980 14.979 19.000 L 11.658 19.020 11.459 19.122 C 11.119 19.297,10.978 19.606,11.009 20.104 C 11.039 20.567,11.253 20.856,11.646 20.962 C 11.748 20.989,12.942 20.999,15.190 20.991 L 18.580 20.979 18.860 20.886 C 19.850 20.555,20.582 19.816,20.886 18.840 L 20.980 18.540 20.980 12.000 L 20.980 5.460 20.886 5.160 C 20.581 4.182,19.832 3.428,18.861 3.121 L 18.540 3.020 12.120 3.014 C 8.589 3.011,5.609 3.024,5.499 3.043 M15.620 7.046 C 15.525 7.095,14.754 7.833,13.733 8.850 L 12.006 10.572 11.993 9.596 C 11.981 8.677,11.975 8.610,11.891 8.453 C 11.689 8.076,11.138 7.902,10.629 8.055 C 10.378 8.131,10.215 8.256,10.109 8.453 C 10.021 8.618,10.020 8.649,9.993 10.780 C 9.977 11.968,9.964 12.999,9.963 13.071 C 9.960 13.224,10.153 13.669,10.265 13.768 C 10.389 13.878,10.792 14.041,10.931 14.038 C 11.002 14.036,12.032 14.023,13.220 14.007 C 15.223 13.982,15.390 13.975,15.520 13.905 C 15.876 13.715,15.978 13.514,15.978 13.000 C 15.978 12.567,15.899 12.356,15.678 12.199 C 15.439 12.028,15.243 12.000,14.305 12.000 L 13.422 12.000 15.147 10.270 C 16.321 9.092,16.900 8.483,16.960 8.363 C 17.137 8.011,17.048 7.646,16.701 7.299 C 16.361 6.959,15.967 6.867,15.620 7.046 M3.477 15.073 C 2.806 15.249,2.238 15.823,2.060 16.508 C 2.011 16.694,2.000 17.066,2.000 18.500 C 2.000 20.411,2.009 20.503,2.225 20.930 C 2.361 21.199,2.801 21.639,3.070 21.775 C 3.497 21.991,3.590 22.000,5.493 22.000 C 7.397 22.000,7.506 21.990,7.937 21.771 C 8.197 21.639,8.639 21.197,8.771 20.937 C 8.990 20.506,9.000 20.396,8.999 18.514 C 8.999 16.642,8.985 16.484,8.781 16.083 C 8.646 15.816,8.297 15.449,8.017 15.281 C 7.578 15.016,7.470 15.005,5.500 15.005 C 3.965 15.005,3.706 15.013,3.477 15.073 M7.000 18.500 L 7.000 20.000 5.500 20.000 L 4.000 20.000 4.000 18.500 L 4.000 17.000 5.500 17.000 L 7.000 17.000 7.000 18.500 " stroke="none" fill="black" fill-rule="evenodd"></path></svg>