<svg xmlns="http://www.w3.org/2000/svg" width="24" height="24" viewBox="0 0 24 24" fill="none" stroke="currentColor" stroke-width="2" stroke-linecap="round" stroke-linejoin="round" class="icon icon-tabler icons-tabler-outline icon-tabler-arrow-down-to-arc"><path d="M11.614 2.057 C 11.377 2.131,11.212 2.261,11.109 2.453 L 11.020 2.620 11.009 7.598 L 10.999 12.576 9.769 11.353 C 9.001 10.588,8.477 10.098,8.372 10.045 C 8.020 9.868,7.639 9.958,7.299 10.299 C 6.952 10.646,6.863 11.011,7.040 11.363 C 7.101 11.484,7.766 12.182,9.134 13.561 C 10.237 14.673,11.174 15.634,11.216 15.696 C 11.318 15.850,11.761 16.049,12.000 16.049 C 12.239 16.049,12.682 15.850,12.784 15.696 C 12.826 15.634,13.763 14.673,14.866 13.561 C 16.234 12.182,16.899 11.484,16.960 11.363 C 17.137 11.011,17.048 10.646,16.701 10.299 C 16.361 9.958,15.980 9.868,15.628 10.045 C 15.523 10.098,14.999 10.588,14.231 11.352 L 13.002 12.576 12.991 7.598 L 12.980 2.620 12.891 2.453 C 12.842 2.362,12.746 2.247,12.678 2.199 C 12.414 2.010,11.957 1.950,11.614 2.057 M2.614 11.057 C 2.377 11.131,2.212 11.261,2.109 11.453 C 2.027 11.606,2.020 11.673,2.022 12.260 C 2.028 13.938,2.539 15.691,3.470 17.220 C 4.015 18.116,5.008 19.235,5.800 19.847 C 7.242 20.961,8.787 21.624,10.600 21.907 C 11.247 22.008,12.753 22.008,13.400 21.907 C 15.214 21.624,16.762 20.959,18.200 19.847 C 18.637 19.509,19.509 18.637,19.847 18.200 C 21.217 16.429,21.969 14.339,21.977 12.280 C 21.980 11.671,21.973 11.607,21.891 11.453 C 21.785 11.256,21.622 11.131,21.371 11.055 C 21.021 10.950,20.588 11.009,20.322 11.199 C 20.090 11.364,20.031 11.550,19.993 12.240 C 19.885 14.174,19.292 15.738,18.145 17.110 C 17.389 18.015,16.519 18.695,15.471 19.200 C 13.267 20.265,10.733 20.265,8.529 19.200 C 6.942 18.434,5.672 17.189,4.870 15.614 C 4.333 14.558,4.086 13.589,4.004 12.217 C 3.965 11.546,3.905 11.360,3.678 11.199 C 3.414 11.010,2.957 10.950,2.614 11.057 " stroke="none" fill="black" fill-rule="evenodd"></path></svg>