<svg xmlns="http://www.w3.org/2000/svg" width="24" height="24" viewBox="0 0 24 24" fill="none" stroke="currentColor" stroke-width="2" stroke-linecap="round" stroke-linejoin="round" class="icon icon-tabler icons-tabler-outline icon-tabler-photo-circle"><path d="M11.080 2.045 C 9.507 2.184,7.883 2.751,6.540 3.630 C 5.905 4.045,5.499 4.378,4.919 4.958 C 2.953 6.926,1.919 9.544,2.013 12.320 C 2.084 14.439,2.752 16.328,4.033 18.040 C 4.430 18.570,5.305 19.464,5.800 19.847 C 7.242 20.961,8.787 21.624,10.600 21.907 C 11.247 22.008,12.753 22.008,13.400 21.907 C 15.638 21.557,17.504 20.620,19.062 19.062 C 20.620 17.504,21.557 15.638,21.907 13.400 C 22.008 12.753,22.008 11.247,21.907 10.600 C 21.624 8.786,20.959 7.238,19.847 5.800 C 19.510 5.365,18.639 4.494,18.200 4.154 C 16.133 2.555,13.646 1.818,11.080 2.045 M12.734 4.041 C 14.574 4.216,16.228 4.976,17.554 6.256 C 19.394 8.031,20.287 10.638,19.915 13.142 L 19.870 13.445 19.185 12.770 C 18.808 12.398,18.380 12.010,18.234 11.906 C 17.689 11.522,17.158 11.352,16.500 11.352 C 15.663 11.352,15.009 11.633,14.283 12.305 L 13.995 12.572 12.747 11.332 C 11.477 10.070,11.172 9.811,10.703 9.598 C 9.983 9.272,9.051 9.264,8.341 9.578 C 7.815 9.811,7.579 10.015,5.835 11.750 L 4.131 13.446 4.085 13.142 C 3.759 10.946,4.422 8.596,5.848 6.900 C 6.622 5.980,7.440 5.337,8.500 4.816 C 9.813 4.172,11.278 3.903,12.734 4.041 M14.614 7.055 C 14.220 7.184,14.039 7.437,14.009 7.900 C 13.978 8.381,14.119 8.699,14.442 8.880 C 14.597 8.967,14.669 8.980,15.000 8.980 C 15.312 8.980,15.408 8.964,15.540 8.894 C 15.866 8.718,16.000 8.459,16.000 8.000 C 16.000 7.357,15.713 7.048,15.083 7.016 C 14.893 7.006,14.718 7.021,14.614 7.055 M9.920 11.450 C 10.057 11.512,10.743 12.172,12.780 14.202 C 14.648 16.062,15.514 16.898,15.637 16.960 C 15.989 17.137,16.354 17.048,16.701 16.701 C 17.048 16.354,17.137 15.988,16.959 15.637 C 16.905 15.531,16.580 15.168,16.147 14.730 L 15.424 13.999 15.642 13.778 C 15.921 13.494,16.212 13.349,16.498 13.349 C 16.883 13.349,17.004 13.438,18.129 14.554 L 19.159 15.575 18.993 15.878 C 18.624 16.553,18.109 17.214,17.496 17.801 C 16.876 18.394,16.262 18.819,15.471 19.200 C 12.741 20.519,9.526 20.183,7.100 18.325 C 6.321 17.728,5.485 16.751,5.007 15.878 L 4.842 15.577 6.871 13.553 C 7.987 12.439,8.958 11.499,9.029 11.464 C 9.337 11.309,9.602 11.305,9.920 11.450 " stroke="none" fill="black" fill-rule="evenodd"></path></svg>