<svg xmlns="http://www.w3.org/2000/svg" width="24" height="24" viewBox="0 0 24 24" fill="none" stroke="currentColor" stroke-width="2" stroke-linecap="round" stroke-linejoin="round" class="icon icon-tabler icons-tabler-outline icon-tabler-scissors-off"><path d="M2.626 2.045 C 2.257 2.239,1.951 2.673,1.951 3.000 C 1.951 3.276,2.080 3.484,2.545 3.961 L 2.961 4.388 2.822 4.569 C 1.760 5.961,1.735 7.941,2.762 9.340 C 3.404 10.214,4.275 10.753,5.350 10.941 C 6.400 11.124,7.640 10.813,8.458 10.162 L 8.616 10.036 9.598 11.018 L 10.580 12.000 9.596 12.984 L 8.611 13.968 8.356 13.780 C 7.847 13.405,7.238 13.154,6.605 13.058 C 6.121 12.986,5.879 12.986,5.395 13.058 C 3.155 13.396,1.632 15.563,2.083 17.773 C 2.357 19.118,3.249 20.195,4.512 20.704 C 6.560 21.529,8.874 20.540,9.705 18.484 C 9.884 18.040,10.000 17.458,10.000 17.000 C 10.000 16.639,9.880 15.909,9.794 15.748 C 9.756 15.678,9.879 15.541,10.875 14.545 L 12.000 13.421 16.230 17.646 C 19.248 20.662,20.511 21.897,20.637 21.961 C 20.990 22.137,21.355 22.048,21.701 21.701 C 22.047 21.355,22.136 20.990,21.961 20.637 C 21.839 20.392,3.616 2.165,3.372 2.044 C 3.152 1.934,2.834 1.935,2.626 2.045 M18.620 4.046 C 18.384 4.167,13.154 9.407,13.039 9.637 C 12.863 9.990,12.953 10.355,13.299 10.701 C 13.645 11.047,14.010 11.137,14.363 10.961 C 14.613 10.836,19.836 5.613,19.961 5.363 C 20.137 5.010,20.047 4.645,19.701 4.299 C 19.361 3.959,18.968 3.867,18.620 4.046 M5.800 7.222 C 7.352 8.776,7.254 8.623,6.820 8.819 C 6.058 9.163,5.189 9.000,4.600 8.403 C 3.957 7.750,3.826 6.808,4.269 6.016 C 4.323 5.919,4.379 5.840,4.394 5.840 C 4.408 5.840,5.041 6.462,5.800 7.222 M6.523 15.073 C 7.262 15.266,7.850 15.924,7.967 16.690 C 8.067 17.343,7.873 17.933,7.403 18.404 C 7.002 18.807,6.547 19.000,6.000 19.000 C 5.485 19.000,5.038 18.822,4.653 18.465 C 3.323 17.229,4.189 15.005,6.000 15.005 C 6.143 15.005,6.378 15.036,6.523 15.073 " stroke="none" fill="black" fill-rule="evenodd"></path></svg>