<svg xmlns="http://www.w3.org/2000/svg" width="24" height="24" viewBox="0 0 24 24" fill="none" stroke="currentColor" stroke-width="2" stroke-linecap="round" stroke-linejoin="round" class="icon icon-tabler icons-tabler-outline icon-tabler-arrow-back"><path d="M14.614 6.057 C 14.223 6.180,14.039 6.436,14.009 6.900 C 13.978 7.381,14.119 7.699,14.442 7.880 C 14.614 7.976,14.654 7.980,15.580 8.005 C 16.435 8.027,16.575 8.040,16.861 8.126 C 17.811 8.412,18.584 9.184,18.875 10.139 C 18.958 10.412,18.973 10.542,18.973 11.000 C 18.973 11.458,18.958 11.588,18.875 11.861 C 18.586 12.811,17.844 13.556,16.860 13.886 L 16.580 13.980 12.000 13.991 L 7.421 14.002 8.646 12.771 C 9.451 11.962,9.901 11.479,9.960 11.363 C 10.137 11.011,10.048 10.646,9.701 10.299 C 9.361 9.959,8.980 9.868,8.628 10.044 C 8.518 10.099,7.768 10.817,6.460 12.118 C 5.360 13.213,4.399 14.150,4.324 14.201 C 4.149 14.321,3.951 14.745,3.951 15.000 C 3.951 15.239,4.150 15.682,4.304 15.784 C 4.366 15.826,5.327 16.763,6.439 17.866 C 7.818 19.234,8.516 19.899,8.637 19.960 C 8.989 20.137,9.354 20.048,9.701 19.701 C 10.048 19.354,10.137 18.989,9.960 18.637 C 9.901 18.521,9.452 18.039,8.648 17.231 L 7.425 16.002 12.063 15.989 C 16.345 15.977,16.723 15.971,17.000 15.905 C 18.544 15.538,19.756 14.614,20.433 13.288 C 20.838 12.494,20.980 11.899,20.980 11.000 C 20.980 10.552,20.960 10.286,20.907 10.040 C 20.625 8.721,19.863 7.576,18.800 6.874 C 18.046 6.375,17.396 6.135,16.552 6.043 C 16.008 5.983,14.822 5.992,14.614 6.057 " stroke="none" fill="black" fill-rule="evenodd"></path></svg>