<svg xmlns="http://www.w3.org/2000/svg" width="24" height="24" viewBox="0 0 24 24" fill="none" stroke="currentColor" stroke-width="2" stroke-linecap="round" stroke-linejoin="round" class="icon icon-tabler icons-tabler-outline icon-tabler-angle"><path d="M11.597 3.039 C 11.518 3.081,11.391 3.185,11.313 3.271 C 11.129 3.475,2.133 18.467,2.052 18.706 C 2.010 18.829,1.996 18.969,2.010 19.141 C 2.044 19.568,2.265 19.856,2.635 19.959 C 2.730 19.986,5.946 20.000,12.000 20.000 C 18.054 20.000,21.270 19.986,21.365 19.959 C 21.586 19.898,21.770 19.755,21.880 19.558 C 21.967 19.402,21.980 19.332,21.979 19.000 C 21.978 18.567,21.898 18.355,21.678 18.199 C 21.386 17.991,21.798 18.000,12.976 18.000 L 4.764 18.000 8.828 11.230 C 11.063 7.506,12.925 4.374,12.966 4.270 C 13.117 3.880,13.047 3.602,12.724 3.311 C 12.367 2.990,11.902 2.878,11.597 3.039 M15.156 5.000 C 14.715 5.076,14.493 5.322,14.422 5.811 C 14.407 5.918,14.415 6.103,14.441 6.231 C 14.537 6.709,14.794 6.920,15.320 6.951 C 15.830 6.981,16.141 6.844,16.311 6.514 C 16.503 6.141,16.457 5.569,16.211 5.277 C 16.016 5.045,15.571 4.928,15.156 5.000 M17.285 7.740 C 16.890 7.863,16.694 8.233,16.729 8.786 C 16.763 9.321,17.056 9.620,17.594 9.669 C 18.050 9.710,18.447 9.538,18.606 9.230 C 18.712 9.024,18.751 8.541,18.682 8.288 C 18.615 8.038,18.396 7.814,18.148 7.740 C 17.900 7.667,17.520 7.667,17.285 7.740 M19.268 10.802 C 18.799 10.880,18.561 11.154,18.529 11.654 C 18.493 12.209,18.709 12.607,19.107 12.717 C 19.306 12.772,19.737 12.771,19.940 12.715 C 20.149 12.657,20.417 12.389,20.475 12.180 C 20.530 11.981,20.533 11.587,20.479 11.395 C 20.351 10.933,19.877 10.701,19.268 10.802 M20.356 14.200 C 19.915 14.276,19.693 14.522,19.622 15.011 C 19.607 15.118,19.615 15.303,19.641 15.431 C 19.737 15.909,19.994 16.120,20.520 16.151 C 21.030 16.181,21.341 16.044,21.511 15.714 C 21.703 15.341,21.657 14.769,21.411 14.477 C 21.216 14.245,20.771 14.128,20.356 14.200 " stroke="none" fill="black" fill-rule="evenodd"></path></svg>