<svg xmlns="http://www.w3.org/2000/svg" width="24" height="24" viewBox="0 0 24 24" fill="none" stroke="currentColor" stroke-width="2" stroke-linecap="round" stroke-linejoin="round" class="icon icon-tabler icons-tabler-outline icon-tabler-podium"><path d="M9.358 2.061 C 8.230 2.237,7.143 2.974,6.569 3.953 C 6.152 4.664,6.000 5.294,6.000 6.313 L 6.000 6.993 5.369 7.006 C 4.748 7.020,4.734 7.022,4.469 7.152 C 4.119 7.325,3.990 7.523,3.995 7.880 C 3.999 8.162,4.671 10.888,4.820 11.224 C 5.035 11.709,5.428 12.173,5.893 12.489 C 6.183 12.686,6.415 12.790,6.799 12.898 L 7.098 12.982 7.463 16.261 C 7.663 18.065,7.839 19.644,7.854 19.770 L 7.881 20.000 7.347 20.000 C 6.582 20.000,6.295 20.105,6.109 20.453 C 6.035 20.592,6.020 20.684,6.020 21.000 C 6.020 21.331,6.033 21.403,6.120 21.558 C 6.230 21.755,6.414 21.898,6.635 21.959 C 6.834 22.015,17.166 22.015,17.365 21.959 C 17.586 21.898,17.770 21.755,17.880 21.558 C 17.967 21.402,17.980 21.332,17.979 21.000 C 17.978 20.687,17.962 20.591,17.890 20.453 C 17.706 20.105,17.419 20.000,16.653 20.000 L 16.119 20.000 16.146 19.770 C 16.161 19.644,16.337 18.065,16.537 16.261 L 16.902 12.982 17.201 12.898 C 17.588 12.790,17.819 12.685,18.107 12.487 C 18.593 12.153,18.997 11.668,19.195 11.180 C 19.248 11.048,19.453 10.301,19.650 9.520 C 19.969 8.255,20.006 8.073,19.986 7.852 C 19.959 7.556,19.848 7.319,19.678 7.199 C 19.390 6.993,19.593 7.000,13.594 7.000 L 8.000 7.000 8.000 6.398 C 8.000 5.682,8.064 5.349,8.265 5.014 C 8.446 4.712,8.642 4.508,8.937 4.314 C 9.239 4.116,9.481 4.044,9.982 4.003 C 10.533 3.957,10.727 3.856,10.904 3.520 C 11.018 3.305,11.009 2.679,10.890 2.453 C 10.674 2.045,10.216 1.927,9.358 2.061 M17.719 9.010 C 17.719 9.015,17.638 9.335,17.539 9.720 C 17.338 10.506,17.256 10.661,16.938 10.860 L 16.746 10.980 12.000 10.980 L 7.254 10.980 7.062 10.860 C 6.744 10.661,6.662 10.506,6.461 9.720 C 6.362 9.335,6.281 9.015,6.281 9.010 C 6.280 9.005,8.854 9.000,12.000 9.000 C 15.146 9.000,17.720 9.005,17.719 9.010 M14.870 13.110 C 14.859 13.171,14.681 14.745,14.475 16.610 L 14.101 20.000 12.000 20.000 L 9.899 20.000 9.525 16.610 C 9.319 14.745,9.141 13.171,9.130 13.110 L 9.110 13.000 12.000 13.000 L 14.890 13.000 14.870 13.110 " stroke="none" fill="black" fill-rule="evenodd"></path></svg>