<svg xmlns="http://www.w3.org/2000/svg" width="24" height="24" viewBox="0 0 24 24" fill="none" stroke="currentColor" stroke-width="2" stroke-linecap="round" stroke-linejoin="round" class="icon icon-tabler icons-tabler-outline icon-tabler-car-fan"><path d="M11.614 2.055 C 11.375 2.133,11.211 2.262,11.109 2.453 L 11.020 2.620 11.009 5.852 L 10.998 9.085 9.789 7.533 C 9.124 6.680,8.478 5.882,8.353 5.760 C 7.474 4.900,6.084 4.769,5.034 5.447 C 4.691 5.668,4.331 6.051,4.153 6.385 C 4.072 6.536,3.560 7.803,3.016 9.200 C 2.264 11.129,2.022 11.793,2.009 11.960 C 1.977 12.376,2.132 12.707,2.442 12.880 L 2.620 12.980 5.843 13.000 L 9.067 13.020 7.548 14.200 C 6.712 14.849,5.919 15.490,5.784 15.623 C 5.488 15.918,5.274 16.272,5.132 16.700 C 5.040 16.976,5.025 17.085,5.026 17.500 C 5.027 17.909,5.043 18.028,5.133 18.300 C 5.191 18.476,5.306 18.736,5.389 18.878 C 5.597 19.233,6.041 19.666,6.383 19.847 C 6.535 19.928,7.803 20.440,9.200 20.984 C 11.127 21.735,11.793 21.978,11.960 21.991 C 12.376 22.023,12.707 21.868,12.880 21.558 L 12.980 21.380 12.991 18.148 L 13.002 14.916 14.211 16.467 C 14.876 17.321,15.521 18.118,15.644 18.239 C 15.925 18.515,16.287 18.731,16.700 18.868 C 16.975 18.959,17.088 18.974,17.500 18.974 C 17.912 18.974,18.025 18.959,18.300 18.868 C 18.476 18.810,18.736 18.694,18.878 18.611 C 19.227 18.406,19.665 17.957,19.847 17.616 C 19.928 17.464,20.441 16.197,20.987 14.800 L 21.980 12.260 21.978 11.940 C 21.975 11.571,21.883 11.345,21.678 11.199 C 21.399 11.000,21.404 11.000,18.050 11.000 L 14.912 11.000 16.465 9.790 C 17.320 9.125,18.118 8.479,18.239 8.356 C 18.515 8.076,18.731 7.714,18.868 7.300 C 18.960 7.024,18.975 6.915,18.974 6.500 C 18.973 6.092,18.957 5.972,18.868 5.700 C 18.637 4.996,18.151 4.420,17.517 4.098 C 17.415 4.047,16.191 3.560,14.796 3.017 C 12.072 1.956,11.991 1.932,11.614 2.055 M14.889 5.200 C 15.836 5.570,16.659 5.907,16.716 5.949 C 16.848 6.045,17.000 6.340,17.000 6.500 C 17.000 6.568,16.960 6.703,16.910 6.801 C 16.833 6.953,16.550 7.190,14.940 8.447 C 13.906 9.255,13.047 9.917,13.030 9.918 C 13.013 9.919,13.000 8.695,13.000 7.197 L 13.000 4.475 13.083 4.501 C 13.128 4.515,13.941 4.830,14.889 5.200 M6.800 7.090 C 6.952 7.167,7.191 7.453,8.446 9.060 C 9.254 10.094,9.916 10.954,9.917 10.970 C 9.919 10.987,8.696 11.000,7.200 11.000 C 5.704 11.000,4.480 10.991,4.480 10.980 C 4.480 10.940,5.811 7.538,5.881 7.400 C 5.967 7.228,6.060 7.142,6.241 7.063 C 6.437 6.978,6.595 6.986,6.800 7.090 M19.499 13.083 C 19.393 13.417,18.111 16.634,18.051 16.716 C 18.009 16.773,17.895 16.862,17.798 16.913 C 17.580 17.026,17.310 17.015,17.129 16.887 C 17.026 16.813,14.080 13.078,14.080 13.021 C 14.080 13.009,15.305 13.000,16.803 13.000 L 19.525 13.000 19.499 13.083 M11.000 16.800 C 11.000 18.296,10.990 19.520,10.977 19.520 C 10.887 19.520,7.392 18.127,7.286 18.048 C 7.135 17.937,7.002 17.681,7.001 17.498 C 7.000 17.432,7.040 17.297,7.090 17.199 C 7.167 17.047,7.450 16.811,9.060 15.553 C 10.094 14.746,10.954 14.084,10.970 14.083 C 10.987 14.081,11.000 15.304,11.000 16.800 " stroke="none" fill="black" fill-rule="evenodd"></path></svg>