<svg xmlns="http://www.w3.org/2000/svg" width="24" height="24" viewBox="0 0 24 24" fill="none" stroke="currentColor" stroke-width="2" stroke-linecap="round" stroke-linejoin="round" class="icon icon-tabler icons-tabler-outline icon-tabler-braces"><path d="M6.499 3.043 C 5.392 3.229,4.478 4.033,4.116 5.140 C 4.028 5.412,4.024 5.482,3.997 7.480 C 3.981 8.678,3.952 9.615,3.927 9.720 C 3.829 10.138,3.664 10.478,3.431 10.744 C 3.278 10.918,3.124 11.000,2.948 11.000 C 2.763 11.000,2.471 11.092,2.322 11.199 C 2.139 11.329,2.030 11.573,2.009 11.900 C 1.969 12.518,2.245 12.915,2.760 12.981 C 3.157 13.031,3.210 13.049,3.362 13.186 C 3.607 13.408,3.819 13.817,3.927 14.280 C 3.952 14.385,3.981 15.322,3.997 16.520 C 4.024 18.518,4.028 18.588,4.116 18.860 C 4.435 19.834,5.188 20.586,6.140 20.878 C 6.479 20.982,7.113 21.028,7.344 20.965 C 7.584 20.899,7.767 20.761,7.880 20.558 C 7.967 20.402,7.980 20.332,7.979 20.000 C 7.978 19.687,7.962 19.591,7.890 19.453 C 7.737 19.164,7.521 19.052,7.007 18.999 C 6.626 18.959,6.398 18.849,6.225 18.623 C 6.003 18.332,6.000 18.301,6.000 16.378 C 6.000 15.365,5.982 14.472,5.958 14.293 C 5.858 13.546,5.530 12.687,5.163 12.210 L 5.001 12.000 5.161 11.790 C 5.542 11.290,5.866 10.432,5.958 9.681 C 5.981 9.495,6.000 8.566,6.000 7.618 C 6.000 5.657,6.006 5.607,6.283 5.321 C 6.490 5.108,6.650 5.042,7.062 5.000 C 7.535 4.951,7.738 4.836,7.904 4.520 C 8.018 4.305,8.009 3.679,7.890 3.453 C 7.687 3.070,7.198 2.926,6.499 3.043 M16.614 3.055 C 16.220 3.184,16.039 3.437,16.009 3.900 C 15.965 4.591,16.248 4.929,16.933 4.999 C 17.350 5.042,17.509 5.108,17.717 5.321 C 17.994 5.608,18.000 5.653,18.000 7.657 C 18.000 9.520,18.023 9.841,18.200 10.480 C 18.304 10.855,18.624 11.513,18.837 11.790 L 18.999 12.000 18.837 12.210 C 18.624 12.487,18.304 13.145,18.200 13.520 C 18.023 14.159,18.000 14.480,18.000 16.344 C 18.000 18.259,17.992 18.338,17.779 18.618 C 17.599 18.853,17.377 18.959,16.976 19.000 C 16.248 19.076,15.964 19.399,16.009 20.104 C 16.039 20.572,16.251 20.854,16.656 20.965 C 16.887 21.028,17.521 20.982,17.860 20.878 C 18.812 20.586,19.565 19.834,19.884 18.860 C 19.972 18.588,19.976 18.518,20.003 16.520 C 20.019 15.322,20.048 14.385,20.073 14.280 C 20.227 13.625,20.601 13.074,20.928 13.024 C 21.000 13.013,21.138 12.994,21.234 12.981 C 21.431 12.955,21.669 12.844,21.765 12.734 C 21.933 12.543,21.978 12.387,21.978 12.000 C 21.978 11.567,21.899 11.356,21.678 11.199 C 21.529 11.092,21.237 11.000,21.052 11.000 C 20.654 11.000,20.249 10.471,20.073 9.720 C 20.048 9.615,20.019 8.678,20.003 7.480 C 19.976 5.482,19.972 5.412,19.884 5.140 C 19.564 4.163,18.799 3.402,17.861 3.129 C 17.459 3.013,16.851 2.976,16.614 3.055 " stroke="none" fill="black" fill-rule="evenodd"></path></svg>