<svg xmlns="http://www.w3.org/2000/svg" width="24" height="24" viewBox="0 0 24 24" fill="none" stroke="currentColor" stroke-width="2" stroke-linecap="round" stroke-linejoin="round" class="icon icon-tabler icons-tabler-outline icon-tabler-cloud-computing"><path d="M11.320 2.044 C 10.902 2.092,10.295 2.225,9.864 2.364 C 9.364 2.525,8.537 2.945,8.080 3.270 C 7.615 3.601,6.942 4.268,6.620 4.720 C 6.388 5.045,5.920 5.917,5.920 6.025 C 5.920 6.055,5.879 6.086,5.830 6.095 C 4.523 6.335,3.578 6.793,2.695 7.615 C 2.245 8.034,1.884 8.528,1.580 9.140 C 0.983 10.343,0.846 11.601,1.175 12.864 C 1.803 15.270,4.092 17.000,6.646 17.000 L 7.000 17.000 7.000 18.500 L 7.000 20.000 4.906 20.000 C 2.674 20.000,2.592 20.006,2.322 20.199 C 2.100 20.357,2.020 20.568,2.020 21.000 C 2.020 21.331,2.033 21.403,2.120 21.558 C 2.230 21.755,2.414 21.898,2.635 21.959 C 2.724 21.984,3.641 22.000,5.014 22.000 C 7.442 22.000,7.494 21.996,7.937 21.771 C 8.197 21.639,8.639 21.197,8.771 20.937 C 8.988 20.510,9.000 20.386,9.000 18.624 L 9.000 17.000 10.000 17.000 L 11.000 17.000 11.000 19.110 C 11.000 20.400,11.016 21.276,11.041 21.365 C 11.148 21.750,11.437 21.962,11.896 21.991 C 12.381 22.022,12.699 21.882,12.880 21.558 L 12.980 21.380 12.992 19.190 L 13.003 17.000 14.002 17.000 L 15.000 17.000 15.000 18.632 C 15.000 20.399,15.010 20.507,15.225 20.930 C 15.361 21.199,15.801 21.639,16.070 21.775 C 16.508 21.997,16.547 22.000,18.978 22.000 C 20.357 22.000,21.276 21.984,21.365 21.959 C 21.586 21.898,21.770 21.755,21.880 21.558 C 21.967 21.402,21.980 21.332,21.979 21.000 C 21.978 20.567,21.898 20.355,21.678 20.199 C 21.408 20.006,21.326 20.000,19.094 20.000 L 17.000 20.000 17.000 18.504 L 17.000 17.007 18.110 16.990 C 19.145 16.974,19.246 16.966,19.603 16.871 C 20.422 16.651,21.090 16.273,21.663 15.702 C 22.258 15.110,22.623 14.477,22.854 13.640 C 23.020 13.038,23.038 12.240,22.901 11.580 C 22.748 10.840,22.305 10.002,21.763 9.428 C 21.066 8.689,20.100 8.201,19.082 8.074 C 18.636 8.019,18.642 8.024,18.640 7.660 C 18.638 6.844,18.168 5.546,17.573 4.710 C 17.259 4.270,16.583 3.600,16.119 3.271 C 15.656 2.942,14.829 2.522,14.327 2.360 C 13.389 2.059,12.251 1.939,11.320 2.044 M12.700 4.044 C 13.831 4.182,14.877 4.693,15.592 5.458 C 16.442 6.367,16.775 7.462,16.583 8.715 C 16.510 9.183,16.520 9.323,16.644 9.567 C 16.739 9.753,16.905 9.871,17.207 9.965 C 17.402 10.026,17.577 10.040,18.134 10.041 C 18.567 10.041,18.917 10.062,19.085 10.097 C 19.886 10.267,20.635 10.965,20.890 11.780 C 21.006 12.148,21.013 12.859,20.905 13.220 C 20.716 13.853,20.193 14.467,19.600 14.752 C 19.412 14.843,19.144 14.935,19.000 14.959 C 18.817 14.990,16.855 15.000,12.380 14.992 L 6.020 14.980 5.660 14.869 C 4.933 14.646,4.359 14.294,3.898 13.789 C 2.704 12.481,2.718 10.515,3.930 9.219 C 4.609 8.493,5.432 8.119,6.515 8.043 C 7.289 7.990,7.456 7.857,7.668 7.124 C 7.927 6.227,8.426 5.509,9.179 4.949 C 10.159 4.220,11.442 3.891,12.700 4.044 " stroke="none" fill="black" fill-rule="evenodd"></path></svg>