<svg xmlns="http://www.w3.org/2000/svg" width="24" height="24" viewBox="0 0 24 24" fill="none" stroke="currentColor" stroke-width="2" stroke-linecap="round" stroke-linejoin="round" class="icon icon-tabler icons-tabler-outline icon-tabler-pepper-off"><path d="M2.626 2.045 C 2.420 2.154,2.146 2.433,2.038 2.644 C 1.924 2.867,1.924 3.132,2.039 3.363 C 2.103 3.489,3.431 4.845,6.706 8.123 L 11.284 12.705 11.085 12.892 C 10.289 13.636,9.035 14.049,7.760 13.986 C 6.527 13.926,5.453 13.474,4.737 12.714 C 4.262 12.211,4.065 11.764,4.002 11.043 C 3.954 10.495,3.873 10.321,3.583 10.142 C 3.399 10.028,3.361 10.020,3.000 10.020 C 2.639 10.020,2.601 10.028,2.417 10.142 C 2.112 10.330,2.025 10.521,2.007 11.042 C 1.989 11.538,2.079 12.346,2.224 12.994 C 2.670 14.984,3.883 16.879,5.520 18.144 C 6.615 18.989,8.080 19.627,9.511 19.882 C 10.398 20.041,11.684 20.029,12.600 19.855 C 13.061 19.768,13.779 19.569,14.200 19.412 C 14.928 19.141,15.901 18.600,16.434 18.169 L 16.607 18.029 18.534 19.950 C 19.856 21.269,20.516 21.899,20.637 21.960 C 20.989 22.137,21.354 22.048,21.701 21.701 C 22.048 21.355,22.137 20.990,21.961 20.637 C 21.870 20.456,19.863 18.435,8.471 7.054 C 5.095 3.681,3.487 2.101,3.372 2.044 C 3.152 1.934,2.835 1.935,2.626 2.045 M19.460 3.045 C 18.494 3.166,17.454 3.687,16.653 4.453 C 15.969 5.107,15.501 5.838,15.223 6.688 L 15.089 7.097 14.807 7.183 C 14.442 7.295,13.929 7.557,13.597 7.802 C 12.963 8.271,12.402 9.059,12.402 9.480 C 12.402 9.803,12.690 10.157,13.109 10.349 C 13.553 10.552,13.909 10.451,14.231 10.031 C 14.658 9.474,14.835 9.326,15.290 9.145 C 16.024 8.853,16.827 9.026,17.401 9.599 C 17.864 10.062,18.036 10.585,17.984 11.376 C 17.930 12.210,17.780 12.876,17.467 13.660 C 17.142 14.475,17.183 14.778,17.661 15.098 C 18.099 15.391,18.537 15.424,18.850 15.187 C 19.281 14.861,19.830 13.201,19.964 11.820 C 20.117 10.248,19.766 9.132,18.820 8.177 C 18.377 7.731,17.843 7.398,17.231 7.187 C 17.172 7.167,17.169 7.148,17.211 7.051 C 17.322 6.796,17.567 6.406,17.754 6.186 C 18.355 5.479,19.123 5.070,19.977 5.002 C 20.533 4.958,20.726 4.857,20.904 4.520 C 21.018 4.305,21.009 3.679,20.890 3.453 C 20.682 3.060,20.274 2.943,19.460 3.045 M15.160 16.611 C 15.160 16.664,14.442 17.113,14.083 17.285 C 11.411 18.562,8.306 18.084,6.175 16.067 C 5.969 15.872,5.800 15.699,5.800 15.682 C 5.800 15.666,5.940 15.692,6.110 15.742 C 6.745 15.925,7.172 15.979,8.000 15.978 C 8.434 15.978,8.913 15.956,9.080 15.928 C 10.397 15.709,11.599 15.149,12.454 14.354 L 12.700 14.125 13.930 15.352 C 14.607 16.027,15.160 16.594,15.160 16.611 " stroke="none" fill="black" fill-rule="evenodd"></path></svg>