<svg xmlns="http://www.w3.org/2000/svg" width="24" height="24" viewBox="0 0 24 24" fill="none" stroke="currentColor" stroke-width="2" stroke-linecap="round" stroke-linejoin="round" class="icon icon-tabler icons-tabler-outline icon-tabler-music"><path d="M8.614 3.057 C 8.377 3.131,8.212 3.261,8.109 3.453 L 8.020 3.620 8.009 8.570 C 8.004 11.293,7.990 13.520,7.978 13.520 C 7.967 13.520,7.855 13.469,7.729 13.406 C 7.245 13.164,6.548 13.000,6.000 13.000 C 4.635 13.000,3.253 13.787,2.569 14.953 C 1.320 17.083,2.233 19.785,4.512 20.704 C 5.231 20.994,6.023 21.070,6.757 20.921 C 8.384 20.589,9.589 19.384,9.921 17.757 C 9.997 17.383,10.000 17.200,10.000 13.184 L 10.000 9.000 14.000 9.000 L 18.000 9.000 18.000 11.260 C 18.000 12.503,17.990 13.520,17.979 13.520 C 17.967 13.520,17.855 13.469,17.729 13.406 C 17.245 13.164,16.548 13.000,16.000 13.000 C 14.635 13.000,13.253 13.787,12.569 14.953 C 11.320 17.083,12.233 19.785,14.512 20.704 C 16.558 21.528,18.877 20.538,19.704 18.488 C 19.779 18.300,19.877 17.971,19.921 17.755 C 20.000 17.370,20.001 17.227,19.991 10.491 L 19.980 3.620 19.891 3.453 C 19.785 3.256,19.622 3.131,19.371 3.055 C 19.107 2.976,8.867 2.978,8.614 3.057 M18.000 6.000 L 18.000 7.000 14.000 7.000 L 10.000 7.000 10.000 6.000 L 10.000 5.000 14.000 5.000 L 18.000 5.000 18.000 6.000 M6.523 15.073 C 7.262 15.266,7.850 15.924,7.967 16.690 C 8.067 17.343,7.873 17.933,7.403 18.404 C 7.002 18.807,6.547 19.000,6.000 19.000 C 5.485 19.000,5.038 18.822,4.653 18.465 C 3.323 17.229,4.189 15.005,6.000 15.005 C 6.143 15.005,6.378 15.036,6.523 15.073 M16.523 15.073 C 17.262 15.266,17.850 15.924,17.967 16.690 C 18.067 17.343,17.873 17.933,17.403 18.404 C 17.002 18.807,16.547 19.000,16.000 19.000 C 15.485 19.000,15.038 18.822,14.653 18.465 C 13.323 17.229,14.189 15.005,16.000 15.005 C 16.143 15.005,16.378 15.036,16.523 15.073 " stroke="none" fill="black" fill-rule="evenodd"></path></svg>