<svg xmlns="http://www.w3.org/2000/svg" width="24" height="24" viewBox="0 0 24 24" fill="none" stroke="currentColor" stroke-width="2" stroke-linecap="round" stroke-linejoin="round" class="icon icon-tabler icons-tabler-outline icon-tabler-skew-x"><path d="M4.605 3.243 C 4.078 3.336,3.430 3.837,3.200 4.327 C 3.135 4.466,3.063 4.677,3.041 4.796 C 2.984 5.093,2.984 18.907,3.041 19.204 C 3.111 19.577,3.294 19.905,3.596 20.202 C 4.033 20.631,4.583 20.840,5.132 20.787 C 5.435 20.758,19.164 18.189,19.500 18.099 C 20.017 17.960,20.446 17.629,20.735 17.146 C 21.008 16.690,21.000 16.852,20.998 11.972 C 20.996 7.954,20.990 7.558,20.927 7.317 C 20.761 6.682,20.197 6.098,19.580 5.924 C 19.248 5.830,5.329 3.234,5.080 3.220 C 4.937 3.211,4.723 3.222,4.605 3.243 M12.000 6.520 C 15.773 7.226,18.892 7.813,18.930 7.825 C 18.997 7.844,19.000 8.069,18.990 12.011 L 18.980 16.176 12.000 17.487 C 8.161 18.207,5.016 18.798,5.010 18.798 C 5.005 18.799,5.000 15.739,5.000 11.997 C 5.000 5.537,5.004 5.196,5.070 5.215 C 5.109 5.227,8.227 5.814,12.000 6.520 " stroke="none" fill="black" fill-rule="evenodd"></path></svg>