<svg xmlns="http://www.w3.org/2000/svg" width="24" height="24" viewBox="0 0 24 24" fill="none" stroke="currentColor" stroke-width="2" stroke-linecap="round" stroke-linejoin="round" class="icon icon-tabler icons-tabler-outline icon-tabler-sort-ascending-small-big"><path d="M14.327 4.043 C 13.885 4.130,13.398 4.492,13.198 4.883 C 13.012 5.247,13.001 5.367,13.001 7.000 C 13.001 8.633,13.012 8.753,13.198 9.117 C 13.314 9.344,13.656 9.686,13.883 9.802 C 14.247 9.988,14.367 9.999,16.000 9.999 C 17.158 9.999,17.590 9.986,17.740 9.946 C 18.318 9.791,18.744 9.380,18.921 8.807 C 18.994 8.571,19.000 8.433,19.000 7.006 C 18.999 5.844,18.986 5.410,18.946 5.260 C 18.778 4.632,18.273 4.160,17.642 4.040 C 17.386 3.992,14.576 3.994,14.327 4.043 M6.614 5.057 C 6.377 5.131,6.212 5.261,6.109 5.453 L 6.020 5.620 6.009 10.597 L 5.999 15.574 5.269 14.852 C 4.856 14.443,4.467 14.094,4.372 14.045 C 4.021 13.868,3.640 13.958,3.299 14.299 C 2.952 14.646,2.863 15.011,3.040 15.363 C 3.099 15.480,3.635 16.051,4.635 17.062 C 5.463 17.899,6.174 18.634,6.216 18.697 C 6.318 18.850,6.762 19.049,7.000 19.049 C 7.238 19.049,7.682 18.850,7.784 18.697 C 7.826 18.634,8.537 17.899,9.365 17.062 C 10.365 16.051,10.901 15.480,10.960 15.363 C 11.137 15.011,11.048 14.646,10.701 14.299 C 10.360 13.958,9.979 13.868,9.628 14.045 C 9.533 14.094,9.144 14.443,8.731 14.852 L 8.002 15.574 7.991 10.597 L 7.980 5.620 7.891 5.453 C 7.842 5.362,7.746 5.247,7.678 5.199 C 7.414 5.010,6.957 4.950,6.614 5.057 M17.000 7.000 L 17.000 8.000 16.000 8.000 L 15.000 8.000 15.000 7.000 L 15.000 6.000 16.000 6.000 L 17.000 6.000 17.000 7.000 M14.800 11.027 C 13.956 11.175,13.215 11.886,13.044 12.712 C 12.983 13.005,12.983 17.995,13.044 18.288 C 13.208 19.082,13.918 19.792,14.712 19.956 C 15.005 20.017,19.995 20.017,20.288 19.956 C 21.082 19.792,21.792 19.082,21.956 18.288 C 22.017 17.995,22.017 13.005,21.956 12.712 C 21.809 12.003,21.260 11.386,20.528 11.108 C 20.303 11.022,20.265 11.021,17.600 11.015 C 16.115 11.012,14.855 11.017,14.800 11.027 M19.952 13.048 C 20.021 13.117,20.021 17.883,19.952 17.952 C 19.883 18.021,15.117 18.021,15.048 17.952 C 14.979 17.883,14.979 13.117,15.048 13.048 C 15.117 12.979,19.883 12.979,19.952 13.048 " stroke="none" fill="black" fill-rule="evenodd"></path></svg>