<svg xmlns="http://www.w3.org/2000/svg" width="24" height="24" viewBox="0 0 24 24" fill="none" stroke="currentColor" stroke-width="2" stroke-linecap="round" stroke-linejoin="round" class="icon icon-tabler icons-tabler-outline icon-tabler-border-bottom"><path d="M3.614 3.057 C 3.221 3.180,3.039 3.435,3.009 3.906 C 2.962 4.621,3.306 5.000,4.000 5.000 C 4.698 5.000,5.043 4.616,4.989 3.900 C 4.963 3.563,4.859 3.327,4.678 3.199 C 4.414 3.010,3.957 2.950,3.614 3.057 M7.614 3.057 C 7.221 3.180,7.039 3.435,7.009 3.906 C 6.962 4.621,7.306 5.000,8.000 5.000 C 8.698 5.000,9.043 4.616,8.989 3.900 C 8.963 3.563,8.859 3.327,8.678 3.199 C 8.414 3.010,7.957 2.950,7.614 3.057 M11.614 3.057 C 11.221 3.180,11.039 3.435,11.009 3.906 C 10.962 4.621,11.306 5.000,12.000 5.000 C 12.698 5.000,13.043 4.616,12.989 3.900 C 12.963 3.563,12.859 3.327,12.678 3.199 C 12.414 3.010,11.957 2.950,11.614 3.057 M15.614 3.057 C 15.221 3.180,15.039 3.435,15.009 3.906 C 14.962 4.621,15.306 5.000,16.000 5.000 C 16.698 5.000,17.043 4.616,16.989 3.900 C 16.963 3.563,16.859 3.327,16.678 3.199 C 16.414 3.010,15.957 2.950,15.614 3.057 M19.614 3.057 C 19.221 3.180,19.039 3.435,19.009 3.906 C 18.962 4.621,19.306 5.000,20.000 5.000 C 20.698 5.000,21.043 4.616,20.989 3.900 C 20.963 3.563,20.859 3.327,20.678 3.199 C 20.414 3.010,19.957 2.950,19.614 3.057 M3.614 7.057 C 3.221 7.180,3.039 7.435,3.009 7.906 C 2.962 8.621,3.306 9.000,4.000 9.000 C 4.698 9.000,5.043 8.616,4.989 7.900 C 4.963 7.563,4.859 7.327,4.678 7.199 C 4.414 7.010,3.957 6.950,3.614 7.057 M11.614 7.057 C 11.221 7.180,11.039 7.435,11.009 7.906 C 10.962 8.621,11.306 9.000,12.000 9.000 C 12.698 9.000,13.043 8.616,12.989 7.900 C 12.963 7.563,12.859 7.327,12.678 7.199 C 12.414 7.010,11.957 6.950,11.614 7.057 M19.614 7.057 C 19.221 7.180,19.039 7.435,19.009 7.906 C 18.962 8.621,19.306 9.000,20.000 9.000 C 20.698 9.000,21.043 8.616,20.989 7.900 C 20.963 7.563,20.859 7.327,20.678 7.199 C 20.414 7.010,19.957 6.950,19.614 7.057 M3.614 11.057 C 3.221 11.180,3.039 11.435,3.009 11.906 C 2.962 12.621,3.306 13.000,4.000 13.000 C 4.698 13.000,5.043 12.616,4.989 11.900 C 4.963 11.563,4.859 11.327,4.678 11.199 C 4.414 11.010,3.957 10.950,3.614 11.057 M7.614 11.057 C 7.221 11.180,7.039 11.435,7.009 11.906 C 6.962 12.621,7.306 13.000,8.000 13.000 C 8.698 13.000,9.043 12.616,8.989 11.900 C 8.963 11.563,8.859 11.327,8.678 11.199 C 8.414 11.010,7.957 10.950,7.614 11.057 M11.614 11.057 C 11.221 11.180,11.039 11.435,11.009 11.906 C 10.962 12.621,11.306 13.000,12.000 13.000 C 12.698 13.000,13.043 12.616,12.989 11.900 C 12.963 11.563,12.859 11.327,12.678 11.199 C 12.414 11.010,11.957 10.950,11.614 11.057 M15.614 11.057 C 15.221 11.180,15.039 11.435,15.009 11.906 C 14.962 12.621,15.306 13.000,16.000 13.000 C 16.698 13.000,17.043 12.616,16.989 11.900 C 16.963 11.563,16.859 11.327,16.678 11.199 C 16.414 11.010,15.957 10.950,15.614 11.057 M19.614 11.057 C 19.221 11.180,19.039 11.435,19.009 11.906 C 18.962 12.621,19.306 13.000,20.000 13.000 C 20.698 13.000,21.043 12.616,20.989 11.900 C 20.963 11.563,20.859 11.327,20.678 11.199 C 20.414 11.010,19.957 10.950,19.614 11.057 M3.614 15.057 C 3.221 15.180,3.039 15.435,3.009 15.906 C 2.962 16.621,3.306 17.000,4.000 17.000 C 4.698 17.000,5.043 16.616,4.989 15.900 C 4.963 15.563,4.859 15.327,4.678 15.199 C 4.414 15.010,3.957 14.950,3.614 15.057 M11.614 15.057 C 11.221 15.180,11.039 15.435,11.009 15.906 C 10.962 16.621,11.306 17.000,12.000 17.000 C 12.698 17.000,13.043 16.616,12.989 15.900 C 12.963 15.563,12.859 15.327,12.678 15.199 C 12.414 15.010,11.957 14.950,11.614 15.057 M19.614 15.057 C 19.221 15.180,19.039 15.435,19.009 15.906 C 18.962 16.621,19.306 17.000,20.000 17.000 C 20.698 17.000,21.043 16.616,20.989 15.900 C 20.963 15.563,20.859 15.327,20.678 15.199 C 20.414 15.010,19.957 14.950,19.614 15.057 M3.614 19.057 C 3.377 19.131,3.212 19.261,3.109 19.453 C 3.035 19.592,3.020 19.684,3.020 20.000 C 3.020 20.331,3.033 20.403,3.120 20.558 C 3.230 20.755,3.414 20.898,3.635 20.959 C 3.835 21.015,20.165 21.015,20.365 20.959 C 20.586 20.898,20.770 20.755,20.880 20.558 C 20.967 20.402,20.980 20.332,20.979 20.000 C 20.978 19.567,20.898 19.355,20.678 19.199 C 20.386 18.990,20.799 19.000,11.984 19.003 C 5.367 19.005,3.748 19.015,3.614 19.057 " stroke="none" fill="black" fill-rule="evenodd"></path></svg>