<svg xmlns="http://www.w3.org/2000/svg" width="24" height="24" viewBox="0 0 24 24" fill="none" stroke="currentColor" stroke-width="2" stroke-linecap="round" stroke-linejoin="round" class="icon icon-tabler icons-tabler-outline icon-tabler-device-watch-minus"><path d="M8.614 2.057 C 8.377 2.131,8.212 2.261,8.109 2.453 C 8.024 2.613,8.019 2.674,8.000 3.873 L 7.980 5.126 7.720 5.217 C 6.350 5.697,5.370 6.816,5.083 8.227 C 5.003 8.618,5.000 8.755,5.000 12.000 C 5.000 15.243,5.003 15.382,5.082 15.772 C 5.359 17.128,6.281 18.231,7.540 18.711 C 7.716 18.778,7.891 18.843,7.928 18.854 C 7.989 18.874,7.997 18.992,8.008 20.128 C 8.020 21.379,8.020 21.380,8.120 21.558 C 8.230 21.755,8.414 21.898,8.635 21.959 C 8.723 21.984,9.551 22.000,10.743 22.000 C 12.924 22.000,12.995 21.993,13.229 21.751 C 13.418 21.556,13.486 21.355,13.486 20.997 C 13.486 20.491,13.303 20.196,12.909 20.064 C 12.748 20.010,12.497 20.000,11.359 20.000 L 10.000 20.000 10.000 19.500 L 10.000 19.000 11.110 19.000 C 11.730 19.000,12.284 18.982,12.365 18.959 C 12.586 18.898,12.770 18.755,12.880 18.558 C 12.967 18.402,12.980 18.332,12.979 18.000 C 12.978 17.567,12.898 17.355,12.678 17.199 C 12.413 17.010,12.299 17.000,10.462 17.000 C 8.602 17.000,8.495 16.990,8.083 16.781 C 7.816 16.646,7.449 16.297,7.281 16.017 C 6.999 15.548,7.005 15.636,7.005 12.000 C 7.005 9.047,7.011 8.715,7.073 8.477 C 7.201 7.988,7.543 7.546,8.014 7.265 C 8.459 6.998,8.431 7.000,12.028 7.002 C 15.632 7.005,15.549 6.999,16.017 7.281 C 16.294 7.448,16.618 7.787,16.772 8.071 C 16.996 8.485,16.999 8.532,17.000 12.020 C 17.000 14.038,17.015 15.273,17.041 15.365 C 17.148 15.750,17.437 15.962,17.896 15.991 C 18.381 16.022,18.699 15.882,18.880 15.558 L 18.980 15.380 18.991 12.012 C 19.002 8.769,18.999 8.628,18.922 8.248 C 18.630 6.816,17.656 5.699,16.280 5.217 L 16.020 5.126 16.000 3.873 C 15.981 2.674,15.976 2.613,15.891 2.453 C 15.785 2.256,15.622 2.131,15.371 2.055 C 15.109 1.977,8.866 1.979,8.614 2.057 M14.000 4.500 L 14.000 5.000 12.000 5.000 L 10.000 5.000 10.000 4.500 L 10.000 4.000 12.000 4.000 L 14.000 4.000 14.000 4.500 M15.614 18.057 C 15.377 18.131,15.212 18.261,15.109 18.453 C 15.035 18.592,15.020 18.684,15.020 19.000 C 15.020 19.331,15.033 19.403,15.120 19.558 C 15.230 19.755,15.414 19.898,15.635 19.959 C 15.832 20.014,22.168 20.014,22.365 19.959 C 22.586 19.898,22.770 19.755,22.880 19.558 C 22.967 19.402,22.980 19.332,22.979 19.000 C 22.978 18.567,22.898 18.355,22.678 18.199 C 22.398 17.999,22.411 18.000,18.984 18.003 C 16.472 18.005,15.744 18.017,15.614 18.057 " stroke="none" fill="black" fill-rule="evenodd"></path></svg>