<svg xmlns="http://www.w3.org/2000/svg" width="24" height="24" viewBox="0 0 24 24" fill="none" stroke="currentColor" stroke-width="2" stroke-linecap="round" stroke-linejoin="round" class="icon icon-tabler icons-tabler-outline icon-tabler-octagon-plus-2"><path d="M11.490 1.044 C 11.375 1.064,11.159 1.122,11.010 1.175 C 10.411 1.387,4.956 3.758,4.736 3.902 C 4.399 4.122,4.007 4.539,3.814 4.884 C 3.722 5.047,3.080 6.512,2.386 8.140 C 0.984 11.430,0.970 11.471,1.013 12.159 C 1.026 12.368,1.065 12.642,1.099 12.766 C 1.191 13.105,3.658 18.857,3.848 19.178 C 4.060 19.534,4.469 19.943,4.822 20.150 C 4.975 20.240,6.450 20.890,8.100 21.594 C 11.273 22.949,11.415 23.001,12.008 22.999 C 12.843 22.997,13.863 22.554,14.002 22.133 C 14.114 21.795,14.003 21.318,13.741 21.012 C 13.455 20.678,13.152 20.640,12.543 20.860 C 12.136 21.007,11.941 21.030,11.716 20.955 C 11.641 20.930,10.293 20.359,8.721 19.686 C 6.172 18.596,5.844 18.446,5.701 18.302 C 5.559 18.159,5.394 17.799,4.280 15.200 C 3.057 12.347,3.020 12.252,3.020 12.000 C 3.020 11.748,3.057 11.653,4.280 8.800 C 5.395 6.198,5.558 5.842,5.700 5.700 C 5.842 5.558,6.198 5.395,8.800 4.280 C 11.653 3.057,11.748 3.020,12.000 3.020 C 12.252 3.020,12.347 3.057,15.200 4.280 C 17.802 5.395,18.158 5.558,18.300 5.700 C 18.442 5.842,18.604 6.196,19.717 8.799 C 20.680 11.049,20.979 11.784,20.990 11.939 C 21.003 12.096,20.975 12.225,20.863 12.532 C 20.702 12.973,20.687 13.182,20.797 13.425 C 20.939 13.739,21.429 14.012,21.860 14.017 C 22.265 14.021,22.505 13.799,22.749 13.195 C 23.051 12.445,23.076 11.615,22.816 10.972 C 22.262 9.605,20.237 4.953,20.111 4.758 C 19.908 4.445,19.579 4.114,19.263 3.904 C 19.045 3.759,13.614 1.396,12.996 1.177 C 12.523 1.010,11.984 0.962,11.490 1.044 M18.614 15.057 C 18.377 15.131,18.212 15.261,18.109 15.453 C 18.024 15.613,18.020 15.668,18.008 16.810 L 17.996 18.000 16.904 18.000 C 15.744 18.000,15.570 18.022,15.322 18.199 C 15.100 18.357,15.020 18.568,15.020 19.000 C 15.020 19.331,15.033 19.403,15.120 19.558 C 15.230 19.755,15.414 19.898,15.635 19.959 C 15.716 19.982,16.270 20.000,16.890 20.000 L 18.000 20.000 18.000 21.110 C 18.000 21.730,18.018 22.284,18.041 22.365 C 18.148 22.750,18.437 22.962,18.896 22.991 C 19.381 23.022,19.699 22.882,19.880 22.558 C 19.979 22.381,19.980 22.374,19.993 21.190 L 20.005 20.000 21.113 20.000 C 21.731 20.000,22.284 19.982,22.365 19.959 C 22.586 19.898,22.770 19.755,22.880 19.558 C 22.967 19.402,22.980 19.332,22.979 19.000 C 22.978 18.567,22.898 18.355,22.678 18.199 C 22.430 18.022,22.256 18.000,21.096 18.000 L 20.005 18.000 19.993 16.810 C 19.981 15.669,19.976 15.613,19.891 15.453 C 19.842 15.362,19.746 15.247,19.678 15.199 C 19.414 15.010,18.957 14.950,18.614 15.057 " stroke="none" fill="black" fill-rule="evenodd"></path></svg>