<svg xmlns="http://www.w3.org/2000/svg" width="24" height="24" viewBox="0 0 24 24" fill="none" stroke="currentColor" stroke-width="2" stroke-linecap="round" stroke-linejoin="round" class="icon icon-tabler icons-tabler-outline icon-tabler-device-imac-up"><path d="M3.477 2.073 C 2.806 2.249,2.238 2.823,2.060 3.508 C 2.008 3.706,2.000 4.577,2.000 10.000 C 2.000 16.828,1.988 16.462,2.225 16.930 C 2.361 17.199,2.801 17.639,3.070 17.775 C 3.514 18.000,3.518 18.000,6.301 18.000 L 8.864 18.000 8.742 18.990 L 8.619 19.980 8.137 20.001 C 7.724 20.018,7.627 20.036,7.458 20.123 C 7.119 20.297,6.978 20.606,7.009 21.104 C 7.038 21.563,7.250 21.852,7.635 21.959 C 7.725 21.984,8.716 22.000,10.243 22.000 C 12.972 22.000,12.990 21.999,13.229 21.751 C 13.418 21.556,13.486 21.355,13.486 20.997 C 13.486 20.491,13.303 20.196,12.909 20.064 C 12.753 20.012,12.524 20.000,11.679 20.000 C 11.107 20.000,10.640 19.987,10.640 19.970 C 10.640 19.953,10.694 19.517,10.760 19.000 C 10.826 18.483,10.880 18.047,10.880 18.030 C 10.880 18.014,11.291 18.000,11.793 18.000 C 12.830 18.000,13.020 17.967,13.229 17.751 C 13.418 17.556,13.486 17.355,13.486 16.997 C 13.486 16.491,13.303 16.196,12.909 16.064 C 12.738 16.007,12.245 16.000,8.359 16.000 L 4.000 16.000 4.000 15.000 L 4.000 14.000 10.110 14.000 C 14.080 14.000,16.271 13.985,16.365 13.959 C 16.586 13.898,16.770 13.755,16.880 13.558 C 16.967 13.402,16.980 13.332,16.979 13.000 C 16.978 12.567,16.898 12.355,16.678 12.199 C 16.389 11.993,16.632 12.000,10.094 12.000 L 4.000 12.000 4.000 8.000 L 4.000 4.000 12.000 4.000 L 20.000 4.000 20.000 8.353 C 20.000 13.159,19.991 12.979,20.249 13.229 C 20.442 13.416,20.647 13.487,20.997 13.488 C 21.348 13.490,21.556 13.418,21.751 13.229 C 22.010 12.979,22.000 13.170,21.999 8.243 C 21.999 3.406,22.004 3.521,21.781 3.083 C 21.646 2.816,21.297 2.449,21.017 2.281 C 20.523 1.983,21.217 2.005,12.000 2.005 C 4.321 2.005,3.721 2.009,3.477 2.073 M18.530 15.083 C 18.393 15.150,18.249 15.252,18.210 15.310 C 18.172 15.369,17.463 16.101,16.635 16.938 C 15.635 17.949,15.099 18.520,15.040 18.637 C 14.863 18.989,14.952 19.354,15.299 19.701 C 15.646 20.048,16.012 20.137,16.363 19.959 C 16.469 19.905,16.832 19.580,17.270 19.147 L 18.000 18.425 18.000 20.322 C 18.000 21.470,18.016 22.277,18.041 22.365 C 18.148 22.750,18.437 22.962,18.896 22.991 C 19.381 23.022,19.699 22.882,19.880 22.558 L 19.980 22.380 19.992 20.404 L 20.004 18.428 20.732 19.149 C 21.168 19.581,21.531 19.905,21.637 19.959 C 21.988 20.137,22.354 20.048,22.701 19.701 C 23.048 19.354,23.137 18.989,22.960 18.637 C 22.901 18.520,22.365 17.949,21.365 16.938 C 20.537 16.101,19.828 15.369,19.789 15.310 C 19.751 15.252,19.604 15.149,19.464 15.082 C 19.120 14.918,18.871 14.918,18.530 15.083 " stroke="none" fill="black" fill-rule="evenodd"></path></svg>