<svg xmlns="http://www.w3.org/2000/svg" width="24" height="24" viewBox="0 0 24 24" fill="none" stroke="currentColor" stroke-width="2" stroke-linecap="round" stroke-linejoin="round" class="icon icon-tabler icons-tabler-outline icon-tabler-flag-cog"><path d="M8.020 2.603 C 7.232 2.664,6.510 2.868,5.788 3.234 C 5.074 3.596,4.332 4.170,4.126 4.520 L 4.020 4.700 4.010 12.954 C 4.003 18.404,4.013 21.259,4.040 21.358 C 4.144 21.747,4.434 21.962,4.896 21.991 C 5.381 22.022,5.699 21.882,5.880 21.558 L 5.980 21.380 5.991 17.914 L 6.002 14.448 6.145 14.339 C 6.224 14.279,6.453 14.143,6.654 14.037 C 7.790 13.440,9.185 13.436,10.329 14.027 C 10.706 14.221,10.937 14.392,11.503 14.893 C 12.076 15.400,12.678 15.761,12.951 15.760 C 13.347 15.758,13.811 15.306,13.925 14.809 C 14.016 14.417,13.870 14.168,13.325 13.784 C 13.157 13.665,12.840 13.409,12.620 13.214 C 12.082 12.738,11.747 12.506,11.207 12.232 C 10.474 11.860,9.772 11.665,8.944 11.604 C 8.005 11.535,6.956 11.704,6.150 12.056 L 6.000 12.121 6.000 8.785 L 6.000 5.449 6.144 5.340 C 6.224 5.279,6.453 5.143,6.654 5.037 C 7.792 4.439,9.185 4.436,10.332 5.028 C 10.723 5.230,10.913 5.370,11.474 5.868 C 12.961 7.188,14.901 7.703,16.799 7.280 C 17.122 7.208,17.772 6.998,17.930 6.914 C 17.996 6.879,18.000 7.005,18.000 9.291 C 18.000 11.967,18.002 11.990,18.249 12.229 C 18.442 12.416,18.647 12.487,19.000 12.488 C 19.531 12.491,19.867 12.261,19.959 11.833 C 19.992 11.679,20.001 10.655,19.992 8.160 L 19.980 4.700 19.871 4.514 C 19.677 4.185,19.324 3.960,19.000 3.960 C 18.751 3.960,18.577 4.045,18.264 4.319 C 17.878 4.658,17.638 4.826,17.300 4.993 C 16.682 5.298,16.178 5.416,15.500 5.416 C 14.822 5.416,14.318 5.298,13.700 4.993 C 13.332 4.811,13.113 4.652,12.593 4.191 C 12.133 3.783,11.801 3.545,11.360 3.308 C 10.331 2.754,9.192 2.514,8.020 2.603 M18.545 14.579 C 18.320 14.659,18.128 14.863,18.059 15.096 C 18.023 15.217,18.000 15.462,18.000 15.721 L 18.000 16.148 17.708 16.292 C 17.548 16.371,17.333 16.500,17.232 16.577 L 17.047 16.718 16.654 16.495 C 16.190 16.232,15.942 16.167,15.680 16.239 C 15.342 16.331,14.969 16.847,14.930 17.278 C 14.897 17.640,15.080 17.876,15.667 18.228 L 16.014 18.437 16.017 19.002 L 16.020 19.567 15.660 19.780 C 15.272 20.009,15.043 20.223,14.961 20.431 C 14.799 20.844,15.227 21.638,15.680 21.761 C 15.944 21.833,16.212 21.764,16.668 21.505 L 17.053 21.286 17.234 21.425 C 17.335 21.501,17.548 21.629,17.708 21.708 L 18.000 21.852 18.000 22.279 C 18.000 22.963,18.137 23.255,18.537 23.422 C 18.750 23.510,19.249 23.511,19.460 23.423 C 19.864 23.254,20.000 22.965,20.000 22.277 L 20.000 21.848 20.269 21.721 C 20.418 21.652,20.632 21.525,20.746 21.439 L 20.954 21.282 21.331 21.502 C 21.942 21.858,22.304 21.879,22.636 21.579 C 22.842 21.393,23.041 21.009,23.066 20.749 C 23.105 20.358,22.939 20.136,22.340 19.778 L 21.980 19.562 21.983 18.999 L 21.986 18.437 22.333 18.228 C 22.743 17.982,22.940 17.805,23.025 17.605 C 23.213 17.165,22.799 16.371,22.312 16.237 C 22.059 16.167,21.806 16.235,21.346 16.495 L 20.953 16.718 20.768 16.577 C 20.667 16.500,20.452 16.371,20.292 16.292 L 20.000 16.148 20.000 15.721 C 20.000 15.173,19.933 14.937,19.723 14.747 C 19.636 14.669,19.497 14.586,19.413 14.563 C 19.200 14.504,18.731 14.513,18.545 14.579 M19.260 18.044 C 19.497 18.107,19.701 18.263,19.849 18.494 C 19.968 18.679,19.980 18.727,19.980 19.003 C 19.980 19.287,19.970 19.322,19.831 19.531 C 19.613 19.859,19.389 19.980,19.000 19.979 C 18.665 19.978,18.526 19.923,18.308 19.705 C 18.104 19.501,18.022 19.300,18.022 19.000 C 18.022 18.334,18.621 17.871,19.260 18.044 " stroke="none" fill="black" fill-rule="evenodd"></path></svg>