<svg xmlns="http://www.w3.org/2000/svg" width="24" height="24" viewBox="0 0 24 24" fill="none" stroke="currentColor" stroke-width="2" stroke-linecap="round" stroke-linejoin="round" class="icon icon-tabler icons-tabler-outline icon-tabler-brand-printables"><path d="M11.660 2.070 C 11.439 2.161,5.453 5.656,5.280 5.795 C 5.075 5.960,4.961 6.182,4.961 6.420 C 4.960 6.688,5.137 7.060,5.352 7.242 C 5.441 7.318,6.749 8.099,8.257 8.978 L 11.000 10.576 11.000 13.173 L 11.000 15.769 10.910 15.711 C 10.494 15.443,6.362 13.063,6.235 13.018 C 5.879 12.893,5.565 12.985,5.291 13.296 C 4.984 13.646,5.000 13.412,5.000 17.537 C 5.000 19.881,5.015 21.273,5.041 21.365 C 5.102 21.585,5.245 21.770,5.435 21.875 C 5.658 21.998,6.046 22.033,6.287 21.951 C 6.383 21.918,7.766 21.130,9.359 20.201 C 10.952 19.271,12.333 18.477,12.429 18.436 C 12.524 18.395,12.669 18.310,12.751 18.246 C 12.833 18.182,14.175 17.387,15.733 16.480 C 17.291 15.572,18.620 14.785,18.685 14.730 C 18.750 14.675,18.843 14.556,18.892 14.465 L 18.980 14.300 18.980 10.240 C 18.980 5.742,19.000 6.086,18.721 5.814 C 18.592 5.687,12.633 2.191,12.345 2.072 C 12.136 1.986,11.865 1.985,11.660 2.070 M14.520 5.629 L 16.980 7.065 16.990 10.246 L 17.000 13.427 15.010 14.588 L 13.020 15.749 13.000 12.724 C 12.980 9.701,12.980 9.700,12.892 9.535 C 12.843 9.444,12.752 9.327,12.690 9.274 C 12.627 9.222,11.546 8.578,10.287 7.844 C 9.028 7.110,8.005 6.501,8.015 6.492 C 8.083 6.423,11.989 4.168,12.020 4.178 C 12.042 4.186,13.167 4.839,14.520 5.629 M8.534 16.637 C 9.342 17.108,9.988 17.506,9.971 17.521 C 9.930 17.558,7.040 19.240,7.017 19.240 C 7.008 19.240,7.000 18.456,7.000 17.497 C 7.000 16.538,7.015 15.759,7.033 15.767 C 7.051 15.774,7.727 16.166,8.534 16.637 " stroke="none" fill="black" fill-rule="evenodd"></path></svg>