<svg xmlns="http://www.w3.org/2000/svg" width="24" height="24" viewBox="0 0 24 24" fill="none" stroke="currentColor" stroke-width="2" stroke-linecap="round" stroke-linejoin="round" class="icon icon-tabler icons-tabler-outline icon-tabler-droplet-pause"><path d="M11.491 2.060 C 10.998 2.168,10.492 2.465,10.176 2.833 C 10.103 2.920,8.915 4.662,7.537 6.705 C 5.491 9.740,4.986 10.515,4.779 10.940 C 4.004 12.530,3.807 14.240,4.202 15.952 C 4.846 18.747,7.102 21.020,9.940 21.734 C 10.629 21.908,11.037 21.964,11.760 21.987 C 12.567 22.012,13.288 21.939,13.550 21.805 C 13.921 21.616,14.088 21.238,14.004 20.780 C 13.940 20.436,13.810 20.201,13.606 20.060 C 13.433 19.941,13.430 19.940,12.986 19.959 C 11.531 20.021,10.960 19.968,10.100 19.693 C 8.663 19.232,7.417 18.224,6.713 16.950 C 5.819 15.335,5.778 13.395,6.604 11.753 C 6.828 11.307,11.656 4.155,11.790 4.070 C 11.930 3.982,12.070 3.982,12.211 4.070 C 12.373 4.172,17.113 11.216,17.399 11.780 C 17.660 12.294,17.772 12.622,17.882 13.200 C 18.003 13.832,18.070 14.029,18.226 14.201 C 18.396 14.390,18.579 14.456,18.920 14.452 C 19.441 14.446,19.810 14.212,19.921 13.815 C 20.061 13.316,19.717 11.923,19.202 10.900 C 18.852 10.205,14.023 3.020,13.673 2.673 C 13.139 2.144,12.253 1.895,11.491 2.060 M16.614 16.057 C 16.377 16.131,16.212 16.261,16.109 16.453 L 16.020 16.620 16.009 19.412 C 16.002 21.226,16.012 22.257,16.039 22.356 C 16.144 22.747,16.433 22.961,16.896 22.991 C 17.381 23.022,17.699 22.882,17.880 22.558 L 17.980 22.380 17.980 19.500 L 17.980 16.620 17.891 16.453 C 17.842 16.362,17.746 16.247,17.678 16.199 C 17.414 16.010,16.957 15.950,16.614 16.057 M20.614 16.057 C 20.377 16.131,20.212 16.261,20.109 16.453 L 20.020 16.620 20.009 19.412 C 20.002 21.226,20.012 22.257,20.039 22.356 C 20.144 22.747,20.433 22.961,20.896 22.991 C 21.381 23.022,21.699 22.882,21.880 22.558 L 21.980 22.380 21.980 19.500 L 21.980 16.620 21.891 16.453 C 21.842 16.362,21.746 16.247,21.678 16.199 C 21.414 16.010,20.957 15.950,20.614 16.057 " stroke="none" fill="black" fill-rule="evenodd"></path></svg>