<svg xmlns="http://www.w3.org/2000/svg" width="24" height="24" viewBox="0 0 24 24" fill="none" stroke="currentColor" stroke-width="2" stroke-linecap="round" stroke-linejoin="round" class="icon icon-tabler icons-tabler-outline icon-tabler-brand-yarn"><path d="M11.700 1.054 C 11.100 1.253,10.600 1.799,10.196 2.698 L 10.063 2.993 9.701 3.059 C 8.732 3.236,7.912 3.674,7.085 4.455 C 6.752 4.770,6.641 4.848,6.375 4.958 C 5.846 5.177,5.642 5.370,5.382 5.900 C 4.927 6.826,4.837 7.537,5.063 8.411 C 5.136 8.694,5.358 9.248,5.475 9.442 L 5.554 9.572 5.186 9.976 C 4.606 10.613,4.169 11.226,3.868 11.825 C 3.497 12.564,3.200 13.916,3.200 14.868 C 3.200 15.126,3.199 15.129,2.950 15.440 C 2.152 16.437,1.877 17.357,2.062 18.415 C 2.179 19.084,2.500 20.011,2.722 20.323 C 2.783 20.408,2.803 20.482,2.789 20.572 C 2.727 20.982,2.951 21.554,3.296 21.870 C 3.661 22.203,4.359 22.479,5.047 22.563 C 5.489 22.617,5.833 22.586,6.250 22.454 L 6.560 22.356 6.710 22.476 C 6.921 22.643,7.210 22.780,7.581 22.888 C 7.871 22.972,7.974 22.980,8.720 22.975 C 10.079 22.967,13.025 22.675,13.520 22.500 C 13.751 22.419,14.083 22.231,14.341 22.035 C 14.489 21.924,14.712 21.825,15.140 21.679 C 16.334 21.272,17.456 20.743,18.357 20.162 C 19.005 19.745,19.734 19.415,20.879 19.021 C 21.482 18.814,21.672 18.709,21.952 18.432 C 22.226 18.161,22.381 17.886,22.481 17.498 C 22.575 17.127,22.580 16.885,22.501 16.435 C 22.387 15.780,22.181 15.302,21.876 14.980 C 21.485 14.566,21.000 14.432,20.192 14.513 C 19.045 14.627,17.938 15.009,17.080 15.586 C 16.959 15.667,16.690 15.838,16.483 15.966 L 16.105 16.199 16.011 15.729 C 15.756 14.462,15.069 12.937,14.389 12.130 L 14.246 11.959 14.398 11.708 C 15.032 10.664,15.593 9.092,15.777 7.838 C 15.970 6.528,15.944 5.238,15.701 4.080 C 15.622 3.700,15.423 3.098,15.323 2.935 C 15.228 2.778,15.007 2.607,14.810 2.537 C 14.598 2.462,14.178 2.469,13.935 2.554 L 13.729 2.625 13.621 2.402 C 13.403 1.956,13.081 1.449,12.934 1.320 C 12.852 1.248,12.702 1.152,12.602 1.108 C 12.376 1.007,11.921 0.980,11.700 1.054 M12.211 4.114 C 12.310 4.342,12.444 4.605,12.510 4.698 C 12.641 4.884,12.912 5.040,13.103 5.040 C 13.241 5.039,13.587 4.951,13.711 4.885 C 13.789 4.843,13.801 4.850,13.829 4.949 C 13.846 5.010,13.860 5.546,13.859 6.140 C 13.859 7.076,13.847 7.284,13.772 7.700 C 13.548 8.930,13.075 10.100,12.386 11.131 C 12.021 11.677,11.966 11.833,12.014 12.183 C 12.049 12.438,12.154 12.618,12.479 12.980 C 12.637 13.156,12.854 13.417,12.962 13.560 C 13.422 14.169,13.930 15.398,14.067 16.235 C 14.126 16.594,14.128 16.687,14.083 16.934 C 13.952 17.651,13.998 17.913,14.310 18.247 C 14.930 18.909,16.038 18.651,17.969 17.394 C 18.825 16.837,19.356 16.634,20.306 16.503 L 20.471 16.480 20.520 16.742 C 20.548 16.886,20.563 17.009,20.555 17.016 C 20.547 17.023,20.414 17.070,20.260 17.119 C 19.344 17.414,18.002 18.009,17.472 18.355 C 16.409 19.048,15.610 19.420,14.115 19.916 C 13.541 20.106,13.470 20.141,13.240 20.340 C 13.102 20.460,12.933 20.575,12.864 20.597 C 12.372 20.754,8.257 21.084,8.187 20.972 C 8.174 20.950,8.220 20.673,8.289 20.356 C 8.500 19.394,8.456 19.024,8.093 18.725 C 7.812 18.493,7.453 18.426,7.115 18.541 C 6.784 18.654,6.683 18.777,6.309 19.527 C 6.119 19.908,5.892 20.301,5.806 20.400 C 5.649 20.579,5.648 20.580,5.394 20.575 C 5.255 20.573,5.066 20.550,4.976 20.526 L 4.812 20.480 4.831 20.180 C 4.856 19.797,4.776 19.574,4.515 19.298 C 4.360 19.135,4.301 19.028,4.202 18.733 C 4.030 18.218,3.974 17.821,4.035 17.549 C 4.105 17.234,4.334 16.874,4.724 16.463 C 5.226 15.935,5.216 15.963,5.223 15.060 C 5.234 13.732,5.422 13.026,5.992 12.167 C 6.320 11.674,6.748 11.206,7.258 10.781 C 7.508 10.573,7.749 10.356,7.794 10.299 C 7.977 10.066,8.002 9.717,7.856 9.429 C 7.820 9.358,7.695 9.174,7.578 9.020 C 7.351 8.720,7.075 8.200,7.004 7.940 C 6.935 7.687,6.955 7.326,7.052 7.064 C 7.137 6.837,7.151 6.822,7.425 6.679 C 7.832 6.467,8.004 6.339,8.493 5.886 C 9.204 5.227,9.734 5.003,10.580 5.000 C 11.299 4.997,11.493 4.857,11.762 4.141 C 11.852 3.900,11.936 3.687,11.948 3.668 C 11.983 3.611,12.022 3.679,12.211 4.114 " stroke="none" fill="black" fill-rule="evenodd"></path></svg>