<svg xmlns="http://www.w3.org/2000/svg" width="24" height="24" viewBox="0 0 24 24" fill="none" stroke="currentColor" stroke-width="2" stroke-linecap="round" stroke-linejoin="round" class="icon icon-tabler icons-tabler-outline icon-tabler-map-pin-off"><path d="M2.626 2.045 C 2.257 2.239,1.951 2.673,1.951 3.000 C 1.951 3.332,2.058 3.468,3.325 4.741 C 3.982 5.402,4.520 5.955,4.520 5.970 C 4.520 5.985,4.438 6.124,4.338 6.279 C 3.856 7.024,3.377 8.238,3.182 9.210 C 2.652 11.846,3.309 14.532,5.001 16.660 C 5.282 17.013,9.458 21.232,9.999 21.708 C 11.054 22.639,12.552 22.740,13.707 21.957 C 13.813 21.885,14.634 21.097,15.530 20.205 L 17.161 18.583 18.810 20.227 C 19.929 21.342,20.517 21.900,20.637 21.960 C 20.989 22.137,21.354 22.048,21.701 21.701 C 22.048 21.355,22.137 20.990,21.961 20.637 C 21.897 20.510,20.229 18.816,16.037 14.620 C 5.040 3.613,3.549 2.133,3.372 2.044 C 3.152 1.934,2.835 1.935,2.626 2.045 M11.140 2.042 C 9.988 2.160,8.727 2.543,7.771 3.064 C 7.050 3.457,6.874 3.781,7.082 4.337 C 7.178 4.592,7.479 4.947,7.668 5.026 C 7.949 5.143,8.146 5.102,8.765 4.796 C 10.348 4.013,11.767 3.822,13.460 4.164 C 16.124 4.702,18.297 6.877,18.838 9.546 C 19.173 11.203,18.988 12.629,18.237 14.160 C 17.932 14.783,17.871 15.030,17.958 15.293 C 18.023 15.492,18.386 15.814,18.662 15.917 C 19.238 16.133,19.599 15.920,19.994 15.131 C 20.474 14.174,20.772 13.229,20.926 12.180 C 21.006 11.633,20.995 10.243,20.906 9.700 C 20.580 7.706,19.726 6.014,18.356 4.644 C 16.982 3.270,15.232 2.393,13.280 2.101 C 12.763 2.024,11.624 1.992,11.140 2.042 M11.614 7.057 C 11.223 7.180,11.039 7.436,11.009 7.900 C 10.978 8.377,11.119 8.701,11.434 8.874 C 11.563 8.946,11.704 8.977,12.012 9.002 C 12.477 9.040,12.719 9.105,12.987 9.262 C 13.402 9.505,13.783 9.971,13.902 10.382 C 13.935 10.496,13.978 10.771,13.998 10.993 C 14.060 11.718,14.341 12.000,15.000 12.000 C 15.426 12.000,15.714 11.856,15.876 11.563 C 16.086 11.182,16.010 10.271,15.705 9.516 C 15.172 8.197,14.001 7.269,12.605 7.058 C 12.139 6.988,11.836 6.988,11.614 7.057 M7.126 8.546 L 8.232 9.652 8.177 9.809 C 7.978 10.372,7.951 11.335,8.117 11.969 C 8.491 13.408,9.571 14.496,10.992 14.867 C 11.694 15.050,12.599 15.032,13.191 14.823 L 13.348 14.768 14.544 15.964 L 15.740 17.160 14.180 18.721 C 12.476 20.426,12.409 20.480,12.000 20.480 C 11.575 20.480,11.583 20.486,9.036 17.931 C 7.692 16.583,6.590 15.443,6.452 15.259 C 5.606 14.135,5.159 12.961,5.032 11.530 C 4.954 10.650,5.081 9.624,5.379 8.738 C 5.496 8.390,5.943 7.440,5.990 7.440 C 6.006 7.440,6.517 7.938,7.126 8.546 M11.442 12.913 C 11.336 12.948,10.845 12.652,10.599 12.404 C 10.356 12.159,10.080 11.707,10.080 11.556 C 10.080 11.525,10.395 11.816,10.780 12.200 C 11.165 12.585,11.463 12.906,11.442 12.913 " stroke="none" fill="black" fill-rule="evenodd"></path></svg>