<svg xmlns="http://www.w3.org/2000/svg" width="24" height="24" viewBox="0 0 24 24" fill="none" stroke="currentColor" stroke-width="2" stroke-linecap="round" stroke-linejoin="round" class="icon icon-tabler icons-tabler-outline icon-tabler-player-pause"><path d="M6.477 4.073 C 5.806 4.249,5.238 4.823,5.060 5.508 C 5.008 5.706,5.000 6.577,5.000 12.000 C 5.000 18.828,4.988 18.462,5.225 18.930 C 5.361 19.199,5.801 19.639,6.070 19.775 C 6.479 19.982,6.632 20.000,8.000 20.000 C 9.368 20.000,9.521 19.982,9.930 19.775 C 10.196 19.640,10.638 19.200,10.771 18.937 C 11.012 18.462,11.000 18.830,10.999 12.014 C 10.999 5.247,11.008 5.529,10.781 5.083 C 10.551 4.628,10.022 4.203,9.523 4.073 C 9.134 3.972,6.866 3.972,6.477 4.073 M14.477 4.073 C 13.806 4.249,13.238 4.823,13.060 5.508 C 13.008 5.706,13.000 6.577,13.000 12.000 C 13.000 18.828,12.988 18.462,13.225 18.930 C 13.361 19.199,13.801 19.639,14.070 19.775 C 14.479 19.982,14.632 20.000,16.000 20.000 C 17.368 20.000,17.521 19.982,17.930 19.775 C 18.196 19.640,18.638 19.200,18.771 18.937 C 19.012 18.462,19.000 18.830,18.999 12.014 C 18.999 5.247,19.008 5.529,18.781 5.083 C 18.551 4.628,18.022 4.203,17.523 4.073 C 17.134 3.972,14.866 3.972,14.477 4.073 M9.000 12.000 L 9.000 18.000 8.000 18.000 L 7.000 18.000 7.000 12.000 L 7.000 6.000 8.000 6.000 L 9.000 6.000 9.000 12.000 M17.000 12.000 L 17.000 18.000 16.000 18.000 L 15.000 18.000 15.000 12.000 L 15.000 6.000 16.000 6.000 L 17.000 6.000 17.000 12.000 " stroke="none" fill="black" fill-rule="evenodd"></path></svg>