<svg xmlns="http://www.w3.org/2000/svg" width="24" height="24" viewBox="0 0 24 24" fill="none" stroke="currentColor" stroke-width="2" stroke-linecap="round" stroke-linejoin="round" class="icon icon-tabler icons-tabler-outline icon-tabler-clock-edit"><path d="M11.080 2.046 C 7.397 2.383,4.166 4.770,2.749 8.200 C 1.995 10.027,1.801 12.209,2.224 14.109 C 2.560 15.620,3.188 16.952,4.153 18.200 C 4.540 18.700,5.434 19.574,5.960 19.967 C 7.635 21.219,9.551 21.905,11.600 21.987 C 12.408 22.019,12.671 21.931,12.880 21.558 C 12.967 21.402,12.980 21.332,12.979 21.000 C 12.978 20.687,12.962 20.591,12.890 20.453 C 12.725 20.141,12.406 20.000,11.864 20.000 C 10.545 19.998,8.990 19.542,7.811 18.810 C 5.265 17.228,3.802 14.372,4.031 11.430 C 4.190 9.402,5.015 7.637,6.449 6.257 C 7.704 5.050,9.192 4.327,10.940 4.076 C 11.466 4.001,12.644 4.009,13.183 4.092 C 15.929 4.516,18.223 6.281,19.338 8.826 C 19.725 9.710,19.930 10.631,19.993 11.764 C 20.023 12.310,20.039 12.410,20.124 12.562 C 20.301 12.883,20.625 13.024,21.105 12.988 C 21.519 12.957,21.737 12.834,21.894 12.540 C 21.972 12.394,21.980 12.321,21.977 11.720 C 21.965 8.600,20.250 5.486,17.560 3.699 C 15.625 2.413,13.366 1.836,11.080 2.046 M11.614 6.057 C 11.377 6.131,11.212 6.261,11.109 6.453 L 11.020 6.620 11.020 9.460 L 11.020 12.300 11.127 12.480 C 11.281 12.739,13.416 14.848,13.637 14.960 C 13.989 15.137,14.354 15.048,14.701 14.701 C 15.048 14.354,15.137 13.989,14.960 13.637 C 14.903 13.525,14.527 13.114,13.937 12.520 L 13.003 11.579 12.991 9.100 C 12.980 6.623,12.980 6.620,12.891 6.453 C 12.842 6.362,12.746 6.247,12.678 6.199 C 12.414 6.010,11.957 5.950,11.614 6.057 M19.351 14.039 C 18.947 14.112,18.514 14.292,18.160 14.533 C 17.879 14.725,14.247 18.313,14.126 18.520 L 14.020 18.700 14.008 20.450 C 14.001 21.570,14.012 22.255,14.038 22.354 C 14.100 22.583,14.242 22.768,14.442 22.880 L 14.620 22.980 16.460 22.980 L 18.300 22.980 18.481 22.874 C 18.746 22.718,22.383 19.000,22.554 18.710 C 22.855 18.201,22.998 17.685,22.999 17.108 C 23.001 16.205,22.675 15.462,21.996 14.824 C 21.652 14.500,21.154 14.216,20.720 14.097 C 20.460 14.025,19.620 13.989,19.351 14.039 M20.385 16.112 C 20.594 16.219,20.778 16.402,20.891 16.615 C 21.016 16.850,21.016 17.350,20.891 17.586 C 20.840 17.682,20.129 18.433,19.197 19.376 L 17.591 21.000 16.795 21.000 L 16.000 21.000 16.000 20.205 L 16.000 19.410 17.602 17.825 C 18.483 16.953,19.248 16.211,19.302 16.175 C 19.599 15.980,20.073 15.953,20.385 16.112 " stroke="none" fill="black" fill-rule="evenodd"></path></svg>