<svg xmlns="http://www.w3.org/2000/svg" width="24" height="24" viewBox="0 0 24 24" fill="none" stroke="currentColor" stroke-width="2" stroke-linecap="round" stroke-linejoin="round" class="icon icon-tabler icons-tabler-outline icon-tabler-clock-plus"><path d="M11.320 2.024 C 11.243 2.033,11.009 2.059,10.800 2.082 C 9.576 2.215,8.173 2.676,7.064 3.310 C 4.634 4.698,2.856 7.085,2.260 9.759 C 2.060 10.653,2.023 11.009,2.023 12.000 C 2.023 13.210,2.118 13.852,2.466 14.988 C 3.431 18.140,6.019 20.676,9.205 21.594 C 10.204 21.882,10.879 21.978,11.920 21.979 C 12.850 21.980,13.000 21.952,13.243 21.733 C 13.593 21.416,13.607 20.614,13.268 20.245 C 13.078 20.038,12.917 20.002,12.180 20.001 C 11.105 19.999,10.383 19.889,9.484 19.591 C 6.653 18.653,4.613 16.251,4.091 13.240 C 3.998 12.702,3.999 11.367,4.093 10.809 C 4.402 8.971,5.162 7.502,6.446 6.259 C 7.906 4.845,9.651 4.108,11.760 4.015 C 13.290 3.948,14.867 4.370,16.221 5.210 C 18.343 6.526,19.744 8.800,19.959 11.280 C 19.981 11.533,19.999 11.997,20.000 12.310 C 20.000 12.808,20.011 12.904,20.085 13.061 C 20.229 13.368,20.545 13.524,21.022 13.524 C 21.479 13.525,21.711 13.394,21.875 13.044 C 21.978 12.824,21.980 12.804,21.978 11.980 C 21.977 11.123,21.935 10.675,21.794 10.000 C 20.925 5.860,17.648 2.756,13.473 2.118 C 12.966 2.041,11.660 1.983,11.320 2.024 M11.614 6.057 C 11.377 6.131,11.212 6.261,11.109 6.453 L 11.020 6.620 11.020 9.460 L 11.020 12.300 11.127 12.480 C 11.284 12.744,14.416 15.849,14.637 15.960 C 14.989 16.137,15.354 16.048,15.701 15.701 C 16.048 15.354,16.137 14.989,15.960 14.637 C 15.900 14.519,15.397 13.984,14.437 13.020 L 13.003 11.580 12.991 9.100 C 12.980 6.623,12.980 6.620,12.891 6.453 C 12.842 6.362,12.746 6.247,12.678 6.199 C 12.414 6.010,11.957 5.950,11.614 6.057 M18.614 15.057 C 18.377 15.131,18.212 15.261,18.109 15.453 C 18.024 15.613,18.020 15.668,18.008 16.810 L 17.996 18.000 16.904 18.000 C 15.744 18.000,15.570 18.022,15.322 18.199 C 15.100 18.357,15.020 18.568,15.020 19.000 C 15.020 19.331,15.033 19.403,15.120 19.558 C 15.230 19.755,15.414 19.898,15.635 19.959 C 15.716 19.982,16.270 20.000,16.890 20.000 L 18.000 20.000 18.000 21.110 C 18.000 21.730,18.018 22.284,18.041 22.365 C 18.148 22.750,18.437 22.962,18.896 22.991 C 19.381 23.022,19.699 22.882,19.880 22.558 C 19.979 22.381,19.980 22.374,19.993 21.190 L 20.005 20.000 21.113 20.000 C 21.731 20.000,22.284 19.982,22.365 19.959 C 22.586 19.898,22.770 19.755,22.880 19.558 C 22.967 19.402,22.980 19.332,22.979 19.000 C 22.978 18.567,22.898 18.355,22.678 18.199 C 22.430 18.022,22.256 18.000,21.096 18.000 L 20.005 18.000 19.993 16.810 C 19.981 15.669,19.976 15.613,19.891 15.453 C 19.842 15.362,19.746 15.247,19.678 15.199 C 19.414 15.010,18.957 14.950,18.614 15.057 " stroke="none" fill="black" fill-rule="evenodd"></path></svg>