<svg xmlns="http://www.w3.org/2000/svg" width="24" height="24" viewBox="0 0 24 24" fill="none" stroke="currentColor" stroke-width="2" stroke-linecap="round" stroke-linejoin="round" class="icon icon-tabler icons-tabler-outline icon-tabler-currency"><path d="M3.626 3.045 C 3.257 3.239,2.951 3.673,2.951 4.000 C 2.951 4.334,3.055 4.465,4.400 5.820 L 5.670 7.100 5.392 7.500 C 4.684 8.517,4.184 9.876,4.042 11.168 C 3.843 12.995,4.352 15.007,5.392 16.500 L 5.670 16.900 4.400 18.180 C 3.055 19.535,2.951 19.666,2.951 20.000 C 2.951 20.477,3.523 21.049,4.000 21.049 C 4.334 21.049,4.465 20.945,5.820 19.600 L 7.100 18.330 7.500 18.608 C 8.517 19.316,9.876 19.816,11.168 19.958 C 12.995 20.157,15.007 19.648,16.500 18.608 L 16.900 18.330 18.180 19.600 C 19.535 20.945,19.666 21.049,20.000 21.049 C 20.477 21.049,21.049 20.477,21.049 20.000 C 21.049 19.666,20.945 19.535,19.600 18.180 L 18.330 16.900 18.608 16.500 C 19.316 15.483,19.816 14.124,19.958 12.832 C 20.157 11.005,19.648 8.993,18.608 7.500 L 18.330 7.100 19.600 5.820 C 20.436 4.978,20.901 4.479,20.960 4.363 C 21.137 4.011,21.048 3.646,20.701 3.299 C 20.361 2.958,19.980 2.868,19.628 3.045 C 19.523 3.098,18.981 3.605,18.180 4.400 L 16.900 5.670 16.500 5.392 C 16.009 5.051,15.126 4.611,14.548 4.419 C 12.927 3.880,11.118 3.875,9.502 4.404 C 8.885 4.606,8.011 5.037,7.500 5.392 L 7.100 5.670 5.820 4.400 C 5.019 3.605,4.477 3.098,4.372 3.045 C 4.152 2.934,3.835 2.934,3.626 3.045 M12.564 6.039 C 14.921 6.269,16.913 7.837,17.671 10.060 C 18.168 11.517,18.068 13.251,17.410 14.580 C 16.550 16.316,15.056 17.478,13.160 17.885 C 12.554 18.015,11.446 18.015,10.840 17.885 C 8.941 17.478,7.451 16.319,6.590 14.580 C 5.932 13.251,5.832 11.517,6.329 10.060 C 6.618 9.212,7.080 8.470,7.731 7.805 C 9.008 6.503,10.757 5.864,12.564 6.039 " stroke="none" fill="black" fill-rule="evenodd"></path></svg>