<svg xmlns="http://www.w3.org/2000/svg" width="24" height="24" viewBox="0 0 24 24" fill="none" stroke="currentColor" stroke-width="2" stroke-linecap="round" stroke-linejoin="round" class="icon icon-tabler icons-tabler-outline icon-tabler-file-off"><path d="M2.626 2.045 C 2.257 2.239,1.951 2.673,1.951 3.000 C 1.951 3.321,2.070 3.479,3.064 4.481 L 3.998 5.422 4.009 12.501 L 4.020 19.580 4.114 19.860 C 4.446 20.851,5.184 21.582,6.160 21.886 L 6.460 21.980 12.000 21.980 L 17.540 21.980 17.839 21.886 C 18.394 21.712,18.773 21.473,19.196 21.033 L 19.397 20.823 19.928 21.346 C 20.221 21.633,20.540 21.909,20.637 21.959 C 20.988 22.137,21.353 22.049,21.701 21.701 C 22.048 21.354,22.137 20.989,21.959 20.637 C 21.888 20.496,20.606 19.137,19.748 18.293 C 19.598 18.145,5.866 4.413,5.760 4.304 C 5.007 3.534,3.504 2.112,3.372 2.045 C 3.152 1.934,2.836 1.934,2.626 2.045 M6.614 2.057 C 6.377 2.131,6.212 2.261,6.109 2.453 C 6.035 2.592,6.020 2.684,6.020 3.000 C 6.020 3.331,6.033 3.403,6.120 3.558 C 6.230 3.755,6.414 3.898,6.635 3.959 C 6.727 3.985,8.026 4.000,10.180 4.000 L 13.580 4.000 15.790 6.210 L 18.000 8.420 18.000 11.820 C 18.000 13.974,18.015 15.273,18.041 15.365 C 18.148 15.750,18.437 15.962,18.896 15.991 C 19.381 16.022,19.699 15.882,19.880 15.558 L 19.980 15.380 19.980 11.540 L 19.980 7.700 19.873 7.520 C 19.812 7.418,18.630 6.207,17.153 4.734 C 14.627 2.214,14.533 2.125,14.323 2.064 C 14.131 2.007,13.678 2.000,10.443 2.003 C 7.554 2.005,6.745 2.016,6.614 2.057 M17.920 19.382 C 17.920 19.476,17.661 19.768,17.486 19.871 L 17.300 19.980 12.000 19.980 L 6.700 19.980 6.516 19.872 C 6.415 19.813,6.284 19.700,6.225 19.623 C 5.987 19.311,6.000 19.677,6.000 13.285 L 6.000 7.420 11.960 13.380 C 15.238 16.658,17.920 19.359,17.920 19.382 " stroke="none" fill="black" fill-rule="evenodd"></path></svg>