<svg xmlns="http://www.w3.org/2000/svg" width="24" height="24" viewBox="0 0 24 24" fill="none" stroke="currentColor" stroke-width="2" stroke-linecap="round" stroke-linejoin="round" class="icon icon-tabler icons-tabler-outline icon-tabler-brand-cake"><path d="M11.720 1.024 C 11.117 1.096,10.726 1.201,10.267 1.413 C 9.851 1.605,9.477 1.869,8.727 2.497 C 8.368 2.798,7.928 3.153,7.749 3.286 C 7.323 3.602,6.627 3.937,5.760 4.243 C 4.827 4.572,4.349 4.786,3.951 5.052 C 3.203 5.552,2.578 6.361,2.265 7.233 C 2.067 7.784,2.022 8.056,2.025 8.700 C 2.026 9.174,2.050 9.426,2.137 9.900 C 2.495 11.866,2.495 12.134,2.137 14.100 C 2.050 14.574,2.026 14.826,2.025 15.300 C 2.022 15.944,2.067 16.216,2.265 16.767 C 2.634 17.797,3.440 18.730,4.368 19.203 C 4.658 19.351,5.058 19.509,5.840 19.788 C 7.030 20.211,7.537 20.502,8.500 21.318 C 9.598 22.248,10.098 22.573,10.740 22.774 C 11.282 22.944,11.514 22.978,12.140 22.978 C 12.950 22.978,13.401 22.876,14.100 22.535 C 14.512 22.334,14.836 22.099,15.640 21.420 C 16.829 20.414,17.081 20.276,18.980 19.582 C 19.961 19.224,20.531 18.881,21.029 18.346 C 21.918 17.393,22.371 16.098,22.240 14.884 C 22.215 14.654,22.133 14.123,22.057 13.703 C 21.783 12.198,21.784 11.807,22.057 10.295 C 22.254 9.210,22.294 8.783,22.244 8.299 C 22.090 6.802,21.167 5.443,19.857 4.786 C 19.523 4.618,19.158 4.472,18.440 4.219 C 17.791 3.990,17.174 3.722,16.901 3.550 C 16.607 3.366,16.085 2.962,15.547 2.503 C 14.499 1.609,13.877 1.260,13.048 1.100 C 12.741 1.040,11.958 0.996,11.720 1.024 M12.883 3.116 C 13.241 3.229,13.542 3.432,14.340 4.099 C 15.798 5.319,16.180 5.535,18.100 6.223 C 18.955 6.529,19.179 6.651,19.522 6.996 C 19.841 7.318,20.059 7.677,20.176 8.077 C 20.277 8.420,20.258 8.968,20.120 9.734 C 19.880 11.060,19.862 11.224,19.864 12.020 C 19.866 12.806,19.882 12.948,20.140 14.380 C 20.369 15.648,20.212 16.308,19.516 17.011 C 19.169 17.361,18.980 17.463,18.100 17.778 C 16.177 18.465,15.779 18.694,14.183 20.030 C 13.222 20.835,12.917 20.978,12.160 20.979 C 11.321 20.980,10.999 20.826,9.931 19.908 C 8.655 18.810,8.011 18.436,6.440 17.881 C 5.425 17.522,5.034 17.324,4.740 17.022 C 4.451 16.726,4.229 16.358,4.109 15.980 C 4.001 15.640,3.996 15.047,4.095 14.520 C 4.399 12.917,4.467 12.247,4.401 11.470 C 4.360 10.987,4.268 10.391,4.095 9.480 C 3.996 8.953,4.001 8.360,4.109 8.020 C 4.231 7.635,4.454 7.270,4.747 6.974 C 5.049 6.669,5.432 6.476,6.440 6.119 C 7.230 5.840,7.863 5.567,8.293 5.321 C 8.650 5.117,9.346 4.596,9.976 4.061 C 10.827 3.339,11.094 3.173,11.584 3.063 C 11.947 2.982,12.530 3.006,12.883 3.116 " stroke="none" fill="black" fill-rule="evenodd"></path></svg>