<svg xmlns="http://www.w3.org/2000/svg" width="24" height="24" viewBox="0 0 24 24" fill="none" stroke="currentColor" stroke-width="2" stroke-linecap="round" stroke-linejoin="round" class="icon icon-tabler icons-tabler-outline icon-tabler-arrow-elbow-left"><path d="M2.597 7.050 C 2.507 7.088,2.378 7.159,2.311 7.207 C 2.165 7.310,1.959 7.740,1.963 7.929 C 1.965 8.001,1.979 9.482,1.993 11.220 L 2.020 14.380 2.120 14.558 C 2.287 14.856,2.572 15.000,3.000 15.000 C 3.428 15.000,3.713 14.856,3.880 14.558 L 3.980 14.380 3.992 12.402 L 4.004 10.425 7.732 14.148 C 10.381 16.794,11.511 17.898,11.637 17.961 C 11.868 18.076,12.132 18.076,12.363 17.961 C 12.614 17.835,21.835 8.614,21.961 8.363 C 22.136 8.010,22.047 7.645,21.701 7.299 C 21.361 6.959,20.981 6.868,20.628 7.044 C 20.514 7.101,19.115 8.472,16.230 11.354 L 12.000 15.580 8.710 12.290 L 5.420 9.000 7.320 9.000 C 8.469 9.000,9.277 8.984,9.365 8.959 C 9.586 8.898,9.770 8.755,9.880 8.558 C 9.967 8.402,9.980 8.332,9.979 8.000 C 9.978 7.685,9.963 7.591,9.888 7.450 C 9.784 7.252,9.574 7.102,9.320 7.043 C 9.204 7.016,7.998 6.997,5.951 6.990 C 2.990 6.981,2.750 6.985,2.597 7.050 " stroke="none" fill="black" fill-rule="evenodd"></path></svg>