<svg xmlns="http://www.w3.org/2000/svg" width="24" height="24" viewBox="0 0 24 24" fill="none" stroke="currentColor" stroke-width="2" stroke-linecap="round" stroke-linejoin="round" class="icon icon-tabler icons-tabler-outline icon-tabler-currency-dong"><path d="M15.614 3.057 C 15.257 3.169,15.058 3.415,15.012 3.803 L 14.989 4.000 13.901 4.000 C 12.744 4.000,12.570 4.022,12.322 4.199 C 12.100 4.357,12.020 4.568,12.020 5.000 C 12.020 5.331,12.033 5.403,12.120 5.558 C 12.230 5.755,12.414 5.898,12.635 5.959 C 12.716 5.982,13.270 6.000,13.890 6.000 L 15.000 6.000 15.000 6.999 L 15.000 7.998 14.730 7.824 C 13.995 7.350,13.348 7.125,12.470 7.036 C 11.742 6.962,10.898 7.070,10.248 7.320 C 9.067 7.774,8.072 8.675,7.526 9.785 C 7.158 10.533,7.020 11.136,7.020 12.000 C 7.020 12.670,7.078 13.044,7.268 13.600 C 7.846 15.291,9.253 16.525,11.040 16.907 C 11.511 17.008,12.489 17.008,12.960 16.907 C 13.607 16.769,14.271 16.493,14.765 16.159 L 14.990 16.006 15.013 16.206 C 15.074 16.715,15.427 17.000,16.000 17.000 C 16.428 17.000,16.713 16.856,16.880 16.558 L 16.980 16.380 16.991 11.195 L 17.001 6.011 17.198 5.988 C 17.539 5.947,17.754 5.805,17.904 5.520 C 18.018 5.303,18.009 4.679,17.888 4.450 C 17.773 4.233,17.551 4.086,17.248 4.029 L 17.008 3.983 16.982 3.786 C 16.948 3.531,16.834 3.309,16.678 3.199 C 16.414 3.010,15.957 2.950,15.614 3.057 M12.861 9.129 C 13.804 9.405,14.584 10.183,14.875 11.139 C 14.958 11.412,14.973 11.542,14.973 12.000 C 14.973 12.458,14.958 12.588,14.875 12.861 C 14.582 13.822,13.819 14.581,12.840 14.886 C 12.406 15.021,11.594 15.021,11.160 14.886 C 10.181 14.581,9.418 13.822,9.125 12.861 C 9.042 12.588,9.027 12.458,9.027 12.000 C 9.027 11.542,9.042 11.412,9.125 11.139 C 9.456 10.054,10.371 9.245,11.499 9.040 C 11.832 8.980,12.500 9.023,12.861 9.129 M5.614 18.057 C 5.377 18.131,5.212 18.261,5.109 18.453 C 5.035 18.592,5.020 18.684,5.020 19.000 C 5.020 19.331,5.033 19.403,5.120 19.558 C 5.230 19.755,5.414 19.898,5.635 19.959 C 5.834 20.015,18.166 20.015,18.365 19.959 C 18.586 19.898,18.770 19.755,18.880 19.558 C 18.967 19.402,18.980 19.332,18.979 19.000 C 18.978 18.567,18.898 18.355,18.678 18.199 C 18.388 17.992,18.642 18.000,11.984 18.003 C 7.009 18.005,5.747 18.016,5.614 18.057 " stroke="none" fill="black" fill-rule="evenodd"></path></svg>