<svg xmlns="http://www.w3.org/2000/svg" width="24" height="24" viewBox="0 0 24 24" fill="none" stroke="currentColor" stroke-width="2" stroke-linecap="round" stroke-linejoin="round" class="icon icon-tabler icons-tabler-outline icon-tabler-avocado"><path d="M15.334 2.038 C 14.607 2.122,13.823 2.347,13.234 2.643 C 12.590 2.966,12.222 3.250,11.480 4.001 C 10.504 4.987,10.399 5.051,9.265 5.338 C 8.171 5.615,7.478 5.870,6.580 6.327 C 5.470 6.891,4.620 7.552,3.945 8.374 C 2.575 10.042,1.934 11.911,2.013 14.000 C 2.072 15.561,2.507 16.924,3.361 18.218 C 4.661 20.190,6.692 21.517,9.000 21.901 C 9.865 22.045,11.076 22.018,11.980 21.836 C 13.824 21.465,15.679 20.311,16.801 18.838 C 17.779 17.555,18.341 16.276,18.761 14.384 C 18.816 14.139,18.912 13.864,19.013 13.664 C 19.159 13.373,19.251 13.266,19.904 12.620 C 20.703 11.829,21.004 11.452,21.310 10.855 C 22.104 9.304,22.200 7.581,21.587 5.891 C 20.954 4.145,19.356 2.699,17.546 2.236 C 16.809 2.048,15.934 1.970,15.334 2.038 M16.347 4.043 C 18.314 4.262,19.742 5.695,19.959 7.669 C 20.057 8.563,19.825 9.502,19.312 10.285 C 19.109 10.596,18.947 10.768,18.166 11.503 C 17.603 12.034,17.201 12.672,16.942 13.445 C 16.864 13.679,16.800 13.904,16.800 13.945 C 16.800 13.987,16.738 14.263,16.662 14.560 C 16.348 15.787,15.886 16.753,15.180 17.660 C 14.499 18.535,13.441 19.274,12.300 19.673 C 10.695 20.235,8.751 20.050,7.260 19.195 C 6.034 18.493,5.096 17.458,4.532 16.186 C 3.811 14.560,3.841 12.572,4.610 11.020 C 5.348 9.531,6.325 8.609,7.920 7.898 C 8.539 7.622,8.994 7.469,9.812 7.262 C 10.637 7.054,11.042 6.903,11.479 6.641 C 11.934 6.367,12.292 6.064,12.743 5.571 C 13.229 5.040,13.431 4.861,13.808 4.626 C 14.302 4.318,14.893 4.113,15.482 4.045 C 15.908 3.996,15.923 3.996,16.347 4.043 M10.655 9.059 C 9.933 9.170,9.357 9.375,8.742 9.739 C 7.388 10.542,6.431 11.848,6.114 13.330 C 6.046 13.646,6.025 13.877,6.024 14.340 C 6.022 15.080,6.086 15.368,6.389 15.975 C 6.769 16.741,7.490 17.414,8.263 17.724 C 8.717 17.906,8.959 17.958,9.480 17.986 C 10.469 18.037,11.583 17.719,12.480 17.130 C 13.431 16.504,14.208 15.558,14.625 14.521 C 14.880 13.886,14.974 13.386,14.976 12.660 C 14.978 11.919,14.914 11.633,14.610 11.022 C 14.155 10.106,13.247 9.371,12.260 9.117 C 11.844 9.010,11.140 8.985,10.655 9.059 M11.613 11.039 C 12.311 11.153,12.841 11.683,12.965 12.393 C 13.058 12.919,12.861 13.723,12.497 14.306 C 11.661 15.648,9.963 16.353,8.888 15.804 C 8.458 15.585,8.124 15.117,8.035 14.607 C 7.976 14.271,8.043 13.743,8.200 13.313 C 8.608 12.194,9.687 11.266,10.820 11.059 C 11.171 10.994,11.319 10.991,11.613 11.039 " stroke="none" fill="black" fill-rule="evenodd"></path></svg>