<svg xmlns="http://www.w3.org/2000/svg" width="24" height="24" viewBox="0 0 24 24" fill="none" stroke="currentColor" stroke-width="2" stroke-linecap="round" stroke-linejoin="round" class="icon icon-tabler icons-tabler-outline icon-tabler-arrow-bear-left"><path d="M7.597 2.050 C 7.507 2.088,7.378 2.159,7.311 2.207 C 7.165 2.310,6.959 2.739,6.963 2.929 C 6.965 3.001,6.978 4.257,6.993 5.720 L 7.020 8.380 7.120 8.558 C 7.287 8.856,7.572 9.000,8.000 9.000 C 8.428 9.000,8.713 8.856,8.880 8.558 L 8.980 8.380 9.000 6.909 L 9.020 5.439 12.083 8.509 C 14.023 10.454,15.201 11.664,15.296 11.810 C 15.491 12.113,15.695 12.528,15.799 12.837 C 15.991 13.406,15.999 13.610,16.000 17.540 C 16.000 19.881,16.015 21.273,16.041 21.365 C 16.148 21.750,16.437 21.962,16.896 21.991 C 17.381 22.022,17.699 21.882,17.880 21.558 L 17.980 21.380 17.992 17.580 C 18.001 14.925,17.991 13.665,17.959 13.400 C 17.829 12.305,17.416 11.291,16.734 10.388 C 16.631 10.251,15.169 8.758,13.485 7.070 L 10.422 4.000 11.821 4.000 C 12.635 4.000,13.281 3.983,13.365 3.959 C 13.586 3.898,13.770 3.755,13.880 3.558 C 13.967 3.402,13.980 3.332,13.979 3.000 C 13.978 2.685,13.963 2.591,13.888 2.450 C 13.784 2.252,13.574 2.102,13.320 2.043 C 13.207 2.017,12.138 1.997,10.451 1.991 C 7.966 1.981,7.749 1.985,7.597 2.050 " stroke="none" fill="black" fill-rule="evenodd"></path></svg>