<svg xmlns="http://www.w3.org/2000/svg" width="24" height="24" viewBox="0 0 24 24" fill="none" stroke="currentColor" stroke-width="2" stroke-linecap="round" stroke-linejoin="round" class="icon icon-tabler icons-tabler-outline icon-tabler-arrows-left-right"><path d="M5.620 3.046 C 5.528 3.094,4.826 3.758,3.960 4.618 C 3.135 5.438,2.399 6.150,2.324 6.201 C 2.149 6.321,1.951 6.745,1.951 7.000 C 1.951 7.238,2.150 7.682,2.303 7.784 C 2.366 7.826,3.101 8.537,3.938 9.365 C 4.949 10.365,5.520 10.901,5.637 10.960 C 5.989 11.137,6.354 11.048,6.701 10.701 C 7.048 10.354,7.137 9.988,6.959 9.637 C 6.905 9.531,6.580 9.168,6.147 8.730 L 5.425 8.000 13.322 8.000 C 18.490 8.000,21.270 7.986,21.365 7.959 C 21.586 7.898,21.770 7.755,21.880 7.558 C 21.967 7.402,21.980 7.332,21.979 7.000 C 21.978 6.567,21.898 6.355,21.678 6.199 C 21.386 5.991,21.772 6.000,13.306 6.000 L 5.425 6.000 6.147 5.270 C 6.580 4.832,6.905 4.469,6.959 4.363 C 7.137 4.012,7.048 3.646,6.701 3.299 C 6.361 2.959,5.967 2.867,5.620 3.046 M17.626 13.045 C 17.257 13.239,16.951 13.673,16.951 14.000 C 16.951 14.307,17.079 14.487,17.853 15.270 L 18.575 16.000 10.694 16.000 C 2.228 16.000,2.614 15.991,2.322 16.199 C 2.100 16.357,2.020 16.568,2.020 17.000 C 2.020 17.331,2.033 17.403,2.120 17.558 C 2.230 17.755,2.414 17.898,2.635 17.959 C 2.730 17.986,5.510 18.000,10.678 18.000 L 18.575 18.000 17.853 18.730 C 17.420 19.168,17.095 19.531,17.041 19.637 C 16.863 19.988,16.952 20.354,17.299 20.701 C 17.646 21.048,18.011 21.137,18.363 20.960 C 18.480 20.901,19.051 20.365,20.062 19.365 C 20.899 18.537,21.634 17.826,21.697 17.784 C 21.850 17.682,22.049 17.238,22.049 17.000 C 22.049 16.745,21.851 16.321,21.676 16.201 C 21.601 16.150,20.865 15.438,20.040 14.618 C 19.085 13.670,18.479 13.098,18.372 13.044 C 18.152 12.934,17.835 12.934,17.626 13.045 " stroke="none" fill="black" fill-rule="evenodd"></path></svg>