<svg xmlns="http://www.w3.org/2000/svg" width="24" height="24" viewBox="0 0 24 24" fill="none" stroke="currentColor" stroke-width="2" stroke-linecap="round" stroke-linejoin="round" class="icon icon-tabler icons-tabler-outline icon-tabler-layout-align-top"><path d="M3.614 3.057 C 3.377 3.131,3.212 3.261,3.109 3.453 C 3.035 3.592,3.020 3.684,3.020 4.000 C 3.020 4.331,3.033 4.403,3.120 4.558 C 3.230 4.755,3.414 4.898,3.635 4.959 C 3.835 5.015,20.165 5.015,20.365 4.959 C 20.586 4.898,20.770 4.755,20.880 4.558 C 20.967 4.402,20.980 4.332,20.979 4.000 C 20.978 3.567,20.898 3.355,20.678 3.199 C 20.386 2.990,20.799 3.000,11.984 3.003 C 5.367 3.005,3.748 3.015,3.614 3.057 M10.499 7.042 C 9.372 7.239,8.461 8.048,8.114 9.160 L 8.020 9.460 8.020 14.000 L 8.020 18.540 8.114 18.840 C 8.422 19.827,9.173 20.578,10.160 20.886 C 10.453 20.978,10.497 20.980,12.000 20.980 C 13.503 20.980,13.547 20.978,13.840 20.886 C 14.827 20.578,15.578 19.827,15.886 18.840 L 15.980 18.540 15.980 14.000 L 15.980 9.460 15.886 9.160 C 15.581 8.181,14.825 7.421,13.861 7.124 C 13.548 7.027,13.504 7.024,12.120 7.015 C 11.339 7.010,10.609 7.022,10.499 7.042 M13.310 9.061 C 13.589 9.144,13.856 9.411,13.939 9.690 C 13.992 9.867,14.000 10.441,14.000 14.001 C 14.000 18.458,14.007 18.319,13.779 18.618 C 13.718 18.698,13.585 18.813,13.484 18.872 L 13.300 18.980 12.000 18.980 L 10.700 18.980 10.516 18.872 C 10.303 18.747,10.141 18.550,10.058 18.316 C 9.969 18.062,9.971 9.992,10.061 9.690 C 10.140 9.421,10.412 9.143,10.673 9.063 C 10.952 8.977,13.023 8.975,13.310 9.061 " stroke="none" fill="black" fill-rule="evenodd"></path></svg>