<svg xmlns="http://www.w3.org/2000/svg" width="24" height="24" viewBox="0 0 24 24" fill="none" stroke="currentColor" stroke-width="2" stroke-linecap="round" stroke-linejoin="round" class="icon icon-tabler icons-tabler-outline icon-tabler-arrow-down-square"><path d="M9.614 2.057 C 9.377 2.131,9.212 2.261,9.109 2.453 C 9.020 2.619,9.020 2.629,9.009 4.911 C 9.001 6.392,9.012 7.256,9.039 7.355 C 9.100 7.583,9.242 7.768,9.442 7.880 C 9.609 7.974,9.661 7.981,10.310 7.993 L 11.000 8.007 11.000 13.291 L 11.000 18.575 10.270 17.853 C 9.856 17.444,9.467 17.094,9.372 17.045 C 9.021 16.868,8.640 16.958,8.299 17.299 C 7.952 17.646,7.863 18.011,8.040 18.363 C 8.099 18.480,8.635 19.051,9.635 20.062 C 10.463 20.899,11.174 21.634,11.216 21.697 C 11.318 21.850,11.762 22.049,12.000 22.049 C 12.238 22.049,12.682 21.850,12.784 21.697 C 12.826 21.634,13.537 20.899,14.365 20.062 C 15.365 19.051,15.901 18.480,15.960 18.363 C 16.137 18.011,16.048 17.646,15.701 17.299 C 15.360 16.958,14.979 16.868,14.628 17.045 C 14.533 17.094,14.144 17.444,13.730 17.853 L 13.000 18.575 13.000 13.288 L 13.000 8.000 13.610 8.000 C 13.945 8.000,14.285 7.981,14.365 7.959 C 14.586 7.898,14.770 7.755,14.880 7.558 L 14.980 7.380 14.980 5.000 L 14.980 2.620 14.891 2.453 C 14.785 2.256,14.622 2.131,14.371 2.055 C 14.112 1.977,9.864 1.979,9.614 2.057 M13.000 5.000 L 13.000 6.000 12.000 6.000 L 11.000 6.000 11.000 5.000 L 11.000 4.000 12.000 4.000 L 13.000 4.000 13.000 5.000 " stroke="none" fill="black" fill-rule="evenodd"></path></svg>