<svg xmlns="http://www.w3.org/2000/svg" width="24" height="24" viewBox="0 0 24 24" fill="none" stroke="currentColor" stroke-width="2" stroke-linecap="round" stroke-linejoin="round" class="icon icon-tabler icons-tabler-outline icon-tabler-git-pull-request-draft"><path d="M5.499 3.040 C 4.363 3.246,3.460 4.049,3.114 5.160 C 2.979 5.594,2.979 6.406,3.114 6.840 C 3.365 7.645,3.931 8.318,4.670 8.688 L 5.000 8.853 5.000 11.999 L 5.000 15.145 4.670 15.313 C 3.922 15.693,3.365 16.355,3.114 17.160 C 2.979 17.594,2.979 18.406,3.114 18.840 C 3.421 19.826,4.174 20.579,5.160 20.886 C 5.594 21.021,6.406 21.021,6.840 20.886 C 7.826 20.579,8.579 19.826,8.886 18.840 C 9.021 18.406,9.021 17.594,8.886 17.160 C 8.635 16.355,8.078 15.693,7.330 15.313 L 7.000 15.145 7.000 11.999 L 7.000 8.853 7.330 8.688 C 8.069 8.318,8.635 7.645,8.886 6.840 C 9.021 6.406,9.021 5.594,8.886 5.160 C 8.581 4.179,7.810 3.407,6.861 3.129 C 6.500 3.023,5.832 2.980,5.499 3.040 M6.310 5.061 C 6.688 5.173,7.000 5.598,7.000 6.001 C 7.000 6.331,6.784 6.696,6.484 6.872 C 6.328 6.963,6.254 6.980,6.000 6.980 C 5.746 6.980,5.672 6.963,5.516 6.872 C 4.935 6.530,4.833 5.774,5.304 5.303 C 5.583 5.024,5.916 4.944,6.310 5.061 M17.614 5.055 C 17.220 5.184,17.039 5.437,17.009 5.900 C 16.978 6.381,17.119 6.699,17.442 6.880 C 17.597 6.967,17.669 6.980,18.000 6.980 C 18.409 6.980,18.600 6.915,18.789 6.713 C 19.071 6.410,19.071 5.590,18.789 5.287 C 18.562 5.045,17.989 4.931,17.614 5.055 M17.614 10.055 C 17.220 10.184,17.039 10.437,17.009 10.900 C 16.978 11.381,17.119 11.699,17.442 11.880 C 17.597 11.967,17.669 11.980,18.000 11.980 C 18.312 11.980,18.408 11.964,18.540 11.894 C 18.866 11.718,19.000 11.459,19.000 11.000 C 19.000 10.357,18.713 10.048,18.083 10.016 C 17.893 10.006,17.718 10.021,17.614 10.055 M17.499 15.040 C 16.363 15.246,15.460 16.049,15.114 17.160 C 14.979 17.594,14.979 18.406,15.114 18.840 C 15.421 19.826,16.174 20.579,17.160 20.886 C 17.412 20.964,17.547 20.979,18.000 20.979 C 18.453 20.979,18.588 20.964,18.840 20.886 C 19.826 20.579,20.579 19.826,20.886 18.840 C 21.021 18.406,21.021 17.594,20.886 17.160 C 20.581 16.179,19.810 15.407,18.861 15.129 C 18.500 15.023,17.832 14.980,17.499 15.040 M6.310 17.061 C 6.688 17.173,7.000 17.598,7.000 18.001 C 7.000 18.331,6.784 18.696,6.484 18.872 C 6.328 18.963,6.254 18.980,6.000 18.980 C 5.746 18.980,5.672 18.963,5.516 18.872 C 4.935 18.530,4.833 17.774,5.304 17.303 C 5.583 17.024,5.916 16.944,6.310 17.061 M18.310 17.061 C 18.688 17.173,19.000 17.598,19.000 18.001 C 19.000 18.331,18.784 18.696,18.484 18.872 C 18.328 18.963,18.254 18.980,18.000 18.980 C 17.746 18.980,17.672 18.963,17.516 18.872 C 16.935 18.530,16.833 17.774,17.304 17.303 C 17.583 17.024,17.916 16.944,18.310 17.061 " stroke="none" fill="black" fill-rule="evenodd"></path></svg>