<svg xmlns="http://www.w3.org/2000/svg" width="24" height="24" viewBox="0 0 24 24" fill="none" stroke="currentColor" stroke-width="2" stroke-linecap="round" stroke-linejoin="round" class="icon icon-tabler icons-tabler-outline icon-tabler-shape-off"><path d="M2.626 2.045 C 2.420 2.154,2.146 2.433,2.038 2.644 C 1.884 2.945,1.931 3.246,2.182 3.580 L 2.273 3.700 2.148 4.060 C 2.033 4.394,2.024 4.460,2.022 4.980 C 2.020 5.459,2.034 5.583,2.114 5.840 C 2.368 6.656,2.967 7.357,3.710 7.711 L 4.000 7.849 4.000 11.997 L 4.000 16.145 3.670 16.313 C 2.922 16.693,2.365 17.355,2.114 18.160 C 1.979 18.594,1.979 19.406,2.114 19.840 C 2.421 20.826,3.174 21.579,4.160 21.886 C 4.594 22.021,5.406 22.021,5.840 21.886 C 6.645 21.635,7.318 21.069,7.688 20.330 L 7.853 20.000 12.017 20.000 L 16.180 20.000 16.254 20.180 C 16.295 20.279,16.398 20.469,16.485 20.602 C 17.245 21.779,18.692 22.280,20.006 21.821 L 20.293 21.720 20.416 21.814 C 20.872 22.160,21.278 22.125,21.701 21.701 C 22.047 21.355,22.136 20.990,21.961 20.637 C 21.839 20.392,3.616 2.165,3.372 2.044 C 3.152 1.934,2.834 1.935,2.626 2.045 M18.499 2.040 C 17.549 2.212,16.740 2.816,16.312 3.670 L 16.147 4.000 12.480 4.000 C 8.555 4.000,8.604 3.998,8.322 4.199 C 8.100 4.357,8.020 4.568,8.020 5.000 C 8.020 5.331,8.033 5.403,8.120 5.558 C 8.230 5.755,8.414 5.898,8.635 5.959 C 8.727 5.985,10.119 6.000,12.463 6.000 L 16.147 6.000 16.312 6.330 C 16.597 6.900,17.100 7.403,17.670 7.688 L 18.000 7.853 18.000 11.537 C 18.000 13.881,18.015 15.273,18.041 15.365 C 18.148 15.750,18.437 15.962,18.896 15.991 C 19.381 16.022,19.699 15.882,19.880 15.558 L 19.980 15.380 20.000 11.613 L 20.020 7.845 20.340 7.684 C 21.072 7.314,21.637 6.640,21.886 5.840 C 22.021 5.406,22.021 4.594,21.886 4.160 C 21.581 3.179,20.810 2.407,19.861 2.129 C 19.500 2.023,18.832 1.980,18.499 2.040 M19.310 4.061 C 19.688 4.173,20.000 4.598,20.000 5.001 C 20.000 5.331,19.784 5.696,19.484 5.872 C 19.328 5.963,19.254 5.980,19.000 5.980 C 18.746 5.980,18.672 5.963,18.516 5.872 C 17.935 5.530,17.833 4.774,18.304 4.303 C 18.583 4.024,18.916 3.944,19.310 4.061 M11.290 12.710 L 16.279 17.700 16.233 17.850 L 16.187 18.000 12.020 18.000 L 7.853 18.000 7.688 17.670 C 7.403 17.102,6.909 16.607,6.330 16.313 L 6.000 16.145 6.000 11.993 L 6.000 7.840 6.130 7.783 C 6.202 7.752,6.269 7.725,6.280 7.723 C 6.291 7.721,8.545 9.966,11.290 12.710 M5.310 18.061 C 5.688 18.173,6.000 18.598,6.000 19.001 C 6.000 19.331,5.784 19.696,5.484 19.872 C 5.328 19.963,5.254 19.980,5.000 19.980 C 4.746 19.980,4.672 19.963,4.516 19.872 C 3.935 19.530,3.833 18.774,4.304 18.303 C 4.583 18.024,4.916 17.944,5.310 18.061 " stroke="none" fill="black" fill-rule="evenodd"></path></svg>