<svg xmlns="http://www.w3.org/2000/svg" width="24" height="24" viewBox="0 0 24 24" fill="none" stroke="currentColor" stroke-width="2" stroke-linecap="round" stroke-linejoin="round" class="icon icon-tabler icons-tabler-outline icon-tabler-number-3-small"><path d="M9.614 7.057 C 9.377 7.131,9.212 7.261,9.109 7.453 C 9.035 7.592,9.020 7.684,9.020 8.000 C 9.020 8.331,9.033 8.403,9.120 8.558 C 9.230 8.755,9.414 8.898,9.635 8.959 C 9.720 8.983,10.373 9.000,11.200 9.000 C 12.538 9.000,12.627 9.005,12.748 9.078 C 12.970 9.214,13.000 9.324,13.000 10.008 C 13.000 10.544,12.990 10.636,12.922 10.748 C 12.778 10.984,12.701 11.000,11.708 11.000 C 10.756 11.000,10.562 11.028,10.322 11.199 C 10.100 11.357,10.020 11.568,10.020 12.000 C 10.020 12.331,10.033 12.403,10.120 12.558 C 10.230 12.755,10.414 12.898,10.635 12.959 C 10.715 12.981,11.190 13.000,11.692 13.000 C 12.703 13.000,12.777 13.015,12.922 13.252 C 12.990 13.364,13.000 13.456,13.000 13.992 C 13.000 14.676,12.970 14.786,12.748 14.922 C 12.627 14.995,12.538 15.000,11.216 15.000 C 9.723 15.000,9.580 15.015,9.322 15.199 C 9.100 15.357,9.020 15.568,9.020 16.000 C 9.020 16.331,9.033 16.403,9.120 16.558 C 9.233 16.759,9.417 16.900,9.649 16.963 C 9.752 16.990,10.368 17.000,11.413 16.992 L 13.020 16.979 13.320 16.869 C 14.039 16.605,14.601 16.043,14.869 15.320 C 14.980 15.021,14.980 15.016,14.980 14.000 C 14.980 12.987,14.979 12.978,14.870 12.684 C 14.810 12.521,14.705 12.301,14.636 12.194 L 14.512 12.000 14.636 11.806 C 14.705 11.699,14.810 11.479,14.870 11.316 C 14.979 11.022,14.980 11.013,14.980 10.000 C 14.980 8.985,14.979 8.978,14.869 8.680 C 14.643 8.064,14.194 7.561,13.620 7.277 C 13.100 7.020,12.941 7.001,11.260 7.003 C 10.162 7.005,9.737 7.019,9.614 7.057 " stroke="none" fill="black" fill-rule="evenodd"></path></svg>