<svg xmlns="http://www.w3.org/2000/svg" width="24" height="24" viewBox="0 0 24 24" fill="none" stroke="currentColor" stroke-width="2" stroke-linecap="round" stroke-linejoin="round" class="icon icon-tabler icons-tabler-outline icon-tabler-border-inner"><path d="M3.614 3.057 C 3.221 3.180,3.039 3.435,3.009 3.906 C 2.962 4.621,3.306 5.000,4.000 5.000 C 4.698 5.000,5.043 4.616,4.989 3.900 C 4.963 3.563,4.859 3.327,4.678 3.199 C 4.414 3.010,3.957 2.950,3.614 3.057 M7.614 3.057 C 7.221 3.180,7.039 3.435,7.009 3.906 C 6.962 4.621,7.306 5.000,8.000 5.000 C 8.698 5.000,9.043 4.616,8.989 3.900 C 8.963 3.563,8.859 3.327,8.678 3.199 C 8.414 3.010,7.957 2.950,7.614 3.057 M11.614 3.057 C 11.377 3.131,11.212 3.261,11.109 3.453 L 11.020 3.620 11.009 7.310 L 10.998 11.000 7.406 11.000 C 3.561 11.000,3.604 10.998,3.322 11.199 C 3.100 11.357,3.020 11.568,3.020 12.000 C 3.020 12.331,3.033 12.403,3.120 12.558 C 3.230 12.755,3.414 12.898,3.635 12.959 C 3.727 12.985,5.095 13.000,7.390 13.000 L 11.000 13.000 11.000 16.610 C 11.000 18.905,11.015 20.273,11.041 20.365 C 11.148 20.750,11.437 20.962,11.896 20.991 C 12.381 21.022,12.699 20.882,12.880 20.558 L 12.980 20.380 12.991 16.690 L 13.002 13.000 16.611 13.000 C 18.905 13.000,20.273 12.985,20.365 12.959 C 20.586 12.898,20.770 12.755,20.880 12.558 C 20.967 12.402,20.980 12.332,20.979 12.000 C 20.978 11.567,20.898 11.355,20.678 11.199 C 20.396 10.998,20.439 11.000,16.595 11.000 L 13.002 11.000 12.991 7.310 L 12.980 3.620 12.891 3.453 C 12.842 3.362,12.746 3.247,12.678 3.199 C 12.414 3.010,11.957 2.950,11.614 3.057 M15.614 3.057 C 15.221 3.180,15.039 3.435,15.009 3.906 C 14.962 4.621,15.306 5.000,16.000 5.000 C 16.698 5.000,17.043 4.616,16.989 3.900 C 16.963 3.563,16.859 3.327,16.678 3.199 C 16.414 3.010,15.957 2.950,15.614 3.057 M19.614 3.057 C 19.221 3.180,19.039 3.435,19.009 3.906 C 18.962 4.621,19.306 5.000,20.000 5.000 C 20.698 5.000,21.043 4.616,20.989 3.900 C 20.963 3.563,20.859 3.327,20.678 3.199 C 20.414 3.010,19.957 2.950,19.614 3.057 M3.614 7.057 C 3.221 7.180,3.039 7.435,3.009 7.906 C 2.962 8.621,3.306 9.000,4.000 9.000 C 4.698 9.000,5.043 8.616,4.989 7.900 C 4.963 7.563,4.859 7.327,4.678 7.199 C 4.414 7.010,3.957 6.950,3.614 7.057 M19.614 7.057 C 19.221 7.180,19.039 7.435,19.009 7.906 C 18.962 8.621,19.306 9.000,20.000 9.000 C 20.698 9.000,21.043 8.616,20.989 7.900 C 20.963 7.563,20.859 7.327,20.678 7.199 C 20.414 7.010,19.957 6.950,19.614 7.057 M3.614 15.057 C 3.221 15.180,3.039 15.435,3.009 15.906 C 2.962 16.621,3.306 17.000,4.000 17.000 C 4.698 17.000,5.043 16.616,4.989 15.900 C 4.963 15.563,4.859 15.327,4.678 15.199 C 4.414 15.010,3.957 14.950,3.614 15.057 M19.614 15.057 C 19.221 15.180,19.039 15.435,19.009 15.906 C 18.962 16.621,19.306 17.000,20.000 17.000 C 20.698 17.000,21.043 16.616,20.989 15.900 C 20.963 15.563,20.859 15.327,20.678 15.199 C 20.414 15.010,19.957 14.950,19.614 15.057 M3.614 19.057 C 3.221 19.180,3.039 19.435,3.009 19.906 C 2.962 20.621,3.306 21.000,4.000 21.000 C 4.698 21.000,5.043 20.616,4.989 19.900 C 4.963 19.563,4.859 19.327,4.678 19.199 C 4.414 19.010,3.957 18.950,3.614 19.057 M7.614 19.057 C 7.221 19.180,7.039 19.435,7.009 19.906 C 6.962 20.621,7.306 21.000,8.000 21.000 C 8.698 21.000,9.043 20.616,8.989 19.900 C 8.963 19.563,8.859 19.327,8.678 19.199 C 8.414 19.010,7.957 18.950,7.614 19.057 M15.614 19.057 C 15.221 19.180,15.039 19.435,15.009 19.906 C 14.962 20.621,15.306 21.000,16.000 21.000 C 16.698 21.000,17.043 20.616,16.989 19.900 C 16.963 19.563,16.859 19.327,16.678 19.199 C 16.414 19.010,15.957 18.950,15.614 19.057 M19.614 19.057 C 19.221 19.180,19.039 19.435,19.009 19.906 C 18.962 20.621,19.306 21.000,20.000 21.000 C 20.698 21.000,21.043 20.616,20.989 19.900 C 20.963 19.563,20.859 19.327,20.678 19.199 C 20.414 19.010,19.957 18.950,19.614 19.057 " stroke="none" fill="black" fill-rule="evenodd"></path></svg>