<svg xmlns="http://www.w3.org/2000/svg" width="24" height="24" viewBox="0 0 24 24" fill="none" stroke="currentColor" stroke-width="2" stroke-linecap="round" stroke-linejoin="round" class="icon icon-tabler icons-tabler-outline icon-tabler-emphasis"><path d="M7.614 4.057 C 7.377 4.131,7.212 4.261,7.109 4.453 L 7.020 4.620 7.020 10.000 L 7.020 15.380 7.120 15.558 C 7.230 15.755,7.414 15.898,7.635 15.959 C 7.833 16.014,16.167 16.014,16.365 15.959 C 16.586 15.898,16.770 15.755,16.880 15.558 C 16.967 15.402,16.980 15.332,16.979 15.000 C 16.978 14.567,16.898 14.355,16.678 14.199 C 16.396 13.998,16.439 14.000,12.594 14.000 L 9.000 14.000 9.000 12.500 L 9.000 11.000 12.110 11.000 C 14.070 11.000,15.274 10.985,15.365 10.959 C 15.586 10.898,15.770 10.755,15.880 10.558 C 15.967 10.402,15.980 10.332,15.979 10.000 C 15.978 9.567,15.898 9.355,15.678 9.199 C 15.399 9.000,15.401 9.000,12.094 9.000 L 9.000 9.000 9.000 7.500 L 9.000 6.000 12.610 6.000 C 14.905 6.000,16.273 5.985,16.365 5.959 C 16.586 5.898,16.770 5.755,16.880 5.558 C 16.967 5.402,16.980 5.332,16.979 5.000 C 16.978 4.567,16.898 4.355,16.678 4.199 C 16.393 3.996,16.487 4.000,11.984 4.003 C 8.651 4.005,7.746 4.016,7.614 4.057 M5.614 19.057 C 5.221 19.180,5.039 19.435,5.009 19.906 C 4.962 20.621,5.306 21.000,6.000 21.000 C 6.698 21.000,7.043 20.616,6.989 19.900 C 6.963 19.563,6.859 19.327,6.678 19.199 C 6.414 19.010,5.957 18.950,5.614 19.057 M9.614 19.057 C 9.221 19.180,9.039 19.435,9.009 19.906 C 8.962 20.621,9.306 21.000,10.000 21.000 C 10.698 21.000,11.043 20.616,10.989 19.900 C 10.963 19.563,10.859 19.327,10.678 19.199 C 10.414 19.010,9.957 18.950,9.614 19.057 M13.614 19.057 C 13.221 19.180,13.039 19.435,13.009 19.906 C 12.962 20.621,13.306 21.000,14.000 21.000 C 14.698 21.000,15.043 20.616,14.989 19.900 C 14.963 19.563,14.859 19.327,14.678 19.199 C 14.414 19.010,13.957 18.950,13.614 19.057 M17.614 19.057 C 17.221 19.180,17.039 19.435,17.009 19.906 C 16.962 20.621,17.306 21.000,18.000 21.000 C 18.698 21.000,19.043 20.616,18.989 19.900 C 18.963 19.563,18.859 19.327,18.678 19.199 C 18.414 19.010,17.957 18.950,17.614 19.057 " stroke="none" fill="black" fill-rule="evenodd"></path></svg>