<svg xmlns="http://www.w3.org/2000/svg" width="24" height="24" viewBox="0 0 24 24" fill="none" stroke="currentColor" stroke-width="2" stroke-linecap="round" stroke-linejoin="round" class="icon icon-tabler icons-tabler-outline icon-tabler-map-pin-cog"><path d="M11.400 2.023 C 9.135 2.215,7.156 3.118,5.630 4.657 C 4.262 6.037,3.422 7.706,3.093 9.700 C 2.992 10.313,2.994 11.724,3.095 12.320 C 3.380 13.984,3.987 15.369,4.987 16.632 C 5.303 17.032,9.393 21.175,9.999 21.708 C 10.566 22.208,11.255 22.480,11.957 22.480 C 12.693 22.480,13.039 22.113,12.991 21.383 C 12.951 20.775,12.602 20.480,11.922 20.480 C 11.588 20.480,11.492 20.395,9.056 17.951 C 7.778 16.669,6.634 15.494,6.513 15.340 C 5.222 13.696,4.740 11.632,5.162 9.549 C 5.438 8.183,6.264 6.738,7.283 5.837 C 7.868 5.320,8.372 4.982,9.000 4.686 C 10.118 4.159,11.378 3.929,12.563 4.035 C 13.508 4.119,14.226 4.316,15.060 4.720 C 16.520 5.427,17.649 6.575,18.340 8.053 C 18.810 9.058,19.015 10.115,18.990 11.400 C 18.981 11.894,18.988 11.956,19.071 12.126 C 19.229 12.445,19.547 12.600,20.040 12.599 C 20.488 12.598,20.775 12.407,20.910 12.020 C 20.968 11.853,20.980 11.681,20.978 10.980 C 20.975 10.131,20.944 9.810,20.795 9.120 C 20.120 5.995,17.877 3.490,14.840 2.469 C 14.352 2.305,13.645 2.142,13.160 2.081 C 12.791 2.035,11.691 1.999,11.400 2.023 M11.358 7.061 C 10.230 7.237,9.143 7.974,8.569 8.953 C 7.320 11.083,8.233 13.785,10.512 14.704 C 12.558 15.528,14.877 14.538,15.704 12.488 C 16.090 11.530,16.090 10.469,15.705 9.516 C 15.172 8.197,14.001 7.269,12.605 7.058 C 12.144 6.989,11.816 6.990,11.358 7.061 M12.523 9.073 C 13.262 9.266,13.850 9.924,13.967 10.690 C 14.067 11.343,13.873 11.933,13.403 12.404 C 13.002 12.807,12.547 13.000,12.000 13.000 C 11.485 13.000,11.038 12.822,10.653 12.465 C 9.323 11.229,10.189 9.005,12.000 9.005 C 12.143 9.005,12.378 9.036,12.523 9.073 M18.545 14.579 C 18.320 14.659,18.128 14.863,18.059 15.096 C 18.023 15.217,18.000 15.462,18.000 15.721 L 18.000 16.148 17.708 16.292 C 17.548 16.371,17.333 16.500,17.232 16.577 L 17.047 16.718 16.654 16.495 C 16.190 16.232,15.942 16.167,15.680 16.239 C 15.342 16.331,14.969 16.847,14.930 17.278 C 14.897 17.640,15.080 17.876,15.667 18.228 L 16.014 18.437 16.017 19.002 L 16.020 19.567 15.660 19.780 C 15.272 20.009,15.043 20.223,14.961 20.431 C 14.799 20.844,15.227 21.638,15.680 21.761 C 15.944 21.833,16.212 21.764,16.668 21.505 L 17.053 21.286 17.234 21.425 C 17.335 21.501,17.548 21.629,17.708 21.708 L 18.000 21.852 18.000 22.279 C 18.000 22.963,18.137 23.255,18.537 23.422 C 18.750 23.510,19.249 23.511,19.460 23.423 C 19.864 23.254,20.000 22.965,20.000 22.277 L 20.000 21.848 20.269 21.721 C 20.418 21.652,20.632 21.525,20.746 21.439 L 20.954 21.282 21.331 21.502 C 21.942 21.858,22.304 21.879,22.636 21.579 C 22.842 21.393,23.041 21.009,23.066 20.749 C 23.105 20.358,22.939 20.136,22.340 19.778 L 21.980 19.562 21.983 18.999 L 21.986 18.437 22.333 18.228 C 22.743 17.982,22.940 17.805,23.025 17.605 C 23.213 17.165,22.799 16.371,22.312 16.237 C 22.059 16.167,21.806 16.235,21.346 16.495 L 20.953 16.718 20.768 16.577 C 20.667 16.500,20.452 16.371,20.292 16.292 L 20.000 16.148 20.000 15.721 C 20.000 15.173,19.933 14.937,19.723 14.747 C 19.636 14.669,19.497 14.586,19.413 14.563 C 19.200 14.504,18.731 14.513,18.545 14.579 M19.260 18.044 C 19.497 18.107,19.701 18.263,19.849 18.494 C 19.968 18.679,19.980 18.727,19.980 19.003 C 19.980 19.287,19.970 19.322,19.831 19.531 C 19.613 19.859,19.389 19.980,19.000 19.979 C 18.665 19.978,18.526 19.923,18.308 19.705 C 18.104 19.501,18.022 19.300,18.022 19.000 C 18.022 18.334,18.621 17.871,19.260 18.044 " stroke="none" fill="black" fill-rule="evenodd"></path></svg>