<svg xmlns="http://www.w3.org/2000/svg" width="24" height="24" viewBox="0 0 24 24" fill="none" stroke="currentColor" stroke-width="2" stroke-linecap="round" stroke-linejoin="round" class="icon icon-tabler icons-tabler-outline icon-tabler-shopping-bag-edit"><path d="M11.358 2.061 C 10.230 2.237,9.143 2.974,8.569 3.953 C 8.151 4.665,8.000 5.293,8.000 6.316 L 8.000 7.000 7.050 7.001 C 6.015 7.003,5.660 7.044,5.246 7.211 C 4.826 7.381,4.554 7.565,4.197 7.924 C 3.914 8.208,3.821 8.334,3.669 8.644 C 3.416 9.159,3.347 9.444,3.347 9.980 C 3.347 10.350,3.450 11.084,3.995 14.600 C 4.351 16.899,4.679 18.915,4.724 19.079 C 5.090 20.427,6.189 21.503,7.594 21.889 C 7.876 21.966,8.029 21.974,9.544 21.989 C 10.643 22.001,11.242 21.992,11.348 21.963 C 11.583 21.900,11.767 21.760,11.880 21.558 C 11.967 21.402,11.980 21.332,11.979 21.000 C 11.978 20.567,11.898 20.355,11.678 20.199 C 11.420 20.015,11.278 20.000,9.769 20.000 C 8.609 20.000,8.307 19.989,8.109 19.937 C 7.409 19.756,6.873 19.255,6.680 18.602 C 6.583 18.276,5.354 10.309,5.350 9.980 C 5.348 9.809,5.371 9.693,5.432 9.575 C 5.549 9.347,5.842 9.099,6.058 9.045 C 6.162 9.018,6.601 9.000,7.118 9.000 L 8.000 9.000 8.000 10.110 C 8.000 10.730,8.018 11.284,8.041 11.365 C 8.148 11.750,8.437 11.962,8.896 11.991 C 9.381 12.022,9.699 11.882,9.880 11.558 C 9.979 11.381,9.980 11.374,9.993 10.190 L 10.005 9.000 12.003 9.000 L 14.000 9.000 14.000 10.110 C 14.000 10.730,14.018 11.284,14.041 11.365 C 14.148 11.750,14.437 11.962,14.896 11.991 C 15.381 12.022,15.699 11.882,15.880 11.558 C 15.979 11.381,15.980 11.374,15.993 10.190 L 16.005 9.000 16.885 9.000 C 17.400 9.000,17.838 9.019,17.942 9.045 C 18.158 9.099,18.451 9.347,18.568 9.575 C 18.673 9.778,18.676 10.049,18.581 10.654 C 18.501 11.158,18.520 11.363,18.669 11.592 C 18.862 11.890,19.388 12.077,19.812 11.998 C 20.060 11.951,20.125 11.913,20.294 11.716 C 20.455 11.528,20.515 11.312,20.622 10.540 C 20.726 9.785,20.652 9.297,20.336 8.654 C 20.045 8.061,19.558 7.586,18.947 7.298 C 18.421 7.050,18.290 7.029,17.090 7.010 L 16.000 6.992 16.000 6.312 C 16.000 5.522,15.924 5.057,15.705 4.516 C 15.172 3.197,14.001 2.269,12.605 2.058 C 12.144 1.989,11.816 1.990,11.358 2.061 M12.523 4.073 C 12.866 4.163,13.198 4.366,13.454 4.642 C 13.883 5.105,13.998 5.479,13.999 6.410 L 14.000 7.000 12.000 7.000 L 10.000 7.000 10.000 6.398 C 10.000 5.682,10.064 5.350,10.265 5.014 C 10.745 4.212,11.635 3.841,12.523 4.073 M19.351 14.039 C 18.947 14.112,18.514 14.292,18.160 14.533 C 17.879 14.725,14.247 18.313,14.126 18.520 L 14.020 18.700 14.008 20.450 C 14.001 21.570,14.012 22.255,14.038 22.354 C 14.100 22.583,14.242 22.768,14.442 22.880 L 14.620 22.980 16.460 22.980 L 18.300 22.980 18.481 22.874 C 18.746 22.718,22.383 19.000,22.554 18.710 C 22.855 18.201,22.998 17.685,22.999 17.108 C 23.001 16.205,22.675 15.462,21.996 14.824 C 21.652 14.500,21.154 14.216,20.720 14.097 C 20.460 14.025,19.620 13.989,19.351 14.039 M20.385 16.112 C 20.594 16.219,20.778 16.402,20.891 16.615 C 21.016 16.850,21.016 17.350,20.891 17.586 C 20.840 17.682,20.129 18.433,19.197 19.376 L 17.591 21.000 16.795 21.000 L 16.000 21.000 16.000 20.205 L 16.000 19.410 17.602 17.825 C 18.483 16.953,19.248 16.211,19.302 16.175 C 19.599 15.980,20.073 15.953,20.385 16.112 " stroke="none" fill="black" fill-rule="evenodd"></path></svg>