<svg xmlns="http://www.w3.org/2000/svg" width="24" height="24" viewBox="0 0 24 24" fill="none" stroke="currentColor" stroke-width="2" stroke-linecap="round" stroke-linejoin="round" class="icon icon-tabler icons-tabler-outline icon-tabler-shield-code"><path d="M11.660 2.055 C 11.550 2.107,11.271 2.306,11.040 2.497 C 9.764 3.555,8.299 4.286,6.632 4.697 C 5.770 4.909,5.293 4.968,4.180 4.998 C 3.619 5.014,3.135 5.045,3.078 5.069 C 2.911 5.139,2.722 5.319,2.635 5.490 C 2.590 5.578,2.484 5.926,2.399 6.264 C 1.692 9.077,1.966 12.080,3.174 14.745 C 3.846 16.230,4.635 17.360,5.838 18.561 C 7.485 20.206,9.230 21.238,11.460 21.887 C 11.921 22.021,12.284 22.042,12.471 21.944 C 12.785 21.782,13.001 21.356,13.008 20.889 C 13.014 20.427,12.789 20.205,12.100 19.994 C 10.837 19.607,10.117 19.289,9.200 18.717 C 6.465 17.008,4.620 14.198,4.141 11.009 C 3.971 9.878,3.996 8.433,4.203 7.360 C 4.277 6.977,4.255 7.000,4.556 7.000 C 5.546 7.000,6.988 6.731,8.218 6.316 C 9.511 5.880,10.721 5.248,11.850 4.417 L 12.000 4.307 12.150 4.417 C 13.285 5.252,14.483 5.878,15.784 6.317 C 17.012 6.731,18.454 7.000,19.446 7.000 C 19.757 7.000,19.718 6.946,19.818 7.520 C 19.923 8.120,19.963 8.642,19.964 9.421 C 19.965 10.510,19.861 11.274,19.557 12.401 C 19.388 13.027,19.368 13.234,19.457 13.445 C 19.620 13.833,20.246 14.115,20.738 14.023 C 20.912 13.990,21.175 13.766,21.280 13.561 C 21.372 13.379,21.649 12.354,21.756 11.800 C 22.037 10.331,22.051 8.677,21.796 7.200 C 21.694 6.608,21.454 5.664,21.358 5.476 C 21.277 5.318,21.085 5.138,20.922 5.069 C 20.865 5.045,20.381 5.014,19.820 4.998 C 18.684 4.967,18.185 4.904,17.300 4.680 C 15.680 4.270,14.198 3.525,12.960 2.498 C 12.505 2.120,12.220 1.961,12.000 1.961 C 11.923 1.961,11.770 2.003,11.660 2.055 M16.620 16.046 C 16.390 16.165,14.153 18.411,14.040 18.637 C 13.986 18.744,13.951 18.889,13.951 19.000 C 13.951 19.334,14.057 19.468,15.294 20.706 C 16.532 21.943,16.666 22.049,17.000 22.049 C 17.477 22.049,18.049 21.477,18.049 21.000 C 18.049 20.693,17.921 20.513,17.147 19.730 L 16.425 19.000 17.147 18.270 C 17.580 17.832,17.905 17.469,17.959 17.363 C 18.137 17.012,18.048 16.646,17.701 16.299 C 17.361 15.959,16.967 15.867,16.620 16.046 M19.626 16.045 C 19.257 16.239,18.951 16.673,18.951 17.000 C 18.951 17.307,19.079 17.487,19.853 18.270 L 20.575 19.000 19.853 19.730 C 19.420 20.168,19.095 20.531,19.041 20.637 C 18.863 20.988,18.952 21.354,19.299 21.701 C 19.646 22.048,20.010 22.137,20.363 21.960 C 20.607 21.838,22.838 19.607,22.960 19.363 C 23.076 19.132,23.076 18.868,22.960 18.637 C 22.842 18.400,20.608 16.162,20.372 16.044 C 20.152 15.934,19.835 15.935,19.626 16.045 " stroke="none" fill="black" fill-rule="evenodd"></path></svg>