<svg xmlns="http://www.w3.org/2000/svg" width="24" height="24" viewBox="0 0 24 24" fill="none" stroke="currentColor" stroke-width="2" stroke-linecap="round" stroke-linejoin="round" class="icon icon-tabler icons-tabler-outline icon-tabler-align-box-center-middle"><path d="M4.499 2.043 C 3.380 2.232,2.461 3.048,2.114 4.160 L 2.020 4.460 2.020 12.000 L 2.020 19.540 2.114 19.840 C 2.422 20.827,3.173 21.578,4.160 21.886 L 4.460 21.980 12.000 21.980 L 19.540 21.980 19.840 21.886 C 20.827 21.578,21.578 20.827,21.886 19.840 L 21.980 19.540 21.980 12.000 L 21.980 4.460 21.886 4.160 C 21.581 3.182,20.832 2.428,19.861 2.121 L 19.540 2.020 12.120 2.014 C 8.039 2.011,4.609 2.024,4.499 2.043 M19.310 4.061 C 19.589 4.144,19.856 4.411,19.939 4.690 C 19.993 4.870,20.000 5.755,20.000 12.001 C 20.000 17.907,19.991 19.138,19.945 19.290 C 19.872 19.533,19.707 19.740,19.484 19.872 L 19.300 19.980 12.000 19.980 L 4.700 19.980 4.516 19.872 C 4.415 19.813,4.284 19.700,4.225 19.623 C 3.986 19.309,4.000 19.795,4.000 12.022 C 4.000 5.758,4.007 4.870,4.061 4.690 C 4.140 4.421,4.412 4.143,4.673 4.063 C 4.964 3.974,19.009 3.971,19.310 4.061 M9.614 8.057 C 9.377 8.131,9.212 8.261,9.109 8.453 C 9.035 8.592,9.020 8.684,9.020 9.000 C 9.020 9.331,9.033 9.403,9.120 9.558 C 9.230 9.755,9.414 9.898,9.635 9.959 C 9.831 10.014,14.169 10.014,14.365 9.959 C 14.586 9.898,14.770 9.755,14.880 9.558 C 14.967 9.402,14.980 9.332,14.979 9.000 C 14.978 8.567,14.898 8.355,14.678 8.199 C 14.406 8.005,14.336 8.000,11.984 8.003 C 10.293 8.005,9.741 8.017,9.614 8.057 M8.614 11.057 C 8.377 11.131,8.212 11.261,8.109 11.453 C 8.035 11.592,8.020 11.684,8.020 12.000 C 8.020 12.331,8.033 12.403,8.120 12.558 C 8.230 12.755,8.414 12.898,8.635 12.959 C 8.832 13.014,15.168 13.014,15.365 12.959 C 15.586 12.898,15.770 12.755,15.880 12.558 C 15.967 12.402,15.980 12.332,15.979 12.000 C 15.978 11.567,15.898 11.355,15.678 11.199 C 15.398 10.999,15.411 11.000,11.984 11.003 C 9.472 11.005,8.744 11.017,8.614 11.057 M10.614 14.057 C 10.377 14.131,10.212 14.261,10.109 14.453 C 10.035 14.592,10.020 14.684,10.020 15.000 C 10.020 15.331,10.033 15.403,10.120 15.558 C 10.230 15.755,10.414 15.898,10.635 15.959 C 10.826 16.012,13.174 16.012,13.365 15.959 C 13.586 15.898,13.770 15.755,13.880 15.558 C 13.967 15.402,13.980 15.332,13.979 15.000 C 13.978 14.687,13.962 14.591,13.890 14.453 C 13.786 14.256,13.623 14.131,13.371 14.055 C 13.117 13.979,10.859 13.981,10.614 14.057 " stroke="none" fill="black" fill-rule="evenodd"></path></svg>