<svg xmlns="http://www.w3.org/2000/svg" width="24" height="24" viewBox="0 0 24 24" fill="none" stroke="currentColor" stroke-width="2" stroke-linecap="round" stroke-linejoin="round" class="icon icon-tabler icons-tabler-outline icon-tabler-fire-hydrant-off"><path d="M2.626 2.045 C 2.420 2.154,2.146 2.433,2.038 2.644 C 1.924 2.868,1.924 3.133,2.040 3.363 C 2.100 3.483,2.684 4.097,3.872 5.289 C 4.831 6.251,5.608 7.043,5.598 7.049 C 5.588 7.055,5.508 7.098,5.420 7.145 C 5.142 7.292,5.000 7.580,5.000 8.000 C 5.000 8.574,5.285 8.926,5.797 8.987 L 6.000 9.011 6.000 9.997 L 6.000 10.982 5.690 11.031 C 5.258 11.099,4.920 11.274,4.596 11.597 C 4.310 11.882,4.154 12.147,4.060 12.508 C 3.973 12.839,3.973 15.161,4.060 15.492 C 4.153 15.852,4.310 16.118,4.596 16.404 C 4.958 16.767,5.457 17.000,5.868 17.000 L 6.000 17.000 6.000 18.500 L 6.000 20.000 5.406 20.000 C 4.577 20.000,4.300 20.097,4.109 20.453 C 4.035 20.592,4.020 20.684,4.020 21.000 C 4.020 21.331,4.033 21.403,4.120 21.558 C 4.230 21.755,4.414 21.898,4.635 21.959 C 4.835 22.015,19.165 22.015,19.365 21.959 C 19.584 21.898,19.770 21.755,19.874 21.567 L 19.967 21.398 20.225 21.639 C 20.367 21.771,20.557 21.918,20.649 21.964 C 20.987 22.137,21.358 22.044,21.701 21.701 C 22.048 21.354,22.137 20.989,21.960 20.637 C 21.887 20.492,20.008 18.554,17.748 16.292 C 17.699 16.244,17.030 15.575,16.260 14.805 C 15.490 14.036,14.815 13.361,14.760 13.305 C 14.705 13.249,14.255 12.799,13.760 12.305 C 13.265 11.811,12.815 11.361,12.760 11.306 C 12.705 11.250,11.805 10.350,10.760 9.306 C 9.715 8.261,8.815 7.360,8.760 7.304 C 8.263 6.797,3.637 2.227,3.560 2.168 C 3.266 1.942,2.910 1.895,2.626 2.045 M11.347 2.042 C 10.007 2.198,8.787 2.769,7.856 3.676 C 7.523 4.000,7.421 4.184,7.421 4.460 C 7.421 4.713,7.521 4.917,7.762 5.158 C 8.233 5.629,8.676 5.631,9.171 5.167 C 10.473 3.944,12.232 3.661,13.776 4.427 C 14.199 4.637,14.471 4.831,14.803 5.160 C 15.251 5.602,15.658 6.259,15.814 6.790 L 15.876 7.000 13.844 7.000 C 11.678 7.000,11.591 7.007,11.322 7.199 C 11.100 7.357,11.020 7.568,11.020 8.000 C 11.020 8.331,11.033 8.403,11.120 8.558 C 11.230 8.755,11.414 8.898,11.635 8.959 C 11.724 8.984,12.600 9.000,13.890 9.000 L 16.000 9.000 16.000 10.610 C 16.000 11.565,16.017 12.279,16.041 12.365 C 16.102 12.586,16.245 12.770,16.442 12.880 C 16.609 12.974,16.661 12.981,17.310 12.993 L 18.000 13.007 18.000 14.113 C 18.000 14.731,18.018 15.284,18.041 15.365 C 18.148 15.750,18.437 15.962,18.896 15.991 C 19.381 16.022,19.699 15.882,19.880 15.558 L 19.980 15.380 19.992 14.097 C 20.006 12.692,19.984 12.482,19.775 12.070 C 19.625 11.774,19.198 11.362,18.880 11.207 C 18.728 11.132,18.492 11.060,18.310 11.031 L 18.000 10.982 18.000 9.997 L 18.000 9.011 18.198 8.988 C 18.533 8.948,18.752 8.807,18.893 8.540 C 18.962 8.410,18.978 8.310,18.978 8.000 C 18.978 7.567,18.899 7.356,18.678 7.199 C 18.532 7.094,18.238 7.000,18.061 7.000 L 17.934 7.000 17.832 6.587 C 17.566 5.513,17.005 4.524,16.217 3.741 C 14.948 2.478,13.110 1.837,11.347 2.042 M9.969 11.803 C 9.526 12.227,9.288 12.606,9.114 13.161 C 8.979 13.593,8.979 14.406,9.114 14.840 C 9.421 15.826,10.174 16.579,11.160 16.886 C 11.594 17.021,12.407 17.021,12.839 16.886 C 13.394 16.712,13.773 16.474,14.197 16.031 L 14.400 15.820 15.200 16.620 L 16.000 17.419 16.000 18.710 L 16.000 20.000 12.002 20.000 L 8.003 20.000 7.992 17.810 C 7.980 15.633,7.979 15.619,7.891 15.453 C 7.700 15.097,7.423 15.000,6.594 15.000 L 6.000 15.000 6.000 14.000 L 6.000 13.000 6.610 13.000 C 6.946 13.000,7.285 12.981,7.365 12.959 C 7.586 12.898,7.770 12.755,7.880 12.558 L 7.980 12.380 7.992 10.902 L 8.005 9.425 9.092 10.512 L 10.180 11.600 9.969 11.803 M12.290 13.710 C 12.636 14.056,12.920 14.358,12.920 14.382 C 12.920 14.476,12.661 14.768,12.486 14.871 C 12.328 14.964,12.255 14.980,11.997 14.980 C 11.729 14.980,11.671 14.966,11.502 14.860 C 10.877 14.469,10.841 13.605,11.432 13.185 C 11.513 13.127,11.597 13.080,11.619 13.080 C 11.641 13.080,11.943 13.363,12.290 13.710 M18.300 19.720 L 18.578 20.000 18.289 20.000 L 18.000 20.000 18.000 19.720 C 18.000 19.566,18.005 19.440,18.011 19.440 C 18.017 19.440,18.147 19.566,18.300 19.720 " stroke="none" fill="black" fill-rule="evenodd"></path></svg>