<svg xmlns="http://www.w3.org/2000/svg" width="24" height="24" viewBox="0 0 24 24" fill="none" stroke="currentColor" stroke-width="2" stroke-linecap="round" stroke-linejoin="round" class="icon icon-tabler icons-tabler-outline icon-tabler-circle-key"><path d="M11.080 2.045 C 9.507 2.184,7.883 2.751,6.540 3.630 C 5.905 4.045,5.499 4.378,4.919 4.958 C 2.953 6.926,1.919 9.544,2.013 12.320 C 2.084 14.439,2.752 16.328,4.033 18.040 C 4.430 18.570,5.305 19.464,5.800 19.847 C 7.242 20.961,8.787 21.624,10.600 21.907 C 11.247 22.008,12.753 22.008,13.400 21.907 C 15.638 21.557,17.504 20.620,19.062 19.062 C 20.620 17.504,21.557 15.638,21.907 13.400 C 22.008 12.753,22.008 11.247,21.907 10.600 C 21.624 8.786,20.959 7.238,19.847 5.800 C 19.510 5.365,18.639 4.494,18.200 4.154 C 16.133 2.555,13.646 1.818,11.080 2.045 M12.734 4.041 C 14.574 4.216,16.228 4.976,17.554 6.256 C 20.043 8.658,20.702 12.394,19.183 15.499 C 18.749 16.387,18.223 17.105,17.496 17.801 C 16.876 18.394,16.262 18.819,15.471 19.200 C 13.267 20.265,10.733 20.265,8.529 19.200 C 7.477 18.693,6.612 18.015,5.847 17.100 C 3.848 14.711,3.440 11.302,4.816 8.500 C 6.162 5.760,8.867 4.049,11.920 4.005 C 12.129 4.003,12.495 4.019,12.734 4.041 M13.499 7.040 C 12.363 7.246,11.461 8.048,11.114 9.160 C 11.034 9.417,11.020 9.541,11.022 10.020 C 11.024 10.541,11.033 10.605,11.149 10.940 L 11.274 11.300 9.439 13.140 C 7.509 15.076,7.442 15.155,7.442 15.500 C 7.442 15.820,7.555 15.971,8.532 16.946 C 9.521 17.932,9.677 18.049,10.000 18.049 C 10.477 18.049,11.049 17.477,11.049 17.000 C 11.049 16.717,10.917 16.511,10.396 15.979 L 9.923 15.497 10.210 15.210 L 10.497 14.923 10.979 15.396 C 11.511 15.917,11.717 16.049,12.000 16.049 C 12.477 16.049,13.049 15.477,13.049 15.000 C 13.049 14.717,12.917 14.511,12.396 13.979 L 11.922 13.496 12.311 13.111 L 12.700 12.726 13.060 12.851 C 13.400 12.970,13.452 12.976,14.000 12.976 C 14.513 12.975,14.615 12.963,14.887 12.873 C 15.853 12.551,16.585 11.807,16.886 10.840 C 17.021 10.406,17.021 9.594,16.886 9.160 C 16.581 8.179,15.810 7.407,14.861 7.129 C 14.500 7.023,13.832 6.980,13.499 7.040 M14.310 9.061 C 14.688 9.173,15.000 9.598,15.000 10.001 C 15.000 10.331,14.784 10.696,14.484 10.872 C 14.328 10.963,14.254 10.980,14.000 10.980 C 13.746 10.980,13.672 10.963,13.516 10.872 C 12.935 10.530,12.833 9.774,13.304 9.303 C 13.583 9.024,13.916 8.944,14.310 9.061 " stroke="none" fill="black" fill-rule="evenodd"></path></svg>