<svg xmlns="http://www.w3.org/2000/svg" width="24" height="24" viewBox="0 0 24 24" fill="none" stroke="currentColor" stroke-width="2" stroke-linecap="round" stroke-linejoin="round" class="icon icon-tabler icons-tabler-outline icon-tabler-mood-tongue-wink"><path d="M10.980 2.045 C 9.794 2.156,8.591 2.516,7.427 3.108 C 4.726 4.481,2.764 7.087,2.183 10.071 C 1.982 11.106,1.949 12.466,2.101 13.480 C 2.514 16.243,4.116 18.762,6.451 20.321 C 8.367 21.599,10.642 22.171,12.960 21.957 C 15.920 21.684,18.654 20.046,20.321 17.549 C 21.599 15.633,22.171 13.358,21.957 11.040 C 21.521 6.311,17.689 2.479,12.960 2.043 C 12.434 1.994,11.508 1.995,10.980 2.045 M12.743 4.043 C 16.646 4.428,19.644 7.487,19.965 11.410 C 20.227 14.609,18.447 17.726,15.540 19.160 C 13.939 19.950,12.094 20.184,10.360 19.818 C 7.256 19.163,4.837 16.743,4.181 13.638 C 3.813 11.896,4.045 10.079,4.841 8.460 C 6.292 5.507,9.486 3.722,12.743 4.043 M15.114 8.283 C 14.253 8.374,13.460 8.871,13.127 9.527 C 12.865 10.043,12.929 10.459,13.315 10.743 C 13.947 11.208,14.551 11.109,14.877 10.487 C 14.947 10.354,15.174 10.273,15.481 10.271 C 15.878 10.268,16.018 10.329,16.175 10.573 C 16.335 10.822,16.417 10.898,16.610 10.978 C 16.910 11.104,17.316 11.015,17.685 10.743 C 18.069 10.460,18.135 10.043,17.876 9.533 C 17.531 8.853,16.755 8.378,15.833 8.281 C 15.628 8.259,15.451 8.243,15.440 8.246 C 15.429 8.249,15.282 8.265,15.114 8.283 M8.614 9.055 C 8.220 9.184,8.039 9.437,8.009 9.900 C 7.978 10.381,8.119 10.699,8.442 10.880 C 8.597 10.967,8.669 10.980,9.000 10.980 C 9.312 10.980,9.408 10.964,9.540 10.894 C 9.866 10.718,10.000 10.459,10.000 10.000 C 10.000 9.357,9.713 9.048,9.083 9.016 C 8.893 9.006,8.718 9.021,8.614 9.055 M8.180 13.039 C 7.715 13.159,7.514 13.447,7.512 13.997 C 7.509 14.701,7.846 15.000,8.643 15.000 L 8.991 15.000 9.010 15.790 C 9.026 16.464,9.042 16.621,9.118 16.860 C 9.430 17.835,10.183 18.582,11.160 18.886 C 11.594 19.021,12.406 19.021,12.840 18.886 C 13.817 18.582,14.570 17.835,14.882 16.860 C 14.958 16.621,14.974 16.464,14.990 15.790 L 15.009 15.000 15.357 15.000 C 16.156 15.000,16.486 14.706,16.486 13.997 C 16.486 13.491,16.303 13.196,15.909 13.064 C 15.738 13.007,15.307 13.000,12.009 13.004 C 9.969 13.006,8.246 13.022,8.180 13.039 M13.000 15.554 C 13.000 16.352,12.890 16.633,12.484 16.872 C 12.328 16.963,12.254 16.980,12.000 16.980 C 11.746 16.980,11.672 16.963,11.516 16.872 C 11.415 16.813,11.284 16.700,11.225 16.623 C 11.038 16.377,11.000 16.202,11.000 15.575 L 11.000 15.000 12.000 15.000 L 13.000 15.000 13.000 15.554 " stroke="none" fill="black" fill-rule="evenodd"></path></svg>