<svg xmlns="http://www.w3.org/2000/svg" width="24" height="24" viewBox="0 0 24 24" fill="none" stroke="currentColor" stroke-width="2" stroke-linecap="round" stroke-linejoin="round" class="icon icon-tabler icons-tabler-outline icon-tabler-meter-square"><path d="M16.614 4.057 C 16.377 4.131,16.212 4.261,16.109 4.453 C 16.035 4.592,16.020 4.684,16.020 5.000 C 16.020 5.331,16.033 5.403,16.120 5.558 C 16.230 5.755,16.414 5.898,16.635 5.959 C 16.716 5.982,17.270 6.000,17.890 6.000 L 19.000 6.000 19.000 6.500 L 19.000 7.000 18.370 7.002 C 17.410 7.006,17.002 7.150,16.535 7.653 C 16.091 8.131,16.000 8.446,16.000 9.500 C 16.000 10.329,16.036 10.556,16.225 10.930 C 16.361 11.199,16.801 11.639,17.070 11.775 C 17.478 11.982,17.633 12.000,18.978 12.000 C 19.687 12.000,20.282 11.982,20.365 11.959 C 20.586 11.898,20.770 11.755,20.880 11.558 C 20.967 11.402,20.980 11.332,20.979 11.000 C 20.978 10.567,20.898 10.355,20.678 10.199 C 20.430 10.022,20.256 10.000,19.094 10.000 L 18.000 10.000 18.000 9.500 L 18.000 9.000 18.632 9.000 C 19.574 9.000,19.927 8.881,20.404 8.404 C 20.895 7.913,21.000 7.579,20.999 6.514 C 20.999 5.716,20.954 5.424,20.781 5.083 C 20.646 4.816,20.297 4.449,20.017 4.281 C 19.600 4.030,19.416 4.005,18.020 4.005 C 17.115 4.005,16.735 4.019,16.614 4.057 M3.614 11.055 C 3.375 11.133,3.211 11.262,3.109 11.453 L 3.020 11.620 3.009 14.912 C 3.002 17.060,3.012 18.257,3.039 18.356 C 3.144 18.747,3.434 18.961,3.896 18.991 C 4.381 19.022,4.699 18.882,4.880 18.558 L 4.980 18.380 5.000 16.060 C 5.022 13.459,5.007 13.588,5.322 13.283 C 5.565 13.047,5.810 12.984,6.399 13.009 C 6.793 13.025,6.900 13.044,7.106 13.137 C 7.413 13.274,7.720 13.582,7.868 13.900 L 7.980 14.140 8.000 16.260 L 8.020 18.380 8.120 18.558 C 8.287 18.856,8.572 19.000,9.000 19.000 C 9.428 19.000,9.713 18.856,9.880 18.558 L 9.980 18.380 10.000 16.260 L 10.020 14.140 10.132 13.900 C 10.280 13.583,10.587 13.275,10.896 13.135 C 11.104 13.040,11.192 13.024,11.500 13.024 C 11.809 13.023,11.894 13.039,12.100 13.134 C 12.414 13.278,12.724 13.586,12.867 13.896 L 12.980 14.140 13.000 16.260 L 13.020 18.380 13.120 18.558 C 13.287 18.856,13.572 19.000,14.000 19.000 C 14.428 19.000,14.713 18.856,14.880 18.558 L 14.980 18.380 14.992 16.321 C 14.999 15.027,14.988 14.162,14.962 13.993 C 14.747 12.609,13.736 11.483,12.378 11.114 C 11.960 11.001,11.117 10.990,10.707 11.092 C 10.141 11.233,9.513 11.564,9.153 11.910 L 9.005 12.051 8.818 11.886 C 8.407 11.525,7.916 11.262,7.364 11.109 C 7.102 11.037,6.950 11.025,6.260 11.025 C 5.505 11.024,5.440 11.030,5.112 11.131 L 4.764 11.238 4.561 11.133 C 4.316 11.006,3.875 10.970,3.614 11.055 " stroke="none" fill="black" fill-rule="evenodd"></path></svg>