<svg xmlns="http://www.w3.org/2000/svg" width="24" height="24" viewBox="0 0 24 24" fill="none" stroke="currentColor" stroke-width="2" stroke-linecap="round" stroke-linejoin="round" class="icon icon-tabler icons-tabler-outline icon-tabler-radar"><path d="M11.560 2.025 C 10.019 2.118,8.802 2.437,7.540 3.079 C 6.490 3.613,5.701 4.183,4.906 4.983 C 3.411 6.487,2.445 8.404,2.119 10.512 C 1.532 14.316,3.258 18.207,6.478 20.339 C 7.402 20.951,8.671 21.520,9.111 21.520 C 9.511 21.520,9.810 21.255,9.960 20.769 C 10.157 20.131,9.970 19.811,9.226 19.511 C 8.774 19.329,8.113 19.005,7.781 18.801 C 7.139 18.407,6.331 17.698,5.833 17.091 C 3.922 14.759,3.478 11.521,4.692 8.780 C 5.688 6.534,7.672 4.858,10.040 4.261 C 11.289 3.947,12.742 3.947,13.970 4.261 C 15.376 4.622,16.615 5.329,17.641 6.358 C 18.493 7.211,19.020 8.019,19.481 9.177 C 19.765 9.892,20.053 10.109,20.577 10.002 C 21.209 9.874,21.565 9.487,21.507 8.993 C 21.494 8.884,21.399 8.585,21.297 8.328 C 20.376 6.013,18.677 4.177,16.420 3.058 C 15.105 2.406,13.787 2.076,12.300 2.028 C 12.014 2.019,11.681 2.018,11.560 2.025 M11.374 6.038 C 9.971 6.199,8.744 6.786,7.765 7.765 C 6.659 8.871,6.063 10.249,6.012 11.820 C 5.953 13.614,6.696 15.323,8.049 16.510 C 8.655 17.041,9.068 17.165,9.443 16.927 C 9.790 16.707,10.040 16.301,10.040 15.960 C 10.040 15.685,9.931 15.487,9.651 15.253 C 9.017 14.725,8.680 14.304,8.376 13.663 C 8.105 13.090,8.023 12.698,8.026 11.980 C 8.028 11.467,8.043 11.324,8.131 10.992 C 8.426 9.883,9.169 8.961,10.189 8.437 C 10.580 8.237,10.916 8.131,11.400 8.058 C 11.884 7.985,12.223 7.985,12.645 8.059 C 13.635 8.232,14.473 8.719,15.114 9.494 C 15.568 10.043,15.884 10.158,16.346 9.943 C 16.981 9.648,17.205 9.112,16.910 8.592 C 16.628 8.096,15.909 7.383,15.280 6.978 C 14.660 6.578,13.776 6.228,13.060 6.099 C 12.637 6.022,11.781 5.992,11.374 6.038 M11.477 10.073 C 10.806 10.249,10.238 10.823,10.060 11.508 C 9.943 11.956,10.003 12.492,10.218 12.915 C 10.330 13.138,10.651 13.503,10.858 13.644 L 10.999 13.740 11.000 17.480 C 11.000 19.861,11.015 21.273,11.041 21.365 C 11.102 21.586,11.245 21.770,11.442 21.880 C 11.613 21.976,11.647 21.980,12.280 21.977 C 14.342 21.968,16.429 21.217,18.200 19.847 C 18.637 19.509,19.509 18.637,19.847 18.200 C 21.217 16.429,21.969 14.339,21.977 12.280 C 21.980 11.671,21.973 11.607,21.891 11.453 C 21.842 11.362,21.746 11.247,21.678 11.199 C 21.396 10.998,21.449 11.000,17.464 11.000 L 13.740 10.999 13.652 10.870 C 13.185 10.184,12.297 9.859,11.477 10.073 M19.920 13.078 C 19.920 13.270,19.740 14.058,19.596 14.497 C 19.029 16.224,17.869 17.722,16.311 18.736 C 15.834 19.047,15.076 19.406,14.500 19.595 C 14.021 19.751,13.297 19.920,13.102 19.920 L 13.000 19.920 13.000 16.460 L 13.000 13.000 16.460 13.000 C 19.863 13.000,19.920 13.001,19.920 13.078 " stroke="none" fill="black" fill-rule="evenodd"></path></svg>