<svg xmlns="http://www.w3.org/2000/svg" width="24" height="24" viewBox="0 0 24 24" fill="none" stroke="currentColor" stroke-width="2" stroke-linecap="round" stroke-linejoin="round" class="icon icon-tabler icons-tabler-outline icon-tabler-bow"><path d="M18.719 1.999 L 16.658 2.020 16.459 2.122 C 16.119 2.297,15.978 2.606,16.009 3.104 C 16.038 3.563,16.250 3.852,16.635 3.959 C 16.715 3.981,17.185 4.000,17.680 4.000 L 18.579 4.000 17.560 5.020 C 16.999 5.581,16.527 6.040,16.510 6.040 C 16.493 6.040,16.344 5.940,16.179 5.818 C 14.933 4.896,13.394 4.294,11.720 4.073 C 11.156 3.999,9.688 4.010,9.080 4.094 C 7.450 4.318,5.875 4.893,4.628 5.717 C 3.888 6.207,3.187 6.835,3.038 7.143 C 2.937 7.353,2.929 7.609,3.018 7.823 C 3.066 7.938,3.862 8.760,5.961 10.860 L 8.840 13.741 7.210 15.370 L 5.580 17.000 4.196 17.000 C 2.724 17.000,2.579 17.015,2.322 17.199 C 2.100 17.357,2.020 17.568,2.020 18.000 C 2.020 18.331,2.033 18.403,2.120 18.558 C 2.230 18.755,2.414 18.898,2.635 18.959 C 2.716 18.982,3.270 19.000,3.890 19.000 L 5.000 19.000 5.000 20.110 C 5.000 20.730,5.018 21.284,5.041 21.365 C 5.148 21.750,5.437 21.962,5.896 21.991 C 6.381 22.022,6.699 21.882,6.880 21.558 L 6.980 21.380 6.992 19.900 L 7.003 18.420 8.631 16.790 L 10.259 15.160 13.140 18.039 C 15.240 20.138,16.062 20.934,16.177 20.982 C 16.392 21.071,16.647 21.063,16.858 20.961 C 17.065 20.861,17.626 20.288,17.966 19.829 C 19.039 18.382,19.736 16.529,19.946 14.567 C 20.020 13.876,19.999 12.693,19.902 12.060 C 19.659 10.481,19.047 8.974,18.176 7.811 C 18.057 7.652,17.960 7.508,17.960 7.491 C 17.960 7.474,18.419 7.001,18.980 6.440 L 20.000 5.421 20.000 6.320 C 20.000 6.815,20.019 7.285,20.041 7.365 C 20.148 7.750,20.437 7.962,20.896 7.991 C 21.381 8.022,21.699 7.882,21.880 7.558 L 21.980 7.380 22.008 5.220 C 22.023 4.032,22.036 3.001,22.038 2.929 C 22.041 2.739,21.834 2.310,21.690 2.207 C 21.467 2.048,21.205 1.959,20.987 1.969 C 20.873 1.974,19.852 1.987,18.719 1.999 M11.263 6.043 C 12.510 6.164,13.728 6.587,14.715 7.242 L 15.090 7.490 12.665 9.915 L 10.240 12.340 7.860 9.960 C 6.551 8.651,5.480 7.571,5.480 7.560 C 5.482 7.500,6.361 6.994,6.820 6.790 C 7.773 6.366,8.667 6.142,9.880 6.026 C 10.204 5.995,10.856 6.003,11.263 6.043 M16.868 9.460 C 18.099 11.424,18.331 14.002,17.495 16.457 C 17.336 16.925,16.784 18.051,16.575 18.336 L 16.431 18.531 14.046 16.146 L 11.660 13.760 14.080 11.340 L 16.500 8.920 16.571 9.010 C 16.610 9.060,16.743 9.262,16.868 9.460 " stroke="none" fill="black" fill-rule="evenodd"></path></svg>