<svg xmlns="http://www.w3.org/2000/svg" width="24" height="24" viewBox="0 0 24 24" fill="none" stroke="currentColor" stroke-width="2" stroke-linecap="round" stroke-linejoin="round" class="icon icon-tabler icons-tabler-outline icon-tabler-box-model"><path d="M5.499 3.043 C 4.380 3.233,3.461 4.048,3.114 5.160 L 3.020 5.460 3.020 12.000 L 3.020 18.540 3.114 18.840 C 3.422 19.827,4.173 20.578,5.160 20.886 L 5.460 20.980 12.000 20.980 L 18.540 20.980 18.840 20.886 C 19.827 20.578,20.578 19.827,20.886 18.840 L 20.980 18.540 20.980 12.000 L 20.980 5.460 20.886 5.160 C 20.581 4.182,19.832 3.428,18.861 3.121 L 18.540 3.020 12.120 3.014 C 8.589 3.011,5.609 3.024,5.499 3.043 M16.580 6.000 L 15.581 7.000 12.000 7.000 L 8.419 7.000 7.420 6.000 L 6.421 5.000 12.000 5.000 L 17.579 5.000 16.580 6.000 M7.000 12.000 L 7.000 15.581 6.000 16.580 L 5.000 17.579 5.000 12.000 L 5.000 6.421 6.000 7.420 L 7.000 8.419 7.000 12.000 M19.000 12.010 L 19.000 17.579 18.000 16.580 L 17.000 15.581 17.000 12.001 L 17.000 8.421 17.990 7.430 C 18.534 6.886,18.984 6.440,18.990 6.440 C 18.995 6.440,19.000 8.946,19.000 12.010 M15.000 12.000 L 15.000 15.000 12.000 15.000 L 9.000 15.000 9.000 12.000 L 9.000 9.000 12.000 9.000 L 15.000 9.000 15.000 12.000 M16.580 18.000 L 17.579 19.000 12.000 19.000 L 6.421 19.000 7.420 18.000 L 8.419 17.000 12.000 17.000 L 15.581 17.000 16.580 18.000 " stroke="none" fill="black" fill-rule="evenodd"></path></svg>