<svg xmlns="http://www.w3.org/2000/svg" width="24" height="24" viewBox="0 0 24 24" fill="none" stroke="currentColor" stroke-width="2" stroke-linecap="round" stroke-linejoin="round" class="icon icon-tabler icons-tabler-outline icon-tabler-building-monument"><path d="M11.620 2.047 C 11.419 2.151,9.269 4.280,9.134 4.508 C 9.045 4.659,8.940 5.294,8.087 10.838 L 7.140 17.000 5.976 17.000 C 4.739 17.000,4.573 17.020,4.322 17.199 C 4.254 17.247,4.158 17.362,4.109 17.453 C 4.024 17.613,4.020 17.668,4.008 18.810 L 3.996 20.000 3.404 20.000 C 2.577 20.000,2.299 20.097,2.109 20.453 C 2.035 20.592,2.020 20.684,2.020 21.000 C 2.020 21.331,2.033 21.403,2.120 21.558 C 2.230 21.755,2.414 21.898,2.635 21.959 C 2.835 22.015,21.165 22.015,21.365 21.959 C 21.586 21.898,21.770 21.755,21.880 21.558 C 21.967 21.402,21.980 21.332,21.979 21.000 C 21.978 20.687,21.962 20.591,21.890 20.453 C 21.702 20.098,21.423 20.000,20.596 20.000 L 20.005 20.000 19.993 18.810 C 19.981 17.669,19.976 17.613,19.891 17.453 C 19.842 17.362,19.746 17.247,19.678 17.199 C 19.427 17.020,19.261 17.000,18.024 17.000 L 16.860 17.000 15.924 10.910 C 15.409 7.560,14.961 4.739,14.929 4.640 C 14.879 4.488,14.691 4.281,13.705 3.294 C 12.968 2.557,12.478 2.097,12.372 2.044 C 12.150 1.934,11.836 1.935,11.620 2.047 M12.544 4.970 L 13.068 5.500 13.936 11.180 C 14.414 14.304,14.814 16.892,14.825 16.930 C 14.844 16.996,14.691 17.000,12.000 17.000 C 9.309 17.000,9.156 16.996,9.175 16.930 C 9.186 16.892,9.586 14.304,10.064 11.180 L 10.932 5.500 11.456 4.970 C 11.743 4.679,11.988 4.440,12.000 4.440 C 12.012 4.440,12.257 4.679,12.544 4.970 M18.000 19.500 L 18.000 20.000 12.000 20.000 L 6.000 20.000 6.000 19.500 L 6.000 19.000 12.000 19.000 L 18.000 19.000 18.000 19.500 " stroke="none" fill="black" fill-rule="evenodd"></path></svg>