<svg xmlns="http://www.w3.org/2000/svg" width="24" height="24" viewBox="0 0 24 24" fill="none" stroke="currentColor" stroke-width="2" stroke-linecap="round" stroke-linejoin="round" class="icon icon-tabler icons-tabler-outline icon-tabler-file-text-ai"><path d="M6.499 2.043 C 5.383 2.230,4.461 3.048,4.114 4.160 L 4.020 4.460 4.020 12.000 L 4.020 19.540 4.114 19.840 C 4.419 20.816,5.154 21.559,6.140 21.885 C 6.414 21.975,6.461 21.977,8.307 21.991 C 9.553 22.000,10.247 21.991,10.351 21.963 C 10.583 21.900,10.767 21.759,10.880 21.558 C 10.967 21.402,10.980 21.332,10.979 21.000 C 10.977 20.469,10.851 20.245,10.455 20.071 C 10.370 20.034,9.860 20.016,8.520 20.000 L 6.700 19.980 6.516 19.872 C 6.415 19.813,6.284 19.700,6.225 19.623 C 5.986 19.309,6.000 19.795,6.000 12.022 C 6.000 4.006,5.975 4.631,6.303 4.303 C 6.618 3.989,6.481 4.000,9.947 4.000 L 13.000 4.000 13.000 5.632 C 13.000 7.399,13.010 7.507,13.225 7.930 C 13.361 8.199,13.801 8.639,14.070 8.775 C 14.493 8.990,14.601 9.000,16.368 9.000 L 18.000 9.000 18.000 10.353 C 18.000 11.867,18.018 12.006,18.249 12.229 C 18.442 12.416,18.647 12.487,19.000 12.488 C 19.368 12.490,19.600 12.402,19.787 12.189 C 19.998 11.949,20.007 11.829,19.993 9.620 C 19.980 7.636,19.979 7.619,19.890 7.452 C 19.841 7.360,19.724 7.231,19.630 7.165 C 19.498 7.073,15.263 2.838,14.719 2.254 C 14.473 1.991,14.626 2.000,10.463 2.005 C 8.393 2.007,6.609 2.025,6.499 2.043 M15.800 6.220 L 16.579 7.000 15.790 7.000 L 15.000 7.000 15.000 6.220 C 15.000 5.791,15.005 5.440,15.010 5.440 C 15.016 5.440,15.371 5.791,15.800 6.220 M8.614 8.057 C 8.377 8.131,8.212 8.261,8.109 8.453 C 8.035 8.592,8.020 8.684,8.020 9.000 C 8.020 9.331,8.033 9.403,8.120 9.558 C 8.230 9.755,8.414 9.898,8.635 9.959 C 8.823 10.012,10.177 10.012,10.365 9.959 C 10.586 9.898,10.770 9.755,10.880 9.558 C 10.967 9.402,10.980 9.332,10.979 9.000 C 10.978 8.687,10.962 8.591,10.890 8.453 C 10.786 8.256,10.623 8.131,10.371 8.055 C 10.126 7.982,8.851 7.983,8.614 8.057 M8.614 12.057 C 8.377 12.131,8.212 12.261,8.109 12.453 C 8.035 12.592,8.020 12.684,8.020 13.000 C 8.020 13.331,8.033 13.403,8.120 13.558 C 8.230 13.755,8.414 13.898,8.635 13.959 C 8.720 13.983,9.386 14.000,10.243 14.000 C 11.877 14.000,12.003 13.984,12.229 13.751 C 12.418 13.556,12.486 13.355,12.486 12.997 C 12.486 12.491,12.303 12.196,11.909 12.064 C 11.746 12.010,11.493 12.000,10.249 12.003 C 9.161 12.005,8.737 12.019,8.614 12.057 M15.499 14.040 C 14.374 14.244,13.485 15.027,13.115 16.140 C 13.022 16.419,13.022 16.432,13.009 18.808 C 13.000 20.389,13.010 21.249,13.038 21.352 C 13.144 21.747,13.432 21.961,13.896 21.991 C 14.381 22.022,14.699 21.882,14.880 21.558 C 14.974 21.391,14.981 21.338,14.994 20.690 L 15.008 20.000 16.004 20.000 L 17.000 20.000 17.000 20.610 C 17.000 20.946,17.019 21.285,17.041 21.365 C 17.148 21.750,17.437 21.962,17.896 21.991 C 18.381 22.022,18.699 21.882,18.880 21.558 L 18.980 21.380 18.980 18.920 L 18.980 16.460 18.886 16.160 C 18.580 15.178,17.810 14.407,16.861 14.129 C 16.500 14.023,15.832 13.980,15.499 14.040 M20.614 14.057 C 20.377 14.131,20.212 14.261,20.109 14.453 L 20.020 14.620 20.009 17.912 C 20.002 20.060,20.012 21.257,20.039 21.356 C 20.144 21.747,20.434 21.961,20.896 21.991 C 21.381 22.022,21.699 21.882,21.880 21.558 L 21.980 21.380 21.980 18.000 L 21.980 14.620 21.891 14.453 C 21.842 14.362,21.746 14.247,21.678 14.199 C 21.414 14.010,20.957 13.950,20.614 14.057 M8.614 16.057 C 8.377 16.131,8.212 16.261,8.109 16.453 C 8.035 16.592,8.020 16.684,8.020 17.000 C 8.020 17.331,8.033 17.403,8.120 17.558 C 8.230 17.755,8.414 17.898,8.635 17.959 C 8.823 18.012,10.177 18.012,10.365 17.959 C 10.586 17.898,10.770 17.755,10.880 17.558 C 10.967 17.402,10.980 17.332,10.979 17.000 C 10.978 16.687,10.962 16.591,10.890 16.453 C 10.786 16.256,10.623 16.131,10.371 16.055 C 10.126 15.982,8.851 15.983,8.614 16.057 M16.334 16.064 C 16.446 16.102,16.593 16.200,16.700 16.306 C 16.948 16.554,17.000 16.753,17.000 17.447 L 17.000 18.000 16.000 18.000 L 15.000 18.000 15.000 17.447 C 15.000 16.753,15.052 16.554,15.301 16.306 C 15.587 16.019,15.952 15.934,16.334 16.064 " stroke="none" fill="black" fill-rule="evenodd"></path></svg>