<svg xmlns="http://www.w3.org/2000/svg" width="24" height="24" viewBox="0 0 24 24" fill="none" stroke="currentColor" stroke-width="2" stroke-linecap="round" stroke-linejoin="round" class="icon icon-tabler icons-tabler-outline icon-tabler-json"><path d="M0.614 7.057 C 0.377 7.131,0.212 7.261,0.109 7.453 C 0.035 7.592,0.020 7.684,0.020 8.000 C 0.020 8.331,0.033 8.403,0.120 8.558 C 0.230 8.755,0.414 8.898,0.635 8.959 C 0.716 8.982,1.270 9.000,1.890 9.000 L 3.000 9.000 3.000 11.802 C 3.000 14.894,3.011 14.761,2.748 14.922 C 2.585 15.021,2.415 15.021,2.252 14.922 C 2.051 14.799,2.011 14.677,1.992 14.120 C 1.972 13.541,1.901 13.347,1.649 13.182 C 1.198 12.887,0.426 12.979,0.170 13.358 C 0.019 13.582,-0.010 13.776,0.009 14.420 C 0.025 14.941,0.042 15.059,0.135 15.320 C 0.391 16.036,0.962 16.608,1.680 16.868 C 1.948 16.965,2.035 16.976,2.500 16.976 C 2.965 16.976,3.052 16.965,3.320 16.868 C 4.036 16.608,4.601 16.044,4.869 15.320 L 4.980 15.020 4.980 11.320 L 4.980 7.620 4.891 7.453 C 4.785 7.256,4.622 7.131,4.371 7.055 C 4.114 6.978,0.862 6.980,0.614 7.057 M7.477 7.073 C 6.806 7.249,6.238 7.823,6.060 8.508 C 5.973 8.839,5.973 11.161,6.060 11.492 C 6.153 11.852,6.310 12.118,6.596 12.404 C 7.073 12.881,7.426 13.000,8.368 13.000 L 9.000 13.000 9.000 14.000 L 9.000 15.000 8.505 15.000 L 8.010 15.000 7.983 14.794 C 7.930 14.393,7.743 14.167,7.371 14.055 C 7.137 13.985,6.863 13.985,6.629 14.055 C 6.224 14.177,6.040 14.428,6.009 14.901 C 5.971 15.476,6.164 15.972,6.591 16.399 C 7.092 16.900,7.410 17.000,8.500 17.000 C 9.587 17.000,9.909 16.899,10.404 16.404 C 10.694 16.114,10.841 15.863,10.937 15.491 C 11.026 15.149,11.028 12.903,10.940 12.529 C 10.858 12.182,10.720 11.927,10.465 11.653 C 9.998 11.150,9.590 11.006,8.630 11.002 L 8.000 11.000 8.000 10.000 L 8.000 9.000 8.494 9.000 L 8.989 9.000 9.013 9.203 C 9.074 9.715,9.426 10.000,10.000 10.000 C 10.618 10.000,10.944 9.706,10.987 9.110 C 11.027 8.565,10.848 8.065,10.465 7.653 C 9.978 7.129,9.602 7.005,8.500 7.005 C 7.910 7.005,7.681 7.020,7.477 7.073 M14.499 7.040 C 13.363 7.246,12.461 8.048,12.114 9.160 L 12.020 9.460 12.020 12.000 L 12.020 14.540 12.114 14.840 C 12.422 15.827,13.174 16.579,14.160 16.886 C 14.594 17.021,15.406 17.021,15.840 16.886 C 16.826 16.579,17.578 15.827,17.886 14.840 L 17.980 14.540 17.980 12.000 L 17.980 9.460 17.886 9.160 C 17.580 8.178,16.810 7.407,15.861 7.129 C 15.500 7.023,14.832 6.980,14.499 7.040 M19.614 7.057 C 19.377 7.131,19.212 7.261,19.109 7.453 L 19.020 7.620 19.009 11.913 C 19.002 14.727,19.013 16.258,19.039 16.357 C 19.144 16.747,19.434 16.961,19.896 16.991 C 20.381 17.022,20.699 16.882,20.880 16.558 L 20.980 16.380 20.993 14.960 L 21.006 13.540 21.556 15.000 C 21.858 15.803,22.134 16.514,22.169 16.580 C 22.304 16.834,22.620 17.040,22.875 17.040 C 23.115 17.040,23.522 16.880,23.702 16.714 C 24.021 16.420,24.003 16.719,23.991 11.897 L 23.980 7.620 23.889 7.450 C 23.724 7.140,23.329 6.970,22.874 7.011 C 22.439 7.051,22.141 7.274,22.041 7.635 C 22.018 7.718,22.000 8.352,21.998 9.120 L 21.996 10.460 21.446 9.000 C 21.143 8.197,20.874 7.501,20.848 7.454 C 20.765 7.302,20.481 7.090,20.300 7.044 C 20.074 6.987,19.823 6.992,19.614 7.057 M15.310 9.061 C 15.589 9.144,15.856 9.411,15.939 9.690 C 16.025 9.978,16.030 14.007,15.945 14.290 C 15.872 14.533,15.707 14.740,15.484 14.872 C 15.328 14.963,15.254 14.980,15.000 14.980 C 14.746 14.980,14.672 14.963,14.516 14.872 C 14.415 14.813,14.282 14.698,14.221 14.618 C 14.004 14.333,14.000 14.287,14.000 12.001 C 14.000 9.588,13.998 9.609,14.304 9.303 C 14.583 9.024,14.916 8.944,15.310 9.061 " stroke="none" fill="black" fill-rule="evenodd"></path></svg>