<svg xmlns="http://www.w3.org/2000/svg" width="24" height="24" viewBox="0 0 24 24" fill="none" stroke="currentColor" stroke-width="2" stroke-linecap="round" stroke-linejoin="round" class="icon icon-tabler icons-tabler-outline icon-tabler-record-mail"><path d="M6.358 8.061 C 5.230 8.237,4.143 8.974,3.569 9.953 C 2.696 11.441,2.848 13.269,3.954 14.584 C 4.529 15.266,5.331 15.735,6.243 15.921 C 6.620 15.997,6.802 16.000,12.000 16.000 C 17.198 16.000,17.380 15.997,17.757 15.921 C 19.117 15.643,20.193 14.755,20.704 13.488 C 21.090 12.530,21.090 11.469,20.705 10.516 C 20.263 9.421,19.381 8.593,18.245 8.204 C 17.951 8.103,17.322 8.000,17.000 8.000 C 16.678 8.000,16.049 8.103,15.755 8.204 C 13.825 8.865,12.684 10.815,13.082 12.772 C 13.158 13.141,13.394 13.806,13.483 13.898 C 13.503 13.919,13.520 13.950,13.520 13.968 C 13.520 13.986,12.836 14.000,12.000 14.000 C 11.164 14.000,10.480 13.986,10.480 13.968 C 10.480 13.950,10.497 13.919,10.517 13.898 C 10.602 13.811,10.847 13.120,10.921 12.757 C 11.070 12.024,10.994 11.230,10.705 10.516 C 10.172 9.197,9.001 8.269,7.605 8.058 C 7.144 7.989,6.816 7.990,6.358 8.061 M7.523 10.073 C 8.262 10.266,8.850 10.924,8.967 11.690 C 9.067 12.343,8.873 12.933,8.403 13.404 C 8.002 13.807,7.547 14.000,7.000 14.000 C 6.485 14.000,6.038 13.822,5.653 13.465 C 4.323 12.229,5.189 10.005,7.000 10.005 C 7.143 10.005,7.378 10.036,7.523 10.073 M17.523 10.073 C 18.262 10.266,18.850 10.924,18.967 11.690 C 19.067 12.343,18.873 12.933,18.403 13.404 C 18.002 13.807,17.547 14.000,17.000 14.000 C 16.485 14.000,16.038 13.822,15.653 13.465 C 14.323 12.229,15.189 10.005,17.000 10.005 C 17.143 10.005,17.378 10.036,17.523 10.073 " stroke="none" fill="black" fill-rule="evenodd"></path></svg>