<svg xmlns="http://www.w3.org/2000/svg" width="24" height="24" viewBox="0 0 24 24" fill="none" stroke="currentColor" stroke-width="2" stroke-linecap="round" stroke-linejoin="round" class="icon icon-tabler icons-tabler-outline icon-tabler-currency-dollar-canadian"><path d="M17.614 3.057 C 17.377 3.131,17.212 3.261,17.109 3.453 C 17.029 3.603,17.019 3.689,17.007 4.310 L 16.993 5.000 16.887 5.000 C 16.663 5.001,16.000 5.120,15.755 5.204 C 14.847 5.515,14.028 6.170,13.569 6.953 C 12.320 9.083,13.233 11.785,15.512 12.704 C 16.082 12.933,16.511 13.000,17.446 13.002 C 18.376 13.005,18.635 13.051,19.017 13.281 C 19.902 13.814,20.243 14.955,19.793 15.880 C 19.638 16.198,19.227 16.625,18.930 16.775 C 18.492 16.997,18.452 17.000,16.038 17.000 C 13.664 17.000,13.594 17.005,13.322 17.199 C 13.100 17.357,13.020 17.568,13.020 18.000 C 13.020 18.331,13.033 18.403,13.120 18.558 C 13.230 18.755,13.414 18.898,13.635 18.959 C 13.716 18.982,14.270 19.000,14.890 19.000 L 16.000 19.000 16.000 19.610 C 16.000 19.945,16.019 20.285,16.041 20.365 C 16.148 20.750,16.437 20.962,16.896 20.991 C 17.381 21.022,17.699 20.882,17.880 20.558 C 17.974 20.391,17.981 20.338,17.994 19.690 L 18.008 19.000 18.188 19.000 C 18.663 19.000,19.562 18.727,20.044 18.436 C 21.487 17.567,22.250 15.860,21.921 14.243 C 21.628 12.806,20.637 11.680,19.245 11.204 C 18.834 11.063,18.289 11.000,17.478 11.000 C 16.448 11.000,16.128 10.906,15.653 10.465 C 14.654 9.537,14.830 7.974,16.014 7.265 C 16.441 7.008,16.537 7.000,19.008 7.000 C 20.366 7.000,21.276 6.984,21.365 6.959 C 21.586 6.898,21.770 6.755,21.880 6.558 C 21.967 6.402,21.980 6.332,21.979 6.000 C 21.978 5.567,21.898 5.355,21.678 5.199 C 21.430 5.022,21.256 5.000,20.098 5.000 L 19.008 5.000 18.993 4.310 C 18.976 3.541,18.930 3.378,18.678 3.199 C 18.414 3.010,17.957 2.950,17.614 3.057 M8.540 5.026 C 6.765 5.166,5.276 5.842,4.059 7.059 C 2.989 8.129,2.322 9.447,2.074 10.980 C 2.008 11.393,2.008 12.607,2.074 13.020 C 2.322 14.553,2.989 15.871,4.059 16.941 C 5.104 17.986,6.359 18.635,7.860 18.906 C 8.285 18.983,10.118 19.026,10.344 18.965 C 10.584 18.900,10.767 18.761,10.880 18.558 C 10.967 18.402,10.980 18.332,10.979 18.000 C 10.978 17.572,10.898 17.355,10.686 17.204 C 10.456 17.040,10.360 17.026,9.340 16.999 C 8.280 16.971,7.981 16.930,7.400 16.732 C 5.810 16.189,4.580 14.864,4.161 13.240 C 3.920 12.307,3.983 11.125,4.320 10.248 C 4.905 8.725,6.205 7.559,7.760 7.162 C 8.197 7.050,8.744 7.000,9.528 7.000 C 9.909 7.000,10.285 6.981,10.365 6.959 C 10.586 6.898,10.770 6.755,10.880 6.558 C 10.967 6.402,10.980 6.332,10.979 6.000 C 10.978 5.567,10.898 5.355,10.678 5.199 C 10.443 5.031,10.238 5.000,9.444 5.007 C 9.035 5.010,8.628 5.019,8.540 5.026 " stroke="none" fill="black" fill-rule="evenodd"></path></svg>