<svg xmlns="http://www.w3.org/2000/svg" width="24" height="24" viewBox="0 0 24 24" fill="none" stroke="currentColor" stroke-width="2" stroke-linecap="round" stroke-linejoin="round" class="icon icon-tabler icons-tabler-outline icon-tabler-smart-home"><path d="M11.440 3.044 C 11.093 3.097,10.593 3.272,10.264 3.457 C 9.966 3.623,4.506 7.847,4.166 8.174 C 3.685 8.636,3.329 9.237,3.153 9.880 L 3.060 10.220 3.060 14.420 L 3.060 18.620 3.169 18.940 C 3.512 19.947,4.370 20.723,5.392 20.951 C 5.676 21.015,6.195 21.020,12.080 21.020 L 18.460 21.020 18.778 20.929 C 19.828 20.631,20.632 19.835,20.945 18.780 C 21.011 18.558,21.018 18.243,21.030 14.640 C 21.040 11.963,21.030 10.633,21.000 10.400 C 20.889 9.539,20.524 8.793,19.930 8.210 C 19.717 8.000,14.513 3.932,14.082 3.638 C 13.760 3.418,13.312 3.215,12.940 3.119 C 12.564 3.022,11.825 2.985,11.440 3.044 M12.368 5.045 C 12.485 5.070,12.664 5.132,12.767 5.184 C 12.965 5.284,18.259 9.376,18.548 9.652 C 18.795 9.888,18.953 10.213,19.002 10.586 C 19.029 10.790,19.040 12.195,19.032 14.580 L 19.020 18.260 18.926 18.440 C 18.796 18.691,18.664 18.819,18.425 18.927 L 18.220 19.020 12.040 19.020 C 6.157 19.020,5.851 19.016,5.671 18.947 C 5.440 18.858,5.139 18.538,5.080 18.318 C 5.052 18.216,5.042 16.869,5.049 14.272 L 5.060 10.380 5.186 10.120 C 5.255 9.977,5.363 9.802,5.426 9.730 C 5.603 9.529,11.074 5.291,11.302 5.178 C 11.640 5.011,11.998 4.966,12.368 5.045 M7.595 14.038 C 7.141 14.285,6.845 14.967,7.014 15.372 C 7.249 15.933,8.915 16.647,10.600 16.907 C 11.245 17.007,12.755 17.007,13.400 16.907 C 15.085 16.647,16.751 15.933,16.986 15.372 C 17.159 14.958,16.852 14.271,16.388 14.034 C 16.122 13.898,15.905 13.941,15.277 14.252 C 14.250 14.762,13.207 15.000,12.000 15.000 C 10.792 15.000,9.750 14.762,8.721 14.251 C 8.100 13.943,7.855 13.896,7.595 14.038 " stroke="none" fill="black" fill-rule="evenodd"></path></svg>