<svg xmlns="http://www.w3.org/2000/svg" width="24" height="24" viewBox="0 0 24 24" fill="none" stroke="currentColor" stroke-width="2" stroke-linecap="round" stroke-linejoin="round" class="icon icon-tabler icons-tabler-outline icon-tabler-paper-bag-off"><path d="M2.626 2.045 C 2.420 2.154,2.146 2.433,2.038 2.644 C 1.924 2.868,1.924 3.133,2.040 3.363 C 2.100 3.481,2.604 4.017,3.568 4.985 L 5.007 6.429 4.993 7.125 L 4.979 7.820 4.232 9.306 C 3.464 10.831,3.266 11.309,3.110 12.014 C 3.020 12.418,3.020 12.436,3.020 15.980 L 3.020 19.540 3.114 19.840 C 3.418 20.816,4.149 21.554,5.140 21.886 L 5.420 21.980 11.820 21.992 C 16.357 22.000,18.295 21.990,18.478 21.959 C 18.942 21.880,19.463 21.657,19.795 21.395 L 19.891 21.320 20.184 21.598 C 20.345 21.751,20.553 21.916,20.646 21.963 C 20.987 22.137,21.357 22.045,21.701 21.701 C 22.115 21.287,22.159 20.871,21.833 20.440 C 21.792 20.385,18.406 16.980,14.309 12.873 C 10.212 8.766,6.815 5.360,6.760 5.305 C 5.600 4.128,3.504 2.111,3.372 2.045 C 3.152 1.934,2.835 1.934,2.626 2.045 M7.460 2.059 C 6.753 2.194,6.284 2.483,6.159 2.862 C 6.009 3.319,6.401 4.071,6.855 4.199 C 7.053 4.254,7.168 4.238,7.587 4.097 L 7.873 4.000 11.989 4.000 C 16.604 4.000,16.372 3.986,16.679 4.283 C 16.976 4.572,16.975 4.567,17.003 6.160 C 17.039 8.213,17.073 8.345,18.082 10.400 C 19.023 12.315,18.967 12.064,18.996 14.480 L 19.020 16.380 19.120 16.558 C 19.287 16.856,19.572 17.000,20.000 17.000 C 20.428 17.000,20.713 16.856,20.880 16.558 L 20.980 16.380 20.980 14.420 C 20.980 11.751,20.985 11.772,19.918 9.600 C 19.003 7.737,19.038 7.879,19.001 5.920 C 18.974 4.517,18.967 4.402,18.882 4.140 C 18.571 3.172,17.822 2.425,16.861 2.121 L 16.540 2.020 12.140 2.013 C 8.619 2.007,7.684 2.017,7.460 2.059 M10.614 6.057 C 10.377 6.131,10.212 6.261,10.109 6.453 C 10.035 6.592,10.020 6.684,10.020 7.000 C 10.020 7.331,10.033 7.403,10.120 7.558 C 10.230 7.755,10.414 7.898,10.635 7.959 C 10.826 8.012,13.174 8.012,13.365 7.959 C 13.586 7.898,13.770 7.755,13.880 7.558 C 13.967 7.402,13.980 7.332,13.979 7.000 C 13.978 6.687,13.962 6.591,13.890 6.453 C 13.786 6.256,13.623 6.131,13.371 6.055 C 13.117 5.979,10.859 5.981,10.614 6.057 M11.512 13.327 C 10.847 14.301,10.835 15.630,11.481 16.622 C 11.669 16.910,12.134 17.369,12.424 17.552 C 12.868 17.832,13.470 18.000,14.032 18.000 C 14.557 18.000,15.230 17.788,15.684 17.480 L 15.908 17.328 17.182 18.602 C 17.883 19.303,18.448 19.884,18.438 19.893 C 18.322 19.992,17.946 20.000,13.490 20.000 C 9.202 20.000,8.833 19.995,8.856 19.935 C 8.974 19.628,8.980 19.446,8.980 15.980 C 8.980 12.729,8.974 12.432,8.907 12.100 C 8.779 11.468,8.572 10.916,8.118 9.997 L 7.675 9.100 9.674 11.096 L 11.672 13.092 11.512 13.327 M6.394 11.034 C 6.637 11.531,6.798 11.922,6.869 12.184 L 6.977 12.580 6.992 15.800 C 7.002 18.076,6.993 19.080,6.962 19.224 C 6.905 19.485,6.723 19.731,6.486 19.871 C 6.328 19.964,6.255 19.980,6.000 19.980 C 5.746 19.980,5.672 19.963,5.516 19.872 C 5.415 19.813,5.283 19.700,5.224 19.621 C 4.988 19.313,4.995 19.430,5.009 15.855 L 5.022 12.580 5.130 12.184 C 5.202 11.923,5.364 11.530,5.606 11.034 C 5.808 10.619,5.986 10.280,6.000 10.280 C 6.014 10.280,6.192 10.619,6.394 11.034 M13.799 15.219 C 14.160 15.581,14.448 15.884,14.438 15.893 C 14.386 15.937,14.130 16.000,14.001 16.000 C 13.366 16.000,12.869 15.349,13.040 14.741 C 13.068 14.641,13.102 14.560,13.116 14.560 C 13.130 14.560,13.437 14.856,13.799 15.219 " stroke="none" fill="black" fill-rule="evenodd"></path></svg>