<svg xmlns="http://www.w3.org/2000/svg" width="24" height="24" viewBox="0 0 24 24" fill="none" stroke="currentColor" stroke-width="2" stroke-linecap="round" stroke-linejoin="round" class="icon icon-tabler icons-tabler-outline icon-tabler-eye-table"><path d="M3.614 2.057 C 3.223 2.180,3.039 2.436,3.009 2.900 C 2.968 3.532,3.251 3.922,3.797 3.987 L 4.000 4.011 4.000 12.137 C 4.000 21.004,3.986 20.458,4.225 20.930 C 4.361 21.199,4.801 21.639,5.070 21.775 C 5.538 22.012,5.172 22.000,12.000 22.000 C 18.828 22.000,18.462 22.012,18.930 21.775 C 19.196 21.640,19.638 21.200,19.771 20.937 C 20.015 20.457,20.000 21.016,20.000 12.130 L 20.000 4.011 20.197 3.988 C 20.539 3.947,20.754 3.805,20.904 3.520 C 21.018 3.305,21.009 2.679,20.890 2.453 C 20.786 2.256,20.623 2.131,20.371 2.055 C 20.106 1.976,3.868 1.978,3.614 2.057 M18.000 12.000 L 18.000 20.000 12.000 20.000 L 6.000 20.000 6.000 12.000 L 6.000 4.000 12.000 4.000 L 18.000 4.000 18.000 12.000 M9.614 6.057 C 9.377 6.131,9.212 6.261,9.109 6.453 C 9.035 6.592,9.020 6.684,9.020 7.000 C 9.020 7.331,9.033 7.403,9.120 7.558 C 9.230 7.755,9.414 7.898,9.635 7.959 C 9.715 7.981,10.055 8.000,10.390 8.000 L 11.000 8.000 11.000 9.610 C 11.000 10.565,11.017 11.279,11.041 11.365 C 11.148 11.750,11.437 11.962,11.896 11.991 C 12.381 12.022,12.699 11.882,12.880 11.558 L 12.980 11.380 12.992 9.690 L 13.004 8.000 13.612 8.000 C 13.946 8.000,14.285 7.981,14.365 7.959 C 14.586 7.898,14.770 7.755,14.880 7.558 C 14.967 7.402,14.980 7.332,14.979 7.000 C 14.978 6.567,14.898 6.355,14.678 6.199 C 14.406 6.005,14.336 6.000,11.984 6.003 C 10.293 6.005,9.741 6.017,9.614 6.057 M8.614 14.057 C 8.377 14.131,8.212 14.261,8.109 14.453 C 8.035 14.592,8.020 14.684,8.020 15.000 C 8.020 15.331,8.033 15.403,8.120 15.558 C 8.230 15.755,8.414 15.898,8.635 15.959 C 8.823 16.012,10.177 16.012,10.365 15.959 C 10.586 15.898,10.770 15.755,10.880 15.558 C 10.967 15.402,10.980 15.332,10.979 15.000 C 10.978 14.687,10.962 14.591,10.890 14.453 C 10.786 14.256,10.623 14.131,10.371 14.055 C 10.126 13.982,8.851 13.983,8.614 14.057 M13.614 14.057 C 13.377 14.131,13.212 14.261,13.109 14.453 C 13.035 14.592,13.020 14.684,13.020 15.000 C 13.020 15.331,13.033 15.403,13.120 15.558 C 13.230 15.755,13.414 15.898,13.635 15.959 C 13.823 16.012,15.177 16.012,15.365 15.959 C 15.586 15.898,15.770 15.755,15.880 15.558 C 15.967 15.402,15.980 15.332,15.979 15.000 C 15.978 14.687,15.962 14.591,15.890 14.453 C 15.786 14.256,15.623 14.131,15.371 14.055 C 15.126 13.982,13.851 13.983,13.614 14.057 M7.660 17.037 C 7.354 17.112,7.116 17.325,7.042 17.591 C 6.988 17.784,6.989 18.218,7.043 18.413 C 7.142 18.769,7.516 19.000,7.995 19.000 C 8.428 18.999,8.712 18.858,8.880 18.558 C 8.967 18.402,8.980 18.332,8.979 18.000 C 8.978 17.567,8.898 17.355,8.678 17.199 C 8.435 17.025,7.995 16.956,7.660 17.037 M11.660 17.037 C 11.354 17.112,11.116 17.325,11.042 17.591 C 10.988 17.784,10.989 18.218,11.043 18.413 C 11.142 18.769,11.516 19.000,11.995 19.000 C 12.428 18.999,12.712 18.858,12.880 18.558 C 12.967 18.402,12.980 18.332,12.979 18.000 C 12.978 17.567,12.898 17.355,12.678 17.199 C 12.435 17.025,11.995 16.956,11.660 17.037 M15.660 17.037 C 15.354 17.112,15.116 17.325,15.042 17.591 C 14.988 17.784,14.989 18.218,15.043 18.413 C 15.142 18.769,15.516 19.000,15.995 19.000 C 16.428 18.999,16.712 18.858,16.880 18.558 C 16.967 18.402,16.980 18.332,16.979 18.000 C 16.978 17.567,16.898 17.355,16.678 17.199 C 16.435 17.025,15.995 16.956,15.660 17.037 " stroke="none" fill="black" fill-rule="evenodd"></path></svg>