<svg xmlns="http://www.w3.org/2000/svg" width="24" height="24" viewBox="0 0 24 24" fill="none" stroke="currentColor" stroke-width="2" stroke-linecap="round" stroke-linejoin="round" class="icon icon-tabler icons-tabler-outline icon-tabler-brand-steam"><path d="M15.880 4.043 C 13.797 4.275,11.981 5.733,11.299 7.720 C 11.107 8.280,11.032 8.733,11.016 9.428 L 11.001 10.075 9.956 11.538 L 8.912 13.000 8.599 13.000 C 7.927 13.000,7.270 13.151,6.720 13.431 L 6.420 13.584 4.848 12.802 L 3.275 12.020 2.966 12.020 C 2.466 12.020,2.149 12.233,2.039 12.646 C 2.012 12.744,2.001 13.515,2.009 14.810 L 2.020 16.820 2.130 17.007 C 2.191 17.110,2.295 17.234,2.362 17.282 C 2.430 17.330,2.989 17.587,3.605 17.854 L 4.725 18.340 4.855 18.643 C 5.036 19.064,5.349 19.500,5.734 19.868 C 6.272 20.383,6.843 20.705,7.540 20.885 C 7.839 20.963,8.002 20.978,8.500 20.978 C 9.212 20.978,9.600 20.896,10.187 20.620 C 10.659 20.399,10.864 20.256,11.273 19.863 C 11.831 19.327,12.226 18.635,12.383 17.920 C 12.419 17.755,12.460 17.589,12.474 17.552 C 12.488 17.515,13.305 16.928,14.288 16.247 L 16.076 15.011 16.668 14.988 C 17.762 14.946,18.673 14.653,19.572 14.054 C 20.743 13.275,21.577 12.027,21.887 10.591 C 22.005 10.043,22.015 8.993,21.907 8.480 C 21.428 6.214,19.739 4.528,17.520 4.101 C 17.098 4.020,16.330 3.993,15.880 4.043 M17.294 6.101 C 18.362 6.352,19.267 7.115,19.711 8.140 C 20.070 8.970,20.070 10.030,19.711 10.860 C 19.277 11.861,18.475 12.563,17.397 12.884 C 17.137 12.962,17.003 12.973,16.320 12.976 C 15.593 12.980,15.530 12.986,15.392 13.067 C 15.102 13.239,10.937 16.133,10.805 16.255 C 10.609 16.436,10.528 16.652,10.485 17.103 C 10.440 17.579,10.335 17.877,10.100 18.196 C 9.414 19.128,8.098 19.271,7.207 18.510 C 6.874 18.226,6.718 17.967,6.541 17.412 C 6.431 17.066,6.300 16.879,6.081 16.756 C 5.993 16.706,5.494 16.483,4.971 16.259 L 4.020 15.852 4.009 15.246 C 4.003 14.913,4.007 14.640,4.017 14.640 C 4.028 14.640,4.531 14.886,5.135 15.186 C 6.540 15.886,6.660 15.904,7.185 15.493 C 7.695 15.094,8.259 14.936,8.811 15.037 C 9.504 15.165,9.741 15.133,9.997 14.876 C 10.227 14.647,12.931 10.828,13.011 10.620 C 13.082 10.435,13.084 10.388,13.039 9.991 C 12.913 8.893,13.219 7.915,13.933 7.134 C 14.449 6.569,15.213 6.159,15.962 6.044 C 16.283 5.995,16.967 6.024,17.294 6.101 M15.940 7.574 C 15.489 7.723,15.042 8.063,14.800 8.441 C 14.412 9.045,14.410 9.953,14.797 10.555 C 15.179 11.151,15.799 11.492,16.500 11.492 C 17.052 11.492,17.469 11.326,17.869 10.948 C 18.299 10.541,18.488 10.100,18.488 9.500 C 18.488 8.690,18.071 8.043,17.320 7.684 C 17.036 7.548,16.996 7.540,16.560 7.531 C 16.262 7.525,16.044 7.540,15.940 7.574 " stroke="none" fill="black" fill-rule="evenodd"></path></svg>