<svg xmlns="http://www.w3.org/2000/svg" width="24" height="24" viewBox="0 0 24 24" fill="none" stroke="currentColor" stroke-width="2" stroke-linecap="round" stroke-linejoin="round" class="icon icon-tabler icons-tabler-outline icon-tabler-device-laptop-off"><path d="M2.626 2.045 C 2.257 2.239,1.951 2.673,1.951 3.000 C 1.951 3.329,2.061 3.471,3.259 4.680 L 4.389 5.820 4.296 5.954 C 4.245 6.027,4.162 6.189,4.111 6.314 L 4.020 6.540 4.009 10.879 C 4.002 13.808,4.012 15.285,4.040 15.422 C 4.148 15.941,4.602 16.538,5.070 16.775 C 5.533 17.009,5.299 17.000,10.659 17.000 L 15.581 17.000 16.080 17.500 L 16.579 18.000 9.696 18.000 C 2.306 18.000,2.612 17.992,2.322 18.199 C 2.100 18.357,2.020 18.568,2.020 19.000 C 2.020 19.331,2.033 19.403,2.120 19.558 C 2.230 19.755,2.414 19.898,2.635 19.959 C 2.730 19.986,5.511 20.000,10.678 20.000 L 18.576 20.000 19.518 20.935 C 20.114 21.526,20.525 21.903,20.637 21.960 C 20.989 22.137,21.354 22.048,21.701 21.701 C 22.048 21.354,22.137 20.989,21.959 20.637 C 21.888 20.496,20.703 19.239,19.748 18.292 C 19.667 18.212,16.989 15.536,16.760 15.306 C 16.705 15.251,14.455 13.001,11.760 10.306 C 9.065 7.611,6.815 5.361,6.760 5.305 C 5.631 4.158,3.503 2.111,3.372 2.045 C 3.152 1.934,2.835 1.934,2.626 2.045 M9.614 5.057 C 9.377 5.131,9.212 5.261,9.109 5.453 C 9.035 5.592,9.020 5.684,9.020 6.000 C 9.020 6.331,9.033 6.403,9.120 6.558 C 9.230 6.755,9.414 6.898,9.635 6.959 C 9.728 6.985,11.260 7.000,13.890 7.000 L 18.000 7.000 18.000 11.110 C 18.000 13.740,18.015 15.272,18.041 15.365 C 18.148 15.750,18.437 15.962,18.896 15.991 C 19.381 16.022,19.699 15.882,19.880 15.558 L 19.980 15.380 19.991 11.090 C 20.003 6.426,20.007 6.528,19.782 6.083 C 19.646 5.816,19.297 5.449,19.017 5.281 C 18.539 4.993,18.749 5.005,14.020 5.005 C 10.652 5.005,9.746 5.016,9.614 5.057 M9.800 11.220 L 13.580 15.000 9.790 15.000 L 6.000 15.000 6.000 11.220 C 6.000 9.141,6.005 7.440,6.010 7.440 C 6.016 7.440,7.721 9.141,9.800 11.220 " stroke="none" fill="black" fill-rule="evenodd"></path></svg>