<svg xmlns="http://www.w3.org/2000/svg" width="24" height="24" viewBox="0 0 24 24" fill="none" stroke="currentColor" stroke-width="2" stroke-linecap="round" stroke-linejoin="round" class="icon icon-tabler icons-tabler-outline icon-tabler-rectangle-rounded-bottom"><path d="M3.477 5.073 C 2.785 5.254,2.184 5.886,2.039 6.585 C 2.009 6.730,2.001 7.727,2.012 9.807 C 2.030 13.013,2.028 12.978,2.236 13.786 C 2.857 16.200,4.844 18.167,7.275 18.778 C 8.077 18.979,8.097 18.980,12.000 18.980 C 15.846 18.980,15.924 18.977,16.660 18.796 C 19.157 18.182,21.154 16.203,21.783 13.720 C 21.970 12.980,21.971 12.968,21.988 9.816 C 22.006 6.546,22.005 6.524,21.782 6.083 C 21.646 5.816,21.297 5.449,21.017 5.281 C 20.523 4.983,21.217 5.005,12.000 5.005 C 4.321 5.005,3.721 5.009,3.477 5.073 M20.000 9.582 C 20.000 12.230,19.980 12.684,19.839 13.240 C 19.430 14.850,18.188 16.189,16.600 16.732 C 15.855 16.987,15.976 16.980,12.000 16.980 C 8.024 16.980,8.145 16.987,7.400 16.732 C 5.808 16.188,4.575 14.858,4.162 13.240 C 4.020 12.685,4.000 12.232,4.000 9.582 L 4.000 7.000 12.000 7.000 L 20.000 7.000 20.000 9.582 " stroke="none" fill="black" fill-rule="evenodd"></path></svg>