<svg xmlns="http://www.w3.org/2000/svg" width="24" height="24" viewBox="0 0 24 24" fill="none" stroke="currentColor" stroke-width="2" stroke-linecap="round" stroke-linejoin="round" class="icon icon-tabler icons-tabler-outline icon-tabler-calculator"><path d="M5.499 2.043 C 4.380 2.233,3.461 3.048,3.114 4.160 L 3.020 4.460 3.020 12.000 L 3.020 19.540 3.114 19.840 C 3.422 20.827,4.173 21.578,5.160 21.886 L 5.460 21.980 12.000 21.980 L 18.540 21.980 18.840 21.886 C 19.827 21.578,20.578 20.827,20.886 19.840 L 20.980 19.540 20.980 12.000 L 20.980 4.460 20.886 4.160 C 20.581 3.182,19.832 2.428,18.861 2.121 L 18.540 2.020 12.120 2.014 C 8.589 2.011,5.609 2.024,5.499 2.043 M18.310 4.061 C 18.589 4.144,18.856 4.411,18.939 4.690 C 18.993 4.870,19.000 5.755,19.000 12.001 C 19.000 17.907,18.991 19.138,18.945 19.290 C 18.872 19.533,18.707 19.740,18.484 19.872 L 18.300 19.980 12.000 19.980 L 5.700 19.980 5.516 19.872 C 5.415 19.813,5.284 19.700,5.225 19.623 C 4.986 19.309,5.000 19.795,5.000 12.022 C 5.000 4.005,4.975 4.631,5.304 4.303 C 5.623 3.983,5.120 4.006,11.983 4.003 C 17.353 4.000,18.131 4.007,18.310 4.061 M8.477 6.073 C 7.806 6.249,7.238 6.823,7.060 7.508 C 6.976 7.828,6.976 9.172,7.060 9.492 C 7.153 9.852,7.310 10.118,7.596 10.404 C 7.882 10.690,8.148 10.847,8.508 10.940 C 8.860 11.032,15.136 11.029,15.491 10.937 C 15.863 10.841,16.114 10.694,16.404 10.404 C 16.895 9.913,17.000 9.579,16.999 8.514 C 16.999 7.716,16.954 7.424,16.781 7.083 C 16.646 6.816,16.297 6.449,16.017 6.281 C 15.548 5.999,15.636 6.005,12.000 6.005 C 9.047 6.005,8.715 6.011,8.477 6.073 M15.000 8.500 L 15.000 9.000 12.000 9.000 L 9.000 9.000 9.000 8.500 L 9.000 8.000 12.000 8.000 L 15.000 8.000 15.000 8.500 M7.614 13.057 C 7.221 13.180,7.039 13.435,7.009 13.906 C 6.962 14.621,7.306 15.000,8.000 15.000 C 8.698 15.000,9.043 14.616,8.989 13.900 C 8.963 13.563,8.859 13.327,8.678 13.199 C 8.414 13.010,7.957 12.950,7.614 13.057 M11.614 13.057 C 11.221 13.180,11.039 13.435,11.009 13.906 C 10.962 14.621,11.306 15.000,12.000 15.000 C 12.698 15.000,13.043 14.616,12.989 13.900 C 12.963 13.563,12.859 13.327,12.678 13.199 C 12.414 13.010,11.957 12.950,11.614 13.057 M15.614 13.057 C 15.221 13.180,15.039 13.435,15.009 13.906 C 14.962 14.621,15.306 15.000,16.000 15.000 C 16.698 15.000,17.043 14.616,16.989 13.900 C 16.963 13.563,16.859 13.327,16.678 13.199 C 16.414 13.010,15.957 12.950,15.614 13.057 M7.614 16.057 C 7.221 16.180,7.039 16.435,7.009 16.906 C 6.962 17.621,7.306 18.000,8.000 18.000 C 8.698 18.000,9.043 17.616,8.989 16.900 C 8.963 16.563,8.859 16.327,8.678 16.199 C 8.414 16.010,7.957 15.950,7.614 16.057 M11.614 16.057 C 11.221 16.180,11.039 16.435,11.009 16.906 C 10.962 17.621,11.306 18.000,12.000 18.000 C 12.698 18.000,13.043 17.616,12.989 16.900 C 12.963 16.563,12.859 16.327,12.678 16.199 C 12.414 16.010,11.957 15.950,11.614 16.057 M15.614 16.057 C 15.221 16.180,15.039 16.435,15.009 16.906 C 14.962 17.621,15.306 18.000,16.000 18.000 C 16.698 18.000,17.043 17.616,16.989 16.900 C 16.963 16.563,16.859 16.327,16.678 16.199 C 16.414 16.010,15.957 15.950,15.614 16.057 " stroke="none" fill="black" fill-rule="evenodd"></path></svg>