<svg xmlns="http://www.w3.org/2000/svg" width="24" height="24" viewBox="0 0 24 24" fill="none" stroke="currentColor" stroke-width="2" stroke-linecap="round" stroke-linejoin="round" class="icon icon-tabler icons-tabler-outline icon-tabler-clock-pause"><path d="M11.420 2.027 C 7.856 2.245,4.715 4.296,3.101 7.457 C 2.414 8.801,2.072 10.140,2.014 11.700 C 1.891 15.007,3.505 18.241,6.240 20.168 C 8.169 21.527,10.587 22.178,12.896 21.959 C 13.562 21.895,13.846 21.739,13.978 21.364 C 14.062 21.129,14.056 20.860,13.961 20.553 C 13.878 20.283,13.760 20.140,13.526 20.022 C 13.421 19.969,13.307 19.957,12.986 19.967 C 12.133 19.994,11.167 19.976,10.840 19.927 C 8.828 19.625,6.857 18.464,5.663 16.879 C 4.013 14.689,3.569 11.955,4.445 9.381 C 5.221 7.101,7.103 5.219,9.381 4.445 C 11.358 3.774,13.500 3.877,15.329 4.732 C 17.053 5.537,18.359 6.814,19.182 8.500 C 19.794 9.751,20.048 10.990,19.975 12.360 C 19.932 13.175,19.939 13.321,20.032 13.531 C 20.166 13.834,20.506 14.006,20.980 14.012 C 21.362 14.017,21.597 13.910,21.755 13.662 C 21.939 13.372,21.979 13.064,21.977 11.980 C 21.974 10.779,21.883 10.167,21.533 9.000 C 20.893 6.866,19.384 4.883,17.440 3.622 C 15.643 2.457,13.530 1.897,11.420 2.027 M11.614 6.057 C 11.377 6.131,11.212 6.261,11.109 6.453 L 11.020 6.620 11.020 9.460 L 11.020 12.300 11.127 12.480 C 11.281 12.739,13.416 14.848,13.637 14.960 C 13.989 15.137,14.354 15.048,14.701 14.701 C 15.048 14.354,15.137 13.989,14.960 13.637 C 14.903 13.525,14.527 13.114,13.937 12.520 L 13.003 11.579 12.991 9.100 C 12.980 6.623,12.980 6.620,12.891 6.453 C 12.842 6.362,12.746 6.247,12.678 6.199 C 12.414 6.010,11.957 5.950,11.614 6.057 M16.614 16.057 C 16.377 16.131,16.212 16.261,16.109 16.453 L 16.020 16.620 16.009 19.412 C 16.002 21.226,16.012 22.257,16.039 22.356 C 16.144 22.747,16.433 22.961,16.896 22.991 C 17.381 23.022,17.699 22.882,17.880 22.558 L 17.980 22.380 17.980 19.500 L 17.980 16.620 17.891 16.453 C 17.842 16.362,17.746 16.247,17.678 16.199 C 17.414 16.010,16.957 15.950,16.614 16.057 M20.614 16.057 C 20.377 16.131,20.212 16.261,20.109 16.453 L 20.020 16.620 20.009 19.412 C 20.002 21.226,20.012 22.257,20.039 22.356 C 20.144 22.747,20.433 22.961,20.896 22.991 C 21.381 23.022,21.699 22.882,21.880 22.558 L 21.980 22.380 21.980 19.500 L 21.980 16.620 21.891 16.453 C 21.842 16.362,21.746 16.247,21.678 16.199 C 21.414 16.010,20.957 15.950,20.614 16.057 " stroke="none" fill="black" fill-rule="evenodd"></path></svg>