<svg xmlns="http://www.w3.org/2000/svg" width="24" height="24" viewBox="0 0 24 24" fill="none" stroke="currentColor" stroke-width="2" stroke-linecap="round" stroke-linejoin="round" class="icon icon-tabler icons-tabler-outline icon-tabler-arrow-big-right"><path d="M12.720 3.442 C 12.089 3.523,11.518 3.931,11.225 4.509 C 11.014 4.926,11.000 5.059,11.000 6.588 L 11.000 8.000 7.370 8.002 C 3.323 8.005,3.455 7.996,2.983 8.281 C 2.703 8.449,2.354 8.816,2.219 9.083 C 2.004 9.507,2.000 9.556,2.000 12.000 C 2.000 14.455,2.003 14.491,2.225 14.930 C 2.361 15.199,2.801 15.639,3.070 15.775 C 3.525 16.006,3.419 16.000,7.368 16.000 L 11.000 16.000 11.000 17.412 C 11.000 18.940,11.014 19.073,11.225 19.491 C 11.460 19.956,11.875 20.313,12.372 20.477 C 12.756 20.603,13.025 20.620,13.386 20.541 C 14.026 20.400,13.837 20.568,17.708 16.703 C 21.157 13.259,21.240 13.173,21.378 12.880 C 21.656 12.287,21.655 11.703,21.375 11.112 C 21.241 10.831,21.109 10.694,17.748 7.333 C 15.698 5.284,14.178 3.795,14.060 3.722 C 13.700 3.496,13.165 3.385,12.720 3.442 M16.300 15.280 L 13.020 18.560 13.000 16.590 C 12.980 14.649,12.979 14.618,12.891 14.453 C 12.842 14.362,12.746 14.247,12.678 14.199 C 12.394 13.996,12.477 14.000,8.094 14.000 L 4.000 14.000 4.000 12.000 L 4.000 10.000 8.110 10.000 C 10.740 10.000,12.272 9.985,12.365 9.959 C 12.586 9.898,12.770 9.755,12.880 9.558 L 12.980 9.380 12.992 7.402 L 13.004 5.424 16.292 8.712 L 19.580 12.000 16.300 15.280 " stroke="none" fill="black" fill-rule="evenodd"></path></svg>