<svg xmlns="http://www.w3.org/2000/svg" width="24" height="24" viewBox="0 0 24 24" fill="none" stroke="currentColor" stroke-width="2" stroke-linecap="round" stroke-linejoin="round" class="icon icon-tabler icons-tabler-outline icon-tabler-copy"><path d="M4.499 2.043 C 3.856 2.152,3.395 2.398,2.896 2.896 C 2.496 3.296,2.296 3.613,2.125 4.113 L 2.020 4.420 2.020 9.940 C 2.020 16.096,2.000 15.636,2.298 16.267 C 2.473 16.639,2.589 16.807,2.870 17.096 C 3.327 17.565,3.892 17.843,4.236 17.765 C 4.450 17.717,4.560 17.643,4.731 17.432 C 4.912 17.208,4.964 17.104,5.023 16.851 C 5.119 16.444,4.995 16.212,4.491 15.853 C 4.245 15.678,4.091 15.465,4.040 15.227 C 4.008 15.079,3.999 13.552,4.008 9.880 C 4.020 4.890,4.022 4.735,4.097 4.584 C 4.196 4.385,4.385 4.196,4.584 4.097 C 4.736 4.022,4.888 4.020,9.933 4.009 C 14.531 4.000,15.140 4.006,15.255 4.060 C 15.337 4.099,15.448 4.220,15.558 4.391 C 15.781 4.736,15.904 4.869,16.088 4.964 C 16.306 5.075,16.572 5.063,16.860 4.926 C 17.330 4.703,17.533 4.449,17.533 4.084 C 17.533 3.812,17.440 3.589,17.156 3.178 C 16.796 2.658,16.336 2.304,15.771 2.112 L 15.500 2.020 10.100 2.014 C 7.130 2.011,4.609 2.024,4.499 2.043 M9.280 6.025 C 8.674 6.120,8.289 6.241,7.898 6.460 C 7.160 6.872,6.519 7.609,6.245 8.360 C 6.005 9.018,6.020 8.636,6.020 14.000 C 6.020 19.364,6.005 18.982,6.245 19.640 C 6.581 20.559,7.441 21.419,8.360 21.755 C 9.018 21.995,8.636 21.980,14.000 21.980 C 19.364 21.980,18.982 21.995,19.640 21.755 C 20.559 21.419,21.419 20.559,21.755 19.640 C 21.995 18.982,21.980 19.364,21.980 14.000 C 21.980 8.636,21.995 9.018,21.755 8.360 C 21.419 7.442,20.564 6.586,19.640 6.244 C 19.009 6.011,19.326 6.024,14.140 6.016 C 11.522 6.013,9.335 6.017,9.280 6.025 M18.926 8.111 C 19.365 8.289,19.711 8.635,19.889 9.074 L 19.980 9.300 19.991 13.856 C 19.998 16.822,19.988 18.488,19.961 18.631 C 19.843 19.269,19.372 19.777,18.740 19.946 C 18.445 20.024,9.555 20.024,9.260 19.946 C 8.632 19.778,8.160 19.273,8.040 18.642 C 7.985 18.352,7.985 9.648,8.040 9.358 C 8.164 8.707,8.689 8.170,9.327 8.042 C 9.422 8.023,11.570 8.011,14.100 8.014 L 18.700 8.020 18.926 8.111 " stroke="none" fill="black" fill-rule="evenodd"></path></svg>