<svg xmlns="http://www.w3.org/2000/svg" width="24" height="24" viewBox="0 0 24 24" fill="none" stroke="currentColor" stroke-width="2" stroke-linecap="round" stroke-linejoin="round" class="icon icon-tabler icons-tabler-outline icon-tabler-currency-forint"><path d="M6.358 3.061 C 4.731 3.315,3.417 4.584,3.083 6.227 C 3.001 6.627,3.000 6.724,3.000 12.926 C 3.000 17.019,3.015 19.271,3.041 19.365 C 3.148 19.750,3.437 19.962,3.896 19.991 C 4.381 20.022,4.699 19.882,4.880 19.558 L 4.980 19.380 4.991 15.690 L 5.002 12.000 7.611 12.000 C 9.235 12.000,10.275 11.984,10.365 11.959 C 10.586 11.898,10.770 11.755,10.880 11.558 C 10.967 11.402,10.980 11.332,10.979 11.000 C 10.978 10.567,10.898 10.355,10.678 10.199 C 10.403 10.003,10.363 10.000,7.594 10.000 L 5.000 10.000 5.002 8.370 C 5.004 6.963,5.014 6.704,5.073 6.477 C 5.201 5.988,5.543 5.546,6.014 5.265 C 6.441 5.008,6.537 5.000,9.008 5.000 C 10.366 5.000,11.276 4.984,11.365 4.959 C 11.586 4.898,11.770 4.755,11.880 4.558 C 11.967 4.402,11.980 4.332,11.979 4.000 C 11.978 3.687,11.962 3.591,11.890 3.453 C 11.786 3.256,11.623 3.131,11.371 3.055 C 11.112 2.977,6.864 2.982,6.358 3.061 M15.614 3.057 C 15.377 3.131,15.212 3.261,15.109 3.453 C 15.021 3.619,15.020 3.633,15.009 5.810 L 14.997 8.000 14.405 8.000 C 13.577 8.000,13.300 8.097,13.109 8.453 C 13.035 8.592,13.020 8.684,13.020 9.000 C 13.020 9.331,13.033 9.403,13.120 9.558 C 13.230 9.755,13.414 9.898,13.635 9.959 C 13.715 9.981,14.054 10.000,14.389 10.000 L 14.997 10.000 15.009 13.790 L 15.020 17.580 15.114 17.860 C 15.443 18.841,16.169 19.566,17.140 19.884 C 17.405 19.971,17.492 19.976,18.804 19.991 C 19.715 20.001,20.243 19.992,20.348 19.963 C 20.583 19.900,20.767 19.760,20.880 19.558 C 20.967 19.402,20.980 19.332,20.979 19.000 C 20.977 18.469,20.850 18.243,20.455 18.072 C 20.375 18.037,19.942 18.016,19.020 18.001 L 17.700 17.980 17.516 17.872 C 17.415 17.813,17.284 17.700,17.225 17.623 C 16.992 17.317,17.000 17.464,17.000 13.575 L 17.000 10.000 18.110 10.000 C 18.730 10.000,19.284 9.982,19.365 9.959 C 19.586 9.898,19.770 9.755,19.880 9.558 C 19.967 9.402,19.980 9.332,19.979 9.000 C 19.978 8.567,19.898 8.355,19.678 8.199 C 19.430 8.022,19.256 8.000,18.095 8.000 L 17.003 8.000 16.992 5.810 C 16.980 3.633,16.979 3.619,16.891 3.453 C 16.842 3.362,16.746 3.247,16.678 3.199 C 16.414 3.010,15.957 2.950,15.614 3.057 " stroke="none" fill="black" fill-rule="evenodd"></path></svg>