<svg xmlns="http://www.w3.org/2000/svg" width="24" height="24" viewBox="0 0 24 24" fill="none" stroke="currentColor" stroke-width="2" stroke-linecap="round" stroke-linejoin="round" class="icon icon-tabler icons-tabler-outline icon-tabler-device-mobile-charging"><path d="M7.499 2.043 C 6.379 2.234,5.461 3.048,5.114 4.160 L 5.020 4.460 5.020 12.000 L 5.020 19.540 5.114 19.840 C 5.422 20.827,6.173 21.578,7.160 21.886 L 7.460 21.980 12.000 21.980 L 16.540 21.980 16.840 21.886 C 17.827 21.578,18.578 20.827,18.886 19.840 L 18.980 19.540 18.980 12.000 L 18.980 4.460 18.886 4.160 C 18.581 3.182,17.832 2.428,16.861 2.121 L 16.540 2.020 12.120 2.014 C 9.689 2.011,7.609 2.024,7.499 2.043 M10.013 4.203 C 10.058 4.583,10.288 4.863,10.635 4.959 C 10.826 5.012,13.174 5.012,13.365 4.959 C 13.712 4.863,13.935 4.593,13.983 4.210 L 14.009 4.000 15.057 4.000 C 16.297 4.000,16.416 4.022,16.697 4.303 C 17.024 4.631,17.000 4.009,17.000 12.001 C 17.000 17.907,16.991 19.138,16.945 19.290 C 16.872 19.533,16.707 19.740,16.484 19.872 L 16.300 19.980 12.000 19.980 L 7.700 19.980 7.516 19.872 C 7.415 19.813,7.284 19.700,7.225 19.623 C 6.986 19.309,7.000 19.795,7.000 12.022 C 7.000 4.005,6.975 4.631,7.304 4.303 C 7.582 4.024,7.681 4.006,8.924 4.003 L 9.989 4.000 10.013 4.203 M11.529 8.563 C 11.433 8.611,11.307 8.723,11.243 8.816 C 11.101 9.022,10.056 11.622,9.992 11.929 C 9.906 12.338,10.083 12.658,10.513 12.868 C 10.698 12.960,10.810 12.984,11.125 13.000 L 11.510 13.020 11.255 13.666 C 10.976 14.370,10.929 14.578,10.995 14.820 C 11.090 15.174,11.561 15.484,12.049 15.513 C 12.282 15.527,12.341 15.515,12.492 15.427 C 12.588 15.371,12.713 15.254,12.771 15.167 C 12.828 15.080,13.124 14.390,13.428 13.634 L 13.980 12.260 13.978 11.940 C 13.974 11.471,13.826 11.226,13.455 11.075 C 13.392 11.049,13.149 11.017,12.915 11.004 L 12.490 10.980 12.745 10.334 C 13.024 9.630,13.071 9.422,13.005 9.180 C 12.870 8.679,12.009 8.319,11.529 8.563 " stroke="none" fill="black" fill-rule="evenodd"></path></svg>