<svg xmlns="http://www.w3.org/2000/svg" width="24" height="24" viewBox="0 0 24 24" fill="none" stroke="currentColor" stroke-width="2" stroke-linecap="round" stroke-linejoin="round" class="icon icon-tabler icons-tabler-outline icon-tabler-golf"><path d="M11.614 2.055 C 11.295 2.159,11.128 2.333,11.035 2.658 C 10.984 2.835,10.988 18.167,11.039 18.357 C 11.144 18.747,11.434 18.961,11.896 18.991 C 12.381 19.022,12.699 18.882,12.880 18.558 L 12.980 18.380 12.991 14.980 L 13.003 11.580 16.325 9.682 C 18.807 8.264,19.677 7.748,19.765 7.642 C 19.912 7.464,20.040 7.126,20.040 6.917 C 20.040 6.700,19.959 6.529,19.775 6.352 C 19.644 6.228,12.757 2.254,12.383 2.088 C 12.207 2.009,11.805 1.992,11.614 2.055 M16.958 7.000 C 16.959 7.011,16.163 7.475,15.190 8.030 C 14.216 8.586,13.325 9.095,13.210 9.161 L 13.000 9.282 13.000 7.004 L 13.000 4.726 14.979 5.853 C 16.067 6.473,16.958 6.989,16.958 7.000 M8.575 16.778 C 7.827 17.154,7.219 17.855,7.062 18.524 C 6.664 20.210,8.403 21.684,11.114 21.958 C 13.866 22.236,16.414 21.199,16.907 19.600 C 17.012 19.260,17.003 18.686,16.888 18.352 C 16.719 17.865,16.379 17.433,15.860 17.047 C 15.286 16.621,14.859 16.531,14.510 16.762 C 14.212 16.959,13.965 17.404,13.962 17.752 C 13.959 18.064,14.120 18.281,14.586 18.593 C 14.826 18.754,15.000 18.929,15.000 19.012 C 15.000 19.108,14.635 19.386,14.301 19.544 C 13.007 20.157,10.993 20.157,9.699 19.544 C 9.365 19.386,9.000 19.108,9.000 19.012 C 9.000 18.929,9.174 18.754,9.414 18.593 C 9.740 18.375,9.872 18.250,9.964 18.072 C 10.103 17.801,10.049 17.468,9.802 17.084 C 9.507 16.623,9.090 16.520,8.575 16.778 " stroke="none" fill="black" fill-rule="evenodd"></path></svg>