<svg xmlns="http://www.w3.org/2000/svg" width="24" height="24" viewBox="0 0 24 24" fill="none" stroke="currentColor" stroke-width="2" stroke-linecap="round" stroke-linejoin="round" class="icon icon-tabler icons-tabler-outline icon-tabler-ruler-off"><path d="M2.626 2.045 C 2.257 2.239,1.951 2.673,1.951 3.000 C 1.951 3.278,2.081 3.486,2.566 3.983 L 3.003 4.430 3.001 11.845 C 2.999 19.941,2.985 19.457,3.225 19.930 C 3.361 20.199,3.801 20.639,4.070 20.775 C 4.516 21.001,4.499 21.000,7.500 21.000 C 10.501 21.000,10.484 21.001,10.930 20.775 C 11.196 20.640,11.638 20.200,11.771 19.937 C 12.001 19.483,12.000 19.506,12.000 16.335 L 12.000 13.421 16.230 17.646 C 19.248 20.662,20.511 21.897,20.637 21.961 C 20.990 22.137,21.355 22.048,21.701 21.701 C 22.047 21.355,22.137 20.990,21.961 20.637 C 21.897 20.509,19.541 18.125,13.446 12.020 C 3.873 2.431,3.602 2.163,3.372 2.046 C 3.152 1.934,2.836 1.934,2.626 2.045 M7.614 3.057 C 7.377 3.131,7.212 3.261,7.109 3.453 C 7.035 3.592,7.020 3.684,7.020 4.000 C 7.020 4.331,7.033 4.403,7.120 4.558 C 7.230 4.755,7.414 4.898,7.635 4.959 C 7.721 4.983,8.435 5.000,9.390 5.000 L 11.000 5.000 11.000 6.110 C 11.000 6.730,11.018 7.284,11.041 7.365 C 11.148 7.750,11.437 7.962,11.896 7.991 C 12.381 8.022,12.699 7.882,12.880 7.558 C 12.979 7.381,12.980 7.374,12.993 6.190 L 13.005 5.000 14.003 5.000 L 15.000 5.000 15.000 5.610 C 15.000 5.946,15.019 6.285,15.041 6.365 C 15.148 6.750,15.437 6.962,15.896 6.991 C 16.381 7.022,16.699 6.882,16.880 6.558 C 16.974 6.391,16.981 6.338,16.994 5.690 L 17.008 5.000 18.004 5.000 L 19.000 5.000 19.000 7.500 L 19.000 10.000 16.906 10.000 C 14.674 10.000,14.592 10.006,14.322 10.199 C 14.100 10.357,14.020 10.568,14.020 11.000 C 14.020 11.331,14.033 11.403,14.120 11.558 C 14.230 11.755,14.414 11.898,14.635 11.959 C 14.724 11.984,15.643 12.000,17.022 12.000 C 19.453 12.000,19.492 11.997,19.930 11.775 C 20.196 11.640,20.638 11.200,20.771 10.937 C 21.000 10.485,21.000 10.489,20.999 7.514 C 20.999 4.558,20.995 4.505,20.781 4.083 C 20.646 3.816,20.297 3.449,20.017 3.281 C 19.530 2.988,19.923 3.005,13.520 3.005 C 8.921 3.005,7.747 3.016,7.614 3.057 M5.300 6.720 L 5.578 7.000 5.289 7.000 L 5.000 7.000 5.000 6.720 C 5.000 6.566,5.005 6.440,5.011 6.440 C 5.017 6.440,5.147 6.566,5.300 6.720 M10.009 15.230 L 9.998 19.000 7.499 19.000 L 5.000 19.000 5.000 18.000 L 5.000 17.000 5.610 17.000 C 5.946 17.000,6.285 16.981,6.365 16.959 C 6.586 16.898,6.770 16.755,6.880 16.558 C 6.967 16.402,6.980 16.332,6.979 16.000 C 6.978 15.687,6.962 15.591,6.890 15.453 C 6.702 15.097,6.424 15.000,5.594 15.000 L 5.000 15.000 5.000 14.000 L 5.000 13.000 6.110 13.000 C 6.730 13.000,7.284 12.982,7.365 12.959 C 7.586 12.898,7.770 12.755,7.880 12.558 C 7.967 12.402,7.980 12.332,7.979 12.000 C 7.978 11.567,7.898 11.355,7.678 11.199 C 7.430 11.022,7.256 11.000,6.094 11.000 L 5.000 11.000 5.000 10.000 L 5.000 9.000 5.610 9.000 C 5.946 9.000,6.285 8.981,6.365 8.959 C 6.585 8.898,6.770 8.755,6.875 8.564 L 6.971 8.391 8.495 9.926 L 10.020 11.460 10.009 15.230 " stroke="none" fill="black" fill-rule="evenodd"></path></svg>