<svg xmlns="http://www.w3.org/2000/svg" width="24" height="24" viewBox="0 0 24 24" fill="none" stroke="currentColor" stroke-width="2" stroke-linecap="round" stroke-linejoin="round" class="icon icon-tabler icons-tabler-outline icon-tabler-device-watch-question"><path d="M8.614 2.057 C 8.377 2.131,8.212 2.261,8.109 2.453 C 8.024 2.613,8.019 2.674,8.000 3.873 L 7.980 5.126 7.720 5.217 C 6.350 5.697,5.370 6.816,5.083 8.227 C 5.003 8.618,5.000 8.755,5.000 12.000 C 5.000 15.243,5.003 15.382,5.082 15.772 C 5.359 17.128,6.281 18.231,7.540 18.711 C 7.716 18.778,7.891 18.843,7.928 18.854 C 7.989 18.874,7.997 18.992,8.008 20.128 C 8.020 21.379,8.020 21.380,8.120 21.558 C 8.230 21.755,8.414 21.898,8.635 21.959 C 8.832 22.014,15.168 22.014,15.365 21.959 C 15.586 21.898,15.770 21.755,15.880 21.558 L 15.980 21.380 15.980 20.000 C 15.980 18.642,15.979 18.617,15.889 18.450 C 15.773 18.232,15.551 18.086,15.248 18.029 L 15.008 17.983 14.982 17.786 C 14.948 17.531,14.834 17.309,14.678 17.199 C 14.402 17.002,14.373 17.000,11.462 17.000 C 8.515 17.000,8.514 17.000,8.083 16.781 C 7.816 16.646,7.449 16.297,7.281 16.017 C 6.999 15.548,7.005 15.636,7.005 12.000 C 7.005 9.047,7.011 8.715,7.073 8.477 C 7.201 7.988,7.543 7.546,8.014 7.265 C 8.459 6.998,8.431 7.000,12.028 7.002 C 15.632 7.005,15.549 6.999,16.017 7.281 C 16.294 7.448,16.618 7.787,16.772 8.071 C 16.968 8.433,16.999 8.698,17.000 10.020 C 17.000 10.698,17.018 11.283,17.041 11.365 C 17.148 11.750,17.437 11.962,17.896 11.991 C 18.381 12.022,18.699 11.882,18.880 11.558 L 18.980 11.380 18.992 10.018 C 19.004 8.774,18.998 8.621,18.923 8.254 C 18.630 6.816,17.659 5.700,16.280 5.217 L 16.020 5.126 16.000 3.873 C 15.981 2.674,15.976 2.613,15.891 2.453 C 15.785 2.256,15.622 2.131,15.371 2.055 C 15.109 1.977,8.866 1.979,8.614 2.057 M14.000 4.500 L 14.000 5.000 12.000 5.000 L 10.000 5.000 10.000 4.500 L 10.000 4.000 12.000 4.000 L 14.000 4.000 14.000 4.500 M18.440 14.058 C 18.297 14.089,18.102 14.142,18.008 14.176 C 17.203 14.466,16.442 15.217,16.440 15.722 C 16.439 16.052,16.769 16.475,17.174 16.663 C 17.548 16.838,17.807 16.775,18.193 16.419 C 18.501 16.134,18.650 16.048,18.893 16.015 C 19.121 15.984,19.458 16.082,19.640 16.234 C 19.988 16.522,20.086 17.066,19.863 17.470 C 19.668 17.823,19.453 17.951,18.970 18.001 C 18.245 18.076,17.960 18.406,18.012 19.110 C 18.069 19.867,18.595 20.142,19.591 19.936 C 20.218 19.807,20.691 19.543,21.146 19.069 C 21.488 18.713,21.648 18.463,21.797 18.055 C 22.409 16.374,21.489 14.571,19.780 14.102 C 19.448 14.010,18.765 13.988,18.440 14.058 M14.000 19.500 L 14.000 20.000 12.000 20.000 L 10.000 20.000 10.000 19.500 L 10.000 19.000 12.000 19.000 L 14.000 19.000 14.000 19.500 M18.614 21.057 C 18.221 21.180,18.039 21.435,18.009 21.906 C 17.962 22.621,18.306 23.000,19.000 23.000 C 19.698 23.000,20.043 22.616,19.989 21.900 C 19.963 21.563,19.859 21.327,19.678 21.199 C 19.414 21.010,18.957 20.950,18.614 21.057 " stroke="none" fill="black" fill-rule="evenodd"></path></svg>