<svg xmlns="http://www.w3.org/2000/svg" width="24" height="24" viewBox="0 0 24 24" fill="none" stroke="currentColor" stroke-width="2" stroke-linecap="round" stroke-linejoin="round" class="icon icon-tabler icons-tabler-outline icon-tabler-balloon"><path d="M11.540 1.023 C 10.715 1.102,10.250 1.200,9.620 1.427 C 7.452 2.207,5.779 4.052,5.223 6.275 C 5.054 6.948,5.021 7.257,5.022 8.160 C 5.023 9.917,5.346 11.582,5.988 13.140 C 6.783 15.069,8.078 16.606,9.556 17.374 C 9.977 17.593,10.748 17.880,10.915 17.880 C 11.018 17.880,11.028 18.014,10.945 18.290 C 10.872 18.533,10.707 18.740,10.484 18.872 L 10.300 18.980 8.380 19.002 C 6.481 19.024,6.457 19.026,6.139 19.123 C 5.182 19.419,4.415 20.186,4.122 21.140 C 4.018 21.479,3.972 22.113,4.035 22.344 C 4.146 22.749,4.428 22.961,4.896 22.991 C 5.592 23.035,5.918 22.762,5.996 22.072 C 6.044 21.653,6.106 21.497,6.301 21.301 C 6.588 21.014,6.525 21.022,8.660 20.998 C 10.524 20.976,10.588 20.973,10.860 20.884 C 12.065 20.489,12.901 19.448,12.987 18.236 C 13.009 17.917,13.020 17.880,13.091 17.880 C 13.253 17.880,14.030 17.590,14.444 17.374 C 15.895 16.620,17.205 15.081,17.980 13.220 C 18.452 12.087,18.771 10.820,18.927 9.460 C 18.994 8.875,18.994 7.392,18.926 6.980 C 18.675 5.443,18.008 4.126,16.941 3.059 C 15.884 2.002,14.540 1.315,13.102 1.098 C 12.726 1.041,11.813 0.997,11.540 1.023 M12.552 3.043 C 14.413 3.246,16.001 4.479,16.680 6.248 C 16.988 7.050,17.059 7.991,16.915 9.360 C 16.752 10.913,16.276 12.390,15.569 13.540 C 14.559 15.183,13.206 16.070,11.840 15.985 C 11.364 15.955,11.078 15.880,10.618 15.663 C 9.144 14.969,7.931 13.201,7.363 10.920 C 6.985 9.403,6.905 7.762,7.162 6.760 C 7.776 4.355,10.073 2.771,12.552 3.043 M11.614 5.055 C 11.220 5.184,11.039 5.437,11.009 5.900 C 10.965 6.591,11.248 6.929,11.933 6.999 C 12.340 7.041,12.503 7.105,12.699 7.301 C 12.895 7.497,12.959 7.660,13.001 8.067 C 13.068 8.718,13.370 9.000,14.000 9.000 C 14.428 9.000,14.713 8.856,14.880 8.558 C 14.971 8.396,14.980 8.338,14.979 7.920 C 14.978 7.555,14.959 7.398,14.885 7.160 C 14.583 6.181,13.809 5.405,12.861 5.129 C 12.459 5.013,11.851 4.976,11.614 5.055 " stroke="none" fill="black" fill-rule="evenodd"></path></svg>