<svg xmlns="http://www.w3.org/2000/svg" width="24" height="24" viewBox="0 0 24 24" fill="none" stroke="currentColor" stroke-width="2" stroke-linecap="round" stroke-linejoin="round" class="icon icon-tabler icons-tabler-outline icon-tabler-letter-j"><path d="M16.614 3.057 C 16.377 3.131,16.212 3.261,16.109 3.453 L 16.020 3.620 16.000 10.080 L 15.980 16.540 15.879 16.861 C 15.572 17.832,14.818 18.581,13.840 18.886 C 13.547 18.978,13.503 18.980,12.000 18.980 C 10.497 18.980,10.453 18.978,10.160 18.886 C 9.578 18.705,9.107 18.391,8.695 17.911 C 8.277 17.423,8.067 16.869,8.003 16.082 C 7.959 15.531,7.881 15.334,7.649 15.182 C 7.198 14.887,6.426 14.979,6.170 15.358 C 6.026 15.572,5.989 15.781,6.011 16.240 C 6.125 18.533,7.752 20.417,10.040 20.907 C 10.337 20.971,10.585 20.980,12.000 20.980 C 13.415 20.980,13.663 20.971,13.960 20.907 C 15.488 20.580,16.748 19.630,17.433 18.288 C 17.662 17.839,17.805 17.439,17.907 16.960 C 17.976 16.639,17.980 16.254,17.980 10.120 L 17.980 3.620 17.891 3.453 C 17.842 3.362,17.746 3.247,17.678 3.199 C 17.414 3.010,16.957 2.950,16.614 3.057 " stroke="none" fill="black" fill-rule="evenodd"></path></svg>