<svg xmlns="http://www.w3.org/2000/svg" width="24" height="24" viewBox="0 0 24 24" fill="none" stroke="currentColor" stroke-width="2" stroke-linecap="round" stroke-linejoin="round" class="icon icon-tabler icons-tabler-outline icon-tabler-brand-filezilla"><path d="M11.080 2.045 C 9.507 2.184,7.883 2.751,6.540 3.630 C 5.905 4.045,5.499 4.378,4.919 4.958 C 2.953 6.926,1.919 9.544,2.013 12.320 C 2.084 14.439,2.752 16.328,4.033 18.040 C 4.430 18.570,5.305 19.464,5.800 19.847 C 7.242 20.961,8.787 21.624,10.600 21.907 C 11.247 22.008,12.753 22.008,13.400 21.907 C 15.638 21.557,17.504 20.620,19.062 19.062 C 20.620 17.504,21.557 15.638,21.907 13.400 C 22.008 12.753,22.008 11.247,21.907 10.600 C 21.624 8.786,20.959 7.238,19.847 5.800 C 19.510 5.365,18.639 4.494,18.200 4.154 C 16.133 2.555,13.646 1.818,11.080 2.045 M12.734 4.041 C 14.574 4.216,16.228 4.976,17.554 6.256 C 20.043 8.658,20.702 12.394,19.183 15.499 C 18.749 16.387,18.223 17.105,17.496 17.801 C 16.876 18.394,16.262 18.819,15.471 19.200 C 13.267 20.265,10.733 20.265,8.529 19.200 C 7.477 18.693,6.612 18.015,5.847 17.100 C 3.848 14.711,3.440 11.302,4.816 8.500 C 6.162 5.760,8.867 4.049,11.920 4.005 C 12.129 4.003,12.495 4.019,12.734 4.041 M9.689 6.039 C 9.457 6.094,9.255 6.261,9.145 6.488 C 9.088 6.607,8.840 7.507,8.581 8.540 C 8.326 9.552,8.091 10.488,8.057 10.620 C 7.458 12.975,6.998 14.924,6.995 15.120 C 6.989 15.528,7.205 15.789,7.672 15.940 C 8.234 16.120,8.683 15.957,8.878 15.500 C 8.916 15.412,9.134 14.588,9.363 13.670 L 9.779 12.000 11.534 12.000 C 13.196 12.000,13.287 12.004,13.235 12.070 C 13.205 12.108,12.595 12.778,11.880 13.560 C 11.165 14.341,10.483 15.089,10.364 15.220 C 10.073 15.542,9.984 15.748,10.011 16.039 C 10.053 16.506,10.331 16.906,10.679 17.000 C 10.851 17.046,10.901 17.040,11.640 16.880 C 12.188 16.762,13.051 16.732,13.440 16.818 C 14.316 17.012,14.926 17.047,15.582 16.941 C 16.758 16.750,17.151 16.390,16.981 15.659 C 16.810 14.920,16.428 14.695,15.660 14.881 C 15.063 15.025,14.693 15.029,14.042 14.899 C 13.555 14.801,13.488 14.779,13.531 14.727 C 13.558 14.694,14.226 13.963,15.015 13.103 C 16.020 12.008,16.478 11.480,16.544 11.340 C 16.653 11.112,16.665 10.898,16.583 10.701 C 16.506 10.516,16.219 10.212,16.022 10.107 C 15.861 10.020,15.844 10.020,13.066 10.009 C 10.884 10.000,10.276 9.987,10.290 9.949 C 10.300 9.922,10.414 9.473,10.543 8.950 L 10.778 8.000 12.999 8.000 C 14.364 8.000,15.276 7.984,15.365 7.959 C 15.586 7.898,15.770 7.755,15.880 7.558 C 15.967 7.402,15.980 7.332,15.979 7.000 C 15.978 6.567,15.898 6.355,15.678 6.199 C 15.401 6.001,15.372 6.000,12.504 6.004 C 11.028 6.006,9.761 6.022,9.689 6.039 " stroke="none" fill="black" fill-rule="evenodd"></path></svg>