<svg xmlns="http://www.w3.org/2000/svg" width="24" height="24" viewBox="0 0 24 24" fill="none" stroke="currentColor" stroke-width="2" stroke-linecap="round" stroke-linejoin="round" class="icon icon-tabler icons-tabler-outline icon-tabler-file-type-docx"><path d="M6.499 2.043 C 5.393 2.228,4.488 3.024,4.114 4.140 L 4.020 4.420 4.009 8.311 C 4.001 10.892,4.011 12.253,4.039 12.355 C 4.144 12.747,4.433 12.961,4.896 12.991 C 5.381 13.022,5.699 12.882,5.880 12.558 L 5.980 12.380 6.000 8.560 C 6.022 4.280,5.999 4.597,6.321 4.283 C 6.622 3.992,6.514 4.000,9.947 4.000 L 13.000 4.000 13.000 5.632 C 13.000 7.399,13.010 7.507,13.225 7.930 C 13.361 8.199,13.801 8.639,14.070 8.775 C 14.493 8.990,14.601 9.000,16.368 9.000 L 18.000 9.000 18.000 10.610 C 18.000 11.565,18.017 12.279,18.041 12.365 C 18.148 12.750,18.437 12.962,18.896 12.991 C 19.381 13.022,19.699 12.882,19.880 12.558 L 19.980 12.380 19.980 10.000 L 19.980 7.620 19.890 7.452 C 19.841 7.360,19.724 7.231,19.630 7.165 C 19.498 7.073,15.263 2.838,14.719 2.254 C 14.473 1.991,14.626 2.000,10.463 2.005 C 8.393 2.007,6.609 2.025,6.499 2.043 M15.800 6.220 L 16.579 7.000 15.790 7.000 L 15.000 7.000 15.000 6.220 C 15.000 5.791,15.005 5.440,15.010 5.440 C 15.016 5.440,15.371 5.791,15.800 6.220 M19.320 13.997 C 19.144 14.051,18.886 14.197,18.739 14.326 C 18.478 14.556,18.403 14.820,18.504 15.160 C 18.539 15.279,18.863 15.967,19.224 16.688 L 19.880 18.000 19.224 19.312 C 18.863 20.033,18.539 20.721,18.504 20.840 C 18.367 21.299,18.572 21.664,19.100 21.905 C 19.565 22.118,19.909 22.065,20.196 21.739 C 20.266 21.658,20.471 21.297,20.651 20.936 C 20.832 20.575,20.988 20.280,20.999 20.280 C 21.011 20.280,21.178 20.594,21.370 20.977 C 21.656 21.544,21.755 21.704,21.905 21.836 C 22.188 22.085,22.467 22.103,22.907 21.902 C 23.428 21.664,23.632 21.296,23.496 20.840 C 23.461 20.721,23.137 20.033,22.776 19.312 L 22.120 18.000 22.776 16.688 C 23.137 15.967,23.461 15.279,23.496 15.160 C 23.630 14.708,23.443 14.365,22.915 14.098 C 22.495 13.885,22.098 13.937,21.822 14.243 C 21.743 14.330,21.531 14.698,21.350 15.061 C 21.169 15.423,21.012 15.720,21.000 15.720 C 20.988 15.720,20.832 15.425,20.651 15.064 C 20.471 14.703,20.265 14.340,20.192 14.257 C 19.971 14.006,19.628 13.903,19.320 13.997 M1.614 14.055 C 1.375 14.133,1.211 14.262,1.109 14.453 L 1.020 14.620 1.009 17.912 C 1.002 20.060,1.012 21.257,1.039 21.356 C 1.100 21.584,1.242 21.768,1.442 21.880 C 1.618 21.979,1.630 21.980,2.580 21.980 C 3.475 21.980,3.560 21.974,3.840 21.886 C 4.827 21.578,5.578 20.827,5.886 19.840 C 5.978 19.547,5.980 19.503,5.980 18.000 C 5.980 16.497,5.978 16.453,5.886 16.160 C 5.580 15.180,4.820 14.416,3.861 14.125 C 3.571 14.037,3.455 14.027,2.660 14.014 C 1.997 14.004,1.739 14.014,1.614 14.055 M8.960 14.062 C 8.605 14.138,8.107 14.393,7.832 14.639 C 7.532 14.907,7.239 15.352,7.118 15.722 L 7.020 16.020 7.020 18.020 L 7.020 20.020 7.131 20.320 C 7.399 21.044,7.964 21.608,8.680 21.868 C 8.948 21.965,9.035 21.976,9.500 21.976 C 9.965 21.976,10.052 21.965,10.320 21.868 C 11.036 21.608,11.601 21.044,11.869 20.320 L 11.980 20.020 11.980 18.000 L 11.980 15.980 11.869 15.680 C 11.430 14.486,10.192 13.798,8.960 14.062 M14.960 14.062 C 14.605 14.138,14.107 14.393,13.832 14.639 C 13.532 14.907,13.239 15.352,13.118 15.722 L 13.020 16.020 13.020 18.020 L 13.020 20.020 13.131 20.320 C 13.399 21.044,13.964 21.608,14.680 21.868 C 14.948 21.965,15.035 21.976,15.500 21.976 C 15.965 21.976,16.052 21.965,16.320 21.868 C 17.270 21.524,17.925 20.666,17.988 19.680 C 18.018 19.218,17.940 18.944,17.723 18.748 C 17.536 18.578,17.351 18.520,17.000 18.520 C 16.649 18.520,16.464 18.578,16.277 18.747 C 16.105 18.902,16.000 19.172,16.000 19.457 C 15.999 19.989,15.350 20.194,15.078 19.748 C 15.004 19.627,15.000 19.536,15.000 18.008 C 15.000 16.228,14.999 16.232,15.252 16.078 C 15.591 15.872,16.000 16.130,16.000 16.551 C 16.000 16.952,16.204 17.283,16.537 17.422 C 16.750 17.510,17.249 17.511,17.460 17.423 C 17.864 17.254,18.027 16.913,17.988 16.320 C 17.891 14.816,16.450 13.742,14.960 14.062 M3.334 16.064 C 3.596 16.153,3.861 16.427,3.939 16.690 C 4.023 16.972,4.028 19.015,3.945 19.290 C 3.837 19.648,3.527 19.926,3.170 19.983 L 3.000 20.010 3.000 18.005 C 3.000 15.736,2.965 15.938,3.334 16.064 M9.724 16.062 C 9.790 16.096,9.879 16.182,9.922 16.252 C 9.996 16.373,10.000 16.464,10.000 18.000 C 10.000 19.536,9.996 19.627,9.922 19.748 C 9.722 20.076,9.278 20.076,9.078 19.748 C 9.004 19.627,9.000 19.536,9.000 18.008 C 9.000 16.228,8.999 16.232,9.252 16.078 C 9.406 15.984,9.563 15.979,9.724 16.062 " stroke="none" fill="black" fill-rule="evenodd"></path></svg>