<svg xmlns="http://www.w3.org/2000/svg" width="24" height="24" viewBox="0 0 24 24" fill="none" stroke="currentColor" stroke-width="2" stroke-linecap="round" stroke-linejoin="round" class="icon icon-tabler icons-tabler-outline icon-tabler-border-corner-pill"><path d="M14.240 3.026 C 13.095 3.134,12.354 3.266,11.580 3.501 C 9.053 4.265,6.938 5.750,5.351 7.873 C 4.055 9.607,3.236 11.774,3.043 13.980 C 2.988 14.611,2.986 20.167,3.041 20.365 C 3.148 20.750,3.437 20.962,3.896 20.991 C 4.381 21.022,4.699 20.882,4.880 20.558 L 4.980 20.380 5.003 17.200 C 5.028 13.852,5.026 13.885,5.224 12.900 C 5.315 12.446,5.537 11.732,5.741 11.233 C 6.260 9.966,6.956 8.923,7.940 7.940 C 9.630 6.249,11.767 5.251,14.140 5.043 C 14.418 5.019,15.801 5.001,17.420 5.000 C 19.171 5.000,20.274 4.984,20.365 4.959 C 20.586 4.898,20.770 4.755,20.880 4.558 C 20.967 4.402,20.980 4.332,20.979 4.000 C 20.978 3.567,20.898 3.355,20.678 3.199 C 20.399 3.000,20.390 3.000,17.284 3.006 C 15.687 3.010,14.317 3.019,14.240 3.026 " stroke="none" fill="black" fill-rule="evenodd"></path></svg>