<svg xmlns="http://www.w3.org/2000/svg" width="24" height="24" viewBox="0 0 24 24" fill="none" stroke="currentColor" stroke-width="2" stroke-linecap="round" stroke-linejoin="round" class="icon icon-tabler icons-tabler-outline icon-tabler-planet-off"><path d="M2.626 2.045 C 2.257 2.239,1.951 2.673,1.951 3.000 C 1.951 3.249,2.066 3.461,2.387 3.801 C 2.532 3.956,2.644 4.087,2.636 4.093 C 2.627 4.099,2.530 4.126,2.420 4.153 C 1.454 4.391,0.883 5.245,1.030 6.233 C 1.196 7.347,2.011 8.627,3.572 10.226 L 4.124 10.791 4.082 11.200 C 3.842 13.536,4.699 15.906,6.396 17.604 C 8.200 19.408,10.723 20.243,13.220 19.862 C 14.063 19.734,14.890 19.470,15.668 19.081 L 16.207 18.810 16.533 18.948 C 16.713 19.024,17.139 19.185,17.480 19.306 L 18.100 19.526 19.280 20.698 C 20.051 21.464,20.522 21.902,20.637 21.960 C 20.989 22.137,21.354 22.048,21.701 21.701 C 22.048 21.355,22.137 20.990,21.961 20.637 C 21.897 20.509,19.676 18.263,13.966 12.548 C 3.570 2.145,3.571 2.145,3.372 2.045 C 3.152 1.934,2.835 1.934,2.626 2.045 M11.360 4.025 C 11.305 4.033,11.098 4.060,10.900 4.084 C 10.420 4.143,9.832 4.287,9.324 4.470 C 8.491 4.770,8.258 5.211,8.572 5.893 C 8.841 6.479,9.207 6.616,9.880 6.383 C 11.063 5.973,12.086 5.901,13.278 6.144 C 15.289 6.554,17.024 8.099,17.676 10.060 C 18.027 11.118,18.102 12.575,17.839 13.242 C 17.796 13.353,17.760 13.501,17.760 13.573 C 17.760 13.645,17.704 13.864,17.635 14.062 C 17.486 14.486,17.472 14.762,17.588 14.987 C 17.823 15.441,18.686 15.706,19.054 15.436 L 19.167 15.352 19.288 15.466 C 19.510 15.675,20.227 16.555,20.455 16.898 C 20.809 17.430,20.956 17.753,21.000 18.097 C 21.045 18.455,21.110 18.621,21.263 18.773 C 21.441 18.950,21.623 19.010,21.980 19.013 C 22.442 19.015,22.735 18.869,22.909 18.549 C 22.964 18.448,22.979 18.328,22.977 18.000 C 22.975 17.637,22.958 17.530,22.849 17.212 C 22.496 16.181,21.775 15.152,20.466 13.812 L 19.912 13.244 19.956 12.916 C 20.011 12.505,20.012 11.614,19.958 11.140 C 19.795 9.713,19.266 8.359,18.435 7.240 C 18.136 6.837,17.453 6.123,17.060 5.801 C 15.903 4.856,14.437 4.238,12.920 4.059 C 12.471 4.006,11.621 3.988,11.360 4.025 M3.840 6.099 C 4.071 6.130,4.395 6.186,4.560 6.223 C 4.859 6.291,4.861 6.293,5.269 6.696 L 5.679 7.100 5.433 7.455 C 5.298 7.651,5.094 7.990,4.979 8.209 L 4.771 8.607 4.440 8.233 C 3.850 7.567,3.390 6.920,3.159 6.431 C 2.991 6.076,2.997 6.040,3.230 6.041 C 3.334 6.041,3.609 6.067,3.840 6.099 M10.640 12.065 C 12.565 13.993,14.122 15.561,14.100 15.550 C 13.298 15.144,11.039 13.727,9.760 12.827 C 8.756 12.121,7.624 11.240,6.727 10.465 C 6.293 10.090,6.301 10.133,6.561 9.543 C 6.717 9.189,7.074 8.560,7.118 8.560 C 7.130 8.560,8.715 10.137,10.640 12.065 M6.660 13.007 C 8.621 14.553,10.749 15.967,13.032 17.242 C 13.457 17.479,13.787 17.683,13.766 17.696 C 13.745 17.709,13.578 17.755,13.394 17.798 C 11.470 18.249,9.377 17.682,7.946 16.320 C 7.031 15.450,6.422 14.368,6.187 13.199 C 6.073 12.633,6.064 12.537,6.125 12.585 C 6.155 12.609,6.396 12.799,6.660 13.007 " stroke="none" fill="black" fill-rule="evenodd"></path></svg>