<svg xmlns="http://www.w3.org/2000/svg" width="24" height="24" viewBox="0 0 24 24" fill="none" stroke="currentColor" stroke-width="2" stroke-linecap="round" stroke-linejoin="round" class="icon icon-tabler icons-tabler-outline icon-tabler-brand-onedrive"><path d="M11.220 4.047 C 9.813 4.206,8.388 4.831,7.235 5.795 C 6.801 6.158,6.590 6.381,6.192 6.900 C 6.040 7.098,5.891 7.290,5.862 7.326 C 5.832 7.362,5.730 7.404,5.634 7.420 C 5.307 7.474,4.700 7.688,4.260 7.905 C 2.341 8.851,1.114 10.739,1.011 12.903 C 0.938 14.458,1.552 16.086,2.627 17.183 C 3.484 18.058,4.380 18.564,5.605 18.865 L 6.060 18.977 12.240 18.990 C 16.523 18.999,18.524 18.990,18.760 18.960 C 20.546 18.732,22.045 17.572,22.674 15.931 C 23.141 14.714,23.091 13.348,22.538 12.179 C 22.137 11.331,21.393 10.531,20.579 10.071 C 20.279 9.901,19.788 9.696,19.516 9.626 L 19.309 9.573 19.140 9.077 C 18.930 8.460,18.760 8.089,18.462 7.600 C 17.545 6.094,16.076 4.921,14.435 4.384 C 13.448 4.061,12.227 3.933,11.220 4.047 M12.707 6.041 C 13.431 6.137,13.966 6.300,14.575 6.611 C 16.089 7.384,17.142 8.810,17.438 10.491 C 17.566 11.215,17.722 11.358,18.497 11.466 C 18.984 11.533,19.314 11.637,19.618 11.821 C 20.127 12.127,20.502 12.541,20.741 13.060 C 20.934 13.479,20.981 13.718,20.975 14.260 C 20.971 14.660,20.953 14.794,20.866 15.060 C 20.724 15.498,20.513 15.839,20.176 16.176 C 19.843 16.509,19.505 16.720,19.060 16.871 L 18.740 16.980 12.680 16.992 C 8.343 17.001,6.530 16.991,6.304 16.959 C 5.468 16.840,4.572 16.366,4.017 15.748 C 2.365 13.912,2.798 11.063,4.917 9.817 C 5.322 9.579,5.789 9.417,6.338 9.325 C 6.998 9.215,7.079 9.159,7.497 8.528 C 7.876 7.956,8.185 7.600,8.587 7.271 C 9.748 6.320,11.305 5.856,12.707 6.041 " stroke="none" fill="black" fill-rule="evenodd"></path></svg>