<svg xmlns="http://www.w3.org/2000/svg" width="24" height="24" viewBox="0 0 24 24" fill="none" stroke="currentColor" stroke-width="2" stroke-linecap="round" stroke-linejoin="round" class="icon icon-tabler icons-tabler-outline icon-tabler-feather-off"><path d="M2.626 2.045 C 2.420 2.154,2.146 2.433,2.038 2.644 C 1.924 2.867,1.924 3.132,2.039 3.363 C 2.102 3.488,3.008 4.422,5.104 6.520 L 8.080 9.501 6.770 10.805 C 6.049 11.522,5.399 12.150,5.324 12.201 C 5.165 12.309,4.958 12.727,4.963 12.929 C 4.965 13.001,4.975 14.075,4.985 15.317 L 5.003 17.573 4.067 18.517 C 3.069 19.521,2.951 19.679,2.951 20.000 C 2.951 20.477,3.523 21.049,4.000 21.049 C 4.321 21.049,4.479 20.931,5.483 19.933 L 6.427 18.997 8.683 19.015 C 9.925 19.025,10.999 19.035,11.071 19.037 C 11.258 19.041,11.693 18.834,11.784 18.696 C 11.826 18.634,12.454 17.983,13.179 17.251 L 14.499 15.920 17.479 18.896 C 19.578 20.991,20.512 21.898,20.637 21.961 C 20.990 22.137,21.354 22.048,21.701 21.701 C 22.047 21.355,22.136 20.990,21.961 20.637 C 21.839 20.392,3.616 2.165,3.372 2.044 C 3.152 1.934,2.834 1.935,2.626 2.045 M15.880 3.042 C 15.190 3.127,14.339 3.465,13.800 3.868 C 13.657 3.974,13.472 4.104,13.388 4.155 C 13.304 4.207,13.207 4.297,13.171 4.355 C 13.135 4.413,12.553 5.018,11.878 5.700 C 11.115 6.470,10.617 7.004,10.565 7.108 C 10.390 7.455,10.482 7.827,10.827 8.173 C 11.168 8.514,11.515 8.602,11.873 8.440 C 11.975 8.393,12.238 8.173,12.523 7.894 L 13.000 7.427 13.000 8.823 C 13.000 9.636,13.017 10.281,13.041 10.365 C 13.102 10.586,13.245 10.770,13.442 10.880 L 13.620 10.980 15.095 10.992 L 16.570 11.004 16.093 11.492 C 15.613 11.984,15.487 12.169,15.451 12.438 C 15.388 12.906,16.116 13.623,16.578 13.548 C 16.881 13.499,17.033 13.373,18.320 12.112 C 19.035 11.411,19.674 10.787,19.740 10.725 C 19.806 10.663,19.896 10.556,19.940 10.487 C 19.984 10.418,20.105 10.238,20.210 10.086 C 21.249 8.574,21.258 6.562,20.233 5.000 C 19.998 4.643,19.455 4.088,19.098 3.841 C 18.569 3.476,17.995 3.228,17.383 3.102 C 16.990 3.021,16.279 2.993,15.880 3.042 M17.240 5.116 C 17.987 5.352,18.652 6.017,18.882 6.757 C 19.072 7.369,19.012 8.116,18.729 8.678 L 18.576 8.980 16.788 8.990 L 14.999 9.001 15.010 7.212 L 15.020 5.424 15.324 5.271 C 15.491 5.186,15.752 5.091,15.904 5.060 C 16.277 4.982,16.900 5.008,17.240 5.116 M10.290 12.290 L 10.000 12.579 10.000 12.000 L 10.000 11.421 10.290 11.710 L 10.579 12.000 10.290 12.290 M7.501 15.079 L 7.000 15.580 7.000 14.500 L 7.000 13.421 7.490 12.930 L 7.980 12.439 7.991 13.508 L 8.001 14.578 7.501 15.079 M12.300 13.720 L 12.578 14.000 12.000 14.000 L 11.422 14.000 11.700 13.720 C 11.853 13.566,11.988 13.440,12.000 13.440 C 12.012 13.440,12.147 13.566,12.300 13.720 M11.080 16.500 L 10.581 17.000 9.501 17.000 L 8.421 17.000 8.920 16.500 L 9.419 16.000 10.499 16.000 L 11.579 16.000 11.080 16.500 " stroke="none" fill="black" fill-rule="evenodd"></path></svg>