<svg xmlns="http://www.w3.org/2000/svg" width="24" height="24" viewBox="0 0 24 24" fill="none" stroke="currentColor" stroke-width="2" stroke-linecap="round" stroke-linejoin="round" class="icon icon-tabler icons-tabler-outline icon-tabler-tag-off"><path d="M2.626 2.045 C 2.420 2.154,2.146 2.433,2.038 2.644 C 1.857 3.000,1.945 3.326,2.338 3.750 C 2.541 3.970,2.552 3.993,2.499 4.069 C 2.381 4.238,2.156 4.866,2.079 5.243 C 2.004 5.611,2.000 5.795,2.001 8.566 C 2.001 11.743,2.002 11.749,2.223 12.306 C 2.283 12.457,2.404 12.688,2.491 12.820 C 2.664 13.081,10.434 20.896,10.863 21.241 C 11.195 21.507,11.629 21.734,12.060 21.865 C 12.382 21.963,12.482 21.975,13.000 21.975 C 13.518 21.975,13.618 21.963,13.940 21.865 C 14.371 21.734,14.805 21.507,15.137 21.241 C 15.271 21.133,15.857 20.567,16.439 19.983 L 17.499 18.921 18.979 20.396 C 19.973 21.386,20.518 21.900,20.637 21.960 C 20.989 22.137,21.354 22.048,21.701 21.701 C 22.047 21.355,22.136 20.990,21.961 20.637 C 21.839 20.392,3.616 2.165,3.372 2.044 C 3.152 1.934,2.834 1.935,2.626 2.045 M6.614 2.056 C 6.222 2.181,6.039 2.436,6.009 2.900 C 5.978 3.381,6.119 3.699,6.442 3.880 L 6.620 3.980 9.040 4.000 C 11.432 4.020,11.462 4.021,11.620 4.107 C 11.713 4.158,13.457 5.875,15.784 8.207 C 20.291 12.725,19.975 12.364,19.977 13.000 C 19.979 13.520,19.890 13.676,19.188 14.395 C 18.874 14.717,18.582 15.052,18.539 15.140 C 18.441 15.343,18.439 15.653,18.534 15.848 C 18.628 16.038,18.962 16.372,19.152 16.466 C 19.346 16.561,19.657 16.559,19.860 16.461 C 20.042 16.373,20.949 15.504,21.242 15.137 C 21.508 14.804,21.734 14.369,21.865 13.940 C 21.963 13.618,21.975 13.518,21.975 13.000 C 21.975 12.482,21.963 12.382,21.865 12.060 C 21.734 11.629,21.507 11.195,21.241 10.863 C 20.957 10.510,13.094 2.673,12.880 2.531 C 12.621 2.358,12.341 2.223,12.020 2.115 L 11.740 2.022 9.260 2.013 C 7.290 2.005,6.746 2.014,6.614 2.056 M5.046 6.470 L 5.991 7.420 6.013 7.650 C 6.037 7.906,6.176 8.243,6.347 8.460 C 6.575 8.749,7.081 9.000,7.437 9.000 C 7.574 9.000,7.777 9.197,11.831 13.251 L 16.081 17.501 14.950 18.628 C 13.630 19.945,13.580 19.980,13.000 19.980 C 12.369 19.980,12.724 20.291,8.207 15.784 C 5.875 13.457,4.158 11.713,4.107 11.620 C 4.020 11.461,4.020 11.449,4.008 8.700 C 3.996 6.097,4.008 5.520,4.073 5.520 C 4.088 5.520,4.526 5.947,5.046 6.470 " stroke="none" fill="black" fill-rule="evenodd"></path></svg>