<svg xmlns="http://www.w3.org/2000/svg" width="24" height="24" viewBox="0 0 24 24" fill="none" stroke="currentColor" stroke-width="2" stroke-linecap="round" stroke-linejoin="round" class="icon icon-tabler icons-tabler-outline icon-tabler-droplet-cancel"><path d="M11.491 2.060 C 10.998 2.168,10.492 2.465,10.176 2.833 C 10.103 2.920,8.915 4.662,7.537 6.705 C 5.491 9.740,4.986 10.515,4.779 10.940 C 4.004 12.530,3.807 14.240,4.202 15.952 C 4.833 18.690,6.978 20.897,9.780 21.691 C 10.580 21.918,11.336 22.016,12.107 21.993 C 12.557 21.979,12.694 21.960,12.844 21.893 C 13.188 21.738,13.341 21.420,13.312 20.925 C 13.293 20.612,13.223 20.420,13.065 20.246 C 12.886 20.049,12.786 20.026,11.960 19.995 C 11.104 19.963,10.648 19.888,10.023 19.675 C 8.351 19.106,7.021 17.857,6.387 16.260 C 5.821 14.835,5.902 13.149,6.604 11.753 C 6.828 11.307,11.656 4.155,11.790 4.070 C 11.850 4.032,11.945 4.000,12.000 4.000 C 12.055 4.000,12.150 4.032,12.211 4.070 C 12.313 4.134,16.991 11.025,17.287 11.548 C 17.352 11.662,17.494 11.958,17.603 12.206 C 17.809 12.677,17.970 12.891,18.189 12.985 C 18.566 13.147,19.269 12.917,19.510 12.552 C 19.646 12.347,19.658 12.016,19.542 11.660 C 19.325 10.994,18.982 10.442,16.421 6.640 C 14.645 4.003,13.835 2.833,13.673 2.673 C 13.139 2.144,12.253 1.895,11.491 2.060 M18.358 15.061 C 17.230 15.237,16.143 15.974,15.569 16.953 C 14.320 19.083,15.233 21.785,17.512 22.704 C 19.558 23.528,21.877 22.538,22.704 20.488 C 23.090 19.530,23.090 18.469,22.705 17.516 C 22.172 16.197,21.001 15.269,19.605 15.058 C 19.144 14.989,18.816 14.990,18.358 15.061 M19.470 17.057 C 19.485 17.071,18.954 17.626,18.290 18.290 C 17.626 18.954,17.072 19.486,17.059 19.472 C 17.045 19.459,17.024 19.314,17.012 19.150 C 16.940 18.202,17.563 17.318,18.477 17.071 C 18.735 17.001,19.405 16.991,19.470 17.057 M20.982 18.784 C 21.047 19.396,20.844 19.961,20.398 20.410 C 20.104 20.705,19.779 20.885,19.404 20.963 C 19.181 21.010,18.584 20.997,18.532 20.945 C 18.504 20.918,20.872 18.520,20.927 18.520 C 20.941 18.520,20.966 18.639,20.982 18.784 " stroke="none" fill="black" fill-rule="evenodd"></path></svg>