<svg xmlns="http://www.w3.org/2000/svg" width="24" height="24" viewBox="0 0 24 24" fill="none" stroke="currentColor" stroke-width="2" stroke-linecap="round" stroke-linejoin="round" class="icon icon-tabler icons-tabler-outline icon-tabler-brand-planetscale"><path d="M11.320 2.026 C 10.344 2.121,9.815 2.217,9.136 2.422 C 7.613 2.883,6.256 3.676,5.071 4.799 C 3.581 6.210,2.541 8.147,2.161 10.214 C 1.912 11.573,1.962 13.108,2.301 14.445 C 3.004 17.217,4.971 19.680,7.452 20.895 C 8.048 21.187,8.194 21.221,8.491 21.135 C 8.693 21.076,8.908 20.866,14.853 14.927 C 18.681 11.103,21.037 8.720,21.089 8.620 C 21.234 8.342,21.207 8.074,20.985 7.615 C 19.594 4.737,16.794 2.646,13.660 2.143 C 12.929 2.025,11.872 1.973,11.320 2.026 M13.240 4.101 C 15.142 4.385,17.003 5.455,18.213 6.960 C 18.474 7.286,18.920 7.952,18.920 8.019 C 18.920 8.074,8.072 18.920,8.016 18.920 C 7.960 18.920,7.120 18.366,7.120 18.329 C 7.120 18.314,8.414 17.005,9.996 15.421 C 12.018 13.395,12.898 12.487,12.961 12.363 C 13.137 12.010,13.048 11.646,12.701 11.299 C 12.361 10.959,11.980 10.868,11.628 11.044 C 11.515 11.101,10.514 12.073,8.579 14.004 C 6.995 15.586,5.687 16.880,5.672 16.880 C 5.605 16.880,5.044 15.967,4.799 15.460 C 4.232 14.284,4.022 13.344,4.024 12.000 C 4.025 11.122,4.072 10.732,4.264 9.980 C 5.087 6.764,7.914 4.357,11.240 4.041 C 11.742 3.994,12.716 4.023,13.240 4.101 M20.740 10.626 C 20.552 10.682,20.257 10.969,15.670 15.553 C 12.842 18.379,10.771 20.478,10.732 20.560 C 10.645 20.740,10.617 21.187,10.681 21.386 C 10.755 21.618,10.910 21.800,11.116 21.895 C 11.285 21.973,11.365 21.980,12.120 21.978 C 12.691 21.977,13.080 21.955,13.400 21.906 C 17.013 21.356,19.975 19.015,21.297 15.667 C 21.731 14.566,21.951 13.503,21.988 12.320 C 22.017 11.400,21.977 11.213,21.688 10.925 C 21.378 10.616,21.083 10.523,20.740 10.626 M19.456 14.886 C 19.020 15.996,18.395 16.930,17.535 17.761 C 16.892 18.381,16.279 18.811,15.509 19.181 C 15.131 19.363,14.528 19.600,14.443 19.600 C 14.431 19.600,15.581 18.439,17.000 17.020 C 18.419 15.601,19.585 14.456,19.592 14.475 C 19.598 14.495,19.537 14.680,19.456 14.886 " stroke="none" fill="black" fill-rule="evenodd"></path></svg>