<svg xmlns="http://www.w3.org/2000/svg" width="24" height="24" viewBox="0 0 24 24" fill="none" stroke="currentColor" stroke-width="2" stroke-linecap="round" stroke-linejoin="round" class="icon icon-tabler icons-tabler-outline icon-tabler-signal-5g"><path d="M5.614 7.057 C 5.377 7.131,5.212 7.261,5.109 7.453 C 5.020 7.619,5.020 7.629,5.009 9.911 C 5.001 11.392,5.012 12.256,5.039 12.355 C 5.100 12.583,5.242 12.768,5.442 12.880 L 5.620 12.980 7.310 12.992 L 9.000 13.003 9.000 14.002 L 9.000 15.000 8.005 15.000 L 7.010 15.000 6.983 14.794 C 6.930 14.393,6.743 14.167,6.371 14.055 C 5.861 13.902,5.305 14.077,5.113 14.453 C 5.008 14.659,4.973 15.095,5.037 15.404 C 5.148 15.941,5.595 16.534,6.070 16.775 C 6.479 16.982,6.632 17.000,8.000 17.000 C 9.368 17.000,9.521 16.982,9.930 16.775 C 10.196 16.640,10.638 16.200,10.771 15.937 C 10.979 15.527,11.000 15.352,10.999 14.014 C 10.999 12.682,10.974 12.463,10.781 12.083 C 10.646 11.816,10.297 11.449,10.017 11.281 C 9.609 11.035,9.405 11.005,8.130 11.002 L 7.000 11.000 7.000 10.000 L 7.000 9.000 8.610 9.000 C 9.565 9.000,10.279 8.983,10.365 8.959 C 10.586 8.898,10.770 8.755,10.880 8.558 C 10.967 8.402,10.980 8.332,10.979 8.000 C 10.978 7.567,10.898 7.355,10.678 7.199 C 10.406 7.005,10.336 7.000,7.984 7.003 C 6.293 7.005,5.741 7.017,5.614 7.057 M15.499 7.043 C 14.383 7.230,13.461 8.048,13.114 9.160 L 13.020 9.460 13.020 12.000 L 13.020 14.540 13.114 14.840 C 13.419 15.817,14.158 16.562,15.140 16.884 C 15.405 16.971,15.492 16.976,16.804 16.991 C 17.715 17.001,18.243 16.992,18.348 16.963 C 18.583 16.900,18.767 16.760,18.880 16.558 L 18.980 16.380 18.980 14.000 L 18.980 11.620 18.891 11.453 C 18.785 11.256,18.622 11.131,18.371 11.055 C 18.117 10.979,16.883 10.979,16.629 11.055 C 16.224 11.177,16.040 11.428,16.009 11.900 C 15.968 12.532,16.251 12.922,16.797 12.987 L 17.000 13.011 17.000 14.009 L 17.000 15.007 16.350 14.993 C 15.728 14.981,15.692 14.975,15.516 14.872 C 15.415 14.813,15.284 14.700,15.225 14.623 C 14.999 14.327,15.000 14.334,15.000 12.002 C 15.000 9.564,14.995 9.612,15.306 9.300 C 15.588 9.018,15.695 9.000,17.057 9.000 C 17.713 9.000,18.283 8.982,18.365 8.959 C 18.586 8.898,18.770 8.755,18.880 8.558 C 18.967 8.402,18.980 8.332,18.979 8.000 C 18.978 7.567,18.898 7.355,18.678 7.199 C 18.423 7.017,18.269 7.000,16.944 7.005 C 16.260 7.007,15.609 7.025,15.499 7.043 " stroke="none" fill="black" fill-rule="evenodd"></path></svg>