<svg xmlns="http://www.w3.org/2000/svg" width="24" height="24" viewBox="0 0 24 24" fill="none" stroke="currentColor" stroke-width="2" stroke-linecap="round" stroke-linejoin="round" class="icon icon-tabler icons-tabler-outline icon-tabler-location-search"><path d="M20.896 2.000 C 20.673 2.046,2.794 8.499,2.529 8.630 C 2.261 8.762,1.946 9.094,1.808 9.390 C 1.715 9.589,1.701 9.672,1.700 10.001 C 1.700 10.350,1.711 10.404,1.829 10.644 C 2.089 11.173,2.005 11.122,5.825 13.033 L 9.260 14.752 9.726 15.688 C 9.982 16.203,10.242 16.684,10.304 16.758 C 10.445 16.924,10.688 17.038,10.908 17.039 C 11.290 17.041,11.807 16.737,11.960 16.420 C 12.126 16.078,12.086 15.942,11.428 14.620 C 11.111 13.981,10.801 13.400,10.740 13.327 C 10.654 13.225,9.946 12.854,7.505 11.633 C 4.745 10.252,4.392 10.065,4.480 10.032 C 5.269 9.734,19.297 4.684,19.307 4.693 C 19.314 4.701,18.825 6.078,18.220 7.753 C 17.615 9.429,17.101 10.885,17.078 10.988 C 16.960 11.516,17.336 11.958,18.009 12.081 C 18.407 12.155,18.741 11.991,18.923 11.634 C 19.098 11.290,21.973 3.254,21.990 3.060 C 22.021 2.703,21.771 2.209,21.484 2.063 C 21.337 1.988,21.088 1.961,20.896 2.000 M17.358 14.061 C 16.230 14.237,15.143 14.974,14.569 15.953 C 13.320 18.083,14.233 20.785,16.512 21.704 C 17.475 22.092,18.529 22.091,19.498 21.700 C 19.691 21.622,19.887 21.532,19.933 21.500 C 20.012 21.444,20.052 21.476,20.738 22.155 C 21.512 22.921,21.693 23.049,22.000 23.049 C 22.477 23.049,23.049 22.477,23.049 22.000 C 23.049 21.693,22.921 21.512,22.155 20.738 C 21.476 20.052,21.444 20.012,21.500 19.933 C 21.619 19.762,21.844 19.135,21.921 18.757 C 22.070 18.024,21.994 17.230,21.705 16.516 C 21.172 15.197,20.001 14.269,18.605 14.058 C 18.144 13.989,17.816 13.990,17.358 14.061 M18.523 16.073 C 19.262 16.266,19.850 16.924,19.967 17.690 C 20.067 18.343,19.873 18.933,19.403 19.404 C 19.002 19.807,18.547 20.000,18.000 20.000 C 17.485 20.000,17.038 19.822,16.653 19.465 C 15.323 18.229,16.189 16.005,18.000 16.005 C 18.143 16.005,18.378 16.036,18.523 16.073 " stroke="none" fill="black" fill-rule="evenodd"></path></svg>