<svg xmlns="http://www.w3.org/2000/svg" width="24" height="24" viewBox="0 0 24 24" fill="none" stroke="currentColor" stroke-width="2" stroke-linecap="round" stroke-linejoin="round" class="icon icon-tabler icons-tabler-outline icon-tabler-box-align-right"><path d="M3.638 3.052 C 3.232 3.167,3.040 3.427,3.009 3.900 C 2.965 4.581,3.268 4.951,3.904 4.992 C 4.616 5.037,5.000 4.690,5.000 4.003 C 4.999 3.380,4.703 3.058,4.095 3.018 C 3.934 3.008,3.744 3.022,3.638 3.052 M8.638 3.052 C 8.232 3.167,8.040 3.427,8.009 3.900 C 7.965 4.581,8.268 4.951,8.904 4.992 C 9.616 5.037,10.000 4.690,10.000 4.003 C 9.999 3.380,9.703 3.058,9.095 3.018 C 8.934 3.008,8.744 3.022,8.638 3.052 M13.638 3.055 C 13.391 3.121,13.216 3.253,13.109 3.453 L 13.020 3.620 13.010 11.914 C 13.003 17.391,13.013 20.260,13.040 20.358 C 13.100 20.584,13.243 20.769,13.442 20.880 L 13.620 20.980 16.419 20.991 C 18.276 20.998,19.286 20.988,19.421 20.960 C 19.941 20.852,20.538 20.398,20.775 19.931 C 21.010 19.465,20.999 19.871,20.997 11.980 C 20.996 5.268,20.990 4.721,20.927 4.477 C 20.743 3.773,20.097 3.174,19.383 3.043 C 19.030 2.979,13.881 2.989,13.638 3.055 M19.000 12.000 L 19.000 19.000 17.000 19.000 L 15.000 19.000 15.000 12.000 L 15.000 5.000 17.000 5.000 L 19.000 5.000 19.000 12.000 M3.638 8.052 C 3.232 8.167,3.040 8.427,3.009 8.900 C 2.965 9.581,3.268 9.951,3.904 9.992 C 4.616 10.037,5.000 9.690,5.000 9.003 C 4.999 8.380,4.703 8.058,4.095 8.018 C 3.934 8.008,3.744 8.022,3.638 8.052 M3.638 14.052 C 3.232 14.167,3.040 14.427,3.009 14.900 C 2.965 15.581,3.268 15.951,3.904 15.992 C 4.616 16.037,5.000 15.690,5.000 15.003 C 4.999 14.380,4.703 14.058,4.095 14.018 C 3.934 14.008,3.744 14.022,3.638 14.052 M3.638 19.052 C 3.232 19.167,3.040 19.427,3.009 19.900 C 2.965 20.581,3.268 20.951,3.904 20.992 C 4.616 21.037,5.000 20.690,5.000 20.003 C 4.999 19.380,4.703 19.058,4.095 19.018 C 3.934 19.008,3.744 19.022,3.638 19.052 M8.638 19.052 C 8.232 19.167,8.040 19.427,8.009 19.900 C 7.965 20.581,8.268 20.951,8.904 20.992 C 9.616 21.037,10.000 20.690,10.000 20.003 C 9.999 19.380,9.703 19.058,9.095 19.018 C 8.934 19.008,8.744 19.022,8.638 19.052 " stroke="none" fill="black" fill-rule="evenodd"></path></svg>