<svg xmlns="http://www.w3.org/2000/svg" width="24" height="24" viewBox="0 0 24 24" fill="none" stroke="currentColor" stroke-width="2" stroke-linecap="round" stroke-linejoin="round" class="icon icon-tabler icons-tabler-outline icon-tabler-route-scan"><path d="M5.499 3.043 C 4.392 3.229,3.479 4.033,3.116 5.140 C 3.029 5.405,3.024 5.492,3.009 6.804 C 2.999 7.715,3.008 8.243,3.037 8.348 C 3.144 8.748,3.430 8.961,3.896 8.991 C 4.381 9.022,4.699 8.882,4.880 8.558 C 4.980 8.381,4.980 8.376,5.001 7.060 C 5.024 5.577,5.025 5.571,5.321 5.283 C 5.593 5.020,5.714 5.000,7.057 5.000 C 7.713 5.000,8.283 4.982,8.365 4.959 C 8.586 4.898,8.770 4.755,8.880 4.558 C 8.967 4.402,8.980 4.332,8.979 4.000 C 8.978 3.567,8.898 3.355,8.678 3.199 C 8.423 3.017,8.269 3.000,6.944 3.005 C 6.260 3.007,5.609 3.025,5.499 3.043 M15.614 3.056 C 15.376 3.133,15.211 3.262,15.109 3.453 C 15.035 3.592,15.020 3.684,15.020 4.000 C 15.020 4.331,15.033 4.403,15.120 4.558 C 15.230 4.755,15.414 4.898,15.635 4.959 C 15.717 4.982,16.287 5.000,16.943 5.000 C 18.308 5.000,18.412 5.018,18.697 5.303 C 18.982 5.588,19.000 5.692,19.000 7.057 C 19.000 7.713,19.018 8.283,19.041 8.365 C 19.148 8.750,19.437 8.962,19.896 8.991 C 20.381 9.022,20.699 8.882,20.880 8.558 L 20.980 8.380 20.980 6.920 C 20.980 5.501,20.977 5.452,20.886 5.160 C 20.581 4.181,19.825 3.421,18.861 3.124 C 18.550 3.028,18.498 3.024,17.160 3.013 C 16.090 3.005,15.743 3.014,15.614 3.056 M6.598 8.050 C 6.507 8.088,6.378 8.159,6.311 8.207 C 6.166 8.310,5.959 8.738,5.962 8.929 C 5.963 9.001,5.976 9.807,5.992 10.720 L 6.020 12.380 6.120 12.558 C 6.287 12.856,6.572 13.000,7.000 13.000 C 7.428 13.000,7.714 12.856,7.878 12.559 C 7.963 12.406,7.979 12.317,7.993 11.906 L 8.010 11.431 9.408 12.825 C 10.177 13.592,10.845 14.292,10.893 14.380 C 10.976 14.534,10.981 14.597,11.001 15.960 C 11.024 17.509,11.030 17.543,11.267 17.767 C 11.604 18.084,12.394 18.073,12.753 17.745 C 12.967 17.550,12.976 17.488,12.999 15.960 C 13.019 14.597,13.024 14.534,13.107 14.380 C 13.155 14.292,13.826 13.590,14.597 12.820 L 16.000 11.420 16.000 11.820 C 16.000 12.040,16.019 12.285,16.041 12.365 C 16.148 12.750,16.437 12.962,16.896 12.991 C 17.381 13.022,17.699 12.882,17.880 12.558 L 17.980 12.380 18.008 10.720 C 18.024 9.807,18.037 9.001,18.038 8.929 C 18.041 8.737,17.834 8.309,17.688 8.206 C 17.373 7.982,17.403 7.984,15.523 7.997 C 14.257 8.005,13.740 8.022,13.616 8.059 C 13.225 8.177,13.039 8.434,13.009 8.900 C 12.978 9.381,13.119 9.700,13.442 9.879 C 13.594 9.964,13.688 9.981,14.090 9.999 L 14.561 10.020 13.280 11.300 L 12.000 12.580 10.720 11.300 L 9.439 10.020 9.910 9.998 C 10.529 9.969,10.714 9.880,10.904 9.520 C 11.018 9.303,11.009 8.679,10.888 8.450 C 10.783 8.252,10.573 8.101,10.320 8.044 C 10.217 8.020,9.415 7.998,8.452 7.991 C 6.914 7.980,6.749 7.985,6.598 8.050 M3.614 15.057 C 3.377 15.131,3.212 15.261,3.109 15.453 C 3.022 15.617,3.020 15.647,3.020 17.080 C 3.020 18.499,3.023 18.548,3.114 18.840 C 3.419 19.817,4.158 20.562,5.140 20.884 C 5.405 20.971,5.492 20.976,6.804 20.991 C 7.715 21.001,8.243 20.992,8.348 20.963 C 8.583 20.900,8.767 20.760,8.880 20.558 C 8.967 20.402,8.980 20.332,8.979 20.000 C 8.977 19.469,8.850 19.243,8.455 19.072 C 8.375 19.037,7.942 19.016,7.020 19.001 L 5.700 18.980 5.516 18.872 C 5.327 18.761,5.157 18.570,5.071 18.373 C 5.037 18.295,5.015 17.854,5.001 16.940 C 4.981 15.672,4.976 15.613,4.891 15.453 C 4.842 15.362,4.746 15.247,4.678 15.199 C 4.414 15.010,3.957 14.950,3.614 15.057 M19.614 15.057 C 19.377 15.131,19.212 15.261,19.109 15.453 C 19.024 15.613,19.019 15.673,18.999 16.940 C 18.984 17.847,18.962 18.295,18.929 18.373 C 18.843 18.570,18.673 18.761,18.484 18.872 L 18.300 18.980 16.979 19.000 C 15.658 19.020,15.657 19.020,15.459 19.122 C 15.119 19.297,14.978 19.606,15.009 20.104 C 15.039 20.570,15.252 20.856,15.652 20.963 C 15.757 20.992,16.285 21.001,17.196 20.991 C 18.508 20.976,18.595 20.971,18.860 20.884 C 19.842 20.562,20.581 19.817,20.886 18.840 C 20.977 18.548,20.980 18.499,20.980 17.080 C 20.980 15.647,20.978 15.617,20.891 15.453 C 20.842 15.362,20.746 15.247,20.678 15.199 C 20.414 15.010,19.957 14.950,19.614 15.057 " stroke="none" fill="black" fill-rule="evenodd"></path></svg>