<svg xmlns="http://www.w3.org/2000/svg" width="24" height="24" viewBox="0 0 24 24" fill="none" stroke="currentColor" stroke-width="2" stroke-linecap="round" stroke-linejoin="round" class="icon icon-tabler icons-tabler-outline icon-tabler-clipboard-list"><path d="M10.499 2.042 C 9.560 2.206,8.740 2.816,8.314 3.666 L 8.151 3.991 7.306 4.010 C 6.558 4.026,6.423 4.040,6.139 4.125 C 5.180 4.416,4.420 5.180,4.114 6.160 L 4.020 6.460 4.020 13.000 L 4.020 19.540 4.114 19.840 C 4.422 20.827,5.173 21.578,6.160 21.886 L 6.460 21.980 12.000 21.980 L 17.540 21.980 17.840 21.886 C 18.827 21.578,19.578 20.827,19.886 19.840 L 19.980 19.540 19.980 13.000 L 19.980 6.460 19.886 6.160 C 19.580 5.180,18.820 4.416,17.861 4.125 C 17.577 4.040,17.442 4.026,16.694 4.010 L 15.849 3.991 15.686 3.666 C 15.322 2.939,14.643 2.365,13.861 2.124 C 13.548 2.027,13.504 2.024,12.120 2.015 C 11.339 2.010,10.609 2.022,10.499 2.042 M13.310 4.061 C 13.688 4.173,14.000 4.598,14.000 5.001 C 14.000 5.331,13.784 5.696,13.484 5.872 L 13.300 5.980 12.000 5.980 L 10.700 5.980 10.516 5.872 C 9.935 5.530,9.833 4.774,10.304 4.303 C 10.584 4.022,10.675 4.006,11.983 4.003 C 12.878 4.001,13.147 4.012,13.310 4.061 M8.312 6.330 C 8.682 7.068,9.354 7.635,10.160 7.886 C 10.453 7.978,10.497 7.980,12.000 7.980 C 13.503 7.980,13.547 7.978,13.840 7.886 C 14.646 7.635,15.318 7.068,15.688 6.330 L 15.853 6.000 16.479 6.000 C 17.256 6.000,17.439 6.046,17.697 6.303 C 18.023 6.629,18.000 6.126,18.000 13.001 C 18.000 18.059,17.991 19.139,17.945 19.290 C 17.872 19.533,17.707 19.740,17.484 19.872 L 17.300 19.980 12.000 19.980 L 6.700 19.980 6.516 19.872 C 6.415 19.813,6.284 19.700,6.225 19.623 C 5.987 19.311,6.000 19.701,6.000 13.022 C 6.000 6.123,5.977 6.629,6.304 6.303 C 6.560 6.046,6.721 6.006,7.503 6.003 L 8.147 6.000 8.312 6.330 M8.614 11.055 C 8.220 11.184,8.039 11.437,8.009 11.900 C 7.978 12.381,8.119 12.699,8.442 12.880 C 8.597 12.967,8.669 12.980,9.000 12.980 C 9.312 12.980,9.408 12.964,9.540 12.894 C 9.866 12.718,10.000 12.459,10.000 12.000 C 10.000 11.357,9.713 11.048,9.083 11.016 C 8.893 11.006,8.718 11.021,8.614 11.055 M12.614 11.057 C 12.377 11.131,12.212 11.261,12.109 11.453 C 12.035 11.592,12.020 11.684,12.020 12.000 C 12.020 12.331,12.033 12.403,12.120 12.558 C 12.230 12.755,12.414 12.898,12.635 12.959 C 12.826 13.012,15.174 13.012,15.365 12.959 C 15.586 12.898,15.770 12.755,15.880 12.558 C 15.967 12.402,15.980 12.332,15.979 12.000 C 15.978 11.687,15.962 11.591,15.890 11.453 C 15.786 11.256,15.623 11.131,15.371 11.055 C 15.117 10.979,12.859 10.981,12.614 11.057 M8.614 15.055 C 8.220 15.184,8.039 15.437,8.009 15.900 C 7.978 16.381,8.119 16.699,8.442 16.880 C 8.597 16.967,8.669 16.980,9.000 16.980 C 9.312 16.980,9.408 16.964,9.540 16.894 C 9.866 16.718,10.000 16.459,10.000 16.000 C 10.000 15.357,9.713 15.048,9.083 15.016 C 8.893 15.006,8.718 15.021,8.614 15.055 M12.614 15.057 C 12.377 15.131,12.212 15.261,12.109 15.453 C 12.035 15.592,12.020 15.684,12.020 16.000 C 12.020 16.331,12.033 16.403,12.120 16.558 C 12.230 16.755,12.414 16.898,12.635 16.959 C 12.826 17.012,15.174 17.012,15.365 16.959 C 15.586 16.898,15.770 16.755,15.880 16.558 C 15.967 16.402,15.980 16.332,15.979 16.000 C 15.978 15.687,15.962 15.591,15.890 15.453 C 15.786 15.256,15.623 15.131,15.371 15.055 C 15.117 14.979,12.859 14.981,12.614 15.057 " stroke="none" fill="black" fill-rule="evenodd"></path></svg>