<svg xmlns="http://www.w3.org/2000/svg" width="24" height="24" viewBox="0 0 24 24" fill="none" stroke="currentColor" stroke-width="2" stroke-linecap="round" stroke-linejoin="round" class="icon icon-tabler icons-tabler-outline icon-tabler-ball-american-football"><path d="M15.200 2.027 C 13.426 2.151,11.860 2.528,10.360 3.190 C 7.021 4.664,4.334 7.442,3.001 10.798 C 2.652 11.679,2.348 12.755,2.205 13.620 C 2.050 14.555,2.024 14.867,2.023 15.800 C 2.022 16.635,2.032 16.787,2.113 17.160 C 2.646 19.595,4.409 21.358,6.840 21.886 C 7.211 21.967,7.369 21.977,8.200 21.977 C 8.731 21.976,9.305 21.954,9.520 21.925 C 10.646 21.775,11.409 21.608,12.308 21.316 C 13.932 20.790,15.260 20.081,16.680 18.985 C 17.242 18.551,18.573 17.215,19.016 16.640 C 20.079 15.260,20.798 13.908,21.316 12.308 C 21.781 10.876,21.980 9.629,21.978 8.160 C 21.977 7.377,21.965 7.205,21.886 6.840 C 21.473 4.932,20.323 3.453,18.580 2.590 C 17.654 2.132,16.483 1.936,15.200 2.027 M15.179 4.420 C 15.586 6.098,16.735 7.552,18.264 8.328 C 18.724 8.562,19.261 8.759,19.660 8.843 C 19.792 8.870,19.915 8.906,19.933 8.922 C 19.977 8.959,19.902 9.601,19.776 10.273 C 18.868 15.126,14.935 18.985,10.046 19.822 C 9.731 19.876,9.346 19.925,9.192 19.930 L 8.911 19.940 8.822 19.580 C 8.391 17.827,7.242 16.413,5.580 15.590 C 5.225 15.414,4.657 15.219,4.309 15.153 C 4.115 15.116,4.040 15.085,4.040 15.040 C 4.040 15.006,4.067 14.756,4.101 14.484 C 4.594 10.502,7.109 6.993,10.740 5.221 C 11.908 4.650,13.168 4.271,14.460 4.100 C 15.112 4.014,15.076 3.998,15.179 4.420 M17.780 4.440 C 18.520 4.802,19.149 5.411,19.522 6.128 C 19.697 6.465,19.812 6.761,19.781 6.792 C 19.750 6.823,19.251 6.605,18.953 6.430 C 18.319 6.060,17.742 5.425,17.417 4.740 C 17.323 4.542,17.234 4.338,17.219 4.286 C 17.195 4.202,17.202 4.195,17.286 4.218 C 17.338 4.232,17.560 4.332,17.780 4.440 M14.620 8.047 C 14.532 8.093,14.132 8.455,13.732 8.851 L 13.003 9.572 12.759 9.345 C 12.445 9.055,12.258 8.960,12.000 8.960 C 11.749 8.960,11.534 9.064,11.299 9.299 C 10.957 9.641,10.863 10.013,11.035 10.349 C 11.081 10.440,11.221 10.624,11.346 10.760 L 11.574 11.006 11.290 11.290 L 11.006 11.574 10.760 11.346 C 10.445 11.055,10.259 10.960,10.000 10.960 C 9.749 10.960,9.534 11.064,9.299 11.299 C 8.957 11.641,8.863 12.013,9.035 12.349 C 9.081 12.440,9.220 12.624,9.345 12.759 L 9.572 13.003 8.851 13.732 C 8.079 14.513,7.951 14.693,7.951 15.000 C 7.951 15.477,8.523 16.049,9.000 16.049 C 9.307 16.049,9.487 15.921,10.268 15.149 L 10.997 14.428 11.241 14.655 C 11.549 14.939,11.760 15.049,12.000 15.049 C 12.477 15.049,13.049 14.477,13.049 14.000 C 13.049 13.760,12.939 13.549,12.654 13.240 L 12.426 12.994 12.710 12.710 L 12.994 12.426 13.240 12.654 C 13.549 12.939,13.760 13.049,14.000 13.049 C 14.477 13.049,15.049 12.477,15.049 12.000 C 15.049 11.760,14.939 11.549,14.655 11.241 L 14.428 10.997 15.149 10.268 C 15.581 9.832,15.905 9.469,15.959 9.363 C 16.137 9.012,16.048 8.646,15.701 8.299 C 15.360 7.958,14.966 7.866,14.620 8.047 M4.780 17.440 C 5.520 17.802,6.149 18.411,6.522 19.128 C 6.697 19.465,6.812 19.761,6.781 19.792 C 6.750 19.823,6.251 19.605,5.953 19.430 C 5.319 19.060,4.742 18.425,4.417 17.740 C 4.323 17.542,4.234 17.338,4.219 17.286 C 4.195 17.202,4.202 17.195,4.286 17.218 C 4.338 17.232,4.560 17.332,4.780 17.440 " stroke="none" fill="black" fill-rule="evenodd"></path></svg>