<svg xmlns="http://www.w3.org/2000/svg" width="24" height="24" viewBox="0 0 24 24" fill="none" stroke="currentColor" stroke-width="2" stroke-linecap="round" stroke-linejoin="round" class="icon icon-tabler icons-tabler-outline icon-tabler-file-typography"><path d="M6.499 2.043 C 5.383 2.230,4.461 3.048,4.114 4.160 L 4.020 4.460 4.020 12.000 L 4.020 19.540 4.114 19.840 C 4.422 20.827,5.173 21.578,6.160 21.886 L 6.460 21.980 12.000 21.980 L 17.540 21.980 17.840 21.886 C 18.827 21.578,19.578 20.827,19.886 19.840 L 19.980 19.540 19.980 13.580 L 19.980 7.620 19.890 7.452 C 19.841 7.360,19.724 7.231,19.630 7.165 C 19.498 7.073,15.263 2.838,14.719 2.254 C 14.473 1.991,14.626 2.000,10.463 2.005 C 8.393 2.007,6.609 2.025,6.499 2.043 M13.000 5.632 C 13.000 7.399,13.010 7.507,13.225 7.930 C 13.361 8.199,13.801 8.639,14.070 8.775 C 14.493 8.990,14.601 9.000,16.368 9.000 L 18.000 9.000 18.000 14.054 C 18.000 18.220,17.990 19.139,17.945 19.290 C 17.872 19.533,17.707 19.740,17.484 19.872 L 17.300 19.980 12.000 19.980 L 6.700 19.980 6.516 19.872 C 6.415 19.813,6.284 19.700,6.225 19.623 C 5.986 19.309,6.000 19.795,6.000 12.022 C 6.000 4.005,5.975 4.631,6.304 4.303 C 6.613 3.994,6.464 4.006,9.930 4.003 L 13.000 4.000 13.000 5.632 M15.800 6.220 L 16.579 7.000 15.790 7.000 L 15.000 7.000 15.000 6.220 C 15.000 5.791,15.005 5.440,15.010 5.440 C 15.016 5.440,15.371 5.791,15.800 6.220 M8.614 10.057 C 8.377 10.131,8.212 10.261,8.109 10.453 C 8.027 10.606,8.019 10.684,8.007 11.405 C 7.999 11.880,8.011 12.252,8.037 12.349 C 8.144 12.748,8.430 12.961,8.896 12.991 C 9.533 13.031,9.915 12.757,9.983 12.210 L 10.009 12.000 10.505 12.000 L 11.000 12.000 11.000 14.491 L 11.000 16.982 10.756 17.028 C 10.450 17.086,10.227 17.232,10.111 17.450 C 10.035 17.592,10.020 17.682,10.020 18.000 C 10.020 18.331,10.033 18.403,10.120 18.558 C 10.230 18.755,10.414 18.898,10.635 18.959 C 10.826 19.012,13.174 19.012,13.365 18.959 C 13.586 18.898,13.770 18.755,13.880 18.558 C 13.967 18.402,13.980 18.332,13.979 18.000 C 13.978 17.685,13.963 17.591,13.888 17.450 C 13.773 17.232,13.551 17.086,13.244 17.028 L 13.000 16.982 13.000 14.491 L 13.000 12.000 13.494 12.000 L 13.989 12.000 14.013 12.203 C 14.074 12.715,14.426 13.000,15.000 13.000 C 15.428 13.000,15.713 12.856,15.880 12.558 C 15.978 12.383,15.980 12.364,15.980 11.500 C 15.980 10.667,15.975 10.611,15.891 10.453 C 15.785 10.256,15.622 10.131,15.371 10.055 C 15.109 9.977,8.866 9.979,8.614 10.057 " stroke="none" fill="black" fill-rule="evenodd"></path></svg>