<svg xmlns="http://www.w3.org/2000/svg" width="24" height="24" viewBox="0 0 24 24" fill="none" stroke="currentColor" stroke-width="2" stroke-linecap="round" stroke-linejoin="round" class="icon icon-tabler icons-tabler-outline icon-tabler-clock-check"><path d="M11.280 2.027 C 9.972 2.120,8.579 2.511,7.444 3.103 C 4.525 4.625,2.641 7.258,2.093 10.580 C 2.004 11.123,1.991 12.791,2.073 13.300 C 2.562 16.348,4.038 18.697,6.498 20.340 C 7.027 20.693,7.740 21.073,8.257 21.279 C 9.303 21.694,10.552 21.962,11.500 21.975 C 11.858 21.979,11.919 21.969,12.078 21.880 C 12.392 21.704,12.522 21.426,12.517 20.940 C 12.510 20.285,12.237 20.045,11.420 19.979 C 10.349 19.892,9.443 19.646,8.500 19.186 C 7.643 18.769,6.930 18.248,6.237 17.534 C 5.615 16.892,5.223 16.330,4.819 15.500 C 3.933 13.680,3.767 11.691,4.338 9.735 C 4.731 8.386,5.412 7.259,6.426 6.277 C 7.670 5.073,9.089 4.368,10.820 4.092 C 11.467 3.989,12.739 3.999,13.360 4.112 C 15.669 4.531,17.703 5.932,18.863 7.903 C 19.716 9.354,20.087 10.907,19.971 12.549 C 19.899 13.573,20.018 13.813,20.679 13.983 C 21.070 14.083,21.486 13.996,21.688 13.773 C 21.926 13.510,22.027 12.779,21.985 11.620 C 21.950 10.637,21.819 9.867,21.536 8.992 C 20.546 5.929,18.257 3.588,15.223 2.534 C 14.008 2.112,12.609 1.932,11.280 2.027 M11.614 6.057 C 11.377 6.131,11.212 6.261,11.109 6.453 L 11.020 6.620 11.020 9.460 L 11.020 12.300 11.127 12.480 C 11.284 12.744,14.416 15.849,14.637 15.960 C 14.989 16.137,15.354 16.048,15.701 15.701 C 16.048 15.354,16.137 14.989,15.960 14.637 C 15.900 14.519,15.397 13.984,14.437 13.020 L 13.003 11.580 12.991 9.100 C 12.980 6.623,12.980 6.620,12.891 6.453 C 12.842 6.362,12.746 6.247,12.678 6.199 C 12.414 6.010,11.957 5.950,11.614 6.057 M20.620 16.046 C 20.525 16.095,19.753 16.834,18.731 17.853 L 17.001 19.577 16.271 18.854 C 15.856 18.444,15.467 18.094,15.372 18.045 C 15.021 17.868,14.640 17.958,14.299 18.299 C 13.952 18.646,13.863 19.010,14.040 19.363 C 14.162 19.607,16.393 21.838,16.637 21.960 C 16.868 22.076,17.132 22.076,17.363 21.961 C 17.486 21.899,18.197 21.215,19.706 19.706 C 21.215 18.197,21.899 17.486,21.961 17.363 C 22.137 17.010,22.048 16.645,21.701 16.299 C 21.361 15.959,20.967 15.867,20.620 16.046 " stroke="none" fill="black" fill-rule="evenodd"></path></svg>