<svg xmlns="http://www.w3.org/2000/svg" width="24" height="24" viewBox="0 0 24 24" fill="none" stroke="currentColor" stroke-width="2" stroke-linecap="round" stroke-linejoin="round" class="icon icon-tabler icons-tabler-outline icon-tabler-arrow-left"><path d="M10.620 5.046 C 10.522 5.097,9.303 6.281,7.460 8.118 C 5.810 9.763,4.399 11.150,4.325 11.200 C 4.147 11.322,3.945 11.747,3.945 12.000 C 3.945 12.237,4.148 12.681,4.304 12.785 C 4.367 12.826,5.777 14.213,7.439 15.866 C 9.555 17.971,10.513 18.898,10.637 18.960 C 10.990 19.137,11.354 19.048,11.701 18.701 C 12.048 18.354,12.137 17.990,11.960 17.637 C 11.899 17.514,11.189 16.776,9.647 15.230 L 7.422 13.000 13.321 13.000 C 17.149 13.000,19.271 12.985,19.365 12.959 C 19.586 12.898,19.770 12.755,19.880 12.558 C 19.967 12.402,19.980 12.332,19.979 12.000 C 19.978 11.567,19.898 11.355,19.678 11.199 C 19.389 10.993,19.616 11.000,13.304 11.000 L 7.422 11.000 9.647 8.770 C 11.189 7.224,11.899 6.486,11.960 6.363 C 12.137 6.010,12.048 5.646,11.701 5.299 C 11.361 4.959,10.967 4.867,10.620 5.046 " stroke="none" fill="black" fill-rule="evenodd"></path></svg>