<svg xmlns="http://www.w3.org/2000/svg" width="24" height="24" viewBox="0 0 24 24" fill="none" stroke="currentColor" stroke-width="2" stroke-linecap="round" stroke-linejoin="round" class="icon icon-tabler icons-tabler-outline icon-tabler-engine"><path d="M9.614 4.057 C 9.377 4.131,9.212 4.261,9.109 4.453 C 9.035 4.592,9.020 4.684,9.020 5.000 C 9.020 5.331,9.033 5.403,9.120 5.558 C 9.230 5.755,9.414 5.898,9.635 5.959 C 9.715 5.981,10.055 6.000,10.390 6.000 L 11.000 6.000 11.000 6.500 L 11.000 7.000 10.447 7.000 C 9.558 7.000,9.632 6.959,8.521 8.062 L 7.580 8.995 6.619 9.007 C 5.678 9.020,5.653 9.022,5.459 9.122 C 5.245 9.233,5.105 9.404,5.041 9.635 C 5.018 9.716,5.000 10.270,5.000 10.890 L 5.000 12.000 4.503 12.000 L 4.005 12.000 3.993 10.810 C 3.980 9.662,3.977 9.614,3.889 9.450 C 3.724 9.140,3.329 8.970,2.874 9.011 C 2.439 9.051,2.141 9.274,2.041 9.635 C 1.986 9.832,1.986 16.168,2.041 16.365 C 2.148 16.750,2.437 16.962,2.896 16.991 C 3.381 17.022,3.699 16.882,3.880 16.558 C 3.979 16.381,3.980 16.374,3.993 15.190 L 4.005 14.000 4.503 14.000 L 5.000 14.000 5.000 15.110 C 5.000 15.730,5.018 16.284,5.041 16.365 C 5.102 16.586,5.245 16.770,5.442 16.880 C 5.615 16.977,5.644 16.980,6.545 16.993 L 7.469 17.005 8.252 18.177 C 9.075 19.408,9.208 19.562,9.629 19.775 C 10.064 19.994,10.130 20.000,12.280 20.000 C 14.430 20.000,14.497 19.994,14.930 19.775 C 15.196 19.640,15.638 19.200,15.771 18.937 C 15.952 18.581,16.000 18.305,16.000 17.624 L 16.000 17.000 16.497 17.000 L 16.993 17.000 17.007 17.690 C 17.019 18.339,17.026 18.391,17.120 18.558 C 17.230 18.755,17.414 18.898,17.635 18.959 C 17.718 18.982,18.313 19.000,19.022 19.000 C 20.367 19.000,20.522 18.982,20.930 18.775 C 21.196 18.640,21.638 18.200,21.771 17.937 C 22.003 17.479,22.000 17.537,21.999 14.014 C 21.999 10.515,21.999 10.511,21.781 10.083 C 21.551 9.628,21.022 9.203,20.523 9.073 C 20.170 8.981,17.922 8.967,17.629 9.055 C 17.378 9.131,17.215 9.256,17.109 9.453 C 17.029 9.603,17.019 9.689,17.007 10.310 L 16.993 11.000 16.807 11.000 L 16.620 11.000 15.830 9.423 C 15.110 7.987,15.019 7.826,14.809 7.613 C 14.412 7.211,13.894 7.002,13.290 7.001 L 13.000 7.000 13.000 6.500 L 13.000 6.000 13.610 6.000 C 13.945 6.000,14.285 5.981,14.365 5.959 C 14.586 5.898,14.770 5.755,14.880 5.558 C 14.967 5.402,14.980 5.332,14.979 5.000 C 14.978 4.567,14.898 4.355,14.678 4.199 C 14.406 4.005,14.336 4.000,11.984 4.003 C 10.293 4.005,9.741 4.017,9.614 4.057 M14.170 10.577 C 14.890 12.013,14.981 12.174,15.191 12.387 C 15.449 12.649,15.792 12.848,16.142 12.939 C 16.418 13.011,18.123 13.027,18.365 12.959 C 18.586 12.898,18.770 12.755,18.880 12.558 C 18.974 12.391,18.981 12.338,18.994 11.690 L 19.008 11.000 19.504 11.000 L 20.000 11.000 20.000 14.000 L 20.000 17.000 19.504 17.000 L 19.008 17.000 18.993 16.310 C 18.979 15.694,18.968 15.602,18.890 15.453 C 18.786 15.256,18.623 15.131,18.371 15.055 C 18.104 14.975,14.896 14.975,14.629 15.055 C 14.378 15.131,14.215 15.256,14.109 15.453 C 14.024 15.613,14.020 15.668,14.008 16.810 L 13.996 18.000 12.265 18.000 L 10.534 18.000 9.628 16.644 C 9.097 15.848,8.671 15.251,8.598 15.199 C 8.382 15.045,8.146 15.000,7.554 15.000 L 7.000 15.000 7.000 13.003 L 7.000 11.007 7.650 10.993 C 8.272 10.981,8.308 10.975,8.480 10.873 C 8.579 10.814,9.056 10.368,9.540 9.883 L 10.419 9.000 11.900 9.000 L 13.380 9.000 14.170 10.577 " stroke="none" fill="black" fill-rule="evenodd"></path></svg>