<svg xmlns="http://www.w3.org/2000/svg" width="24" height="24" viewBox="0 0 24 24" fill="none" stroke="currentColor" stroke-width="2" stroke-linecap="round" stroke-linejoin="round" class="icon icon-tabler icons-tabler-outline icon-tabler-tools-kitchen-2-off"><path d="M2.626 2.045 C 2.257 2.239,1.951 2.673,1.951 3.000 C 1.951 3.321,2.070 3.479,3.065 4.482 L 4.000 5.424 4.000 6.329 C 4.000 7.332,4.038 7.701,4.188 8.178 C 4.578 9.416,5.507 10.369,6.720 10.780 L 6.980 10.867 7.000 16.124 L 7.020 21.380 7.120 21.558 C 7.287 21.856,7.572 22.000,8.000 22.000 C 8.428 22.000,8.713 21.856,8.880 21.558 L 8.980 21.380 9.000 16.126 L 9.020 10.873 9.180 10.817 L 9.340 10.762 11.170 12.591 L 13.000 14.420 13.000 14.820 C 13.001 15.437,13.107 15.693,13.442 15.880 C 13.599 15.967,13.678 15.981,14.100 15.993 L 14.580 16.006 15.790 17.213 L 17.000 18.420 17.000 19.820 C 17.000 20.634,17.017 21.281,17.041 21.365 C 17.102 21.586,17.245 21.770,17.442 21.880 C 17.612 21.976,17.654 21.981,18.405 21.993 C 18.880 22.001,19.252 21.989,19.349 21.963 C 19.581 21.900,19.767 21.760,19.874 21.567 L 19.967 21.398 20.225 21.639 C 20.543 21.937,20.756 22.049,21.000 22.049 C 21.477 22.049,22.049 21.477,22.049 21.000 C 22.049 20.679,21.930 20.522,20.853 19.420 C 19.638 18.176,19.753 18.294,19.260 17.803 C 19.040 17.585,18.815 17.360,18.760 17.305 C 18.705 17.250,18.030 16.575,17.260 15.805 C 16.490 15.036,15.815 14.361,15.760 14.306 C 15.705 14.251,14.130 12.676,12.260 10.806 C 10.390 8.936,8.815 7.361,8.760 7.305 C 8.705 7.250,8.030 6.575,7.260 5.805 C 6.490 5.036,5.815 4.360,5.760 4.304 C 5.002 3.530,3.504 2.112,3.372 2.045 C 3.152 1.934,2.836 1.934,2.626 2.045 M18.640 2.043 C 18.515 2.100,18.258 2.328,17.798 2.792 C 15.500 5.112,14.153 7.328,13.497 9.872 C 13.349 10.448,13.339 10.542,13.402 10.771 C 13.492 11.093,13.802 11.315,14.286 11.403 C 14.602 11.461,14.820 11.410,15.023 11.232 C 15.214 11.064,15.284 10.912,15.456 10.293 C 15.916 8.627,16.772 7.003,17.897 5.660 L 17.997 5.540 17.999 10.380 C 18.000 13.494,18.015 15.272,18.041 15.365 C 18.148 15.750,18.437 15.962,18.896 15.991 C 19.381 16.022,19.699 15.882,19.880 15.558 L 19.980 15.380 19.991 9.127 C 19.998 4.881,19.988 2.823,19.960 2.718 C 19.856 2.333,19.393 1.959,19.022 1.961 C 18.906 1.961,18.743 1.997,18.640 2.043 M10.614 3.057 C 10.377 3.131,10.212 3.261,10.109 3.453 C 10.021 3.618,10.020 3.647,10.008 5.410 C 10.001 6.557,10.012 7.255,10.038 7.354 C 10.144 7.747,10.433 7.961,10.896 7.991 C 11.381 8.022,11.699 7.882,11.880 7.558 L 11.980 7.380 11.980 5.500 C 11.980 3.633,11.979 3.619,11.891 3.453 C 11.842 3.362,11.746 3.247,11.678 3.199 C 11.414 3.010,10.957 2.950,10.614 3.057 M7.000 8.572 L 7.000 8.725 6.877 8.652 C 6.679 8.536,6.377 8.192,6.249 7.936 C 6.018 7.475,6.049 7.478,6.536 7.959 C 6.967 8.386,7.000 8.430,7.000 8.572 " stroke="none" fill="black" fill-rule="evenodd"></path></svg>