<svg xmlns="http://www.w3.org/2000/svg" width="24" height="24" viewBox="0 0 24 24" fill="none" stroke="currentColor" stroke-width="2" stroke-linecap="round" stroke-linejoin="round" class="icon icon-tabler icons-tabler-outline icon-tabler-headset"><path d="M11.340 2.024 C 10.432 2.118,9.865 2.233,9.160 2.466 C 7.260 3.094,5.614 4.359,4.468 6.073 C 3.910 6.908,3.388 8.182,3.183 9.209 C 3.005 10.101,2.994 10.403,3.008 14.100 L 3.021 17.580 3.114 17.860 C 3.445 18.850,4.184 19.582,5.160 19.886 C 5.442 19.974,5.521 19.980,6.500 19.980 C 7.479 19.980,7.558 19.974,7.840 19.886 C 8.827 19.578,9.578 18.827,9.886 17.840 C 9.979 17.542,9.980 17.527,9.980 15.500 C 9.980 13.473,9.979 13.458,9.886 13.160 C 9.577 12.169,8.792 11.390,7.822 11.112 C 7.524 11.027,7.424 11.020,6.500 11.020 C 5.794 11.020,5.447 11.035,5.320 11.072 C 5.221 11.101,5.106 11.135,5.064 11.147 C 4.992 11.168,4.990 11.149,5.016 10.735 C 5.070 9.860,5.175 9.318,5.427 8.620 C 6.300 6.195,8.459 4.441,11.020 4.076 C 11.783 3.967,12.907 4.022,13.660 4.205 C 15.916 4.753,17.786 6.433,18.573 8.620 C 18.825 9.318,18.930 9.860,18.984 10.735 C 19.010 11.149,19.008 11.168,18.936 11.147 C 18.894 11.135,18.779 11.101,18.680 11.072 C 18.553 11.035,18.206 11.020,17.500 11.020 C 16.576 11.020,16.476 11.027,16.178 11.112 C 15.208 11.390,14.423 12.169,14.114 13.160 C 14.021 13.458,14.020 13.473,14.020 15.500 C 14.020 17.527,14.021 17.542,14.114 17.840 C 14.411 18.791,15.160 19.563,16.077 19.861 C 16.280 19.926,16.289 19.935,16.217 19.989 C 16.055 20.111,15.436 20.400,15.052 20.534 C 14.240 20.817,13.498 20.942,12.317 20.996 C 11.620 21.028,11.594 21.032,11.410 21.146 C 11.291 21.220,11.183 21.330,11.120 21.442 C 11.033 21.597,11.020 21.669,11.020 22.000 C 11.020 22.331,11.033 22.403,11.120 22.558 C 11.175 22.657,11.281 22.778,11.356 22.829 C 11.592 22.988,11.769 23.012,12.500 22.987 C 14.065 22.932,15.410 22.627,16.580 22.061 C 17.239 21.742,17.610 21.481,18.082 21.006 C 18.430 20.655,18.536 20.519,18.682 20.230 C 18.837 19.926,18.878 19.874,19.000 19.835 C 19.256 19.753,19.657 19.522,19.891 19.321 C 20.380 18.903,20.689 18.449,20.886 17.860 L 20.979 17.580 20.992 14.100 C 21.001 11.730,20.991 10.473,20.960 10.160 C 20.655 7.042,18.763 4.297,15.978 2.936 C 15.103 2.508,14.258 2.243,13.320 2.101 C 12.911 2.039,11.662 1.991,11.340 2.024 M7.310 13.061 C 7.589 13.144,7.856 13.411,7.939 13.690 C 8.024 13.976,8.029 17.010,7.945 17.290 C 7.872 17.533,7.707 17.740,7.484 17.872 C 7.301 17.980,7.297 17.980,6.500 17.980 C 5.703 17.980,5.699 17.980,5.516 17.872 C 5.303 17.747,5.141 17.550,5.058 17.316 C 4.971 17.067,4.973 13.986,5.061 13.690 C 5.140 13.421,5.412 13.143,5.673 13.063 C 5.941 12.981,7.035 12.979,7.310 13.061 M18.310 13.061 C 18.589 13.144,18.856 13.411,18.939 13.690 C 19.024 13.976,19.029 17.010,18.945 17.290 C 18.872 17.533,18.707 17.740,18.484 17.872 C 18.301 17.980,18.297 17.980,17.500 17.980 C 16.703 17.980,16.699 17.980,16.516 17.872 C 16.303 17.747,16.141 17.550,16.058 17.316 C 15.971 17.067,15.973 13.986,16.061 13.690 C 16.140 13.421,16.412 13.143,16.673 13.063 C 16.941 12.981,18.035 12.979,18.310 13.061 " stroke="none" fill="black" fill-rule="evenodd"></path></svg>