<svg xmlns="http://www.w3.org/2000/svg" width="24" height="24" viewBox="0 0 24 24" fill="none" stroke="currentColor" stroke-width="2" stroke-linecap="round" stroke-linejoin="round" class="icon icon-tabler icons-tabler-outline icon-tabler-brand-windy"><path d="M2.638 3.052 C 2.389 3.122,2.215 3.254,2.109 3.453 C 2.026 3.608,2.021 3.666,2.027 4.280 C 2.046 5.905,2.401 9.261,2.783 11.420 C 3.828 17.320,5.644 20.479,8.260 20.943 C 9.063 21.086,10.035 20.926,10.842 20.519 L 11.065 20.407 11.257 20.527 C 11.896 20.924,12.837 21.091,13.606 20.944 C 14.977 20.681,16.244 19.691,17.500 17.900 C 18.987 15.778,20.595 12.049,21.740 8.064 C 22.041 7.018,22.071 6.757,21.924 6.495 C 21.764 6.211,21.335 6.000,20.918 6.000 C 20.636 6.000,20.453 6.067,20.303 6.226 C 20.138 6.400,20.109 6.474,19.842 7.420 C 19.429 8.883,18.854 10.566,18.279 12.000 C 16.642 16.081,14.915 18.537,13.400 18.941 C 13.177 19.000,12.920 19.019,12.920 18.977 C 12.920 18.964,13.065 18.796,13.242 18.602 C 14.573 17.151,15.977 14.779,17.139 12.020 C 18.125 9.679,18.969 6.895,18.977 5.957 C 18.980 5.606,18.971 5.561,18.872 5.411 C 18.713 5.170,18.402 5.030,17.984 5.009 C 17.700 4.995,17.638 5.005,17.480 5.090 C 17.197 5.242,17.102 5.436,16.939 6.201 C 16.278 9.309,14.567 13.342,12.835 15.880 C 12.472 16.411,12.061 16.935,11.656 17.380 L 11.372 17.693 11.263 17.456 C 10.837 16.528,10.478 14.964,10.282 13.180 C 10.087 11.406,10.036 10.193,10.005 6.680 L 9.979 3.620 9.889 3.450 C 9.724 3.141,9.329 2.970,8.874 3.011 C 8.429 3.052,8.139 3.275,8.035 3.656 C 7.979 3.863,8.013 9.810,8.077 10.840 C 8.310 14.634,8.755 16.922,9.580 18.560 L 9.720 18.838 9.490 18.909 C 9.179 19.005,8.651 19.004,8.360 18.906 C 7.223 18.524,6.170 16.774,5.404 13.995 C 4.697 11.426,4.251 8.291,4.020 4.260 C 4.006 4.018,3.976 3.748,3.954 3.660 C 3.894 3.420,3.740 3.212,3.550 3.114 C 3.342 3.008,2.901 2.978,2.638 3.052 " stroke="none" fill="black" fill-rule="evenodd"></path></svg>