<svg xmlns="http://www.w3.org/2000/svg" width="24" height="24" viewBox="0 0 24 24" fill="none" stroke="currentColor" stroke-width="2" stroke-linecap="round" stroke-linejoin="round" class="icon icon-tabler icons-tabler-outline icon-tabler-pyramid-plus"><path d="M11.378 1.113 C 10.999 1.245,10.756 1.403,10.515 1.674 C 10.331 1.880,1.743 15.767,1.602 16.086 C 1.557 16.188,1.500 16.403,1.474 16.566 C 1.385 17.140,1.611 17.818,2.029 18.234 C 2.237 18.440,2.410 18.540,3.760 19.228 C 7.419 21.094,10.942 22.823,11.240 22.901 C 11.460 22.959,11.668 22.980,12.020 22.979 C 12.568 22.977,12.830 22.917,13.340 22.678 C 14.008 22.364,14.207 21.983,13.997 21.420 C 13.828 20.970,13.506 20.682,13.170 20.681 L 13.000 20.680 13.000 12.672 C 13.000 7.919,13.015 4.679,13.036 4.702 C 13.056 4.723,14.153 6.495,15.474 8.640 C 16.966 11.062,17.949 12.618,18.068 12.747 C 18.368 13.070,18.692 13.117,19.122 12.899 C 19.719 12.596,19.901 12.151,19.644 11.620 C 19.462 11.244,13.671 1.892,13.488 1.680 C 12.975 1.084,12.120 0.855,11.378 1.113 M10.985 20.589 C 10.952 20.621,3.479 16.858,3.489 16.815 C 3.495 16.790,5.183 14.044,7.240 10.712 L 10.980 4.654 10.990 12.613 C 10.996 16.991,10.993 20.580,10.985 20.589 M18.614 15.057 C 18.377 15.131,18.212 15.261,18.109 15.453 C 18.024 15.613,18.020 15.668,18.008 16.810 L 17.996 18.000 16.904 18.000 C 15.744 18.000,15.570 18.022,15.322 18.199 C 15.100 18.357,15.020 18.568,15.020 19.000 C 15.020 19.331,15.033 19.403,15.120 19.558 C 15.230 19.755,15.414 19.898,15.635 19.959 C 15.716 19.982,16.270 20.000,16.890 20.000 L 18.000 20.000 18.000 21.110 C 18.000 21.730,18.018 22.284,18.041 22.365 C 18.148 22.750,18.437 22.962,18.896 22.991 C 19.381 23.022,19.699 22.882,19.880 22.558 C 19.979 22.381,19.980 22.374,19.993 21.190 L 20.005 20.000 21.113 20.000 C 21.731 20.000,22.284 19.982,22.365 19.959 C 22.586 19.898,22.770 19.755,22.880 19.558 C 22.967 19.402,22.980 19.332,22.979 19.000 C 22.978 18.567,22.898 18.355,22.678 18.199 C 22.430 18.022,22.256 18.000,21.096 18.000 L 20.005 18.000 19.993 16.810 C 19.981 15.669,19.976 15.613,19.891 15.453 C 19.842 15.362,19.746 15.247,19.678 15.199 C 19.414 15.010,18.957 14.950,18.614 15.057 " stroke="none" fill="black" fill-rule="evenodd"></path></svg>