<svg xmlns="http://www.w3.org/2000/svg" width="24" height="24" viewBox="0 0 24 24" fill="none" stroke="currentColor" stroke-width="2" stroke-linecap="round" stroke-linejoin="round" class="icon icon-tabler icons-tabler-outline icon-tabler-message-2-down"><path d="M5.358 3.061 C 3.731 3.315,2.417 4.584,2.083 6.227 C 2.002 6.622,2.000 6.744,2.000 11.000 C 2.000 15.256,2.002 15.378,2.083 15.773 C 2.357 17.118,3.249 18.195,4.512 18.704 C 5.168 18.968,5.447 19.000,7.105 19.000 L 8.578 19.000 10.019 20.435 C 10.984 21.397,11.519 21.900,11.637 21.960 C 11.869 22.076,12.132 22.076,12.363 21.960 C 12.609 21.835,13.363 21.070,13.478 20.827 C 13.607 20.556,13.579 20.312,13.386 20.021 C 13.056 19.525,12.550 19.329,12.143 19.541 L 12.026 19.602 10.783 18.365 C 9.610 17.199,9.528 17.125,9.323 17.064 C 9.138 17.010,8.851 17.000,7.421 17.000 C 5.605 17.000,5.494 16.990,5.083 16.781 C 4.816 16.646,4.449 16.297,4.281 16.017 C 3.993 15.539,4.005 15.751,4.005 11.000 C 4.005 7.102,4.010 6.718,4.073 6.477 C 4.201 5.988,4.543 5.546,5.014 5.265 C 5.479 4.986,5.109 5.000,12.028 5.002 C 18.979 5.005,18.529 4.987,19.017 5.281 C 19.294 5.448,19.618 5.787,19.772 6.071 C 19.994 6.482,19.999 6.554,19.999 9.763 C 20.000 13.018,19.998 12.986,20.249 13.229 C 20.442 13.416,20.647 13.487,20.997 13.488 C 21.348 13.490,21.556 13.418,21.751 13.229 C 22.003 12.985,22.000 13.028,22.000 9.669 C 22.000 6.797,21.996 6.611,21.921 6.243 C 21.628 4.806,20.637 3.680,19.245 3.204 C 18.646 2.999,18.690 3.000,11.960 3.004 C 6.959 3.007,5.631 3.018,5.358 3.061 M7.614 8.057 C 7.377 8.131,7.212 8.261,7.109 8.453 C 7.035 8.592,7.020 8.684,7.020 9.000 C 7.020 9.331,7.033 9.403,7.120 9.558 C 7.230 9.755,7.414 9.898,7.635 9.959 C 7.833 10.014,16.167 10.014,16.365 9.959 C 16.586 9.898,16.770 9.755,16.880 9.558 C 16.967 9.402,16.980 9.332,16.979 9.000 C 16.978 8.567,16.898 8.355,16.678 8.199 C 16.393 7.996,16.487 8.000,11.984 8.003 C 8.651 8.005,7.746 8.016,7.614 8.057 M7.614 12.057 C 7.377 12.131,7.212 12.261,7.109 12.453 C 7.035 12.592,7.020 12.684,7.020 13.000 C 7.020 13.331,7.033 13.403,7.120 13.558 C 7.230 13.755,7.414 13.898,7.635 13.959 C 7.832 14.014,14.168 14.014,14.365 13.959 C 14.586 13.898,14.770 13.755,14.880 13.558 C 14.967 13.402,14.980 13.332,14.979 13.000 C 14.978 12.567,14.898 12.355,14.678 12.199 C 14.398 11.999,14.411 12.000,10.984 12.003 C 8.472 12.005,7.744 12.017,7.614 12.057 M18.614 15.057 C 18.377 15.131,18.212 15.261,18.109 15.453 C 18.021 15.618,18.020 15.640,18.009 17.596 L 17.997 19.572 17.269 18.852 C 16.856 18.443,16.467 18.094,16.372 18.045 C 16.021 17.868,15.640 17.958,15.299 18.299 C 14.952 18.646,14.863 19.011,15.040 19.363 C 15.099 19.480,15.635 20.051,16.635 21.062 C 17.463 21.899,18.174 22.634,18.216 22.697 C 18.318 22.850,18.762 23.049,19.000 23.049 C 19.238 23.049,19.682 22.850,19.784 22.697 C 19.826 22.634,20.537 21.899,21.365 21.062 C 22.365 20.051,22.901 19.480,22.960 19.363 C 23.137 19.011,23.048 18.646,22.701 18.299 C 22.360 17.958,21.979 17.868,21.628 18.045 C 21.533 18.094,21.144 18.443,20.732 18.851 L 20.004 19.572 19.992 17.596 C 19.980 15.640,19.979 15.618,19.891 15.453 C 19.842 15.362,19.746 15.247,19.678 15.199 C 19.414 15.010,18.957 14.950,18.614 15.057 " stroke="none" fill="black" fill-rule="evenodd"></path></svg>