<svg xmlns="http://www.w3.org/2000/svg" width="24" height="24" viewBox="0 0 24 24" fill="none" stroke="currentColor" stroke-width="2" stroke-linecap="round" stroke-linejoin="round" class="icon icon-tabler icons-tabler-outline icon-tabler-folder-question"><path d="M4.499 3.043 C 3.383 3.230,2.461 4.048,2.114 5.160 L 2.020 5.460 2.020 11.500 L 2.020 17.540 2.114 17.840 C 2.418 18.816,3.149 19.554,4.140 19.886 L 4.420 19.980 9.812 19.991 C 13.394 19.998,15.255 19.988,15.356 19.961 C 15.584 19.900,15.768 19.758,15.880 19.558 C 15.967 19.402,15.980 19.332,15.979 19.000 C 15.977 18.469,15.852 18.247,15.455 18.071 C 15.364 18.031,14.209 18.016,10.020 18.000 L 4.700 17.980 4.516 17.872 C 4.415 17.813,4.284 17.700,4.225 17.623 C 3.987 17.311,4.000 17.655,4.000 11.522 C 4.000 5.182,3.978 5.628,4.303 5.303 C 4.605 5.002,4.618 5.000,6.737 5.000 L 8.580 5.000 9.960 6.383 C 10.719 7.143,11.421 7.814,11.520 7.873 L 11.700 7.980 15.480 8.000 C 19.716 8.022,19.404 7.999,19.717 8.321 C 19.987 8.600,20.000 8.690,20.000 10.300 C 20.000 11.872,20.017 12.005,20.249 12.229 C 20.442 12.416,20.647 12.487,21.000 12.488 C 21.368 12.490,21.600 12.402,21.787 12.189 C 21.995 11.952,22.009 11.802,21.992 10.020 C 21.977 8.480,21.973 8.410,21.884 8.140 C 21.563 7.165,20.821 6.424,19.861 6.122 L 19.540 6.021 15.980 6.009 L 12.421 5.997 10.980 4.563 C 9.613 3.200,9.529 3.125,9.323 3.064 C 9.134 3.008,8.816 3.001,6.903 3.005 C 5.691 3.007,4.609 3.025,4.499 3.043 M18.440 14.058 C 18.297 14.089,18.102 14.142,18.008 14.176 C 17.203 14.466,16.442 15.217,16.440 15.722 C 16.439 16.052,16.769 16.475,17.174 16.663 C 17.548 16.838,17.807 16.775,18.193 16.419 C 18.501 16.134,18.650 16.048,18.893 16.015 C 19.121 15.984,19.458 16.082,19.640 16.234 C 19.988 16.522,20.086 17.066,19.863 17.470 C 19.668 17.823,19.453 17.951,18.970 18.001 C 18.245 18.076,17.960 18.406,18.012 19.110 C 18.069 19.867,18.595 20.142,19.591 19.936 C 20.218 19.807,20.691 19.543,21.146 19.069 C 21.488 18.713,21.648 18.463,21.797 18.055 C 22.409 16.374,21.489 14.571,19.780 14.102 C 19.448 14.010,18.765 13.988,18.440 14.058 M18.614 21.057 C 18.221 21.180,18.039 21.435,18.009 21.906 C 17.962 22.621,18.306 23.000,19.000 23.000 C 19.698 23.000,20.043 22.616,19.989 21.900 C 19.963 21.563,19.859 21.327,19.678 21.199 C 19.414 21.010,18.957 20.950,18.614 21.057 " stroke="none" fill="black" fill-rule="evenodd"></path></svg>