<svg xmlns="http://www.w3.org/2000/svg" width="24" height="24" viewBox="0 0 24 24" fill="none" stroke="currentColor" stroke-width="2" stroke-linecap="round" stroke-linejoin="round" class="icon icon-tabler icons-tabler-outline icon-tabler-anchor"><path d="M11.358 2.061 C 9.731 2.315,8.417 3.584,8.083 5.227 C 7.700 7.105,8.756 9.031,10.540 9.711 C 10.716 9.778,10.892 9.843,10.930 9.855 C 10.996 9.876,11.000 10.152,11.000 14.902 L 11.000 19.927 10.830 19.900 C 8.921 19.596,7.074 18.349,6.046 16.669 C 5.589 15.923,5.214 14.929,5.105 14.175 L 5.081 14.010 5.245 13.984 C 5.553 13.935,5.759 13.794,5.893 13.540 C 6.017 13.305,6.016 12.691,5.890 12.453 C 5.786 12.256,5.623 12.131,5.371 12.055 C 5.108 11.976,2.892 11.976,2.629 12.055 C 2.224 12.177,2.040 12.428,2.009 12.900 C 1.968 13.544,2.247 13.919,2.824 13.991 L 3.056 14.020 3.107 14.380 C 3.231 15.236,3.509 16.106,3.940 16.980 C 4.401 17.914,4.895 18.607,5.621 19.337 C 8.349 22.077,12.483 22.777,15.940 21.084 C 17.767 20.189,19.196 18.759,20.082 16.940 C 20.494 16.094,20.772 15.215,20.893 14.380 L 20.944 14.020 21.171 13.992 C 21.537 13.946,21.748 13.814,21.893 13.540 C 22.017 13.305,22.016 12.691,21.890 12.453 C 21.786 12.256,21.623 12.131,21.371 12.055 C 21.108 11.976,18.892 11.976,18.629 12.055 C 18.224 12.177,18.040 12.428,18.009 12.900 C 17.970 13.512,18.239 13.906,18.750 13.983 L 18.920 14.009 18.895 14.175 C 18.819 14.704,18.544 15.550,18.274 16.090 C 17.352 17.933,15.678 19.291,13.725 19.777 C 13.513 19.830,13.263 19.885,13.170 19.900 L 13.000 19.927 13.000 14.902 C 13.000 10.152,13.004 9.876,13.070 9.855 C 14.342 9.450,15.237 8.646,15.704 7.488 C 16.090 6.530,16.090 5.469,15.705 4.516 C 15.172 3.197,14.001 2.269,12.605 2.058 C 12.144 1.989,11.816 1.990,11.358 2.061 M12.523 4.073 C 13.262 4.266,13.850 4.924,13.967 5.690 C 14.029 6.098,13.967 6.522,13.793 6.880 C 13.638 7.198,13.227 7.625,12.930 7.775 C 12.492 7.997,11.962 8.059,11.508 7.940 C 10.823 7.762,10.249 7.194,10.073 6.523 C 9.683 5.028,11.028 3.683,12.523 4.073 " stroke="none" fill="black" fill-rule="evenodd"></path></svg>