<svg xmlns="http://www.w3.org/2000/svg" width="24" height="24" viewBox="0 0 24 24" fill="none" stroke="currentColor" stroke-width="2" stroke-linecap="round" stroke-linejoin="round" class="icon icon-tabler icons-tabler-outline icon-tabler-music-discount"><path d="M8.614 3.057 C 8.377 3.131,8.212 3.261,8.109 3.453 L 8.020 3.620 8.009 8.570 C 8.004 11.293,7.990 13.520,7.978 13.520 C 7.967 13.520,7.855 13.469,7.729 13.406 C 7.245 13.164,6.548 13.000,6.000 13.000 C 4.635 13.000,3.253 13.787,2.569 14.953 C 1.320 17.083,2.233 19.785,4.512 20.704 C 5.231 20.994,6.023 21.070,6.757 20.921 C 8.384 20.589,9.589 19.384,9.921 17.757 C 9.997 17.383,10.000 17.200,10.000 13.184 L 10.000 9.000 14.000 9.000 L 18.000 9.000 18.000 11.110 C 18.000 12.400,18.016 13.276,18.041 13.365 C 18.148 13.750,18.437 13.962,18.896 13.991 C 19.381 14.022,19.699 13.882,19.880 13.558 L 19.980 13.380 19.980 8.500 L 19.980 3.620 19.891 3.453 C 19.785 3.256,19.622 3.131,19.371 3.055 C 19.107 2.976,8.867 2.978,8.614 3.057 M18.000 6.000 L 18.000 7.000 14.000 7.000 L 10.000 7.000 10.000 6.000 L 10.000 5.000 14.000 5.000 L 18.000 5.000 18.000 6.000 M20.620 15.046 C 20.384 15.167,15.154 20.407,15.039 20.637 C 14.863 20.990,14.953 21.355,15.299 21.701 C 15.645 22.047,16.010 22.137,16.363 21.961 C 16.613 21.836,21.836 16.613,21.961 16.363 C 22.137 16.010,22.047 15.645,21.701 15.299 C 21.361 14.959,20.968 14.867,20.620 15.046 M6.523 15.073 C 7.262 15.266,7.850 15.924,7.967 16.690 C 8.067 17.343,7.873 17.933,7.403 18.404 C 7.002 18.807,6.547 19.000,6.000 19.000 C 5.485 19.000,5.038 18.822,4.653 18.465 C 3.323 17.229,4.189 15.005,6.000 15.005 C 6.143 15.005,6.378 15.036,6.523 15.073 M15.614 15.057 C 15.221 15.180,15.039 15.435,15.009 15.906 C 14.962 16.621,15.306 17.000,16.000 17.000 C 16.698 17.000,17.043 16.616,16.989 15.900 C 16.963 15.563,16.859 15.327,16.678 15.199 C 16.414 15.010,15.957 14.950,15.614 15.057 M20.614 20.057 C 20.221 20.180,20.039 20.435,20.009 20.906 C 19.962 21.621,20.306 22.000,21.000 22.000 C 21.698 22.000,22.043 21.616,21.989 20.900 C 21.963 20.563,21.859 20.327,21.678 20.199 C 21.414 20.010,20.957 19.950,20.614 20.057 " stroke="none" fill="black" fill-rule="evenodd"></path></svg>