<svg xmlns="http://www.w3.org/2000/svg" width="24" height="24" viewBox="0 0 24 24" fill="none" stroke="currentColor" stroke-width="2" stroke-linecap="round" stroke-linejoin="round" class="icon icon-tabler icons-tabler-outline icon-tabler-brand-flutter"><path d="M11.660 2.066 C 11.472 2.122,11.210 2.376,7.294 6.293 C 4.312 9.275,3.102 10.510,3.039 10.637 C 2.924 10.868,2.924 11.132,3.039 11.363 C 3.163 11.610,6.390 14.837,6.637 14.961 C 6.868 15.076,7.132 15.076,7.363 14.961 C 7.586 14.849,18.709 3.755,18.873 3.480 C 18.967 3.322,18.980 3.259,18.978 2.960 C 18.975 2.436,18.808 2.187,18.371 2.055 C 18.087 1.970,11.947 1.979,11.660 2.066 M11.290 8.290 L 7.000 12.580 6.210 11.790 L 5.420 11.000 8.920 7.500 L 12.420 4.000 14.000 4.000 L 15.580 4.000 11.290 8.290 M13.660 10.066 C 13.473 10.122,13.281 10.305,10.794 12.793 C 8.915 14.672,8.101 15.512,8.039 15.637 C 7.924 15.868,7.924 16.132,8.040 16.363 C 8.151 16.585,13.250 21.712,13.520 21.873 L 13.700 21.980 16.500 21.980 L 19.300 21.980 19.486 21.871 C 19.965 21.589,20.170 21.056,19.960 20.637 C 19.899 20.514,19.189 19.776,17.646 18.230 L 15.421 16.000 17.627 13.790 C 18.839 12.574,19.865 11.517,19.906 11.440 C 19.962 11.334,19.979 11.216,19.978 10.960 C 19.975 10.436,19.808 10.187,19.371 10.055 C 19.088 9.970,13.946 9.980,13.660 10.066 M14.853 13.730 C 13.679 14.908,13.100 15.517,13.040 15.637 C 12.986 15.744,12.951 15.889,12.951 16.000 C 12.951 16.111,12.986 16.256,13.040 16.363 C 13.100 16.483,13.679 17.092,14.853 18.270 L 16.578 20.000 15.499 20.000 L 14.420 20.000 12.420 18.000 L 10.420 16.000 12.420 14.000 L 14.420 12.000 15.499 12.000 L 16.578 12.000 14.853 13.730 " stroke="none" fill="black" fill-rule="evenodd"></path></svg>