<svg xmlns="http://www.w3.org/2000/svg" width="24" height="24" viewBox="0 0 24 24" fill="none" stroke="currentColor" stroke-width="2" stroke-linecap="round" stroke-linejoin="round" class="icon icon-tabler icons-tabler-outline icon-tabler-square-chevron-down"><path d="M4.499 2.043 C 3.380 2.232,2.461 3.048,2.114 4.160 L 2.020 4.460 2.020 12.000 L 2.020 19.540 2.114 19.840 C 2.422 20.827,3.173 21.578,4.160 21.886 L 4.460 21.980 12.000 21.980 L 19.540 21.980 19.840 21.886 C 20.827 21.578,21.578 20.827,21.886 19.840 L 21.980 19.540 21.980 12.000 L 21.980 4.460 21.886 4.160 C 21.581 3.182,20.832 2.428,19.861 2.121 L 19.540 2.020 12.120 2.014 C 8.039 2.011,4.609 2.024,4.499 2.043 M19.310 4.061 C 19.589 4.144,19.856 4.411,19.939 4.690 C 19.993 4.870,20.000 5.755,20.000 12.001 C 20.000 17.907,19.991 19.138,19.945 19.290 C 19.872 19.533,19.707 19.740,19.484 19.872 L 19.300 19.980 12.000 19.980 L 4.700 19.980 4.516 19.872 C 4.415 19.813,4.284 19.700,4.225 19.623 C 3.986 19.309,4.000 19.795,4.000 12.022 C 4.000 5.758,4.007 4.870,4.061 4.690 C 4.140 4.421,4.412 4.143,4.673 4.063 C 4.964 3.974,19.009 3.971,19.310 4.061 M8.626 10.045 C 8.420 10.154,8.146 10.433,8.038 10.644 C 7.924 10.867,7.924 11.132,8.039 11.363 C 8.163 11.610,11.390 14.837,11.637 14.961 C 11.868 15.076,12.132 15.076,12.363 14.961 C 12.484 14.900,13.065 14.347,14.206 13.206 C 15.347 12.065,15.900 11.484,15.961 11.363 C 16.137 11.010,16.048 10.645,15.701 10.299 C 15.361 9.958,14.980 9.868,14.628 10.045 C 14.523 10.098,13.999 10.588,13.230 11.353 L 12.000 12.577 10.770 11.353 C 10.001 10.588,9.477 10.098,9.372 10.045 C 9.152 9.934,8.835 9.934,8.626 10.045 " stroke="none" fill="black" fill-rule="evenodd"></path></svg>