<svg xmlns="http://www.w3.org/2000/svg" width="24" height="24" viewBox="0 0 24 24" fill="none" stroke="currentColor" stroke-width="2" stroke-linecap="round" stroke-linejoin="round" class="icon icon-tabler icons-tabler-outline icon-tabler-sort-descending-2"><path d="M5.174 4.041 C 4.754 4.126,4.330 4.476,4.132 4.900 L 4.020 5.140 4.020 7.500 L 4.020 9.860 4.133 10.104 C 4.276 10.413,4.585 10.721,4.900 10.868 L 5.140 10.980 7.500 10.980 L 9.860 10.980 10.100 10.868 C 10.415 10.721,10.724 10.413,10.867 10.104 L 10.980 9.860 10.980 7.500 L 10.980 5.140 10.868 4.900 C 10.721 4.585,10.413 4.276,10.104 4.133 L 9.860 4.020 7.600 4.013 C 6.357 4.010,5.265 4.022,5.174 4.041 M16.614 5.057 C 16.377 5.131,16.212 5.261,16.109 5.453 L 16.020 5.620 16.009 10.597 L 15.999 15.574 15.269 14.852 C 14.856 14.443,14.467 14.094,14.372 14.045 C 14.021 13.868,13.640 13.958,13.299 14.299 C 12.952 14.646,12.863 15.011,13.040 15.363 C 13.099 15.480,13.635 16.051,14.635 17.062 C 15.463 17.899,16.174 18.634,16.216 18.697 C 16.318 18.850,16.762 19.049,17.000 19.049 C 17.238 19.049,17.682 18.850,17.784 18.697 C 17.826 18.634,18.537 17.899,19.365 17.062 C 20.365 16.051,20.901 15.480,20.960 15.363 C 21.137 15.011,21.048 14.646,20.701 14.299 C 20.360 13.958,19.979 13.868,19.628 14.045 C 19.533 14.094,19.144 14.443,18.731 14.852 L 18.002 15.574 17.991 10.597 L 17.980 5.620 17.891 5.453 C 17.842 5.362,17.746 5.247,17.678 5.199 C 17.414 5.010,16.957 4.950,16.614 5.057 M9.000 7.500 L 9.000 9.000 7.500 9.000 L 6.000 9.000 6.000 7.500 L 6.000 6.000 7.500 6.000 L 9.000 6.000 9.000 7.500 M5.174 13.041 C 4.754 13.126,4.330 13.476,4.132 13.900 L 4.020 14.140 4.020 16.500 L 4.020 18.860 4.133 19.104 C 4.276 19.413,4.585 19.721,4.900 19.868 L 5.140 19.980 7.500 19.980 L 9.860 19.980 10.100 19.868 C 10.415 19.721,10.724 19.413,10.867 19.104 L 10.980 18.860 10.980 16.500 L 10.980 14.140 10.868 13.900 C 10.721 13.585,10.413 13.276,10.104 13.133 L 9.860 13.020 7.600 13.013 C 6.357 13.010,5.265 13.022,5.174 13.041 M9.000 16.500 L 9.000 18.000 7.500 18.000 L 6.000 18.000 6.000 16.500 L 6.000 15.000 7.500 15.000 L 9.000 15.000 9.000 16.500 " stroke="none" fill="black" fill-rule="evenodd"></path></svg>