<svg xmlns="http://www.w3.org/2000/svg" width="24" height="24" viewBox="0 0 24 24" fill="none" stroke="currentColor" stroke-width="2" stroke-linecap="round" stroke-linejoin="round" class="icon icon-tabler icons-tabler-outline icon-tabler-mood-annoyed"><path d="M11.080 2.045 C 9.507 2.184,7.883 2.751,6.540 3.630 C 5.905 4.045,5.499 4.378,4.919 4.958 C 2.953 6.926,1.919 9.544,2.013 12.320 C 2.084 14.439,2.752 16.328,4.033 18.040 C 4.430 18.570,5.305 19.464,5.800 19.847 C 7.242 20.961,8.787 21.624,10.600 21.907 C 11.247 22.008,12.753 22.008,13.400 21.907 C 15.638 21.557,17.504 20.620,19.062 19.062 C 20.620 17.504,21.557 15.638,21.907 13.400 C 22.008 12.753,22.008 11.247,21.907 10.600 C 21.624 8.786,20.959 7.238,19.847 5.800 C 19.510 5.365,18.639 4.494,18.200 4.154 C 16.133 2.555,13.646 1.818,11.080 2.045 M12.734 4.041 C 14.574 4.216,16.228 4.976,17.554 6.256 C 20.043 8.658,20.702 12.394,19.183 15.499 C 18.749 16.387,18.223 17.105,17.496 17.801 C 16.876 18.394,16.262 18.819,15.471 19.200 C 13.267 20.265,10.733 20.265,8.529 19.200 C 7.477 18.693,6.612 18.015,5.847 17.100 C 3.848 14.711,3.440 11.302,4.816 8.500 C 6.162 5.760,8.867 4.049,11.920 4.005 C 12.129 4.003,12.495 4.019,12.734 4.041 M8.660 9.037 C 8.215 9.146,8.000 9.459,8.000 9.998 C 8.000 10.654,8.342 11.000,8.991 11.000 C 9.428 10.999,9.712 10.858,9.880 10.558 C 9.967 10.402,9.980 10.332,9.979 10.000 C 9.978 9.567,9.898 9.355,9.678 9.199 C 9.435 9.025,8.995 8.956,8.660 9.037 M14.660 9.037 C 14.215 9.146,14.000 9.459,14.000 9.998 C 14.000 10.654,14.342 11.000,14.991 11.000 C 15.428 10.999,15.712 10.858,15.880 10.558 C 15.967 10.402,15.980 10.332,15.979 10.000 C 15.978 9.567,15.898 9.355,15.678 9.199 C 15.435 9.025,14.995 8.956,14.660 9.037 M14.280 13.044 C 13.363 13.148,12.584 13.455,11.888 13.988 C 11.528 14.264,11.220 14.600,10.932 15.031 C 10.516 15.655,10.372 16.165,10.530 16.462 C 10.701 16.786,11.135 17.047,11.547 17.073 C 11.760 17.087,11.823 17.074,11.971 16.987 C 12.156 16.879,12.245 16.764,12.522 16.280 C 12.763 15.860,13.103 15.533,13.509 15.330 C 13.902 15.134,14.256 15.051,14.902 15.005 C 15.538 14.959,15.719 14.872,15.904 14.520 C 16.018 14.305,16.009 13.679,15.890 13.453 C 15.676 13.049,15.233 12.937,14.280 13.044 " stroke="none" fill="black" fill-rule="evenodd"></path></svg>