<svg xmlns="http://www.w3.org/2000/svg" width="24" height="24" viewBox="0 0 24 24" fill="none" stroke="currentColor" stroke-width="2" stroke-linecap="round" stroke-linejoin="round" class="icon icon-tabler icons-tabler-outline icon-tabler-number-10-small"><path d="M8.620 7.046 C 8.390 7.165,6.153 9.411,6.040 9.637 C 5.863 9.990,5.952 10.354,6.299 10.701 C 6.641 11.043,7.013 11.137,7.349 10.965 C 7.440 10.919,7.623 10.780,7.757 10.656 L 8.000 10.431 8.000 13.326 C 8.000 15.141,8.015 16.274,8.041 16.365 C 8.148 16.750,8.437 16.962,8.896 16.991 C 9.381 17.022,9.699 16.882,9.880 16.558 L 9.980 16.380 9.980 12.040 L 9.980 7.700 9.871 7.514 C 9.758 7.323,9.558 7.141,9.332 7.025 C 9.153 6.934,8.818 6.944,8.620 7.046 M14.499 7.040 C 13.363 7.246,12.461 8.048,12.114 9.160 L 12.020 9.460 12.020 12.000 L 12.020 14.540 12.114 14.840 C 12.422 15.827,13.174 16.579,14.160 16.886 C 14.594 17.021,15.406 17.021,15.840 16.886 C 16.826 16.579,17.578 15.827,17.886 14.840 L 17.980 14.540 17.980 12.000 L 17.980 9.460 17.886 9.160 C 17.580 8.178,16.810 7.407,15.861 7.129 C 15.500 7.023,14.832 6.980,14.499 7.040 M15.310 9.061 C 15.589 9.144,15.856 9.411,15.939 9.690 C 16.025 9.978,16.030 14.007,15.945 14.290 C 15.872 14.533,15.707 14.740,15.484 14.872 C 15.328 14.963,15.254 14.980,15.000 14.980 C 14.746 14.980,14.672 14.963,14.516 14.872 C 14.415 14.813,14.284 14.700,14.225 14.623 C 14.000 14.327,14.000 14.332,14.000 12.022 C 14.000 9.586,13.997 9.609,14.304 9.303 C 14.583 9.024,14.916 8.944,15.310 9.061 " stroke="none" fill="black" fill-rule="evenodd"></path></svg>