<svg xmlns="http://www.w3.org/2000/svg" width="24" height="24" viewBox="0 0 24 24" fill="none" stroke="currentColor" stroke-width="2" stroke-linecap="round" stroke-linejoin="round" class="icon icon-tabler icons-tabler-outline icon-tabler-om"><path d="M11.728 2.039 C 11.420 2.150,11.155 2.353,11.047 2.561 C 10.900 2.845,10.940 3.091,11.231 3.694 C 11.800 4.871,12.451 5.784,13.302 6.596 C 15.091 8.304,17.415 9.110,20.320 9.028 C 20.826 9.014,21.220 8.984,21.348 8.949 C 21.751 8.840,21.960 8.583,21.992 8.155 C 22.028 7.676,21.857 7.272,21.550 7.114 C 21.386 7.029,21.334 7.025,20.120 7.020 C 18.763 7.014,18.422 6.977,17.528 6.740 C 15.572 6.220,14.131 4.981,13.079 2.914 C 12.759 2.285,12.664 2.158,12.426 2.043 C 12.215 1.941,12.005 1.940,11.728 2.039 M16.626 2.045 C 16.420 2.154,16.146 2.433,16.038 2.644 C 15.924 2.868,15.924 3.132,16.040 3.363 C 16.162 3.607,18.393 5.838,18.637 5.960 C 18.990 6.137,19.354 6.048,19.701 5.701 C 20.048 5.354,20.137 4.990,19.960 4.637 C 19.842 4.400,17.608 2.162,17.372 2.044 C 17.152 1.934,16.835 1.935,16.626 2.045 M6.344 4.042 C 5.172 4.179,4.109 4.685,3.295 5.496 C 2.926 5.864,2.552 6.388,2.424 6.717 C 2.282 7.082,2.367 7.465,2.644 7.697 C 2.907 7.919,3.158 8.017,3.466 8.018 C 3.726 8.020,3.766 8.009,3.906 7.898 C 3.991 7.831,4.161 7.626,4.284 7.444 C 4.651 6.898,4.951 6.627,5.480 6.359 C 6.266 5.961,7.283 5.898,8.140 6.193 C 8.621 6.359,8.889 6.529,9.283 6.920 C 9.688 7.321,9.884 7.669,9.961 8.125 C 10.082 8.846,9.863 9.512,9.320 10.066 C 8.748 10.651,8.076 10.934,7.110 10.996 C 6.589 11.030,6.389 11.095,6.214 11.286 C 6.012 11.507,5.940 12.056,6.064 12.429 C 6.189 12.804,6.512 13.000,7.006 13.000 C 7.301 13.000,7.773 13.095,8.027 13.206 C 8.500 13.412,9.034 13.866,9.358 14.337 C 9.535 14.595,9.787 15.138,9.858 15.415 C 10.082 16.289,10.023 17.271,9.702 18.013 C 9.485 18.513,9.324 18.752,8.940 19.138 C 8.545 19.535,8.279 19.711,7.833 19.870 C 7.572 19.963,7.481 19.975,7.000 19.975 C 6.519 19.975,6.428 19.963,6.167 19.870 C 5.404 19.598,4.771 19.001,4.375 18.180 C 4.168 17.750,4.093 17.478,4.031 16.930 C 3.963 16.335,4.031 15.783,4.258 15.104 C 4.482 14.430,4.491 14.388,4.439 14.196 C 4.310 13.718,3.524 13.321,3.059 13.498 C 2.808 13.594,2.591 13.858,2.441 14.249 C 2.037 15.308,1.913 16.329,2.064 17.348 C 2.423 19.768,4.106 21.585,6.320 21.944 C 8.236 22.255,10.224 21.223,11.254 19.383 C 11.867 18.288,12.126 16.889,11.940 15.680 C 11.908 15.471,11.881 15.280,11.881 15.256 C 11.880 15.228,12.032 15.203,12.290 15.188 C 13.644 15.109,14.765 14.450,15.772 13.142 C 16.293 12.464,16.722 12.143,17.251 12.032 C 17.540 11.971,17.912 12.028,18.233 12.183 C 18.526 12.325,19.043 12.843,19.274 13.229 C 20.390 15.085,20.198 17.866,18.855 19.317 C 18.537 19.660,18.300 19.820,17.947 19.927 C 17.437 20.082,16.904 19.968,16.460 19.610 C 15.792 19.072,15.320 18.213,15.121 17.173 C 15.002 16.551,14.940 16.387,14.760 16.225 C 14.510 15.998,14.213 15.949,13.778 16.062 C 13.116 16.233,12.962 16.622,13.162 17.614 C 13.596 19.759,14.955 21.439,16.620 21.888 C 17.071 22.010,17.923 22.009,18.371 21.887 C 20.163 21.400,21.465 19.694,21.905 17.260 C 22.007 16.695,22.007 15.305,21.905 14.740 C 21.464 12.296,20.139 10.571,18.353 10.113 C 17.888 9.994,17.113 9.996,16.660 10.116 C 15.738 10.361,14.953 10.931,14.199 11.902 C 13.762 12.466,13.430 12.764,13.029 12.955 C 12.101 13.399,11.251 13.242,10.417 12.473 C 10.218 12.290,10.051 12.126,10.046 12.108 C 10.041 12.091,10.143 11.997,10.272 11.900 C 10.401 11.802,10.634 11.590,10.789 11.427 C 12.747 9.365,12.263 6.255,9.748 4.746 C 8.793 4.173,7.509 3.907,6.344 4.042 " stroke="none" fill="black" fill-rule="evenodd"></path></svg>