<svg xmlns="http://www.w3.org/2000/svg" width="24" height="24" viewBox="0 0 24 24" fill="none" stroke="currentColor" stroke-width="2" stroke-linecap="round" stroke-linejoin="round" class="icon icon-tabler icons-tabler-outline icon-tabler-brand-comedy-central"><path d="M10.340 3.024 C 10.252 3.033,10.027 3.059,9.840 3.083 C 8.247 3.279,6.652 3.957,5.380 4.979 C 4.605 5.602,4.280 6.003,4.280 6.340 C 4.280 6.798,4.881 7.398,5.340 7.398 C 5.586 7.398,5.788 7.283,6.222 6.896 C 7.388 5.854,8.586 5.281,10.020 5.076 C 10.783 4.967,11.908 5.022,12.660 5.205 C 15.420 5.877,17.522 8.198,17.924 11.020 C 18.033 11.783,17.978 12.908,17.795 13.660 C 17.246 15.915,15.564 17.787,13.380 18.573 C 11.358 19.301,9.166 19.077,7.334 17.956 C 6.948 17.720,6.671 17.508,6.226 17.107 C 5.799 16.723,5.588 16.602,5.343 16.601 C 4.890 16.598,4.280 17.206,4.280 17.660 C 4.280 17.899,4.436 18.159,4.779 18.493 C 5.446 19.142,6.145 19.631,7.020 20.061 C 9.569 21.314,12.443 21.314,14.980 20.060 C 15.927 19.593,16.613 19.101,17.357 18.357 C 18.101 17.613,18.593 16.927,19.060 15.980 C 20.123 13.828,20.289 11.446,19.535 9.160 C 18.782 6.878,17.121 4.984,14.940 3.921 C 14.062 3.493,13.267 3.244,12.320 3.101 C 11.911 3.039,10.662 2.991,10.340 3.024 M10.480 7.027 C 10.182 7.058,9.689 7.171,9.373 7.280 C 7.700 7.860,6.476 9.251,6.094 11.008 C 5.993 11.472,5.993 12.528,6.094 12.992 C 6.303 13.951,6.717 14.737,7.386 15.440 C 8.087 16.176,8.883 16.629,9.920 16.884 C 10.425 17.007,11.437 17.019,11.960 16.907 C 12.938 16.698,13.721 16.295,14.405 15.650 C 14.996 15.092,15.033 14.620,14.525 14.125 C 14.032 13.645,13.633 13.662,13.040 14.189 C 12.463 14.703,11.897 14.943,11.159 14.988 C 10.631 15.020,10.217 14.933,9.697 14.681 C 8.533 14.116,7.873 12.908,8.036 11.638 C 8.134 10.875,8.455 10.267,9.035 9.747 C 9.320 9.491,9.941 9.166,10.320 9.074 C 10.664 8.990,11.440 9.008,11.783 9.109 C 12.287 9.255,12.629 9.449,13.080 9.843 C 13.412 10.133,13.572 10.214,13.820 10.217 C 14.075 10.220,14.284 10.118,14.532 9.871 C 15.023 9.382,14.993 8.910,14.434 8.378 C 13.393 7.385,11.912 6.879,10.480 7.027 " stroke="none" fill="black" fill-rule="evenodd"></path></svg>