<svg xmlns="http://www.w3.org/2000/svg" width="24" height="24" viewBox="0 0 24 24" fill="none" stroke="currentColor" stroke-width="2" stroke-linecap="round" stroke-linejoin="round" class="icon icon-tabler icons-tabler-outline icon-tabler-reload"><path d="M11.320 3.024 C 9.326 3.259,7.968 3.778,6.568 4.840 C 4.240 6.606,2.895 9.429,3.013 12.304 C 3.115 14.770,4.073 16.872,5.870 18.571 C 6.559 19.222,7.188 19.656,8.060 20.083 C 10.182 21.122,12.570 21.283,14.830 20.539 C 17.868 19.539,20.183 16.931,20.818 13.791 C 20.978 13.001,20.963 12.639,20.759 12.391 C 20.424 11.985,19.574 11.920,19.218 12.272 C 19.062 12.426,19.011 12.573,18.879 13.238 C 18.815 13.562,18.706 13.997,18.638 14.204 C 17.591 17.358,14.445 19.351,11.156 18.943 C 9.272 18.709,7.588 17.744,6.440 16.239 C 4.325 13.468,4.582 9.547,7.039 7.079 C 8.092 6.020,9.358 5.366,10.880 5.093 C 11.360 5.007,12.552 4.997,13.040 5.074 C 14.385 5.288,15.583 5.837,16.615 6.713 C 16.946 6.993,17.460 7.554,17.671 7.866 L 17.763 8.000 16.288 8.000 C 14.718 8.000,14.581 8.014,14.322 8.199 C 14.100 8.357,14.020 8.568,14.020 9.000 C 14.020 9.331,14.033 9.403,14.120 9.558 C 14.231 9.756,14.416 9.900,14.636 9.959 C 14.846 10.015,20.137 10.020,20.346 9.964 C 20.583 9.900,20.767 9.761,20.880 9.558 L 20.980 9.380 20.980 6.500 L 20.980 3.620 20.889 3.450 C 20.724 3.140,20.329 2.970,19.874 3.011 C 19.439 3.051,19.141 3.274,19.041 3.635 C 19.018 3.718,19.000 4.316,19.000 5.030 L 19.000 6.280 18.570 5.835 C 17.114 4.326,15.443 3.443,13.420 3.114 C 12.961 3.040,11.660 2.984,11.320 3.024 " stroke="none" fill="black" fill-rule="evenodd"></path></svg>