<svg xmlns="http://www.w3.org/2000/svg" width="24" height="24" viewBox="0 0 24 24" fill="none" stroke="currentColor" stroke-width="2" stroke-linecap="round" stroke-linejoin="round" class="icon icon-tabler icons-tabler-outline icon-tabler-accessible-off"><path d="M2.626 2.045 C 2.257 2.239,1.951 2.673,1.951 3.000 C 1.951 3.327,2.064 3.474,3.193 4.610 L 4.256 5.679 4.155 5.790 C 3.681 6.309,2.950 7.567,2.638 8.400 C 1.751 10.767,1.720 13.096,2.544 15.447 C 2.762 16.068,3.229 16.999,3.606 17.561 C 5.602 20.543,8.922 22.214,12.493 22.034 C 14.455 21.935,16.452 21.201,17.995 20.011 L 18.330 19.753 19.395 20.812 C 20.082 21.494,20.523 21.902,20.637 21.960 C 20.989 22.137,21.354 22.048,21.701 21.701 C 22.048 21.355,22.137 20.990,21.961 20.637 C 21.898 20.511,20.566 19.148,17.353 15.920 C 14.868 13.423,12.795 11.340,12.747 11.292 C 11.753 10.289,3.631 2.223,3.560 2.168 C 3.265 1.942,2.910 1.895,2.626 2.045 M11.080 2.043 C 9.920 2.160,8.784 2.470,7.760 2.951 C 7.138 3.242,6.920 3.478,6.920 3.857 C 6.920 4.250,7.203 4.749,7.521 4.913 C 7.791 5.053,8.035 5.018,8.598 4.761 C 10.427 3.926,12.291 3.777,14.226 4.313 C 16.341 4.899,18.237 6.498,19.205 8.512 C 20.096 10.364,20.244 12.530,19.614 14.460 C 19.556 14.636,19.402 15.023,19.271 15.320 C 18.985 15.969,18.948 16.187,19.078 16.456 C 19.303 16.921,20.057 17.216,20.477 17.002 C 20.696 16.890,20.827 16.717,21.051 16.240 C 22.704 12.724,22.156 8.553,19.647 5.557 C 18.089 3.697,15.786 2.429,13.360 2.097 C 12.822 2.023,11.571 1.994,11.080 2.043 M11.637 6.055 C 11.365 6.113,11.044 6.313,10.859 6.538 C 10.367 7.139,10.394 8.067,10.913 8.366 C 10.998 8.414,11.101 8.518,11.144 8.596 C 11.295 8.876,11.643 9.022,12.080 8.989 C 12.549 8.954,12.888 8.779,13.164 8.430 C 13.838 7.577,13.388 6.272,12.344 6.053 C 12.051 5.991,11.930 5.992,11.637 6.055 M6.992 8.412 L 8.284 9.704 8.165 9.930 C 7.852 10.525,7.933 11.040,8.380 11.302 C 8.476 11.358,9.036 11.565,9.625 11.762 C 10.581 12.081,10.712 12.135,10.848 12.268 L 11.000 12.416 11.000 12.809 L 11.000 13.201 10.042 14.637 C 9.515 15.427,9.056 16.140,9.022 16.222 C 8.879 16.563,8.991 16.970,9.294 17.216 C 9.728 17.568,10.113 17.634,10.464 17.419 C 10.635 17.313,10.743 17.174,11.320 16.311 C 11.683 15.767,11.989 15.323,12.000 15.323 C 12.011 15.323,12.317 15.767,12.680 16.311 C 13.257 17.174,13.365 17.313,13.536 17.419 C 13.881 17.630,14.261 17.569,14.688 17.233 C 14.881 17.081,15.000 16.883,15.033 16.659 L 15.060 16.479 15.980 17.402 L 16.900 18.324 16.780 18.424 C 16.552 18.613,15.999 18.963,15.618 19.159 C 13.978 20.001,12.063 20.258,10.280 19.874 C 7.503 19.276,5.238 17.243,4.360 14.562 C 4.052 13.624,3.939 12.812,3.971 11.780 C 4.010 10.561,4.259 9.567,4.799 8.480 C 5.081 7.912,5.591 7.120,5.674 7.120 C 5.688 7.120,6.282 7.701,6.992 8.412 M14.560 9.595 C 13.973 9.788,13.784 9.917,13.662 10.209 C 13.482 10.641,13.776 11.414,14.186 11.585 C 14.385 11.668,14.680 11.651,15.048 11.535 C 15.687 11.334,15.902 11.168,15.999 10.805 C 16.063 10.564,15.963 10.112,15.787 9.853 C 15.529 9.471,15.167 9.395,14.560 9.595 " stroke="none" fill="black" fill-rule="evenodd"></path></svg>