<svg xmlns="http://www.w3.org/2000/svg" width="24" height="24" viewBox="0 0 24 24" fill="none" stroke="currentColor" stroke-width="2" stroke-linecap="round" stroke-linejoin="round" class="icon icon-tabler icons-tabler-outline icon-tabler-receipt-bitcoin"><path d="M6.499 2.043 C 5.390 2.231,4.488 3.024,4.114 4.140 L 4.020 4.420 4.000 12.780 C 3.979 21.724,3.971 21.345,4.173 21.647 C 4.297 21.832,4.689 22.038,4.920 22.038 C 5.226 22.040,5.627 21.891,5.780 21.719 C 5.824 21.669,6.311 21.328,6.863 20.959 L 7.866 20.289 8.663 21.079 C 9.515 21.924,9.687 22.049,10.000 22.049 C 10.307 22.049,10.487 21.921,11.270 21.147 L 12.000 20.425 12.730 21.147 C 13.513 21.921,13.693 22.049,14.000 22.049 C 14.313 22.049,14.485 21.924,15.337 21.079 L 16.134 20.289 17.332 21.088 C 17.990 21.527,18.601 21.912,18.690 21.943 C 19.146 22.104,19.669 21.936,19.880 21.558 L 19.980 21.380 19.980 12.920 L 19.980 4.460 19.886 4.160 C 19.581 3.182,18.832 2.428,17.861 2.121 L 17.540 2.020 12.120 2.014 C 9.139 2.011,6.609 2.024,6.499 2.043 M17.310 4.061 C 17.592 4.144,17.858 4.412,17.940 4.693 C 17.993 4.876,17.999 5.769,17.990 12.011 L 17.980 19.120 17.260 18.638 C 16.864 18.372,16.468 18.118,16.380 18.072 C 16.172 17.962,15.837 17.957,15.620 18.059 C 15.526 18.103,15.157 18.434,14.730 18.855 L 14.000 19.575 13.270 18.853 C 12.856 18.444,12.467 18.094,12.372 18.045 C 12.149 17.933,11.851 17.933,11.628 18.045 C 11.533 18.094,11.144 18.444,10.730 18.853 L 10.000 19.575 9.270 18.855 C 8.843 18.434,8.474 18.103,8.380 18.059 C 8.163 17.957,7.828 17.962,7.620 18.072 C 7.532 18.118,7.136 18.372,6.740 18.638 L 6.020 19.120 6.010 12.011 C 5.999 4.009,5.975 4.631,6.303 4.303 C 6.621 3.985,6.233 4.006,11.983 4.003 C 16.458 4.000,17.131 4.008,17.310 4.061 M9.614 5.057 C 9.260 5.168,9.058 5.416,9.013 5.794 L 8.991 5.983 8.752 6.029 C 8.272 6.120,8.042 6.389,8.009 6.900 C 7.968 7.532,8.251 7.922,8.797 7.987 L 9.000 8.011 9.000 10.996 L 9.000 13.982 8.756 14.028 C 8.272 14.120,8.042 14.388,8.009 14.900 C 7.969 15.530,8.252 15.923,8.792 15.987 L 8.990 16.010 9.013 16.208 C 9.074 16.715,9.428 17.000,10.000 17.000 C 10.574 17.000,10.919 16.723,10.983 16.210 L 11.009 16.000 11.499 16.000 L 11.989 16.000 12.013 16.203 C 12.074 16.715,12.426 17.000,13.000 17.000 C 13.607 17.000,13.937 16.710,13.989 16.131 L 14.013 15.860 14.363 15.690 C 15.035 15.363,15.587 14.721,15.843 13.969 C 15.970 13.599,15.976 13.552,15.976 13.000 C 15.976 12.447,15.970 12.402,15.842 12.027 C 15.756 11.774,15.632 11.521,15.496 11.317 L 15.283 11.000 15.496 10.683 C 15.632 10.479,15.756 10.226,15.842 9.973 C 15.970 9.598,15.976 9.553,15.976 9.000 C 15.976 8.448,15.970 8.401,15.843 8.031 C 15.586 7.278,15.042 6.646,14.366 6.314 L 14.012 6.140 13.988 5.874 C 13.949 5.416,13.766 5.174,13.371 5.055 C 13.021 4.950,12.588 5.009,12.322 5.199 C 12.165 5.310,12.042 5.550,12.012 5.803 L 11.989 6.000 11.500 6.000 L 11.010 6.000 10.983 5.794 C 10.948 5.531,10.835 5.310,10.678 5.199 C 10.414 5.010,9.957 4.950,9.614 5.057 M13.333 8.043 C 13.522 8.095,13.778 8.321,13.892 8.537 C 13.958 8.662,13.978 8.770,13.978 9.000 C 13.978 9.340,13.901 9.530,13.674 9.748 C 13.421 9.990,13.359 10.000,12.121 10.000 L 11.000 10.000 11.000 9.000 L 11.000 8.000 12.090 8.000 C 12.735 8.000,13.242 8.018,13.333 8.043 M13.333 12.043 C 13.522 12.095,13.778 12.321,13.892 12.537 C 13.958 12.662,13.978 12.770,13.978 13.000 C 13.978 13.340,13.901 13.530,13.674 13.748 C 13.421 13.990,13.359 14.000,12.121 14.000 L 11.000 14.000 11.000 13.000 L 11.000 12.000 12.090 12.000 C 12.735 12.000,13.242 12.018,13.333 12.043 " stroke="none" fill="black" fill-rule="evenodd"></path></svg>