<svg xmlns="http://www.w3.org/2000/svg" width="24" height="24" viewBox="0 0 24 24" fill="none" stroke="currentColor" stroke-width="2" stroke-linecap="round" stroke-linejoin="round" class="icon icon-tabler icons-tabler-outline icon-tabler-brand-storybook"><path d="M11.920 2.501 C 8.169 2.771,4.992 3.004,4.860 3.019 C 4.345 3.077,4.048 3.369,4.012 3.852 C 3.995 4.087,4.452 19.700,4.498 20.460 C 4.540 21.135,4.774 21.410,5.370 21.484 C 5.530 21.504,8.702 21.630,12.420 21.765 C 17.704 21.957,19.216 22.000,19.344 21.965 C 19.593 21.897,19.765 21.761,19.878 21.541 L 19.980 21.342 19.980 11.981 L 19.980 2.620 19.891 2.453 C 19.734 2.160,19.394 1.996,18.964 2.005 C 18.841 2.007,15.671 2.231,11.920 2.501 M18.000 12.026 L 18.000 19.972 17.490 19.949 C 17.210 19.936,14.619 19.840,11.734 19.734 L 6.487 19.542 6.463 19.021 C 6.423 18.190,6.033 4.954,6.047 4.941 C 6.054 4.934,8.004 4.792,10.380 4.624 C 12.756 4.457,14.768 4.311,14.850 4.299 L 15.000 4.279 15.000 4.492 C 15.000 5.145,15.341 5.486,15.997 5.488 C 16.675 5.491,17.000 5.150,17.000 4.435 L 17.000 4.164 17.130 4.142 C 17.248 4.122,17.433 4.108,17.850 4.087 L 18.000 4.080 18.000 12.026 M11.149 6.063 C 10.390 6.142,9.945 6.272,9.487 6.550 C 8.929 6.888,8.532 7.297,8.288 7.780 C 7.933 8.484,7.911 9.322,8.224 10.155 C 8.516 10.930,9.295 11.765,10.111 12.176 C 10.227 12.235,10.868 12.505,11.536 12.778 C 12.203 13.050,12.864 13.331,13.004 13.401 C 13.420 13.609,13.746 13.863,13.869 14.071 C 13.966 14.237,13.980 14.299,13.977 14.580 C 13.970 15.223,13.651 15.617,12.935 15.867 C 12.654 15.965,12.564 15.977,12.100 15.977 C 10.921 15.977,10.408 15.661,9.939 14.648 C 9.685 14.099,9.382 13.905,8.922 13.997 C 8.248 14.131,7.882 14.548,7.989 15.059 C 8.100 15.588,8.538 16.362,8.982 16.815 C 9.553 17.396,10.198 17.728,11.102 17.904 C 11.610 18.003,12.586 18.005,13.040 17.907 C 14.533 17.585,15.570 16.671,15.906 15.380 C 16.019 14.947,16.009 14.116,15.886 13.720 C 15.593 12.778,14.984 12.147,13.820 11.579 C 13.578 11.461,12.885 11.164,12.280 10.920 C 11.676 10.675,11.076 10.419,10.948 10.350 C 10.481 10.101,10.075 9.563,10.015 9.110 C 9.964 8.733,10.196 8.401,10.648 8.201 C 11.054 8.022,12.255 7.959,12.698 8.094 C 13.014 8.191,13.260 8.319,13.509 8.515 C 13.791 8.738,13.910 8.908,14.025 9.248 C 14.209 9.794,14.449 10.008,14.874 10.008 C 15.338 10.008,15.750 9.813,15.918 9.515 C 15.998 9.372,16.007 9.312,15.991 9.026 C 15.933 7.988,14.955 6.836,13.705 6.334 C 12.901 6.012,12.278 5.945,11.149 6.063 " stroke="none" fill="black" fill-rule="evenodd"></path></svg>