<svg xmlns="http://www.w3.org/2000/svg" width="24" height="24" viewBox="0 0 24 24" fill="none" stroke="currentColor" stroke-width="2" stroke-linecap="round" stroke-linejoin="round" class="icon icon-tabler icons-tabler-outline icon-tabler-brand-opera"><path d="M11.080 2.045 C 9.507 2.184,7.883 2.751,6.540 3.630 C 5.905 4.045,5.499 4.378,4.919 4.958 C 2.953 6.926,1.919 9.544,2.013 12.320 C 2.084 14.439,2.752 16.328,4.033 18.040 C 4.430 18.570,5.305 19.464,5.800 19.847 C 7.242 20.961,8.787 21.624,10.600 21.907 C 11.247 22.008,12.753 22.008,13.400 21.907 C 15.638 21.557,17.504 20.620,19.062 19.062 C 20.620 17.504,21.557 15.638,21.907 13.400 C 22.008 12.753,22.008 11.247,21.907 10.600 C 21.624 8.786,20.959 7.238,19.847 5.800 C 19.510 5.365,18.639 4.494,18.200 4.154 C 16.133 2.555,13.646 1.818,11.080 2.045 M12.734 4.041 C 14.574 4.216,16.228 4.976,17.554 6.256 C 20.043 8.658,20.702 12.394,19.183 15.499 C 18.749 16.387,18.223 17.105,17.496 17.801 C 16.876 18.394,16.262 18.819,15.471 19.200 C 13.267 20.265,10.733 20.265,8.529 19.200 C 7.477 18.693,6.612 18.015,5.847 17.100 C 3.848 14.711,3.440 11.302,4.816 8.500 C 6.162 5.760,8.867 4.049,11.920 4.005 C 12.129 4.003,12.495 4.019,12.734 4.041 M11.460 6.059 C 10.830 6.175,10.344 6.452,9.775 7.017 C 8.881 7.905,8.307 9.160,8.073 10.740 C 8.003 11.217,8.003 12.783,8.073 13.260 C 8.243 14.404,8.596 15.384,9.149 16.240 C 9.412 16.646,10.116 17.359,10.449 17.554 C 11.456 18.145,12.544 18.145,13.551 17.554 C 13.887 17.357,14.588 16.647,14.858 16.230 C 15.278 15.582,15.611 14.776,15.795 13.960 C 15.944 13.301,15.980 12.917,15.980 12.000 C 15.980 11.083,15.944 10.699,15.795 10.040 C 15.611 9.224,15.278 8.418,14.858 7.770 C 14.567 7.321,13.920 6.674,13.533 6.445 C 12.869 6.051,12.189 5.924,11.460 6.059 M12.516 8.173 C 13.142 8.557,13.703 9.625,13.906 10.820 C 14.000 11.372,14.000 12.628,13.906 13.180 C 13.624 14.841,12.720 16.099,11.890 15.985 C 11.122 15.880,10.367 14.710,10.093 13.200 C 9.997 12.673,9.997 11.335,10.094 10.800 C 10.346 9.397,11.020 8.276,11.758 8.036 C 11.960 7.970,12.278 8.027,12.516 8.173 " stroke="none" fill="black" fill-rule="evenodd"></path></svg>