<svg xmlns="http://www.w3.org/2000/svg" width="24" height="24" viewBox="0 0 24 24" fill="none" stroke="currentColor" stroke-width="2" stroke-linecap="round" stroke-linejoin="round" class="icon icon-tabler icons-tabler-outline icon-tabler-location-question"><path d="M20.896 2.000 C 20.673 2.046,2.794 8.499,2.529 8.630 C 2.261 8.762,1.946 9.094,1.808 9.390 C 1.715 9.589,1.701 9.672,1.700 10.001 C 1.700 10.350,1.711 10.404,1.829 10.644 C 2.089 11.173,2.005 11.122,5.825 13.033 L 9.260 14.752 10.972 18.181 C 12.877 21.995,12.827 21.910,13.356 22.171 C 13.596 22.289,13.651 22.300,14.000 22.300 C 14.350 22.300,14.404 22.289,14.647 22.169 C 14.987 22.002,15.320 21.652,15.437 21.340 C 15.533 21.081,15.546 20.725,15.463 20.568 C 15.292 20.241,14.817 19.982,14.385 19.981 L 14.110 19.980 12.479 16.717 C 11.581 14.923,10.798 13.397,10.738 13.325 C 10.654 13.225,9.919 12.841,7.505 11.633 C 4.745 10.252,4.392 10.065,4.480 10.032 C 5.261 9.737,19.297 4.684,19.307 4.693 C 19.314 4.701,18.833 6.055,18.238 7.702 C 17.642 9.350,17.118 10.812,17.073 10.953 C 16.906 11.471,17.051 11.832,17.522 12.071 C 17.797 12.211,18.101 12.268,18.339 12.223 C 18.512 12.190,18.775 11.966,18.878 11.763 C 19.051 11.424,21.973 3.250,21.990 3.060 C 22.021 2.703,21.771 2.209,21.484 2.063 C 21.337 1.988,21.088 1.961,20.896 2.000 M18.440 14.058 C 18.297 14.089,18.102 14.142,18.008 14.176 C 17.203 14.466,16.442 15.217,16.440 15.722 C 16.439 16.052,16.769 16.475,17.174 16.663 C 17.548 16.838,17.807 16.775,18.193 16.419 C 18.501 16.134,18.650 16.048,18.893 16.015 C 19.121 15.984,19.458 16.082,19.640 16.234 C 19.988 16.522,20.086 17.066,19.863 17.470 C 19.668 17.823,19.453 17.951,18.970 18.001 C 18.245 18.076,17.960 18.406,18.012 19.110 C 18.069 19.867,18.595 20.142,19.591 19.936 C 20.218 19.807,20.691 19.543,21.146 19.069 C 21.488 18.713,21.648 18.463,21.797 18.055 C 22.409 16.374,21.489 14.571,19.780 14.102 C 19.448 14.010,18.765 13.988,18.440 14.058 M18.614 21.057 C 18.221 21.180,18.039 21.435,18.009 21.906 C 17.962 22.621,18.306 23.000,19.000 23.000 C 19.698 23.000,20.043 22.616,19.989 21.900 C 19.963 21.563,19.859 21.327,19.678 21.199 C 19.414 21.010,18.957 20.950,18.614 21.057 " stroke="none" fill="black" fill-rule="evenodd"></path></svg>