<svg xmlns="http://www.w3.org/2000/svg" width="24" height="24" viewBox="0 0 24 24" fill="none" stroke="currentColor" stroke-width="2" stroke-linecap="round" stroke-linejoin="round" class="icon icon-tabler icons-tabler-outline icon-tabler-server-off"><path d="M2.626 2.045 C 2.257 2.239,1.951 2.673,1.951 3.000 C 1.951 3.276,2.080 3.484,2.547 3.964 L 2.965 4.392 2.802 4.606 C 2.593 4.881,2.340 5.366,2.216 5.732 C 2.029 6.280,2.000 6.587,2.000 8.029 C 2.000 9.223,2.009 9.411,2.082 9.772 C 2.243 10.562,2.566 11.174,3.155 11.810 L 3.331 12.000 3.155 12.190 C 2.566 12.826,2.243 13.438,2.082 14.228 C 2.009 14.590,2.000 14.777,2.000 16.000 C 2.000 17.224,2.009 17.410,2.083 17.773 C 2.311 18.892,2.985 19.851,3.956 20.436 C 4.285 20.635,4.810 20.832,5.243 20.921 C 5.622 20.998,5.804 21.000,11.991 21.000 C 18.681 21.000,18.690 21.000,19.180 20.826 L 19.340 20.770 19.900 21.319 C 20.208 21.621,20.540 21.909,20.637 21.959 C 20.988 22.137,21.353 22.049,21.701 21.701 C 22.048 21.355,22.137 20.990,21.961 20.637 C 21.887 20.490,17.804 16.349,12.728 11.272 C 7.836 6.381,3.509 2.112,3.372 2.044 C 3.152 1.934,2.835 1.935,2.626 2.045 M7.614 3.057 C 7.377 3.131,7.212 3.261,7.109 3.453 C 7.035 3.592,7.020 3.684,7.020 4.000 C 7.020 4.331,7.033 4.403,7.120 4.558 C 7.230 4.755,7.414 4.898,7.635 4.959 C 7.729 4.985,9.640 5.000,13.020 5.002 C 17.839 5.004,18.281 5.010,18.523 5.073 C 19.212 5.253,19.795 5.860,19.941 6.549 C 20.023 6.933,20.023 9.067,19.941 9.451 C 19.808 10.081,19.325 10.633,18.684 10.888 C 18.471 10.973,18.389 10.978,17.040 10.999 C 15.684 11.019,15.613 11.024,15.460 11.106 C 15.243 11.223,15.140 11.344,15.064 11.571 C 14.929 11.975,15.019 12.528,15.255 12.753 C 15.493 12.980,15.632 13.000,17.011 13.002 C 18.416 13.005,18.601 13.031,19.017 13.281 C 19.294 13.448,19.618 13.787,19.772 14.071 C 19.968 14.433,19.999 14.698,20.000 16.020 C 20.000 16.698,20.018 17.283,20.041 17.365 C 20.148 17.750,20.437 17.962,20.896 17.991 C 21.381 18.022,21.699 17.882,21.880 17.558 L 21.980 17.380 21.992 16.018 C 22.004 14.774,21.998 14.621,21.923 14.254 C 21.757 13.442,21.437 12.829,20.845 12.190 L 20.669 12.000 20.845 11.810 C 21.434 11.174,21.758 10.557,21.921 9.757 C 21.991 9.413,22.000 9.207,22.000 8.000 C 22.000 6.459,21.964 6.157,21.705 5.516 C 21.172 4.197,20.001 3.269,18.605 3.058 C 18.065 2.977,7.874 2.976,7.614 3.057 M5.250 6.670 L 6.080 7.501 6.040 7.640 C 5.981 7.847,5.992 8.212,6.064 8.429 C 6.200 8.838,6.530 9.022,7.073 8.991 C 7.242 8.981,7.407 8.961,7.440 8.946 C 7.483 8.927,7.801 9.220,8.540 9.960 L 9.579 11.000 7.658 11.000 C 5.585 11.000,5.500 10.993,5.083 10.781 C 4.806 10.641,4.446 10.293,4.271 9.998 C 4.018 9.569,3.992 9.360,4.008 7.875 C 4.022 6.584,4.023 6.579,4.128 6.313 C 4.237 6.040,4.349 5.840,4.395 5.840 C 4.409 5.840,4.794 6.214,5.250 6.670 M14.580 16.000 L 17.580 19.000 11.658 19.000 C 6.538 19.000,5.706 18.992,5.508 18.940 C 4.823 18.762,4.249 18.194,4.073 17.523 C 3.976 17.151,3.968 14.936,4.062 14.522 C 4.215 13.850,4.801 13.250,5.477 13.073 C 5.714 13.012,6.033 13.004,8.660 13.002 L 11.580 13.000 14.580 16.000 M6.614 15.057 C 6.221 15.180,6.039 15.435,6.009 15.906 C 5.962 16.621,6.306 17.000,7.000 17.000 C 7.698 17.000,8.043 16.616,7.989 15.900 C 7.963 15.563,7.859 15.327,7.678 15.199 C 7.414 15.010,6.957 14.950,6.614 15.057 " stroke="none" fill="black" fill-rule="evenodd"></path></svg>