<svg xmlns="http://www.w3.org/2000/svg" width="24" height="24" viewBox="0 0 24 24" fill="none" stroke="currentColor" stroke-width="2" stroke-linecap="round" stroke-linejoin="round" class="icon icon-tabler icons-tabler-outline icon-tabler-brand-stackoverflow"><path d="M9.620 4.824 C 9.421 4.933,9.333 5.035,9.218 5.291 C 8.959 5.868,9.076 6.372,9.523 6.601 C 9.714 6.699,17.378 9.190,17.643 9.241 C 18.058 9.319,18.359 9.155,18.564 8.739 C 18.740 8.381,18.768 7.975,18.632 7.742 C 18.581 7.655,18.465 7.531,18.373 7.467 C 18.251 7.381,17.176 7.013,14.294 6.072 C 10.774 4.922,10.348 4.792,10.060 4.776 C 9.813 4.762,9.713 4.773,9.620 4.824 M8.366 8.203 C 8.074 8.320,7.890 8.584,7.801 9.012 C 7.699 9.509,7.879 9.882,8.310 10.061 C 8.387 10.094,10.278 10.509,12.513 10.984 C 15.825 11.689,16.618 11.845,16.804 11.832 C 17.237 11.801,17.499 11.515,17.599 10.967 C 17.688 10.475,17.550 10.174,17.140 9.969 C 16.934 9.866,8.915 8.159,8.652 8.163 C 8.547 8.164,8.418 8.182,8.366 8.203 M7.820 11.666 C 7.508 11.831,7.365 12.086,7.331 12.543 C 7.314 12.768,7.325 12.881,7.377 13.019 C 7.458 13.229,7.690 13.445,7.909 13.513 C 7.992 13.539,9.932 13.757,12.220 13.998 C 15.470 14.340,16.419 14.428,16.560 14.400 C 16.659 14.380,16.753 14.363,16.769 14.362 C 16.846 14.357,17.102 14.080,17.170 13.927 C 17.283 13.671,17.309 13.207,17.223 12.981 C 17.137 12.756,16.894 12.543,16.656 12.483 C 16.396 12.418,8.580 11.600,8.232 11.602 C 8.046 11.603,7.897 11.626,7.820 11.666 M7.614 15.057 C 7.377 15.131,7.212 15.261,7.109 15.453 C 7.035 15.592,7.020 15.684,7.020 16.000 C 7.020 16.331,7.033 16.403,7.120 16.558 C 7.230 16.755,7.414 16.898,7.635 16.959 C 7.833 17.014,16.167 17.014,16.365 16.959 C 16.586 16.898,16.770 16.755,16.880 16.558 C 16.967 16.402,16.980 16.332,16.979 16.000 C 16.978 15.567,16.898 15.355,16.678 15.199 C 16.393 14.996,16.487 15.000,11.984 15.003 C 8.651 15.005,7.746 15.016,7.614 15.057 M3.614 16.057 C 3.377 16.131,3.212 16.261,3.109 16.453 C 3.024 16.612,3.020 16.664,3.020 17.580 C 3.020 18.475,3.026 18.560,3.114 18.840 C 3.238 19.240,3.437 19.609,3.679 19.891 C 4.107 20.391,4.570 20.702,5.160 20.886 L 5.460 20.980 12.000 20.980 L 18.540 20.980 18.840 20.886 C 19.827 20.578,20.578 19.827,20.886 18.840 C 20.974 18.560,20.980 18.475,20.980 17.580 C 20.980 16.659,20.976 16.613,20.889 16.450 C 20.724 16.140,20.329 15.970,19.874 16.011 C 19.439 16.051,19.141 16.274,19.041 16.635 C 19.019 16.715,19.000 17.079,19.000 17.444 C 19.000 18.362,18.905 18.624,18.484 18.872 L 18.300 18.980 12.000 18.980 L 5.700 18.980 5.516 18.872 C 5.326 18.760,5.155 18.568,5.072 18.373 C 5.044 18.305,5.015 17.932,5.001 17.440 C 4.979 16.701,4.968 16.604,4.889 16.453 C 4.841 16.362,4.746 16.247,4.678 16.199 C 4.414 16.010,3.957 15.950,3.614 16.057 " stroke="none" fill="black" fill-rule="evenodd"></path></svg>