<svg xmlns="http://www.w3.org/2000/svg" width="24" height="24" viewBox="0 0 24 24" fill="none" stroke="currentColor" stroke-width="2" stroke-linecap="round" stroke-linejoin="round" class="icon icon-tabler icons-tabler-outline icon-tabler-letter-z-small"><path d="M9.614 7.057 C 9.377 7.131,9.212 7.261,9.109 7.453 C 9.035 7.592,9.020 7.684,9.020 8.000 C 9.020 8.331,9.033 8.403,9.120 8.558 C 9.230 8.755,9.414 8.898,9.635 8.959 C 9.718 8.982,10.329 9.000,11.070 9.000 C 11.780 9.000,12.360 9.009,12.360 9.019 C 12.360 9.030,11.603 10.556,10.677 12.409 C 8.807 16.155,8.855 16.037,9.040 16.420 C 9.096 16.535,9.201 16.658,9.315 16.742 C 9.674 17.005,9.625 17.000,12.037 17.000 C 13.376 17.000,14.276 16.984,14.365 16.959 C 14.586 16.898,14.770 16.755,14.880 16.558 C 14.967 16.402,14.980 16.332,14.979 16.000 C 14.978 15.567,14.898 15.355,14.678 15.199 C 14.424 15.018,14.268 15.000,12.914 15.000 C 12.213 15.000,11.640 14.991,11.640 14.981 C 11.640 14.970,12.392 13.457,13.310 11.619 L 14.980 8.277 14.978 7.948 C 14.974 7.436,14.804 7.185,14.371 7.055 C 14.112 6.977,9.864 6.979,9.614 7.057 " stroke="none" fill="black" fill-rule="evenodd"></path></svg>