<svg xmlns="http://www.w3.org/2000/svg" width="24" height="24" viewBox="0 0 24 24" fill="none" stroke="currentColor" stroke-width="2" stroke-linecap="round" stroke-linejoin="round" class="icon icon-tabler icons-tabler-outline icon-tabler-blender"><path d="M11.614 2.057 C 11.257 2.169,11.058 2.415,11.012 2.803 L 10.989 3.000 8.364 3.002 C 6.017 3.004,5.712 3.012,5.477 3.073 C 4.806 3.249,4.238 3.823,4.060 4.508 C 3.971 4.847,3.971 9.153,4.060 9.492 C 4.223 10.118,4.691 10.638,5.316 10.888 C 5.529 10.974,5.609 10.979,6.899 10.999 L 8.258 11.020 8.568 12.720 C 8.738 13.655,8.882 14.458,8.888 14.505 C 8.897 14.570,8.822 14.648,8.566 14.841 C 7.806 15.413,7.280 16.259,7.083 17.227 C 7.009 17.588,7.000 17.776,7.000 18.948 C 7.000 20.373,7.017 20.519,7.225 20.930 C 7.361 21.199,7.801 21.639,8.070 21.775 C 8.529 22.008,8.360 22.000,13.000 22.000 C 17.640 22.000,17.471 22.008,17.930 21.775 C 18.196 21.640,18.638 21.200,18.771 20.937 C 18.981 20.523,19.000 20.358,19.000 18.941 C 19.000 17.793,18.990 17.585,18.921 17.243 C 18.721 16.262,18.197 15.415,17.434 14.840 C 17.175 14.645,17.103 14.570,17.113 14.504 C 17.120 14.458,17.503 12.346,17.963 9.811 C 18.480 6.965,18.800 5.105,18.800 4.948 C 18.800 4.465,18.613 4.025,18.235 3.621 C 17.960 3.327,17.571 3.108,17.205 3.040 C 17.086 3.018,16.544 3.000,16.000 3.000 L 15.010 3.000 14.983 2.794 C 14.930 2.393,14.743 2.167,14.371 2.055 C 14.117 1.979,11.859 1.981,11.614 2.057 M7.179 5.090 C 7.210 5.225,7.880 8.933,7.880 8.969 C 7.880 8.986,7.457 9.000,6.940 9.000 L 6.000 9.000 6.000 7.000 L 6.000 5.000 6.579 5.000 C 7.147 5.000,7.159 5.002,7.179 5.090 M16.787 5.090 C 16.775 5.139,16.413 7.124,15.983 9.500 C 15.552 11.876,15.191 13.861,15.179 13.910 L 15.158 14.000 13.000 14.000 L 10.842 14.000 10.821 13.910 C 10.809 13.861,10.448 11.876,10.017 9.500 C 9.587 7.124,9.225 5.140,9.213 5.090 L 9.191 5.000 13.000 5.000 L 16.809 5.000 16.787 5.090 M15.523 16.073 C 16.022 16.203,16.516 16.599,16.772 17.071 C 16.964 17.426,16.999 17.705,16.999 18.910 L 17.000 20.000 13.000 20.000 L 9.000 20.000 9.000 18.898 C 9.000 18.044,9.014 17.734,9.062 17.522 C 9.215 16.850,9.801 16.250,10.477 16.073 C 10.711 16.012,10.992 16.005,13.000 16.005 C 15.008 16.005,15.289 16.012,15.523 16.073 M12.614 17.057 C 12.221 17.180,12.039 17.435,12.009 17.906 C 11.962 18.621,12.306 19.000,13.000 19.000 C 13.698 19.000,14.043 18.616,13.989 17.900 C 13.963 17.563,13.859 17.327,13.678 17.199 C 13.414 17.010,12.957 16.950,12.614 17.057 " stroke="none" fill="black" fill-rule="evenodd"></path></svg>