<svg xmlns="http://www.w3.org/2000/svg" width="24" height="24" viewBox="0 0 24 24" fill="none" stroke="currentColor" stroke-width="2" stroke-linecap="round" stroke-linejoin="round" class="icon icon-tabler icons-tabler-outline icon-tabler-align-justified"><path d="M3.614 5.057 C 3.377 5.131,3.212 5.261,3.109 5.453 C 3.035 5.592,3.020 5.684,3.020 6.000 C 3.020 6.331,3.033 6.403,3.120 6.558 C 3.230 6.755,3.414 6.898,3.635 6.959 C 3.835 7.015,20.165 7.015,20.365 6.959 C 20.586 6.898,20.770 6.755,20.880 6.558 C 20.967 6.402,20.980 6.332,20.979 6.000 C 20.978 5.567,20.898 5.355,20.678 5.199 C 20.386 4.990,20.799 5.000,11.984 5.003 C 5.367 5.005,3.748 5.015,3.614 5.057 M3.614 11.057 C 3.377 11.131,3.212 11.261,3.109 11.453 C 3.035 11.592,3.020 11.684,3.020 12.000 C 3.020 12.331,3.033 12.403,3.120 12.558 C 3.230 12.755,3.414 12.898,3.635 12.959 C 3.835 13.015,20.165 13.015,20.365 12.959 C 20.586 12.898,20.770 12.755,20.880 12.558 C 20.967 12.402,20.980 12.332,20.979 12.000 C 20.978 11.567,20.898 11.355,20.678 11.199 C 20.386 10.990,20.799 11.000,11.984 11.003 C 5.367 11.005,3.748 11.015,3.614 11.057 M3.614 17.057 C 3.377 17.131,3.212 17.261,3.109 17.453 C 3.035 17.592,3.020 17.684,3.020 18.000 C 3.020 18.331,3.033 18.403,3.120 18.558 C 3.230 18.755,3.414 18.898,3.635 18.959 C 3.834 19.015,16.166 19.015,16.365 18.959 C 16.586 18.898,16.770 18.755,16.880 18.558 C 16.967 18.402,16.980 18.332,16.979 18.000 C 16.978 17.567,16.898 17.355,16.678 17.199 C 16.388 16.992,16.642 17.000,9.984 17.003 C 5.009 17.005,3.747 17.016,3.614 17.057 " stroke="none" fill="black" fill-rule="evenodd"></path></svg>