<svg xmlns="http://www.w3.org/2000/svg" width="24" height="24" viewBox="0 0 24 24" fill="none" stroke="currentColor" stroke-width="2" stroke-linecap="round" stroke-linejoin="round" class="icon icon-tabler icons-tabler-outline icon-tabler-oval"><path d="M11.345 2.043 C 10.482 2.162,9.593 2.525,8.826 3.070 C 8.386 3.382,7.551 4.216,7.213 4.680 C 6.509 5.645,6.037 6.587,5.646 7.800 C 5.376 8.642,5.190 9.526,5.072 10.540 C 5.006 11.111,5.006 12.889,5.072 13.460 C 5.398 16.262,6.363 18.535,7.897 20.115 C 8.796 21.041,9.868 21.659,11.000 21.905 C 11.476 22.008,12.524 22.008,13.000 21.905 C 14.700 21.535,16.199 20.364,17.307 18.540 C 18.152 17.150,18.697 15.439,18.928 13.460 C 18.994 12.889,18.994 11.111,18.928 10.540 C 18.768 9.169,18.451 7.912,17.980 6.780 C 17.677 6.052,17.288 5.367,16.787 4.680 C 16.450 4.217,15.614 3.382,15.179 3.074 C 14.516 2.604,13.725 2.253,12.980 2.100 C 12.595 2.020,11.725 1.990,11.345 2.043 M12.758 4.104 C 12.900 4.136,13.179 4.241,13.378 4.337 C 15.237 5.230,16.580 7.640,16.926 10.700 C 16.990 11.266,16.990 12.734,16.926 13.300 C 16.738 14.963,16.265 16.434,15.550 17.576 C 14.536 19.197,13.193 20.069,11.840 19.985 C 11.364 19.955,11.078 19.880,10.618 19.663 C 9.161 18.977,7.947 17.223,7.375 14.980 C 7.122 13.985,7.025 13.161,7.025 12.000 C 7.025 11.527,7.048 10.933,7.076 10.680 C 7.333 8.377,8.170 6.420,9.424 5.191 C 10.441 4.195,11.561 3.829,12.758 4.104 " stroke="none" fill="black" fill-rule="evenodd"></path></svg>