<svg xmlns="http://www.w3.org/2000/svg" width="24" height="24" viewBox="0 0 24 24" fill="none" stroke="currentColor" stroke-width="2" stroke-linecap="round" stroke-linejoin="round" class="icon icon-tabler icons-tabler-outline icon-tabler-letter-x"><path d="M6.755 3.015 C 6.442 3.127,6.087 3.432,5.998 3.665 C 5.938 3.823,5.955 4.125,6.034 4.300 C 6.075 4.388,7.163 6.149,8.454 8.214 C 9.744 10.278,10.800 11.982,10.800 12.000 C 10.800 12.018,9.744 13.722,8.454 15.786 C 7.163 17.851,6.075 19.612,6.034 19.700 C 5.944 19.899,5.939 20.205,6.024 20.382 C 6.111 20.567,6.402 20.826,6.652 20.942 C 7.039 21.123,7.399 21.050,7.683 20.733 C 7.758 20.649,8.756 19.081,9.900 17.250 C 11.044 15.418,11.989 13.920,12.000 13.920 C 12.011 13.920,12.956 15.418,14.100 17.250 C 15.244 19.081,16.242 20.649,16.317 20.733 C 16.601 21.050,16.961 21.123,17.348 20.942 C 17.598 20.826,17.889 20.567,17.976 20.382 C 18.061 20.205,18.056 19.899,17.966 19.700 C 17.925 19.612,16.837 17.851,15.546 15.786 C 14.256 13.722,13.200 12.018,13.200 12.000 C 13.200 11.982,14.256 10.278,15.546 8.214 C 16.837 6.149,17.925 4.388,17.966 4.300 C 18.056 4.101,18.061 3.795,17.976 3.618 C 17.896 3.449,17.621 3.193,17.397 3.078 C 17.303 3.030,17.125 2.982,17.001 2.971 C 16.729 2.946,16.526 3.034,16.317 3.267 C 16.242 3.351,15.244 4.919,14.100 6.750 C 12.956 8.582,12.011 10.080,12.000 10.080 C 11.989 10.080,11.044 8.582,9.900 6.750 C 8.756 4.919,7.758 3.351,7.683 3.267 C 7.426 2.982,7.099 2.893,6.755 3.015 " stroke="none" fill="black" fill-rule="evenodd"></path></svg>