<svg xmlns="http://www.w3.org/2000/svg" width="24" height="24" viewBox="0 0 24 24" fill="none" stroke="currentColor" stroke-width="2" stroke-linecap="round" stroke-linejoin="round" class="icon icon-tabler icons-tabler-outline icon-tabler-device-heart-monitor"><path d="M5.499 3.043 C 4.380 3.233,3.461 4.048,3.114 5.160 L 3.020 5.460 3.020 12.000 L 3.020 18.540 3.114 18.840 C 3.422 19.827,4.173 20.578,5.160 20.886 L 5.460 20.980 12.000 20.980 L 18.540 20.980 18.840 20.886 C 19.827 20.578,20.578 19.827,20.886 18.840 L 20.980 18.540 20.980 12.000 L 20.980 5.460 20.886 5.160 C 20.581 4.182,19.832 3.428,18.861 3.121 L 18.540 3.020 12.120 3.014 C 8.589 3.011,5.609 3.024,5.499 3.043 M18.310 5.061 C 18.452 5.103,18.571 5.178,18.697 5.303 C 18.978 5.584,19.000 5.703,19.000 6.946 L 19.000 7.998 16.350 8.009 C 13.704 8.020,13.700 8.020,13.535 8.108 C 13.353 8.206,13.184 8.388,13.088 8.589 C 13.053 8.661,13.015 8.720,13.002 8.720 C 12.990 8.720,12.725 8.211,12.414 7.588 C 12.103 6.965,11.800 6.399,11.742 6.330 C 11.601 6.162,11.260 6.000,10.988 5.972 C 10.725 5.945,10.466 6.049,10.297 6.251 C 10.239 6.320,10.009 6.741,9.786 7.188 L 9.381 8.000 7.190 8.000 L 5.000 8.000 5.000 6.947 C 5.000 5.702,5.022 5.585,5.304 5.303 C 5.623 4.983,5.120 5.006,11.983 5.003 C 17.353 5.000,18.131 5.007,18.310 5.061 M11.606 10.452 C 11.928 11.097,12.243 11.684,12.304 11.758 C 12.537 12.035,12.900 12.106,13.305 11.955 C 13.669 11.818,13.808 11.642,14.239 10.768 L 14.618 10.000 16.809 10.000 L 19.000 10.000 19.000 11.500 L 19.000 13.000 12.000 13.000 L 5.000 13.000 5.000 11.500 L 5.000 10.000 7.585 10.000 C 9.432 10.000,10.215 9.987,10.326 9.954 C 10.532 9.892,10.763 9.688,10.883 9.463 C 10.936 9.362,10.989 9.280,11.000 9.280 C 11.011 9.280,11.284 9.807,11.606 10.452 M19.000 16.554 C 19.000 18.242,18.989 18.342,18.779 18.618 C 18.718 18.698,18.585 18.813,18.484 18.872 L 18.300 18.980 12.000 18.980 L 5.700 18.980 5.516 18.872 C 5.415 18.813,5.284 18.700,5.225 18.623 C 5.006 18.336,5.000 18.283,5.000 16.575 L 5.000 15.000 12.000 15.000 L 19.000 15.000 19.000 16.554 M13.614 16.057 C 13.221 16.180,13.039 16.435,13.009 16.906 C 12.962 17.621,13.306 18.000,14.000 18.000 C 14.698 18.000,15.043 17.616,14.989 16.900 C 14.963 16.563,14.859 16.327,14.678 16.199 C 14.414 16.010,13.957 15.950,13.614 16.057 M16.614 16.057 C 16.221 16.180,16.039 16.435,16.009 16.906 C 15.962 17.621,16.306 18.000,17.000 18.000 C 17.698 18.000,18.043 17.616,17.989 16.900 C 17.963 16.563,17.859 16.327,17.678 16.199 C 17.414 16.010,16.957 15.950,16.614 16.057 " stroke="none" fill="black" fill-rule="evenodd"></path></svg>