<svg xmlns="http://www.w3.org/2000/svg" width="24" height="24" viewBox="0 0 24 24" fill="none" stroke="currentColor" stroke-width="2" stroke-linecap="round" stroke-linejoin="round" class="icon icon-tabler icons-tabler-outline icon-tabler-vector-off"><path d="M2.626 2.045 C 2.420 2.154,2.146 2.433,2.038 2.644 C 1.935 2.847,1.924 3.134,2.013 3.306 C 2.060 3.397,2.066 3.463,2.038 3.583 C 2.018 3.669,2.001 4.308,2.001 5.002 C 2.000 6.369,2.018 6.521,2.225 6.930 C 2.361 7.199,2.801 7.639,3.070 7.775 C 3.310 7.896,3.677 8.000,3.868 8.000 L 4.000 8.000 4.000 11.991 L 4.000 15.982 3.690 16.031 C 3.508 16.060,3.272 16.132,3.120 16.207 C 2.802 16.362,2.375 16.774,2.225 17.070 C 2.018 17.479,2.000 17.632,2.000 19.000 C 2.000 20.368,2.018 20.521,2.225 20.930 C 2.361 21.199,2.801 21.639,3.070 21.775 C 3.479 21.982,3.632 22.000,5.000 22.000 C 6.368 22.000,6.521 21.982,6.930 21.775 C 7.196 21.640,7.638 21.200,7.771 20.937 C 7.888 20.707,8.000 20.309,8.000 20.124 L 8.000 20.000 12.000 20.000 L 16.000 20.000 16.000 20.132 C 16.000 20.323,16.104 20.690,16.225 20.930 C 16.361 21.199,16.801 21.639,17.070 21.775 C 17.478 21.982,17.633 22.000,18.978 21.999 C 19.661 21.998,20.297 21.980,20.391 21.959 C 20.528 21.927,20.587 21.932,20.688 21.984 C 20.983 22.137,21.374 22.028,21.701 21.701 C 22.047 21.355,22.136 20.990,21.961 20.637 C 21.839 20.392,3.616 2.165,3.372 2.044 C 3.152 1.934,2.834 1.935,2.626 2.045 M17.477 2.073 C 16.806 2.249,16.238 2.823,16.060 3.508 C 16.027 3.634,16.000 3.796,16.000 3.868 L 16.000 4.000 12.406 4.000 C 8.561 4.000,8.604 3.998,8.322 4.199 C 8.100 4.357,8.020 4.568,8.020 5.000 C 8.020 5.331,8.033 5.403,8.120 5.558 C 8.230 5.755,8.414 5.898,8.635 5.959 C 8.727 5.985,10.095 6.000,12.390 6.000 L 16.000 6.000 16.000 6.132 C 16.000 6.543,16.233 7.042,16.596 7.404 C 16.958 7.767,17.457 8.000,17.868 8.000 L 18.000 8.000 18.000 11.610 C 18.000 13.905,18.015 15.273,18.041 15.365 C 18.148 15.750,18.437 15.962,18.896 15.991 C 19.381 16.022,19.699 15.882,19.880 15.558 L 19.980 15.380 19.991 11.690 L 20.002 8.000 20.133 8.000 C 20.323 8.000,20.691 7.896,20.930 7.775 C 21.196 7.640,21.638 7.200,21.771 6.937 C 21.979 6.527,22.000 6.352,21.999 5.014 C 21.999 3.682,21.974 3.463,21.781 3.083 C 21.551 2.628,21.022 2.203,20.523 2.073 C 20.134 1.972,17.866 1.972,17.477 2.073 M20.000 5.000 L 20.000 6.000 19.000 6.000 L 18.000 6.000 18.000 5.000 L 18.000 4.000 19.000 4.000 L 20.000 4.000 20.000 5.000 M4.300 5.720 L 4.578 6.000 4.289 6.000 L 4.000 6.000 4.000 5.720 C 4.000 5.566,4.005 5.440,4.011 5.440 C 4.017 5.440,4.147 5.566,4.300 5.720 M16.016 17.732 L 15.989 18.000 12.003 18.000 L 8.018 18.000 7.969 17.692 C 7.898 17.246,7.733 16.925,7.410 16.603 C 7.080 16.274,6.745 16.099,6.310 16.031 L 6.000 15.982 6.000 11.991 L 6.000 8.000 6.150 7.996 C 6.232 7.994,6.345 7.978,6.400 7.961 C 6.492 7.933,6.872 8.303,11.272 12.697 L 16.044 17.464 16.016 17.732 M6.000 19.000 L 6.000 20.000 5.000 20.000 L 4.000 20.000 4.000 19.000 L 4.000 18.000 5.000 18.000 L 6.000 18.000 6.000 19.000 M18.300 19.720 L 18.578 20.000 18.289 20.000 L 18.000 20.000 18.000 19.720 C 18.000 19.566,18.005 19.440,18.011 19.440 C 18.017 19.440,18.147 19.566,18.300 19.720 " stroke="none" fill="black" fill-rule="evenodd"></path></svg>