<svg xmlns="http://www.w3.org/2000/svg" width="24" height="24" viewBox="0 0 24 24" fill="none" stroke="currentColor" stroke-width="2" stroke-linecap="round" stroke-linejoin="round" class="icon icon-tabler icons-tabler-outline icon-tabler-tilt-shift-off"><path d="M2.626 2.045 C 2.420 2.154,2.146 2.433,2.038 2.644 C 1.924 2.867,1.924 3.132,2.039 3.363 C 2.102 3.488,3.168 4.582,5.701 7.120 L 9.274 10.700 9.149 11.060 C 9.030 11.400,9.024 11.452,9.025 12.000 C 9.025 12.521,9.036 12.613,9.133 12.900 C 9.444 13.833,10.167 14.556,11.100 14.867 C 11.387 14.964,11.479 14.975,12.000 14.975 C 12.548 14.976,12.600 14.970,12.940 14.851 L 13.300 14.725 15.099 16.522 C 16.819 18.239,16.894 18.321,16.819 18.380 C 16.509 18.622,15.923 18.971,15.377 19.239 C 14.694 19.574,14.532 19.702,14.439 19.982 C 14.340 20.283,14.506 20.828,14.782 21.104 C 15.002 21.324,15.200 21.382,15.513 21.318 C 16.021 21.213,17.152 20.615,17.933 20.039 L 18.326 19.749 19.393 20.810 C 20.526 21.936,20.673 22.049,21.000 22.049 C 21.477 22.049,22.049 21.477,22.049 21.000 C 22.049 20.593,22.976 21.546,8.840 7.423 C 5.206 3.793,3.487 2.102,3.372 2.044 C 3.152 1.934,2.835 1.935,2.626 2.045 M11.649 2.036 C 11.262 2.137,11.039 2.438,11.009 2.900 C 10.978 3.377,11.119 3.701,11.433 3.874 C 11.577 3.953,11.691 3.973,12.172 4.003 C 13.244 4.068,13.747 4.164,14.683 4.481 C 15.391 4.722,15.611 4.759,15.827 4.678 C 16.004 4.611,16.200 4.401,16.322 4.147 C 16.523 3.726,16.514 3.341,16.295 3.081 C 16.022 2.757,14.663 2.295,13.460 2.117 C 12.876 2.030,11.848 1.985,11.649 2.036 M8.480 2.687 C 8.262 2.726,8.163 2.764,7.700 2.989 C 7.077 3.293,6.880 3.569,6.964 4.021 C 7.042 4.437,7.323 4.829,7.627 4.945 C 7.881 5.042,8.099 4.995,8.704 4.717 C 9.258 4.461,9.431 4.328,9.538 4.071 C 9.619 3.876,9.616 3.739,9.523 3.440 C 9.341 2.856,8.985 2.599,8.480 2.687 M17.986 4.685 C 17.617 4.879,17.311 5.313,17.311 5.640 C 17.311 5.889,17.421 6.092,17.750 6.447 C 18.472 7.227,18.958 7.964,19.377 8.915 C 19.588 9.394,19.921 9.638,20.294 9.587 C 20.998 9.491,21.440 9.021,21.326 8.489 C 21.276 8.258,21.024 7.669,20.790 7.240 C 20.238 6.225,19.179 4.911,18.732 4.685 C 18.512 4.574,18.196 4.574,17.986 4.685 M3.357 7.557 C 3.184 7.612,3.041 7.724,2.925 7.896 C 2.699 8.230,2.371 9.197,2.199 10.040 C 2.029 10.868,1.950 12.038,2.041 12.365 C 2.147 12.749,2.426 12.953,2.890 12.988 C 3.373 13.024,3.699 12.884,3.874 12.567 C 3.954 12.422,3.973 12.309,4.004 11.808 C 4.072 10.706,4.178 10.165,4.517 9.204 C 4.780 8.457,4.783 8.254,4.534 7.963 C 4.284 7.672,3.665 7.458,3.357 7.557 M20.649 11.039 C 20.440 11.089,20.209 11.266,20.115 11.450 C 20.044 11.588,20.021 11.726,19.996 12.180 C 19.936 13.225,19.837 13.745,19.519 14.683 C 19.210 15.592,19.208 15.751,19.498 16.072 C 19.668 16.261,20.023 16.428,20.329 16.464 C 20.617 16.498,20.873 16.384,21.047 16.145 C 21.199 15.936,21.244 15.830,21.482 15.120 C 21.824 14.099,21.973 13.241,21.977 12.260 C 21.980 11.672,21.973 11.607,21.891 11.453 C 21.842 11.362,21.746 11.247,21.678 11.199 C 21.432 11.024,20.999 10.956,20.649 11.039 M3.545 14.444 C 3.310 14.500,2.924 14.720,2.821 14.858 C 2.593 15.164,2.598 15.407,2.847 16.000 C 3.272 17.011,4.008 18.114,4.797 18.921 C 5.147 19.278,5.374 19.409,5.640 19.409 C 6.117 19.409,6.689 18.837,6.689 18.360 C 6.689 18.104,6.582 17.915,6.197 17.497 C 5.823 17.090,5.412 16.550,5.164 16.140 C 4.994 15.860,4.560 14.987,4.560 14.927 C 4.560 14.848,4.250 14.542,4.102 14.475 C 3.926 14.396,3.786 14.388,3.545 14.444 M8.140 19.346 C 7.938 19.453,7.772 19.638,7.663 19.880 C 7.474 20.301,7.489 20.662,7.705 20.919 C 7.977 21.241,9.369 21.712,10.600 21.898 C 11.179 21.985,12.136 22.022,12.344 21.965 C 12.584 21.899,12.767 21.761,12.880 21.558 C 12.967 21.402,12.980 21.332,12.979 21.000 C 12.978 20.687,12.962 20.591,12.890 20.453 C 12.728 20.147,12.405 20.000,11.892 20.000 C 11.116 20.000,10.282 19.844,9.311 19.518 C 8.563 19.267,8.351 19.236,8.140 19.346 " stroke="none" fill="black" fill-rule="evenodd"></path></svg>