<svg xmlns="http://www.w3.org/2000/svg" width="24" height="24" viewBox="0 0 24 24" fill="none" stroke="currentColor" stroke-width="2" stroke-linecap="round" stroke-linejoin="round" class="icon icon-tabler icons-tabler-outline icon-tabler-rotate-3d"><path d="M11.614 2.057 C 11.377 2.131,11.212 2.261,11.109 2.453 C 11.035 2.592,11.020 2.684,11.020 3.000 C 11.020 3.331,11.033 3.403,11.120 3.558 C 11.232 3.758,11.420 3.903,11.636 3.955 C 11.715 3.974,12.050 4.010,12.380 4.034 C 13.062 4.084,13.424 4.153,13.940 4.329 C 15.671 4.919,17.081 6.328,17.671 8.060 C 17.923 8.799,17.997 9.396,17.999 10.698 L 18.000 11.575 17.270 10.853 C 16.856 10.444,16.467 10.094,16.372 10.045 C 16.021 9.868,15.640 9.958,15.299 10.299 C 14.952 10.646,14.863 11.011,15.040 11.363 C 15.166 11.614,18.337 14.793,18.609 14.941 C 18.878 15.088,19.104 15.084,19.445 14.930 C 19.604 14.858,19.739 14.765,19.784 14.697 C 19.826 14.634,20.537 13.899,21.365 13.062 C 22.365 12.051,22.901 11.480,22.960 11.363 C 23.137 11.011,23.048 10.646,22.701 10.299 C 22.360 9.958,21.979 9.868,21.628 10.045 C 21.533 10.094,21.144 10.444,20.730 10.853 L 20.000 11.575 20.000 10.566 C 20.000 9.129,19.913 8.474,19.595 7.500 C 19.229 6.382,18.612 5.352,17.801 4.504 C 16.438 3.080,14.677 2.223,12.740 2.041 C 12.169 1.988,11.820 1.993,11.614 2.057 M7.737 8.536 C 7.647 8.564,6.477 9.245,5.137 10.049 C 3.797 10.853,2.628 11.541,2.540 11.578 C 2.287 11.683,2.127 11.865,2.048 12.139 C 1.984 12.361,1.980 12.608,1.999 15.340 L 2.020 18.300 2.128 18.484 C 2.187 18.585,2.299 18.716,2.377 18.775 C 2.454 18.834,3.584 19.522,4.889 20.305 C 6.193 21.087,7.314 21.768,7.380 21.818 C 7.607 21.989,7.750 22.040,8.000 22.040 C 8.258 22.040,8.398 21.987,8.640 21.801 C 8.717 21.742,9.842 21.057,11.140 20.280 C 12.438 19.502,13.559 18.821,13.632 18.767 C 13.705 18.712,13.813 18.585,13.872 18.484 L 13.980 18.300 14.000 15.340 C 14.020 12.486,14.018 12.372,13.943 12.166 C 13.851 11.910,13.615 11.661,13.323 11.509 C 13.209 11.450,12.060 10.768,10.772 9.995 C 9.483 9.221,8.347 8.564,8.248 8.534 C 8.031 8.469,7.951 8.469,7.737 8.536 M9.563 11.606 C 10.375 12.093,11.040 12.502,11.040 12.516 C 11.039 12.529,10.364 12.948,9.538 13.447 L 8.036 14.354 6.525 13.447 C 5.693 12.948,5.009 12.524,5.004 12.505 C 4.990 12.454,7.972 10.677,8.033 10.700 C 8.063 10.711,8.751 11.119,9.563 11.606 M5.693 15.280 L 6.998 16.060 6.999 17.648 L 7.000 19.236 5.500 18.336 L 4.000 17.436 4.000 15.854 L 4.000 14.273 4.194 14.387 C 4.301 14.449,4.976 14.851,5.693 15.280 M12.000 15.878 L 12.000 17.436 10.500 18.336 L 9.000 19.236 9.002 17.668 L 9.004 16.100 10.472 15.212 C 11.279 14.723,11.954 14.323,11.970 14.322 C 11.987 14.321,12.000 15.021,12.000 15.878 " stroke="none" fill="black" fill-rule="evenodd"></path></svg>