<svg xmlns="http://www.w3.org/2000/svg" width="24" height="24" viewBox="0 0 24 24" fill="none" stroke="currentColor" stroke-width="2" stroke-linecap="round" stroke-linejoin="round" class="icon icon-tabler icons-tabler-outline icon-tabler-brand-ctemplar"><path d="M10.600 2.045 C 8.364 2.171,6.124 2.678,4.056 3.525 C 3.412 3.789,3.147 3.942,2.837 4.229 C 2.449 4.589,2.188 5.049,2.064 5.593 C 1.973 5.996,1.984 6.303,2.118 7.089 C 2.438 8.955,2.945 10.685,3.666 12.374 C 4.042 13.255,4.937 15.000,5.239 15.440 C 5.306 15.539,5.535 15.881,5.747 16.200 C 7.003 18.090,8.628 19.855,10.434 21.290 C 10.728 21.524,11.061 21.759,11.174 21.812 C 11.716 22.068,12.333 22.057,12.878 21.781 C 13.334 21.550,14.745 20.338,15.680 19.374 C 18.941 16.014,21.078 11.781,21.882 7.089 C 21.947 6.709,22.000 6.280,22.000 6.137 C 22.000 5.235,21.475 4.327,20.687 3.868 C 20.265 3.622,18.974 3.132,17.940 2.826 C 15.722 2.168,13.187 1.898,10.600 2.045 M13.220 4.040 C 14.041 4.088,14.751 4.170,15.500 4.305 C 16.315 4.451,17.628 4.782,17.652 4.847 C 17.656 4.859,17.534 4.964,17.380 5.081 C 16.742 5.565,16.197 6.080,14.174 8.108 C 13.004 9.281,12.026 10.240,11.999 10.240 C 11.972 10.240,10.994 9.281,9.825 8.108 C 7.804 6.080,7.259 5.566,6.620 5.081 C 6.466 4.964,6.344 4.859,6.348 4.847 C 6.372 4.782,7.677 4.454,8.500 4.306 C 9.998 4.037,11.606 3.947,13.220 4.040 M4.552 6.144 C 4.858 6.279,5.364 6.618,5.800 6.982 C 6.254 7.360,9.200 10.273,9.200 10.344 C 9.200 10.371,9.102 10.480,8.983 10.587 C 8.863 10.693,8.207 11.326,7.524 11.993 L 6.284 13.206 6.002 12.644 C 5.094 10.832,4.458 8.875,4.097 6.780 C 4.044 6.472,4.001 6.169,4.000 6.106 C 4.000 5.995,4.003 5.994,4.170 6.022 C 4.264 6.037,4.435 6.092,4.552 6.144 M20.000 6.110 C 19.999 6.170,19.956 6.472,19.903 6.780 C 19.534 8.919,18.910 10.823,17.948 12.745 L 17.615 13.410 16.197 11.905 C 15.418 11.077,14.775 10.385,14.769 10.368 C 14.753 10.318,17.773 7.337,18.200 6.982 C 18.797 6.484,19.386 6.123,19.740 6.037 C 19.966 5.982,20.000 5.992,20.000 6.110 M11.073 12.146 C 11.543 12.571,11.730 12.678,12.000 12.678 C 12.268 12.678,12.457 12.571,12.900 12.167 C 13.120 11.966,13.311 11.802,13.325 11.801 C 13.351 11.800,16.385 15.005,16.471 15.125 C 16.514 15.186,16.489 15.241,16.287 15.530 C 15.255 17.005,13.812 18.537,12.366 19.693 C 12.182 19.840,12.018 19.960,12.000 19.960 C 11.895 19.960,10.802 19.012,10.025 18.246 C 9.118 17.352,8.302 16.384,7.590 15.358 L 7.325 14.976 8.972 13.370 C 9.879 12.488,10.626 11.764,10.633 11.763 C 10.641 11.761,10.839 11.934,11.073 12.146 " stroke="none" fill="black" fill-rule="evenodd"></path></svg>