<svg xmlns="http://www.w3.org/2000/svg" width="24" height="24" viewBox="0 0 24 24" fill="none" stroke="currentColor" stroke-width="2" stroke-linecap="round" stroke-linejoin="round" class="icon icon-tabler icons-tabler-outline icon-tabler-file-stack"><path d="M6.499 2.043 C 5.393 2.228,4.488 3.024,4.114 4.140 L 4.020 4.420 4.009 8.311 C 4.001 10.892,4.011 12.253,4.039 12.355 C 4.144 12.747,4.433 12.961,4.896 12.991 C 5.381 13.022,5.699 12.882,5.880 12.558 L 5.980 12.380 6.000 8.560 C 6.022 4.280,5.999 4.597,6.321 4.283 C 6.622 3.992,6.514 4.000,9.947 4.000 L 13.000 4.000 13.000 5.632 C 13.000 7.399,13.010 7.507,13.225 7.930 C 13.361 8.199,13.801 8.639,14.070 8.775 C 14.493 8.990,14.601 9.000,16.368 9.000 L 18.000 9.000 18.000 10.610 C 18.000 11.565,18.017 12.279,18.041 12.365 C 18.148 12.750,18.437 12.962,18.896 12.991 C 19.381 13.022,19.699 12.882,19.880 12.558 L 19.980 12.380 19.980 10.000 L 19.980 7.620 19.890 7.452 C 19.841 7.360,19.724 7.231,19.630 7.165 C 19.498 7.073,15.263 2.838,14.719 2.254 C 14.473 1.991,14.626 2.000,10.463 2.005 C 8.393 2.007,6.609 2.025,6.499 2.043 M15.800 6.220 L 16.579 7.000 15.790 7.000 L 15.000 7.000 15.000 6.220 C 15.000 5.791,15.005 5.440,15.010 5.440 C 15.016 5.440,15.371 5.791,15.800 6.220 M4.614 14.057 C 4.377 14.131,4.212 14.261,4.109 14.453 C 4.035 14.592,4.020 14.684,4.020 15.000 C 4.020 15.331,4.033 15.403,4.120 15.558 C 4.230 15.755,4.414 15.898,4.635 15.959 C 4.835 16.015,19.165 16.015,19.365 15.959 C 19.586 15.898,19.770 15.755,19.880 15.558 C 19.967 15.402,19.980 15.332,19.979 15.000 C 19.978 14.567,19.898 14.355,19.678 14.199 C 19.387 13.991,19.720 14.000,11.984 14.003 C 6.188 14.005,4.747 14.016,4.614 14.057 M4.614 17.057 C 4.377 17.131,4.212 17.261,4.109 17.453 C 4.035 17.592,4.020 17.684,4.020 18.000 C 4.020 18.331,4.033 18.403,4.120 18.558 C 4.230 18.755,4.414 18.898,4.635 18.959 C 4.835 19.015,19.165 19.015,19.365 18.959 C 19.586 18.898,19.770 18.755,19.880 18.558 C 19.967 18.402,19.980 18.332,19.979 18.000 C 19.978 17.567,19.898 17.355,19.678 17.199 C 19.387 16.991,19.720 17.000,11.984 17.003 C 6.188 17.005,4.747 17.016,4.614 17.057 M4.614 20.057 C 4.377 20.131,4.212 20.261,4.109 20.453 C 4.035 20.592,4.020 20.684,4.020 21.000 C 4.020 21.331,4.033 21.403,4.120 21.558 C 4.230 21.755,4.414 21.898,4.635 21.959 C 4.835 22.015,19.165 22.015,19.365 21.959 C 19.586 21.898,19.770 21.755,19.880 21.558 C 19.967 21.402,19.980 21.332,19.979 21.000 C 19.978 20.567,19.898 20.355,19.678 20.199 C 19.387 19.991,19.720 20.000,11.984 20.003 C 6.188 20.005,4.747 20.016,4.614 20.057 " stroke="none" fill="black" fill-rule="evenodd"></path></svg>