<svg xmlns="http://www.w3.org/2000/svg" width="24" height="24" viewBox="0 0 24 24" fill="none" stroke="currentColor" stroke-width="2" stroke-linecap="round" stroke-linejoin="round" class="icon icon-tabler icons-tabler-outline icon-tabler-pyramid"><path d="M11.407 1.102 C 11.034 1.229,10.748 1.412,10.520 1.669 C 10.322 1.891,1.737 15.780,1.601 16.097 C 1.555 16.206,1.497 16.422,1.473 16.578 C 1.386 17.138,1.619 17.825,2.037 18.242 C 2.239 18.443,2.438 18.554,4.160 19.428 C 8.274 21.516,10.932 22.821,11.240 22.901 C 11.653 23.010,12.348 23.010,12.760 22.901 C 12.966 22.847,13.646 22.531,14.940 21.887 C 18.813 19.962,21.707 18.479,21.880 18.331 C 22.433 17.857,22.682 16.939,22.447 16.238 C 22.382 16.046,21.187 14.076,18.004 8.918 C 15.609 5.036,13.575 1.776,13.485 1.674 C 12.971 1.092,12.122 0.858,11.407 1.102 M10.985 20.589 C 10.953 20.621,3.479 16.858,3.489 16.816 C 3.495 16.791,5.183 14.045,7.240 10.713 L 10.980 4.655 10.990 12.614 C 10.996 16.992,10.993 20.580,10.985 20.589 M20.520 16.835 C 20.520 16.858,13.066 20.600,13.020 20.600 C 13.009 20.600,13.000 17.006,13.000 12.613 L 13.000 4.627 16.760 10.719 C 18.828 14.069,20.520 16.821,20.520 16.835 " stroke="none" fill="black" fill-rule="evenodd"></path></svg>