<svg xmlns="http://www.w3.org/2000/svg" width="24" height="24" viewBox="0 0 24 24" fill="none" stroke="currentColor" stroke-width="2" stroke-linecap="round" stroke-linejoin="round" class="icon icon-tabler icons-tabler-outline icon-tabler-radius-bottom-left"><path d="M4.614 4.057 C 4.377 4.131,4.212 4.261,4.109 4.453 L 4.020 4.620 4.008 8.000 C 4.000 10.278,4.010 11.530,4.040 11.840 C 4.306 14.575,5.773 17.005,8.080 18.531 C 8.918 19.086,10.103 19.584,11.092 19.797 C 11.975 19.987,12.281 20.000,15.860 20.000 C 17.987 20.000,19.273 19.985,19.365 19.959 C 19.586 19.898,19.770 19.755,19.880 19.558 C 19.967 19.402,19.980 19.332,19.979 19.000 C 19.977 18.469,19.852 18.247,19.455 18.071 C 19.366 18.032,18.531 18.015,15.760 17.996 C 11.945 17.970,12.028 17.974,11.214 17.764 C 8.804 17.144,6.831 15.152,6.217 12.720 C 6.031 11.983,6.028 11.919,6.004 8.180 L 5.980 4.620 5.891 4.453 C 5.842 4.362,5.746 4.247,5.678 4.199 C 5.414 4.010,4.957 3.950,4.614 4.057 " stroke="none" fill="black" fill-rule="evenodd"></path></svg>