<svg xmlns="http://www.w3.org/2000/svg" width="24" height="24" viewBox="0 0 24 24" fill="none" stroke="currentColor" stroke-width="2" stroke-linecap="round" stroke-linejoin="round" class="icon icon-tabler icons-tabler-outline icon-tabler-scan-position"><path d="M5.499 3.043 C 4.392 3.229,3.472 4.039,3.118 5.140 C 3.039 5.386,3.026 5.528,3.010 6.300 C 2.998 6.873,3.007 7.238,3.036 7.344 C 3.144 7.748,3.428 7.961,3.896 7.991 C 4.381 8.022,4.699 7.882,4.879 7.558 C 4.973 7.390,4.980 7.336,5.001 6.560 C 5.027 5.632,5.048 5.548,5.321 5.283 C 5.593 5.020,5.714 5.000,7.057 5.000 C 7.713 5.000,8.283 4.982,8.365 4.959 C 8.586 4.898,8.770 4.755,8.880 4.558 C 8.967 4.402,8.980 4.332,8.979 4.000 C 8.978 3.567,8.898 3.355,8.678 3.199 C 8.423 3.017,8.269 3.000,6.944 3.005 C 6.260 3.007,5.609 3.025,5.499 3.043 M15.614 3.056 C 15.376 3.133,15.211 3.262,15.109 3.453 C 15.035 3.592,15.020 3.684,15.020 4.000 C 15.020 4.331,15.033 4.403,15.120 4.558 C 15.230 4.755,15.414 4.898,15.635 4.959 C 15.717 4.982,16.287 5.000,16.943 5.000 C 18.308 5.000,18.412 5.018,18.697 5.303 C 18.957 5.563,19.000 5.741,19.000 6.557 C 19.000 6.922,19.019 7.285,19.041 7.365 C 19.148 7.750,19.437 7.962,19.896 7.991 C 20.381 8.022,20.699 7.882,20.880 7.558 C 20.979 7.382,20.980 7.370,20.980 6.420 C 20.980 5.525,20.974 5.440,20.886 5.160 C 20.581 4.181,19.825 3.421,18.861 3.124 C 18.550 3.028,18.498 3.024,17.160 3.013 C 16.090 3.005,15.743 3.014,15.614 3.056 M10.631 9.573 C 7.583 10.716,6.400 11.177,6.291 11.265 C 6.114 11.406,5.960 11.684,5.960 11.864 C 5.960 11.934,5.997 12.112,6.043 12.259 C 6.190 12.738,6.219 12.756,8.099 13.561 L 9.738 14.262 10.456 15.938 C 11.247 17.782,11.315 17.897,11.674 18.003 C 12.009 18.103,12.556 17.912,12.780 17.617 C 12.864 17.506,13.355 16.243,14.432 13.369 C 15.275 11.120,15.985 9.182,16.010 9.064 C 16.045 8.895,16.043 8.809,16.003 8.674 C 15.901 8.329,15.404 7.999,14.988 8.001 C 14.865 8.001,13.689 8.426,10.631 9.573 M13.261 10.790 C 13.246 10.829,12.944 11.630,12.591 12.572 C 12.238 13.514,11.936 14.270,11.921 14.252 C 11.905 14.234,11.798 13.995,11.682 13.720 C 11.393 13.035,11.285 12.844,11.112 12.719 C 11.031 12.660,10.698 12.498,10.372 12.359 C 10.046 12.220,9.766 12.095,9.748 12.079 C 9.722 12.057,13.134 10.738,13.254 10.724 C 13.273 10.722,13.276 10.752,13.261 10.790 M3.614 16.057 C 3.377 16.131,3.212 16.261,3.109 16.453 C 3.024 16.612,3.020 16.664,3.020 17.580 C 3.020 18.475,3.026 18.560,3.114 18.840 C 3.419 19.817,4.158 20.562,5.140 20.884 C 5.405 20.971,5.492 20.976,6.804 20.991 C 7.715 21.001,8.243 20.992,8.348 20.963 C 8.583 20.900,8.767 20.760,8.880 20.558 C 8.967 20.402,8.980 20.332,8.979 20.000 C 8.977 19.469,8.850 19.243,8.455 19.072 C 8.375 19.037,7.942 19.016,7.020 19.001 L 5.700 18.980 5.516 18.872 C 5.326 18.760,5.155 18.568,5.072 18.373 C 5.044 18.305,5.015 17.932,5.001 17.440 C 4.979 16.701,4.968 16.604,4.889 16.453 C 4.841 16.362,4.746 16.247,4.678 16.199 C 4.414 16.010,3.957 15.950,3.614 16.057 M19.614 16.057 C 19.377 16.132,19.212 16.261,19.110 16.453 C 19.031 16.604,19.020 16.699,18.998 17.440 C 18.984 17.926,18.955 18.306,18.927 18.373 C 18.846 18.567,18.674 18.760,18.484 18.872 L 18.300 18.980 16.979 19.000 C 15.658 19.020,15.657 19.020,15.459 19.122 C 15.119 19.297,14.978 19.606,15.009 20.104 C 15.039 20.570,15.252 20.856,15.652 20.963 C 15.757 20.992,16.285 21.001,17.196 20.991 C 18.508 20.976,18.595 20.971,18.860 20.884 C 19.842 20.562,20.581 19.817,20.886 18.840 C 20.974 18.560,20.980 18.475,20.980 17.580 C 20.980 16.664,20.976 16.612,20.891 16.453 C 20.842 16.362,20.746 16.247,20.678 16.199 C 20.414 16.010,19.957 15.950,19.614 16.057 " stroke="none" fill="black" fill-rule="evenodd"></path></svg>