<svg xmlns="http://www.w3.org/2000/svg" width="24" height="24" viewBox="0 0 24 24" fill="none" stroke="currentColor" stroke-width="2" stroke-linecap="round" stroke-linejoin="round" class="icon icon-tabler icons-tabler-outline icon-tabler-masks-theater"><path d="M3.700 3.042 C 2.577 3.234,1.665 4.038,1.320 5.140 C 1.154 5.672,1.165 5.952,1.497 9.523 C 1.736 12.104,1.819 12.866,1.895 13.163 C 2.152 14.173,2.570 14.892,3.320 15.616 C 4.073 16.341,4.956 16.772,6.047 16.945 C 6.549 17.024,8.809 17.006,9.051 16.920 C 9.313 16.826,9.511 16.623,9.585 16.370 C 9.688 16.015,9.609 15.512,9.414 15.280 C 9.196 15.021,9.203 15.022,7.620 14.997 C 6.264 14.976,6.164 14.969,5.900 14.883 C 5.076 14.615,4.440 14.074,4.058 13.317 C 3.805 12.814,3.827 12.975,3.435 8.679 C 3.155 5.596,3.156 5.729,3.413 5.392 C 3.485 5.297,3.624 5.175,3.722 5.120 L 3.900 5.020 7.412 5.009 C 9.716 5.002,10.976 5.012,11.076 5.039 C 11.296 5.098,11.539 5.289,11.663 5.502 C 11.746 5.644,11.779 5.767,11.803 6.028 C 11.844 6.474,11.955 6.696,12.219 6.860 C 12.400 6.972,12.441 6.980,12.797 6.980 C 13.094 6.980,13.211 6.963,13.320 6.905 C 13.670 6.719,13.800 6.457,13.800 5.935 C 13.800 5.036,13.368 4.188,12.622 3.623 C 12.297 3.376,12.054 3.248,11.660 3.115 L 11.380 3.021 7.640 3.014 C 5.583 3.011,3.810 3.023,3.700 3.042 M5.614 7.055 C 5.220 7.184,5.039 7.437,5.009 7.900 C 4.978 8.381,5.119 8.699,5.442 8.880 C 5.597 8.967,5.669 8.980,6.000 8.980 C 6.312 8.980,6.408 8.964,6.540 8.894 C 6.866 8.718,7.000 8.459,7.000 8.000 C 7.000 7.357,6.713 7.048,6.083 7.016 C 5.893 7.006,5.718 7.021,5.614 7.055 M8.614 7.055 C 8.220 7.184,8.039 7.437,8.009 7.900 C 7.978 8.381,8.119 8.699,8.442 8.880 C 8.597 8.967,8.669 8.980,9.000 8.980 C 9.312 8.980,9.408 8.964,9.540 8.894 C 9.866 8.718,10.000 8.459,10.000 8.000 C 10.000 7.357,9.713 7.048,9.083 7.016 C 8.893 7.006,8.718 7.021,8.614 7.055 M12.700 8.042 C 11.578 8.233,10.665 9.038,10.320 10.140 C 10.154 10.672,10.165 10.952,10.497 14.523 C 10.736 17.104,10.819 17.866,10.895 18.163 C 11.152 19.173,11.570 19.892,12.320 20.616 C 13.065 21.334,13.948 21.767,15.019 21.941 C 15.522 22.023,17.478 22.023,17.981 21.941 C 19.055 21.767,19.935 21.334,20.685 20.611 C 21.421 19.901,21.852 19.160,22.103 18.173 C 22.241 17.627,22.816 11.467,22.787 10.840 C 22.735 9.735,22.107 8.789,21.100 8.302 C 20.492 8.007,20.759 8.024,16.620 8.016 C 14.574 8.011,12.810 8.023,12.700 8.042 M20.303 10.141 C 20.542 10.288,20.746 10.578,20.782 10.821 C 20.799 10.934,20.710 12.084,20.544 13.910 C 20.175 17.961,20.195 17.814,19.942 18.317 C 19.557 19.080,18.907 19.628,18.080 19.886 C 17.792 19.976,17.730 19.980,16.500 19.980 C 15.270 19.980,15.208 19.976,14.920 19.886 C 14.089 19.627,13.444 19.083,13.058 18.317 C 12.805 17.814,12.827 17.975,12.435 13.679 C 12.155 10.598,12.156 10.729,12.412 10.394 C 12.552 10.210,12.733 10.086,12.934 10.038 C 13.003 10.021,14.645 10.010,16.583 10.014 L 20.106 10.020 20.303 10.141 M7.154 10.525 C 6.741 10.559,6.339 10.686,5.863 10.933 C 5.209 11.274,4.960 11.554,4.960 11.946 C 4.961 12.304,5.271 12.792,5.606 12.963 C 5.882 13.104,6.081 13.071,6.625 12.795 C 7.230 12.489,7.461 12.457,8.040 12.602 C 8.522 12.723,8.695 12.686,8.966 12.406 C 9.247 12.116,9.396 11.566,9.278 11.253 C 9.091 10.759,8.165 10.441,7.154 10.525 M14.614 12.055 C 14.220 12.184,14.039 12.437,14.009 12.900 C 13.978 13.381,14.119 13.699,14.442 13.880 C 14.597 13.967,14.669 13.980,15.000 13.980 C 15.312 13.980,15.408 13.964,15.540 13.894 C 15.866 13.718,16.000 13.459,16.000 13.000 C 16.000 12.357,15.713 12.048,15.083 12.016 C 14.893 12.006,14.718 12.021,14.614 12.055 M17.614 12.055 C 17.220 12.184,17.039 12.437,17.009 12.900 C 16.978 13.381,17.119 13.699,17.442 13.880 C 17.597 13.967,17.669 13.980,18.000 13.980 C 18.312 13.980,18.408 13.964,18.540 13.894 C 18.866 13.718,19.000 13.459,19.000 13.000 C 19.000 12.357,18.713 12.048,18.083 12.016 C 17.893 12.006,17.718 12.021,17.614 12.055 M14.745 15.480 C 14.564 15.536,14.342 15.708,14.208 15.895 C 13.811 16.448,13.892 16.948,14.439 17.323 C 15.647 18.153,17.045 18.212,18.298 17.488 C 18.836 17.177,19.040 16.918,19.040 16.545 C 19.040 16.200,18.727 15.712,18.392 15.534 C 18.309 15.490,18.175 15.465,18.034 15.466 C 17.839 15.467,17.761 15.494,17.474 15.656 C 16.685 16.104,16.322 16.106,15.540 15.666 C 15.203 15.476,14.948 15.416,14.745 15.480 " stroke="none" fill="black" fill-rule="evenodd"></path></svg>