<svg xmlns="http://www.w3.org/2000/svg" width="24" height="24" viewBox="0 0 24 24" fill="none" stroke="currentColor" stroke-width="2" stroke-linecap="round" stroke-linejoin="round" class="icon icon-tabler icons-tabler-outline icon-tabler-cube-off"><path d="M11.460 1.057 C 11.136 1.121,10.940 1.188,10.637 1.340 C 10.164 1.576,7.384 3.188,7.242 3.309 C 6.941 3.565,6.872 3.940,7.053 4.336 C 7.240 4.744,7.597 5.037,7.910 5.039 C 8.139 5.041,8.409 4.905,10.053 3.962 C 11.477 3.145,11.694 3.033,11.884 3.013 C 12.003 3.001,12.165 3.009,12.245 3.031 C 12.399 3.073,18.921 6.790,18.919 6.834 C 18.918 6.848,17.792 7.508,16.416 8.300 C 15.041 9.092,13.856 9.789,13.783 9.849 C 13.468 10.107,13.407 10.509,13.618 10.939 C 13.872 11.459,14.299 11.684,14.740 11.529 C 14.850 11.491,16.070 10.807,17.451 10.009 C 18.832 9.212,19.970 8.560,19.981 8.560 C 19.991 8.560,20.000 10.260,20.000 12.338 L 20.000 16.117 19.901 16.428 C 19.746 16.911,19.771 17.179,19.993 17.415 C 20.138 17.569,20.340 17.693,20.577 17.773 C 21.133 17.961,21.544 17.737,21.781 17.119 C 22.008 16.522,22.003 16.659,21.991 11.868 L 21.980 7.460 21.865 7.120 C 21.802 6.933,21.701 6.681,21.639 6.560 C 21.461 6.208,21.034 5.755,20.644 5.504 C 20.262 5.258,13.600 1.458,13.300 1.315 C 13.124 1.231,12.872 1.134,12.740 1.100 C 12.397 1.010,11.797 0.991,11.460 1.057 M2.626 2.045 C 2.257 2.239,1.951 2.673,1.951 3.000 C 1.951 3.316,2.074 3.483,2.967 4.384 L 3.803 5.227 3.452 5.450 C 3.135 5.651,2.732 6.013,2.528 6.280 C 2.354 6.507,2.128 7.063,2.044 7.472 C 1.982 7.769,1.983 16.232,2.044 16.528 C 2.204 17.302,2.670 18.034,3.260 18.439 C 3.348 18.500,5.049 19.483,7.040 20.624 C 11.262 23.044,11.123 22.978,12.000 22.977 C 12.847 22.977,12.835 22.982,15.840 21.262 L 18.380 19.807 19.420 20.839 C 20.086 21.500,20.524 21.902,20.637 21.960 C 20.989 22.137,21.354 22.048,21.701 21.701 C 22.048 21.355,22.137 20.990,21.961 20.637 C 21.885 20.486,18.837 17.395,12.747 11.293 C 8.533 7.070,3.506 2.111,3.372 2.044 C 3.152 1.934,2.835 1.935,2.626 2.045 M5.581 7.005 C 5.741 7.168,5.817 7.268,5.760 7.239 C 5.657 7.188,5.116 6.877,5.080 6.849 C 5.054 6.828,5.203 6.720,5.259 6.720 C 5.283 6.720,5.428 6.848,5.581 7.005 M7.537 10.579 L 11.000 12.579 11.000 16.574 C 11.000 19.754,10.990 20.565,10.950 20.549 C 10.724 20.459,4.426 16.811,4.311 16.703 C 4.000 16.411,4.021 16.721,4.009 12.406 C 4.002 9.977,4.012 8.558,4.036 8.566 C 4.057 8.574,5.633 9.480,7.537 10.579 M16.808 18.401 C 16.525 18.573,13.040 20.560,13.021 20.560 C 13.010 20.560,13.000 19.179,13.000 17.490 L 13.000 14.420 14.958 16.378 L 16.916 18.335 16.808 18.401 " stroke="none" fill="black" fill-rule="evenodd"></path></svg>