<svg xmlns="http://www.w3.org/2000/svg" width="24" height="24" viewBox="0 0 24 24" fill="none" stroke="currentColor" stroke-width="2" stroke-linecap="round" stroke-linejoin="round" class="icon icon-tabler icons-tabler-outline icon-tabler-michelin-star"><path d="M11.360 2.025 C 10.666 2.125,10.311 2.231,9.852 2.479 C 8.962 2.959,8.333 3.727,8.024 4.712 C 7.967 4.895,7.920 5.078,7.920 5.120 C 7.920 5.244,7.862 5.246,7.493 5.134 C 7.177 5.039,7.073 5.027,6.500 5.024 C 5.744 5.019,5.461 5.076,4.886 5.344 C 3.863 5.822,3.127 6.653,2.764 7.740 C 2.611 8.201,2.555 8.556,2.555 9.081 C 2.555 10.070,2.915 10.915,3.649 11.649 L 3.966 11.966 3.640 12.304 C 2.906 13.070,2.553 13.898,2.554 14.860 C 2.555 16.104,3.122 17.263,4.137 18.099 C 4.515 18.410,5.118 18.719,5.600 18.849 C 5.890 18.927,6.032 18.939,6.560 18.936 C 7.088 18.932,7.236 18.917,7.560 18.830 C 7.769 18.775,7.945 18.733,7.950 18.738 C 7.956 18.743,7.998 18.896,8.044 19.077 C 8.329 20.202,9.060 21.129,10.039 21.603 C 11.275 22.201,12.988 22.106,14.084 21.378 C 14.840 20.875,15.386 20.149,15.656 19.288 C 15.713 19.105,15.760 18.921,15.760 18.878 C 15.760 18.781,15.772 18.781,16.133 18.881 C 16.971 19.110,17.950 19.029,18.741 18.664 C 19.524 18.302,20.231 17.608,20.640 16.801 C 20.787 16.511,20.955 15.987,21.020 15.616 C 21.237 14.371,20.846 13.190,19.928 12.312 L 19.610 12.008 19.887 11.734 C 20.384 11.243,20.720 10.715,20.913 10.120 C 21.405 8.603,20.760 6.799,19.346 5.736 C 19.059 5.520,18.407 5.200,18.040 5.095 C 17.646 4.982,16.505 4.993,16.064 5.113 C 15.676 5.219,15.680 5.219,15.680 5.115 C 15.680 4.981,15.412 4.215,15.293 4.008 C 14.750 3.063,14.011 2.457,13.072 2.184 C 12.559 2.036,11.786 1.964,11.360 2.025 M12.325 4.058 C 13.039 4.209,13.526 4.708,13.704 5.470 C 13.776 5.777,13.797 6.463,13.746 6.820 C 13.676 7.304,13.901 7.665,14.364 7.810 C 14.787 7.943,15.033 7.891,15.509 7.567 C 16.142 7.137,16.608 6.983,17.201 7.007 C 17.541 7.020,17.619 7.038,17.863 7.158 C 18.243 7.345,18.653 7.764,18.849 8.163 C 19.126 8.727,19.142 9.265,18.899 9.751 C 18.661 10.227,18.269 10.564,17.413 11.031 C 16.700 11.419,16.517 11.822,16.799 12.386 C 16.951 12.689,17.013 12.745,17.500 13.021 C 18.309 13.479,18.791 13.917,18.954 14.343 C 19.208 15.006,19.025 15.842,18.506 16.391 C 18.086 16.836,17.717 17.004,17.160 17.005 C 16.606 17.007,16.099 16.816,15.581 16.411 C 15.428 16.291,15.230 16.156,15.141 16.110 C 14.935 16.005,14.591 15.997,14.408 16.094 C 14.205 16.202,13.959 16.476,13.847 16.719 C 13.748 16.934,13.747 16.945,13.793 17.361 C 13.881 18.155,13.828 18.605,13.595 19.042 C 13.446 19.323,13.092 19.668,12.824 19.794 C 12.394 19.996,11.807 20.052,11.324 19.938 C 10.791 19.813,10.384 19.499,10.152 19.036 C 9.959 18.650,9.916 18.401,9.885 17.500 C 9.853 16.573,9.838 16.512,9.583 16.288 C 9.413 16.139,9.220 16.080,8.900 16.081 C 8.629 16.082,8.444 16.153,8.092 16.392 C 7.964 16.478,7.730 16.615,7.570 16.695 C 6.431 17.268,5.334 16.893,4.753 15.731 C 4.601 15.428,4.586 15.371,4.570 15.011 C 4.554 14.689,4.565 14.580,4.631 14.393 C 4.831 13.829,5.355 13.333,6.099 13.002 C 6.561 12.797,6.708 12.695,6.822 12.501 C 6.951 12.280,6.959 11.985,6.844 11.678 C 6.741 11.406,6.551 11.216,6.180 11.016 C 5.425 10.609,4.897 10.154,4.700 9.740 C 4.565 9.456,4.521 8.960,4.598 8.588 C 4.720 8.000,5.172 7.415,5.707 7.154 C 5.968 7.026,6.000 7.020,6.440 7.020 C 6.869 7.020,6.921 7.029,7.215 7.151 C 7.388 7.223,7.694 7.381,7.893 7.502 C 8.259 7.723,8.782 7.920,9.003 7.920 C 9.290 7.920,9.576 7.714,9.754 7.380 C 9.859 7.182,9.860 7.172,9.850 6.445 C 9.843 5.908,9.856 5.642,9.900 5.455 C 10.145 4.396,11.161 3.811,12.325 4.058 " stroke="none" fill="black" fill-rule="evenodd"></path></svg>