<svg xmlns="http://www.w3.org/2000/svg" width="24" height="24" viewBox="0 0 24 24" fill="none" stroke="currentColor" stroke-width="2" stroke-linecap="round" stroke-linejoin="round" class="icon icon-tabler icons-tabler-outline icon-tabler-users-group"><path d="M6.499 2.040 C 5.363 2.246,4.460 3.049,4.114 4.160 C 3.979 4.594,3.979 5.406,4.114 5.840 C 4.421 6.826,5.174 7.579,6.160 7.886 C 6.594 8.021,7.406 8.021,7.840 7.886 C 8.826 7.579,9.579 6.826,9.886 5.840 C 10.021 5.406,10.021 4.594,9.886 4.160 C 9.581 3.179,8.810 2.407,7.861 2.129 C 7.500 2.023,6.832 1.980,6.499 2.040 M16.499 2.040 C 15.363 2.246,14.460 3.049,14.114 4.160 C 13.979 4.594,13.979 5.406,14.114 5.840 C 14.421 6.826,15.174 7.579,16.160 7.886 C 16.594 8.021,17.406 8.021,17.840 7.886 C 18.826 7.579,19.579 6.826,19.886 5.840 C 20.021 5.406,20.021 4.594,19.886 4.160 C 19.581 3.179,18.810 2.407,17.861 2.129 C 17.500 2.023,16.832 1.980,16.499 2.040 M7.310 4.061 C 7.688 4.173,8.000 4.598,8.000 5.001 C 8.000 5.331,7.784 5.696,7.484 5.872 C 7.328 5.963,7.254 5.980,7.000 5.980 C 6.746 5.980,6.672 5.963,6.516 5.872 C 5.935 5.530,5.833 4.774,6.304 4.303 C 6.583 4.024,6.916 3.944,7.310 4.061 M17.310 4.061 C 17.688 4.173,18.000 4.598,18.000 5.001 C 18.000 5.331,17.784 5.696,17.484 5.872 C 17.328 5.963,17.254 5.980,17.000 5.980 C 16.746 5.980,16.672 5.963,16.516 5.872 C 15.932 5.528,15.831 4.775,16.307 4.299 C 16.582 4.024,16.918 3.944,17.310 4.061 M4.499 9.043 C 3.392 9.229,2.472 10.039,2.118 11.140 C 2.039 11.386,2.026 11.528,2.010 12.300 C 1.998 12.873,2.007 13.238,2.036 13.344 C 2.144 13.748,2.428 13.961,2.896 13.991 C 3.381 14.022,3.699 13.882,3.879 13.558 C 3.973 13.390,3.980 13.336,4.001 12.560 C 4.027 11.632,4.048 11.548,4.321 11.283 C 4.593 11.020,4.714 11.000,6.057 11.000 C 6.713 11.000,7.283 10.982,7.365 10.959 C 7.586 10.898,7.770 10.755,7.880 10.558 C 7.967 10.402,7.980 10.332,7.979 10.000 C 7.978 9.567,7.898 9.355,7.678 9.199 C 7.423 9.017,7.269 9.000,5.944 9.005 C 5.260 9.007,4.609 9.025,4.499 9.043 M16.614 9.056 C 16.376 9.133,16.211 9.262,16.109 9.453 C 16.035 9.592,16.020 9.684,16.020 10.000 C 16.020 10.331,16.033 10.403,16.120 10.558 C 16.230 10.755,16.414 10.898,16.635 10.959 C 16.717 10.982,17.287 11.000,17.943 11.000 C 19.308 11.000,19.412 11.018,19.697 11.303 C 19.957 11.563,20.000 11.741,20.000 12.557 C 20.000 12.922,20.019 13.285,20.041 13.365 C 20.148 13.750,20.437 13.962,20.896 13.991 C 21.381 14.022,21.699 13.882,21.880 13.558 C 21.979 13.382,21.980 13.370,21.980 12.420 C 21.980 11.525,21.974 11.440,21.886 11.160 C 21.581 10.181,20.825 9.421,19.861 9.124 C 19.550 9.028,19.498 9.024,18.160 9.013 C 17.090 9.005,16.743 9.014,16.614 9.056 M11.499 10.040 C 10.363 10.246,9.460 11.049,9.114 12.160 C 8.979 12.594,8.979 13.406,9.114 13.840 C 9.421 14.826,10.174 15.579,11.160 15.886 C 11.594 16.021,12.406 16.021,12.840 15.886 C 13.826 15.579,14.579 14.826,14.886 13.840 C 15.021 13.406,15.021 12.594,14.886 12.160 C 14.581 11.179,13.810 10.407,12.861 10.129 C 12.500 10.023,11.832 9.980,11.499 10.040 M12.310 12.061 C 12.688 12.173,13.000 12.598,13.000 13.001 C 13.000 13.331,12.784 13.696,12.484 13.872 C 12.328 13.963,12.254 13.980,12.000 13.980 C 11.746 13.980,11.672 13.963,11.516 13.872 C 10.935 13.530,10.833 12.774,11.304 12.303 C 11.583 12.024,11.916 11.944,12.310 12.061 M9.499 17.042 C 8.385 17.234,7.472 18.039,7.118 19.140 C 7.039 19.386,7.026 19.528,7.010 20.300 C 6.998 20.873,7.007 21.238,7.036 21.344 C 7.144 21.748,7.428 21.961,7.896 21.991 C 8.381 22.022,8.699 21.882,8.879 21.558 C 8.973 21.390,8.980 21.336,9.001 20.560 C 9.027 19.632,9.048 19.548,9.321 19.283 C 9.613 19.000,9.616 19.000,12.000 19.000 C 14.411 19.000,14.391 18.998,14.697 19.303 C 14.957 19.563,15.000 19.741,15.000 20.557 C 15.000 20.922,15.019 21.285,15.041 21.365 C 15.148 21.750,15.437 21.962,15.896 21.991 C 16.381 22.022,16.699 21.882,16.880 21.558 C 16.979 21.382,16.980 21.370,16.980 20.420 C 16.980 19.525,16.974 19.440,16.886 19.160 C 16.581 18.181,15.829 17.425,14.861 17.122 L 14.540 17.022 12.120 17.015 C 10.789 17.011,9.609 17.023,9.499 17.042 " stroke="none" fill="black" fill-rule="evenodd"></path></svg>