<svg xmlns="http://www.w3.org/2000/svg" width="24" height="24" viewBox="0 0 24 24" fill="none" stroke="currentColor" stroke-width="2" stroke-linecap="round" stroke-linejoin="round" class="icon icon-tabler icons-tabler-outline icon-tabler-bulldozer"><path d="M8.614 5.057 C 8.377 5.131,8.212 5.261,8.109 5.453 C 8.021 5.619,8.020 5.633,8.009 7.810 L 7.997 10.000 6.869 10.002 C 5.595 10.005,5.391 10.035,4.983 10.281 C 4.703 10.449,4.354 10.816,4.219 11.083 C 4.022 11.470,4.000 11.651,4.000 12.863 L 4.000 13.990 3.714 14.018 C 2.495 14.138,1.484 14.971,1.114 16.160 C 0.979 16.594,0.979 17.406,1.114 17.840 C 1.421 18.826,2.173 19.578,3.160 19.886 L 3.460 19.980 9.000 19.980 L 14.540 19.980 14.840 19.886 C 15.646 19.635,16.318 19.068,16.688 18.330 L 16.853 18.000 17.500 18.000 L 18.147 18.000 18.312 18.330 C 18.677 19.060,19.345 19.626,20.140 19.882 C 20.386 19.961,20.528 19.974,21.300 19.990 C 21.873 20.002,22.238 19.993,22.344 19.964 C 22.583 19.900,22.766 19.761,22.880 19.558 C 22.967 19.402,22.980 19.332,22.979 19.000 C 22.978 18.572,22.898 18.355,22.686 18.204 C 22.462 18.045,22.353 18.026,21.520 18.003 C 20.721 17.981,20.695 17.977,20.516 17.872 C 20.328 17.761,20.158 17.572,20.070 17.373 C 20.033 17.289,20.015 16.673,20.000 14.940 C 19.980 12.623,19.980 12.620,19.889 12.450 C 19.724 12.140,19.329 11.970,18.874 12.011 C 18.439 12.051,18.141 12.274,18.041 12.635 C 18.017 12.721,18.000 13.435,18.000 14.390 L 18.000 16.000 17.427 16.000 L 16.853 16.000 16.688 15.670 C 16.403 15.102,15.909 14.607,15.330 14.313 L 15.000 14.145 15.000 11.389 C 15.000 8.796,14.995 8.609,14.921 8.243 C 14.721 7.264,14.197 6.415,13.438 5.843 C 12.866 5.412,12.276 5.160,11.605 5.058 C 11.090 4.981,8.861 4.980,8.614 5.057 M11.523 7.073 C 11.866 7.163,12.198 7.366,12.454 7.642 C 12.883 8.105,12.998 8.479,12.999 9.410 L 13.000 10.000 11.500 10.000 L 10.000 10.000 10.000 8.500 L 10.000 7.000 10.630 7.002 C 11.090 7.004,11.331 7.023,11.523 7.073 M13.000 13.000 L 13.000 14.000 9.500 14.000 L 6.000 14.000 6.000 13.000 L 6.000 12.000 9.500 12.000 L 13.000 12.000 13.000 13.000 M4.334 16.064 C 4.698 16.188,5.000 16.613,5.000 17.001 C 5.000 17.331,4.784 17.696,4.484 17.872 C 4.328 17.963,4.254 17.980,4.000 17.980 C 3.746 17.980,3.672 17.963,3.516 17.872 C 2.937 17.531,2.833 16.774,3.301 16.306 C 3.587 16.019,3.952 15.934,4.334 16.064 M11.146 16.057 C 10.972 16.511,10.972 17.489,11.146 17.943 C 11.166 17.992,10.869 18.000,9.000 18.000 C 7.131 18.000,6.834 17.992,6.854 17.943 C 7.028 17.489,7.028 16.511,6.854 16.057 C 6.834 16.008,7.131 16.000,9.000 16.000 C 10.869 16.000,11.166 16.008,11.146 16.057 M14.334 16.064 C 14.698 16.188,15.000 16.613,15.000 17.001 C 15.000 17.331,14.784 17.696,14.484 17.872 C 14.328 17.963,14.254 17.980,14.000 17.980 C 13.746 17.980,13.672 17.963,13.516 17.872 C 12.937 17.531,12.833 16.774,13.301 16.306 C 13.587 16.019,13.952 15.934,14.334 16.064 " stroke="none" fill="black" fill-rule="evenodd"></path></svg>