<svg xmlns="http://www.w3.org/2000/svg" width="24" height="24" viewBox="0 0 24 24" fill="none" stroke="currentColor" stroke-width="2" stroke-linecap="round" stroke-linejoin="round" class="icon icon-tabler icons-tabler-outline icon-tabler-brand-apple"><path d="M13.499 1.043 C 12.382 1.230,11.455 2.053,11.115 3.160 C 11.042 3.397,11.023 3.556,11.021 3.920 C 11.020 4.338,11.029 4.396,11.120 4.558 C 11.313 4.903,11.613 5.022,12.200 4.987 C 13.446 4.912,14.508 4.063,14.885 2.840 C 15.018 2.410,15.021 1.697,14.891 1.453 C 14.686 1.070,14.198 0.926,13.499 1.043 M7.720 6.042 C 6.160 6.204,4.839 7.098,4.030 8.540 C 3.404 9.654,3.069 10.989,3.013 12.583 C 2.978 13.603,3.088 14.541,3.376 15.680 C 4.107 18.573,5.551 20.928,7.061 21.691 C 7.831 22.079,8.454 22.085,9.913 21.718 C 10.747 21.508,11.073 21.466,11.674 21.491 C 12.118 21.509,12.246 21.532,12.717 21.676 C 13.523 21.922,13.850 21.977,14.540 21.978 C 15.059 21.980,15.180 21.967,15.440 21.887 C 16.805 21.462,18.395 19.895,19.320 18.065 C 19.909 16.899,20.150 15.649,19.885 15.129 C 19.776 14.916,19.531 14.736,19.243 14.657 C 18.222 14.379,17.628 13.859,17.414 13.060 C 17.201 12.260,17.376 11.546,17.920 10.998 C 18.269 10.647,18.577 10.450,19.322 10.104 C 20.343 9.630,20.278 8.903,19.112 7.776 C 18.659 7.339,18.100 6.960,17.435 6.643 C 16.492 6.192,15.833 6.022,15.020 6.022 C 14.181 6.022,13.608 6.177,12.285 6.759 C 11.884 6.935,11.528 7.080,11.494 7.080 C 11.460 7.080,11.196 6.970,10.906 6.835 C 9.316 6.097,8.689 5.941,7.720 6.042 M8.860 8.127 C 8.992 8.171,9.370 8.333,9.700 8.488 C 10.705 8.959,11.068 9.078,11.501 9.079 C 11.849 9.080,12.231 8.961,13.168 8.558 C 14.199 8.114,14.497 8.027,15.000 8.023 C 15.427 8.021,15.675 8.077,16.276 8.313 C 16.639 8.455,17.320 8.825,17.320 8.880 C 17.320 8.893,17.206 8.988,17.066 9.091 C 16.473 9.526,15.938 10.167,15.663 10.771 C 15.418 11.309,15.340 11.700,15.342 12.380 C 15.346 13.659,15.742 14.632,16.586 15.443 C 16.877 15.722,17.322 16.039,17.672 16.216 C 17.918 16.340,17.918 16.302,17.670 16.873 C 17.149 18.076,16.021 19.401,15.123 19.864 C 14.728 20.068,14.216 20.038,13.273 19.758 C 12.568 19.549,12.131 19.480,11.491 19.480 C 10.849 19.480,10.299 19.558,9.480 19.764 C 9.139 19.850,8.715 19.941,8.538 19.967 C 8.230 20.012,8.208 20.010,7.998 19.913 C 7.005 19.457,5.786 17.254,5.263 14.969 C 5.077 14.157,5.022 13.672,5.023 12.840 C 5.025 11.176,5.409 9.867,6.158 8.971 C 6.821 8.176,7.950 7.824,8.860 8.127 " stroke="none" fill="black" fill-rule="evenodd"></path></svg>