<svg xmlns="http://www.w3.org/2000/svg" width="24" height="24" viewBox="0 0 24 24" fill="none" stroke="currentColor" stroke-width="2" stroke-linecap="round" stroke-linejoin="round" class="icon icon-tabler icons-tabler-outline icon-tabler-prescription"><path d="M5.614 2.057 C 5.377 2.131,5.212 2.261,5.109 2.453 L 5.020 2.620 5.010 10.914 C 5.003 16.391,5.013 19.260,5.040 19.358 C 5.144 19.747,5.434 19.962,5.896 19.991 C 6.381 20.022,6.699 19.882,6.880 19.558 L 6.980 19.380 6.991 16.190 L 7.002 13.000 8.291 13.000 L 9.580 13.000 12.079 15.499 L 14.578 17.999 13.354 19.229 C 12.056 20.533,11.951 20.667,11.951 21.000 C 11.951 21.477,12.523 22.049,13.000 22.049 C 13.333 22.049,13.467 21.944,14.770 20.647 L 16.000 19.423 17.230 20.647 C 18.533 21.944,18.667 22.049,19.000 22.049 C 19.477 22.049,20.049 21.477,20.049 21.000 C 20.049 20.667,19.944 20.533,18.647 19.230 L 17.423 18.000 18.647 16.770 C 19.452 15.961,19.901 15.479,19.960 15.363 C 20.137 15.011,20.048 14.646,19.701 14.299 C 19.361 13.958,18.980 13.868,18.628 14.045 C 18.523 14.098,17.999 14.588,17.229 15.354 L 15.999 16.578 14.081 14.661 L 12.163 12.743 12.497 12.618 C 13.827 12.117,15.030 10.945,15.570 9.624 C 16.316 7.797,16.073 5.798,14.915 4.237 C 13.993 2.994,12.621 2.210,11.072 2.042 C 10.477 1.978,5.827 1.991,5.614 2.057 M11.405 4.109 C 12.176 4.324,12.948 4.876,13.396 5.533 C 13.595 5.824,13.826 6.344,13.906 6.680 C 14.004 7.091,14.004 7.909,13.906 8.320 C 13.618 9.528,12.656 10.522,11.420 10.888 C 11.157 10.966,11.018 10.972,9.070 10.988 L 7.000 11.006 7.000 7.500 L 7.000 3.995 9.050 4.009 C 10.994 4.023,11.116 4.029,11.405 4.109 " stroke="none" fill="black" fill-rule="evenodd"></path></svg>