<svg xmlns="http://www.w3.org/2000/svg" width="24" height="24" viewBox="0 0 24 24" fill="none" stroke="currentColor" stroke-width="2" stroke-linecap="round" stroke-linejoin="round" class="icon icon-tabler icons-tabler-outline icon-tabler-api"><path d="M5.873 7.060 C 5.136 7.200,4.468 7.565,3.958 8.105 C 3.561 8.525,3.317 8.950,3.131 9.548 L 3.021 9.900 3.009 13.050 C 3.001 15.138,3.011 16.252,3.038 16.354 C 3.144 16.747,3.432 16.961,3.896 16.991 C 4.381 17.022,4.699 16.882,4.880 16.558 C 4.979 16.381,4.980 16.374,4.993 15.190 L 5.005 14.000 6.503 14.000 L 8.000 14.000 8.000 15.110 C 8.000 15.730,8.018 16.284,8.041 16.365 C 8.148 16.750,8.437 16.962,8.896 16.991 C 9.381 17.022,9.699 16.882,9.880 16.558 L 9.980 16.380 9.991 13.320 C 9.999 11.350,9.988 10.164,9.961 9.992 C 9.748 8.609,8.722 7.468,7.378 7.118 C 6.959 7.009,6.280 6.983,5.873 7.060 M11.614 7.056 C 11.376 7.132,11.212 7.262,11.109 7.453 L 11.020 7.620 11.009 11.913 C 11.002 14.727,11.013 16.258,11.039 16.357 C 11.144 16.747,11.434 16.961,11.896 16.991 C 12.381 17.022,12.699 16.882,12.880 16.558 C 12.979 16.381,12.980 16.374,12.993 15.193 L 13.005 14.007 14.293 13.991 C 15.502 13.976,15.597 13.969,15.860 13.884 C 16.841 13.563,17.581 12.817,17.886 11.840 C 17.974 11.558,17.980 11.479,17.980 10.500 C 17.980 9.521,17.974 9.442,17.886 9.160 C 17.581 8.181,16.827 7.423,15.861 7.123 C 15.540 7.023,15.538 7.023,13.660 7.013 C 12.181 7.005,11.744 7.014,11.614 7.056 M19.614 7.057 C 19.377 7.131,19.212 7.261,19.109 7.453 L 19.020 7.620 19.009 11.913 C 19.002 14.727,19.013 16.258,19.039 16.357 C 19.144 16.747,19.434 16.961,19.896 16.991 C 20.381 17.022,20.699 16.882,20.880 16.558 L 20.980 16.380 20.980 12.000 L 20.980 7.620 20.891 7.453 C 20.842 7.362,20.746 7.247,20.678 7.199 C 20.414 7.010,19.957 6.950,19.614 7.057 M7.119 9.143 C 7.415 9.278,7.727 9.592,7.867 9.896 C 7.978 10.137,7.979 10.150,7.993 11.070 L 8.007 12.000 6.500 12.000 L 4.993 12.000 5.006 11.070 C 5.020 10.149,5.022 10.138,5.132 9.900 C 5.329 9.477,5.750 9.129,6.174 9.039 C 6.441 8.982,6.870 9.030,7.119 9.143 M15.310 9.061 C 15.589 9.144,15.856 9.411,15.939 9.690 C 16.020 9.961,16.024 11.028,15.945 11.290 C 15.872 11.533,15.707 11.740,15.484 11.872 L 15.300 11.980 14.150 11.992 L 13.000 12.005 13.000 10.502 L 13.000 9.000 14.053 9.000 C 14.879 9.000,15.150 9.013,15.310 9.061 " stroke="none" fill="black" fill-rule="evenodd"></path></svg>