<svg xmlns="http://www.w3.org/2000/svg" width="24" height="24" viewBox="0 0 24 24" fill="none" stroke="currentColor" stroke-width="2" stroke-linecap="round" stroke-linejoin="round" class="icon icon-tabler icons-tabler-outline icon-tabler-letter-o"><path d="M10.380 3.043 C 7.783 3.299,5.694 5.202,5.113 7.840 L 5.020 8.260 5.020 12.000 L 5.020 15.740 5.113 16.160 C 5.650 18.599,7.402 20.352,9.840 20.887 C 10.243 20.976,10.331 20.980,12.000 20.980 C 13.669 20.980,13.757 20.976,14.160 20.887 C 15.382 20.619,16.341 20.107,17.195 19.269 C 18.066 18.414,18.612 17.411,18.887 16.160 L 18.980 15.740 18.980 12.000 L 18.980 8.260 18.887 7.840 C 18.618 6.616,18.107 5.658,17.269 4.805 C 16.258 3.775,15.009 3.180,13.564 3.039 C 13.109 2.995,10.838 2.997,10.380 3.043 M13.605 5.058 C 15.074 5.280,16.310 6.324,16.797 7.755 C 16.988 8.318,17.000 8.557,17.000 12.000 C 17.000 15.445,16.988 15.684,16.796 16.245 C 16.321 17.632,15.195 18.628,13.773 18.917 C 13.410 18.991,13.224 19.000,12.000 19.000 C 10.776 19.000,10.590 18.991,10.227 18.917 C 8.566 18.579,7.309 17.265,7.058 15.605 C 6.973 15.040,6.973 8.960,7.058 8.395 C 7.314 6.698,8.675 5.324,10.358 5.061 C 10.856 4.983,13.095 4.982,13.605 5.058 " stroke="none" fill="black" fill-rule="evenodd"></path></svg>