<svg xmlns="http://www.w3.org/2000/svg" width="24" height="24" viewBox="0 0 24 24" fill="none" stroke="currentColor" stroke-width="2" stroke-linecap="round" stroke-linejoin="round" class="icon icon-tabler icons-tabler-outline icon-tabler-brand-ted"><path d="M1.614 7.057 C 1.377 7.131,1.212 7.261,1.109 7.453 C 1.035 7.592,1.020 7.684,1.020 8.000 C 1.020 8.331,1.033 8.403,1.120 8.558 C 1.230 8.755,1.414 8.898,1.635 8.959 C 1.715 8.981,2.054 9.000,2.390 9.000 L 3.000 9.000 3.000 12.610 C 3.000 14.905,3.015 16.273,3.041 16.365 C 3.148 16.750,3.437 16.962,3.896 16.991 C 4.381 17.022,4.699 16.882,4.880 16.558 L 4.980 16.380 4.991 12.690 L 5.002 9.000 5.611 9.000 C 5.946 9.000,6.285 8.981,6.365 8.959 C 6.586 8.898,6.770 8.755,6.880 8.558 C 6.967 8.402,6.980 8.332,6.979 8.000 C 6.978 7.567,6.898 7.355,6.678 7.199 C 6.406 7.005,6.336 7.000,3.984 7.003 C 2.293 7.005,1.741 7.017,1.614 7.057 M8.614 7.057 C 8.377 7.131,8.212 7.261,8.109 7.453 L 8.020 7.620 8.009 11.913 C 8.002 14.727,8.013 16.258,8.039 16.357 C 8.100 16.584,8.242 16.768,8.442 16.880 L 8.620 16.980 10.911 16.991 C 12.392 16.999,13.256 16.988,13.355 16.961 C 13.583 16.900,13.768 16.758,13.880 16.558 C 13.967 16.402,13.980 16.332,13.979 16.000 C 13.978 15.567,13.898 15.355,13.678 15.199 C 13.416 15.012,13.290 15.000,11.594 15.000 L 10.000 15.000 10.000 14.000 L 10.000 13.000 10.853 13.000 C 11.825 13.000,12.023 12.964,12.229 12.751 C 12.418 12.556,12.486 12.355,12.486 11.997 C 12.486 11.491,12.303 11.196,11.909 11.064 C 11.757 11.013,11.539 11.000,10.859 11.000 L 10.000 11.000 10.000 10.000 L 10.000 9.000 11.610 9.000 C 12.565 9.000,13.279 8.983,13.365 8.959 C 13.586 8.898,13.770 8.755,13.880 8.558 C 13.967 8.402,13.980 8.332,13.979 8.000 C 13.978 7.567,13.898 7.355,13.678 7.199 C 13.406 7.005,13.336 7.000,10.984 7.003 C 9.293 7.005,8.741 7.017,8.614 7.057 M15.614 7.057 C 15.377 7.131,15.212 7.261,15.109 7.453 L 15.020 7.620 15.009 11.913 C 15.002 14.727,15.013 16.258,15.039 16.357 C 15.100 16.584,15.242 16.768,15.442 16.880 L 15.620 16.980 16.984 16.992 C 18.227 17.003,18.384 16.997,18.748 16.922 C 20.385 16.589,21.588 15.388,21.921 13.757 C 21.991 13.413,22.000 13.207,22.000 12.000 C 22.000 10.459,21.964 10.157,21.705 9.516 C 21.172 8.197,20.001 7.269,18.605 7.058 C 18.090 6.981,15.861 6.980,15.614 7.057 M18.523 9.073 C 19.212 9.253,19.795 9.860,19.941 10.549 C 20.023 10.933,20.023 13.067,19.941 13.451 C 19.863 13.821,19.710 14.091,19.400 14.404 C 18.931 14.880,18.575 15.000,17.632 15.000 L 17.000 15.000 17.000 12.000 L 17.000 9.000 17.630 9.002 C 18.090 9.004,18.331 9.023,18.523 9.073 " stroke="none" fill="black" fill-rule="evenodd"></path></svg>