<svg xmlns="http://www.w3.org/2000/svg" width="24" height="24" viewBox="0 0 24 24" fill="none" stroke="currentColor" stroke-width="2" stroke-linecap="round" stroke-linejoin="round" class="icon icon-tabler icons-tabler-outline icon-tabler-skateboarding"><path d="M16.477 2.073 C 15.806 2.249,15.238 2.823,15.060 3.508 C 14.941 3.962,15.003 4.492,15.225 4.930 C 15.361 5.199,15.801 5.639,16.070 5.775 C 16.659 6.073,17.341 6.073,17.930 5.775 C 18.196 5.640,18.638 5.200,18.771 4.937 C 18.994 4.498,19.052 4.007,18.940 3.529 C 18.858 3.182,18.720 2.927,18.465 2.653 C 18.074 2.232,17.560 2.005,17.000 2.005 C 16.857 2.005,16.622 2.036,16.477 2.073 M12.220 6.001 L 10.700 6.023 9.158 6.547 C 8.309 6.835,7.543 7.108,7.454 7.153 C 7.081 7.343,6.918 7.681,7.000 8.097 C 7.132 8.767,7.540 9.109,8.080 9.003 C 8.203 8.979,8.951 8.743,9.741 8.480 L 11.179 8.000 11.687 8.000 L 12.196 8.000 11.377 9.309 C 10.572 10.597,10.481 10.772,10.480 11.029 C 10.480 11.302,10.621 11.504,11.808 12.929 L 13.000 14.360 13.000 16.181 L 13.000 18.002 8.730 17.991 C 4.546 17.980,4.456 17.978,4.243 17.899 C 4.021 17.815,3.980 17.774,3.944 17.598 C 3.830 17.051,2.916 16.812,2.351 17.182 C 2.145 17.317,2.031 17.556,2.009 17.900 C 1.955 18.739,2.570 19.454,3.640 19.797 C 3.989 19.909,4.524 20.000,4.831 20.000 L 5.082 20.000 5.051 20.110 C 5.034 20.171,5.020 20.364,5.021 20.540 C 5.022 20.804,5.041 20.902,5.133 21.100 C 5.278 21.414,5.586 21.724,5.896 21.867 C 6.106 21.965,6.189 21.980,6.500 21.980 C 6.811 21.980,6.894 21.965,7.104 21.867 C 7.414 21.724,7.722 21.414,7.867 21.100 C 7.959 20.902,7.978 20.804,7.979 20.540 C 7.980 20.364,7.966 20.171,7.949 20.110 L 7.918 20.000 12.000 20.000 L 16.082 20.000 16.051 20.110 C 16.034 20.171,16.020 20.364,16.021 20.540 C 16.022 20.804,16.041 20.902,16.133 21.100 C 16.278 21.414,16.586 21.724,16.896 21.867 C 17.106 21.965,17.189 21.980,17.500 21.980 C 17.811 21.980,17.894 21.965,18.104 21.867 C 18.414 21.724,18.722 21.414,18.867 21.100 C 18.959 20.902,18.978 20.804,18.979 20.540 C 18.980 20.364,18.966 20.171,18.949 20.110 L 18.918 20.000 19.169 20.000 C 19.476 20.000,20.013 19.909,20.356 19.798 C 21.437 19.449,22.050 18.735,21.988 17.895 C 21.952 17.403,21.748 17.146,21.308 17.037 C 20.914 16.939,20.376 17.076,20.194 17.320 C 20.153 17.375,20.087 17.509,20.049 17.618 C 19.983 17.801,19.962 17.821,19.759 17.898 C 19.549 17.977,19.448 17.980,17.271 17.992 L 15.003 18.004 14.991 15.852 C 14.981 13.922,14.973 13.687,14.913 13.577 C 14.875 13.509,14.376 12.891,13.803 12.203 C 13.229 11.515,12.760 10.934,12.760 10.912 C 12.760 10.869,14.257 8.454,14.335 8.371 C 14.371 8.333,14.459 8.554,14.716 9.331 C 15.090 10.458,15.136 10.566,15.327 10.748 C 15.583 10.995,15.630 11.000,17.515 11.000 C 18.534 11.000,19.278 10.983,19.365 10.959 C 19.586 10.898,19.770 10.755,19.880 10.558 C 19.967 10.402,19.980 10.332,19.979 10.000 C 19.978 9.567,19.898 9.355,19.678 9.199 C 19.425 9.018,19.265 9.000,17.957 9.000 L 16.727 9.000 16.338 7.830 C 16.124 7.186,15.917 6.596,15.877 6.517 C 15.766 6.295,15.521 6.097,15.296 6.048 C 15.031 5.990,14.044 5.975,12.220 6.001 M9.260 12.583 C 9.038 12.734,8.988 12.804,8.670 13.428 L 8.381 13.996 6.761 14.009 C 4.987 14.022,4.985 14.023,4.752 14.267 C 4.584 14.443,4.513 14.658,4.512 14.997 C 4.510 15.348,4.582 15.556,4.771 15.751 C 5.005 15.992,5.079 16.000,7.233 16.000 C 8.588 16.000,9.217 15.986,9.326 15.954 C 9.654 15.855,9.768 15.703,10.280 14.676 C 10.555 14.122,10.766 13.649,10.781 13.548 C 10.840 13.152,10.648 12.850,10.192 12.621 C 9.823 12.437,9.495 12.423,9.260 12.583 " stroke="none" fill="black" fill-rule="evenodd"></path></svg>