<svg xmlns="http://www.w3.org/2000/svg" width="24" height="24" viewBox="0 0 24 24" fill="none" stroke="currentColor" stroke-width="2" stroke-linecap="round" stroke-linejoin="round" class="icon icon-tabler icons-tabler-outline icon-tabler-currency-frank"><path d="M10.499 4.043 C 9.393 4.228,8.488 5.024,8.114 6.140 L 8.020 6.420 8.009 10.210 L 7.997 14.000 7.405 14.000 C 6.577 14.000,6.300 14.097,6.109 14.453 C 6.035 14.592,6.020 14.684,6.020 15.000 C 6.020 15.331,6.033 15.403,6.120 15.558 C 6.230 15.755,6.414 15.898,6.635 15.959 C 6.715 15.981,7.055 16.000,7.390 16.000 L 8.000 16.000 8.000 17.610 C 8.000 18.565,8.017 19.279,8.041 19.365 C 8.148 19.750,8.437 19.962,8.896 19.991 C 9.381 20.022,9.699 19.882,9.880 19.558 L 9.980 19.380 9.992 17.690 L 10.004 16.000 10.612 16.000 C 10.946 16.000,11.285 15.981,11.365 15.959 C 11.586 15.898,11.770 15.755,11.880 15.558 C 11.967 15.402,11.980 15.332,11.979 15.000 C 11.978 14.687,11.962 14.591,11.890 14.453 C 11.702 14.097,11.424 14.000,10.594 14.000 L 10.000 14.000 10.000 13.000 L 10.000 12.000 13.110 12.000 C 15.070 12.000,16.274 11.985,16.365 11.959 C 16.586 11.898,16.770 11.755,16.880 11.558 C 16.967 11.402,16.980 11.332,16.979 11.000 C 16.978 10.567,16.898 10.355,16.678 10.199 C 16.399 10.000,16.401 10.000,13.094 10.000 L 10.000 10.000 10.000 8.447 C 10.000 6.650,10.007 6.599,10.303 6.303 C 10.618 5.988,10.468 6.000,14.057 6.000 C 16.053 6.000,17.273 5.985,17.365 5.959 C 17.586 5.898,17.770 5.755,17.880 5.558 C 17.967 5.402,17.980 5.332,17.979 5.000 C 17.978 4.567,17.898 4.355,17.678 4.199 C 17.397 3.999,17.415 4.000,13.944 4.005 C 12.160 4.007,10.609 4.025,10.499 4.043 " stroke="none" fill="black" fill-rule="evenodd"></path></svg>