<svg xmlns="http://www.w3.org/2000/svg" width="24" height="24" viewBox="0 0 24 24" fill="none" stroke="currentColor" stroke-width="2" stroke-linecap="round" stroke-linejoin="round" class="icon icon-tabler icons-tabler-outline icon-tabler-file-type-doc"><path d="M6.499 2.043 C 5.393 2.228,4.488 3.024,4.114 4.140 L 4.020 4.420 4.009 8.311 C 4.001 10.892,4.011 12.253,4.039 12.355 C 4.144 12.747,4.433 12.961,4.896 12.991 C 5.381 13.022,5.699 12.882,5.880 12.558 L 5.980 12.380 6.000 8.560 C 6.022 4.280,5.999 4.597,6.321 4.283 C 6.622 3.992,6.514 4.000,9.947 4.000 L 13.000 4.000 13.000 5.632 C 13.000 7.399,13.010 7.507,13.225 7.930 C 13.361 8.199,13.801 8.639,14.070 8.775 C 14.493 8.990,14.601 9.000,16.368 9.000 L 18.000 9.000 18.000 10.610 C 18.000 11.565,18.017 12.279,18.041 12.365 C 18.148 12.750,18.437 12.962,18.896 12.991 C 19.381 13.022,19.699 12.882,19.880 12.558 L 19.980 12.380 19.980 10.000 L 19.980 7.620 19.890 7.452 C 19.841 7.360,19.724 7.231,19.630 7.165 C 19.498 7.073,15.263 2.838,14.719 2.254 C 14.473 1.991,14.626 2.000,10.463 2.005 C 8.393 2.007,6.609 2.025,6.499 2.043 M15.800 6.220 L 16.579 7.000 15.790 7.000 L 15.000 7.000 15.000 6.220 C 15.000 5.791,15.005 5.440,15.010 5.440 C 15.016 5.440,15.371 5.791,15.800 6.220 M4.614 14.055 C 4.375 14.133,4.211 14.262,4.109 14.453 L 4.020 14.620 4.009 17.912 C 4.002 20.060,4.012 21.257,4.039 21.356 C 4.100 21.584,4.242 21.768,4.442 21.880 C 4.618 21.979,4.630 21.980,5.580 21.980 C 6.475 21.980,6.560 21.974,6.840 21.886 C 7.827 21.578,8.578 20.827,8.886 19.840 C 8.978 19.547,8.980 19.503,8.980 18.000 C 8.980 16.497,8.978 16.453,8.886 16.160 C 8.580 15.180,7.820 14.416,6.861 14.125 C 6.571 14.037,6.455 14.027,5.660 14.014 C 4.997 14.004,4.739 14.014,4.614 14.055 M11.960 14.062 C 11.605 14.138,11.107 14.393,10.832 14.639 C 10.532 14.907,10.239 15.352,10.118 15.722 L 10.020 16.020 10.020 18.020 L 10.020 20.020 10.131 20.320 C 10.399 21.044,10.964 21.608,11.680 21.868 C 11.948 21.965,12.035 21.976,12.500 21.976 C 12.965 21.976,13.052 21.965,13.320 21.868 C 14.036 21.608,14.601 21.044,14.869 20.320 L 14.980 20.020 14.980 18.000 L 14.980 15.980 14.869 15.680 C 14.430 14.486,13.192 13.798,11.960 14.062 M17.960 14.062 C 17.605 14.138,17.107 14.393,16.832 14.639 C 16.532 14.907,16.239 15.352,16.118 15.722 L 16.020 16.020 16.020 18.020 L 16.020 20.020 16.131 20.320 C 16.399 21.044,16.964 21.608,17.680 21.868 C 17.948 21.965,18.035 21.976,18.500 21.976 C 18.965 21.976,19.052 21.965,19.320 21.868 C 20.270 21.524,20.925 20.666,20.988 19.680 C 21.018 19.218,20.940 18.944,20.723 18.748 C 20.536 18.578,20.351 18.520,20.000 18.520 C 19.649 18.520,19.464 18.578,19.277 18.747 C 19.105 18.902,19.000 19.172,19.000 19.457 C 18.999 19.989,18.350 20.194,18.078 19.748 C 18.004 19.627,18.000 19.536,18.000 18.008 C 18.000 16.228,17.999 16.232,18.252 16.078 C 18.591 15.872,19.000 16.130,19.000 16.551 C 19.000 16.952,19.204 17.283,19.537 17.422 C 19.750 17.510,20.249 17.511,20.460 17.423 C 20.864 17.254,21.027 16.913,20.988 16.320 C 20.891 14.816,19.450 13.742,17.960 14.062 M6.334 16.064 C 6.596 16.153,6.861 16.427,6.939 16.690 C 7.023 16.972,7.028 19.015,6.945 19.290 C 6.837 19.648,6.527 19.926,6.170 19.983 L 6.000 20.010 6.000 18.005 C 6.000 15.736,5.965 15.938,6.334 16.064 M12.724 16.062 C 12.790 16.096,12.879 16.182,12.922 16.252 C 12.996 16.373,13.000 16.464,13.000 18.000 C 13.000 19.536,12.996 19.627,12.922 19.748 C 12.722 20.076,12.278 20.076,12.078 19.748 C 12.004 19.627,12.000 19.536,12.000 18.008 C 12.000 16.228,11.999 16.232,12.252 16.078 C 12.406 15.984,12.563 15.979,12.724 16.062 " stroke="none" fill="black" fill-rule="evenodd"></path></svg>