<svg xmlns="http://www.w3.org/2000/svg" width="24" height="24" viewBox="0 0 24 24" fill="none" stroke="currentColor" stroke-width="2" stroke-linecap="round" stroke-linejoin="round" class="icon icon-tabler icons-tabler-outline icon-tabler-brand-cypress"><path d="M11.400 2.027 C 10.053 2.123,8.974 2.398,7.790 2.946 C 5.466 4.022,3.665 5.922,2.726 8.288 C 2.267 9.444,2.062 10.437,2.016 11.720 C 1.949 13.604,2.471 15.597,3.447 17.177 C 4.788 19.346,6.804 20.894,9.200 21.591 C 10.149 21.867,10.879 21.974,11.820 21.978 C 12.617 21.980,12.818 21.939,13.400 21.653 C 13.726 21.494,13.835 21.412,14.162 21.084 C 14.457 20.787,14.580 20.628,14.707 20.380 C 14.805 20.186,15.159 19.191,15.602 17.860 C 16.004 16.650,16.375 15.581,16.427 15.484 C 16.478 15.387,16.520 15.262,16.520 15.205 C 16.520 15.148,16.970 13.750,17.520 12.099 C 18.609 8.829,18.604 8.851,18.427 8.516 C 18.205 8.096,17.435 7.852,17.013 8.067 C 16.733 8.210,16.646 8.402,16.060 10.159 C 15.759 11.062,15.507 11.800,15.500 11.800 C 15.493 11.800,15.241 11.062,14.940 10.159 C 14.354 8.402,14.267 8.210,13.987 8.067 C 13.564 7.851,12.782 8.100,12.570 8.519 C 12.399 8.857,12.395 8.843,13.463 12.049 L 14.446 15.001 13.721 17.178 C 13.253 18.581,12.955 19.415,12.882 19.523 C 12.755 19.713,12.498 19.900,12.285 19.959 C 11.843 20.082,10.515 19.917,9.600 19.625 C 7.332 18.903,5.472 17.188,4.595 15.012 C 3.750 12.914,3.837 10.439,4.825 8.468 C 6.712 4.702,11.109 3.031,15.011 4.595 C 16.728 5.284,18.190 6.609,19.074 8.280 C 20.389 10.766,20.280 13.839,18.790 16.216 C 18.512 16.659,18.442 16.828,18.441 17.054 C 18.440 17.298,18.517 17.461,18.731 17.670 C 19.078 18.008,19.564 18.143,19.868 17.986 C 20.283 17.772,21.047 16.450,21.456 15.240 C 21.800 14.221,21.949 13.377,21.986 12.240 C 22.029 10.909,21.809 9.656,21.303 8.345 C 20.516 6.309,19.057 4.591,17.120 3.418 C 15.467 2.417,13.303 1.891,11.400 2.027 M8.662 8.044 C 7.092 8.273,5.796 9.431,5.376 10.980 C 5.282 11.328,5.268 11.458,5.265 11.980 C 5.262 12.627,5.328 12.991,5.544 13.523 C 5.999 14.643,7.020 15.536,8.220 15.865 C 8.579 15.963,8.686 15.974,9.260 15.974 C 10.033 15.973,10.314 15.910,10.985 15.581 C 11.655 15.254,11.866 14.958,11.762 14.493 C 11.710 14.261,11.469 13.860,11.303 13.730 C 11.026 13.512,10.687 13.515,10.244 13.738 C 9.723 14.000,9.271 14.062,8.786 13.936 C 8.395 13.835,8.128 13.688,7.861 13.425 C 6.733 12.313,7.268 10.424,8.814 10.059 C 9.304 9.944,9.662 9.996,10.252 10.268 C 10.729 10.488,10.941 10.505,11.212 10.347 C 11.656 10.087,11.922 9.410,11.736 9.017 C 11.635 8.804,11.381 8.605,10.944 8.396 C 10.215 8.048,9.448 7.930,8.662 8.044 " stroke="none" fill="black" fill-rule="evenodd"></path></svg>