<svg xmlns="http://www.w3.org/2000/svg" width="24" height="24" viewBox="0 0 24 24" fill="none" stroke="currentColor" stroke-width="2" stroke-linecap="round" stroke-linejoin="round" class="icon icon-tabler icons-tabler-outline icon-tabler-category-plus"><path d="M3.614 3.057 C 3.377 3.131,3.212 3.261,3.109 3.453 L 3.020 3.620 3.020 7.000 L 3.020 10.380 3.120 10.558 C 3.230 10.755,3.414 10.898,3.635 10.959 C 3.832 11.014,10.168 11.014,10.365 10.959 C 10.586 10.898,10.770 10.755,10.880 10.558 L 10.980 10.380 10.980 7.000 L 10.980 3.620 10.891 3.453 C 10.785 3.256,10.622 3.131,10.371 3.055 C 10.109 2.977,3.866 2.979,3.614 3.057 M13.614 3.057 C 13.377 3.131,13.212 3.261,13.109 3.453 L 13.020 3.620 13.020 7.000 L 13.020 10.380 13.120 10.558 C 13.230 10.755,13.414 10.898,13.635 10.959 C 13.832 11.014,20.168 11.014,20.365 10.959 C 20.586 10.898,20.770 10.755,20.880 10.558 L 20.980 10.380 20.980 7.000 L 20.980 3.620 20.891 3.453 C 20.785 3.256,20.622 3.131,20.371 3.055 C 20.109 2.977,13.866 2.979,13.614 3.057 M9.000 7.000 L 9.000 9.000 7.000 9.000 L 5.000 9.000 5.000 7.000 L 5.000 5.000 7.000 5.000 L 9.000 5.000 9.000 7.000 M19.000 7.000 L 19.000 9.000 17.000 9.000 L 15.000 9.000 15.000 7.000 L 15.000 5.000 17.000 5.000 L 19.000 5.000 19.000 7.000 M3.614 13.057 C 3.377 13.131,3.212 13.261,3.109 13.453 L 3.020 13.620 3.020 17.000 L 3.020 20.380 3.120 20.558 C 3.230 20.755,3.414 20.898,3.635 20.959 C 3.832 21.014,10.168 21.014,10.365 20.959 C 10.586 20.898,10.770 20.755,10.880 20.558 L 10.980 20.380 10.980 17.000 L 10.980 13.620 10.891 13.453 C 10.785 13.256,10.622 13.131,10.371 13.055 C 10.109 12.977,3.866 12.979,3.614 13.057 M16.614 13.057 C 16.377 13.131,16.212 13.261,16.109 13.453 C 16.024 13.613,16.020 13.668,16.008 14.810 L 15.996 16.000 14.904 16.000 C 13.744 16.000,13.570 16.022,13.322 16.199 C 13.100 16.357,13.020 16.568,13.020 17.000 C 13.020 17.331,13.033 17.403,13.120 17.558 C 13.230 17.755,13.414 17.898,13.635 17.959 C 13.716 17.982,14.270 18.000,14.890 18.000 L 16.000 18.000 16.000 19.110 C 16.000 19.730,16.018 20.284,16.041 20.365 C 16.148 20.750,16.437 20.962,16.896 20.991 C 17.381 21.022,17.699 20.882,17.880 20.558 C 17.979 20.381,17.980 20.374,17.993 19.190 L 18.005 18.000 19.113 18.000 C 19.731 18.000,20.284 17.982,20.365 17.959 C 20.586 17.898,20.770 17.755,20.880 17.558 C 20.967 17.402,20.980 17.332,20.979 17.000 C 20.978 16.567,20.898 16.355,20.678 16.199 C 20.430 16.022,20.256 16.000,19.096 16.000 L 18.005 16.000 17.993 14.810 C 17.981 13.669,17.976 13.613,17.891 13.453 C 17.842 13.362,17.746 13.247,17.678 13.199 C 17.414 13.010,16.957 12.950,16.614 13.057 M9.000 17.000 L 9.000 19.000 7.000 19.000 L 5.000 19.000 5.000 17.000 L 5.000 15.000 7.000 15.000 L 9.000 15.000 9.000 17.000 " stroke="none" fill="black" fill-rule="evenodd"></path></svg>