<svg xmlns="http://www.w3.org/2000/svg" width="24" height="24" viewBox="0 0 24 24" fill="none" stroke="currentColor" stroke-width="2" stroke-linecap="round" stroke-linejoin="round" class="icon icon-tabler icons-tabler-outline icon-tabler-message-circle-off"><path d="M2.626 2.045 C 2.257 2.239,1.951 2.673,1.951 3.000 C 1.951 3.333,2.057 3.467,3.345 4.762 L 4.561 5.984 4.416 6.122 C 4.189 6.339,3.647 7.025,3.391 7.420 C 2.088 9.426,1.698 11.819,2.300 14.107 C 2.443 14.650,2.656 15.198,2.940 15.751 L 3.193 16.243 2.612 17.971 C 2.082 19.547,2.030 19.726,2.025 20.000 C 2.019 20.386,2.160 20.706,2.410 20.872 C 2.721 21.077,2.863 21.061,5.360 20.525 L 7.580 20.049 7.906 20.184 C 8.318 20.354,8.868 20.534,9.370 20.662 C 12.104 21.360,15.318 20.881,17.620 19.433 L 17.859 19.282 19.160 20.576 C 20.021 21.433,20.520 21.901,20.637 21.960 C 20.989 22.137,21.354 22.048,21.701 21.701 C 22.047 21.355,22.136 20.990,21.961 20.637 C 21.839 20.392,3.616 2.165,3.372 2.044 C 3.152 1.934,2.834 1.935,2.626 2.045 M11.340 3.003 C 10.443 3.050,9.439 3.240,8.600 3.521 C 7.980 3.729,7.756 3.872,7.637 4.135 C 7.540 4.348,7.541 4.530,7.640 4.849 C 7.791 5.341,8.079 5.597,8.481 5.599 C 8.583 5.600,8.889 5.529,9.181 5.438 C 10.231 5.110,10.944 4.998,11.980 4.998 C 13.427 4.998,14.675 5.275,15.880 5.862 C 17.872 6.833,19.306 8.499,19.797 10.411 C 19.964 11.061,20.015 11.551,19.988 12.235 C 19.942 13.356,19.740 14.021,19.047 15.330 C 18.877 15.651,18.840 15.757,18.840 15.922 C 18.840 16.275,19.056 16.565,19.478 16.779 C 20.066 17.077,20.468 16.885,20.902 16.098 C 21.651 14.743,22.000 13.435,22.000 11.982 C 22.000 10.714,21.739 9.571,21.188 8.428 C 20.593 7.193,19.779 6.170,18.686 5.285 C 17.082 3.986,14.870 3.131,12.825 3.018 C 12.061 2.976,11.884 2.975,11.340 3.003 M16.379 17.842 C 16.369 17.857,16.159 17.969,15.911 18.091 C 14.728 18.673,13.432 18.966,12.020 18.971 C 10.654 18.975,9.503 18.727,8.269 18.162 C 7.816 17.955,7.820 17.955,6.103 18.319 C 5.251 18.500,4.547 18.641,4.538 18.631 C 4.529 18.622,4.680 18.139,4.874 17.557 C 5.068 16.976,5.250 16.404,5.278 16.288 C 5.346 16.007,5.295 15.828,5.010 15.348 C 4.616 14.683,4.402 14.201,4.243 13.620 C 3.987 12.686,3.963 11.625,4.176 10.620 C 4.400 9.567,5.025 8.397,5.796 7.589 L 5.978 7.399 11.187 12.607 C 14.052 15.471,16.388 17.827,16.379 17.842 " stroke="none" fill="black" fill-rule="evenodd"></path></svg>