<svg xmlns="http://www.w3.org/2000/svg" width="24" height="24" viewBox="0 0 24 24" fill="none" stroke="currentColor" stroke-width="2" stroke-linecap="round" stroke-linejoin="round" class="icon icon-tabler icons-tabler-outline icon-tabler-helicopter-landing"><path d="M4.499 2.043 C 3.380 2.232,2.461 3.048,2.114 4.160 L 2.020 4.460 2.020 12.000 L 2.020 19.540 2.114 19.840 C 2.422 20.827,3.173 21.578,4.160 21.886 L 4.460 21.980 12.000 21.980 L 19.540 21.980 19.840 21.886 C 20.827 21.578,21.578 20.827,21.886 19.840 L 21.980 19.540 21.980 12.000 L 21.980 4.460 21.886 4.160 C 21.581 3.182,20.832 2.428,19.861 2.121 L 19.540 2.020 12.120 2.014 C 8.039 2.011,4.609 2.024,4.499 2.043 M19.310 4.061 C 19.589 4.144,19.856 4.411,19.939 4.690 C 19.993 4.870,20.000 5.755,20.000 12.001 C 20.000 17.907,19.991 19.138,19.945 19.290 C 19.872 19.533,19.707 19.740,19.484 19.872 L 19.300 19.980 12.000 19.980 L 4.700 19.980 4.516 19.872 C 4.415 19.813,4.284 19.700,4.225 19.623 C 3.986 19.309,4.000 19.795,4.000 12.022 C 4.000 5.758,4.007 4.870,4.061 4.690 C 4.140 4.421,4.412 4.143,4.673 4.063 C 4.964 3.974,19.009 3.971,19.310 4.061 M8.614 7.057 C 8.377 7.131,8.212 7.261,8.109 7.453 L 8.020 7.620 8.009 11.913 C 8.002 14.727,8.013 16.258,8.039 16.357 C 8.144 16.747,8.434 16.961,8.896 16.991 C 9.381 17.022,9.699 16.882,9.880 16.558 L 9.980 16.380 9.992 14.690 L 10.004 13.000 12.002 13.000 L 14.000 13.000 14.000 14.610 C 14.000 15.565,14.017 16.279,14.041 16.365 C 14.148 16.750,14.437 16.962,14.896 16.991 C 15.381 17.022,15.699 16.882,15.880 16.558 L 15.980 16.380 15.980 12.000 L 15.980 7.620 15.889 7.450 C 15.724 7.140,15.329 6.970,14.874 7.011 C 14.439 7.051,14.141 7.274,14.041 7.635 C 14.017 7.721,14.000 8.435,14.000 9.390 L 14.000 11.000 12.002 11.000 L 10.004 11.000 9.992 9.310 C 9.980 7.651,9.978 7.617,9.891 7.453 C 9.842 7.362,9.746 7.247,9.678 7.199 C 9.414 7.010,8.957 6.950,8.614 7.057 " stroke="none" fill="black" fill-rule="evenodd"></path></svg>