<svg xmlns="http://www.w3.org/2000/svg" width="24" height="24" viewBox="0 0 24 24" fill="none" stroke="currentColor" stroke-width="2" stroke-linecap="round" stroke-linejoin="round" class="icon icon-tabler icons-tabler-outline icon-tabler-sausage"><path d="M4.400 1.043 C 4.301 1.063,4.074 1.150,3.895 1.239 C 3.186 1.588,2.760 2.327,2.810 3.119 C 2.836 3.537,2.942 3.799,3.345 4.448 C 3.641 4.925,3.684 5.015,3.629 5.045 C 3.594 5.065,3.441 5.180,3.289 5.301 C 2.654 5.807,2.216 6.549,2.057 7.386 C 1.908 8.170,2.067 9.984,2.401 11.328 C 2.895 13.312,3.722 15.006,5.015 16.680 C 5.433 17.221,6.779 18.567,7.320 18.985 C 8.994 20.278,10.686 21.104,12.672 21.599 C 13.700 21.855,14.645 21.973,15.700 21.977 C 16.616 21.980,16.798 21.952,17.370 21.716 C 17.909 21.493,18.565 20.963,18.871 20.501 L 18.988 20.324 19.564 20.683 C 20.250 21.111,20.517 21.209,21.000 21.209 C 21.928 21.209,22.703 20.605,22.939 19.698 C 23.025 19.367,23.026 17.678,22.940 17.348 C 22.751 16.622,22.133 16.028,21.411 15.878 C 21.104 15.814,20.596 15.850,20.318 15.956 C 20.196 16.002,19.872 16.180,19.598 16.351 C 19.324 16.523,19.078 16.677,19.052 16.693 C 19.021 16.712,18.982 16.681,18.945 16.611 C 18.846 16.423,18.433 15.972,18.165 15.759 C 17.841 15.501,17.187 15.185,16.800 15.100 C 16.635 15.063,16.218 15.017,15.873 14.998 C 15.139 14.955,14.802 14.909,14.275 14.777 C 12.054 14.223,10.207 12.548,9.427 10.380 C 9.159 9.636,9.068 9.139,9.002 8.040 C 8.962 7.396,8.893 7.057,8.708 6.609 C 8.493 6.087,7.996 5.477,7.529 5.160 C 7.415 5.083,7.322 5.007,7.321 4.992 C 7.320 4.976,7.449 4.760,7.606 4.512 C 7.986 3.911,8.109 3.641,8.166 3.274 C 8.294 2.446,7.847 1.603,7.080 1.227 C 6.915 1.146,6.683 1.062,6.565 1.040 C 6.305 0.992,4.654 0.995,4.400 1.043 M6.160 3.025 C 6.160 3.060,5.518 4.080,5.496 4.080 C 5.479 4.080,5.375 3.922,5.006 3.330 L 4.799 3.000 5.480 3.000 C 5.854 3.000,6.160 3.011,6.160 3.025 M6.113 6.643 C 6.540 6.829,6.879 7.251,6.956 7.693 C 6.980 7.832,7.000 8.071,7.000 8.224 C 7.000 8.376,7.027 8.729,7.059 9.008 C 7.373 11.691,8.817 14.034,11.080 15.531 C 11.918 16.086,13.103 16.584,14.092 16.797 C 14.570 16.900,15.401 17.000,15.776 17.000 C 16.581 17.000,17.095 17.293,17.367 17.907 C 17.436 18.061,17.453 18.180,17.454 18.500 C 17.456 18.850,17.443 18.929,17.350 19.129 C 17.231 19.389,16.927 19.714,16.696 19.831 C 16.397 19.981,16.144 20.014,15.490 19.987 C 10.334 19.774,5.896 16.270,4.460 11.279 C 4.125 10.116,3.923 8.413,4.038 7.731 C 4.137 7.148,4.604 6.658,5.156 6.559 C 5.420 6.511,5.911 6.554,6.113 6.643 M20.985 19.188 C 20.964 19.210,19.920 18.560,19.920 18.526 C 19.921 18.512,20.159 18.352,20.450 18.172 L 20.980 17.844 20.991 18.508 C 20.997 18.873,20.994 19.179,20.985 19.188 " stroke="none" fill="black" fill-rule="evenodd"></path></svg>