<svg xmlns="http://www.w3.org/2000/svg" width="24" height="24" viewBox="0 0 24 24" fill="none" stroke="currentColor" stroke-width="2" stroke-linecap="round" stroke-linejoin="round" class="icon icon-tabler icons-tabler-outline icon-tabler-flag-share"><path d="M8.020 2.603 C 7.232 2.664,6.510 2.868,5.788 3.234 C 5.074 3.596,4.332 4.170,4.126 4.520 L 4.020 4.700 4.010 12.954 C 4.003 18.404,4.013 21.259,4.040 21.358 C 4.144 21.747,4.434 21.962,4.896 21.991 C 5.381 22.022,5.699 21.882,5.880 21.558 L 5.980 21.380 5.991 17.914 L 6.002 14.448 6.145 14.339 C 6.224 14.279,6.453 14.143,6.654 14.037 C 7.804 13.433,9.197 13.436,10.360 14.044 C 10.724 14.234,10.863 14.339,11.613 14.988 C 12.206 15.501,12.892 15.880,13.229 15.880 C 13.816 15.880,14.362 14.952,14.089 14.418 C 13.984 14.213,13.896 14.136,13.460 13.867 C 13.262 13.745,12.902 13.469,12.660 13.253 C 12.089 12.743,11.762 12.513,11.207 12.232 C 10.474 11.860,9.772 11.665,8.944 11.604 C 8.005 11.535,6.956 11.704,6.150 12.056 L 6.000 12.121 6.000 8.785 L 6.000 5.449 6.144 5.340 C 6.224 5.279,6.453 5.143,6.654 5.037 C 7.792 4.439,9.185 4.436,10.332 5.028 C 10.723 5.230,10.913 5.370,11.474 5.868 C 12.961 7.188,14.901 7.703,16.799 7.280 C 17.122 7.208,17.772 6.998,17.930 6.914 C 17.996 6.879,18.000 7.041,18.000 10.049 C 18.000 12.050,18.015 13.273,18.041 13.365 C 18.148 13.750,18.437 13.962,18.896 13.991 C 19.381 14.022,19.699 13.882,19.880 13.558 L 19.980 13.380 19.980 9.040 L 19.980 4.700 19.871 4.514 C 19.677 4.185,19.324 3.960,19.000 3.960 C 18.751 3.960,18.577 4.045,18.264 4.319 C 17.878 4.658,17.638 4.826,17.300 4.993 C 16.682 5.298,16.178 5.416,15.500 5.416 C 14.822 5.416,14.318 5.298,13.700 4.993 C 13.332 4.811,13.113 4.652,12.593 4.191 C 12.133 3.783,11.801 3.545,11.360 3.308 C 10.331 2.754,9.192 2.514,8.020 2.603 M18.460 15.999 C 15.916 16.022,15.992 16.015,15.752 16.267 C 15.584 16.443,15.513 16.658,15.512 16.997 C 15.510 17.348,15.582 17.556,15.771 17.751 C 15.988 17.976,16.151 18.000,17.436 18.000 L 18.578 18.000 16.853 19.730 C 15.679 20.908,15.100 21.517,15.040 21.637 C 14.863 21.989,14.952 22.354,15.299 22.701 C 15.646 23.048,16.011 23.137,16.363 22.960 C 16.483 22.900,17.092 22.321,18.270 21.147 L 20.000 19.422 20.000 20.564 C 20.000 21.849,20.024 22.012,20.249 22.229 C 20.442 22.416,20.647 22.487,20.997 22.488 C 21.336 22.490,21.552 22.419,21.735 22.248 C 21.985 22.013,21.977 22.088,22.007 19.460 C 22.022 18.140,22.036 17.001,22.037 16.929 C 22.041 16.740,21.834 16.310,21.690 16.207 C 21.467 16.048,21.205 15.959,20.987 15.969 C 20.873 15.974,19.736 15.987,18.460 15.999 " stroke="none" fill="black" fill-rule="evenodd"></path></svg>