<svg xmlns="http://www.w3.org/2000/svg" width="24" height="24" viewBox="0 0 24 24" fill="none" stroke="currentColor" stroke-width="2" stroke-linecap="round" stroke-linejoin="round" class="icon icon-tabler icons-tabler-outline icon-tabler-photo-dollar"><path d="M5.358 2.061 C 4.725 2.160,4.119 2.424,3.562 2.843 C 2.860 3.373,2.355 4.142,2.109 5.060 C 2.023 5.377,2.022 5.426,1.996 10.660 C 1.981 13.564,1.968 15.967,1.966 16.000 C 1.964 16.033,1.978 16.636,1.996 17.340 C 2.024 18.433,2.041 18.667,2.112 18.940 C 2.511 20.484,3.687 21.603,5.243 21.921 C 5.616 21.997,5.798 22.000,9.426 22.000 C 11.844 22.000,13.272 21.985,13.365 21.959 C 13.586 21.898,13.770 21.755,13.880 21.558 C 13.967 21.402,13.980 21.332,13.979 21.000 C 13.978 20.567,13.898 20.355,13.678 20.199 C 13.396 19.997,13.449 20.000,9.462 20.000 C 5.425 20.000,5.524 20.005,5.083 19.781 C 4.816 19.646,4.449 19.297,4.281 19.017 C 4.045 18.625,4.005 18.385,4.002 17.340 L 4.000 16.419 6.450 13.971 C 9.109 11.315,9.069 11.349,9.504 11.349 C 9.897 11.349,9.980 11.414,11.560 12.981 C 13.155 14.562,13.196 14.593,13.584 14.550 C 13.995 14.503,14.511 13.978,14.550 13.565 C 14.586 13.197,14.521 13.114,13.024 11.607 C 11.602 10.175,11.212 9.836,10.733 9.614 C 9.998 9.272,9.064 9.258,8.341 9.578 C 7.812 9.812,7.582 10.012,5.770 11.815 L 4.000 13.577 4.002 9.659 C 4.004 6.088,4.011 5.717,4.073 5.477 C 4.201 4.988,4.543 4.546,5.014 4.265 C 5.479 3.986,5.109 4.000,12.028 4.002 C 18.979 4.005,18.529 3.987,19.017 4.281 C 19.294 4.448,19.618 4.787,19.772 5.071 C 19.990 5.474,19.999 5.598,19.999 8.263 C 20.000 10.969,20.002 10.990,20.249 11.229 C 20.442 11.416,20.647 11.487,20.997 11.488 C 21.348 11.490,21.556 11.418,21.751 11.229 C 21.999 10.989,22.000 10.979,22.000 8.169 C 22.000 5.328,21.992 5.225,21.705 4.516 C 21.172 3.197,20.001 2.269,18.605 2.058 C 18.059 1.976,5.887 1.979,5.358 2.061 M14.614 7.055 C 14.220 7.184,14.039 7.437,14.009 7.900 C 13.978 8.381,14.119 8.699,14.442 8.880 C 14.597 8.967,14.669 8.980,15.000 8.980 C 15.312 8.980,15.408 8.964,15.540 8.894 C 15.866 8.718,16.000 8.459,16.000 8.000 C 16.000 7.357,15.713 7.048,15.083 7.016 C 14.893 7.006,14.718 7.021,14.614 7.055 M18.614 13.057 C 18.250 13.171,18.061 13.411,18.008 13.826 L 17.980 14.049 17.759 14.118 C 17.003 14.351,16.361 14.979,16.118 15.722 C 16.034 15.976,16.020 16.094,16.022 16.520 C 16.024 16.960,16.038 17.056,16.133 17.320 C 16.394 18.039,16.964 18.609,17.680 18.867 C 17.961 18.968,18.033 18.976,18.800 18.992 C 19.702 19.010,19.786 19.030,19.922 19.252 C 20.021 19.415,20.021 19.585,19.922 19.748 C 19.770 19.997,19.750 20.000,18.208 20.000 C 16.724 20.000,16.580 20.015,16.322 20.199 C 16.100 20.357,16.020 20.568,16.020 21.000 C 16.020 21.331,16.033 21.403,16.120 21.558 C 16.230 21.755,16.414 21.898,16.635 21.959 C 16.715 21.981,17.052 22.000,17.384 22.000 L 17.989 22.000 18.013 22.203 C 18.074 22.715,18.426 23.000,19.000 23.000 C 19.582 23.000,19.923 22.720,19.984 22.193 L 20.010 21.966 20.294 21.873 C 21.001 21.642,21.605 21.046,21.868 20.320 C 21.965 20.052,21.976 19.965,21.976 19.500 C 21.976 19.035,21.965 18.948,21.868 18.680 C 21.646 18.068,21.195 17.561,20.620 17.277 C 20.172 17.055,19.869 17.002,19.068 17.001 C 18.319 17.000,18.216 16.974,18.078 16.748 C 17.979 16.585,17.979 16.415,18.078 16.252 C 18.230 16.003,18.249 16.000,19.808 16.000 C 20.630 16.000,21.280 15.983,21.365 15.959 C 21.586 15.898,21.770 15.755,21.880 15.558 C 21.967 15.402,21.980 15.332,21.979 15.000 C 21.978 14.687,21.962 14.591,21.890 14.453 C 21.702 14.098,21.423 14.000,20.599 14.000 L 20.010 14.000 19.983 13.794 C 19.948 13.531,19.835 13.310,19.678 13.199 C 19.414 13.010,18.957 12.950,18.614 13.057 " stroke="none" fill="black" fill-rule="evenodd"></path></svg>