<svg xmlns="http://www.w3.org/2000/svg" width="24" height="24" viewBox="0 0 24 24" fill="none" stroke="currentColor" stroke-width="2" stroke-linecap="round" stroke-linejoin="round" class="icon icon-tabler icons-tabler-outline icon-tabler-device-imac"><path d="M3.477 2.073 C 2.806 2.249,2.238 2.823,2.060 3.508 C 2.008 3.706,2.000 4.577,2.000 10.000 C 2.000 16.828,1.988 16.462,2.225 16.930 C 2.361 17.199,2.801 17.639,3.070 17.775 C 3.514 18.000,3.518 18.000,6.301 18.000 L 8.864 18.000 8.742 18.990 L 8.619 19.980 8.137 20.001 C 7.724 20.018,7.627 20.036,7.458 20.123 C 7.119 20.297,6.978 20.606,7.009 21.104 C 7.038 21.563,7.250 21.852,7.635 21.959 C 7.833 22.014,16.167 22.014,16.365 21.959 C 16.586 21.898,16.770 21.755,16.880 21.558 C 16.967 21.402,16.980 21.332,16.979 21.000 C 16.978 20.687,16.962 20.591,16.890 20.453 C 16.720 20.131,16.500 20.035,15.861 20.004 L 15.381 19.980 15.258 18.990 L 15.136 18.000 17.699 18.000 C 20.482 18.000,20.486 18.000,20.930 17.775 C 21.196 17.640,21.638 17.200,21.771 16.937 C 22.012 16.462,22.000 16.830,21.999 10.014 C 21.999 3.247,22.008 3.529,21.781 3.083 C 21.646 2.816,21.297 2.449,21.017 2.281 C 20.523 1.983,21.217 2.005,12.000 2.005 C 4.321 2.005,3.721 2.009,3.477 2.073 M20.000 8.000 L 20.000 12.000 12.000 12.000 L 4.000 12.000 4.000 8.000 L 4.000 4.000 12.000 4.000 L 20.000 4.000 20.000 8.000 M20.000 15.000 L 20.000 16.000 12.000 16.000 L 4.000 16.000 4.000 15.000 L 4.000 14.000 12.000 14.000 L 20.000 14.000 20.000 15.000 M13.120 18.030 C 13.120 18.047,13.174 18.483,13.240 19.000 C 13.306 19.517,13.360 19.953,13.360 19.970 C 13.360 19.987,12.748 20.000,12.000 20.000 C 11.252 20.000,10.640 19.987,10.640 19.970 C 10.640 19.953,10.694 19.517,10.760 19.000 C 10.826 18.483,10.880 18.047,10.880 18.030 C 10.880 18.014,11.384 18.000,12.000 18.000 C 12.616 18.000,13.120 18.014,13.120 18.030 " stroke="none" fill="black" fill-rule="evenodd"></path></svg>