<svg xmlns="http://www.w3.org/2000/svg" width="24" height="24" viewBox="0 0 24 24" fill="none" stroke="currentColor" stroke-width="2" stroke-linecap="round" stroke-linejoin="round" class="icon icon-tabler icons-tabler-outline icon-tabler-storm-off"><path d="M2.626 2.045 C 2.257 2.239,1.951 2.673,1.951 3.000 C 1.951 3.294,2.084 3.492,2.710 4.127 L 3.288 4.714 3.205 5.327 C 3.047 6.485,3.022 6.855,3.022 8.060 C 3.022 8.967,3.040 9.400,3.093 9.836 C 3.271 11.276,3.620 12.633,4.137 13.900 C 4.218 14.098,4.357 14.449,4.445 14.680 C 4.920 15.920,5.481 16.802,6.340 17.660 C 7.626 18.947,9.244 19.731,11.079 19.958 C 11.515 20.012,12.486 20.012,12.921 19.958 C 14.290 19.789,15.622 19.263,16.722 18.458 L 16.905 18.324 17.719 19.139 L 18.534 19.954 18.426 20.467 C 18.301 21.067,18.295 21.242,18.396 21.460 C 18.541 21.774,18.874 21.961,19.343 21.991 C 19.680 22.013,19.938 21.921,20.081 21.727 L 20.171 21.605 20.356 21.758 C 20.613 21.972,20.784 22.049,20.999 22.049 C 21.232 22.049,21.472 21.930,21.701 21.701 C 22.049 21.353,22.137 20.988,21.959 20.637 C 21.886 20.494,21.003 19.534,20.397 18.940 C 20.330 18.874,16.536 15.090,11.967 10.532 C 7.398 5.973,3.615 2.209,3.560 2.167 C 3.263 1.941,2.910 1.895,2.626 2.045 M11.320 4.026 C 10.620 4.095,9.892 4.256,9.322 4.468 C 8.636 4.724,8.459 4.910,8.461 5.377 C 8.462 5.601,8.485 5.710,8.573 5.900 C 8.851 6.498,9.200 6.616,9.940 6.362 C 11.352 5.877,12.774 5.886,14.120 6.388 C 14.611 6.572,14.859 6.698,15.300 6.991 C 16.013 7.464,16.585 8.042,17.056 8.768 C 17.329 9.187,17.472 9.488,17.657 10.026 C 17.912 10.768,17.975 11.163,17.976 12.020 C 17.976 12.713,17.966 12.823,17.864 13.260 C 17.802 13.524,17.710 13.850,17.660 13.984 C 17.432 14.591,17.457 14.947,17.749 15.202 C 18.054 15.470,18.594 15.626,18.876 15.527 L 19.000 15.484 19.000 15.855 C 19.000 16.344,19.074 16.589,19.277 16.773 C 19.464 16.942,19.649 17.000,20.000 17.000 C 20.469 17.000,20.716 16.874,20.892 16.545 C 20.974 16.391,20.980 16.329,20.978 15.600 C 20.977 14.745,20.926 14.164,20.775 13.280 C 20.597 12.237,20.260 11.055,19.880 10.140 C 19.789 9.920,19.616 9.490,19.496 9.184 C 19.030 7.997,18.482 7.164,17.594 6.293 C 16.870 5.582,16.244 5.149,15.339 4.732 C 14.572 4.379,13.694 4.137,12.832 4.043 C 12.472 4.003,11.648 3.994,11.320 4.026 M5.523 7.297 C 5.439 7.409,5.286 7.636,5.182 7.801 L 4.992 8.100 5.018 7.500 C 5.031 7.170,5.054 6.813,5.067 6.707 L 5.091 6.513 5.383 6.802 L 5.674 7.092 5.523 7.297 M12.994 8.277 C 12.677 8.379,12.425 8.671,12.305 9.077 C 12.222 9.356,12.224 9.501,12.315 9.702 C 12.402 9.893,12.553 10.028,12.901 10.222 C 13.276 10.432,13.542 10.690,13.749 11.047 C 14.139 11.718,14.496 11.862,15.092 11.589 C 15.372 11.461,15.623 11.233,15.682 11.053 C 15.801 10.693,15.631 10.181,15.199 9.599 C 14.601 8.792,13.481 8.120,12.994 8.277 M7.845 9.265 L 8.551 9.970 8.430 10.213 C 7.233 12.626,8.688 15.474,11.355 15.941 C 12.155 16.081,13.042 15.945,13.800 15.566 L 14.031 15.451 14.741 16.161 C 15.131 16.551,15.438 16.890,15.424 16.914 C 15.374 16.994,14.739 17.353,14.360 17.514 C 11.944 18.541,9.177 17.910,7.472 15.943 C 6.081 14.338,5.643 12.143,6.307 10.100 C 6.470 9.601,7.011 8.560,7.109 8.560 C 7.126 8.560,7.457 8.877,7.845 9.265 M11.298 12.718 C 11.957 13.378,12.486 13.927,12.473 13.940 C 12.419 13.994,11.870 14.008,11.632 13.962 C 10.825 13.805,10.169 13.136,10.037 12.333 C 9.991 12.057,10.015 11.520,10.073 11.520 C 10.088 11.520,10.640 12.059,11.298 12.718 " stroke="none" fill="black" fill-rule="evenodd"></path></svg>