<svg xmlns="http://www.w3.org/2000/svg" width="24" height="24" viewBox="0 0 24 24" fill="none" stroke="currentColor" stroke-width="2" stroke-linecap="round" stroke-linejoin="round" class="icon icon-tabler icons-tabler-outline icon-tabler-square-root"><path d="M12.689 3.039 C 12.465 3.092,12.257 3.260,12.151 3.473 C 12.088 3.599,11.438 6.129,10.376 10.376 C 9.454 14.063,8.691 17.080,8.680 17.080 C 8.669 17.080,8.027 15.814,7.254 14.268 C 6.480 12.721,5.799 11.397,5.739 11.326 C 5.679 11.255,5.556 11.157,5.465 11.108 C 5.307 11.024,5.249 11.019,4.080 11.008 C 2.778 10.995,2.612 11.012,2.351 11.182 C 2.105 11.343,2.020 11.553,2.020 12.000 C 2.020 12.331,2.033 12.403,2.120 12.558 C 2.230 12.755,2.414 12.898,2.635 12.959 C 2.715 12.981,3.140 13.000,3.580 13.000 L 4.380 13.000 6.286 16.812 C 7.335 18.909,8.243 20.685,8.304 20.758 C 8.755 21.293,9.729 21.007,9.951 20.274 C 9.994 20.134,10.872 16.640,11.904 12.510 L 13.780 5.000 17.500 5.000 C 19.869 5.000,21.273 4.985,21.365 4.959 C 21.586 4.898,21.770 4.755,21.880 4.558 C 21.967 4.402,21.980 4.332,21.979 4.000 C 21.978 3.567,21.898 3.355,21.678 3.199 C 21.393 2.996,21.487 3.000,17.004 3.004 C 14.703 3.006,12.761 3.022,12.689 3.039 " stroke="none" fill="black" fill-rule="evenodd"></path></svg>