<svg xmlns="http://www.w3.org/2000/svg" width="24" height="24" viewBox="0 0 24 24" fill="none" stroke="currentColor" stroke-width="2" stroke-linecap="round" stroke-linejoin="round" class="icon icon-tabler icons-tabler-outline icon-tabler-receipt-yuan"><path d="M6.499 2.043 C 5.390 2.231,4.488 3.024,4.114 4.140 L 4.020 4.420 4.000 12.780 C 3.979 21.724,3.971 21.345,4.173 21.647 C 4.297 21.832,4.689 22.038,4.920 22.038 C 5.226 22.040,5.627 21.891,5.780 21.719 C 5.824 21.669,6.311 21.328,6.863 20.959 L 7.866 20.289 8.663 21.079 C 9.515 21.924,9.687 22.049,10.000 22.049 C 10.307 22.049,10.487 21.921,11.270 21.147 L 12.000 20.425 12.730 21.147 C 13.513 21.921,13.693 22.049,14.000 22.049 C 14.313 22.049,14.485 21.924,15.337 21.079 L 16.134 20.289 17.332 21.088 C 17.990 21.527,18.601 21.912,18.690 21.943 C 19.146 22.104,19.669 21.936,19.880 21.558 L 19.980 21.380 19.980 12.920 L 19.980 4.460 19.886 4.160 C 19.581 3.182,18.832 2.428,17.861 2.121 L 17.540 2.020 12.120 2.014 C 9.139 2.011,6.609 2.024,6.499 2.043 M17.310 4.061 C 17.592 4.144,17.858 4.412,17.940 4.693 C 17.993 4.876,17.999 5.769,17.990 12.011 L 17.980 19.120 17.260 18.638 C 16.864 18.372,16.468 18.118,16.380 18.072 C 16.172 17.962,15.837 17.957,15.620 18.059 C 15.526 18.103,15.157 18.434,14.730 18.855 L 14.000 19.575 13.270 18.853 C 12.856 18.444,12.467 18.094,12.372 18.045 C 12.149 17.933,11.851 17.933,11.628 18.045 C 11.533 18.094,11.144 18.444,10.730 18.853 L 10.000 19.575 9.270 18.855 C 8.843 18.434,8.474 18.103,8.380 18.059 C 8.163 17.957,7.828 17.962,7.620 18.072 C 7.532 18.118,7.136 18.372,6.740 18.638 L 6.020 19.120 6.010 12.011 C 5.999 4.009,5.975 4.631,6.303 4.303 C 6.621 3.985,6.233 4.006,11.983 4.003 C 16.458 4.000,17.131 4.008,17.310 4.061 M8.652 6.058 C 8.402 6.174,8.111 6.433,8.024 6.618 C 7.939 6.796,7.944 7.102,8.035 7.302 C 8.076 7.391,8.634 8.251,9.275 9.212 C 9.916 10.173,10.440 10.968,10.440 10.980 C 10.440 10.991,10.074 11.000,9.626 11.000 C 8.761 11.000,8.557 11.031,8.322 11.199 C 8.100 11.357,8.020 11.568,8.020 12.000 C 8.020 12.331,8.033 12.403,8.120 12.558 C 8.230 12.755,8.414 12.898,8.635 12.959 C 8.716 12.982,9.270 13.000,9.890 13.000 L 11.000 13.000 11.000 14.610 C 11.000 15.565,11.017 16.279,11.041 16.365 C 11.148 16.750,11.437 16.962,11.896 16.991 C 12.381 17.022,12.699 16.882,12.880 16.558 L 12.980 16.380 12.992 14.690 L 13.004 13.000 14.112 13.000 C 14.731 13.000,15.284 12.982,15.365 12.959 C 15.586 12.898,15.770 12.755,15.880 12.558 C 15.967 12.402,15.980 12.332,15.979 12.000 C 15.978 11.567,15.898 11.355,15.678 11.199 C 15.443 11.031,15.239 11.000,14.374 11.000 C 13.926 11.000,13.560 10.991,13.560 10.980 C 13.560 10.968,14.084 10.173,14.725 9.212 C 15.366 8.251,15.924 7.391,15.965 7.302 C 16.056 7.102,16.061 6.796,15.976 6.618 C 15.889 6.433,15.598 6.174,15.348 6.058 C 14.960 5.877,14.600 5.951,14.317 6.268 C 14.242 6.353,13.694 7.155,13.100 8.050 C 12.506 8.945,12.011 9.678,12.000 9.678 C 11.989 9.678,11.494 8.945,10.900 8.050 C 10.306 7.155,9.758 6.353,9.683 6.268 C 9.400 5.951,9.040 5.877,8.652 6.058 " stroke="none" fill="black" fill-rule="evenodd"></path></svg>