<svg xmlns="http://www.w3.org/2000/svg" width="24" height="24" viewBox="0 0 24 24" fill="none" stroke="currentColor" stroke-width="2" stroke-linecap="round" stroke-linejoin="round" class="icon icon-tabler icons-tabler-outline icon-tabler-file-report"><path d="M4.499 2.043 C 3.383 2.230,2.461 3.048,2.114 4.160 L 2.020 4.460 2.020 12.000 L 2.020 19.540 2.114 19.840 C 2.418 20.816,3.150 21.554,4.140 21.886 L 4.420 21.980 8.020 21.993 C 10.635 22.002,11.678 21.993,11.833 21.959 C 12.261 21.866,12.486 21.537,12.486 21.003 C 12.486 20.656,12.418 20.446,12.248 20.267 C 12.001 20.007,12.219 20.022,8.280 20.000 L 4.700 19.980 4.516 19.872 C 4.415 19.813,4.284 19.700,4.225 19.623 C 3.986 19.309,4.000 19.795,4.000 12.022 C 4.000 4.006,3.975 4.631,4.303 4.303 C 4.618 3.989,4.481 4.000,7.947 4.000 L 11.000 4.000 11.000 5.632 C 11.000 7.399,11.010 7.507,11.225 7.930 C 11.361 8.199,11.801 8.639,12.070 8.775 C 12.493 8.990,12.601 9.000,14.368 9.000 L 16.000 9.000 16.000 9.610 C 16.000 9.945,16.019 10.285,16.041 10.365 C 16.148 10.750,16.437 10.962,16.896 10.991 C 17.381 11.022,17.699 10.882,17.880 10.558 L 17.980 10.380 17.980 9.000 C 17.980 7.647,17.978 7.617,17.890 7.452 C 17.841 7.360,17.724 7.231,17.630 7.165 C 17.498 7.073,13.263 2.838,12.719 2.254 C 12.473 1.991,12.626 2.000,8.463 2.005 C 6.393 2.007,4.609 2.025,4.499 2.043 M13.800 6.220 L 14.579 7.000 13.790 7.000 L 13.000 7.000 13.000 6.220 C 13.000 5.791,13.005 5.440,13.010 5.440 C 13.016 5.440,13.371 5.791,13.800 6.220 M16.400 12.044 C 14.761 12.229,13.261 13.290,12.526 14.785 C 12.158 15.533,12.020 16.136,12.020 17.000 C 12.020 17.670,12.078 18.044,12.268 18.600 C 12.846 20.291,14.253 21.525,16.040 21.907 C 16.511 22.008,17.489 22.008,17.960 21.907 C 19.488 21.580,20.748 20.630,21.433 19.288 C 21.838 18.494,21.980 17.899,21.980 17.000 C 21.980 16.101,21.838 15.506,21.433 14.713 C 20.794 13.461,19.604 12.510,18.240 12.162 C 17.669 12.016,17.019 11.974,16.400 12.044 M16.078 17.500 C 16.161 17.674,16.320 17.837,16.480 17.913 C 16.601 17.970,16.842 17.982,18.234 18.000 L 19.847 18.020 19.683 18.340 C 19.302 19.081,18.640 19.637,17.840 19.886 C 17.588 19.964,17.453 19.979,17.000 19.979 C 16.547 19.979,16.412 19.964,16.160 19.886 C 15.181 19.581,14.418 18.822,14.125 17.861 C 14.042 17.588,14.027 17.458,14.027 17.000 C 14.027 16.542,14.042 16.412,14.125 16.139 C 14.361 15.363,14.925 14.695,15.660 14.317 L 15.980 14.153 16.000 15.766 C 16.016 17.056,16.032 17.404,16.078 17.500 M18.460 14.380 C 19.022 14.695,19.586 15.332,19.797 15.890 L 19.838 16.000 18.919 16.000 L 18.000 16.000 18.000 15.081 L 18.000 14.162 18.110 14.203 C 18.171 14.226,18.328 14.306,18.460 14.380 " stroke="none" fill="black" fill-rule="evenodd"></path></svg>