<svg xmlns="http://www.w3.org/2000/svg" width="24" height="24" viewBox="0 0 24 24" fill="none" stroke="currentColor" stroke-width="2" stroke-linecap="round" stroke-linejoin="round" class="icon icon-tabler icons-tabler-outline icon-tabler-confetti-off"><path d="M2.626 2.045 C 2.257 2.239,1.951 2.673,1.951 3.000 C 1.951 3.283,2.083 3.490,2.605 4.022 C 3.078 4.504,3.079 4.505,3.039 4.642 C 2.989 4.819,2.989 5.180,3.041 5.365 C 3.137 5.710,3.417 5.942,3.792 5.987 L 3.990 6.010 4.013 6.208 C 4.058 6.583,4.290 6.863,4.635 6.959 C 4.821 7.011,5.181 7.011,5.360 6.960 L 5.499 6.920 6.490 7.910 C 7.034 8.454,7.480 8.913,7.480 8.930 C 7.480 8.946,7.434 8.960,7.378 8.960 C 7.226 8.960,6.971 9.105,6.785 9.298 C 6.642 9.446,6.320 10.123,4.405 14.304 C 3.186 16.964,2.153 19.239,2.109 19.360 C 2.007 19.639,1.975 20.127,2.040 20.406 C 2.219 21.181,2.823 21.784,3.594 21.961 C 3.874 22.025,4.362 21.992,4.640 21.891 C 4.761 21.847,7.036 20.814,9.695 19.595 C 13.405 17.895,14.570 17.345,14.702 17.229 C 14.877 17.076,14.983 16.848,15.008 16.569 C 15.020 16.441,15.040 16.458,16.050 17.469 L 17.080 18.501 17.040 18.640 C 16.989 18.819,16.989 19.179,17.041 19.365 C 17.137 19.710,17.417 19.942,17.792 19.987 L 17.990 20.010 18.013 20.208 C 18.058 20.583,18.290 20.863,18.635 20.959 C 18.820 21.011,19.181 21.011,19.358 20.961 C 19.495 20.921,19.496 20.922,19.978 21.395 C 20.244 21.656,20.541 21.910,20.638 21.959 C 20.988 22.137,21.354 22.049,21.701 21.701 C 22.048 21.354,22.137 20.989,21.959 20.637 C 21.887 20.494,20.629 19.161,19.723 18.266 C 19.572 18.118,5.882 4.428,5.734 4.277 C 4.876 3.408,3.505 2.113,3.372 2.045 C 3.152 1.934,2.836 1.934,2.626 2.045 M10.982 3.091 C 10.682 3.261,10.625 3.393,10.299 4.681 C 9.963 6.011,9.934 6.252,10.083 6.516 C 10.246 6.807,10.671 7.008,11.120 7.008 C 11.497 7.008,11.769 6.807,11.914 6.420 C 11.938 6.354,12.086 5.787,12.242 5.160 C 12.545 3.946,12.565 3.759,12.422 3.484 C 12.216 3.086,11.389 2.860,10.982 3.091 M18.614 3.057 C 18.260 3.168,18.058 3.416,18.013 3.794 L 17.991 3.983 17.752 4.029 C 17.272 4.120,17.042 4.389,17.009 4.900 C 16.969 5.530,17.252 5.923,17.792 5.987 L 17.990 6.010 18.013 6.208 C 18.074 6.715,18.428 7.000,19.000 7.000 C 19.572 7.000,19.919 6.723,19.982 6.215 L 20.008 6.010 20.201 5.987 C 20.539 5.947,20.754 5.804,20.904 5.520 C 21.018 5.303,21.009 4.679,20.888 4.450 C 20.773 4.233,20.551 4.086,20.248 4.029 L 20.008 3.983 19.982 3.786 C 19.948 3.531,19.834 3.309,19.678 3.199 C 19.414 3.010,18.957 2.950,18.614 3.057 M14.620 8.046 C 14.396 8.163,13.151 9.416,13.040 9.637 C 12.863 9.989,12.952 10.354,13.299 10.701 C 13.646 11.048,14.011 11.137,14.363 10.960 C 14.600 10.841,15.841 9.600,15.960 9.363 C 16.137 9.011,16.048 8.646,15.701 8.299 C 15.361 7.959,14.967 7.867,14.620 8.046 M18.775 11.776 C 17.463 12.106,17.255 12.192,17.093 12.469 C 16.846 12.890,17.059 13.678,17.483 13.917 C 17.750 14.067,17.964 14.042,19.299 13.705 C 20.607 13.375,20.736 13.320,20.912 13.018 C 20.992 12.881,21.002 12.818,20.989 12.540 C 20.956 11.865,20.623 11.477,20.080 11.482 C 20.003 11.482,19.416 11.615,18.775 11.776 M10.038 13.978 C 11.258 15.199,12.247 16.206,12.236 16.217 C 12.217 16.236,4.568 19.750,4.170 19.923 L 3.999 19.997 4.053 19.889 C 4.083 19.829,4.933 17.976,5.942 15.770 C 6.951 13.564,7.787 11.760,7.799 11.760 C 7.810 11.760,8.818 12.758,10.038 13.978 " stroke="none" fill="black" fill-rule="evenodd"></path></svg>