<svg xmlns="http://www.w3.org/2000/svg" width="24" height="24" viewBox="0 0 24 24" fill="none" stroke="currentColor" stroke-width="2" stroke-linecap="round" stroke-linejoin="round" class="icon icon-tabler icons-tabler-outline icon-tabler-math-x-divide-2"><path d="M8.626 2.045 C 8.257 2.239,7.951 2.673,7.951 3.000 C 7.951 3.333,8.056 3.467,9.353 4.770 L 10.577 6.000 9.353 7.230 C 8.056 8.533,7.951 8.667,7.951 9.000 C 7.951 9.477,8.523 10.049,9.000 10.049 C 9.333 10.049,9.467 9.944,10.770 8.647 L 12.000 7.423 13.230 8.647 C 14.533 9.944,14.667 10.049,15.000 10.049 C 15.477 10.049,16.049 9.477,16.049 9.000 C 16.049 8.667,15.944 8.533,14.647 7.230 L 13.423 6.000 14.647 4.770 C 15.452 3.961,15.901 3.479,15.960 3.363 C 16.137 3.011,16.048 2.646,15.701 2.299 C 15.361 1.958,14.980 1.868,14.628 2.045 C 14.523 2.098,13.999 2.588,13.230 3.353 L 12.000 4.577 10.770 3.353 C 10.001 2.588,9.477 2.098,9.372 2.045 C 9.152 1.934,8.835 1.934,8.626 2.045 M4.614 11.057 C 4.377 11.131,4.212 11.261,4.109 11.453 C 4.035 11.592,4.020 11.684,4.020 12.000 C 4.020 12.331,4.033 12.403,4.120 12.558 C 4.230 12.755,4.414 12.898,4.635 12.959 C 4.835 13.015,19.165 13.015,19.365 12.959 C 19.586 12.898,19.770 12.755,19.880 12.558 C 19.967 12.402,19.980 12.332,19.979 12.000 C 19.978 11.567,19.898 11.355,19.678 11.199 C 19.387 10.991,19.720 11.000,11.984 11.003 C 6.188 11.005,4.747 11.016,4.614 11.057 M9.614 14.057 C 9.377 14.131,9.212 14.261,9.109 14.453 C 9.035 14.592,9.020 14.684,9.020 15.000 C 9.020 15.331,9.033 15.403,9.120 15.558 C 9.230 15.755,9.414 15.898,9.635 15.959 C 9.721 15.983,10.435 16.000,11.390 16.000 L 13.000 16.000 13.000 16.500 L 13.000 17.000 11.870 17.002 C 10.595 17.005,10.391 17.035,9.983 17.281 C 9.703 17.449,9.354 17.816,9.219 18.083 C 9.036 18.443,9.000 18.677,9.000 19.500 C 9.000 20.329,9.036 20.556,9.225 20.930 C 9.361 21.199,9.801 21.639,10.070 21.775 C 10.497 21.991,10.591 22.000,12.478 22.000 C 13.522 22.000,14.278 21.983,14.365 21.959 C 14.586 21.898,14.770 21.755,14.880 21.558 C 14.967 21.402,14.980 21.332,14.979 21.000 C 14.978 20.567,14.898 20.355,14.678 20.199 C 14.416 20.012,14.290 20.000,12.594 20.000 L 11.000 20.000 11.000 19.500 L 11.000 19.000 12.132 19.000 C 13.358 19.000,13.528 18.979,13.930 18.775 C 14.196 18.640,14.638 18.200,14.771 17.937 C 14.959 17.566,15.000 17.312,14.999 16.514 C 14.999 15.716,14.954 15.424,14.781 15.083 C 14.646 14.816,14.297 14.449,14.017 14.281 C 13.578 14.017,13.468 14.005,11.520 14.005 C 10.204 14.005,9.739 14.018,9.614 14.057 " stroke="none" fill="black" fill-rule="evenodd"></path></svg>