<svg xmlns="http://www.w3.org/2000/svg" width="24" height="24" viewBox="0 0 24 24" fill="none" stroke="currentColor" stroke-width="2" stroke-linecap="round" stroke-linejoin="round" class="icon icon-tabler icons-tabler-outline icon-tabler-arrow-bear-right"><path d="M14.219 1.999 L 11.658 2.020 11.459 2.122 C 11.119 2.297,10.978 2.606,11.009 3.104 C 11.038 3.563,11.250 3.852,11.635 3.959 C 11.719 3.983,12.365 4.000,13.179 4.000 L 14.578 4.000 11.515 7.070 C 9.831 8.758,8.369 10.251,8.266 10.388 C 7.596 11.275,7.184 12.276,7.044 13.356 C 6.986 13.801,6.983 21.158,7.041 21.365 C 7.148 21.750,7.437 21.962,7.896 21.991 C 8.381 22.022,8.699 21.882,8.880 21.558 L 8.980 21.380 9.002 17.420 C 9.024 13.545,9.026 13.453,9.109 13.140 C 9.263 12.563,9.508 12.064,9.865 11.600 C 9.958 11.479,11.376 10.039,13.017 8.400 L 16.000 5.420 16.000 6.820 C 16.000 7.634,16.017 8.281,16.041 8.365 C 16.148 8.750,16.437 8.962,16.896 8.991 C 17.381 9.022,17.699 8.882,17.880 8.558 L 17.980 8.380 18.007 5.720 C 18.022 4.257,18.036 3.001,18.037 2.929 C 18.041 2.740,17.834 2.310,17.690 2.207 C 17.466 2.048,17.205 1.959,16.987 1.969 C 16.873 1.974,15.627 1.988,14.219 1.999 " stroke="none" fill="black" fill-rule="evenodd"></path></svg>