<svg xmlns="http://www.w3.org/2000/svg" width="24" height="24" viewBox="0 0 24 24" fill="none" stroke="currentColor" stroke-width="2" stroke-linecap="round" stroke-linejoin="round" class="icon icon-tabler icons-tabler-outline icon-tabler-details-off"><path d="M2.626 2.045 C 2.420 2.154,2.146 2.433,2.038 2.644 C 1.924 2.868,1.924 3.132,2.040 3.363 C 2.101 3.486,2.826 4.239,4.410 5.827 L 6.692 8.113 6.570 8.329 C 6.503 8.448,5.499 10.182,4.339 12.182 C 3.179 14.183,2.205 15.891,2.174 15.977 C 1.996 16.479,1.951 17.104,2.058 17.606 C 2.247 18.497,2.861 19.292,3.660 19.679 C 4.333 20.006,3.601 19.977,11.519 19.990 L 18.578 20.001 19.519 20.936 C 20.114 21.527,20.525 21.903,20.637 21.960 C 20.989 22.137,21.354 22.048,21.701 21.701 C 22.048 21.354,22.137 20.989,21.959 20.637 C 21.888 20.496,20.630 19.162,19.748 18.293 C 19.664 18.210,12.968 11.515,12.760 11.306 C 12.705 11.250,10.608 9.163,8.100 6.667 C 5.004 3.585,3.486 2.101,3.372 2.044 C 3.152 1.934,2.835 1.935,2.626 2.045 M11.632 2.001 C 11.077 2.067,10.559 2.284,10.124 2.633 C 9.772 2.916,9.611 3.114,9.274 3.680 C 8.396 5.153,8.310 5.349,8.398 5.674 C 8.501 6.054,9.074 6.460,9.497 6.454 C 9.904 6.448,10.091 6.264,10.620 5.343 L 10.980 4.717 11.000 6.548 L 11.020 8.380 11.120 8.558 C 11.287 8.856,11.572 9.000,12.000 9.000 C 12.428 9.000,12.713 8.856,12.880 8.558 L 12.980 8.380 13.000 6.568 L 13.020 4.756 16.400 10.584 C 18.259 13.789,19.820 16.488,19.868 16.581 C 19.920 16.680,19.968 16.865,19.983 17.025 C 20.018 17.399,20.151 17.687,20.350 17.818 C 20.736 18.073,21.463 18.019,21.748 17.713 C 22.028 17.414,22.061 16.772,21.833 16.080 C 21.777 15.908,20.567 13.781,18.250 9.780 C 16.326 6.458,14.670 3.608,14.571 3.448 C 13.933 2.411,12.814 1.860,11.632 2.001 M11.000 15.211 L 11.000 18.002 7.850 17.991 L 4.700 17.980 4.535 17.892 C 4.112 17.666,3.887 17.108,4.056 16.705 C 4.111 16.572,8.054 9.747,8.133 9.647 C 8.165 9.607,8.500 9.920,9.587 11.007 L 11.000 12.420 11.000 15.211 M14.800 16.220 L 16.580 18.000 14.790 18.000 L 13.000 18.000 13.000 16.220 C 13.000 15.241,13.005 14.440,13.010 14.440 C 13.016 14.440,13.821 15.241,14.800 16.220 " stroke="none" fill="black" fill-rule="evenodd"></path></svg>