<svg xmlns="http://www.w3.org/2000/svg" width="24" height="24" viewBox="0 0 24 24" fill="none" stroke="currentColor" stroke-width="2" stroke-linecap="round" stroke-linejoin="round" class="icon icon-tabler icons-tabler-outline icon-tabler-dog-bowl"><path d="M6.460 5.057 C 6.093 5.129,5.830 5.220,5.560 5.368 C 4.982 5.687,4.491 6.232,4.235 6.839 C 4.175 6.982,4.101 7.112,4.073 7.128 C 4.044 7.143,3.885 7.219,3.720 7.296 C 3.099 7.588,2.608 8.066,2.320 8.660 C 2.076 9.164,2.022 9.417,2.023 10.040 C 2.025 10.537,2.035 10.608,2.147 10.928 C 2.516 11.983,3.341 12.717,4.413 12.943 C 4.925 13.051,5.593 12.992,6.093 12.795 L 6.295 12.715 6.928 13.348 L 7.561 13.980 6.151 14.000 C 4.774 14.020,4.735 14.022,4.550 14.113 C 4.297 14.238,3.619 14.889,3.303 15.309 C 2.482 16.403,2.031 17.937,2.023 19.660 C 2.020 20.357,2.023 20.386,2.120 20.558 C 2.230 20.755,2.414 20.898,2.635 20.959 C 2.835 21.015,21.165 21.015,21.365 20.959 C 21.711 20.863,21.935 20.593,21.982 20.215 C 22.010 19.995,21.915 18.799,21.817 18.133 C 21.664 17.091,21.329 16.229,20.769 15.442 C 20.459 15.007,19.758 14.289,19.486 14.129 L 19.300 14.020 17.869 14.000 L 16.439 13.980 17.072 13.348 L 17.705 12.715 17.907 12.795 C 19.352 13.364,21.025 12.706,21.700 11.304 C 22.254 10.151,22.015 8.766,21.108 7.872 C 20.858 7.625,20.409 7.328,20.120 7.217 C 19.886 7.127,19.887 7.128,19.761 6.829 C 19.407 5.990,18.622 5.315,17.754 5.103 C 16.190 4.721,14.675 5.547,14.151 7.068 C 13.939 7.682,13.959 8.455,14.202 9.096 L 14.280 9.300 13.140 10.440 L 12.000 11.580 10.858 10.437 L 9.715 9.295 9.795 9.093 C 9.839 8.982,9.903 8.754,9.937 8.587 C 10.257 7.039,9.304 5.524,7.740 5.093 C 7.441 5.011,6.789 4.992,6.460 5.057 M7.316 7.063 C 7.691 7.174,8.000 7.588,8.000 7.980 C 8.000 8.220,7.886 8.498,7.695 8.721 C 7.357 9.116,7.285 9.412,7.443 9.760 C 7.504 9.894,7.916 10.332,9.052 11.470 L 10.578 13.001 10.290 13.290 L 10.001 13.578 8.470 12.055 C 7.355 10.945,6.890 10.509,6.757 10.446 C 6.415 10.285,6.118 10.355,5.725 10.692 C 5.255 11.094,4.695 11.097,4.299 10.701 C 3.932 10.334,3.907 9.756,4.241 9.351 C 4.410 9.146,4.666 9.036,5.064 8.995 C 5.714 8.929,5.929 8.715,5.995 8.065 C 6.051 7.509,6.270 7.189,6.680 7.061 C 6.919 6.987,7.063 6.987,7.316 7.063 M17.303 7.059 C 17.729 7.186,17.952 7.505,18.002 8.060 C 18.061 8.704,18.296 8.939,18.941 8.998 C 19.332 9.034,19.589 9.145,19.761 9.354 C 19.891 9.510,20.000 9.815,20.000 10.020 C 20.000 10.396,19.701 10.811,19.340 10.934 C 18.956 11.065,18.623 10.989,18.275 10.692 C 17.882 10.355,17.586 10.285,17.243 10.446 C 17.108 10.509,16.600 10.990,15.319 12.266 L 13.578 14.000 13.000 14.000 L 12.422 14.000 14.449 11.970 C 15.983 10.434,16.495 9.896,16.557 9.760 C 16.714 9.411,16.643 9.116,16.305 8.721 C 16.114 8.498,16.000 8.220,16.000 7.980 C 16.000 7.599,16.309 7.175,16.667 7.065 C 16.917 6.988,17.061 6.987,17.303 7.059 M10.080 16.027 C 10.263 16.018,13.738 16.018,13.920 16.027 C 13.997 16.030,15.088 16.025,16.345 16.015 L 18.631 15.997 18.847 16.248 C 19.489 16.995,19.745 17.611,19.872 18.710 L 19.906 19.000 11.975 19.000 L 4.045 19.000 4.067 18.850 C 4.227 17.737,4.544 16.940,5.086 16.288 L 5.329 15.997 7.634 16.015 C 8.903 16.025,10.003 16.030,10.080 16.027 " stroke="none" fill="black" fill-rule="evenodd"></path></svg>