<svg xmlns="http://www.w3.org/2000/svg" width="24" height="24" viewBox="0 0 24 24" fill="none" stroke="currentColor" stroke-width="2" stroke-linecap="round" stroke-linejoin="round" class="icon icon-tabler icons-tabler-outline icon-tabler-building-bridge-2"><path d="M5.499 6.043 C 4.390 6.231,3.488 7.024,3.114 8.140 L 3.020 8.420 3.009 13.318 C 3.001 16.654,3.011 18.282,3.040 18.421 C 3.148 18.941,3.602 19.538,4.070 19.775 C 4.479 19.982,4.632 20.000,5.993 20.000 C 7.353 20.000,7.526 19.980,7.937 19.771 C 8.196 19.640,8.639 19.198,8.770 18.940 C 8.965 18.553,8.972 18.495,9.000 16.940 C 9.025 15.522,9.030 15.447,9.124 15.139 C 9.417 14.184,10.185 13.416,11.139 13.125 C 11.412 13.042,11.542 13.027,12.000 13.027 C 12.458 13.027,12.588 13.042,12.861 13.125 C 13.815 13.416,14.583 14.184,14.876 15.139 C 14.970 15.447,14.975 15.519,14.999 16.960 C 15.022 18.384,15.028 18.471,15.113 18.684 C 15.359 19.307,15.882 19.777,16.508 19.940 C 16.687 19.987,17.009 20.000,18.000 20.000 C 19.368 20.000,19.521 19.982,19.930 19.775 C 20.196 19.640,20.638 19.200,20.771 18.937 C 21.013 18.461,21.003 18.705,20.991 13.330 L 20.980 8.420 20.886 8.140 C 20.556 7.158,19.821 6.425,18.861 6.121 L 18.540 6.020 12.120 6.014 C 8.589 6.011,5.609 6.024,5.499 6.043 M18.310 8.061 C 18.589 8.144,18.856 8.411,18.939 8.690 C 18.992 8.868,19.000 9.488,19.000 13.447 L 19.000 18.000 18.003 18.000 L 17.006 18.000 16.989 16.650 C 16.970 15.205,16.953 15.051,16.732 14.400 C 16.198 12.823,14.856 11.578,13.240 11.161 C 12.307 10.920,11.125 10.983,10.248 11.320 C 9.565 11.582,8.886 12.035,8.384 12.563 C 7.737 13.243,7.319 14.034,7.097 15.000 C 7.042 15.242,7.025 15.562,7.011 16.650 L 6.994 18.000 5.997 18.000 L 5.000 18.000 5.000 13.447 C 5.000 8.307,4.981 8.625,5.304 8.303 C 5.623 7.983,5.120 8.006,11.983 8.003 C 17.353 8.000,18.131 8.007,18.310 8.061 " stroke="none" fill="black" fill-rule="evenodd"></path></svg>