<svg xmlns="http://www.w3.org/2000/svg" width="24" height="24" viewBox="0 0 24 24" fill="none" stroke="currentColor" stroke-width="2" stroke-linecap="round" stroke-linejoin="round" class="icon icon-tabler icons-tabler-outline icon-tabler-indent-decrease"><path d="M12.614 5.057 C 12.377 5.131,12.212 5.261,12.109 5.453 C 12.035 5.592,12.020 5.684,12.020 6.000 C 12.020 6.331,12.033 6.403,12.120 6.558 C 12.230 6.755,12.414 6.898,12.635 6.959 C 12.833 7.014,20.167 7.014,20.365 6.959 C 20.586 6.898,20.770 6.755,20.880 6.558 C 20.967 6.402,20.980 6.332,20.979 6.000 C 20.978 5.567,20.898 5.355,20.678 5.199 C 20.395 4.997,20.449 5.000,16.484 5.003 C 13.561 5.005,12.745 5.016,12.614 5.057 M7.620 7.046 C 7.385 7.167,3.154 11.408,3.039 11.637 C 2.924 11.868,2.924 12.132,3.039 12.363 C 3.164 12.612,7.388 16.836,7.637 16.961 C 7.990 17.137,8.355 17.048,8.701 16.701 C 9.048 16.354,9.137 15.989,8.960 15.637 C 8.900 15.517,8.321 14.908,7.147 13.730 L 5.422 12.000 7.147 10.270 C 8.321 9.092,8.900 8.483,8.960 8.363 C 9.137 8.011,9.048 7.646,8.701 7.299 C 8.361 6.959,7.968 6.867,7.620 7.046 M10.614 11.057 C 10.377 11.131,10.212 11.261,10.109 11.453 C 10.035 11.592,10.020 11.684,10.020 12.000 C 10.020 12.331,10.033 12.403,10.120 12.558 C 10.230 12.755,10.414 12.898,10.635 12.959 C 10.834 13.014,20.166 13.014,20.365 12.959 C 20.586 12.898,20.770 12.755,20.880 12.558 C 20.967 12.402,20.980 12.332,20.979 12.000 C 20.978 11.567,20.898 11.355,20.678 11.199 C 20.392 10.995,20.526 11.000,15.484 11.003 C 11.740 11.005,10.746 11.016,10.614 11.057 M12.614 17.057 C 12.377 17.131,12.212 17.261,12.109 17.453 C 12.035 17.592,12.020 17.684,12.020 18.000 C 12.020 18.331,12.033 18.403,12.120 18.558 C 12.230 18.755,12.414 18.898,12.635 18.959 C 12.833 19.014,20.167 19.014,20.365 18.959 C 20.586 18.898,20.770 18.755,20.880 18.558 C 20.967 18.402,20.980 18.332,20.979 18.000 C 20.978 17.567,20.898 17.355,20.678 17.199 C 20.395 16.997,20.449 17.000,16.484 17.003 C 13.561 17.005,12.745 17.016,12.614 17.057 " stroke="none" fill="black" fill-rule="evenodd"></path></svg>