<svg xmlns="http://www.w3.org/2000/svg" width="24" height="24" viewBox="0 0 24 24" fill="none" stroke="currentColor" stroke-width="2" stroke-linecap="round" stroke-linejoin="round" class="icon icon-tabler icons-tabler-outline icon-tabler-rewind-backward-30"><path d="M6.620 2.046 C 6.528 2.094,5.826 2.758,4.960 3.618 C 4.135 4.438,3.399 5.150,3.324 5.201 C 3.149 5.321,2.951 5.745,2.951 6.000 C 2.951 6.238,3.150 6.682,3.303 6.784 C 3.366 6.826,4.101 7.537,4.938 8.365 C 5.949 9.365,6.520 9.901,6.637 9.960 C 6.989 10.137,7.354 10.048,7.701 9.701 C 8.048 9.354,8.137 8.988,7.959 8.637 C 7.905 8.531,7.580 8.167,7.146 7.729 L 6.422 6.997 11.061 7.011 C 15.151 7.024,15.733 7.033,15.980 7.090 C 16.959 7.315,17.763 7.739,18.452 8.395 C 19.182 9.089,19.687 10.008,19.907 11.040 C 20.007 11.513,20.006 12.490,19.905 12.958 C 19.800 13.439,19.659 13.845,19.452 14.260 C 19.206 14.754,18.976 15.067,18.492 15.566 C 18.265 15.800,18.052 16.056,18.020 16.135 C 17.883 16.461,17.981 16.815,18.302 17.158 C 18.872 17.767,19.376 17.624,20.271 16.601 C 21.201 15.537,21.785 14.208,21.963 12.745 C 22.056 11.983,21.973 10.970,21.752 10.160 C 21.045 7.572,18.933 5.632,16.260 5.111 C 15.829 5.027,15.728 5.025,11.124 5.011 L 6.428 4.997 7.149 4.268 C 7.581 3.832,7.905 3.469,7.959 3.363 C 8.137 3.012,8.048 2.646,7.701 2.299 C 7.361 1.959,6.967 1.867,6.620 2.046 M5.614 13.057 C 5.377 13.131,5.212 13.261,5.109 13.453 C 5.035 13.592,5.020 13.684,5.020 14.000 C 5.020 14.331,5.033 14.403,5.120 14.558 C 5.230 14.755,5.414 14.898,5.635 14.959 C 5.715 14.981,6.194 15.000,6.700 15.000 C 7.542 15.000,7.631 15.007,7.748 15.078 C 7.991 15.226,8.065 15.513,7.922 15.748 C 7.798 15.951,7.659 16.000,7.208 16.000 C 6.593 16.000,6.283 16.128,6.109 16.453 C 6.035 16.592,6.020 16.684,6.020 17.000 C 6.020 17.331,6.033 17.403,6.120 17.558 C 6.309 17.896,6.562 17.999,7.200 18.000 C 7.546 18.000,7.643 18.014,7.748 18.078 C 7.991 18.226,8.065 18.513,7.922 18.748 C 7.778 18.984,7.701 19.000,6.708 19.000 C 5.756 19.000,5.562 19.028,5.322 19.199 C 5.100 19.357,5.020 19.568,5.020 20.000 C 5.020 20.331,5.033 20.403,5.120 20.558 C 5.233 20.760,5.417 20.900,5.652 20.963 C 5.756 20.991,6.206 21.001,6.916 20.992 C 8.002 20.977,8.025 20.975,8.320 20.868 C 9.041 20.604,9.608 20.037,9.868 19.320 C 9.965 19.052,9.976 18.965,9.976 18.500 C 9.976 18.035,9.965 17.949,9.868 17.684 C 9.809 17.521,9.705 17.301,9.636 17.194 L 9.512 17.000 9.636 16.806 C 9.705 16.699,9.809 16.479,9.868 16.316 C 9.965 16.051,9.976 15.965,9.976 15.500 C 9.976 15.035,9.965 14.948,9.868 14.680 C 9.732 14.306,9.458 13.898,9.165 13.636 C 8.887 13.387,8.390 13.137,8.020 13.060 C 7.647 12.982,5.861 12.980,5.614 13.057 M12.960 13.062 C 12.605 13.138,12.107 13.393,11.832 13.639 C 11.532 13.907,11.239 14.352,11.118 14.722 L 11.020 15.020 11.020 17.020 L 11.020 19.020 11.131 19.320 C 11.399 20.044,11.964 20.608,12.680 20.868 C 12.948 20.965,13.035 20.976,13.500 20.976 C 13.965 20.976,14.052 20.965,14.320 20.868 C 15.036 20.608,15.601 20.044,15.869 19.320 L 15.980 19.020 15.980 17.000 L 15.980 14.980 15.869 14.680 C 15.430 13.486,14.192 12.798,12.960 13.062 M13.724 15.062 C 13.790 15.096,13.879 15.182,13.922 15.252 C 13.996 15.373,14.000 15.464,14.000 17.000 C 14.000 18.536,13.996 18.627,13.922 18.748 C 13.722 19.076,13.278 19.076,13.078 18.748 C 13.004 18.627,13.000 18.536,13.000 17.008 C 13.000 15.228,12.999 15.232,13.252 15.078 C 13.406 14.984,13.563 14.979,13.724 15.062 " stroke="none" fill="black" fill-rule="evenodd"></path></svg>