<svg xmlns="http://www.w3.org/2000/svg" width="24" height="24" viewBox="0 0 24 24" fill="none" stroke="currentColor" stroke-width="2" stroke-linecap="round" stroke-linejoin="round" class="icon icon-tabler icons-tabler-outline icon-tabler-info-triangle"><path d="M11.360 1.743 C 10.997 1.820,10.351 2.154,10.057 2.417 C 9.924 2.536,9.724 2.765,9.614 2.927 C 9.333 3.337,1.373 16.642,1.258 16.894 C 1.083 17.275,1.021 17.588,1.021 18.080 C 1.021 18.622,1.087 18.912,1.318 19.380 C 1.603 19.956,2.045 20.398,2.620 20.682 C 3.280 21.007,2.416 20.980,12.000 20.980 C 21.583 20.980,20.719 21.007,21.380 20.682 C 21.947 20.403,22.401 19.949,22.682 19.380 C 22.913 18.912,22.979 18.622,22.979 18.080 C 22.979 17.589,22.917 17.275,22.744 16.897 C 22.629 16.647,14.665 3.334,14.386 2.927 C 14.276 2.765,14.076 2.536,13.943 2.417 C 13.633 2.140,13.002 1.820,12.607 1.739 C 12.252 1.667,11.711 1.669,11.360 1.743 M12.380 3.756 C 12.468 3.797,12.588 3.882,12.647 3.945 C 12.789 4.099,20.880 17.616,20.952 17.820 C 21.108 18.266,20.805 18.829,20.340 18.956 C 20.114 19.018,3.907 19.018,3.663 18.956 C 3.165 18.831,2.862 18.202,3.076 17.740 C 3.207 17.457,11.243 4.064,11.353 3.945 C 11.508 3.778,11.744 3.682,12.000 3.682 C 12.130 3.682,12.286 3.712,12.380 3.756 M11.614 8.055 C 11.220 8.184,11.039 8.437,11.009 8.900 C 10.978 9.381,11.119 9.699,11.442 9.880 C 11.597 9.967,11.669 9.980,12.000 9.980 C 12.312 9.980,12.408 9.964,12.540 9.894 C 12.866 9.718,13.000 9.459,13.000 9.000 C 13.000 8.357,12.713 8.048,12.083 8.016 C 11.893 8.006,11.718 8.021,11.614 8.055 M10.614 11.057 C 10.223 11.180,10.039 11.436,10.009 11.900 C 9.968 12.532,10.251 12.922,10.797 12.987 L 11.000 13.011 11.000 14.616 C 11.000 15.567,11.017 16.279,11.041 16.365 C 11.102 16.586,11.245 16.770,11.442 16.880 C 11.612 16.976,11.654 16.981,12.405 16.993 C 12.880 17.001,13.252 16.989,13.349 16.963 C 13.583 16.900,13.767 16.760,13.880 16.558 C 13.967 16.402,13.980 16.332,13.979 16.000 C 13.978 15.685,13.963 15.591,13.888 15.450 C 13.773 15.232,13.551 15.086,13.246 15.028 L 13.004 14.982 12.992 13.301 C 12.980 11.651,12.978 11.617,12.891 11.453 C 12.785 11.256,12.622 11.131,12.371 11.055 C 12.126 10.982,10.851 10.983,10.614 11.057 " stroke="none" fill="black" fill-rule="evenodd"></path></svg>