<svg xmlns="http://www.w3.org/2000/svg" width="24" height="24" viewBox="0 0 24 24" fill="none" stroke="currentColor" stroke-width="2" stroke-linecap="round" stroke-linejoin="round" class="icon icon-tabler icons-tabler-outline icon-tabler-free-rights"><path d="M11.080 2.045 C 9.507 2.184,7.883 2.751,6.540 3.630 C 5.905 4.045,5.499 4.378,4.919 4.958 C 2.953 6.926,1.919 9.544,2.013 12.320 C 2.084 14.439,2.752 16.328,4.033 18.040 C 4.430 18.570,5.305 19.464,5.800 19.847 C 7.242 20.961,8.787 21.624,10.600 21.907 C 11.247 22.008,12.753 22.008,13.400 21.907 C 15.638 21.557,17.504 20.620,19.062 19.062 C 20.620 17.504,21.557 15.638,21.907 13.400 C 22.008 12.753,22.008 11.247,21.907 10.600 C 21.624 8.786,20.959 7.238,19.847 5.800 C 19.510 5.365,18.639 4.494,18.200 4.154 C 16.133 2.555,13.646 1.818,11.080 2.045 M12.734 4.041 C 14.574 4.216,16.228 4.976,17.554 6.256 C 20.044 8.659,20.701 12.389,19.183 15.501 C 18.952 15.974,18.392 16.880,18.330 16.880 C 18.316 16.880,18.016 16.595,17.663 16.248 C 17.306 15.897,16.949 15.581,16.860 15.538 C 16.652 15.438,16.346 15.439,16.140 15.540 C 15.926 15.644,15.614 15.961,15.519 16.170 C 15.476 16.264,15.442 16.412,15.442 16.500 C 15.442 16.795,15.568 16.978,16.241 17.658 C 16.592 18.014,16.880 18.317,16.880 18.331 C 16.880 18.392,15.935 18.977,15.480 19.197 C 13.265 20.265,10.737 20.267,8.529 19.200 C 7.477 18.693,6.612 18.015,5.847 17.100 C 3.847 14.709,3.440 11.305,4.818 8.496 C 5.050 8.022,5.608 7.120,5.669 7.120 C 5.682 7.120,5.992 7.414,6.357 7.773 C 7.091 8.496,7.238 8.589,7.584 8.550 C 7.995 8.503,8.511 7.978,8.550 7.565 C 8.582 7.238,8.470 7.066,7.753 6.337 C 7.405 5.984,7.120 5.684,7.120 5.670 C 7.120 5.608,8.019 5.052,8.496 4.818 C 9.815 4.171,11.277 3.903,12.734 4.041 M11.614 6.057 C 11.377 6.131,11.212 6.261,11.109 6.453 C 11.029 6.604,11.019 6.688,11.007 7.321 L 10.994 8.023 10.787 8.071 C 10.060 8.242,9.411 8.869,9.132 9.669 C 9.035 9.946,9.023 10.038,9.023 10.500 C 9.023 10.965,9.035 11.054,9.134 11.338 C 9.389 12.069,9.930 12.632,10.623 12.887 C 10.835 12.964,10.959 12.975,11.800 12.990 C 12.688 13.006,12.745 13.011,12.831 13.091 C 13.032 13.278,13.044 13.654,12.855 13.879 L 12.753 14.000 11.984 14.000 C 11.429 14.000,11.198 13.986,11.153 13.950 C 11.118 13.922,11.025 13.797,10.946 13.672 C 10.649 13.198,10.240 13.091,9.713 13.350 C 9.263 13.572,9.038 13.915,9.101 14.287 C 9.154 14.597,9.395 15.002,9.716 15.320 C 10.043 15.642,10.325 15.809,10.734 15.921 L 10.980 15.988 11.000 16.684 C 11.019 17.332,11.027 17.392,11.120 17.558 C 11.287 17.856,11.572 18.000,12.000 18.000 C 12.428 18.000,12.713 17.856,12.880 17.558 C 12.974 17.390,12.981 17.339,12.994 16.679 L 13.007 15.977 13.214 15.929 C 13.931 15.760,14.593 15.123,14.866 14.338 C 14.965 14.054,14.977 13.965,14.977 13.500 C 14.977 13.038,14.965 12.946,14.868 12.669 C 14.576 11.832,13.871 11.182,13.103 11.043 C 12.972 11.019,12.501 11.000,12.056 11.000 L 11.247 11.000 11.145 10.879 C 10.959 10.658,10.960 10.341,11.147 10.119 L 11.247 10.000 12.016 10.000 C 12.571 10.000,12.802 10.014,12.847 10.050 C 12.882 10.078,12.975 10.203,13.054 10.328 C 13.351 10.802,13.760 10.909,14.287 10.650 C 14.599 10.496,14.818 10.270,14.881 10.038 C 15.062 9.362,14.141 8.263,13.234 8.073 L 13.008 8.025 12.993 7.323 C 12.976 6.540,12.931 6.379,12.678 6.199 C 12.414 6.010,11.957 5.950,11.614 6.057 " stroke="none" fill="black" fill-rule="evenodd"></path></svg>