<svg xmlns="http://www.w3.org/2000/svg" width="24" height="24" viewBox="0 0 24 24" fill="none" stroke="currentColor" stroke-width="2" stroke-linecap="round" stroke-linejoin="round" class="icon icon-tabler icons-tabler-outline icon-tabler-currency-florin"><path d="M16.340 4.060 C 15.473 4.202,14.682 4.627,14.053 5.288 C 13.609 5.754,13.475 6.016,12.378 8.578 L 11.341 11.000 9.577 11.000 C 7.698 11.000,7.587 11.010,7.322 11.199 C 7.139 11.329,7.030 11.573,7.009 11.900 C 6.978 12.381,7.119 12.699,7.442 12.880 L 7.620 12.980 9.047 13.000 L 10.474 13.020 9.667 14.901 C 9.223 15.935,8.803 16.881,8.734 17.002 C 8.410 17.573,7.685 17.998,7.036 18.000 C 6.390 18.001,6.048 18.301,6.009 18.900 C 5.978 19.381,6.119 19.701,6.441 19.878 C 6.803 20.078,7.675 20.019,8.404 19.745 C 8.904 19.557,9.351 19.275,9.766 18.885 C 10.361 18.326,10.445 18.169,11.620 15.427 L 12.660 13.000 14.440 13.000 C 15.509 13.000,16.278 12.983,16.365 12.959 C 16.586 12.898,16.770 12.755,16.880 12.558 C 16.967 12.402,16.980 12.332,16.979 12.000 C 16.977 11.469,16.851 11.245,16.455 11.071 C 16.373 11.035,15.941 11.015,14.933 11.000 L 13.525 10.980 14.323 9.120 C 14.761 8.097,15.161 7.181,15.210 7.084 C 15.330 6.850,15.676 6.476,15.917 6.322 C 16.206 6.136,16.501 6.047,16.975 6.002 C 17.547 5.948,17.728 5.854,17.904 5.520 C 18.018 5.305,18.009 4.679,17.890 4.453 C 17.674 4.045,17.187 3.922,16.340 4.060 " stroke="none" fill="black" fill-rule="evenodd"></path></svg>