<svg xmlns="http://www.w3.org/2000/svg" width="24" height="24" viewBox="0 0 24 24" fill="none" stroke="currentColor" stroke-width="2" stroke-linecap="round" stroke-linejoin="round" class="icon icon-tabler icons-tabler-outline icon-tabler-hanger-off"><path d="M2.626 2.045 C 2.420 2.154,2.146 2.433,2.038 2.644 C 1.924 2.867,1.924 3.132,2.039 3.363 C 2.102 3.488,3.137 4.551,5.592 7.009 C 7.497 8.916,9.048 10.485,9.038 10.494 C 9.028 10.504,7.814 11.181,6.340 12.000 C 4.866 12.818,3.557 13.550,3.430 13.627 C 2.769 14.026,2.284 14.698,2.081 15.496 C 2.014 15.759,2.000 15.942,2.000 16.568 C 2.000 17.482,2.054 17.794,2.299 18.300 C 2.665 19.054,3.302 19.602,4.140 19.885 L 4.420 19.980 11.499 19.991 L 18.578 20.002 19.519 20.936 C 20.114 21.527,20.525 21.903,20.637 21.960 C 20.989 22.137,21.354 22.048,21.701 21.701 C 22.048 21.354,22.137 20.988,21.959 20.637 C 21.889 20.499,20.454 18.978,19.728 18.274 C 19.691 18.237,16.033 14.589,11.600 10.167 C 6.038 4.619,3.488 2.102,3.372 2.044 C 3.152 1.934,2.834 1.935,2.626 2.045 M11.499 3.040 C 10.371 3.245,9.455 4.054,9.122 5.140 C 9.018 5.479,8.972 6.113,9.035 6.344 C 9.146 6.749,9.428 6.961,9.896 6.991 C 10.592 7.035,10.918 6.762,10.996 6.072 C 11.045 5.644,11.108 5.490,11.321 5.283 C 11.490 5.120,11.777 5.000,12.000 5.000 C 12.223 5.000,12.510 5.120,12.679 5.283 C 12.892 5.491,12.958 5.650,13.001 6.067 C 13.068 6.718,13.370 7.000,14.000 7.000 C 14.428 7.000,14.713 6.856,14.880 6.558 C 14.971 6.396,14.980 6.338,14.979 5.920 C 14.978 5.555,14.959 5.398,14.885 5.160 C 14.583 4.182,13.811 3.407,12.861 3.129 C 12.500 3.023,11.832 2.980,11.499 3.040 M16.060 11.553 C 15.745 11.745,15.475 12.215,15.471 12.576 C 15.469 12.849,15.584 13.062,15.835 13.249 C 15.937 13.325,16.810 13.825,17.776 14.361 C 18.742 14.896,19.594 15.387,19.669 15.453 C 19.940 15.691,19.974 15.815,19.999 16.640 C 20.019 17.333,20.027 17.391,20.120 17.558 C 20.303 17.886,20.622 18.024,21.115 17.987 C 21.502 17.959,21.732 17.824,21.878 17.541 C 21.973 17.357,21.981 17.296,21.994 16.705 C 22.010 15.950,21.958 15.536,21.793 15.108 C 21.561 14.506,21.174 14.033,20.617 13.669 C 20.321 13.476,17.102 11.682,16.825 11.557 C 16.604 11.457,16.222 11.455,16.060 11.553 M13.560 14.980 L 16.580 18.000 10.700 17.998 C 5.892 17.997,4.793 17.987,4.670 17.943 C 4.449 17.864,4.256 17.702,4.131 17.489 C 4.024 17.307,4.020 17.277,4.007 16.651 C 3.994 16.035,3.998 15.992,4.090 15.791 C 4.143 15.674,4.241 15.528,4.308 15.465 C 4.400 15.378,10.426 11.982,10.520 11.964 C 10.531 11.962,11.899 13.319,13.560 14.980 " stroke="none" fill="black" fill-rule="evenodd"></path></svg>