<svg xmlns="http://www.w3.org/2000/svg" width="24" height="24" viewBox="0 0 24 24" fill="none" stroke="currentColor" stroke-width="2" stroke-linecap="round" stroke-linejoin="round" class="icon icon-tabler icons-tabler-outline icon-tabler-lock-square"><path d="M5.499 3.043 C 4.380 3.233,3.461 4.048,3.114 5.160 L 3.020 5.460 3.020 12.000 L 3.020 18.540 3.114 18.840 C 3.422 19.827,4.173 20.578,5.160 20.886 L 5.460 20.980 12.000 20.980 L 18.540 20.980 18.840 20.886 C 19.827 20.578,20.578 19.827,20.886 18.840 L 20.980 18.540 20.980 12.000 L 20.980 5.460 20.886 5.160 C 20.581 4.182,19.832 3.428,18.861 3.121 L 18.540 3.020 12.120 3.014 C 8.589 3.011,5.609 3.024,5.499 3.043 M18.310 5.061 C 18.589 5.144,18.856 5.411,18.939 5.690 C 18.992 5.869,19.000 6.651,19.000 12.001 C 19.000 17.059,18.991 18.139,18.945 18.290 C 18.872 18.533,18.707 18.740,18.484 18.872 L 18.300 18.980 12.000 18.980 L 5.700 18.980 5.516 18.872 C 5.303 18.747,5.141 18.550,5.058 18.316 C 4.968 18.060,4.971 5.993,5.061 5.690 C 5.140 5.421,5.412 5.143,5.673 5.063 C 5.963 4.974,18.010 4.972,18.310 5.061 M11.499 6.040 C 10.373 6.244,9.470 7.041,9.118 8.140 C 9.042 8.378,9.026 8.536,9.010 9.202 L 8.991 9.983 8.685 10.032 C 8.259 10.099,7.918 10.275,7.596 10.597 C 7.310 10.882,7.154 11.147,7.060 11.508 C 6.972 11.844,6.972 15.156,7.060 15.492 C 7.153 15.852,7.310 16.118,7.596 16.404 C 7.882 16.690,8.148 16.847,8.508 16.940 C 8.860 17.032,15.136 17.029,15.491 16.937 C 15.863 16.841,16.114 16.694,16.404 16.404 C 16.694 16.114,16.841 15.863,16.937 15.491 C 17.027 15.144,17.029 11.909,16.940 11.529 C 16.852 11.156,16.699 10.891,16.404 10.597 C 16.082 10.275,15.741 10.099,15.315 10.032 L 15.009 9.983 14.990 9.202 C 14.974 8.536,14.958 8.378,14.882 8.140 C 14.571 7.170,13.801 6.404,12.861 6.129 C 12.500 6.023,11.832 5.980,11.499 6.040 M12.310 8.061 C 12.452 8.103,12.571 8.178,12.697 8.303 C 12.948 8.554,13.000 8.751,13.000 9.447 L 13.000 10.000 12.000 10.000 L 11.000 10.000 11.000 9.447 C 11.000 8.750,11.052 8.554,11.304 8.303 C 11.583 8.024,11.916 7.944,12.310 8.061 M15.000 13.500 L 15.000 15.000 12.000 15.000 L 9.000 15.000 9.000 13.500 L 9.000 12.000 12.000 12.000 L 15.000 12.000 15.000 13.500 " stroke="none" fill="black" fill-rule="evenodd"></path></svg>