<svg xmlns="http://www.w3.org/2000/svg" width="24" height="24" viewBox="0 0 24 24" fill="none" stroke="currentColor" stroke-width="2" stroke-linecap="round" stroke-linejoin="round" class="icon icon-tabler icons-tabler-outline icon-tabler-wheelchair-off"><path d="M2.626 2.045 C 2.420 2.154,2.146 2.433,2.038 2.644 C 1.924 2.868,1.924 3.133,2.040 3.363 C 2.100 3.481,2.603 4.016,3.565 4.981 L 5.000 6.422 5.000 8.621 L 4.999 10.820 4.830 10.916 C 4.553 11.073,4.081 11.449,3.763 11.765 C 2.943 12.580,2.372 13.645,2.114 14.840 C 2.039 15.191,2.024 15.381,2.024 16.000 C 2.024 16.619,2.039 16.809,2.114 17.160 C 2.638 19.587,4.417 21.365,6.840 21.885 C 7.190 21.960,7.383 21.975,8.000 21.975 C 8.617 21.975,8.810 21.960,9.160 21.885 C 11.589 21.364,13.373 19.580,13.884 17.160 C 13.954 16.829,13.973 16.598,13.976 16.070 L 13.980 15.401 15.127 16.550 L 16.274 17.700 16.149 18.060 C 16.031 18.396,16.023 18.457,16.021 18.980 C 16.020 19.594,16.085 19.895,16.322 20.363 C 16.573 20.862,17.138 21.427,17.637 21.678 C 18.105 21.915,18.406 21.980,19.020 21.979 C 19.541 21.977,19.605 21.968,19.940 21.852 L 20.300 21.727 20.420 21.818 C 20.874 22.160,21.279 22.123,21.701 21.701 C 22.048 21.354,22.137 20.990,21.961 20.637 C 21.888 20.491,18.531 17.074,14.747 13.293 C 13.572 12.119,8.832 7.378,8.760 7.305 C 8.705 7.249,8.255 6.799,7.760 6.305 C 7.265 5.811,6.815 5.360,6.760 5.305 C 5.610 4.138,3.503 2.111,3.372 2.045 C 3.152 1.934,2.835 1.934,2.626 2.045 M11.614 7.057 C 11.377 7.131,11.212 7.261,11.109 7.453 C 11.035 7.592,11.020 7.684,11.020 8.000 C 11.020 8.331,11.033 8.403,11.120 8.558 C 11.230 8.755,11.414 8.898,11.635 8.959 C 11.716 8.982,12.270 9.000,12.890 9.000 L 14.000 9.000 14.000 10.110 C 14.000 10.730,14.018 11.284,14.041 11.365 C 14.148 11.750,14.437 11.962,14.896 11.991 C 15.381 12.022,15.699 11.882,15.880 11.558 C 15.979 11.381,15.980 11.374,15.993 10.190 L 16.005 9.000 16.613 9.000 C 16.947 9.000,17.285 8.981,17.365 8.959 C 17.586 8.898,17.770 8.755,17.880 8.558 C 17.967 8.402,17.980 8.332,17.979 8.000 C 17.978 7.567,17.898 7.355,17.678 7.199 C 17.401 7.002,17.373 7.000,14.484 7.003 C 12.382 7.005,11.743 7.017,11.614 7.057 M8.091 9.511 L 8.601 10.022 8.051 10.021 C 7.748 10.021,7.388 10.035,7.250 10.052 L 7.000 10.084 7.000 9.542 L 7.000 9.000 7.291 9.000 L 7.581 9.000 8.091 9.511 M8.605 12.058 C 9.886 12.252,11.003 13.069,11.559 14.220 C 11.808 14.735,11.871 14.931,11.942 15.398 C 12.014 15.879,12.014 16.121,11.942 16.605 C 11.691 18.265,10.434 19.579,8.773 19.917 C 6.563 20.368,4.396 18.845,4.058 16.605 C 3.986 16.121,3.986 15.879,4.058 15.395 C 4.314 13.698,5.675 12.324,7.358 12.061 C 7.816 11.990,8.144 11.989,8.605 12.058 " stroke="none" fill="black" fill-rule="evenodd"></path></svg>