<svg xmlns="http://www.w3.org/2000/svg" width="24" height="24" viewBox="0 0 24 24" fill="none" stroke="currentColor" stroke-width="2" stroke-linecap="round" stroke-linejoin="round" class="icon icon-tabler icons-tabler-outline icon-tabler-letter-w-small"><path d="M8.709 7.044 C 8.258 7.150,8.039 7.397,8.013 7.830 C 8.001 8.021,8.148 9.305,8.513 12.205 C 9.092 16.802,9.061 16.640,9.404 16.867 C 9.559 16.970,9.606 16.980,9.937 16.980 C 10.233 16.979,10.330 16.963,10.464 16.892 C 10.771 16.728,10.837 16.609,11.422 15.146 C 11.726 14.384,11.986 13.760,12.000 13.760 C 12.014 13.760,12.256 14.341,12.539 15.050 C 13.121 16.512,13.188 16.658,13.346 16.808 C 13.484 16.938,13.715 17.040,13.875 17.040 C 14.076 17.040,14.493 16.888,14.651 16.757 C 14.956 16.505,14.923 16.683,15.488 12.200 C 15.852 9.303,15.999 8.021,15.987 7.830 C 15.954 7.283,15.616 7.023,14.937 7.021 C 14.605 7.020,14.560 7.030,14.404 7.133 C 14.081 7.346,14.065 7.414,13.772 9.774 C 13.630 10.921,13.504 11.887,13.493 11.920 C 13.483 11.953,13.340 11.648,13.177 11.242 C 13.014 10.836,12.831 10.442,12.770 10.367 C 12.548 10.092,12.014 9.910,11.688 9.998 C 11.494 10.050,11.266 10.235,11.171 10.416 C 11.135 10.484,10.976 10.864,10.816 11.260 C 10.657 11.656,10.517 11.953,10.507 11.920 C 10.496 11.887,10.370 10.921,10.228 9.774 C 9.947 7.508,9.913 7.352,9.655 7.172 C 9.416 7.006,9.070 6.959,8.709 7.044 " stroke="none" fill="black" fill-rule="evenodd"></path></svg>