<svg xmlns="http://www.w3.org/2000/svg" width="24" height="24" viewBox="0 0 24 24" fill="none" stroke="currentColor" stroke-width="2" stroke-linecap="round" stroke-linejoin="round" class="icon icon-tabler icons-tabler-outline icon-tabler-math-function-y"><path d="M10.480 2.060 C 10.070 2.153,9.738 2.343,9.396 2.680 C 8.607 3.460,8.232 4.586,7.720 7.720 C 7.607 8.413,7.439 9.430,7.346 9.980 L 7.178 10.980 5.918 11.000 C 4.663 11.020,4.657 11.020,4.459 11.122 C 4.119 11.297,3.978 11.606,4.009 12.104 C 4.038 12.563,4.250 12.852,4.635 12.959 C 4.715 12.981,5.236 13.000,5.793 13.000 C 6.739 13.000,6.804 13.005,6.784 13.070 C 6.772 13.108,6.654 13.806,6.521 14.620 C 6.389 15.434,6.234 16.370,6.178 16.700 C 5.858 18.564,5.533 19.614,5.185 19.907 C 5.079 19.996,5.038 20.006,4.867 19.986 C 4.529 19.946,4.202 19.693,4.076 19.373 C 4.051 19.311,4.015 19.111,3.996 18.929 C 3.954 18.534,3.853 18.316,3.649 18.182 C 3.198 17.887,2.426 17.979,2.170 18.358 C 2.027 18.570,1.988 18.782,2.013 19.200 C 2.088 20.446,2.936 21.507,4.160 21.886 C 4.595 22.020,5.343 22.020,5.731 21.887 C 6.621 21.579,7.244 20.751,7.657 19.324 C 7.883 18.545,7.998 17.955,8.417 15.440 L 8.820 13.020 10.100 13.000 C 11.251 12.982,11.394 12.972,11.520 12.905 C 11.876 12.715,11.978 12.514,11.978 12.000 C 11.978 11.567,11.899 11.356,11.678 11.199 C 11.434 11.025,11.250 11.000,10.193 11.000 L 9.198 11.000 9.219 10.910 C 9.263 10.709,9.372 10.065,9.601 8.640 C 9.950 6.464,10.157 5.475,10.405 4.800 C 10.585 4.310,10.822 4.000,11.016 4.000 C 11.224 4.000,11.515 4.124,11.679 4.283 C 11.892 4.491,11.958 4.650,12.001 5.067 C 12.068 5.718,12.370 6.000,13.000 6.000 C 13.428 6.000,13.713 5.856,13.880 5.558 C 13.971 5.396,13.980 5.338,13.979 4.920 C 13.978 4.555,13.959 4.398,13.885 4.160 C 13.583 3.182,12.810 2.406,11.861 2.129 C 11.447 2.008,10.841 1.978,10.480 2.060 M14.692 11.044 C 14.446 11.139,14.091 11.445,14.014 11.628 C 13.939 11.807,13.946 12.044,14.033 12.270 C 14.073 12.374,14.709 13.477,15.446 14.720 C 16.183 15.963,16.836 17.065,16.896 17.169 L 17.007 17.358 16.141 18.980 C 15.665 19.872,15.250 20.675,15.218 20.766 C 15.083 21.148,15.194 21.500,15.524 21.743 C 16.082 22.153,16.624 22.127,16.945 21.677 C 17.101 21.458,21.865 12.532,21.967 12.270 C 22.121 11.868,22.018 11.508,21.676 11.257 C 21.143 10.865,20.601 10.872,20.287 11.273 C 20.224 11.354,19.717 12.275,19.161 13.320 C 18.605 14.365,18.139 15.232,18.125 15.246 C 18.111 15.261,17.579 14.393,16.943 13.318 C 16.264 12.170,15.727 11.306,15.643 11.226 C 15.352 10.947,15.080 10.895,14.692 11.044 " stroke="none" fill="black" fill-rule="evenodd"></path></svg>