<svg xmlns="http://www.w3.org/2000/svg" width="24" height="24" viewBox="0 0 24 24" fill="none" stroke="currentColor" stroke-width="2" stroke-linecap="round" stroke-linejoin="round" class="icon icon-tabler icons-tabler-outline icon-tabler-world-upload"><path d="M11.254 2.003 C 11.213 2.018,11.063 2.043,10.920 2.059 C 9.074 2.263,7.316 2.983,5.800 4.154 C 5.005 4.769,4.015 5.884,3.470 6.780 C 2.106 9.020,1.666 11.743,2.260 14.260 C 2.697 16.112,3.581 17.701,4.919 19.042 C 6.548 20.675,8.351 21.559,10.840 21.947 C 11.291 22.018,12.118 22.024,12.364 21.958 C 12.583 21.900,12.769 21.756,12.880 21.558 C 12.967 21.402,12.980 21.332,12.979 21.000 C 12.978 20.685,12.963 20.591,12.888 20.450 C 12.784 20.252,12.576 20.104,12.314 20.039 L 12.128 19.993 11.788 19.326 C 11.600 18.960,11.353 18.435,11.238 18.160 C 11.037 17.681,10.598 16.402,10.541 16.130 L 10.514 16.000 11.367 16.000 C 11.836 16.000,12.285 15.981,12.365 15.959 C 12.586 15.898,12.770 15.755,12.880 15.558 C 12.967 15.402,12.980 15.332,12.979 15.000 C 12.978 14.567,12.898 14.355,12.678 14.199 C 12.432 14.024,12.252 14.000,11.159 14.000 L 10.131 14.000 10.106 13.830 C 10.093 13.737,10.060 13.287,10.033 12.830 C 9.994 12.173,9.994 11.827,10.033 11.170 C 10.060 10.714,10.093 10.264,10.106 10.170 L 10.131 10.000 12.002 10.000 L 13.873 10.000 13.897 10.150 C 13.934 10.385,13.999 11.462,14.000 11.860 C 14.000 12.058,14.019 12.285,14.041 12.365 C 14.148 12.750,14.437 12.962,14.896 12.991 C 15.381 13.022,15.699 12.882,15.880 12.558 C 15.975 12.388,15.980 12.350,15.980 11.720 C 15.980 11.357,15.965 10.822,15.947 10.530 L 15.915 10.000 17.834 10.000 L 19.753 10.000 19.798 10.207 C 19.896 10.664,19.959 11.171,19.992 11.764 C 20.023 12.309,20.039 12.410,20.124 12.562 C 20.286 12.856,20.574 13.000,21.000 13.000 C 21.428 13.000,21.713 12.856,21.880 12.558 C 21.976 12.388,21.980 12.352,21.977 11.720 C 21.969 9.661,21.217 7.571,19.847 5.800 C 19.510 5.365,18.639 4.494,18.200 4.154 C 16.873 3.127,15.374 2.450,13.825 2.179 C 13.514 2.125,13.152 2.060,13.020 2.036 C 12.753 1.986,11.369 1.960,11.254 2.003 M12.416 4.930 C 12.822 5.766,13.140 6.586,13.357 7.356 C 13.447 7.672,13.520 7.947,13.520 7.966 C 13.520 7.984,12.844 8.000,12.017 8.000 L 10.514 8.000 10.541 7.870 C 10.598 7.597,11.037 6.318,11.236 5.845 C 11.507 5.202,11.989 4.240,12.041 4.240 C 12.064 4.240,12.232 4.551,12.416 4.930 M9.595 4.590 C 9.224 5.412,8.808 6.593,8.599 7.420 C 8.527 7.706,8.456 7.954,8.441 7.970 C 8.427 7.987,7.663 7.996,6.744 7.990 L 5.073 7.980 5.309 7.620 C 6.086 6.438,7.185 5.466,8.460 4.835 C 8.819 4.657,9.532 4.364,9.708 4.322 C 9.713 4.321,9.662 4.441,9.595 4.590 M14.792 4.504 C 16.081 4.984,17.227 5.800,18.143 6.890 C 18.417 7.215,18.763 7.698,18.875 7.910 L 18.923 8.000 17.251 8.000 L 15.580 8.000 15.447 7.450 C 15.279 6.751,14.873 5.529,14.590 4.870 C 14.469 4.590,14.378 4.360,14.387 4.360 C 14.396 4.360,14.578 4.425,14.792 4.504 M8.099 10.110 C 7.977 10.806,7.977 13.194,8.099 13.890 L 8.118 14.000 6.182 14.000 L 4.247 14.000 4.202 13.793 C 4.058 13.123,4.026 12.793,4.026 12.000 C 4.026 11.207,4.058 10.877,4.202 10.207 L 4.247 10.000 6.182 10.000 L 8.118 10.000 8.099 10.110 M17.530 13.085 C 17.392 13.152,17.248 13.254,17.210 13.311 C 17.171 13.369,16.463 14.101,15.635 14.938 C 14.635 15.949,14.099 16.520,14.040 16.637 C 13.863 16.989,13.952 17.354,14.299 17.701 C 14.646 18.048,15.012 18.137,15.363 17.959 C 15.469 17.905,15.832 17.580,16.270 17.147 L 17.000 16.425 17.000 18.822 C 17.000 20.305,17.016 21.275,17.041 21.365 C 17.148 21.750,17.437 21.962,17.896 21.991 C 18.381 22.022,18.699 21.882,18.880 21.558 L 18.980 21.380 18.991 18.904 L 19.003 16.428 19.731 17.148 C 20.168 17.581,20.531 17.905,20.637 17.959 C 20.988 18.137,21.354 18.048,21.701 17.701 C 22.048 17.354,22.137 16.989,21.960 16.637 C 21.901 16.520,21.365 15.949,20.365 14.938 C 19.537 14.101,18.829 13.369,18.790 13.311 C 18.752 13.254,18.604 13.151,18.460 13.083 C 18.113 12.919,17.873 12.920,17.530 13.085 M8.586 16.540 C 8.810 17.414,9.220 18.579,9.594 19.408 L 9.715 19.676 9.367 19.555 C 8.629 19.298,7.744 18.818,7.100 18.325 C 6.413 17.800,5.456 16.715,5.125 16.090 L 5.077 15.999 6.765 16.010 L 8.453 16.020 8.586 16.540 " stroke="none" fill="black" fill-rule="evenodd"></path></svg>