<svg xmlns="http://www.w3.org/2000/svg" width="24" height="24" viewBox="0 0 24 24" fill="none" stroke="currentColor" stroke-width="2" stroke-linecap="round" stroke-linejoin="round" class="icon icon-tabler icons-tabler-outline icon-tabler-traffic-cone"><path d="M10.645 4.060 C 10.445 4.122,10.226 4.315,10.122 4.520 C 10.083 4.597,8.976 7.886,7.662 11.830 L 5.273 19.000 4.543 19.000 C 3.564 19.000,3.308 19.081,3.109 19.453 C 3.035 19.592,3.020 19.684,3.020 20.000 C 3.020 20.331,3.033 20.403,3.120 20.558 C 3.232 20.758,3.416 20.900,3.643 20.961 C 3.851 21.017,20.149 21.017,20.357 20.961 C 20.584 20.900,20.768 20.758,20.880 20.558 C 20.967 20.402,20.980 20.332,20.979 20.000 C 20.978 19.687,20.962 19.591,20.890 19.453 C 20.693 19.081,20.436 19.000,19.457 19.000 L 18.727 19.000 16.338 11.830 C 15.024 7.886,13.923 4.606,13.890 4.540 C 13.784 4.324,13.554 4.121,13.343 4.059 C 13.069 3.977,10.907 3.978,10.645 4.060 M12.773 7.500 L 13.274 9.000 12.000 9.000 L 10.726 9.000 11.227 7.500 L 11.727 6.000 12.000 6.000 L 12.273 6.000 12.773 7.500 M14.430 12.471 C 14.700 13.279,14.920 13.954,14.920 13.971 C 14.920 13.987,13.606 14.000,12.000 14.000 C 10.394 14.000,9.080 13.987,9.080 13.971 C 9.080 13.954,9.300 13.279,9.570 12.471 L 10.059 11.000 12.000 11.000 L 13.941 11.000 14.430 12.471 M16.087 17.440 C 16.347 18.221,16.571 18.892,16.583 18.930 C 16.604 18.996,16.368 19.000,12.003 19.000 C 9.471 19.000,7.400 18.995,7.400 18.989 C 7.400 18.978,8.347 16.135,8.379 16.050 C 8.394 16.010,9.140 16.002,12.005 16.010 L 15.613 16.020 16.087 17.440 " stroke="none" fill="black" fill-rule="evenodd"></path></svg>