<svg xmlns="http://www.w3.org/2000/svg" width="24" height="24" viewBox="0 0 24 24" fill="none" stroke="currentColor" stroke-width="2" stroke-linecap="round" stroke-linejoin="round" class="icon icon-tabler icons-tabler-outline icon-tabler-plane-off"><path d="M2.626 2.045 C 2.420 2.154,2.146 2.433,2.038 2.644 C 1.924 2.867,1.924 3.132,2.039 3.363 C 2.102 3.487,2.942 4.356,4.853 6.270 C 6.624 8.044,7.552 9.000,7.502 9.000 C 7.455 9.000,7.055 8.633,6.482 8.064 C 5.607 7.196,5.523 7.124,5.322 7.064 C 5.011 6.972,1.998 6.968,1.697 7.060 C 1.415 7.147,1.148 7.358,1.040 7.580 C 0.864 7.944,0.880 7.991,1.937 10.110 L 2.879 12.000 1.950 13.862 L 1.020 15.725 1.020 16.052 C 1.020 16.328,1.036 16.409,1.120 16.558 C 1.232 16.758,1.417 16.900,1.646 16.962 C 1.745 16.988,2.430 16.999,3.550 16.992 C 5.168 16.981,5.311 16.974,5.440 16.905 C 5.517 16.864,5.995 16.419,6.502 15.915 L 7.423 14.999 8.546 15.009 L 9.668 15.020 8.832 17.940 C 8.047 20.681,7.996 20.876,8.012 21.125 C 8.040 21.563,8.257 21.854,8.635 21.959 C 8.722 21.983,9.470 21.999,10.500 21.999 L 12.220 21.999 12.422 21.905 C 12.533 21.854,12.670 21.755,12.728 21.687 C 12.786 21.618,13.431 20.516,14.162 19.237 L 15.490 16.912 17.975 19.392 C 19.709 21.122,20.514 21.899,20.637 21.960 C 20.990 22.137,21.354 22.048,21.701 21.701 C 22.116 21.286,22.159 20.869,21.832 20.440 C 21.774 20.363,16.999 15.561,10.747 9.292 C 7.524 6.060,3.505 2.111,3.372 2.044 C 3.152 1.934,2.835 1.935,2.626 2.045 M8.653 2.073 C 8.185 2.237,7.982 2.489,7.990 2.899 C 7.996 3.222,8.830 6.136,8.991 6.398 C 9.188 6.718,9.496 6.831,9.926 6.741 C 10.358 6.651,10.582 6.508,10.724 6.232 C 10.869 5.948,10.837 5.759,10.380 4.190 L 10.324 4.000 10.872 4.001 L 11.420 4.001 13.314 7.317 C 14.355 9.140,15.255 10.678,15.314 10.734 C 15.372 10.790,15.501 10.872,15.600 10.917 C 15.774 10.995,15.853 10.998,17.943 10.999 C 20.417 11.000,20.391 10.997,20.697 11.303 C 20.970 11.577,21.057 11.919,20.945 12.290 C 20.872 12.533,20.707 12.740,20.484 12.872 L 20.300 12.980 18.979 13.000 C 17.658 13.020,17.657 13.020,17.459 13.122 C 17.119 13.297,16.978 13.606,17.009 14.104 C 17.039 14.570,17.252 14.856,17.652 14.963 C 17.757 14.992,18.285 15.001,19.196 14.991 C 20.508 14.976,20.595 14.971,20.860 14.884 C 21.842 14.562,22.582 13.816,22.886 12.840 C 23.021 12.406,23.021 11.594,22.886 11.160 C 22.582 10.182,21.828 9.424,20.861 9.123 L 20.540 9.023 18.560 9.009 L 16.580 8.995 14.686 5.682 C 13.645 3.859,12.745 2.323,12.686 2.268 C 12.415 2.015,12.464 2.021,10.580 2.010 C 9.008 2.002,8.842 2.007,8.653 2.073 M5.460 9.883 C 5.944 10.368,6.421 10.814,6.520 10.873 L 6.700 10.980 8.142 10.992 L 9.584 11.004 11.799 13.219 C 13.720 15.140,14.010 15.445,13.977 15.513 C 13.957 15.556,13.373 16.583,12.680 17.795 L 11.420 19.999 10.873 20.000 L 10.326 20.000 10.363 19.870 C 12.128 13.718,12.100 13.827,11.950 13.540 C 11.859 13.366,11.688 13.217,11.460 13.112 C 11.260 13.020,11.260 13.020,9.085 13.009 C 7.173 12.999,6.882 13.005,6.686 13.062 C 6.475 13.124,6.408 13.181,5.519 14.064 L 4.575 15.000 4.108 15.000 C 3.850 15.000,3.640 14.992,3.640 14.981 C 3.640 14.971,3.942 14.358,4.310 13.618 L 4.980 12.274 4.980 12.000 L 4.980 11.726 4.310 10.382 C 3.942 9.642,3.640 9.029,3.640 9.019 C 3.640 9.008,3.852 9.000,4.110 9.000 L 4.581 9.000 5.460 9.883 " stroke="none" fill="black" fill-rule="evenodd"></path></svg>