<svg xmlns="http://www.w3.org/2000/svg" width="24" height="24" viewBox="0 0 24 24" fill="none" stroke="currentColor" stroke-width="2" stroke-linecap="round" stroke-linejoin="round" class="icon icon-tabler icons-tabler-outline icon-tabler-rewind-backward-5"><path d="M6.620 2.046 C 6.528 2.094,5.826 2.758,4.960 3.618 C 4.135 4.438,3.399 5.150,3.324 5.201 C 3.149 5.321,2.951 5.745,2.951 6.000 C 2.951 6.238,3.150 6.682,3.303 6.784 C 3.366 6.826,4.101 7.537,4.938 8.365 C 5.949 9.365,6.520 9.901,6.637 9.960 C 6.989 10.137,7.354 10.048,7.701 9.701 C 8.048 9.354,8.137 8.988,7.959 8.637 C 7.905 8.531,7.580 8.168,7.147 7.730 L 6.425 7.000 10.794 7.000 C 15.283 7.000,15.650 7.011,16.240 7.162 C 17.795 7.559,19.095 8.725,19.680 10.248 C 20.092 11.320,20.085 12.720,19.663 13.793 C 19.206 14.955,18.310 15.936,17.212 16.476 C 16.562 16.796,15.963 16.947,15.151 16.997 C 14.728 17.023,14.609 17.045,14.451 17.127 C 14.119 17.297,13.978 17.610,14.009 18.104 C 14.039 18.572,14.251 18.854,14.656 18.965 C 14.853 19.019,15.622 18.987,16.120 18.905 C 18.630 18.489,20.717 16.757,21.573 14.380 C 21.876 13.538,21.977 12.944,21.977 12.000 C 21.977 11.056,21.876 10.462,21.573 9.620 C 20.794 7.457,18.946 5.780,16.720 5.217 C 15.966 5.027,16.054 5.030,11.104 5.012 L 6.429 4.996 7.149 4.268 C 7.581 3.832,7.905 3.469,7.959 3.363 C 8.137 3.012,8.048 2.646,7.701 2.299 C 7.361 1.959,6.967 1.867,6.620 2.046 M7.614 13.057 C 7.377 13.131,7.212 13.261,7.109 13.453 C 7.021 13.618,7.020 13.647,7.008 15.410 C 7.001 16.557,7.012 17.255,7.038 17.354 C 7.100 17.583,7.242 17.768,7.442 17.880 C 7.619 17.980,7.626 17.980,8.810 17.992 L 10.000 18.004 10.000 18.502 L 10.000 19.000 8.906 19.000 C 7.744 19.000,7.570 19.022,7.322 19.199 C 7.100 19.357,7.020 19.568,7.020 20.000 C 7.020 20.331,7.033 20.403,7.120 20.558 C 7.230 20.755,7.414 20.898,7.635 20.959 C 7.718 20.982,8.313 21.000,9.022 21.000 C 10.367 21.000,10.522 20.982,10.930 20.775 C 11.196 20.640,11.638 20.200,11.771 19.937 C 11.959 19.566,12.000 19.312,11.999 18.514 C 11.999 17.459,11.903 17.124,11.465 16.653 C 10.998 16.150,10.590 16.006,9.630 16.002 L 9.000 16.000 9.000 15.500 L 9.000 15.000 10.110 15.000 C 10.730 15.000,11.284 14.982,11.365 14.959 C 11.586 14.898,11.770 14.755,11.880 14.558 C 11.967 14.402,11.980 14.332,11.979 14.000 C 11.978 13.687,11.962 13.591,11.890 13.453 C 11.786 13.256,11.623 13.131,11.371 13.055 C 11.114 12.978,7.862 12.980,7.614 13.057 " stroke="none" fill="black" fill-rule="evenodd"></path></svg>