<svg xmlns="http://www.w3.org/2000/svg" width="24" height="24" viewBox="0 0 24 24" fill="none" stroke="currentColor" stroke-width="2" stroke-linecap="round" stroke-linejoin="round" class="icon icon-tabler icons-tabler-outline icon-tabler-navigation-cancel"><path d="M11.731 2.036 C 11.481 2.129,11.311 2.244,11.205 2.394 C 11.094 2.549,3.206 19.639,3.088 19.980 C 2.808 20.787,3.255 21.654,4.091 21.923 C 4.583 22.082,4.491 22.107,8.674 20.686 C 10.749 19.980,12.525 19.358,12.621 19.302 C 12.969 19.098,13.095 18.757,12.983 18.320 C 12.896 17.978,12.752 17.742,12.551 17.609 C 12.405 17.513,12.349 17.500,12.083 17.504 C 11.796 17.507,11.614 17.564,8.620 18.585 C 6.882 19.178,5.455 19.651,5.449 19.638 C 5.434 19.606,11.971 5.440,12.000 5.440 C 12.012 5.440,12.810 7.148,13.774 9.236 C 14.737 11.324,15.569 13.091,15.621 13.162 C 15.674 13.233,15.783 13.338,15.864 13.396 C 16.253 13.673,17.076 13.398,17.327 12.907 C 17.393 12.776,17.406 12.695,17.390 12.497 C 17.372 12.274,17.153 11.779,15.122 7.375 C 13.886 4.694,12.830 2.433,12.777 2.350 C 12.552 2.005,12.144 1.883,11.731 2.036 M18.358 15.061 C 17.230 15.237,16.143 15.974,15.569 16.953 C 14.320 19.083,15.233 21.785,17.512 22.704 C 19.558 23.528,21.877 22.538,22.704 20.488 C 23.090 19.530,23.090 18.469,22.705 17.516 C 22.172 16.197,21.001 15.269,19.605 15.058 C 19.144 14.989,18.816 14.990,18.358 15.061 M19.470 17.057 C 19.485 17.071,18.954 17.626,18.290 18.290 C 17.626 18.954,17.072 19.486,17.059 19.472 C 17.045 19.459,17.024 19.314,17.012 19.150 C 16.940 18.202,17.563 17.318,18.477 17.071 C 18.735 17.001,19.405 16.991,19.470 17.057 M20.982 18.784 C 21.047 19.396,20.844 19.961,20.398 20.410 C 20.104 20.705,19.779 20.885,19.404 20.963 C 19.181 21.010,18.584 20.997,18.532 20.945 C 18.504 20.918,20.872 18.520,20.927 18.520 C 20.941 18.520,20.966 18.639,20.982 18.784 " stroke="none" fill="black" fill-rule="evenodd"></path></svg>