<svg xmlns="http://www.w3.org/2000/svg" width="24" height="24" viewBox="0 0 24 24" fill="none" stroke="currentColor" stroke-width="2" stroke-linecap="round" stroke-linejoin="round" class="icon icon-tabler icons-tabler-outline icon-tabler-italic"><path d="M10.614 4.057 C 10.223 4.180,10.039 4.436,10.009 4.900 C 9.978 5.381,10.119 5.699,10.442 5.880 C 10.616 5.978,10.644 5.980,11.644 6.000 L 12.669 6.020 10.960 12.000 L 9.252 17.980 7.955 18.000 C 6.660 18.020,6.657 18.020,6.459 18.122 C 6.119 18.297,5.978 18.606,6.009 19.104 C 6.039 19.566,6.253 19.856,6.642 19.961 C 6.848 20.016,13.152 20.016,13.357 19.961 C 13.584 19.900,13.768 19.758,13.880 19.558 C 13.967 19.402,13.980 19.332,13.979 19.000 C 13.977 18.469,13.850 18.243,13.455 18.072 C 13.378 18.039,13.005 18.015,12.336 18.001 L 11.331 17.980 13.040 12.000 L 14.748 6.020 16.064 6.000 C 17.312 5.981,17.388 5.976,17.540 5.894 C 17.875 5.715,17.978 5.504,17.978 5.000 C 17.978 4.567,17.899 4.356,17.678 4.199 C 17.398 3.999,17.411 4.000,13.984 4.003 C 11.472 4.005,10.744 4.017,10.614 4.057 " stroke="none" fill="black" fill-rule="evenodd"></path></svg>