<svg xmlns="http://www.w3.org/2000/svg" width="24" height="24" viewBox="0 0 24 24" fill="none" stroke="currentColor" stroke-width="2" stroke-linecap="round" stroke-linejoin="round" class="icon icon-tabler icons-tabler-outline icon-tabler-map-cancel"><path d="M20.780 3.016 C 20.692 3.045,19.355 3.700,17.810 4.474 L 15.000 5.880 12.370 4.559 C 10.923 3.832,9.650 3.188,9.541 3.129 C 9.369 3.034,9.297 3.020,9.000 3.020 C 8.703 3.020,8.631 3.034,8.459 3.129 C 8.350 3.188,6.935 3.903,5.315 4.717 C 2.132 6.316,2.159 6.300,2.046 6.674 C 2.012 6.789,2.000 8.552,2.000 13.493 C 2.000 20.068,2.001 20.160,2.080 20.372 C 2.188 20.659,2.398 20.897,2.620 20.982 C 2.995 21.125,2.953 21.142,6.109 19.565 L 9.001 18.120 10.319 18.780 C 11.771 19.506,12.004 19.594,12.273 19.522 C 12.502 19.460,12.740 19.237,12.886 18.949 C 13.115 18.495,13.071 18.106,12.760 17.825 C 12.668 17.741,12.079 17.421,11.303 17.032 L 10.000 16.380 10.000 11.010 C 10.000 8.056,10.009 5.640,10.020 5.640 C 10.031 5.640,10.931 6.085,12.020 6.630 L 14.000 7.620 14.000 10.420 C 14.000 12.172,14.015 13.274,14.041 13.365 C 14.148 13.750,14.437 13.962,14.896 13.991 C 15.381 14.022,15.699 13.882,15.880 13.558 L 15.980 13.380 15.991 10.499 L 16.002 7.618 17.981 6.629 C 19.070 6.085,19.969 5.640,19.980 5.640 C 19.991 5.640,20.000 7.120,20.000 8.930 C 20.000 11.011,20.015 12.273,20.041 12.365 C 20.148 12.750,20.437 12.962,20.896 12.991 C 21.381 13.022,21.699 12.882,21.880 12.558 L 21.980 12.380 21.991 8.114 C 22.002 3.931,22.000 3.844,21.922 3.634 C 21.719 3.092,21.282 2.856,20.780 3.016 M8.000 11.010 L 8.000 16.380 6.020 17.370 C 4.931 17.915,4.031 18.360,4.020 18.360 C 4.009 18.360,4.000 15.943,4.000 12.990 L 4.000 7.620 5.970 6.632 C 7.054 6.089,7.954 5.643,7.970 5.642 C 7.987 5.641,8.000 8.057,8.000 11.010 M18.358 15.061 C 17.230 15.237,16.143 15.974,15.569 16.953 C 14.320 19.083,15.233 21.785,17.512 22.704 C 19.558 23.528,21.877 22.538,22.704 20.488 C 23.090 19.530,23.090 18.469,22.705 17.516 C 22.172 16.197,21.001 15.269,19.605 15.058 C 19.144 14.989,18.816 14.990,18.358 15.061 M19.470 17.057 C 19.485 17.071,18.954 17.626,18.290 18.290 C 17.626 18.954,17.072 19.486,17.059 19.472 C 17.045 19.459,17.024 19.314,17.012 19.150 C 16.940 18.202,17.563 17.318,18.477 17.071 C 18.735 17.001,19.405 16.991,19.470 17.057 M20.982 18.784 C 21.047 19.396,20.844 19.961,20.398 20.410 C 20.104 20.705,19.779 20.885,19.404 20.963 C 19.181 21.010,18.584 20.997,18.532 20.945 C 18.504 20.918,20.872 18.520,20.927 18.520 C 20.941 18.520,20.966 18.639,20.982 18.784 " stroke="none" fill="black" fill-rule="evenodd"></path></svg>