<svg xmlns="http://www.w3.org/2000/svg" width="24" height="24" viewBox="0 0 24 24" fill="none" stroke="currentColor" stroke-width="2" stroke-linecap="round" stroke-linejoin="round" class="icon icon-tabler icons-tabler-outline icon-tabler-brand-mongodb"><path d="M11.840 1.000 C 11.763 1.014,11.644 1.055,11.577 1.090 C 11.452 1.156,10.501 1.906,9.800 2.491 C 7.393 4.501,6.056 6.319,5.408 8.460 C 5.155 9.297,5.048 9.977,5.013 10.960 C 4.948 12.840,5.434 14.353,6.631 15.997 C 7.251 16.848,7.951 17.646,9.895 19.718 L 11.000 20.895 11.000 21.558 C 11.000 21.922,11.019 22.285,11.041 22.365 C 11.148 22.750,11.437 22.962,11.896 22.991 C 12.381 23.022,12.699 22.882,12.880 22.558 C 12.975 22.389,12.981 22.342,12.994 21.634 L 13.007 20.887 14.108 19.714 C 14.713 19.068,15.438 18.288,15.718 17.980 C 17.789 15.705,18.591 14.327,18.907 12.500 C 18.992 12.010,19.004 10.566,18.928 10.020 C 18.714 8.476,18.207 7.136,17.357 5.866 C 16.422 4.469,15.384 3.424,13.183 1.664 C 12.832 1.384,12.481 1.122,12.403 1.083 C 12.227 0.995,12.025 0.965,11.840 1.000 M10.990 14.497 L 10.980 17.955 10.235 17.147 C 9.339 16.176,9.037 15.830,8.606 15.287 C 7.300 13.641,6.882 12.393,7.037 10.607 C 7.236 8.307,8.296 6.473,10.600 4.437 L 10.980 4.101 10.990 7.571 C 10.996 9.479,10.996 12.596,10.990 14.497 M13.697 4.712 C 15.799 6.629,16.777 8.401,16.964 10.629 C 17.062 11.797,16.903 12.751,16.459 13.660 C 15.967 14.666,15.236 15.581,13.055 17.919 C 13.008 17.968,13.000 16.907,13.000 11.047 C 13.000 5.058,13.008 4.120,13.057 4.148 C 13.088 4.166,13.377 4.419,13.697 4.712 " stroke="none" fill="black" fill-rule="evenodd"></path></svg>