<svg xmlns="http://www.w3.org/2000/svg" width="24" height="24" viewBox="0 0 24 24" fill="none" stroke="currentColor" stroke-width="2" stroke-linecap="round" stroke-linejoin="round" class="icon icon-tabler icons-tabler-outline icon-tabler-brand-unsplash"><path d="M8.614 3.057 C 8.377 3.131,8.212 3.261,8.109 3.453 L 8.020 3.620 8.020 6.000 L 8.020 8.380 8.120 8.558 C 8.230 8.755,8.414 8.898,8.635 8.959 C 8.832 9.014,15.168 9.014,15.365 8.959 C 15.586 8.898,15.770 8.755,15.880 8.558 L 15.980 8.380 15.980 6.000 L 15.980 3.620 15.891 3.453 C 15.785 3.256,15.622 3.131,15.371 3.055 C 15.109 2.977,8.866 2.979,8.614 3.057 M14.000 6.000 L 14.000 7.000 12.000 7.000 L 10.000 7.000 10.000 6.000 L 10.000 5.000 12.000 5.000 L 14.000 5.000 14.000 6.000 M3.614 10.057 C 3.377 10.131,3.212 10.261,3.109 10.453 L 3.020 10.620 3.020 15.500 L 3.020 20.380 3.120 20.558 C 3.230 20.755,3.414 20.898,3.635 20.959 C 3.835 21.015,20.165 21.015,20.365 20.959 C 20.586 20.898,20.770 20.755,20.880 20.558 L 20.980 20.380 20.980 15.500 L 20.980 10.620 20.891 10.453 C 20.785 10.256,20.622 10.131,20.371 10.055 C 20.101 9.974,14.899 9.974,14.629 10.055 C 14.378 10.131,14.215 10.256,14.109 10.453 C 14.022 10.617,14.020 10.650,14.008 12.310 L 13.997 14.000 12.000 14.000 L 10.004 14.000 9.992 12.310 C 9.980 10.651,9.978 10.617,9.891 10.453 C 9.785 10.256,9.622 10.131,9.371 10.055 C 9.110 9.977,3.865 9.979,3.614 10.057 M8.008 13.690 L 8.020 15.380 8.120 15.558 C 8.230 15.755,8.414 15.898,8.635 15.959 C 8.832 16.014,15.168 16.014,15.365 15.959 C 15.586 15.898,15.770 15.755,15.880 15.558 L 15.980 15.380 15.992 13.690 L 16.004 12.000 17.502 12.000 L 19.000 12.000 19.000 15.500 L 19.000 19.000 12.000 19.000 L 5.000 19.000 5.000 15.500 L 5.000 12.000 6.498 12.000 L 7.997 12.000 8.008 13.690 " stroke="none" fill="black" fill-rule="evenodd"></path></svg>