<svg xmlns="http://www.w3.org/2000/svg" width="24" height="24" viewBox="0 0 24 24" fill="none" stroke="currentColor" stroke-width="2" stroke-linecap="round" stroke-linejoin="round" class="icon icon-tabler icons-tabler-outline icon-tabler-arrow-down-left"><path d="M16.620 6.046 C 16.520 6.097,14.880 7.707,12.231 10.353 L 8.002 14.577 7.991 11.098 L 7.980 7.620 7.891 7.453 C 7.785 7.256,7.622 7.131,7.371 7.055 C 6.862 6.902,6.311 7.076,6.109 7.453 L 6.020 7.620 5.994 12.280 C 5.979 14.843,5.966 16.999,5.964 17.071 C 5.960 17.223,6.152 17.668,6.265 17.768 C 6.390 17.879,6.792 18.041,6.931 18.036 C 7.002 18.034,9.157 18.021,11.720 18.006 C 16.168 17.981,16.386 17.977,16.520 17.905 C 16.876 17.715,16.978 17.514,16.978 17.000 C 16.978 16.567,16.899 16.356,16.678 16.199 C 16.397 15.999,16.423 16.000,12.804 16.000 L 9.421 16.000 13.646 11.770 C 16.662 8.752,17.897 7.489,17.961 7.363 C 18.137 7.010,18.048 6.645,17.701 6.299 C 17.361 5.959,16.968 5.867,16.620 6.046 " stroke="none" fill="black" fill-rule="evenodd"></path></svg>