<svg xmlns="http://www.w3.org/2000/svg" width="24" height="24" viewBox="0 0 24 24" fill="none" stroke="currentColor" stroke-width="2" stroke-linecap="round" stroke-linejoin="round" class="icon icon-tabler icons-tabler-outline icon-tabler-file-symlink"><path d="M6.499 2.043 C 5.393 2.228,4.487 3.025,4.114 4.140 L 4.021 4.420 4.009 7.810 C 4.001 10.058,4.011 11.252,4.038 11.354 C 4.144 11.747,4.433 11.961,4.896 11.991 C 5.381 12.022,5.699 11.882,5.880 11.558 L 5.980 11.380 6.000 8.060 C 6.022 4.340,6.001 4.594,6.321 4.283 C 6.622 3.992,6.514 4.000,9.947 4.000 L 13.000 4.000 13.000 5.632 C 13.000 7.399,13.010 7.507,13.225 7.930 C 13.361 8.199,13.801 8.639,14.070 8.775 C 14.493 8.990,14.601 9.000,16.368 9.000 L 18.000 9.000 18.000 14.054 C 18.000 18.220,17.990 19.139,17.945 19.290 C 17.872 19.533,17.707 19.740,17.484 19.872 L 17.300 19.980 12.220 20.000 C 7.585 20.018,7.128 20.026,7.000 20.087 C 6.670 20.244,6.514 20.537,6.512 21.000 C 6.509 21.531,6.739 21.866,7.167 21.959 C 7.323 21.993,8.746 22.002,12.480 21.993 L 17.580 21.980 17.860 21.886 C 18.851 21.554,19.582 20.816,19.886 19.840 L 19.980 19.540 19.980 13.580 L 19.980 7.620 19.890 7.452 C 19.841 7.360,19.724 7.231,19.630 7.165 C 19.498 7.073,15.263 2.838,14.719 2.254 C 14.473 1.991,14.626 2.000,10.463 2.005 C 8.393 2.007,6.609 2.025,6.499 2.043 M15.800 6.220 L 16.579 7.000 15.790 7.000 L 15.000 7.000 15.000 6.220 C 15.000 5.791,15.005 5.440,15.010 5.440 C 15.016 5.440,15.371 5.791,15.800 6.220 M8.626 10.045 C 8.257 10.239,7.951 10.673,7.951 11.000 C 7.951 11.307,8.079 11.487,8.853 12.270 L 9.575 13.000 8.178 13.000 C 6.680 13.000,6.242 13.037,5.755 13.204 C 4.368 13.679,3.372 14.805,3.083 16.227 C 3.005 16.609,3.000 16.766,3.000 18.926 C 3.000 20.339,3.016 21.276,3.041 21.365 C 3.148 21.750,3.437 21.962,3.896 21.991 C 4.381 22.022,4.699 21.882,4.880 21.558 L 4.980 21.380 5.002 18.980 C 5.026 16.301,5.016 16.392,5.314 15.937 C 5.508 15.642,5.712 15.446,6.014 15.265 C 6.414 15.025,6.617 15.000,8.186 15.000 L 9.575 15.000 8.853 15.730 C 8.420 16.168,8.095 16.531,8.041 16.637 C 7.863 16.988,7.952 17.354,8.299 17.701 C 8.646 18.048,9.011 18.137,9.363 17.960 C 9.480 17.901,10.051 17.365,11.062 16.365 C 11.899 15.537,12.634 14.826,12.697 14.784 C 12.850 14.682,13.049 14.238,13.049 14.000 C 13.049 13.745,12.851 13.321,12.676 13.201 C 12.601 13.150,11.865 12.438,11.040 11.618 C 10.085 10.670,9.479 10.098,9.372 10.044 C 9.152 9.934,8.835 9.934,8.626 10.045 " stroke="none" fill="black" fill-rule="evenodd"></path></svg>