<svg xmlns="http://www.w3.org/2000/svg" width="24" height="24" viewBox="0 0 24 24" fill="none" stroke="currentColor" stroke-width="2" stroke-linecap="round" stroke-linejoin="round" class="icon icon-tabler icons-tabler-outline icon-tabler-crop-landscape"><path d="M5.499 5.043 C 4.380 5.233,3.461 6.048,3.114 7.160 L 3.020 7.460 3.020 12.000 L 3.020 16.540 3.114 16.840 C 3.422 17.827,4.173 18.578,5.160 18.886 L 5.460 18.980 12.000 18.980 L 18.540 18.980 18.840 18.886 C 19.827 18.578,20.578 17.827,20.886 16.840 L 20.980 16.540 20.980 12.000 L 20.980 7.460 20.886 7.160 C 20.581 6.182,19.832 5.428,18.861 5.121 L 18.540 5.020 12.120 5.014 C 8.589 5.011,5.609 5.024,5.499 5.043 M18.310 7.061 C 18.589 7.144,18.856 7.411,18.939 7.690 C 18.992 7.867,19.000 8.441,19.000 12.001 C 19.000 16.458,19.007 16.319,18.779 16.618 C 18.718 16.698,18.585 16.813,18.484 16.872 L 18.300 16.980 12.000 16.980 L 5.700 16.980 5.516 16.872 C 5.303 16.747,5.141 16.550,5.058 16.316 C 4.969 16.062,4.971 7.992,5.061 7.690 C 5.140 7.421,5.412 7.143,5.673 7.063 C 5.963 6.974,18.010 6.972,18.310 7.061 " stroke="none" fill="black" fill-rule="evenodd"></path></svg>