<svg xmlns="http://www.w3.org/2000/svg" width="24" height="24" viewBox="0 0 24 24" fill="none" stroke="currentColor" stroke-width="2" stroke-linecap="round" stroke-linejoin="round" class="icon icon-tabler icons-tabler-outline icon-tabler-cpu-2"><path d="M9.614 2.057 C 9.377 2.131,9.212 2.261,9.109 2.453 C 9.029 2.603,9.019 2.689,9.007 3.310 L 8.993 4.000 7.367 4.002 C 5.545 4.005,5.416 4.020,4.983 4.281 C 4.703 4.449,4.354 4.816,4.219 5.083 C 4.011 5.492,4.000 5.610,4.000 7.368 L 4.000 9.000 3.406 9.000 C 2.577 9.000,2.300 9.097,2.109 9.453 C 2.035 9.592,2.020 9.684,2.020 10.000 C 2.020 10.331,2.033 10.403,2.120 10.558 C 2.230 10.755,2.414 10.898,2.635 10.959 C 2.715 10.981,3.054 11.000,3.390 11.000 L 4.000 11.000 4.000 12.000 L 4.000 13.000 3.406 13.000 C 2.577 13.000,2.300 13.097,2.109 13.453 C 2.035 13.592,2.020 13.684,2.020 14.000 C 2.020 14.331,2.033 14.403,2.120 14.558 C 2.230 14.755,2.414 14.898,2.635 14.959 C 2.715 14.981,3.054 15.000,3.390 15.000 L 4.000 15.000 4.000 16.632 C 4.000 18.399,4.010 18.507,4.225 18.930 C 4.361 19.199,4.801 19.639,5.070 19.775 C 5.493 19.990,5.601 20.000,7.368 20.000 L 9.000 20.000 9.000 20.610 C 9.000 20.946,9.019 21.285,9.041 21.365 C 9.148 21.750,9.437 21.962,9.896 21.991 C 10.381 22.022,10.699 21.882,10.880 21.558 C 10.974 21.391,10.981 21.338,10.994 20.690 L 11.008 20.000 12.004 20.000 L 13.000 20.000 13.000 20.610 C 13.000 20.946,13.019 21.285,13.041 21.365 C 13.148 21.750,13.437 21.962,13.896 21.991 C 14.381 22.022,14.699 21.882,14.880 21.558 C 14.974 21.391,14.981 21.338,14.994 20.690 L 15.008 20.000 16.636 20.000 C 18.399 20.000,18.507 19.989,18.930 19.775 C 19.196 19.640,19.638 19.200,19.771 18.937 C 19.988 18.510,20.000 18.386,20.000 16.624 L 20.000 15.000 20.610 15.000 C 20.946 15.000,21.285 14.981,21.365 14.959 C 21.586 14.898,21.770 14.755,21.880 14.558 C 21.967 14.402,21.980 14.332,21.979 14.000 C 21.978 13.687,21.962 13.591,21.890 13.453 C 21.702 13.097,21.424 13.000,20.594 13.000 L 20.000 13.000 20.000 12.000 L 20.000 11.000 20.610 11.000 C 20.946 11.000,21.285 10.981,21.365 10.959 C 21.586 10.898,21.770 10.755,21.880 10.558 C 21.967 10.402,21.980 10.332,21.979 10.000 C 21.978 9.687,21.962 9.591,21.890 9.453 C 21.702 9.097,21.424 9.000,20.594 9.000 L 20.000 9.000 19.999 7.390 C 19.999 5.652,19.982 5.479,19.781 5.083 C 19.646 4.816,19.297 4.449,19.017 4.281 C 18.584 4.020,18.455 4.005,16.634 4.002 L 15.008 4.000 14.993 3.310 C 14.975 2.523,14.927 2.364,14.649 2.182 C 14.199 1.887,13.426 1.979,13.170 2.358 C 13.029 2.568,13.000 2.739,13.000 3.390 L 13.000 4.000 12.004 4.000 L 11.008 4.000 10.993 3.310 C 10.976 2.541,10.930 2.378,10.678 2.199 C 10.414 2.010,9.957 1.950,9.614 2.057 M18.000 12.000 L 18.000 18.000 12.000 18.000 L 6.000 18.000 6.000 12.000 L 6.000 6.000 12.000 6.000 L 18.000 6.000 18.000 12.000 M7.614 7.057 C 7.377 7.131,7.212 7.261,7.109 7.453 C 7.023 7.614,7.020 7.665,7.008 8.908 C 7.000 9.720,7.011 10.254,7.038 10.352 C 7.144 10.747,7.432 10.961,7.896 10.991 C 8.381 11.022,8.699 10.882,8.880 10.558 C 8.974 10.391,8.981 10.338,8.994 9.690 L 9.008 9.000 9.614 9.000 C 9.947 9.000,10.285 8.981,10.365 8.959 C 10.586 8.898,10.770 8.755,10.880 8.558 C 10.967 8.402,10.980 8.332,10.979 8.000 C 10.978 7.687,10.962 7.591,10.890 7.453 C 10.786 7.256,10.623 7.131,10.371 7.055 C 10.117 6.979,7.859 6.981,7.614 7.057 M13.614 7.057 C 13.377 7.131,13.212 7.261,13.109 7.453 C 13.035 7.592,13.020 7.684,13.020 8.000 C 13.020 8.331,13.033 8.403,13.120 8.558 C 13.230 8.755,13.414 8.898,13.635 8.959 C 13.715 8.981,14.055 9.000,14.390 9.000 L 15.000 9.000 15.000 9.610 C 15.000 9.945,15.019 10.285,15.041 10.365 C 15.148 10.750,15.437 10.962,15.896 10.991 C 16.381 11.022,16.699 10.882,16.880 10.558 L 16.980 10.380 16.980 9.000 C 16.980 7.650,16.978 7.616,16.891 7.453 C 16.785 7.256,16.622 7.131,16.371 7.055 C 16.117 6.979,13.859 6.981,13.614 7.057 M7.614 13.057 C 7.377 13.131,7.212 13.261,7.109 13.453 C 7.022 13.616,7.020 13.650,7.020 15.000 L 7.020 16.380 7.120 16.558 C 7.230 16.755,7.414 16.898,7.635 16.959 C 7.826 17.012,10.174 17.012,10.365 16.959 C 10.586 16.898,10.770 16.755,10.880 16.558 C 10.967 16.402,10.980 16.332,10.979 16.000 C 10.978 15.687,10.962 15.591,10.890 15.453 C 10.702 15.098,10.423 15.000,9.598 15.000 L 9.008 15.000 8.993 14.310 C 8.976 13.541,8.930 13.378,8.678 13.199 C 8.414 13.010,7.957 12.950,7.614 13.057 M15.614 13.057 C 15.377 13.131,15.212 13.261,15.109 13.453 C 15.029 13.603,15.019 13.689,15.007 14.310 L 14.993 15.000 14.403 15.000 C 13.577 15.000,13.299 15.097,13.109 15.453 C 13.035 15.592,13.020 15.684,13.020 16.000 C 13.020 16.331,13.033 16.403,13.120 16.558 C 13.230 16.755,13.414 16.898,13.635 16.959 C 13.826 17.012,16.174 17.012,16.365 16.959 C 16.586 16.898,16.770 16.755,16.880 16.558 L 16.980 16.380 16.980 15.000 C 16.980 13.650,16.978 13.616,16.891 13.453 C 16.842 13.362,16.746 13.247,16.678 13.199 C 16.414 13.010,15.957 12.950,15.614 13.057 " stroke="none" fill="black" fill-rule="evenodd"></path></svg>