<svg xmlns="http://www.w3.org/2000/svg" width="24" height="24" viewBox="0 0 24 24" fill="none" stroke="currentColor" stroke-width="2" stroke-linecap="round" stroke-linejoin="round" class="icon icon-tabler icons-tabler-outline icon-tabler-coin-taka"><path d="M11.080 2.045 C 9.507 2.184,7.883 2.751,6.540 3.630 C 5.905 4.045,5.499 4.378,4.919 4.958 C 2.953 6.926,1.919 9.544,2.013 12.320 C 2.084 14.439,2.752 16.328,4.033 18.040 C 4.430 18.570,5.305 19.464,5.800 19.847 C 7.242 20.961,8.787 21.624,10.600 21.907 C 11.247 22.008,12.753 22.008,13.400 21.907 C 15.638 21.557,17.504 20.620,19.062 19.062 C 20.620 17.504,21.557 15.638,21.907 13.400 C 22.008 12.753,22.008 11.247,21.907 10.600 C 21.624 8.786,20.959 7.238,19.847 5.800 C 19.510 5.365,18.639 4.494,18.200 4.154 C 16.133 2.555,13.646 1.818,11.080 2.045 M12.734 4.041 C 14.574 4.216,16.228 4.976,17.554 6.256 C 20.043 8.658,20.702 12.394,19.183 15.499 C 18.749 16.387,18.223 17.105,17.496 17.801 C 16.876 18.394,16.262 18.819,15.471 19.200 C 13.267 20.265,10.733 20.265,8.529 19.200 C 7.477 18.693,6.612 18.015,5.847 17.100 C 3.848 14.711,3.440 11.302,4.816 8.500 C 6.162 5.760,8.867 4.049,11.920 4.005 C 12.129 4.003,12.495 4.019,12.734 4.041 M8.360 6.734 C 8.034 6.851,7.512 7.115,7.295 7.273 C 7.061 7.444,6.943 7.703,6.972 7.984 C 7.017 8.421,7.303 8.861,7.621 8.983 C 7.887 9.084,8.131 9.044,8.582 8.826 C 8.794 8.724,8.975 8.640,8.984 8.640 C 8.993 8.640,9.000 8.946,9.000 9.320 L 9.000 10.000 8.406 10.000 C 7.577 10.000,7.300 10.097,7.109 10.453 C 7.035 10.592,7.020 10.684,7.020 11.000 C 7.020 11.331,7.033 11.403,7.120 11.558 C 7.230 11.755,7.414 11.898,7.635 11.959 C 7.715 11.981,8.053 12.000,8.387 12.000 L 8.995 12.000 9.009 13.790 C 9.023 15.533,9.026 15.587,9.116 15.860 C 9.438 16.836,10.179 17.576,11.140 17.881 C 11.483 17.989,12.525 18.037,12.988 17.965 C 13.775 17.842,14.393 17.528,14.960 16.960 C 15.727 16.194,16.029 15.374,15.992 14.162 C 15.978 13.704,15.962 13.594,15.889 13.453 C 15.786 13.256,15.623 13.131,15.371 13.055 C 15.117 12.979,13.883 12.979,13.629 13.055 C 13.224 13.177,13.040 13.428,13.009 13.900 C 12.970 14.511,13.239 14.906,13.748 14.983 L 13.917 15.009 13.822 15.194 C 13.690 15.451,13.386 15.734,13.100 15.868 C 12.872 15.974,12.831 15.980,12.280 15.980 C 11.722 15.980,11.693 15.976,11.516 15.872 C 11.415 15.813,11.284 15.700,11.225 15.623 C 11.006 15.336,11.000 15.283,11.000 13.575 L 11.000 12.000 13.110 12.000 C 14.400 12.000,15.276 11.984,15.365 11.959 C 15.586 11.898,15.770 11.755,15.880 11.558 C 15.967 11.402,15.980 11.332,15.979 11.000 C 15.978 10.567,15.898 10.355,15.678 10.199 C 15.408 10.006,15.326 10.000,13.097 10.000 L 11.007 10.000 10.992 9.090 C 10.978 8.253,10.969 8.161,10.884 7.946 C 10.655 7.368,10.158 6.889,9.612 6.720 C 9.238 6.605,8.706 6.611,8.360 6.734 " stroke="none" fill="black" fill-rule="evenodd"></path></svg>