<svg xmlns="http://www.w3.org/2000/svg" width="24" height="24" viewBox="0 0 24 24" fill="none" stroke="currentColor" stroke-width="2" stroke-linecap="round" stroke-linejoin="round" class="icon icon-tabler icons-tabler-outline icon-tabler-lane"><path d="M3.614 5.057 C 3.377 5.131,3.212 5.261,3.109 5.453 L 3.020 5.620 3.010 12.414 C 3.003 16.892,3.013 19.259,3.039 19.358 C 3.144 19.747,3.434 19.961,3.896 19.991 C 4.381 20.022,4.699 19.882,4.880 19.558 L 4.980 19.380 4.980 12.500 L 4.980 5.620 4.891 5.453 C 4.842 5.362,4.746 5.247,4.678 5.199 C 4.414 5.010,3.957 4.950,3.614 5.057 M19.614 5.057 C 19.377 5.131,19.212 5.261,19.109 5.453 L 19.020 5.620 19.010 12.414 C 19.003 16.892,19.013 19.259,19.039 19.358 C 19.144 19.747,19.434 19.961,19.896 19.991 C 20.381 20.022,20.699 19.882,20.880 19.558 L 20.980 19.380 20.980 12.500 L 20.980 5.620 20.891 5.453 C 20.842 5.362,20.746 5.247,20.678 5.199 C 20.414 5.010,19.957 4.950,19.614 5.057 " stroke="none" fill="black" fill-rule="evenodd"></path></svg>