<svg xmlns="http://www.w3.org/2000/svg" width="24" height="24" viewBox="0 0 24 24" fill="none" stroke="currentColor" stroke-width="2" stroke-linecap="round" stroke-linejoin="round" class="icon icon-tabler icons-tabler-outline icon-tabler-transaction-rupee"><path d="M4.499 2.040 C 3.363 2.246,2.460 3.049,2.114 4.160 C 1.979 4.594,1.979 5.406,2.114 5.840 C 2.421 6.826,3.174 7.579,4.160 7.886 C 4.628 8.032,5.521 8.015,5.943 7.854 C 5.992 7.834,6.000 8.209,6.000 10.599 C 6.000 13.239,6.004 13.386,6.083 13.773 C 6.357 15.118,7.249 16.195,8.512 16.704 C 9.082 16.934,9.512 17.000,10.426 17.000 C 10.863 17.000,11.285 16.981,11.365 16.959 C 11.586 16.898,11.770 16.755,11.880 16.558 C 11.967 16.402,11.980 16.332,11.979 16.000 C 11.978 15.687,11.962 15.591,11.890 15.453 C 11.694 15.082,11.436 15.000,10.462 15.000 C 9.680 15.000,9.439 14.962,9.083 14.781 C 8.816 14.646,8.449 14.297,8.281 14.017 C 7.996 13.545,8.005 13.677,8.002 9.630 L 8.000 6.000 11.073 6.000 L 14.147 6.000 14.312 6.330 C 14.682 7.069,15.355 7.635,16.160 7.886 C 16.594 8.021,17.406 8.021,17.840 7.886 C 18.826 7.579,19.579 6.826,19.886 5.840 C 20.021 5.406,20.021 4.594,19.886 4.160 C 19.581 3.181,18.822 2.418,17.861 2.125 C 17.588 2.042,17.458 2.027,17.000 2.027 C 16.542 2.027,16.412 2.042,16.139 2.125 C 15.358 2.363,14.679 2.938,14.312 3.670 L 14.147 4.000 11.000 4.000 L 7.853 4.000 7.688 3.670 C 7.320 2.935,6.631 2.354,5.861 2.129 C 5.500 2.023,4.832 1.980,4.499 2.040 M5.310 4.061 C 5.688 4.173,6.000 4.598,6.000 5.001 C 6.000 5.331,5.784 5.696,5.484 5.872 C 5.328 5.963,5.254 5.980,5.000 5.980 C 4.746 5.980,4.672 5.963,4.516 5.872 C 3.935 5.530,3.833 4.774,4.304 4.303 C 4.583 4.024,4.916 3.944,5.310 4.061 M17.310 4.061 C 17.688 4.173,18.000 4.598,18.000 5.001 C 18.000 5.331,17.784 5.696,17.484 5.872 C 17.328 5.963,17.254 5.980,17.000 5.980 C 16.746 5.980,16.672 5.963,16.516 5.872 C 15.932 5.528,15.831 4.775,16.307 4.299 C 16.582 4.024,16.918 3.944,17.310 4.061 M14.614 11.057 C 14.377 11.131,14.212 11.261,14.109 11.453 C 14.035 11.592,14.020 11.684,14.020 12.000 C 14.020 12.331,14.033 12.403,14.120 12.558 C 14.230 12.755,14.414 12.898,14.635 12.959 C 14.715 12.981,15.100 13.000,15.492 13.000 C 16.326 13.000,16.636 13.055,16.986 13.265 C 17.246 13.420,17.545 13.696,17.654 13.880 L 17.725 14.000 16.269 14.000 C 14.719 14.000,14.581 14.014,14.322 14.199 C 14.100 14.357,14.020 14.568,14.020 15.000 C 14.020 15.331,14.033 15.403,14.120 15.558 C 14.230 15.755,14.414 15.898,14.635 15.959 C 14.720 15.983,15.389 16.000,16.252 16.000 L 17.725 16.000 17.652 16.124 C 17.546 16.306,17.143 16.667,16.917 16.781 C 16.561 16.962,16.320 17.000,15.538 17.000 C 14.766 17.000,14.552 17.035,14.322 17.199 C 14.108 17.351,14.021 17.571,14.020 17.960 C 14.020 18.258,14.033 18.322,14.127 18.480 C 14.284 18.744,17.416 21.849,17.637 21.960 C 17.989 22.137,18.354 22.048,18.701 21.701 C 19.048 21.354,19.137 20.989,18.959 20.637 C 18.904 20.528,18.555 20.143,18.048 19.631 C 17.361 18.938,17.239 18.798,17.303 18.775 C 18.432 18.374,19.299 17.540,19.711 16.460 C 19.778 16.284,19.843 16.108,19.855 16.070 C 19.875 16.007,19.945 16.000,20.549 16.000 C 20.918 16.000,21.285 15.981,21.365 15.959 C 21.586 15.898,21.770 15.755,21.880 15.558 C 21.967 15.402,21.980 15.332,21.979 15.000 C 21.978 14.572,21.898 14.355,21.686 14.204 C 21.463 14.046,21.350 14.024,20.607 14.002 L 19.873 13.980 19.781 13.720 C 19.706 13.509,19.583 13.218,19.488 13.030 C 19.480 13.013,19.866 13.000,20.347 13.000 C 20.827 13.000,21.285 12.981,21.365 12.959 C 21.586 12.898,21.770 12.755,21.880 12.558 C 21.967 12.402,21.980 12.332,21.979 12.000 C 21.978 11.567,21.898 11.355,21.678 11.199 C 21.398 10.999,21.411 11.000,17.984 11.003 C 15.472 11.005,14.744 11.017,14.614 11.057 " stroke="none" fill="black" fill-rule="evenodd"></path></svg>