<svg xmlns="http://www.w3.org/2000/svg" width="24" height="24" viewBox="0 0 24 24" fill="none" stroke="currentColor" stroke-width="2" stroke-linecap="round" stroke-linejoin="round" class="icon icon-tabler icons-tabler-outline icon-tabler-building-church"><path d="M11.614 2.057 C 11.377 2.131,11.212 2.261,11.109 2.453 C 11.029 2.603,11.019 2.689,11.007 3.310 L 10.993 4.000 10.403 4.000 C 9.577 4.000,9.299 4.097,9.109 4.453 C 9.035 4.592,9.020 4.684,9.020 5.000 C 9.020 5.331,9.033 5.403,9.120 5.558 C 9.230 5.755,9.414 5.898,9.635 5.959 C 9.715 5.981,10.055 6.000,10.390 6.000 L 11.000 6.000 11.000 6.791 L 11.000 7.581 8.170 10.393 C 6.613 11.940,5.300 13.244,5.252 13.293 C 4.336 14.198,3.112 15.496,3.041 15.637 C 2.863 15.989,2.952 16.354,3.299 16.701 C 3.641 17.043,4.013 17.137,4.349 16.965 C 4.440 16.919,4.623 16.780,4.757 16.656 L 5.000 16.431 5.000 18.216 L 5.000 20.000 3.906 20.000 C 2.744 20.000,2.570 20.022,2.322 20.199 C 2.100 20.357,2.020 20.568,2.020 21.000 C 2.020 21.331,2.033 21.403,2.120 21.558 C 2.230 21.755,2.414 21.898,2.635 21.959 C 2.835 22.015,21.165 22.015,21.365 21.959 C 21.586 21.898,21.770 21.755,21.880 21.558 C 21.967 21.402,21.980 21.332,21.979 21.000 C 21.978 20.567,21.898 20.355,21.678 20.199 C 21.430 20.022,21.256 20.000,20.094 20.000 L 19.000 20.000 19.000 18.216 L 19.000 16.431 19.243 16.656 C 19.377 16.780,19.560 16.919,19.651 16.965 C 19.987 17.137,20.359 17.043,20.701 16.701 C 21.048 16.354,21.137 15.989,20.959 15.637 C 20.888 15.496,19.664 14.198,18.748 13.293 C 18.700 13.244,17.387 11.940,15.830 10.393 L 13.000 7.581 13.000 6.791 L 13.000 6.000 13.610 6.000 C 13.945 6.000,14.285 5.981,14.365 5.959 C 14.586 5.898,14.770 5.755,14.880 5.558 C 14.967 5.402,14.980 5.332,14.979 5.000 C 14.978 4.687,14.962 4.591,14.890 4.453 C 14.702 4.098,14.423 4.000,13.598 4.000 L 13.008 4.000 12.993 3.310 C 12.976 2.541,12.930 2.378,12.678 2.199 C 12.414 2.010,11.957 1.950,11.614 2.057 M14.510 11.930 L 17.000 14.420 17.000 17.210 L 17.000 20.000 16.003 20.000 L 15.005 20.000 14.991 18.210 C 14.977 16.467,14.974 16.413,14.884 16.140 C 14.562 15.162,13.811 14.415,12.861 14.125 C 12.588 14.042,12.458 14.027,12.000 14.027 C 11.542 14.027,11.412 14.042,11.139 14.125 C 10.189 14.415,9.438 15.162,9.116 16.140 C 9.026 16.413,9.023 16.467,9.009 18.210 L 8.995 20.000 7.997 20.000 L 7.000 20.000 7.000 17.210 L 7.000 14.420 9.490 11.930 C 10.859 10.561,11.989 9.440,12.000 9.440 C 12.011 9.440,13.140 10.560,14.510 11.930 M12.334 16.064 C 12.446 16.102,12.593 16.200,12.700 16.306 C 12.992 16.599,13.000 16.653,13.000 18.447 L 13.000 20.000 12.000 20.000 L 11.000 20.000 11.000 18.447 C 11.000 16.653,11.008 16.599,11.301 16.306 C 11.587 16.019,11.952 15.934,12.334 16.064 " stroke="none" fill="black" fill-rule="evenodd"></path></svg>