<svg xmlns="http://www.w3.org/2000/svg" width="24" height="24" viewBox="0 0 24 24" fill="none" stroke="currentColor" stroke-width="2" stroke-linecap="round" stroke-linejoin="round" class="icon icon-tabler icons-tabler-outline icon-tabler-ball-football-off"><path d="M2.626 2.045 C 2.257 2.239,1.951 2.673,1.951 3.000 C 1.951 3.327,2.064 3.474,3.188 4.605 L 4.247 5.670 3.965 6.051 C 2.894 7.494,2.271 9.091,2.055 10.949 C 1.978 11.606,1.999 12.831,2.098 13.458 C 2.362 15.134,3.023 16.701,4.045 18.068 C 4.424 18.575,5.428 19.578,5.944 19.965 C 7.305 20.985,8.854 21.638,10.540 21.902 C 11.098 21.989,12.312 22.021,12.900 21.964 C 14.747 21.785,16.486 21.121,17.949 20.035 L 18.330 19.753 19.395 20.812 C 20.082 21.494,20.523 21.902,20.637 21.960 C 20.989 22.137,21.354 22.048,21.701 21.701 C 22.048 21.354,22.137 20.990,21.961 20.637 C 21.898 20.513,21.048 19.635,19.112 17.695 L 16.352 14.931 16.533 14.375 C 16.632 14.070,16.904 13.234,17.137 12.517 L 17.561 11.214 18.619 10.804 C 19.200 10.578,19.711 10.384,19.753 10.373 C 19.820 10.356,19.836 10.387,19.875 10.607 C 20.105 11.882,20.013 13.242,19.613 14.460 C 19.556 14.636,19.401 15.023,19.270 15.320 C 18.979 15.979,18.943 16.207,19.090 16.480 C 19.335 16.937,20.065 17.212,20.477 17.002 C 20.696 16.890,20.827 16.717,21.051 16.240 C 22.817 12.484,22.076 8.046,19.182 5.045 C 18.005 3.824,16.422 2.871,14.786 2.397 C 12.480 1.730,9.951 1.925,7.784 2.938 C 7.132 3.243,6.922 3.472,6.922 3.880 C 6.922 4.262,7.223 4.767,7.544 4.922 C 7.807 5.049,8.043 5.014,8.583 4.768 C 9.320 4.431,10.026 4.208,10.690 4.101 L 11.000 4.051 10.999 5.276 L 10.997 6.500 10.109 7.146 L 9.220 7.791 6.380 4.960 C 4.478 3.064,3.484 2.100,3.372 2.044 C 3.152 1.934,2.835 1.935,2.626 2.045 M13.688 4.183 C 15.535 4.573,17.154 5.597,18.354 7.134 C 18.645 7.506,19.126 8.281,19.135 8.390 C 19.139 8.439,18.868 8.561,18.028 8.888 C 17.354 9.150,16.894 9.309,16.861 9.291 C 16.831 9.274,15.951 8.639,14.905 7.880 L 13.003 6.500 13.002 5.290 L 13.000 4.080 13.099 4.080 C 13.154 4.080,13.419 4.126,13.688 4.183 M6.634 8.054 L 7.567 8.988 7.374 9.128 C 7.267 9.204,7.159 9.279,7.133 9.294 C 7.096 9.315,5.011 8.541,4.870 8.454 C 4.807 8.415,5.588 7.120,5.675 7.120 C 5.689 7.120,6.121 7.540,6.634 8.054 M13.796 9.540 C 14.765 10.244,15.559 10.837,15.559 10.859 C 15.560 10.918,14.797 13.256,14.765 13.289 C 14.750 13.305,13.817 12.396,12.691 11.269 L 10.644 9.220 11.312 8.732 C 11.679 8.464,11.992 8.248,12.007 8.252 C 12.022 8.256,12.827 8.836,13.796 9.540 M5.329 10.783 C 5.929 11.016,6.425 11.211,6.430 11.217 C 6.452 11.239,7.880 15.782,7.880 15.830 C 7.880 15.858,7.535 16.278,7.114 16.763 L 6.348 17.644 6.190 17.492 C 5.723 17.042,5.223 16.322,4.836 15.541 C 4.171 14.201,3.893 12.698,4.040 11.240 C 4.090 10.739,4.161 10.360,4.203 10.360 C 4.222 10.360,4.729 10.551,5.329 10.783 M11.300 12.720 L 13.580 15.000 11.657 15.000 L 9.734 15.000 9.106 13.019 C 8.760 11.930,8.469 10.990,8.457 10.929 C 8.439 10.832,8.466 10.800,8.705 10.630 C 8.852 10.525,8.983 10.440,8.996 10.440 C 9.009 10.440,10.046 11.466,11.300 12.720 M15.298 17.916 C 15.715 18.418,16.062 18.846,16.069 18.867 C 16.084 18.912,15.341 19.284,14.874 19.464 C 14.023 19.793,13.229 19.955,12.298 19.988 C 10.917 20.038,9.647 19.765,8.409 19.153 C 7.960 18.931,7.922 18.903,7.969 18.838 C 7.997 18.798,8.362 18.370,8.780 17.886 L 9.540 17.005 12.040 17.004 L 14.540 17.002 15.298 17.916 " stroke="none" fill="black" fill-rule="evenodd"></path></svg>