<svg xmlns="http://www.w3.org/2000/svg" width="24" height="24" viewBox="0 0 24 24" fill="none" stroke="currentColor" stroke-width="2" stroke-linecap="round" stroke-linejoin="round" class="icon icon-tabler icons-tabler-outline icon-tabler-radioactive"><path d="M11.237 2.039 C 9.801 2.152,8.510 2.532,7.241 3.216 C 6.744 3.484,6.543 3.681,6.480 3.965 C 6.438 4.152,6.442 4.209,6.507 4.401 C 6.587 4.638,9.525 9.757,9.761 10.071 C 10.078 10.492,10.434 10.542,11.040 10.251 C 11.742 9.914,12.258 9.914,12.960 10.251 C 13.566 10.542,13.922 10.492,14.239 10.071 C 14.475 9.757,17.413 4.638,17.493 4.401 C 17.655 3.923,17.446 3.586,16.759 3.216 C 15.670 2.629,14.526 2.255,13.360 2.104 C 12.767 2.027,11.776 1.997,11.237 2.039 M13.220 4.103 C 13.695 4.173,14.247 4.313,14.732 4.486 C 15.013 4.586,15.079 4.624,15.060 4.676 C 15.046 4.711,14.593 5.506,14.052 6.443 L 13.068 8.147 12.858 8.098 C 12.491 8.012,11.964 7.990,11.540 8.042 C 11.320 8.069,11.087 8.093,11.023 8.096 C 10.909 8.100,10.873 8.044,9.913 6.382 C 9.367 5.437,8.920 4.651,8.920 4.637 C 8.920 4.599,9.550 4.379,9.997 4.261 C 10.357 4.166,11.032 4.057,11.460 4.024 C 11.813 3.997,12.808 4.041,13.220 4.103 M2.649 11.039 C 2.442 11.088,2.209 11.266,2.111 11.450 C 2.027 11.608,2.020 11.667,2.023 12.280 C 2.035 15.074,3.430 17.913,5.697 19.759 C 6.149 20.126,6.972 20.664,7.236 20.763 C 7.645 20.917,8.025 20.793,8.277 20.422 C 8.576 19.984,11.428 14.989,11.496 14.785 C 11.564 14.580,11.568 14.528,11.525 14.366 C 11.458 14.117,11.324 13.953,11.028 13.755 C 10.352 13.303,10.080 12.844,10.002 12.022 C 9.957 11.549,9.874 11.338,9.678 11.199 C 9.398 10.999,9.412 11.000,5.984 11.004 C 4.222 11.006,2.721 11.022,2.649 11.039 M14.614 11.057 C 14.193 11.189,14.049 11.415,13.995 12.031 C 13.926 12.832,13.645 13.305,12.972 13.755 C 12.694 13.941,12.554 14.106,12.480 14.336 C 12.380 14.648,12.423 14.737,14.044 17.546 C 14.881 18.995,15.624 20.270,15.697 20.380 C 15.965 20.790,16.339 20.923,16.764 20.763 C 17.029 20.663,17.852 20.126,18.302 19.759 C 20.571 17.909,21.966 15.070,21.977 12.280 C 21.980 11.671,21.973 11.607,21.891 11.453 C 21.785 11.256,21.622 11.131,21.371 11.055 C 21.109 10.977,14.866 10.979,14.614 11.057 M8.220 13.280 C 8.387 13.774,8.646 14.224,9.003 14.640 L 9.191 14.861 8.197 16.580 C 7.650 17.526,7.196 18.318,7.188 18.339 C 7.146 18.455,6.051 17.397,5.632 16.836 C 5.125 16.158,4.692 15.338,4.421 14.547 C 4.283 14.142,4.081 13.278,4.080 13.090 L 4.080 12.999 6.106 13.010 L 8.133 13.020 8.220 13.280 M19.920 13.090 C 19.919 13.279,19.717 14.143,19.577 14.552 C 19.316 15.320,18.861 16.179,18.369 16.834 C 17.938 17.407,16.854 18.456,16.812 18.339 C 16.805 18.318,16.350 17.526,15.803 16.581 L 14.808 14.862 14.997 14.641 C 15.348 14.231,15.633 13.736,15.780 13.280 C 15.819 13.159,15.858 13.047,15.868 13.030 C 15.877 13.013,16.793 13.000,17.902 13.000 L 19.920 13.000 19.920 13.090 " stroke="none" fill="black" fill-rule="evenodd"></path></svg>