<svg xmlns="http://www.w3.org/2000/svg" width="24" height="24" viewBox="0 0 24 24" fill="none" stroke="currentColor" stroke-width="2" stroke-linecap="round" stroke-linejoin="round" class="icon icon-tabler icons-tabler-outline icon-tabler-stack-backward"><path d="M11.680 4.055 C 11.378 4.172,3.450 8.159,3.295 8.272 C 3.059 8.445,2.943 8.703,2.972 8.988 C 3.000 9.260,3.162 9.601,3.330 9.742 C 3.399 9.800,4.415 10.327,5.588 10.914 C 6.760 11.500,7.720 11.989,7.720 12.000 C 7.720 12.011,6.762 12.500,5.590 13.086 C 4.418 13.672,3.386 14.206,3.295 14.272 C 3.059 14.445,2.943 14.703,2.972 14.988 C 3.000 15.260,3.162 15.601,3.330 15.742 C 3.400 15.801,5.316 16.778,7.589 17.914 L 11.722 19.980 12.000 19.980 L 12.278 19.980 16.409 17.914 C 18.681 16.778,20.614 15.794,20.705 15.728 C 20.941 15.555,21.057 15.297,21.028 15.012 C 21.000 14.740,20.838 14.399,20.670 14.258 C 20.601 14.200,19.585 13.673,18.412 13.086 C 17.240 12.500,16.280 12.011,16.280 12.000 C 16.280 11.989,17.238 11.500,18.410 10.914 C 19.582 10.328,20.614 9.794,20.705 9.728 C 20.941 9.555,21.057 9.297,21.028 9.012 C 21.000 8.740,20.838 8.399,20.670 8.258 C 20.600 8.199,18.687 7.223,16.417 6.089 C 12.546 4.154,12.275 4.025,12.055 4.014 C 11.923 4.007,11.759 4.025,11.680 4.055 M14.860 7.550 C 16.433 8.336,17.720 8.989,17.720 9.000 C 17.720 9.011,16.433 9.664,14.860 10.450 L 12.000 11.880 9.140 10.450 C 7.567 9.664,6.280 9.011,6.280 9.000 C 6.280 8.985,11.936 6.134,11.990 6.122 C 11.995 6.121,13.287 6.763,14.860 7.550 " stroke="none" fill="black" fill-rule="evenodd"></path></svg>