<svg xmlns="http://www.w3.org/2000/svg" width="24" height="24" viewBox="0 0 24 24" fill="none" stroke="currentColor" stroke-width="2" stroke-linecap="round" stroke-linejoin="round" class="icon icon-tabler icons-tabler-outline icon-tabler-border-corner-rounded"><path d="M9.540 3.026 C 8.804 3.084,8.250 3.200,7.620 3.427 C 5.478 4.198,3.797 6.033,3.236 8.214 C 3.017 9.064,3.028 8.752,3.012 14.691 C 3.002 18.396,3.011 20.252,3.039 20.355 C 3.144 20.747,3.433 20.961,3.896 20.991 C 4.381 21.022,4.699 20.882,4.880 20.558 L 4.980 20.380 5.004 14.860 C 5.019 11.216,5.042 9.272,5.070 9.140 C 5.194 8.556,5.312 8.212,5.557 7.728 C 6.187 6.479,7.396 5.510,8.760 5.162 C 9.359 5.009,9.692 5.000,15.028 5.000 C 18.383 5.000,20.271 4.985,20.365 4.959 C 20.586 4.898,20.770 4.755,20.880 4.558 C 20.967 4.402,20.980 4.332,20.979 4.000 C 20.978 3.567,20.898 3.355,20.678 3.199 C 20.390 2.993,20.570 3.000,14.944 3.007 C 12.060 3.010,9.628 3.019,9.540 3.026 " stroke="none" fill="black" fill-rule="evenodd"></path></svg>