<svg xmlns="http://www.w3.org/2000/svg" width="24" height="24" viewBox="0 0 24 24" fill="none" stroke="currentColor" stroke-width="2" stroke-linecap="round" stroke-linejoin="round" class="icon icon-tabler icons-tabler-outline icon-tabler-hash"><path d="M10.494 3.080 C 10.165 3.247,10.154 3.278,9.537 5.736 L 8.975 7.980 6.816 8.000 L 4.658 8.020 4.459 8.122 C 4.119 8.297,3.978 8.606,4.009 9.104 C 4.038 9.563,4.250 9.852,4.635 9.959 C 4.723 9.984,5.512 10.000,6.625 10.000 L 8.470 10.000 7.970 12.000 L 7.470 14.000 6.141 14.000 C 4.728 14.000,4.578 14.016,4.322 14.199 C 4.100 14.357,4.020 14.568,4.020 15.000 C 4.020 15.331,4.033 15.403,4.120 15.558 C 4.230 15.755,4.414 15.898,4.635 15.959 C 4.716 15.982,5.263 16.000,5.870 16.000 C 6.470 16.000,6.960 16.009,6.960 16.021 C 6.960 16.032,6.744 16.906,6.479 17.964 C 5.954 20.065,5.927 20.238,6.083 20.516 C 6.245 20.806,6.671 21.008,7.117 21.008 C 7.469 21.008,7.734 20.837,7.871 20.520 C 7.905 20.443,8.178 19.399,8.479 18.200 L 9.025 16.020 10.992 16.010 C 12.075 16.004,12.960 16.009,12.960 16.020 C 12.960 16.032,12.744 16.906,12.479 17.964 C 11.954 20.065,11.927 20.238,12.083 20.516 C 12.245 20.806,12.671 21.008,13.117 21.008 C 13.469 21.008,13.734 20.837,13.871 20.520 C 13.905 20.443,14.178 19.399,14.479 18.200 L 15.025 16.020 17.202 16.000 C 19.231 15.981,19.390 15.975,19.520 15.905 C 19.876 15.715,19.978 15.514,19.978 15.000 C 19.978 14.567,19.899 14.356,19.678 14.199 C 19.412 14.009,19.307 14.000,17.359 14.000 L 15.530 14.000 16.030 12.000 L 16.530 10.000 17.875 10.000 C 18.653 10.000,19.281 9.983,19.365 9.959 C 19.586 9.898,19.770 9.755,19.880 9.558 C 19.967 9.402,19.980 9.332,19.979 9.000 C 19.978 8.567,19.898 8.355,19.678 8.199 C 19.430 8.022,19.255 8.000,18.114 8.000 C 17.523 8.000,17.040 7.991,17.040 7.979 C 17.040 7.968,17.256 7.095,17.520 6.040 C 18.054 3.905,18.076 3.756,17.900 3.456 C 17.682 3.084,16.919 2.877,16.506 3.077 C 16.165 3.242,16.158 3.261,15.537 5.736 L 14.974 7.980 13.007 7.990 C 11.925 7.996,11.040 7.991,11.040 7.980 C 11.040 7.968,11.256 7.095,11.520 6.040 C 12.054 3.905,12.076 3.756,11.900 3.456 C 11.681 3.084,10.899 2.874,10.494 3.080 M13.970 12.000 L 13.470 14.000 11.500 14.000 L 9.530 14.000 10.030 12.000 L 10.530 10.000 12.500 10.000 L 14.470 10.000 13.970 12.000 " stroke="none" fill="black" fill-rule="evenodd"></path></svg>