<svg xmlns="http://www.w3.org/2000/svg" width="24" height="24" viewBox="0 0 24 24" fill="none" stroke="currentColor" stroke-width="2" stroke-linecap="round" stroke-linejoin="round" class="icon icon-tabler icons-tabler-outline icon-tabler-panorama-horizontal-off"><path d="M2.626 2.045 C 2.257 2.239,1.951 2.673,1.951 3.000 C 1.951 3.289,2.085 3.493,2.667 4.084 L 3.202 4.628 2.971 4.771 C 2.682 4.950,2.445 5.192,2.265 5.494 C 1.987 5.957,2.000 5.644,2.000 12.009 C 2.000 18.253,1.989 17.945,2.224 18.407 C 2.343 18.642,2.661 18.995,2.905 19.163 C 3.176 19.350,3.624 19.480,3.994 19.480 C 4.289 19.480,4.396 19.453,5.327 19.144 C 7.708 18.354,9.332 18.059,11.563 18.013 C 13.436 17.974,14.898 18.127,16.657 18.545 L 17.260 18.689 18.860 20.280 C 19.936 21.350,20.518 21.900,20.637 21.960 C 20.989 22.137,21.354 22.048,21.701 21.701 C 22.048 21.354,22.137 20.989,21.960 20.637 C 21.900 20.518,21.347 19.934,20.257 18.840 C 16.198 14.766,3.650 2.236,3.560 2.168 C 3.263 1.942,2.910 1.895,2.626 2.045 M19.583 4.525 C 19.497 4.545,19.029 4.695,18.543 4.857 C 16.947 5.392,15.743 5.665,14.120 5.859 C 13.461 5.939,12.089 5.993,11.340 5.970 C 10.639 5.948,10.464 5.982,10.238 6.187 C 9.986 6.414,9.882 6.951,10.009 7.373 C 10.072 7.585,10.299 7.819,10.500 7.879 C 10.764 7.957,11.842 7.993,12.797 7.956 C 14.968 7.870,16.914 7.510,19.040 6.800 C 19.491 6.649,19.892 6.514,19.930 6.499 C 19.996 6.473,20.000 6.744,20.000 11.846 C 20.000 15.323,20.015 17.271,20.041 17.365 C 20.148 17.750,20.437 17.962,20.896 17.991 C 21.381 18.022,21.699 17.882,21.880 17.558 L 21.980 17.380 21.991 11.829 C 22.000 6.926,21.994 6.247,21.939 6.010 C 21.700 4.977,20.603 4.286,19.583 4.525 M4.834 6.760 L 5.599 7.020 10.170 11.594 C 14.217 15.645,14.724 16.166,14.600 16.145 C 13.708 15.998,10.944 15.967,9.840 16.092 C 7.935 16.307,6.180 16.708,4.483 17.316 C 4.232 17.406,4.021 17.480,4.013 17.480 C 4.006 17.480,4.000 15.003,4.000 11.977 C 4.000 8.892,4.015 6.479,4.035 6.487 C 4.054 6.494,4.414 6.617,4.834 6.760 " stroke="none" fill="black" fill-rule="evenodd"></path></svg>