<svg xmlns="http://www.w3.org/2000/svg" width="24" height="24" viewBox="0 0 24 24" fill="none" stroke="currentColor" stroke-width="2" stroke-linecap="round" stroke-linejoin="round" class="icon icon-tabler icons-tabler-outline icon-tabler-list-details"><path d="M3.477 3.073 C 2.806 3.249,2.238 3.823,2.060 4.508 C 2.010 4.698,2.000 5.123,2.000 7.000 C 2.000 9.455,2.003 9.491,2.225 9.930 C 2.361 10.199,2.801 10.639,3.070 10.775 C 3.509 10.997,3.545 11.000,6.000 11.000 C 8.455 11.000,8.491 10.997,8.930 10.775 C 9.196 10.640,9.638 10.200,9.771 9.937 C 9.996 9.494,10.000 9.442,9.999 7.014 C 9.999 4.601,9.991 4.496,9.781 4.083 C 9.646 3.816,9.297 3.449,9.017 3.281 C 8.564 3.008,8.524 3.005,6.000 3.005 C 3.992 3.005,3.711 3.012,3.477 3.073 M12.614 4.057 C 12.377 4.131,12.212 4.261,12.109 4.453 C 12.035 4.592,12.020 4.684,12.020 5.000 C 12.020 5.331,12.033 5.403,12.120 5.558 C 12.230 5.755,12.414 5.898,12.635 5.959 C 12.833 6.014,21.167 6.014,21.365 5.959 C 21.586 5.898,21.770 5.755,21.880 5.558 C 21.967 5.402,21.980 5.332,21.979 5.000 C 21.978 4.567,21.898 4.355,21.678 4.199 C 21.393 3.996,21.487 4.000,16.984 4.003 C 13.651 4.005,12.746 4.016,12.614 4.057 M8.000 7.000 L 8.000 9.000 6.000 9.000 L 4.000 9.000 4.000 7.000 L 4.000 5.000 6.000 5.000 L 8.000 5.000 8.000 7.000 M12.614 8.057 C 12.377 8.131,12.212 8.261,12.109 8.453 C 12.035 8.592,12.020 8.684,12.020 9.000 C 12.020 9.331,12.033 9.403,12.120 9.558 C 12.230 9.755,12.414 9.898,12.635 9.959 C 12.832 10.014,18.168 10.014,18.365 9.959 C 18.586 9.898,18.770 9.755,18.880 9.558 C 18.967 9.402,18.980 9.332,18.979 9.000 C 18.978 8.567,18.898 8.355,18.678 8.199 C 18.401 8.002,18.373 8.000,15.484 8.003 C 13.382 8.005,12.743 8.017,12.614 8.057 M3.477 13.073 C 2.806 13.249,2.238 13.823,2.060 14.508 C 2.010 14.698,2.000 15.123,2.000 17.000 C 2.000 19.455,2.003 19.491,2.225 19.930 C 2.361 20.199,2.801 20.639,3.070 20.775 C 3.509 20.997,3.545 21.000,6.000 21.000 C 8.455 21.000,8.491 20.997,8.930 20.775 C 9.196 20.640,9.638 20.200,9.771 19.937 C 9.996 19.494,10.000 19.442,9.999 17.014 C 9.999 14.601,9.991 14.496,9.781 14.083 C 9.646 13.816,9.297 13.449,9.017 13.281 C 8.564 13.008,8.524 13.005,6.000 13.005 C 3.992 13.005,3.711 13.012,3.477 13.073 M12.614 14.057 C 12.377 14.131,12.212 14.261,12.109 14.453 C 12.035 14.592,12.020 14.684,12.020 15.000 C 12.020 15.331,12.033 15.403,12.120 15.558 C 12.230 15.755,12.414 15.898,12.635 15.959 C 12.833 16.014,21.167 16.014,21.365 15.959 C 21.586 15.898,21.770 15.755,21.880 15.558 C 21.967 15.402,21.980 15.332,21.979 15.000 C 21.978 14.567,21.898 14.355,21.678 14.199 C 21.393 13.996,21.487 14.000,16.984 14.003 C 13.651 14.005,12.746 14.016,12.614 14.057 M8.000 17.000 L 8.000 19.000 6.000 19.000 L 4.000 19.000 4.000 17.000 L 4.000 15.000 6.000 15.000 L 8.000 15.000 8.000 17.000 M12.614 18.057 C 12.377 18.131,12.212 18.261,12.109 18.453 C 12.035 18.592,12.020 18.684,12.020 19.000 C 12.020 19.331,12.033 19.403,12.120 19.558 C 12.230 19.755,12.414 19.898,12.635 19.959 C 12.832 20.014,18.168 20.014,18.365 19.959 C 18.586 19.898,18.770 19.755,18.880 19.558 C 18.967 19.402,18.980 19.332,18.979 19.000 C 18.978 18.567,18.898 18.355,18.678 18.199 C 18.401 18.002,18.373 18.000,15.484 18.003 C 13.382 18.005,12.743 18.017,12.614 18.057 " stroke="none" fill="black" fill-rule="evenodd"></path></svg>