<svg xmlns="http://www.w3.org/2000/svg" width="24" height="24" viewBox="0 0 24 24" fill="none" stroke="currentColor" stroke-width="2" stroke-linecap="round" stroke-linejoin="round" class="icon icon-tabler icons-tabler-outline icon-tabler-arrow-bar-left"><path d="M19.614 3.057 C 19.377 3.131,19.212 3.261,19.109 3.453 L 19.020 3.620 19.010 11.914 C 19.003 17.391,19.013 20.260,19.040 20.358 C 19.144 20.747,19.434 20.962,19.896 20.991 C 20.381 21.022,20.699 20.882,20.880 20.558 L 20.980 20.380 20.980 12.000 L 20.980 3.620 20.891 3.453 C 20.842 3.362,20.746 3.247,20.678 3.199 C 20.414 3.010,19.957 2.950,19.614 3.057 M7.620 7.046 C 7.525 7.095,6.652 7.932,5.460 9.118 C 4.360 10.213,3.399 11.150,3.325 11.200 C 3.147 11.322,2.945 11.747,2.945 12.000 C 2.945 12.237,3.148 12.681,3.304 12.785 C 3.366 12.826,4.327 13.763,5.439 14.866 C 6.818 16.234,7.516 16.899,7.637 16.960 C 7.989 17.137,8.354 17.048,8.701 16.701 C 9.048 16.354,9.137 15.989,8.960 15.637 C 8.901 15.521,8.452 15.039,7.647 14.230 L 6.423 13.000 10.321 13.000 C 12.810 13.000,14.272 12.985,14.365 12.959 C 14.586 12.898,14.770 12.755,14.880 12.558 C 14.967 12.402,14.980 12.332,14.979 12.000 C 14.978 11.567,14.898 11.355,14.678 11.199 C 14.395 10.997,14.461 11.000,10.305 11.000 L 6.423 11.000 7.647 9.770 C 8.452 8.961,8.901 8.479,8.960 8.363 C 9.137 8.011,9.048 7.646,8.701 7.299 C 8.361 6.959,7.967 6.867,7.620 7.046 " stroke="none" fill="black" fill-rule="evenodd"></path></svg>