<svg xmlns="http://www.w3.org/2000/svg" width="24" height="24" viewBox="0 0 24 24" fill="none" stroke="currentColor" stroke-width="2" stroke-linecap="round" stroke-linejoin="round" class="icon icon-tabler icons-tabler-outline icon-tabler-rectangular-prism-plus"><path d="M14.541 4.042 C 14.410 4.062,14.212 4.109,14.101 4.145 C 13.815 4.239,3.549 9.377,3.282 9.560 C 2.650 9.992,2.209 10.673,2.044 11.472 C 1.983 11.766,1.983 17.234,2.044 17.528 C 2.204 18.302,2.672 19.036,3.260 19.439 C 3.575 19.654,7.781 21.753,8.120 21.864 C 8.422 21.963,8.520 21.975,9.000 21.976 C 9.505 21.977,9.564 21.969,9.910 21.850 C 10.113 21.779,10.822 21.450,11.485 21.117 C 12.841 20.436,12.992 20.328,13.077 19.971 C 13.131 19.747,13.096 19.549,12.951 19.260 C 12.739 18.837,12.515 18.680,12.125 18.680 C 11.900 18.680,11.830 18.708,10.962 19.140 C 10.453 19.393,10.029 19.600,10.019 19.600 C 10.008 19.600,10.000 18.370,10.000 16.867 L 10.000 14.133 14.966 11.757 C 17.697 10.449,19.947 9.374,19.966 9.367 C 19.985 9.359,20.000 10.108,20.000 11.029 C 20.000 12.897,20.012 12.999,20.249 13.229 C 20.442 13.416,20.647 13.487,21.000 13.488 C 21.368 13.490,21.600 13.402,21.787 13.189 C 21.999 12.947,22.008 12.836,21.992 10.540 C 21.978 8.483,21.977 8.457,21.885 8.180 C 21.788 7.893,21.586 7.471,21.444 7.262 C 21.310 7.065,20.953 6.719,20.716 6.558 C 20.361 6.316,16.013 4.167,15.743 4.100 C 15.434 4.023,14.844 3.995,14.541 4.042 M16.988 6.886 C 17.917 7.356,18.664 7.752,18.648 7.767 C 18.633 7.782,16.454 8.830,13.806 10.096 L 8.992 12.398 7.175 11.572 C 6.175 11.118,5.372 10.734,5.389 10.718 C 5.455 10.658,14.540 6.105,14.696 6.054 C 15.076 5.930,15.155 5.959,16.988 6.886 M7.999 16.870 C 7.999 18.372,7.991 19.600,7.980 19.600 C 7.969 19.600,7.169 19.205,6.202 18.721 C 4.375 17.807,4.237 17.722,4.090 17.409 C 4.026 17.273,4.019 17.044,4.009 14.794 L 3.997 12.327 5.997 13.234 L 7.998 14.140 7.999 16.870 M18.614 15.057 C 18.377 15.131,18.212 15.261,18.109 15.453 C 18.024 15.613,18.020 15.668,18.008 16.810 L 17.996 18.000 16.904 18.000 C 15.744 18.000,15.570 18.022,15.322 18.199 C 15.100 18.357,15.020 18.568,15.020 19.000 C 15.020 19.331,15.033 19.403,15.120 19.558 C 15.230 19.755,15.414 19.898,15.635 19.959 C 15.716 19.982,16.270 20.000,16.890 20.000 L 18.000 20.000 18.000 21.110 C 18.000 21.730,18.018 22.284,18.041 22.365 C 18.148 22.750,18.437 22.962,18.896 22.991 C 19.381 23.022,19.699 22.882,19.880 22.558 C 19.979 22.381,19.980 22.374,19.993 21.190 L 20.005 20.000 21.113 20.000 C 21.731 20.000,22.284 19.982,22.365 19.959 C 22.586 19.898,22.770 19.755,22.880 19.558 C 22.967 19.402,22.980 19.332,22.979 19.000 C 22.978 18.567,22.898 18.355,22.678 18.199 C 22.430 18.022,22.256 18.000,21.096 18.000 L 20.005 18.000 19.993 16.810 C 19.981 15.669,19.976 15.613,19.891 15.453 C 19.842 15.362,19.746 15.247,19.678 15.199 C 19.414 15.010,18.957 14.950,18.614 15.057 " stroke="none" fill="black" fill-rule="evenodd"></path></svg>