<svg xmlns="http://www.w3.org/2000/svg" width="24" height="24" viewBox="0 0 24 24" fill="none" stroke="currentColor" stroke-width="2" stroke-linecap="round" stroke-linejoin="round" class="icon icon-tabler icons-tabler-outline icon-tabler-world"><path d="M11.040 2.026 C 10.919 2.052,10.577 2.113,10.280 2.161 C 8.709 2.415,7.156 3.106,5.800 4.154 C 5.005 4.769,4.015 5.884,3.470 6.780 C 2.106 9.020,1.666 11.743,2.260 14.260 C 2.697 16.112,3.581 17.701,4.919 19.042 C 6.513 20.640,8.293 21.530,10.680 21.922 C 11.386 22.038,12.614 22.038,13.320 21.922 C 15.269 21.602,16.740 20.976,18.200 19.847 C 18.637 19.509,19.509 18.637,19.847 18.200 C 20.959 16.762,21.624 15.214,21.907 13.400 C 22.008 12.753,22.008 11.247,21.907 10.600 C 21.624 8.786,20.959 7.238,19.847 5.800 C 19.510 5.365,18.639 4.494,18.200 4.154 C 16.873 3.127,15.374 2.450,13.825 2.179 C 13.514 2.125,13.152 2.060,13.020 2.036 C 12.689 1.974,11.315 1.968,11.040 2.026 M12.291 4.670 C 12.765 5.591,13.104 6.429,13.398 7.403 C 13.487 7.698,13.560 7.954,13.560 7.970 C 13.560 7.987,12.858 8.000,12.000 8.000 C 11.142 8.000,10.440 7.987,10.440 7.970 C 10.440 7.909,10.759 6.887,10.896 6.508 C 11.169 5.754,11.918 4.160,12.000 4.160 C 12.016 4.160,12.147 4.389,12.291 4.670 M9.356 4.964 C 9.079 5.618,8.615 6.993,8.480 7.560 C 8.430 7.769,8.377 7.954,8.362 7.970 C 8.347 7.987,7.601 7.996,6.704 7.990 L 5.073 7.980 5.309 7.620 C 6.230 6.219,7.619 5.105,9.176 4.518 C 9.398 4.434,9.584 4.371,9.590 4.376 C 9.596 4.382,9.491 4.647,9.356 4.964 M15.500 4.818 C 16.799 5.451,17.903 6.420,18.691 7.620 L 18.927 7.980 17.296 7.990 C 16.399 7.996,15.653 7.987,15.638 7.970 C 15.623 7.954,15.570 7.769,15.520 7.560 C 15.383 6.983,14.919 5.609,14.645 4.969 C 14.510 4.656,14.400 4.391,14.400 4.380 C 14.400 4.337,15.017 4.583,15.500 4.818 M8.021 10.090 C 7.981 10.271,7.920 11.422,7.920 12.000 C 7.920 12.578,7.981 13.729,8.021 13.910 L 8.042 14.000 6.144 14.000 L 4.247 14.000 4.202 13.793 C 4.058 13.123,4.026 12.793,4.026 12.000 C 4.026 11.207,4.058 10.877,4.202 10.207 L 4.247 10.000 6.144 10.000 L 8.042 10.000 8.021 10.090 M13.973 10.190 C 14.062 10.918,14.093 12.040,14.046 12.810 C 14.018 13.256,13.986 13.706,13.973 13.810 L 13.950 14.000 12.000 14.000 L 10.050 14.000 10.027 13.810 C 9.938 13.082,9.907 11.960,9.954 11.190 C 9.982 10.745,10.014 10.295,10.027 10.190 L 10.050 10.000 12.000 10.000 L 13.950 10.000 13.973 10.190 M19.798 10.207 C 19.942 10.877,19.974 11.207,19.974 12.000 C 19.974 12.793,19.942 13.123,19.798 13.793 L 19.753 14.000 17.856 14.000 L 15.958 14.000 15.979 13.910 C 16.019 13.729,16.080 12.578,16.080 12.000 C 16.080 11.422,16.019 10.271,15.979 10.090 L 15.958 10.000 17.856 10.000 L 19.753 10.000 19.798 10.207 M8.507 16.540 C 8.687 17.240,9.060 18.334,9.357 19.036 C 9.491 19.353,9.596 19.618,9.590 19.624 C 9.584 19.629,9.399 19.566,9.180 19.483 C 7.878 18.991,6.760 18.192,5.855 17.110 C 5.582 16.783,5.235 16.299,5.125 16.090 L 5.077 15.999 6.725 16.010 L 8.373 16.020 8.507 16.540 M13.560 16.030 C 13.560 16.105,13.218 17.181,13.062 17.597 C 12.760 18.403,12.079 19.840,12.000 19.840 C 11.918 19.840,11.169 18.246,10.896 17.492 C 10.759 17.113,10.440 16.091,10.440 16.030 C 10.440 16.014,11.142 16.000,12.000 16.000 C 12.858 16.000,13.560 16.014,13.560 16.030 M18.875 16.090 C 18.765 16.299,18.418 16.784,18.145 17.110 C 17.427 17.968,16.564 18.658,15.600 19.141 C 15.235 19.324,14.434 19.648,14.409 19.622 C 14.402 19.615,14.507 19.351,14.642 19.035 C 14.923 18.378,15.345 17.139,15.499 16.520 C 15.556 16.289,15.611 16.078,15.620 16.050 C 15.634 16.011,16.002 16.000,17.280 16.000 L 18.923 16.000 18.875 16.090 " stroke="none" fill="black" fill-rule="evenodd"></path></svg>