<svg xmlns="http://www.w3.org/2000/svg" width="24" height="24" viewBox="0 0 24 24" fill="none" stroke="currentColor" stroke-width="2" stroke-linecap="round" stroke-linejoin="round" class="icon icon-tabler icons-tabler-outline icon-tabler-toilet-paper"><path d="M5.477 2.061 C 3.421 2.563,2.000 5.807,2.000 10.000 C 2.000 14.052,3.347 17.273,5.300 17.891 C 5.693 18.016,6.307 18.016,6.700 17.891 C 7.061 17.777,7.425 17.559,7.745 17.266 L 8.000 17.033 8.000 18.589 C 8.000 20.344,8.005 20.378,8.288 20.699 C 8.595 21.048,8.950 21.130,9.340 20.943 C 9.450 20.890,10.062 20.497,10.700 20.068 L 11.860 19.289 13.180 20.599 C 14.345 21.755,14.523 21.916,14.697 21.974 C 14.927 22.051,15.006 22.055,15.213 21.997 C 15.297 21.974,15.989 21.539,16.752 21.031 L 18.139 20.108 19.483 20.554 C 20.873 21.015,21.037 21.050,21.365 20.959 C 21.586 20.898,21.770 20.755,21.880 20.558 L 21.980 20.380 21.992 14.920 C 22.001 11.284,21.990 9.246,21.961 8.820 C 21.778 6.124,20.977 3.890,19.796 2.785 C 19.440 2.452,19.161 2.276,18.753 2.127 L 18.460 2.020 12.080 2.013 C 6.811 2.007,5.661 2.016,5.477 2.061 M6.183 4.051 C 6.842 4.436,7.479 5.792,7.774 7.440 C 7.945 8.392,7.978 8.825,7.976 10.040 C 7.973 11.269,7.928 11.789,7.738 12.764 C 7.388 14.562,6.496 16.133,5.908 15.986 C 5.548 15.895,5.002 15.117,4.668 14.220 C 4.399 13.498,4.184 12.528,4.072 11.540 C 4.008 10.970,4.008 9.030,4.072 8.460 C 4.266 6.745,4.755 5.221,5.347 4.493 C 5.710 4.046,5.954 3.918,6.183 4.051 M18.183 4.051 C 18.814 4.419,19.438 5.704,19.743 7.264 C 19.977 8.460,19.972 8.326,19.989 13.675 C 20.002 17.721,19.995 18.607,19.952 18.591 C 19.923 18.580,19.511 18.442,19.035 18.285 C 18.172 18.001,17.984 17.966,17.720 18.040 C 17.643 18.061,17.031 18.446,16.360 18.895 L 15.140 19.711 13.840 18.422 C 13.006 17.596,12.483 17.107,12.380 17.059 C 12.163 16.957,11.828 16.963,11.620 17.072 C 11.532 17.118,11.136 17.372,10.740 17.638 L 10.020 18.120 9.997 13.350 C 9.971 8.238,9.976 8.346,9.758 7.120 C 9.574 6.086,9.245 5.044,8.859 4.278 L 8.719 4.000 13.409 4.001 C 17.014 4.003,18.119 4.014,18.183 4.051 M5.614 9.055 C 5.220 9.184,5.039 9.437,5.009 9.900 C 4.978 10.381,5.119 10.699,5.442 10.880 C 5.597 10.967,5.669 10.980,6.000 10.980 C 6.312 10.980,6.408 10.964,6.540 10.894 C 6.866 10.718,7.000 10.459,7.000 10.000 C 7.000 9.357,6.713 9.048,6.083 9.016 C 5.893 9.006,5.718 9.021,5.614 9.055 " stroke="none" fill="black" fill-rule="evenodd"></path></svg>