<svg xmlns="http://www.w3.org/2000/svg" width="24" height="24" viewBox="0 0 24 24" fill="none" stroke="currentColor" stroke-width="2" stroke-linecap="round" stroke-linejoin="round" class="icon icon-tabler icons-tabler-outline icon-tabler-heart-cancel"><path d="M7.360 3.026 C 6.162 3.208,5.471 3.463,4.598 4.045 C 4.166 4.333,3.397 5.077,3.113 5.480 C 2.372 6.534,1.996 7.723,1.998 9.000 C 2.002 10.483,2.516 11.856,3.469 12.924 C 3.618 13.091,4.856 14.332,6.220 15.682 C 7.584 17.032,9.321 18.751,10.080 19.504 C 10.993 20.408,11.520 20.901,11.637 20.960 C 11.989 21.137,12.354 21.048,12.701 20.701 C 13.048 20.354,13.137 19.989,12.960 19.637 C 12.877 19.474,11.288 17.880,6.105 12.762 C 5.056 11.726,4.734 11.361,4.500 10.943 C 3.870 9.817,3.837 8.356,4.415 7.212 C 4.639 6.769,4.809 6.532,5.150 6.186 C 5.969 5.355,6.989 4.959,8.180 5.011 C 9.402 5.065,10.316 5.550,11.233 6.631 C 11.599 7.062,11.944 7.155,12.382 6.941 C 12.551 6.858,12.678 6.746,12.917 6.466 C 13.485 5.802,14.160 5.367,14.945 5.161 C 17.150 4.581,19.340 5.887,19.887 8.108 C 20.012 8.614,20.011 9.440,19.885 9.929 C 19.738 10.502,19.581 10.840,19.203 11.396 C 18.835 11.938,18.849 12.294,19.252 12.688 C 19.433 12.865,19.841 13.080,19.995 13.080 C 20.307 13.080,20.604 12.877,20.902 12.459 C 21.380 11.789,21.731 10.951,21.906 10.060 C 22.011 9.525,22.001 8.399,21.886 7.866 C 21.600 6.549,21.012 5.496,20.076 4.626 C 18.021 2.717,14.972 2.485,12.630 4.059 C 12.448 4.181,12.234 4.336,12.154 4.404 L 12.008 4.527 11.774 4.337 C 10.963 3.676,9.926 3.220,8.860 3.057 C 8.535 3.007,7.611 2.988,7.360 3.026 M18.358 15.061 C 17.230 15.237,16.143 15.974,15.569 16.953 C 14.320 19.083,15.233 21.785,17.512 22.704 C 19.558 23.528,21.877 22.538,22.704 20.488 C 23.090 19.530,23.090 18.469,22.705 17.516 C 22.172 16.197,21.001 15.269,19.605 15.058 C 19.144 14.989,18.816 14.990,18.358 15.061 M19.470 17.057 C 19.485 17.071,18.954 17.626,18.290 18.290 C 17.626 18.954,17.072 19.486,17.059 19.472 C 17.045 19.459,17.024 19.314,17.012 19.150 C 16.940 18.202,17.563 17.318,18.477 17.071 C 18.735 17.001,19.405 16.991,19.470 17.057 M20.982 18.784 C 21.047 19.396,20.844 19.961,20.398 20.410 C 20.104 20.705,19.779 20.885,19.404 20.963 C 19.181 21.010,18.584 20.997,18.532 20.945 C 18.504 20.918,20.872 18.520,20.927 18.520 C 20.941 18.520,20.966 18.639,20.982 18.784 " stroke="none" fill="black" fill-rule="evenodd"></path></svg>