<svg xmlns="http://www.w3.org/2000/svg" width="24" height="24" viewBox="0 0 24 24" fill="none" stroke="currentColor" stroke-width="2" stroke-linecap="round" stroke-linejoin="round" class="icon icon-tabler icons-tabler-outline icon-tabler-wall-off"><path d="M2.626 2.045 C 2.257 2.239,1.951 2.673,1.951 3.000 C 1.951 3.293,2.085 3.492,2.702 4.120 L 3.273 4.700 3.146 5.060 L 3.020 5.420 3.020 11.980 L 3.020 18.540 3.114 18.840 C 3.422 19.827,4.173 20.578,5.160 20.886 L 5.460 20.980 12.020 20.980 L 18.580 20.980 18.940 20.854 L 19.300 20.727 19.880 21.298 C 20.205 21.617,20.538 21.908,20.637 21.959 C 20.988 22.137,21.353 22.049,21.701 21.701 C 22.048 21.354,22.137 20.990,21.960 20.637 C 21.887 20.492,19.510 18.054,16.747 15.293 C 14.425 12.971,12.838 11.384,12.760 11.306 C 12.705 11.250,11.805 10.350,10.760 9.306 C 9.715 8.261,8.815 7.361,8.760 7.305 C 8.705 7.250,7.508 6.062,6.100 4.667 C 4.415 2.996,3.482 2.100,3.372 2.044 C 3.152 1.934,2.835 1.935,2.626 2.045 M7.614 3.057 C 7.223 3.180,7.039 3.436,7.009 3.900 C 6.969 4.530,7.252 4.923,7.792 4.987 L 7.990 5.010 8.013 5.208 C 8.074 5.715,8.428 6.000,9.000 6.000 C 9.574 6.000,9.919 5.723,9.983 5.210 L 10.009 5.000 14.057 5.000 C 18.634 5.000,18.377 4.983,18.697 5.303 C 18.948 5.554,19.000 5.751,19.000 6.447 L 19.000 7.000 15.406 7.000 C 11.561 7.000,11.604 6.998,11.322 7.199 C 11.100 7.357,11.020 7.568,11.020 8.000 C 11.020 8.331,11.033 8.403,11.120 8.558 C 11.230 8.755,11.414 8.898,11.635 8.959 C 11.715 8.981,12.055 9.000,12.390 9.000 L 13.000 9.000 13.000 9.610 C 13.000 9.945,13.019 10.285,13.041 10.365 C 13.148 10.750,13.437 10.962,13.896 10.991 C 14.381 11.022,14.699 10.882,14.880 10.558 C 14.974 10.391,14.981 10.338,14.994 9.690 L 15.008 9.000 17.004 9.000 L 19.000 9.000 19.000 10.000 L 19.000 11.000 17.406 11.000 C 15.710 11.000,15.584 11.012,15.322 11.199 C 15.100 11.357,15.020 11.568,15.020 12.000 C 15.020 12.331,15.033 12.403,15.120 12.558 C 15.230 12.755,15.414 12.898,15.635 12.959 C 15.721 12.983,16.435 13.000,17.390 13.000 L 19.000 13.000 19.000 14.610 C 19.000 15.565,19.017 16.279,19.041 16.365 C 19.148 16.750,19.437 16.962,19.896 16.991 C 20.381 17.022,20.699 16.882,20.880 16.558 L 20.980 16.380 20.980 10.920 L 20.980 5.460 20.886 5.160 C 20.581 4.182,19.832 3.428,18.861 3.121 L 18.540 3.020 13.160 3.012 C 8.811 3.006,7.748 3.014,7.614 3.057 M5.300 6.720 L 5.578 7.000 5.289 7.000 L 5.000 7.000 5.000 6.720 C 5.000 6.566,5.005 6.440,5.011 6.440 C 5.017 6.440,5.147 6.566,5.300 6.720 M8.580 10.000 L 9.579 11.000 7.290 11.000 L 5.000 11.000 5.000 10.000 L 5.000 9.000 6.290 9.000 L 7.581 9.000 8.580 10.000 M7.000 14.000 L 7.000 15.000 6.000 15.000 L 5.000 15.000 5.000 14.000 L 5.000 13.000 6.000 13.000 L 7.000 13.000 7.000 14.000 M12.580 14.000 L 13.579 15.000 11.290 15.000 L 9.000 15.000 9.000 14.000 L 9.000 13.000 10.290 13.000 L 11.581 13.000 12.580 14.000 M10.000 18.001 L 10.000 19.003 7.850 18.991 L 5.700 18.980 5.516 18.872 C 5.415 18.813,5.284 18.700,5.225 18.623 C 5.038 18.377,5.000 18.202,5.000 17.575 L 5.000 17.000 7.500 17.000 L 10.000 17.000 10.000 18.001 M16.580 18.000 L 17.579 19.000 14.790 19.000 L 12.000 19.000 12.000 18.000 L 12.000 17.000 13.790 17.000 L 15.581 17.000 16.580 18.000 " stroke="none" fill="black" fill-rule="evenodd"></path></svg>