<svg xmlns="http://www.w3.org/2000/svg" width="24" height="24" viewBox="0 0 24 24" fill="none" stroke="currentColor" stroke-width="2" stroke-linecap="round" stroke-linejoin="round" class="icon icon-tabler icons-tabler-outline icon-tabler-route-2"><path d="M18.499 2.040 C 17.363 2.246,16.460 3.049,16.114 4.160 C 15.979 4.594,15.979 5.406,16.114 5.840 C 16.421 6.826,17.174 7.579,18.160 7.886 C 18.594 8.021,19.406 8.021,19.840 7.886 C 20.826 7.579,21.579 6.826,21.886 5.840 C 22.021 5.406,22.021 4.594,21.886 4.160 C 21.581 3.179,20.810 2.407,19.861 2.129 C 19.500 2.023,18.832 1.980,18.499 2.040 M13.499 4.043 C 12.393 4.228,11.488 5.024,11.114 6.140 L 11.020 6.420 11.000 11.840 C 10.979 17.645,10.990 17.340,10.774 17.625 C 10.599 17.853,10.374 17.959,9.976 18.000 C 9.248 18.076,8.964 18.399,9.009 19.104 C 9.039 19.572,9.251 19.854,9.656 19.965 C 9.887 20.028,10.521 19.982,10.860 19.878 C 11.801 19.589,12.545 18.854,12.875 17.887 L 12.980 17.580 13.000 12.160 C 13.022 6.120,12.997 6.605,13.301 6.301 C 13.497 6.106,13.660 6.041,14.062 6.000 C 14.535 5.951,14.738 5.836,14.904 5.520 C 15.018 5.305,15.009 4.679,14.890 4.453 C 14.687 4.070,14.198 3.926,13.499 4.043 M19.310 4.061 C 19.688 4.173,20.000 4.598,20.000 5.001 C 20.000 5.331,19.784 5.696,19.484 5.872 C 19.328 5.963,19.254 5.980,19.000 5.980 C 18.746 5.980,18.672 5.963,18.516 5.872 C 17.935 5.530,17.833 4.774,18.304 4.303 C 18.583 4.024,18.916 3.944,19.310 4.061 M4.499 16.040 C 3.363 16.246,2.460 17.049,2.114 18.160 C 1.979 18.594,1.979 19.406,2.114 19.840 C 2.421 20.826,3.174 21.579,4.160 21.886 C 4.412 21.964,4.547 21.979,5.000 21.979 C 5.453 21.979,5.588 21.964,5.840 21.886 C 6.826 21.579,7.579 20.826,7.886 19.840 C 8.021 19.406,8.021 18.594,7.886 18.160 C 7.581 17.179,6.810 16.407,5.861 16.129 C 5.500 16.023,4.832 15.980,4.499 16.040 M5.310 18.061 C 5.688 18.173,6.000 18.598,6.000 19.001 C 6.000 19.331,5.784 19.696,5.484 19.872 C 5.328 19.963,5.254 19.980,5.000 19.980 C 4.746 19.980,4.672 19.963,4.516 19.872 C 3.935 19.530,3.833 18.774,4.304 18.303 C 4.583 18.024,4.916 17.944,5.310 18.061 " stroke="none" fill="black" fill-rule="evenodd"></path></svg>