<svg xmlns="http://www.w3.org/2000/svg" width="24" height="24" viewBox="0 0 24 24" fill="none" stroke="currentColor" stroke-width="2" stroke-linecap="round" stroke-linejoin="round" class="icon icon-tabler icons-tabler-outline icon-tabler-brand-surfshark"><path d="M11.520 2.043 C 9.131 2.195,7.668 2.838,6.672 4.175 C 5.847 5.282,5.525 6.233,4.440 10.760 C 3.331 15.385,3.000 17.176,3.000 18.561 C 3.000 19.472,3.097 19.984,3.385 20.588 C 3.909 21.690,5.081 22.171,6.675 21.938 C 7.913 21.757,9.634 21.196,12.000 20.201 C 17.913 17.714,20.039 16.088,20.736 13.520 C 20.982 12.614,21.035 11.697,20.964 9.600 C 20.853 6.336,20.758 5.297,20.497 4.500 C 20.042 3.108,19.110 2.452,17.260 2.223 C 15.920 2.057,12.829 1.960,11.520 2.043 M15.280 4.080 C 17.425 4.188,18.165 4.341,18.427 4.731 C 18.643 5.051,18.760 5.691,18.839 6.980 C 18.981 9.313,19.012 11.935,18.903 12.540 C 18.638 14.011,17.873 14.922,15.910 16.103 C 13.919 17.301,9.297 19.270,7.295 19.773 C 6.149 20.061,5.447 20.074,5.239 19.809 C 4.893 19.370,4.940 17.869,5.365 15.740 C 5.814 13.495,7.101 8.177,7.457 7.100 C 8.104 5.140,8.828 4.456,10.567 4.162 C 10.838 4.116,11.285 4.062,11.560 4.042 C 12.126 4.000,14.112 4.020,15.280 4.080 M14.900 6.046 C 14.746 6.065,14.485 6.118,14.320 6.163 C 12.702 6.605,11.545 7.746,11.118 9.321 C 11.032 9.641,11.025 9.756,11.000 11.380 C 10.976 13.004,10.969 13.115,10.887 13.366 C 10.775 13.705,10.452 14.158,10.140 14.413 C 9.635 14.826,9.078 15.000,8.263 15.000 C 7.589 15.000,7.288 15.118,7.109 15.453 C 7.035 15.592,7.020 15.684,7.020 16.000 C 7.020 16.331,7.033 16.403,7.120 16.558 C 7.230 16.755,7.414 16.898,7.635 16.959 C 7.851 17.019,8.769 17.008,9.187 16.940 C 10.279 16.763,11.200 16.265,11.914 15.465 C 12.375 14.950,12.688 14.367,12.869 13.688 C 12.971 13.308,12.974 13.267,12.998 11.580 C 13.021 9.991,13.029 9.843,13.103 9.635 C 13.385 8.850,14.136 8.218,14.974 8.059 C 15.146 8.027,15.497 8.000,15.754 8.000 C 16.440 7.999,16.687 7.903,16.880 7.558 C 16.967 7.402,16.980 7.332,16.979 7.000 C 16.978 6.687,16.962 6.591,16.890 6.453 C 16.707 6.107,16.413 5.998,15.684 6.005 C 15.407 6.008,15.054 6.026,14.900 6.046 " stroke="none" fill="black" fill-rule="evenodd"></path></svg>