<svg xmlns="http://www.w3.org/2000/svg" width="24" height="24" viewBox="0 0 24 24" fill="none" stroke="currentColor" stroke-width="2" stroke-linecap="round" stroke-linejoin="round" class="icon icon-tabler icons-tabler-outline icon-tabler-bomb"><path d="M19.477 2.073 C 19.130 2.164,18.802 2.366,18.535 2.653 C 18.179 3.036,18.055 3.338,17.997 3.960 C 17.944 4.534,17.837 4.748,17.363 5.218 L 17.003 5.575 16.391 4.977 C 15.875 4.471,15.733 4.355,15.480 4.232 C 14.843 3.922,14.154 3.922,13.520 4.232 C 13.289 4.346,13.123 4.474,12.793 4.792 L 12.365 5.206 12.032 5.144 C 10.425 4.846,8.703 5.037,7.180 5.683 C 4.975 6.618,3.246 8.469,2.474 10.720 C 2.140 11.694,2.024 12.412,2.023 13.500 C 2.022 14.370,2.067 14.771,2.245 15.500 C 3.154 19.215,6.387 21.845,10.220 21.986 C 13.656 22.113,16.857 20.105,18.267 16.940 C 18.541 16.326,18.759 15.592,18.905 14.800 C 19.015 14.202,19.005 12.737,18.887 12.106 L 18.798 11.633 19.209 11.204 C 19.491 10.910,19.661 10.693,19.750 10.517 C 20.084 9.850,20.085 9.164,19.752 8.480 C 19.652 8.274,19.500 8.093,19.026 7.609 L 18.426 6.999 18.805 6.609 C 19.013 6.395,19.241 6.147,19.310 6.057 C 19.655 5.611,19.930 4.893,19.984 4.302 L 20.011 4.000 20.616 4.000 C 20.948 4.000,21.285 3.981,21.365 3.959 C 21.586 3.898,21.770 3.755,21.880 3.558 C 21.967 3.402,21.980 3.332,21.979 3.000 C 21.978 2.687,21.962 2.591,21.890 2.453 C 21.786 2.256,21.623 2.131,21.371 2.055 C 21.091 1.971,19.822 1.983,19.477 2.073 M16.290 7.710 C 17.413 8.833,18.000 9.447,18.000 9.500 C 18.000 9.551,17.790 9.789,17.436 10.141 C 16.638 10.931,16.586 11.066,16.776 11.833 C 16.959 12.571,16.980 12.754,16.977 13.540 C 16.974 14.165,16.958 14.375,16.885 14.720 C 16.498 16.542,15.535 17.966,14.016 18.961 C 13.064 19.584,11.952 19.939,10.800 19.986 C 8.445 20.083,6.316 18.979,5.022 16.989 C 3.992 15.406,3.722 13.252,4.327 11.460 C 4.784 10.108,5.720 8.872,6.859 8.116 C 8.450 7.059,10.294 6.747,12.155 7.219 C 12.928 7.415,13.033 7.375,13.835 6.580 C 14.191 6.228,14.451 6.001,14.500 6.001 C 14.552 6.000,15.168 6.588,16.290 7.710 M9.358 9.061 C 7.731 9.315,6.417 10.584,6.083 12.227 C 5.847 13.381,6.105 13.941,6.896 13.991 C 7.375 14.021,7.700 13.881,7.871 13.572 C 7.938 13.450,7.972 13.297,8.000 12.993 C 8.046 12.476,8.117 12.238,8.314 11.937 C 8.703 11.344,9.324 11.000,10.008 11.000 C 10.428 10.999,10.714 10.854,10.880 10.558 C 10.967 10.402,10.980 10.332,10.979 10.000 C 10.978 9.687,10.962 9.591,10.890 9.453 C 10.674 9.045,10.216 8.927,9.358 9.061 " stroke="none" fill="black" fill-rule="evenodd"></path></svg>