<svg xmlns="http://www.w3.org/2000/svg" width="24" height="24" viewBox="0 0 24 24" fill="none" stroke="currentColor" stroke-width="2" stroke-linecap="round" stroke-linejoin="round" class="icon icon-tabler icons-tabler-outline icon-tabler-heart-handshake"><path d="M7.360 3.026 C 6.162 3.208,5.471 3.463,4.598 4.045 C 4.166 4.333,3.397 5.077,3.113 5.480 C 2.372 6.534,1.996 7.723,1.998 9.000 C 2.002 10.483,2.516 11.856,3.469 12.924 C 3.618 13.091,4.856 14.332,6.220 15.682 C 7.584 17.032,9.321 18.751,10.080 19.504 C 10.948 20.364,11.522 20.902,11.628 20.955 C 11.851 21.067,12.150 21.067,12.372 20.955 C 12.478 20.902,13.073 20.342,13.980 19.444 C 19.359 14.116,20.604 12.869,20.786 12.625 C 21.740 11.345,22.165 9.701,21.937 8.169 C 21.570 5.694,19.710 3.683,17.308 3.164 C 15.509 2.775,13.677 3.197,12.252 4.327 L 12.004 4.524 11.772 4.335 C 10.964 3.676,9.925 3.220,8.860 3.057 C 8.535 3.007,7.611 2.988,7.360 3.026 M8.781 5.076 C 9.380 5.199,9.973 5.467,10.405 5.807 L 10.608 5.968 9.172 7.414 C 7.828 8.767,7.727 8.878,7.609 9.141 C 7.345 9.726,7.350 10.311,7.626 10.888 C 7.744 11.135,7.847 11.260,8.293 11.702 C 8.867 12.272,9.129 12.454,9.620 12.626 C 9.912 12.729,9.989 12.739,10.500 12.739 C 11.011 12.739,11.088 12.729,11.380 12.626 C 11.901 12.443,12.123 12.280,12.960 11.459 C 13.638 10.794,13.779 10.674,14.040 10.546 C 14.640 10.252,15.357 10.251,15.960 10.545 C 16.229 10.677,16.355 10.786,17.191 11.615 L 18.122 12.538 17.582 13.078 L 17.042 13.618 16.291 12.874 C 15.862 12.450,15.468 12.094,15.372 12.045 C 15.021 11.868,14.640 11.958,14.299 12.299 C 13.952 12.646,13.863 13.012,14.041 13.363 C 14.095 13.469,14.422 13.835,14.864 14.281 L 15.598 15.023 15.060 15.560 L 14.522 16.097 13.771 15.356 C 13.337 14.928,12.952 14.582,12.860 14.538 C 12.652 14.438,12.346 14.439,12.140 14.540 C 11.926 14.644,11.614 14.961,11.519 15.170 C 11.476 15.264,11.442 15.412,11.442 15.500 C 11.442 15.804,11.564 15.975,12.349 16.767 L 13.095 17.520 12.562 18.030 C 12.269 18.310,12.016 18.545,12.000 18.551 C 11.955 18.570,5.022 11.687,4.818 11.422 C 3.901 10.229,3.740 8.547,4.415 7.212 C 4.639 6.769,4.809 6.532,5.150 6.186 C 5.743 5.584,6.514 5.179,7.321 5.046 C 7.710 4.981,8.392 4.995,8.781 5.076 M16.820 5.107 C 18.290 5.392,19.506 6.564,19.861 8.036 C 20.071 8.908,20.011 9.734,19.678 10.560 C 19.461 11.098,19.565 11.137,18.550 10.135 C 17.919 9.512,17.561 9.191,17.320 9.033 C 16.098 8.229,14.653 8.105,13.300 8.688 C 12.790 8.908,12.380 9.218,11.640 9.944 C 11.255 10.321,10.882 10.659,10.812 10.695 C 10.652 10.777,10.352 10.779,10.185 10.700 C 10.115 10.666,9.914 10.495,9.739 10.319 L 9.422 10.000 11.161 8.250 C 12.117 7.287,12.976 6.407,13.069 6.294 C 13.434 5.848,14.268 5.339,14.927 5.160 C 15.531 4.996,16.159 4.978,16.820 5.107 " stroke="none" fill="black" fill-rule="evenodd"></path></svg>