<svg xmlns="http://www.w3.org/2000/svg" width="24" height="24" viewBox="0 0 24 24" fill="none" stroke="currentColor" stroke-width="2" stroke-linecap="round" stroke-linejoin="round" class="icon icon-tabler icons-tabler-outline icon-tabler-scoreboard"><path d="M6.614 2.057 C 6.377 2.131,6.212 2.261,6.109 2.453 C 6.029 2.603,6.019 2.689,6.007 3.305 L 5.994 3.991 5.227 4.010 C 4.567 4.027,4.415 4.043,4.139 4.126 C 3.181 4.415,2.420 5.179,2.114 6.160 L 2.020 6.460 2.020 12.000 L 2.020 17.540 2.114 17.840 C 2.422 18.827,3.173 19.578,4.160 19.886 L 4.460 19.980 12.000 19.980 L 19.540 19.980 19.840 19.886 C 20.827 19.578,21.578 18.827,21.886 17.840 L 21.980 17.540 21.980 12.000 L 21.980 6.460 21.886 6.160 C 21.580 5.179,20.819 4.415,19.861 4.126 C 19.585 4.043,19.433 4.027,18.774 4.010 L 18.008 3.991 17.993 3.305 C 17.975 2.524,17.927 2.364,17.649 2.182 C 17.199 1.887,16.426 1.979,16.170 2.358 C 16.029 2.568,16.000 2.739,16.000 3.390 L 16.000 4.000 12.004 4.000 L 8.008 4.000 7.993 3.310 C 7.976 2.541,7.930 2.378,7.678 2.199 C 7.414 2.010,6.957 1.950,6.614 2.057 M11.000 6.610 C 11.000 6.946,11.019 7.285,11.041 7.365 C 11.148 7.750,11.437 7.962,11.896 7.991 C 12.381 8.022,12.699 7.882,12.880 7.558 C 12.974 7.391,12.981 7.338,12.994 6.690 L 13.008 6.000 16.057 6.000 C 19.518 6.000,19.382 5.989,19.697 6.303 C 20.020 6.627,20.000 6.243,20.000 12.001 C 20.000 16.212,19.990 17.139,19.945 17.290 C 19.872 17.533,19.707 17.740,19.484 17.872 L 19.300 17.980 16.155 17.991 L 13.011 18.002 12.983 17.795 C 12.915 17.284,12.564 17.000,12.000 17.000 C 11.436 17.000,11.072 17.296,11.012 17.804 L 10.989 18.002 7.844 17.991 L 4.700 17.980 4.516 17.872 C 4.415 17.813,4.284 17.700,4.225 17.623 C 3.988 17.312,4.000 17.608,4.000 12.022 C 4.000 6.240,3.979 6.627,4.304 6.303 C 4.613 5.994,4.464 6.006,7.930 6.003 L 11.000 6.000 11.000 6.610 M5.614 8.057 C 5.377 8.131,5.212 8.261,5.109 8.453 C 5.035 8.592,5.020 8.684,5.020 9.000 C 5.020 9.331,5.033 9.403,5.120 9.558 C 5.230 9.755,5.414 9.898,5.635 9.959 C 5.715 9.981,6.194 10.000,6.700 10.000 C 7.542 10.000,7.631 10.007,7.748 10.078 C 7.991 10.226,8.065 10.513,7.922 10.748 C 7.798 10.951,7.659 11.000,7.208 11.000 C 6.593 11.000,6.283 11.128,6.109 11.453 C 6.035 11.592,6.020 11.684,6.020 12.000 C 6.020 12.331,6.033 12.403,6.120 12.558 C 6.309 12.896,6.562 12.999,7.200 13.000 C 7.546 13.000,7.643 13.014,7.748 13.078 C 7.991 13.226,8.065 13.513,7.922 13.748 C 7.778 13.984,7.701 14.000,6.708 14.000 C 5.756 14.000,5.562 14.028,5.322 14.199 C 5.100 14.357,5.020 14.568,5.020 15.000 C 5.020 15.331,5.033 15.403,5.120 15.558 C 5.233 15.760,5.417 15.900,5.652 15.963 C 5.756 15.991,6.206 16.001,6.916 15.992 C 8.002 15.977,8.025 15.975,8.320 15.868 C 9.041 15.604,9.608 15.037,9.868 14.320 C 9.965 14.052,9.976 13.965,9.976 13.500 C 9.976 13.035,9.965 12.949,9.868 12.684 C 9.809 12.521,9.705 12.301,9.636 12.194 L 9.512 12.000 9.636 11.806 C 9.705 11.699,9.809 11.479,9.868 11.316 C 9.965 11.051,9.976 10.965,9.976 10.500 C 9.976 10.035,9.965 9.948,9.868 9.680 C 9.732 9.306,9.458 8.898,9.165 8.636 C 8.887 8.387,8.390 8.137,8.020 8.060 C 7.647 7.982,5.861 7.980,5.614 8.057 M15.960 8.062 C 15.605 8.138,15.107 8.393,14.832 8.639 C 14.532 8.907,14.239 9.352,14.118 9.722 L 14.020 10.020 14.020 12.020 L 14.020 14.020 14.131 14.320 C 14.399 15.044,14.964 15.608,15.680 15.868 C 15.948 15.965,16.035 15.976,16.500 15.976 C 16.965 15.976,17.052 15.965,17.320 15.868 C 18.036 15.608,18.601 15.044,18.869 14.320 L 18.980 14.020 18.980 12.000 L 18.980 9.980 18.869 9.680 C 18.430 8.486,17.192 7.798,15.960 8.062 M11.614 9.057 C 11.377 9.131,11.212 9.261,11.109 9.453 C 11.027 9.606,11.019 9.684,11.007 10.405 C 10.999 10.880,11.011 11.252,11.037 11.349 C 11.144 11.748,11.430 11.961,11.896 11.991 C 12.381 12.022,12.699 11.882,12.880 11.558 C 12.978 11.383,12.980 11.364,12.980 10.500 C 12.980 9.667,12.975 9.611,12.891 9.453 C 12.842 9.362,12.746 9.247,12.678 9.199 C 12.414 9.010,11.957 8.950,11.614 9.057 M16.724 10.062 C 16.790 10.096,16.879 10.182,16.922 10.252 C 16.996 10.373,17.000 10.464,17.000 12.000 C 17.000 13.536,16.996 13.627,16.922 13.748 C 16.722 14.076,16.278 14.076,16.078 13.748 C 16.004 13.627,16.000 13.536,16.000 12.008 C 16.000 10.228,15.999 10.232,16.252 10.078 C 16.406 9.984,16.563 9.979,16.724 10.062 M11.614 13.057 C 11.377 13.131,11.212 13.261,11.109 13.453 C 11.027 13.606,11.019 13.684,11.007 14.405 C 10.999 14.880,11.011 15.252,11.037 15.349 C 11.144 15.748,11.430 15.961,11.896 15.991 C 12.381 16.022,12.699 15.882,12.880 15.558 C 12.978 15.383,12.980 15.364,12.980 14.500 C 12.980 13.667,12.975 13.611,12.891 13.453 C 12.842 13.362,12.746 13.247,12.678 13.199 C 12.414 13.010,11.957 12.950,11.614 13.057 " stroke="none" fill="black" fill-rule="evenodd"></path></svg>