<svg xmlns="http://www.w3.org/2000/svg" width="24" height="24" viewBox="0 0 24 24" fill="none" stroke="currentColor" stroke-width="2" stroke-linecap="round" stroke-linejoin="round" class="icon icon-tabler icons-tabler-outline icon-tabler-jump-rope"><path d="M17.499 2.040 C 16.363 2.246,15.461 3.048,15.114 4.160 C 15.021 4.458,15.020 4.473,15.020 6.500 C 15.020 8.527,15.021 8.542,15.114 8.840 C 15.365 9.646,15.932 10.318,16.670 10.688 L 17.000 10.853 16.999 13.517 C 16.999 16.420,16.992 16.519,16.772 16.931 C 16.625 17.208,16.191 17.643,15.930 17.775 C 15.346 18.071,14.658 18.073,14.083 17.781 C 13.816 17.646,13.449 17.297,13.281 17.017 C 12.993 16.539,13.005 16.756,13.002 11.946 C 13.000 7.805,12.997 7.617,12.921 7.243 C 12.628 5.806,11.637 4.680,10.245 4.204 C 9.951 4.103,9.322 4.000,9.000 4.000 C 8.678 4.000,8.049 4.103,7.755 4.204 C 6.368 4.679,5.372 5.805,5.083 7.227 C 5.004 7.614,5.000 7.761,5.000 10.389 L 5.000 13.145 4.670 13.313 C 3.922 13.693,3.365 14.354,3.114 15.160 C 3.021 15.458,3.020 15.473,3.020 17.500 C 3.020 19.527,3.021 19.542,3.114 19.840 C 3.422 20.827,4.174 21.579,5.160 21.886 C 5.412 21.964,5.547 21.979,6.000 21.979 C 6.453 21.979,6.588 21.964,6.840 21.886 C 7.826 21.579,8.578 20.827,8.886 19.840 C 8.979 19.542,8.980 19.527,8.980 17.500 C 8.980 15.473,8.979 15.458,8.886 15.160 C 8.635 14.354,8.078 13.693,7.330 13.313 L 7.000 13.145 7.002 10.443 C 7.005 7.430,7.004 7.441,7.279 6.987 C 7.977 5.836,9.549 5.665,10.454 6.642 C 10.567 6.764,10.710 6.957,10.772 7.071 C 11.001 7.495,10.999 7.436,10.999 12.094 C 11.000 16.253,11.002 16.378,11.083 16.773 C 11.357 18.118,12.249 19.195,13.512 19.704 C 14.231 19.994,15.023 20.070,15.757 19.921 C 17.384 19.589,18.589 18.384,18.921 16.757 C 18.995 16.391,19.000 16.204,19.000 13.610 L 19.000 10.853 19.330 10.688 C 20.068 10.318,20.635 9.646,20.886 8.840 C 20.979 8.542,20.980 8.527,20.980 6.500 C 20.980 4.473,20.979 4.458,20.886 4.160 C 20.580 3.178,19.810 2.407,18.861 2.129 C 18.500 2.023,17.832 1.980,17.499 2.040 M18.310 4.061 C 18.589 4.144,18.856 4.411,18.939 4.690 C 19.024 4.976,19.029 8.010,18.945 8.290 C 18.872 8.533,18.707 8.740,18.484 8.872 C 18.328 8.963,18.254 8.980,18.000 8.980 C 17.746 8.980,17.672 8.963,17.516 8.872 C 17.415 8.813,17.284 8.700,17.225 8.623 C 17.005 8.335,17.000 8.288,17.000 6.522 C 17.000 4.641,17.006 4.601,17.304 4.303 C 17.583 4.024,17.916 3.944,18.310 4.061 M6.334 15.064 C 6.596 15.153,6.861 15.427,6.939 15.690 C 7.024 15.976,7.029 19.010,6.945 19.290 C 6.872 19.533,6.707 19.740,6.484 19.872 C 6.328 19.963,6.254 19.980,6.000 19.980 C 5.746 19.980,5.672 19.963,5.516 19.872 C 5.303 19.747,5.141 19.550,5.058 19.316 C 4.971 19.067,4.973 15.986,5.061 15.690 C 5.215 15.172,5.803 14.883,6.334 15.064 " stroke="none" fill="black" fill-rule="evenodd"></path></svg>