<svg xmlns="http://www.w3.org/2000/svg" width="24" height="24" viewBox="0 0 24 24" fill="none" stroke="currentColor" stroke-width="2" stroke-linecap="round" stroke-linejoin="round" class="icon icon-tabler icons-tabler-outline icon-tabler-brand-sugarizer"><path d="M11.358 1.061 C 10.230 1.237,9.143 1.974,8.569 2.953 C 7.320 5.083,8.233 7.785,10.512 8.704 C 12.558 9.528,14.877 8.538,15.704 6.488 C 16.090 5.530,16.090 4.469,15.705 3.516 C 15.172 2.197,14.001 1.269,12.605 1.058 C 12.144 0.989,11.816 0.990,11.358 1.061 M12.523 3.073 C 13.262 3.266,13.850 3.924,13.967 4.690 C 14.029 5.098,13.967 5.522,13.793 5.880 C 13.638 6.198,13.227 6.625,12.930 6.775 C 12.492 6.997,11.962 7.059,11.508 6.940 C 10.823 6.762,10.249 6.194,10.073 5.523 C 9.683 4.028,11.028 2.683,12.523 3.073 M7.040 9.100 C 6.346 9.256,5.673 9.783,5.320 10.446 C 4.880 11.272,4.971 12.441,5.532 13.180 C 5.599 13.268,6.249 13.939,6.976 14.670 L 8.298 16.000 6.956 17.350 C 6.218 18.093,5.559 18.772,5.492 18.860 C 4.875 19.672,4.820 20.913,5.363 21.763 C 6.158 23.005,7.685 23.377,8.950 22.635 C 9.108 22.542,9.618 22.066,10.590 21.102 L 12.000 19.705 13.410 21.103 C 14.920 22.600,15.062 22.714,15.620 22.891 C 15.849 22.964,15.992 22.980,16.400 22.978 C 16.852 22.977,16.933 22.965,17.242 22.856 C 17.670 22.705,17.963 22.512,18.288 22.167 C 18.594 21.842,18.721 21.633,18.866 21.216 C 18.962 20.939,18.976 20.838,18.978 20.400 C 18.980 19.991,18.964 19.849,18.891 19.620 C 18.714 19.062,18.600 18.920,17.102 17.409 L 15.703 15.999 17.025 14.669 C 17.752 13.938,18.404 13.265,18.475 13.172 C 18.636 12.962,18.854 12.487,18.920 12.204 C 18.988 11.914,18.978 11.276,18.902 10.980 C 18.788 10.543,18.570 10.169,18.220 9.816 C 17.679 9.269,17.130 9.039,16.364 9.041 C 15.758 9.042,15.254 9.202,14.820 9.532 C 14.732 9.599,14.062 10.248,13.331 10.975 L 12.001 12.297 10.611 10.918 C 9.131 9.452,8.977 9.326,8.440 9.155 C 8.096 9.046,7.402 9.018,7.040 9.100 M7.867 11.082 C 7.929 11.105,8.772 11.912,9.740 12.876 C 10.898 14.028,11.553 14.651,11.656 14.698 C 11.855 14.789,12.145 14.789,12.344 14.698 C 12.447 14.651,13.104 14.027,14.260 12.878 C 15.228 11.916,16.059 11.109,16.107 11.085 C 16.155 11.060,16.288 11.040,16.403 11.040 C 16.595 11.040,16.624 11.053,16.785 11.215 C 16.947 11.376,16.960 11.405,16.960 11.597 C 16.960 11.712,16.940 11.845,16.915 11.893 C 16.891 11.941,16.084 12.772,15.122 13.740 C 13.973 14.896,13.349 15.553,13.302 15.656 C 13.211 15.855,13.211 16.145,13.302 16.344 C 13.349 16.447,13.977 17.107,15.144 18.280 C 16.119 19.259,16.935 20.111,16.958 20.173 C 17.138 20.654,16.654 21.138,16.173 20.958 C 16.111 20.935,15.268 20.127,14.300 19.162 C 13.152 18.018,12.481 17.379,12.372 17.324 C 12.149 17.213,11.850 17.213,11.628 17.324 C 11.519 17.379,10.828 18.037,9.660 19.199 C 8.134 20.718,7.839 20.994,7.720 21.015 C 7.456 21.062,7.170 20.925,7.063 20.702 C 6.990 20.546,6.980 20.273,7.045 20.147 C 7.069 20.099,7.885 19.259,8.858 18.280 C 10.021 17.110,10.651 16.447,10.698 16.344 C 10.789 16.145,10.789 15.855,10.698 15.656 C 10.651 15.553,10.019 14.889,8.856 13.720 C 6.949 11.802,6.991 11.854,7.057 11.504 C 7.123 11.152,7.513 10.949,7.867 11.082 " stroke="none" fill="black" fill-rule="evenodd"></path></svg>