<svg xmlns="http://www.w3.org/2000/svg" width="24" height="24" viewBox="0 0 24 24" fill="none" stroke="currentColor" stroke-width="2" stroke-linecap="round" stroke-linejoin="round" class="icon icon-tabler icons-tabler-outline icon-tabler-shape-3"><path d="M4.499 2.040 C 3.363 2.246,2.460 3.049,2.114 4.160 C 1.979 4.594,1.979 5.406,2.114 5.840 C 2.365 6.645,2.931 7.318,3.670 7.688 L 4.000 7.853 4.000 11.999 L 4.000 16.145 3.670 16.313 C 2.922 16.693,2.365 17.355,2.114 18.160 C 1.979 18.594,1.979 19.406,2.114 19.840 C 2.421 20.826,3.174 21.579,4.160 21.886 C 4.594 22.021,5.406 22.021,5.840 21.886 C 6.826 21.579,7.579 20.826,7.886 19.840 C 8.021 19.406,8.021 18.594,7.886 18.160 C 7.635 17.355,7.078 16.693,6.330 16.313 L 6.000 16.145 6.000 11.999 L 6.000 7.853 6.330 7.688 C 6.900 7.403,7.403 6.900,7.688 6.330 L 7.853 6.000 12.000 6.000 L 16.147 6.000 16.312 6.330 C 16.597 6.900,17.100 7.403,17.670 7.688 L 18.000 7.853 18.000 11.999 L 18.000 16.145 17.670 16.313 C 16.922 16.693,16.365 17.355,16.114 18.160 C 15.979 18.594,15.979 19.406,16.114 19.840 C 16.421 20.826,17.174 21.579,18.160 21.886 C 18.594 22.021,19.406 22.021,19.840 21.886 C 20.826 21.579,21.579 20.826,21.886 19.840 C 22.021 19.406,22.021 18.594,21.886 18.160 C 21.635 17.355,21.078 16.693,20.330 16.313 L 20.000 16.145 20.000 11.999 L 20.000 7.853 20.330 7.688 C 21.069 7.318,21.635 6.645,21.886 5.840 C 22.021 5.406,22.021 4.594,21.886 4.160 C 21.581 3.181,20.822 2.418,19.861 2.125 C 19.588 2.042,19.458 2.027,19.000 2.027 C 18.542 2.027,18.412 2.042,18.139 2.125 C 17.358 2.363,16.679 2.938,16.312 3.670 L 16.147 4.000 12.000 4.000 L 7.853 4.000 7.688 3.670 C 7.320 2.935,6.631 2.354,5.861 2.129 C 5.500 2.023,4.832 1.980,4.499 2.040 M5.310 4.061 C 5.688 4.173,6.000 4.598,6.000 5.001 C 6.000 5.331,5.784 5.696,5.484 5.872 C 5.328 5.963,5.254 5.980,5.000 5.980 C 4.746 5.980,4.672 5.963,4.516 5.872 C 3.935 5.530,3.833 4.774,4.304 4.303 C 4.583 4.024,4.916 3.944,5.310 4.061 M19.310 4.061 C 19.688 4.173,20.000 4.598,20.000 5.001 C 20.000 5.331,19.784 5.696,19.484 5.872 C 19.328 5.963,19.254 5.980,19.000 5.980 C 18.746 5.980,18.672 5.963,18.516 5.872 C 17.935 5.530,17.833 4.774,18.304 4.303 C 18.583 4.024,18.916 3.944,19.310 4.061 M5.310 18.061 C 5.688 18.173,6.000 18.598,6.000 19.001 C 6.000 19.331,5.784 19.696,5.484 19.872 C 5.328 19.963,5.254 19.980,5.000 19.980 C 4.746 19.980,4.672 19.963,4.516 19.872 C 3.935 19.530,3.833 18.774,4.304 18.303 C 4.583 18.024,4.916 17.944,5.310 18.061 M19.310 18.061 C 19.688 18.173,20.000 18.598,20.000 19.001 C 20.000 19.331,19.784 19.696,19.484 19.872 C 19.328 19.963,19.254 19.980,19.000 19.980 C 18.746 19.980,18.672 19.963,18.516 19.872 C 17.935 19.530,17.833 18.774,18.304 18.303 C 18.583 18.024,18.916 17.944,19.310 18.061 " stroke="none" fill="black" fill-rule="evenodd"></path></svg>