<svg xmlns="http://www.w3.org/2000/svg" width="24" height="24" viewBox="0 0 24 24" fill="none" stroke="currentColor" stroke-width="2" stroke-linecap="round" stroke-linejoin="round" class="icon icon-tabler icons-tabler-outline icon-tabler-home-infinity"><path d="M11.620 2.046 C 11.382 2.168,2.155 11.405,2.039 11.637 C 1.830 12.056,2.036 12.589,2.514 12.871 C 2.693 12.976,2.726 12.981,3.348 12.993 L 3.997 13.007 4.009 16.293 L 4.021 19.580 4.114 19.860 C 4.442 20.840,5.167 21.564,6.140 21.884 C 6.410 21.973,6.480 21.977,8.020 21.992 C 9.149 22.002,9.683 21.993,9.833 21.960 C 10.091 21.903,10.303 21.729,10.410 21.487 C 10.509 21.264,10.515 20.760,10.421 20.536 C 10.349 20.363,10.133 20.120,10.052 20.120 C 10.010 20.120,10.000 19.628,10.000 17.507 C 10.000 14.531,9.992 14.614,10.303 14.303 C 10.587 14.019,10.695 14.000,12.022 14.000 C 13.469 14.000,13.550 14.024,13.908 14.567 C 14.159 14.949,14.334 15.061,14.677 15.058 C 14.882 15.057,14.986 15.032,15.149 14.948 C 15.559 14.736,15.797 14.436,15.799 14.129 C 15.802 13.693,15.296 12.948,14.730 12.554 C 14.490 12.388,14.026 12.175,13.720 12.091 C 13.493 12.029,13.274 12.020,11.980 12.020 C 10.555 12.020,10.488 12.023,10.178 12.112 C 9.219 12.387,8.446 13.147,8.115 14.140 L 8.021 14.420 8.009 17.213 L 7.996 20.007 7.348 19.993 C 6.728 19.981,6.692 19.975,6.516 19.872 C 6.328 19.761,6.158 19.572,6.070 19.373 C 6.032 19.286,6.015 18.375,6.000 15.440 L 5.980 11.620 5.890 11.451 C 5.803 11.289,5.556 11.080,5.451 11.080 C 5.423 11.080,5.400 11.066,5.400 11.050 C 5.400 11.033,6.885 9.535,8.700 7.720 L 12.000 4.420 15.300 7.720 C 17.115 9.535,18.599 11.029,18.598 11.040 C 18.597 11.051,18.521 11.097,18.428 11.143 C 18.243 11.233,18.103 11.412,18.041 11.635 C 17.988 11.826,17.988 14.174,18.041 14.365 C 18.148 14.750,18.437 14.962,18.896 14.991 C 19.381 15.022,19.699 14.882,19.880 14.558 C 19.974 14.391,19.981 14.338,19.994 13.690 L 20.008 13.000 20.614 13.000 C 20.947 13.000,21.285 12.981,21.365 12.959 C 21.587 12.898,21.770 12.755,21.879 12.558 C 21.963 12.408,21.979 12.327,21.979 12.040 C 21.980 11.742,21.967 11.678,21.873 11.520 C 21.715 11.256,12.586 2.151,12.372 2.044 C 12.151 1.934,11.836 1.935,11.620 2.046 M13.530 16.044 C 12.630 16.194,11.800 16.791,11.367 17.600 C 11.094 18.110,11.020 18.417,11.023 19.020 C 11.025 19.473,11.039 19.581,11.133 19.860 C 11.429 20.745,12.077 21.447,12.909 21.781 C 13.560 22.043,14.370 22.067,15.038 21.843 C 15.685 21.626,15.784 21.562,16.414 20.956 L 17.000 20.392 17.583 20.954 C 18.209 21.559,18.302 21.619,18.967 21.848 C 19.317 21.968,19.375 21.976,19.900 21.976 C 20.733 21.977,21.247 21.804,21.858 21.319 C 22.357 20.923,22.688 20.430,22.888 19.785 C 23.017 19.372,23.015 18.624,22.884 18.200 C 22.627 17.363,22.070 16.704,21.300 16.323 C 20.819 16.085,20.546 16.025,19.940 16.022 C 18.932 16.018,18.353 16.283,17.471 17.152 L 17.001 17.614 16.528 17.151 C 16.015 16.649,15.656 16.393,15.221 16.221 C 14.723 16.023,14.067 15.955,13.530 16.044 M14.602 18.149 C 14.707 18.210,14.965 18.425,15.174 18.626 L 15.555 18.992 15.127 19.408 C 14.657 19.865,14.502 19.958,14.161 19.989 C 13.539 20.046,13.023 19.596,13.023 19.000 C 13.023 18.683,13.121 18.474,13.367 18.263 C 13.703 17.976,14.220 17.928,14.602 18.149 M20.264 18.059 C 20.694 18.187,20.974 18.558,20.974 19.000 C 20.974 19.318,20.877 19.528,20.633 19.737 C 20.274 20.044,19.714 20.082,19.333 19.823 C 19.262 19.774,19.031 19.568,18.820 19.364 L 18.437 18.994 18.824 18.627 C 19.037 18.425,19.263 18.226,19.328 18.184 C 19.617 17.999,19.923 17.958,20.264 18.059 " stroke="none" fill="black" fill-rule="evenodd"></path></svg>