<svg xmlns="http://www.w3.org/2000/svg" width="24" height="24" viewBox="0 0 24 24" fill="none" stroke="currentColor" stroke-width="2" stroke-linecap="round" stroke-linejoin="round" class="icon icon-tabler icons-tabler-outline icon-tabler-brand-reddit"><path d="M12.570 2.053 C 12.396 2.116,12.203 2.304,12.119 2.492 C 12.081 2.577,11.855 3.626,11.616 4.823 L 11.181 7.000 10.880 7.000 C 9.506 7.001,7.837 7.302,6.528 7.786 C 5.992 7.984,5.019 8.463,4.541 8.765 L 4.142 9.017 3.521 9.022 C 2.831 9.028,2.567 9.084,2.016 9.338 C 1.637 9.513,1.401 9.677,1.065 9.998 C -0.035 11.049,-0.311 12.708,0.385 14.089 C 0.736 14.786,1.364 15.388,1.845 15.488 C 1.992 15.518,2.086 15.559,2.097 15.598 C 2.107 15.632,2.146 15.786,2.183 15.940 C 2.330 16.547,2.631 17.216,3.029 17.820 C 4.492 20.043,7.211 21.521,10.580 21.927 C 11.238 22.006,13.008 21.993,13.640 21.905 C 16.749 21.470,19.257 20.150,20.721 18.180 C 21.389 17.280,21.863 16.153,21.947 15.262 C 21.970 15.017,21.990 14.965,22.118 14.822 C 22.346 14.567,22.468 14.388,22.618 14.090 C 23.312 12.707,23.037 11.063,21.934 9.995 C 21.607 9.680,21.373 9.518,20.984 9.338 C 20.433 9.083,20.169 9.028,19.477 9.022 L 18.854 9.017 18.517 8.803 C 17.493 8.151,16.250 7.635,15.000 7.344 C 14.596 7.250,13.651 7.092,13.360 7.071 C 13.263 7.063,13.222 7.042,13.228 7.000 C 13.259 6.759,13.778 4.213,13.802 4.186 C 13.818 4.168,14.570 4.275,15.473 4.425 L 17.115 4.698 17.207 4.899 C 17.327 5.159,17.799 5.639,18.069 5.775 C 18.661 6.073,19.341 6.073,19.930 5.775 C 20.196 5.640,20.638 5.200,20.771 4.937 C 21.065 4.358,21.068 3.649,20.781 3.083 C 20.646 2.816,20.297 2.449,20.017 2.281 C 19.261 1.826,18.251 1.946,17.614 2.567 L 17.448 2.728 15.265 2.364 C 14.065 2.164,12.996 2.001,12.891 2.003 C 12.786 2.005,12.641 2.027,12.570 2.053 M13.438 9.098 C 15.128 9.319,16.599 9.873,17.800 10.743 C 18.397 11.176,18.504 11.205,19.022 11.079 C 19.844 10.879,20.501 11.166,20.852 11.879 C 20.968 12.113,20.980 12.174,20.979 12.499 C 20.979 12.988,20.854 13.253,20.412 13.700 C 20.051 14.066,20.032 14.113,19.965 14.820 C 19.893 15.580,19.714 16.079,19.281 16.735 C 17.528 19.387,13.184 20.654,9.260 19.657 C 6.989 19.081,5.169 17.780,4.401 16.185 C 4.201 15.771,4.092 15.376,4.021 14.812 C 3.920 14.010,3.761 13.845,2.937 13.676 C 2.423 13.571,2.312 13.492,2.134 13.105 C 2.038 12.895,2.022 12.809,2.021 12.499 C 2.020 12.172,2.032 12.114,2.148 11.879 C 2.501 11.168,3.160 10.879,3.978 11.079 C 4.496 11.205,4.603 11.176,5.200 10.743 C 6.584 9.739,8.357 9.151,10.380 9.024 C 10.921 8.990,12.996 9.041,13.438 9.098 M8.516 11.577 C 7.466 11.979,7.167 13.277,7.945 14.055 C 8.528 14.638,9.472 14.638,10.055 14.055 C 10.781 13.330,10.577 12.126,9.650 11.657 C 9.455 11.558,9.370 11.541,9.042 11.532 C 8.789 11.525,8.611 11.540,8.516 11.577 M14.516 11.577 C 13.466 11.979,13.167 13.277,13.945 14.055 C 14.807 14.918,16.314 14.420,16.477 13.218 C 16.566 12.564,16.245 11.958,15.650 11.657 C 15.455 11.558,15.370 11.541,15.042 11.532 C 14.789 11.525,14.611 11.540,14.516 11.577 M9.570 16.042 C 9.263 16.198,9.015 16.603,8.972 17.016 C 8.930 17.426,9.151 17.709,9.716 17.966 C 11.252 18.664,12.748 18.664,14.284 17.966 C 14.849 17.709,15.070 17.426,15.028 17.016 C 14.984 16.593,14.733 16.192,14.416 16.038 C 14.167 15.918,13.922 15.947,13.432 16.157 C 12.383 16.605,11.615 16.605,10.567 16.156 C 10.081 15.949,9.813 15.918,9.570 16.042 " stroke="none" fill="black" fill-rule="evenodd"></path></svg>