<svg xmlns="http://www.w3.org/2000/svg" width="24" height="24" viewBox="0 0 24 24" fill="none" stroke="currentColor" stroke-width="2" stroke-linecap="round" stroke-linejoin="round" class="icon icon-tabler icons-tabler-outline icon-tabler-u-turn-left"><path d="M11.860 3.047 C 9.629 3.298,7.749 4.938,7.177 7.129 C 7.010 7.772,7.001 7.969,7.001 11.338 L 7.000 14.575 6.270 13.853 C 5.856 13.444,5.467 13.094,5.372 13.045 C 5.021 12.868,4.640 12.958,4.299 13.299 C 3.952 13.646,3.863 14.011,4.040 14.363 C 4.099 14.480,4.635 15.051,5.635 16.062 C 6.463 16.899,7.174 17.634,7.216 17.697 C 7.318 17.850,7.762 18.049,8.000 18.049 C 8.238 18.049,8.682 17.850,8.784 17.697 C 8.826 17.634,9.537 16.899,10.365 16.062 C 11.365 15.051,11.901 14.480,11.960 14.363 C 12.137 14.011,12.048 13.646,11.701 13.299 C 11.360 12.958,10.979 12.868,10.628 13.045 C 10.533 13.094,10.143 13.444,9.728 13.855 L 8.997 14.579 9.009 11.239 C 9.022 7.962,9.024 7.894,9.108 7.595 C 9.383 6.620,10.063 5.808,10.995 5.342 C 11.487 5.095,11.809 5.028,12.500 5.028 C 12.983 5.028,13.160 5.044,13.405 5.111 C 13.992 5.271,14.590 5.631,15.022 6.085 C 15.329 6.408,15.489 6.642,15.681 7.053 C 15.998 7.730,15.972 7.158,15.998 14.140 L 16.020 20.380 16.120 20.558 C 16.287 20.856,16.572 21.000,17.000 21.000 C 17.428 21.000,17.713 20.856,17.880 20.558 L 17.980 20.380 17.992 14.300 C 18.001 9.904,17.992 8.120,17.959 7.860 C 17.801 6.616,17.284 5.542,16.420 4.661 C 15.221 3.439,13.569 2.854,11.860 3.047 " stroke="none" fill="black" fill-rule="evenodd"></path></svg>