<svg xmlns="http://www.w3.org/2000/svg" width="24" height="24" viewBox="0 0 24 24" fill="none" stroke="currentColor" stroke-width="2" stroke-linecap="round" stroke-linejoin="round" class="icon icon-tabler icons-tabler-outline icon-tabler-currency-rupee-nepalese"><path d="M3.614 4.057 C 3.223 4.180,3.039 4.436,3.009 4.900 C 2.978 5.381,3.119 5.699,3.442 5.880 L 3.620 5.980 5.580 6.002 C 7.522 6.024,7.543 6.025,7.861 6.123 C 8.819 6.420,9.584 7.186,9.875 8.139 C 9.958 8.412,9.973 8.542,9.973 9.000 C 9.973 9.458,9.958 9.588,9.875 9.861 C 9.585 10.812,8.836 11.563,7.860 11.884 C 7.588 11.973,7.526 11.977,5.619 11.998 L 3.658 12.020 3.459 12.122 C 3.125 12.294,2.975 12.613,3.011 13.068 C 3.024 13.236,3.064 13.373,3.133 13.488 C 3.289 13.752,9.420 19.852,9.637 19.961 C 9.990 20.137,10.354 20.048,10.701 19.701 C 11.048 19.354,11.137 18.990,10.960 18.637 C 10.899 18.514,10.191 17.778,8.652 16.235 L 6.432 14.011 7.066 13.988 C 7.979 13.956,8.535 13.817,9.286 13.433 C 10.630 12.748,11.580 11.489,11.907 9.960 C 12.008 9.489,12.008 8.511,11.907 8.040 C 11.768 7.391,11.493 6.729,11.155 6.230 L 10.999 6.000 13.110 6.000 C 14.400 6.000,15.276 5.984,15.365 5.959 C 15.586 5.898,15.770 5.755,15.880 5.558 C 15.967 5.402,15.980 5.332,15.979 5.000 C 15.978 4.567,15.898 4.355,15.678 4.199 C 15.389 3.993,15.604 4.000,9.484 4.003 C 4.919 4.005,3.747 4.016,3.614 4.057 M14.340 11.105 C 14.186 11.137,13.889 11.247,13.680 11.350 C 13.356 11.508,13.243 11.592,12.915 11.918 C 12.583 12.249,12.505 12.354,12.345 12.684 C 12.117 13.151,12.041 13.491,12.041 14.040 C 12.041 14.998,12.316 15.564,13.222 16.470 C 13.792 17.040,14.000 17.174,14.302 17.170 C 14.527 17.167,14.723 17.076,14.940 16.875 C 15.322 16.524,15.443 16.104,15.262 15.760 C 15.222 15.683,14.967 15.393,14.695 15.116 C 14.391 14.805,14.171 14.544,14.122 14.436 C 14.018 14.209,14.015 13.838,14.115 13.619 C 14.350 13.102,14.982 12.884,15.475 13.150 C 15.613 13.225,16.294 13.854,17.589 15.103 C 20.825 18.224,20.623 18.049,21.004 18.049 C 21.492 18.049,22.047 17.478,22.047 16.976 C 22.047 16.628,21.969 16.543,19.397 14.068 C 18.064 12.786,16.883 11.670,16.772 11.589 C 16.488 11.380,16.025 11.170,15.699 11.100 C 15.349 11.026,14.706 11.028,14.340 11.105 " stroke="none" fill="black" fill-rule="evenodd"></path></svg>