<svg xmlns="http://www.w3.org/2000/svg" width="24" height="24" viewBox="0 0 24 24" fill="none" stroke="currentColor" stroke-width="2" stroke-linecap="round" stroke-linejoin="round" class="icon icon-tabler icons-tabler-outline icon-tabler-egg"><path d="M11.520 2.028 C 9.790 2.213,8.003 3.490,6.604 5.540 C 5.290 7.467,4.409 9.867,4.094 12.380 C 4.005 13.090,3.994 14.803,4.074 15.340 C 4.424 17.677,5.513 19.479,7.300 20.676 C 8.917 21.759,11.145 22.214,13.198 21.879 C 17.084 21.245,19.598 18.652,19.964 14.900 C 20.021 14.319,19.990 13.124,19.899 12.360 C 19.608 9.909,18.682 7.399,17.369 5.500 C 15.698 3.082,13.555 1.810,11.520 2.028 M12.740 4.122 C 14.556 4.689,16.377 7.012,17.332 9.980 C 17.952 11.907,18.155 14.136,17.839 15.562 C 17.544 16.896,16.779 18.058,15.692 18.822 C 14.527 19.642,12.733 20.108,11.288 19.966 C 9.129 19.753,7.538 18.749,6.676 17.054 C 6.055 15.833,5.886 14.518,6.103 12.590 C 6.561 8.525,9.022 4.610,11.462 4.063 C 11.829 3.981,12.369 4.006,12.740 4.122 " stroke="none" fill="black" fill-rule="evenodd"></path></svg>