<svg xmlns="http://www.w3.org/2000/svg" width="24" height="24" viewBox="0 0 24 24" fill="none" stroke="currentColor" stroke-width="2" stroke-linecap="round" stroke-linejoin="round" class="icon icon-tabler icons-tabler-outline icon-tabler-layout-sidebar-left-collapse"><path d="M5.499 3.043 C 4.380 3.233,3.461 4.048,3.114 5.160 L 3.020 5.460 3.020 12.000 L 3.020 18.540 3.114 18.840 C 3.422 19.827,4.173 20.578,5.160 20.886 L 5.460 20.980 12.000 20.980 L 18.540 20.980 18.840 20.886 C 19.827 20.578,20.578 19.827,20.886 18.840 L 20.980 18.540 20.980 12.000 L 20.980 5.460 20.886 5.160 C 20.581 4.182,19.832 3.428,18.861 3.121 L 18.540 3.020 12.120 3.014 C 8.589 3.011,5.609 3.024,5.499 3.043 M8.000 12.002 L 8.000 19.005 6.850 18.992 L 5.700 18.980 5.516 18.872 C 5.415 18.813,5.284 18.700,5.225 18.623 C 4.987 18.311,5.000 18.701,5.000 12.022 C 5.000 5.123,4.977 5.629,5.304 5.303 C 5.582 5.024,5.680 5.006,6.930 5.003 L 8.000 5.000 8.000 12.002 M18.310 5.061 C 18.589 5.144,18.856 5.411,18.939 5.690 C 18.992 5.869,19.000 6.651,19.000 12.001 C 19.000 17.059,18.991 18.139,18.945 18.290 C 18.872 18.533,18.707 18.740,18.484 18.872 L 18.300 18.980 14.150 18.991 L 10.000 19.001 10.000 12.001 L 10.000 5.000 14.053 5.000 C 17.564 5.000,18.133 5.008,18.310 5.061 M14.620 9.046 C 14.390 9.165,12.153 11.411,12.040 11.637 C 11.986 11.744,11.951 11.889,11.951 12.000 C 11.951 12.334,12.057 12.468,13.294 13.706 C 14.532 14.943,14.666 15.049,15.000 15.049 C 15.477 15.049,16.049 14.477,16.049 14.000 C 16.049 13.693,15.921 13.513,15.147 12.730 L 14.425 12.000 15.147 11.270 C 15.580 10.832,15.905 10.469,15.959 10.363 C 16.137 10.012,16.048 9.646,15.701 9.299 C 15.361 8.959,14.967 8.867,14.620 9.046 " stroke="none" fill="black" fill-rule="evenodd"></path></svg>