<svg xmlns="http://www.w3.org/2000/svg" width="24" height="24" viewBox="0 0 24 24" fill="none" stroke="currentColor" stroke-width="2" stroke-linecap="round" stroke-linejoin="round" class="icon icon-tabler icons-tabler-outline icon-tabler-alphabet-latin"><path d="M13.614 6.057 C 13.377 6.131,13.212 6.261,13.109 6.453 L 13.020 6.620 13.009 11.914 C 13.002 15.393,13.013 17.259,13.039 17.358 C 13.100 17.584,13.243 17.768,13.442 17.880 C 13.597 17.967,13.669 17.980,14.000 17.980 C 14.341 17.980,14.400 17.969,14.575 17.870 L 14.770 17.760 15.095 17.869 C 15.416 17.976,15.434 17.978,16.480 17.979 C 17.481 17.980,17.557 17.975,17.840 17.886 C 18.827 17.578,19.578 16.827,19.886 15.840 C 19.979 15.542,19.980 15.527,19.980 13.500 C 19.980 11.473,19.979 11.458,19.886 11.160 C 19.577 10.169,18.792 9.390,17.822 9.112 C 17.524 9.027,17.424 9.020,16.500 9.020 C 15.794 9.020,15.447 9.035,15.320 9.072 C 15.221 9.101,15.110 9.134,15.073 9.144 C 15.010 9.162,15.004 9.062,14.993 7.892 C 14.980 6.666,14.977 6.614,14.891 6.453 C 14.842 6.362,14.746 6.247,14.678 6.199 C 14.414 6.010,13.957 5.950,13.614 6.057 M5.614 9.056 C 5.376 9.133,5.211 9.262,5.109 9.453 C 5.035 9.592,5.020 9.684,5.020 10.000 C 5.020 10.331,5.033 10.403,5.120 10.558 C 5.230 10.755,5.414 10.898,5.635 10.959 C 5.717 10.982,6.287 11.000,6.943 11.000 C 8.308 11.000,8.412 11.018,8.697 11.303 C 8.862 11.468,9.000 11.760,9.000 11.944 C 9.000 11.982,8.702 11.997,7.730 12.009 C 6.518 12.025,6.445 12.030,6.139 12.124 C 5.176 12.420,4.419 13.181,4.114 14.160 C 3.979 14.594,3.979 15.406,4.114 15.840 C 4.418 16.816,5.154 17.559,6.140 17.885 C 6.414 17.975,6.461 17.977,8.307 17.991 C 9.553 18.000,10.247 17.991,10.351 17.963 C 10.583 17.900,10.767 17.759,10.880 17.558 L 10.980 17.380 10.980 14.420 L 10.980 11.460 10.886 11.160 C 10.581 10.181,9.825 9.421,8.861 9.124 C 8.550 9.028,8.498 9.024,7.160 9.013 C 6.090 9.005,5.743 9.014,5.614 9.056 M17.310 11.061 C 17.589 11.144,17.856 11.411,17.939 11.690 C 18.024 11.976,18.029 15.010,17.945 15.290 C 17.872 15.533,17.707 15.740,17.484 15.872 C 17.301 15.980,17.297 15.980,16.500 15.980 C 15.703 15.980,15.699 15.980,15.516 15.872 C 15.303 15.747,15.141 15.550,15.058 15.316 C 14.971 15.067,14.973 11.986,15.061 11.690 C 15.140 11.421,15.412 11.143,15.673 11.063 C 15.941 10.981,17.035 10.979,17.310 11.061 M9.000 15.002 L 9.000 16.005 7.850 15.992 L 6.700 15.980 6.516 15.872 C 5.935 15.530,5.833 14.774,6.304 14.303 C 6.582 14.024,6.680 14.006,7.930 14.003 L 9.000 14.000 9.000 15.002 " stroke="none" fill="black" fill-rule="evenodd"></path></svg>