<svg xmlns="http://www.w3.org/2000/svg" width="24" height="24" viewBox="0 0 24 24" fill="none" stroke="currentColor" stroke-width="2" stroke-linecap="round" stroke-linejoin="round" class="icon icon-tabler icons-tabler-outline icon-tabler-vaccine-bottle"><path d="M9.477 2.073 C 8.806 2.249,8.238 2.823,8.060 3.508 C 8.017 3.672,8.000 3.953,8.000 4.500 C 8.000 5.322,8.036 5.557,8.218 5.915 C 8.330 6.138,8.651 6.503,8.858 6.644 C 8.988 6.733,8.999 6.756,8.999 6.940 C 8.997 7.401,8.743 7.671,8.189 7.798 C 7.232 8.019,6.440 8.740,6.136 9.666 L 6.020 10.020 6.020 14.780 L 6.020 19.540 6.114 19.840 C 6.422 20.827,7.173 21.578,8.160 21.886 L 8.460 21.980 12.000 21.980 L 15.540 21.980 15.840 21.886 C 16.827 21.578,17.578 20.827,17.886 19.840 L 17.980 19.540 17.980 14.780 L 17.980 10.020 17.864 9.666 C 17.560 8.740,16.784 8.033,15.815 7.801 C 15.252 7.666,15.003 7.401,15.001 6.940 C 15.001 6.756,15.012 6.733,15.142 6.644 C 15.347 6.504,15.669 6.139,15.779 5.922 C 15.959 5.567,16.000 5.305,15.999 4.514 C 15.999 3.716,15.954 3.424,15.781 3.083 C 15.646 2.816,15.297 2.449,15.017 2.281 C 14.564 2.008,14.524 2.005,12.000 2.005 C 9.992 2.005,9.711 2.012,9.477 2.073 M14.000 4.500 L 14.000 5.000 12.000 5.000 L 10.000 5.000 10.000 4.500 L 10.000 4.000 12.000 4.000 L 14.000 4.000 14.000 4.500 M13.000 7.122 C 13.000 7.382,13.130 7.875,13.279 8.180 C 13.662 8.965,14.290 9.476,15.129 9.687 C 15.533 9.788,15.714 9.877,15.823 10.026 C 15.952 10.203,16.000 10.387,16.000 10.706 L 16.000 11.000 12.000 11.000 L 8.000 11.000 8.000 10.706 C 8.000 10.249,8.122 9.981,8.393 9.844 C 8.474 9.803,8.689 9.732,8.871 9.687 C 9.710 9.476,10.338 8.965,10.721 8.180 C 10.870 7.875,11.000 7.382,11.000 7.122 L 11.000 7.000 12.000 7.000 L 13.000 7.000 13.000 7.122 M16.000 15.000 L 16.000 17.000 12.000 17.000 L 8.000 17.000 8.000 15.000 L 8.000 13.000 12.000 13.000 L 16.000 13.000 16.000 15.000 M10.614 14.057 C 10.377 14.131,10.212 14.261,10.109 14.453 C 10.035 14.592,10.020 14.684,10.020 15.000 C 10.020 15.331,10.033 15.403,10.120 15.558 C 10.230 15.755,10.414 15.898,10.635 15.959 C 10.826 16.012,13.174 16.012,13.365 15.959 C 13.586 15.898,13.770 15.755,13.880 15.558 C 13.967 15.402,13.980 15.332,13.979 15.000 C 13.978 14.687,13.962 14.591,13.890 14.453 C 13.786 14.256,13.623 14.131,13.371 14.055 C 13.117 13.979,10.859 13.981,10.614 14.057 M16.000 19.054 C 16.000 19.181,15.882 19.483,15.779 19.618 C 15.718 19.698,15.585 19.813,15.484 19.872 L 15.300 19.980 12.000 19.980 L 8.700 19.980 8.516 19.872 C 8.240 19.709,8.000 19.339,8.000 19.075 C 8.000 19.002,8.116 19.000,12.000 19.000 C 15.318 19.000,16.000 19.009,16.000 19.054 " stroke="none" fill="black" fill-rule="evenodd"></path></svg>