<svg xmlns="http://www.w3.org/2000/svg" width="24" height="24" viewBox="0 0 24 24" fill="none" stroke="currentColor" stroke-width="2" stroke-linecap="round" stroke-linejoin="round" class="icon icon-tabler icons-tabler-outline icon-tabler-wind-electricity"><path d="M5.614 3.055 C 5.220 3.184,5.039 3.437,5.009 3.900 C 4.965 4.591,5.248 4.929,5.933 4.999 C 6.350 5.042,6.509 5.108,6.717 5.321 C 6.880 5.490,7.000 5.777,7.000 6.001 C 7.000 6.331,6.784 6.696,6.484 6.872 L 6.300 6.980 4.479 7.000 L 2.658 7.020 2.459 7.122 C 2.119 7.297,1.978 7.606,2.009 8.104 C 2.039 8.569,2.252 8.856,2.649 8.963 C 2.753 8.991,3.447 9.000,4.693 8.991 C 6.539 8.977,6.586 8.975,6.860 8.885 C 7.846 8.559,8.582 7.816,8.886 6.840 C 9.021 6.406,9.021 5.594,8.886 5.160 C 8.581 4.179,7.809 3.405,6.861 3.129 C 6.459 3.013,5.851 2.976,5.614 3.055 M19.597 6.039 C 19.518 6.081,19.391 6.185,19.313 6.271 C 19.138 6.464,16.134 11.463,16.033 11.728 C 15.884 12.122,15.953 12.399,16.274 12.687 C 16.608 12.987,16.679 13.000,18.027 13.000 C 18.672 13.000,19.200 13.011,19.200 13.024 C 19.200 13.037,18.729 13.832,18.153 14.791 C 17.578 15.750,17.074 16.622,17.033 16.728 C 16.888 17.111,16.953 17.394,17.250 17.667 C 17.495 17.892,17.728 18.005,18.000 18.029 C 18.256 18.053,18.414 17.992,18.633 17.786 C 18.786 17.641,21.884 12.500,21.960 12.264 C 22.026 12.059,21.988 11.651,21.883 11.445 C 21.838 11.358,21.746 11.247,21.678 11.199 C 21.426 11.019,21.264 11.000,19.975 11.000 L 18.764 11.000 19.828 9.230 C 20.413 8.256,20.925 7.374,20.966 7.270 C 21.117 6.880,21.047 6.602,20.724 6.311 C 20.367 5.990,19.902 5.878,19.597 6.039 M10.614 7.055 C 10.220 7.184,10.039 7.437,10.009 7.900 C 9.965 8.591,10.248 8.929,10.933 8.999 C 11.350 9.042,11.509 9.108,11.717 9.321 C 11.880 9.490,12.000 9.777,12.000 10.001 C 12.000 10.331,11.784 10.696,11.484 10.872 L 11.300 10.980 6.979 11.000 L 2.658 11.020 2.459 11.122 C 2.119 11.297,1.978 11.606,2.009 12.104 C 2.039 12.567,2.253 12.856,2.645 12.961 C 2.746 12.989,4.274 12.999,7.189 12.991 L 11.580 12.980 11.860 12.886 C 12.851 12.553,13.583 11.815,13.886 10.840 C 14.021 10.406,14.021 9.594,13.886 9.160 C 13.581 8.179,12.809 7.405,11.861 7.129 C 11.459 7.013,10.851 6.976,10.614 7.055 M2.614 15.056 C 2.376 15.132,2.212 15.262,2.109 15.453 C 2.035 15.592,2.020 15.684,2.020 16.000 C 2.020 16.331,2.033 16.403,2.120 16.558 C 2.230 16.755,2.414 16.898,2.635 16.959 C 2.724 16.984,3.617 17.000,4.943 17.000 C 7.418 17.000,7.391 16.997,7.697 17.303 C 7.970 17.577,8.057 17.919,7.945 18.290 C 7.815 18.723,7.512 18.945,6.976 19.000 C 6.248 19.076,5.964 19.399,6.009 20.104 C 6.039 20.572,6.251 20.854,6.656 20.965 C 6.887 21.028,7.521 20.982,7.860 20.878 C 8.822 20.583,9.581 19.818,9.886 18.840 C 10.021 18.406,10.021 17.594,9.886 17.160 C 9.582 16.182,8.829 15.425,7.861 15.122 L 7.540 15.022 5.160 15.013 C 3.272 15.005,2.746 15.014,2.614 15.056 " stroke="none" fill="black" fill-rule="evenodd"></path></svg>