<svg xmlns="http://www.w3.org/2000/svg" width="24" height="24" viewBox="0 0 24 24" fill="none" stroke="currentColor" stroke-width="2" stroke-linecap="round" stroke-linejoin="round" class="icon icon-tabler icons-tabler-outline icon-tabler-circle-half"><path d="M11.080 2.045 C 9.507 2.184,7.883 2.751,6.540 3.630 C 5.905 4.045,5.499 4.378,4.919 4.958 C 2.953 6.926,1.919 9.544,2.013 12.320 C 2.084 14.439,2.752 16.328,4.033 18.040 C 4.430 18.570,5.305 19.464,5.800 19.847 C 7.242 20.961,8.787 21.624,10.600 21.907 C 11.247 22.008,12.753 22.008,13.400 21.907 C 15.638 21.557,17.504 20.620,19.062 19.062 C 20.620 17.504,21.557 15.638,21.907 13.400 C 22.008 12.753,22.008 11.247,21.907 10.600 C 21.624 8.786,20.959 7.238,19.847 5.800 C 19.510 5.365,18.639 4.494,18.200 4.154 C 16.133 2.555,13.646 1.818,11.080 2.045 M11.000 12.000 L 11.000 19.920 10.898 19.920 C 10.703 19.920,9.979 19.751,9.500 19.595 C 8.382 19.229,7.352 18.612,6.504 17.801 C 4.495 15.878,3.630 13.155,4.161 10.422 C 4.391 9.239,5.007 7.919,5.759 7.000 C 6.946 5.549,8.573 4.546,10.340 4.177 C 10.582 4.127,10.830 4.084,10.890 4.083 L 11.000 4.080 11.000 12.000 M13.586 4.163 C 15.033 4.442,16.450 5.189,17.554 6.256 C 20.043 8.658,20.702 12.394,19.183 15.499 C 18.749 16.387,18.223 17.105,17.496 17.801 C 16.648 18.612,15.618 19.229,14.500 19.595 C 14.021 19.751,13.297 19.920,13.102 19.920 L 13.000 19.920 13.000 12.000 C 13.000 4.175,13.001 4.080,13.078 4.080 C 13.121 4.080,13.349 4.117,13.586 4.163 " stroke="none" fill="black" fill-rule="evenodd"></path></svg>