<svg xmlns="http://www.w3.org/2000/svg" width="24" height="24" viewBox="0 0 24 24" fill="none" stroke="currentColor" stroke-width="2" stroke-linecap="round" stroke-linejoin="round" class="icon icon-tabler icons-tabler-outline icon-tabler-north-star"><path d="M11.614 2.057 C 11.377 2.131,11.212 2.261,11.109 2.453 L 11.020 2.620 11.009 6.098 L 10.998 9.576 9.509 8.095 C 8.550 7.141,7.963 6.586,7.860 6.537 C 7.651 6.438,7.345 6.439,7.140 6.540 C 6.926 6.644,6.614 6.961,6.519 7.170 C 6.476 7.264,6.442 7.412,6.442 7.500 C 6.442 7.838,6.528 7.943,8.091 9.510 L 9.578 11.000 6.195 11.000 C 2.577 11.000,2.603 10.999,2.322 11.199 C 2.100 11.357,2.020 11.568,2.020 12.000 C 2.020 12.331,2.033 12.403,2.120 12.558 C 2.230 12.755,2.414 12.898,2.635 12.959 C 2.727 12.985,4.025 13.000,6.179 13.000 L 9.578 13.000 8.091 14.490 C 6.988 15.596,6.584 16.026,6.523 16.160 C 6.361 16.519,6.449 16.853,6.798 17.202 C 7.150 17.553,7.483 17.641,7.837 17.474 C 7.970 17.411,8.427 16.983,9.510 15.905 L 11.000 14.422 11.000 17.821 C 11.000 19.975,11.015 21.273,11.041 21.365 C 11.148 21.750,11.437 21.962,11.896 21.991 C 12.381 22.022,12.699 21.882,12.880 21.558 L 12.980 21.380 12.991 17.903 L 13.002 14.425 14.511 15.927 C 16.160 17.568,16.193 17.594,16.584 17.550 C 16.995 17.503,17.511 16.978,17.550 16.565 C 17.586 16.194,17.530 16.123,15.905 14.490 L 14.422 13.000 17.821 13.000 C 19.975 13.000,21.273 12.985,21.365 12.959 C 21.586 12.898,21.770 12.755,21.880 12.558 C 21.967 12.402,21.980 12.332,21.979 12.000 C 21.978 11.567,21.898 11.355,21.678 11.199 C 21.397 10.999,21.423 11.000,17.805 11.000 L 14.422 11.000 15.905 9.510 C 17.527 7.880,17.586 7.806,17.551 7.438 C 17.502 6.934,16.836 6.367,16.397 6.455 C 16.101 6.514,15.944 6.649,14.491 8.094 L 13.002 9.575 12.991 6.098 L 12.980 2.620 12.891 2.453 C 12.842 2.362,12.746 2.247,12.678 2.199 C 12.414 2.010,11.957 1.950,11.614 2.057 " stroke="none" fill="black" fill-rule="evenodd"></path></svg>