<svg xmlns="http://www.w3.org/2000/svg" width="24" height="24" viewBox="0 0 24 24" fill="none" stroke="currentColor" stroke-width="2" stroke-linecap="round" stroke-linejoin="round" class="icon icon-tabler icons-tabler-outline icon-tabler-bleach-off"><path d="M2.626 2.045 C 2.420 2.154,2.146 2.433,2.038 2.644 C 1.924 2.868,1.924 3.132,2.040 3.363 C 2.101 3.486,2.826 4.239,4.410 5.827 L 6.692 8.113 6.570 8.329 C 6.503 8.448,5.499 10.182,4.339 12.182 C 3.179 14.183,2.205 15.891,2.174 15.977 C 1.996 16.479,1.951 17.104,2.058 17.606 C 2.247 18.497,2.861 19.292,3.660 19.679 C 4.333 20.006,3.601 19.977,11.519 19.990 L 18.578 20.001 19.519 20.936 C 20.114 21.527,20.525 21.903,20.637 21.960 C 20.989 22.137,21.354 22.048,21.701 21.701 C 22.048 21.354,22.137 20.989,21.959 20.637 C 21.888 20.496,20.623 19.155,19.748 18.293 C 19.700 18.245,16.033 14.588,11.600 10.167 C 6.038 4.619,3.488 2.102,3.372 2.044 C 3.152 1.934,2.834 1.935,2.626 2.045 M11.632 2.001 C 10.711 2.111,9.921 2.623,9.415 3.440 C 8.936 4.212,8.474 5.059,8.421 5.263 C 8.337 5.587,8.396 5.800,8.637 6.041 C 8.994 6.397,9.498 6.535,9.829 6.366 C 10.067 6.244,10.210 6.053,10.714 5.182 C 10.963 4.750,11.209 4.348,11.260 4.288 C 11.416 4.101,11.704 3.984,12.000 3.985 C 12.299 3.986,12.507 4.075,12.705 4.286 C 12.802 4.391,19.382 15.683,19.844 16.540 C 19.914 16.669,19.961 16.832,19.978 17.000 C 20.019 17.420,20.081 17.601,20.240 17.760 C 20.570 18.090,21.369 18.106,21.715 17.788 C 22.025 17.504,22.073 16.813,21.833 16.080 C 21.776 15.906,20.584 13.811,18.250 9.780 C 16.326 6.458,14.670 3.608,14.571 3.448 C 13.933 2.411,12.814 1.860,11.632 2.001 M15.170 17.991 C 14.406 17.996,11.737 17.996,9.240 17.991 L 4.700 17.980 4.535 17.892 C 4.113 17.666,3.887 17.108,4.055 16.706 C 4.111 16.573,8.054 9.746,8.133 9.647 C 8.165 9.607,9.137 10.557,12.367 13.787 L 16.560 17.980 15.170 17.991 " stroke="none" fill="black" fill-rule="evenodd"></path></svg>