<svg xmlns="http://www.w3.org/2000/svg" width="24" height="24" viewBox="0 0 24 24" fill="none" stroke="currentColor" stroke-width="2" stroke-linecap="round" stroke-linejoin="round" class="icon icon-tabler icons-tabler-outline icon-tabler-door-off"><path d="M2.626 2.045 C 2.420 2.154,2.146 2.433,2.038 2.644 C 1.924 2.868,1.924 3.133,2.040 3.363 C 2.100 3.481,2.603 4.016,3.565 4.981 L 5.000 6.422 5.000 13.211 L 5.000 20.000 3.906 20.000 C 2.744 20.000,2.570 20.022,2.322 20.199 C 2.139 20.329,2.030 20.573,2.009 20.900 C 1.978 21.381,2.119 21.699,2.442 21.880 L 2.620 21.980 11.780 22.006 C 16.818 22.020,20.999 22.033,21.071 22.036 C 21.223 22.041,21.668 21.848,21.768 21.735 C 21.894 21.593,22.049 21.187,22.049 20.999 C 22.049 20.717,21.851 20.319,21.635 20.169 C 21.539 20.101,20.869 19.446,20.148 18.713 C 19.426 17.980,18.796 17.341,18.748 17.293 C 18.511 17.058,6.846 5.393,6.760 5.305 C 5.632 4.159,3.503 2.111,3.372 2.045 C 3.152 1.934,2.835 1.934,2.626 2.045 M7.402 2.066 C 6.853 2.175,6.328 2.476,6.215 2.747 C 6.127 2.957,6.146 3.286,6.261 3.547 C 6.539 4.175,6.882 4.320,7.572 4.099 L 7.883 4.000 11.994 4.000 C 16.641 4.000,16.377 3.983,16.697 4.303 C 17.019 4.625,17.000 4.295,17.000 9.557 C 17.000 12.557,17.015 14.272,17.041 14.365 C 17.148 14.750,17.437 14.962,17.896 14.991 C 18.381 15.022,18.699 14.882,18.880 14.558 L 18.980 14.380 18.980 9.420 L 18.980 4.460 18.886 4.160 C 18.581 3.182,17.832 2.428,16.861 2.121 L 16.540 2.020 12.120 2.013 C 8.362 2.007,7.655 2.015,7.402 2.066 M17.000 19.210 L 17.000 20.000 12.000 20.000 L 7.000 20.000 7.000 14.210 L 7.000 8.420 12.000 13.420 L 17.000 18.420 17.000 19.210 " stroke="none" fill="black" fill-rule="evenodd"></path></svg>