<svg xmlns="http://www.w3.org/2000/svg" width="24" height="24" viewBox="0 0 24 24" fill="none" stroke="currentColor" stroke-width="2" stroke-linecap="round" stroke-linejoin="round" class="icon icon-tabler icons-tabler-outline icon-tabler-sdk"><path d="M20.535 7.090 C 20.380 7.193,20.098 7.541,19.172 8.773 L 18.005 10.326 17.992 8.973 C 17.980 7.655,17.978 7.616,17.889 7.450 C 17.724 7.140,17.329 6.970,16.874 7.011 C 16.439 7.051,16.141 7.274,16.041 7.635 C 15.986 7.833,15.986 16.167,16.041 16.365 C 16.148 16.750,16.437 16.962,16.896 16.991 C 17.381 17.022,17.699 16.882,17.880 16.558 L 17.980 16.380 17.992 15.027 L 18.005 13.674 19.172 15.227 C 20.475 16.960,20.553 17.040,20.935 17.040 C 21.304 17.039,21.789 16.735,21.963 16.394 C 22.078 16.168,22.065 15.867,21.928 15.620 C 21.867 15.510,21.246 14.660,20.548 13.730 C 19.851 12.801,19.280 12.023,19.280 12.000 C 19.280 11.977,19.851 11.199,20.548 10.270 C 21.246 9.340,21.867 8.490,21.928 8.380 C 22.202 7.886,21.963 7.344,21.346 7.057 C 21.040 6.914,20.782 6.925,20.535 7.090 M3.477 7.073 C 2.806 7.249,2.238 7.823,2.060 8.508 C 2.013 8.687,2.000 9.009,2.000 10.000 C 2.000 11.368,2.018 11.521,2.225 11.930 C 2.361 12.199,2.801 12.639,3.070 12.775 C 3.472 12.979,3.642 13.000,4.868 13.000 L 6.000 13.000 6.000 14.000 L 6.000 15.000 4.406 15.000 C 2.710 15.000,2.584 15.012,2.322 15.199 C 2.100 15.357,2.020 15.568,2.020 16.000 C 2.020 16.331,2.033 16.403,2.120 16.558 C 2.230 16.755,2.414 16.898,2.635 16.959 C 2.722 16.983,3.478 17.000,4.522 17.000 C 6.409 17.000,6.503 16.991,6.930 16.775 C 7.196 16.640,7.638 16.200,7.771 15.937 C 7.979 15.527,8.000 15.352,7.999 14.014 C 7.999 12.682,7.974 12.463,7.781 12.083 C 7.646 11.816,7.297 11.449,7.017 11.281 C 6.609 11.035,6.405 11.005,5.130 11.002 L 4.000 11.000 4.000 10.000 L 4.000 9.000 5.610 9.000 C 6.565 9.000,7.279 8.983,7.365 8.959 C 7.586 8.898,7.770 8.755,7.880 8.558 C 7.967 8.402,7.980 8.332,7.979 8.000 C 7.978 7.567,7.898 7.355,7.678 7.199 C 7.413 7.010,7.301 7.000,5.464 7.002 C 3.968 7.004,3.705 7.014,3.477 7.073 M9.614 7.056 C 9.376 7.133,9.212 7.262,9.109 7.453 L 9.020 7.620 9.009 11.913 C 9.002 14.727,9.013 16.258,9.039 16.357 C 9.100 16.584,9.242 16.768,9.442 16.880 L 9.620 16.980 11.080 16.980 C 12.499 16.980,12.548 16.977,12.840 16.886 C 13.827 16.578,14.578 15.827,14.886 14.840 L 14.980 14.540 14.980 12.000 L 14.980 9.460 14.886 9.160 C 14.581 8.181,13.825 7.421,12.861 7.124 C 12.550 7.028,12.498 7.024,11.160 7.013 C 10.090 7.005,9.743 7.014,9.614 7.056 M12.310 9.061 C 12.589 9.144,12.856 9.411,12.939 9.690 C 13.025 9.978,13.030 14.007,12.945 14.290 C 12.872 14.533,12.707 14.740,12.484 14.872 C 12.308 14.975,12.272 14.981,11.650 14.993 L 11.000 15.007 11.000 12.003 L 11.000 9.000 11.553 9.000 C 11.931 9.000,12.170 9.019,12.310 9.061 " stroke="none" fill="black" fill-rule="evenodd"></path></svg>