<svg xmlns="http://www.w3.org/2000/svg" width="24" height="24" viewBox="0 0 24 24" fill="none" stroke="currentColor" stroke-width="2" stroke-linecap="round" stroke-linejoin="round" class="icon icon-tabler icons-tabler-outline icon-tabler-topology-star-ring-3"><path d="M7.499 2.040 C 6.363 2.246,5.460 3.049,5.114 4.160 C 4.979 4.594,4.979 5.407,5.114 5.839 C 5.234 6.221,5.391 6.530,5.597 6.791 C 5.686 6.905,5.760 7.012,5.760 7.029 C 5.760 7.046,5.468 7.498,5.110 8.034 L 4.460 9.008 3.960 9.019 C 3.571 9.027,3.389 9.051,3.139 9.126 C 2.182 9.414,1.419 10.180,1.114 11.160 C 0.979 11.594,0.979 12.406,1.114 12.840 C 1.418 13.817,2.167 14.572,3.140 14.881 C 3.356 14.950,3.539 14.973,3.940 14.983 L 4.460 14.996 5.110 15.968 C 5.468 16.502,5.760 16.954,5.760 16.971 C 5.760 16.988,5.686 17.095,5.597 17.209 C 5.391 17.470,5.234 17.779,5.114 18.161 C 4.979 18.593,4.979 19.406,5.114 19.840 C 5.421 20.826,6.174 21.579,7.160 21.886 C 7.594 22.021,8.406 22.021,8.840 21.886 C 9.645 21.635,10.318 21.069,10.688 20.330 L 10.853 20.000 12.000 20.000 L 13.147 20.000 13.312 20.330 C 13.682 21.069,14.355 21.635,15.160 21.886 C 15.594 22.021,16.406 22.021,16.840 21.886 C 17.826 21.579,18.579 20.826,18.886 19.840 C 19.021 19.406,19.021 18.593,18.886 18.161 C 18.766 17.779,18.609 17.470,18.403 17.209 C 18.314 17.095,18.240 16.988,18.240 16.971 C 18.240 16.954,18.532 16.502,18.890 15.968 L 19.540 14.996 20.060 14.983 C 20.461 14.973,20.644 14.950,20.860 14.881 C 21.833 14.572,22.582 13.817,22.886 12.840 C 23.021 12.406,23.021 11.594,22.886 11.160 C 22.581 10.180,21.818 9.414,20.861 9.126 C 20.611 9.051,20.429 9.027,20.040 9.019 L 19.540 9.008 18.890 8.034 C 18.532 7.498,18.240 7.046,18.240 7.029 C 18.240 7.012,18.314 6.905,18.403 6.791 C 18.609 6.530,18.766 6.221,18.886 5.839 C 19.021 5.407,19.021 4.594,18.886 4.160 C 18.581 3.181,17.822 2.418,16.861 2.125 C 16.588 2.042,16.458 2.027,16.000 2.027 C 15.542 2.027,15.412 2.042,15.139 2.125 C 14.358 2.363,13.679 2.938,13.312 3.670 L 13.147 4.000 12.000 4.000 L 10.853 4.000 10.688 3.670 C 10.320 2.935,9.631 2.354,8.861 2.129 C 8.500 2.023,7.832 1.980,7.499 2.040 M8.310 4.061 C 8.688 4.173,9.000 4.598,9.000 5.001 C 9.000 5.331,8.784 5.696,8.484 5.872 C 8.328 5.963,8.254 5.980,8.000 5.980 C 7.746 5.980,7.672 5.963,7.516 5.872 C 6.932 5.528,6.831 4.775,7.307 4.299 C 7.582 4.024,7.918 3.944,8.310 4.061 M16.310 4.061 C 16.688 4.173,17.000 4.598,17.000 5.001 C 17.000 5.331,16.784 5.696,16.484 5.872 C 16.328 5.963,16.254 5.980,16.000 5.980 C 15.746 5.980,15.672 5.963,15.516 5.872 C 14.932 5.528,14.831 4.775,15.307 4.299 C 15.582 4.024,15.918 3.944,16.310 4.061 M13.267 6.250 C 13.329 6.388,13.465 6.613,13.570 6.752 C 13.674 6.891,13.760 7.017,13.760 7.032 C 13.760 7.048,13.467 7.499,13.109 8.036 L 12.459 9.011 12.003 9.016 L 11.547 9.020 10.911 8.067 C 10.561 7.543,10.266 7.091,10.255 7.062 C 10.244 7.034,10.322 6.895,10.428 6.755 C 10.534 6.615,10.671 6.388,10.733 6.250 L 10.844 6.000 12.000 6.000 L 13.156 6.000 13.267 6.250 M9.110 8.966 C 9.467 9.501,9.760 9.952,9.760 9.968 C 9.760 9.983,9.674 10.109,9.570 10.248 C 9.465 10.387,9.329 10.613,9.267 10.750 L 9.156 11.000 8.000 11.000 L 6.844 11.000 6.733 10.750 C 6.671 10.613,6.534 10.385,6.428 10.245 C 6.322 10.105,6.244 9.966,6.255 9.938 C 6.266 9.909,6.561 9.457,6.911 8.933 L 7.547 7.980 8.004 7.986 L 8.460 7.991 9.110 8.966 M17.110 8.966 C 17.468 9.501,17.760 9.952,17.760 9.968 C 17.760 9.983,17.674 10.109,17.570 10.248 C 17.465 10.387,17.329 10.613,17.267 10.750 L 17.156 11.000 16.000 11.000 L 14.844 11.000 14.733 10.750 C 14.671 10.613,14.534 10.385,14.428 10.245 C 14.322 10.105,14.244 9.966,14.255 9.938 C 14.266 9.909,14.561 9.457,14.911 8.933 L 15.547 7.980 16.004 7.986 L 16.460 7.991 17.110 8.966 M4.310 11.061 C 4.688 11.173,5.000 11.598,5.000 12.001 C 5.000 12.331,4.784 12.696,4.484 12.872 C 4.328 12.963,4.254 12.980,4.000 12.980 C 3.746 12.980,3.672 12.963,3.516 12.872 C 2.935 12.530,2.833 11.774,3.304 11.303 C 3.583 11.024,3.916 10.944,4.310 11.061 M12.310 11.061 C 12.688 11.173,13.000 11.598,13.000 12.001 C 13.000 12.331,12.784 12.696,12.484 12.872 C 12.328 12.963,12.254 12.980,12.000 12.980 C 11.746 12.980,11.672 12.963,11.516 12.872 C 10.935 12.530,10.833 11.774,11.304 11.303 C 11.583 11.024,11.916 10.944,12.310 11.061 M20.310 11.061 C 20.688 11.173,21.000 11.598,21.000 12.001 C 21.000 12.331,20.784 12.696,20.484 12.872 C 20.328 12.963,20.254 12.980,20.000 12.980 C 19.746 12.980,19.672 12.963,19.516 12.872 C 18.935 12.530,18.833 11.774,19.304 11.303 C 19.583 11.024,19.916 10.944,20.310 11.061 M9.267 13.250 C 9.329 13.388,9.465 13.613,9.570 13.752 C 9.674 13.891,9.760 14.017,9.760 14.032 C 9.760 14.048,9.467 14.499,9.109 15.036 L 8.459 16.011 8.003 16.016 L 7.547 16.020 6.911 15.067 C 6.561 14.543,6.266 14.091,6.255 14.062 C 6.244 14.034,6.322 13.895,6.428 13.755 C 6.534 13.615,6.671 13.388,6.733 13.250 L 6.844 13.000 8.000 13.000 L 9.156 13.000 9.267 13.250 M17.267 13.250 C 17.329 13.388,17.465 13.613,17.570 13.752 C 17.674 13.891,17.760 14.017,17.760 14.032 C 17.760 14.048,17.467 14.499,17.109 15.036 L 16.459 16.011 16.003 16.016 L 15.547 16.020 14.911 15.067 C 14.561 14.543,14.266 14.091,14.255 14.062 C 14.244 14.034,14.322 13.895,14.428 13.755 C 14.534 13.615,14.671 13.388,14.733 13.250 L 14.844 13.000 16.000 13.000 L 17.156 13.000 17.267 13.250 M13.110 15.966 C 13.468 16.501,13.760 16.952,13.760 16.968 C 13.760 16.983,13.674 17.109,13.570 17.248 C 13.465 17.387,13.329 17.613,13.267 17.750 L 13.156 18.000 12.000 18.000 L 10.844 18.000 10.733 17.750 C 10.671 17.613,10.534 17.385,10.428 17.245 C 10.322 17.105,10.244 16.966,10.255 16.938 C 10.266 16.909,10.561 16.457,10.911 15.933 L 11.547 14.980 12.004 14.986 L 12.460 14.991 13.110 15.966 M8.310 18.061 C 8.688 18.173,9.000 18.598,9.000 19.001 C 9.000 19.331,8.784 19.696,8.484 19.872 C 8.328 19.963,8.254 19.980,8.000 19.980 C 7.746 19.980,7.672 19.963,7.516 19.872 C 6.935 19.530,6.833 18.774,7.304 18.303 C 7.583 18.024,7.916 17.944,8.310 18.061 M16.310 18.061 C 16.688 18.173,17.000 18.598,17.000 19.001 C 17.000 19.331,16.784 19.696,16.484 19.872 C 16.328 19.963,16.254 19.980,16.000 19.980 C 15.746 19.980,15.672 19.963,15.516 19.872 C 14.932 19.528,14.831 18.775,15.307 18.299 C 15.582 18.024,15.918 17.944,16.310 18.061 " stroke="none" fill="black" fill-rule="evenodd"></path></svg>