<svg xmlns="http://www.w3.org/2000/svg" width="24" height="24" viewBox="0 0 24 24" fill="none" stroke="currentColor" stroke-width="2" stroke-linecap="round" stroke-linejoin="round" class="icon icon-tabler icons-tabler-outline icon-tabler-cloud-check"><path d="M11.320 4.044 C 10.902 4.092,10.295 4.225,9.864 4.364 C 9.364 4.525,8.537 4.945,8.080 5.270 C 7.615 5.601,6.942 6.268,6.620 6.720 C 6.388 7.045,5.920 7.917,5.920 8.025 C 5.920 8.055,5.879 8.086,5.830 8.095 C 4.523 8.335,3.578 8.793,2.695 9.615 C 2.245 10.034,1.884 10.528,1.580 11.140 C 1.187 11.930,1.000 12.701,1.001 13.520 C 1.004 15.982,2.739 18.176,5.180 18.805 C 5.904 18.991,6.042 18.999,8.700 18.999 C 10.267 18.999,11.275 18.984,11.365 18.959 C 11.586 18.898,11.770 18.755,11.880 18.558 C 11.967 18.403,11.980 18.331,11.980 17.997 C 11.980 17.641,11.972 17.600,11.860 17.419 C 11.774 17.281,11.682 17.195,11.541 17.122 L 11.342 17.020 8.681 16.997 C 5.800 16.972,5.931 16.982,5.296 16.748 C 4.583 16.486,3.846 15.867,3.456 15.204 C 2.716 13.942,2.909 12.310,3.930 11.219 C 4.609 10.493,5.432 10.119,6.515 10.043 C 7.289 9.990,7.456 9.857,7.668 9.124 C 7.927 8.227,8.426 7.509,9.179 6.949 C 10.607 5.887,12.648 5.706,14.265 6.498 C 15.998 7.347,16.860 8.915,16.583 10.715 C 16.510 11.183,16.520 11.323,16.644 11.567 C 16.739 11.753,16.905 11.871,17.207 11.965 C 17.402 12.026,17.576 12.040,18.137 12.040 C 18.923 12.040,19.264 12.103,19.693 12.328 C 20.042 12.511,20.502 12.981,20.718 13.375 C 20.942 13.783,21.083 13.939,21.302 14.023 C 21.640 14.152,22.171 13.994,22.485 13.670 C 22.778 13.368,22.783 13.016,22.501 12.465 C 21.823 11.134,20.453 10.195,18.994 10.060 C 18.647 10.028,18.642 10.021,18.640 9.660 C 18.638 8.844,18.168 7.546,17.573 6.710 C 17.259 6.270,16.583 5.600,16.119 5.271 C 15.656 4.942,14.829 4.522,14.327 4.360 C 13.389 4.059,12.251 3.939,11.320 4.044 M20.620 16.046 C 20.525 16.095,19.753 16.834,18.731 17.853 L 17.001 19.577 16.271 18.854 C 15.856 18.444,15.467 18.094,15.372 18.045 C 15.021 17.868,14.640 17.958,14.299 18.299 C 13.952 18.646,13.863 19.010,14.040 19.363 C 14.162 19.607,16.393 21.838,16.637 21.960 C 16.868 22.076,17.132 22.076,17.363 21.961 C 17.486 21.899,18.197 21.215,19.706 19.706 C 21.215 18.197,21.899 17.486,21.961 17.363 C 22.137 17.010,22.048 16.645,21.701 16.299 C 21.361 15.959,20.967 15.867,20.620 16.046 " stroke="none" fill="black" fill-rule="evenodd"></path></svg>