<svg xmlns="http://www.w3.org/2000/svg" width="24" height="24" viewBox="0 0 24 24" fill="none" stroke="currentColor" stroke-width="2" stroke-linecap="round" stroke-linejoin="round" class="icon icon-tabler icons-tabler-outline icon-tabler-border-style-2"><path d="M3.614 5.057 C 3.377 5.131,3.212 5.261,3.109 5.453 C 3.035 5.592,3.020 5.684,3.020 6.000 C 3.020 6.331,3.033 6.403,3.120 6.558 C 3.230 6.755,3.414 6.898,3.635 6.959 C 3.835 7.015,20.165 7.015,20.365 6.959 C 20.586 6.898,20.770 6.755,20.880 6.558 C 20.967 6.402,20.980 6.332,20.979 6.000 C 20.978 5.567,20.898 5.355,20.678 5.199 C 20.386 4.990,20.799 5.000,11.984 5.003 C 5.367 5.005,3.748 5.015,3.614 5.057 M3.614 11.057 C 3.377 11.131,3.212 11.261,3.109 11.453 C 3.035 11.592,3.020 11.684,3.020 12.000 C 3.020 12.331,3.033 12.403,3.120 12.558 C 3.230 12.755,3.414 12.898,3.635 12.959 C 3.826 13.012,6.174 13.012,6.365 12.959 C 6.586 12.898,6.770 12.755,6.880 12.558 C 6.967 12.402,6.980 12.332,6.979 12.000 C 6.978 11.687,6.962 11.591,6.890 11.453 C 6.786 11.256,6.623 11.131,6.371 11.055 C 6.117 10.979,3.859 10.981,3.614 11.057 M10.614 11.057 C 10.377 11.131,10.212 11.261,10.109 11.453 C 10.035 11.592,10.020 11.684,10.020 12.000 C 10.020 12.331,10.033 12.403,10.120 12.558 C 10.230 12.755,10.414 12.898,10.635 12.959 C 10.826 13.012,13.174 13.012,13.365 12.959 C 13.586 12.898,13.770 12.755,13.880 12.558 C 13.967 12.402,13.980 12.332,13.979 12.000 C 13.978 11.687,13.962 11.591,13.890 11.453 C 13.786 11.256,13.623 11.131,13.371 11.055 C 13.117 10.979,10.859 10.981,10.614 11.057 M17.614 11.057 C 17.377 11.131,17.212 11.261,17.109 11.453 C 17.035 11.592,17.020 11.684,17.020 12.000 C 17.020 12.331,17.033 12.403,17.120 12.558 C 17.230 12.755,17.414 12.898,17.635 12.959 C 17.826 13.012,20.174 13.012,20.365 12.959 C 20.586 12.898,20.770 12.755,20.880 12.558 C 20.967 12.402,20.980 12.332,20.979 12.000 C 20.978 11.687,20.962 11.591,20.890 11.453 C 20.786 11.256,20.623 11.131,20.371 11.055 C 20.117 10.979,17.859 10.981,17.614 11.057 M3.614 17.057 C 3.221 17.180,3.039 17.435,3.009 17.906 C 2.962 18.621,3.306 19.000,4.000 19.000 C 4.698 19.000,5.043 18.616,4.989 17.900 C 4.963 17.563,4.859 17.327,4.678 17.199 C 4.414 17.010,3.957 16.950,3.614 17.057 M7.614 17.057 C 7.221 17.180,7.039 17.435,7.009 17.906 C 6.962 18.621,7.306 19.000,8.000 19.000 C 8.698 19.000,9.043 18.616,8.989 17.900 C 8.963 17.563,8.859 17.327,8.678 17.199 C 8.414 17.010,7.957 16.950,7.614 17.057 M11.614 17.057 C 11.221 17.180,11.039 17.435,11.009 17.906 C 10.962 18.621,11.306 19.000,12.000 19.000 C 12.698 19.000,13.043 18.616,12.989 17.900 C 12.963 17.563,12.859 17.327,12.678 17.199 C 12.414 17.010,11.957 16.950,11.614 17.057 M15.614 17.057 C 15.221 17.180,15.039 17.435,15.009 17.906 C 14.962 18.621,15.306 19.000,16.000 19.000 C 16.698 19.000,17.043 18.616,16.989 17.900 C 16.963 17.563,16.859 17.327,16.678 17.199 C 16.414 17.010,15.957 16.950,15.614 17.057 M19.614 17.057 C 19.221 17.180,19.039 17.435,19.009 17.906 C 18.962 18.621,19.306 19.000,20.000 19.000 C 20.698 19.000,21.043 18.616,20.989 17.900 C 20.963 17.563,20.859 17.327,20.678 17.199 C 20.414 17.010,19.957 16.950,19.614 17.057 " stroke="none" fill="black" fill-rule="evenodd"></path></svg>