<svg xmlns="http://www.w3.org/2000/svg" width="24" height="24" viewBox="0 0 24 24" fill="none" stroke="currentColor" stroke-width="2" stroke-linecap="round" stroke-linejoin="round" class="icon icon-tabler icons-tabler-outline icon-tabler-home-cancel"><path d="M11.620 2.046 C 11.382 2.168,2.155 11.405,2.039 11.637 C 1.830 12.056,2.036 12.589,2.514 12.871 C 2.693 12.976,2.726 12.981,3.348 12.993 L 3.997 13.007 4.009 16.293 L 4.021 19.580 4.114 19.860 C 4.442 20.839,5.161 21.559,6.140 21.886 L 6.420 21.979 9.520 21.992 C 11.763 22.002,12.679 21.993,12.833 21.959 C 13.262 21.866,13.486 21.537,13.486 21.000 C 13.486 20.491,13.304 20.196,12.909 20.064 C 12.748 20.010,12.497 20.000,11.359 20.000 L 10.000 20.000 10.000 17.447 C 10.000 14.538,9.993 14.614,10.303 14.303 C 10.586 14.020,10.697 14.000,12.000 14.000 C 13.333 14.000,13.384 14.010,13.781 14.361 C 14.127 14.666,14.367 14.750,14.651 14.665 C 15.107 14.527,15.521 14.045,15.520 13.651 C 15.519 13.224,15.004 12.659,14.311 12.323 C 13.677 12.016,13.477 11.990,11.826 12.009 C 10.510 12.024,10.448 12.028,10.139 12.124 C 9.186 12.418,8.442 13.159,8.115 14.140 L 8.021 14.420 8.009 17.213 L 7.996 20.007 7.348 19.993 C 6.728 19.981,6.692 19.975,6.516 19.872 C 6.328 19.761,6.158 19.572,6.070 19.373 C 6.032 19.286,6.015 18.375,6.000 15.440 L 5.980 11.620 5.890 11.451 C 5.803 11.289,5.556 11.080,5.451 11.080 C 5.423 11.080,5.400 11.066,5.400 11.050 C 5.400 11.033,6.885 9.535,8.700 7.720 L 12.000 4.420 15.300 7.720 C 17.115 9.535,18.599 11.029,18.598 11.040 C 18.597 11.051,18.521 11.097,18.428 11.143 C 18.121 11.293,17.978 11.621,18.009 12.104 C 18.038 12.563,18.250 12.852,18.635 12.959 C 18.826 13.012,21.174 13.012,21.365 12.959 C 21.587 12.898,21.770 12.755,21.879 12.558 C 21.963 12.408,21.979 12.327,21.979 12.040 C 21.980 11.742,21.967 11.678,21.873 11.520 C 21.715 11.256,12.586 2.151,12.372 2.044 C 12.151 1.934,11.836 1.935,11.620 2.046 M18.358 15.061 C 17.230 15.237,16.143 15.974,15.569 16.953 C 14.320 19.083,15.233 21.785,17.512 22.704 C 19.558 23.528,21.877 22.538,22.704 20.488 C 23.090 19.530,23.090 18.469,22.705 17.516 C 22.172 16.197,21.001 15.269,19.605 15.058 C 19.144 14.989,18.816 14.990,18.358 15.061 M19.470 17.057 C 19.485 17.071,18.954 17.626,18.290 18.290 C 17.626 18.954,17.072 19.486,17.059 19.472 C 17.045 19.459,17.024 19.314,17.012 19.150 C 16.940 18.202,17.563 17.318,18.477 17.071 C 18.735 17.001,19.405 16.991,19.470 17.057 M20.982 18.784 C 21.047 19.396,20.844 19.961,20.398 20.410 C 20.104 20.705,19.779 20.885,19.404 20.963 C 19.181 21.010,18.584 20.997,18.532 20.945 C 18.504 20.918,20.872 18.520,20.927 18.520 C 20.941 18.520,20.966 18.639,20.982 18.784 " stroke="none" fill="black" fill-rule="evenodd"></path></svg>