<svg xmlns="http://www.w3.org/2000/svg" width="24" height="24" viewBox="0 0 24 24" fill="none" stroke="currentColor" stroke-width="2" stroke-linecap="round" stroke-linejoin="round" class="icon icon-tabler icons-tabler-outline icon-tabler-soup"><path d="M7.657 3.055 C 7.378 3.185,6.935 3.576,6.686 3.912 C 6.442 4.241,6.198 4.747,6.095 5.140 C 5.992 5.534,5.992 6.466,6.095 6.860 C 6.323 7.726,6.962 8.591,7.616 8.921 C 8.033 9.131,8.383 9.065,8.697 8.718 C 9.017 8.363,9.123 7.920,8.963 7.606 C 8.921 7.523,8.750 7.334,8.584 7.185 C 8.355 6.980,8.251 6.851,8.151 6.648 C 8.031 6.403,8.020 6.351,8.020 6.000 C 8.020 5.649,8.031 5.597,8.151 5.352 C 8.251 5.149,8.355 5.020,8.584 4.815 C 8.750 4.666,8.921 4.477,8.963 4.394 C 9.171 3.987,8.934 3.385,8.443 3.073 C 8.212 2.927,7.946 2.921,7.657 3.055 M11.657 3.055 C 11.378 3.185,10.935 3.576,10.686 3.912 C 10.442 4.241,10.198 4.747,10.095 5.140 C 9.992 5.534,9.992 6.466,10.095 6.860 C 10.323 7.726,10.962 8.591,11.616 8.921 C 12.033 9.131,12.383 9.065,12.697 8.718 C 13.017 8.363,13.123 7.920,12.963 7.606 C 12.921 7.523,12.750 7.334,12.584 7.185 C 12.355 6.980,12.251 6.851,12.151 6.648 C 12.031 6.403,12.020 6.351,12.020 6.000 C 12.020 5.649,12.031 5.597,12.151 5.352 C 12.251 5.149,12.355 5.020,12.584 4.815 C 12.750 4.666,12.921 4.477,12.963 4.394 C 13.171 3.987,12.934 3.385,12.443 3.073 C 12.212 2.927,11.946 2.921,11.657 3.055 M15.657 3.055 C 15.179 3.278,14.613 3.902,14.324 4.526 C 14.078 5.056,14.021 5.331,14.021 6.000 C 14.021 6.669,14.078 6.944,14.324 7.474 C 14.719 8.327,15.504 9.040,16.048 9.040 C 16.292 9.040,16.499 8.937,16.697 8.718 C 17.017 8.363,17.123 7.920,16.963 7.606 C 16.921 7.523,16.750 7.334,16.584 7.185 C 16.355 6.980,16.251 6.851,16.151 6.648 C 16.031 6.403,16.020 6.351,16.020 6.000 C 16.020 5.649,16.031 5.597,16.151 5.352 C 16.251 5.149,16.355 5.020,16.584 4.815 C 16.750 4.666,16.921 4.477,16.963 4.394 C 17.171 3.987,16.934 3.385,16.443 3.073 C 16.212 2.927,15.946 2.921,15.657 3.055 M3.477 10.073 C 2.780 10.255,2.184 10.886,2.037 11.596 C 1.959 11.971,2.011 12.946,2.133 13.411 C 2.396 14.411,3.139 15.919,4.001 17.200 C 4.424 17.830,4.937 18.457,5.470 18.996 L 6.000 19.533 6.000 19.898 C 6.000 20.550,6.169 20.977,6.596 21.404 C 6.882 21.690,7.148 21.847,7.508 21.940 C 7.851 22.030,16.149 22.030,16.492 21.940 C 16.852 21.847,17.118 21.690,17.404 21.404 C 17.832 20.976,18.000 20.545,18.000 19.872 L 18.000 19.495 18.215 19.309 C 18.623 18.958,19.441 17.954,20.001 17.120 C 20.651 16.152,21.313 14.926,21.621 14.120 C 21.899 13.393,21.967 13.078,21.988 12.420 C 22.018 11.517,21.901 11.122,21.465 10.653 C 21.198 10.366,20.870 10.164,20.523 10.073 C 20.279 10.009,19.679 10.005,12.000 10.005 C 4.321 10.005,3.721 10.009,3.477 10.073 M20.000 12.294 C 20.000 12.664,19.899 13.060,19.660 13.620 C 18.948 15.295,17.464 17.420,16.517 18.122 C 16.344 18.251,16.197 18.399,16.129 18.514 C 16.024 18.693,16.019 18.726,16.007 19.350 L 15.993 20.000 12.000 20.000 L 8.007 20.000 7.993 19.350 C 7.981 18.728,7.975 18.692,7.872 18.516 C 7.803 18.399,7.651 18.248,7.452 18.099 C 6.514 17.398,5.403 15.889,4.596 14.220 C 4.161 13.320,4.032 12.924,4.009 12.410 L 3.990 12.000 11.995 12.000 L 20.000 12.000 20.000 12.294 " stroke="none" fill="black" fill-rule="evenodd"></path></svg>