<svg xmlns="http://www.w3.org/2000/svg" width="24" height="24" viewBox="0 0 24 24" fill="none" stroke="currentColor" stroke-width="2" stroke-linecap="round" stroke-linejoin="round" class="icon icon-tabler icons-tabler-outline icon-tabler-report-search"><path d="M9.499 2.042 C 8.560 2.206,7.740 2.816,7.314 3.666 L 7.151 3.991 6.306 4.010 C 5.558 4.026,5.423 4.040,5.139 4.125 C 4.180 4.416,3.420 5.180,3.114 6.160 L 3.020 6.460 3.020 13.000 L 3.020 19.540 3.114 19.840 C 3.418 20.816,4.150 21.555,5.140 21.886 L 5.420 21.979 8.654 21.991 C 12.302 22.005,12.191 22.013,12.452 21.723 C 12.622 21.536,12.680 21.351,12.680 21.000 C 12.680 20.531,12.554 20.284,12.225 20.108 L 12.060 20.020 8.880 20.000 L 5.700 19.980 5.516 19.872 C 5.415 19.813,5.284 19.700,5.225 19.623 C 4.987 19.311,5.000 19.701,5.000 13.022 C 5.000 6.123,4.977 6.629,5.303 6.303 C 5.561 6.046,5.744 6.000,6.521 6.000 L 7.147 6.000 7.312 6.330 C 7.682 7.068,8.354 7.635,9.160 7.886 C 9.453 7.978,9.497 7.980,11.000 7.980 C 12.503 7.980,12.547 7.978,12.840 7.886 C 13.646 7.635,14.318 7.068,14.688 6.330 L 14.853 6.000 15.479 6.000 C 16.256 6.000,16.439 6.046,16.697 6.303 C 17.008 6.615,17.000 6.526,17.000 9.557 C 17.000 11.218,17.016 12.274,17.041 12.365 C 17.148 12.750,17.437 12.962,17.896 12.991 C 18.381 13.022,18.699 12.882,18.880 12.558 L 18.980 12.380 18.980 9.420 L 18.980 6.460 18.886 6.160 C 18.580 5.180,17.820 4.416,16.861 4.125 C 16.577 4.040,16.442 4.026,15.694 4.010 L 14.849 3.991 14.686 3.666 C 14.322 2.939,13.643 2.365,12.861 2.124 C 12.548 2.027,12.504 2.024,11.120 2.015 C 10.339 2.010,9.609 2.022,9.499 2.042 M12.310 4.061 C 12.688 4.173,13.000 4.598,13.000 5.001 C 13.000 5.331,12.784 5.696,12.484 5.872 L 12.300 5.980 11.000 5.980 L 9.700 5.980 9.516 5.872 C 8.935 5.530,8.833 4.774,9.304 4.303 C 9.584 4.022,9.675 4.006,10.983 4.003 C 11.878 4.001,12.147 4.012,12.310 4.061 M7.614 10.057 C 7.377 10.131,7.212 10.261,7.109 10.453 C 7.035 10.592,7.020 10.684,7.020 11.000 C 7.020 11.331,7.033 11.403,7.120 11.558 C 7.230 11.755,7.414 11.898,7.635 11.959 C 7.831 12.014,12.169 12.014,12.365 11.959 C 12.586 11.898,12.770 11.755,12.880 11.558 C 12.967 11.402,12.980 11.332,12.979 11.000 C 12.978 10.567,12.898 10.355,12.678 10.199 C 12.406 10.005,12.336 10.000,9.984 10.003 C 8.293 10.005,7.741 10.017,7.614 10.057 M7.614 14.057 C 7.377 14.131,7.212 14.261,7.109 14.453 C 7.035 14.592,7.020 14.684,7.020 15.000 C 7.020 15.331,7.033 15.403,7.120 15.558 C 7.230 15.755,7.414 15.898,7.635 15.959 C 7.722 15.983,8.470 16.000,9.500 16.000 C 10.530 16.000,11.278 15.983,11.365 15.959 C 11.586 15.898,11.770 15.755,11.880 15.558 C 11.967 15.402,11.980 15.332,11.979 15.000 C 11.978 14.687,11.962 14.591,11.890 14.453 C 11.786 14.256,11.623 14.131,11.371 14.055 C 11.114 13.978,7.862 13.980,7.614 14.057 M15.873 14.060 C 15.136 14.200,14.468 14.565,13.958 15.105 C 13.559 15.527,13.314 15.957,13.133 16.548 C 13.038 16.863,13.026 16.963,13.026 17.500 C 13.026 18.037,13.038 18.137,13.133 18.452 C 13.501 19.656,14.345 20.501,15.548 20.866 C 15.857 20.960,15.971 20.973,16.480 20.976 C 17.108 20.979,17.431 20.916,17.932 20.691 L 18.164 20.587 19.312 21.729 C 20.530 22.940,20.670 23.049,21.000 23.049 C 21.477 23.049,22.049 22.477,22.049 22.000 C 22.049 21.670,21.940 21.530,20.729 20.312 L 19.587 19.164 19.691 18.932 C 20.354 17.449,19.903 15.699,18.602 14.712 C 18.268 14.459,17.784 14.224,17.378 14.118 C 16.959 14.009,16.280 13.983,15.873 14.060 M17.119 16.143 C 17.417 16.279,17.727 16.592,17.865 16.896 C 17.960 17.105,17.976 17.192,17.976 17.500 C 17.976 17.808,17.960 17.895,17.865 18.104 C 17.725 18.413,17.417 18.720,17.100 18.868 C 16.893 18.965,16.810 18.980,16.500 18.980 C 16.190 18.980,16.107 18.965,15.900 18.868 C 15.583 18.720,15.275 18.413,15.135 18.104 C 15.040 17.896,15.024 17.808,15.024 17.500 C 15.023 17.191,15.039 17.106,15.134 16.900 C 15.327 16.478,15.749 16.129,16.174 16.039 C 16.441 15.982,16.870 16.030,17.119 16.143 " stroke="none" fill="black" fill-rule="evenodd"></path></svg>