<svg xmlns="http://www.w3.org/2000/svg" width="24" height="24" viewBox="0 0 24 24" fill="none" stroke="currentColor" stroke-width="2" stroke-linecap="round" stroke-linejoin="round" class="icon icon-tabler icons-tabler-outline icon-tabler-lock-off"><path d="M2.626 2.045 C 2.420 2.154,2.146 2.433,2.038 2.644 C 1.924 2.868,1.924 3.132,2.040 3.363 C 2.101 3.486,2.866 4.279,4.564 5.981 L 7.000 8.421 7.000 9.206 L 7.000 9.990 6.714 10.018 C 5.495 10.138,4.485 10.970,4.114 12.160 L 4.020 12.460 4.020 16.000 L 4.020 19.540 4.114 19.840 C 4.422 20.827,5.173 21.578,6.160 21.886 L 6.460 21.980 12.000 21.980 L 17.540 21.980 17.839 21.886 C 18.394 21.712,18.773 21.473,19.196 21.033 L 19.397 20.823 19.928 21.346 C 20.221 21.633,20.540 21.909,20.637 21.959 C 20.988 22.137,21.353 22.049,21.701 21.701 C 22.048 21.354,22.137 20.989,21.959 20.637 C 21.888 20.496,20.623 19.155,19.748 18.293 C 19.651 18.197,11.921 10.468,11.760 10.305 C 11.705 10.250,11.030 9.575,10.260 8.805 C 9.490 8.036,8.815 7.361,8.760 7.305 C 8.705 7.250,7.508 6.062,6.100 4.667 C 4.415 2.996,3.482 2.100,3.372 2.044 C 3.152 1.934,2.835 1.935,2.626 2.045 M11.440 2.024 C 10.631 2.173,10.278 2.282,9.750 2.544 C 9.268 2.782,8.961 2.999,8.566 3.377 C 7.777 4.134,7.529 4.667,7.758 5.115 C 7.916 5.426,8.354 5.717,8.710 5.747 C 9.046 5.776,9.221 5.668,9.619 5.187 C 9.796 4.973,10.046 4.718,10.176 4.619 C 11.026 3.969,12.160 3.830,13.185 4.250 C 14.090 4.621,14.797 5.526,14.957 6.520 C 14.982 6.670,15.000 7.456,15.000 8.381 L 15.000 9.982 14.756 10.028 C 14.450 10.086,14.227 10.232,14.111 10.450 C 14.035 10.592,14.020 10.682,14.020 11.000 C 14.020 11.331,14.033 11.403,14.120 11.558 C 14.230 11.755,14.414 11.898,14.635 11.959 C 14.717 11.982,15.287 12.000,15.943 12.000 C 17.308 12.000,17.412 12.018,17.697 12.303 C 17.982 12.588,18.000 12.692,18.000 14.057 C 18.000 14.713,18.018 15.283,18.041 15.365 C 18.148 15.750,18.437 15.962,18.896 15.991 C 19.381 16.022,19.699 15.882,19.880 15.558 L 19.980 15.380 19.980 13.920 C 19.980 12.501,19.977 12.452,19.886 12.160 C 19.705 11.578,19.391 11.107,18.911 10.695 C 18.474 10.320,17.893 10.078,17.289 10.018 L 17.006 9.990 16.989 8.125 C 16.974 6.567,16.961 6.214,16.905 5.980 C 16.667 4.980,16.268 4.242,15.572 3.518 C 14.881 2.798,13.993 2.312,12.980 2.099 C 12.673 2.034,11.654 1.985,11.440 2.024 M11.636 13.056 L 12.692 14.112 12.456 14.057 C 11.406 13.810,10.333 14.460,10.060 15.508 C 9.941 15.962,10.003 16.492,10.225 16.930 C 10.361 17.199,10.801 17.639,11.070 17.775 C 11.659 18.073,12.341 18.073,12.930 17.775 C 13.196 17.640,13.638 17.200,13.771 16.937 C 13.991 16.504,14.052 16.007,13.943 15.544 L 13.888 15.308 15.904 17.324 C 17.013 18.433,17.920 19.359,17.920 19.382 C 17.920 19.476,17.661 19.768,17.486 19.871 L 17.300 19.980 12.000 19.980 L 6.700 19.980 6.516 19.872 C 6.415 19.813,6.284 19.700,6.225 19.623 C 5.994 19.320,6.000 19.423,6.000 16.022 C 6.000 12.472,5.988 12.618,6.304 12.303 C 6.601 12.006,6.598 12.006,8.720 12.003 L 10.581 12.000 11.636 13.056 " stroke="none" fill="black" fill-rule="evenodd"></path></svg>