<svg xmlns="http://www.w3.org/2000/svg" width="24" height="24" viewBox="0 0 24 24" fill="none" stroke="currentColor" stroke-width="2" stroke-linecap="round" stroke-linejoin="round" class="icon icon-tabler icons-tabler-outline icon-tabler-news"><path d="M4.477 3.073 C 3.806 3.249,3.238 3.823,3.060 4.508 C 3.008 4.706,3.000 5.583,3.000 11.052 C 3.000 17.276,3.001 17.373,3.083 17.773 C 3.311 18.892,3.985 19.851,4.956 20.436 C 5.286 20.636,5.810 20.832,6.247 20.921 C 6.633 21.000,6.768 21.002,12.611 20.991 L 18.580 20.980 18.860 20.886 C 19.840 20.557,20.557 19.840,20.886 18.860 L 20.980 18.580 20.991 12.690 C 21.003 6.278,21.011 6.536,20.782 6.083 C 20.646 5.816,20.297 5.449,20.017 5.281 C 19.609 5.035,19.404 5.005,18.139 5.002 L 17.018 5.000 16.969 4.692 C 16.905 4.287,16.743 3.953,16.471 3.659 C 16.198 3.366,15.872 3.164,15.523 3.073 C 15.281 3.010,14.843 3.005,10.000 3.005 C 5.157 3.005,4.719 3.010,4.477 3.073 M15.009 11.790 C 15.019 18.121,15.025 18.594,15.090 18.780 C 15.128 18.890,15.159 18.985,15.160 18.990 C 15.160 18.995,13.265 19.000,10.948 19.000 C 6.381 19.000,6.527 19.007,6.083 18.781 C 5.816 18.646,5.449 18.297,5.281 18.017 C 4.987 17.529,5.005 17.967,5.002 11.130 L 5.000 5.000 9.999 5.000 L 14.998 5.000 15.009 11.790 M7.614 7.057 C 7.377 7.131,7.212 7.261,7.109 7.453 C 7.035 7.592,7.020 7.684,7.020 8.000 C 7.020 8.331,7.033 8.403,7.120 8.558 C 7.230 8.755,7.414 8.898,7.635 8.959 C 7.831 9.014,12.169 9.014,12.365 8.959 C 12.586 8.898,12.770 8.755,12.880 8.558 C 12.967 8.402,12.980 8.332,12.979 8.000 C 12.978 7.567,12.898 7.355,12.678 7.199 C 12.406 7.005,12.336 7.000,9.984 7.003 C 8.293 7.005,7.741 7.017,7.614 7.057 M19.000 12.554 C 19.000 17.144,18.990 18.139,18.945 18.290 C 18.872 18.533,18.707 18.740,18.484 18.872 C 18.328 18.963,18.254 18.980,18.000 18.980 C 17.746 18.980,17.672 18.963,17.516 18.872 C 17.415 18.813,17.284 18.700,17.225 18.623 C 16.987 18.312,17.000 18.650,17.000 12.575 L 17.000 7.000 18.000 7.000 L 19.000 7.000 19.000 12.554 M7.614 11.057 C 7.377 11.131,7.212 11.261,7.109 11.453 C 7.035 11.592,7.020 11.684,7.020 12.000 C 7.020 12.331,7.033 12.403,7.120 12.558 C 7.230 12.755,7.414 12.898,7.635 12.959 C 7.831 13.014,12.169 13.014,12.365 12.959 C 12.586 12.898,12.770 12.755,12.880 12.558 C 12.967 12.402,12.980 12.332,12.979 12.000 C 12.978 11.567,12.898 11.355,12.678 11.199 C 12.406 11.005,12.336 11.000,9.984 11.003 C 8.293 11.005,7.741 11.017,7.614 11.057 M7.614 15.057 C 7.377 15.131,7.212 15.261,7.109 15.453 C 7.035 15.592,7.020 15.684,7.020 16.000 C 7.020 16.331,7.033 16.403,7.120 16.558 C 7.230 16.755,7.414 16.898,7.635 16.959 C 7.831 17.014,12.169 17.014,12.365 16.959 C 12.586 16.898,12.770 16.755,12.880 16.558 C 12.967 16.402,12.980 16.332,12.979 16.000 C 12.978 15.567,12.898 15.355,12.678 15.199 C 12.406 15.005,12.336 15.000,9.984 15.003 C 8.293 15.005,7.741 15.017,7.614 15.057 " stroke="none" fill="black" fill-rule="evenodd"></path></svg>