<svg xmlns="http://www.w3.org/2000/svg" width="24" height="24" viewBox="0 0 24 24" fill="none" stroke="currentColor" stroke-width="2" stroke-linecap="round" stroke-linejoin="round" class="icon icon-tabler icons-tabler-outline icon-tabler-letter-case-toggle"><path d="M16.900 4.045 C 16.211 4.131,15.422 4.450,14.857 4.871 C 13.880 5.598,13.269 6.586,13.062 7.775 C 13.008 8.084,13.000 8.849,13.000 13.675 C 13.000 17.266,13.015 19.271,13.041 19.365 C 13.148 19.750,13.437 19.962,13.896 19.991 C 14.381 20.022,14.699 19.882,14.880 19.558 L 14.980 19.380 14.991 16.690 L 15.003 14.000 17.501 14.000 L 20.000 14.000 20.000 16.610 C 20.000 18.235,20.016 19.275,20.041 19.365 C 20.148 19.750,20.437 19.962,20.896 19.991 C 21.381 20.022,21.699 19.882,21.880 19.558 L 21.980 19.380 21.992 13.800 C 22.000 9.822,21.991 8.129,21.959 7.904 C 21.608 5.436,19.378 3.736,16.900 4.045 M18.020 6.060 C 18.741 6.211,19.395 6.713,19.715 7.362 C 19.989 7.918,19.999 8.012,19.999 10.130 L 20.000 12.000 17.500 12.000 L 15.000 12.000 15.001 10.130 C 15.001 8.012,15.011 7.918,15.285 7.362 C 15.774 6.371,16.914 5.828,18.020 6.060 M5.900 11.042 C 3.603 11.352,1.898 13.402,2.012 15.717 C 2.110 17.711,3.452 19.339,5.437 19.871 C 5.772 19.961,5.902 19.974,6.480 19.976 C 7.033 19.978,7.197 19.964,7.488 19.890 C 7.949 19.774,8.398 19.598,8.732 19.402 C 8.967 19.264,9.006 19.252,9.024 19.312 C 9.160 19.776,9.476 20.000,10.000 20.000 C 10.428 20.000,10.713 19.856,10.880 19.558 L 10.980 19.380 10.980 15.500 L 10.980 11.620 10.891 11.453 C 10.688 11.074,10.138 10.902,9.625 11.057 C 9.299 11.155,9.140 11.322,9.026 11.687 C 9.008 11.745,8.960 11.730,8.696 11.579 C 8.327 11.369,7.848 11.190,7.416 11.100 C 7.028 11.020,6.277 10.991,5.900 11.042 M7.020 13.060 C 7.741 13.211,8.395 13.713,8.715 14.362 C 9.087 15.118,9.090 15.878,8.723 16.620 C 8.439 17.195,7.932 17.646,7.320 17.868 C 7.052 17.965,6.965 17.976,6.500 17.976 C 6.035 17.976,5.948 17.965,5.680 17.868 C 4.495 17.438,3.803 16.206,4.060 14.980 C 4.339 13.644,5.674 12.778,7.020 13.060 " stroke="none" fill="black" fill-rule="evenodd"></path></svg>