<svg xmlns="http://www.w3.org/2000/svg" width="24" height="24" viewBox="0 0 24 24" fill="none" stroke="currentColor" stroke-width="2" stroke-linecap="round" stroke-linejoin="round" class="icon icon-tabler icons-tabler-outline icon-tabler-physotherapist"><path d="M11.477 4.073 C 10.806 4.249,10.238 4.823,10.060 5.508 C 9.941 5.962,10.003 6.492,10.225 6.930 C 10.361 7.199,10.801 7.639,11.070 7.775 C 11.659 8.073,12.341 8.073,12.930 7.775 C 13.196 7.640,13.638 7.200,13.771 6.937 C 13.994 6.498,14.052 6.007,13.940 5.529 C 13.858 5.182,13.720 4.927,13.465 4.653 C 12.948 4.097,12.211 3.882,11.477 4.073 M11.588 9.061 C 11.505 9.092,11.388 9.151,11.328 9.194 C 11.269 9.236,10.356 9.703,9.300 10.232 C 7.326 11.220,7.169 11.316,7.049 11.600 C 6.926 11.893,6.963 12.064,7.522 13.747 C 7.813 14.623,8.092 15.423,8.143 15.524 C 8.335 15.907,8.675 16.084,9.067 16.005 C 9.728 15.873,10.097 15.478,10.019 14.985 C 10.005 14.894,9.822 14.301,9.613 13.667 C 9.404 13.033,9.239 12.508,9.246 12.502 C 9.271 12.479,10.959 11.640,10.980 11.640 C 10.991 11.640,11.000 12.896,11.000 14.430 C 11.000 16.176,11.015 17.274,11.041 17.365 C 11.148 17.750,11.437 17.962,11.896 17.991 C 12.381 18.022,12.699 17.882,12.880 17.558 L 12.980 17.380 12.991 14.328 C 13.002 11.463,13.007 11.277,13.071 11.296 C 13.109 11.307,13.756 11.470,14.509 11.658 L 15.878 12.000 17.792 12.000 C 19.919 12.000,19.996 11.992,20.229 11.751 C 20.418 11.556,20.486 11.355,20.486 10.997 C 20.486 10.491,20.303 10.196,19.909 10.064 C 19.745 10.009,19.460 10.000,17.918 10.000 L 16.119 10.000 14.429 9.578 C 13.500 9.346,12.626 9.121,12.486 9.078 C 12.192 8.988,11.808 8.981,11.588 9.061 M19.780 13.016 C 19.692 13.044,18.675 13.540,17.520 14.119 C 15.182 15.290,15.181 15.290,15.047 15.730 C 15.006 15.867,14.803 16.660,14.596 17.490 L 14.221 19.000 11.017 19.000 C 7.591 19.000,7.602 18.999,7.322 19.199 C 7.100 19.357,7.020 19.568,7.020 20.000 C 7.020 20.331,7.033 20.403,7.120 20.558 C 7.232 20.758,7.416 20.900,7.643 20.961 C 7.742 20.988,9.100 20.998,11.567 20.991 L 15.340 20.980 15.518 20.880 C 15.842 20.699,15.878 20.603,16.392 18.550 L 16.857 16.691 18.699 15.770 C 19.711 15.263,20.614 14.794,20.705 14.728 C 20.939 14.556,21.057 14.297,21.028 14.016 C 21.003 13.770,20.863 13.440,20.705 13.253 C 20.486 12.994,20.134 12.904,19.780 13.016 M3.477 17.073 C 3.130 17.164,2.802 17.366,2.535 17.653 C 2.178 18.038,2.000 18.485,2.000 19.000 C 2.000 19.546,2.193 20.001,2.596 20.404 C 2.999 20.807,3.454 21.000,4.000 21.000 C 4.546 21.000,5.001 20.807,5.404 20.404 C 5.920 19.889,6.106 19.236,5.940 18.529 C 5.858 18.182,5.720 17.927,5.465 17.653 C 5.074 17.232,4.560 17.005,4.000 17.005 C 3.857 17.005,3.622 17.036,3.477 17.073 M17.614 19.057 C 17.377 19.131,17.212 19.261,17.109 19.453 C 17.035 19.592,17.020 19.684,17.020 20.000 C 17.020 20.331,17.033 20.403,17.120 20.558 C 17.230 20.755,17.414 20.898,17.635 20.959 C 17.722 20.983,18.470 21.000,19.500 21.000 C 20.530 21.000,21.278 20.983,21.365 20.959 C 21.586 20.898,21.770 20.755,21.880 20.558 C 21.967 20.402,21.980 20.332,21.979 20.000 C 21.978 19.687,21.962 19.591,21.890 19.453 C 21.786 19.256,21.623 19.131,21.371 19.055 C 21.114 18.978,17.862 18.980,17.614 19.057 " stroke="none" fill="black" fill-rule="evenodd"></path></svg>