<svg xmlns="http://www.w3.org/2000/svg" width="24" height="24" viewBox="0 0 24 24" fill="none" stroke="currentColor" stroke-width="2" stroke-linecap="round" stroke-linejoin="round" class="icon icon-tabler icons-tabler-outline icon-tabler-shield-star"><path d="M11.660 2.055 C 11.550 2.107,11.271 2.306,11.040 2.497 C 9.764 3.555,8.299 4.286,6.632 4.697 C 5.770 4.909,5.293 4.968,4.180 4.998 C 3.619 5.014,3.135 5.045,3.078 5.069 C 2.914 5.138,2.723 5.318,2.640 5.479 C 2.480 5.793,2.213 6.957,2.094 7.860 C 2.001 8.572,2.000 10.134,2.094 10.880 C 2.342 12.859,3.003 14.717,4.044 16.355 C 4.986 17.839,6.335 19.221,7.780 20.180 C 8.686 20.782,9.293 21.097,10.340 21.508 C 11.162 21.830,11.471 21.841,11.779 21.557 C 11.993 21.360,12.126 21.060,12.150 20.720 C 12.189 20.185,12.029 20.027,11.046 19.638 C 10.040 19.239,9.196 18.775,8.436 18.203 C 6.284 16.583,4.783 14.225,4.246 11.620 C 3.948 10.175,3.954 8.443,4.261 7.090 C 4.280 7.007,4.304 7.000,4.554 7.000 C 5.546 7.000,6.987 6.731,8.218 6.316 C 9.511 5.880,10.721 5.248,11.850 4.417 L 12.000 4.307 12.150 4.417 C 13.285 5.252,14.483 5.878,15.784 6.317 C 17.011 6.731,18.454 7.000,19.444 7.000 C 19.760 7.000,19.726 6.946,19.838 7.620 C 19.999 8.590,20.015 9.943,19.877 10.886 C 19.776 11.572,19.895 11.903,20.315 12.110 C 20.510 12.206,20.588 12.220,20.903 12.220 C 21.230 12.220,21.282 12.209,21.429 12.112 C 21.754 11.897,21.873 11.457,21.967 10.113 C 22.038 9.095,21.950 7.898,21.720 6.780 C 21.606 6.224,21.447 5.650,21.358 5.476 C 21.277 5.318,21.085 5.138,20.922 5.069 C 20.865 5.045,20.381 5.014,19.820 4.998 C 18.684 4.967,18.185 4.904,17.300 4.680 C 15.680 4.270,14.198 3.525,12.960 2.498 C 12.505 2.120,12.220 1.961,12.000 1.961 C 11.923 1.961,11.770 2.003,11.660 2.055 M17.372 13.072 C 17.112 13.165,16.870 13.331,16.723 13.517 C 16.661 13.596,16.403 14.074,16.150 14.580 L 15.689 15.501 14.657 15.651 C 13.546 15.812,13.351 15.870,13.063 16.122 C 12.745 16.402,12.575 16.831,12.611 17.267 C 12.646 17.710,12.753 17.864,13.623 18.726 C 14.233 19.330,14.399 19.517,14.384 19.580 C 14.373 19.624,14.289 20.107,14.197 20.653 L 14.030 21.645 14.095 21.913 C 14.262 22.595,14.870 23.044,15.552 22.989 C 15.821 22.968,16.039 22.871,17.330 22.198 L 17.800 21.953 18.270 22.198 C 19.561 22.871,19.779 22.968,20.048 22.989 C 20.724 23.043,21.333 22.598,21.503 21.925 C 21.576 21.635,21.580 21.680,21.357 20.400 L 21.200 19.500 21.979 18.726 C 22.844 17.867,22.944 17.722,22.986 17.276 C 23.027 16.835,22.860 16.406,22.537 16.122 C 22.249 15.870,22.054 15.812,20.943 15.651 L 19.911 15.501 19.434 14.548 C 18.905 13.491,18.773 13.315,18.370 13.130 C 18.069 12.992,17.662 12.969,17.372 13.072 M18.121 16.405 C 18.445 17.059,18.612 17.261,18.907 17.352 C 18.991 17.378,19.336 17.439,19.672 17.487 L 20.285 17.574 19.787 18.077 C 19.512 18.354,19.259 18.638,19.223 18.709 C 19.109 18.939,19.107 19.150,19.216 19.772 C 19.273 20.097,19.320 20.390,19.320 20.423 C 19.320 20.465,19.131 20.386,18.690 20.158 C 18.091 19.848,18.047 19.832,17.800 19.832 C 17.553 19.832,17.509 19.848,16.910 20.158 C 16.417 20.412,16.280 20.468,16.280 20.415 C 16.280 20.378,16.327 20.084,16.384 19.763 C 16.493 19.150,16.492 18.939,16.377 18.709 C 16.341 18.638,16.088 18.354,15.813 18.077 L 15.315 17.574 15.928 17.487 C 16.264 17.439,16.609 17.378,16.693 17.352 C 16.988 17.261,17.155 17.059,17.479 16.405 C 17.643 16.072,17.788 15.800,17.800 15.800 C 17.812 15.800,17.957 16.072,18.121 16.405 " stroke="none" fill="black" fill-rule="evenodd"></path></svg>