<svg xmlns="http://www.w3.org/2000/svg" width="24" height="24" viewBox="0 0 24 24" fill="none" stroke="currentColor" stroke-width="2" stroke-linecap="round" stroke-linejoin="round" class="icon icon-tabler icons-tabler-outline icon-tabler-time-duration-60"><path d="M11.080 2.045 C 9.507 2.184,7.883 2.751,6.540 3.630 C 5.905 4.045,5.499 4.378,4.919 4.958 C 2.953 6.926,1.919 9.544,2.013 12.320 C 2.084 14.439,2.752 16.328,4.033 18.040 C 4.430 18.570,5.305 19.464,5.800 19.847 C 7.242 20.961,8.787 21.624,10.600 21.907 C 11.247 22.008,12.753 22.008,13.400 21.907 C 15.638 21.557,17.504 20.620,19.062 19.062 C 20.620 17.504,21.557 15.638,21.907 13.400 C 22.008 12.753,22.008 11.247,21.907 10.600 C 21.624 8.786,20.959 7.238,19.847 5.800 C 19.510 5.365,18.639 4.494,18.200 4.154 C 16.133 2.555,13.646 1.818,11.080 2.045 M12.734 4.041 C 14.574 4.216,16.228 4.976,17.554 6.256 C 20.043 8.658,20.702 12.394,19.183 15.499 C 18.749 16.387,18.223 17.105,17.496 17.801 C 16.876 18.394,16.262 18.819,15.471 19.200 C 13.267 20.265,10.733 20.265,8.529 19.200 C 7.477 18.693,6.612 18.015,5.847 17.100 C 3.848 14.711,3.440 11.302,4.816 8.500 C 6.162 5.760,8.867 4.049,11.920 4.005 C 12.129 4.003,12.495 4.019,12.734 4.041 M8.477 8.073 C 7.806 8.249,7.238 8.823,7.060 9.508 C 6.971 9.847,6.971 14.153,7.060 14.492 C 7.153 14.852,7.310 15.118,7.596 15.404 C 8.091 15.899,8.413 16.000,9.500 16.000 C 10.587 16.000,10.909 15.899,11.404 15.404 C 11.895 14.913,12.000 14.579,11.999 13.514 C 11.999 12.459,11.903 12.124,11.465 11.653 C 10.998 11.150,10.590 11.006,9.630 11.002 L 9.000 11.000 9.000 10.500 L 9.000 10.000 10.110 10.000 C 10.730 10.000,11.284 9.982,11.365 9.959 C 11.586 9.898,11.770 9.755,11.880 9.558 C 11.967 9.402,11.980 9.332,11.979 9.000 C 11.978 8.567,11.898 8.355,11.678 8.199 C 11.424 8.018,11.266 8.000,9.964 8.002 C 8.941 8.004,8.697 8.016,8.477 8.073 M14.960 8.062 C 14.605 8.138,14.107 8.393,13.832 8.639 C 13.532 8.907,13.239 9.352,13.118 9.722 L 13.020 10.020 13.020 12.020 L 13.020 14.020 13.131 14.320 C 13.399 15.044,13.964 15.608,14.680 15.868 C 14.948 15.965,15.035 15.976,15.500 15.976 C 15.965 15.976,16.052 15.965,16.320 15.868 C 17.036 15.608,17.601 15.044,17.869 14.320 L 17.980 14.020 17.980 12.000 L 17.980 9.980 17.869 9.680 C 17.430 8.486,16.192 7.798,14.960 8.062 M15.724 10.062 C 15.790 10.096,15.879 10.182,15.922 10.252 C 15.996 10.373,16.000 10.464,16.000 12.000 C 16.000 13.536,15.996 13.627,15.922 13.748 C 15.722 14.076,15.278 14.076,15.078 13.748 C 15.004 13.627,15.000 13.536,15.000 12.008 C 15.000 10.228,14.999 10.232,15.252 10.078 C 15.406 9.984,15.563 9.979,15.724 10.062 M10.000 13.500 L 10.000 14.000 9.500 14.000 L 9.000 14.000 9.000 13.500 L 9.000 13.000 9.500 13.000 L 10.000 13.000 10.000 13.500 " stroke="none" fill="black" fill-rule="evenodd"></path></svg>