<svg xmlns="http://www.w3.org/2000/svg" width="24" height="24" viewBox="0 0 24 24" fill="none" stroke="currentColor" stroke-width="2" stroke-linecap="round" stroke-linejoin="round" class="icon icon-tabler icons-tabler-outline icon-tabler-home-link"><path d="M11.620 2.046 C 11.382 2.168,2.155 11.405,2.039 11.637 C 1.830 12.056,2.036 12.589,2.514 12.871 C 2.693 12.976,2.726 12.981,3.348 12.993 L 3.997 13.007 4.009 16.293 L 4.021 19.580 4.114 19.860 C 4.442 20.839,5.163 21.560,6.140 21.885 C 6.420 21.978,6.422 21.978,9.020 21.992 C 11.873 22.007,11.943 22.003,12.189 21.787 C 12.402 21.600,12.486 21.376,12.486 21.000 C 12.486 20.491,12.304 20.196,11.909 20.064 C 11.757 20.013,11.539 20.000,10.859 20.000 L 10.000 20.000 10.000 17.447 C 10.000 14.538,9.993 14.614,10.303 14.303 C 10.587 14.019,10.695 14.000,12.022 14.000 C 13.240 14.000,13.356 14.016,13.626 14.222 C 13.699 14.277,13.830 14.446,13.918 14.596 C 14.274 15.206,14.669 15.330,15.278 15.021 C 15.859 14.726,15.979 14.276,15.653 13.614 C 15.534 13.370,15.417 13.218,15.120 12.917 C 14.792 12.585,14.688 12.507,14.360 12.346 C 13.705 12.025,13.667 12.020,11.980 12.020 C 10.555 12.020,10.488 12.023,10.178 12.112 C 9.219 12.387,8.446 13.147,8.115 14.140 L 8.021 14.420 8.009 17.213 L 7.996 20.007 7.348 19.993 C 6.728 19.981,6.692 19.975,6.516 19.872 C 6.328 19.761,6.158 19.572,6.070 19.373 C 6.032 19.286,6.015 18.375,6.000 15.440 L 5.980 11.620 5.890 11.451 C 5.803 11.289,5.556 11.080,5.451 11.080 C 5.423 11.080,5.400 11.066,5.400 11.050 C 5.400 11.033,6.885 9.535,8.700 7.720 L 12.000 4.420 15.750 8.164 C 17.812 10.224,19.554 11.945,19.620 11.990 C 19.839 12.139,20.055 12.173,20.309 12.099 C 20.490 12.047,20.583 11.985,20.784 11.784 C 21.204 11.363,21.252 10.983,20.938 10.560 C 20.865 10.461,18.945 8.523,16.672 6.254 C 13.858 3.444,12.486 2.101,12.372 2.044 C 12.151 1.934,11.836 1.935,11.620 2.046 M20.477 14.073 C 19.806 14.249,19.238 14.823,19.060 15.508 C 19.027 15.634,19.000 15.804,19.000 15.886 L 19.000 16.035 17.994 16.640 L 16.987 17.244 16.804 17.167 C 16.009 16.830,15.123 17.020,14.535 17.653 C 13.954 18.279,13.834 19.159,14.225 19.930 C 14.362 20.200,14.801 20.639,15.071 20.775 C 15.700 21.094,16.522 21.062,17.059 20.698 C 17.138 20.644,17.225 20.600,17.252 20.600 C 17.311 20.600,18.922 21.239,18.985 21.287 C 19.010 21.306,19.041 21.389,19.054 21.471 C 19.127 21.913,19.621 22.547,20.070 22.775 C 20.659 23.073,21.341 23.073,21.930 22.775 C 22.196 22.640,22.638 22.200,22.771 21.937 C 23.065 21.358,23.068 20.649,22.781 20.083 C 22.646 19.816,22.297 19.449,22.017 19.281 C 21.424 18.924,20.594 18.916,20.019 19.262 C 19.893 19.338,19.770 19.400,19.745 19.400 C 19.720 19.400,19.379 19.272,18.987 19.115 C 18.414 18.885,18.284 18.819,18.327 18.780 C 18.356 18.753,18.746 18.512,19.194 18.245 L 20.009 17.758 20.274 17.864 C 20.785 18.069,21.416 18.035,21.929 17.775 C 22.196 17.640,22.638 17.200,22.771 16.937 C 22.994 16.498,23.052 16.007,22.940 15.529 C 22.858 15.182,22.720 14.927,22.465 14.653 C 22.074 14.232,21.560 14.005,21.000 14.005 C 20.857 14.005,20.622 14.036,20.477 14.073 " stroke="none" fill="black" fill-rule="evenodd"></path></svg>