<svg xmlns="http://www.w3.org/2000/svg" width="24" height="24" viewBox="0 0 24 24" fill="none" stroke="currentColor" stroke-width="2" stroke-linecap="round" stroke-linejoin="round" class="icon icon-tabler icons-tabler-outline icon-tabler-clock-share"><path d="M11.140 2.041 C 9.537 2.204,8.137 2.658,6.873 3.424 C 4.210 5.038,2.502 7.650,2.075 10.760 C 1.995 11.339,2.005 12.796,2.092 13.360 C 2.308 14.757,2.761 16.037,3.429 17.140 C 5.097 19.893,7.880 21.638,11.114 21.959 C 12.044 22.051,12.509 21.993,12.754 21.754 C 12.938 21.573,13.010 21.385,13.015 21.060 C 13.022 20.687,12.944 20.438,12.768 20.261 C 12.581 20.074,12.322 20.000,11.855 20.000 C 11.418 20.000,10.678 19.910,10.200 19.798 C 8.147 19.318,6.289 17.983,5.193 16.200 C 4.300 14.746,3.872 12.931,4.037 11.300 C 4.228 9.425,4.961 7.798,6.199 6.504 C 7.693 4.943,9.590 4.096,11.780 4.011 C 14.621 3.902,17.410 5.434,18.862 7.902 C 19.721 9.361,20.088 10.899,19.971 12.551 C 19.924 13.221,19.946 13.412,20.099 13.645 C 20.339 14.010,21.126 14.136,21.546 13.877 C 21.717 13.770,21.858 13.526,21.924 13.220 C 22.006 12.842,21.995 11.171,21.908 10.620 C 21.548 8.357,20.606 6.475,19.063 4.938 C 17.472 3.353,15.527 2.394,13.301 2.098 C 12.742 2.024,11.607 1.994,11.140 2.041 M11.614 6.057 C 11.377 6.131,11.212 6.261,11.109 6.453 L 11.020 6.620 11.020 9.460 L 11.020 12.300 11.127 12.480 C 11.281 12.739,13.416 14.848,13.637 14.960 C 13.989 15.137,14.354 15.048,14.701 14.701 C 15.048 14.354,15.137 13.989,14.960 13.637 C 14.903 13.525,14.527 13.114,13.937 12.520 L 13.003 11.579 12.991 9.100 C 12.980 6.623,12.980 6.620,12.891 6.453 C 12.842 6.362,12.746 6.247,12.678 6.199 C 12.414 6.010,11.957 5.950,11.614 6.057 M18.460 15.999 C 15.916 16.022,15.992 16.015,15.752 16.267 C 15.584 16.443,15.513 16.658,15.512 16.997 C 15.510 17.348,15.582 17.556,15.771 17.751 C 15.988 17.976,16.151 18.000,17.436 18.000 L 18.578 18.000 16.853 19.730 C 15.679 20.908,15.100 21.517,15.040 21.637 C 14.863 21.989,14.952 22.354,15.299 22.701 C 15.646 23.048,16.011 23.137,16.363 22.960 C 16.483 22.900,17.092 22.321,18.270 21.147 L 20.000 19.422 20.000 20.564 C 20.000 21.849,20.024 22.012,20.249 22.229 C 20.442 22.416,20.647 22.487,20.997 22.488 C 21.336 22.490,21.552 22.419,21.735 22.248 C 21.985 22.013,21.977 22.088,22.007 19.460 C 22.022 18.140,22.036 17.001,22.037 16.929 C 22.041 16.740,21.834 16.310,21.690 16.207 C 21.467 16.048,21.205 15.959,20.987 15.969 C 20.873 15.974,19.736 15.987,18.460 15.999 " stroke="none" fill="black" fill-rule="evenodd"></path></svg>