<svg xmlns="http://www.w3.org/2000/svg" width="24" height="24" viewBox="0 0 24 24" fill="none" stroke="currentColor" stroke-width="2" stroke-linecap="round" stroke-linejoin="round" class="icon icon-tabler icons-tabler-outline icon-tabler-mood-smile"><path d="M11.080 2.045 C 9.507 2.184,7.883 2.751,6.540 3.630 C 5.905 4.045,5.499 4.378,4.919 4.958 C 2.953 6.926,1.919 9.544,2.013 12.320 C 2.084 14.439,2.752 16.328,4.033 18.040 C 4.430 18.570,5.305 19.464,5.800 19.847 C 7.242 20.961,8.787 21.624,10.600 21.907 C 11.247 22.008,12.753 22.008,13.400 21.907 C 15.638 21.557,17.504 20.620,19.062 19.062 C 20.620 17.504,21.557 15.638,21.907 13.400 C 22.008 12.753,22.008 11.247,21.907 10.600 C 21.624 8.786,20.959 7.238,19.847 5.800 C 19.510 5.365,18.639 4.494,18.200 4.154 C 16.133 2.555,13.646 1.818,11.080 2.045 M12.734 4.041 C 14.574 4.216,16.228 4.976,17.554 6.256 C 20.043 8.658,20.702 12.394,19.183 15.499 C 18.749 16.387,18.223 17.105,17.496 17.801 C 16.876 18.394,16.262 18.819,15.471 19.200 C 13.267 20.265,10.733 20.265,8.529 19.200 C 7.477 18.693,6.612 18.015,5.847 17.100 C 3.848 14.711,3.440 11.302,4.816 8.500 C 6.162 5.760,8.867 4.049,11.920 4.005 C 12.129 4.003,12.495 4.019,12.734 4.041 M8.614 9.055 C 8.220 9.184,8.039 9.437,8.009 9.900 C 7.978 10.381,8.119 10.699,8.442 10.880 C 8.597 10.967,8.669 10.980,9.000 10.980 C 9.312 10.980,9.408 10.964,9.540 10.894 C 9.866 10.718,10.000 10.459,10.000 10.000 C 10.000 9.357,9.713 9.048,9.083 9.016 C 8.893 9.006,8.718 9.021,8.614 9.055 M14.614 9.055 C 14.220 9.184,14.039 9.437,14.009 9.900 C 13.978 10.381,14.119 10.699,14.442 10.880 C 14.597 10.967,14.669 10.980,15.000 10.980 C 15.312 10.980,15.408 10.964,15.540 10.894 C 15.866 10.718,16.000 10.459,16.000 10.000 C 16.000 9.357,15.713 9.048,15.083 9.016 C 14.893 9.006,14.718 9.021,14.614 9.055 M9.125 14.051 C 9.029 14.100,8.857 14.240,8.743 14.363 C 8.293 14.850,8.345 15.272,8.924 15.820 C 9.439 16.308,9.985 16.627,10.661 16.835 C 11.174 16.993,11.481 17.039,12.000 17.039 C 12.519 17.039,12.826 16.993,13.339 16.835 C 14.015 16.627,14.561 16.308,15.076 15.820 C 15.546 15.376,15.652 15.056,15.464 14.660 C 15.281 14.275,14.852 13.960,14.509 13.960 C 14.239 13.960,14.108 14.027,13.711 14.367 C 13.287 14.730,13.062 14.857,12.657 14.961 C 12.065 15.112,11.314 15.034,10.832 14.772 C 10.722 14.712,10.475 14.529,10.285 14.366 C 10.095 14.202,9.882 14.044,9.811 14.014 C 9.617 13.932,9.327 13.947,9.125 14.051 " stroke="none" fill="black" fill-rule="evenodd"></path></svg>