<svg xmlns="http://www.w3.org/2000/svg" width="24" height="24" viewBox="0 0 24 24" fill="none" stroke="currentColor" stroke-width="2" stroke-linecap="round" stroke-linejoin="round" class="icon icon-tabler icons-tabler-outline icon-tabler-adjustments-star"><path d="M5.614 3.057 C 5.377 3.131,5.212 3.261,5.109 3.453 C 5.022 3.617,5.020 3.656,5.000 5.387 L 4.980 7.153 4.660 7.317 C 3.919 7.698,3.363 8.360,3.114 9.160 C 2.979 9.594,2.979 10.406,3.114 10.840 C 3.365 11.645,3.931 12.318,4.670 12.688 L 5.000 12.853 5.000 16.537 C 5.000 18.881,5.015 20.273,5.041 20.365 C 5.148 20.750,5.437 20.962,5.896 20.991 C 6.381 21.022,6.699 20.882,6.880 20.558 L 6.980 20.380 7.000 16.613 L 7.020 12.845 7.340 12.684 C 8.072 12.314,8.637 11.640,8.886 10.840 C 9.021 10.406,9.021 9.594,8.886 9.160 C 8.637 8.360,8.081 7.698,7.340 7.317 L 7.020 7.153 7.000 5.387 C 6.980 3.656,6.978 3.617,6.891 3.453 C 6.842 3.362,6.746 3.247,6.678 3.199 C 6.414 3.010,5.957 2.950,5.614 3.057 M11.614 3.057 C 11.377 3.131,11.212 3.261,11.109 3.453 L 11.020 3.620 11.008 8.620 C 10.999 12.264,11.008 13.678,11.041 13.833 C 11.133 14.260,11.463 14.486,11.997 14.488 C 12.531 14.491,12.866 14.262,12.959 13.833 C 12.992 13.677,13.001 12.269,12.992 8.620 L 12.980 3.620 12.891 3.453 C 12.842 3.362,12.746 3.247,12.678 3.199 C 12.414 3.010,11.957 2.950,11.614 3.057 M17.614 3.057 C 17.229 3.178,17.041 3.435,17.009 3.885 L 16.990 4.150 16.665 4.316 C 15.922 4.693,15.364 5.357,15.114 6.160 C 14.979 6.594,14.979 7.406,15.114 7.840 C 15.364 8.643,15.932 9.318,16.665 9.685 L 16.990 9.848 17.009 10.119 C 17.051 10.699,17.389 11.000,18.000 11.000 C 18.611 11.000,18.939 10.709,18.988 10.125 L 19.011 9.848 19.335 9.685 C 20.068 9.318,20.636 8.643,20.886 7.840 C 21.021 7.406,21.021 6.594,20.886 6.160 C 20.636 5.357,20.078 4.693,19.335 4.316 L 19.011 4.151 18.988 3.879 C 18.961 3.561,18.853 3.323,18.678 3.199 C 18.414 3.010,17.957 2.950,17.614 3.057 M18.310 6.061 C 18.688 6.173,19.000 6.598,19.000 7.001 C 19.000 7.331,18.784 7.696,18.484 7.872 C 18.328 7.963,18.254 7.980,18.000 7.980 C 17.746 7.980,17.672 7.963,17.516 7.872 C 16.935 7.530,16.833 6.774,17.304 6.303 C 17.583 6.024,17.916 5.944,18.310 6.061 M6.310 9.061 C 6.688 9.173,7.000 9.598,7.000 10.001 C 7.000 10.331,6.784 10.696,6.484 10.872 C 6.328 10.963,6.254 10.980,6.000 10.980 C 5.746 10.980,5.672 10.963,5.516 10.872 C 4.935 10.530,4.833 9.774,5.304 9.303 C 5.583 9.024,5.916 8.944,6.310 9.061 M17.372 13.072 C 17.112 13.165,16.870 13.331,16.723 13.517 C 16.661 13.596,16.403 14.074,16.150 14.580 L 15.689 15.501 14.657 15.651 C 13.546 15.812,13.351 15.870,13.063 16.122 C 12.745 16.402,12.575 16.831,12.611 17.267 C 12.646 17.710,12.753 17.864,13.623 18.726 C 14.233 19.330,14.399 19.517,14.384 19.580 C 14.373 19.624,14.289 20.107,14.197 20.653 L 14.030 21.645 14.095 21.913 C 14.262 22.595,14.870 23.044,15.552 22.989 C 15.821 22.968,16.039 22.871,17.330 22.198 L 17.800 21.953 18.270 22.198 C 19.561 22.871,19.779 22.968,20.048 22.989 C 20.724 23.043,21.333 22.598,21.503 21.925 C 21.576 21.635,21.580 21.680,21.357 20.400 L 21.200 19.500 21.979 18.726 C 22.844 17.867,22.944 17.722,22.986 17.276 C 23.027 16.835,22.860 16.406,22.537 16.122 C 22.249 15.870,22.054 15.812,20.943 15.651 L 19.911 15.501 19.434 14.548 C 18.905 13.491,18.773 13.315,18.370 13.130 C 18.069 12.992,17.662 12.969,17.372 13.072 M18.121 16.405 C 18.445 17.059,18.612 17.261,18.907 17.352 C 18.991 17.378,19.336 17.439,19.672 17.487 L 20.285 17.574 19.787 18.077 C 19.512 18.354,19.259 18.638,19.223 18.709 C 19.109 18.939,19.107 19.150,19.216 19.772 C 19.273 20.097,19.320 20.390,19.320 20.423 C 19.320 20.465,19.131 20.386,18.690 20.158 C 18.091 19.848,18.047 19.832,17.800 19.832 C 17.553 19.832,17.509 19.848,16.910 20.158 C 16.417 20.412,16.280 20.468,16.280 20.415 C 16.280 20.378,16.327 20.084,16.384 19.763 C 16.493 19.150,16.492 18.939,16.377 18.709 C 16.341 18.638,16.088 18.354,15.813 18.077 L 15.315 17.574 15.928 17.487 C 16.264 17.439,16.609 17.378,16.693 17.352 C 16.988 17.261,17.155 17.059,17.479 16.405 C 17.643 16.072,17.788 15.800,17.800 15.800 C 17.812 15.800,17.957 16.072,18.121 16.405 " stroke="none" fill="black" fill-rule="evenodd"></path></svg>