<svg xmlns="http://www.w3.org/2000/svg" width="24" height="24" viewBox="0 0 24 24" fill="none" stroke="currentColor" stroke-width="2" stroke-linecap="round" stroke-linejoin="round" class="icon icon-tabler icons-tabler-outline icon-tabler-brightness-off"><path d="M2.626 2.045 C 2.257 2.239,1.951 2.673,1.951 3.000 C 1.951 3.327,2.064 3.474,3.188 4.605 L 4.247 5.670 3.965 6.051 C 2.992 7.362,2.353 8.914,2.093 10.600 C 1.993 11.245,1.993 12.755,2.093 13.400 C 2.436 15.617,3.387 17.510,4.939 19.061 C 6.490 20.613,8.383 21.564,10.600 21.907 C 11.245 22.007,12.755 22.007,13.400 21.907 C 15.086 21.647,16.638 21.008,17.949 20.035 L 18.330 19.753 19.395 20.812 C 20.082 21.494,20.523 21.902,20.637 21.960 C 20.989 22.137,21.354 22.048,21.701 21.701 C 22.048 21.355,22.137 20.990,21.961 20.637 C 21.885 20.486,18.837 17.395,12.747 11.293 C 8.533 7.070,3.506 2.111,3.372 2.044 C 3.152 1.934,2.835 1.935,2.626 2.045 M11.080 2.043 C 9.894 2.163,8.747 2.480,7.708 2.977 C 6.941 3.343,6.770 3.706,7.059 4.350 C 7.185 4.632,7.438 4.891,7.655 4.960 C 7.884 5.033,8.106 4.986,8.606 4.757 C 9.331 4.426,10.070 4.198,10.779 4.087 L 10.997 4.053 11.009 6.216 L 11.020 8.380 11.121 8.560 C 11.176 8.658,11.281 8.775,11.355 8.820 C 11.429 8.864,11.603 9.013,11.743 9.151 C 12.151 9.554,12.468 9.648,12.837 9.474 C 12.972 9.411,13.515 8.895,14.920 7.497 L 16.820 5.605 17.020 5.764 C 17.130 5.852,17.414 6.116,17.651 6.350 L 18.082 6.777 17.871 6.983 C 17.755 7.097,16.949 7.869,16.080 8.699 C 15.211 9.529,14.431 10.282,14.346 10.374 C 14.058 10.686,13.969 11.032,14.098 11.342 C 14.179 11.535,14.535 11.901,14.737 11.999 C 14.976 12.114,15.225 12.104,15.476 11.970 C 15.614 11.896,16.251 11.311,17.440 10.168 L 19.200 8.477 19.303 8.708 C 19.470 9.081,19.633 9.552,19.737 9.960 L 19.834 10.340 18.364 11.820 C 17.422 12.767,16.866 13.358,16.817 13.460 C 16.722 13.660,16.722 13.974,16.816 14.155 C 16.920 14.353,17.190 14.631,17.396 14.751 C 17.616 14.881,17.903 14.892,18.140 14.780 C 18.235 14.735,18.628 14.380,19.110 13.905 C 19.556 13.465,19.920 13.134,19.920 13.169 C 19.920 13.308,19.758 14.006,19.638 14.381 C 19.568 14.600,19.403 15.023,19.271 15.320 C 18.981 15.974,18.945 16.204,19.087 16.480 C 19.256 16.807,19.733 17.081,20.134 17.080 C 20.535 17.080,20.750 16.883,21.051 16.241 C 22.196 13.799,22.307 11.074,21.369 8.500 C 21.190 8.010,20.695 7.019,20.399 6.560 C 18.850 4.157,16.203 2.483,13.340 2.096 C 12.786 2.021,11.580 1.993,11.080 2.043 M13.578 4.160 C 13.791 4.203,14.067 4.268,14.192 4.302 C 14.396 4.359,15.000 4.563,15.000 4.576 C 15.000 4.578,14.550 5.030,14.000 5.580 L 13.000 6.579 13.000 5.330 L 13.000 4.080 13.096 4.080 C 13.148 4.080,13.365 4.116,13.578 4.160 M8.354 9.774 L 11.008 12.428 10.986 13.184 C 10.973 13.600,10.967 13.994,10.972 14.060 C 10.986 14.265,10.977 19.369,10.962 19.560 C 10.954 19.659,10.961 19.780,10.977 19.830 C 11.001 19.908,10.991 19.920,10.900 19.920 C 10.704 19.920,9.981 19.752,9.500 19.595 C 8.382 19.229,7.352 18.612,6.504 17.801 C 5.777 17.105,5.251 16.387,4.817 15.499 C 3.736 13.290,3.736 10.714,4.817 8.499 C 5.052 8.016,5.608 7.120,5.672 7.120 C 5.688 7.120,6.894 8.314,8.354 9.774 M13.690 16.490 L 13.000 17.180 13.000 15.800 L 13.000 14.420 13.690 15.110 L 14.380 15.800 13.690 16.490 M16.349 17.769 C 16.641 18.061,16.880 18.312,16.880 18.327 C 16.880 18.383,16.018 18.930,15.603 19.138 C 14.897 19.491,13.950 19.802,13.280 19.901 L 13.100 19.927 14.440 18.584 C 15.177 17.845,15.788 17.240,15.799 17.240 C 15.810 17.240,16.058 17.478,16.349 17.769 " stroke="none" fill="black" fill-rule="evenodd"></path></svg>