<svg xmlns="http://www.w3.org/2000/svg" width="24" height="24" viewBox="0 0 24 24" fill="none" stroke="currentColor" stroke-width="2" stroke-linecap="round" stroke-linejoin="round" class="icon icon-tabler icons-tabler-outline icon-tabler-copyright-off"><path d="M2.626 2.045 C 2.257 2.239,1.951 2.673,1.951 3.000 C 1.951 3.327,2.064 3.474,3.193 4.610 L 4.256 5.679 4.155 5.790 C 3.681 6.309,2.950 7.567,2.638 8.400 C 1.751 10.767,1.720 13.096,2.544 15.447 C 2.762 16.068,3.229 16.999,3.606 17.561 C 5.602 20.543,8.922 22.214,12.493 22.034 C 14.455 21.935,16.452 21.201,17.995 20.011 L 18.330 19.753 19.395 20.812 C 20.082 21.494,20.523 21.902,20.637 21.960 C 20.989 22.137,21.354 22.048,21.701 21.701 C 22.047 21.355,22.136 20.990,21.961 20.637 C 21.839 20.392,3.616 2.165,3.372 2.044 C 3.152 1.934,2.834 1.935,2.626 2.045 M11.080 2.043 C 9.920 2.160,8.784 2.470,7.760 2.951 C 7.138 3.242,6.920 3.478,6.920 3.857 C 6.920 4.250,7.203 4.749,7.521 4.913 C 7.791 5.053,8.035 5.018,8.598 4.761 C 10.427 3.926,12.291 3.777,14.226 4.313 C 16.341 4.899,18.237 6.498,19.205 8.512 C 20.096 10.364,20.244 12.530,19.614 14.460 C 19.556 14.636,19.402 15.023,19.271 15.320 C 18.985 15.969,18.948 16.187,19.078 16.456 C 19.303 16.921,20.057 17.216,20.477 17.002 C 20.696 16.890,20.827 16.717,21.051 16.240 C 22.704 12.724,22.156 8.553,19.647 5.557 C 18.089 3.697,15.786 2.429,13.360 2.097 C 12.822 2.023,11.571 1.994,11.080 2.043 M7.131 8.551 C 8.487 9.907,8.558 9.985,8.503 10.063 C 8.378 10.242,8.160 10.846,8.078 11.242 C 8.005 11.593,7.995 11.740,8.015 12.160 C 8.085 13.686,8.924 14.950,10.300 15.603 C 10.916 15.895,11.296 15.978,12.020 15.978 C 12.548 15.978,12.666 15.965,13.009 15.870 C 13.223 15.811,13.543 15.696,13.722 15.614 L 14.046 15.466 15.473 16.895 L 16.900 18.324 16.780 18.424 C 16.553 18.613,15.999 18.963,15.618 19.159 C 13.978 20.001,12.063 20.258,10.280 19.874 C 7.503 19.276,5.238 17.243,4.360 14.562 C 4.052 13.624,3.939 12.812,3.971 11.780 C 4.010 10.561,4.259 9.567,4.799 8.480 C 5.081 7.912,5.591 7.120,5.674 7.120 C 5.688 7.120,6.344 7.764,7.131 8.551 M12.926 8.295 C 12.723 8.368,12.524 8.582,12.386 8.875 C 12.144 9.389,12.241 9.806,12.661 10.065 C 12.763 10.128,12.985 10.274,13.154 10.390 C 13.921 10.916,14.215 10.930,14.687 10.463 C 15.051 10.102,15.147 9.689,14.944 9.344 C 14.675 8.885,13.636 8.233,13.191 8.243 C 13.119 8.245,13.000 8.268,12.926 8.295 M11.298 12.718 C 11.957 13.378,12.484 13.929,12.469 13.944 C 12.454 13.960,12.308 13.980,12.145 13.991 C 10.856 14.074,9.817 12.935,10.026 11.670 C 10.039 11.588,10.062 11.520,10.075 11.520 C 10.089 11.520,10.640 12.059,11.298 12.718 " stroke="none" fill="black" fill-rule="evenodd"></path></svg>