<svg xmlns="http://www.w3.org/2000/svg" width="24" height="24" viewBox="0 0 24 24" fill="none" stroke="currentColor" stroke-width="2" stroke-linecap="round" stroke-linejoin="round" class="icon icon-tabler icons-tabler-outline icon-tabler-propeller-off"><path d="M2.626 2.045 C 2.420 2.154,2.146 2.433,2.038 2.644 C 1.924 2.867,1.924 3.132,2.039 3.363 C 2.102 3.488,3.070 4.484,5.318 6.740 L 8.509 9.940 8.635 10.260 C 8.704 10.436,8.760 10.591,8.760 10.605 C 8.760 10.619,8.680 10.763,8.583 10.925 C 8.485 11.087,8.348 11.373,8.279 11.560 C 8.209 11.747,8.137 11.938,8.119 11.984 C 8.092 12.054,8.042 12.072,7.806 12.094 C 6.532 12.212,4.566 12.775,3.420 13.350 C 2.031 14.046,1.318 15.451,1.577 16.981 C 1.821 18.425,2.833 20.136,3.931 20.964 C 5.045 21.803,6.317 21.943,7.496 21.354 C 8.330 20.938,9.733 19.716,10.705 18.559 C 11.109 18.077,11.661 17.334,11.747 17.154 C 11.816 17.010,11.831 17.001,12.000 17.001 C 12.169 17.001,12.184 17.010,12.253 17.153 C 12.353 17.363,12.960 18.166,13.443 18.727 C 14.205 19.614,15.271 20.576,16.096 21.123 C 17.150 21.821,18.356 21.905,19.446 21.357 L 19.767 21.196 20.119 21.535 C 20.312 21.721,20.548 21.913,20.643 21.961 C 20.987 22.137,21.355 22.047,21.701 21.701 C 22.116 21.286,22.159 20.867,21.832 20.440 C 21.790 20.385,19.106 17.689,15.868 14.448 C 5.056 3.628,3.550 2.134,3.372 2.044 C 3.152 1.934,2.835 1.935,2.626 2.045 M11.210 2.043 C 9.564 2.202,8.374 2.914,7.838 4.060 C 7.524 4.731,7.546 5.091,7.920 5.411 C 8.104 5.568,8.520 5.720,8.768 5.720 C 8.982 5.720,9.247 5.591,9.373 5.426 C 9.427 5.354,9.525 5.179,9.590 5.037 C 9.654 4.894,9.763 4.713,9.832 4.635 C 10.206 4.209,11.203 3.957,12.290 4.015 C 13.385 4.072,14.046 4.353,14.341 4.885 C 14.457 5.095,14.460 5.114,14.458 5.640 C 14.453 6.685,14.077 8.192,13.470 9.600 C 13.222 10.175,13.187 10.449,13.327 10.720 C 13.517 11.087,14.167 11.388,14.550 11.286 C 14.900 11.192,15.049 11.005,15.360 10.269 C 16.038 8.663,16.491 6.770,16.486 5.555 C 16.481 4.197,15.825 3.135,14.620 2.531 C 13.775 2.107,12.474 1.921,11.210 2.043 M11.795 13.215 C 12.552 13.972,13.160 14.608,13.147 14.629 C 13.104 14.699,12.624 14.911,12.408 14.956 C 11.748 15.093,11.079 14.889,10.600 14.403 C 9.957 13.750,9.826 12.808,10.269 12.016 C 10.323 11.919,10.379 11.840,10.394 11.840 C 10.408 11.840,11.039 12.459,11.795 13.215 M16.734 12.360 C 16.534 12.462,16.389 12.664,16.303 12.957 C 16.146 13.498,16.282 13.915,16.685 14.122 C 16.765 14.163,17.083 14.260,17.393 14.338 C 18.091 14.514,18.507 14.644,19.012 14.845 C 20.030 15.250,20.342 15.529,20.437 16.118 C 20.483 16.405,20.472 16.528,20.351 17.073 C 20.241 17.573,20.284 17.800,20.535 18.032 C 20.863 18.334,21.453 18.458,21.784 18.296 C 22.108 18.137,22.300 17.730,22.425 16.940 C 22.497 16.480,22.479 15.928,22.378 15.520 C 22.342 15.377,22.226 15.079,22.119 14.857 C 21.811 14.217,21.282 13.701,20.567 13.342 C 19.605 12.861,17.943 12.338,17.240 12.295 C 16.947 12.277,16.877 12.286,16.734 12.360 M8.223 14.305 C 8.435 14.979,8.975 15.728,9.564 16.166 C 9.716 16.279,9.840 16.382,9.840 16.396 C 9.840 16.409,9.738 16.555,9.613 16.720 C 8.631 18.018,7.029 19.469,6.365 19.663 C 5.851 19.813,5.410 19.652,4.879 19.121 C 4.362 18.605,3.887 17.820,3.654 17.102 C 3.503 16.635,3.499 16.108,3.643 15.800 C 3.822 15.419,4.043 15.244,4.695 14.965 C 5.534 14.607,6.457 14.340,7.460 14.164 C 8.154 14.042,8.140 14.039,8.223 14.305 M18.111 19.694 C 17.968 19.730,17.666 19.682,17.438 19.586 C 17.059 19.426,16.205 18.722,15.460 17.955 C 14.843 17.320,14.116 16.430,14.171 16.376 C 14.181 16.365,14.286 16.285,14.404 16.197 L 14.617 16.038 16.429 17.849 L 18.240 19.660 18.111 19.694 " stroke="none" fill="black" fill-rule="evenodd"></path></svg>