<svg xmlns="http://www.w3.org/2000/svg" width="24" height="24" viewBox="0 0 24 24" fill="none" stroke="currentColor" stroke-width="2" stroke-linecap="round" stroke-linejoin="round" class="icon icon-tabler icons-tabler-outline icon-tabler-relation-one-to-many"><path d="M4.499 4.043 C 3.380 4.232,2.461 5.048,2.114 6.160 L 2.020 6.460 2.020 12.000 L 2.020 17.540 2.114 17.840 C 2.422 18.827,3.173 19.578,4.160 19.886 L 4.460 19.980 12.000 19.980 L 19.540 19.980 19.840 19.886 C 20.827 19.578,21.578 18.827,21.886 17.840 L 21.980 17.540 21.980 12.000 L 21.980 6.460 21.886 6.160 C 21.581 5.182,20.832 4.428,19.861 4.121 L 19.540 4.020 12.120 4.014 C 8.039 4.011,4.609 4.024,4.499 4.043 M19.310 6.061 C 19.589 6.144,19.856 6.411,19.939 6.690 C 19.992 6.868,20.000 7.546,20.000 12.001 C 20.000 16.212,19.990 17.139,19.945 17.290 C 19.872 17.533,19.707 17.740,19.484 17.872 L 19.300 17.980 12.000 17.980 L 4.700 17.980 4.516 17.872 C 4.303 17.747,4.141 17.550,4.058 17.316 C 3.969 17.061,3.971 6.993,4.061 6.690 C 4.140 6.421,4.412 6.143,4.673 6.063 C 4.964 5.974,19.009 5.971,19.310 6.061 M6.614 9.057 C 6.223 9.180,6.039 9.436,6.009 9.900 C 5.968 10.532,6.251 10.922,6.797 10.987 L 7.000 11.011 7.000 12.616 C 7.000 13.567,7.017 14.279,7.041 14.365 C 7.148 14.750,7.437 14.962,7.896 14.991 C 8.381 15.022,8.699 14.882,8.880 14.558 L 8.980 14.380 8.980 12.000 L 8.980 9.620 8.891 9.453 C 8.785 9.256,8.622 9.131,8.371 9.055 C 8.126 8.982,6.851 8.983,6.614 9.057 M13.614 9.055 C 13.375 9.133,13.211 9.262,13.109 9.453 C 13.020 9.619,13.020 9.629,13.009 11.911 C 13.001 13.392,13.012 14.256,13.039 14.355 C 13.144 14.747,13.433 14.961,13.896 14.991 C 14.381 15.022,14.699 14.882,14.879 14.558 C 14.971 14.393,14.980 14.329,14.999 13.704 L 15.020 13.027 15.680 13.904 C 16.435 14.906,16.583 15.040,16.935 15.040 C 17.328 15.039,17.728 14.781,17.900 14.417 L 18.003 14.198 17.992 11.909 C 17.980 9.629,17.980 9.619,17.891 9.453 C 17.785 9.256,17.622 9.131,17.371 9.055 C 16.861 8.902,16.310 9.076,16.110 9.453 C 16.032 9.600,16.019 9.700,16.001 10.296 L 15.980 10.973 15.320 10.097 C 14.755 9.348,14.633 9.209,14.472 9.127 C 14.241 9.010,13.852 8.977,13.614 9.055 M10.545 9.579 C 10.171 9.712,9.973 10.090,10.009 10.603 C 10.047 11.127,10.276 11.399,10.754 11.488 C 11.254 11.581,11.714 11.403,11.884 11.051 C 12.002 10.807,12.029 10.400,11.945 10.112 C 11.870 9.852,11.655 9.630,11.413 9.563 C 11.200 9.504,10.731 9.513,10.545 9.579 M10.545 12.579 C 10.171 12.712,9.973 13.090,10.009 13.603 C 10.047 14.127,10.276 14.399,10.754 14.488 C 11.254 14.581,11.714 14.403,11.884 14.051 C 12.002 13.807,12.029 13.400,11.945 13.112 C 11.870 12.852,11.655 12.630,11.413 12.563 C 11.200 12.504,10.731 12.513,10.545 12.579 " stroke="none" fill="black" fill-rule="evenodd"></path></svg>