<svg xmlns="http://www.w3.org/2000/svg" width="24" height="24" viewBox="0 0 24 24" fill="none" stroke="currentColor" stroke-width="2" stroke-linecap="round" stroke-linejoin="round" class="icon icon-tabler icons-tabler-outline icon-tabler-circle-letter-v"><path d="M11.080 2.045 C 9.507 2.184,7.883 2.751,6.540 3.630 C 5.905 4.045,5.499 4.378,4.919 4.958 C 2.953 6.926,1.919 9.544,2.013 12.320 C 2.084 14.439,2.752 16.328,4.033 18.040 C 4.430 18.570,5.305 19.464,5.800 19.847 C 7.242 20.961,8.787 21.624,10.600 21.907 C 11.247 22.008,12.753 22.008,13.400 21.907 C 15.638 21.557,17.504 20.620,19.062 19.062 C 20.620 17.504,21.557 15.638,21.907 13.400 C 22.008 12.753,22.008 11.247,21.907 10.600 C 21.624 8.786,20.959 7.238,19.847 5.800 C 19.510 5.365,18.639 4.494,18.200 4.154 C 16.133 2.555,13.646 1.818,11.080 2.045 M12.734 4.041 C 14.574 4.216,16.228 4.976,17.554 6.256 C 20.043 8.658,20.702 12.394,19.183 15.499 C 18.749 16.387,18.223 17.105,17.496 17.801 C 16.876 18.394,16.262 18.819,15.471 19.200 C 13.267 20.265,10.733 20.265,8.529 19.200 C 7.477 18.693,6.612 18.015,5.847 17.100 C 3.848 14.711,3.440 11.302,4.816 8.500 C 6.162 5.760,8.867 4.049,11.920 4.005 C 12.129 4.003,12.495 4.019,12.734 4.041 M9.633 7.077 C 9.165 7.260,8.989 7.481,8.995 7.879 C 8.997 8.043,9.312 9.367,10.044 12.297 C 11.185 16.859,11.143 16.726,11.482 16.916 C 11.606 16.986,11.708 17.009,11.894 17.008 C 12.360 17.005,12.752 16.780,12.897 16.434 C 12.931 16.353,13.417 14.450,13.979 12.204 C 15.094 7.746,15.088 7.777,14.900 7.456 C 14.681 7.083,13.919 6.877,13.504 7.078 C 13.164 7.243,13.148 7.286,12.555 9.659 C 12.261 10.837,12.011 11.800,12.000 11.800 C 11.989 11.800,11.739 10.837,11.445 9.659 C 10.855 7.298,10.835 7.242,10.505 7.083 C 10.287 6.977,9.895 6.974,9.633 7.077 " stroke="none" fill="black" fill-rule="evenodd"></path></svg>