<svg xmlns="http://www.w3.org/2000/svg" width="24" height="24" viewBox="0 0 24 24" fill="none" stroke="currentColor" stroke-width="2" stroke-linecap="round" stroke-linejoin="round" class="icon icon-tabler icons-tabler-outline icon-tabler-bell-star"><path d="M11.499 2.040 C 10.389 2.242,9.473 3.037,9.139 4.090 C 9.055 4.357,9.049 4.365,8.767 4.538 C 7.862 5.096,6.970 5.956,6.363 6.856 C 5.849 7.617,5.469 8.462,5.244 9.341 C 5.042 10.129,5.029 10.285,5.001 12.280 L 4.975 14.180 4.871 14.472 C 4.642 15.112,4.157 15.720,3.591 16.077 C 3.126 16.369,2.975 16.639,3.009 17.115 C 3.041 17.565,3.255 17.854,3.635 17.959 C 3.724 17.984,4.598 18.000,5.884 18.000 L 7.988 18.000 8.014 18.332 C 8.085 19.266,8.486 20.122,9.180 20.824 C 9.561 21.209,9.895 21.441,10.367 21.650 C 11.253 22.040,11.738 21.960,12.024 21.376 C 12.149 21.119,12.196 20.691,12.123 20.468 C 12.052 20.255,11.816 20.067,11.435 19.922 C 11.009 19.758,10.770 19.606,10.530 19.344 C 10.268 19.057,10.088 18.672,10.033 18.279 L 9.988 17.961 10.169 17.801 C 10.405 17.593,10.486 17.387,10.486 16.994 C 10.486 16.491,10.303 16.195,9.909 16.064 C 9.745 16.009,9.471 16.000,8.047 16.000 L 6.376 16.000 6.527 15.690 C 6.666 15.404,6.804 15.009,6.924 14.560 C 6.955 14.441,6.981 13.739,6.999 12.480 C 7.021 10.961,7.040 10.510,7.094 10.230 C 7.391 8.673,8.325 7.245,9.620 6.370 C 9.752 6.281,10.031 6.116,10.240 6.004 C 10.790 5.709,11.000 5.441,11.000 5.033 C 11.000 4.483,11.467 4.000,12.000 4.000 C 12.536 4.000,13.000 4.483,13.000 5.040 C 13.000 5.440,13.218 5.727,13.709 5.975 C 14.852 6.552,15.794 7.503,16.371 8.660 C 16.598 9.118,16.723 9.465,16.859 10.029 C 16.993 10.579,17.117 10.793,17.378 10.919 C 17.641 11.047,18.092 11.022,18.418 10.863 C 18.967 10.594,19.013 10.115,18.611 8.860 C 18.057 7.131,16.824 5.537,15.303 4.583 L 14.946 4.359 14.860 4.088 C 14.567 3.165,13.786 2.400,12.861 2.129 C 12.500 2.023,11.832 1.980,11.499 2.040 M17.372 13.072 C 17.112 13.165,16.870 13.331,16.723 13.517 C 16.661 13.596,16.403 14.074,16.150 14.580 L 15.689 15.501 14.657 15.651 C 13.546 15.812,13.351 15.870,13.063 16.122 C 12.745 16.402,12.575 16.831,12.611 17.267 C 12.646 17.710,12.753 17.864,13.623 18.726 C 14.233 19.330,14.399 19.517,14.384 19.580 C 14.373 19.624,14.289 20.107,14.197 20.653 L 14.030 21.645 14.095 21.913 C 14.262 22.595,14.870 23.044,15.552 22.989 C 15.821 22.968,16.039 22.871,17.330 22.198 L 17.800 21.953 18.270 22.198 C 19.561 22.871,19.779 22.968,20.048 22.989 C 20.724 23.043,21.333 22.598,21.503 21.925 C 21.576 21.635,21.580 21.680,21.357 20.400 L 21.200 19.500 21.979 18.726 C 22.844 17.867,22.944 17.722,22.986 17.276 C 23.027 16.835,22.860 16.406,22.537 16.122 C 22.249 15.870,22.054 15.812,20.943 15.651 L 19.911 15.501 19.434 14.548 C 18.905 13.491,18.773 13.315,18.370 13.130 C 18.069 12.992,17.662 12.969,17.372 13.072 M18.121 16.405 C 18.445 17.059,18.612 17.261,18.907 17.352 C 18.991 17.378,19.336 17.439,19.672 17.487 L 20.285 17.574 19.787 18.077 C 19.512 18.354,19.259 18.638,19.223 18.709 C 19.109 18.939,19.107 19.150,19.216 19.772 C 19.273 20.097,19.320 20.390,19.320 20.423 C 19.320 20.465,19.131 20.386,18.690 20.158 C 18.091 19.848,18.047 19.832,17.800 19.832 C 17.553 19.832,17.509 19.848,16.910 20.158 C 16.417 20.412,16.280 20.468,16.280 20.415 C 16.280 20.378,16.327 20.084,16.384 19.763 C 16.493 19.150,16.492 18.939,16.377 18.709 C 16.341 18.638,16.088 18.354,15.813 18.077 L 15.315 17.574 15.928 17.487 C 16.264 17.439,16.609 17.378,16.693 17.352 C 16.988 17.261,17.155 17.059,17.479 16.405 C 17.643 16.072,17.788 15.800,17.800 15.800 C 17.812 15.800,17.957 16.072,18.121 16.405 " stroke="none" fill="black" fill-rule="evenodd"></path></svg>