<svg xmlns="http://www.w3.org/2000/svg" width="24" height="24" viewBox="0 0 24 24" fill="none" stroke="currentColor" stroke-width="2" stroke-linecap="round" stroke-linejoin="round" class="icon icon-tabler icons-tabler-outline icon-tabler-shoe"><path d="M3.477 5.073 C 2.806 5.249,2.238 5.823,2.060 6.508 C 2.008 6.705,2.000 7.464,2.000 12.000 C 2.000 17.733,1.990 17.466,2.225 17.930 C 2.361 18.199,2.801 18.639,3.070 18.775 C 3.542 19.014,2.983 19.000,12.000 19.000 C 21.017 19.000,20.458 19.014,20.930 18.775 C 21.196 18.640,21.638 18.200,21.771 17.937 C 21.997 17.492,22.008 17.375,21.988 15.602 C 21.970 13.868,21.963 13.800,21.740 13.136 C 21.331 11.918,20.384 10.833,19.219 10.249 C 18.797 10.037,18.278 9.894,15.760 9.297 C 13.968 8.871,13.229 8.679,13.040 8.590 C 12.595 8.379,12.417 8.157,11.699 6.922 C 10.997 5.715,10.813 5.483,10.376 5.251 C 9.902 5.000,9.923 5.001,6.680 5.003 C 4.033 5.004,3.714 5.011,3.477 5.073 M9.950 7.902 L 10.477 8.804 9.736 10.292 C 8.899 11.971,8.868 12.066,9.040 12.420 C 9.145 12.637,9.398 12.840,9.712 12.959 C 10.110 13.111,10.475 13.029,10.708 12.735 C 10.775 12.650,11.088 12.064,11.403 11.433 L 11.976 10.287 12.199 10.400 C 12.469 10.536,12.817 10.653,13.277 10.762 C 13.466 10.806,13.687 10.861,13.769 10.883 L 13.917 10.922 13.456 11.851 C 12.925 12.922,12.880 13.090,13.040 13.420 C 13.145 13.637,13.398 13.840,13.712 13.959 C 14.110 14.111,14.475 14.029,14.708 13.735 C 14.775 13.650,15.075 13.090,15.375 12.490 C 15.675 11.890,15.928 11.400,15.938 11.400 C 15.948 11.400,16.412 11.508,16.968 11.641 C 18.291 11.956,18.571 12.084,19.102 12.615 C 19.408 12.921,19.497 13.041,19.655 13.360 C 19.970 13.997,19.971 14.000,19.989 15.590 L 20.006 17.000 14.509 17.000 L 9.012 17.000 8.988 16.670 C 8.880 15.142,8.048 13.699,6.800 12.874 C 6.019 12.357,5.382 12.128,4.470 12.036 L 4.000 11.988 4.000 9.494 L 4.000 7.000 6.712 7.000 L 9.423 7.000 9.950 7.902 M4.876 14.134 C 6.009 14.462,6.863 15.509,6.982 16.714 L 7.010 17.000 5.505 17.000 L 4.000 17.000 4.000 15.495 L 4.000 13.990 4.286 14.018 C 4.443 14.033,4.709 14.086,4.876 14.134 " stroke="none" fill="black" fill-rule="evenodd"></path></svg>