<svg xmlns="http://www.w3.org/2000/svg" width="24" height="24" viewBox="0 0 24 24" fill="none" stroke="currentColor" stroke-width="2" stroke-linecap="round" stroke-linejoin="round" class="icon icon-tabler icons-tabler-outline icon-tabler-loader-quarter"><path d="M11.614 2.057 C 11.377 2.131,11.212 2.261,11.109 2.453 C 11.021 2.618,11.020 2.647,11.008 4.410 C 11.001 5.557,11.012 6.255,11.038 6.354 C 11.144 6.747,11.433 6.961,11.896 6.991 C 12.381 7.022,12.699 6.882,12.880 6.558 L 12.980 6.380 12.980 4.500 C 12.980 2.633,12.979 2.619,12.891 2.453 C 12.842 2.362,12.746 2.247,12.678 2.199 C 12.414 2.010,11.957 1.950,11.614 2.057 M5.226 4.645 C 5.020 4.754,4.746 5.033,4.638 5.244 C 4.524 5.468,4.524 5.732,4.640 5.963 C 4.771 6.225,7.159 8.608,7.400 8.717 C 7.773 8.885,8.129 8.788,8.474 8.422 C 8.805 8.072,8.879 7.760,8.717 7.400 C 8.611 7.166,6.226 4.771,5.972 4.644 C 5.752 4.534,5.435 4.535,5.226 4.645 M2.614 11.057 C 2.377 11.131,2.212 11.261,2.109 11.453 C 2.035 11.592,2.020 11.684,2.020 12.000 C 2.020 12.331,2.033 12.403,2.120 12.558 C 2.230 12.755,2.414 12.898,2.635 12.959 C 2.722 12.983,3.470 13.000,4.500 13.000 C 5.530 13.000,6.278 12.983,6.365 12.959 C 6.586 12.898,6.770 12.755,6.880 12.558 C 6.967 12.402,6.980 12.332,6.979 12.000 C 6.978 11.687,6.962 11.591,6.890 11.453 C 6.786 11.256,6.623 11.131,6.371 11.055 C 6.114 10.978,2.862 10.980,2.614 11.057 " stroke="none" fill="black" fill-rule="evenodd"></path></svg>