<svg xmlns="http://www.w3.org/2000/svg" width="24" height="24" viewBox="0 0 24 24" fill="none" stroke="currentColor" stroke-width="2" stroke-linecap="round" stroke-linejoin="round" class="icon icon-tabler icons-tabler-outline icon-tabler-equal-double"><path d="M2.614 9.057 C 2.377 9.131,2.212 9.261,2.109 9.453 C 2.035 9.592,2.020 9.684,2.020 10.000 C 2.020 10.331,2.033 10.403,2.120 10.558 C 2.230 10.755,2.414 10.898,2.635 10.959 C 2.833 11.014,10.167 11.014,10.365 10.959 C 10.586 10.898,10.770 10.755,10.880 10.558 C 10.967 10.402,10.980 10.332,10.979 10.000 C 10.978 9.567,10.898 9.355,10.678 9.199 C 10.395 8.997,10.449 9.000,6.484 9.003 C 3.561 9.005,2.745 9.016,2.614 9.057 M13.614 9.057 C 13.377 9.131,13.212 9.261,13.109 9.453 C 13.035 9.592,13.020 9.684,13.020 10.000 C 13.020 10.331,13.033 10.403,13.120 10.558 C 13.230 10.755,13.414 10.898,13.635 10.959 C 13.833 11.014,21.167 11.014,21.365 10.959 C 21.586 10.898,21.770 10.755,21.880 10.558 C 21.967 10.402,21.980 10.332,21.979 10.000 C 21.978 9.567,21.898 9.355,21.678 9.199 C 21.395 8.997,21.449 9.000,17.484 9.003 C 14.561 9.005,13.745 9.016,13.614 9.057 M2.614 13.057 C 2.377 13.131,2.212 13.261,2.109 13.453 C 2.035 13.592,2.020 13.684,2.020 14.000 C 2.020 14.331,2.033 14.403,2.120 14.558 C 2.230 14.755,2.414 14.898,2.635 14.959 C 2.833 15.014,10.167 15.014,10.365 14.959 C 10.586 14.898,10.770 14.755,10.880 14.558 C 10.967 14.402,10.980 14.332,10.979 14.000 C 10.978 13.567,10.898 13.355,10.678 13.199 C 10.395 12.997,10.449 13.000,6.484 13.003 C 3.561 13.005,2.745 13.016,2.614 13.057 M13.614 13.057 C 13.377 13.131,13.212 13.261,13.109 13.453 C 13.035 13.592,13.020 13.684,13.020 14.000 C 13.020 14.331,13.033 14.403,13.120 14.558 C 13.230 14.755,13.414 14.898,13.635 14.959 C 13.833 15.014,21.167 15.014,21.365 14.959 C 21.586 14.898,21.770 14.755,21.880 14.558 C 21.967 14.402,21.980 14.332,21.979 14.000 C 21.978 13.567,21.898 13.355,21.678 13.199 C 21.395 12.997,21.449 13.000,17.484 13.003 C 14.561 13.005,13.745 13.016,13.614 13.057 " stroke="none" fill="black" fill-rule="evenodd"></path></svg>