<svg xmlns="http://www.w3.org/2000/svg" width="24" height="24" viewBox="0 0 24 24" fill="none" stroke="currentColor" stroke-width="2" stroke-linecap="round" stroke-linejoin="round" class="icon icon-tabler icons-tabler-outline icon-tabler-ease-in-out"><path d="M20.280 3.044 C 18.554 3.240,16.931 4.098,15.418 5.616 C 14.176 6.862,13.230 8.161,11.091 11.560 C 9.066 14.777,8.336 15.783,7.180 16.943 C 6.245 17.881,5.458 18.415,4.540 18.731 C 4.066 18.895,3.755 18.953,3.113 18.997 C 2.419 19.046,2.157 19.205,2.035 19.656 C 1.967 19.911,2.010 20.356,2.124 20.562 C 2.320 20.918,2.604 21.020,3.300 20.987 C 3.954 20.955,4.441 20.864,5.078 20.655 C 6.343 20.241,7.437 19.532,8.582 18.383 C 9.825 17.135,10.769 15.839,12.909 12.440 C 14.936 9.220,15.672 8.207,16.819 7.058 C 18.158 5.717,19.249 5.144,20.680 5.032 C 20.977 5.009,21.285 4.974,21.364 4.955 C 21.580 4.903,21.768 4.758,21.880 4.558 C 21.967 4.402,21.980 4.332,21.979 4.000 C 21.978 3.687,21.962 3.591,21.890 3.453 C 21.676 3.049,21.233 2.937,20.280 3.044 " stroke="none" fill="black" fill-rule="evenodd"></path></svg>