<svg xmlns="http://www.w3.org/2000/svg" width="24" height="24" viewBox="0 0 24 24" fill="none" stroke="currentColor" stroke-width="2" stroke-linecap="round" stroke-linejoin="round" class="icon icon-tabler icons-tabler-outline icon-tabler-baseline-density-small"><path d="M3.614 2.057 C 3.377 2.131,3.212 2.261,3.109 2.453 C 3.035 2.592,3.020 2.684,3.020 3.000 C 3.020 3.331,3.033 3.403,3.120 3.558 C 3.230 3.755,3.414 3.898,3.635 3.959 C 3.835 4.015,20.165 4.015,20.365 3.959 C 20.586 3.898,20.770 3.755,20.880 3.558 C 20.967 3.402,20.980 3.332,20.979 3.000 C 20.978 2.567,20.898 2.355,20.678 2.199 C 20.386 1.990,20.799 2.000,11.984 2.003 C 5.367 2.005,3.748 2.015,3.614 2.057 M3.614 8.057 C 3.377 8.131,3.212 8.261,3.109 8.453 C 3.035 8.592,3.020 8.684,3.020 9.000 C 3.020 9.331,3.033 9.403,3.120 9.558 C 3.230 9.755,3.414 9.898,3.635 9.959 C 3.835 10.015,20.165 10.015,20.365 9.959 C 20.586 9.898,20.770 9.755,20.880 9.558 C 20.967 9.402,20.980 9.332,20.979 9.000 C 20.978 8.567,20.898 8.355,20.678 8.199 C 20.386 7.990,20.799 8.000,11.984 8.003 C 5.367 8.005,3.748 8.015,3.614 8.057 M3.614 14.057 C 3.377 14.131,3.212 14.261,3.109 14.453 C 3.035 14.592,3.020 14.684,3.020 15.000 C 3.020 15.331,3.033 15.403,3.120 15.558 C 3.230 15.755,3.414 15.898,3.635 15.959 C 3.835 16.015,20.165 16.015,20.365 15.959 C 20.586 15.898,20.770 15.755,20.880 15.558 C 20.967 15.402,20.980 15.332,20.979 15.000 C 20.978 14.567,20.898 14.355,20.678 14.199 C 20.386 13.990,20.799 14.000,11.984 14.003 C 5.367 14.005,3.748 14.015,3.614 14.057 M3.614 20.057 C 3.377 20.131,3.212 20.261,3.109 20.453 C 3.035 20.592,3.020 20.684,3.020 21.000 C 3.020 21.331,3.033 21.403,3.120 21.558 C 3.230 21.755,3.414 21.898,3.635 21.959 C 3.835 22.015,20.165 22.015,20.365 21.959 C 20.586 21.898,20.770 21.755,20.880 21.558 C 20.967 21.402,20.980 21.332,20.979 21.000 C 20.978 20.567,20.898 20.355,20.678 20.199 C 20.386 19.990,20.799 20.000,11.984 20.003 C 5.367 20.005,3.748 20.015,3.614 20.057 " stroke="none" fill="black" fill-rule="evenodd"></path></svg>