<svg xmlns="http://www.w3.org/2000/svg" width="24" height="24" viewBox="0 0 24 24" fill="none" stroke="currentColor" stroke-width="2" stroke-linecap="round" stroke-linejoin="round" class="icon icon-tabler icons-tabler-outline icon-tabler-rv-truck"><path d="M6.960 3.062 C 6.606 3.138,6.107 3.393,5.835 3.636 C 5.539 3.901,5.262 4.312,5.136 4.677 C 5.018 5.016,4.969 5.580,5.029 5.904 L 5.067 6.109 4.829 6.180 C 4.452 6.293,3.929 6.566,3.566 6.840 C 2.805 7.414,2.280 8.259,2.083 9.227 C 2.003 9.618,2.000 9.755,2.000 12.948 C 2.000 16.551,1.996 16.478,2.225 16.930 C 2.361 17.199,2.801 17.639,3.070 17.775 C 3.339 17.911,3.683 18.000,3.942 18.000 L 4.147 18.000 4.312 18.330 C 4.682 19.069,5.355 19.635,6.160 19.886 C 6.594 20.021,7.406 20.021,7.840 19.886 C 8.645 19.635,9.318 19.069,9.688 18.330 L 9.853 18.000 12.000 18.000 L 14.147 18.000 14.312 18.330 C 14.682 19.069,15.355 19.635,16.160 19.886 C 16.594 20.021,17.406 20.021,17.840 19.886 C 18.645 19.635,19.318 19.069,19.688 18.330 L 19.853 18.000 20.058 18.000 C 20.317 18.000,20.661 17.911,20.930 17.775 C 21.196 17.640,21.638 17.200,21.771 16.937 C 22.004 16.478,22.004 16.478,21.991 13.609 C 21.981 11.161,21.975 10.961,21.903 10.700 C 21.858 10.536,21.557 9.882,21.176 9.120 C 20.652 8.073,20.475 7.758,20.267 7.500 C 19.558 6.622,18.511 6.083,17.380 6.014 L 16.980 5.989 16.978 5.485 C 16.976 5.040,16.963 4.944,16.867 4.680 C 16.647 4.069,16.196 3.561,15.620 3.277 C 15.047 2.993,15.176 3.001,10.980 3.004 C 7.920 3.006,7.172 3.017,6.960 3.062 M14.724 5.062 C 14.977 5.193,15.068 5.508,14.922 5.748 C 14.759 6.014,14.978 6.000,11.000 6.000 C 7.022 6.000,7.241 6.014,7.078 5.748 C 6.935 5.513,7.009 5.226,7.252 5.078 C 7.376 5.002,7.480 5.000,10.992 5.000 C 14.175 5.000,14.618 5.007,14.724 5.062 M14.000 9.500 L 14.000 11.000 9.000 11.000 L 4.000 11.000 4.000 10.398 C 4.000 9.996,4.021 9.704,4.062 9.522 C 4.215 8.850,4.801 8.250,5.477 8.073 C 5.717 8.011,6.099 8.004,9.870 8.002 L 14.000 8.000 14.000 9.500 M17.596 8.062 C 17.957 8.147,18.303 8.340,18.565 8.605 C 18.761 8.803,18.861 8.972,19.337 9.916 L 19.883 11.000 17.941 11.000 L 16.000 11.000 16.000 9.500 L 16.000 8.000 16.670 8.001 C 17.126 8.001,17.422 8.020,17.596 8.062 M20.000 14.500 C 20.000 15.929,19.997 16.000,19.927 16.000 C 19.875 16.000,19.805 15.904,19.688 15.670 C 19.321 14.938,18.642 14.363,17.861 14.125 C 17.588 14.042,17.458 14.027,17.000 14.027 C 16.542 14.027,16.412 14.042,16.139 14.125 C 15.358 14.363,14.679 14.938,14.312 15.670 L 14.147 16.000 12.000 16.000 L 9.853 16.000 9.688 15.670 C 9.321 14.938,8.642 14.363,7.861 14.125 C 7.588 14.042,7.458 14.027,7.000 14.027 C 6.542 14.027,6.412 14.042,6.139 14.125 C 5.358 14.363,4.679 14.938,4.312 15.670 C 4.195 15.904,4.125 16.000,4.073 16.000 C 4.003 16.000,4.000 15.929,4.000 14.500 L 4.000 13.000 12.000 13.000 L 20.000 13.000 20.000 14.500 M7.334 16.064 C 7.698 16.188,8.000 16.613,8.000 17.001 C 8.000 17.331,7.784 17.696,7.484 17.872 C 7.328 17.963,7.254 17.980,7.000 17.980 C 6.746 17.980,6.672 17.963,6.516 17.872 C 5.937 17.531,5.833 16.774,6.301 16.306 C 6.587 16.019,6.952 15.934,7.334 16.064 M17.334 16.064 C 17.698 16.188,18.000 16.613,18.000 17.001 C 18.000 17.331,17.784 17.696,17.484 17.872 C 17.328 17.963,17.254 17.980,17.000 17.980 C 16.746 17.980,16.672 17.963,16.516 17.872 C 15.934 17.529,15.831 16.775,16.304 16.303 C 16.587 16.019,16.954 15.935,17.334 16.064 " stroke="none" fill="black" fill-rule="evenodd"></path></svg>