<svg xmlns="http://www.w3.org/2000/svg" width="24" height="24" viewBox="0 0 24 24" fill="none" stroke="currentColor" stroke-width="2" stroke-linecap="round" stroke-linejoin="round" class="icon icon-tabler icons-tabler-outline icon-tabler-drag-drop"><path d="M2.614 2.057 C 2.221 2.180,2.039 2.435,2.009 2.906 C 1.962 3.621,2.306 4.000,3.000 4.000 C 3.698 4.000,4.043 3.616,3.989 2.900 C 3.963 2.563,3.859 2.327,3.678 2.199 C 3.414 2.010,2.957 1.950,2.614 2.057 M6.614 2.057 C 6.221 2.180,6.039 2.435,6.009 2.906 C 5.962 3.621,6.306 4.000,7.000 4.000 C 7.698 4.000,8.043 3.616,7.989 2.900 C 7.963 2.563,7.859 2.327,7.678 2.199 C 7.414 2.010,6.957 1.950,6.614 2.057 M10.614 2.057 C 10.221 2.180,10.039 2.435,10.009 2.906 C 9.962 3.621,10.306 4.000,11.000 4.000 C 11.698 4.000,12.043 3.616,11.989 2.900 C 11.963 2.563,11.859 2.327,11.678 2.199 C 11.414 2.010,10.957 1.950,10.614 2.057 M14.614 2.057 C 14.221 2.180,14.039 2.435,14.009 2.906 C 13.962 3.621,14.306 4.000,15.000 4.000 C 15.698 4.000,16.043 3.616,15.989 2.900 C 15.963 2.563,15.859 2.327,15.678 2.199 C 15.414 2.010,14.957 1.950,14.614 2.057 M2.614 6.057 C 2.221 6.180,2.039 6.435,2.009 6.906 C 1.962 7.621,2.306 8.000,3.000 8.000 C 3.698 8.000,4.043 7.616,3.989 6.900 C 3.963 6.563,3.859 6.327,3.678 6.199 C 3.414 6.010,2.957 5.950,2.614 6.057 M8.499 6.043 C 7.379 6.234,6.461 7.048,6.114 8.160 L 6.020 8.460 6.020 13.000 L 6.020 17.540 6.114 17.840 C 6.419 18.817,7.158 19.562,8.140 19.884 C 8.405 19.971,8.492 19.976,9.804 19.991 C 10.715 20.001,11.243 19.992,11.348 19.963 C 11.583 19.900,11.767 19.760,11.880 19.558 C 11.967 19.402,11.980 19.332,11.979 19.000 C 11.977 18.469,11.850 18.243,11.455 18.072 C 11.375 18.037,10.942 18.016,10.020 18.001 L 8.700 17.980 8.516 17.872 C 8.415 17.813,8.284 17.700,8.225 17.623 C 7.990 17.315,8.000 17.515,8.000 13.022 C 8.000 8.357,7.983 8.623,8.303 8.303 C 8.623 7.983,8.359 8.000,13.000 8.000 C 17.641 8.000,17.377 7.983,17.697 8.303 C 17.982 8.588,18.000 8.692,18.000 10.057 C 18.000 10.713,18.018 11.283,18.041 11.365 C 18.148 11.750,18.437 11.962,18.896 11.991 C 19.381 12.022,19.699 11.882,19.880 11.558 L 19.980 11.380 19.980 9.920 C 19.980 8.501,19.977 8.452,19.886 8.160 C 19.581 7.182,18.832 6.428,17.861 6.121 L 17.540 6.020 13.120 6.014 C 10.689 6.011,8.609 6.024,8.499 6.043 M2.614 10.057 C 2.221 10.180,2.039 10.435,2.009 10.906 C 1.962 11.621,2.306 12.000,3.000 12.000 C 3.698 12.000,4.043 11.616,3.989 10.900 C 3.963 10.563,3.859 10.327,3.678 10.199 C 3.414 10.010,2.957 9.950,2.614 10.057 M12.720 12.000 C 12.523 12.035,12.442 12.087,12.231 12.312 C 12.114 12.438,12.028 12.575,11.998 12.685 C 11.935 12.918,11.971 13.324,12.069 13.490 C 12.112 13.563,12.809 15.608,13.618 18.035 C 14.811 21.613,15.113 22.478,15.216 22.613 C 15.372 22.817,15.723 23.004,16.000 23.031 C 16.279 23.058,16.524 22.958,16.696 22.747 C 16.770 22.655,17.263 21.716,17.792 20.660 L 18.752 18.740 20.644 17.800 C 22.713 16.772,22.813 16.709,22.933 16.336 C 22.968 16.228,23.007 16.075,23.021 15.996 C 23.077 15.679,22.874 15.321,22.544 15.152 C 22.454 15.106,20.418 14.414,18.020 13.615 C 15.622 12.815,13.595 12.125,13.516 12.081 C 13.363 11.996,12.969 11.956,12.720 12.000 M2.614 14.057 C 2.221 14.180,2.039 14.435,2.009 14.906 C 1.962 15.621,2.306 16.000,3.000 16.000 C 3.698 16.000,4.043 15.616,3.989 14.900 C 3.963 14.563,3.859 14.327,3.678 14.199 C 3.414 14.010,2.957 13.950,2.614 14.057 M17.060 15.414 L 19.380 16.188 18.417 16.671 C 17.888 16.936,17.397 17.201,17.327 17.260 C 17.237 17.336,17.049 17.666,16.693 18.374 L 16.187 19.380 15.413 17.060 C 14.988 15.784,14.629 14.707,14.616 14.666 C 14.597 14.608,14.608 14.597,14.666 14.616 C 14.707 14.629,15.784 14.988,17.060 15.414 " stroke="none" fill="black" fill-rule="evenodd"></path></svg>