<svg xmlns="http://www.w3.org/2000/svg" width="24" height="24" viewBox="0 0 24 24" fill="none" stroke="currentColor" stroke-width="2" stroke-linecap="round" stroke-linejoin="round" class="icon icon-tabler icons-tabler-outline icon-tabler-explicit-off"><path d="M2.626 2.045 C 2.257 2.239,1.951 2.673,1.951 3.000 C 1.951 3.293,2.085 3.492,2.702 4.120 L 3.273 4.700 3.146 5.060 L 3.020 5.420 3.020 11.980 L 3.020 18.540 3.114 18.840 C 3.422 19.827,4.173 20.578,5.160 20.886 L 5.460 20.980 12.020 20.980 L 18.580 20.980 18.940 20.854 L 19.300 20.727 19.880 21.298 C 20.205 21.617,20.538 21.908,20.637 21.959 C 20.988 22.137,21.353 22.049,21.701 21.701 C 22.048 21.355,22.137 20.990,21.961 20.637 C 21.898 20.511,20.566 19.148,17.353 15.920 C 14.868 13.423,12.795 11.340,12.747 11.292 C 12.699 11.243,12.255 10.799,11.760 10.305 C 11.265 9.811,10.815 9.361,10.760 9.306 C 10.705 9.250,9.058 7.613,7.100 5.667 C 4.709 3.290,3.485 2.101,3.372 2.044 C 3.152 1.934,2.835 1.935,2.626 2.045 M7.614 3.057 C 7.377 3.132,7.212 3.261,7.109 3.453 C 7.035 3.592,7.020 3.684,7.020 4.000 C 7.020 4.331,7.033 4.403,7.120 4.558 C 7.230 4.755,7.414 4.898,7.635 4.959 C 7.729 4.985,9.608 5.000,12.943 5.000 C 18.764 5.000,18.373 4.979,18.697 5.303 C 19.021 5.627,19.000 5.236,19.000 11.057 C 19.000 14.392,19.015 16.271,19.041 16.365 C 19.148 16.750,19.437 16.962,19.896 16.991 C 20.381 17.022,20.699 16.882,20.880 16.558 L 20.980 16.380 20.980 10.920 L 20.980 5.460 20.886 5.160 C 20.581 4.182,19.832 3.428,18.861 3.121 L 18.540 3.020 13.160 3.012 C 8.811 3.006,7.748 3.014,7.614 3.057 M9.000 13.320 C 9.000 15.139,9.015 16.274,9.041 16.365 C 9.102 16.586,9.245 16.770,9.442 16.880 L 9.620 16.980 12.000 16.980 L 14.380 16.980 14.558 16.880 C 14.716 16.792,14.791 16.711,14.940 16.464 C 14.973 16.408,15.194 16.611,16.280 17.699 L 17.580 19.001 11.640 18.990 L 5.700 18.980 5.516 18.872 C 5.415 18.813,5.284 18.700,5.225 18.623 C 4.987 18.311,5.000 18.677,5.000 12.285 L 5.000 6.420 7.000 8.420 L 9.000 10.420 9.000 13.320 M11.614 7.057 C 11.377 7.131,11.212 7.261,11.109 7.453 C 11.035 7.592,11.020 7.684,11.020 8.000 C 11.020 8.331,11.033 8.403,11.120 8.558 C 11.230 8.755,11.414 8.898,11.635 8.959 C 11.826 9.012,14.174 9.012,14.365 8.959 C 14.586 8.898,14.770 8.755,14.880 8.558 C 14.967 8.402,14.980 8.332,14.979 8.000 C 14.978 7.687,14.962 7.591,14.890 7.453 C 14.786 7.256,14.623 7.131,14.371 7.055 C 14.117 6.979,11.859 6.981,11.614 7.057 M12.580 14.000 L 13.579 15.000 12.290 15.000 L 11.000 15.000 11.000 14.000 L 11.000 13.000 11.290 13.000 L 11.581 13.000 12.580 14.000 " stroke="none" fill="black" fill-rule="evenodd"></path></svg>