<svg xmlns="http://www.w3.org/2000/svg" width="24" height="24" viewBox="0 0 24 24" fill="none" stroke="currentColor" stroke-width="2" stroke-linecap="round" stroke-linejoin="round" class="icon icon-tabler icons-tabler-outline icon-tabler-category-minus"><path d="M3.614 3.057 C 3.377 3.131,3.212 3.261,3.109 3.453 L 3.020 3.620 3.020 7.000 L 3.020 10.380 3.120 10.558 C 3.230 10.755,3.414 10.898,3.635 10.959 C 3.832 11.014,10.168 11.014,10.365 10.959 C 10.586 10.898,10.770 10.755,10.880 10.558 L 10.980 10.380 10.980 7.000 L 10.980 3.620 10.891 3.453 C 10.785 3.256,10.622 3.131,10.371 3.055 C 10.109 2.977,3.866 2.979,3.614 3.057 M13.614 3.057 C 13.377 3.131,13.212 3.261,13.109 3.453 L 13.020 3.620 13.020 7.000 L 13.020 10.380 13.120 10.558 C 13.230 10.755,13.414 10.898,13.635 10.959 C 13.832 11.014,20.168 11.014,20.365 10.959 C 20.586 10.898,20.770 10.755,20.880 10.558 L 20.980 10.380 20.980 7.000 L 20.980 3.620 20.891 3.453 C 20.785 3.256,20.622 3.131,20.371 3.055 C 20.109 2.977,13.866 2.979,13.614 3.057 M9.000 7.000 L 9.000 9.000 7.000 9.000 L 5.000 9.000 5.000 7.000 L 5.000 5.000 7.000 5.000 L 9.000 5.000 9.000 7.000 M19.000 7.000 L 19.000 9.000 17.000 9.000 L 15.000 9.000 15.000 7.000 L 15.000 5.000 17.000 5.000 L 19.000 5.000 19.000 7.000 M3.614 13.057 C 3.377 13.131,3.212 13.261,3.109 13.453 L 3.020 13.620 3.020 17.000 L 3.020 20.380 3.120 20.558 C 3.230 20.755,3.414 20.898,3.635 20.959 C 3.832 21.014,10.168 21.014,10.365 20.959 C 10.586 20.898,10.770 20.755,10.880 20.558 L 10.980 20.380 10.980 17.000 L 10.980 13.620 10.891 13.453 C 10.785 13.256,10.622 13.131,10.371 13.055 C 10.109 12.977,3.866 12.979,3.614 13.057 M9.000 17.000 L 9.000 19.000 7.000 19.000 L 5.000 19.000 5.000 17.000 L 5.000 15.000 7.000 15.000 L 9.000 15.000 9.000 17.000 M13.614 16.057 C 13.377 16.131,13.212 16.261,13.109 16.453 C 13.035 16.592,13.020 16.684,13.020 17.000 C 13.020 17.331,13.033 17.403,13.120 17.558 C 13.230 17.755,13.414 17.898,13.635 17.959 C 13.832 18.014,20.168 18.014,20.365 17.959 C 20.586 17.898,20.770 17.755,20.880 17.558 C 20.967 17.402,20.980 17.332,20.979 17.000 C 20.978 16.567,20.898 16.355,20.678 16.199 C 20.398 15.999,20.411 16.000,16.984 16.003 C 14.472 16.005,13.744 16.017,13.614 16.057 " stroke="none" fill="black" fill-rule="evenodd"></path></svg>