<svg xmlns="http://www.w3.org/2000/svg" width="24" height="24" viewBox="0 0 24 24" fill="none" stroke="currentColor" stroke-width="2" stroke-linecap="round" stroke-linejoin="round" class="icon icon-tabler icons-tabler-outline icon-tabler-soup-off"><path d="M2.626 2.045 C 2.420 2.154,2.146 2.433,2.038 2.644 C 1.924 2.867,1.924 3.132,2.039 3.363 C 2.102 3.488,3.074 4.487,5.352 6.769 L 8.576 9.998 5.595 10.009 L 2.614 10.020 2.417 10.142 C 2.126 10.322,2.027 10.525,2.007 10.989 C 1.955 12.163,2.323 13.738,2.939 14.980 C 3.479 16.071,4.170 16.973,5.077 17.773 L 5.334 18.000 4.073 18.000 C 2.733 18.000,2.576 18.018,2.322 18.199 C 2.100 18.357,2.020 18.568,2.020 19.000 C 2.020 19.331,2.033 19.403,2.120 19.558 C 2.230 19.755,2.414 19.898,2.635 19.959 C 2.730 19.986,5.511 20.000,10.678 20.000 L 18.576 20.000 19.518 20.935 C 20.114 21.526,20.525 21.903,20.637 21.960 C 20.989 22.137,21.354 22.048,21.701 21.701 C 22.048 21.354,22.137 20.989,21.959 20.637 C 21.888 20.496,20.623 19.155,19.748 18.293 C 19.662 18.208,11.958 10.505,11.760 10.306 C 11.705 10.250,9.833 8.388,7.600 6.167 C 4.857 3.438,3.485 2.101,3.372 2.044 C 3.152 1.934,2.835 1.935,2.626 2.045 M11.614 4.057 C 11.377 4.131,11.212 4.261,11.109 4.453 C 11.021 4.618,11.020 4.647,11.008 6.410 C 11.001 7.557,11.012 8.255,11.038 8.354 C 11.144 8.747,11.433 8.961,11.896 8.991 C 12.381 9.022,12.699 8.882,12.880 8.558 L 12.980 8.380 12.980 6.500 C 12.980 4.633,12.979 4.619,12.891 4.453 C 12.842 4.362,12.746 4.247,12.678 4.199 C 12.414 4.010,11.957 3.950,11.614 4.057 M14.614 4.057 C 14.377 4.131,14.212 4.261,14.109 4.453 C 14.021 4.618,14.020 4.647,14.008 6.410 C 14.001 7.557,14.012 8.255,14.038 8.354 C 14.144 8.747,14.433 8.961,14.896 8.991 C 15.381 9.022,15.699 8.882,15.880 8.558 L 15.980 8.380 15.980 6.500 C 15.980 4.633,15.979 4.619,15.891 4.453 C 15.842 4.362,15.746 4.247,15.678 4.199 C 15.414 4.010,14.957 3.950,14.614 4.057 M14.614 10.057 C 14.377 10.131,14.212 10.261,14.109 10.453 C 14.035 10.592,14.020 10.684,14.020 11.000 C 14.020 11.331,14.033 11.403,14.120 11.558 C 14.230 11.755,14.414 11.898,14.635 11.959 C 14.725 11.984,15.752 12.000,17.350 12.000 C 18.824 12.000,19.920 12.015,19.920 12.036 C 19.920 12.055,19.892 12.221,19.857 12.404 C 19.717 13.140,19.335 14.081,18.902 14.757 C 18.547 15.310,18.471 15.550,18.561 15.824 C 18.680 16.184,19.254 16.600,19.632 16.600 C 19.828 16.600,20.049 16.500,20.217 16.334 C 20.462 16.093,21.045 15.105,21.300 14.500 C 21.754 13.419,22.039 11.982,21.992 11.009 C 21.963 10.422,21.810 10.188,21.371 10.055 C 21.109 9.977,14.866 9.979,14.614 10.057 M13.256 14.676 L 15.932 17.352 15.776 17.431 C 15.363 17.640,14.450 17.880,13.753 17.963 C 13.194 18.029,10.287 17.988,9.860 17.908 C 7.563 17.479,5.745 16.127,4.726 14.090 C 4.455 13.548,4.182 12.705,4.104 12.170 L 4.079 12.000 7.330 12.000 L 10.580 12.000 13.256 14.676 " stroke="none" fill="black" fill-rule="evenodd"></path></svg>