<svg xmlns="http://www.w3.org/2000/svg" width="24" height="24" viewBox="0 0 24 24" fill="none" stroke="currentColor" stroke-width="2" stroke-linecap="round" stroke-linejoin="round" class="icon icon-tabler icons-tabler-outline icon-tabler-bug"><path d="M11.358 4.061 C 9.998 4.273,8.826 5.212,8.289 6.521 C 8.155 6.846,8.000 7.532,8.000 7.796 C 8.000 7.952,7.994 7.960,7.878 7.960 C 7.811 7.960,7.706 7.986,7.644 8.018 C 7.534 8.075,7.514 8.063,5.996 7.092 C 5.151 6.551,4.388 6.075,4.300 6.035 C 4.090 5.939,3.796 5.940,3.606 6.037 C 3.274 6.206,2.961 6.696,2.960 7.047 C 2.959 7.500,3.051 7.581,4.899 8.764 L 6.470 9.770 6.353 10.113 C 6.201 10.562,6.097 11.038,6.035 11.570 L 5.986 12.000 4.399 12.000 C 2.710 12.000,2.584 12.012,2.322 12.199 C 2.100 12.357,2.020 12.568,2.020 13.000 C 2.020 13.331,2.033 13.403,2.120 13.558 C 2.230 13.755,2.414 13.898,2.635 13.959 C 2.721 13.983,3.433 14.000,4.385 14.000 L 5.990 14.000 6.011 14.890 C 6.027 15.570,6.051 15.865,6.112 16.140 C 6.172 16.410,6.180 16.511,6.146 16.545 C 6.121 16.569,5.479 16.959,4.720 17.411 C 3.355 18.224,3.092 18.413,3.002 18.653 C 2.802 19.186,3.360 20.041,3.908 20.040 C 3.992 20.040,4.126 20.021,4.207 19.999 C 4.288 19.976,4.927 19.615,5.627 19.195 C 6.327 18.776,6.930 18.416,6.966 18.397 C 7.018 18.369,7.076 18.420,7.250 18.651 C 8.092 19.769,9.384 20.573,10.840 20.885 C 11.446 21.015,12.554 21.015,13.160 20.885 C 14.624 20.571,15.897 19.778,16.750 18.651 C 16.924 18.421,16.982 18.369,17.034 18.397 C 17.070 18.416,17.673 18.776,18.373 19.195 C 19.073 19.615,19.712 19.976,19.793 19.999 C 19.874 20.021,20.008 20.040,20.092 20.040 C 20.640 20.041,21.198 19.186,20.998 18.653 C 20.908 18.413,20.645 18.224,19.280 17.411 C 18.521 16.960,17.879 16.570,17.854 16.545 C 17.820 16.511,17.828 16.410,17.887 16.140 C 17.947 15.868,17.972 15.563,17.988 14.890 L 18.010 14.000 19.615 14.000 C 20.567 14.000,21.279 13.983,21.365 13.959 C 21.586 13.898,21.770 13.755,21.880 13.558 C 21.967 13.402,21.980 13.332,21.979 13.000 C 21.978 12.567,21.898 12.355,21.678 12.199 C 21.416 12.012,21.290 12.000,19.601 12.000 L 18.014 12.000 17.965 11.570 C 17.903 11.038,17.799 10.562,17.647 10.113 L 17.530 9.770 19.101 8.764 C 20.949 7.581,21.041 7.500,21.040 7.047 C 21.039 6.696,20.726 6.206,20.394 6.037 C 20.204 5.940,19.910 5.939,19.700 6.035 C 19.612 6.075,18.865 6.539,18.040 7.067 C 17.215 7.594,16.517 8.039,16.489 8.056 C 16.462 8.072,16.340 8.063,16.219 8.036 L 16.000 7.987 16.000 7.810 C 16.000 7.527,15.853 6.882,15.705 6.516 C 15.172 5.197,14.001 4.269,12.605 4.058 C 12.144 3.989,11.816 3.990,11.358 4.061 M12.478 6.062 C 12.956 6.171,13.389 6.485,13.686 6.937 C 13.855 7.196,13.938 7.430,13.981 7.776 L 14.009 8.000 12.005 8.000 L 10.000 8.000 10.000 7.898 C 10.000 7.676,10.132 7.235,10.265 7.014 C 10.739 6.222,11.584 5.859,12.478 6.062 M15.544 10.230 C 15.696 10.566,15.795 10.856,15.889 11.240 C 15.966 11.553,15.974 11.722,15.989 13.380 C 16.006 15.322,15.981 15.706,15.796 16.244 C 15.373 17.480,14.382 18.454,13.171 18.824 L 13.003 18.875 12.991 16.248 L 12.980 13.620 12.889 13.450 C 12.724 13.140,12.329 12.970,11.874 13.011 C 11.439 13.051,11.141 13.274,11.041 13.635 C 11.016 13.725,11.000 14.745,11.000 16.328 L 11.000 18.876 10.830 18.824 C 9.383 18.383,8.285 17.107,8.058 15.605 C 7.976 15.061,7.976 12.103,8.058 11.560 C 8.122 11.137,8.264 10.652,8.440 10.259 L 8.557 10.000 11.999 10.000 L 15.441 10.000 15.544 10.230 " stroke="none" fill="black" fill-rule="evenodd"></path></svg>