<svg xmlns="http://www.w3.org/2000/svg" width="24" height="24" viewBox="0 0 24 24" fill="none" stroke="currentColor" stroke-width="2" stroke-linecap="round" stroke-linejoin="round" class="icon icon-tabler icons-tabler-outline icon-tabler-picture-in-picture-on"><path d="M4.499 4.043 C 3.380 4.232,2.461 5.048,2.114 6.160 L 2.020 6.460 2.020 12.000 L 2.020 17.540 2.114 17.840 C 2.418 18.816,3.150 19.555,4.140 19.886 L 4.420 19.979 7.810 19.991 C 10.058 19.999,11.252 19.989,11.354 19.962 C 11.583 19.900,11.768 19.758,11.880 19.558 C 11.967 19.402,11.980 19.332,11.979 19.000 C 11.977 18.469,11.852 18.247,11.455 18.071 C 11.366 18.032,10.588 18.015,8.020 18.000 L 4.700 17.980 4.516 17.872 C 4.415 17.813,4.284 17.700,4.225 17.623 C 3.988 17.312,4.000 17.608,4.000 12.022 C 4.000 6.240,3.980 6.627,4.303 6.303 C 4.631 5.976,4.009 6.000,12.000 6.000 C 19.991 6.000,19.369 5.976,19.697 6.303 C 20.003 6.609,20.000 6.582,20.000 9.057 C 20.000 10.383,20.016 11.276,20.041 11.365 C 20.148 11.750,20.437 11.962,20.896 11.991 C 21.381 12.022,21.699 11.882,21.880 11.558 L 21.980 11.380 21.980 8.920 L 21.980 6.460 21.886 6.160 C 21.581 5.182,20.832 4.428,19.861 4.121 L 19.540 4.020 12.120 4.014 C 8.039 4.011,4.609 4.024,4.499 4.043 M6.626 8.045 C 6.257 8.239,5.951 8.673,5.951 9.000 C 5.951 9.333,6.056 9.467,7.353 10.770 L 8.577 12.000 8.195 12.000 C 7.382 12.000,7.051 12.251,7.009 12.900 C 6.978 13.381,7.119 13.699,7.442 13.880 L 7.620 13.980 9.280 14.008 C 10.193 14.024,10.999 14.037,11.071 14.038 C 11.224 14.040,11.670 13.847,11.768 13.735 C 11.877 13.611,12.040 13.209,12.038 13.069 C 11.991 9.816,11.983 9.626,11.889 9.450 C 11.663 9.027,10.952 8.868,10.446 9.129 C 10.108 9.303,10.001 9.557,10.000 10.179 L 10.000 10.577 8.770 9.353 C 8.001 8.588,7.477 8.098,7.372 8.045 C 7.152 7.934,6.835 7.934,6.626 8.045 M14.477 13.073 C 13.806 13.249,13.238 13.823,13.060 14.508 C 13.011 14.694,13.000 15.066,13.000 16.500 C 13.000 18.411,13.009 18.503,13.225 18.930 C 13.361 19.199,13.801 19.639,14.070 19.775 C 14.516 20.001,14.499 20.000,17.500 20.000 C 20.501 20.000,20.484 20.001,20.930 19.775 C 21.196 19.640,21.638 19.200,21.771 18.937 C 21.990 18.506,22.000 18.396,21.999 16.514 C 21.999 14.642,21.985 14.484,21.781 14.083 C 21.646 13.816,21.297 13.449,21.017 13.281 C 20.555 13.003,20.580 13.005,17.500 13.005 C 15.020 13.005,14.713 13.012,14.477 13.073 M20.000 16.500 L 20.000 18.000 17.500 18.000 L 15.000 18.000 15.000 16.500 L 15.000 15.000 17.500 15.000 L 20.000 15.000 20.000 16.500 " stroke="none" fill="black" fill-rule="evenodd"></path></svg>