<svg xmlns="http://www.w3.org/2000/svg" width="24" height="24" viewBox="0 0 24 24" fill="none" stroke="currentColor" stroke-width="2" stroke-linecap="round" stroke-linejoin="round" class="icon icon-tabler icons-tabler-outline icon-tabler-flag-pin"><path d="M8.020 2.603 C 7.232 2.664,6.510 2.868,5.788 3.234 C 5.074 3.596,4.332 4.170,4.126 4.520 L 4.020 4.700 4.010 12.954 C 4.003 18.404,4.013 21.259,4.040 21.358 C 4.144 21.747,4.434 21.962,4.896 21.991 C 5.381 22.022,5.699 21.882,5.880 21.558 L 5.980 21.380 5.991 17.914 L 6.002 14.448 6.145 14.339 C 6.401 14.144,7.012 13.847,7.373 13.743 C 8.312 13.471,9.412 13.564,10.252 13.985 C 10.665 14.193,10.894 14.353,11.280 14.704 C 12.222 15.560,12.792 15.843,13.211 15.665 C 13.489 15.547,13.792 15.151,13.883 14.787 C 13.977 14.411,13.824 14.135,13.330 13.787 C 13.160 13.667,12.840 13.409,12.620 13.214 C 12.082 12.738,11.747 12.506,11.207 12.232 C 10.474 11.860,9.772 11.665,8.944 11.604 C 8.005 11.535,6.956 11.704,6.150 12.056 L 6.000 12.121 6.000 8.785 L 6.000 5.449 6.144 5.340 C 6.224 5.279,6.453 5.143,6.654 5.037 C 7.792 4.439,9.185 4.436,10.332 5.028 C 10.723 5.230,10.913 5.370,11.474 5.868 C 12.961 7.188,14.901 7.703,16.799 7.280 C 17.122 7.208,17.772 6.998,17.930 6.914 C 17.996 6.879,18.000 6.993,18.000 9.049 C 18.000 10.380,18.016 11.276,18.041 11.365 C 18.148 11.750,18.437 11.962,18.896 11.991 C 19.381 12.022,19.699 11.882,19.880 11.558 L 19.980 11.380 19.980 8.040 L 19.980 4.700 19.871 4.514 C 19.677 4.185,19.324 3.960,19.000 3.960 C 18.751 3.960,18.577 4.045,18.264 4.319 C 17.878 4.658,17.638 4.826,17.300 4.993 C 16.682 5.298,16.178 5.416,15.500 5.416 C 14.822 5.416,14.318 5.298,13.700 4.993 C 13.332 4.811,13.113 4.652,12.593 4.191 C 12.133 3.783,11.801 3.545,11.360 3.308 C 10.331 2.754,9.192 2.514,8.020 2.603 M18.340 14.060 C 17.913 14.130,17.642 14.217,17.275 14.399 C 16.236 14.915,15.537 15.720,15.185 16.807 C 14.791 18.021,15.052 19.450,15.851 20.460 C 16.273 20.993,18.165 22.676,18.610 22.914 C 18.892 23.065,19.097 23.072,19.373 22.941 C 19.537 22.863,20.661 21.912,21.461 21.175 C 22.256 20.442,22.645 19.846,22.868 19.015 C 22.962 18.669,22.975 18.543,22.976 18.000 C 22.977 17.486,22.962 17.325,22.890 17.059 C 22.555 15.825,21.863 14.972,20.736 14.406 C 20.015 14.045,19.175 13.924,18.340 14.060 M19.383 16.043 C 19.962 16.149,20.496 16.556,20.760 17.093 C 20.848 17.273,20.941 17.528,20.964 17.660 C 21.049 18.125,20.934 18.671,20.660 19.101 C 20.538 19.293,19.979 19.839,19.309 20.421 L 18.997 20.691 18.909 20.614 C 17.924 19.754,17.524 19.372,17.355 19.130 C 17.082 18.739,16.949 18.129,17.035 17.660 C 17.107 17.269,17.361 16.802,17.640 16.550 C 18.143 16.095,18.729 15.924,19.383 16.043 M18.614 17.057 C 18.221 17.180,18.039 17.435,18.009 17.906 C 17.962 18.621,18.306 19.000,19.000 19.000 C 19.698 19.000,20.043 18.616,19.989 17.900 C 19.963 17.563,19.859 17.327,19.678 17.199 C 19.414 17.010,18.957 16.950,18.614 17.057 " stroke="none" fill="black" fill-rule="evenodd"></path></svg>