<svg xmlns="http://www.w3.org/2000/svg" width="24" height="24" viewBox="0 0 24 24" fill="none" stroke="currentColor" stroke-width="2" stroke-linecap="round" stroke-linejoin="round" class="icon icon-tabler icons-tabler-outline icon-tabler-ease-in-control-point"><path d="M20.620 2.024 C 20.396 2.147,20.273 2.299,19.661 3.220 C 17.851 5.942,15.722 8.700,13.624 11.040 C 12.956 11.785,11.200 13.541,10.580 14.084 C 8.452 15.948,6.714 17.063,5.076 17.616 C 4.393 17.846,3.850 17.955,3.176 17.996 C 2.567 18.033,2.332 18.118,2.170 18.358 C 1.965 18.662,1.943 19.236,2.124 19.562 C 2.321 19.920,2.602 20.020,3.320 19.987 C 8.057 19.772,14.025 14.755,20.507 5.540 C 21.034 4.791,21.852 3.541,21.946 3.340 C 22.056 3.104,22.069 2.812,21.976 2.618 C 21.896 2.448,21.621 2.193,21.395 2.078 C 21.166 1.961,20.783 1.934,20.620 2.024 M18.499 16.040 C 17.549 16.212,16.740 16.816,16.312 17.670 L 16.147 18.000 15.480 18.000 C 14.570 18.000,14.304 18.088,14.109 18.453 C 14.035 18.592,14.020 18.684,14.020 19.000 C 14.020 19.331,14.033 19.403,14.120 19.558 C 14.230 19.755,14.414 19.898,14.635 19.959 C 14.715 19.981,15.088 20.000,15.463 20.000 L 16.147 20.000 16.312 20.330 C 16.682 21.069,17.355 21.635,18.160 21.886 C 18.412 21.964,18.547 21.979,19.000 21.979 C 19.453 21.979,19.588 21.964,19.840 21.886 C 20.826 21.579,21.579 20.826,21.886 19.840 C 22.021 19.406,22.021 18.594,21.886 18.160 C 21.581 17.179,20.810 16.407,19.861 16.129 C 19.500 16.023,18.832 15.980,18.499 16.040 M9.614 18.057 C 9.377 18.131,9.212 18.261,9.109 18.453 C 9.035 18.592,9.020 18.684,9.020 19.000 C 9.020 19.331,9.033 19.403,9.120 19.558 C 9.230 19.755,9.414 19.898,9.635 19.959 C 9.826 20.012,12.174 20.012,12.365 19.959 C 12.586 19.898,12.770 19.755,12.880 19.558 C 12.967 19.402,12.980 19.332,12.979 19.000 C 12.978 18.687,12.962 18.591,12.890 18.453 C 12.786 18.256,12.623 18.131,12.371 18.055 C 12.117 17.979,9.859 17.981,9.614 18.057 M19.310 18.061 C 19.688 18.173,20.000 18.598,20.000 19.001 C 20.000 19.331,19.784 19.696,19.484 19.872 C 19.328 19.963,19.254 19.980,19.000 19.980 C 18.746 19.980,18.672 19.963,18.516 19.872 C 17.935 19.530,17.833 18.774,18.304 18.303 C 18.583 18.024,18.916 17.944,19.310 18.061 " stroke="none" fill="black" fill-rule="evenodd"></path></svg>