<svg xmlns="http://www.w3.org/2000/svg" width="24" height="24" viewBox="0 0 24 24" fill="none" stroke="currentColor" stroke-width="2" stroke-linecap="round" stroke-linejoin="round" class="icon icon-tabler icons-tabler-outline icon-tabler-indent-increase"><path d="M8.614 5.057 C 8.377 5.131,8.212 5.261,8.109 5.453 C 8.035 5.592,8.020 5.684,8.020 6.000 C 8.020 6.331,8.033 6.403,8.120 6.558 C 8.230 6.755,8.414 6.898,8.635 6.959 C 8.834 7.015,20.166 7.015,20.365 6.959 C 20.586 6.898,20.770 6.755,20.880 6.558 C 20.967 6.402,20.980 6.332,20.979 6.000 C 20.978 5.567,20.898 5.355,20.678 5.199 C 20.389 4.993,20.604 5.000,14.484 5.003 C 9.919 5.005,8.747 5.016,8.614 5.057 M3.626 7.045 C 3.420 7.154,3.146 7.433,3.038 7.644 C 2.924 7.868,2.924 8.133,3.040 8.363 C 3.100 8.483,3.679 9.092,4.853 10.270 L 6.578 12.000 4.853 13.730 C 3.679 14.908,3.100 15.517,3.040 15.637 C 2.863 15.989,2.952 16.354,3.299 16.701 C 3.645 17.048,4.010 17.137,4.363 16.961 C 4.612 16.836,8.836 12.612,8.961 12.363 C 9.014 12.256,9.049 12.111,9.049 12.000 C 9.049 11.889,9.014 11.744,8.961 11.637 C 8.840 11.396,4.612 7.164,4.372 7.044 C 4.152 6.934,3.835 6.935,3.626 7.045 M12.614 11.057 C 12.377 11.131,12.212 11.261,12.109 11.453 C 12.035 11.592,12.020 11.684,12.020 12.000 C 12.020 12.331,12.033 12.403,12.120 12.558 C 12.230 12.755,12.414 12.898,12.635 12.959 C 12.833 13.014,20.167 13.014,20.365 12.959 C 20.586 12.898,20.770 12.755,20.880 12.558 C 20.967 12.402,20.980 12.332,20.979 12.000 C 20.978 11.567,20.898 11.355,20.678 11.199 C 20.395 10.997,20.449 11.000,16.484 11.003 C 13.561 11.005,12.745 11.016,12.614 11.057 M8.614 17.057 C 8.377 17.131,8.212 17.261,8.109 17.453 C 8.035 17.592,8.020 17.684,8.020 18.000 C 8.020 18.331,8.033 18.403,8.120 18.558 C 8.230 18.755,8.414 18.898,8.635 18.959 C 8.834 19.015,20.166 19.015,20.365 18.959 C 20.586 18.898,20.770 18.755,20.880 18.558 C 20.967 18.402,20.980 18.332,20.979 18.000 C 20.978 17.567,20.898 17.355,20.678 17.199 C 20.389 16.993,20.604 17.000,14.484 17.003 C 9.919 17.005,8.747 17.016,8.614 17.057 " stroke="none" fill="black" fill-rule="evenodd"></path></svg>