<svg xmlns="http://www.w3.org/2000/svg" width="24" height="24" viewBox="0 0 24 24" fill="none" stroke="currentColor" stroke-width="2" stroke-linecap="round" stroke-linejoin="round" class="icon icon-tabler icons-tabler-outline icon-tabler-navigation-east"><path d="M9.614 2.057 C 9.377 2.131,9.212 2.261,9.109 2.453 L 9.020 2.620 9.009 5.912 C 9.002 8.060,9.012 9.257,9.039 9.356 C 9.100 9.584,9.242 9.768,9.442 9.880 L 9.620 9.980 11.911 9.991 C 13.392 9.999,14.256 9.988,14.355 9.961 C 14.583 9.900,14.768 9.758,14.880 9.558 C 14.967 9.402,14.980 9.332,14.979 9.000 C 14.978 8.567,14.898 8.355,14.678 8.199 C 14.416 8.012,14.290 8.000,12.594 8.000 L 11.000 8.000 11.000 7.500 L 11.000 7.000 11.853 7.000 C 12.825 7.000,13.023 6.964,13.229 6.751 C 13.418 6.556,13.486 6.355,13.486 5.997 C 13.486 5.491,13.303 5.196,12.909 5.064 C 12.757 5.013,12.539 5.000,11.859 5.000 L 11.000 5.000 11.000 4.500 L 11.000 4.000 12.610 4.000 C 13.565 4.000,14.279 3.983,14.365 3.959 C 14.586 3.898,14.770 3.755,14.880 3.558 C 14.967 3.402,14.980 3.332,14.979 3.000 C 14.978 2.567,14.898 2.355,14.678 2.199 C 14.406 2.005,14.336 2.000,11.984 2.003 C 10.293 2.005,9.741 2.017,9.614 2.057 M11.728 12.036 C 11.275 12.192,11.423 11.936,9.107 16.561 C 6.763 21.241,6.852 21.031,7.040 21.420 C 7.145 21.637,7.406 21.846,7.694 21.944 C 8.077 22.073,8.124 22.056,10.148 21.046 L 12.000 20.121 13.892 21.066 C 15.966 22.101,16.019 22.120,16.383 21.981 C 16.605 21.896,16.843 21.613,16.941 21.316 C 17.081 20.897,17.161 21.084,14.889 16.539 C 13.745 14.250,12.761 12.320,12.703 12.251 C 12.567 12.089,12.296 11.960,12.097 11.961 C 12.011 11.962,11.845 11.996,11.728 12.036 M12.872 16.984 C 13.341 17.922,13.717 18.697,13.707 18.706 C 13.698 18.715,13.371 18.565,12.980 18.371 C 12.299 18.035,12.258 18.020,12.000 18.020 C 11.742 18.020,11.701 18.035,11.020 18.371 C 10.629 18.565,10.302 18.715,10.293 18.706 C 10.273 18.686,11.970 15.280,12.000 15.280 C 12.011 15.280,12.404 16.047,12.872 16.984 " stroke="none" fill="black" fill-rule="evenodd"></path></svg>