<svg xmlns="http://www.w3.org/2000/svg" width="24" height="24" viewBox="0 0 24 24" fill="none" stroke="currentColor" stroke-width="2" stroke-linecap="round" stroke-linejoin="round" class="icon icon-tabler icons-tabler-outline icon-tabler-text-color"><path d="M11.358 4.061 C 9.731 4.315,8.417 5.584,8.083 7.227 C 8.003 7.620,8.000 7.750,8.000 11.426 C 8.000 13.844,8.015 15.272,8.041 15.365 C 8.148 15.750,8.437 15.962,8.896 15.991 C 9.381 16.022,9.699 15.882,9.880 15.558 L 9.980 15.380 9.992 13.690 L 10.004 12.000 12.002 12.000 L 14.000 12.000 14.000 13.610 C 14.000 14.565,14.017 15.279,14.041 15.365 C 14.148 15.750,14.437 15.962,14.896 15.991 C 15.381 16.022,15.699 15.882,15.880 15.558 L 15.980 15.380 15.991 11.511 C 16.002 7.769,15.999 7.629,15.921 7.247 C 15.721 6.264,15.198 5.416,14.438 4.843 C 13.866 4.412,13.276 4.160,12.605 4.058 C 12.144 3.989,11.816 3.990,11.358 4.061 M12.523 6.073 C 13.022 6.203,13.516 6.599,13.772 7.071 C 13.964 7.426,13.999 7.705,13.999 8.910 L 14.000 10.000 12.000 10.000 L 10.000 10.000 10.000 8.898 C 10.000 7.643,10.034 7.398,10.265 7.014 C 10.646 6.378,11.288 6.005,12.000 6.005 C 12.143 6.005,12.378 6.036,12.523 6.073 M4.614 18.057 C 4.377 18.131,4.212 18.261,4.109 18.453 C 4.035 18.592,4.020 18.684,4.020 19.000 C 4.020 19.331,4.033 19.403,4.120 19.558 C 4.230 19.755,4.414 19.898,4.635 19.959 C 4.835 20.015,19.165 20.015,19.365 19.959 C 19.586 19.898,19.770 19.755,19.880 19.558 C 19.967 19.402,19.980 19.332,19.979 19.000 C 19.978 18.567,19.898 18.355,19.678 18.199 C 19.387 17.991,19.720 18.000,11.984 18.003 C 6.188 18.005,4.747 18.016,4.614 18.057 " stroke="none" fill="black" fill-rule="evenodd"></path></svg>