<svg xmlns="http://www.w3.org/2000/svg" width="24" height="24" viewBox="0 0 24 24" fill="none" stroke="currentColor" stroke-width="2" stroke-linecap="round" stroke-linejoin="round" class="icon icon-tabler icons-tabler-outline icon-tabler-eye-dollar"><path d="M11.160 5.040 C 7.777 5.321,4.963 7.198,2.619 10.738 C 2.100 11.523,2.001 11.724,2.001 12.000 C 2.001 12.276,2.100 12.477,2.619 13.262 C 4.756 16.490,7.264 18.321,10.280 18.854 C 11.178 19.013,12.545 19.041,13.300 18.917 C 13.916 18.816,14.200 18.527,14.200 18.003 C 14.200 17.568,14.023 17.193,13.741 17.033 C 13.557 16.929,13.416 16.923,12.320 16.978 C 10.358 17.076,8.545 16.459,6.900 15.132 C 6.437 14.758,5.580 13.892,5.188 13.400 C 4.894 13.030,4.320 12.235,4.244 12.090 C 4.185 11.977,4.198 11.952,4.605 11.380 C 5.092 10.695,5.417 10.304,5.980 9.725 C 6.846 8.835,7.662 8.233,8.615 7.781 C 9.434 7.392,10.092 7.192,10.940 7.073 C 11.468 6.999,12.729 7.011,13.220 7.094 C 15.361 7.459,17.041 8.504,18.766 10.540 C 19.204 11.058,19.247 11.097,19.470 11.184 C 19.783 11.307,20.152 11.187,20.495 10.851 C 20.603 10.746,20.715 10.602,20.745 10.531 C 20.821 10.352,20.812 10.050,20.725 9.859 C 20.532 9.433,19.078 7.866,18.320 7.265 C 16.786 6.050,15.154 5.335,13.380 5.100 C 12.791 5.022,11.724 4.994,11.160 5.040 M11.499 9.040 C 10.363 9.246,9.460 10.049,9.114 11.160 C 8.979 11.594,8.979 12.406,9.114 12.840 C 9.421 13.826,10.174 14.579,11.160 14.886 C 11.594 15.021,12.406 15.021,12.840 14.886 C 13.826 14.579,14.579 13.826,14.886 12.840 C 15.021 12.406,15.021 11.594,14.886 11.160 C 14.581 10.179,13.810 9.407,12.861 9.129 C 12.500 9.023,11.832 8.980,11.499 9.040 M12.310 11.061 C 12.688 11.173,13.000 11.598,13.000 12.001 C 13.000 12.331,12.784 12.696,12.484 12.872 C 12.328 12.963,12.254 12.980,12.000 12.980 C 11.746 12.980,11.672 12.963,11.516 12.872 C 10.935 12.530,10.833 11.774,11.304 11.303 C 11.583 11.024,11.916 10.944,12.310 11.061 M18.614 13.057 C 18.250 13.171,18.061 13.411,18.008 13.826 L 17.980 14.049 17.759 14.118 C 17.003 14.351,16.361 14.979,16.118 15.722 C 16.034 15.976,16.020 16.094,16.022 16.520 C 16.024 16.960,16.038 17.056,16.133 17.320 C 16.394 18.039,16.964 18.609,17.680 18.867 C 17.961 18.968,18.033 18.976,18.800 18.992 C 19.702 19.010,19.786 19.030,19.922 19.252 C 20.021 19.415,20.021 19.585,19.922 19.748 C 19.770 19.997,19.750 20.000,18.208 20.000 C 16.724 20.000,16.580 20.015,16.322 20.199 C 16.100 20.357,16.020 20.568,16.020 21.000 C 16.020 21.331,16.033 21.403,16.120 21.558 C 16.230 21.755,16.414 21.898,16.635 21.959 C 16.715 21.981,17.052 22.000,17.384 22.000 L 17.989 22.000 18.013 22.203 C 18.074 22.715,18.426 23.000,19.000 23.000 C 19.582 23.000,19.923 22.720,19.984 22.193 L 20.010 21.966 20.294 21.873 C 21.001 21.642,21.605 21.046,21.868 20.320 C 21.965 20.052,21.976 19.965,21.976 19.500 C 21.976 19.035,21.965 18.948,21.868 18.680 C 21.646 18.068,21.195 17.561,20.620 17.277 C 20.172 17.055,19.869 17.002,19.068 17.001 C 18.319 17.000,18.216 16.974,18.078 16.748 C 17.979 16.585,17.979 16.415,18.078 16.252 C 18.230 16.003,18.249 16.000,19.808 16.000 C 20.630 16.000,21.280 15.983,21.365 15.959 C 21.586 15.898,21.770 15.755,21.880 15.558 C 21.967 15.402,21.980 15.332,21.979 15.000 C 21.978 14.687,21.962 14.591,21.890 14.453 C 21.702 14.098,21.423 14.000,20.599 14.000 L 20.010 14.000 19.983 13.794 C 19.948 13.531,19.835 13.310,19.678 13.199 C 19.414 13.010,18.957 12.950,18.614 13.057 " stroke="none" fill="black" fill-rule="evenodd"></path></svg>