<svg xmlns="http://www.w3.org/2000/svg" width="24" height="24" viewBox="0 0 24 24" fill="none" stroke="currentColor" stroke-width="2" stroke-linecap="round" stroke-linejoin="round" class="icon icon-tabler icons-tabler-outline icon-tabler-dice-2"><path d="M4.499 2.043 C 3.380 2.232,2.461 3.048,2.114 4.160 L 2.020 4.460 2.020 12.000 L 2.020 19.540 2.114 19.840 C 2.422 20.827,3.173 21.578,4.160 21.886 L 4.460 21.980 12.000 21.980 L 19.540 21.980 19.840 21.886 C 20.827 21.578,21.578 20.827,21.886 19.840 L 21.980 19.540 21.980 12.000 L 21.980 4.460 21.886 4.160 C 21.581 3.182,20.832 2.428,19.861 2.121 L 19.540 2.020 12.120 2.014 C 8.039 2.011,4.609 2.024,4.499 2.043 M19.310 4.061 C 19.589 4.144,19.856 4.411,19.939 4.690 C 19.993 4.870,20.000 5.755,20.000 12.001 C 20.000 17.907,19.991 19.138,19.945 19.290 C 19.872 19.533,19.707 19.740,19.484 19.872 L 19.300 19.980 12.000 19.980 L 4.700 19.980 4.516 19.872 C 4.415 19.813,4.284 19.700,4.225 19.623 C 3.986 19.309,4.000 19.795,4.000 12.022 C 4.000 5.758,4.007 4.870,4.061 4.690 C 4.140 4.421,4.412 4.143,4.673 4.063 C 4.964 3.974,19.009 3.971,19.310 4.061 M9.174 8.039 C 8.750 8.129,8.329 8.477,8.132 8.900 C 8.035 9.107,8.020 9.190,8.020 9.500 C 8.020 9.811,8.035 9.894,8.133 10.104 C 8.276 10.413,8.585 10.721,8.900 10.868 C 9.107 10.965,9.190 10.980,9.500 10.980 C 9.810 10.980,9.893 10.965,10.100 10.868 C 10.415 10.721,10.724 10.413,10.867 10.104 C 10.965 9.894,10.980 9.811,10.980 9.500 C 10.980 9.189,10.965 9.106,10.867 8.896 C 10.727 8.592,10.415 8.278,10.119 8.143 C 9.870 8.030,9.441 7.982,9.174 8.039 M14.174 13.039 C 13.750 13.129,13.329 13.477,13.132 13.900 C 13.035 14.107,13.020 14.190,13.020 14.500 C 13.020 14.811,13.035 14.894,13.133 15.104 C 13.276 15.413,13.585 15.721,13.900 15.868 C 14.107 15.965,14.190 15.980,14.500 15.980 C 14.810 15.980,14.893 15.965,15.100 15.868 C 15.415 15.721,15.724 15.413,15.867 15.104 C 15.965 14.894,15.980 14.811,15.980 14.500 C 15.980 14.189,15.965 14.106,15.867 13.896 C 15.727 13.592,15.415 13.278,15.119 13.143 C 14.870 13.030,14.441 12.982,14.174 13.039 " stroke="none" fill="black" fill-rule="evenodd"></path></svg>