<svg xmlns="http://www.w3.org/2000/svg" width="24" height="24" viewBox="0 0 24 24" fill="none" stroke="currentColor" stroke-width="2" stroke-linecap="round" stroke-linejoin="round" class="icon icon-tabler icons-tabler-outline icon-tabler-float-right"><path d="M14.477 4.073 C 13.806 4.249,13.238 4.823,13.060 5.508 C 13.010 5.698,13.000 6.123,13.000 8.000 C 13.000 10.455,13.003 10.491,13.225 10.930 C 13.361 11.199,13.801 11.639,14.070 11.775 C 14.509 11.997,14.545 12.000,17.000 12.000 C 19.455 12.000,19.491 11.997,19.930 11.775 C 20.196 11.640,20.638 11.200,20.771 10.937 C 20.996 10.494,21.000 10.442,20.999 8.014 C 20.999 5.601,20.991 5.496,20.781 5.083 C 20.646 4.816,20.297 4.449,20.017 4.281 C 19.564 4.008,19.524 4.005,17.000 4.005 C 14.992 4.005,14.711 4.012,14.477 4.073 M3.614 6.057 C 3.377 6.131,3.212 6.261,3.109 6.453 C 3.035 6.592,3.020 6.684,3.020 7.000 C 3.020 7.331,3.033 7.403,3.120 7.558 C 3.230 7.755,3.414 7.898,3.635 7.959 C 3.832 8.014,10.168 8.014,10.365 7.959 C 10.586 7.898,10.770 7.755,10.880 7.558 C 10.967 7.402,10.980 7.332,10.979 7.000 C 10.978 6.567,10.898 6.355,10.678 6.199 C 10.398 5.999,10.411 6.000,6.984 6.003 C 4.472 6.005,3.744 6.017,3.614 6.057 M19.000 8.000 L 19.000 10.000 17.000 10.000 L 15.000 10.000 15.000 8.000 L 15.000 6.000 17.000 6.000 L 19.000 6.000 19.000 8.000 M3.614 10.057 C 3.377 10.131,3.212 10.261,3.109 10.453 C 3.035 10.592,3.020 10.684,3.020 11.000 C 3.020 11.331,3.033 11.403,3.120 11.558 C 3.230 11.755,3.414 11.898,3.635 11.959 C 3.832 12.014,10.168 12.014,10.365 11.959 C 10.586 11.898,10.770 11.755,10.880 11.558 C 10.967 11.402,10.980 11.332,10.979 11.000 C 10.978 10.567,10.898 10.355,10.678 10.199 C 10.398 9.999,10.411 10.000,6.984 10.003 C 4.472 10.005,3.744 10.017,3.614 10.057 M3.614 14.057 C 3.377 14.131,3.212 14.261,3.109 14.453 C 3.035 14.592,3.020 14.684,3.020 15.000 C 3.020 15.331,3.033 15.403,3.120 15.558 C 3.230 15.755,3.414 15.898,3.635 15.959 C 3.835 16.015,20.165 16.015,20.365 15.959 C 20.586 15.898,20.770 15.755,20.880 15.558 C 20.967 15.402,20.980 15.332,20.979 15.000 C 20.978 14.567,20.898 14.355,20.678 14.199 C 20.386 13.990,20.799 14.000,11.984 14.003 C 5.367 14.005,3.748 14.015,3.614 14.057 M3.614 18.057 C 3.377 18.131,3.212 18.261,3.109 18.453 C 3.035 18.592,3.020 18.684,3.020 19.000 C 3.020 19.331,3.033 19.403,3.120 19.558 C 3.230 19.755,3.414 19.898,3.635 19.959 C 3.835 20.015,20.165 20.015,20.365 19.959 C 20.586 19.898,20.770 19.755,20.880 19.558 C 20.967 19.402,20.980 19.332,20.979 19.000 C 20.978 18.567,20.898 18.355,20.678 18.199 C 20.386 17.990,20.799 18.000,11.984 18.003 C 5.367 18.005,3.748 18.015,3.614 18.057 " stroke="none" fill="black" fill-rule="evenodd"></path></svg>