<svg xmlns="http://www.w3.org/2000/svg" width="24" height="24" viewBox="0 0 24 24" fill="none" stroke="currentColor" stroke-width="2" stroke-linecap="round" stroke-linejoin="round" class="icon icon-tabler icons-tabler-outline icon-tabler-confetti"><path d="M4.614 3.057 C 4.260 3.168,4.058 3.416,4.013 3.794 L 3.991 3.983 3.752 4.029 C 3.272 4.120,3.042 4.389,3.009 4.900 C 2.969 5.530,3.252 5.923,3.792 5.987 L 3.990 6.010 4.013 6.208 C 4.074 6.715,4.428 7.000,5.000 7.000 C 5.572 7.000,5.919 6.723,5.982 6.215 L 6.008 6.010 6.201 5.987 C 6.539 5.947,6.754 5.804,6.904 5.520 C 7.018 5.303,7.009 4.679,6.888 4.450 C 6.773 4.233,6.551 4.086,6.248 4.029 L 6.008 3.983 5.982 3.786 C 5.948 3.531,5.834 3.309,5.678 3.199 C 5.414 3.010,4.957 2.950,4.614 3.057 M10.982 3.091 C 10.682 3.261,10.625 3.393,10.299 4.681 C 9.963 6.011,9.934 6.252,10.083 6.516 C 10.246 6.807,10.671 7.008,11.120 7.008 C 11.497 7.008,11.769 6.807,11.914 6.420 C 11.938 6.354,12.086 5.787,12.242 5.160 C 12.545 3.946,12.565 3.759,12.422 3.484 C 12.216 3.086,11.389 2.860,10.982 3.091 M18.614 3.057 C 18.260 3.168,18.058 3.416,18.013 3.794 L 17.991 3.983 17.752 4.029 C 17.272 4.120,17.042 4.389,17.009 4.900 C 16.969 5.530,17.252 5.923,17.792 5.987 L 17.990 6.010 18.013 6.208 C 18.074 6.715,18.428 7.000,19.000 7.000 C 19.572 7.000,19.919 6.723,19.982 6.215 L 20.008 6.010 20.201 5.987 C 20.539 5.947,20.754 5.804,20.904 5.520 C 21.018 5.303,21.009 4.679,20.888 4.450 C 20.773 4.233,20.551 4.086,20.248 4.029 L 20.008 3.983 19.982 3.786 C 19.948 3.531,19.834 3.309,19.678 3.199 C 19.414 3.010,18.957 2.950,18.614 3.057 M14.620 8.046 C 14.396 8.163,13.151 9.416,13.040 9.637 C 12.863 9.989,12.952 10.354,13.299 10.701 C 13.646 11.048,14.011 11.137,14.363 10.960 C 14.600 10.841,15.841 9.600,15.960 9.363 C 16.137 9.011,16.048 8.646,15.701 8.299 C 15.361 7.959,14.967 7.867,14.620 8.046 M7.105 9.045 C 6.711 9.253,6.787 9.105,4.405 14.304 C 3.186 16.964,2.153 19.239,2.109 19.360 C 2.007 19.639,1.975 20.127,2.040 20.406 C 2.219 21.181,2.823 21.784,3.594 21.961 C 3.874 22.025,4.362 21.992,4.640 21.891 C 4.761 21.847,7.036 20.814,9.695 19.595 C 13.405 17.895,14.570 17.345,14.702 17.229 C 15.019 16.952,15.093 16.411,14.867 16.030 C 14.716 15.776,8.060 9.148,7.852 9.044 C 7.631 8.934,7.315 8.935,7.105 9.045 M18.775 11.776 C 17.463 12.106,17.255 12.192,17.093 12.469 C 16.846 12.890,17.059 13.678,17.483 13.917 C 17.750 14.067,17.964 14.042,19.299 13.705 C 20.607 13.375,20.736 13.320,20.912 13.018 C 20.992 12.881,21.002 12.818,20.989 12.540 C 20.956 11.865,20.623 11.477,20.080 11.482 C 20.003 11.482,19.416 11.615,18.775 11.776 M10.038 13.978 C 11.258 15.199,12.247 16.206,12.236 16.217 C 12.217 16.236,4.568 19.750,4.170 19.923 L 3.999 19.997 4.053 19.889 C 4.083 19.829,4.933 17.976,5.942 15.770 C 6.951 13.564,7.787 11.760,7.799 11.760 C 7.810 11.760,8.818 12.758,10.038 13.978 M18.614 17.057 C 18.260 17.168,18.058 17.416,18.013 17.794 L 17.991 17.983 17.752 18.029 C 17.272 18.120,17.042 18.389,17.009 18.900 C 16.969 19.530,17.252 19.923,17.792 19.987 L 17.990 20.010 18.013 20.208 C 18.074 20.715,18.428 21.000,19.000 21.000 C 19.572 21.000,19.919 20.723,19.982 20.215 L 20.008 20.010 20.201 19.987 C 20.539 19.947,20.754 19.804,20.904 19.520 C 21.018 19.303,21.009 18.679,20.888 18.450 C 20.773 18.233,20.551 18.086,20.248 18.029 L 20.008 17.983 19.982 17.786 C 19.948 17.531,19.834 17.309,19.678 17.199 C 19.414 17.010,18.957 16.950,18.614 17.057 " stroke="none" fill="black" fill-rule="evenodd"></path></svg>