<svg xmlns="http://www.w3.org/2000/svg" width="24" height="24" viewBox="0 0 24 24" fill="none" stroke="currentColor" stroke-width="2" stroke-linecap="round" stroke-linejoin="round" class="icon icon-tabler icons-tabler-outline icon-tabler-diamond"><path d="M5.507 4.091 C 5.234 4.240,5.181 4.294,5.085 4.517 C 5.040 4.622,4.339 5.816,3.527 7.170 C 2.491 8.897,2.036 9.691,2.002 9.831 C 1.947 10.062,1.992 10.294,2.134 10.502 C 2.234 10.649,10.531 19.936,10.788 20.190 C 11.149 20.545,11.508 20.694,12.000 20.694 C 12.492 20.694,12.851 20.545,13.212 20.190 C 13.620 19.788,21.790 10.616,21.888 10.449 C 22.028 10.210,22.056 10.024,21.987 9.796 C 21.912 9.548,18.859 4.461,18.672 4.273 C 18.386 3.985,18.806 4.003,11.905 3.991 L 5.709 3.980 5.507 4.091 M18.595 7.945 L 19.762 9.889 19.610 10.055 C 19.527 10.146,17.789 12.087,15.747 14.370 C 13.705 16.652,12.019 18.520,12.000 18.520 C 11.981 18.520,10.295 16.652,8.253 14.370 C 6.211 12.088,4.472 10.144,4.387 10.052 L 4.233 9.884 5.399 7.942 L 6.564 6.000 11.996 6.000 L 17.428 6.000 18.595 7.945 M8.197 7.839 C 8.118 7.881,7.990 7.986,7.911 8.073 C 7.694 8.313,7.055 9.410,7.001 9.635 C 6.947 9.862,6.993 10.095,7.134 10.302 C 7.286 10.526,9.391 12.817,9.528 12.908 C 9.925 13.172,10.445 13.040,10.822 12.580 C 10.987 12.379,11.046 12.229,11.046 12.013 C 11.047 11.671,10.975 11.574,9.650 10.129 L 9.237 9.678 9.341 9.509 C 9.608 9.079,9.693 8.741,9.602 8.466 C 9.574 8.382,9.465 8.242,9.337 8.125 C 8.972 7.791,8.508 7.675,8.197 7.839 " stroke="none" fill="black" fill-rule="evenodd"></path></svg>