<svg xmlns="http://www.w3.org/2000/svg" width="24" height="24" viewBox="0 0 24 24" fill="none" stroke="currentColor" stroke-width="2" stroke-linecap="round" stroke-linejoin="round" class="icon icon-tabler icons-tabler-outline icon-tabler-folder-code"><path d="M4.499 3.043 C 3.383 3.230,2.461 4.048,2.114 5.160 L 2.020 5.460 2.020 11.500 L 2.020 17.540 2.114 17.840 C 2.418 18.816,3.150 19.555,4.140 19.886 L 4.420 19.979 7.810 19.991 C 10.058 19.999,11.252 19.989,11.354 19.962 C 11.583 19.900,11.768 19.758,11.880 19.558 C 11.967 19.402,11.980 19.332,11.979 19.000 C 11.977 18.469,11.852 18.247,11.455 18.071 C 11.366 18.032,10.588 18.015,8.020 18.000 L 4.700 17.980 4.516 17.872 C 4.415 17.813,4.284 17.700,4.225 17.623 C 3.987 17.311,4.000 17.655,4.000 11.522 C 4.000 5.182,3.978 5.628,4.303 5.303 C 4.605 5.002,4.618 5.000,6.737 5.000 L 8.580 5.000 9.960 6.383 C 10.719 7.143,11.421 7.814,11.520 7.873 L 11.700 7.980 15.480 8.000 C 19.716 8.022,19.404 7.999,19.717 8.321 C 20.000 8.614,20.000 8.610,20.000 11.057 C 20.000 12.383,20.016 13.276,20.041 13.365 C 20.148 13.750,20.437 13.962,20.896 13.991 C 21.381 14.022,21.699 13.882,21.880 13.558 L 21.980 13.380 21.980 10.920 L 21.980 8.460 21.886 8.160 C 21.581 7.182,20.831 6.427,19.861 6.122 L 19.540 6.021 15.980 6.009 L 12.421 5.997 10.980 4.563 C 9.613 3.200,9.529 3.125,9.323 3.064 C 9.134 3.008,8.816 3.001,6.903 3.005 C 5.691 3.007,4.609 3.025,4.499 3.043 M16.620 16.046 C 16.390 16.165,14.153 18.411,14.040 18.637 C 13.986 18.744,13.951 18.889,13.951 19.000 C 13.951 19.334,14.057 19.468,15.294 20.706 C 16.532 21.943,16.666 22.049,17.000 22.049 C 17.477 22.049,18.049 21.477,18.049 21.000 C 18.049 20.693,17.921 20.513,17.147 19.730 L 16.425 19.000 17.147 18.270 C 17.580 17.832,17.905 17.469,17.959 17.363 C 18.137 17.012,18.048 16.646,17.701 16.299 C 17.361 15.959,16.967 15.867,16.620 16.046 M19.626 16.045 C 19.257 16.239,18.951 16.673,18.951 17.000 C 18.951 17.307,19.079 17.487,19.853 18.270 L 20.575 19.000 19.853 19.730 C 19.420 20.168,19.095 20.531,19.041 20.637 C 18.863 20.988,18.952 21.354,19.299 21.701 C 19.646 22.048,20.010 22.137,20.363 21.960 C 20.607 21.838,22.838 19.607,22.960 19.363 C 23.076 19.132,23.076 18.868,22.960 18.637 C 22.842 18.400,20.608 16.162,20.372 16.044 C 20.152 15.934,19.835 15.935,19.626 16.045 " stroke="none" fill="black" fill-rule="evenodd"></path></svg>