<svg xmlns="http://www.w3.org/2000/svg" width="24" height="24" viewBox="0 0 24 24" fill="none" stroke="currentColor" stroke-width="2" stroke-linecap="round" stroke-linejoin="round" class="icon icon-tabler icons-tabler-outline icon-tabler-circle-check"><path d="M11.080 2.045 C 9.507 2.184,7.883 2.751,6.540 3.630 C 5.905 4.045,5.499 4.378,4.919 4.958 C 2.953 6.926,1.919 9.544,2.013 12.320 C 2.084 14.439,2.752 16.328,4.033 18.040 C 4.430 18.570,5.305 19.464,5.800 19.847 C 7.242 20.961,8.787 21.624,10.600 21.907 C 11.247 22.008,12.753 22.008,13.400 21.907 C 15.638 21.557,17.504 20.620,19.062 19.062 C 20.620 17.504,21.557 15.638,21.907 13.400 C 22.008 12.753,22.008 11.247,21.907 10.600 C 21.624 8.786,20.959 7.238,19.847 5.800 C 19.510 5.365,18.639 4.494,18.200 4.154 C 16.133 2.555,13.646 1.818,11.080 2.045 M12.734 4.041 C 14.574 4.216,16.228 4.976,17.554 6.256 C 20.043 8.658,20.702 12.394,19.183 15.499 C 18.749 16.387,18.223 17.105,17.496 17.801 C 16.876 18.394,16.262 18.819,15.471 19.200 C 13.267 20.265,10.733 20.265,8.529 19.200 C 7.477 18.693,6.612 18.015,5.847 17.100 C 3.848 14.711,3.440 11.302,4.816 8.500 C 6.162 5.760,8.867 4.049,11.920 4.005 C 12.129 4.003,12.495 4.019,12.734 4.041 M14.620 9.046 C 14.525 9.095,13.753 9.834,12.731 10.853 L 11.001 12.577 10.271 11.854 C 9.856 11.444,9.467 11.094,9.372 11.045 C 9.021 10.868,8.640 10.958,8.299 11.299 C 7.952 11.646,7.863 12.010,8.040 12.363 C 8.162 12.607,10.393 14.838,10.637 14.960 C 10.868 15.076,11.132 15.076,11.363 14.961 C 11.612 14.836,15.836 10.612,15.961 10.363 C 16.137 10.010,16.048 9.645,15.701 9.299 C 15.361 8.959,14.967 8.867,14.620 9.046 " stroke="none" fill="black" fill-rule="evenodd"></path></svg>