<svg xmlns="http://www.w3.org/2000/svg" width="24" height="24" viewBox="0 0 24 24" fill="none" stroke="currentColor" stroke-width="2" stroke-linecap="round" stroke-linejoin="round" class="icon icon-tabler icons-tabler-outline icon-tabler-arrows-diagonal-minimize"><path d="M3.626 3.045 C 3.420 3.154,3.146 3.433,3.038 3.644 C 2.924 3.868,2.924 4.132,3.040 4.363 C 3.101 4.486,3.811 5.224,5.353 6.770 L 7.578 9.000 6.696 9.000 C 5.757 9.000,5.561 9.028,5.322 9.199 C 5.139 9.329,5.030 9.573,5.009 9.900 C 4.978 10.381,5.119 10.699,5.442 10.880 L 5.620 10.980 7.780 11.007 C 8.968 11.023,9.999 11.036,10.071 11.037 C 10.224 11.040,10.669 10.847,10.768 10.735 C 10.878 10.611,11.041 10.209,11.038 10.069 C 11.036 9.998,11.023 8.968,11.008 7.780 C 10.980 5.637,10.979 5.619,10.889 5.450 C 10.724 5.140,10.329 4.970,9.874 5.011 C 9.439 5.051,9.141 5.274,9.041 5.635 C 9.019 5.715,9.000 6.185,9.000 6.679 L 9.000 7.578 6.770 5.353 C 5.295 3.881,4.483 3.100,4.372 3.044 C 4.152 2.934,3.835 2.935,3.626 3.045 M13.597 13.050 C 13.507 13.088,13.378 13.159,13.311 13.207 C 13.166 13.310,12.959 13.739,12.963 13.929 C 12.964 14.001,12.977 15.032,12.993 16.220 L 13.020 18.380 13.120 18.558 C 13.287 18.856,13.572 19.000,14.000 19.000 C 14.428 19.000,14.713 18.856,14.880 18.558 C 14.978 18.384,14.980 18.359,14.993 17.404 L 15.006 16.428 17.233 18.650 C 18.777 20.190,19.514 20.899,19.637 20.960 C 19.990 21.137,20.354 21.048,20.701 20.701 C 21.048 20.354,21.137 19.990,20.960 19.637 C 20.899 19.514,20.189 18.776,18.647 17.230 L 16.422 15.000 17.321 15.000 C 17.815 15.000,18.285 14.981,18.365 14.959 C 18.586 14.898,18.770 14.755,18.880 14.558 C 18.967 14.402,18.980 14.332,18.979 14.000 C 18.978 13.685,18.963 13.591,18.888 13.450 C 18.783 13.252,18.574 13.102,18.320 13.043 C 18.211 13.018,17.278 12.997,15.951 12.991 C 13.941 12.981,13.748 12.986,13.597 13.050 " stroke="none" fill="black" fill-rule="evenodd"></path></svg>