<svg xmlns="http://www.w3.org/2000/svg" width="24" height="24" viewBox="0 0 24 24" fill="none" stroke="currentColor" stroke-width="2" stroke-linecap="round" stroke-linejoin="round" class="icon icon-tabler icons-tabler-outline icon-tabler-chevron-down-right"><path d="M15.614 7.057 C 15.377 7.131,15.212 7.261,15.109 7.453 L 15.020 7.620 15.009 11.310 L 14.998 15.000 11.406 15.000 C 7.561 15.000,7.604 14.998,7.322 15.199 C 7.100 15.357,7.020 15.568,7.020 16.000 C 7.020 16.331,7.033 16.403,7.120 16.558 C 7.230 16.755,7.414 16.898,7.635 16.959 C 7.833 17.014,16.167 17.014,16.365 16.959 C 16.586 16.898,16.770 16.755,16.880 16.558 L 16.980 16.380 16.980 12.000 L 16.980 7.620 16.891 7.453 C 16.842 7.362,16.746 7.247,16.678 7.199 C 16.414 7.010,15.957 6.950,15.614 7.057 " stroke="none" fill="black" fill-rule="evenodd"></path></svg>