<svg xmlns="http://www.w3.org/2000/svg" width="24" height="24" viewBox="0 0 24 24" fill="none" stroke="currentColor" stroke-width="2" stroke-linecap="round" stroke-linejoin="round" class="icon icon-tabler icons-tabler-outline icon-tabler-lock-square-rounded"><path d="M10.349 2.044 C 7.535 2.178,5.738 2.713,4.406 3.814 C 3.787 4.326,3.247 5.075,2.885 5.924 C 2.566 6.671,2.342 7.527,2.205 8.520 C 2.051 9.633,2.021 10.208,2.021 12.000 C 2.021 13.792,2.051 14.367,2.205 15.480 C 2.744 19.396,4.610 21.251,8.560 21.800 C 9.623 21.948,10.220 21.979,12.000 21.979 C 13.780 21.979,14.377 21.948,15.440 21.800 C 16.241 21.689,16.753 21.574,17.401 21.361 C 20.018 20.502,21.344 18.717,21.800 15.440 C 21.948 14.377,21.979 13.780,21.979 12.000 C 21.979 10.220,21.948 9.623,21.800 8.560 C 21.494 6.357,20.759 4.778,19.594 3.814 C 18.657 3.040,17.469 2.539,15.960 2.283 C 14.520 2.039,12.378 1.947,10.349 2.044 M13.500 4.041 C 16.040 4.168,17.512 4.591,18.435 5.458 C 19.509 6.468,19.999 8.517,19.999 12.000 C 19.999 15.490,19.511 17.527,18.430 18.548 C 17.356 19.562,15.410 20.000,11.992 20.000 C 8.581 19.999,6.644 19.561,5.570 18.548 C 4.489 17.527,4.001 15.490,4.001 12.000 C 4.001 10.005,4.176 8.385,4.505 7.320 C 5.052 5.555,6.056 4.719,8.129 4.302 C 9.412 4.045,11.521 3.942,13.500 4.041 M11.499 6.040 C 10.373 6.244,9.470 7.041,9.118 8.140 C 9.042 8.378,9.026 8.536,9.010 9.202 L 8.991 9.983 8.685 10.032 C 8.259 10.099,7.918 10.275,7.596 10.597 C 7.310 10.882,7.154 11.147,7.060 11.508 C 6.972 11.844,6.972 15.156,7.060 15.492 C 7.153 15.852,7.310 16.118,7.596 16.404 C 7.882 16.690,8.148 16.847,8.508 16.940 C 8.860 17.032,15.136 17.029,15.491 16.937 C 15.863 16.841,16.114 16.694,16.404 16.404 C 16.694 16.114,16.841 15.863,16.937 15.491 C 17.027 15.144,17.029 11.909,16.940 11.529 C 16.852 11.156,16.699 10.891,16.404 10.597 C 16.082 10.275,15.741 10.099,15.315 10.032 L 15.009 9.983 14.990 9.202 C 14.974 8.536,14.958 8.378,14.882 8.140 C 14.571 7.170,13.801 6.404,12.861 6.129 C 12.500 6.023,11.832 5.980,11.499 6.040 M12.310 8.061 C 12.452 8.103,12.571 8.178,12.697 8.303 C 12.948 8.554,13.000 8.751,13.000 9.447 L 13.000 10.000 12.000 10.000 L 11.000 10.000 11.000 9.447 C 11.000 8.750,11.052 8.554,11.304 8.303 C 11.583 8.024,11.916 7.944,12.310 8.061 M15.000 13.500 L 15.000 15.000 12.000 15.000 L 9.000 15.000 9.000 13.500 L 9.000 12.000 12.000 12.000 L 15.000 12.000 15.000 13.500 " stroke="none" fill="black" fill-rule="evenodd"></path></svg>