<svg xmlns="http://www.w3.org/2000/svg" width="24" height="24" viewBox="0 0 24 24" fill="none" stroke="currentColor" stroke-width="2" stroke-linecap="round" stroke-linejoin="round" class="icon icon-tabler icons-tabler-outline icon-tabler-photo-ai"><path d="M5.358 2.061 C 4.725 2.160,4.119 2.424,3.562 2.843 C 2.860 3.373,2.355 4.142,2.109 5.060 C 2.023 5.377,2.022 5.426,1.996 10.660 C 1.981 13.564,1.968 15.967,1.966 16.000 C 1.964 16.033,1.978 16.636,1.996 17.340 C 2.024 18.433,2.041 18.667,2.112 18.940 C 2.511 20.484,3.687 21.603,5.243 21.921 C 5.605 21.994,5.795 22.000,7.926 22.000 C 9.339 22.000,10.276 21.984,10.365 21.959 C 10.586 21.898,10.770 21.755,10.880 21.558 C 10.967 21.402,10.980 21.332,10.979 21.000 C 10.978 20.567,10.898 20.355,10.678 20.199 C 10.406 20.005,10.336 20.000,7.962 20.000 C 5.559 20.000,5.506 19.996,5.083 19.781 C 4.816 19.646,4.449 19.297,4.281 19.017 C 4.045 18.625,4.005 18.385,4.002 17.340 L 4.000 16.419 6.450 13.971 C 9.109 11.315,9.069 11.349,9.504 11.349 C 9.853 11.349,10.030 11.467,10.781 12.202 C 11.512 12.918,11.701 13.049,12.000 13.049 C 12.477 13.049,13.049 12.477,13.049 12.000 C 13.049 11.704,12.917 11.509,12.264 10.846 C 11.115 9.679,10.510 9.352,9.500 9.352 C 9.058 9.352,8.690 9.423,8.341 9.578 C 7.812 9.812,7.582 10.012,5.770 11.815 L 4.000 13.577 4.002 9.659 C 4.004 6.088,4.011 5.717,4.073 5.477 C 4.201 4.988,4.543 4.546,5.014 4.265 C 5.479 3.986,5.109 4.000,12.028 4.002 C 18.979 4.005,18.529 3.987,19.017 4.281 C 19.294 4.448,19.618 4.787,19.772 5.071 C 19.992 5.478,19.999 5.576,20.000 8.520 C 20.000 10.203,20.016 11.274,20.041 11.365 C 20.148 11.750,20.437 11.962,20.896 11.991 C 21.381 12.022,21.699 11.882,21.880 11.558 L 21.980 11.380 21.991 8.512 C 22.002 5.769,21.999 5.628,21.922 5.249 C 21.721 4.264,21.198 3.416,20.438 2.843 C 19.866 2.412,19.276 2.160,18.605 2.058 C 18.059 1.976,5.887 1.979,5.358 2.061 M14.614 7.055 C 14.220 7.184,14.039 7.437,14.009 7.900 C 13.978 8.381,14.119 8.699,14.442 8.880 C 14.597 8.967,14.669 8.980,15.000 8.980 C 15.312 8.980,15.408 8.964,15.540 8.894 C 15.866 8.718,16.000 8.459,16.000 8.000 C 16.000 7.357,15.713 7.048,15.083 7.016 C 14.893 7.006,14.718 7.021,14.614 7.055 M15.499 14.040 C 14.374 14.244,13.485 15.027,13.115 16.140 C 13.022 16.419,13.022 16.432,13.009 18.808 C 13.000 20.389,13.010 21.249,13.038 21.352 C 13.144 21.747,13.432 21.961,13.896 21.991 C 14.381 22.022,14.699 21.882,14.880 21.558 C 14.974 21.391,14.981 21.338,14.994 20.690 L 15.008 20.000 16.004 20.000 L 17.000 20.000 17.000 20.610 C 17.000 20.946,17.019 21.285,17.041 21.365 C 17.148 21.750,17.437 21.962,17.896 21.991 C 18.381 22.022,18.699 21.882,18.880 21.558 L 18.980 21.380 18.980 18.920 L 18.980 16.460 18.886 16.160 C 18.580 15.178,17.810 14.407,16.861 14.129 C 16.500 14.023,15.832 13.980,15.499 14.040 M20.614 14.057 C 20.377 14.131,20.212 14.261,20.109 14.453 L 20.020 14.620 20.009 17.912 C 20.002 20.060,20.012 21.257,20.039 21.356 C 20.144 21.747,20.434 21.961,20.896 21.991 C 21.381 22.022,21.699 21.882,21.880 21.558 L 21.980 21.380 21.980 18.000 L 21.980 14.620 21.891 14.453 C 21.842 14.362,21.746 14.247,21.678 14.199 C 21.414 14.010,20.957 13.950,20.614 14.057 M16.334 16.064 C 16.446 16.102,16.593 16.200,16.700 16.306 C 16.948 16.554,17.000 16.753,17.000 17.447 L 17.000 18.000 16.000 18.000 L 15.000 18.000 15.000 17.447 C 15.000 16.753,15.052 16.554,15.301 16.306 C 15.587 16.019,15.952 15.934,16.334 16.064 " stroke="none" fill="black" fill-rule="evenodd"></path></svg>