<svg xmlns="http://www.w3.org/2000/svg" width="24" height="24" viewBox="0 0 24 24" fill="none" stroke="currentColor" stroke-width="2" stroke-linecap="round" stroke-linejoin="round" class="icon icon-tabler icons-tabler-outline icon-tabler-clover-2"><path d="M8.480 3.058 C 7.145 3.344,6.160 4.417,6.019 5.739 L 5.991 5.993 5.746 6.020 C 4.838 6.118,4.014 6.625,3.502 7.400 C 2.817 8.438,2.845 9.813,3.572 10.830 L 3.694 11.000 3.572 11.170 C 3.103 11.825,2.895 12.763,3.053 13.505 C 3.339 14.845,4.417 15.840,5.739 15.981 L 5.992 16.008 6.019 16.261 C 6.094 16.961,6.400 17.592,6.907 18.089 C 7.316 18.492,7.684 18.711,8.242 18.886 C 8.672 19.021,9.448 19.021,9.879 18.886 C 10.221 18.779,10.584 18.604,10.830 18.428 L 11.000 18.306 11.170 18.428 C 11.416 18.604,11.779 18.779,12.121 18.886 C 12.552 19.021,13.328 19.021,13.758 18.886 C 14.315 18.711,14.683 18.492,15.094 18.089 C 15.337 17.851,15.720 17.309,15.720 17.203 C 15.720 17.169,16.787 18.206,18.090 19.507 C 19.739 21.152,20.514 21.899,20.637 21.960 C 20.990 22.137,21.354 22.048,21.701 21.701 C 22.048 21.354,22.137 20.990,21.960 20.637 C 21.899 20.514,21.152 19.739,19.507 18.090 C 18.206 16.787,17.169 15.720,17.203 15.720 C 17.309 15.720,17.851 15.337,18.089 15.094 C 18.492 14.683,18.711 14.315,18.886 13.758 C 19.021 13.328,19.021 12.552,18.886 12.121 C 18.779 11.779,18.604 11.416,18.428 11.170 L 18.306 11.000 18.428 10.830 C 18.604 10.584,18.779 10.221,18.886 9.879 C 18.964 9.629,18.980 9.494,18.980 9.060 C 18.980 8.478,18.909 8.172,18.660 7.682 C 18.195 6.768,17.274 6.127,16.274 6.022 L 16.009 5.995 15.981 5.740 C 15.901 4.990,15.587 4.380,14.996 3.824 C 14.640 3.488,14.150 3.216,13.680 3.091 C 13.322 2.996,12.553 2.997,12.200 3.092 C 11.881 3.179,11.512 3.348,11.220 3.542 L 11.000 3.688 10.790 3.549 C 10.252 3.194,9.787 3.042,9.160 3.018 C 8.892 3.008,8.646 3.022,8.480 3.058 M9.485 5.096 C 9.559 5.131,9.791 5.303,10.000 5.479 C 10.433 5.843,10.784 6.040,11.000 6.040 C 11.216 6.040,11.567 5.843,12.000 5.479 C 12.485 5.072,12.587 5.022,12.940 5.022 C 13.369 5.022,13.682 5.217,13.887 5.611 C 14.022 5.871,14.014 6.314,13.870 6.580 C 13.797 6.714,13.305 7.243,12.381 8.180 L 11.000 9.580 9.603 8.160 C 8.734 7.276,8.174 6.676,8.120 6.570 C 8.014 6.360,7.977 6.033,8.035 5.818 C 8.130 5.467,8.434 5.145,8.766 5.043 C 8.944 4.989,9.317 5.016,9.485 5.096 M6.565 8.118 C 6.657 8.166,6.815 8.271,6.916 8.353 C 7.163 8.550,9.560 10.951,9.560 11.000 C 9.560 11.057,7.140 13.469,6.861 13.690 C 6.559 13.930,6.306 14.017,5.997 13.989 C 5.354 13.931,4.903 13.345,5.031 12.735 C 5.079 12.503,5.150 12.392,5.576 11.875 C 5.885 11.500,6.039 11.208,6.039 11.000 C 6.039 10.792,5.885 10.500,5.576 10.125 C 5.141 9.597,5.087 9.514,5.035 9.286 C 4.915 8.765,5.210 8.256,5.748 8.055 C 5.958 7.977,6.353 8.007,6.565 8.118 M16.390 8.115 C 16.781 8.315,16.978 8.631,16.978 9.060 C 16.978 9.413,16.928 9.515,16.521 10.000 C 16.159 10.430,15.960 10.784,15.960 10.996 C 15.961 11.208,16.114 11.498,16.424 11.875 C 16.850 12.392,16.921 12.503,16.969 12.735 C 17.097 13.345,16.646 13.931,16.003 13.989 C 15.668 14.019,15.443 13.930,15.040 13.605 C 14.696 13.328,12.440 11.066,12.440 10.999 C 12.440 10.942,14.713 8.650,14.953 8.464 C 15.361 8.149,15.461 8.084,15.600 8.044 C 15.813 7.982,16.198 8.017,16.390 8.115 M12.409 13.850 C 13.261 14.722,13.825 15.329,13.884 15.440 C 14.015 15.688,14.016 16.142,13.886 16.392 C 13.694 16.761,13.322 17.000,12.940 17.000 C 12.652 17.000,12.440 16.894,12.020 16.541 C 11.492 16.096,11.290 15.987,11.000 15.987 C 10.710 15.987,10.508 16.096,9.980 16.541 C 9.560 16.894,9.348 17.000,9.060 17.000 C 8.678 17.000,8.309 16.763,8.113 16.392 C 7.982 16.145,7.983 15.691,8.114 15.442 C 8.200 15.277,10.928 12.440,11.000 12.440 C 11.016 12.440,11.650 13.075,12.409 13.850 " stroke="none" fill="black" fill-rule="evenodd"></path></svg>