<svg xmlns="http://www.w3.org/2000/svg" width="24" height="24" viewBox="0 0 24 24" fill="none" stroke="currentColor" stroke-width="2" stroke-linecap="round" stroke-linejoin="round" class="icon icon-tabler icons-tabler-outline icon-tabler-bread"><path d="M5.450 3.042 C 4.100 3.220,2.860 4.161,2.335 5.406 C 2.087 5.995,2.024 6.310,2.022 6.980 C 2.020 7.443,2.037 7.648,2.096 7.880 C 2.255 8.504,2.487 9.000,2.810 9.406 L 2.980 9.620 3.000 14.100 L 3.020 18.580 3.114 18.860 C 3.446 19.851,4.184 20.582,5.160 20.886 L 5.460 20.980 12.000 20.980 L 18.540 20.980 18.840 20.886 C 19.816 20.582,20.554 19.851,20.886 18.860 L 20.980 18.580 21.000 14.100 L 21.020 9.620 21.229 9.350 C 21.844 8.553,22.130 7.332,21.938 6.322 C 21.859 5.905,21.672 5.372,21.489 5.044 C 20.980 4.130,20.056 3.417,19.005 3.126 L 18.620 3.020 12.160 3.015 C 8.607 3.012,5.587 3.024,5.450 3.042 M18.383 5.043 C 18.962 5.149,19.494 5.555,19.762 6.095 C 20.159 6.896,20.031 7.738,19.411 8.403 C 18.977 8.869,19.023 8.284,19.000 13.600 C 18.985 17.208,18.969 18.285,18.930 18.373 C 18.842 18.572,18.672 18.761,18.484 18.872 L 18.300 18.980 12.000 18.980 L 5.700 18.980 5.516 18.872 C 5.328 18.761,5.158 18.572,5.070 18.373 C 5.031 18.285,5.015 17.208,5.000 13.600 L 4.980 8.940 4.893 8.780 C 4.846 8.692,4.723 8.539,4.620 8.440 C 4.405 8.232,4.204 7.909,4.096 7.598 C 3.984 7.273,3.996 6.661,4.120 6.340 C 4.390 5.640,4.921 5.181,5.620 5.041 C 5.876 4.990,18.101 4.992,18.383 5.043 " stroke="none" fill="black" fill-rule="evenodd"></path></svg>