<svg xmlns="http://www.w3.org/2000/svg" width="24" height="24" viewBox="0 0 24 24" fill="none" stroke="currentColor" stroke-width="2" stroke-linecap="round" stroke-linejoin="round" class="icon icon-tabler icons-tabler-outline icon-tabler-exposure-0"><path d="M11.400 4.044 C 9.761 4.229,8.261 5.290,7.526 6.785 C 7.333 7.177,7.187 7.599,7.093 8.040 C 7.025 8.355,7.020 8.651,7.020 12.000 C 7.020 15.349,7.025 15.645,7.093 15.960 C 7.526 17.984,9.016 19.474,11.040 19.907 C 11.511 20.008,12.489 20.008,12.960 19.907 C 14.488 19.580,15.748 18.630,16.433 17.288 C 16.662 16.839,16.805 16.439,16.907 15.960 C 16.975 15.645,16.980 15.349,16.980 12.000 C 16.980 8.651,16.975 8.355,16.907 8.040 C 16.576 6.491,15.600 5.219,14.213 4.525 C 13.352 4.095,12.397 3.932,11.400 4.044 M12.861 6.129 C 13.815 6.408,14.611 7.213,14.888 8.178 L 14.980 8.500 14.980 12.000 L 14.980 15.500 14.888 15.822 C 14.610 16.792,13.830 17.578,12.840 17.886 C 12.406 18.021,11.594 18.021,11.160 17.886 C 10.170 17.578,9.390 16.792,9.112 15.822 L 9.020 15.500 9.020 12.000 L 9.020 8.500 9.112 8.178 C 9.426 7.083,10.359 6.247,11.499 6.040 C 11.832 5.980,12.500 6.023,12.861 6.129 " stroke="none" fill="black" fill-rule="evenodd"></path></svg>