<svg xmlns="http://www.w3.org/2000/svg" width="24" height="24" viewBox="0 0 24 24" fill="none" stroke="currentColor" stroke-width="2" stroke-linecap="round" stroke-linejoin="round" class="icon icon-tabler icons-tabler-outline icon-tabler-time-duration-30"><path d="M11.614 2.057 C 11.223 2.180,11.039 2.436,11.009 2.900 C 10.978 3.379,11.119 3.701,11.437 3.876 C 11.589 3.960,11.690 3.977,12.216 4.006 C 13.571 4.081,14.556 4.331,15.614 4.870 C 17.180 5.667,18.403 6.911,19.184 8.500 C 20.263 10.697,20.263 13.291,19.183 15.499 C 18.530 16.835,17.573 17.914,16.311 18.736 C 15.133 19.504,13.491 20.000,12.128 20.000 C 11.595 20.000,11.275 20.142,11.109 20.453 C 11.035 20.592,11.020 20.684,11.020 21.000 C 11.020 21.331,11.033 21.403,11.120 21.558 C 11.331 21.934,11.590 22.019,12.420 21.986 C 14.524 21.901,16.480 21.177,18.200 19.847 C 18.637 19.509,19.509 18.637,19.847 18.200 C 20.959 16.762,21.624 15.214,21.907 13.400 C 21.961 13.054,21.978 12.707,21.978 12.000 C 21.978 11.293,21.961 10.946,21.907 10.600 C 21.557 8.362,20.619 6.494,19.062 4.939 C 17.858 3.736,16.486 2.913,14.866 2.423 C 13.775 2.092,12.103 1.904,11.614 2.057 M7.080 3.266 C 6.695 3.398,6.509 3.704,6.509 4.207 C 6.509 4.628,6.641 4.910,6.913 5.070 C 7.083 5.170,7.136 5.180,7.500 5.180 C 7.864 5.180,7.917 5.170,8.087 5.070 C 8.361 4.909,8.490 4.629,8.488 4.203 C 8.487 3.844,8.403 3.607,8.215 3.434 C 7.976 3.214,7.455 3.137,7.080 3.266 M3.745 6.579 C 3.371 6.712,3.173 7.090,3.209 7.603 C 3.247 8.127,3.476 8.399,3.954 8.488 C 4.454 8.581,4.914 8.403,5.084 8.051 C 5.202 7.807,5.229 7.400,5.145 7.112 C 5.070 6.852,4.855 6.630,4.613 6.563 C 4.400 6.504,3.931 6.513,3.745 6.579 M7.614 8.057 C 7.377 8.131,7.212 8.261,7.109 8.453 C 7.035 8.592,7.020 8.684,7.020 9.000 C 7.020 9.331,7.033 9.403,7.120 9.558 C 7.230 9.755,7.414 9.898,7.635 9.959 C 7.715 9.981,8.194 10.000,8.700 10.000 C 9.542 10.000,9.631 10.007,9.748 10.078 C 9.991 10.226,10.065 10.513,9.922 10.748 C 9.798 10.951,9.659 11.000,9.208 11.000 C 8.593 11.000,8.283 11.128,8.109 11.453 C 8.035 11.592,8.020 11.684,8.020 12.000 C 8.020 12.331,8.033 12.403,8.120 12.558 C 8.309 12.896,8.562 12.999,9.200 13.000 C 9.546 13.000,9.643 13.014,9.748 13.078 C 9.991 13.226,10.065 13.513,9.922 13.748 C 9.778 13.984,9.701 14.000,8.708 14.000 C 7.756 14.000,7.562 14.028,7.322 14.199 C 7.100 14.357,7.020 14.568,7.020 15.000 C 7.020 15.331,7.033 15.403,7.120 15.558 C 7.233 15.760,7.417 15.900,7.652 15.963 C 7.756 15.991,8.206 16.001,8.916 15.992 C 10.002 15.977,10.025 15.975,10.320 15.868 C 11.041 15.604,11.608 15.037,11.868 14.320 C 11.965 14.052,11.976 13.965,11.976 13.500 C 11.976 13.035,11.965 12.949,11.868 12.684 C 11.809 12.521,11.705 12.301,11.636 12.194 L 11.512 12.000 11.636 11.806 C 11.705 11.699,11.809 11.479,11.868 11.316 C 11.965 11.051,11.976 10.965,11.976 10.500 C 11.976 10.035,11.965 9.948,11.868 9.680 C 11.732 9.306,11.458 8.898,11.165 8.636 C 10.887 8.387,10.390 8.137,10.020 8.060 C 9.647 7.982,7.861 7.980,7.614 8.057 M14.960 8.062 C 14.605 8.138,14.107 8.393,13.832 8.639 C 13.532 8.907,13.239 9.352,13.118 9.722 L 13.020 10.020 13.020 12.020 L 13.020 14.020 13.131 14.320 C 13.399 15.044,13.964 15.608,14.680 15.868 C 14.948 15.965,15.035 15.976,15.500 15.976 C 15.965 15.976,16.052 15.965,16.320 15.868 C 17.036 15.608,17.601 15.044,17.869 14.320 L 17.980 14.020 17.980 12.000 L 17.980 9.980 17.869 9.680 C 17.430 8.486,16.192 7.798,14.960 8.062 M15.724 10.062 C 15.790 10.096,15.879 10.182,15.922 10.252 C 15.996 10.373,16.000 10.464,16.000 12.000 C 16.000 13.536,15.996 13.627,15.922 13.748 C 15.722 14.076,15.278 14.076,15.078 13.748 C 15.004 13.627,15.000 13.536,15.000 12.008 C 15.000 10.228,14.999 10.232,15.252 10.078 C 15.406 9.984,15.563 9.979,15.724 10.062 M2.614 11.057 C 2.221 11.180,2.039 11.435,2.009 11.906 C 1.962 12.621,2.306 13.000,3.000 13.000 C 3.698 13.000,4.043 12.616,3.989 11.900 C 3.963 11.563,3.859 11.327,3.678 11.199 C 3.414 11.010,2.957 10.950,2.614 11.057 M3.745 15.579 C 3.371 15.712,3.173 16.090,3.209 16.603 C 3.247 17.127,3.476 17.399,3.954 17.488 C 4.454 17.581,4.914 17.403,5.084 17.051 C 5.202 16.807,5.229 16.400,5.145 16.112 C 5.070 15.852,4.855 15.630,4.613 15.563 C 4.400 15.504,3.931 15.513,3.745 15.579 M7.080 18.866 C 6.695 18.998,6.509 19.304,6.509 19.807 C 6.509 20.228,6.641 20.510,6.913 20.670 C 7.083 20.770,7.136 20.780,7.500 20.780 C 7.864 20.780,7.917 20.770,8.087 20.670 C 8.361 20.509,8.490 20.229,8.488 19.803 C 8.487 19.444,8.403 19.207,8.215 19.034 C 7.976 18.814,7.455 18.737,7.080 18.866 " stroke="none" fill="black" fill-rule="evenodd"></path></svg>