<svg xmlns="http://www.w3.org/2000/svg" width="24" height="24" viewBox="0 0 24 24" fill="none" stroke="currentColor" stroke-width="2" stroke-linecap="round" stroke-linejoin="round" class="icon icon-tabler icons-tabler-outline icon-tabler-elevator-off"><path d="M2.626 2.045 C 2.257 2.239,1.951 2.673,1.951 3.000 C 1.951 3.321,2.070 3.479,3.065 4.482 L 4.000 5.424 4.000 12.343 C 4.000 18.348,4.008 19.293,4.060 19.492 C 4.245 20.205,4.875 20.814,5.577 20.959 C 5.715 20.988,7.809 20.998,12.120 20.991 L 18.460 20.980 18.686 20.889 C 18.811 20.838,18.973 20.755,19.046 20.704 L 19.180 20.612 19.820 21.240 C 20.187 21.600,20.536 21.907,20.637 21.959 C 20.988 22.137,21.354 22.049,21.701 21.701 C 22.048 21.354,22.137 20.989,21.959 20.637 C 21.888 20.496,20.606 19.137,19.748 18.293 C 19.598 18.145,5.866 4.413,5.760 4.304 C 5.007 3.534,3.504 2.112,3.372 2.045 C 3.152 1.934,2.836 1.934,2.626 2.045 M7.614 3.057 C 7.377 3.131,7.212 3.261,7.109 3.453 C 7.035 3.592,7.020 3.684,7.020 4.000 C 7.020 4.331,7.033 4.403,7.120 4.558 C 7.230 4.755,7.414 4.898,7.635 4.959 C 7.729 4.985,9.590 5.000,12.890 5.000 L 18.000 5.000 18.000 10.110 C 18.000 13.410,18.015 15.271,18.041 15.365 C 18.148 15.750,18.437 15.962,18.896 15.991 C 19.381 16.022,19.699 15.882,19.880 15.558 L 19.980 15.380 19.991 10.089 C 20.002 4.334,20.009 4.532,19.782 4.083 C 19.646 3.816,19.297 3.449,19.017 3.281 C 18.533 2.989,18.864 3.005,13.020 3.005 C 8.831 3.005,7.747 3.016,7.614 3.057 M11.626 7.045 C 11.420 7.154,11.146 7.433,11.038 7.644 C 10.924 7.868,10.924 8.132,11.040 8.363 C 11.162 8.607,13.393 10.838,13.637 10.960 C 13.990 11.137,14.354 11.048,14.701 10.701 C 15.048 10.354,15.137 9.990,14.960 9.637 C 14.842 9.400,12.608 7.162,12.372 7.044 C 12.152 6.934,11.835 6.935,11.626 7.045 M12.291 14.288 L 12.002 14.577 11.271 13.854 C 10.856 13.444,10.467 13.094,10.372 13.045 C 10.021 12.868,9.640 12.958,9.299 13.299 C 8.952 13.646,8.863 14.010,9.040 14.363 C 9.162 14.607,11.393 16.838,11.637 16.960 C 11.869 17.077,12.132 17.076,12.363 16.959 C 12.469 16.905,12.832 16.580,13.271 16.146 L 14.002 15.422 15.791 17.211 L 17.580 19.000 11.790 19.000 L 6.000 19.000 6.000 13.210 L 6.000 7.420 9.290 10.710 L 12.580 14.000 12.291 14.288 " stroke="none" fill="black" fill-rule="evenodd"></path></svg>