<svg xmlns="http://www.w3.org/2000/svg" width="24" height="24" viewBox="0 0 24 24" fill="none" stroke="currentColor" stroke-width="2" stroke-linecap="round" stroke-linejoin="round" class="icon icon-tabler icons-tabler-outline icon-tabler-currency-pound"><path d="M12.060 4.119 C 10.048 4.523,8.580 5.967,8.093 8.020 C 8.038 8.253,8.024 8.608,8.011 10.146 L 7.994 11.992 7.267 12.009 C 6.476 12.027,6.353 12.055,6.152 12.267 C 5.984 12.443,5.913 12.658,5.912 12.997 C 5.910 13.348,5.982 13.556,6.171 13.751 C 6.366 13.953,6.589 14.000,7.350 14.000 L 8.005 14.000 7.992 15.330 C 7.977 16.853,7.971 16.882,7.605 17.366 C 7.389 17.651,7.243 17.761,6.784 17.986 C 6.424 18.162,6.094 18.437,6.014 18.628 C 5.845 19.033,6.130 19.701,6.568 19.924 C 6.887 20.087,7.234 20.024,7.920 19.681 C 8.338 19.472,8.435 19.433,8.760 19.346 C 9.628 19.113,10.768 19.142,11.542 19.416 C 13.113 19.971,13.347 20.019,14.500 20.019 C 15.454 20.019,15.905 19.952,16.677 19.694 C 17.814 19.314,18.154 18.975,18.003 18.374 C 17.910 18.005,17.678 17.666,17.432 17.537 C 17.232 17.432,16.911 17.465,16.467 17.638 C 15.640 17.960,15.082 18.061,14.311 18.028 C 13.741 18.004,13.364 17.936,12.907 17.773 C 11.715 17.350,11.345 17.262,10.498 17.201 C 10.196 17.180,9.940 17.154,9.930 17.143 C 9.920 17.133,9.931 17.009,9.956 16.869 C 9.982 16.717,10.000 16.086,10.000 15.307 L 10.000 14.000 12.053 14.000 C 14.332 14.000,14.394 13.994,14.629 13.751 C 14.818 13.556,14.886 13.355,14.886 12.997 C 14.886 12.491,14.703 12.196,14.309 12.064 C 14.143 12.009,13.838 12.000,12.059 12.000 L 10.000 12.000 10.001 10.390 C 10.003 8.654,10.026 8.385,10.211 7.926 C 10.376 7.518,10.562 7.243,10.906 6.896 C 11.181 6.618,11.295 6.536,11.646 6.364 C 12.130 6.125,12.492 6.040,13.013 6.041 C 13.518 6.042,13.867 6.125,14.338 6.357 C 14.824 6.596,15.175 6.900,15.479 7.346 C 15.751 7.746,15.864 7.869,16.048 7.964 C 16.441 8.166,17.121 7.906,17.386 7.454 C 17.586 7.113,17.500 6.754,17.072 6.130 C 16.366 5.102,15.133 4.322,13.865 4.102 C 13.381 4.018,12.525 4.026,12.060 4.119 " stroke="none" fill="black" fill-rule="evenodd"></path></svg>