<svg xmlns="http://www.w3.org/2000/svg" width="24" height="24" viewBox="0 0 24 24" fill="none" stroke="currentColor" stroke-width="2" stroke-linecap="round" stroke-linejoin="round" class="icon icon-tabler icons-tabler-outline icon-tabler-arrow-down-bar"><path d="M8.614 2.057 C 8.377 2.131,8.212 2.261,8.109 2.453 C 8.035 2.592,8.020 2.684,8.020 3.000 C 8.020 3.331,8.033 3.403,8.120 3.558 C 8.230 3.755,8.414 3.898,8.635 3.959 C 8.716 3.982,9.270 4.000,9.890 4.000 L 11.000 4.000 11.000 11.288 L 11.000 18.575 10.270 17.853 C 9.856 17.444,9.467 17.094,9.372 17.045 C 9.021 16.868,8.640 16.958,8.299 17.299 C 7.952 17.646,7.863 18.011,8.040 18.363 C 8.099 18.480,8.635 19.051,9.635 20.062 C 10.463 20.899,11.174 21.634,11.216 21.697 C 11.318 21.850,11.762 22.049,12.000 22.049 C 12.238 22.049,12.682 21.850,12.784 21.697 C 12.826 21.634,13.537 20.899,14.365 20.062 C 15.365 19.051,15.901 18.480,15.960 18.363 C 16.137 18.011,16.048 17.646,15.701 17.299 C 15.360 16.958,14.979 16.868,14.628 17.045 C 14.533 17.094,14.144 17.444,13.730 17.853 L 13.000 18.575 13.000 11.288 L 13.000 4.000 14.110 4.000 C 14.730 4.000,15.284 3.982,15.365 3.959 C 15.586 3.898,15.770 3.755,15.880 3.558 C 15.967 3.402,15.980 3.332,15.979 3.000 C 15.978 2.567,15.898 2.355,15.678 2.199 C 15.398 1.999,15.411 2.000,11.984 2.003 C 9.472 2.005,8.744 2.017,8.614 2.057 " stroke="none" fill="black" fill-rule="evenodd"></path></svg>