<svg xmlns="http://www.w3.org/2000/svg" width="24" height="24" viewBox="0 0 24 24" fill="none" stroke="currentColor" stroke-width="2" stroke-linecap="round" stroke-linejoin="round" class="icon icon-tabler icons-tabler-outline icon-tabler-file-vector"><path d="M6.499 2.043 C 5.383 2.230,4.461 3.048,4.114 4.160 L 4.020 4.460 4.020 12.000 L 4.020 19.540 4.114 19.840 C 4.422 20.827,5.173 21.578,6.160 21.886 L 6.460 21.980 12.000 21.980 L 17.540 21.980 17.840 21.886 C 18.827 21.578,19.578 20.827,19.886 19.840 L 19.980 19.540 19.980 13.580 L 19.980 7.620 19.890 7.452 C 19.841 7.360,19.724 7.231,19.630 7.165 C 19.498 7.073,15.263 2.838,14.719 2.254 C 14.473 1.991,14.626 2.000,10.463 2.005 C 8.393 2.007,6.609 2.025,6.499 2.043 M13.000 5.632 C 13.000 7.399,13.010 7.507,13.225 7.930 C 13.361 8.199,13.801 8.639,14.070 8.775 C 14.493 8.990,14.601 9.000,16.368 9.000 L 18.000 9.000 18.000 14.054 C 18.000 18.220,17.990 19.139,17.945 19.290 C 17.872 19.533,17.707 19.740,17.484 19.872 L 17.300 19.980 12.000 19.980 L 6.700 19.980 6.516 19.872 C 6.415 19.813,6.284 19.700,6.225 19.623 C 5.986 19.309,6.000 19.795,6.000 12.022 C 6.000 4.005,5.975 4.631,6.304 4.303 C 6.613 3.994,6.464 4.006,9.930 4.003 L 13.000 4.000 13.000 5.632 M15.800 6.220 L 16.579 7.000 15.790 7.000 L 15.000 7.000 15.000 6.220 C 15.000 5.791,15.005 5.440,15.010 5.440 C 15.016 5.440,15.371 5.791,15.800 6.220 M13.960 10.062 C 13.604 10.139,13.107 10.393,12.831 10.640 C 12.705 10.752,12.503 10.994,12.381 11.177 L 12.160 11.508 11.750 11.532 C 11.090 11.569,10.504 11.779,9.940 12.180 C 9.412 12.556,8.938 13.183,8.717 13.801 L 8.588 14.162 8.320 14.303 C 7.775 14.589,7.308 15.140,7.118 15.722 C 7.034 15.976,7.020 16.094,7.022 16.520 C 7.024 16.960,7.038 17.056,7.133 17.320 C 7.394 18.039,7.963 18.608,8.680 18.868 C 8.948 18.965,9.035 18.976,9.500 18.976 C 9.965 18.976,10.052 18.965,10.320 18.868 C 11.037 18.608,11.605 18.040,11.867 17.320 C 11.965 17.051,11.976 16.966,11.976 16.500 C 11.976 16.035,11.965 15.948,11.868 15.680 C 11.681 15.166,11.301 14.684,10.862 14.406 L 10.685 14.293 10.756 14.177 C 10.865 14.000,11.156 13.748,11.380 13.639 C 11.524 13.569,11.665 13.537,11.882 13.527 L 12.184 13.512 12.331 13.751 C 12.656 14.277,13.128 14.668,13.680 14.868 C 13.948 14.965,14.035 14.976,14.500 14.976 C 14.965 14.976,15.052 14.965,15.320 14.868 C 16.037 14.608,16.605 14.040,16.867 13.320 C 16.965 13.051,16.976 12.966,16.976 12.500 C 16.976 12.035,16.965 11.948,16.868 11.680 C 16.437 10.490,15.192 9.798,13.960 10.062 M14.724 12.062 C 14.872 12.139,15.000 12.341,15.000 12.500 C 15.000 12.748,14.748 13.000,14.500 13.000 C 14.256 13.000,14.000 12.748,14.000 12.508 C 14.000 12.257,14.248 12.000,14.492 12.000 C 14.554 12.000,14.658 12.028,14.724 12.062 M9.724 16.062 C 9.872 16.139,10.000 16.341,10.000 16.500 C 10.000 16.748,9.748 17.000,9.500 17.000 C 9.256 17.000,9.000 16.748,9.000 16.508 C 9.000 16.257,9.248 16.000,9.492 16.000 C 9.554 16.000,9.658 16.028,9.724 16.062 " stroke="none" fill="black" fill-rule="evenodd"></path></svg>