<svg xmlns="http://www.w3.org/2000/svg" width="24" height="24" viewBox="0 0 24 24" fill="none" stroke="currentColor" stroke-width="2" stroke-linecap="round" stroke-linejoin="round" class="icon icon-tabler icons-tabler-outline icon-tabler-caret-right"><path d="M9.660 5.027 C 9.436 5.147,9.239 5.327,9.129 5.514 L 9.020 5.700 8.994 11.820 C 8.980 15.186,8.966 17.999,8.964 18.071 C 8.959 18.223,9.152 18.668,9.265 18.768 C 9.407 18.894,9.813 19.049,10.001 19.049 C 10.239 19.049,10.682 18.850,10.784 18.696 C 10.826 18.633,12.213 17.223,13.866 15.561 C 15.971 13.445,16.898 12.487,16.960 12.363 C 17.076 12.132,17.076 11.868,16.961 11.637 C 16.840 11.394,10.614 5.164,10.372 5.044 C 10.168 4.942,9.833 4.935,9.660 5.027 M12.790 13.790 L 11.000 15.580 11.000 12.000 L 11.000 8.420 12.790 10.210 L 14.580 12.000 12.790 13.790 " stroke="none" fill="black" fill-rule="evenodd"></path></svg>