<svg xmlns="http://www.w3.org/2000/svg" width="24" height="24" viewBox="0 0 24 24" fill="none" stroke="currentColor" stroke-width="2" stroke-linecap="round" stroke-linejoin="round" class="icon icon-tabler icons-tabler-outline icon-tabler-location-pause"><path d="M20.896 2.000 C 20.673 2.046,2.794 8.499,2.529 8.630 C 2.261 8.762,1.946 9.094,1.808 9.390 C 1.715 9.589,1.701 9.672,1.700 10.001 C 1.700 10.350,1.711 10.404,1.829 10.644 C 2.089 11.173,2.005 11.122,5.825 13.033 L 9.260 14.752 10.748 17.731 C 12.118 20.474,12.250 20.722,12.422 20.874 C 12.708 21.125,12.985 21.144,13.427 20.942 C 13.948 20.704,14.152 20.336,14.016 19.880 C 13.932 19.597,10.880 13.494,10.738 13.325 C 10.654 13.225,9.919 12.841,7.505 11.633 C 4.745 10.252,4.392 10.065,4.480 10.032 C 5.254 9.740,19.297 4.683,19.306 4.693 C 19.314 4.700,18.669 6.505,17.874 8.703 C 17.079 10.901,16.405 12.799,16.375 12.920 C 16.248 13.438,16.517 13.849,17.095 14.021 C 17.548 14.155,17.906 14.057,18.130 13.738 C 18.286 13.516,21.966 3.336,21.990 3.060 C 22.021 2.703,21.770 2.209,21.484 2.063 C 21.337 1.988,21.088 1.961,20.896 2.000 M16.614 16.057 C 16.377 16.131,16.212 16.261,16.109 16.453 L 16.020 16.620 16.009 19.412 C 16.002 21.226,16.012 22.257,16.039 22.356 C 16.144 22.747,16.433 22.961,16.896 22.991 C 17.381 23.022,17.699 22.882,17.880 22.558 L 17.980 22.380 17.980 19.500 L 17.980 16.620 17.891 16.453 C 17.842 16.362,17.746 16.247,17.678 16.199 C 17.414 16.010,16.957 15.950,16.614 16.057 M20.614 16.057 C 20.377 16.131,20.212 16.261,20.109 16.453 L 20.020 16.620 20.009 19.412 C 20.002 21.226,20.012 22.257,20.039 22.356 C 20.144 22.747,20.433 22.961,20.896 22.991 C 21.381 23.022,21.699 22.882,21.880 22.558 L 21.980 22.380 21.980 19.500 L 21.980 16.620 21.891 16.453 C 21.842 16.362,21.746 16.247,21.678 16.199 C 21.414 16.010,20.957 15.950,20.614 16.057 " stroke="none" fill="black" fill-rule="evenodd"></path></svg>