<svg xmlns="http://www.w3.org/2000/svg" width="24" height="24" viewBox="0 0 24 24" fill="none" stroke="currentColor" stroke-width="2" stroke-linecap="round" stroke-linejoin="round" class="icon icon-tabler icons-tabler-outline icon-tabler-color-picker"><path d="M16.103 3.045 C 15.909 3.066,15.735 3.119,15.523 3.223 C 15.239 3.362,15.120 3.471,13.612 4.972 L 12.004 6.573 11.759 6.346 C 11.445 6.055,11.259 5.960,11.000 5.960 C 10.749 5.960,10.534 6.064,10.299 6.299 C 9.957 6.641,9.863 7.013,10.035 7.349 C 10.081 7.440,10.221 7.624,10.346 7.760 L 10.574 8.006 6.871 11.713 C 4.834 13.752,3.135 15.483,3.094 15.560 C 3.024 15.692,3.020 15.840,3.020 18.040 L 3.020 20.380 3.120 20.558 C 3.232 20.758,3.417 20.900,3.645 20.961 C 3.744 20.988,4.595 20.999,6.049 20.991 C 8.149 20.981,8.309 20.975,8.440 20.906 C 8.517 20.865,10.248 19.166,12.287 17.129 L 15.994 13.426 16.240 13.654 C 16.549 13.939,16.760 14.049,17.000 14.049 C 17.477 14.049,18.049 13.477,18.049 13.000 C 18.049 12.760,17.939 12.549,17.654 12.241 L 17.427 11.996 19.031 10.388 C 20.528 8.886,20.643 8.761,20.774 8.488 C 21.057 7.896,21.058 7.305,20.775 6.720 C 20.639 6.438,20.537 6.327,19.105 4.895 C 17.701 3.492,17.557 3.359,17.289 3.228 C 17.028 3.099,16.886 3.063,16.500 3.026 C 16.434 3.020,16.255 3.028,16.103 3.045 M17.700 6.320 L 18.980 7.600 17.490 9.090 L 16.000 10.580 14.710 9.290 L 13.420 8.000 14.900 6.520 C 15.714 5.706,16.389 5.040,16.400 5.040 C 16.411 5.040,16.996 5.616,17.700 6.320 M13.300 10.720 L 14.580 12.000 11.080 15.500 L 7.580 19.000 6.290 19.000 L 5.000 19.000 5.000 17.710 L 5.000 16.420 8.490 12.930 C 10.409 11.011,11.989 9.440,12.000 9.440 C 12.011 9.440,12.596 10.016,13.300 10.720 " stroke="none" fill="black" fill-rule="evenodd"></path></svg>