<svg xmlns="http://www.w3.org/2000/svg" width="24" height="24" viewBox="0 0 24 24" fill="none" stroke="currentColor" stroke-width="2" stroke-linecap="round" stroke-linejoin="round" class="icon icon-tabler icons-tabler-outline icon-tabler-discount"><path d="M11.080 2.045 C 9.507 2.184,7.883 2.751,6.540 3.630 C 5.905 4.045,5.499 4.378,4.919 4.958 C 2.953 6.926,1.919 9.544,2.013 12.320 C 2.084 14.439,2.752 16.328,4.033 18.040 C 4.430 18.570,5.305 19.464,5.800 19.847 C 7.242 20.961,8.787 21.624,10.600 21.907 C 11.247 22.008,12.753 22.008,13.400 21.907 C 15.638 21.557,17.504 20.620,19.062 19.062 C 20.620 17.504,21.557 15.638,21.907 13.400 C 22.008 12.753,22.008 11.247,21.907 10.600 C 21.624 8.786,20.959 7.238,19.847 5.800 C 19.510 5.365,18.639 4.494,18.200 4.154 C 16.133 2.555,13.646 1.818,11.080 2.045 M12.734 4.041 C 14.574 4.216,16.228 4.976,17.554 6.256 C 20.043 8.658,20.702 12.394,19.183 15.499 C 18.749 16.387,18.223 17.105,17.496 17.801 C 16.876 18.394,16.262 18.819,15.471 19.200 C 13.267 20.265,10.733 20.265,8.529 19.200 C 7.477 18.693,6.612 18.015,5.847 17.100 C 3.848 14.711,3.440 11.302,4.816 8.500 C 6.162 5.760,8.867 4.049,11.920 4.005 C 12.129 4.003,12.495 4.019,12.734 4.041 M14.620 8.046 C 14.383 8.167,8.154 14.406,8.039 14.637 C 7.863 14.990,7.953 15.355,8.299 15.701 C 8.645 16.047,9.010 16.137,9.363 15.961 C 9.613 15.836,15.836 9.613,15.961 9.363 C 16.137 9.010,16.047 8.645,15.701 8.299 C 15.361 7.959,14.968 7.867,14.620 8.046 M9.174 8.039 C 8.750 8.129,8.329 8.477,8.132 8.900 C 8.035 9.107,8.020 9.190,8.020 9.500 C 8.020 9.811,8.035 9.894,8.133 10.104 C 8.276 10.413,8.585 10.721,8.900 10.868 C 9.107 10.965,9.190 10.980,9.500 10.980 C 9.810 10.980,9.893 10.965,10.100 10.868 C 10.415 10.721,10.724 10.413,10.867 10.104 C 10.965 9.894,10.980 9.811,10.980 9.500 C 10.980 9.189,10.965 9.106,10.867 8.896 C 10.727 8.592,10.415 8.278,10.119 8.143 C 9.870 8.030,9.441 7.982,9.174 8.039 M14.174 13.039 C 13.750 13.129,13.329 13.477,13.132 13.900 C 13.035 14.107,13.020 14.190,13.020 14.500 C 13.020 14.811,13.035 14.894,13.133 15.104 C 13.276 15.413,13.585 15.721,13.900 15.868 C 14.107 15.965,14.190 15.980,14.500 15.980 C 14.810 15.980,14.893 15.965,15.100 15.868 C 15.415 15.721,15.724 15.413,15.867 15.104 C 15.965 14.894,15.980 14.811,15.980 14.500 C 15.980 14.189,15.965 14.106,15.867 13.896 C 15.727 13.592,15.415 13.278,15.119 13.143 C 14.870 13.030,14.441 12.982,14.174 13.039 " stroke="none" fill="black" fill-rule="evenodd"></path></svg>