<svg xmlns="http://www.w3.org/2000/svg" width="24" height="24" viewBox="0 0 24 24" fill="none" stroke="currentColor" stroke-width="2" stroke-linecap="round" stroke-linejoin="round" class="icon icon-tabler icons-tabler-outline icon-tabler-mail-bolt"><path d="M4.499 4.043 C 3.424 4.225,2.474 5.039,2.145 6.060 C 1.982 6.569,1.979 6.672,2.000 12.240 L 2.021 17.580 2.114 17.860 C 2.441 18.838,3.160 19.557,4.140 19.886 L 4.420 19.980 8.811 19.991 C 11.726 19.999,13.254 19.989,13.355 19.961 C 13.584 19.900,13.768 19.758,13.880 19.558 C 13.967 19.402,13.980 19.332,13.979 19.000 C 13.977 18.469,13.852 18.247,13.455 18.071 C 13.365 18.031,12.399 18.016,9.020 18.000 L 4.700 17.980 4.516 17.872 C 4.415 17.813,4.283 17.700,4.224 17.621 C 3.990 17.314,3.999 17.508,4.010 13.010 L 4.020 8.880 7.778 11.385 C 9.845 12.763,11.595 13.915,11.667 13.945 C 11.834 14.015,12.166 14.015,12.333 13.945 C 12.405 13.915,14.155 12.763,16.222 11.385 L 19.980 8.880 20.000 10.870 C 20.022 13.049,20.018 13.016,20.265 13.248 C 20.445 13.417,20.659 13.487,20.997 13.488 C 21.348 13.490,21.556 13.418,21.751 13.229 C 21.997 12.991,21.994 13.024,22.001 9.751 C 22.006 7.766,21.994 6.693,21.964 6.518 C 21.779 5.397,20.964 4.470,19.861 4.121 L 19.540 4.020 12.120 4.014 C 8.039 4.011,4.609 4.024,4.499 4.043 M19.310 6.061 C 19.453 6.103,19.571 6.178,19.698 6.304 C 19.798 6.404,19.880 6.500,19.880 6.517 C 19.880 6.533,18.107 7.729,15.940 9.173 L 12.000 11.800 8.060 9.173 C 5.893 7.729,4.120 6.533,4.120 6.517 C 4.120 6.429,4.502 6.116,4.673 6.063 C 4.964 5.974,19.009 5.971,19.310 6.061 M18.620 15.026 C 18.554 15.061,18.448 15.137,18.385 15.195 C 18.251 15.318,16.144 18.459,16.035 18.698 C 15.944 18.898,15.939 19.204,16.024 19.382 C 16.059 19.456,16.168 19.591,16.266 19.681 C 16.585 19.975,16.597 19.978,17.930 20.000 L 19.120 20.020 18.615 20.777 C 18.033 21.649,17.962 21.788,17.961 22.054 C 17.960 22.304,18.044 22.477,18.266 22.681 C 18.749 23.127,19.289 23.155,19.665 22.754 C 19.872 22.534,21.885 19.481,21.950 19.289 C 22.073 18.929,21.941 18.385,21.686 18.204 C 21.441 18.030,21.382 18.022,20.110 18.001 L 18.880 17.980 19.385 17.223 C 19.967 16.351,20.038 16.212,20.039 15.946 C 20.040 15.696,19.956 15.523,19.734 15.319 C 19.383 14.996,18.913 14.872,18.620 15.026 " stroke="none" fill="black" fill-rule="evenodd"></path></svg>