<svg xmlns="http://www.w3.org/2000/svg" width="24" height="24" viewBox="0 0 24 24" fill="none" stroke="currentColor" stroke-width="2" stroke-linecap="round" stroke-linejoin="round" class="icon icon-tabler icons-tabler-outline icon-tabler-brand-react-native"><path d="M7.214 2.079 C 5.289 2.584,4.576 4.807,5.262 8.164 C 5.283 8.263,5.268 8.273,4.952 8.380 C 3.095 9.007,1.756 9.978,1.255 11.062 C 0.623 12.431,1.188 13.856,2.792 14.934 C 3.235 15.232,4.122 15.665,4.740 15.885 C 5.004 15.979,5.225 16.059,5.231 16.062 C 5.238 16.066,5.207 16.274,5.162 16.525 C 4.863 18.226,4.972 19.563,5.494 20.580 C 5.614 20.814,5.745 20.987,5.979 21.222 C 7.307 22.556,9.329 22.162,11.591 20.128 L 11.922 19.830 12.131 20.026 C 13.183 21.011,14.463 21.733,15.552 21.957 C 16.126 22.074,16.841 21.970,17.371 21.692 C 18.783 20.949,19.303 19.004,18.818 16.283 C 18.765 15.987,18.726 15.741,18.731 15.736 C 18.736 15.731,18.893 15.674,19.080 15.609 C 21.597 14.735,23.000 13.373,23.000 11.804 C 23.000 10.924,22.501 10.057,21.581 9.340 C 20.919 8.825,19.919 8.313,19.000 8.019 C 18.879 7.981,18.775 7.945,18.770 7.941 C 18.764 7.936,18.786 7.790,18.819 7.616 C 18.998 6.671,19.046 5.585,18.941 4.860 C 18.799 3.880,18.532 3.283,18.000 2.755 C 16.926 1.690,15.357 1.761,13.573 2.955 C 13.105 3.268,12.636 3.643,12.273 3.992 L 12.085 4.172 11.816 3.925 C 10.987 3.165,9.876 2.475,9.040 2.201 C 8.412 1.994,7.715 1.948,7.214 2.079 M8.291 4.059 C 8.594 4.138,9.180 4.435,9.603 4.724 C 9.914 4.937,10.720 5.584,10.720 5.621 C 10.720 5.629,10.633 5.740,10.527 5.868 C 9.746 6.807,8.717 8.376,7.979 9.752 L 7.866 9.963 7.792 9.772 C 7.678 9.477,7.420 8.589,7.305 8.100 C 6.891 6.331,6.918 4.809,7.371 4.259 C 7.584 4.001,7.847 3.944,8.291 4.059 M16.483 4.091 C 16.557 4.141,16.659 4.243,16.709 4.317 C 16.996 4.742,17.070 5.784,16.897 6.954 C 16.863 7.188,16.822 7.392,16.807 7.408 C 16.792 7.423,16.649 7.410,16.488 7.379 C 16.221 7.328,15.739 7.260,14.540 7.103 C 14.298 7.071,14.037 7.048,13.960 7.052 C 13.883 7.057,13.456 7.045,13.011 7.026 C 12.062 6.986,12.094 7.075,12.759 6.334 C 13.565 5.436,14.510 4.655,15.220 4.301 C 15.834 3.996,16.241 3.928,16.483 4.091 M13.119 9.026 L 13.611 9.053 13.996 9.637 C 14.329 10.144,14.808 10.988,15.020 11.441 L 15.086 11.582 14.858 12.081 C 14.511 12.841,13.857 14.054,13.457 14.684 L 13.289 14.947 12.858 14.974 C 12.304 15.008,11.102 15.008,10.701 14.974 L 10.389 14.947 10.005 14.363 C 9.671 13.855,9.192 13.012,8.979 12.558 L 8.913 12.416 9.119 11.958 C 9.463 11.193,10.114 9.986,10.546 9.312 L 10.717 9.043 11.069 9.030 C 11.794 9.002,12.643 9.001,13.119 9.026 M16.890 9.502 C 19.381 10.059,21.211 11.178,20.966 11.996 C 20.811 12.513,19.882 13.181,18.720 13.610 C 18.197 13.804,18.160 13.814,18.160 13.758 C 18.160 13.675,17.642 12.335,17.377 11.732 C 17.236 11.410,16.914 10.745,16.661 10.253 C 16.409 9.762,16.214 9.360,16.228 9.360 C 16.242 9.360,16.540 9.424,16.890 9.502 M5.916 10.470 C 6.312 11.597,6.726 12.549,7.343 13.752 L 7.801 14.644 7.650 14.617 C 6.358 14.390,4.661 13.782,3.916 13.278 C 3.373 12.911,3.000 12.455,3.001 12.160 C 3.003 11.741,3.598 11.182,4.535 10.718 C 4.920 10.527,5.691 10.213,5.800 10.202 C 5.812 10.201,5.863 10.322,5.916 10.470 M11.539 10.821 C 11.333 10.897,11.111 11.080,10.966 11.293 C 10.523 11.941,10.784 12.824,11.514 13.148 C 11.710 13.235,11.782 13.246,12.060 13.231 C 12.447 13.210,12.628 13.127,12.930 12.830 C 13.173 12.592,13.254 12.383,13.251 12.006 C 13.247 11.638,13.177 11.453,12.948 11.211 C 12.625 10.870,12.452 10.786,12.043 10.773 C 11.813 10.765,11.647 10.781,11.539 10.821 M16.417 14.868 C 16.896 16.458,17.087 17.844,16.957 18.787 C 16.846 19.587,16.561 19.999,16.118 20.000 C 15.476 20.000,14.538 19.484,13.442 18.528 L 13.263 18.372 13.445 18.156 C 14.225 17.229,15.448 15.370,16.021 14.240 L 16.133 14.020 16.186 14.148 C 16.215 14.218,16.319 14.542,16.417 14.868 M7.680 16.655 C 8.461 16.793,9.497 16.923,10.000 16.945 C 10.209 16.955,10.701 16.975,11.093 16.991 L 11.806 17.020 11.291 17.600 C 10.252 18.768,9.193 19.591,8.350 19.884 C 7.677 20.118,7.385 20.001,7.158 19.404 C 6.986 18.952,6.963 17.974,7.102 17.065 C 7.179 16.563,7.184 16.550,7.270 16.575 C 7.308 16.586,7.493 16.622,7.680 16.655 " stroke="none" fill="black" fill-rule="evenodd"></path></svg>