<svg xmlns="http://www.w3.org/2000/svg" width="24" height="24" viewBox="0 0 24 24" fill="none" stroke="currentColor" stroke-width="2" stroke-linecap="round" stroke-linejoin="round" class="icon icon-tabler icons-tabler-outline icon-tabler-device-nintendo"><path d="M6.400 3.044 C 4.761 3.229,3.261 4.290,2.526 5.785 C 2.333 6.177,2.187 6.599,2.093 7.040 C 2.025 7.358,2.020 7.684,2.020 12.000 C 2.020 16.316,2.025 16.642,2.093 16.960 C 2.523 18.968,3.973 20.432,6.000 20.904 C 6.258 20.964,6.573 20.976,8.247 20.989 C 9.539 21.000,10.246 20.991,10.351 20.962 C 10.583 20.900,10.767 20.759,10.880 20.558 L 10.980 20.380 10.980 12.000 L 10.980 3.620 10.891 3.453 C 10.842 3.362,10.746 3.247,10.678 3.199 C 10.412 3.009,10.304 3.000,8.444 3.005 C 7.485 3.008,6.565 3.026,6.400 3.044 M13.614 3.057 C 13.377 3.131,13.212 3.261,13.109 3.453 L 13.020 3.620 13.010 11.914 C 13.003 17.391,13.013 20.260,13.040 20.358 C 13.100 20.584,13.243 20.769,13.442 20.880 L 13.620 20.980 15.620 20.980 C 17.403 20.980,17.657 20.972,17.960 20.907 C 19.488 20.580,20.748 19.630,21.433 18.288 C 21.662 17.839,21.805 17.439,21.907 16.960 C 21.975 16.642,21.980 16.316,21.980 12.000 C 21.980 7.684,21.975 7.358,21.907 7.040 C 21.625 5.721,20.863 4.576,19.800 3.874 C 19.046 3.375,18.396 3.135,17.552 3.043 C 16.973 2.979,13.826 2.991,13.614 3.057 M9.000 12.003 L 9.000 19.007 7.710 18.991 C 6.498 18.976,6.403 18.969,6.140 18.884 C 5.154 18.562,4.387 17.782,4.112 16.822 L 4.020 16.500 4.020 12.000 L 4.020 7.500 4.112 7.178 C 4.426 6.083,5.378 5.231,6.499 5.043 C 6.609 5.025,7.218 5.007,7.850 5.005 L 9.000 5.000 9.000 12.003 M17.861 5.124 C 18.829 5.422,19.612 6.216,19.888 7.178 L 19.980 7.500 19.980 12.000 L 19.980 16.500 19.888 16.822 C 19.613 17.782,18.846 18.562,17.860 18.884 C 17.597 18.969,17.502 18.976,16.290 18.991 L 15.000 19.007 15.000 12.000 L 15.000 4.993 16.270 5.009 C 17.482 5.025,17.555 5.030,17.861 5.124 M5.940 6.574 C 5.489 6.723,5.042 7.063,4.800 7.441 C 4.412 8.045,4.410 8.953,4.797 9.555 C 5.179 10.151,5.799 10.492,6.500 10.492 C 7.052 10.492,7.469 10.326,7.869 9.948 C 8.299 9.541,8.488 9.100,8.488 8.500 C 8.488 7.690,8.071 7.043,7.320 6.684 C 7.036 6.548,6.996 6.540,6.560 6.531 C 6.262 6.525,6.044 6.540,5.940 6.574 M16.940 13.574 C 16.489 13.723,16.042 14.063,15.800 14.441 C 15.412 15.045,15.410 15.953,15.797 16.555 C 16.179 17.151,16.799 17.492,17.500 17.492 C 18.052 17.492,18.469 17.326,18.869 16.948 C 19.299 16.541,19.488 16.100,19.488 15.500 C 19.488 14.690,19.071 14.043,18.320 13.684 C 18.036 13.548,17.996 13.540,17.560 13.531 C 17.262 13.525,17.044 13.540,16.940 13.574 " stroke="none" fill="black" fill-rule="evenodd"></path></svg>