<svg xmlns="http://www.w3.org/2000/svg" width="24" height="24" viewBox="0 0 24 24" fill="none" stroke="currentColor" stroke-width="2" stroke-linecap="round" stroke-linejoin="round" class="icon icon-tabler icons-tabler-outline icon-tabler-brush-off"><path d="M2.626 2.045 C 2.420 2.154,2.146 2.433,2.038 2.644 C 1.924 2.867,1.924 3.132,2.039 3.363 C 2.102 3.488,3.083 4.496,5.385 6.801 C 7.466 8.885,8.628 10.077,8.603 10.101 C 8.533 10.173,8.055 11.056,7.820 11.552 L 7.586 12.043 7.263 12.017 C 6.692 11.971,5.812 12.103,5.248 12.320 C 4.565 12.582,3.886 13.035,3.384 13.563 C 2.738 14.242,2.325 15.023,2.096 16.000 C 2.034 16.265,2.024 16.586,2.011 18.748 C 2.001 20.375,2.010 21.249,2.038 21.352 C 2.100 21.583,2.241 21.768,2.442 21.880 L 2.620 21.980 5.120 21.980 C 7.386 21.980,7.652 21.973,7.960 21.907 C 9.488 21.580,10.748 20.630,11.433 19.288 C 11.835 18.499,11.979 17.900,11.980 17.013 L 11.980 16.405 12.460 16.173 C 12.976 15.923,13.835 15.459,13.899 15.397 C 13.924 15.372,15.110 16.530,17.199 18.615 C 19.504 20.917,20.512 21.898,20.637 21.961 C 20.990 22.137,21.355 22.048,21.701 21.701 C 22.048 21.354,22.137 20.990,21.961 20.637 C 21.868 20.451,20.415 18.988,9.151 7.734 C 5.298 3.885,3.487 2.102,3.372 2.044 C 3.152 1.934,2.835 1.935,2.626 2.045 M19.980 2.157 C 18.231 2.524,17.094 2.907,15.675 3.605 C 14.025 4.417,12.651 5.383,11.315 6.671 C 10.797 7.171,10.640 7.412,10.640 7.709 C 10.640 8.176,11.224 8.756,11.697 8.759 C 11.950 8.761,12.187 8.613,12.658 8.160 C 13.472 7.378,14.100 6.868,14.886 6.351 C 16.234 5.463,17.892 4.719,19.320 4.360 C 19.507 4.313,19.681 4.268,19.706 4.260 C 19.763 4.242,19.544 5.089,19.339 5.680 C 18.604 7.794,17.502 9.595,15.932 11.246 C 15.225 11.990,15.131 12.214,15.341 12.656 C 15.441 12.866,15.763 13.187,15.969 13.281 C 16.393 13.473,16.659 13.359,17.301 12.708 C 19.414 10.564,20.931 7.835,21.659 4.864 C 21.883 3.948,21.980 3.375,21.980 2.957 C 21.980 2.606,21.971 2.560,21.870 2.407 C 21.809 2.316,21.685 2.192,21.595 2.132 C 21.450 2.036,21.388 2.022,21.065 2.014 C 20.772 2.007,20.558 2.036,19.980 2.157 M12.410 13.952 C 12.335 14.008,11.384 14.480,11.347 14.480 C 11.335 14.480,11.238 14.350,11.133 14.192 C 10.862 13.788,10.345 13.257,9.941 12.970 C 9.753 12.836,9.576 12.719,9.550 12.710 C 9.499 12.693,9.682 12.263,9.953 11.766 L 10.092 11.512 11.286 12.706 C 12.364 13.783,12.474 13.905,12.410 13.952 M7.880 14.141 C 8.847 14.444,9.545 15.140,9.863 16.120 C 9.962 16.423,9.974 16.518,9.973 17.000 C 9.973 17.458,9.958 17.589,9.875 17.861 C 9.585 18.811,8.838 19.562,7.860 19.884 C 7.587 19.974,7.533 19.977,5.787 19.991 L 3.995 20.005 4.009 18.233 C 4.023 16.476,4.024 16.457,4.123 16.139 C 4.462 15.049,5.371 14.245,6.499 14.040 C 6.858 13.975,7.501 14.022,7.880 14.141 " stroke="none" fill="black" fill-rule="evenodd"></path></svg>