<svg xmlns="http://www.w3.org/2000/svg" width="24" height="24" viewBox="0 0 24 24" fill="none" stroke="currentColor" stroke-width="2" stroke-linecap="round" stroke-linejoin="round" class="icon icon-tabler icons-tabler-outline icon-tabler-share"><path d="M17.358 2.061 C 16.230 2.237,15.143 2.974,14.569 3.953 C 14.163 4.646,13.978 5.374,14.016 6.140 C 14.029 6.404,14.044 6.664,14.050 6.717 C 14.059 6.807,13.881 6.906,11.551 8.108 L 9.042 9.402 8.895 9.239 C 8.547 8.854,7.829 8.404,7.245 8.204 C 6.951 8.103,6.322 8.000,6.000 8.000 C 4.635 8.000,3.253 8.787,2.569 9.953 C 1.320 12.083,2.233 14.785,4.512 15.704 C 4.960 15.884,5.541 16.000,6.000 16.000 C 6.659 16.000,7.488 15.771,8.044 15.436 C 8.313 15.274,8.760 14.916,8.918 14.736 L 9.037 14.600 11.549 15.896 C 13.853 17.085,14.059 17.200,14.050 17.286 C 14.044 17.338,14.029 17.596,14.016 17.860 C 13.996 18.260,14.007 18.410,14.079 18.759 C 14.360 20.123,15.244 21.193,16.512 21.704 C 18.558 22.528,20.877 21.538,21.704 19.488 C 22.090 18.530,22.090 17.469,21.705 16.516 C 21.263 15.421,20.381 14.593,19.245 14.204 C 18.951 14.103,18.322 14.000,18.000 14.000 C 17.678 14.000,17.049 14.103,16.755 14.204 C 16.171 14.404,15.453 14.854,15.105 15.239 L 14.958 15.402 12.449 14.108 L 9.940 12.813 9.960 12.637 C 9.971 12.540,9.980 12.253,9.980 12.000 C 9.980 11.747,9.971 11.461,9.960 11.365 L 9.940 11.191 12.451 9.895 L 14.962 8.599 15.082 8.736 C 15.240 8.916,15.687 9.274,15.956 9.436 C 16.075 9.508,16.325 9.628,16.512 9.704 C 18.558 10.528,20.877 9.538,21.704 7.488 C 22.090 6.530,22.090 5.469,21.705 4.516 C 21.172 3.197,20.001 2.269,18.605 2.058 C 18.144 1.989,17.816 1.990,17.358 2.061 M18.523 4.073 C 19.262 4.266,19.850 4.924,19.967 5.690 C 20.067 6.343,19.873 6.933,19.403 7.404 C 19.002 7.807,18.547 8.000,18.000 8.000 C 17.453 8.000,16.997 7.806,16.599 7.404 C 15.810 6.608,15.803 5.395,16.583 4.598 C 17.081 4.090,17.820 3.890,18.523 4.073 M6.523 10.073 C 7.477 10.322,8.121 11.313,7.968 12.296 C 7.902 12.724,7.717 13.086,7.401 13.404 C 7.003 13.806,6.547 14.000,6.000 14.000 C 5.485 14.000,5.038 13.822,4.653 13.465 C 3.323 12.229,4.189 10.005,6.000 10.005 C 6.143 10.005,6.378 10.036,6.523 10.073 M18.523 16.073 C 19.262 16.266,19.850 16.924,19.967 17.690 C 20.029 18.098,19.967 18.522,19.793 18.880 C 19.638 19.198,19.227 19.625,18.930 19.775 C 18.346 20.071,17.658 20.073,17.083 19.781 C 16.816 19.646,16.449 19.297,16.281 19.017 C 15.495 17.712,16.469 16.005,18.000 16.005 C 18.143 16.005,18.378 16.036,18.523 16.073 " stroke="none" fill="black" fill-rule="evenodd"></path></svg>