<svg xmlns="http://www.w3.org/2000/svg" width="24" height="24" viewBox="0 0 24 24" fill="none" stroke="currentColor" stroke-width="2" stroke-linecap="round" stroke-linejoin="round" class="icon icon-tabler icons-tabler-outline icon-tabler-refresh-alert"><path d="M11.420 3.044 C 9.220 3.163,7.123 4.116,5.514 5.728 L 5.007 6.235 4.993 5.428 C 4.980 4.682,4.972 4.607,4.889 4.450 C 4.724 4.141,4.329 3.970,3.874 4.011 C 3.434 4.051,3.138 4.276,3.039 4.645 C 3.012 4.744,3.001 5.608,3.009 7.089 L 3.020 9.380 3.120 9.558 C 3.234 9.761,3.417 9.900,3.656 9.964 C 3.864 10.021,8.153 10.016,8.364 9.959 C 8.584 9.900,8.769 9.756,8.880 9.558 C 8.967 9.402,8.980 9.332,8.979 9.000 C 8.977 8.469,8.850 8.243,8.455 8.072 C 8.377 8.038,7.994 8.015,7.264 8.001 L 6.188 7.980 6.396 7.720 C 7.237 6.668,8.420 5.834,9.702 5.388 C 11.539 4.749,13.830 4.970,15.501 5.948 C 16.653 6.623,17.631 7.630,18.233 8.760 C 18.594 9.439,18.819 10.095,18.964 10.900 C 19.068 11.470,19.181 11.720,19.404 11.867 C 19.559 11.970,19.606 11.980,19.937 11.980 C 20.247 11.980,20.333 11.964,20.527 11.874 C 20.962 11.670,21.073 11.320,20.941 10.573 C 20.554 8.387,19.372 6.382,17.671 5.028 C 16.207 3.862,14.339 3.134,12.620 3.057 C 12.356 3.046,12.095 3.031,12.040 3.026 C 11.985 3.020,11.706 3.028,11.420 3.044 M11.614 8.057 C 11.377 8.131,11.212 8.261,11.109 8.453 C 11.021 8.618,11.020 8.647,11.008 10.410 C 11.001 11.557,11.012 12.255,11.038 12.354 C 11.144 12.747,11.433 12.961,11.896 12.991 C 12.381 13.022,12.699 12.882,12.880 12.558 L 12.980 12.380 12.980 10.500 C 12.980 8.633,12.979 8.619,12.891 8.453 C 12.842 8.362,12.746 8.247,12.678 8.199 C 12.414 8.010,11.957 7.950,11.614 8.057 M3.678 12.052 C 3.079 12.222,2.912 12.591,3.058 13.427 C 3.383 15.282,4.268 16.982,5.603 18.317 C 6.352 19.067,7.090 19.590,8.060 20.060 C 10.258 21.125,12.657 21.273,14.960 20.486 C 15.521 20.294,15.632 20.247,16.140 19.991 C 17.005 19.555,17.752 19.007,18.490 18.269 L 19.000 17.758 19.000 18.489 C 19.000 18.891,19.019 19.285,19.041 19.365 C 19.148 19.750,19.437 19.962,19.896 19.991 C 20.381 20.022,20.699 19.882,20.880 19.558 L 20.980 19.380 20.980 17.000 L 20.980 14.620 20.891 14.453 C 20.785 14.256,20.623 14.132,20.367 14.053 C 20.101 13.971,15.899 13.974,15.626 14.056 C 15.224 14.177,15.040 14.430,15.009 14.900 C 14.978 15.381,15.119 15.699,15.442 15.880 C 15.617 15.978,15.639 15.980,16.715 16.000 L 17.810 16.020 17.551 16.340 C 16.496 17.643,14.922 18.577,13.260 18.885 C 12.387 19.047,11.243 19.004,10.300 18.775 C 9.370 18.548,8.402 18.076,7.668 17.490 C 6.225 16.340,5.361 14.899,5.036 13.100 C 4.886 12.275,4.694 12.040,4.149 12.014 C 3.990 12.007,3.778 12.024,3.678 12.052 M11.614 14.055 C 11.220 14.184,11.039 14.437,11.009 14.900 C 10.978 15.381,11.119 15.699,11.442 15.880 C 11.597 15.967,11.669 15.980,12.000 15.980 C 12.312 15.980,12.408 15.964,12.540 15.894 C 12.866 15.718,13.000 15.459,13.000 15.000 C 13.000 14.357,12.713 14.048,12.083 14.016 C 11.893 14.006,11.718 14.021,11.614 14.055 " stroke="none" fill="black" fill-rule="evenodd"></path></svg>