<svg xmlns="http://www.w3.org/2000/svg" width="24" height="24" viewBox="0 0 24 24" fill="none" stroke="currentColor" stroke-width="2" stroke-linecap="round" stroke-linejoin="round" class="icon icon-tabler icons-tabler-outline icon-tabler-building-estate"><path d="M6.358 3.061 C 4.731 3.315,3.417 4.584,3.083 6.227 C 3.001 6.627,3.000 6.720,3.000 13.307 L 3.000 19.982 2.756 20.028 C 2.450 20.086,2.227 20.232,2.111 20.450 C 2.035 20.592,2.020 20.682,2.020 21.000 C 2.020 21.331,2.033 21.403,2.120 21.558 C 2.230 21.755,2.414 21.898,2.635 21.959 C 2.835 22.015,21.165 22.015,21.365 21.959 C 21.586 21.898,21.770 21.755,21.880 21.558 C 21.967 21.402,21.980 21.332,21.979 21.000 C 21.978 20.687,21.962 20.591,21.890 20.453 C 21.702 20.097,21.424 20.000,20.594 20.000 L 20.000 20.000 20.000 18.927 L 20.000 17.853 20.330 17.688 C 21.068 17.318,21.635 16.646,21.886 15.840 C 21.978 15.547,21.980 15.503,21.980 14.000 C 21.980 12.497,21.978 12.453,21.886 12.160 C 21.580 11.180,20.822 10.418,19.861 10.125 C 19.588 10.042,19.458 10.027,19.000 10.027 C 18.542 10.027,18.412 10.042,18.139 10.125 C 17.178 10.418,16.420 11.180,16.114 12.160 C 16.022 12.453,16.020 12.497,16.020 14.000 C 16.020 15.503,16.022 15.547,16.114 15.840 C 16.365 16.646,16.932 17.318,17.670 17.688 L 18.000 17.853 18.000 18.927 L 18.000 20.000 16.500 20.000 L 15.000 20.000 15.000 13.316 C 15.000 6.805,14.998 6.622,14.921 6.243 C 14.628 4.806,13.637 3.680,12.245 3.204 C 11.709 3.020,11.378 3.000,8.960 3.004 C 7.291 3.007,6.611 3.022,6.358 3.061 M11.523 5.073 C 12.022 5.203,12.516 5.599,12.772 6.071 C 13.007 6.506,12.999 6.224,12.999 13.410 L 13.000 20.000 11.502 20.000 L 10.004 20.000 9.992 18.310 C 9.980 16.641,9.979 16.618,9.889 16.450 C 9.724 16.140,9.329 15.970,8.874 16.011 C 8.439 16.051,8.141 16.274,8.041 16.635 C 8.017 16.721,8.000 17.435,8.000 18.390 L 8.000 20.000 6.500 20.000 L 5.000 20.000 5.000 13.398 C 5.000 6.070,4.985 6.480,5.265 6.014 C 5.546 5.543,5.988 5.201,6.477 5.073 C 6.711 5.012,6.992 5.005,9.000 5.005 C 11.008 5.005,11.289 5.012,11.523 5.073 M7.614 8.057 C 7.377 8.131,7.212 8.261,7.109 8.453 C 7.035 8.592,7.020 8.684,7.020 9.000 C 7.020 9.331,7.033 9.403,7.120 9.558 C 7.230 9.755,7.414 9.898,7.635 9.959 C 7.826 10.012,10.174 10.012,10.365 9.959 C 10.586 9.898,10.770 9.755,10.880 9.558 C 10.967 9.402,10.980 9.332,10.979 9.000 C 10.978 8.687,10.962 8.591,10.890 8.453 C 10.786 8.256,10.623 8.131,10.371 8.055 C 10.117 7.979,7.859 7.981,7.614 8.057 M7.614 12.057 C 7.377 12.131,7.212 12.261,7.109 12.453 C 7.035 12.592,7.020 12.684,7.020 13.000 C 7.020 13.331,7.033 13.403,7.120 13.558 C 7.230 13.755,7.414 13.898,7.635 13.959 C 7.826 14.012,10.174 14.012,10.365 13.959 C 10.586 13.898,10.770 13.755,10.880 13.558 C 10.967 13.402,10.980 13.332,10.979 13.000 C 10.978 12.687,10.962 12.591,10.890 12.453 C 10.786 12.256,10.623 12.131,10.371 12.055 C 10.117 11.979,7.859 11.981,7.614 12.057 M19.310 12.061 C 19.589 12.144,19.856 12.411,19.939 12.690 C 20.023 12.972,20.028 15.015,19.945 15.290 C 19.872 15.533,19.707 15.740,19.484 15.872 C 19.328 15.963,19.254 15.980,19.000 15.980 C 18.746 15.980,18.672 15.963,18.516 15.872 C 18.415 15.813,18.284 15.700,18.225 15.623 C 18.014 15.347,18.000 15.245,18.000 14.022 C 18.000 12.695,18.019 12.587,18.304 12.303 C 18.583 12.024,18.916 11.944,19.310 12.061 " stroke="none" fill="black" fill-rule="evenodd"></path></svg>