<svg xmlns="http://www.w3.org/2000/svg" width="24" height="24" viewBox="0 0 24 24" fill="none" stroke="currentColor" stroke-width="2" stroke-linecap="round" stroke-linejoin="round" class="icon icon-tabler icons-tabler-outline icon-tabler-scissors"><path d="M5.358 3.061 C 4.230 3.237,3.143 3.974,2.569 4.953 C 1.320 7.083,2.233 9.785,4.512 10.704 C 4.960 10.884,5.541 11.000,6.000 11.000 C 6.842 11.000,7.805 10.671,8.434 10.167 L 8.608 10.028 9.594 11.014 L 10.580 12.000 9.596 12.984 L 8.611 13.968 8.356 13.780 C 7.847 13.405,7.238 13.154,6.605 13.058 C 6.121 12.986,5.879 12.986,5.395 13.058 C 4.233 13.234,3.153 13.957,2.569 14.953 C 1.320 17.083,2.233 19.785,4.512 20.704 C 6.558 21.528,8.877 20.538,9.704 18.488 C 9.884 18.040,10.000 17.459,10.000 17.000 C 10.000 16.639,9.880 15.909,9.794 15.748 C 9.756 15.678,9.879 15.541,10.875 14.545 L 12.000 13.421 15.230 16.646 C 17.512 18.926,18.512 19.898,18.637 19.961 C 18.990 20.137,19.355 20.048,19.701 19.701 C 20.048 19.355,20.137 18.990,19.961 18.637 C 19.898 18.512,18.926 17.512,16.647 15.230 L 13.421 12.000 16.647 8.770 C 18.926 6.488,19.898 5.488,19.961 5.363 C 20.137 5.010,20.048 4.645,19.701 4.299 C 19.361 3.959,18.980 3.868,18.628 4.044 C 18.515 4.101,17.410 5.176,15.230 7.354 L 12.000 10.579 10.875 9.455 C 9.879 8.459,9.756 8.322,9.794 8.252 C 9.880 8.091,10.000 7.361,10.000 7.000 C 10.000 6.327,9.776 5.525,9.421 4.932 C 8.834 3.949,7.756 3.232,6.605 3.058 C 6.144 2.989,5.816 2.990,5.358 3.061 M6.523 5.073 C 7.262 5.266,7.850 5.924,7.967 6.690 C 8.067 7.343,7.873 7.933,7.403 8.404 C 7.002 8.807,6.547 9.000,6.000 9.000 C 5.485 9.000,5.038 8.822,4.653 8.465 C 3.323 7.229,4.189 5.005,6.000 5.005 C 6.143 5.005,6.378 5.036,6.523 5.073 M6.523 15.073 C 7.262 15.266,7.850 15.924,7.967 16.690 C 8.067 17.343,7.873 17.933,7.403 18.404 C 7.002 18.807,6.547 19.000,6.000 19.000 C 5.485 19.000,5.038 18.822,4.653 18.465 C 3.323 17.229,4.189 15.005,6.000 15.005 C 6.143 15.005,6.378 15.036,6.523 15.073 " stroke="none" fill="black" fill-rule="evenodd"></path></svg>