<svg xmlns="http://www.w3.org/2000/svg" width="24" height="24" viewBox="0 0 24 24" fill="none" stroke="currentColor" stroke-width="2" stroke-linecap="round" stroke-linejoin="round" class="icon icon-tabler icons-tabler-outline icon-tabler-file-digit"><path d="M6.499 2.043 C 5.383 2.230,4.461 3.048,4.114 4.160 L 4.020 4.460 4.020 12.000 L 4.020 19.540 4.114 19.840 C 4.422 20.827,5.173 21.578,6.160 21.886 L 6.460 21.980 12.000 21.980 L 17.540 21.980 17.840 21.886 C 18.827 21.578,19.578 20.827,19.886 19.840 L 19.980 19.540 19.980 13.580 L 19.980 7.620 19.890 7.452 C 19.841 7.360,19.724 7.231,19.630 7.165 C 19.498 7.073,15.263 2.838,14.719 2.254 C 14.473 1.991,14.626 2.000,10.463 2.005 C 8.393 2.007,6.609 2.025,6.499 2.043 M13.000 5.632 C 13.000 7.399,13.010 7.507,13.225 7.930 C 13.361 8.199,13.801 8.639,14.070 8.775 C 14.493 8.990,14.601 9.000,16.368 9.000 L 18.000 9.000 18.000 14.054 C 18.000 18.220,17.990 19.139,17.945 19.290 C 17.872 19.533,17.707 19.740,17.484 19.872 L 17.300 19.980 12.000 19.980 L 6.700 19.980 6.516 19.872 C 6.415 19.813,6.284 19.700,6.225 19.623 C 5.986 19.309,6.000 19.795,6.000 12.022 C 6.000 4.005,5.975 4.631,6.304 4.303 C 6.613 3.994,6.464 4.006,9.930 4.003 L 13.000 4.000 13.000 5.632 M15.800 6.220 L 16.579 7.000 15.790 7.000 L 15.000 7.000 15.000 6.220 C 15.000 5.791,15.005 5.440,15.010 5.440 C 15.016 5.440,15.371 5.791,15.800 6.220 M9.477 11.073 C 8.806 11.249,8.238 11.823,8.060 12.508 C 7.972 12.844,7.972 16.156,8.060 16.492 C 8.153 16.852,8.310 17.118,8.596 17.404 C 9.091 17.899,9.413 18.000,10.500 18.000 C 11.587 18.000,11.909 17.899,12.404 17.404 C 12.694 17.114,12.841 16.863,12.937 16.491 C 13.027 16.144,13.029 12.909,12.940 12.529 C 12.858 12.182,12.720 11.927,12.465 11.653 C 11.978 11.129,11.602 11.005,10.500 11.005 C 9.910 11.005,9.681 11.020,9.477 11.073 M14.614 11.057 C 14.377 11.131,14.212 11.261,14.109 11.453 L 14.020 11.620 14.009 14.412 C 14.002 16.226,14.012 17.257,14.039 17.356 C 14.144 17.747,14.433 17.961,14.896 17.991 C 15.381 18.022,15.699 17.882,15.880 17.558 L 15.980 17.380 15.980 14.500 L 15.980 11.620 15.891 11.453 C 15.842 11.362,15.746 11.247,15.678 11.199 C 15.414 11.010,14.957 10.950,14.614 11.057 M11.000 14.500 L 11.000 16.000 10.500 16.000 L 10.000 16.000 10.000 14.500 L 10.000 13.000 10.500 13.000 L 11.000 13.000 11.000 14.500 " stroke="none" fill="black" fill-rule="evenodd"></path></svg>