<svg xmlns="http://www.w3.org/2000/svg" width="24" height="24" viewBox="0 0 24 24" fill="none" stroke="currentColor" stroke-width="2" stroke-linecap="round" stroke-linejoin="round" class="icon icon-tabler icons-tabler-outline icon-tabler-axe"><path d="M12.620 2.046 C 12.521 2.097,11.300 3.286,9.440 5.141 L 6.420 8.155 4.900 8.761 C 4.064 9.094,3.272 9.424,3.140 9.493 C 3.008 9.563,2.783 9.737,2.640 9.880 C 2.197 10.323,1.984 10.836,1.986 11.460 C 1.987 11.875,2.031 12.063,2.228 12.480 C 2.363 12.768,2.449 12.860,4.295 14.705 C 6.166 16.577,6.229 16.635,6.535 16.781 C 6.750 16.883,6.970 16.950,7.225 16.992 C 7.564 17.047,7.628 17.047,7.929 16.988 C 8.599 16.856,9.213 16.417,9.507 15.860 C 9.606 15.672,10.048 14.606,10.326 13.882 C 10.362 13.790,10.463 13.882,12.212 15.623 C 13.228 16.634,14.744 18.138,15.580 18.965 L 17.100 20.469 17.480 20.654 C 17.956 20.886,18.233 20.959,18.742 20.988 C 19.371 21.023,19.956 20.880,20.511 20.554 C 20.804 20.382,21.382 19.804,21.554 19.511 C 22.147 18.502,22.147 17.303,21.555 16.289 C 21.458 16.124,20.757 15.390,19.041 13.660 C 17.732 12.340,16.157 10.752,15.541 10.131 L 14.422 9.001 15.646 7.771 C 16.451 6.961,16.901 6.479,16.960 6.363 C 17.076 6.132,17.076 5.869,16.961 5.637 C 16.841 5.397,13.611 2.163,13.372 2.044 C 13.151 1.934,12.836 1.935,12.620 2.046 M13.800 5.220 L 14.579 6.000 11.854 8.730 C 9.270 11.318,8.960 11.651,8.960 11.846 C 8.960 11.873,8.688 12.576,8.356 13.408 C 7.761 14.900,7.689 15.040,7.522 15.040 C 7.489 15.040,6.683 14.262,5.731 13.311 C 4.161 11.742,4.000 11.569,4.000 11.452 C 4.000 11.361,4.027 11.304,4.090 11.264 C 4.140 11.232,4.936 10.905,5.860 10.537 L 7.540 9.869 10.260 7.155 C 11.756 5.662,12.989 4.440,13.000 4.440 C 13.012 4.440,13.371 4.791,13.800 5.220 M16.407 13.838 C 18.616 16.063,19.811 17.295,19.871 17.409 C 20.082 17.813,20.012 18.302,19.693 18.643 C 19.375 18.983,18.944 19.081,18.492 18.915 C 18.271 18.834,18.096 18.667,14.840 15.416 L 11.420 12.001 12.200 11.221 C 12.628 10.791,12.991 10.440,13.006 10.440 C 13.021 10.440,14.551 11.969,16.407 13.838 " stroke="none" fill="black" fill-rule="evenodd"></path></svg>