<svg xmlns="http://www.w3.org/2000/svg" width="24" height="24" viewBox="0 0 24 24" fill="none" stroke="currentColor" stroke-width="2" stroke-linecap="round" stroke-linejoin="round" class="icon icon-tabler icons-tabler-outline icon-tabler-rocket"><path d="M16.620 3.027 C 14.215 3.237,11.950 4.326,10.260 6.085 C 9.526 6.849,9.022 7.565,8.553 8.510 C 8.307 9.007,8.258 9.080,8.175 9.080 C 7.997 9.080,7.311 9.246,6.904 9.387 C 6.377 9.570,5.596 9.974,5.121 10.311 C 4.685 10.620,3.902 11.378,3.625 11.760 C 3.521 11.903,3.370 12.106,3.288 12.211 C 3.118 12.430,2.960 12.859,2.960 13.100 C 2.960 13.311,3.129 13.653,3.294 13.776 C 3.456 13.897,3.871 14.027,4.189 14.056 C 4.408 14.076,4.954 14.190,4.995 14.225 C 5.004 14.232,4.904 14.359,4.773 14.509 C 3.846 15.567,3.265 16.770,3.039 18.100 C 2.963 18.552,2.954 18.719,2.971 19.380 C 2.995 20.275,3.043 20.483,3.280 20.720 C 3.517 20.957,3.725 21.005,4.620 21.029 C 5.281 21.046,5.448 21.037,5.900 20.961 C 7.233 20.735,8.439 20.152,9.490 19.226 C 9.639 19.095,9.767 18.995,9.775 19.004 C 9.799 19.032,9.917 19.569,9.963 19.860 C 10.045 20.383,10.123 20.603,10.285 20.765 C 10.452 20.932,10.641 20.999,10.945 21.000 C 11.223 21.000,11.422 20.923,11.832 20.655 C 13.388 19.641,14.488 18.019,14.859 16.188 C 14.912 15.925,14.961 15.707,14.968 15.704 C 14.975 15.700,15.227 15.575,15.528 15.427 C 17.175 14.615,18.598 13.285,19.616 11.607 C 20.412 10.293,20.906 8.686,20.983 7.160 C 21.004 6.740,20.995 6.595,20.925 6.256 C 20.718 5.258,20.200 4.417,19.438 3.843 C 18.599 3.211,17.653 2.937,16.620 3.027 M17.523 5.073 C 18.022 5.203,18.516 5.599,18.772 6.071 C 18.931 6.365,19.012 6.790,18.980 7.160 C 18.861 8.524,18.445 9.749,17.728 10.840 C 16.761 12.313,15.558 13.298,13.916 13.962 C 13.140 14.275,13.050 14.403,12.962 15.305 C 12.888 16.069,12.681 16.696,12.276 17.380 C 12.081 17.708,11.733 18.163,11.658 18.188 C 11.634 18.195,11.583 18.098,11.543 17.971 C 11.503 17.844,11.382 17.542,11.273 17.300 C 11.164 17.058,11.055 16.806,11.032 16.740 C 10.972 16.572,10.401 15.730,10.056 15.300 C 9.697 14.852,9.009 14.178,8.560 13.834 C 8.240 13.588,7.620 13.160,7.427 13.051 C 7.248 12.950,6.251 12.527,6.029 12.457 C 5.902 12.417,5.805 12.366,5.812 12.342 C 5.838 12.263,6.300 11.914,6.660 11.702 C 7.330 11.308,8.055 11.076,8.800 11.020 C 9.559 10.962,9.757 10.818,10.018 10.139 C 10.436 9.048,11.045 8.116,11.865 7.312 C 13.008 6.191,14.358 5.462,15.840 5.163 C 16.666 4.996,17.133 4.971,17.523 5.073 M14.477 7.073 C 13.806 7.249,13.238 7.823,13.060 8.508 C 12.941 8.962,13.003 9.492,13.225 9.930 C 13.361 10.199,13.801 10.639,14.070 10.775 C 14.659 11.073,15.341 11.073,15.930 10.775 C 16.196 10.640,16.638 10.200,16.771 9.937 C 16.994 9.498,17.052 9.007,16.940 8.529 C 16.858 8.182,16.720 7.927,16.465 7.653 C 16.074 7.232,15.560 7.005,15.000 7.005 C 14.857 7.005,14.622 7.036,14.477 7.073 M7.397 15.462 C 7.576 15.607,7.847 15.849,7.999 16.001 C 8.309 16.311,8.800 16.906,8.800 16.970 C 8.800 17.119,8.151 17.782,7.669 18.125 C 6.979 18.616,5.791 19.040,5.104 19.040 L 4.949 19.040 4.977 18.731 C 5.090 17.482,5.762 16.202,6.718 15.413 C 6.860 15.296,6.997 15.200,7.024 15.200 C 7.050 15.200,7.218 15.318,7.397 15.462 " stroke="none" fill="black" fill-rule="evenodd"></path></svg>