<svg xmlns="http://www.w3.org/2000/svg" width="24" height="24" viewBox="0 0 24 24" fill="none" stroke="currentColor" stroke-width="2" stroke-linecap="round" stroke-linejoin="round" class="icon icon-tabler icons-tabler-outline icon-tabler-baseline"><path d="M11.400 3.044 C 9.761 3.229,8.261 4.290,7.526 5.785 C 7.347 6.149,7.196 6.573,7.095 7.000 C 7.029 7.276,7.023 7.649,7.011 11.751 C 7.002 14.712,7.011 16.254,7.039 16.355 C 7.144 16.747,7.433 16.961,7.896 16.991 C 8.381 17.022,8.699 16.882,8.880 16.558 L 8.980 16.380 8.991 13.690 L 9.003 11.000 12.001 11.000 L 15.000 11.000 15.000 13.610 C 15.000 15.235,15.016 16.275,15.041 16.365 C 15.148 16.750,15.437 16.962,15.896 16.991 C 16.381 17.022,16.699 16.882,16.880 16.558 L 16.980 16.380 16.980 11.880 C 16.980 7.680,16.975 7.357,16.907 7.040 C 16.576 5.491,15.600 4.219,14.213 3.525 C 13.352 3.095,12.397 2.932,11.400 3.044 M12.861 5.129 C 13.804 5.405,14.587 6.186,14.874 7.139 C 14.957 7.416,14.973 7.567,14.990 8.230 L 15.009 9.000 12.000 9.000 L 8.991 9.000 9.010 8.230 C 9.027 7.567,9.043 7.416,9.126 7.139 C 9.452 6.057,10.370 5.245,11.499 5.040 C 11.832 4.980,12.500 5.023,12.861 5.129 M3.614 19.057 C 3.377 19.131,3.212 19.261,3.109 19.453 C 3.035 19.592,3.020 19.684,3.020 20.000 C 3.020 20.331,3.033 20.403,3.120 20.558 C 3.230 20.755,3.414 20.898,3.635 20.959 C 3.835 21.015,20.165 21.015,20.365 20.959 C 20.586 20.898,20.770 20.755,20.880 20.558 C 20.967 20.402,20.980 20.332,20.979 20.000 C 20.978 19.567,20.898 19.355,20.678 19.199 C 20.386 18.990,20.799 19.000,11.984 19.003 C 5.367 19.005,3.748 19.015,3.614 19.057 " stroke="none" fill="black" fill-rule="evenodd"></path></svg>