<svg xmlns="http://www.w3.org/2000/svg" width="24" height="24" viewBox="0 0 24 24" fill="none" stroke="currentColor" stroke-width="2" stroke-linecap="round" stroke-linejoin="round" class="icon icon-tabler icons-tabler-outline icon-tabler-dice-6"><path d="M4.499 2.043 C 3.380 2.232,2.461 3.048,2.114 4.160 L 2.020 4.460 2.020 12.000 L 2.020 19.540 2.114 19.840 C 2.422 20.827,3.173 21.578,4.160 21.886 L 4.460 21.980 12.000 21.980 L 19.540 21.980 19.840 21.886 C 20.827 21.578,21.578 20.827,21.886 19.840 L 21.980 19.540 21.980 12.000 L 21.980 4.460 21.886 4.160 C 21.581 3.182,20.832 2.428,19.861 2.121 L 19.540 2.020 12.120 2.014 C 8.039 2.011,4.609 2.024,4.499 2.043 M19.310 4.061 C 19.589 4.144,19.856 4.411,19.939 4.690 C 19.993 4.870,20.000 5.755,20.000 12.001 C 20.000 17.907,19.991 19.138,19.945 19.290 C 19.872 19.533,19.707 19.740,19.484 19.872 L 19.300 19.980 12.000 19.980 L 4.700 19.980 4.516 19.872 C 4.415 19.813,4.284 19.700,4.225 19.623 C 3.986 19.309,4.000 19.795,4.000 12.022 C 4.000 5.758,4.007 4.870,4.061 4.690 C 4.140 4.421,4.412 4.143,4.673 4.063 C 4.964 3.974,19.009 3.971,19.310 4.061 M8.174 6.039 C 7.750 6.129,7.329 6.477,7.132 6.900 C 7.035 7.107,7.020 7.190,7.020 7.500 C 7.020 7.811,7.035 7.894,7.133 8.104 C 7.276 8.413,7.585 8.721,7.900 8.868 C 8.107 8.965,8.190 8.980,8.500 8.980 C 8.810 8.980,8.893 8.965,9.100 8.868 C 9.415 8.721,9.724 8.413,9.867 8.104 C 9.965 7.894,9.980 7.811,9.980 7.500 C 9.980 7.189,9.965 7.106,9.867 6.896 C 9.727 6.592,9.415 6.278,9.119 6.143 C 8.870 6.030,8.441 5.982,8.174 6.039 M15.174 6.039 C 14.750 6.129,14.329 6.477,14.132 6.900 C 14.035 7.107,14.020 7.190,14.020 7.500 C 14.020 7.811,14.035 7.894,14.133 8.104 C 14.276 8.413,14.585 8.721,14.900 8.868 C 15.107 8.965,15.190 8.980,15.500 8.980 C 15.810 8.980,15.893 8.965,16.100 8.868 C 16.415 8.721,16.724 8.413,16.867 8.104 C 16.965 7.894,16.980 7.811,16.980 7.500 C 16.980 7.189,16.965 7.106,16.867 6.896 C 16.727 6.592,16.415 6.278,16.119 6.143 C 15.870 6.030,15.441 5.982,15.174 6.039 M7.949 10.617 C 6.674 11.141,6.699 12.917,7.987 13.399 C 8.618 13.635,9.378 13.384,9.754 12.817 C 9.923 12.561,9.978 12.361,9.978 12.000 C 9.978 11.639,9.923 11.439,9.754 11.183 C 9.371 10.605,8.581 10.357,7.949 10.617 M14.949 10.617 C 13.674 11.141,13.699 12.917,14.987 13.399 C 15.618 13.635,16.378 13.384,16.754 12.817 C 16.923 12.561,16.978 12.361,16.978 12.000 C 16.978 11.639,16.923 11.439,16.754 11.183 C 16.371 10.605,15.581 10.357,14.949 10.617 M8.174 15.039 C 7.750 15.129,7.329 15.477,7.132 15.900 C 7.035 16.107,7.020 16.190,7.020 16.500 C 7.020 16.811,7.035 16.894,7.133 17.104 C 7.276 17.413,7.585 17.721,7.900 17.868 C 8.107 17.965,8.190 17.980,8.500 17.980 C 8.810 17.980,8.893 17.965,9.100 17.868 C 9.415 17.721,9.724 17.413,9.867 17.104 C 9.965 16.894,9.980 16.811,9.980 16.500 C 9.980 16.189,9.965 16.106,9.867 15.896 C 9.727 15.592,9.415 15.278,9.119 15.143 C 8.870 15.030,8.441 14.982,8.174 15.039 M15.174 15.039 C 14.750 15.129,14.329 15.477,14.132 15.900 C 14.035 16.107,14.020 16.190,14.020 16.500 C 14.020 16.811,14.035 16.894,14.133 17.104 C 14.276 17.413,14.585 17.721,14.900 17.868 C 15.107 17.965,15.190 17.980,15.500 17.980 C 15.810 17.980,15.893 17.965,16.100 17.868 C 16.415 17.721,16.724 17.413,16.867 17.104 C 16.965 16.894,16.980 16.811,16.980 16.500 C 16.980 16.189,16.965 16.106,16.867 15.896 C 16.727 15.592,16.415 15.278,16.119 15.143 C 15.870 15.030,15.441 14.982,15.174 15.039 " stroke="none" fill="black" fill-rule="evenodd"></path></svg>