<svg xmlns="http://www.w3.org/2000/svg" width="24" height="24" viewBox="0 0 24 24" fill="none" stroke="currentColor" stroke-width="2" stroke-linecap="round" stroke-linejoin="round" class="icon icon-tabler icons-tabler-outline icon-tabler-device-tv"><path d="M7.626 2.045 C 7.257 2.239,6.951 2.673,6.951 3.000 C 6.951 3.333,7.056 3.467,8.351 4.768 L 9.573 5.996 7.017 6.009 L 4.460 6.022 4.139 6.122 C 3.171 6.425,2.419 7.181,2.114 8.160 L 2.020 8.460 2.020 13.500 L 2.020 18.540 2.114 18.840 C 2.422 19.827,3.173 20.578,4.160 20.886 L 4.460 20.980 12.000 20.980 L 19.540 20.980 19.840 20.886 C 20.827 20.578,21.578 19.827,21.886 18.840 L 21.980 18.540 21.980 13.500 L 21.980 8.460 21.886 8.160 C 21.581 7.181,20.829 6.425,19.861 6.122 L 19.540 6.022 16.983 6.009 L 14.427 5.996 15.649 4.768 C 16.452 3.961,16.901 3.479,16.960 3.363 C 17.137 3.011,17.048 2.646,16.701 2.299 C 16.361 1.959,15.980 1.868,15.628 2.044 C 15.519 2.099,14.853 2.734,13.730 3.853 L 12.000 5.578 10.270 3.853 C 9.147 2.734,8.481 2.099,8.372 2.044 C 8.152 1.934,7.835 1.935,7.626 2.045 M12.000 8.031 C 12.033 8.031,13.642 8.023,15.576 8.014 C 19.571 7.996,19.376 7.982,19.696 8.303 C 20.019 8.625,20.000 8.300,20.000 13.501 C 20.000 18.501,20.008 18.318,19.779 18.618 C 19.718 18.698,19.585 18.813,19.484 18.872 L 19.300 18.980 12.000 18.980 L 4.700 18.980 4.516 18.872 C 4.415 18.813,4.284 18.700,4.225 18.623 C 3.989 18.314,4.000 18.562,4.000 13.522 C 4.000 8.298,3.981 8.625,4.304 8.303 C 4.618 7.988,4.406 8.003,8.400 8.018 C 10.347 8.025,11.967 8.031,12.000 8.031 " stroke="none" fill="black" fill-rule="evenodd"></path></svg>