<svg xmlns="http://www.w3.org/2000/svg" width="24" height="24" viewBox="0 0 24 24" fill="none" stroke="currentColor" stroke-width="2" stroke-linecap="round" stroke-linejoin="round" class="icon icon-tabler icons-tabler-outline icon-tabler-player-track-next"><path d="M2.682 4.004 C 2.512 4.072,2.244 4.318,2.130 4.512 L 2.020 4.700 2.010 11.954 C 2.003 16.738,2.013 19.259,2.039 19.358 C 2.100 19.584,2.243 19.769,2.442 19.880 C 2.593 19.965,2.671 19.980,2.960 19.980 C 3.211 19.979,3.335 19.961,3.433 19.907 C 3.586 19.824,11.490 12.929,11.756 12.647 C 11.853 12.544,11.958 12.397,11.991 12.320 C 12.115 12.024,12.023 11.645,11.755 11.352 C 11.470 11.039,3.517 4.126,3.349 4.045 C 3.163 3.954,2.854 3.935,2.682 4.004 M13.682 4.004 C 13.512 4.072,13.244 4.318,13.130 4.512 L 13.020 4.700 13.010 11.954 C 13.003 16.738,13.013 19.259,13.039 19.358 C 13.100 19.584,13.243 19.769,13.442 19.880 C 13.593 19.965,13.671 19.980,13.960 19.980 C 14.211 19.979,14.335 19.961,14.433 19.907 C 14.586 19.824,22.490 12.929,22.756 12.647 C 22.853 12.544,22.958 12.397,22.991 12.320 C 23.115 12.024,23.023 11.645,22.755 11.352 C 22.470 11.039,14.517 4.126,14.349 4.045 C 14.163 3.954,13.854 3.935,13.682 4.004 M6.740 9.603 C 8.225 10.902,9.440 11.981,9.440 12.000 C 9.440 12.034,4.059 16.760,4.020 16.760 C 4.009 16.760,4.000 14.618,4.000 12.000 C 4.000 9.382,4.009 7.240,4.020 7.240 C 4.032 7.240,5.256 8.303,6.740 9.603 M17.740 9.603 C 19.225 10.902,20.440 11.981,20.440 12.000 C 20.440 12.034,15.059 16.760,15.020 16.760 C 15.009 16.760,15.000 14.618,15.000 12.000 C 15.000 9.382,15.009 7.240,15.020 7.240 C 15.032 7.240,16.256 8.303,17.740 9.603 " stroke="none" fill="black" fill-rule="evenodd"></path></svg>