<svg xmlns="http://www.w3.org/2000/svg" width="24" height="24" viewBox="0 0 24 24" fill="none" stroke="currentColor" stroke-width="2" stroke-linecap="round" stroke-linejoin="round" class="icon icon-tabler icons-tabler-outline icon-tabler-crop-16-9"><path d="M5.499 7.043 C 4.380 7.233,3.461 8.048,3.114 9.160 L 3.020 9.460 3.020 12.000 L 3.020 14.540 3.114 14.840 C 3.422 15.827,4.173 16.578,5.160 16.886 L 5.460 16.980 12.000 16.980 L 18.540 16.980 18.840 16.886 C 19.827 16.578,20.578 15.827,20.886 14.840 L 20.980 14.540 20.980 12.000 L 20.980 9.460 20.886 9.160 C 20.581 8.182,19.832 7.428,18.861 7.121 L 18.540 7.020 12.120 7.014 C 8.589 7.011,5.609 7.024,5.499 7.043 M18.310 9.061 C 18.589 9.144,18.856 9.411,18.939 9.690 C 19.025 9.978,19.030 14.007,18.945 14.290 C 18.872 14.533,18.707 14.740,18.484 14.872 L 18.300 14.980 12.000 14.980 L 5.700 14.980 5.516 14.872 C 5.293 14.740,5.128 14.533,5.055 14.290 C 4.970 14.007,4.975 9.978,5.061 9.690 C 5.140 9.421,5.412 9.143,5.673 9.063 C 5.963 8.974,18.010 8.972,18.310 9.061 " stroke="none" fill="black" fill-rule="evenodd"></path></svg>