<svg xmlns="http://www.w3.org/2000/svg" width="24" height="24" viewBox="0 0 24 24" fill="none" stroke="currentColor" stroke-width="2" stroke-linecap="round" stroke-linejoin="round" class="icon icon-tabler icons-tabler-outline icon-tabler-circle-number-3"><path d="M11.080 2.045 C 9.507 2.184,7.883 2.751,6.540 3.630 C 5.905 4.045,5.499 4.378,4.919 4.958 C 2.953 6.926,1.919 9.544,2.013 12.320 C 2.084 14.439,2.752 16.328,4.033 18.040 C 4.430 18.570,5.305 19.464,5.800 19.847 C 7.242 20.961,8.787 21.624,10.600 21.907 C 11.247 22.008,12.753 22.008,13.400 21.907 C 15.638 21.557,17.504 20.620,19.062 19.062 C 20.620 17.504,21.557 15.638,21.907 13.400 C 22.008 12.753,22.008 11.247,21.907 10.600 C 21.624 8.786,20.959 7.238,19.847 5.800 C 19.510 5.365,18.639 4.494,18.200 4.154 C 16.133 2.555,13.646 1.818,11.080 2.045 M12.734 4.041 C 14.574 4.216,16.228 4.976,17.554 6.256 C 20.043 8.658,20.702 12.394,19.183 15.499 C 18.749 16.387,18.223 17.105,17.496 17.801 C 16.876 18.394,16.262 18.819,15.471 19.200 C 13.267 20.265,10.733 20.265,8.529 19.200 C 7.477 18.693,6.612 18.015,5.847 17.100 C 3.848 14.711,3.440 11.302,4.816 8.500 C 6.162 5.760,8.867 4.049,11.920 4.005 C 12.129 4.003,12.495 4.019,12.734 4.041 M10.477 7.073 C 10.130 7.164,9.802 7.366,9.535 7.653 C 9.183 8.032,9.000 8.486,9.000 8.978 C 9.001 9.620,9.295 9.953,9.896 9.991 C 10.533 10.031,10.915 9.757,10.983 9.210 L 11.009 9.000 12.005 9.000 L 13.000 9.000 13.000 10.000 L 13.000 11.000 11.906 11.000 C 10.744 11.000,10.570 11.022,10.322 11.199 C 10.100 11.357,10.020 11.568,10.020 12.000 C 10.020 12.331,10.033 12.403,10.120 12.558 C 10.230 12.755,10.414 12.898,10.635 12.959 C 10.716 12.982,11.270 13.000,11.890 13.000 L 13.000 13.000 13.000 14.000 L 13.000 15.000 12.005 15.000 L 11.009 15.000 10.983 14.790 C 10.946 14.496,10.816 14.286,10.583 14.141 C 10.399 14.028,10.360 14.020,10.000 14.020 C 9.639 14.020,9.601 14.028,9.417 14.142 C 9.151 14.306,9.033 14.524,9.009 14.897 C 8.972 15.477,9.163 15.971,9.591 16.399 C 9.739 16.547,9.955 16.716,10.070 16.775 C 10.479 16.982,10.632 17.000,12.000 17.000 C 13.368 17.000,13.521 16.982,13.930 16.775 C 14.196 16.640,14.638 16.200,14.771 15.937 C 14.989 15.508,15.006 15.349,14.992 13.905 C 14.980 12.624,14.976 12.572,14.885 12.340 C 14.768 12.040,14.768 11.959,14.885 11.660 C 14.977 11.428,14.980 11.378,14.992 10.115 C 15.005 8.695,14.983 8.480,14.782 8.083 C 14.551 7.628,14.022 7.203,13.523 7.073 C 13.134 6.972,10.866 6.972,10.477 7.073 " stroke="none" fill="black" fill-rule="evenodd"></path></svg>