<svg xmlns="http://www.w3.org/2000/svg" width="24" height="24" viewBox="0 0 24 24" fill="none" stroke="currentColor" stroke-width="2" stroke-linecap="round" stroke-linejoin="round" class="icon icon-tabler icons-tabler-outline icon-tabler-brand-youtube-kids"><path d="M16.287 3.044 C 15.928 3.093,4.656 5.449,4.247 5.561 C 2.692 5.987,1.351 7.306,0.904 8.848 C 0.715 9.501,0.667 10.284,0.778 10.900 C 0.889 11.522,2.200 17.225,2.318 17.600 C 2.666 18.711,3.432 19.672,4.462 20.291 C 4.753 20.465,4.991 20.572,5.429 20.722 C 6.026 20.926,6.359 20.977,7.080 20.976 C 7.920 20.975,8.123 20.929,9.540 20.420 C 12.027 19.525,12.529 19.368,13.420 19.204 C 14.113 19.076,14.373 19.051,16.540 18.902 C 17.662 18.824,18.733 18.742,18.920 18.718 C 21.428 18.404,23.280 16.382,23.280 13.960 C 23.280 13.405,23.269 13.350,22.521 10.060 C 21.728 6.570,21.678 6.369,21.489 5.930 C 20.978 4.746,19.908 3.759,18.640 3.302 C 17.963 3.058,16.982 2.950,16.287 3.044 M17.780 5.122 C 18.738 5.421,19.452 6.079,19.732 6.920 C 19.765 7.019,20.122 8.540,20.526 10.300 L 21.260 13.500 21.259 13.980 C 21.259 14.374,21.243 14.510,21.167 14.740 C 20.883 15.597,20.181 16.297,19.303 16.599 C 18.963 16.716,18.639 16.750,16.460 16.901 C 13.828 17.082,13.229 17.157,12.120 17.445 C 11.482 17.611,11.119 17.731,9.400 18.349 C 8.575 18.645,7.756 18.915,7.580 18.949 C 6.921 19.075,6.079 18.923,5.486 18.571 C 4.932 18.243,4.474 17.695,4.267 17.116 C 4.209 16.953,3.843 15.425,3.455 13.720 C 2.680 10.320,2.652 10.149,2.777 9.589 C 2.998 8.593,3.811 7.750,4.808 7.482 C 5.047 7.418,15.392 5.242,16.340 5.056 C 16.737 4.979,17.421 5.010,17.780 5.122 M8.487 9.086 C 8.219 9.218,8.000 9.625,8.000 9.989 C 8.000 10.191,9.259 15.362,9.352 15.544 C 9.517 15.864,9.750 16.006,10.111 16.006 C 10.432 16.006,10.690 15.901,10.950 15.667 C 11.721 14.970,15.252 11.658,15.350 11.539 C 15.478 11.385,15.561 11.161,15.559 10.975 C 15.557 10.699,15.258 10.275,14.953 10.117 C 14.776 10.026,9.192 9.000,8.871 9.000 C 8.736 9.000,8.598 9.031,8.487 9.086 M11.370 11.449 C 11.893 11.543,12.320 11.630,12.320 11.642 C 12.320 11.674,10.798 13.092,10.783 13.074 C 10.765 13.055,10.360 11.375,10.360 11.322 C 10.360 11.265,10.307 11.258,11.370 11.449 " stroke="none" fill="black" fill-rule="evenodd"></path></svg>