<svg xmlns="http://www.w3.org/2000/svg" width="24" height="24" viewBox="0 0 24 24" fill="none" stroke="currentColor" stroke-width="2" stroke-linecap="round" stroke-linejoin="round" class="icon icon-tabler icons-tabler-outline icon-tabler-shredder"><path d="M8.499 3.042 C 7.387 3.233,6.482 4.030,6.116 5.140 C 6.026 5.413,6.023 5.467,6.009 7.210 L 5.995 9.000 5.367 9.002 C 4.639 9.005,4.342 9.065,3.983 9.281 C 3.703 9.449,3.354 9.816,3.219 10.083 C 3.009 10.496,3.000 10.599,3.000 12.500 C 3.000 14.411,3.009 14.503,3.225 14.930 C 3.361 15.199,3.801 15.639,4.070 15.775 C 4.472 15.979,4.642 16.000,5.868 16.000 L 7.000 16.000 7.000 17.110 C 7.000 17.730,7.018 18.284,7.041 18.365 C 7.148 18.750,7.437 18.962,7.896 18.991 C 8.381 19.022,8.699 18.882,8.880 18.558 C 8.979 18.381,8.980 18.374,8.993 17.190 L 9.005 16.000 10.003 16.000 L 11.000 16.000 11.000 18.110 C 11.000 19.400,11.016 20.276,11.041 20.365 C 11.148 20.750,11.437 20.962,11.896 20.991 C 12.381 21.022,12.699 20.882,12.880 20.558 L 12.980 20.380 12.992 18.190 L 13.003 16.000 14.002 16.000 L 15.000 16.000 15.000 16.610 C 15.000 16.945,15.019 17.285,15.041 17.365 C 15.148 17.750,15.437 17.962,15.896 17.991 C 16.381 18.022,16.699 17.882,16.880 17.558 C 16.974 17.391,16.981 17.338,16.994 16.690 L 17.008 16.000 18.136 16.000 C 19.357 16.000,19.528 15.979,19.930 15.775 C 20.196 15.640,20.638 15.200,20.771 14.937 C 20.990 14.506,21.000 14.396,20.999 12.514 C 20.999 10.642,20.985 10.484,20.781 10.083 C 20.646 9.816,20.297 9.449,20.017 9.281 C 19.658 9.065,19.361 9.005,18.633 9.002 L 18.005 9.000 17.991 7.210 C 17.977 5.467,17.974 5.413,17.884 5.140 C 17.562 4.163,16.820 3.424,15.861 3.122 L 15.540 3.021 12.120 3.014 C 10.239 3.011,8.609 3.023,8.499 3.042 M15.310 5.061 C 15.452 5.103,15.571 5.178,15.697 5.303 C 15.993 5.599,16.000 5.650,16.000 7.447 L 16.000 9.000 12.000 9.000 L 8.000 9.000 8.000 7.447 C 8.000 5.649,8.007 5.599,8.304 5.303 C 8.613 4.993,8.459 5.006,11.983 5.003 C 14.668 5.000,15.134 5.009,15.310 5.061 M19.000 12.500 L 19.000 14.000 12.000 14.000 L 5.000 14.000 5.000 12.500 L 5.000 11.000 12.000 11.000 L 19.000 11.000 19.000 12.500 " stroke="none" fill="black" fill-rule="evenodd"></path></svg>