<svg xmlns="http://www.w3.org/2000/svg" width="24" height="24" viewBox="0 0 24 24" fill="none" stroke="currentColor" stroke-width="2" stroke-linecap="round" stroke-linejoin="round" class="icon icon-tabler icons-tabler-outline icon-tabler-gizmo"><path d="M11.477 2.073 C 10.806 2.249,10.238 2.823,10.060 3.508 C 9.943 3.956,10.003 4.492,10.218 4.915 C 10.330 5.138,10.651 5.503,10.858 5.644 L 10.999 5.740 10.999 9.360 L 10.998 12.980 7.937 15.083 L 4.875 17.186 4.648 17.109 C 3.552 16.739,2.351 17.388,2.060 18.508 C 1.941 18.962,2.003 19.492,2.225 19.930 C 2.361 20.199,2.801 20.639,3.070 20.775 C 3.659 21.073,4.341 21.073,4.930 20.775 C 5.045 20.716,5.259 20.550,5.404 20.404 C 5.789 20.020,5.948 19.670,5.996 19.103 L 6.020 18.826 9.010 16.771 L 12.000 14.715 14.990 16.771 L 17.980 18.826 18.007 19.143 C 18.128 20.588,19.637 21.430,20.930 20.775 C 21.196 20.640,21.638 20.200,21.771 19.937 C 22.065 19.358,22.068 18.649,21.781 18.083 C 21.641 17.806,21.293 17.446,20.998 17.271 C 20.525 16.992,19.885 16.929,19.352 17.109 L 19.125 17.186 16.063 15.083 L 13.002 12.980 13.001 9.360 L 13.001 5.740 13.142 5.644 C 13.347 5.504,13.669 5.139,13.779 4.922 C 13.993 4.499,14.051 4.001,13.940 3.529 C 13.858 3.182,13.720 2.927,13.465 2.653 C 13.074 2.232,12.560 2.005,12.000 2.005 C 11.857 2.005,11.622 2.036,11.477 2.073 " stroke="none" fill="black" fill-rule="evenodd"></path></svg>