<svg xmlns="http://www.w3.org/2000/svg" width="24" height="24" viewBox="0 0 24 24" fill="none" stroke="currentColor" stroke-width="2" stroke-linecap="round" stroke-linejoin="round" class="icon icon-tabler icons-tabler-outline icon-tabler-building-community"><path d="M9.477 2.073 C 8.806 2.249,8.238 2.823,8.060 3.508 C 8.010 3.697,8.000 4.106,8.000 5.848 L 8.000 7.960 7.898 7.960 C 7.843 7.960,7.721 7.998,7.628 8.044 C 7.415 8.151,2.282 13.259,2.127 13.520 L 2.020 13.700 2.020 17.540 L 2.020 21.380 2.120 21.558 C 2.230 21.755,2.414 21.898,2.635 21.959 C 2.835 22.015,21.165 22.015,21.365 21.959 C 21.586 21.898,21.770 21.755,21.880 21.558 L 21.980 21.380 21.990 12.588 C 22.002 3.011,22.013 3.541,21.782 3.083 C 21.646 2.816,21.297 2.449,21.017 2.281 C 20.533 1.989,20.867 2.005,15.000 2.005 C 10.157 2.005,9.719 2.010,9.477 2.073 M20.000 12.000 L 20.000 20.000 17.001 20.000 L 14.002 20.000 13.991 16.850 L 13.980 13.700 13.873 13.520 C 13.813 13.421,12.918 12.494,11.883 11.460 L 10.000 9.580 10.000 6.790 L 10.000 4.000 15.000 4.000 L 20.000 4.000 20.000 12.000 M12.614 6.057 C 12.221 6.180,12.039 6.435,12.009 6.906 C 11.962 7.621,12.306 8.000,13.000 8.000 C 13.698 8.000,14.043 7.616,13.989 6.900 C 13.963 6.563,13.859 6.327,13.678 6.199 C 13.414 6.010,12.957 5.950,12.614 6.057 M16.614 6.057 C 16.221 6.180,16.039 6.435,16.009 6.906 C 15.962 7.621,16.306 8.000,17.000 8.000 C 17.698 8.000,18.043 7.616,17.989 6.900 C 17.963 6.563,17.859 6.327,17.678 6.199 C 17.414 6.010,16.957 5.950,16.614 6.057 M16.614 10.057 C 16.221 10.180,16.039 10.435,16.009 10.906 C 15.962 11.621,16.306 12.000,17.000 12.000 C 17.698 12.000,18.043 11.616,17.989 10.900 C 17.963 10.563,17.859 10.327,17.678 10.199 C 17.414 10.010,16.957 9.950,16.614 10.057 M8.139 10.599 C 8.195 10.686,8.289 10.788,8.350 10.826 C 8.410 10.863,9.257 11.687,10.230 12.656 L 12.000 14.420 12.000 17.210 L 12.000 20.000 10.502 20.000 L 9.004 20.000 8.992 18.310 C 8.980 16.641,8.979 16.618,8.889 16.450 C 8.724 16.140,8.329 15.970,7.874 16.011 C 7.439 16.051,7.141 16.274,7.041 16.635 C 7.017 16.721,7.000 17.435,7.000 18.390 L 7.000 20.000 5.500 20.000 L 4.000 20.000 4.000 17.210 L 4.000 14.420 5.990 12.430 C 7.084 11.336,7.993 10.440,8.009 10.440 C 8.026 10.440,8.084 10.512,8.139 10.599 M16.614 14.057 C 16.221 14.180,16.039 14.435,16.009 14.906 C 15.962 15.621,16.306 16.000,17.000 16.000 C 17.698 16.000,18.043 15.616,17.989 14.900 C 17.963 14.563,17.859 14.327,17.678 14.199 C 17.414 14.010,16.957 13.950,16.614 14.057 " stroke="none" fill="black" fill-rule="evenodd"></path></svg>