<svg xmlns="http://www.w3.org/2000/svg" width="24" height="24" viewBox="0 0 24 24" fill="none" stroke="currentColor" stroke-width="2" stroke-linecap="round" stroke-linejoin="round" class="icon icon-tabler icons-tabler-outline icon-tabler-pointer-share"><path d="M3.497 3.075 C 3.223 3.242,3.000 3.661,3.000 4.006 C 3.000 4.217,6.978 18.009,7.128 18.318 C 7.208 18.483,7.348 18.670,7.519 18.842 C 8.372 19.695,9.745 19.716,10.590 18.889 C 10.696 18.785,11.140 18.169,11.577 17.520 C 12.014 16.871,12.375 16.335,12.380 16.329 C 12.384 16.324,12.453 16.346,12.533 16.379 C 12.843 16.509,13.201 16.410,13.513 16.108 C 13.862 15.770,13.960 15.401,13.798 15.042 C 13.680 14.783,12.896 14.002,12.608 13.856 C 12.344 13.722,12.022 13.705,11.812 13.813 C 11.609 13.919,11.426 14.164,10.281 15.859 C 9.688 16.738,9.166 17.471,9.123 17.487 C 9.071 17.506,9.017 17.492,8.966 17.448 C 8.908 17.398,8.439 15.819,7.182 11.445 C 6.244 8.181,5.484 5.503,5.494 5.493 C 5.509 5.478,16.768 8.696,17.288 8.864 C 17.481 8.927,17.548 9.016,17.501 9.150 C 17.488 9.189,16.745 9.706,15.850 10.300 C 14.955 10.894,14.145 11.457,14.049 11.552 C 13.717 11.878,13.641 12.225,13.820 12.585 C 13.942 12.831,15.060 13.946,15.300 14.062 C 15.667 14.239,16.054 14.119,16.416 13.716 C 16.762 13.331,16.788 12.984,16.499 12.564 L 16.359 12.361 17.550 11.567 C 18.866 10.689,19.050 10.527,19.288 10.035 C 19.597 9.398,19.601 8.791,19.302 8.138 C 19.085 7.665,18.561 7.181,18.091 7.019 C 18.008 6.991,14.835 6.075,11.040 4.984 C 3.576 2.838,3.795 2.893,3.497 3.075 M18.460 15.999 C 15.916 16.022,15.992 16.015,15.752 16.267 C 15.584 16.443,15.513 16.658,15.512 16.997 C 15.510 17.348,15.582 17.556,15.771 17.751 C 15.988 17.976,16.151 18.000,17.436 18.000 L 18.578 18.000 16.853 19.730 C 15.679 20.908,15.100 21.517,15.040 21.637 C 14.863 21.989,14.952 22.354,15.299 22.701 C 15.646 23.048,16.011 23.137,16.363 22.960 C 16.483 22.900,17.092 22.321,18.270 21.147 L 20.000 19.422 20.000 20.564 C 20.000 21.849,20.024 22.012,20.249 22.229 C 20.442 22.416,20.647 22.487,20.997 22.488 C 21.336 22.490,21.552 22.419,21.735 22.248 C 21.985 22.013,21.977 22.088,22.007 19.460 C 22.022 18.140,22.036 17.001,22.037 16.929 C 22.041 16.740,21.834 16.310,21.690 16.207 C 21.467 16.048,21.205 15.959,20.987 15.969 C 20.873 15.974,19.736 15.987,18.460 15.999 " stroke="none" fill="black" fill-rule="evenodd"></path></svg>