<svg xmlns="http://www.w3.org/2000/svg" width="24" height="24" viewBox="0 0 24 24" fill="none" stroke="currentColor" stroke-width="2" stroke-linecap="round" stroke-linejoin="round" class="icon icon-tabler icons-tabler-outline icon-tabler-nut"><path d="M11.460 2.057 C 11.145 2.120,10.934 2.191,10.676 2.322 C 10.508 2.407,5.675 5.283,4.649 5.908 C 3.911 6.358,3.493 6.812,3.234 7.448 C 2.993 8.039,2.997 7.952,3.010 11.981 C 3.023 16.122,3.000 15.813,3.340 16.505 C 3.555 16.944,3.944 17.383,4.360 17.657 C 5.790 18.599,10.522 21.601,10.740 21.705 C 11.182 21.915,11.478 21.979,12.000 21.979 C 12.522 21.979,12.818 21.915,13.260 21.705 C 13.414 21.632,14.935 20.681,16.640 19.591 C 19.513 17.755,19.767 17.584,20.103 17.255 C 20.415 16.951,20.493 16.846,20.653 16.520 C 21.001 15.810,20.977 16.130,20.990 11.981 C 21.000 8.811,20.994 8.261,20.941 8.007 C 20.789 7.271,20.387 6.628,19.791 6.168 C 19.517 5.957,13.575 2.412,13.259 2.271 C 13.127 2.212,12.911 2.135,12.779 2.100 C 12.441 2.010,11.801 1.990,11.460 2.057 M12.351 4.057 C 12.515 4.115,17.845 7.277,18.402 7.647 C 18.568 7.757,18.745 7.908,18.796 7.982 C 19.002 8.283,18.996 8.180,18.998 11.840 C 18.999 13.960,18.985 15.314,18.960 15.401 C 18.939 15.479,18.869 15.623,18.806 15.721 C 18.703 15.881,18.358 16.113,15.598 17.880 C 13.897 18.969,12.432 19.890,12.343 19.928 C 12.253 19.965,12.099 19.996,12.000 19.996 C 11.901 19.996,11.747 19.965,11.657 19.928 C 11.568 19.890,10.103 18.969,8.402 17.880 C 5.642 16.113,5.297 15.881,5.194 15.721 C 5.131 15.623,5.061 15.479,5.040 15.401 C 4.985 15.203,4.987 8.509,5.042 8.311 C 5.145 7.938,5.137 7.943,8.342 6.027 C 9.991 5.040,11.448 4.181,11.580 4.117 C 11.851 3.985,12.094 3.966,12.351 4.057 M11.358 8.061 C 10.230 8.237,9.143 8.974,8.569 9.953 C 7.320 12.083,8.233 14.785,10.512 15.704 C 12.558 16.528,14.877 15.538,15.704 13.488 C 16.090 12.530,16.090 11.469,15.705 10.516 C 15.172 9.197,14.001 8.269,12.605 8.058 C 12.144 7.989,11.816 7.990,11.358 8.061 M12.523 10.073 C 13.262 10.266,13.850 10.924,13.967 11.690 C 14.067 12.343,13.873 12.933,13.403 13.404 C 13.002 13.807,12.547 14.000,12.000 14.000 C 11.485 14.000,11.038 13.822,10.653 13.465 C 9.323 12.229,10.189 10.005,12.000 10.005 C 12.143 10.005,12.378 10.036,12.523 10.073 " stroke="none" fill="black" fill-rule="evenodd"></path></svg>