<svg xmlns="http://www.w3.org/2000/svg" width="24" height="24" viewBox="0 0 24 24" fill="none" stroke="currentColor" stroke-width="2" stroke-linecap="round" stroke-linejoin="round" class="icon icon-tabler icons-tabler-outline icon-tabler-device-ipad-horizontal-share"><path d="M4.499 3.043 C 3.380 3.232,2.461 4.048,2.114 5.160 L 2.020 5.460 2.020 12.000 L 2.020 18.540 2.114 18.840 C 2.418 19.816,3.149 20.554,4.140 20.886 L 4.420 20.980 8.520 20.993 C 11.508 21.002,12.678 20.993,12.833 20.959 C 13.261 20.866,13.486 20.537,13.486 20.003 C 13.486 19.656,13.418 19.446,13.248 19.267 C 12.999 19.006,13.273 19.022,8.780 19.000 L 4.700 18.980 4.516 18.872 C 4.415 18.813,4.284 18.700,4.225 18.623 C 3.987 18.311,4.000 18.701,4.000 12.022 C 4.000 5.123,3.977 5.629,4.303 5.303 C 4.631 4.976,4.009 5.000,12.000 5.000 C 19.991 5.000,19.369 4.976,19.697 5.303 C 20.015 5.621,20.000 5.411,20.000 9.557 C 20.000 11.888,20.015 13.273,20.041 13.365 C 20.148 13.750,20.437 13.962,20.896 13.991 C 21.381 14.022,21.699 13.882,21.880 13.558 L 21.980 13.380 21.980 9.420 L 21.980 5.460 21.886 5.160 C 21.581 4.182,20.832 3.428,19.861 3.121 L 19.540 3.020 12.120 3.014 C 8.039 3.011,4.609 3.024,4.499 3.043 M18.460 15.999 C 15.916 16.022,15.992 16.015,15.752 16.267 C 15.584 16.443,15.513 16.658,15.512 16.997 C 15.510 17.348,15.582 17.556,15.771 17.751 C 15.988 17.976,16.151 18.000,17.436 18.000 L 18.578 18.000 16.853 19.730 C 15.679 20.908,15.100 21.517,15.040 21.637 C 14.863 21.989,14.952 22.354,15.299 22.701 C 15.646 23.048,16.011 23.137,16.363 22.960 C 16.483 22.900,17.092 22.321,18.270 21.147 L 20.000 19.422 20.000 20.564 C 20.000 21.849,20.024 22.012,20.249 22.229 C 20.442 22.416,20.647 22.487,20.997 22.488 C 21.336 22.490,21.552 22.419,21.735 22.248 C 21.985 22.013,21.977 22.088,22.007 19.460 C 22.022 18.140,22.036 17.001,22.037 16.929 C 22.041 16.740,21.834 16.310,21.690 16.207 C 21.467 16.048,21.205 15.959,20.987 15.969 C 20.873 15.974,19.736 15.987,18.460 15.999 M8.614 16.057 C 8.377 16.131,8.212 16.261,8.109 16.453 C 8.035 16.592,8.020 16.684,8.020 17.000 C 8.020 17.331,8.033 17.403,8.120 17.558 C 8.230 17.755,8.414 17.898,8.635 17.959 C 8.722 17.983,9.470 18.000,10.500 18.000 C 11.530 18.000,12.278 17.983,12.365 17.959 C 12.586 17.898,12.770 17.755,12.880 17.558 C 12.967 17.402,12.980 17.332,12.979 17.000 C 12.978 16.687,12.962 16.591,12.890 16.453 C 12.786 16.256,12.623 16.131,12.371 16.055 C 12.114 15.978,8.862 15.980,8.614 16.057 " stroke="none" fill="black" fill-rule="evenodd"></path></svg>