<svg xmlns="http://www.w3.org/2000/svg" width="24" height="24" viewBox="0 0 24 24" fill="none" stroke="currentColor" stroke-width="2" stroke-linecap="round" stroke-linejoin="round" class="icon icon-tabler icons-tabler-outline icon-tabler-parentheses-off"><path d="M2.626 2.045 C 2.257 2.239,1.951 2.673,1.951 3.000 C 1.951 3.332,2.058 3.469,3.310 4.727 L 4.491 5.914 4.231 6.487 C 3.629 7.810,3.224 9.314,3.081 10.754 C 3.022 11.351,3.031 12.732,3.099 13.360 C 3.297 15.203,3.862 16.975,4.752 18.540 C 5.204 19.336,6.154 20.629,6.453 20.857 C 6.851 21.161,7.306 21.098,7.722 20.682 C 7.955 20.449,8.051 20.251,8.046 20.012 C 8.041 19.759,7.954 19.594,7.568 19.106 C 6.192 17.368,5.424 15.597,5.136 13.500 C 5.049 12.869,5.019 11.600,5.076 11.020 C 5.194 9.827,5.502 8.584,5.918 7.622 L 6.004 7.424 11.489 12.909 L 16.975 18.395 16.868 18.547 C 16.810 18.631,16.601 18.902,16.405 19.148 C 16.035 19.612,15.957 19.765,15.953 20.036 C 15.947 20.490,16.531 21.047,17.013 21.046 C 17.372 21.046,17.551 20.916,18.045 20.297 L 18.414 19.837 19.437 20.854 C 20.093 21.505,20.524 21.902,20.637 21.960 C 20.989 22.137,21.354 22.048,21.701 21.701 C 22.047 21.355,22.136 20.990,21.961 20.637 C 21.839 20.392,3.616 2.165,3.372 2.044 C 3.152 1.934,2.834 1.935,2.626 2.045 M16.652 3.041 C 16.235 3.253,15.947 3.641,15.953 3.981 C 15.959 4.243,16.044 4.404,16.444 4.905 C 17.501 6.229,18.242 7.705,18.617 9.233 C 18.897 10.375,18.980 11.154,18.948 12.340 C 18.920 13.349,18.833 13.950,18.561 15.014 C 18.427 15.539,18.422 15.593,18.482 15.811 C 18.582 16.169,18.994 16.435,19.502 16.470 C 19.834 16.493,20.051 16.407,20.213 16.190 C 20.367 15.984,20.389 15.924,20.556 15.274 C 20.851 14.124,20.960 13.249,20.964 11.999 C 20.973 8.933,19.931 6.011,17.975 3.618 C 17.555 3.103,17.393 2.988,17.066 2.969 C 16.875 2.959,16.783 2.975,16.652 3.041 " stroke="none" fill="black" fill-rule="evenodd"></path></svg>