<svg xmlns="http://www.w3.org/2000/svg" width="24" height="24" viewBox="0 0 24 24" fill="none" stroke="currentColor" stroke-width="2" stroke-linecap="round" stroke-linejoin="round" class="icon icon-tabler icons-tabler-outline icon-tabler-flag-search"><path d="M8.020 2.603 C 7.232 2.664,6.510 2.868,5.788 3.234 C 5.074 3.596,4.332 4.170,4.126 4.520 L 4.020 4.700 4.010 12.954 C 4.003 18.404,4.013 21.259,4.040 21.358 C 4.144 21.747,4.434 21.962,4.896 21.991 C 5.381 22.022,5.699 21.882,5.880 21.558 L 5.980 21.380 5.991 17.914 L 6.002 14.448 6.145 14.339 C 6.224 14.279,6.453 14.143,6.654 14.037 C 7.792 13.439,9.185 13.436,10.332 14.028 C 10.690 14.213,10.928 14.382,11.298 14.710 C 11.810 15.166,12.239 15.163,12.701 14.701 C 13.212 14.190,13.162 13.697,12.543 13.145 C 11.719 12.411,10.746 11.917,9.704 11.702 C 8.570 11.468,7.180 11.607,6.150 12.056 L 6.000 12.121 6.000 8.785 L 6.000 5.449 6.144 5.340 C 6.224 5.279,6.453 5.143,6.654 5.037 C 7.792 4.439,9.185 4.436,10.332 5.028 C 10.723 5.230,10.913 5.370,11.474 5.868 C 12.961 7.188,14.901 7.703,16.799 7.280 C 17.122 7.208,17.772 6.998,17.930 6.914 C 17.996 6.879,18.000 6.993,18.000 9.049 C 18.000 10.380,18.016 11.276,18.041 11.365 C 18.148 11.750,18.437 11.962,18.896 11.991 C 19.381 12.022,19.699 11.882,19.880 11.558 L 19.980 11.380 19.980 8.040 L 19.980 4.700 19.871 4.514 C 19.677 4.185,19.324 3.960,19.000 3.960 C 18.751 3.960,18.577 4.045,18.264 4.319 C 17.878 4.658,17.638 4.826,17.300 4.993 C 16.682 5.298,16.178 5.416,15.500 5.416 C 14.822 5.416,14.318 5.298,13.700 4.993 C 13.332 4.811,13.113 4.652,12.593 4.191 C 12.133 3.783,11.801 3.545,11.360 3.308 C 10.331 2.754,9.192 2.514,8.020 2.603 M17.358 14.061 C 16.230 14.237,15.143 14.974,14.569 15.953 C 13.320 18.083,14.233 20.785,16.512 21.704 C 17.475 22.092,18.529 22.091,19.498 21.700 C 19.691 21.622,19.887 21.532,19.933 21.500 C 20.012 21.444,20.052 21.476,20.738 22.155 C 21.512 22.921,21.693 23.049,22.000 23.049 C 22.477 23.049,23.049 22.477,23.049 22.000 C 23.049 21.693,22.921 21.512,22.155 20.738 C 21.476 20.052,21.444 20.012,21.500 19.933 C 21.619 19.762,21.844 19.135,21.921 18.757 C 22.070 18.024,21.994 17.230,21.705 16.516 C 21.172 15.197,20.001 14.269,18.605 14.058 C 18.144 13.989,17.816 13.990,17.358 14.061 M18.523 16.073 C 19.262 16.266,19.850 16.924,19.967 17.690 C 20.067 18.343,19.873 18.933,19.403 19.404 C 19.002 19.807,18.547 20.000,18.000 20.000 C 17.485 20.000,17.038 19.822,16.653 19.465 C 15.323 18.229,16.189 16.005,18.000 16.005 C 18.143 16.005,18.378 16.036,18.523 16.073 " stroke="none" fill="black" fill-rule="evenodd"></path></svg>