<svg xmlns="http://www.w3.org/2000/svg" width="24" height="24" viewBox="0 0 24 24" fill="none" stroke="currentColor" stroke-width="2" stroke-linecap="round" stroke-linejoin="round" class="icon icon-tabler icons-tabler-outline icon-tabler-brand-vivaldi"><path d="M4.179 2.044 C 3.750 2.083,3.407 2.175,3.018 2.357 C 1.988 2.838,1.276 3.756,1.063 4.874 C 0.945 5.500,1.013 6.187,1.253 6.780 C 1.369 7.065,2.627 9.264,7.491 17.680 C 8.260 19.011,8.962 20.217,9.051 20.360 C 9.471 21.036,9.867 21.413,10.460 21.701 C 10.980 21.954,11.299 22.016,11.939 21.987 C 12.770 21.950,13.355 21.755,14.060 21.280 C 14.454 21.014,14.825 20.603,15.129 20.095 C 15.665 19.202,22.450 7.422,22.600 7.127 C 22.914 6.506,23.024 5.994,22.988 5.320 C 22.954 4.697,22.758 4.072,22.450 3.607 C 21.970 2.883,21.212 2.337,20.380 2.117 C 19.942 2.001,19.140 1.991,18.743 2.096 C 17.695 2.376,16.835 3.055,16.461 3.900 C 16.147 4.611,15.833 6.181,15.721 7.606 C 15.643 8.607,15.266 9.229,14.495 9.630 C 13.939 9.919,13.650 9.980,12.840 9.980 C 12.217 9.980,12.107 9.970,11.841 9.886 C 11.121 9.660,10.547 9.225,10.173 8.620 C 9.977 8.304,9.753 7.895,8.791 6.100 C 7.451 3.601,7.343 3.420,6.965 3.042 C 6.211 2.288,5.259 1.947,4.179 2.044 M4.860 4.061 C 5.083 4.097,5.376 4.264,5.553 4.457 C 5.721 4.640,6.051 5.224,7.139 7.260 C 8.519 9.841,8.658 10.062,9.293 10.664 C 9.911 11.250,10.654 11.654,11.516 11.871 C 11.911 11.971,12.000 11.978,12.820 11.979 C 13.533 11.980,13.764 11.966,14.040 11.905 C 14.466 11.812,14.976 11.633,15.340 11.450 C 16.227 11.004,17.002 10.193,17.359 9.338 C 17.610 8.735,17.637 8.597,17.804 7.080 C 17.896 6.238,18.039 5.456,18.187 4.983 C 18.275 4.700,18.316 4.632,18.517 4.436 C 18.818 4.141,19.099 4.027,19.540 4.024 C 19.818 4.022,19.895 4.038,20.126 4.147 C 20.463 4.306,20.694 4.536,20.854 4.874 C 20.966 5.111,20.980 5.180,20.980 5.500 C 20.980 5.831,20.968 5.884,20.837 6.160 C 20.758 6.325,19.644 8.278,18.361 10.500 C 17.078 12.722,15.406 15.620,14.645 16.940 C 13.630 18.698,13.214 19.384,13.089 19.504 C 12.634 19.940,11.817 20.128,11.340 19.906 C 10.966 19.731,11.374 20.407,5.526 10.266 C 2.892 5.700,2.964 5.840,3.015 5.344 C 3.083 4.697,3.621 4.139,4.268 4.043 C 4.499 4.009,4.554 4.011,4.860 4.061 " stroke="none" fill="black" fill-rule="evenodd"></path></svg>