<svg xmlns="http://www.w3.org/2000/svg" width="24" height="24" viewBox="0 0 24 24" fill="none" stroke="currentColor" stroke-width="2" stroke-linecap="round" stroke-linejoin="round" class="icon icon-tabler icons-tabler-outline icon-tabler-currency-lari"><path d="M9.614 4.057 C 9.377 4.131,9.212 4.261,9.109 4.453 C 9.025 4.611,9.019 4.674,9.008 5.651 L 8.995 6.681 8.795 6.782 C 7.722 7.326,6.683 8.289,6.046 9.330 C 5.554 10.135,5.230 11.018,5.074 11.980 C 5.008 12.393,5.008 13.607,5.074 14.020 C 5.304 15.444,5.862 16.615,6.833 17.710 L 7.090 18.000 6.451 18.000 C 5.573 18.000,5.303 18.091,5.109 18.453 C 5.035 18.592,5.020 18.684,5.020 19.000 C 5.020 19.331,5.033 19.403,5.120 19.558 C 5.230 19.755,5.414 19.898,5.635 19.959 C 5.834 20.015,18.166 20.015,18.365 19.959 C 18.586 19.898,18.770 19.755,18.880 19.558 C 18.967 19.402,18.980 19.332,18.979 19.000 C 18.977 18.469,18.852 18.247,18.455 18.071 C 18.366 18.032,17.546 18.015,14.820 17.997 C 10.976 17.973,11.136 17.983,10.400 17.732 C 8.995 17.252,7.858 16.153,7.320 14.752 C 7.070 14.102,6.962 13.258,7.036 12.530 C 7.132 11.579,7.408 10.846,7.963 10.068 C 8.197 9.739,8.877 9.040,8.962 9.040 C 8.985 9.040,9.000 9.654,9.000 10.630 C 9.000 11.572,9.017 12.279,9.041 12.365 C 9.148 12.750,9.437 12.962,9.896 12.991 C 10.381 13.022,10.699 12.882,10.880 12.558 L 10.980 12.380 10.992 10.233 L 11.003 8.087 11.312 8.053 C 11.706 8.011,12.294 8.011,12.690 8.053 L 13.000 8.087 13.000 10.153 C 13.000 11.414,13.016 12.276,13.041 12.365 C 13.148 12.750,13.437 12.962,13.896 12.991 C 14.381 13.022,14.699 12.882,14.880 12.558 L 14.980 12.380 14.992 10.710 C 14.999 9.759,15.020 9.040,15.040 9.040 C 15.060 9.040,15.236 9.192,15.431 9.378 C 16.114 10.028,16.614 10.875,16.837 11.760 C 16.926 12.110,16.951 12.293,16.997 12.927 C 17.024 13.301,17.049 13.428,17.125 13.565 C 17.286 13.856,17.575 14.000,18.000 14.000 C 18.428 14.000,18.713 13.856,18.880 13.558 C 18.973 13.392,18.980 13.345,18.977 12.840 C 18.971 11.618,18.622 10.422,17.954 9.331 C 17.317 8.289,16.278 7.326,15.205 6.783 L 15.006 6.682 14.993 5.651 C 14.981 4.669,14.976 4.612,14.889 4.450 C 14.724 4.140,14.329 3.970,13.874 4.011 C 13.439 4.051,13.141 4.274,13.041 4.635 C 13.019 4.715,13.000 5.074,13.000 5.432 L 13.000 6.085 12.810 6.055 C 12.566 6.016,11.437 6.015,11.194 6.054 L 11.008 6.084 10.993 5.352 C 10.979 4.691,10.969 4.604,10.890 4.453 C 10.841 4.362,10.746 4.247,10.678 4.199 C 10.414 4.010,9.957 3.950,9.614 4.057 " stroke="none" fill="black" fill-rule="evenodd"></path></svg>