<svg xmlns="http://www.w3.org/2000/svg" width="24" height="24" viewBox="0 0 24 24" fill="none" stroke="currentColor" stroke-width="2" stroke-linecap="round" stroke-linejoin="round" class="icon icon-tabler icons-tabler-outline icon-tabler-affiliate"><path d="M4.960 3.062 C 4.605 3.138,4.107 3.393,3.832 3.639 C 3.532 3.907,3.239 4.352,3.118 4.722 C 3.034 4.976,3.020 5.094,3.022 5.520 C 3.024 5.959,3.038 6.056,3.133 6.320 C 3.391 7.035,3.970 7.615,4.669 7.859 C 4.828 7.915,5.002 7.960,5.054 7.960 C 5.107 7.960,5.167 7.982,5.188 8.010 C 5.230 8.065,5.960 10.486,5.960 10.569 C 5.960 10.598,5.857 10.682,5.730 10.756 C 2.643 12.568,2.074 16.788,4.573 19.333 C 6.170 20.960,8.501 21.436,10.624 20.570 C 11.666 20.144,12.720 19.215,13.269 18.239 C 13.330 18.129,13.403 18.040,13.431 18.040 C 13.514 18.040,15.935 18.770,15.990 18.812 C 16.018 18.833,16.040 18.893,16.040 18.946 C 16.040 19.126,16.241 19.620,16.423 19.887 C 16.737 20.348,17.159 20.678,17.680 20.867 C 17.949 20.965,18.034 20.976,18.500 20.976 C 18.965 20.976,19.052 20.965,19.320 20.868 C 20.037 20.608,20.605 20.040,20.867 19.320 C 20.965 19.051,20.976 18.966,20.976 18.500 C 20.976 18.035,20.965 17.948,20.868 17.680 C 20.732 17.306,20.458 16.898,20.165 16.636 C 19.742 16.258,19.069 16.001,18.500 16.001 C 17.917 16.001,17.253 16.260,16.814 16.657 L 16.568 16.879 15.277 16.490 L 13.985 16.100 13.995 15.635 C 14.019 14.569,13.717 13.460,13.171 12.604 L 13.033 12.387 15.310 10.110 L 17.588 7.833 17.784 7.904 C 17.934 7.959,18.102 7.976,18.500 7.976 C 18.966 7.976,19.051 7.965,19.320 7.868 C 20.037 7.608,20.605 7.040,20.867 6.320 C 20.965 6.051,20.976 5.966,20.976 5.500 C 20.976 5.035,20.965 4.948,20.868 4.680 C 20.732 4.306,20.458 3.898,20.165 3.636 C 19.742 3.258,19.069 3.001,18.500 3.001 C 17.929 3.001,17.258 3.258,16.832 3.639 C 16.532 3.907,16.239 4.352,16.118 4.722 C 16.034 4.976,16.020 5.093,16.023 5.520 C 16.025 5.893,16.043 6.070,16.096 6.216 L 16.167 6.412 13.890 8.689 L 11.613 10.966 11.309 10.781 C 10.452 10.261,9.278 9.964,8.245 10.006 L 7.903 10.020 7.513 8.722 L 7.123 7.425 7.296 7.240 C 7.553 6.965,7.745 6.657,7.867 6.320 C 7.965 6.051,7.976 5.966,7.976 5.500 C 7.976 5.035,7.965 4.948,7.868 4.680 C 7.437 3.490,6.192 2.798,4.960 3.062 M5.724 5.062 C 5.872 5.139,6.000 5.341,6.000 5.500 C 6.000 5.750,5.739 6.000,5.479 6.000 C 5.255 6.000,5.000 5.738,5.000 5.508 C 5.000 5.257,5.248 5.000,5.492 5.000 C 5.554 5.000,5.658 5.028,5.724 5.062 M18.724 5.062 C 18.872 5.139,19.000 5.341,19.000 5.500 C 19.000 5.748,18.748 6.000,18.500 6.000 C 18.256 6.000,18.000 5.748,18.000 5.508 C 18.000 5.257,18.248 5.000,18.492 5.000 C 18.554 5.000,18.658 5.028,18.724 5.062 M9.405 12.115 C 10.375 12.366,11.232 13.094,11.678 14.046 C 11.914 14.551,11.980 14.878,11.975 15.540 C 11.972 16.023,11.957 16.148,11.865 16.452 C 11.497 17.674,10.587 18.565,9.360 18.905 C 8.993 19.007,8.007 19.007,7.640 18.905 C 6.622 18.623,5.820 17.960,5.342 17.005 C 5.095 16.513,5.028 16.191,5.028 15.500 C 5.028 14.809,5.095 14.487,5.342 13.995 C 5.871 12.938,6.832 12.218,7.949 12.041 C 8.297 11.986,9.053 12.024,9.405 12.115 M18.724 18.062 C 18.872 18.139,19.000 18.341,19.000 18.500 C 19.000 18.748,18.748 19.000,18.500 19.000 C 18.266 19.000,18.001 18.749,18.000 18.529 C 18.000 18.366,18.112 18.164,18.248 18.081 C 18.406 17.984,18.562 17.978,18.724 18.062 " stroke="none" fill="black" fill-rule="evenodd"></path></svg>