<svg xmlns="http://www.w3.org/2000/svg" width="24" height="24" viewBox="0 0 24 24" fill="none" stroke="currentColor" stroke-width="2" stroke-linecap="round" stroke-linejoin="round" class="icon icon-tabler icons-tabler-outline icon-tabler-circle-letter-k"><path d="M11.080 2.045 C 9.507 2.184,7.883 2.751,6.540 3.630 C 5.905 4.045,5.499 4.378,4.919 4.958 C 2.953 6.926,1.919 9.544,2.013 12.320 C 2.084 14.439,2.752 16.328,4.033 18.040 C 4.430 18.570,5.305 19.464,5.800 19.847 C 7.242 20.961,8.787 21.624,10.600 21.907 C 11.247 22.008,12.753 22.008,13.400 21.907 C 15.638 21.557,17.504 20.620,19.062 19.062 C 20.620 17.504,21.557 15.638,21.907 13.400 C 22.008 12.753,22.008 11.247,21.907 10.600 C 21.624 8.786,20.959 7.238,19.847 5.800 C 19.510 5.365,18.639 4.494,18.200 4.154 C 16.133 2.555,13.646 1.818,11.080 2.045 M12.734 4.041 C 14.574 4.216,16.228 4.976,17.554 6.256 C 20.043 8.658,20.702 12.394,19.183 15.499 C 18.749 16.387,18.223 17.105,17.496 17.801 C 16.876 18.394,16.262 18.819,15.471 19.200 C 13.267 20.265,10.733 20.265,8.529 19.200 C 7.477 18.693,6.612 18.015,5.847 17.100 C 3.848 14.711,3.440 11.302,4.816 8.500 C 6.162 5.760,8.867 4.049,11.920 4.005 C 12.129 4.003,12.495 4.019,12.734 4.041 M13.597 7.037 C 13.518 7.079,13.392 7.183,13.317 7.267 C 13.242 7.351,12.694 8.199,12.100 9.150 L 11.020 10.881 11.000 9.250 C 10.980 7.651,10.978 7.617,10.889 7.450 C 10.724 7.140,10.329 6.970,9.874 7.011 C 9.439 7.051,9.141 7.274,9.041 7.635 C 8.986 7.833,8.986 16.167,9.041 16.365 C 9.148 16.750,9.437 16.962,9.896 16.991 C 10.381 17.022,10.699 16.882,10.880 16.558 L 10.980 16.380 11.000 14.750 L 11.020 13.119 12.100 14.850 C 12.694 15.801,13.242 16.649,13.317 16.733 C 13.602 17.050,13.961 17.123,14.348 16.942 C 14.598 16.826,14.889 16.567,14.976 16.382 C 15.061 16.205,15.056 15.898,14.965 15.700 C 14.925 15.612,14.395 14.743,13.786 13.770 L 12.680 12.000 13.786 10.230 C 14.395 9.257,14.925 8.388,14.965 8.300 C 15.056 8.102,15.061 7.795,14.976 7.618 C 14.896 7.448,14.621 7.193,14.395 7.078 C 14.151 6.953,13.784 6.934,13.597 7.037 " stroke="none" fill="black" fill-rule="evenodd"></path></svg>