<svg xmlns="http://www.w3.org/2000/svg" width="24" height="24" viewBox="0 0 24 24" fill="none" stroke="currentColor" stroke-width="2" stroke-linecap="round" stroke-linejoin="round" class="icon icon-tabler icons-tabler-outline icon-tabler-brand-deliveroo"><path d="M15.496 1.096 C 15.256 1.207,15.151 1.341,15.065 1.641 C 15.020 1.799,14.624 5.094,14.597 5.536 C 14.596 5.560,14.442 5.014,14.256 4.322 C 14.054 3.570,13.878 2.996,13.819 2.895 C 13.691 2.676,13.534 2.567,13.266 2.511 C 13.057 2.467,12.963 2.484,10.576 3.015 C 7.873 3.615,7.793 3.640,7.619 3.938 C 7.428 4.264,7.416 4.174,8.144 7.818 C 8.515 9.676,8.807 11.206,8.794 11.219 C 8.781 11.232,7.392 11.539,5.707 11.900 C 2.432 12.602,2.346 12.626,2.133 12.906 C 2.039 13.028,2.019 13.099,2.007 13.336 C 1.994 13.595,2.061 13.892,2.779 16.760 C 3.212 18.487,3.593 19.945,3.628 20.000 C 3.727 20.158,3.890 20.322,4.012 20.386 C 4.155 20.460,16.840 23.000,17.070 23.000 C 17.290 23.000,17.504 22.911,17.674 22.748 C 17.771 22.655,18.227 21.783,19.349 19.540 C 20.197 17.846,20.914 16.394,20.942 16.314 C 20.973 16.225,21.192 13.487,21.505 9.263 C 22.055 1.839,22.040 2.150,21.845 1.880 C 21.748 1.746,21.540 1.609,21.364 1.561 C 21.207 1.519,16.104 1.000,15.853 1.000 C 15.769 1.001,15.608 1.044,15.496 1.096 M19.908 3.414 C 19.917 3.423,19.719 6.200,19.467 9.585 L 19.011 15.740 17.728 18.305 L 16.445 20.869 10.898 19.760 C 7.847 19.149,5.339 18.631,5.325 18.608 C 5.289 18.549,4.227 14.279,4.245 14.265 C 4.253 14.258,5.547 13.978,7.120 13.643 C 8.693 13.308,10.025 13.023,10.080 13.010 C 10.172 12.989,10.167 13.002,10.016 13.166 C 9.670 13.544,9.508 13.969,9.508 14.500 C 9.508 15.052,9.674 15.469,10.052 15.869 C 10.459 16.299,10.900 16.488,11.500 16.488 C 12.100 16.488,12.541 16.299,12.948 15.869 C 13.334 15.461,13.494 15.049,13.490 14.480 C 13.484 13.686,13.061 13.037,12.320 12.684 C 12.046 12.553,11.984 12.540,11.598 12.526 C 11.366 12.518,11.111 12.530,11.032 12.552 L 10.888 12.591 10.944 12.457 C 10.975 12.383,11.000 12.227,11.000 12.111 C 11.000 11.995,10.702 10.409,10.337 8.586 C 9.973 6.764,9.680 5.268,9.687 5.263 C 9.716 5.243,12.261 4.689,12.273 4.700 C 12.280 4.707,12.671 6.158,13.142 7.925 C 13.614 9.691,14.035 11.245,14.080 11.378 C 14.222 11.804,14.490 12.010,14.897 12.008 C 15.419 12.004,15.858 11.710,15.955 11.297 C 15.992 11.141,16.880 3.308,16.880 3.140 C 16.880 3.110,17.357 3.144,18.386 3.247 C 19.214 3.330,19.898 3.405,19.908 3.414 M14.940 13.574 C 14.489 13.723,14.042 14.063,13.800 14.441 C 13.412 15.045,13.410 15.953,13.797 16.555 C 14.179 17.151,14.799 17.492,15.500 17.492 C 16.052 17.492,16.469 17.326,16.869 16.948 C 17.299 16.541,17.488 16.100,17.488 15.500 C 17.488 14.690,17.071 14.043,16.320 13.684 C 16.036 13.548,15.996 13.540,15.560 13.531 C 15.262 13.525,15.044 13.540,14.940 13.574 " stroke="none" fill="black" fill-rule="evenodd"></path></svg>