<svg xmlns="http://www.w3.org/2000/svg" width="24" height="24" viewBox="0 0 24 24" fill="none" stroke="currentColor" stroke-width="2" stroke-linecap="round" stroke-linejoin="round" class="icon icon-tabler icons-tabler-outline icon-tabler-vector-triangle"><path d="M10.477 3.073 C 9.806 3.249,9.238 3.823,9.060 4.508 C 8.973 4.839,8.973 7.161,9.060 7.492 C 9.159 7.873,9.310 8.120,9.639 8.442 L 9.948 8.745 7.960 12.362 L 5.971 15.980 4.776 16.002 C 3.809 16.021,3.541 16.038,3.377 16.092 C 2.933 16.239,2.426 16.673,2.216 17.088 C 2.019 17.477,2.000 17.643,2.000 19.000 C 2.000 20.368,2.018 20.521,2.225 20.930 C 2.361 21.199,2.801 21.639,3.070 21.775 C 3.479 21.982,3.632 22.000,5.000 22.000 C 6.368 22.000,6.521 21.982,6.930 21.775 C 7.196 21.640,7.638 21.200,7.771 20.937 C 7.888 20.707,8.000 20.309,8.000 20.124 L 8.000 20.000 12.000 20.000 L 16.000 20.000 16.000 20.132 C 16.000 20.543,16.233 21.042,16.596 21.404 C 16.882 21.690,17.148 21.847,17.508 21.940 C 17.839 22.027,20.161 22.027,20.492 21.940 C 20.852 21.847,21.118 21.690,21.404 21.404 C 21.694 21.114,21.841 20.863,21.937 20.491 C 22.026 20.149,22.028 17.903,21.940 17.529 C 21.823 17.033,21.513 16.603,21.063 16.312 C 20.645 16.042,20.560 16.027,19.224 16.002 L 18.028 15.980 16.040 12.362 L 14.052 8.745 14.361 8.442 C 14.536 8.271,14.714 8.052,14.772 7.937 C 14.979 7.525,15.000 7.351,14.999 6.014 C 14.999 4.682,14.974 4.463,14.781 4.083 C 14.551 3.628,14.022 3.203,13.523 3.073 C 13.134 2.972,10.866 2.972,10.477 3.073 M13.000 5.993 L 13.000 6.985 12.000 6.985 L 11.000 6.985 11.000 5.993 L 11.000 5.000 12.000 5.000 L 13.000 5.000 13.000 5.993 M14.140 13.066 C 15.306 15.191,16.257 16.950,16.253 16.975 C 16.249 17.000,16.199 17.131,16.143 17.267 C 16.086 17.402,16.028 17.623,16.014 17.757 L 15.989 18.000 12.003 18.000 L 8.018 18.000 7.969 17.694 C 7.943 17.526,7.876 17.291,7.822 17.172 L 7.722 16.956 9.851 13.078 C 11.022 10.946,11.989 9.201,12.000 9.201 C 12.011 9.201,12.974 10.940,14.140 13.066 M6.000 19.000 L 6.000 20.000 5.000 20.000 L 4.000 20.000 4.000 19.000 L 4.000 18.000 5.000 18.000 L 6.000 18.000 6.000 19.000 M20.000 19.000 L 20.000 20.000 19.000 20.000 L 18.000 20.000 18.000 19.000 L 18.000 18.000 19.000 18.000 L 20.000 18.000 20.000 19.000 " stroke="none" fill="black" fill-rule="evenodd"></path></svg>