<svg xmlns="http://www.w3.org/2000/svg" width="24" height="24" viewBox="0 0 24 24" fill="none" stroke="currentColor" stroke-width="2" stroke-linecap="round" stroke-linejoin="round" class="icon icon-tabler icons-tabler-outline icon-tabler-location-down"><path d="M20.896 2.000 C 20.673 2.046,2.794 8.499,2.529 8.630 C 2.261 8.762,1.946 9.094,1.808 9.390 C 1.715 9.589,1.701 9.672,1.700 10.001 C 1.700 10.350,1.711 10.404,1.829 10.644 C 2.089 11.173,2.005 11.122,5.825 13.033 L 9.260 14.752 10.226 16.688 C 10.757 17.753,11.243 18.685,11.304 18.758 C 11.445 18.924,11.688 19.038,11.908 19.039 C 12.290 19.041,12.807 18.737,12.960 18.420 C 13.139 18.051,13.133 18.035,11.928 15.619 C 11.335 14.430,10.800 13.399,10.739 13.327 C 10.654 13.225,9.936 12.849,7.505 11.633 C 4.745 10.252,4.392 10.065,4.480 10.032 C 5.274 9.732,19.297 4.684,19.307 4.693 C 19.314 4.701,18.752 6.280,18.058 8.204 C 17.363 10.127,16.758 11.814,16.713 11.954 C 16.546 12.470,16.691 12.832,17.162 13.071 C 17.437 13.211,17.741 13.268,17.979 13.223 C 18.152 13.190,18.415 12.966,18.518 12.763 C 18.558 12.684,19.352 10.514,20.281 7.940 C 21.373 4.918,21.978 3.189,21.990 3.060 C 22.021 2.703,21.771 2.209,21.484 2.063 C 21.337 1.988,21.088 1.961,20.896 2.000 M18.614 15.057 C 18.377 15.131,18.212 15.261,18.109 15.453 C 18.021 15.618,18.020 15.640,18.009 17.596 L 17.997 19.572 17.269 18.852 C 16.856 18.443,16.467 18.094,16.372 18.045 C 16.021 17.868,15.640 17.958,15.299 18.299 C 14.952 18.646,14.863 19.011,15.040 19.363 C 15.099 19.480,15.635 20.051,16.635 21.062 C 17.463 21.899,18.174 22.634,18.216 22.697 C 18.318 22.850,18.762 23.049,19.000 23.049 C 19.238 23.049,19.682 22.850,19.784 22.697 C 19.826 22.634,20.537 21.899,21.365 21.062 C 22.365 20.051,22.901 19.480,22.960 19.363 C 23.137 19.011,23.048 18.646,22.701 18.299 C 22.360 17.958,21.979 17.868,21.628 18.045 C 21.533 18.094,21.144 18.443,20.732 18.851 L 20.004 19.572 19.992 17.596 C 19.980 15.640,19.979 15.618,19.891 15.453 C 19.842 15.362,19.746 15.247,19.678 15.199 C 19.414 15.010,18.957 14.950,18.614 15.057 " stroke="none" fill="black" fill-rule="evenodd"></path></svg>