<svg xmlns="http://www.w3.org/2000/svg" width="24" height="24" viewBox="0 0 24 24" fill="none" stroke="currentColor" stroke-width="2" stroke-linecap="round" stroke-linejoin="round" class="icon icon-tabler icons-tabler-outline icon-tabler-brand-storytel"><path d="M11.680 1.042 C 9.282 1.301,6.751 2.628,5.068 4.511 C 3.373 6.405,2.426 8.640,2.073 11.580 C 2.005 12.148,2.005 15.092,2.074 16.120 C 2.258 18.874,2.676 21.244,3.178 22.379 C 3.530 23.174,4.198 23.250,4.928 22.577 C 5.595 21.963,6.412 21.645,9.800 20.680 C 13.250 19.697,14.609 19.226,16.146 18.481 C 17.892 17.635,19.161 16.709,20.082 15.608 C 21.286 14.172,21.857 12.637,21.909 10.700 C 22.015 6.745,20.249 3.666,16.940 2.040 C 16.029 1.592,14.839 1.235,13.801 1.098 C 13.252 1.025,12.111 0.995,11.680 1.042 M13.160 3.041 C 15.864 3.281,18.165 4.759,19.196 6.920 C 19.709 7.995,19.963 9.348,19.908 10.720 C 19.843 12.344,19.314 13.566,18.182 14.705 C 17.445 15.447,16.657 15.996,15.500 16.574 C 14.033 17.308,12.757 17.754,9.252 18.757 C 6.635 19.505,5.640 19.837,4.906 20.207 C 4.777 20.272,4.662 20.315,4.650 20.303 C 4.611 20.264,4.447 19.372,4.343 18.640 C 4.116 17.042,4.028 15.654,4.025 13.640 C 4.022 11.957,4.049 11.621,4.279 10.480 C 4.878 7.510,6.654 5.109,9.173 3.862 C 10.541 3.185,11.819 2.922,13.160 3.041 " stroke="none" fill="black" fill-rule="evenodd"></path></svg>