<svg xmlns="http://www.w3.org/2000/svg" width="24" height="24" viewBox="0 0 24 24" fill="none" stroke="currentColor" stroke-width="2" stroke-linecap="round" stroke-linejoin="round" class="icon icon-tabler icons-tabler-outline icon-tabler-thumb-down"><path d="M3.477 3.073 C 2.806 3.249,2.238 3.823,2.060 4.508 C 1.970 4.851,1.970 12.149,2.060 12.492 C 2.223 13.118,2.691 13.638,3.316 13.888 C 3.535 13.976,3.589 13.979,5.540 14.001 C 7.523 14.024,7.543 14.025,7.861 14.124 C 8.819 14.420,9.589 15.190,9.874 16.139 C 9.960 16.427,9.973 16.568,10.000 17.520 C 10.026 18.453,10.041 18.614,10.119 18.860 C 10.428 19.832,11.183 20.582,12.160 20.886 C 12.594 21.021,13.406 21.021,13.840 20.886 C 14.806 20.585,15.544 19.860,15.875 18.887 L 15.979 18.580 15.992 16.293 L 16.004 14.007 17.292 13.991 C 18.502 13.976,18.597 13.969,18.860 13.884 C 20.064 13.490,20.907 12.442,20.984 11.243 C 21.005 10.918,20.977 10.756,20.466 8.220 C 20.099 6.397,19.886 5.428,19.799 5.190 C 19.405 4.103,18.543 3.248,17.650 3.059 C 17.248 2.973,9.961 2.973,9.395 3.058 C 8.825 3.144,8.181 3.395,7.760 3.694 L 7.620 3.793 7.420 3.599 C 7.143 3.330,6.803 3.136,6.478 3.062 C 6.064 2.968,3.849 2.976,3.477 3.073 M6.000 8.500 L 6.000 12.000 5.000 12.000 L 4.000 12.000 4.000 8.500 L 4.000 5.000 5.000 5.000 L 6.000 5.000 6.000 8.500 M17.312 5.057 C 17.564 5.189,17.818 5.561,17.955 6.000 C 18.000 6.143,18.253 7.350,18.519 8.682 C 18.987 11.032,18.999 11.109,18.946 11.288 C 18.872 11.533,18.708 11.740,18.484 11.872 L 18.300 11.980 16.479 12.000 L 14.658 12.020 14.459 12.122 C 14.245 12.233,14.105 12.404,14.041 12.635 C 14.016 12.726,14.000 13.783,14.000 15.444 C 14.000 18.334,14.000 18.327,13.779 18.618 C 13.718 18.698,13.585 18.813,13.484 18.872 C 13.328 18.963,13.254 18.980,13.000 18.980 C 12.746 18.980,12.672 18.963,12.516 18.872 C 12.326 18.760,12.155 18.568,12.072 18.373 C 12.042 18.302,12.014 17.902,11.998 17.300 C 11.980 16.622,11.952 16.246,11.903 16.020 C 11.567 14.469,10.590 13.210,9.180 12.510 C 8.874 12.358,8.386 12.182,8.150 12.139 L 8.000 12.111 8.000 9.453 C 8.000 6.492,8.003 6.450,8.265 6.014 C 8.546 5.543,8.988 5.201,9.477 5.073 C 9.716 5.011,10.078 5.004,13.472 5.002 C 16.615 5.000,17.221 5.009,17.312 5.057 " stroke="none" fill="black" fill-rule="evenodd"></path></svg>