<svg xmlns="http://www.w3.org/2000/svg" width="24" height="24" viewBox="0 0 24 24" fill="none" stroke="currentColor" stroke-width="2" stroke-linecap="round" stroke-linejoin="round" class="icon icon-tabler icons-tabler-outline icon-tabler-flask-2-off"><path d="M2.626 2.045 C 2.420 2.154,2.146 2.433,2.038 2.644 C 1.924 2.867,1.924 3.132,2.039 3.363 C 2.102 3.488,3.063 4.477,5.312 6.729 C 7.063 8.482,8.488 9.926,8.478 9.936 C 8.467 9.946,8.315 10.048,8.140 10.162 C 6.804 11.033,5.755 12.440,5.295 13.978 C 5.079 14.699,5.022 15.121,5.022 16.020 C 5.021 16.744,5.034 16.920,5.112 17.296 C 5.359 18.471,5.882 19.582,6.600 20.460 C 7.077 21.042,7.992 21.813,8.357 21.939 C 8.619 22.029,15.382 22.031,15.638 21.941 C 16.217 21.737,17.502 20.478,17.954 19.672 L 18.060 19.484 19.260 20.677 C 20.046 21.459,20.521 21.901,20.637 21.960 C 20.989 22.137,21.354 22.048,21.701 21.701 C 22.116 21.286,22.159 20.869,21.833 20.440 C 21.777 20.367,16.651 15.189,15.735 14.280 C 15.640 14.186,10.774 9.327,10.724 9.276 C 10.711 9.263,9.089 7.649,7.120 5.690 C 4.714 3.296,3.485 2.101,3.372 2.044 C 3.152 1.934,2.835 1.935,2.626 2.045 M8.614 2.057 C 8.223 2.180,8.039 2.436,8.009 2.900 C 7.968 3.532,8.251 3.922,8.797 3.987 L 9.000 4.011 9.000 5.116 C 9.000 5.732,9.018 6.284,9.041 6.365 C 9.148 6.750,9.437 6.962,9.896 6.991 C 10.381 7.022,10.699 6.882,10.880 6.558 C 10.979 6.381,10.980 6.374,10.993 5.190 L 11.005 4.000 12.003 4.000 L 13.000 4.000 13.000 7.110 C 13.000 9.070,13.015 10.274,13.041 10.365 C 13.103 10.588,13.245 10.770,13.442 10.878 C 13.540 10.931,13.627 10.993,13.636 11.015 C 13.686 11.142,13.995 11.403,14.266 11.549 C 15.279 12.091,15.926 12.737,16.441 13.720 C 16.734 14.278,16.934 14.441,17.326 14.439 C 17.564 14.438,17.922 14.309,18.112 14.156 C 18.178 14.103,18.280 13.988,18.338 13.900 C 18.557 13.574,18.418 13.046,17.901 12.241 C 17.251 11.228,16.238 10.304,15.210 9.785 L 15.000 9.679 15.000 6.845 L 15.000 4.011 15.197 3.988 C 15.539 3.947,15.754 3.805,15.904 3.520 C 16.018 3.305,16.009 2.679,15.890 2.453 C 15.786 2.256,15.623 2.131,15.371 2.055 C 15.109 1.977,8.866 1.979,8.614 2.057 M11.300 12.720 L 12.580 14.000 10.010 14.000 C 8.130 14.000,7.440 13.988,7.440 13.955 C 7.440 13.871,7.765 13.320,7.998 13.009 C 8.272 12.642,8.759 12.166,9.120 11.912 C 9.400 11.715,9.897 11.440,9.974 11.440 C 9.999 11.440,10.596 12.016,11.300 12.720 M15.577 16.997 L 16.573 17.993 16.518 18.127 C 16.318 18.614,15.932 19.144,15.427 19.625 L 15.032 20.000 12.001 20.000 L 8.970 20.000 8.598 19.650 C 7.662 18.770,7.102 17.605,7.013 16.353 L 6.988 16.000 10.784 16.000 L 14.581 16.000 15.577 16.997 " stroke="none" fill="black" fill-rule="evenodd"></path></svg>