<svg xmlns="http://www.w3.org/2000/svg" width="24" height="24" viewBox="0 0 24 24" fill="none" stroke="currentColor" stroke-width="2" stroke-linecap="round" stroke-linejoin="round" class="icon icon-tabler icons-tabler-outline icon-tabler-home-cog"><path d="M11.620 2.046 C 11.382 2.168,2.155 11.405,2.039 11.637 C 1.830 12.056,2.036 12.589,2.514 12.871 C 2.693 12.976,2.726 12.981,3.348 12.993 L 3.997 13.007 4.009 16.293 L 4.021 19.580 4.114 19.860 C 4.445 20.850,5.184 21.582,6.160 21.886 L 6.460 21.980 9.000 21.980 C 11.405 21.980,11.547 21.976,11.680 21.905 C 12.036 21.715,12.137 21.514,12.139 20.997 C 12.140 20.640,12.132 20.600,12.020 20.419 C 11.934 20.281,11.842 20.195,11.701 20.122 C 11.512 20.025,11.465 20.019,10.751 20.007 L 10.000 19.994 10.000 17.444 C 10.000 14.539,9.993 14.614,10.303 14.303 C 10.581 14.026,10.712 14.000,11.857 14.000 C 12.387 14.000,12.885 13.981,12.965 13.959 C 13.186 13.898,13.370 13.755,13.480 13.558 C 13.567 13.402,13.580 13.332,13.579 13.000 C 13.578 12.552,13.493 12.342,13.249 12.182 C 12.985 12.009,12.812 11.991,11.594 12.009 C 10.530 12.025,10.440 12.032,10.139 12.124 C 9.188 12.416,8.442 13.158,8.115 14.140 L 8.021 14.420 8.009 17.213 L 7.996 20.007 7.348 19.993 C 6.728 19.981,6.692 19.975,6.516 19.872 C 6.328 19.761,6.158 19.572,6.070 19.373 C 6.032 19.286,6.015 18.375,6.000 15.440 L 5.980 11.620 5.890 11.451 C 5.803 11.289,5.556 11.080,5.451 11.080 C 5.423 11.080,5.400 11.066,5.400 11.050 C 5.400 11.033,6.885 9.535,8.700 7.720 L 12.000 4.421 15.730 8.146 C 18.380 10.794,19.511 11.898,19.637 11.961 C 19.990 12.137,20.355 12.048,20.701 11.701 C 21.047 11.355,21.136 10.990,20.961 10.637 C 20.839 10.394,12.615 2.165,12.372 2.044 C 12.151 1.934,11.836 1.935,11.620 2.046 M17.545 13.579 C 17.320 13.659,17.128 13.863,17.059 14.096 C 17.023 14.217,17.000 14.462,17.000 14.721 L 17.000 15.148 16.708 15.292 C 16.548 15.371,16.333 15.500,16.232 15.577 L 16.047 15.718 15.654 15.495 C 15.190 15.232,14.942 15.167,14.680 15.239 C 14.342 15.331,13.969 15.847,13.930 16.278 C 13.897 16.640,14.080 16.876,14.667 17.228 L 15.014 17.437 15.017 18.002 L 15.020 18.567 14.660 18.780 C 14.272 19.009,14.043 19.223,13.961 19.431 C 13.799 19.844,14.227 20.638,14.680 20.761 C 14.944 20.833,15.212 20.764,15.667 20.505 L 16.052 20.286 16.257 20.441 C 16.369 20.526,16.582 20.652,16.731 20.721 L 17.000 20.848 17.000 21.277 C 17.000 21.963,17.137 22.254,17.537 22.422 C 17.750 22.510,18.249 22.511,18.460 22.423 C 18.864 22.254,19.000 21.965,19.000 21.277 L 19.000 20.848 19.269 20.721 C 19.418 20.652,19.632 20.525,19.746 20.439 L 19.954 20.282 20.331 20.502 C 20.942 20.858,21.304 20.879,21.636 20.579 C 21.842 20.393,22.041 20.009,22.066 19.749 C 22.105 19.358,21.939 19.136,21.340 18.778 L 20.980 18.562 20.983 17.999 L 20.986 17.437 21.333 17.228 C 21.743 16.982,21.940 16.805,22.025 16.605 C 22.213 16.165,21.799 15.371,21.312 15.237 C 21.059 15.167,20.806 15.235,20.346 15.495 L 19.953 15.718 19.768 15.577 C 19.667 15.500,19.452 15.371,19.292 15.292 L 19.000 15.148 19.000 14.721 C 19.000 14.173,18.933 13.937,18.723 13.747 C 18.636 13.669,18.497 13.586,18.413 13.563 C 18.200 13.504,17.731 13.513,17.545 13.579 M18.260 17.044 C 18.612 17.138,18.881 17.426,18.968 17.800 C 19.059 18.196,18.854 18.655,18.489 18.869 C 18.328 18.964,18.256 18.980,18.000 18.980 C 17.744 18.980,17.672 18.964,17.511 18.869 C 17.181 18.675,16.971 18.272,17.013 17.915 C 17.088 17.284,17.663 16.883,18.260 17.044 " stroke="none" fill="black" fill-rule="evenodd"></path></svg>