<svg xmlns="http://www.w3.org/2000/svg" width="24" height="24" viewBox="0 0 24 24" fill="none" stroke="currentColor" stroke-width="2" stroke-linecap="round" stroke-linejoin="round" class="icon icon-tabler icons-tabler-outline icon-tabler-brand-couchsurfing"><path d="M11.080 2.045 C 9.507 2.184,7.883 2.751,6.540 3.630 C 5.905 4.045,5.499 4.378,4.919 4.958 C 2.953 6.926,1.919 9.544,2.013 12.320 C 2.084 14.439,2.752 16.328,4.033 18.040 C 4.430 18.570,5.305 19.464,5.800 19.847 C 7.242 20.961,8.787 21.624,10.600 21.907 C 11.247 22.008,12.753 22.008,13.400 21.907 C 15.638 21.557,17.504 20.620,19.062 19.062 C 20.620 17.504,21.557 15.638,21.907 13.400 C 22.008 12.753,22.008 11.247,21.907 10.600 C 21.624 8.786,20.959 7.238,19.847 5.800 C 19.510 5.365,18.639 4.494,18.200 4.154 C 16.133 2.555,13.646 1.818,11.080 2.045 M12.734 4.041 C 14.574 4.216,16.228 4.976,17.554 6.256 C 18.934 7.587,19.776 9.343,19.959 11.266 C 19.981 11.505,20.000 11.765,20.000 11.845 L 20.000 11.990 18.510 12.012 C 16.979 12.033,16.595 12.065,15.680 12.243 C 14.970 12.382,14.038 12.649,13.390 12.901 C 13.352 12.916,13.320 12.912,13.320 12.893 C 13.320 12.873,13.423 12.806,13.550 12.745 C 14.124 12.465,14.770 11.950,15.156 11.466 C 16.024 10.374,16.238 8.836,15.705 7.516 C 15.172 6.197,14.001 5.269,12.605 5.058 C 12.121 4.986,11.879 4.986,11.395 5.058 C 9.414 5.357,7.920 7.142,8.013 9.100 C 8.026 9.365,8.067 9.659,8.118 9.840 C 8.237 10.264,8.594 10.958,8.904 11.372 C 9.050 11.566,9.162 11.730,9.154 11.737 C 9.093 11.789,6.505 11.943,5.010 11.984 L 4.000 12.011 4.000 11.856 C 4.000 11.218,4.174 10.205,4.403 9.502 C 4.794 8.306,5.524 7.145,6.446 6.256 C 8.134 4.626,10.418 3.822,12.734 4.041 M12.523 7.073 C 13.493 7.327,14.137 8.333,13.967 9.330 C 13.889 9.787,13.727 10.086,13.362 10.445 C 13.095 10.709,12.979 10.788,12.594 10.975 C 12.344 11.096,12.019 11.230,11.872 11.273 L 11.603 11.351 11.091 10.826 C 10.145 9.855,9.891 9.295,10.057 8.550 C 10.255 7.659,11.078 7.005,12.000 7.005 C 12.143 7.005,12.378 7.036,12.523 7.073 M11.125 13.572 C 11.160 13.599,11.265 13.689,11.357 13.773 L 11.525 13.924 11.413 14.008 C 11.351 14.054,11.136 14.257,10.936 14.459 C 10.524 14.874,10.283 15.247,10.128 15.709 C 10.037 15.979,10.023 16.086,10.024 16.520 C 10.025 16.962,10.037 17.055,10.133 17.320 C 10.391 18.036,10.960 18.605,11.680 18.867 C 11.949 18.965,12.034 18.976,12.500 18.976 C 12.965 18.976,13.052 18.965,13.320 18.868 C 13.667 18.742,14.084 18.471,14.313 18.223 C 15.137 17.329,15.211 16.201,14.544 14.677 C 14.522 14.625,14.593 14.590,14.928 14.488 C 15.402 14.343,16.123 14.183,16.700 14.094 C 16.971 14.052,17.529 14.025,18.428 14.011 L 19.756 13.991 19.654 14.325 C 19.348 15.328,18.821 16.302,18.145 17.110 C 17.389 18.015,16.519 18.695,15.471 19.200 C 13.267 20.265,10.733 20.265,8.529 19.200 C 7.738 18.819,7.124 18.394,6.504 17.801 C 5.779 17.107,5.255 16.392,4.816 15.500 C 4.532 14.922,4.217 14.025,4.293 14.012 C 4.319 14.007,4.925 13.984,5.640 13.961 C 7.585 13.897,9.170 13.776,10.360 13.603 C 10.977 13.513,11.044 13.510,11.125 13.572 M12.836 15.787 C 12.884 15.912,12.944 16.136,12.969 16.286 C 13.010 16.522,13.007 16.576,12.948 16.699 C 12.869 16.866,12.669 17.000,12.500 17.000 C 12.333 17.000,12.131 16.866,12.054 16.705 C 11.981 16.551,11.999 16.374,12.110 16.168 C 12.193 16.014,12.635 15.560,12.702 15.560 C 12.728 15.560,12.788 15.662,12.836 15.787 " stroke="none" fill="black" fill-rule="evenodd"></path></svg>