<svg xmlns="http://www.w3.org/2000/svg" width="24" height="24" viewBox="0 0 24 24" fill="none" stroke="currentColor" stroke-width="2" stroke-linecap="round" stroke-linejoin="round" class="icon icon-tabler icons-tabler-outline icon-tabler-file-broken"><path d="M6.499 2.043 C 5.392 2.229,4.479 3.033,4.116 4.140 C 4.029 4.405,4.024 4.492,4.009 5.804 C 3.999 6.715,4.008 7.243,4.037 7.348 C 4.144 7.748,4.430 7.961,4.896 7.991 C 5.381 8.022,5.699 7.882,5.880 7.558 C 5.980 7.381,5.980 7.376,6.001 6.060 C 6.024 4.577,6.025 4.571,6.321 4.283 C 6.622 3.992,6.514 4.000,9.947 4.000 L 13.000 4.000 13.000 5.632 C 13.000 7.399,13.010 7.507,13.225 7.930 C 13.361 8.199,13.801 8.639,14.070 8.775 C 14.493 8.990,14.601 9.000,16.368 9.000 L 18.000 9.000 18.000 9.610 C 18.000 9.945,18.019 10.285,18.041 10.365 C 18.148 10.750,18.437 10.962,18.896 10.991 C 19.381 11.022,19.699 10.882,19.880 10.558 L 19.980 10.380 19.980 9.000 C 19.980 7.647,19.978 7.617,19.890 7.452 C 19.841 7.360,19.724 7.231,19.630 7.165 C 19.498 7.073,15.263 2.838,14.719 2.254 C 14.473 1.991,14.626 2.000,10.463 2.005 C 8.393 2.007,6.609 2.025,6.499 2.043 M15.800 6.220 L 16.579 7.000 15.790 7.000 L 15.000 7.000 15.000 6.220 C 15.000 5.791,15.005 5.440,15.010 5.440 C 15.016 5.440,15.371 5.791,15.800 6.220 M4.614 9.055 C 4.220 9.184,4.039 9.437,4.009 9.900 C 3.978 10.381,4.119 10.699,4.442 10.880 C 4.597 10.967,4.669 10.980,5.000 10.980 C 5.312 10.980,5.408 10.964,5.540 10.894 C 5.866 10.718,6.000 10.459,6.000 10.000 C 6.000 9.357,5.713 9.048,5.083 9.016 C 4.893 9.006,4.718 9.021,4.614 9.055 M4.614 12.055 C 4.220 12.184,4.039 12.437,4.009 12.900 C 3.978 13.381,4.119 13.699,4.442 13.880 C 4.597 13.967,4.669 13.980,5.000 13.980 C 5.312 13.980,5.408 13.964,5.540 13.894 C 5.866 13.718,6.000 13.459,6.000 13.000 C 6.000 12.357,5.713 12.048,5.083 12.016 C 4.893 12.006,4.718 12.021,4.614 12.055 M18.614 12.055 C 18.220 12.184,18.039 12.437,18.009 12.900 C 17.978 13.381,18.119 13.699,18.442 13.880 C 18.597 13.967,18.669 13.980,19.000 13.980 C 19.312 13.980,19.408 13.964,19.540 13.894 C 19.866 13.718,20.000 13.459,20.000 13.000 C 20.000 12.357,19.713 12.048,19.083 12.016 C 18.893 12.006,18.718 12.021,18.614 12.055 M4.614 15.055 C 4.220 15.184,4.039 15.437,4.009 15.900 C 3.978 16.381,4.119 16.699,4.442 16.880 C 4.597 16.967,4.669 16.980,5.000 16.980 C 5.312 16.980,5.408 16.964,5.540 16.894 C 5.866 16.718,6.000 16.459,6.000 16.000 C 6.000 15.357,5.713 15.048,5.083 15.016 C 4.893 15.006,4.718 15.021,4.614 15.055 M18.614 15.055 C 18.220 15.184,18.039 15.437,18.009 15.900 C 17.978 16.381,18.119 16.699,18.442 16.880 C 18.597 16.967,18.669 16.980,19.000 16.980 C 19.312 16.980,19.408 16.964,19.540 16.894 C 19.866 16.718,20.000 16.459,20.000 16.000 C 20.000 15.357,19.713 15.048,19.083 15.016 C 18.893 15.006,18.718 15.021,18.614 15.055 M4.614 18.057 C 4.377 18.131,4.212 18.261,4.109 18.453 C 3.979 18.696,3.983 19.409,4.115 19.840 C 4.417 20.822,5.173 21.578,6.160 21.886 L 6.460 21.980 12.000 21.980 L 17.540 21.980 17.840 21.886 C 18.827 21.578,19.582 20.823,19.885 19.840 C 20.018 19.410,20.021 18.697,19.891 18.453 C 19.689 18.076,19.138 17.902,18.629 18.055 C 18.220 18.178,18.055 18.409,18.000 18.934 C 17.982 19.113,17.947 19.311,17.923 19.373 C 17.851 19.561,17.677 19.758,17.484 19.872 L 17.300 19.980 12.000 19.980 L 6.700 19.980 6.516 19.872 C 6.324 19.759,6.151 19.563,6.076 19.373 C 6.051 19.311,6.015 19.111,5.996 18.929 C 5.956 18.552,5.858 18.327,5.678 18.199 C 5.414 18.010,4.957 17.950,4.614 18.057 " stroke="none" fill="black" fill-rule="evenodd"></path></svg>