<svg xmlns="http://www.w3.org/2000/svg" width="24" height="24" viewBox="0 0 24 24" fill="none" stroke="currentColor" stroke-width="2" stroke-linecap="round" stroke-linejoin="round" class="icon icon-tabler icons-tabler-outline icon-tabler-alarm"><path d="M6.636 3.070 C 6.429 3.176,3.941 4.965,3.553 5.287 C 3.121 5.646,3.089 6.095,3.462 6.602 C 3.775 7.029,4.205 7.159,4.604 6.946 C 4.815 6.834,7.563 4.843,7.754 4.665 C 8.053 4.385,8.124 4.003,7.942 3.644 C 7.628 3.024,7.143 2.811,6.636 3.070 M16.557 3.073 C 16.210 3.293,15.960 3.699,15.960 4.040 C 15.960 4.278,16.055 4.486,16.246 4.665 C 16.437 4.843,19.185 6.834,19.396 6.946 C 19.795 7.159,20.225 7.029,20.538 6.602 C 20.911 6.095,20.879 5.646,20.447 5.287 C 20.059 4.965,17.571 3.176,17.364 3.070 C 17.067 2.918,16.800 2.919,16.557 3.073 M11.207 5.043 C 9.656 5.193,8.096 5.846,6.900 6.847 C 5.985 7.612,5.307 8.477,4.800 9.529 C 3.734 11.734,3.735 14.267,4.801 16.474 C 5.225 17.352,5.730 18.049,6.446 18.741 C 7.114 19.389,7.706 19.803,8.529 20.200 C 11.259 21.519,14.467 21.184,16.900 19.326 C 17.239 19.067,17.925 18.394,18.211 18.040 C 20.163 15.625,20.547 12.317,19.200 9.529 C 18.693 8.477,18.015 7.612,17.100 6.847 C 15.483 5.494,13.337 4.837,11.207 5.043 M12.564 7.039 C 14.921 7.269,16.913 8.837,17.671 11.060 C 18.168 12.517,18.068 14.251,17.410 15.580 C 16.550 17.316,15.056 18.478,13.160 18.885 C 12.554 19.015,11.446 19.015,10.840 18.885 C 8.941 18.478,7.451 17.319,6.590 15.580 C 5.932 14.251,5.832 12.517,6.329 11.060 C 6.618 10.212,7.080 9.470,7.731 8.805 C 9.008 7.503,10.757 6.864,12.564 7.039 M11.614 9.057 C 11.377 9.131,11.212 9.261,11.109 9.453 C 11.021 9.618,11.020 9.647,11.008 11.410 C 11.001 12.557,11.012 13.255,11.038 13.354 C 11.100 13.583,11.242 13.768,11.442 13.880 L 11.620 13.980 12.908 13.992 C 13.720 14.000,14.254 13.989,14.352 13.962 C 14.583 13.900,14.768 13.759,14.880 13.558 C 14.967 13.402,14.980 13.332,14.979 13.000 C 14.978 12.687,14.962 12.591,14.890 12.453 C 14.702 12.098,14.423 12.000,13.596 12.000 L 13.005 12.000 12.993 10.810 C 12.981 9.669,12.976 9.613,12.891 9.453 C 12.842 9.362,12.746 9.247,12.678 9.199 C 12.414 9.010,11.957 8.950,11.614 9.057 " stroke="none" fill="black" fill-rule="evenodd"></path></svg>