<svg xmlns="http://www.w3.org/2000/svg" width="24" height="24" viewBox="0 0 24 24" fill="none" stroke="currentColor" stroke-width="2" stroke-linecap="round" stroke-linejoin="round" class="icon icon-tabler icons-tabler-outline icon-tabler-location-x"><path d="M20.896 2.000 C 20.673 2.046,2.794 8.499,2.529 8.630 C 2.261 8.762,1.946 9.094,1.808 9.390 C 1.715 9.589,1.701 9.672,1.700 10.001 C 1.700 10.350,1.711 10.404,1.829 10.644 C 2.090 11.173,2.005 11.123,5.819 13.028 L 9.248 14.740 10.982 18.205 C 12.585 21.407,12.730 21.682,12.902 21.834 C 13.188 22.085,13.465 22.104,13.907 21.902 C 14.428 21.664,14.632 21.296,14.496 20.840 C 14.412 20.557,10.880 13.494,10.738 13.325 C 10.654 13.225,9.920 12.841,7.505 11.633 C 4.745 10.252,4.392 10.065,4.480 10.032 C 5.266 9.735,19.297 4.684,19.307 4.693 C 19.314 4.701,18.660 6.532,17.854 8.763 C 16.329 12.982,16.293 13.096,16.398 13.413 C 16.542 13.850,17.413 14.203,17.820 13.990 C 17.951 13.921,18.167 13.706,18.231 13.580 C 18.253 13.536,19.104 11.196,20.122 8.380 C 21.324 5.055,21.978 3.190,21.990 3.060 C 22.021 2.703,21.771 2.209,21.484 2.063 C 21.337 1.988,21.088 1.961,20.896 2.000 M16.626 16.045 C 16.257 16.239,15.951 16.673,15.951 17.000 C 15.951 17.323,16.068 17.478,17.103 18.520 L 18.077 19.500 17.103 20.480 C 16.068 21.522,15.951 21.677,15.951 22.000 C 15.951 22.477,16.523 23.049,17.000 23.049 C 17.323 23.049,17.478 22.932,18.520 21.897 L 19.500 20.923 20.480 21.897 C 21.522 22.932,21.677 23.049,22.000 23.049 C 22.477 23.049,23.049 22.477,23.049 22.000 C 23.049 21.677,22.932 21.522,21.897 20.480 L 20.923 19.500 21.897 18.520 C 22.518 17.895,22.903 17.476,22.960 17.363 C 23.137 17.011,23.048 16.646,22.701 16.299 C 22.360 15.958,21.979 15.868,21.628 16.045 C 21.527 16.096,21.072 16.515,20.480 17.103 L 19.500 18.077 18.520 17.103 C 17.927 16.514,17.474 16.096,17.372 16.045 C 17.152 15.934,16.835 15.934,16.626 16.045 " stroke="none" fill="black" fill-rule="evenodd"></path></svg>