<svg xmlns="http://www.w3.org/2000/svg" width="24" height="24" viewBox="0 0 24 24" fill="none" stroke="currentColor" stroke-width="2" stroke-linecap="round" stroke-linejoin="round" class="icon icon-tabler icons-tabler-outline icon-tabler-currency-afghani"><path d="M11.614 2.057 C 11.221 2.180,11.039 2.435,11.009 2.906 C 10.962 3.621,11.306 4.000,12.000 4.000 C 12.698 4.000,13.043 3.616,12.989 2.900 C 12.963 2.563,12.859 2.327,12.678 2.199 C 12.414 2.010,11.957 1.950,11.614 2.057 M10.900 5.045 C 9.431 5.229,8.051 6.245,7.421 7.609 C 6.787 8.981,6.883 10.574,7.677 11.864 C 8.287 12.855,9.239 13.548,10.437 13.872 C 10.813 13.974,10.848 13.976,12.410 13.991 L 14.000 14.006 14.000 14.503 L 14.000 15.000 10.906 15.000 C 7.599 15.000,7.601 15.000,7.322 15.199 C 7.100 15.357,7.020 15.568,7.020 16.000 C 7.020 16.331,7.033 16.403,7.120 16.558 C 7.230 16.755,7.414 16.898,7.635 16.959 C 7.833 17.014,15.167 17.014,15.365 16.959 C 15.586 16.898,15.770 16.755,15.880 16.558 L 15.980 16.380 15.992 12.800 C 16.001 10.292,15.991 9.125,15.959 8.904 C 15.606 6.435,13.378 4.736,10.900 5.045 M12.020 7.060 C 12.741 7.211,13.395 7.713,13.715 8.362 C 13.978 8.895,13.999 9.062,13.999 10.633 L 14.000 12.005 12.490 11.992 L 10.980 11.979 10.680 11.869 C 10.066 11.644,9.561 11.195,9.277 10.620 C 8.910 9.878,8.913 9.118,9.285 8.362 C 9.774 7.371,10.914 6.828,12.020 7.060 M11.614 18.057 C 11.377 18.131,11.212 18.261,11.109 18.453 C 11.023 18.614,11.020 18.665,11.008 19.908 C 11.000 20.720,11.011 21.254,11.038 21.352 C 11.144 21.747,11.432 21.961,11.896 21.991 C 12.381 22.022,12.699 21.882,12.880 21.558 L 12.980 21.380 12.980 20.000 C 12.980 18.650,12.978 18.616,12.891 18.453 C 12.842 18.362,12.746 18.247,12.678 18.199 C 12.414 18.010,11.957 17.950,11.614 18.057 " stroke="none" fill="black" fill-rule="evenodd"></path></svg>