<svg xmlns="http://www.w3.org/2000/svg" width="24" height="24" viewBox="0 0 24 24" fill="none" stroke="currentColor" stroke-width="2" stroke-linecap="round" stroke-linejoin="round" class="icon icon-tabler icons-tabler-outline icon-tabler-number"><path d="M3.614 6.057 C 3.377 6.131,3.212 6.261,3.109 6.453 L 3.020 6.620 3.009 11.914 C 3.002 15.393,3.013 17.259,3.039 17.358 C 3.144 17.747,3.434 17.961,3.896 17.991 C 4.381 18.022,4.699 17.882,4.880 17.558 L 4.980 17.380 5.000 13.793 L 5.020 10.205 7.631 13.936 C 9.068 15.988,10.301 17.722,10.371 17.789 C 10.442 17.856,10.558 17.940,10.628 17.976 C 11.054 18.190,11.767 17.839,11.936 17.332 C 11.996 17.153,12.000 16.659,11.991 11.877 L 11.980 6.620 11.891 6.453 C 11.785 6.256,11.622 6.131,11.371 6.055 C 10.862 5.902,10.311 6.076,10.109 6.453 L 10.020 6.620 10.000 10.207 L 9.980 13.795 7.400 10.108 C 5.981 8.080,4.753 6.354,4.672 6.273 C 4.429 6.029,3.990 5.940,3.614 6.057 M17.008 6.046 C 16.659 6.096,16.163 6.285,15.825 6.496 C 15.008 7.008,14.399 7.865,14.133 8.880 C 14.033 9.261,14.023 9.365,14.023 10.000 C 14.023 10.634,14.033 10.740,14.132 11.120 C 14.456 12.361,15.318 13.382,16.380 13.781 C 17.147 14.070,17.853 14.070,18.620 13.781 C 19.682 13.382,20.544 12.361,20.868 11.120 C 20.967 10.740,20.977 10.634,20.977 10.000 C 20.977 9.365,20.967 9.261,20.867 8.880 C 20.368 6.975,18.760 5.795,17.008 6.046 M17.982 8.117 C 18.358 8.283,18.734 8.756,18.890 9.258 C 19.015 9.657,19.015 10.343,18.890 10.742 C 18.732 11.252,18.362 11.712,17.965 11.893 C 17.711 12.009,17.289 12.009,17.035 11.893 C 16.638 11.712,16.268 11.252,16.110 10.742 C 15.985 10.343,15.985 9.657,16.110 9.258 C 16.255 8.791,16.613 8.320,16.956 8.142 C 17.255 7.987,17.666 7.977,17.982 8.117 M14.614 16.057 C 14.377 16.131,14.212 16.261,14.109 16.453 C 14.035 16.592,14.020 16.684,14.020 17.000 C 14.020 17.331,14.033 17.403,14.120 17.558 C 14.230 17.755,14.414 17.898,14.635 17.959 C 14.832 18.014,20.168 18.014,20.365 17.959 C 20.586 17.898,20.770 17.755,20.880 17.558 C 20.967 17.402,20.980 17.332,20.979 17.000 C 20.978 16.567,20.898 16.355,20.678 16.199 C 20.401 16.002,20.373 16.000,17.484 16.003 C 15.382 16.005,14.743 16.017,14.614 16.057 " stroke="none" fill="black" fill-rule="evenodd"></path></svg>