<svg xmlns="http://www.w3.org/2000/svg" width="24" height="24" viewBox="0 0 24 24" fill="none" stroke="currentColor" stroke-width="2" stroke-linecap="round" stroke-linejoin="round" class="icon icon-tabler icons-tabler-outline icon-tabler-ladder"><path d="M7.614 2.057 C 7.377 2.131,7.212 2.261,7.109 2.453 L 7.020 2.620 7.010 11.914 C 7.003 18.056,7.013 21.260,7.040 21.358 C 7.144 21.747,7.435 21.962,7.896 21.991 C 8.381 22.022,8.699 21.882,8.880 21.558 C 8.979 21.381,8.980 21.374,8.993 20.190 L 9.005 19.000 12.003 19.000 L 15.000 19.000 15.000 20.110 C 15.000 20.730,15.018 21.284,15.041 21.365 C 15.148 21.750,15.437 21.962,15.896 21.991 C 16.381 22.022,16.699 21.882,16.880 21.558 L 16.980 21.380 16.980 12.000 L 16.980 2.620 16.889 2.450 C 16.724 2.140,16.329 1.970,15.874 2.011 C 15.439 2.051,15.141 2.274,15.041 2.635 C 15.018 2.716,15.000 3.270,15.000 3.890 L 15.000 5.000 12.003 5.000 L 9.005 5.000 8.993 3.810 C 8.981 2.669,8.976 2.613,8.891 2.453 C 8.842 2.362,8.746 2.247,8.678 2.199 C 8.414 2.010,7.957 1.950,7.614 2.057 M15.000 8.000 L 15.000 9.000 12.000 9.000 L 9.000 9.000 9.000 8.000 L 9.000 7.000 12.000 7.000 L 15.000 7.000 15.000 8.000 M15.000 12.000 L 15.000 13.000 12.000 13.000 L 9.000 13.000 9.000 12.000 L 9.000 11.000 12.000 11.000 L 15.000 11.000 15.000 12.000 M15.000 16.000 L 15.000 17.000 12.000 17.000 L 9.000 17.000 9.000 16.000 L 9.000 15.000 12.000 15.000 L 15.000 15.000 15.000 16.000 " stroke="none" fill="black" fill-rule="evenodd"></path></svg>