<svg xmlns="http://www.w3.org/2000/svg" width="24" height="24" viewBox="0 0 24 24" fill="none" stroke="currentColor" stroke-width="2" stroke-linecap="round" stroke-linejoin="round" class="icon icon-tabler icons-tabler-outline icon-tabler-view-360-off"><path d="M2.626 2.045 C 2.257 2.239,1.951 2.673,1.951 3.000 C 1.951 3.327,2.064 3.474,3.188 4.605 L 4.247 5.670 3.988 6.005 C 2.915 7.396,2.224 9.145,2.000 11.039 C 1.948 11.482,1.949 12.580,2.002 13.072 C 2.244 15.296,3.210 17.374,4.740 18.955 C 6.330 20.600,8.184 21.563,10.500 21.947 C 11.183 22.060,12.795 22.050,13.500 21.928 C 15.200 21.634,16.748 20.974,17.995 20.012 L 18.330 19.753 19.395 20.812 C 20.082 21.494,20.523 21.902,20.637 21.960 C 20.989 22.137,21.354 22.048,21.701 21.701 C 22.116 21.286,22.159 20.867,21.832 20.440 C 21.790 20.385,18.881 17.464,15.368 13.949 C 4.519 3.094,3.553 2.135,3.372 2.044 C 3.152 1.934,2.835 1.935,2.626 2.045 M11.080 2.043 C 9.906 2.161,8.803 2.463,7.751 2.955 C 7.278 3.177,7.110 3.305,6.993 3.533 C 6.783 3.945,7.087 4.720,7.538 4.925 C 7.746 5.019,7.948 5.019,8.215 4.925 L 8.428 4.850 8.354 5.045 C 8.207 5.434,8.273 5.756,8.551 6.008 C 8.753 6.189,8.893 6.264,9.172 6.336 C 9.607 6.449,9.949 6.268,10.198 5.793 C 10.513 5.192,10.750 4.849,11.080 4.517 C 11.356 4.238,11.466 4.156,11.660 4.083 C 12.062 3.932,12.429 4.037,12.835 4.418 C 13.372 4.923,13.785 5.636,14.188 6.755 L 14.323 7.130 14.111 7.108 C 13.995 7.095,13.457 7.063,12.916 7.035 C 12.139 6.995,11.886 6.995,11.714 7.033 C 11.259 7.135,11.041 7.403,11.009 7.900 C 10.978 8.380,11.119 8.701,11.440 8.878 C 11.604 8.968,11.676 8.978,12.419 9.007 C 13.132 9.036,14.243 9.125,14.646 9.187 C 14.777 9.207,14.793 9.223,14.813 9.354 C 14.875 9.757,14.964 10.868,14.993 11.581 C 15.022 12.324,15.032 12.396,15.122 12.560 C 15.286 12.856,15.573 13.000,16.000 13.000 C 16.428 13.000,16.714 12.856,16.879 12.558 C 16.964 12.403,16.979 12.318,16.993 11.893 C 17.008 11.452,16.954 10.351,16.893 9.869 L 16.869 9.677 17.245 9.812 C 18.364 10.215,19.077 10.628,19.582 11.165 C 19.978 11.587,20.079 12.007,19.883 12.420 C 19.743 12.714,19.175 13.253,18.746 13.500 C 18.555 13.610,18.286 13.765,18.149 13.845 C 17.681 14.117,17.539 14.490,17.720 14.971 C 17.959 15.606,18.410 15.853,18.955 15.646 L 19.150 15.572 19.071 15.796 C 18.921 16.220,19.036 16.555,19.420 16.820 C 19.798 17.081,20.155 17.144,20.462 17.005 C 20.687 16.903,20.822 16.727,21.051 16.240 C 22.704 12.724,22.156 8.553,19.647 5.557 C 18.089 3.697,15.786 2.429,13.360 2.097 C 12.823 2.023,11.572 1.994,11.080 2.043 M16.112 5.131 C 16.890 5.595,17.751 6.364,18.354 7.134 C 18.600 7.448,19.072 8.189,19.141 8.368 C 19.160 8.418,19.038 8.380,18.666 8.222 C 18.121 7.990,17.524 7.782,16.900 7.610 L 16.501 7.499 16.390 7.100 C 16.218 6.477,15.978 5.782,15.763 5.287 C 15.620 4.956,15.585 4.841,15.633 4.859 C 15.669 4.873,15.884 4.995,16.112 5.131 M6.039 7.459 C 6.224 7.645,6.368 7.804,6.358 7.811 C 6.348 7.819,6.133 7.903,5.880 7.998 C 5.627 8.094,5.290 8.231,5.130 8.304 C 4.971 8.376,4.840 8.422,4.840 8.406 C 4.840 8.305,5.606 7.120,5.671 7.120 C 5.688 7.120,5.853 7.272,6.039 7.459 M7.103 9.910 C 6.967 11.177,6.967 12.822,7.103 14.089 L 7.128 14.317 6.794 14.203 C 5.736 13.839,4.955 13.394,4.457 12.873 C 3.853 12.241,3.867 11.693,4.502 11.072 C 4.953 10.632,5.649 10.226,6.553 9.878 C 6.832 9.771,7.075 9.682,7.094 9.681 C 7.113 9.681,7.117 9.784,7.103 9.910 M13.465 14.948 C 13.448 14.966,12.818 14.980,12.067 14.980 C 10.769 14.980,10.394 14.959,9.514 14.835 L 9.208 14.792 9.184 14.626 C 9.063 13.774,9.025 13.128,9.023 11.940 C 9.022 11.236,9.036 10.625,9.053 10.582 C 9.079 10.516,9.414 10.835,11.290 12.710 C 12.504 13.924,13.482 14.931,13.465 14.948 M6.119 16.084 C 6.389 16.177,6.810 16.309,7.054 16.377 L 7.499 16.501 7.623 16.946 C 7.804 17.593,8.057 18.311,8.278 18.806 C 8.384 19.045,8.459 19.240,8.444 19.240 C 8.429 19.240,8.251 19.145,8.047 19.028 C 6.756 18.289,5.678 17.207,4.965 15.935 C 4.852 15.734,4.760 15.560,4.760 15.549 C 4.760 15.538,4.955 15.616,5.194 15.722 C 5.432 15.829,5.849 15.992,6.119 16.084 M10.680 16.961 C 11.647 17.031,13.092 17.004,14.089 16.897 L 14.318 16.872 14.265 17.046 C 14.076 17.658,13.705 18.446,13.366 18.956 C 12.960 19.564,12.404 20.000,12.035 20.000 C 11.775 20.000,11.458 19.852,11.195 19.609 C 10.635 19.090,10.224 18.387,9.813 17.246 L 9.678 16.872 9.909 16.897 C 10.036 16.910,10.383 16.939,10.680 16.961 M16.561 17.982 L 16.900 18.325 16.780 18.424 C 16.457 18.691,15.531 19.248,15.573 19.149 C 15.585 19.122,15.674 18.920,15.770 18.700 C 15.867 18.480,15.998 18.152,16.062 17.970 C 16.126 17.788,16.188 17.640,16.200 17.640 C 16.212 17.640,16.374 17.794,16.561 17.982 " stroke="none" fill="black" fill-rule="evenodd"></path></svg>