<svg xmlns="http://www.w3.org/2000/svg" width="24" height="24" viewBox="0 0 24 24" fill="none" stroke="currentColor" stroke-width="2" stroke-linecap="round" stroke-linejoin="round" class="icon icon-tabler icons-tabler-outline icon-tabler-dog"><path d="M4.540 3.076 C 4.341 3.168,4.226 3.290,4.125 3.520 C 4.081 3.619,3.593 5.257,3.040 7.160 C 2.267 9.820,2.030 10.689,2.013 10.920 C 1.961 11.639,2.355 12.354,3.015 12.740 C 3.256 12.880,3.676 13.000,3.928 13.000 C 4.147 13.000,4.115 12.933,4.242 13.660 C 4.525 15.273,4.945 16.649,5.500 17.780 C 6.351 19.517,7.382 20.462,8.873 20.873 L 9.260 20.979 12.000 20.979 L 14.740 20.979 15.127 20.873 C 16.077 20.611,16.784 20.166,17.450 19.410 C 18.502 18.216,19.313 16.194,19.758 13.660 C 19.885 12.933,19.853 13.000,20.072 13.000 C 20.176 13.000,20.381 12.967,20.526 12.927 C 21.429 12.676,22.053 11.819,21.987 10.920 C 21.970 10.690,21.730 9.811,20.961 7.160 C 20.409 5.257,19.908 3.601,19.849 3.480 C 19.703 3.185,19.494 3.040,19.176 3.014 C 18.996 2.999,18.211 3.113,15.847 3.497 L 12.753 4.000 12.000 4.000 L 11.247 4.000 8.157 3.500 C 6.457 3.225,4.984 3.000,4.884 3.001 C 4.783 3.001,4.628 3.035,4.540 3.076 M7.891 5.483 C 8.479 5.578,8.956 5.669,8.951 5.685 C 8.934 5.729,4.061 10.950,4.047 10.938 C 4.038 10.931,5.615 5.426,5.698 5.176 C 5.709 5.145,5.880 5.159,6.266 5.221 C 6.571 5.270,7.302 5.388,7.891 5.483 M19.139 8.074 C 19.593 9.644,19.960 10.933,19.953 10.939 C 19.938 10.950,15.066 5.729,15.049 5.684 C 15.031 5.634,18.257 5.129,18.286 5.177 C 18.301 5.201,18.684 6.504,19.139 8.074 M15.301 8.904 L 18.010 11.808 17.962 12.174 C 17.639 14.644,17.064 16.512,16.269 17.675 C 16.067 17.970,15.643 18.392,15.365 18.574 C 14.845 18.914,14.492 19.000,13.618 19.000 L 13.000 19.000 13.000 18.389 L 13.000 17.778 13.140 17.703 C 13.337 17.597,13.652 17.252,13.776 17.007 C 14.107 16.355,14.059 15.470,13.678 15.199 C 13.426 15.019,13.262 15.000,12.000 15.000 C 10.738 15.000,10.574 15.019,10.322 15.199 C 9.940 15.471,9.892 16.353,10.224 17.007 C 10.348 17.252,10.663 17.597,10.860 17.703 L 11.000 17.778 11.000 18.389 L 11.000 19.000 10.382 19.000 C 9.723 19.000,9.471 18.966,9.120 18.829 C 8.770 18.692,8.585 18.574,8.285 18.296 C 7.424 17.499,6.813 16.157,6.364 14.080 C 6.215 13.394,6.044 12.332,6.030 12.019 L 6.020 11.779 8.714 8.889 L 11.407 6.000 12.000 6.000 L 12.592 6.000 15.301 8.904 M9.614 10.057 C 9.221 10.180,9.039 10.435,9.009 10.906 C 8.962 11.621,9.306 12.000,10.000 12.000 C 10.698 12.000,11.043 11.616,10.989 10.900 C 10.963 10.563,10.859 10.327,10.678 10.199 C 10.414 10.010,9.957 9.950,9.614 10.057 M13.614 10.057 C 13.221 10.180,13.039 10.435,13.009 10.906 C 12.962 11.621,13.306 12.000,14.000 12.000 C 14.698 12.000,15.043 11.616,14.989 10.900 C 14.963 10.563,14.859 10.327,14.678 10.199 C 14.414 10.010,13.957 9.950,13.614 10.057 " stroke="none" fill="black" fill-rule="evenodd"></path></svg>