<svg xmlns="http://www.w3.org/2000/svg" width="24" height="24" viewBox="0 0 24 24" fill="none" stroke="currentColor" stroke-width="2" stroke-linecap="round" stroke-linejoin="round" class="icon icon-tabler icons-tabler-outline icon-tabler-git-fork"><path d="M6.499 3.040 C 5.363 3.246,4.460 4.049,4.114 5.160 C 3.979 5.594,3.979 6.406,4.114 6.840 C 4.364 7.643,4.931 8.318,5.666 8.686 L 5.991 8.849 6.010 9.714 C 6.026 10.471,6.039 10.615,6.118 10.860 C 6.428 11.826,7.168 12.566,8.140 12.884 C 8.403 12.969,8.498 12.976,9.710 12.991 L 11.000 13.007 11.000 14.076 L 11.000 15.145 10.670 15.313 C 9.922 15.693,9.365 16.355,9.114 17.160 C 8.979 17.594,8.979 18.406,9.114 18.840 C 9.421 19.826,10.174 20.579,11.160 20.886 C 11.594 21.021,12.406 21.021,12.840 20.886 C 13.826 20.579,14.579 19.826,14.886 18.840 C 15.021 18.406,15.021 17.594,14.886 17.160 C 14.635 16.355,14.078 15.693,13.330 15.313 L 13.000 15.145 13.000 14.076 L 13.000 13.007 14.290 12.991 C 15.548 12.976,15.588 12.973,15.887 12.873 C 16.845 12.552,17.575 11.817,17.882 10.860 C 17.961 10.615,17.974 10.471,17.990 9.714 L 18.009 8.849 18.334 8.686 C 19.069 8.318,19.636 7.643,19.886 6.840 C 20.021 6.406,20.021 5.594,19.886 5.160 C 19.581 4.181,18.822 3.418,17.861 3.125 C 17.588 3.042,17.458 3.027,17.000 3.027 C 16.542 3.027,16.412 3.042,16.139 3.125 C 15.178 3.418,14.419 4.181,14.114 5.160 C 13.979 5.594,13.979 6.406,14.114 6.840 C 14.365 7.645,14.931 8.318,15.670 8.688 L 16.000 8.853 16.000 9.480 C 16.000 10.359,15.901 10.627,15.484 10.872 L 15.300 10.980 12.000 10.980 L 8.700 10.980 8.516 10.872 C 8.415 10.813,8.284 10.700,8.225 10.623 C 8.033 10.371,8.000 10.207,8.000 9.502 L 8.000 8.853 8.330 8.688 C 9.069 8.318,9.635 7.645,9.886 6.840 C 10.021 6.406,10.021 5.594,9.886 5.160 C 9.581 4.179,8.810 3.407,7.861 3.129 C 7.500 3.023,6.832 2.980,6.499 3.040 M7.310 5.061 C 7.688 5.173,8.000 5.598,8.000 6.001 C 8.000 6.331,7.784 6.696,7.484 6.872 C 7.328 6.963,7.254 6.980,7.000 6.980 C 6.746 6.980,6.672 6.963,6.516 6.872 C 5.935 6.530,5.833 5.774,6.304 5.303 C 6.583 5.024,6.916 4.944,7.310 5.061 M17.310 5.061 C 17.688 5.173,18.000 5.598,18.000 6.001 C 18.000 6.331,17.784 6.696,17.484 6.872 C 17.328 6.963,17.254 6.980,17.000 6.980 C 16.746 6.980,16.672 6.963,16.516 6.872 C 15.932 6.528,15.831 5.775,16.307 5.299 C 16.582 5.024,16.918 4.944,17.310 5.061 M12.310 17.061 C 12.688 17.173,13.000 17.598,13.000 18.001 C 13.000 18.331,12.784 18.696,12.484 18.872 C 12.328 18.963,12.254 18.980,12.000 18.980 C 11.746 18.980,11.672 18.963,11.516 18.872 C 10.935 18.530,10.833 17.774,11.304 17.303 C 11.583 17.024,11.916 16.944,12.310 17.061 " stroke="none" fill="black" fill-rule="evenodd"></path></svg>