<svg xmlns="http://www.w3.org/2000/svg" width="24" height="24" viewBox="0 0 24 24" fill="none" stroke="currentColor" stroke-width="2" stroke-linecap="round" stroke-linejoin="round" class="icon icon-tabler icons-tabler-outline icon-tabler-notification"><path d="M16.358 3.061 C 15.230 3.237,14.143 3.974,13.569 4.953 C 12.320 7.083,13.233 9.785,15.512 10.704 C 17.558 11.528,19.877 10.538,20.704 8.488 C 21.090 7.530,21.090 6.469,20.705 5.516 C 20.172 4.197,19.001 3.269,17.605 3.058 C 17.144 2.989,16.816 2.990,16.358 3.061 M6.499 5.043 C 5.383 5.230,4.461 6.048,4.114 7.160 L 4.020 7.460 4.020 12.500 L 4.020 17.540 4.114 17.840 C 4.422 18.827,5.173 19.578,6.160 19.886 L 6.460 19.980 11.500 19.980 L 16.540 19.980 16.840 19.886 C 17.827 19.578,18.578 18.827,18.886 17.840 C 18.979 17.543,18.980 17.523,18.980 15.580 L 18.980 13.620 18.889 13.450 C 18.724 13.140,18.329 12.970,17.874 13.011 C 17.439 13.051,17.141 13.274,17.041 13.635 C 17.017 13.721,17.000 14.453,17.000 15.444 C 17.000 17.250,16.991 17.340,16.779 17.618 C 16.718 17.698,16.585 17.813,16.484 17.872 L 16.300 17.980 11.500 17.980 L 6.700 17.980 6.516 17.872 C 6.415 17.813,6.284 17.700,6.225 17.623 C 5.989 17.314,6.000 17.562,6.000 12.522 C 6.000 7.299,5.981 7.625,6.303 7.303 C 6.601 7.005,6.638 7.000,8.557 7.000 C 9.548 7.000,10.279 6.983,10.365 6.959 C 10.586 6.898,10.770 6.755,10.880 6.558 C 10.967 6.402,10.980 6.332,10.979 6.000 C 10.978 5.567,10.898 5.355,10.678 5.199 C 10.412 5.009,10.303 5.000,8.444 5.005 C 7.485 5.007,6.609 5.025,6.499 5.043 M17.523 5.073 C 18.262 5.266,18.850 5.924,18.967 6.690 C 19.067 7.343,18.873 7.933,18.403 8.404 C 18.002 8.807,17.547 9.000,17.000 9.000 C 16.485 9.000,16.038 8.822,15.653 8.465 C 14.323 7.229,15.189 5.005,17.000 5.005 C 17.143 5.005,17.378 5.036,17.523 5.073 " stroke="none" fill="black" fill-rule="evenodd"></path></svg>