<svg xmlns="http://www.w3.org/2000/svg" width="24" height="24" viewBox="0 0 24 24" fill="none" stroke="currentColor" stroke-width="2" stroke-linecap="round" stroke-linejoin="round" class="icon icon-tabler icons-tabler-outline icon-tabler-currency-tenge"><path d="M5.614 4.057 C 5.377 4.131,5.212 4.261,5.109 4.453 C 5.035 4.592,5.020 4.684,5.020 5.000 C 5.020 5.331,5.033 5.403,5.120 5.558 C 5.230 5.755,5.414 5.898,5.635 5.959 C 5.834 6.015,18.166 6.015,18.365 5.959 C 18.586 5.898,18.770 5.755,18.880 5.558 C 18.967 5.402,18.980 5.332,18.979 5.000 C 18.978 4.567,18.898 4.355,18.678 4.199 C 18.388 3.992,18.642 4.000,11.984 4.003 C 7.009 4.005,5.747 4.016,5.614 4.057 M5.614 8.057 C 5.377 8.131,5.212 8.261,5.109 8.453 C 5.035 8.592,5.020 8.684,5.020 9.000 C 5.020 9.331,5.033 9.403,5.120 9.558 C 5.230 9.755,5.414 9.898,5.635 9.959 C 5.725 9.984,6.765 10.000,8.390 10.000 L 11.000 10.000 11.000 14.610 C 11.000 17.575,11.015 19.272,11.041 19.365 C 11.148 19.750,11.437 19.962,11.896 19.991 C 12.381 20.022,12.699 19.882,12.880 19.558 L 12.980 19.380 12.991 14.690 L 13.002 10.000 15.611 10.000 C 17.235 10.000,18.275 9.984,18.365 9.959 C 18.586 9.898,18.770 9.755,18.880 9.558 C 18.967 9.402,18.980 9.332,18.979 9.000 C 18.978 8.567,18.898 8.355,18.678 8.199 C 18.388 7.992,18.642 8.000,11.984 8.003 C 7.009 8.005,5.747 8.016,5.614 8.057 " stroke="none" fill="black" fill-rule="evenodd"></path></svg>