<svg xmlns="http://www.w3.org/2000/svg" width="24" height="24" viewBox="0 0 24 24" fill="none" stroke="currentColor" stroke-width="2" stroke-linecap="round" stroke-linejoin="round" class="icon icon-tabler icons-tabler-outline icon-tabler-trash"><path d="M9.477 2.073 C 8.806 2.249,8.238 2.823,8.060 3.508 C 8.014 3.685,8.000 3.994,8.000 4.868 L 8.000 6.000 5.906 6.000 C 3.674 6.000,3.592 6.006,3.322 6.199 C 3.139 6.329,3.030 6.573,3.009 6.900 C 2.967 7.552,3.261 7.937,3.842 7.990 C 3.973 8.001,4.080 8.018,4.080 8.026 C 4.080 8.035,4.296 10.638,4.560 13.811 C 4.957 18.583,5.054 19.628,5.124 19.860 C 5.408 20.812,6.180 21.580,7.160 21.886 L 7.460 21.980 12.000 21.980 L 16.540 21.980 16.840 21.886 C 17.820 21.580,18.592 20.812,18.876 19.860 C 18.946 19.628,19.043 18.583,19.440 13.811 C 19.704 10.638,19.920 8.035,19.920 8.026 C 19.920 8.018,20.025 8.002,20.153 7.990 C 20.397 7.968,20.655 7.860,20.765 7.734 C 20.933 7.543,20.978 7.387,20.978 7.000 C 20.978 6.567,20.899 6.356,20.678 6.199 C 20.408 6.006,20.326 6.000,18.094 6.000 L 16.000 6.000 15.999 4.890 C 15.999 3.691,15.970 3.456,15.781 3.083 C 15.646 2.816,15.297 2.449,15.017 2.281 C 14.564 2.008,14.524 2.005,12.000 2.005 C 9.992 2.005,9.711 2.012,9.477 2.073 M14.000 5.000 L 14.000 6.000 12.000 6.000 L 10.000 6.000 10.000 5.000 L 10.000 4.000 12.000 4.000 L 14.000 4.000 14.000 5.000 M17.900 8.150 C 17.889 8.232,17.681 10.712,17.439 13.660 C 17.198 16.608,16.981 19.112,16.958 19.224 C 16.906 19.483,16.725 19.730,16.486 19.871 L 16.300 19.980 12.000 19.980 L 7.700 19.980 7.516 19.872 C 7.324 19.759,7.151 19.563,7.076 19.373 C 7.051 19.311,6.827 16.812,6.578 13.820 C 6.329 10.828,6.116 8.295,6.104 8.190 L 6.084 8.000 12.002 8.000 L 17.921 8.000 17.900 8.150 M9.614 10.057 C 9.377 10.131,9.212 10.261,9.109 10.453 L 9.020 10.620 9.009 13.912 C 9.002 16.060,9.012 17.257,9.039 17.356 C 9.144 17.747,9.434 17.961,9.896 17.991 C 10.381 18.022,10.699 17.882,10.880 17.558 L 10.980 17.380 10.980 14.000 L 10.980 10.620 10.891 10.453 C 10.842 10.362,10.746 10.247,10.678 10.199 C 10.414 10.010,9.957 9.950,9.614 10.057 M13.614 10.057 C 13.377 10.131,13.212 10.261,13.109 10.453 L 13.020 10.620 13.009 13.912 C 13.002 16.060,13.012 17.257,13.039 17.356 C 13.144 17.747,13.434 17.961,13.896 17.991 C 14.381 18.022,14.699 17.882,14.880 17.558 L 14.980 17.380 14.980 14.000 L 14.980 10.620 14.891 10.453 C 14.842 10.362,14.746 10.247,14.678 10.199 C 14.414 10.010,13.957 9.950,13.614 10.057 " stroke="none" fill="black" fill-rule="evenodd"></path></svg>