<svg xmlns="http://www.w3.org/2000/svg" width="24" height="24" viewBox="0 0 24 24" fill="none" stroke="currentColor" stroke-width="2" stroke-linecap="round" stroke-linejoin="round" class="icon icon-tabler icons-tabler-outline icon-tabler-chart-arrows-vertical"><path d="M5.530 2.083 C 5.393 2.150,5.249 2.252,5.210 2.310 C 5.172 2.369,4.463 3.101,3.635 3.938 C 2.635 4.949,2.099 5.520,2.040 5.637 C 1.863 5.989,1.952 6.354,2.299 6.701 C 2.646 7.048,3.012 7.137,3.363 6.959 C 3.469 6.905,3.832 6.580,4.270 6.147 L 5.000 5.425 5.000 12.712 L 5.000 20.000 3.906 20.000 C 2.744 20.000,2.570 20.022,2.322 20.199 C 2.100 20.357,2.020 20.568,2.020 21.000 C 2.020 21.331,2.033 21.403,2.120 21.558 C 2.230 21.755,2.414 21.898,2.635 21.959 C 2.835 22.015,21.165 22.015,21.365 21.959 C 21.586 21.898,21.770 21.755,21.880 21.558 C 21.967 21.402,21.980 21.332,21.979 21.000 C 21.978 20.567,21.898 20.355,21.678 20.199 C 21.430 20.022,21.256 20.000,20.094 20.000 L 19.000 20.000 19.000 14.712 L 19.000 9.425 19.730 10.147 C 20.168 10.580,20.531 10.905,20.637 10.959 C 20.988 11.137,21.354 11.048,21.701 10.701 C 22.048 10.354,22.137 9.989,21.960 9.637 C 21.901 9.520,21.365 8.949,20.365 7.938 C 19.537 7.101,18.828 6.369,18.789 6.310 C 18.684 6.150,18.255 5.960,18.000 5.960 C 17.745 5.960,17.316 6.150,17.211 6.310 C 17.172 6.369,16.463 7.101,15.635 7.938 C 14.635 8.949,14.099 9.520,14.040 9.637 C 13.863 9.989,13.952 10.354,14.299 10.701 C 14.646 11.048,15.012 11.137,15.363 10.959 C 15.469 10.905,15.832 10.580,16.270 10.147 L 17.000 9.425 17.000 14.712 L 17.000 20.000 15.000 20.000 L 13.000 20.000 13.000 17.212 L 13.000 14.425 13.730 15.147 C 14.168 15.580,14.531 15.905,14.637 15.959 C 14.988 16.137,15.354 16.048,15.701 15.701 C 16.048 15.354,16.137 14.989,15.960 14.637 C 15.901 14.520,15.365 13.949,14.365 12.938 C 13.537 12.101,12.828 11.369,12.789 11.310 C 12.684 11.150,12.255 10.960,12.000 10.960 C 11.745 10.960,11.316 11.150,11.211 11.310 C 11.172 11.369,10.463 12.101,9.635 12.938 C 8.635 13.949,8.099 14.520,8.040 14.637 C 7.863 14.989,7.952 15.354,8.299 15.701 C 8.646 16.048,9.012 16.137,9.363 15.959 C 9.469 15.905,9.832 15.580,10.270 15.147 L 11.000 14.425 11.000 17.212 L 11.000 20.000 9.000 20.000 L 7.000 20.000 7.000 12.712 L 7.000 5.425 7.730 6.147 C 8.168 6.580,8.531 6.905,8.637 6.959 C 8.988 7.137,9.354 7.048,9.701 6.701 C 10.048 6.354,10.137 5.989,9.960 5.637 C 9.901 5.520,9.365 4.949,8.365 3.938 C 7.537 3.101,6.828 2.369,6.789 2.310 C 6.751 2.252,6.604 2.149,6.464 2.082 C 6.120 1.918,5.871 1.918,5.530 2.083 " stroke="none" fill="black" fill-rule="evenodd"></path></svg>