<svg xmlns="http://www.w3.org/2000/svg" width="24" height="24" viewBox="0 0 24 24" fill="none" stroke="currentColor" stroke-width="2" stroke-linecap="round" stroke-linejoin="round" class="icon icon-tabler icons-tabler-outline icon-tabler-puzzle-2"><path d="M5.499 3.043 C 4.380 3.233,3.461 4.048,3.114 5.160 L 3.020 5.460 3.020 12.000 L 3.020 18.540 3.114 18.840 C 3.422 19.827,4.173 20.578,5.160 20.886 L 5.460 20.980 12.000 20.980 L 18.540 20.980 18.840 20.886 C 19.827 20.578,20.578 19.827,20.886 18.840 L 20.980 18.540 20.980 12.000 L 20.980 5.460 20.886 5.160 C 20.581 4.182,19.832 3.428,18.861 3.121 L 18.540 3.020 12.120 3.014 C 8.589 3.011,5.609 3.024,5.499 3.043 M10.991 5.525 L 10.980 6.049 10.759 6.117 C 10.003 6.351,9.361 6.979,9.118 7.722 C 9.034 7.976,9.020 8.094,9.022 8.520 C 9.024 8.959,9.038 9.056,9.133 9.320 C 9.396 10.050,9.994 10.637,10.721 10.880 L 11.020 10.980 10.572 11.006 C 10.210 11.027,10.081 11.052,9.892 11.138 C 9.412 11.357,9.055 11.857,9.010 12.374 C 8.984 12.676,8.915 12.820,8.748 12.922 C 8.585 13.021,8.415 13.021,8.252 12.922 C 8.085 12.820,8.016 12.676,7.990 12.374 C 7.945 11.855,7.590 11.360,7.100 11.132 C 6.862 11.022,6.850 11.020,5.930 11.006 L 5.000 10.993 5.000 8.444 C 5.000 5.538,4.993 5.614,5.304 5.303 C 5.609 4.997,5.520 5.006,8.431 5.003 L 11.002 5.000 10.991 5.525 M18.310 5.061 C 18.452 5.103,18.571 5.178,18.697 5.303 C 19.007 5.614,19.000 5.538,19.000 8.447 L 19.000 11.000 18.484 11.000 L 17.969 11.000 17.875 10.710 C 17.679 10.108,17.204 9.565,16.620 9.277 C 15.884 8.913,15.116 8.913,14.380 9.277 C 13.794 9.567,13.317 10.112,13.118 10.722 L 13.020 11.020 12.998 10.580 C 12.980 10.214,12.958 10.100,12.866 9.900 C 12.643 9.413,12.172 9.073,11.646 9.018 C 11.500 9.002,11.330 8.964,11.268 8.933 C 11.127 8.861,11.000 8.656,11.000 8.500 C 11.000 8.344,11.127 8.139,11.268 8.067 C 11.330 8.036,11.491 8.001,11.628 7.989 C 12.141 7.945,12.645 7.586,12.867 7.104 C 12.979 6.862,12.980 6.854,12.993 5.930 L 13.005 5.000 15.555 5.000 C 17.722 5.000,18.136 5.009,18.310 5.061 M15.748 11.078 C 15.915 11.180,15.984 11.324,16.010 11.626 C 16.055 12.145,16.409 12.639,16.900 12.868 C 17.138 12.979,17.148 12.980,18.070 12.993 L 19.000 13.005 19.000 15.556 C 19.000 18.324,19.000 18.328,18.779 18.618 C 18.718 18.698,18.585 18.813,18.484 18.872 L 18.300 18.980 15.650 18.991 L 13.000 19.002 13.000 18.486 L 13.000 17.969 13.289 17.874 C 14.001 17.642,14.604 17.048,14.868 16.320 C 14.965 16.052,14.976 15.965,14.976 15.500 C 14.976 15.035,14.965 14.948,14.868 14.680 C 14.604 13.952,13.966 13.333,13.260 13.122 C 12.965 13.034,12.978 13.024,13.420 13.000 C 13.784 12.981,13.902 12.957,14.100 12.866 C 14.589 12.642,14.945 12.146,14.990 11.626 C 15.016 11.324,15.085 11.180,15.252 11.078 C 15.415 10.979,15.585 10.979,15.748 11.078 M6.126 13.289 C 6.358 14.001,6.952 14.604,7.680 14.868 C 7.948 14.965,8.035 14.976,8.500 14.976 C 8.965 14.976,9.052 14.965,9.320 14.868 C 10.051 14.603,10.637 14.006,10.880 13.279 L 10.980 12.980 11.002 13.420 C 11.020 13.786,11.042 13.900,11.134 14.100 C 11.358 14.589,11.854 14.945,12.374 14.990 C 12.676 15.016,12.820 15.085,12.922 15.252 C 13.021 15.415,13.021 15.585,12.922 15.748 C 12.819 15.917,12.677 15.984,12.354 16.018 C 11.829 16.073,11.360 16.411,11.132 16.900 C 11.021 17.138,11.020 17.147,11.007 18.071 L 10.995 19.002 8.347 18.991 L 5.700 18.980 5.516 18.872 C 5.415 18.813,5.284 18.700,5.225 18.623 C 4.996 18.323,5.000 18.373,5.000 15.575 L 5.000 13.000 5.516 13.000 L 6.031 13.000 6.126 13.289 " stroke="none" fill="black" fill-rule="evenodd"></path></svg>