<svg xmlns="http://www.w3.org/2000/svg" width="24" height="24" viewBox="0 0 24 24" fill="none" stroke="currentColor" stroke-width="2" stroke-linecap="round" stroke-linejoin="round" class="icon icon-tabler icons-tabler-outline icon-tabler-hours-12"><path d="M11.420 3.044 C 9.220 3.163,7.123 4.116,5.514 5.728 L 5.007 6.235 4.993 5.428 C 4.980 4.682,4.972 4.607,4.889 4.450 C 4.724 4.141,4.329 3.970,3.874 4.011 C 3.434 4.051,3.138 4.276,3.039 4.645 C 3.012 4.744,3.001 5.608,3.009 7.089 L 3.020 9.380 3.120 9.558 C 3.234 9.761,3.417 9.900,3.656 9.964 C 3.864 10.021,8.153 10.016,8.364 9.959 C 8.584 9.900,8.769 9.756,8.880 9.558 C 8.967 9.402,8.980 9.332,8.979 9.000 C 8.977 8.469,8.850 8.243,8.455 8.072 C 8.377 8.038,7.994 8.015,7.264 8.001 L 6.188 7.980 6.396 7.720 C 7.237 6.668,8.420 5.834,9.702 5.388 C 11.539 4.749,13.830 4.970,15.501 5.948 C 16.653 6.623,17.631 7.630,18.233 8.760 C 18.594 9.439,18.819 10.095,18.964 10.900 C 19.068 11.470,19.181 11.720,19.404 11.867 C 19.559 11.970,19.606 11.980,19.937 11.980 C 20.247 11.980,20.333 11.964,20.527 11.874 C 20.962 11.670,21.073 11.320,20.941 10.573 C 20.554 8.387,19.372 6.382,17.671 5.028 C 16.207 3.862,14.339 3.134,12.620 3.057 C 12.356 3.046,12.095 3.031,12.040 3.026 C 11.985 3.020,11.706 3.028,11.420 3.044 M3.709 12.041 C 3.090 12.197,2.913 12.573,3.057 13.424 C 3.378 15.316,4.244 16.994,5.606 18.363 C 6.982 19.745,8.673 20.623,10.576 20.943 C 11.328 21.070,11.671 20.960,11.874 20.527 C 11.964 20.333,11.980 20.247,11.980 19.937 C 11.980 19.608,11.970 19.559,11.870 19.408 C 11.717 19.176,11.529 19.095,10.828 18.956 C 9.069 18.609,7.722 17.825,6.608 16.500 C 5.784 15.520,5.270 14.413,5.037 13.120 C 4.885 12.271,4.698 12.039,4.149 12.016 C 3.990 12.009,3.792 12.020,3.709 12.041 M14.614 14.057 C 14.377 14.131,14.212 14.261,14.109 14.453 L 14.020 14.620 14.009 17.912 C 14.002 20.060,14.012 21.257,14.039 21.356 C 14.144 21.747,14.434 21.961,14.896 21.991 C 15.381 22.022,15.699 21.882,15.880 21.558 L 15.980 21.380 15.980 18.000 L 15.980 14.620 15.891 14.453 C 15.842 14.362,15.746 14.247,15.678 14.199 C 15.414 14.010,14.957 13.950,14.614 14.057 M17.614 14.057 C 17.377 14.131,17.212 14.261,17.109 14.453 C 17.035 14.592,17.020 14.684,17.020 15.000 C 17.020 15.331,17.033 15.403,17.120 15.558 C 17.230 15.755,17.414 15.898,17.635 15.959 C 17.716 15.982,18.270 16.000,18.890 16.000 L 20.000 16.000 20.000 16.500 L 20.000 17.000 19.370 17.002 C 18.410 17.006,18.002 17.150,17.535 17.653 C 17.091 18.131,17.000 18.446,17.000 19.500 C 17.000 20.329,17.036 20.556,17.225 20.930 C 17.361 21.199,17.801 21.639,18.070 21.775 C 18.478 21.982,18.633 22.000,19.978 22.000 C 20.687 22.000,21.282 21.982,21.365 21.959 C 21.586 21.898,21.770 21.755,21.880 21.558 C 21.967 21.402,21.980 21.332,21.979 21.000 C 21.978 20.567,21.898 20.355,21.678 20.199 C 21.430 20.022,21.256 20.000,20.094 20.000 L 19.000 20.000 19.000 19.500 L 19.000 19.000 19.632 19.000 C 20.574 19.000,20.927 18.881,21.404 18.404 C 21.895 17.913,22.000 17.579,21.999 16.514 C 21.999 15.716,21.954 15.424,21.781 15.083 C 21.646 14.816,21.297 14.449,21.017 14.281 C 20.600 14.030,20.416 14.005,19.020 14.005 C 18.115 14.005,17.735 14.019,17.614 14.057 " stroke="none" fill="black" fill-rule="evenodd"></path></svg>