<svg xmlns="http://www.w3.org/2000/svg" width="24" height="24" viewBox="0 0 24 24" fill="none" stroke="currentColor" stroke-width="2" stroke-linecap="round" stroke-linejoin="round" class="icon icon-tabler icons-tabler-outline icon-tabler-layers-difference"><path d="M9.499 3.043 C 8.388 3.232,7.470 4.041,7.118 5.140 C 7.042 5.379,7.026 5.536,7.010 6.205 L 6.991 6.991 6.225 7.010 C 5.567 7.027,5.415 7.043,5.139 7.126 C 4.181 7.415,3.420 8.179,3.114 9.160 L 3.020 9.460 3.020 14.000 L 3.020 18.540 3.114 18.840 C 3.422 19.827,4.173 20.578,5.160 20.886 L 5.460 20.980 10.000 20.980 L 14.540 20.980 14.840 20.886 C 15.818 20.581,16.570 19.834,16.882 18.860 C 16.958 18.621,16.974 18.464,16.990 17.795 L 17.009 17.009 17.795 16.990 C 18.464 16.974,18.621 16.958,18.860 16.882 C 19.834 16.570,20.581 15.818,20.886 14.840 L 20.980 14.540 20.980 10.000 L 20.980 5.460 20.886 5.160 C 20.581 4.182,19.832 3.428,18.861 3.121 L 18.540 3.020 14.120 3.014 C 11.689 3.011,9.609 3.024,9.499 3.043 M18.310 5.061 C 18.589 5.144,18.856 5.411,18.939 5.690 C 18.992 5.867,19.000 6.441,19.000 10.001 C 19.000 14.458,19.007 14.319,18.779 14.618 C 18.718 14.698,18.585 14.813,18.484 14.872 C 18.308 14.975,18.272 14.981,17.654 14.993 L 17.008 15.007 16.993 14.313 C 16.975 13.523,16.927 13.365,16.649 13.182 C 16.199 12.887,15.426 12.979,15.170 13.358 C 15.029 13.568,15.000 13.739,15.000 14.390 L 15.000 15.000 14.406 15.000 C 13.577 15.000,13.300 15.097,13.109 15.453 C 13.035 15.592,13.020 15.684,13.020 16.000 C 13.020 16.331,13.033 16.403,13.120 16.558 C 13.230 16.755,13.414 16.898,13.635 16.959 C 13.715 16.981,14.055 17.000,14.390 17.000 L 15.000 17.000 15.000 17.554 C 15.000 18.352,14.890 18.633,14.484 18.872 L 14.300 18.980 10.000 18.980 L 5.700 18.980 5.516 18.872 C 5.415 18.813,5.284 18.700,5.225 18.623 C 4.990 18.315,5.000 18.515,5.000 14.022 C 5.000 9.357,4.983 9.623,5.303 9.303 C 5.554 9.052,5.751 9.000,6.447 9.000 L 7.000 9.000 7.000 9.610 C 7.000 9.945,7.019 10.285,7.041 10.365 C 7.148 10.750,7.437 10.962,7.896 10.991 C 8.381 11.022,8.699 10.882,8.880 10.558 C 8.974 10.391,8.981 10.338,8.994 9.690 L 9.008 9.000 9.614 9.000 C 9.947 9.000,10.285 8.981,10.365 8.959 C 10.586 8.898,10.770 8.755,10.880 8.558 C 10.967 8.402,10.980 8.332,10.979 8.000 C 10.978 7.687,10.962 7.591,10.890 7.453 C 10.702 7.097,10.424 7.000,9.594 7.000 L 9.000 7.000 9.000 6.447 C 9.000 5.750,9.052 5.554,9.304 5.303 C 9.618 4.989,9.346 5.006,13.983 5.003 C 17.563 5.000,18.132 5.008,18.310 5.061 M13.614 7.057 C 13.377 7.131,13.212 7.261,13.109 7.453 C 13.035 7.592,13.020 7.684,13.020 8.000 C 13.020 8.331,13.033 8.403,13.120 8.558 C 13.230 8.755,13.414 8.898,13.635 8.959 C 13.715 8.981,14.055 9.000,14.390 9.000 L 15.000 9.000 15.000 9.610 C 15.000 9.945,15.019 10.285,15.041 10.365 C 15.148 10.750,15.437 10.962,15.896 10.991 C 16.381 11.022,16.699 10.882,16.880 10.558 L 16.980 10.380 16.980 9.000 C 16.980 7.650,16.978 7.616,16.891 7.453 C 16.785 7.256,16.622 7.131,16.371 7.055 C 16.117 6.979,13.859 6.981,13.614 7.057 M7.614 13.057 C 7.377 13.131,7.212 13.261,7.109 13.453 C 7.022 13.616,7.020 13.650,7.020 15.000 L 7.020 16.380 7.120 16.558 C 7.230 16.755,7.414 16.898,7.635 16.959 C 7.826 17.012,10.174 17.012,10.365 16.959 C 10.586 16.898,10.770 16.755,10.880 16.558 C 10.967 16.402,10.980 16.332,10.979 16.000 C 10.978 15.687,10.962 15.591,10.890 15.453 C 10.702 15.098,10.423 15.000,9.598 15.000 L 9.008 15.000 8.993 14.310 C 8.976 13.541,8.930 13.378,8.678 13.199 C 8.414 13.010,7.957 12.950,7.614 13.057 " stroke="none" fill="black" fill-rule="evenodd"></path></svg>