<svg xmlns="http://www.w3.org/2000/svg" width="24" height="24" viewBox="0 0 24 24" fill="none" stroke="currentColor" stroke-width="2" stroke-linecap="round" stroke-linejoin="round" class="icon icon-tabler icons-tabler-outline icon-tabler-jetpack"><path d="M6.358 2.061 C 4.731 2.315,3.417 3.584,3.083 5.227 C 3.003 5.620,3.000 5.750,3.000 9.426 C 3.000 11.844,3.015 13.272,3.041 13.365 C 3.102 13.586,3.245 13.770,3.442 13.880 L 3.620 13.980 6.912 13.991 C 9.060 13.998,10.257 13.988,10.356 13.961 C 10.584 13.900,10.768 13.758,10.880 13.558 C 10.974 13.391,10.981 13.338,10.994 12.690 L 11.008 12.000 12.001 12.000 L 12.993 12.000 13.007 12.690 C 13.019 13.339,13.026 13.391,13.120 13.558 C 13.230 13.755,13.414 13.898,13.635 13.959 C 13.832 14.014,20.168 14.014,20.365 13.959 C 20.586 13.898,20.770 13.755,20.880 13.558 L 20.980 13.380 20.991 9.511 C 21.002 5.769,20.999 5.629,20.921 5.247 C 20.721 4.264,20.198 3.416,19.438 2.843 C 18.866 2.412,18.276 2.160,17.605 2.058 C 17.121 1.986,16.879 1.986,16.395 2.058 C 15.002 2.269,13.833 3.195,13.289 4.521 C 13.081 5.027,13.000 5.531,13.000 6.316 L 13.000 7.000 12.000 7.000 L 11.000 7.000 11.000 6.316 C 11.000 5.522,10.924 5.058,10.705 4.516 C 10.172 3.197,9.001 2.269,7.605 2.058 C 7.144 1.989,6.816 1.990,6.358 2.061 M7.523 4.073 C 8.022 4.203,8.516 4.599,8.772 5.071 C 8.995 5.484,8.999 5.541,8.999 8.910 L 9.000 12.000 7.000 12.000 L 5.000 12.000 5.000 8.898 C 5.000 5.445,4.999 5.457,5.265 5.014 C 5.745 4.212,6.635 3.841,7.523 4.073 M17.523 4.073 C 18.022 4.203,18.516 4.599,18.772 5.071 C 18.995 5.484,18.999 5.541,18.999 8.910 L 19.000 12.000 17.000 12.000 L 15.000 12.000 15.000 8.898 C 15.000 5.445,14.999 5.457,15.265 5.014 C 15.745 4.212,16.635 3.841,17.523 4.073 M13.000 9.500 L 13.000 10.000 12.000 10.000 L 11.000 10.000 11.000 9.500 L 11.000 9.000 12.000 9.000 L 13.000 9.000 13.000 9.500 M4.614 15.057 C 4.377 15.131,4.212 15.261,4.109 15.453 C 4.026 15.609,4.020 15.668,4.023 16.340 C 4.027 17.148,4.102 17.760,4.283 18.469 C 4.599 19.704,5.112 20.605,5.952 21.405 C 6.441 21.869,6.689 22.013,7.000 22.013 C 7.311 22.013,7.559 21.869,8.048 21.405 C 8.560 20.918,8.905 20.455,9.201 19.860 C 9.727 18.802,9.972 17.678,9.977 16.300 C 9.980 15.670,9.973 15.608,9.891 15.453 C 9.785 15.256,9.622 15.131,9.371 15.055 C 8.861 14.902,8.306 15.077,8.113 15.453 C 8.040 15.594,8.022 15.727,7.993 16.300 C 7.921 17.739,7.621 18.785,7.070 19.524 L 7.000 19.618 6.930 19.524 C 6.379 18.785,6.082 17.749,6.006 16.299 C 5.966 15.542,5.914 15.367,5.678 15.199 C 5.414 15.010,4.957 14.950,4.614 15.057 M14.614 15.057 C 14.377 15.131,14.212 15.261,14.109 15.453 C 14.026 15.609,14.020 15.668,14.023 16.340 C 14.027 17.148,14.102 17.760,14.283 18.469 C 14.599 19.704,15.112 20.605,15.952 21.405 C 16.441 21.869,16.689 22.013,17.000 22.013 C 17.311 22.013,17.559 21.869,18.048 21.405 C 18.560 20.918,18.905 20.455,19.201 19.860 C 19.727 18.802,19.972 17.678,19.977 16.300 C 19.980 15.670,19.973 15.608,19.891 15.453 C 19.785 15.256,19.622 15.131,19.371 15.055 C 18.861 14.902,18.306 15.077,18.113 15.453 C 18.040 15.594,18.022 15.727,17.993 16.300 C 17.921 17.739,17.621 18.785,17.070 19.524 L 17.000 19.618 16.930 19.524 C 16.379 18.785,16.082 17.749,16.006 16.299 C 15.966 15.542,15.914 15.367,15.678 15.199 C 15.414 15.010,14.957 14.950,14.614 15.057 " stroke="none" fill="black" fill-rule="evenodd"></path></svg>