<svg xmlns="http://www.w3.org/2000/svg" width="24" height="24" viewBox="0 0 24 24" fill="none" stroke="currentColor" stroke-width="2" stroke-linecap="round" stroke-linejoin="round" class="icon icon-tabler icons-tabler-outline icon-tabler-code-minus"><path d="M5.499 4.043 C 4.393 4.229,3.483 5.028,3.115 6.140 C 3.024 6.416,3.022 6.450,3.009 8.499 L 2.995 10.578 2.563 11.021 C 2.081 11.514,1.951 11.722,1.951 12.000 C 1.951 12.278,2.081 12.486,2.563 12.979 L 2.995 13.422 3.009 15.501 C 3.022 17.550,3.024 17.584,3.115 17.860 C 3.439 18.839,4.189 19.586,5.140 19.878 C 5.479 19.982,6.113 20.028,6.344 19.965 C 6.584 19.899,6.767 19.761,6.880 19.558 C 6.967 19.402,6.980 19.332,6.979 19.000 C 6.978 18.687,6.962 18.591,6.890 18.453 C 6.737 18.164,6.521 18.052,6.007 17.999 C 5.627 17.959,5.398 17.849,5.226 17.625 C 5.016 17.349,5.021 17.408,5.000 14.980 C 4.977 12.397,5.006 12.611,4.629 12.212 L 4.428 12.000 4.629 11.788 C 5.006 11.389,4.977 11.603,5.000 9.020 C 5.022 6.483,5.010 6.593,5.301 6.301 C 5.497 6.106,5.660 6.041,6.062 6.000 C 6.535 5.951,6.738 5.836,6.904 5.520 C 7.018 5.305,7.009 4.679,6.890 4.453 C 6.687 4.070,6.198 3.926,5.499 4.043 M17.614 4.055 C 17.220 4.184,17.039 4.437,17.009 4.900 C 16.965 5.591,17.248 5.929,17.933 5.999 C 18.340 6.041,18.503 6.105,18.699 6.301 C 18.990 6.593,18.978 6.483,19.000 9.020 C 19.023 11.603,18.994 11.389,19.371 11.788 L 19.572 12.000 19.371 12.212 C 18.994 12.611,19.023 12.397,19.000 14.980 C 18.979 17.408,18.984 17.349,18.774 17.625 C 18.599 17.853,18.374 17.959,17.976 18.000 C 17.248 18.076,16.964 18.399,17.009 19.104 C 17.039 19.572,17.251 19.854,17.656 19.965 C 17.887 20.028,18.521 19.982,18.860 19.878 C 19.811 19.586,20.561 18.839,20.885 17.860 C 20.976 17.584,20.978 17.550,20.991 15.501 L 21.005 13.422 21.437 12.979 C 21.919 12.486,22.049 12.278,22.049 12.000 C 22.049 11.722,21.919 11.514,21.437 11.021 L 21.005 10.578 20.991 8.499 C 20.978 6.450,20.976 6.416,20.885 6.140 C 20.560 5.158,19.799 4.402,18.861 4.129 C 18.459 4.013,17.851 3.976,17.614 4.055 M8.614 11.057 C 8.377 11.131,8.212 11.261,8.109 11.453 C 8.035 11.592,8.020 11.684,8.020 12.000 C 8.020 12.331,8.033 12.403,8.120 12.558 C 8.230 12.755,8.414 12.898,8.635 12.959 C 8.832 13.014,15.168 13.014,15.365 12.959 C 15.586 12.898,15.770 12.755,15.880 12.558 C 15.967 12.402,15.980 12.332,15.979 12.000 C 15.978 11.567,15.898 11.355,15.678 11.199 C 15.398 10.999,15.411 11.000,11.984 11.003 C 9.472 11.005,8.744 11.017,8.614 11.057 " stroke="none" fill="black" fill-rule="evenodd"></path></svg>