<svg xmlns="http://www.w3.org/2000/svg" width="24" height="24" viewBox="0 0 24 24" fill="none" stroke="currentColor" stroke-width="2" stroke-linecap="round" stroke-linejoin="round" class="icon icon-tabler icons-tabler-outline icon-tabler-transfer-out"><path d="M11.680 2.055 C 11.603 2.085,9.702 3.029,7.455 4.153 C 3.029 6.367,3.161 6.291,3.046 6.674 C 2.988 6.871,2.983 9.156,3.041 9.365 C 3.148 9.750,3.437 9.962,3.896 9.991 C 4.381 10.022,4.699 9.882,4.880 9.558 C 4.977 9.386,4.980 9.352,4.993 8.498 L 5.006 7.617 8.503 5.868 L 12.000 4.120 15.500 5.870 L 19.000 7.620 19.000 13.810 L 19.000 20.000 12.004 20.000 L 5.008 20.000 4.993 19.310 C 4.975 18.523,4.927 18.364,4.649 18.182 C 4.198 17.887,3.426 17.979,3.170 18.358 C 3.009 18.597,2.995 18.742,3.008 20.092 L 3.020 21.380 3.120 21.558 C 3.230 21.755,3.414 21.898,3.635 21.959 C 3.835 22.015,20.165 22.015,20.365 21.959 C 20.586 21.898,20.770 21.755,20.880 21.558 L 20.980 21.380 20.991 14.120 C 21.000 8.727,20.991 6.817,20.957 6.692 C 20.847 6.292,21.006 6.383,16.460 4.111 C 12.546 2.154,12.276 2.025,12.055 2.014 C 11.923 2.007,11.759 2.025,11.680 2.055 M6.620 10.046 C 6.528 10.094,5.826 10.758,4.960 11.618 C 4.135 12.438,3.399 13.150,3.324 13.201 C 3.149 13.321,2.951 13.745,2.951 14.000 C 2.951 14.238,3.150 14.682,3.303 14.784 C 3.366 14.826,4.101 15.537,4.938 16.365 C 5.949 17.365,6.520 17.901,6.637 17.960 C 6.989 18.137,7.354 18.048,7.701 17.701 C 8.048 17.354,8.137 16.988,7.959 16.637 C 7.905 16.531,7.580 16.168,7.147 15.730 L 6.425 15.000 9.822 15.000 C 11.975 15.000,13.273 14.985,13.365 14.959 C 13.586 14.898,13.770 14.755,13.880 14.558 C 13.967 14.402,13.980 14.332,13.979 14.000 C 13.978 13.567,13.898 13.355,13.678 13.199 C 13.397 12.999,13.423 13.000,9.806 13.000 L 6.425 13.000 7.147 12.270 C 7.580 11.832,7.905 11.469,7.959 11.363 C 8.137 11.012,8.048 10.646,7.701 10.299 C 7.361 9.959,6.967 9.867,6.620 10.046 " stroke="none" fill="black" fill-rule="evenodd"></path></svg>