<svg xmlns="http://www.w3.org/2000/svg" width="24" height="24" viewBox="0 0 24 24" fill="none" stroke="currentColor" stroke-width="2" stroke-linecap="round" stroke-linejoin="round" class="icon icon-tabler icons-tabler-outline icon-tabler-cube-3d-sphere"><path d="M11.680 2.058 C 11.561 2.102,9.915 2.995,9.480 3.250 C 8.948 3.563,8.827 4.004,9.122 4.557 C 9.369 5.021,9.701 5.213,10.100 5.123 C 10.215 5.097,10.654 4.884,11.136 4.619 C 11.596 4.367,11.985 4.160,12.000 4.160 C 12.015 4.160,12.404 4.367,12.864 4.619 C 13.346 4.884,13.785 5.097,13.900 5.123 C 14.299 5.213,14.631 5.021,14.878 4.557 C 15.117 4.109,15.081 3.722,14.774 3.433 C 14.650 3.317,12.505 2.123,12.284 2.047 C 12.110 1.987,11.858 1.991,11.680 2.058 M5.757 5.416 C 5.679 5.446,5.217 5.690,4.731 5.958 C 4.245 6.225,3.785 6.462,3.709 6.483 C 3.504 6.539,3.221 6.810,3.093 7.070 L 2.982 7.298 2.993 8.759 C 3.000 9.562,3.022 10.285,3.042 10.364 C 3.142 10.745,3.437 10.962,3.896 10.991 C 4.381 11.022,4.699 10.882,4.879 10.558 C 4.970 10.396,4.980 10.328,4.994 9.793 L 5.009 9.206 5.399 9.409 C 5.884 9.662,6.134 9.698,6.421 9.560 C 6.637 9.455,6.840 9.202,6.959 8.888 C 7.161 8.360,6.985 8.003,6.355 7.657 L 6.079 7.506 6.375 7.334 C 6.858 7.054,7.040 6.822,7.040 6.486 C 7.040 6.157,6.792 5.688,6.516 5.497 C 6.324 5.364,5.986 5.328,5.757 5.416 M17.616 5.417 C 17.319 5.546,17.005 6.023,16.969 6.398 C 16.932 6.785,17.105 7.033,17.622 7.332 L 17.921 7.506 17.645 7.657 C 17.015 8.003,16.839 8.360,17.041 8.888 C 17.160 9.202,17.363 9.455,17.579 9.560 C 17.866 9.699,18.116 9.662,18.605 9.407 L 19.000 9.202 19.000 9.711 C 19.000 9.991,19.019 10.285,19.041 10.365 C 19.148 10.750,19.437 10.962,19.896 10.991 C 20.509 11.030,20.908 10.761,20.975 10.264 C 20.987 10.174,21.002 9.470,21.008 8.699 L 21.019 7.299 20.907 7.071 C 20.779 6.810,20.496 6.539,20.291 6.483 C 20.215 6.462,19.745 6.221,19.246 5.948 C 18.748 5.676,18.279 5.432,18.204 5.406 C 18.025 5.345,17.770 5.350,17.616 5.417 M9.616 9.897 C 9.431 9.978,9.223 10.204,9.094 10.467 C 9.004 10.652,8.980 10.755,8.980 10.963 C 8.980 11.417,9.111 11.540,10.272 12.180 L 10.998 12.580 10.999 13.643 C 11.000 14.842,11.027 15.015,11.249 15.229 C 11.442 15.416,11.647 15.487,11.997 15.488 C 12.336 15.490,12.552 15.419,12.735 15.248 C 12.966 15.031,12.978 14.963,13.000 13.721 L 13.020 12.582 13.800 12.154 C 14.666 11.679,14.842 11.551,14.965 11.309 C 15.206 10.838,14.768 9.977,14.238 9.880 C 13.948 9.827,13.741 9.902,12.874 10.380 C 12.414 10.633,12.022 10.840,12.003 10.840 C 11.985 10.840,11.613 10.640,11.178 10.396 C 10.742 10.151,10.314 9.926,10.228 9.896 C 10.030 9.826,9.778 9.827,9.616 9.897 M3.614 13.057 C 3.377 13.131,3.212 13.261,3.109 13.453 C 3.021 13.618,3.020 13.642,3.020 15.220 C 3.020 16.994,3.012 16.938,3.291 17.202 C 3.427 17.332,5.306 18.388,5.680 18.545 C 6.239 18.781,6.712 18.538,6.959 17.888 C 7.106 17.503,7.052 17.216,6.781 16.954 C 6.699 16.874,6.265 16.608,5.818 16.362 L 5.005 15.915 4.993 14.768 C 4.981 13.670,4.976 13.613,4.891 13.453 C 4.842 13.362,4.746 13.247,4.678 13.199 C 4.414 13.010,3.957 12.950,3.614 13.057 M19.614 13.057 C 19.377 13.131,19.212 13.261,19.109 13.453 C 19.024 13.612,19.019 13.678,19.000 14.772 L 18.980 15.925 18.188 16.372 C 17.753 16.619,17.334 16.870,17.258 16.932 C 16.924 17.202,16.875 17.614,17.122 18.077 C 17.376 18.555,17.708 18.740,18.120 18.634 C 18.384 18.567,20.546 17.367,20.723 17.191 C 20.987 16.927,20.980 16.982,20.980 15.220 C 20.980 13.642,20.979 13.618,20.891 13.453 C 20.842 13.362,20.746 13.247,20.678 13.199 C 20.414 13.010,19.957 12.950,19.614 13.057 M11.545 17.579 C 11.320 17.659,11.128 17.863,11.059 18.096 C 11.020 18.226,11.000 18.472,11.000 18.804 L 11.000 19.314 10.646 19.117 C 10.260 18.902,10.008 18.835,9.762 18.880 C 9.232 18.977,8.794 19.838,9.035 20.309 C 9.160 20.555,9.333 20.678,10.306 21.213 C 10.793 21.481,11.225 21.729,11.266 21.765 C 11.459 21.935,11.612 21.980,12.000 21.980 C 12.388 21.980,12.541 21.935,12.734 21.765 C 12.775 21.729,13.207 21.481,13.694 21.213 C 14.667 20.678,14.840 20.555,14.965 20.309 C 15.161 19.926,14.900 19.232,14.457 18.958 C 14.354 18.894,14.254 18.872,14.071 18.872 C 13.851 18.872,13.780 18.895,13.433 19.076 C 13.218 19.188,13.032 19.280,13.021 19.280 C 13.009 19.280,13.000 19.058,13.000 18.787 C 13.000 18.168,12.940 17.944,12.723 17.747 C 12.636 17.669,12.497 17.586,12.413 17.563 C 12.200 17.504,11.731 17.513,11.545 17.579 " stroke="none" fill="black" fill-rule="evenodd"></path></svg>