<svg xmlns="http://www.w3.org/2000/svg" width="24" height="24" viewBox="0 0 24 24" fill="none" stroke="currentColor" stroke-width="2" stroke-linecap="round" stroke-linejoin="round" class="icon icon-tabler icons-tabler-outline icon-tabler-axis-y"><path d="M6.530 3.083 C 6.393 3.150,6.249 3.252,6.210 3.310 C 6.172 3.369,5.463 4.101,4.635 4.938 C 3.635 5.949,3.099 6.520,3.040 6.637 C 2.863 6.989,2.952 7.354,3.299 7.701 C 3.646 8.048,4.012 8.137,4.363 7.959 C 4.469 7.905,4.832 7.580,5.270 7.147 L 6.000 6.425 6.000 13.322 C 6.000 17.820,6.014 20.270,6.041 20.365 C 6.148 20.750,6.437 20.962,6.896 20.991 C 7.381 21.022,7.699 20.882,7.880 20.558 L 7.980 20.380 7.991 13.403 L 8.001 6.426 8.731 7.148 C 9.168 7.580,9.531 7.905,9.637 7.959 C 9.988 8.137,10.354 8.048,10.701 7.701 C 11.048 7.354,11.137 6.989,10.960 6.637 C 10.901 6.520,10.365 5.949,9.365 4.938 C 8.537 4.101,7.828 3.369,7.789 3.310 C 7.751 3.252,7.604 3.149,7.464 3.082 C 7.120 2.918,6.871 2.918,6.530 3.083 M10.660 19.037 C 10.215 19.146,10.000 19.459,10.000 19.998 C 10.000 20.654,10.342 21.000,10.991 21.000 C 11.428 20.999,11.712 20.858,11.880 20.558 C 11.967 20.402,11.980 20.332,11.979 20.000 C 11.978 19.567,11.898 19.355,11.678 19.199 C 11.435 19.025,10.995 18.956,10.660 19.037 M14.660 19.037 C 14.215 19.146,14.000 19.459,14.000 19.998 C 14.000 20.654,14.342 21.000,14.991 21.000 C 15.428 20.999,15.712 20.858,15.880 20.558 C 15.967 20.402,15.980 20.332,15.979 20.000 C 15.978 19.567,15.898 19.355,15.678 19.199 C 15.435 19.025,14.995 18.956,14.660 19.037 M18.660 19.037 C 18.215 19.146,18.000 19.459,18.000 19.998 C 18.000 20.654,18.342 21.000,18.991 21.000 C 19.428 20.999,19.712 20.858,19.880 20.558 C 19.967 20.402,19.980 20.332,19.979 20.000 C 19.978 19.567,19.898 19.355,19.678 19.199 C 19.435 19.025,18.995 18.956,18.660 19.037 " stroke="none" fill="black" fill-rule="evenodd"></path></svg>