<svg xmlns="http://www.w3.org/2000/svg" width="24" height="24" viewBox="0 0 24 24" fill="none" stroke="currentColor" stroke-width="2" stroke-linecap="round" stroke-linejoin="round" class="icon icon-tabler icons-tabler-outline icon-tabler-rotate-dot"><path d="M11.340 3.067 C 9.514 3.222,7.855 3.872,6.420 4.993 C 6.003 5.319,5.179 6.166,4.845 6.612 C 3.231 8.766,2.670 11.373,3.246 14.037 C 3.430 14.890,3.877 15.987,4.349 16.746 C 5.463 18.539,7.181 19.905,9.140 20.557 C 10.239 20.923,11.200 21.065,12.300 21.026 C 13.518 20.983,14.588 20.737,15.680 20.250 C 16.782 19.759,17.766 19.058,18.596 18.174 L 18.960 17.786 18.960 19.028 C 18.960 20.399,18.976 20.508,19.205 20.746 C 19.570 21.121,20.506 21.062,20.781 20.645 C 20.957 20.379,20.963 20.249,20.951 17.379 C 20.939 14.371,20.951 14.516,20.677 14.249 C 20.416 13.995,20.427 13.996,17.470 13.999 C 16.001 14.001,14.741 14.013,14.670 14.027 C 14.198 14.117,13.960 14.443,13.960 15.000 C 13.960 15.457,14.120 15.761,14.440 15.913 C 14.561 15.970,14.801 15.982,16.174 16.000 L 17.768 16.020 17.579 16.280 C 17.306 16.654,16.517 17.424,16.113 17.710 C 15.210 18.348,14.210 18.766,13.151 18.949 C 12.524 19.057,11.366 19.046,10.764 18.926 C 9.319 18.639,8.127 18.014,7.105 17.009 C 6.131 16.052,5.448 14.793,5.157 13.416 C 5.035 12.843,5.006 11.702,5.097 11.080 C 5.276 9.858,5.679 8.865,6.394 7.880 C 6.711 7.443,7.514 6.662,7.990 6.326 C 10.809 4.336,14.675 4.710,17.061 7.205 C 18.040 8.229,18.626 9.381,18.901 10.823 C 19.017 11.428,19.077 11.607,19.212 11.755 C 19.514 12.083,20.290 12.080,20.667 11.749 C 20.957 11.494,21.010 11.228,20.897 10.580 C 20.570 8.687,19.729 7.053,18.390 5.706 C 17.462 4.772,16.405 4.083,15.200 3.627 C 14.000 3.172,12.562 2.963,11.340 3.067 M11.477 10.073 C 10.806 10.249,10.238 10.823,10.060 11.508 C 9.941 11.962,10.003 12.492,10.225 12.930 C 10.361 13.199,10.801 13.639,11.070 13.775 C 11.659 14.073,12.341 14.073,12.930 13.775 C 13.196 13.640,13.638 13.200,13.771 12.937 C 13.994 12.498,14.052 12.007,13.940 11.529 C 13.858 11.182,13.720 10.927,13.465 10.653 C 13.074 10.232,12.560 10.005,12.000 10.005 C 11.857 10.005,11.622 10.036,11.477 10.073 " stroke="none" fill="black" fill-rule="evenodd"></path></svg>