<svg xmlns="http://www.w3.org/2000/svg" width="24" height="24" viewBox="0 0 24 24" fill="none" stroke="currentColor" stroke-width="2" stroke-linecap="round" stroke-linejoin="round" class="icon icon-tabler icons-tabler-outline icon-tabler-chevron-compact-right"><path d="M10.882 3.004 C 10.250 3.128,9.885 3.562,9.990 4.064 C 10.015 4.183,10.687 6.017,11.483 8.140 L 12.930 12.000 11.483 15.860 C 10.687 17.983,10.015 19.817,9.990 19.936 C 9.928 20.235,9.995 20.449,10.220 20.666 C 10.501 20.936,11.043 21.098,11.338 21.001 C 11.529 20.938,11.744 20.748,11.841 20.558 C 11.883 20.476,12.606 18.575,13.448 16.334 C 14.888 12.503,14.979 12.245,14.979 12.000 C 14.979 11.755,14.888 11.497,13.448 7.666 C 12.606 5.425,11.883 3.524,11.841 3.442 C 11.741 3.246,11.519 3.055,11.331 3.002 C 11.160 2.955,11.130 2.955,10.882 3.004 " stroke="none" fill="black" fill-rule="evenodd"></path></svg>