<svg xmlns="http://www.w3.org/2000/svg" width="24" height="24" viewBox="0 0 24 24" fill="none" stroke="currentColor" stroke-width="2" stroke-linecap="round" stroke-linejoin="round" class="icon icon-tabler icons-tabler-outline icon-tabler-file-type-sql"><path d="M6.499 2.043 C 5.390 2.231,4.488 3.024,4.114 4.140 L 4.020 4.420 4.009 8.311 C 4.001 10.892,4.011 12.253,4.039 12.355 C 4.144 12.747,4.433 12.961,4.896 12.991 C 5.381 13.022,5.699 12.882,5.880 12.558 L 5.980 12.380 6.000 8.560 C 6.022 4.280,5.999 4.597,6.321 4.283 C 6.622 3.992,6.514 4.000,9.947 4.000 L 13.000 4.000 13.000 5.618 C 13.000 6.649,13.016 7.313,13.044 7.448 C 13.189 8.140,13.857 8.807,14.552 8.955 C 14.689 8.984,15.335 9.000,16.382 9.000 L 18.000 9.000 18.000 10.610 C 18.000 11.565,18.017 12.279,18.041 12.365 C 18.148 12.750,18.437 12.962,18.896 12.991 C 19.381 13.022,19.699 12.882,19.880 12.558 L 19.980 12.380 19.980 10.000 L 19.980 7.620 19.880 7.442 C 19.825 7.343,19.708 7.214,19.620 7.154 C 19.440 7.032,14.900 2.479,14.788 2.309 C 14.748 2.249,14.640 2.159,14.548 2.110 L 14.380 2.020 10.540 2.014 C 8.428 2.011,6.609 2.024,6.499 2.043 M15.800 6.220 L 16.579 7.000 15.790 7.000 L 15.000 7.000 15.000 6.220 C 15.000 5.791,15.005 5.440,15.010 5.440 C 15.016 5.440,15.371 5.791,15.800 6.220 M5.477 14.073 C 4.806 14.249,4.238 14.823,4.060 15.508 C 3.976 15.828,3.976 17.172,4.060 17.492 C 4.153 17.852,4.310 18.118,4.596 18.404 C 5.073 18.881,5.426 19.000,6.368 19.000 L 7.000 19.000 7.000 19.500 L 7.000 20.000 6.488 20.000 L 5.977 20.000 5.929 19.823 C 5.835 19.470,5.495 19.267,5.000 19.267 C 4.492 19.267,4.176 19.463,4.061 19.848 C 3.897 20.400,4.076 21.032,4.522 21.478 C 4.967 21.923,5.245 22.000,6.407 22.000 C 7.598 22.000,7.898 21.910,8.404 21.404 C 8.895 20.913,9.000 20.579,8.999 19.514 C 8.999 18.459,8.903 18.124,8.465 17.653 C 7.998 17.150,7.590 17.006,6.630 17.002 L 6.000 17.000 6.000 16.500 L 6.000 16.000 6.515 16.000 L 7.030 16.000 7.056 16.129 C 7.147 16.584,7.695 16.849,8.283 16.723 C 8.727 16.628,8.955 16.345,8.990 15.846 C 9.049 14.997,8.426 14.200,7.581 14.044 C 7.192 13.972,5.790 13.992,5.477 14.073 M12.499 14.040 C 11.363 14.246,10.461 15.048,10.114 16.160 C 10.022 16.453,10.020 16.497,10.020 18.000 C 10.020 19.503,10.022 19.547,10.114 19.840 C 10.422 20.827,11.173 21.578,12.160 21.886 C 12.417 21.966,12.541 21.980,13.020 21.978 C 13.539 21.976,13.606 21.967,13.940 21.852 L 14.300 21.728 14.652 22.067 C 15.065 22.465,15.279 22.578,15.569 22.550 C 15.989 22.510,16.510 21.987,16.550 21.565 C 16.578 21.283,16.456 21.055,16.056 20.640 L 15.728 20.300 15.854 19.940 L 15.980 19.580 15.980 18.020 C 15.980 16.496,15.978 16.453,15.886 16.160 C 15.580 15.178,14.810 14.407,13.861 14.129 C 13.500 14.023,12.832 13.980,12.499 14.040 M17.614 14.057 C 17.377 14.131,17.212 14.261,17.109 14.453 L 17.020 14.620 17.009 17.912 C 17.002 20.060,17.012 21.257,17.039 21.356 C 17.100 21.584,17.242 21.768,17.442 21.880 L 17.620 21.980 18.908 21.992 C 19.720 22.000,20.254 21.989,20.352 21.962 C 20.583 21.900,20.768 21.759,20.880 21.558 C 20.967 21.402,20.980 21.332,20.979 21.000 C 20.978 20.687,20.962 20.591,20.890 20.453 C 20.702 20.097,20.424 20.000,19.595 20.000 L 19.003 20.000 18.991 17.310 L 18.980 14.620 18.891 14.453 C 18.842 14.362,18.746 14.247,18.678 14.199 C 18.414 14.010,17.957 13.950,17.614 14.057 M13.310 16.061 C 13.452 16.103,13.571 16.178,13.697 16.303 C 13.977 16.584,14.000 16.705,14.000 17.927 L 14.000 18.960 13.898 18.960 C 13.570 18.960,13.047 19.462,12.961 19.860 C 12.937 19.968,12.921 19.979,12.799 19.969 C 12.617 19.954,12.358 19.797,12.225 19.623 C 12.014 19.347,12.000 19.245,12.000 18.022 C 12.000 16.698,12.019 16.587,12.301 16.306 C 12.586 16.021,12.910 15.942,13.310 16.061 " stroke="none" fill="black" fill-rule="evenodd"></path></svg>