<svg xmlns="http://www.w3.org/2000/svg" width="24" height="24" viewBox="0 0 24 24" fill="none" stroke="currentColor" stroke-width="2" stroke-linecap="round" stroke-linejoin="round" class="icon icon-tabler icons-tabler-outline icon-tabler-brain"><path d="M7.900 2.045 C 7.211 2.131,6.422 2.450,5.857 2.871 C 4.880 3.598,4.269 4.586,4.062 5.775 C 4.015 6.047,4.000 6.438,4.000 7.442 L 4.000 8.753 3.750 8.949 C 3.029 9.516,2.524 10.227,2.241 11.071 C 1.865 12.194,1.947 13.458,2.464 14.489 C 2.750 15.062,3.282 15.705,3.786 16.087 L 3.992 16.243 4.010 17.212 C 4.026 18.090,4.037 18.216,4.130 18.563 C 4.447 19.753,5.144 20.712,6.136 21.323 C 7.919 22.420,10.196 22.154,11.670 20.676 L 12.000 20.345 12.330 20.676 C 13.804 22.154,16.081 22.420,17.864 21.323 C 18.856 20.712,19.553 19.753,19.870 18.563 C 19.963 18.216,19.974 18.090,19.990 17.212 L 20.008 16.243 20.214 16.087 C 20.718 15.705,21.250 15.062,21.536 14.489 C 21.934 13.695,22.090 12.644,21.938 11.775 C 21.739 10.633,21.161 9.666,20.250 8.949 L 20.000 8.753 20.000 7.442 C 20.000 5.997,19.970 5.700,19.759 5.071 C 19.095 3.090,17.127 1.818,15.060 2.033 C 13.974 2.146,13.038 2.599,12.270 3.382 L 12.000 3.657 11.730 3.382 C 10.712 2.344,9.340 1.865,7.900 2.045 M9.020 4.060 C 9.741 4.211,10.395 4.713,10.715 5.362 C 11.004 5.949,10.999 5.867,10.999 9.506 L 11.000 12.752 10.693 12.578 C 10.058 12.215,9.342 12.026,8.600 12.025 C 8.093 12.023,7.943 12.066,7.752 12.267 C 7.584 12.443,7.513 12.658,7.512 12.997 C 7.509 13.657,7.851 13.999,8.517 14.001 C 9.424 14.004,10.318 14.557,10.715 15.362 C 10.950 15.839,10.999 16.119,10.999 17.000 C 10.999 17.874,10.950 18.162,10.723 18.620 C 10.439 19.195,9.932 19.646,9.320 19.868 C 9.052 19.965,8.965 19.976,8.500 19.976 C 8.035 19.976,7.948 19.965,7.680 19.868 C 7.068 19.646,6.561 19.195,6.277 18.620 C 6.083 18.227,6.002 17.858,6.001 17.360 L 6.000 16.980 6.310 16.994 C 7.120 17.030,7.486 16.720,7.486 16.000 C 7.486 15.342,7.144 15.000,6.484 15.000 C 5.796 15.000,5.084 14.675,4.622 14.151 C 4.256 13.735,4.001 13.059,4.001 12.500 C 4.001 11.579,4.550 10.685,5.362 10.285 C 5.792 10.073,6.138 10.002,6.740 10.000 C 7.004 10.000,7.285 9.981,7.365 9.959 C 7.586 9.898,7.770 9.755,7.880 9.558 C 7.967 9.402,7.980 9.332,7.979 9.000 C 7.978 8.552,7.893 8.342,7.649 8.182 C 7.412 8.027,7.178 7.989,6.561 8.006 L 6.000 8.022 6.001 7.141 C 6.002 6.107,6.042 5.856,6.285 5.362 C 6.774 4.371,7.914 3.828,9.020 4.060 M16.020 4.060 C 16.741 4.211,17.395 4.713,17.715 5.362 C 17.958 5.856,17.998 6.107,17.999 7.141 L 18.000 8.022 17.439 8.006 C 16.822 7.989,16.588 8.027,16.351 8.182 C 16.105 8.343,16.020 8.553,16.020 9.000 C 16.020 9.331,16.033 9.403,16.120 9.558 C 16.230 9.755,16.414 9.898,16.635 9.959 C 16.715 9.981,16.996 10.000,17.260 10.000 C 17.862 10.002,18.208 10.073,18.638 10.285 C 19.450 10.685,19.999 11.579,19.999 12.500 C 19.999 13.240,19.628 14.006,19.049 14.460 C 18.621 14.797,18.213 14.947,17.587 14.998 C 17.094 15.039,16.914 15.097,16.752 15.267 C 16.583 15.444,16.513 15.658,16.512 16.000 C 16.508 16.715,16.882 17.030,17.690 16.994 L 18.000 16.980 17.999 17.360 C 17.998 17.858,17.917 18.227,17.723 18.620 C 17.439 19.195,16.932 19.646,16.320 19.868 C 16.052 19.965,15.965 19.976,15.500 19.976 C 15.035 19.976,14.948 19.965,14.680 19.868 C 14.068 19.646,13.561 19.195,13.277 18.620 C 13.050 18.162,13.001 17.874,13.001 17.000 C 13.001 16.119,13.050 15.839,13.285 15.362 C 13.682 14.557,14.576 14.004,15.483 14.001 C 15.954 13.999,16.274 13.816,16.421 13.464 C 16.515 13.238,16.509 12.735,16.408 12.513 C 16.230 12.117,15.902 11.973,15.273 12.015 C 14.532 12.063,13.883 12.249,13.307 12.578 L 13.000 12.752 13.001 9.506 C 13.001 5.867,12.996 5.949,13.285 5.362 C 13.774 4.371,14.914 3.828,16.020 4.060 " stroke="none" fill="black" fill-rule="evenodd"></path></svg>