<svg xmlns="http://www.w3.org/2000/svg" width="24" height="24" viewBox="0 0 24 24" fill="none" stroke="currentColor" stroke-width="2" stroke-linecap="round" stroke-linejoin="round" class="icon icon-tabler icons-tabler-outline icon-tabler-ironing-off"><path d="M2.626 2.045 C 2.420 2.154,2.146 2.433,2.038 2.644 C 1.924 2.867,1.924 3.132,2.039 3.363 C 2.102 3.488,3.089 4.502,5.407 6.824 L 8.687 10.108 8.333 10.178 C 7.795 10.284,7.078 10.534,6.501 10.817 C 3.988 12.045,2.328 14.431,2.037 17.231 C 1.970 17.881,1.999 18.336,2.122 18.559 C 2.230 18.755,2.413 18.898,2.635 18.959 C 2.730 18.986,5.346 19.000,10.179 19.000 L 17.578 19.000 19.019 20.435 C 19.984 21.397,20.519 21.900,20.637 21.960 C 20.989 22.137,21.354 22.048,21.701 21.701 C 22.048 21.354,22.137 20.989,21.960 20.637 C 21.888 20.495,20.112 18.646,18.748 17.293 C 18.642 17.187,11.902 10.449,11.760 10.306 C 11.705 10.250,9.833 8.388,7.600 6.167 C 4.857 3.438,3.485 2.101,3.372 2.044 C 3.152 1.934,2.835 1.935,2.626 2.045 M9.614 5.057 C 9.376 5.132,9.212 5.261,9.109 5.453 C 9.035 5.592,9.020 5.684,9.020 6.000 C 9.020 6.331,9.033 6.403,9.120 6.558 C 9.230 6.755,9.414 6.898,9.635 6.959 C 9.727 6.985,11.020 7.000,13.160 7.000 C 15.296 7.000,16.636 7.016,16.800 7.042 C 17.497 7.153,18.162 7.738,18.367 8.420 C 18.404 8.546,18.640 9.864,18.640 9.950 C 18.640 9.989,18.231 10.000,16.726 10.000 C 14.687 10.000,14.590 10.008,14.322 10.199 C 14.100 10.357,14.020 10.568,14.020 11.000 C 14.020 11.331,14.033 11.403,14.120 11.558 C 14.230 11.755,14.414 11.898,14.635 11.959 C 14.724 11.984,15.598 12.000,16.883 12.000 L 18.987 12.000 19.418 14.587 C 19.658 16.028,19.880 17.247,19.920 17.339 C 20.004 17.536,20.191 17.722,20.370 17.787 C 20.551 17.853,20.912 17.851,21.138 17.783 C 21.589 17.647,21.797 17.384,21.799 16.949 C 21.800 16.648,20.389 8.182,20.277 7.818 C 20.082 7.185,19.809 6.729,19.327 6.231 C 18.810 5.697,18.160 5.312,17.440 5.115 L 17.100 5.022 13.440 5.013 C 10.497 5.006,9.747 5.014,9.614 5.057 M13.080 14.500 L 15.580 17.000 9.834 17.000 C 4.382 17.000,4.088 16.996,4.101 16.930 C 4.488 14.981,5.643 13.470,7.420 12.590 C 8.199 12.204,9.063 12.019,10.140 12.005 L 10.580 12.000 13.080 14.500 " stroke="none" fill="black" fill-rule="evenodd"></path></svg>