<svg xmlns="http://www.w3.org/2000/svg" width="24" height="24" viewBox="0 0 24 24" fill="none" stroke="currentColor" stroke-width="2" stroke-linecap="round" stroke-linejoin="round" class="icon icon-tabler icons-tabler-outline icon-tabler-eye-dotted"><path d="M11.614 5.055 C 11.220 5.184,11.039 5.437,11.009 5.900 C 10.978 6.381,11.119 6.699,11.442 6.880 C 11.597 6.967,11.669 6.980,12.000 6.980 C 12.409 6.980,12.600 6.915,12.789 6.713 C 13.071 6.410,13.071 5.590,12.789 5.287 C 12.562 5.045,11.989 4.931,11.614 5.055 M7.614 6.055 C 7.220 6.184,7.039 6.437,7.009 6.900 C 6.978 7.381,7.119 7.699,7.442 7.880 C 7.597 7.967,7.669 7.980,8.000 7.980 C 8.312 7.980,8.408 7.964,8.540 7.894 C 8.866 7.718,9.000 7.459,9.000 7.000 C 9.000 6.357,8.713 6.048,8.083 6.016 C 7.893 6.006,7.718 6.021,7.614 6.055 M15.614 6.055 C 15.220 6.184,15.039 6.437,15.009 6.900 C 14.978 7.381,15.119 7.699,15.442 7.880 C 15.597 7.967,15.669 7.980,16.000 7.980 C 16.312 7.980,16.408 7.964,16.540 7.894 C 16.866 7.718,17.000 7.459,17.000 7.000 C 17.000 6.357,16.713 6.048,16.083 6.016 C 15.893 6.006,15.718 6.021,15.614 6.055 M4.614 8.055 C 4.220 8.184,4.039 8.437,4.009 8.900 C 3.978 9.381,4.119 9.699,4.442 9.880 C 4.597 9.967,4.669 9.980,5.000 9.980 C 5.312 9.980,5.408 9.964,5.540 9.894 C 5.866 9.718,6.000 9.459,6.000 9.000 C 6.000 8.357,5.713 8.048,5.083 8.016 C 4.893 8.006,4.718 8.021,4.614 8.055 M18.614 8.055 C 18.220 8.184,18.039 8.437,18.009 8.900 C 17.978 9.381,18.119 9.699,18.442 9.880 C 18.597 9.967,18.669 9.980,19.000 9.980 C 19.312 9.980,19.408 9.964,19.540 9.894 C 19.866 9.718,20.000 9.459,20.000 9.000 C 20.000 8.357,19.713 8.048,19.083 8.016 C 18.893 8.006,18.718 8.021,18.614 8.055 M11.499 9.040 C 10.363 9.246,9.460 10.049,9.114 11.160 C 8.979 11.594,8.979 12.406,9.114 12.840 C 9.421 13.826,10.174 14.579,11.160 14.886 C 11.594 15.021,12.406 15.021,12.840 14.886 C 13.826 14.579,14.579 13.826,14.886 12.840 C 15.021 12.406,15.021 11.594,14.886 11.160 C 14.581 10.179,13.810 9.407,12.861 9.129 C 12.500 9.023,11.832 8.980,11.499 9.040 M2.614 11.055 C 2.220 11.184,2.039 11.437,2.009 11.900 C 1.978 12.381,2.119 12.699,2.442 12.880 C 2.597 12.967,2.669 12.980,3.000 12.980 C 3.312 12.980,3.408 12.964,3.540 12.894 C 3.866 12.718,4.000 12.459,4.000 12.000 C 4.000 11.357,3.713 11.048,3.083 11.016 C 2.893 11.006,2.718 11.021,2.614 11.055 M12.310 11.061 C 12.688 11.173,13.000 11.598,13.000 12.001 C 13.000 12.331,12.784 12.696,12.484 12.872 C 12.328 12.963,12.254 12.980,12.000 12.980 C 11.746 12.980,11.672 12.963,11.516 12.872 C 10.935 12.530,10.833 11.774,11.304 11.303 C 11.583 11.024,11.916 10.944,12.310 11.061 M20.614 11.055 C 20.220 11.184,20.039 11.437,20.009 11.900 C 19.978 12.381,20.119 12.699,20.442 12.880 C 20.597 12.967,20.669 12.980,21.000 12.980 C 21.312 12.980,21.408 12.964,21.540 12.894 C 21.866 12.718,22.000 12.459,22.000 12.000 C 22.000 11.357,21.713 11.048,21.083 11.016 C 20.893 11.006,20.718 11.021,20.614 11.055 M4.614 14.055 C 4.220 14.184,4.039 14.437,4.009 14.900 C 3.978 15.381,4.119 15.699,4.442 15.880 C 4.597 15.967,4.669 15.980,5.000 15.980 C 5.312 15.980,5.408 15.964,5.540 15.894 C 5.866 15.718,6.000 15.459,6.000 15.000 C 6.000 14.357,5.713 14.048,5.083 14.016 C 4.893 14.006,4.718 14.021,4.614 14.055 M18.614 14.055 C 18.220 14.184,18.039 14.437,18.009 14.900 C 17.978 15.381,18.119 15.699,18.442 15.880 C 18.597 15.967,18.669 15.980,19.000 15.980 C 19.312 15.980,19.408 15.964,19.540 15.894 C 19.866 15.718,20.000 15.459,20.000 15.000 C 20.000 14.357,19.713 14.048,19.083 14.016 C 18.893 14.006,18.718 14.021,18.614 14.055 M7.614 16.055 C 7.220 16.184,7.039 16.437,7.009 16.900 C 6.978 17.381,7.119 17.699,7.442 17.880 C 7.597 17.967,7.669 17.980,8.000 17.980 C 8.312 17.980,8.408 17.964,8.540 17.894 C 8.866 17.718,9.000 17.459,9.000 17.000 C 9.000 16.357,8.713 16.048,8.083 16.016 C 7.893 16.006,7.718 16.021,7.614 16.055 M15.614 16.055 C 15.220 16.184,15.039 16.437,15.009 16.900 C 14.978 17.381,15.119 17.699,15.442 17.880 C 15.597 17.967,15.669 17.980,16.000 17.980 C 16.312 17.980,16.408 17.964,16.540 17.894 C 16.866 17.718,17.000 17.459,17.000 17.000 C 17.000 16.357,16.713 16.048,16.083 16.016 C 15.893 16.006,15.718 16.021,15.614 16.055 M11.614 17.055 C 11.220 17.184,11.039 17.437,11.009 17.900 C 10.978 18.381,11.119 18.699,11.442 18.880 C 11.597 18.967,11.669 18.980,12.000 18.980 C 12.312 18.980,12.408 18.964,12.540 18.894 C 12.866 18.718,13.000 18.459,13.000 18.000 C 13.000 17.357,12.713 17.048,12.083 17.016 C 11.893 17.006,11.718 17.021,11.614 17.055 " stroke="none" fill="black" fill-rule="evenodd"></path></svg>