<svg xmlns="http://www.w3.org/2000/svg" width="24" height="24" viewBox="0 0 24 24" fill="none" stroke="currentColor" stroke-width="2" stroke-linecap="round" stroke-linejoin="round" class="icon icon-tabler icons-tabler-outline icon-tabler-device-ipad-horizontal-minus"><path d="M4.499 3.043 C 3.380 3.232,2.461 4.048,2.114 5.160 L 2.020 5.460 2.020 12.000 L 2.020 18.540 2.114 18.840 C 2.418 19.816,3.149 20.554,4.140 20.886 L 4.420 20.980 8.311 20.991 C 10.892 20.999,12.253 20.989,12.355 20.961 C 12.583 20.900,12.768 20.758,12.880 20.558 C 12.967 20.402,12.980 20.332,12.979 20.000 C 12.977 19.469,12.852 19.247,12.455 19.071 C 12.366 19.031,11.493 19.016,8.520 19.000 L 4.700 18.980 4.516 18.872 C 4.415 18.813,4.284 18.700,4.225 18.623 C 3.987 18.311,4.000 18.701,4.000 12.022 C 4.000 5.123,3.977 5.629,4.303 5.303 C 4.631 4.976,4.009 5.000,12.000 5.000 C 19.991 5.000,19.369 4.976,19.697 5.303 C 20.019 5.625,20.000 5.295,20.000 10.557 C 20.000 13.557,20.015 15.272,20.041 15.365 C 20.148 15.750,20.437 15.962,20.896 15.991 C 21.381 16.022,21.699 15.882,21.880 15.558 L 21.980 15.380 21.980 10.420 L 21.980 5.460 21.886 5.160 C 21.581 4.182,20.832 3.428,19.861 3.121 L 19.540 3.020 12.120 3.014 C 8.039 3.011,4.609 3.024,4.499 3.043 M8.614 16.057 C 8.377 16.131,8.212 16.261,8.109 16.453 C 8.035 16.592,8.020 16.684,8.020 17.000 C 8.020 17.331,8.033 17.403,8.120 17.558 C 8.230 17.755,8.414 17.898,8.635 17.959 C 8.723 17.984,9.551 18.000,10.743 18.000 C 12.924 18.000,12.995 17.993,13.229 17.751 C 13.418 17.556,13.486 17.355,13.486 16.997 C 13.486 16.491,13.303 16.196,12.909 16.064 C 12.743 16.009,12.450 16.000,10.749 16.003 C 9.251 16.005,8.740 16.018,8.614 16.057 M15.614 18.057 C 15.377 18.131,15.212 18.261,15.109 18.453 C 15.035 18.592,15.020 18.684,15.020 19.000 C 15.020 19.331,15.033 19.403,15.120 19.558 C 15.230 19.755,15.414 19.898,15.635 19.959 C 15.832 20.014,22.168 20.014,22.365 19.959 C 22.586 19.898,22.770 19.755,22.880 19.558 C 22.967 19.402,22.980 19.332,22.979 19.000 C 22.978 18.567,22.898 18.355,22.678 18.199 C 22.398 17.999,22.411 18.000,18.984 18.003 C 16.472 18.005,15.744 18.017,15.614 18.057 " stroke="none" fill="black" fill-rule="evenodd"></path></svg>