<svg xmlns="http://www.w3.org/2000/svg" width="24" height="24" viewBox="0 0 24 24" fill="none" stroke="currentColor" stroke-width="2" stroke-linecap="round" stroke-linejoin="round" class="icon icon-tabler icons-tabler-outline icon-tabler-heart-down"><path d="M7.360 3.026 C 6.162 3.208,5.471 3.463,4.598 4.045 C 4.166 4.333,3.397 5.077,3.113 5.480 C 2.372 6.534,1.996 7.723,1.998 9.000 C 2.002 10.483,2.516 11.856,3.469 12.924 C 3.618 13.091,4.856 14.332,6.220 15.682 C 7.584 17.032,9.321 18.751,10.080 19.504 C 10.993 20.408,11.520 20.901,11.637 20.960 C 11.989 21.137,12.354 21.048,12.701 20.701 C 13.048 20.354,13.137 19.989,12.960 19.637 C 12.877 19.474,11.288 17.880,6.105 12.762 C 5.056 11.726,4.734 11.361,4.500 10.943 C 3.870 9.817,3.837 8.356,4.415 7.212 C 4.639 6.769,4.809 6.532,5.150 6.186 C 5.969 5.355,6.989 4.959,8.180 5.011 C 9.402 5.065,10.316 5.550,11.233 6.631 C 11.485 6.928,11.699 7.049,11.968 7.049 C 12.270 7.049,12.549 6.890,12.843 6.548 C 13.643 5.621,14.494 5.155,15.609 5.034 C 16.798 4.905,17.964 5.327,18.841 6.203 C 20.212 7.574,20.374 9.785,19.220 11.372 C 18.869 11.856,18.799 12.058,18.880 12.359 C 18.981 12.735,19.548 13.171,19.937 13.171 C 20.305 13.171,20.567 12.962,20.991 12.327 C 21.428 11.674,21.721 10.967,21.889 10.168 C 22.017 9.556,22.017 8.401,21.889 7.826 C 21.631 6.670,21.078 5.621,20.311 4.836 C 18.681 3.167,16.307 2.589,14.101 3.326 C 13.395 3.562,12.711 3.935,12.192 4.367 L 12.004 4.524 11.772 4.335 C 10.964 3.676,9.925 3.220,8.860 3.057 C 8.535 3.007,7.611 2.988,7.360 3.026 M18.614 15.057 C 18.377 15.131,18.212 15.261,18.109 15.453 C 18.021 15.618,18.020 15.640,18.009 17.596 L 17.997 19.572 17.269 18.852 C 16.856 18.443,16.467 18.094,16.372 18.045 C 16.021 17.868,15.640 17.958,15.299 18.299 C 14.952 18.646,14.863 19.011,15.040 19.363 C 15.099 19.480,15.635 20.051,16.635 21.062 C 17.463 21.899,18.174 22.634,18.216 22.697 C 18.318 22.850,18.762 23.049,19.000 23.049 C 19.238 23.049,19.682 22.850,19.784 22.697 C 19.826 22.634,20.537 21.899,21.365 21.062 C 22.365 20.051,22.901 19.480,22.960 19.363 C 23.137 19.011,23.048 18.646,22.701 18.299 C 22.360 17.958,21.979 17.868,21.628 18.045 C 21.533 18.094,21.144 18.443,20.732 18.851 L 20.004 19.572 19.992 17.596 C 19.980 15.640,19.979 15.618,19.891 15.453 C 19.842 15.362,19.746 15.247,19.678 15.199 C 19.414 15.010,18.957 14.950,18.614 15.057 " stroke="none" fill="black" fill-rule="evenodd"></path></svg>