<svg xmlns="http://www.w3.org/2000/svg" width="24" height="24" viewBox="0 0 24 24" fill="none" stroke="currentColor" stroke-width="2" stroke-linecap="round" stroke-linejoin="round" class="icon icon-tabler icons-tabler-outline icon-tabler-zoom-cancel"><path d="M9.207 2.043 C 7.656 2.193,6.096 2.846,4.900 3.847 C 3.985 4.612,3.307 5.477,2.800 6.529 C 1.453 9.317,1.837 12.625,3.789 15.040 C 4.075 15.394,4.761 16.067,5.100 16.326 C 6.974 17.757,9.329 18.302,11.620 17.833 C 12.581 17.637,13.717 17.154,14.500 16.608 L 14.900 16.329 17.680 19.101 C 19.627 21.042,20.513 21.898,20.637 21.961 C 20.990 22.137,21.354 22.048,21.701 21.701 C 22.048 21.354,22.137 20.990,21.961 20.637 C 21.898 20.513,21.042 19.627,19.101 17.680 L 16.329 14.900 16.608 14.500 C 16.761 14.280,17.009 13.854,17.158 13.553 C 18.265 11.323,18.280 8.765,17.200 6.529 C 16.693 5.477,16.015 4.612,15.100 3.847 C 13.483 2.494,11.337 1.837,9.207 2.043 M10.564 4.039 C 12.921 4.269,14.913 5.837,15.671 8.060 C 16.168 9.517,16.068 11.251,15.410 12.580 C 14.550 14.316,13.056 15.478,11.160 15.885 C 10.554 16.015,9.446 16.015,8.840 15.885 C 6.941 15.478,5.451 14.319,4.590 12.580 C 3.932 11.251,3.832 9.517,4.329 8.060 C 4.618 7.212,5.080 6.470,5.731 5.805 C 7.008 4.503,8.757 3.864,10.564 4.039 M7.626 7.045 C 7.257 7.239,6.951 7.673,6.951 8.000 C 6.951 8.307,7.079 8.487,7.853 9.270 L 8.575 10.000 7.853 10.730 C 7.079 11.513,6.951 11.693,6.951 12.000 C 6.951 12.477,7.523 13.049,8.000 13.049 C 8.307 13.049,8.487 12.921,9.270 12.147 L 10.000 11.425 10.730 12.147 C 11.513 12.921,11.693 13.049,12.000 13.049 C 12.477 13.049,13.049 12.477,13.049 12.000 C 13.049 11.693,12.921 11.513,12.147 10.730 L 11.425 10.000 12.147 9.270 C 12.580 8.832,12.905 8.469,12.959 8.363 C 13.137 8.012,13.048 7.646,12.701 7.299 C 12.360 6.958,11.979 6.868,11.628 7.045 C 11.533 7.094,11.144 7.444,10.730 7.853 L 10.000 8.575 9.270 7.853 C 8.856 7.444,8.467 7.094,8.372 7.045 C 8.152 6.934,7.836 6.934,7.626 7.045 " stroke="none" fill="black" fill-rule="evenodd"></path></svg>