<svg xmlns="http://www.w3.org/2000/svg" width="24" height="24" viewBox="0 0 24 24" fill="none" stroke="currentColor" stroke-width="2" stroke-linecap="round" stroke-linejoin="round" class="icon icon-tabler icons-tabler-outline icon-tabler-polygon"><path d="M11.499 2.040 C 10.371 2.245,9.455 3.054,9.122 4.140 C 9.010 4.503,8.975 5.090,9.041 5.480 C 9.068 5.645,9.093 5.819,9.096 5.867 C 9.099 5.933,8.780 6.228,7.723 7.134 C 6.351 8.310,6.345 8.314,6.237 8.258 C 5.745 8.004,4.747 7.941,4.139 8.125 C 3.179 8.417,2.419 9.181,2.114 10.160 C 1.979 10.594,1.979 11.406,2.114 11.840 C 2.421 12.826,3.173 13.578,4.160 13.886 C 4.417 13.966,4.541 13.980,5.020 13.978 C 5.547 13.976,5.601 13.968,5.940 13.847 C 6.138 13.776,6.327 13.708,6.361 13.697 C 6.398 13.684,7.529 14.466,9.323 15.748 L 12.224 17.820 12.125 18.120 C 12.040 18.378,12.026 18.498,12.023 18.980 C 12.020 19.461,12.033 19.582,12.114 19.840 C 12.422 20.827,13.174 21.579,14.160 21.886 C 14.412 21.964,14.547 21.979,15.000 21.979 C 15.453 21.979,15.588 21.964,15.840 21.886 C 16.826 21.579,17.579 20.826,17.886 19.840 C 18.021 19.406,18.021 18.593,17.886 18.161 C 17.763 17.770,17.607 17.465,17.393 17.203 C 17.298 17.085,17.197 16.958,17.168 16.920 C 17.119 16.853,17.415 15.993,19.168 11.112 C 19.200 11.022,19.237 11.000,19.393 10.979 C 20.547 10.827,21.530 9.983,21.886 8.840 C 22.021 8.406,22.021 7.594,21.886 7.160 C 21.581 6.181,20.822 5.418,19.861 5.125 C 19.588 5.042,19.458 5.027,19.000 5.027 C 18.542 5.027,18.412 5.042,18.139 5.125 C 17.760 5.240,17.371 5.450,17.112 5.678 L 16.925 5.843 15.966 5.363 L 15.008 4.884 14.979 4.632 C 14.847 3.481,13.980 2.456,12.861 2.129 C 12.500 2.023,11.832 1.980,11.499 2.040 M12.310 4.061 C 12.688 4.173,13.000 4.598,13.000 5.001 C 13.000 5.331,12.784 5.696,12.484 5.872 C 12.328 5.963,12.254 5.980,12.000 5.980 C 11.746 5.980,11.672 5.963,11.516 5.872 C 10.935 5.530,10.833 4.774,11.304 4.303 C 11.583 4.024,11.916 3.944,12.310 4.061 M15.214 7.227 L 15.989 7.614 16.011 8.097 C 16.053 9.015,16.394 9.717,17.076 10.292 L 17.271 10.457 17.086 10.981 C 16.984 11.270,16.540 12.515,16.100 13.747 L 15.300 15.989 14.880 16.012 C 14.488 16.034,14.062 16.130,13.699 16.281 C 13.579 16.330,13.558 16.316,10.676 14.257 L 7.774 12.184 7.874 11.882 C 7.963 11.615,7.975 11.513,7.975 11.000 C 7.974 10.474,7.964 10.389,7.864 10.085 C 7.757 9.760,7.755 9.747,7.827 9.680 C 7.867 9.642,8.413 9.174,9.040 8.640 C 9.667 8.105,10.217 7.635,10.262 7.594 C 10.342 7.523,10.350 7.524,10.602 7.657 C 11.075 7.907,11.390 7.979,12.000 7.979 C 12.454 7.979,12.588 7.965,12.839 7.886 C 13.391 7.713,13.787 7.464,14.190 7.038 C 14.292 6.929,14.391 6.840,14.408 6.840 C 14.425 6.840,14.788 7.014,15.214 7.227 M19.310 7.061 C 19.688 7.173,20.000 7.598,20.000 8.001 C 20.000 8.331,19.784 8.696,19.484 8.872 C 19.328 8.963,19.254 8.980,19.000 8.980 C 18.746 8.980,18.672 8.963,18.516 8.872 C 17.935 8.530,17.833 7.774,18.304 7.303 C 18.583 7.024,18.916 6.944,19.310 7.061 M5.310 10.061 C 5.688 10.173,6.000 10.598,6.000 11.001 C 6.000 11.331,5.784 11.696,5.484 11.872 C 5.328 11.963,5.254 11.980,5.000 11.980 C 4.746 11.980,4.672 11.963,4.516 11.872 C 3.935 11.530,3.833 10.774,4.304 10.303 C 4.583 10.024,4.916 9.944,5.310 10.061 M15.310 18.061 C 15.688 18.173,16.000 18.598,16.000 19.001 C 16.000 19.331,15.784 19.696,15.484 19.872 C 15.328 19.963,15.254 19.980,15.000 19.980 C 14.746 19.980,14.672 19.963,14.516 19.872 C 13.935 19.530,13.833 18.774,14.304 18.303 C 14.583 18.024,14.916 17.944,15.310 18.061 " stroke="none" fill="black" fill-rule="evenodd"></path></svg>