<svg xmlns="http://www.w3.org/2000/svg" width="24" height="24" viewBox="0 0 24 24" fill="none" stroke="currentColor" stroke-width="2" stroke-linecap="round" stroke-linejoin="round" class="icon icon-tabler icons-tabler-outline icon-tabler-brand-firefox"><path d="M10.004 1.923 C 9.399 2.042,8.760 2.533,7.949 3.503 L 7.678 3.827 7.362 3.808 C 7.188 3.798,6.896 3.812,6.714 3.839 L 6.382 3.887 6.254 3.747 C 6.183 3.670,6.107 3.538,6.084 3.453 C 6.061 3.369,6.014 3.195,5.979 3.066 C 5.931 2.891,5.868 2.781,5.729 2.632 C 5.491 2.378,5.300 2.280,5.040 2.280 C 4.507 2.280,3.913 2.900,3.507 3.881 C 3.080 4.912,2.842 6.392,2.950 7.339 C 2.986 7.650,2.983 7.667,2.858 7.941 C 2.530 8.661,2.233 9.692,2.092 10.600 C 1.992 11.246,1.992 12.755,2.092 13.400 C 2.422 15.521,3.337 17.402,4.767 18.900 C 6.350 20.558,8.365 21.579,10.741 21.927 C 11.294 22.008,12.832 21.996,13.380 21.906 C 15.287 21.593,16.741 20.972,18.200 19.848 C 18.630 19.516,19.501 18.644,19.845 18.200 C 21.323 16.293,22.069 14.029,21.986 11.700 C 21.953 10.751,21.867 10.191,21.618 9.296 C 21.264 8.023,20.637 6.796,19.801 5.740 C 19.476 5.330,18.627 4.487,18.240 4.190 C 18.075 4.063,17.823 3.870,17.680 3.761 C 17.360 3.517,16.436 3.056,15.877 2.860 C 14.984 2.549,14.281 2.452,12.640 2.414 C 11.587 2.390,11.579 2.389,11.487 2.294 C 11.158 1.952,10.585 1.809,10.004 1.923 M13.440 4.440 C 14.482 4.503,15.081 4.643,15.794 4.989 C 16.124 5.150,16.183 5.195,16.299 5.376 C 16.629 5.893,16.899 6.519,17.025 7.060 C 17.090 7.337,17.100 7.552,17.100 8.660 C 17.100 10.061,17.084 10.208,16.859 10.903 C 16.523 11.938,15.878 12.896,15.020 13.634 C 14.380 14.185,13.979 14.380,13.163 14.541 C 12.999 14.573,12.858 14.591,12.849 14.582 C 12.822 14.555,13.419 13.673,13.561 13.529 C 13.632 13.458,13.738 13.388,13.795 13.375 C 14.115 13.304,14.211 13.267,14.387 13.146 C 14.802 12.860,14.932 12.410,14.723 11.980 C 14.586 11.698,14.118 11.240,13.806 11.083 C 13.393 10.875,13.015 10.795,12.440 10.796 C 11.944 10.797,11.703 10.825,10.517 11.019 C 9.760 11.143,9.712 11.144,9.572 11.023 L 9.460 10.926 9.580 10.798 C 9.646 10.728,9.958 10.502,10.273 10.295 C 11.036 9.794,11.425 9.495,11.872 9.063 C 12.455 8.501,12.740 8.075,12.915 7.506 C 13.062 7.030,13.012 6.642,12.771 6.391 C 12.714 6.331,12.530 6.225,12.364 6.156 C 11.983 5.998,11.751 5.833,11.582 5.601 C 11.340 5.268,11.240 5.016,11.181 4.590 L 11.155 4.400 11.968 4.400 C 12.414 4.401,13.077 4.419,13.440 4.440 M9.370 5.640 C 9.547 6.206,9.856 6.704,10.327 7.184 L 10.646 7.507 10.433 7.700 C 10.132 7.972,9.739 8.258,9.054 8.703 C 8.106 9.320,7.666 9.842,7.518 10.526 C 7.453 10.828,7.488 11.325,7.595 11.604 C 7.838 12.236,8.449 12.808,9.098 13.011 C 9.494 13.134,10.104 13.126,10.898 12.987 C 11.227 12.930,11.503 12.889,11.511 12.898 C 11.534 12.920,11.228 13.370,10.977 13.684 C 10.676 14.061,10.583 14.097,9.917 14.099 C 9.395 14.100,9.368 14.104,9.211 14.208 C 8.901 14.413,8.722 14.997,8.839 15.418 C 8.896 15.621,9.092 15.844,9.312 15.956 C 9.539 16.071,10.419 16.343,10.863 16.434 C 12.883 16.850,14.735 16.471,16.072 15.368 C 17.917 13.845,18.958 11.895,19.119 9.658 C 19.141 9.351,19.161 8.956,19.163 8.780 L 19.167 8.460 19.304 8.754 C 19.712 9.629,20.000 10.982,20.000 12.029 C 20.000 12.891,19.765 14.109,19.443 14.920 C 18.333 17.713,15.830 19.617,12.820 19.958 C 10.813 20.186,8.689 19.564,7.020 18.260 C 6.659 17.977,5.950 17.261,5.674 16.900 C 4.839 15.805,4.317 14.582,4.095 13.197 C 3.974 12.442,4.008 11.093,4.165 10.393 L 4.207 10.205 4.395 10.341 C 4.809 10.637,5.209 10.596,5.587 10.218 C 5.843 9.962,5.958 9.730,5.959 9.468 C 5.960 9.223,5.891 9.091,5.569 8.721 C 5.276 8.385,5.080 8.013,5.080 7.791 C 5.080 7.710,5.049 7.557,5.012 7.451 C 4.922 7.199,4.924 6.366,5.016 5.842 C 5.053 5.634,5.090 5.456,5.100 5.447 C 5.109 5.438,5.221 5.524,5.348 5.638 C 5.476 5.753,5.632 5.873,5.695 5.907 C 5.904 6.017,6.187 6.016,6.614 5.904 C 7.107 5.774,7.258 5.774,7.571 5.902 C 8.118 6.127,8.439 6.025,8.913 5.472 L 9.220 5.115 9.254 5.247 C 9.273 5.320,9.325 5.497,9.370 5.640 " stroke="none" fill="black" fill-rule="evenodd"></path></svg>