<svg xmlns="http://www.w3.org/2000/svg" width="24" height="24" viewBox="0 0 24 24" fill="none" stroke="currentColor" stroke-width="2" stroke-linecap="round" stroke-linejoin="round" class="icon icon-tabler icons-tabler-outline icon-tabler-brand-framer"><path d="M5.673 2.063 C 5.453 2.131,5.166 2.392,5.039 2.643 C 4.924 2.868,4.924 3.132,5.040 3.363 C 5.101 3.486,5.810 4.223,7.352 5.769 L 9.575 7.997 7.617 8.009 L 5.658 8.020 5.459 8.122 C 5.242 8.234,5.103 8.407,5.039 8.644 C 5.012 8.743,5.002 9.940,5.009 12.088 L 5.020 15.380 5.110 15.548 C 5.159 15.640,5.249 15.748,5.309 15.788 C 5.369 15.828,6.777 17.213,8.439 18.866 C 10.555 20.971,11.513 21.898,11.637 21.960 C 12.056 22.170,12.589 21.965,12.871 21.486 L 12.980 21.300 12.991 18.650 L 13.002 16.000 15.611 16.000 C 17.235 16.000,18.275 15.984,18.365 15.959 C 18.587 15.898,18.770 15.755,18.879 15.558 C 18.963 15.408,18.979 15.327,18.979 15.040 C 18.980 14.785,18.961 14.665,18.906 14.560 C 18.865 14.483,17.839 13.425,16.626 12.210 L 14.421 10.000 16.320 10.000 C 17.470 10.000,18.277 9.984,18.365 9.959 C 18.586 9.898,18.770 9.755,18.880 9.558 L 18.980 9.380 18.980 6.000 L 18.980 2.620 18.891 2.453 C 18.785 2.256,18.622 2.131,18.371 2.055 C 18.092 1.971,5.947 1.979,5.673 2.063 M17.000 6.000 L 17.000 8.000 14.710 8.000 L 12.420 8.000 10.420 6.000 L 8.420 4.000 12.710 4.000 L 17.000 4.000 17.000 6.000 M13.580 12.000 L 15.580 14.000 11.290 14.000 L 7.000 14.000 7.000 12.000 L 7.000 10.000 9.290 10.000 L 11.580 10.000 13.580 12.000 M11.000 17.280 C 11.000 17.984,10.995 18.560,10.990 18.560 C 10.984 18.560,10.404 17.984,9.700 17.280 L 8.420 16.000 9.710 16.000 L 11.000 16.000 11.000 17.280 " stroke="none" fill="black" fill-rule="evenodd"></path></svg>