<svg xmlns="http://www.w3.org/2000/svg" width="24" height="24" viewBox="0 0 24 24" fill="none" stroke="currentColor" stroke-width="2" stroke-linecap="round" stroke-linejoin="round" class="icon icon-tabler icons-tabler-outline icon-tabler-eye-heart"><path d="M11.160 5.043 C 7.815 5.297,4.962 7.199,2.619 10.738 C 2.100 11.523,2.001 11.724,2.001 12.000 C 2.001 12.270,2.091 12.457,2.573 13.193 C 4.386 15.964,6.520 17.742,8.980 18.531 C 9.908 18.828,10.268 18.858,10.564 18.662 C 11.006 18.369,11.146 17.481,10.808 17.107 C 10.701 16.988,10.401 16.852,10.049 16.762 C 7.962 16.229,6.176 14.855,4.522 12.508 C 4.131 11.955,4.124 12.052,4.600 11.384 C 5.096 10.690,5.418 10.303,5.980 9.725 C 6.846 8.835,7.662 8.233,8.615 7.781 C 9.785 7.226,10.685 7.024,12.000 7.023 C 13.302 7.021,14.329 7.254,15.442 7.805 C 16.913 8.533,18.188 9.686,19.399 11.383 C 19.769 11.902,19.972 12.099,20.204 12.161 C 20.519 12.246,20.899 12.104,21.221 11.782 C 21.535 11.468,21.584 11.172,21.389 10.780 C 21.277 10.553,20.814 9.903,20.366 9.340 C 19.920 8.780,18.809 7.652,18.320 7.263 C 16.200 5.578,13.823 4.841,11.160 5.043 M11.510 9.041 C 10.536 9.195,9.621 9.918,9.236 10.837 C 8.720 12.072,9.100 13.548,10.140 14.351 C 10.991 15.008,11.588 14.940,11.965 14.143 C 12.207 13.630,12.082 13.234,11.578 12.916 C 11.260 12.715,11.102 12.511,11.036 12.217 C 10.939 11.784,11.144 11.326,11.521 11.131 C 12.099 10.834,12.724 11.089,12.960 11.720 C 13.062 11.993,13.260 12.247,13.445 12.343 C 13.700 12.474,14.250 12.384,14.586 12.155 C 15.031 11.852,15.021 11.211,14.558 10.432 C 14.181 9.798,13.398 9.239,12.664 9.080 C 12.383 9.019,11.778 8.998,11.510 9.041 M15.699 14.037 C 14.670 14.202,13.737 14.905,13.305 15.840 C 13.072 16.345,13.021 16.592,13.024 17.200 C 13.026 17.692,13.037 17.773,13.149 18.111 C 13.314 18.608,13.546 18.985,13.936 19.393 C 14.114 19.578,14.984 20.440,15.868 21.306 C 17.563 22.967,17.651 23.038,18.000 23.038 C 18.345 23.038,18.445 22.958,19.971 21.466 C 22.507 18.986,22.575 18.908,22.818 18.213 C 23.020 17.636,23.050 16.947,22.900 16.380 C 22.746 15.802,22.353 15.189,21.871 14.775 C 20.903 13.943,19.453 13.773,18.325 14.360 L 18.013 14.522 17.697 14.363 C 17.245 14.135,16.862 14.039,16.340 14.020 C 16.098 14.012,15.810 14.019,15.699 14.037 M16.753 16.136 C 16.861 16.191,17.080 16.356,17.239 16.502 C 17.843 17.056,18.170 17.055,18.773 16.497 C 19.226 16.077,19.559 15.955,20.020 16.041 C 20.841 16.193,21.259 17.127,20.806 17.797 C 20.748 17.883,20.101 18.542,19.368 19.262 C 18.242 20.369,18.025 20.565,17.961 20.535 C 17.919 20.516,17.278 19.898,16.537 19.163 C 15.024 17.661,15.020 17.657,15.023 17.160 C 15.025 16.915,15.045 16.822,15.133 16.651 C 15.292 16.341,15.584 16.126,15.980 16.025 C 16.156 15.980,16.559 16.038,16.753 16.136 " stroke="none" fill="black" fill-rule="evenodd"></path></svg>