<svg xmlns="http://www.w3.org/2000/svg" width="24" height="24" viewBox="0 0 24 24" fill="none" stroke="currentColor" stroke-width="2" stroke-linecap="round" stroke-linejoin="round" class="icon icon-tabler icons-tabler-outline icon-tabler-mickey"><path d="M4.878 2.044 C 3.453 2.228,2.126 3.184,1.470 4.500 C 0.600 6.244,0.949 8.313,2.347 9.704 C 2.872 10.227,3.523 10.609,4.240 10.815 C 4.460 10.878,4.578 10.932,4.574 10.966 C 4.570 10.996,4.496 11.236,4.408 11.500 C 3.572 14.012,4.043 16.764,5.674 18.900 C 5.933 19.239,6.606 19.925,6.960 20.211 C 8.378 21.357,10.190 22.000,12.000 22.000 C 13.810 22.000,15.622 21.357,17.040 20.211 C 17.394 19.925,18.067 19.239,18.326 18.900 C 19.957 16.764,20.428 14.012,19.592 11.500 C 19.504 11.236,19.430 10.996,19.426 10.966 C 19.422 10.932,19.541 10.878,19.759 10.814 C 20.521 10.592,21.142 10.214,21.708 9.627 C 22.269 9.046,22.606 8.476,22.814 7.756 C 23.422 5.658,22.439 3.435,20.475 2.468 C 18.813 1.649,16.791 1.949,15.453 3.213 C 14.661 3.960,14.206 4.834,14.036 5.934 C 13.989 6.242,13.986 6.247,13.884 6.224 C 13.136 6.059,12.836 6.028,12.000 6.028 C 11.183 6.028,10.669 6.081,10.105 6.222 C 10.016 6.245,10.010 6.231,9.964 5.933 C 9.794 4.834,9.339 3.960,8.547 3.213 C 7.583 2.303,6.225 1.870,4.878 2.044 M6.228 4.113 C 7.008 4.356,7.645 4.996,7.890 5.780 C 7.953 5.983,7.977 6.165,7.979 6.440 C 7.981 7.017,7.956 7.091,7.709 7.243 C 7.164 7.578,6.483 8.160,6.014 8.690 L 5.740 9.000 5.500 8.999 C 4.747 8.997,3.952 8.604,3.522 8.023 C 2.930 7.222,2.841 6.257,3.278 5.380 C 3.365 5.204,3.512 4.973,3.604 4.867 C 3.976 4.438,4.566 4.114,5.140 4.025 C 5.376 3.989,5.986 4.038,6.228 4.113 M18.960 4.057 C 20.249 4.289,21.131 5.499,20.964 6.805 C 20.887 7.405,20.648 7.875,20.195 8.322 C 19.797 8.714,19.077 9.000,18.492 9.000 L 18.260 8.999 17.964 8.670 C 17.472 8.120,16.837 7.579,16.291 7.243 C 16.044 7.091,16.019 7.017,16.021 6.440 C 16.024 5.787,16.264 5.221,16.744 4.737 C 17.331 4.145,18.114 3.904,18.960 4.057 M12.564 8.039 C 14.670 8.244,16.453 9.488,17.410 11.420 C 18.068 12.749,18.168 14.483,17.671 15.940 C 16.988 17.944,15.291 19.428,13.160 19.885 C 12.554 20.015,11.446 20.015,10.840 19.885 C 8.706 19.427,7.013 17.947,6.329 15.940 C 5.680 14.039,6.031 11.930,7.261 10.340 C 8.521 8.712,10.528 7.841,12.564 8.039 " stroke="none" fill="black" fill-rule="evenodd"></path></svg>