<svg xmlns="http://www.w3.org/2000/svg" width="24" height="24" viewBox="0 0 24 24" fill="none" stroke="currentColor" stroke-width="2" stroke-linecap="round" stroke-linejoin="round" class="icon icon-tabler icons-tabler-outline icon-tabler-butterfly"><path d="M8.597 2.039 C 8.270 2.212,7.961 2.701,7.960 3.047 C 7.960 3.285,8.002 3.394,8.167 3.582 C 8.301 3.734,11.425 5.844,11.666 5.945 C 11.835 6.016,12.165 6.016,12.334 5.945 C 12.575 5.844,15.699 3.734,15.833 3.582 C 15.998 3.394,16.040 3.285,16.040 3.047 C 16.039 2.696,15.726 2.206,15.394 2.037 C 15.203 1.940,14.910 1.939,14.697 2.036 C 14.608 2.076,13.965 2.490,13.267 2.955 L 12.000 3.801 10.733 2.955 C 10.035 2.490,9.392 2.076,9.303 2.036 C 9.092 1.940,8.781 1.942,8.597 2.039 M7.880 6.042 C 6.742 6.183,5.710 6.645,4.874 7.387 C 3.562 8.550,2.856 10.331,3.037 12.020 C 3.208 13.612,3.994 14.994,5.268 15.939 C 5.467 16.088,5.473 16.097,5.422 16.197 C 5.299 16.435,5.115 17.035,5.060 17.375 C 4.780 19.098,5.652 20.787,7.228 21.576 C 7.844 21.885,8.488 22.022,9.166 21.989 C 10.169 21.940,11.027 21.581,11.743 20.912 L 12.004 20.667 12.192 20.848 C 13.019 21.644,14.050 22.038,15.180 21.988 C 17.042 21.907,18.566 20.584,18.942 18.721 C 18.995 18.460,19.006 18.265,18.989 17.861 C 18.964 17.280,18.878 16.888,18.669 16.404 L 18.538 16.100 18.811 15.900 C 19.184 15.627,19.729 15.051,20.025 14.619 C 20.463 13.978,20.718 13.390,20.887 12.637 C 21.021 12.037,21.021 10.969,20.886 10.365 C 20.648 9.292,20.160 8.403,19.380 7.617 C 18.618 6.851,17.694 6.351,16.598 6.114 C 16.004 5.986,15.004 5.986,14.402 6.115 C 13.647 6.277,13.020 6.545,12.377 6.981 L 11.994 7.241 11.687 7.027 C 11.040 6.576,10.341 6.271,9.618 6.124 C 9.151 6.029,8.305 5.989,7.880 6.042 M8.987 8.043 C 9.616 8.128,10.331 8.450,10.780 8.850 L 11.000 9.046 10.999 13.613 C 10.999 18.591,11.002 18.503,10.772 18.929 C 10.710 19.043,10.567 19.236,10.454 19.358 C 9.689 20.183,8.422 20.211,7.618 19.420 C 7.159 18.969,6.945 18.346,7.037 17.726 C 7.102 17.279,7.286 16.923,7.651 16.532 C 7.817 16.354,7.984 16.150,8.021 16.078 C 8.107 15.911,8.108 15.625,8.024 15.423 C 7.876 15.069,7.419 14.681,7.148 14.680 C 6.827 14.679,6.077 14.110,5.699 13.580 C 5.243 12.939,5.031 12.303,5.028 11.560 C 5.025 10.779,5.204 10.158,5.605 9.558 C 6.357 8.435,7.641 7.859,8.987 8.043 M16.099 8.061 C 17.858 8.368,19.103 9.947,18.988 11.726 C 18.959 12.178,18.866 12.544,18.680 12.947 C 18.490 13.356,18.331 13.590,18.022 13.915 C 17.689 14.266,17.417 14.459,16.965 14.666 C 16.328 14.957,16.226 15.020,16.100 15.197 C 15.993 15.349,15.980 15.399,15.981 15.654 C 15.983 16.024,16.070 16.213,16.415 16.596 C 16.561 16.758,16.734 17.001,16.797 17.136 C 17.170 17.920,17.019 18.787,16.403 19.403 C 15.772 20.034,14.908 20.172,14.085 19.773 C 13.578 19.528,13.127 18.893,13.040 18.300 C 13.013 18.116,13.002 16.470,13.009 13.522 L 13.020 9.024 13.294 8.794 C 14.037 8.170,15.113 7.889,16.099 8.061 " stroke="none" fill="black" fill-rule="evenodd"></path></svg>