<svg xmlns="http://www.w3.org/2000/svg" width="24" height="24" viewBox="0 0 24 24" fill="none" stroke="currentColor" stroke-width="2" stroke-linecap="round" stroke-linejoin="round" class="icon icon-tabler icons-tabler-outline icon-tabler-code-circle"><path d="M11.080 2.045 C 9.507 2.184,7.883 2.751,6.540 3.630 C 5.905 4.045,5.499 4.378,4.919 4.958 C 2.953 6.926,1.919 9.544,2.013 12.320 C 2.084 14.439,2.752 16.328,4.033 18.040 C 4.430 18.570,5.305 19.464,5.800 19.847 C 7.242 20.961,8.787 21.624,10.600 21.907 C 11.247 22.008,12.753 22.008,13.400 21.907 C 15.638 21.557,17.504 20.620,19.062 19.062 C 20.620 17.504,21.557 15.638,21.907 13.400 C 22.008 12.753,22.008 11.247,21.907 10.600 C 21.624 8.786,20.959 7.238,19.847 5.800 C 19.510 5.365,18.639 4.494,18.200 4.154 C 16.133 2.555,13.646 1.818,11.080 2.045 M12.734 4.041 C 14.574 4.216,16.228 4.976,17.554 6.256 C 20.043 8.658,20.702 12.394,19.183 15.499 C 18.749 16.387,18.223 17.105,17.496 17.801 C 16.876 18.394,16.262 18.819,15.471 19.200 C 13.267 20.265,10.733 20.265,8.529 19.200 C 7.477 18.693,6.612 18.015,5.847 17.100 C 3.848 14.711,3.440 11.302,4.816 8.500 C 6.162 5.760,8.867 4.049,11.920 4.005 C 12.129 4.003,12.495 4.019,12.734 4.041 M9.620 9.046 C 9.390 9.165,7.153 11.411,7.040 11.637 C 6.986 11.744,6.951 11.889,6.951 12.000 C 6.951 12.334,7.057 12.468,8.294 13.706 C 9.532 14.943,9.666 15.049,10.000 15.049 C 10.477 15.049,11.049 14.477,11.049 14.000 C 11.049 13.693,10.921 13.513,10.147 12.730 L 9.425 12.000 10.147 11.270 C 10.580 10.832,10.905 10.469,10.959 10.363 C 11.137 10.012,11.048 9.646,10.701 9.299 C 10.361 8.959,9.967 8.867,9.620 9.046 M13.626 9.045 C 13.257 9.239,12.951 9.673,12.951 10.000 C 12.951 10.307,13.079 10.487,13.853 11.270 L 14.575 12.000 13.853 12.730 C 13.079 13.513,12.951 13.693,12.951 14.000 C 12.951 14.477,13.523 15.049,14.000 15.049 C 14.334 15.049,14.468 14.943,15.706 13.706 C 16.943 12.468,17.049 12.334,17.049 12.000 C 17.049 11.889,17.014 11.744,16.960 11.637 C 16.842 11.400,14.608 9.162,14.372 9.044 C 14.152 8.934,13.835 8.935,13.626 9.045 " stroke="none" fill="black" fill-rule="evenodd"></path></svg>