<svg xmlns="http://www.w3.org/2000/svg" width="24" height="24" viewBox="0 0 24 24" fill="none" stroke="currentColor" stroke-width="2" stroke-linecap="round" stroke-linejoin="round" class="icon icon-tabler icons-tabler-outline icon-tabler-chevron-right-pipe"><path d="M16.614 4.057 C 16.377 4.131,16.212 4.261,16.109 4.453 L 16.020 4.620 16.010 11.414 C 16.003 15.892,16.013 18.259,16.039 18.358 C 16.144 18.747,16.434 18.961,16.896 18.991 C 17.381 19.022,17.699 18.882,17.880 18.558 L 17.980 18.380 17.980 11.500 L 17.980 4.620 17.891 4.453 C 17.842 4.362,17.746 4.247,17.678 4.199 C 17.414 4.010,16.957 3.950,16.614 4.057 M5.626 5.045 C 5.420 5.154,5.146 5.433,5.038 5.644 C 4.924 5.867,4.924 6.132,5.039 6.363 C 5.102 6.487,5.942 7.356,7.853 9.270 L 10.579 12.000 7.853 14.730 C 5.942 16.644,5.102 17.513,5.039 17.637 C 4.863 17.990,4.952 18.354,5.299 18.701 C 5.645 19.047,6.010 19.137,6.363 18.961 C 6.613 18.836,12.836 12.613,12.961 12.363 C 13.014 12.256,13.049 12.111,13.049 12.000 C 13.049 11.889,13.014 11.744,12.961 11.637 C 12.840 11.394,6.614 5.164,6.372 5.044 C 6.152 4.934,5.834 4.935,5.626 5.045 " stroke="none" fill="black" fill-rule="evenodd"></path></svg>