<svg xmlns="http://www.w3.org/2000/svg" width="24" height="24" viewBox="0 0 24 24" fill="none" stroke="currentColor" stroke-width="2" stroke-linecap="round" stroke-linejoin="round" class="icon icon-tabler icons-tabler-outline icon-tabler-shopping-cart-discount"><path d="M3.614 2.057 C 3.377 2.131,3.212 2.261,3.109 2.453 C 3.035 2.592,3.020 2.684,3.020 3.000 C 3.020 3.331,3.033 3.403,3.120 3.558 C 3.230 3.755,3.414 3.898,3.635 3.959 C 3.715 3.981,4.054 4.000,4.390 4.000 L 5.000 4.000 5.000 10.073 L 5.000 16.145 4.670 16.313 C 3.922 16.693,3.365 17.355,3.114 18.160 C 2.979 18.594,2.979 19.406,3.114 19.840 C 3.421 20.826,4.174 21.579,5.160 21.886 C 5.594 22.021,6.406 22.021,6.840 21.886 C 7.826 21.579,8.579 20.826,8.886 19.840 C 9.032 19.372,9.015 18.479,8.854 18.057 C 8.835 18.008,9.101 18.000,10.768 18.000 C 12.921 18.000,12.995 17.992,13.229 17.751 C 13.418 17.556,13.486 17.355,13.486 16.997 C 13.486 16.491,13.303 16.196,12.909 16.064 C 12.740 16.008,12.371 16.000,9.859 16.000 L 7.000 16.000 7.000 15.000 L 7.000 14.000 10.110 14.000 C 12.070 14.000,13.274 13.985,13.365 13.959 C 13.586 13.898,13.770 13.755,13.880 13.558 C 13.967 13.402,13.980 13.332,13.979 13.000 C 13.978 12.567,13.898 12.355,13.678 12.199 C 13.399 12.000,13.401 12.000,10.094 12.000 L 7.000 12.000 7.000 9.040 C 7.000 7.412,7.010 6.080,7.023 6.080 C 7.180 6.080,18.819 6.926,18.832 6.938 C 18.841 6.948,18.683 8.118,18.481 9.538 C 18.141 11.919,18.116 12.137,18.161 12.325 C 18.249 12.690,18.534 12.922,18.987 12.995 C 19.528 13.082,19.902 12.888,20.061 12.438 C 20.159 12.158,21.010 6.091,20.988 5.830 C 20.949 5.383,20.698 5.113,20.251 5.037 C 20.070 5.007,7.306 4.080,7.067 4.080 C 7.017 4.080,7.005 3.960,6.993 3.350 C 6.979 2.691,6.969 2.604,6.890 2.453 C 6.786 2.256,6.622 2.131,6.371 2.055 C 6.117 1.979,3.859 1.981,3.614 2.057 M20.620 15.046 C 20.384 15.167,15.154 20.407,15.039 20.637 C 14.863 20.990,14.953 21.355,15.299 21.701 C 15.645 22.047,16.010 22.137,16.363 21.961 C 16.613 21.836,21.836 16.613,21.961 16.363 C 22.137 16.010,22.047 15.645,21.701 15.299 C 21.361 14.959,20.968 14.867,20.620 15.046 M15.614 15.057 C 15.221 15.180,15.039 15.435,15.009 15.906 C 14.962 16.621,15.306 17.000,16.000 17.000 C 16.698 17.000,17.043 16.616,16.989 15.900 C 16.963 15.563,16.859 15.327,16.678 15.199 C 16.414 15.010,15.957 14.950,15.614 15.057 M6.310 18.061 C 6.688 18.173,7.000 18.598,7.000 19.001 C 7.000 19.331,6.784 19.696,6.484 19.872 C 6.328 19.963,6.254 19.980,6.000 19.980 C 5.746 19.980,5.672 19.963,5.516 19.872 C 4.935 19.530,4.833 18.774,5.304 18.303 C 5.583 18.024,5.916 17.944,6.310 18.061 M20.614 20.057 C 20.221 20.180,20.039 20.435,20.009 20.906 C 19.962 21.621,20.306 22.000,21.000 22.000 C 21.698 22.000,22.043 21.616,21.989 20.900 C 21.963 20.563,21.859 20.327,21.678 20.199 C 21.414 20.010,20.957 19.950,20.614 20.057 " stroke="none" fill="black" fill-rule="evenodd"></path></svg>