<svg xmlns="http://www.w3.org/2000/svg" width="24" height="24" viewBox="0 0 24 24" fill="none" stroke="currentColor" stroke-width="2" stroke-linecap="round" stroke-linejoin="round" class="icon icon-tabler icons-tabler-outline icon-tabler-equal-not"><path d="M18.620 4.046 C 18.523 4.096,17.505 5.082,16.019 6.564 L 13.579 9.000 9.196 9.000 C 4.500 9.000,4.607 8.996,4.322 9.199 C 4.100 9.357,4.020 9.568,4.020 10.000 C 4.020 10.331,4.033 10.403,4.120 10.558 C 4.230 10.755,4.414 10.898,4.635 10.959 C 4.727 10.985,6.026 11.000,8.180 11.000 L 11.579 11.000 10.580 12.000 L 9.581 13.000 7.197 13.000 C 4.653 13.000,4.595 13.004,4.322 13.199 C 4.100 13.357,4.020 13.568,4.020 14.000 C 4.020 14.331,4.033 14.403,4.120 14.558 C 4.230 14.755,4.414 14.898,4.635 14.959 C 4.719 14.983,5.365 15.000,6.179 15.000 L 7.578 15.000 5.853 16.730 C 4.679 17.908,4.100 18.517,4.040 18.637 C 3.863 18.989,3.952 19.354,4.299 19.701 C 4.646 20.048,5.010 20.137,5.363 19.960 C 5.486 19.899,6.279 19.134,7.981 17.436 L 10.421 15.000 14.821 15.000 C 17.644 15.000,19.272 14.985,19.365 14.959 C 19.586 14.898,19.770 14.755,19.880 14.558 C 19.967 14.402,19.980 14.332,19.979 14.000 C 19.978 13.567,19.898 13.355,19.678 13.199 C 19.397 12.999,19.423 13.000,15.804 13.000 L 12.421 13.000 13.420 12.000 L 14.419 11.000 16.820 11.000 C 18.304 11.000,19.275 10.984,19.365 10.959 C 19.586 10.898,19.770 10.755,19.880 10.558 C 19.967 10.402,19.980 10.332,19.979 10.000 C 19.978 9.567,19.898 9.355,19.678 9.199 C 19.421 9.015,19.275 9.000,17.805 9.000 L 16.422 9.000 18.147 7.270 C 19.321 6.092,19.900 5.483,19.960 5.363 C 20.137 5.011,20.048 4.646,19.701 4.299 C 19.361 3.959,18.967 3.867,18.620 4.046 " stroke="none" fill="black" fill-rule="evenodd"></path></svg>