<svg xmlns="http://www.w3.org/2000/svg" width="24" height="24" viewBox="0 0 24 24" fill="none" stroke="currentColor" stroke-width="2" stroke-linecap="round" stroke-linejoin="round" class="icon icon-tabler icons-tabler-outline icon-tabler-article-off"><path d="M2.626 2.045 C 2.257 2.239,1.951 2.673,1.951 3.000 C 1.951 3.253,2.068 3.465,2.402 3.816 L 2.680 4.109 2.605 4.205 C 2.343 4.537,2.120 5.058,2.041 5.522 C 2.010 5.705,2.000 7.643,2.008 12.180 L 2.020 18.580 2.114 18.860 C 2.443 19.840,3.160 20.557,4.140 20.886 L 4.420 20.980 11.996 20.989 L 19.572 20.999 20.018 21.434 C 20.263 21.674,20.543 21.910,20.639 21.960 C 20.988 22.137,21.354 22.048,21.701 21.701 C 22.115 21.287,22.159 20.872,21.833 20.440 C 21.776 20.364,19.253 17.811,16.760 15.306 C 16.705 15.250,15.805 14.350,14.760 13.306 C 13.715 12.261,12.815 11.361,12.760 11.306 C 12.705 11.250,11.805 10.350,10.760 9.306 C 9.715 8.261,8.815 7.361,8.760 7.305 C 8.705 7.250,7.508 6.062,6.100 4.667 C 4.415 2.996,3.482 2.100,3.372 2.044 C 3.152 1.934,2.835 1.935,2.626 2.045 M7.614 3.057 C 7.377 3.132,7.212 3.261,7.109 3.453 C 7.035 3.592,7.020 3.684,7.020 4.000 C 7.020 4.331,7.033 4.403,7.120 4.558 C 7.230 4.755,7.414 4.898,7.635 4.959 C 7.729 4.985,9.773 5.000,13.443 5.000 C 19.822 5.000,19.372 4.978,19.697 5.303 C 20.022 5.628,20.000 5.178,20.000 11.557 C 20.000 15.227,20.015 17.271,20.041 17.365 C 20.148 17.750,20.437 17.962,20.896 17.991 C 21.381 18.022,21.699 17.882,21.880 17.558 L 21.980 17.380 21.980 11.420 L 21.980 5.460 21.886 5.160 C 21.581 4.182,20.832 3.428,19.861 3.121 L 19.540 3.020 13.660 3.012 C 8.900 3.006,7.748 3.014,7.614 3.057 M5.110 6.530 L 6.079 7.500 6.035 7.660 C 5.966 7.909,6.010 8.356,6.124 8.562 C 6.306 8.892,6.565 8.999,7.180 9.000 L 7.581 9.000 8.580 10.000 L 9.579 11.000 8.196 11.000 C 6.724 11.000,6.579 11.015,6.322 11.199 C 6.100 11.357,6.020 11.568,6.020 12.000 C 6.020 12.331,6.033 12.403,6.120 12.558 C 6.230 12.755,6.414 12.898,6.635 12.959 C 6.725 12.984,7.696 13.000,9.180 13.000 L 11.581 13.000 12.580 14.000 L 13.579 15.000 10.196 15.000 C 6.577 15.000,6.603 14.999,6.322 15.199 C 6.100 15.357,6.020 15.568,6.020 16.000 C 6.020 16.331,6.033 16.403,6.120 16.558 C 6.230 16.755,6.414 16.898,6.635 16.959 C 6.728 16.985,8.356 17.000,11.180 17.000 L 15.581 17.000 16.580 18.000 L 17.580 19.001 11.140 18.990 L 4.700 18.980 4.516 18.872 C 4.415 18.813,4.284 18.700,4.225 18.623 C 3.987 18.311,4.000 18.702,4.000 12.010 C 4.000 6.027,4.008 5.560,4.117 5.560 C 4.130 5.560,4.577 5.997,5.110 6.530 M11.614 7.057 C 11.377 7.131,11.212 7.261,11.109 7.453 C 11.035 7.592,11.020 7.684,11.020 8.000 C 11.020 8.331,11.033 8.403,11.120 8.558 C 11.230 8.755,11.414 8.898,11.635 8.959 C 11.832 9.014,17.168 9.014,17.365 8.959 C 17.586 8.898,17.770 8.755,17.880 8.558 C 17.967 8.402,17.980 8.332,17.979 8.000 C 17.978 7.567,17.898 7.355,17.678 7.199 C 17.401 7.002,17.373 7.000,14.484 7.003 C 12.382 7.005,11.743 7.017,11.614 7.057 M15.614 11.057 C 15.377 11.131,15.212 11.261,15.109 11.453 C 15.035 11.592,15.020 11.684,15.020 12.000 C 15.020 12.331,15.033 12.403,15.120 12.558 C 15.230 12.755,15.414 12.898,15.635 12.959 C 15.823 13.012,17.177 13.012,17.365 12.959 C 17.586 12.898,17.770 12.755,17.880 12.558 C 17.967 12.402,17.980 12.332,17.979 12.000 C 17.978 11.687,17.962 11.591,17.890 11.453 C 17.786 11.256,17.623 11.131,17.371 11.055 C 17.126 10.982,15.851 10.983,15.614 11.057 " stroke="none" fill="black" fill-rule="evenodd"></path></svg>