<svg xmlns="http://www.w3.org/2000/svg" width="24" height="24" viewBox="0 0 24 24" fill="none" stroke="currentColor" stroke-width="2" stroke-linecap="round" stroke-linejoin="round" class="icon icon-tabler icons-tabler-outline icon-tabler-bounce-right"><path d="M17.499 4.040 C 16.363 4.246,15.460 5.049,15.114 6.160 C 14.979 6.594,14.979 7.406,15.114 7.840 C 15.421 8.826,16.174 9.579,17.160 9.886 C 17.594 10.021,18.406 10.021,18.840 9.886 C 19.826 9.579,20.579 8.826,20.886 7.840 C 21.021 7.406,21.021 6.594,20.886 6.160 C 20.581 5.179,19.810 4.407,18.861 4.129 C 18.500 4.023,17.832 3.980,17.499 4.040 M18.310 6.061 C 18.688 6.173,19.000 6.598,19.000 7.001 C 19.000 7.331,18.784 7.696,18.484 7.872 C 18.328 7.963,18.254 7.980,18.000 7.980 C 17.746 7.980,17.672 7.963,17.516 7.872 C 16.935 7.530,16.833 6.774,17.304 6.303 C 17.583 6.024,17.916 5.944,18.310 6.061 M14.597 11.039 C 14.518 11.081,14.392 11.184,14.315 11.269 C 13.978 11.641,12.860 13.796,12.368 15.020 C 12.135 15.599,11.731 16.759,11.641 17.110 C 11.617 17.203,11.584 17.280,11.568 17.279 C 11.553 17.278,11.479 17.187,11.404 17.077 C 11.196 16.770,10.570 16.055,10.224 15.728 C 9.353 14.904,8.314 14.363,7.200 14.155 C 6.855 14.090,5.702 14.091,5.300 14.156 C 4.496 14.286,3.610 14.545,3.336 14.731 C 3.226 14.806,3.111 14.927,3.064 15.020 C 2.842 15.453,3.103 16.247,3.532 16.442 C 3.769 16.550,4.008 16.538,4.485 16.397 C 5.278 16.161,5.609 16.107,6.260 16.107 C 6.748 16.107,6.918 16.122,7.170 16.192 C 7.810 16.367,8.417 16.749,9.010 17.350 C 9.706 18.054,10.266 18.865,10.959 20.172 C 11.254 20.729,11.361 20.866,11.578 20.965 C 12.042 21.175,12.732 20.877,12.912 20.389 C 12.955 20.274,13.029 19.964,13.078 19.700 C 13.506 17.390,14.328 15.189,15.573 13.017 C 15.953 12.354,16.040 12.148,16.040 11.914 C 16.040 11.681,15.955 11.519,15.724 11.311 C 15.367 10.990,14.902 10.878,14.597 11.039 " stroke="none" fill="black" fill-rule="evenodd"></path></svg>