<svg xmlns="http://www.w3.org/2000/svg" width="24" height="24" viewBox="0 0 24 24" fill="none" stroke="currentColor" stroke-width="2" stroke-linecap="round" stroke-linejoin="round" class="icon icon-tabler icons-tabler-outline icon-tabler-alert-small-off"><path d="M2.626 2.045 C 2.420 2.154,2.146 2.433,2.038 2.644 C 1.924 2.867,1.924 3.132,2.039 3.363 C 2.165 3.616,20.384 21.835,20.637 21.961 C 20.990 22.136,21.355 22.047,21.701 21.701 C 22.047 21.355,22.136 20.990,21.961 20.637 C 21.839 20.392,3.616 2.165,3.372 2.044 C 3.152 1.934,2.834 1.935,2.626 2.045 M11.614 6.057 C 11.377 6.131,11.212 6.261,11.109 6.453 C 11.027 6.606,11.019 6.684,11.007 7.405 C 10.999 7.880,11.011 8.252,11.037 8.349 C 11.144 8.748,11.430 8.961,11.896 8.991 C 12.381 9.022,12.699 8.882,12.880 8.558 C 12.978 8.383,12.980 8.364,12.980 7.500 C 12.980 6.667,12.975 6.611,12.891 6.453 C 12.842 6.362,12.746 6.247,12.678 6.199 C 12.414 6.010,11.957 5.950,11.614 6.057 M11.614 15.055 C 11.220 15.184,11.039 15.437,11.009 15.900 C 10.978 16.381,11.119 16.699,11.442 16.880 C 11.597 16.967,11.669 16.980,12.000 16.980 C 12.312 16.980,12.408 16.964,12.540 16.894 C 12.866 16.718,13.000 16.459,13.000 16.000 C 13.000 15.357,12.713 15.048,12.083 15.016 C 11.893 15.006,11.718 15.021,11.614 15.055 " stroke="none" fill="black" fill-rule="evenodd"></path></svg>