<svg xmlns="http://www.w3.org/2000/svg" width="24" height="24" viewBox="0 0 24 24" fill="none" stroke="currentColor" stroke-width="2" stroke-linecap="round" stroke-linejoin="round" class="icon icon-tabler icons-tabler-outline icon-tabler-circuit-cell-plus"><path d="M4.614 2.057 C 4.377 2.131,4.212 2.261,4.109 2.453 C 4.029 2.603,4.019 2.689,4.007 3.310 L 3.993 4.000 3.403 4.000 C 2.577 4.000,2.299 4.097,2.109 4.453 C 2.035 4.592,2.020 4.684,2.020 5.000 C 2.020 5.331,2.033 5.403,2.120 5.558 C 2.230 5.755,2.414 5.898,2.635 5.959 C 2.715 5.981,3.054 6.000,3.390 6.000 L 4.000 6.000 4.000 6.610 C 4.000 6.946,4.019 7.285,4.041 7.365 C 4.148 7.750,4.437 7.962,4.896 7.991 C 5.381 8.022,5.699 7.882,5.880 7.558 C 5.974 7.391,5.981 7.338,5.994 6.690 L 6.008 6.000 6.614 6.000 C 6.947 6.000,7.285 5.981,7.365 5.959 C 7.586 5.898,7.770 5.755,7.880 5.558 C 7.967 5.402,7.980 5.332,7.979 5.000 C 7.978 4.687,7.962 4.591,7.890 4.453 C 7.702 4.098,7.423 4.000,6.598 4.000 L 6.008 4.000 5.993 3.310 C 5.976 2.541,5.930 2.378,5.678 2.199 C 5.414 2.010,4.957 1.950,4.614 2.057 M10.614 4.057 C 10.377 4.131,10.212 4.261,10.109 4.453 L 10.020 4.620 10.009 7.810 L 9.998 11.000 5.905 11.000 C 1.523 11.000,1.606 10.996,1.322 11.199 C 1.100 11.357,1.020 11.568,1.020 12.000 C 1.020 12.331,1.033 12.403,1.120 12.558 C 1.230 12.755,1.414 12.898,1.635 12.959 C 1.728 12.985,3.260 13.000,5.890 13.000 L 10.000 13.000 10.000 16.110 C 10.000 18.070,10.015 19.274,10.041 19.365 C 10.148 19.750,10.437 19.962,10.896 19.991 C 11.381 20.022,11.699 19.882,11.880 19.558 L 11.980 19.380 11.980 12.000 L 11.980 4.620 11.891 4.453 C 11.842 4.362,11.746 4.247,11.678 4.199 C 11.414 4.010,10.957 3.950,10.614 4.057 M14.614 8.057 C 14.377 8.131,14.212 8.261,14.109 8.453 L 14.020 8.620 14.009 11.912 C 14.002 14.060,14.012 15.257,14.039 15.356 C 14.144 15.747,14.434 15.961,14.896 15.991 C 15.381 16.022,15.699 15.882,15.880 15.558 C 15.979 15.381,15.980 15.374,15.993 14.190 L 16.005 13.000 19.113 13.000 C 21.071 13.000,22.274 12.985,22.365 12.959 C 22.586 12.898,22.770 12.755,22.880 12.558 C 22.967 12.402,22.980 12.332,22.979 12.000 C 22.978 11.567,22.898 11.355,22.678 11.199 C 22.399 11.000,22.401 11.000,19.096 11.000 L 16.005 11.000 15.993 9.810 C 15.981 8.669,15.976 8.613,15.891 8.453 C 15.842 8.362,15.746 8.247,15.678 8.199 C 15.414 8.010,14.957 7.950,14.614 8.057 " stroke="none" fill="black" fill-rule="evenodd"></path></svg>