<svg xmlns="http://www.w3.org/2000/svg" width="24" height="24" viewBox="0 0 24 24" fill="none" stroke="currentColor" stroke-width="2" stroke-linecap="round" stroke-linejoin="round" class="icon icon-tabler icons-tabler-outline icon-tabler-vector-bezier"><path d="M10.477 5.073 C 9.806 5.249,9.238 5.823,9.060 6.508 C 9.027 6.634,9.000 6.796,9.000 6.868 L 9.000 7.000 6.870 7.000 L 4.740 6.999 4.652 6.870 C 4.072 6.018,2.863 5.751,1.983 6.281 C 1.068 6.831,0.741 7.975,1.225 8.930 C 1.361 9.199,1.801 9.639,2.070 9.775 C 2.653 10.070,3.342 10.073,3.915 9.782 C 4.138 9.670,4.503 9.349,4.644 9.142 L 4.740 9.001 5.633 9.000 L 6.526 9.000 6.091 9.430 C 5.142 10.368,4.505 11.482,4.186 12.760 L 4.131 12.980 3.868 13.006 C 3.300 13.064,2.869 13.277,2.507 13.681 C 2.281 13.932,2.143 14.187,2.060 14.508 C 1.973 14.839,1.973 17.161,2.060 17.492 C 2.153 17.852,2.310 18.118,2.596 18.404 C 2.882 18.690,3.148 18.847,3.508 18.940 C 3.839 19.027,6.161 19.027,6.492 18.940 C 6.852 18.847,7.118 18.690,7.404 18.404 C 7.694 18.114,7.841 17.863,7.937 17.491 C 8.026 17.149,8.028 14.903,7.940 14.529 C 7.858 14.182,7.720 13.927,7.465 13.653 C 7.193 13.360,6.868 13.163,6.507 13.071 C 6.353 13.032,6.219 12.992,6.208 12.982 C 6.177 12.950,6.396 12.396,6.566 12.080 C 7.050 11.179,7.824 10.423,8.738 9.957 L 9.136 9.754 9.234 9.947 C 9.363 10.202,9.808 10.642,10.070 10.775 C 10.479 10.982,10.632 11.000,12.000 11.000 C 13.368 11.000,13.521 10.982,13.930 10.775 C 14.192 10.642,14.637 10.202,14.766 9.947 L 14.864 9.754 15.262 9.957 C 16.176 10.423,16.951 11.182,17.438 12.088 C 17.604 12.397,17.823 12.950,17.792 12.982 C 17.781 12.992,17.647 13.032,17.493 13.071 C 16.808 13.245,16.240 13.815,16.060 14.508 C 15.973 14.839,15.973 17.161,16.060 17.492 C 16.153 17.852,16.310 18.118,16.596 18.404 C 16.882 18.690,17.148 18.847,17.508 18.940 C 17.839 19.027,20.161 19.027,20.492 18.940 C 20.852 18.847,21.118 18.690,21.404 18.404 C 21.694 18.114,21.841 17.863,21.937 17.491 C 22.026 17.149,22.028 14.903,21.940 14.529 C 21.861 14.195,21.728 13.942,21.493 13.681 C 21.131 13.277,20.700 13.064,20.132 13.006 L 19.869 12.980 19.814 12.760 C 19.495 11.482,18.858 10.368,17.909 9.430 L 17.474 9.000 18.367 9.000 L 19.260 9.001 19.356 9.142 C 19.497 9.349,19.862 9.670,20.085 9.782 C 20.658 10.073,21.347 10.070,21.930 9.775 C 22.196 9.640,22.638 9.200,22.771 8.937 C 23.065 8.358,23.068 7.649,22.781 7.083 C 22.646 6.816,22.297 6.449,22.017 6.281 C 21.137 5.751,19.928 6.018,19.348 6.870 L 19.260 6.999 17.139 7.000 L 15.018 7.000 14.969 6.692 C 14.905 6.287,14.743 5.953,14.471 5.659 C 14.198 5.366,13.872 5.164,13.523 5.073 C 13.134 4.972,10.866 4.972,10.477 5.073 M13.000 8.000 L 13.000 9.000 12.000 9.000 L 11.000 9.000 11.000 8.000 L 11.000 7.000 12.000 7.000 L 13.000 7.000 13.000 8.000 M6.000 16.000 L 6.000 17.000 5.000 17.000 L 4.000 17.000 4.000 16.000 L 4.000 15.000 5.000 15.000 L 6.000 15.000 6.000 16.000 M20.000 16.000 L 20.000 17.000 19.000 17.000 L 18.000 17.000 18.000 16.000 L 18.000 15.000 19.000 15.000 L 20.000 15.000 20.000 16.000 " stroke="none" fill="black" fill-rule="evenodd"></path></svg>