<svg xmlns="http://www.w3.org/2000/svg" width="24" height="24" viewBox="0 0 24 24" fill="none" stroke="currentColor" stroke-width="2" stroke-linecap="round" stroke-linejoin="round" class="icon icon-tabler icons-tabler-outline icon-tabler-coins"><path d="M8.045 2.045 C 6.383 2.157,4.756 2.642,3.699 3.341 C 3.038 3.778,2.572 4.270,2.298 4.820 C 1.981 5.456,1.997 5.097,2.009 11.131 L 2.020 16.500 2.125 16.770 C 2.444 17.589,3.071 18.168,4.280 18.758 C 4.861 19.042,5.097 19.090,5.378 18.983 C 5.840 18.806,6.166 18.037,5.968 17.590 C 5.870 17.367,5.668 17.210,5.201 16.993 C 4.769 16.792,4.249 16.446,4.120 16.274 L 4.020 16.140 4.008 14.890 C 4.002 14.203,4.005 13.640,4.015 13.640 C 4.025 13.640,4.201 13.721,4.407 13.821 C 4.857 14.038,5.118 14.082,5.378 13.983 C 5.840 13.806,6.166 13.037,5.968 12.590 C 5.870 12.367,5.668 12.210,5.201 11.993 C 4.769 11.792,4.249 11.446,4.120 11.274 L 4.020 11.140 4.008 10.010 C 4.002 9.388,4.007 8.880,4.019 8.880 C 4.032 8.880,4.172 8.946,4.331 9.026 C 5.792 9.762,8.061 10.132,10.053 9.957 C 12.821 9.715,14.964 8.662,15.702 7.180 C 16.454 5.671,15.737 4.086,13.840 3.067 C 12.366 2.275,10.227 1.898,8.045 2.045 M9.800 4.041 C 11.905 4.201,13.707 4.981,13.967 5.846 C 14.099 6.288,13.625 6.818,12.700 7.264 C 11.243 7.967,8.987 8.189,7.044 7.819 C 5.214 7.470,3.820 6.557,4.033 5.846 C 4.243 5.148,5.580 4.436,7.203 4.159 C 8.070 4.011,8.906 3.973,9.800 4.041 M14.180 10.023 C 12.711 10.167,12.137 10.279,11.223 10.604 C 10.278 10.939,9.462 11.426,8.917 11.980 C 8.570 12.334,8.413 12.552,8.246 12.912 C 8.008 13.430,8.001 13.510,8.001 16.000 C 8.001 18.572,8.003 18.586,8.306 19.200 C 8.468 19.530,8.549 19.636,8.917 20.006 C 9.157 20.247,9.479 20.521,9.660 20.640 C 10.484 21.176,11.636 21.607,12.800 21.814 C 13.583 21.953,13.921 21.979,15.000 21.979 C 16.079 21.979,16.417 21.953,17.200 21.814 C 18.364 21.607,19.516 21.176,20.340 20.640 C 20.521 20.521,20.843 20.247,21.083 20.006 C 21.451 19.636,21.532 19.530,21.694 19.200 C 21.997 18.586,21.999 18.572,21.999 16.000 C 21.999 13.510,21.992 13.430,21.754 12.912 C 21.587 12.552,21.430 12.334,21.083 11.980 C 20.709 11.600,20.272 11.291,19.702 11.003 C 18.413 10.351,17.039 10.050,15.220 10.022 C 14.736 10.014,14.268 10.015,14.180 10.023 M16.592 12.117 C 17.831 12.303,18.947 12.741,19.576 13.290 C 19.847 13.526,20.021 13.854,19.987 14.064 C 19.849 14.913,18.028 15.780,16.013 15.957 C 15.392 16.012,14.608 16.012,13.987 15.957 C 11.972 15.780,10.151 14.913,10.013 14.064 C 9.979 13.854,10.153 13.526,10.424 13.290 C 11.165 12.643,12.507 12.179,14.040 12.040 C 14.639 11.985,15.981 12.026,16.592 12.117 M11.117 17.362 C 11.849 17.627,12.638 17.812,13.520 17.926 C 14.081 17.998,15.919 17.998,16.480 17.926 C 17.697 17.769,18.739 17.477,19.613 17.047 L 20.000 16.857 20.000 17.470 C 20.000 17.921,19.984 18.120,19.941 18.225 C 19.734 18.720,19.027 19.199,17.978 19.555 C 16.229 20.148,13.801 20.150,12.028 19.559 C 11.087 19.245,10.342 18.765,10.112 18.325 C 10.003 18.117,10.000 18.093,10.000 17.484 L 10.000 16.857 10.387 17.047 C 10.600 17.152,10.929 17.293,11.117 17.362 " stroke="none" fill="black" fill-rule="evenodd"></path></svg>