<svg xmlns="http://www.w3.org/2000/svg" width="24" height="24" viewBox="0 0 24 24" fill="none" stroke="currentColor" stroke-width="2" stroke-linecap="round" stroke-linejoin="round" class="icon icon-tabler icons-tabler-outline icon-tabler-candy-off"><path d="M2.626 2.045 C 2.420 2.154,2.146 2.433,2.038 2.644 C 1.924 2.867,1.924 3.132,2.039 3.363 C 2.102 3.487,2.967 4.380,4.943 6.360 L 7.757 9.180 6.866 10.080 C 6.066 10.889,5.959 11.013,5.807 11.309 C 5.568 11.773,5.475 12.160,5.473 12.700 C 5.472 12.985,5.495 13.230,5.538 13.394 C 5.575 13.534,5.599 13.653,5.592 13.658 C 5.586 13.662,5.123 13.861,4.565 14.100 C 3.840 14.410,3.468 14.592,3.266 14.737 C 2.259 15.460,1.947 16.813,2.530 17.940 C 2.631 18.135,2.918 18.444,4.077 19.603 C 5.345 20.871,5.531 21.043,5.785 21.173 C 6.169 21.370,6.506 21.452,6.940 21.453 C 7.714 21.456,8.377 21.141,8.886 20.529 C 9.155 20.206,9.302 19.843,9.522 18.961 C 9.634 18.510,9.731 18.136,9.738 18.129 C 9.744 18.122,9.812 18.154,9.889 18.199 C 10.309 18.447,11.042 18.582,11.616 18.518 C 12.035 18.471,12.316 18.386,12.700 18.189 C 12.985 18.042,13.118 17.928,13.920 17.134 L 14.820 16.243 17.640 19.057 C 19.620 21.033,20.513 21.898,20.637 21.961 C 20.990 22.137,21.354 22.048,21.701 21.701 C 22.047 21.355,22.136 20.990,21.961 20.637 C 21.839 20.392,3.616 2.165,3.372 2.044 C 3.152 1.934,2.834 1.935,2.626 2.045 M16.170 2.298 C 15.685 2.408,15.167 2.731,14.835 3.129 C 14.594 3.420,14.549 3.508,14.058 4.660 C 13.843 5.166,13.664 5.584,13.660 5.589 C 13.657 5.595,13.530 5.572,13.377 5.540 C 13.013 5.463,12.432 5.464,12.050 5.543 C 11.498 5.657,11.069 5.896,10.585 6.358 C 10.008 6.907,9.973 7.369,10.470 7.866 C 10.720 8.116,10.922 8.215,11.180 8.215 C 11.428 8.215,11.588 8.133,11.900 7.849 C 12.209 7.567,12.395 7.482,12.700 7.482 C 13.115 7.482,13.185 7.534,14.375 8.737 C 14.972 9.340,15.505 9.881,15.560 9.938 C 15.615 9.996,15.808 10.179,15.988 10.345 C 16.393 10.717,16.520 10.947,16.519 11.298 C 16.518 11.607,16.433 11.792,16.144 12.107 C 15.908 12.366,15.762 12.630,15.761 12.803 C 15.757 13.280,16.341 13.879,16.810 13.880 C 17.104 13.880,17.318 13.754,17.694 13.360 C 18.271 12.753,18.518 12.130,18.519 11.276 C 18.520 10.791,18.436 10.398,18.245 9.998 C 18.178 9.858,18.128 9.739,18.132 9.734 C 18.137 9.729,18.510 9.634,18.961 9.522 C 19.843 9.302,20.206 9.155,20.529 8.886 C 21.141 8.377,21.456 7.714,21.453 6.940 C 21.452 6.506,21.370 6.169,21.172 5.785 C 21.043 5.533,20.865 5.338,19.649 4.115 C 18.191 2.648,18.037 2.521,17.520 2.354 C 17.184 2.246,16.521 2.219,16.170 2.298 M16.992 4.297 C 17.051 4.328,17.627 4.883,18.270 5.530 C 19.113 6.377,19.442 6.733,19.446 6.803 C 19.465 7.112,19.396 7.280,19.210 7.373 C 19.149 7.404,18.528 7.570,17.830 7.744 L 16.559 8.059 15.936 7.435 L 15.312 6.812 15.821 5.626 C 16.381 4.319,16.432 4.240,16.725 4.240 C 16.812 4.240,16.933 4.266,16.992 4.297 M11.300 12.721 L 13.420 14.842 12.657 15.600 C 11.810 16.441,11.681 16.528,11.280 16.528 C 10.931 16.528,10.750 16.426,10.371 16.016 C 10.189 15.820,10.004 15.624,9.958 15.580 C 9.332 14.979,7.706 13.344,7.621 13.229 C 7.531 13.108,7.505 13.023,7.489 12.799 C 7.455 12.327,7.501 12.254,8.374 11.370 C 8.792 10.947,9.144 10.600,9.157 10.600 C 9.170 10.600,10.134 11.554,11.300 12.721 M7.440 15.940 L 8.058 16.559 7.739 17.845 C 7.564 18.552,7.388 19.184,7.349 19.248 C 7.257 19.400,7.032 19.495,6.844 19.460 C 6.723 19.437,6.521 19.255,5.585 18.327 C 4.972 17.718,4.419 17.150,4.355 17.064 C 4.270 16.949,4.240 16.863,4.240 16.735 C 4.240 16.433,4.323 16.378,5.620 15.821 C 6.258 15.547,6.789 15.322,6.800 15.321 C 6.812 15.321,7.099 15.599,7.440 15.940 " stroke="none" fill="black" fill-rule="evenodd"></path></svg>