<svg xmlns="http://www.w3.org/2000/svg" width="24" height="24" viewBox="0 0 24 24" fill="none" stroke="currentColor" stroke-width="2" stroke-linecap="round" stroke-linejoin="round" class="icon icon-tabler icons-tabler-outline icon-tabler-circle-arrow-left"><path d="M11.080 2.045 C 9.507 2.184,7.883 2.751,6.540 3.630 C 5.905 4.045,5.499 4.378,4.919 4.958 C 2.953 6.926,1.919 9.544,2.013 12.320 C 2.084 14.439,2.752 16.328,4.033 18.040 C 4.430 18.570,5.305 19.464,5.800 19.847 C 7.242 20.961,8.787 21.624,10.600 21.907 C 11.247 22.008,12.753 22.008,13.400 21.907 C 15.638 21.557,17.504 20.620,19.062 19.062 C 20.620 17.504,21.557 15.638,21.907 13.400 C 22.008 12.753,22.008 11.247,21.907 10.600 C 21.624 8.786,20.959 7.238,19.847 5.800 C 19.510 5.365,18.639 4.494,18.200 4.154 C 16.133 2.555,13.646 1.818,11.080 2.045 M12.734 4.041 C 14.574 4.216,16.228 4.976,17.554 6.256 C 20.043 8.658,20.702 12.394,19.183 15.499 C 18.749 16.387,18.223 17.105,17.496 17.801 C 16.876 18.394,16.262 18.819,15.471 19.200 C 13.267 20.265,10.733 20.265,8.529 19.200 C 7.477 18.693,6.612 18.015,5.847 17.100 C 3.848 14.711,3.440 11.302,4.816 8.500 C 6.162 5.760,8.867 4.049,11.920 4.005 C 12.129 4.003,12.495 4.019,12.734 4.041 M11.620 7.046 C 11.525 7.095,10.652 7.932,9.460 9.118 C 8.360 10.213,7.399 11.150,7.325 11.200 C 7.147 11.322,6.945 11.747,6.945 12.000 C 6.945 12.237,7.148 12.681,7.304 12.785 C 7.366 12.826,8.327 13.763,9.439 14.866 C 10.818 16.234,11.516 16.899,11.637 16.960 C 11.989 17.137,12.354 17.048,12.701 16.701 C 13.048 16.354,13.137 15.989,12.960 15.637 C 12.901 15.521,12.452 15.039,11.647 14.230 L 10.423 13.000 13.321 13.000 C 15.140 13.000,16.274 12.985,16.365 12.959 C 16.586 12.898,16.770 12.755,16.880 12.558 C 16.967 12.402,16.980 12.332,16.979 12.000 C 16.978 11.567,16.898 11.355,16.678 11.199 C 16.400 11.001,16.385 11.000,13.305 11.000 L 10.423 11.000 11.647 9.770 C 12.452 8.961,12.901 8.479,12.960 8.363 C 13.137 8.011,13.048 7.646,12.701 7.299 C 12.361 6.959,11.967 6.867,11.620 7.046 " stroke="none" fill="black" fill-rule="evenodd"></path></svg>