<svg xmlns="http://www.w3.org/2000/svg" width="24" height="24" viewBox="0 0 24 24" fill="none" stroke="currentColor" stroke-width="2" stroke-linecap="round" stroke-linejoin="round" class="icon icon-tabler icons-tabler-outline icon-tabler-menu-order"><path d="M11.620 2.046 C 11.387 2.166,8.154 5.409,8.039 5.637 C 7.863 5.990,7.952 6.355,8.299 6.701 C 8.646 7.048,9.011 7.137,9.363 6.960 C 9.479 6.901,9.961 6.452,10.770 5.647 L 12.000 4.423 13.230 5.647 C 14.039 6.452,14.521 6.901,14.637 6.960 C 14.989 7.137,15.354 7.048,15.701 6.701 C 16.048 6.355,16.137 5.990,15.961 5.637 C 15.841 5.397,12.611 2.163,12.372 2.044 C 12.151 1.934,11.836 1.935,11.620 2.046 M3.614 9.057 C 3.377 9.131,3.212 9.261,3.109 9.453 C 3.035 9.592,3.020 9.684,3.020 10.000 C 3.020 10.331,3.033 10.403,3.120 10.558 C 3.230 10.755,3.414 10.898,3.635 10.959 C 3.835 11.015,20.165 11.015,20.365 10.959 C 20.586 10.898,20.770 10.755,20.880 10.558 C 20.967 10.402,20.980 10.332,20.979 10.000 C 20.978 9.567,20.898 9.355,20.678 9.199 C 20.386 8.990,20.799 9.000,11.984 9.003 C 5.367 9.005,3.748 9.015,3.614 9.057 M3.614 13.057 C 3.377 13.131,3.212 13.261,3.109 13.453 C 3.035 13.592,3.020 13.684,3.020 14.000 C 3.020 14.331,3.033 14.403,3.120 14.558 C 3.230 14.755,3.414 14.898,3.635 14.959 C 3.835 15.015,20.165 15.015,20.365 14.959 C 20.586 14.898,20.770 14.755,20.880 14.558 C 20.967 14.402,20.980 14.332,20.979 14.000 C 20.978 13.567,20.898 13.355,20.678 13.199 C 20.386 12.990,20.799 13.000,11.984 13.003 C 5.367 13.005,3.748 13.015,3.614 13.057 M8.626 17.045 C 8.420 17.154,8.146 17.433,8.038 17.644 C 7.924 17.867,7.924 18.132,8.039 18.363 C 8.163 18.610,11.390 21.837,11.637 21.961 C 11.868 22.076,12.132 22.076,12.363 21.961 C 12.610 21.837,15.837 18.610,15.961 18.363 C 16.137 18.010,16.048 17.645,15.701 17.299 C 15.361 16.958,14.980 16.868,14.628 17.045 C 14.523 17.098,13.999 17.588,13.230 18.353 L 12.000 19.577 10.770 18.353 C 10.001 17.588,9.477 17.098,9.372 17.045 C 9.152 16.934,8.835 16.934,8.626 17.045 " stroke="none" fill="black" fill-rule="evenodd"></path></svg>