<svg xmlns="http://www.w3.org/2000/svg" width="24" height="24" viewBox="0 0 24 24" fill="none" stroke="currentColor" stroke-width="2" stroke-linecap="round" stroke-linejoin="round" class="icon icon-tabler icons-tabler-outline icon-tabler-brand-google-drive"><path d="M8.593 4.044 C 8.394 4.147,8.079 4.485,7.981 4.700 C 7.932 4.810,6.599 7.051,5.020 9.680 C 3.442 12.309,2.116 14.538,2.075 14.633 C 1.983 14.846,1.979 15.139,2.064 15.345 C 2.100 15.430,2.761 16.553,3.533 17.840 C 4.305 19.127,5.001 20.306,5.079 20.460 C 5.231 20.761,5.376 20.889,5.650 20.963 C 5.850 21.017,18.088 21.015,18.276 20.961 C 18.463 20.907,18.659 20.776,18.769 20.629 C 18.822 20.558,19.502 19.438,20.279 18.140 C 21.056 16.842,21.752 15.705,21.826 15.614 C 21.987 15.413,22.040 15.282,22.040 15.087 C 22.039 14.801,21.882 14.358,21.741 14.241 C 21.705 14.211,20.359 11.990,18.748 9.305 C 17.051 6.475,15.758 4.359,15.672 4.273 C 15.399 3.998,15.479 4.004,11.908 3.991 C 9.053 3.981,8.703 3.987,8.593 4.044 M16.814 9.977 C 18.126 12.164,19.200 13.964,19.200 13.977 C 19.200 13.990,18.381 14.000,17.381 14.000 L 15.562 14.000 13.181 10.022 C 11.871 7.835,10.800 6.035,10.800 6.022 C 10.800 6.010,11.616 6.000,12.614 6.000 L 14.428 6.000 16.814 9.977 M9.935 8.506 C 10.411 9.302,10.800 9.974,10.800 10.000 C 10.800 10.066,8.370 14.117,8.257 14.240 C 8.206 14.295,8.126 14.426,8.080 14.531 C 8.014 14.680,6.336 17.513,6.053 17.954 C 5.994 18.046,5.968 18.008,5.078 16.524 L 4.164 15.000 6.572 10.983 C 8.369 7.986,8.991 6.978,9.025 7.013 C 9.049 7.039,9.459 7.711,9.935 8.506 M12.634 13.006 C 12.946 13.527,13.200 13.963,13.200 13.976 C 13.200 13.989,12.652 14.000,11.982 14.000 L 10.764 14.000 11.372 12.983 C 11.826 12.223,11.991 11.978,12.024 12.013 C 12.049 12.039,12.323 12.486,12.634 13.006 M19.200 16.023 C 19.200 16.036,18.801 16.711,18.314 17.523 L 17.429 19.000 12.596 19.000 L 7.764 19.000 8.664 17.500 L 9.564 16.000 14.382 16.000 C 17.032 16.000,19.200 16.010,19.200 16.023 " stroke="none" fill="black" fill-rule="evenodd"></path></svg>