<svg xmlns="http://www.w3.org/2000/svg" width="24" height="24" viewBox="0 0 24 24" fill="none" stroke="currentColor" stroke-width="2" stroke-linecap="round" stroke-linejoin="round" class="icon icon-tabler icons-tabler-outline icon-tabler-bubble-minus"><path d="M11.734 2.041 C 10.343 2.187,8.960 2.840,7.960 3.820 L 7.660 4.115 7.138 4.158 C 5.755 4.273,4.589 4.801,3.570 5.775 C 2.767 6.543,2.255 7.435,1.963 8.574 C 1.831 9.086,1.789 9.529,1.812 10.157 C 1.835 10.798,1.896 11.131,2.103 11.755 C 2.411 12.682,2.831 13.358,3.527 14.050 L 4.000 14.521 3.958 14.904 C 3.838 15.977,4.243 17.097,5.030 17.870 C 5.284 18.119,5.597 18.356,5.831 18.475 L 6.000 18.562 6.000 19.854 C 6.000 21.316,6.011 21.385,6.288 21.699 C 6.566 22.015,6.888 22.112,7.240 21.986 C 7.317 21.959,8.183 21.454,9.165 20.866 L 10.949 19.795 11.185 19.855 C 11.835 20.021,12.643 20.042,12.921 19.901 C 13.271 19.723,13.377 19.514,13.379 19.000 C 13.380 18.668,13.367 18.598,13.280 18.442 C 13.218 18.331,13.110 18.220,12.995 18.149 C 12.831 18.047,12.755 18.031,12.315 17.998 C 11.834 17.962,11.646 17.925,11.210 17.781 C 11.067 17.733,10.919 17.716,10.744 17.727 C 10.494 17.743,10.463 17.759,9.247 18.488 L 8.006 19.233 7.993 18.386 C 7.981 17.620,7.972 17.525,7.896 17.380 C 7.780 17.157,7.538 16.985,7.193 16.882 C 6.809 16.766,6.609 16.647,6.386 16.399 C 6.031 16.003,5.868 15.487,5.953 15.025 C 5.979 14.884,6.046 14.665,6.103 14.537 C 6.290 14.115,6.273 13.780,6.052 13.518 C 5.997 13.452,5.766 13.272,5.540 13.118 C 5.061 12.792,4.653 12.380,4.391 11.958 C 3.287 10.185,3.784 7.902,5.520 6.762 C 6.214 6.307,6.787 6.148,7.720 6.153 C 8.299 6.156,8.353 6.150,8.542 6.059 C 8.681 5.992,8.810 5.882,8.952 5.707 C 9.226 5.368,9.685 4.936,9.972 4.746 C 12.208 3.267,15.160 4.089,16.338 6.520 C 16.495 6.845,16.663 7.044,16.856 7.136 C 16.924 7.168,17.151 7.224,17.360 7.260 C 20.614 7.821,22.082 11.555,20.084 14.186 C 19.723 14.662,19.665 14.777,19.665 15.020 C 19.665 15.267,19.772 15.481,20.007 15.707 C 20.543 16.222,21.046 16.174,21.548 15.561 C 22.236 14.719,22.668 13.799,22.889 12.709 C 23.019 12.068,23.017 10.933,22.886 10.320 C 22.407 8.090,20.931 6.364,18.840 5.589 C 18.631 5.512,18.356 5.425,18.229 5.397 L 17.997 5.347 17.801 5.023 C 16.554 2.970,14.148 1.787,11.734 2.041 M15.614 18.057 C 15.377 18.131,15.212 18.261,15.109 18.453 C 15.035 18.592,15.020 18.684,15.020 19.000 C 15.020 19.331,15.033 19.403,15.120 19.558 C 15.230 19.755,15.414 19.898,15.635 19.959 C 15.832 20.014,22.168 20.014,22.365 19.959 C 22.586 19.898,22.770 19.755,22.880 19.558 C 22.967 19.402,22.980 19.332,22.979 19.000 C 22.978 18.567,22.898 18.355,22.678 18.199 C 22.398 17.999,22.411 18.000,18.984 18.003 C 16.472 18.005,15.744 18.017,15.614 18.057 " stroke="none" fill="black" fill-rule="evenodd"></path></svg>