<svg xmlns="http://www.w3.org/2000/svg" width="24" height="24" viewBox="0 0 24 24" fill="none" stroke="currentColor" stroke-width="2" stroke-linecap="round" stroke-linejoin="round" class="icon icon-tabler icons-tabler-outline icon-tabler-calendar-user"><path d="M7.614 2.057 C 7.377 2.131,7.212 2.261,7.109 2.453 C 7.029 2.603,7.019 2.689,7.007 3.305 L 6.994 3.991 6.227 4.010 C 5.567 4.027,5.415 4.043,5.139 4.126 C 4.181 4.415,3.420 5.179,3.114 6.160 L 3.020 6.460 3.020 13.000 L 3.020 19.540 3.114 19.840 C 3.418 20.816,4.150 21.555,5.140 21.886 L 5.420 21.979 8.810 21.991 C 11.058 21.999,12.252 21.989,12.354 21.962 C 12.583 21.900,12.768 21.758,12.880 21.558 C 12.967 21.402,12.980 21.332,12.979 21.000 C 12.977 20.469,12.852 20.247,12.455 20.071 C 12.366 20.032,11.588 20.015,9.020 20.000 L 5.700 19.980 5.516 19.872 C 5.415 19.813,5.284 19.700,5.225 19.623 C 4.992 19.317,5.000 19.464,5.000 15.575 L 5.000 12.000 12.025 12.000 L 19.050 12.000 19.204 12.175 C 19.405 12.403,19.618 12.487,20.003 12.488 C 20.530 12.491,20.866 12.260,20.960 11.833 C 20.993 11.680,21.002 10.891,20.992 9.020 C 20.978 6.422,20.978 6.420,20.885 6.140 C 20.558 5.158,19.808 4.412,18.861 4.126 C 18.585 4.043,18.433 4.027,17.774 4.010 L 17.008 3.991 16.993 3.305 C 16.975 2.524,16.927 2.364,16.649 2.182 C 16.199 1.887,15.426 1.979,15.170 2.358 C 15.029 2.568,15.000 2.739,15.000 3.390 L 15.000 4.000 12.004 4.000 L 9.008 4.000 8.993 3.310 C 8.976 2.541,8.930 2.378,8.678 2.199 C 8.414 2.010,7.957 1.950,7.614 2.057 M7.000 6.610 C 7.000 6.946,7.019 7.285,7.041 7.365 C 7.148 7.750,7.437 7.962,7.896 7.991 C 8.381 8.022,8.699 7.882,8.880 7.558 C 8.974 7.391,8.981 7.338,8.994 6.690 L 9.008 6.000 12.004 6.000 L 15.000 6.000 15.000 6.610 C 15.000 6.946,15.019 7.285,15.041 7.365 C 15.148 7.750,15.437 7.962,15.896 7.991 C 16.381 8.022,16.699 7.882,16.880 7.558 C 16.974 7.391,16.981 7.338,16.994 6.690 L 17.008 6.000 17.557 6.000 C 18.249 6.000,18.446 6.052,18.697 6.303 C 18.993 6.599,19.000 6.650,19.000 8.447 L 19.000 10.000 12.000 10.000 L 5.000 10.000 5.000 8.447 C 5.000 6.649,5.007 6.599,5.304 6.303 C 5.554 6.052,5.727 6.006,6.430 6.003 L 7.000 6.000 7.000 6.610 M18.499 14.040 C 17.363 14.246,16.460 15.049,16.114 16.160 C 15.979 16.594,15.979 17.406,16.114 17.840 C 16.241 18.247,16.438 18.609,16.700 18.917 L 16.918 19.174 16.620 19.337 C 15.890 19.736,15.356 20.378,15.122 21.140 C 15.018 21.479,14.972 22.113,15.035 22.344 C 15.146 22.749,15.428 22.961,15.896 22.991 C 16.592 23.035,16.918 22.762,16.996 22.072 C 17.045 21.644,17.108 21.490,17.321 21.283 C 17.591 21.022,17.720 21.000,19.000 21.000 C 20.280 21.000,20.409 21.022,20.679 21.283 C 20.892 21.491,20.958 21.650,21.001 22.067 C 21.068 22.718,21.370 23.000,22.000 23.000 C 22.428 23.000,22.713 22.856,22.880 22.558 C 22.971 22.396,22.980 22.338,22.979 21.920 C 22.978 21.555,22.959 21.398,22.885 21.160 C 22.644 20.377,22.117 19.740,21.380 19.337 L 21.082 19.174 21.300 18.917 C 21.562 18.609,21.759 18.247,21.886 17.840 C 22.021 17.406,22.021 16.594,21.886 16.160 C 21.581 15.179,20.810 14.407,19.861 14.129 C 19.500 14.023,18.832 13.980,18.499 14.040 M19.334 16.064 C 19.698 16.188,20.000 16.613,20.000 17.001 C 20.000 17.331,19.784 17.696,19.484 17.872 C 19.328 17.963,19.254 17.980,19.000 17.980 C 18.746 17.980,18.672 17.963,18.516 17.872 C 17.937 17.531,17.833 16.774,18.301 16.306 C 18.587 16.019,18.952 15.934,19.334 16.064 " stroke="none" fill="black" fill-rule="evenodd"></path></svg>