<svg xmlns="http://www.w3.org/2000/svg" width="24" height="24" viewBox="0 0 24 24" fill="none" stroke="currentColor" stroke-width="2" stroke-linecap="round" stroke-linejoin="round" class="icon icon-tabler icons-tabler-outline icon-tabler-send-2"><path d="M4.260 3.027 C 3.655 3.163,3.222 3.563,3.058 4.137 C 2.927 4.595,2.925 4.587,4.237 8.450 L 5.444 12.000 4.237 15.550 C 2.903 19.479,2.921 19.409,3.074 19.906 C 3.225 20.398,3.592 20.773,4.066 20.919 C 4.406 21.024,4.677 21.020,5.000 20.906 C 5.143 20.855,8.869 19.049,13.280 16.893 C 17.691 14.736,21.346 12.961,21.402 12.947 C 21.690 12.878,21.895 12.631,21.986 12.246 C 22.063 11.916,22.052 11.761,21.936 11.527 C 21.823 11.301,21.653 11.147,21.436 11.075 C 21.361 11.051,17.637 9.242,13.160 7.057 C 8.683 4.871,4.939 3.065,4.840 3.042 C 4.657 3.001,4.405 2.995,4.260 3.027 M10.780 8.121 C 13.442 9.424,15.854 10.604,16.140 10.742 L 16.660 10.994 11.938 10.997 L 7.216 11.000 6.288 8.264 C 5.778 6.760,5.360 5.518,5.360 5.505 C 5.360 5.469,5.632 5.600,10.780 8.121 M16.637 13.015 C 16.591 13.058,5.384 18.517,5.370 18.504 C 5.362 18.495,5.773 17.253,6.285 15.744 L 7.216 13.000 11.935 13.000 C 14.530 13.000,16.646 13.007,16.637 13.015 " stroke="none" fill="black" fill-rule="evenodd"></path></svg>