<svg xmlns="http://www.w3.org/2000/svg" width="24" height="24" viewBox="0 0 24 24" fill="none" stroke="currentColor" stroke-width="2" stroke-linecap="round" stroke-linejoin="round" class="icon icon-tabler icons-tabler-outline icon-tabler-brand-windows"><path d="M11.482 3.781 C 4.776 4.624,4.998 4.588,4.420 4.929 C 4.075 5.133,3.590 5.619,3.389 5.962 C 3.306 6.104,3.189 6.364,3.129 6.540 L 3.020 6.860 3.020 12.000 L 3.020 17.140 3.129 17.460 C 3.286 17.922,3.496 18.253,3.862 18.618 C 4.232 18.987,4.510 19.165,4.973 19.330 C 5.270 19.435,5.868 19.517,11.557 20.229 C 17.743 21.003,17.818 21.012,18.137 20.962 C 18.667 20.880,19.066 20.770,19.358 20.627 C 20.088 20.267,20.631 19.619,20.886 18.800 L 20.980 18.500 20.980 11.940 L 20.980 5.380 20.871 5.060 C 20.712 4.593,20.503 4.261,20.139 3.900 C 19.523 3.288,18.802 2.993,17.946 3.004 C 17.767 3.007,14.858 3.356,11.482 3.781 M18.420 5.094 C 18.663 5.207,18.900 5.460,18.957 5.667 C 18.985 5.768,19.000 6.707,19.000 8.410 L 19.000 11.000 16.000 11.000 L 13.000 11.000 13.000 8.304 L 13.000 5.609 13.390 5.561 C 13.605 5.535,14.671 5.400,15.760 5.261 C 16.849 5.122,17.848 5.007,17.980 5.005 C 18.154 5.002,18.275 5.026,18.420 5.094 M11.000 8.440 L 11.000 11.000 8.000 11.000 L 5.000 11.000 5.000 9.150 C 5.000 7.935,5.015 7.245,5.044 7.140 C 5.100 6.937,5.417 6.622,5.630 6.558 C 5.788 6.511,10.579 5.892,10.850 5.884 L 11.000 5.880 11.000 8.440 M11.000 15.573 L 11.000 18.146 8.355 17.814 C 6.222 17.546,5.677 17.466,5.538 17.399 C 5.318 17.292,5.097 17.049,5.043 16.853 C 5.016 16.755,5.000 16.031,5.000 14.850 L 5.000 13.000 8.000 13.000 L 11.000 13.000 11.000 15.573 M19.000 15.550 C 19.000 17.135,18.984 18.155,18.959 18.245 C 18.902 18.453,18.764 18.639,18.566 18.779 C 18.394 18.900,18.392 18.900,17.787 18.908 C 17.251 18.915,16.939 18.886,15.113 18.658 C 13.976 18.516,13.035 18.400,13.023 18.400 C 13.010 18.400,13.000 17.185,13.000 15.700 L 13.000 13.000 16.000 13.000 L 19.000 13.000 19.000 15.550 " stroke="none" fill="black" fill-rule="evenodd"></path></svg>