<svg xmlns="http://www.w3.org/2000/svg" width="24" height="24" viewBox="0 0 24 24" fill="none" stroke="currentColor" stroke-width="2" stroke-linecap="round" stroke-linejoin="round" class="icon icon-tabler icons-tabler-outline icon-tabler-home-x"><path d="M11.620 2.046 C 11.382 2.168,2.155 11.405,2.039 11.637 C 1.830 12.056,2.036 12.589,2.514 12.871 C 2.693 12.976,2.726 12.981,3.348 12.993 L 3.997 13.007 4.009 16.293 L 4.021 19.580 4.114 19.860 C 4.442 20.839,5.161 21.559,6.140 21.886 L 6.420 21.979 9.520 21.992 C 11.763 22.002,12.679 21.993,12.833 21.959 C 13.262 21.866,13.486 21.537,13.486 21.000 C 13.486 20.491,13.304 20.196,12.909 20.064 C 12.748 20.010,12.497 20.000,11.359 20.000 L 10.000 20.000 10.000 17.447 C 10.000 14.537,9.993 14.614,10.304 14.303 C 10.595 14.012,10.700 13.994,12.086 14.008 L 13.260 14.020 13.597 14.190 C 14.130 14.460,14.415 14.428,14.774 14.058 C 14.929 13.899,15.093 13.584,15.133 13.372 C 15.206 12.983,14.891 12.593,14.268 12.300 C 13.692 12.030,13.612 12.020,11.960 12.020 C 10.556 12.020,10.488 12.024,10.178 12.112 C 9.219 12.387,8.446 13.147,8.115 14.140 L 8.021 14.420 8.009 17.213 L 7.996 20.007 7.348 19.993 C 6.728 19.981,6.692 19.975,6.516 19.872 C 6.328 19.761,6.158 19.572,6.070 19.373 C 6.032 19.286,6.015 18.375,6.000 15.440 L 5.980 11.620 5.890 11.451 C 5.803 11.289,5.556 11.080,5.451 11.080 C 5.423 11.080,5.400 11.066,5.400 11.050 C 5.400 11.033,6.885 9.535,8.700 7.720 L 12.000 4.420 15.300 7.720 C 17.115 9.535,18.599 11.029,18.598 11.040 C 18.597 11.051,18.521 11.097,18.428 11.143 C 18.243 11.233,18.103 11.412,18.041 11.635 C 17.988 11.824,17.988 13.576,18.041 13.765 C 18.148 14.150,18.437 14.362,18.896 14.391 C 19.380 14.422,19.700 14.281,19.876 13.962 C 19.954 13.821,19.976 13.712,19.992 13.394 L 20.011 13.000 20.615 13.000 C 20.948 13.000,21.285 12.981,21.365 12.959 C 21.587 12.898,21.770 12.755,21.879 12.558 C 21.963 12.408,21.979 12.327,21.979 12.040 C 21.980 11.742,21.967 11.678,21.873 11.520 C 21.715 11.256,12.586 2.151,12.372 2.044 C 12.151 1.934,11.836 1.935,11.620 2.046 M16.260 15.487 C 15.822 15.651,15.439 16.129,15.441 16.509 C 15.443 16.820,15.560 16.973,16.590 18.009 L 17.576 19.000 16.590 19.991 C 15.554 21.033,15.442 21.180,15.442 21.500 C 15.442 21.727,15.564 21.968,15.798 22.202 C 16.150 22.554,16.484 22.641,16.837 22.474 C 16.964 22.413,17.321 22.088,18.010 21.406 L 18.999 20.424 20.010 21.426 C 21.118 22.524,21.212 22.592,21.584 22.550 C 21.995 22.503,22.511 21.978,22.550 21.565 C 22.584 21.212,22.493 21.087,21.405 19.990 L 20.424 19.000 21.405 18.010 C 22.491 16.915,22.584 16.787,22.551 16.438 C 22.502 15.934,21.836 15.367,21.397 15.455 C 21.114 15.511,20.947 15.646,19.990 16.595 L 19.000 17.576 18.010 16.595 C 17.388 15.979,16.961 15.587,16.862 15.541 C 16.664 15.450,16.417 15.428,16.260 15.487 " stroke="none" fill="black" fill-rule="evenodd"></path></svg>