<svg xmlns="http://www.w3.org/2000/svg" width="24" height="24" viewBox="0 0 24 24" fill="none" stroke="currentColor" stroke-width="2" stroke-linecap="round" stroke-linejoin="round" class="icon icon-tabler icons-tabler-outline icon-tabler-keyframes"><path d="M12.601 4.080 C 12.329 4.233,12.220 4.332,12.074 4.558 C 11.932 4.779,11.919 5.074,12.040 5.330 C 12.084 5.424,13.174 6.841,14.463 8.480 C 15.751 10.119,16.845 11.523,16.893 11.600 C 17.015 11.797,17.016 12.203,16.893 12.400 C 16.845 12.477,15.751 13.881,14.463 15.519 C 13.174 17.158,12.084 18.575,12.040 18.669 C 11.919 18.926,11.932 19.220,12.074 19.445 C 12.303 19.805,12.688 20.040,13.048 20.040 C 13.461 20.040,13.410 20.096,16.104 16.670 C 17.449 14.960,18.604 13.457,18.671 13.330 C 18.901 12.895,18.980 12.557,18.980 12.000 C 18.980 11.443,18.901 11.105,18.671 10.670 C 18.482 10.314,13.695 4.248,13.489 4.103 C 13.353 4.008,13.268 3.981,13.069 3.970 C 12.851 3.959,12.792 3.972,12.601 4.080 M16.601 4.080 C 16.329 4.233,16.220 4.332,16.074 4.558 C 15.932 4.779,15.919 5.074,16.040 5.330 C 16.084 5.424,17.174 6.841,18.463 8.480 C 19.751 10.119,20.845 11.523,20.893 11.600 C 21.015 11.797,21.016 12.203,20.893 12.400 C 20.845 12.477,19.751 13.881,18.463 15.519 C 17.174 17.158,16.084 18.575,16.040 18.669 C 15.919 18.926,15.932 19.220,16.074 19.445 C 16.303 19.805,16.688 20.040,17.048 20.040 C 17.461 20.040,17.410 20.096,20.104 16.670 C 21.449 14.960,22.604 13.457,22.671 13.330 C 22.901 12.895,22.980 12.557,22.980 12.000 C 22.980 11.443,22.901 11.105,22.671 10.670 C 22.482 10.314,17.695 4.248,17.489 4.103 C 17.353 4.008,17.268 3.981,17.069 3.970 C 16.851 3.959,16.792 3.972,16.601 4.080 M7.467 4.065 C 6.960 4.174,6.460 4.456,6.120 4.825 C 5.672 5.311,1.524 10.348,1.389 10.570 C 1.306 10.706,1.190 10.963,1.131 11.139 C 1.037 11.423,1.025 11.522,1.025 12.000 C 1.025 12.478,1.037 12.577,1.131 12.860 C 1.190 13.036,1.302 13.288,1.381 13.420 C 1.604 13.795,6.103 19.186,6.383 19.413 C 6.662 19.641,6.885 19.761,7.263 19.887 C 7.659 20.019,8.341 20.019,8.737 19.887 C 9.228 19.723,9.595 19.492,9.900 19.155 C 10.391 18.613,14.484 13.639,14.611 13.430 C 14.694 13.294,14.810 13.037,14.869 12.861 C 14.963 12.577,14.975 12.478,14.975 12.000 C 14.975 11.522,14.963 11.423,14.869 11.140 C 14.810 10.964,14.698 10.712,14.619 10.580 C 14.395 10.203,9.896 4.814,9.617 4.587 C 9.013 4.097,8.217 3.904,7.467 4.065 M8.283 6.091 C 8.415 6.180,12.720 11.325,12.892 11.600 C 12.959 11.707,12.980 11.801,12.980 12.000 C 12.980 12.199,12.959 12.293,12.892 12.400 C 12.720 12.675,8.415 17.820,8.283 17.909 C 8.108 18.027,7.892 18.027,7.717 17.909 C 7.584 17.819,3.280 12.675,3.108 12.400 C 3.041 12.293,3.020 12.198,3.020 12.000 C 3.020 11.802,3.041 11.707,3.108 11.600 C 3.280 11.325,7.584 6.181,7.717 6.091 C 7.892 5.973,8.108 5.973,8.283 6.091 " stroke="none" fill="black" fill-rule="evenodd"></path></svg>