<svg xmlns="http://www.w3.org/2000/svg" width="24" height="24" viewBox="0 0 24 24" fill="none" stroke="currentColor" stroke-width="2" stroke-linecap="round" stroke-linejoin="round" class="icon icon-tabler icons-tabler-outline icon-tabler-signal-4g"><path d="M5.614 7.057 C 5.377 7.131,5.212 7.261,5.109 7.453 C 5.021 7.618,5.020 7.646,5.008 9.416 C 4.996 11.353,5.004 11.460,5.202 11.877 C 5.348 12.186,5.771 12.623,6.070 12.775 C 6.472 12.979,6.642 13.000,7.868 13.000 L 9.000 13.000 9.000 14.610 C 9.000 15.565,9.017 16.279,9.041 16.365 C 9.148 16.750,9.437 16.962,9.896 16.991 C 10.381 17.022,10.699 16.882,10.880 16.558 L 10.980 16.380 10.980 12.000 L 10.980 7.620 10.889 7.450 C 10.724 7.140,10.329 6.970,9.874 7.011 C 9.439 7.051,9.141 7.274,9.041 7.635 C 9.017 7.721,9.000 8.435,9.000 9.390 L 9.000 11.000 8.002 11.000 L 7.004 11.000 6.992 9.310 C 6.980 7.651,6.978 7.617,6.891 7.453 C 6.842 7.362,6.746 7.247,6.678 7.199 C 6.414 7.010,5.957 6.950,5.614 7.057 M14.499 7.043 C 13.383 7.230,12.461 8.048,12.114 9.160 L 12.020 9.460 12.020 12.000 L 12.020 14.540 12.114 14.840 C 12.419 15.817,13.158 16.562,14.140 16.884 C 14.405 16.971,14.492 16.976,15.804 16.991 C 16.715 17.001,17.243 16.992,17.348 16.963 C 17.583 16.900,17.767 16.760,17.880 16.558 L 17.980 16.380 17.980 14.000 L 17.980 11.620 17.891 11.453 C 17.785 11.256,17.622 11.131,17.371 11.055 C 17.117 10.979,15.883 10.979,15.629 11.055 C 15.224 11.177,15.040 11.428,15.009 11.900 C 14.968 12.532,15.251 12.922,15.797 12.987 L 16.000 13.011 16.000 14.009 L 16.000 15.007 15.350 14.993 C 14.728 14.981,14.692 14.975,14.516 14.872 C 14.415 14.813,14.284 14.700,14.225 14.623 C 14.000 14.327,14.000 14.332,14.000 12.022 C 14.000 9.586,13.997 9.609,14.303 9.303 C 14.588 9.018,14.692 9.000,16.057 9.000 C 16.713 9.000,17.283 8.982,17.365 8.959 C 17.586 8.898,17.770 8.755,17.880 8.558 C 17.967 8.402,17.980 8.332,17.979 8.000 C 17.978 7.567,17.898 7.355,17.678 7.199 C 17.423 7.017,17.269 7.000,15.944 7.005 C 15.260 7.007,14.609 7.025,14.499 7.043 " stroke="none" fill="black" fill-rule="evenodd"></path></svg>