<svg xmlns="http://www.w3.org/2000/svg" width="24" height="24" viewBox="0 0 24 24" fill="none" stroke="currentColor" stroke-width="2" stroke-linecap="round" stroke-linejoin="round" class="icon icon-tabler icons-tabler-outline icon-tabler-device-cctv-off"><path d="M2.626 2.045 C 2.420 2.154,2.146 2.433,2.038 2.644 C 1.935 2.847,1.924 3.134,2.013 3.306 C 2.060 3.397,2.066 3.463,2.038 3.583 C 2.018 3.669,2.001 4.308,2.001 5.002 C 2.000 6.369,2.018 6.521,2.225 6.930 C 2.361 7.199,2.801 7.639,3.070 7.775 C 3.310 7.896,3.677 8.000,3.868 8.000 L 4.000 8.000 4.000 11.230 C 4.000 14.445,4.013 14.811,4.145 15.500 C 4.558 17.646,5.834 19.534,7.680 20.730 C 8.548 21.293,9.623 21.706,10.740 21.906 C 11.232 21.995,12.652 22.007,13.120 21.927 C 14.986 21.608,16.514 20.826,17.739 19.565 L 17.937 19.360 19.199 20.615 C 20.031 21.443,20.520 21.901,20.637 21.960 C 20.989 22.137,21.354 22.048,21.701 21.701 C 22.116 21.286,22.159 20.868,21.832 20.440 C 21.790 20.385,18.624 17.199,14.795 13.360 C 10.967 9.521,7.796 6.340,7.747 6.292 C 6.022 4.555,3.504 2.111,3.372 2.045 C 3.152 1.934,2.835 1.934,2.626 2.045 M6.614 2.057 C 6.377 2.131,6.212 2.261,6.109 2.453 C 6.035 2.592,6.020 2.684,6.020 3.000 C 6.020 3.331,6.033 3.403,6.120 3.558 C 6.230 3.755,6.414 3.898,6.635 3.959 C 6.730 3.986,9.085 4.000,13.390 4.000 L 20.000 4.000 20.000 5.000 L 20.000 6.000 15.406 6.000 C 10.484 6.000,10.608 5.995,10.322 6.199 C 10.100 6.357,10.020 6.568,10.020 7.000 C 10.020 7.331,10.033 7.403,10.120 7.558 C 10.230 7.755,10.414 7.898,10.635 7.959 C 10.727 7.985,12.095 8.000,14.390 8.000 L 18.000 8.000 18.000 11.138 C 18.000 13.149,17.984 14.422,17.956 14.681 C 17.905 15.149,17.944 15.378,18.109 15.595 C 18.314 15.865,18.869 16.019,19.281 15.920 C 19.546 15.856,19.765 15.648,19.854 15.375 C 19.981 14.988,19.999 14.471,20.000 11.230 L 20.000 8.000 20.132 8.000 C 20.323 8.000,20.690 7.896,20.930 7.775 C 21.196 7.640,21.638 7.200,21.771 6.937 C 21.979 6.527,22.000 6.352,21.999 5.014 C 21.999 3.682,21.974 3.463,21.781 3.083 C 21.646 2.816,21.297 2.449,21.017 2.281 C 20.527 1.986,21.039 2.005,13.520 2.005 C 8.100 2.005,6.747 2.016,6.614 2.057 M4.300 5.720 L 4.578 6.000 4.289 6.000 L 4.000 6.000 4.000 5.720 C 4.000 5.566,4.005 5.440,4.011 5.440 C 4.017 5.440,4.147 5.566,4.300 5.720 M7.671 9.091 L 8.761 10.181 8.496 10.441 C 7.754 11.166,7.231 12.182,7.057 13.238 C 6.850 14.497,7.229 16.003,8.004 17.005 C 8.760 17.981,9.764 18.620,10.960 18.885 C 11.464 18.997,12.434 19.017,12.900 18.925 C 13.867 18.733,14.742 18.278,15.461 17.592 L 15.826 17.244 16.181 17.601 L 16.535 17.957 16.214 18.274 C 15.367 19.108,14.388 19.623,13.120 19.900 C 12.668 19.999,11.672 20.021,11.166 19.944 C 9.695 19.720,8.405 19.020,7.496 17.955 C 6.781 17.118,6.331 16.213,6.113 15.172 C 6.024 14.746,6.022 14.691,6.009 11.370 L 5.996 8.000 6.288 8.000 L 6.581 8.000 7.671 9.091 M11.598 13.040 C 11.597 13.051,11.521 13.097,11.428 13.143 C 11.121 13.293,10.978 13.621,11.009 14.104 C 11.049 14.731,11.422 15.035,12.100 14.991 C 12.515 14.964,12.811 14.787,12.919 14.502 L 12.964 14.385 13.679 15.099 L 14.394 15.813 14.251 15.988 C 14.173 16.084,13.990 16.252,13.844 16.362 C 13.007 16.994,11.966 17.160,10.987 16.818 C 10.592 16.680,10.315 16.507,9.972 16.184 C 9.459 15.702,9.172 15.175,9.054 14.500 C 8.881 13.510,9.235 12.464,9.973 11.791 L 10.180 11.602 10.890 12.310 C 11.280 12.700,11.599 13.028,11.598 13.040 " stroke="none" fill="black" fill-rule="evenodd"></path></svg>