<svg xmlns="http://www.w3.org/2000/svg" width="24" height="24" viewBox="0 0 24 24" fill="none" stroke="currentColor" stroke-width="2" stroke-linecap="round" stroke-linejoin="round" class="icon icon-tabler icons-tabler-outline icon-tabler-timeline-event-text"><path d="M6.477 2.073 C 5.806 2.249,5.238 2.823,5.060 3.508 C 5.009 3.704,5.000 4.350,5.000 8.000 C 5.000 12.640,4.992 12.471,5.225 12.930 C 5.361 13.199,5.801 13.639,6.070 13.775 C 6.486 13.986,6.619 14.000,8.157 14.000 L 9.576 14.000 10.518 14.935 C 11.521 15.930,11.679 16.049,12.000 16.049 C 12.321 16.049,12.479 15.930,13.482 14.935 L 14.424 14.000 15.843 14.000 C 17.381 14.000,17.514 13.986,17.930 13.775 C 18.196 13.640,18.638 13.200,18.771 12.937 C 19.008 12.471,19.000 12.634,18.999 8.014 C 18.999 3.426,19.003 3.520,18.781 3.083 C 18.646 2.816,18.297 2.449,18.017 2.281 C 17.533 1.989,17.867 2.005,12.000 2.005 C 7.157 2.005,6.719 2.010,6.477 2.073 M17.000 8.000 L 17.000 12.000 15.447 12.000 C 14.143 12.000,13.860 12.010,13.680 12.064 C 13.485 12.122,13.397 12.195,12.733 12.851 L 12.000 13.574 11.267 12.851 C 10.603 12.195,10.515 12.122,10.320 12.064 C 10.140 12.010,9.857 12.000,8.553 12.000 L 7.000 12.000 7.000 8.000 L 7.000 4.000 12.000 4.000 L 17.000 4.000 17.000 8.000 M8.614 5.057 C 8.377 5.131,8.212 5.261,8.109 5.453 C 8.035 5.592,8.020 5.684,8.020 6.000 C 8.020 6.331,8.033 6.403,8.120 6.558 C 8.230 6.755,8.414 6.898,8.635 6.959 C 8.832 7.014,15.168 7.014,15.365 6.959 C 15.586 6.898,15.770 6.755,15.880 6.558 C 15.967 6.402,15.980 6.332,15.979 6.000 C 15.978 5.567,15.898 5.355,15.678 5.199 C 15.398 4.999,15.411 5.000,11.984 5.003 C 9.472 5.005,8.744 5.017,8.614 5.057 M8.614 8.057 C 8.377 8.131,8.212 8.261,8.109 8.453 C 8.035 8.592,8.020 8.684,8.020 9.000 C 8.020 9.331,8.033 9.403,8.120 9.558 C 8.230 9.755,8.414 9.898,8.635 9.959 C 8.722 9.983,9.470 10.000,10.500 10.000 C 11.530 10.000,12.278 9.983,12.365 9.959 C 12.586 9.898,12.770 9.755,12.880 9.558 C 12.967 9.402,12.980 9.332,12.979 9.000 C 12.978 8.687,12.962 8.591,12.890 8.453 C 12.786 8.256,12.623 8.131,12.371 8.055 C 12.114 7.978,8.862 7.980,8.614 8.057 M11.499 17.040 C 10.549 17.212,9.740 17.816,9.312 18.670 L 9.147 19.000 6.480 19.000 C 3.631 19.000,3.598 19.002,3.322 19.199 C 3.100 19.357,3.020 19.568,3.020 20.000 C 3.020 20.331,3.033 20.403,3.120 20.558 C 3.230 20.755,3.414 20.898,3.635 20.959 C 3.726 20.984,4.789 21.000,6.463 21.000 L 9.147 21.000 9.312 21.330 C 9.682 22.069,10.355 22.635,11.160 22.886 C 11.412 22.964,11.547 22.979,12.000 22.979 C 12.453 22.979,12.588 22.964,12.840 22.886 C 13.645 22.635,14.318 22.069,14.688 21.330 L 14.853 21.000 17.537 21.000 C 19.211 21.000,20.274 20.984,20.365 20.959 C 20.586 20.898,20.770 20.755,20.880 20.558 C 20.967 20.402,20.980 20.332,20.979 20.000 C 20.978 19.567,20.898 19.355,20.678 19.199 C 20.402 19.002,20.369 19.000,17.520 19.000 L 14.853 19.000 14.688 18.670 C 14.320 17.935,13.631 17.354,12.861 17.129 C 12.500 17.023,11.832 16.980,11.499 17.040 M12.310 19.061 C 12.688 19.173,13.000 19.598,13.000 20.001 C 13.000 20.331,12.784 20.696,12.484 20.872 C 12.328 20.963,12.254 20.980,12.000 20.980 C 11.746 20.980,11.672 20.963,11.516 20.872 C 10.935 20.530,10.833 19.774,11.304 19.303 C 11.583 19.024,11.916 18.944,12.310 19.061 " stroke="none" fill="black" fill-rule="evenodd"></path></svg>