<svg xmlns="http://www.w3.org/2000/svg" width="24" height="24" viewBox="0 0 24 24" fill="none" stroke="currentColor" stroke-width="2" stroke-linecap="round" stroke-linejoin="round" class="icon icon-tabler icons-tabler-outline icon-tabler-fish-hook-off"><path d="M2.626 2.045 C 2.420 2.154,2.146 2.433,2.038 2.644 C 1.924 2.867,1.924 3.132,2.039 3.363 C 2.103 3.490,3.898 5.311,8.471 9.888 L 14.815 16.235 14.706 16.512 C 14.263 17.641,13.223 18.553,11.997 18.888 C 11.703 18.968,11.573 18.980,10.980 18.976 C 10.365 18.973,10.266 18.962,9.940 18.865 C 8.649 18.479,7.685 17.587,7.238 16.362 C 7.051 15.849,7.000 15.423,7.000 14.362 L 7.000 13.425 7.730 14.147 C 8.168 14.580,8.531 14.905,8.637 14.959 C 8.988 15.137,9.354 15.048,9.701 14.701 C 10.047 14.355,10.137 13.990,9.961 13.637 C 9.900 13.516,9.349 12.936,8.206 11.793 C 6.559 10.145,6.537 10.126,6.303 10.058 C 5.725 9.892,5.178 10.142,5.041 10.635 C 4.975 10.873,4.989 15.378,5.057 15.820 C 5.455 18.411,7.273 20.340,9.833 20.889 C 10.401 21.010,11.589 21.019,12.120 20.905 C 13.844 20.535,15.285 19.529,16.127 18.108 L 16.335 17.757 18.398 19.814 C 19.820 21.233,20.515 21.899,20.637 21.960 C 20.990 22.137,21.354 22.048,21.701 21.701 C 22.048 21.354,22.137 20.989,21.960 20.637 C 21.862 20.442,20.990 19.562,10.152 8.734 C 5.604 4.191,3.487 2.102,3.372 2.044 C 3.152 1.934,2.835 1.935,2.626 2.045 M15.614 2.057 C 15.377 2.131,15.212 2.261,15.109 2.453 C 15.028 2.606,15.019 2.685,15.007 3.384 L 14.994 4.148 14.667 4.315 C 13.922 4.693,13.364 5.356,13.114 6.160 C 12.979 6.594,12.979 7.406,13.114 7.840 C 13.365 8.645,13.931 9.318,14.670 9.688 L 15.000 9.853 15.000 11.037 C 15.000 11.706,15.018 12.283,15.041 12.365 C 15.148 12.750,15.437 12.962,15.896 12.991 C 16.381 13.022,16.699 12.882,16.880 12.558 C 16.979 12.381,16.980 12.373,17.000 11.113 L 17.020 9.845 17.340 9.684 C 18.072 9.314,18.637 8.640,18.886 7.840 C 19.021 7.406,19.021 6.594,18.886 6.160 C 18.636 5.357,18.078 4.693,17.334 4.315 L 17.007 4.149 16.993 3.384 C 16.980 2.689,16.970 2.605,16.890 2.453 C 16.842 2.362,16.746 2.247,16.678 2.199 C 16.414 2.010,15.957 1.950,15.614 2.057 M16.310 6.061 C 16.688 6.173,17.000 6.598,17.000 7.001 C 17.000 7.331,16.784 7.696,16.484 7.872 C 16.328 7.963,16.254 7.980,16.000 7.980 C 15.746 7.980,15.672 7.963,15.516 7.872 C 14.932 7.528,14.831 6.775,15.307 6.299 C 15.582 6.024,15.918 5.944,16.310 6.061 " stroke="none" fill="black" fill-rule="evenodd"></path></svg>