<svg xmlns="http://www.w3.org/2000/svg" width="24" height="24" viewBox="0 0 24 24" fill="none" stroke="currentColor" stroke-width="2" stroke-linecap="round" stroke-linejoin="round" class="icon icon-tabler icons-tabler-outline icon-tabler-hand-grab"><path d="M11.960 4.062 C 11.415 4.179,10.767 4.605,10.456 5.050 L 10.380 5.159 10.180 5.097 C 9.866 5.000,9.348 4.982,9.000 5.055 C 8.611 5.137,8.118 5.383,7.835 5.636 C 7.540 5.900,7.264 6.310,7.131 6.681 C 7.031 6.960,7.023 7.035,7.008 7.789 L 6.992 8.598 6.813 8.475 C 5.978 7.901,4.809 7.839,3.883 8.321 C 3.066 8.746,2.577 9.512,2.530 10.440 C 2.493 11.152,2.511 11.192,4.047 13.900 C 5.955 17.262,6.321 17.861,6.880 18.531 C 7.986 19.855,9.563 20.709,11.340 20.944 C 11.971 21.027,14.633 21.002,15.140 20.908 C 18.209 20.338,20.455 18.045,20.927 15.000 C 20.967 14.743,20.980 13.971,20.980 11.820 L 20.980 8.980 20.869 8.680 C 20.478 7.616,19.458 6.945,18.338 7.014 L 17.977 7.037 17.879 6.728 C 17.545 5.672,16.474 4.943,15.360 5.014 C 15.173 5.026,14.930 5.063,14.820 5.097 L 14.620 5.159 14.544 5.050 C 14.501 4.989,14.353 4.828,14.213 4.692 C 13.642 4.133,12.767 3.889,11.960 4.062 M12.724 6.062 C 12.790 6.096,12.879 6.182,12.922 6.252 C 12.996 6.374,13.000 6.466,13.000 8.300 C 13.000 9.462,13.016 10.277,13.041 10.365 C 13.148 10.750,13.437 10.962,13.896 10.991 C 14.381 11.022,14.699 10.882,14.880 10.558 L 14.980 10.380 15.000 8.860 C 15.022 7.209,15.020 7.220,15.253 7.078 C 15.415 6.979,15.585 6.979,15.748 7.078 C 15.997 7.230,16.000 7.249,16.000 8.808 C 16.000 9.630,16.017 10.280,16.041 10.365 C 16.148 10.750,16.437 10.962,16.896 10.991 C 17.382 11.022,17.700 10.881,17.879 10.558 C 17.965 10.402,17.979 10.319,17.993 9.880 C 18.011 9.323,18.051 9.201,18.252 9.078 C 18.415 8.979,18.585 8.979,18.748 9.078 C 19.008 9.237,19.000 9.149,19.000 11.780 C 19.000 14.225,18.978 14.690,18.839 15.240 C 18.430 16.850,17.186 18.191,15.600 18.732 C 14.946 18.955,14.802 18.971,13.288 18.989 C 12.103 19.004,11.808 18.996,11.449 18.939 C 10.029 18.716,8.813 17.922,7.992 16.680 C 7.301 15.634,4.520 10.718,4.520 10.543 C 4.521 10.122,5.116 9.860,5.580 10.076 C 5.737 10.149,7.052 11.453,7.216 11.697 C 7.318 11.850,7.762 12.049,8.000 12.049 C 8.201 12.049,8.654 11.864,8.768 11.735 C 8.878 11.610,9.041 11.208,9.037 11.069 C 9.036 10.998,9.026 10.144,9.015 9.172 C 8.994 7.211,8.991 7.237,9.252 7.078 C 9.487 6.935,9.774 7.009,9.922 7.252 C 9.995 7.373,10.000 7.462,10.000 8.800 C 10.000 9.627,10.017 10.280,10.041 10.365 C 10.148 10.750,10.437 10.962,10.896 10.991 C 11.381 11.022,11.699 10.882,11.880 10.558 L 11.980 10.380 12.000 8.360 C 12.022 6.165,12.015 6.223,12.253 6.078 C 12.407 5.984,12.563 5.979,12.724 6.062 " stroke="none" fill="black" fill-rule="evenodd"></path></svg>