<svg xmlns="http://www.w3.org/2000/svg" width="24" height="24" viewBox="0 0 24 24" fill="none" stroke="currentColor" stroke-width="2" stroke-linecap="round" stroke-linejoin="round" class="icon icon-tabler icons-tabler-outline icon-tabler-user-cancel"><path d="M11.400 2.044 C 9.761 2.229,8.261 3.290,7.526 4.785 C 7.158 5.533,7.020 6.136,7.020 7.000 C 7.020 7.670,7.078 8.044,7.268 8.600 C 7.846 10.291,9.253 11.525,11.040 11.907 C 11.511 12.008,12.489 12.008,12.960 11.907 C 14.488 11.580,15.748 10.630,16.433 9.288 C 16.838 8.494,16.980 7.899,16.980 7.000 C 16.980 6.101,16.838 5.506,16.433 4.713 C 15.794 3.461,14.604 2.510,13.240 2.162 C 12.669 2.016,12.019 1.974,11.400 2.044 M12.861 4.129 C 13.804 4.405,14.584 5.183,14.875 6.139 C 14.958 6.412,14.973 6.542,14.973 7.000 C 14.973 7.458,14.958 7.588,14.875 7.861 C 14.582 8.822,13.819 9.581,12.840 9.886 C 12.406 10.021,11.594 10.021,11.160 9.886 C 10.181 9.581,9.418 8.822,9.125 7.861 C 9.042 7.588,9.027 7.458,9.027 7.000 C 9.027 6.542,9.042 6.412,9.125 6.139 C 9.456 5.054,10.371 4.245,11.499 4.040 C 11.832 3.980,12.500 4.023,12.861 4.129 M9.400 14.044 C 7.761 14.229,6.261 15.290,5.526 16.785 C 5.344 17.154,5.194 17.581,5.097 18.000 C 5.041 18.245,5.025 18.563,5.011 19.744 C 5.000 20.701,5.008 21.243,5.037 21.348 C 5.144 21.748,5.430 21.961,5.896 21.991 C 6.381 22.022,6.699 21.882,6.880 21.558 L 6.980 21.380 7.003 19.920 C 7.026 18.520,7.031 18.447,7.125 18.139 C 7.416 17.185,8.180 16.421,9.139 16.123 L 9.460 16.024 11.660 16.002 C 14.070 15.978,14.014 15.984,14.248 15.735 C 14.419 15.553,14.486 15.344,14.486 14.997 C 14.486 14.491,14.303 14.196,13.909 14.064 C 13.743 14.008,13.452 14.001,11.709 14.005 C 10.604 14.008,9.565 14.026,9.400 14.044 M18.358 15.061 C 17.230 15.237,16.143 15.974,15.569 16.953 C 14.320 19.083,15.233 21.785,17.512 22.704 C 19.558 23.528,21.877 22.538,22.704 20.488 C 23.090 19.530,23.090 18.469,22.705 17.516 C 22.172 16.197,21.001 15.269,19.605 15.058 C 19.144 14.989,18.816 14.990,18.358 15.061 M19.470 17.057 C 19.485 17.071,18.954 17.626,18.290 18.290 C 17.626 18.954,17.072 19.486,17.059 19.472 C 17.045 19.459,17.024 19.314,17.012 19.150 C 16.940 18.202,17.563 17.318,18.477 17.071 C 18.735 17.001,19.405 16.991,19.470 17.057 M20.982 18.784 C 21.047 19.396,20.844 19.961,20.398 20.410 C 20.104 20.705,19.779 20.885,19.404 20.963 C 19.181 21.010,18.584 20.997,18.532 20.945 C 18.504 20.918,20.872 18.520,20.927 18.520 C 20.941 18.520,20.966 18.639,20.982 18.784 " stroke="none" fill="black" fill-rule="evenodd"></path></svg>