<svg xmlns="http://www.w3.org/2000/svg" width="24" height="24" viewBox="0 0 24 24" fill="none" stroke="currentColor" stroke-width="2" stroke-linecap="round" stroke-linejoin="round" class="icon icon-tabler icons-tabler-outline icon-tabler-brand-amazon"><path d="M16.582 8.057 C 16.350 8.144,16.232 8.246,16.125 8.454 C 16.012 8.674,15.969 9.099,16.035 9.344 C 16.154 9.784,16.411 9.947,17.068 10.003 C 18.615 10.134,19.186 10.237,19.770 10.488 L 19.963 10.571 19.938 10.756 C 19.758 12.044,19.361 13.227,18.741 14.320 C 18.362 14.987,18.358 15.287,18.726 15.645 C 18.974 15.888,19.238 16.013,19.540 16.033 C 19.760 16.047,19.796 16.037,19.980 15.910 C 20.216 15.747,20.411 15.470,20.749 14.814 C 21.462 13.430,21.897 11.837,21.985 10.284 C 22.011 9.818,22.009 9.799,21.904 9.584 C 21.767 9.304,21.596 9.169,20.986 8.861 C 19.976 8.351,18.827 8.093,17.240 8.021 C 16.854 8.004,16.704 8.012,16.582 8.057 M2.610 10.044 C 2.255 10.220,1.960 10.679,1.960 11.055 C 1.960 11.454,2.206 11.707,3.340 12.476 C 5.088 13.660,7.009 14.453,9.110 14.858 C 9.574 14.947,9.745 14.960,10.470 14.960 C 12.862 14.959,15.103 14.472,17.249 13.485 C 18.009 13.136,18.191 12.737,17.895 12.075 C 17.780 11.821,17.511 11.539,17.341 11.497 C 17.103 11.437,16.785 11.504,16.300 11.717 C 14.421 12.542,12.825 12.900,10.820 12.947 C 9.937 12.968,9.825 12.963,9.420 12.882 C 7.430 12.484,5.572 11.665,3.988 10.487 C 3.741 10.304,3.455 10.111,3.351 10.057 C 3.112 9.934,2.842 9.929,2.610 10.044 " stroke="none" fill="black" fill-rule="evenodd"></path></svg>