<svg xmlns="http://www.w3.org/2000/svg" width="24" height="24" viewBox="0 0 24 24" fill="none" stroke="currentColor" stroke-width="2" stroke-linecap="round" stroke-linejoin="round" class="icon icon-tabler icons-tabler-outline icon-tabler-brand-disney"><path d="M5.320 3.026 C 3.739 3.110,2.623 3.330,1.944 3.692 C 1.610 3.870,1.266 4.199,1.135 4.466 C 0.920 4.906,0.974 5.580,1.255 5.976 C 1.583 6.437,2.297 6.762,3.120 6.826 C 3.651 6.867,3.945 6.716,4.121 6.310 C 4.249 6.016,4.254 5.570,4.131 5.322 C 4.082 5.224,4.046 5.140,4.051 5.135 C 4.056 5.131,4.285 5.103,4.560 5.075 C 5.327 4.996,7.104 5.007,7.740 5.094 C 9.908 5.392,12.337 6.158,14.314 7.168 C 16.977 8.529,18.763 10.168,19.558 11.981 C 20.111 13.240,20.135 14.804,19.619 15.848 C 19.058 16.982,17.943 17.620,16.020 17.906 C 15.421 17.995,13.630 18.007,12.900 17.928 C 12.346 17.867,11.515 17.745,11.210 17.679 L 11.000 17.633 11.000 15.317 L 11.000 13.000 11.610 13.000 C 13.252 13.001,14.550 13.206,15.380 13.596 C 15.801 13.793,16.000 13.966,15.999 14.134 C 15.999 14.280,15.926 14.439,15.840 14.483 C 15.807 14.500,15.661 14.567,15.516 14.632 C 15.057 14.837,14.905 15.161,15.023 15.681 C 15.144 16.214,15.461 16.520,15.892 16.520 C 16.128 16.520,16.607 16.360,16.921 16.176 C 17.560 15.802,17.930 15.124,17.987 14.220 C 18.031 13.532,17.831 13.023,17.320 12.520 C 16.310 11.525,14.355 11.003,11.627 11.001 L 10.993 11.000 11.004 9.350 C 11.014 7.856,11.009 7.685,10.946 7.541 C 10.803 7.213,10.546 7.048,10.124 7.012 C 9.619 6.970,9.267 7.149,9.092 7.540 C 9.028 7.683,9.018 7.880,9.000 9.439 L 8.980 11.178 8.800 11.210 C 7.431 11.457,6.586 11.707,5.803 12.096 C 4.138 12.925,3.615 14.115,4.284 15.554 C 4.369 15.738,4.528 16.008,4.636 16.154 C 4.865 16.462,5.511 17.103,5.861 17.368 C 6.555 17.895,7.814 18.611,8.666 18.965 L 8.993 19.100 9.008 20.200 C 9.025 21.415,9.038 21.490,9.291 21.751 C 9.610 22.081,10.430 22.081,10.749 21.751 C 10.999 21.493,11.020 21.392,11.009 20.487 L 10.999 19.674 11.110 19.696 C 11.800 19.840,12.989 19.958,14.020 19.987 C 18.133 20.100,20.819 18.725,21.693 16.060 C 22.129 14.728,22.095 13.117,21.599 11.700 C 20.933 9.794,19.415 8.015,17.200 6.542 C 15.007 5.084,12.329 3.979,9.541 3.381 C 8.076 3.067,6.714 2.953,5.320 3.026 M8.969 15.246 L 8.980 16.913 8.513 16.675 C 7.644 16.232,6.820 15.633,6.389 15.130 C 6.192 14.901,6.001 14.559,6.000 14.435 C 6.000 14.399,6.068 14.308,6.151 14.232 C 6.556 13.867,7.401 13.532,8.500 13.302 L 8.940 13.210 8.949 13.395 C 8.954 13.497,8.963 14.330,8.969 15.246 " stroke="none" fill="black" fill-rule="evenodd"></path></svg>