<svg xmlns="http://www.w3.org/2000/svg" width="24" height="24" viewBox="0 0 24 24" fill="none" stroke="currentColor" stroke-width="2" stroke-linecap="round" stroke-linejoin="round" class="icon icon-tabler icons-tabler-outline icon-tabler-folder-cancel"><path d="M4.499 3.043 C 3.383 3.230,2.461 4.048,2.114 5.160 L 2.020 5.460 2.020 11.500 L 2.020 17.540 2.114 17.840 C 2.418 18.816,3.149 19.554,4.140 19.886 L 4.420 19.980 8.311 19.991 C 10.892 19.999,12.253 19.989,12.355 19.961 C 12.583 19.900,12.768 19.758,12.880 19.558 C 12.967 19.402,12.980 19.332,12.979 19.000 C 12.977 18.469,12.852 18.247,12.455 18.071 C 12.366 18.031,11.493 18.016,8.520 18.000 L 4.700 17.980 4.516 17.872 C 4.415 17.813,4.284 17.700,4.225 17.623 C 3.987 17.311,4.000 17.655,4.000 11.522 C 4.000 5.182,3.978 5.628,4.303 5.303 C 4.605 5.002,4.618 5.000,6.737 5.000 L 8.580 5.000 9.960 6.383 C 10.719 7.143,11.421 7.814,11.520 7.873 L 11.700 7.980 15.480 8.000 C 19.716 8.022,19.404 7.999,19.717 8.321 C 19.993 8.606,20.000 8.663,20.000 10.557 C 20.000 11.548,20.017 12.279,20.041 12.365 C 20.148 12.750,20.437 12.962,20.896 12.991 C 21.381 13.022,21.699 12.882,21.880 12.558 L 21.980 12.380 21.980 10.420 C 21.980 8.477,21.979 8.457,21.886 8.160 C 21.581 7.182,20.831 6.427,19.861 6.122 L 19.540 6.021 15.980 6.009 L 12.421 5.997 10.980 4.563 C 9.613 3.200,9.529 3.125,9.323 3.064 C 9.134 3.008,8.816 3.001,6.903 3.005 C 5.691 3.007,4.609 3.025,4.499 3.043 M18.358 15.061 C 17.230 15.237,16.143 15.974,15.569 16.953 C 14.320 19.083,15.233 21.785,17.512 22.704 C 19.558 23.528,21.877 22.538,22.704 20.488 C 23.090 19.530,23.090 18.469,22.705 17.516 C 22.172 16.197,21.001 15.269,19.605 15.058 C 19.144 14.989,18.816 14.990,18.358 15.061 M19.470 17.057 C 19.485 17.071,18.954 17.626,18.290 18.290 C 17.626 18.954,17.072 19.486,17.059 19.472 C 17.045 19.459,17.024 19.314,17.012 19.150 C 16.940 18.202,17.563 17.318,18.477 17.071 C 18.735 17.001,19.405 16.991,19.470 17.057 M20.982 18.784 C 21.047 19.396,20.844 19.961,20.398 20.410 C 20.104 20.705,19.779 20.885,19.404 20.963 C 19.181 21.010,18.584 20.997,18.532 20.945 C 18.504 20.918,20.872 18.520,20.927 18.520 C 20.941 18.520,20.966 18.639,20.982 18.784 " stroke="none" fill="black" fill-rule="evenodd"></path></svg>