<svg xmlns="http://www.w3.org/2000/svg" width="24" height="24" viewBox="0 0 24 24" fill="none" stroke="currentColor" stroke-width="2" stroke-linecap="round" stroke-linejoin="round" class="icon icon-tabler icons-tabler-outline icon-tabler-hemisphere"><path d="M10.720 5.025 C 6.341 5.241,3.063 6.403,2.251 8.028 C 2.021 8.487,1.984 8.702,2.014 9.420 C 2.097 11.470,2.778 13.363,4.033 15.040 C 4.430 15.570,5.305 16.464,5.800 16.847 C 7.242 17.961,8.787 18.624,10.600 18.907 C 11.247 19.008,12.753 19.008,13.400 18.907 C 15.638 18.557,17.504 17.620,19.062 16.062 C 20.414 14.709,21.304 13.114,21.740 11.260 C 21.953 10.355,22.061 9.059,21.962 8.588 C 21.588 6.803,18.731 5.492,14.360 5.099 C 13.694 5.040,11.380 4.992,10.720 5.025 M13.380 7.041 C 15.749 7.169,17.637 7.567,18.985 8.221 C 19.391 8.418,19.565 8.529,19.755 8.709 C 19.890 8.837,20.000 8.964,20.000 8.991 C 20.000 9.063,19.730 9.350,19.535 9.483 C 18.579 10.141,16.663 10.664,14.320 10.907 C 13.381 11.004,10.619 11.004,9.680 10.907 C 7.374 10.668,5.533 10.174,4.540 9.529 C 4.292 9.369,4.000 9.077,4.000 8.991 C 4.000 8.964,4.110 8.837,4.245 8.709 C 4.822 8.160,6.409 7.585,8.120 7.305 C 9.742 7.039,11.616 6.945,13.380 7.041 M4.860 11.901 C 5.758 12.254,7.064 12.575,8.340 12.758 C 9.603 12.940,10.221 12.976,12.000 12.976 C 13.779 12.976,14.397 12.940,15.660 12.758 C 16.936 12.575,18.242 12.254,19.140 11.901 C 19.338 11.824,19.503 11.760,19.508 11.760 C 19.533 11.760,19.209 12.469,19.036 12.795 C 18.647 13.524,18.140 14.184,17.496 14.801 C 16.876 15.394,16.262 15.819,15.471 16.200 C 13.267 17.265,10.733 17.265,8.529 16.200 C 7.738 15.819,7.124 15.394,6.504 14.801 C 5.846 14.171,5.345 13.514,4.941 12.750 C 4.758 12.404,4.466 11.760,4.493 11.760 C 4.497 11.760,4.662 11.824,4.860 11.901 " stroke="none" fill="black" fill-rule="evenodd"></path></svg>