<svg xmlns="http://www.w3.org/2000/svg" width="24" height="24" viewBox="0 0 24 24" fill="none" stroke="currentColor" stroke-width="2" stroke-linecap="round" stroke-linejoin="round" class="icon icon-tabler icons-tabler-outline icon-tabler-mood-cry"><path d="M11.080 2.045 C 9.507 2.184,7.883 2.751,6.540 3.630 C 5.905 4.045,5.499 4.378,4.919 4.958 C 2.953 6.926,1.919 9.544,2.013 12.320 C 2.084 14.439,2.752 16.328,4.033 18.040 C 4.430 18.570,5.305 19.464,5.800 19.847 C 7.242 20.961,8.790 21.625,10.600 21.906 C 11.180 21.997,12.716 22.008,13.260 21.926 C 13.787 21.846,14.338 21.730,14.488 21.667 C 14.683 21.586,14.875 21.409,14.941 21.250 C 15.089 20.898,14.960 20.273,14.682 19.994 C 14.424 19.734,14.249 19.718,13.380 19.879 C 12.154 20.106,10.747 20.003,9.500 19.595 C 8.382 19.229,7.352 18.612,6.504 17.801 C 4.495 15.878,3.630 13.155,4.161 10.422 C 4.403 9.176,5.023 7.881,5.848 6.900 C 6.839 5.721,8.096 4.863,9.502 4.403 C 11.478 3.758,13.651 3.908,15.500 4.816 C 17.133 5.618,18.382 6.867,19.184 8.500 C 19.902 9.961,20.129 11.464,19.895 13.196 C 19.825 13.717,19.854 13.925,20.029 14.155 C 20.169 14.339,20.506 14.487,20.841 14.511 C 21.719 14.574,21.980 13.994,21.978 11.980 C 21.977 11.300,21.959 10.940,21.906 10.600 C 21.627 8.793,20.960 7.239,19.847 5.800 C 19.510 5.365,18.639 4.494,18.200 4.154 C 16.133 2.555,13.646 1.818,11.080 2.045 M8.614 9.055 C 8.220 9.184,8.039 9.437,8.009 9.900 C 7.978 10.381,8.119 10.699,8.442 10.880 C 8.597 10.967,8.669 10.980,9.000 10.980 C 9.312 10.980,9.408 10.964,9.540 10.894 C 9.866 10.718,10.000 10.459,10.000 10.000 C 10.000 9.357,9.713 9.048,9.083 9.016 C 8.893 9.006,8.718 9.021,8.614 9.055 M14.614 9.055 C 14.220 9.184,14.039 9.437,14.009 9.900 C 13.978 10.381,14.119 10.699,14.442 10.880 C 14.597 10.967,14.669 10.980,15.000 10.980 C 15.312 10.980,15.408 10.964,15.540 10.894 C 15.866 10.718,16.000 10.459,16.000 10.000 C 16.000 9.357,15.713 9.048,15.083 9.016 C 14.893 9.006,14.718 9.021,14.614 9.055 M11.560 13.224 C 11.268 13.260,10.775 13.369,10.542 13.448 C 9.943 13.651,9.178 14.134,8.788 14.554 C 8.331 15.046,8.332 15.475,8.789 15.938 C 9.033 16.186,9.250 16.295,9.500 16.295 C 9.762 16.295,9.913 16.216,10.300 15.877 C 10.820 15.422,11.374 15.201,12.000 15.201 C 12.626 15.201,13.180 15.422,13.700 15.877 C 14.087 16.216,14.238 16.295,14.500 16.295 C 14.750 16.295,14.967 16.186,15.211 15.938 C 15.789 15.353,15.641 14.810,14.717 14.121 C 14.177 13.719,13.548 13.435,12.903 13.302 C 12.584 13.236,11.822 13.192,11.560 13.224 M18.651 15.041 C 18.418 15.160,18.271 15.305,17.492 16.180 C 16.399 17.409,16.310 17.537,16.114 18.161 C 16.033 18.418,16.020 18.539,16.023 19.020 C 16.026 19.508,16.039 19.620,16.128 19.887 C 16.441 20.833,17.166 21.558,18.113 21.873 C 18.386 21.963,18.485 21.975,19.000 21.975 C 19.522 21.974,19.612 21.964,19.900 21.867 C 20.835 21.555,21.555 20.835,21.868 19.900 C 21.962 19.618,21.975 19.516,21.977 19.040 C 21.979 18.643,21.961 18.431,21.909 18.240 C 21.807 17.865,21.602 17.456,21.376 17.177 C 20.936 16.632,19.619 15.197,19.465 15.094 C 19.238 14.942,18.891 14.920,18.651 15.041 M19.381 17.924 C 19.842 18.443,19.950 18.605,19.983 18.828 C 20.068 19.395,19.664 19.930,19.107 19.988 C 18.373 20.063,17.805 19.327,18.072 18.647 C 18.131 18.497,18.934 17.520,18.999 17.520 C 19.011 17.520,19.183 17.702,19.381 17.924 " stroke="none" fill="black" fill-rule="evenodd"></path></svg>