<svg xmlns="http://www.w3.org/2000/svg" width="24" height="24" viewBox="0 0 24 24" fill="none" stroke="currentColor" stroke-width="2" stroke-linecap="round" stroke-linejoin="round" class="icon icon-tabler icons-tabler-outline icon-tabler-transaction-yuan"><path d="M4.499 2.040 C 3.363 2.246,2.460 3.049,2.114 4.160 C 1.979 4.594,1.979 5.406,2.114 5.840 C 2.421 6.826,3.174 7.579,4.160 7.886 C 4.628 8.032,5.521 8.015,5.943 7.854 C 5.992 7.834,6.000 8.209,6.000 10.599 C 6.000 13.239,6.004 13.386,6.083 13.773 C 6.357 15.118,7.249 16.195,8.512 16.704 C 9.082 16.934,9.512 17.000,10.426 17.000 C 10.863 17.000,11.285 16.981,11.365 16.959 C 11.586 16.898,11.770 16.755,11.880 16.558 C 11.967 16.402,11.980 16.332,11.979 16.000 C 11.978 15.687,11.962 15.591,11.890 15.453 C 11.694 15.082,11.436 15.000,10.462 15.000 C 9.680 15.000,9.439 14.962,9.083 14.781 C 8.816 14.646,8.449 14.297,8.281 14.017 C 7.996 13.545,8.005 13.677,8.002 9.630 L 8.000 6.000 11.073 6.000 L 14.147 6.000 14.312 6.330 C 14.682 7.069,15.355 7.635,16.160 7.886 C 16.594 8.021,17.406 8.021,17.840 7.886 C 18.826 7.579,19.579 6.826,19.886 5.840 C 20.021 5.406,20.021 4.594,19.886 4.160 C 19.581 3.181,18.822 2.418,17.861 2.125 C 17.588 2.042,17.458 2.027,17.000 2.027 C 16.542 2.027,16.412 2.042,16.139 2.125 C 15.358 2.363,14.679 2.938,14.312 3.670 L 14.147 4.000 11.000 4.000 L 7.853 4.000 7.688 3.670 C 7.320 2.935,6.631 2.354,5.861 2.129 C 5.500 2.023,4.832 1.980,4.499 2.040 M5.310 4.061 C 5.688 4.173,6.000 4.598,6.000 5.001 C 6.000 5.331,5.784 5.696,5.484 5.872 C 5.328 5.963,5.254 5.980,5.000 5.980 C 4.746 5.980,4.672 5.963,4.516 5.872 C 3.935 5.530,3.833 4.774,4.304 4.303 C 4.583 4.024,4.916 3.944,5.310 4.061 M17.310 4.061 C 17.688 4.173,18.000 4.598,18.000 5.001 C 18.000 5.331,17.784 5.696,17.484 5.872 C 17.328 5.963,17.254 5.980,17.000 5.980 C 16.746 5.980,16.672 5.963,16.516 5.872 C 15.932 5.528,15.831 4.775,16.307 4.299 C 16.582 4.024,16.918 3.944,17.310 4.061 M14.652 11.058 C 14.402 11.174,14.111 11.433,14.024 11.618 C 13.939 11.796,13.944 12.102,14.035 12.302 C 14.076 12.391,14.634 13.251,15.275 14.212 C 15.916 15.173,16.440 15.968,16.440 15.980 C 16.440 15.991,16.074 16.000,15.626 16.000 C 14.761 16.000,14.557 16.031,14.322 16.199 C 14.100 16.357,14.020 16.568,14.020 17.000 C 14.020 17.331,14.033 17.403,14.120 17.558 C 14.230 17.755,14.414 17.898,14.635 17.959 C 14.716 17.982,15.270 18.000,15.890 18.000 L 17.000 18.000 17.000 19.610 C 17.000 20.565,17.017 21.279,17.041 21.365 C 17.148 21.750,17.437 21.962,17.896 21.991 C 18.381 22.022,18.699 21.882,18.880 21.558 L 18.980 21.380 18.992 19.690 L 19.004 18.000 20.112 18.000 C 20.731 18.000,21.284 17.982,21.365 17.959 C 21.586 17.898,21.770 17.755,21.880 17.558 C 21.967 17.402,21.980 17.332,21.979 17.000 C 21.978 16.567,21.898 16.355,21.678 16.199 C 21.443 16.031,21.239 16.000,20.374 16.000 C 19.926 16.000,19.560 15.991,19.560 15.980 C 19.560 15.968,20.084 15.173,20.725 14.212 C 21.366 13.251,21.924 12.391,21.965 12.302 C 22.056 12.102,22.061 11.796,21.976 11.618 C 21.889 11.433,21.598 11.174,21.348 11.058 C 20.960 10.877,20.600 10.951,20.317 11.268 C 20.242 11.353,19.694 12.155,19.100 13.050 C 18.506 13.945,18.011 14.678,18.000 14.678 C 17.989 14.678,17.494 13.945,16.900 13.050 C 16.306 12.155,15.758 11.353,15.683 11.268 C 15.400 10.951,15.040 10.877,14.652 11.058 " stroke="none" fill="black" fill-rule="evenodd"></path></svg>