<svg xmlns="http://www.w3.org/2000/svg" width="24" height="24" viewBox="0 0 24 24" fill="none" stroke="currentColor" stroke-width="2" stroke-linecap="round" stroke-linejoin="round" class="icon icon-tabler icons-tabler-outline icon-tabler-route-x-2"><path d="M16.626 2.045 C 16.257 2.239,15.951 2.673,15.951 3.000 C 15.951 3.307,16.079 3.487,16.853 4.270 L 17.575 5.000 16.853 5.730 C 16.079 6.513,15.951 6.693,15.951 7.000 C 15.951 7.477,16.523 8.049,17.000 8.049 C 17.307 8.049,17.487 7.921,18.270 7.147 L 19.000 6.425 19.730 7.147 C 20.513 7.921,20.693 8.049,21.000 8.049 C 21.477 8.049,22.049 7.477,22.049 7.000 C 22.049 6.693,21.921 6.513,21.147 5.730 L 20.425 5.000 21.147 4.270 C 21.580 3.832,21.905 3.469,21.959 3.363 C 22.137 3.012,22.048 2.646,21.701 2.299 C 21.360 1.958,20.979 1.868,20.628 2.045 C 20.533 2.094,20.144 2.444,19.730 2.853 L 19.000 3.575 18.270 2.853 C 17.856 2.444,17.467 2.094,17.372 2.045 C 17.152 1.934,16.836 1.934,16.626 2.045 M13.499 4.043 C 12.393 4.228,11.488 5.024,11.114 6.140 L 11.020 6.420 11.000 11.840 C 10.979 17.645,10.990 17.340,10.774 17.625 C 10.599 17.853,10.374 17.959,9.976 18.000 C 9.248 18.076,8.964 18.399,9.009 19.104 C 9.039 19.572,9.251 19.854,9.656 19.965 C 9.887 20.028,10.521 19.982,10.860 19.878 C 11.801 19.589,12.545 18.854,12.875 17.887 L 12.980 17.580 13.000 12.160 C 13.022 6.120,12.997 6.605,13.301 6.301 C 13.497 6.106,13.660 6.041,14.062 6.000 C 14.535 5.951,14.738 5.836,14.904 5.520 C 15.018 5.305,15.009 4.679,14.890 4.453 C 14.687 4.070,14.198 3.926,13.499 4.043 M2.626 16.045 C 2.257 16.239,1.951 16.673,1.951 17.000 C 1.951 17.307,2.079 17.487,2.853 18.270 L 3.575 19.000 2.853 19.730 C 2.079 20.513,1.951 20.693,1.951 21.000 C 1.951 21.477,2.523 22.049,3.000 22.049 C 3.307 22.049,3.487 21.921,4.270 21.147 L 5.000 20.425 5.730 21.147 C 6.513 21.921,6.693 22.049,7.000 22.049 C 7.477 22.049,8.049 21.477,8.049 21.000 C 8.049 20.693,7.921 20.513,7.147 19.730 L 6.425 19.000 7.147 18.270 C 7.580 17.832,7.905 17.469,7.959 17.363 C 8.137 17.012,8.048 16.646,7.701 16.299 C 7.360 15.958,6.979 15.868,6.628 16.045 C 6.533 16.094,6.144 16.444,5.730 16.853 L 5.000 17.575 4.270 16.853 C 3.856 16.444,3.467 16.094,3.372 16.045 C 3.152 15.934,2.836 15.934,2.626 16.045 " stroke="none" fill="black" fill-rule="evenodd"></path></svg>