<svg xmlns="http://www.w3.org/2000/svg" width="24" height="24" viewBox="0 0 24 24" fill="none" stroke="currentColor" stroke-width="2" stroke-linecap="round" stroke-linejoin="round" class="icon icon-tabler icons-tabler-outline icon-tabler-wifi-off"><path d="M2.626 2.045 C 2.420 2.154,2.146 2.433,2.038 2.644 C 1.924 2.868,1.924 3.133,2.040 3.363 C 2.100 3.482,2.656 4.070,3.754 5.174 C 5.227 6.654,5.373 6.812,5.303 6.854 C 4.558 7.299,3.613 8.030,2.993 8.640 C 2.611 9.017,2.560 9.083,2.501 9.288 C 2.420 9.570,2.463 9.772,2.664 10.045 C 3.000 10.503,3.463 10.672,3.859 10.480 C 3.950 10.437,4.221 10.218,4.462 9.996 C 5.146 9.363,5.784 8.890,6.555 8.442 L 6.850 8.271 7.585 9.005 C 7.989 9.409,8.320 9.748,8.320 9.760 C 8.320 9.771,8.116 9.883,7.868 10.009 C 7.338 10.277,6.880 10.576,6.380 10.979 C 5.598 11.610,5.280 12.004,5.280 12.340 C 5.280 12.659,5.652 13.159,6.010 13.321 C 6.372 13.485,6.680 13.393,7.109 12.991 C 7.475 12.649,7.880 12.328,8.233 12.101 C 8.570 11.884,9.310 11.520,9.659 11.400 L 9.898 11.318 10.729 12.149 C 11.186 12.606,11.560 12.991,11.560 13.004 C 11.560 13.018,11.447 13.042,11.310 13.057 C 10.362 13.161,9.294 13.679,8.547 14.396 C 8.008 14.913,7.983 15.388,8.468 15.871 C 8.716 16.118,8.925 16.220,9.180 16.217 C 9.436 16.214,9.584 16.135,9.980 15.791 C 10.370 15.453,10.715 15.254,11.139 15.125 C 11.412 15.042,11.542 15.027,12.000 15.027 C 12.458 15.027,12.588 15.042,12.861 15.125 C 13.285 15.254,13.630 15.453,14.020 15.791 C 14.352 16.079,14.496 16.169,14.700 16.217 C 14.788 16.237,15.560 16.983,17.640 19.058 C 19.619 21.033,20.513 21.898,20.637 21.961 C 20.990 22.137,21.354 22.048,21.701 21.701 C 22.048 21.355,22.137 20.990,21.961 20.637 C 21.897 20.511,20.316 18.898,16.413 14.980 C 13.410 11.966,10.923 9.470,10.887 9.433 C 9.784 8.324,3.631 2.222,3.560 2.168 C 3.264 1.942,2.910 1.895,2.626 2.045 M10.940 5.045 C 9.983 5.126,9.573 5.231,9.372 5.447 C 9.053 5.788,9.096 6.547,9.455 6.906 C 9.711 7.161,9.851 7.184,10.600 7.095 C 11.343 7.006,12.653 6.996,13.280 7.076 C 15.704 7.383,17.754 8.343,19.567 10.022 C 19.791 10.230,20.049 10.436,20.140 10.480 C 20.537 10.672,21.000 10.504,21.336 10.045 C 21.630 9.644,21.603 9.270,21.250 8.877 C 20.824 8.403,19.816 7.575,19.095 7.108 C 16.679 5.543,13.766 4.806,10.940 5.045 M14.140 9.348 C 13.916 9.390,13.866 9.413,13.724 9.541 C 13.487 9.755,13.383 10.030,13.381 10.443 C 13.380 10.760,13.389 10.797,13.495 10.936 C 13.643 11.131,13.771 11.206,14.215 11.360 C 15.209 11.704,15.946 12.153,16.832 12.951 C 17.037 13.135,17.269 13.313,17.349 13.346 C 17.690 13.489,18.060 13.378,18.378 13.038 C 18.882 12.500,18.831 12.107,18.176 11.479 C 17.768 11.088,17.273 10.696,16.840 10.419 C 15.867 9.798,14.546 9.273,14.140 9.348 M11.614 17.055 C 11.220 17.184,11.039 17.437,11.009 17.900 C 10.978 18.381,11.119 18.699,11.442 18.880 C 11.597 18.967,11.669 18.980,12.000 18.980 C 12.312 18.980,12.408 18.964,12.540 18.894 C 12.866 18.718,13.000 18.459,13.000 18.000 C 13.000 17.357,12.713 17.048,12.083 17.016 C 11.893 17.006,11.718 17.021,11.614 17.055 " stroke="none" fill="black" fill-rule="evenodd"></path></svg>