<svg xmlns="http://www.w3.org/2000/svg" width="24" height="24" viewBox="0 0 24 24" fill="none" stroke="currentColor" stroke-width="2" stroke-linecap="round" stroke-linejoin="round" class="icon icon-tabler icons-tabler-outline icon-tabler-thumb-up-off"><path d="M2.626 2.045 C 2.420 2.154,2.146 2.433,2.038 2.644 C 1.924 2.867,1.924 3.132,2.039 3.363 C 2.102 3.488,3.036 4.450,5.209 6.626 C 7.898 9.318,8.281 9.717,8.215 9.751 C 8.174 9.773,8.014 9.833,7.860 9.884 C 7.587 9.973,7.527 9.976,5.580 10.000 C 3.352 10.027,3.383 10.023,2.937 10.312 C 2.499 10.596,2.186 11.022,2.060 11.508 C 1.970 11.851,1.970 19.149,2.060 19.492 C 2.153 19.852,2.310 20.118,2.596 20.404 C 2.882 20.690,3.148 20.847,3.508 20.940 C 3.839 21.027,6.161 21.027,6.492 20.940 C 6.835 20.851,7.088 20.707,7.375 20.439 C 7.517 20.306,7.644 20.213,7.656 20.233 C 7.700 20.305,8.187 20.572,8.516 20.705 C 8.701 20.780,9.028 20.877,9.243 20.921 C 9.616 20.997,9.799 21.000,13.527 21.000 C 17.317 21.000,17.429 20.998,17.714 20.919 C 18.076 20.819,18.314 20.700,18.622 20.466 L 18.860 20.286 19.660 21.078 C 20.149 21.562,20.529 21.905,20.637 21.959 C 20.989 22.137,21.354 22.048,21.701 21.701 C 22.048 21.354,22.137 20.989,21.960 20.637 C 21.853 20.426,22.034 20.609,11.552 10.134 C 6.009 4.595,3.488 2.102,3.372 2.044 C 3.152 1.934,2.834 1.935,2.626 2.045 M12.499 3.040 C 11.373 3.244,10.472 4.039,10.118 5.140 C 10.039 5.386,10.026 5.528,10.010 6.300 C 9.998 6.873,10.007 7.238,10.036 7.344 C 10.144 7.748,10.428 7.961,10.896 7.991 C 11.381 8.022,11.699 7.882,11.879 7.558 C 11.973 7.390,11.980 7.336,12.001 6.560 C 12.027 5.632,12.048 5.548,12.321 5.283 C 12.490 5.120,12.777 5.000,13.000 5.000 C 13.237 5.000,13.514 5.120,13.697 5.303 C 14.008 5.615,14.000 5.526,14.000 8.557 C 14.000 10.218,14.016 11.274,14.041 11.365 C 14.102 11.586,14.245 11.770,14.442 11.880 L 14.620 11.980 16.440 12.000 C 18.481 12.022,18.418 12.013,18.717 12.321 C 18.821 12.429,18.901 12.562,18.940 12.692 C 18.999 12.891,18.996 12.912,18.733 14.242 C 18.474 15.544,18.467 15.598,18.516 15.819 C 18.614 16.257,19.000 16.498,19.607 16.499 C 19.883 16.500,19.930 16.488,20.084 16.380 C 20.362 16.184,20.412 16.038,20.723 14.500 C 20.982 13.220,21.004 13.071,20.984 12.757 C 20.907 11.557,20.046 10.488,18.861 10.124 C 18.555 10.030,18.482 10.025,17.272 10.009 L 16.004 9.993 15.991 7.707 C 15.978 5.438,15.977 5.418,15.885 5.140 C 15.559 4.157,14.800 3.404,13.861 3.129 C 13.500 3.023,12.832 2.980,12.499 3.040 M13.616 15.036 L 17.452 18.872 17.328 18.936 C 17.217 18.993,16.816 19.000,13.470 19.000 C 9.425 19.000,9.524 19.005,9.083 18.781 C 8.816 18.646,8.449 18.297,8.281 18.017 C 8.004 17.557,8.005 17.570,8.002 14.574 L 8.000 11.889 8.150 11.861 C 8.501 11.797,9.333 11.455,9.609 11.262 C 9.658 11.228,9.716 11.200,9.739 11.200 C 9.762 11.200,11.506 12.926,13.616 15.036 M6.000 15.500 L 6.000 19.000 5.000 19.000 L 4.000 19.000 4.000 15.500 L 4.000 12.000 5.000 12.000 L 6.000 12.000 6.000 15.500 " stroke="none" fill="black" fill-rule="evenodd"></path></svg>