<svg xmlns="http://www.w3.org/2000/svg" width="24" height="24" viewBox="0 0 24 24" fill="none" stroke="currentColor" stroke-width="2" stroke-linecap="round" stroke-linejoin="round" class="icon icon-tabler icons-tabler-outline icon-tabler-message-circle-question"><path d="M10.720 3.058 C 8.206 3.382,6.036 4.438,4.419 6.125 C 4.024 6.537,3.591 7.094,3.303 7.558 C 1.713 10.129,1.587 13.147,2.958 15.790 L 3.193 16.242 2.612 17.971 C 2.082 19.547,2.030 19.726,2.025 20.000 C 2.019 20.386,2.160 20.706,2.410 20.872 C 2.721 21.077,2.863 21.061,5.357 20.526 L 7.574 20.050 7.855 20.166 C 8.322 20.359,9.206 20.630,9.724 20.739 C 11.148 21.040,12.801 21.048,14.180 20.761 C 15.700 20.444,16.073 20.202,16.029 19.554 C 15.997 19.080,15.726 18.638,15.406 18.541 C 15.221 18.484,14.923 18.518,14.376 18.657 C 13.629 18.848,13.213 18.915,12.507 18.960 C 11.099 19.051,9.594 18.768,8.262 18.163 C 8.109 18.093,7.909 18.026,7.818 18.013 C 7.695 17.997,7.242 18.077,6.103 18.319 C 5.251 18.500,4.547 18.641,4.538 18.631 C 4.529 18.622,4.680 18.139,4.874 17.557 C 5.068 16.976,5.250 16.404,5.278 16.288 C 5.346 16.007,5.295 15.828,5.010 15.348 C 4.580 14.622,4.368 14.125,4.205 13.460 C 4.078 12.941,4.036 12.574,4.036 11.980 C 4.036 11.386,4.078 11.019,4.205 10.500 C 4.820 7.992,6.978 5.977,9.820 5.259 C 10.651 5.048,11.273 4.986,12.260 5.012 C 13.683 5.050,14.651 5.277,15.860 5.856 C 17.402 6.595,18.637 7.780,19.338 9.192 C 19.676 9.872,19.835 10.394,19.958 11.228 C 20.042 11.799,20.122 12.007,20.319 12.173 C 20.668 12.466,21.400 12.411,21.745 12.066 C 21.994 11.816,22.034 11.588,21.943 10.929 C 21.558 8.154,19.873 5.776,17.264 4.325 C 16.189 3.728,15.140 3.367,13.804 3.134 C 13.303 3.046,13.073 3.030,12.180 3.018 C 11.461 3.008,11.010 3.020,10.720 3.058 M18.440 14.058 C 18.297 14.089,18.102 14.142,18.008 14.176 C 17.203 14.466,16.442 15.217,16.440 15.722 C 16.439 16.052,16.769 16.475,17.174 16.663 C 17.548 16.838,17.807 16.775,18.193 16.419 C 18.501 16.134,18.650 16.048,18.893 16.015 C 19.121 15.984,19.458 16.082,19.640 16.234 C 19.988 16.522,20.086 17.066,19.863 17.470 C 19.668 17.823,19.453 17.951,18.970 18.001 C 18.245 18.076,17.960 18.406,18.012 19.110 C 18.069 19.867,18.595 20.142,19.591 19.936 C 20.218 19.807,20.691 19.543,21.146 19.069 C 21.488 18.713,21.648 18.463,21.797 18.055 C 22.409 16.374,21.489 14.571,19.780 14.102 C 19.448 14.010,18.765 13.988,18.440 14.058 M18.614 21.057 C 18.221 21.180,18.039 21.435,18.009 21.906 C 17.962 22.621,18.306 23.000,19.000 23.000 C 19.698 23.000,20.043 22.616,19.989 21.900 C 19.963 21.563,19.859 21.327,19.678 21.199 C 19.414 21.010,18.957 20.950,18.614 21.057 " stroke="none" fill="black" fill-rule="evenodd"></path></svg>