<svg xmlns="http://www.w3.org/2000/svg" width="24" height="24" viewBox="0 0 24 24" fill="none" stroke="currentColor" stroke-width="2" stroke-linecap="round" stroke-linejoin="round" class="icon icon-tabler icons-tabler-outline icon-tabler-brand-among-us"><path d="M9.880 2.059 C 7.726 2.376,6.381 3.166,5.565 4.592 C 5.332 4.999,5.247 5.223,5.076 5.878 C 5.011 6.130,4.953 6.339,4.949 6.343 C 4.944 6.346,4.841 6.381,4.720 6.420 C 3.996 6.654,3.227 7.192,2.782 7.777 C 2.091 8.686,1.843 9.772,2.098 10.777 C 2.296 11.556,2.701 12.178,3.328 12.665 L 3.436 12.749 3.322 13.544 C 3.076 15.253,2.981 16.675,3.012 18.220 C 3.035 19.407,3.100 20.115,3.257 20.887 C 3.404 21.612,3.600 21.869,4.076 21.959 C 4.218 21.986,7.160 22.000,12.678 22.000 C 22.036 22.000,21.343 22.022,21.613 21.722 C 21.918 21.385,21.981 20.800,21.977 18.340 C 21.974 16.497,21.945 15.838,21.739 12.920 C 21.609 11.077,21.584 10.870,21.459 10.614 C 21.335 10.360,20.982 10.025,20.658 9.854 C 20.386 9.709,19.646 9.504,18.614 9.289 L 17.904 9.140 17.756 8.240 C 17.517 6.788,17.347 6.118,16.992 5.220 C 16.671 4.406,16.276 3.762,15.804 3.282 C 15.140 2.606,14.353 2.241,13.300 2.121 C 12.293 2.005,10.467 1.972,9.880 2.059 M12.153 4.042 C 12.586 4.065,13.089 4.108,13.271 4.138 C 14.068 4.271,14.539 4.677,14.984 5.617 C 15.378 6.450,15.607 7.361,15.863 9.119 L 16.000 10.059 16.000 15.029 L 16.000 20.000 10.579 20.000 C 6.278 20.000,5.154 19.990,5.139 19.950 C 5.088 19.808,5.034 19.078,5.013 18.240 C 4.990 17.342,5.029 16.335,5.123 15.360 C 5.161 14.959,5.323 13.626,5.335 13.614 C 5.338 13.611,5.475 13.643,5.640 13.686 C 7.117 14.067,9.082 14.098,10.780 13.766 C 11.911 13.545,12.713 13.033,13.316 12.147 C 13.621 11.700,13.787 11.186,13.924 10.261 C 14.157 8.699,13.792 7.547,12.874 6.936 C 12.304 6.557,11.190 6.230,9.940 6.075 C 9.491 6.019,7.858 6.006,7.404 6.054 L 7.109 6.086 7.134 5.961 C 7.177 5.744,7.484 5.270,7.757 4.998 C 8.227 4.531,9.028 4.212,10.200 4.027 C 10.407 3.994,11.395 4.002,12.153 4.042 M9.424 8.041 C 10.013 8.088,10.580 8.189,11.098 8.340 C 11.584 8.481,11.802 8.596,11.899 8.762 C 12.072 9.056,11.959 10.406,11.721 10.898 C 11.341 11.683,10.421 11.978,8.360 11.978 C 7.620 11.978,7.272 11.961,6.940 11.908 C 5.814 11.728,4.892 11.389,4.462 10.995 C 3.657 10.256,3.962 8.999,5.081 8.445 C 5.486 8.244,5.753 8.195,6.920 8.104 C 8.364 7.991,8.693 7.983,9.424 8.041 M18.560 11.321 C 19.048 11.426,19.572 11.564,19.607 11.595 C 19.636 11.622,19.805 13.940,19.899 15.600 C 19.979 17.011,20.017 18.793,19.982 19.450 L 19.952 20.000 18.976 20.000 L 18.000 20.000 18.000 15.599 L 18.000 11.198 18.090 11.219 C 18.140 11.230,18.351 11.276,18.560 11.321 " stroke="none" fill="black" fill-rule="evenodd"></path></svg>