<svg xmlns="http://www.w3.org/2000/svg" width="24" height="24" viewBox="0 0 24 24" fill="none" stroke="currentColor" stroke-width="2" stroke-linecap="round" stroke-linejoin="round" class="icon icon-tabler icons-tabler-outline icon-tabler-container"><path d="M3.614 3.057 C 3.221 3.180,3.039 3.435,3.009 3.906 C 2.962 4.621,3.306 5.000,4.000 5.000 C 4.698 5.000,5.043 4.616,4.989 3.900 C 4.963 3.563,4.859 3.327,4.678 3.199 C 4.414 3.010,3.957 2.950,3.614 3.057 M8.477 3.073 C 7.806 3.249,7.238 3.823,7.060 4.508 C 7.008 4.707,7.000 5.691,7.000 12.000 C 7.000 19.922,6.987 19.460,7.225 19.930 C 7.361 20.199,7.801 20.639,8.070 20.775 C 8.522 21.004,8.454 21.000,11.993 21.000 C 15.539 21.000,15.479 21.003,15.937 20.771 C 16.197 20.639,16.639 20.197,16.771 19.937 C 17.014 19.459,17.000 19.929,16.999 12.014 C 16.999 4.156,17.009 4.532,16.781 4.083 C 16.646 3.816,16.297 3.449,16.017 3.281 C 15.548 2.999,15.636 3.005,12.000 3.005 C 9.047 3.005,8.715 3.011,8.477 3.073 M19.614 3.057 C 19.221 3.180,19.039 3.435,19.009 3.906 C 18.962 4.621,19.306 5.000,20.000 5.000 C 20.698 5.000,21.043 4.616,20.989 3.900 C 20.963 3.563,20.859 3.327,20.678 3.199 C 20.414 3.010,19.957 2.950,19.614 3.057 M15.000 12.000 L 15.000 19.000 12.000 19.000 L 9.000 19.000 9.000 12.000 L 9.000 5.000 12.000 5.000 L 15.000 5.000 15.000 12.000 M3.614 7.057 C 3.221 7.180,3.039 7.435,3.009 7.906 C 2.962 8.621,3.306 9.000,4.000 9.000 C 4.698 9.000,5.043 8.616,4.989 7.900 C 4.963 7.563,4.859 7.327,4.678 7.199 C 4.414 7.010,3.957 6.950,3.614 7.057 M19.614 7.057 C 19.221 7.180,19.039 7.435,19.009 7.906 C 18.962 8.621,19.306 9.000,20.000 9.000 C 20.698 9.000,21.043 8.616,20.989 7.900 C 20.963 7.563,20.859 7.327,20.678 7.199 C 20.414 7.010,19.957 6.950,19.614 7.057 M3.614 11.057 C 3.221 11.180,3.039 11.435,3.009 11.906 C 2.962 12.621,3.306 13.000,4.000 13.000 C 4.698 13.000,5.043 12.616,4.989 11.900 C 4.963 11.563,4.859 11.327,4.678 11.199 C 4.414 11.010,3.957 10.950,3.614 11.057 M19.614 11.057 C 19.221 11.180,19.039 11.435,19.009 11.906 C 18.962 12.621,19.306 13.000,20.000 13.000 C 20.698 13.000,21.043 12.616,20.989 11.900 C 20.963 11.563,20.859 11.327,20.678 11.199 C 20.414 11.010,19.957 10.950,19.614 11.057 M3.614 15.057 C 3.221 15.180,3.039 15.435,3.009 15.906 C 2.962 16.621,3.306 17.000,4.000 17.000 C 4.698 17.000,5.043 16.616,4.989 15.900 C 4.963 15.563,4.859 15.327,4.678 15.199 C 4.414 15.010,3.957 14.950,3.614 15.057 M19.614 15.057 C 19.221 15.180,19.039 15.435,19.009 15.906 C 18.962 16.621,19.306 17.000,20.000 17.000 C 20.698 17.000,21.043 16.616,20.989 15.900 C 20.963 15.563,20.859 15.327,20.678 15.199 C 20.414 15.010,19.957 14.950,19.614 15.057 M3.614 19.057 C 3.221 19.180,3.039 19.435,3.009 19.906 C 2.962 20.621,3.306 21.000,4.000 21.000 C 4.698 21.000,5.043 20.616,4.989 19.900 C 4.963 19.563,4.859 19.327,4.678 19.199 C 4.414 19.010,3.957 18.950,3.614 19.057 M19.614 19.057 C 19.221 19.180,19.039 19.435,19.009 19.906 C 18.962 20.621,19.306 21.000,20.000 21.000 C 20.698 21.000,21.043 20.616,20.989 19.900 C 20.963 19.563,20.859 19.327,20.678 19.199 C 20.414 19.010,19.957 18.950,19.614 19.057 " stroke="none" fill="black" fill-rule="evenodd"></path></svg>