<svg xmlns="http://www.w3.org/2000/svg" width="24" height="24" viewBox="0 0 24 24" fill="none" stroke="currentColor" stroke-width="2" stroke-linecap="round" stroke-linejoin="round" class="icon icon-tabler icons-tabler-outline icon-tabler-brand-kickstarter"><path d="M7.384 2.046 C 5.694 2.262,4.544 3.363,4.107 5.180 L 4.020 5.540 4.020 11.980 L 4.020 18.420 4.128 18.870 C 4.519 20.501,5.473 21.508,6.988 21.889 C 7.279 21.962,7.451 21.977,7.980 21.977 C 8.678 21.977,8.912 21.937,9.470 21.721 C 10.841 21.193,11.825 19.687,11.991 17.865 L 12.020 17.550 13.200 19.185 C 14.365 20.799,14.649 21.144,15.014 21.396 C 15.288 21.585,15.736 21.787,16.100 21.886 C 16.366 21.959,16.531 21.974,17.080 21.976 C 17.781 21.978,17.960 21.948,18.525 21.736 C 19.488 21.375,20.387 20.438,20.759 19.410 C 21.131 18.383,21.055 17.114,20.574 16.284 C 20.515 16.183,19.741 15.070,18.853 13.811 C 17.966 12.552,17.240 11.510,17.240 11.497 C 17.240 11.483,17.775 10.705,18.430 9.768 C 19.641 8.034,19.833 7.746,19.946 7.486 C 20.212 6.876,20.325 6.116,20.245 5.473 C 20.131 4.557,19.791 3.858,19.134 3.190 C 18.266 2.307,17.159 1.905,15.957 2.035 C 14.864 2.154,14.024 2.640,13.324 3.560 C 13.198 3.725,12.863 4.226,12.578 4.673 L 12.060 5.485 12.014 5.113 C 11.930 4.432,11.694 3.935,11.167 3.326 C 10.343 2.377,8.821 1.861,7.384 2.046 M8.826 4.140 C 9.345 4.314,9.721 4.610,9.922 5.005 C 10.010 5.177,10.011 5.187,10.003 7.186 C 9.998 8.495,10.010 9.248,10.038 9.351 C 10.144 9.748,10.431 9.961,10.896 9.991 C 11.423 10.024,11.706 9.883,11.911 9.484 C 12.186 8.950,14.858 4.825,15.094 4.572 C 15.799 3.816,16.941 3.819,17.701 4.579 C 18.142 5.021,18.327 5.572,18.241 6.189 C 18.218 6.354,18.155 6.577,18.102 6.684 C 18.048 6.791,17.361 7.801,16.574 8.927 C 15.788 10.054,15.110 11.049,15.067 11.138 C 14.965 11.348,14.965 11.652,15.067 11.863 C 15.110 11.952,15.961 13.182,16.957 14.594 C 17.954 16.007,18.803 17.233,18.844 17.319 C 19.050 17.745,19.036 18.407,18.812 18.888 C 18.668 19.194,18.326 19.574,18.034 19.749 C 17.427 20.113,16.496 20.066,16.047 19.648 C 15.959 19.567,14.974 18.231,13.859 16.680 C 12.743 15.129,11.756 13.782,11.665 13.687 C 11.465 13.477,11.294 13.400,11.031 13.400 C 10.785 13.400,10.410 13.587,10.238 13.795 C 10.006 14.077,10.000 14.130,10.000 16.020 C 10.000 17.789,9.986 18.002,9.833 18.480 C 9.494 19.542,8.836 20.046,7.860 19.989 C 6.770 19.926,6.176 19.313,6.038 18.110 C 6.009 17.859,6.000 15.807,6.009 11.740 C 6.022 6.176,6.028 5.721,6.093 5.482 C 6.254 4.887,6.612 4.393,7.019 4.204 C 7.518 3.972,8.245 3.946,8.826 4.140 " stroke="none" fill="black" fill-rule="evenodd"></path></svg>