<svg xmlns="http://www.w3.org/2000/svg" width="24" height="24" viewBox="0 0 24 24" fill="none" stroke="currentColor" stroke-width="2" stroke-linecap="round" stroke-linejoin="round" class="icon icon-tabler icons-tabler-outline icon-tabler-server-cog"><path d="M5.358 3.061 C 3.731 3.315,2.417 4.584,2.083 6.227 C 2.009 6.590,2.000 6.776,2.000 8.000 C 2.000 9.223,2.009 9.410,2.082 9.772 C 2.243 10.562,2.566 11.174,3.155 11.810 L 3.331 12.000 3.155 12.190 C 2.566 12.826,2.243 13.438,2.082 14.228 C 2.009 14.590,2.000 14.777,2.000 16.000 C 2.000 17.224,2.009 17.410,2.083 17.773 C 2.311 18.892,2.985 19.851,3.956 20.436 C 4.285 20.635,4.810 20.832,5.243 20.921 C 5.613 20.996,5.797 21.000,8.926 21.000 C 11.009 21.000,12.273 20.985,12.365 20.959 C 12.586 20.898,12.770 20.755,12.880 20.558 C 12.967 20.402,12.980 20.332,12.979 20.000 C 12.978 19.567,12.898 19.355,12.678 19.199 C 12.398 18.999,12.411 19.000,8.962 19.000 C 6.232 19.000,5.702 18.991,5.508 18.940 C 4.823 18.762,4.249 18.194,4.073 17.523 C 3.976 17.151,3.968 14.936,4.062 14.522 C 4.215 13.850,4.801 13.250,5.477 13.073 C 5.720 13.010,6.219 13.004,12.054 13.002 C 18.191 13.000,18.378 12.998,18.757 12.921 C 20.384 12.589,21.589 11.384,21.921 9.757 C 21.991 9.413,22.000 9.207,22.000 8.000 C 22.000 6.459,21.964 6.157,21.705 5.516 C 21.172 4.197,20.001 3.269,18.605 3.058 C 18.059 2.976,5.887 2.979,5.358 3.061 M18.523 5.073 C 19.212 5.253,19.795 5.860,19.941 6.549 C 20.023 6.933,20.023 9.067,19.941 9.451 C 19.863 9.821,19.710 10.091,19.400 10.404 C 19.119 10.690,18.854 10.846,18.492 10.940 C 18.147 11.030,5.853 11.030,5.508 10.940 C 4.823 10.762,4.249 10.194,4.073 9.523 C 3.976 9.151,3.968 6.936,4.062 6.522 C 4.215 5.850,4.801 5.250,5.477 5.073 C 5.720 5.010,6.211 5.005,12.000 5.005 C 17.789 5.005,18.280 5.010,18.523 5.073 M6.614 7.057 C 6.221 7.180,6.039 7.435,6.009 7.906 C 5.962 8.621,6.306 9.000,7.000 9.000 C 7.698 9.000,8.043 8.616,7.989 7.900 C 7.963 7.563,7.859 7.327,7.678 7.199 C 7.414 7.010,6.957 6.950,6.614 7.057 M17.545 13.579 C 17.320 13.659,17.128 13.863,17.059 14.096 C 17.023 14.217,17.000 14.462,17.000 14.721 L 17.000 15.148 16.708 15.292 C 16.548 15.371,16.333 15.500,16.232 15.577 L 16.047 15.718 15.654 15.495 C 15.190 15.232,14.942 15.167,14.680 15.239 C 14.342 15.331,13.969 15.847,13.930 16.278 C 13.897 16.640,14.080 16.876,14.667 17.228 L 15.014 17.437 15.017 18.002 L 15.020 18.567 14.660 18.780 C 14.272 19.009,14.043 19.223,13.961 19.431 C 13.799 19.844,14.227 20.638,14.680 20.761 C 14.944 20.833,15.212 20.764,15.667 20.505 L 16.052 20.286 16.257 20.441 C 16.369 20.526,16.582 20.652,16.731 20.721 L 17.000 20.848 17.000 21.277 C 17.000 21.963,17.137 22.254,17.537 22.422 C 17.750 22.510,18.249 22.511,18.460 22.423 C 18.864 22.254,19.000 21.965,19.000 21.277 L 19.000 20.848 19.269 20.721 C 19.418 20.652,19.632 20.525,19.746 20.439 L 19.954 20.282 20.331 20.502 C 20.942 20.858,21.304 20.879,21.636 20.579 C 21.842 20.393,22.041 20.009,22.066 19.749 C 22.105 19.358,21.939 19.136,21.340 18.778 L 20.980 18.562 20.983 17.999 L 20.986 17.437 21.333 17.228 C 21.743 16.982,21.940 16.805,22.025 16.605 C 22.213 16.165,21.799 15.371,21.312 15.237 C 21.059 15.167,20.806 15.235,20.346 15.495 L 19.953 15.718 19.768 15.577 C 19.667 15.500,19.452 15.371,19.292 15.292 L 19.000 15.148 19.000 14.721 C 19.000 14.173,18.933 13.937,18.723 13.747 C 18.636 13.669,18.497 13.586,18.413 13.563 C 18.200 13.504,17.731 13.513,17.545 13.579 M6.614 15.057 C 6.221 15.180,6.039 15.435,6.009 15.906 C 5.962 16.621,6.306 17.000,7.000 17.000 C 7.698 17.000,8.043 16.616,7.989 15.900 C 7.963 15.563,7.859 15.327,7.678 15.199 C 7.414 15.010,6.957 14.950,6.614 15.057 M18.260 17.044 C 18.612 17.138,18.881 17.426,18.968 17.800 C 19.059 18.196,18.854 18.655,18.489 18.869 C 18.328 18.964,18.256 18.980,18.000 18.980 C 17.744 18.980,17.672 18.964,17.511 18.869 C 17.181 18.675,16.971 18.272,17.013 17.915 C 17.088 17.284,17.663 16.883,18.260 17.044 " stroke="none" fill="black" fill-rule="evenodd"></path></svg>