<svg xmlns="http://www.w3.org/2000/svg" width="24" height="24" viewBox="0 0 24 24" fill="none" stroke="currentColor" stroke-width="2" stroke-linecap="round" stroke-linejoin="round" class="icon icon-tabler icons-tabler-outline icon-tabler-swimming"><path d="M15.477 7.073 C 14.806 7.249,14.238 7.823,14.060 8.508 C 13.941 8.962,14.003 9.492,14.225 9.930 C 14.361 10.199,14.801 10.639,15.070 10.775 C 15.659 11.073,16.341 11.073,16.930 10.775 C 17.196 10.640,17.638 10.200,17.771 9.937 C 17.994 9.498,18.052 9.007,17.940 8.529 C 17.858 8.182,17.720 7.927,17.465 7.653 C 17.074 7.232,16.560 7.005,16.000 7.005 C 15.857 7.005,15.622 7.036,15.477 7.073 M7.613 9.076 C 6.429 9.667,5.386 10.206,5.295 10.272 C 5.061 10.444,4.943 10.704,4.972 10.984 C 5.017 11.421,5.303 11.861,5.621 11.983 C 5.979 12.119,6.045 12.095,8.032 11.103 C 9.627 10.307,9.857 10.203,9.915 10.252 C 10.879 11.071,11.998 12.029,12.056 12.083 C 12.131 12.153,12.121 12.171,11.624 12.834 C 11.345 13.208,11.081 13.586,11.038 13.675 C 10.937 13.885,10.936 14.197,11.037 14.394 C 11.211 14.735,11.696 15.039,12.065 15.040 C 12.429 15.040,12.552 14.923,13.492 13.680 C 14.319 12.585,14.486 12.333,14.537 12.096 C 14.576 11.916,14.492 11.633,14.348 11.459 C 14.157 11.226,10.603 8.192,10.403 8.090 C 10.280 8.028,10.156 8.000,9.996 8.000 C 9.774 8.000,9.682 8.042,7.613 9.076 M7.360 14.060 C 6.823 14.152,6.250 14.413,5.797 14.773 C 5.675 14.870,5.440 15.109,5.276 15.304 C 4.923 15.722,4.748 15.851,4.411 15.943 C 4.099 16.029,3.817 16.004,3.474 15.860 C 3.325 15.798,3.112 15.746,2.960 15.735 C 2.740 15.719,2.676 15.730,2.542 15.808 C 2.126 16.051,1.850 16.741,2.014 17.131 C 2.265 17.727,3.612 18.143,4.646 17.943 C 5.480 17.783,6.153 17.379,6.721 16.698 C 7.144 16.192,7.496 16.000,8.000 16.000 C 8.504 16.000,8.856 16.192,9.278 16.697 C 9.995 17.556,10.924 18.000,12.004 18.000 C 13.073 18.000,14.008 17.552,14.721 16.698 C 15.144 16.192,15.496 16.000,16.000 16.000 C 16.504 16.000,16.856 16.192,17.278 16.697 C 17.857 17.390,18.563 17.807,19.417 17.958 C 20.416 18.135,21.744 17.708,21.986 17.131 C 22.150 16.741,21.874 16.051,21.458 15.808 C 21.324 15.730,21.260 15.719,21.040 15.735 C 20.888 15.746,20.675 15.798,20.526 15.860 C 20.183 16.004,19.901 16.029,19.589 15.943 C 19.252 15.851,19.077 15.722,18.724 15.304 C 18.560 15.109,18.325 14.870,18.203 14.773 C 16.912 13.748,15.088 13.748,13.797 14.773 C 13.675 14.870,13.440 15.109,13.276 15.304 C 13.111 15.499,12.905 15.707,12.818 15.767 C 12.373 16.070,11.627 16.070,11.182 15.767 C 11.095 15.707,10.889 15.499,10.724 15.304 C 10.560 15.109,10.325 14.870,10.203 14.773 C 9.405 14.140,8.385 13.884,7.360 14.060 " stroke="none" fill="black" fill-rule="evenodd"></path></svg>