<svg xmlns="http://www.w3.org/2000/svg" width="24" height="24" viewBox="0 0 24 24" fill="none" stroke="currentColor" stroke-width="2" stroke-linecap="round" stroke-linejoin="round" class="icon icon-tabler icons-tabler-outline icon-tabler-decimal"><path d="M9.499 7.040 C 8.363 7.246,7.461 8.048,7.114 9.160 L 7.020 9.460 7.020 12.000 L 7.020 14.540 7.114 14.840 C 7.422 15.827,8.174 16.579,9.160 16.886 C 9.594 17.021,10.406 17.021,10.840 16.886 C 11.806 16.585,12.542 15.862,12.875 14.887 L 12.980 14.580 12.980 12.020 L 12.980 9.460 12.886 9.160 C 12.580 8.178,11.810 7.407,10.861 7.129 C 10.500 7.023,9.832 6.980,9.499 7.040 M16.499 7.040 C 15.363 7.246,14.461 8.048,14.114 9.160 L 14.020 9.460 14.020 12.000 L 14.020 14.540 14.114 14.840 C 14.422 15.827,15.174 16.579,16.160 16.886 C 16.594 17.021,17.406 17.021,17.840 16.886 C 18.826 16.579,19.578 15.827,19.886 14.840 L 19.980 14.540 19.980 12.000 L 19.980 9.460 19.886 9.160 C 19.580 8.178,18.810 7.407,17.861 7.129 C 17.500 7.023,16.832 6.980,16.499 7.040 M10.310 9.061 C 10.589 9.144,10.856 9.411,10.939 9.690 C 11.025 9.978,11.030 14.007,10.945 14.290 C 10.872 14.533,10.707 14.740,10.484 14.872 C 10.328 14.963,10.254 14.980,10.000 14.980 C 9.746 14.980,9.672 14.963,9.516 14.872 C 9.415 14.813,9.282 14.698,9.221 14.618 C 9.004 14.333,9.000 14.287,9.000 12.001 C 9.000 9.588,8.998 9.609,9.304 9.303 C 9.583 9.024,9.916 8.944,10.310 9.061 M17.310 9.061 C 17.589 9.144,17.856 9.411,17.939 9.690 C 18.025 9.978,18.030 14.007,17.945 14.290 C 17.872 14.533,17.707 14.740,17.484 14.872 C 17.328 14.963,17.254 14.980,17.000 14.980 C 16.746 14.980,16.672 14.963,16.516 14.872 C 16.415 14.813,16.284 14.700,16.225 14.623 C 16.000 14.327,16.000 14.332,16.000 12.022 C 16.000 9.586,15.997 9.609,16.304 9.303 C 16.583 9.024,16.916 8.944,17.310 9.061 M4.614 15.055 C 4.220 15.184,4.039 15.437,4.009 15.900 C 3.978 16.381,4.119 16.699,4.442 16.880 C 4.597 16.967,4.669 16.980,5.000 16.980 C 5.312 16.980,5.408 16.964,5.540 16.894 C 5.866 16.718,6.000 16.459,6.000 16.000 C 6.000 15.357,5.713 15.048,5.083 15.016 C 4.893 15.006,4.718 15.021,4.614 15.055 " stroke="none" fill="black" fill-rule="evenodd"></path></svg>