<svg xmlns="http://www.w3.org/2000/svg" width="24" height="24" viewBox="0 0 24 24" fill="none" stroke="currentColor" stroke-width="2" stroke-linecap="round" stroke-linejoin="round" class="icon icon-tabler icons-tabler-outline icon-tabler-columns"><path d="M3.614 5.057 C 3.377 5.131,3.212 5.261,3.109 5.453 C 3.035 5.592,3.020 5.684,3.020 6.000 C 3.020 6.331,3.033 6.403,3.120 6.558 C 3.230 6.755,3.414 6.898,3.635 6.959 C 3.726 6.985,4.881 7.000,6.743 7.000 C 10.020 7.000,9.986 7.002,10.229 6.751 C 10.418 6.556,10.486 6.355,10.486 5.997 C 10.486 5.491,10.303 5.196,9.909 5.064 C 9.740 5.008,9.367 5.000,6.749 5.003 C 4.430 5.005,3.744 5.017,3.614 5.057 M14.180 5.039 C 13.715 5.159,13.514 5.447,13.512 5.997 C 13.510 6.348,13.582 6.556,13.771 6.751 C 14.014 7.002,13.980 7.000,17.257 7.000 C 19.119 7.000,20.274 6.985,20.365 6.959 C 20.586 6.898,20.770 6.755,20.880 6.558 C 20.967 6.402,20.980 6.332,20.979 6.000 C 20.978 5.567,20.898 5.355,20.678 5.199 C 20.399 5.000,20.392 5.000,17.244 5.004 C 15.625 5.006,14.246 5.022,14.180 5.039 M3.614 9.057 C 3.377 9.131,3.212 9.261,3.109 9.453 C 3.035 9.592,3.020 9.684,3.020 10.000 C 3.020 10.331,3.033 10.403,3.120 10.558 C 3.230 10.755,3.414 10.898,3.635 10.959 C 3.726 10.985,4.881 11.000,6.743 11.000 C 10.020 11.000,9.986 11.002,10.229 10.751 C 10.418 10.556,10.486 10.355,10.486 9.997 C 10.486 9.491,10.303 9.196,9.909 9.064 C 9.740 9.008,9.367 9.000,6.749 9.003 C 4.430 9.005,3.744 9.017,3.614 9.057 M14.180 9.039 C 13.715 9.159,13.514 9.447,13.512 9.997 C 13.510 10.348,13.582 10.556,13.771 10.751 C 14.014 11.002,13.980 11.000,17.257 11.000 C 19.119 11.000,20.274 10.985,20.365 10.959 C 20.586 10.898,20.770 10.755,20.880 10.558 C 20.967 10.402,20.980 10.332,20.979 10.000 C 20.978 9.567,20.898 9.355,20.678 9.199 C 20.399 9.000,20.392 9.000,17.244 9.004 C 15.625 9.006,14.246 9.022,14.180 9.039 M3.614 13.057 C 3.377 13.131,3.212 13.261,3.109 13.453 C 3.035 13.592,3.020 13.684,3.020 14.000 C 3.020 14.331,3.033 14.403,3.120 14.558 C 3.230 14.755,3.414 14.898,3.635 14.959 C 3.726 14.985,4.881 15.000,6.743 15.000 C 10.020 15.000,9.986 15.002,10.229 14.751 C 10.418 14.556,10.486 14.355,10.486 13.997 C 10.486 13.491,10.303 13.196,9.909 13.064 C 9.740 13.008,9.367 13.000,6.749 13.003 C 4.430 13.005,3.744 13.017,3.614 13.057 M14.180 13.039 C 13.715 13.159,13.514 13.447,13.512 13.997 C 13.510 14.348,13.582 14.556,13.771 14.751 C 14.014 15.002,13.980 15.000,17.257 15.000 C 19.119 15.000,20.274 14.985,20.365 14.959 C 20.586 14.898,20.770 14.755,20.880 14.558 C 20.967 14.402,20.980 14.332,20.979 14.000 C 20.978 13.567,20.898 13.355,20.678 13.199 C 20.399 13.000,20.392 13.000,17.244 13.004 C 15.625 13.006,14.246 13.022,14.180 13.039 M3.614 17.057 C 3.377 17.131,3.212 17.261,3.109 17.453 C 3.035 17.592,3.020 17.684,3.020 18.000 C 3.020 18.331,3.033 18.403,3.120 18.558 C 3.230 18.755,3.414 18.898,3.635 18.959 C 3.726 18.985,4.881 19.000,6.743 19.000 C 10.020 19.000,9.986 19.002,10.229 18.751 C 10.418 18.556,10.486 18.355,10.486 17.997 C 10.486 17.491,10.303 17.196,9.909 17.064 C 9.740 17.008,9.367 17.000,6.749 17.003 C 4.430 17.005,3.744 17.017,3.614 17.057 M14.180 17.039 C 13.715 17.159,13.514 17.447,13.512 17.997 C 13.510 18.348,13.582 18.556,13.771 18.751 C 14.014 19.002,13.980 19.000,17.257 19.000 C 19.119 19.000,20.274 18.985,20.365 18.959 C 20.586 18.898,20.770 18.755,20.880 18.558 C 20.967 18.402,20.980 18.332,20.979 18.000 C 20.978 17.567,20.898 17.355,20.678 17.199 C 20.399 17.000,20.392 17.000,17.244 17.004 C 15.625 17.006,14.246 17.022,14.180 17.039 " stroke="none" fill="black" fill-rule="evenodd"></path></svg>