<svg xmlns="http://www.w3.org/2000/svg" width="24" height="24" viewBox="0 0 24 24" fill="none" stroke="currentColor" stroke-width="2" stroke-linecap="round" stroke-linejoin="round" class="icon icon-tabler icons-tabler-outline icon-tabler-truck-off"><path d="M2.626 2.045 C 2.257 2.239,1.951 2.673,1.951 3.000 C 1.951 3.270,2.077 3.480,2.505 3.921 L 2.882 4.310 2.607 4.585 C 2.455 4.737,2.284 4.955,2.225 5.070 C 1.989 5.536,2.000 5.221,2.000 11.478 C 2.000 15.201,2.015 17.271,2.041 17.365 C 2.102 17.586,2.245 17.770,2.442 17.880 C 2.610 17.974,2.662 17.981,3.387 18.000 L 4.155 18.020 4.316 18.340 C 4.686 19.071,5.360 19.637,6.160 19.886 C 6.594 20.021,7.406 20.021,7.840 19.886 C 8.645 19.635,9.318 19.069,9.688 18.330 L 9.853 18.000 12.002 18.000 L 14.151 18.000 14.289 18.290 C 14.550 18.837,15.106 19.410,15.637 19.678 C 16.107 19.916,16.406 19.980,17.020 19.978 C 17.539 19.975,17.606 19.966,17.940 19.851 L 18.300 19.727 19.380 20.798 C 20.076 21.489,20.523 21.902,20.637 21.960 C 20.989 22.137,21.354 22.048,21.701 21.701 C 22.048 21.355,22.137 20.990,21.961 20.637 C 21.898 20.512,20.698 19.280,17.853 16.420 C 15.643 14.198,13.795 12.341,13.747 12.293 C 12.657 11.204,5.831 4.377,5.760 4.304 C 5.006 3.534,3.504 2.112,3.372 2.045 C 3.152 1.934,2.836 1.934,2.626 2.045 M8.574 4.057 C 8.337 4.131,8.172 4.261,8.069 4.453 C 7.995 4.592,7.980 4.684,7.980 5.000 C 7.980 5.331,7.993 5.403,8.080 5.558 C 8.190 5.755,8.374 5.898,8.595 5.959 C 8.681 5.983,9.401 6.000,10.370 6.000 L 12.000 6.000 12.000 7.610 C 12.000 8.565,12.017 9.279,12.041 9.365 C 12.148 9.750,12.437 9.962,12.896 9.991 C 13.381 10.022,13.699 9.882,13.880 9.558 C 13.979 9.381,13.980 9.374,13.993 8.190 L 14.005 7.000 15.717 7.000 L 17.429 7.000 18.314 8.477 C 18.801 9.289,19.200 9.964,19.200 9.977 C 19.200 9.990,18.213 10.000,17.006 10.000 C 14.667 10.000,14.593 10.005,14.322 10.199 C 14.100 10.357,14.020 10.568,14.020 11.000 C 14.020 11.331,14.033 11.403,14.120 11.558 C 14.230 11.755,14.414 11.898,14.635 11.959 C 14.725 11.984,15.765 12.000,17.390 12.000 L 20.000 12.000 20.000 14.610 C 20.000 16.235,20.016 17.275,20.041 17.365 C 20.148 17.750,20.437 17.962,20.896 17.991 C 21.381 18.022,21.699 17.882,21.880 17.558 L 21.980 17.380 22.000 14.140 C 22.015 11.752,22.008 10.851,21.974 10.715 C 21.918 10.495,21.830 10.314,21.741 10.241 C 21.705 10.211,21.034 9.115,20.248 7.805 C 19.463 6.494,18.753 5.355,18.672 5.273 C 18.405 5.004,18.366 5.000,16.058 5.000 L 14.010 5.000 13.983 4.794 C 13.930 4.393,13.743 4.167,13.371 4.055 C 13.111 3.977,8.824 3.979,8.574 4.057 M8.290 9.710 L 12.000 13.420 12.000 14.710 L 12.000 16.000 10.927 16.000 L 9.853 16.000 9.688 15.670 C 9.321 14.938,8.642 14.363,7.861 14.125 C 7.588 14.042,7.458 14.027,7.000 14.027 C 6.542 14.027,6.412 14.042,6.139 14.125 C 5.358 14.363,4.679 14.938,4.312 15.670 C 4.195 15.904,4.125 16.000,4.073 16.000 C 4.003 16.000,4.000 15.825,4.000 11.000 L 4.000 6.000 4.290 6.000 L 4.580 6.000 8.290 9.710 M14.221 15.852 C 14.179 15.952,14.133 16.000,14.079 16.000 C 14.008 16.000,14.000 15.973,14.000 15.711 L 14.000 15.421 14.141 15.563 L 14.283 15.704 14.221 15.852 M7.334 16.064 C 7.698 16.188,8.000 16.613,8.000 17.001 C 8.000 17.331,7.784 17.696,7.484 17.872 C 7.328 17.963,7.254 17.980,7.000 17.980 C 6.746 17.980,6.672 17.963,6.516 17.872 C 5.937 17.531,5.833 16.774,6.301 16.306 C 6.587 16.019,6.952 15.934,7.334 16.064 " stroke="none" fill="black" fill-rule="evenodd"></path></svg>