<svg xmlns="http://www.w3.org/2000/svg" width="24" height="24" viewBox="0 0 24 24" fill="none" stroke="currentColor" stroke-width="2" stroke-linecap="round" stroke-linejoin="round" class="icon icon-tabler icons-tabler-outline icon-tabler-arrows-right-down"><path d="M16.626 2.045 C 16.257 2.239,15.951 2.673,15.951 3.000 C 15.951 3.333,16.056 3.467,17.353 4.770 L 18.577 6.000 14.179 6.000 C 9.464 6.000,9.335 6.005,8.755 6.204 C 7.368 6.679,6.372 7.805,6.083 9.227 C 6.002 9.623,6.000 9.743,6.000 14.105 L 6.000 18.577 4.770 17.353 C 4.001 16.588,3.477 16.098,3.372 16.045 C 3.020 15.868,2.639 15.958,2.299 16.299 C 1.952 16.646,1.863 17.011,2.040 17.363 C 2.101 17.484,2.766 18.182,4.134 19.561 C 5.237 20.673,6.174 21.634,6.216 21.696 C 6.318 21.850,6.761 22.049,7.000 22.049 C 7.239 22.049,7.682 21.850,7.784 21.696 C 7.826 21.634,8.763 20.673,9.866 19.561 C 11.234 18.182,11.899 17.484,11.960 17.363 C 12.137 17.011,12.048 16.646,11.701 16.299 C 11.361 15.958,10.980 15.868,10.628 16.045 C 10.523 16.098,9.999 16.588,9.230 17.353 L 8.000 18.577 8.002 14.159 C 8.004 10.115,8.010 9.718,8.073 9.477 C 8.201 8.988,8.543 8.546,9.014 8.265 C 9.469 7.992,9.309 8.000,14.186 8.000 L 18.577 8.000 17.353 9.230 C 16.548 10.039,16.099 10.521,16.040 10.637 C 15.863 10.989,15.952 11.354,16.299 11.701 C 16.646 12.048,17.011 12.137,17.363 11.960 C 17.484 11.899,18.182 11.234,19.561 9.866 C 20.673 8.763,21.634 7.826,21.696 7.784 C 21.850 7.682,22.049 7.239,22.049 7.000 C 22.049 6.745,21.851 6.321,21.676 6.201 C 21.601 6.150,20.640 5.213,19.540 4.118 C 18.232 2.817,17.482 2.099,17.372 2.044 C 17.152 1.934,16.835 1.935,16.626 2.045 " stroke="none" fill="black" fill-rule="evenodd"></path></svg>