<svg xmlns="http://www.w3.org/2000/svg" width="24" height="24" viewBox="0 0 24 24" fill="none" stroke="currentColor" stroke-width="2" stroke-linecap="round" stroke-linejoin="round" class="icon icon-tabler icons-tabler-outline icon-tabler-mood-sad-dizzy"><path d="M11.080 2.045 C 9.507 2.184,7.883 2.751,6.540 3.630 C 5.905 4.045,5.499 4.378,4.919 4.958 C 2.953 6.926,1.919 9.544,2.013 12.320 C 2.084 14.439,2.752 16.328,4.033 18.040 C 4.430 18.570,5.305 19.464,5.800 19.847 C 7.242 20.961,8.787 21.624,10.600 21.907 C 11.247 22.008,12.753 22.008,13.400 21.907 C 15.638 21.557,17.504 20.620,19.062 19.062 C 20.620 17.504,21.557 15.638,21.907 13.400 C 22.008 12.753,22.008 11.247,21.907 10.600 C 21.624 8.786,20.959 7.238,19.847 5.800 C 19.510 5.365,18.639 4.494,18.200 4.154 C 16.133 2.555,13.646 1.818,11.080 2.045 M12.734 4.041 C 14.574 4.216,16.228 4.976,17.554 6.256 C 20.043 8.658,20.702 12.394,19.183 15.499 C 18.749 16.387,18.223 17.105,17.496 17.801 C 16.876 18.394,16.262 18.819,15.471 19.200 C 13.267 20.265,10.733 20.265,8.529 19.200 C 7.477 18.693,6.612 18.015,5.847 17.100 C 3.848 14.711,3.440 11.302,4.816 8.500 C 6.162 5.760,8.867 4.049,11.920 4.005 C 12.129 4.003,12.495 4.019,12.734 4.041 M7.626 8.045 C 7.420 8.154,7.146 8.433,7.038 8.644 C 6.856 9.002,6.945 9.326,7.344 9.757 L 7.569 10.000 7.344 10.243 C 7.061 10.549,6.951 10.760,6.951 11.000 C 6.951 11.477,7.523 12.049,8.000 12.049 C 8.240 12.049,8.451 11.939,8.757 11.656 L 9.000 11.431 9.243 11.656 C 9.549 11.939,9.760 12.049,10.000 12.049 C 10.477 12.049,11.049 11.477,11.049 11.000 C 11.049 10.760,10.939 10.549,10.656 10.243 L 10.431 10.000 10.656 9.757 C 10.780 9.623,10.919 9.440,10.965 9.349 C 11.137 9.013,11.043 8.641,10.701 8.299 C 10.466 8.064,10.251 7.960,10.000 7.960 C 9.742 7.960,9.555 8.055,9.243 8.344 L 9.000 8.569 8.757 8.344 C 8.623 8.220,8.444 8.083,8.358 8.039 C 8.153 7.934,7.831 7.937,7.626 8.045 M13.626 8.045 C 13.420 8.154,13.146 8.433,13.038 8.644 C 12.856 9.002,12.945 9.326,13.344 9.757 L 13.569 10.000 13.344 10.243 C 13.061 10.549,12.951 10.760,12.951 11.000 C 12.951 11.477,13.523 12.049,14.000 12.049 C 14.240 12.049,14.451 11.939,14.757 11.656 L 15.000 11.431 15.243 11.656 C 15.549 11.939,15.760 12.049,16.000 12.049 C 16.477 12.049,17.049 11.477,17.049 11.000 C 17.049 10.760,16.939 10.549,16.656 10.243 L 16.431 10.000 16.656 9.757 C 16.780 9.623,16.919 9.440,16.965 9.349 C 17.137 9.013,17.043 8.641,16.701 8.299 C 16.466 8.064,16.251 7.960,16.000 7.960 C 15.742 7.960,15.555 8.055,15.243 8.344 L 15.000 8.569 14.757 8.344 C 14.623 8.220,14.444 8.083,14.358 8.039 C 14.153 7.934,13.831 7.937,13.626 8.045 M11.560 14.024 C 11.268 14.060,10.775 14.169,10.542 14.248 C 9.943 14.451,9.178 14.934,8.788 15.354 C 8.331 15.846,8.332 16.275,8.789 16.738 C 9.033 16.986,9.250 17.095,9.500 17.095 C 9.762 17.095,9.913 17.016,10.300 16.677 C 10.820 16.222,11.374 16.001,12.000 16.001 C 12.626 16.001,13.180 16.222,13.700 16.677 C 14.087 17.016,14.238 17.095,14.500 17.095 C 14.750 17.095,14.967 16.986,15.211 16.738 C 15.789 16.153,15.641 15.610,14.717 14.921 C 14.177 14.519,13.548 14.235,12.903 14.102 C 12.584 14.036,11.822 13.992,11.560 14.024 " stroke="none" fill="black" fill-rule="evenodd"></path></svg>