<svg xmlns="http://www.w3.org/2000/svg" width="24" height="24" viewBox="0 0 24 24" fill="none" stroke="currentColor" stroke-width="2" stroke-linecap="round" stroke-linejoin="round" class="icon icon-tabler icons-tabler-outline icon-tabler-brand-disqus"><path d="M10.927 2.041 C 8.543 2.272,6.410 3.287,4.778 4.965 C 3.718 6.056,3.010 7.204,2.521 8.623 C 2.147 9.707,2.001 10.525,1.971 11.711 C 1.935 13.143,2.096 14.267,2.504 15.414 L 2.601 15.688 1.846 17.134 C 1.430 17.929,1.068 18.650,1.040 18.736 C 1.010 18.828,0.998 18.994,1.010 19.142 C 1.044 19.567,1.266 19.857,1.635 19.959 C 1.723 19.984,2.528 20.000,3.673 20.000 L 5.566 20.000 5.933 20.256 C 7.195 21.135,8.773 21.716,10.480 21.928 C 11.114 22.007,12.708 21.994,13.280 21.906 C 16.646 21.387,19.467 19.374,20.943 16.435 C 22.370 13.595,22.349 10.279,20.888 7.464 C 19.394 4.587,16.602 2.602,13.372 2.120 C 12.736 2.025,11.503 1.985,10.927 2.041 M12.606 4.041 C 14.474 4.224,16.169 4.988,17.497 6.243 C 18.209 6.916,18.750 7.652,19.186 8.540 C 20.262 10.733,20.261 13.292,19.184 15.468 C 18.206 17.442,16.546 18.879,14.440 19.576 C 13.246 19.970,12.079 20.086,10.771 19.940 C 9.177 19.762,8.010 19.307,6.749 18.373 C 6.535 18.214,6.292 18.065,6.209 18.042 C 6.122 18.018,5.568 18.000,4.866 18.000 C 3.745 18.000,3.673 17.996,3.698 17.930 C 3.713 17.892,3.922 17.484,4.163 17.025 C 4.807 15.799,4.807 15.798,4.522 15.089 C 4.135 14.128,3.960 13.169,3.960 12.006 C 3.960 8.540,6.049 5.535,9.219 4.442 C 10.283 4.075,11.495 3.931,12.606 4.041 M9.614 8.055 C 9.375 8.133,9.211 8.262,9.109 8.453 L 9.020 8.620 9.009 11.912 C 9.002 14.060,9.012 15.257,9.039 15.356 C 9.100 15.584,9.242 15.768,9.442 15.880 L 9.620 15.980 10.980 15.979 C 12.107 15.977,12.404 15.965,12.714 15.907 C 14.792 15.515,15.894 14.284,15.988 12.252 C 16.037 11.178,15.790 10.230,15.280 9.541 C 15.081 9.271,14.625 8.853,14.347 8.687 C 13.870 8.400,13.392 8.231,12.676 8.094 C 12.208 8.005,9.859 7.975,9.614 8.055 M12.520 10.098 C 12.907 10.180,13.339 10.388,13.534 10.585 C 13.933 10.987,14.095 11.776,13.943 12.573 C 13.756 13.547,13.122 13.939,11.650 13.989 L 11.000 14.011 11.000 12.000 L 11.000 9.988 11.610 10.011 C 11.945 10.024,12.355 10.063,12.520 10.098 " stroke="none" fill="black" fill-rule="evenodd"></path></svg>