<svg xmlns="http://www.w3.org/2000/svg" width="24" height="24" viewBox="0 0 24 24" fill="none" stroke="currentColor" stroke-width="2" stroke-linecap="round" stroke-linejoin="round" class="icon icon-tabler icons-tabler-outline icon-tabler-seeding"><path d="M2.614 3.055 C 2.375 3.133,2.211 3.262,2.109 3.453 C 2.021 3.617,2.020 3.645,2.020 5.140 C 2.020 6.750,2.039 6.997,2.222 7.725 C 2.833 10.156,4.800 12.143,7.214 12.764 C 7.919 12.946,8.135 12.966,9.590 12.988 L 11.000 13.008 11.000 16.614 C 11.000 18.906,11.015 20.273,11.041 20.365 C 11.148 20.750,11.437 20.962,11.896 20.991 C 12.381 21.022,12.699 20.882,12.880 20.558 L 12.980 20.380 12.992 18.194 L 13.003 16.008 14.412 15.988 C 16.090 15.963,16.427 15.916,17.380 15.573 C 19.567 14.787,21.239 12.926,21.796 10.660 C 21.948 10.043,21.980 9.689,21.980 8.640 C 21.980 7.656,21.977 7.614,21.889 7.450 C 21.783 7.252,21.576 7.103,21.314 7.038 C 21.025 6.967,17.376 7.010,16.900 7.091 C 15.500 7.328,14.357 7.882,13.275 8.848 C 13.107 8.997,12.961 9.120,12.950 9.120 C 12.940 9.120,12.919 9.017,12.904 8.891 C 12.843 8.368,12.562 7.486,12.274 6.910 C 11.249 4.861,9.375 3.477,7.100 3.091 C 6.590 3.004,2.862 2.975,2.614 3.055 M6.552 5.043 C 8.413 5.246,10.001 6.479,10.680 8.248 C 10.902 8.825,11.000 9.491,11.000 10.422 L 11.000 11.006 9.650 10.989 C 8.204 10.970,8.048 10.952,7.400 10.732 C 5.810 10.189,4.575 8.858,4.162 7.240 C 4.054 6.820,4.000 6.262,4.000 5.582 L 4.000 5.000 5.082 5.000 C 5.676 5.000,6.338 5.019,6.552 5.043 M20.000 9.082 C 20.000 9.301,19.906 9.973,19.839 10.240 C 19.430 11.850,18.186 13.191,16.600 13.732 C 15.952 13.952,15.796 13.970,14.350 13.989 L 13.000 14.006 13.000 13.922 C 13.000 13.698,13.093 13.028,13.162 12.760 C 13.667 10.783,15.391 9.271,17.400 9.044 C 17.565 9.026,18.218 9.008,18.850 9.005 C 19.982 9.000,20.000 9.001,20.000 9.082 " stroke="none" fill="black" fill-rule="evenodd"></path></svg>