<svg xmlns="http://www.w3.org/2000/svg" width="24" height="24" viewBox="0 0 24 24" fill="none" stroke="currentColor" stroke-width="2" stroke-linecap="round" stroke-linejoin="round" class="icon icon-tabler icons-tabler-outline icon-tabler-xbox-b"><path d="M11.080 2.045 C 9.507 2.184,7.883 2.751,6.540 3.630 C 5.905 4.045,5.499 4.378,4.919 4.958 C 2.953 6.926,1.919 9.544,2.013 12.320 C 2.084 14.439,2.752 16.328,4.033 18.040 C 4.430 18.570,5.305 19.464,5.800 19.847 C 7.242 20.961,8.787 21.624,10.600 21.907 C 11.247 22.008,12.753 22.008,13.400 21.907 C 15.638 21.557,17.504 20.620,19.062 19.062 C 20.620 17.504,21.557 15.638,21.907 13.400 C 22.008 12.753,22.008 11.247,21.907 10.600 C 21.624 8.786,20.959 7.238,19.847 5.800 C 19.510 5.365,18.639 4.494,18.200 4.154 C 16.133 2.555,13.646 1.818,11.080 2.045 M12.734 4.041 C 14.574 4.216,16.228 4.976,17.554 6.256 C 20.043 8.658,20.702 12.394,19.183 15.499 C 18.749 16.387,18.223 17.105,17.496 17.801 C 16.876 18.394,16.262 18.819,15.471 19.200 C 13.267 20.265,10.733 20.265,8.529 19.200 C 7.477 18.693,6.612 18.015,5.847 17.100 C 3.848 14.711,3.440 11.302,4.816 8.500 C 6.162 5.760,8.867 4.049,11.920 4.005 C 12.129 4.003,12.495 4.019,12.734 4.041 M9.614 7.056 C 9.376 7.132,9.212 7.262,9.109 7.453 L 9.020 7.620 9.009 11.913 C 9.002 14.727,9.013 16.258,9.039 16.357 C 9.100 16.584,9.242 16.768,9.442 16.880 L 9.620 16.980 11.580 16.980 C 13.523 16.980,13.543 16.979,13.840 16.886 C 14.827 16.578,15.579 15.826,15.886 14.840 C 16.021 14.406,16.021 13.593,15.886 13.161 C 15.766 12.779,15.609 12.470,15.402 12.207 L 15.236 11.998 15.374 11.829 C 15.572 11.586,15.780 11.186,15.887 10.840 C 16.021 10.405,16.021 9.593,15.886 9.160 C 15.582 8.182,14.827 7.424,13.861 7.123 C 13.540 7.023,13.538 7.023,11.660 7.013 C 10.181 7.005,9.744 7.014,9.614 7.056 M13.310 9.061 C 13.688 9.173,14.000 9.598,14.000 10.001 C 14.000 10.331,13.784 10.696,13.484 10.872 L 13.300 10.980 12.150 10.992 L 11.000 11.005 11.000 10.002 L 11.000 9.000 12.053 9.000 C 12.879 9.000,13.150 9.013,13.310 9.061 M13.310 13.061 C 13.688 13.173,14.000 13.598,14.000 14.001 C 14.000 14.331,13.784 14.696,13.484 14.872 L 13.300 14.980 12.150 14.992 L 11.000 15.005 11.000 14.002 L 11.000 13.000 12.053 13.000 C 12.879 13.000,13.150 13.013,13.310 13.061 " stroke="none" fill="black" fill-rule="evenodd"></path></svg>