<svg xmlns="http://www.w3.org/2000/svg" width="24" height="24" viewBox="0 0 24 24" fill="none" stroke="currentColor" stroke-width="2" stroke-linecap="round" stroke-linejoin="round" class="icon icon-tabler icons-tabler-outline icon-tabler-help-square-rounded"><path d="M10.349 2.044 C 7.535 2.178,5.738 2.713,4.406 3.814 C 3.787 4.326,3.247 5.075,2.885 5.924 C 2.566 6.671,2.342 7.527,2.205 8.520 C 2.051 9.633,2.021 10.208,2.021 12.000 C 2.021 13.792,2.051 14.367,2.205 15.480 C 2.744 19.396,4.610 21.251,8.560 21.800 C 9.623 21.948,10.220 21.979,12.000 21.979 C 13.780 21.979,14.377 21.948,15.440 21.800 C 16.241 21.689,16.753 21.574,17.401 21.361 C 20.018 20.502,21.344 18.717,21.800 15.440 C 21.948 14.377,21.979 13.780,21.979 12.000 C 21.979 10.220,21.948 9.623,21.800 8.560 C 21.494 6.357,20.759 4.778,19.594 3.814 C 18.657 3.040,17.469 2.539,15.960 2.283 C 14.520 2.039,12.378 1.947,10.349 2.044 M13.500 4.041 C 16.040 4.168,17.512 4.591,18.435 5.458 C 19.509 6.468,19.999 8.517,19.999 12.000 C 19.999 15.490,19.511 17.527,18.430 18.548 C 17.356 19.562,15.410 20.000,11.992 20.000 C 8.581 19.999,6.644 19.561,5.570 18.548 C 4.489 17.527,4.001 15.490,4.001 12.000 C 4.001 10.005,4.176 8.385,4.505 7.320 C 5.052 5.555,6.056 4.719,8.129 4.302 C 9.412 4.045,11.521 3.942,13.500 4.041 M11.440 8.058 C 11.297 8.089,11.102 8.142,11.008 8.176 C 10.203 8.466,9.442 9.217,9.440 9.722 C 9.439 10.052,9.769 10.475,10.174 10.663 C 10.548 10.838,10.807 10.775,11.193 10.419 C 11.607 10.036,11.852 9.947,12.236 10.039 C 12.926 10.205,13.220 11.013,12.802 11.591 C 12.616 11.848,12.390 11.958,11.953 12.003 C 11.311 12.069,11.046 12.320,11.009 12.896 C 10.978 13.381,11.118 13.699,11.442 13.880 C 11.602 13.970,11.664 13.980,12.060 13.979 C 12.770 13.977,13.316 13.781,13.893 13.323 C 14.574 12.782,14.948 12.031,14.989 11.119 C 15.014 10.566,14.932 10.176,14.683 9.664 C 14.320 8.917,13.597 8.324,12.780 8.101 C 12.447 8.010,11.765 7.988,11.440 8.058 M11.614 15.057 C 11.221 15.180,11.039 15.435,11.009 15.906 C 10.962 16.621,11.306 17.000,12.000 17.000 C 12.698 17.000,13.043 16.616,12.989 15.900 C 12.963 15.563,12.859 15.327,12.678 15.199 C 12.414 15.010,11.957 14.950,11.614 15.057 " stroke="none" fill="black" fill-rule="evenodd"></path></svg>