<svg xmlns="http://www.w3.org/2000/svg" width="24" height="24" viewBox="0 0 24 24" fill="none" stroke="currentColor" stroke-width="2" stroke-linecap="round" stroke-linejoin="round" class="icon icon-tabler icons-tabler-outline icon-tabler-chevrons-down-left"><path d="M10.614 4.057 C 10.377 4.131,10.212 4.261,10.109 4.453 L 10.020 4.620 10.020 9.000 L 10.020 13.380 10.120 13.558 C 10.230 13.755,10.414 13.898,10.635 13.959 C 10.833 14.014,19.167 14.014,19.365 13.959 C 19.586 13.898,19.770 13.755,19.880 13.558 C 19.967 13.402,19.980 13.332,19.979 13.000 C 19.978 12.567,19.898 12.355,19.678 12.199 C 19.396 11.998,19.439 12.000,15.595 12.000 L 12.002 12.000 11.991 8.310 L 11.980 4.620 11.891 4.453 C 11.842 4.362,11.746 4.247,11.678 4.199 C 11.414 4.010,10.957 3.950,10.614 4.057 M6.614 8.057 C 6.377 8.131,6.212 8.261,6.109 8.453 L 6.020 8.620 6.020 13.000 L 6.020 17.380 6.120 17.558 C 6.230 17.755,6.414 17.898,6.635 17.959 C 6.833 18.014,15.167 18.014,15.365 17.959 C 15.586 17.898,15.770 17.755,15.880 17.558 C 15.967 17.402,15.980 17.332,15.979 17.000 C 15.978 16.567,15.898 16.355,15.678 16.199 C 15.396 15.998,15.439 16.000,11.595 16.000 L 8.002 16.000 7.991 12.310 L 7.980 8.620 7.891 8.453 C 7.842 8.362,7.746 8.247,7.678 8.199 C 7.414 8.010,6.957 7.950,6.614 8.057 " stroke="none" fill="black" fill-rule="evenodd"></path></svg>