<svg xmlns="http://www.w3.org/2000/svg" width="24" height="24" viewBox="0 0 24 24" fill="none" stroke="currentColor" stroke-width="2" stroke-linecap="round" stroke-linejoin="round" class="icon icon-tabler icons-tabler-outline icon-tabler-gender-trasvesti"><path d="M7.620 3.046 C 7.385 3.167,3.154 7.408,3.039 7.637 C 2.863 7.990,2.952 8.355,3.299 8.701 C 3.646 9.048,4.012 9.137,4.363 8.959 C 4.469 8.905,4.832 8.580,5.271 8.146 L 6.002 7.422 8.056 9.476 L 10.109 11.529 9.970 11.734 C 9.608 12.271,9.276 13.088,9.115 13.840 C 8.984 14.450,8.984 15.558,9.114 16.160 C 9.639 18.588,11.417 20.365,13.840 20.885 C 14.190 20.960,14.383 20.975,15.000 20.975 C 15.822 20.975,16.248 20.909,16.940 20.672 C 18.677 20.077,20.077 18.677,20.672 16.940 C 20.909 16.248,20.975 15.822,20.975 15.000 C 20.975 14.383,20.960 14.190,20.885 13.840 C 20.477 11.936,19.323 10.453,17.580 9.590 C 16.252 8.932,14.521 8.832,13.060 9.328 C 12.671 9.460,12.064 9.756,11.735 9.974 L 11.529 10.109 9.476 8.056 L 7.422 6.002 8.146 5.271 C 8.580 4.832,8.905 4.469,8.959 4.363 C 9.137 4.012,9.048 3.646,8.701 3.299 C 8.361 2.959,7.968 2.867,7.620 3.046 M15.605 11.058 C 16.855 11.247,17.964 12.042,18.536 13.160 C 18.767 13.611,18.871 13.930,18.942 14.395 C 19.014 14.879,19.014 15.121,18.942 15.605 C 18.691 17.265,17.434 18.579,15.773 18.917 C 13.563 19.368,11.396 17.845,11.058 15.605 C 10.986 15.121,10.986 14.879,11.058 14.395 C 11.314 12.698,12.675 11.324,14.358 11.061 C 14.816 10.990,15.144 10.989,15.605 11.058 " stroke="none" fill="black" fill-rule="evenodd"></path></svg>