<svg xmlns="http://www.w3.org/2000/svg" width="24" height="24" viewBox="0 0 24 24" fill="none" stroke="currentColor" stroke-width="2" stroke-linecap="round" stroke-linejoin="round" class="icon icon-tabler icons-tabler-outline icon-tabler-number-14-small"><path d="M8.620 7.046 C 8.390 7.165,6.153 9.411,6.040 9.637 C 5.863 9.990,5.952 10.354,6.299 10.701 C 6.641 11.043,7.013 11.137,7.349 10.965 C 7.440 10.919,7.623 10.780,7.757 10.656 L 8.000 10.431 8.000 13.326 C 8.000 15.141,8.015 16.274,8.041 16.365 C 8.148 16.750,8.437 16.962,8.896 16.991 C 9.381 17.022,9.699 16.882,9.880 16.558 L 9.980 16.380 9.980 12.040 L 9.980 7.700 9.871 7.514 C 9.758 7.323,9.558 7.141,9.332 7.025 C 9.153 6.934,8.818 6.944,8.620 7.046 M12.614 7.057 C 12.377 7.131,12.212 7.261,12.109 7.453 C 12.021 7.618,12.020 7.646,12.008 9.416 C 11.996 11.353,12.004 11.460,12.202 11.877 C 12.348 12.186,12.771 12.623,13.070 12.775 C 13.472 12.979,13.642 13.000,14.868 13.000 L 16.000 13.000 16.000 14.610 C 16.000 15.565,16.017 16.279,16.041 16.365 C 16.148 16.750,16.437 16.962,16.896 16.991 C 17.381 17.022,17.699 16.882,17.880 16.558 L 17.980 16.380 17.980 12.000 L 17.980 7.620 17.889 7.450 C 17.724 7.140,17.329 6.970,16.874 7.011 C 16.439 7.051,16.141 7.274,16.041 7.635 C 16.017 7.721,16.000 8.435,16.000 9.390 L 16.000 11.000 15.002 11.000 L 14.004 11.000 13.992 9.310 C 13.980 7.651,13.978 7.617,13.891 7.453 C 13.842 7.362,13.746 7.247,13.678 7.199 C 13.414 7.010,12.957 6.950,12.614 7.057 " stroke="none" fill="black" fill-rule="evenodd"></path></svg>