<svg xmlns="http://www.w3.org/2000/svg" width="24" height="24" viewBox="0 0 24 24" fill="none" stroke="currentColor" stroke-width="2" stroke-linecap="round" stroke-linejoin="round" class="icon icon-tabler icons-tabler-outline icon-tabler-clock-up"><path d="M11.320 2.024 C 11.243 2.033,11.009 2.059,10.800 2.082 C 9.576 2.215,8.173 2.676,7.064 3.310 C 4.576 4.731,2.816 7.136,2.225 9.920 C 2.053 10.730,2.022 11.058,2.022 12.020 C 2.022 13.206,2.120 13.857,2.466 14.988 C 3.431 18.140,6.018 20.676,9.205 21.594 C 10.220 21.887,10.880 21.979,11.960 21.980 C 12.805 21.980,12.824 21.978,13.044 21.875 C 13.409 21.704,13.536 21.455,13.514 20.950 C 13.495 20.491,13.379 20.265,13.084 20.111 C 12.875 20.002,12.857 20.000,12.185 20.000 C 11.108 19.999,10.386 19.890,9.484 19.591 C 6.651 18.652,4.615 16.254,4.091 13.240 C 4.008 12.763,3.998 11.364,4.074 10.920 C 4.245 9.923,4.444 9.265,4.800 8.529 C 5.738 6.584,7.448 5.078,9.471 4.415 C 11.450 3.767,13.566 3.893,15.406 4.770 C 17.107 5.580,18.364 6.829,19.203 8.543 C 19.761 9.682,20.004 10.835,19.997 12.316 C 19.996 12.788,20.008 12.905,20.072 13.049 C 20.170 13.266,20.295 13.381,20.521 13.460 C 21.159 13.685,21.733 13.488,21.909 12.983 C 21.968 12.813,21.980 12.645,21.978 11.960 C 21.976 11.120,21.934 10.668,21.794 10.000 C 20.925 5.860,17.648 2.756,13.473 2.118 C 12.966 2.041,11.660 1.983,11.320 2.024 M11.614 6.057 C 11.377 6.131,11.212 6.261,11.109 6.453 L 11.020 6.620 11.020 9.460 L 11.020 12.300 11.127 12.480 C 11.186 12.579,11.861 13.283,12.627 14.044 C 14.150 15.558,14.197 15.593,14.584 15.550 C 14.995 15.503,15.511 14.978,15.550 14.565 C 15.585 14.203,15.508 14.102,14.195 12.780 L 13.003 11.580 12.991 9.100 C 12.980 6.623,12.980 6.620,12.891 6.453 C 12.842 6.362,12.746 6.247,12.678 6.199 C 12.414 6.010,11.957 5.950,11.614 6.057 M18.530 15.083 C 18.393 15.150,18.249 15.252,18.210 15.310 C 18.172 15.369,17.463 16.101,16.635 16.938 C 15.635 17.949,15.099 18.520,15.040 18.637 C 14.863 18.989,14.952 19.354,15.299 19.701 C 15.646 20.048,16.012 20.137,16.363 19.959 C 16.469 19.905,16.832 19.580,17.270 19.147 L 18.000 18.425 18.000 20.322 C 18.000 21.470,18.016 22.277,18.041 22.365 C 18.148 22.750,18.437 22.962,18.896 22.991 C 19.381 23.022,19.699 22.882,19.880 22.558 L 19.980 22.380 19.992 20.404 L 20.004 18.428 20.732 19.149 C 21.168 19.581,21.531 19.905,21.637 19.959 C 21.988 20.137,22.354 20.048,22.701 19.701 C 23.048 19.354,23.137 18.989,22.960 18.637 C 22.901 18.520,22.365 17.949,21.365 16.938 C 20.537 16.101,19.828 15.369,19.789 15.310 C 19.751 15.252,19.604 15.149,19.464 15.082 C 19.120 14.918,18.871 14.918,18.530 15.083 " stroke="none" fill="black" fill-rule="evenodd"></path></svg>