<svg xmlns="http://www.w3.org/2000/svg" width="24" height="24" viewBox="0 0 24 24" fill="none" stroke="currentColor" stroke-width="2" stroke-linecap="round" stroke-linejoin="round" class="icon icon-tabler icons-tabler-outline icon-tabler-photo-off"><path d="M2.626 2.045 C 2.420 2.154,2.146 2.433,2.038 2.644 C 1.856 3.000,1.945 3.326,2.338 3.750 C 2.468 3.891,2.542 4.002,2.521 4.024 C 2.452 4.094,2.194 4.743,2.108 5.060 C 2.023 5.377,2.022 5.428,1.996 10.660 C 1.981 13.564,1.968 15.967,1.966 16.000 C 1.964 16.033,1.978 16.636,1.996 17.340 C 2.024 18.433,2.041 18.667,2.112 18.940 C 2.443 20.221,3.310 21.219,4.512 21.704 C 4.700 21.779,5.028 21.877,5.243 21.921 C 5.622 21.998,5.805 22.000,12.000 22.000 C 18.195 22.000,18.378 21.998,18.757 21.921 C 19.134 21.844,19.762 21.619,19.931 21.501 C 20.007 21.448,20.030 21.459,20.250 21.662 C 20.380 21.783,20.560 21.919,20.651 21.965 C 20.987 22.137,21.359 22.043,21.701 21.701 C 22.116 21.286,22.159 20.869,21.832 20.440 C 21.756 20.340,4.808 3.370,3.975 2.560 C 3.730 2.322,3.457 2.089,3.367 2.043 C 3.153 1.934,2.834 1.935,2.626 2.045 M6.614 2.057 C 6.377 2.131,6.212 2.261,6.109 2.453 C 6.035 2.592,6.020 2.684,6.020 3.000 C 6.020 3.331,6.033 3.403,6.120 3.558 C 6.230 3.755,6.414 3.898,6.635 3.959 C 6.729 3.985,8.805 4.000,12.520 4.002 C 18.921 4.005,18.531 3.988,19.017 4.281 C 19.294 4.448,19.618 4.787,19.772 5.071 C 20.000 5.492,19.999 5.471,19.999 9.697 L 20.000 13.574 19.230 12.814 C 18.260 11.857,17.920 11.620,17.252 11.434 C 17.020 11.369,16.827 11.347,16.500 11.346 C 16.111 11.345,16.034 11.357,15.836 11.448 C 15.463 11.618,15.287 11.952,15.334 12.400 C 15.403 13.070,15.668 13.311,16.364 13.340 C 16.629 13.351,16.773 13.378,16.912 13.443 C 17.051 13.509,17.476 13.906,18.550 14.975 L 20.000 16.418 20.000 16.819 C 20.000 17.039,20.019 17.285,20.041 17.365 C 20.148 17.750,20.437 17.962,20.896 17.991 C 21.380 18.022,21.700 17.881,21.877 17.561 C 21.963 17.405,21.978 17.312,22.008 16.723 C 22.027 16.358,22.040 16.033,22.037 16.000 C 22.033 15.967,22.019 13.564,22.004 10.660 C 21.974 4.822,21.995 5.258,21.714 4.540 C 21.199 3.220,20.007 2.270,18.605 2.058 C 18.064 1.977,6.874 1.976,6.614 2.057 M6.152 7.572 L 8.204 9.624 7.872 9.838 C 7.604 10.011,7.198 10.393,5.770 11.815 L 4.000 13.577 4.000 9.699 C 4.001 6.081,4.011 5.520,4.075 5.520 C 4.089 5.520,5.024 6.443,6.152 7.572 M14.614 7.055 C 14.220 7.184,14.039 7.437,14.009 7.900 C 13.978 8.381,14.119 8.699,14.442 8.880 C 14.597 8.967,14.669 8.980,15.000 8.980 C 15.312 8.980,15.408 8.964,15.540 8.894 C 15.866 8.718,16.000 8.459,16.000 8.000 C 16.000 7.357,15.713 7.048,15.083 7.016 C 14.893 7.006,14.718 7.021,14.614 7.055 M9.920 11.450 C 10.059 11.513,11.048 12.478,14.299 15.724 C 16.608 18.030,18.483 19.931,18.465 19.948 C 18.415 19.998,5.819 20.009,5.577 19.959 C 4.887 19.816,4.253 19.211,4.073 18.523 C 4.018 18.313,4.004 18.075,4.002 17.340 L 4.000 16.419 6.450 13.974 C 7.798 12.629,8.958 11.499,9.029 11.464 C 9.337 11.310,9.601 11.305,9.920 11.450 " stroke="none" fill="black" fill-rule="evenodd"></path></svg>