<svg xmlns="http://www.w3.org/2000/svg" width="24" height="24" viewBox="0 0 24 24" fill="none" stroke="currentColor" stroke-width="2" stroke-linecap="round" stroke-linejoin="round" class="icon icon-tabler icons-tabler-outline icon-tabler-whirl"><path d="M11.649 2.037 C 11.263 2.136,11.039 2.438,11.009 2.900 C 10.978 3.378,11.119 3.701,11.435 3.875 C 11.577 3.954,11.697 3.976,12.114 4.005 C 13.027 4.066,13.534 4.176,14.147 4.445 C 15.745 5.146,16.785 6.486,16.965 8.074 C 17.081 9.093,16.774 10.165,16.119 11.035 C 15.875 11.359,15.371 11.853,15.128 12.007 L 15.000 12.088 15.000 11.826 C 15.000 11.488,14.901 10.732,14.798 10.288 C 14.537 9.162,13.971 8.060,13.192 7.161 C 12.287 6.117,10.878 5.322,9.526 5.094 C 9.011 5.007,7.989 5.007,7.474 5.094 C 6.122 5.322,4.713 6.117,3.808 7.161 C 3.030 8.058,2.462 9.163,2.202 10.280 C 2.029 11.023,1.950 12.040,2.041 12.365 C 2.148 12.750,2.437 12.962,2.896 12.991 C 3.370 13.021,3.698 12.882,3.868 12.579 C 3.959 12.417,3.965 12.380,4.039 11.520 C 4.141 10.332,4.594 9.269,5.350 8.443 C 5.883 7.860,6.680 7.357,7.380 7.161 C 8.071 6.968,8.911 6.967,9.610 7.159 C 10.026 7.274,10.647 7.588,11.030 7.877 C 11.355 8.122,11.852 8.628,12.003 8.866 L 12.080 8.988 11.650 9.015 C 10.863 9.064,10.100 9.214,9.480 9.441 C 8.358 9.853,7.248 10.600,6.568 11.401 C 5.765 12.346,5.285 13.363,5.074 14.560 C 5.006 14.947,5.006 16.053,5.074 16.440 C 5.440 18.518,6.693 20.193,8.620 21.178 C 9.622 21.691,10.855 22.000,11.892 22.000 C 12.433 21.999,12.700 21.880,12.880 21.558 C 12.967 21.402,12.980 21.332,12.979 21.000 C 12.978 20.687,12.962 20.591,12.890 20.453 C 12.726 20.144,12.405 20.000,11.878 20.000 C 11.470 20.000,10.719 19.869,10.278 19.721 C 9.002 19.294,7.978 18.422,7.434 17.300 C 7.200 16.819,7.095 16.455,7.034 15.916 C 6.980 15.446,7.030 14.834,7.160 14.379 C 7.277 13.968,7.593 13.345,7.877 12.970 C 8.125 12.642,8.628 12.147,8.872 11.993 L 9.000 11.912 9.000 12.174 C 9.000 12.808,9.179 13.769,9.429 14.480 C 10.176 16.605,11.870 18.235,13.894 18.775 C 14.499 18.937,14.829 18.979,15.500 18.979 C 16.171 18.979,16.501 18.937,17.106 18.775 C 19.128 18.235,20.832 16.596,21.570 14.480 C 21.967 13.346,22.118 11.903,21.887 11.453 C 21.695 11.077,21.139 10.902,20.629 11.055 C 20.174 11.192,20.043 11.408,19.996 12.099 C 19.925 13.143,19.782 13.722,19.415 14.452 C 19.087 15.104,18.438 15.864,17.895 16.231 C 16.402 17.240,14.683 17.256,13.177 16.276 C 12.850 16.063,12.119 15.356,11.988 15.127 L 11.915 15.000 12.176 15.000 C 12.512 15.000,13.269 14.900,13.712 14.798 C 15.121 14.471,16.569 13.615,17.432 12.599 C 18.235 11.654,18.715 10.637,18.926 9.440 C 18.994 9.053,18.994 7.947,18.926 7.560 C 18.608 5.756,17.630 4.263,16.093 3.240 C 15.190 2.639,14.225 2.265,13.147 2.099 C 12.694 2.030,11.819 1.993,11.649 2.037 M12.310 11.061 C 12.688 11.173,13.000 11.598,13.000 12.001 C 13.000 12.330,12.784 12.696,12.485 12.871 C 12.331 12.961,12.254 12.978,12.001 12.979 C 11.745 12.980,11.673 12.964,11.516 12.872 C 11.415 12.813,11.282 12.698,11.221 12.618 C 10.908 12.208,10.943 11.664,11.304 11.303 C 11.583 11.024,11.916 10.944,12.310 11.061 " stroke="none" fill="black" fill-rule="evenodd"></path></svg>