<svg xmlns="http://www.w3.org/2000/svg" width="24" height="24" viewBox="0 0 24 24" fill="none" stroke="currentColor" stroke-width="2" stroke-linecap="round" stroke-linejoin="round" class="icon icon-tabler icons-tabler-outline icon-tabler-table-column"><path d="M6.620 2.001 L 4.460 2.023 4.139 2.123 C 3.182 2.421,2.437 3.164,2.116 4.140 C 2.026 4.414,2.023 4.469,1.994 6.680 C 1.978 7.923,1.968 9.003,1.972 9.080 C 1.982 9.251,1.983 13.724,1.973 13.920 C 1.970 13.997,1.975 15.094,1.985 16.358 C 1.996 17.706,1.988 18.728,1.966 18.831 C 1.928 19.007,1.949 19.146,2.110 19.799 C 2.289 20.526,2.902 21.290,3.600 21.656 C 4.075 21.905,4.340 21.963,5.180 22.005 C 5.598 22.025,5.967 22.039,6.000 22.036 C 6.033 22.033,9.102 22.019,12.820 22.005 L 19.580 21.980 19.860 21.886 C 20.851 21.554,21.582 20.816,21.886 19.840 L 21.980 19.540 21.980 12.000 L 21.980 4.460 21.886 4.160 C 21.581 3.181,20.827 2.423,19.861 2.123 C 19.541 2.023,19.536 2.023,17.660 2.012 C 13.415 1.986,8.651 1.981,6.620 2.001 M5.300 5.280 L 4.020 6.561 4.009 5.733 C 3.996 4.731,4.027 4.579,4.303 4.303 C 4.573 4.033,4.701 4.006,5.720 4.003 L 6.580 4.000 5.300 5.280 M19.310 4.061 C 19.452 4.103,19.571 4.178,19.697 4.303 C 20.002 4.608,20.000 4.595,20.000 6.947 L 20.000 9.000 15.497 9.000 L 10.994 9.000 11.015 8.030 C 11.026 7.497,11.035 7.033,11.035 7.000 C 11.034 6.967,11.025 6.279,11.014 5.470 L 10.995 4.000 15.050 4.000 C 18.564 4.000,19.133 4.008,19.310 4.061 M6.501 9.079 L 4.000 11.580 4.000 10.500 L 4.000 9.420 6.490 6.930 L 8.980 4.440 8.991 5.509 L 9.001 6.579 6.501 9.079 M6.501 14.079 L 4.000 16.580 4.000 15.500 L 4.000 14.420 6.490 11.930 L 8.980 9.440 8.991 10.509 L 9.001 11.579 6.501 14.079 M20.000 15.054 C 20.000 19.453,20.006 19.320,19.779 19.618 C 19.718 19.698,19.585 19.813,19.484 19.872 L 19.300 19.980 15.148 19.991 L 10.995 20.001 11.015 18.531 C 11.026 17.722,11.032 16.997,11.028 16.920 C 11.015 16.692,11.019 12.232,11.032 12.080 C 11.038 12.003,11.031 11.728,11.017 11.470 L 10.990 11.000 15.495 11.000 L 20.000 11.000 20.000 15.054 M7.291 18.292 L 5.580 20.005 5.140 19.993 C 4.745 19.981,4.681 19.968,4.514 19.870 C 4.340 19.768,4.080 19.476,4.080 19.382 C 4.080 19.359,5.183 18.238,6.530 16.890 L 8.980 14.440 8.991 15.509 L 9.001 16.578 7.291 18.292 M9.000 19.720 L 9.000 20.000 8.711 20.000 L 8.422 20.000 8.700 19.720 C 8.853 19.566,8.983 19.440,8.989 19.440 C 8.995 19.440,9.000 19.566,9.000 19.720 " stroke="none" fill="black" fill-rule="evenodd"></path></svg>