<svg xmlns="http://www.w3.org/2000/svg" width="24" height="24" viewBox="0 0 24 24" fill="none" stroke="currentColor" stroke-width="2" stroke-linecap="round" stroke-linejoin="round" class="icon icon-tabler icons-tabler-outline icon-tabler-michelin-star-green"><path d="M8.503 2.042 C 7.343 2.224,6.236 2.918,5.588 3.871 C 4.990 4.750,4.808 5.999,5.126 7.029 C 5.170 7.171,5.197 7.296,5.187 7.307 C 5.176 7.317,5.026 7.361,4.854 7.403 C 4.255 7.552,3.616 7.917,3.146 8.379 C 2.595 8.921,2.281 9.501,2.073 10.360 C 1.993 10.690,2.003 11.786,2.089 12.140 C 2.285 12.947,2.561 13.454,3.111 14.014 C 3.776 14.692,4.578 15.061,5.594 15.156 C 6.502 15.241,6.897 15.033,6.994 14.420 C 7.030 14.194,7.005 13.883,6.937 13.700 C 6.815 13.374,6.524 13.221,5.956 13.184 C 5.122 13.130,4.547 12.807,4.228 12.211 C 3.935 11.664,3.933 10.774,4.225 10.238 C 4.642 9.473,5.335 9.190,6.558 9.287 C 6.931 9.316,7.100 9.314,7.230 9.277 C 7.462 9.212,7.787 8.916,7.906 8.661 C 8.066 8.316,8.022 8.071,7.730 7.700 C 7.365 7.234,7.066 6.634,6.998 6.229 C 6.939 5.879,6.993 5.494,7.148 5.165 C 7.363 4.709,7.976 4.234,8.556 4.073 C 8.877 3.984,9.148 3.980,9.462 4.062 C 10.017 4.207,10.299 4.483,10.758 5.330 C 11.180 6.106,11.227 6.167,11.526 6.317 C 11.972 6.540,12.387 6.470,12.657 6.127 C 12.703 6.069,12.866 5.792,13.020 5.511 C 13.363 4.885,13.548 4.644,13.860 4.420 C 14.184 4.187,14.515 4.080,14.909 4.081 C 15.304 4.082,15.507 4.130,15.872 4.305 C 16.259 4.491,16.636 4.857,16.799 5.205 C 17.074 5.793,17.038 6.421,16.693 7.090 C 16.593 7.283,16.423 7.560,16.315 7.707 C 16.092 8.009,16.059 8.097,16.066 8.385 C 16.072 8.687,16.186 8.986,16.361 9.161 C 16.565 9.365,16.829 9.427,17.229 9.364 C 17.620 9.304,18.205 9.310,18.525 9.378 C 19.479 9.580,20.073 10.431,19.986 11.469 C 19.910 12.361,19.406 12.968,18.560 13.184 C 18.343 13.240,18.182 13.246,17.593 13.225 C 16.748 13.194,16.663 13.216,16.361 13.547 C 15.963 13.982,15.963 14.361,16.362 14.840 C 16.552 15.068,16.896 15.670,16.989 15.936 C 17.040 16.084,17.060 16.262,17.060 16.582 C 17.060 17.012,17.056 17.032,16.910 17.328 C 16.578 17.999,15.741 18.498,14.960 18.490 C 14.222 18.483,13.743 18.169,13.239 17.364 C 12.961 16.919,12.547 16.803,12.060 17.034 C 11.562 17.270,11.377 17.530,11.410 17.945 C 11.425 18.133,11.466 18.259,11.573 18.450 C 12.300 19.750,13.516 20.483,14.960 20.491 C 15.458 20.493,15.725 20.451,16.220 20.292 C 17.389 19.915,18.369 19.049,18.802 18.010 C 19.139 17.199,19.179 16.144,18.902 15.365 C 18.868 15.269,18.840 15.185,18.840 15.178 C 18.840 15.172,18.917 15.154,19.010 15.139 C 19.262 15.097,19.705 14.931,20.000 14.770 C 20.945 14.251,21.620 13.365,21.889 12.291 C 22.014 11.789,22.015 10.774,21.891 10.280 C 21.520 8.809,20.416 7.734,18.948 7.413 C 18.864 7.395,18.795 7.366,18.794 7.349 C 18.794 7.332,18.834 7.152,18.884 6.949 C 19.011 6.434,19.012 5.650,18.888 5.148 C 18.551 3.790,17.667 2.831,16.266 2.304 C 15.239 1.917,13.941 2.028,13.002 2.583 C 12.680 2.773,12.533 2.889,12.233 3.186 L 11.965 3.450 11.733 3.199 C 11.263 2.691,10.573 2.276,9.940 2.121 C 9.565 2.029,8.840 1.989,8.503 2.042 M11.568 11.045 C 11.342 11.157,11.279 11.245,10.756 12.184 C 9.305 14.790,8.386 16.063,6.934 17.481 C 6.030 18.364,5.027 19.164,3.740 20.029 C 3.177 20.408,3.034 20.594,3.034 20.949 C 3.033 21.287,3.405 21.858,3.709 21.986 C 3.890 22.062,4.191 22.052,4.389 21.962 C 4.617 21.858,5.530 21.238,6.240 20.705 C 8.254 19.192,9.730 17.619,11.089 15.540 C 11.750 14.530,12.863 12.581,12.986 12.222 C 13.121 11.825,12.995 11.478,12.620 11.220 C 12.232 10.953,11.875 10.893,11.568 11.045 " stroke="none" fill="black" fill-rule="evenodd"></path></svg>