<svg xmlns="http://www.w3.org/2000/svg" width="24" height="24" viewBox="0 0 24 24" fill="none" stroke="currentColor" stroke-width="2" stroke-linecap="round" stroke-linejoin="round" class="icon icon-tabler icons-tabler-outline icon-tabler-arrows-diagonal-minimize-2"><path d="M19.620 3.046 C 19.523 3.096,18.579 4.007,17.233 5.350 L 15.006 7.572 14.993 6.596 C 14.981 5.677,14.975 5.610,14.891 5.453 C 14.689 5.076,14.138 4.902,13.629 5.055 C 13.378 5.131,13.215 5.256,13.109 5.453 C 13.021 5.618,13.020 5.649,12.993 7.780 C 12.977 8.968,12.964 9.998,12.962 10.069 C 12.959 10.208,13.122 10.611,13.232 10.735 C 13.331 10.847,13.776 11.040,13.929 11.037 C 14.001 11.036,15.032 11.023,16.220 11.007 C 18.325 10.981,18.384 10.978,18.540 10.894 C 18.875 10.715,18.978 10.504,18.978 10.000 C 18.978 9.567,18.899 9.356,18.678 9.199 C 18.439 9.028,18.243 9.000,17.304 9.000 L 16.422 9.000 18.647 6.770 C 20.189 5.224,20.899 4.486,20.960 4.363 C 21.137 4.010,21.048 3.646,20.701 3.299 C 20.361 2.959,19.967 2.867,19.620 3.046 M7.719 12.999 L 5.658 13.020 5.459 13.122 C 5.119 13.297,4.978 13.606,5.009 14.104 C 5.038 14.563,5.250 14.852,5.635 14.959 C 5.715 14.981,6.185 15.000,6.679 15.000 L 7.578 15.000 5.353 17.230 C 3.811 18.776,3.101 19.514,3.040 19.637 C 2.863 19.990,2.952 20.354,3.299 20.701 C 3.646 21.048,4.010 21.137,4.363 20.960 C 4.486 20.899,5.224 20.189,6.770 18.647 L 9.000 16.422 9.000 17.321 C 9.000 17.815,9.019 18.285,9.041 18.365 C 9.148 18.750,9.437 18.962,9.896 18.991 C 10.381 19.022,10.699 18.882,10.880 18.558 L 10.980 18.380 11.008 16.220 C 11.023 15.032,11.036 14.001,11.038 13.929 C 11.041 13.739,10.834 13.310,10.690 13.207 C 10.467 13.048,10.205 12.959,9.987 12.969 C 9.873 12.974,8.852 12.987,7.719 12.999 " stroke="none" fill="black" fill-rule="evenodd"></path></svg>