<svg xmlns="http://www.w3.org/2000/svg" width="24" height="24" viewBox="0 0 24 24" fill="none" stroke="currentColor" stroke-width="2" stroke-linecap="round" stroke-linejoin="round" class="icon icon-tabler icons-tabler-outline icon-tabler-no-creative-commons"><path d="M11.080 2.045 C 9.507 2.184,7.883 2.751,6.540 3.630 C 5.905 4.045,5.499 4.378,4.919 4.958 C 2.953 6.926,1.919 9.544,2.013 12.320 C 2.084 14.439,2.752 16.328,4.033 18.040 C 4.430 18.570,5.305 19.464,5.800 19.847 C 7.242 20.961,8.787 21.624,10.600 21.907 C 11.247 22.008,12.753 22.008,13.400 21.907 C 15.638 21.557,17.504 20.620,19.062 19.062 C 20.620 17.504,21.557 15.638,21.907 13.400 C 22.008 12.753,22.008 11.247,21.907 10.600 C 21.624 8.786,20.959 7.238,19.847 5.800 C 19.510 5.365,18.639 4.494,18.200 4.154 C 16.133 2.555,13.646 1.818,11.080 2.045 M12.734 4.041 C 14.574 4.216,16.228 4.976,17.554 6.256 C 20.044 8.659,20.701 12.389,19.183 15.501 C 18.952 15.974,18.392 16.880,18.330 16.880 C 18.316 16.880,18.016 16.595,17.663 16.248 C 17.306 15.897,16.949 15.581,16.860 15.538 C 16.652 15.438,16.346 15.439,16.140 15.540 C 15.926 15.644,15.614 15.961,15.519 16.170 C 15.476 16.264,15.442 16.412,15.442 16.500 C 15.442 16.795,15.568 16.978,16.241 17.658 C 16.592 18.014,16.880 18.317,16.880 18.331 C 16.880 18.392,15.935 18.977,15.480 19.197 C 13.265 20.265,10.737 20.267,8.529 19.200 C 7.477 18.693,6.612 18.015,5.847 17.100 C 3.847 14.709,3.440 11.305,4.818 8.496 C 5.050 8.022,5.608 7.120,5.669 7.120 C 5.682 7.120,5.992 7.414,6.357 7.773 C 7.091 8.496,7.238 8.589,7.584 8.550 C 7.995 8.503,8.511 7.978,8.550 7.565 C 8.582 7.238,8.470 7.066,7.753 6.337 C 7.405 5.984,7.120 5.684,7.120 5.670 C 7.120 5.608,8.019 5.052,8.496 4.818 C 9.815 4.171,11.277 3.903,12.734 4.041 M8.619 9.037 C 7.440 9.226,6.452 10.064,6.114 11.160 C 5.993 11.551,5.982 12.358,6.091 12.755 C 6.348 13.693,7.113 14.505,8.035 14.818 C 8.455 14.961,8.868 15.015,9.312 14.986 C 9.793 14.955,10.088 14.879,10.500 14.680 C 11.126 14.378,11.561 13.902,11.559 13.522 C 11.557 13.225,11.256 12.762,10.948 12.583 C 10.591 12.376,10.336 12.408,9.880 12.717 C 9.547 12.943,9.288 13.020,8.973 12.988 C 8.412 12.930,8.023 12.525,8.023 12.000 C 8.023 11.600,8.206 11.316,8.587 11.125 C 8.974 10.931,9.442 10.978,9.829 11.250 C 10.304 11.584,10.528 11.628,10.872 11.456 C 11.113 11.336,11.330 11.103,11.464 10.820 C 11.587 10.561,11.585 10.385,11.455 10.124 C 11.259 9.732,10.533 9.248,9.920 9.100 C 9.611 9.026,8.901 8.991,8.619 9.037 M14.619 9.037 C 13.440 9.226,12.452 10.064,12.114 11.160 C 11.993 11.551,11.982 12.358,12.091 12.755 C 12.348 13.693,13.113 14.505,14.035 14.818 C 14.455 14.961,14.868 15.015,15.312 14.986 C 15.793 14.955,16.088 14.879,16.500 14.680 C 17.126 14.378,17.561 13.902,17.559 13.522 C 17.557 13.225,17.256 12.762,16.948 12.583 C 16.591 12.376,16.336 12.408,15.880 12.717 C 15.547 12.943,15.288 13.020,14.973 12.988 C 14.412 12.930,14.023 12.525,14.023 12.000 C 14.023 11.600,14.206 11.316,14.587 11.125 C 14.974 10.931,15.442 10.978,15.829 11.250 C 16.304 11.584,16.528 11.628,16.872 11.456 C 17.113 11.336,17.330 11.103,17.464 10.820 C 17.587 10.561,17.585 10.385,17.455 10.124 C 17.259 9.732,16.533 9.248,15.920 9.100 C 15.611 9.026,14.901 8.991,14.619 9.037 " stroke="none" fill="black" fill-rule="evenodd"></path></svg>