<svg xmlns="http://www.w3.org/2000/svg" width="24" height="24" viewBox="0 0 24 24" fill="none" stroke="currentColor" stroke-width="2" stroke-linecap="round" stroke-linejoin="round" class="icon icon-tabler icons-tabler-outline icon-tabler-device-ipad-search"><path d="M5.499 2.043 C 4.380 2.233,3.461 3.048,3.114 4.160 L 3.020 4.460 3.020 12.000 L 3.020 19.540 3.114 19.840 C 3.418 20.816,4.151 21.555,5.140 21.886 L 5.420 21.979 8.520 21.992 C 10.763 22.002,11.679 21.993,11.833 21.959 C 12.261 21.866,12.486 21.537,12.486 21.003 C 12.486 20.656,12.418 20.446,12.248 20.267 C 12.003 20.009,12.166 20.022,8.780 20.000 L 5.700 19.980 5.516 19.872 C 5.415 19.813,5.284 19.700,5.225 19.623 C 4.986 19.309,5.000 19.795,5.000 12.022 C 5.000 4.006,4.975 4.631,5.303 4.303 C 5.629 3.977,5.126 4.000,12.000 4.000 C 18.874 4.000,18.371 3.977,18.697 4.303 C 19.012 4.618,19.000 4.468,19.000 8.057 C 19.000 10.053,19.015 11.273,19.041 11.365 C 19.148 11.750,19.437 11.962,19.896 11.991 C 20.381 12.022,20.699 11.882,20.880 11.558 L 20.980 11.380 20.980 7.920 L 20.980 4.460 20.886 4.160 C 20.581 3.182,19.832 2.428,18.861 2.121 L 18.540 2.020 12.120 2.014 C 8.589 2.011,5.609 2.024,5.499 2.043 M17.358 14.061 C 16.230 14.237,15.143 14.974,14.569 15.953 C 13.320 18.083,14.233 20.785,16.512 21.704 C 17.475 22.092,18.529 22.091,19.498 21.700 C 19.691 21.622,19.887 21.532,19.933 21.500 C 20.012 21.444,20.052 21.476,20.738 22.155 C 21.512 22.921,21.693 23.049,22.000 23.049 C 22.477 23.049,23.049 22.477,23.049 22.000 C 23.049 21.693,22.921 21.512,22.155 20.738 C 21.476 20.052,21.444 20.012,21.500 19.933 C 21.619 19.762,21.844 19.135,21.921 18.757 C 22.070 18.024,21.994 17.230,21.705 16.516 C 21.172 15.197,20.001 14.269,18.605 14.058 C 18.144 13.989,17.816 13.990,17.358 14.061 M18.523 16.073 C 19.262 16.266,19.850 16.924,19.967 17.690 C 20.067 18.343,19.873 18.933,19.403 19.404 C 19.002 19.807,18.547 20.000,18.000 20.000 C 17.485 20.000,17.038 19.822,16.653 19.465 C 15.323 18.229,16.189 16.005,18.000 16.005 C 18.143 16.005,18.378 16.036,18.523 16.073 M8.614 17.057 C 8.377 17.131,8.212 17.261,8.109 17.453 C 8.035 17.592,8.020 17.684,8.020 18.000 C 8.020 18.331,8.033 18.403,8.120 18.558 C 8.230 18.755,8.414 18.898,8.635 18.959 C 8.826 19.012,11.174 19.012,11.365 18.959 C 11.586 18.898,11.770 18.755,11.880 18.558 C 11.967 18.402,11.980 18.332,11.979 18.000 C 11.978 17.687,11.962 17.591,11.890 17.453 C 11.786 17.256,11.623 17.131,11.371 17.055 C 11.117 16.979,8.859 16.981,8.614 17.057 " stroke="none" fill="black" fill-rule="evenodd"></path></svg>