<svg xmlns="http://www.w3.org/2000/svg" width="24" height="24" viewBox="0 0 24 24" fill="none" stroke="currentColor" stroke-width="2" stroke-linecap="round" stroke-linejoin="round" class="icon icon-tabler icons-tabler-outline icon-tabler-stack-middle"><path d="M11.680 3.055 C 11.378 3.172,3.450 7.159,3.295 7.272 C 3.059 7.445,2.943 7.703,2.972 7.988 C 3.000 8.260,3.162 8.601,3.330 8.742 C 3.399 8.800,3.965 9.103,4.588 9.414 C 5.211 9.725,5.720 9.989,5.720 10.000 C 5.720 10.011,5.212 10.275,4.590 10.586 C 3.969 10.897,3.386 11.206,3.295 11.272 C 3.059 11.445,2.943 11.703,2.972 11.988 C 3.000 12.260,3.162 12.601,3.330 12.742 C 3.399 12.800,3.965 13.103,4.588 13.414 C 5.211 13.725,5.720 13.989,5.720 14.000 C 5.720 14.011,5.212 14.275,4.590 14.586 C 3.969 14.897,3.386 15.206,3.295 15.272 C 3.059 15.445,2.943 15.703,2.972 15.988 C 3.000 16.260,3.162 16.601,3.330 16.742 C 3.400 16.801,5.316 17.778,7.589 18.914 L 11.722 20.980 12.000 20.980 L 12.278 20.980 16.409 18.914 C 18.681 17.778,20.614 16.794,20.705 16.728 C 20.941 16.555,21.057 16.297,21.028 16.012 C 21.000 15.740,20.838 15.399,20.670 15.258 C 20.601 15.200,20.035 14.897,19.412 14.586 C 18.789 14.275,18.280 14.011,18.280 14.000 C 18.280 13.989,18.788 13.725,19.410 13.414 C 20.032 13.103,20.614 12.794,20.705 12.728 C 20.941 12.555,21.057 12.297,21.028 12.012 C 21.000 11.740,20.838 11.399,20.670 11.258 C 20.601 11.200,20.035 10.897,19.412 10.586 C 18.789 10.275,18.280 10.011,18.280 10.000 C 18.280 9.989,18.788 9.725,19.410 9.414 C 20.032 9.103,20.614 8.794,20.705 8.728 C 20.941 8.555,21.057 8.297,21.028 8.012 C 21.000 7.740,20.838 7.399,20.670 7.258 C 20.600 7.199,18.687 6.223,16.417 5.089 C 12.546 3.154,12.275 3.025,12.055 3.014 C 11.923 3.007,11.759 3.025,11.680 3.055 M14.860 6.550 C 16.433 7.336,17.720 7.989,17.720 8.000 C 17.720 8.011,16.433 8.664,14.860 9.450 L 12.000 10.880 9.140 9.450 C 7.567 8.664,6.280 8.011,6.280 8.000 C 6.280 7.985,11.936 5.134,11.990 5.122 C 11.995 5.121,13.287 5.763,14.860 6.550 M9.861 16.050 L 11.724 16.980 12.000 16.980 L 12.276 16.980 14.138 16.050 L 16.001 15.121 16.860 15.550 C 17.333 15.786,17.720 15.988,17.720 16.000 C 17.720 16.011,16.433 16.664,14.860 17.450 L 12.000 18.880 9.140 17.450 C 7.567 16.664,6.280 16.011,6.280 16.000 C 6.280 15.985,7.932 15.137,7.989 15.122 C 7.994 15.121,8.837 15.538,9.861 16.050 " stroke="none" fill="black" fill-rule="evenodd"></path></svg>