<svg xmlns="http://www.w3.org/2000/svg" width="24" height="24" viewBox="0 0 24 24" fill="none" stroke="currentColor" stroke-width="2" stroke-linecap="round" stroke-linejoin="round" class="icon icon-tabler icons-tabler-outline icon-tabler-border-right-plus"><path d="M3.614 3.057 C 3.221 3.180,3.039 3.435,3.009 3.906 C 2.962 4.621,3.306 5.000,4.000 5.000 C 4.698 5.000,5.043 4.616,4.989 3.900 C 4.963 3.563,4.859 3.327,4.678 3.199 C 4.414 3.010,3.957 2.950,3.614 3.057 M7.614 3.057 C 7.221 3.180,7.039 3.435,7.009 3.906 C 6.962 4.621,7.306 5.000,8.000 5.000 C 8.698 5.000,9.043 4.616,8.989 3.900 C 8.963 3.563,8.859 3.327,8.678 3.199 C 8.414 3.010,7.957 2.950,7.614 3.057 M11.614 3.057 C 11.221 3.180,11.039 3.435,11.009 3.906 C 10.962 4.621,11.306 5.000,12.000 5.000 C 12.698 5.000,13.043 4.616,12.989 3.900 C 12.963 3.563,12.859 3.327,12.678 3.199 C 12.414 3.010,11.957 2.950,11.614 3.057 M15.614 3.057 C 15.221 3.180,15.039 3.435,15.009 3.906 C 14.962 4.621,15.306 5.000,16.000 5.000 C 16.698 5.000,17.043 4.616,16.989 3.900 C 16.963 3.563,16.859 3.327,16.678 3.199 C 16.414 3.010,15.957 2.950,15.614 3.057 M19.614 3.057 C 19.377 3.131,19.212 3.261,19.109 3.453 L 19.020 3.620 19.010 11.914 C 19.003 17.391,19.013 20.260,19.040 20.358 C 19.144 20.747,19.434 20.962,19.896 20.991 C 20.381 21.022,20.699 20.882,20.880 20.558 L 20.980 20.380 20.980 12.000 L 20.980 3.620 20.891 3.453 C 20.842 3.362,20.746 3.247,20.678 3.199 C 20.414 3.010,19.957 2.950,19.614 3.057 M3.614 7.057 C 3.221 7.180,3.039 7.435,3.009 7.906 C 2.962 8.621,3.306 9.000,4.000 9.000 C 4.698 9.000,5.043 8.616,4.989 7.900 C 4.963 7.563,4.859 7.327,4.678 7.199 C 4.414 7.010,3.957 6.950,3.614 7.057 M11.614 8.057 C 11.377 8.131,11.212 8.261,11.109 8.453 C 11.024 8.613,11.020 8.668,11.008 9.810 L 10.996 11.000 9.904 11.000 C 8.744 11.000,8.570 11.022,8.322 11.199 C 8.100 11.357,8.020 11.568,8.020 12.000 C 8.020 12.331,8.033 12.403,8.120 12.558 C 8.230 12.755,8.414 12.898,8.635 12.959 C 8.716 12.982,9.270 13.000,9.890 13.000 L 11.000 13.000 11.000 14.110 C 11.000 14.730,11.018 15.284,11.041 15.365 C 11.148 15.750,11.437 15.962,11.896 15.991 C 12.381 16.022,12.699 15.882,12.880 15.558 C 12.979 15.381,12.980 15.374,12.993 14.190 L 13.005 13.000 14.113 13.000 C 14.731 13.000,15.284 12.982,15.365 12.959 C 15.586 12.898,15.770 12.755,15.880 12.558 C 15.967 12.402,15.980 12.332,15.979 12.000 C 15.978 11.567,15.898 11.355,15.678 11.199 C 15.430 11.022,15.256 11.000,14.096 11.000 L 13.005 11.000 12.993 9.810 C 12.981 8.669,12.976 8.613,12.891 8.453 C 12.842 8.362,12.746 8.247,12.678 8.199 C 12.414 8.010,11.957 7.950,11.614 8.057 M3.614 11.057 C 3.221 11.180,3.039 11.435,3.009 11.906 C 2.962 12.621,3.306 13.000,4.000 13.000 C 4.698 13.000,5.043 12.616,4.989 11.900 C 4.963 11.563,4.859 11.327,4.678 11.199 C 4.414 11.010,3.957 10.950,3.614 11.057 M3.614 15.057 C 3.221 15.180,3.039 15.435,3.009 15.906 C 2.962 16.621,3.306 17.000,4.000 17.000 C 4.698 17.000,5.043 16.616,4.989 15.900 C 4.963 15.563,4.859 15.327,4.678 15.199 C 4.414 15.010,3.957 14.950,3.614 15.057 M3.614 19.057 C 3.221 19.180,3.039 19.435,3.009 19.906 C 2.962 20.621,3.306 21.000,4.000 21.000 C 4.698 21.000,5.043 20.616,4.989 19.900 C 4.963 19.563,4.859 19.327,4.678 19.199 C 4.414 19.010,3.957 18.950,3.614 19.057 M7.614 19.057 C 7.221 19.180,7.039 19.435,7.009 19.906 C 6.962 20.621,7.306 21.000,8.000 21.000 C 8.698 21.000,9.043 20.616,8.989 19.900 C 8.963 19.563,8.859 19.327,8.678 19.199 C 8.414 19.010,7.957 18.950,7.614 19.057 M11.614 19.057 C 11.221 19.180,11.039 19.435,11.009 19.906 C 10.962 20.621,11.306 21.000,12.000 21.000 C 12.698 21.000,13.043 20.616,12.989 19.900 C 12.963 19.563,12.859 19.327,12.678 19.199 C 12.414 19.010,11.957 18.950,11.614 19.057 M15.614 19.057 C 15.221 19.180,15.039 19.435,15.009 19.906 C 14.962 20.621,15.306 21.000,16.000 21.000 C 16.698 21.000,17.043 20.616,16.989 19.900 C 16.963 19.563,16.859 19.327,16.678 19.199 C 16.414 19.010,15.957 18.950,15.614 19.057 " stroke="none" fill="black" fill-rule="evenodd"></path></svg>