<svg xmlns="http://www.w3.org/2000/svg" width="24" height="24" viewBox="0 0 24 24" fill="none" stroke="currentColor" stroke-width="2" stroke-linecap="round" stroke-linejoin="round" class="icon icon-tabler icons-tabler-outline icon-tabler-world-pause"><path d="M11.113 2.022 C 11.040 2.048,10.863 2.080,10.720 2.095 C 10.071 2.163,9.121 2.399,8.451 2.657 C 4.975 3.999,2.587 7.034,2.075 10.760 C 1.993 11.350,2.005 12.796,2.095 13.380 C 2.571 16.456,4.257 18.996,6.873 20.577 C 7.989 21.251,9.148 21.661,10.680 21.925 C 11.221 22.018,12.057 22.031,12.864 21.959 C 13.725 21.882,14.019 21.631,14.009 20.980 C 14.002 20.499,13.845 20.188,13.535 20.038 C 13.359 19.952,13.321 19.950,12.704 19.976 L 12.057 20.003 11.732 19.371 C 11.209 18.355,10.912 17.624,10.597 16.580 C 10.511 16.294,10.440 16.047,10.440 16.030 C 10.440 16.014,11.175 16.000,12.073 16.000 C 13.893 16.000,14.000 15.988,14.229 15.751 C 14.418 15.556,14.486 15.355,14.486 14.997 C 14.486 14.776,14.464 14.635,14.409 14.511 L 14.331 14.336 14.491 14.415 C 14.690 14.513,15.207 14.550,15.416 14.481 C 15.743 14.373,15.933 14.104,16.000 13.652 C 16.071 13.177,16.095 11.632,16.044 10.860 C 16.017 10.464,15.987 10.109,15.975 10.070 C 15.956 10.004,16.064 10.000,17.854 10.000 L 19.754 10.000 19.814 10.270 C 19.965 10.946,20.008 11.691,19.964 12.880 C 19.942 13.486,20.064 13.731,20.475 13.904 C 20.676 13.989,21.104 14.019,21.312 13.962 C 21.547 13.899,21.778 13.681,21.859 13.448 C 22.034 12.940,22.037 11.407,21.864 10.400 C 21.608 8.912,21.117 7.666,20.307 6.450 C 18.766 4.137,16.281 2.545,13.580 2.141 C 13.338 2.105,13.059 2.056,12.960 2.032 C 12.711 1.972,11.283 1.964,11.113 2.022 M12.291 4.670 C 12.826 5.710,13.325 7.002,13.535 7.890 L 13.562 8.000 12.001 8.000 C 11.142 8.000,10.440 7.987,10.440 7.970 C 10.440 7.909,10.759 6.887,10.896 6.508 C 11.169 5.754,11.918 4.160,12.000 4.160 C 12.016 4.160,12.147 4.389,12.291 4.670 M9.356 4.964 C 9.079 5.618,8.615 6.993,8.480 7.560 C 8.430 7.769,8.377 7.954,8.362 7.970 C 8.347 7.987,7.601 7.996,6.704 7.990 L 5.074 7.980 5.282 7.660 C 6.057 6.470,7.197 5.452,8.449 4.832 C 8.810 4.653,9.564 4.353,9.590 4.378 C 9.596 4.383,9.491 4.647,9.356 4.964 M15.389 4.762 C 16.078 5.085,16.777 5.540,17.321 6.019 C 17.809 6.449,18.492 7.274,18.837 7.850 L 18.927 8.001 17.277 7.990 L 15.627 7.980 15.495 7.466 C 15.309 6.745,14.933 5.642,14.645 4.969 C 14.510 4.656,14.400 4.391,14.400 4.380 C 14.400 4.346,14.978 4.568,15.389 4.762 M8.021 10.090 C 7.981 10.271,7.920 11.422,7.920 12.000 C 7.920 12.578,7.981 13.729,8.021 13.910 L 8.042 14.000 6.145 14.000 L 4.248 14.000 4.204 13.810 C 3.957 12.739,3.944 11.603,4.164 10.445 L 4.249 10.000 6.145 10.000 L 8.042 10.000 8.021 10.090 M13.973 10.170 C 14.057 10.768,14.091 12.010,14.047 12.832 C 14.001 13.674,14.012 13.879,14.113 14.068 L 14.159 14.154 13.941 14.077 C 13.737 14.005,13.595 14.000,11.886 14.000 L 10.050 14.000 10.027 13.810 C 9.938 13.082,9.907 11.960,9.954 11.190 C 9.982 10.745,10.014 10.295,10.027 10.190 L 10.050 10.000 12.000 10.000 L 13.949 10.000 13.973 10.170 M8.507 16.540 C 8.687 17.240,9.060 18.333,9.357 19.036 C 9.490 19.352,9.600 19.617,9.600 19.625 C 9.600 19.656,8.988 19.418,8.608 19.238 C 7.169 18.557,5.940 17.459,5.176 16.170 L 5.075 15.999 6.724 16.010 L 8.373 16.020 8.507 16.540 M16.614 16.057 C 16.377 16.131,16.212 16.261,16.109 16.453 L 16.020 16.620 16.009 19.412 C 16.002 21.226,16.012 22.257,16.039 22.356 C 16.144 22.747,16.433 22.961,16.896 22.991 C 17.381 23.022,17.699 22.882,17.880 22.558 L 17.980 22.380 17.980 19.500 L 17.980 16.620 17.891 16.453 C 17.842 16.362,17.746 16.247,17.678 16.199 C 17.414 16.010,16.957 15.950,16.614 16.057 M20.614 16.057 C 20.377 16.131,20.212 16.261,20.109 16.453 L 20.020 16.620 20.009 19.412 C 20.002 21.226,20.012 22.257,20.039 22.356 C 20.144 22.747,20.433 22.961,20.896 22.991 C 21.381 23.022,21.699 22.882,21.880 22.558 L 21.980 22.380 21.980 19.500 L 21.980 16.620 21.891 16.453 C 21.842 16.362,21.746 16.247,21.678 16.199 C 21.414 16.010,20.957 15.950,20.614 16.057 " stroke="none" fill="black" fill-rule="evenodd"></path></svg>