<svg xmlns="http://www.w3.org/2000/svg" width="24" height="24" viewBox="0 0 24 24" fill="none" stroke="currentColor" stroke-width="2" stroke-linecap="round" stroke-linejoin="round" class="icon icon-tabler icons-tabler-outline icon-tabler-flag-up"><path d="M8.020 2.603 C 7.232 2.664,6.510 2.868,5.788 3.234 C 5.074 3.596,4.332 4.170,4.126 4.520 L 4.020 4.700 4.010 12.954 C 4.003 18.404,4.013 21.259,4.040 21.358 C 4.144 21.747,4.434 21.962,4.896 21.991 C 5.381 22.022,5.699 21.882,5.880 21.558 L 5.980 21.380 5.991 17.914 L 6.002 14.448 6.145 14.339 C 6.224 14.279,6.453 14.143,6.654 14.037 C 7.790 13.440,9.185 13.436,10.329 14.027 C 10.707 14.222,10.939 14.393,11.505 14.895 C 12.147 15.464,12.854 15.876,13.600 16.113 C 14.102 16.273,14.238 16.292,14.465 16.235 C 14.839 16.140,15.100 15.748,15.149 15.204 C 15.191 14.739,14.951 14.456,14.347 14.257 C 13.690 14.040,13.255 13.778,12.620 13.215 C 12.083 12.739,11.748 12.506,11.207 12.232 C 10.474 11.860,9.772 11.665,8.944 11.604 C 8.005 11.535,6.956 11.704,6.150 12.056 L 6.000 12.121 6.000 8.785 L 6.000 5.449 6.144 5.340 C 6.224 5.279,6.453 5.143,6.654 5.037 C 7.792 4.439,9.185 4.436,10.332 5.028 C 10.723 5.230,10.913 5.370,11.474 5.868 C 12.961 7.188,14.901 7.703,16.799 7.280 C 17.122 7.208,17.772 6.998,17.930 6.914 C 17.996 6.879,18.000 7.017,18.000 9.549 C 18.000 11.215,18.016 12.274,18.041 12.365 C 18.148 12.750,18.437 12.962,18.896 12.991 C 19.381 13.022,19.699 12.882,19.880 12.558 L 19.980 12.380 19.980 8.540 L 19.980 4.700 19.871 4.514 C 19.677 4.185,19.324 3.960,19.000 3.960 C 18.751 3.960,18.577 4.045,18.264 4.319 C 17.878 4.658,17.638 4.826,17.300 4.993 C 16.682 5.298,16.178 5.416,15.500 5.416 C 14.822 5.416,14.318 5.298,13.700 4.993 C 13.332 4.811,13.113 4.652,12.593 4.191 C 12.133 3.783,11.801 3.545,11.360 3.308 C 10.331 2.754,9.192 2.514,8.020 2.603 M18.530 15.083 C 18.393 15.150,18.249 15.252,18.210 15.310 C 18.172 15.369,17.463 16.101,16.635 16.938 C 15.635 17.949,15.099 18.520,15.040 18.637 C 14.863 18.989,14.952 19.354,15.299 19.701 C 15.646 20.048,16.012 20.137,16.363 19.959 C 16.469 19.905,16.832 19.580,17.270 19.147 L 18.000 18.425 18.000 20.322 C 18.000 21.470,18.016 22.277,18.041 22.365 C 18.148 22.750,18.437 22.962,18.896 22.991 C 19.381 23.022,19.699 22.882,19.880 22.558 L 19.980 22.380 19.992 20.404 L 20.004 18.428 20.732 19.149 C 21.168 19.581,21.531 19.905,21.637 19.959 C 21.988 20.137,22.354 20.048,22.701 19.701 C 23.048 19.354,23.137 18.989,22.960 18.637 C 22.901 18.520,22.365 17.949,21.365 16.938 C 20.537 16.101,19.828 15.369,19.789 15.310 C 19.751 15.252,19.604 15.149,19.464 15.082 C 19.120 14.918,18.871 14.918,18.530 15.083 " stroke="none" fill="black" fill-rule="evenodd"></path></svg>