<svg xmlns="http://www.w3.org/2000/svg" width="24" height="24" viewBox="0 0 24 24" fill="none" stroke="currentColor" stroke-width="2" stroke-linecap="round" stroke-linejoin="round" class="icon icon-tabler icons-tabler-outline icon-tabler-time-duration-0"><path d="M11.614 2.057 C 11.221 2.180,11.039 2.435,11.009 2.906 C 10.962 3.621,11.306 4.000,12.000 4.000 C 12.698 4.000,13.043 3.616,12.989 2.900 C 12.963 2.563,12.859 2.327,12.678 2.199 C 12.414 2.010,11.957 1.950,11.614 2.057 M7.080 3.266 C 6.695 3.398,6.509 3.704,6.509 4.207 C 6.509 4.628,6.641 4.910,6.913 5.070 C 7.083 5.170,7.136 5.180,7.500 5.180 C 7.864 5.180,7.917 5.170,8.087 5.070 C 8.361 4.909,8.490 4.629,8.488 4.203 C 8.487 3.844,8.403 3.607,8.215 3.434 C 7.976 3.214,7.455 3.137,7.080 3.266 M16.080 3.266 C 15.695 3.398,15.509 3.704,15.509 4.207 C 15.509 4.628,15.641 4.910,15.913 5.070 C 16.083 5.170,16.136 5.180,16.500 5.180 C 16.864 5.180,16.917 5.170,17.087 5.070 C 17.361 4.909,17.490 4.629,17.488 4.203 C 17.487 3.844,17.403 3.607,17.215 3.434 C 16.976 3.214,16.455 3.137,16.080 3.266 M3.745 6.579 C 3.371 6.712,3.173 7.090,3.209 7.603 C 3.247 8.127,3.476 8.399,3.954 8.488 C 4.454 8.581,4.914 8.403,5.084 8.051 C 5.202 7.807,5.229 7.400,5.145 7.112 C 5.070 6.852,4.855 6.630,4.613 6.563 C 4.400 6.504,3.931 6.513,3.745 6.579 M19.345 6.579 C 18.971 6.712,18.773 7.090,18.809 7.603 C 18.847 8.127,19.076 8.399,19.554 8.488 C 20.054 8.581,20.514 8.403,20.684 8.051 C 20.802 7.807,20.829 7.400,20.745 7.112 C 20.670 6.852,20.455 6.630,20.213 6.563 C 20.000 6.504,19.531 6.513,19.345 6.579 M11.499 8.040 C 10.363 8.246,9.461 9.048,9.114 10.160 C 9.022 10.453,9.020 10.497,9.020 12.000 C 9.020 13.503,9.022 13.547,9.114 13.840 C 9.422 14.827,10.174 15.579,11.160 15.886 C 11.412 15.964,11.547 15.979,12.000 15.979 C 12.453 15.979,12.588 15.964,12.840 15.886 C 13.826 15.579,14.578 14.827,14.886 13.840 C 14.978 13.547,14.980 13.503,14.980 12.000 C 14.980 10.497,14.978 10.453,14.886 10.160 C 14.580 9.178,13.810 8.407,12.861 8.129 C 12.500 8.023,11.832 7.980,11.499 8.040 M12.310 10.061 C 12.589 10.144,12.856 10.411,12.939 10.690 C 13.023 10.972,13.028 13.015,12.945 13.290 C 12.872 13.533,12.707 13.740,12.484 13.872 C 12.328 13.963,12.254 13.980,12.000 13.980 C 11.746 13.980,11.672 13.963,11.516 13.872 C 11.415 13.813,11.284 13.700,11.225 13.623 C 11.014 13.347,11.000 13.245,11.000 12.022 C 11.000 10.695,11.019 10.587,11.304 10.303 C 11.583 10.024,11.916 9.944,12.310 10.061 M2.614 11.057 C 2.221 11.180,2.039 11.435,2.009 11.906 C 1.962 12.621,2.306 13.000,3.000 13.000 C 3.698 13.000,4.043 12.616,3.989 11.900 C 3.963 11.563,3.859 11.327,3.678 11.199 C 3.414 11.010,2.957 10.950,2.614 11.057 M20.614 11.057 C 20.221 11.180,20.039 11.435,20.009 11.906 C 19.962 12.621,20.306 13.000,21.000 13.000 C 21.698 13.000,22.043 12.616,21.989 11.900 C 21.963 11.563,21.859 11.327,21.678 11.199 C 21.414 11.010,20.957 10.950,20.614 11.057 M3.745 15.579 C 3.371 15.712,3.173 16.090,3.209 16.603 C 3.247 17.127,3.476 17.399,3.954 17.488 C 4.454 17.581,4.914 17.403,5.084 17.051 C 5.202 16.807,5.229 16.400,5.145 16.112 C 5.070 15.852,4.855 15.630,4.613 15.563 C 4.400 15.504,3.931 15.513,3.745 15.579 M19.345 15.579 C 18.971 15.712,18.773 16.090,18.809 16.603 C 18.847 17.127,19.076 17.399,19.554 17.488 C 20.054 17.581,20.514 17.403,20.684 17.051 C 20.802 16.807,20.829 16.400,20.745 16.112 C 20.670 15.852,20.455 15.630,20.213 15.563 C 20.000 15.504,19.531 15.513,19.345 15.579 M7.080 18.866 C 6.695 18.998,6.509 19.304,6.509 19.807 C 6.509 20.228,6.641 20.510,6.913 20.670 C 7.083 20.770,7.136 20.780,7.500 20.780 C 7.864 20.780,7.917 20.770,8.087 20.670 C 8.361 20.509,8.490 20.229,8.488 19.803 C 8.487 19.444,8.403 19.207,8.215 19.034 C 7.976 18.814,7.455 18.737,7.080 18.866 M16.080 18.866 C 15.695 18.998,15.509 19.304,15.509 19.807 C 15.509 20.228,15.641 20.510,15.913 20.670 C 16.083 20.770,16.136 20.780,16.500 20.780 C 16.864 20.780,16.917 20.770,17.087 20.670 C 17.361 20.509,17.490 20.229,17.488 19.803 C 17.487 19.444,17.403 19.207,17.215 19.034 C 16.976 18.814,16.455 18.737,16.080 18.866 M11.614 20.057 C 11.221 20.180,11.039 20.435,11.009 20.906 C 10.962 21.621,11.306 22.000,12.000 22.000 C 12.698 22.000,13.043 21.616,12.989 20.900 C 12.963 20.563,12.859 20.327,12.678 20.199 C 12.414 20.010,11.957 19.950,11.614 20.057 " stroke="none" fill="black" fill-rule="evenodd"></path></svg>