<svg xmlns="http://www.w3.org/2000/svg" width="24" height="24" viewBox="0 0 24 24" fill="none" stroke="currentColor" stroke-width="2" stroke-linecap="round" stroke-linejoin="round" class="icon icon-tabler icons-tabler-outline icon-tabler-lollipop"><path d="M13.160 2.045 C 11.577 2.225,10.083 2.857,8.900 3.847 C 7.985 4.612,7.307 5.477,6.800 6.529 C 5.720 8.765,5.735 11.323,6.842 13.553 C 6.991 13.854,7.239 14.280,7.392 14.500 L 7.671 14.900 4.899 17.680 C 2.958 19.627,2.102 20.513,2.039 20.637 C 1.863 20.990,1.952 21.354,2.299 21.701 C 2.646 22.048,3.010 22.137,3.363 21.961 C 3.487 21.898,4.373 21.042,6.320 19.101 L 9.100 16.329 9.500 16.608 C 10.283 17.154,11.419 17.637,12.380 17.833 C 14.671 18.302,17.026 17.757,18.900 16.326 C 19.239 16.067,19.925 15.394,20.211 15.040 C 22.163 12.625,22.547 9.317,21.200 6.529 C 20.693 5.477,20.015 4.612,19.100 3.847 C 18.123 3.029,16.892 2.435,15.647 2.179 C 14.833 2.011,13.896 1.961,13.160 2.045 M14.564 4.039 C 15.733 4.153,16.710 4.537,17.660 5.258 L 17.980 5.500 17.380 5.525 C 17.046 5.538,16.656 5.579,16.500 5.616 C 14.936 5.991,13.710 7.118,13.219 8.630 C 13.181 8.745,13.133 8.840,13.111 8.840 C 12.978 8.840,12.541 8.544,12.255 8.261 C 11.737 7.749,11.521 7.230,11.521 6.500 C 11.521 5.830,11.729 5.287,12.163 4.823 C 12.805 4.137,13.439 3.930,14.564 4.039 M9.510 6.270 C 9.483 6.583,9.547 7.235,9.641 7.604 C 10.025 9.106,11.148 10.300,12.630 10.781 C 12.745 10.819,12.840 10.867,12.840 10.889 C 12.840 11.026,12.543 11.459,12.241 11.761 C 11.724 12.278,11.218 12.490,10.500 12.490 C 9.782 12.490,9.276 12.278,8.759 11.761 C 8.123 11.124,7.935 10.539,8.034 9.498 C 8.129 8.498,8.376 7.731,8.872 6.900 C 9.028 6.638,9.470 6.040,9.507 6.040 C 9.519 6.040,9.521 6.144,9.510 6.270 M18.116 7.581 C 18.842 7.753,19.575 8.402,19.839 9.107 C 19.980 9.485,20.018 9.885,19.966 10.467 C 19.873 11.501,19.635 12.250,19.128 13.100 C 18.972 13.362,18.530 13.960,18.493 13.960 C 18.481 13.960,18.479 13.857,18.490 13.730 C 18.517 13.417,18.453 12.765,18.359 12.396 C 17.982 10.921,16.867 9.718,15.430 9.239 C 15.282 9.190,15.160 9.132,15.160 9.110 C 15.160 8.982,15.460 8.539,15.740 8.255 C 16.090 7.900,16.453 7.683,16.872 7.582 C 17.179 7.508,17.801 7.507,18.116 7.581 M15.174 11.290 C 15.321 11.367,15.550 11.549,15.742 11.740 C 16.264 12.259,16.479 12.771,16.479 13.500 C 16.479 13.698,16.452 13.975,16.419 14.116 C 16.233 14.904,15.539 15.638,14.740 15.891 C 14.500 15.967,14.375 15.979,13.860 15.976 C 12.926 15.971,12.147 15.776,11.264 15.328 C 10.879 15.133,10.040 14.562,10.040 14.495 C 10.040 14.481,10.144 14.479,10.270 14.490 C 10.583 14.517,11.235 14.453,11.604 14.359 C 13.106 13.975,14.300 12.852,14.781 11.370 C 14.819 11.255,14.867 11.160,14.889 11.160 C 14.911 11.160,15.039 11.218,15.174 11.290 " stroke="none" fill="black" fill-rule="evenodd"></path></svg>