<svg xmlns="http://www.w3.org/2000/svg" width="24" height="24" viewBox="0 0 24 24" fill="none" stroke="currentColor" stroke-width="2" stroke-linecap="round" stroke-linejoin="round" class="icon icon-tabler icons-tabler-outline icon-tabler-brand-nytimes"><path d="M5.942 2.042 C 5.180 2.161,4.511 2.523,3.938 3.127 C 3.312 3.785,3.002 4.577,3.001 5.520 C 3.000 6.444,3.348 7.275,4.024 7.961 L 4.321 8.263 4.010 8.881 C 3.838 9.222,3.629 9.689,3.545 9.920 C 2.902 11.688,2.830 13.674,3.346 15.452 C 3.845 17.175,4.750 18.597,6.101 19.779 C 7.394 20.911,8.943 21.631,10.680 21.906 C 11.316 22.006,12.724 22.007,13.320 21.907 C 14.319 21.739,15.087 21.497,15.941 21.082 C 17.738 20.208,19.196 18.752,20.083 16.945 C 20.376 16.349,20.703 15.417,20.745 15.061 C 20.798 14.613,20.594 14.278,20.173 14.121 C 19.669 13.932,19.292 13.984,19.026 14.278 C 18.918 14.398,18.847 14.556,18.703 15.000 C 18.134 16.749,17.125 18.059,15.646 18.969 C 14.946 19.400,13.909 19.793,13.185 19.901 L 13.001 19.929 12.991 14.774 L 12.980 9.620 12.890 9.451 C 12.714 9.122,12.284 8.948,11.848 9.029 C 11.668 9.063,10.934 9.438,8.351 10.816 C 6.552 11.775,5.069 12.560,5.055 12.560 C 5.012 12.560,5.075 11.971,5.161 11.560 C 5.273 11.027,5.455 10.494,5.701 9.980 C 5.915 9.534,6.328 8.868,6.457 8.762 C 6.496 8.729,6.597 8.602,6.681 8.479 C 7.033 7.960,8.050 7.155,8.872 6.743 C 9.444 6.456,10.491 6.120,10.813 6.120 C 10.895 6.120,12.053 6.626,14.080 7.548 C 17.546 9.125,17.369 9.061,17.991 8.964 C 18.774 8.843,19.394 8.527,19.960 7.960 C 20.644 7.277,20.999 6.434,20.999 5.500 C 20.999 3.928,19.915 2.528,18.378 2.115 C 17.965 2.005,17.213 1.990,17.000 2.089 C 16.673 2.240,16.514 2.536,16.512 2.997 C 16.509 3.682,16.796 3.952,17.599 4.018 C 18.159 4.064,18.638 4.396,18.865 4.896 C 18.960 5.104,18.976 5.192,18.976 5.500 C 18.977 5.809,18.961 5.894,18.866 6.100 C 18.678 6.509,18.296 6.835,17.864 6.954 C 17.711 6.996,17.658 6.974,14.753 5.653 C 13.127 4.914,11.752 4.274,11.697 4.231 C 11.642 4.187,11.494 4.120,11.368 4.082 C 11.243 4.043,10.160 3.566,8.962 3.022 C 6.807 2.042,6.781 2.031,6.482 2.018 C 6.316 2.011,6.073 2.021,5.942 2.042 M7.532 4.570 L 8.164 4.856 7.972 4.953 C 7.212 5.334,6.017 6.197,5.707 6.588 C 5.667 6.639,5.618 6.680,5.599 6.680 C 5.518 6.680,5.260 6.362,5.148 6.124 C 4.808 5.405,5.102 4.534,5.805 4.178 C 6.155 4.000,6.261 3.996,6.600 4.149 C 6.765 4.224,7.185 4.413,7.532 4.570 M11.000 15.804 L 11.000 19.929 10.850 19.902 C 10.768 19.887,10.542 19.839,10.350 19.794 L 10.000 19.713 10.010 15.953 L 10.020 12.192 10.500 11.937 C 10.764 11.796,10.985 11.681,10.990 11.681 C 10.995 11.680,11.000 13.536,11.000 15.804 M15.660 12.037 C 15.215 12.146,15.000 12.459,15.000 12.998 C 15.000 13.654,15.342 14.000,15.991 14.000 C 16.428 13.999,16.712 13.858,16.880 13.558 C 16.967 13.402,16.980 13.332,16.979 13.000 C 16.978 12.567,16.898 12.355,16.678 12.199 C 16.435 12.025,15.995 11.956,15.660 12.037 M7.991 17.363 L 7.980 18.727 7.780 18.576 C 6.917 17.925,6.181 17.021,5.700 16.020 C 5.498 15.601,5.204 14.782,5.242 14.746 C 5.252 14.737,5.872 14.403,6.620 14.005 L 7.980 13.281 7.991 14.640 C 7.996 15.388,7.996 16.613,7.991 17.363 " stroke="none" fill="black" fill-rule="evenodd"></path></svg>