<svg xmlns="http://www.w3.org/2000/svg" width="24" height="24" viewBox="0 0 24 24" fill="none" stroke="currentColor" stroke-width="2" stroke-linecap="round" stroke-linejoin="round" class="icon icon-tabler icons-tabler-outline icon-tabler-terminal"><path d="M4.626 6.045 C 4.420 6.154,4.146 6.433,4.038 6.644 C 3.924 6.868,3.924 7.132,4.040 7.363 C 4.101 7.486,4.811 8.224,6.353 9.770 L 8.578 12.000 6.353 14.230 C 4.811 15.776,4.101 16.514,4.040 16.637 C 3.863 16.990,3.952 17.354,4.299 17.701 C 4.645 18.047,5.010 18.137,5.363 17.961 C 5.613 17.836,10.836 12.613,10.961 12.363 C 11.076 12.132,11.076 11.868,10.961 11.637 C 10.840 11.395,5.613 6.164,5.372 6.044 C 5.152 5.934,4.834 5.935,4.626 6.045 M11.614 18.057 C 11.377 18.131,11.212 18.261,11.109 18.453 C 11.035 18.592,11.020 18.684,11.020 19.000 C 11.020 19.331,11.033 19.403,11.120 19.558 C 11.230 19.755,11.414 19.898,11.635 19.959 C 11.833 20.014,19.167 20.014,19.365 19.959 C 19.586 19.898,19.770 19.755,19.880 19.558 C 19.967 19.402,19.980 19.332,19.979 19.000 C 19.978 18.567,19.898 18.355,19.678 18.199 C 19.395 17.997,19.449 18.000,15.484 18.003 C 12.561 18.005,11.745 18.016,11.614 18.057 " stroke="none" fill="black" fill-rule="evenodd"></path></svg>