<svg xmlns="http://www.w3.org/2000/svg" width="24" height="24" viewBox="0 0 24 24" fill="none" stroke="currentColor" stroke-width="2" stroke-linecap="round" stroke-linejoin="round" class="icon icon-tabler icons-tabler-outline icon-tabler-hotel-service"><path d="M11.842 2.043 C 9.232 2.295,6.995 4.161,6.261 6.700 C 6.083 7.316,6.025 7.731,6.023 8.400 C 6.022 8.978,6.029 9.040,6.132 9.320 C 6.397 10.041,6.963 10.608,7.680 10.868 C 7.948 10.965,8.035 10.976,8.500 10.976 C 8.965 10.976,9.052 10.965,9.320 10.868 C 9.667 10.742,10.084 10.471,10.313 10.223 C 10.746 9.754,10.937 9.294,11.000 8.575 C 11.031 8.223,11.067 8.050,11.144 7.879 C 11.275 7.587,11.590 7.276,11.900 7.134 C 12.106 7.039,12.192 7.023,12.500 7.023 C 12.808 7.023,12.894 7.039,13.100 7.134 C 13.775 7.444,14.129 8.193,13.943 8.920 C 13.854 9.272,13.657 9.554,13.309 9.830 C 13.149 9.956,11.924 10.744,10.587 11.580 C 9.250 12.416,8.036 13.190,7.888 13.300 C 6.862 14.067,6.198 15.182,6.039 16.406 C 6.010 16.627,5.999 17.259,6.009 18.166 C 6.024 19.510,6.029 19.594,6.116 19.860 C 6.438 20.843,7.183 21.581,8.160 21.886 L 8.460 21.980 12.500 21.980 L 16.540 21.980 16.840 21.886 C 17.827 21.578,18.578 20.827,18.886 19.840 L 18.980 19.540 18.980 13.660 C 18.980 7.201,18.993 7.577,18.739 6.700 C 18.217 4.897,16.916 3.384,15.220 2.609 C 14.136 2.113,13.033 1.929,11.842 2.043 M13.060 4.044 C 15.097 4.294,16.731 5.941,16.957 7.973 C 16.985 8.227,17.000 10.183,17.000 13.732 C 17.000 18.171,16.990 19.139,16.945 19.290 C 16.872 19.533,16.707 19.740,16.484 19.872 L 16.300 19.980 12.500 19.980 L 8.700 19.980 8.516 19.872 C 8.303 19.747,8.141 19.550,8.058 19.316 C 7.977 19.086,7.977 16.963,8.058 16.509 C 8.162 15.927,8.493 15.386,8.993 14.983 C 9.140 14.865,10.331 14.098,11.640 13.280 C 12.949 12.462,14.137 11.709,14.280 11.607 C 14.633 11.356,15.172 10.833,15.384 10.536 C 15.751 10.022,15.949 9.427,15.987 8.720 C 16.079 7.037,15.007 5.557,13.378 5.114 C 12.960 5.001,12.117 4.990,11.707 5.092 C 10.197 5.469,9.116 6.739,9.013 8.258 C 8.985 8.671,8.930 8.811,8.748 8.922 C 8.498 9.074,8.182 8.973,8.052 8.699 C 7.991 8.573,7.989 8.508,8.031 8.086 C 8.115 7.246,8.402 6.487,8.872 5.857 C 9.875 4.512,11.420 3.843,13.060 4.044 " stroke="none" fill="black" fill-rule="evenodd"></path></svg>