<svg xmlns="http://www.w3.org/2000/svg" width="24" height="24" viewBox="0 0 24 24" fill="none" stroke="currentColor" stroke-width="2" stroke-linecap="round" stroke-linejoin="round" class="icon icon-tabler icons-tabler-outline icon-tabler-ruler-measure"><path d="M2.614 2.057 C 2.377 2.131,2.212 2.261,2.109 2.453 C 2.020 2.619,2.020 2.629,2.009 4.911 C 2.001 6.392,2.012 7.256,2.039 7.355 C 2.144 7.747,2.433 7.961,2.896 7.991 C 3.381 8.022,3.699 7.882,3.880 7.558 C 3.974 7.391,3.981 7.338,3.994 6.690 L 4.008 6.000 12.004 6.000 L 20.000 6.000 20.000 6.610 C 20.000 6.946,20.019 7.285,20.041 7.365 C 20.148 7.750,20.437 7.962,20.896 7.991 C 21.381 8.022,21.699 7.882,21.880 7.558 L 21.980 7.380 21.980 5.000 L 21.980 2.620 21.889 2.450 C 21.724 2.140,21.329 1.970,20.874 2.011 C 20.439 2.051,20.141 2.274,20.041 2.635 C 20.019 2.715,20.000 3.054,20.000 3.390 L 20.000 4.000 12.004 4.000 L 4.008 4.000 3.993 3.310 C 3.976 2.541,3.930 2.378,3.678 2.199 C 3.414 2.010,2.957 1.950,2.614 2.057 M3.631 11.062 C 3.075 11.197,2.468 11.676,2.230 12.167 C 2.000 12.644,2.001 12.616,2.001 16.082 C 2.000 19.539,1.996 19.479,2.225 19.930 C 2.361 20.199,2.801 20.639,3.070 20.775 C 3.542 21.014,2.989 21.000,11.940 21.000 C 20.908 21.000,20.337 21.015,20.838 20.772 C 21.137 20.627,21.597 20.165,21.755 19.850 C 22.002 19.360,21.999 19.405,21.999 16.000 C 21.999 13.407,21.989 12.859,21.940 12.650 C 21.758 11.878,21.122 11.242,20.350 11.060 C 19.986 10.974,3.986 10.976,3.631 11.062 M5.000 14.110 C 5.000 14.730,5.018 15.284,5.041 15.365 C 5.148 15.750,5.437 15.962,5.896 15.991 C 6.381 16.022,6.699 15.882,6.880 15.558 C 6.979 15.381,6.980 15.374,6.993 14.190 L 7.005 13.000 7.503 13.000 L 8.000 13.000 8.000 13.610 C 8.000 13.945,8.019 14.285,8.041 14.365 C 8.148 14.750,8.437 14.962,8.896 14.991 C 9.381 15.022,9.699 14.882,9.880 14.558 C 9.974 14.391,9.981 14.338,9.994 13.690 L 10.008 13.000 10.504 13.000 L 11.000 13.000 11.000 14.110 C 11.000 14.730,11.018 15.284,11.041 15.365 C 11.148 15.750,11.437 15.962,11.896 15.991 C 12.381 16.022,12.699 15.882,12.880 15.558 C 12.979 15.381,12.980 15.374,12.993 14.190 L 13.005 13.000 13.503 13.000 L 14.000 13.000 14.000 13.610 C 14.000 13.945,14.019 14.285,14.041 14.365 C 14.148 14.750,14.437 14.962,14.896 14.991 C 15.381 15.022,15.699 14.882,15.880 14.558 C 15.974 14.391,15.981 14.338,15.994 13.690 L 16.008 13.000 16.504 13.000 L 17.000 13.000 17.000 14.110 C 17.000 14.730,17.018 15.284,17.041 15.365 C 17.148 15.750,17.437 15.962,17.896 15.991 C 18.381 16.022,18.699 15.882,18.880 15.558 C 18.979 15.381,18.980 15.374,18.993 14.190 L 19.005 13.000 19.478 13.000 C 19.873 13.000,19.955 13.011,19.976 13.063 C 20.007 13.146,20.007 18.854,19.976 18.937 C 19.954 18.994,19.212 19.000,11.976 19.000 L 4.000 19.000 4.000 16.063 C 4.000 14.448,4.011 13.098,4.024 13.063 C 4.045 13.010,4.127 13.000,4.524 13.000 L 5.000 13.000 5.000 14.110 " stroke="none" fill="black" fill-rule="evenodd"></path></svg>