<svg xmlns="http://www.w3.org/2000/svg" width="24" height="24" viewBox="0 0 24 24" fill="none" stroke="currentColor" stroke-width="2" stroke-linecap="round" stroke-linejoin="round" class="icon icon-tabler icons-tabler-outline icon-tabler-search-off"><path d="M2.626 2.045 C 2.257 2.239,1.951 2.673,1.951 3.000 C 1.951 3.311,2.076 3.486,2.904 4.321 L 3.677 5.101 3.585 5.221 C 2.586 6.512,2.000 8.281,2.000 10.000 C 2.000 14.071,5.008 17.453,9.079 17.958 C 9.569 18.019,10.482 18.010,11.028 17.939 C 12.225 17.783,13.430 17.331,14.432 16.661 C 14.658 16.510,14.854 16.370,14.867 16.349 C 14.880 16.328,16.143 17.562,17.675 19.092 C 19.630 21.043,20.513 21.898,20.637 21.961 C 20.990 22.137,21.354 22.048,21.701 21.701 C 22.047 21.355,22.136 20.990,21.961 20.637 C 21.839 20.392,3.616 2.165,3.372 2.044 C 3.152 1.934,2.834 1.935,2.626 2.045 M9.031 2.061 C 8.372 2.140,7.552 2.352,7.029 2.577 C 6.815 2.669,6.572 2.901,6.518 3.065 C 6.406 3.406,6.529 3.916,6.795 4.211 C 7.069 4.516,7.367 4.554,7.942 4.359 C 8.928 4.025,9.810 3.931,10.761 4.058 C 12.145 4.242,13.266 4.792,14.237 5.763 C 15.040 6.566,15.556 7.479,15.818 8.558 C 16.103 9.736,16.044 10.868,15.637 12.058 C 15.385 12.792,15.534 13.194,16.146 13.434 C 16.830 13.702,17.244 13.490,17.519 12.730 C 18.141 11.014,18.163 9.204,17.583 7.460 C 17.186 6.266,16.647 5.381,15.761 4.465 C 15.037 3.717,14.454 3.289,13.541 2.836 C 12.146 2.143,10.577 1.873,9.031 2.061 M9.295 10.715 C 11.619 13.039,13.439 14.889,13.424 14.913 C 13.374 14.994,12.739 15.353,12.360 15.514 C 9.559 16.704,6.337 15.639,4.814 13.020 C 3.917 11.478,3.756 9.555,4.383 7.887 C 4.550 7.444,5.036 6.560,5.113 6.560 C 5.128 6.560,7.010 8.430,9.295 10.715 " stroke="none" fill="black" fill-rule="evenodd"></path></svg>