<svg xmlns="http://www.w3.org/2000/svg" width="24" height="24" viewBox="0 0 24 24" fill="none" stroke="currentColor" stroke-width="2" stroke-linecap="round" stroke-linejoin="round" class="icon icon-tabler icons-tabler-outline icon-tabler-diamond-off"><path d="M2.626 2.045 C 2.257 2.239,1.951 2.673,1.951 3.000 C 1.951 3.329,2.061 3.472,3.244 4.661 L 4.358 5.781 3.204 7.707 C 2.409 9.033,2.035 9.695,2.002 9.832 C 1.947 10.062,1.992 10.294,2.134 10.502 C 2.234 10.649,10.531 19.936,10.788 20.190 C 11.149 20.545,11.508 20.694,12.000 20.694 C 12.470 20.694,12.811 20.560,13.167 20.235 C 13.248 20.161,13.867 19.479,14.542 18.720 C 15.218 17.961,15.786 17.323,15.806 17.301 C 15.828 17.278,16.732 18.151,18.151 19.567 C 19.755 21.168,20.514 21.899,20.637 21.960 C 20.990 22.137,21.354 22.048,21.701 21.701 C 22.047 21.355,22.136 20.990,21.961 20.637 C 21.839 20.392,3.616 2.165,3.372 2.044 C 3.152 1.934,2.834 1.935,2.626 2.045 M8.614 4.057 C 8.377 4.131,8.212 4.261,8.109 4.453 C 8.035 4.592,8.020 4.684,8.020 5.000 C 8.020 5.331,8.033 5.403,8.120 5.558 C 8.230 5.755,8.414 5.898,8.635 5.959 C 8.728 5.985,10.331 6.000,13.104 6.000 L 17.429 6.000 18.584 7.927 C 19.220 8.987,19.740 9.867,19.740 9.881 C 19.740 9.896,19.092 10.631,18.300 11.515 C 17.484 12.425,16.812 13.210,16.750 13.325 C 16.549 13.697,16.619 14.025,16.973 14.377 C 17.445 14.846,17.893 14.872,18.333 14.454 C 18.663 14.141,21.786 10.622,21.888 10.449 C 22.028 10.210,22.056 10.024,21.987 9.796 C 21.912 9.548,18.859 4.461,18.672 4.273 C 18.387 3.986,18.651 4.000,13.443 4.003 C 9.733 4.005,8.746 4.016,8.614 4.057 M7.227 9.144 C 6.926 9.668,6.902 9.961,7.132 10.299 C 7.285 10.525,9.390 12.816,9.528 12.908 C 9.929 13.175,10.445 13.041,10.831 12.569 L 10.974 12.394 12.687 14.107 C 13.629 15.049,14.400 15.833,14.400 15.849 C 14.400 15.892,12.039 18.520,12.000 18.520 C 11.981 18.520,10.295 16.652,8.253 14.370 C 6.211 12.088,4.472 10.144,4.387 10.052 L 4.233 9.884 5.027 8.562 L 5.820 7.240 6.614 8.034 L 7.408 8.828 7.227 9.144 " stroke="none" fill="black" fill-rule="evenodd"></path></svg>