<svg xmlns="http://www.w3.org/2000/svg" width="24" height="24" viewBox="0 0 24 24" fill="none" stroke="currentColor" stroke-width="2" stroke-linecap="round" stroke-linejoin="round" class="icon icon-tabler icons-tabler-outline icon-tabler-math-x-divide-y-2"><path d="M20.620 2.046 C 20.380 2.169,2.155 20.404,2.039 20.637 C 1.864 20.990,1.953 21.355,2.299 21.701 C 2.645 22.047,3.010 22.136,3.363 21.961 C 3.616 21.835,21.835 3.616,21.961 3.363 C 22.136 3.010,22.047 2.645,21.701 2.299 C 21.362 1.959,20.968 1.867,20.620 2.046 M2.626 3.045 C 2.257 3.239,1.951 3.673,1.951 4.000 C 1.951 4.333,2.056 4.467,3.353 5.770 L 4.577 7.000 3.353 8.230 C 2.056 9.533,1.951 9.667,1.951 10.000 C 1.951 10.477,2.523 11.049,3.000 11.049 C 3.333 11.049,3.467 10.944,4.770 9.647 L 6.000 8.423 7.230 9.647 C 8.533 10.944,8.667 11.049,9.000 11.049 C 9.477 11.049,10.049 10.477,10.049 10.000 C 10.049 9.667,9.944 9.533,8.647 8.230 L 7.423 7.000 8.647 5.770 C 9.452 4.961,9.901 4.479,9.960 4.363 C 10.137 4.011,10.048 3.646,9.701 3.299 C 9.361 2.958,8.980 2.868,8.628 3.045 C 8.523 3.098,7.999 3.588,7.230 4.353 L 6.000 5.577 4.770 4.353 C 4.001 3.588,3.477 3.098,3.372 3.045 C 3.152 2.934,2.835 2.934,2.626 3.045 M14.652 13.058 C 14.402 13.174,14.111 13.433,14.024 13.618 C 13.939 13.796,13.944 14.102,14.035 14.302 C 14.076 14.391,14.725 15.387,15.477 16.516 C 16.230 17.644,16.837 18.590,16.827 18.617 C 16.816 18.645,16.526 19.105,16.183 19.641 C 15.487 20.725,15.395 20.933,15.476 21.236 C 15.537 21.466,15.638 21.603,15.876 21.777 C 16.277 22.071,16.664 22.121,16.969 21.919 C 17.070 21.852,17.196 21.740,17.249 21.669 C 17.449 21.404,21.889 14.468,21.962 14.307 C 22.055 14.102,22.062 13.798,21.976 13.618 C 21.889 13.433,21.598 13.174,21.348 13.058 C 20.961 12.877,20.602 12.950,20.317 13.267 C 20.242 13.351,19.703 14.162,19.120 15.070 C 18.537 15.977,18.049 16.720,18.036 16.720 C 18.023 16.720,17.519 15.978,16.916 15.071 C 16.313 14.164,15.758 13.353,15.683 13.268 C 15.400 12.951,15.040 12.877,14.652 13.058 " stroke="none" fill="black" fill-rule="evenodd"></path></svg>