<svg xmlns="http://www.w3.org/2000/svg" width="24" height="24" viewBox="0 0 24 24" fill="none" stroke="currentColor" stroke-width="2" stroke-linecap="round" stroke-linejoin="round" class="icon icon-tabler icons-tabler-outline icon-tabler-playstation-triangle"><path d="M11.080 2.045 C 9.507 2.184,7.883 2.751,6.540 3.630 C 5.905 4.045,5.499 4.378,4.919 4.958 C 2.953 6.926,1.919 9.544,2.013 12.320 C 2.084 14.439,2.752 16.328,4.033 18.040 C 4.430 18.570,5.305 19.464,5.800 19.847 C 7.242 20.961,8.787 21.624,10.600 21.907 C 11.247 22.008,12.753 22.008,13.400 21.907 C 15.638 21.557,17.504 20.620,19.062 19.062 C 20.620 17.504,21.557 15.638,21.907 13.400 C 22.008 12.753,22.008 11.247,21.907 10.600 C 21.624 8.786,20.959 7.238,19.847 5.800 C 19.510 5.365,18.639 4.494,18.200 4.154 C 16.133 2.555,13.646 1.818,11.080 2.045 M12.734 4.041 C 14.574 4.216,16.228 4.976,17.554 6.256 C 20.043 8.658,20.702 12.394,19.183 15.499 C 18.749 16.387,18.223 17.105,17.496 17.801 C 16.876 18.394,16.262 18.819,15.471 19.200 C 13.267 20.265,10.733 20.265,8.529 19.200 C 7.477 18.693,6.612 18.015,5.847 17.100 C 3.848 14.711,3.440 11.302,4.816 8.500 C 6.162 5.760,8.867 4.049,11.920 4.005 C 12.129 4.003,12.495 4.019,12.734 4.041 M11.684 6.045 C 11.560 6.094,11.400 6.200,11.308 6.295 C 11.081 6.528,6.541 14.613,6.477 14.897 C 6.391 15.281,6.580 15.625,7.006 15.861 L 7.220 15.980 11.920 15.992 C 15.340 16.001,16.678 15.992,16.833 15.959 C 17.090 15.904,17.302 15.730,17.409 15.489 C 17.504 15.274,17.512 14.838,17.425 14.634 C 17.333 14.419,12.890 6.528,12.755 6.340 C 12.496 5.980,12.116 5.875,11.684 6.045 M13.390 11.516 C 14.143 12.855,14.760 13.962,14.760 13.976 C 14.760 13.989,13.518 14.000,12.000 14.000 C 10.482 14.000,9.240 13.989,9.240 13.976 C 9.240 13.936,11.978 9.080,12.000 9.080 C 12.011 9.080,12.637 10.176,13.390 11.516 " stroke="none" fill="black" fill-rule="evenodd"></path></svg>