<svg xmlns="http://www.w3.org/2000/svg" width="24" height="24" viewBox="0 0 24 24" fill="none" stroke="currentColor" stroke-width="2" stroke-linecap="round" stroke-linejoin="round" class="icon icon-tabler icons-tabler-outline icon-tabler-droplet-check"><path d="M11.491 2.060 C 10.998 2.168,10.492 2.465,10.176 2.833 C 10.103 2.920,8.915 4.662,7.537 6.705 C 5.491 9.740,4.986 10.515,4.779 10.940 C 4.004 12.530,3.807 14.240,4.202 15.952 C 4.720 18.200,6.287 20.143,8.420 21.181 C 9.353 21.635,10.348 21.902,11.400 21.981 C 12.111 22.035,12.445 21.770,12.541 21.080 C 12.572 20.852,12.504 20.542,12.381 20.355 C 12.239 20.139,12.004 20.044,11.451 19.980 C 10.573 19.877,9.886 19.685,9.241 19.361 C 8.216 18.845,7.254 17.928,6.713 16.950 C 5.819 15.335,5.778 13.395,6.604 11.753 C 6.828 11.307,11.656 4.155,11.790 4.070 C 11.850 4.032,11.945 4.000,12.000 4.000 C 12.055 4.000,12.150 4.032,12.211 4.070 C 12.328 4.144,17.048 11.113,17.324 11.621 C 17.645 12.210,17.824 12.762,17.942 13.520 C 18.071 14.352,18.283 14.581,18.920 14.579 C 19.363 14.577,19.657 14.453,19.827 14.196 C 19.935 14.034,19.940 14.004,19.937 13.583 C 19.932 12.799,19.660 11.807,19.203 10.901 C 18.851 10.204,14.023 3.019,13.673 2.673 C 13.139 2.144,12.253 1.895,11.491 2.060 M20.620 16.046 C 20.525 16.095,19.753 16.834,18.731 17.853 L 17.001 19.577 16.271 18.854 C 15.856 18.444,15.467 18.094,15.372 18.045 C 15.021 17.868,14.640 17.958,14.299 18.299 C 13.952 18.646,13.863 19.010,14.040 19.363 C 14.162 19.607,16.393 21.838,16.637 21.960 C 16.868 22.076,17.132 22.076,17.363 21.961 C 17.486 21.899,18.197 21.215,19.706 19.706 C 21.215 18.197,21.899 17.486,21.961 17.363 C 22.137 17.010,22.048 16.645,21.701 16.299 C 21.361 15.959,20.967 15.867,20.620 16.046 " stroke="none" fill="black" fill-rule="evenodd"></path></svg>