<svg xmlns="http://www.w3.org/2000/svg" width="24" height="24" viewBox="0 0 24 24" fill="none" stroke="currentColor" stroke-width="2" stroke-linecap="round" stroke-linejoin="round" class="icon icon-tabler icons-tabler-outline icon-tabler-chart-pie-off"><path d="M2.626 2.045 C 2.257 2.239,1.951 2.673,1.951 3.000 C 1.951 3.327,2.064 3.474,3.188 4.605 L 4.247 5.670 3.965 6.051 C 2.994 7.360,2.351 8.921,2.093 10.600 C 1.994 11.244,1.994 12.756,2.093 13.400 C 2.433 15.611,3.388 17.511,4.939 19.061 C 6.490 20.613,8.383 21.564,10.600 21.907 C 11.245 22.007,12.755 22.007,13.400 21.907 C 15.086 21.647,16.638 21.008,17.949 20.035 L 18.330 19.753 19.395 20.812 C 20.082 21.494,20.523 21.902,20.637 21.960 C 20.989 22.137,21.354 22.048,21.701 21.701 C 22.048 21.355,22.137 20.990,21.961 20.637 C 21.898 20.512,20.698 19.280,17.853 16.420 C 15.643 14.198,13.795 12.340,13.747 12.292 C 13.699 12.243,13.255 11.799,12.760 11.305 C 12.265 10.811,11.815 10.361,11.760 10.306 C 11.705 10.250,9.833 8.388,7.600 6.167 C 4.857 3.438,3.485 2.101,3.372 2.044 C 3.152 1.934,2.835 1.935,2.626 2.045 M9.354 2.340 C 8.042 2.723,7.165 3.163,6.972 3.535 C 6.787 3.894,7.039 4.599,7.450 4.871 C 7.584 4.960,7.659 4.980,7.857 4.979 C 8.064 4.978,8.167 4.947,8.552 4.769 C 8.968 4.577,9.624 4.329,9.890 4.265 L 10.000 4.238 10.000 5.729 C 10.000 6.604,10.017 7.280,10.041 7.365 C 10.148 7.750,10.437 7.962,10.896 7.991 C 11.381 8.022,11.699 7.882,11.880 7.558 L 11.980 7.380 11.992 5.646 C 12.000 4.511,11.989 3.840,11.961 3.703 C 11.851 3.173,11.466 2.666,10.980 2.414 C 10.489 2.158,10.046 2.138,9.354 2.340 M14.574 2.538 C 14.505 2.568,14.375 2.659,14.284 2.741 C 13.990 3.007,13.994 2.964,13.999 5.789 C 14.003 7.819,14.014 8.318,14.062 8.499 C 14.246 9.206,14.878 9.814,15.579 9.960 C 15.715 9.988,16.632 9.999,18.282 9.991 L 20.780 9.980 21.020 9.856 C 21.502 9.607,21.626 9.225,21.420 8.619 C 21.029 7.471,20.268 6.203,19.416 5.277 C 18.423 4.199,17.392 3.455,16.024 2.830 C 15.276 2.488,14.875 2.407,14.574 2.538 M16.490 5.370 C 17.060 5.758,17.539 6.176,17.970 6.660 C 18.289 7.019,18.842 7.775,18.905 7.937 C 18.926 7.993,18.776 8.000,17.464 8.000 L 16.000 8.000 16.000 6.540 C 16.000 5.737,16.015 5.080,16.032 5.080 C 16.050 5.080,16.256 5.210,16.490 5.370 M7.856 9.276 L 10.012 11.433 10.086 11.726 C 10.348 12.773,11.227 13.652,12.274 13.914 L 12.567 13.988 14.724 16.144 C 15.910 17.330,16.880 18.312,16.880 18.328 C 16.880 18.392,15.945 18.972,15.480 19.197 C 13.264 20.266,10.738 20.267,8.529 19.200 C 7.738 18.819,7.124 18.394,6.504 17.801 C 5.777 17.105,5.251 16.387,4.817 15.499 C 3.736 13.290,3.736 10.714,4.817 8.499 C 5.052 8.016,5.608 7.120,5.672 7.120 C 5.688 7.120,6.670 8.090,7.856 9.276 M16.614 12.057 C 16.377 12.131,16.212 12.261,16.109 12.453 C 16.035 12.592,16.020 12.684,16.020 13.000 C 16.020 13.331,16.033 13.403,16.120 13.558 C 16.230 13.755,16.414 13.898,16.635 13.959 C 16.720 13.983,17.396 14.000,18.271 14.000 L 19.762 14.000 19.735 14.110 C 19.672 14.369,19.425 15.028,19.240 15.432 C 19.002 15.952,18.961 16.168,19.057 16.417 C 19.173 16.721,19.601 17.027,20.012 17.102 C 20.371 17.167,20.734 16.928,20.962 16.476 C 21.356 15.697,21.801 14.355,21.799 13.953 C 21.799 13.712,21.699 13.315,21.581 13.083 C 21.446 12.816,21.097 12.449,20.817 12.281 C 20.382 12.019,20.257 12.005,18.420 12.005 C 17.186 12.005,16.739 12.018,16.614 12.057 " stroke="none" fill="black" fill-rule="evenodd"></path></svg>