<svg xmlns="http://www.w3.org/2000/svg" width="24" height="24" viewBox="0 0 24 24" fill="none" stroke="currentColor" stroke-width="2" stroke-linecap="round" stroke-linejoin="round" class="icon icon-tabler icons-tabler-outline icon-tabler-pyramid-off"><path d="M11.407 1.102 C 11.035 1.229,10.748 1.412,10.520 1.669 C 10.319 1.895,8.435 4.943,8.365 5.156 C 8.255 5.489,8.348 5.791,8.642 6.057 C 8.979 6.361,9.419 6.478,9.731 6.345 C 9.953 6.251,10.132 6.033,10.573 5.317 L 11.000 4.623 11.000 6.422 C 11.000 7.503,11.016 8.278,11.041 8.365 C 11.148 8.750,11.437 8.962,11.896 8.991 C 12.381 9.022,12.699 8.882,12.880 8.558 L 12.980 8.380 12.992 6.506 L 13.004 4.633 16.762 10.722 C 18.829 14.070,20.520 16.822,20.520 16.838 C 20.520 16.853,20.486 16.936,20.445 17.022 C 20.259 17.414,20.308 17.710,20.609 18.012 C 20.962 18.367,21.469 18.511,21.786 18.347 C 22.061 18.205,22.388 17.710,22.481 17.295 C 22.556 16.961,22.535 16.514,22.429 16.211 C 22.368 16.034,22.013 15.417,21.410 14.440 C 15.667 5.123,13.623 1.831,13.485 1.674 C 12.971 1.092,12.122 0.858,11.407 1.102 M2.626 2.045 C 2.420 2.154,2.146 2.433,2.038 2.644 C 1.924 2.868,1.924 3.132,2.040 3.363 C 2.101 3.486,2.809 4.222,4.348 5.765 L 6.568 7.990 4.138 11.925 C 2.802 14.089,1.665 15.956,1.613 16.074 C 1.561 16.191,1.498 16.416,1.473 16.574 C 1.386 17.138,1.618 17.824,2.037 18.242 C 2.239 18.443,2.438 18.554,4.160 19.428 C 8.274 21.516,10.932 22.821,11.240 22.901 C 11.651 23.009,12.347 23.009,12.760 22.902 C 12.978 22.845,13.820 22.444,15.840 21.435 L 18.620 20.045 19.540 20.958 C 20.119 21.531,20.526 21.903,20.637 21.960 C 20.989 22.137,21.354 22.048,21.701 21.701 C 22.048 21.355,22.137 20.990,21.961 20.637 C 21.885 20.486,18.837 17.395,12.747 11.293 C 8.533 7.070,3.506 2.111,3.372 2.044 C 3.152 1.934,2.835 1.935,2.626 2.045 M11.000 16.510 C 11.000 18.759,10.991 20.600,10.980 20.600 C 10.902 20.600,3.481 16.850,3.489 16.815 C 3.495 16.791,4.517 15.122,5.760 13.108 L 8.020 9.444 9.510 10.932 L 11.000 12.420 11.000 16.510 M15.077 16.497 L 17.133 18.553 15.087 19.577 C 13.961 20.139,13.031 20.600,13.020 20.600 C 13.009 20.600,13.000 19.214,13.000 17.520 C 13.000 15.826,13.005 14.440,13.010 14.440 C 13.016 14.440,13.946 15.365,15.077 16.497 " stroke="none" fill="black" fill-rule="evenodd"></path></svg>