<svg xmlns="http://www.w3.org/2000/svg" width="24" height="24" viewBox="0 0 24 24" fill="none" stroke="currentColor" stroke-width="2" stroke-linecap="round" stroke-linejoin="round" class="icon icon-tabler icons-tabler-outline icon-tabler-copy-off"><path d="M2.626 2.045 C 2.257 2.239,1.951 2.673,1.951 3.000 C 1.951 3.293,2.085 3.492,2.702 4.120 L 3.273 4.700 3.146 5.060 L 3.020 5.420 3.020 9.980 L 3.020 14.540 3.114 14.840 C 3.419 15.818,4.166 16.570,5.140 16.882 C 5.379 16.958,5.536 16.974,6.205 16.990 L 6.991 17.009 7.010 17.795 C 7.026 18.464,7.042 18.621,7.118 18.860 C 7.430 19.834,8.182 20.581,9.160 20.886 L 9.460 20.980 14.020 20.980 L 18.580 20.980 18.940 20.854 L 19.300 20.727 19.880 21.298 C 20.205 21.617,20.538 21.908,20.637 21.959 C 20.988 22.137,21.353 22.049,21.701 21.701 C 22.047 21.355,22.136 20.990,21.961 20.637 C 21.839 20.392,3.616 2.165,3.372 2.044 C 3.152 1.934,2.834 1.935,2.626 2.045 M7.614 3.057 C 7.376 3.132,7.212 3.261,7.109 3.453 C 7.035 3.592,7.020 3.684,7.020 4.000 C 7.020 4.331,7.033 4.403,7.120 4.558 C 7.230 4.755,7.414 4.898,7.635 4.959 C 7.727 4.985,8.947 5.000,10.943 5.000 C 14.532 5.000,14.382 4.988,14.697 5.303 C 14.948 5.554,15.000 5.751,15.000 6.447 L 15.000 7.000 13.406 7.000 C 11.710 7.000,11.584 7.012,11.322 7.199 C 11.100 7.357,11.020 7.568,11.020 8.000 C 11.020 8.331,11.033 8.403,11.120 8.558 C 11.230 8.755,11.414 8.898,11.635 8.959 C 11.727 8.985,12.947 9.000,14.943 9.000 C 18.532 9.000,18.382 8.988,18.697 9.303 C 19.012 9.618,19.000 9.468,19.000 13.057 C 19.000 15.053,19.015 16.273,19.041 16.365 C 19.148 16.750,19.437 16.962,19.896 16.991 C 20.381 17.022,20.699 16.882,20.880 16.558 L 20.980 16.380 20.980 12.920 L 20.980 9.460 20.886 9.160 C 20.580 8.179,19.819 7.415,18.861 7.126 C 18.585 7.043,18.433 7.027,17.775 7.010 L 17.009 6.991 16.990 6.205 C 16.974 5.536,16.958 5.379,16.882 5.140 C 16.573 4.174,15.822 3.424,14.861 3.122 L 14.540 3.021 11.160 3.012 C 8.452 3.006,7.747 3.014,7.614 3.057 M7.147 9.060 L 7.020 9.420 7.008 12.213 L 6.996 15.007 6.348 14.993 C 5.728 14.981,5.692 14.975,5.516 14.872 C 5.415 14.813,5.284 14.700,5.225 14.623 C 4.991 14.316,5.000 14.491,5.000 10.285 L 5.000 6.420 6.137 7.560 L 7.274 8.700 7.147 9.060 M16.650 18.991 C 16.150 18.997,14.381 18.997,12.720 18.991 L 9.700 18.980 9.516 18.872 C 9.415 18.813,9.284 18.700,9.225 18.623 C 8.991 18.316,9.000 18.491,9.000 14.285 L 9.000 10.420 13.280 14.700 L 17.560 18.980 16.650 18.991 " stroke="none" fill="black" fill-rule="evenodd"></path></svg>