<svg xmlns="http://www.w3.org/2000/svg" width="24" height="24" viewBox="0 0 24 24" fill="none" stroke="currentColor" stroke-width="2" stroke-linecap="round" stroke-linejoin="round" class="icon icon-tabler icons-tabler-outline icon-tabler-pentagon-plus"><path d="M11.340 0.865 C 11.186 0.897,10.907 1.000,10.720 1.093 C 10.300 1.302,2.269 7.122,1.888 7.494 C 1.447 7.924,1.193 8.393,1.064 9.018 C 0.983 9.411,0.983 9.760,1.063 10.152 C 1.168 10.662,4.267 20.142,4.432 20.460 C 4.535 20.656,4.686 20.848,4.939 21.101 C 5.342 21.504,5.660 21.708,6.140 21.871 L 6.460 21.980 9.540 21.992 C 11.234 21.999,12.694 21.994,12.785 21.981 C 13.040 21.944,13.267 21.773,13.387 21.530 C 13.472 21.356,13.490 21.263,13.488 21.003 C 13.486 20.516,13.340 20.255,12.979 20.092 C 12.832 20.025,12.595 20.019,9.780 20.000 C 7.263 19.983,6.723 19.970,6.640 19.923 C 6.430 19.805,6.309 19.694,6.219 19.540 C 6.103 19.339,3.043 9.926,3.012 9.675 C 2.985 9.449,3.078 9.152,3.231 8.974 C 3.360 8.824,11.340 3.021,11.597 2.890 C 11.836 2.768,12.164 2.768,12.403 2.890 C 12.660 3.021,20.640 8.824,20.769 8.974 C 20.922 9.152,21.015 9.449,20.988 9.675 C 20.975 9.777,20.792 10.391,20.581 11.040 C 20.141 12.390,20.070 12.658,20.106 12.846 C 20.170 13.182,20.420 13.425,20.843 13.561 C 21.312 13.712,21.665 13.619,21.897 13.284 C 22.019 13.108,22.833 10.656,22.937 10.152 C 23.135 9.186,22.816 8.173,22.094 7.474 C 21.717 7.110,13.682 1.293,13.280 1.093 C 12.715 0.812,11.997 0.728,11.340 0.865 M18.614 15.057 C 18.377 15.131,18.212 15.261,18.109 15.453 C 18.024 15.613,18.020 15.668,18.008 16.810 L 17.996 18.000 16.904 18.000 C 15.744 18.000,15.570 18.022,15.322 18.199 C 15.100 18.357,15.020 18.568,15.020 19.000 C 15.020 19.331,15.033 19.403,15.120 19.558 C 15.230 19.755,15.414 19.898,15.635 19.959 C 15.716 19.982,16.270 20.000,16.890 20.000 L 18.000 20.000 18.000 21.110 C 18.000 21.730,18.018 22.284,18.041 22.365 C 18.148 22.750,18.437 22.962,18.896 22.991 C 19.381 23.022,19.699 22.882,19.880 22.558 C 19.979 22.381,19.980 22.374,19.993 21.190 L 20.005 20.000 21.113 20.000 C 21.731 20.000,22.284 19.982,22.365 19.959 C 22.586 19.898,22.770 19.755,22.880 19.558 C 22.967 19.402,22.980 19.332,22.979 19.000 C 22.978 18.567,22.898 18.355,22.678 18.199 C 22.430 18.022,22.256 18.000,21.096 18.000 L 20.005 18.000 19.993 16.810 C 19.981 15.669,19.976 15.613,19.891 15.453 C 19.842 15.362,19.746 15.247,19.678 15.199 C 19.414 15.010,18.957 14.950,18.614 15.057 " stroke="none" fill="black" fill-rule="evenodd"></path></svg>