<svg xmlns="http://www.w3.org/2000/svg" width="24" height="24" viewBox="0 0 24 24" fill="none" stroke="currentColor" stroke-width="2" stroke-linecap="round" stroke-linejoin="round" class="icon icon-tabler icons-tabler-outline icon-tabler-topology-star-ring-2"><path d="M11.499 1.040 C 10.363 1.246,9.461 2.048,9.114 3.160 C 9.034 3.417,9.020 3.541,9.022 4.020 C 9.024 4.541,9.033 4.605,9.149 4.940 L 9.274 5.300 7.287 7.290 C 5.878 8.702,5.283 9.273,5.240 9.255 C 5.207 9.240,5.036 9.183,4.860 9.128 C 4.584 9.041,4.465 9.027,4.000 9.027 C 3.542 9.027,3.412 9.042,3.139 9.125 C 2.178 9.418,1.419 10.181,1.114 11.160 C 0.979 11.594,0.979 12.406,1.114 12.840 C 1.421 13.826,2.173 14.578,3.160 14.886 C 3.417 14.966,3.541 14.980,4.020 14.978 C 4.541 14.976,4.605 14.967,4.940 14.851 L 5.300 14.725 7.287 16.713 L 9.275 18.700 9.149 19.060 C 9.033 19.395,9.024 19.459,9.022 19.980 C 9.020 20.459,9.034 20.583,9.114 20.840 C 9.422 21.827,10.174 22.579,11.160 22.886 C 11.594 23.021,12.406 23.021,12.840 22.886 C 13.826 22.579,14.578 21.827,14.886 20.840 C 14.966 20.583,14.980 20.459,14.978 19.980 C 14.976 19.459,14.967 19.395,14.851 19.060 L 14.725 18.700 16.713 16.713 L 18.700 14.725 19.060 14.851 C 19.395 14.967,19.459 14.976,19.980 14.978 C 20.459 14.980,20.583 14.966,20.840 14.886 C 21.827 14.578,22.579 13.826,22.886 12.840 C 23.021 12.406,23.021 11.594,22.886 11.160 C 22.581 10.181,21.822 9.418,20.861 9.125 C 20.588 9.042,20.458 9.027,20.000 9.027 C 19.535 9.027,19.416 9.041,19.140 9.128 C 18.964 9.183,18.793 9.240,18.760 9.255 C 18.717 9.273,18.122 8.702,16.713 7.290 L 14.726 5.300 14.851 4.940 C 14.967 4.605,14.976 4.541,14.978 4.020 C 14.980 3.541,14.966 3.417,14.886 3.160 C 14.580 2.178,13.810 1.407,12.861 1.129 C 12.500 1.023,11.832 0.980,11.499 1.040 M12.310 3.061 C 12.688 3.173,13.000 3.598,13.000 4.001 C 13.000 4.331,12.784 4.696,12.484 4.872 C 12.328 4.963,12.254 4.980,12.000 4.980 C 11.746 4.980,11.672 4.963,11.516 4.872 C 10.935 4.530,10.833 3.774,11.304 3.303 C 11.583 3.024,11.916 2.944,12.310 3.061 M10.855 6.781 L 11.000 6.841 11.000 7.993 L 11.000 9.145 10.670 9.313 C 10.091 9.607,9.597 10.102,9.312 10.670 L 9.147 11.000 7.994 11.000 L 6.841 11.000 6.779 10.852 L 6.717 10.703 8.708 8.712 C 9.804 7.616,10.702 6.720,10.705 6.720 C 10.708 6.720,10.775 6.747,10.855 6.781 M15.292 8.712 L 17.283 10.703 17.221 10.852 L 17.159 11.000 16.006 11.000 L 14.853 11.000 14.688 10.670 C 14.403 10.102,13.909 9.607,13.330 9.313 L 13.000 9.145 13.000 7.993 L 13.000 6.840 13.130 6.783 C 13.202 6.752,13.269 6.725,13.280 6.723 C 13.291 6.721,14.196 7.616,15.292 8.712 M4.310 11.061 C 4.688 11.173,5.000 11.598,5.000 12.001 C 5.000 12.331,4.784 12.696,4.484 12.872 C 4.328 12.963,4.254 12.980,4.000 12.980 C 3.746 12.980,3.672 12.963,3.516 12.872 C 2.935 12.530,2.833 11.774,3.304 11.303 C 3.583 11.024,3.916 10.944,4.310 11.061 M12.310 11.061 C 12.688 11.173,13.000 11.598,13.000 12.001 C 13.000 12.331,12.784 12.696,12.484 12.872 C 12.328 12.963,12.254 12.980,12.000 12.980 C 11.746 12.980,11.672 12.963,11.516 12.872 C 10.935 12.530,10.833 11.774,11.304 11.303 C 11.583 11.024,11.916 10.944,12.310 11.061 M20.310 11.061 C 20.688 11.173,21.000 11.598,21.000 12.001 C 21.000 12.331,20.784 12.696,20.484 12.872 C 20.328 12.963,20.254 12.980,20.000 12.980 C 19.746 12.980,19.672 12.963,19.516 12.872 C 18.935 12.530,18.833 11.774,19.304 11.303 C 19.583 11.024,19.916 10.944,20.310 11.061 M9.312 13.330 C 9.494 13.692,9.753 14.016,10.109 14.323 C 10.236 14.433,10.489 14.597,10.670 14.688 L 11.000 14.853 11.000 16.006 L 11.000 17.159 10.852 17.221 L 10.703 17.283 8.710 15.290 L 6.717 13.297 6.779 13.148 L 6.841 13.000 7.994 13.000 L 9.147 13.000 9.312 13.330 M17.221 13.148 L 17.283 13.297 15.290 15.290 L 13.297 17.283 13.148 17.221 L 13.000 17.159 13.000 16.006 L 13.000 14.853 13.330 14.688 C 13.512 14.597,13.764 14.433,13.891 14.323 C 14.247 14.016,14.506 13.692,14.688 13.330 L 14.853 13.000 16.006 13.000 L 17.159 13.000 17.221 13.148 M12.310 19.061 C 12.688 19.173,13.000 19.598,13.000 20.001 C 13.000 20.331,12.784 20.696,12.484 20.872 C 12.328 20.963,12.254 20.980,12.000 20.980 C 11.746 20.980,11.672 20.963,11.516 20.872 C 10.935 20.530,10.833 19.774,11.304 19.303 C 11.583 19.024,11.916 18.944,12.310 19.061 " stroke="none" fill="black" fill-rule="evenodd"></path></svg>