<svg xmlns="http://www.w3.org/2000/svg" width="24" height="24" viewBox="0 0 24 24" fill="none" stroke="currentColor" stroke-width="2" stroke-linecap="round" stroke-linejoin="round" class="icon icon-tabler icons-tabler-outline icon-tabler-math-max"><path d="M6.499 3.040 C 5.363 3.246,4.460 4.049,4.114 5.160 C 3.991 5.555,3.980 6.405,4.094 6.776 L 4.166 7.012 3.926 7.496 C 3.428 8.500,3.029 9.674,2.661 11.213 C 2.346 12.534,2.000 14.555,2.000 15.073 C 2.000 15.519,2.218 15.818,2.625 15.933 C 3.092 16.063,3.475 16.005,3.713 15.767 C 3.902 15.578,3.939 15.452,4.061 14.600 C 4.375 12.410,4.893 10.293,5.428 9.014 C 5.539 8.750,5.585 8.678,5.635 8.696 C 5.671 8.708,5.862 8.776,6.060 8.847 C 6.399 8.968,6.453 8.976,6.980 8.978 C 7.567 8.980,7.902 8.913,8.288 8.716 C 8.370 8.674,8.455 8.640,8.477 8.640 C 8.531 8.640,9.186 9.744,9.679 10.667 C 9.901 11.081,10.489 12.230,10.986 13.220 C 12.591 16.414,13.198 17.525,13.954 18.651 C 15.033 20.260,16.000 20.997,17.032 20.999 C 17.527 21.001,18.040 20.853,18.540 20.566 C 18.851 20.387,19.528 19.707,19.781 19.320 C 20.783 17.784,21.484 15.298,21.921 11.733 C 22.035 10.798,22.024 10.626,21.828 10.345 C 21.651 10.092,21.009 9.931,20.614 10.042 C 20.383 10.106,20.143 10.334,20.081 10.547 C 20.057 10.631,19.983 11.105,19.918 11.600 C 19.478 14.921,18.932 16.938,18.142 18.160 C 17.830 18.642,17.375 18.999,17.069 19.000 C 16.715 19.001,15.983 18.173,15.200 16.886 C 14.669 16.012,14.243 15.210,12.880 12.520 C 11.248 9.300,10.771 8.428,10.078 7.396 L 9.832 7.031 9.905 6.786 C 10.019 6.400,10.009 5.555,9.886 5.160 C 9.581 4.179,8.810 3.407,7.861 3.129 C 7.500 3.023,6.832 2.980,6.499 3.040 M7.310 5.061 C 7.736 5.187,8.045 5.669,7.985 6.110 C 7.946 6.396,7.714 6.739,7.460 6.887 C 7.232 7.020,6.769 7.020,6.540 6.888 C 6.322 6.762,6.037 6.342,6.011 6.109 C 5.948 5.548,6.416 5.016,6.983 5.003 C 7.050 5.001,7.198 5.027,7.310 5.061 " stroke="none" fill="black" fill-rule="evenodd"></path></svg>