<svg xmlns="http://www.w3.org/2000/svg" width="24" height="24" viewBox="0 0 24 24" fill="none" stroke="currentColor" stroke-width="2" stroke-linecap="round" stroke-linejoin="round" class="icon icon-tabler icons-tabler-outline icon-tabler-calendar-month"><path d="M7.614 2.057 C 7.377 2.131,7.212 2.261,7.109 2.453 C 7.029 2.603,7.019 2.689,7.007 3.305 L 6.994 3.991 6.227 4.010 C 5.567 4.027,5.415 4.043,5.139 4.126 C 4.181 4.415,3.420 5.179,3.114 6.160 L 3.020 6.460 3.020 13.000 L 3.020 19.540 3.114 19.840 C 3.422 20.827,4.173 21.578,5.160 21.886 L 5.460 21.980 12.000 21.980 L 18.540 21.980 18.840 21.886 C 19.827 21.578,20.578 20.827,20.886 19.840 L 20.980 19.540 20.980 13.000 L 20.980 6.460 20.886 6.160 C 20.580 5.179,19.819 4.415,18.861 4.126 C 18.585 4.043,18.433 4.027,17.774 4.010 L 17.008 3.991 16.993 3.305 C 16.975 2.524,16.927 2.364,16.649 2.182 C 16.199 1.887,15.426 1.979,15.170 2.358 C 15.029 2.568,15.000 2.739,15.000 3.390 L 15.000 4.000 12.004 4.000 L 9.008 4.000 8.993 3.310 C 8.976 2.541,8.930 2.378,8.678 2.199 C 8.414 2.010,7.957 1.950,7.614 2.057 M7.000 6.610 C 7.000 6.946,7.019 7.285,7.041 7.365 C 7.148 7.750,7.437 7.962,7.896 7.991 C 8.381 8.022,8.699 7.882,8.880 7.558 C 8.974 7.391,8.981 7.338,8.994 6.690 L 9.008 6.000 12.004 6.000 L 15.000 6.000 15.000 6.610 C 15.000 6.946,15.019 7.285,15.041 7.365 C 15.148 7.750,15.437 7.962,15.896 7.991 C 16.381 8.022,16.699 7.882,16.880 7.558 C 16.974 7.391,16.981 7.338,16.994 6.690 L 17.008 6.000 17.557 6.000 C 18.249 6.000,18.446 6.052,18.697 6.303 C 18.993 6.599,19.000 6.650,19.000 8.447 L 19.000 10.000 12.000 10.000 L 5.000 10.000 5.000 8.447 C 5.000 6.649,5.007 6.599,5.304 6.303 C 5.554 6.052,5.727 6.006,6.430 6.003 L 7.000 6.000 7.000 6.610 M19.000 15.554 C 19.000 19.410,19.005 19.322,18.779 19.618 C 18.718 19.698,18.585 19.813,18.484 19.872 L 18.300 19.980 12.000 19.980 L 5.700 19.980 5.516 19.872 C 5.415 19.813,5.284 19.700,5.225 19.623 C 4.992 19.317,5.000 19.464,5.000 15.575 L 5.000 12.000 12.000 12.000 L 19.000 12.000 19.000 15.554 M6.614 13.055 C 6.220 13.184,6.039 13.437,6.009 13.900 C 5.965 14.580,6.268 14.951,6.902 14.991 C 7.294 15.017,7.592 14.923,7.778 14.717 C 7.942 14.536,8.000 14.349,8.000 14.000 C 8.000 13.531,7.871 13.279,7.548 13.114 C 7.341 13.009,6.849 12.977,6.614 13.055 M9.617 13.054 C 9.383 13.131,9.212 13.271,9.121 13.458 C 8.954 13.804,8.980 14.344,9.179 14.645 C 9.465 15.079,10.412 15.122,10.778 14.717 C 10.942 14.536,11.000 14.349,11.000 14.000 C 11.000 13.531,10.871 13.279,10.548 13.114 C 10.343 13.009,9.849 12.977,9.617 13.054 M12.617 13.054 C 12.383 13.131,12.212 13.271,12.121 13.458 C 11.954 13.804,11.980 14.344,12.179 14.645 C 12.465 15.079,13.412 15.122,13.778 14.717 C 13.942 14.536,14.000 14.349,14.000 14.000 C 14.000 13.531,13.871 13.279,13.548 13.114 C 13.343 13.009,12.849 12.977,12.617 13.054 M15.600 13.062 C 15.225 13.178,15.026 13.503,15.026 14.000 C 15.026 14.652,15.372 15.000,16.020 15.000 C 16.668 15.000,17.006 14.656,17.006 13.997 C 17.006 13.491,16.823 13.196,16.429 13.064 C 16.197 12.987,15.844 12.986,15.600 13.062 M6.617 16.054 C 6.383 16.131,6.212 16.271,6.121 16.458 C 5.954 16.804,5.980 17.344,6.179 17.645 C 6.465 18.079,7.412 18.122,7.778 17.717 C 7.942 17.536,8.000 17.349,8.000 17.000 C 8.000 16.531,7.871 16.279,7.548 16.114 C 7.343 16.009,6.849 15.977,6.617 16.054 M9.617 16.054 C 9.383 16.131,9.212 16.271,9.121 16.458 C 8.954 16.804,8.980 17.344,9.179 17.645 C 9.465 18.079,10.412 18.122,10.778 17.717 C 10.942 17.536,11.000 17.349,11.000 17.000 C 11.000 16.531,10.871 16.279,10.548 16.114 C 10.343 16.009,9.849 15.977,9.617 16.054 M12.600 16.062 C 12.225 16.178,12.026 16.503,12.026 17.000 C 12.026 17.652,12.372 18.000,13.020 18.000 C 13.668 18.000,14.006 17.656,14.006 16.997 C 14.006 16.491,13.823 16.196,13.429 16.064 C 13.197 15.987,12.844 15.986,12.600 16.062 " stroke="none" fill="black" fill-rule="evenodd"></path></svg>