<svg xmlns="http://www.w3.org/2000/svg" width="24" height="24" viewBox="0 0 24 24" fill="none" stroke="currentColor" stroke-width="2" stroke-linecap="round" stroke-linejoin="round" class="icon icon-tabler icons-tabler-outline icon-tabler-adjustments-alt"><path d="M5.614 3.057 C 5.377 3.131,5.212 3.261,5.109 3.453 C 5.022 3.617,5.020 3.650,5.008 5.307 L 4.997 6.993 4.327 7.007 C 3.701 7.019,3.645 7.027,3.459 7.122 C 3.245 7.233,3.105 7.404,3.041 7.635 C 2.986 7.831,2.986 12.169,3.041 12.365 C 3.102 12.586,3.245 12.770,3.442 12.880 C 3.609 12.974,3.661 12.981,4.310 12.993 L 5.000 13.007 5.000 16.613 C 5.000 18.906,5.015 20.273,5.041 20.365 C 5.148 20.750,5.437 20.962,5.896 20.991 C 6.381 21.022,6.699 20.882,6.880 20.558 L 6.980 20.380 6.991 16.690 L 7.002 13.000 7.611 13.000 C 7.946 13.000,8.285 12.981,8.365 12.959 C 8.586 12.898,8.770 12.755,8.880 12.558 L 8.980 12.380 8.980 10.000 L 8.980 7.620 8.891 7.453 C 8.700 7.097,8.423 7.000,7.596 7.000 L 7.004 7.000 6.992 5.310 C 6.980 3.651,6.978 3.617,6.891 3.453 C 6.842 3.362,6.746 3.247,6.678 3.199 C 6.414 3.010,5.957 2.950,5.614 3.057 M11.614 3.057 C 11.377 3.131,11.212 3.261,11.109 3.453 L 11.020 3.620 11.009 8.307 L 10.999 12.993 10.328 13.007 C 9.701 13.019,9.645 13.027,9.459 13.122 C 9.245 13.233,9.105 13.404,9.041 13.635 C 8.986 13.831,8.986 18.169,9.041 18.365 C 9.102 18.586,9.245 18.770,9.442 18.880 C 9.609 18.974,9.661 18.981,10.310 18.993 L 11.000 19.007 11.000 19.613 C 11.000 19.947,11.019 20.285,11.041 20.365 C 11.148 20.750,11.437 20.962,11.896 20.991 C 12.381 21.022,12.699 20.882,12.880 20.558 C 12.974 20.391,12.981 20.338,12.994 19.690 L 13.008 19.000 13.614 19.000 C 13.947 19.000,14.285 18.981,14.365 18.959 C 14.586 18.898,14.770 18.755,14.880 18.558 L 14.980 18.380 14.980 16.000 L 14.980 13.620 14.891 13.453 C 14.700 13.097,14.423 13.000,13.594 13.000 L 13.002 13.000 12.991 8.310 L 12.980 3.620 12.891 3.453 C 12.842 3.362,12.746 3.247,12.678 3.199 C 12.414 3.010,11.957 2.950,11.614 3.057 M17.614 3.057 C 17.258 3.169,17.058 3.416,17.013 3.799 L 16.990 3.993 16.324 4.007 C 15.701 4.019,15.644 4.027,15.459 4.122 C 15.245 4.233,15.105 4.404,15.041 4.635 C 14.986 4.831,14.986 9.169,15.041 9.365 C 15.102 9.586,15.245 9.770,15.442 9.880 C 15.609 9.974,15.661 9.981,16.310 9.993 L 17.000 10.007 17.000 15.113 C 17.000 18.411,17.015 20.271,17.041 20.365 C 17.148 20.750,17.437 20.962,17.896 20.991 C 18.381 21.022,18.699 20.882,18.880 20.558 L 18.980 20.380 18.991 15.190 L 19.001 10.000 19.611 10.000 C 19.946 10.000,20.285 9.981,20.365 9.959 C 20.586 9.898,20.770 9.755,20.880 9.558 L 20.980 9.380 20.980 7.000 L 20.980 4.620 20.891 4.453 C 20.701 4.097,20.423 4.000,19.599 4.000 L 19.010 4.000 18.983 3.794 C 18.948 3.531,18.835 3.310,18.678 3.199 C 18.414 3.010,17.957 2.950,17.614 3.057 M19.000 7.000 L 19.000 8.000 18.000 8.000 L 17.000 8.000 17.000 7.000 L 17.000 6.000 18.000 6.000 L 19.000 6.000 19.000 7.000 M7.000 10.000 L 7.000 11.000 6.000 11.000 L 5.000 11.000 5.000 10.000 L 5.000 9.000 6.000 9.000 L 7.000 9.000 7.000 10.000 M13.000 16.000 L 13.000 17.000 12.000 17.000 L 11.000 17.000 11.000 16.000 L 11.000 15.000 12.000 15.000 L 13.000 15.000 13.000 16.000 " stroke="none" fill="black" fill-rule="evenodd"></path></svg>