<svg xmlns="http://www.w3.org/2000/svg" width="24" height="24" viewBox="0 0 24 24" fill="none" stroke="currentColor" stroke-width="2" stroke-linecap="round" stroke-linejoin="round" class="icon icon-tabler icons-tabler-outline icon-tabler-arrow-rotary-right"><path d="M16.626 2.045 C 16.257 2.239,15.951 2.673,15.951 3.000 C 15.951 3.333,16.056 3.467,17.353 4.770 L 18.577 6.000 15.227 6.000 C 12.072 6.000,11.876 5.996,11.855 5.930 C 11.843 5.891,11.778 5.716,11.711 5.540 C 11.213 4.232,10.008 3.270,8.605 3.058 C 8.121 2.986,7.879 2.986,7.395 3.058 C 5.156 3.396,3.632 5.563,4.082 7.772 C 4.359 9.128,5.281 10.231,6.540 10.711 C 6.716 10.778,6.892 10.843,6.930 10.855 C 6.996 10.876,7.000 11.135,7.000 15.549 C 7.000 18.555,7.015 20.272,7.041 20.365 C 7.148 20.750,7.437 20.962,7.896 20.991 C 8.381 21.022,8.699 20.882,8.880 20.558 L 8.980 20.380 9.000 15.627 L 9.020 10.874 9.295 10.778 C 9.907 10.563,10.362 10.278,10.820 9.820 C 11.278 9.362,11.563 8.908,11.778 8.295 L 11.874 8.020 15.226 8.010 L 18.578 8.000 17.353 9.230 C 16.549 10.039,16.099 10.521,16.040 10.637 C 15.863 10.989,15.952 11.354,16.299 11.701 C 16.646 12.048,17.011 12.137,17.363 11.960 C 17.484 11.899,18.182 11.234,19.561 9.866 C 20.673 8.763,21.634 7.826,21.696 7.784 C 21.850 7.682,22.049 7.239,22.049 7.000 C 22.049 6.745,21.851 6.321,21.676 6.201 C 21.601 6.150,20.640 5.213,19.540 4.118 C 18.232 2.817,17.482 2.099,17.372 2.044 C 17.152 1.934,16.835 1.935,16.626 2.045 M8.523 5.073 C 9.262 5.266,9.850 5.924,9.967 6.690 C 10.067 7.343,9.873 7.933,9.403 8.404 C 9.002 8.807,8.547 9.000,8.000 9.000 C 7.485 9.000,7.038 8.822,6.653 8.465 C 5.323 7.229,6.189 5.005,8.000 5.005 C 8.143 5.005,8.378 5.036,8.523 5.073 " stroke="none" fill="black" fill-rule="evenodd"></path></svg>