<svg xmlns="http://www.w3.org/2000/svg" width="24" height="24" viewBox="0 0 24 24" fill="none" stroke="currentColor" stroke-width="2" stroke-linecap="round" stroke-linejoin="round" class="icon icon-tabler icons-tabler-outline icon-tabler-car-off"><path d="M2.626 2.045 C 2.257 2.239,1.951 2.673,1.951 3.000 C 1.951 3.324,2.067 3.477,3.119 4.535 L 4.108 5.531 3.171 7.872 C 2.656 9.160,2.186 10.305,2.127 10.417 L 2.020 10.620 2.009 13.912 C 2.002 16.060,2.012 17.257,2.039 17.356 C 2.100 17.584,2.242 17.768,2.442 17.880 C 2.610 17.974,2.662 17.981,3.387 18.000 L 4.155 18.020 4.316 18.340 C 4.686 19.071,5.360 19.637,6.160 19.886 C 6.594 20.021,7.406 20.021,7.840 19.886 C 8.645 19.635,9.318 19.069,9.688 18.330 L 9.853 18.000 12.000 18.000 L 14.147 18.000 14.311 18.330 C 14.682 19.075,15.342 19.631,16.160 19.886 C 16.416 19.966,16.542 19.980,17.020 19.979 C 17.542 19.977,17.604 19.969,17.940 19.852 L 18.300 19.727 19.380 20.798 C 20.076 21.489,20.523 21.902,20.637 21.960 C 20.989 22.137,21.354 22.048,21.701 21.701 C 22.048 21.355,22.137 20.990,21.961 20.637 C 21.885 20.485,18.636 17.194,11.747 10.293 C 11.699 10.245,10.580 9.126,9.260 7.806 C 7.940 6.486,6.815 5.361,6.760 5.305 C 5.628 4.155,3.503 2.111,3.372 2.045 C 3.152 1.934,2.835 1.934,2.626 2.045 M9.614 5.057 C 9.376 5.132,9.212 5.261,9.109 5.453 C 9.035 5.592,9.020 5.684,9.020 6.000 C 9.020 6.331,9.033 6.403,9.120 6.558 C 9.230 6.755,9.414 6.898,9.635 6.959 C 9.715 6.981,10.055 7.000,10.390 7.000 L 11.000 7.000 11.000 7.610 C 11.000 7.946,11.019 8.285,11.041 8.365 C 11.148 8.750,11.437 8.962,11.896 8.991 C 12.381 9.022,12.699 8.882,12.880 8.558 C 12.974 8.391,12.981 8.338,12.994 7.690 L 13.008 7.000 13.263 7.000 L 13.519 7.000 14.720 8.500 L 15.921 10.000 15.367 10.000 C 14.580 10.000,14.297 10.102,14.109 10.453 C 14.035 10.592,14.020 10.684,14.020 11.000 C 14.020 11.331,14.033 11.403,14.120 11.558 C 14.230 11.755,14.414 11.898,14.635 11.959 C 14.724 11.984,15.617 12.000,16.943 12.000 C 19.418 12.000,19.391 11.997,19.697 12.303 C 20.003 12.609,20.000 12.582,20.000 15.057 C 20.000 16.383,20.016 17.276,20.041 17.365 C 20.148 17.750,20.437 17.962,20.896 17.991 C 21.381 18.022,21.699 17.882,21.880 17.558 L 21.980 17.380 21.980 14.920 L 21.980 12.460 21.886 12.160 C 21.580 11.179,20.813 10.410,19.861 10.128 C 19.624 10.058,19.400 10.027,19.006 10.011 L 18.471 9.988 16.560 7.600 C 14.844 5.455,14.628 5.201,14.454 5.116 L 14.260 5.020 12.020 5.012 C 10.260 5.006,9.744 5.015,9.614 5.057 M7.540 9.991 C 6.979 9.997,6.063 9.997,5.504 9.991 L 4.488 9.980 5.070 8.526 L 5.651 7.072 7.106 8.526 L 8.560 9.980 7.540 9.991 M12.432 13.852 L 14.283 15.703 14.221 15.852 L 14.159 16.000 12.006 16.000 L 9.853 16.000 9.688 15.670 C 9.321 14.938,8.642 14.363,7.861 14.125 C 7.588 14.042,7.458 14.027,7.000 14.027 C 6.542 14.027,6.412 14.042,6.139 14.125 C 5.358 14.363,4.679 14.938,4.312 15.670 C 4.195 15.904,4.125 16.000,4.073 16.000 C 4.003 16.000,4.000 15.914,4.000 14.000 L 4.000 12.000 7.290 12.000 L 10.580 12.000 12.432 13.852 M7.334 16.064 C 7.698 16.188,8.000 16.613,8.000 17.001 C 8.000 17.331,7.784 17.696,7.484 17.872 C 7.328 17.963,7.254 17.980,7.000 17.980 C 6.746 17.980,6.672 17.963,6.516 17.872 C 5.937 17.531,5.833 16.774,6.301 16.306 C 6.587 16.019,6.952 15.934,7.334 16.064 " stroke="none" fill="black" fill-rule="evenodd"></path></svg>