<svg xmlns="http://www.w3.org/2000/svg" width="24" height="24" viewBox="0 0 24 24" fill="none" stroke="currentColor" stroke-width="2" stroke-linecap="round" stroke-linejoin="round" class="icon icon-tabler icons-tabler-outline icon-tabler-browser-off"><path d="M2.626 2.045 C 2.257 2.239,1.951 2.673,1.951 3.000 C 1.951 3.278,2.081 3.486,2.566 3.983 L 3.003 4.430 3.001 11.845 C 2.999 19.941,2.985 19.457,3.225 19.930 C 3.361 20.199,3.801 20.639,4.070 20.775 C 4.543 21.015,4.059 21.001,12.155 20.999 L 19.570 20.997 20.017 21.434 C 20.263 21.674,20.543 21.910,20.639 21.960 C 20.988 22.137,21.354 22.048,21.701 21.701 C 22.047 21.355,22.137 20.990,21.961 20.637 C 21.897 20.510,20.038 18.620,15.353 13.920 C 11.768 10.323,8.795 7.340,8.747 7.292 C 8.699 7.244,7.508 6.062,6.100 4.667 C 4.415 2.996,3.482 2.100,3.372 2.044 C 3.152 1.934,2.835 1.935,2.626 2.045 M7.614 3.057 C 7.377 3.131,7.212 3.261,7.109 3.453 C 7.035 3.592,7.020 3.684,7.020 4.000 C 7.020 4.331,7.033 4.403,7.120 4.558 C 7.230 4.755,7.414 4.898,7.635 4.959 C 7.729 4.985,9.755 5.000,13.390 5.000 L 19.000 5.000 19.000 6.000 L 19.000 7.000 15.406 7.000 C 11.561 7.000,11.604 6.998,11.322 7.199 C 11.100 7.357,11.020 7.568,11.020 8.000 C 11.020 8.331,11.033 8.403,11.120 8.558 C 11.230 8.755,11.414 8.898,11.635 8.959 C 11.727 8.985,13.095 9.000,15.390 9.000 L 19.000 9.000 19.000 12.610 C 19.000 14.905,19.015 16.273,19.041 16.365 C 19.148 16.750,19.437 16.962,19.896 16.991 C 20.381 17.022,20.699 16.882,20.880 16.558 L 20.980 16.380 20.991 10.589 C 21.002 4.288,21.010 4.534,20.782 4.083 C 20.646 3.816,20.297 3.449,20.017 3.281 C 19.530 2.988,19.923 3.005,13.520 3.005 C 8.921 3.005,7.747 3.016,7.614 3.057 M5.300 6.720 L 5.578 7.000 5.289 7.000 L 5.000 7.000 5.000 6.720 C 5.000 6.566,5.005 6.440,5.011 6.440 C 5.017 6.440,5.147 6.566,5.300 6.720 M12.580 14.000 L 17.580 19.000 11.290 19.000 L 5.000 19.000 5.000 14.000 L 5.000 9.000 6.290 9.000 L 7.580 9.000 12.580 14.000 " stroke="none" fill="black" fill-rule="evenodd"></path></svg>