<svg xmlns="http://www.w3.org/2000/svg" width="24" height="24" viewBox="0 0 24 24" fill="none" stroke="currentColor" stroke-width="2" stroke-linecap="round" stroke-linejoin="round" class="icon icon-tabler icons-tabler-outline icon-tabler-artboard-off"><path d="M2.626 2.045 C 2.420 2.154,2.146 2.433,2.038 2.644 C 1.924 2.868,1.924 3.132,2.040 3.363 C 2.101 3.486,2.867 4.280,4.567 5.984 L 7.006 8.428 7.002 11.844 C 6.998 15.564,6.993 15.471,7.225 15.930 C 7.361 16.199,7.801 16.639,8.070 16.775 C 8.529 17.007,8.436 17.002,12.156 16.998 L 15.572 16.994 18.016 19.433 C 19.720 21.133,20.514 21.899,20.637 21.960 C 20.990 22.137,21.354 22.048,21.701 21.701 C 22.047 21.355,22.136 20.990,21.961 20.637 C 21.839 20.392,3.616 2.165,3.372 2.044 C 3.152 1.934,2.834 1.935,2.626 2.045 M7.614 2.057 C 7.377 2.131,7.212 2.261,7.109 2.453 C 7.027 2.606,7.019 2.684,7.007 3.405 C 6.999 3.880,7.011 4.252,7.037 4.349 C 7.144 4.748,7.430 4.961,7.896 4.991 C 8.381 5.022,8.699 4.882,8.880 4.558 C 8.978 4.383,8.980 4.364,8.980 3.500 C 8.980 2.667,8.975 2.611,8.891 2.453 C 8.842 2.362,8.746 2.247,8.678 2.199 C 8.414 2.010,7.957 1.950,7.614 2.057 M15.614 2.057 C 15.377 2.131,15.212 2.261,15.109 2.453 C 15.027 2.606,15.019 2.684,15.007 3.405 C 14.999 3.880,15.011 4.252,15.037 4.349 C 15.144 4.748,15.430 4.961,15.896 4.991 C 16.381 5.022,16.699 4.882,16.880 4.558 C 16.978 4.383,16.980 4.364,16.980 3.500 C 16.980 2.667,16.975 2.611,16.891 2.453 C 16.842 2.362,16.746 2.247,16.678 2.199 C 16.414 2.010,15.957 1.950,15.614 2.057 M2.614 7.057 C 2.377 7.131,2.212 7.261,2.109 7.453 C 2.035 7.592,2.020 7.684,2.020 8.000 C 2.020 8.331,2.033 8.403,2.120 8.558 C 2.230 8.755,2.414 8.898,2.635 8.959 C 2.823 9.012,4.177 9.012,4.365 8.959 C 4.586 8.898,4.770 8.755,4.880 8.558 C 4.967 8.402,4.980 8.332,4.979 8.000 C 4.978 7.687,4.962 7.591,4.890 7.453 C 4.786 7.256,4.623 7.131,4.371 7.055 C 4.126 6.982,2.851 6.983,2.614 7.057 M11.614 7.057 C 11.377 7.131,11.212 7.261,11.109 7.453 C 11.035 7.592,11.020 7.684,11.020 8.000 C 11.020 8.331,11.033 8.403,11.120 8.558 C 11.230 8.755,11.414 8.898,11.635 8.959 C 11.721 8.983,12.435 9.000,13.390 9.000 L 15.000 9.000 15.000 10.610 C 15.000 11.565,15.017 12.279,15.041 12.365 C 15.148 12.750,15.437 12.962,15.896 12.991 C 16.381 13.022,16.699 12.882,16.880 12.558 L 16.980 12.380 16.992 10.594 C 17.005 8.655,16.992 8.498,16.782 8.083 C 16.646 7.816,16.297 7.449,16.017 7.281 C 15.578 7.017,15.468 7.005,13.520 7.005 C 12.204 7.005,11.739 7.018,11.614 7.057 M19.614 7.057 C 19.377 7.131,19.212 7.261,19.109 7.453 C 19.035 7.592,19.020 7.684,19.020 8.000 C 19.020 8.331,19.033 8.403,19.120 8.558 C 19.230 8.755,19.414 8.898,19.635 8.959 C 19.823 9.012,21.177 9.012,21.365 8.959 C 21.586 8.898,21.770 8.755,21.880 8.558 C 21.967 8.402,21.980 8.332,21.979 8.000 C 21.978 7.687,21.962 7.591,21.890 7.453 C 21.786 7.256,21.623 7.131,21.371 7.055 C 21.126 6.982,19.851 6.983,19.614 7.057 M11.300 12.720 L 13.580 15.000 11.290 15.000 L 9.000 15.000 9.000 12.720 C 9.000 11.466,9.005 10.440,9.010 10.440 C 9.016 10.440,10.046 11.466,11.300 12.720 M2.614 15.057 C 2.377 15.131,2.212 15.261,2.109 15.453 C 2.035 15.592,2.020 15.684,2.020 16.000 C 2.020 16.331,2.033 16.403,2.120 16.558 C 2.230 16.755,2.414 16.898,2.635 16.959 C 2.823 17.012,4.177 17.012,4.365 16.959 C 4.586 16.898,4.770 16.755,4.880 16.558 C 4.967 16.402,4.980 16.332,4.979 16.000 C 4.978 15.687,4.962 15.591,4.890 15.453 C 4.786 15.256,4.623 15.131,4.371 15.055 C 4.126 14.982,2.851 14.983,2.614 15.057 M19.614 15.057 C 19.377 15.131,19.212 15.261,19.109 15.453 C 19.035 15.592,19.020 15.684,19.020 16.000 C 19.020 16.331,19.033 16.403,19.120 16.558 C 19.230 16.755,19.414 16.898,19.635 16.959 C 19.823 17.012,21.177 17.012,21.365 16.959 C 21.586 16.898,21.770 16.755,21.880 16.558 C 21.967 16.402,21.980 16.332,21.979 16.000 C 21.978 15.687,21.962 15.591,21.890 15.453 C 21.786 15.256,21.623 15.131,21.371 15.055 C 21.126 14.982,19.851 14.983,19.614 15.057 M7.614 19.057 C 7.377 19.131,7.212 19.261,7.109 19.453 C 7.027 19.606,7.019 19.684,7.007 20.405 C 6.999 20.880,7.011 21.252,7.037 21.349 C 7.144 21.748,7.430 21.961,7.896 21.991 C 8.381 22.022,8.699 21.882,8.880 21.558 C 8.978 21.383,8.980 21.364,8.980 20.500 C 8.980 19.667,8.975 19.611,8.891 19.453 C 8.842 19.362,8.746 19.247,8.678 19.199 C 8.414 19.010,7.957 18.950,7.614 19.057 M15.614 19.057 C 15.377 19.131,15.212 19.261,15.109 19.453 C 15.027 19.606,15.019 19.684,15.007 20.405 C 14.999 20.880,15.011 21.252,15.037 21.349 C 15.144 21.748,15.430 21.961,15.896 21.991 C 16.381 22.022,16.699 21.882,16.880 21.558 C 16.978 21.383,16.980 21.364,16.980 20.500 C 16.980 19.667,16.975 19.611,16.891 19.453 C 16.842 19.362,16.746 19.247,16.678 19.199 C 16.414 19.010,15.957 18.950,15.614 19.057 " stroke="none" fill="black" fill-rule="evenodd"></path></svg>