<svg xmlns="http://www.w3.org/2000/svg" width="24" height="24" viewBox="0 0 24 24" fill="none" stroke="currentColor" stroke-width="2" stroke-linecap="round" stroke-linejoin="round" class="icon icon-tabler icons-tabler-outline icon-tabler-egg-off"><path d="M2.626 2.045 C 2.420 2.154,2.146 2.433,2.038 2.644 C 1.924 2.868,1.924 3.133,2.040 3.363 C 2.100 3.484,2.694 4.107,3.911 5.328 C 5.267 6.687,5.684 7.128,5.652 7.168 C 5.587 7.251,5.185 8.178,5.006 8.660 C 4.548 9.892,4.212 11.314,4.072 12.620 C 4.004 13.263,4.004 14.876,4.074 15.340 C 4.424 17.677,5.513 19.479,7.300 20.676 C 8.883 21.737,11.068 22.198,13.100 21.900 C 14.948 21.629,16.713 20.781,17.838 19.623 L 18.017 19.440 19.238 20.655 C 20.041 21.454,20.521 21.901,20.637 21.960 C 20.989 22.137,21.354 22.048,21.701 21.701 C 22.047 21.355,22.136 20.990,21.961 20.637 C 21.839 20.392,3.616 2.165,3.372 2.044 C 3.152 1.934,2.834 1.935,2.626 2.045 M11.440 2.045 C 10.294 2.178,9.190 2.751,8.080 3.789 C 7.478 4.351,7.434 4.782,7.923 5.299 C 8.273 5.669,8.629 5.771,8.977 5.600 C 9.067 5.557,9.311 5.367,9.520 5.178 C 10.868 3.962,12.035 3.711,13.320 4.361 C 15.113 5.268,16.837 7.884,17.574 10.820 C 17.869 11.993,17.968 12.832,17.978 14.240 C 17.982 14.845,18.001 15.376,18.019 15.420 C 18.099 15.610,18.227 15.737,18.436 15.834 C 18.621 15.919,18.720 15.938,19.000 15.939 C 19.285 15.940,19.367 15.925,19.503 15.846 C 19.707 15.730,19.861 15.497,19.928 15.205 C 20.008 14.856,19.994 13.122,19.906 12.400 C 19.466 8.798,17.789 5.342,15.580 3.488 C 14.235 2.358,12.864 1.880,11.440 2.045 M11.913 13.333 L 16.606 18.026 16.271 18.343 C 15.366 19.199,14.126 19.747,12.658 19.939 C 12.075 20.016,11.665 20.016,11.059 19.940 C 9.020 19.684,7.507 18.688,6.676 17.054 C 6.416 16.543,6.274 16.140,6.163 15.600 C 5.854 14.099,6.031 12.021,6.635 10.080 C 6.836 9.433,7.144 8.640,7.195 8.640 C 7.209 8.640,9.332 10.752,11.913 13.333 " stroke="none" fill="black" fill-rule="evenodd"></path></svg>