<svg xmlns="http://www.w3.org/2000/svg" width="24" height="24" viewBox="0 0 24 24" fill="none" stroke="currentColor" stroke-width="2" stroke-linecap="round" stroke-linejoin="round" class="icon icon-tabler icons-tabler-outline icon-tabler-shopping-cart-cancel"><path d="M3.614 2.057 C 3.377 2.131,3.212 2.261,3.109 2.453 C 3.035 2.592,3.020 2.684,3.020 3.000 C 3.020 3.331,3.033 3.403,3.120 3.558 C 3.230 3.755,3.414 3.898,3.635 3.959 C 3.715 3.981,4.054 4.000,4.390 4.000 L 5.000 4.000 5.000 10.073 L 5.000 16.145 4.670 16.313 C 3.922 16.693,3.365 17.355,3.114 18.160 C 2.979 18.594,2.979 19.406,3.114 19.840 C 3.421 20.826,4.174 21.579,5.160 21.886 C 5.594 22.021,6.406 22.021,6.840 21.886 C 7.826 21.579,8.579 20.826,8.886 19.840 C 9.032 19.372,9.015 18.479,8.854 18.057 C 8.835 18.008,9.069 18.000,10.526 18.000 C 11.537 18.000,12.278 17.983,12.365 17.959 C 12.586 17.898,12.770 17.755,12.880 17.558 C 12.967 17.402,12.980 17.332,12.979 17.000 C 12.978 16.567,12.898 16.355,12.678 16.199 C 12.403 16.003,12.363 16.000,9.594 16.000 L 7.000 16.000 7.000 15.000 L 7.000 14.000 11.353 14.000 C 16.159 14.000,15.979 14.009,16.229 13.751 C 16.418 13.556,16.486 13.355,16.486 12.997 C 16.486 12.491,16.303 12.196,15.909 12.064 C 15.738 12.007,15.245 12.000,11.359 12.000 L 7.000 12.000 7.000 9.040 C 7.000 7.412,7.010 6.080,7.023 6.080 C 7.180 6.080,18.819 6.926,18.832 6.938 C 18.841 6.948,18.684 8.111,18.483 9.523 C 18.076 12.372,18.077 12.353,18.320 12.647 C 18.565 12.944,19.191 13.091,19.579 12.943 C 19.792 12.861,20.007 12.627,20.074 12.403 C 20.100 12.316,20.320 10.862,20.563 9.172 C 21.031 5.921,21.046 5.751,20.891 5.452 C 20.786 5.247,20.536 5.085,20.251 5.037 C 20.070 5.007,7.306 4.080,7.067 4.080 C 7.017 4.080,7.005 3.960,6.993 3.350 C 6.979 2.691,6.969 2.604,6.890 2.453 C 6.786 2.256,6.622 2.131,6.371 2.055 C 6.117 1.979,3.859 1.981,3.614 2.057 M18.358 15.061 C 17.230 15.237,16.143 15.974,15.569 16.953 C 14.320 19.083,15.233 21.785,17.512 22.704 C 19.558 23.528,21.877 22.538,22.704 20.488 C 23.090 19.530,23.090 18.469,22.705 17.516 C 22.172 16.197,21.001 15.269,19.605 15.058 C 19.144 14.989,18.816 14.990,18.358 15.061 M19.470 17.057 C 19.485 17.071,18.954 17.626,18.290 18.290 C 17.626 18.954,17.072 19.486,17.059 19.472 C 17.045 19.459,17.024 19.314,17.012 19.150 C 16.940 18.202,17.563 17.318,18.477 17.071 C 18.735 17.001,19.405 16.991,19.470 17.057 M6.310 18.061 C 6.688 18.173,7.000 18.598,7.000 19.001 C 7.000 19.331,6.784 19.696,6.484 19.872 C 6.328 19.963,6.254 19.980,6.000 19.980 C 5.746 19.980,5.672 19.963,5.516 19.872 C 4.935 19.530,4.833 18.774,5.304 18.303 C 5.583 18.024,5.916 17.944,6.310 18.061 M20.982 18.784 C 21.047 19.396,20.844 19.961,20.398 20.410 C 20.104 20.705,19.779 20.885,19.404 20.963 C 19.181 21.010,18.584 20.997,18.532 20.945 C 18.504 20.918,20.872 18.520,20.927 18.520 C 20.941 18.520,20.966 18.639,20.982 18.784 " stroke="none" fill="black" fill-rule="evenodd"></path></svg>