<svg xmlns="http://www.w3.org/2000/svg" width="24" height="24" viewBox="0 0 24 24" fill="none" stroke="currentColor" stroke-width="2" stroke-linecap="round" stroke-linejoin="round" class="icon icon-tabler icons-tabler-outline icon-tabler-bath-off"><path d="M2.626 2.045 C 2.420 2.154,2.146 2.433,2.038 2.644 C 1.924 2.868,1.924 3.133,2.040 3.363 C 2.100 3.481,2.603 4.016,3.565 4.981 L 5.000 6.422 5.000 8.711 L 5.000 11.000 4.370 11.002 C 3.910 11.004,3.669 11.023,3.477 11.073 C 2.785 11.254,2.184 11.886,2.039 12.585 C 2.009 12.727,2.000 13.432,2.011 14.748 C 2.024 16.427,2.036 16.742,2.096 17.000 C 2.318 17.953,2.731 18.745,3.348 19.401 L 3.650 19.722 3.367 20.151 C 3.029 20.663,2.960 20.817,2.960 21.063 C 2.960 21.304,3.046 21.479,3.266 21.681 C 3.628 22.015,4.075 22.127,4.392 21.964 C 4.595 21.859,4.741 21.694,5.076 21.190 C 5.233 20.953,5.381 20.760,5.404 20.760 C 5.428 20.760,5.585 20.795,5.753 20.837 C 6.410 21.003,6.489 21.005,12.220 20.990 L 17.740 20.976 18.100 20.884 C 18.298 20.834,18.499 20.783,18.546 20.772 C 18.620 20.755,18.677 20.818,18.922 21.186 C 19.259 21.694,19.405 21.859,19.608 21.964 C 19.800 22.062,20.091 22.061,20.313 21.960 C 20.486 21.881,20.486 21.881,20.650 21.965 C 20.987 22.137,21.359 22.044,21.701 21.701 C 22.048 21.355,22.137 20.990,21.961 20.637 C 21.887 20.489,18.066 16.614,12.747 11.293 C 12.699 11.245,11.355 9.901,9.760 8.306 C 8.165 6.711,6.815 5.361,6.760 5.305 C 5.629 4.156,3.503 2.111,3.372 2.045 C 3.152 1.934,2.835 1.934,2.626 2.045 M7.402 2.066 C 7.064 2.133,6.603 2.333,6.409 2.498 C 6.220 2.658,6.147 2.823,6.147 3.091 C 6.147 3.282,6.174 3.377,6.303 3.628 C 6.594 4.195,6.900 4.311,7.554 4.104 C 7.875 4.003,7.913 4.000,8.942 4.000 L 10.000 4.000 10.000 4.739 C 10.000 5.308,10.015 5.521,10.064 5.669 C 10.192 6.053,10.499 6.240,11.002 6.240 C 11.506 6.240,11.816 6.048,11.938 5.661 C 11.996 5.476,12.003 5.266,11.992 4.034 C 11.980 2.660,11.977 2.615,11.891 2.453 C 11.785 2.256,11.622 2.131,11.371 2.055 C 11.100 1.974,7.827 1.983,7.402 2.066 M8.300 9.720 L 9.580 11.000 8.290 11.000 L 7.000 11.000 7.000 9.720 C 7.000 9.016,7.005 8.440,7.010 8.440 C 7.016 8.440,7.596 9.016,8.300 9.720 M15.614 11.057 C 15.377 11.131,15.212 11.261,15.109 11.453 C 15.035 11.592,15.020 11.684,15.020 12.000 C 15.020 12.331,15.033 12.403,15.120 12.558 C 15.230 12.755,15.414 12.898,15.635 12.959 C 15.724 12.984,16.600 13.000,17.890 13.000 L 20.000 13.000 20.000 14.590 C 20.000 15.804,19.986 16.265,19.941 16.540 C 19.908 16.738,19.881 16.954,19.881 17.020 C 19.879 17.544,20.330 17.899,21.000 17.900 C 21.245 17.900,21.327 17.883,21.450 17.807 C 21.649 17.683,21.798 17.419,21.894 17.023 C 21.965 16.731,21.974 16.515,21.989 14.758 C 22.007 12.644,21.996 12.506,21.782 12.083 C 21.646 11.816,21.297 11.449,21.017 11.281 C 20.565 11.009,20.522 11.005,18.020 11.005 C 16.294 11.005,15.742 11.017,15.614 11.057 M14.556 15.976 L 17.532 18.953 17.316 18.979 C 17.197 18.993,14.697 18.999,11.760 18.992 L 6.420 18.980 6.140 18.886 C 5.157 18.556,4.420 17.816,4.123 16.861 C 4.024 16.543,4.023 16.523,4.009 14.770 L 3.995 13.000 7.787 13.000 L 11.580 13.000 14.556 15.976 " stroke="none" fill="black" fill-rule="evenodd"></path></svg>