<svg xmlns="http://www.w3.org/2000/svg" width="24" height="24" viewBox="0 0 24 24" fill="none" stroke="currentColor" stroke-width="2" stroke-linecap="round" stroke-linejoin="round" class="icon icon-tabler icons-tabler-outline icon-tabler-trash-off"><path d="M2.626 2.045 C 2.257 2.239,1.951 2.673,1.951 3.000 C 1.951 3.333,2.056 3.467,3.353 4.770 L 4.577 6.000 4.195 6.000 C 3.382 6.000,3.051 6.251,3.009 6.900 C 2.967 7.552,3.261 7.937,3.842 7.990 C 3.973 8.001,4.080 8.018,4.080 8.026 C 4.080 8.035,4.296 10.638,4.560 13.811 C 4.957 18.583,5.054 19.628,5.124 19.860 C 5.408 20.812,6.180 21.580,7.160 21.886 L 7.460 21.980 12.000 21.980 L 16.540 21.980 16.840 21.886 C 17.598 21.650,18.289 21.091,18.644 20.426 L 18.769 20.193 19.614 21.031 C 20.138 21.551,20.527 21.904,20.637 21.960 C 20.989 22.137,21.354 22.048,21.701 21.701 C 22.048 21.354,22.137 20.989,21.960 20.637 C 21.888 20.496,20.069 18.599,18.828 17.373 C 18.748 17.293,14.996 13.543,14.760 13.306 C 14.705 13.251,13.130 11.676,11.260 9.806 C 9.390 7.936,7.815 6.361,7.760 6.305 C 7.705 6.249,6.733 5.287,5.600 4.167 C 4.268 2.849,3.480 2.099,3.372 2.045 C 3.152 1.934,2.835 1.934,2.626 2.045 M9.477 2.073 C 8.806 2.249,8.238 2.823,8.060 3.508 C 7.990 3.777,7.976 5.131,8.041 5.365 C 8.148 5.750,8.437 5.962,8.896 5.991 C 9.381 6.022,9.699 5.882,9.880 5.558 C 9.974 5.391,9.981 5.338,9.994 4.690 L 10.008 4.000 12.004 4.000 L 14.000 4.000 14.000 5.000 L 14.000 6.000 12.406 6.000 C 10.710 6.000,10.584 6.012,10.322 6.199 C 10.100 6.357,10.020 6.568,10.020 7.000 C 10.020 7.331,10.033 7.403,10.120 7.558 C 10.230 7.755,10.414 7.898,10.635 7.959 C 10.727 7.985,12.082 8.000,14.349 8.000 L 17.918 8.000 17.898 8.170 C 17.842 8.639,17.397 14.129,17.394 14.400 C 17.385 15.074,17.753 15.389,18.507 15.355 C 18.917 15.336,19.103 15.225,19.258 14.907 C 19.362 14.696,19.371 14.608,19.642 11.375 C 19.795 9.552,19.920 8.049,19.920 8.036 C 19.920 8.022,20.025 8.002,20.153 7.990 C 20.397 7.968,20.655 7.860,20.765 7.734 C 20.933 7.543,20.978 7.387,20.978 7.000 C 20.978 6.567,20.899 6.356,20.678 6.199 C 20.408 6.006,20.326 6.000,18.094 6.000 L 16.000 6.000 15.999 4.890 C 15.999 3.691,15.970 3.456,15.781 3.083 C 15.646 2.816,15.297 2.449,15.017 2.281 C 14.564 2.008,14.524 2.005,12.000 2.005 C 9.992 2.005,9.711 2.012,9.477 2.073 M7.830 9.250 L 9.080 10.500 9.040 10.640 C 8.985 10.830,8.986 17.168,9.041 17.365 C 9.148 17.750,9.437 17.962,9.896 17.991 C 10.381 18.022,10.699 17.882,10.880 17.558 L 10.980 17.380 10.991 14.902 L 11.003 12.424 12.001 13.421 L 13.000 14.419 13.000 15.820 C 13.000 16.634,13.017 17.281,13.041 17.365 C 13.148 17.750,13.437 17.962,13.896 17.991 C 14.381 18.022,14.700 17.881,14.878 17.559 C 14.963 17.406,14.979 17.317,14.993 16.906 L 15.010 16.431 16.026 17.445 L 17.041 18.460 17.018 18.760 C 16.969 19.393,16.840 19.663,16.486 19.871 L 16.300 19.980 12.000 19.980 L 7.700 19.980 7.516 19.872 C 7.324 19.759,7.151 19.563,7.076 19.373 C 7.051 19.311,6.827 16.812,6.578 13.820 C 6.329 10.828,6.116 8.295,6.104 8.190 L 6.084 8.000 6.332 8.000 L 6.580 8.000 7.830 9.250 " stroke="none" fill="black" fill-rule="evenodd"></path></svg>