<svg xmlns="http://www.w3.org/2000/svg" width="24" height="24" viewBox="0 0 24 24" fill="none" stroke="currentColor" stroke-width="2" stroke-linecap="round" stroke-linejoin="round" class="icon icon-tabler icons-tabler-outline icon-tabler-file-type-html"><path d="M6.499 2.043 C 5.393 2.228,4.488 3.024,4.114 4.140 L 4.020 4.420 4.009 8.311 C 4.001 10.892,4.011 12.253,4.039 12.355 C 4.144 12.747,4.433 12.961,4.896 12.991 C 5.381 13.022,5.699 12.882,5.880 12.558 L 5.980 12.380 6.000 8.560 C 6.022 4.280,5.999 4.597,6.321 4.283 C 6.622 3.992,6.514 4.000,9.947 4.000 L 13.000 4.000 13.000 5.632 C 13.000 7.399,13.010 7.507,13.225 7.930 C 13.361 8.199,13.801 8.639,14.070 8.775 C 14.493 8.990,14.601 9.000,16.368 9.000 L 18.000 9.000 18.000 10.610 C 18.000 11.565,18.017 12.279,18.041 12.365 C 18.148 12.750,18.437 12.962,18.896 12.991 C 19.381 13.022,19.699 12.882,19.880 12.558 L 19.980 12.380 19.980 10.000 L 19.980 7.620 19.890 7.452 C 19.841 7.360,19.724 7.231,19.630 7.165 C 19.498 7.073,15.263 2.838,14.719 2.254 C 14.473 1.991,14.626 2.000,10.463 2.005 C 8.393 2.007,6.609 2.025,6.499 2.043 M15.800 6.220 L 16.579 7.000 15.790 7.000 L 15.000 7.000 15.000 6.220 C 15.000 5.791,15.005 5.440,15.010 5.440 C 15.016 5.440,15.371 5.791,15.800 6.220 M16.620 14.026 C 16.395 14.144,16.245 14.330,15.636 15.246 C 15.302 15.748,15.016 16.160,15.001 16.160 C 14.986 16.160,14.691 15.737,14.345 15.219 C 13.658 14.193,13.581 14.114,13.187 14.031 C 12.747 13.939,12.288 14.117,12.111 14.450 L 12.020 14.620 12.009 17.912 C 12.002 20.060,12.012 21.257,12.039 21.356 C 12.144 21.747,12.434 21.961,12.896 21.991 C 13.381 22.022,13.699 21.882,13.880 21.558 L 13.980 21.380 13.992 19.844 L 14.004 18.308 14.108 18.464 C 14.469 19.010,14.874 19.167,15.340 18.943 C 15.584 18.826,15.714 18.715,15.876 18.484 L 16.000 18.308 16.000 19.764 C 16.000 20.616,16.017 21.280,16.041 21.365 C 16.148 21.750,16.437 21.962,16.896 21.991 C 17.381 22.022,17.699 21.882,17.880 21.558 L 17.980 21.380 17.991 18.124 C 18.001 15.187,17.996 14.848,17.936 14.669 C 17.767 14.159,17.041 13.805,16.620 14.026 M1.614 14.057 C 1.377 14.131,1.212 14.261,1.109 14.453 L 1.020 14.620 1.009 17.912 C 1.002 20.060,1.012 21.257,1.039 21.356 C 1.144 21.747,1.434 21.961,1.896 21.991 C 2.381 22.022,2.699 21.882,2.880 21.558 C 2.979 21.381,2.980 21.374,2.993 20.190 L 3.005 19.000 3.503 19.000 L 4.000 19.000 4.000 20.110 C 4.000 20.730,4.018 21.284,4.041 21.365 C 4.148 21.750,4.437 21.962,4.896 21.991 C 5.381 22.022,5.699 21.882,5.880 21.558 L 5.980 21.380 5.980 18.000 L 5.980 14.620 5.889 14.450 C 5.724 14.140,5.329 13.970,4.874 14.011 C 4.439 14.051,4.141 14.274,4.041 14.635 C 4.018 14.716,4.000 15.270,4.000 15.890 L 4.000 17.000 3.503 17.000 L 3.005 17.000 2.993 15.810 C 2.981 14.669,2.976 14.613,2.891 14.453 C 2.842 14.362,2.746 14.247,2.678 14.199 C 2.414 14.010,1.957 13.950,1.614 14.057 M7.180 14.039 C 6.715 14.159,6.514 14.447,6.512 14.997 C 6.510 15.348,6.582 15.556,6.771 15.751 C 6.938 15.923,7.208 16.000,7.647 16.000 L 8.000 16.000 8.000 18.610 C 8.000 20.235,8.016 21.275,8.041 21.365 C 8.148 21.750,8.437 21.962,8.896 21.991 C 9.381 22.022,9.699 21.882,9.880 21.558 L 9.980 21.380 9.991 18.690 L 10.003 16.000 10.354 16.000 C 11.156 16.000,11.486 15.707,11.486 14.997 C 11.486 14.491,11.303 14.196,10.909 14.064 C 10.744 14.009,10.475 14.001,9.009 14.004 C 8.069 14.006,7.246 14.022,7.180 14.039 M19.614 14.057 C 19.377 14.131,19.212 14.261,19.109 14.453 L 19.020 14.620 19.009 17.912 C 19.002 20.060,19.012 21.257,19.039 21.356 C 19.100 21.584,19.242 21.768,19.442 21.880 L 19.620 21.980 20.908 21.992 C 21.720 22.000,22.254 21.989,22.352 21.962 C 22.583 21.900,22.768 21.759,22.880 21.558 C 22.967 21.402,22.980 21.332,22.979 21.000 C 22.978 20.687,22.962 20.591,22.890 20.453 C 22.702 20.097,22.424 20.000,21.595 20.000 L 21.003 20.000 20.991 17.310 L 20.980 14.620 20.891 14.453 C 20.842 14.362,20.746 14.247,20.678 14.199 C 20.414 14.010,19.957 13.950,19.614 14.057 " stroke="none" fill="black" fill-rule="evenodd"></path></svg>