<svg xmlns="http://www.w3.org/2000/svg" width="24" height="24" viewBox="0 0 24 24" fill="none" stroke="currentColor" stroke-width="2" stroke-linecap="round" stroke-linejoin="round" class="icon icon-tabler icons-tabler-outline icon-tabler-brand-mastodon"><path d="M10.600 2.023 C 8.249 2.148,6.567 2.573,5.395 3.340 C 4.577 3.875,3.727 5.023,3.378 6.061 C 3.112 6.853,3.038 7.511,3.012 9.280 C 2.960 12.877,3.188 14.855,3.863 16.667 C 4.681 18.862,6.174 20.490,8.120 21.309 C 10.413 22.274,13.353 22.224,16.080 21.173 C 17.495 20.627,18.564 19.866,18.664 19.332 C 18.746 18.896,18.582 18.415,18.290 18.233 L 18.140 18.140 16.120 18.138 C 14.054 18.135,13.765 18.119,12.900 17.953 L 12.620 17.900 12.840 17.890 C 14.385 17.820,15.969 17.573,17.009 17.240 C 18.157 16.873,18.856 16.469,19.487 15.809 C 20.324 14.932,20.704 14.011,20.908 12.360 C 20.968 11.877,20.980 11.463,20.980 9.880 C 20.980 7.912,20.956 7.486,20.800 6.733 C 20.640 5.961,20.363 5.323,19.896 4.651 C 19.561 4.170,18.998 3.598,18.605 3.340 C 17.607 2.686,16.285 2.294,14.418 2.098 C 13.853 2.039,11.268 1.988,10.600 2.023 M13.530 4.039 C 14.693 4.108,15.777 4.285,16.497 4.524 C 17.274 4.783,17.751 5.120,18.206 5.733 C 18.631 6.304,18.816 6.813,18.927 7.720 C 18.998 8.295,18.999 11.415,18.929 12.020 C 18.788 13.231,18.622 13.719,18.150 14.306 C 17.618 14.968,16.651 15.388,15.039 15.656 C 13.935 15.840,13.112 15.892,11.700 15.868 C 10.481 15.848,10.272 15.832,9.007 15.666 C 8.601 15.612,8.331 15.629,8.165 15.717 C 7.921 15.848,7.718 16.269,7.722 16.637 C 7.724 16.881,7.788 17.044,8.014 17.387 C 8.378 17.939,8.996 18.516,9.628 18.895 C 10.347 19.325,11.409 19.703,12.420 19.887 L 12.700 19.938 12.540 19.967 C 12.259 20.017,11.190 20.002,10.729 19.941 C 9.331 19.757,8.316 19.319,7.413 18.512 C 6.192 17.419,5.458 15.790,5.159 13.506 C 5.054 12.702,4.983 10.543,5.015 9.100 C 5.058 7.145,5.200 6.532,5.793 5.734 C 6.220 5.159,6.648 4.839,7.335 4.581 C 8.057 4.309,9.380 4.085,10.620 4.027 C 11.216 3.998,12.959 4.006,13.530 4.039 M9.660 5.022 C 9.616 5.032,9.481 5.060,9.360 5.084 C 9.042 5.145,8.459 5.441,8.170 5.687 C 7.677 6.107,7.298 6.702,7.113 7.346 C 7.024 7.656,7.022 7.693,7.009 10.429 C 7.001 12.266,7.010 13.250,7.038 13.353 C 7.144 13.747,7.432 13.961,7.896 13.991 C 8.381 14.022,8.699 13.882,8.880 13.558 L 8.980 13.380 9.000 10.640 L 9.020 7.900 9.124 7.680 C 9.268 7.374,9.423 7.204,9.658 7.095 C 9.913 6.976,10.087 6.976,10.342 7.095 C 10.566 7.199,10.752 7.407,10.891 7.707 C 10.978 7.895,10.980 7.943,11.000 9.740 L 11.020 11.580 11.120 11.758 C 11.287 12.056,11.572 12.200,12.000 12.200 C 12.428 12.200,12.713 12.056,12.880 11.758 L 12.980 11.580 13.000 9.740 L 13.020 7.900 13.124 7.680 C 13.268 7.374,13.423 7.204,13.658 7.095 C 13.913 6.976,14.087 6.976,14.342 7.095 C 14.566 7.199,14.752 7.407,14.891 7.707 C 14.980 7.899,14.980 7.911,15.000 10.640 L 15.020 13.380 15.120 13.558 C 15.287 13.856,15.572 14.000,16.000 14.000 C 16.428 14.000,16.713 13.856,16.880 13.558 L 16.980 13.380 16.992 10.720 C 17.000 8.965,16.990 7.958,16.961 7.760 C 16.843 6.938,16.447 6.213,15.830 5.687 C 15.554 5.452,14.981 5.157,14.640 5.075 C 14.357 5.006,13.643 5.006,13.360 5.075 C 13.052 5.149,12.457 5.444,12.226 5.637 C 12.119 5.727,12.017 5.800,12.000 5.800 C 11.983 5.800,11.881 5.727,11.774 5.638 C 11.543 5.445,11.027 5.181,10.720 5.098 C 10.497 5.038,9.806 4.988,9.660 5.022 " stroke="none" fill="black" fill-rule="evenodd"></path></svg>