<svg xmlns="http://www.w3.org/2000/svg" width="24" height="24" viewBox="0 0 24 24" fill="none" stroke="currentColor" stroke-width="2" stroke-linecap="round" stroke-linejoin="round" class="icon icon-tabler icons-tabler-outline icon-tabler-sun-moon"><path d="M20.620 2.046 C 20.522 2.097,19.362 3.225,17.610 4.973 L 14.761 7.818 14.370 7.612 C 13.133 6.957,11.787 6.830,10.486 7.246 C 9.194 7.659,8.099 8.603,7.511 9.811 C 7.162 10.527,7.020 11.162,7.020 12.000 C 7.020 12.979,7.234 13.757,7.744 14.629 L 7.820 14.758 4.974 17.609 C 2.974 19.612,2.102 20.513,2.039 20.637 C 1.863 20.990,1.952 21.354,2.299 21.701 C 2.646 22.048,3.011 22.137,3.363 21.960 C 3.477 21.902,3.919 21.494,4.608 20.809 L 5.675 19.748 6.028 20.010 C 7.977 21.458,10.534 22.189,12.846 21.959 C 15.886 21.656,18.452 20.178,20.199 17.723 C 20.676 17.052,21.272 15.879,21.311 15.533 C 21.351 15.178,21.073 14.642,20.775 14.500 C 20.530 14.384,20.247 14.409,19.720 14.595 C 18.820 14.912,18.129 15.023,17.269 14.989 C 15.597 14.921,14.041 14.242,12.901 13.083 L 12.621 12.799 17.247 8.170 C 20.556 4.857,21.897 3.490,21.961 3.363 C 22.137 3.010,22.048 2.645,21.701 2.299 C 21.361 1.959,20.967 1.867,20.620 2.046 M11.614 2.057 C 11.377 2.131,11.212 2.261,11.109 2.453 C 11.027 2.606,11.019 2.684,11.007 3.405 C 10.999 3.880,11.011 4.252,11.037 4.349 C 11.144 4.748,11.430 4.961,11.896 4.991 C 12.381 5.022,12.699 4.882,12.880 4.558 C 12.978 4.383,12.980 4.364,12.980 3.500 C 12.980 2.667,12.975 2.611,12.891 2.453 C 12.842 2.362,12.746 2.247,12.678 2.199 C 12.414 2.010,11.957 1.950,11.614 2.057 M5.226 4.645 C 4.857 4.839,4.551 5.273,4.551 5.600 C 4.551 5.897,4.682 6.093,5.274 6.684 C 5.882 7.289,6.046 7.388,6.384 7.350 C 6.795 7.303,7.311 6.778,7.350 6.365 C 7.381 6.045,7.266 5.859,6.664 5.255 C 6.376 4.966,6.064 4.691,5.972 4.645 C 5.752 4.534,5.435 4.534,5.226 4.645 M12.836 9.120 C 12.999 9.166,13.168 9.223,13.211 9.246 C 13.283 9.284,13.092 9.487,11.295 11.285 C 9.604 12.976,9.293 13.271,9.254 13.218 C 9.228 13.183,9.166 13.007,9.115 12.827 C 8.982 12.355,8.986 11.597,9.125 11.139 C 9.276 10.644,9.483 10.309,9.896 9.896 C 10.393 9.399,10.842 9.159,11.499 9.040 C 11.811 8.984,12.498 9.025,12.836 9.120 M2.614 11.057 C 2.377 11.131,2.212 11.261,2.109 11.453 C 2.035 11.592,2.020 11.684,2.020 12.000 C 2.020 12.331,2.033 12.403,2.120 12.558 C 2.230 12.755,2.414 12.898,2.635 12.959 C 2.823 13.012,4.177 13.012,4.365 12.959 C 4.586 12.898,4.770 12.755,4.880 12.558 C 4.967 12.402,4.980 12.332,4.979 12.000 C 4.978 11.687,4.962 11.591,4.890 11.453 C 4.786 11.256,4.623 11.131,4.371 11.055 C 4.126 10.982,2.851 10.983,2.614 11.057 M12.282 15.201 C 13.245 15.936,14.328 16.457,15.509 16.757 C 16.133 16.915,16.706 16.979,17.490 16.980 C 17.903 16.980,18.240 16.994,18.240 17.011 C 18.240 17.028,18.002 17.282,17.710 17.576 C 16.746 18.545,15.738 19.182,14.540 19.576 C 12.697 20.182,10.873 20.129,9.026 19.417 C 8.467 19.202,7.637 18.735,7.181 18.380 C 7.106 18.321,7.194 18.226,9.150 16.269 L 11.198 14.220 11.589 14.596 C 11.804 14.802,12.116 15.075,12.282 15.201 " stroke="none" fill="black" fill-rule="evenodd"></path></svg>