<svg xmlns="http://www.w3.org/2000/svg" width="24" height="24" viewBox="0 0 24 24" fill="none" stroke="currentColor" stroke-width="2" stroke-linecap="round" stroke-linejoin="round" class="icon icon-tabler icons-tabler-outline icon-tabler-alert-square-rounded-off"><path d="M2.626 2.045 C 2.257 2.239,1.951 2.673,1.951 3.000 C 1.951 3.302,2.081 3.490,2.789 4.206 L 3.447 4.872 3.247 5.206 C 2.749 6.037,2.389 7.183,2.205 8.520 C 2.051 9.633,2.021 10.208,2.021 12.000 C 2.021 13.792,2.051 14.367,2.205 15.480 C 2.744 19.396,4.610 21.251,8.560 21.800 C 9.623 21.948,10.220 21.979,12.000 21.979 C 13.780 21.979,14.377 21.948,15.440 21.800 C 16.837 21.606,17.984 21.244,18.834 20.730 L 19.127 20.552 19.794 21.211 C 20.184 21.596,20.533 21.906,20.637 21.959 C 20.988 22.137,21.354 22.049,21.701 21.701 C 22.047 21.355,22.136 20.990,21.961 20.637 C 21.839 20.392,3.616 2.165,3.372 2.044 C 3.152 1.934,2.834 1.935,2.626 2.045 M10.366 2.044 C 9.189 2.103,8.030 2.251,7.273 2.439 C 6.580 2.612,6.310 2.990,6.441 3.604 C 6.550 4.117,6.872 4.440,7.273 4.440 C 7.373 4.440,7.717 4.387,8.037 4.322 C 10.103 3.903,13.832 3.893,15.871 4.302 C 17.079 4.545,17.986 4.973,18.542 5.565 C 19.409 6.488,19.832 7.960,19.959 10.500 C 20.062 12.557,19.957 14.587,19.678 15.963 C 19.613 16.283,19.560 16.609,19.560 16.687 C 19.560 17.155,19.942 17.502,20.548 17.582 C 21.010 17.643,21.371 17.386,21.518 16.891 C 21.678 16.350,21.820 15.460,21.927 14.320 C 21.996 13.582,21.997 10.451,21.928 9.680 C 21.808 8.345,21.646 7.466,21.361 6.599 C 20.624 4.354,19.222 3.081,16.803 2.459 C 15.348 2.086,12.818 1.923,10.366 2.044 M11.614 6.057 C 11.377 6.131,11.212 6.261,11.109 6.453 C 11.027 6.606,11.019 6.684,11.007 7.405 C 10.999 7.880,11.011 8.252,11.037 8.349 C 11.144 8.748,11.430 8.961,11.896 8.991 C 12.381 9.022,12.699 8.882,12.880 8.558 C 12.978 8.383,12.980 8.364,12.980 7.500 C 12.980 6.667,12.975 6.611,12.891 6.453 C 12.842 6.362,12.746 6.247,12.678 6.199 C 12.414 6.010,11.957 5.950,11.614 6.057 M11.290 12.710 C 14.782 16.202,17.640 19.074,17.640 19.092 C 17.640 19.139,17.175 19.339,16.741 19.478 C 15.630 19.834,14.114 20.000,11.992 20.000 C 8.139 19.999,6.136 19.439,5.174 18.094 C 4.498 17.147,4.154 15.753,4.041 13.500 C 3.914 10.968,4.098 8.584,4.521 7.264 C 4.654 6.849,4.864 6.360,4.910 6.360 C 4.927 6.360,7.797 9.217,11.290 12.710 M11.614 15.055 C 11.220 15.184,11.039 15.437,11.009 15.900 C 10.978 16.381,11.119 16.699,11.442 16.880 C 11.597 16.967,11.669 16.980,12.000 16.980 C 12.312 16.980,12.408 16.964,12.540 16.894 C 12.866 16.718,13.000 16.459,13.000 16.000 C 13.000 15.357,12.713 15.048,12.083 15.016 C 11.893 15.006,11.718 15.021,11.614 15.055 " stroke="none" fill="black" fill-rule="evenodd"></path></svg>