<svg xmlns="http://www.w3.org/2000/svg" width="24" height="24" viewBox="0 0 24 24" fill="none" stroke="currentColor" stroke-width="2" stroke-linecap="round" stroke-linejoin="round" class="icon icon-tabler icons-tabler-outline icon-tabler-hand-finger-off"><path d="M2.626 2.045 C 2.420 2.154,2.146 2.433,2.038 2.644 C 1.924 2.868,1.924 3.132,2.040 3.363 C 2.101 3.486,2.866 4.279,4.564 5.981 L 7.000 8.421 7.000 9.513 L 7.000 10.604 6.817 10.478 C 5.978 9.901,4.811 9.838,3.883 10.321 C 3.066 10.746,2.577 11.512,2.530 12.440 C 2.493 13.152,2.511 13.192,4.047 15.900 C 5.955 19.262,6.321 19.861,6.880 20.531 C 7.986 21.855,9.564 22.709,11.340 22.944 C 11.729 22.995,12.109 23.004,13.340 22.990 C 14.717 22.975,14.901 22.965,15.295 22.884 C 15.946 22.751,16.516 22.552,17.140 22.240 C 17.808 21.907,18.313 21.553,18.848 21.044 L 19.243 20.669 19.852 21.269 C 20.198 21.611,20.536 21.908,20.637 21.959 C 20.988 22.137,21.353 22.049,21.701 21.701 C 22.048 21.355,22.137 20.990,21.961 20.637 C 21.897 20.511,20.434 19.016,16.853 15.420 C 14.093 12.648,11.795 10.341,11.747 10.292 C 11.699 10.244,11.030 9.575,10.260 8.805 C 9.490 8.036,8.815 7.361,8.760 7.305 C 8.705 7.250,7.508 6.062,6.100 4.667 C 4.415 2.996,3.482 2.100,3.372 2.044 C 3.152 1.934,2.835 1.935,2.626 2.045 M8.947 2.059 C 8.368 2.186,7.719 2.640,7.404 3.139 C 7.030 3.730,6.946 4.311,7.184 4.649 C 7.396 4.951,7.979 5.161,8.364 5.075 C 8.644 5.012,8.792 4.869,8.965 4.493 C 9.185 4.018,9.435 3.887,9.752 4.081 C 9.991 4.227,10.000 4.287,10.000 5.829 C 10.000 6.637,10.017 7.281,10.041 7.365 C 10.139 7.719,10.424 7.948,10.820 7.988 C 10.958 8.003,11.040 8.030,11.040 8.061 C 11.040 8.231,11.220 8.662,11.352 8.809 C 11.596 9.079,11.836 9.134,12.327 9.032 C 12.526 8.991,12.577 8.994,12.697 9.051 C 12.937 9.165,12.977 9.272,13.002 9.858 C 13.032 10.560,13.139 10.769,13.567 10.958 C 14.245 11.258,14.766 11.073,14.993 10.452 C 15.135 10.061,15.403 9.917,15.708 10.066 C 15.978 10.198,16.000 10.292,16.000 11.320 C 16.000 11.815,16.019 12.285,16.041 12.365 C 16.148 12.750,16.437 12.962,16.896 12.991 C 17.382 13.022,17.700 12.881,17.879 12.558 C 17.965 12.402,17.979 12.319,17.993 11.880 C 18.011 11.323,18.051 11.201,18.252 11.078 C 18.415 10.979,18.585 10.979,18.748 11.078 C 19.008 11.237,19.000 11.146,19.000 13.808 C 19.000 15.300,19.016 16.275,19.041 16.365 C 19.148 16.750,19.437 16.962,19.896 16.991 C 20.381 17.022,20.699 16.882,20.880 16.558 L 20.980 16.380 20.980 13.680 L 20.980 10.980 20.869 10.680 C 20.481 9.625,19.454 8.944,18.360 9.014 C 18.173 9.026,17.930 9.063,17.820 9.097 L 17.620 9.158 17.524 9.029 C 16.906 8.205,15.763 7.813,14.817 8.099 L 14.620 8.159 14.543 8.050 C 14.400 7.844,14.014 7.500,13.757 7.349 C 13.338 7.102,13.018 7.021,12.473 7.023 L 12.005 7.025 11.992 5.502 L 11.978 3.980 11.864 3.680 C 11.802 3.515,11.671 3.259,11.573 3.111 C 11.020 2.274,9.941 1.842,8.947 2.059 M10.000 11.819 C 10.001 12.437,10.107 12.693,10.442 12.880 C 10.593 12.964,10.672 12.980,10.960 12.980 C 11.147 12.980,11.346 12.967,11.401 12.951 C 11.495 12.925,11.760 13.180,14.661 16.083 L 17.820 19.243 17.460 19.593 C 16.784 20.249,15.998 20.670,15.013 20.905 C 14.584 21.007,12.039 21.032,11.451 20.939 C 10.029 20.716,8.813 19.922,7.992 18.680 C 7.301 17.634,4.520 12.718,4.520 12.543 C 4.521 12.122,5.116 11.860,5.580 12.076 C 5.737 12.149,7.052 13.453,7.216 13.697 C 7.318 13.850,7.762 14.049,7.999 14.049 C 8.187 14.049,8.593 13.894,8.735 13.768 C 8.847 13.669,9.040 13.224,9.038 13.071 C 9.037 12.999,9.027 12.373,9.016 11.680 L 8.996 10.420 9.498 10.919 L 10.000 11.419 10.000 11.819 " stroke="none" fill="black" fill-rule="evenodd"></path></svg>