<svg xmlns="http://www.w3.org/2000/svg" width="24" height="24" viewBox="0 0 24 24" fill="none" stroke="currentColor" stroke-width="2" stroke-linecap="round" stroke-linejoin="round" class="icon icon-tabler icons-tabler-outline icon-tabler-file-dollar"><path d="M6.499 2.043 C 5.383 2.230,4.461 3.048,4.114 4.160 L 4.020 4.460 4.020 12.000 L 4.020 19.540 4.114 19.840 C 4.422 20.827,5.173 21.578,6.160 21.886 L 6.460 21.980 12.000 21.980 L 17.540 21.980 17.840 21.886 C 18.827 21.578,19.578 20.827,19.886 19.840 L 19.980 19.540 19.980 13.580 L 19.980 7.620 19.890 7.452 C 19.841 7.360,19.724 7.231,19.630 7.165 C 19.498 7.073,15.263 2.838,14.719 2.254 C 14.473 1.991,14.626 2.000,10.463 2.005 C 8.393 2.007,6.609 2.025,6.499 2.043 M13.000 5.632 C 13.000 7.399,13.010 7.507,13.225 7.930 C 13.361 8.199,13.801 8.639,14.070 8.775 C 14.493 8.990,14.601 9.000,16.368 9.000 L 18.000 9.000 18.000 14.054 C 18.000 18.220,17.990 19.139,17.945 19.290 C 17.872 19.533,17.707 19.740,17.484 19.872 L 17.300 19.980 12.000 19.980 L 6.700 19.980 6.516 19.872 C 6.415 19.813,6.284 19.700,6.225 19.623 C 5.986 19.309,6.000 19.795,6.000 12.022 C 6.000 4.005,5.975 4.631,6.304 4.303 C 6.613 3.994,6.464 4.006,9.930 4.003 L 13.000 4.000 13.000 5.632 M15.800 6.220 L 16.579 7.000 15.790 7.000 L 15.000 7.000 15.000 6.220 C 15.000 5.791,15.005 5.440,15.010 5.440 C 15.016 5.440,15.371 5.791,15.800 6.220 M11.614 9.057 C 11.250 9.171,11.061 9.411,11.008 9.826 L 10.980 10.049 10.759 10.118 C 10.003 10.351,9.361 10.979,9.118 11.722 C 9.034 11.976,9.020 12.094,9.022 12.520 C 9.024 12.960,9.038 13.056,9.133 13.320 C 9.394 14.039,9.964 14.609,10.680 14.867 C 10.961 14.968,11.033 14.976,11.800 14.992 C 12.702 15.010,12.786 15.030,12.922 15.252 C 13.021 15.415,13.021 15.585,12.922 15.748 C 12.770 15.997,12.750 16.000,11.208 16.000 C 9.724 16.000,9.580 16.015,9.322 16.199 C 9.100 16.357,9.020 16.568,9.020 17.000 C 9.020 17.331,9.033 17.403,9.120 17.558 C 9.230 17.755,9.414 17.898,9.635 17.959 C 9.715 17.981,10.052 18.000,10.384 18.000 L 10.989 18.000 11.013 18.203 C 11.074 18.715,11.426 19.000,12.000 19.000 C 12.582 19.000,12.923 18.720,12.984 18.193 L 13.010 17.966 13.294 17.873 C 14.001 17.642,14.605 17.046,14.868 16.320 C 14.965 16.052,14.976 15.965,14.976 15.500 C 14.976 15.035,14.965 14.948,14.868 14.680 C 14.646 14.068,14.195 13.561,13.620 13.277 C 13.172 13.055,12.869 13.002,12.068 13.001 C 11.319 13.000,11.216 12.974,11.078 12.748 C 10.979 12.585,10.979 12.415,11.078 12.252 C 11.230 12.003,11.249 12.000,12.808 12.000 C 13.630 12.000,14.280 11.983,14.365 11.959 C 14.586 11.898,14.770 11.755,14.880 11.558 C 14.967 11.402,14.980 11.332,14.979 11.000 C 14.978 10.687,14.962 10.591,14.890 10.453 C 14.702 10.098,14.423 10.000,13.599 10.000 L 13.010 10.000 12.983 9.794 C 12.948 9.531,12.835 9.310,12.678 9.199 C 12.414 9.010,11.957 8.950,11.614 9.057 " stroke="none" fill="black" fill-rule="evenodd"></path></svg>