<svg xmlns="http://www.w3.org/2000/svg" width="24" height="24" viewBox="0 0 24 24" fill="none" stroke="currentColor" stroke-width="2" stroke-linecap="round" stroke-linejoin="round" class="icon icon-tabler icons-tabler-outline icon-tabler-arrow-rotary-left"><path d="M6.620 2.046 C 6.525 2.095,5.652 2.932,4.460 4.118 C 3.360 5.213,2.399 6.150,2.324 6.201 C 2.149 6.321,1.951 6.745,1.951 7.000 C 1.951 7.239,2.150 7.682,2.304 7.784 C 2.366 7.826,3.327 8.763,4.439 9.866 C 5.818 11.234,6.516 11.899,6.637 11.960 C 6.989 12.137,7.354 12.048,7.701 11.701 C 8.048 11.354,8.137 10.989,7.960 10.637 C 7.901 10.521,7.451 10.039,6.647 9.230 L 5.422 8.000 8.773 8.010 L 12.124 8.020 12.216 8.285 C 12.429 8.894,12.724 9.364,13.180 9.820 C 13.638 10.278,14.092 10.563,14.705 10.778 L 14.980 10.874 15.000 15.627 L 15.020 20.380 15.120 20.558 C 15.287 20.856,15.572 21.000,16.000 21.000 C 16.428 21.000,16.713 20.856,16.880 20.558 L 16.980 20.380 16.991 15.628 C 17.001 11.165,17.006 10.876,17.071 10.855 C 18.340 10.452,19.237 9.645,19.704 8.488 C 20.090 7.530,20.090 6.469,19.705 5.516 C 19.172 4.197,18.001 3.269,16.605 3.058 C 16.121 2.986,15.879 2.986,15.395 3.058 C 13.856 3.291,12.603 4.397,12.143 5.930 C 12.124 5.996,11.928 6.000,8.773 6.000 L 5.423 6.000 6.647 4.770 C 7.452 3.961,7.901 3.479,7.960 3.363 C 8.137 3.011,8.048 2.646,7.701 2.299 C 7.361 1.959,6.967 1.867,6.620 2.046 M16.523 5.073 C 17.262 5.266,17.850 5.924,17.967 6.690 C 18.067 7.343,17.873 7.933,17.403 8.404 C 17.002 8.807,16.547 9.000,16.000 9.000 C 15.485 9.000,15.038 8.822,14.653 8.465 C 13.323 7.229,14.189 5.005,16.000 5.005 C 16.143 5.005,16.378 5.036,16.523 5.073 " stroke="none" fill="black" fill-rule="evenodd"></path></svg>