<svg xmlns="http://www.w3.org/2000/svg" width="24" height="24" viewBox="0 0 24 24" fill="none" stroke="currentColor" stroke-width="2" stroke-linecap="round" stroke-linejoin="round" class="icon icon-tabler icons-tabler-outline icon-tabler-number-22-small"><path d="M5.614 7.057 C 5.377 7.131,5.212 7.261,5.109 7.453 C 5.035 7.592,5.020 7.684,5.020 8.000 C 5.020 8.331,5.033 8.403,5.120 8.558 C 5.230 8.755,5.414 8.898,5.635 8.959 C 5.721 8.983,6.435 9.000,7.390 9.000 L 9.000 9.000 9.000 10.000 L 9.000 11.000 7.870 11.002 C 6.595 11.005,6.391 11.035,5.983 11.281 C 5.703 11.449,5.354 11.816,5.219 12.083 C 5.019 12.478,5.000 12.640,5.000 14.000 C 5.000 15.368,5.018 15.521,5.225 15.930 C 5.361 16.199,5.801 16.639,6.070 16.775 C 6.497 16.991,6.591 17.000,8.478 17.000 C 9.522 17.000,10.278 16.983,10.365 16.959 C 10.586 16.898,10.770 16.755,10.880 16.558 C 10.967 16.402,10.980 16.332,10.979 16.000 C 10.978 15.567,10.898 15.355,10.678 15.199 C 10.416 15.012,10.290 15.000,8.594 15.000 L 7.000 15.000 7.000 14.000 L 7.000 13.000 8.132 13.000 C 9.358 13.000,9.528 12.979,9.930 12.775 C 10.196 12.640,10.638 12.200,10.771 11.937 C 10.979 11.527,11.000 11.352,10.999 10.014 C 10.999 8.682,10.974 8.463,10.781 8.083 C 10.646 7.816,10.297 7.449,10.017 7.281 C 9.578 7.017,9.468 7.005,7.520 7.005 C 6.204 7.005,5.739 7.018,5.614 7.057 M13.614 7.057 C 13.377 7.131,13.212 7.261,13.109 7.453 C 13.035 7.592,13.020 7.684,13.020 8.000 C 13.020 8.331,13.033 8.403,13.120 8.558 C 13.230 8.755,13.414 8.898,13.635 8.959 C 13.721 8.983,14.435 9.000,15.390 9.000 L 17.000 9.000 17.000 10.000 L 17.000 11.000 15.870 11.002 C 14.595 11.005,14.391 11.035,13.983 11.281 C 13.703 11.449,13.354 11.816,13.219 12.083 C 13.019 12.478,13.000 12.640,13.000 14.000 C 13.000 15.368,13.018 15.521,13.225 15.930 C 13.361 16.199,13.801 16.639,14.070 16.775 C 14.497 16.991,14.591 17.000,16.478 17.000 C 17.522 17.000,18.278 16.983,18.365 16.959 C 18.586 16.898,18.770 16.755,18.880 16.558 C 18.967 16.402,18.980 16.332,18.979 16.000 C 18.978 15.567,18.898 15.355,18.678 15.199 C 18.416 15.012,18.290 15.000,16.594 15.000 L 15.000 15.000 15.000 14.000 L 15.000 13.000 16.132 13.000 C 17.358 13.000,17.528 12.979,17.930 12.775 C 18.196 12.640,18.638 12.200,18.771 11.937 C 18.979 11.527,19.000 11.352,18.999 10.014 C 18.999 8.682,18.974 8.463,18.781 8.083 C 18.646 7.816,18.297 7.449,18.017 7.281 C 17.578 7.017,17.468 7.005,15.520 7.005 C 14.204 7.005,13.739 7.018,13.614 7.057 " stroke="none" fill="black" fill-rule="evenodd"></path></svg>