<svg xmlns="http://www.w3.org/2000/svg" width="24" height="24" viewBox="0 0 24 24" fill="none" stroke="currentColor" stroke-width="2" stroke-linecap="round" stroke-linejoin="round" class="icon icon-tabler icons-tabler-outline icon-tabler-switch"><path d="M16.719 2.999 L 14.658 3.020 14.459 3.122 C 14.144 3.284,14.000 3.560,14.000 4.000 C 14.000 4.428,14.144 4.713,14.442 4.880 C 14.617 4.979,14.636 4.980,15.753 5.000 L 16.885 5.020 15.379 6.880 C 14.551 7.903,13.840 8.804,13.800 8.882 C 13.614 9.241,13.665 9.544,13.963 9.859 C 14.230 10.142,14.521 10.297,14.785 10.297 C 15.171 10.297,15.242 10.228,16.680 8.453 L 17.980 6.848 18.000 7.614 C 18.019 8.338,18.026 8.390,18.120 8.558 C 18.287 8.856,18.572 9.000,19.000 9.000 C 19.428 9.000,19.713 8.856,19.880 8.558 L 19.980 8.380 20.002 6.060 L 20.024 3.740 19.911 3.510 C 19.745 3.170,19.360 2.950,18.965 2.969 C 18.863 2.974,17.852 2.987,16.719 2.999 M4.626 4.045 C 4.420 4.154,4.146 4.433,4.038 4.644 C 3.924 4.867,3.924 5.132,4.039 5.363 C 4.103 5.490,5.867 7.280,10.354 11.770 L 16.579 18.000 15.696 18.000 C 14.757 18.000,14.561 18.028,14.322 18.199 C 14.139 18.329,14.030 18.573,14.009 18.900 C 13.978 19.381,14.119 19.699,14.442 19.880 L 14.620 19.980 16.780 20.007 C 17.968 20.023,18.999 20.036,19.071 20.037 C 19.224 20.040,19.669 19.847,19.768 19.735 C 19.878 19.611,20.041 19.209,20.038 19.069 C 20.036 18.998,20.023 17.968,20.008 16.780 C 19.980 14.637,19.979 14.619,19.889 14.450 C 19.724 14.140,19.329 13.970,18.874 14.011 C 18.439 14.051,18.141 14.274,18.041 14.635 C 18.019 14.715,18.000 15.185,18.000 15.680 L 18.000 16.579 11.770 10.354 C 7.476 6.062,5.488 4.102,5.372 4.044 C 5.152 3.934,4.834 3.935,4.626 4.045 M8.620 14.046 C 8.385 14.167,4.154 18.408,4.039 18.637 C 3.863 18.990,3.952 19.355,4.299 19.701 C 4.645 20.048,5.010 20.137,5.363 19.961 C 5.612 19.836,9.836 15.612,9.961 15.363 C 10.137 15.010,10.048 14.645,9.701 14.299 C 9.361 13.959,8.968 13.867,8.620 14.046 " stroke="none" fill="black" fill-rule="evenodd"></path></svg>