<svg xmlns="http://www.w3.org/2000/svg" width="24" height="24" viewBox="0 0 24 24" fill="none" stroke="currentColor" stroke-width="2" stroke-linecap="round" stroke-linejoin="round" class="icon icon-tabler icons-tabler-outline icon-tabler-arrow-up-to-arc"><path d="M11.080 2.045 C 9.507 2.184,7.883 2.751,6.540 3.630 C 5.905 4.045,5.499 4.378,4.919 4.958 C 3.265 6.614,2.275 8.717,2.041 11.074 C 1.989 11.600,1.989 12.178,2.041 12.365 C 2.148 12.750,2.437 12.962,2.896 12.991 C 3.377 13.021,3.700 12.881,3.874 12.567 C 3.955 12.420,3.973 12.310,4.004 11.788 C 4.086 10.410,4.332 9.443,4.870 8.386 C 5.667 6.820,6.911 5.597,8.500 4.816 C 10.349 3.908,12.522 3.758,14.498 4.403 C 16.483 5.051,18.172 6.504,19.130 8.386 C 19.669 9.444,19.919 10.429,19.994 11.784 C 20.023 12.310,20.040 12.411,20.124 12.563 C 20.286 12.856,20.574 13.000,21.000 13.000 C 21.428 13.000,21.713 12.856,21.880 12.558 C 21.976 12.388,21.980 12.352,21.977 11.720 C 21.969 9.661,21.217 7.571,19.847 5.800 C 19.510 5.365,18.639 4.494,18.200 4.154 C 16.133 2.555,13.646 1.818,11.080 2.045 M11.530 8.083 C 11.393 8.150,11.249 8.252,11.210 8.311 C 11.172 8.369,10.237 9.327,9.134 10.439 C 7.766 11.818,7.101 12.516,7.040 12.637 C 6.863 12.989,6.952 13.354,7.299 13.701 C 7.646 14.048,8.011 14.137,8.363 13.960 C 8.479 13.901,8.961 13.452,9.770 12.647 L 11.000 11.423 11.000 16.321 C 11.000 19.480,11.015 21.271,11.041 21.365 C 11.148 21.750,11.437 21.962,11.896 21.991 C 12.381 22.022,12.699 21.882,12.880 21.558 L 12.980 21.380 12.991 16.402 L 13.002 11.424 14.231 12.648 C 15.039 13.452,15.521 13.901,15.637 13.960 C 15.989 14.137,16.354 14.048,16.701 13.701 C 17.048 13.354,17.137 12.989,16.960 12.637 C 16.899 12.516,16.234 11.818,14.866 10.439 C 13.763 9.327,12.828 8.369,12.789 8.310 C 12.751 8.252,12.604 8.149,12.464 8.082 C 12.120 7.918,11.871 7.918,11.530 8.083 " stroke="none" fill="black" fill-rule="evenodd"></path></svg>