<svg xmlns="http://www.w3.org/2000/svg" width="24" height="24" viewBox="0 0 24 24" fill="none" stroke="currentColor" stroke-width="2" stroke-linecap="round" stroke-linejoin="round" class="icon icon-tabler icons-tabler-outline icon-tabler-hexagons-off"><path d="M2.626 2.045 C 2.420 2.154,2.146 2.433,2.038 2.644 C 1.924 2.868,1.924 3.132,2.040 3.363 C 2.101 3.486,2.866 4.279,4.564 5.981 L 7.000 8.421 7.000 9.401 L 7.000 10.380 5.184 11.289 C 3.228 12.268,3.154 12.316,3.046 12.674 C 2.981 12.894,2.981 18.106,3.046 18.326 C 3.156 18.692,3.198 18.718,5.546 19.892 L 7.722 20.980 7.999 20.980 L 8.276 20.980 10.138 20.050 L 12.000 19.121 13.862 20.050 L 15.724 20.980 15.999 20.980 C 16.271 20.980,16.282 20.976,17.369 20.434 L 18.466 19.889 19.463 20.879 C 20.101 21.513,20.524 21.903,20.637 21.960 C 20.989 22.137,21.354 22.048,21.701 21.701 C 22.116 21.287,22.159 20.869,21.833 20.440 C 21.791 20.385,18.855 17.430,15.308 13.873 C 11.762 10.316,8.815 7.361,8.760 7.305 C 8.705 7.250,7.508 6.062,6.100 4.667 C 4.415 2.996,3.482 2.100,3.372 2.044 C 3.152 1.934,2.835 1.935,2.626 2.045 M11.677 3.056 C 11.598 3.087,10.884 3.437,10.091 3.835 C 8.533 4.618,8.411 4.701,8.319 5.042 C 8.193 5.511,8.610 6.261,9.046 6.349 C 9.142 6.368,9.301 6.370,9.400 6.353 C 9.503 6.336,10.100 6.065,10.791 5.722 L 12.001 5.121 13.501 5.870 L 15.000 6.620 14.997 8.500 L 14.995 10.380 14.748 10.540 C 14.321 10.816,14.215 11.157,14.401 11.654 C 14.504 11.929,14.792 12.258,14.986 12.322 C 15.190 12.389,15.503 12.352,15.772 12.229 L 16.004 12.122 17.502 12.871 L 19.000 13.620 19.000 14.920 C 19.000 15.667,19.018 16.282,19.041 16.365 C 19.148 16.750,19.437 16.962,19.896 16.991 C 20.381 17.022,20.699 16.882,20.880 16.558 L 20.980 16.380 20.992 14.620 C 21.001 13.362,20.991 12.812,20.957 12.692 C 20.854 12.319,20.787 12.275,18.816 11.289 L 17.000 10.380 17.000 8.105 C 17.000 6.494,16.986 5.784,16.954 5.674 C 16.844 5.308,16.802 5.282,14.460 4.111 C 12.454 3.108,12.272 3.025,12.055 3.014 C 11.922 3.007,11.758 3.025,11.677 3.056 M9.500 12.870 L 11.000 13.620 11.000 15.500 L 11.000 17.380 9.500 18.130 L 8.000 18.880 6.500 18.130 L 5.000 17.380 5.000 15.500 L 5.000 13.620 6.490 12.872 C 7.310 12.461,7.984 12.123,7.990 12.122 C 7.995 12.121,8.675 12.457,9.500 12.870 M14.997 16.417 L 16.973 18.393 16.487 18.637 L 16.001 18.880 14.500 18.130 L 13.000 17.380 13.000 15.910 C 13.000 15.102,13.005 14.440,13.010 14.440 C 13.016 14.440,13.910 15.329,14.997 16.417 " stroke="none" fill="black" fill-rule="evenodd"></path></svg>