<svg xmlns="http://www.w3.org/2000/svg" width="24" height="24" viewBox="0 0 24 24" fill="none" stroke="currentColor" stroke-width="2" stroke-linecap="round" stroke-linejoin="round" class="icon icon-tabler icons-tabler-outline icon-tabler-antenna-bars-5"><path d="M17.614 5.057 C 17.377 5.131,17.212 5.261,17.109 5.453 L 17.020 5.620 17.010 11.914 C 17.003 16.059,17.013 18.259,17.039 18.358 C 17.144 18.747,17.434 18.961,17.896 18.991 C 18.381 19.022,18.699 18.882,18.880 18.558 L 18.980 18.380 18.980 12.000 L 18.980 5.620 18.891 5.453 C 18.842 5.362,18.746 5.247,18.678 5.199 C 18.414 5.010,17.957 4.950,17.614 5.057 M13.614 8.057 C 13.377 8.131,13.212 8.261,13.109 8.453 L 13.020 8.620 13.009 13.413 C 13.002 16.560,13.013 18.258,13.039 18.357 C 13.144 18.747,13.434 18.961,13.896 18.991 C 14.381 19.022,14.699 18.882,14.880 18.558 L 14.980 18.380 14.980 13.500 L 14.980 8.620 14.891 8.453 C 14.842 8.362,14.746 8.247,14.678 8.199 C 14.414 8.010,13.957 7.950,13.614 8.057 M9.614 11.057 C 9.377 11.131,9.212 11.261,9.109 11.453 L 9.020 11.620 9.009 14.912 C 9.002 17.060,9.012 18.257,9.039 18.356 C 9.144 18.747,9.434 18.961,9.896 18.991 C 10.381 19.022,10.699 18.882,10.880 18.558 L 10.980 18.380 10.980 15.000 L 10.980 11.620 10.891 11.453 C 10.842 11.362,10.746 11.247,10.678 11.199 C 10.414 11.010,9.957 10.950,9.614 11.057 M5.614 14.057 C 5.377 14.131,5.212 14.261,5.109 14.453 C 5.021 14.618,5.020 14.647,5.008 16.410 C 5.001 17.557,5.012 18.255,5.038 18.354 C 5.144 18.747,5.433 18.961,5.896 18.991 C 6.381 19.022,6.699 18.882,6.880 18.558 L 6.980 18.380 6.980 16.500 C 6.980 14.633,6.979 14.619,6.891 14.453 C 6.842 14.362,6.746 14.247,6.678 14.199 C 6.414 14.010,5.957 13.950,5.614 14.057 " stroke="none" fill="black" fill-rule="evenodd"></path></svg>