<svg xmlns="http://www.w3.org/2000/svg" width="24" height="24" viewBox="0 0 24 24" fill="none" stroke="currentColor" stroke-width="2" stroke-linecap="round" stroke-linejoin="round" class="icon icon-tabler icons-tabler-outline icon-tabler-tags"><path d="M14.626 5.045 C 14.420 5.154,14.146 5.433,14.038 5.644 C 13.924 5.868,13.924 6.132,14.040 6.363 C 14.101 6.486,14.893 7.308,16.638 9.060 C 18.018 10.446,19.211 11.670,19.289 11.780 C 19.605 12.223,19.845 12.801,19.941 13.355 C 20.114 14.340,19.870 15.410,19.289 16.220 C 19.210 16.330,18.692 16.879,18.138 17.440 C 17.501 18.084,17.097 18.525,17.041 18.637 C 16.863 18.989,16.952 19.354,17.299 19.701 C 17.646 20.048,18.012 20.137,18.363 19.959 C 18.552 19.864,19.877 18.582,20.465 17.926 C 21.476 16.798,21.999 15.461,21.999 14.000 C 21.999 12.539,21.475 11.199,20.464 10.074 C 19.791 9.325,15.545 5.131,15.372 5.044 C 15.152 4.934,14.835 4.935,14.626 5.045 M4.499 5.042 C 3.386 5.234,2.485 6.027,2.115 7.140 C 2.022 7.419,2.022 7.425,2.009 9.943 C 1.995 12.692,1.998 12.740,2.223 13.305 C 2.283 13.456,2.404 13.688,2.491 13.820 C 2.664 14.081,8.440 19.901,8.863 20.241 C 9.195 20.507,9.630 20.734,10.060 20.865 C 10.382 20.963,10.482 20.975,11.000 20.975 C 11.516 20.975,11.619 20.963,11.932 20.867 C 12.317 20.749,12.582 20.626,12.920 20.408 C 13.162 20.252,16.921 16.536,17.241 16.137 C 17.507 15.805,17.734 15.370,17.865 14.940 C 17.963 14.618,17.975 14.518,17.975 14.000 C 17.975 13.482,17.963 13.382,17.865 13.060 C 17.734 12.630,17.507 12.195,17.241 11.863 C 16.959 11.513,11.095 5.674,10.880 5.531 C 10.622 5.358,10.341 5.223,10.020 5.115 L 9.740 5.022 7.220 5.015 C 5.834 5.011,4.609 5.023,4.499 5.042 M9.620 7.107 C 9.712 7.157,11.056 8.474,12.784 10.207 C 16.174 13.608,15.975 13.371,15.978 14.001 C 15.981 14.615,16.025 14.560,13.752 16.824 C 11.510 19.056,11.607 18.980,11.000 18.980 C 10.377 18.980,10.609 19.175,7.207 15.784 C 5.474 14.056,4.157 12.712,4.107 12.620 C 4.021 12.462,4.020 12.436,4.009 10.185 C 3.996 7.574,3.992 7.615,4.303 7.303 C 4.610 6.997,4.546 7.003,7.160 7.012 C 9.440 7.020,9.461 7.021,9.620 7.107 M6.660 9.037 C 6.215 9.146,6.000 9.459,6.000 9.998 C 6.000 10.654,6.342 11.000,6.991 11.000 C 7.428 10.999,7.712 10.858,7.880 10.558 C 7.967 10.402,7.980 10.332,7.979 10.000 C 7.978 9.567,7.898 9.355,7.678 9.199 C 7.435 9.025,6.995 8.956,6.660 9.037 " stroke="none" fill="black" fill-rule="evenodd"></path></svg>