<svg xmlns="http://www.w3.org/2000/svg" width="24" height="24" viewBox="0 0 24 24" fill="none" stroke="currentColor" stroke-width="2" stroke-linecap="round" stroke-linejoin="round" class="icon icon-tabler icons-tabler-outline icon-tabler-section-sign"><path d="M11.352 2.060 C 10.177 2.258,9.242 2.889,8.594 3.920 C 8.167 4.599,7.974 5.345,8.013 6.160 C 8.060 7.165,8.405 7.994,9.082 8.732 L 9.329 9.002 9.154 9.191 C 8.566 9.826,8.243 10.439,8.082 11.228 C 7.749 12.862,8.506 14.562,9.956 15.436 C 10.461 15.741,11.338 16.000,11.866 16.000 C 12.943 16.001,13.779 16.661,13.960 17.653 C 14.222 19.087,12.837 20.338,11.454 19.916 C 10.822 19.724,10.417 19.354,10.143 18.720 C 9.985 18.352,9.864 18.188,9.672 18.080 C 9.289 17.865,8.554 18.056,8.280 18.440 C 8.096 18.699,8.113 19.068,8.335 19.594 C 8.589 20.197,9.038 20.774,9.560 21.170 C 9.901 21.428,10.618 21.780,11.020 21.886 C 11.508 22.014,12.229 22.030,12.747 21.923 C 13.901 21.686,14.720 21.131,15.364 20.150 C 15.491 19.958,15.650 19.656,15.718 19.480 C 15.936 18.914,15.977 18.680,15.976 18.000 C 15.975 17.455,15.962 17.332,15.867 16.980 C 15.685 16.302,15.405 15.797,14.920 15.269 L 14.671 14.998 14.846 14.809 C 15.271 14.351,15.496 14.004,15.704 13.488 C 15.994 12.769,16.070 11.977,15.921 11.243 C 15.628 9.806,14.637 8.680,13.245 8.204 C 12.951 8.103,12.322 8.001,11.997 8.000 C 11.707 8.000,11.255 7.880,11.012 7.738 C 10.735 7.577,10.357 7.177,10.229 6.913 C 9.837 6.096,9.976 5.220,10.598 4.598 C 11.350 3.847,12.541 3.807,13.319 4.507 C 13.573 4.735,13.708 4.933,13.879 5.328 C 14.043 5.706,14.261 5.935,14.525 6.005 C 14.681 6.046,14.753 6.043,14.982 5.987 C 15.479 5.864,15.773 5.619,15.833 5.274 C 15.954 4.590,15.173 3.304,14.280 2.715 C 13.999 2.530,13.477 2.270,13.220 2.187 C 12.672 2.010,11.944 1.960,11.352 2.060 M12.523 10.073 C 13.262 10.266,13.850 10.924,13.967 11.690 C 14.067 12.343,13.873 12.933,13.403 13.404 C 13.002 13.807,12.547 14.000,12.000 14.000 C 11.485 14.000,11.038 13.822,10.653 13.465 C 9.323 12.229,10.189 10.005,12.000 10.005 C 12.143 10.005,12.378 10.036,12.523 10.073 " stroke="none" fill="black" fill-rule="evenodd"></path></svg>