<svg xmlns="http://www.w3.org/2000/svg" width="24" height="24" viewBox="0 0 24 24" fill="none" stroke="currentColor" stroke-width="2" stroke-linecap="round" stroke-linejoin="round" class="icon icon-tabler icons-tabler-outline icon-tabler-brand-twitter"><path d="M15.560 2.980 C 13.420 3.346,11.836 4.619,11.235 6.454 C 11.109 6.841,11.001 7.448,11.000 7.776 L 11.000 7.971 10.719 7.945 C 9.891 7.868,8.733 7.515,7.900 7.086 C 6.704 6.469,5.806 5.714,4.950 4.600 C 4.583 4.124,4.356 3.960,4.065 3.961 C 3.834 3.962,3.588 4.059,3.360 4.240 C 2.918 4.590,2.249 6.463,2.018 8.000 C 1.913 8.696,1.919 9.874,2.031 10.520 C 2.409 12.719,3.605 14.499,5.594 15.825 C 5.778 15.948,5.913 16.063,5.894 16.081 C 5.828 16.144,5.023 16.487,4.664 16.604 C 3.828 16.878,3.103 17.000,2.303 17.000 C 1.738 17.000,1.563 17.032,1.358 17.170 C 1.079 17.358,0.929 17.902,1.042 18.309 C 1.131 18.624,1.359 18.810,2.123 19.188 C 5.445 20.835,8.892 21.333,11.860 20.594 C 13.694 20.138,15.380 19.283,16.800 18.089 C 17.267 17.697,18.049 16.897,18.414 16.440 C 19.320 15.304,20.050 13.924,20.518 12.461 C 20.886 11.310,21.160 9.677,21.160 8.632 L 21.160 8.244 21.782 6.998 C 22.668 5.222,23.000 4.403,23.000 3.998 C 23.000 3.443,22.631 3.070,22.027 3.013 C 21.745 2.987,21.512 3.042,21.374 3.168 C 21.276 3.257,20.510 3.533,19.776 3.743 L 19.286 3.884 19.049 3.709 C 18.550 3.342,17.960 3.095,17.300 2.977 C 16.908 2.907,15.975 2.909,15.560 2.980 M17.110 4.980 C 17.488 5.069,17.810 5.252,18.135 5.560 C 18.466 5.875,18.698 5.998,18.960 5.999 C 19.059 5.999,19.364 5.936,19.637 5.860 C 19.910 5.783,20.141 5.727,20.149 5.736 C 20.158 5.744,19.981 6.118,19.757 6.566 C 19.198 7.682,19.200 7.675,19.158 8.560 C 19.105 9.674,19.020 10.279,18.780 11.245 C 18.447 12.583,17.838 13.876,17.038 14.940 C 15.406 17.112,12.951 18.521,10.202 18.863 C 9.660 18.930,8.477 18.938,7.928 18.877 C 7.108 18.787,5.552 18.465,5.628 18.401 C 5.646 18.386,5.786 18.323,5.940 18.260 C 6.665 17.965,8.079 17.186,8.588 16.802 C 8.941 16.535,9.123 15.989,8.982 15.620 C 8.887 15.371,8.687 15.223,8.000 14.893 C 5.768 13.820,4.453 12.346,4.060 10.481 C 3.968 10.044,3.925 9.262,3.964 8.730 C 4.004 8.175,4.038 7.960,4.181 7.364 L 4.288 6.918 4.554 7.161 C 6.054 8.531,7.696 9.390,9.553 9.775 C 10.341 9.939,10.709 9.976,11.541 9.978 C 12.322 9.980,12.346 9.978,12.540 9.878 C 12.682 9.805,12.774 9.719,12.859 9.582 L 12.979 9.388 13.006 8.404 C 13.036 7.309,13.059 7.180,13.316 6.660 C 13.489 6.310,13.920 5.806,14.226 5.596 C 14.617 5.327,15.323 5.046,15.816 4.964 C 16.152 4.907,16.838 4.916,17.110 4.980 " stroke="none" fill="black" fill-rule="evenodd"></path></svg>