<svg xmlns="http://www.w3.org/2000/svg" width="24" height="24" viewBox="0 0 24 24" fill="none" stroke="currentColor" stroke-width="2" stroke-linecap="round" stroke-linejoin="round" class="icon icon-tabler icons-tabler-outline icon-tabler-filter-edit"><path d="M3.614 3.057 C 3.377 3.131,3.212 3.261,3.109 3.453 C 3.022 3.615,3.020 3.659,3.008 5.058 C 2.998 6.259,3.007 6.550,3.061 6.816 C 3.145 7.230,3.272 7.538,3.496 7.871 C 3.596 8.019,4.650 9.208,5.838 10.513 L 7.999 12.886 8.009 17.093 L 8.020 21.300 8.127 21.504 C 8.328 21.884,8.658 22.075,9.015 22.020 C 9.106 22.006,9.699 21.822,10.334 21.612 C 11.597 21.193,11.752 21.114,11.910 20.801 C 12.016 20.592,12.024 20.393,11.937 20.097 C 11.847 19.785,11.654 19.518,11.440 19.407 C 11.292 19.331,11.217 19.318,11.020 19.333 C 10.826 19.348,10.352 19.473,10.053 19.588 C 10.009 19.605,10.000 18.966,10.000 15.954 L 9.999 12.300 9.905 12.100 C 9.837 11.957,9.158 11.182,7.503 9.363 C 6.233 7.968,5.155 6.753,5.107 6.663 C 5.028 6.515,5.019 6.430,5.007 5.750 L 4.994 5.000 12.000 5.000 L 19.006 5.000 18.993 5.730 C 18.982 6.346,18.968 6.482,18.906 6.600 C 18.865 6.677,17.783 7.793,16.500 9.080 C 15.218 10.367,14.135 11.483,14.094 11.560 C 14.029 11.683,14.018 11.819,14.007 12.660 C 13.991 13.758,14.020 13.969,14.213 14.189 C 14.398 14.399,14.626 14.487,14.994 14.488 C 15.348 14.490,15.555 14.419,15.751 14.229 C 15.952 14.035,16.000 13.810,16.000 13.064 L 16.000 12.423 18.210 10.201 C 20.495 7.905,20.567 7.824,20.787 7.278 C 20.987 6.783,21.006 6.580,20.992 5.042 C 20.980 3.660,20.977 3.615,20.891 3.453 C 20.785 3.256,20.622 3.131,20.371 3.055 C 20.106 2.976,3.868 2.978,3.614 3.057 M19.351 14.039 C 18.947 14.112,18.514 14.292,18.160 14.533 C 17.879 14.725,14.247 18.313,14.126 18.520 L 14.020 18.700 14.008 20.450 C 14.001 21.570,14.012 22.255,14.038 22.354 C 14.100 22.583,14.242 22.768,14.442 22.880 L 14.620 22.980 16.460 22.980 L 18.300 22.980 18.481 22.874 C 18.746 22.718,22.383 19.000,22.554 18.710 C 22.855 18.201,22.998 17.685,22.999 17.108 C 23.001 16.205,22.675 15.462,21.996 14.824 C 21.652 14.500,21.154 14.216,20.720 14.097 C 20.460 14.025,19.620 13.989,19.351 14.039 M20.385 16.112 C 20.594 16.219,20.778 16.402,20.891 16.615 C 21.016 16.850,21.016 17.350,20.891 17.586 C 20.840 17.682,20.129 18.433,19.197 19.376 L 17.591 21.000 16.795 21.000 L 16.000 21.000 16.000 20.205 L 16.000 19.410 17.602 17.825 C 18.483 16.953,19.248 16.211,19.302 16.175 C 19.599 15.980,20.073 15.953,20.385 16.112 " stroke="none" fill="black" fill-rule="evenodd"></path></svg>