<svg xmlns="http://www.w3.org/2000/svg" width="24" height="24" viewBox="0 0 24 24" fill="none" stroke="currentColor" stroke-width="2" stroke-linecap="round" stroke-linejoin="round" class="icon icon-tabler icons-tabler-outline icon-tabler-message-off"><path d="M2.626 2.045 C 2.257 2.239,1.951 2.673,1.951 3.000 C 1.951 3.276,2.080 3.484,2.547 3.964 L 2.965 4.392 2.802 4.606 C 2.593 4.881,2.340 5.366,2.216 5.732 C 1.999 6.368,2.000 6.340,2.000 11.029 C 2.000 15.255,2.002 15.378,2.083 15.773 C 2.357 17.118,3.249 18.195,4.512 18.704 C 5.059 18.924,5.521 19.000,6.316 19.000 L 7.000 19.000 7.000 20.073 C 7.000 21.293,7.018 21.392,7.288 21.699 C 7.566 22.015,7.888 22.112,8.240 21.986 C 8.317 21.959,9.481 21.276,10.826 20.468 L 13.273 19.000 15.425 19.000 L 17.578 19.000 19.019 20.435 C 19.984 21.397,20.519 21.900,20.637 21.960 C 20.989 22.137,21.354 22.048,21.701 21.701 C 22.048 21.354,22.137 20.989,21.960 20.637 C 21.888 20.495,20.163 18.698,18.748 17.293 C 18.627 17.172,13.884 12.430,13.760 12.306 C 13.705 12.250,12.805 11.350,11.760 10.306 C 10.715 9.261,9.815 8.361,9.760 8.306 C 9.705 8.250,8.283 6.838,6.600 5.167 C 4.562 3.143,3.484 2.100,3.372 2.044 C 3.152 1.934,2.835 1.935,2.626 2.045 M7.614 3.057 C 7.377 3.131,7.212 3.261,7.109 3.453 C 7.035 3.592,7.020 3.684,7.020 4.000 C 7.020 4.331,7.033 4.403,7.120 4.558 C 7.230 4.755,7.414 4.898,7.635 4.959 C 7.729 4.985,9.640 5.000,13.020 5.002 C 17.839 5.004,18.281 5.010,18.523 5.073 C 19.239 5.260,19.840 5.915,19.960 6.640 C 19.990 6.817,20.000 8.254,19.992 11.160 C 19.979 15.924,20.010 15.431,19.680 16.089 C 19.390 16.670,19.487 17.065,20.001 17.398 C 20.378 17.641,20.749 17.682,21.011 17.509 C 21.355 17.282,21.681 16.710,21.891 15.964 C 21.976 15.663,21.977 15.619,21.990 11.152 C 22.002 6.763,22.000 6.633,21.922 6.248 C 21.721 5.264,21.198 4.416,20.438 3.843 C 19.866 3.412,19.276 3.160,18.605 3.058 C 18.065 2.977,7.874 2.976,7.614 3.057 M5.750 7.170 L 7.079 8.500 7.035 8.660 C 6.966 8.909,7.010 9.356,7.124 9.562 C 7.306 9.892,7.565 9.999,8.180 10.000 L 8.581 10.000 9.580 11.000 L 10.579 12.000 9.196 12.000 C 7.724 12.000,7.579 12.015,7.322 12.199 C 7.100 12.357,7.020 12.568,7.020 13.000 C 7.020 13.331,7.033 13.403,7.120 13.558 C 7.230 13.755,7.414 13.898,7.635 13.959 C 7.725 13.984,8.696 14.000,10.180 14.000 L 12.580 14.000 14.080 15.500 L 15.580 17.000 14.215 17.000 C 13.156 17.000,12.815 17.012,12.695 17.055 C 12.610 17.086,11.745 17.588,10.774 18.171 L 9.007 19.232 8.993 18.426 C 8.980 17.686,8.971 17.606,8.890 17.453 C 8.842 17.362,8.746 17.247,8.678 17.199 C 8.425 17.019,8.265 17.000,6.962 17.000 C 5.643 17.000,5.476 16.981,5.083 16.781 C 4.806 16.641,4.446 16.293,4.271 15.998 C 3.987 15.517,3.996 15.686,4.009 10.880 L 4.020 6.580 4.127 6.313 C 4.237 6.039,4.350 5.840,4.395 5.840 C 4.409 5.840,5.019 6.439,5.750 7.170 M12.614 8.057 C 12.377 8.131,12.212 8.261,12.109 8.453 C 12.035 8.592,12.020 8.684,12.020 9.000 C 12.020 9.331,12.033 9.403,12.120 9.558 C 12.230 9.755,12.414 9.898,12.635 9.959 C 12.722 9.983,13.470 10.000,14.500 10.000 C 15.530 10.000,16.278 9.983,16.365 9.959 C 16.586 9.898,16.770 9.755,16.880 9.558 C 16.967 9.402,16.980 9.332,16.979 9.000 C 16.978 8.687,16.962 8.591,16.890 8.453 C 16.786 8.256,16.623 8.131,16.371 8.055 C 16.114 7.978,12.862 7.980,12.614 8.057 " stroke="none" fill="black" fill-rule="evenodd"></path></svg>