<svg xmlns="http://www.w3.org/2000/svg" width="24" height="24" viewBox="0 0 24 24" fill="none" stroke="currentColor" stroke-width="2" stroke-linecap="round" stroke-linejoin="round" class="icon icon-tabler icons-tabler-outline icon-tabler-brand-rust"><path d="M11.620 1.022 C 11.576 1.032,11.441 1.061,11.320 1.085 C 10.654 1.218,9.929 1.719,9.566 2.297 C 9.408 2.547,9.240 2.934,9.164 3.224 C 9.058 3.621,8.755 3.877,8.350 3.909 C 8.100 3.929,8.074 3.922,7.673 3.726 C 7.076 3.435,6.843 3.379,6.240 3.384 C 5.821 3.387,5.690 3.404,5.433 3.489 C 4.937 3.652,4.619 3.852,4.216 4.257 C 3.923 4.551,3.820 4.688,3.686 4.961 C 3.243 5.862,3.250 6.707,3.706 7.640 C 3.925 8.086,3.963 8.317,3.861 8.582 C 3.729 8.929,3.536 9.082,3.060 9.219 C 1.416 9.689,0.560 11.545,1.239 13.169 C 1.570 13.961,2.348 14.624,3.180 14.823 C 3.498 14.899,3.704 15.067,3.837 15.360 C 3.970 15.654,3.947 15.839,3.721 16.318 C 3.252 17.310,3.237 18.100,3.669 18.999 C 3.827 19.328,3.902 19.430,4.235 19.763 C 4.551 20.078,4.681 20.177,4.960 20.314 C 5.873 20.762,6.687 20.752,7.667 20.280 C 8.142 20.052,8.341 20.028,8.640 20.163 C 8.933 20.296,9.101 20.502,9.177 20.820 C 9.278 21.243,9.557 21.752,9.872 22.089 C 11.147 23.453,13.454 23.244,14.452 21.674 C 14.588 21.460,14.800 20.973,14.800 20.873 C 14.801 20.776,14.988 20.422,15.085 20.332 C 15.233 20.197,15.522 20.082,15.718 20.081 C 15.851 20.080,16.006 20.132,16.318 20.279 C 17.310 20.748,18.100 20.763,18.999 20.331 C 19.328 20.173,19.430 20.098,19.763 19.765 C 20.078 19.449,20.177 19.319,20.314 19.040 C 20.757 18.137,20.750 17.284,20.294 16.364 C 20.074 15.922,20.036 15.687,20.139 15.418 C 20.260 15.101,20.487 14.902,20.820 14.823 C 21.652 14.624,22.430 13.961,22.761 13.169 C 23.440 11.545,22.584 9.689,20.940 9.219 C 20.479 9.087,20.308 8.959,20.163 8.640 C 20.030 8.346,20.053 8.161,20.279 7.682 C 20.747 6.691,20.763 5.900,20.333 5.003 C 20.178 4.681,20.099 4.574,19.786 4.263 C 19.374 3.853,19.054 3.648,18.580 3.493 C 18.307 3.403,18.186 3.387,17.760 3.384 C 17.159 3.380,16.930 3.434,16.344 3.720 C 15.800 3.985,15.514 3.988,15.167 3.730 C 14.991 3.599,14.897 3.440,14.795 3.100 C 14.493 2.090,13.762 1.369,12.764 1.099 C 12.541 1.038,11.773 0.987,11.620 1.022 M12.284 3.046 C 12.612 3.155,12.790 3.370,12.925 3.820 C 13.214 4.782,13.904 5.477,14.900 5.807 C 15.138 5.886,15.260 5.900,15.720 5.899 C 16.343 5.898,16.531 5.853,17.109 5.571 C 17.312 5.472,17.560 5.381,17.660 5.370 C 18.141 5.316,18.637 5.778,18.639 6.284 C 18.640 6.425,18.594 6.559,18.441 6.866 C 18.035 7.680,17.970 8.474,18.246 9.240 C 18.572 10.145,19.262 10.799,20.180 11.075 C 20.520 11.177,20.679 11.271,20.810 11.447 C 21.094 11.829,21.059 12.303,20.721 12.641 C 20.572 12.790,20.485 12.838,20.232 12.912 C 19.669 13.075,19.112 13.426,18.770 13.833 C 18.587 14.050,18.334 14.500,18.218 14.813 L 18.147 15.006 17.423 14.993 C 16.721 14.980,16.695 14.977,16.516 14.872 C 16.158 14.661,16.026 14.393,15.988 13.800 C 15.963 13.413,15.855 12.987,15.711 12.702 L 15.630 12.544 15.745 12.448 C 16.382 11.915,16.681 11.493,16.886 10.839 C 17.021 10.407,17.021 9.594,16.886 9.160 C 16.582 8.183,15.832 7.428,14.861 7.121 L 14.540 7.020 10.080 7.000 L 5.620 6.980 5.490 6.724 C 5.398 6.543,5.360 6.413,5.361 6.284 C 5.363 5.778,5.859 5.316,6.340 5.370 C 6.440 5.381,6.688 5.472,6.891 5.571 C 7.469 5.853,7.657 5.898,8.280 5.899 C 8.740 5.900,8.862 5.886,9.100 5.807 C 10.096 5.477,10.786 4.782,11.075 3.820 C 11.177 3.480,11.271 3.321,11.447 3.190 C 11.692 3.007,12.007 2.953,12.284 3.046 M7.000 12.000 L 7.000 15.000 6.423 15.000 L 5.847 15.000 5.742 14.725 C 5.394 13.815,4.706 13.183,3.768 12.912 C 3.515 12.838,3.428 12.790,3.279 12.641 C 2.941 12.303,2.906 11.829,3.190 11.447 C 3.321 11.271,3.480 11.177,3.820 11.075 C 4.362 10.912,4.869 10.589,5.214 10.185 C 5.407 9.958,5.662 9.512,5.781 9.190 L 5.851 9.000 6.425 9.000 L 7.000 9.000 7.000 12.000 M14.310 9.061 C 14.688 9.173,15.000 9.598,15.000 10.001 C 15.000 10.331,14.784 10.696,14.484 10.872 L 14.300 10.980 11.650 10.991 L 9.000 11.002 9.000 10.001 L 9.000 9.000 11.553 9.000 C 13.722 9.000,14.136 9.009,14.310 9.061 M13.310 13.061 C 13.452 13.103,13.571 13.178,13.697 13.304 C 13.911 13.518,13.981 13.724,14.016 14.245 C 14.098 15.449,14.941 16.496,16.140 16.882 C 16.388 16.962,16.533 16.975,17.400 16.996 L 18.380 17.020 18.510 17.276 C 18.602 17.457,18.640 17.587,18.639 17.716 C 18.637 18.193,18.195 18.637,17.722 18.639 C 17.589 18.640,17.433 18.588,17.113 18.437 C 16.582 18.186,16.365 18.125,15.879 18.094 C 14.562 18.008,13.296 18.889,12.939 20.140 C 12.769 20.733,12.478 21.000,12.000 21.000 C 11.522 21.000,11.231 20.733,11.061 20.140 C 10.723 18.956,9.540 18.080,8.280 18.080 C 7.836 18.080,7.427 18.181,6.960 18.405 C 6.724 18.518,6.458 18.616,6.351 18.629 C 5.865 18.686,5.363 18.228,5.361 17.723 C 5.360 17.608,5.404 17.451,5.486 17.273 L 5.612 17.000 7.416 17.000 C 8.501 17.000,9.278 16.984,9.365 16.959 C 9.586 16.898,9.770 16.755,9.880 16.558 C 9.967 16.402,9.980 16.332,9.979 16.000 C 9.978 15.685,9.963 15.591,9.888 15.450 C 9.773 15.232,9.551 15.086,9.244 15.028 L 9.000 14.982 9.000 13.991 L 9.000 13.000 11.053 13.000 C 12.774 13.000,13.139 13.010,13.310 13.061 " stroke="none" fill="black" fill-rule="evenodd"></path></svg>