<svg xmlns="http://www.w3.org/2000/svg" width="24" height="24" viewBox="0 0 24 24" fill="none" stroke="currentColor" stroke-width="2" stroke-linecap="round" stroke-linejoin="round" class="icon icon-tabler icons-tabler-outline icon-tabler-map-pin-share"><path d="M11.380 2.027 C 9.504 2.186,7.918 2.797,6.460 3.922 C 5.663 4.537,4.819 5.487,4.285 6.371 C 3.126 8.291,2.729 10.686,3.205 12.880 C 3.505 14.260,4.055 15.427,4.961 16.600 C 5.264 16.992,9.362 21.148,9.999 21.708 C 10.564 22.207,11.256 22.480,11.951 22.480 C 12.654 22.480,13.006 22.163,13.009 21.526 C 13.011 20.834,12.756 20.558,12.048 20.487 C 11.776 20.460,11.642 20.425,11.513 20.348 C 11.270 20.204,6.751 15.658,6.455 15.260 C 6.094 14.773,5.903 14.462,5.682 13.992 C 4.945 12.430,4.812 10.675,5.302 8.996 C 5.654 7.791,6.425 6.585,7.372 5.758 C 10.158 3.327,14.319 3.449,16.921 6.039 C 17.779 6.892,18.398 7.936,18.715 9.061 C 19.049 10.247,19.079 11.285,18.816 12.567 C 18.707 13.098,18.703 13.158,18.765 13.379 C 18.851 13.689,19.236 13.947,19.724 14.020 C 20.085 14.074,20.433 13.887,20.606 13.548 C 20.707 13.350,20.854 12.667,20.943 11.980 C 21.021 11.378,21.002 10.322,20.902 9.676 C 20.323 5.963,17.596 3.044,13.936 2.222 C 13.163 2.049,12.090 1.967,11.380 2.027 M11.358 7.061 C 10.230 7.237,9.143 7.974,8.569 8.953 C 7.320 11.083,8.233 13.785,10.512 14.704 C 12.558 15.528,14.877 14.538,15.704 12.488 C 16.090 11.530,16.090 10.469,15.705 9.516 C 15.172 8.197,14.001 7.269,12.605 7.058 C 12.144 6.989,11.816 6.990,11.358 7.061 M12.523 9.073 C 13.262 9.266,13.850 9.924,13.967 10.690 C 14.067 11.343,13.873 11.933,13.403 12.404 C 13.002 12.807,12.547 13.000,12.000 13.000 C 11.485 13.000,11.038 12.822,10.653 12.465 C 9.323 11.229,10.189 9.005,12.000 9.005 C 12.143 9.005,12.378 9.036,12.523 9.073 M18.460 15.999 C 15.916 16.022,15.992 16.015,15.752 16.267 C 15.584 16.443,15.513 16.658,15.512 16.997 C 15.510 17.348,15.582 17.556,15.771 17.751 C 15.988 17.976,16.151 18.000,17.436 18.000 L 18.578 18.000 16.853 19.730 C 15.679 20.908,15.100 21.517,15.040 21.637 C 14.863 21.989,14.952 22.354,15.299 22.701 C 15.646 23.048,16.011 23.137,16.363 22.960 C 16.483 22.900,17.092 22.321,18.270 21.147 L 20.000 19.422 20.000 20.564 C 20.000 21.849,20.024 22.012,20.249 22.229 C 20.442 22.416,20.647 22.487,20.997 22.488 C 21.336 22.490,21.552 22.419,21.735 22.248 C 21.985 22.013,21.977 22.088,22.007 19.460 C 22.022 18.140,22.036 17.001,22.037 16.929 C 22.041 16.740,21.834 16.310,21.690 16.207 C 21.467 16.048,21.205 15.959,20.987 15.969 C 20.873 15.974,19.736 15.987,18.460 15.999 " stroke="none" fill="black" fill-rule="evenodd"></path></svg>