<svg xmlns="http://www.w3.org/2000/svg" width="24" height="24" viewBox="0 0 24 24" fill="none" stroke="currentColor" stroke-width="2" stroke-linecap="round" stroke-linejoin="round" class="icon icon-tabler icons-tabler-outline icon-tabler-brand-strava"><path d="M9.728 2.036 C 9.271 2.194,9.473 1.837,6.607 7.561 C 3.712 13.343,3.850 13.027,4.040 13.420 C 4.145 13.637,4.398 13.840,4.712 13.959 C 5.110 14.111,5.475 14.029,5.708 13.735 C 5.775 13.650,6.764 11.713,7.905 9.430 C 9.046 7.147,9.989 5.280,10.000 5.280 C 10.011 5.280,10.959 7.158,12.106 9.452 C 13.254 11.747,14.243 13.685,14.305 13.758 C 14.445 13.924,14.688 14.038,14.908 14.039 C 15.290 14.041,15.807 13.737,15.960 13.420 C 16.150 13.028,16.286 13.340,13.407 7.578 C 11.978 4.717,10.761 2.320,10.703 2.251 C 10.567 2.089,10.296 1.960,10.097 1.961 C 10.011 1.962,9.845 1.996,9.728 2.036 M10.759 12.021 C 10.484 12.106,10.161 12.351,10.049 12.560 C 9.969 12.711,9.956 12.779,9.973 12.980 C 9.991 13.200,10.167 13.568,12.092 17.422 C 13.247 19.733,14.242 21.684,14.304 21.758 C 14.537 22.035,14.900 22.106,15.305 21.955 C 15.744 21.791,15.664 21.929,17.940 17.367 L 20.020 13.199 20.020 12.923 C 20.020 12.680,20.006 12.627,19.900 12.479 C 19.670 12.156,19.105 11.909,18.751 11.975 C 18.669 11.991,18.525 12.061,18.431 12.132 C 18.271 12.252,18.154 12.472,16.640 15.490 C 15.749 17.266,15.011 18.720,15.000 18.720 C 14.989 18.720,14.266 17.292,13.394 15.548 C 12.521 13.803,11.761 12.319,11.703 12.251 C 11.482 11.989,11.137 11.905,10.759 12.021 " stroke="none" fill="black" fill-rule="evenodd"></path></svg>