<svg xmlns="http://www.w3.org/2000/svg" width="24" height="24" viewBox="0 0 24 24" fill="none" stroke="currentColor" stroke-width="2" stroke-linecap="round" stroke-linejoin="round" class="icon icon-tabler icons-tabler-outline icon-tabler-chart-scatter"><path d="M2.614 2.057 C 2.377 2.131,2.212 2.261,2.109 2.453 L 2.020 2.620 2.020 12.000 L 2.020 21.380 2.120 21.558 C 2.230 21.755,2.414 21.898,2.635 21.959 C 2.835 22.015,21.165 22.015,21.365 21.959 C 21.586 21.898,21.770 21.755,21.880 21.558 C 21.967 21.402,21.980 21.332,21.979 21.000 C 21.978 20.567,21.898 20.355,21.678 20.199 C 21.386 19.990,21.827 20.000,12.594 20.000 L 4.001 20.000 3.990 11.310 L 3.980 2.620 3.891 2.453 C 3.842 2.362,3.746 2.247,3.678 2.199 C 3.414 2.010,2.957 1.950,2.614 2.057 M7.640 6.077 C 7.176 6.219,6.972 6.561,7.008 7.136 C 7.049 7.773,7.418 8.074,8.104 8.031 C 8.732 7.991,9.034 7.618,8.991 6.936 C 8.962 6.477,8.750 6.188,8.365 6.081 C 8.198 6.034,7.787 6.033,7.640 6.077 M11.640 10.077 C 11.176 10.219,10.972 10.561,11.008 11.136 C 11.049 11.773,11.418 12.074,12.104 12.031 C 12.732 11.991,13.034 11.618,12.991 10.936 C 12.962 10.477,12.750 10.188,12.365 10.081 C 12.198 10.034,11.787 10.033,11.640 10.077 M18.640 10.077 C 18.176 10.219,17.972 10.561,18.008 11.136 C 18.049 11.773,18.418 12.074,19.104 12.031 C 19.732 11.991,20.034 11.618,19.991 10.936 C 19.962 10.477,19.750 10.188,19.365 10.081 C 19.198 10.034,18.787 10.033,18.640 10.077 M7.496 14.116 C 7.142 14.277,6.974 14.626,7.009 15.123 C 7.047 15.641,7.282 15.921,7.754 16.008 C 8.254 16.101,8.714 15.923,8.884 15.571 C 9.002 15.328,9.029 14.919,8.946 14.637 C 8.823 14.217,8.545 14.042,8.000 14.042 C 7.754 14.042,7.615 14.062,7.496 14.116 M15.496 15.116 C 15.142 15.277,14.974 15.626,15.009 16.123 C 15.047 16.647,15.276 16.919,15.754 17.008 C 16.254 17.101,16.714 16.923,16.884 16.571 C 17.002 16.328,17.029 15.919,16.946 15.637 C 16.823 15.217,16.545 15.042,16.000 15.042 C 15.754 15.042,15.615 15.062,15.496 15.116 " stroke="none" fill="black" fill-rule="evenodd"></path></svg>