<svg xmlns="http://www.w3.org/2000/svg" width="24" height="24" viewBox="0 0 24 24" fill="none" stroke="currentColor" stroke-width="2" stroke-linecap="round" stroke-linejoin="round" class="icon icon-tabler icons-tabler-outline icon-tabler-automatic-gearbox"><path d="M4.499 2.040 C 3.363 2.246,2.460 3.049,2.114 4.160 C 1.979 4.594,1.979 5.406,2.114 5.840 C 2.365 6.645,2.931 7.318,3.670 7.688 L 4.000 7.853 4.000 9.058 C 4.000 10.363,4.019 10.524,4.225 10.930 C 4.361 11.199,4.801 11.639,5.070 11.775 C 5.472 11.979,5.642 12.000,6.868 12.000 L 8.000 12.000 8.000 15.132 C 8.000 18.535,7.997 18.479,8.225 18.930 C 8.361 19.199,8.801 19.639,9.070 19.775 C 9.497 19.991,9.591 20.000,11.478 20.000 C 12.522 20.000,13.278 19.983,13.365 19.959 C 13.586 19.898,13.770 19.755,13.880 19.558 C 13.967 19.402,13.980 19.332,13.979 19.000 C 13.978 18.567,13.898 18.355,13.678 18.199 C 13.416 18.012,13.290 18.000,11.594 18.000 L 10.000 18.000 10.000 15.000 L 10.000 12.000 11.610 12.000 C 12.565 12.000,13.279 11.983,13.365 11.959 C 13.586 11.898,13.770 11.755,13.880 11.558 C 13.967 11.402,13.980 11.332,13.979 11.000 C 13.978 10.567,13.898 10.355,13.678 10.199 C 13.396 9.998,13.439 10.000,9.594 10.000 L 6.000 10.000 6.000 8.927 L 6.000 7.853 6.330 7.688 C 7.069 7.318,7.635 6.645,7.886 5.840 C 8.021 5.406,8.021 4.594,7.886 4.160 C 7.581 3.179,6.810 2.407,5.861 2.129 C 5.500 2.023,4.832 1.980,4.499 2.040 M5.310 4.061 C 5.688 4.173,6.000 4.598,6.000 5.001 C 6.000 5.331,5.784 5.696,5.484 5.872 C 5.328 5.963,5.254 5.980,5.000 5.980 C 4.746 5.980,4.672 5.963,4.516 5.872 C 3.935 5.530,3.833 4.774,4.304 4.303 C 4.583 4.024,4.916 3.944,5.310 4.061 M16.614 7.057 C 16.377 7.131,16.212 7.261,16.109 7.453 L 16.020 7.620 16.009 10.412 C 16.002 12.226,16.012 13.257,16.039 13.356 C 16.144 13.747,16.433 13.961,16.896 13.991 C 17.381 14.022,17.699 13.882,17.880 13.558 C 17.974 13.391,17.981 13.338,17.994 12.695 L 18.008 12.010 18.514 11.991 C 18.925 11.975,19.076 11.951,19.320 11.865 C 20.031 11.614,20.605 11.041,20.867 10.320 C 20.965 10.051,20.976 9.966,20.976 9.500 C 20.976 9.035,20.965 8.948,20.868 8.680 C 20.732 8.306,20.458 7.898,20.165 7.636 C 19.887 7.387,19.390 7.137,19.020 7.060 C 18.647 6.982,16.861 6.980,16.614 7.057 M18.748 9.078 C 18.893 9.167,19.000 9.346,19.000 9.500 C 19.000 9.654,18.893 9.833,18.748 9.922 C 18.650 9.981,18.547 10.000,18.310 10.000 L 18.000 10.000 18.000 9.500 L 18.000 9.000 18.310 9.000 C 18.547 9.000,18.650 9.019,18.748 9.078 M16.614 16.055 C 16.375 16.133,16.211 16.262,16.109 16.453 C 16.020 16.619,16.020 16.629,16.009 18.911 C 16.001 20.392,16.012 21.256,16.039 21.355 C 16.100 21.583,16.242 21.768,16.442 21.880 C 16.618 21.979,16.630 21.980,17.580 21.980 C 18.475 21.980,18.560 21.974,18.840 21.886 C 19.827 21.578,20.579 20.826,20.886 19.840 C 21.021 19.406,21.021 18.594,20.886 18.160 C 20.581 17.181,19.820 16.417,18.861 16.125 C 18.571 16.037,18.455 16.027,17.660 16.014 C 16.997 16.004,16.739 16.014,16.614 16.055 M18.310 18.061 C 18.688 18.173,19.000 18.598,19.000 19.001 C 19.000 19.461,18.620 19.911,18.170 19.983 L 18.000 20.010 18.000 19.005 C 18.000 18.200,18.010 18.000,18.053 18.000 C 18.082 18.000,18.198 18.027,18.310 18.061 " stroke="none" fill="black" fill-rule="evenodd"></path></svg>