<svg xmlns="http://www.w3.org/2000/svg" width="24" height="24" viewBox="0 0 24 24" fill="none" stroke="currentColor" stroke-width="2" stroke-linecap="round" stroke-linejoin="round" class="icon icon-tabler icons-tabler-outline icon-tabler-gender-demiboy"><path d="M16.219 3.999 L 13.658 4.020 13.459 4.122 C 13.119 4.297,12.978 4.606,13.009 5.104 C 13.038 5.563,13.250 5.852,13.635 5.959 C 13.719 5.983,14.365 6.000,15.180 6.000 L 16.580 6.000 15.025 7.555 L 13.471 9.109 13.265 8.974 C 11.776 7.990,9.780 7.742,8.060 8.329 C 6.054 9.013,4.575 10.703,4.114 12.840 C 3.984 13.446,3.984 14.554,4.114 15.160 C 4.638 17.587,6.417 19.365,8.840 19.885 C 9.446 20.015,10.554 20.015,11.160 19.885 C 12.369 19.626,13.340 19.109,14.195 18.269 C 15.068 17.412,15.620 16.397,15.885 15.160 C 16.015 14.554,16.015 13.446,15.885 12.840 C 15.723 12.083,15.410 11.313,15.040 10.755 L 14.890 10.529 17.236 8.195 C 18.526 6.911,19.633 5.826,19.696 5.784 C 19.850 5.682,20.049 5.239,20.049 5.000 C 20.049 4.759,19.851 4.322,19.690 4.207 C 19.466 4.048,19.205 3.959,18.987 3.969 C 18.873 3.974,17.627 3.988,16.219 3.999 M10.605 10.058 C 12.074 10.280,13.310 11.324,13.797 12.755 C 13.897 13.050,14.000 13.680,14.000 14.000 C 14.000 14.322,13.897 14.951,13.796 15.245 C 13.321 16.632,12.195 17.628,10.773 17.917 C 8.563 18.368,6.396 16.845,6.058 14.605 C 5.986 14.121,5.986 13.879,6.058 13.395 C 6.314 11.698,7.675 10.324,9.358 10.061 C 9.816 9.990,10.144 9.989,10.605 10.058 " stroke="none" fill="black" fill-rule="evenodd"></path></svg>