<svg xmlns="http://www.w3.org/2000/svg" width="24" height="24" viewBox="0 0 24 24" fill="none" stroke="currentColor" stroke-width="2" stroke-linecap="round" stroke-linejoin="round" class="icon icon-tabler icons-tabler-outline icon-tabler-circle-chevrons-right"><path d="M10.960 1.923 C 9.726 2.059,8.520 2.418,7.450 2.965 C 5.467 3.980,3.804 5.718,2.898 7.724 C 2.537 8.524,2.233 9.548,2.099 10.420 C 2.011 10.985,1.979 12.159,2.036 12.740 C 2.266 15.128,3.266 17.272,4.919 18.920 C 6.541 20.536,8.523 21.503,10.840 21.807 C 11.398 21.880,12.717 21.868,13.300 21.784 C 16.074 21.387,18.387 20.018,20.054 17.787 C 21.774 15.486,22.401 12.420,21.733 9.580 C 21.327 7.856,20.452 6.248,19.226 4.973 C 17.658 3.341,15.690 2.316,13.480 1.978 C 12.979 1.902,11.455 1.868,10.960 1.923 M13.400 3.994 C 18.010 4.816,20.927 9.419,19.716 13.960 C 19.038 16.504,17.058 18.608,14.557 19.444 C 12.880 20.005,11.144 20.009,9.484 19.455 C 7.977 18.952,6.713 18.067,5.721 16.818 C 3.817 14.422,3.467 11.055,4.839 8.316 C 5.263 7.468,5.718 6.837,6.370 6.192 C 7.614 4.960,9.175 4.191,10.940 3.940 C 11.517 3.858,12.794 3.886,13.400 3.994 M8.626 8.045 C 8.257 8.239,7.951 8.673,7.951 9.000 C 7.951 9.333,8.056 9.467,9.353 10.770 L 10.577 12.000 9.353 13.230 C 8.548 14.039,8.099 14.521,8.040 14.637 C 7.863 14.989,7.952 15.354,8.299 15.701 C 8.645 16.048,9.010 16.137,9.363 15.961 C 9.610 15.837,12.837 12.610,12.961 12.363 C 13.014 12.256,13.049 12.111,13.049 12.000 C 13.049 11.889,13.014 11.744,12.961 11.637 C 12.841 11.397,9.611 8.163,9.372 8.044 C 9.152 7.934,8.835 7.935,8.626 8.045 M12.626 8.045 C 12.257 8.239,11.951 8.673,11.951 9.000 C 11.951 9.333,12.056 9.467,13.353 10.770 L 14.577 12.000 13.353 13.230 C 12.548 14.039,12.099 14.521,12.040 14.637 C 11.863 14.989,11.952 15.354,12.299 15.701 C 12.645 16.048,13.010 16.137,13.363 15.961 C 13.484 15.900,14.065 15.347,15.206 14.206 C 16.347 13.065,16.900 12.484,16.961 12.363 C 17.014 12.256,17.049 12.111,17.049 12.000 C 17.049 11.889,17.014 11.744,16.961 11.637 C 16.841 11.397,13.611 8.163,13.372 8.044 C 13.152 7.934,12.835 7.935,12.626 8.045 " stroke="none" fill="black" fill-rule="evenodd"></path></svg>