<svg xmlns="http://www.w3.org/2000/svg" width="24" height="24" viewBox="0 0 24 24" fill="none" stroke="currentColor" stroke-width="2" stroke-linecap="round" stroke-linejoin="round" class="icon icon-tabler icons-tabler-outline icon-tabler-signature"><path d="M5.574 5.041 C 4.278 5.276,3.243 6.560,3.044 8.180 C 2.868 9.622,3.229 11.115,4.259 13.207 C 4.512 13.720,4.551 13.824,4.507 13.877 C 4.073 14.405,3.357 15.195,2.654 15.924 C 2.364 16.224,2.088 16.547,2.039 16.642 C 1.863 16.987,1.953 17.355,2.299 17.701 C 2.645 18.047,3.010 18.136,3.363 17.961 C 3.560 17.863,4.352 17.076,5.155 16.180 C 5.431 15.872,5.668 15.620,5.681 15.620 C 5.695 15.620,5.854 15.804,6.036 16.030 C 6.906 17.112,7.614 17.651,8.392 17.824 C 8.932 17.944,9.475 17.822,9.972 17.468 C 10.339 17.206,10.595 16.905,11.100 16.145 C 11.342 15.781,11.550 15.482,11.563 15.481 C 11.575 15.481,11.626 15.579,11.676 15.700 C 11.805 16.010,12.166 16.572,12.427 16.870 C 13.009 17.533,13.830 17.929,14.741 17.988 C 15.465 18.034,15.770 17.878,17.337 16.664 C 17.752 16.343,18.111 16.080,18.135 16.080 C 18.281 16.080,19.180 16.743,19.995 17.451 C 20.537 17.922,20.751 18.047,21.013 18.046 C 21.229 18.046,21.379 17.987,21.580 17.822 C 21.923 17.541,22.115 17.114,22.034 16.812 C 21.966 16.558,21.806 16.370,21.241 15.884 C 19.649 14.515,18.620 13.936,17.921 14.017 C 17.493 14.067,17.164 14.262,16.040 15.138 C 15.033 15.923,14.895 16.011,14.721 15.981 C 14.458 15.935,14.093 15.727,13.900 15.512 C 13.676 15.262,13.401 14.708,13.260 14.220 C 13.202 14.022,13.110 13.590,13.055 13.260 C 12.945 12.600,12.866 12.410,12.622 12.224 C 12.154 11.867,11.683 11.875,11.335 12.246 C 11.266 12.320,10.724 13.109,10.129 14.000 C 9.535 14.891,8.988 15.678,8.914 15.748 C 8.780 15.876,8.780 15.876,8.643 15.810 C 8.438 15.710,8.069 15.351,7.672 14.865 C 7.322 14.438,7.000 13.992,7.000 13.936 C 7.000 13.920,7.106 13.753,7.235 13.564 C 8.139 12.242,8.732 10.916,8.927 9.781 C 8.998 9.370,9.007 9.198,8.987 8.600 C 8.917 6.520,8.323 5.442,7.056 5.102 C 6.773 5.026,5.863 4.989,5.574 5.041 M6.631 7.075 C 6.812 7.172,6.946 7.763,6.987 8.639 C 7.023 9.426,6.886 10.053,6.498 10.875 C 6.256 11.387,5.921 11.965,5.881 11.940 C 5.836 11.913,5.495 11.101,5.354 10.688 C 4.843 9.188,4.900 7.950,5.511 7.273 C 5.724 7.037,5.840 6.995,6.224 7.014 C 6.402 7.023,6.585 7.050,6.631 7.075 " stroke="none" fill="black" fill-rule="evenodd"></path></svg>