<svg xmlns="http://www.w3.org/2000/svg" width="24" height="24" viewBox="0 0 24 24" fill="none" stroke="currentColor" stroke-width="2" stroke-linecap="round" stroke-linejoin="round" class="icon icon-tabler icons-tabler-outline icon-tabler-shopping-cart-off"><path d="M2.626 2.045 C 2.420 2.154,2.146 2.433,2.038 2.644 C 1.924 2.868,1.924 3.133,2.040 3.363 C 2.100 3.481,2.603 4.016,3.565 4.981 L 5.000 6.422 5.000 11.284 L 5.000 16.145 4.670 16.313 C 3.922 16.693,3.365 17.355,3.114 18.160 C 2.979 18.594,2.979 19.406,3.114 19.840 C 3.421 20.826,4.174 21.579,5.160 21.886 C 5.594 22.021,6.406 22.021,6.840 21.886 C 7.826 21.579,8.579 20.826,8.886 19.840 C 9.032 19.372,9.015 18.479,8.854 18.057 C 8.834 18.008,9.196 18.000,11.500 18.000 C 13.804 18.000,14.166 18.008,14.146 18.057 C 14.052 18.303,14.023 18.524,14.022 19.000 C 14.021 19.456,14.035 19.587,14.114 19.840 C 14.421 20.826,15.174 21.579,16.160 21.886 C 16.594 22.021,17.407 22.021,17.839 21.886 C 18.393 21.712,18.773 21.474,19.196 21.033 L 19.397 20.823 19.928 21.346 C 20.221 21.633,20.540 21.909,20.637 21.959 C 20.988 22.137,21.353 22.049,21.701 21.701 C 22.048 21.354,22.137 20.989,21.959 20.637 C 21.887 20.495,20.781 19.322,19.748 18.292 C 19.627 18.171,17.890 16.435,17.734 16.279 C 17.664 16.209,16.761 15.307,15.727 14.273 C 14.693 13.239,13.805 12.351,13.754 12.299 C 13.702 12.248,12.130 10.676,10.260 8.806 C 8.390 6.936,6.815 5.361,6.760 5.305 C 5.630 4.157,3.503 2.111,3.372 2.045 C 3.152 1.934,2.835 1.934,2.626 2.045 M8.780 4.300 C 8.425 4.426,8.213 4.849,8.249 5.358 C 8.260 5.504,8.301 5.692,8.341 5.777 C 8.431 5.967,8.695 6.142,8.975 6.197 C 9.088 6.219,11.348 6.391,13.997 6.579 C 16.647 6.767,18.823 6.929,18.832 6.939 C 18.848 6.954,18.186 11.699,18.139 11.910 C 18.119 11.999,18.110 12.000,17.466 12.000 C 16.571 12.000,16.303 12.090,16.109 12.453 C 16.035 12.592,16.020 12.684,16.020 13.000 C 16.020 13.331,16.033 13.403,16.120 13.558 C 16.232 13.759,16.417 13.900,16.648 13.962 C 16.746 13.989,17.273 14.000,18.072 13.992 C 19.291 13.980,19.346 13.977,19.505 13.892 C 19.727 13.773,19.867 13.597,19.938 13.347 C 19.970 13.233,20.224 11.547,20.502 9.600 C 21.035 5.866,21.046 5.752,20.890 5.450 C 20.786 5.247,20.535 5.085,20.251 5.037 C 19.985 4.993,9.476 4.239,9.153 4.242 C 9.036 4.243,8.868 4.269,8.780 4.300 M8.800 10.220 L 10.580 12.000 8.790 12.000 L 7.000 12.000 7.000 10.220 C 7.000 9.241,7.005 8.440,7.010 8.440 C 7.016 8.440,7.821 9.241,8.800 10.220 M13.580 15.000 L 14.579 16.000 10.790 16.000 L 7.000 16.000 7.000 15.000 L 7.000 14.000 9.790 14.000 L 12.581 14.000 13.580 15.000 M6.310 18.061 C 6.688 18.173,7.000 18.598,7.000 19.001 C 7.000 19.331,6.784 19.696,6.484 19.872 C 6.328 19.963,6.254 19.980,6.000 19.980 C 5.746 19.980,5.672 19.963,5.516 19.872 C 4.935 19.530,4.833 18.774,5.304 18.303 C 5.583 18.024,5.916 17.944,6.310 18.061 M17.290 18.710 C 17.636 19.056,17.920 19.358,17.920 19.382 C 17.920 19.476,17.661 19.768,17.486 19.871 C 17.328 19.964,17.255 19.980,17.000 19.980 C 16.746 19.980,16.672 19.963,16.516 19.872 C 15.992 19.564,15.843 18.871,16.201 18.407 C 16.298 18.283,16.555 18.080,16.617 18.080 C 16.640 18.080,16.943 18.363,17.290 18.710 " stroke="none" fill="black" fill-rule="evenodd"></path></svg>