<svg xmlns="http://www.w3.org/2000/svg" width="24" height="24" viewBox="0 0 24 24" fill="none" stroke="currentColor" stroke-width="2" stroke-linecap="round" stroke-linejoin="round" class="icon icon-tabler icons-tabler-outline icon-tabler-arrows-double-nw-se"><path d="M9.626 2.045 C 9.420 2.154,9.146 2.433,9.038 2.644 C 8.924 2.867,8.924 3.132,9.039 3.363 C 9.103 3.490,10.470 4.884,13.854 8.270 L 18.579 13.000 17.696 13.000 C 16.757 13.000,16.561 13.028,16.322 13.199 C 16.139 13.329,16.030 13.573,16.009 13.900 C 15.978 14.381,16.119 14.699,16.442 14.880 L 16.620 14.980 18.780 15.007 C 19.968 15.023,20.999 15.036,21.071 15.037 C 21.224 15.040,21.669 14.847,21.768 14.735 C 21.878 14.611,22.041 14.209,22.038 14.069 C 22.036 13.998,22.023 12.968,22.008 11.780 C 21.980 9.637,21.979 9.619,21.889 9.450 C 21.724 9.140,21.329 8.970,20.874 9.011 C 20.439 9.051,20.141 9.274,20.041 9.635 C 20.019 9.715,20.000 10.185,20.000 10.680 L 20.000 11.579 15.270 6.854 C 12.033 3.619,10.487 2.101,10.372 2.044 C 10.152 1.934,9.835 1.935,9.626 2.045 M2.597 9.050 C 2.507 9.088,2.378 9.159,2.311 9.207 C 2.166 9.310,1.959 9.739,1.963 9.929 C 1.964 10.001,1.977 11.032,1.993 12.220 L 2.020 14.380 2.120 14.558 C 2.287 14.856,2.572 15.000,3.000 15.000 C 3.428 15.000,3.713 14.856,3.880 14.558 C 3.978 14.384,3.980 14.359,3.993 13.404 L 4.006 12.427 8.733 17.150 C 12.117 20.530,13.510 21.897,13.637 21.961 C 13.990 22.137,14.355 22.048,14.701 21.701 C 15.048 21.355,15.137 20.990,14.961 20.637 C 14.897 20.510,13.530 19.116,10.146 15.730 L 5.421 11.000 6.320 11.000 C 6.815 11.000,7.285 10.981,7.365 10.959 C 7.586 10.898,7.770 10.755,7.880 10.558 C 7.967 10.402,7.980 10.332,7.979 10.000 C 7.978 9.685,7.963 9.591,7.888 9.450 C 7.783 9.252,7.574 9.102,7.320 9.043 C 7.211 9.018,6.278 8.997,4.951 8.991 C 2.941 8.981,2.748 8.986,2.597 9.050 " stroke="none" fill="black" fill-rule="evenodd"></path></svg>