<svg xmlns="http://www.w3.org/2000/svg" width="24" height="24" viewBox="0 0 24 24" fill="none" stroke="currentColor" stroke-width="2" stroke-linecap="round" stroke-linejoin="round" class="icon icon-tabler icons-tabler-outline icon-tabler-circle-letter-z"><path d="M11.080 2.045 C 9.507 2.184,7.883 2.751,6.540 3.630 C 5.905 4.045,5.499 4.378,4.919 4.958 C 2.953 6.926,1.919 9.544,2.013 12.320 C 2.084 14.439,2.752 16.328,4.033 18.040 C 4.430 18.570,5.305 19.464,5.800 19.847 C 7.242 20.961,8.787 21.624,10.600 21.907 C 11.247 22.008,12.753 22.008,13.400 21.907 C 15.638 21.557,17.504 20.620,19.062 19.062 C 20.620 17.504,21.557 15.638,21.907 13.400 C 22.008 12.753,22.008 11.247,21.907 10.600 C 21.624 8.786,20.959 7.238,19.847 5.800 C 19.510 5.365,18.639 4.494,18.200 4.154 C 16.133 2.555,13.646 1.818,11.080 2.045 M12.734 4.041 C 14.574 4.216,16.228 4.976,17.554 6.256 C 20.043 8.658,20.702 12.394,19.183 15.499 C 18.749 16.387,18.223 17.105,17.496 17.801 C 16.876 18.394,16.262 18.819,15.471 19.200 C 13.267 20.265,10.733 20.265,8.529 19.200 C 7.477 18.693,6.612 18.015,5.847 17.100 C 3.848 14.711,3.440 11.302,4.816 8.500 C 6.162 5.760,8.867 4.049,11.920 4.005 C 12.129 4.003,12.495 4.019,12.734 4.041 M9.614 7.057 C 9.377 7.131,9.212 7.261,9.109 7.453 C 9.035 7.592,9.020 7.684,9.020 8.000 C 9.020 8.331,9.033 8.403,9.120 8.558 C 9.230 8.755,9.414 8.898,9.635 8.959 C 9.718 8.982,10.329 9.000,11.070 9.000 C 11.780 9.000,12.360 9.009,12.360 9.019 C 12.360 9.030,11.603 10.556,10.677 12.409 C 8.807 16.155,8.855 16.037,9.040 16.420 C 9.096 16.535,9.201 16.658,9.315 16.742 C 9.674 17.005,9.625 17.000,12.037 17.000 C 13.376 17.000,14.276 16.984,14.365 16.959 C 14.586 16.898,14.770 16.755,14.880 16.558 C 14.967 16.402,14.980 16.332,14.979 16.000 C 14.978 15.567,14.898 15.355,14.678 15.199 C 14.424 15.018,14.268 15.000,12.914 15.000 C 12.213 15.000,11.640 14.991,11.640 14.981 C 11.640 14.970,12.392 13.457,13.310 11.619 L 14.980 8.277 14.978 7.948 C 14.974 7.436,14.804 7.185,14.371 7.055 C 14.112 6.977,9.864 6.979,9.614 7.057 " stroke="none" fill="black" fill-rule="evenodd"></path></svg>