<svg xmlns="http://www.w3.org/2000/svg" width="24" height="24" viewBox="0 0 24 24" fill="none" stroke="currentColor" stroke-width="2" stroke-linecap="round" stroke-linejoin="round" class="icon icon-tabler icons-tabler-outline icon-tabler-arrow-rotary-last-left"><path d="M5.597 2.050 C 5.507 2.088,5.378 2.159,5.311 2.207 C 5.165 2.310,4.959 2.739,4.963 2.929 C 4.965 3.001,4.978 4.257,4.993 5.720 L 5.020 8.380 5.120 8.558 C 5.287 8.856,5.572 9.000,6.000 9.000 C 6.428 9.000,6.713 8.856,6.880 8.558 L 6.980 8.380 6.992 6.902 L 7.005 5.425 9.281 7.701 C 11.480 9.900,11.556 9.981,11.500 10.066 C 11.370 10.265,11.160 10.849,11.082 11.228 C 10.700 13.105,11.756 15.031,13.540 15.711 C 13.716 15.778,13.892 15.843,13.930 15.855 C 13.996 15.876,14.000 16.040,14.000 18.549 C 14.000 20.215,14.016 21.274,14.041 21.365 C 14.148 21.750,14.437 21.962,14.896 21.991 C 15.381 22.022,15.699 21.882,15.880 21.558 L 15.980 21.380 15.991 18.628 C 16.002 16.069,16.007 15.875,16.071 15.855 C 17.339 15.453,18.237 14.645,18.704 13.488 C 18.994 12.769,19.070 11.977,18.921 11.243 C 18.628 9.806,17.637 8.680,16.245 8.204 C 15.951 8.103,15.322 8.000,15.000 8.000 C 14.436 8.000,13.756 8.163,13.237 8.423 L 12.974 8.554 10.697 6.277 L 8.420 4.000 9.820 4.000 C 10.634 4.000,11.281 3.983,11.365 3.959 C 11.586 3.898,11.770 3.755,11.880 3.558 C 11.967 3.402,11.980 3.332,11.979 3.000 C 11.978 2.685,11.963 2.591,11.888 2.450 C 11.784 2.252,11.574 2.102,11.320 2.043 C 11.207 2.017,10.138 1.997,8.451 1.991 C 5.966 1.981,5.749 1.985,5.597 2.050 M15.523 10.073 C 16.262 10.266,16.850 10.924,16.967 11.690 C 17.067 12.343,16.873 12.933,16.403 13.404 C 16.002 13.807,15.547 14.000,15.000 14.000 C 14.485 14.000,14.038 13.822,13.653 13.465 C 12.323 12.229,13.189 10.005,15.000 10.005 C 15.143 10.005,15.378 10.036,15.523 10.073 " stroke="none" fill="black" fill-rule="evenodd"></path></svg>