<svg xmlns="http://www.w3.org/2000/svg" width="24" height="24" viewBox="0 0 24 24" fill="none" stroke="currentColor" stroke-width="2" stroke-linecap="round" stroke-linejoin="round" class="icon icon-tabler icons-tabler-outline icon-tabler-creative-commons-sa"><path d="M11.080 2.045 C 9.507 2.184,7.883 2.751,6.540 3.630 C 5.905 4.045,5.499 4.378,4.919 4.958 C 2.953 6.926,1.919 9.544,2.013 12.320 C 2.084 14.439,2.752 16.328,4.033 18.040 C 4.430 18.570,5.305 19.464,5.800 19.847 C 7.242 20.961,8.787 21.624,10.600 21.907 C 11.247 22.008,12.753 22.008,13.400 21.907 C 15.638 21.557,17.504 20.620,19.062 19.062 C 20.620 17.504,21.557 15.638,21.907 13.400 C 22.008 12.753,22.008 11.247,21.907 10.600 C 21.624 8.786,20.959 7.238,19.847 5.800 C 19.510 5.365,18.639 4.494,18.200 4.154 C 16.133 2.555,13.646 1.818,11.080 2.045 M12.734 4.041 C 14.574 4.216,16.228 4.976,17.554 6.256 C 20.043 8.658,20.702 12.394,19.183 15.499 C 18.749 16.387,18.223 17.105,17.496 17.801 C 16.876 18.394,16.262 18.819,15.471 19.200 C 13.267 20.265,10.733 20.265,8.529 19.200 C 7.477 18.693,6.612 18.015,5.847 17.100 C 3.848 14.711,3.440 11.302,4.816 8.500 C 6.162 5.760,8.867 4.049,11.920 4.005 C 12.129 4.003,12.495 4.019,12.734 4.041 M11.400 7.044 C 9.761 7.229,8.261 8.290,7.526 9.785 C 7.276 10.292,7.040 11.083,7.040 11.412 C 7.040 11.464,7.028 11.518,7.014 11.532 C 7.000 11.547,6.882 11.459,6.751 11.338 C 6.445 11.055,6.257 10.960,6.000 10.960 C 5.749 10.960,5.534 11.064,5.299 11.299 C 4.952 11.646,4.863 12.010,5.040 12.363 C 5.162 12.607,7.393 14.838,7.637 14.960 C 7.868 15.076,8.132 15.076,8.363 14.960 C 8.607 14.838,10.838 12.607,10.960 12.363 C 11.137 12.010,11.048 11.646,10.701 11.299 C 10.466 11.064,10.251 10.960,10.000 10.960 C 9.746 10.960,9.561 11.052,9.260 11.327 L 9.030 11.537 9.060 11.399 C 9.293 10.315,10.089 9.445,11.139 9.125 C 11.412 9.042,11.542 9.027,12.000 9.027 C 12.458 9.027,12.588 9.042,12.861 9.125 C 13.815 9.416,14.584 10.185,14.875 11.139 C 14.958 11.412,14.973 11.542,14.973 12.000 C 14.973 12.458,14.958 12.588,14.875 12.861 C 14.584 13.815,13.808 14.592,12.860 14.877 C 12.704 14.924,12.372 14.977,12.108 14.996 C 11.417 15.048,11.157 15.207,11.035 15.656 C 10.967 15.911,11.010 16.356,11.124 16.562 C 11.314 16.907,11.609 17.020,12.240 16.989 C 14.020 16.900,15.628 15.864,16.433 14.288 C 16.838 13.494,16.980 12.899,16.980 12.000 C 16.980 11.101,16.838 10.506,16.433 9.713 C 15.794 8.461,14.604 7.510,13.240 7.162 C 12.669 7.016,12.019 6.974,11.400 7.044 " stroke="none" fill="black" fill-rule="evenodd"></path></svg>