<svg xmlns="http://www.w3.org/2000/svg" width="24" height="24" viewBox="0 0 24 24" fill="none" stroke="currentColor" stroke-width="2" stroke-linecap="round" stroke-linejoin="round" class="icon icon-tabler icons-tabler-outline icon-tabler-ce"><path d="M8.540 5.026 C 6.765 5.166,5.276 5.842,4.059 7.059 C 2.989 8.129,2.322 9.447,2.074 10.980 C 2.008 11.393,2.008 12.607,2.074 13.020 C 2.322 14.553,2.989 15.871,4.059 16.941 C 5.316 18.198,6.895 18.894,8.700 18.985 C 9.397 19.021,9.678 18.919,9.880 18.558 C 9.967 18.402,9.980 18.332,9.979 18.000 C 9.978 17.687,9.962 17.591,9.890 17.453 C 9.720 17.132,9.512 17.042,8.840 16.998 C 8.031 16.946,7.433 16.793,6.785 16.474 C 5.675 15.928,4.774 14.933,4.320 13.752 C 3.915 12.699,3.915 11.301,4.320 10.248 C 4.905 8.725,6.205 7.559,7.760 7.162 C 8.077 7.081,8.708 7.000,9.028 7.000 C 9.427 6.999,9.717 6.849,9.880 6.558 C 9.967 6.402,9.980 6.332,9.979 6.000 C 9.978 5.687,9.962 5.591,9.890 5.453 C 9.692 5.078,9.330 4.964,8.540 5.026 M20.540 5.026 C 19.804 5.084,19.250 5.200,18.620 5.427 C 16.452 6.207,14.779 8.052,14.223 10.275 C 14.064 10.908,14.023 11.264,14.023 12.000 C 14.023 12.736,14.064 13.092,14.223 13.725 C 14.710 15.672,16.059 17.343,17.886 18.263 C 18.742 18.694,19.674 18.933,20.700 18.985 C 21.397 19.021,21.678 18.919,21.880 18.558 C 21.967 18.402,21.980 18.332,21.979 18.000 C 21.978 17.687,21.962 17.591,21.890 17.453 C 21.720 17.132,21.512 17.042,20.840 16.998 C 19.506 16.912,18.461 16.471,17.563 15.616 C 16.882 14.968,16.281 13.928,16.139 13.150 L 16.111 13.000 18.666 13.000 C 20.253 13.000,21.275 12.984,21.365 12.959 C 21.586 12.898,21.770 12.755,21.880 12.558 C 21.967 12.402,21.980 12.332,21.979 12.000 C 21.978 11.567,21.898 11.355,21.678 11.199 C 21.403 11.003,21.359 11.000,18.649 11.000 L 16.111 11.000 16.139 10.850 C 16.185 10.596,16.362 10.117,16.541 9.760 C 17.183 8.480,18.381 7.514,19.760 7.162 C 20.077 7.081,20.708 7.000,21.028 7.000 C 21.427 6.999,21.717 6.849,21.880 6.558 C 21.967 6.402,21.980 6.332,21.979 6.000 C 21.978 5.687,21.962 5.591,21.890 5.453 C 21.692 5.078,21.330 4.964,20.540 5.026 " stroke="none" fill="black" fill-rule="evenodd"></path></svg>