<svg xmlns="http://www.w3.org/2000/svg" width="24" height="24" viewBox="0 0 24 24" fill="none" stroke="currentColor" stroke-width="2" stroke-linecap="round" stroke-linejoin="round" class="icon icon-tabler icons-tabler-outline icon-tabler-photo-share"><path d="M5.358 2.061 C 4.725 2.160,4.119 2.424,3.562 2.843 C 2.860 3.373,2.355 4.142,2.109 5.060 C 2.023 5.377,2.022 5.426,1.996 10.660 C 1.981 13.564,1.968 15.967,1.966 16.000 C 1.964 16.033,1.978 16.636,1.996 17.340 C 2.024 18.433,2.041 18.667,2.112 18.940 C 2.511 20.484,3.687 21.603,5.243 21.921 C 5.613 21.996,5.797 22.000,8.926 22.000 C 11.009 22.000,12.273 21.985,12.365 21.959 C 12.586 21.898,12.770 21.755,12.880 21.558 C 12.967 21.402,12.980 21.332,12.979 21.000 C 12.978 20.567,12.898 20.355,12.678 20.199 C 12.398 19.999,12.411 20.000,8.962 20.000 C 5.470 20.000,5.520 20.003,5.083 19.781 C 4.816 19.646,4.449 19.297,4.281 19.017 C 4.045 18.625,4.005 18.385,4.002 17.340 L 4.000 16.419 6.450 13.971 C 9.109 11.315,9.069 11.349,9.504 11.349 C 9.905 11.349,9.963 11.396,11.800 13.220 C 12.912 14.324,13.554 14.932,13.656 14.978 C 13.871 15.076,14.158 15.069,14.369 14.961 C 14.464 14.912,14.840 14.576,15.221 14.199 C 15.969 13.457,16.132 13.349,16.504 13.349 C 16.756 13.349,16.978 13.450,17.280 13.702 C 17.585 13.956,17.779 14.049,18.004 14.049 C 18.489 14.049,19.047 13.478,19.047 12.982 C 19.047 12.656,18.845 12.370,18.347 11.994 C 17.749 11.542,17.203 11.352,16.500 11.352 C 15.663 11.352,15.009 11.633,14.283 12.305 L 13.995 12.572 12.747 11.332 C 11.477 10.070,11.172 9.811,10.703 9.598 C 9.983 9.272,9.051 9.264,8.341 9.578 C 7.812 9.812,7.582 10.012,5.770 11.815 L 4.000 13.577 4.002 9.659 C 4.004 6.088,4.011 5.717,4.073 5.477 C 4.201 4.988,4.543 4.546,5.014 4.265 C 5.479 3.986,5.109 4.000,12.028 4.002 C 18.979 4.005,18.529 3.987,19.017 4.281 C 19.294 4.448,19.618 4.787,19.772 5.071 C 19.999 5.490,19.999 5.487,20.000 9.520 C 20.000 11.873,20.015 13.273,20.041 13.365 C 20.148 13.750,20.437 13.962,20.896 13.991 C 21.381 14.022,21.699 13.882,21.880 13.558 L 21.980 13.380 21.991 9.511 C 22.002 5.769,21.999 5.629,21.921 5.247 C 21.721 4.264,21.198 3.416,20.438 2.843 C 19.866 2.412,19.276 2.160,18.605 2.058 C 18.059 1.976,5.887 1.979,5.358 2.061 M14.614 7.055 C 14.220 7.184,14.039 7.437,14.009 7.900 C 13.978 8.381,14.119 8.699,14.442 8.880 C 14.597 8.967,14.669 8.980,15.000 8.980 C 15.312 8.980,15.408 8.964,15.540 8.894 C 15.866 8.718,16.000 8.459,16.000 8.000 C 16.000 7.357,15.713 7.048,15.083 7.016 C 14.893 7.006,14.718 7.021,14.614 7.055 M18.460 15.999 C 15.916 16.022,15.992 16.015,15.752 16.267 C 15.584 16.443,15.513 16.658,15.512 16.997 C 15.510 17.348,15.582 17.556,15.771 17.751 C 15.988 17.976,16.151 18.000,17.436 18.000 L 18.578 18.000 16.853 19.730 C 15.679 20.908,15.100 21.517,15.040 21.637 C 14.863 21.989,14.952 22.354,15.299 22.701 C 15.646 23.048,16.011 23.137,16.363 22.960 C 16.483 22.900,17.092 22.321,18.270 21.147 L 20.000 19.422 20.000 20.564 C 20.000 21.849,20.024 22.012,20.249 22.229 C 20.442 22.416,20.647 22.487,20.997 22.488 C 21.336 22.490,21.552 22.419,21.735 22.248 C 21.985 22.013,21.977 22.088,22.007 19.460 C 22.022 18.140,22.036 17.001,22.037 16.929 C 22.041 16.740,21.834 16.310,21.690 16.207 C 21.467 16.048,21.205 15.959,20.987 15.969 C 20.873 15.974,19.736 15.987,18.460 15.999 " stroke="none" fill="black" fill-rule="evenodd"></path></svg>