<svg xmlns="http://www.w3.org/2000/svg" width="24" height="24" viewBox="0 0 24 24" fill="none" stroke="currentColor" stroke-width="2" stroke-linecap="round" stroke-linejoin="round" class="icon icon-tabler icons-tabler-outline icon-tabler-text-caption"><path d="M4.477 3.073 C 3.806 3.249,3.238 3.823,3.060 4.508 C 3.010 4.698,3.000 5.123,3.000 7.000 C 3.000 9.455,3.003 9.491,3.225 9.930 C 3.361 10.199,3.801 10.639,4.070 10.775 C 4.509 10.997,4.545 11.000,7.000 11.000 C 9.455 11.000,9.491 10.997,9.930 10.775 C 10.196 10.640,10.638 10.200,10.771 9.937 C 10.996 9.494,11.000 9.442,10.999 7.014 C 10.999 4.601,10.991 4.496,10.781 4.083 C 10.646 3.816,10.297 3.449,10.017 3.281 C 9.564 3.008,9.524 3.005,7.000 3.005 C 4.992 3.005,4.711 3.012,4.477 3.073 M9.000 7.000 L 9.000 9.000 7.000 9.000 L 5.000 9.000 5.000 7.000 L 5.000 5.000 7.000 5.000 L 9.000 5.000 9.000 7.000 M3.614 14.057 C 3.377 14.131,3.212 14.261,3.109 14.453 C 3.035 14.592,3.020 14.684,3.020 15.000 C 3.020 15.331,3.033 15.403,3.120 15.558 C 3.230 15.755,3.414 15.898,3.635 15.959 C 3.835 16.015,20.165 16.015,20.365 15.959 C 20.586 15.898,20.770 15.755,20.880 15.558 C 20.967 15.402,20.980 15.332,20.979 15.000 C 20.978 14.567,20.898 14.355,20.678 14.199 C 20.386 13.990,20.799 14.000,11.984 14.003 C 5.367 14.005,3.748 14.015,3.614 14.057 M3.614 19.057 C 3.377 19.131,3.212 19.261,3.109 19.453 C 3.035 19.592,3.020 19.684,3.020 20.000 C 3.020 20.331,3.033 20.403,3.120 20.558 C 3.230 20.755,3.414 20.898,3.635 20.959 C 3.834 21.015,16.166 21.015,16.365 20.959 C 16.586 20.898,16.770 20.755,16.880 20.558 C 16.967 20.402,16.980 20.332,16.979 20.000 C 16.978 19.567,16.898 19.355,16.678 19.199 C 16.388 18.992,16.642 19.000,9.984 19.003 C 5.009 19.005,3.747 19.016,3.614 19.057 " stroke="none" fill="black" fill-rule="evenodd"></path></svg>