<svg xmlns="http://www.w3.org/2000/svg" width="24" height="24" viewBox="0 0 24 24" fill="none" stroke="currentColor" stroke-width="2" stroke-linecap="round" stroke-linejoin="round" class="icon icon-tabler icons-tabler-outline icon-tabler-corner-up-right"><path d="M14.626 4.045 C 14.257 4.239,13.951 4.673,13.951 5.000 C 13.951 5.333,14.056 5.467,15.353 6.770 L 16.577 8.000 12.679 8.000 C 8.503 8.000,8.328 8.008,7.755 8.204 C 6.368 8.679,5.372 9.805,5.083 11.227 C 5.003 11.617,5.000 11.755,5.000 14.926 C 5.000 17.009,5.015 18.273,5.041 18.365 C 5.148 18.750,5.437 18.962,5.896 18.991 C 6.381 19.022,6.699 18.882,6.880 18.558 L 6.980 18.380 7.001 14.980 C 7.024 11.181,7.007 11.406,7.314 10.937 C 7.508 10.642,7.712 10.446,8.014 10.265 C 8.465 9.994,8.362 10.000,12.686 10.000 L 16.577 10.000 15.353 11.230 C 14.548 12.039,14.099 12.521,14.040 12.637 C 13.863 12.989,13.952 13.354,14.299 13.701 C 14.646 14.048,15.011 14.137,15.363 13.960 C 15.484 13.899,16.182 13.234,17.561 11.866 C 18.673 10.763,19.634 9.826,19.696 9.784 C 19.850 9.682,20.049 9.239,20.049 8.998 C 20.049 8.889,20.013 8.743,19.961 8.637 C 19.840 8.396,15.612 4.164,15.372 4.044 C 15.152 3.934,14.835 3.935,14.626 4.045 " stroke="none" fill="black" fill-rule="evenodd"></path></svg>