<svg xmlns="http://www.w3.org/2000/svg" width="24" height="24" viewBox="0 0 24 24" fill="none" stroke="currentColor" stroke-width="2" stroke-linecap="round" stroke-linejoin="round" class="icon icon-tabler icons-tabler-outline icon-tabler-arrows-cross"><path d="M3.626 3.045 C 3.420 3.154,3.146 3.433,3.038 3.644 C 2.924 3.867,2.924 4.132,3.039 4.363 C 3.103 4.491,5.131 6.545,10.354 11.770 L 17.579 19.000 16.696 19.000 C 15.757 19.000,15.561 19.028,15.322 19.199 C 15.139 19.329,15.030 19.573,15.009 19.900 C 14.978 20.381,15.119 20.699,15.442 20.880 L 15.620 20.980 17.780 21.007 C 18.968 21.023,19.999 21.036,20.071 21.037 C 20.224 21.040,20.669 20.847,20.768 20.735 C 20.878 20.611,21.041 20.209,21.038 20.069 C 21.036 19.998,21.023 18.968,21.008 17.780 C 20.980 15.637,20.979 15.619,20.889 15.450 C 20.724 15.140,20.329 14.970,19.874 15.011 C 19.439 15.051,19.141 15.274,19.041 15.635 C 19.019 15.715,19.000 16.185,19.000 16.680 L 19.000 17.579 11.770 10.354 C 6.772 5.358,4.488 3.102,4.372 3.044 C 4.152 2.934,3.834 2.935,3.626 3.045 M17.719 2.999 L 15.658 3.020 15.459 3.122 C 15.119 3.297,14.978 3.606,15.009 4.104 C 15.038 4.563,15.250 4.852,15.635 4.959 C 15.715 4.981,16.185 5.000,16.679 5.000 L 17.578 5.000 15.853 6.730 C 14.679 7.908,14.100 8.517,14.040 8.637 C 13.863 8.989,13.952 9.354,14.299 9.701 C 14.646 10.048,15.011 10.137,15.363 9.960 C 15.483 9.900,16.092 9.321,17.270 8.147 L 19.000 6.422 19.000 7.321 C 19.000 7.815,19.019 8.285,19.041 8.365 C 19.148 8.750,19.437 8.962,19.896 8.991 C 20.381 9.022,20.699 8.882,20.880 8.558 L 20.980 8.380 21.008 6.220 C 21.023 5.032,21.036 4.001,21.038 3.929 C 21.041 3.739,20.834 3.310,20.690 3.207 C 20.467 3.048,20.205 2.959,19.987 2.969 C 19.873 2.974,18.852 2.987,17.719 2.999 M8.620 14.046 C 8.384 14.167,3.154 19.407,3.039 19.637 C 2.863 19.990,2.953 20.355,3.299 20.701 C 3.645 21.047,4.010 21.137,4.363 20.961 C 4.613 20.836,9.836 15.613,9.961 15.363 C 10.137 15.010,10.047 14.645,9.701 14.299 C 9.361 13.959,8.968 13.867,8.620 14.046 " stroke="none" fill="black" fill-rule="evenodd"></path></svg>