<svg xmlns="http://www.w3.org/2000/svg" width="24" height="24" viewBox="0 0 24 24" fill="none" stroke="currentColor" stroke-width="2" stroke-linecap="round" stroke-linejoin="round" class="icon icon-tabler icons-tabler-outline icon-tabler-barrel"><path d="M6.820 3.044 C 5.974 3.167,5.194 3.689,4.730 4.442 C 4.386 5.001,3.695 6.947,3.474 7.980 C 3.133 9.578,3.000 10.700,3.000 12.000 C 3.000 13.300,3.133 14.422,3.474 16.020 C 3.695 17.053,4.386 18.999,4.730 19.558 C 5.196 20.315,5.941 20.817,6.806 20.958 C 7.154 21.015,16.844 21.016,17.192 20.959 C 17.518 20.906,17.750 20.828,18.119 20.647 C 18.511 20.454,19.119 19.865,19.322 19.480 C 19.688 18.787,20.326 16.954,20.526 16.020 C 20.774 14.857,20.854 14.348,20.941 13.360 C 21.120 11.343,20.870 9.005,20.262 7.006 C 19.916 5.870,19.533 4.876,19.272 4.439 C 18.967 3.930,18.378 3.437,17.800 3.209 C 17.317 3.018,17.498 3.024,12.140 3.016 C 9.346 3.012,6.952 3.024,6.820 3.044 M8.708 5.130 C 8.696 5.202,8.621 5.610,8.543 6.037 C 8.464 6.464,8.400 6.856,8.400 6.907 L 8.400 7.000 7.120 7.000 C 6.416 7.000,5.840 6.990,5.840 6.979 C 5.840 6.913,6.343 5.633,6.425 5.491 C 6.478 5.399,6.582 5.277,6.655 5.221 C 6.907 5.029,7.040 5.006,7.915 5.003 L 8.730 5.000 8.708 5.130 M13.236 5.150 C 13.258 5.232,13.340 5.642,13.419 6.060 C 13.498 6.478,13.572 6.861,13.582 6.910 L 13.602 7.000 12.000 7.000 L 10.398 7.000 10.418 6.910 C 10.428 6.861,10.510 6.433,10.600 5.960 C 10.689 5.487,10.771 5.077,10.780 5.050 C 10.793 5.011,11.073 5.000,11.997 5.000 L 13.197 5.000 13.236 5.150 M17.042 5.061 C 17.263 5.139,17.450 5.282,17.557 5.455 C 17.625 5.565,18.160 6.920,18.160 6.983 C 18.160 6.992,17.584 7.000,16.880 7.000 L 15.600 7.000 15.600 6.907 C 15.600 6.856,15.536 6.464,15.457 6.037 C 15.379 5.610,15.304 5.202,15.292 5.130 L 15.270 5.000 16.070 5.000 C 16.683 5.000,16.910 5.014,17.042 5.061 M8.103 9.370 C 7.968 11.140,7.968 12.860,8.103 14.631 L 8.132 15.001 6.716 14.991 L 5.300 14.980 5.213 14.460 C 5.165 14.174,5.103 13.715,5.074 13.440 C 5.010 12.812,5.009 11.168,5.074 10.560 C 5.126 10.068,5.276 9.080,5.306 9.030 C 5.317 9.014,5.956 9.000,6.728 9.000 L 8.131 9.000 8.103 9.370 M13.857 9.090 C 14.012 9.823,14.012 14.177,13.857 14.910 L 13.838 15.000 12.000 15.000 L 10.162 15.000 10.143 14.910 C 9.988 14.177,9.988 9.823,10.143 9.090 L 10.162 9.000 12.000 9.000 L 13.838 9.000 13.857 9.090 M18.787 9.540 C 18.929 10.386,18.976 11.004,18.976 12.000 C 18.976 12.996,18.929 13.614,18.787 14.460 L 18.700 14.980 17.284 14.991 L 15.868 15.001 15.897 14.631 C 15.966 13.721,15.997 12.909,15.997 12.000 C 15.997 11.091,15.966 10.279,15.897 9.369 L 15.868 8.999 17.284 9.009 L 18.700 9.020 18.787 9.540 M8.400 17.093 C 8.400 17.144,8.464 17.536,8.543 17.963 C 8.621 18.390,8.696 18.800,8.708 18.872 L 8.731 19.004 7.874 18.992 C 7.046 18.980,7.011 18.977,6.819 18.878 C 6.710 18.822,6.565 18.703,6.498 18.615 C 6.400 18.486,5.997 17.520,5.863 17.090 L 5.835 17.000 7.117 17.000 L 8.400 17.000 8.400 17.093 M13.582 17.090 C 13.572 17.140,13.498 17.522,13.419 17.940 C 13.340 18.358,13.258 18.768,13.236 18.851 L 13.197 19.001 11.989 18.991 L 10.781 18.980 10.617 18.140 C 10.527 17.678,10.443 17.233,10.429 17.150 L 10.405 17.000 12.003 17.000 L 13.602 17.000 13.582 17.090 M18.160 17.017 C 18.160 17.080,17.625 18.435,17.557 18.545 C 17.510 18.620,17.414 18.726,17.343 18.780 C 17.091 18.973,16.932 19.000,16.070 19.000 L 15.270 19.000 15.292 18.870 C 15.304 18.799,15.379 18.390,15.457 17.963 C 15.536 17.536,15.600 17.144,15.600 17.093 L 15.600 17.000 16.880 17.000 C 17.584 17.000,18.160 17.008,18.160 17.017 " stroke="none" fill="black" fill-rule="evenodd"></path></svg>