<svg xmlns="http://www.w3.org/2000/svg" width="24" height="24" viewBox="0 0 24 24" fill="none" stroke="currentColor" stroke-width="2" stroke-linecap="round" stroke-linejoin="round" class="icon icon-tabler icons-tabler-outline icon-tabler-swipe"><path d="M10.603 2.043 C 9.558 2.249,8.671 2.975,8.316 3.918 C 8.252 4.088,7.619 6.394,7.236 7.850 L 7.197 8.000 5.988 8.000 C 5.324 8.000,4.669 8.019,4.533 8.041 C 3.849 8.152,3.422 8.379,2.879 8.920 C 2.567 9.230,2.466 9.362,2.328 9.640 C 1.999 10.304,2.020 9.938,2.020 15.000 C 2.020 20.062,1.999 19.696,2.328 20.360 C 2.467 20.641,2.567 20.770,2.898 21.102 C 3.230 21.433,3.359 21.533,3.640 21.672 C 4.304 22.001,3.938 21.980,9.000 21.980 C 14.062 21.980,13.696 22.001,14.360 21.671 C 14.797 21.454,15.386 20.889,15.623 20.461 C 15.910 19.941,15.970 19.654,15.990 18.710 C 16.008 17.886,16.009 17.881,16.094 17.900 C 16.464 17.984,16.581 17.998,16.884 17.999 C 17.723 18.001,18.681 17.549,19.202 16.905 C 19.436 16.617,19.638 16.241,19.753 15.880 C 19.905 15.406,21.914 7.858,21.963 7.579 C 22.028 7.209,21.989 6.609,21.879 6.282 C 21.535 5.255,20.848 4.556,19.880 4.247 C 19.446 4.109,12.126 2.156,11.740 2.076 C 11.364 1.998,10.904 1.984,10.603 2.043 M15.301 5.081 C 18.089 5.828,19.392 6.194,19.512 6.265 C 19.819 6.445,20.032 6.885,19.984 7.238 C 19.931 7.622,17.837 15.339,17.741 15.503 C 17.572 15.790,17.210 16.000,16.885 16.000 C 16.805 16.000,16.470 15.926,16.140 15.836 C 15.810 15.746,15.432 15.644,15.300 15.610 C 13.413 15.125,8.649 13.826,8.527 13.763 C 8.259 13.627,8.046 13.287,8.014 12.945 C 7.998 12.773,8.063 12.486,8.423 11.160 C 8.659 10.291,8.887 9.445,8.929 9.280 C 9.541 6.928,10.179 4.634,10.264 4.490 C 10.420 4.224,10.803 4.006,11.123 4.002 C 11.201 4.001,13.081 4.487,15.301 5.081 M6.640 10.038 C 6.640 10.059,6.515 10.540,6.363 11.108 C 6.004 12.446,5.984 12.556,6.012 13.052 C 6.074 14.129,6.709 15.095,7.660 15.562 C 8.027 15.742,8.074 15.756,11.472 16.664 L 14.005 17.340 13.992 18.300 C 13.978 19.378,13.969 19.422,13.674 19.716 C 13.375 20.016,13.633 20.000,9.000 20.000 C 4.381 20.000,4.628 20.015,4.330 19.725 C 4.246 19.643,4.142 19.505,4.098 19.418 C 4.022 19.265,4.020 19.141,4.009 15.100 C 4.001 12.246,4.011 10.886,4.040 10.767 C 4.124 10.428,4.397 10.140,4.726 10.046 C 4.903 9.995,6.640 9.988,6.640 10.038 " stroke="none" fill="black" fill-rule="evenodd"></path></svg>