<svg xmlns="http://www.w3.org/2000/svg" width="24" height="24" viewBox="0 0 24 24" fill="none" stroke="currentColor" stroke-width="2" stroke-linecap="round" stroke-linejoin="round" class="icon icon-tabler icons-tabler-outline icon-tabler-message-chatbot"><path d="M5.358 3.061 C 3.731 3.315,2.417 4.584,2.083 6.227 C 2.002 6.622,2.000 6.744,2.000 11.000 C 2.000 15.256,2.002 15.378,2.083 15.773 C 2.357 17.118,3.249 18.195,4.512 18.704 C 5.059 18.924,5.521 19.000,6.316 19.000 L 7.000 19.000 7.000 20.073 C 7.000 21.293,7.018 21.392,7.288 21.699 C 7.566 22.015,7.888 22.112,8.240 21.986 C 8.317 21.959,9.481 21.276,10.826 20.468 L 13.273 19.000 15.820 19.000 C 18.204 19.000,18.392 18.995,18.757 18.921 C 20.117 18.643,21.193 17.755,21.704 16.488 C 21.779 16.300,21.877 15.972,21.921 15.757 C 21.997 15.382,22.000 15.200,22.000 11.000 C 22.000 6.800,21.997 6.618,21.921 6.243 C 21.628 4.806,20.637 3.680,19.245 3.204 C 18.646 2.999,18.690 3.000,11.960 3.004 C 6.959 3.007,5.631 3.018,5.358 3.061 M18.523 5.073 C 19.022 5.203,19.516 5.599,19.772 6.071 C 20.001 6.494,19.999 6.444,19.999 11.000 C 19.999 15.554,20.001 15.502,19.772 15.931 C 19.625 16.208,19.191 16.643,18.930 16.775 C 18.484 17.001,18.496 17.000,15.557 17.000 C 13.358 17.000,12.821 17.010,12.695 17.055 C 12.610 17.086,11.745 17.588,10.774 18.171 L 9.007 19.232 8.993 18.426 C 8.980 17.686,8.971 17.606,8.890 17.453 C 8.842 17.362,8.746 17.247,8.678 17.199 C 8.425 17.019,8.265 17.000,6.962 17.000 C 5.643 17.000,5.476 16.981,5.083 16.781 C 4.816 16.646,4.449 16.297,4.281 16.017 C 3.993 15.539,4.005 15.747,4.002 11.028 C 4.000 6.325,3.992 6.469,4.265 6.014 C 4.546 5.543,4.988 5.201,5.477 5.073 C 5.720 5.010,6.211 5.005,12.000 5.005 C 17.789 5.005,18.280 5.010,18.523 5.073 M9.180 8.039 C 8.715 8.159,8.514 8.447,8.512 8.997 C 8.510 9.348,8.582 9.556,8.771 9.752 C 9.131 10.123,10.068 10.060,10.341 9.645 C 10.526 9.365,10.565 8.840,10.425 8.507 C 10.262 8.118,9.698 7.906,9.180 8.039 M14.180 8.039 C 13.715 8.159,13.514 8.447,13.512 8.997 C 13.510 9.348,13.582 9.556,13.771 9.752 C 14.131 10.123,15.068 10.060,15.341 9.645 C 15.526 9.365,15.565 8.840,15.425 8.507 C 15.262 8.118,14.698 7.906,14.180 8.039 M9.125 12.051 C 9.029 12.100,8.857 12.240,8.743 12.363 C 8.293 12.850,8.345 13.272,8.924 13.820 C 9.439 14.308,9.985 14.627,10.661 14.835 C 11.174 14.993,11.481 15.039,12.000 15.039 C 12.519 15.039,12.826 14.993,13.339 14.835 C 14.015 14.627,14.561 14.308,15.076 13.820 C 15.546 13.376,15.652 13.056,15.464 12.660 C 15.281 12.275,14.852 11.960,14.509 11.960 C 14.239 11.960,14.108 12.027,13.711 12.367 C 13.287 12.730,13.062 12.857,12.657 12.961 C 12.065 13.112,11.314 13.034,10.832 12.772 C 10.722 12.712,10.475 12.529,10.285 12.366 C 10.095 12.202,9.882 12.044,9.811 12.014 C 9.617 11.932,9.327 11.947,9.125 12.051 " stroke="none" fill="black" fill-rule="evenodd"></path></svg>