<svg xmlns="http://www.w3.org/2000/svg" width="24" height="24" viewBox="0 0 24 24" fill="none" stroke="currentColor" stroke-width="2" stroke-linecap="round" stroke-linejoin="round" class="icon icon-tabler icons-tabler-outline icon-tabler-letter-case"><path d="M5.900 4.045 C 5.211 4.131,4.422 4.450,3.857 4.871 C 2.880 5.598,2.269 6.586,2.062 7.775 C 2.008 8.084,2.000 8.849,2.000 13.675 C 2.000 17.266,2.015 19.271,2.041 19.365 C 2.148 19.750,2.437 19.962,2.896 19.991 C 3.381 20.022,3.699 19.882,3.880 19.558 L 3.980 19.380 3.991 16.690 L 4.003 14.000 6.501 14.000 L 9.000 14.000 9.000 16.610 C 9.000 18.235,9.016 19.275,9.041 19.365 C 9.148 19.750,9.437 19.962,9.896 19.991 C 10.381 20.022,10.699 19.882,10.880 19.558 L 10.980 19.380 10.992 13.800 C 11.000 9.822,10.991 8.129,10.959 7.904 C 10.608 5.436,8.378 3.736,5.900 4.045 M7.020 6.060 C 7.741 6.211,8.395 6.713,8.715 7.362 C 8.989 7.918,8.999 8.012,8.999 10.130 L 9.000 12.000 6.500 12.000 L 4.000 12.000 4.001 10.130 C 4.001 8.012,4.011 7.918,4.285 7.362 C 4.774 6.371,5.914 5.828,7.020 6.060 M16.900 11.042 C 14.603 11.352,12.898 13.402,13.012 15.717 C 13.110 17.711,14.452 19.339,16.437 19.871 C 16.772 19.961,16.902 19.974,17.480 19.976 C 18.033 19.978,18.197 19.964,18.488 19.890 C 18.949 19.774,19.398 19.598,19.732 19.402 C 19.967 19.264,20.006 19.252,20.024 19.312 C 20.160 19.776,20.476 20.000,21.000 20.000 C 21.428 20.000,21.713 19.856,21.880 19.558 L 21.980 19.380 21.980 15.500 L 21.980 11.620 21.891 11.453 C 21.688 11.074,21.138 10.902,20.625 11.057 C 20.299 11.155,20.140 11.322,20.026 11.687 C 20.008 11.745,19.960 11.730,19.696 11.579 C 19.327 11.369,18.848 11.190,18.416 11.100 C 18.028 11.020,17.277 10.991,16.900 11.042 M18.020 13.060 C 18.741 13.211,19.395 13.713,19.715 14.362 C 20.087 15.118,20.090 15.878,19.723 16.620 C 19.439 17.195,18.932 17.646,18.320 17.868 C 18.052 17.965,17.965 17.976,17.500 17.976 C 17.035 17.976,16.948 17.965,16.680 17.868 C 16.068 17.646,15.561 17.195,15.277 16.620 C 14.347 14.740,15.972 12.631,18.020 13.060 " stroke="none" fill="black" fill-rule="evenodd"></path></svg>