<svg xmlns="http://www.w3.org/2000/svg" width="24" height="24" viewBox="0 0 24 24" fill="none" stroke="currentColor" stroke-width="2" stroke-linecap="round" stroke-linejoin="round" class="icon icon-tabler icons-tabler-outline icon-tabler-vector-spline"><path d="M17.477 2.073 C 16.806 2.249,16.238 2.823,16.060 3.508 C 16.027 3.634,16.000 3.805,16.000 3.888 C 16.000 3.972,15.986 4.040,15.969 4.040 C 15.837 4.040,14.859 4.177,14.520 4.243 C 10.982 4.931,7.895 7.054,5.963 10.128 C 4.970 11.709,4.290 13.667,4.074 15.570 L 4.026 16.000 3.883 16.002 C 3.641 16.006,3.225 16.135,2.983 16.281 C 2.703 16.449,2.354 16.816,2.219 17.083 C 2.019 17.478,2.000 17.640,2.000 19.000 C 2.000 20.368,2.018 20.521,2.225 20.930 C 2.361 21.199,2.801 21.639,3.070 21.775 C 3.479 21.982,3.632 22.000,5.000 22.000 C 6.368 22.000,6.521 21.982,6.930 21.775 C 7.196 21.640,7.638 21.200,7.771 20.937 C 7.979 20.527,8.000 20.352,7.999 19.014 C 7.999 17.673,7.975 17.464,7.775 17.069 C 7.628 16.781,7.198 16.363,6.888 16.210 C 6.750 16.141,6.502 16.062,6.337 16.034 C 6.047 15.986,6.038 15.981,6.056 15.882 C 6.067 15.826,6.087 15.681,6.100 15.560 C 6.142 15.182,6.318 14.337,6.445 13.910 C 6.827 12.624,7.418 11.449,8.231 10.363 C 8.685 9.756,9.756 8.685,10.363 8.231 C 11.917 7.068,13.671 6.348,15.557 6.100 C 15.789 6.070,15.980 6.048,15.982 6.053 C 15.983 6.057,16.005 6.182,16.029 6.331 C 16.096 6.743,16.275 7.083,16.590 7.398 C 16.739 7.547,16.955 7.716,17.070 7.775 C 17.479 7.982,17.632 8.000,19.000 8.000 C 20.368 8.000,20.521 7.982,20.930 7.775 C 21.196 7.640,21.638 7.200,21.771 6.937 C 21.979 6.527,22.000 6.352,21.999 5.014 C 21.999 3.682,21.974 3.463,21.781 3.083 C 21.551 2.628,21.022 2.203,20.523 2.073 C 20.134 1.972,17.866 1.972,17.477 2.073 M20.000 5.000 L 20.000 6.000 19.000 6.000 L 18.000 6.000 18.000 5.000 L 18.000 4.000 19.000 4.000 L 20.000 4.000 20.000 5.000 M6.000 19.000 L 6.000 20.000 5.000 20.000 L 4.000 20.000 4.000 19.000 L 4.000 18.000 5.000 18.000 L 6.000 18.000 6.000 19.000 " stroke="none" fill="black" fill-rule="evenodd"></path></svg>