<svg xmlns="http://www.w3.org/2000/svg" width="24" height="24" viewBox="0 0 24 24" fill="none" stroke="currentColor" stroke-width="2" stroke-linecap="round" stroke-linejoin="round" class="icon icon-tabler icons-tabler-outline icon-tabler-rubber-stamp-off"><path d="M2.626 2.045 C 2.420 2.154,2.146 2.433,2.038 2.644 C 1.924 2.868,1.924 3.132,2.040 3.363 C 2.102 3.487,2.920 4.333,4.768 6.184 L 7.407 8.829 7.728 9.644 C 8.305 11.114,8.447 11.589,8.447 12.052 C 8.447 12.460,8.355 12.562,7.859 12.699 C 7.682 12.747,7.319 12.774,6.465 12.801 C 4.892 12.851,4.310 12.961,3.693 13.323 C 3.357 13.520,2.845 14.043,2.657 14.380 C 2.241 15.126,2.001 16.318,2.000 17.629 C 2.000 18.148,2.064 18.393,2.250 18.588 C 2.507 18.857,1.967 18.840,10.078 18.840 L 17.421 18.840 18.000 19.420 L 18.579 20.000 11.696 20.000 C 4.306 20.000,4.612 19.992,4.322 20.199 C 4.100 20.357,4.020 20.568,4.020 21.000 C 4.020 21.331,4.033 21.403,4.120 21.558 C 4.230 21.755,4.414 21.898,4.635 21.959 C 4.835 22.015,19.165 22.015,19.365 21.959 C 19.584 21.898,19.770 21.755,19.874 21.567 L 19.967 21.398 20.225 21.639 C 20.367 21.771,20.557 21.918,20.649 21.964 C 20.987 22.137,21.358 22.044,21.701 21.701 C 22.048 21.354,22.137 20.989,21.960 20.637 C 21.889 20.495,19.996 18.528,18.588 17.133 C 18.540 17.085,15.161 13.715,11.080 9.645 C 6.999 5.574,3.615 2.209,3.560 2.167 C 3.263 1.942,2.910 1.895,2.626 2.045 M11.340 2.046 C 10.648 2.134,9.814 2.452,9.197 2.862 C 8.484 3.336,7.754 4.198,7.667 4.668 C 7.581 5.131,8.147 5.711,8.726 5.753 C 8.921 5.767,8.985 5.753,9.134 5.666 C 9.231 5.609,9.388 5.467,9.482 5.351 C 10.070 4.629,10.565 4.279,11.260 4.097 C 11.689 3.984,12.439 3.998,12.861 4.125 C 14.046 4.485,14.892 5.540,14.985 6.775 C 15.017 7.207,14.928 7.571,14.558 8.523 C 13.889 10.245,13.790 10.533,13.770 10.807 C 13.753 11.026,13.765 11.105,13.837 11.255 C 14.033 11.658,14.782 11.926,15.211 11.746 C 15.423 11.658,15.612 11.410,15.736 11.059 C 15.797 10.884,16.033 10.263,16.259 9.680 C 16.893 8.046,16.980 7.716,16.980 6.940 C 16.979 6.105,16.827 5.486,16.433 4.713 C 15.883 3.634,14.908 2.764,13.753 2.320 C 13.056 2.052,12.123 1.946,11.340 2.046 M12.940 14.360 L 15.420 16.840 9.729 16.840 L 4.037 16.840 4.062 16.630 C 4.130 16.042,4.258 15.593,4.442 15.303 C 4.532 15.161,4.614 15.091,4.774 15.018 C 5.103 14.867,5.334 14.839,6.580 14.800 C 7.855 14.759,8.279 14.699,8.830 14.478 C 9.851 14.070,10.424 13.265,10.452 12.201 C 10.456 12.025,10.460 11.880,10.460 11.880 C 10.460 11.880,11.576 12.996,12.940 14.360 M17.438 12.852 C 16.996 12.978,16.819 13.255,16.821 13.820 C 16.823 14.089,16.841 14.215,16.896 14.320 C 17.086 14.682,17.259 14.761,17.960 14.806 C 19.016 14.873,19.352 14.979,19.561 15.307 C 19.763 15.627,19.881 16.083,19.960 16.860 C 20.028 17.530,20.143 17.752,20.500 17.904 C 20.753 18.012,21.216 17.995,21.492 17.869 C 21.823 17.717,21.936 17.527,21.954 17.088 C 21.990 16.238,21.722 15.062,21.334 14.367 C 21.138 14.015,20.583 13.462,20.250 13.287 C 19.688 12.991,19.107 12.862,18.152 12.822 C 17.776 12.806,17.567 12.815,17.438 12.852 " stroke="none" fill="black" fill-rule="evenodd"></path></svg>