<svg xmlns="http://www.w3.org/2000/svg" width="24" height="24" viewBox="0 0 24 24" fill="none" stroke="currentColor" stroke-width="2" stroke-linecap="round" stroke-linejoin="round" class="icon icon-tabler icons-tabler-outline icon-tabler-messages-off"><path d="M2.626 2.045 C 2.420 2.154,2.146 2.433,2.038 2.644 C 1.924 2.867,1.924 3.132,2.039 3.363 C 2.102 3.488,3.143 4.556,5.604 7.021 C 7.516 8.936,9.080 10.529,9.080 10.561 C 9.080 10.692,9.320 11.113,9.515 11.327 C 9.763 11.598,10.015 11.772,10.321 11.884 C 10.527 11.959,10.653 12.073,11.813 13.233 L 13.080 14.500 13.040 14.640 C 13.018 14.718,13.000 15.269,13.000 15.890 L 13.000 17.000 9.447 17.000 C 6.312 17.000,5.869 17.008,5.680 17.064 C 5.485 17.122,5.397 17.195,4.733 17.851 L 4.000 18.574 4.000 14.787 L 4.000 11.000 5.110 11.000 C 5.730 11.000,6.284 10.982,6.365 10.959 C 6.586 10.898,6.770 10.755,6.880 10.558 C 6.967 10.402,6.980 10.332,6.979 10.000 C 6.978 9.567,6.898 9.355,6.678 9.199 C 6.424 9.018,6.266 9.000,4.964 9.002 C 3.941 9.004,3.697 9.016,3.477 9.073 C 2.789 9.253,2.184 9.886,2.041 10.577 C 2.012 10.714,2.002 12.484,2.009 16.040 L 2.020 21.300 2.129 21.486 C 2.411 21.965,2.945 22.170,3.363 21.960 C 3.481 21.900,4.016 21.397,4.981 20.435 L 6.422 19.000 9.843 19.000 C 13.561 19.000,13.477 19.005,13.930 18.775 C 14.045 18.716,14.259 18.550,14.404 18.404 C 14.841 17.968,15.000 17.548,15.000 16.835 L 15.000 16.421 17.730 19.147 C 19.644 21.058,20.513 21.898,20.637 21.961 C 20.990 22.137,21.354 22.048,21.701 21.701 C 22.048 21.355,22.137 20.990,21.961 20.637 C 21.897 20.511,20.434 19.016,16.853 15.420 C 14.093 12.648,11.795 10.340,11.747 10.290 C 11.699 10.241,11.480 10.022,11.260 9.803 C 11.040 9.585,10.815 9.360,10.760 9.305 C 7.595 6.130,3.505 2.111,3.372 2.044 C 3.152 1.934,2.835 1.935,2.626 2.045 M10.477 2.073 C 9.806 2.249,9.238 2.823,9.060 3.508 C 9.013 3.687,9.000 4.007,9.000 4.981 C 9.000 6.390,9.022 6.539,9.261 6.779 C 9.605 7.122,10.395 7.122,10.739 6.779 C 10.974 6.543,11.000 6.378,11.000 5.113 L 11.000 4.000 15.500 4.000 L 20.000 4.000 20.000 7.787 L 20.000 11.574 19.267 10.851 C 18.603 10.195,18.515 10.122,18.320 10.064 C 18.139 10.010,17.849 10.000,16.459 10.000 C 14.706 10.000,14.585 10.011,14.322 10.199 C 14.100 10.357,14.020 10.568,14.020 11.000 C 14.020 11.331,14.033 11.403,14.120 11.558 C 14.230 11.755,14.414 11.898,14.635 11.959 C 14.719 11.983,15.366 12.000,16.180 12.000 L 17.580 12.000 18.960 13.383 C 19.719 14.143,20.417 14.811,20.512 14.867 C 20.628 14.936,20.764 14.976,20.932 14.989 C 21.375 15.024,21.702 14.876,21.880 14.558 L 21.980 14.380 21.991 9.089 C 22.002 3.334,22.009 3.532,21.782 3.083 C 21.646 2.816,21.297 2.449,21.017 2.281 C 20.535 1.991,20.809 2.005,15.500 2.005 C 11.129 2.005,10.718 2.010,10.477 2.073 " stroke="none" fill="black" fill-rule="evenodd"></path></svg>