<svg xmlns="http://www.w3.org/2000/svg" width="24" height="24" viewBox="0 0 24 24" fill="none" stroke="currentColor" stroke-width="2" stroke-linecap="round" stroke-linejoin="round" class="icon icon-tabler icons-tabler-outline icon-tabler-brand-auth0"><path d="M8.460 2.000 L 5.180 2.020 5.002 2.120 C 4.904 2.175,4.774 2.292,4.712 2.380 C 4.618 2.516,3.458 5.824,2.574 8.480 C 2.194 9.624,2.049 10.382,2.013 11.420 C 1.913 14.294,3.231 16.896,5.740 18.779 C 6.575 19.406,11.421 22.820,11.609 22.914 C 11.833 23.027,12.110 23.039,12.334 22.945 C 12.484 22.882,17.160 19.597,18.180 18.837 C 19.988 17.491,21.121 15.919,21.677 13.986 C 21.933 13.097,22.020 12.372,21.987 11.420 C 21.952 10.403,21.809 9.640,21.446 8.540 C 20.810 6.609,19.378 2.512,19.297 2.388 C 19.186 2.220,19.012 2.099,18.800 2.041 C 18.629 1.994,13.026 1.972,8.460 2.000 M10.452 4.170 C 10.414 4.264,10.146 4.934,9.856 5.660 L 9.328 6.980 7.260 6.990 C 5.611 6.999,5.195 6.991,5.209 6.950 C 5.219 6.923,5.450 6.248,5.723 5.450 L 6.219 4.000 8.369 4.000 L 10.519 4.000 10.452 4.170 M18.277 5.450 C 18.550 6.248,18.781 6.923,18.791 6.950 C 18.805 6.991,18.389 6.999,16.740 6.990 L 14.672 6.980 14.144 5.660 C 13.854 4.934,13.586 4.264,13.548 4.170 L 13.481 4.000 15.631 4.000 L 17.781 4.000 18.277 5.450 M12.579 7.148 C 13.019 8.247,13.164 8.568,13.277 8.694 C 13.539 8.985,13.488 8.978,15.524 9.000 L 17.347 9.020 16.058 10.167 C 15.349 10.797,14.722 11.376,14.663 11.452 C 14.605 11.528,14.536 11.692,14.510 11.816 L 14.463 12.042 15.052 13.813 C 15.375 14.787,15.640 15.595,15.640 15.609 C 15.640 15.623,14.907 15.169,14.011 14.598 C 12.213 13.454,12.143 13.420,11.773 13.529 C 11.646 13.566,10.991 13.957,9.984 14.598 C 9.110 15.154,8.388 15.601,8.379 15.592 C 8.370 15.583,8.627 14.781,8.950 13.809 L 9.537 12.042 9.490 11.816 C 9.464 11.692,9.395 11.528,9.337 11.452 C 9.278 11.376,8.651 10.797,7.942 10.167 L 6.653 9.020 8.476 9.000 C 10.512 8.978,10.461 8.985,10.723 8.694 C 10.836 8.568,10.981 8.247,11.421 7.148 C 11.726 6.384,11.986 5.760,12.000 5.760 C 12.014 5.760,12.274 6.384,12.579 7.148 M5.841 10.974 C 6.654 11.697,7.320 12.309,7.320 12.334 C 7.320 12.359,7.020 13.279,6.654 14.378 L 5.988 16.377 5.791 16.158 C 4.896 15.162,4.362 14.116,4.113 12.873 C 4.038 12.498,4.023 12.293,4.024 11.680 C 4.025 11.273,4.047 10.823,4.073 10.680 C 4.179 10.109,4.295 9.638,4.328 9.649 C 4.346 9.655,5.027 10.252,5.841 10.974 M19.793 10.030 C 19.956 10.771,19.975 10.943,19.976 11.680 C 19.977 12.293,19.962 12.498,19.887 12.873 C 19.638 14.116,19.104 15.162,18.209 16.158 L 18.012 16.377 17.341 14.362 C 16.889 13.006,16.681 12.328,16.704 12.291 C 16.748 12.223,19.650 9.640,19.684 9.640 C 19.697 9.640,19.746 9.816,19.793 10.030 M13.826 16.845 C 14.835 17.486,15.684 18.032,15.713 18.060 C 15.757 18.100,15.422 18.354,13.913 19.423 C 12.894 20.145,12.033 20.736,12.000 20.736 C 11.897 20.736,8.230 18.114,8.273 18.071 C 8.299 18.045,11.782 15.806,11.986 15.684 C 11.990 15.682,12.818 16.204,13.826 16.845 " stroke="none" fill="black" fill-rule="evenodd"></path></svg>