<svg xmlns="http://www.w3.org/2000/svg" width="24" height="24" viewBox="0 0 24 24" fill="none" stroke="currentColor" stroke-width="2" stroke-linecap="round" stroke-linejoin="round" class="icon icon-tabler icons-tabler-outline icon-tabler-paywall"><path d="M11.400 2.044 C 9.761 2.229,8.261 3.290,7.526 4.785 C 7.345 5.153,7.194 5.578,7.096 6.000 C 7.037 6.256,7.024 6.571,7.011 8.145 L 6.995 9.990 6.712 10.018 C 5.496 10.138,4.485 10.971,4.114 12.160 L 4.020 12.460 4.020 16.000 L 4.020 19.540 4.114 19.840 C 4.418 20.816,5.150 21.555,6.140 21.886 L 6.420 21.979 9.810 21.991 C 12.058 21.999,13.252 21.989,13.354 21.962 C 13.583 21.900,13.768 21.758,13.880 21.558 C 13.967 21.402,13.980 21.332,13.979 21.000 C 13.977 20.469,13.852 20.247,13.455 20.071 C 13.366 20.032,12.588 20.015,10.020 20.000 L 6.700 19.980 6.516 19.872 C 6.415 19.813,6.284 19.700,6.225 19.623 C 5.994 19.320,6.000 19.423,6.000 16.022 C 6.000 12.472,5.988 12.618,6.303 12.303 C 6.627 11.979,6.236 12.000,12.057 12.000 C 15.392 12.000,17.271 11.985,17.365 11.959 C 17.586 11.898,17.770 11.755,17.880 11.558 C 17.967 11.402,17.980 11.332,17.979 11.000 C 17.978 10.685,17.963 10.591,17.888 10.450 C 17.773 10.232,17.551 10.086,17.246 10.028 L 17.005 9.983 16.989 8.141 C 16.976 6.571,16.963 6.256,16.904 6.000 C 16.543 4.449,15.584 3.211,14.213 2.525 C 13.352 2.095,12.397 1.932,11.400 2.044 M12.861 4.129 C 13.803 4.404,14.578 5.178,14.877 6.139 C 14.976 6.457,14.977 6.477,14.991 8.230 L 15.005 10.000 12.000 10.000 L 8.995 10.000 9.009 8.230 C 9.023 6.477,9.024 6.457,9.123 6.139 C 9.462 5.049,10.371 4.245,11.499 4.040 C 11.832 3.980,12.500 4.023,12.861 4.129 M18.614 13.057 C 18.250 13.171,18.061 13.411,18.008 13.826 L 17.980 14.049 17.759 14.118 C 17.003 14.351,16.361 14.979,16.118 15.722 C 16.034 15.976,16.020 16.094,16.022 16.520 C 16.024 16.960,16.038 17.056,16.133 17.320 C 16.394 18.039,16.964 18.609,17.680 18.867 C 17.961 18.968,18.033 18.976,18.800 18.992 C 19.702 19.010,19.786 19.030,19.922 19.252 C 20.021 19.415,20.021 19.585,19.922 19.748 C 19.770 19.997,19.750 20.000,18.208 20.000 C 16.724 20.000,16.580 20.015,16.322 20.199 C 16.100 20.357,16.020 20.568,16.020 21.000 C 16.020 21.331,16.033 21.403,16.120 21.558 C 16.230 21.755,16.414 21.898,16.635 21.959 C 16.715 21.981,17.052 22.000,17.384 22.000 L 17.989 22.000 18.013 22.203 C 18.074 22.715,18.426 23.000,19.000 23.000 C 19.582 23.000,19.923 22.720,19.984 22.193 L 20.010 21.966 20.294 21.873 C 21.001 21.642,21.605 21.046,21.868 20.320 C 21.965 20.052,21.976 19.965,21.976 19.500 C 21.976 19.035,21.965 18.948,21.868 18.680 C 21.646 18.068,21.195 17.561,20.620 17.277 C 20.172 17.055,19.869 17.002,19.068 17.001 C 18.319 17.000,18.216 16.974,18.078 16.748 C 17.979 16.585,17.979 16.415,18.078 16.252 C 18.230 16.003,18.249 16.000,19.808 16.000 C 20.630 16.000,21.280 15.983,21.365 15.959 C 21.586 15.898,21.770 15.755,21.880 15.558 C 21.967 15.402,21.980 15.332,21.979 15.000 C 21.978 14.687,21.962 14.591,21.890 14.453 C 21.702 14.098,21.423 14.000,20.599 14.000 L 20.010 14.000 19.983 13.794 C 19.948 13.531,19.835 13.310,19.678 13.199 C 19.414 13.010,18.957 12.950,18.614 13.057 M11.477 14.073 C 10.806 14.249,10.238 14.823,10.060 15.508 C 9.941 15.962,10.003 16.492,10.225 16.930 C 10.361 17.199,10.801 17.639,11.070 17.775 C 11.659 18.073,12.341 18.073,12.930 17.775 C 13.196 17.640,13.638 17.200,13.771 16.937 C 13.994 16.498,14.052 16.007,13.940 15.529 C 13.858 15.182,13.720 14.927,13.465 14.653 C 13.074 14.232,12.560 14.005,12.000 14.005 C 11.857 14.005,11.622 14.036,11.477 14.073 " stroke="none" fill="black" fill-rule="evenodd"></path></svg>