<svg xmlns="http://www.w3.org/2000/svg" width="24" height="24" viewBox="0 0 24 24" fill="none" stroke="currentColor" stroke-width="2" stroke-linecap="round" stroke-linejoin="round" class="icon icon-tabler icons-tabler-outline icon-tabler-pentagram"><path d="M11.080 2.045 C 8.705 2.255,6.416 3.367,4.750 5.120 C 3.328 6.617,2.419 8.491,2.093 10.600 C 1.993 11.248,1.993 12.756,2.093 13.400 C 2.201 14.089,2.530 15.401,2.650 15.621 C 2.686 15.687,2.830 15.983,2.970 16.280 C 3.478 17.354,4.075 18.198,4.939 19.061 C 6.268 20.390,7.833 21.273,9.645 21.715 C 11.268 22.111,12.873 22.100,14.496 21.681 C 16.243 21.230,17.768 20.354,19.061 19.061 C 20.010 18.113,20.696 17.104,21.196 15.920 C 21.266 15.755,21.367 15.521,21.421 15.400 C 21.542 15.126,21.813 14.013,21.908 13.400 C 22.007 12.759,22.006 11.249,21.907 10.600 C 21.573 8.425,20.619 6.507,19.121 4.997 C 18.096 3.965,17.070 3.275,15.767 2.741 C 14.321 2.149,12.672 1.904,11.080 2.045 M13.357 4.122 C 13.630 4.169,14.035 4.261,14.257 4.327 C 14.688 4.455,15.441 4.753,15.438 4.795 C 15.433 4.847,12.070 7.220,12.000 7.220 C 11.930 7.220,8.566 4.847,8.562 4.795 C 8.559 4.753,9.313 4.455,9.745 4.326 C 10.138 4.210,10.934 4.059,11.340 4.025 C 11.795 3.987,12.870 4.039,13.357 4.122 M6.933 8.580 C 7.560 10.502,7.594 10.623,7.529 10.685 C 7.317 10.884,4.118 13.270,4.101 13.241 C 4.089 13.223,4.059 12.936,4.032 12.604 C 3.977 11.902,4.022 11.135,4.161 10.422 C 4.407 9.154,5.065 7.804,5.922 6.806 C 6.079 6.623,6.222 6.488,6.238 6.506 C 6.255 6.525,6.567 7.458,6.933 8.580 M18.149 6.894 C 19.405 8.402,20.082 10.401,19.985 12.320 C 19.953 12.961,19.918 13.240,19.872 13.240 C 19.851 13.240,19.063 12.654,18.121 11.937 L 16.407 10.635 16.482 10.407 C 16.523 10.282,16.819 9.370,17.140 8.380 C 17.462 7.390,17.732 6.556,17.742 6.527 C 17.768 6.450,17.815 6.492,18.149 6.894 M15.228 7.786 C 15.153 8.025,14.898 8.814,14.662 9.539 C 14.198 10.964,14.173 11.098,14.314 11.416 C 14.408 11.628,14.474 11.683,16.235 13.018 L 17.530 14.000 15.692 14.000 C 13.583 14.000,13.558 14.003,13.290 14.293 C 13.104 14.496,13.112 14.475,12.496 16.330 C 12.235 17.117,12.011 17.760,12.000 17.760 C 11.989 17.760,11.747 17.063,11.464 16.210 C 11.181 15.357,10.917 14.597,10.878 14.520 C 10.791 14.348,10.581 14.143,10.420 14.072 C 10.329 14.033,9.844 14.015,8.401 14.000 L 6.502 13.980 7.972 12.865 C 8.781 12.252,9.504 11.679,9.578 11.591 C 9.754 11.386,9.823 11.113,9.764 10.851 C 9.741 10.746,9.479 9.923,9.183 9.021 C 8.886 8.120,8.651 7.376,8.659 7.367 C 8.668 7.359,9.310 7.807,10.087 8.363 C 10.864 8.918,11.580 9.408,11.677 9.451 C 11.892 9.547,12.192 9.528,12.425 9.405 C 12.510 9.359,13.201 8.875,13.960 8.329 C 14.719 7.782,15.346 7.339,15.353 7.344 C 15.360 7.348,15.304 7.547,15.228 7.786 M9.916 17.927 C 10.269 18.988,10.553 19.860,10.547 19.867 C 10.540 19.873,10.326 19.826,10.071 19.761 C 8.399 19.339,6.964 18.437,5.855 17.110 C 5.582 16.784,5.235 16.299,5.125 16.090 L 5.077 16.000 7.175 16.000 L 9.273 16.000 9.916 17.927 M18.875 16.090 C 18.765 16.299,18.418 16.784,18.145 17.110 C 17.036 18.437,15.601 19.339,13.929 19.761 C 13.674 19.826,13.460 19.873,13.453 19.867 C 13.447 19.860,13.731 18.988,14.084 17.927 L 14.727 16.000 16.825 16.000 L 18.923 16.000 18.875 16.090 " stroke="none" fill="black" fill-rule="evenodd"></path></svg>