<svg xmlns="http://www.w3.org/2000/svg" width="24" height="24" viewBox="0 0 24 24" fill="none" stroke="currentColor" stroke-width="2" stroke-linecap="round" stroke-linejoin="round" class="icon icon-tabler icons-tabler-outline icon-tabler-brand-volkswagen"><path d="M11.080 2.045 C 9.507 2.184,7.883 2.751,6.540 3.630 C 5.905 4.045,5.499 4.378,4.919 4.958 C 2.953 6.926,1.919 9.544,2.013 12.320 C 2.084 14.439,2.752 16.328,4.033 18.040 C 4.430 18.570,5.305 19.464,5.800 19.847 C 7.242 20.961,8.787 21.624,10.600 21.907 C 11.247 22.008,12.753 22.008,13.400 21.907 C 15.638 21.557,17.504 20.620,19.062 19.062 C 20.620 17.504,21.557 15.638,21.907 13.400 C 22.008 12.753,22.008 11.247,21.907 10.600 C 21.624 8.786,20.959 7.238,19.847 5.800 C 19.510 5.365,18.639 4.494,18.200 4.154 C 16.133 2.555,13.646 1.818,11.080 2.045 M13.337 4.119 C 13.600 4.164,13.824 4.211,13.836 4.223 C 13.848 4.235,13.501 5.315,13.066 6.622 L 12.274 9.000 12.000 9.000 L 11.727 9.000 10.943 6.650 C 10.512 5.357,10.160 4.279,10.160 4.254 C 10.160 4.204,10.699 4.094,11.216 4.039 C 11.725 3.985,12.795 4.026,13.337 4.119 M9.156 7.650 C 9.648 9.130,10.083 10.403,10.122 10.480 C 10.161 10.557,10.253 10.678,10.327 10.748 C 10.572 10.984,10.679 11.000,12.000 11.000 C 13.337 11.000,13.428 10.985,13.690 10.730 C 13.882 10.542,13.888 10.526,14.905 7.470 C 15.364 6.089,15.755 4.960,15.774 4.960 C 15.842 4.960,16.445 5.339,16.791 5.598 C 17.315 5.991,18.010 6.676,17.990 6.780 C 17.958 6.948,14.662 14.958,14.636 14.929 C 14.622 14.913,14.471 14.432,14.301 13.860 C 13.909 12.544,13.864 12.428,13.690 12.258 C 13.448 12.023,13.296 12.000,12.000 12.000 C 10.704 12.000,10.552 12.023,10.310 12.258 C 10.136 12.428,10.091 12.544,9.699 13.860 C 9.529 14.432,9.378 14.913,9.364 14.929 C 9.338 14.958,6.042 6.947,6.010 6.779 C 5.997 6.715,6.100 6.593,6.450 6.258 C 6.701 6.017,7.052 5.712,7.231 5.581 C 7.586 5.319,8.156 4.962,8.220 4.961 C 8.242 4.960,8.663 6.170,9.156 7.650 M6.658 13.698 C 7.745 16.354,8.683 18.598,8.743 18.684 C 8.912 18.929,9.092 19.020,9.400 19.018 C 9.732 19.016,10.022 18.891,10.236 18.660 C 10.415 18.465,10.348 18.663,11.182 15.870 L 11.740 14.001 12.000 14.001 L 12.260 14.001 12.894 16.130 C 13.243 17.302,13.578 18.370,13.639 18.504 C 13.827 18.917,14.157 19.088,14.593 18.998 C 14.718 18.972,14.883 18.918,14.960 18.879 C 15.300 18.704,15.239 18.837,17.341 13.701 C 18.428 11.043,19.325 8.861,19.335 8.852 C 19.344 8.842,19.406 8.975,19.473 9.147 C 20.497 11.805,19.981 14.915,18.153 17.100 C 17.388 18.015,16.523 18.693,15.471 19.200 C 13.267 20.265,10.733 20.265,8.529 19.200 C 7.477 18.693,6.612 18.015,5.847 17.100 C 4.019 14.914,3.503 11.806,4.527 9.147 C 4.594 8.975,4.656 8.842,4.665 8.852 C 4.675 8.861,5.572 11.042,6.658 13.698 " stroke="none" fill="black" fill-rule="evenodd"></path></svg>