<svg xmlns="http://www.w3.org/2000/svg" width="24" height="24" viewBox="0 0 24 24" fill="none" stroke="currentColor" stroke-width="2" stroke-linecap="round" stroke-linejoin="round" class="icon icon-tabler icons-tabler-outline icon-tabler-bike"><path d="M16.477 3.073 C 15.806 3.249,15.238 3.823,15.060 4.508 C 14.941 4.962,15.003 5.492,15.225 5.930 C 15.361 6.199,15.801 6.639,16.070 6.775 C 16.659 7.073,17.341 7.073,17.930 6.775 C 18.196 6.640,18.638 6.200,18.771 5.937 C 18.994 5.498,19.052 5.007,18.940 4.529 C 18.858 4.182,18.720 3.927,18.465 3.653 C 17.948 3.097,17.211 2.882,16.477 3.073 M13.620 7.072 C 13.317 7.240,8.234 11.329,8.134 11.485 C 7.917 11.828,7.891 12.066,8.040 12.363 C 8.100 12.481,8.603 13.016,9.565 13.981 L 11.000 15.422 11.000 17.321 C 11.000 18.470,11.016 19.277,11.041 19.365 C 11.148 19.750,11.437 19.962,11.896 19.991 C 12.381 20.022,12.699 19.882,12.880 19.558 L 12.980 19.380 12.980 17.040 C 12.980 14.836,12.976 14.692,12.906 14.560 C 12.865 14.483,12.307 13.894,11.667 13.251 C 10.957 12.537,10.518 12.067,10.541 12.046 C 10.563 12.027,11.298 11.438,12.176 10.737 C 13.676 9.539,13.775 9.467,13.824 9.541 C 15.189 11.585,15.301 11.739,15.497 11.859 L 15.694 11.980 17.447 11.992 C 18.569 11.999,19.255 11.988,19.354 11.962 C 19.583 11.900,19.768 11.758,19.880 11.558 C 19.967 11.402,19.980 11.332,19.979 11.000 C 19.978 10.567,19.898 10.355,19.678 10.199 C 19.422 10.016,19.272 10.000,17.860 10.000 L 16.533 10.000 15.638 8.657 C 15.146 7.918,14.681 7.259,14.604 7.192 C 14.306 6.929,13.955 6.887,13.620 7.072 M4.358 14.061 C 3.230 14.237,2.143 14.974,1.569 15.953 C 0.320 18.083,1.233 20.785,3.512 21.704 C 5.558 22.528,7.877 21.538,8.704 19.488 C 9.090 18.530,9.090 17.469,8.705 16.516 C 8.172 15.197,7.001 14.269,5.605 14.058 C 5.144 13.989,4.816 13.990,4.358 14.061 M18.358 14.061 C 17.230 14.237,16.143 14.974,15.569 15.953 C 14.320 18.083,15.233 20.785,17.512 21.704 C 19.558 22.528,21.877 21.538,22.704 19.488 C 23.090 18.530,23.090 17.469,22.705 16.516 C 22.172 15.197,21.001 14.269,19.605 14.058 C 19.144 13.989,18.816 13.990,18.358 14.061 M5.523 16.073 C 6.262 16.266,6.850 16.924,6.967 17.690 C 7.067 18.343,6.873 18.933,6.403 19.404 C 6.002 19.807,5.547 20.000,5.000 20.000 C 4.485 20.000,4.038 19.822,3.653 19.465 C 2.323 18.229,3.189 16.005,5.000 16.005 C 5.143 16.005,5.378 16.036,5.523 16.073 M19.523 16.073 C 20.262 16.266,20.850 16.924,20.967 17.690 C 21.067 18.343,20.873 18.933,20.403 19.404 C 20.002 19.807,19.547 20.000,19.000 20.000 C 18.485 20.000,18.038 19.822,17.653 19.465 C 16.323 18.229,17.189 16.005,19.000 16.005 C 19.143 16.005,19.378 16.036,19.523 16.073 " stroke="none" fill="black" fill-rule="evenodd"></path></svg>