<svg xmlns="http://www.w3.org/2000/svg" width="24" height="24" viewBox="0 0 24 24" fill="none" stroke="currentColor" stroke-width="2" stroke-linecap="round" stroke-linejoin="round" class="icon icon-tabler icons-tabler-outline icon-tabler-arrow-bar-to-right"><path d="M19.614 3.057 C 19.377 3.131,19.212 3.261,19.109 3.453 L 19.020 3.620 19.010 11.914 C 19.003 17.391,19.013 20.260,19.040 20.358 C 19.144 20.747,19.434 20.962,19.896 20.991 C 20.381 21.022,20.699 20.882,20.880 20.558 L 20.980 20.380 20.980 12.000 L 20.980 3.620 20.891 3.453 C 20.842 3.362,20.746 3.247,20.678 3.199 C 20.414 3.010,19.957 2.950,19.614 3.057 M9.626 7.045 C 9.257 7.239,8.951 7.673,8.951 8.000 C 8.951 8.333,9.056 8.467,10.353 9.770 L 11.577 11.000 7.695 11.000 C 3.539 11.000,3.605 10.997,3.322 11.199 C 3.100 11.357,3.020 11.568,3.020 12.000 C 3.020 12.331,3.033 12.403,3.120 12.558 C 3.230 12.755,3.414 12.898,3.635 12.959 C 3.728 12.985,5.190 13.000,7.679 13.000 L 11.577 13.000 10.353 14.230 C 9.548 15.039,9.099 15.521,9.040 15.637 C 8.863 15.989,8.952 16.354,9.299 16.701 C 9.646 17.048,10.011 17.137,10.363 16.960 C 10.484 16.899,11.182 16.234,12.561 14.866 C 13.673 13.763,14.634 12.826,14.696 12.785 C 14.856 12.678,15.049 12.250,15.049 12.000 C 15.049 11.734,14.858 11.325,14.675 11.200 C 14.601 11.150,13.640 10.213,12.540 9.118 C 11.232 7.817,10.482 7.099,10.372 7.044 C 10.152 6.934,9.835 6.935,9.626 7.045 " stroke="none" fill="black" fill-rule="evenodd"></path></svg>