<svg xmlns="http://www.w3.org/2000/svg" width="24" height="24" viewBox="0 0 24 24" fill="none" stroke="currentColor" stroke-width="2" stroke-linecap="round" stroke-linejoin="round" class="icon icon-tabler icons-tabler-outline icon-tabler-bluetooth"><path d="M11.614 3.055 C 11.375 3.133,11.211 3.262,11.109 3.453 L 11.020 3.620 11.009 6.770 L 10.998 9.919 9.289 8.551 C 8.349 7.798,7.490 7.133,7.380 7.072 C 7.003 6.863,6.596 6.951,6.282 7.307 C 6.056 7.564,5.960 7.784,5.960 8.045 C 5.960 8.444,5.980 8.463,8.278 10.302 C 9.423 11.218,10.360 11.982,10.360 12.000 C 10.360 12.018,9.423 12.782,8.278 13.698 C 5.980 15.537,5.960 15.556,5.960 15.955 C 5.960 16.319,6.220 16.731,6.585 16.945 C 6.830 17.089,7.189 17.071,7.443 16.903 C 7.538 16.840,8.377 16.179,9.308 15.434 L 11.000 14.079 11.000 17.110 C 11.000 19.074,11.015 20.192,11.042 20.289 C 11.100 20.497,11.307 20.756,11.541 20.914 C 11.726 21.038,11.759 21.047,12.004 21.033 C 12.212 21.021,12.306 20.994,12.441 20.904 C 12.535 20.842,13.775 19.859,15.196 18.720 C 18.072 16.416,18.007 16.479,18.032 16.001 C 18.055 15.561,18.076 15.581,15.722 13.698 C 14.577 12.782,13.640 12.017,13.640 12.000 C 13.640 11.982,14.565 11.228,15.697 10.323 C 18.008 8.474,18.007 8.475,18.032 8.002 C 18.056 7.554,18.126 7.621,15.192 5.273 C 13.755 4.123,12.508 3.146,12.421 3.102 C 12.225 3.004,11.840 2.982,11.614 3.055 M15.360 8.000 C 15.360 8.017,14.829 8.457,14.180 8.976 L 13.000 9.921 13.000 8.000 L 13.000 6.079 14.180 7.024 C 14.829 7.543,15.360 7.983,15.360 8.000 M15.360 16.000 C 15.360 16.017,14.829 16.457,14.180 16.976 L 13.000 17.921 13.000 16.000 L 13.000 14.079 14.180 15.024 C 14.829 15.543,15.360 15.983,15.360 16.000 " stroke="none" fill="black" fill-rule="evenodd"></path></svg>