<svg xmlns="http://www.w3.org/2000/svg" width="24" height="24" viewBox="0 0 24 24" fill="none" stroke="currentColor" stroke-width="2" stroke-linecap="round" stroke-linejoin="round" class="icon icon-tabler icons-tabler-outline icon-tabler-coin-yuan"><path d="M11.080 2.045 C 9.507 2.184,7.883 2.751,6.540 3.630 C 5.905 4.045,5.499 4.378,4.919 4.958 C 2.953 6.926,1.919 9.544,2.013 12.320 C 2.084 14.439,2.752 16.328,4.033 18.040 C 4.430 18.570,5.305 19.464,5.800 19.847 C 7.242 20.961,8.787 21.624,10.600 21.907 C 11.247 22.008,12.753 22.008,13.400 21.907 C 15.638 21.557,17.504 20.620,19.062 19.062 C 20.620 17.504,21.557 15.638,21.907 13.400 C 22.008 12.753,22.008 11.247,21.907 10.600 C 21.624 8.786,20.959 7.238,19.847 5.800 C 19.510 5.365,18.639 4.494,18.200 4.154 C 16.133 2.555,13.646 1.818,11.080 2.045 M12.734 4.041 C 14.574 4.216,16.228 4.976,17.554 6.256 C 20.043 8.658,20.702 12.394,19.183 15.499 C 18.749 16.387,18.223 17.105,17.496 17.801 C 16.876 18.394,16.262 18.819,15.471 19.200 C 13.267 20.265,10.733 20.265,8.529 19.200 C 7.477 18.693,6.612 18.015,5.847 17.100 C 3.848 14.711,3.440 11.302,4.816 8.500 C 6.162 5.760,8.867 4.049,11.920 4.005 C 12.129 4.003,12.495 4.019,12.734 4.041 M8.652 7.058 C 8.402 7.174,8.111 7.433,8.024 7.618 C 7.939 7.796,7.944 8.102,8.035 8.302 C 8.076 8.391,8.634 9.251,9.275 10.212 C 9.916 11.173,10.440 11.968,10.440 11.980 C 10.440 11.991,10.074 12.000,9.626 12.000 C 8.761 12.000,8.557 12.031,8.322 12.199 C 8.100 12.357,8.020 12.568,8.020 13.000 C 8.020 13.331,8.033 13.403,8.120 13.558 C 8.230 13.755,8.414 13.898,8.635 13.959 C 8.716 13.982,9.270 14.000,9.890 14.000 L 11.000 14.000 11.000 15.610 C 11.000 16.565,11.017 17.279,11.041 17.365 C 11.148 17.750,11.437 17.962,11.896 17.991 C 12.381 18.022,12.699 17.882,12.880 17.558 L 12.980 17.380 12.992 15.690 L 13.004 14.000 14.112 14.000 C 14.731 14.000,15.284 13.982,15.365 13.959 C 15.586 13.898,15.770 13.755,15.880 13.558 C 15.967 13.402,15.980 13.332,15.979 13.000 C 15.978 12.567,15.898 12.355,15.678 12.199 C 15.443 12.031,15.239 12.000,14.374 12.000 C 13.926 12.000,13.560 11.991,13.560 11.980 C 13.560 11.968,14.084 11.173,14.725 10.212 C 15.366 9.251,15.924 8.391,15.965 8.302 C 16.056 8.102,16.061 7.796,15.976 7.618 C 15.889 7.433,15.598 7.174,15.348 7.058 C 14.960 6.877,14.600 6.951,14.317 7.268 C 14.242 7.353,13.694 8.155,13.100 9.050 C 12.506 9.945,12.011 10.678,12.000 10.678 C 11.989 10.678,11.494 9.945,10.900 9.050 C 10.306 8.155,9.758 7.353,9.683 7.268 C 9.400 6.951,9.040 6.877,8.652 7.058 " stroke="none" fill="black" fill-rule="evenodd"></path></svg>