<svg xmlns="http://www.w3.org/2000/svg" width="24" height="24" viewBox="0 0 24 24" fill="none" stroke="currentColor" stroke-width="2" stroke-linecap="round" stroke-linejoin="round" class="icon icon-tabler icons-tabler-outline icon-tabler-speedboat"><path d="M5.614 7.057 C 5.223 7.180,5.039 7.436,5.009 7.900 C 4.966 8.567,5.259 8.936,5.877 8.994 L 6.150 9.020 5.705 10.506 L 5.260 11.993 4.720 12.007 C 4.097 12.024,3.923 12.086,3.725 12.360 C 3.598 12.535,2.065 16.581,1.990 16.938 C 1.901 17.361,2.144 17.738,2.618 17.916 L 2.843 18.000 9.776 18.000 C 17.280 18.000,17.015 18.007,17.662 17.786 C 18.446 17.519,19.082 17.067,19.561 16.439 C 19.878 16.023,22.873 11.502,22.965 11.300 C 23.056 11.101,23.061 10.796,22.975 10.615 C 22.939 10.540,22.822 10.400,22.715 10.303 C 22.364 9.988,22.501 10.000,19.340 10.000 L 16.534 10.000 15.628 8.644 C 15.097 7.848,14.671 7.251,14.598 7.199 C 14.313 6.996,14.405 7.000,9.944 7.003 C 6.643 7.005,5.745 7.016,5.614 7.057 M13.872 9.608 C 14.095 9.943,14.273 10.219,14.268 10.223 C 14.241 10.245,10.071 11.882,9.940 11.923 C 9.760 11.978,7.360 12.028,7.360 11.976 C 7.360 11.951,7.757 10.614,8.145 9.330 L 8.245 9.000 10.856 9.000 L 13.468 9.000 13.872 9.608 M20.096 12.047 C 20.079 12.076,19.585 12.821,18.998 13.701 C 17.872 15.391,17.721 15.576,17.308 15.777 C 16.824 16.012,17.168 16.001,10.534 15.990 L 4.452 15.980 4.820 15.000 L 5.188 14.020 7.344 14.012 C 9.627 14.003,9.975 13.981,10.560 13.813 C 10.747 13.759,11.800 13.358,12.900 12.920 C 14.063 12.457,15.017 12.101,15.180 12.069 C 15.583 11.989,20.144 11.969,20.096 12.047 " stroke="none" fill="black" fill-rule="evenodd"></path></svg>