<svg xmlns="http://www.w3.org/2000/svg" width="24" height="24" viewBox="0 0 24 24" fill="none" stroke="currentColor" stroke-width="2" stroke-linecap="round" stroke-linejoin="round" class="icon icon-tabler icons-tabler-outline icon-tabler-square-number-5"><path d="M4.499 2.043 C 3.380 2.232,2.461 3.048,2.114 4.160 L 2.020 4.460 2.020 12.000 L 2.020 19.540 2.114 19.840 C 2.422 20.827,3.173 21.578,4.160 21.886 L 4.460 21.980 12.000 21.980 L 19.540 21.980 19.840 21.886 C 20.827 21.578,21.578 20.827,21.886 19.840 L 21.980 19.540 21.980 12.000 L 21.980 4.460 21.886 4.160 C 21.581 3.182,20.832 2.428,19.861 2.121 L 19.540 2.020 12.120 2.014 C 8.039 2.011,4.609 2.024,4.499 2.043 M19.310 4.061 C 19.589 4.144,19.856 4.411,19.939 4.690 C 19.993 4.870,20.000 5.755,20.000 12.001 C 20.000 17.907,19.991 19.138,19.945 19.290 C 19.872 19.533,19.707 19.740,19.484 19.872 L 19.300 19.980 12.000 19.980 L 4.700 19.980 4.516 19.872 C 4.415 19.813,4.284 19.700,4.225 19.623 C 3.986 19.309,4.000 19.795,4.000 12.022 C 4.000 5.758,4.007 4.870,4.061 4.690 C 4.140 4.421,4.412 4.143,4.673 4.063 C 4.964 3.974,19.009 3.971,19.310 4.061 M9.614 7.057 C 9.377 7.131,9.212 7.261,9.109 7.453 C 9.020 7.619,9.020 7.629,9.009 9.911 C 9.001 11.392,9.012 12.256,9.039 12.355 C 9.100 12.583,9.242 12.768,9.442 12.880 L 9.620 12.980 11.310 12.992 L 13.000 13.003 13.000 14.002 L 13.000 15.000 12.005 15.000 L 11.010 15.000 10.983 14.794 C 10.930 14.393,10.743 14.167,10.371 14.055 C 9.861 13.902,9.305 14.077,9.113 14.453 C 9.008 14.659,8.973 15.095,9.037 15.404 C 9.148 15.941,9.595 16.534,10.070 16.775 C 10.479 16.982,10.632 17.000,12.000 17.000 C 13.368 17.000,13.521 16.982,13.930 16.775 C 14.196 16.640,14.638 16.200,14.771 15.937 C 14.979 15.527,15.000 15.352,14.999 14.014 C 14.999 12.682,14.974 12.463,14.781 12.083 C 14.646 11.816,14.297 11.449,14.017 11.281 C 13.609 11.035,13.405 11.005,12.130 11.002 L 11.000 11.000 11.000 10.000 L 11.000 9.000 12.610 9.000 C 13.565 9.000,14.279 8.983,14.365 8.959 C 14.586 8.898,14.770 8.755,14.880 8.558 C 14.967 8.402,14.980 8.332,14.979 8.000 C 14.978 7.567,14.898 7.355,14.678 7.199 C 14.406 7.005,14.336 7.000,11.984 7.003 C 10.293 7.005,9.741 7.017,9.614 7.057 " stroke="none" fill="black" fill-rule="evenodd"></path></svg>