<svg xmlns="http://www.w3.org/2000/svg" width="24" height="24" viewBox="0 0 24 24" fill="none" stroke="currentColor" stroke-width="2" stroke-linecap="round" stroke-linejoin="round" class="icon icon-tabler icons-tabler-outline icon-tabler-device-watch-code"><path d="M8.614 2.057 C 8.377 2.131,8.212 2.261,8.109 2.453 C 8.024 2.613,8.019 2.674,8.000 3.873 L 7.980 5.126 7.720 5.217 C 6.350 5.697,5.370 6.816,5.083 8.227 C 5.003 8.618,5.000 8.755,5.000 12.000 C 5.000 15.243,5.003 15.382,5.082 15.772 C 5.359 17.128,6.281 18.231,7.540 18.711 C 7.716 18.778,7.891 18.843,7.928 18.854 C 7.989 18.874,7.997 18.992,8.008 20.128 C 8.020 21.379,8.020 21.380,8.120 21.558 C 8.230 21.755,8.414 21.898,8.635 21.959 C 8.829 22.013,12.171 22.013,12.365 21.959 C 12.586 21.898,12.770 21.755,12.880 21.558 C 12.967 21.402,12.980 21.332,12.979 21.000 C 12.978 20.567,12.898 20.355,12.678 20.199 C 12.430 20.022,12.256 20.000,11.094 20.000 L 10.000 20.000 10.000 19.500 L 10.000 19.000 10.610 19.000 C 10.945 19.000,11.285 18.981,11.365 18.959 C 11.586 18.898,11.770 18.755,11.880 18.558 C 11.967 18.402,11.980 18.332,11.979 18.000 C 11.978 17.567,11.898 17.355,11.678 17.199 C 11.425 17.019,11.265 17.000,9.962 17.000 C 8.643 17.000,8.476 16.981,8.083 16.781 C 7.816 16.646,7.449 16.297,7.281 16.017 C 6.999 15.548,7.005 15.636,7.005 12.000 C 7.005 9.047,7.011 8.715,7.073 8.477 C 7.201 7.988,7.543 7.546,8.014 7.265 C 8.459 6.998,8.431 7.000,12.028 7.002 C 15.632 7.005,15.549 6.999,16.017 7.281 C 16.294 7.448,16.618 7.787,16.772 8.071 C 16.987 8.468,16.999 8.618,17.000 11.020 C 17.000 12.368,17.016 13.276,17.041 13.365 C 17.148 13.750,17.437 13.962,17.896 13.991 C 18.381 14.022,18.699 13.882,18.880 13.558 L 18.980 13.380 18.991 11.014 C 19.002 8.770,18.999 8.627,18.922 8.250 C 18.630 6.816,17.657 5.700,16.280 5.217 L 16.020 5.126 16.000 3.873 C 15.981 2.674,15.976 2.613,15.891 2.453 C 15.785 2.256,15.622 2.131,15.371 2.055 C 15.109 1.977,8.866 1.979,8.614 2.057 M14.000 4.500 L 14.000 5.000 12.000 5.000 L 10.000 5.000 10.000 4.500 L 10.000 4.000 12.000 4.000 L 14.000 4.000 14.000 4.500 M16.620 16.046 C 16.390 16.165,14.153 18.411,14.040 18.637 C 13.986 18.744,13.951 18.889,13.951 19.000 C 13.951 19.334,14.057 19.468,15.294 20.706 C 16.532 21.943,16.666 22.049,17.000 22.049 C 17.477 22.049,18.049 21.477,18.049 21.000 C 18.049 20.693,17.921 20.513,17.147 19.730 L 16.425 19.000 17.147 18.270 C 17.580 17.832,17.905 17.469,17.959 17.363 C 18.137 17.012,18.048 16.646,17.701 16.299 C 17.361 15.959,16.967 15.867,16.620 16.046 M19.626 16.045 C 19.257 16.239,18.951 16.673,18.951 17.000 C 18.951 17.307,19.079 17.487,19.853 18.270 L 20.575 19.000 19.853 19.730 C 19.420 20.168,19.095 20.531,19.041 20.637 C 18.863 20.988,18.952 21.354,19.299 21.701 C 19.646 22.048,20.010 22.137,20.363 21.960 C 20.607 21.838,22.838 19.607,22.960 19.363 C 23.076 19.132,23.076 18.868,22.960 18.637 C 22.842 18.400,20.608 16.162,20.372 16.044 C 20.152 15.934,19.835 15.935,19.626 16.045 " stroke="none" fill="black" fill-rule="evenodd"></path></svg>