<svg xmlns="http://www.w3.org/2000/svg" width="24" height="24" viewBox="0 0 24 24" fill="none" stroke="currentColor" stroke-width="2" stroke-linecap="round" stroke-linejoin="round" class="icon icon-tabler icons-tabler-outline icon-tabler-brand-deno"><path d="M11.080 2.045 C 9.206 2.210,7.361 2.947,5.800 4.154 C 5.005 4.769,4.015 5.884,3.470 6.780 C 2.106 9.020,1.666 11.743,2.260 14.260 C 2.697 16.112,3.581 17.701,4.919 19.042 C 5.899 20.024,6.897 20.700,8.128 21.216 C 9.287 21.702,10.389 21.942,11.660 21.987 C 14.031 22.071,16.273 21.338,18.200 19.847 C 18.637 19.509,19.509 18.637,19.847 18.200 C 20.959 16.762,21.624 15.214,21.907 13.400 C 22.008 12.753,22.008 11.247,21.907 10.600 C 21.624 8.786,20.959 7.238,19.847 5.800 C 19.510 5.365,18.639 4.494,18.200 4.154 C 16.133 2.555,13.646 1.818,11.080 2.045 M12.734 4.041 C 14.574 4.216,16.228 4.976,17.554 6.256 C 19.849 8.470,20.613 11.894,19.473 14.853 C 19.406 15.025,19.344 15.158,19.335 15.148 C 19.326 15.139,19.003 14.107,18.617 12.856 C 17.977 10.777,17.897 10.545,17.690 10.172 C 17.344 9.549,16.982 9.062,16.520 8.600 C 15.634 7.714,14.771 7.315,13.220 7.074 C 12.801 7.009,11.398 7.008,10.940 7.073 C 9.063 7.337,7.506 8.201,6.642 9.457 C 6.454 9.731,6.210 10.269,6.113 10.629 C 5.987 11.090,5.988 11.900,6.113 12.340 C 6.395 13.326,7.044 14.148,8.077 14.830 C 8.831 15.327,9.915 15.735,10.887 15.888 C 11.200 15.938,11.202 15.939,11.239 16.079 C 11.372 16.583,12.200 19.926,12.200 19.959 C 12.200 20.013,11.666 20.012,11.168 19.958 C 9.703 19.797,8.274 19.224,7.100 18.325 C 6.747 18.055,6.190 17.510,5.847 17.100 C 3.848 14.711,3.440 11.302,4.816 8.500 C 6.162 5.760,8.867 4.049,11.920 4.005 C 12.129 4.003,12.495 4.019,12.734 4.041 M13.220 9.100 C 14.280 9.287,14.923 9.674,15.517 10.480 C 15.994 11.128,15.986 11.105,16.986 14.355 L 17.918 17.380 17.629 17.673 C 17.027 18.283,16.286 18.808,15.474 19.198 C 14.962 19.443,14.254 19.708,14.215 19.668 C 14.202 19.656,13.907 18.508,13.559 17.119 C 12.859 14.324,12.852 14.303,12.514 14.129 C 12.374 14.057,12.221 14.024,11.894 13.997 C 10.437 13.872,9.281 13.405,8.543 12.641 C 7.785 11.856,7.831 10.946,8.668 10.162 C 9.292 9.576,10.230 9.167,11.234 9.043 C 11.657 8.990,12.785 9.022,13.220 9.100 M11.614 10.055 C 11.220 10.184,11.039 10.437,11.009 10.900 C 10.978 11.381,11.119 11.699,11.442 11.880 C 11.597 11.967,11.669 11.980,12.000 11.980 C 12.312 11.980,12.408 11.964,12.540 11.894 C 12.866 11.718,13.000 11.459,13.000 11.000 C 13.000 10.357,12.713 10.048,12.083 10.016 C 11.893 10.006,11.718 10.021,11.614 10.055 " stroke="none" fill="black" fill-rule="evenodd"></path></svg>