<svg xmlns="http://www.w3.org/2000/svg" width="24" height="24" viewBox="0 0 24 24" fill="none" stroke="currentColor" stroke-width="2" stroke-linecap="round" stroke-linejoin="round" class="icon icon-tabler icons-tabler-outline icon-tabler-rewind-forward-5"><path d="M16.626 2.045 C 16.257 2.239,15.951 2.673,15.951 3.000 C 15.951 3.307,16.079 3.488,16.851 4.268 L 17.571 4.996 12.896 5.012 C 8.921 5.026,8.169 5.038,7.880 5.090 C 6.365 5.363,5.105 6.013,4.059 7.059 C 2.989 8.129,2.322 9.447,2.074 10.980 C 2.008 11.393,2.008 12.607,2.074 13.020 C 2.322 14.553,2.989 15.871,4.059 16.941 C 5.316 18.198,6.895 18.894,8.700 18.985 C 9.397 19.021,9.678 18.919,9.880 18.558 C 9.967 18.402,9.980 18.332,9.979 18.000 C 9.978 17.687,9.962 17.591,9.890 17.453 C 9.720 17.132,9.512 17.042,8.840 16.998 C 8.031 16.946,7.433 16.793,6.785 16.474 C 5.675 15.928,4.774 14.933,4.320 13.752 C 3.915 12.699,3.915 11.301,4.320 10.248 C 4.905 8.725,6.205 7.559,7.760 7.162 C 8.350 7.011,8.717 7.000,13.206 7.000 L 17.575 7.000 16.853 7.730 C 16.420 8.168,16.095 8.531,16.041 8.637 C 15.863 8.988,15.952 9.354,16.299 9.701 C 16.646 10.048,17.011 10.137,17.363 9.960 C 17.480 9.901,18.051 9.365,19.062 8.365 C 19.899 7.537,20.634 6.826,20.697 6.784 C 20.850 6.682,21.049 6.238,21.049 6.000 C 21.049 5.745,20.851 5.321,20.676 5.201 C 20.601 5.150,19.865 4.438,19.040 3.618 C 18.085 2.670,17.479 2.098,17.372 2.044 C 17.152 1.934,16.835 1.934,16.626 2.045 M12.614 13.057 C 12.377 13.131,12.212 13.261,12.109 13.453 C 12.021 13.618,12.020 13.647,12.008 15.410 C 12.001 16.557,12.012 17.255,12.038 17.354 C 12.100 17.583,12.242 17.768,12.442 17.880 C 12.619 17.980,12.626 17.980,13.810 17.992 L 15.000 18.004 15.000 18.502 L 15.000 19.000 13.906 19.000 C 12.744 19.000,12.570 19.022,12.322 19.199 C 12.100 19.357,12.020 19.568,12.020 20.000 C 12.020 20.331,12.033 20.403,12.120 20.558 C 12.230 20.755,12.414 20.898,12.635 20.959 C 12.718 20.982,13.313 21.000,14.022 21.000 C 15.367 21.000,15.522 20.982,15.930 20.775 C 16.196 20.640,16.638 20.200,16.771 19.937 C 16.959 19.566,17.000 19.312,16.999 18.514 C 16.999 17.459,16.903 17.124,16.465 16.653 C 15.998 16.150,15.590 16.006,14.630 16.002 L 14.000 16.000 14.000 15.500 L 14.000 15.000 15.110 15.000 C 15.730 15.000,16.284 14.982,16.365 14.959 C 16.586 14.898,16.770 14.755,16.880 14.558 C 16.967 14.402,16.980 14.332,16.979 14.000 C 16.978 13.687,16.962 13.591,16.890 13.453 C 16.786 13.256,16.623 13.131,16.371 13.055 C 16.114 12.978,12.862 12.980,12.614 13.057 " stroke="none" fill="black" fill-rule="evenodd"></path></svg>