<svg xmlns="http://www.w3.org/2000/svg" width="24" height="24" viewBox="0 0 24 24" fill="none" stroke="currentColor" stroke-width="2" stroke-linecap="round" stroke-linejoin="round" class="icon icon-tabler icons-tabler-outline icon-tabler-ease-out-control-point"><path d="M4.499 2.040 C 3.363 2.246,2.460 3.049,2.114 4.160 C 1.979 4.594,1.979 5.406,2.114 5.840 C 2.421 6.826,3.174 7.579,4.160 7.886 C 4.594 8.021,5.406 8.021,5.840 7.886 C 6.645 7.635,7.318 7.069,7.688 6.330 L 7.853 6.000 8.537 6.000 C 8.912 6.000,9.285 5.981,9.365 5.959 C 9.586 5.898,9.770 5.755,9.880 5.558 C 9.967 5.402,9.980 5.332,9.979 5.000 C 9.978 4.687,9.962 4.591,9.890 4.453 C 9.697 4.088,9.430 4.000,8.520 4.000 L 7.853 4.000 7.688 3.670 C 7.320 2.935,6.631 2.354,5.861 2.129 C 5.500 2.023,4.832 1.980,4.499 2.040 M5.310 4.061 C 5.688 4.173,6.000 4.598,6.000 5.001 C 6.000 5.331,5.784 5.696,5.484 5.872 C 5.328 5.963,5.254 5.980,5.000 5.980 C 4.746 5.980,4.672 5.963,4.516 5.872 C 3.935 5.530,3.833 4.774,4.304 4.303 C 4.583 4.024,4.916 3.944,5.310 4.061 M11.614 4.057 C 11.377 4.131,11.212 4.261,11.109 4.453 C 11.035 4.592,11.020 4.684,11.020 5.000 C 11.020 5.331,11.033 5.403,11.120 5.558 C 11.230 5.755,11.414 5.898,11.635 5.959 C 11.826 6.012,14.174 6.012,14.365 5.959 C 14.586 5.898,14.770 5.755,14.880 5.558 C 14.967 5.402,14.980 5.332,14.979 5.000 C 14.978 4.687,14.962 4.591,14.890 4.453 C 14.786 4.256,14.623 4.131,14.371 4.055 C 14.117 3.979,11.859 3.981,11.614 4.057 M20.240 4.045 C 16.366 4.441,11.660 8.001,6.495 14.442 C 4.901 16.431,2.552 19.712,2.092 20.593 C 1.866 21.026,1.920 21.362,2.266 21.681 C 2.739 22.117,3.289 22.154,3.647 21.774 C 3.706 21.711,4.066 21.192,4.448 20.620 C 6.222 17.960,8.300 15.275,10.376 12.960 C 11.044 12.215,12.800 10.459,13.420 9.916 C 15.750 7.876,17.673 6.697,19.451 6.219 C 19.871 6.106,20.605 6.000,20.972 6.000 C 21.429 5.999,21.709 5.863,21.880 5.558 C 21.967 5.402,21.980 5.332,21.979 5.000 C 21.978 4.687,21.962 4.591,21.890 4.453 C 21.674 4.044,21.257 3.941,20.240 4.045 " stroke="none" fill="black" fill-rule="evenodd"></path></svg>