<svg xmlns="http://www.w3.org/2000/svg" width="24" height="24" viewBox="0 0 24 24" fill="none" stroke="currentColor" stroke-width="2" stroke-linecap="round" stroke-linejoin="round" class="icon icon-tabler icons-tabler-outline icon-tabler-grid-pattern"><path d="M5.499 3.043 C 4.380 3.233,3.461 4.048,3.114 5.160 L 3.020 5.460 3.020 12.000 L 3.020 18.540 3.114 18.840 C 3.422 19.827,4.173 20.578,5.160 20.886 L 5.460 20.980 12.000 20.980 L 18.540 20.980 18.840 20.886 C 19.827 20.578,20.578 19.827,20.886 18.840 L 20.980 18.540 20.980 12.000 L 20.980 5.460 20.886 5.160 C 20.581 4.182,19.832 3.428,18.861 3.121 L 18.540 3.020 12.120 3.014 C 8.589 3.011,5.609 3.024,5.499 3.043 M18.310 5.061 C 18.589 5.144,18.856 5.411,18.939 5.690 C 18.992 5.869,19.000 6.651,19.000 12.001 C 19.000 17.059,18.991 18.139,18.945 18.290 C 18.872 18.533,18.707 18.740,18.484 18.872 L 18.300 18.980 12.000 18.980 L 5.700 18.980 5.516 18.872 C 5.303 18.747,5.141 18.550,5.058 18.316 C 4.968 18.060,4.971 5.993,5.061 5.690 C 5.140 5.421,5.412 5.143,5.673 5.063 C 5.963 4.974,18.010 4.972,18.310 5.061 M9.614 7.057 C 9.377 7.131,9.212 7.261,9.109 7.453 C 9.029 7.603,9.019 7.689,9.007 8.310 L 8.993 9.000 8.403 9.000 C 7.577 9.000,7.299 9.097,7.109 9.453 C 7.035 9.592,7.020 9.684,7.020 10.000 C 7.020 10.331,7.033 10.403,7.120 10.558 C 7.230 10.755,7.414 10.898,7.635 10.959 C 7.715 10.981,8.055 11.000,8.390 11.000 L 9.000 11.000 9.000 12.000 L 9.000 13.000 8.406 13.000 C 7.577 13.000,7.300 13.097,7.109 13.453 C 7.035 13.592,7.020 13.684,7.020 14.000 C 7.020 14.331,7.033 14.403,7.120 14.558 C 7.230 14.755,7.414 14.898,7.635 14.959 C 7.715 14.981,8.055 15.000,8.390 15.000 L 9.000 15.000 9.000 15.610 C 9.000 15.945,9.019 16.285,9.041 16.365 C 9.148 16.750,9.437 16.962,9.896 16.991 C 10.381 17.022,10.699 16.882,10.880 16.558 C 10.974 16.391,10.981 16.338,10.994 15.690 L 11.008 15.000 12.004 15.000 L 13.000 15.000 13.000 15.610 C 13.000 15.945,13.019 16.285,13.041 16.365 C 13.148 16.750,13.437 16.962,13.896 16.991 C 14.381 17.022,14.699 16.882,14.880 16.558 C 14.974 16.391,14.981 16.338,14.994 15.690 L 15.008 15.000 15.614 15.000 C 15.947 15.000,16.285 14.981,16.365 14.959 C 16.586 14.898,16.770 14.755,16.880 14.558 C 16.967 14.402,16.980 14.332,16.979 14.000 C 16.978 13.687,16.962 13.591,16.890 13.453 C 16.702 13.097,16.424 13.000,15.594 13.000 L 15.000 13.000 15.000 12.000 L 15.000 11.000 15.610 11.000 C 15.945 11.000,16.285 10.981,16.365 10.959 C 16.586 10.898,16.770 10.755,16.880 10.558 C 16.967 10.402,16.980 10.332,16.979 10.000 C 16.978 9.687,16.962 9.591,16.890 9.453 C 16.702 9.098,16.423 9.000,15.598 9.000 L 15.008 9.000 14.993 8.310 C 14.975 7.523,14.927 7.364,14.649 7.182 C 14.199 6.887,13.426 6.979,13.170 7.358 C 13.029 7.568,13.000 7.739,13.000 8.390 L 13.000 9.000 12.004 9.000 L 11.008 9.000 10.993 8.310 C 10.976 7.541,10.930 7.378,10.678 7.199 C 10.414 7.010,9.957 6.950,9.614 7.057 M13.000 12.000 L 13.000 13.000 12.000 13.000 L 11.000 13.000 11.000 12.000 L 11.000 11.000 12.000 11.000 L 13.000 11.000 13.000 12.000 " stroke="none" fill="black" fill-rule="evenodd"></path></svg>