<svg xmlns="http://www.w3.org/2000/svg" width="24" height="24" viewBox="0 0 24 24" fill="none" stroke="currentColor" stroke-width="2" stroke-linecap="round" stroke-linejoin="round" class="icon icon-tabler icons-tabler-outline icon-tabler-bed-off"><path d="M2.626 2.045 C 2.420 2.154,2.146 2.433,2.038 2.644 C 1.924 2.868,1.924 3.133,2.040 3.363 C 2.100 3.482,2.627 4.040,3.654 5.071 L 5.179 6.601 4.968 6.803 C 4.526 7.227,4.288 7.606,4.114 8.161 C 3.979 8.593,3.979 9.406,4.114 9.840 C 4.421 10.826,5.174 11.579,6.160 11.886 C 6.594 12.021,7.407 12.021,7.839 11.886 C 8.394 11.712,8.773 11.474,9.197 11.031 L 9.400 10.820 10.200 11.620 L 11.000 12.419 11.000 12.710 L 11.000 13.000 7.001 13.000 L 3.003 13.000 2.991 10.310 L 2.980 7.620 2.889 7.450 C 2.724 7.140,2.329 6.970,1.874 7.011 C 1.439 7.051,1.141 7.274,1.041 7.635 C 0.986 7.834,0.986 17.166,1.041 17.365 C 1.148 17.750,1.437 17.962,1.896 17.991 C 2.381 18.022,2.699 17.882,2.880 17.558 C 2.979 17.381,2.980 17.374,2.993 16.190 L 3.005 15.000 8.292 15.000 L 13.579 15.000 17.019 18.436 C 19.457 20.870,20.512 21.898,20.637 21.961 C 20.990 22.137,21.355 22.048,21.701 21.701 C 22.048 21.354,22.137 20.990,21.961 20.637 C 21.887 20.490,18.710 17.255,14.722 13.266 C 14.659 13.203,14.212 12.756,13.728 12.272 C 13.243 11.789,12.805 11.350,12.754 11.299 C 12.702 11.247,12.030 10.575,11.260 9.805 C 10.490 9.036,9.815 8.361,9.760 8.305 C 9.705 8.249,9.255 7.799,8.760 7.305 C 8.265 6.811,7.815 6.361,7.760 6.305 C 7.705 6.249,6.733 5.287,5.600 4.167 C 4.268 2.849,3.480 2.099,3.372 2.045 C 3.152 1.934,2.835 1.934,2.626 2.045 M12.614 8.057 C 12.377 8.131,12.212 8.261,12.109 8.453 C 12.035 8.592,12.020 8.684,12.020 9.000 C 12.020 9.331,12.033 9.403,12.120 9.558 C 12.230 9.755,12.414 9.898,12.635 9.959 C 12.726 9.985,13.980 10.000,16.020 10.002 C 18.949 10.004,19.285 10.011,19.523 10.073 C 19.866 10.163,20.198 10.366,20.454 10.642 C 20.883 11.104,20.998 11.479,20.999 12.408 L 21.000 12.997 19.310 13.008 C 17.668 13.020,17.615 13.022,17.460 13.106 C 17.243 13.223,17.140 13.344,17.064 13.571 C 16.931 13.970,17.013 14.500,17.247 14.745 C 17.477 14.986,17.590 15.000,19.385 15.000 L 21.000 15.000 21.000 16.110 C 21.000 16.730,21.018 17.284,21.041 17.365 C 21.148 17.750,21.437 17.962,21.896 17.991 C 22.381 18.022,22.699 17.882,22.880 17.558 L 22.980 17.380 22.991 14.512 C 23.002 11.769,22.999 11.628,22.922 11.249 C 22.721 10.264,22.198 9.416,21.438 8.843 C 20.866 8.412,20.276 8.160,19.605 8.058 C 19.070 7.978,12.871 7.977,12.614 8.057 M7.290 8.710 C 7.636 9.056,7.920 9.358,7.920 9.382 C 7.920 9.476,7.661 9.768,7.486 9.871 C 7.328 9.964,7.255 9.980,6.997 9.980 C 6.729 9.980,6.671 9.966,6.502 9.860 C 5.877 9.469,5.841 8.605,6.432 8.185 C 6.513 8.127,6.597 8.080,6.619 8.080 C 6.641 8.080,6.943 8.363,7.290 8.710 " stroke="none" fill="black" fill-rule="evenodd"></path></svg>