<svg xmlns="http://www.w3.org/2000/svg" width="24" height="24" viewBox="0 0 24 24" fill="none" stroke="currentColor" stroke-width="2" stroke-linecap="round" stroke-linejoin="round" class="icon icon-tabler icons-tabler-outline icon-tabler-chevrons-up-left"><path d="M6.614 6.057 C 6.377 6.131,6.212 6.261,6.109 6.453 L 6.020 6.620 6.009 10.913 C 6.002 13.727,6.013 15.258,6.039 15.357 C 6.144 15.747,6.434 15.961,6.896 15.991 C 7.381 16.022,7.699 15.882,7.880 15.558 L 7.980 15.380 7.991 11.690 L 8.002 8.000 11.611 8.000 C 13.905 8.000,15.273 7.985,15.365 7.959 C 15.586 7.898,15.770 7.755,15.880 7.558 C 15.967 7.402,15.980 7.332,15.979 7.000 C 15.978 6.567,15.898 6.355,15.678 6.199 C 15.393 5.996,15.487 6.000,10.984 6.003 C 7.651 6.005,6.746 6.016,6.614 6.057 M10.614 10.057 C 10.377 10.131,10.212 10.261,10.109 10.453 L 10.020 10.620 10.009 14.913 C 10.002 17.727,10.013 19.258,10.039 19.357 C 10.144 19.747,10.434 19.961,10.896 19.991 C 11.381 20.022,11.699 19.882,11.880 19.558 L 11.980 19.380 11.991 15.690 L 12.002 12.000 15.611 12.000 C 17.905 12.000,19.273 11.985,19.365 11.959 C 19.586 11.898,19.770 11.755,19.880 11.558 C 19.967 11.402,19.980 11.332,19.979 11.000 C 19.978 10.567,19.898 10.355,19.678 10.199 C 19.393 9.996,19.487 10.000,14.984 10.003 C 11.651 10.005,10.746 10.016,10.614 10.057 " stroke="none" fill="black" fill-rule="evenodd"></path></svg>