<svg xmlns="http://www.w3.org/2000/svg" width="24" height="24" viewBox="0 0 24 24" fill="none" stroke="currentColor" stroke-width="2" stroke-linecap="round" stroke-linejoin="round" class="icon icon-tabler icons-tabler-outline icon-tabler-stethoscope-off"><path d="M2.626 2.045 C 2.257 2.239,1.951 2.673,1.951 3.000 C 1.951 3.253,2.068 3.465,2.402 3.816 L 2.680 4.109 2.605 4.205 C 2.473 4.372,2.276 4.728,2.196 4.943 C 2.012 5.434,2.001 5.583,2.001 7.801 C 2.000 10.278,2.032 10.650,2.327 11.537 C 2.668 12.565,3.240 13.453,4.069 14.242 C 4.773 14.912,5.551 15.369,6.511 15.679 C 6.948 15.821,7.044 15.866,7.058 15.935 C 7.067 15.982,7.104 16.182,7.140 16.380 C 7.484 18.265,8.765 20.051,10.500 21.066 C 11.714 21.776,13.369 22.124,14.760 21.962 C 16.168 21.798,17.511 21.211,18.600 20.284 L 18.740 20.165 19.600 21.017 C 20.134 21.547,20.527 21.904,20.637 21.960 C 20.989 22.137,21.354 22.048,21.701 21.701 C 22.048 21.355,22.137 20.990,21.961 20.637 C 21.897 20.509,19.503 18.089,13.306 11.887 C 3.252 1.825,3.585 2.155,3.371 2.046 C 3.153 1.934,2.836 1.934,2.626 2.045 M10.614 2.057 C 10.377 2.131,10.212 2.261,10.109 2.453 C 10.023 2.614,10.020 2.665,10.008 3.908 C 10.000 4.720,10.011 5.254,10.038 5.352 C 10.144 5.747,10.432 5.961,10.896 5.991 C 11.533 6.031,11.915 5.757,11.983 5.210 C 11.998 5.088,12.029 5.000,12.057 5.000 C 12.240 5.000,12.532 5.139,12.697 5.303 C 13.003 5.609,13.000 5.582,13.000 8.057 C 13.000 9.383,13.016 10.276,13.041 10.365 C 13.148 10.750,13.437 10.962,13.896 10.991 C 14.381 11.022,14.699 10.882,14.880 10.558 L 14.980 10.380 14.980 7.920 L 14.980 5.460 14.886 5.160 C 14.705 4.578,14.391 4.107,13.911 3.695 C 13.475 3.321,12.893 3.078,12.290 3.018 L 12.009 2.991 11.982 2.789 C 11.948 2.531,11.834 2.310,11.678 2.199 C 11.414 2.010,10.957 1.950,10.614 2.057 M7.797 9.217 C 10.863 12.283,11.446 12.884,11.405 12.933 C 11.378 12.966,11.227 13.082,11.068 13.191 C 8.825 14.737,5.767 13.978,4.508 11.564 C 4.316 11.195,4.195 10.869,4.093 10.445 C 4.039 10.224,4.026 9.825,4.011 8.042 C 3.999 6.454,4.007 5.859,4.042 5.732 C 4.069 5.637,4.102 5.560,4.115 5.560 C 4.129 5.560,5.786 7.206,7.797 9.217 M19.499 7.040 C 18.363 7.246,17.460 8.049,17.114 9.160 C 16.979 9.594,16.979 10.406,17.114 10.840 C 17.365 11.645,17.931 12.318,18.670 12.688 L 19.000 12.853 19.000 14.032 C 19.000 14.681,18.980 15.411,18.955 15.656 C 18.897 16.220,18.937 16.392,19.178 16.624 C 19.308 16.749,19.413 16.805,19.613 16.860 C 20.120 16.997,20.551 16.878,20.757 16.546 C 20.939 16.250,20.970 15.963,20.989 14.356 L 21.007 12.851 21.334 12.685 C 22.078 12.307,22.636 11.643,22.886 10.840 C 23.021 10.406,23.021 9.594,22.886 9.160 C 22.581 8.179,21.810 7.407,20.861 7.129 C 20.500 7.023,19.832 6.980,19.499 7.040 M20.310 9.061 C 20.688 9.173,21.000 9.598,21.000 10.001 C 21.000 10.331,20.784 10.696,20.484 10.872 C 20.328 10.963,20.254 10.980,20.000 10.980 C 19.746 10.980,19.672 10.963,19.516 10.872 C 18.935 10.530,18.833 9.774,19.304 9.303 C 19.583 9.024,19.916 8.944,20.310 9.061 M15.116 16.536 L 17.332 18.752 17.002 18.996 C 16.601 19.293,16.280 19.474,15.863 19.639 C 14.553 20.157,13.104 20.108,11.829 19.503 C 10.640 18.939,9.647 17.795,9.241 16.522 C 9.081 16.022,9.082 15.960,9.250 15.960 C 9.424 15.959,10.183 15.785,10.580 15.655 C 11.281 15.424,12.058 14.994,12.620 14.525 C 12.752 14.415,12.869 14.323,12.880 14.322 C 12.891 14.321,13.897 15.317,15.116 16.536 " stroke="none" fill="black" fill-rule="evenodd"></path></svg>