<svg xmlns="http://www.w3.org/2000/svg" width="24" height="24" viewBox="0 0 24 24" fill="none" stroke="currentColor" stroke-width="2" stroke-linecap="round" stroke-linejoin="round" class="icon icon-tabler icons-tabler-outline icon-tabler-align-box-center-bottom"><path d="M4.499 2.043 C 3.380 2.232,2.461 3.048,2.114 4.160 L 2.020 4.460 2.020 12.000 L 2.020 19.540 2.114 19.840 C 2.422 20.827,3.173 21.578,4.160 21.886 L 4.460 21.980 12.000 21.980 L 19.540 21.980 19.840 21.886 C 20.827 21.578,21.578 20.827,21.886 19.840 L 21.980 19.540 21.980 12.000 L 21.980 4.460 21.886 4.160 C 21.581 3.182,20.832 2.428,19.861 2.121 L 19.540 2.020 12.120 2.014 C 8.039 2.011,4.609 2.024,4.499 2.043 M19.310 4.061 C 19.589 4.144,19.856 4.411,19.939 4.690 C 19.993 4.870,20.000 5.755,20.000 12.001 C 20.000 17.907,19.991 19.138,19.945 19.290 C 19.872 19.533,19.707 19.740,19.484 19.872 L 19.300 19.980 12.000 19.980 L 4.700 19.980 4.516 19.872 C 4.415 19.813,4.284 19.700,4.225 19.623 C 3.986 19.309,4.000 19.795,4.000 12.022 C 4.000 5.758,4.007 4.870,4.061 4.690 C 4.140 4.421,4.412 4.143,4.673 4.063 C 4.964 3.974,19.009 3.971,19.310 4.061 M9.614 10.057 C 9.377 10.131,9.212 10.261,9.109 10.453 C 9.035 10.592,9.020 10.684,9.020 11.000 C 9.020 11.331,9.033 11.403,9.120 11.558 C 9.230 11.755,9.414 11.898,9.635 11.959 C 9.831 12.014,14.169 12.014,14.365 11.959 C 14.586 11.898,14.770 11.755,14.880 11.558 C 14.967 11.402,14.980 11.332,14.979 11.000 C 14.978 10.567,14.898 10.355,14.678 10.199 C 14.406 10.005,14.336 10.000,11.984 10.003 C 10.293 10.005,9.741 10.017,9.614 10.057 M8.614 13.057 C 8.377 13.131,8.212 13.261,8.109 13.453 C 8.035 13.592,8.020 13.684,8.020 14.000 C 8.020 14.331,8.033 14.403,8.120 14.558 C 8.230 14.755,8.414 14.898,8.635 14.959 C 8.832 15.014,15.168 15.014,15.365 14.959 C 15.586 14.898,15.770 14.755,15.880 14.558 C 15.967 14.402,15.980 14.332,15.979 14.000 C 15.978 13.567,15.898 13.355,15.678 13.199 C 15.398 12.999,15.411 13.000,11.984 13.003 C 9.472 13.005,8.744 13.017,8.614 13.057 M10.614 16.057 C 10.377 16.131,10.212 16.261,10.109 16.453 C 10.035 16.592,10.020 16.684,10.020 17.000 C 10.020 17.331,10.033 17.403,10.120 17.558 C 10.230 17.755,10.414 17.898,10.635 17.959 C 10.826 18.012,13.174 18.012,13.365 17.959 C 13.586 17.898,13.770 17.755,13.880 17.558 C 13.967 17.402,13.980 17.332,13.979 17.000 C 13.978 16.687,13.962 16.591,13.890 16.453 C 13.786 16.256,13.623 16.131,13.371 16.055 C 13.117 15.979,10.859 15.981,10.614 16.057 " stroke="none" fill="black" fill-rule="evenodd"></path></svg>