<svg xmlns="http://www.w3.org/2000/svg" width="24" height="24" viewBox="0 0 24 24" fill="none" stroke="currentColor" stroke-width="2" stroke-linecap="round" stroke-linejoin="round" class="icon icon-tabler icons-tabler-outline icon-tabler-roller-skating"><path d="M5.520 4.045 C 4.819 4.158,4.128 4.813,3.963 5.520 C 3.940 5.619,3.732 7.582,3.501 9.882 C 3.033 14.553,3.042 14.334,3.303 14.870 C 3.624 15.528,4.343 16.000,5.026 16.000 C 5.134 16.000,5.163 16.014,5.146 16.057 C 5.052 16.303,5.023 16.524,5.022 17.000 C 5.021 17.456,5.035 17.587,5.114 17.840 C 5.421 18.826,6.174 19.579,7.160 19.886 C 7.594 20.021,8.406 20.021,8.840 19.886 C 9.826 19.579,10.579 18.826,10.886 17.840 C 11.032 17.372,11.015 16.479,10.854 16.057 C 10.835 16.008,11.000 16.000,12.000 16.000 C 13.000 16.000,13.165 16.008,13.146 16.057 C 13.052 16.303,13.023 16.524,13.022 17.000 C 13.021 17.456,13.035 17.587,13.114 17.840 C 13.421 18.826,14.174 19.579,15.160 19.886 C 15.594 20.021,16.406 20.021,16.840 19.886 C 17.826 19.579,18.579 18.826,18.886 17.840 C 19.032 17.372,19.015 16.479,18.854 16.057 C 18.836 16.012,18.876 16.000,19.047 16.000 C 19.545 16.000,20.014 15.794,20.404 15.404 C 20.697 15.111,20.841 14.864,20.941 14.477 C 21.029 14.138,21.006 12.870,20.906 12.500 C 20.672 11.641,19.995 10.847,19.185 10.480 C 18.845 10.326,18.905 10.339,16.160 9.801 C 14.807 9.536,13.594 9.281,13.465 9.233 C 13.336 9.186,13.125 9.069,12.995 8.973 C 12.568 8.659,12.476 8.489,11.764 6.711 C 11.403 5.808,11.058 5.007,10.982 4.894 C 10.699 4.474,10.183 4.131,9.703 4.043 C 9.415 3.991,5.847 3.992,5.520 4.045 M9.899 7.440 C 10.578 9.131,10.609 9.203,10.771 9.460 C 11.309 10.315,12.180 10.967,13.123 11.222 C 13.242 11.254,14.435 11.497,15.773 11.761 C 17.112 12.025,18.273 12.269,18.353 12.303 C 18.539 12.380,18.782 12.613,18.892 12.820 C 18.963 12.953,18.980 13.065,18.993 13.490 L 19.008 14.000 12.064 14.000 C 5.478 14.000,5.120 13.996,5.119 13.930 C 5.119 13.821,5.885 6.106,5.902 6.050 C 5.915 6.010,6.279 6.001,7.623 6.010 L 9.328 6.020 9.899 7.440 M8.334 16.064 C 8.698 16.188,9.000 16.613,9.000 17.001 C 9.000 17.331,8.784 17.696,8.484 17.872 C 8.328 17.963,8.254 17.980,8.000 17.980 C 7.746 17.980,7.672 17.963,7.516 17.872 C 6.934 17.529,6.831 16.775,7.304 16.303 C 7.587 16.019,7.954 15.935,8.334 16.064 M16.334 16.064 C 16.698 16.188,17.000 16.613,17.000 17.001 C 17.000 17.331,16.784 17.696,16.484 17.872 C 16.328 17.963,16.254 17.980,16.000 17.980 C 15.746 17.980,15.672 17.963,15.516 17.872 C 14.934 17.529,14.831 16.775,15.304 16.303 C 15.587 16.019,15.954 15.935,16.334 16.064 " stroke="none" fill="black" fill-rule="evenodd"></path></svg>