<svg xmlns="http://www.w3.org/2000/svg" width="24" height="24" viewBox="0 0 24 24" fill="none" stroke="currentColor" stroke-width="2" stroke-linecap="round" stroke-linejoin="round" class="icon icon-tabler icons-tabler-outline icon-tabler-square-toggle-horizontal"><path d="M5.499 3.043 C 4.390 3.231,3.486 4.026,3.115 5.140 L 3.021 5.420 3.009 8.210 L 2.996 11.000 2.405 11.000 C 1.577 11.000,1.299 11.097,1.109 11.453 C 1.035 11.592,1.020 11.684,1.020 12.000 C 1.020 12.331,1.033 12.403,1.120 12.558 C 1.230 12.755,1.414 12.898,1.635 12.959 C 1.715 12.981,2.054 13.000,2.390 13.000 L 3.000 13.000 3.000 13.610 C 3.000 13.945,3.019 14.285,3.041 14.365 C 3.148 14.750,3.437 14.962,3.896 14.991 C 4.381 15.022,4.699 14.882,4.880 14.558 C 4.974 14.391,4.981 14.338,4.994 13.690 L 5.008 13.000 12.004 13.000 L 19.000 13.000 19.000 13.610 C 19.000 13.945,19.019 14.285,19.041 14.365 C 19.148 14.750,19.437 14.962,19.896 14.991 C 20.381 15.022,20.699 14.882,20.880 14.558 C 20.974 14.391,20.981 14.338,20.994 13.690 L 21.008 13.000 21.614 13.000 C 21.947 13.000,22.285 12.981,22.365 12.959 C 22.586 12.898,22.770 12.755,22.880 12.558 C 22.967 12.402,22.980 12.332,22.979 12.000 C 22.978 11.687,22.962 11.591,22.890 11.453 C 22.702 11.098,22.423 11.000,21.595 11.000 L 21.004 11.000 20.991 8.210 L 20.979 5.420 20.885 5.140 C 20.559 4.160,19.821 3.425,18.861 3.121 L 18.540 3.020 12.120 3.014 C 8.589 3.011,5.609 3.024,5.499 3.043 M18.310 5.061 C 18.452 5.103,18.571 5.178,18.697 5.303 C 19.007 5.614,19.000 5.538,19.000 8.447 L 19.000 11.000 12.000 11.000 L 5.000 11.000 5.000 8.447 C 5.000 5.538,4.993 5.614,5.304 5.303 C 5.623 4.983,5.120 5.006,11.983 5.003 C 17.353 5.000,18.131 5.007,18.310 5.061 M3.614 17.057 C 3.377 17.131,3.212 17.261,3.109 17.453 C 2.979 17.696,2.983 18.409,3.115 18.840 C 3.415 19.814,4.178 20.583,5.140 20.878 C 5.479 20.982,6.113 21.028,6.344 20.965 C 6.584 20.899,6.767 20.761,6.880 20.558 C 6.967 20.402,6.980 20.332,6.979 20.000 C 6.978 19.687,6.962 19.591,6.890 19.453 C 6.737 19.164,6.521 19.052,6.007 18.999 C 5.627 18.959,5.398 18.849,5.226 18.625 C 5.076 18.428,5.036 18.306,4.996 17.929 C 4.956 17.552,4.858 17.327,4.678 17.199 C 4.414 17.010,3.957 16.950,3.614 17.057 M19.614 17.057 C 19.219 17.181,19.054 17.417,19.000 17.934 C 18.961 18.310,18.921 18.431,18.774 18.625 C 18.599 18.853,18.374 18.959,17.976 19.000 C 17.248 19.076,16.964 19.399,17.009 20.104 C 17.039 20.572,17.251 20.854,17.656 20.965 C 17.887 21.028,18.521 20.982,18.860 20.878 C 19.822 20.583,20.584 19.815,20.885 18.840 C 21.018 18.410,21.021 17.697,20.891 17.453 C 20.842 17.362,20.746 17.247,20.678 17.199 C 20.414 17.010,19.957 16.950,19.614 17.057 M9.614 19.057 C 9.377 19.131,9.212 19.261,9.109 19.453 C 9.035 19.592,9.020 19.684,9.020 20.000 C 9.020 20.331,9.033 20.403,9.120 20.558 C 9.230 20.755,9.414 20.898,9.635 20.959 C 9.724 20.984,10.635 21.000,12.000 21.000 C 13.365 21.000,14.276 20.984,14.365 20.959 C 14.586 20.898,14.770 20.755,14.880 20.558 C 14.967 20.402,14.980 20.332,14.979 20.000 C 14.978 19.567,14.898 19.355,14.678 19.199 C 14.406 19.005,14.336 19.000,11.984 19.003 C 10.293 19.005,9.741 19.017,9.614 19.057 " stroke="none" fill="black" fill-rule="evenodd"></path></svg>