<svg xmlns="http://www.w3.org/2000/svg" width="24" height="24" viewBox="0 0 24 24" fill="none" stroke="currentColor" stroke-width="2" stroke-linecap="round" stroke-linejoin="round" class="icon icon-tabler icons-tabler-outline icon-tabler-brand-paypal"><path d="M6.600 2.044 C 6.005 2.160,5.352 2.736,5.121 3.349 C 5.076 3.469,4.665 6.231,4.016 10.785 C 3.018 17.780,2.984 18.039,3.028 18.301 C 3.098 18.709,3.286 19.053,3.617 19.381 C 4.165 19.924,4.421 20.000,5.698 20.000 L 6.620 20.000 6.620 20.410 C 6.620 20.892,6.688 21.071,7.002 21.415 C 7.241 21.676,7.504 21.821,7.846 21.880 C 8.257 21.952,11.073 21.912,11.346 21.831 C 11.963 21.647,12.463 21.189,12.683 20.604 C 12.746 20.438,13.235 17.752,13.239 17.550 C 13.240 17.534,13.614 17.520,14.070 17.519 C 15.842 17.517,16.680 17.362,17.720 16.843 C 18.954 16.227,19.871 15.343,20.441 14.220 C 20.866 13.382,21.023 12.653,20.986 11.680 C 20.910 9.652,20.111 7.948,18.712 6.832 C 18.474 6.641,18.352 6.515,18.337 6.445 C 18.267 6.108,18.045 5.482,17.861 5.100 C 17.580 4.518,17.238 4.047,16.766 3.592 C 15.816 2.677,14.636 2.169,13.160 2.041 C 12.596 1.992,6.853 1.995,6.600 2.044 M13.139 4.042 C 14.600 4.209,15.680 4.977,16.178 6.203 C 16.395 6.736,16.454 7.088,16.457 7.860 C 16.460 8.695,16.420 8.875,16.080 9.549 C 15.524 10.649,14.464 11.546,13.320 11.885 C 13.037 11.969,12.921 11.975,11.280 11.998 C 9.369 12.025,9.415 12.019,8.945 12.295 C 8.643 12.472,8.299 12.907,8.163 13.285 C 8.136 13.359,7.866 14.446,7.564 15.700 L 7.014 17.980 6.014 17.991 L 5.014 18.001 6.007 11.051 C 6.553 7.228,7.008 4.077,7.019 4.050 C 7.043 3.986,12.585 3.978,13.139 4.042 M18.513 9.731 C 18.826 10.371,18.974 11.059,18.977 11.880 C 18.979 12.286,18.961 12.490,18.904 12.700 C 18.586 13.891,17.465 14.943,16.088 15.342 C 15.603 15.483,15.069 15.520,13.500 15.521 C 12.221 15.522,12.086 15.528,11.936 15.596 C 11.728 15.691,11.577 15.853,11.493 16.072 C 11.457 16.167,11.290 17.067,11.122 18.072 L 10.816 19.900 9.743 19.911 L 8.671 19.921 8.698 19.691 C 8.712 19.564,9.011 18.260,9.362 16.793 C 9.713 15.326,10.000 14.097,10.000 14.063 C 10.000 14.007,10.157 14.000,11.410 14.000 C 13.231 13.999,13.663 13.938,14.600 13.542 C 16.216 12.861,17.690 11.273,18.208 9.656 C 18.259 9.498,18.312 9.376,18.326 9.384 C 18.340 9.392,18.424 9.549,18.513 9.731 " stroke="none" fill="black" fill-rule="evenodd"></path></svg>