<svg xmlns="http://www.w3.org/2000/svg" width="24" height="24" viewBox="0 0 24 24" fill="none" stroke="currentColor" stroke-width="2" stroke-linecap="round" stroke-linejoin="round" class="icon icon-tabler icons-tabler-outline icon-tabler-brackets-off"><path d="M2.626 2.045 C 2.257 2.239,1.951 2.673,1.951 3.000 C 1.951 3.321,2.070 3.479,3.065 4.482 L 4.000 5.424 4.000 12.822 C 4.000 17.655,4.014 20.270,4.041 20.365 C 4.102 20.586,4.245 20.770,4.442 20.880 L 4.620 20.980 6.410 20.992 C 7.557 20.999,8.255 20.988,8.354 20.962 C 8.583 20.900,8.768 20.758,8.880 20.558 C 8.967 20.402,8.980 20.332,8.979 20.000 C 8.978 19.567,8.898 19.355,8.678 19.199 C 8.430 19.022,8.256 19.000,7.094 19.000 L 6.000 19.000 6.000 13.210 L 6.000 7.420 11.780 13.200 L 17.560 18.980 16.609 19.000 C 15.686 19.019,15.652 19.023,15.459 19.122 C 15.119 19.297,14.978 19.606,15.009 20.104 C 15.038 20.563,15.250 20.852,15.635 20.959 C 15.826 21.012,19.173 21.014,19.358 20.961 C 19.495 20.921,19.496 20.922,19.978 21.395 C 20.244 21.656,20.541 21.910,20.638 21.959 C 20.988 22.137,21.354 22.049,21.701 21.701 C 22.048 21.354,22.137 20.989,21.959 20.637 C 21.888 20.496,20.606 19.137,19.748 18.293 C 19.598 18.145,5.866 4.413,5.760 4.304 C 5.007 3.534,3.504 2.112,3.372 2.045 C 3.152 1.934,2.836 1.934,2.626 2.045 M15.614 3.057 C 15.377 3.131,15.212 3.261,15.109 3.453 C 15.035 3.592,15.020 3.684,15.020 4.000 C 15.020 4.331,15.033 4.403,15.120 4.558 C 15.230 4.755,15.414 4.898,15.635 4.959 C 15.716 4.982,16.270 5.000,16.890 5.000 L 18.000 5.000 18.000 10.110 C 18.000 13.410,18.015 15.271,18.041 15.365 C 18.148 15.750,18.437 15.962,18.896 15.991 C 19.381 16.022,19.699 15.882,19.880 15.558 L 19.980 15.380 19.980 9.500 L 19.980 3.620 19.891 3.453 C 19.785 3.256,19.622 3.131,19.371 3.055 C 19.114 2.978,15.862 2.980,15.614 3.057 " stroke="none" fill="black" fill-rule="evenodd"></path></svg>