<svg xmlns="http://www.w3.org/2000/svg" width="24" height="24" viewBox="0 0 24 24" fill="none" stroke="currentColor" stroke-width="2" stroke-linecap="round" stroke-linejoin="round" class="icon icon-tabler icons-tabler-outline icon-tabler-lock-up"><path d="M11.400 2.044 C 9.761 2.229,8.261 3.290,7.526 4.785 C 7.345 5.153,7.194 5.578,7.096 6.000 C 7.037 6.256,7.024 6.571,7.011 8.145 L 6.995 9.990 6.712 10.018 C 5.496 10.138,4.485 10.971,4.114 12.160 L 4.020 12.460 4.020 16.000 L 4.020 19.540 4.114 19.840 C 4.418 20.816,5.151 21.555,6.140 21.886 L 6.420 21.979 9.520 21.992 C 11.763 22.002,12.679 21.993,12.833 21.959 C 13.261 21.866,13.486 21.537,13.486 21.003 C 13.486 20.656,13.418 20.446,13.248 20.267 C 13.003 20.009,13.166 20.022,9.780 20.000 L 6.700 19.980 6.516 19.872 C 6.303 19.747,6.141 19.550,6.058 19.316 C 5.969 19.063,5.971 12.991,6.061 12.690 C 6.144 12.411,6.411 12.144,6.690 12.061 C 6.990 11.972,17.061 11.969,17.313 12.058 C 17.547 12.140,17.695 12.261,17.875 12.517 C 18.170 12.935,18.345 13.047,18.697 13.046 C 19.111 13.043,19.662 12.644,19.761 12.274 C 19.905 11.741,19.253 10.810,18.435 10.380 C 18.053 10.179,17.767 10.088,17.357 10.035 L 17.005 9.990 16.989 8.145 C 16.976 6.571,16.963 6.256,16.904 6.000 C 16.543 4.449,15.584 3.211,14.213 2.525 C 13.352 2.095,12.397 1.932,11.400 2.044 M12.861 4.129 C 13.803 4.404,14.578 5.178,14.877 6.139 C 14.976 6.457,14.977 6.477,14.991 8.230 L 15.005 10.000 12.000 10.000 L 8.995 10.000 9.009 8.230 C 9.023 6.477,9.024 6.457,9.123 6.139 C 9.462 5.049,10.371 4.245,11.499 4.040 C 11.832 3.980,12.500 4.023,12.861 4.129 M11.477 14.073 C 10.806 14.249,10.238 14.823,10.060 15.508 C 9.941 15.962,10.003 16.492,10.225 16.930 C 10.361 17.199,10.801 17.639,11.070 17.775 C 11.659 18.073,12.341 18.073,12.930 17.775 C 13.196 17.640,13.638 17.200,13.771 16.937 C 13.994 16.498,14.052 16.007,13.940 15.529 C 13.858 15.182,13.720 14.927,13.465 14.653 C 13.074 14.232,12.560 14.005,12.000 14.005 C 11.857 14.005,11.622 14.036,11.477 14.073 M18.530 15.083 C 18.393 15.150,18.249 15.252,18.210 15.310 C 18.172 15.369,17.463 16.101,16.635 16.938 C 15.635 17.949,15.099 18.520,15.040 18.637 C 14.863 18.989,14.952 19.354,15.299 19.701 C 15.646 20.048,16.012 20.137,16.363 19.959 C 16.469 19.905,16.832 19.580,17.270 19.147 L 18.000 18.425 18.000 20.322 C 18.000 21.470,18.016 22.277,18.041 22.365 C 18.148 22.750,18.437 22.962,18.896 22.991 C 19.381 23.022,19.699 22.882,19.880 22.558 L 19.980 22.380 19.992 20.404 L 20.004 18.428 20.732 19.149 C 21.168 19.581,21.531 19.905,21.637 19.959 C 21.988 20.137,22.354 20.048,22.701 19.701 C 23.048 19.354,23.137 18.989,22.960 18.637 C 22.901 18.520,22.365 17.949,21.365 16.938 C 20.537 16.101,19.828 15.369,19.789 15.310 C 19.751 15.252,19.604 15.149,19.464 15.082 C 19.120 14.918,18.871 14.918,18.530 15.083 " stroke="none" fill="black" fill-rule="evenodd"></path></svg>