<svg xmlns="http://www.w3.org/2000/svg" width="24" height="24" viewBox="0 0 24 24" fill="none" stroke="currentColor" stroke-width="2" stroke-linecap="round" stroke-linejoin="round" class="icon icon-tabler icons-tabler-outline icon-tabler-step-into"><path d="M11.614 2.057 C 11.377 2.131,11.212 2.261,11.109 2.453 L 11.020 2.620 11.009 7.598 L 10.999 12.576 9.769 11.353 C 9.001 10.588,8.477 10.098,8.372 10.045 C 8.020 9.868,7.639 9.958,7.299 10.299 C 6.952 10.646,6.863 11.011,7.040 11.363 C 7.101 11.484,7.766 12.182,9.134 13.561 C 10.237 14.673,11.174 15.634,11.215 15.696 C 11.322 15.856,11.750 16.049,12.000 16.049 C 12.250 16.049,12.678 15.856,12.785 15.696 C 12.826 15.634,13.763 14.673,14.866 13.561 C 16.234 12.182,16.899 11.484,16.960 11.363 C 17.137 11.011,17.048 10.646,16.701 10.299 C 16.361 9.958,15.980 9.868,15.628 10.045 C 15.523 10.098,14.999 10.588,14.231 11.352 L 13.002 12.576 12.991 7.598 L 12.980 2.620 12.891 2.453 C 12.842 2.362,12.746 2.247,12.678 2.199 C 12.414 2.010,11.957 1.950,11.614 2.057 M11.477 18.073 C 10.806 18.249,10.238 18.823,10.060 19.508 C 9.941 19.962,10.003 20.492,10.225 20.930 C 10.361 21.199,10.801 21.639,11.070 21.775 C 11.659 22.073,12.341 22.073,12.930 21.775 C 13.196 21.640,13.638 21.200,13.771 20.937 C 13.994 20.498,14.052 20.007,13.940 19.529 C 13.858 19.182,13.720 18.927,13.465 18.653 C 13.074 18.232,12.560 18.005,12.000 18.005 C 11.857 18.005,11.622 18.036,11.477 18.073 " stroke="none" fill="black" fill-rule="evenodd"></path></svg>