<svg xmlns="http://www.w3.org/2000/svg" width="24" height="24" viewBox="0 0 24 24" fill="none" stroke="currentColor" stroke-width="2" stroke-linecap="round" stroke-linejoin="round" class="icon icon-tabler icons-tabler-outline icon-tabler-paperclip"><path d="M14.260 1.818 C 13.498 1.923,12.758 2.209,12.069 2.663 C 11.697 2.908,11.347 3.245,8.167 6.416 C 6.245 8.332,4.536 10.062,4.369 10.260 C 2.034 13.023,2.073 17.112,4.461 19.852 C 5.831 21.425,7.896 22.360,10.000 22.360 C 11.731 22.360,13.432 21.736,14.758 20.615 C 14.946 20.456,16.624 18.799,18.486 16.933 C 20.881 14.533,21.898 13.488,21.961 13.363 C 22.137 13.010,22.048 12.645,21.701 12.299 C 21.361 11.959,20.980 11.868,20.628 12.044 C 20.515 12.101,19.320 13.265,16.960 15.618 C 15.035 17.537,13.352 19.188,13.220 19.286 C 11.629 20.473,9.540 20.687,7.720 19.851 C 6.779 19.419,5.898 18.612,5.372 17.700 C 4.296 15.836,4.431 13.494,5.713 11.780 C 6.010 11.383,12.856 4.548,13.186 4.319 C 14.071 3.705,15.265 3.594,16.300 4.028 C 16.987 4.317,17.683 5.013,17.973 5.702 C 18.168 6.166,18.216 6.424,18.216 7.000 C 18.216 7.759,18.070 8.252,17.677 8.820 C 17.546 9.009,16.356 10.225,14.031 12.545 C 10.878 15.693,10.563 15.996,10.383 16.055 C 9.833 16.236,9.259 16.004,9.000 15.495 C 8.871 15.243,8.860 14.787,8.977 14.540 C 9.028 14.432,10.151 13.278,12.462 10.960 C 14.869 8.545,15.898 7.488,15.961 7.363 C 16.137 7.010,16.048 6.646,15.701 6.299 C 15.361 5.959,14.980 5.868,14.628 6.044 C 14.434 6.141,7.943 12.591,7.556 13.072 C 7.294 13.397,7.082 13.808,6.974 14.200 C 6.874 14.563,6.874 15.437,6.974 15.800 C 7.263 16.849,8.148 17.739,9.180 18.019 C 9.312 18.055,9.610 18.095,9.842 18.107 C 10.523 18.145,11.144 17.982,11.703 17.620 C 11.944 17.464,18.186 11.281,18.862 10.529 C 19.256 10.090,19.462 9.789,19.700 9.300 C 20.041 8.601,20.192 8.005,20.227 7.216 C 20.273 6.209,20.038 5.252,19.533 4.380 C 18.988 3.438,18.113 2.653,17.121 2.217 C 16.208 1.815,15.251 1.681,14.260 1.818 " stroke="none" fill="black" fill-rule="evenodd"></path></svg>