<svg xmlns="http://www.w3.org/2000/svg" width="24" height="24" viewBox="0 0 24 24" fill="none" stroke="currentColor" stroke-width="2" stroke-linecap="round" stroke-linejoin="round" class="icon icon-tabler icons-tabler-outline icon-tabler-brand-pepsi"><path d="M11.080 2.045 C 9.507 2.184,7.883 2.751,6.540 3.630 C 5.905 4.045,5.499 4.378,4.919 4.958 C 2.953 6.926,1.919 9.544,2.013 12.320 C 2.084 14.439,2.752 16.328,4.033 18.040 C 4.430 18.570,5.305 19.464,5.800 19.847 C 7.242 20.961,8.787 21.624,10.600 21.907 C 11.247 22.008,12.753 22.008,13.400 21.907 C 15.638 21.557,17.504 20.620,19.062 19.062 C 20.620 17.504,21.557 15.638,21.907 13.400 C 22.008 12.753,22.008 11.247,21.907 10.600 C 21.624 8.788,20.965 7.251,19.848 5.800 C 19.704 5.613,19.298 5.175,18.947 4.827 C 18.397 4.283,18.219 4.135,17.683 3.780 C 17.341 3.552,16.871 3.267,16.640 3.146 C 14.953 2.260,13.004 1.875,11.080 2.045 M12.734 4.041 C 13.346 4.099,13.937 4.220,14.498 4.403 C 14.986 4.561,16.192 5.132,16.226 5.220 C 16.252 5.289,15.961 6.005,15.642 6.660 C 14.591 8.812,13.122 10.354,10.900 11.639 C 10.300 11.986,8.777 12.719,7.340 13.352 C 6.592 13.681,5.640 14.107,5.224 14.298 C 4.671 14.553,4.460 14.633,4.438 14.597 C 4.374 14.493,4.198 13.802,4.122 13.353 C 3.729 11.049,4.369 8.660,5.848 6.900 C 6.622 5.980,7.440 5.337,8.500 4.816 C 9.813 4.172,11.278 3.903,12.734 4.041 M18.044 7.326 C 18.086 8.061,18.035 9.072,17.922 9.722 C 17.603 11.572,16.701 12.826,15.120 13.620 C 14.129 14.118,13.074 14.426,11.020 14.819 C 8.727 15.258,8.156 15.371,7.764 15.463 C 7.535 15.517,7.340 15.554,7.331 15.544 C 7.322 15.535,7.355 15.514,7.406 15.498 C 7.621 15.430,9.805 14.442,10.540 14.081 C 11.501 13.609,12.150 13.240,12.900 12.740 C 15.086 11.283,16.670 9.372,17.753 6.882 C 17.871 6.611,17.888 6.591,17.945 6.648 C 17.994 6.697,18.017 6.854,18.044 7.326 M19.915 10.851 C 20.235 13.075,19.582 15.392,18.153 17.100 C 17.388 18.015,16.523 18.693,15.471 19.200 C 13.263 20.267,10.735 20.265,8.520 19.197 C 7.779 18.839,6.532 17.970,6.627 17.877 C 6.675 17.831,7.544 17.572,8.100 17.440 C 8.364 17.376,9.012 17.242,9.540 17.140 C 12.841 16.506,13.574 16.343,14.487 16.038 C 16.537 15.353,17.870 14.403,18.817 12.950 C 19.215 12.339,19.602 11.421,19.762 10.708 C 19.790 10.581,19.826 10.491,19.842 10.509 C 19.857 10.526,19.890 10.680,19.915 10.851 " stroke="none" fill="black" fill-rule="evenodd"></path></svg>