<svg xmlns="http://www.w3.org/2000/svg" width="24" height="24" viewBox="0 0 24 24" fill="none" stroke="currentColor" stroke-width="2" stroke-linecap="round" stroke-linejoin="round" class="icon icon-tabler icons-tabler-outline icon-tabler-square-rounded-number-2"><path d="M10.349 2.044 C 7.535 2.178,5.738 2.713,4.406 3.814 C 3.787 4.326,3.247 5.075,2.885 5.924 C 2.566 6.671,2.342 7.527,2.205 8.520 C 2.051 9.633,2.021 10.208,2.021 12.000 C 2.021 13.792,2.051 14.367,2.205 15.480 C 2.744 19.396,4.610 21.251,8.560 21.800 C 9.623 21.948,10.220 21.979,12.000 21.979 C 13.780 21.979,14.377 21.948,15.440 21.800 C 16.241 21.689,16.753 21.574,17.401 21.361 C 20.018 20.502,21.344 18.717,21.800 15.440 C 21.948 14.377,21.979 13.780,21.979 12.000 C 21.979 10.220,21.948 9.623,21.800 8.560 C 21.494 6.357,20.759 4.778,19.594 3.814 C 18.657 3.040,17.469 2.539,15.960 2.283 C 14.520 2.039,12.378 1.947,10.349 2.044 M13.500 4.041 C 16.040 4.168,17.512 4.591,18.435 5.458 C 19.509 6.468,19.999 8.517,19.999 12.000 C 19.999 15.490,19.511 17.527,18.430 18.548 C 17.356 19.562,15.410 20.000,11.992 20.000 C 8.581 19.999,6.644 19.561,5.570 18.548 C 4.489 17.527,4.001 15.490,4.001 12.000 C 4.001 10.005,4.176 8.385,4.505 7.320 C 5.052 5.555,6.056 4.719,8.129 4.302 C 9.412 4.045,11.521 3.942,13.500 4.041 M9.614 7.057 C 9.377 7.131,9.212 7.261,9.109 7.453 C 9.035 7.592,9.020 7.684,9.020 8.000 C 9.020 8.331,9.033 8.403,9.120 8.558 C 9.230 8.755,9.414 8.898,9.635 8.959 C 9.721 8.983,10.435 9.000,11.390 9.000 L 13.000 9.000 13.000 10.000 L 13.000 11.000 11.870 11.002 C 10.595 11.005,10.391 11.035,9.983 11.281 C 9.703 11.449,9.354 11.816,9.219 12.083 C 9.019 12.478,9.000 12.640,9.000 14.000 C 9.000 15.368,9.018 15.521,9.225 15.930 C 9.361 16.199,9.801 16.639,10.070 16.775 C 10.497 16.991,10.591 17.000,12.478 17.000 C 13.522 17.000,14.278 16.983,14.365 16.959 C 14.586 16.898,14.770 16.755,14.880 16.558 C 14.967 16.402,14.980 16.332,14.979 16.000 C 14.978 15.567,14.898 15.355,14.678 15.199 C 14.416 15.012,14.290 15.000,12.594 15.000 L 11.000 15.000 11.000 14.000 L 11.000 13.000 12.132 13.000 C 13.358 13.000,13.528 12.979,13.930 12.775 C 14.196 12.640,14.638 12.200,14.771 11.937 C 14.979 11.527,15.000 11.352,14.999 10.014 C 14.999 8.682,14.974 8.463,14.781 8.083 C 14.646 7.816,14.297 7.449,14.017 7.281 C 13.578 7.017,13.468 7.005,11.520 7.005 C 10.204 7.005,9.739 7.018,9.614 7.057 " stroke="none" fill="black" fill-rule="evenodd"></path></svg>