<svg xmlns="http://www.w3.org/2000/svg" width="24" height="24" viewBox="0 0 24 24" fill="none" stroke="currentColor" stroke-width="2" stroke-linecap="round" stroke-linejoin="round" class="icon icon-tabler icons-tabler-outline icon-tabler-brand-astro"><path d="M9.729 2.045 C 8.998 2.153,8.335 2.639,8.023 3.293 C 7.833 3.694,4.000 15.799,4.000 16.001 C 4.000 16.365,4.271 16.810,4.584 16.962 C 4.857 17.094,5.097 17.055,5.672 16.786 C 6.861 16.230,7.877 15.894,9.135 15.641 C 9.802 15.506,10.003 15.417,10.169 15.180 C 10.253 15.060,10.496 14.311,11.133 12.211 C 11.602 10.666,11.994 9.392,12.005 9.381 C 12.017 9.370,12.347 10.409,12.739 11.691 C 13.756 15.011,13.779 15.078,13.917 15.245 C 14.079 15.440,14.244 15.511,14.794 15.620 C 16.058 15.873,17.072 16.201,18.200 16.722 C 18.566 16.891,18.806 16.978,18.946 16.990 C 19.338 17.026,19.802 16.791,19.964 16.473 C 20.035 16.334,20.046 16.258,20.029 16.042 C 20.003 15.719,16.237 3.753,16.012 3.280 C 15.756 2.743,15.191 2.276,14.580 2.096 C 14.366 2.033,14.108 2.025,12.160 2.017 C 10.961 2.012,9.867 2.024,9.729 2.045 M14.162 4.105 C 14.223 4.165,14.702 5.629,15.824 9.181 C 16.691 11.927,17.400 14.190,17.400 14.211 C 17.400 14.232,17.369 14.236,17.330 14.220 C 17.189 14.161,16.176 13.876,15.819 13.794 L 15.451 13.709 14.359 10.145 C 13.758 8.184,13.235 6.504,13.195 6.411 C 13.093 6.169,12.839 5.912,12.572 5.780 C 12.377 5.684,12.289 5.666,12.020 5.664 C 11.756 5.662,11.660 5.680,11.474 5.767 C 11.217 5.886,10.959 6.126,10.848 6.348 C 10.806 6.432,10.280 8.122,9.680 10.105 L 8.588 13.709 8.184 13.799 C 7.962 13.849,7.519 13.967,7.200 14.062 C 6.882 14.156,6.619 14.231,6.616 14.227 C 6.605 14.210,9.752 4.327,9.803 4.221 C 9.911 3.997,9.886 3.999,12.069 4.010 C 14.055 4.020,14.079 4.021,14.162 4.105 M8.648 17.002 C 8.449 17.082,8.196 17.292,8.120 17.440 C 8.076 17.526,8.019 17.718,7.994 17.868 C 7.951 18.120,7.955 18.171,8.056 18.554 C 8.280 19.402,8.607 19.974,9.340 20.800 C 9.814 21.335,11.439 22.857,11.649 22.965 C 11.867 23.076,12.135 23.074,12.363 22.961 C 12.650 22.817,14.222 21.188,14.852 20.380 C 15.667 19.335,16.034 18.530,15.988 17.895 C 15.952 17.404,15.748 17.146,15.308 17.037 C 15.034 16.969,14.770 17.013,14.369 17.193 C 13.926 17.392,13.358 17.574,12.899 17.664 C 12.381 17.766,11.544 17.758,11.014 17.646 C 10.526 17.543,9.848 17.312,9.646 17.181 C 9.381 17.008,8.864 16.915,8.648 17.002 M12.024 19.740 L 12.787 19.740 12.387 20.168 L 11.987 20.596 11.803 20.441 C 11.703 20.356,11.485 20.149,11.320 19.980 C 11.055 19.710,11.034 19.679,11.140 19.707 C 11.206 19.725,11.604 19.740,12.024 19.740 " stroke="none" fill="black" fill-rule="evenodd"></path></svg>