<svg xmlns="http://www.w3.org/2000/svg" width="24" height="24" viewBox="0 0 24 24" fill="none" stroke="currentColor" stroke-width="2" stroke-linecap="round" stroke-linejoin="round" class="icon icon-tabler icons-tabler-outline icon-tabler-zoom-code"><path d="M9.207 2.043 C 7.656 2.193,6.096 2.846,4.900 3.847 C 3.985 4.612,3.307 5.477,2.800 6.529 C 1.453 9.317,1.837 12.625,3.789 15.040 C 4.075 15.394,4.761 16.067,5.100 16.326 C 6.974 17.757,9.329 18.302,11.620 17.833 C 12.581 17.637,13.717 17.154,14.500 16.608 L 14.900 16.329 17.680 19.101 C 19.627 21.042,20.513 21.898,20.637 21.961 C 20.990 22.137,21.354 22.048,21.701 21.701 C 22.048 21.354,22.137 20.990,21.961 20.637 C 21.898 20.513,21.042 19.627,19.101 17.680 L 16.329 14.900 16.608 14.500 C 16.761 14.280,17.009 13.854,17.158 13.553 C 18.265 11.323,18.280 8.765,17.200 6.529 C 16.693 5.477,16.015 4.612,15.100 3.847 C 13.483 2.494,11.337 1.837,9.207 2.043 M10.564 4.039 C 12.921 4.269,14.913 5.837,15.671 8.060 C 16.168 9.517,16.068 11.251,15.410 12.580 C 14.550 14.316,13.056 15.478,11.160 15.885 C 10.554 16.015,9.446 16.015,8.840 15.885 C 6.941 15.478,5.451 14.319,4.590 12.580 C 3.932 11.251,3.832 9.517,4.329 8.060 C 4.618 7.212,5.080 6.470,5.731 5.805 C 7.008 4.503,8.757 3.864,10.564 4.039 M7.620 7.046 C 7.390 7.165,5.153 9.411,5.040 9.637 C 4.924 9.868,4.924 10.132,5.040 10.363 C 5.162 10.607,7.393 12.838,7.637 12.960 C 7.990 13.137,8.354 13.048,8.701 12.701 C 9.048 12.354,9.137 11.988,8.959 11.637 C 8.905 11.531,8.580 11.168,8.147 10.730 L 7.425 10.000 8.147 9.270 C 8.580 8.832,8.905 8.469,8.959 8.363 C 9.137 8.012,9.048 7.646,8.701 7.299 C 8.361 6.959,7.967 6.867,7.620 7.046 M11.626 7.045 C 11.257 7.239,10.951 7.673,10.951 8.000 C 10.951 8.307,11.079 8.487,11.853 9.270 L 12.575 10.000 11.853 10.730 C 11.079 11.513,10.951 11.693,10.951 12.000 C 10.951 12.477,11.523 13.049,12.000 13.049 C 12.334 13.049,12.468 12.943,13.706 11.706 C 14.943 10.468,15.049 10.334,15.049 10.000 C 15.049 9.889,15.014 9.744,14.960 9.637 C 14.842 9.400,12.608 7.162,12.372 7.044 C 12.152 6.934,11.835 6.935,11.626 7.045 " stroke="none" fill="black" fill-rule="evenodd"></path></svg>