<svg xmlns="http://www.w3.org/2000/svg" width="24" height="24" viewBox="0 0 24 24" fill="none" stroke="currentColor" stroke-width="2" stroke-linecap="round" stroke-linejoin="round" class="icon icon-tabler icons-tabler-outline icon-tabler-mood-boy"><path d="M8.133 1.018 C 7.839 1.146,7.500 1.634,7.451 1.999 C 7.414 2.275,7.577 2.549,7.946 2.830 C 8.535 3.278,8.940 3.797,9.341 4.620 C 9.755 5.469,9.934 6.097,9.994 6.908 C 10.023 7.299,10.049 7.427,10.125 7.565 C 10.286 7.856,10.575 8.000,11.000 8.000 C 11.817 8.000,12.102 7.519,11.963 6.374 C 11.787 4.920,11.028 3.198,10.071 2.080 C 9.666 1.607,9.049 1.115,8.724 1.006 C 8.543 0.945,8.289 0.950,8.133 1.018 M12.137 1.059 C 11.874 1.190,11.609 1.450,11.510 1.672 C 11.367 1.997,11.451 2.258,11.896 2.875 C 12.290 3.421,12.629 3.981,12.879 4.500 C 13.267 5.301,13.423 5.889,13.482 6.769 C 13.523 7.374,13.574 7.547,13.771 7.751 C 14.090 8.081,14.910 8.081,15.229 7.751 C 15.442 7.531,15.490 7.359,15.486 6.840 C 15.472 5.241,14.868 3.621,13.629 1.856 C 13.274 1.350,13.038 1.097,12.845 1.016 C 12.637 0.929,12.364 0.946,12.137 1.059 M16.745 3.480 C 16.311 3.616,15.931 4.171,15.968 4.615 C 15.995 4.941,16.107 5.079,16.712 5.527 C 18.273 6.685,19.299 8.218,19.768 10.094 C 19.857 10.449,19.964 10.807,20.006 10.890 C 20.047 10.972,20.199 11.132,20.342 11.245 C 20.809 11.612,20.980 11.948,20.980 12.500 C 20.980 12.811,20.965 12.893,20.868 13.100 C 20.728 13.400,20.496 13.641,20.156 13.841 C 20.011 13.927,19.847 14.056,19.792 14.128 C 19.738 14.201,19.615 14.467,19.521 14.720 C 19.091 15.869,18.546 16.741,17.748 17.556 C 16.385 18.947,14.724 19.753,12.792 19.959 C 9.551 20.304,6.299 18.510,4.862 15.586 C 4.742 15.341,4.579 14.960,4.499 14.740 C 4.303 14.194,4.221 14.083,3.811 13.812 C 3.235 13.431,3.022 13.065,3.024 12.458 C 3.025 11.938,3.204 11.621,3.752 11.168 C 3.867 11.073,3.986 10.945,4.018 10.885 C 4.049 10.824,4.138 10.511,4.215 10.190 C 4.682 8.254,5.693 6.725,7.301 5.522 C 7.833 5.123,7.998 4.867,7.937 4.532 C 7.877 4.203,7.581 3.773,7.325 3.642 C 6.870 3.410,6.558 3.531,5.620 4.301 C 4.053 5.587,2.887 7.407,2.338 9.424 C 2.234 9.807,2.221 9.829,1.945 10.123 C 1.034 11.095,0.764 12.504,1.248 13.760 C 1.462 14.313,1.907 14.910,2.361 15.249 C 2.565 15.402,2.652 15.496,2.685 15.599 C 2.710 15.676,2.816 15.929,2.921 16.160 C 4.232 19.048,6.927 21.177,10.054 21.797 C 10.783 21.942,11.167 21.977,12.000 21.977 C 12.854 21.977,13.264 21.937,14.040 21.778 C 16.633 21.248,18.910 19.688,20.397 17.424 C 20.688 16.980,21.236 15.911,21.320 15.620 C 21.356 15.496,21.417 15.424,21.588 15.300 C 22.183 14.869,22.662 14.164,22.892 13.380 C 23.018 12.953,23.014 12.022,22.885 11.580 C 22.711 10.978,22.363 10.387,21.968 10.019 C 21.800 9.862,21.783 9.825,21.619 9.257 C 21.089 7.421,20.169 5.928,18.761 4.624 C 18.378 4.270,17.680 3.736,17.403 3.586 C 17.194 3.473,16.913 3.427,16.745 3.480 M8.614 11.055 C 8.220 11.184,8.039 11.437,8.009 11.900 C 7.978 12.381,8.119 12.699,8.442 12.880 C 8.597 12.967,8.669 12.980,9.000 12.980 C 9.312 12.980,9.408 12.964,9.540 12.894 C 9.866 12.718,10.000 12.459,10.000 12.000 C 10.000 11.357,9.713 11.048,9.083 11.016 C 8.893 11.006,8.718 11.021,8.614 11.055 M14.614 11.055 C 14.220 11.184,14.039 11.437,14.009 11.900 C 13.978 12.381,14.119 12.699,14.442 12.880 C 14.597 12.967,14.669 12.980,15.000 12.980 C 15.312 12.980,15.408 12.964,15.540 12.894 C 15.866 12.718,16.000 12.459,16.000 12.000 C 16.000 11.357,15.713 11.048,15.083 11.016 C 14.893 11.006,14.718 11.021,14.614 11.055 M9.125 15.051 C 9.029 15.100,8.857 15.240,8.743 15.363 C 8.293 15.850,8.345 16.272,8.924 16.820 C 9.439 17.308,9.985 17.627,10.661 17.835 C 11.174 17.993,11.481 18.039,12.000 18.039 C 12.519 18.039,12.826 17.993,13.339 17.835 C 14.015 17.627,14.561 17.308,15.076 16.820 C 15.546 16.376,15.652 16.056,15.464 15.660 C 15.281 15.275,14.852 14.960,14.509 14.960 C 14.239 14.960,14.108 15.027,13.711 15.367 C 13.287 15.730,13.062 15.857,12.657 15.961 C 12.065 16.112,11.314 16.034,10.832 15.772 C 10.722 15.712,10.475 15.529,10.285 15.366 C 10.095 15.202,9.882 15.044,9.811 15.014 C 9.617 14.932,9.327 14.947,9.125 15.051 " stroke="none" fill="black" fill-rule="evenodd"></path></svg>