<svg xmlns="http://www.w3.org/2000/svg" width="24" height="24" viewBox="0 0 24 24" fill="none" stroke="currentColor" stroke-width="2" stroke-linecap="round" stroke-linejoin="round" class="icon icon-tabler icons-tabler-outline icon-tabler-windmill"><path d="M11.614 2.057 C 11.377 2.131,11.212 2.261,11.109 2.453 C 11.021 2.619,11.020 2.635,11.000 4.987 L 10.980 7.354 10.840 7.236 C 10.386 6.850,9.715 6.477,9.114 6.276 C 7.584 5.763,5.952 5.998,4.560 6.932 C 4.136 7.216,3.388 7.978,3.080 8.439 C 2.805 8.850,2.460 9.545,2.326 9.960 C 1.998 10.976,1.904 12.165,2.122 12.559 C 2.230 12.755,2.413 12.898,2.635 12.959 C 2.724 12.984,3.661 13.000,5.074 13.000 L 7.367 13.000 7.210 13.190 C 6.270 14.327,5.838 15.848,6.061 17.240 C 6.251 18.426,6.715 19.321,7.597 20.203 C 8.571 21.178,9.707 21.735,11.140 21.941 C 11.608 22.008,12.159 22.016,12.365 21.959 C 12.586 21.898,12.770 21.755,12.880 21.558 L 12.980 21.380 13.000 19.013 L 13.020 16.646 13.160 16.764 C 14.278 17.713,15.840 18.163,17.240 17.939 C 18.426 17.749,19.321 17.285,20.203 16.403 C 21.203 15.404,21.784 14.183,21.963 12.707 C 22.060 11.910,21.964 11.402,21.678 11.199 C 21.406 11.005,21.340 11.000,18.910 11.000 L 16.632 11.000 16.757 10.850 C 17.723 9.693,18.164 8.166,17.939 6.760 C 17.749 5.575,17.286 4.681,16.403 3.795 C 15.383 2.772,14.112 2.183,12.617 2.042 C 12.060 1.989,11.821 1.992,11.614 2.057 M13.384 4.220 C 14.556 4.613,15.446 5.439,15.816 6.474 C 16.374 8.036,15.592 9.730,13.931 10.557 C 13.659 10.692,13.139 10.880,13.036 10.880 C 13.015 10.880,13.000 9.461,13.000 7.500 C 13.000 5.119,13.013 4.120,13.043 4.120 C 13.067 4.120,13.220 4.165,13.384 4.220 M7.972 8.045 C 9.042 8.210,9.988 8.943,10.534 10.029 C 10.671 10.300,10.880 10.862,10.880 10.957 C 10.880 10.987,9.881 11.000,7.500 11.000 C 5.119 11.000,4.120 10.987,4.120 10.957 C 4.120 10.862,4.329 10.300,4.466 10.029 C 4.686 9.591,4.904 9.291,5.242 8.960 C 5.994 8.224,6.985 7.892,7.972 8.045 M19.880 13.043 C 19.880 13.138,19.671 13.700,19.534 13.971 C 19.093 14.849,18.396 15.500,17.584 15.794 C 17.116 15.963,16.778 16.015,16.323 15.988 C 15.116 15.915,14.073 15.179,13.466 13.971 C 13.329 13.700,13.120 13.138,13.120 13.043 C 13.120 13.013,14.119 13.000,16.500 13.000 C 18.881 13.000,19.880 13.013,19.880 13.043 M11.000 16.500 C 11.000 18.461,10.985 19.880,10.964 19.880 C 10.861 19.880,10.342 19.694,10.075 19.561 C 9.622 19.336,9.296 19.101,8.960 18.758 C 7.340 17.102,7.853 14.560,10.028 13.466 C 10.307 13.326,10.848 13.123,10.950 13.121 C 10.990 13.120,11.000 13.822,11.000 16.500 " stroke="none" fill="black" fill-rule="evenodd"></path></svg>