<svg xmlns="http://www.w3.org/2000/svg" width="24" height="24" viewBox="0 0 24 24" fill="none" stroke="currentColor" stroke-width="2" stroke-linecap="round" stroke-linejoin="round" class="icon icon-tabler icons-tabler-outline icon-tabler-zoom-out-area"><path d="M4.499 2.043 C 3.392 2.229,2.472 3.039,2.118 4.140 C 2.039 4.386,2.026 4.528,2.010 5.300 C 1.998 5.873,2.007 6.238,2.036 6.344 C 2.144 6.748,2.428 6.961,2.896 6.991 C 3.381 7.022,3.699 6.882,3.879 6.558 C 3.973 6.390,3.980 6.336,4.001 5.560 C 4.027 4.632,4.048 4.548,4.321 4.283 C 4.568 4.044,4.760 4.000,5.557 4.000 C 5.922 4.000,6.285 3.981,6.365 3.959 C 6.586 3.898,6.770 3.755,6.880 3.558 C 6.967 3.402,6.980 3.332,6.979 3.000 C 6.978 2.687,6.962 2.591,6.890 2.453 C 6.786 2.256,6.623 2.131,6.371 2.055 C 6.164 1.993,4.848 1.985,4.499 2.043 M9.614 2.057 C 9.377 2.131,9.212 2.261,9.109 2.453 C 9.035 2.592,9.020 2.684,9.020 3.000 C 9.020 3.331,9.033 3.403,9.120 3.558 C 9.230 3.755,9.414 3.898,9.635 3.959 C 9.823 4.012,11.177 4.012,11.365 3.959 C 11.586 3.898,11.770 3.755,11.880 3.558 C 11.967 3.402,11.980 3.332,11.979 3.000 C 11.978 2.687,11.962 2.591,11.890 2.453 C 11.786 2.256,11.623 2.131,11.371 2.055 C 11.126 1.982,9.851 1.983,9.614 2.057 M14.614 2.055 C 14.375 2.133,14.211 2.262,14.109 2.453 C 14.035 2.592,14.020 2.684,14.020 3.000 C 14.020 3.331,14.033 3.403,14.120 3.558 C 14.230 3.755,14.414 3.898,14.635 3.959 C 14.715 3.981,15.078 4.000,15.443 4.000 C 16.259 4.000,16.437 4.043,16.697 4.303 C 16.957 4.563,17.000 4.741,17.000 5.557 C 17.000 5.922,17.019 6.285,17.041 6.365 C 17.148 6.750,17.437 6.962,17.896 6.991 C 18.381 7.022,18.699 6.882,18.880 6.558 C 18.979 6.382,18.980 6.370,18.980 5.420 C 18.980 4.525,18.974 4.440,18.886 4.160 C 18.580 3.180,17.820 2.416,16.861 2.125 C 16.571 2.037,16.455 2.027,15.660 2.014 C 14.997 2.004,14.739 2.014,14.614 2.055 M2.614 9.057 C 2.377 9.131,2.212 9.261,2.109 9.453 C 2.027 9.606,2.019 9.684,2.007 10.405 C 1.999 10.880,2.011 11.252,2.037 11.349 C 2.144 11.748,2.430 11.961,2.896 11.991 C 3.381 12.022,3.699 11.882,3.880 11.558 C 3.978 11.383,3.980 11.364,3.980 10.500 C 3.980 9.667,3.975 9.611,3.891 9.453 C 3.842 9.362,3.746 9.247,3.678 9.199 C 3.414 9.010,2.957 8.950,2.614 9.057 M14.380 9.043 C 11.784 9.299,9.676 11.219,9.115 13.840 C 8.984 14.450,8.984 15.558,9.114 16.160 C 9.639 18.588,11.417 20.365,13.840 20.885 C 14.190 20.960,14.383 20.975,15.000 20.975 C 15.617 20.975,15.810 20.960,16.160 20.885 C 16.915 20.723,17.730 20.391,18.260 20.029 L 18.460 19.892 19.960 21.382 C 20.963 22.378,21.519 22.901,21.637 22.960 C 21.989 23.137,22.354 23.048,22.701 22.701 C 23.048 22.354,23.137 21.989,22.960 21.637 C 22.901 21.519,22.378 20.963,21.382 19.960 L 19.892 18.460 20.029 18.260 C 20.391 17.730,20.723 16.915,20.885 16.160 C 21.015 15.554,21.015 14.446,20.885 13.840 C 20.626 12.631,20.109 11.660,19.269 10.805 C 17.978 9.490,16.230 8.860,14.380 9.043 M15.605 11.058 C 16.855 11.247,17.964 12.042,18.536 13.160 C 18.767 13.611,18.871 13.930,18.942 14.395 C 19.014 14.879,19.014 15.121,18.942 15.605 C 18.691 17.265,17.434 18.579,15.773 18.917 C 13.563 19.368,11.396 17.845,11.058 15.605 C 10.986 15.121,10.986 14.879,11.058 14.395 C 11.314 12.698,12.675 11.324,14.358 11.061 C 14.816 10.990,15.144 10.989,15.605 11.058 M2.614 14.057 C 2.377 14.131,2.212 14.261,2.109 14.453 C 2.024 14.612,2.020 14.664,2.020 15.580 C 2.020 16.475,2.026 16.560,2.114 16.840 C 2.419 17.818,3.164 18.568,4.140 18.882 C 4.386 18.961,4.528 18.974,5.300 18.990 C 5.873 19.002,6.238 18.993,6.344 18.964 C 6.583 18.900,6.766 18.761,6.880 18.558 C 6.967 18.402,6.980 18.332,6.979 18.000 C 6.978 17.572,6.898 17.355,6.686 17.204 C 6.462 17.045,6.353 17.026,5.520 17.003 C 4.721 16.981,4.695 16.977,4.516 16.872 C 4.326 16.760,4.155 16.568,4.072 16.373 C 4.044 16.305,4.015 15.932,4.001 15.440 C 3.979 14.701,3.968 14.604,3.889 14.453 C 3.841 14.362,3.746 14.247,3.678 14.199 C 3.414 14.010,2.957 13.950,2.614 14.057 M12.614 14.057 C 12.377 14.131,12.212 14.261,12.109 14.453 C 12.035 14.592,12.020 14.684,12.020 15.000 C 12.020 15.331,12.033 15.403,12.120 15.558 C 12.230 15.755,12.414 15.898,12.635 15.959 C 12.831 16.014,17.169 16.014,17.365 15.959 C 17.586 15.898,17.770 15.755,17.880 15.558 C 17.967 15.402,17.980 15.332,17.979 15.000 C 17.978 14.567,17.898 14.355,17.678 14.199 C 17.406 14.005,17.336 14.000,14.984 14.003 C 13.293 14.005,12.741 14.017,12.614 14.057 " stroke="none" fill="black" fill-rule="evenodd"></path></svg>