<svg xmlns="http://www.w3.org/2000/svg" width="24" height="24" viewBox="0 0 24 24" fill="none" stroke="currentColor" stroke-width="2" stroke-linecap="round" stroke-linejoin="round" class="icon icon-tabler icons-tabler-outline icon-tabler-scooter"><path d="M14.614 4.055 C 14.375 4.133,14.211 4.262,14.109 4.453 C 14.035 4.592,14.020 4.684,14.020 5.000 C 14.020 5.331,14.033 5.403,14.120 5.558 C 14.230 5.755,14.414 5.898,14.635 5.959 C 14.715 5.981,15.078 6.000,15.443 6.000 C 16.259 6.000,16.437 6.043,16.697 6.303 C 17.003 6.609,17.000 6.584,17.000 9.044 L 17.000 11.193 16.670 11.302 C 14.712 11.946,13.011 13.624,12.337 15.576 L 12.190 16.000 10.522 16.000 L 8.853 16.000 8.688 15.670 C 8.321 14.938,7.642 14.363,6.861 14.125 C 6.588 14.042,6.458 14.027,6.000 14.027 C 5.542 14.027,5.412 14.042,5.139 14.125 C 4.178 14.418,3.419 15.181,3.114 16.160 C 2.979 16.594,2.979 17.406,3.114 17.840 C 3.421 18.826,4.174 19.579,5.160 19.886 C 5.594 20.021,6.406 20.021,6.840 19.886 C 7.640 19.637,8.314 19.072,8.684 18.340 L 8.845 18.020 11.093 18.000 L 13.340 17.980 13.518 17.880 C 13.800 17.722,13.902 17.536,14.037 16.930 C 14.239 16.027,14.539 15.400,15.086 14.740 C 15.255 14.537,15.555 14.237,15.754 14.074 C 16.411 13.535,17.034 13.238,17.930 13.037 C 18.536 12.902,18.722 12.800,18.880 12.518 L 18.980 12.340 18.980 9.400 L 18.980 6.460 18.886 6.160 C 18.580 5.180,17.820 4.416,16.861 4.125 C 16.571 4.037,16.455 4.027,15.660 4.014 C 14.997 4.004,14.739 4.014,14.614 4.055 M17.499 14.040 C 16.363 14.246,15.460 15.049,15.114 16.160 C 14.979 16.594,14.979 17.406,15.114 17.840 C 15.421 18.826,16.174 19.579,17.160 19.886 C 17.594 20.021,18.406 20.021,18.840 19.886 C 19.826 19.579,20.579 18.826,20.886 17.840 C 21.021 17.406,21.021 16.594,20.886 16.160 C 20.581 15.179,19.810 14.407,18.861 14.129 C 18.500 14.023,17.832 13.980,17.499 14.040 M6.334 16.064 C 6.698 16.188,7.000 16.613,7.000 17.001 C 7.000 17.331,6.784 17.696,6.484 17.872 C 6.328 17.963,6.254 17.980,6.000 17.980 C 5.746 17.980,5.672 17.963,5.516 17.872 C 4.937 17.531,4.833 16.774,5.301 16.306 C 5.587 16.019,5.952 15.934,6.334 16.064 M18.334 16.064 C 18.698 16.188,19.000 16.613,19.000 17.001 C 19.000 17.331,18.784 17.696,18.484 17.872 C 18.328 17.963,18.254 17.980,18.000 17.980 C 17.746 17.980,17.672 17.963,17.516 17.872 C 16.937 17.531,16.833 16.774,17.301 16.306 C 17.587 16.019,17.952 15.934,18.334 16.064 " stroke="none" fill="black" fill-rule="evenodd"></path></svg>