<svg xmlns="http://www.w3.org/2000/svg" width="24" height="24" viewBox="0 0 24 24" fill="none" stroke="currentColor" stroke-width="2" stroke-linecap="round" stroke-linejoin="round" class="icon icon-tabler icons-tabler-outline icon-tabler-zodiac-taurus"><path d="M5.614 2.057 C 5.377 2.131,5.212 2.261,5.109 2.453 C 5.029 2.603,5.020 2.675,5.023 3.160 C 5.036 5.466,6.242 7.594,8.304 8.950 C 8.379 8.999,8.379 9.001,8.304 9.050 C 6.518 10.225,5.407 11.920,5.074 13.980 C 5.008 14.393,5.008 15.607,5.074 16.020 C 5.574 19.112,7.888 21.426,10.980 21.926 C 11.392 21.992,12.607 21.992,13.020 21.926 C 16.109 21.428,18.428 19.109,18.926 16.020 C 18.992 15.607,18.992 14.393,18.926 13.980 C 18.594 11.924,17.480 10.223,15.696 9.050 C 15.621 9.001,15.621 8.999,15.696 8.950 C 17.067 8.048,18.053 6.826,18.573 5.380 C 18.858 4.590,18.973 3.956,18.977 3.160 C 18.980 2.675,18.971 2.603,18.891 2.453 C 18.689 2.076,18.138 1.902,17.629 2.055 C 17.179 2.191,17.045 2.408,16.996 3.078 C 16.920 4.130,16.789 4.627,16.398 5.353 C 15.683 6.681,14.466 7.585,12.960 7.907 C 12.489 8.008,11.511 8.008,11.040 7.907 C 10.067 7.699,9.257 7.277,8.563 6.616 C 7.886 5.973,7.385 5.122,7.163 4.240 C 7.076 3.898,7.053 3.728,7.001 3.073 C 6.960 2.550,6.885 2.346,6.678 2.199 C 6.414 2.010,5.957 1.950,5.614 2.057 M12.552 10.043 C 14.413 10.246,16.001 11.479,16.680 13.248 C 17.092 14.320,17.085 15.720,16.663 16.793 C 16.120 18.174,14.991 19.256,13.600 19.732 C 13.044 19.922,12.670 19.980,12.000 19.980 C 11.330 19.980,10.956 19.922,10.400 19.732 C 8.808 19.188,7.580 17.864,7.161 16.240 C 6.920 15.307,6.983 14.125,7.320 13.248 C 8.146 11.096,10.274 9.793,12.552 10.043 " stroke="none" fill="black" fill-rule="evenodd"></path></svg>