<svg xmlns="http://www.w3.org/2000/svg" width="24" height="24" viewBox="0 0 24 24" fill="none" stroke="currentColor" stroke-width="2" stroke-linecap="round" stroke-linejoin="round" class="icon icon-tabler icons-tabler-outline icon-tabler-gender-genderqueer"><path d="M11.614 2.057 C 11.377 2.131,11.212 2.261,11.109 2.453 C 11.027 2.607,11.019 2.683,11.007 3.427 L 10.994 4.234 10.533 3.956 C 9.827 3.529,9.698 3.472,9.443 3.469 C 9.313 3.468,9.168 3.494,9.097 3.531 C 8.838 3.665,8.522 4.126,8.457 4.464 C 8.387 4.831,8.659 5.174,9.340 5.577 C 9.560 5.707,9.809 5.857,9.894 5.910 L 10.048 6.006 9.454 6.363 C 8.793 6.761,8.550 6.980,8.480 7.241 C 8.422 7.456,8.449 7.606,8.602 7.911 C 8.793 8.294,9.139 8.559,9.449 8.560 C 9.605 8.560,9.914 8.417,10.442 8.099 L 11.001 7.762 10.991 8.928 L 10.980 10.093 10.700 10.149 C 10.333 10.223,9.770 10.417,9.420 10.590 C 7.681 11.451,6.521 12.942,6.115 14.840 C 5.984 15.450,5.984 16.558,6.114 17.160 C 6.639 19.588,8.417 21.365,10.840 21.885 C 11.446 22.015,12.554 22.015,13.160 21.885 C 14.397 21.620,15.412 21.068,16.269 20.195 C 17.109 19.340,17.626 18.369,17.885 17.160 C 17.960 16.810,17.975 16.617,17.975 16.000 C 17.975 15.383,17.960 15.190,17.885 14.840 C 17.477 12.936,16.323 11.453,14.580 10.590 C 14.230 10.417,13.667 10.223,13.300 10.149 L 13.020 10.093 13.009 8.947 C 13.004 8.316,13.009 7.800,13.022 7.800 C 13.035 7.800,13.284 7.942,13.576 8.116 C 14.079 8.416,14.397 8.560,14.551 8.560 C 15.082 8.558,15.662 7.769,15.521 7.243 C 15.449 6.976,15.223 6.772,14.565 6.379 C 14.234 6.182,13.963 6.011,13.963 6.000 C 13.963 5.989,14.234 5.818,14.565 5.621 C 15.223 5.228,15.449 5.024,15.521 4.757 C 15.597 4.473,15.458 4.073,15.171 3.756 C 14.974 3.537,14.824 3.467,14.557 3.469 C 14.302 3.472,14.173 3.529,13.468 3.955 L 13.007 4.234 12.993 3.427 C 12.980 2.686,12.971 2.606,12.890 2.453 C 12.842 2.362,12.746 2.247,12.678 2.199 C 12.414 2.010,11.957 1.950,11.614 2.057 M12.605 12.058 C 13.855 12.247,14.964 13.042,15.536 14.160 C 15.767 14.611,15.871 14.930,15.942 15.395 C 16.014 15.879,16.014 16.121,15.942 16.605 C 15.691 18.265,14.434 19.579,12.773 19.917 C 10.563 20.368,8.396 18.845,8.058 16.605 C 7.986 16.121,7.986 15.879,8.058 15.395 C 8.314 13.698,9.675 12.324,11.358 12.061 C 11.816 11.990,12.144 11.989,12.605 12.058 " stroke="none" fill="black" fill-rule="evenodd"></path></svg>