<svg xmlns="http://www.w3.org/2000/svg" width="24" height="24" viewBox="0 0 24 24" fill="none" stroke="currentColor" stroke-width="2" stroke-linecap="round" stroke-linejoin="round" class="icon icon-tabler icons-tabler-outline icon-tabler-mood-dollar"><path d="M11.400 2.027 C 9.517 2.162,7.966 2.685,6.440 3.699 C 5.504 4.322,4.678 5.101,4.023 5.980 C 3.556 6.606,3.353 6.937,3.019 7.620 C 2.381 8.923,2.059 10.215,2.013 11.660 C 1.985 12.515,2.037 13.140,2.203 13.980 C 3.149 18.741,7.453 22.149,12.318 21.987 C 13.360 21.953,13.680 21.851,13.895 21.484 C 14.077 21.172,13.983 20.429,13.732 20.194 C 13.502 19.980,13.503 19.980,12.260 19.978 C 11.250 19.977,11.043 19.966,10.660 19.892 C 9.296 19.630,8.145 19.124,7.100 18.326 C 6.761 18.066,6.075 17.394,5.789 17.040 C 3.396 14.078,3.417 9.858,5.838 6.904 C 6.118 6.561,6.770 5.927,7.100 5.674 C 8.053 4.946,9.203 4.417,10.352 4.178 C 13.948 3.429,17.563 5.199,19.183 8.500 C 19.484 9.114,19.668 9.653,19.838 10.420 C 19.980 11.064,20.079 11.248,20.359 11.390 C 20.697 11.561,21.299 11.482,21.587 11.229 C 21.889 10.963,21.936 10.687,21.796 9.996 C 21.490 8.486,20.780 6.974,19.800 5.740 C 19.445 5.294,18.695 4.551,18.225 4.180 C 16.274 2.640,13.787 1.856,11.400 2.027 M8.614 9.055 C 8.220 9.184,8.039 9.437,8.009 9.900 C 7.978 10.381,8.119 10.699,8.442 10.880 C 8.597 10.967,8.669 10.980,9.000 10.980 C 9.312 10.980,9.408 10.964,9.540 10.894 C 9.866 10.718,10.000 10.459,10.000 10.000 C 10.000 9.357,9.713 9.048,9.083 9.016 C 8.893 9.006,8.718 9.021,8.614 9.055 M14.614 9.055 C 14.220 9.184,14.039 9.437,14.009 9.900 C 13.978 10.381,14.119 10.699,14.442 10.880 C 14.597 10.967,14.669 10.980,15.000 10.980 C 15.312 10.980,15.408 10.964,15.540 10.894 C 15.866 10.718,16.000 10.459,16.000 10.000 C 16.000 9.357,15.713 9.048,15.083 9.016 C 14.893 9.006,14.718 9.021,14.614 9.055 M18.614 13.057 C 18.250 13.171,18.061 13.411,18.008 13.826 L 17.980 14.049 17.759 14.118 C 17.003 14.351,16.361 14.979,16.118 15.722 C 16.034 15.976,16.020 16.094,16.022 16.520 C 16.024 16.960,16.038 17.056,16.133 17.320 C 16.394 18.039,16.964 18.609,17.680 18.867 C 17.961 18.968,18.033 18.976,18.800 18.992 C 19.702 19.010,19.786 19.030,19.922 19.252 C 20.021 19.415,20.021 19.585,19.922 19.748 C 19.770 19.997,19.750 20.000,18.208 20.000 C 16.724 20.000,16.580 20.015,16.322 20.199 C 16.100 20.357,16.020 20.568,16.020 21.000 C 16.020 21.331,16.033 21.403,16.120 21.558 C 16.230 21.755,16.414 21.898,16.635 21.959 C 16.715 21.981,17.052 22.000,17.384 22.000 L 17.989 22.000 18.013 22.203 C 18.074 22.715,18.426 23.000,19.000 23.000 C 19.582 23.000,19.923 22.720,19.984 22.193 L 20.010 21.966 20.294 21.873 C 21.001 21.642,21.605 21.046,21.868 20.320 C 21.965 20.052,21.976 19.965,21.976 19.500 C 21.976 19.035,21.965 18.948,21.868 18.680 C 21.646 18.068,21.195 17.561,20.620 17.277 C 20.172 17.055,19.869 17.002,19.068 17.001 C 18.319 17.000,18.216 16.974,18.078 16.748 C 17.979 16.585,17.979 16.415,18.078 16.252 C 18.230 16.003,18.249 16.000,19.808 16.000 C 20.630 16.000,21.280 15.983,21.365 15.959 C 21.586 15.898,21.770 15.755,21.880 15.558 C 21.967 15.402,21.980 15.332,21.979 15.000 C 21.978 14.687,21.962 14.591,21.890 14.453 C 21.702 14.098,21.423 14.000,20.599 14.000 L 20.010 14.000 19.983 13.794 C 19.948 13.531,19.835 13.310,19.678 13.199 C 19.414 13.010,18.957 12.950,18.614 13.057 M9.171 14.019 C 8.968 14.108,8.637 14.440,8.535 14.660 C 8.351 15.052,8.423 15.307,8.838 15.723 C 9.938 16.827,11.637 17.258,13.213 16.834 C 13.969 16.630,14.227 16.159,13.961 15.467 C 13.734 14.875,13.412 14.744,12.618 14.919 C 11.732 15.115,10.969 14.933,10.297 14.366 C 10.141 14.235,9.943 14.090,9.857 14.044 C 9.674 13.946,9.365 13.935,9.171 14.019 " stroke="none" fill="black" fill-rule="evenodd"></path></svg>