<svg xmlns="http://www.w3.org/2000/svg" width="24" height="24" viewBox="0 0 24 24" fill="none" stroke="currentColor" stroke-width="2" stroke-linecap="round" stroke-linejoin="round" class="icon icon-tabler icons-tabler-outline icon-tabler-file-diff"><path d="M6.499 2.043 C 5.383 2.230,4.461 3.048,4.114 4.160 L 4.020 4.460 4.020 12.000 L 4.020 19.540 4.114 19.840 C 4.422 20.827,5.173 21.578,6.160 21.886 L 6.460 21.980 12.000 21.980 L 17.540 21.980 17.840 21.886 C 18.827 21.578,19.578 20.827,19.886 19.840 L 19.980 19.540 19.980 13.580 L 19.980 7.620 19.890 7.452 C 19.841 7.360,19.724 7.231,19.630 7.165 C 19.498 7.073,15.263 2.838,14.719 2.254 C 14.473 1.991,14.626 2.000,10.463 2.005 C 8.393 2.007,6.609 2.025,6.499 2.043 M13.000 5.632 C 13.000 7.399,13.010 7.507,13.225 7.930 C 13.361 8.199,13.801 8.639,14.070 8.775 C 14.493 8.990,14.601 9.000,16.368 9.000 L 18.000 9.000 18.000 14.054 C 18.000 18.220,17.990 19.139,17.945 19.290 C 17.872 19.533,17.707 19.740,17.484 19.872 L 17.300 19.980 12.000 19.980 L 6.700 19.980 6.516 19.872 C 6.415 19.813,6.284 19.700,6.225 19.623 C 5.986 19.309,6.000 19.795,6.000 12.022 C 6.000 4.005,5.975 4.631,6.304 4.303 C 6.613 3.994,6.464 4.006,9.930 4.003 L 13.000 4.000 13.000 5.632 M15.800 6.220 L 16.579 7.000 15.790 7.000 L 15.000 7.000 15.000 6.220 C 15.000 5.791,15.005 5.440,15.010 5.440 C 15.016 5.440,15.371 5.791,15.800 6.220 M11.614 9.057 C 11.377 9.131,11.212 9.261,11.109 9.453 C 11.029 9.603,11.019 9.689,11.007 10.310 L 10.993 11.000 10.403 11.000 C 9.577 11.000,9.299 11.097,9.109 11.453 C 9.035 11.592,9.020 11.684,9.020 12.000 C 9.020 12.331,9.033 12.403,9.120 12.558 C 9.230 12.755,9.414 12.898,9.635 12.959 C 9.715 12.981,10.055 13.000,10.390 13.000 L 11.000 13.000 11.000 13.610 C 11.000 13.945,11.019 14.285,11.041 14.365 C 11.148 14.750,11.437 14.962,11.896 14.991 C 12.381 15.022,12.699 14.882,12.880 14.558 C 12.974 14.391,12.981 14.338,12.994 13.690 L 13.008 13.000 13.614 13.000 C 13.947 13.000,14.285 12.981,14.365 12.959 C 14.586 12.898,14.770 12.755,14.880 12.558 C 14.967 12.402,14.980 12.332,14.979 12.000 C 14.978 11.687,14.962 11.591,14.890 11.453 C 14.702 11.098,14.423 11.000,13.598 11.000 L 13.008 11.000 12.993 10.310 C 12.976 9.541,12.930 9.378,12.678 9.199 C 12.414 9.010,11.957 8.950,11.614 9.057 M9.614 16.057 C 9.377 16.131,9.212 16.261,9.109 16.453 C 9.035 16.592,9.020 16.684,9.020 17.000 C 9.020 17.331,9.033 17.403,9.120 17.558 C 9.230 17.755,9.414 17.898,9.635 17.959 C 9.831 18.014,14.169 18.014,14.365 17.959 C 14.586 17.898,14.770 17.755,14.880 17.558 C 14.967 17.402,14.980 17.332,14.979 17.000 C 14.978 16.567,14.898 16.355,14.678 16.199 C 14.406 16.005,14.336 16.000,11.984 16.003 C 10.293 16.005,9.741 16.017,9.614 16.057 " stroke="none" fill="black" fill-rule="evenodd"></path></svg>