<svg xmlns="http://www.w3.org/2000/svg" width="24" height="24" viewBox="0 0 24 24" fill="none" stroke="currentColor" stroke-width="2" stroke-linecap="round" stroke-linejoin="round" class="icon icon-tabler icons-tabler-outline icon-tabler-hexagonal-pyramid-off"><path d="M11.746 1.006 C 11.498 1.043,11.076 1.212,10.858 1.361 C 10.765 1.426,10.612 1.564,10.520 1.669 C 10.345 1.867,8.627 4.660,8.454 5.029 C 8.214 5.538,8.410 6.001,8.991 6.295 C 9.244 6.424,9.434 6.457,9.622 6.404 C 9.707 6.381,9.780 6.367,9.786 6.372 C 9.791 6.378,9.776 6.499,9.753 6.641 C 9.665 7.167,9.894 7.517,10.434 7.681 C 10.978 7.846,11.384 7.719,11.584 7.320 C 11.634 7.221,11.743 6.884,11.826 6.570 C 11.909 6.256,11.987 6.000,12.000 6.000 C 12.012 6.000,12.290 7.012,12.617 8.248 C 12.944 9.485,13.235 10.555,13.265 10.627 C 13.351 10.832,13.548 11.029,13.742 11.103 C 14.145 11.257,14.819 11.042,15.044 10.688 C 15.235 10.386,15.217 10.247,14.758 8.505 C 14.537 7.666,14.347 6.953,14.336 6.920 C 14.323 6.882,14.329 6.875,14.351 6.900 C 14.444 7.003,19.860 15.991,19.932 16.162 C 20.010 16.346,20.012 16.379,19.963 16.730 C 19.873 17.392,20.036 17.690,20.591 17.877 C 21.058 18.034,21.478 17.954,21.698 17.666 C 21.897 17.405,21.974 17.082,21.977 16.500 C 21.979 15.938,21.910 15.617,21.692 15.181 C 21.636 15.070,19.807 12.028,17.626 8.421 C 14.088 2.571,13.632 1.834,13.400 1.600 C 12.949 1.146,12.321 0.920,11.746 1.006 M2.626 2.045 C 2.420 2.154,2.146 2.433,2.038 2.644 C 1.924 2.868,1.924 3.132,2.040 3.363 C 2.101 3.486,2.815 4.228,4.370 5.787 L 6.612 8.033 4.452 11.607 C 3.264 13.572,2.256 15.270,2.210 15.380 C 2.054 15.760,1.987 16.178,2.012 16.616 C 2.051 17.320,2.247 17.838,2.670 18.360 C 2.932 18.683,5.382 21.132,5.680 21.369 C 5.940 21.575,6.335 21.780,6.680 21.887 L 6.980 21.980 12.000 21.980 L 17.020 21.980 17.320 21.887 C 17.875 21.715,18.213 21.495,18.831 20.904 L 19.162 20.587 19.811 21.228 C 20.188 21.601,20.534 21.907,20.637 21.959 C 20.988 22.137,21.354 22.049,21.701 21.701 C 22.048 21.354,22.137 20.989,21.960 20.637 C 21.898 20.514,21.017 19.601,19.070 17.640 C 17.529 16.089,16.257 14.809,16.244 14.796 C 16.231 14.784,13.394 11.954,9.940 8.508 C 6.486 5.063,3.615 2.210,3.560 2.168 C 3.264 1.942,2.910 1.895,2.626 2.045 M8.447 9.870 L 8.793 10.220 7.638 14.580 C 7.003 16.978,6.462 19.018,6.436 19.114 L 6.388 19.287 5.311 18.214 C 4.719 17.623,4.187 17.060,4.129 16.962 C 3.994 16.735,3.978 16.303,4.096 16.080 C 4.247 15.793,8.056 9.520,8.078 9.520 C 8.091 9.520,8.257 9.678,8.447 9.870 M12.585 14.010 L 14.710 16.140 15.198 18.000 C 15.466 19.023,15.694 19.892,15.705 19.930 C 15.724 19.996,15.529 20.000,12.000 20.000 C 8.839 20.000,8.276 19.992,8.287 19.944 C 8.385 19.523,10.426 11.880,10.440 11.880 C 10.451 11.880,11.417 12.838,12.585 14.010 M17.678 19.222 C 17.629 19.282,17.619 19.275,17.575 19.154 C 17.501 18.951,17.510 18.932,17.627 19.049 C 17.720 19.142,17.727 19.164,17.678 19.222 " stroke="none" fill="black" fill-rule="evenodd"></path></svg>