<svg xmlns="http://www.w3.org/2000/svg" width="24" height="24" viewBox="0 0 24 24" fill="none" stroke="currentColor" stroke-width="2" stroke-linecap="round" stroke-linejoin="round" class="icon icon-tabler icons-tabler-outline icon-tabler-arrow-back-up"><path d="M8.620 5.046 C 8.525 5.095,7.652 5.932,6.460 7.118 C 5.360 8.213,4.399 9.150,4.324 9.201 C 4.149 9.321,3.951 9.745,3.951 10.000 C 3.951 10.239,4.150 10.682,4.304 10.784 C 4.366 10.826,5.327 11.763,6.439 12.866 C 7.818 14.234,8.516 14.899,8.637 14.960 C 8.989 15.137,9.354 15.048,9.701 14.701 C 10.048 14.354,10.137 13.989,9.960 13.637 C 9.901 13.521,9.451 13.038,8.646 12.229 L 7.421 10.998 11.980 11.009 L 16.540 11.020 16.861 11.121 C 17.825 11.426,18.585 12.187,18.875 13.139 C 18.958 13.412,18.973 13.542,18.973 14.000 C 18.973 14.458,18.958 14.588,18.875 14.861 C 18.585 15.813,17.826 16.573,16.860 16.881 C 16.615 16.959,16.460 16.974,15.619 16.995 C 14.690 17.019,14.651 17.023,14.459 17.122 C 14.119 17.297,13.978 17.606,14.009 18.104 C 14.039 18.572,14.252 18.856,14.655 18.964 C 14.909 19.032,16.623 18.987,17.000 18.902 C 18.514 18.560,19.756 17.615,20.433 16.288 C 20.838 15.494,20.980 14.899,20.980 14.000 C 20.980 13.101,20.838 12.506,20.433 11.713 C 19.794 10.461,18.604 9.510,17.240 9.162 C 16.650 9.011,16.283 9.000,11.793 9.000 L 7.423 9.000 8.647 7.770 C 9.452 6.961,9.901 6.479,9.960 6.363 C 10.137 6.011,10.048 5.646,9.701 5.299 C 9.361 4.959,8.967 4.867,8.620 5.046 " stroke="none" fill="black" fill-rule="evenodd"></path></svg>