<svg xmlns="http://www.w3.org/2000/svg" width="24" height="24" viewBox="0 0 24 24" fill="none" stroke="currentColor" stroke-width="2" stroke-linecap="round" stroke-linejoin="round" class="icon icon-tabler icons-tabler-outline icon-tabler-chart-pie-3"><path d="M11.080 2.045 C 9.507 2.184,7.883 2.751,6.540 3.630 C 5.905 4.045,5.499 4.378,4.919 4.958 C 2.953 6.926,1.919 9.544,2.013 12.320 C 2.084 14.439,2.752 16.328,4.033 18.040 C 4.430 18.570,5.305 19.464,5.800 19.847 C 7.242 20.961,8.787 21.624,10.600 21.907 C 11.247 22.008,12.753 22.008,13.400 21.907 C 15.638 21.557,17.504 20.620,19.062 19.062 C 20.620 17.504,21.557 15.638,21.907 13.400 C 22.008 12.753,22.008 11.247,21.907 10.600 C 21.624 8.786,20.959 7.238,19.847 5.800 C 19.510 5.365,18.639 4.494,18.200 4.154 C 16.133 2.555,13.646 1.818,11.080 2.045 M11.000 7.810 L 10.999 11.540 8.150 13.950 L 5.300 16.359 5.231 16.270 C 5.070 16.062,4.547 14.944,4.403 14.498 C 3.482 11.664,4.191 8.585,6.256 6.446 C 7.356 5.306,8.815 4.496,10.340 4.177 C 10.582 4.127,10.830 4.084,10.890 4.083 L 11.000 4.080 11.000 7.810 M13.586 4.163 C 14.494 4.338,15.587 4.786,16.380 5.309 C 17.879 6.296,19.047 7.820,19.597 9.502 C 19.740 9.942,19.920 10.731,19.920 10.922 C 19.920 10.999,19.863 11.000,16.460 11.000 L 13.000 11.000 13.000 7.540 C 13.000 4.137,13.001 4.080,13.078 4.080 C 13.121 4.080,13.349 4.117,13.586 4.163 M19.920 13.078 C 19.920 13.270,19.740 14.058,19.596 14.497 C 19.190 15.734,18.467 16.872,17.496 17.801 C 15.615 19.601,12.959 20.360,10.380 19.833 C 9.158 19.584,7.828 18.942,6.867 18.137 L 6.593 17.908 6.707 17.798 C 6.769 17.737,8.068 16.633,9.593 15.344 L 12.365 13.000 16.143 13.000 C 19.861 13.000,19.920 13.001,19.920 13.078 " stroke="none" fill="black" fill-rule="evenodd"></path></svg>