<svg xmlns="http://www.w3.org/2000/svg" width="24" height="24" viewBox="0 0 24 24" fill="none" stroke="currentColor" stroke-width="2" stroke-linecap="round" stroke-linejoin="round" class="icon icon-tabler icons-tabler-outline icon-tabler-star"><path d="M11.563 1.048 C 11.466 1.100,11.336 1.205,11.275 1.282 C 11.214 1.358,10.506 2.752,9.701 4.380 L 8.239 7.340 5.029 7.807 C 3.264 8.064,1.755 8.293,1.676 8.317 C 1.327 8.420,0.960 8.904,0.960 9.260 C 0.960 9.629,0.995 9.669,3.536 12.139 C 4.847 13.414,5.920 14.473,5.920 14.493 C 5.920 14.513,5.677 15.946,5.380 17.677 C 5.083 19.409,4.840 20.914,4.840 21.023 C 4.841 21.382,5.114 21.826,5.418 21.965 C 5.635 22.063,5.853 22.057,6.124 21.946 C 6.247 21.895,7.620 21.185,9.174 20.368 L 12.000 18.882 14.841 20.380 C 16.404 21.204,17.768 21.907,17.871 21.943 C 18.346 22.105,19.002 21.820,19.120 21.400 C 19.142 21.323,19.160 21.180,19.160 21.082 C 19.160 20.984,18.917 19.489,18.620 17.760 C 18.323 16.031,18.080 14.578,18.080 14.533 C 18.080 14.475,18.750 13.798,20.230 12.360 C 21.413 11.211,22.477 10.170,22.596 10.047 C 22.879 9.754,22.973 9.539,22.974 9.180 C 22.976 8.729,22.779 8.455,22.360 8.325 C 22.237 8.287,15.944 7.360,15.808 7.360 C 15.765 7.360,14.097 4.045,13.076 1.931 C 12.818 1.397,12.674 1.222,12.376 1.082 C 12.081 0.943,11.781 0.931,11.563 1.048 M13.132 6.570 C 14.355 9.041,14.389 9.097,14.747 9.198 C 14.831 9.221,15.971 9.395,17.280 9.583 C 18.589 9.771,19.692 9.938,19.731 9.953 C 19.787 9.974,19.426 10.346,17.980 11.754 C 16.792 12.910,16.128 13.585,16.072 13.694 C 16.007 13.820,15.988 13.923,15.992 14.120 C 15.996 14.263,16.185 15.451,16.413 16.760 C 16.640 18.069,16.824 19.144,16.821 19.149 C 16.817 19.155,15.799 18.624,14.557 17.969 L 12.300 16.780 12.000 16.780 L 11.700 16.780 9.441 17.968 C 8.199 18.621,7.178 19.151,7.173 19.146 C 7.168 19.141,7.352 18.040,7.582 16.698 C 7.812 15.357,8.000 14.178,8.000 14.078 C 8.000 13.704,7.933 13.627,5.996 11.741 C 4.499 10.285,4.203 9.979,4.265 9.954 C 4.306 9.938,5.420 9.769,6.740 9.579 C 9.299 9.211,9.421 9.184,9.634 8.941 C 9.732 8.829,11.185 5.951,11.769 4.710 C 11.881 4.474,11.978 4.280,11.985 4.280 C 11.993 4.280,12.509 5.310,13.132 6.570 " stroke="none" fill="black" fill-rule="evenodd"></path></svg>