<svg xmlns="http://www.w3.org/2000/svg" width="24" height="24" viewBox="0 0 24 24" fill="none" stroke="currentColor" stroke-width="2" stroke-linecap="round" stroke-linejoin="round" class="icon icon-tabler icons-tabler-outline icon-tabler-brand-polymer"><path d="M6.333 5.016 C 6.263 5.048,6.137 5.145,6.053 5.233 C 5.915 5.377,2.306 11.172,2.090 11.597 C 1.958 11.856,1.967 12.169,2.114 12.446 C 2.329 12.851,5.886 18.580,5.993 18.694 C 6.236 18.952,6.345 18.979,7.193 18.993 C 7.959 19.006,7.968 19.005,8.181 18.901 C 8.300 18.843,8.442 18.742,8.497 18.676 C 8.552 18.611,10.428 15.964,12.664 12.795 C 15.931 8.167,16.741 7.044,16.780 7.087 C 16.857 7.171,19.800 11.959,19.800 12.000 C 19.800 12.020,19.046 13.257,18.125 14.749 C 17.204 16.240,16.409 17.541,16.358 17.640 C 16.291 17.768,16.264 17.890,16.262 18.063 C 16.260 18.357,16.378 18.564,16.671 18.779 C 17.199 19.166,17.726 19.110,18.069 18.629 C 18.273 18.341,21.887 12.474,21.945 12.334 C 22.039 12.110,22.015 11.797,21.886 11.554 C 21.671 11.149,18.114 5.420,18.007 5.306 C 17.948 5.244,17.828 5.154,17.740 5.106 C 17.591 5.026,17.524 5.020,16.760 5.020 L 15.940 5.020 15.748 5.133 C 15.624 5.206,15.482 5.346,15.345 5.533 C 15.229 5.691,13.365 8.328,11.202 11.393 C 9.039 14.458,7.255 16.951,7.237 16.933 C 7.177 16.873,4.200 12.037,4.200 12.000 C 4.200 11.979,4.960 10.734,5.888 9.231 C 6.817 7.729,7.617 6.401,7.667 6.280 C 7.781 6.005,7.783 5.833,7.676 5.613 C 7.456 5.158,6.731 4.836,6.333 5.016 " stroke="none" fill="black" fill-rule="evenodd"></path></svg>