<svg xmlns="http://www.w3.org/2000/svg" width="24" height="24" viewBox="0 0 24 24" fill="none" stroke="currentColor" stroke-width="2" stroke-linecap="round" stroke-linejoin="round" class="icon icon-tabler icons-tabler-outline icon-tabler-license"><path d="M7.358 2.061 C 5.728 2.317,4.417 3.584,4.083 5.227 C 4.002 5.624,4.000 5.736,4.000 10.813 L 4.000 15.993 3.329 16.007 C 2.701 16.019,2.645 16.027,2.459 16.122 C 2.245 16.233,2.105 16.404,2.041 16.635 C 2.019 16.715,2.000 17.137,2.000 17.574 C 2.000 18.219,2.015 18.443,2.083 18.773 C 2.311 19.892,2.985 20.851,3.956 21.436 C 4.287 21.636,4.810 21.832,5.248 21.922 C 5.633 22.000,5.767 22.002,10.611 21.991 L 15.580 21.980 15.860 21.886 C 16.840 21.557,17.557 20.840,17.886 19.860 L 17.980 19.580 17.991 13.795 L 18.002 8.009 18.791 7.990 C 19.464 7.974,19.621 7.958,19.860 7.882 C 20.835 7.570,21.582 6.817,21.886 5.840 C 22.021 5.406,22.021 4.594,21.886 4.160 C 21.582 3.183,20.832 2.428,19.861 2.121 L 19.540 2.020 13.620 2.013 C 8.837 2.008,7.634 2.017,7.358 2.061 M16.160 4.010 C 16.159 4.016,16.128 4.110,16.090 4.220 C 16.025 4.406,16.019 4.926,16.000 11.840 C 15.984 17.658,15.969 19.284,15.930 19.373 C 15.842 19.572,15.672 19.761,15.484 19.872 C 15.328 19.963,15.254 19.980,15.000 19.980 C 14.746 19.980,14.672 19.963,14.516 19.872 C 14.327 19.761,14.157 19.570,14.071 19.373 C 14.037 19.295,14.015 18.854,14.001 17.940 C 13.981 16.672,13.976 16.613,13.891 16.453 C 13.842 16.362,13.746 16.247,13.678 16.199 C 13.396 15.998,13.439 16.000,9.594 16.000 L 6.000 16.000 6.000 10.898 C 6.000 5.232,5.989 5.474,6.265 5.014 C 6.546 4.543,6.988 4.201,7.477 4.073 C 7.717 4.011,8.104 4.004,11.950 4.002 C 14.266 4.001,16.160 4.005,16.160 4.010 M19.310 4.061 C 19.688 4.173,20.000 4.598,20.000 5.001 C 20.000 5.331,19.784 5.696,19.484 5.872 C 19.308 5.975,19.272 5.981,18.650 5.993 L 18.000 6.007 18.000 5.451 C 18.000 4.750,18.052 4.555,18.304 4.303 C 18.583 4.024,18.916 3.944,19.310 4.061 M8.614 6.057 C 8.377 6.131,8.212 6.261,8.109 6.453 C 8.035 6.592,8.020 6.684,8.020 7.000 C 8.020 7.331,8.033 7.403,8.120 7.558 C 8.230 7.755,8.414 7.898,8.635 7.959 C 8.831 8.014,13.169 8.014,13.365 7.959 C 13.586 7.898,13.770 7.755,13.880 7.558 C 13.967 7.402,13.980 7.332,13.979 7.000 C 13.978 6.567,13.898 6.355,13.678 6.199 C 13.406 6.005,13.336 6.000,10.984 6.003 C 9.293 6.005,8.741 6.017,8.614 6.057 M8.614 10.057 C 8.377 10.131,8.212 10.261,8.109 10.453 C 8.035 10.592,8.020 10.684,8.020 11.000 C 8.020 11.331,8.033 11.403,8.120 11.558 C 8.230 11.755,8.414 11.898,8.635 11.959 C 8.831 12.014,13.169 12.014,13.365 11.959 C 13.586 11.898,13.770 11.755,13.880 11.558 C 13.967 11.402,13.980 11.332,13.979 11.000 C 13.978 10.567,13.898 10.355,13.678 10.199 C 13.406 10.005,13.336 10.000,10.984 10.003 C 9.293 10.005,8.741 10.017,8.614 10.057 M12.010 18.790 C 12.024 19.365,12.047 19.634,12.094 19.780 C 12.130 19.890,12.159 19.985,12.160 19.990 C 12.160 19.995,10.715 20.000,8.948 20.000 C 5.472 20.000,5.519 20.003,5.083 19.781 C 4.816 19.646,4.449 19.297,4.281 19.017 C 4.138 18.780,4.006 18.360,4.002 18.130 L 4.000 18.000 7.995 18.000 L 11.991 18.000 12.010 18.790 " stroke="none" fill="black" fill-rule="evenodd"></path></svg>