<svg xmlns="http://www.w3.org/2000/svg" width="24" height="24" viewBox="0 0 24 24" fill="none" stroke="currentColor" stroke-width="2" stroke-linecap="round" stroke-linejoin="round" class="icon icon-tabler icons-tabler-outline icon-tabler-brand-twitch"><path d="M4.477 3.073 C 3.806 3.249,3.238 3.823,3.060 4.508 C 2.970 4.853,2.970 16.147,3.060 16.492 C 3.153 16.852,3.310 17.118,3.596 17.404 C 4.073 17.881,4.426 18.000,5.368 18.000 L 6.000 18.000 6.000 19.610 C 6.000 20.565,6.017 21.279,6.041 21.365 C 6.102 21.586,6.245 21.770,6.442 21.880 C 6.593 21.965,6.672 21.980,6.960 21.980 C 7.258 21.980,7.322 21.967,7.480 21.873 C 7.579 21.813,8.506 20.918,9.540 19.883 L 11.420 18.000 14.108 18.000 C 15.911 18.000,16.866 17.985,17.008 17.956 C 17.125 17.932,17.337 17.857,17.480 17.789 C 17.712 17.679,17.896 17.510,19.202 16.203 C 20.765 14.640,20.802 14.594,20.939 14.062 C 20.992 13.854,21.000 13.235,20.998 9.282 C 20.995 4.218,21.008 4.463,20.719 3.983 C 20.552 3.706,20.213 3.382,19.929 3.228 C 19.492 2.992,19.835 3.001,11.960 3.003 C 5.267 3.004,4.721 3.010,4.477 3.073 M19.000 9.290 L 19.000 13.580 17.790 14.790 L 16.580 16.000 13.738 16.000 C 11.243 16.000,10.868 16.008,10.677 16.064 C 10.472 16.125,10.390 16.199,9.233 17.349 L 8.006 18.570 7.993 17.595 C 7.981 16.677,7.975 16.610,7.891 16.453 C 7.842 16.362,7.746 16.247,7.678 16.199 C 7.430 16.022,7.256 16.000,6.094 16.000 L 5.000 16.000 5.000 10.500 L 5.000 5.000 12.000 5.000 L 19.000 5.000 19.000 9.290 M11.614 7.057 C 11.377 7.131,11.212 7.261,11.109 7.453 C 11.020 7.619,11.020 7.629,11.009 9.911 C 11.001 11.392,11.012 12.256,11.039 12.355 C 11.144 12.747,11.433 12.961,11.896 12.991 C 12.381 13.022,12.699 12.882,12.880 12.558 L 12.980 12.380 12.980 10.000 L 12.980 7.620 12.891 7.453 C 12.842 7.362,12.746 7.247,12.678 7.199 C 12.414 7.010,11.957 6.950,11.614 7.057 M15.614 7.057 C 15.377 7.131,15.212 7.261,15.109 7.453 C 15.020 7.619,15.020 7.629,15.009 9.911 C 15.001 11.392,15.012 12.256,15.039 12.355 C 15.144 12.747,15.433 12.961,15.896 12.991 C 16.381 13.022,16.699 12.882,16.880 12.558 L 16.980 12.380 16.980 10.000 L 16.980 7.620 16.891 7.453 C 16.842 7.362,16.746 7.247,16.678 7.199 C 16.414 7.010,15.957 6.950,15.614 7.057 " stroke="none" fill="black" fill-rule="evenodd"></path></svg>