<svg xmlns="http://www.w3.org/2000/svg" width="24" height="24" viewBox="0 0 24 24" fill="none" stroke="currentColor" stroke-width="2" stroke-linecap="round" stroke-linejoin="round" class="icon icon-tabler icons-tabler-outline icon-tabler-bed-flat"><path d="M9.614 7.057 C 9.377 7.131,9.212 7.261,9.109 7.453 L 9.020 7.620 9.020 10.500 L 9.020 13.380 9.120 13.558 C 9.230 13.755,9.414 13.898,9.635 13.959 C 9.834 14.015,21.166 14.015,21.365 13.959 C 21.586 13.898,21.770 13.755,21.880 13.558 L 21.980 13.380 21.992 12.018 C 22.006 10.479,21.971 10.175,21.705 9.516 C 21.172 8.197,20.001 7.269,18.605 7.058 C 18.066 6.977,9.873 6.976,9.614 7.057 M4.499 8.040 C 3.363 8.246,2.460 9.049,2.114 10.160 C 1.979 10.594,1.979 11.406,2.114 11.840 C 2.421 12.826,3.174 13.579,4.160 13.886 C 4.594 14.021,5.406 14.021,5.840 13.886 C 6.826 13.579,7.579 12.826,7.886 11.840 C 8.021 11.406,8.021 10.594,7.886 10.160 C 7.581 9.179,6.810 8.407,5.861 8.129 C 5.500 8.023,4.832 7.980,4.499 8.040 M18.523 9.073 C 18.866 9.163,19.198 9.366,19.454 9.642 C 19.883 10.105,19.998 10.479,19.999 11.410 L 20.000 12.000 15.500 12.000 L 11.000 12.000 11.000 10.500 L 11.000 9.000 14.630 9.002 C 17.928 9.004,18.284 9.011,18.523 9.073 M5.310 10.061 C 5.688 10.173,6.000 10.598,6.000 11.001 C 6.000 11.331,5.784 11.696,5.484 11.872 C 5.328 11.963,5.254 11.980,5.000 11.980 C 4.746 11.980,4.672 11.963,4.516 11.872 C 3.935 11.530,3.833 10.774,4.304 10.303 C 4.583 10.024,4.916 9.944,5.310 10.061 M2.614 15.057 C 2.377 15.131,2.212 15.261,2.109 15.453 C 2.035 15.592,2.020 15.684,2.020 16.000 C 2.020 16.331,2.033 16.403,2.120 16.558 C 2.230 16.755,2.414 16.898,2.635 16.959 C 2.835 17.015,21.165 17.015,21.365 16.959 C 21.586 16.898,21.770 16.755,21.880 16.558 C 21.967 16.402,21.980 16.332,21.979 16.000 C 21.978 15.567,21.898 15.355,21.678 15.199 C 21.385 14.990,21.877 15.000,11.984 15.003 C 4.546 15.005,2.748 15.015,2.614 15.057 " stroke="none" fill="black" fill-rule="evenodd"></path></svg>