<svg xmlns="http://www.w3.org/2000/svg" width="24" height="24" viewBox="0 0 24 24" fill="none" stroke="currentColor" stroke-width="2" stroke-linecap="round" stroke-linejoin="round" class="icon icon-tabler icons-tabler-outline icon-tabler-mood-nerd"><path d="M11.080 2.045 C 9.507 2.184,7.883 2.751,6.540 3.630 C 5.905 4.045,5.499 4.378,4.919 4.958 C 4.084 5.794,3.471 6.659,2.991 7.680 C 2.861 7.955,2.713 8.261,2.661 8.361 C 2.609 8.460,2.540 8.649,2.508 8.781 C 2.475 8.912,2.386 9.263,2.309 9.560 C 2.081 10.434,2.023 10.929,2.021 11.980 C 2.021 12.533,2.041 13.044,2.072 13.260 C 2.405 15.555,3.346 17.466,4.919 19.042 C 5.217 19.340,5.613 19.703,5.800 19.847 C 7.242 20.961,8.787 21.624,10.600 21.907 C 11.247 22.008,12.753 22.008,13.400 21.907 C 15.638 21.557,17.504 20.620,19.062 19.062 C 20.620 17.504,21.557 15.638,21.907 13.400 C 22.008 12.753,22.008 11.247,21.907 10.600 C 21.791 9.859,21.471 8.605,21.329 8.340 C 21.282 8.252,21.119 7.919,20.966 7.600 C 20.482 6.592,19.903 5.782,19.081 4.958 C 18.501 4.378,18.095 4.045,17.460 3.630 C 15.588 2.404,13.337 1.845,11.080 2.045 M12.734 4.041 C 14.574 4.216,16.228 4.976,17.554 6.256 C 17.949 6.636,18.402 7.181,18.691 7.620 L 18.928 7.980 18.582 7.992 C 18.245 8.003,18.234 8.000,18.116 7.882 C 17.747 7.513,17.306 7.252,16.820 7.114 C 16.564 7.041,16.399 7.023,16.000 7.023 C 15.601 7.023,15.436 7.041,15.180 7.114 C 14.692 7.252,14.253 7.513,13.880 7.886 L 13.755 8.011 13.408 7.848 C 12.835 7.579,12.658 7.540,12.000 7.540 C 11.342 7.540,11.165 7.579,10.592 7.848 L 10.245 8.011 10.120 7.886 C 9.747 7.513,9.308 7.252,8.820 7.114 C 8.366 6.985,7.634 6.985,7.180 7.114 C 6.694 7.252,6.253 7.513,5.884 7.882 C 5.766 8.000,5.755 8.003,5.418 7.992 L 5.072 7.980 5.309 7.620 C 5.598 7.181,6.051 6.636,6.446 6.256 C 8.134 4.626,10.418 3.822,12.734 4.041 M8.310 9.061 C 8.688 9.173,9.000 9.598,9.000 10.001 C 9.000 10.331,8.784 10.696,8.484 10.872 C 8.328 10.963,8.254 10.980,8.000 10.980 C 7.746 10.980,7.672 10.963,7.516 10.872 C 6.932 10.528,6.831 9.775,7.307 9.299 C 7.582 9.024,7.918 8.944,8.310 9.061 M16.310 9.061 C 16.688 9.173,17.000 9.598,17.000 10.001 C 17.000 10.331,16.784 10.696,16.484 10.872 C 16.328 10.963,16.254 10.980,16.000 10.980 C 15.746 10.980,15.672 10.963,15.516 10.872 C 14.932 10.528,14.831 9.775,15.307 9.299 C 15.582 9.024,15.918 8.944,16.310 9.061 M12.508 9.637 C 12.964 9.853,12.985 9.879,13.014 10.259 C 13.107 11.469,13.959 12.511,15.160 12.886 C 15.418 12.967,15.539 12.980,16.020 12.977 C 16.508 12.974,16.620 12.961,16.887 12.872 C 18.048 12.487,18.878 11.470,18.984 10.302 L 19.011 10.000 19.382 10.000 L 19.753 10.000 19.797 10.205 C 20.332 12.698,19.733 15.212,18.153 17.100 C 17.388 18.015,16.523 18.693,15.471 19.200 C 12.741 20.519,9.526 20.183,7.100 18.325 C 6.968 18.224,6.700 17.988,6.504 17.801 C 4.438 15.824,3.595 13.040,4.203 10.205 L 4.247 10.000 4.618 10.000 L 4.989 10.000 5.016 10.302 C 5.124 11.489,5.977 12.518,7.160 12.886 C 7.594 13.021,8.406 13.021,8.840 12.886 C 10.040 12.512,10.893 11.469,10.986 10.259 C 11.015 9.879,11.036 9.853,11.492 9.637 C 11.687 9.545,11.795 9.520,12.000 9.520 C 12.205 9.520,12.313 9.545,12.508 9.637 M9.125 14.051 C 9.029 14.100,8.857 14.240,8.743 14.363 C 8.293 14.850,8.345 15.272,8.924 15.820 C 9.439 16.308,9.985 16.627,10.661 16.835 C 11.174 16.993,11.481 17.039,12.000 17.039 C 12.519 17.039,12.826 16.993,13.339 16.835 C 14.015 16.627,14.561 16.308,15.076 15.820 C 15.546 15.376,15.652 15.056,15.464 14.660 C 15.281 14.275,14.852 13.960,14.509 13.960 C 14.239 13.960,14.108 14.027,13.711 14.367 C 13.287 14.730,13.062 14.857,12.657 14.961 C 12.065 15.112,11.314 15.034,10.832 14.772 C 10.722 14.712,10.475 14.529,10.285 14.366 C 10.095 14.202,9.882 14.044,9.811 14.014 C 9.617 13.932,9.327 13.947,9.125 14.051 " stroke="none" fill="black" fill-rule="evenodd"></path></svg>