<svg xmlns="http://www.w3.org/2000/svg" width="24" height="24" viewBox="0 0 24 24" fill="none" stroke="currentColor" stroke-width="2" stroke-linecap="round" stroke-linejoin="round" class="icon icon-tabler icons-tabler-outline icon-tabler-brackets-angle"><path d="M7.620 3.024 C 7.554 3.060,7.440 3.146,7.367 3.215 C 7.236 3.338,2.160 11.415,2.054 11.668 C 1.985 11.834,1.985 12.166,2.054 12.332 C 2.146 12.552,7.198 20.612,7.333 20.754 C 7.617 21.052,7.971 21.118,8.348 20.942 C 8.598 20.826,8.889 20.567,8.976 20.382 C 9.061 20.205,9.056 19.899,8.966 19.700 C 8.925 19.612,7.837 17.851,6.546 15.786 C 5.256 13.722,4.200 12.018,4.200 12.000 C 4.200 11.982,5.256 10.278,6.546 8.214 C 7.837 6.149,8.925 4.388,8.966 4.300 C 9.056 4.101,9.061 3.795,8.976 3.618 C 8.896 3.448,8.621 3.193,8.395 3.078 C 8.167 2.961,7.783 2.934,7.620 3.024 M15.755 3.015 C 15.442 3.127,15.087 3.432,14.998 3.665 C 14.938 3.823,14.955 4.125,15.034 4.300 C 15.075 4.388,16.163 6.149,17.454 8.214 C 18.744 10.278,19.800 11.982,19.800 12.000 C 19.800 12.018,18.744 13.722,17.454 15.786 C 16.163 17.851,15.075 19.612,15.034 19.700 C 14.944 19.899,14.939 20.205,15.024 20.382 C 15.111 20.567,15.402 20.826,15.652 20.942 C 16.029 21.118,16.383 21.052,16.667 20.754 C 16.802 20.612,21.854 12.552,21.946 12.332 C 22.015 12.166,22.015 11.834,21.946 11.668 C 21.854 11.448,16.802 3.388,16.667 3.246 C 16.412 2.978,16.088 2.896,15.755 3.015 " stroke="none" fill="black" fill-rule="evenodd"></path></svg>