<svg xmlns="http://www.w3.org/2000/svg" width="24" height="24" viewBox="0 0 24 24" fill="none" stroke="currentColor" stroke-width="2" stroke-linecap="round" stroke-linejoin="round" class="icon icon-tabler icons-tabler-outline icon-tabler-wave-saw-tool"><path d="M11.614 3.055 C 11.375 3.133,11.211 3.262,11.109 3.453 L 11.020 3.620 11.008 9.680 L 10.995 15.740 9.908 13.573 C 9.309 12.381,8.775 11.357,8.720 11.299 C 8.665 11.240,8.548 11.153,8.460 11.106 C 8.301 11.021,8.277 11.020,5.580 11.008 C 2.704 10.996,2.629 11.000,2.351 11.182 C 2.105 11.343,2.020 11.553,2.020 12.000 C 2.020 12.331,2.033 12.403,2.120 12.558 C 2.230 12.755,2.414 12.898,2.635 12.959 C 2.724 12.984,3.663 13.000,5.080 13.000 L 7.380 13.000 9.286 16.812 C 10.335 18.909,11.243 20.685,11.304 20.758 C 11.445 20.924,11.688 21.038,11.908 21.039 C 12.327 21.041,12.845 20.691,12.951 20.335 C 12.989 20.209,13.000 18.786,13.002 14.215 L 13.004 8.260 14.098 10.439 C 15.276 12.788,15.312 12.845,15.672 12.953 C 15.876 13.014,21.147 13.020,21.365 12.959 C 21.586 12.898,21.770 12.755,21.880 12.558 C 21.967 12.402,21.980 12.332,21.979 12.000 C 21.978 11.567,21.898 11.355,21.678 11.199 C 21.406 11.005,21.340 11.000,18.904 11.000 L 16.620 11.000 14.734 7.228 C 13.696 5.153,12.799 3.397,12.739 3.326 C 12.679 3.255,12.556 3.159,12.465 3.112 C 12.259 3.007,11.845 2.979,11.614 3.055 " stroke="none" fill="black" fill-rule="evenodd"></path></svg>