<svg xmlns="http://www.w3.org/2000/svg" width="24" height="24" viewBox="0 0 24 24" fill="none" stroke="currentColor" stroke-width="2" stroke-linecap="round" stroke-linejoin="round" class="icon icon-tabler icons-tabler-outline icon-tabler-lego-off"><path d="M2.626 2.045 C 2.257 2.239,1.951 2.673,1.951 3.000 C 1.951 3.320,2.070 3.480,3.048 4.465 L 3.966 5.390 3.803 5.605 C 3.593 5.881,3.341 6.366,3.216 6.732 C 2.997 7.373,3.000 7.296,3.000 12.529 C 3.000 17.257,3.002 17.377,3.082 17.772 C 3.359 19.128,4.281 20.231,5.540 20.711 C 5.716 20.778,5.889 20.842,5.924 20.853 C 5.971 20.868,5.994 20.942,6.009 21.133 C 6.044 21.568,6.262 21.856,6.635 21.959 C 6.834 22.015,17.166 22.015,17.365 21.959 C 17.733 21.857,17.939 21.588,17.989 21.143 L 18.020 20.873 18.292 20.778 C 18.442 20.726,18.667 20.631,18.792 20.568 L 19.020 20.453 19.740 21.161 C 20.166 21.580,20.533 21.906,20.637 21.959 C 20.988 22.137,21.354 22.048,21.701 21.701 C 22.047 21.355,22.136 20.990,21.961 20.637 C 21.839 20.392,3.616 2.165,3.372 2.044 C 3.152 1.934,2.834 1.935,2.626 2.045 M7.614 2.057 C 7.377 2.131,7.212 2.261,7.109 2.453 C 7.027 2.606,7.019 2.684,7.007 3.405 C 6.999 3.880,7.011 4.252,7.037 4.349 C 7.144 4.748,7.430 4.961,7.896 4.991 C 8.533 5.031,8.915 4.757,8.983 4.210 L 9.009 4.000 12.001 4.000 L 14.993 4.000 15.007 4.690 C 15.019 5.339,15.026 5.391,15.120 5.558 C 15.230 5.755,15.414 5.898,15.635 5.959 C 15.715 5.981,16.113 6.001,16.520 6.002 C 17.369 6.005,17.644 6.056,18.017 6.281 C 18.294 6.448,18.618 6.787,18.772 7.071 C 19.001 7.494,18.999 7.442,19.000 12.020 C 19.000 14.708,19.015 16.272,19.041 16.365 C 19.148 16.750,19.437 16.962,19.896 16.991 C 20.381 17.022,20.699 16.882,20.880 16.558 L 20.980 16.380 20.991 12.010 C 21.001 7.770,20.999 7.629,20.921 7.247 C 20.830 6.800,20.639 6.296,20.421 5.932 C 19.961 5.161,19.142 4.511,18.245 4.204 C 18.000 4.120,17.337 4.001,17.114 4.000 L 17.008 4.000 16.993 3.310 C 16.979 2.694,16.968 2.602,16.890 2.453 C 16.786 2.256,16.623 2.131,16.371 2.055 C 16.108 1.976,7.867 1.978,7.614 2.057 M7.113 8.533 C 8.658 10.078,8.799 10.231,8.736 10.283 C 8.600 10.395,8.513 10.672,8.512 10.994 C 8.510 11.348,8.581 11.555,8.771 11.751 C 9.064 12.054,9.802 12.083,10.190 11.807 L 10.305 11.725 11.799 13.219 L 13.292 14.712 13.123 14.799 C 12.653 15.038,11.910 15.106,11.343 14.961 C 10.938 14.857,10.705 14.726,10.285 14.366 C 9.893 14.028,9.760 13.960,9.496 13.960 C 9.012 13.960,8.439 14.539,8.440 15.025 C 8.442 15.448,9.161 16.161,10.021 16.591 C 10.314 16.738,10.967 16.943,11.320 16.998 C 11.654 17.051,12.346 17.051,12.680 16.998 C 13.278 16.904,13.997 16.626,14.474 16.304 C 14.592 16.225,14.700 16.160,14.714 16.160 C 14.764 16.160,17.496 18.917,17.471 18.942 C 17.457 18.956,17.252 18.983,17.016 19.002 C 16.649 19.031,16.560 19.053,16.404 19.150 C 16.184 19.285,16.046 19.514,16.013 19.797 L 15.989 20.000 12.000 20.000 L 8.010 20.000 7.983 19.794 C 7.914 19.271,7.565 19.000,6.962 19.000 C 6.297 19.000,5.630 18.604,5.271 17.998 C 4.985 17.514,4.996 17.741,5.009 12.380 L 5.020 7.580 5.127 7.313 C 5.237 7.039,5.350 6.840,5.395 6.840 C 5.409 6.840,6.182 7.602,7.113 8.533 " stroke="none" fill="black" fill-rule="evenodd"></path></svg>