<svg xmlns="http://www.w3.org/2000/svg" width="24" height="24" viewBox="0 0 24 24" fill="none" stroke="currentColor" stroke-width="2" stroke-linecap="round" stroke-linejoin="round" class="icon icon-tabler icons-tabler-outline icon-tabler-vector-triangle-off"><path d="M2.626 2.045 C 2.420 2.154,2.146 2.433,2.038 2.644 C 1.924 2.867,1.924 3.132,2.039 3.363 C 2.102 3.488,3.132 4.545,5.571 6.987 L 9.014 10.435 8.889 10.667 C 8.821 10.795,8.136 12.043,7.368 13.440 L 5.971 15.980 4.776 16.002 C 3.809 16.021,3.541 16.038,3.377 16.092 C 2.933 16.239,2.426 16.673,2.216 17.088 C 2.019 17.477,2.000 17.643,2.000 19.000 C 2.000 20.368,2.018 20.521,2.225 20.930 C 2.361 21.199,2.801 21.639,3.070 21.775 C 3.479 21.982,3.632 22.000,5.000 22.000 C 6.368 22.000,6.521 21.982,6.930 21.775 C 7.196 21.640,7.638 21.200,7.771 20.937 C 7.888 20.707,8.000 20.309,8.000 20.124 L 8.000 20.000 12.000 20.000 L 16.000 20.000 16.000 20.132 C 16.000 20.323,16.104 20.690,16.225 20.930 C 16.361 21.199,16.801 21.639,17.070 21.775 C 17.479 21.982,17.632 22.000,18.998 22.000 C 19.744 22.000,20.321 21.983,20.409 21.958 C 20.528 21.925,20.583 21.930,20.686 21.983 C 20.983 22.137,21.373 22.029,21.701 21.701 C 22.047 21.355,22.136 20.990,21.961 20.637 C 21.839 20.392,3.616 2.165,3.372 2.044 C 3.152 1.934,2.834 1.935,2.626 2.045 M10.477 3.073 C 9.806 3.249,9.238 3.823,9.060 4.508 C 8.990 4.777,8.976 6.131,9.041 6.365 C 9.148 6.750,9.437 6.962,9.896 6.991 C 10.381 7.022,10.699 6.882,10.880 6.558 C 10.974 6.391,10.981 6.338,10.994 5.690 L 11.008 5.000 12.004 5.000 L 13.000 5.000 13.000 5.990 L 13.000 6.980 12.420 6.989 C 12.101 6.993,11.763 7.017,11.670 7.042 C 11.248 7.152,11.040 7.422,11.009 7.900 C 10.970 8.509,11.239 8.906,11.744 8.982 C 11.905 9.007,11.914 9.017,12.144 9.431 C 12.487 10.048,12.708 10.240,13.077 10.240 C 13.446 10.240,14.015 9.884,14.146 9.572 C 14.218 9.398,14.211 9.139,14.127 8.920 L 14.057 8.740 14.364 8.440 C 14.537 8.271,14.715 8.052,14.772 7.937 C 14.979 7.525,15.000 7.351,14.999 6.014 C 14.999 4.682,14.974 4.463,14.781 4.083 C 14.551 3.628,14.022 3.203,13.523 3.073 C 13.134 2.972,10.866 2.972,10.477 3.073 M16.016 17.732 L 15.989 18.000 12.003 18.000 L 8.018 18.000 7.969 17.694 C 7.943 17.526,7.876 17.291,7.822 17.172 L 7.722 16.956 9.108 14.434 L 10.493 11.913 13.268 14.688 L 16.044 17.464 16.016 17.732 M6.000 19.000 L 6.000 20.000 5.000 20.000 L 4.000 20.000 4.000 19.000 L 4.000 18.000 5.000 18.000 L 6.000 18.000 6.000 19.000 M18.300 19.720 L 18.578 20.000 18.289 20.000 L 18.000 20.000 18.000 19.720 C 18.000 19.566,18.005 19.440,18.011 19.440 C 18.017 19.440,18.147 19.566,18.300 19.720 " stroke="none" fill="black" fill-rule="evenodd"></path></svg>