<svg xmlns="http://www.w3.org/2000/svg" width="24" height="24" viewBox="0 0 24 24" fill="none" stroke="currentColor" stroke-width="2" stroke-linecap="round" stroke-linejoin="round" class="icon icon-tabler icons-tabler-outline icon-tabler-brand-bulma"><path d="M10.640 1.040 C 10.504 1.103,9.810 1.774,7.794 3.792 C 5.331 6.257,5.124 6.475,5.066 6.660 C 4.980 6.930,3.987 15.881,4.014 16.128 C 4.026 16.231,4.066 16.375,4.102 16.448 C 4.171 16.585,10.074 22.531,10.410 22.801 C 10.535 22.902,10.674 22.971,10.819 23.003 C 11.013 23.047,11.061 23.043,11.249 22.973 C 11.365 22.930,13.308 21.739,15.567 20.326 C 18.602 18.429,19.705 17.719,19.792 17.609 C 20.070 17.256,20.121 16.959,19.960 16.637 C 19.899 16.514,19.187 15.773,17.636 14.219 C 16.406 12.987,15.400 11.965,15.400 11.948 C 15.400 11.932,16.028 11.201,16.796 10.325 C 18.412 8.480,18.449 8.434,18.520 8.180 C 18.585 7.947,18.532 7.695,18.372 7.486 C 18.224 7.292,11.666 1.243,11.450 1.102 C 11.211 0.945,10.898 0.922,10.640 1.040 M13.562 5.725 C 14.947 7.003,16.080 8.061,16.080 8.076 C 16.080 8.090,15.411 8.866,14.594 9.801 C 13.777 10.735,13.075 11.572,13.035 11.660 C 12.939 11.870,12.942 12.137,13.043 12.360 C 13.105 12.497,13.640 13.056,15.263 14.682 L 17.402 16.824 14.277 18.777 L 11.151 20.731 8.600 18.175 L 6.049 15.620 6.505 11.540 L 6.960 7.460 8.990 5.430 C 10.106 4.314,11.025 3.400,11.032 3.400 C 11.039 3.400,12.177 4.446,13.562 5.725 " stroke="none" fill="black" fill-rule="evenodd"></path></svg>