<svg xmlns="http://www.w3.org/2000/svg" width="24" height="24" viewBox="0 0 24 24" fill="none" stroke="currentColor" stroke-width="2" stroke-linecap="round" stroke-linejoin="round" class="icon icon-tabler icons-tabler-outline icon-tabler-background"><path d="M7.620 3.046 C 7.385 3.167,3.154 7.408,3.039 7.637 C 2.863 7.990,2.952 8.355,3.299 8.701 C 3.645 9.048,4.010 9.137,4.363 8.961 C 4.612 8.836,8.836 4.612,8.961 4.363 C 9.137 4.010,9.048 3.645,8.701 3.299 C 8.361 2.959,7.968 2.867,7.620 3.046 M13.620 3.046 C 13.381 3.168,3.155 13.405,3.039 13.637 C 2.864 13.990,2.953 14.355,3.299 14.701 C 3.645 15.047,4.010 15.136,4.363 14.961 C 4.615 14.835,14.835 4.615,14.961 4.363 C 15.136 4.010,15.047 3.645,14.701 3.299 C 14.362 2.959,13.968 2.867,13.620 3.046 M19.620 3.046 C 19.380 3.168,3.155 19.404,3.039 19.637 C 2.864 19.990,2.953 20.355,3.299 20.701 C 3.645 21.047,4.010 21.136,4.363 20.961 C 4.616 20.835,20.835 4.616,20.961 4.363 C 21.136 4.010,21.047 3.645,20.701 3.299 C 20.362 2.959,19.968 2.867,19.620 3.046 M19.620 9.046 C 19.381 9.168,9.155 19.405,9.039 19.637 C 8.864 19.990,8.953 20.355,9.299 20.701 C 9.645 21.047,10.010 21.136,10.363 20.961 C 10.615 20.835,20.835 10.615,20.961 10.363 C 21.136 10.010,21.047 9.645,20.701 9.299 C 20.362 8.959,19.968 8.867,19.620 9.046 M19.620 15.046 C 19.385 15.167,15.154 19.408,15.039 19.637 C 14.863 19.990,14.952 20.355,15.299 20.701 C 15.645 21.048,16.010 21.137,16.363 20.961 C 16.486 20.899,17.197 20.215,18.706 18.706 C 20.215 17.197,20.899 16.486,20.961 16.363 C 21.137 16.010,21.048 15.645,20.701 15.299 C 20.361 14.959,19.968 14.867,19.620 15.046 " stroke="none" fill="black" fill-rule="evenodd"></path></svg>