<svg xmlns="http://www.w3.org/2000/svg" width="24" height="24" viewBox="0 0 24 24" fill="none" stroke="currentColor" stroke-width="2" stroke-linecap="round" stroke-linejoin="round" class="icon icon-tabler icons-tabler-outline icon-tabler-color-swatch"><path d="M14.499 2.042 C 13.192 2.268,12.158 3.356,12.019 4.653 L 11.990 4.924 11.725 4.669 C 11.066 4.037,10.455 3.785,9.580 3.785 C 8.817 3.785,8.297 3.965,7.715 4.433 C 7.273 4.789,4.439 7.660,4.254 7.940 C 3.891 8.490,3.735 9.077,3.771 9.759 C 3.812 10.521,4.066 11.099,4.608 11.663 L 4.923 11.992 4.672 12.021 C 3.471 12.158,2.480 12.987,2.114 14.160 L 2.020 14.460 2.020 17.000 L 2.020 19.540 2.114 19.840 C 2.422 20.827,3.173 21.578,4.160 21.886 L 4.460 21.980 11.040 21.980 C 17.252 21.980,17.639 21.976,17.960 21.907 C 19.488 21.580,20.748 20.630,21.433 19.288 C 21.662 18.839,21.805 18.439,21.907 17.960 C 21.976 17.639,21.980 17.252,21.980 11.040 L 21.980 4.460 21.886 4.160 C 21.581 3.181,20.829 2.425,19.861 2.122 L 19.540 2.022 17.120 2.015 C 15.789 2.011,14.609 2.023,14.499 2.042 M19.310 4.061 C 19.593 4.145,19.858 4.412,19.941 4.696 C 19.994 4.881,20.000 5.653,19.991 11.223 L 19.980 17.540 19.879 17.861 C 19.572 18.832,18.817 19.582,17.840 19.886 C 17.406 20.021,16.594 20.021,16.160 19.886 C 15.637 19.723,15.338 19.539,14.915 19.121 C 14.476 18.685,14.259 18.336,14.112 17.822 L 14.020 17.500 14.020 12.520 C 14.020 9.781,14.023 7.486,14.027 7.420 C 14.031 7.354,14.025 6.764,14.014 6.110 C 13.991 4.702,14.007 4.599,14.303 4.303 C 14.604 4.002,14.568 4.006,16.983 4.003 C 18.772 4.000,19.138 4.010,19.310 4.061 M10.013 5.865 C 10.083 5.899,10.558 6.344,11.070 6.854 L 12.000 7.779 12.000 12.020 L 12.000 16.260 8.967 13.220 C 6.953 11.201,5.908 10.126,5.857 10.020 C 5.748 9.793,5.753 9.356,5.868 9.140 C 5.917 9.049,6.625 8.311,7.507 7.433 C 8.920 6.027,9.078 5.881,9.260 5.824 C 9.492 5.751,9.821 5.769,10.013 5.865 M9.940 17.001 L 12.940 20.001 8.820 19.991 L 4.700 19.980 4.516 19.872 C 4.415 19.813,4.284 19.700,4.225 19.623 C 4.000 19.327,4.000 19.332,4.000 17.022 C 4.000 14.586,3.997 14.609,4.304 14.303 C 4.581 14.025,4.683 14.006,5.900 14.003 L 6.940 14.000 9.940 17.001 M16.614 16.057 C 16.221 16.180,16.039 16.435,16.009 16.906 C 15.962 17.621,16.306 18.000,17.000 18.000 C 17.698 18.000,18.043 17.616,17.989 16.900 C 17.963 16.563,17.859 16.327,17.678 16.199 C 17.414 16.010,16.957 15.950,16.614 16.057 " stroke="none" fill="black" fill-rule="evenodd"></path></svg>