<svg xmlns="http://www.w3.org/2000/svg" width="24" height="24" viewBox="0 0 24 24" fill="none" stroke="currentColor" stroke-width="2" stroke-linecap="round" stroke-linejoin="round" class="icon icon-tabler icons-tabler-outline icon-tabler-seo"><path d="M3.477 7.073 C 2.806 7.249,2.238 7.823,2.060 8.508 C 2.013 8.687,2.000 9.009,2.000 10.000 C 2.000 11.368,2.018 11.521,2.225 11.930 C 2.361 12.199,2.801 12.639,3.070 12.775 C 3.472 12.979,3.642 13.000,4.868 13.000 L 6.000 13.000 6.000 14.000 L 6.000 15.000 4.406 15.000 C 2.710 15.000,2.584 15.012,2.322 15.199 C 2.100 15.357,2.020 15.568,2.020 16.000 C 2.020 16.331,2.033 16.403,2.120 16.558 C 2.230 16.755,2.414 16.898,2.635 16.959 C 2.722 16.983,3.478 17.000,4.522 17.000 C 6.409 17.000,6.503 16.991,6.930 16.775 C 7.196 16.640,7.638 16.200,7.771 15.937 C 7.979 15.527,8.000 15.352,7.999 14.014 C 7.999 12.682,7.974 12.463,7.781 12.083 C 7.646 11.816,7.297 11.449,7.017 11.281 C 6.609 11.035,6.405 11.005,5.130 11.002 L 4.000 11.000 4.000 10.000 L 4.000 9.000 5.610 9.000 C 6.565 9.000,7.279 8.983,7.365 8.959 C 7.586 8.898,7.770 8.755,7.880 8.558 C 7.967 8.402,7.980 8.332,7.979 8.000 C 7.978 7.567,7.898 7.355,7.678 7.199 C 7.413 7.010,7.301 7.000,5.464 7.002 C 3.968 7.004,3.705 7.014,3.477 7.073 M9.614 7.057 C 9.377 7.131,9.212 7.261,9.109 7.453 L 9.020 7.620 9.009 11.913 C 9.002 14.727,9.013 16.258,9.039 16.357 C 9.100 16.584,9.242 16.768,9.442 16.880 L 9.620 16.980 11.911 16.991 C 13.392 16.999,14.256 16.988,14.355 16.961 C 14.583 16.900,14.768 16.758,14.880 16.558 C 14.967 16.402,14.980 16.332,14.979 16.000 C 14.978 15.567,14.898 15.355,14.678 15.199 C 14.416 15.012,14.290 15.000,12.594 15.000 L 11.000 15.000 11.000 14.000 L 11.000 13.000 12.110 13.000 C 12.730 13.000,13.284 12.982,13.365 12.959 C 13.586 12.898,13.770 12.755,13.880 12.558 C 13.967 12.402,13.980 12.332,13.979 12.000 C 13.978 11.567,13.898 11.355,13.678 11.199 C 13.430 11.022,13.256 11.000,12.094 11.000 L 11.000 11.000 11.000 10.000 L 11.000 9.000 12.610 9.000 C 13.565 9.000,14.279 8.983,14.365 8.959 C 14.586 8.898,14.770 8.755,14.880 8.558 C 14.967 8.402,14.980 8.332,14.979 8.000 C 14.978 7.567,14.898 7.355,14.678 7.199 C 14.406 7.005,14.336 7.000,11.984 7.003 C 10.293 7.005,9.741 7.017,9.614 7.057 M17.477 7.073 C 16.806 7.249,16.238 7.823,16.060 8.508 C 16.009 8.702,16.000 9.237,16.000 12.000 C 16.000 15.547,15.996 15.478,16.225 15.930 C 16.361 16.199,16.801 16.639,17.070 16.775 C 17.479 16.982,17.632 17.000,19.000 17.000 C 20.368 17.000,20.521 16.982,20.930 16.775 C 21.196 16.640,21.638 16.200,21.771 15.937 C 22.003 15.479,22.000 15.537,21.999 12.014 C 21.999 8.515,21.999 8.511,21.781 8.083 C 21.551 7.628,21.022 7.203,20.523 7.073 C 20.134 6.972,17.866 6.972,17.477 7.073 M20.000 12.000 L 20.000 15.000 19.000 15.000 L 18.000 15.000 18.000 12.000 L 18.000 9.000 19.000 9.000 L 20.000 9.000 20.000 12.000 " stroke="none" fill="black" fill-rule="evenodd"></path></svg>