<svg xmlns="http://www.w3.org/2000/svg" width="24" height="24" viewBox="0 0 24 24" fill="none" stroke="currentColor" stroke-width="2" stroke-linecap="round" stroke-linejoin="round" class="icon icon-tabler icons-tabler-outline icon-tabler-brand-shopee"><path d="M11.680 2.023 C 11.625 2.032,11.454 2.060,11.301 2.085 C 9.803 2.329,8.294 3.829,7.734 5.628 L 7.620 5.996 5.639 6.008 L 3.658 6.020 3.459 6.122 C 3.349 6.179,3.219 6.285,3.170 6.358 C 2.965 6.662,2.953 6.350,3.416 12.900 C 3.652 16.244,3.863 19.130,3.884 19.312 C 4.029 20.550,4.799 21.478,6.020 21.886 L 6.300 21.980 11.820 21.992 C 15.881 22.001,17.419 21.992,17.640 21.958 C 18.560 21.815,19.400 21.195,19.833 20.340 C 20.107 19.798,20.086 20.001,20.561 13.380 C 20.802 10.014,20.999 7.125,20.999 6.960 C 20.998 6.500,20.855 6.252,20.499 6.092 C 20.354 6.026,20.164 6.019,18.360 6.008 L 16.380 5.996 16.266 5.628 C 15.718 3.867,14.297 2.423,12.792 2.100 C 12.511 2.039,11.852 1.994,11.680 2.023 M12.419 4.061 C 12.743 4.146,13.000 4.294,13.304 4.573 C 13.643 4.883,13.895 5.216,14.112 5.637 L 14.289 5.980 13.144 5.991 C 12.515 5.996,11.485 5.996,10.856 5.991 L 9.711 5.980 9.888 5.637 C 10.105 5.216,10.357 4.883,10.696 4.573 C 11.242 4.072,11.811 3.903,12.419 4.061 M18.919 8.110 C 18.918 8.171,18.741 10.697,18.524 13.724 C 18.088 19.805,18.133 19.420,17.821 19.728 C 17.527 20.018,17.904 20.000,11.983 20.000 L 6.660 19.999 6.460 19.906 C 6.242 19.805,6.022 19.582,5.935 19.375 C 5.898 19.286,5.754 17.467,5.480 13.645 C 5.260 10.566,5.080 8.036,5.080 8.023 C 5.080 8.010,8.194 8.000,12.000 8.000 L 18.920 8.000 18.919 8.110 M11.420 9.066 C 11.050 9.145,10.479 9.419,10.176 9.663 C 9.676 10.067,9.346 10.533,9.152 11.111 C 8.810 12.125,9.064 13.059,9.907 13.891 C 10.430 14.406,10.884 14.664,11.920 15.033 C 12.736 15.324,13.137 15.507,13.331 15.677 C 13.465 15.795,13.480 15.828,13.480 16.006 C 13.480 16.455,13.151 16.775,12.518 16.942 C 12.317 16.994,12.159 17.004,11.800 16.987 C 11.060 16.952,10.771 16.837,10.286 16.383 C 9.903 16.025,9.785 15.960,9.521 15.960 C 9.246 15.960,8.984 16.098,8.728 16.379 C 8.288 16.860,8.349 17.250,8.960 17.865 C 9.453 18.361,9.901 18.623,10.589 18.817 C 11.333 19.026,12.333 19.052,13.038 18.880 C 14.494 18.524,15.493 17.350,15.487 16.003 C 15.482 15.116,15.115 14.454,14.340 13.939 C 13.954 13.682,13.524 13.487,12.600 13.152 C 11.681 12.819,11.256 12.539,11.041 12.125 C 10.925 11.901,11.112 11.461,11.427 11.221 C 11.687 11.022,11.858 10.986,12.397 11.014 C 12.970 11.044,13.110 11.107,13.660 11.585 C 13.880 11.776,14.122 11.958,14.197 11.989 C 14.374 12.064,14.629 12.062,14.812 11.986 C 15.027 11.896,15.358 11.569,15.465 11.340 C 15.658 10.928,15.549 10.627,15.026 10.133 C 14.360 9.502,13.733 9.168,13.011 9.059 C 12.519 8.985,11.786 8.988,11.420 9.066 " stroke="none" fill="black" fill-rule="evenodd"></path></svg>