<svg xmlns="http://www.w3.org/2000/svg" width="24" height="24" viewBox="0 0 24 24" fill="none" stroke="currentColor" stroke-width="2" stroke-linecap="round" stroke-linejoin="round" class="icon icon-tabler icons-tabler-outline icon-tabler-arrows-shuffle-2"><path d="M17.626 3.045 C 17.257 3.239,16.951 3.673,16.951 4.000 C 16.951 4.307,17.079 4.487,17.853 5.270 L 18.575 6.000 17.198 6.001 C 15.369 6.002,14.861 6.055,14.060 6.329 C 12.970 6.701,11.929 7.449,11.249 8.350 C 11.129 8.510,11.017 8.640,11.000 8.640 C 10.983 8.640,10.871 8.510,10.750 8.350 C 10.070 7.450,9.026 6.699,7.940 6.329 C 7.112 6.046,6.650 6.002,4.496 6.001 C 2.703 6.000,2.586 6.011,2.322 6.199 C 2.100 6.357,2.020 6.568,2.020 7.000 C 2.020 7.331,2.033 7.403,2.120 7.558 C 2.230 7.755,2.414 7.898,2.635 7.959 C 2.722 7.983,3.472 8.000,4.500 8.000 C 6.726 8.001,7.012 8.040,7.840 8.464 C 8.739 8.924,9.462 9.771,9.797 10.755 C 9.897 11.050,10.000 11.680,10.000 12.000 C 10.000 12.322,9.897 12.951,9.796 13.245 C 9.321 14.632,8.195 15.628,6.773 15.917 C 6.399 15.994,6.229 16.000,4.590 16.000 C 2.697 16.000,2.587 16.010,2.322 16.199 C 2.100 16.357,2.020 16.568,2.020 17.000 C 2.020 17.331,2.033 17.403,2.120 17.558 C 2.233 17.760,2.417 17.900,2.651 17.963 C 2.758 17.992,3.459 18.000,4.795 17.989 C 6.666 17.974,6.803 17.968,7.180 17.884 C 8.644 17.558,9.903 16.770,10.750 15.650 C 10.871 15.490,10.983 15.360,11.000 15.360 C 11.017 15.360,11.129 15.490,11.249 15.650 C 12.086 16.761,13.367 17.562,14.820 17.883 C 15.188 17.965,15.352 17.973,16.894 17.989 L 18.569 18.007 17.850 18.733 C 17.419 19.169,17.095 19.531,17.041 19.637 C 16.863 19.988,16.952 20.354,17.299 20.701 C 17.646 21.048,18.011 21.137,18.363 20.960 C 18.480 20.901,19.051 20.365,20.062 19.365 C 20.899 18.537,21.634 17.826,21.697 17.784 C 21.850 17.682,22.049 17.238,22.049 17.000 C 22.049 16.745,21.851 16.321,21.676 16.201 C 21.601 16.150,20.865 15.438,20.040 14.618 C 19.085 13.670,18.479 13.098,18.372 13.044 C 18.020 12.868,17.639 12.959,17.299 13.299 C 16.952 13.646,16.863 14.012,17.041 14.363 C 17.095 14.469,17.420 14.832,17.853 15.270 L 18.575 16.000 17.104 16.000 C 15.775 16.000,15.593 15.992,15.227 15.917 C 13.566 15.579,12.309 14.265,12.058 12.605 C 11.986 12.121,11.986 11.879,12.058 11.395 C 12.247 10.145,13.042 9.036,14.160 8.464 C 14.961 8.054,15.311 8.001,17.178 8.000 L 18.575 8.000 17.853 8.730 C 17.420 9.168,17.095 9.531,17.041 9.637 C 16.863 9.988,16.952 10.354,17.299 10.701 C 17.646 11.048,18.011 11.137,18.363 10.960 C 18.480 10.901,19.051 10.365,20.062 9.365 C 20.899 8.537,21.634 7.826,21.697 7.784 C 21.850 7.682,22.049 7.238,22.049 7.000 C 22.049 6.745,21.851 6.321,21.676 6.201 C 21.601 6.150,20.865 5.438,20.040 4.618 C 19.085 3.670,18.479 3.098,18.372 3.044 C 18.152 2.934,17.835 2.934,17.626 3.045 " stroke="none" fill="black" fill-rule="evenodd"></path></svg>