<svg xmlns="http://www.w3.org/2000/svg" width="24" height="24" viewBox="0 0 24 24" fill="none" stroke="currentColor" stroke-width="2" stroke-linecap="round" stroke-linejoin="round" class="icon icon-tabler icons-tabler-outline icon-tabler-device-gamepad-3"><path d="M9.477 3.073 C 8.786 3.254,8.184 3.886,8.039 4.584 C 8.012 4.717,8.000 5.252,8.008 6.047 L 8.020 7.300 8.127 7.480 C 8.284 7.744,11.416 10.849,11.637 10.960 C 11.869 11.076,12.131 11.076,12.363 10.960 C 12.584 10.849,15.716 7.744,15.873 7.480 L 15.980 7.300 15.992 6.055 C 16.005 4.701,15.981 4.477,15.782 4.083 C 15.646 3.816,15.297 3.449,15.017 3.281 C 14.564 3.008,14.524 3.005,12.000 3.005 C 9.992 3.005,9.711 3.012,9.477 3.073 M14.000 5.790 L 14.000 6.581 13.000 7.580 L 12.000 8.579 11.000 7.580 L 10.000 6.581 10.000 5.790 L 10.000 5.000 12.000 5.000 L 14.000 5.000 14.000 5.790 M4.477 8.073 C 3.806 8.249,3.238 8.823,3.060 9.508 C 2.971 9.847,2.971 14.153,3.060 14.492 C 3.246 15.208,3.874 15.814,4.584 15.961 C 4.717 15.988,5.252 16.000,6.047 15.992 L 7.300 15.980 7.480 15.873 C 7.744 15.716,10.849 12.584,10.960 12.363 C 11.076 12.132,11.076 11.869,10.961 11.637 C 10.900 11.516,10.349 10.937,9.206 9.794 C 7.612 8.199,7.531 8.124,7.323 8.064 C 6.995 7.968,4.854 7.975,4.477 8.073 M16.660 8.066 C 16.476 8.122,16.329 8.258,14.794 9.793 C 13.651 10.936,13.100 11.516,13.039 11.637 C 12.924 11.869,12.924 12.132,13.040 12.363 C 13.151 12.584,16.256 15.716,16.520 15.873 L 16.700 15.980 17.953 15.992 C 19.317 16.005,19.472 15.990,19.877 15.798 C 20.183 15.653,20.623 15.230,20.771 14.937 C 20.996 14.494,21.000 14.442,20.999 12.014 C 20.999 9.601,20.991 9.496,20.781 9.083 C 20.551 8.628,20.022 8.203,19.523 8.073 C 19.157 7.978,16.970 7.972,16.660 8.066 M7.580 11.000 L 8.579 12.000 7.580 13.000 L 6.581 14.000 5.790 14.000 L 5.000 14.000 5.000 12.000 L 5.000 10.000 5.790 10.000 L 6.581 10.000 7.580 11.000 M19.000 12.000 L 19.000 14.000 18.210 14.000 L 17.419 14.000 16.420 13.000 L 15.421 12.000 16.420 11.000 L 17.419 10.000 18.210 10.000 L 19.000 10.000 19.000 12.000 M11.620 13.046 C 11.413 13.153,8.271 16.279,8.127 16.520 L 8.020 16.700 8.008 17.953 C 7.995 19.317,8.010 19.472,8.202 19.877 C 8.348 20.186,8.771 20.623,9.070 20.775 C 9.509 20.997,9.545 21.000,12.000 21.000 C 14.455 21.000,14.491 20.997,14.930 20.775 C 15.196 20.640,15.638 20.200,15.771 19.937 C 15.987 19.512,16.005 19.346,15.992 17.966 L 15.980 16.700 15.873 16.520 C 15.721 16.265,12.585 13.151,12.372 13.044 C 12.151 12.934,11.836 12.935,11.620 13.046 M13.010 16.430 L 14.000 17.419 14.000 18.210 L 14.000 19.000 12.000 19.000 L 10.000 19.000 10.000 18.210 L 10.000 17.421 10.990 16.430 C 11.534 15.886,11.988 15.440,11.999 15.440 C 12.010 15.440,12.465 15.885,13.010 16.430 " stroke="none" fill="black" fill-rule="evenodd"></path></svg>