<svg xmlns="http://www.w3.org/2000/svg" width="24" height="24" viewBox="0 0 24 24" fill="none" stroke="currentColor" stroke-width="2" stroke-linecap="round" stroke-linejoin="round" class="icon icon-tabler icons-tabler-outline icon-tabler-trekking"><path d="M11.477 2.073 C 10.806 2.249,10.238 2.823,10.060 3.508 C 9.941 3.962,10.003 4.492,10.225 4.930 C 10.361 5.199,10.801 5.639,11.070 5.775 C 11.659 6.073,12.341 6.073,12.930 5.775 C 13.196 5.640,13.638 5.200,13.771 4.937 C 13.994 4.498,14.052 4.007,13.940 3.529 C 13.858 3.182,13.720 2.927,13.465 2.653 C 13.074 2.232,12.560 2.005,12.000 2.005 C 11.857 2.005,11.622 2.036,11.477 2.073 M17.720 6.023 C 17.643 6.056,16.957 6.497,16.196 7.004 L 14.812 7.924 12.970 7.462 L 11.128 7.000 10.234 7.000 C 9.742 7.000,9.223 7.020,9.080 7.043 C 8.437 7.146,7.871 7.451,7.394 7.950 C 6.908 8.459,6.801 8.690,6.491 9.900 C 6.322 10.563,6.307 10.660,6.305 11.120 C 6.303 11.702,6.378 12.008,6.654 12.540 C 6.930 13.074,7.230 13.350,8.339 14.089 L 9.300 14.729 10.650 16.074 L 12.000 17.420 12.000 19.320 C 12.000 20.469,12.016 21.277,12.041 21.365 C 12.148 21.750,12.437 21.962,12.896 21.991 C 13.381 22.022,13.699 21.882,13.880 21.558 L 13.980 21.380 13.980 19.040 C 13.980 16.837,13.976 16.692,13.906 16.560 C 13.865 16.483,13.210 15.797,12.451 15.035 L 11.071 13.650 11.316 12.175 C 11.451 11.364,11.571 10.650,11.584 10.588 C 11.605 10.486,11.678 10.571,12.457 11.608 L 13.307 12.740 14.653 13.636 L 16.000 14.533 16.000 16.757 L 16.000 18.982 15.756 19.028 C 15.272 19.120,15.042 19.388,15.009 19.900 C 14.969 20.530,15.252 20.923,15.792 20.987 L 15.990 21.010 16.013 21.208 C 16.074 21.715,16.428 22.000,17.000 22.000 C 17.572 22.000,17.919 21.723,17.982 21.215 L 18.008 21.010 18.202 20.987 C 18.533 20.948,18.752 20.806,18.893 20.540 C 19.018 20.303,19.016 19.691,18.888 19.450 C 18.773 19.232,18.551 19.086,18.243 19.028 L 17.999 18.982 18.003 15.437 C 18.004 13.487,17.993 11.822,17.978 11.736 C 17.912 11.373,17.723 11.161,17.371 11.055 C 17.021 10.950,16.588 11.009,16.322 11.199 C 16.153 11.319,16.037 11.563,16.006 11.866 L 15.980 12.120 15.340 11.694 L 14.700 11.268 14.112 10.484 C 13.789 10.053,13.539 9.695,13.557 9.688 C 13.575 9.682,13.880 9.749,14.233 9.838 C 14.914 10.010,15.095 10.027,15.320 9.946 C 15.540 9.866,18.686 7.749,18.833 7.582 C 18.998 7.394,19.040 7.285,19.040 7.047 C 19.039 6.696,18.726 6.206,18.394 6.037 C 18.213 5.945,17.917 5.939,17.720 6.023 M9.800 9.062 C 9.800 9.162,9.278 12.255,9.258 12.275 C 9.226 12.308,8.564 11.838,8.485 11.726 C 8.388 11.590,8.280 11.271,8.280 11.121 C 8.280 11.058,8.359 10.691,8.456 10.306 C 8.680 9.413,8.801 9.219,9.234 9.059 C 9.447 8.981,9.800 8.982,9.800 9.062 M8.570 16.044 C 8.477 16.090,8.353 16.184,8.295 16.253 C 8.238 16.321,7.696 17.368,7.092 18.579 C 5.865 21.039,5.861 21.050,6.040 21.420 C 6.145 21.637,6.398 21.840,6.712 21.959 C 7.110 22.111,7.475 22.029,7.708 21.735 C 7.775 21.650,8.320 20.599,8.919 19.400 C 9.899 17.436,10.009 17.196,10.027 16.980 C 10.054 16.661,9.939 16.440,9.639 16.229 C 9.259 15.963,8.871 15.895,8.570 16.044 " stroke="none" fill="black" fill-rule="evenodd"></path></svg>