<svg xmlns="http://www.w3.org/2000/svg" width="24" height="24" viewBox="0 0 24 24" fill="none" stroke="currentColor" stroke-width="2" stroke-linecap="round" stroke-linejoin="round" class="icon icon-tabler icons-tabler-outline icon-tabler-circuit-cell"><path d="M9.614 4.057 C 9.377 4.131,9.212 4.261,9.109 4.453 L 9.020 4.620 9.009 7.810 L 8.998 11.000 5.405 11.000 C 1.561 11.000,1.604 10.998,1.322 11.199 C 1.100 11.357,1.020 11.568,1.020 12.000 C 1.020 12.331,1.033 12.403,1.120 12.558 C 1.230 12.755,1.414 12.898,1.635 12.959 C 1.727 12.985,3.095 13.000,5.390 13.000 L 9.000 13.000 9.000 16.110 C 9.000 18.070,9.015 19.274,9.041 19.365 C 9.148 19.750,9.437 19.962,9.896 19.991 C 10.381 20.022,10.699 19.882,10.880 19.558 L 10.980 19.380 10.980 12.000 L 10.980 4.620 10.891 4.453 C 10.842 4.362,10.746 4.247,10.678 4.199 C 10.414 4.010,9.957 3.950,9.614 4.057 M13.614 8.057 C 13.377 8.131,13.212 8.261,13.109 8.453 L 13.020 8.620 13.009 11.912 C 13.002 14.060,13.012 15.257,13.039 15.356 C 13.144 15.747,13.434 15.961,13.896 15.991 C 14.381 16.022,14.699 15.882,14.880 15.558 C 14.979 15.381,14.980 15.374,14.993 14.190 L 15.005 13.000 18.613 13.000 C 20.906 13.000,22.273 12.985,22.365 12.959 C 22.586 12.898,22.770 12.755,22.880 12.558 C 22.967 12.402,22.980 12.332,22.979 12.000 C 22.978 11.567,22.898 11.355,22.678 11.199 C 22.396 10.998,22.439 11.000,18.596 11.000 L 15.005 11.000 14.993 9.810 C 14.981 8.669,14.976 8.613,14.891 8.453 C 14.842 8.362,14.746 8.247,14.678 8.199 C 14.414 8.010,13.957 7.950,13.614 8.057 " stroke="none" fill="black" fill-rule="evenodd"></path></svg>