<svg xmlns="http://www.w3.org/2000/svg" width="24" height="24" viewBox="0 0 24 24" fill="none" stroke="currentColor" stroke-width="2" stroke-linecap="round" stroke-linejoin="round" class="icon icon-tabler icons-tabler-outline icon-tabler-fish-off"><path d="M2.626 2.045 C 2.420 2.154,2.146 2.433,2.038 2.644 C 1.924 2.868,1.924 3.132,2.040 3.363 C 2.101 3.486,2.877 4.290,4.604 6.021 C 5.966 7.385,7.080 8.513,7.080 8.528 C 7.080 8.543,6.931 8.659,6.750 8.786 C 6.081 9.256,4.725 10.340,4.565 10.534 C 4.535 10.570,4.490 10.600,4.464 10.600 C 4.412 10.600,3.712 9.895,3.041 9.168 C 2.517 8.600,2.319 8.463,2.021 8.463 C 1.523 8.463,0.950 9.009,0.954 9.481 C 0.957 9.854,1.065 9.999,2.350 11.351 L 2.968 12.002 2.623 12.371 C 2.434 12.574,2.026 13.010,1.718 13.340 C 1.373 13.710,1.119 14.020,1.056 14.147 C 0.864 14.534,0.939 14.851,1.307 15.208 C 1.649 15.541,2.007 15.637,2.341 15.485 C 2.447 15.437,2.692 15.210,3.061 14.816 C 3.818 14.010,4.410 13.400,4.438 13.400 C 4.450 13.400,4.586 13.510,4.740 13.644 C 7.195 15.784,9.703 17.204,11.977 17.740 C 12.693 17.909,13.125 17.964,13.900 17.987 C 14.703 18.011,15.297 17.959,15.980 17.806 L 16.300 17.734 18.380 19.803 C 19.810 21.225,20.515 21.899,20.637 21.960 C 20.990 22.137,21.354 22.048,21.701 21.701 C 22.048 21.354,22.137 20.989,21.960 20.637 C 21.861 20.440,21.285 19.859,10.472 9.052 C 6.725 5.308,3.615 2.210,3.560 2.168 C 3.265 1.942,2.910 1.895,2.626 2.045 M13.640 6.025 C 12.709 6.090,11.352 6.378,10.892 6.608 C 10.662 6.723,10.496 6.914,10.437 7.129 C 10.337 7.496,10.559 8.117,10.868 8.334 C 11.128 8.517,11.311 8.515,12.060 8.321 C 12.972 8.085,13.378 8.030,14.213 8.030 C 14.606 8.030,14.942 8.046,14.960 8.065 C 14.979 8.084,14.906 8.284,14.798 8.510 C 14.316 9.515,13.976 10.878,14.081 11.383 C 14.145 11.695,14.365 11.917,14.704 12.012 C 15.272 12.172,15.718 12.037,15.917 11.645 C 15.958 11.565,16.039 11.257,16.097 10.960 C 16.156 10.664,16.258 10.259,16.324 10.061 C 16.447 9.694,16.888 8.796,16.984 8.716 C 17.025 8.683,17.112 8.712,17.349 8.839 C 18.089 9.238,18.783 9.772,19.491 10.490 C 19.890 10.895,20.760 11.933,20.760 12.005 C 20.760 12.055,20.134 12.826,19.750 13.248 C 19.556 13.463,19.187 13.823,18.930 14.049 C 18.336 14.573,18.285 14.626,18.195 14.820 C 18.051 15.134,18.137 15.463,18.457 15.826 C 18.690 16.091,18.893 16.200,19.148 16.199 C 19.416 16.198,19.605 16.100,20.042 15.737 C 20.792 15.113,21.608 14.227,22.363 13.215 C 22.887 12.513,22.974 12.353,22.993 12.060 C 23.013 11.739,22.949 11.595,22.520 11.000 C 21.411 9.464,20.303 8.358,19.020 7.509 C 17.876 6.751,16.710 6.295,15.420 6.100 C 15.010 6.038,14.033 5.997,13.640 6.025 M9.300 10.720 L 10.020 11.441 10.007 11.890 C 9.993 12.402,10.052 12.747,10.239 13.230 C 10.392 13.627,10.711 14.146,10.916 14.332 C 11.299 14.678,11.788 14.606,12.278 14.131 L 12.498 13.918 13.539 14.959 L 14.580 16.000 14.160 16.000 C 12.107 15.998,9.771 15.036,7.360 13.198 C 6.734 12.721,5.915 12.035,5.929 12.000 C 5.990 11.849,8.403 10.001,8.540 10.000 C 8.563 10.000,8.905 10.324,9.300 10.720 M17.614 10.057 C 17.221 10.180,17.039 10.435,17.009 10.906 C 16.962 11.621,17.306 12.000,18.000 12.000 C 18.698 12.000,19.043 11.616,18.989 10.900 C 18.963 10.563,18.859 10.327,18.678 10.199 C 18.414 10.010,17.957 9.950,17.614 10.057 " stroke="none" fill="black" fill-rule="evenodd"></path></svg>