<svg xmlns="http://www.w3.org/2000/svg" width="24" height="24" viewBox="0 0 24 24" fill="none" stroke="currentColor" stroke-width="2" stroke-linecap="round" stroke-linejoin="round" class="icon icon-tabler icons-tabler-outline icon-tabler-hexagonal-prism"><path d="M7.980 2.024 C 7.936 2.033,7.801 2.060,7.680 2.084 C 7.230 2.174,6.845 2.405,5.017 3.685 C 4.032 4.375,3.103 5.055,2.953 5.195 C 2.497 5.620,2.190 6.169,2.058 6.794 C 1.974 7.189,1.974 16.811,2.058 17.206 C 2.190 17.830,2.497 18.379,2.952 18.805 C 3.102 18.945,3.943 19.564,4.822 20.180 C 6.808 21.572,6.787 21.557,7.243 21.789 L 7.620 21.980 12.000 21.980 L 16.380 21.980 16.782 21.778 C 17.274 21.530,20.648 19.179,21.048 18.805 C 21.509 18.374,21.805 17.840,21.940 17.201 C 22.027 16.787,22.029 7.205,21.942 6.794 C 21.808 6.159,21.496 5.609,21.028 5.180 C 20.648 4.831,17.350 2.522,16.940 2.317 C 16.323 2.009,16.614 2.027,12.100 2.017 C 9.878 2.012,8.024 2.015,7.980 2.024 M15.895 4.043 C 16.013 4.073,16.596 4.458,17.820 5.317 C 18.786 5.994,19.581 6.564,19.586 6.584 C 19.598 6.624,16.621 8.719,16.324 8.880 L 16.140 8.980 12.000 8.980 C 7.937 8.980,7.857 8.979,7.708 8.900 C 7.446 8.762,4.402 6.622,4.413 6.584 C 4.435 6.511,7.942 4.082,8.079 4.046 C 8.285 3.991,15.677 3.988,15.895 4.043 M5.294 9.678 C 5.984 10.161,6.649 10.606,6.773 10.668 L 6.999 10.780 7.000 15.013 C 7.000 17.342,6.986 19.241,6.969 19.233 C 6.854 19.184,4.394 17.431,4.274 17.312 C 3.989 17.030,4.000 17.216,4.000 12.773 C 4.000 10.588,4.009 8.800,4.021 8.800 C 4.032 8.800,4.605 9.195,5.294 9.678 M20.000 12.773 C 20.000 17.177,20.009 17.015,19.742 17.290 C 19.632 17.403,17.604 18.858,17.110 19.178 L 17.000 19.249 17.000 15.007 L 17.000 10.765 17.086 10.738 C 17.243 10.688,17.726 10.370,18.840 9.583 C 19.445 9.155,19.953 8.804,19.970 8.803 C 19.987 8.801,20.000 10.588,20.000 12.773 M15.000 15.500 L 15.000 20.000 12.000 20.000 L 9.000 20.000 9.000 15.500 L 9.000 11.000 12.000 11.000 L 15.000 11.000 15.000 15.500 " stroke="none" fill="black" fill-rule="evenodd"></path></svg>