<svg xmlns="http://www.w3.org/2000/svg" width="24" height="24" viewBox="0 0 24 24" fill="none" stroke="currentColor" stroke-width="2" stroke-linecap="round" stroke-linejoin="round" class="icon icon-tabler icons-tabler-outline icon-tabler-brand-denodo"><path d="M10.614 2.057 C 10.377 2.131,10.212 2.261,10.109 2.453 C 10.022 2.616,10.020 2.650,10.020 4.000 L 10.020 5.380 10.120 5.558 C 10.230 5.755,10.414 5.898,10.635 5.959 C 10.826 6.012,13.174 6.012,13.365 5.959 C 13.586 5.898,13.770 5.755,13.880 5.558 L 13.980 5.380 13.980 4.000 C 13.980 2.650,13.978 2.616,13.891 2.453 C 13.785 2.256,13.622 2.131,13.371 2.055 C 13.117 1.979,10.859 1.981,10.614 2.057 M4.158 5.713 C 4.060 5.775,3.914 5.924,3.834 6.043 C 3.649 6.318,2.777 7.834,2.677 8.054 C 2.559 8.313,2.575 8.624,2.715 8.846 C 2.779 8.946,2.883 9.065,2.947 9.111 C 3.122 9.235,4.791 10.196,5.020 10.305 C 5.442 10.504,5.853 10.395,6.129 10.011 C 6.318 9.748,7.280 8.065,7.344 7.886 C 7.437 7.628,7.415 7.359,7.285 7.154 C 7.221 7.054,7.118 6.936,7.055 6.892 C 6.826 6.732,5.021 5.704,4.882 5.654 C 4.630 5.564,4.358 5.586,4.158 5.713 M19.118 5.654 C 18.979 5.704,17.174 6.732,16.945 6.892 C 16.882 6.936,16.779 7.054,16.715 7.154 C 16.565 7.391,16.558 7.689,16.695 7.980 C 16.828 8.262,17.778 9.896,17.906 10.064 C 18.161 10.398,18.582 10.493,18.980 10.305 C 19.209 10.196,20.878 9.235,21.053 9.111 C 21.117 9.065,21.221 8.946,21.285 8.846 C 21.415 8.641,21.437 8.372,21.344 8.114 C 21.280 7.935,20.318 6.252,20.129 5.989 C 19.877 5.639,19.506 5.516,19.118 5.654 M10.614 10.057 C 10.377 10.131,10.212 10.261,10.109 10.453 C 10.022 10.616,10.020 10.650,10.020 12.000 L 10.020 13.380 10.120 13.558 C 10.230 13.755,10.414 13.898,10.635 13.959 C 10.826 14.012,13.174 14.012,13.365 13.959 C 13.586 13.898,13.770 13.755,13.880 13.558 L 13.980 13.380 13.980 12.000 C 13.980 10.650,13.978 10.616,13.891 10.453 C 13.785 10.256,13.622 10.131,13.371 10.055 C 13.117 9.979,10.859 9.981,10.614 10.057 M5.118 13.654 C 4.979 13.704,3.174 14.732,2.945 14.892 C 2.882 14.936,2.779 15.054,2.715 15.154 C 2.565 15.391,2.558 15.689,2.695 15.980 C 2.828 16.262,3.778 17.896,3.906 18.064 C 4.161 18.398,4.582 18.493,4.980 18.305 C 5.209 18.196,6.878 17.235,7.053 17.111 C 7.117 17.065,7.221 16.946,7.285 16.846 C 7.415 16.641,7.437 16.372,7.344 16.114 C 7.280 15.935,6.318 14.252,6.129 13.989 C 5.877 13.639,5.506 13.516,5.118 13.654 M18.158 13.713 C 18.060 13.775,17.914 13.924,17.834 14.043 C 17.649 14.318,16.777 15.834,16.677 16.054 C 16.559 16.313,16.575 16.624,16.715 16.846 C 16.779 16.946,16.883 17.065,16.947 17.111 C 17.122 17.235,18.791 18.196,19.020 18.305 C 19.442 18.504,19.853 18.395,20.129 18.011 C 20.318 17.748,21.280 16.065,21.344 15.886 C 21.437 15.628,21.415 15.359,21.285 15.154 C 21.221 15.054,21.118 14.936,21.055 14.892 C 20.826 14.732,19.021 13.704,18.882 13.654 C 18.630 13.564,18.358 13.586,18.158 13.713 M10.614 18.057 C 10.377 18.131,10.212 18.261,10.109 18.453 C 10.022 18.616,10.020 18.650,10.020 20.000 L 10.020 21.380 10.120 21.558 C 10.230 21.755,10.414 21.898,10.635 21.959 C 10.826 22.012,13.174 22.012,13.365 21.959 C 13.586 21.898,13.770 21.755,13.880 21.558 L 13.980 21.380 13.980 20.000 C 13.980 18.650,13.978 18.616,13.891 18.453 C 13.785 18.256,13.622 18.131,13.371 18.055 C 13.117 17.979,10.859 17.981,10.614 18.057 " stroke="none" fill="black" fill-rule="evenodd"></path></svg>