<svg xmlns="http://www.w3.org/2000/svg" width="24" height="24" viewBox="0 0 24 24" fill="none" stroke="currentColor" stroke-width="2" stroke-linecap="round" stroke-linejoin="round" class="icon icon-tabler icons-tabler-outline icon-tabler-device-imac-code"><path d="M3.477 2.073 C 2.806 2.249,2.238 2.823,2.060 3.508 C 2.008 3.706,2.000 4.577,2.000 10.000 C 2.000 16.828,1.988 16.462,2.225 16.930 C 2.361 17.199,2.801 17.639,3.070 17.775 C 3.514 18.000,3.518 18.000,6.301 18.000 L 8.864 18.000 8.742 18.990 L 8.619 19.980 8.137 20.001 C 7.724 20.018,7.627 20.036,7.458 20.123 C 7.119 20.297,6.978 20.606,7.009 21.104 C 7.038 21.563,7.250 21.852,7.635 21.959 C 7.723 21.984,8.551 22.000,9.743 22.000 C 11.924 22.000,11.995 21.993,12.229 21.751 C 12.418 21.556,12.486 21.355,12.486 20.997 C 12.486 20.642,12.402 20.406,12.215 20.234 C 12.020 20.054,11.779 20.000,11.179 20.000 C 10.882 20.000,10.640 19.987,10.640 19.970 C 10.640 19.953,10.694 19.517,10.760 19.000 C 10.826 18.483,10.880 18.047,10.880 18.030 C 10.880 18.014,11.066 18.000,11.293 18.000 C 11.795 18.000,12.055 17.931,12.229 17.751 C 12.418 17.556,12.486 17.355,12.486 16.997 C 12.486 16.491,12.303 16.196,11.909 16.064 C 11.739 16.007,11.287 16.000,7.859 16.000 L 4.000 16.000 4.000 15.000 L 4.000 14.001 12.690 13.990 L 21.380 13.980 21.540 13.894 C 21.757 13.777,21.860 13.656,21.936 13.429 C 21.993 13.257,22.000 12.739,21.999 8.509 C 21.999 3.382,22.004 3.523,21.781 3.083 C 21.646 2.816,21.297 2.449,21.017 2.281 C 20.523 1.983,21.217 2.005,12.000 2.005 C 4.321 2.005,3.721 2.009,3.477 2.073 M20.000 8.000 L 20.000 12.000 12.000 12.000 L 4.000 12.000 4.000 8.000 L 4.000 4.000 12.000 4.000 L 20.000 4.000 20.000 8.000 M16.620 16.046 C 16.390 16.165,14.153 18.411,14.040 18.637 C 13.986 18.744,13.951 18.889,13.951 19.000 C 13.951 19.334,14.057 19.468,15.294 20.706 C 16.532 21.943,16.666 22.049,17.000 22.049 C 17.477 22.049,18.049 21.477,18.049 21.000 C 18.049 20.693,17.921 20.513,17.147 19.730 L 16.425 19.000 17.147 18.270 C 17.580 17.832,17.905 17.469,17.959 17.363 C 18.137 17.012,18.048 16.646,17.701 16.299 C 17.361 15.959,16.967 15.867,16.620 16.046 M19.626 16.045 C 19.257 16.239,18.951 16.673,18.951 17.000 C 18.951 17.307,19.079 17.487,19.853 18.270 L 20.575 19.000 19.853 19.730 C 19.420 20.168,19.095 20.531,19.041 20.637 C 18.863 20.988,18.952 21.354,19.299 21.701 C 19.646 22.048,20.010 22.137,20.363 21.960 C 20.607 21.838,22.838 19.607,22.960 19.363 C 23.076 19.132,23.076 18.868,22.960 18.637 C 22.842 18.400,20.608 16.162,20.372 16.044 C 20.152 15.934,19.835 15.935,19.626 16.045 " stroke="none" fill="black" fill-rule="evenodd"></path></svg>