<svg xmlns="http://www.w3.org/2000/svg" width="24" height="24" viewBox="0 0 24 24" fill="none" stroke="currentColor" stroke-width="2" stroke-linecap="round" stroke-linejoin="round" class="icon icon-tabler icons-tabler-outline icon-tabler-file-sad"><path d="M6.499 2.043 C 5.383 2.230,4.461 3.048,4.114 4.160 L 4.020 4.460 4.020 12.000 L 4.020 19.540 4.114 19.840 C 4.422 20.827,5.173 21.578,6.160 21.886 L 6.460 21.980 12.000 21.980 L 17.540 21.980 17.840 21.886 C 18.827 21.578,19.578 20.827,19.886 19.840 L 19.980 19.540 19.980 13.580 L 19.980 7.620 19.890 7.452 C 19.841 7.360,19.724 7.231,19.630 7.165 C 19.498 7.073,15.263 2.838,14.719 2.254 C 14.473 1.991,14.626 2.000,10.463 2.005 C 8.393 2.007,6.609 2.025,6.499 2.043 M13.000 5.632 C 13.000 7.399,13.010 7.507,13.225 7.930 C 13.361 8.199,13.801 8.639,14.070 8.775 C 14.493 8.990,14.601 9.000,16.368 9.000 L 18.000 9.000 18.000 14.054 C 18.000 18.220,17.990 19.139,17.945 19.290 C 17.872 19.533,17.707 19.740,17.484 19.872 L 17.300 19.980 12.000 19.980 L 6.700 19.980 6.516 19.872 C 6.415 19.813,6.284 19.700,6.225 19.623 C 5.986 19.309,6.000 19.795,6.000 12.022 C 6.000 4.005,5.975 4.631,6.304 4.303 C 6.613 3.994,6.464 4.006,9.930 4.003 L 13.000 4.000 13.000 5.632 M15.800 6.220 L 16.579 7.000 15.790 7.000 L 15.000 7.000 15.000 6.220 C 15.000 5.791,15.005 5.440,15.010 5.440 C 15.016 5.440,15.371 5.791,15.800 6.220 M9.614 13.055 C 9.220 13.184,9.039 13.437,9.009 13.900 C 8.978 14.381,9.119 14.699,9.442 14.880 C 9.597 14.967,9.669 14.980,10.000 14.980 C 10.312 14.980,10.408 14.964,10.540 14.894 C 10.866 14.718,11.000 14.459,11.000 14.000 C 11.000 13.357,10.713 13.048,10.083 13.016 C 9.893 13.006,9.718 13.021,9.614 13.055 M13.614 13.055 C 13.220 13.184,13.039 13.437,13.009 13.900 C 12.978 14.381,13.119 14.699,13.442 14.880 C 13.597 14.967,13.669 14.980,14.000 14.980 C 14.312 14.980,14.408 14.964,14.540 14.894 C 14.866 14.718,15.000 14.459,15.000 14.000 C 15.000 13.357,14.713 13.048,14.083 13.016 C 13.893 13.006,13.718 13.021,13.614 13.055 M11.580 16.404 C 10.908 16.457,10.299 16.652,9.714 17.003 C 9.339 17.228,9.112 17.431,9.021 17.623 C 8.878 17.925,8.995 18.377,9.303 18.718 C 9.671 19.125,10.002 19.144,10.624 18.791 C 11.098 18.523,11.324 18.442,11.710 18.405 C 12.064 18.370,12.511 18.410,12.780 18.500 C 12.890 18.537,13.158 18.668,13.376 18.791 C 13.851 19.060,14.114 19.106,14.386 18.967 C 14.728 18.793,15.039 18.308,15.040 17.948 C 15.040 17.592,14.827 17.322,14.291 17.004 C 13.489 16.527,12.579 16.326,11.580 16.404 " stroke="none" fill="black" fill-rule="evenodd"></path></svg>