<svg xmlns="http://www.w3.org/2000/svg" width="24" height="24" viewBox="0 0 24 24" fill="none" stroke="currentColor" stroke-width="2" stroke-linecap="round" stroke-linejoin="round" class="icon icon-tabler icons-tabler-outline icon-tabler-hexagon-number-7"><path d="M11.323 2.102 C 11.181 2.133,10.936 2.220,10.777 2.295 C 10.530 2.412,4.939 5.719,4.346 6.098 C 4.004 6.317,3.733 6.588,3.482 6.964 C 3.211 7.368,3.067 7.766,3.002 8.286 C 2.946 8.733,2.945 15.065,3.001 15.512 C 3.050 15.900,3.211 16.380,3.403 16.707 C 3.478 16.835,3.684 17.085,3.860 17.262 C 4.153 17.556,4.446 17.753,7.320 19.586 C 9.047 20.688,10.559 21.640,10.680 21.701 C 11.065 21.896,11.347 21.965,11.861 21.988 C 12.269 22.007,12.394 21.997,12.680 21.925 C 12.865 21.878,13.126 21.789,13.259 21.726 C 13.454 21.635,18.340 18.540,19.619 17.697 C 20.424 17.167,20.889 16.409,20.999 15.449 C 21.051 14.998,21.052 8.824,21.000 8.335 C 20.906 7.442,20.502 6.717,19.803 6.184 C 19.547 5.989,13.761 2.536,13.345 2.330 C 12.925 2.122,12.544 2.039,12.024 2.043 C 11.780 2.045,11.464 2.071,11.323 2.102 M12.400 4.099 C 12.625 4.184,18.120 7.471,18.282 7.617 C 18.363 7.691,18.493 7.771,18.571 7.797 C 18.714 7.844,18.876 8.035,18.958 8.253 C 18.986 8.329,19.000 9.512,18.999 11.893 C 18.998 15.229,18.994 15.429,18.925 15.580 C 18.884 15.668,18.790 15.798,18.716 15.869 C 18.580 15.998,12.719 19.757,12.399 19.920 C 12.202 20.021,11.869 20.038,11.671 19.957 C 11.545 19.906,5.590 16.123,5.336 15.933 C 5.268 15.882,5.160 15.746,5.096 15.630 L 4.980 15.420 4.980 11.900 L 4.980 8.380 5.070 8.198 C 5.119 8.098,5.218 7.961,5.290 7.894 C 5.423 7.768,11.444 4.173,11.660 4.090 C 11.905 3.996,12.134 3.999,12.400 4.099 M9.614 7.057 C 9.377 7.131,9.212 7.261,9.109 7.453 C 9.035 7.592,9.020 7.684,9.020 8.000 C 9.020 8.331,9.033 8.403,9.120 8.558 C 9.230 8.755,9.414 8.898,9.635 8.959 C 9.720 8.983,10.390 9.000,11.253 9.000 C 12.637 9.000,12.724 9.004,12.704 9.070 C 12.693 9.109,12.304 10.658,11.841 12.514 C 11.256 14.853,10.997 15.959,10.995 16.120 C 10.989 16.528,11.205 16.789,11.672 16.940 C 12.263 17.130,12.720 16.939,12.913 16.420 C 12.938 16.354,13.419 14.455,13.983 12.200 C 14.925 8.429,15.006 8.080,14.985 7.852 C 14.946 7.413,14.761 7.173,14.371 7.055 C 14.112 6.977,9.864 6.979,9.614 7.057 " stroke="none" fill="black" fill-rule="evenodd"></path></svg>