<svg xmlns="http://www.w3.org/2000/svg" width="24" height="24" viewBox="0 0 24 24" fill="none" stroke="currentColor" stroke-width="2" stroke-linecap="round" stroke-linejoin="round" class="icon icon-tabler icons-tabler-outline icon-tabler-navigation-x"><path d="M11.731 2.036 C 11.481 2.129,11.311 2.244,11.205 2.394 C 11.094 2.549,3.206 19.639,3.088 19.980 C 2.808 20.787,3.255 21.654,4.091 21.923 C 4.581 22.081,4.511 22.100,8.452 20.761 L 12.005 19.554 12.716 19.797 C 13.459 20.052,13.701 20.092,13.971 20.003 C 14.247 19.912,14.512 19.496,14.585 19.039 C 14.642 18.683,14.438 18.342,14.061 18.165 C 13.966 18.120,13.515 17.957,13.059 17.802 C 12.373 17.568,12.188 17.520,11.985 17.523 C 11.773 17.525,11.313 17.671,8.600 18.594 C 6.873 19.182,5.455 19.651,5.449 19.638 C 5.434 19.606,11.971 5.440,12.000 5.440 C 12.012 5.440,12.867 7.270,13.899 9.508 C 14.932 11.745,15.831 13.647,15.898 13.734 C 16.158 14.073,16.557 14.142,17.013 13.929 C 17.378 13.758,17.548 13.594,17.621 13.341 C 17.670 13.173,17.674 13.091,17.639 12.935 C 17.593 12.728,12.943 2.605,12.777 2.350 C 12.552 2.005,12.144 1.883,11.731 2.036 M16.626 16.045 C 16.257 16.239,15.951 16.673,15.951 17.000 C 15.951 17.323,16.068 17.478,17.103 18.520 L 18.077 19.500 17.103 20.480 C 16.068 21.522,15.951 21.677,15.951 22.000 C 15.951 22.477,16.523 23.049,17.000 23.049 C 17.323 23.049,17.478 22.932,18.520 21.897 L 19.500 20.923 20.480 21.897 C 21.522 22.932,21.677 23.049,22.000 23.049 C 22.477 23.049,23.049 22.477,23.049 22.000 C 23.049 21.677,22.932 21.522,21.897 20.480 L 20.923 19.500 21.897 18.520 C 22.518 17.895,22.903 17.476,22.960 17.363 C 23.137 17.011,23.048 16.646,22.701 16.299 C 22.360 15.958,21.979 15.868,21.628 16.045 C 21.527 16.096,21.072 16.515,20.480 17.103 L 19.500 18.077 18.520 17.103 C 17.927 16.514,17.474 16.096,17.372 16.045 C 17.152 15.934,16.835 15.934,16.626 16.045 " stroke="none" fill="black" fill-rule="evenodd"></path></svg>