<svg xmlns="http://www.w3.org/2000/svg" width="24" height="24" viewBox="0 0 24 24" fill="none" stroke="currentColor" stroke-width="2" stroke-linecap="round" stroke-linejoin="round" class="icon icon-tabler icons-tabler-outline icon-tabler-rewind-backward-10"><path d="M6.620 2.046 C 6.528 2.094,5.826 2.758,4.960 3.618 C 4.135 4.438,3.399 5.150,3.324 5.201 C 3.149 5.321,2.951 5.745,2.951 6.000 C 2.951 6.238,3.150 6.682,3.303 6.784 C 3.366 6.826,4.101 7.537,4.938 8.365 C 5.949 9.365,6.520 9.901,6.637 9.960 C 6.989 10.137,7.354 10.048,7.701 9.701 C 8.048 9.354,8.137 8.988,7.959 8.637 C 7.905 8.531,7.580 8.167,7.145 7.728 L 6.422 6.997 11.041 7.011 C 16.103 7.026,15.794 7.012,16.570 7.265 C 18.042 7.746,19.257 8.974,19.731 10.460 C 19.918 11.046,19.966 11.372,19.965 12.053 C 19.962 13.375,19.456 14.586,18.511 15.531 C 17.776 16.266,16.981 16.683,15.835 16.936 C 15.205 17.075,14.975 17.347,15.008 17.917 C 15.020 18.131,15.057 18.289,15.129 18.448 C 15.385 19.007,15.896 19.054,17.200 18.636 C 18.323 18.275,19.514 17.472,20.310 16.540 C 21.889 14.689,22.394 12.099,21.624 9.812 C 21.234 8.656,20.692 7.802,19.807 6.955 C 18.912 6.098,17.813 5.486,16.680 5.216 C 15.868 5.022,16.068 5.029,11.104 5.012 L 6.429 4.996 7.149 4.268 C 7.581 3.832,7.905 3.469,7.959 3.363 C 8.137 3.012,8.048 2.646,7.701 2.299 C 7.361 1.959,6.967 1.867,6.620 2.046 M5.614 13.057 C 5.377 13.131,5.212 13.261,5.109 13.453 L 5.020 13.620 5.009 16.912 C 5.002 19.060,5.012 20.257,5.039 20.356 C 5.144 20.747,5.434 20.961,5.896 20.991 C 6.381 21.022,6.699 20.882,6.880 20.558 L 6.980 20.380 6.980 17.000 L 6.980 13.620 6.891 13.453 C 6.842 13.362,6.746 13.247,6.678 13.199 C 6.414 13.010,5.957 12.950,5.614 13.057 M9.960 13.062 C 9.605 13.138,9.107 13.393,8.832 13.639 C 8.532 13.907,8.239 14.352,8.118 14.722 L 8.020 15.020 8.020 17.020 L 8.020 19.020 8.131 19.320 C 8.399 20.044,8.964 20.608,9.680 20.868 C 9.948 20.965,10.035 20.976,10.500 20.976 C 10.965 20.976,11.052 20.965,11.320 20.868 C 12.036 20.608,12.601 20.044,12.869 19.320 L 12.980 19.020 12.980 17.000 L 12.980 14.980 12.869 14.680 C 12.430 13.486,11.192 12.798,9.960 13.062 M10.724 15.062 C 10.790 15.096,10.879 15.182,10.922 15.252 C 10.996 15.373,11.000 15.464,11.000 17.000 C 11.000 18.536,10.996 18.627,10.922 18.748 C 10.722 19.076,10.278 19.076,10.078 18.748 C 10.004 18.627,10.000 18.536,10.000 17.008 C 10.000 15.228,9.999 15.232,10.252 15.078 C 10.406 14.984,10.563 14.979,10.724 15.062 " stroke="none" fill="black" fill-rule="evenodd"></path></svg>