<svg xmlns="http://www.w3.org/2000/svg" width="24" height="24" viewBox="0 0 24 24" fill="none" stroke="currentColor" stroke-width="2" stroke-linecap="round" stroke-linejoin="round" class="icon icon-tabler icons-tabler-outline icon-tabler-arrow-down-from-arc"><path d="M11.530 2.083 C 11.393 2.150,11.249 2.252,11.210 2.311 C 11.172 2.369,10.237 3.327,9.134 4.439 C 7.766 5.818,7.101 6.516,7.040 6.637 C 6.863 6.989,6.952 7.354,7.299 7.701 C 7.646 8.048,8.011 8.137,8.363 7.960 C 8.479 7.901,8.961 7.452,9.770 6.647 L 11.000 5.423 11.000 10.321 C 11.000 13.480,11.015 15.271,11.041 15.365 C 11.148 15.750,11.437 15.962,11.896 15.991 C 12.381 16.022,12.699 15.882,12.880 15.558 L 12.980 15.380 12.991 10.402 L 13.002 5.424 14.231 6.648 C 15.039 7.452,15.521 7.901,15.637 7.960 C 15.989 8.137,16.354 8.048,16.701 7.701 C 17.048 7.354,17.137 6.989,16.960 6.637 C 16.899 6.516,16.234 5.818,14.866 4.439 C 13.763 3.327,12.828 2.369,12.789 2.310 C 12.751 2.252,12.604 2.149,12.464 2.082 C 12.120 1.918,11.871 1.918,11.530 2.083 M2.614 11.057 C 2.377 11.131,2.212 11.261,2.109 11.453 C 2.027 11.606,2.020 11.673,2.022 12.260 C 2.028 13.938,2.539 15.691,3.470 17.220 C 4.015 18.116,5.008 19.235,5.800 19.847 C 7.242 20.961,8.787 21.624,10.600 21.907 C 11.247 22.008,12.753 22.008,13.400 21.907 C 15.214 21.624,16.762 20.959,18.200 19.847 C 18.637 19.509,19.509 18.637,19.847 18.200 C 21.217 16.429,21.969 14.339,21.977 12.280 C 21.980 11.671,21.973 11.607,21.891 11.453 C 21.785 11.256,21.622 11.131,21.371 11.055 C 21.021 10.950,20.588 11.009,20.322 11.199 C 20.090 11.364,20.031 11.550,19.993 12.240 C 19.885 14.174,19.292 15.738,18.145 17.110 C 17.389 18.015,16.519 18.695,15.471 19.200 C 13.267 20.265,10.733 20.265,8.529 19.200 C 6.942 18.434,5.672 17.189,4.870 15.614 C 4.333 14.558,4.086 13.589,4.004 12.217 C 3.965 11.546,3.905 11.360,3.678 11.199 C 3.414 11.010,2.957 10.950,2.614 11.057 " stroke="none" fill="black" fill-rule="evenodd"></path></svg>