<svg xmlns="http://www.w3.org/2000/svg" width="24" height="24" viewBox="0 0 24 24" fill="none" stroke="currentColor" stroke-width="2" stroke-linecap="round" stroke-linejoin="round" class="icon icon-tabler icons-tabler-outline icon-tabler-home-heart"><path d="M11.620 2.046 C 11.382 2.168,2.155 11.405,2.039 11.637 C 1.830 12.056,2.036 12.589,2.514 12.871 C 2.693 12.976,2.726 12.981,3.348 12.993 L 3.997 13.007 4.009 16.293 L 4.021 19.580 4.114 19.860 C 4.442 20.839,5.161 21.558,6.140 21.886 L 6.420 21.979 9.810 21.991 C 12.058 21.999,13.252 21.989,13.354 21.962 C 13.583 21.900,13.768 21.758,13.880 21.558 C 13.967 21.402,13.980 21.332,13.979 21.000 C 13.978 20.567,13.898 20.355,13.678 20.199 C 13.416 20.012,13.290 20.000,11.594 20.000 L 10.000 20.000 10.000 17.447 C 10.000 14.537,9.993 14.614,10.304 14.303 C 10.595 14.012,10.700 13.994,12.086 14.008 L 13.260 14.020 13.563 14.171 C 13.924 14.352,14.084 14.383,14.316 14.321 C 14.660 14.229,15.039 13.752,15.104 13.329 C 15.163 12.946,14.886 12.594,14.308 12.318 C 13.698 12.027,13.642 12.020,11.980 12.020 C 10.555 12.020,10.488 12.023,10.178 12.112 C 9.219 12.387,8.446 13.147,8.115 14.140 L 8.021 14.420 8.009 17.213 L 7.996 20.007 7.348 19.993 C 6.728 19.981,6.692 19.975,6.516 19.872 C 6.328 19.761,6.158 19.572,6.070 19.373 C 6.032 19.286,6.015 18.375,6.000 15.440 L 5.980 11.620 5.890 11.451 C 5.803 11.289,5.556 11.080,5.451 11.080 C 5.423 11.080,5.400 11.066,5.400 11.050 C 5.400 11.033,6.885 9.535,8.700 7.720 L 12.000 4.421 16.230 8.646 C 19.248 11.662,20.511 12.897,20.637 12.961 C 20.990 13.137,21.355 13.048,21.701 12.701 C 22.047 12.355,22.136 11.990,21.961 11.637 C 21.839 11.393,12.615 2.165,12.372 2.044 C 12.151 1.934,11.836 1.935,11.620 2.046 M17.279 15.037 C 16.154 15.193,15.216 16.133,15.036 17.283 C 14.942 17.886,15.077 18.586,15.389 19.117 C 15.539 19.372,16.057 19.928,17.730 21.628 C 18.530 22.441,18.692 22.560,19.000 22.560 C 19.304 22.560,19.461 22.444,20.284 21.611 C 22.454 19.413,22.607 19.239,22.811 18.720 C 23.328 17.407,22.753 15.892,21.507 15.287 C 21.074 15.076,20.828 15.023,20.300 15.028 C 19.846 15.032,19.493 15.111,19.153 15.284 L 19.007 15.358 18.753 15.245 C 18.614 15.183,18.419 15.112,18.320 15.089 C 18.063 15.027,17.537 15.001,17.279 15.037 M17.831 17.038 C 17.903 17.058,18.083 17.187,18.231 17.323 C 18.539 17.607,18.772 17.727,19.018 17.727 C 19.249 17.727,19.467 17.608,19.799 17.303 C 20.104 17.023,20.254 16.968,20.516 17.039 C 20.680 17.083,20.895 17.289,20.963 17.467 C 21.021 17.621,21.005 17.846,20.922 18.020 C 20.877 18.116,20.478 18.555,19.923 19.120 L 19.000 20.060 18.118 19.160 C 17.633 18.665,17.192 18.196,17.138 18.119 C 16.926 17.811,16.993 17.370,17.285 17.150 C 17.478 17.004,17.616 16.976,17.831 17.038 " stroke="none" fill="black" fill-rule="evenodd"></path></svg>