<svg xmlns="http://www.w3.org/2000/svg" width="24" height="24" viewBox="0 0 24 24" fill="none" stroke="currentColor" stroke-width="2" stroke-linecap="round" stroke-linejoin="round" class="icon icon-tabler icons-tabler-outline icon-tabler-letter-case-upper"><path d="M5.900 4.045 C 5.211 4.131,4.422 4.450,3.857 4.871 C 2.880 5.598,2.269 6.586,2.062 7.775 C 2.008 8.084,2.000 8.849,2.000 13.675 C 2.000 17.266,2.015 19.271,2.041 19.365 C 2.148 19.750,2.437 19.962,2.896 19.991 C 3.381 20.022,3.699 19.882,3.880 19.558 L 3.980 19.380 3.991 16.690 L 4.003 14.000 6.501 14.000 L 9.000 14.000 9.000 16.610 C 9.000 18.235,9.016 19.275,9.041 19.365 C 9.148 19.750,9.437 19.962,9.896 19.991 C 10.381 20.022,10.699 19.882,10.880 19.558 L 10.980 19.380 10.992 13.800 C 11.000 9.822,10.991 8.129,10.959 7.904 C 10.608 5.436,8.378 3.736,5.900 4.045 M16.900 4.045 C 16.211 4.131,15.422 4.450,14.857 4.871 C 13.880 5.598,13.269 6.586,13.062 7.775 C 13.008 8.084,13.000 8.849,13.000 13.675 C 13.000 17.266,13.015 19.271,13.041 19.365 C 13.148 19.750,13.437 19.962,13.896 19.991 C 14.381 20.022,14.699 19.882,14.880 19.558 L 14.980 19.380 14.991 16.690 L 15.003 14.000 17.501 14.000 L 20.000 14.000 20.000 16.610 C 20.000 18.235,20.016 19.275,20.041 19.365 C 20.148 19.750,20.437 19.962,20.896 19.991 C 21.381 20.022,21.699 19.882,21.880 19.558 L 21.980 19.380 21.992 13.800 C 22.000 9.822,21.991 8.129,21.959 7.904 C 21.608 5.436,19.378 3.736,16.900 4.045 M7.020 6.060 C 7.741 6.211,8.395 6.713,8.715 7.362 C 8.989 7.918,8.999 8.012,8.999 10.130 L 9.000 12.000 6.500 12.000 L 4.000 12.000 4.001 10.130 C 4.001 8.012,4.011 7.918,4.285 7.362 C 4.774 6.371,5.914 5.828,7.020 6.060 M18.020 6.060 C 18.741 6.211,19.395 6.713,19.715 7.362 C 19.989 7.918,19.999 8.012,19.999 10.130 L 20.000 12.000 17.500 12.000 L 15.000 12.000 15.001 10.130 C 15.001 8.012,15.011 7.918,15.285 7.362 C 15.774 6.371,16.914 5.828,18.020 6.060 " stroke="none" fill="black" fill-rule="evenodd"></path></svg>