<svg xmlns="http://www.w3.org/2000/svg" width="24" height="24" viewBox="0 0 24 24" fill="none" stroke="currentColor" stroke-width="2" stroke-linecap="round" stroke-linejoin="round" class="icon icon-tabler icons-tabler-outline icon-tabler-brightness-2"><path d="M11.680 2.523 C 11.548 2.583,11.179 2.925,10.299 3.802 L 9.098 5.000 7.455 5.000 C 5.706 5.000,5.585 5.011,5.322 5.199 C 5.254 5.247,5.158 5.362,5.109 5.453 C 5.021 5.617,5.020 5.648,5.009 7.360 L 4.998 9.100 3.800 10.300 C 2.556 11.547,2.442 11.690,2.441 12.000 C 2.440 12.314,2.576 12.485,3.816 13.720 L 5.000 14.899 5.000 16.560 C 5.000 17.549,5.017 18.279,5.041 18.365 C 5.102 18.586,5.245 18.770,5.442 18.880 L 5.620 18.980 7.360 18.991 L 9.100 19.002 10.300 20.200 C 11.547 21.444,11.690 21.558,12.000 21.559 C 12.314 21.560,12.485 21.424,13.720 20.184 L 14.899 19.000 16.560 19.000 C 17.549 19.000,18.279 18.983,18.365 18.959 C 18.586 18.898,18.770 18.755,18.880 18.558 L 18.980 18.380 18.991 16.640 L 19.003 14.900 20.200 13.700 C 21.444 12.452,21.558 12.310,21.558 12.000 C 21.558 11.690,21.444 11.548,20.200 10.300 L 19.003 9.100 18.991 7.360 C 18.980 5.648,18.979 5.617,18.891 5.453 C 18.842 5.362,18.746 5.247,18.678 5.199 C 18.415 5.011,18.294 5.000,16.545 5.000 L 14.902 5.000 13.701 3.802 C 12.453 2.557,12.308 2.442,12.000 2.442 C 11.923 2.442,11.779 2.478,11.680 2.523 M12.960 5.864 C 13.662 6.569,13.951 6.832,14.100 6.904 C 14.299 6.999,14.310 6.999,15.650 7.000 L 17.000 7.000 17.001 8.350 C 17.002 9.617,17.007 9.711,17.083 9.880 C 17.141 10.010,17.433 10.330,18.131 11.030 L 19.099 12.000 18.131 12.970 C 17.433 13.670,17.141 13.990,17.083 14.120 C 17.007 14.289,17.002 14.383,17.001 15.648 L 17.000 16.996 15.610 17.008 C 14.349 17.019,14.207 17.027,14.080 17.094 C 14.003 17.135,13.503 17.602,12.970 18.134 L 12.000 19.099 11.030 18.134 C 10.497 17.602,9.997 17.135,9.920 17.094 C 9.793 17.027,9.651 17.019,8.390 17.008 L 7.000 16.996 6.999 15.648 C 6.998 14.383,6.993 14.289,6.917 14.120 C 6.859 13.990,6.567 13.670,5.869 12.970 L 4.901 12.000 5.869 11.030 C 6.567 10.330,6.859 10.010,6.917 9.880 C 6.993 9.711,6.998 9.617,6.999 8.350 L 7.000 7.000 8.350 7.000 C 9.690 6.999,9.701 6.999,9.900 6.904 C 10.049 6.832,10.338 6.569,11.040 5.864 C 11.557 5.345,11.989 4.920,12.000 4.920 C 12.011 4.920,12.443 5.345,12.960 5.864 M11.358 8.061 C 10.230 8.237,9.143 8.974,8.569 9.953 C 7.320 12.083,8.233 14.785,10.512 15.704 C 12.558 16.528,14.877 15.538,15.704 13.488 C 16.090 12.530,16.090 11.469,15.705 10.516 C 15.172 9.197,14.001 8.269,12.605 8.058 C 12.144 7.989,11.816 7.990,11.358 8.061 M12.523 10.073 C 13.262 10.266,13.850 10.924,13.967 11.690 C 14.067 12.343,13.873 12.933,13.403 13.404 C 13.002 13.807,12.547 14.000,12.000 14.000 C 11.485 14.000,11.038 13.822,10.653 13.465 C 9.323 12.229,10.189 10.005,12.000 10.005 C 12.143 10.005,12.378 10.036,12.523 10.073 " stroke="none" fill="black" fill-rule="evenodd"></path></svg>