<svg xmlns="http://www.w3.org/2000/svg" width="24" height="24" viewBox="0 0 24 24" fill="none" stroke="currentColor" stroke-width="2" stroke-linecap="round" stroke-linejoin="round" class="icon icon-tabler icons-tabler-outline icon-tabler-math-greater"><path d="M4.578 5.035 C 4.381 5.125,4.218 5.312,4.095 5.587 C 3.888 6.054,3.941 6.434,4.248 6.697 C 4.370 6.802,5.841 7.449,10.404 9.405 C 13.702 10.818,16.400 11.986,16.400 12.000 C 16.400 12.014,13.702 13.182,10.404 14.595 C 5.841 16.551,4.370 17.198,4.248 17.303 C 3.927 17.577,3.885 17.969,4.123 18.466 C 4.337 18.914,4.654 19.095,5.073 19.008 C 5.197 18.982,8.514 17.582,12.445 15.898 C 17.910 13.556,19.629 12.803,19.752 12.697 C 20.049 12.444,20.110 12.063,19.924 11.630 C 19.818 11.382,19.675 11.231,19.433 11.110 C 18.968 10.877,5.366 5.070,5.162 5.017 C 4.878 4.943,4.774 4.946,4.578 5.035 " stroke="none" fill="black" fill-rule="evenodd"></path></svg>