<svg xmlns="http://www.w3.org/2000/svg" width="24" height="24" viewBox="0 0 24 24" fill="none" stroke="currentColor" stroke-width="2" stroke-linecap="round" stroke-linejoin="round" class="icon icon-tabler icons-tabler-outline icon-tabler-brand-coinbase"><path d="M12.180 1.025 C 10.240 1.187,8.484 1.791,6.913 2.838 C 6.215 3.303,5.802 3.639,5.237 4.200 C 3.708 5.721,2.660 7.680,2.219 9.844 C 1.660 12.589,2.233 15.634,3.746 17.954 C 4.912 19.743,6.624 21.221,8.480 22.042 C 10.741 23.041,13.248 23.266,15.600 22.679 C 17.456 22.216,19.128 21.298,20.506 19.987 C 20.902 19.610,21.047 19.374,21.047 19.102 C 21.047 18.722,20.999 18.665,19.068 16.727 C 17.899 15.554,17.189 14.872,17.060 14.797 C 16.815 14.654,16.544 14.641,16.303 14.760 C 16.213 14.804,15.998 14.966,15.823 15.120 C 15.258 15.622,14.722 15.915,14.020 16.108 C 13.661 16.207,13.555 16.218,12.980 16.218 C 12.405 16.218,12.300 16.207,11.940 16.108 C 11.452 15.974,10.830 15.676,10.480 15.409 C 10.156 15.163,9.709 14.693,9.506 14.388 C 9.281 14.048,9.019 13.468,8.914 13.080 C 8.832 12.780,8.822 12.652,8.823 11.980 C 8.825 11.277,8.833 11.195,8.930 10.880 C 9.160 10.130,9.528 9.510,10.047 8.996 C 10.557 8.491,11.128 8.156,11.860 7.934 C 12.198 7.831,12.267 7.825,12.980 7.825 C 13.693 7.825,13.762 7.831,14.100 7.934 C 14.788 8.143,15.253 8.405,15.840 8.916 C 16.360 9.370,16.613 9.448,16.986 9.273 C 17.201 9.172,17.322 9.056,19.355 6.996 C 20.453 5.883,20.901 5.402,20.959 5.276 C 21.145 4.865,21.018 4.538,20.470 4.017 C 18.771 2.400,16.518 1.339,14.240 1.081 C 13.826 1.035,12.501 0.998,12.180 1.025 M13.700 3.041 C 14.508 3.116,15.311 3.293,16.050 3.561 C 16.744 3.812,17.942 4.480,18.392 4.867 L 18.523 4.980 17.562 5.966 L 16.601 6.953 16.330 6.774 C 15.842 6.451,15.128 6.139,14.500 5.975 C 13.613 5.742,12.347 5.742,11.460 5.975 C 9.382 6.519,7.731 8.071,7.086 10.090 C 5.988 13.521,7.981 17.152,11.451 18.043 C 13.104 18.468,14.800 18.200,16.284 17.280 L 16.590 17.090 17.562 18.062 C 18.422 18.923,18.528 19.042,18.480 19.100 C 18.450 19.136,18.217 19.305,17.963 19.475 C 14.612 21.713,10.277 21.469,7.180 18.869 C 5.493 17.453,4.381 15.393,4.076 13.120 C 4.011 12.638,4.011 11.377,4.074 10.880 C 4.294 9.171,5.036 7.484,6.152 6.157 C 7.983 3.978,10.886 2.780,13.700 3.041 " stroke="none" fill="black" fill-rule="evenodd"></path></svg>