<svg xmlns="http://www.w3.org/2000/svg" width="24" height="24" viewBox="0 0 24 24" fill="none" stroke="currentColor" stroke-width="2" stroke-linecap="round" stroke-linejoin="round" class="icon icon-tabler icons-tabler-outline icon-tabler-settings-question"><path d="M11.579 2.039 C 10.582 2.179,9.722 2.908,9.421 3.866 C 9.287 4.293,9.167 4.464,8.928 4.569 C 8.691 4.674,8.518 4.649,8.107 4.446 C 7.251 4.024,6.480 4.018,5.650 4.425 C 4.677 4.904,4.074 5.926,4.132 7.000 C 4.154 7.418,4.236 7.700,4.486 8.218 C 4.655 8.567,4.671 8.688,4.578 8.911 C 4.476 9.155,4.330 9.275,4.021 9.367 C 2.978 9.677,2.274 10.426,2.063 11.448 C 1.882 12.332,2.134 13.228,2.752 13.889 C 3.072 14.232,3.481 14.474,3.986 14.620 C 4.282 14.705,4.468 14.846,4.563 15.055 C 4.676 15.302,4.659 15.413,4.437 15.890 C 4.326 16.130,4.209 16.446,4.178 16.593 C 4.070 17.101,4.122 17.639,4.329 18.160 C 4.585 18.806,5.194 19.415,5.840 19.671 C 6.621 19.981,7.299 19.942,8.161 19.539 C 8.585 19.341,8.701 19.326,8.945 19.437 C 9.154 19.532,9.295 19.718,9.380 20.014 C 9.526 20.519,9.768 20.928,10.111 21.248 C 11.035 22.111,12.413 22.241,13.480 21.564 C 14.048 21.204,14.423 20.694,14.620 20.014 C 14.710 19.701,14.839 19.542,15.117 19.402 C 15.440 19.238,15.583 19.106,15.663 18.899 C 15.782 18.587,15.679 18.116,15.416 17.772 C 15.157 17.432,14.685 17.386,14.156 17.649 C 13.450 18.001,12.990 18.552,12.722 19.371 C 12.578 19.810,12.360 20.000,12.000 20.000 C 11.640 20.000,11.422 19.810,11.278 19.371 C 10.963 18.411,10.355 17.783,9.460 17.494 C 9.203 17.411,9.054 17.390,8.700 17.385 C 8.165 17.379,7.955 17.428,7.386 17.690 C 7.014 17.862,6.928 17.887,6.773 17.869 C 6.549 17.844,6.332 17.679,6.210 17.439 C 6.085 17.194,6.097 17.060,6.276 16.696 C 6.560 16.120,6.667 15.657,6.626 15.183 C 6.523 13.983,5.780 13.076,4.610 12.720 C 4.284 12.621,4.116 12.470,4.037 12.205 C 3.911 11.786,4.130 11.440,4.620 11.280 C 5.586 10.966,6.213 10.362,6.507 9.460 C 6.594 9.194,6.612 9.062,6.614 8.680 C 6.618 8.133,6.555 7.868,6.297 7.345 C 6.200 7.148,6.120 6.931,6.121 6.863 C 6.123 6.574,6.367 6.257,6.662 6.159 C 6.849 6.098,7.035 6.135,7.359 6.300 C 8.068 6.662,8.751 6.728,9.462 6.503 C 10.351 6.222,10.962 5.593,11.277 4.632 C 11.385 4.304,11.484 4.172,11.697 4.076 C 11.904 3.982,12.096 3.982,12.300 4.075 C 12.531 4.181,12.590 4.265,12.760 4.735 C 12.941 5.234,13.129 5.534,13.462 5.860 C 13.766 6.156,14.120 6.369,14.540 6.508 C 14.809 6.597,14.933 6.614,15.320 6.615 C 15.859 6.617,16.148 6.551,16.603 6.320 C 16.968 6.135,17.146 6.096,17.338 6.159 C 17.633 6.257,17.877 6.574,17.879 6.863 C 17.880 6.931,17.800 7.148,17.703 7.345 C 17.445 7.868,17.382 8.133,17.386 8.680 C 17.388 9.062,17.406 9.194,17.493 9.460 C 17.786 10.358,18.411 10.963,19.371 11.278 C 19.707 11.389,19.832 11.491,19.976 11.776 C 20.113 12.046,20.341 12.261,20.552 12.318 C 20.980 12.433,21.716 12.077,21.842 11.693 C 22.045 11.079,21.415 10.041,20.580 9.614 C 20.404 9.524,20.134 9.413,19.979 9.367 C 19.670 9.275,19.524 9.155,19.422 8.911 C 19.326 8.682,19.344 8.580,19.563 8.110 C 19.674 7.870,19.791 7.554,19.822 7.407 C 20.073 6.223,19.453 4.968,18.350 4.425 C 17.504 4.010,16.701 4.027,15.813 4.481 C 15.463 4.660,15.305 4.677,15.055 4.563 C 14.846 4.468,14.705 4.282,14.620 3.986 C 14.394 3.203,13.934 2.650,13.224 2.305 C 13.024 2.208,12.779 2.109,12.680 2.086 C 12.413 2.025,11.853 2.001,11.579 2.039 M11.310 8.063 C 9.753 8.345,8.517 9.494,8.115 11.034 C 7.999 11.476,7.974 12.166,8.057 12.640 C 8.236 13.665,8.712 14.476,9.516 15.127 C 10.922 16.263,13.060 16.282,14.429 15.169 C 14.667 14.976,14.819 14.656,14.785 14.415 C 14.738 14.067,14.431 13.639,14.114 13.477 C 13.879 13.357,13.654 13.377,13.335 13.545 C 12.724 13.867,12.620 13.913,12.394 13.961 C 12.100 14.024,11.662 13.991,11.350 13.883 C 10.474 13.582,9.914 12.689,10.027 11.774 C 10.164 10.669,11.144 9.893,12.232 10.028 C 12.911 10.112,13.513 10.539,13.796 11.137 C 13.967 11.500,14.021 11.861,13.968 12.305 C 13.885 13.012,14.058 13.328,14.621 13.499 C 15.248 13.689,15.730 13.451,15.905 12.866 C 16.016 12.495,16.007 11.457,15.890 11.033 C 15.588 9.944,14.922 9.060,14.016 8.549 C 13.178 8.076,12.204 7.902,11.310 8.063 M18.440 14.058 C 18.297 14.089,18.102 14.142,18.008 14.176 C 17.203 14.466,16.442 15.217,16.440 15.722 C 16.439 16.052,16.769 16.475,17.174 16.663 C 17.548 16.838,17.807 16.775,18.193 16.419 C 18.501 16.134,18.650 16.048,18.893 16.015 C 19.121 15.984,19.458 16.082,19.640 16.234 C 19.988 16.522,20.086 17.066,19.863 17.470 C 19.668 17.823,19.453 17.951,18.970 18.001 C 18.245 18.076,17.960 18.406,18.012 19.110 C 18.069 19.867,18.595 20.142,19.591 19.936 C 20.218 19.807,20.691 19.543,21.146 19.069 C 21.488 18.713,21.648 18.463,21.797 18.055 C 22.409 16.374,21.489 14.571,19.780 14.102 C 19.448 14.010,18.765 13.988,18.440 14.058 M18.614 21.057 C 18.221 21.180,18.039 21.435,18.009 21.906 C 17.962 22.621,18.306 23.000,19.000 23.000 C 19.698 23.000,20.043 22.616,19.989 21.900 C 19.963 21.563,19.859 21.327,19.678 21.199 C 19.414 21.010,18.957 20.950,18.614 21.057 " stroke="none" fill="black" fill-rule="evenodd"></path></svg>