<svg xmlns="http://www.w3.org/2000/svg" width="24" height="24" viewBox="0 0 24 24" fill="none" stroke="currentColor" stroke-width="2" stroke-linecap="round" stroke-linejoin="round" class="icon icon-tabler icons-tabler-outline icon-tabler-rectangular-prism"><path d="M14.460 4.060 C 14.306 4.089,14.100 4.142,14.003 4.177 C 13.700 4.287,3.513 9.403,3.280 9.562 C 2.652 9.990,2.209 10.674,2.044 11.472 C 1.983 11.766,1.983 17.234,2.044 17.528 C 2.204 18.302,2.672 19.036,3.260 19.439 C 3.575 19.654,7.781 21.753,8.120 21.864 C 8.422 21.963,8.520 21.975,9.000 21.976 C 9.857 21.978,9.176 22.285,16.638 18.528 L 20.735 16.465 21.033 16.183 C 21.503 15.736,21.759 15.294,21.923 14.647 C 22.000 14.343,22.003 14.219,21.991 11.395 L 21.980 8.460 21.850 8.074 C 21.637 7.447,21.195 6.860,20.692 6.537 C 20.391 6.344,16.137 4.222,15.900 4.146 C 15.435 3.998,14.943 3.969,14.460 4.060 M16.996 6.883 C 17.922 7.353,18.666 7.749,18.650 7.765 C 18.633 7.781,16.454 8.830,13.806 10.096 L 8.992 12.398 7.175 11.572 C 6.175 11.118,5.372 10.733,5.389 10.717 C 5.436 10.673,14.517 6.112,14.679 6.052 C 14.762 6.020,14.920 6.005,15.066 6.014 C 15.295 6.029,15.436 6.093,16.996 6.883 M19.991 11.810 C 19.979 14.541,19.992 14.405,19.697 14.700 C 19.590 14.807,18.366 15.437,14.797 17.221 C 12.181 18.530,10.031 19.600,10.020 19.600 C 10.009 19.600,10.000 18.370,10.000 16.867 L 10.000 14.133 14.970 11.751 C 17.703 10.440,19.954 9.366,19.971 9.364 C 19.989 9.362,19.998 10.463,19.991 11.810 M7.999 16.870 C 7.999 18.372,7.991 19.600,7.980 19.600 C 7.969 19.600,7.169 19.205,6.202 18.721 C 4.375 17.807,4.237 17.722,4.090 17.409 C 4.026 17.273,4.019 17.044,4.009 14.794 L 3.997 12.327 5.997 13.234 L 7.998 14.140 7.999 16.870 " stroke="none" fill="black" fill-rule="evenodd"></path></svg>