<svg xmlns="http://www.w3.org/2000/svg" width="24" height="24" viewBox="0 0 24 24" fill="none" stroke="currentColor" stroke-width="2" stroke-linecap="round" stroke-linejoin="round" class="icon icon-tabler icons-tabler-outline icon-tabler-arrows-right"><path d="M17.626 3.045 C 17.257 3.239,16.951 3.673,16.951 4.000 C 16.951 4.307,17.079 4.487,17.853 5.270 L 18.575 6.000 10.694 6.000 C 2.228 6.000,2.614 5.991,2.322 6.199 C 2.100 6.357,2.020 6.568,2.020 7.000 C 2.020 7.331,2.033 7.403,2.120 7.558 C 2.230 7.755,2.414 7.898,2.635 7.959 C 2.730 7.986,5.510 8.000,10.678 8.000 L 18.575 8.000 17.853 8.730 C 17.420 9.168,17.095 9.531,17.041 9.637 C 16.863 9.988,16.952 10.354,17.299 10.701 C 17.646 11.048,18.011 11.137,18.363 10.960 C 18.480 10.901,19.051 10.365,20.062 9.365 C 20.899 8.537,21.634 7.826,21.697 7.784 C 21.850 7.682,22.049 7.238,22.049 7.000 C 22.049 6.745,21.851 6.321,21.676 6.201 C 21.601 6.150,20.865 5.438,20.040 4.618 C 19.085 3.670,18.479 3.098,18.372 3.044 C 18.152 2.934,17.835 2.934,17.626 3.045 M17.626 13.045 C 17.257 13.239,16.951 13.673,16.951 14.000 C 16.951 14.307,17.079 14.487,17.853 15.270 L 18.575 16.000 10.694 16.000 C 2.228 16.000,2.614 15.991,2.322 16.199 C 2.100 16.357,2.020 16.568,2.020 17.000 C 2.020 17.331,2.033 17.403,2.120 17.558 C 2.230 17.755,2.414 17.898,2.635 17.959 C 2.730 17.986,5.510 18.000,10.678 18.000 L 18.575 18.000 17.853 18.730 C 17.420 19.168,17.095 19.531,17.041 19.637 C 16.863 19.988,16.952 20.354,17.299 20.701 C 17.646 21.048,18.011 21.137,18.363 20.960 C 18.480 20.901,19.051 20.365,20.062 19.365 C 20.899 18.537,21.634 17.826,21.697 17.784 C 21.850 17.682,22.049 17.238,22.049 17.000 C 22.049 16.745,21.851 16.321,21.676 16.201 C 21.601 16.150,20.865 15.438,20.040 14.618 C 19.085 13.670,18.479 13.098,18.372 13.044 C 18.152 12.934,17.835 12.934,17.626 13.045 " stroke="none" fill="black" fill-rule="evenodd"></path></svg>