<svg xmlns="http://www.w3.org/2000/svg" width="24" height="24" viewBox="0 0 24 24" fill="none" stroke="currentColor" stroke-width="2" stroke-linecap="round" stroke-linejoin="round" class="icon icon-tabler icons-tabler-outline icon-tabler-time-duration-45"><path d="M11.614 2.057 C 11.223 2.180,11.039 2.436,11.009 2.900 C 10.978 3.379,11.119 3.701,11.437 3.876 C 11.589 3.960,11.690 3.977,12.216 4.006 C 13.571 4.081,14.556 4.331,15.614 4.870 C 17.180 5.667,18.403 6.911,19.184 8.500 C 20.263 10.697,20.263 13.291,19.183 15.499 C 18.749 16.387,18.223 17.105,17.496 17.801 C 16.876 18.394,16.262 18.819,15.471 19.200 C 13.267 20.265,10.733 20.265,8.529 19.200 C 6.942 18.434,5.672 17.189,4.870 15.614 C 4.333 14.558,4.086 13.589,4.004 12.217 C 3.964 11.527,3.902 11.348,3.649 11.182 C 3.198 10.887,2.426 10.979,2.170 11.358 C 2.015 11.588,1.988 11.773,2.014 12.420 C 2.097 14.468,2.777 16.363,4.033 18.040 C 4.430 18.570,5.305 19.464,5.800 19.847 C 7.242 20.961,8.787 21.624,10.600 21.907 C 11.247 22.008,12.753 22.008,13.400 21.907 C 15.638 21.557,17.504 20.620,19.062 19.062 C 20.620 17.504,21.557 15.638,21.907 13.400 C 21.961 13.054,21.978 12.707,21.978 12.000 C 21.978 11.293,21.961 10.946,21.907 10.600 C 21.557 8.362,20.619 6.494,19.062 4.939 C 17.858 3.736,16.486 2.913,14.866 2.423 C 13.775 2.092,12.103 1.904,11.614 2.057 M7.080 3.266 C 6.695 3.398,6.509 3.704,6.509 4.207 C 6.509 4.628,6.641 4.910,6.913 5.070 C 7.083 5.170,7.136 5.180,7.500 5.180 C 7.864 5.180,7.917 5.170,8.087 5.070 C 8.361 4.909,8.490 4.629,8.488 4.203 C 8.487 3.844,8.403 3.607,8.215 3.434 C 7.976 3.214,7.455 3.137,7.080 3.266 M3.745 6.579 C 3.371 6.712,3.173 7.090,3.209 7.603 C 3.247 8.127,3.476 8.399,3.954 8.488 C 4.454 8.581,4.914 8.403,5.084 8.051 C 5.202 7.807,5.229 7.400,5.145 7.112 C 5.070 6.852,4.855 6.630,4.613 6.563 C 4.400 6.504,3.931 6.513,3.745 6.579 M6.614 8.057 C 6.377 8.131,6.212 8.261,6.109 8.453 C 6.023 8.614,6.020 8.664,6.008 9.914 C 6.000 10.736,6.012 11.283,6.039 11.416 C 6.114 11.779,6.299 12.107,6.591 12.399 C 7.073 12.882,7.424 13.000,8.368 13.000 L 9.000 13.000 9.000 14.110 C 9.000 14.730,9.018 15.284,9.041 15.365 C 9.148 15.750,9.437 15.962,9.896 15.991 C 10.381 16.022,10.699 15.882,10.880 15.558 L 10.980 15.380 10.980 12.000 L 10.980 8.620 10.889 8.450 C 10.724 8.140,10.329 7.970,9.874 8.011 C 9.439 8.051,9.141 8.274,9.041 8.635 C 9.018 8.716,9.000 9.270,9.000 9.890 L 9.000 11.000 8.503 11.000 L 8.005 11.000 7.993 9.810 C 7.981 8.669,7.976 8.613,7.891 8.453 C 7.842 8.362,7.746 8.247,7.678 8.199 C 7.414 8.010,6.957 7.950,6.614 8.057 M12.614 8.057 C 12.377 8.131,12.212 8.261,12.109 8.453 C 12.021 8.618,12.020 8.647,12.008 10.410 C 12.001 11.557,12.012 12.255,12.038 12.354 C 12.100 12.583,12.242 12.768,12.442 12.880 C 12.619 12.980,12.626 12.980,13.810 12.992 L 15.000 13.004 15.000 13.502 L 15.000 14.000 13.906 14.000 C 12.744 14.000,12.570 14.022,12.322 14.199 C 12.100 14.357,12.020 14.568,12.020 15.000 C 12.020 15.331,12.033 15.403,12.120 15.558 C 12.230 15.755,12.414 15.898,12.635 15.959 C 12.718 15.982,13.313 16.000,14.022 16.000 C 15.367 16.000,15.522 15.982,15.930 15.775 C 16.196 15.640,16.638 15.200,16.771 14.937 C 16.959 14.566,17.000 14.312,16.999 13.514 C 16.999 12.459,16.903 12.124,16.465 11.653 C 15.998 11.150,15.590 11.006,14.630 11.002 L 14.000 11.000 14.000 10.500 L 14.000 10.000 15.110 10.000 C 15.730 10.000,16.284 9.982,16.365 9.959 C 16.586 9.898,16.770 9.755,16.880 9.558 C 16.967 9.402,16.980 9.332,16.979 9.000 C 16.978 8.687,16.962 8.591,16.890 8.453 C 16.786 8.256,16.623 8.131,16.371 8.055 C 16.114 7.978,12.862 7.980,12.614 8.057 " stroke="none" fill="black" fill-rule="evenodd"></path></svg>