<svg xmlns="http://www.w3.org/2000/svg" width="24" height="24" viewBox="0 0 24 24" fill="none" stroke="currentColor" stroke-width="2" stroke-linecap="round" stroke-linejoin="round" class="icon icon-tabler icons-tabler-outline icon-tabler-device-speaker-off"><path d="M2.626 2.045 C 2.257 2.239,1.951 2.673,1.951 3.000 C 1.951 3.321,2.070 3.479,3.064 4.481 L 3.998 5.422 4.009 12.501 L 4.020 19.580 4.114 19.860 C 4.446 20.851,5.184 21.582,6.160 21.886 L 6.460 21.980 12.000 21.980 L 17.540 21.980 17.839 21.886 C 18.394 21.712,18.773 21.473,19.196 21.033 L 19.397 20.823 19.928 21.346 C 20.221 21.633,20.540 21.909,20.637 21.959 C 20.988 22.137,21.353 22.049,21.701 21.701 C 22.048 21.354,22.137 20.989,21.959 20.637 C 21.888 20.496,20.662 19.196,19.748 18.293 C 19.569 18.115,5.857 4.402,5.760 4.304 C 4.991 3.519,3.504 2.112,3.372 2.045 C 3.152 1.934,2.836 1.934,2.626 2.045 M6.614 2.057 C 6.377 2.132,6.212 2.261,6.109 2.453 C 6.035 2.592,6.020 2.684,6.020 3.000 C 6.020 3.331,6.033 3.403,6.120 3.558 C 6.230 3.755,6.414 3.898,6.635 3.959 C 6.729 3.985,8.608 4.000,11.943 4.000 C 17.764 4.000,17.373 3.979,17.697 4.303 C 18.021 4.627,18.000 4.236,18.000 10.057 C 18.000 13.392,18.015 15.271,18.041 15.365 C 18.148 15.750,18.437 15.962,18.896 15.991 C 19.381 16.022,19.699 15.882,19.880 15.558 L 19.980 15.380 19.980 9.920 L 19.980 4.460 19.886 4.160 C 19.581 3.182,18.832 2.428,17.861 2.121 L 17.540 2.020 12.160 2.012 C 7.811 2.006,6.748 2.014,6.614 2.057 M11.614 6.057 C 11.221 6.180,11.039 6.435,11.009 6.906 C 10.962 7.621,11.306 8.000,12.000 8.000 C 12.698 8.000,13.043 7.616,12.989 6.900 C 12.963 6.563,12.859 6.327,12.678 6.199 C 12.414 6.010,11.957 5.950,11.614 6.057 M9.140 11.215 C 8.146 12.257,7.782 13.638,8.137 15.020 C 8.459 16.268,9.450 17.350,10.651 17.764 C 12.145 18.278,13.700 17.927,14.829 16.822 L 15.119 16.538 16.519 17.939 C 17.290 18.710,17.920 19.359,17.920 19.382 C 17.920 19.476,17.660 19.768,17.486 19.871 L 17.300 19.980 12.000 19.980 L 6.700 19.980 6.516 19.872 C 6.415 19.813,6.284 19.700,6.225 19.623 C 5.987 19.311,6.000 19.677,6.000 13.285 L 6.000 7.420 7.730 9.150 L 9.460 10.879 9.140 11.215 M13.596 15.205 C 13.368 15.526,12.841 15.860,12.404 15.961 C 11.949 16.066,11.326 15.941,10.900 15.658 C 10.474 15.376,10.203 14.986,10.073 14.470 C 9.894 13.763,10.084 13.114,10.631 12.563 L 10.886 12.307 12.281 13.701 L 13.675 15.095 13.596 15.205 " stroke="none" fill="black" fill-rule="evenodd"></path></svg>