<svg xmlns="http://www.w3.org/2000/svg" width="24" height="24" viewBox="0 0 24 24" fill="none" stroke="currentColor" stroke-width="2" stroke-linecap="round" stroke-linejoin="round" class="icon icon-tabler icons-tabler-outline icon-tabler-snowflake"><path d="M11.614 1.057 C 11.377 1.131,11.212 1.261,11.109 1.453 C 11.026 1.608,11.019 1.680,11.007 2.490 C 11.000 2.969,10.988 3.360,10.981 3.360 C 10.973 3.360,10.798 3.278,10.590 3.178 C 10.112 2.946,9.849 2.910,9.584 3.038 C 9.367 3.143,9.221 3.306,9.091 3.590 C 8.946 3.905,8.928 4.190,9.040 4.420 C 9.161 4.670,9.317 4.777,10.230 5.234 L 11.000 5.619 11.000 6.766 L 11.000 7.914 9.993 8.500 C 9.090 9.026,8.976 9.082,8.890 9.043 C 8.811 9.007,6.987 7.959,6.977 7.944 C 6.976 7.942,6.999 7.562,7.029 7.100 C 7.090 6.160,7.077 5.931,6.948 5.701 C 6.785 5.411,6.500 5.281,6.029 5.280 C 5.713 5.280,5.515 5.351,5.329 5.531 C 5.165 5.689,5.093 5.925,5.057 6.421 C 5.037 6.694,5.015 6.799,4.981 6.786 C 4.954 6.776,4.648 6.604,4.300 6.404 C 3.494 5.940,3.299 5.884,2.970 6.022 C 2.773 6.104,2.695 6.178,2.518 6.450 C 2.207 6.927,2.221 7.307,2.559 7.640 C 2.665 7.743,3.011 7.973,3.372 8.178 C 3.717 8.376,4.000 8.549,4.000 8.563 C 4.000 8.578,3.857 8.683,3.682 8.796 C 3.292 9.050,3.098 9.268,3.046 9.510 C 2.940 10.005,3.416 10.695,3.918 10.775 C 4.174 10.816,4.406 10.708,5.215 10.174 L 5.969 9.675 6.575 10.025 C 6.908 10.218,7.355 10.475,7.570 10.598 L 7.959 10.820 7.960 12.001 L 7.960 13.182 6.964 13.754 L 5.968 14.327 5.312 13.888 C 4.392 13.273,4.282 13.222,3.897 13.236 C 3.603 13.246,3.164 13.705,3.058 14.113 C 2.949 14.534,3.128 14.845,3.695 15.220 C 3.861 15.330,3.998 15.431,3.999 15.445 C 3.999 15.458,3.717 15.629,3.372 15.825 C 3.007 16.031,2.667 16.256,2.560 16.360 C 2.242 16.672,2.210 17.033,2.462 17.466 C 2.691 17.860,2.940 18.040,3.252 18.040 C 3.505 18.040,3.625 17.989,4.349 17.573 C 4.705 17.368,5.004 17.200,5.013 17.200 C 5.022 17.200,5.042 17.372,5.057 17.581 C 5.105 18.240,5.241 18.505,5.609 18.658 C 5.778 18.729,6.226 18.740,6.445 18.679 C 6.790 18.584,7.017 18.311,7.060 17.940 C 7.073 17.830,7.059 17.362,7.029 16.900 C 6.999 16.438,6.976 16.058,6.977 16.056 C 6.979 16.053,7.425 15.795,7.970 15.482 L 8.959 14.913 9.970 15.491 L 10.980 16.069 10.991 17.225 L 11.001 18.380 10.231 18.766 C 9.807 18.978,9.386 19.206,9.295 19.272 C 9.061 19.444,8.943 19.703,8.972 19.984 C 9.017 20.421,9.303 20.861,9.621 20.983 C 9.887 21.084,10.131 21.044,10.582 20.826 C 10.794 20.724,10.975 20.640,10.984 20.640 C 10.993 20.640,11.000 20.996,11.000 21.430 C 11.000 21.864,11.019 22.285,11.041 22.365 C 11.148 22.750,11.437 22.962,11.896 22.991 C 12.381 23.022,12.699 22.882,12.880 22.558 C 12.977 22.386,12.980 22.351,12.993 21.510 C 13.001 21.032,13.013 20.640,13.020 20.640 C 13.027 20.640,13.206 20.724,13.418 20.826 C 14.037 21.126,14.406 21.102,14.699 20.743 C 15.011 20.363,15.115 19.900,14.960 19.580 C 14.839 19.330,14.683 19.223,13.770 18.766 L 13.000 18.381 13.000 17.234 L 13.000 16.088 13.950 15.537 C 14.473 15.234,14.929 14.969,14.965 14.947 C 15.016 14.916,15.249 15.033,16.025 15.479 C 16.572 15.794,17.021 16.053,17.023 16.056 C 17.024 16.058,17.001 16.438,16.971 16.900 C 16.941 17.362,16.927 17.830,16.940 17.940 C 16.983 18.311,17.210 18.584,17.555 18.679 C 17.774 18.740,18.222 18.729,18.391 18.658 C 18.759 18.505,18.895 18.240,18.943 17.581 C 18.958 17.372,18.978 17.200,18.987 17.200 C 18.996 17.200,19.295 17.368,19.651 17.573 C 20.375 17.989,20.495 18.040,20.748 18.040 C 21.060 18.040,21.309 17.860,21.538 17.466 C 21.790 17.033,21.758 16.672,21.440 16.360 C 21.333 16.256,20.993 16.031,20.628 15.825 C 20.283 15.629,20.001 15.458,20.001 15.445 C 20.002 15.431,20.139 15.330,20.305 15.220 C 20.872 14.845,21.051 14.534,20.942 14.113 C 20.836 13.705,20.397 13.246,20.103 13.236 C 19.718 13.222,19.608 13.273,18.689 13.887 C 18.329 14.128,18.021 14.319,18.005 14.312 C 17.989 14.306,17.541 14.048,17.008 13.741 L 16.040 13.182 16.040 12.001 L 16.041 10.820 16.290 10.677 C 16.428 10.599,16.876 10.342,17.286 10.105 L 18.031 9.676 18.786 10.175 C 19.618 10.725,19.845 10.826,20.115 10.766 C 20.616 10.653,21.057 9.994,20.954 9.510 C 20.903 9.269,20.718 9.061,20.323 8.802 C 20.145 8.685,20.000 8.578,20.000 8.563 C 20.000 8.549,20.283 8.376,20.628 8.178 C 20.989 7.973,21.335 7.743,21.441 7.640 C 21.779 7.307,21.793 6.927,21.482 6.450 C 21.305 6.178,21.227 6.104,21.030 6.022 C 20.690 5.880,20.488 5.942,19.603 6.458 C 19.318 6.625,19.059 6.771,19.028 6.782 C 18.983 6.800,18.966 6.728,18.943 6.421 C 18.907 5.925,18.835 5.689,18.671 5.531 C 18.485 5.351,18.287 5.280,17.971 5.280 C 17.500 5.281,17.215 5.411,17.052 5.701 C 16.924 5.929,16.911 6.156,16.969 7.104 L 17.021 7.947 16.080 8.491 C 15.563 8.790,15.113 9.045,15.080 9.058 C 15.045 9.071,14.597 8.839,14.020 8.509 L 13.020 7.937 13.009 6.778 L 12.999 5.620 13.769 5.234 C 14.683 4.777,14.839 4.670,14.960 4.420 C 15.072 4.190,15.054 3.905,14.909 3.590 C 14.779 3.306,14.633 3.143,14.416 3.038 C 14.151 2.910,13.888 2.946,13.410 3.178 C 13.202 3.278,13.027 3.360,13.020 3.360 C 13.013 3.360,13.001 2.969,12.993 2.490 C 12.980 1.683,12.973 1.608,12.891 1.453 C 12.842 1.362,12.746 1.247,12.678 1.199 C 12.414 1.010,11.957 0.950,11.614 1.057 M13.233 10.360 L 14.039 10.820 14.038 12.000 L 14.037 13.180 13.032 13.760 C 12.478 14.079,12.006 14.334,11.983 14.327 C 11.959 14.320,11.494 14.059,10.949 13.748 L 9.959 13.183 9.969 12.002 L 9.980 10.821 10.980 10.237 L 11.980 9.653 12.203 9.776 C 12.325 9.844,12.789 10.107,13.233 10.360 " stroke="none" fill="black" fill-rule="evenodd"></path></svg>