<svg xmlns="http://www.w3.org/2000/svg" width="24" height="24" viewBox="0 0 24 24" fill="none" stroke="currentColor" stroke-width="2" stroke-linecap="round" stroke-linejoin="round" class="icon icon-tabler icons-tabler-outline icon-tabler-stretching-2"><path d="M11.477 2.073 C 10.806 2.249,10.238 2.823,10.060 3.508 C 9.941 3.962,10.003 4.492,10.225 4.930 C 10.361 5.199,10.801 5.639,11.070 5.775 C 11.659 6.073,12.341 6.073,12.930 5.775 C 13.196 5.640,13.638 5.200,13.771 4.937 C 13.994 4.498,14.052 4.007,13.940 3.529 C 13.858 3.182,13.720 2.927,13.465 2.653 C 13.074 2.232,12.560 2.005,12.000 2.005 C 11.857 2.005,11.622 2.036,11.477 2.073 M18.720 4.036 C 18.621 4.076,17.001 4.990,15.120 6.066 C 13.239 7.142,11.646 8.044,11.580 8.070 C 11.514 8.096,9.939 8.551,8.080 9.081 C 6.221 9.611,4.610 10.086,4.500 10.137 C 4.138 10.305,3.987 10.524,3.988 10.880 C 3.989 11.326,4.224 11.786,4.534 11.948 C 4.807 12.090,4.965 12.055,8.060 11.168 L 10.980 10.332 11.000 12.296 C 11.014 13.681,11.034 14.291,11.067 14.365 C 11.093 14.423,12.029 16.070,13.146 18.025 C 14.373 20.173,15.241 21.650,15.339 21.756 C 15.611 22.053,15.887 22.111,16.297 21.958 C 16.552 21.862,16.907 21.561,16.986 21.372 C 17.057 21.203,17.055 20.971,16.980 20.760 C 16.947 20.666,16.038 19.046,14.960 17.160 L 13.000 13.730 13.001 11.655 L 13.001 9.580 16.315 7.687 C 19.694 5.757,19.891 5.632,19.998 5.347 C 20.107 5.056,19.985 4.611,19.710 4.298 C 19.425 3.974,19.093 3.886,18.720 4.036 M9.600 15.038 C 9.523 15.079,9.403 15.173,9.334 15.247 C 9.173 15.417,5.676 20.413,5.563 20.634 C 5.517 20.725,5.467 20.880,5.454 20.979 C 5.387 21.466,5.993 22.040,6.573 22.040 C 6.807 22.040,7.013 21.936,7.192 21.727 C 7.392 21.495,10.827 16.567,10.930 16.365 C 11.131 15.971,11.059 15.611,10.718 15.303 C 10.364 14.983,9.906 14.875,9.600 15.038 " stroke="none" fill="black" fill-rule="evenodd"></path></svg>