<svg xmlns="http://www.w3.org/2000/svg" width="24" height="24" viewBox="0 0 24 24" fill="none" stroke="currentColor" stroke-width="2" stroke-linecap="round" stroke-linejoin="round" class="icon icon-tabler icons-tabler-outline icon-tabler-quote-off"><path d="M2.626 2.045 C 2.257 2.239,1.951 2.673,1.951 3.000 C 1.951 3.329,2.061 3.471,3.259 4.680 L 4.389 5.820 4.296 5.954 C 4.245 6.027,4.162 6.189,4.111 6.314 C 4.021 6.536,4.020 6.570,4.008 8.375 C 3.995 10.353,4.003 10.458,4.202 10.877 C 4.348 11.186,4.771 11.623,5.070 11.775 C 5.493 11.990,5.601 12.000,7.368 12.000 L 9.000 12.000 9.000 12.650 C 8.999 13.008,8.981 13.462,8.959 13.660 C 8.765 15.374,7.875 16.381,6.060 16.941 C 5.433 17.134,5.221 17.249,5.093 17.469 C 4.920 17.764,4.979 18.332,5.218 18.677 C 5.475 19.048,5.843 19.096,6.620 18.860 C 8.424 18.313,9.660 17.356,10.358 15.963 C 10.772 15.138,10.951 14.345,10.994 13.150 L 11.020 12.439 13.216 14.636 L 15.412 16.833 14.996 16.960 C 14.200 17.204,13.988 17.402,13.995 17.893 C 14.005 18.576,14.346 19.008,14.876 19.008 C 15.208 19.008,16.278 18.683,16.775 18.431 L 16.931 18.353 18.695 20.112 C 19.899 21.312,20.516 21.900,20.637 21.960 C 20.989 22.137,21.354 22.048,21.701 21.701 C 22.116 21.286,22.159 20.868,21.832 20.440 C 21.790 20.385,19.298 17.874,16.295 14.860 C 13.291 11.846,10.795 9.341,10.747 9.293 C 10.699 9.244,9.805 8.350,8.760 7.306 C 7.715 6.261,6.815 5.361,6.760 5.305 C 5.625 4.153,3.503 2.111,3.372 2.045 C 3.152 1.934,2.835 1.934,2.626 2.045 M14.477 5.073 C 13.806 5.249,13.238 5.823,13.060 6.508 C 13.011 6.694,13.000 7.063,13.000 8.478 C 13.000 9.522,13.017 10.278,13.041 10.365 C 13.137 10.710,13.417 10.942,13.792 10.987 L 13.990 11.010 14.013 11.208 C 14.058 11.583,14.290 11.863,14.635 11.959 C 14.721 11.983,15.435 12.000,16.390 12.000 L 18.000 12.000 18.000 12.650 C 17.999 13.426,17.953 13.868,17.812 14.449 C 17.718 14.839,17.712 14.903,17.756 15.098 C 17.794 15.269,17.840 15.346,17.975 15.472 C 18.193 15.672,18.546 15.808,18.860 15.811 C 19.391 15.817,19.638 15.510,19.833 14.600 C 19.988 13.881,20.000 13.545,19.999 10.112 C 19.999 6.506,19.999 6.512,19.781 6.083 C 19.646 5.816,19.297 5.449,19.017 5.281 C 18.578 5.016,18.470 5.005,16.500 5.005 C 14.965 5.005,14.706 5.013,14.477 5.073 M18.000 8.500 L 18.000 10.000 16.500 10.000 L 15.000 10.000 15.000 8.500 L 15.000 7.000 16.500 7.000 L 18.000 7.000 18.000 8.500 M7.300 8.720 L 8.580 10.000 7.290 10.000 L 6.000 10.000 6.000 8.720 C 6.000 8.016,6.005 7.440,6.010 7.440 C 6.016 7.440,6.596 8.016,7.300 8.720 " stroke="none" fill="black" fill-rule="evenodd"></path></svg>