<svg xmlns="http://www.w3.org/2000/svg" width="24" height="24" viewBox="0 0 24 24" fill="none" stroke="currentColor" stroke-width="2" stroke-linecap="round" stroke-linejoin="round" class="icon icon-tabler icons-tabler-outline icon-tabler-bluetooth-x"><path d="M11.614 3.057 C 11.377 3.131,11.212 3.261,11.109 3.453 L 11.020 3.620 11.009 6.770 L 10.998 9.919 9.289 8.551 C 8.349 7.798,7.490 7.133,7.380 7.072 C 7.003 6.863,6.596 6.951,6.282 7.307 C 6.056 7.564,5.960 7.784,5.960 8.045 C 5.960 8.444,5.980 8.463,8.278 10.302 C 9.423 11.218,10.360 11.982,10.360 12.000 C 10.360 12.018,9.423 12.782,8.278 13.698 C 5.980 15.537,5.960 15.556,5.960 15.955 C 5.960 16.319,6.220 16.731,6.585 16.945 C 6.830 17.089,7.189 17.071,7.443 16.903 C 7.538 16.840,8.377 16.179,9.308 15.434 L 11.000 14.079 11.000 17.110 C 11.000 19.074,11.015 20.192,11.042 20.289 C 11.100 20.497,11.307 20.756,11.541 20.914 C 11.726 21.038,11.759 21.047,12.004 21.033 C 12.212 21.021,12.306 20.994,12.441 20.904 C 12.535 20.842,13.775 19.859,15.196 18.720 C 18.072 16.416,18.007 16.479,18.032 16.001 C 18.055 15.562,18.070 15.576,15.792 13.757 C 14.686 12.873,13.746 12.117,13.703 12.077 C 13.628 12.006,13.629 12.001,13.771 11.845 C 13.850 11.757,13.943 11.631,13.978 11.564 C 14.065 11.396,14.057 11.060,13.961 10.863 C 13.781 10.492,13.390 10.160,13.132 10.160 L 13.000 10.160 13.000 8.021 L 13.000 5.882 13.110 5.859 C 13.597 5.760,14.040 5.234,14.040 4.755 C 14.040 4.411,13.913 4.252,13.154 3.644 C 12.744 3.315,12.436 3.099,12.324 3.061 C 12.110 2.988,11.840 2.987,11.614 3.057 M15.626 5.045 C 15.257 5.239,14.951 5.673,14.951 6.000 C 14.951 6.307,15.079 6.487,15.853 7.270 L 16.575 8.000 15.853 8.730 C 15.079 9.513,14.951 9.693,14.951 10.000 C 14.951 10.477,15.523 11.049,16.000 11.049 C 16.307 11.049,16.487 10.921,17.270 10.147 L 18.000 9.425 18.730 10.147 C 19.513 10.921,19.693 11.049,20.000 11.049 C 20.477 11.049,21.049 10.477,21.049 10.000 C 21.049 9.693,20.921 9.513,20.147 8.730 L 19.425 8.000 20.147 7.270 C 20.580 6.832,20.905 6.469,20.959 6.363 C 21.137 6.012,21.048 5.646,20.701 5.299 C 20.360 4.958,19.979 4.868,19.628 5.045 C 19.533 5.094,19.144 5.444,18.730 5.853 L 18.000 6.575 17.270 5.853 C 16.856 5.444,16.467 5.094,16.372 5.045 C 16.152 4.934,15.836 4.934,15.626 5.045 M15.360 16.000 C 15.360 16.017,14.829 16.457,14.180 16.976 L 13.000 17.921 13.000 16.000 L 13.000 14.079 14.180 15.024 C 14.829 15.543,15.360 15.983,15.360 16.000 " stroke="none" fill="black" fill-rule="evenodd"></path></svg>