<svg xmlns="http://www.w3.org/2000/svg" width="24" height="24" viewBox="0 0 24 24" fill="none" stroke="currentColor" stroke-width="2" stroke-linecap="round" stroke-linejoin="round" class="icon icon-tabler icons-tabler-outline icon-tabler-subtask"><path d="M3.614 4.057 C 3.377 4.131,3.212 4.261,3.109 4.453 C 3.035 4.592,3.020 4.684,3.020 5.000 C 3.020 5.331,3.033 5.403,3.120 5.558 C 3.230 5.755,3.414 5.898,3.635 5.959 C 3.715 5.981,4.054 6.000,4.390 6.000 L 5.000 6.000 5.000 11.132 C 5.000 16.721,4.990 16.466,5.225 16.930 C 5.361 17.199,5.801 17.639,6.070 17.775 C 6.506 17.996,6.557 18.000,8.868 18.000 L 11.000 18.000 11.000 18.132 C 11.000 18.323,11.104 18.690,11.225 18.930 C 11.361 19.199,11.801 19.639,12.070 19.775 C 12.522 20.004,12.453 20.000,16.000 20.000 C 19.547 20.000,19.478 20.004,19.930 19.775 C 20.196 19.640,20.638 19.200,20.771 18.937 C 20.979 18.527,21.000 18.352,20.999 17.014 C 20.999 15.682,20.974 15.463,20.781 15.083 C 20.646 14.816,20.297 14.449,20.017 14.281 C 19.548 13.999,19.636 14.005,16.000 14.005 C 12.364 14.005,12.452 13.999,11.983 14.281 C 11.703 14.449,11.354 14.816,11.219 15.083 C 11.103 15.311,11.000 15.681,11.000 15.868 L 11.000 16.000 9.000 16.000 L 7.000 16.000 7.000 13.000 L 7.000 10.000 9.000 10.000 L 11.000 10.000 11.000 10.132 C 11.000 10.323,11.104 10.690,11.225 10.930 C 11.361 11.199,11.801 11.639,12.070 11.775 C 12.522 12.004,12.453 12.000,16.000 12.000 C 19.547 12.000,19.478 12.004,19.930 11.775 C 20.196 11.640,20.638 11.200,20.771 10.937 C 20.979 10.527,21.000 10.352,20.999 9.014 C 20.999 7.682,20.974 7.463,20.781 7.083 C 20.646 6.816,20.297 6.449,20.017 6.281 C 19.548 5.999,19.636 6.005,16.000 6.005 C 12.364 6.005,12.452 5.999,11.983 6.281 C 11.703 6.449,11.354 6.816,11.219 7.083 C 11.103 7.311,11.000 7.681,11.000 7.868 L 11.000 8.000 9.000 8.000 L 7.000 8.000 7.000 7.000 L 7.000 6.000 7.610 6.000 C 7.946 6.000,8.285 5.981,8.365 5.959 C 8.586 5.898,8.770 5.755,8.880 5.558 C 8.967 5.402,8.980 5.332,8.979 5.000 C 8.978 4.567,8.898 4.355,8.678 4.199 C 8.406 4.005,8.336 4.000,5.984 4.003 C 4.293 4.005,3.741 4.017,3.614 4.057 M19.000 9.000 L 19.000 10.000 16.000 10.000 L 13.000 10.000 13.000 9.000 L 13.000 8.000 16.000 8.000 L 19.000 8.000 19.000 9.000 M19.000 17.000 L 19.000 18.000 16.000 18.000 L 13.000 18.000 13.000 17.000 L 13.000 16.000 16.000 16.000 L 19.000 16.000 19.000 17.000 " stroke="none" fill="black" fill-rule="evenodd"></path></svg>