<svg xmlns="http://www.w3.org/2000/svg" width="24" height="24" viewBox="0 0 24 24" fill="none" stroke="currentColor" stroke-width="2" stroke-linecap="round" stroke-linejoin="round" class="icon icon-tabler icons-tabler-outline icon-tabler-ux-circle"><path d="M11.080 2.045 C 9.507 2.184,7.883 2.751,6.540 3.630 C 5.905 4.045,5.499 4.378,4.919 4.958 C 2.953 6.926,1.919 9.544,2.013 12.320 C 2.084 14.439,2.752 16.328,4.033 18.040 C 4.430 18.570,5.305 19.464,5.800 19.847 C 7.242 20.961,8.787 21.624,10.600 21.907 C 11.247 22.008,12.753 22.008,13.400 21.907 C 15.638 21.557,17.504 20.620,19.062 19.062 C 20.620 17.504,21.557 15.638,21.907 13.400 C 22.008 12.753,22.008 11.247,21.907 10.600 C 21.624 8.786,20.959 7.238,19.847 5.800 C 19.510 5.365,18.639 4.494,18.200 4.154 C 16.133 2.555,13.646 1.818,11.080 2.045 M12.734 4.041 C 14.574 4.216,16.228 4.976,17.554 6.256 C 20.043 8.658,20.702 12.394,19.183 15.499 C 18.749 16.387,18.223 17.105,17.496 17.801 C 16.876 18.394,16.262 18.819,15.471 19.200 C 13.267 20.265,10.733 20.265,8.529 19.200 C 7.477 18.693,6.612 18.015,5.847 17.100 C 3.848 14.711,3.440 11.302,4.816 8.500 C 6.162 5.760,8.867 4.049,11.920 4.005 C 12.129 4.003,12.495 4.019,12.734 4.041 M13.654 9.057 C 13.221 9.258,12.960 9.598,12.960 9.960 C 12.960 10.245,13.035 10.379,13.682 11.243 L 14.249 12.000 13.682 12.757 C 13.371 13.173,13.081 13.586,13.038 13.675 C 12.937 13.885,12.936 14.197,13.037 14.394 C 13.211 14.735,13.696 15.039,14.065 15.040 C 14.384 15.040,14.582 14.883,15.064 14.246 C 15.287 13.952,15.483 13.711,15.500 13.711 C 15.517 13.711,15.713 13.952,15.936 14.246 C 16.418 14.883,16.616 15.040,16.935 15.040 C 17.304 15.039,17.789 14.735,17.963 14.394 C 18.067 14.190,18.064 13.884,17.955 13.668 C 17.909 13.576,17.619 13.162,17.311 12.750 L 16.751 12.000 17.311 11.250 C 17.619 10.838,17.909 10.424,17.955 10.332 C 18.064 10.116,18.067 9.810,17.963 9.606 C 17.789 9.265,17.304 8.961,16.935 8.960 C 16.616 8.960,16.418 9.117,15.936 9.754 C 15.713 10.048,15.517 10.289,15.500 10.289 C 15.483 10.289,15.287 10.048,15.064 9.754 C 14.582 9.117,14.384 8.960,14.065 8.960 C 13.933 8.961,13.787 8.995,13.654 9.057 M6.614 9.057 C 6.377 9.131,6.212 9.261,6.109 9.453 C 6.022 9.617,6.020 9.647,6.020 11.080 C 6.020 12.499,6.023 12.548,6.114 12.840 C 6.422 13.827,7.174 14.579,8.160 14.886 C 8.594 15.021,9.406 15.021,9.840 14.886 C 10.826 14.579,11.578 13.827,11.886 12.840 C 11.977 12.548,11.980 12.499,11.980 11.080 C 11.980 9.639,11.979 9.618,11.889 9.450 C 11.724 9.140,11.329 8.970,10.874 9.011 C 10.439 9.051,10.141 9.274,10.041 9.635 C 10.018 9.717,10.000 10.288,10.000 10.944 C 10.000 12.211,9.981 12.353,9.779 12.618 C 9.718 12.698,9.585 12.813,9.484 12.872 C 9.328 12.963,9.254 12.980,9.000 12.980 C 8.746 12.980,8.672 12.963,8.516 12.872 C 8.327 12.761,8.157 12.570,8.071 12.373 C 8.037 12.295,8.015 11.854,8.001 10.940 C 7.981 9.672,7.976 9.613,7.891 9.453 C 7.842 9.362,7.746 9.247,7.678 9.199 C 7.414 9.010,6.957 8.950,6.614 9.057 " stroke="none" fill="black" fill-rule="evenodd"></path></svg>