<svg xmlns="http://www.w3.org/2000/svg" width="24" height="24" viewBox="0 0 24 24" fill="none" stroke="currentColor" stroke-width="2" stroke-linecap="round" stroke-linejoin="round" class="icon icon-tabler icons-tabler-outline icon-tabler-building-bridge"><path d="M5.614 4.057 C 5.376 4.132,5.212 4.261,5.111 4.453 C 5.038 4.592,5.020 4.703,5.007 5.111 L 4.992 5.602 4.726 5.841 C 4.189 6.321,3.502 6.733,2.723 7.041 C 2.116 7.282,1.895 7.601,1.996 8.091 C 2.135 8.766,2.541 9.111,3.071 9.005 C 3.387 8.941,4.068 8.659,4.545 8.393 C 4.776 8.265,4.973 8.160,4.982 8.160 C 4.992 8.160,5.000 9.474,5.000 11.080 L 5.000 14.000 3.406 14.000 C 1.710 14.000,1.584 14.012,1.322 14.199 C 1.100 14.357,1.020 14.568,1.020 15.000 C 1.020 15.331,1.033 15.403,1.120 15.558 C 1.230 15.755,1.414 15.898,1.635 15.959 C 1.721 15.983,2.435 16.000,3.390 16.000 L 5.000 16.000 5.000 17.610 C 5.000 18.565,5.017 19.279,5.041 19.365 C 5.148 19.750,5.437 19.962,5.896 19.991 C 6.381 20.022,6.699 19.882,6.880 19.558 L 6.980 19.380 6.992 17.690 L 7.004 16.000 12.002 16.000 L 17.000 16.000 17.000 17.610 C 17.000 18.565,17.017 19.279,17.041 19.365 C 17.148 19.750,17.437 19.962,17.896 19.991 C 18.381 20.022,18.699 19.882,18.880 19.558 L 18.980 19.380 18.992 17.690 L 19.004 16.000 20.612 16.000 C 21.566 16.000,22.279 15.983,22.365 15.959 C 22.586 15.898,22.770 15.755,22.880 15.558 C 22.967 15.402,22.980 15.332,22.979 15.000 C 22.978 14.567,22.898 14.355,22.678 14.199 C 22.416 14.012,22.290 14.000,20.594 14.000 L 19.000 14.000 19.000 11.080 C 19.000 9.474,19.008 8.160,19.018 8.160 C 19.027 8.160,19.224 8.265,19.455 8.393 C 19.932 8.659,20.613 8.941,20.929 9.005 C 21.481 9.116,21.912 8.714,22.021 7.987 C 22.083 7.572,21.837 7.263,21.266 7.037 C 20.499 6.733,19.809 6.319,19.275 5.841 L 19.010 5.604 18.992 5.112 C 18.972 4.542,18.900 4.346,18.649 4.182 C 18.199 3.887,17.426 3.979,17.170 4.358 C 17.032 4.563,17.000 4.738,17.000 5.302 L 17.000 5.823 16.796 6.182 C 16.517 6.670,16.233 7.041,15.850 7.415 C 15.099 8.149,14.225 8.627,13.189 8.870 C 12.794 8.963,12.654 8.976,12.020 8.977 C 11.252 8.978,10.955 8.936,10.300 8.732 C 9.054 8.343,7.851 7.351,7.193 6.171 L 7.020 5.860 6.998 5.240 C 6.973 4.548,6.918 4.369,6.678 4.199 C 6.414 4.010,5.957 3.950,5.614 4.057 M7.320 9.355 C 7.828 9.769,8.633 10.235,9.281 10.492 C 9.644 10.636,10.321 10.825,10.690 10.885 L 11.000 10.936 11.000 12.468 L 11.000 14.000 9.000 14.000 L 7.000 14.000 7.000 11.558 C 7.000 9.614,7.010 9.122,7.050 9.146 C 7.078 9.163,7.199 9.257,7.320 9.355 M17.000 11.560 L 17.000 14.000 15.000 14.000 L 13.000 14.000 13.000 12.468 L 13.000 10.936 13.310 10.885 C 14.465 10.696,15.741 10.113,16.717 9.327 C 16.858 9.213,16.979 9.120,16.987 9.120 C 16.994 9.120,17.000 10.218,17.000 11.560 " stroke="none" fill="black" fill-rule="evenodd"></path></svg>