<svg xmlns="http://www.w3.org/2000/svg" width="24" height="24" viewBox="0 0 24 24" fill="none" stroke="currentColor" stroke-width="2" stroke-linecap="round" stroke-linejoin="round" class="icon icon-tabler icons-tabler-outline icon-tabler-frustum-off"><path d="M11.460 1.058 C 11.306 1.086,11.045 1.164,10.880 1.231 C 10.338 1.450,7.290 2.826,7.102 2.937 C 6.636 3.210,6.560 3.767,6.914 4.325 C 7.152 4.699,7.518 4.844,7.906 4.719 C 7.990 4.692,8.888 4.299,9.900 3.845 C 11.696 3.040,11.746 3.020,12.000 3.022 C 12.250 3.024,12.328 3.054,14.052 3.827 C 15.038 4.269,15.839 4.646,15.834 4.665 C 15.828 4.684,15.021 5.059,14.041 5.497 C 12.031 6.396,12.037 6.394,11.585 6.224 C 11.279 6.108,10.987 6.090,10.789 6.175 C 10.399 6.343,10.080 7.034,10.195 7.462 C 10.252 7.674,10.512 7.933,10.782 8.044 C 10.973 8.123,10.998 8.148,11.020 8.277 C 11.097 8.733,11.458 9.000,12.000 9.000 C 12.544 9.000,12.903 8.735,12.975 8.280 C 12.991 8.184,13.025 8.123,13.070 8.110 C 13.108 8.100,14.117 7.654,15.312 7.120 C 16.553 6.564,17.498 6.163,17.516 6.184 C 17.561 6.233,20.002 16.035,20.001 16.160 C 20.000 16.215,19.964 16.386,19.920 16.540 C 19.823 16.879,19.818 17.122,19.905 17.305 C 20.052 17.615,20.533 17.883,20.960 17.892 C 21.243 17.899,21.478 17.771,21.643 17.523 C 21.916 17.111,22.064 16.261,21.961 15.696 C 21.858 15.127,19.353 5.179,19.238 4.881 C 19.022 4.321,18.552 3.763,18.034 3.452 C 17.789 3.305,13.203 1.247,12.900 1.148 C 12.445 1.000,11.950 0.969,11.460 1.058 M2.626 2.045 C 2.257 2.239,1.951 2.673,1.951 3.000 C 1.951 3.332,2.059 3.469,3.298 4.715 L 4.467 5.890 3.250 10.755 C 2.146 15.167,2.030 15.659,2.011 16.041 C 1.984 16.568,2.075 16.970,2.345 17.518 C 2.498 17.829,2.592 17.957,2.876 18.242 C 3.089 18.456,3.319 18.642,3.480 18.731 C 3.623 18.809,5.364 19.650,7.348 20.598 C 9.902 21.818,11.048 22.346,11.268 22.404 C 11.693 22.514,12.307 22.514,12.731 22.404 C 12.947 22.348,13.856 21.934,15.681 21.061 C 17.132 20.368,18.332 19.800,18.348 19.800 C 18.364 19.800,18.845 20.266,19.418 20.835 C 20.088 21.501,20.523 21.902,20.637 21.960 C 20.989 22.137,21.354 22.048,21.701 21.701 C 22.116 21.287,22.159 20.869,21.833 20.440 C 21.777 20.367,15.924 14.474,12.747 11.293 C 10.675 9.218,3.631 2.222,3.560 2.167 C 3.263 1.941,2.910 1.895,2.626 2.045 M10.990 16.269 L 10.980 20.117 7.712 18.553 C 4.303 16.923,4.252 16.895,4.101 16.576 C 3.943 16.243,3.924 16.338,5.018 11.960 C 5.582 9.705,6.062 7.790,6.085 7.703 L 6.127 7.547 8.564 9.984 L 11.000 12.420 10.990 16.269 M16.808 18.288 C 16.780 18.316,13.674 19.815,13.210 20.024 L 13.000 20.119 13.000 17.270 L 13.000 14.420 14.919 16.339 C 15.975 17.394,16.825 18.271,16.808 18.288 " stroke="none" fill="black" fill-rule="evenodd"></path></svg>