<svg xmlns="http://www.w3.org/2000/svg" width="24" height="24" viewBox="0 0 24 24" fill="none" stroke="currentColor" stroke-width="2" stroke-linecap="round" stroke-linejoin="round" class="icon icon-tabler icons-tabler-outline icon-tabler-flare"><path d="M11.570 2.042 C 11.477 2.089,11.353 2.184,11.296 2.252 C 11.239 2.319,10.530 3.699,9.720 5.317 L 8.248 8.260 5.352 9.706 C 3.759 10.502,2.399 11.200,2.330 11.258 C 2.162 11.399,2.000 11.740,1.972 12.012 C 1.943 12.297,2.059 12.555,2.295 12.728 C 2.386 12.794,3.765 13.501,5.360 14.300 L 8.260 15.752 9.700 18.644 C 11.280 21.817,11.266 21.794,11.695 21.955 C 12.113 22.111,12.472 22.033,12.708 21.735 C 12.775 21.650,13.488 20.266,14.291 18.660 L 15.752 15.740 18.648 14.294 C 20.241 13.498,21.601 12.800,21.670 12.742 C 21.838 12.601,22.000 12.260,22.028 11.988 C 22.057 11.703,21.941 11.445,21.705 11.272 C 21.614 11.206,20.235 10.499,18.640 9.700 L 15.740 8.248 14.294 5.352 C 13.498 3.759,12.800 2.399,12.742 2.330 C 12.595 2.155,12.253 1.997,11.972 1.974 C 11.787 1.959,11.705 1.973,11.570 2.042 M13.086 7.412 C 13.673 8.585,14.201 9.603,14.261 9.674 C 14.344 9.773,14.889 10.064,16.545 10.892 C 17.741 11.490,18.720 11.989,18.720 12.000 C 18.720 12.011,17.741 12.510,16.545 13.108 C 14.889 13.936,14.344 14.227,14.261 14.326 C 14.201 14.397,13.673 15.415,13.086 16.588 C 12.500 17.760,12.011 18.720,12.000 18.720 C 11.989 18.720,11.500 17.760,10.914 16.588 C 10.327 15.415,9.799 14.397,9.739 14.326 C 9.656 14.227,9.111 13.936,7.455 13.108 C 6.259 12.510,5.280 12.011,5.280 12.000 C 5.280 11.989,6.240 11.500,7.412 10.914 C 8.585 10.327,9.603 9.799,9.674 9.739 C 9.773 9.656,10.064 9.111,10.892 7.455 C 11.490 6.259,11.989 5.280,12.000 5.280 C 12.011 5.280,12.500 6.240,13.086 7.412 " stroke="none" fill="black" fill-rule="evenodd"></path></svg>