<svg xmlns="http://www.w3.org/2000/svg" width="24" height="24" viewBox="0 0 24 24" fill="none" stroke="currentColor" stroke-width="2" stroke-linecap="round" stroke-linejoin="round" class="icon icon-tabler icons-tabler-outline icon-tabler-letter-p"><path d="M6.614 3.057 C 6.377 3.131,6.212 3.261,6.109 3.453 L 6.020 3.620 6.010 11.914 C 6.003 17.391,6.013 20.260,6.040 20.358 C 6.144 20.747,6.434 20.962,6.896 20.991 C 7.381 21.022,7.699 20.882,7.880 20.558 L 7.980 20.380 7.991 17.190 L 8.002 14.000 10.441 14.000 C 13.070 14.000,13.308 13.986,14.001 13.784 C 14.694 13.583,15.199 13.333,15.763 12.915 C 18.210 11.101,18.724 7.676,16.915 5.237 C 15.993 3.994,14.621 3.210,13.072 3.042 C 12.471 2.977,6.828 2.990,6.614 3.057 M13.405 5.109 C 14.178 5.325,14.948 5.876,15.396 6.533 C 15.595 6.824,15.826 7.344,15.906 7.680 C 16.004 8.091,16.004 8.909,15.906 9.320 C 15.760 9.933,15.388 10.571,14.915 11.023 C 14.465 11.451,14.030 11.704,13.420 11.891 C 13.148 11.974,13.066 11.977,10.570 11.990 L 8.000 12.004 8.000 8.500 L 8.000 4.996 10.550 5.009 C 13.011 5.023,13.111 5.026,13.405 5.109 " stroke="none" fill="black" fill-rule="evenodd"></path></svg>